<svg xmlns="http://www.w3.org/2000/svg" viewBox="0 0 130 130">
<g transform="translate(0 32.5) scale(1 .7)" stroke-linecap="round" stroke-linejoin="round">
<path stroke="none" d="M6.5 107.25Q22.75 94.25 32.5 78L42.25 52L55.25 26L65 35.75L78 29.25L94.25 78Q107.25 94.25 123.5 107.25Q94.25 104 68.25 107.25Q35.75 110.5 6.5 107.25Z" fill="#c9b99a" />
<path stroke="none" d="M55.25 26L56.875 58.5L53.625 68.25L65 81.25L61.75 87.75L81.25 107.25L107.25 106.275L84.5 81.25L81.25 68.25L74.75 65L78 29.25L65 35.75Z" fill="#8d7758" />
<path d="M6.5 107.25Q22.75 94.25 32.5 78L42.25 52L55.25 26L65 35.75L78 29.25L94.25 78Q107.25 94.25 123.5 107.25M55.25 26L47.125 61.75L39 71.5L35.75 84.5L22.75 97.5M65 35.75L66.625 58.5L63.375 68.25M78 29.25L82.875 68.25" fill="none" />
<path d="M74.75 74.75L84.5 91M84.5 87.75L97.5 100.75M94.25 87.75L107.25 100.75M58.5 84.5L65 94.25" fill="none" />
</g>
</svg>
