<svg xmlns="http://www.w3.org/2000/svg" fill="#d7374a" stroke="#000" viewBox="50 50 200 200">
  <metadata source="http://wappenwiki.org/images/2/26/Brixen.svg" license="https://creativecommons.org/licenses/by-nc-sa/3.0"/>
  <g id="agnusDei" stroke-width=".35">
    <path class="secondary" d="M74.4 122.52s2.06.51 2.52 1.01c.97 1.14.92 3.24.49 4.21-.13.3-.79.07-1.53-.66 0 0 .35.94.01 1.56-.76-.66-1.68-2.45-3.18-3.48-.3-.42-.45-.87-.32-1.45s-.52-.64.43-.83c.7-.11 1.59-.36 1.59-.36z"/>
    <path d="M80.67 108.9c-1.17 1.1-3.57 1.73-4.78 1.77-2.11.07-5.02.05-5.7.79-.22.22-.35 1.26-.95 1.7-.18.43.42 1.5.71 2.81.3 1.13.66 3.03.85 3.26.42.9 1.3.24 1.78.51.24.17.25.22.33.58.13.6-.66.58-.64 1.23.02.44.25.4.6.61.36.19.35-.61.97-.65.59-.03.62.86.62.86s-1.74.86-1.65 2.83c-1.15-.25-1.6-1.43-2.9-1.98-1.32-.55-1.44-1.82-1.5-2.61-.06-.79-.69-3.43-.93-4.23-.4-1.25-1.41-3.88-1.5-5.06-.04-.44.43-1.16.53-1.75.15-.98 0-1.51.26-1.78.82-.82 2.44-.86 4.25-1.8 1.45-.59 4.75-2.95 5.32-3.72"/>
    <g fill="#f2bc51">
      <polygon points="71.19 128.59 70.28 127.81 126.48 60.73 127.41 61.51"/>
      <path d="M85.31 67.93a13.77 13.77 0 1 0 0 27.54 13.77 13.77 0 0 0 0-27.54z"/>
      <path d="M85.322 92.213c-5.8 0-10.51-4.71-10.51-10.51s4.71-10.509 10.51-10.509 10.51 4.71 10.51 10.51c0 5.811-4.71 10.51-10.51 10.51z"/>
      <path d="M87.3 83.64h.04c3.6.04 6.09 1.08 7.68 2.08a10.54 10.54 0 0 0 .03-7.95c-1.57 1-4.07 2.05-7.64 2.1h-.13v-.06c.05-3.66 1.13-6.2 2.15-7.78a10.57 10.57 0 0 0-8.1-.06 14.34 14.34 0 0 1 2.18 7.77v.12a15.16 15.16 0 0 1-7.89-2.26 10.5 10.5 0 0 0-.82 4.1c0 1.48.31 2.9.86 4.17a15.18 15.18 0 0 1 7.84-2.23c-.1 3.6-1.18 6.16-2.2 7.77a10.43 10.43 0 0 0 8.14-.06c-1-1.6-2.05-4.14-2.15-7.7z"/>
      <path d="m131.34 66.98-18.51 1.79v.9l18.5-1.8v-.89z"/>
      <path stroke-width=".23" d="M126.88 61.37c0 .02.3 1.92 1.06 3.3.8 1.43 2.88 2.58 2.89 2.6l-.2.36c-.1-.04-2.2-1.2-3.06-2.73-.56-1.01-1.01-2.26-1.08-2.95"/>
      <path stroke-width=".23" d="M126.27 61.58a19.5 19.5 0 0 1-5.86 4.5c-4.6 2.26-8.32 2.97-8.36 2.98l-.08-.4c.04-.02 3.7-.73 8.27-2.96a19.27 19.27 0 0 0 6.04-4.8l.37-.52.01.63"/>
      <path d="M130.64 66.36a1.08 1.08 0 1 1-1.08 1.08c.02-.6.5-1.08 1.08-1.08z"/>
      <path d="M112.48 68.04c.59 0 1.08.49 1.08 1.08 0 .59-.5 1.08-1.08 1.08-.6 0-1.08-.5-1.08-1.08-.01-.6.47-1.08 1.08-1.08z"/>
      <path d="M126.98 59.81c.59 0 1.08.5 1.08 1.08s-.5 1.08-1.08 1.08c-.6 0-1.08-.49-1.08-1.08a1.1 1.1 0 0 1 1.08-1.08z"/>
    </g>
    <path fill="#f6f6f6" d="m113.83 69.51 15.43-1.48s-1.3 3.38-.43 7.39c1.06 5.1 5 5.92 6.2 12.74.9 5.1-.84 8.23-.84 8.23s-.22-3.27-1.55-5.28c-1.67-2.5-4.22-3.88-4.22-3.88s.83 2.16.6 4.82c-.22 3.21-1.95 5.77-1.95 5.77s-.53-4.68-2.88-7.95c-2.02-2.8-8.28-7.74-9.64-12.6-1.37-4.92-.72-7.76-.72-7.76z"/>
    <path fill="#bc2e2e" d="m114.75 77.86.06.17.11.31c.02.02.03.05.03.07l.15.36c2.05-.65 4.06-.9 6.12-1.07.89 2.31 2.24 4.18 3.58 6.01a30.87 30.87 0 0 1 4.2 8.32v-.01c.03-.44.04-.87.03-1.28l-.06-.93a11.53 11.53 0 0 0-.55-2.58l-.02-.04v-.01l.02.01c.13.08 1.34.77 2.6 1.96-.91-2.86-2.6-5.01-4.1-7.09a26.71 26.71 0 0 1-2.77-4.63c1.64-.15 3.3-.39 5-.88-.06-.17-.1-.36-.17-.53v-.06l-.07-.2v-.08l-.07-.29c-.03-.15-.05-.32-.09-.47l-.01-.08-.07-.46-.15-.52a25.7 25.7 0 0 1-5.22.87c-.35-1.7-.37-3.69.08-6.15h-.05l-2.81.25a18.26 18.26 0 0 0-.02 6.11c-2 .19-4.08.46-6.24 1.14l.12.5.01.05.14.54.13.42.1.27z"/>
    <path class="secondary" d="M85.14 135.47s0 2.11-.39 2.68c-.87 1.2-2.92 1.67-3.98 1.48-.32-.05-.25-.74.27-1.64 0 0-.83.57-1.5.38.45-.9 1.95-2.23 2.6-3.92.34-.4.75-.65 1.34-.66.59-.01.5-.65.89.22.33.66.77 1.46.77 1.46z"/>
    <path class="secondary" d="M125.63 135.47s0 2.11-.38 2.68c-.87 1.2-2.92 1.67-3.98 1.48-.32-.05-.26-.74.27-1.64 0 0-.84.57-1.51.38.45-.9 1.96-2.23 2.6-3.92.35-.4.75-.65 1.34-.66.6-.01.5-.65.9.22.32.66.76 1.46.76 1.46z"/>
    <path class="secondary" d="M108.23 135.47s0 2.11-.38 2.68c-.87 1.2-2.92 1.67-3.98 1.48-.32-.05-.26-.74.27-1.64 0 0-.84.57-1.51.38.45-.9 1.96-2.23 2.6-3.92.35-.4.75-.65 1.34-.66.6-.01.5-.65.9.22.32.66.76 1.46.76 1.46z"/>
    <path d="M118.54 115.07c-.56 1.32-1.2 1.74-1.7 3.51-.06.2-.18.4-.19.63 0 .24.07.47.12.7.1.5.25 1.2-.1 1.57-.9.9-1.77 1.26-2.6 2.24-1.38 1.61-2.97 3.8-3.44 5.87-.38 1.72.52 2.5.3 3.05-.15.28-.29.5-.66.63-.63.22-.83-.42-1.55-.3-.48.09-.82.52-.84.74 0 .47.71.36.8 1.03.03.27-.5.56-.5.56s-1.38-1.37-3.2-.67c-.14-1.16 1.36-3.31 2.25-4.42 1.22-1.51 2.56-4.5 2.86-5.11.84-1.7 1.7-3.42 2.17-5.27.48-1.95-.39-2.86-1.06-5.92.69-.2 1.1-.3 1.72-.64.61-.35 1.33-.62 2.03-.47.44.1.82.35 1.18.6.78.52 1.64 1.14 2.41 1.67z"/>
    <path d="M129.16 106.59c.01-.16-.34-.35-.6-.92-.23-.45-.55-2.39-2.56-4.1-2.75-2.33-3.16-3.26-5.09-5.15-1.95-1.57-2.53-2.1-5.29-2.9a16.62 16.62 0 0 0-3.58-.58 43.3 43.3 0 0 0-5.87.2 90 90 0 0 1-6.4.42c-7.13 0-8.66-2.54-10.75-2.92-.58-.75-.5-1.85-.5-1.85s1.17.35 2.68-.28a4 4 0 0 1 3.22.17c.68.35 1.16.33 1.83.2.5-.11.83-.89.83-.89.39-.1.71-.2 1-.57a2 2 0 0 0 .37-1.15c0-.08-.12-.38-.11-.46 0-.05.1-.23.09-.49a4.4 4.4 0 0 0-.62-1.83c-.3-.55-1.54-2.02-1.94-2.62-.42-.62-.85-1.02-1.2-1.37-.13-.13-1.1-1.08-1.2-1.16a.97.97 0 0 1-.34-.62c-.1-.56-.7-1.18-1.25-1.53-.26-.16-.3-.23-.3-.31-.05-.36-.64-.93-1.12-1.04-.72-.17-1.18-.72-1.96-.76-.8-.02-1.15-.15-1.58-.22-.43-.07-.91.03-1.55-.1-1.77-.32-3.38.52-4.24 1.08s-2.66 1.33-3.64 3.45c-.38.84-.64 1.7-1.03 2.53-.37.8-.4 1.64-.65 2.48-.22.71-.72 1.36-.27 1.92 0 0-.11 1-.64 1.8-.41.66-.12 1.4.38 1.76 0 0-.21.79-.93 1.53-.55.57-.49 1.46.02 1.9-.4 1.23-2.8 2.44-1.58 4.43-1.7 1.26-.74 3.48-.92 4.44-1.18 2.4 1.32 4.64 1.32 4.64-1.02 2.26 2.06 4 2.06 4s.19 1.76 2.8 1.67c.57 1.77 2.34 2.23 3.03 2.36.14 1.08.37 1.93 1.57 4.38.08.16.26.3.26.46 0 .78.05 1.6.18 2.36.13.68.22.91.33 1.6.08.54.42.91.34 1.48-.18 1.19-.1 2.4-.21 3.59-.1 1.2-.35 2.4-.5 3.6-.18 1.4-1.12 2.27-1.05 3.43 1.87-.62 3.17.83 3.17.83s.55-.27.53-.53c-.04-.69-.76-.6-.74-1.07.03-.22-.11-.42.32-.65.64-.32 1.02.23 1.57-.16.33-.25.39-.49.46-.8.04-.6-1.4-.7-1.12-2.07.08-.47.43-2.06.47-3.3.03-1.26-.19-3.02.11-3.46.43-.6.58-1.18.86-1.84.28-1.04.34-1.48.01-2.52-.08-.26-.11-.18-.11-.4s-.25-1.1-.21-1.36c.1-.93.95-.7 1.3-1.9l.03.05c.23.1 1.58.4 1.83.37a16.9 16.9 0 0 1 3.08-.17c1.11.1 2.34-.13 3.43.06 1.32.22 2.4-.1 3.71-.27.48-.06.97-.1 1.43-.23.42-.12.85-.13 1.28-.21.56-.1 2.13.02 2.69.15 1.16.27 2.04-.05 3.23-.04.85.02 1.67-.2 2.49-.44 1.04-.29 1.91-.4 2.78-.94.7.94 1.32 2.53 3.25 3.43l-.01.02c.05.45.37.83.74 1.1.36.28.78.47 1.15.73 1.05.77 1.33 1.43 1.85 2.53.25.53.62 1.01.83 1.56.31.8 1.06 3 1.11 5.08 0 .98-.16 1.34-.27 2.76-.1 1.41-.98 2.5-.85 3.66 1.83-.7 3.2.66 3.2.66s.53-.29.5-.55c-.1-.68-.8-.56-.8-1.04.02-.22-.12-.4.29-.66.63-.36 1.03.18 1.56-.25.31-.26.36-.51.4-.83.03-.6-1.1-1.02-1.33-2.76-.22-1.65-.08-4.01-.3-5.67-.22-1.7-.44-2.24-.27-3.94.1-1.06.58-2.2.04-3.11-.42-.69-1.81-1.1-2.05-1.87-.1-.3-.08-.63-.07-.94.08-2.32.54-1.98.54-4.3 0-1.5-.37-3-.37-3s.4 1.04.69 1.42c.7.93 1.63 1.11 1.63 1.11s.6 1.78 2.67 2.18c.02-.29-.48-.87-.57-1.5-.08-.56.14-1.42.08-1.92-.13-.96-.54-1.33-.5-1.4.43.32 1.02.6 1.42.34z"/>
    <path fill="none" d="M81.08 113.75c-.13-.75-.28-1.55-.51-2.6-.51-1.46.2-2.73.2-2.73"/>
    <path fill="none" d="M110.71 108.67c.12.94.36 2.02 1.19 2.49 0 .7.6 1.32 1.3 1.41.34.6 1.02.6 1.34 1.2"/>
    <path d="M81.56 81.32c-.33.19-1.2.56-2.27.57-.93-.01-2.16-.01-3.25-.38-1.2.2-2.25-.48-2.26-.9.08-.57 1.4-.96 1.83-1.16 1.74-.8 2.3-1.4 3.26-1.78 1.25-.5 2.88-.6 3.63-.43"/>
    <path fill="#f6f6f6" stroke-width=".29" d="M91.45 79.15c-.3-.04-.63-.02-.85.2-.06.06-.2.37-.01.86.08.2.2.36.4.46.24.14.71.21 1 .13.3-.1.5-.22.5-.5.01-.48-.81-1.11-1.04-1.15z"/>
    <g fill="#000" stroke="none">
      <path d="M73.04 109.42a8.33 8.33 0 0 1 1.68-.24l.02.24h-1.7z"/>
      <path d="m69.55 110.44-.04.32-.01.31c0 .21-.04.47-.13.68-.04.1-.1.2-.16.31-.07.1-.15.2-.26.27a.87.87 0 0 1-.68.18v-.05a1.13 1.13 0 0 0 .65-.56c.05-.08.08-.18.12-.28l.17-.6c.06-.2.16-.42.34-.58z"/>
      <path d="m68.35 113.75.4 1.57.2.78.19.77.2.78.2.78c.14.52.3 1.03.5 1.54a6.34 6.34 0 0 1-.75-1.45l-.14-.38-.13-.38-.22-.78c-.12-.52-.24-1.06-.32-1.59a9.71 9.71 0 0 1-.13-1.64z"/>
      <path d="M71.08 122.8a.93.93 0 0 1 .5.06c.16.06.3.16.42.26.13.1.25.22.35.33l.3.36-.02.04c-.16-.06-.29-.17-.42-.26l-.36-.3c-.11-.1-.23-.2-.36-.28-.12-.07-.25-.14-.41-.2z"/>
      <path d="M75.73 127.2c-.27-.42-.58-.82-.9-1.22-.33-.4-.67-.78-1.02-1.15l.03-.02c.38.34.75.68 1.12 1.04.36.36.72.73 1.05 1.14l-.28.2z"/>
      <path d="M80.93 137.88c.33-.36.66-.76.96-1.17.3-.4.59-.82.88-1.25l.03.02a22.02 22.02 0 0 1-1.6 2.63l-.27-.23z"/>
      <path d="M121.42 137.88c.34-.36.66-.76.96-1.17.3-.4.6-.82.89-1.25l.03.02a22.02 22.02 0 0 1-1.61 2.63l-.27-.23z"/>
      <path d="M104.02 137.88a24.2 24.2 0 0 0 1.84-2.42c-.23.45-.47.9-.74 1.34-.26.44-.53.89-.84 1.3l-.26-.22z"/>
      <path d="M90.87 109.45c.07.53.03 1.08-.07 1.61a7.3 7.3 0 0 1-.51 1.55c-.22.5-.5.96-.76 1.42s-.54.92-.74 1.4l-.32-.13c.23-.51.52-.97.8-1.42.29-.45.55-.9.8-1.38a7.2 7.2 0 0 0 .8-3.05z"/>
      <path d="M86.9 123.52c-.24.42-.42.9-.55 1.38-.14.49-.23.99-.32 1.49-.1.5-.17 1-.28 1.5-.05.26-.1.5-.18.75-.09.24-.17.5-.33.7l-.02-.03c.15-.2.22-.45.28-.7s.1-.5.13-.74c.09-.5.13-1 .2-1.52.07-.5.14-1 .26-1.52.11-.5.25-1 .5-1.48l.3.17z"/>
      <path d="M85.91 118.08c.13.3.27.57.42.85.15.28.3.57.4.88.11.31.17.65.15.99-.03.33-.1.67-.32.94l-.04-.03c.08-.3.09-.6.07-.9-.03-.3-.1-.6-.19-.88l-.31-.89c-.1-.3-.19-.62-.19-.95h.01z"/>
      <path d="M125.47 106.59c.23.33.34.75.43 1.14l.13.6c.04.2.1.38.18.53l-.32.14c-.08-.22-.1-.43-.13-.63l-.06-.6c-.03-.4-.1-.8-.28-1.16l.05-.02z"/>
      <path d="M127.63 106.42a3.17 3.17 0 0 1-.78-1.1l.03-.01a3.8 3.8 0 0 0 .95.85l-.2.26z"/>
      <path d="M126.43 106.57a5.07 5.07 0 0 1 .92 1.9c.07.34.1.7.2 1 .11.32.3.6.5.89l-.02.02a2.3 2.3 0 0 1-.65-.84c-.08-.16-.11-.34-.16-.52l-.1-.5a5.55 5.55 0 0 0-.3-.98c-.1-.33-.26-.63-.39-.97z"/>
      <path d="M123.57 106.41a19.48 19.48 0 0 0-.75-3.18 45.1 45.1 0 0 0-1.12-3.1c.28.48.52.98.74 1.48a24.89 24.89 0 0 1 1.11 3.12c.16.53.26 1.08.36 1.62l-.34.06z"/>
      <path d="M114.77 98.26c.42.09.83.22 1.21.4.2.08.38.2.57.3a7.34 7.34 0 0 1 2.34 2.15l-.04.02a20.7 20.7 0 0 0-1.95-1.54c-.17-.13-.34-.23-.51-.35a12.8 12.8 0 0 0-.53-.32c-.34-.22-.71-.4-1.09-.63v-.03z"/>
      <path d="M120.76 103.81c.14.01.25.06.37.1a2.03 2.03 0 0 1 .45.3c.05.06.1.09.13.15.05.06.08.11.1.2.02.03.02.08.02.11 0 .05-.03.08-.06.1-.01-.08-.06-.1-.1-.13l-.13-.08-.15-.09-.15-.1c-.1-.07-.19-.15-.27-.24a.87.87 0 0 1-.21-.32z"/>
      <path d="M121.17 105.18c.11-.01.22.01.3.06a.7.7 0 0 1 .4.43c.04.1.05.2.03.31-.1-.04-.19-.1-.26-.16l-.18-.17-.17-.2a.95.95 0 0 1-.12-.27z"/>
      <path d="M121.47 106.39c.14.06.25.15.36.25a1.66 1.66 0 0 1 .43.73c.03.14.05.3.03.45-.12-.1-.2-.21-.29-.33a3.36 3.36 0 0 1-.4-.7c-.04-.12-.1-.25-.13-.4z"/>
      <path d="M121.75 107.88a1.48 1.48 0 0 1 .39.85c.02.15.02.31 0 .48a1.3 1.3 0 0 1-.15.45c-.06-.16-.1-.3-.12-.45l-.07-.43-.04-.43c-.01-.15-.03-.3-.01-.47z"/>
      <path d="M92.42 109.6a4.43 4.43 0 0 1-.2-.42l-.18-.39a2.69 2.69 0 0 1-.22-.9c.13.11.22.23.31.35.1.13.16.27.23.41.06.15.1.3.13.46 0 .17 0 .34-.07.5z"/>
      <path d="M98.24 95.66c.13-.05.25-.07.36-.1l.33-.05.33-.05c.12-.01.24-.02.38-.01a.74.74 0 0 1-.3.28 1.06 1.06 0 0 1-.75.12.93.93 0 0 1-.35-.2z"/>
      <path d="M94.2 113.08c-.02.02-.02.05 0 .06 0 .01.03.03.05.03l.06.03h.07l.34-.03c.22 0 .44 0 .65-.02l.65-.01c.22 0 .44 0 .67.02-.2.12-.42.19-.64.25a3.33 3.33 0 0 1-1.7-.06l-.04-.01-.06-.03a.5.5 0 0 1-.08-.07c-.02-.02-.03-.05-.04-.09v-.06h.08z"/>
      <path d="M95.25 107.68c.14-.1.28-.18.42-.24l.43-.16a2.85 2.85 0 0 1 .93-.14 2.1 2.1 0 0 1-.84.48l-.46.1c-.15 0-.32 0-.48-.04z"/>
      <path d="M99.8 110.97a.81.81 0 0 1 .4-.02c.14.02.27.08.39.15.11.07.22.17.29.28.08.11.14.24.14.38-.13-.06-.24-.13-.34-.19l-.29-.18-.29-.19c-.1-.07-.2-.14-.3-.23z"/>
      <path d="M103.7 110.55a3.42 3.42 0 0 0 1 .1 3.11 3.11 0 0 0 .97-.24.92.92 0 0 1-.38.42 1.25 1.25 0 0 1-1.14.08 1 1 0 0 1-.45-.36z"/>
      <path d="M115.21 119.29c-.22.02-.33.17-.42.33-.05.09-.1.17-.13.25-.04.09-.08.17-.1.26-.08.19-.13.38-.2.56-.05.2-.08.4-.14.6-.1-.2-.12-.41-.12-.63s.05-.44.13-.65a1.59 1.59 0 0 1 .35-.58.73.73 0 0 1 .3-.19l.17-.02c.07.02.12.04.16.07z"/>
      <path d="M112.6 123.95a22.65 22.65 0 0 1-1.22 2.2l-.43.71-.43.71c-.15.23-.28.48-.42.72-.28.47-.53.97-.79 1.47a8.15 8.15 0 0 1 .93-2.35l.42-.73a29 29 0 0 1 1.93-2.73z"/>
      <path d="M111.02 107.57c-.09-.07-.12-.18-.14-.29a.66.66 0 0 1 .04-.33c.08-.21.22-.4.4-.53.18-.12.38-.2.57-.26l.56-.18a1.4 1.4 0 0 1-.45.42l-.47.3c-.14.1-.27.22-.36.36a.67.67 0 0 0-.15.51z"/>
      <path d="M115.48 112.43a.67.67 0 0 1-.4.2.86.86 0 0 1-.46-.06.95.95 0 0 1-.37-.27.7.7 0 0 1-.16-.41l.34.22a2.78 2.78 0 0 0 .66.26l.4.06z"/>
      <path d="m79.36 98.93-.01.85v.82l.03.82.05.84a3.22 3.22 0 0 1-.44-1.66 3.53 3.53 0 0 1 .37-1.67z"/>
      <path d="m82.34 110.6.15.7a6.1 6.1 0 0 0 .9 1.87c-.23-.1-.42-.25-.6-.45a2.2 2.2 0 0 1-.57-1.39c0-.24.03-.5.12-.73z"/>
      <path d="m83.4 114.65.41.23.39.22.38.2c.13.08.27.15.4.24a.91.91 0 0 1-.5.02 1.3 1.3 0 0 1-.46-.16 1.26 1.26 0 0 1-.38-.31.92.92 0 0 1-.24-.44z"/>
      <path d="M91.5 106.33c.1-.01.19-.1.25-.19s.08-.2.1-.3a4.12 4.12 0 0 0-.11-1.98v-.01c-.02-.05-.02-.1.02-.13.14-.22.2-.49.22-.77.01-.13 0-.29-.01-.42-.01-.16-.04-.3-.06-.45.07.13.14.27.19.42a1.85 1.85 0 0 1 .11.93c-.02.16-.08.33-.16.48l.01-.14a3.1 3.1 0 0 1-.01 2.15c-.05.12-.12.24-.2.33a.49.49 0 0 1-.16.1c-.07 0-.14 0-.2-.02z"/>
      <path d="M80.62 108.33c.12-.2.22-.4.27-.6.06-.2.05-.4 0-.62l-.14-.7c-.03-.24-.03-.5.05-.75v.07a2.03 2.03 0 0 1-.07-.7 2.58 2.58 0 0 1 .46-1.27c.13-.19.28-.36.45-.5-.13.17-.26.36-.36.55a2.99 2.99 0 0 0-.34 1.24c0 .21.02.42.09.62.01.02.01.05 0 .07v.01c-.06.2-.05.42-.01.64.04.22.11.44.17.67.04.12.06.24.06.38 0 .13-.01.27-.03.4-.06.25-.18.47-.3.68l-.3-.2z"/>
      <path d="M121.47 116.12c-.01.23.08.43.2.57.13.15.3.27.5.4a6.33 6.33 0 0 1 .97.98c-.22-.08-.43-.2-.63-.31-.2-.12-.38-.25-.57-.39-.17-.14-.37-.3-.5-.53-.05-.12-.09-.24-.09-.37s.04-.27.12-.35z"/>
      <path d="M124.92 127.72c-.04-.64-.04-1.29-.03-1.92a53.42 53.42 0 0 1 .25-3.86c.07-.63.17-1.27.3-1.91l.33.07c-.14.61-.23 1.25-.32 1.88-.1.64-.17 1.26-.24 1.9-.12 1.28-.2 2.55-.29 3.84z"/>
      <path d="M108.92 104.58c0 .4 0 .81.03 1.22s.08.8.2 1.18a1.89 1.89 0 0 0 .64.93c.3.24.65.43 1 .61l-.16.32c-.36-.2-.73-.41-1.05-.69a2.17 2.17 0 0 1-.66-1.1c-.05-.2-.09-.42-.1-.63l-.02-.61c-.01-.42.02-.84.12-1.23z"/>
      <path d="M82.85 95.5c.13 0 .24.09.31.22.07.11.1.25.1.38.02.13 0 .25-.03.38a5.65 5.65 0 0 1-.38 1c-.12.22-.24.43-.4.6a6.13 6.13 0 0 1 .35-1.37c.09-.22.16-.41.19-.63.05-.2.06-.41-.14-.58z"/>
      <path d="M80.16 95.5c.13-.03.25.05.35.15.09.09.16.2.22.31.1.23.17.48.2.73 0 .14-.02.26-.03.38-.02.13-.06.25-.1.36-.07.24-.18.44-.28.66-.04-.24-.01-.5.02-.71l.04-.34v-.33a3.16 3.16 0 0 0-.2-.96.47.47 0 0 0-.22-.25z"/>
      <path d="M87.78 95.5a3.97 3.97 0 0 1 .65 1.73c.05.3.06.62.04.93s-.09.62-.19.9l-.1-.9c-.02-.3-.05-.59-.1-.88l-.14-.88c-.04-.29-.11-.58-.16-.9z"/>
      <path d="M90.3 96.7c.13.03.23.1.31.18.08.08.16.17.22.27s.1.21.12.33c.02.12.02.23-.01.36-.1-.08-.18-.17-.24-.26l-.17-.26c-.05-.1-.1-.19-.14-.3l-.1-.33z"/>
      <path d="M85.83 100.58c.3.02.58.2.8.4.22.22.39.49.49.78.1.28.17.58.22.86.05.29.07.58.1.87-.17-.26-.26-.54-.36-.81-.09-.28-.17-.55-.27-.8a3.83 3.83 0 0 0-.37-.72c-.17-.21-.36-.42-.6-.58z"/>
      <path d="M88.65 93.45a6.65 6.65 0 0 1 1.22.75l.53.45c.18.14.36.25.6.31-.23.1-.52.04-.74-.07-.23-.1-.43-.25-.61-.4a6.8 6.8 0 0 1-.54-.48c-.16-.17-.32-.35-.46-.56z"/>
      <path d="M85.18 96.28a1.25 1.25 0 0 1 .55.96c.02.2 0 .39-.05.58-.06.18-.14.36-.28.48l.01-.52c0-.16 0-.32-.02-.49-.01-.16-.05-.32-.08-.48-.03-.18-.08-.34-.13-.53z"/>
      <path d="M84.78 94.65c-.03-.21-.02-.42-.02-.62s.02-.39.03-.59l.03-.59c.03-.2.04-.4.08-.6.1.18.17.4.2.59a2.78 2.78 0 0 1-.32 1.8z"/>
      <path d="M86.84 89.37a1.05 1.05 0 0 1 .67.6c.07.13.1.28.12.43a.78.78 0 0 1-.1.46 5.1 5.1 0 0 1-.17-.39l-.16-.34c-.06-.12-.1-.24-.17-.35a6.3 6.3 0 0 0-.19-.4z"/>
      <path d="M89.2 90.55c.11.26.27.5.45.71.18.22.4.42.62.6.46.38.98.69 1.45 1.06a7.48 7.48 0 0 1-1.58-.87 4.9 4.9 0 0 1-.71-.6 2.97 2.97 0 0 1-.55-.76l.32-.14z"/>
      <path d="M77.5 95.91a2.4 2.4 0 0 1-.09-1.3c.05-.22.13-.42.26-.62.12-.19.3-.35.5-.43-.1.2-.2.37-.26.56-.07.18-.12.37-.16.56l-.12.6c-.02.2-.07.41-.14.63z"/>
      <path d="M80.14 91.8a2.98 2.98 0 0 0-.08 1.04c0 .16.04.34.09.5l.18.5a.98.98 0 0 1-.4-.4c-.08-.18-.14-.37-.16-.57a1.22 1.22 0 0 1 .37-1.08z"/>
      <path d="M75.64 85.06c.05.03.1.04.13.03.04-.01.1-.06.14-.13.1-.14.18-.31.26-.48.08-.18.16-.35.27-.51.1-.17.23-.32.39-.41-.15.12-.24.28-.32.45-.09.16-.13.35-.19.52-.06.19-.1.36-.19.56-.04.1-.1.2-.24.27a.5.5 0 0 1-.22.04c-.07 0-.13-.02-.2-.04l.17-.3z"/>
      <path d="m75.31 88.62.13-.01a.42.42 0 0 0 .11-.16c.07-.13.12-.3.17-.47.04-.16.09-.34.17-.5s.19-.31.34-.4c-.14.11-.21.27-.26.44-.04.16-.07.33-.08.5-.02.17-.03.34-.08.53-.02.09-.07.2-.16.29-.1.09-.23.14-.35.14l.01-.36z"/>
      <path d="M74.42 92.03h.1a.21.21 0 0 0 .1-.07c.08-.1.13-.22.18-.36l.16-.4a.85.85 0 0 1 .26-.36c-.1.1-.14.25-.18.38l-.07.41c-.02.14-.04.3-.11.44a.48.48 0 0 1-.19.22.45.45 0 0 1-.31.07l.06-.33z"/>
      <path d="M82.02 84.33c0 .2 0 .38.03.55l.07.54c.02.17.06.34.1.53l.09.56-.05.02a1.61 1.61 0 0 1-.33-.5 1.87 1.87 0 0 1-.15-.57 1.69 1.69 0 0 1 .24-1.13z"/>
      <path d="M78.93 87.12a1.09 1.09 0 0 1-.05-.43l.07-.4.1-.35c.04-.12.08-.23.11-.39.1.1.15.26.16.41.02.15 0 .3-.03.42a2.85 2.85 0 0 1-.36.74z"/>
      <path d="M77.8 81.92c0 .12-.03.24-.06.35l-.1.35c-.04.12-.08.23-.11.46a.93.93 0 0 1-.17-.46.9.9 0 0 1 .04-.35c.03-.23.08-.35.14-.46z"/>
      <path d="M80.67 82.56c.08.12.1.25.12.37a.97.97 0 0 1-.28.7.7.7 0 0 1-.34.2 4.38 4.38 0 0 1 .22-.64l.13-.3c.03-.1.08-.21.15-.33z"/>
      <path d="M96.21 84.65c.2.06.39.16.54.31.15.15.25.34.35.51.04.08.09.17.15.22.04.06.11.1.18.13.07.04.14.05.21.05.07 0 .14-.04.21-.12l.05.01c0 .06 0 .12-.04.18s-.08.1-.15.14c-.13.05-.27.05-.38 0s-.22-.1-.3-.21c-.07-.1-.1-.2-.15-.3-.05-.08-.09-.18-.12-.26-.05-.08-.08-.17-.14-.24-.1-.15-.24-.3-.4-.42z"/>
      <path d="M96.67 83.03a2.5 2.5 0 0 1-.68-.36 3.97 3.97 0 0 1-.56-.51c-.18-.19-.33-.39-.48-.58a11 11 0 0 0-.46-.57l.02-.03c.23.12.42.3.59.48.17.17.34.37.5.55.16.18.34.35.51.52l.56.5z"/>
      <path d="M90.09 76.37c.1-.12.23-.2.38-.22.15-.03.3-.01.44-.01s.27-.02.35-.06c.08-.05.12-.14.15-.26l.33.12c-.05.08-.07.15-.14.22a.4.4 0 0 1-.1.1c-.04.03-.09.04-.13.06a.77.77 0 0 1-.5 0c-.13-.02-.27-.06-.4-.07a.5.5 0 0 0-.36.13l-.02-.01z"/>
      <path d="M96.92 84.81c.12-.02.21-.02.31 0 .1.03.2.06.3.12s.17.13.23.23c.05.1.07.24 0 .34-.05-.1-.12-.15-.18-.2l-.2-.13c-.08-.04-.16-.1-.23-.15a1.26 1.26 0 0 1-.23-.2z"/>
      <path d="M86.9 74.63a2 2 0 0 0-.6.08l-.27.11-.28.16c-.1.04-.22.09-.35.1-.12.01-.24 0-.35-.02-.22-.05-.4-.12-.62-.14.2-.1.44-.08.65-.1.1 0 .2 0 .29-.02s.17-.04.25-.1l.3-.13c.1-.05.21-.08.33-.1.22 0 .46.03.65.16z"/>
      <path d="m87.33 76.8-.36.14c-.1.04-.21.09-.31.15l-.3.18c-.12.06-.25.13-.39.13.1-.1.16-.2.24-.3.09-.1.19-.2.32-.27s.26-.1.4-.11a.7.7 0 0 1 .4.09z"/>
      <path d="M85.2 76.23a1.6 1.6 0 0 1 .85-.56c.16-.04.35-.06.52-.03s.35.07.48.2c-.17-.02-.32 0-.48.03-.15.02-.3.06-.45.1-.15.03-.29.07-.44.12-.16.03-.31.1-.47.14z"/>
      <path d="M88.63 75.56c.03-.1.11-.19.2-.24a.7.7 0 0 1 .3-.09c.1-.01.2 0 .29.02s.18.07.26.14a.93.93 0 0 1-.28.08l-.25.04-.24.01-.28.04z"/>
      <path d="M92.08 81.3c-.04.06-.1.09-.16.13-.06.02-.11.05-.17.06-.13.04-.26.05-.38.04a.84.84 0 0 1-.38-.13.55.55 0 0 1-.25-.3l.03-.02c.24.09.43.14.64.16l.33.03.17.02c.05 0 .1 0 .17.02z"/>
      <path d="M89.28 79.28a1.53 1.53 0 0 1 .9-.57c.19-.03.37-.03.55-.02.17.02.35.04.52.09l.5.13.49.11c.32.06.66.12.96-.04l.02.03a.95.95 0 0 1-.49.23c-.18.04-.36.03-.53.02-.36-.04-.68-.13-1.02-.2-.16-.04-.33-.08-.49-.1-.16-.03-.32-.04-.48-.03-.33.04-.63.18-.93.35z"/>
      <path d="M89.6 79.82c.18-.07.34-.16.49-.26.15-.1.3-.21.42-.34l.17.23a2.87 2.87 0 0 1-1.08.37z"/>
      <path d="m91.23 79.05.23.03.1-.01.1.06.05.02.08.06c.1.08.26.22.33.35a.8.8 0 0 1-.49.7c-.1.03-.18-.04-.17-.13.03-.34-.07-.83-.23-1.08z"/>
      <path d="M93.73 80.59c-.14.01-.28.01-.4-.02a2.24 2.24 0 0 1-.4-.13 2.14 2.14 0 0 1-.7-.46l.21-.2c.07.08.18.17.27.25l.31.22c.1.07.22.13.35.18l.36.16z"/>
      <path d="M82.53 77.05a2.61 2.61 0 0 1 1.12.63l-.02.02a2.1 2.1 0 0 0-.56-.23 2 2 0 0 0-.58-.08l.04-.34z"/>
      <path d="M83.08 80.44c-.28.1-.5.28-.74.46l-.34.3c-.12.1-.23.19-.37.28l-.16-.31c.12-.05.24-.13.37-.2l.38-.23c.27-.15.54-.29.84-.34l.02.04z"/>
      <path d="M74.72 80.53c.29-.22.61-.37.96-.5a4.64 4.64 0 0 1 1.07-.28 3.9 3.9 0 0 1 1.1.03c.36.04.72.16 1.06.26a2.87 2.87 0 0 0 1 .17l.27-.01.27-.03c.17 0 .34-.06.5-.1a7.44 7.44 0 0 0 1.86-1.02l.03.03a6.04 6.04 0 0 1-1.81 1.22c-.17.07-.36.12-.55.14l-.26.03-.28.03c-.19 0-.37 0-.57-.04a4.17 4.17 0 0 1-.54-.14 5.26 5.26 0 0 0-2.06-.36 6.23 6.23 0 0 0-2.05.57z"/>
      <path d="M89.83 76.73c-.05.12-.12.24-.22.33a.9.9 0 0 1-.34.22.77.77 0 0 1-.43.03c-.14-.04-.28-.13-.33-.27.14.02.25.01.35 0a2.9 2.9 0 0 0 .61-.2c.1-.05.22-.1.36-.11z"/>
      <path d="M88.16 77.67c-.08.18-.17.36-.31.5-.13.16-.3.3-.5.39-.2.1-.44.1-.65.06-.2-.05-.4-.15-.53-.3.2 0 .4.03.57.02.17-.01.33-.05.48-.1.15-.07.3-.17.46-.27.15-.1.31-.21.48-.3z"/>
      <path d="M86.17 79.31c.1.12.13.27.11.42 0 .15-.05.3-.13.4s-.19.23-.32.3a.66.66 0 0 1-.42.08c.1-.1.18-.2.25-.3l.2-.26.17-.29c.05-.1.1-.2.14-.35z"/>
      <path d="M85.36 81.34c.15.09.26.25.32.42s.06.37.01.55-.14.34-.28.46c-.13.13-.27.17-.41.28 0-.1.04-.17.09-.24l.12-.2a1.75 1.75 0 0 0 .15-1.27z"/>
      <path d="M83.42 87.23c.23.12.43.27.63.45.18.17.34.38.47.62.12.25.19.53.16.8 0 .26-.11.54-.31.71.07-.25.08-.49.05-.7-.04-.23-.1-.45-.21-.66-.1-.2-.23-.4-.37-.6-.14-.2-.3-.4-.42-.62z"/>
      <path d="M85.76 90.2a3.2 3.2 0 0 1 .88 1.32c.1.25.17.53.15.82 0 .14-.03.3-.09.42a.73.73 0 0 1-.28.31c.14-.23.14-.47.1-.7-.03-.25-.1-.47-.19-.71a17.56 17.56 0 0 0-.57-1.45z"/>
      <path d="M82.44 90.45c-.02.05 0 .1.02.14.02.05.04.08.08.12l.2.25a3 3 0 0 1 .34.56 1.5 1.5 0 0 1 .14.68c-.01.23-.1.49-.29.62.06-.22.06-.42.03-.6-.04-.2-.1-.38-.19-.56-.08-.19-.19-.37-.27-.57l-.11-.32c-.01-.04-.04-.11-.03-.17l.03-.1a.14.14 0 0 1 .05-.05z"/>
      <path d="M80.74 87.24c.1.2.14.38.2.55.08.18.16.33.26.46.1.12.27.24.42.39.07.07.15.16.2.26.04.1.08.22.06.32-.1-.19-.26-.27-.43-.37-.17-.1-.35-.2-.51-.37-.15-.18-.24-.4-.26-.62-.02-.2 0-.41.06-.62z"/>
      <path d="M84.25 75.93h-.81l-.4-.01-.41-.04a1.36 1.36 0 0 1 .82-.23c.15 0 .3.03.43.08.13.02.27.1.37.2z"/>
      <path d="M83.2 74.88c-.18.05-.34.1-.49.18-.15.07-.28.15-.4.25l-.17.16-.18.19c-.07.06-.15.13-.23.16-.1.05-.2.06-.3.04.18-.08.26-.21.35-.35l.15-.22.2-.21c.15-.13.33-.2.51-.26.19-.02.38 0 .56.06z"/>
      <path d="M78.3 84.19a3.46 3.46 0 0 0-.37.91 2.74 2.74 0 0 0-.03 1 .88.88 0 0 1-.3-.49 1.4 1.4 0 0 1 0-.58c.04-.18.12-.37.24-.52a.88.88 0 0 1 .46-.32z"/>
      <path d="M77.45 88.3c0 .12 0 .24-.02.35 0 .1-.03.21-.05.32l-.1.3c-.03.1-.08.2-.16.31a.82.82 0 0 1-.12-.35c0-.11 0-.24.04-.36s.08-.22.14-.32c.06-.1.15-.2.27-.26z"/>
      <path d="M77.58 90.53c-.08.21-.16.4-.23.62a5.7 5.7 0 0 0-.29 1.2L77 93c-.11-.2-.17-.43-.2-.65-.02-.23 0-.46.05-.68.06-.22.15-.44.27-.64.13-.2.28-.37.47-.5z"/>
      <path d="M79.68 88.3c-.07.07-.09.17-.12.25-.03.09-.06.17-.07.26-.05.19-.08.35-.1.54-.02.18-.05.38-.11.55-.06.19-.14.36-.26.53-.02-.2 0-.39.01-.58l.09-.56c.03-.2.1-.38.18-.56l.16-.25c.06-.07.13-.15.22-.18z"/>
      <path d="M85.6 86.03c-.01.37.07.73.24 1.03.18.3.43.56.73.77.3.2.62.36.96.49.33.12.68.23 1.03.3l-.08.33c-.36-.09-.73-.2-1.08-.36a3.94 3.94 0 0 1-.98-.58c-.3-.23-.56-.53-.73-.88-.15-.33-.2-.74-.09-1.1z"/>
      <path d="M97.1 88.15c-.24.03-.5.03-.74-.05-.24-.09-.44-.21-.63-.33l-.57-.36-.6-.34c.24.04.46.1.67.19l.62.29a2.55 2.55 0 0 0 .6.24c.1.03.2.04.3.04l.15-.01.15-.01.06.34z"/>
      <path d="M84.44 83.07a.57.57 0 0 1-.16.36 1 1 0 0 1-.3.25c-.12.05-.24.09-.36.11-.13.01-.26.02-.39-.01a2.52 2.52 0 0 1 .58-.4l.3-.15.33-.16z"/>
      <path d="M89.86 83.9c.14-.02.26 0 .4.04s.24.1.34.19c.1.08.19.18.25.3.07.12.1.24.1.38a5.35 5.35 0 0 1-.58-.42l-.25-.22-.26-.26z"/>
      <path d="M90.91 85.28c.1.05.17.14.22.22a.9.9 0 0 1 .13.6c-.01.1-.05.2-.1.29a1.5 1.5 0 0 1-.07-.29l-.06-.27-.06-.26c-.02-.1-.05-.19-.06-.3z"/>
      <path d="M73.03 105.61c.11-.16.18-.38.23-.6.04-.22.07-.45.09-.7.06-.47.12-.95.31-1.39l.04.01c-.15.45-.16.92-.16 1.4 0 .23 0 .47-.03.71-.02.25-.07.5-.2.75l-.28-.18z"/>
      <path d="M75.1 109.79a2.27 2.27 0 0 1-.02-.69c.02-.22.08-.43.14-.64l.16-.61c.05-.2.06-.42.02-.61l.04-.02c.07.21.08.43.06.64l-.1.64c-.03.2-.05.42-.05.61 0 .2.02.4.08.58l-.33.1z"/>
      <path d="M71.78 100.95c.17-.12.32-.25.45-.4.12-.15.22-.33.27-.52.06-.2.1-.4.13-.61.04-.21.08-.43.18-.63l.03.01c-.07.2-.08.42-.1.63 0 .2 0 .43-.05.65-.04.22-.12.44-.24.64a2.76 2.76 0 0 1-.46.52l-.2-.3z"/>
      <path d="M72.71 96.52c.13-.1.26-.21.36-.35.12-.13.21-.28.33-.43.11-.15.23-.29.38-.4.14-.12.3-.22.48-.28v.03a1.9 1.9 0 0 0-.7.77c-.1.15-.16.3-.27.47-.09.16-.22.31-.36.45l-.22-.26z"/>
      <path d="M75.4 104.11a4.14 4.14 0 0 0 .87-1.1c.12-.2.21-.4.3-.62l.2-.7c.08.24.1.51.06.77-.03.25-.13.5-.25.73-.13.22-.3.43-.5.59-.2.16-.43.29-.68.33z"/>
      <path d="M76.23 95.23c-.19.17-.36.34-.52.51a4.98 4.98 0 0 0-.42.56 5.25 5.25 0 0 0-.57 1.3 1.7 1.7 0 0 1-.02-.77 2.23 2.23 0 0 1 .81-1.29c.23-.16.46-.28.72-.31z"/>
      <path d="M76.1 98.51c-.13.22-.26.42-.35.64-.1.2-.17.43-.24.65a4.3 4.3 0 0 0-.16 1.4 1.6 1.6 0 0 1-.24-.74 2.15 2.15 0 0 1 .41-1.46c.15-.2.35-.38.58-.49z"/>
      <path d="m78.08 104.97-.15.71c-.03.23-.07.45-.08.69v.68l.06.72c-.16-.2-.27-.43-.34-.67a2.37 2.37 0 0 1 .1-1.5c.1-.24.23-.45.41-.63z"/>
    </g>
  </g>
</svg>
