<svg xmlns="http://www.w3.org/2000/svg" fill="#d7374a" stroke="#000" viewBox="50 50 200 200">
  <metadata author="Leonid 2" source="https://commons.wikimedia.org/wiki/File:Coat_of_Arms_of_Tura%C5%AD,_Belarus.svg" license="https://creativecommons.org/licenses/by-sa/3.0"/>
  <g id="archer" stroke-width=".249">
    <path class="secondary" d="m105.906 70.382.929-1.865c.318-.638.98-.508 1.032.213l.151 2.078-2.112-.426z"/>
    <path d="M101.628 118.623a19.974 19.974 0 0 1-2.16 3.845c.188 1.243.686 1.256.911 1.722.371.77-.385 1.64-1.342 2.281-1.673-1.09-3.352-2.464-5.114-4.161l-1.418 1.324c-1.186-.424-.242-3.86-.274-6.122 3.14-.182 6.237.496 9.397 1.11"/>
    <path d="M105.345 119.263c1.221 2.979 2.437 6.17 3.981 6.325l.762-1.511c2.04.9 3.705 1.028 5.442 1.244.796-1.707.793-2.715-.025-2.917a3.484 3.484 0 0 1-.961-.573c-.027-.754-.123-1.891-.433-2.656-2.644.765-5.718.535-8.766.088"/>
    <path d="M92.49 123.63c-1.187-.424-.226-3.855-.259-6.117m6.841 8.922c.96-.643 1.68-1.471 1.308-2.244-.236-.49-.773-.48-.934-1.916-.063-.563-.311-.889-.686-1.157m2.836-2.396a19.076 19.076 0 0 1-2.127 3.75m15.074-.672c-.027-.766-.121-1.895-.443-2.661m1.45 6.128c.791-1.706.778-2.66-.041-2.862-.728-.28-1.223-.792-1.732-1.29m-4.429 4.475c-1.554-.136-2.76-3.302-3.986-6.29" fill="none"/>
    <path d="M92.031 117.525c4-.277 7.927.868 12 1.532 4.582.747 9.379 1.254 12.804-1.17-.544-1.951-1.535-3.545-2.105-5.403-3.943 2.544-12.512-1.43-20.328-.957-.923 1.804-1.878 3.979-2.37 5.998z"/>
    <path d="M95.662 107.896c-.424 1.335-1.412 2.515-1.7 3.842 3.35.422 6.708.835 10.048 1.499 4.742.943 9.17 1.404 11.217-.92-.743-2.464-3.35-5.453-3.448-9.622-.033-1.431-.367-2.402-1.317-3.192l-12.123-.428c-1.021 1.484-1.631 5.524-2.677 8.821z"/>
    <path d="m99.456 99.121-1.9 1.901m1.253-1.921-.888.888m13.812 1.986-2.513-2.516m2.56 3.234-3.254-3.259m3.297 3.972-3.992-3.996m4.091 4.767-4.785-4.792m4.96 5.639-5.655-5.663m5.926 6.605-6.62-6.63m7.017 7.7-7.712-7.724m8.265 8.948-8.96-8.973m9.654 10.339-10.35-10.363m11.035 11.72-11.729-11.745m12.2 12.889-12.895-12.913m12.688 13.377-13.383-13.402m13.018 13.706-13.712-13.73m13.306 13.999-14-14.021m13.556 14.247L99.494 99.118m13.772 14.462L98.8 99.093m13.949 14.64L98.25 99.215m13.946 14.636L98.018 99.653m13.593 14.283-13.793-13.812m13.175 13.864-13.354-13.372m12.705 13.393-12.868-12.886M109.666 114l-12.343-12.359m11.636 12.324-11.78-11.797m11.049 11.735L97.039 102.7m10.434 11.119-10.57-10.584m9.794 10.477-9.927-9.94m9.13 9.814-9.263-9.276m8.452 9.134-8.586-8.597m7.759 8.44-7.894-7.904m7.062 7.742-7.2-7.21m6.377 7.058-6.518-6.528m5.707 6.387-5.854-5.862m5.052 5.73-5.204-5.211m4.41 5.087-4.57-4.577m3.782 4.46-3.97-3.977m3.189 3.865-3.404-3.408m2.626 3.3L95 109.382m2.08 2.756-2.315-2.32m1.546 2.22-1.776-1.78m1.007 1.681-1.225-1.227m.458 1.13-.651-.652m17.438-10.055-1.646-1.649m-12.938 3.457 3.775-3.78m-3.999 4.675 4.647-4.652m-4.868 5.545 5.515-5.523m-5.743 6.422 6.39-6.399m-6.633 7.314 7.28-7.29m-7.55 8.232 8.198-8.21m-8.566 9.249 9.213-9.226m-9.915 10.6 10.563-10.577m-11.15 11.836 11.797-11.813m-11.736 12.423 12.384-12.4M94.79 111.843l12.436-12.452m-11.84 12.527 12.488-12.505M95.98 111.994l12.541-12.558m-11.947 12.635 12.594-12.612m-12.001 12.69 12.649-12.667m-12.058 12.745 12.705-12.722m-12.115 12.802 12.461-12.478M98.936 112.39l12.174-12.191m-11.588 12.275 11.838-11.853m-11.255 11.94 11.446-11.46m-10.865 11.55 10.996-11.012m-10.419 11.105 10.494-10.509m-9.92 10.604 9.949-9.961m-9.377 10.06 9.421-9.434m-8.853 9.536 8.93-8.943m-8.366 9.05 8.472-8.484m-7.911 8.593 8.04-8.05m-7.479 8.159 7.627-7.637m-7.06 7.742 7.226-7.237m-6.657 7.337 6.839-6.848m-6.25 6.935 6.454-6.464m-5.872 6.55 6.076-6.084m-5.484 6.163 5.698-5.706m-5.095 5.773 5.315-5.322m-4.7 5.377 4.926-4.932m-4.295 4.971 4.523-4.528m-3.871 4.547 4.1-4.106m-3.421 4.097 3.648-3.654m-2.93 3.606 3.153-3.158m-2.377 3.051 2.592-2.594m-1.706 2.378 1.905-1.907m-17.804-9.689 2.89-2.894" stroke-width=".1" fill="none"/>
    <path d="m100.076 83.504-1.172 7.174c-1.165.101-2.944.897-4.117.686-1.576-1.906-.776-6.744.225-8.472 1.81-.057 3.694.025 5.064.612z"/>
    <path d="m100.054 83.644-.244-.245m.15.821-1.085-1.086m.99 1.663-1.796-1.799m1.702 2.376-2.446-2.45m2.352 3.027-3.059-3.063m2.964 3.64-3.644-3.65m3.55 4.226-4.213-4.219m4.119 4.796-4.52-4.527m4.426 5.103-4.63-4.635m4.535 5.212-4.709-4.716m4.615 5.293-4.767-4.774m4.673 5.35-4.804-4.81m4.704 5.389-4.82-4.826m4.331 5.01-4.422-4.429m3.875 4.551-3.942-3.947m3.41 4.085L93.9 87.557m2.916 3.591-2.922-2.925m2.377 3.05-2.334-2.336m1.76 2.433-1.637-1.64m.994 1.667-.668-.67m.348-7.272.567-.568m-.918 1.59 1.594-1.597m-1.809 2.483 2.468-2.471m-2.61 3.284 3.248-3.252m-3.336 4.012 3.95-3.956m-3.991 4.669 4.58-4.586m-4.58 5.257 5.138-5.146m-5.097 5.775 5.623-5.63m-5.54 6.218 6.03-6.038m-5.903 6.583 5.797-5.805M94.32 90.58l5.494-5.5m-5.27 5.948 5.139-5.146m-4.82 5.498 4.688-4.695m-4.026 4.703 3.895-3.9m-3.101 3.776 2.97-2.974m-2.085 2.758 1.954-1.956m-1.055 1.728.923-.925" stroke-width=".1" fill="none"/>
    <path fill="#725a42" d="M97.71 60.158c.41-.33 1.253-.278 1.468.262-.598 4.197-4.424 7.098-9.431 9.728-3.987 2.094-6.647 4.283-8.045 8.883-.833 2.74-1.264 5.49-.847 8.321.75 5.083 3.048 8.075 7.226 10.799 4.373 2.85 7.37 5.78 7.86 10.019-.52.39-1.154.271-1.525-.1-.913-5.979-5.143-7.65-9.436-10.793-3.408-2.496-5.092-5.787-5.624-9.686-.394-2.887.027-5.982.844-8.782 1.126-3.858 3.542-6.854 7.488-8.732 4.98-2.37 8.588-4.526 10.023-9.92z"/>
    <path fill="#eabfa2" d="M79.882 82.142c.11-.118.261-.137.504-.15 1.312-.07 2.518.318 2.984.998l.954.11-.523 3.272-.94-.146c-.251.13-.425.207-.706.253-.438.071-.897.1-1.384.08l-.025-.36-.196.122-1.286-.076-.011.132c-.333-.162-.349-.613-.17-.971-.383-.154-.53-.517-.367-1.013-.365-.259-.453-.719-.203-1.108-.391-.324-.354-1.153.423-1.165.16-.002.324-.004.484-.001l-.038.287.337.083.164-.346z"/>
    <path d="M95.375 89.134c-.399.202-.906.387-1.253.39a41.708 41.708 0 0 1-2.331-.507c.493-1.899.666-3.922.265-5.824.576.041 1.072.103 1.495.203.412-.167 1.01-.302 1.514-.355.73 2.092.705 4.107.31 6.093"/>
    <path class="secondary" d="m91.792 89.017-.169-.042c-2.813-.705-5.626-1.678-8.44-2.684.423-1.134.566-2.355.462-3.4 3.778.261 6.5.17 8.38.3l.033.002c.4 1.902.228 3.925-.266 5.824"/>
    <path fill="#eabfa2" d="m105.714 80.25.878-3.762-4.75-.602c-.016.368-.172.82.104 1.119.234.468-.453 1.279-.6 1.814-.063.23-.144.548.189.654.184.059.551-.058.914.03l.96 1.233 2.305-.486z"/>
    <path d="M106.824 70.422c3.614.61 2.884 4.65 3.084 7.153-2.641-.648-5.576-1.196-8.44-1.382.57-2.453 2.276-6.293 5.358-5.771z"/>
    <path class="secondary" d="m102.13 74.14.003-.006c2.607.092 5.21.55 7.718 1.335v.007c.017.745.008 1.472.059 2.101-2.642-.648-5.577-1.196-8.44-1.382.144-.627.363-1.344.66-2.056z"/>
    <path fill="#725a42" d="M101.6 79.488c-.003.569.217.861.45 1.042l-.005.302c-.006.333-1.06.523-1.503 1.047-.228.335-.228.7 0 1.091l3.872.227 1.405-1.74-.387-2.221c-.994-.109-1.133-.078-1.45.52-.284.537-.514.664-.771.048-.074-.179-.188-.335-.42-.368a.385.385 0 0 1-.343.068c-.323-.078-.65.006-.847-.016z"/>
    <path d="m115.024 75.593-2.378 3.936m.319.194 2.38-3.936m-4.278 7.071 2.02-3.333 1.232-.304 1.084-1.794-1.238.305.192-.317 1.238-.305.986-1.632-1.495.368-.369-1.498-.982 1.626.304 1.24-.191.317-.305-1.24-1.084 1.794.306 1.245-2.014 3.337.316.191z"/>
    <path d="m115.893 76.119-2.378 3.936m.319.193 2.38-3.935m-4.278 7.071 2.02-3.334 1.232-.303 1.084-1.794-1.238.305.192-.317 1.238-.305.986-1.633-1.495.369-.368-1.498-.983 1.626.304 1.24-.191.317-.305-1.24-1.084 1.794.306 1.245-2.015 3.336.317.192z"/>
    <path d="m116.76 76.644-2.379 3.936m.32.194 2.379-3.935m-4.277 7.07 2.02-3.333 1.232-.304 1.084-1.794-1.238.305.192-.317 1.238-.305.986-1.632-1.496.368-.368-1.498-.982 1.626.304 1.24-.192.317-.304-1.24-1.084 1.794.306 1.245-2.015 3.337.317.192z"/>
    <path d="m117.626 77.167-2.378 3.936m.319.193 2.38-3.935m-4.278 7.071 2.02-3.334 1.233-.303L118.006 79l-1.239.305.192-.317 1.238-.305.987-1.633-1.496.369-.368-1.498-.983 1.626.305 1.24-.192.317-.304-1.24-1.085 1.794.306 1.244-2.014 3.337.316.192z"/>
    <path d="m118.493 77.692-2.379 3.937m.32.193 2.379-3.935m-4.277 7.07 2.02-3.333 1.232-.304 1.084-1.793-1.238.304.192-.317 1.238-.305.986-1.632-1.496.369-.368-1.498-.982 1.625.304 1.24-.191.317-.305-1.24-1.084 1.794.306 1.245-2.015 3.337.317.192z"/>
    <path d="m119.359 78.218-2.378 3.936m.319.194 2.38-3.936m-4.277 7.071 2.019-3.334 1.232-.303 1.085-1.794-1.239.305.192-.317 1.238-.305.987-1.633-1.496.37-.368-1.499-.983 1.626.305 1.24-.192.317-.304-1.24-1.084 1.794.305 1.245-2.014 3.337.316.191z"/>
    <path fill="#725a42" d="m108.418 85.977 5.341 2.915 3.276-5.42-5.341-2.916-3.276 5.42z"/>
    <path d="M118.515 87.376c.386.148.765.32 1.13.53l3.637-1.498V85.11l-2.583-2.06c1.513.142 3.033.771 4.524 2.37.635.681.573 1.225.045 1.749-.865.856-1.72 1.512-2.418 2.196-.682.668-1.779.819-2.929.864-.467.011-1 .036-1.47.022a12.093 12.093 0 0 1 .064-2.875"/>
    <path class="secondary" d="M119.312 83.043c-1.678.125-3.313-.122-4.97-.358.119 1.04-.194 2.007-.447 3.004 1.567.96 3.393 1.135 5.032 1.855a16.003 16.003 0 0 0 3.266-1.283c.66-.349.717-.637.14-1.21-.848-.844-1.75-1.21-2.784-2.017.17-.023-.22.008-.237.01"/>
    <path class="secondary" d="M118.908 87.55c1.1-.294 2.242-.737 3.285-1.288.66-.349.717-.637.14-1.211-.848-.843-1.75-1.21-2.784-2.017a4.956 4.956 0 0 1 2.332.22c.87.53 1.578 1.152 2.33 1.882.617.6.63.889-.114 1.368-1.14.734-2.541 1.329-3.886 1.802-.357-.291-.807-.53-1.303-.756"/>
    <path d="M114.401 91.21c-1.118 3.382-2.514 6.656-4.065 7.269l-4.16-.19 1.156-13.744 6.904-.141-.34 1.285c1.43.876 3.104 1.111 4.625 1.69a11.765 11.765 0 0 0-.07 2.871c.47.015 1.003-.01 1.47-.021-.226.794-.705 1.52-1.28 2.184-.85-.142-1.654-.895-2.551-.896a4.788 4.788 0 0 1-1.689-.306"/>
    <path d="m118.49 87.603-.368-.369m.306.978-1.278-1.28m2.736 3.411-.111-.112m-1.378-1.379-2.197-2.2m-2.023-2.026-.218-.218m5.74 6.419-.577-.578m-.719-.72-3.213-3.218m-1.153-1.155-.734-.734m6.168 6.847-1.02-1.02m0 0-4.554-4.561m0 0-1.25-1.253m6.564 7.246-7.222-7.232m6.938 7.618-7.595-7.605m7.26 7.941-7.917-7.928m6.802 7.482-7.458-7.468m6.374 7.054-7.031-7.04m6.316 6.995-6.973-6.982m6.163 6.842-6.82-6.829m6.266 6.945-6.922-6.931m6.751 7.432-6.858-6.868m6.683 7.364-6.735-6.745m6.556 7.237-6.609-6.618m6.425 7.104-6.476-6.485m6.286 6.966-6.338-6.348m6.142 6.822-6.195-6.203m5.991 6.671-6.043-6.051m5.832 6.51-5.884-5.891m5.662 6.341-5.714-5.722m5.482 6.16-5.534-5.54m5.289 5.966-5.341-5.348m5.079 5.757-5.131-5.138m4.849 5.527-4.902-4.908m4.593 5.27-4.645-4.65m4.3 4.976-4.352-4.357m3.95 4.626-4.002-4.007m3.39 4.065-3.442-3.446m2.739 3.414-2.791-2.795m2.088 2.762-2.14-2.143m1.438 2.111-1.49-1.492m.788 1.46-.84-.841m.137.809-.19-.19m1.102-13.104.467-.467m-.528 1.2 1.213-1.214m-1.275 1.947 1.959-1.961m-2.02 2.694 2.704-2.708m-2.766 3.441 3.45-3.455m-3.512 4.188 4.197-4.203m-4.258 4.935 4.942-4.949m-5.004 5.682 5.688-5.695m-5.75 6.428 6.434-6.443m-6.495 7.176 7.18-7.19m-7.242 7.923 7.43-7.44m-7.492 8.173 7.335-7.345m-7.396 8.078 7.829-7.84m-7.891 8.573 8.349-8.36m-8.41 9.092 8.89-8.902m-8.952 9.635 9.45-9.463m-9.512 10.196 10.023-10.037m-10.085 10.77 10.603-10.617m-10.664 11.35 11.183-11.199m-10.631 11.317 11.143-11.158m-10.502 11.188 6.976-6.986m.12-.12 3.906-3.911m-10.361 11.046 5.983-5.99m.99-.992 3.463-3.468m-9.795 10.48 4.947-4.954m1.957-1.96 2.841-2.844M109.3 98.43l3.844-3.85m3.056-3.06 2.198-2.2m-8.457 9.14 2.608-2.612m4.204-4.21 1.675-1.677m-1.201 1.874 1.579-1.581m-1.13 1.802 1.814-1.816m-1.352 2.025 1.656-1.658" stroke-width=".1" fill="none"/>
    <path d="M118.507 87.436c-.256 1.738-.046 3.36.18 4.976m-8.238 5.98c1.523-.668 2.82-3.764 3.94-7.145m-3.403-.942c.343-.15.687-.373 1.03-.761 1.294 1.37 2.659 1.97 4.074 1.972.897 0 1.701.754 2.552.897.574-.665 1.037-1.368 1.253-2.153m-1.432 0c1.608-.044 3.417.054 4.387-.896.698-.684 1.553-1.341 2.418-2.197.528-.523.59-1.067-.045-1.748-1.947-2.089-3.945-2.522-5.91-2.376-1.678.124-3.313-.123-4.97-.359.12 1.04-.194 2.007-.447 3.004 2.134 1.307 4.746 1.158 6.715 2.914m-4.99-5.718c-.062 1.133-.223 2.248-.74 3.305m5.331 2.116c1.346-.474 2.747-1.069 3.886-1.803.744-.479.731-.767.114-1.367-.752-.73-1.459-1.352-2.33-1.883a4.952 4.952 0 0 0-2.331-.22c1.034.808 1.935 1.174 2.783 2.017.578.575.52.863-.14 1.211-1.043.551-2.174.974-3.274 1.268" fill="none"/>
    <path class="secondary" d="M108.69 85.952c-1.33 3.965-1.845 8.257-2.218 12.605l-8.154-.322c.066-5.437.346-10.767 1.538-14.933l8.976.215-.143 2.435z"/>
    <path d="m106.767 95.653-6.576-.324-1.791-.182m8.735-2.348-6.712-.287-1.931-.312m9.24-2.624-6.989-.193-1.975-.451m5.608-2.67-3.275-.01-1.828-.45m2.483-2.487c-1.069 4.929-1.446 9.956-1.655 15.008m2.804.138c.307-5.033.843-10.066 1.885-15.1" fill="none"/>
    <path d="M109.904 77.568c.191 1.99.796 3.596 1.472 4.91.54 1.053.478 2.318.188 3.627-2.427.203-4.854.326-7.28.227.656-1.979.89-3.946.95-6.025.036-1.228.39-2.41.937-3.537 1.282.232 2.539.508 3.734.798z"/>
    <path d="m109.91 77.608-.05-.05m.149.82-1.026-1.027m1.186 1.859-2.048-2.051m2.29 2.965-3.137-3.142m3.5 4.177-4.331-4.338m4.886 5.564-5.3-5.307m5.673 6.351-5.872-5.88m5.952 6.632-6.13-6.139m6.113 6.793-6.268-6.276m6.196 6.875-6.321-6.33m6.217 6.897-6.307-6.316m5.783 6.462-5.83-5.837m5.206 5.884-5.23-5.238m4.603 5.28-4.64-4.646m4.007 4.684-4.058-4.064m3.421 4.097-3.486-3.491m2.842 3.517-2.923-2.927m2.272 2.947-2.367-2.37m1.709 2.381-1.82-1.822m1.152 1.825-1.278-1.28m.602 1.273-.742-.742m.054.725-.209-.21m1.681-9.06.278-.277m-.696 1.367 1.259-1.26m-1.493 2.165 2.052-2.055m-2.167 2.842 2.722-2.725m-2.758 3.432 3.308-3.312m-3.341 4.017 3.887-3.893m-3.94 4.616 4.483-4.488m-4.558 5.235 4.87-4.878m-4.976 5.655 5.06-5.067m-5.206 5.884 5.311-5.318m-5.509 6.187 5.636-5.643m-5.906 6.585 6.053-6.06m-5.59 6.268 5.754-5.762m-5.098 5.776 5.278-5.285m-4.611 5.289 4.806-4.813m-4.13 4.807 4.34-4.346m-3.655 4.33 3.876-3.88m-3.182 3.857 3.383-3.387m-2.68 3.354 2.818-2.822m-2.108 2.782 2.177-2.18m-1.46 2.132 1.453-1.454m-.728 1.4.638-.639" stroke-width=".1" fill="none"/>
    <path d="m107.526 83.198-4.589-.208m-.017.373 4.59.21M77.879 81.86l-.632-.615-2.7.633 2.632.876.684-.555 25.291 1.176.856.939 2.092.095-.86-.943.37.017.86.943 1.903.087-1.039-1.14 1.138-1.04-1.896-.086-.941.861-.37-.017.942-.86-2.092-.096-.946.865-25.29-1.14z"/>
    <path fill="#eabfa2" d="M112.71 85.068c-.485.277-1.002.402-1.552.229-.274-.055-1.606-.376-2.153-1.01-.688.545-1.21.17-2.174-.843a.764.764 0 0 1 0-1.069c.291-.305.71-.455 1.07-.675.418-.256 1.045-.537 1.457-.316 1.016.546 1.818 1.246 2.924 1.37l2.085.234c.032.844-.194 1.645-.408 2.46z"/>
    <path d="m108.445 81.848-.897.298c-.46.152-.221 1.145.04 1.402l.588.582c.288.285.587.224.866.068" fill="none"/>
    <path d="m108.819 82.184-.629.166c-.453.118-.104.994.119 1.196l.747.682c.453.237.914-.15.508-.594-.164-.179-.259-.308-.49-.53.076-.003.192-.029.244-.077.346.498 1.045.918 1.6 1.17.72.327 1.449.236 2.14.04" fill="none"/>
    <path class="tertiary" stroke="none" d="M92.805 114.825c3.773-.095 7.466.953 11.259 1.571 4.216.688 8.645 1.12 11.913-.663l.194.355c-3.426 1.87-7.94 1.398-12.172.708-3.824-.623-7.493-1.66-11.183-1.566zm-.316.858c3.883-.165 7.676.925 11.575 1.56 4.36.711 8.901 1.173 12.203-.831l.21.346c-3.465 2.103-8.103 1.598-12.478.885-3.93-.64-7.698-1.717-11.493-1.556z"/>
    <path d="M95.375 89.134c-.399.202-.906.387-1.253.39-3.647-.68-7.294-1.928-10.94-3.233.423-1.133.565-2.354.461-3.399 4.962.342 8.101.076 9.908.504.412-.167 1.01-.302 1.514-.355.73 2.092.705 4.108.31 6.093z" fill="none"/>
    <path d="M84.272 86.654c.538-1.19.801-2.407.661-3.665m5.414 5.625c.547-1.816.775-3.682.305-5.498m2.872.254c.148.365.242.857.102 1.324m6.19-1.337c-.486.21-.85.541-1.093.994m-6.927 4.644c.514-1.95.69-3.877.254-5.828m2.963-.276c1.072 2.931.647 5.71-.217 8.466" fill="none"/>
    <path d="M102.447 79.503c.353.084.57-.243.503-.61" fill="none"/>
    <path d="M101.615 79.505c-.006 1.256 1.004 1.078 1.084 1.62" fill="none"/>
    <path class="tertiary" d="M110.156 98.414c-3.128-4.556-5.992-9.827-8.404-15.291h1.323c2.32 5.185 5.063 10.194 8.118 14.73l-.721.566-.316-.005z"/>
    <path class="tertiary" d="m110.45 98.392-12.122-.433v1.147l12.122.433v-1.147z"/>
    <path d="m102.808 98.108-.043 1.127m-1.24-1.156-.043 1.128m-.244-1.142-.044 1.127" fill="none"/>
    <path d="m98.734 62.3-1.384-1.113-.098.279 1.36 1.116 8.552 19.527c.039-.024.078-.048.118-.07l-8.548-19.74zm-3.107 44.182-1.372.935-.06-.324 1.31-.894 11.78-22.298.102.095-11.76 22.486z" fill="none"/>
    <path d="M103.62 76.85c-.646-.257-1.176-.46-1.607-.178" fill="none"/>
    <path d="m78.476 83.3.69.166m.958.229.124.03.88-.035c.21.355.168.725-.26.92m-1.655-2.17.489.1m-1.017 1.86 1.43.236.773-.046c.412.318.23.738-.21.93m-1.594-.12.916.133.659-.024c.272.217.209.67-.16.79m1.493-1.79c-.42-.127-.72-.604-.748-1.072a1.34 1.34 0 0 1-.627-.304c-.444.546-.787.985-1.345.808-.252-.08-.234-.307-.082-.493.235-.287.46-.78.566-1.077a.652.652 0 0 1 .127-.23" fill="none"/>
    <path fill="#f6f6f6" d="m103.747 77.54-1.011-.668-.362.65 1.373.019z"/>
    <path class="secondary" d="m107.86 138.725-.11.321c2.799 1.703 5.591.946 8.415-.842l.325 1.222 3.079-.925-.412-1.455.01-.044-3.06.783c-2.766 1.753-5.498 2.501-8.247.94"/>
    <path class="tertiary" d="M116.296 125.423c-2.021-.297-3.868-.314-6.208-1.346l-.888 1.755c1.341 3.269 2.796 5.656 3.78 9.056-.862.778-.748 2.66-2.758 3.452-.582.23-1.341.369-2.354.362l-.008.023c2.748 1.562 5.48.814 8.247-.94l3.059-.782c.199-.956-.233-2.206-.897-2.733.192-.883-.006-1.423-.622-1.875.403-.84.024-1.504-.46-2.83-.387-1.339-.805-2.794-.89-4.142"/>
    <path class="secondary" d="M85.5 136.524c2.061 2.426 5.243 2.345 8.465 1.647l3.157.32-.018.038-.097 1.593-3.23-.193.097-1.343c-3.287.712-6.533.783-8.589-1.797l.215-.266z"/>
    <path class="tertiary" d="M99.3 126.64c-1.76-1.115-3.522-2.544-5.378-4.331l-1.446 1.352c.137 3.555.101 7.111-.144 10.667-1.17.4-2.898 2.48-5.476 2.403a5.004 5.004 0 0 1-1.34-.229l-.016.02c2.061 2.426 5.243 2.345 8.465 1.647l3.157.32c.36-.768.514-1.564.223-2.423.431-.645.576-1.336.433-2.076.671-.655.89-1.91.892-3.33.097-1.4.245-2.716.63-4.02"/>
    <path class="secondary" stroke="none" d="m94.004 124.295.11.102c1.629 1.525 3.207 2.758 4.92 3.705l-.195.354c-1.71-.945-3.282-2.174-4.886-3.664l-1.31.754-.203-.35zm16.766 1.246.139.059c2.008.851 3.71.792 5.675 1.095l-.062.4c-1.875-.29-3.601-.252-5.626-1.073l-.967 1.155-.31-.26z"/>
    <path d="m119.17 137.002-3.061.784c-2.78 1.76-5.522 2.508-8.283.92m10.479-4.448-1.411.29m-.596-9.125c-2.021-.297-3.869-.314-6.208-1.346l-.888 1.755c1.34 3.268 2.795 5.656 3.78 9.056-1.112 1.003-.6 3.843-5.113 3.814l-.118.344c2.798 1.703 5.591.946 8.414-.842l.326 1.223 3.078-.925-.411-1.456c.222-.96-.213-2.24-.887-2.777.192-.883-.006-1.423-.622-1.874.402-.84.023-1.505-.461-2.83-.386-1.34-.804-2.795-.89-4.142zm-1.38 9.148c-.66.235-1.321.376-1.982.313m4.708-2.492-1.002.255" fill="none"/>
    <path d="m97.13 138.49-3.164-.32c-3.236.701-6.431.78-8.492-1.678m11.908-.423-1.434-.215m1.828-1.867-1.792-.144m-1.076.934c-.872.064-1.745-.035-2.617-.467m7.01-7.668c-1.76-1.116-3.523-2.544-5.378-4.332l-1.446 1.352c.137 3.556.1 7.111-.145 10.667-1.361.466-3.48 3.21-6.816 2.175l-.23.285c2.056 2.58 5.301 2.508 8.589 1.797l-.097 1.343 3.23.193.096-1.593c.374-.779.538-1.587.241-2.462.432-.644.576-1.336.434-2.075.671-.655.89-1.91.891-3.331.098-1.4.246-2.715.63-4.019z" fill="none"/>
    <path d="m92.193 87.147-8.692-2.093" fill="none"/>
    <path class="secondary" d="m89.877 85.922-.656-.146-.255 1.153.656.145.255-1.152z"/>
    <path class="secondary" d="m86.58 85.138-.655-.146-.255 1.152.655.146.256-1.153z"/>
    <path d="M120.88 88.028c-1.51-1.208-5.216-1.672-6.873-2.713" fill="none"/>
    <path class="secondary" d="m116.55 85.85-.634-.22-.577.729.635.22z"/>
    <path class="secondary" d="m119.035 86.632-.634-.22-.577.729.635.22z"/>
  </g>
</svg>
