<svg xmlns="http://www.w3.org/2000/svg" fill="#d7374a" stroke="#000" viewBox="50 50 200 200">
<metadata source="https://commons.wikimedia.org/wiki/File:Coa_Hungary_Family_Balogh_-_Marosv%C3%A1s%C3%A1rhely.svg" author="Madboy74" license="https://creativecommons.org/publicdomain/zero/1.0"/>
  <g id="armEmbowedVambraced" stroke-width="1.15" transform="matrix(0.35 0 0 0.35 51 42)">
    <path fill="#fd9863" stroke="none" d="m 61,162.4 -7.88,2.1 c -0.15,0 -0.31,0.1 -0.42,0.1 -0.36,0.2 -0.71,0.3 -1.03,0.5 v 0 c -0.45,0.2 -0.88,0.5 -1.26,0.8 -0.24,0.2 -0.54,0.7 -0.73,0.9 -0.5,0.6 -0.54,1.1 -0.75,1.8 -0.1,0.3 -0.21,0.7 -0.24,1 v 0.7 l 0.1,0.5 v 0 c 0.1,0.4 0.22,0.8 0.4,1.2 v 0 0.1 l -4.46,3.4 0.4,0.8 -1.18,0.4 c 0.35,1.7 0.4,3.7 1.76,4.9 l 0.82,2.2 -1.55,1.1 -0.12,1.2 c -0.1,0.2 -0.1,0.3 -0.14,0.5 -0.1,0.3 -0.1,0.5 0,0.9 0,0.1 0.1,0.4 0.15,0.6 0.13,0.3 0.36,0.7 0.62,1.1 0.14,0.2 0.26,0.4 0.43,0.6 0.5,0.6 1.14,1.3 1.95,2 -0.44,0.4 0.66,-0.1 0.78,0 l 0.8,1.4 c -0.34,-0.1 -0.9,-0.3 -1,-0.2 -0.27,0.1 -0.52,0.2 -0.72,0.3 -0.1,0.1 -0.17,0.1 -0.25,0.2 -0.18,0.1 -0.36,0.2 -0.48,0.4 -0.17,0.2 -0.28,0.4 -0.33,0.7 0,0.1 -0.23,1.3 -0.23,1.4 0,0.3 0.1,0.5 0.17,0.8 0.19,0.6 0.86,1.4 1.52,2.2 0.26,0.2 0.5,0.4 0.76,0.6 v 0 c 0.25,0.2 0.53,0.4 0.78,0.5 v 0.1 c 0.52,0.3 0.96,0.7 1.48,1 h 0.1 c 0.78,0.4 2.12,0.7 2.9,1 v 0 l 0.77,0.3 h 0.24 l 0.22,0.4 0.55,-0.4 c 1.76,1.3 6.11,1.1 6.4,-1.6 l 3.72,3.8 c 6.4,3.1 10.04,3.8 17.39,4.5 1.08,0.1 10.06,1.4 10.61,1.6 4.3,0.6 7.45,1.6 9.55,-4.9 2.9,-4.7 1.4,-16 -6.99,-22 0,0 -2.27,0 -3.24,-1.4 -1.48,-5.9 -8.32,-9.7 -11.24,-13 -0.23,-0.3 -0.4,-0.5 -0.64,-0.8 v 0 c -0.65,-0.6 -1.4,-1.1 -2.22,-1.5 -0.16,0 -0.37,-0.1 -0.53,-0.1 L 78.33,167 c -0.32,-0.1 -0.65,-0.1 -0.98,-0.1 v -0.1 c -0.45,0 -0.95,0 -1.42,0.1 v 0.1 h -0.1 c -1.19,-0.6 -2.32,-1.3 -3.4,-2.1 -0.26,-0.1 -0.52,-0.2 -0.79,-0.3 -0.95,-0.3 -2.63,-0.2 -3.79,0.3 -2.01,-0.5 -3.54,-2.5 -6.85,-2.5 z"/>
    <path fill="#000" fill-opacity=".2" stroke="none" d="m 50.43,166 -1.44,2.9 0.5,4 3.69,3.8 2.87,3.2 2.51,2.4 2.9,2.2 2.07,0.5 0.63,-0.7 1.44,-0.2 1.03,1.3 c 0,1.5 -1.75,0.8 -3.04,1 -3.29,0.7 -3.34,0 -4.64,-0.2 -2.18,-0.4 -4.21,-1.4 -5.9,-2.9 -4.7,-1.9 -7.47,-4.9 -7.73,-7.8 l -1.14,2.1 0.91,3.4 2.7,3.3 4.92,3 7.53,1.7 2.75,0.4 2.67,-0.2 0.83,1.6 -2.22,0.6 -2.8,1.5 c -2.41,0.3 -3.98,-0.6 -5.82,-1.1 -6.8,-0.6 -8.87,-3.2 -10.69,-5.1 l 0.54,2.6 2.12,2.5 3.78,2.1 5.54,2.2 3.23,0.1 1.22,0.9 1.23,1.8 0.1,1.4 -1.38,-0.8 h -3.17 c -5.55,0.4 -9.38,-1.3 -11.27,-4.1 l 0.47,2.3 2.18,2.7 4.22,2.2 c -0.14,0.1 3.7,0.7 5.85,0.7 0.96,-0.3 1.73,-0.7 2.79,-1.2 1.07,-2 1.62,-3.4 1.36,-4.8 1.42,-1 6.69,-0.6 3.85,-6.2 0.4,-1.7 1.04,-2.1 0.1,-4.7 L 68.7,184 c 1.6,0.3 3.34,0.1 5.15,-0.5 l -0.5,4.5 1.73,5.6 3.19,4 c 0.87,-1.1 2.09,-2 3.47,-2.4 -1.27,-1.2 -0.76,-2.7 -0.62,-4.1 -4.84,-2.1 -3.94,-7 -4.76,-11 l -0.27,-0.9 -3.62,-3.6 -1.92,-2.9 c -1.52,0.5 -3.02,0.7 -4.51,0.8 -4.23,-0.2 -6.97,-1.5 -9.96,-2.5 l -1.73,-0.4 0.83,1.8 c 2.84,1.8 6.24,2 9.58,2.5 l -0.44,1.5 2.55,3 0.36,1.6 -0.1,-0.2 c -0.9,1.3 -1.83,0.9 -2.4,1 L 62,179.9 c -0.99,-0.8 -2.08,-1.4 -3.26,-1.9 -4.4,-3.8 -8.97,-8 -8.31,-12 z m 13.34,31.3 c -0.3,2.8 -1.12,2.9 -1.36,4.8 l 5.06,3.6 4.85,1.7 5.44,1.7 5.3,0.3 2.26,-0.3 2.61,0.7 4.05,0.5 1.53,0.4 0.64,-0.2 3.24,-4 1.36,-3 c -5.51,1.2 -13.38,0.7 -14.75,-1.8 -2.03,0.7 -3.11,3.3 -6.74,0.8 -3.64,-2.7 -13.37,-1.1 -13.49,-5.2 z"/>
    <path d="M185.95 100.88c-7.37 7.43-1.5 25.21-9.15 36.64 1.13.26 2.24.53 3.35.82-.8 3.43-1.64 6.83-2.5 10.2l-.28 1.14c0-.45.1-.86.29-1.14-1.36.23-2.36.73-2.89 1.54-1.03 1.57-.42 3.35 1.22 5.2-.57 2.27-1.12 4.52-1.65 6.75-2.93.25-5.2 1.23-6.14 3.27-2.23 3.65-.87 12.98.43 20.7-.56-.4-.72-.61-.93-.46-.23.16.02.33.24 1.02l-.12.06c-3.23-3.48-8.1-6.5-11.73-8.14a6.51 6.51 0 00-3-.98 4.32 4.32 0 00-.47-.04h-.24c-.23 0-.44.01-.63.06-2.86.4-4.64 3.4-5.72 7.44-18.45.03-37.85 3.5-48.5-.94-1.03-.9-2.16-1.29-3.35-.86 6.87 4.44 7.11 19.39 1.44 25.9l-1.45 1.36c-.92.72-.59.7-1.74.97 1.42-.08 1.3.16 2.42-.32 2.59.18 9.34.72 13.63 1.56 9.5 1.85 18.54 5.63 27.97 7.78 3.43.78 8.1 1.53 12.5 2.12 2.11 5.56 4.92 9.78 8.07 9.67 5.58.23 14.08-4.13 18.38-7.06 4.6 1.52 10.93-.35 18.38-1.96.83.7 1.45 1.04 1.74.84.23-.17.18-.7-.05-1.42 4.1-5.05 6.01-11.45 8.54-17.47l.02-.01c4.08-3.26 13.9-13.4 14.85-18.68.65-1.88-.38-4.13-2.4-6.45a129.2 129.2 0 004.1-8.55c1.97-.3 3.42-.97 3.99-2.17.54-1.15.29-2.3-1.44-3.93 1.9-4.79 3.67-9.7 5.45-14.61a5.69 5.69 0 002.98 2.67l.07.04c.12.05.26.08.39.12.17.05.35.09.53.12l.58.1c.01-.01 0 .01.02.01a5.69 5.69 0 006.14-5.18 5.66 5.66 0 00-7.11-5.95c-.88-2.1 2.36-1.5 5.59-7.6-21.03-8.28-31.9-23.95-46.19-37.14a11.2 11.2 0 00-5.63 2.96z"/>
    <g fill="#000" stroke="none">
      <path d="m 61.82,202 c 3.62,4.5 16.25,8.6 23.41,7.6 3.24,1 5.23,0.9 7.48,1.5 l 1.71,-1.1 c -3.23,0.2 -5.39,-0.8 -8.95,-1.6 -6.8,0.1 -17.7,-1.3 -22.66,-7.2 m 10.2,-11.6 c 1.09,3.5 3.2,6.7 5.94,8.3 -2.65,-2.3 -4.4,-5.5 -4.96,-9 -0.1,-0.8 -0.13,-1.7 -0.1,-2.6 0,-1.6 0.34,-3.2 0.86,-4.8 0.13,-0.3 0.46,-0.5 0.66,-0.8 0.85,-0.3 1.35,-1 1.86,-1.7 -0.71,0.6 -1.72,0.8 -2.48,0.9 -0.92,-0.3 -1.55,-1.1 -2.07,-1.8 -0.46,-0.7 -1,-1.3 -1.65,-2 -3.42,-3.5 0.98,-1.4 -0.39,-3.9 -0.38,0.9 -1.16,1.4 -2.25,1.8 -1.48,0.5 -3.56,0.6 -5.62,0.5 -0.88,-0.1 -1.63,-0.3 -2.47,-0.4 -1.3,-0.2 -2.6,-0.6 -3.74,-1.2 -0.29,-0.1 -0.58,-0.3 -0.8,-0.5 -0.57,-0.4 -0.78,-1 -1.04,-1.6 2.33,0.9 4.48,0.4 6.4,-1.1 0.23,-0.1 0.19,-0.4 0.31,-0.6 0.25,-0.8 0,-1.4 -0.19,-2.1 0.9,-0.1 1.8,-0.1 2.68,-0.2 0.34,-0.1 0.65,-0.2 1,-0.3 1.64,-0.4 3.52,-1.6 5.14,-1.7 0.22,-0.1 0.48,0 0.7,0 0.6,0.1 1.2,0.4 1.67,0.7 1.2,0.7 2.16,1.3 3.3,1.9 1.43,-0.3 2.93,-0.1 4.22,0.6 0.52,0.3 1.27,0.9 1.74,1.4 0.26,0.3 0.33,0.7 0.53,0.9 2.93,3.3 8.89,6.9 10.88,12.6 0.26,0.7 0.85,0.9 1.6,1 l 0.17,-0.9 c -0.47,-0.1 -0.85,-0.3 -0.98,-0.7 -1.92,-6.3 -8.24,-9.8 -10.74,-12.7 -0.74,-0.9 -1.59,-1.6 -2.52,-2.3 -1.41,-0.9 -3.04,-1 -4.64,-0.8 -0.59,-0.3 -1.19,-0.6 -1.63,-0.9 -0.59,-0.3 -1.06,-0.7 -1.52,-1 -0.64,-0.4 -1.38,-0.6 -2.13,-0.6 -1.46,0 -3.91,0.9 -5.83,1.8 -0.75,0.1 -1.54,0.2 -2.2,0.3 -0.86,0.1 -1.26,0.2 -2.1,0.2 -1.67,-0.2 -3.66,-0.3 -5.12,0.5 -1.4,0.7 -2.58,2.4 -1.9,3.3 0,0.2 0.1,0.6 0.13,0.7 0.1,0.6 0.56,1.2 0.9,1.6 1.27,1.5 3.26,2 4.98,2.4 0.88,0.1 1.63,0.2 2.5,0.4 1.66,0.9 2.83,2.2 3.7,3.2 1.93,2.3 1.36,5.7 -1.33,5.5 0.55,-0.7 0.42,-1.4 0.6,-2.1 -2,-2.8 -6.42,-3.5 -6.63,-0.1 -0.61,-0.5 -1.15,-1 -1.63,-1.6 -1.93,-2.9 -5.16,-4.7 -6.84,-7.6 -1.11,-2.1 -0.93,-3.9 0.38,-5.6 1.29,-1.7 3.72,-2.6 5.69,-3.1 1.11,-0.3 3.97,-1.2 6.22,-1.1 2.31,0.1 5.07,2.5 5.05,2.6 l 0.96,-0.4 c -3.32,-2.2 -4.43,-3 -7.53,-2.8 -2.08,0.1 -3.72,0.7 -5.22,1.1 -2.32,0.5 -4.3,1.4 -5.78,3.1 -1.68,1.9 -1.72,4 -1.12,6.1 -2.21,1 -4.5,2.7 -4.95,4.7 -0.58,2.5 0.87,4.1 2.27,6.1 -3.05,2.7 -1.38,6.9 1.86,9.3 -1.41,1 -2.02,2.5 -1.6,4 0.75,2.7 3.12,4.4 5.45,5.4 1.23,0.6 2.62,0.8 4.04,1.2 2.93,1.7 7.5,-0.4 7.05,-2.5 0.72,-1.3 -0.59,-3.2 -1.79,-4.3 0.28,0 0.43,-0.2 0.72,-0.1 2.17,0.1 4.82,-1 5.62,-2.6 0.46,-0.8 0.1,-1.7 -0.56,-2.5 0,-0.7 -0.4,-1.5 -0.94,-1.9 0.12,-0.1 0.32,-0.1 0.31,-0.2 v -0.3 c 1.6,-1.4 1.25,-3.1 0.1,-4.6 0.4,-0.3 0.79,-0.6 1.02,-1 1.36,-2.7 -0.67,-6.2 -3.56,-7.9 1.52,0 3.94,-0.1 5.21,-0.5 0.3,0.5 0.56,1 1.21,1.7 0.59,0.6 1,1.9 1.38,2.4 0.45,0.9 1.56,1.6 2.28,2.2 -0.73,1.7 -1.18,3.4 -1.35,5.3 -0.1,1.2 0.27,2.2 0.61,3.3 z m -15.8,-22.7 h 0.86 c 0.85,0 1.68,0.1 2.43,0.1 0.45,0.9 0.56,1.5 0.3,2.1 -1.76,1.5 -4.29,1.9 -6.46,1 -0.27,-1.3 0.7,-2.3 1.81,-2.8 h 0.1 c 0.32,-0.2 0.64,-0.3 0.99,-0.4 z m -7.99,6.7 c 2.09,2.7 4.8,4.4 6.91,7 0.6,0.8 2.45,2.3 2.45,2.3 1.04,1.1 3.8,2.8 4.93,2.2 0.14,-0.1 0.3,-0.3 0.37,-0.4 0.6,-0.1 0.99,-0.1 1.5,-0.3 1.14,1.4 1.84,2.7 0.59,3.9 -0.19,-0.6 -0.31,-1.4 -0.78,-1.7 -1.55,-1 -4.1,0.2 -5.36,1.9 -3.53,-0.6 -7.33,-1.1 -10.18,-3.2 -1.73,-1.2 -3.19,-2.8 -4.26,-4.6 -0.75,-1 -0.98,-2.3 -0.6,-3.5 0.65,-2.2 2.68,-3.1 4.43,-3.6 z m 11.6,6.5 c 1.18,0 2.65,0.8 3.65,1.9 -0.1,1 -0.48,2 -1.15,2.7 -1.53,0 -3.15,-1.1 -4.3,-2.4 0.1,-1.2 0.61,-1.9 1.35,-2.1 0.15,0 0.29,-0.1 0.45,-0.1 z m -14.05,3.8 v 0 c 0.47,0.5 1.4,1.3 1.99,1.7 3.04,2.7 7.24,3.3 11.23,3.7 1.05,0.7 4.17,0.4 5.13,0.1 0.96,0.6 1.04,1.1 0.95,1.5 -3.33,-0.1 -6.51,2.4 -4.99,4.7 -7.8,1.1 -20.46,-7.4 -14.34,-11.7 z m 16.56,3 h 0.43 c 0.37,0 0.7,0.1 0.98,0.3 0.35,0.3 0.62,0.9 0.69,1.5 -1.64,0.6 -3.52,0.8 -4.97,0.1 0.7,-0.9 1.72,-1.6 2.87,-1.9 z m -14.6,6.3 c 2.3,1.3 6.16,2.9 8.66,3.2 1.28,0.1 2.02,0 2.95,0.6 1.16,0.7 1.94,1.9 2.1,3.2 -1.3,-1.4 -3.58,-1.1 -5.12,-0.7 -1.3,0.4 -2.18,1.2 -2.08,2.6 -3.77,-0.9 -7.05,-2.2 -8.13,-5.7 -0.5,-1.6 0.25,-2.8 1.61,-3.2 z m 16.33,-1.6 c 0.34,-0.1 0.68,-0.1 1.02,-0.2 0.5,0.5 1,1 0.98,1.5 -0.1,1.8 -3.6,3.1 -5.37,2.7 -1.31,-2.2 0.98,-3.6 3.37,-4 z m -6.42,8.3 c 0.42,-0.1 0.9,-0.2 1.33,-0.1 1.26,0 2.33,0.4 2.2,1.1 -0.5,2.9 -5.43,2.4 -6.16,1.4 -0.1,-0.9 0.38,-1.7 1.15,-2 0.38,-0.2 0.92,-0.3 1.48,-0.4 z"/>
      <path fill-opacity="0.2" d="M99.42 201.46l-.48.62c-.65 2.7-1.74 5.18-3.31 7l-1.45 1.35c-.93.72-.6.68-1.75.95 1.42-.08 1.3.17 2.43-.32 2.59.2 9.33.73 13.63 1.57 9.5 1.85 18.53 5.64 27.97 7.79 3.42.78 8.1 1.5 12.49 2.1 2.12 5.55 4.92 9.79 8.07 9.68 5.57.23 14.08-4.14 18.38-7.07 4.6 1.52 10.94-.34 18.38-1.95.83.7 1.44 1.04 1.73.83.23-.16.2-.68-.03-1.4 4.1-5.06 6-11.46 8.54-17.47l.02-.02c4.07-3.26 13.89-13.4 14.84-18.7.65-1.88-.4-4.1-2.42-6.43 1.46-2.77 2.82-5.62 4.1-8.55 1.98-.3 3.45-.98 4.01-2.18.54-1.15.28-2.29-1.45-3.92 1.9-4.78 3.69-9.7 5.46-14.62a5.68 5.68 0 002.98 2.67l.07.04.39.11c.17.05.35.12.53.16l.58.08c.01 0 0 .02.02.02a5.69 5.69 0 00.97-11.33 5.8 5.8 0 00-1.94.2c-.88-2.1 2.36-1.5 5.59-7.6-1.1-.44.18.04-.86-.43l-.35.1c-.05 1.66-9.8 11.35-13.57 10.92l-1.75-.57a374 374 0 00-3.77 3.26l-6.47.6c-1.89 1.26-5 1.5-5.45 4.31.16-.09 1.32.04 1.45-.1 2.3-2.5 7.89-1.45 7.8-.9-.9 5.63-3.55 9.11-7.04 14.1 2 1.88 1.5 3.27-1.43 4.21-2.12 8.48-4.54 11.68-6.91 15.87 2.38 2.12.48 3.04-2.22 3.75.7 7.3-2.93 11.04-4.4 12.65-.64 3.18-.49 6.63-4.23 8.77-.58 1.03-.64 2.7-2.9 1.65-2.64 2.08-5.54 2.15-8.52 1.63-3.66 3.38-7.54 4.57-11.69 3.2-3.16 1.06-2.65-2.5-2.76-5.28-8.25 9.51-38.6 1-57.86-6.15-1.99-.36-2.64-2.1-3.45-3.7-1.78 2.03-2.43-.02-1.97-1.5z"/>
      <path d="M154.98 177.48l1.95 1.95c.58.3 1.19.66 1.8 1.03 2.94 1.77 6.98 4.33 9.35 6.9.14 0-.13-.38-.14-.26l-.01-.1.13-.33-.37-.45a38.4 38.4 0 00-8.44-6.65 24.08 24.08 0 00-4.27-2.09zm15.36 14.44c4.4 9.6 8.53 26.75 4.37 33.07-3.15 2.96-10.48 5.88-15.62 6.54L157 232.7c5.87.25 15.3-3.96 18.68-7.15l.21-.12.02-.26c3.86-7.87.08-23.04-4.67-32.29l-.91-.96z"/>
      <path d="M148.55 178.67a9.18 9.18 0 00-1.39 1.91 18.6 18.6 0 00-1.68 4.34l1.03.09c.4-1.5.9-2.84 1.52-3.93a7.35 7.35 0 011.68-2.1 4.17 4.17 0 012.1-.95c2.18-.3 4.02.53 5.66 2.17 1.65 1.65 3.03 4.13 4.18 7 2.28 5.76 3.54 13.12 3.94 18.63.36 4.79 0 11.3-1.4 16.58-.69 2.63-1.63 4.96-2.84 6.6-1.2 1.66-2.63 2.62-4.36 2.68-1.35.05-2.69-.86-4-2.54a25.97 25.97 0 01-3.32-6.18c-.09-.22-.18.54-.44-.13l-.78-.19c1.07 2.83 2.33 5.34 3.74 7.15s3.04 2.97 4.86 2.9a7.81 7.81 0 005.66-3.19 20.86 20.86 0 003.01-6.94c1.43-5.43 1.82-12 1.46-16.9-.42-5.6-1.68-13.04-4.03-18.96a22.05 22.05 0 00-4.96-7.22c-1.8-1.8-4.02-2.8-6.52-2.46-.98.13-1.81.53-2.57 1.15a6.9 6.9 0 00-.55.49z"/>
      <path d="M95.75 182.69l.34.47.2-.18c1.78 1.12 2.82 2.88 4.02 4.52l-.03-.15-1.82-2.57c6.31 2.25 14.55 2.6 24.25 2.09 10.4-.56 22.32-1.94 32.82-1.04.68.06 1.43.06 2.1.14l.31-.94c-.87-.1-1.44-.16-2.33-.23-10.63-.9-22.14.11-32.52.66-10.39.55-19.65.6-25.68-2.05l-1.67-.72zm-2.28 28.04l-1.06.66 1.17.09s10.01.53 15.29 1.56c9.43 1.84 18.09 5.21 27.46 7.87 7.45 2.11 20.98 3.86 24.45 3.5l.3-.1-.43-.97c-6.52.11-15.84-1.48-24.07-3.43-9.37-2.22-17.73-6.24-27.3-8.1-4.04-.8-10.24-1.04-13.15-1.17-.54-.03-.6.47-.87.45l-1.08.1-.7-.46z"/>
      <path d="M102.03 194.28c17.54-1.18 34.61 3.9 52.07 5.74.27.03.54-.19.57-.45.03-.27-1.36-.2-1.63-.23-17.37-1.83-33.38-7.3-51.19-6.07l.18 1.01z"/>
      <path d="M109.86 197.67a2.8 2.8 0 00-1 1.91 2.87 2.87 0 002.57 3.08 2.87 2.87 0 003.04-2.6 2.9 2.9 0 00-2.56-3.08 2.81 2.81 0 00-2.05.69zm.67.8c.36-.32.85-.5 1.3-.46.9.08 1.73 1.07 1.65 1.97-.07.91-1.05 1.75-1.96 1.67-.9-.07-1.73-1.06-1.65-1.97.04-.45.3-.9.66-1.22z"/>
      <path d="M133.62 200.4a2.87 2.87 0 00-1.01 1.93 2.88 2.88 0 002.58 3.06 2.88 2.88 0 003.04-2.6 2.88 2.88 0 00-2.58-3.06c-.76-.06-1.47.2-2.03.67zm.67.8c.37-.32.83-.48 1.28-.44.9.08 1.73 1.03 1.65 1.93l.02.02c-.07.9-1.07 1.73-1.97 1.65-.9-.07-1.72-1.05-1.63-1.95l-.02-.02c.03-.45.3-.89.67-1.2z"/>
      <path d="M151.08 180.75a3.04 3.04 0 00-1.19 2.2c1.13-1.74 2.09-2.24 3.8-1.54.43.17.88.51 1.47 1.1 1.15 1.14 2.43 3.27 3.47 5.89 2.1 5.24 3.36 12.44 3.74 17.68.33 4.4-.05 10.69-1.31 15.46a19.8 19.8 0 01-2.35 5.54c-1.3 1.97-3.06 1.49-4.12-.51.16 1.22 1.24 2.75 2.32 2.83 1.18.08 2.05-.92 2.63-1.71.96-1.3 1.85-3.41 2.5-5.88a52.8 52.8 0 001.35-15.82c-.39-5.33-1.66-12.56-3.81-17.97-1.08-2.71-2.39-4.91-3.7-6.22a5.27 5.27 0 00-1.82-1.33c-1.15-.42-2.14-.32-2.98.28z"/>
      <path d="M168 165.83l-.24-.82c-1.25 2.05-1.31 5.39-1.04 9.2.26 3.7.36 8.53 1.6 11.56.02.14.28.09.3.22l.15.13-.08-.03.07.08.36.39c-.02-.02 0 .01 0 0-1.44-3.87-1.13-8.75-1.4-12.43-.16-2.1-.15-4 .07-5.56.15-1.03-.17-1.48.17-2.16l.04-.58zm4.73 25c8.19 7.82 21.82 14.88 31.16 14.8l.24.07.2-.17c2.07-1.66 5.55-5 8.66-8.64 3.11-3.64 5.87-7.48 6.39-10.37l.06-.4-1.2.6c-.6 2.42-3.09 6.08-6.01 9.5-3 3.5-6.33 6.71-8.34 8.34-8.49-.21-22.5-6.52-30.89-13.9l-.27.17z"/>
      <path d="M167.4 185.13c0 2.62 2.9 6.83 4.71 9.4l16.51 23.52c1.42 2.01 4.68 6.22 7.2 6.36.73-2.84-2.4-6.97-3.79-8.8l-17.6-23.24c-1.74-2.3-4.62-6.57-7.03-7.24zm.33.36c2.69 2.23 4.44 5.62 5.85 7.47l17.61 23.25c1.67 2.2 3.93 5.12 4.37 7.85-2.3-1.47-4.72-4.61-6.12-6.6l-16.51-23.5c-1.62-2.32-4.5-5.9-5.2-8.47z"/>
      <path d="M169.04 163.37a4.96 4.96 0 00-1.3 1.69l-.24.53.06.02a8.42 8.42 0 00.44 6.72c1.19 2.25 3.23 4.39 5.7 6.38 4.97 3.99 11.67 7.37 16.9 9.41a55.32 55.32 0 0016.58 3.63 21 21 0 007.54-.85c2.12-.74 3.97-2.34 4.66-4.3.6-1.72-.06-3.61-1.37-5.5-.36-.5-.76-1-1.2-1.51l-.59.88c.35.4.67.8.95 1.2 1.22 1.75 1.67 3.3 1.23 4.59-.56 1.62-1.88 2.7-3.82 3.36-1.93.67-4.45.9-7.18.78a54.5 54.5 0 01-16.24-3.53c-5.15-2.02-11.81-5.37-16.64-9.25-2.41-1.94-4.36-4.02-5.45-6.08-1.09-2.06-1.34-4.07-.42-6.05a4.1 4.1 0 011.53-1.71 7.37 7.37 0 012.5-.99c.48-.1.99-.18 1.53-.23l.28-1.06c-.71.05-1.4.15-2.03.29a8.27 8.27 0 00-2.85 1.14c-.2.14-.39.28-.57.44z"/>
      <path d="M179.66 138.27c-.93 3.96-1.74 7.84-2.72 11.73l.63.95c1.03-4.06 2.07-8.17 3.05-12.32l-.96-.36zm-4.1 16.53c-1.82 5.57-3.26 11.1-3.78 16.6l-.05.22.14.16a22.46 22.46 0 004.03 4.08c4.53 3.66 11.08 6.97 16.06 8.92a52.8 52.8 0 0015.51 3.4c1.77.07 3.39-.04 4.73-.27l.21-.05.12-.18a108.57 108.57 0 008.65-16.4c.09-.18-.35.3-.26.1l-.66.38-.27-.3a107.48 107.48 0 01-8.18 15.45c-1.22.2-2.67.3-4.3.24a52.17 52.17 0 01-15.18-3.3c-4.89-1.92-11.39-5.23-15.79-8.77a21.66 21.66 0 01-3.72-3.75c.53-5.4 1.8-10.62 3.57-15.6l-.83-.93zm52.71-4.65a432.66 432.66 0 01-6.28 16.58l1.23-1.09.23.26c1.93-4.82 3.74-9.76 5.53-14.72l-.7-1.03z"/>
      <path d="M171.46 165.58c-.39.24-.63.56-.76.86a3.7 3.7 0 00-.4 1.9c.06.67.3 1.33.73 2.13.86 1.64 2.6 3.56 4.86 5.4 4.54 3.65 11.1 6.96 16.06 8.9a52.7 52.7 0 0015.5 3.39c2.56.1 4.84-.13 6.37-.67.75-.26 1.3-.52 1.68-.86.4-.33.6-.75.75-1.15a.94.94 0 00.04-.36 2 2 0 00-.09-.5c-.12-.4-.37-.94-.88-1.66l-.86.59c.46.66.69 1.11.77 1.38.04.13.04.2.04.24-.1.28-.21.48-.45.7-.25.2-.64.43-1.32.67-1.32.45-3.52.7-5.99.6a52.18 52.18 0 01-15.18-3.3c-4.89-1.91-11.39-5.22-15.79-8.77-2.2-1.77-3.83-3.64-4.58-5.07a4.81 4.81 0 01-.63-1.75c-.04-.45.04-.86.28-1.39.09-.17.17-.28.4-.42s.64-.3 1.34-.45l-.22-1.01c-.77.17-1.28.36-1.67.6z"/>
      <path d="M93.53 183.35l.36.25c3.93 2.53 5.68 8.97 5.11 15.07-.28 3.05-1.12 5.99-2.49 8.29s-2.58 3.53-4.92 4.08c-.3 1.55 3.02.7 4.03.21 1.56-.8 2.85-1.95 3.86-3.4 1.86-2.64 2.83-6.19 3.11-10.17a22.2 22.2 0 00-2.17-10.5c-.76-1.55-1.84-3.05-3-3.77-1.39-.86-2.73-1.32-3.9-.06zm1.75.21c.48-.2 1.41.07 2 .54.9.71 1.84 2 2.56 3.47a21.47 21.47 0 012.07 9.98c-.28 3.86-1.3 7.19-2.93 9.67-1.04 1.57-3.04 3.86-4.88 3.63 3.74-2.47 5.95-8.25 6.34-12.14.55-5.88-1.4-11.97-5.16-15.15z"/>
      <path d="M173.79 152.33c.15.87.43 2.3 1.07 3.14 1.27 1.7 3.38 3.37 5.89 4.98 5.01 3.23 11.7 6.2 16.75 8.06a76.63 76.63 0 0015.93 3.9c2.69.33 5.18.42 7.19.1 2-.3 3.74-1.6 4.4-3a2.9 2.9 0 00.17-2.18c-.25-.75-.8-1.5-1.7-2.35a.53.53 0 00-.74.02c-2.46 2.54-5.9 2.24-8.97 1.88a72.02 72.02 0 01-14.68-3.62c-4.74-1.74-11.76-4.81-16.06-7.63-2.15-1.41-3.78-2.86-4.52-3.89a3.55 3.55 0 01-.62-1.65c-.06-.56.05-1.05.19-1.26.22-.34-.13-.86-.52-.79-1.81.03-4.17 1.73-3.78 4.29zm3.26-3.08c-.05.33-.21.61-.17.97.08.72.33 1.48.8 2.13.88 1.22 2.59 2.67 4.8 4.13 4.45 2.91 11.46 5.97 16.26 7.74a72.67 72.67 0 0014.92 3.68c2.95.35 6.59.6 9.37-1.87a5.28 5.28 0 011.18 1.6c.17.52.11.94-.12 1.42-.45.96-1.66 1.6-3.5 1.88-1.86.3-4.26.24-6.9-.08a75.68 75.68 0 01-15.69-3.88c-5-1.84-11.66-4.8-16.56-7.96-2.46-1.58-4.48-3.21-5.63-4.72a4.99 4.99 0 01-1.02-2.1c-.07-1.7.75-2.5 2.26-2.94z"/>
      <path d="M183.48 103.5c-1.46 2.93-1.97 6.54-2.28 10.44-.6 7.8-.43 16.7-4.85 23.3l-.4.61.74.16c11.17 2.56 21.44 6.25 28.37 14.73l.47.57.36-.67c5.3-5.18 16.2-3.63 22.3-1.78a6.1 6.1 0 0011.6-2.2 6.2 6.2 0 00-5.64-6.7c-.51-.04-1 .09-1.5.16 0-.11-.07-.27.01-.39 2.52-2.2 4.5-4.47 5.83-6.93l-.53-.2c-22.23-7.4-33.37-25.55-46.6-37.55-3.44.95-6.4 3.55-7.88 6.45zm7.55-4.5c14.02 13.01 26.96 30.69 45.97 36.28a15.36 15.36 0 01-3.88 4.7c-.54.43-1 .7-1.3 1.16-.32.45-.37 1.1-.1 1.72l.18.4.42-.12a5.14 5.14 0 016.44 5.44 5.17 5.17 0 01-9.88 1.6l-.21-.18-.05-.13-.22-.05c-5.06-1.48-15.8-4.81-22.94 1.86-7-8.28-17.09-11.96-27.9-14.49 4.26-6.87 4.09-15.67 4.67-23.17.3-3.86.8-7.36 2.14-10.07 1.54-2.94 3.82-4.23 6.66-4.95z"/>
      <path d="M181.1 135.07c9.96 2.81 18.24 6.72 24.27 12.71 8.7-3 16.15-2.96 22.41.35.18.06.38.02.52-.1.27-.24.14-.79-.22-.88a.4.4 0 00-.05-.02c-3.1-2.93-14.82-4-22.6-.62-1.05-2.02-16.72-12.7-24.33-11.44z"/>
      <path d="M227.59 147.27a.52.52 0 00-.13.33c-.08.93.05 1.83.35 2.65l1.1-.02a5.18 5.18 0 01-.44-2.57c.03-.42-.6-.7-.88-.39z"/>
      <path d="M232.39 146.8a1.6 1.6 0 00-.55 1.1c-.08.86.55 1.64 1.42 1.71a1.6 1.6 0 001.73-1.44 1.6 1.6 0 00-2.6-1.37zm.46 1.19c.02-.25.35-.57.6-.55.26.03.56.38.54.63-.03.26-.38.55-.64.53-.25-.02-.53-.35-.5-.61z"/>
      <path fill-opacity=".3" d="M151.42 180.96l-1.38 1.32c-.3.97-.34 1.97-.16 2.74l3.56.24 4.15.15-.74-2.12-2.05-1.97-1.84-.8-1.54.44zm20.05-14.55l-.54 1.6.86 2.56s.4.52.45.38c.05-.14.6-2.96.6-2.96l.27-2.43-1.64.85z"/>
    </g>
  </g>
</svg>
