<svg xmlns="http://www.w3.org/2000/svg" fill="#d7374a" stroke="#000" viewBox="50 50 200 200">
  <metadata source="http://wappenwiki.org/images/6/66/Luk.svg" license="https://creativecommons.org/licenses/by-nc-sa/3.0"/>
  <g id="arrowsSheaf" stroke-width="0.33">
    <g transform="rotate(-45.0 95.7055 101.4695)">
      <path class="tertiary" d="M 100.814 66.47a 6.6 -6.6 0 0 1 2.453 -0.671c 1.056 0.0 2.222 1.056 2.222 2.288 0.0 3.399 -4.675 12.254 -4.675 12.254zm -1.65 0.0s -1.331 -0.671 -2.453 -0.671c -1.056 0.0 -2.222 1.056 -2.222 2.288 0.0 3.399 4.675 12.254 4.675 12.254z"/>
      <path d="M 99.164 134.714v -70.785s 0.363 -0.132 0.825 -0.132 0.825 0.209 0.825 0.209v 70.785z"/>
      <ellipse cx="99.989" cy="135.077" rx="1.65" ry="0.913"/>
      <path class="secondary" d="M 101.023 135.11l -0.385 5.819 2.398 -4.895H 106.6l -6.6 7.909 -6.6 -7.909h 3.564l 2.398 4.895 -0.385 -5.819s 0.308 -0.286 1.034 -0.286c 0.704 0.0 1.012 0.286 1.012 0.286z"/>
      <path fill="#000" stroke="none" d="M 100.968 77.096l 2.035 -4.444 -2.332 4.301zm -0.011 -3.652l 2.024 -3.322 -2.299 3.135zm -0.011 -3.157l 2.112 -3.212 -2.376 3.014zm -1.628 6.666l -2.343 -4.301 2.046 4.444zm -0.011 -3.696l -2.299 -3.135 2.024 3.322zm 0.0 -3.168l -2.376 -3.014 2.101 3.212z"/>
    </g>
    <g transform="rotate(45.0 104.7289 101.481)">
      <path class="tertiary" d="M 100.814 66.47a 6.6 -6.6 0 0 1 2.453 -0.671c 1.056 0.0 2.222 1.056 2.222 2.288 0.0 3.399 -4.675 12.254 -4.675 12.254zm -1.65 0.0s -1.331 -0.671 -2.453 -0.671c -1.056 0.0 -2.222 1.056 -2.222 2.288 0.0 3.399 4.675 12.254 4.675 12.254z"/>
      <path d="M 99.164 134.714v -70.785s 0.363 -0.132 0.825 -0.132 0.825 0.209 0.825 0.209v 70.785z"/>
      <ellipse cx="99.989" cy="135.077" rx="1.65" ry="0.913"/>
      <path class="secondary" d="M 101.023 135.11l -0.385 5.819 2.398 -4.895H 106.6l -6.6 7.909 -6.6 -7.909h 3.564l 2.398 4.895 -0.385 -5.819s 0.308 -0.286 1.034 -0.286c 0.704 0.0 1.012 0.286 1.012 0.286z"/>
      <path fill="#000" stroke="none" d="M 100.968 77.096l 2.035 -4.444 -2.332 4.301zm -0.011 -3.652l 2.024 -3.322 -2.299 3.135zm -0.011 -3.157l 2.112 -3.212 -2.376 3.014zm -1.628 6.666l -2.343 -4.301 2.046 4.444zm -0.011 -3.696l -2.299 -3.135 2.024 3.322zm 0.0 -3.168l -2.376 -3.014 2.101 3.212z"/>
    </g>
    <g transform="translate(0 -3.73)">
      <path class="tertiary" d="M 100.814 66.47a 6.6 -6.6 0 0 1 2.453 -0.671c 1.056 0.0 2.222 1.056 2.222 2.288 0.0 3.399 -4.675 12.254 -4.675 12.254zm -1.65 0.0s -1.331 -0.671 -2.453 -0.671c -1.056 0.0 -2.222 1.056 -2.222 2.288 0.0 3.399 4.675 12.254 4.675 12.254z"/>
      <path d="M 99.164 134.714v -70.785s 0.363 -0.132 0.825 -0.132 0.825 0.209 0.825 0.209v 70.785z"/>
      <ellipse cx="99.989" cy="135.077" rx="1.65" ry="0.913"/>
      <path class="secondary" d="M 101.023 135.11l -0.385 5.819 2.398 -4.895H 106.6l -6.6 7.909 -6.6 -7.909h 3.564l 2.398 4.895 -0.385 -5.819s 0.308 -0.286 1.034 -0.286c 0.704 0.0 1.012 0.286 1.012 0.286z"/>
      <path fill="#000" stroke="none" d="M 100.968 77.096l 2.035 -4.444 -2.332 4.301zm -0.011 -3.652l 2.024 -3.322 -2.299 3.135zm -0.011 -3.157l 2.112 -3.212 -2.376 3.014zm -1.628 6.666l -2.343 -4.301 2.046 4.444zm -0.011 -3.696l -2.299 -3.135 2.024 3.322zm 0.0 -3.168l -2.376 -3.014 2.101 3.212z"/>
    </g>
    <rect width="5.06" height="2.64" x="97.58" y="98.26"/>
  </g>
</svg>
