<svg xmlns="http://www.w3.org/2000/svg" fill="#d7374a" stroke="#000" viewBox="50 50 200 200">
  <metadata source="http://wappenwiki.org/images/8/89/Vignerot.svg" license="https://creativecommons.org/licenses/by-nc-sa/3.0"/>
  <g id="boarHeadErased" stroke-width="0.5775">
    <path d="M120.49 70.68c-9.01-9.93-19.31-7.6-19.45-7.18-.14.41.92 1.24 1.96 4.82.42 1.44.97 4.97 1.5 6.89 2.57 8.9 7.23 10.5 7.23 10.5"/>
    <path class="tertiary" d="M101 119.1c-4.7-2.38-7.38-3.7-17.38-3.44-3.02.07-6.05.53-9.08.37a14.2 14.2 0 0 1-8.47-2.87 9.98 9.98 0 0 1-3.45-7.02.58.58 0 0 1 1.02-.37 11.48 11.48 0 0 0 4.27 3.6c6.1 2.8 13.15 1.74 19.82 2.5 6.43.74 12.22 3.62 14.23 5.68"/>
    <path d="M114.46 71.88c-3.86-.71-6.95.51-10.42.88-3.2.35-6.17 3.14-9.3 3.86a22.18 22.18 0 0 0-4.77 1.87c-2.63 1.32-2.65 3.37-3.28 4.78-2.95-1.04-5.08 2.24-6.33 1.25-2.68-.7-3.65 1.8-6.23 1.57-2.22-.2-3.6 1.92-5.96.55-1.9-.92-.9-3.85-3.68-3.76-2.56.09-2.44 5.06-2.26 6.93.35 3.86 1.09 6.23 2.08 7.62 1.69 2.31 3.47 3 5.15 3.63 3 1.1 5.66.88 8.18.23.95-.26.88.04 1.57.16 1.15.2 1.62.65 3.42.1 2.59-.77 7.39.25 10.19 2.44 2.17 1.92 1.98 1.23 4.18 2.5 2.42 1.43 3.55 6.46 2.9 9.33-.66 2.96-.7 1.8-3.6 1.45-2-.25-5.33.28-7.55.1-3.44-.3-3.6-1.25-5.1-1.25-2.25 0 .18 1.36-3.42 1.48-2.55.09-.56-.81-2.98-.74-1.85.07-5.6.55-5.9 1.38-.36.4.07 1.16.51 1.44.12.78 1.2 1.4 1.2 2.2a3.23 3.23 0 0 1-2.12 2.92 3.05 3.05 0 0 0 3.42-.37c.65-.6 1-1.43 1.52-2.12.9-1.16 2.36-.74 3.38-1.6-.17.42-.26.88-.26 1.35a4.39 4.39 0 0 1 1.85-.7c1.02-.11 2.17.12 3-.5 0 .39.23.6.26.99.25-.33.74-.35 1.15-.35 1.27 0 2.54-.32 3.7-.92.11.41.04.94-.26 1.24 1.27-.09 1.85-.64 4-.34 3.37.44 4.09 1.55 7.02 1.55.46.27 1.27 2.07 1.04 3.76-.16 1.25-.85 2.43-2.42 2.8a3.3 3.3 0 0 1-3.15-.74c-.13 1.1.72 2.8 2.3 3.55a5.08 5.08 0 0 0 5.65-1.31c-.76 1.66-.95 5.06.6 6.84 1.53 1.77 3.86 2.42 5.6 1.75-1.67-.4-2.92-2.61-2.43-4.6.57-2.4 2.56-1.96 3.67-3.55 0 0-.92 2.56 1.7 4.85.82.71 3.15 1.6 4.12 1.13-1.25-.74-1.82-2.06-1.66-3.65.14-1.39 1.5-1.3 1.85-3.26.23 1.5 1.96 3.56 4.1 3.37-1.03-.83-1.38-1.94-.7-3.76.5-1.32 2.1-.88 2.25-3.44.74 2.28 2.5 3.79 4.12 3.5-2.08-4.06 1.04-6.5.97-9.32a4.94 4.94 0 0 0 2.95 2.65c.33.1.93.19 1.04-.14-2.58-3.67.4-4.22.23-8.68.26.71.51 1.43 1.02 1.99.5.55 1.34.87 2.03.57-1.78-4.25 1.46-4.9-.44-8.84.9.9 2.8.8 3.68-.79 0 0-1.3-.35-1.9-1.04-2.08-2.4.19-3.12-1.8-6.68.88 1.55 3.03 2.52 4.6 1-3.17-.37-1.46-3.28-5-7.67a3.43 3.43 0 0 0 3.8.88c-2.75-1.11-1.97-3.54-3.75-5.6.77.15 1.28-.04 2-.34.08-.05.43-.28.45-.37.03-.1-.02-.16-.09-.18-1.3-.14-2.3-.95-3.79-3.6-1.52-2.76-3.16-4.95-5.75-5.88l-11.64-6.07z"/>
    <path class="secondary" d="M76.14 101.4c-.16-.78 2-1.54 4.1-.74.4.14 1 .24 1.86.05.8-.16 2.6-.53 2.54-4.9.02-2.6-1.41-4.5-.88-4.62.74-.13 3.37 1.6 3.97 4.6.86 4.32-1.57 7.62-5.06 8.34-4.06.8-6.42-2.17-6.53-2.73z"/>
    <g stroke="none" fill="#000">
      <path d="M110.28 131.6a4.39 4.39 0 0 1 .35-1.07l.53-.92a5.45 5.45 0 0 0-.3 2.03zm5.98-.6c.12-.84.16-1.67.12-2.52.23.8.39 1.66.46 2.52zm5.73-3.98c-.05-.76.07-1.52.35-2.2-.07.72 0 1.44.23 2.09zm5.06-5.82c-.05-.53 0-1.04.02-1.52 0-.26.03-.51 0-.74-.02-.26-.02-.51-.18-.72.18.19.25.44.32.7l.14.73c.07.49.14 1 .25 1.46zm4.23-6.28a5.78 5.78 0 0 0 .27-1.09l.1-1.13a6.7 6.7 0 0 1 .2 2.33zm2.65-6.05a5.5 5.5 0 0 1-.55-1.18 3 3 0 0 1-.16-1.27c.07.41.23.8.44 1.15.2.35.46.67.74.95zm-1.82-21.19c.25.23.53.42.83.56.3.14.6.2.85.16v.58a1.9 1.9 0 0 1-1.03-.49 4.16 4.16 0 0 1-.65-.8zm1.38 5.94c0-.12-.06-.25-.18-.4-.1-.13-.23-.25-.37-.39l-.4-.44a.96.96 0 0 1-.2-.53c.05.19.18.33.32.44l.47.3c.16.1.32.19.48.33a1.39 1.39 0 0 1 .44.55zm.4 6.7a3 3 0 0 0-.3-.7l-.46-.64.66.46c.24.16.44.4.6.62zm-24.9 15.22a21.28 21.28 0 0 0 .3 2.54c.09.42.18.81.32 1.23.11.41.28.8.42 1.22a3.53 3.53 0 0 1-.86-1.06c-.2-.4-.37-.83-.46-1.27-.1-.44-.12-.9-.1-1.37.08-.43.2-.9.38-1.29zm-5.04 13.28-.14-.9-.18-.83-.26-.8-.3-.86c.3.14.53.37.72.64a2.77 2.77 0 0 1 .46 1.85 1.82 1.82 0 0 1-.3.9zm8.55-20.1c.14.51.23 1 .3 1.5l.09.77c.02.25.02.5.07.72a2.31 2.31 0 0 0 .6 1.17c.32.35.72.67 1.08 1.04a4.59 4.59 0 0 1-1.38-.69 2.77 2.77 0 0 1-.56-.6 2.02 2.02 0 0 1-.3-.8c-.04-.29-.04-.54-.04-.8l.02-.76c-.02-.53.02-1.04.12-1.54zm5.66-12.6a7.28 7.28 0 0 0 .34 2.88 9.52 9.52 0 0 0 1.32 2.61c-.46-.23-.86-.6-1.18-1.01a4.5 4.5 0 0 1-.9-2.98c.05-.54.16-1.04.42-1.5zm-3.98 30.83c-.04.44-.14.86-.2 1.25l-.24 1.2a6.8 6.8 0 0 0 0 2.4 2.47 2.47 0 0 1-.57-1.17 3.6 3.6 0 0 1 0-1.32 5.54 5.54 0 0 1 1.01-2.36zm3.88-5.45c.35.42.6.88.81 1.36a8.39 8.39 0 0 1 .65 3.12c0 .53-.05 1.06-.2 1.57l-.26-1.54-.28-1.5c-.12-.51-.2-1-.35-1.48l-.37-1.53zm4.88-7.74c.07.58.07 1.16.11 1.71.03.56.1 1.11.19 1.64.2 1.06.64 2.06 1.5 2.84a2.9 2.9 0 0 1-1.39-1.08 4.3 4.3 0 0 1-.69-1.64 6.4 6.4 0 0 1-.07-1.76c.07-.6.19-1.15.35-1.7zm3.23-10.07.16 2.61.17 1.27c.06.42.16.83.32 1.23.14.39.3.78.5 1.13.21.37.5.7.7 1.13.2.42.3.9.3 1.34 0 .46-.05.9-.14 1.32a5.32 5.32 0 0 0-.58-2.45c-.2-.35-.5-.67-.76-1.04a6.68 6.68 0 0 1-1-3.88c.03-.93.15-1.8.33-2.66zm3-2.29c.12.33.37.54.6.74.26.21.51.47.72.77.4.57.63 1.27.74 1.94.12.67.12 1.34.2 1.96.05.3.15.6.29.9a2.31 2.31 0 0 0 .6.74 1.62 1.62 0 0 1-.86-.58c-.23-.28-.37-.6-.48-.95-.21-.67-.23-1.33-.33-1.96a6.8 6.8 0 0 0-.55-1.8 5.4 5.4 0 0 0-.53-.8c-.19-.29-.4-.61-.4-.96zm-.04-8.38.67 1.32c.23.41.5.8.78 1.2a22.8 22.8 0 0 0 2 2.14 4.85 4.85 0 0 1-2.46-1.77 5.98 5.98 0 0 1-.74-1.37 4.39 4.39 0 0 1-.25-1.52zm.23-6.26.32.55.3.49.3.46.35.53c-.23.02-.46-.07-.67-.18a1.39 1.39 0 0 1-.48-.49c-.12-.2-.21-.41-.24-.65-.02-.25 0-.48.12-.71zm-2.52 5.43c-.02.3.07.53.16.76l.35.72a4.53 4.53 0 0 1 .4 1.64c-.24-.21-.4-.44-.54-.67l-.4-.74c-.1-.26-.2-.53-.25-.84-.04-.3.03-.66.28-.87zm-3.12 1.43a2.31 2.31 0 0 0-.83 1.48 5.31 5.31 0 0 0 .05 1.7c.04.26.16.45.34.63.19.16.44.3.67.42.49.2 1.07.25 1.6.14h.02c.14-.03.28.04.3.18v.05a1.99 1.99 0 0 1-.8 1.52 1.73 1.73 0 0 1-1.6.25c.53.03 1.04-.18 1.39-.5a1.7 1.7 0 0 0 .5-1.27l.33.23a3.1 3.1 0 0 1-1.94-.1c-.3-.11-.58-.3-.84-.53a2 2 0 0 1-.32-.41c-.1-.16-.14-.35-.14-.51l-.02-.46v-.46c.02-.3.07-.63.16-.93a1.96 1.96 0 0 1 1.13-1.43zm-1.66 16.93a11.78 11.78 0 0 0 .8-6.35 4.85 4.85 0 0 1 .56 1.6 6.05 6.05 0 0 1-.41 3.37c-.23.5-.53.99-.95 1.38zm-3.19-7.3c.21.33.35.67.44 1.02l.26 1.08c.06.37.09.77.06 1.14-.02.39-.06.76-.2 1.13l-.56-.19c.1-.32.16-.64.19-.99a7.8 7.8 0 0 0-.14-2.1 4.23 4.23 0 0 1-.1-1.09zm-9 18.69c-.08.6-.26 1.18-.51 1.73a8 8 0 0 1-2.2 2.8 5.54 5.54 0 0 1-1.5.9l-.02-.05 1.27-1.15a8.25 8.25 0 0 0 2.4-4.28z"/>
      <path d="M113.14 125.8h-.04a4.71 4.71 0 0 1-3.86-3.84l.67-.11a4.16 4.16 0 0 0 2.43 3.02c-.44-.94-.3-2.12.06-3 .24-.55.81-1.3 1.41-2.06.67-.85 1.41-1.84 1.6-2.42.25-.83.27-1.34.3-1.69.02-.39.04-.71.32-1.13.07-.1.16-.14.26-.14.11 0 .2.05.27.12.53.64 1.3 1.01 2.17 1.04.77.02 1.5-.23 2.08-.7l-.32-.13c-.58-.26-1.18-.51-1.69-1a4.27 4.27 0 0 1-1.22-3c.04-.79.4-1.46.71-2.1.21-.42.42-.79.54-1.2l.64.2c-.14.47-.37.88-.57 1.3-.33.62-.63 1.2-.65 1.82-.05.81.4 1.87 1.01 2.47.42.42.93.63 1.48.86l.81.37c.1.04.16.14.19.25a.3.3 0 0 1-.1.28 3.83 3.83 0 0 1-2.93 1.22 3.6 3.6 0 0 1-2.3-.9l-.03.37c-.03.4-.05.93-.33 1.85-.2.72-.97 1.71-1.68 2.66a12.52 12.52 0 0 0-1.32 1.91c-.41.93-.46 2.3.35 3.08.11.09.14.25.07.39a.35.35 0 0 1-.33.2z"/>
    </g>
    <g>
      <path d="M111.43 73.61c3.15-8.94 14.1-13.7 14.44-13.42.35.28-.2 1.55.72 5.18.37 1.45 1.7 4.76 2.24 6.7 2.29 8.96-.81 12.47-.81 12.47"/>
      <g stroke="none" fill="#000">
        <path d="M126.31 86a4.89 4.89 0 0 0 1.46-1.64l.46.3A4.92 4.92 0 0 1 126.3 86zm-3.79 3.14c.4.07.76 0 1.13-.12.37-.11.72-.25 1.07-.41l.18.53c-.4.09-.78.14-1.2.16-.4.02-.8-.02-1.18-.16zm-9.03-1.92a6.08 6.08 0 0 1-1.39-2.93c-.2-1.09-.23-2.2-.16-3.28.16-2.2.72-4.35 1.41-6.4a16.29 16.29 0 0 1 5.78-7.83c.9-.63 1.84-1.18 2.86-1.55a15.18 15.18 0 0 0-4.99 4.04 17.32 17.32 0 0 0-3.12 5.55 36.43 36.43 0 0 0-1.48 6.26 12.45 12.45 0 0 0 0 3.2 6.07 6.07 0 0 0 1.09 2.94zm6.26-13.28c.1.46.18.92.23 1.38l.05.7.02.71c0 .95-.16 1.9-.4 2.82-.15.46-.27.9-.48 1.34l-.14.32-.16.33-.16.32-.18.3a7.16 7.16 0 0 1-1.94 2.06 11.71 11.71 0 0 0 2.54-4.8c.11-.45.23-.88.3-1.32l.11-.67.1-.67.04-.35.02-.35.05-.69c-.02-.5-.05-.97 0-1.43zm5.01-7.6.9 2.12a60.98 60.98 0 0 1 1 3.33c.09.37.18.74.23 1.13l.18 1.16.05.27.02.3.05.58c.07.76.04 1.55.02 2.33l-.11 1.16c-.05.4-.14.76-.21 1.15l-.3 1.14-.19.55-.09.28-.11.28c-.3.71-.7 1.38-1.23 1.96.42-.65.72-1.34.95-2.06l.09-.27.07-.28.14-.56.2-1.1c.24-1.48.26-3 .14-4.5l-.04-.56-.02-.28-.05-.28-.16-1.13-.19-1.1-.2-1.12-.56-2.21c-.16-.81-.37-1.53-.58-2.3z"/>
        <path d="M117.4 93.46a11.9 11.9 0 0 0 4.29-1.41 6.84 6.84 0 0 0 2.43-2.27l.25-.48.18-.49c.03-.09.1-.16.19-.18.4-.14.76-.4 1.1-.7a7.48 7.48 0 0 0 1.65-2.14 2.1 2.1 0 0 0 .23-1.2l.55-.12a2.5 2.5 0 0 1-.27 1.55 6.47 6.47 0 0 1-1.8 2.33 4.16 4.16 0 0 1-1.32.79l.18-.19-.23.6-.3.54a7.92 7.92 0 0 1-2.65 2.35 9.4 9.4 0 0 1-4.5 1.11zm-7.35-10.19c-.19-.8-.21-1.64-.19-2.47.03-.83.07-1.64.17-2.47a21.64 21.64 0 0 1 1.15-4.83l.53.18c-.25.77-.5 1.53-.7 2.34l-.27 1.18c-.07.39-.16.78-.2 1.2-.15.8-.21 1.61-.28 2.42l-.14 2.45z"/>
      </g>
    </g>
    <g>
      <g>
        <g stroke="none" fill="#000">
          <path d="M89.21 82.76a3.44 3.44 0 0 1-.11-1.61l.07-.21.06-.21.24-.37c.18-.23.43-.4.69-.53a4.5 4.5 0 0 1 1.64-.32c.55 0 1.08.04 1.62.11 1.06.16 2.08.4 3.11.67l1.53.4c.5.13 1.02.25 1.55.32-.53.04-1.07 0-1.6-.05l-1.57-.23-1.55-.28-1.54-.25c-.51-.07-1.02-.14-1.53-.14-.5-.02-1.01.02-1.45.18a1.57 1.57 0 0 0-.97.95c-.21.51-.21 1.04-.19 1.57zm-6.33 4.18a3.83 3.83 0 0 0-1.1-1.34 3.43 3.43 0 0 0-.72-.46c-.26-.14-.53-.23-.79-.34l.23-.54c.28.17.56.3.79.51a4.46 4.46 0 0 1 1.6 2.17zm-5.61 2.38c-.1-.39-.23-.76-.44-1.1-.1-.2-.2-.33-.32-.5l-.42-.4a4.34 4.34 0 0 0-2.03-.98l.11-.57a4.78 4.78 0 0 1 2.1 1.31c.14.14.26.33.38.49.09.18.2.34.27.53.21.44.28.83.35 1.22zM64.06 91.8c.23-.5.27-.99.3-1.5a11.2 11.2 0 0 0-.14-2.26 2.12 2.12 0 0 0-.26-.67c-.07-.1-.13-.19-.2-.2-.03 0-.07-.03-.1 0l-.11.08c-.14.19-.19.47-.23.72-.05-.25-.1-.55.04-.83.03-.07.1-.14.16-.21.07-.05.19-.1.3-.07.21.05.33.16.44.26a3.46 3.46 0 0 1 .65 1.57l.07.83c0 .27 0 .55-.05.83-.04.28-.13.55-.27.8-.17.28-.35.54-.6.65z"/>
          <path d="M63.46 84.77c.23-.2.55-.28.87-.23a1.57 1.57 0 0 1 1.04.6l.14.19.12.2.11.21c.14.28.21.58.28.86.14.57.18 1.15.2 1.73l.08 1.7c.02 1.14.07 2.27.2 3.38.14 1.11.4 2.22.86 3.26a9.7 9.7 0 0 1-1.16-3.21c-.2-1.13-.3-2.27-.39-3.4-.1-1.13-.11-2.26-.34-3.32-.07-.26-.14-.51-.26-.74l-.1-.17-.08-.16-.23-.27c-.3-.4-.74-.6-1.34-.63Z"/>
        </g>
        <path fill="#F6F6F6" stroke-width="0.513" d="M94.22 89.16c.72.65 6.15.07 6.75-3 .2-1.18-.7-1.67-1.92-1.69-.83.02-4.1.3-5.91.93a4.24 4.24 0 0 0 1.08 3.76z"/>
        <g stroke="none" fill="#000">
          <path d="M97.02 95.77c.12-.07.18-.12.25-.12l.19.03.14.13.04.28c-.11.07-.18.12-.25.12l-.19-.03-.13-.14c-.05-.06-.07-.13-.05-.27zm1.36-.49c.1-.09.21-.11.3-.14l.23.05.17.16c.04.07.06.16.06.3-.11.07-.23.07-.3.1a.46.46 0 0 1-.2-.05.31.31 0 0 1-.17-.14l-.09-.28zm1.32-.8a.55.55 0 0 1 .4-.14.76.76 0 0 1 .57.32c.07.1.11.2.14.37-.16.04-.28.02-.4.02l-.27-.1-.23-.18-.21-.3zm1.45-.65a.7.7 0 0 1 .42-.12.7.7 0 0 1 .37.1c.12.04.2.13.3.23s.16.23.16.39H102l-.33-.1-.27-.18c-.07-.1-.17-.18-.24-.32zm4.88-1.2c.1-.1.2-.12.3-.14l.23.04.16.17c.05.06.07.16.07.3-.11.06-.23.06-.3.09a.46.46 0 0 1-.2-.05.31.31 0 0 1-.17-.14l-.1-.27zm-1.71.07a.55.55 0 0 1 .4-.14.76.76 0 0 1 .57.32c.07.1.11.2.14.37-.16.05-.28.02-.4.02l-.27-.09-.23-.18-.21-.3zm-1.78.46a.7.7 0 0 1 .42-.12.7.7 0 0 1 .37.1c.11.04.2.13.3.23s.16.23.16.39h-.42l-.32-.1-.28-.18-.23-.32zm-18.18 24.4a2.54 2.54 0 0 1-1.06 1.2c-.46.3-1.02.45-1.55.52s-1.09.05-1.6-.02c-.25-.02-.5-.12-.76-.16-.25-.07-.5-.16-.73-.28l.78-.02h.76c.51 0 1-.05 1.48-.1a4.39 4.39 0 0 0 2.68-1.15zM95.45 84.8c.55-.03.1.57.14 1.7.02.9.55 1.85.16 1.88-.42.02-1.34-.33-1.53-1.07-.06-.23-.09-.6-.11-.85-.05-1.13.8-1.64 1.34-1.66zm6.35 25.43a4.39 4.39 0 0 0-.28-.83l-.39-.79a8.6 8.6 0 0 0-1-1.4c-.36-.47-.75-.86-1.17-1.3l-.65-.63-.64-.62a8.73 8.73 0 0 1 1.57.9c.48.37.94.79 1.34 1.27.39.49.71 1.02.94 1.6a4.02 4.02 0 0 1 .28 1.8zM88.01 90.29c-.18-.44-.3-.92-.37-1.38-.07-.47-.1-.95-.07-1.44.02-.48.1-.97.26-1.43.16-.46.39-.9.74-1.24-.14.46-.24.9-.3 1.33-.07.44-.1.9-.12 1.37-.05.92-.05 1.85-.14 2.8zm1.48-3.8-.12.85c-.02.27-.02.55.03.83a8.78 8.78 0 0 1-.19 3.5 4.39 4.39 0 0 1-.37.84 1.69 1.69 0 0 1-.62.65c.16-.23.25-.51.32-.79l.19-.8.2-1.67c.07-.55.05-1.1.07-1.7.03-.31.07-.61.17-.89.06-.3.18-.57.32-.83zm4.78 2.93-.48.09-.49.14-.97.39c.28-.23.55-.44.86-.62l.46-.28.5-.23z"/>
        </g>
      </g>
      <g stroke="none" fill="#000">
        <path d="M90.57 82.62a1.34 1.34 0 0 0-.3.93c0 .32.1.64.21.94a1.55 1.55 0 0 0 .53.72c.23.16.53.2.86.19.62-.03 1.27-.26 1.9-.47a12.47 12.47 0 0 1 .99-.3l.5-.11.51-.1a22.3 22.3 0 0 1 4.11-.34 11 11 0 0 1 4.05.74c-1.34-.3-2.68-.35-4.05-.3a34 34 0 0 0-4.02.46l-.5.1-.49.08-.97.28c-.65.21-1.34.42-2.08.42a1.85 1.85 0 0 1-1.08-.33 1.7 1.7 0 0 1-.63-.94 2.77 2.77 0 0 1-.09-1.07c.12-.34.28-.69.55-.9z"/>
      </g>
      <g>
        <path class="secondary" d="M83.48 116.33c-.04-1.09-4.66-5.18-7.85-16.8-2.06-8.82-1.83-18.4-.86-22.82.14-.65.44-2.63-1.61-.18-4.05 4.73-3.4 17-1.64 26.2 1.75 8.77 6.16 14.38 6.16 14.38 0 .05.81.88 2.5.79 3.23-.19 3.3-1.39 3.3-1.57z"/>
        <g stroke="none" fill="#000">
          <path d="M80.48 113.95a15.94 15.94 0 0 1-2.29-2.98 34.7 34.7 0 0 1-1.75-3.3 49.9 49.9 0 0 1-3.9-14.44c-.14-1.25-.21-2.5-.21-3.75.02-1.24.11-2.51.41-3.71a18.2 18.2 0 0 0-.23 3.71 40.33 40.33 0 0 0 .92 7.4 63.62 63.62 0 0 0 1.94 7.18 49.25 49.25 0 0 0 2.98 6.84 18.48 18.48 0 0 0 2.13 3.05z"/>
        </g>
      </g>
    </g>
    <g stroke="none" fill="#000">
      <path d="m79.1 120.5.41-.06.42.04c-.24.12-.4.3-.51.49zm9.56.26v-.44c0-.14.02-.3.07-.41a2.93 2.93 0 0 0 .46.64zm-4.95-.11c.35-.05.7-.12.97-.37-.06.18-.16.34-.3.5l-.43.42zm15.94 2.17c.83-.21 1.64 0 2.27-.23a1.64 1.64 0 0 0 .78-.6l.07-.12.1-.14.22-.23c.14-.14.28-.25.35-.37.1-.16.19-.3.23-.46l.1-.53.09-1.13.02-1.16c.02-.4.07-.78.23-1.13-.16.76.02 1.5.02 2.29l-.02 1.17-.07.6c-.04.24-.14.42-.25.58-.12.21-.28.35-.42.49l-.18.18-.07.1-.1.13a2.31 2.31 0 0 1-.99.81c-.41.16-.85.16-1.22.16-.4 0-.74.03-1.09.12z"/>
    </g>
  </g>
</svg>
