<svg xmlns="http://www.w3.org/2000/svg" fill="#d7374a" stroke="#000" viewBox="50 50 200 200">
  <metadata source="http://wappenwiki.org" license="https://creativecommons.org/licenses/by-nc-sa/3.0"/>
  <g id="boat" stroke-width=".35">
    <path class="secondary" d="M136.3 64.6c-1.7-.16-3.2 1.08-4.9.9-1.35.03-2.5-.7-3.64-1.32a4.52 4.52 0 00-3.9-.45c-1.04.33-1.97 1.07-3.06 1.17-.91-.06-1.66-.74-2.52-1.03-1.35-.59-2.77-1.18-4.28-.97-1.34.03-2.6.48-3.87.88-1.9.71-3.85-.67-5.53-.78s-3.74-.8-4.52.02l.04 5.62c.23.42.6.3 1.16-.04a7.66 7.66 0 012.62-.1c1.03.1 2.04.52 3.03.71 1.53.26 3.1.13 4.53-.46 1.31-.45 2.65-1.31 4.09-1 1.29.5 2.62.89 3.96 1.2a6.09 6.09 0 004.56-1.21c.66-.3 1.21-1.06 2-.81.88.32 1.68.8 2.62.95 1.97.48 4.16.1 5.79-1.13 1.04-.58 2.09-1.28 3.34-1.15.56.04 1.25.79.48-.2-.45-.57-1.4-.74-2-.8z"/>
    <path stroke-width=".25" d="M67.2 116.2l32.99-48.57-.08 1.62-31.96 47.3 11.99 3.58 19.98-51.49v2.06l-19.2 49.6"/>
    <path stroke-width=".25" d="M100.2 68.09c2.03 3.25 32.14 47.66 32.14 47.66l-.7.36-31.53-46.86 22.2 49.92-1-.09-21.17-47.97"/>
    <path d="M128.1 128.1l-2.8 1 1.7 6.5 3-1z"/>
    <path d="M98.6 126.1l.8-64h1.3l.9 64z"/>
    <path d="M100 60.4c.3 0 1 .5 1 1.5s-1.9 1.2-2 .1c0-1 .7-1.6 1-1.6zm.1 79.3c-26.6 0-27.6-7.7-27.6-7.7l-6.9-20s2.2 10 34.5 10 34.5-10 34.5-10l-6.9 20s-1 7.7-27.6 7.7z"/>
    <g fill="none">
      <path d="M68.6 119.5c2.3 1 14 5.9 31.4 5.9a82 82 0 0031.6-5.9"/>
      <path d="M69.3 122.6a80.4 80.4 0 0030.7 5.7c15.8 0 27-4 30.7-5.6"/>
      <path d="M70.6 126.1c4.4 1.8 15 5.3 29.4 5.3 14.3 0 24.9-3.4 29.5-5.2"/>
      <path d="M72 129.5a80 80 0 0028 4.9c13 0 23-3 28-4.8m-53.5 3.7a85.7 85.7 0 0051 0m-17.3-2.3l-.3-2.8m1.1-.2l.2 3m-.6 5.8l-.2-2.8m1-.1l.2 2.8m-2-11.6l-.2-2.9m1-.1l.3 3m7.1 7.9l-.5-3m1.1-.1l.4 2.9m-2-5.6l-.4-3m1-.1l.5 2.9m6.7 1.5l-.7-2.8m1-.3l.7 2.9m.4 5.6l-.7-2.7m1-.2l.6 2.6m-3.7-10.6l-.7-3m1-.2l.7 2.9m6 1l-.8-2.6m1-.3l.8 2.7M92 131l.3-2.8m-1.1-.2l-.2 3m.6 5.8l.2-2.8m-1-.1l-.2 2.8m1.9-11.6l.3-2.9m-1.1-.1l-.2 3m-7.2 7.9l.5-3m-1-.1l-.5 2.9m2-5.6l.5-3m-1-.1l-.5 2.9m-6.7 1.5l.7-2.8m-1-.3l-.7 2.9m-.3 5.6l.6-2.7m-.9-.2l-.7 2.6M79 123l.7-3m-1-.2l-.7 2.9m-6 1l.8-2.6m-1-.3l-.8 2.7m28.6 10.9v-3m1 .1v2.9m-1-6v-2.9m1 0v3"/>
    </g>
    <path d="M61.8 102.8s1.6.4 2.7 1.9c1 1.2 1.3 3.2 1.3 3.2s1.7 10.1 4.8 18c2.8 7.5 7 10.6 7 10.6s-5-2.3-7.2-5.3c-3.9-5.3-8.6-28.4-8.6-28.4zm76.6 0s-1.6.4-2.8 1.9c-1 1.2-1.2 3.2-1.2 3.2s-1.7 10.1-4.8 18c-2.8 7.5-7 10.6-7 10.6s5-2.3 7.2-5.3c3.9-5.3 8.6-28.4 8.6-28.4z"/>
    <path d="M133.2 116.3S119.4 123 100 123c-19.4 0-32.9-6.6-32.9-6.6s-.5-.2-.5-1c0-.6.5-.8.5-.8s13.6 6.6 33 6.6 33-6.6 33-6.6.4.3.4 1c-.03.25-.1.55-.3.7z"/>
  </g>
</svg>
