<svg xmlns="http://www.w3.org/2000/svg" fill="#d7374a" stroke="#000" viewBox="50 50 200 200">
<metadata source="https://commons.wikimedia.org/wiki/File:Coat_of_Arms_of_Spanish_Army_Paratrooper_Brigade_Anti-Tank_Defense_Company.svg" author="Heralder" license="https://creativecommons.org/licenses/by-sa/4.0"/>
  <g id="bone" stroke-width=".6">
    <path d="m 106,136 c 0,3 -2,5 -5,4 -1.4,-1 -5.3,1 -7.4,-1 -1.3,-4 3.8,-3 3.3,-12 -0.3,-6 -1.6,-11 -1.9,-16 a 704,704 0 0 1 1.9,-38 c 0,-2.3 -3.3,-5.5 -4.4,-8.2 -0.2,-2.9 2.7,-5.8 5.1,-4.1 1.4,0.2 3.4,-2.4 4.4,-1.5 3,0.1 4,3.2 3,5.4 -1,3.4 -3,4 -2,10.9 0,14.8 -1,39.5 0,54.5 2,3 3,5 3,6 z"/>
  </g>
</svg>
