<svg xmlns="http://www.w3.org/2000/svg" fill="#d7374a" stroke="#000" viewBox="50 50 200 200">
<metadata source="https://commons.wikimedia.org/wiki/File:H%C3%A9raldique_Meuble_Livre.svg" author="Tzeentch" license="http://artlibre.org/licence/lal/en/" />
  <g id="bookClosed2" stroke-width="2" transform="translate(72 63.5) scale(0.16)">
    <path d="M18.14 7.35c-8.72 16.5 18.96 25.19 38.1 35.71h293.65v414.29H49.09c0-1.48-35.55-2.53-46.03-30.16-.19-3.45 1.22-5.94 4.76-7.14v-66.67c-4.2-2.37-5.46-6.51-5.97-11.11 1.05-4.83 2.4-7.48 5.97-8.2V271.3c-4.2-3.86-7.02-7.49-6.8-12.08.19-6.3 3.35-9.03 7.6-10.08v-59.76c-3.04-1.94-6.27-3.67-7.14-11.4.2-6.42 4.12-8.2 7.14-11.1v-61.12c-9.9-6.58-6.55-15.93 3.17-19.83l-.12-61.78C8.14 22.12 6.6 18.37 7.03 13.7c.43-4.67 3.2-12.13 8.73-12.7h305.56v42.06"/>
    <path d="M10.95 423.1c10.58 17.84 26.28 20.07 44.05 24.97"/>
    <path d="M8.28 353.09c11.74 13.2 29.78 18.67 46.02 22.73"/>
    <path d="M8.14 341.16c11.02 14.48 30.35 19.8 48.55 26.38"/>
    <path d="M7.58 271.3c22.29 16.28 33.6 17.01 47.42 21.32"/>
    <path d="M8.14 257.55c22.4 21.57 32.73 20.06 46.86 25.81"/>
    <path d="M8.7 189.36c12.05 10.6 28.53 17.4 45.74 23.57"/>
    <path d="M7.58 176.45C20.66 190 37.5 197.91 55 204.8"/>
    <path d="M8.7 105.74c14.06 12.78 28.7 18.96 43.5 23.57"/>
    <path d="M8.42 93.12C23.2 111.5 41 116.37 52.48 120.33"/>
    <path d="M12.07 24.37C23.57 35.61 37.61 43.9 53.6 49.9"/>
    <path d="M47.43 56.04c5.18 4.66 7.3 2.64 10.38 3.09m-10.38 6.91c5.18 4.66 7.3 2.64 10.38 3.09m-10.38 6.91c5.18 4.66 7.3 2.64 10.38 3.09m-10.38 6.91c5.18 4.66 7.3 2.64 10.38 3.09m-10.38 6.91c5.18 4.66 7.3 2.64 10.38 3.09m-10.38 6.91c5.18 4.66 7.3 2.64 10.38 3.09m-10.38 28.91c5.18 4.66 7.3 2.64 10.38 3.09m-10.38 6.91c5.18 4.66 7.3 2.64 10.38 3.09m-10.38 6.91c5.18 4.66 7.3 2.64 10.38 3.09m-10.38 6.91c5.18 4.66 7.3 2.64 10.38 3.09m-10.38 6.91c5.18 4.66 7.3 2.64 10.38 3.09m-10.38 6.91c5.18 4.66 7.3 2.64 10.38 3.09m-10.38 28.91c5.18 4.66 7.3 2.64 10.38 3.09m-10.38 6.91c5.18 4.66 7.3 2.64 10.38 3.09m-10.38 6.91c5.18 4.66 7.3 2.64 10.38 3.09m-10.38 6.91c5.18 4.66 7.3 2.64 10.38 3.09m-10.38 6.91c5.18 4.66 7.3 2.64 10.38 3.09m-10.38 6.91c5.18 4.66 7.3 2.64 10.38 3.09m-10.38 26.91c5.18 4.66 7.3 2.64 10.38 3.09m-10.38 6.91c5.18 4.66 7.3 2.64 10.38 3.09m-10.38 6.91c5.18 4.66 7.3 2.64 10.38 3.09m-10.38 6.91c5.18 4.66 7.3 2.64 10.38 3.09m-10.38 6.91c5.18 4.66 7.3 2.64 10.38 3.09m-10.38 6.91c5.18 4.66 7.3 2.64 10.38 3.09m-10.38 30.91c5.18 4.66 7.3 2.64 10.38 3.09m-10.38 6.91c5.18 4.66 7.3 2.64 10.38 3.09m-10.38 6.91c5.18 4.66 7.3 2.64 10.38 3.09m-10.38 6.91c5.18 4.66 7.3 2.64 10.38 3.09m-10.38 6.91c5.18 4.66 7.3 2.64 10.38 3.09m-10.38 6.91c5.18 4.66 7.3 2.64 10.38 3.09"/>
    <path d="M56.83 42.89C13.06 24.14 13.95 15.49 17.97 7.53h295.46c-.48 1.08-.9 2.12-1.26 3.12a30.52 30.52 0 00-1 3.34c-.4 1.76-.58 3.37-.57 4.87 0 1.84.3 3.5.85 5a15.3 15.3 0 003.04 5 28.05 28.05 0 006.08 4.94 91.38 91.38 0 007.3 4.01c3.22 1.64 6.5 3.25 9.42 5.08H56.83z"/>
    <path d="M329.67 38.78H48.2m272.11-5H38.67m275.7-5H29.68m281.6-5H22.68m288-5h-292m292-4h-294m295-4h-294"/>
    <path d="M77.07 63.56h250.32v371.23H77.07V63.56zm13.79 13.43H313.6v344.36H90.86V77z"/>
    <path d="M306.17 43.3c-4.89 9.5-.63 14.7 7.78 14.49-5.58 14.58 3.69 26.77 18.74 19.8 4.12 9.27 13.12 9.6 15.56 1.06"/>
    <path d="M306.17 456.22c-4.89-9.5-.63-14.71 7.78-14.5-5.58-14.57 3.69-26.77 18.74-19.79 4.12-9.27 14.36-8.72 16.8-.18"/>
    <path d="M340.82 58.85a7.78 7.78 0 11-15.56 0 7.78 7.78 0 1115.56 0z"/>
    <path d="M340.82 436.85a7.78 7.78 0 11-15.56 0 7.78 7.78 0 1115.56 0z"/>
  </g>
</svg>
