<svg xmlns="http://www.w3.org/2000/svg" fill="#d7374a" stroke="#000" viewBox="50 50 200 200">
<metadata source="https://commons.wikimedia.org/wiki/File:1129_%D0%97%D0%A0%D0%9F_%D0%BA.svg" author="Inkscape'r" license="https://creativecommons.org/publicdomain/zero/1.0"/>
  <g id="bowWithThreeArrows" stroke-width=".44">
    <path d="M98.14 132.74s.29.33.41.35c.13 0 .24.11.46 0l10-9.57 19.03-19.12c.42-.43-.15-1.07-.6-.62-6.08 6.09-12.27 12.28-18.34 18.39-.2.19-10.77 10.37-10.96 10.57z"/>
    <path class="tertiary" d="M105.59 116.5l-3.74.44.92 6.02z"/>
    <path class="secondary" d="M97.96 132.18V74.75l-4.4 3.3 5.26-14.37 5.25 14.37-4.39-3.3v57.4z"/>
    <path class="tertiary" d="M97.92 120.81v-5.96l-4 2.95z"/>
    <path d="M89.63 86.94a18.02 18.02 0 00-4.8-1.33 11 11 0 00-2.16-.12c.1.12.1.25.1.37v3.24c5.48.11 6.63 2.91 10.87 3.29v-4.02c-2.22-.59-2.7-.88-4.01-1.44zm-8.52-1.31c-.75 0-1.72.2-2.34.36l1.45 3.28.7-.15h.15V85.63zm-3.88 1.02c-.56.33-1.17.83-1.49 1.18-1.13 1.18-2.86 2.9-2.86 7.35 0 .85-.28 2.22-.4 3.51l1.72.54c.63-3.18 1.13-7.75 4.4-9.48zm-4.9 13.15a8.5 8.5 0 01-1.17 2.98l1.14 1.06a11.7 11.7 0 001.53-3.53z"/>
    <path d="M94.83 95.03a.87.87 0 01-.88-.87v-5.48c0-.48.4-.87.88-.87s.87.4.87.87v5.48c0 .48-.4.87-.87.87z"/>
    <path d="M81.92 91.13a.69.69 0 01-.66-.7v-4.38c0-.38.3-.69.66-.69.37 0 .67.31.67.69v4.38c0 .4-.3.7-.67.7z"/>
    <path d="M75.37 100.27c-.07.2-.33.27-.57.19l-2.77-.9a.41.41 0 01-.25-.56c.07-.2.33-.26.57-.19l2.76.91a.4.4 0 01.26.55z"/>
    <path d="M68.57 105.22l-.15.09c-.4.13-.85-.31-1.06-.22-.47.18-.33.97-.07 1.33.85 1.09 2.26 1.42 3.2.7z"/>
    <path class="tertiary" d="M109.26 120.56l-2.25-3.5-5.7 12.75 2.79 7.53z"/>
    <path class="tertiary" d="M104.89 132.56l-5.2-9.06v-8.66l3.16 2.26z"/>
    <path d="M93.63 92.54c-4.43-.34-5.45-3.17-10.85-3.26v1.48a9.03 9.03 0 015.35 1.44c1.16.75 3.22 1.93 5.55 2.09zm-12.56-3.18l-.5.1.5 1.14h0zm-2.38.6a6.66 6.66 0 00-2.57 2.8c-1 1.98-1.37 4.52-1.78 6.51l.78.26c.32-1.43.5-2.7.89-4.19a5.7 5.7 0 013.3-3.98zm-4.68 10.4a13.47 13.47 0 01-1.6 3.6l.67.66a14.37 14.37 0 001.74-3.96z"/>
    <path d="M71.1 102.96l1.98 1.93a.44.44 0 010 .6.44.44 0 01-.61.02l-1.98-1.93a.44.44 0 01-.01-.62.44.44 0 01.62 0z"/>
    <path d="M69.32 104.56l2 1.95a.44.44 0 010 .6.44.44 0 01-.6 0l-2-1.91a.44.44 0 010-.62.44.44 0 01.62 0z"/>
    <path d="M96.8 95.03a.87.87 0 01-.86-.87v-5.48c0-.48.39-.87.87-.87.47 0 .87.4.87.87v5.48c0 .48-.4.87-.87.87z"/>
    <path class="tertiary" d="M93.48 137.25l-3.65-12.43 6.07 6.1z"/>
    <path class="tertiary" d="M90.54 116.9l-2.31 3.6.27 1.67 7.6 7.52z"/>
    <path class="tertiary" d="M96.05 117.19l-4.05-.77 5.57 12.9 7.32 3.24z"/>
    <path d="M108.05 86.94a17.52 17.52 0 014.79-1.33 11.1 11.1 0 012.16-.12c-.11.12-.11.25-.11.37v3.24c-5.47.11-6.62 2.91-10.86 3.29v-4.02c2.22-.59 2.7-.88 4.02-1.44zm8.52-1.31c.73 0 1.65.16 2.26.33l-1.29 2.98-.15.33c-.14 0-.51-.11-.64-.11h-.14v-3.3-.23zm3.77 1.02c.58.35 1.25.82 1.59 1.18 1.14 1.18 2.87 2.9 2.87 7.35 0 .85.27 2.22.39 3.51l-1.72.54c-.63-3.19-1.19-7.75-4.5-9.47zm5 13.15c.22 1.13.6 2 1.18 2.98l-1.14 1.06a11.78 11.78 0 01-1.54-3.53z"/>
    <path d="M102.85 95.03c.47 0 .86-.39.86-.87v-5.48a.87.87 0 00-1.74 0v5.48c0 .48.39.87.88.87z"/>
    <path d="M115.76 91.13c.36 0 .66-.3.66-.7v-4.38a.69.69 0 00-.66-.69.67.67 0 00-.67.69v4.38c0 .4.29.7.67.7z"/>
    <path d="M122.3 100.27c.08.2.34.27.58.19l2.77-.9c.23-.08.33-.35.25-.56-.09-.2-.33-.26-.58-.19l-2.76.91a.41.41 0 00-.26.55z"/>
    <path d="M129.1 105.22l.15.09c.4.13.86-.31 1.07-.22.46.18.33.97.07 1.33-.86 1.09-2.27 1.42-3.2.7z"/>
    <path d="M104.03 92.54c4.44-.34 5.46-3.17 10.87-3.26v1.48a9.04 9.04 0 00-5.36 1.44c-1.16.75-3.22 1.93-5.55 2.09zm12.58-3.18l.44.05-.44 1.01zm2.32.6c1.1.6 2.05 1.64 2.63 2.8 1 1.98 1.35 4.52 1.77 6.51l-.78.26c-.31-1.43-.5-2.7-.89-4.19a5.7 5.7 0 00-3.34-3.98zm4.73 10.4c.39 1.27.9 2.54 1.6 3.6l-.67.66a14.37 14.37 0 01-1.74-3.96z"/>
    <path d="M126.58 102.96l-1.99 1.93a.44.44 0 000 .6c.17.18.44.18.61.02l1.99-1.93a.44.44 0 000-.62.44.44 0 00-.61 0z"/>
    <path d="M126.36 106.5a.44.44 0 000 .62c.15.18.44.18.6 0l2-1.92a.45.45 0 000-.62.44.44 0 00-.62 0c-.64.6-1.33 1.28-1.98 1.93z"/>
    <path d="M100.87 95.03c.48 0 .87-.39.87-.87v-5.48a.87.87 0 00-1.75 0v5.48c0 .48.4.87.88.87z"/>
    <path class="secondary" d="M103.83 124.28l20.77-47.35 2.7 4.78.97-15.27-10.6 11.05 5.36-1.25-19.56 45.16z"/>
    <path class="secondary" d="M96.1 129.7L72.92 76.75l-2.7 4.77-.96-15.25 10.58 11.03-5.35-1.25 24.28 56.08z"/>
    <path d="M98.23 132c.43.3-.31 1.06-.61.63l-28.05-28.2c-.45-.45.08-1.12.6-.62 9.33 9.36 18.71 18.8 28.06 28.2z"/>
  </g>
</svg>
