<svg xmlns="http://www.w3.org/2000/svg" fill="#d7374a" stroke="#000" viewBox="50 50 200 200"><metadata license="https://creativecommons.org/licenses/by-nc-sa/3.0" source="http://wappenwiki.org/images/1/1e/Buttler.svg"/><g id="bucket" stroke-width=".34"><path d="M122.28 81.04c1.67-3.06 4.66-5.46 8.17-5.9 4.16-.7 8.59 1.45 10.54 5.2 2.32 4.4 1.4 9.93-1.19 13.99-2.88 4.64-7.9 7.12-12.34 9.99-3.5 2.42-7.1 4.91-9.53 8.47-5.41 4.25-3.55-.27-1.73-2.09 2.89-4.1 7.01-7.14 10.91-10.22 3.75-2.74 7.9-5.7 9.37-10.33.42-1.17.61-2.68.61-3.81 0-2.62-.65-5.54-3.1-6.93a7.14 7.14 0 00-7.97 1.15c-1.64 1.5-2.66 3.5-3.58 5.48z" class="secondary"/><path d="M122.28 87.2c1.62-2.98 4.5-5.34 7.92-5.86 4.17-.79 8.7 1.28 10.72 5.03 2.34 4.31 1.53 9.79-.96 13.84-2.64 4.47-7.3 7.03-11.58 9.67-3.88 2.6-7.87 5.28-10.56 9.2-5.35 4.1-3.37-.52-1.67-2.15 2.65-3.82 6.42-6.67 10-9.58 3.93-2.96 8.49-5.82 10.2-10.7.65-1.72.83-3.6.68-5.34-.15-2.4-1.16-4.95-3.5-5.97a7.23 7.23 0 00-7.76 1.61c-1.5 1.47-2.47 3.37-3.34 5.26-16.92 7.83-6.67 2.91-.15-5.02z" class="secondary"/><path d="M99.81 67.15a2.72 2.21 0 00-2.79 2.2c0 1.11-1.1 1.73-2.46 1.77-13.88.3-24.75 2.8-24.75 6.22 0 .21 8.67 49.64 8.67 49.64.72 3.38 8.28 5.74 18.53 5.74 9.66 0 17.6-2.3 18.44-5.23 0 0 10.92-54.51 10.92-54.7 0-3.26-11.66-5.35-26.56-5.64z"/><g transform="matrix(.85 0 0 .85 13 15)"><line x1="109.384" x2="105" y1="61.377" y2="125"/><path d="M73.52 68.91a574037.28 466066.04 0 001.65 10.4l1.06 6.67 1.12 7.07 1.13 7.17 1.08 6.8.97 6.12.8 4.99.55 3.52.26 1.62.01.07"/><line x1="89.751" x2="93.22" y1="67.349" y2="125"/><line x1="123.915" x2="113.835" y1="72.735" y2="136.63"/><line x1="108.492" x2="104.107" y1="74.665" y2="138.288"/><line x1="74.971" x2="84.236" y1="78.221" y2="136.63"/><line x1="90.495" x2="93.964" y1="80.637" y2="138.288"/></g><path d="M99.81 66.85h-.07c-1.5 0-2.72.69-2.72 1.91a2.53 2.06 0 01-2.46 2.06c-13.88.3-24.75 3.1-24.75 6.52 0 3.34 10.37 5.8 23.8 6.2h.12c1.8 0 3.3-1.19 3.3-2.66h0a2.67 2.17 0 012.6-2.16c14.99-.28 26.74-2.67 26.74-5.94 0-3.25-10.7-5.93-26.56-5.93zm18.41 9.04c-4.85 1.12-11.02 1.58-18.19 1.72a4.43 3.6 0 00-4.46 3.57 1.84 1.49 0 01-1.91 1.48c-6.4-.2-12.66-1.05-16.94-2.21-4.33-1.17-5.47-2.36-5.47-3.12 0-.78 1.62-2.4 6.17-3.6C81.9 72.56 88 72.06 94.6 71.92c2.18-.06 3.87-1.4 3.87-3.17 0-.57.57-1.02 1.27-1.02h.03c7.12.14 14.17.66 18.99 1.78 4.56 1.05 6.16 2.52 6.16 3.26 0 .75-2.1 2.04-6.7 3.1z"/><path d="M122.02 94.14c-1.98 3.7-11.64 5.57-24.65 5.57-13.03 0-23.17-2.3-24.68-5.57 0 0-.6-1.24-1.01-3.4-.28-1.48-.13-2.82-.13-2.82.75 3.68 11.98 5.9 25.81 5.9 13.83 0 25.2-2.25 26.02-5.9 0 0-.1 1.36-.23 2.47-.23 1.95-1.13 3.75-1.13 3.75z" class="secondary"/><path d="M117.3 120.19c-1.66 2.8-9.13 4.82-20.14 4.82-11 0-18.81-2.33-20.09-4.82l-1.02-4.9c-.23-1.12 0-1.6 0-1.6.63 2.8 9.44 5.96 21.12 5.96s20.6-3.19 21.29-5.96c0 0-.09 1.03-.2 1.87-.18 1.5-.96 4.63-.96 4.63z" class="secondary"/></g></svg>