<svg xmlns="http://www.w3.org/2000/svg" fill="#d7374a" stroke="#000" viewBox="50 50 200 200">
  <metadata source="http://wappenwiki.org/images/0/0e/Barrin.svg" license="https://creativecommons.org/licenses/by-nc-sa/3.0"/>
  <g id="butterfly" stroke-width=".585">
    <g>
      <path class="secondary" d="M101.74 96.958c2.878-3.885 5.756-7.77 8.635-11.63 3.088-4.189 6.224-8.377 10.132-11.84 4.773-4.236 11.091-7.606 17.597-6.155.702.164 1.52.468 1.708 1.17.257 1.006.14 1.872-.702 2.48-.304.211-.655.375-.89.68-.327.444-.257 1.029-.257 1.59 0 1.826-.866 3.627-2.293 4.75-.398.305-.866.609-1.006 1.1-.21.726.444 1.404.561 2.153.258 1.615-1.872 2.668-2.176 4.282-.164.866.258 1.826-.093 2.645-.445 1.1-1.943 1.404-2.48 2.457-.539 1.123.21 2.667-.61 3.58-.514.585-1.473.655-1.918 1.287-.562.749-.14 1.872-.632 2.69-.608 1.007-2.223.913-2.925 1.85-.234.304-.35.701-.538 1.076-.538 1.076-1.919 1.919-3.44 1.895-1.755 0-3.37-.491-5.101-.772a41.52 41.52 0 0 0-13.291.094"/>
      <path class="tertiary" d="M110.375 85.328a293.584 293.584 0 0 1 2.433-3.253c.796 1.662.936 3.206.936 3.206s.562-.398 1.545-.89c.28-.14 1.053-.374 1.357-.42a3.14 3.14 0 0 1 .936-.024c.28.024.655.14.772.234.047.047.07.07.117.164.047.07.07.21.094.351.046.257 0 .538-.094.819-.187.538-.608 1.006-1.1 1.193l-1.03.539s1.124 1.123 1.475 1.357c.515.35 1.193.889 1.263 1.544.024.304.047.468-.117.913-.163.444-.585.842-.585.842s.983 0 1.662-.725c.21-.234.421-.468.491-.866.047-.164 0-.328 0-.515-.023-.164-.047-.35-.093-.515-.211-.725-.75-1.193-1.124-1.52a2.285 2.285 0 0 0-.327-.258c.444-.421.772-.936.983-1.498a3.033 3.033 0 0 0 .14-1.52 2.184 2.184 0 0 0-.234-.796 1.758 1.758 0 0 0-.632-.749c-.538-.351-.983-.421-1.45-.515a4.184 4.184 0 0 0-1.428.047 5.314 5.314 0 0 0-1.334.468c-.047.023-.07.047-.117.07-.093-.444-.234-.866-.374-1.287a7.406 7.406 0 0 0-.515-1.17c1.942-2.457 3.978-4.797 6.318-6.88 0 0 1.661-.959 4.82-.959 1.24 0 3.019.398 3.768.82.515.28 1.006.654 1.123 1.24.117.608-.187 1.216-.538 1.731a9.888 9.888 0 0 1-3.253 2.972c.749.374 1.568.819 1.919 1.614.562 1.287-.538 2.738-1.802 3.323-.491.234-1.006.375-1.404.749-.398.351-.795 1.147-.444 1.544 1.03.211 1.474 1.545 1.076 2.504-.398.96-1.334 1.591-2.246 2.036-.936.468-1.943.819-2.691 1.521-.211.187-.398.421-.445.702-.117.679.679 1.147.983 1.778.304.656.047 1.475-.468 1.99-.515.514-1.194.818-1.872 1.076-1.919.772-3.978 1.45-6.037 1.17.023-.632-.328-1.194-.585-1.755-.258-.562-.398-1.31 0-1.779.234-.28.608-.42.819-.702.491-.631-.047-1.614-.82-1.872-.748-.257-1.567 0-2.34.258a2.706 2.706 0 0 0-.795-2.434c-.515-.468-1.357-.749-2.574-.678a738.761 738.761 0 0 1 3.838-5.195z"/>
      <path class="tertiary" d="M132.909 70.633c-.07.117-.164.257-.117.397.07.258.444.281.702.234a6.5 6.5 0 0 0 1.942-.725c.328-.187.913-.608.421-.983-.164-.117-.398-.14-.608-.164-.913-.023-1.825.492-2.34 1.24z"/>
      <path class="tertiary" d="M133.494 75.5c.093.07.187.093.28.14.68.187 1.522.024 1.826-.608.421-.82-.304-1.521-1.147-1.498-.866.024-1.872 1.217-.96 1.966z"/>
      <path class="tertiary" d="M130.335 80.344c.093.561.585 1.1 1.17 1.123.093 0 .187 0 .28-.024.632-.14 1.054-.865 1.147-1.544.281-2.083-2.901-1.38-2.597.445z"/>
      <path class="tertiary" d="M128.205 86.849c.024.164.07.327.164.468.117.14.258.21.421.257a1.531 1.531 0 0 0 1.545-.444c.444-.492.678-1.615-.047-1.943-.328-.14-.702-.093-1.03.047-.678.304-1.146.843-1.053 1.615z"/>
      <path class="tertiary" d="M125.655 95.18c1.872-.68 1.591-3.838-.609-3.16-2.082.632-1.918 4.072.609 3.16z"/>
      <path class="tertiary" d="M120.694 99.789c.023.14.047.257.14.374.117.164.328.234.515.258.843.093 1.966-1.357.936-1.849-.28-.14-.632-.093-.936.024-.468.234-.702.678-.655 1.193z"/>
      <path class="tertiary" d="M104.29 100.631s-.28-1.31.515-3.018c.422-.913 1.077-1.802 2.06-2.13.07-.023.14-.046.234-.023.14.023.21.164.257.28a3.74 3.74 0 0 1 .187 2.317c.492.024.983-.023 1.451.14.468.165.866.656.725 1.124-.093.328-.42.515-.748.585-.328.07-.656 0-.983-.023a6.718 6.718 0 0 0-3.697.748z"/>
    </g>
    <g>
      <path class="secondary" d="M98.3 96.958c-2.878-3.885-5.756-7.77-8.634-11.63-3.09-4.189-6.225-8.377-10.133-11.84-4.773-4.236-11.091-7.606-17.596-6.155-.702.164-1.521.468-1.709 1.17-.257 1.006-.14 1.872.702 2.48.305.211.656.375.89.68.327.444.257 1.029.257 1.59 0 1.826.866 3.627 2.293 4.75.398.305.866.609 1.006 1.1.211.726-.444 1.404-.561 2.153-.258 1.615 1.872 2.668 2.176 4.282.164.866-.257 1.826.094 2.645.444 1.1 1.942 1.404 2.48 2.457.538 1.123-.21 2.667.608 3.58.515.585 1.475.655 1.92 1.287.56.749.14 1.872.631 2.69.608 1.007 2.223.913 2.925 1.85.234.304.351.701.538 1.076.538 1.076 1.919 1.919 3.44 1.895 1.755 0 3.37-.491 5.101-.772a41.52 41.52 0 0 1 13.291.094"/>
      <path class="tertiary" d="M89.666 85.328a293.584 293.584 0 0 0-2.434-3.253c-.796 1.662-.936 3.206-.936 3.206s-.562-.398-1.544-.89c-.281-.14-1.053-.374-1.358-.42a3.14 3.14 0 0 0-.936-.024c-.28.024-.655.14-.772.234a.492.492 0 0 0-.117.164c-.047.07-.07.21-.093.351-.047.257 0 .538.093.819.187.538.609 1.006 1.1 1.193l1.03.539s-1.124 1.123-1.475 1.357c-.514.35-1.193.889-1.263 1.544-.024.304-.047.468.117.913.164.444.585.842.585.842s-.983 0-1.662-.725c-.21-.234-.42-.468-.491-.866-.047-.164 0-.328 0-.515.023-.164.047-.35.094-.515.21-.725.748-1.193 1.123-1.52.07-.07.187-.164.327-.258a3.974 3.974 0 0 1-.982-1.498 3.033 3.033 0 0 1-.14-1.52c.023-.258.093-.515.233-.796.117-.281.351-.562.632-.749.538-.351.983-.421 1.45-.515.469-.07.96-.047 1.428.047.468.094.913.257 1.334.468.047.023.07.047.117.07.094-.444.234-.866.374-1.287.14-.398.305-.795.515-1.17-1.942-2.457-3.978-4.797-6.318-6.88 0 0-1.661-.959-4.82-.959-1.24 0-3.019.398-3.768.82-.514.28-1.006.654-1.123 1.24-.117.608.187 1.216.538 1.731a9.888 9.888 0 0 0 3.253 2.972c-.749.374-1.568.819-1.919 1.614-.561 1.287.538 2.738 1.802 3.323.491.234 1.006.375 1.404.749.398.351.796 1.147.445 1.544-1.03.211-1.475 1.545-1.077 2.504.398.96 1.334 1.591 2.247 2.036.936.468 1.942.819 2.69 1.521.211.187.398.421.445.702.117.679-.678 1.147-.983 1.778-.304.656-.046 1.475.468 1.99.515.514 1.194.818 1.872 1.076 1.943.772 3.978 1.45 6.038 1.17-.024-.632.327-1.194.585-1.755s.397-1.31 0-1.779c-.234-.28-.609-.42-.82-.702-.49-.631.047-1.614.82-1.872.748-.257 1.567 0 2.34.258a2.706 2.706 0 0 1 .795-2.434c.515-.468 1.357-.749 2.574-.678a738.761 738.761 0 0 0-3.837-5.195z"/>
      <path class="tertiary" d="M67.131 70.633c.07.117.164.257.117.397-.07.258-.444.281-.702.234a6.5 6.5 0 0 1-1.942-.725c-.327-.187-.912-.608-.421-.983.164-.117.398-.14.608-.164.913-.023 1.826.492 2.34 1.24z"/>
      <path class="tertiary" d="M66.546 75.5c-.093.07-.187.093-.28.14-.679.187-1.521.024-1.826-.608-.42-.82.305-1.521 1.147-1.498.866.024 1.872 1.217.96 1.966z"/>
      <path class="tertiary" d="M69.705 80.344c-.093.561-.585 1.1-1.17 1.123-.093 0-.187 0-.28-.024-.632-.14-1.053-.865-1.147-1.544-.28-2.083 2.902-1.38 2.597.445z"/>
      <path class="tertiary" d="M71.858 86.849c-.023.164-.07.327-.164.468a.798.798 0 0 1-.42.257 1.531 1.531 0 0 1-1.545-.444c-.445-.492-.679-1.615.047-1.943.327-.14.702-.093 1.03.047.654.304 1.146.843 1.052 1.615z"/>
      <path class="tertiary" d="M74.409 95.18c-1.872-.68-1.591-3.838.608-3.16 2.06.632 1.919 4.072-.608 3.16z"/>
      <path class="tertiary" d="M79.346 99.789c-.023.14-.047.257-.14.374-.117.164-.328.234-.515.258-.842.093-1.966-1.357-.936-1.849.28-.14.632-.093.936.024.468.234.702.678.655 1.193z"/>
      <path class="tertiary" d="M96.007 100.631s.28-1.31-.515-3.018c-.421-.913-1.076-1.802-2.059-2.13-.07-.023-.14-.046-.234-.023-.14.023-.21.164-.257.28a3.74 3.74 0 0 0-.188 2.317c-.491.024-.982-.023-1.45.14-.468.165-.866.656-.726 1.124.094.328.421.515.749.585.328.07.655 0 .983-.023 1.263-.117 2.574.163 3.697.748z"/>
    </g>
    <path class="secondary" d="M102.114 103.299c2.13 2.13 3.136 5.148 3.58 8.12.445 2.972.375 6.014.68 9.009.093.936.28 1.989 1.076 2.504.702.468 1.684.374 2.386.819.843.538 1.077 1.661 1.475 2.574.42.912 1.497 1.801 2.34 1.24.865-.562.725-2.2 1.731-2.434.726-.164 1.287.632 1.615 1.287 1.544 3.089 3.065 6.154 4.61 9.243.28.585.046.304.702.328.514 0 .936-.492 1.006-1.006s-.07-1.03-.21-1.545c-.61-2.106-1.054-4.259-1.147-6.458-.024-.679-.024-1.38.21-2.013s.772-1.193 1.451-1.287c.538-.07 1.147.14 1.638-.093.585-.258.749-1.03.632-1.638s-.421-1.194-.562-1.802c-.28-1.264.585-2.434 1.896-2.644.327-.047.702-.047 1.006-.21 1.24-.726.023-2.551-.375-3.394-.35-.678-.561-1.568-.117-2.176.188-.257.445-.421.632-.655 1.545-1.802-2.761-4.587-3.978-5.476-2.457-1.825-5.312-3.112-8.283-3.814-4.61-1.076-9.477-.819-14.04.398"/>
    <path class="tertiary" d="M116.108 101.801c.631.14 1.263.328 1.872.539.889.608 1.708 1.333 2.386 2.129.702.819 1.31 1.966.843 2.948-.468.96-1.732 1.194-2.808 1.287.772.585.772 1.849.14 2.574-.655.702-1.778.866-2.667.492.772.678.468 2.106-.422 2.62-.889.515-2.082.235-2.878-.444.164.772.258 1.778-.444 2.2-.539.327-1.24.046-1.732-.328-1.1-.866-1.685-2.2-2.246-3.463-.866-1.966-2.621-4.704-4.493-6.973a11.135 11.135 0 0 0-1.568-2.06l-.047-1.1c4.61-1.24 9.477-1.497 14.064-.42z"/>
    <g stroke="none" fill="#000">
      <path d="M115.92 105.569c-.561-.117-1.1-.234-1.638-.375l-1.614-.397-1.615-.398c-.538-.14-1.076-.258-1.614-.421a8.111 8.111 0 0 1 1.684-.024c.562.047 1.124.14 1.662.281.538.14 1.076.304 1.614.538.562.21 1.053.468 1.521.796z"/>
      <path d="M114.259 109.313c-.351-.258-.655-.538-.96-.82l-.912-.818-.913-.82c-.304-.28-.608-.56-.889-.865.421.117.796.28 1.17.491.375.211.702.468 1.03.75.304.28.608.608.842.935.258.375.492.726.632 1.147z"/>
      <path d="M110.047 110.834c-.328-.515-.608-1.03-.913-1.521-.304-.492-.608-.983-.936-1.474-.327-.492-.655-.96-1.006-1.428-.35-.468-.702-.936-1.053-1.427.515.304.983.702 1.404 1.146.421.422.796.89 1.147 1.404a9.47 9.47 0 0 1 .866 1.592c.21.538.397 1.123.491 1.708z"/>
    </g>
    <path class="tertiary" d="M122.847 110.202c-.187.047-.375.07-.538.117-.585.234-.726.983-.726 1.615 0 .631-.023 1.38-.538 1.731-.538.375-1.31.094-1.919.375-.702.304-.866 1.193-1.03 1.942-.14.749-.538 1.614-1.286 1.685-.773.07-1.592-.796-2.2-.328-.28.21-.351.632-.608.89-.281.28-.726.28-1.1.257-.749-.07-1.498-.305-2.247-.234-.748.07-1.544.561-1.614 1.31-.07.655.468 1.24 1.03 1.591.584.328 1.24.515 1.778.913.374.28.702.632 1.123.795.936.328 1.942-.491 2.925-.374.866.094 1.474.866 1.942 1.591.702 1.1 1.31 2.27 1.825 3.487.422-.234.445-.796.445-1.264l-.07-3.018c-.024-.632-.024-1.31.35-1.826.656-.936 2.27-1.076 2.505-2.2.07-.303 0-.608.023-.912.023-.327.14-.608.28-.912.68-1.475 1.639-2.808 2.154-4.33.397-1.24.514-3.065-.422-4.141-1.146-1.287-.959.936-2.082 1.24z"/>
    <path class="secondary" d="M97.926 103.299c-2.13 2.13-3.136 5.148-3.58 8.12s-.375 6.014-.679 9.009c-.094.936-.28 1.989-1.076 2.504-.702.468-1.685.374-2.387.819-.843.538-1.077 1.661-1.474 2.574-.422.912-1.498 1.801-2.34 1.24-.866-.562-.726-2.2-1.732-2.434-.725-.164-1.287.632-1.615 1.287-1.544 3.089-3.065 6.154-4.61 9.243-.28.585-.046.304-.701.328-.515 0-.936-.492-1.007-1.006-.093-.515.07-1.03.211-1.545.608-2.106 1.053-4.259 1.147-6.458.023-.679.023-1.38-.211-2.013s-.772-1.193-1.45-1.287c-.539-.07-1.147.14-1.639-.093-.585-.258-.749-1.03-.632-1.638.117-.632.422-1.194.562-1.802.28-1.264-.585-2.434-1.895-2.644-.328-.047-.702-.047-1.007-.21-1.24-.726-.023-2.551.375-3.394.35-.678.561-1.568.117-2.176-.187-.257-.445-.421-.632-.655-1.544-1.802 2.761-4.587 3.978-5.476 2.457-1.825 5.312-3.112 8.284-3.814 4.61-1.076 9.477-.819 14.04.398"/>
    <path class="tertiary" d="M83.933 101.801a17.12 17.12 0 0 0-1.872.539 12.237 12.237 0 0 0-2.387 2.129c-.702.819-1.31 1.966-.843 2.948.468.96 1.732 1.194 2.808 1.287-.772.585-.772 1.849-.14 2.574.655.702 1.778.866 2.668.492-.773.678-.468 2.106.42 2.62.89.515 2.083.235 2.879-.444-.164.772-.257 1.778.445 2.2.538.327 1.24.046 1.731-.328 1.1-.866 1.685-2.2 2.247-3.463.865-1.966 2.62-4.704 4.492-6.973.445-.75.96-1.428 1.568-2.06l.047-1.1c-4.61-1.24-9.477-1.497-14.063-.42z"/>
    <g stroke="none" fill="#000">
      <path d="M84.12 105.569a7.675 7.675 0 0 1 1.497-.796c.515-.21 1.053-.398 1.615-.538.538-.14 1.1-.234 1.661-.28a8.111 8.111 0 0 1 1.685.023c-.538.163-1.076.304-1.614.42l-1.615.399-1.615.397c-.514.14-1.053.281-1.614.375z"/>
      <path d="M85.781 109.313c.14-.398.375-.772.609-1.123a6.48 6.48 0 0 1 .842-.936c.304-.281.655-.539 1.03-.75.374-.21.748-.397 1.17-.49-.305.327-.609.584-.89.865l-.912.82-.913.818c-.28.258-.585.515-.936.796z"/>
      <path d="M89.993 110.834c.094-.609.281-1.17.515-1.732a8.05 8.05 0 0 1 .866-1.591 9.391 9.391 0 0 1 1.146-1.404c.422-.421.89-.819 1.404-1.147-.35.492-.702.96-1.053 1.428-.35.468-.678.96-1.006 1.427-.327.492-.632.983-.936 1.474-.327.539-.608 1.053-.936 1.545z"/>
    </g>
    <path class="tertiary" d="M77.193 110.202c.188.047.375.07.539.117.585.234.725.983.725 1.615s.023 1.38.538 1.731c.538.375 1.31.094 1.919.375.702.304.866 1.193 1.03 1.942.14.749.538 1.614 1.287 1.685.772.07 1.59-.796 2.2-.328.28.21.35.632.608.89.28.28.725.28 1.1.257.748-.07 1.497-.305 2.246-.234.749.07 1.544.561 1.614 1.31.07.655-.468 1.24-1.03 1.591-.584.328-1.24.515-1.778.913-.374.28-.702.632-1.123.795-.936.328-1.942-.491-2.925-.374-.866.094-1.474.866-1.942 1.591-.702 1.1-1.31 2.27-1.825 3.487-.421-.234-.445-.796-.445-1.264l.07-3.018c.024-.632.024-1.31-.35-1.826-.656-.936-2.27-1.076-2.504-2.2-.07-.303 0-.608-.024-.912-.023-.327-.14-.608-.28-.912-.68-1.475-1.639-2.808-2.153-4.33-.398-1.24-.515-3.065.42-4.141 1.147-1.287.96.936 2.083 1.24z"/>
    <path class="secondary" d="M79.51 118.088a1.2 1.2 0 0 1-.515-.14c-.468-.235-.889-.913-.515-1.428.375-.491 1.381-.374 1.709.094.397.538.046 1.474-.679 1.474z"/>
    <path class="secondary" d="M82.716 121.013c-.258.257-.726.257-.96-.024-.117-.14-.163-.304-.187-.491-.047-.328 0-.749.398-.796.702-.07 1.31.773.749 1.31z"/>
    <path class="secondary" d="M120.53 118.088a1.2 1.2 0 0 0 .515-.14c.468-.235.89-.913.515-1.428-.375-.491-1.38-.374-1.708.094-.375.538-.047 1.474.678 1.474z"/>
    <path class="secondary" d="M117.324 121.013c.258.257.726.257.96-.024.117-.14.164-.304.187-.491.047-.328 0-.749-.398-.796-.702-.07-1.287.773-.749 1.31z"/>
    <g>
      <path d="M107.543 67.31c.772-.632.913-.796 1.38-1.287.82-.866 2.013-1.357 3.183-1.568.632-.117 1.357-.14 1.919.187.562.328.866 1.147.491 1.662-.234.304-.608.42-.959.514-1.053.281-1.919.398-2.972.609-1.146.234-1.825.304-2.363.678"/>
      <g>
        <path stroke-width=".468" d="M100.406 84.813h1.03c0-3.931 3.463-14.04 6.762-16.708l-.655-.795c-3.3 2.69-7.137 12.893-7.137 17.503z"/>
      </g>
      <path d="M92.497 67.31c-.772-.632-.913-.796-1.38-1.287-.82-.866-2.013-1.357-3.183-1.568-.632-.117-1.357-.14-1.919.187s-.866 1.147-.491 1.662c.234.304.608.42.96.514 1.052.281 1.918.398 2.971.609 1.147.234 1.825.304 2.363.678"/>
      <g>
        <path stroke-width=".468" d="M99.634 84.813h-1.03c0-3.931-3.463-14.04-6.762-16.708l.655-.795c3.323 2.69 7.137 12.893 7.137 17.503z"/>
      </g>
    </g>
    <g>
      <path d="M100.921 85c.14-.14.374-.164.585-.164.983-.046 2.083-.07 2.855.562.491.374.772.983.889 1.591.28 1.404.234 3.51-1.498 3.955-.655.164-1.45-.117-1.708-.749-.07-.187-.21-.468-.421-.398"/>
      <path d="M99.12 85c-.141-.14-.375-.164-.586-.164-.983-.046-2.082-.07-2.855.562-.491.374-.772.983-.889 1.591-.28 1.404-.234 3.51 1.498 3.955.655.164 1.45-.117 1.708-.749.07-.187.21-.468.421-.398"/>
    </g>
    <path d="M100.032 92.652c-.772 0-1.38-.187-1.966-.913-.96-1.193-.866-3.135-.678-4.54.234-1.871.538-3.228 2.667-3.158 2.13-.07 2.41 1.263 2.668 3.159.187 1.404.257 3.37-.679 4.54-.632.725-1.263.912-2.012.912z"/>
    <path d="M101.202 102.948c1.24 1.17 1.919 2.785 2.176 4.423.28 1.661.164 3.907.047 5.569a194.115 194.115 0 0 1-.421 5.195c-.281 3.252-.702 7.066-2.387 9.968-.258.445-.936.468-1.194.023-1.778-2.878-1.965-5.85-2.386-10.553-.164-1.755-.305-3.51-.422-5.242-.117-1.638-.21-3.322.047-4.937.258-1.638.936-3.253 2.176-4.423"/>
    <path d="M100.032 104.001c.608 0 1.123-.304 1.474-.679.421-.42 1.264-1.357 1.474-3.486.187-1.802.375-4.002-.374-5.733-.398-.936-1.03-1.779-2.598-1.779-1.193 0-2.176.843-2.597 1.779-.725 1.731-.538 3.931-.351 5.733.21 2.13 1.053 3.065 1.474 3.486.375.351.89.679 1.498.679z"/>
  </g>
</svg>
