<svg xmlns="http://www.w3.org/2000/svg" fill="#d7374a" stroke="#000" viewBox="50 50 200 200">
  <metadata source="http://wappenwiki.org/images/0/0d/Smolensk_1857.svg" license="https://creativecommons.org/licenses/by-nc-sa/3.0"/>
  <g id="cannon" stroke-width=".39">
    <path stroke-width=".4" d="m98.15 99.13 10.87 20.33 3.8 3.44-.94-26.38-13.73 2.61z"/>
    <g>
      <g>
        <path d="M89.168 113.692c.455.455.676 1.95.676 2.847v2.626h2.262v-2.626c0-.884.208-2.392.676-2.847"/>
        <path d="M92.743 113.445c-.455-.455-.676-1.95-.676-2.847v-2.626h-2.262v2.626c0 .884-.208 2.392-.676 2.847"/>
        <path d="M90.949 114.381c-1.144 0-1.898-.338-1.924-.364-.208-.104-.286-.39-.247-.611.039-.247.195-.403.377-.403.052 0 .091.013.13.026 0 0 .663.299 1.651.299s1.651-.299 1.664-.299c.039-.026.091-.026.13-.026.182 0 .338.156.377.403.039.234-.039.52-.247.611-.052.039-.78.364-1.911.364z"/>
        <path d="M81.537 102.486c-.455.455-1.95.676-2.847.676h-2.626v2.262h2.626c.884 0 2.392.208 2.847.676"/>
        <path d="M81.693 106.451c-.221 0-.416-.104-.494-.26-.039-.078-.364-.806-.364-1.924s.325-1.846.364-1.924c.078-.156.26-.26.494-.26a.36.36 0 0 1 .117.013.493.493 0 0 1 .364.234.282.282 0 0 1 0 .286s-.299.663-.299 1.651.299 1.651.299 1.664a.462.462 0 0 1 .026.13c0 .182-.156.338-.403.377-.026.013-.065.013-.104.013z"/>
        <path d="M83.019 109.662c0 .65-.91 1.859-1.534 2.483l-1.859 1.859 1.599 1.599 1.859-1.859c.624-.624 1.833-1.534 2.483-1.534"/>
        <path d="M85.736 112.015c0-.65.91-1.859 1.534-2.483l1.859-1.859-1.599-1.599-1.859 1.859c-.624.624-1.833 1.534-2.483 1.534"/>
        <path d="M96.357 112.197c.65 0 1.859.91 2.483 1.534l1.859 1.859 1.599-1.599-1.859-1.859c-.624-.624-1.534-1.833-1.534-2.483"/>
        <path d="M98.71 109.493c-.65 0-1.859-.91-2.483-1.534l-1.859-1.859-1.599 1.586 1.859 1.859c.624.624 1.534 1.833 1.534 2.483"/>
        <path d="M96.357 112.548a.603.603 0 0 1-.481-.286.49.49 0 0 1-.091-.429.342.342 0 0 1 .195-.208s.676-.26 1.378-.962c.702-.702.962-1.378.962-1.378a.324.324 0 0 1 .325-.208c.104 0 .208.039.312.117.195.13.338.39.26.611-.026.078-.325.832-1.105 1.612-.793.793-1.534 1.079-1.612 1.105-.052.026-.091.026-.143.026z"/>
        <path d="M75.973 95.635c4.784-8.281 15.366-11.115 23.634-6.331s11.115 15.366 6.331 23.634c-4.784 8.281-15.366 11.115-23.634 6.331-8.281-4.771-11.115-15.353-6.331-23.634zm8.385 20.085c6.318 3.653 14.404 1.482 18.057-4.836s1.482-14.404-4.836-18.057-14.404-1.482-18.057 4.836-1.495 14.404 4.836 18.057z"/>
        <path d="M90.949 99.054c-2.873 0-5.213 2.34-5.213 5.213s2.34 5.213 5.213 5.213 5.213-2.34 5.213-5.213-2.327-5.213-5.213-5.213zm0 7.826a2.6 2.6 0 1 1 2.6-2.6c.013 1.43-1.157 2.6-2.6 2.6z"/>
        <circle cx="90.949" cy="104.267" r="2.6"/>
      </g>
      <g class="secondary">
        <path d="M96.097 82.947c.819-.117 1.82-1.469 2.574-2.028 1.248-.91 2.782-.637 3.9.52.338.351.377.494.741.806.377.312.936.416 1.417.39l2.275-.104s-.364-.091-1.027-.754c-.546-.546-1.079-1.118-1.612-1.677-1.794-1.872-4.628-2.197-6.851-.845-1.118.676-2.002 2.288-3.328 2.47-.208.026-.416.026-.611.078-.533.13-.884.676-.871 1.222 0 .013 3.263-.065 3.393-.078z"/>
        <ellipse cx="63.181" cy="87.822" rx="2.548" ry="6.292"/>
        <ellipse cx="63.181" cy="87.822" rx=".767" ry="3.146"/>
        <circle cx="138.139" cy="87.822" r="2.054"/>
        <path d="M136.358 86.73c-1.911-1.547-3.276-3.874-5.265-6.019.702.962 2.002 2.912 2.002 7.111s-1.3 6.149-2.002 7.111c2.002-2.145 3.354-4.472 5.265-6.019 0 0-.13-.442-.13-1.092s.13-1.092.13-1.092z"/>
        <path d="M63.181 94.114c1.404 0 2.548-2.821 2.548-6.292s-1.144-6.292-2.548-6.292c7.67 1.95 25.285.91 35.451.663 14.69-.351 32.448-1.482 32.448-1.482.702.962 2.002 2.912 2.002 7.111s-1.3 6.149-2.002 7.111c0 0-17.745-1.144-32.448-1.482-10.166-.234-27.664-1.313-35.451.663z"/>
        <path d="M107.927 94.4a.816.816 0 0 1-.247-.039c-.429-.143-.663-.325-.533-.754.013-.039.494-1.677.494-5.785 0-4.134-.494-5.772-.494-5.785-.13-.429.104-.611.533-.754a.832.832 0 0 1 1.027.52c.026.078.572 1.56.572 6.019s-.546 5.941-.572 6.019a.812.812 0 0 1-.78.559z"/>
        <path d="M121.824 95.154a.816.816 0 0 1-.247-.039c-.429-.143-.663-.325-.533-.754.013-.039.559-1.885.559-6.526 0-4.667-.559-6.513-.559-6.539-.13-.429.104-.611.533-.754a.828.828 0 0 1 1.027.533c.026.078.637 1.768.637 6.76s-.611 6.682-.637 6.76a.836.836 0 0 1-.78.559z"/>
        <path d="M88.843 93.958a.816.816 0 0 1-.247-.039c-.429-.143-.663-.325-.533-.754.013-.039.455-1.547.455-5.33 0-3.809-.455-5.317-.455-5.33-.13-.429.104-.611.533-.754a.832.832 0 0 1 1.027.52c.026.065.533 1.43.533 5.564s-.52 5.499-.533 5.564a.824.824 0 0 1-.78.559z"/>
        <path d="M73.568 93.789a.816.816 0 0 1-.247-.039c-.429-.143-.663-.325-.533-.754.013-.039.442-1.508.442-5.174 0-3.705-.442-5.161-.442-5.174-.13-.429.104-.611.533-.754a.832.832 0 0 1 1.027.52c.026.065.52 1.391.52 5.408s-.494 5.343-.52 5.408a.819.819 0 0 1-.78.559z"/>
        <path d="M101.284 82.128c.819-.117 1.82-1.469 2.574-2.028 1.248-.91 2.782-.637 3.9.52.338.351.377.494.741.806.377.312.936.416 1.417.39l2.275-.104s-.364-.091-1.027-.754c-.546-.546-1.079-1.118-1.612-1.677-1.794-1.872-4.628-2.197-6.851-.845-1.118.676-2.002 2.288-3.328 2.47-.208.026-.416.026-.611.078-.533.13-.884.676-.871 1.222-.013.013 3.263-.065 3.393-.078z"/>
      </g>
      <path d="M137.112 118.359c-1.456 0-2.561-.767-3.276-1.846-.65-.988-.975-2.184-1.794-3.055-1.014-1.092-2.756-1.417-4.095-.78.221-3.939-3.263-6.032-6.539-4.849l-8.294-16.757H81.55v11.492h20.41l10.868 20.332h24.271l.013-4.537z"/>
      <path d="m80.211 94.933-1.274-1.157-.13-.832h-1.066v6.188l3.809 3.432V91.072h-.78l-.559 3.861z"/>
      <circle cx="123.202" cy="112.743" r="2.288"/>
      <g>
        <path d="M100.92 96.142c-.455-.455-.676-1.95-.676-2.847v-2.626h-2.262v2.626c0 .884-.208 2.392-.676 2.847"/>
        <path d="M97.345 96.402c.455.455.676 1.95.676 2.847v2.626h2.262v-2.626c0-.884.208-2.392.676-2.847"/>
        <path d="M100.92 96.831c-.052 0-.091-.013-.13-.026 0 0-.663-.299-1.651-.299s-1.651.299-1.664.299a.462.462 0 0 1-.13.026c-.182 0-.338-.156-.377-.403-.039-.234.039-.52.247-.611.078-.039.806-.364 1.924-.364s1.846.325 1.924.364c.208.104.286.39.247.611-.039.247-.195.403-.39.403z"/>
        <path d="M97.345 114.992c.455.455.676 1.95.676 2.847v2.626h2.262v-2.626c0-.884.208-2.392.676-2.847"/>
        <path d="M100.92 114.745c-.455-.455-.676-1.95-.676-2.847v-2.626h-2.262v2.626c0 .884-.208 2.392-.676 2.847"/>
        <path d="M99.126 115.681c-1.144 0-1.898-.338-1.924-.364-.208-.104-.286-.39-.247-.611.039-.247.195-.403.377-.403.052 0 .091.013.13.026 0 0 .663.299 1.651.299s1.651-.299 1.664-.299c.039-.026.091-.026.13-.026.182 0 .338.156.377.403.039.234-.039.52-.247.611-.052.039-.78.364-1.911.364z"/>
        <path d="M108.551 107.361c.455-.455 1.95-.676 2.847-.676h2.626v-2.262h-2.626c-.884 0-2.392-.208-2.847-.676"/>
        <path d="M108.304 103.773c-.455.455-1.95.676-2.847.676h-2.626v2.262h2.626c.884 0 2.392.208 2.847.676"/>
        <path d="M108.395 107.751c-.039 0-.078 0-.117-.013a.494.494 0 0 1-.364-.234.318.318 0 0 1-.013-.286s.299-.663.299-1.651-.299-1.651-.299-1.664c-.026-.039-.026-.091-.026-.13 0-.182.156-.338.403-.377.039-.013.078-.013.117-.013.221 0 .416.104.494.26.013.026.364.78.364 1.924 0 1.118-.325 1.846-.364 1.924-.078.169-.273.26-.494.26z"/>
        <path d="M89.714 103.786c-.455.455-1.95.676-2.847.676h-2.626v2.262h2.626c.884 0 2.392.208 2.847.676"/>
        <path d="M89.961 107.361c.455-.455 1.95-.676 2.847-.676h2.626v-2.262h-2.626c-.884 0-2.392-.208-2.847-.676"/>
        <path d="M89.87 107.751c-.221 0-.416-.104-.494-.26-.039-.078-.364-.806-.364-1.924s.325-1.846.364-1.924c.078-.156.26-.26.494-.26a.36.36 0 0 1 .117.013.493.493 0 0 1 .364.234.282.282 0 0 1 0 .286s-.299.663-.299 1.651.299 1.651.299 1.664a.462.462 0 0 1 .026.13c0 .182-.156.338-.403.377-.026.013-.065.013-.104.013z"/>
        <path d="M107.069 100.172c0-.65.91-1.859 1.534-2.483l1.859-1.859-1.599-1.599-1.859 1.859c-.624.624-1.833 1.534-2.483 1.534"/>
        <path d="M104.352 97.819c0 .65-.91 1.859-1.534 2.483l-1.859 1.859 1.599 1.599 1.859-1.859c.624-.624 1.833-1.534 2.483-1.534"/>
        <path d="M106.822 100.757c-.143 0-.273-.078-.312-.208 0 0-.26-.676-.962-1.378-.702-.702-1.378-.962-1.378-.962a.307.307 0 0 1-.117-.078c-.13-.13-.13-.351.013-.559.117-.169.312-.286.481-.286.039 0 .091.013.13.026.078.026.832.325 1.612 1.105.793.793 1.079 1.534 1.105 1.612.078.221-.065.468-.26.611a.519.519 0 0 1-.312.117z"/>
        <path d="M91.196 110.962c0 .65-.91 1.859-1.534 2.483l-1.859 1.859 1.599 1.599 1.859-1.859c.624-.624 1.833-1.534 2.483-1.534"/>
        <path d="M93.913 113.315c0-.65.91-1.859 1.534-2.483l1.859-1.859-1.599-1.599-1.859 1.859c-.624.624-1.833 1.534-2.483 1.534"/>
        <path d="M93.718 113.848a.462.462 0 0 1-.13-.026c-.078-.026-.832-.325-1.612-1.105-.793-.793-1.079-1.534-1.105-1.612-.078-.221.065-.468.26-.611a.519.519 0 0 1 .312-.117c.143 0 .273.078.312.208 0 0 .26.689.962 1.378.702.702 1.378.962 1.378.962a.307.307 0 0 1 .117.078c.13.13.13.351-.013.559a.585.585 0 0 1-.481.286z"/>
        <path d="M104.534 113.497c.65 0 1.859.91 2.483 1.534l1.859 1.859 1.599-1.599-1.859-1.859c-.624-.624-1.534-1.833-1.534-2.483"/>
        <path d="M106.887 110.793c-.65 0-1.859-.91-2.483-1.534l-1.859-1.859-1.599 1.586 1.859 1.859c.624.624 1.534 1.833 1.534 2.483"/>
        <path d="M104.534 113.848a.603.603 0 0 1-.481-.286.49.49 0 0 1-.091-.429.342.342 0 0 1 .195-.208s.676-.26 1.378-.962c.702-.702.962-1.378.962-1.378a.324.324 0 0 1 .325-.208c.104 0 .208.039.312.117.195.13.338.39.26.611-.026.078-.325.832-1.105 1.612-.793.793-1.534 1.079-1.612 1.105-.052.026-.091.026-.143.026z"/>
        <path d="M93.731 97.637c-.65 0-1.859-.91-2.483-1.534l-1.859-1.859-1.599 1.599 1.859 1.859c.624.624 1.534 1.833 1.534 2.483"/>
        <path d="M91.378 100.354c.65 0 1.859.91 2.483 1.534l1.859 1.859 1.599-1.599-1.859-1.859c-.624-.624-1.534-1.833-1.534-2.483"/>
        <path d="M91.443 100.757a.519.519 0 0 1-.312-.117c-.195-.13-.338-.39-.26-.611.026-.078.325-.832 1.105-1.612.793-.793 1.534-1.079 1.612-1.105a.385.385 0 0 1 .13-.026c.169 0 .364.104.481.286a.49.49 0 0 1 .091.429.342.342 0 0 1-.195.208s-.689.26-1.378.962c-.702.702-.962 1.378-.962 1.378a.307.307 0 0 1-.078.117.347.347 0 0 1-.234.091z"/>
        <path d="M84.15 96.935c4.784-8.281 15.366-11.115 23.634-6.331s11.115 15.366 6.331 23.634c-4.784 8.281-15.366 11.115-23.634 6.331-8.281-4.771-11.115-15.353-6.331-23.634zm8.385 20.085c6.318 3.653 14.404 1.482 18.057-4.836s1.482-14.404-4.836-18.057-14.404-1.482-18.057 4.836-1.495 14.404 4.836 18.057z"/>
        <path d="M99.126 100.354c-2.873 0-5.213 2.34-5.213 5.213s2.34 5.213 5.213 5.213 5.213-2.34 5.213-5.213-2.327-5.213-5.213-5.213zm0 7.826a2.6 2.6 0 1 1 2.6-2.6c.013 1.43-1.157 2.6-2.6 2.6z"/>
        <circle cx="99.126" cy="105.567" r="2.6"/>
      </g>
    </g>
  </g>
</svg>
