<svg xmlns="http://www.w3.org/2000/svg" fill="#d7374a" stroke="#000" viewBox="50 50 200 200">
  <metadata source="http://wappenwiki.org/images/a/a6/Andronikashvili.svg" license="https://creativecommons.org/licenses/by-nc-sa/3.0"/>
  <g id="caravel" stroke-width=".4475">
    <path class="tertiary" d="M99.7885 68.4353c-1.1456.179-2.2912.3222-3.4547.2685-.6802-.0358-1.3604-.1253-2.0227-.3043-.6444-.179-1.5215-.4833-2.1838-.5728-1.611-.179-2.8103.3938-3.0967.6981.4833-.0358 2.0406-.0179 3.6516.9308.4117.2327 1.1814.4117 1.6468.4833-.4654.1611-1.3067.1074-1.79.2148-.3222.0716-.6444.1969-.9845.2685-.3759.0716-.7697.0358-1.1456.1253-.5191.1253-1.0382.3938-1.3604.8413.4833-.1253 1.0024-.1611 1.5036-.0716.4117.0716.8055.2148 1.2172.3222 1.253.3222 2.5955.0895 3.8664.0179 1.4141-.0716 2.8103.4654 4.2244.2864m-25.1316 1.1098c-.9845.1611-1.969.2685-2.9535.2327-.5907-.0179-1.1814-.1074-1.7363-.2685-.5549-.1611-1.3067-.4296-1.8795-.4833-1.3783-.1432-2.4165.3401-2.6671.5907.4117-.0358 1.7542-.0179 3.1325.7876.3401.1969 1.0024.358 1.4141.4117-.4117.1432-1.1277.0895-1.5394.1969-.2864.0716-.5549.179-.8413.2327-.3222.0537-.6623.0358-.9845.1074-.4475.1074-.895.3401-1.1635.716.4117-.1074.8592-.1432 1.2888-.0537.358.0537.6981.179 1.0382.2685 1.074.2685 2.2375.0716 3.3294.0179 1.2172-.0537 2.4165.3938 3.6337.2506m51.6057-3.0072c-.9845.1611-1.969.2685-2.9535.2327-.5907-.0179-1.1814-.1074-1.7363-.2685-.5549-.1611-1.3067-.4296-1.8795-.4833-1.3783-.1432-2.4165.3401-2.6671.5907.4117-.0358 1.7542-.0179 3.1325.7876.3401.1969 1.0024.358 1.4141.4117-.4117.1432-1.1277.0895-1.5394.1969-.2864.0716-.5549.179-.8413.2327-.3222.0537-.6623.0358-.9845.1074-.4475.1074-.895.3401-1.1635.716.4117-.1074.8592-.1432 1.2888-.0537.358.0537.6981.179 1.0382.2685 1.074.2685 2.2375.0716 3.3294.0179 1.2172-.0537 2.4165.3938 3.6337.2506"/>
    <g stroke-width=".2685">
      <rect x="104.3351" y="114.7605" width="4.5466" height=".6086"/>
      <rect x="104.0666" y="112.6125" width="4.2781" height=".6086"/>
      <rect x="103.8876" y="110.4645" width="3.8664" height=".6086"/>
      <rect x="103.5654" y="108.3165" width="3.4547" height=".6086"/>
      <rect x="103.1358" y="106.1685" width="3.3294" height=".6086"/>
      <rect x="102.8673" y="104.0205" width="3.0072" height=".6086"/>
      <rect x="102.4735" y="101.8725" width="2.9356" height=".6086"/>
      <rect x="102.2229" y="99.7245" width="2.6313" height=".6086"/>
      <rect x="101.9723" y="97.5765" width="2.2912" height=".6086"/>
      <rect x="88.9769" y="103.8952" transform="rotate(81.425 102.8456 104.2102)" width="27.7629" height=".6086"/>
      <rect x="91.7514" y="103.8952" transform="rotate(74.687 105.9815 104.2079)" width="28.461" height=".6086"/>
      <rect x="90.3373" y="103.8952" transform="rotate(77.854 104.3748 104.2095)" width="28.0851" height=".6086"/>
      <rect x="91.9841" y="114.7605" width="4.5466" height=".6086"/>
      <rect x="92.539" y="112.6125" width="4.2781" height=".6086"/>
      <rect x="93.1118" y="110.4645" width="3.8664" height=".6086"/>
      <rect x="93.8636" y="108.3165" width="3.4547" height=".6086"/>
      <rect x="94.4006" y="106.1685" width="3.3294" height=".6086"/>
      <rect x="94.9913" y="104.0205" width="3.0072" height=".6086"/>
      <rect x="95.4567" y="101.8725" width="2.9356" height=".6086"/>
      <rect x="96.0116" y="99.7245" width="2.6313" height=".6086"/>
      <rect x="96.6023" y="97.5765" width="2.2912" height=".6086"/>
      <rect x="97.73" y="90.327" transform="rotate(8.583 98.0372 104.2625)" width=".6086" height="27.7629"/>
      <rect x="94.5796" y="89.969" transform="rotate(15.312 94.8721 104.2163)" width=".6086" height="28.461"/>
      <rect x="96.1906" y="90.1659" transform="rotate(12.15 96.5114 104.1879)" width=".6086" height="28.0851"/>
    </g>
    <path d="M101.7038 117.9288s.0716.6265-1.2709.6265c-1.3246 0-1.253-.6265-1.253-.6265l.7697-49.8694c.0179-.2685.2327-.4833.5012-.4833.2864 0 .5012.2148.5012.4833l.7518 49.8694zm-25.8118-2.7745s.0716.5907-1.1993.5907c-1.253 0-1.1814-.5907-1.1814-.5907l.716-42.3872c.0179-.2506.2148-.4654.4654-.4654.2685 0 .4654.2148.4654.4654l.7339 42.3872zm51.6773 0s.0716.5907-1.1993.5907c-1.253 0-1.1814-.5907-1.1814-.5907l.716-42.3872c.0179-.2506.2148-.4654.4654-.4654.2685 0 .4654.2148.4654.4654l.7339 42.3872z"/>
    <path class="secondary" d="M111.1729 87.3019c-.716 2.4344-.6265 7.5001 0 10.7758.9308 4.7435 3.0251 8.3951 6.265 10.74.0537-2.148 2.1659-3.8485 4.296-4.2244s5.2089.3938 7.1779 1.253c2.7566 1.1993 5.0836 3.759 5.0836 3.759-1.1277-3.1862-1.2709-7.6433-.4296-10.919.8592-3.2757 2.9893-6.3008 5.2268-7.6075 0 0-1.4857-.9845-3.6874-.4475-5.4774 1.3246-17.9179-1.0024-21.6769-3.0967-1.3604-.7697-2.2554-.2327-2.2554-.2327z"/>
    <path d="M139.5265 91.3831a.2484.2484 0 0 1-.1611 0l-29.2844-4.2065c-.2685-.0358-.4475-.2864-.4117-.5549.0358-.2685.2864-.4475.5549-.4117l29.2665 4.2065c.2685.0358.4475.2864.4117.5549-.0179.2148-.179.3759-.3759.4117z"/>
    <path class="secondary" d="M62.4849 82.9164c1.2888 1.2351 3.3115 1.79 4.9583 1.1098 1.0382-.4296 2.0227-1.5573 2.3449-2.4881.8055.7518 2.7208 1.0382 4.2423.5728 1.9153-.5907 3.4726-1.8974 3.8843-3.8843 1.2351.4654 2.9356.358 4.117-.1611 1.7005-.7339 2.8998-2.7566 2.8998-4.117l-22.4466 8.9679z"/>
    <path d="M105.1406 84.4379s-1.6289-1.6647-4.7077-1.6647c-3.0609 0-4.7077 1.6647-4.7077 1.6647l2.2375 4.1528s1.0561.2148 2.4523.2148 2.4523-.2148 2.4523-.2148l2.2733-4.1528z"/>
    <path d="M79.1498 84.5453s-1.5573-1.5752-4.4571-1.5752-4.4571 1.5752-4.4571 1.5752l2.1301 3.938s1.0024.1969 2.327.1969 2.327-.1969 2.327-.1969l2.1301-3.938z"/>
    <path d="M130.7197 81.3233s-1.5573-1.5752-4.4571-1.5752-4.4571 1.5752-4.4571 1.5752l2.1301 3.938s1.0024.1969 2.327.1969 2.327-.1969 2.327-.1969l2.1301-3.938z"/>
    <path d="M85.916 73.6442c-.0358.0358-.0716.0537-.1253.0716l-23.8428 9.4154c-.2148.0895-.4654-.0179-.537-.2327-.0895-.2148.0179-.4654.2327-.537l23.8428-9.4154c.2148-.0895.4654.0179.537.2327.0716.179.0179.358-.1074.4654zm49.404 39.7917c.4296-.1432 1.3783-.4296 1.3783-.4296.4654-1.4678.5728-3.0072.5907-4.6719-4.1528 1.1635-12.7985 3.3831-22.6077 3.759-.0358.7518-.3043 3.0609-.6265 4.3318l3.222 6.1397m-50.8718-9.1648c.7339-.0716 1.4141-.5012 1.8974-1.0561.4833-.5549.8234-1.2351 1.1277-1.9153 3.5263.6802 7.2853 1.1993 10.8653 1.5215-.0716.6623-.1969 2.9356 0 3.7948l-1.1456 3.7232m48.2226 4.2781c.1969 0 .3759 0 .5728-.0179.0716 0 .1253 0 .179.0537.0358.0537.0537.1074.0358.179-.0179.6802-.1253 2.148.0537 2.8103.358 1.3425.5728 2.0764-.0179 2.9356-.8413 1.2709-3.4189.9487-4.5824 1.1277"/>
    <path d="M135.32 113.4359c-4.7793 1.5036-12.9775 2.5418-18.8487 2.8998-13.4966.8413-30.8059.8413-46.6653-2.2375-.1074 3.1862.5907 6.5514 2.0406 9.3438 1.432 2.7924 3.5979 5.1552 6.1934 6.7841 6.4619 2.0764 39.7559 2.5239 45.5734.6444.7339-.1611 1.3962-.6265 1.8616-1.2351.4654-.5907.8592-1.4499 1.1635-2.3628.6086-1.8616 1.4141-5.4237 2.3807-7.3748.9666-1.9511 2.6671-3.7948 5.9428-4.7614 0-.0179.179-1.2172.358-1.7005z"/>
    <g fill="none">
      <path d="M70.7189 120.5243c4.833 1.79 15.7699 2.6134 27.4407 2.7387 12.6374.1432 24.8452-.5191 30.1436-1.611m-58.3898-4.3318c4.7972 1.5394 17.005 2.7745 29.3739 2.8998 13.3534.1432 25.2032-.9308 30.8059-2.0048m-57.9244 5.7996c4.7435 1.7542 15.1434 2.6492 26.6352 2.7745 12.4226.1432 23.2163-.4833 28.4252-1.5394m-52.7155 2.0048c4.475 1.6647 14.2126 2.5418 25.0421 2.6671 11.7066.1432 21.6769-.4117 26.5994-1.432"/>
      <rect x="73.6187" y="112.2903" transform="rotate(-171.65 74.5495 113.1644)" width="1.8616" height="1.7542"/>
      <rect x="76.8407" y="112.7736" transform="rotate(-173.826 77.7704 113.6432)" width="1.8616" height="1.7542"/>
      <rect x="83.9112" y="123.5494" transform="rotate(-176.861 84.8416 124.4891)" width="1.8616" height="1.8974"/>
      <rect x="89.7645" y="124.0327" transform="rotate(-176.861 90.6978 124.9714)" width="1.8616" height="1.8974"/>
      <rect x="95.6178" y="124.1222" transform="rotate(-178.854 96.555 125.0698)" width="1.8616" height="1.8974"/>
      <rect x="101.489" y="124.2475" transform="rotate(180.0 102.4096 125.1948)" width="1.8616" height="1.8974"/>
      <rect x="107.3423" y="124.1401" transform="rotate(177.856 108.2676 125.0773)" width="1.8616" height="1.8974"/>
      <rect x="113.1956" y="123.8179" transform="rotate(177.856 114.1237 124.7559)" width="1.8616" height="1.8974"/>
      <rect x="70.5578" y="111.807" transform="rotate(-171.65 71.4929 112.6818)" width="1.8616" height="1.7542"/>
      <rect x="129.9321" y="111.3416" transform="rotate(169.052 130.8579 112.2121)" width="1.8616" height="1.7542"/>
      <rect x="133.1541" y="110.6972" transform="rotate(169.052 134.0742 111.563)" width="1.8616" height="1.7542"/>
      <rect x="126.549" y="111.9323" transform="rotate(171.189 127.4753 112.8166)" width="1.8616" height="1.7542"/>
      <rect x="119.7828" y="112.9526" transform="rotate(174.81 120.7195 113.8324)" width="1.8616" height="1.7542"/>
      <rect x="123.148" y="112.523" transform="rotate(172.658 124.0727 113.3949)" width="1.8616" height="1.7542"/>
      <rect x="116.3639" y="113.2032" transform="rotate(176.968 117.2926 114.0887)" width="1.8616" height="1.7542"/>
    </g>
    <path d="M69.8239 114.0982c-1.3067-.2506-2.1301-.3938-3.4189-.6981-.0537 1.2709.0537 2.6313.2685 4.0096.3222 2.0943.9487 4.1707 1.8079 5.8712 1.432 2.7924 2.7387 4.2602 5.6922 5.8533 1.0203.4296 2.2375.8592 3.8664 1.0919-2.5955-1.611-4.7435-3.9917-6.1934-6.7841-1.432-2.8103-2.148-6.1755-2.0227-9.3438z"/>
    <path d="M66.6556 117.4097c-.2148-1.3783-.3043-2.7566-.2685-4.0096-1.5394-.3759-4.4929-.9666-6.0502-1.2351-.179.5549-.2506 1.3067-.1969 1.8795 1.4678.3759 4.0991 1.1456 4.9762 1.6647.7697.4475 1.1635.7339 1.5394 1.7005m66.4985 3.9022s-7.6075 1.611-12.2078 1.7721v-4.0096c5.1731-.3938 13.3176-1.9332 13.3176-1.9332-.1432 2.1838-1.1098 4.1707-1.1098 4.1707z"/>
    <path d="M124.1683 122.7797v-4.0096m3.3652 3.5442v-4.0096m3.3652 3.5621v-4.0096"/>
    <path class="secondary" d="M110.7254 88.2864c-.1969-1.5394-.9129-10.9369 5.3163-13.9978-5.3163-.7697-18.5444-.6802-27.3333 8.7173 2.5597-1.1456 6.6409-2.0764 10.561-1.5752 4.8688.6086 8.8963 3.222 11.456 6.8557z"/>
    <path class="secondary" d="M86.5604 86.21c-.9666 2.506-1.3246 8.2519-.9129 11.7782.8592 7.3032 4.6182 12.1541 7.8223 14.9107.3222-2.5955 2.9893-4.0991 5.2805-4.1349 5.5311-.0895 10.203 4.8867 10.203 4.8867-.9129-3.4905-.8771-9.9882.3222-13.3892s2.2375-6.7662 4.7256-7.9655c0 0 0-.8055-2.3807-.4296-5.9249.9129-18.8845-2.6492-22.6972-5.2089-1.3783-.9308-2.3628-.4475-2.3628-.4475z"/>
    <path d="M114.3949 92.7077c-.0537 0-.1074 0-.1611-.0179l-28.7653-6.8736c-.2506-.0537-.4117-.3222-.358-.5728.0537-.2506.3222-.4117.5728-.358l28.7832 6.8736c.2506.0537.4117.3222.358.5728-.0537.2148-.2327.358-.4296.3759z"/>
    <path class="secondary" d="M62.8429 87.3019c-.716 2.4344-.6265 7.5001 0 10.7758.9308 4.7435 3.0251 8.3951 6.265 10.74.0537-2.148 2.1659-3.8485 4.296-4.2244s5.2089.3938 7.1779 1.253c2.7566 1.1993 5.0836 3.759 5.0836 3.759-1.1277-3.1862-1.2709-7.6433-.4296-10.919.8592-3.2757 2.9893-6.3008 5.2268-7.6075 0 0-1.4857-.9845-3.6874-.4475-5.4774 1.3246-17.9179-1.0024-21.6769-3.0967-1.3604-.7697-2.2554-.2327-2.2554-.2327z"/>
    <path d="M91.1965 91.3831a.2484.2484 0 0 1-.1611 0L61.751 87.1766c-.2685-.0358-.4475-.2864-.4117-.5549.0358-.2685.2864-.4475.5549-.4117l29.2665 4.2065c.2685.0358.4475.2864.4117.5549-.0179.2148-.179.3759-.3759.4117z"/>
    <g stroke="none" fill="#000">
      <path d="M132.0622 94.9094c-.3759.537-.6623 1.1277-.9129 1.7363-.2506.6086-.4117 1.253-.537 1.8974-.1074.6444-.179 1.3067-.179 1.9511 0 .6623.0716 1.3067.2327 1.9511.0358-.6444.0537-1.2888.1253-1.9332.0716-.6265.1432-1.2709.2685-1.8974.1074-.6265.2685-1.2351.4296-1.8616.179-.6265.3759-1.2351.5728-1.8437zm-6.6051-1.5215c-.358.6265-.6444 1.2888-.8771 1.969-.2327.6802-.3759 1.3962-.4833 2.1122-.0895.716-.1432 1.432-.1074 2.1659.0358.716.1253 1.432.3043 2.1301 0-.716.0179-1.432.0537-2.1301.0358-.6981.1074-1.4141.1969-2.0943.0895-.6981.2327-1.3962.3759-2.0764.1611-.6981.3401-1.3783.537-2.0764zm-10.5431-2.6313c-.1432.895-.2327 1.7721-.2685 2.6671-.0358.895-.0179 1.8079.0895 2.7029s.3043 1.79.6444 2.6492c.3222.8413.7697 1.6468 1.3783 2.327-.4475-.7697-.7876-1.5931-1.0382-2.4344-.1253-.4296-.2327-.8413-.3222-1.2709a15.2967 15.2967 0 0 1-.2148-1.3067c-.1074-.8771-.1432-1.7542-.179-2.6492s-.0358-1.7721-.0895-2.685zM79.5615 77.618c.3401.0895.6981.1074 1.0382.0537s.6981-.1611 1.0024-.3222c.3222-.1611.6086-.3759.8413-.6265.2327-.2506.4475-.5549.5549-.8771a12.0519 12.0519 0 0 1-.7876.6265c-.2685.179-.537.358-.8234.5012s-.5728.2685-.8771.3759c-.2864.0895-.6086.179-.9487.2685zm-8.6457 3.3115a4.0461 4.0461 0 0 0 1.6647.3043c.5728-.0179 1.1456-.1432 1.6826-.358.2685-.1253.5191-.2506.7697-.4117.2327-.1611.4654-.3401.6623-.5549.4117-.4117.7339-.8771.9487-1.4141-.358.4296-.7518.8234-1.1635 1.1456-.4296.3222-.8771.6086-1.3783.8055-.4833.2148-1.0024.3401-1.5394.4296-.5549.0895-1.0919.0895-1.6468.0537zm-5.7101 2.3091a2.987 2.987 0 0 0 1.1277 0c.3759-.0537.7339-.179 1.074-.358.3401-.179.6623-.3938.9308-.6623s.5191-.5907.5728-.9666c-.2327.3043-.5012.5012-.8055.6981a7.6382 7.6382 0 0 1-.9129.537c-.3043.1611-.6265.2864-.9666.4117-.3222.1253-.6623.2327-1.0203.3401zm43.0853 12.7627c-.6802.8234-1.2172 1.7721-1.6289 2.7566a13.4005 13.4005 0 0 0-.8592 3.1146c-.1611 1.074-.2148 2.148-.1611 3.222.0537 1.074.1969 2.148.4475 3.1862-.0716-1.074-.1253-2.1301-.1074-3.1862.0179-1.0561.0895-2.1122.2506-3.1504a18.1917 18.1917 0 0 1 .7518-3.0609c.3401-.9845.7876-1.9511 1.3067-2.8819zm-10.1851-1.969c-.3401.9487-.5728 1.9511-.716 2.9535s-.2148 2.0227-.1969 3.043c.0179 1.0203.1253 2.0406.3043 3.043s.4654 1.9869.8413 2.9177c-.1969-.9845-.3759-1.9869-.4833-2.9714a27.9691 27.9691 0 0 1-.2148-2.9893c-.0179-1.0024.0179-2.0048.0895-2.9893a43.1045 43.1045 0 0 1 .3759-3.0072zm-8.9679-1.8616c-.4296 1.3067-.6623 2.6671-.7697 4.0454-.0537.6802-.0716 1.3783-.0358 2.0764.0179.6981.0895 1.3783.2148 2.0764.2506 1.3604.6086 2.7029 1.1814 3.9738.2864.6265.6265 1.2351 1.0203 1.8079.4117.5549.8771 1.074 1.3962 1.5215-.4475-.5191-.8592-1.0561-1.1993-1.6468-.3401-.5728-.6444-1.1993-.8771-1.8258-.5012-1.253-.8234-2.5776-1.074-3.9022-.2506-1.3246-.3043-2.685-.2864-4.0454a22.238 22.238 0 0 1 .4296-4.0812zm-5.4058 2.7387c-.3759.537-.6623 1.1277-.9129 1.7363-.2506.6086-.4117 1.253-.537 1.8974-.1074.6444-.179 1.3067-.179 1.9511 0 .6623.0716 1.3067.2327 1.9511.0358-.6444.0537-1.2888.1253-1.9332.0716-.6265.1432-1.2709.2685-1.8974.1074-.6265.2685-1.2351.4296-1.8616.179-.6265.3759-1.2351.5728-1.8437zm-6.6051-1.5215c-.358.6265-.6444 1.2888-.8771 1.969-.2327.6802-.3759 1.3962-.4833 2.1122-.0895.716-.1432 1.432-.1074 2.1659.0358.716.1253 1.432.3043 2.1301 0-.716.0179-1.432.0537-2.1301.0358-.6981.1074-1.4141.1969-2.0943.0895-.6981.2327-1.3962.3759-2.0764.1611-.6981.3401-1.3783.537-2.0764zM66.584 90.7566c-.1432.895-.2327 1.7721-.2685 2.6671-.0358.895-.0179 1.8079.0895 2.7029s.3043 1.79.6444 2.6492c.3222.8413.7697 1.6468 1.3783 2.327-.4475-.7697-.7876-1.5931-1.0382-2.4344-.1253-.4296-.2327-.8413-.3222-1.2709a15.2967 15.2967 0 0 1-.2148-1.3067c-.1074-.8771-.1432-1.7542-.179-2.6492s-.0358-1.7721-.0895-2.685z"/>
    </g>
  </g>
</svg>
