<svg xmlns="http://www.w3.org/2000/svg" fill="#d7374a" stroke="#000" viewBox="50 50 200 200">
  <metadata source="http://wappenwiki.org/images/8/82/Alfonso_VIII_of_Castile.svg" license="https://creativecommons.org/licenses/by-nc-sa/3.0"/>
  <g id="castle" stroke-width=".4">
    <path d="M109.3 63.4H90.8l-.2 1.9 1.4 1.9h16l1.6-1.9zM92 67.2h16V102H92zM90.8 60h3.8v3.4h-3.8zm14.7 0h3.8v3.4h-3.8zM98 60h4.2v3.4H98zm-5.8 13h15.7m-15.7 5.6h15.7m-15.7 5.6h15.7m-15.7 5.7h15.7M92.2 67.2h15.7M92 95.6h16m-8 5.7v-5.7m0-5.7v-5.7m0-5.7v-5.7m3.9 22.9V90m-7.7 5.7V90m7.7-5.8v-5.7m-7.7 5.7v-5.7m7.7-5.7v-5.6m-7.7 5.6v-5.6m13.4-1.9h-19"/>
    <path class="secondary" d="M98 72.7c0-1.2 1-2.4 2-2.4s2 1.2 2 2.4V87h-4V72.7z"/>
    <path d="M115.6 66.6h3.1v3.5h-3.1zm5.4 0h3.6v3.5H121zm5.9 0h3.1v3.5h-3z"/>
    <path d="M130 70h-14.4l-.2 1.9 1.6 2h11.6l1.6-2zm-13 3.9h11.5v26.7h-11.4zm0 5.3h11.6M117 84.6h11.6M117 90h11.6M117 95.5h11.6m-5.8-5.5v-5.4m0-5.3V74m3.8 21.6V90m-7.6 5.6V90m7.6-5.4v-5.4m-7.6 5.4v-5.4m11.2-7.3h-14.8"/>
    <path class="secondary" d="M120.9 79c0-1.3.8-2.5 2-2.5 1 0 1.8 1.2 1.8 2.4v9.2h-3.8z"/>
    <path d="M69.9 66.7H73v3.5h-3.1zm5.4 0h3.6v3.5h-3.6zm5.9 0h3.1v3.5h-3z"/>
    <path d="M84.3 70.1H69.9l-.2 1.9 1.6 2h11.6l1.6-2zm-13 3.9h11.5v26.7H71.4zm0 5.3h11.6m-11.6 5.4h11.6m-11.6 5.4h11.6m-11.6 5.5h11.6m-5.8-5.5v-5.4m0-5.3v-5.3m3.8 21.6v-5.6m-7.6 5.6v-5.6m7.6-5.4v-5.4m-7.6 5.4v-5.4M84.5 72H69.7"/>
    <path class="secondary" d="M75.2 79.1c0-1.3.8-2.5 2-2.5 1 0 1.8 1.2 1.8 2.4v9.2h-3.8z"/>
    <path d="M70.3 99h59.4v34.5H70.3z"/>
    <path d="M126.6 135.4H73.4L69 133l-1.2 3 4.4 3.8h55.6l4.4-3.7-1.2-3.1zm3.1-4.1l-3.5 2.1H73.8l-3.5-2L69 133l4.4 2.4h53.2l4.4-2.4zm-20.4-20.5h16.9m-52.4 16.8H92m15.8.2h18.5M73.8 122H92m15.8.2l18.4.1m-3.4 5.6v-5.7m0-5.7v-5.7m-7.7 17.1v-5.7m0-5.7v-5.7m3.9 22.6V128m0-5.8v-5.7m0-5.7v-5.6m-7.7 5.8v-6m0 28.4V128m0-5.9v-5.7m-41-.1H92m15.8.2h22m-.1 9.6l-3.5 1.8m3.5-6.5l-3.5.9m0-17.3l3.5 1.8m-3.5 4l3.5.8m-59.4 14.3l3.5 1.7m-3.5-6.4l3.5.8m.1-17l-3.6 1.8m3.6 4l-3.6.8m52.5-6.4v-5.8m-7.7 5.8v-5.8m-22.5 0v5.8M77.2 122v5.7M85 122v5.7m-4 .1v5.5m0-17v5.7m0-16.8v5.6m7.7-5.7v5.9m0 16.8v5.4m0-17v5.7M77.2 99.4v5.8m7.8-5.8v5.8m-11.2-4.9v33.1m52.4-33.1v33.1m-26.4-28.2v-5.8m7.7 5.8v-5.8m-33.6 11.4h16.9M73.9 105h52.3"/>
    <path fill="none" d="M126.2 133.4l.4 2m1.2 4.4l-1.2-4.4m-52.8-2l-.4 2m-1.2 4.4l1.2-4.4"/>
    <path d="M107.6 103.7l2.6 1.5v3.2l-2.6-1.5zM92.4 107l-2.6 1.4v-3.2l2.6-1.5zm2.6-3.4h3.6v3.5H95zm6.4 0h3.6v3.5h-3.6zm-10.4 7h17.8v29.2H91z"/>
    <path d="M92.6 109h14.8l2.8 1.5v-2l-2.6-1.6H92.4l-2.6 1.5v2.1z"/>
    <path d="M93.6 127.6h2.1v4.1h-2.1zm2.1 8.1l1.3 4.1h-3.4v0-4zm-.2-19.7a6 6 0 012.5-1.4l.7 2.7-1.7.7-1.9-1.5zm8.8 0a6 6 0 00-2.5-1.4l-.7 2.7 1.6.7 2-1.5zm-12.1 7.7h3.5v3.9h-3.5zm0 8h3.5v4h-3.5zm13.7-16.1l-3.2 2.4.6 1.7h4.3c-.2-1.5-.8-3-1.7-4.1zm-1.9 8.1h3.6v3.9h-3.5zm0 8h3.6v4h-3.5zm-6.4-18.5l1.1 4.1h2.4l1.1-4.1c-.7-.2-1.5-.4-2.3-.4-.8 0-1.6.2-2.3.4zm-3.6 2.4l3 2.4-.5 1.7h-4.3c.2-1.5.8-3 1.7-4.1zm12.2 8.1v-4h-2.9c.1 4.5-1.3 4 2.9 4zm-10.5 0h-2.1v-4h2.9zm8.4 3.9h2.1v4l-2.2.1zm0 8.1l-1.4 4.1h3.5v0-4zm-13-23.7l2-1h13.7l2 1 1.4-1.5-2.8-1.5H92.6l-2.8 1.5z"/>
    <path class="secondary" d="M95.2 120.6c0-3 2-4.8 4.7-4.8s4.8 1.9 4.8 5.3v18.7h-9.5v-19.2z"/>
    <path d="M70.3 102.4l3.5-2.1h52.4l3.5 2 1.3-1.6-4-2.4H73l-4 2.4zm57.5-11.2l3.7 2.5v3.7l-3.7-2.5zm-55.6 0l-3.7 2.5v3.7l3.7-2.5zm46.2 0h5V95h-5zm-41.8 0h5V95h-5zm25.1 0h5V95h-5zm8.3 0h5V95h-5zm-25 0h5V95h-5zm8.4 0h4.9V95h-5z"/>
    <path d="M127 98.3H73l-4 2.4-.5-3.3 3.7-2.5h55.6l3.7 2.5-.5 3.3z"/>
    <path fill="none" d="M73 98.3l.8 2m52.4 0l.9-2"/>
    <path class="secondary" d="M113.2 110.1c0-1.2.9-2.4 2-2.4 1 0 1.8 1.2 1.8 2.4v15.5h-3.8V110v0zm7.4-.1c0-1.2.9-2.3 2-2.3 1 0 2 1.2 2 2.4v15.5h-4zm-45.3.1c0-1.2 1-2.4 2-2.4s2 1.2 2 2.4v15.5h-4V110v0zm7.5 0c0-1.2.9-2.4 2-2.4 1 0 1.9 1.2 1.9 2.4v15.5h-3.9z"/>
  </g>
</svg>
