<svg xmlns="http://www.w3.org/2000/svg" fill="#d7374a" stroke="#000" viewBox="50 50 200 200">
  <metadata source="http://wappenwiki.org/images/6/64/Bonanno.svg" license="https://creativecommons.org/licenses/by-nc-sa/3.0"/>
  <g id="catPassantGuardant" stroke-width=".39">
    <g>
      <g stroke-linejoin="round">
        <path class="secondary" d="M61.2 117.14c.3.97 1.6 2.08 2.5 1.64.02-.58-.98-1.1-.67-2.51"/>
        <path d="M74.91 101.66c-1.39.52-1.83 1.22-3.13 1.9-1.5.8-2.72.85-4.13 1.87-.51.36-1 .77-1.6 1.03-.59.27-2.73.56-3.34.77-.94.33-2.25 1.04-2.03 3.19.3 2.3-.76 2.69-.52 4.99-.5.69.08 1.91.7 1.95.43.03.45-.38.75-.64.48-.43 1.13-.5 1.49-.3l3.18-1.05c.43-.33.58-1.12.08-1.8-1.56-2.14-.56-1.85-1.22-2.8 1.57-.57 3.75.25 5.47-.31.53-.17.94-.51 1.5-.54.35-.02.68.17 1.03.17 2.3.04 2.07-.54 4.24-.67"/>
        <path class="secondary" d="M66.34 115.23c-.3 1.4.7 1.92.68 2.5-.9.46-2.2-.64-2.5-1.63-.06-.16.38-.44.5-.59.14-.18.9-.26 1.26-.13m-1.99.35c-.31 1.4.69 1.93.68 2.51-.91.46-2.21-.65-2.51-1.63-.04-.15-.04-.34-.04-.49 0-.09.66-.24.99-.28"/>
        <path d="M64.23 115.89c-.34-.2-1-.13-1.49.3-.3.27-.32.65-.75.64-.8-.07-1.18-.87-.65-1.56"/>
        <path d="M66.27 115.42c-.34-.2-1-.13-1.49.3-.3.27-.19.64-.62.63-.73-.12-1.23-.9-.61-1.64"/>
      </g>
      <g stroke="none" fill="#000">
        <path d="M61.21 115.12c.16-.13.17-.44.14-.74-.02-.31-.05-.62-.05-.95a3.96 3.96 0 0 1 .42-1.86l.04.02a4.38 4.38 0 0 0-.22 1.83c.02.31.07.61.13.92.02.16.05.33.03.51 0 .18-.06.39-.2.55l-.29-.28zm2.18-.53c.04-.04.06-.14.03-.27-.01-.12-.07-.26-.1-.4l-.26-.81a3.27 3.27 0 0 1-.13-.86c-.02-.29.02-.58.13-.86l.04.01a4.55 4.55 0 0 0-.06.42l.03.42c.04.27.12.54.2.8l.33.78c.05.13.12.28.16.43.02.08.04.16.04.26a.52.52 0 0 1-.08.3l-.33-.22z"/>
        <path d="M63.42 114.58a1.43 1.43 0 0 1 .36-.38 1.69 1.69 0 0 1 .46-.23c.16-.07.32-.1.5-.13l.24-.03c.08 0 .17-.01.25.04-.08.06-.15.08-.22.1l-.23.08-.4.2c-.13.09-.25.18-.35.27-.12.09-.2.2-.31.3l-.3-.22zm-2.24.6a.76.76 0 0 1 .24-.34c.1-.1.22-.17.32-.24.12-.06.24-.1.37-.14l.18-.05c.06-.01.12-.04.2 0a.26.26 0 0 1-.15.13l-.14.1-.27.22-.23.24-.18.24-.34-.17zm3.81-4.3a1.2 1.2 0 0 1 0-1.2c-.07.39.08.75.32.96l-.32.23zm5.92-2.95c.2-.1.44-.13.67-.13.24 0 .46.04.68.08.22.04.43.07.62.07.21 0 .38-.04.58-.12.2-.07.39-.17.62-.25a2.47 2.47 0 0 1 .69-.11c.47-.03.9.05 1.34.15-.44.05-.9.07-1.31.14-.21.04-.42.1-.6.17l-.61.26c-.12.04-.24.08-.36.1h-.36c-.25 0-.47-.07-.69-.14-.43-.1-.82-.27-1.27-.22z"/>
      </g>
    </g>
    <g>
      <g stroke-linejoin="round">
        <path class="secondary" d="M103.88 128.73c-1.4.32-1.46 1.45-2 1.68-.79-.64-.34-2.29.42-2.96a2.08 2.08 0 0 1 1.68.41"/>
        <path class="secondary" d="M105.57 129.64c-1.4.32-1.46 1.45-2 1.68-.79-.64-.34-2.29.42-2.96.38-.04.76-.04 1.1.09s.67.39.83.73m-3.9-1.36c-1.4.32-1.46 1.45-2 1.68-.79-.64-.34-2.29.42-2.96.35-.07.73-.1 1.08-.03.26.07.54.18.67.42"/>
        <path d="M119.11 110.89c-.48 1.32.18 2.6-.23 3.69-.6 1.58-1.95 2.47-3.5 3.16-2.61 1.15-5.91 3.94-6.2 8.08-.03 1.38-1.5 3.03-1.99 3.53a1.9 1.9 0 0 1-1.75.44c.04-.4-.3-.96-.9-1.21-.37-.16-.73-.02-.9-.42l.03.5s-.24-.74-.83-1c-.37-.15-.73 0-.9-.4l-.07.55c0-.25-.3-.8-.88-1.05-.36-.16-.74-.01-.9-.42-.22-.58.28-1.53 1.1-1.38.55 0 2.6-.3 3.7-2.18 1.26-2.6 2.6-3.47 3.96-5.82.32-.55.63-1.1.78-1.73.32-1.34-1.39-2.65-1.22-4.8.1-1.18-.6-2.73 0-3.76.26-.44.72-.75 1.16-1a12.83 12.83 0 0 1 4.42-1.45c1.5-.22 3.06-.24 4.58-.24l3.5-.01c.08 0 .16 0 .21.05.07.07.06.18.03.27a10.9 10.9 0 0 1-.77 2.19"/>
      </g>
      <path fill="none" d="M104.88 126.9c-.94-.25-1.43.53-1.24 1.25m-.6-2.29c-.85-.18-1.37.64-1.1 1.38"/>
      <g stroke="none" fill="#000">
        <path d="M106.52 125.43c0 .05.02.1 0 .16l-.03.15-.1.3a2.03 2.03 0 0 1-.86.93 1.01 1.01 0 0 1-.7.11l.06-.37c.14 0 .3-.04.47-.1a2.3 2.3 0 0 0 .84-.68l.16-.24.06-.13.1-.13zm-1.58-.9.02.16-.04.16-.07.15-.08.15a2.05 2.05 0 0 1-1.05.82c-.22.07-.45.11-.7.06l.04-.38c.35-.01.74-.1 1.08-.28a2 2 0 0 0 .46-.35l.1-.12.07-.12.07-.13.1-.13z"/>
        <path d="M104.92 126.7a1.9 1.9 0 0 1 .96.52c.13.14.23.3.31.46l.1.25c.03.08.07.17.07.26-.07-.07-.1-.15-.16-.21l-.15-.2a2.18 2.18 0 0 0-.8-.52l-.44-.15.1-.4zm-1.84-1.03a.9.9 0 0 1 .38.1 2.26 2.26 0 0 1 .64.44l.13.14c.04.06.07.1.09.17l-.16-.09-.15-.08c-.1-.05-.23-.07-.33-.11l-.34-.1-.3-.08.04-.4zm-1.88-.93c.13-.02.27 0 .4.06s.25.13.34.2l.26.24.13.1.15.1h-.18l-.18-.05-.34-.13-.28-.08-.29-.03-.01-.4z"/>
      </g>
      <g stroke-linejoin="round">
        <path class="secondary" d="M130.77 129.98c-1.4.31-1.45 1.45-1.99 1.68-.79-.64-.35-2.29.42-2.97a2.08 2.08 0 0 1 1.68.42"/>
        <path class="secondary" d="M132.46 130.9c-1.4.3-1.45 1.43-1.99 1.67-.79-.64-.35-2.29.42-2.97.38-.03.75-.03 1.1.1s.67.39.82.72m-48.32-.44c-1.4.31-1.45 1.45-1.99 1.68-.79-.64-.35-2.29.42-2.97a2.08 2.08 0 0 1 1.68.42"/>
        <path class="secondary" d="M86.18 130.9c-1.4.3-1.45 1.43-1.99 1.67-.79-.64-.35-2.29.42-2.97.38-.03.75-.03 1.1.1s.67.39.82.72m-3.9-1.36c-1.4.31-1.45 1.44-1.98 1.68-.8-.64-.36-2.3.41-2.97.35-.06.73-.1 1.08-.02.26.06.53.18.66.41m46.11.9c-1.4.31-1.45 1.44-1.99 1.68-.79-.64-.35-2.3.42-2.97.35-.06.73-.1 1.08-.02.26.06.53.18.66.41"/>
        <path d="M68.39 86.19c1.1 3.14-.15 3.14.24 5.22.52 2.78.19 2.24.1 4.76-.06 1.35.84 2.35 1.14 3.78.14.73.17 1.5.39 2.21a9.83 9.83 0 0 0 3.31 4.53c.3.2.63.32.91.54.9.68 1.17 1.8 1.94 2.63.87.92 1.55 1.65 2.8 1.9.37.07 1.14.14 1.53.16 1.06 1.68 1.16 2.41 1.48 3.32.48 1.34 1.7 2.1 1.99 3.48.1.43 1.08 2.08.83 5.33-.26 1.89-2.69 2.14-3.24 2.14-.83-.16-1.32.79-1.1 1.37.16.4.53.26.9.42.58.25.88.8.88 1.05l.07-.56c.16.4.53.26.9.42.58.25.83.99.83.99l-.03-.5c.17.4.53.26.9.42.58.25.93.82.9 1.2.19.1 1.15.18 1.75-.43.48-.48 1.94-2.08 1.96-3.46.03-1.24-.74-1.57-.57-4.47.08-2.28.78-4.07.3-6.06-.44-1.82-.21-1.55-.18-3.45 3.83.89 6.83-.98 9.55-.5 2.91.5 6.81-1.07 9-2.24 1.18-.64 2.84-1.1 4.13-1.48 1.34-.4 2.3-.61 4.25-1.44 1.34 3.4 3.17 5 5.62 6.1.86.4 2.65.7 3.47 1.15.87.48 2.14 1.16 2.98 1.83.75.6 1.53 1.03 2.1 1.82 1.26 1.77 1.19 3.5.9 5.66-.26 1.88-2.7 2.13-3.24 2.13-.83-.16-1.32.8-1.1 1.38.15.4.53.26.9.41.58.25.88.81.88 1.06l.06-.56c.17.39.54.26.9.41.58.25.83 1 .83 1l-.02-.5c.16.39.53.26.9.41.58.25.93.82.89 1.21.2.1 1.16.17 1.75-.44.49-.48 1.94-2.08 1.97-3.46.02-1.23-.74-1.57-.57-4.47.15-1.8.35-2.47.63-4.26.1-.68.64-1.63.63-2.32-.02-.69-.13-1.41-1.06-1.65a5.24 5.24 0 0 1-3.13-1.83 7.05 7.05 0 0 1-1.66-4.95c.5-3.62 1.76-5.32.7-9.61 2.59.41 9.03-3.06 8.15-11.05-.55-4.88-4.25-7.67-8.97-8.69-10.2-2.17-19.66 3-27.43 1.2-3.08-.71-4.93-2.38-5.25-5.1-.33-2.79 2.22-4.5 4.08-4.56 1.01-.02 3.1.33 3.31 2.63.04.24.1.56.4.56.24 0 .41-.37.5-.68.55-2.26-1.64-4.89-4.67-4.89a6.76 6.76 0 0 0-6.89 7.46c.43 4.18 2.97 6.71 7.88 7.75 7.71 1.64 18.74-3.12 26.73-1 3.33.89 5.85 2.61 6.25 5.7.6 4.45-2.67 7-5.37 6.73-4.82-5.88-12.23-5.36-18.75-4.51-2.75.36-4.97 1.12-7.69 1.6-5.8 1.02-12.04.9-14.12-.85-.93-.8-2.63-1.43-3.09-2-1.14-1.44-.92-2.83-1.83-4.35"/>
      </g>
      <g stroke="none" fill="#000">
        <path d="M79.38 108.09c.23.27.4.58.51.91.13.33.22.66.3 1 .08.34.14.65.27.96.12.3.28.59.45.87l-.33.21a4.34 4.34 0 0 1-.48-.95c-.12-.33-.18-.69-.25-1.01-.06-.34-.11-.66-.22-.98-.09-.32-.2-.63-.28-.97l.03-.04zm10.12-3.91c.15.74.36 1.45.53 2.2.08.38.16.76.18 1.15.04.4.02.78-.04 1.17-.09.77-.26 1.5-.39 2.25-.13.74-.27 1.48-.28 2.22h-.4a17.15 17.15 0 0 1 .3-2.28c.15-.75.32-1.49.44-2.23.05-.36.09-.73.06-1.1a8.03 8.03 0 0 0-.14-1.1c-.14-.75-.31-1.5-.31-2.27l.05-.01zm24.07-6.6a11.17 11.17 0 0 1 1.94 4.82c.13.87.16 1.73.29 2.57l.11.62.15.62.18.6.2.6-.36.15a10.74 10.74 0 0 1-.67-2.54c-.12-.87-.15-1.73-.25-2.57a10.9 10.9 0 0 0-.61-2.47c-.29-.8-.68-1.57-1.01-2.37l.03-.02zM79.1 98.83l.04.7-.02.68a11.75 11.75 0 0 1-.09 1.38 3.25 3.25 0 0 1-.2-2.1c.06-.22.14-.45.27-.66zm-1.04 5.66c.06.23.12.44.2.63a7.51 7.51 0 0 0 .51 1.15l.35.56a1.82 1.82 0 0 1-1-.97c-.1-.22-.15-.45-.18-.68a1.4 1.4 0 0 1 .12-.7zm11.43-4.63c.11.04.2.12.27.2s.12.18.14.28c.03.1.04.2.03.31a.65.65 0 0 1-.13.31c-.08-.09-.13-.18-.17-.26l-.1-.24-.04-.26v-.34zm15.44 7.76a.87.87 0 0 1-.18.47 1.18 1.18 0 0 1-.89.45.86.86 0 0 1-.5-.13l.44-.17.38-.18.36-.2.39-.24zm-3.1.78c-.09.13-.19.22-.28.3l-.3.23a2.77 2.77 0 0 1-.7.38c.02-.16.09-.29.18-.4.1-.12.18-.21.3-.29a1.43 1.43 0 0 1 .38-.18.78.78 0 0 1 .43-.04zm-3.5 1.34c-.1.12-.21.2-.32.27a2.26 2.26 0 0 1-.72.3 1.5 1.5 0 0 1-.43.04.98.98 0 0 1 .3-.31c.11-.08.23-.16.36-.21a1.14 1.14 0 0 1 .82-.1zm-3.3.86c-.14.13-.3.22-.47.28a1.86 1.86 0 0 1-1.1.07 1.29 1.29 0 0 1-.5-.24l.53-.07.5-.04.51-.03.54.03zm29.37 2.38h.55l.5.05.51.08c.17.03.34.07.52.14-.17.09-.35.14-.53.17-.18.02-.36.02-.55 0a2.47 2.47 0 0 1-.53-.15 1.5 1.5 0 0 1-.47-.3zm5.8-13.12c.13.52.2 1.06.24 1.6V102.65l-.03.4a9.84 9.84 0 0 1-.83 3.13l.24-1.59c.08-.52.15-1.05.2-1.57l.04-.39.02-.39.03-.39.03-.39.06-1.61zm-43 15.77a.8.8 0 0 1 .23.58c0 .1-.01.21-.04.3a.6.6 0 0 1-.17.29.78.78 0 0 1-.14-.3c-.03-.1-.04-.2-.04-.29 0-.09 0-.2.03-.28.02-.1.05-.2.13-.3zm-.38 1.9c.1.06.13.15.14.24a.5.5 0 0 1-.2.48c-.08.06-.17.1-.28.07l.04-.25.05-.18.1-.17a.64.64 0 0 1 .15-.2zm-.16-2.67-.2-.12-.12-.11a1.43 1.43 0 0 1-.08-.15.91.91 0 0 1-.05-.23c.09-.04.18-.03.26 0a.4.4 0 0 1 .18.14.4.4 0 0 1 .08.21c.01.1 0 .17-.07.26zm26.6-1.03.3-.09.29-.09.28-.09.28-.12c.35-.15.67-.36.96-.62s.53-.57.84-.86l.25-.2a3.12 3.12 0 0 1 .27-.16l.16-.07.16-.05.3-.04c-.38.17-.67.43-.92.73-.24.3-.48.65-.8.94-.31.3-.7.52-1.12.62l-.31.08-.31.04h-.32c-.1 0-.2 0-.3-.02zm20.53 1.91c0 .19.01.34.04.48.02.15.08.28.13.42a2.13 2.13 0 0 0 .53.74.73.73 0 0 1-.53-.14 1.07 1.07 0 0 1-.43-1c.02-.21.12-.4.26-.5zM70.97 96c.15.14.19.35.19.54s-.04.38-.1.55l-.15.48c-.05.16-.08.3-.08.5-.16-.11-.22-.33-.23-.53-.02-.2.04-.39.07-.55l.17-.49c.07-.15.12-.3.13-.5zM72.88 94c.1.1.13.18.17.29.03.1.04.2.04.3 0 .1-.02.2-.06.28a.6.6 0 0 1-.2.26c-.06-.1-.09-.2-.11-.3-.02-.09-.03-.18-.02-.27 0-.1.03-.18.05-.27.02-.1.06-.18.13-.29z"/>
      </g>
      <path fill="none" d="M131.77 128.15c-.93-.25-1.43.53-1.23 1.25m-.59-2.3c-.85-.17-1.37.65-1.1 1.39"/>
      <g stroke="none" fill="#000">
        <path d="M133.41 126.68c.02.05.03.1.02.16l-.04.15-.1.3a2.03 2.03 0 0 1-.87.92 1.01 1.01 0 0 1-.68.12l.05-.38c.14 0 .3-.03.47-.1.15-.06.3-.16.45-.27.14-.12.27-.25.39-.4l.16-.24.06-.13.1-.13zm-1.57-.91.01.17-.04.16-.06.15-.08.14a2.05 2.05 0 0 1-1.05.82c-.22.08-.46.12-.7.07l.03-.38c.36-.01.75-.1 1.08-.28a2 2 0 0 0 .47-.36l.1-.11.07-.12.07-.13.1-.13z"/>
        <path d="M131.81 127.95a1.9 1.9 0 0 1 .96.52c.13.13.24.29.32.46l.1.25c.03.07.07.17.07.26-.07-.07-.1-.15-.16-.21l-.16-.2a2.18 2.18 0 0 0-.79-.52l-.44-.15.1-.4zm-1.83-1.04a.9.9 0 0 1 .38.1 2.26 2.26 0 0 1 .63.45l.13.14c.04.05.08.1.1.17l-.16-.09-.16-.08c-.1-.05-.22-.08-.32-.11l-.34-.1-.31-.09.05-.39zm-1.89-.92c.13-.03.28 0 .4.05s.25.13.35.21l.26.23.13.1.15.1h-.18l-.18-.04-.34-.13-.29-.08-.28-.04-.02-.4zm3.33-27.87c-.06-.2-.13-.43-.22-.64l-.3-.6a5.55 5.55 0 0 0-.84-1.1l.02-.03a5.98 5.98 0 0 1 1.4 1.59c.11.2.22.43.3.65l-.36.13zM79.15 94.5c.05.1.08.19.1.28 0 .08 0 .17-.04.24a.67.67 0 0 1-.31.42.84.84 0 0 1-.09-.27.54.54 0 0 1 .03-.25.69.69 0 0 1 .31-.42zm-2.4-.44c.13.07.19.21.2.34a.83.83 0 0 1-.05.36 1.95 1.95 0 0 1-.14.3l-.18.28a.48.48 0 0 1-.1-.37c0-.13.03-.23.06-.33l.1-.28c.04-.09.1-.17.12-.3zm4.34-1.45c.06.1.1.2.13.28l.07.21.04.1.06.12c0 .05.04.1.04.17s0 .13-.06.18c-.09-.09-.15-.1-.23-.17l-.12-.1a.39.39 0 0 1-.09-.16.65.65 0 0 1-.01-.35.5.5 0 0 1 .17-.28zm-6.4 1.95c.05.05.08.13.1.2l-.03.2-.1.3-.02.26c0 .09.01.2.06.34a.47.47 0 0 1-.35-.24.58.58 0 0 1-.06-.44c.04-.17.13-.26.2-.35.07-.1.15-.14.2-.27zm-1.44 3.84a.8.8 0 0 1 .08.42l-.03.34v.32l.01.38a.56.56 0 0 1-.3-.3c-.06-.13-.09-.27-.09-.41s.07-.3.12-.4l.2-.35zm3.12.63c-.07-.04-.12-.13-.14-.2a.58.58 0 0 1-.02-.27c.03-.17.1-.31.17-.43l.18-.32.17-.4a.65.65 0 0 1 .13.46c0 .16-.06.33-.14.46l-.22.32c-.05.1-.12.21-.13.38z"/>
      </g>
      <path fill="none" d="M85.5 128.15c-.94-.25-1.44.53-1.24 1.25m-.59-2.3c-.85-.17-1.37.65-1.1 1.39"/>
      <g stroke="none" fill="#000">
        <path d="M87.13 126.68c.02.05.03.1.02.16l-.04.15-.1.3a2.03 2.03 0 0 1-.87.92 1.01 1.01 0 0 1-.68.12l.05-.38c.14 0 .3-.03.47-.1.15-.06.3-.16.45-.27.14-.12.27-.25.39-.4l.16-.24.06-.13.1-.13zm-1.56-.91.02.17-.04.16-.07.15-.08.14a2.05 2.05 0 0 1-1.05.82c-.22.08-.45.12-.7.07l.04-.38c.35-.01.74-.1 1.08-.28a2 2 0 0 0 .46-.36l.1-.11.07-.12.07-.13c.02-.04.05-.1.1-.13z"/>
        <path d="M85.55 127.95a1.9 1.9 0 0 1 .96.52c.13.13.23.29.31.46l.1.25c.03.07.07.17.07.26-.07-.07-.1-.15-.16-.21l-.15-.2a2.18 2.18 0 0 0-.8-.52l-.44-.15.1-.4zm-1.85-1.04a.9.9 0 0 1 .38.1 2.26 2.26 0 0 1 .63.45l.13.14c.04.05.08.1.1.17l-.16-.09-.16-.08c-.1-.05-.22-.08-.32-.11l-.34-.1-.31-.09.05-.39zm-1.89-.92c.13-.03.28 0 .4.05s.26.13.35.21l.26.23.13.1.15.1h-.18l-.18-.04-.34-.13-.29-.08-.28-.04-.01-.4z"/>
      </g>
      <path stroke-linejoin="round" d="M72.1 90.24c.15.59.54 1.1.91 1.37a4.88 4.88 0 0 0 3.03.79 4.81 4.81 0 0 0 3.03-.8c.38-.27.77-.77.91-1.36"/>
      <path d="M85.3 78.3c.31.42.43.97.43 1.5 0 .68-.24 1.29-.12 1.95.1.56.01.78.25 1.3.04.1.1.2.13.3.13.5-.35.91-.43 1.38-.04.2.18.38.17.6-.02.2-.18.3-.28.46-.15.3.04.65-.13.89a.4.4 0 0 1-.14.12l-.69.44s-1.04 1.47-1.9 1.64a5.3 5.3 0 0 1-1.22 1.4 2.78 2.78 0 0 1-1.22.48 6.63 6.63 0 0 1-4.1-.73s-.86.4-1.41.55a6.66 6.66 0 0 1-2.68.18 2.78 2.78 0 0 1-1.22-.48 5.3 5.3 0 0 1-1.22-1.4c-.86-.17-1.9-1.64-1.9-1.64l-.69-.44c-.05-.04-.1-.07-.14-.12-.17-.23.02-.61-.13-.88-.1-.17-.26-.26-.28-.47 0-.22.21-.38.17-.6-.07-.46-.56-.87-.43-1.38.03-.1.1-.2.13-.3.24-.52.16-.73.25-1.3.12-.66-.12-1.27-.12-1.95 0-.53.12-1.08.43-1.5l-.63-3.87 4.07.24c.48-.74 1.92-1.24 2.9-1.26.14-.13.64-.37 1.03-.47.67-.17 1.02-.22 1.89-.22s1.2.05 1.88.22c.4.09.9.32 1.04.47.97.02 2.3.35 2.92 1.26l3.34-.56.05 4.18z"/>
      <path d="M81.88 74.67c1.03-1.07 3.13-1.37 3.59-3.7.08-.45.27-.3.39 0 1.02 2.53 1.02 5.41-.61 7.3m-15.02-3.6c-1.03-1.07-3.13-1.37-3.59-3.7-.07-.45-.27-.3-.39 0-1.02 2.53-1.02 5.41.61 7.3"/>
      <g stroke="none" fill="#000">
        <path d="m77.47 82.73.13.84c.04.28.03.56.06.85s.06.56.11.84c.04.29.1.56.17.85l-.02.01a8.53 8.53 0 0 1-.51-1.65c-.05-.29-.13-.57-.12-.87.01-.3.04-.59.17-.87h.01zm.86 5.31a12.44 12.44 0 0 1 2.94-1.85 3.77 3.77 0 0 1 1.14-.28l-1.01.55-.99.57a12.56 12.56 0 0 1-2.08 1.01zm.38.88c.27-.21.56-.38.84-.55a9.58 9.58 0 0 1 1.86-.77c.33-.08.68-.11 1.02-.08l-.93.38-.9.4-.92.35c-.3.1-.63.2-.97.26zm4.78-11.68c-.09-.25-.09-.53-.02-.8.06-.25.18-.5.3-.73.27-.46.58-.87.87-1.29.28-.42.54-.84.75-1.3.2-.46.33-.95.38-1.46.1.51.08 1.06-.1 1.56a5.38 5.38 0 0 1-.7 1.42l-.46.63a10.63 10.63 0 0 0-.46.6c-.31.4-.58.84-.56 1.37zm-14.9 0c.03-.53-.24-.96-.53-1.36l-.45-.61-.46-.63a5 5 0 0 1-.71-1.42 3.19 3.19 0 0 1-.1-1.56c.06.52.17 1 .38 1.46a7.67 7.67 0 0 0 .76 1.3c.28.42.6.83.85 1.29.13.23.25.48.32.74.04.26.04.54-.06.8zm15.06 3.4c.06-.07.1-.12.15-.15.04-.04.1-.06.13-.08l.15-.02.22.02c.01.1-.03.19-.07.24-.04.06-.1.1-.17.13a.39.39 0 0 1-.2.01.39.39 0 0 1-.21-.14zm-.18 1.13.22-.08.15-.02.16.04c.05.03.12.06.2.12-.04.1-.11.16-.17.18a.32.32 0 0 1-.23.04.57.57 0 0 1-.2-.08.26.26 0 0 1-.13-.2zm-.37.93c.1-.04.16-.05.22-.05s.12 0 .16.03c.05 0 .09.05.13.09l.13.18a.39.39 0 0 1-.2.1c-.07.02-.14 0-.2-.02s-.12-.07-.16-.12c-.04-.04-.07-.1-.08-.2zm-.57.78.18.05.1.04c.02.02.03.05.04.1l.07.18a.23.23 0 0 1-.2.09.26.26 0 0 1-.18-.08.26.26 0 0 1-.09-.17c0-.07.02-.14.08-.2zm-2.08-8.4c.07.16.1.3.12.43l.1.37.16.3c.06.11.14.2.28.3a.56.56 0 0 1-.5-.06.75.75 0 0 1-.3-.4 1.07 1.07 0 0 1 .14-.94zm-8.8 0a.91.91 0 0 1 .18.43c.03.16.01.33-.04.5a.8.8 0 0 1-.31.4c-.14.09-.34.14-.5.06.14-.09.23-.2.3-.3l.15-.3.1-.37.12-.42zm6.37 1.02a.55.55 0 0 1 .32.02c.1.03.19.08.26.15a1.04 1.04 0 0 1 .2.22c.05.09.09.18.09.3-.12 0-.2-.04-.3-.08a1.3 1.3 0 0 1-.22-.14.87.87 0 0 1-.18-.2.65.65 0 0 1-.17-.27zM76 74.52c.08.1.12.2.16.3a1.17 1.17 0 0 1 0 .6c-.03.1-.08.2-.16.3a1.1 1.1 0 0 1-.15-.3 1.17 1.17 0 0 1 0-.6c.04-.1.08-.2.15-.3zm1.28-.63.3.05.23.09.2.13.24.2a.5.5 0 0 1-.3.1.78.78 0 0 1-.3-.07c-.1-.03-.19-.1-.26-.2s-.11-.19-.11-.3zm1.29 5.25a2.34 2.34 0 0 1 .62-.31 2.96 2.96 0 0 1 1.36-.1c.23.03.46.1.67.2a10.95 10.95 0 0 1-1.33.14l-.65.04c-.22.03-.44.04-.67.03zm6.78-3.32c.08.13.1.26.1.4s0 .28-.06.4a.94.94 0 0 1-.2.35c-.09.1-.19.2-.33.25l.06-.4.1-.33.14-.33.2-.34zm-10.7 6.9a2.47 2.47 0 0 1 .17.88c.01.3-.06.58-.12.87l-.2.84c-.1.28-.19.55-.3.81l-.03-.01a8.84 8.84 0 0 0 .29-1.7c.02-.28.01-.56.05-.84.04-.28.06-.56.13-.84h.01zm-.35 3.39c.13-.08.27-.13.42-.18l.44-.1a5.2 5.2 0 0 1 .88-.09v.4-.4a4.97 4.97 0 0 1 1.33.19c.14.05.28.1.41.18l-.44.01h-1.28v-.39.39h-1.3l-.46-.01zm.26.87c.17.05.31.13.47.2l.34.3c.23.2.48.36.74.46h-.14c.27-.1.52-.27.74-.45l.33-.32c.16-.06.3-.14.47-.2a3.1 3.1 0 0 1-.2.49 4.33 4.33 0 0 1-1.21.84l-.07.03-.06-.03c-.33-.13-.6-.3-.86-.52l-.37-.32-.18-.48zm-.8 1.06a8.56 8.56 0 0 1-1.07-.46c-.35-.17-.68-.37-1.01-.55l-1-.57-1-.55c.38.03.77.13 1.14.28a7.84 7.84 0 0 1 2.03 1.13c.3.23.62.46.9.72zm-.38.88a8.28 8.28 0 0 1-1.9-.63l-.9-.39-.92-.38c.34-.03.68.02 1.01.08a6.45 6.45 0 0 1 1.86.77c.29.17.58.34.85.55zM85.4 78.4l-.3.23-.3.22a1.73 1.73 0 0 0-.45.56 1.95 1.95 0 0 1 .31-.69l.24-.3c.07-.1.17-.2.22-.3l.28.28zM67 78.14l.22.28.23.32a1.95 1.95 0 0 1 .31.69c-.11-.23-.27-.4-.45-.56l-.29-.22-.31-.24.29-.27zM82 74.8a.39.39 0 0 0-.1.07l-.08.09a.85.85 0 0 0-.16.22.94.94 0 0 0-.11.26 1.04 1.04 0 0 0-.08.28l-.02-.3.04-.3.1-.3.07-.15.1-.16.24.29zm-.47 5.13c.16-.02.31-.05.47-.11.16-.05.29-.14.43-.24l.03.03a1.43 1.43 0 0 1-.34.4c-.15.12-.3.21-.47.29l-.12-.36zm-3.99 2.42a3.59 3.59 0 0 1 .52-1.18l.29.26c-.15.13-.29.27-.42.43-.13.16-.23.32-.35.5h-.04z"/>
      </g>
      <path fill="#F6F6F6" stroke-linejoin="round" d="M81.6 80.13c.07.52.02 1.15-.32 1.8-.38.72-1.2 1.24-2.01 1-.84-.26-1.13-.81-1.06-1.6.32-.35.67-.6 1.02-.76.52-.22 1.1-.24 1.67-.3.24-.03.47-.08.7-.14z"/>
      <g stroke="none" fill="#000">
        <path d="M68.44 80.65a.39.39 0 0 1-.2.14c-.07.01-.14.01-.2-.01s-.13-.07-.17-.13c-.04-.07-.08-.13-.07-.24.1-.02.17-.02.22-.02l.15.02c.03.02.09.04.13.08l.14.16zm.18 1.11a.36.36 0 0 1-.13.21.32.32 0 0 1-.2.08.34.34 0 0 1-.23-.04.39.39 0 0 1-.17-.18c.08-.07.15-.1.2-.12l.15-.04.16.02c.06.01.13.02.22.07zm.36.94c0 .1-.03.17-.07.22-.04.05-.1.1-.16.12-.07.03-.13.03-.2.03a.39.39 0 0 1-.2-.1c.04-.1.08-.15.13-.2l.13-.08.15-.03c.07-.01.13 0 .22.04zm.58.78c.06.07.07.14.07.2a.26.26 0 0 1-.09.18.46.46 0 0 1-.18.08.26.26 0 0 1-.2-.1l.07-.18.05-.09.1-.04.18-.05zm4.5-7.38c-.03.11-.08.2-.14.27a.87.87 0 0 1-.18.2l-.22.14c-.09.04-.18.08-.3.09 0-.12.04-.22.1-.31a.65.65 0 0 1 .19-.22c.08-.07.15-.1.26-.15a.45.45 0 0 1 .3-.02zm.75-2.21c0 .11-.05.22-.12.3a.75.75 0 0 1-.25.2.78.78 0 0 1-.3.06.5.5 0 0 1-.3-.1 1.43 1.43 0 0 1 .23-.2l.2-.13.24-.1c.09 0 .18-.03.3-.03zm-1.28 5.25c-.23.01-.45 0-.67-.01l-.65-.04-.65-.06a13.91 13.91 0 0 1-.68-.09c.21-.11.43-.16.66-.2a3.03 3.03 0 0 1 1.37.1c.22.05.43.16.62.3zm-6.8-3.32c.1.12.15.24.2.34l.13.33.1.34.07.39a.82.82 0 0 1-.34-.25.94.94 0 0 1-.2-.35 1.36 1.36 0 0 1-.06-.4c0-.14.03-.27.1-.4z"/>
      </g>
      <line fill="none" x1="76.04" y1="88.25" x2="76.04" y2="90.02"/>
      <g stroke="none" fill="#000">
        <path d="M87.61 97.27a1.26 1.26 0 0 1 1.17.82c.06.16.08.34.03.51a2.8 2.8 0 0 0-.3-.35l-.29-.31-.3-.31-.3-.36zm-2.9-7.87c.02.11.07.18.1.24l.12.16.15.18c.05.08.1.16.14.27a.55.55 0 0 1-.32-.02.55.55 0 0 1-.26-.2.53.53 0 0 1-.12-.33c0-.12.06-.25.18-.3zm-1.92 1.52a.78.78 0 0 1 .16.22.65.65 0 0 1 0 .44.58.58 0 0 1-.16.22.78.78 0 0 1-.16-.22.65.65 0 0 1 0-.44.63.63 0 0 1 .16-.22zm-12 1.23.08.48.08.45.09.42.09.48a.92.92 0 0 1-.38-.36 1.27 1.27 0 0 1-.18-.48 1.74 1.74 0 0 1 0-.52c.03-.17.1-.34.22-.47zm8.63-11.53c-.27.35-.2.99-.02 1.35.04.1.11.2.23.2.08 0 .14-.05.2-.1.45-.47.56-1.09.53-1.68m-9.93-.08a2.15 2.15 0 0 1-.47-.29 1.25 1.25 0 0 1-.34-.4l.03-.03c.14.1.27.19.43.24.15.05.3.09.46.11l-.11.37zm4.07 2.07c-.12-.19-.22-.36-.35-.51-.13-.16-.28-.3-.42-.43l.29-.26a3.59 3.59 0 0 1 .52 1.18l-.04.02z"/>
      </g>
      <path fill="#F6F6F6" stroke-linejoin="round" d="M70.5 80.13c-.09.52-.03 1.15.3 1.8.38.72 1.21 1.24 2.02 1 .83-.26 1.13-.81 1.05-1.6a3.17 3.17 0 0 0-1.01-.76c-.52-.22-1.1-.24-1.68-.3a4.05 4.05 0 0 1-.69-.14z"/>
      <g stroke="none" fill="#000">
        <path d="M72.68 80.62c.27.35.2.99.02 1.35-.04.1-.12.2-.23.2-.08 0-.14-.05-.2-.1-.45-.47-.56-1.09-.53-1.68m5.89-1.88c.08.08.1.16.12.24v.23a.45.45 0 0 1-.1.21.39.39 0 0 1-.23.14.47.47 0 0 1-.06-.24v-.2a.46.46 0 0 1 .09-.18c.04-.07.09-.13.18-.2zm-.36 1.25c.06.1.09.18.1.28a.65.65 0 0 1-.01.27.65.65 0 0 1-.1.26.64.64 0 0 1-.22.2 1.17 1.17 0 0 1 .07-.76c.04-.08.08-.17.15-.25zm-2.8-1.25c.08.07.12.13.16.19a.69.69 0 0 1 .05.6.47.47 0 0 1-.2-.15.43.43 0 0 1-.09-.2c-.01-.08-.02-.15-.01-.23 0-.05.03-.13.09-.2zm.35 1.25a1 1 0 0 1 .14.25l.08.23.03.25c0 .1 0 .18-.04.29a.64.64 0 0 1-.2-.21c-.06-.08-.09-.17-.11-.26-.02-.1-.03-.18-.02-.27.03-.1.06-.19.12-.28zm-4.47-5.24c.05.06.08.1.1.16l.08.14.1.3.03.31-.01.3-.08-.28-.12-.26a3.25 3.25 0 0 0-.15-.22l-.1-.1a.39.39 0 0 0-.09-.06l.24-.29z"/>
      </g>
    </g>
  </g>
</svg>
