<svg xmlns="http://www.w3.org/2000/svg" fill="#d7374a" stroke="#000" viewBox="50 50 200 200">
  <metadata source="https://commons.wikimedia.org/wiki/File:Belarus_knight.svg" license="https://creativecommons.org/publicdomain/zero/1.0"/>
  <g id="cavalier" stroke-width=".405">
    <path d="m122.945 63.53 2.565.945-2.565.945-23.22.675V62.99Z"/>
    <path class="tertiary" d="m98.105 63.665.675-3.645h.945v9.045h-1.08l-.54-3.24"/>
    <path d="M97.43 80.27c-2.97-1.08-7.155-4.59-7.155-4.59 0-.81.135-1.35.405-2.025 0-1.35.405-2.295.81-3.24 1.215.27 2.565.405 3.915.405-1.35 0-2.7-.135-3.915-.405l-.27-.135 2.43-3.78c-.54-1.08-.405-3.645.81-3.645.405-.54.675-.405 1.08-.405.27-.54.675-.54 1.08-.405.405-.54 1.215-.135 1.215.135l.135 1.485c1.485 1.08.135 2.16-.945 2.97-.81 1.215-1.215 2.565-1.215 4.185h-.405l-.54 2.025c.27.27.54.81.54 1.215 1.62.54 2.97 1.215 4.185 2.16l2.16-.54" stroke-width=".473"/>
    <g stroke-width=".27">
      <path d="m101.75 75.815-2.16.405c-.27.405-.54.945-.675 1.62l7.56-1.215-1.485-1.35"/>
      <path d="M95.675 65.015c-.675-.54-1.08-1.485-1.215-2.16m2.16 1.89c-.81-.675-1.08-1.35-1.08-2.295m1.215.675c-.135-.405-.27-.54-.135-.945m-1.215 11.88c-1.08.54-2.43 2.025-2.835 3.24m-1.89-3.645c1.62.405 2.97.135 4.185-.81m5.805 3.105c-.27.54-.54 1.08-.675 1.755m1.215-1.755c.54.405.81.81 1.08 1.35"/>
      <path fill="#eabfa2" d="M102.425 71.225c-.405.675-.945 1.35-1.215 2.025 0 .135.54.135.54.135l-.27.81h.27l.135.54c-.135.27-.27.54-.135.945.135.54 1.35.27 3.105-.405l-.135-.405.405-2.835c0-.27-.27-.54-.675-.675"/>
      <path fill="#725a42" d="M101.75 73.385h.675c.54.27.81.81.945 1.215-.27-.135-.675-.405-.945-.405h-.945z"/>
    </g>
    <path d="M108.77 76.085c-1.08-2.025 2.565-5.4-.54-9.18-2.7 0-5.535.135-6.345 4.185.405.405 2.025-.135 2.97.405.675.405-.135 2.295-.135 3.51.405.675 1.08 1.08 1.89 1.485"/>
    <g class="tertiary">
      <path d="M94.325 65.15H91.76V63.8h1.89z"/>
      <circle cx="90.275" cy="64.475" r="1.485"/>
    </g>
    <path d="M96.755 63.125c.675.27.945.54 1.485.81" stroke-width=".338"/>
    <path d="M102.965 71.765c-.135 0-.135-.135 0-.135 0 0 .27.135 0 .135zm0-.405c.405.27.675.405.675.675l-.27-.135c-.405.27-.945 0-.675-.405l-.405-.135" stroke="none" fill="#000" fill-rule="evenodd"/>
    <path d="M95.27 65.42c-.945 0-1.35-1.35-1.62-2.025m3.375 3.24c-1.62.135-1.89-.405-1.755-1.215.135 0 .405-.135.405-.405.27.135.54 0 .81-.27.27 0 .405 0 .675-.135 0-.27-.27-.405-.54-.675s-.27-.405.135-.81" fill="none" stroke-width=".338"/>
    <path fill="#000" stroke-width=".135" d="M93.742 66.382h.572c.191 0-.286.286-.572.191"/>
    <path fill="#000" stroke-width=".166" d="m96.958 64.525.475.524c.158.175-.502-.03-.652-.37"/>
    <path fill="#000" stroke-width=".166" d="m97.126 64.39.69.15c.23.05-.425.266-.743.077"/>
    <path class="secondary" d="M123.35 110.915c1.35-1.485 2.835-2.7 4.32-3.51-.135-.54-.54-1.35-1.08-1.62-.81.405-2.835.81-4.32 0 .675 1.62 1.08 3.24 1.08 5.13-.405 2.43-1.08 3.51-2.7 6.21l-1.62 1.755c-.27.27-.405.675 0 1.08l4.59 3.375c.405.27.54.81.135 1.485-2.025 3.24-3.78 6.75-4.32 10.53-.135.945.135 1.755-1.215 1.35l-1.35-.405c-.405.27-.675.54-.945.405.675 2.835-2.835 3.915-6.075 2.565l.135-.81c.81-2.835 2.43-3.375 4.455-3.645.81-.135 1.215-.135 1.62-.54.945-1.215 2.025-3.105 2.565-5.535.27-1.08.27-1.89-.405-2.295l-4.455-2.295 4.455 2.295c.675.405.675 1.215.405 2.295-1.755 1.755-2.97 3.915-4.185 6.075-2.025.27-3.645.81-4.455 3.645-1.35.27-2.835 0-3.645-.675.675-2.97 1.485-3.375 3.915-3.915.81-.135 1.35-.27 2.295-1.35 1.215-1.62 2.025-2.97 2.97-4.59.27-.54.27-.945 0-1.35l-1.755-2.43c-2.025-1.08-3.645-2.43-4.86-4.455-1.215-.81-1.62-1.89-1.755-3.375h-.675c-1.62.54-2.43-1.215-2.43-1.485-5.67-2.43-11.07-1.08-18.36-4.725-.405.81-.945 1.215-1.485.945-5.535-2.97-3.105-.135-9.18-5.265-.675-.54-1.35-.27-1.755.135l-2.43 2.835c-.54.54.135 2.025 0 2.16-.405.27-.675.27-.405.81.135.27.675-.135.675-.135 1.755 1.485 2.16 3.78.945 6.075-2.835-.54-3.915-1.485-4.05-4.05-.27-1.89-1.215-2.43-.945-4.86 0-.27.81-.945 1.755-2.16 1.215-1.35 2.835-4.05 3.51-4.86.27-.27.81-1.08 1.755-1.215 1.08-.135 1.215.54 2.43.945-1.215-.405-1.35-1.08-2.43-.945-.945.135-1.485.945-1.755 1.215-.405 0-1.08-.54-1.08-.54s-2.43 2.835-2.43 5.4c-.945 1.215-1.755 1.89-1.755 2.16-.27 2.43.675 2.97.945 4.86 0 0-.945 1.215-1.62 1.62-1.35-.81-1.89-2.025-2.16-3.105 0-1.215.405-2.565.54-3.375.135-.945 0-2.565.54-3.105 2.565-3.105 3.105-6.345 3.24-7.02.405-.81 1.485-1.755 2.835-1.89.675 0 2.7 1.215 5.265 1.755 0 0-.27 1.89-.135 2.97-.135-1.08.135-2.97.135-2.97.405-2.16 1.755-3.645 2.7-4.455.405-.54-.54-2.295 6.345-9.315-.54.27-1.35.405-2.025.27l-3.105 2.025c.81 1.89-4.455 2.025-1.35-.675l-.405-.675c-.675.405-1.08.81-1.485 1.755-.405 1.08-1.08.945-2.025-.54-.135-.27-.27-.405-.135-.81 1.485-5.13 4.59-8.1 6.885-10.53v-1.35c.675-.405 1.755-.81 3.24-.81.405 0 1.08.135 1.08.135s-.675-.135-1.08-.135c.27-.675.81-1.215 1.62-1.485v.81l1.08-.81c.135.54.135 1.35-.135 2.025 6.75 2.16 9.18 8.1 9.855 13.5.27 5.4.675 10.8 9.585 10.935 8.64-.81 11.61 5.265 14.445 5.4 2.16.27 8.37-6.21 12.42-1.89 4.725 5.805-1.62 12.285-9.045 14.985-1.215.405-3.105 2.16-1.35 3.915-1.755-1.755.135-3.51 1.35-3.915-.945 2.7 1.08 2.16 2.295 1.89-3.24 3.24-6.21 2.565-6.75-1.62 1.62-2.7 2.295-3.78 2.7-6.21z" stroke-width=".473"/>
    <g fill="#000">
      <path stroke-width=".135" d="m80.42 87.02-.405-.405c-.135-.135.405 0 .54.27"/>
      <path stroke-width=".135" d="m66.879 109.517-.573-.002c-.19-.001.288-.286.574-.19"/>
      <path stroke-width=".186" d="m67.514 107.867-.891.003c-.297.001.445.35.891.23"/>
      <path stroke-width=".18" d="m70.338 111.1-.996.116c-.332.038.603.222 1.066.07"/>
      <path stroke-width=".181" d="m70.704 111.886-.74.682c-.248.227.225-.604.644-.857"/>
      <path stroke-width=".157" d="m113.056 134.939-.54-.404c-.181-.134.042.442.389.563"/>
      <path stroke-width=".196" d="m117.059 136.271-.668-.507c-.223-.169.052.555.48.708"/>
      <path stroke-width=".173" d="m71.376 101.231.452-.576c.15-.193-.514.062-.644.426"/>
    </g>
    <g stroke="none" fill="#000">
      <path d="M76.1 86.21c.27.27.81-.54.675-.675s-.945.405-.675.675zm.81-1.215c.81.405-.405 1.89-.945 1.485-.675-.54.54-1.35.945-1.08 0-.405-.54-.27-.675-.135.135-.27.405-.405.675-.27z"/>
      <path d="M82.04 79.055c.135-.405-.675-.54-.945-.135-.135.405.675.54.945.135zm-.135-1.215-.405.54c.81-.135.81.405 1.755.405-.135.135-.405.27-.81.135 0 .54-.81.945-1.485.54 0 .27-.135.405-.27.54.135-.81 0-.81.135-1.08s.81-.945 1.08-1.08z"/>
      <path d="M126.32 105.65c5.4-2.565 8.775 1.35 1.755 6.075 4.185-2.025 5.13-3.915 4.455-6.615 1.755 4.455-3.51 6.885-6.48 7.425 1.89-.945 4.455-2.7 5.265-4.725 1.215-3.24-2.97-2.7-4.725-1.755m-7.155 16.065c.54.81 1.62 1.485 1.89 2.295.945.27.945.54 1.215.81-.135-.675-.27-.675-.945-1.08-.54-.81-.945-1.215-2.16-2.025zm-4.32-2.97c3.51-.135 3.24-2.16 4.86-3.375-.945-.135-1.89 2.835-4.86 3.375zM76.64 101.33c1.62.945 5.13 1.35 6.48 1.755.405.135.945.945 1.215 1.755.135.405-.945-1.215-1.485-1.485-1.485-.405-3.78 0-7.155-2.025m9.72-16.74c1.215-1.08 2.565-2.16 2.97-5.13.405 1.35-.27 3.105-2.565 5.535zm-.81 10.26c2.835-.675 5.67-1.35 9.045-.675-3.105-1.215-6.48-.54-9.045.675zm-7.425 11.07c.675.54 1.62 1.215 2.565 1.89.81.405 2.43 1.08 2.565.405-1.215-.27-1.89-.405-2.7-.81-2.43-1.755-2.43-1.62-2.43-1.485zm30.24 10.8c-.135-1.485.405-4.05-1.35-5.13.405.405.81 1.89.81 3.645-1.89-.135-3.51-1.08-3.51-.81 0 .135 1.755.945 3.51 1.08v.675m-21.33-6.345c.405-.945.405-1.485 1.485-2.025.405-.135-.945 1.35-1.08 2.16"/>
    </g>
    <g stroke-width=".338">
      <path d="M126.59 105.65c2.295 1.89 1.08 4.185-1.35 6.48-2.16 2.16-4.455 5.13-2.43 8.505M78.665 85.67c.945-.81 1.89-.54 2.025-.405-.405.405-.945.81-1.62 1.215m28.62 48.33c.27.81 2.16 1.62 3.375 1.485m.135-.135c1.215 1.215 3.78 1.755 4.86 1.485M68.54 115.64c2.16-.945 2.43-2.97 2.025-3.915m-6.345.405c1.08-.135 1.89-.54 2.835-1.215m14.31-34.56c1.485-1.89 2.7-1.89 4.185-1.755 4.455.81 7.965 4.185 9.45 8.775 1.485 4.455.27 8.64 2.025 9.99.675.54 1.89 1.35 2.295 1.62m-15.795-20.25c1.08.675.405.81 1.89-.135" fill="none"/>
      <path class="secondary" d="M85.55 75.68c-.135-.81.135-1.89 2.43-3.78-.135 2.835-.405 2.295-2.43 3.78z"/>
    </g>
    <g class="tertiary">
      <path d="M76.91 97.685c7.695 1.485 12.555-.135 17.955-1.35l-.675 2.16c-6.21 1.89-12.015 2.295-17.55.945zm7.02-12.69c-2.43-.81-2.97-.945-6.48-3.78l-.54.945c1.08 1.08 2.97 2.43 5.265 3.78zm3.105-9.99c-.54 2.565-3.51 6.21-5.535 9.045l.945.405c2.16-2.7 5.13-6.615 5.535-9.045zm-4.59.27c2.16 1.755 4.725 3.24 3.915 8.64l1.08-1.35c.135-2.565.405-4.725-3.915-7.83-.405.135-.675.27-1.08.54zm40.77 36.315c-5.13 2.16-11.34-1.62-18.495-7.02l.27-1.62c5.265 3.78 12.96 9.855 18.225 7.02zm-7.155-11.205c-.405 5.4-2.565 10.53-2.835 11.745-.27.675-.27 1.215-.135 1.755.54-.27 1.08-.54 1.35-1.215 1.485-3.51 2.565-6.75 2.97-11.34zm-5.94-2.025c.135 5.13-2.16 9.855-2.43 11.07-.27.675-.27 1.215-.135 1.755.54-.27 1.08-.54 1.35-1.215 1.485-3.51 2.835-7.02 2.7-11.34z" stroke-width=".27"/>
      <path d="M105.26 101.465c-3.51 14.445 7.02 22.545 1.755 30.24-2.295-3.78-3.645-7.425-4.59-11.745h-.945c1.215 5.94 4.185 10.26 4.59 12.96-5.67-1.215-7.965-7.425-9.045-12.825h-.81c.945 5.265 3.915 9.99 4.59 12.15-7.83-.945-10.53-14.445-10.8-18.495-.27-4.86 1.89-10.125 4.32-15.39M81.5 86.075c.135 2.025 0 4.185-.135 6.48 5.13.54 10.665-.54 16.335-1.755v-.27c-5.4.135-10.935.54-16.2 0h1.215c.135-1.755.135-3.375-.135-4.995"/>
      <path d="M107.555 96.47c-2.43-1.35-5.805 3.105-9.585-4.995-.81 1.755-2.025 2.97-2.97 4.725-4.455 8.235 11.745 10.935 12.555.27z" stroke-width=".473"/>
      <g stroke-width=".338">
        <circle cx="86.09" cy="78.245" r=".945"/>
        <circle cx="109.31" cy="106.865" r=".945"/>
        <circle cx="114.71" cy="109.97" r=".945"/>
      </g>
      <circle cx="81.608" cy="85.049" r="1.134"/>
    </g>
    <g>
      <path d="M106.61 96.065c-2.565 4.185-8.235 4.86-11.61 10.26.27 2.7-.675 4.32-2.7 4.995l-2.97 3.105v3.24c-2.7-.27-4.05-1.89-9.315-.81 1.485-3.375 4.185-3.51 6.885-3.51l4.05-7.695c-.27-.675-.675-1.485-.405-2.43.54-.54 1.485-.81 2.16-.945 2.43-7.695 7.02-7.695 7.29-10.665h1.08" stroke-width=".54"/>
      <path class="tertiary" d="M85.145 113.48c-.675.945-1.215 1.89-1.89 3.375l2.97.675c.405-1.62.405-2.835.27-3.78m4.455-8.37-4.725 6.345.945.81"/>
      <path d="M99.05 87.155c-1.08.135-1.89.27-2.025.81s.54.54 1.35.54c-.81 0-1.485-.135-1.485.54 0 .405.27.54 1.485.54-.945 0-1.35 0-1.35.54 0 .27 0 .405 1.485.405-.54 0-.945 0-.945.54.135.675 1.08.54 1.755.54h1.89"/>
      <g stroke-width=".27">
        <path d="m86.63 114.83 8.505-1.485v.135l-8.64 2.43m7.83-4.455c.405.54.675.945.81 1.35.675 0 1.485 0 2.16.135-.54.405-1.35.945-1.89 1.08.135.405 0 .945-.135 1.755-1.08-1.08-1.485-2.97-.945-4.32z"/>
        <path d="M91.085 105.65c1.485-.405 2.7-.135 3.78.675m-2.025-3.915c.675 1.215 2.025 1.62 3.78 1.62m7.83-5.67c.405-1.89-.135-2.97-1.485-3.24-2.97 2.7-6.075 5.94-8.235 8.64m-.945 1.89c-1.89 5.67-3.78 4.32-5.4 8.91m-7.02.27c0 .675.135 1.215.405 1.755m.675-2.43c-.135.675 0 1.485.675 2.295m.27-2.565c0 .675.135 1.08.54 1.62m14.58-28.35c-.27 2.295-.135 3.915.675 4.455m.27-3.24c0 1.755 0 2.7.81 3.24" fill="none"/>
      </g>
      <g class="tertiary">
        <circle cx="85.982" cy="112.819" r="1.228" stroke-width=".439"/>
      </g>
      <g stroke-width=".473">
        <path class="tertiary" d="m98.78 92.96 3.915-.675c1.485 14.175 3.915 23.895 2.16 26.865-2.97-2.295-3.375-12.285-6.075-26.19z"/>
        <path d="m99.455 97.55 3.645-.675m-3.915-.675 3.78-.675" stroke-width=".338"/>
      </g>
    </g>
    <g class="tertiary" transform="rotate(-9.4 190.4315 -132.895)">
      <path d="M63.815 60.02h17.28c0 8.775.27 16.2-8.64 20.655-8.91-4.455-8.64-11.88-8.64-20.655z" stroke-width=".54"/>
    </g>
  </g>
</svg>
