<svg xmlns="http://www.w3.org/2000/svg" fill="#d7374a" stroke="#000" viewBox="50 50 200 200">
  <metadata source="http://wappenwiki.org" license="https://creativecommons.org/licenses/by-nc-sa/3.0"/>
  <g id="cock" stroke-width=".4">
    <path d="M116 112.6c1.3.8 2.1 2.2 2.4 3.7.2 1.5-.1 3-.5 4.5 1.2-.1 2.3-1 3-2.2.5-1.1.6-2.5.4-3.7-.2-1.3-.7-2.5-1.2-3.7"/>
    <path d="M121.2 110a9 9 0 013.2 3.1c.8 1.3 1.1 3 .7 4.4-.3 1-1 2-2 2.7.3-1.6.1-3.4-.8-4.8-.4-.7-1-1.1-1.4-1.8-.5-.7-.7-1.7-1.2-2.4"/>
    <path d="M121.6 109a8 8 0 013.4 1c1 .8 1.9 1.8 2.1 3 .2 1 0 2-.5 2.7a5 5 0 00-2.2-3.2c-.6-.4-1.2-.4-1.7-.7l-1.7-1.4"/>
    <path class="secondary" d="M81.5 124.3s-.4-1-1.3-.8c-.9.3-.8.9-.8.9v.6c0 .9-.6 1-1.2 1l-.4-.1c-.2 0 .5 1.2 2.1.8 1.8-.5 1.6-2.4 1.6-2.4zm-9.7-4s1 .5.7 1.4c-.4.8-1 .7-1 .7H71c-.8 0-1 .5-1 1.1l.1.5c0 .2-1.2-.6-.7-2.2.5-1.8 2.5-1.5 2.5-1.5zm-.8-4.9s.9.8.2 1.5-1.1.4-1.1.4l-.6-.3c-.8-.3-1.2.1-1.3.7l-.1.4c-.1.2-.9-1 .2-2.3 1-1.4 2.7-.4 2.7-.4zm3.7-2.7s0 1.2-1 1.2c-.8 0-1-.4-1-.4l-.1-.6c-.4-.8-1.1-.8-1.6-.5-.2.1-.2.3-.4.3s0-1.3 1.8-1.6c1.8-.3 2.3 1.6 2.3 1.6z"/>
    <path class="secondary" d="M92.8 115.1c-.3.6-3 2.4-4.1 2.7-3.4 1-5.7.4-8.8.2-.6 0-1.1-.4-1.7-.7-.9-.7-1-1.6-1.5-2.3-.1-.3-.5-.5-.6-.5-.7-.2-.9-1-.8-1.2.4-.6.2-1-.2-1.4-.5-.4-1-.2-1-.2s.5.5-.5 1.2l-.4.2-.5.1c-.2.2-.3.6.1 1 .3.3.7.3 1 .2 0 .5.3.9.8 1.1l.4.3v.5c0 .3.6.6.7.8-.4-.2-1-.3-1.5-.7-.3-.3-.6-.6-1-.7h-1l-.1-.5-.3-.4c-.4-.3-1.5-.5-1.8.2v.1c.5.2.6 1.3-.1 2-.1 0-.2.3-.1.4 0 .3.5.7 1 .8.6 0 .8-.4.9-.5h1.2c.6 0 1 .5 1.4.9.5.4 1 .5 1.6.6-1.2.6-1.2 0-2 .2l-.7.3-.4.3s0-.5-.7-.7c-.7-.3-1.5.2-1.6.7v.3c.9 0 1.4 1.5 1 2-.1.1 0 .5.7.6.3 0 .7 0 1-.5.3-.3 0-.3.3-.7.3-.3 1-.1 1.4-.1.8 0 1.2-.8 1.7-.9.5-.1.5-.1.8.2.3.4.8.2 1 .3.5 0 1 .4.8.7-.4.6.2.9.1 1-.2.2-.8.4-.7 1.2.2.7.7.6.7.6s.9-1 2.1 0c.2.1.7-.2.5-1.1-.1-.6-.7-.6-.7-.6s0-.6-.4-1c-.3-.3 0-.3 0-.7 0-.3-.5-1-.5-1a11 11 0 014.4.7s0 1.8.8 3c1 1.4 2.3 1.7 3.5 1.6a5 5 0 01-2.3-3.8c0-1 2.2-1.7 3.2-1.8 2.6-.5 3.5-.3 5.7-.5"/>
    <path d="M94.5 106.8c-1 1.6-1.2 3.7-2.2 5.2-.4.8-1 1.4-1.3 2.2-.3.8-.5 1.5-.6 2.3.6 0 1.4.2 1.8.7.2.3.3.8.6 1l.6.4c.3.3.3.8.2 1.3h1.1l1.8-.6c1-.2 2.7-1.3 4.2-2.4m17.9-12.4c1.6-.5 3.2-.8 4.8-1 2.9-.4 5.1.2 6.8-1.8.4 1-.4 2.3-1.1 3a14.9 14.9 0 01-6.5 3.4c-3.5 1-7.2 2-10.8 1.8"/>
    <path d="M110 105.5c4.5-.5 9.8-4.1 13-6.2 1.4-1 2.8-1.7 4.3-2.5 1.4-.7 3-1 4.4-1.6 1.1-.5 2.5-1.2 3-1.7a4 4 0 01-.5 1.8 36 36 0 01-16 11.3c-2.4.7-6.5 1.5-8.4 1.6"/>
    <path d="M112.4 104.8c4.8-2 9.5-8 12.4-11.5 1.2-1.5 2.5-2.9 4-4.2 1.3-1.3 2.9-2.3 4.4-3.4 1-.9 2.1-2 2.7-3 .3.7.2 1.5 0 2.2-.7 3.4-2.7 6.6-4.8 9.2a41.1 41.1 0 01-18 13.8"/>
    <path d="M111 104.4c5-3.6 9-11.6 11.4-16.2 2.8-5.6 8-9.4 10.8-13.9.1 5-1.2 8.7-3.4 13.2-2.2 4.6-4.7 9-8.1 12.6a64 64 0 01-9.1 7.6"/>
    <path d="M112 103.5c4-4.8 5.9-13.7 7-19 1.3-6 3.9-10.4 6.6-16 1.4 4.8 1.4 8.5.5 13.5-1 5-2.3 10-4.7 14.6a62.7 62.7 0 01-7 9.8"/>
    <path d="M111 99.4c2.5-4.7 2-11.5 2.2-16.8.3-6.3 2-11 4-17 2.6 4.5 3.5 8.1 3.4 13.3s-1.1 10.1-2.4 15a27 27 0 01-5.8 11"/>
    <path class="tertiary" d="M87.6 72.4a8 8 0 004-1.4 6.1 6.1 0 002.1-3.6c.2-1.1 0-3.7-1.2-4.7-.2 1.2-1.3 3-2.5 3.5-1.3.5-1.8.1-1.8.2l.8-1.1c.4-.4.8-.7 1-1.1.2-.5.2-1.5-.2-2-1.6 1-2.6.6-3.8 1-1.1.4-1.5 1.3-2.1 2.2-.6-.6-.5-1.3-.4-2 0-.6 0-1.2-.4-1.5-.7 1-1.8 1-2.6 1.6-.8.7-1 1.5-1.3 2.5-1.3-.1-1.8-1.3-2.3-1.8-.2-.2-.4-.4-.8-.4v1.4l-.3 1.5c0 .7.3 1.6.3 1.6-1 0-1.8-.2-2.7-.7H73c0 .8.2 1.6.8 2.2 1 1.1 2 1.4 4.7 1.4"/>
    <path d="M93 92c0-1.6.8-3.6 1-5.9.2-2.9-1-6.2-2.2-8.9-1-2-1.6-3.9-2-4.8-.1-.2-.7-1.3-1.6-2-1.4-1.1-2.5-1.8-4.3-1.8-1 0-2.5 0-3.6.5-1 .5-2.2 1.8-2.2 2.3-.5.5-.7 1.8-.5 2.5.2.7.7 1.3 1.3 1.8l1.7 1.3c.4.4.9.9 1 1.4v1.1l-.1 1.1c-.1.8-.5 1.6-.2 2.3l-.8-.3c-1.3 2.5.3 1.3-1.7 3.3 0 0-1.2 2-2.5 3.1-1.8 2-7.3 5.1-6.6 11.5a9.7 9.7 0 002.6 5.7c2.7 5 6.3 4.6 8.4 5.5 4 3 10 2.4 13.7 2.4 2.1 0 3.7 1 5.8.6l10.6-.6c1.1-.2 3.1-.3 4.1-.7 1.4-.5 1.6-.7 2.2-.8 2.3-.1 5-1.8 5-1.8l2.6-.1c1.4-.2 2-.4 2-.5.3-.7-.8-1.8-1.5-1.8 0-.6-.4-1-.9-1.5s-1-.6-1.6-.6c.2-.7-.4-1.5-.8-1.9-.5-.5-1.5-.6-1.5-.6-.2-1.7-3.4-2.9-5.6-3.6l-5-2c-.5-.2-1.7-.6-2-1a37 37 0 00-9-4.2c-2.8-.7-4-1-5.8-1z"/>
    <path class="tertiary" d="M81.4 79.5c.2 2.4-3.6 2.6-4.3 2.7a3 3 0 00-2.2 1.6c-.4.9-.3 2.1.5 2.7 2.1 1.4 4-.8 5.3-2 .8-.9 1.4-3.5 1.7-4.4"/>
    <path class="tertiary" d="M81.7 80.5c0 1.2-1 1.4-2 2.6-.5.4-1.3 1.7-1.3 2.7 0 .5 0 1.1.3 1.7.3.8.8 1.3 2 1.5.6.2 1.3.2 2 0 1.8-.3 2.8-2.2 2.6-4-.1-1-.4-2-1.1-3-.7-1-1.4-1.5-1.7-2.9"/>
    <path fill="#fff" d="M83.4 72.2c.6 0 .7.4.7.8 0 1-.5 1.8-1.5 2-1 0-1.7-.8-2-1.9 0-.3 0-.8.4-.9 1.1-.4 1.8-.2 2.4 0z"/>
    <path class="secondary" d="M81.7 80.5c.7.3.9-.8.8-1.4 0-.3-.3-1-.6-1.3 0 0 0 0 0 0-.2-.2-.2-.3-.2-.5 0-.5-.5-1-1-1.3-.2 0-.2-.1-.3-.3l-.2-.4c0-.3-.3-.7-.6-1-.3-.1-.7-.2-.8-.5l-.1-.4c0-.3-.2-.5-.4-.7a.8.8 0 01-.3-.5l.1-.8-1.5.1c-.6.1-1.4.4-1.8.8l-.2.2-.5.2C73 73.1 71 74.4 71 76c.2-.2 1-.3 1.6-.5.6-.2 1.6-.2 2.3-.2 1 .1 1.5.4 2.5.6.6 0 1.2.4 1.8.6 1 .5 1.4.9 1.9 1.6v.4c-1-.3-2-1-4.2-1s-3.5.4-4.5.7c0 .1 0 .2.2.3h1.1c1.6-.1 3.7.2 5.2.7.7.4 2.1.9 2.9 1.4zm25.6 52.8s-1-.3-1.4.6c-.3.9.2 1.1.2 1.1l.6.4c.7.5.4 1.1 0 1.5l-.3.3c-.1.2 1.3.3 2-1.3.6-1.6-1-2.6-1-2.6zm-12.1 4.4s1.2-.1 1.3.8c.1 1-.4 1-.4 1l-.6.3c-.7.5-.6 1-.4 1.5l.4.4c0 .2-1.4 0-1.7-1.6-.4-1.8 1.4-2.4 1.4-2.4zm-2.3-4.3s1.1.3.9 1.2c-.2.9-.8.9-.8.9h-.6c-.9 0-1 .7-.9 1.2 0 .3.2.4.2.5 0 .2-1.3-.4-1-2 .2-2 2.2-1.8 2.2-1.8zm1.9-4.2s.6 1-.2 1.5-1.1.1-1.1.1l-.5-.5c-.7-.4-1.3-.1-1.6.4l-.2.4c-.1.1-.6-1.2.7-2.2 1.5-1 2.9.3 2.9.3z"/>
    <path class="secondary" d="M102.1 118.7c.5.4 1.2 3.6 1 4.7-.2 3.5-.4 5.2-2 7.7-.3.3-.4.4-1 .4-1.1-.2-1.6-1-2.4-1.3l-.8-.1c-.8.1-1.3-.5-1.3-.8 0-.6-.4-.8-1-1-.5-.1-.8.3-.8.3s.6.2.1 1.2l-.2.4-.4.5c-.2.2 0 .6.6.7.4.1.7-.1.9-.2.4.3.8.5 1.3.5l.5.1.3.4c.2.2.8.3 1 .3-.5 0-1 .3-1.7.2l-1.1-.2c-.5.2-.7.3-1 .6a1 1 0 00-.3-.4l-.5-.2c-.5-.1-1.5.3-1.4 1 0 0 0 0 0 0 .5 0 1.2.9.9 1.9l.1.5c.2.2.8.3 1.3 0 .5-.2.4-.6.5-.8.3 0 .7-.5 1-.6.5-.2 1.2 0 1.7.1.7.2 1.1 0 1.7-.3-.4.5-.8 1-1.4 1-.4 0-.7.3-1 .6l-.3.6-.3.4s-.3-.3-1-.2c-.7.1-1.1.9-1 1.4l.2.2c.7-.4 1.8.7 1.7 1.3 0 .1.4.5 1 .2.3-.1.6-.4.6-.9v-.7c0-.5.8-.7 1-.8.4-.2.7-.5.9-.8.3-.4.3-.7.7-1 .3-.4.9-.3 1.5-.3.7-.2.5-.8 1-1.2 0 0 .7-.7 1-.2.3.6 1.3.3 1.3.4.1.3-.1 1 .6 1.3.6.3 1-.2 1-.2s-.4-1.3 1.2-1.7c.1-.1.2-.8-.7-1-.5-.3-.9.2-.9.2s-.4-.5-1-.3c-.4 0-.3-.2-.6-.3-.2-.2-1-.2-1-.4.2-1.3 1-2.4 1.2-3.7.8.4 2 .7 3.2.4a3.6 3.6 0 002.7-2.7 5 5 0 01-4.3.8c-1-.3-1-2.3-.8-3.3.4-2.6 1.2-3.7 1.7-5.8"/>
    <path d="M95.6 113.2c1 1.5 2.8 2.6 3.7 4.2.5.8.9 1.5 1.5 2.2.5.6 1.1 1 1.7 1.5.4-.5.8-1.1 1.4-1.2l1.2-.1.6-.4c.4-.1.9.1 1.2.4l.5-1 .3-1.8a8 8 0 000-3.5"/>
    <g fill="#000" stroke="none">
      <path d="M75.5 117.3c-.4-.2-.9 0-1.3.1-.4.4-.3-.2-.3-.4s.4 0 .6-.1c.3 0 .6.2 1 .4zm2.5 4.1c.3-.3 1-.7 1.3-.5 0 .2.1.6-.1.5h-1.3.1zm-8.2-7l.1-.8c.1.1.6.1.4.3l-.4.5zm4.2.6l.7.6c.3 0 .6 0 .8.3.4.3.3.1-.1 0-.6.1-1.2.1-1.5-.3-.3-.1-.3-.3-.1-.4 0 0 .2-.4.2-.2zm-.4-3.6c-.3.3-1 .7-1.2.5.5 0 .5-1 1-.7l.2.2zm4.4 7.1c.2-.3.2-.6.5-.8.3-.3.1.1.1.3 0 .2 0 .5-.2.4l-.4.1zm-6.9-.5l-.1 1.2c-.2-.2-.2-.8-.5-1l.6-.3v.1zm11.5.9c0-.5.6-.7 1-1 .2 0 .4-.2 0 0-.4.3-.3 1-.6 1h-.4zM90 114l.7-1.6h.8c-.4.4-.6 1-1 1.5-.2 0-.3.2-.5.1zm2.6 2.5c.1-.3.5-.4.8-.5.4-.2 1 0 1.4-.1 0 0 .3 0 .1.1-.3.3-.7.3-1 .5h-1.3zm36.8-29.1c-.8 1.3-1.8 2.5-2.7 3.8a67.9 67.9 0 01-8.6 9.8l-.3-.4c3.5-3.2 6.7-6.7 9.5-10.5.7-.9 1.3-1.9 2.1-2.7zm-3.2-4.6c-1 2.2-3.8 6-5 8v-.5c1.2-2 3.7-5.4 5-7.5zm-4.2-5a74.4 74.4 0 01-7.2 21.2l-.5-.2c4.2-6.7 5.6-13.5 7.6-21zM76.4 67a6 6 0 012.4-1.4c1.7-.7 3.7-.7 5.4 0 .9.4 1.5 1 2.5 1v.1c-.5 0-1 0-1.4-.3l-1.2-.5c-.9-.3-1.7-.4-2.6-.4-1.3 0-2.6.3-3.8.8l-1.3.6zm38.8 8c-.3 2.1-.4 4.2-.4 6.4 0 2.1 0 4.3-.2 6.4-.3 3.5-1.4 6.9-3.2 10l-.4-.4c1.8-3 2.9-6.2 3.3-9.7.2-2.1.2-4.3.3-6.4 0-2 .2-4.2.6-6.3z" transform="translate(2 2)"/>
      <path fill="none" stroke="#000" d="M86 104.6c1 2.8 3.6 4.2 7 5 4.6.8 9.4-.6 10-.4 2.2.6 5.7.6 7.8 1.1 5.3 1.2 8.4.8 11.3.6"/>
      <path d="M84.1 107c.6.6 2 2.6 1.4 2.6-1-.6-1.3-1.6-1.4-2.6zm2.2 1.8c1 .2 2.2 2.2.6 1.1-.3-.3-.5-.7-.6-1.1zm19.1-10.4c4.2 1.6 8.4 2.2 12.8 3.2v.5c-4.5-1.2-8.8-1.8-12.8-3.7zm-1.8 2.6c5.9 2 11.5 2.5 16.9 3l-.2.6a52 52 0 01-16.7-3.6zm-1.7 2.6c7.6 2 14 2.8 21.2 2.6v.5c-7.4 0-15-.8-21.2-3.1zm-12.5 6.7c-1.1.3-1.3-2-.3-.7 0 .1.6.7.3.7zM82.2 98c1.5.4 1.9 3.3 2 4.5l-.5.2c-.2-1.4-.1-3.7-1.5-4.7zm2.8.6c.8.3 2.7-.3 2.9.5-1 .4-2.3.3-2.9-.5z" transform="translate(2 2)"/>
      <path fill="none" stroke="#000" d="M95 99.7s3.5 0 3.6-2m5.7 2.9c-.2 2.3-3.6 2.3-3.6 2.3s0 1.7-3.5 2.2"/>
      <path d="M96.6 95.4c.9-.2 2-.2 2.5-1 .4-.7.2.7-.3.7-.6.4-1.4.8-2.1.9l-.1-.6zM89 99.5c.8-.1 1.5-.3 2.2-.6.6-.3 1.4-.6 1.4-1.3.5-.2.9.3.4.6-.8.8-2 1.2-3 1.3h-1zm6.5 3.7c-.4 1.3-1.8 1.8-3 1.8h-2.6c-.5-.1.7-.1.8-.1 1.4 0 2.8-.2 3.8-1.1.2-.4.7-1 1-.6zm9.6-6.7c.1 1-.6 1.7-1.5 2-.3 0-1.3.7-1.3.1s1 0 1.3-.5c.7-.2 1.4-.8 1.5-1.6zm-16 6.2l3.3 1.1c-.9 0-1.8-.1-2.6-.6l-.7-.5zm3.6-2.4l3.4 1.2c.2.3-.8.1-1 0-1-.2-1.8-.5-2.4-1.2zm3.1-2l3.8 1.1c-1.1 0-2.4 0-3.3-.7a4 4 0 01-.5-.4zm3.9-2.4c1 .2 2.1.5 3.1.9-.8.1-1.6-.2-2.3-.5-.3 0-.6-.5-.8-.4z" transform="translate(2 2)"/>
      <path d="M102.2 98.9c-1.4-.5-3-.8-4.2-1.7l1 .4c1 .4 2.2.5 3.3.7l-.1.6zm-7.8.5c1 .8 2.3 1 3.6 1.1.4 0 .9-.1.7.4 0 .4-.7 0-1 0a7 7 0 01-2.9-1c-.1-.2-.4-.3-.4-.5zm-3.2 2.2c1 .6 2.2 1 3.4 1.1.5 0 .7.2.6.7l-1.1-.2-3-1.5.1-.1zm-1.3-4.8c1 .3 2 .5 3.1.6 0 .5-.2.7-.6.4-.9-.3-1.8-.4-2.5-.9zm4-2c1 .3 1.8.5 2.8.6 0 1.3-1.5-.1-2.2-.2l-.6-.4zm-5.2-4.5c.8-.3 1.6-.7 2.4-.6.2.6-.3.5-.7.5l-1.7.1zM84.9 89c.4 0 .6.4.5.8-.2.3-.7 0-.6-.5l.1-.3zm-2.3 0c.2.4 0 1-.6.8-.1-.4.2-.7.6-.8zm-5.4 2.3v1c-.5 0-.5-.6-.3-.8l.3-.2zm3.1.3c.2.4.7.6.8 1.1-.4 0-1 0-1-.6 0-.2 0-.4.2-.5zm-5.2-2c0 .4.2 1-.3 1.2-.3.5-.3.3-.3-.2 0-.4.2-.9.6-1zm5.3-10.3c.5.3.8 1 1 1.5a3 3 0 01-.1 1.8l-.3-1.8-.6-1.5z" transform="translate(2 2)"/>
      <path d="M80.6 79.7c.2.5.2 1 0 1.6l-.4.7-.6.6.2-.8.3-.7.2-.7.3-.7zm-.3-.1c.1.3 0 .6-.2.9 0 .2-.3.4-.5.6l-.6.4c-.2.1-.4.2-.6.5 0-.3.1-.6.3-.8l.5-.6.6-.4.5-.6zm6.1-8.9l.6.1.4.4.2.6c0 .1 0 .4-.2.5l-.3-.4-.2-.3-.2-.4a2 2 0 01-.3-.5zm.1 1.7c.3 0 .5.2.7.5l.4.8v.8l-.4.8-.1-.8-.1-.7a4.7 4.7 0 00-.5-1.4zm1.3 5.7c.2 0 .4.1.5.3l.3.3.2.4v.6l-.4-.3-.2-.3-.3-.4V78zm.7 2.7c.2 0 .4.2.5.3.2.1.3.3.3.5l.2.5v.5a2.4 2.4 0 01-.8-1.2 1 1 0 01-.2-.6zm.5 2.9l.4.5c.2.1.3.4.3.6l.1.6c0 .2 0 .4-.2.6l-.3-.5-.1-.6-.2-.6v-.6zm-.5 2.2c.2.1.3.3.3.4l.2.4v.4c0 .2-.2.3-.3.4l-.2-.4-.1-.3v-.4l.1-.5zM84.9 89l.3.1.2.2v.6H85l-.2-.3v-.5zm-2.3 0c0 .1.1.3 0 .4v.2l-.2.2H82v-.5l.3-.2.3-.1zm-3-1.7c.2.1.1.3 0 .5l-.2.3-.4.1-.3.1V88l.3-.3c.2 0 .2-.1.3-.2l.3-.1zm-2.4 4l.1.3v.4l-.1.3a.5.5 0 01-.4-.2v-.6l.4-.2zm3.1.3l.2.3.2.2.2.2.2.4h-.5a.7.7 0 01-.4-.2.7.7 0 01-.1-.5c0-.2 0-.3.2-.4zm-5.2-2v.9l-.3.3-.3.4v-.9l.2-.4c.1-.2.3-.3.4-.3zm8.3-14.8l.4.1.3.1c.1 0 .2 0 .3.2l.4.2-.5.2H84l-.4-.3-.1-.5zm-1.9-4.9c.3 0 .6.2.8.4l.8.4-.9-.1-.8-.1.1-.6zm-2.5.6a2 2 0 01-1 0 .7.7 0 01-.4-.4.8.8 0 01-.2-.4l.3.3.4.1c.3 0 .5 0 .8-.2l.1.6zm1.6.6c0 .5.2.9-.2.9-.5 0-.9-.4-.9-.9s.3-.8.7-.8c.5 0 .4.4.4.8zm-7.2.4c-.1-.3 0-.6.1-.9l.8-.4c.3 0 .6 0 .8.3.3.1.5.4.3.7a.9.9 0 00-.5-.3h-1.1a1 1 0 00-.4.6z" transform="translate(2 2)"/>
      <path d="M74 71.6l.1-.4.3-.1h.3l.3.3c-.2 0-.3.1-.3.2zm3.6-2.4c.1-.4.5-.6.8-.7.4-.2.8-.2 1.2-.1l1 .2 1 .4h-1l-1-.1h-1c-.4 0-.7 0-1 .3zm-.4-5.5c.5.1 1 .4 1.3.8-.4-.2-1-.2-1.4-.2v-.6zM74.1 66c.5 0 1 .3 1.2.5h-1.2zm7.9-2.8c.4.3.5.8.4 1.2-.1-.4-.4-.6-.7-.8l.4-.4zm4.5 1.2a8 8 0 00-.6 1.3v-1.5zm-13.9 39.1l.8 1 .7 1 .7.8.8 1c-.4-.1-.8-.4-1-.6a5.3 5.3 0 01-1.6-2zm2.1.2l.5.5.4.5.3.4.4.6-.6-.2-.6-.4a2 2 0 01-.3-.6zm.5-3.2l.7 1.3.8 1.2 1 1.1 1 1c-.4 0-.9-.3-1.3-.6a5.6 5.6 0 01-1.9-2.5zm3 1.5l.4.2.2.3.2.2.1.5-.4-.1-.3-.3-.2-.3zm1.4-.3l.4.3h.9l.6.3-.5.2-.6.1c-.2 0-.4 0-.6-.2-.2-.2-.3-.4-.2-.7zm24.8 9.5c-.5 0-.8-.5-1.2-.8l-.9-.9c.5 0 1 .2 1.4.6.3.3.7.6.7 1.1zm-11 .2a6 6 0 01-.9-2c0-.6-.1-1.3.2-1.8-.2.4-.2.9 0 1.4 0 .8.6 1.4 1.1 2zm12.1.1c-.1-.7-.7-1.2-.8-2l1 1.3c.3.2.4.8-.1.7zm-9.9.5c-.5-.1-.7-1.3-.2-1.3.4.3.3.9.2 1.3zm-.7-2c-.6-.5-.2-1.6.5-1.6.4 0-.3.8-.3 1zm6.6 6.6c-.4-.9-1-1.7-1-2.8 0-.4.4-1.2.4-.4 0 .8.5 1.4.6 2.1 0 .4.2.8 0 1.1zm-.6 1.2c-.6.2-1.4 0-1.6-.6.4-.4 1 .3 1.5.5zm3.4-1.8c0-.6-.3-1.3.2-1.9.1-.3.5-.9.4-.2.1.8-.3 1.4-.6 2zm-5.9 15.5c-.5.3-.8.61-1.1 1.01l-.36-.46zm5.28.53c0-.4-.11-.68.29-.98l.25.3c-.16.22-.3.25-.54.68zM92 131.8c-.1-.4-.4-1 .3-.7 0 .2-.1.6-.3.7zm3.9-1.6H98c-.7.6-1.6.6-2.1.6zm-2-2.8c0 .4-.5 1-.7.8.2-.2 0-.9.5-.8zm7.5 2.73l-.6-.73.9.3zm.7-4.73c.4.2.9.6.5 1-.2.12-.48-.75-.5-1z" transform="translate(2 2)"/>
    </g>
  </g>
</svg>
