<svg xmlns="http://www.w3.org/2000/svg" fill="#d7374a" stroke="#000" viewBox="50 50 200 200"><metadata author="Azgaar" license="https://creativecommons.org/publicdomain/zero/1.0"/><g id="compassRose" stroke-width=".5"><path d="M100 60l6 28 14-8-8 15 28 5-28 6 8 14-14-8-6 28-6-28-14 8 8-14-28-6 28-6-8-14 14 8z"/><path fill="#000" fill-opacity=".5" stroke="#000" stroke-opacity=".2" d="M100 61v39l7-6 5 1c2.7-5 5.3-10 8-15-4.3 4.3-8.7 9.7-13 14-2.3-10.7-4.7-22.3-7-33zm0 39l7 7c10.7-2.3 21.3-4.7 32-7zm0 0l-7 7c2.3 10.7 4.7 21.3 7 32zm0 0l-7-7-32 7zm-7-7l1-5-14-8zm0 14c-1.7-.3-3.3-.7-5-1-2.7 4.7-5.3 9.3-8 14l13-13zm14 0c-.3 1.7-.7 3.3-1 5 4.7 2.7 9.3 5.3 14 8z"/></g></svg>