<svg xmlns="http://www.w3.org/2000/svg" fill="#d7374a" stroke="#000" viewBox="50 50 200 200">
<metadata source="https://commons.wikimedia.org/wiki/File:Herb_Viyska_Zaporozkoho.svg" author="Alex Tora" license="https://creativecommons.org/licenses/by-sa/3.0/"/>
  <g id="cossack" stroke-width="2" transform="matrix(-0.12 0 0 0.12 140 49)">
    <path class="tertiary" d="M125.77 143.9c-2.7 3.2-3.3 6.9-1.8 11.1l30.8 9.3 3.5-3.2 1 .3 15.1 5.3 1.1.4 47.2 15.5c.7-2.8 2.2-5.2 4.4-7.3l-47.5-15.6h-.1l-36-10.7-.8-.1-4.1-1.3-12.8-3.7"/>
    <path class="tertiary" d="M123.97 155c-1.5-4.2-.9-7.9 1.8-11.1l-11.3-4.9c-4.9 3.4-5.8 7.8-2.4 13.4l11.9 2.6"/>
    <path class="tertiary" d="M159.27 161.4c-.4.1-.9.3-1.3.4l-3.5 3.2 1.1 4.2c1.1.4 2.1.7 3.3 1.1.8.3 1.8.6 2.8.9 3.1 1 6.2 2 9.4 3 .7.3 1.5.5 2.3.7.7.3 1.6.5 2.4.8l46.6 15.9c-.6-3.3-.5-6.3.3-9l-47.2-15.5-1.1-.3v-.1l-15.1-5.3"/>
    <path class="tertiary" d="M161.68 176.2v-5c-1-.3-2-.6-2.8-.9v8.3l12.2 4 2.3-7.7c-.8-.2-1.6-.4-2.3-.7l-1.8 4.4-7.6-2.4"/>
    <path class="tertiary" d="M171.07 182.6l-12.2-4c0 77.5 24.2 111.6 72.6 102.3 2-2.2 4.1-4.4 6.3-6.6-47.2 6.8-69.4-23.7-66.7-91.7"/>
    <path class="tertiary" d="M222.68 182.6c-.8 2.7-.9 5.7-.3 9 2.5 2.4 7 4 13.8 4.7-.6-3.4-.4-6.4.4-9.1.8-2.7 2.3-5.1 4.4-7.3-3.8-3.3-8.5-4.8-13.9-4.6-2.2 2.1-3.7 4.5-4.4 7.3"/>
    <path class="tertiary" d="m 241,179.9 c -2.1,2 -3.6,4.5 -4.4,7.3 l 77.7,25.4 -1.5,-9.3 -71.8,-23.4"/>
    <path class="secondary" d="M299.68 141.4c-1.5 1.3-2.8 2.9-4.1 4.5-6.5 8.5-9.7 17.7-9.9 27.8 1.7 6.4 5.5 8.6 11.4 6.6.8-.2 1.7-.7 2.6-1.3.7-.4 1.3-1 2.1-1.7.6-.5 1.3-1.2 1.9-1.9.6-.7 2.3-2.4 5.4-5.1 3-2.8 7.3-8.6 13-17.4-5.7 8.8-10 14.6-13 17.4-3.1 2.7-4.8 4.4-5.4 5.1l29-18.7c3.8-2.4 6.4-5.2 7.9-8.4 8.8 6.2 14.1 13.4 15.7 21.5 1.8-8.5 4.6-14 8.3-16.5-6.1-13.8-17.8-21.3-35.1-22.8-12.7.5-22.7 4.1-29.8 10.9"/>
    <path d="M303.68 175.4c-.6.7-1.3 1.4-1.9 1.9 2.1 6.6 5.1 10.4 9.1 11.4v-1.2c0-1.2.4-2.2 1.2-3l.1-.1c.7-.7 1.6-1.3 2.5-1.6v-.1h.1c18.7-9.4 32.6-13.7 41.5-12.9-1.6-8.1-6.9-15.3-15.7-21.5-1.5 3.2-4.1 6-7.9 8.4l-29 18.7"/>
    <path fill="#fff2d3" d="m 363,171.4 c -4.9,-2.3 -14.1,-2 -24.7,1.4 -6.2,2.3 -20.6,9.3 -26.6,11.5 -5.1,17.3 10.9,15.8 9.9,33.2 11.2,13 27.6,14.6 30.5,19.1 0,-2.7 4.8,-7 11.4,-13.8 11,-7.1 -2,-7.5 6.6,-25.7 1.5,-9.6 0,-19.6 -7.1,-25.7 z" />
    <path fill="#FFF" stroke-width="1" d="M345.88 183.4c-.2-.1-.3-.2-.5-.3-.2 0-.5-.1-.8-.1.3 1.3.3 2.5-.2 3.5-.6.9-1.5 1.4-2.8 1.3-.9 0-1.6-.2-2.2-.6-1-.7-1.4-1.6-1.3-3v-.3c0-.3 0-.5.1-.8-.2.1-.3.2-.5.2-.2.4-.2.9-.2 1.5-.1 1.3.3 2.3 1.2 2.9a5 5 0 002.7 1c.9.1 2 .2 3.1.3.5.1.9.2 1.4.2h1.9c0-.6.2-1.1.5-1.4.8-.7 1-2 .8-3.6-1.1-.3-2.2-.5-3.2-.8"/>
    <path fill="#FFF" stroke-width="1" d="M367.98 180.5c-.2.1-.5.3-.6.4-.6.2-1.2.5-1.8.8l-.6.3c-.1.1-.4.2-.6.3.5 1.6.4 2.8 0 3.6-.5.6-1.3 1.1-2.3 1.3-1.2.2-1.9.1-2.3-.4.1.4.1.8.2 1.1.1.4.3.7.4 1.1.5-.4.9-.7 1.6-.8 1.2 0 2.3-.2 3-.5.4-.2.9-.5 1.3-.9.4-.3.9-.6 1.3-.9 0-.1.2-.3.2-.6.1-.2.1-.5.2-.8.1-.5.1-1.1.1-1.6s0-1.1-.1-1.7v-.7"/>
    <path d="M369.07 162.3a9.34 9.34 0 010-10.6c-1.6.1-3.1.7-4.5 1.6-3.7 2.5-6.5 8-8.3 16.5 5.3.4 9 2.6 10.8 6.6.4-.3.8-.5 1.3-.6.1-.1.2-.2.3-.2.8.6 1.2 1.5 1 2.8l.5.8c.8-.5 1.6-1.2 2.3-1.9 1.2-1.2 2.1-2.8 2.6-4.7-.6-2.5-1.4-4.6-2.6-6.4-1-1.6-2.1-2.9-3.4-3.9"/>
    <path fill="#501616" d="M345.88 178.7s-.1 0-.2-.1c-.7-.3-1.6-.4-2.4-.5h-.8l-3.1.3c-1.3.2-2 .8-2.3 1.9-.2 1-.3 2.1-.3 3.2.3-.1.6-.1.9-.2.2 0 .3-.1.5-.2.8-.1 1.5-.1 2.3-.2.7-.1 1.3-.1 2-.1.3 0 .7 0 1 .1.4 0 .8 0 1.1.1.3 0 .6.1.8.1.2.1.3.2.5.3 1 .3 2.1.5 3.2.8.4.1.8.1 1.2.2 1.5.3 2.7.3 3.6 0a14 14 0 01-2.9-2.3c-.7-.6-1.6-1.3-2.5-2-.8-.5-1.7-1-2.6-1.4Z"/>
    <path fill="#501616" d="M368.68 175.6c-.1 0-.2.1-.3.2-.5.1-.9.3-1.3.6-.5.3-.9.7-1.2 1.1l-1.8 2.7c-.7.8-1.5 1.3-2.4 1.6-.4.1-.8.3-1.3.7 0 .2.2.3.5.4.3.1.6.1 1.2.1.3 0 .7 0 1-.1l.6-.3c.3-.1.5-.2.7-.3.2-.1.5-.2.6-.3l.6-.3c.6-.3 1.2-.6 1.8-.8.1-.1.4-.3.6-.4.5 0 1-.3 1.3-.6v-.2c.2-.3.4-.7.4-1.3.2-1.3-.2-2.2-1-2.8"/>
    <path fill="#000" stroke="none" d="M343.48 182.9c-.3-.1-.7-.1-1-.1-.7 0-1.3 0-2 .1-.8.1-1.5.1-2.3.2-.1.3-.1.5-.1.8v.3c-.1 1.4.3 2.3 1.3 3 .6.4 1.3.6 2.2.6 1.3.1 2.2-.4 2.8-1.3.5-1 .5-2.2.2-3.5-.3-.1-.7-.1-1.1-.1"/>
    <path fill="#000" stroke="none" d="M363.68 182.6l-.6.3c-.3.1-.7.1-1 .1-.6 0-.9 0-1.2-.1-.3-.1-.5-.2-.5-.4l-.2.2c-.4.7-.6 1.6-.6 2.9v.1c0 .2 0 .3.1.5 0 .2 0 .5.1.6.4.5 1.1.6 2.3.4 1-.2 1.8-.7 2.3-1.3.4-.8.5-2 0-3.6-.2.1-.4.2-.7.3"/>
    <path class="tertiary" d="M431.38 225.5c0-.2 0-.3-.1-.4l-18.9 5.5c1.7.1 3.5.1 5.4.2 1.9 0 3.7 0 5.6-.2 1.3 0 2.6-.3 3.9-.7.5-.1 1-.3 1.5-.6 1.1-.5 1.9-1.2 2.3-2.2.2-.5.3-1 .3-1.6"/>
    <path class="tertiary" d="M450.07 247.9l-14.4-4.7-7-2.1-28.4-9.4-8-2.6-26-8.5-.1.1c-.5.5-1.4 1-2.7 1.2-.7 1.7-1.4 3.2-2.4 4.4h-.1c-.1.2-.3.4-.4.6 0 0-.1 0-.2.1v.4l36.1 11.7 29.6 11.2c11.8.7 19.8-.1 24-2.4"/>
    <path class="tertiary" d="M423.18 213.9c-1.2 0-2.2.4-2.9 1.3-.8.9-1.2 1.9-1.2 3.1 0 1.3.4 2.3 1.2 3 .3.3.6.5.9.8.6.3 1.3.5 2 .5 1.2 0 2.1-.5 2.9-1.3.1-.1.1-.2.2-.2a4.47 4.47 0 00-.2-5.9 3.6 3.6 0 00-2.9-1.3"/>
    <path class="tertiary" d="M423.18 222.6c-.7 0-1.4-.2-2-.5-2.2.5-4.1 1.9-5.9 4-1.7 2.2-2.5 3.3-2.4 3.5 0 0-.1.3-.5 1l18.9-5.5c0-.7-.3-1.2-.9-1.7-1.2-1-2.6-1.8-4.1-2.3-.1 0-.1.1-.2.2-.8.8-1.7 1.3-2.9 1.3"/>
    <path class="tertiary" d="M401.38 219.6c-1.3-1.2-2.6-2.2-3.9-3.3-.3-.2-.6-.4-.8-.7-.3 2.1-.1 4 .4 5.9.1.2.1.3.2.6.8 1.2 1.5 2.6 2.3 4 .3.7 1.1 1 2.5 1 1.9-1 2.3-2.5 1.6-4.5-.6-1.2-1.3-2.3-2.3-3"/>
    <path class="tertiary" d="M397.27 222.1v.6c0 1.4-.6 2.6-1.7 3.6-1.2 1.1-2.3 2-3.3 2.8l8 2.6c-.5-2.2.1-3.8 1.8-4.6-1.4 0-2.2-.3-2.5-1-.8-1.4-1.5-2.8-2.3-4"/>
    <path class="tertiary" d="M390.57 250.8l.9.4c9.9 3.7 19.7 7.5 29.4 11.2 5.6 2.2 11 4.3 16.4 6.4v-.1c2 .7 3.9 1.4 5.8 2 2 .7 4.8 2.4 8.4 4.9l4.1 6.4 3.1 4.9 47.7 75.3h.1c2.7-1.1 6.1-1.6 10.4-1.3 1.6-.4 3.2-.8 4.8-1.3 1.2-1.8 1.9-3.1 2.1-3.9-1.2-3.6-1.8-6.4-1.7-8.3 0-2 .4-3.5 1-4.5.7-1 1.3-1.7 1.8-2.1a5.9 5.9 0 013.6-5.9c.2-2.4 1.1-3.3 2.6-2.7s2.4 1.6 2.5 2.8c.2.7.4 1.4.7 2.1 1.3-1.5 2.4-1.5 3.7 0l4.3 8.8c2.6-3.5 4.5-7.6 5.8-12.2l-80.6-70.6c-1.5-6-7.2-11-17.4-15.2-4.2 2.3-12.2 3.1-24 2.4l-29.6-11.2-36.1-11.7v8.4c.6.7 1.3 1.4 2.1 2.1l1-.2.6 1.5c3.4 1.4 6.8 2.9 10.2 4.6 3.3 1.6 5.6 2.8 6.8 3.5l5.4 2 4.1 1.5"/>
    <path class="tertiary" d="M431.07 227.1c-.4 1-1.2 1.7-2.3 2.2-.5.3-1 .5-1.5.6 2.5 3.7 3 7.4 1.4 11.2l7 2.1c1.8-5.4.3-10.7-4.6-16.1"/>
    <path class="tertiary" d="M417.57 263.6c-.5 0-.9.1-1.3.4-.4.3-.6.7-.6 1.2-.1.6-.1.9 0 1 .2.1 1.6.3 4.4.5 2.8.1 4.9 3 6.5 8.5 1.5 5.4 2.4 8.3 2.6 8.5.2.3.5.5.8.5 4.4 1.4 8.3 2.6 11.7 3.4 3.5.7 6.4 1.2 8.7 1.3 2.7.2 5-.2 6.9-1.1.6-.3 1.1-.6 1.4-.9l-3.1-4.9c-.2.1-.3.2-.5.4-.3.4-.4.9-.3 1.5 0 .3 0 .6-.3.7-.8.5-2.2.6-3.9.6-3-.2-7.1-1-12.3-2.4-2-.5-4.1-1.1-6.4-1.9-2.9-10.6-7.6-16.3-14.3-17.3"/>
    <path class="tertiary" d="M437.27 268.7v.1c2.1.8 3.2 1.8 3.4 3 .2 1.2-.1 2.3-.9 3.3-.7 1.5-2.6 2.1-5.7 2-.7 0-1.4 0-2.1-.1.5.2 1.5 1 3.1 2 .2.2.5.3.8.5 1.3.7 2.7.8 4.1.2 1.7-.6 2.9-1.2 3.5-1.6 2.2-1.4 4.9-2.2 8-2.5-3.6-2.5-6.4-4.2-8.4-4.9-1.9-.6-3.8-1.3-5.8-2"/>
    <path class="tertiary" d="M315.57 214.1c-.2-.2-.3-.4-.4-.5-.3-.4-.6-.8-.9-1l-77.7-25.4c-.8 2.7-1 5.7-.4 9.1l79.8 27.1 1.5-8.8c-.8 0-1.4-.2-1.9-.5Z"/>
    <path class="secondary" d="M411.57 345.5c-.4 3.4-.9 6.8-1.5 10.2-9.4.8-18.9 1.5-28.6 1.9l-3.5.6c-.6.7-1.4.9-2.3.9-.9 0-1.7-.2-2.3-.9-.1-.1-.2-.1-.2-.2a633 633 0 01-33.8.3c-4.8 0-9.7-.1-14.5-.2l-13.9 12.4 13.9-12.4c-2.8-2.5-6.8-3.3-11.8-2.5-5.1.9-8.7-.1-10.4-2.9-1.1-1.4-2-2.9-3-4.4l-2.3 14.4c0 .1 0 .2.1.3.6.8 1.2 1.6 1.8 2.2.4.4.7.9 1 1.7 1.2.6 2.4 1.4 3.4 2.2.4.3.5.8.4 1.7-.1 1.3-.2 2.5-.2 3.6.4.7.5 1.4.4 2.3-.2 1.7-.5 3.5-1.1 5.2 3 .5 6.1.9 9.2 1.4 3.5.4 7.6 0 12-1.4l20.1-16-20.1 16c4.8 1.3 9.8 2 15 2.1 6.2.1 12.8-.6 19.7-2.2l17.8-15.1-17.8 15.1a119.61 119.61 0 0051-1.7l8.6-5.5c-.7-12.2-3.1-21.9-7.1-29.1"/>
    <path d="M385.88 323.7l-1.8-4.9-7.8 1.5v.1c.7.7 1 1.5 1 2.5 0 .9-.3 1.7-1 2.4l9.6-1.6"/>
    <path d="M387.38 341.1l-1.8-4.9-7.7 1.5v.1c.6.7.9 1.5.9 2.5 0 .9-.3 1.7-.9 2.4l9.5-1.6"/>
    <path d="M387.48 356.6l-1.8-4.9-7.7 1.6c.6.7.9 1.5.9 2.5 0 .7-.2 1.4-.6 2-.1.1-.2.2-.3.4l3.5-.6 6-1"/>
    <path class="secondary" d="M418.68 374.6l-.1 31.8.1-31.8-8.6 5.5c3.6 19.9 5.5 39.9 5.8 59.9l7-5.5 7.1-5.8c-.4-18-4.1-36.1-11.3-54.1"/>
    <path d="M385.98 392.1l-1.9-5-7.6 1.6v.1c.6.6.9 1.4.9 2.4 0 .9-.3 1.8-.9 2.4l9.5-1.5"/>
    <path d="M384.07 387.1l1.9 5-9.5 1.5c-.7.7-1.5 1-2.4 1s-1.6-.3-2.2-1c-.1 0-.1-.1-.2-.2l17.9 181.4-23.4 22c10.3 7.6 19.8 7.6 28.5 0v-35.2 35.2c7.7 6.8 14.5 9.7 20.4 8.5 2.2-.4 4.4-1.4 6.4-3 1.7-1.4 3.3-3.2 4.8-5.5l-6-83.3 6 83.3c8.4.6 14.4-2.3 17.8-8.7l-13.7-99.1-3.4-24.1-4.1-30.4-7 5.5c-.3-20-2.2-40-5.8-59.9-12.7 3.2-25.6 4.3-38.6 3.3 0 1.9 0 3.8.1 5.7 0-.1.2-.3.3-.3.6-.7 1.3-1 2.2-1s1.6.3 2.2.9h.2l7.6-1.6"/>
    <path class="tertiary" d="M464.48 421.8c1.3 2 3.1 2.2 5.3.4 2.2-1.8 5.8-1.1 10.7 2.2.7.4 2.4 1.6 5 3.6 2.1-.2 2.5-2 1.3-5.5s-3.6-6.4-7.2-8.7c-3.6-2.3-7.1-1.7-10.4 1.7-.8 1.3-1.7 2.6-2.5 3.9-.7.8-1.4 1.6-2.2 2.4"/>
    <path class="tertiary" d="M469.77 422.2c-2.2 1.8-4 1.6-5.3-.4-8 7.8-14.9 16.6-20.7 26.6h.3c2.4.6 6-.7 10.9-3.7-1.8 5.9-2.4 10.2-1.8 12.9 9.2-8.2 15.9-17.6 20-28.5.4-.6.9-1.2 1.3-1.9 1.1-1.6 3.1-2.5 6-2.8-4.9-3.3-8.5-4-10.7-2.2"/>
    <path fill="#FFF2D3" stroke="none" d="M534.27 337.1c-.3-.7-.5-1.4-.7-2.1-.1-1.2-1-2.2-2.5-2.8s-2.4.3-2.6 2.7c.4 1.7.9 3.6 1.5 5.6.6 1.6 1.5 3.4 2.6 5.6.7 1 1.2 2 1.7 3-.5-1-1-2-1.7-3-1.1-2.2-2-4-2.6-5.6-.6-2-1.1-3.9-1.5-5.6-.9.3-1.5.9-2.2 1.6a5.9 5.9 0 00-1.4 4.3c.7 1.2 1.4 2.8 2 4.5.5 1.7 1.1 3.4 1.8 4.9.7 1.5 1.3 3.1 1.7 5 0 .3.1.6.2.9-.1-.3-.2-.6-.2-.9-.4-1.9-1-3.5-1.7-5s-1.3-3.2-1.8-4.9c-.6-1.7-1.3-3.3-2-4.5-.5.4-1.1 1.1-1.8 2.1-.6 1-1 2.5-1 4.5-.1 1.9.5 4.7 1.7 8.3.3.4.6.7.9 1-.3-.3-.6-.6-.9-1-.2.8-.9 2.1-2.1 3.9-.3.6-.6 1.1-1.1 1.7-1.3-.2-2.5-.4-3.7-.4-4.3-.3-7.7.2-10.4 1.3-.4.2-.8.3-1.1.6-5.1 2.8-7.2 8.5-6.3 17.2 2.1.2 3.8.3 5.3.4.7.1 1.5.1 2.1 0 1.7-.1 3.6-.2 5.4-.2 1.7 0 3.4-.4 4.8-1.1 1.4-.8 2.9-1.6 4.4-2.6 4-1 7.5-2.4 10.3-4 4.1-2.3 6.9-5.3 8.4-8.8 1.2-4.1 2.1-9.9 2.8-17.3l-.3-.5-4.3-8.8c-1.3-1.5-2.4-1.5-3.7 0l4.3 11-4.3-11"/>
    <path class="secondary" d="M516.67 379.1c-1.4.7-3.1 1.1-4.8 1.1-1.8 0-3.7.1-5.4.2-.6.1-1.4.1-2.1 0 1.2 1.1 2.6 2.1 4.1 3 1.6 1 3.1 2.1 4.5 3.3 1.4 1.1 3 1.8 4.8 2 1.8.1 3.6.3 5.4.3h10.9v-5.8c0-2.1-.1-4.1-.5-5.9-.5-1.6-1.1-3.2-2.2-4.8-2.8 1.6-6.3 3-10.3 4-1.5 1-3 1.8-4.4 2.6"/>
    <path class="tertiary" d="M436.68 444.3a15.5 15.5 0 01-4.5-7.4c-3.2-1.9-5.6-1.7-7.2.4-1 1.2-1.4 2.4-1 3.7.3 1.2 1.4 2.5 3.2 3.9 2.8-.2 5.1.6 6.8 2.4 1.4 1.6 2.5 2.6 3.1 2.9.8 1.9 1.4 3 1.6 3.3.3.6.5 1.2.7 2 .5 2.5-.1 6-1.8 10.8 4.2-2.5 7.6-3.5 10.4-2.7.7.2 1.3.5 1.9.9.8.4 1.4.9 2.1 1.3 1.9 1.4 3.3 2.7 4.1 3.9 1.1 1.5 1.7 3.9 1.8 7.2 2 1.2 4.3 1.8 6.8 1.7 3.1-2 2.9-4.8-.4-8.3-2.6-.6-4.8-2-6.9-4.3-2-2.2-3.4-4.9-4.2-8v-.4c-.6-2.7 0-7 1.8-12.9-4.9 3-8.5 4.3-10.9 3.7h-.3c-2.6-.7-5-2-7.1-4.1"/>
    <path class="tertiary" d="M438.68 453.5c-.2-.3-.8-1.4-1.6-3.3l-10.1 14.7 3.4 24.1 21.6-23.2c-.7-.4-1.3-.9-2.1-1.3-.6-.4-1.2-.7-1.9-.9-2.8-.8-6.2.2-10.4 2.7 1.7-4.8 2.3-8.3 1.8-10.8-.2-.8-.4-1.4-.7-2"/>
    <path class="secondary" d="M415.07 605.3c-5.9 1.2-12.7-1.7-20.4-8.5-8.7 7.6-18.2 7.6-28.5 0-6.4 4.1-13.5 6.3-21.2 6.7-1.1 2.4-2.9 4.5-5.4 6.6-3.4 2.8-7.3 5.2-11.6 7-3 1.4-6 3.1-8.9 5.2 2.3 4.7 5.8 7.4 10.3 7.9 4.1.4 8.5.5 13.4.3 3.6-.2 6.9-1.1 9.8-2.6.8-.4 1.6-.9 2.4-1.3.1-.2.4-.3.7-.4 2.8 3.3 6.8 5.1 11.9 5.2 4.9.1 9.5-.5 14-2 2.4-.7 4.7-1.8 6.9-3.1 1-.6 1.9-1.3 2.9-1.9.5-.4 1-.9 1.5-1.3-.5.4-1 .9-1.5 1.3 3.8 2.4 7.8 2.5 12 .4 4.1-2.2 7.2-6.6 9.4-12.9.7-2.4 1.5-4.6 2.3-6.6"/>
    <path d="M388.68 642c.1-5 .1-10.3-.2-15.7-2.2 1.3-4.5 2.4-6.9 3.1-4.5 1.5-9.1 2.1-14 2-5.1-.1-9.1-1.9-11.9-5.2-.3.1-.6.2-.7.4-.8.4-1.6.9-2.4 1.3 3.7 3.2 5.6 7.4 5.8 12.6l.3 14.4c.1 5.2-.9 9.6-3 13.1-2.2 3.9-3.1 8.4-2.8 13.9.3 4.9 2.6 7.9 6.8 8.9 4.5 1.1 8.1 3.1 10.7 5.9 2.7 3.1 5.3 6.4 7.8 10.1 2.7 3.9 6.1 6.1 10.3 6.9 4.1.8 8.3 1.4 12.5 2 4.1.5 8.1 1 11.9 1.7 3.7.6 6.4.9 8.1.8-.4-.5-.9-1.6-1.3-3.4-1.4-4.8-2.9-9.3-4.4-13.7a21.36 21.36 0 00-11.3-12.2c-4.2-1.6-7.5-3.7-10.2-6.2-2.8-2.7-4.4-6.6-4.7-11.7-.4-4.8-.6-9.7-.7-14.6 0-4.8.1-9.7.3-14.4"/>
    <path fill="#501616" d="M362.77 205.3c-.9.8-2.1 1.2-3.6 1.5-1.1-1.7-2.5-2.2-4.2-1.7-1.8.5-2.9.7-3.2.3-.8.2-1.4.4-1.8.4-.3.1-1 .4-2.1.9-1.1.4-2.1 1-2.9 1.9-.8.7-1.6 1.4-2.2 2.1-.7.7-1.1 1.4-1.4 1.9-.3.5-1.2 1.3-2.8 2.5-1.6 1-3.3 1.4-5.1 1-1.7-.3-2.6-.5-2.8-.5l.1.1c.8 1.1 1.6 2.1 2.3 2.9.8.8 1.5 1.5 2.2 1.9 1.3.9 3.1 1.4 5.1 1.5.9.1 1.8 0 2.7-.2 1.1-.2 2.3-.7 3.4-1.2 2-1 3.9-2.3 5.9-3.6.2-.2.5-.4.7-.6 1.5-1.2 2.6-1.9 3.2-2.4 0 .6.9 1.2 2.6 1.8 2.4.9 3.9 2.2 4.4 3.8.2.7.2 1.5.2 2.3 1.3-.2 2.2-.7 2.7-1.2l.1-.1c.8-.7 1.3-1.6 1.8-2.6v-.2c.1-.2.2-.6.2-1-.1-1.2-.6-2.9-1.5-5.3-.3-.8-.6-1.4-.9-2.1-1.1-2.3-2.2-3.7-3.1-4.1"/>
    <path d="M356.88 229.6c-.5.6-1.1 1.2-1.6 1.8-1.5 1-2.5 2.8-3.2 5.2-.3.7-.5 1.5-.6 2.5.6-.5 1.2-.8 2-.7h.5c.6-.1 1.1-.3 1.7-.5 1.5-.6 3.1-1.3 4.7-2.1V227l-.3.3-1.6 1.3c-.5.3-1 .6-1.6 1"/>
    <path d="M353.98 238.4h-.5c-.8-.1-1.4.2-2 .7h-.1l-.1.1c0 .1-.1.1-.1.1-.7.7-1 1.5-1 2.5 0 .9.3 1.8 1 2.4.6.7 1.4 1 2.3 1s1.6-.3 2.2-1c.7-.6 1-1.5 1.1-2.4-.1-1-.4-1.8-1.1-2.5-.5-.4-1-.7-1.7-.9"/>
    <path d="M346.57 232.8c-2.6-.6-6.4-2.3-11.2-5.2-7.8-4.6-12.2-8.3-13.3-10.8-.3-.7-.6-1.4-.8-2-.1-.5-.2-.8-.3-1.2-.4.3-1 .5-1.5.6-.2 0-.3.1-.5.1h-.2c-.3 0-.6 0-.9.1-.1.1-.3.1-.4.2l-1.5 8.8-1.1 6.7c14.4 8.5 26.5 11.5 36.4 9.1l.1-.1c-.2-1.3-.5-2.3-1-3.2a5.9 5.9 0 00-3.8-3.1"/>
    <path d="M355.68 239.3c.7.7 1 1.5 1.1 2.5-.1.9-.4 1.8-1.1 2.4l9.7-1.6-1.3-3.4-.6-1.5-1 .2-6.8 1.4"/>
    <path d="M351.18 244.2c-.7-.6-1-1.5-1-2.4 0-1 .3-1.8 1-2.5 0 0 .1 0 .1-.1-9.9 2.4-22-.6-36.4-9.1-5.4 1.1-10.5 2.6-15.2 4.5a70.8 70.8 0 00-12.3 6.2c1.9 1.5 3.5 3.8 4.8 6.6-1.3-2.8-2.9-5.1-4.8-6.6-1.1-1-2.4-1.7-3.6-2.2-3.9-1.3-8.4-.5-13.5 2.8-.4 1.3-1.6 3.2-4.1 6-4 4.6-11 11.2-21 19.9-2.5 2.3-5 4.6-7.4 7-2.2 2.2-4.3 4.4-6.3 6.6-.9 1-1.8 1.9-2.6 3a195 195 0 00-24.6 35.8c-10.4 13.6-13.1 23.3-7.9 29.2 19 20 37.2 34.8 54.4 44.2.6 0 1.2 0 1.7-.1.2.1.5.3.6.4h.1c9.8.8 18.6-1.9 26.2-8.3 7.5-4.6 11.3-9.3 11.3-13.9l-10.7-9.5c-.6 0-1.2 0-1.7.1-.8-.1-1.5 0-2.2.1-2 .2-3.8.5-5.5 1.1-1.8.5-3.5 1.3-5.1 2.2-1.7.9-3.3 1.6-4.8 2.2.1 1.5 0 3-.3 4.4-.5 1.9-.9 3.8-1.1 5.7l-.6 2.8.6-2.8c.2-1.9.6-3.8 1.1-5.7.3-1.4.4-2.9.3-4.4-.1-.3-.1-.7-.2-1.1l-.3.6c-.7.9-1.4 2.1-2.3 3.3l-3.2 4.7 3.2-4.7c.9-1.2 1.6-2.4 2.3-3.3l.3-.6-21.2-29.8c-3.2-5.2-8.9-7.9-16.9-8 8 .1 13.7 2.8 16.9 8 24.8-11.2 38.9-21.8 42.5-31.8 5.4 2.2 10.6 2.9 15.7 2.1-5.1.8-10.3.1-15.7-2.1 4.1 16.1 9.4 29.4 15.7 40.2.7 1.2 1.4 2.3 2.2 3.4 1 1.5 1.9 3 3 4.4 1.7 2.8 5.3 3.8 10.4 2.9 5-.8 9 0 11.8 2.5 4.8.1 9.7.2 14.5.2 11.3.2 22.7.1 33.8-.3a3 3 0 01-.8-2.2c0-1 .4-1.8 1-2.5.1 0 .1-.1.1-.2 0-3.5-.2-7.1-.4-10.7-.6-.6-.8-1.3-.7-2.1 0-.7.1-1.3.4-1.8-.3-4.5-.7-8.9-1.2-13.3-.6-.7-.9-1.4-.8-2.3-.1-.7.1-1.2.3-1.7-.5-3.8-1-7.8-1.6-11.6-.2-.2-.4-.3-.5-.4-.7-.6-1-1.5-1-2.5 0-.8.2-1.5.7-2-.7-4-1.5-8-2.2-12-.2-.1-.4-.3-.6-.4-.6-.6-.9-1.5-.9-2.5 0-.6.1-1.2.4-1.7-.8-4.1-1.9-8.2-2.9-12.3-.5-.2-.9-.5-1.2-.8-.7-.7-1-1.5-1-2.5 0-.8.3-1.6.8-2.2l-3-10.4c-.3-.2-.5-.3-.7-.7a3.2 3.2 0 01-1.1-2.4c0-.6.2-1.2.5-1.6-.2-.6-.5-1.2-.6-1.8-.2-.4-.3-.9-.5-1.3-.8-2.4-1.5-4.7-2.2-6.9-.9 0-1.7-.3-2.3-1"/>
    <path d="M365.88 270.1c.6.7.9 1.5.9 2.4 0 1-.3 1.8-.9 2.5l9.5-1.7-1.9-4.9-7.6 1.7"/>
    <path d="M366.77 272.5c0-.9-.3-1.7-.9-2.4h-.1c-.7-.7-1.4-1-2.3-.9-.9-.1-1.6.3-2.2.9l-.2.2c-.5.6-.8 1.4-.8 2.2 0 1 .3 1.8 1 2.5.3.3.7.6 1.2.8.3.1.6.1 1 .1.9 0 1.7-.3 2.4-.9.6-.7.9-1.5.9-2.5"/>
    <path d="M380.07 290.7l-1.9-4.9-7.7 1.6c.7.7 1 1.5 1 2.4 0 1-.3 1.9-1 2.5l9.6-1.6"/>
    <path d="M365.38 288.1c-.3.5-.4 1.1-.4 1.7 0 1 .3 1.9.9 2.5.2.1.4.3.6.4.4.4 1 .6 1.7.6.9 0 1.7-.3 2.3-1 .7-.6 1-1.5 1-2.5 0-.9-.3-1.7-1-2.4h-.1c-.6-.7-1.3-1-2.2-.9-.8-.1-1.6.3-2.3.9-.2.2-.3.4-.5.7"/>
    <path d="M368.98 304.3c-.2.1-.3.3-.3.4-.5.5-.7 1.2-.7 2 0 1 .3 1.9 1 2.5.1.1.3.2.5.4.5.3 1.1.5 1.8.6.9 0 1.6-.3 2.2-1 .7-.6 1-1.5 1.1-2.5-.1-.9-.4-1.7-1.1-2.4-.7-.7-1.4-1-2.2-.9-.9-.1-1.7.3-2.3.9"/>
    <path d="M374.57 306.7c-.1 1-.4 1.9-1.1 2.5l9.7-1.7-1.9-4.9-7.8 1.7c.7.7 1 1.5 1.1 2.4"/>
    <path fill="#FFF2D3" stroke="none" d="M283.88 361.1c-1.2.3-2.6.5-3.9.6l10.7 9.5c.3-.1.6-.2.6-.1h.9c1.7 0 3.5 0 5.3.1h.3c1.6.1 3.2.5 4.6 1.3.8.5 1.3 1.1 1.5 1.9 0-1.1.1-2.3.2-3.6.1-.9 0-1.4-.4-1.7-1-.8-2.2-1.6-3.4-2.2-.4-.2-.9-.4-1.2-.6-.6-.2-1-.5-1.6-.7-1.2-.3-2.5-.4-3.8-.4-1.8.1-3.6.2-5.5.2 1.9 0 3.7-.1 5.5-.2 1.3 0 2.6.1 3.8.4.6.2 1 .5 1.6.7.3.2.8.4 1.2.6-.3-.8-.6-1.3-1-1.7-.6-.6-1.2-1.4-1.8-2.2-.1-.1-.1-.2-.1-.3-.5-.6-.9-1.3-1.3-2s-.9-.9-1.7-.8c-1.7.3-3.5.4-5.3.6-1.9 0-3.6.3-5.2.6"/>
    <path d="M234.57 426.8c2-4.3 2-5.6-.3-4.1-2.3.8-4.3 2-5.9 3.5l5 3.2c0-1 .4-1.9 1.2-2.6"/>
    <path d="M233.38 429.4l-5-3.2c-3.7 3.2-5.7 7.9-5.8 14 2-4 5.6-7.7 10.8-10.8"/>
    <path d="M267.68 398.2c-.7-.1-1.4-.2-2.2-.4-2.2-.5-4.9-1.3-7.8-2.5-1 .4-1.9.9-2.8 1.6-1.6 1.4-2.4 3-2.4 5 0 .4 0 .8.1 1.2.3 1.5 1.1 2.7 2.3 3.8 1.6 1.4 3.5 2.1 5.9 2.1 2.1 0 4.1-.7 5.6-2.1 1.3-1 2-2.1 2.4-3.4 0-.5.1-1.1.1-1.6 0-1.4-.5-2.6-1.2-3.7"/>
    <path fill="#FFF2D3" stroke="none" d="M265.48 397.8c.8.2 1.5.3 2.2.4 1.5.2 2.8.2 3.9 0 1.5-.2 2.7-.5 3.7-.7 3.8-2 6.8-3.7 9-4.8 2.5-1.5 4-2.4 4.6-2.8.5-.3 1-.5 1.4-.8.9-.5 1.6-1.1 2.6-1.6.5-.3 1-.7 1.5-1.2.3-.2.7-.5 1.1-.7-.4.2-.8.5-1.1.7-.5.5-1 .9-1.5 1.2-1 .5-1.7 1.1-2.6 1.6-.4.3-.9.6-1.1 1.1-.8.9-1 2-.8 3.4 0 .6.3 1.3.5 1.8 1.1-.7 2.2-1.4 3.3-2 1.2-.7 2.5-1.2 3.7-1.7.4-.2.8-.3 1.2-.5h.4c1.4-.6 2.9-1.2 4.6-2 1.1-1.1 1.6-2.7 1.5-4.8-.1-.8-.2-1.7-.4-2.5-.3-1-.8-1.9-1.3-2.8-1.5-.3-2.9-.4-4.4-.4h-1 1c1.5 0 2.9.1 4.4.4.5.9 1 1.8 1.3 2.8.6-1.7.9-3.5 1.1-5.2.1-.9 0-1.6-.4-2.3-.2-.8-.7-1.4-1.5-1.9-1.4-.8-3-1.2-4.6-1.3h-.3c-1.8-.1-3.6-.1-5.3-.1h-.9c0-.1-.3 0-.6.1 0 4.6-3.8 9.3-11.3 13.9-7.6 6.4-16.4 9.1-26.2 8.3 1.6.7 3.1 1.4 4.5 1.9 2.9 1.2 5.6 2 7.8 2.5"/>
    <path d="M260.77 409c-2.4 0-4.3-.7-5.9-2.1-1.2-1.1-2-2.3-2.3-3.8-1.9.5-3.6 1.2-5.2 2.2-2.6 1.5-4.2 3.2-4.9 5.3-.2.7-.3 1.5-.3 2.2 0 1.8.6 3.4 1.9 4.9.8.9 1.9 1.8 3.3 2.6 3.5 2.1 7.8 3.1 12.7 3.1 3.4 0 6.5-.4 9.3-1.5.5-.9.9-1.7 1.3-2.6 1.7-3.8 3.6-7.5 5.5-11.2-.9-1-2-2-3.5-2.8-1.3-.8-2.5-1.4-3.9-1.8-.4 1.3-1.1 2.4-2.4 3.4a8.12 8.12 0 01-5.6 2.1"/>
    <path d="M376.27 320.4v-.1c-.7-.6-1.4-.9-2.3-.9s-1.7.3-2.3 1c-.2.2-.4.5-.6.8-.2.5-.4 1-.3 1.7-.1.9.2 1.6.8 2.3l.1.1c.6.6 1.4.9 2.3.9s1.7-.3 2.3-.9c.7-.7 1-1.5 1-2.4 0-1-.3-1.8-1-2.5"/>
    <path d="M377.88 337.8l-.1-.1c-.6-.6-1.3-.9-2.2-.9s-1.6.4-2.3 1c-.2.2-.3.5-.5.7-.3.5-.4 1.1-.4 1.8-.1.8.1 1.5.7 2.1 0 .1.1.2.2.3.7.6 1.4 1 2.3 1s1.7-.4 2.3-1c.6-.7.9-1.5.9-2.4 0-1-.3-1.8-.9-2.5"/>
    <path d="M373.48 353.1c0 .1 0 .2-.1.2-.6.7-1 1.5-1 2.5 0 .8.2 1.6.8 2.2 0 .1.1.1.2.2.6.7 1.4.9 2.3.9.9 0 1.7-.2 2.3-.9.1-.2.2-.3.3-.4.4-.6.6-1.3.6-2 0-1-.3-1.8-.9-2.5h-.1c-.6-.7-1.3-1-2.2-.9-.8 0-1.6.2-2.2.7"/>
    <path class="secondary" d="M324.38 381.9c-4.4 1.4-8.5 1.8-12 1.4-3.9 5-7 11.5-9.3 19.7 2.3-8.2 5.4-14.7 9.3-19.7-3.1-.5-6.2-.9-9.2-1.4.2.8.3 1.7.4 2.5.1 2.1-.4 3.7-1.5 4.8-1.7.8-3.2 1.4-4.6 2h-.4c-.4.2-.8.3-1.2.5-8.1 13.7-12.5 29.1-13 46.1h27.7c2.8-22.5 7.4-41.1 13.8-55.9"/>
    <path d="M376.48 388.8l-.2-.1c-.6-.6-1.3-.9-2.2-.9s-1.6.3-2.2 1c-.1 0-.3.2-.3.3-.4.6-.7 1.3-.7 2.1s.2 1.5.7 2.2h.1c.1.1.1.2.2.2.6.7 1.3 1 2.2 1s1.7-.3 2.4-1c.6-.6.9-1.5.9-2.4 0-1-.3-1.8-.9-2.4"/>
    <path class="secondary" d="M371.68 393.4h-.1c1.6 75.7-.3 143.5-5.4 203.4l23.4-22-17.9-181.4"/>
    <path class="tertiary" d="M177.07 574.4c-18.5-1-18.5 2.1 0 9.1 15.4 5.9 30.7 6.2 46.2.8.8-6.9 1.9-13.6 3-20.3-15.4 6.8-31.8 10.3-49.2 10.4"/>
    <path class="secondary" d="M261.18 599.4c-5 2.1-9.2 3.1-12.7 3.2 1.4 4.1 2.6 8.2 3.6 12.3.5 2 1.3 4.1 2.6 6.1.5.7.9 1.5 1.5 2.1.9 1.4 1.9 2.5 2.8 3.5 1.4 1.3 3.7 2.6 6.9 3.7 3.2 1.2 7 .9 11.3-.6 4.1-1.5 8.1-3.3 12.1-5.5.1-.1.4-.2.6-.2 1-.7 2.2-1.3 3.2-1.8 2 4.9 5.7 7.1 11.2 6.7 4.8-.4 9-2.1 12.6-4.9.8-.6 1.5-1.2 2.2-1.7 2.9-2.1 5.9-3.8 8.9-5.2 4.3-1.8 8.2-4.2 11.6-7 2.5-2.1 4.3-4.2 5.4-6.6-3.1.2-6.5.1-9.8-.3-24.5 6.8-40 5.6-46.5-3.5l-4-.3c-10 5.8-17.8 5.8-23.5 0"/>
    <path class="secondary" d="M237.38 594.9c-.8.1-1.6.1-2.4.1-.9 5.9-.5 10.7 1.1 14.5 1.3 3.5 3.2 6.1 5.4 8 2.9 2.4 6.1 4.1 9.7 5 .4 0 .9.1 1.3.2 1 .3 2.2.4 3.7.4-.6-.6-1-1.4-1.5-2.1-1.3-2-2.1-4.1-2.6-6.1-1-4.1-2.2-8.2-3.6-12.3-5.7 0-9.4-2.5-11.1-7.7"/>
    <path d="M277.18 629.7c-4.3 1.5-8.1 1.8-11.3.6-3.2-1.1-5.5-2.4-6.9-3.7-.9-1-1.9-2.1-2.8-3.5-1.5 0-2.7-.1-3.7-.4-.4-.1-.9-.2-1.3-.2.6 5.3 1 10.2 1.3 14.8.4 4.6.8 8.5 1.3 11.5.6 3.1.8 5.9.5 8.3-.3 2.4-.5 4.3-.5 5.8 0 1.3-1.1 4.9-3.4 10.5-2.3 5.5-5.5 9.8-9.5 12.8-3.7 2.7-6.2 6.1-7.6 10.2-1.6 4.9-1.7 9.4-.3 13.6 1.2 3.8 1.6 7.5 1.3 11.1 4.5-3.4 9.3-6 14.3-7.9 4.9-1.9 9-3.5 12.2-5 3-1.5 6.4-3.4 9.9-5.9 3.5-2.6 5.1-6.5 4.8-11.8 1.6-2.4 4.6-4.9 8.9-7.2 2.2-1.1 3.3-3 3.5-5.7.3-5.1-.6-9.2-3-12.5-1.5-2.2-2.2-5-2.2-8.4.1-5.2 1-9.9 3-13.9 1.9-4.2 3-8.6 3.2-13.2.1-2 .2-3.7.4-5.4-4 2.2-8 4-12.1 5.5"/>
    <path d="M276.77 407c-.2.3-.5.7-.6 1.1-1.9 3.7-3.8 7.4-5.5 11.2-.4.9-.8 1.7-1.3 2.6-.7 1.8-1.6 3.5-2.3 5.2-1.2 2.3-2.2 4.7-3.2 7-1 2.4-2 4.7-3 7-.7 2-1.6 4-2.4 6-1.6 4-3.2 8-4.7 12.1v.1c-5.3 14-10 28.4-14.1 43.2 0 .3-.1.5-.1.8a552.9 552.9 0 00-13.3 60.7c-1.1 6.7-2.2 13.4-3 20.3-.2 1.4-.5 3-.6 4.5 2.5 4.1 6.6 6.1 12.3 6.2.8 0 1.6 0 2.4-.1 2.8-32.7 7.8-63.3 14.7-91.6.1-.3.1-.5.2-.8-.1.3-.1.5-.2.8-6.9 28.3-11.9 58.9-14.7 91.6 1.7 5.2 5.4 7.7 11.1 7.7 3.5-.1 7.7-1.1 12.7-3.2-.5-20.6 1-39.9 4.4-57.9-3.4 18-4.9 37.3-4.4 57.9 5.7 5.8 13.5 5.8 23.5 0l4 .3v-35.5 35.5c6.5 9.1 22 10.3 46.5 3.5V554v49.2c3.3.4 6.7.5 9.8.3 7.7-.4 14.8-2.6 21.2-6.7 5.1-59.9 7-127.7 5.4-203.4-.5-.7-.7-1.4-.7-2.2s.3-1.5.7-2.1c-.1-1.9-.1-3.8-.1-5.7-4.1-.3-8.3-.9-12.4-1.6-6.9 1.6-13.5 2.3-19.7 2.2-5.2-.1-10.2-.8-15-2.1-6.4 14.8-11 33.4-13.8 55.9h-27.7c.5-17 4.9-32.4 13-46.1-1.2.5-2.5 1-3.7 1.7-1.1.6-2.2 1.3-3.3 2-.2-.5-.5-1.2-.5-1.8-.2-1.4 0-2.5.8-3.4.2-.5.7-.8 1.1-1.1-.4.3-.9.5-1.4.8-.6.4-2.1 1.3-4.6 2.8-2.6 4.7-5.1 9.5-7.5 14.3"/>
    <path d="M244.07 417.7c-1.7 2.8-2.3 5.8-1.7 8.9-2.2 1.8-3.3 3.8-3.1 5.9-2 1-3.1 1.8-3.2 2.5-.8 0-1.5-1-2.1-2.9-.4-1-.6-1.9-.6-2.7-5.2 3.1-8.8 6.8-10.8 10.8a9.8 9.8 0 00-1.3 5.4c.1 6.9 2.1 11.5 6.1 14.1 4 2.5 8.9 3.8 14.7 3.8 1.6-.1 3-.5 4.2-1 2.7-1.2 5.2-2.3 7.5-3.3 1.5-4.1 3.1-8.1 4.7-12.1.8-2 1.7-4 2.4-6 1-2.3 2-4.6 3-7 1-2.3 2-4.7 3.2-7 .7-1.7 1.6-3.4 2.3-5.2-2.8 1.1-5.9 1.5-9.3 1.5-4.9 0-9.2-1-12.7-3.1-1.4-.8-2.5-1.7-3.3-2.6"/>
    <path d="M388.18 250.1l-1.7-.8-5.4-2c-1.2-.7-3.5-1.9-6.8-3.5-3.4-1.7-6.8-3.2-10.2-4.6l1.3 3.4-9.7 1.6c-.6.7-1.3 1-2.2 1 .7 2.2 1.4 4.5 2.2 6.9.2.4.3.9.5 1.3.1.6.4 1.2.6 1.8-.3.4-.5 1-.5 1.6 0 .9.4 1.8 1.1 2.4.2.4.4.5.7.7.4.2 1 .3 1.5.3.9 0 1.7-.3 2.3-1 .6-.6.9-1.5.9-2.4 0-1-.3-1.7-.9-2.4l-.1-.1h.1l8-.9 1.6 4.2-9.6 1.6c-.6.7-1.4 1-2.3 1-.5 0-1.1-.1-1.5-.3l3 10.4.2-.2c.6-.6 1.3-1 2.2-.9.9-.1 1.6.2 2.3.9h.1l7.6-1.7 1.9 4.9-9.5 1.7c-.7.6-1.5.9-2.4.9-.4 0-.7 0-1-.1 1 4.1 2.1 8.2 2.9 12.3.2-.3.3-.5.5-.7.7-.6 1.5-1 2.3-.9.9-.1 1.6.2 2.2.9h.1l7.7-1.6 1.9 4.9-9.6 1.6c-.6.7-1.4 1-2.3 1-.7 0-1.3-.2-1.7-.6.7 4 1.5 8 2.2 12 0-.1.1-.3.3-.4.6-.6 1.4-1 2.3-.9.8-.1 1.5.2 2.2.9l7.8-1.7 1.9 4.9-9.7 1.7c-.6.7-1.3 1-2.2 1-.7-.1-1.3-.3-1.8-.6.6 3.8 1.1 7.8 1.6 11.6.2-.3.4-.6.6-.8.6-.7 1.4-1 2.3-1s1.6.3 2.3.9l7.8-1.5 1.8 4.9-9.6 1.6c-.6.6-1.4.9-2.3.9s-1.7-.3-2.3-.9l-.1-.1c.5 4.4.9 8.8 1.2 13.3.2-.2.3-.5.5-.7.7-.6 1.4-1 2.3-1s1.6.3 2.2.9h.1l7.7-1.5 1.8 4.9-9.5 1.6c-.6.6-1.4 1-2.3 1s-1.6-.4-2.3-1c-.1-.1-.2-.2-.2-.3.2 3.6.4 7.2.4 10.7.6-.5 1.4-.7 2.2-.7.9-.1 1.6.2 2.2.9h.1l7.7-1.6 1.8 4.9-6 1c9.7-.4 19.2-1.1 28.6-1.9.6-3.4 1.1-6.8 1.5-10.2.6-5 .9-10 .9-15 .1-9.3-.6-18.5-2.1-27.7 3.9-9.5 3.9-18.9.1-28.4 3.8 9.5 3.8 18.9-.1 28.4 1.5 9.2 2.2 18.4 2.1 27.7 5.2 12.1 11.4 19.8 18.5 22.9 15.8 10.2 30.6 17.5 44.6 21.9 8.1 2.6 16 4.1 23.5 4.7-.9-8.7 1.2-14.4 6.3-17.2l-44.8-34.7c-4.7.4-8.1 2.7-10.2 6.9-.6 1.3-1.2 2.5-1.7 3.6.5-1.1 1.1-2.3 1.7-3.6 2.1-4.2 5.5-6.5 10.2-6.9-3.4-2.3-7.6-2.8-12.6-1.7 5-1.1 9.2-.6 12.6 1.7 2.5-5.6-3.7-19.1-18.9-40.5-3.4-.8-7.3-2-11.7-3.4-.3 0-.6-.2-.8-.5-.2-.2-1.1-3.1-2.6-8.5-1.6-5.5-3.7-8.4-6.5-8.5-2.8-.2-4.2-.4-4.4-.5-.1-.1-.1-.4 0-1 0-.5.2-.9.6-1.2.4-.3.8-.4 1.3-.4 6.7 1 11.4 6.7 14.3 17.3 2.3.8 4.4 1.4 6.4 1.9l-2.4-3.3c-.3-.2-.6-.3-.8-.5-1.6-1-2.6-1.8-3.1-2 .7.1 1.4.1 2.1.1-2.2-2.8-4.4-5.7-6.7-8.8-2.2-2.1-4.3-4-6.5-5.9-9.7-3.7-19.5-7.5-29.4-11.2-.2-.1-.6-.2-1.3-.4-.6-.2-1.2-.5-2-.7 8.9 7.3 13.8 14.9 14.9 22.8-1.1-7.9-6-15.5-14.9-22.8"/>
    <path d="M361.88 254.4c.6.7.9 1.4.9 2.4 0 .9-.3 1.8-.9 2.4l9.6-1.6-1.6-4.2-8 .9v.1"/>
    <path d="m 324.2,204.8 c -0.5,-2 -2.2,-4.1 -2.2,-4.1 0.2,1.9 -0.3,6.4 -3.2,7 -3,0.6 -4.6,-4.8 -4.4,-7.1 0,0 -2.2,2.6 -2.3,4.6 -0.2,1.9 0.4,5.1 2,7.1 1.3,1.6 4.1,2 5.4,1.8 2.5,-0.4 4.2,-2.7 4.8,-4.7 0.4,-1.5 0.3,-3.4 -0.1,-4.6 z"/>
    <g fill="none">
      <path d="M323.38 185.3c-.8-.7-1.6-1.4-2.4-2 0 0-.1-.1-.1-.2-.9-.6-1.9-.9-3-1-1.1 0-2.1.2-3.1.6l-.1.1c-.9.3-1.8.9-2.5 1.6l-.1.1c-.8.8-1.2 1.8-1.2 3v1.2"/>
      <path d="m 320.6,197.8 c 0.3,-0.9 -0.2,-1.7 -1.5,-2.5 -0.7,-1 -1,-2.1 -0.9,-3.3 0.2,-1.2 1.3,-2 0.9,-3.2 -0.4,-1.2 -1.7,-2.6 -3.3,-2.6 -1.8,-0.2 -2.9,1.6 -2.9,3.2 0,2 0.8,3.7 1.8,5.3 0.7,1.2 0.3,2.6 0.7,3.8"/>
      <path d="M359.98 187.9c-.1-.3-.1-.7-.2-1.1-.1-.1-.1-.4-.1-.6-.1-.2-.1-.3-.1-.5v-.1c0-1.3.2-2.2.6-2.9l.2-.2"/>
      <path d="m 362.1,205.8 c 0.4,-0.3 1.4,-1.1 1.8,-1.4 1.1,-0.8 1.6,-1.3 1.5,-1.6 -0.1,-0.2 -0.3,-0.9 -0.6,-1.9 -0.4,-0.9 -0.8,-2.2 -1.4,-3.7 0,-0.1 0,-0.1 -0.1,-0.1 -0.7,-1.7 -1.1,-3.1 -1.4,-4.3 -0.3,-1 -0.7,-2.2 -1.5,-3.8"/>
      <path d="M412.48 330.5c.1-9.3-.6-18.5-2.1-27.7-1-5.7-2.2-11.4-3.8-17.1"/>
      <path d="M534.27 337.1c-.3-.7-.5-1.4-.7-2.1-.1-1.2-1-2.2-2.5-2.8s-2.4.3-2.6 2.7"/>
      <path d="M531.67 365.6a25 25 0 003-12.2c0-1.5-.1-2.9-.4-4.3-.5-1-1-2-1.7-3-1.1-2.2-2-4-2.6-5.6-.6-2-1.1-3.9-1.5-5.6"/>
      <path d="M542.27 345.9l-4.3-8.8c-1.3-1.5-2.4-1.5-3.7 0"/>
      <path d="M531.38 372.5c4.1-2.3 6.9-5.3 8.4-8.8 1.2-4.1 2.1-9.9 2.8-17.3l-.3-.5"/>
      <path d="M535.58 365c1.7-5 2.7-9.8 3-14.7v-2.2l-4.3-11"/>
      <path d="M528.08 366.7c1.3-2.4 2-4.4 2.3-5.8.3-1.6.4-3.2.2-4.8-.1-.3-.2-.6-.2-.9-.4-1.9-1-3.5-1.7-5s-1.3-3.2-1.8-4.9c-.6-1.7-1.3-3.3-2-4.5"/>
      <path d="M528.48 334.9c-.9.3-1.5.9-2.2 1.6a5.9 5.9 0 00-1.4 4.3"/>
      <path d="M524.88 340.8c-.5.4-1.1 1.1-1.8 2.1-.6 1-1 2.5-1 4.5-.1 1.9.5 4.7 1.7 8.3"/>
      <path d="M516.88 360.9c-4.3-.3-7.7.2-10.4 1.3"/>
      <path d="M499.07 380c2.1.2 3.8.3 5.3.4"/>
      <path d="M403.38 615.9a51.9 51.9 0 00-10.5 7.2c-.5.4-1 .9-1.5 1.3"/>
      <path d="M354.98 199.7c-1.2-.1-2.2.1-2.9.4-.8.2-1.2 1-1 2.3.2 1.3.3 2.2.4 2.4 0 .1 0 .2.1.3 0 0 .2.1.2.2v.1"/>
      <path d="M332.77 221.6c.4.3.8.7 1.2 1 6 4.5 10.9 7 14.6 7.5 1.2 0 2.6 0 4.2.1 1.5 0 2.9-.3 4.1-.6"/>
      <path d="M323.88 203.8c0-1.2.1-2.5.1-3.7-.5.6-1 1.2-1.5 1.9"/>
      <path d="M295.88 260.7c-.8-5.4-2.1-9.8-3.7-13.3-1.3-2.8-2.9-5.1-4.8-6.6"/>
      <path d="M281.77 304.7c6.1-1.3 11.4-4.1 15.7-8.6 1.8-1.8 3.4-3.9 4.9-6.3"/>
      <path d="M297.38 362.7c-.5-.6-.9-1.3-1.3-2s-.9-.9-1.7-.8c-1.7.3-3.5.4-5.3.6-1.9 0-3.6.3-5.2.6-1.2.3-2.6.5-3.9.6"/>
      <path d="M257.68 395.3c2.9 1.2 5.6 2 7.8 2.5.8.2 1.5.3 2.2.4"/>
      <path d="M267.68 398.2c1.5.2 2.8.2 3.9 0 1.5-.2 2.7-.5 3.7-.7 3.8-2 6.8-3.7 9-4.8"/>
      <path d="M290.68 371.2c0 4.6-3.8 9.3-11.3 13.9-7.6 6.4-16.4 9.1-26.2 8.3"/>
      <path d="M297.38 362.7c0 .1 0 .2.1.3.6.8 1.2 1.6 1.8 2.2.4.4.7.9 1 1.7"/>
      <path d="M290.68 371.2c.3-.1.6-.2.6-.1h.9c1.7 0 3.5 0 5.3.1h.3c1.6.1 3.2.5 4.6 1.3.8.5 1.3 1.1 1.5 1.9"/>
      <path d="M300.27 366.9c-.4-.2-.9-.4-1.2-.6-.6-.2-1-.5-1.6-.7-1.2-.3-2.5-.4-3.8-.4-1.8.1-3.6.2-5.5.2"/>
      <path d="M303.88 374.4c0-1.1.1-2.3.2-3.6.1-.9 0-1.4-.4-1.7-1-.8-2.2-1.6-3.4-2.2"/>
      <path d="M303.18 381.9c-.3-1-.8-1.9-1.3-2.8-1.5-.3-2.9-.4-4.4-.4h-1c-1.9 0-3.8.3-5.4.7"/>
      <path d="M303.18 381.9c.6-1.7.9-3.5 1.1-5.2.1-.9 0-1.6-.4-2.3"/>
      <path d="M295.48 385.6c-.4.2-.8.5-1.1.7-.5.5-1 .9-1.5 1.2-1 .5-1.7 1.1-2.6 1.6"/>
      <path d="M292.57 285.7c-3.2 7.5-6.9 13.9-10.8 19"/>
      <path d="M312.77 614.4c-3.7.6-7.1 1.6-10.2 3.1-3.2 1.4-6.3 2.9-9.5 4.7"/>
      <path d="M369.48 618.5c-1.1.2-2.1.6-3 1-3.6 2.1-7.2 4.3-10.8 6.7"/>
    </g>
    <g fill="none" stroke-width="1.5">
      <path d="M315.18 346.2h-16.4"/>
      <path d="M162.88 191.6c.1-3.5 0-6.8-.3-10.1"/>
      <path d="M226.47 188c-.3 1.5-.3 3.2-.2 5.1"/>
      <path d="M310.57 183.3l-3.2-3.8"/>
      <path d="M323.68 178.3l-4.7-6.9"/>
      <path d="M318.68 180.6l-3.9-5.6"/>
      <path d="M328.48 176.8l-4.8-7.8"/>
      <path d="M297.38 175.9c-7.7 0-8-7.9-.9-23.6"/>
      <path d="M314.77 181.5l-4.2-4.7"/>
      <path d="M310.88 161.9c-1.1-.2-1.1-3.1 0-8.6"/>
      <path d="M306.18 167.9c-2.3-1.3-2.3-5.2 0-11.7"/>
      <path d="M300.77 172c-4-.5-4-5.8 0-15.8"/>
      <path d="M362.38 164.6l3.9-8.7"/>
      <path d="M366.77 165l1.9-4"/>
      <path d="M422.57 304.4c-2.8 3.1-6.6 4.8-11.3 4.9"/>
      <path d="M468.18 282.9l-5.7 4.8"/>
      <path d="M472.88 289l-6.3 5.2"/>
      <path d="M477.38 294.7l-6.8 5.8"/>
      <path d="M424.57 319.4a20.1 20.1 0 01-10.9 4.7"/>
      <path d="M425.88 328.3c-3.6 2.8-8.3 4.1-14 4.2"/>
      <path d="M428.57 335c-4 3.2-7.9 4.1-11.9 2.8"/>
      <path d="M515.27 343.3l-11.5 9.5"/>
      <path d="M510.48 337.2l-10.8 9.1"/>
      <path d="M496.18 318.4l-9.2 7.8"/>
      <path d="M505.98 331.5l-10.3 8.6"/>
      <path d="M500.98 325.1l-9.8 8.2"/>
      <path d="M481.98 416.2c-3.9-1.3-7.1-.8-9.5 1.6"/>
      <path d="M481.88 300.5l-7.4 6.2"/>
      <path d="M424.48 310.9c-3.9 4.7-8.3 7-13.2 6.7"/>
      <path d="M486.57 306.5l-7.9 6.7"/>
      <path d="M491.07 312.3l-8.5 7.1"/>
      <path d="M446.88 459.2c-1 0-2.1-.1-3.3-.3.4-2.7.1-4.9-.9-6.5"/>
      <path d="M287.48 256.9c-.1-1.3-.6-2.4-1.2-3.6-2.9-5.4-8.6-7.7-17.2-7.1"/>
      <path d="M233.68 278.9h-7.4c-4 .1-7.6-.1-11-.6"/>
      <path d="M272.77 260.9c-3.8-3.3-9.1-4.7-16.2-4"/>
      <path d="M264.18 264.3c-3.3-1.7-7.3-2.3-12.4-2.1"/>
      <path d="M255.47 269.9c-2-1.8-5-2.4-9-1.7"/>
      <path d="M247.38 275.9c-.6-2.6-3.1-3.3-7.5-2.3"/>
      <path d="M280.27 257.1c-3.8-4.5-9.5-6.3-17.2-5.5"/>
      <path d="M259.57 405.3c-3.4-.4-4.4-2.5-3-6.3"/>
      <path d="M285.18 412.2h-10.2"/>
      <path d="M283.38 419.4h-12"/>
      <path d="M282.18 426.5h-13.8"/>
      <path d="M313.68 339.6l-19-.6"/>
      <path d="M166.77 191.3V183"/>
      <path d="M307.77 331.9c-6 0-11.8-.3-17.3-1.2"/>
      <path d="M291.07 398.5h-10.2"/>
      <path d="M286.88 405.1h-7.7"/>
      <path d="M377.07 513.5l-6.8 6.1"/>
      <path d="M378.27 523.4l-8 7.5"/>
      <path d="M379.18 532.4l-9.8 8.3"/>
      <path d="M246.77 451.5c-2.1-2.3-4-4.5-5.6-6.6-2.2-3.1-3.1-6.6-2.7-10.5"/>
      <path d="M251.88 444c-1.8-.6-3.6-1.9-5.4-3.8-2.8-3-4.6-6.2-5.6-9.9"/>
      <path d="M254.88 435.9c.3 0-.3-.3-1.7-.9-1.4-.5-2.7-1.3-3.8-2.3-2.6-2.3-5-5.1-7-8.4"/>
      <path d="M277.07 433.7h-12.2"/>
      <path d="M271.38 440.2c-3 .1-5.9.1-8.9 0"/>
      <path d="M238.18 452.4c-1.2-1.6-2-3.5-2.4-5.7-.7-3.6-.8-7.3-.3-11.1"/>
      <path d="M229.88 449.7c-.8-2-1-4.4-.8-7.2.3-4 2-7 4.9-9"/>
      <path d="M268.88 634.2c-6.7-.2-12-2.1-16-5.7"/>
      <path d="M266.27 645.2c-5.7.1-10.1-1.4-13.4-4.5"/>
      <path d="M268.38 639.5c-6.3.8-11.8-1-16.4-5.3"/>
      <path d="M265.38 656.7c-4.6.8-8.2-.1-10.7-2.6"/>
      <path d="M265.38 651.3c-4.1.9-8.1-.4-12.2-3.7"/>
      <path d="M381.77 551.6l-12.1 11.5"/>
      <path d="M381.48 562.9l-12.8 11.9"/>
      <path d="M382.38 572.2l-14.4 12.9"/>
      <path d="M365.27 662.2c-3.1.5-5.2-.2-6.2-2.1"/>
      <path d="M372.18 656.5c-.8 0-1.6.1-2.4.1-4.1.3-7.6-.4-10.4-2.2"/>
      <path d="M373.68 649.7h-3.6c-4.1.2-7.9-.2-11.3-1.2"/>
      <path d="M375.98 643.7c-2.2 0-5.1-.1-8.6-.2-4.2-.2-7-1.2-8.6-3.1"/>
      <path d="M375.38 636.9c-2.4 0-4.9 0-7.4.2-4 .3-7.5-.6-10.4-2.6"/>
      <path d="M381.27 540.9l-11.6 10.7"/>
      <path d="M377.18 680c.4-1.1 1.1-2 2-2.6 2.9-2.1 6.2-3.5 9.9-4.2"/>
      <path d="M263.27 678.5c-5-2.5-10.1-2.5-15.2 0"/>
      <path d="M266.57 669.9c-4.6-2.8-9.4-3-14.3-.5"/>
      <path d="M262.68 673.2c-4-2-8.1-2-12.2 0"/>
      <path d="M258.48 684.8c-4.4-2.2-9.5-2-15.4.3"/>
      <path d="M391.27 688.7c1.1-2 3.1-3.1 5.9-3.3"/>
      <path d="M397.18 694a7.7 7.7 0 015.3-4.5"/>
      <path d="M386.27 686.5c1.4-3.3 4-5 7.6-5"/>
      <path d="M382.38 682.7c2-2.5 4.7-4.3 7.9-5.3"/>
    </g>
  </g>
</svg>
