<svg xmlns="http://www.w3.org/2000/svg" fill="#d7374a" stroke="#000" viewBox="50 50 200 200">
  <metadata source="http://wappenwiki.org/images/7/76/Beauville.svg" license="https://creativecommons.org/licenses/by-nc-sa/3.0"/>
  <g id="cowStatant" stroke-width=".37">
    <path class="secondary" d="M80.34 121.65s.2.9-.03 1.32c-.54.93-2.7 1.19-3.8 1.23-.35.01.24-1.24.68-2.04 0 0-.33.33-.52.63a5.31 5.31 0 0 1-.33.5s-.7.12-1.26.12c.17-.53.73-1.07 1.24-1.89.4-.63 1.35-.26 2.1-.19.77.07 1.92.32 1.92.32z"/>
    <path d="M82.75 100.16a14.66 14.66 0 0 0-1.82 7.45c.07 2.61.13 4.9-.81 7.41-.3.74-.61 2.3-1.1 3.5a7.07 7.07 0 0 1-1.1 1.72c-.3.36-.65.46-.98.64-.27.15-.55.38-.78.78.74.2 3.43.39 4.18.28.65-.3.2-1.69.5-1.7.35-.01.38.86 1.04.84 0-.4.17-.94.17-1.3.2-1.1-.22-1 .8-3.82 1.55-4.17 2.57-5.19 3.1-6.24.32-.63.16-1.53.09-2.2a3.9 3.9 0 0 1 .43-2.46 15.18 15.18 0 0 0 1.7-6.28"/>
    <path class="secondary" d="M132.27 123.57s.2.9-.03 1.32c-.54.93-2.7 1.19-3.8 1.23-.35.01.24-1.24.68-2.04 0 0-.33.33-.52.63a5.31 5.31 0 0 1-.33.5s-.7.12-1.26.12c.17-.54.73-1.07 1.24-1.89.4-.63 1.35-.26 2.1-.2.76.06 1.92.33 1.92.33zm-13.6-1.87s.2.9-.04 1.33c-.54.92-2.69 1.18-3.8 1.23-.35.01.24-1.25.68-2.05 0 0-.33.33-.52.64a5.31 5.31 0 0 1-.33.5s-.7.12-1.26.12c.17-.54.73-1.08 1.24-1.9.4-.63 1.36-.25 2.1-.18.76.06 1.92.31 1.92.31zm-29.06 1.87s.2.9-.03 1.32c-.53.93-2.69 1.19-3.8 1.23-.35.01.24-1.24.69-2.04 0 0-.34.33-.53.63a5.31 5.31 0 0 1-.33.5s-.7.12-1.26.12c.17-.54.74-1.07 1.25-1.89.4-.63 1.35-.26 2.1-.2.77.06 1.91.33 1.91.33z"/>
    <path d="M115.76 100.81c.18.58.43 1.28.79 2 .84 1.73 2.39 2.37 2.66 4.61a14.6 14.6 0 0 1-.77 7.71c-.3.74-.6 2.34-1.12 3.54-.33.78-.84 1.3-1.09 1.63-.3.35-.65.45-.98.63-.27.15-.55.39-.78.79.74.2 3.43.38 4.18.27.65-.3.2-1.68.5-1.7.35 0 .38.86 1.04.85 0-.4.17-.94.17-1.3-.03-1.09-.47-.9.55-3.74 1.56-4.2 2.6-5.23 3.13-6.3.35-.65.06-2.17-.01-3.11.44-1.2-.06-4.25.58-5.96"/>
    <path class="tertiary" d="M127.96 107.02c-.54 1.38-2.83 3.05-3.23 3.3-.4.25-.18 2.33-.6 2.33-.49 0-.67-1.8-1.14-1.8-.24 0-.71.1-1.25.12-.47 0-1-.1-1.31-.1-.67 0-.62 1.99-1.1 1.99-.66 0-.28-2.25-1.1-2.4-2.47-.4-5.86-5.39-5.86-5.39a11.05 11.05 0 0 1 6.75-4.29c1.03-.15 2.15-.14 3.03.43 1.56 1 1.74 3.31 3.16 4.51.75.64 1.73.87 2.68 1.1"/>
    <g stroke="none" fill="#000">
      <path d="m121.12 113.23-.5 1.4-.51 1.4-.51 1.4-.24.7a4.14 4.14 0 0 0-.15.72 2.35 2.35 0 0 1 .02-.76 13.1 13.1 0 0 1 .6-2.16 17.17 17.17 0 0 1 1.29-2.7zm-1.78-3.85c-.28.07-.57.07-.84.03s-.56-.14-.82-.26a2.07 2.07 0 0 1-.68-.53 1.02 1.02 0 0 1-.22-.37.76.76 0 0 1-.04-.43c.1.26.28.44.47.6a6.67 6.67 0 0 0 1.37.73l.76.23z"/>
    </g>
    <path class="secondary" d="M76.7 83.86c-.3-.13 3.62.87 5.11-2.4 1.44-2.83-.62-4.32.53-6.86.27-.62.94-.78.63-.92a2.09 2.09 0 0 0-2.3 1.12c-.81 1.6.07 2.95-1.02 4.6-.84 1.3-2.53.64-2.38.72 0 0-1.39-.19-1.76 1.5-.37 1.72 1.18 2.24 1.18 2.24zm-6.15-.71c.16-1.74-1.24-1.96-1.24-1.96.17-.03-1.64.1-2.05-1.4-.67-2.34.9-2.23.45-4.63a2 2 0 0 0-1.78-1.74c-.32.04.2.44.3 1.1.34 2.75-2.19 2.97-1.62 6.58.44 3.56 4.5 3.77 4.16 3.81a1.83 1.83 0 0 0 1.78-1.76z"/>
    <path d="M67.4 81.97c-1.28-.7-2.48-.34-3.54-.94-.63-.35-.73-.9-.88-1.2-.1-.1-.4-.08-.46-.02-.2.44-.3 1.91.5 3.17-.04.3.41 1.1.69 1.27.05.14.2.54 1.05 1"/>
    <g stroke="none" fill="#000">
      <path d="M64.83 85.1c.41.27.9.46 1.38.59l.74.15.39.02H67.63c.03-.02.07-.02.08-.05-.01.03-.05.04-.08.05l-.1.03-.2.03-.38.01c-.26 0-.52-.02-.78-.05a5.1 5.1 0 0 1-1.54-.44zm4.14-1.48c-.25-.3-.5-.58-.78-.85-.13-.12-.27-.26-.42-.37-.16-.11-.3-.22-.46-.29l.18-.32a3.26 3.26 0 0 1 .83.86c.25.32.45.65.65.97zm-3.36-.53c-.08.11-.2.15-.33.2-.12.02-.25.04-.36.02a.97.97 0 0 1-.34-.07c-.11-.04-.22-.1-.32-.18.13-.04.25-.04.36-.05h.33l.33.03a.83.83 0 0 0 .33.05zm.36.15c0 .1-.05.17-.1.24a.52.52 0 0 1-.22.12c-.06.03-.15.03-.23.03a.57.57 0 0 1-.23-.1c.06-.07.12-.1.19-.14a.97.97 0 0 1 .18-.06l.18-.05.23-.04zm1.59.7a3.16 3.16 0 0 0-1.15-1.04l-.15-.06-.33-.08-.69-.15a5.7 5.7 0 0 1-1.02-.37l-.3-.2c-.21-.14-.39-.29-.57-.45-.17-.18-.33-.36-.41-.6.13.2.31.35.5.49.2.13.4.26.6.37l.3.16a11.98 11.98 0 0 0 1.67.49l.36.1.18.1.15.1c.4.3.7.7.86 1.15z"/>
    </g>
    <path fill="#f6f6f6" d="M64.94 85.57c-.1-.31-.09-.66.02-.97l.06-.13c.08-.14.26-.2.37-.33.2-.06.4.17.53.33a2.35 2.35 0 0 1 .38 2.03c-.22.68-.92 1.21-1.64 1.09"/>
    <path d="M76.83 99.13a6.04 6.04 0 0 0-1.86-2.3l-2.5-1.4c-1.4.36-2.81-.33-3.61-.02-.3.13-.8.4-1.22.8-.12.13-.29.4-.38.54a2.66 2.66 0 0 1-1.54 1.13c-.6.13-1.22-.08-1.83-.17a1.8 1.8 0 0 1-1.02-.52l-.75-.67c-.36 0-.7-.04-.9-.32-.15-.18-.17-.41-.23-.62-.2-.92-1.05-1.52-1.05-2.51 0-.2.03-.4.11-.6.22-.53.79-.82 1.3-1.09.55-.29.91-.53 1.17-1.11l.91-1.98c.22-.47.43-.94.76-1.34.28-.33.6-.57.6-1.04l.02-.21c.03-.07.09-.13.15-.11.1.01.13.05.24 0 .1-.04.18-.13.22-.22.17-.36-.03-.83-.03-1.22 0-.37.11-.74.49-.9.12-.06.26-.09.35-.19.07-.08.1-.19.13-.3a2.07 2.07 0 0 1 .62-1c.11-.1.23-.2.3-.34.06-.1.06-.23.07-.36.03-.55.1-1.06.02-1.61-.02-.07.58.12.63.15.17.1.3.34.46.41.42.16.6-.42.78-.69.1-.15.25-.31.42-.23.12.05.13.25.25.34.19.2.5 0 .67-.2.17-.21.39-.47.64-.4.12.02.2.13.33.13.2.02.34-.2.52-.29.3-.1.6.14.9.14.26 0 .5-.19.77-.15.22.03.39.2.6.26.24.06.5-.05.7.07.22.13.25.44.44.6.35.3.88-.07 1.33.08.33.1.52.34.85.4.1.29.04.85-.1 1.13-.08.17-.19.33-.15.5a.48.48 0 0 1-.33-.32c-.43.51-.32 1.57.1 2.08.48.58 1.36.43 1.85.32 2.1-.45 2.7-2.1 2.7-2.1 5.33.79 6.17-.7 7.48-.7 2.02 0 3.47 1.06 6.76 1.35 2.92.26 7.98.17 11.1.08 3.92-.1 8.72-.96 9.63-.96 1.22 0 3.55.29 5.94.34 2.35.05 4.38-.22 5.8-.22 2.5 0 5.73 1.05 6.67 2.18a15.73 15.73 0 0 1 3.4 8c.74 5.18-.63 10.85-.25 13.02.3 1.96 1.46 2.3 1.58 4.24.09 2.34-.81 3.53-.69 4.97.39.75 1.52 3.68.32 4.8.07-1.48-.5-2.3-1.1-3.15-1.19-1-2.34-2.6-2.7-6.36-.44-5.22 1.2-9.76 1.04-14.53 0-3.5-1.56-4.7-1.56-4.7s-.47 4.3-2.03 6.8c0 1.11-1.16 4.72-1.64 5.98 0 1.83 1.37 4.27 1.4 5.54.44.84 1.25 2.14 1.18 2.88-.1 1.19-.8 1.42-.67 5.9.1 3.02.67 3.5.7 4.6.01.35-.17.89-.17 1.29-.66.01-.69-.86-1.03-.84-.3.01.14 1.39-.51 1.7-.75.1-3.44-.08-4.18-.28.23-.4.5-.64.78-.79.33-.18.68-.27.98-.63.64-.79.94-3.72.94-5.03-.08-2.7-.9-4.1-2.22-6.11-1.1-1.97-2.65-1.92-4.04-3.24-1.5-1.44-2.34-2.96-2.34-2.96s-.5-1.21-.9-1.86c-.6-.41-2.02-.41-3.02-.41-4.96 0-7.63 5.93-12.44 5.93-1.6 0-2.18-.37-3.33-.47-.88-.08-4.18.58-7.06-.15-2.09-.52-2.99.2-3.54.2h-.08c-.06 1.46-.6 2.66-.65 3.15-.1 1.19-.73 1.42-.6 5.9.1 3.02.6 3.5.63 4.6.01.35-.17.89-.17 1.29-.66.01-.69-.86-1.03-.84-.3.01.14 1.39-.51 1.7-.75.1-3.44-.08-4.18-.28.23-.4.5-.64.78-.79.33-.18.68-.29.98-.63.64-.79.89-3.72.89-5.03-.05-1.36-.63-1.87-.93-3.25-.3-1.38-.33-2.53-.33-2.53s-.88-1.4-1.55-3.24l-.56.01a5.49 5.49 0 0 1-3.58-1.8c-.5-.67-.96-.8-2.18-2.6-1.2-1.84-1.51-3.62-2.1-4.62z"/>
    <g stroke="none" fill="#000">
      <path d="m68.2 94.82.78-.3.75-.3.73-.32.74-.35a3.45 3.45 0 0 1-3 1.27zm-6.1 1.5c.24 0 .48-.02.74 0s.5.07.73.13l.7.2.17.06.17.06.33.07c.44.05.9-.05 1.24-.32.16-.14.29-.32.4-.53a1.8 1.8 0 0 1 .44-.58l.03.03c-.14.2-.2.42-.3.64-.09.22-.21.47-.42.63a1.63 1.63 0 0 1-.68.37 2.37 2.37 0 0 1-1.14.03l-.18-.05-.17-.06a12.42 12.42 0 0 0-.67-.2c-.22-.05-.46-.09-.68-.1h-.7zm6.98-14.14c.26-.08.5-.2.7-.36l.28-.25.13-.15.13-.08.11-.03.14.03c.08.04.12.12.14.18l.02.12.04.2.09.38c.03.13.07.24.12.32.06.08.13.15.2.18l-.13.03a10.7 10.7 0 0 1 .97-.67c.1-.08.18-.18.23-.29 0 .14-.07.28-.14.39l-.27.3-.58.54c-.04.03-.09.04-.13.03h-.01a.69.69 0 0 1-.43-.29c-.1-.14-.15-.29-.18-.43l-.07-.4-.02-.2-.02-.07h.07l-.04.04-.15.12c-.11.1-.24.18-.36.24-.3.06-.57.13-.84.12zm1.35-1.28a.9.9 0 0 1 .01-.39 1.03 1.03 0 0 1 .49-.6.62.62 0 0 1 .38-.1l-.23.27-.22.26-.21.27-.22.29z"/>
    </g>
    <path d="M73.1 82.87c.16.34.49.62.88.6 0 0-.03.19.1.5.06.16.21.25.27.42.03.1.04.2.03.29a.79.79 0 0 0 .33-.37c.07-.18.05-.35.08-.53.04-.32.14-.48.18-.57.12.06.34.38.63.5"/>
    <g stroke="none" fill="#000">
      <path d="m75.43 83.71.05-.2.06-.21.05-.2.03-.1.01-.06.02-.03v-.01.1l.01.1.03.21.03.2.04.2zm-2.36-1.96c-.03.39.02.78.2 1.05l-.33.14c-.05-.2-.05-.43-.03-.62.02-.2.07-.39.16-.57zm-5.68-.1c.17.12.3.25.43.4a1 1 0 0 0 .39.27l-.18.14c0-.16.08-.28.18-.36a.99.99 0 0 1 .26-.18l.25-.14a.41.41 0 0 0 .2-.2c.02.1-.04.21-.1.3a1.66 1.66 0 0 1-.21.22l-.2.18c-.05.05-.08.1-.08.16 0 .09-.07.14-.15.14h-.03a.58.58 0 0 1-.29-.18c-.08-.07-.14-.16-.19-.25l-.14-.25a.55.55 0 0 1-.14-.24zm-5.97 10.52c.2-.05.44.01.63.1l.56.27c.34.16.73.2 1.13.2l.62.01c.2.01.43.04.63.1.2.05.42.14.6.26s.33.29.41.5a1.66 1.66 0 0 0-1.06-.47 8.14 8.14 0 0 0-.6-.03h-.62c-.2-.01-.42-.01-.65-.07a1.73 1.73 0 0 1-.62-.25c-.19-.1-.34-.25-.5-.37a.94.94 0 0 0-.53-.25zm8.1-4.66.01.44c0 .14.03.26.02.43l-.04.24a.6.6 0 0 1-.14.23l-.18.15-.1.05c-.03.02-.08.04-.12.03.04-.01.04-.06.05-.08l.06-.1.1-.18c.05-.12.06-.22.08-.36 0-.12 0-.3.04-.44a1 1 0 0 1 .22-.41zM66.87 89c.04 0 .1.04.11.1.03.05.03.1.01.16 0 .06-.04.11-.07.15l-.1.12c-.06.05-.1.1-.12.13l-.07.18-.08.24c-.04.08-.08.18-.16.25a.47.47 0 0 1-.25.12l-.24.08c.02-.1.09-.16.14-.23l.14-.17c.05-.1.07-.23.11-.41.03-.08.07-.18.14-.28l.12-.1.13-.08.1-.04.06-.04c.03-.04.07-.11.03-.18z"/>
    </g>
    <path fill="#f6f6f6" d="M72.55 86.97c.03-.17.1-.39-.22-.46-.33-.08-.85-.26-1.47-.1a1.32 1.32 0 0 0-.93.89c-.07.25.18.52.4.68.22.15.49.19.73.2.75.02 1.36-.42 1.5-1.21z"/>
    <path stroke="none" fill="#000" d="M71.05 87.13v-.1c0-.09-.01-.21-.1-.27-.08-.05-.23-.01-.3.04l-.05.04c-.13.11-.13.3-.12.47.02.17.16.46.4.5.18.03.49-.07.35-.3-.04-.07-.1-.13-.12-.2-.06-.07-.06-.12-.06-.18z"/>
    <g stroke="none" fill="#000">
      <path d="M70.4 86.9c-.14.1-.29.22-.47.29l-.27.08h-.3c-.19-.03-.34-.1-.5-.15-.17-.05-.32-.11-.5-.11.17-.04.34-.01.51 0 .17.03.35.06.5.04.08 0 .15-.03.22-.04.07-.03.15-.06.2-.1.13-.07.24-.18.36-.3zm-1.49-1.23c-.03-.22.18-.45.46-.45l.16.01h.04-.02l.01-.07a.48.48 0 0 1 .11-.22c.11-.12.28-.2.44-.15l.15.04h.02s-.02 0 0 0l.1-.08a.43.43 0 0 1 .19-.09.74.74 0 0 1 .38-.01l-.16.14a.3.3 0 0 1 .07-.18c.04-.04.08-.08.12-.1.1-.04.18-.05.28-.04.16.04.27.13.41.2-.15 0-.3-.03-.41-.02-.06 0-.1.03-.14.06-.04.02-.04.05-.03.06.03.05.02.1-.03.13l-.05.01h-.1a.57.57 0 0 0-.22.04l-.1.06-.13.1a.28.28 0 0 1-.15.05l-.14-.01-.14-.04c-.03-.02-.08 0-.11.02l-.04.06-.03.08a.37.37 0 0 1-.08.14.23.23 0 0 1-.15.05h-.12l-.13-.06c-.15 0-.36.08-.46.27zm3.48.68c.07.05.2.05.33.01a.47.47 0 0 0 .3-.26c0 .15-.08.3-.2.41l-.22.14a.64.64 0 0 1-.3.04zm-1.34 2.45.53-.15.48-.18.45-.23.24-.14.25-.14a1.38 1.38 0 0 1-.16.24 1.63 1.63 0 0 1-.67.52c-.18.08-.36.13-.55.14-.2.03-.39.01-.57-.06zm3.1 5.04c.07-.01.12-.08.14-.14.03-.07.06-.13.13-.19a.36.36 0 0 1 .22-.12c.08-.03.16-.03.23-.03.15 0 .3.01.43-.02a2.46 2.46 0 0 0 1.17-.39c.24-.13.46-.31.64-.52l.12-.16.17-.2c.04-.02.08-.06.14-.08.05-.03.12-.03.18-.03l.19.03.04-.03c.03-.02.04-.08.04-.13l.02-.22a.83.83 0 0 1 .08-.27c.04-.08.1-.13.14-.19l.1-.17c.08-.12.13-.24.16-.38.08-.28.08-.57.01-.86.14.26.2.58.17.89-.02.15-.06.3-.13.45-.05.15-.16.3-.2.39-.03.05-.03.1-.03.15v.22a.8.8 0 0 1-.07.29.97.97 0 0 1-.11.14.33.33 0 0 1-.2.07c-.13.01-.2-.03-.24-.03-.03 0-.04 0-.07.04l-.11.14-.15.18c-.42.47-1 .78-1.62.88-.15.03-.3.04-.47.03-.15 0-.31-.03-.44-.06-.14-.01-.27-.02-.37.06l-.14.15c-.03.06-.1.12-.18.11zM63.54 95c.05-.15.12-.29.21-.41.1-.13.24-.24.4-.3a.72.72 0 0 1 .5-.04.6.6 0 0 1 .22.14c.06.06.1.11.17.13-.07.05-.18.01-.25 0-.07-.03-.13-.03-.2-.03-.12 0-.24.03-.35.07s-.24.1-.35.2c-.1.07-.2.16-.36.24zm.77.41.26-.13.22-.11.23-.11.27-.11c0 .1-.06.2-.13.28a.67.67 0 0 1-.25.2.8.8 0 0 1-.3.07.5.5 0 0 1-.3-.09zm-2.43-1.27-.21-.34-.2-.32c-.06-.1-.12-.2-.2-.26s-.18-.12-.33-.12c.1-.11.29-.13.44-.07a.83.83 0 0 1 .35.3c.06.12.12.26.15.4a.83.83 0 0 1 0 .41zm-.5.24a.55.55 0 0 1-.33-.04.64.64 0 0 1-.25-.22.69.69 0 0 1-.12-.32.48.48 0 0 1 .08-.33l.14.26.14.22.15.2.2.23zm2.53-6.03c.1.1.13.27.12.41a1.31 1.31 0 0 1-.11.42l-.17.34-.15.36c-.08-.12-.08-.29-.07-.43.03-.14.07-.27.13-.4l.15-.34c.05-.1.08-.21.1-.36zm-.98 3.71c.1-.03.18-.03.24-.03l.23.02.2.05.22.11a.41.41 0 0 1-.23.11.75.75 0 0 1-.48-.08.45.45 0 0 1-.18-.18zm10.7-10.87a.72.72 0 0 1 .07-.38c.06-.1.13-.22.21-.3.08-.08.2-.17.3-.2a.67.67 0 0 1 .38-.08l-.25.25-.22.22-.22.22c-.09.1-.15.18-.26.27zm-1.95-.03c-.05-.1-.03-.2-.02-.3.02-.09.06-.17.11-.25a.69.69 0 0 1 .2-.21c.08-.06.16-.1.27-.11l-.1.26-.12.2-.14.2-.2.2zm1.44-1.22a.41.41 0 0 1 0-.26.55.55 0 0 1 .14-.22.44.44 0 0 1 .22-.12.41.41 0 0 1 .27 0l-.14.19-.14.14-.15.12-.2.15zm-3.53.78a.32.32 0 0 1-.14-.17c-.02-.07-.02-.14-.02-.2l.07-.17c.04-.06.1-.1.17-.13l.05.2v.15l-.05.15-.08.17zm-4.01 4.57-.03.27-.03.28c-.01.19-.03.37 0 .56l-.18-.54-.07-.27-.05-.3zm.82-1.87.22.25.1.11.11.14.02.03V84.17l-.02.1.03.16c.01.07 0 .15-.06.2a.17.17 0 0 0-.08-.13c-.04-.04-.08-.07-.1-.14a.44.44 0 0 1-.06-.22v-.08.01l-.07-.14-.07-.16a1.45 1.45 0 0 1-.02-.35zm10.46-2.08.02.03-.02-.06a.28.28 0 0 0-.05-.08l-.06-.11c-.05-.15-.04-.3-.04-.43a1.1 1.1 0 0 0 .2.33l.15.11c.03.03.07.06.1.11.02.06.05.14.02.22zm-2.07 1.8c.09-.1.11-.28.14-.46a1.1 1.1 0 0 1 .15-.56c-.05.18-.01.36.03.54l.06.3a.9.9 0 0 1-.03.32zm-1.02.31.1-.35.11-.33c.03-.1.06-.22.06-.33l-.02-.34.11.34.04.37-.02.36-.02.35z"/>
    </g>
    <g>
      <g>
        <path d="M78.5 83.9c2.39-1.35 3.1-.56 4.25-1 .68-.26 1.13-.91 1.33-1.18.1-.08.41-.02.45.05.15.47-.07 2.13-1.02 3.25 0 .3-.56 1.05-.85 1.16-.07.14-.27.51-1.18.86"/>
      </g>
      <g stroke="none" fill="#000">
        <path d="M81.52 87.22a5.16 5.16 0 0 1-1.57.22 7.5 7.5 0 0 1-1.17-.11l-.2-.06-.1-.04-.06-.05c.01.02.05.04.08.05l.1.03.2.03.38.02c.26 0 .5-.01.76-.04.5-.05 1-.18 1.45-.38zm-4.25-1.55a4.13 4.13 0 0 1 .72-1.5c.13-.15.26-.3.4-.42l.22.3c-.13.09-.29.19-.41.3a3.42 3.42 0 0 0-.93 1.32zm3.36-1.07h.34l.33.02.34.04c.1.03.22.05.34.1a.8.8 0 0 1-.34.12c-.13.03-.24.03-.36.02a1.69 1.69 0 0 1-.36-.08.41.41 0 0 1-.3-.22zm-.6.31.21.06.18.07.17.1c.05.03.1.08.16.16a.53.53 0 0 1-.23.05.41.41 0 0 1-.22-.05c-.07-.04-.14-.08-.18-.15a.25.25 0 0 1-.1-.24zm-1.38.2c.23-.43.61-.78 1.04-1l.34-.15.36-.08c.25-.04.49-.06.72-.06.47-.01.94-.01 1.4-.1a2.25 2.25 0 0 0 1.2-.63 1.8 1.8 0 0 1-.49.53c-.2.13-.43.24-.66.31-.23.07-.47.11-.72.14l-.72.06a10.76 10.76 0 0 0-.69.05c-.23.03-.42.1-.64.18-.4.17-.8.41-1.14.75zm.11 1.3c.43.05.85.06 1.26 0l.29-.05.29-.1a4.58 4.58 0 0 0 2.4-1.89 3.5 3.5 0 0 1-1.71 1.9c-.2.1-.4.17-.6.24l-.32.09c-.11.02-.23.02-.34.02a3.04 3.04 0 0 1-1.27-.2z"/>
      </g>
    </g>
    <g stroke="none" fill="#000">
      <path d="M118.23 83.5a33.27 33.27 0 0 0 5.22.89 27.86 27.86 0 0 0 5.28.04 13.2 13.2 0 0 1-2.63.37c-.44.03-.9.03-1.34.03a21.77 21.77 0 0 1-2.66-.26c-.44-.09-.89-.15-1.31-.26a13.74 13.74 0 0 1-2.56-.82zm14.04 7.4c.01.25-.02.5-.06.75l-.15.73c-.12.48-.29.95-.48 1.4-.2.46-.42.9-.65 1.34l-.37.65-.4.62.01-.18c.23.56.29 1.14.3 1.72a9.83 9.83 0 0 1-.19 1.68 13.52 13.52 0 0 1-1.08 3.19 23.4 23.4 0 0 0 .78-3.25c.08-.53.13-1.09.13-1.62 0-.54-.08-1.08-.27-1.56a.17.17 0 0 1 .01-.17l.4-.6.39-.63.36-.63.18-.32.16-.33c.21-.44.42-.88.57-1.35l.1-.35.1-.36c.07-.25.13-.48.16-.73zm-2.96 14.78a2.48 2.48 0 0 1 .28 2.44 1.1 1.1 0 0 1-.25.36.69.69 0 0 1-.37.22c.2-.2.29-.44.34-.69.06-.24.09-.5.1-.76.01-.26 0-.5-.01-.77l-.09-.8zm-1.57 2.43a3.83 3.83 0 0 1-.95-.3 6.65 6.65 0 0 1-1.64-1.12l-.17-.2a1.97 1.97 0 0 1-.36-.66c.22.25.47.44.72.64l.79.55.8.54.81.55zm-33.7-5.35a3.57 3.57 0 0 1-.36-1.47c-.04-.5-.04-1-.07-1.49a6.49 6.49 0 0 0-.04-.73c-.01-.25-.05-.48-.1-.72a3.33 3.33 0 0 0-.52-1.35 2.62 2.62 0 0 1 .8 1.28c.15.5.2 1.01.22 1.5.02.5 0 1-.01 1.5 0 .5-.02 1 .08 1.48zm-8.6-10.93a6.57 6.57 0 0 1-.88 1.94l-.25.36a8.25 8.25 0 0 1-1.12 1.31l-.59.6a8.05 8.05 0 0 0-1.08 1.3c.17-.56.52-1.04.87-1.48.36-.45.75-.86 1.1-1.29a15.4 15.4 0 0 0 1.95-2.74zm.27 10.72c.12.54.24 1.06.4 1.59l.24.77.13.39c.04.13.1.26.12.4a12.93 12.93 0 0 1 .44 2.42c.03.27.09.54.16.8a3.1 3.1 0 0 1-.33-.75c-.09-.27-.14-.53-.21-.8-.13-.53-.25-1.05-.42-1.56l-.24-.78-.2-.8a8.74 8.74 0 0 1-.1-1.68zm4.95 4.08a6.76 6.76 0 0 1 .12 2.1l-.12.7c-.11.46-.28.93-.57 1.33a2.24 2.24 0 0 1-1.1.88c.37-.29.66-.63.87-1.03a4.2 4.2 0 0 0 .44-1.27c.11-.44.18-.88.22-1.34.07-.44.1-.9.14-1.37zm-.69 14.9c.07.06.11.17.11.28s-.01.21-.04.3c-.07.2-.17.37-.29.52a2.01 2.01 0 0 1-.92.67 5.44 5.44 0 0 1 .63-.88l.32-.4.12-.2a.8.8 0 0 0 .07-.3zm-.26-7.49-.02 1.5.02 1.5.01 1.5-.01 1.5c-.1-.49-.17-.99-.2-1.48a27.46 27.46 0 0 1-.1-1.5 13.7 13.7 0 0 1 .3-3.02zm3.61-10.55c.34.16.67.27 1.01.38l1.02.32 1.04.32c.34.1.69.22 1.02.37a6.98 6.98 0 0 1-3.18-.73 3.1 3.1 0 0 1-.9-.66zm27.92-.43-1-1.67.04.05a13.72 13.72 0 0 1-2.94-3.46 9.63 9.63 0 0 1-.94-2.07 5.92 5.92 0 0 1-.25-2.25h.04a7.33 7.33 0 0 0 .44 2.17 9.4 9.4 0 0 0 .97 1.99 15 15 0 0 0 2.92 3.32l.04.04 1 1.67zm12.4-14.13c.16 0 .31.07.45.14l.4.23c.26.17.51.36.76.55l-.26.26a14.13 14.13 0 0 0-.96-.97 1.16 1.16 0 0 0-.38-.21zm-41.9 19.14.05-1.33.03-.66.01-.33.07-.34.1-.34a.7.7 0 0 1 .2-.31l.03-.03.05-.01.06-.05.13-.1a1.1 1.1 0 0 0 .2-.23c.13-.18.2-.38.25-.6.05-.2.07-.42.07-.64.03.22.03.44-.01.66-.03.22-.1.44-.2.65-.06.1-.13.2-.22.28l-.13.1-.07.06-.04.03-.02.01a.6.6 0 0 0-.12.25l-.06.3-.02.32v2.32zm-7.39-6.64a11.45 11.45 0 0 0 .14 3.38c.1.55.25 1.1.42 1.64l.56 1.6-.34.12-.49-1.65a14.19 14.19 0 0 1-.44-3.4 7.73 7.73 0 0 1 .15-1.69zm-1.3 11.69a41.32 41.32 0 0 1-.99 2.77l-.5 1.38-.23.7a4.14 4.14 0 0 0-.15.71 2.7 2.7 0 0 1 0-.74 16.93 16.93 0 0 1 .6-2.16c.17-.45.35-.92.56-1.36.22-.43.44-.87.72-1.3zm-2.35 6.49c.07.06.1.17.1.29s0 .2-.03.3c-.07.2-.17.36-.3.51a2.01 2.01 0 0 1-.92.68 5.44 5.44 0 0 1 .64-.89l.31-.4.13-.2a.8.8 0 0 0 .07-.3zm38.3.05c.07.07.12.18.12.3s-.02.2-.05.3c-.06.19-.16.35-.29.5a2.01 2.01 0 0 1-.92.68 5.44 5.44 0 0 1 .63-.88l.32-.4.13-.2a.8.8 0 0 0 .07-.3zm13.74 1.85c.07.07.1.18.1.29s0 .2-.03.3c-.07.2-.17.36-.3.51a2.01 2.01 0 0 1-.92.68 5.44 5.44 0 0 1 .64-.88l.31-.4.13-.21a.8.8 0 0 0 .07-.29zm-1.05-2.11.01-1.67c0-.28 0-.55-.03-.83a14.92 14.92 0 0 0-.35-2.43l-.4-1.61a10.2 10.2 0 0 1 .84 2.37l.13.83a8.63 8.63 0 0 1 .03 1.68c-.04.57-.1 1.12-.23 1.66zm7.27-5.38a5.52 5.52 0 0 1-.5-1.69 14.49 14.49 0 0 1-.12-1.7 11.73 11.73 0 0 0-.48-3.33l.02-.02c.3.49.49 1.05.6 1.62.1.56.14 1.14.18 1.7.04.57.07 1.14.15 1.7.08.54.23 1.07.47 1.56zm-.77 1.68a4.1 4.1 0 0 1-.68-1.74l-.16-.88-.1-.43-.06-.2-.07-.23a8.8 8.8 0 0 1-.35-1.8 6.1 6.1 0 0 1 .1-1.8h.03c.03.6.05 1.2.11 1.78.07.6.23 1.16.42 1.71l.07.2.07.23.1.44.19.88a5.8 5.8 0 0 0 .22.85c.1.26.22.52.38.76z"/>
    </g>
  </g>
</svg>
