<svg xmlns="http://www.w3.org/2000/svg" fill="#d7374a" stroke="#000" viewBox="50 50 200 200">
  <metadata source="http://wappenwiki.org" license="https://creativecommons.org/licenses/by-nc-sa/3.0"/>
  <g id="crown" stroke-width=".6">
    <path d="M98.2 84c4.3 0 6.5-6.9 9.6-6.9 4.3 0 3.4 6.6 3.4 8.3 0 1.7 1 8.3-3.4 8.3-3.1 0-5.3-7-9.6-7"/>
    <path d="M101.8 84c-4.3 0-6.4-6.9-9.6-6.9-4.3 0-3.5 6.6-3.5 8.3 0 1.7-.8 8.3 3.5 8.3 3.1 0 5.3-7 9.6-7m33.5 4.9c1-6.2-3.5-11-2.7-15.5 1-6.2 5.6-3.5 6.9-3.1-1.5 8.7-2.6 18-2.6 18"/>
    <path d="M138.5 90.3c-4.3-1.4-5.2-8.8-8.3-9.9-4.2-1.3-4.4 5.2-4.8 7-.3 1.6-2.1 7.9 2 9.3 3.1 1 6.4-5.1 10.5-3.7M99 86.4c0-6.5-5.2-9.6-5.2-14.3 0-6.4 5-5.3 6.3-5.3s6.2-1.1 6.2 5.3c0 4.6-5.2 7.8-5.2 14.3m-36.4 5.2c-1-6.2 3.5-11 2.7-15.5-1-6.2-5.6-3.5-7-3.1a474 474 0 012.7 18"/>
    <path d="M61.5 90.3c4.3-1.4 5.1-8.8 8.3-9.9 4.1-1.3 4.4 5.2 4.8 7 .3 1.6 2.1 7.9-2 9.3-3.1 1-6.4-5.1-10.6-3.7"/>
    <path d="M100.3 88.2s1.7 17 8.4 17c5.8 0 10.4-10.6 10.4-10.6s1 11.9 7.6 11.9c3.8 0 9.1-11.5 9.1-11.5s-4 21.3-5.2 33.3c-5 3.3-30.7 3.3-30.7 3.3s-24.9-.7-30.6-3.3C68 116.3 64 95 64 95s5.3 11.5 9.1 11.5c6.7 0 7.6-11.9 7.6-11.9s4.6 10.5 10.3 10.5c6.9 0 8.5-16.9 8.5-16.9h.7z"/>
    <path d="M67.6 115c-.9.2-1.5-.4-1.6-1.4-.1-1 .5-1.7 1.3-1.9 2.6-.8 12.6-3.7 32.6-3.7 20.2 0 30.1 3 32.8 3.7.8.2 1.3.8 1.2 1.9 0 1-.7 1.5-1.6 1.4-3.3-.7-15.6-3.7-32.4-3.7-16.6-.1-28.8 2.9-32.3 3.7zm64.3 13.8a2 2 0 01-1.5 1.8c-5.7 2.2-19 3-30.3 3-11.4 0-24.7-.7-30.3-3-.8-.3-1.4-.9-1.5-1.8-.1-1 .2-1.7 1.1-1.9a176.5 176.5 0 0161.3 0c.8 0 1.2.8 1.2 1.9zm-5.6.2c-2.2-.5-14.2-1.7-26.3-1.7-12 0-24 1.2-26.3 1.7 1.4 0 8.6 1.4 26.3 1.4 17.6 0 25-1.4 26.3-1.4z"/>
    <path class="secondary" d="M82.7 114.5c1.5 0 2.6 1.8 2.6 4s-1.2 4-2.6 4c-1.4 0-2.5-1.8-2.5-4s1.1-4 2.5-4zM68.4 117c.6-.2 1.4 1.4 1.7 3.5.3 2.2.2 4-.6 4.2-1.4.4-2.7-1-3-3.1-.4-2 .5-4 1.9-4.6zm48.9-2.5c-1.4 0-2.6 1.8-2.6 4s1.2 4 2.6 4c1.4 0 2.6-1.8 2.6-4s-1.2-4-2.6-4zM100 113c-2.9 0-5.2 2.2-5.2 4.8s2.3 4.8 5.2 4.8c2.9 0 5.2-2.2 5.2-4.8 0-2.6-2.3-4.8-5.2-4.8zm31.7 4c-.7-.2-1.4 1.4-1.7 3.5-.4 2.2-.2 4 .5 4.2 1.4.4 2.8-1 3-3.1.4-2-.4-4-1.8-4.6z"/>
    <path d="M134.3 92.6s-3 11.8-8.2 11.8c-3.8 0-4.7-7.6-5.5-11.3-.4-2.3-1.3-2.8-2.7-.5-1.7 3.3-4.5 10.4-9 10.4-6 0-7.6-15.7-7.6-15.7h-2.6S97.2 103 91.1 103c-4.5 0-7.8-7.6-9.6-10.9-1.3-2.3-2.2-2-2.7.5-.7 3.7-1 12.3-5 12.3-5.1 0-8-12.8-8-12.8l-.9 5.3s3 10.2 8.8 10.2c6.3 0 7.5-10.7 7.5-10.7s3.8 9.4 10 9.4c5.9 0 8.1-6.6 8.9-11.5.7 4.9 2.9 11.5 8.8 11.5 6 0 9.8-9.1 9.8-9.1s1.2 10.4 7.6 10.4c5.8 0 9.3-10.7 9.3-10.7l-1.3-4.3z"/>
    <path class="secondary" d="M63.6 86.6c.7-.3 1.7 1.5 2.2 4.2.4 2.5.3 4.8-.6 5.1-1.7.5-3.3-1-3.7-3.5-.5-2.7.4-5.2 2.1-5.8zm36.4-6.7c-1.9 0-3.5 2.3-3.5 5.2 0 3 1.6 5.3 3.5 5.3s3.4-2.4 3.4-5.3c0-2.8-1.5-5.2-3.4-5.2zm36.5 6.7c-.7-.3-1.7 1.5-2.2 4.2-.4 2.5-.3 4.8.6 5.1 1.7.5 3.3-1 3.7-3.5.5-2.6-.5-5.2-2-5.8z"/>
  </g>
</svg>
