<svg xmlns="http://www.w3.org/2000/svg" fill="#d7374a" stroke="#000" viewBox="50 50 200 200">
  <metadata source="http://wappenwiki.org/images/1/1c/Astrakhan.svg" license="https://creativecommons.org/licenses/by-nc-sa/3.0"/>
  <g id="crown2" stroke-width=".57">
    <path class="tertiary" d="M130.07 93.52c-3.3-3-6.9-3.5-11.07-3.55-3.77-.06-7.19 2.56-10.95 1.67-3.11-.72-5.53-3.61-8.68-4.1-3.69-.6-7.03 2.22-10.66 3.1-3.8.9-7.22-1.19-10.87-.73-3.23.4-6.55 1.77-8.99 4.05-3.68 3.44-3.53 9.65-1.8 14.51 1.75 4.87 4.73 9.2 5.95 14.25l26.63-.19 26.64-.19c1.16-5.05 4.1-9.44 5.78-14.32 1.69-4.89 1.76-11.12-1.98-14.5z"/>
    <path class="tertiary" d="M75.18 135.43c2.07-.45 13.47-1.21 24.95-1.21 11.4 0 22.82.74 24.95 1.21-1.32 0-8.2 1.37-24.95 1.37-16.76 0-23.7-1.37-24.95-1.37z"/>
    <g>
      <path d="M70.336 113.811a25.752 25.752 0 0 1-3.971-6.897 21.864 21.864 0 0 1-1.482-7.904c-.019-2.717.665-5.491 1.9-7.961.285-.627.703-1.197 1.045-1.786.38-.551.779-1.083 1.197-1.596a21.995 21.995 0 0 1 2.793-2.85c2.014-1.729 4.332-3.078 6.764-4.066a29.007 29.007 0 0 1 3.705-1.197 67.186 67.186 0 0 1 3.686-.779 72.418 72.418 0 0 1 14.896-1.159l-.057 3.154a69.658 69.658 0 0 0-14.174 1.425 47.82 47.82 0 0 0-3.439.817c-1.102.304-2.185.665-3.211 1.121-2.071.893-3.99 2.09-5.643 3.572a19.59 19.59 0 0 0-2.261 2.432c-.342.437-.646.893-.969 1.349-.247.475-.551.893-.76 1.387-.893 1.9-1.387 4.009-1.311 6.156.057 4.313 1.957 8.607 4.769 11.97l-3.477 2.812z"/>
      <path d="M100.907 111.93s.893 7.6 7.22 7.6c5.32 0 9.595-5.643 9.595-5.643s.893 7.125 7.068 7.125c3.534 0 8.493-6.954 8.493-6.954s-3.743 11.609-4.845 18.867l-28.481-1.273-28.481 1.273c-1.102-7.277-4.845-18.867-4.845-18.867s4.959 6.954 8.493 6.954c6.213 0 7.068-7.125 7.068-7.125s4.275 6.327 9.595 6.327c6.384 0 7.22-7.6 7.22-7.6l1.311.627.589-1.311z"/>
      <path d="M100.014 123.159c-15.561 0-26.999 2.109-30.058 2.527-.836.152-1.368-.266-1.482-.836-.114-.589.418-1.691 1.159-1.786 2.47-.475 11.704-2.527 30.419-2.527s27.892 2.052 30.362 2.527c.741.114 1.273 1.159 1.159 1.786-.114.589-.627.95-1.482.836-3.135-.418-14.516-2.527-30.077-2.527z"/>
      <path d="M80.824 116.908c1.14-1.083 2.527-1.672 4.028-1.957a43.681 43.681 0 0 1-1.482-7.372c-.456-3.895-.437-7.885.266-11.647.38-1.881.931-3.648 1.824-5.168.931-1.558 2.185-2.964 3.61-4.199 2.888-2.432 6.479-4.066 10.222-4.598l-.399-3.173c-4.389.494-8.607 2.28-12.065 5.054-1.729 1.406-3.287 3.04-4.503 4.978a17.984 17.984 0 0 0-1.52 3.097 25.402 25.402 0 0 0-.95 3.192c-.475 2.147-.722 4.294-.817 6.441-.114 2.147-.038 4.294.152 6.422a50.936 50.936 0 0 0 1.634 8.93z"/>
      <path d="M129.635 113.811a25.752 25.752 0 0 0 3.971-6.897 21.864 21.864 0 0 0 1.482-7.904c.019-2.717-.665-5.491-1.9-7.961-.285-.627-.703-1.197-1.045-1.786a24.947 24.947 0 0 0-1.197-1.596 21.995 21.995 0 0 0-2.793-2.85c-2.014-1.729-4.332-3.078-6.764-4.066a29.007 29.007 0 0 0-3.705-1.197 67.186 67.186 0 0 0-3.686-.779 72.418 72.418 0 0 0-14.896-1.159l.057 3.154c4.75-.019 9.519.475 14.174 1.425a47.82 47.82 0 0 1 3.439.817c1.102.304 2.185.665 3.211 1.121 2.071.893 3.99 2.09 5.643 3.572a19.59 19.59 0 0 1 2.261 2.432c.342.437.646.893.969 1.349.247.475.551.893.76 1.387.893 1.9 1.387 4.009 1.311 6.156-.057 4.313-1.957 8.607-4.769 11.97l3.477 2.812z"/>
      <path d="M119.147 116.908c-1.14-1.083-2.527-1.672-4.028-1.957a43.682 43.682 0 0 0 1.482-7.372c.456-3.895.437-7.885-.266-11.647-.38-1.881-.931-3.648-1.824-5.168-.931-1.558-2.185-2.964-3.61-4.199a20.49 20.49 0 0 0-10.222-4.598l.399-3.173c4.389.494 8.607 2.28 12.065 5.054 1.729 1.406 3.287 3.04 4.503 4.978a17.984 17.984 0 0 1 1.52 3.097c.399 1.064.703 2.128.95 3.192.475 2.147.722 4.294.817 6.441.114 2.147.038 4.294-.152 6.422a47.654 47.654 0 0 1-1.634 8.93z"/>
      <polygon points="92.775 65.874 98.703 66.748 97.886 60.668 102.503 60.668 101.743 66.748 107.69 65.874 107.69 70.491 101.629 69.332 100.983 76.343 99.406 76.343 98.76 69.332 92.775 70.491"/>
      <polygon points="96.442 104.729 103.605 104.729 103.073 79.288 96.955 79.288"/>
      <path d="M96.233 77.844c0 2.052 1.691 2.565 3.8 2.565 2.052 0 3.8-.494 3.8-2.565 0-2.052-1.691-3.743-3.8-3.743-2.109-.057-3.8 1.691-3.8 3.743z"/>
      <path d="M108.298 120.841c-2.318 0-4.332-1.102-5.7-2.907-1.691-1.957-2.584-4.484-2.584-4.484s-1.216 2.907-2.527 4.484c-1.368 1.786-3.382 2.907-5.643 2.907-5.643 0-9.177-5.738-9.177-5.738s-1.045 6.593-7.068 6.593c-5.32 0-8.113-6.441-8.113-6.441l.741-3.268s2.736 6.802 7.6 6.802c3.591 0 4.807-4.275 5.529-6.479.418-1.425.741-1.691 1.995-.323 1.634 1.957 4.218 5.909 8.436 5.909 5.586 0 6.384-9.12 6.384-9.12h3.629s.798 9.12 6.384 9.12c4.218 0 6.802-3.952 8.436-5.909 1.216-1.425 1.52-1.159 2.052.323.684 2.223 1.9 6.479 5.529 6.479 4.845 0 7.6-6.802 7.6-6.802l.741 3.268s-2.793 6.441-8.113 6.441c-5.909 0-7.068-6.593-7.068-6.593s-3.42 5.738-9.063 5.738z"/>
      <path d="M98.38 109.973c4.009 0 6.004 4.218 8.854 4.218 4.009 0 3.173-3.952 3.173-5.016 0-1.007.893-5.016-3.173-5.016-2.907 0-4.845 4.218-8.854 4.218"/>
      <path d="M101.819 109.973c-4.009 0-5.966 4.218-8.854 4.218-4.009 0-3.325-3.952-3.325-5.016 0-1.007-.741-5.016 3.325-5.016 2.907 0 4.845 4.218 8.854 4.218"/>
      <path d="M134.29 112.5s1.102-5.586 2.47-10.811c-1.102-.323-5.377-1.9-6.441 1.9-.684 2.736 3.534 5.586 2.527 9.329"/>
      <path d="M135.354 113.659c-3.952-.836-6.916 2.793-9.709 2.223-3.895-.836-2.166-4.541-1.9-5.586.266-1.007.532-5.016 4.484-4.218 2.85.627 3.686 5.111 7.6 5.966"/>
      <path d="M100.964 109.764c0-3.895 4.807-5.738 4.807-8.588 0-3.857-4.579-3.154-5.738-3.154-1.159 0-5.738-.684-5.738 3.154 0 2.793 4.807 4.693 4.807 8.588"/>
      <path d="M65.852 112.5s-1.102-5.586-2.47-10.811c1.102-.323 5.377-1.9 6.441 1.9.684 2.736-3.534 5.586-2.527 9.329"/>
      <path d="M64.807 113.659c3.952-.836 6.916 2.793 9.709 2.223 3.895-.836 2.166-4.541 1.9-5.586-.266-1.007-.532-5.016-4.484-4.218-2.85.627-3.686 5.111-7.638 5.966"/>
      <path d="M69.899 135.205c.114 1.007.703 1.539 1.425 1.767 5.358 2.09 17.955 2.755 28.766 2.755s23.351-.589 28.766-2.755c.703-.304 1.311-.855 1.425-1.767.057-.931-.266-1.615-1.083-1.767-.703-.228-14.193-2.204-29.089-2.204-14.953 0-28.329 1.976-29.089 2.204-.798.076-1.178.76-1.121 1.767zm5.282.228c2.071-.456 13.471-1.216 24.947-1.216 11.4 0 22.819.741 24.947 1.216-1.311 0-8.189 1.368-24.947 1.368s-23.693-1.368-24.947-1.368z"/>
    </g>
    <g fill="#000" stroke="none">
      <path d="M74.95 95.44c-.07.6-.13 1.21-.11 1.8a10.9 10.9 0 0 0 .59 3.5c.19.57.43 1.1.72 1.65a5.28 5.28 0 0 1-1.05-1.52 6.8 6.8 0 0 1-.63-3.65c.06-.6.22-1.23.48-1.78z"/>
      <path d="M91.54 94.22c-.23.74-.74 1.39-1.33 1.9s-1.27.93-1.94 1.31c-.66.38-1.33.76-1.94 1.18-.6.44-1.17.95-1.61 1.6.27-.74.78-1.37 1.39-1.86.6-.52 1.27-.92 1.93-1.3.67-.38 1.33-.76 1.94-1.2.61-.43 1.16-.96 1.56-1.63z"/>
      <path d="M109.13 95.08c-.01.8.38 1.5.88 2.07.51.57 1.14 1.02 1.7 1.63a5.4 5.4 0 0 1 1.2 2.11c.27.74.5 1.5.82 2.22-.5-.62-.82-1.36-1.16-2.09a7.2 7.2 0 0 0-1.2-1.93c-.5-.57-1.13-1.07-1.63-1.73-.25-.33-.44-.7-.57-1.09-.11-.4-.15-.81-.04-1.2z"/>
      <path d="M124.98 96.14c-.25.8-.68 1.52-1.16 2.2-.47.69-1 1.32-1.52 1.96-.51.63-1.02 1.27-1.46 1.96a7.17 7.17 0 0 0-.97 2.24 5.4 5.4 0 0 1 .66-2.41c.38-.76.9-1.43 1.41-2.07.53-.65 1.08-1.26 1.6-1.88.53-.63 1.02-1.28 1.44-2z"/>
    </g>
    <g class="secondary">
      <path d="M118.48 127.89a2.38 2.38 0 0 1-2.43 2.38 2.38 2.38 0 0 1 0-4.76 2.43 2.43 0 0 1 2.43 2.38z"/>
      <path d="M131.23 129.85a2.49 2.49 0 0 1-2.85 1.9c-.68-.15-.83-1.28-.53-2.53.32-1.31 1-2.26 1.58-2.1a2.21 2.21 0 0 1 1.8 2.73z"/>
      <path d="M81.62 127.89a2.38 2.38 0 0 0 2.43 2.38c1.32 0 2.44-1.07 2.44-2.38s-1.07-2.38-2.44-2.38-2.43 1.07-2.43 2.38z"/>
      <path d="M95.23 127.11c0 1.58 2.16 2.9 4.8 2.9 2.7 0 4.81-1.3 4.81-2.9s-2.17-2.9-4.8-2.9c-2.65.1-4.81 1.36-4.81 2.9z"/>
      <path d="M68.85 129.85a2.49 2.49 0 0 0 2.85 1.9c.69-.15.84-1.28.54-2.53-.33-1.31-1.01-2.26-1.58-2.1a2.19 2.19 0 0 0-1.8 2.73z"/>
      <path d="M70.75 86.47c.69.59 1.32.19 1.92-.47.6-.69.93-1.35.3-1.98a1.71 1.71 0 0 0-2.33.13c-.59.67-.5 1.73.11 2.32z"/>
      <path d="M75.92 81.9c.32.83 1.08.77 1.94.48.84-.32 1.48-.77 1.16-1.61s-1.24-1.31-2.13-.95a1.67 1.67 0 0 0-.97 2.07z"/>
      <path d="M82.74 79.48c.14.9.88 1 1.77.93.9-.13 1.63-.42 1.5-1.31a1.64 1.64 0 0 0-1.84-1.43c-.88.14-1.54.97-1.43 1.8z"/>
      <path d="M89.92 78.28c.14.9.88 1 1.77.93.9-.13 1.64-.42 1.5-1.3a1.64 1.64 0 0 0-1.84-1.43c-.9.13-1.54.96-1.43 1.8z"/>
      <path d="M66.63 91.73c.78.48 1.37-.07 1.8-.83.48-.78.69-1.5-.1-1.98a1.65 1.65 0 0 0-2.27.59c-.47.72-.23 1.73.57 2.22z"/>
      <path d="M65.5 98.46c.88 0 1.13-.72 1.13-1.62s-.2-1.65-1.1-1.67-1.64.7-1.67 1.66c-.02.85.76 1.63 1.63 1.63z"/>
      <path d="M85.95 85.71c.6.68 1.28.38 1.96-.2.69-.6 1.12-1.2.57-1.93a1.69 1.69 0 0 0-2.32-.2c-.68.6-.72 1.67-.2 2.33z"/>
      <path d="M91.9 81.23c.32.83 1.08.77 1.94.49.83-.32 1.48-.78 1.16-1.61a1.64 1.64 0 0 0-2.13-.95c-.84.32-1.27 1.29-.97 2.07z"/>
      <path d="M82.13 91.18c.82.44 1.35-.17 1.73-.95.44-.82.57-1.54-.24-1.97-.82-.44-1.79-.06-2.23.76-.4.74-.07 1.74.74 2.16z"/>
      <path d="M80.39 97.66c.87.12 1.21-.57 1.33-1.46.11-.88 0-1.67-.88-1.79-.87-.11-1.7.5-1.86 1.43-.13.83.53 1.7 1.4 1.82z"/>
      <path d="M80.18 105.09c.87-.06 1.08-.8 1.02-1.7-.05-.86-.32-1.62-1.21-1.57a1.7 1.7 0 0 0-1.56 1.77c.04.83.87 1.56 1.75 1.5z"/>
      <path d="M129.22 86.47c-.69.59-1.31.19-1.92-.47-.6-.69-.93-1.35-.3-1.98a1.71 1.71 0 0 1 2.33.13c.6.67.5 1.73-.11 2.32z"/>
      <path d="M124.05 81.9c-.32.83-1.08.77-1.94.48-.83-.32-1.48-.77-1.16-1.61s1.24-1.31 2.13-.95c.82.3 1.27 1.27.97 2.07z"/>
      <path d="M117.23 79.48c-.14.9-.88 1-1.77.93-.9-.13-1.63-.42-1.5-1.31.13-.9.91-1.56 1.84-1.43.88.14 1.54.97 1.43 1.8z"/>
      <path d="M110.06 78.28c-.13.9-.87 1-1.76.93-.9-.13-1.64-.42-1.5-1.3.13-.9.9-1.57 1.84-1.43.87.13 1.54.96 1.43 1.8z"/>
      <path d="M133.36 91.73c-.78.48-1.37-.07-1.8-.83-.48-.78-.69-1.5.1-1.98a1.65 1.65 0 0 1 2.27.59c.45.72.2 1.73-.57 2.22z"/>
      <path d="M134.48 98.46c-.9 0-1.14-.72-1.14-1.62s.2-1.65 1.1-1.67 1.64.7 1.67 1.66c.02.85-.74 1.63-1.63 1.63z"/>
      <path d="M114.02 85.71c-.6.68-1.28.38-1.96-.2-.68-.6-1.12-1.2-.57-1.93a1.69 1.69 0 0 1 2.32-.2c.68.6.74 1.67.2 2.33z"/>
      <path d="M108.07 81.23c-.32.83-1.08.77-1.94.49-.83-.32-1.48-.78-1.16-1.61a1.64 1.64 0 0 1 2.13-.95c.84.32 1.3 1.29.97 2.07z"/>
      <path d="M117.84 91.18c-.82.44-1.35-.17-1.73-.95-.44-.82-.57-1.54.24-1.97.82-.44 1.79-.06 2.23.76.4.74.07 1.74-.74 2.16z"/>
      <path d="M119.58 97.66c-.87.12-1.21-.57-1.33-1.46-.11-.88 0-1.67.88-1.79.87-.11 1.7.5 1.86 1.43.13.83-.53 1.7-1.4 1.82z"/>
      <path d="M119.8 105.09c-.88-.06-1.09-.8-1.03-1.7.05-.86.32-1.62 1.21-1.57.88.06 1.6.82 1.56 1.77-.04.83-.85 1.56-1.75 1.5z"/>
      <path d="M101.69 94.83c0 .9-.75 1.14-1.64 1.14-.9 0-1.63-.15-1.69-1.08s.68-1.64 1.63-1.7c.9 0 1.7.75 1.7 1.64z"/>
      <path d="M101.69 89.76c0 .89-.75 1.14-1.64 1.14-.9 0-1.63-.16-1.69-1.09-.06-.93.68-1.63 1.63-1.69.9 0 1.7.74 1.7 1.64z"/>
      <path d="M101.69 84.68c0 .9-.75 1.14-1.64 1.14-.9 0-1.63-.15-1.69-1.08-.06-.93.68-1.63 1.63-1.69.9 0 1.7.74 1.7 1.63z"/>
      <path d="M135.92 113.3a2.95 2.95 0 0 1-3.47 2.16c-.84-.15-.95-1.52-.53-3.05.36-1.52 1.3-2.7 2.05-2.53a2.78 2.78 0 0 1 1.95 3.42z"/>
      <path d="M96.86 109.02a3.21 3.21 0 0 0 6.42 0 3.19 3.19 0 0 0-3.2-3.17 3.22 3.22 0 0 0-3.22 3.17z"/>
      <path d="M64.16 113.3a2.95 2.95 0 0 0 3.48 2.16c.83-.15.95-1.52.53-3.05-.36-1.52-1.31-2.7-2.05-2.53a2.74 2.74 0 0 0-1.96 3.42z"/>
      <path d="M81.89 108.19c1.82 0 3.3 1.42 3.3 3.19s-1.48 3.2-3.3 3.2a3.25 3.25 0 0 1-3.3-3.2c0-1.71 1.47-3.2 3.3-3.2z"/>
      <path d="M118.25 108.19c-1.82 0-3.3 1.42-3.3 3.19s1.48 3.2 3.3 3.2c1.83 0 3.31-1.43 3.31-3.2 0-1.71-1.48-3.2-3.3-3.2z"/>
    </g>
  </g>
</svg>
