<svg xmlns="http://www.w3.org/2000/svg" xmlns:xlink="http://www.w3.org/1999/xlink" fill="#d7374a" stroke="#000" viewBox="50 50 200 200">
  <metadata source="https://commons.wikimedia.org/wiki/File:Ra%C5%86%C4%B7u_pagasta_%C4%A3erbonis.svg" license="https://creativecommons.org/publicdomain/zero/1.0"/>
  <g id="dragonfly" stroke-width=".83">
    <g id="dragonfly-a" class="secondary">
      <path d="M96.562 74.127c-3.285-1.53-6.4-2.851-8.66-3.72-2.262-.87-3.368-1.252-5.38-1.952s-2.51-.29-5.884-1.614c-3.374-1.324-8.008-3.077-11.001-3.59-2.994-.514-5.415-.074-5.429 1.745-.014 1.819 2.626 5.172 7.088 7.864s6.969 4.537 8.743 5.14c1.765.601 6.279 1.256 9.105 1.158-2.459.18-6.267.463-9.45-.011-3.181-.474-5.81-1.164-9.264-.766-3.454.4-3.664 1.798-3.111 3.036.552 1.24 2.522 4.036 8.163 5.828 5.64 1.792 7.75 2.741 9.538 3.304 2.185.687 5.133 1.294 9.54-.858 4.406-2.151 6.42-5.626 6.42-5.626l1.109-4.969z"/>
      <path fill="none" d="M85.144 79.158c2.825-.098 3.286-.159 6.108-.567 2.822-.408 5.218-1.014 5.218-1.014"/>
      <path fill="none" stroke-width=".506" d="M70.28 74.704c-.019-.073-.563-1.936 1.131-2.617 1.694-.682 7.244-.211 8.89.147 1.648.358 2.402.44 3.65.555 1.248.116 2.03.174 3.463.58 1.432.405 2.435.357 4.352.845 1.916.487 4.164 1.61 4.164 1.61m-7.138 2.898s1.028-.911.599-1.874c-.43-.964-1.692-1.107-2.226-2.096-.534-.99-1.56-1.898-3.214-1.963m10.269 5.152c-.586-.443-.534-.664-1.172-1.64-.716-1.096-.423-1.632-1.282-2.087m-4.352-.845s-2.71-1.533-5.455-2.613c-2.747-1.08-3.931-.976-5.662-1.887-1.731-.911-5.142-2.916-6.834-3.983-1.692-1.067-2.095-1.12-2.095-1.12m6.026 24.132s-.898-1.315.273-2.85c1.172-1.536 5.532-2.643 6.391-2.825.86-.182 5.285-1.276 7.68-1.354 1.174-.038 2.77-.496 4.555-.898 1.855-.417 3.885-.78 4.27-.846m-4.27.846s.042 1.653-.052 2.37c-.078.594-.937 1.86-2.707 2.641-1.843.813-4.387 1.627-5.74 2.304-1.354.677-3.397 1.159-2.642 3.163m11.09-8.109c.93-.902 1.485-.963 4.58-1.965"/>
      <path stroke="none" fill="#000" d="M70.504 68.156c1.27 1.567 3.025 2.312 5.123 2.692 2.175.395 3.4 1.253 4.882 1.634l.265-.405c-1.355-.348-2.78-1.314-5.057-1.726-2.033-.37-3.644-1.06-4.82-2.513-1.267-1.563-3.484-2.746-4.96-3.056 1.308.724 3.387 1.917 4.567 3.374zm4.124 12.978c2.675.518 5.828.076 7.926-.446 2.104-.523 5.414-1.174 8.223-1.615l-.445-.426c-2.823.443-5.874.986-8.001 1.515-2.038.506-4.491 1.038-7.62.474-3.094-.557-5.767.562-5.767.562s2.653-.65 5.684-.064z"/>
    </g>
    <use xlink:href="#dragonfly-a" transform="translate(200 0) scale(-1 1)"/>
    <g>
      <path d="M100.405 135.058c.276.727.119 1.684.589 1.684.46 0 .753-1.335.773-2.402.02-1.059-.232-1.703-.358-2.063.185-.108.346-.277.538-.537.517-.703.73-1.776.66-2.379-.068-.602-.625-.728-1.181-.797.437-.118.792-.328 1.06-.693.516-.702 1.188-2.272 1.07-3.314-.119-1.042-.955-1.245-1.88-1.64.84-.078 1.64-.257 1.942-.668.517-.703.342-1.778.224-2.82-.118-1.042-.887-1.392-1.23-1.662.23-.107.418-.244.546-.418.517-.702.379-2.643.316-3.648-.064-1.005-.532-1.68-.874-1.95.116-.08.218-.175.3-.288.517-.702.306-2.514.243-3.519-.064-1.005-.676-1.45-1.018-1.72a1.03 1.03 0 0 0 .24-.24c.42-.595.248-2.128.197-2.98-.052-.85-.582-1.206-.861-1.435.102-.086.189-.19.259-.316.33-.594.262-1.717.184-3.007-.078-1.29-.529-1.383-.807-1.611.159-.112.29-.263.402-.465.33-.594.249-1.653.249-3.124 0-1.47-.301-2.477-.58-2.705.288-.02.512-.083.709-.25.436-.368.677-2.245 1.074-4.241.397-1.997.06-3.838-.592-4.532.465-.633.829-1.416 1.086-2.25.626-2.022.634-4.313-.224-5.227-.858-.913-1.889-1.262-3.462-1.262-1.573 0-2.604.349-3.462 1.262-.859.914-.85 3.205-.225 5.228.258.833.621 1.616 1.086 2.25-.652.693-.988 2.535-.591 4.531.397 1.996.638 3.873 1.074 4.242.197.166.42.23.709.249-.28.228-.58 1.235-.58 2.705 0 1.471-.08 2.53.25 3.124.112.203.242.353.401.465-.279.228-.73.32-.807 1.611-.078 1.29-.146 2.413.184 3.007.07.126.157.23.259.316-.28.229-.81.585-.861 1.436-.051.85-.224 2.384.197 2.979.066.093.147.172.24.24-.342.27-.955.715-1.018 1.72-.063 1.006-.275 2.817.242 3.52.083.112.184.207.3.287-.342.27-.81.945-.873 1.95-.063 1.005-.201 2.946.316 3.648.127.174.316.31.545.418-.343.27-1.11.62-1.23 1.662-.118 1.042-.292 2.117.224 2.82.303.41 1.103.59 1.942.668-.925.395-1.76.598-1.879 1.64-.118 1.042.553 2.612 1.07 3.314.268.365.623.575 1.06.693-.557.069-1.114.195-1.182.798-.069.603.144 1.675.66 2.378.193.26.355.429.539.537-.126.36-.378 1.005-.358 2.063.02 1.067.312 2.402.773 2.402.47 0 .313-.957.589-1.684.24-.631.461-1.16.293-2.582h.227c-.17 1.423.053 1.95.292 2.582z"/>
      <path fill="none" d="M98.59 132.278c.295.174.659.196 1.292.198m.233 0c.633-.002.997-.024 1.293-.198m-3.535-26.055c.5.361 1.348.376 2.125.376.778 0 1.627-.015 2.126-.376m-3.553 22.34c.406.11.883.14 1.427.14.545 0 1.022-.03 1.427-.14m-3.103-5.646c.594.055 1.207.06 1.676.06.47 0 1.083-.005 1.677-.06m-4.29-5.15c.696.327 1.762.383 2.613.383.852 0 1.918-.056 2.614-.383m-5.214-6.016c.614.422 1.65.44 2.6.44.95 0 1.987-.018 2.601-.44m-4.302-10.182c.38.321.974.392 1.701.392.728 0 1.321-.071 1.702-.392m-3.039-4.935c.31.216.729.283 1.337.283.61 0 1.028-.066 1.338-.283M98.59 90.34s.796-.016 1.409-.016 1.409.017 1.409.017m-4.01-9.023c.664.905 1.535 1.504 2.6 1.504 1.066 0 1.937-.6 2.601-1.504"/>
    </g>
    <path stroke="none" fill="#000" d="M100.286 85.556c.085-.517 1.192-.402 1.633-1.027-.805.017-1.671.015-1.92.511-.25-.496-1.116-.494-1.92-.511.44.626 1.547.51 1.632 1.027.085.518.195 2.582.287 3.3.092-.718.203-2.782.288-3.3zm.245-5.987c.632-.68.974-1.805 1.27-3.083.297 1.692-.443 2.85-1.27 3.083zm.166 1.39c1.555-.803 2.143-2.557 1.997-4.906-.37 2.12-.901 3.88-1.997 4.906z"/>
    <path d="M105.146 68.543c0-2.151-1.927-2.776-2.733-2.746.087-1.133-.253-1.469-.898-1.946-.363.635-.629 1.634-1.516 1.634-.888 0-1.154-1-1.517-1.634-.645.477-.985.813-.898 1.946-.806-.03-2.733.595-2.733 2.746 0 2.525 2.742 3.749 5.148 3.749 2.405 0 5.148-1.224 5.148-3.749z"/>
    <path fill="none" d="M96.254 71.182c1.62-.557 2.375-1.953 3.744-2.274 1.37.321 2.125 1.717 3.745 2.274"/>
    <path fill="none" stroke-width=".656" d="M102.745 65.83c-1.822.648-.837 1.896-1.536 3.666m-3.957-3.666c1.822.648.837 1.896 1.536 3.666"/>
  </g>
</svg>
