<svg xmlns="http://www.w3.org/2000/svg" fill="#d7374a" stroke="#000" viewBox="50 50 200 200">
  <metadata source="http://wappenwiki.org/images/1/13/Dauney.svg" license="https://creativecommons.org/licenses/by-nc-sa/3.0"/>
  <g id="dragonRampant" stroke-width=".33">
    <path class="secondary" d="M76.57 65.94a3.12 3.12 0 0 0-1.34-1.35c-.74-.4-.56.01-.53.06.23.36.48.67.52 1.13.07.56-.1.89-.31 1.14-.08.1-.3.19-.38.17-.12-.05-.33.3-.33.3s-.05.22.02.41c.04.15.13.3.22.47a2.84 2.84 0 0 1 .31.72c.36.19.68.23.95.12.54-.2.97-.95.98-.95.02 0 .5-.84-.11-2.22z"/>
    <path class="secondary" d="M69.39 78.98a3.04 3.04 0 0 1-1.77-.68c-.66-.52-.21-.52-.17-.5.42.06.81.17 1.25.01.55-.15.79-.45.93-.74.05-.1.04-.36 0-.41-.09-.1.14-.43.14-.43s.18-.14.39-.17c.14 0 .32 0 .5.03.22.02.47.04.7.02l.1-.01c.31.24.49.51.5.82.03.59-.48 1.28-.48 1.28-.02 0-.6.77-2.1.78z"/>
    <path d="M73.53 72.82c.29-.23.76-.96.7-1.31-.07-.37.24-.92.51-1.25.38-.44.96-.83 1.21-.82.43.06.72-.22.9-.55.17-.32.2-.53.1-.67l-.16-.27c-.35.05-1.5.22-2.1-.9-.24-.07-.46.04-.62.18-.27.26-.35.73-.3.95.07.22.16.18.22.36.03.1.02.18-.03.25-.05.1-.16.16-.34.19-.57.1-.85 1.24-.9 1.67l-.01.02c-.23.58-.36.87-.48.92"/>
    <path class="secondary" d="M71.86 65.09a3.08 3.08 0 0 0-1.81-.55c-.84 0-.49.27-.44.3.37.2.74.36 1 .74.34.46.34.84.27 1.16-.02.1-.18.3-.25.32-.13.02-.15.41-.15.41s.05.22.2.37c.12.1.26.2.42.3.19.11.4.25.56.41l.07.07c.4 0 .7-.12.9-.34.38-.44.4-1.3.4-1.31-.01 0 0-.95-1.17-1.88z"/>
    <path class="secondary" d="M66.38 69.18a3 3 0 0 0-1.43 1.24c-.44.72-.02.56.03.53.37-.21.7-.44 1.16-.45.57-.05.9.15 1.12.38.1.08.17.32.15.39-.06.12.27.35.27.35s.22.07.42.02c.14-.03.3-.1.47-.18.2-.1.42-.2.65-.26l.1-.02c.21-.34.28-.65.19-.93-.17-.55-.9-1.04-.9-1.04-.03-.02-.82-.55-2.23-.03z"/>
    <path d="M88.89 80.4c-1.09-.5-1.87.87-4.47.79-1.1 0-4.7-2.98-5.63-3.55a15.22 15.22 0 0 1-4.38-3.92c-.33-.5-.59-.76-.79-1.02-.2-.32-.44-1.04-.45-1.07-.02-.05 0-.1.02-.2.41-.9.12-1.34-.1-1.71s.04-.8.14-.98l.05-.13a1.1 1.1 0 0 0-.01-.43l-.02-.07v-.01c-.02-.06 0-.11.05-.13a.8.8 0 0 0 .39-.64.9.9 0 0 0-.22-.54c-.2-.22-.4-.15-.4-.15-.22.16-1.38.87-2.27.38-.3-.02-.46.44-.47.64 0 .11.01.2.05.3.18.57.69.56.7.56a.1.1 0 0 1 .08.04c.03.02 0 .06.02.09 0 0-.07.37.01.62l.03.07c.03.05.08.1.14.15a1.1 1.1 0 0 1 .35.5c.09.27.06.6-.08 1.04a.33.33 0 0 0 0 .25c.02.08.36.55.25.77a.5.5 0 0 1-.13.16c-.02-.13-.71-.42-1.06-1.03l-.04-.04v-.03a1.1 1.1 0 0 0-.05-.27 1 1 0 0 0-.68-.7.09.09 0 0 1-.08-.05c-.03-.03 0-.08-.01-.1 0 0-.01-.17-.11-.47-.1-.27-.34-.47-.66-.64-.5-.19-.73-.19-.93.08.08.15.12.22.17.35.14.46.12.82-.07 1.1a1.7 1.7 0 0 1-.89.6c-.04.16-.13.28-.01.63.07.22.6.55.96.52.17-.02.23-.12.3-.14s.25 0 .5 0c.32 0 .53.33.68.6.07.12.13.25.19.3.19.14.81.28 1.01.9a2.97 2.97 0 0 0-.12 1.4l.01.08v.04c-.02.4-.24.35-.5.37-.28.02-.4-.04-.7.4s-.16.58-.02.76l.11.1a1.4 1.4 0 0 1 1.19.53c.17.22.3.52.38.86l.04.07c.07.09.22.09.38.05.19-.03.35-.25.46-.51.26-.64.06-.8 0-.9l-.03-.02c-.12-.15-.02-.3.06-.4.08-.12.18-.27.14-.53-.02-.17.03-.33.05-.49 1.1.85.9 1.74 1.6 2.18 0 .01.97.7 1.29 1.16.42.9 1.78 1.74 2.73 2.67 2.27 2.21 2.41 3.48 2.49 3.5.08.4-.07 1 .76 1.68.86.56-.17.07 1.3-.12 1.7-.22 2.73.35 4.44.3s1.97.1 2.54-.01m8.7-22.28c.14-1.07.39-2.42.82-3.33a9.02 9.02 0 0 1 3.97-3.96c2.08-1.18 2.75-2.16 2.75-2.16s-.5 1.2-.55 2.05c-.08 1.14.19 1.73.5 2.45-1.23.55-2.22 1.52-2.28 2.86-.03.4.03.8.26 1.12a5 5 0 0 0-2.28.96"/>
    <path class="tertiary" d="M89.24 67.23c-.6.13-1.16.3-1.76.4a6.13 6.13 0 0 1-3.76-.65 5.64 5.64 0 0 0 1.44-.52l.07-.08c-1.83-.2-3.36-1.41-4.82-2.99-.2 1.6.93 4.69 1.91 5.72.04.04.06.02.1-.02s-.45-.92.06-1.64a6.38 6.38 0 0 0 4.98 1.23c.6-.1 1.17-.3 1.75-.46a10.16 10.16 0 0 1 7.64 1.13v-.74a10.12 10.12 0 0 0-7.6-1.38z"/>
    <path fill="#f6f6f6" d="M92.03 65.56c.24.35.58.64.96.81 0-.4.16-.79.42-1.09m-2.98.22c.19.41.42.96.83 1.14.13-.37.14-.74.27-1.1m-2.56-.4c-.04.37.13.91.27 1.07.07.06.08.2.17.18.05 0 .09-.06.12-.12.08-.15.15-.61.27-.84m-2.65-.75c.08.74.35 1.78.8 2.37 0-.57.1-1.47.31-2m.01 5.23c-.3-.38-.42-1.33-.3-1.8.4.42.79 1.27 1.75 1.53-.2-.52.02-1.2.13-1.32.44.54.95 1.1 1.64 1.18-.04-.35-.01-.7.06-1.04.26.4.66.71 1.11.86"/>
    <path class="secondary" d="M105.49 139.62c.08.85-.26 1.5-.46 1.85-.44.72-.49.28-.49.22.01-.43.08-.82-.13-1.24a1.33 1.33 0 0 0-.85-.83c-.1-.04-.36 0-.4.06-.1.1-.44-.1-.44-.1s-.16-.16-.21-.35c-.03-.15-.03-.32-.05-.51 0-.22 0-.46-.06-.7l-.02-.1c.2-.33.46-.53.76-.59.57-.1 1.32.33 1.33.33 0 0 .84.47 1.02 1.96zm-14.53-5.88a3.04 3.04 0 0 0-1.18 1.48c-.3.78.08.55.12.52.33-.28.6-.56 1.07-.65.55-.14.9-.01 1.18.17.1.06.22.28.2.35-.02.13.35.3.35.3s.22.03.41-.06c.14-.07.28-.17.43-.28.18-.13.38-.27.6-.37l.08-.03c.15-.38.15-.7.02-.96-.27-.52-1.07-.86-1.07-.86-.05 0-.93-.37-2.21.39z"/>
    <path d="M98.9 136.27c-.25-.27-1.8-.97-2.16-.86-.36.1-.94-.12-1.3-.36-.49-.32-.93-.85-.95-1.12 0-.42-.3-.68-.65-.8-.34-.14-.54-.14-.68-.04l-.25.2c.1.34.4 1.47-.65 2.19-.05.24.1.45.26.58a1.1 1.1 0 0 0 .98.17c.22-.08.16-.17.34-.25a.3.3 0 0 1 .25-.01c.1.04.17.14.22.32.17.55 1.33.7 1.77.7h.03c.59.17.9.26.96.37"/>
    <path class="secondary" d="M90.66 138.51a2.96 2.96 0 0 0-.33 1.87c.1.84.33.45.35.4.17-.39.27-.77.63-1.07.42-.39.8-.43 1.11-.4.11 0 .33.14.35.2.04.13.44.1.44.1s.21-.08.34-.25c.1-.12.17-.28.25-.44.1-.2.2-.42.35-.6a.33.33 0 0 0 .05-.08c-.04-.4-.2-.69-.45-.85-.47-.33-1.34-.25-1.34-.24-.02-.01-.97.09-1.75 1.36zm4.7 4.96c.42.75 1.05 1.1 1.42 1.28.76.35.56-.05.52-.09-.25-.34-.52-.64-.58-1.11-.1-.56.06-.9.24-1.16.07-.08.3-.2.37-.18.13.03.32-.32.32-.32s.04-.22-.04-.42a3.75 3.75 0 0 0-.24-.45 3.65 3.65 0 0 1-.33-.62l-.03-.08c-.36-.17-.68-.2-.96-.08-.53.23-.92 1-.92 1.01 0 .03-.43.88.24 2.22z"/>
    <path class="secondary" d="M78.99 124.63c-.64.56-1.35.7-1.75.74-.83.07-.5-.22-.47-.26.35-.24.7-.43.91-.84.29-.5.25-.87.15-1.18-.03-.11-.22-.29-.28-.3-.13 0-.19-.4-.19-.4s.03-.22.17-.39c.1-.11.23-.22.38-.34.18-.13.37-.29.52-.47l.05-.08c.4-.04.7.04.93.25.42.4.53 1.26.53 1.27.02.02.13.97-.95 2z"/>
    <path class="secondary" d="M75.18 110.25a3.13 3.13 0 0 0-1.9-.05c-.8.22-.4.4-.34.4.42.1.81.15 1.17.47.45.35.55.71.57 1.04 0 .11-.1.34-.16.37-.12.06-.03.46-.03.46s.11.2.3.3a3.3 3.3 0 0 0 .47.17c.21.06.44.13.66.25l.09.05c.38-.11.64-.3.77-.58.25-.51.04-1.36.04-1.36-.02-.02-.25-.95-1.64-1.52z"/>
    <path d="M77.74 117.3c.05-.36-.11-1.2-.41-1.42-.3-.22-.47-.83-.5-1.26-.03-.58.13-1.26.32-1.42.34-.26.37-.66.27-1.01-.1-.35-.22-.52-.39-.57l-.3-.1c-.22.3-.94 1.22-2.15.8-.22.11-.3.35-.3.56-.03.38.23.77.43.9.2.11.24.03.4.11a.3.3 0 0 1 .17.2c.02.11 0 .22-.12.36-.34.47.24 1.49.5 1.84l.02.02c.23.58.34.88.28 1"/>
    <path class="secondary" d="M71.2 112.88a3 3 0 0 0-1.7.86c-.6.58-.17.54-.11.52.4-.11.79-.26 1.24-.15.56.1.82.38.99.65.07.1.08.35.04.4-.07.12.2.42.2.42s.18.12.39.12c.14 0 .32-.04.5-.07.21-.04.45-.09.7-.09h.1c.28-.27.42-.56.4-.87-.02-.58-.6-1.22-.61-1.22-.02 0-.65-.71-2.15-.57z"/>
    <path class="secondary" d="M70.05 119.62c-.36.77-.26 1.5-.18 1.9.18.82.36.41.39.37.13-.4.2-.8.53-1.13.39-.42.75-.5 1.08-.5.11 0 .34.12.37.18.04.12.44.06.44.06s.2-.1.31-.27c.08-.12.15-.29.21-.46.08-.2.17-.43.3-.64l.06-.08c-.08-.38-.26-.66-.52-.8-.5-.29-1.35-.13-1.36-.13-.03-.01-.96.15-1.63 1.5z"/>
    <path d="M78.85 120.02c.22.22.1.15.32.43.22.16.25.33.27.48.02.12.05.3.24.32h.04c.1.01.36 0 .61.64.11.26.15.54.02.7-.1.12-.2.23-.31.21-.03 0-.06 0-.08-.02a1.9 1.9 0 0 0-.87-.35c-.45-.07-.91.1-1.22.44a.35.35 0 0 1-.16 0c-.22-.03-.42-.02-.51-.56s.05-.57.23-.77.36-.32.1-.62l-.01-.02-.07-.04a3.84 3.84 0 0 1-1.09-1.26c-.57-.3-.92.17-1.15.19a1.01 1.01 0 0 1-.34-.08c-.31-.1-.68-.19-.9.03-.18.18-.34.3-.37.35s0 .16-.12.3c-.24.28-.86.4-1.06.29-.33-.18-.35-.32-.41-.46.1-.13.28-.64.23-1.05-.06-.33-.29-.61-.72-.84-.12-.07-.2-.1-.36-.15-.05-.32.12-.47.61-.69.35-.1.68-.13.92 0 .27.15.4.26.4.26l.05.06.02.01c.03.01.07 0 .1-.02.02-.01.45-.26.98.03l.25.18h.06c.67.2 1.43-.05 1.48.02 0-.07 0-.14-.02-.21-.07-.23-.64-.34-.72-.37a.33.33 0 0 1-.17-.2 1.77 1.77 0 0 0-.66-.8 1.04 1.04 0 0 0-.6-.12h-.2l-.07-.04a1.45 1.45 0 0 1-.43-.44c-.01-.01-.02-.03-.04-.03l-.04-.01c-.03 0-.06 0-.08.02-.02 0-.37.36-.9.08a1.15 1.15 0 0 1-.23-.2c-.13-.14-.33-.58-.1-.77.97-.27 1.34-1.59 1.38-1.85 0 0 .1-.18.4-.17.28.03.49.21.52.25.28.3.17.71.17.72-.02.06 0 .11.05.13h.01l.06.04c.07.03.25.2.3.3l.06.14c.07.2.17.67.59.79s.92.24 1.25 1.18c.04.07.08.13.12.15.03.02.7.38 1.07.46.32.06.68.07 1.27.2.65.13.82.17 1.2.2.43.04 1.43.2 1.96.25l1.7.12c.65.05 2.22-.03 3.15-.2 0 0-.89-2.3-1.86-3.56-1.02-1.3-1.89-2.29-1.65-3.57.26-.9-.34-2.75 1.1-3.64 1.1-1.34 2.62-.73 3.7-1.04 1.7-.91 3.38.29 4.67.3 1.52-.3 2.12.43 2.97.78l6.03 3.72-2.24 4.92c-2.61.79-5.16.54-7.88.3-.58-.06-1.34.08-1.34.86 0 1.16.12 1.14.89 2.15.7.89 1.18 1.46 1.63 2.02.57.7.88 2.28.74 2.53-.32.55-1.53.8-3.22.67a8.14 8.14 0 0 1-3.2-1.33c-.89-.6-2.58-1.29-3.78-1.7a30.1 30.1 0 0 0-4.74-1.04z"/>
    <path class="secondary" d="M98.98 90.4c.5-.56.54-1.39.43-2.14-.1-.66-.42-1.4-.37-2.08.05-.47.45-1 .98-.88.56.16.8 1.18.9 1.64 1.05-1.1.51-2.26.36-3.55-.17-1.37-.29-2.9.54-4.11.75-1.13 1.6.05 1.63.98.3-.16.51-.46.66-.76.38-.74.44-1.6.53-2.42.06-.54.09-3.44 1.12-3.26.26.04.44.25.58.47.2.31.22.64.33.96.26-.19.33-.52.41-.81.08-.26.15-.51.18-.77a4.7 4.7 0 0 0-.47-2.35c-.31-.61-.78-1.3-.93-1.98-.03-.16-.04-.33-.05-.5-.01-.23-.02-.49.12-.69.17-.25.53-.3.82-.3.46.02.69.3.98.6.07-1.36-.79-2.15-1.42-2.87-.35-.4-.88-.94-1.2-1.36-.52-.67-.53-1.42-1.13-2.03l-.06 3.52c-.04 1.72-.07 3.46-.49 5.12-1.2 4.8-5.3 8.31-7.31 12.83a25.96 25.96 0 0 0-1.31 3.95m31.58 9.5c-1.54.07-1.78 1.13-2 1.43-.16.22-.49.32-.62.1-.2-.38.17-.72.17-.72-1.04.33-1.97 2-1.97 4.07-.06.2-.26.3-.44.33a.55.55 0 0 1-.55-.27c-.26-.46-.15-1.06-.15-1.06-.8.85-.94 2.13-.82 3.3s.67 1.95.53 3.29c-.04.57-.62.71-.95.47-.43-.3-.52-.93-.52-.93-.42 1.09-.1 2.33.46 3.36.53 1.04 1.5 1.56 1.63 2.72.06.56-.3.7-.56.68-.51-.05-.77-.75-.77-.75-.94 2.38 1.64 3.72.93 5.75-.21.59-.63.59-.8.52-.28-.1-.35-.35-.37-.56-.03-.51.33-1 .33-1-2.54.18-1.98 3.94-4.42 3.64a.55.55 0 0 1-.5-.68c.06-.29.28-.4.49-.44.5-.1 1.05.18 1.05.18-.57-2.49-3.63-1.4-4.45-2.76-.39-.63-.3-1.24.1-1.41.6-.24 1.14.25 1.14.25.05-2.55-3.13-2.93-3.78-4.8-.13-.4-.27-1.34.54-1.35.76 0 .73 1.04.73 1.04.62-.96.1-2.3-.58-3.04-.82-.88-2.48-1.16-3.63-2.77-.34-.48-.7-1.33.09-1.55.73-.2.98.81.98.81.35-1.08-.49-2.25-1.33-2.8-1.01-.64-3.06-.9-4.42-1.9 0 3.83.1 7.8 2.14 11.04.9 1.43 2.12 2.63 3.19 3.93 2.12 2.61 3.77 5.83 6.79 7.33a7.8 7.8 0 0 0 5.84.42 3.56 3.56 0 0 0 1.71-1.06c.37-.44.57-.98.73-1.53 1.45-4.9.32-10.18.9-15.28.09-.9.26-1.8.6-2.64.48-1.17 1.33-2.16 2.15-3.13l2.15-2.5"/>
    <path d="M104.15 61.83c-.6-.87-1.73-2.12-2.93-2.3-1.19-.18-2.9.25-4.35.13l-.9-.04c-.1 0-1.63-.06-2 .44-.2.26.16.6-.1.94-1.03-.23-1.68.13-2.14.18 0 0-.49-.05-1.17.26-.33.16-.7.1-.7.1-.83-.18-1.5.49-1.97.27-.47-.22-1.42-.09-1.82.1-.37.18-.13.48-.25.88-.02.05-.09.12-.14.13 0 0-.33.15-1-.03a2.53 2.53 0 0 1-1.22-.94c-.12.36-.1.87.07 1.21.38.84 1.33 1.42 2.5 1.45.23.03.26.1.47.52.06.11.28.15.4.13.3-.06.5-.15.68-.17.4-.05.98-.06 1.26.08 1.46.77 2.88.34 4.44.39.35.01.85.19 1.14.38 1.4.93 1.62 2.02 1.9 2.67.05.1.1.2.07.3-.02.14-.13.24-.24.28-.12.05-.36.27-.5.29-.5.02-.3-.03-.8 0-.36 0-.66-.13-.99.02-.18.07-.68-.13-.86-.04-.48.26-.93.2-1.47.26l-3.78.35c-.21.02-.47.09-.48.3 0 .16 0 .3.17.35.46.15.55.38.91.4.29 0 .58.03.83-.12-.28 1.14 1.1 1.63 1.24 3.62.98-1.4-.4-2.98.23-3.77 0 0 .3-.03.45-.11.29.52-.35 1.64.7 2.18-.42-1.11.8-1.43.53-2.21.69-.1.8-.01 1.49-.1.34-.03 1.02.09 1.37.09.53 0 .85-.18 1.38-.2.32.66.43 1.14.13 2.02-1 .28-1.4 1.48-2.11 2.11-1.5.35-2.29 1.2-3.25 2.07-1.9 0-2.24 1.3-3.76 2-2.19 0-2.68 2.2-3.8 3.02-1.85.77-1.4 2.53-2.05 3.91-1.22 1.35-.34 2.92-.6 4.5-.79 1.93.94 3.69 1.41 4.98.21 2 2.6 2.83 3.13 4.01.51 1.8 2.1 1.43 3.25 2.54.9 1.44 2.34 1.5 3.26 2.43.25 1.43 2.11 1.2 3 2.4.37 1.5 1.9 1.91 2.42 3.11-.2 1.46 1.16 2.56 1.16 3.52-.6.95-.26 2.56-.37 3.7-.61 1.63.73 2.66 1.05 4.12.07 1.37 1.95 2.72 2.17 3.57.23.6.36 1.52.38 2.12-.05.95-.3 1.16-.64 1.97a146.74 146.74 0 0 0-1.23 3.88c-.16.5-.57 1.04-.71 1.44-.12.37-.2.41-.48 1-.15.35-.1.3-.28.63l-.44.76c-.11.14-1.2.12-1.22.14-.06.03-.11.02-.2 0-.95-.3-1.35.05-1.7.3-.34.27-.79.06-.97-.01l-.15-.04c-.12-.01-.35.03-.43.06l-.05.04h-.01c-.06.02-.11 0-.15-.05a.8.8 0 0 0-.68-.3.84.84 0 0 0-.5.28c-.2.22-.11.4-.11.4.2.2 1.02 1.28.65 2.23 0 .28.48.4.68.38.1 0 .2-.03.28-.07.55-.26.48-.75.48-.76 0-.04 0-.07.03-.1l.03-.01.06-.01s.37.02.6-.08l.08-.04.12-.16c.1-.13.22-.3.45-.4.27-.13.6-.14 1.05-.05a.4.4 0 0 0 .25-.02c.08-.03.5-.43.74-.34a.4.4 0 0 1 .17.1c-.03.03-.34.77-.9 1.2a.15.15 0 0 1-.04.03h-.03a.94.94 0 0 0-.26.1 1.02 1.02 0 0 0-.6.76.11.11 0 0 1-.05.08l-.02.01-.07.02s-.17.03-.45.16c-.25.11-.43.4-.55.73-.13.51-.1.74.18.9.14-.09.2-.14.33-.2.44-.2.81-.22 1.1-.07.38.2.67.64.71.82.16.03.29.1.63-.06.2-.08.47-.66.4-1-.04-.18-.14-.23-.17-.28-.02-.07-.02-.26-.05-.5-.05-.32.25-.56.51-.75a1.03 1.03 0 0 0 .28-.23c.12-.2-.05-.77.55-1.04.72.1 1.53-.24 1.76-.02l.03.03.08.05c.26.2.26.2.53.1l.06-.02.04-.01c.4-.02.37.2.42.45.06.26 0 .4.48.65s.6.09.76-.08a.53.53 0 0 0 .08-.12c-.03-.15-.1-.75.39-1.24.2-.21.47-.36.8-.49a.22.22 0 0 0 .07-.04c.08-.09.05-.23 0-.4s-.28-.31-.56-.4c-.67-.17-.8.05-.88.13l-.02.02c-.15.14-.3.06-.41 0-.14-.08-.3-.15-.55-.08-.39.13-1.05-.13-1.29-.17.24-1.18 2.25-4.28 2.93-5.36a4.9 4.9 0 0 1 2.25-2.1c1.17-.52 1.12-.99 1.29-1.47.29-.86-.07-1.07-.26-1.66-.63-1.84.82-4.36 1.63-5.74.11.13 2.41 5.01 7.83 5.01 5.24 0 7.5-4.37 7.86-8.91.32-4.1-1.42-7.33-.53-11.52.82-3.81 3.27-6.11 3.9-6.8.04.16.5 3.16 1.52 3.85.47.44 2.07-4.26 3-5.97 1.2-2.53 3.58-5.32 3.43-5.62-.14-.3-3.95.56-7.25 2.08-3.06 1.4-5.7 3.6-5.61 3.92.14.78 2.86.5 3.4.59-.4.37-3.74 3.43-4.8 7.52-1.17 4.56.64 7.86.2 11.83-.32 2.87-1.5 5.75-5.13 5.75-4.2 0-6.13-6.46-7.57-10.8-1.76-5.43-5.8-9.63-8.56-14.88a14.78 14.78 0 0 1 .71-15.59 35.28 35.28 0 0 0 3.37-6.77 15 15 0 0 0-.8-12.23l.34-.14z"/>
    <path class="secondary" d="M95.96 106.92c-.85-.35-1.45-1.08-2.97-.77-1.3-.02-2.98-1.22-4.67-.3-1.08.3-2.6-.3-3.7 1.03-1.44.89-.84 2.75-1.1 3.64-.24 1.28.63 2.26 1.65 3.6.58-.07 1.12-.71 1.12-1.62 0-.63-.3-1.47-.61-2.02.22-.13.53-.77.52-1.16.6.44 2.22.07 2.66-.34 1.3.62 2.81.73 4.17.2 1.4-.1 2.43.02 3.48-.9z"/>
    <path class="secondary" d="M96.57 70.5c.32.66.43 1.14.13 2.02-1 .28-1.4 1.48-2.11 2.11-1.5.34-2.29 1.2-3.25 2.07-1.9 0-2.24 1.3-3.76 2-2.19 0-2.68 2.2-3.8 3.02-1.85.77-1.4 2.53-2.05 3.91-1.22 1.35-.34 2.92-.6 4.5-.79 1.93.94 3.69 1.41 4.98.21 2 2.6 2.83 3.13 4.01.51 1.8 2.1 1.43 3.25 2.54.9 1.44 2.33 1.5 3.26 2.43.25 1.43 2.11 1.2 3 2.4.36 1.5 1.9 1.91 2.42 3.11-.2 1.46 1.16 2.56 1.16 3.52-.6.95-.26 2.55-.37 3.7-.61 1.63.73 2.66 1.05 4.12.06 1.37 1.95 2.72 2.17 3.57l.02-.02c.23-.29.83-.45 1.37-.32.27-1.23-.48-2.78-1.2-3.82v-.01a6.35 6.35 0 0 0-.56-3.54l.1-.1c.36-1.21-.1-2.66-.48-3.59.38-1.08-.07-2.63-.8-3.62-.34-1.25-.82-2.99-2.03-3.47h.01c0-.77-1.33-2.38-2.07-2.9a5.32 5.32 0 0 0-2.35-2.86 6.1 6.1 0 0 0-2.9-3.26 8.88 8.88 0 0 0-2.7-3.56c0-.9-.53-3.06-1.05-3.5.06-.98.64-2.3.24-3.56.36-1.27 1.75-2.43 1.66-3.13.63-.6 2.07-.92 2.73-2.06 1.15-.7 2.36-.77 3.2-2.16.6-.56 2.52-1.23 2.75-2.7.43-1.19 1.75-1.84 1.54-3.21.27-.9.34-1.84.18-2.77-.31.21-.71-.02-1.15.1-.39.13-1.13.04-1.53.05z"/>
    <path fill="none" d="M99.27 70.36a5.94 5.94 0 0 1-.18 2.76c.2 1.37-1.11 2.02-1.54 3.22-.23 1.46-2.16 2.13-2.75 2.7-.84 1.38-2.05 1.45-3.2 2.15-.66 1.14-2.1 1.46-2.73 2.06.09.7-1.3 1.86-1.66 3.13.4 1.27-.18 2.58-.24 3.57.52.42 1.05 2.58 1.05 3.5a8.8 8.8 0 0 1 2.7 3.55 6.13 6.13 0 0 1 2.9 3.26 5.31 5.31 0 0 1 2.35 2.85c.74.53 2.07 2.14 2.07 2.92M87.61 78.69a6.85 6.85 0 0 1 3.99 2.5m-.22-4.5a6.96 6.96 0 0 1 3.42 2.34m-.18-4.4c1.17.08 2.11.96 2.93 1.7m-.83-3.8c1.03-.13 1.42.21 2.37.6M85.7 99.1a7.33 7.33 0 0 1 5.02-2.12m-1.77 4.66a6.68 6.68 0 0 1 4.66-1.39m-1.36 3.78a5.45 5.45 0 0 1 3.71-.93m-.73 3.36c.72-.4 2-.7 2.79-.44M82.58 95.08A9.97 9.97 0 0 1 88 93.42m-6.85-3.3c1.91-.45 3.88-.43 5.8-.17m-5.2-4.33c1.45-.2 4 .22 5.44.76m-3.4-4.67c1.78 0 3.55.61 5.07 1.54"/>
    <path fill="none" d="M109.54 119.33a2.27 2.27 0 0 1-.7 1.17m-10.8-14.48c1.2.48 1.68 2.22 2.03 3.47m0 0c.72 1 1.17 2.54.79 3.62m0 0c.38.93.85 2.38.47 3.59m-.09.1c.53 1.16.72 2.27.56 3.54m0 .01c.72 1.05 1.47 2.59 1.2 3.82"/>
    <path fill="none" d="M97.64 109.58a5.54 5.54 0 0 1 2.44-.09m-1.27 3.53a3.85 3.85 0 0 1 2.06.1m-2.45 3.68a5.04 5.04 0 0 1 2.82 0m-1.78 4.12c.45-.68 1.7-.79 2.34-.57m-.17 4.14c.23-.29.83-.45 1.37-.32m-14.14-15.2c1.3.63 2.81.74 4.17.22m-4.17-.21c-.44.41-2.06.78-2.67.34m6.84-.14c.2-.93.2-2.03-.05-2.95m-4.12 2.75c.38-.94-.19-2.63-.55-3.06m4.72 3.26c1.4-.1 2.43.02 3.48-.9m-10.3 1.04a5.59 5.59 0 0 1-1.59-2.36"/>
    <path fill="none" d="M86.2 109.32c0 .4-.3 1.03-.52 1.16-.45.27-1.44.52-2.17.12m2.17-.12c.3.55.61 1.39.61 2.02 0 .9-.54 1.55-1.13 1.67"/>
    <path class="secondary" d="M75.5 102.49a3.1 3.1 0 0 1-1.62 1c-.82.2-.54-.15-.51-.18.3-.3.63-.54.77-.98.2-.53.1-.89-.03-1.19-.06-.1-.26-.25-.32-.24-.14.01-.26-.37-.26-.37s0-.23.11-.4c.08-.13.2-.26.32-.4.15-.17.32-.35.44-.55l.05-.1c.38-.1.7-.06.95.1.49.34.73 1.16.73 1.17 0 .02.26.95-.64 2.14z"/>
    <path class="secondary" d="M69.5 88.87a3 3 0 0 0-1.88.24c-.76.35-.33.45-.28.45.43.03.83.02 1.22.28.5.27.65.62.73.93.02.11-.05.35-.1.4-.11.07.03.45.03.45s.14.17.34.24c.15.04.31.08.5.1.22.03.46.07.68.14l.09.04c.36-.17.58-.4.67-.69.16-.55-.17-1.35-.18-1.35 0 .01-.37-.87-1.82-1.23z"/>
    <path d="M73.12 95.45c0-.37-.3-1.18-.63-1.35-.34-.17-.6-.74-.68-1.17-.12-.56-.08-1.26.08-1.46.3-.3.26-.7.1-1.03s-.3-.47-.47-.5a4.93 4.93 0 0 0-.32-.03c-.16.31-.74 1.34-1.99 1.12-.2.15-.24.4-.22.61.05.37.36.73.57.81.22.1.25 0 .42.06.1.03.16.09.19.16.04.1.02.22-.07.38-.26.51.48 1.43.78 1.74l.03.02c.31.53.47.82.44.93"/>
    <path class="secondary" d="M65.95 92.1c-.8.23-1.3.78-1.54 1.1-.5.67-.07.55-.03.53.39-.18.74-.37 1.2-.34.57.01.87.24 1.08.48.08.1.13.33.1.4-.07.12.24.37.24.37s.2.1.42.06c.14-.02.3-.09.48-.14.21-.08.44-.16.67-.2l.1-.01c.24-.32.33-.63.28-.93-.12-.57-.8-1.1-.8-1.1s-.74-.6-2.2-.23z"/>
    <path class="secondary" d="M65.88 98.93c-.22.82-.02 1.52.12 1.9.3.79.43.37.44.31.06-.41.08-.82.35-1.2.3-.47.66-.6 1-.65.1-.03.34.06.38.12.06.1.45-.01.45-.01s.18-.14.26-.32c.06-.14.1-.31.13-.5a4.1 4.1 0 0 1 .23-.76c-.14-.37-.35-.61-.63-.71-.54-.2-1.37.07-1.37.07s-.91.32-1.36 1.75z"/>
    <path d="M88.45 87.84c-1.06.58-1.63 2.41-3.27 4.44-.67.88-4.02 1.53-5.05 1.92a15.47 15.47 0 0 1-5.77 1.11c-.6-.03-.96.01-1.29.01-.37-.02-1.09-.27-1.12-.28-.06-.02-.09-.07-.14-.14-.48-.87-1-.92-1.42-.97-.43-.06-.6-.5-.7-.7-.03-.05-.05-.1-.08-.12a1.3 1.3 0 0 0-.36-.25l-.06-.02h-.01c-.06-.02-.09-.08-.07-.13 0-.01.05-.43-.27-.7a.94.94 0 0 0-.56-.15c-.29.02-.37.22-.37.22 0 .27-.15 1.63-1.08 2.05-.18.22.08.61.24.74.08.07.16.11.25.15.57.2.86-.21.87-.22.22-.11.48.27.65.36l.08.02c.05.01.13 0 .2-.02a1.04 1.04 0 0 1 .6.02c.27.1.54.32.79.7.04.08.1.13.2.16.07.02.66.04.77.26.02.05.04.11.05.21-.1-.09-.77.31-1.47.22h-.08a.77.77 0 0 0-.25-.13 1.03 1.03 0 0 0-.97.12.12.12 0 0 1-.09.03h-.02l-.06-.05s-.14-.1-.44-.2c-.26-.09-.58 0-.9.15-.45.28-.6.46-.5.77.17.03.25.03.38.08.45.17.74.41.84.73.12.4.03.91-.06 1.07.1.13.13.26.49.4.2.07.8-.15.99-.46.08-.15.04-.25.06-.32s.17-.2.31-.4c.19-.25.57-.21.9-.17.13.02.28.04.34.02.23-.06.72-.47 1.33-.25.44.58.8.83 1.05.96l.09.04c.3.25.13.4-.01.63-.15.23-.28.28-.11.8s.37.47.6.47l.14-.02a1.43 1.43 0 0 1 1.15-.63c.28 0 .6.07.91.22l.08.01c.12 0 .2-.12.28-.27.1-.17.02-.43-.13-.68-.35-.6-.6-.53-.71-.53h-.04c-.2 0-.25-.17-.28-.29-.05-.15-.1-.32-.34-.44-.15-.07-.24-.22-.37-.34 1.35-.35 1.93.34 2.71.05.01 0 1.13-.34 1.68-.31.98.2 1.36.17 2.69-.02 3.12-.47 4.8.35 4.86.3.36.2.76.66 1.8.42.96-.34.48-.53 1.21-1.8.86-1.49 1.94-1.96 2.93-3.36 1-1.4 1.28-1.5 1.53-2.02"/>
    <path fill="#f6f6f6" d="M95.26 61.68c1.22-.29 1.86.13 1.86.13-.17.6-.29 1.15-1.37 1.2-.58.04-1.02-.32-1.12-.8-.03-.17-.06-.4.08-.46.2 0 .22 0 .55-.07z"/>
    <path d="M100.77 63.18a12.2 12.2 0 0 1 1.87-2.87 8.96 8.96 0 0 1 5.06-2.44c2.35-.43 3.3-1.14 3.3-1.14s-.87.98-1.19 1.75c-.44 1.05-.38 1.69-.33 2.47-1.33.12-2.58.71-3.09 1.96-.14.36-.23.77-.1 1.14a5.17 5.17 0 0 0-2.47.16"/>
    <path d="M96.59 70.5c.4-.01 1.14.08 1.53-.05.44-.12.83.11 1.15-.1.31-.31-.13-.98-.15-1.2.37.06.64.3 1.13.18"/>
    <path class="secondary" d="M129.83 61.48c.74-.09.68-.8 2-.9 0-.07-.9-.94-2.3-.12M102.54 99.4c-.08 1.23.35 1.47.03 2.34 1.4-.65 1.06-2.06 1.06-2.06m19.91-8.78c.39.42 1.08.43 1.65 1.26.34-1.39-.91-1.94-.91-1.94m4.77-13.6c.94.14 1.05-.5 2.2-.04a1.98 1.98 0 0 0-.77-.93 3.08 3.08 0 0 0-1.18-.45m-14.77 27.02c.11.56.7.94.75 1.94 1.01-1 .23-2.12.23-2.12"/>
    <path class="secondary" d="M105.15 77.1c-.56-.1-.95-.68-1.95-.72.98-1.03 2.12-.26 2.12-.26"/>
    <path d="M98.03 87.15c3.44-.72 4.3-1.26 5.8-2.92a6.63 6.63 0 0 0 1.23-7.18c.5-.56.26-.94.26-.94 3.67-.72 6.64-5.2 9.31-7.99a26.18 26.18 0 0 1 15-7.72c.06.23-.03.85.23 1.08-4.33 3.35-3.06 8.6-.31 13.72 0 0-.66.53-.26 1.43-4.01 1.8-7.06 7.73-5.01 13.61 0 0-.45 0-.66.73-6.65 1.87-8.15 7.45-8.1 11.08 0 0-.38-.25-.94.27-3.27-3.8-9.18-3.65-10.9-2.43 0 0-.59-.23-1.13.07-.3-1.42-1.38-4.1-3.5-4.92"/>
    <path fill="none" d="M102.5 89.28a7.22 7.22 0 0 0 2.58-2.16 11.37 11.37 0 0 0 2.6-8.54c-.06-.6.24-1.16.76-1.45a9.75 9.75 0 0 0 3.6-3.6"/>
    <g fill="#000" stroke="none">
      <path d="M72.89 68.19c-.29.47-1.03.68-1.46.28.5-.07.96-.24 1.46-.28zm-3.1 2.26c.24.44-.02 1.02-.44 1.25-.22.13-.3.06-.14-.13.2-.36.43-.72.58-1.12zm2.2 6.63c-.08-.3-.53-.74-.57-.8.28.14.77.41.8.66l-.24.14zm-4.16-6.33a1.96 1.96 0 0 0-2.1-.47c.73-.42 1.72-.2 2.28.4l-.18.07zm7.7-1.4c-.46.33-1.43-.32-1.21-.6.4.2.82.36 1.2.6zm-4.25-2.17c.19-.54.02-1.19-.3-1.65-.15-.2-.64-.57-.16-.24.57.46.79 1.28.64 1.98-.05.03-.13-.07-.18-.09zm3.76.37c.49-.44.7-1.2.53-1.83-.1-.22-.19-.51 0-.12.3.69.13 1.56-.38 2.1-.09.04-.09-.12-.15-.15zm-6.63 10.58A1.8 1.8 0 0 0 70.22 77c.42.15-.42.74-.62.89-.35.24-.77.35-1.2.24z"/>
      <path d="M74.07 114.41c.25.52-.57 1.4-.8 1.12.27-.37.49-.78.8-1.12zm-.67 3.77c.63.05.74 1.38.4 1.32-.1-.45-.22-.9-.4-1.32zm6.15 3.28c-.28-.24-1.49-.08-.63-.28.34-.02.89-.24.63.28zm1.13-2.21c.34.21.76.1 1.11.12.42.4 1 .1 1.42.39.63.08 1.15.3 1.74.49.4.1.78.41 1.23.44.2.15.8.48.15.24-.31-.14-1.27-.25-1.32-.4-.42.17-1.02-.42-1.03-.3-.42.15-1.17-.32-1.18-.3-.6.15-.97-.48-1.35-.36-.28-.03-.58-.08-.77-.32zm10.49 2.01c-.52.25-.78.85-1.08 1.24-.17-.62.4-1.42 1.08-1.24zm-18.93-1.5a1.81 1.81 0 0 0-1.86 1.1c.17-.8 1.04-1.28 1.8-1.34.22-.03.08.15.06.25zm4.55-6.33c-.14.54-1.23.74-1.31.4.44-.12.86-.3 1.3-.4zm-4.59 1.34a1.83 1.83 0 0 0-1.9-.95c.58-.23 1.3.06 1.75.47.1.15.61.45.15.48zm3-2.37c0-.58-.32-1.16-.78-1.53-.17-.12-.72-.34-.2-.16.7.29 1.11 1.03 1.2 1.74-.08 0-.15-.04-.22-.05zm2.5 12.3c.59-.44.8-1.28.57-1.97-.22-.25.3-.28.16.07.09.68-.11 1.55-.73 1.9z"/>
      <path d="M132.16 93.05c-1.54.85-3.11 1.67-4.55 2.7-.08.08-.35.24-.14.04.94-.93 2.11-1.57 3.29-2.15.46-.22.92-.44 1.4-.6zm-4.36 5.1a22.58 22.58 0 0 1 3.13-2.65c-.02.13-.27.23-.37.36-.9.77-1.76 1.6-2.52 2.51l-.24-.22z"/>
      <path d="M88.36 87.7c.38-.19.77-.33 1.18-.4.4-.1.81-.13 1.22-.1a4.23 4.23 0 0 0-2.23.79zm18 22.02c.86.5.94 1.23 1.12 2l-1.12-2zm1.1 2.76c.64.41.57.83.57 1.46-.26-.47-.4-.98-.57-1.46zm.5 2.56c.53.48.38.85.28 1.44-.21-.47-.22-.97-.28-1.44zm1.41 4.28a8.55 8.55 0 0 0 .03-3.55 9.16 9.16 0 0 1 .3 3.6z"/>
      <path d="M68.06 98.76c-.63-.03-1.22.43-1.53.95-.1.2-.19.58-.1.14a2.02 2.02 0 0 1 1.66-1.32c.06.06-.05.16-.04.23zm3.5-6.98c-.05.56-1.1.9-1.23.57.4-.2.8-.43 1.24-.57zm-4.3 2c-.46-.56-1.3-.9-2.03-.63.43-.29 1.07-.17 1.54.04.14.1 1.06.49.5.6zm2.59-2.75c-.1-.75-.72-1.48-1.5-1.59.43-.03.86.25 1.15.55.2.23.71.88.44 1.04h-.1zm4.38 11.72c.49-.52.6-1.4.24-2.01-.2-.23.27-.28.2.07.18.67.07 1.46-.44 1.96z"/>
      <path d="M69.05 93.16c.19 1.46-1.39 2.02 0 0zm-.1 3.83c1.18.39.6 2.16.2.33zm6.6 2.27c-2.53.36.33-.84 0 0zm10.34-2.73c-2.08.06-4.02.66-6.05.42-.56-.27 1.98-.05 2.75-.52 1.1.21 2.22-.23 3.3.1zm8.57 37.85c.23 1.54-1 1.7 0 0zm3.74 3c-.55 1.19-1.27.3 0 0zm-4.58-.25c1.2.9.4 2.42 0 0zm2.6 2.8c1.72-.27 1.83 1.08 0 0zm7.07-2.67c-1.56 2.05-.35-.85 0 0zm-2.29-.28c-2.08-.06.55-.73 0 0zm-12.08-41.1c-.16 1.86-3.54-.05-.98.56.41 0 .76-.24.98-.55zm5-4.66c.69-.63.7-2.96.67-.86-.24.25-.08 1.36-.66.86zm-4.71 1.6c1.52-.75 1.38.62 0 0zm1.63-.7c.83-1.09 1.32.04 0 0zm.77-1.18c.35-1.02.98.06 0 0zm-4.45 26.71c.16 1.04 1.89 2.8.3 1.18-.06-.34-1-1.06-.3-1.18zm-9.5-37.98c1.13.1 1.33 1.67.23.29zm1.96 1.77c.7.55 2.11 2.3.4 1-.16-.32-.11-.74-.4-1zm21.79 52.47c.27-.28.3-.7.37-1.05.36-.27.41-.73.57-1.1.37-.3.32-.82.6-1.14.2-.18.36-.4.4-.67.08-.3.49-.42.54-.76.04-.4.47-.54.6-.89.08-.27.42-.6.6-.66-.19.37-.4.45-.44.82a2.63 2.63 0 0 1-.46.62c.1-.2-.04.3-.07.36-.05.2-.41.57-.45.53.09-.1-.04.32-.1.41-.09.2-.39.52-.47.54.09-.17-.04.35-.09.43-.1.26-.3.47-.5.67.12-.2-.04.35-.1.42-.1.2-.38.5-.48.54.03.04-.08.34-.14.49a.9.9 0 0 1-.38.44zm4.28-8.25a2.43 2.43 0 0 0 .75 1.11c.3.18.17.3-.1.2-.52-.15-.91-.8-.66-1.3zm-.92 15.02c.03-.8-.68-1.44-1.3-1.7.39-.25.95.58 1.16.94a1.4 1.4 0 0 1 .15.76zm-12.06-1.77c-.54-.26-1.15.13-1.56.46-.17.25-.41.52-.13.06.36-.5 1.23-.99 1.75-.7l-.03.08zm4.03 3.04c-.47.38-.52 1.12-.36 1.68.29.7-.29-.32-.19-.6 0-.38.08-1.12.45-1.22l.05.07zm-4.03-6.86c-.36-.43-1-.48-1.53-.42-.3.04-.93.45-.34.06a2.1 2.1 0 0 1 1.9.06c.25.15.11.18-.03.3z"/>
      <path d="M97.16 61.65c.13.06.28.11.42.15s.3.04.44.03.29-.07.4-.15c.1-.1.18-.23.24-.39-.03.16-.08.3-.19.44s-.26.22-.43.27-.33.05-.5.05a2.57 2.57 0 0 1-.49-.08zm-2.47.27-.27-.13a1.57 1.57 0 0 1-.36-.37.5.5 0 0 1-.09-.24c.04.08.09.13.16.18s.13.09.2.12c.14.08.27.1.42.1z"/>
      <path d="M103.86 64.37a2.54 2.54 0 0 0-1.5 1.14c0-.28.3-.62.52-.85a2.8 2.8 0 0 1 .87-.59l.11.3zm-3.6-.1c.06-.4.23-.78.37-1.15l.3.14c-.23.33-.45.66-.63 1.01h-.04zm4.35-1.9c.13-.36.43-.65.77-.82.28-.1-.05.39-.16.5a1.06 1.06 0 0 1-.61.32zm.4.52c.24-.1.57-.22.58-.53.06-.72.59-1.31 1.19-1.67.06.01-.18.3-.25.42-.28.4-.56.83-.66 1.32-.09.4-.5.53-.86.46z"/>
      <path d="M100.08 69.34c0-.26-.09-.73.3-.75.8-.15.21-1.23.37-1.78.01-.41.3-.83.71-.9-.78.46-.42 1.47-.4 2.19.26.52-.62.8-.68.82.03.21 0 .92-.3.42zm-12.85-6.59c.78-.71 1.11 1.1.6 1.02-.02-.4-.03-1.07-.6-1.02zm-.09.45c.56.02.09 1.03-.04.3 0-.1.02-.2.04-.3zm8.16-1.43c-.28.52.65 1.42.57.44.02-.2.02-.4-.02-.6m2.42-.91c-.65.5-1.52-.04-2.26-.05-.51-.16-1.06.17-1.54-.02.72-.28 1.53-.46 2.3-.17.5.08 1.01.44 1.5.24zM96 65.27c.42-.36 1.22.7.45.36-.16-.1-.34-.2-.45-.36zm1.37.85c.8 0-.1.8 0 0zm.54.74c.6-.23.21 1.1.01.35-.03-.12.07-.25-.01-.35zm-9.97-5.2c.37.17.95.82.9.96-.14-.45-1.02-.47-.97-.82l.07-.15zm1.95-.3c.35.17.86.8.99.82-.32-.17-1.15-.32-1.02-.71l.03-.1zm1.87-.33c.45.13.73.53 1.12.75-.07.07-.75-.4-1.11-.43-.17.02 0-.24 0-.32zm4.2 2.8a2.76 2.76 0 0 1 2.51-.44 26.61 26.61 0 0 1-2.52.43zM86 63.06c.4.26.67.85.36 1.27-.02-.45-.23-.85-.36-1.27zm6.34 7.8c-.32-.1-.9-.23-.23-.28.34-.11.23 0 .23.28zm-2.3 0c-.36-.04-.83.54-.9-.03.3-.07.6-.03.9.03zm.76-7.28c1.27-.43 2.9-.16 3.7.99a6.86 6.86 0 0 0-3.7-.99z"/>
      <polygon points="83.62 67.11 82.99 66.47 83.81 66.83"/>
      <polygon points="82.37 67.57 81.81 66.81 82.6 67.34"/>
      <path d="M102.22 63.53c.15-.66.54-1.32 1.19-1.58.11-.05.47-.14.46-.06-.15.21-.13-.02-.11-.17a1.5 1.5 0 0 1 1.15-1.3c.26-.12.1.06.07.03.25-.6.92-.9 1.54-.87.15-.02.39.05.15.08a2 2 0 0 1 .64-.73 2.63 2.63 0 0 1 .96-.37c-.54.22-1.09.54-1.32 1.1-.03.1-.08.26-.2.2a1.59 1.59 0 0 0-1.26.44c-.16.2-.24.48-.56.46-.53.15-.9.69-.88 1.24-.05.27-.4.07-.57.2-.6.22-.98.79-1.26 1.34z"/>
      <path d="M94.67 88.28c.16-.25.41-.45.69-.59s.56-.24.86-.33.59-.14.89-.2c.3-.06.6-.1.89-.17l.06.32c-.31.04-.61.05-.9.08s-.6.07-.9.12-.58.14-.86.25c-.27.12-.55.28-.73.52z"/>
      <path d="M98.99 95.18c-.25-.1-.53-.17-.8-.24s-.57-.11-.85-.15a5.76 5.76 0 0 0-1.74-.01 5.71 5.71 0 0 1 1.75-.15 7.92 7.92 0 0 1 1.76.26l-.12.3z"/>
      <path d="M97.28 91.56a2.8 2.8 0 0 0 .98-.54 2.15 2.15 0 0 0 .58-.9c.03-.06.08-.1.15-.1a4.87 4.87 0 0 0 1.77-.2c.28-.08.57-.18.86-.3.27-.1.55-.23.79-.39l.18.28a5.57 5.57 0 0 1-1.75.71c-.31.08-.62.13-.93.17a4.62 4.62 0 0 1-.95 0l.14-.1c-.08.22-.18.38-.29.56-.12.16-.25.32-.42.45-.15.13-.34.23-.52.3-.2.06-.4.1-.59.1v-.04zm14.63-18.13a47.45 47.45 0 0 1 3.05-3.92c1.1-1.25 2.3-2.41 3.63-3.41s2.78-1.84 4.3-2.5c.37-.19.77-.32 1.16-.47.2-.08.38-.16.58-.22l.6-.19c.39-.12.78-.25 1.18-.35l1.21-.29.01.04c-.78.25-1.58.47-2.35.77l-.59.2-.57.24-.57.23-.29.12-.27.13c-1.5.68-2.92 1.52-4.21 2.52-1.32 1-2.5 2.16-3.58 3.4a52.54 52.54 0 0 0-3.02 3.9l-.27-.2z"/>
      <path d="M128.16 75.26a48.88 48.88 0 0 0-12.5-1.62c-.53-.04-2.9.21-1.38-.02 4.2-.51 8.53-.04 12.58 1.17.44.14.88.3 1.3.47zm-.13.96a56.61 56.61 0 0 0-14.68-.75c-.65.06-1.78.23-.5-.01 4.54-.78 9.23-.55 13.73.36.49.11.97.25 1.45.4zm-18.75 4.45c4.58 1.01 8.6 3.69 12.1 6.72.6.51 2.12 2.03 2.08 2.1-3.28-2.99-6.92-5.65-10.94-7.57a20.8 20.8 0 0 0-3.24-1.25zm-.52 1.8c3.68.53 6.9 2.6 9.95 4.6a65.5 65.5 0 0 1 4.3 3.24c-4.25-2.8-8.4-5.95-13.26-7.58a10.15 10.15 0 0 0-1-.25zm-1.23 3.2c2.82 3.3 4.74 7.27 6.27 11.32.52 1.38 1 2.79 1.3 4.24a68.6 68.6 0 0 0-4.57-10.72 33.46 33.46 0 0 0-3-4.84zm-.9 1.38c2.3 2.46 3.82 5.53 5.34 8.5.91 1.94 1.83 3.9 2.37 5.98a89.7 89.7 0 0 0-4.81-9.94c-.9-1.55-1.74-3.17-2.9-4.54zm-2.87 2.53c.78 2.8.68 5.79.15 8.62-.1.52-.32 1.27-.16.28.26-2.95.39-5.95.01-8.9zm-1.24 1.01c.81 2.69.7 5.57.26 8.31 0-2.77.1-5.55-.26-8.3z"/>
    </g>
  </g>
</svg>
