<svg xmlns="http://www.w3.org/2000/svg" fill="#d7374a" stroke="#000" viewBox="50 50 200 200">
  <metadata author="Spedona" source="https://commons.wikimedia.org/wiki/File:H%C3%A9raldique_meuble_Drakkar.svg" license="https://creativecommons.org/licenses/by-sa/3.0"/>
  <g id="drakkar" stroke-width=".309">
    <g fill="none">
      <path d="m135.57 113.197-33.918-34.335 29.34 35.583"/>
      <path d="m101.86 78.863 36.415 32.045"/>
    </g>
    <g>
      <g class="tertiary">
        <path d="M100.82 75.108c-3.467-1.672-6.59-.903-9.885-.937l2.65-3.316c.82-1.109 5.051-1.182 7.443 1.028l-.208 3.224z"/>
        <path d="m90.83 73.548 2.84-2.761c-.908 1.916 3.482 2.912 2.498 4.16l-2.736 3.074c.677-1.343-3.477-2.758-2.602-4.474z"/>
        <path d="m93.653 77.946 2.259-2.578c-1.282 1.669-9.659-1.332-10.418 2.137v1.978c1.375-2.412 7.45-.66 8.159-1.537z"/>
      </g>
      <g>
        <path stroke-width=".412" d="M100.507 71.142h1.506l1.178 57.199h-3.654l.97-57.199z"/>
        <path stroke-linecap="round" d="M100.725 71.683a1.545 1.545 0 1 1 .053.023"/>
      </g>
      <path class="secondary" d="M79.998 84.108c.726 1.624 2.132 3.456.884 4.34-7.214 4.67-6.151 18.61.073 21.998l3.017 2.354c1.148.053 1.868.336 2.824 3.09h1.148c-.41-1.453-.988-1.93-.662-5.223-.787.095-1.9-2.053-2.87-2.796 1.026 1.14 2.207 2.744 2.87 2.796 3.301 1.02 3.44.938 6.033-.81-1.52-.76-2.67-1.864-3.017-3.016.606 1.539 1.844 2.235 3.017 3.017 2.971.584 6.198 1.5 7.283-.368-2.712-1.702-2.472-2.025-3.898-3.458 1.303 1.675 2.514 2.705 3.898 3.531 3.003 1.38 5.016 1.22 6.254-.147-1.84-.494-2.69-1.694-3.164-3.163.793 1.95 1.71 2.73 3.164 3.237 3.148 1.539 4.962 1.363 6.768 1.177l.737-.367c-2.101-.892-3.163-2.377-3.9-4.048 1.094 1.858 1.72 3.126 3.826 4.12 2.159.919 4.994 2.214 7.284 1.473-1.564-.966-2.349-2.122-3.532-3.605.917 1.67 4.185 4.55 4.562 4.12.6.154 1.167.168 2.147 1.838 0 0 1.384.148 1.089-.515-1.384-2.128-2.822-4.247-4.138-6.389-4.792-7.8-5.644-20.765-1.085-26.056 2.315-2.688 2.362-2.564 2.648-2.795.783-.628 1.61-3.945 1.251-3.826l.294-.736h-1.03s-.073 1.95-1.103 3.384c-1.201 1.383-3.28 3.214-5.297 2.28-.22-.367-1.546-3.972-1.546-3.972s-.81-.367-.81 0 .885 3.054.663 3.385c-.793 1.19-2.28 1.618-2.428 2.06-2.759 3.89-3.619 7.461-4.045 10.962.393-3.503 1.245-7.045 3.972-10.742-1.343.476-2.606.381-3.752-.515-.66-.792-.546-2.165-.442-3.53 0 0-1.457.032-1.177.147.293.118.927 2.819.221 3.383-3.239 4.108-4.526 7.57-5.311 12.17.645-2.965 1.562-6.636 4.06-10.477-1.398.496-2.648 1.223-4.046.589-.546.522-1.054-1.025-1.207-4.18l-.97.295s.025 1.954-.103 3.296c-.13 1.343-1.03 2.28-1.03 2.28-3.245 3.51-3.742 5.706-4.415 10.374.165-4.48 1.758-6.939 4.193-10.374.147-.368.295-.146.295-.146-1.788.523-4.096.106-4.562-1.104.058-1.12.443-2.771.221-2.796h-1.03c.129.13.059 3.59 0 3.826-.072.285-1.324 1.765-1.324 1.765-4.211 3.678-3.76 6.838-4.708 10.154.914-3.324.517-6.648 4.708-10.154-1.576.05-3.24.873-4.635-.515l-.148-3.678h-1.03l.148 3.752-.588 1.47c-3.692 3.5-3.373 5.71-5.52 10.448 1.989-5.82 3.629-8.858 5.445-10.593-1.583.096-3.147.725-4.193-.074l-1.397-3.385-.884.442z"/>
      <path d="M65.64 95.732c-2.939-.088-3.809-2.679-2.835-4.84.975-2.16 5.988-3.537 8.556-.47 2.57 3.066 1.942 6.146-2.398 12.814-6.407 7.663-5.328 15.962 1.72 22.678 2.012 1.757 5.43 3.66 7.5 5.143-5.926-2.18-12.576-5.38-16.136-10.9-3.983-7.834-2.07-14.703 4.367-20.831 1.4-1.786 3.261-4.094 2.035-6.603-1.227-2.51-6.09-.04-2.81 1.34 1.58-1.865 2.94 1.757 0 1.668z"/>
      <g>
        <path d="m76.258 84.079 52.59-12.258.378 1.622L76.636 85.7z"/>
        <path stroke-linecap="round" d="M75.4 86.249a1.545 1.545 0 1 1 .054.024"/>
        <path stroke-linecap="round" d="M128.047 74.076a1.545 1.545 0 1 1 .053.023"/>
      </g>
      <path d="M125.452 127.931c7.203-5.039 10.369-7.883 10.902-13.365.364-3.746-2.633-4.572-3.462-6.469-1.006-4.942-.386-11.335 3.61-14.867.786-.33 1.765 0 2.648 0-.041.496.08 1.48-.057 1.93-3.115-.12-3.86 5.478-3.735 9.906.167 2.722 2.518 1.854 4.06 3.597 3.144 8.508-4.456 18.163-13.966 19.268z"/>
      <g>
        <g>
          <path d="M64.838 110.335c0-.458 4.722 2.822 15.185 4.666 10.463 1.844 32.713 3.516 49.305-1.829 3.88-1.25 6.077-2.325 6.077-2.325 2.032 2.046 1.13 3.945.79 5.992-.646 3.893-4.534 7.364-9.364 10.404-5.074 3.193-45.712 5.358-49.526 3.33-3.813-2.03-11.03-5.895-12.902-15.816-.348-1.846-.3-2.818.435-4.423z"/>
          <g fill="none">
            <path d="M64.195 113.301c7.986 2.799 14.548 4.825 24.243 5.827 9.582.989 18.31.59 27.156-.312 8.802-.9 14.063-2.586 20.948-5.092"/>
            <path d="M64.416 115.262c7.986 2.798 14.327 4.678 24.022 5.68 9.582.988 18.31.59 27.156-.313 8.714-.89 13.956-2.55 20.739-5.016"/>
            <path d="M65.07 117.196c7.643 2.66 14.09 4.59 23.472 5.558 9.582.99 18.31.591 27.156-.312 8.52-.87 13.722-2.478 20.29-4.852"/>
            <path d="M65.794 119.225c7.375 2.549 13.725 4.4 22.852 5.343 9.582.989 18.31.591 27.156-.312 7.986-.817 13.058-2.28 19.072-4.417"/>
            <path d="M66.844 121.364c6.981 2.38 13.172 4.116 21.906 5.017 9.582.989 18.31.591 27.156-.312 7.143-.73 11.953-1.978 17.192-3.76"/>
            <path d="M68.286 123.663c6.409 2.132 12.335 3.692 20.464 4.532 9.582.989 18.31.591 27.156-.312 5.626-.575 9.805-1.471 13.885-2.698"/>
            <path d="M70.727 126.266c5.52 1.73 10.935 3.083 18.023 3.816 5.781.597 11.253.689 16.625.468"/>
            <path d="M75.072 129.343a83.84 83.84 0 0 0 9.638 1.978"/>
          </g>
        </g>
        <path stroke-width=".288" d="M64.912 109.443c3.673 1.855 8.433 3.255 13.751 4.365 14.504 3.026 31.463 3.128 43.559.397 5.266-1.19 10.004-2.335 13.547-4.12 1.07.443 1.245 1.004 1.203 1.934-4.591 1.572-9.515 3.12-14.617 4.062-14.251 2.634-29.942 2.708-44-.326-5.03-1.084-9.85-2.567-14.319-4.473-.264-.613.028-1.226.876-1.84z"/>
      </g>
      <g class="tertiary" stroke-width=".288" stroke-linecap="round">
        <path d="M76.156 122.358a3.909 5.835 0 1 1 .137.089m1.808-2.22a2.34 3.493 0 1 1 .082.053m1.547-1.844a1.022 1.525 0 1 1 .036.024"/>
        <path d="M84.011 123.71a3.909 5.835 0 1 1 .138.09m1.808-2.22a2.34 3.493 0 1 1 .082.053m1.547-1.844a1.022 1.525 0 1 1 .036.023"/>
        <path d="M91.866 124.439a3.909 5.835 0 1 1 .137.089m1.808-2.22a2.34 3.493 0 1 1 .083.053m1.547-1.844a1.022 1.525 0 1 1 .035.023"/>
        <path d="M99.722 124.959a3.909 5.835 0 1 1 .137.089m1.808-2.22a2.34 3.493 0 1 1 .083.053m1.547-1.844a1.022 1.525 0 1 1 .035.023"/>
        <path d="M107.578 124.23a3.909 5.835 0 1 1 .137.09m1.807-2.22a2.34 3.493 0 1 1 .082.053m1.548-1.844a1.022 1.525 0 1 1 .036.023"/>
        <path d="M115.432 123.815a3.909 5.835 0 1 1 .138.089m1.808-2.22a2.34 3.493 0 1 1 .082.053m1.547-1.844a1.022 1.525 0 1 1 .036.023"/>
        <path d="M123.288 122.567a3.909 5.835 0 1 1 .138.09m1.808-2.222a2.34 3.493 0 1 1 .082.053m1.547-1.844a1.022 1.525 0 1 1 .036.023"/>
      </g>
    </g>
  </g>
</svg>
