<svg xmlns="http://www.w3.org/2000/svg" fill="#d7374a" stroke="#000" viewBox="50 50 200 200">
  <metadata source="http://wappenwiki.org/images/1/10/FW205_Bradley.svg" license="https://creativecommons.org/licenses/by-nc-sa/3.0"/>
  <g id="duck" stroke-width=".52">
    <g>
      <g>
        <path class="tertiary" stroke-linejoin="round" d="M78.29 71.35c-.55 0-1.33 0-2.24.05l-1.48.1-.78.11-.83.13c-1.12.21-1.67.5-2.89.76-.62.13-1.22.26-1.84.33l-.47.06-.47.05-.96.02a7.62 7.62 0 0 1-4.4-1.56l-.39-.36-.28-.36c-.08-.1-.21-.32-.24-.5-.13-.44-.07-.67-.07-.67l.15.15.21.18.26.21.34.24.2.1.24.13a7.3 7.3 0 0 0 2.44.75c.5.06 1.02.13 1.56.16l.84.03h.88c.6-.03 1.2-.08 1.8-.19l1.81-.26c.6-.1.55-.18 1.15-.23l.88-.08.83-.02 1.54.02c.93.03 1.71.1 2.26.13"/>
        <g>
          <g>
            <path class="secondary" stroke-linejoin="round" d="M99.97 119.63a60.53 60.53 0 0 0-7.02 6.27 1.82 1.82 0 0 0 .21 1.4 6.04 6.04 0 0 0 1.77 1.64c.2.1.6.6.57 1.1-.03.6-.47 1.11-.47 1.11s-.36-.93-.93-1.35a6.53 6.53 0 0 0-1.75-.8c-1.01-.27-2.7.36-4.57 1.4a13.73 13.73 0 0 0-4.14 3.38c-.75.9-.96 1.82-1.06 1.82-.1 0-.91-1.12-.13-2.42 0-1.07-.05-1.38-.91-2.29a3.9 3.9 0 0 0-3.43-1.04c-1.07.13-1.8 1.07-1.85.99-.05-.05-.2-.8.18-1.5.37-.6.99-.63 1.25-.79.2-.02 2.34-1.32 3.15-2.36.3-.4.46-1 .15-1.36-.44-.62-1.45-.72-2.18-.57.02-.15.47-.67.99-.96.62-.31 1.37.03 1.37.03s2.6.67 5.62 1.22c2.83.67 5.33-1.35 5.33-1.35s.2-.4.68-.68l.52-.31s.23-.4.54-.68c.31-.28.65-.44.65-.44s.24-.42.55-.7c.23-.24.57-.37.57-.37s1.46-1.32 1.59-1.56"/>
            <g stroke="none" fill="#000">
              <path d="m94.93 129.28-.16-.03h-.15c-.1.03-.21.06-.26.13h-.08c-.03-.13.05-.28.13-.41l.13-.18.18-.16.2.65zm-13.5-5.98-.05.23-.08.24c-.05.15-.13.31-.23.41l-.05-.02c.02-.13-.03-.26-.05-.42l-.08-.2-.08-.19.62-.05zm-3.53 5.04.15.29.08.29c.03.18.03.36-.02.52h-.08c-.05-.16-.16-.29-.24-.4l-.15-.12-.16-.08.42-.5zm4.37 4.68.2.03.16.05.23.16c.16.1.26.23.34.39l-.05.05c-.16-.05-.31-.1-.44-.1l-.21.02-.08.03-.02.02-.13-.65zm.75-.65c.23-.46.6-.88.99-1.24a10.92 10.92 0 0 1 1.3-.94l.6-.44c.18-.16.3-.34.36-.5v-.18l-.1-.1-.26-.08-.37-.03a20.51 20.51 0 0 0-3.1.03c-.51.05-1.03.08-1.53.16-.52.07-1.01.15-1.5.33l-.06-.07a5.2 5.2 0 0 1 1.49-.6 16.56 16.56 0 0 1 4.75-.44l.42.05.47.15a.78.78 0 0 1 .39.47c.08.21.02.42-.03.57-.05.16-.15.32-.26.42l-.31.31a5.2 5.2 0 0 1-.7.44c-.47.26-.94.47-1.35.76-.45.23-.84.57-1.2.93zm-3.87-4c.78-.5 1.69-.75 2.57-.94l1.33-.26c.44-.07.88-.15 1.24-.3.19-.09.37-.16.5-.27s.18-.23.2-.36l-.02-.08-.18-.13a2.66 2.66 0 0 0-.6-.2c-.86-.24-1.8-.45-2.57-.97l.05-.08c.86.29 1.74.37 2.62.52.24.05.47.08.7.18.14.06.27.13.4.26s.2.37.18.55l.05.13-.03.1-.07.21-.29.37a2.08 2.08 0 0 1-.7.39c-.94.3-1.85.33-2.73.44-.89.1-1.77.2-2.65.44zm9.2-2.5a4.89 4.89 0 0 0 1.82-1.11c.26-.24.5-.52.7-.81l.34-.44c.13-.16.26-.31.44-.44l.34.54c-.23.13-.5.42-.75.65-.26.26-.55.52-.86.76a5.1 5.1 0 0 1-2.06.9l.03-.05zm8.14-5.14c-.16-.1-.34-.21-.52-.26l-.26-.08-.26-.05.23-.6.26.2.24.24.36.52-.05.03zm-2.03.02c.16.03.23.08.34.16l.26.2a1.3 1.3 0 0 1 .34.53l-.06.02c-.15-.13-.3-.2-.46-.26l-.24-.02-.2.02.02-.65zm-1.17 1.12.31.13.26.18c.16.13.29.31.37.5l-.06.02a1.3 1.3 0 0 0-.46-.23l-.26-.03-.24.03.08-.6zm-1.14 1.07c.15.05.23.13.3.2l.24.24c.13.18.26.36.31.54l-.05.03a1.98 1.98 0 0 0-.5-.31l-.25-.08-.24-.03.19-.6z"/>
            </g>
          </g>
          <path stroke-linejoin="round" d="M105.48 114.4c-.78 3.28-4.03 4.69-5.72 5.75-.67.37-.78-.65-1.9-.72-.75-.06-1.09.07-1.5-.19-1.43-.9-.37-2.78-1.2-4.73"/>
        </g>
        <g>
          <g>
            <path class="secondary" stroke-linejoin="round" d="M108.76 133.23a6.37 6.37 0 0 1-1.77-1.64 1.85 1.85 0 0 1-.2-1.4c.3-1.4 3.4-7.05 3.79-7.54l-3.15.16c-.05.26-.3.96-.3.96s-.27.26-.4.54c-.15.37-.23.86-.23.86s-.24.26-.42.68c-.18.39-.26.83-.26.83l-.36.5c-.34.44-.37.88-.37.88s-1.66 1.45-4.5.8c-3.01-.54-5.61-1.22-5.61-1.22s-.75-.34-1.38-.02c-.54.26-.96.78-.99.96.7-.16 1.75-.05 2.19.57.28.36.13.96-.16 1.35a11.05 11.05 0 0 1-3.14 2.37c-.26.15-.89.18-1.25.78a1.98 1.98 0 0 0-.18 1.5c.05.06.78-.85 1.84-.98 1.2-.13 2.5.05 3.43 1.04.86.88.91 1.22.91 2.29-.78 1.3.03 2.41.13 2.41s.32-.9 1.07-1.82a13.73 13.73 0 0 1 4.13-3.38c1.88-1.04 3.57-1.66 4.58-1.4.39.1 1.35.5 1.74.8.57.42.94 1.36.94 1.36s.44-.52.47-1.12c.07-.52-.34-1.01-.55-1.12z"/>
            <g stroke="none" fill="#000">
              <path d="M108.32 123.92c-.21-.05-.4-.02-.57 0l-.29.08a2.08 2.08 0 0 0-.23.1l-.16-.62.36.03c.1.02.24.02.34.08a1.82 1.82 0 0 1 .6.28l-.05.05zm-1.93.97h.4c.12 0 .23.02.36.07.23.06.44.19.6.34l-.03.05c-.2-.05-.39-.07-.57-.02l-.26.08-.24.13-.26-.65zm-.67 1.48h.36l.34.05c.23.05.44.16.6.31l-.03.05a1.07 1.07 0 0 0-.57-.02l-.26.08-.23.13-.21-.6zm-.65 1.4c.15 0 .26.03.36.08l.31.13c.21.1.37.23.52.39l-.02.05c-.18-.05-.4-.1-.57-.1a.78.78 0 0 0-.26.02l-.21.08-.13-.65zm3.72 5.8-.16-.03h-.16c-.1.03-.2.06-.26.13h-.07c-.03-.13.05-.28.13-.41l.13-.18.18-.16.2.65zm-13.5-5.98-.05.23-.08.24c-.05.15-.13.31-.23.41l-.05-.02c.02-.13-.03-.26-.06-.42l-.07-.2-.08-.19.62-.05zm-3.53 5.04.15.29.08.29c.03.18.03.36-.03.52h-.07c-.06-.16-.16-.29-.24-.4l-.15-.12-.16-.08.42-.5zm4.36 4.68.21.03.16.05.23.16c.16.1.26.23.34.39l-.05.05c-.16-.05-.31-.1-.44-.1l-.21.02-.08.03-.03.02-.13-.65zm.73-.65c.24-.46.6-.88.99-1.24a10.92 10.92 0 0 1 1.3-.94l.6-.44c.18-.16.31-.34.36-.5v-.18l-.1-.1-.26-.08-.37-.03a20.51 20.51 0 0 0-3.09.03c-.52.05-1.04.08-1.53.16-.52.07-1.02.15-1.51.33l-.05-.07a5.2 5.2 0 0 1 1.48-.6 16.56 16.56 0 0 1 4.76-.44l.41.05.47.15a.78.78 0 0 1 .39.47c.08.21.03.42-.03.57-.05.16-.15.32-.26.42l-.3.31a5.2 5.2 0 0 1-.71.44c-.47.26-.94.47-1.35.76a6.5 6.5 0 0 0-1.2.93zm-3.85-4c.78-.5 1.7-.75 2.58-.94l1.32-.26c.45-.07.89-.15 1.25-.3.18-.09.37-.16.5-.27s.18-.23.2-.36l-.02-.08-.18-.13a2.66 2.66 0 0 0-.6-.2c-.86-.24-1.8-.45-2.58-.97l.06-.08c.85.29 1.74.37 2.62.52.24.05.47.08.7.18.13.06.26.13.4.26s.2.37.18.55l-.03.13-.03.1-.07.21-.29.37a2.08 2.08 0 0 1-.7.39c-.94.3-1.85.33-2.73.44-.8.1-1.7.2-2.58.44z"/>
              <path d="M102.47 130.4c.28-.1.57-.24.8-.4.26-.15.47-.33.65-.56.19-.24.32-.47.45-.76l.2-.44c.08-.16.21-.31.4-.44l.33.54c-.08.03-.15.1-.23.21l-.26.37c-.18.26-.37.52-.63.75-.23.23-.52.39-.8.52s-.6.2-.89.26l-.02-.05z"/>
            </g>
          </g>
          <path stroke-linejoin="round" d="M138.84 100.47c-.26-.47-.88.37-1.69.55 0 0-2.75 1.12-6.34.73-1.22-.16-1.7-.52-2.76-1h.16a8.27 8.27 0 0 0 4.6-3.68c.91-.4 1.43-1.95.91-2.66-.03-.2-1.64.13-4.08.34-.08-.67-3.1.26-4.03.24-.05-.52-2.4-.06-3.77-.24-.13-.78-2.32-.31-3.62-.7-.15-.6-2.44-.6-4.05-1.25l-.76-.39A41.34 41.34 0 0 0 90.82 88c-3.22.24-5.95.5-4.78-.9 1.24-1.6 5.35-5.44 7.7-10.67 1.27-2.73 2.38-8.68-.48-12.24 0 0-1.48-2.89-5.66-3.72-6.11-1.22-8.61 1.35-9.36 2.2-.76.84-3.18 2.45-2.66 2.45s.52-.13 1.12.05c1.04.32.7 1.38 1.17 1.85.47.47 1.72 1.33 1.04 3.4-.39.94-.86 1.25-1.2 2 .21.87 2.4.9 2.4.9s2.05 1.34 5.48 1.27c0 3.61-7.28 8.68-10.5 12.74-3.38 4.44-5.17 8.19-4.32 12.71 1.43 7.6 6.58 11.67 13.81 13.44a69.78 69.78 0 0 0 18.8 1.77c1.56.62 2.57 1.01 2.8 1.59.81 1.95-.44 5.1 1 6 .41.26.75.13 1.5.18 1.15.1 1.25 1.12 1.9.73 1.33-.83 6.08-6.89 6.5-8.55.16-.68.05-1.15-.2-1.54 3.71-.57 6.5-3.12 11.33-5.27 0 0 5.04-.42 8.19-3.49 2-1.9 2.7-3.95 2.44-4.42z"/>
        </g>
        <g>
          <path class="secondary" stroke-linejoin="round" d="M77.85 67.06c-.47-.47-.13-1.53-1.17-1.84-.47-.16-.58-.1-.84-.08l-.9.54-3.13 1.23c-.52.18-2.5.75-3.43.85l-1.53.26c-.99.19-1.54.19-1.87.45-.32.26-.73.54-.68.96 0 0 .13.26 1.33.41 1.66.16 2.54-.1 4.18-.13 1.8-.02 1.95.7 3.67.76 1.9.05 2.73-1.3 4.21.73-1.46.46-2.89.49-5.02 1.06a33.73 33.73 0 0 0-5.72 2.32c-.15.07-.05.6.55.54.47-.05.88-.23 1.3-.41.6-.29 2.88-1.02 3.33-1.17a12.48 12.48 0 0 1 2.65-.55c1.45-.1 2.94-.47 2.94-.47.3-.78.78-1.06 1.2-2 .64-2.16-.6-3.02-1.07-3.46z"/>
          <path fill="#F6F6F6" stroke-linejoin="round" d="M81.75 64.12c.57.1.75.78.65 1.36-.1.57-.68.88-1.23.78-.28-.06-.62-.21-.75-.42-.26-.39-.23-.7-.08-1.3.08-.29.86-.52 1.4-.42z"/>
          <path stroke="none" fill="#000" d="M81.56 65.11c.03.4-.1.73-.33.76-.24.02-.45-.26-.5-.68-.02-.39.1-.73.34-.75.29 0 .42-.08.5.67z"/>
        </g>
      </g>
    </g>
    <g stroke="none" fill="#000">
      <path d="M86.43 65.37a.68.68 0 0 1 .28-.31c.1-.08.24-.1.34-.13.13 0 .23 0 .36.05a.8.8 0 0 1 .34.26c-.13.13-.23.18-.34.24l-.3.07-.32-.02a.62.62 0 0 1-.36-.16zm1.82.57a.7.7 0 0 1 .33-.28.68.68 0 0 1 .4-.05c.12 0 .25.05.36.13.1.07.2.18.28.33a.94.94 0 0 1-.39.16l-.3.03-.32-.08c-.1-.05-.23-.1-.36-.24zm1.43 1.17c.15-.1.33-.13.49-.1a1.04 1.04 0 0 1 .47.18.88.88 0 0 1 .31.91l-.42-.18-.28-.18-.26-.24-.31-.39zm-9.05 1.46-.05.62-.1.55-.16.52c-.08.18-.13.36-.26.57a1.11 1.11 0 0 1-.26-.62c-.03-.21-.03-.44.05-.65.05-.21.15-.42.28-.57.1-.19.29-.34.5-.42zm6.26 5.72a9.49 9.49 0 0 0 2.47-.88 9.41 9.41 0 0 0 2.08-1.59 2.86 2.86 0 0 1-.65 1.25 4.19 4.19 0 0 1-1.11.9 3.59 3.59 0 0 1-2.79.32zm-4.65-8.27c-.03-.18.05-.31.13-.44.08-.1.2-.2.31-.26.13-.05.26-.08.42-.05.13.02.28.08.39.2l-.29.3a.7.7 0 0 1-.26.15l-.28.08-.42.02zm-2.52-2.5c.31.11.57.11.86.08a8.14 8.14 0 0 0 1.63-.33c.32-.06.63-.1.97-.03l-.78.5c-.26.15-.55.28-.86.36-.31.08-.68.1-1.02.02-.33-.1-.65-.28-.8-.6zm-4.86 4.17a1.07 1.07 0 0 1 1.27-.84c.08.03.18.06.29.16l.13.2.02.19a.62.62 0 0 1-.28.47.84.84 0 0 1-.78.05c.2-.16.39-.31.44-.44l.02-.1v.02l.03.05c.03.03 0 0 0 0h-.47l-.67.24zm-1.82.1c.05-.26.23-.47.44-.62a2.34 2.34 0 0 1 .67-.34l.65-.16c.21-.02.42-.05.65-.15-.02.26-.23.49-.46.62-.21.13-.45.23-.65.29l-.63.18-.67.18zM93.2 111.6l1.33.7 1.32.63 1.36.6c.44.2.9.41 1.35.67-.52 0-1.02-.08-1.51-.2a7.3 7.3 0 0 1-2.8-1.26c-.4-.3-.79-.7-1.05-1.14zm6.84 1.5c.55.4 1.07.81 1.64 1.13.57.3 1.17.54 1.8.72.17.06.28.24.23.4s-.24.28-.4.23l-.05-.03a7.46 7.46 0 0 1-1.74-1.06c-.57-.42-1.01-.91-1.48-1.38zm9.46 2.76a1.3 1.3 0 0 1 .76-.18 1.95 1.95 0 0 1 1.35.76c.16.2.26.46.26.75l-.62-.39-.55-.31-.57-.31-.63-.32zm3.8-4.55a4.68 4.68 0 0 0 .96.47l1.02.4a5.28 5.28 0 0 1 1.84 1.32c.1.13.1.34-.05.47-.13.1-.34.1-.47-.06l-.02-.05a4.2 4.2 0 0 0-1.46-1.4l-.94-.52c-.28-.18-.6-.37-.88-.63zm-14.3-17.5.42-.36.39-.23.41-.18.52-.13a1.04 1.04 0 0 1-.62.88c-.16.08-.34.13-.52.16-.21 0-.4-.03-.6-.13zm.6-1.55a2.34 2.34 0 0 0 .34-.6l.28-.6a2.08 2.08 0 0 1 .5-.57c.2-.16.52-.29.78-.18-.21.18-.29.36-.4.54l-.3.55c-.11.2-.27.41-.47.57a.92.92 0 0 1-.73.29zm-9.96 1.32.75.13a27.43 27.43 0 0 1 1.38.34c.24.08.47.16.73.31-.26.13-.52.18-.78.21s-.52 0-.78-.05a1.82 1.82 0 0 1-.73-.31 1.63 1.63 0 0 1-.57-.63zM87.8 96l.84.16.78.15.78.18c.26.08.54.16.8.32a2.6 2.6 0 0 1-.86.2c-.28.03-.57 0-.88-.05a2.55 2.55 0 0 1-.83-.34 2.03 2.03 0 0 1-.63-.62zm-2.54 2.37 1.35.44 1.32.31c.45.08.89.16 1.36.18.46.03.9.08 1.4 0a2.44 2.44 0 0 1-1.38.52c-.5.05-.99.03-1.48-.05a5.3 5.3 0 0 1-1.4-.5 3.64 3.64 0 0 1-1.17-.9z"/>
    </g>
    <path fill="none" stroke-linecap="round" stroke-linejoin="round" d="M83.9 100.97a6.1 6.1 0 0 0 3.12 2.31"/>
    <g stroke="none" fill="#000">
      <path d="m92.95 103.77.91-.05.86-.05h.88c.29 0 .6.03.91.1a3.28 3.28 0 0 1-2.7.47c-.31-.1-.62-.2-.86-.47zm-2.26-.46a4.94 4.94 0 0 0 3.15-.81c.28-.2.49-.47.54-.7.03-.18.21-.29.37-.26.18.02.28.2.26.36l-.03.05c-.18.5-.55.78-.91.97a5.72 5.72 0 0 1-2.26.52c-.37.02-.76 0-1.12-.13z"/>
    </g>
    <path fill="none" stroke-linecap="round" stroke-linejoin="round" d="M92.15 101.77c.72.44 2.15.31 2.54.13"/>
    <g stroke="none" fill="#000">
      <path d="M92.33 101.49c.13.1.31.2.5.26.17.07.38.1.59.15l.62.05c.21 0 .45 0 .65-.05-.18.1-.41.16-.62.21a5.25 5.25 0 0 1-1.38.1 2.71 2.71 0 0 1-.73-.18h-.02c-.16-.08-.24-.28-.16-.44.08-.16.29-.23.44-.16l.1.06zm4.29-.81a4.42 4.42 0 0 0 1.56.36 6 6 0 0 0 1.66-.13 6.06 6.06 0 0 1-3.46.37c-.18-.05-.28-.21-.23-.4.05-.17.2-.28.39-.23l.08.03zm1.84-.68c.24.03.5 0 .73-.02l.73-.1 1.46-.27c.18-.02.33.08.39.26a.34.34 0 0 1-.26.4h-.08l-1.51-.06-.75-.05-.7-.16zm.81-1.87c.86.37 1.87.44 2.86.37-.5.13-.99.23-1.48.28-.52.05-1.04.05-1.56-.05-.18-.03-.29-.2-.26-.39s.2-.29.39-.26l.05.05zM100.8 97h.76l.75-.05c.5-.06.96-.19 1.43-.34.18-.05.37.02.42.2.05.19-.03.37-.21.42l-.08.03c-.52.05-1.06.08-1.58.02l-.76-.1-.73-.18zm.37-1.64c1.01.31 2.18.31 3.27.05-1.04.44-2.2.7-3.4.57-.18-.02-.31-.18-.29-.36.03-.18.18-.31.37-.29l.05.03z"/>
    </g>
    <path fill="none" stroke-linecap="round" stroke-linejoin="round" d="M103.01 93.58c.68.08 1.88-.36 2.6.05"/>
    <g stroke="none" fill="#000">
      <path d="M95.89 102.42a8.45 8.45 0 0 0 2.76-.2c.18-.06.36.05.41.2a.34.34 0 0 1-.2.42l-.08.02c-.52.06-1.02 0-1.49-.07a6.56 6.56 0 0 1-1.4-.37zm35.57 2.29c.62.03 1.17-.2 1.66-.55.5-.33.89-.8 1.28-1.3a7.77 7.77 0 0 1 1.37-1.4c.26-.2.55-.36.84-.52l.9-.42c.19-.05.37.03.42.21a.35.35 0 0 1-.18.42c-.55.2-1.1.5-1.59.83-.49.31-.85.8-1.3 1.25a6.37 6.37 0 0 1-1.45 1.3 2.4 2.4 0 0 1-.94.34h-.52a1.42 1.42 0 0 1-.47-.16l-.02-.05c-.03.05-.03.05 0 .05z"/>
      <path d="M132.84 102.73a3.38 3.38 0 0 1 .67-.2l.65-.19c.42-.15.83-.33 1.2-.54.15-.08.36-.03.44.13.08.15.03.34-.13.44-.42.26-.88.44-1.38.55l-.73.1c-.23 0-.52-.03-.72-.18-.03-.05-.03-.08 0-.1z"/>
    </g>
    <path fill="none" stroke-linecap="round" stroke-linejoin="round" d="M117.57 105.23c2.27.68 9.03-2.1 10.46-4.47m-47.66-8.32c1.22 2.18-1.35 3.07-1.72 6.24-.34 2.94.52 5.74 5 8.08 5.45 2.84 7.85 2.42 7.85 2.42s5.77 1.02 13.85-.93c6.09.65 11.94-2.27 12.2-3"/>
    <g stroke="none" fill="#000">
      <path d="m80.06 92.57-.19-.4-.23-.38-.29-.37a2.08 2.08 0 0 0-.33-.33c-.03-.03 0-.03 0-.06h.02a2.86 2.86 0 0 1 .86.5l.39.34c.13.13.23.23.34.41.1.16.05.37-.08.47a.36.36 0 0 1-.47-.08l-.02-.1z"/>
    </g>
    <path fill="none" stroke-linecap="round" stroke-linejoin="round" d="M99.4 97.27c-.36 1.82-2 2.3-2 2.3s-.57 1.76-2.7 2.33"/>
    <g stroke="none" fill="#000">
      <path d="M99.5 97.59c-.3.05-.6.13-.9.15l-.92.03a4.84 4.84 0 0 1-1.74-.42c.29.08.57.1.86.1.29 0 .57 0 .86-.05l.83-.18.8-.28a.3.3 0 0 1 .42.18.3.3 0 0 1-.18.41l-.03.06z"/>
      <path d="m99.22 96.99.31-.24.31-.23c.18-.18.4-.34.55-.55.15-.2.31-.41.41-.65l.32-.72.05-.03.02.03c.16.28.13.6.08.9a3.38 3.38 0 0 1-.36.84l-.13.18-.16.18-.31.34-.34.29-.36.23c-.16.1-.37.05-.44-.1-.13-.16-.1-.34.05-.47zm-5.15 2.31.83.21c.29.05.55.05.83.05a4.03 4.03 0 0 0 1.56-.31c.16-.08.37 0 .45.16s0 .36-.16.44l-.05.02a4.86 4.86 0 0 1-3.46-.57z"/>
    </g>
    <path fill="none" stroke-linecap="round" stroke-linejoin="round" d="M87.02 103.25a8.68 8.68 0 0 0 5.13 2c2.2.21 4.1-.23 4.1-.23s.78-.23 1.17-.6c.6-.13 1.54-.52 1.72-1.3.2-.36-.42-.62-.42-.62s.91.08 1.51-.52c.55 0 1.12-.52 1.43-.78.63-.52-.23-1.3-.23-1.3s1.22-.03 1.48-.78c.42-.23 1.01-.31 1.64-1.38.31-.67-.7-.8-.7-.8s1.3-.5 1.71-1.28c1.28-.86.31-1.84.08-2.03"/>
    <g>
      <g stroke="none" fill="#000">
        <path d="M108.86 94.02c.16 0 .29-.05.45-.07l.44-.1.86-.19.85-.16.89-.15.05.05v.05a2.08 2.08 0 0 1-.78.57 3.7 3.7 0 0 1-2.31.26c-.16-.07-.34-.1-.45-.26-.02.03-.02 0 0 0-.02 0-.02 0 0 0zm1.3 10.12-.15.08-.13.05-.26.1-.55.16-1.09.2a15.47 15.47 0 0 1-4.37.03 7.13 7.13 0 0 1-2.08-.62l-.02-.05.02-.03c.73.05 1.43.18 2.13.23a18.98 18.98 0 0 0 4.19-.18 14.04 14.04 0 0 0 1.01-.2c.16-.06.34-.08.5-.16l.23-.08.1-.05.08-.03.08-.02c.16-.08.34 0 .42.18.1.13.02.31-.1.39z"/>
      </g>
      <path fill="none" stroke-linecap="round" stroke-linejoin="round" d="M117.42 102.19c-.4 1.4-6.55 2.29-7.44 1.69"/>
      <path fill="none" stroke-linecap="round" stroke-linejoin="round" d="M124.46 99.22c0 1.02-5.66 3.9-7.04 2.97m12.2-7.46c.43 2.28-3.86 4.55-5.16 4.5"/>
      <g stroke="none" fill="#000">
        <path d="m110.37 101.82-.15.08-.13.05-.24.08-.47.13-.96.18c-.65.08-1.27.16-1.92.13a12 12 0 0 1-1.93-.15 5.28 5.28 0 0 1-1.82-.65c-.02 0-.02-.03 0-.05l.03-.03 1.85.26a14.59 14.59 0 0 0 4.57-.34l.44-.13.21-.08.1-.02.06-.03.1-.02a.3.3 0 0 1 .4.2c.07.16 0 .32-.14.4z"/>
      </g>
      <path fill="none" stroke-linecap="round" stroke-linejoin="round" d="M116.85 100.08c-.34 1.22-6.09 2.16-6.63 1.48"/>
      <path fill="none" stroke-linecap="round" stroke-linejoin="round" d="M122.88 97.48c0 .89-4.86 3.4-6.06 2.6m8.76-5.12c.5.83-1.56 2.57-2.7 2.55"/>
      <g stroke="none" fill="#000">
        <path d="m110.74 99.56-.13.08-.1.05-.22.08-.39.13c-.26.08-.52.16-.8.18a8.66 8.66 0 0 1-3.25-.1 4.45 4.45 0 0 1-1.48-.65c-.03 0-.03-.03 0-.05l.02-.03 1.54.26c.49.08 1.01.1 1.53.08a9.96 9.96 0 0 0 2.57-.5l.16-.07.08-.03.05-.03.08-.05c.15-.08.34 0 .41.16.1.23.06.41-.07.5z"/>
      </g>
      <path fill="none" stroke-linecap="round" stroke-linejoin="round" d="M116.53 97.69c-.26 1.14-5.46 2.21-5.98 1.61"/>
      <path fill="none" stroke-linecap="round" stroke-linejoin="round" d="M121.81 94.73c.24.85-3.77 3.35-5.3 2.96"/>
      <g stroke="none" fill="#000">
        <path d="m110.87 97.43-.1.05-.09.05-.15.08-.31.1-.63.14c-.41.07-.83.1-1.25.07-.41 0-.83-.07-1.24-.18-.42-.1-.81-.28-1.12-.54-.03 0-.03-.03 0-.06 0 0 .02-.02.02 0 .42.03.81.1 1.17.16.4.05.78.08 1.15.05a8.58 8.58 0 0 0 1.14-.13l.55-.13.26-.08.13-.05.08-.02.07-.03c.16-.08.34 0 .42.16.1.1.03.28-.1.36z"/>
      </g>
      <path fill="none" stroke-linecap="round" stroke-linejoin="round" d="M115.26 95.82c-.2.86-4.16 1.82-4.58 1.35"/>
      <g stroke="none" fill="#000">
        <path d="m111.67 95.32-.1.08-.08.05-.16.08-.3.13c-.22.08-.4.16-.6.18-.42.1-.84.19-1.25.19-.42.02-.84 0-1.25-.08a2.8 2.8 0 0 1-1.17-.44c-.03 0-.03-.03 0-.06l.02-.02c.42-.03.81.05 1.2.05a7.75 7.75 0 0 0 2.26-.29l.55-.18.26-.1.1-.05.08-.06.08-.05c.15-.08.34-.02.44.13.08.18.03.37-.08.44z"/>
      </g>
      <path fill="none" stroke-linecap="round" stroke-linejoin="round" d="M115.26 93.11c.16 1.04-2.73 2.47-3.82 1.95m6.76-1.04c.18.65-1.77 2.08-2.94 1.8"/>
    </g>
  </g>
</svg>
