<svg xmlns="http://www.w3.org/2000/svg" fill="#d7374a" stroke="#000" viewBox="50 50 200 200">
<metadata source="https://commons.wikimedia.org/wiki/File:Coa_Hungary_Town_Bag.svg" author="Madboy74" license="https://creativecommons.org/publicdomain/zero/1.0"/>
  <g id="earOfWheat" transform="translate(48 50) scale(0.5)">
    <g fill="#000" stroke="none">
      <path d="M106.18 42.38c-.05.46.35.92.84.97.49.04.97-.35 1.01-.81.79-8.46-.17-18.44 2.38-25.4-3.47 5.2-2.16 23.64-4.23 25.23z"/>
      <path d="M104.03 6.76c-.51 1.58-.12 23.74-1.17 30.17 0 .47.79.11 1.17.11s1.14.36 1.13-.11c-1.05-6.43-.61-28.6-1.13-30.17z"/>
      <path d="M117.96 42.48c-.11.46.22.98.68 1.09.48.1 1.02-.2 1.13-.66 2.06-8.27 2.29-18.72 6.48-25.12-4.83 5.43-5.38 22.42-8.29 24.7z"/>
      <path d="M109.1 44.87c-.11.45.21.97.69 1.09.47.1 1.01-.21 1.12-.66 2.06-8.27 3.37-21.89 7.52-28.3-5.14 5.98-6 25.7-9.33 27.87z"/>
      <path d="M118.16 52.82c-.16.45.12.99.58 1.14a.98.98 0 001.19-.57c2.8-8.05 3.99-18.45 8.74-24.48-5.3 5.01-7.41 21.88-10.51 23.91z"/>
      <path d="M109.29 55.22c-.14.45.16.98.62 1.11a.97.97 0 001.16-.6c2.51-8.15 4.55-21.69 9.04-27.88-5.45 5.72-7.38 25.36-10.82 27.37z"/>
      <path d="M101.88 42.38c.04.46-.36.92-.84.97a.97.97 0 01-1.02-.81c-.8-8.46.17-18.44-2.38-25.4 3.47 5.2 2.17 23.64 4.24 25.23z"/>
      <path d="M98.95 44.87c.12.45-.21.97-.69 1.09-.47.1-1-.21-1.12-.66-2.06-8.27-3.37-21.89-7.51-28.3 5.13 5.98 6 25.7 9.32 27.87z"/>
      <path d="M89.89 52.82a.92.92 0 01-.58 1.14c-.46.15-1.03-.12-1.18-.56-2.81-8.06-4-18.46-8.75-24.49 5.3 5.01 7.41 21.88 10.51 23.91z"/>
      <path d="M98.77 55.22c.14.45-.16.98-.63 1.11a.97.97 0 01-1.16-.6c-2.5-8.15-4.54-21.69-9.04-27.88 5.46 5.72 7.38 25.36 10.83 27.37z"/>
      <path d="M118.16 63.49c-.16.44.12.98.58 1.13.47.15 1.03-.11 1.19-.56 2.8-8.06 3.99-18.45 8.74-24.48-5.3 5.01-7.41 21.88-10.51 23.9z"/>
      <path d="M89.89 63.49c.16.44-.12.98-.58 1.13-.46.15-1.03-.11-1.18-.56-2.81-8.06-4-18.45-8.75-24.48 5.3 5.01 7.41 21.88 10.51 23.91z"/>
      <path d="M90.09 42.48c.12.46-.21.98-.69 1.09-.47.11-1.01-.21-1.12-.66-2.06-8.27-2.29-18.72-6.47-25.12 4.82 5.43 5.38 22.42 8.28 24.69z"/>
      <path d="M118.16 74.15c-.16.45.12 1 .58 1.14.47.15 1.03-.12 1.19-.56 2.8-8.06 3.99-18.46 8.75-24.48-5.3 5-7.42 21.88-10.52 23.9z"/>
      <path d="M89.89 74.15a.92.92 0 01-.58 1.14.98.98 0 01-1.18-.56c-2.81-8.06-4-18.46-8.75-24.48 5.3 5 7.41 21.88 10.51 23.9z"/>
      <path d="M118.16 84.82c-.16.44.12.98.58 1.13.47.15 1.03-.12 1.19-.56 2.8-8.06 3.99-18.46 8.75-24.48-5.3 5-7.42 21.88-10.52 23.91z"/>
      <path d="M89.89 84.82c.16.44-.12.98-.58 1.13a.98.98 0 01-1.18-.56c-2.81-8.06-4-18.46-8.75-24.48 5.3 5.01 7.41 21.88 10.51 23.91z"/>
      <path d="M118.16 95.49c-.16.44.12.98.58 1.13.47.15 1.03-.12 1.19-.56 2.8-8.06 3.99-18.46 8.75-24.48-5.3 5-7.42 21.88-10.52 23.9z"/>
      <path d="M89.89 95.49c.16.44-.12.98-.58 1.13a.98.98 0 01-1.18-.56c-2.81-8.06-4-18.46-8.75-24.48 5.3 5.01 7.41 21.88 10.51 23.91z"/>
      <path d="M118.16 106.15c-.16.44.12.99.58 1.14a.99.99 0 001.19-.57c2.8-8.05 3.99-18.45 8.75-24.48-5.3 5.01-7.42 21.89-10.52 23.91z"/>
      <path d="M89.89 106.2c.16.4-.12.9-.58 1.1-.46.1-1.02-.1-1.18-.6-2.81-8.03-4-18.43-8.75-24.46 5.3 5.01 7.41 21.86 10.51 23.96z"/>
    </g>
    <g stroke="none">
      <path d="M117.95 42.67c-5.02.88-9.56 3.8-12.68 7.63a9.63 9.63 0 00-1.72 8.6c.41 1.19 1.36 2.34 2.77 2.32 4.17.5 7.97-2.26 9.86-5.66a20 20 0 002.85-11.2c-.01-.69-.07-1.82-1.08-1.69z"/>
      <path fill="#fff" fill-opacity="0.2" d="M117.93 42.66a21.55 21.55 0 00-12.68 7.66 9.7 9.7 0 00-1.97 7.61c3.89.96 7.96-1.02 10.37-3.94 2.62-3 4.34-6.67 4.87-10.56l.05-.56v-.05c-.15-.13-.35-.2-.64-.16z"/>
      <path fill="#000" d="M120.45 40.42c-2.83 2.88-9.43 1.18-16.38 9.94-3.92 4.95-.98 10.38-1.84 12.38-.03.23.29.55.45.73.22.09.63.3.86.19 1.73-1.38 8.01-.26 11.8-5.3 6.7-8.93 3.08-14.5 5.11-17.94zm-2.06 2.68c1.14 5.49-2 12.17-4.49 14.79-2.39 2.5-6.5 3.73-8.88 2.54-1.88-1.84-1.86-5.96-.06-8.9 1.88-3.05 7.62-7.87 13.43-8.43z"/>
      <path d="M90.11 42.67c5.02.88 9.56 3.8 12.68 7.63a9.66 9.66 0 011.72 8.6c-.41 1.19-1.36 2.34-2.78 2.32-4.17.5-7.96-2.26-9.85-5.66a19.86 19.86 0 01-2.85-11.2c0-.69.07-1.82 1.08-1.69z"/>
      <path fill="#fff" fill-opacity="0.2" d="M90.11 42.66c5.02.88 9.57 3.83 12.69 7.66a9.7 9.7 0 011.97 7.61c-3.89.96-7.96-1.02-10.37-3.94a20.1 20.1 0 01-4.87-10.56c-.03-.16-.04-.36-.05-.56v-.05c.15-.13.34-.2.63-.16z"/>
      <path fill="#000" d="M87.6 40.42c2.84 2.88 9.44 1.18 16.38 9.94 3.93 4.95.98 10.38 1.85 12.38.03.23-.29.55-.45.73-.22.09-.63.3-.86.19-1.73-1.38-8.02-.26-11.8-5.3-6.7-8.93-3.08-14.5-5.12-17.94zm2.07 2.68c-1.14 5.49 2 12.17 4.49 14.79 2.39 2.5 6.5 3.73 8.88 2.54 1.88-1.84 1.86-5.96.06-8.9-1.89-3.05-7.62-7.87-13.43-8.43z"/>
      <path d="M103.66 36.47c-2.57 2.28-4.1 5.44-5 8.64-.62 2.29-1 4.7-.57 7.05a9.85 9.85 0 003.44 5.64c.74.5 1.58.99 2.51 1.07.97-.08 1.86-.6 2.62-1.17a9.77 9.77 0 003.42-6.1c.32-2.94-.33-5.9-1.37-8.65a16.5 16.5 0 00-4.36-6.53c-.21-.16-.49-.1-.69.04z"/>
      <path fill="#fff" fill-opacity="0.2" d="M103.98 36.32a.79.79 0 00-.34.16c-2.57 2.29-4.08 5.42-4.98 8.62-.16.57-.3 1.13-.41 1.72v.06a8 8 0 003.3 4.16c.74.41 1.56.77 2.49.84a5.93 5.93 0 002.61-.95 7.75 7.75 0 003.19-4.05 24.28 24.28 0 00-1.11-3.95 16.41 16.41 0 00-4.4-6.5.44.44 0 00-.35-.11z"/>
      <path fill="#000" d="M104.04 33.5c-.49 3.92-6.86 6.33-7 17.32-.1 6.21 5.65 8.91 6.19 11 .12.2.58.28.81.34.24-.05.7-.13.81-.34.55-2.09 6.29-4.79 6.2-11-.16-11-6.51-13.4-7.01-17.33zm0 3.32c4.32 3.76 5.94 10.92 5.56 14.45-.37 3.37-2.9 6.7-5.56 7.1-2.65-.4-5.2-3.72-5.56-7.1-.39-3.53 1.24-10.68 5.56-14.45z"/>
      <path d="M117.95 53.34c-5.02.89-9.56 3.8-12.68 7.63a9.65 9.65 0 00-1.72 8.6c.41 1.18 1.36 2.34 2.77 2.32 4.17.49 7.97-2.26 9.86-5.66 2.02-3.4 3.05-7.3 2.85-11.21-.01-.67-.07-1.81-1.08-1.68z"/>
      <path fill="#fff" fill-opacity="0.2" d="M117.93 53.32A21.56 21.56 0 00105.25 61a9.69 9.69 0 00-1.97 7.6c3.89.96 7.96-1.01 10.37-3.93 2.62-3 4.34-6.67 4.87-10.56l.05-.55v-.06a.78.78 0 00-.64-.17z"/>
      <path fill="#000" d="M120.45 51.09c-2.83 2.88-9.43 1.18-16.38 9.93-3.92 4.95-.98 10.39-1.84 12.38-.03.24.29.55.45.73.22.1.63.3.86.19 1.73-1.37 8.01-.26 11.8-5.3 6.7-8.93 3.08-14.49 5.11-17.93zm-2.06 2.67c1.14 5.5-2 12.17-4.49 14.79-2.39 2.5-6.5 3.73-8.88 2.54-1.88-1.84-1.86-5.96-.06-8.9 1.88-3.04 7.62-7.87 13.43-8.43z"/>
      <path d="M90.11 53.34c5.02.89 9.56 3.8 12.68 7.63a9.68 9.68 0 011.72 8.6c-.41 1.18-1.36 2.34-2.78 2.32-4.17.49-7.96-2.26-9.85-5.66a19.86 19.86 0 01-2.85-11.21c0-.67.07-1.81 1.08-1.68z"/>
      <path fill="#fff" fill-opacity="0.2" d="M90.11 53.32a21.6 21.6 0 0112.69 7.67 9.69 9.69 0 011.97 7.6c-3.89.96-7.96-1.01-10.37-3.93a20.1 20.1 0 01-4.87-10.56 4.49 4.49 0 01-.05-.55v-.06c.15-.13.34-.2.63-.17z"/>
      <path fill="#000" d="M87.6 51.09c2.84 2.88 9.44 1.18 16.38 9.93 3.93 4.95.98 10.39 1.85 12.38.03.24-.29.55-.45.73-.22.1-.63.3-.86.19-1.73-1.37-8.02-.26-11.8-5.3-6.7-8.93-3.08-14.49-5.12-17.93zm2.07 2.67c-1.14 5.5 2 12.17 4.49 14.79 2.39 2.5 6.5 3.73 8.88 2.54 1.88-1.84 1.86-5.96.06-8.9-1.89-3.04-7.62-7.87-13.43-8.43z"/>
      <path d="M103.66 47.13c-2.57 2.3-4.1 5.44-5 8.65-.62 2.29-1 4.69-.57 7.04a9.87 9.87 0 003.44 5.64c.74.51 1.58 1 2.51 1.08a5.4 5.4 0 002.62-1.17 9.78 9.78 0 003.42-6.1c.32-2.94-.33-5.9-1.37-8.65a16.45 16.45 0 00-4.36-6.53c-.21-.16-.49-.1-.69.04z"/>
      <path fill="#fff" fill-opacity="0.2" d="M103.98 46.98a.68.68 0 00-.34.17c-2.57 2.29-4.08 5.41-4.98 8.61a29.1 29.1 0 00-.41 1.72v.06a8 8 0 003.3 4.17c.74.4 1.56.76 2.49.83a5.88 5.88 0 002.61-.95 7.73 7.73 0 003.19-4.05 24.4 24.4 0 00-1.11-3.95 16.52 16.52 0 00-4.4-6.5.48.48 0 00-.35-.1z"/>
      <path fill="#000" d="M104.04 44.16c-.49 3.93-6.86 6.33-7 17.33-.1 6.21 5.65 8.9 6.19 11 .12.2.58.28.81.33.24-.05.7-.12.81-.33.55-2.1 6.29-4.79 6.2-11-.16-11-6.51-13.4-7.01-17.33zm0 3.33c4.32 3.76 5.94 10.92 5.56 14.44-.37 3.39-2.9 6.71-5.56 7.12-2.65-.4-5.2-3.73-5.56-7.12-.39-3.52 1.24-10.68 5.56-14.44z"/>
      <path d="M117.95 64a21.5 21.5 0 00-12.68 7.64 9.64 9.64 0 00-1.72 8.6c.41 1.18 1.36 2.33 2.77 2.32 4.17.49 7.97-2.27 9.86-5.67a19.97 19.97 0 002.85-11.2c-.01-.68-.07-1.82-1.08-1.69z"/>
      <path fill="#fff" fill-opacity="0.2" d="M117.93 64a21.6 21.6 0 00-12.68 7.66 9.7 9.7 0 00-1.97 7.61c3.89.94 7.96-1.03 10.37-3.95 2.62-3 4.34-6.66 4.87-10.55l.05-.56v-.06a.78.78 0 00-.64-.16z"/>
      <path fill="#000" d="M120.45 61.75c-2.83 2.89-9.43 1.2-16.38 9.94-3.92 4.95-.98 10.38-1.84 12.38-.03.23.29.56.45.73.22.1.63.3.86.2 1.73-1.38 8.01-.27 11.8-5.31 6.7-8.93 3.08-14.49 5.11-17.94zm-2.06 2.69c1.14 5.49-2 12.16-4.49 14.78-2.39 2.5-6.5 3.74-8.88 2.55-1.88-1.84-1.86-5.97-.06-8.9 1.88-3.05 7.62-7.87 13.43-8.43z"/>
      <path d="M90.11 64a21.5 21.5 0 0112.68 7.64 9.67 9.67 0 011.72 8.6c-.41 1.18-1.36 2.33-2.78 2.32-4.17.49-7.96-2.27-9.85-5.67a19.84 19.84 0 01-2.85-11.2c0-.68.07-1.82 1.08-1.69z"/>
      <path fill="#fff" fill-opacity="0.2" d="M90.11 64c5.02.88 9.57 3.83 12.69 7.66a9.7 9.7 0 011.97 7.61c-3.89.94-7.96-1.03-10.37-3.95a20.1 20.1 0 01-4.87-10.55 4.66 4.66 0 01-.05-.56v-.06c.15-.12.34-.2.63-.16z"/>
      <path fill="#000" d="M87.6 61.75c2.84 2.89 9.44 1.2 16.38 9.94 3.93 4.95.98 10.38 1.85 12.38.03.23-.29.56-.45.73-.22.1-.63.3-.86.2-1.73-1.38-8.02-.27-11.8-5.31-6.7-8.93-3.08-14.49-5.12-17.94zm2.07 2.69c-1.14 5.49 2 12.16 4.49 14.78 2.39 2.5 6.5 3.74 8.88 2.55 1.88-1.84 1.86-5.97.06-8.9-1.89-3.05-7.62-7.87-13.43-8.43z"/>
      <path d="M103.66 57.8c-2.57 2.29-4.1 5.44-5 8.64-.62 2.29-1 4.7-.57 7.05a9.85 9.85 0 003.44 5.64c.74.5 1.58 1 2.51 1.08.97-.1 1.86-.6 2.62-1.17a9.77 9.77 0 003.42-6.1c.32-2.94-.33-5.9-1.37-8.66a16.49 16.49 0 00-4.36-6.52c-.21-.17-.49-.1-.69.04z"/>
      <path fill="#fff" fill-opacity="0.2" d="M103.98 57.65a.72.72 0 00-.34.17c-2.57 2.28-4.08 5.4-4.98 8.61-.16.57-.3 1.14-.41 1.72v.06a8 8 0 003.3 4.17c.74.4 1.56.76 2.49.83a5.93 5.93 0 002.61-.94 7.75 7.75 0 003.19-4.06 24.35 24.35 0 00-1.11-3.94 16.46 16.46 0 00-4.4-6.5.5.5 0 00-.35-.12z"/>
      <path fill="#000" d="M104.04 54.82c-.49 3.93-6.86 6.34-7 17.34-.1 6.22 5.65 8.9 6.19 11 .12.2.58.28.81.33.24-.05.7-.13.81-.33.55-2.1 6.29-4.78 6.2-11-.16-11-6.51-13.4-7.01-17.34zm0 3.34c4.32 3.76 5.94 10.91 5.56 14.44-.37 3.38-2.9 6.71-5.56 7.12-2.65-.4-5.2-3.74-5.56-7.12-.39-3.53 1.24-10.68 5.56-14.44z"/>
      <path d="M117.95 74.67c-5.02.89-9.56 3.8-12.68 7.64a9.63 9.63 0 00-1.72 8.6c.41 1.18 1.36 2.33 2.77 2.31 4.17.5 7.97-2.26 9.86-5.66a20 20 0 002.85-11.2c-.01-.68-.07-1.82-1.08-1.7z"/>
      <path fill="#fff" fill-opacity="0.2" d="M117.93 74.66a21.6 21.6 0 00-12.68 7.66 9.7 9.7 0 00-1.97 7.62c3.89.95 7.96-1.03 10.37-3.95a20.24 20.24 0 004.87-10.56l.05-.55v-.06a.78.78 0 00-.64-.16z"/>
      <path fill="#000" d="M120.45 72.42c-2.83 2.88-9.43 1.18-16.38 9.94-3.92 4.94-.98 10.39-1.84 12.38-.03.23.29.55.45.73.22.1.63.29.86.2 1.73-1.39 8.01-.27 11.8-5.32 6.7-8.92 3.08-14.48 5.11-17.93zm-2.06 2.68c1.14 5.49-2 12.17-4.49 14.8-2.39 2.5-6.5 3.72-8.88 2.53-1.88-1.84-1.86-5.96-.06-8.89 1.88-3.05 7.62-7.88 13.43-8.44z"/>
      <path d="M90.11 74.67c5.02.89 9.56 3.8 12.68 7.64a9.66 9.66 0 011.72 8.6c-.41 1.18-1.36 2.33-2.78 2.31-4.17.5-7.96-2.26-9.85-5.66a19.87 19.87 0 01-2.85-11.2c0-.68.07-1.82 1.08-1.7z"/>
      <path fill="#fff" fill-opacity="0.2" d="M90.11 74.66c5.02.89 9.57 3.83 12.69 7.66a9.7 9.7 0 011.97 7.62c-3.89.95-7.96-1.03-10.37-3.95a20.1 20.1 0 01-4.87-10.56 4.31 4.31 0 01-.05-.55v-.06c.15-.12.34-.2.63-.16z"/>
      <path fill="#000" d="M87.6 72.42c2.84 2.88 9.44 1.18 16.38 9.94 3.93 4.94.98 10.39 1.85 12.38.03.23-.29.55-.45.73-.22.1-.63.29-.86.2-1.73-1.39-8.02-.27-11.8-5.32-6.7-8.92-3.08-14.48-5.12-17.93zm2.07 2.68c-1.14 5.49 2 12.17 4.49 14.8 2.39 2.5 6.5 3.72 8.88 2.53 1.88-1.84 1.86-5.96.06-8.89-1.89-3.05-7.62-7.88-13.43-8.44z"/>
      <path d="M103.66 68.47c-2.57 2.28-4.1 5.43-5 8.64-.62 2.29-1 4.7-.57 7.04a9.84 9.84 0 003.44 5.64c.74.51 1.58 1 2.51 1.08.97-.09 1.86-.6 2.62-1.17a9.76 9.76 0 003.42-6.1c.32-2.94-.33-5.9-1.37-8.65a16.5 16.5 0 00-4.36-6.53c-.21-.17-.49-.1-.69.05z"/>
      <path fill="#fff" fill-opacity="0.2" d="M103.98 68.33a.7.7 0 00-.34.17c-2.57 2.28-4.08 5.4-4.98 8.6-.16.58-.3 1.15-.41 1.73v.05a8 8 0 003.3 4.17c.74.4 1.56.76 2.49.83a5.95 5.95 0 002.61-.94 7.75 7.75 0 003.19-4.06 24.4 24.4 0 00-1.11-3.94 16.43 16.43 0 00-4.4-6.5.43.43 0 00-.35-.11z"/>
      <path fill="#000" d="M104.04 65.5c-.49 3.93-6.86 6.33-7 17.32-.1 6.22 5.65 8.91 6.19 11 .12.21.58.29.81.34.24-.05.7-.13.81-.33.55-2.1 6.29-4.8 6.2-11-.16-11-6.51-13.4-7.01-17.34zm0 3.33c4.32 3.76 5.94 10.91 5.56 14.44-.37 3.38-2.9 6.71-5.56 7.1-2.65-.39-5.2-3.72-5.56-7.1-.39-3.53 1.24-10.68 5.56-14.44z"/>
      <path d="M117.95 85.34c-5.02.88-9.56 3.8-12.68 7.63a9.64 9.64 0 00-1.72 8.6c.41 1.18 1.36 2.34 2.77 2.32 4.17.49 7.97-2.27 9.86-5.67a19.97 19.97 0 002.85-11.2c-.01-.68-.07-1.81-1.08-1.68z"/>
      <path fill="#fff" fill-opacity="0.2" d="M117.93 85.32A21.6 21.6 0 00105.25 93a9.72 9.72 0 00-1.97 7.62c3.89.94 7.96-1.03 10.37-3.95a20.23 20.23 0 004.87-10.56l.05-.55v-.06a.78.78 0 00-.64-.17z"/>
      <path fill="#000" d="M120.45 83.09c-2.83 2.87-9.43 1.18-16.38 9.93-3.92 4.95-.98 10.39-1.84 12.38-.03.23.29.56.45.73.22.09.63.29.86.19 1.73-1.37 8.01-.25 11.8-5.3 6.7-8.93 3.08-14.5 5.11-17.93zm-2.06 2.68c1.14 5.48-2 12.16-4.49 14.78-2.39 2.5-6.5 3.74-8.88 2.54-1.88-1.83-1.86-5.96-.06-8.89 1.88-3.05 7.62-7.88 13.43-8.43z"/>
      <path d="M90.11 85.34c5.02.88 9.56 3.8 12.68 7.63a9.67 9.67 0 011.72 8.6c-.41 1.18-1.36 2.34-2.78 2.32-4.17.49-7.96-2.27-9.85-5.67a19.84 19.84 0 01-2.85-11.2c0-.68.07-1.81 1.08-1.68z"/>
      <path fill="#fff" fill-opacity="0.2" d="M90.11 85.32c5.02.9 9.57 3.84 12.69 7.67a9.72 9.72 0 011.97 7.62c-3.89.94-7.96-1.03-10.37-3.95a20.08 20.08 0 01-4.87-10.56 4.49 4.49 0 01-.05-.55v-.06c.15-.13.34-.2.63-.17z"/>
      <path fill="#000" d="M87.6 83.09c2.84 2.87 9.44 1.18 16.38 9.93 3.93 4.95.98 10.39 1.85 12.38.03.23-.29.56-.45.73-.22.09-.63.29-.86.19-1.73-1.37-8.02-.25-11.8-5.3-6.7-8.93-3.08-14.5-5.12-17.93zm2.07 2.68c-1.14 5.48 2 12.16 4.49 14.78 2.39 2.5 6.5 3.74 8.88 2.54 1.88-1.83 1.86-5.96.06-8.89-1.89-3.05-7.62-7.88-13.43-8.43z"/>
      <path d="M103.66 79.13c-2.57 2.28-4.1 5.44-5 8.64-.62 2.29-1 4.7-.57 7.05a9.87 9.87 0 003.44 5.64c.74.5 1.58 1 2.51 1.08a5.35 5.35 0 002.62-1.18 9.75 9.75 0 003.42-6.1c.32-2.94-.33-5.9-1.37-8.65a16.49 16.49 0 00-4.36-6.53c-.21-.16-.49-.1-.69.05z"/>
      <path fill="#fff" fill-opacity="0.2" d="M103.98 78.98a.74.74 0 00-.34.17c-2.57 2.3-4.08 5.42-4.98 8.61a29.1 29.1 0 00-.41 1.72v.06a8 8 0 003.3 4.16c.74.42 1.56.77 2.49.84a5.88 5.88 0 002.61-.95 7.73 7.73 0 003.19-4.05 24.4 24.4 0 00-1.11-3.94 16.5 16.5 0 00-4.4-6.5.46.46 0 00-.35-.12z"/>
      <path fill="#000" d="M104.04 76.16c-.49 3.93-6.86 6.33-7 17.33-.1 6.22 5.65 8.9 6.19 11 .12.21.58.28.81.33.24-.05.7-.12.81-.33.55-2.1 6.29-4.78 6.2-11-.16-11-6.51-13.4-7.01-17.33zm0 3.33c4.32 3.76 5.94 10.92 5.56 14.45-.37 3.38-2.9 6.71-5.56 7.11-2.65-.4-5.2-3.73-5.56-7.11-.39-3.53 1.24-10.69 5.56-14.45z"/>
      <path d="M117.95 96a21.5 21.5 0 00-12.68 7.64 9.63 9.63 0 00-1.72 8.6c.41 1.18 1.36 2.33 2.77 2.31 4.17.5 7.97-2.26 9.86-5.66a19.96 19.96 0 002.85-11.2c-.01-.68-.07-1.81-1.08-1.69z"/>
      <path fill="#fff" fill-opacity="0.2" d="M117.93 96a21.56 21.56 0 00-12.68 7.66 9.69 9.69 0 00-1.97 7.61c3.89.95 7.96-1.03 10.37-3.95a20.2 20.2 0 004.87-10.55l.05-.56v-.05c-.15-.13-.35-.2-.64-.17z"/>
      <path fill="#000" d="M120.45 93.75c-2.83 2.88-9.43 1.18-16.38 9.94-3.92 4.95-.98 10.38-1.84 12.38-.03.23.29.55.45.73.22.09.63.29.86.19 1.73-1.38 8.01-.26 11.8-5.31 6.7-8.92 3.08-14.49 5.11-17.93zm-2.06 2.68c1.14 5.49-2 12.17-4.49 14.79-2.39 2.5-6.5 3.73-8.88 2.54-1.88-1.84-1.86-5.96-.06-8.89 1.88-3.05 7.62-7.88 13.43-8.44z"/>
      <path d="M90.11 96a21.5 21.5 0 0112.68 7.64 9.66 9.66 0 011.72 8.6c-.41 1.18-1.36 2.33-2.78 2.31-4.17.5-7.96-2.26-9.85-5.66a19.84 19.84 0 01-2.85-11.2c0-.68.07-1.81 1.08-1.69z"/>
      <path fill="#fff" fill-opacity="0.2" d="M90.11 96c5.02.88 9.57 3.82 12.69 7.66a9.69 9.69 0 011.97 7.61c-3.89.95-7.96-1.03-10.37-3.95a20.06 20.06 0 01-4.87-10.55c-.03-.16-.04-.36-.05-.56v-.05c.15-.13.34-.2.63-.17z"/>
      <path fill="#000" d="M87.6 93.75c2.84 2.88 9.44 1.18 16.38 9.94 3.93 4.95.98 10.38 1.85 12.38.03.23-.29.55-.45.73-.22.09-.63.29-.86.19-1.73-1.38-8.02-.26-11.8-5.31-6.7-8.92-3.08-14.49-5.12-17.93zm2.07 2.68c-1.14 5.49 2 12.17 4.49 14.79 2.39 2.5 6.5 3.73 8.88 2.54 1.88-1.84 1.86-5.96.06-8.89-1.89-3.05-7.62-7.88-13.43-8.44z"/>
      <path d="M103.66 89.8c-2.57 2.28-4.1 5.43-5 8.64-.62 2.29-1 4.7-.57 7.05a9.9 9.9 0 003.44 5.64c.74.51 1.58.99 2.51 1.08.97-.1 1.86-.6 2.62-1.18a9.77 9.77 0 003.42-6.1c.32-2.94-.33-5.9-1.37-8.65a16.49 16.49 0 00-4.36-6.53c-.21-.16-.49-.1-.69.05z"/>
      <path fill="#fff" fill-opacity="0.2" d="M103.98 89.65a.78.78 0 00-.34.16c-2.57 2.3-4.08 5.41-4.98 8.62-.16.57-.3 1.13-.41 1.72v.06a8.05 8.05 0 003.3 4.16c.74.41 1.56.77 2.49.83a5.9 5.9 0 002.61-.94 7.77 7.77 0 003.19-4.05 24.39 24.39 0 00-1.11-3.95 16.49 16.49 0 00-4.4-6.5.48.48 0 00-.35-.11z"/>
      <path fill="#000" d="M104.04 86.82c-.49 3.93-6.86 6.34-7 17.33-.1 6.22 5.65 8.9 6.19 11 .12.21.58.28.81.33.24-.05.7-.12.81-.33.55-2.1 6.29-4.78 6.2-11-.16-10.99-6.51-13.4-7.01-17.33zm0 3.34c4.32 3.75 5.94 10.91 5.56 14.44-.37 3.38-2.9 6.71-5.56 7.11-2.65-.4-5.2-3.73-5.56-7.11-.39-3.53 1.24-10.69 5.56-14.44z"/>
      <path d="M117.95 106.68c-5.02.89-9.56 3.8-12.68 7.63a9.65 9.65 0 00-1.72 8.61c.41 1.18 1.36 2.33 2.77 2.31 4.17.49 7.97-2.26 9.86-5.66 2.02-3.4 3.05-7.3 2.85-11.21-.01-.68-.07-1.81-1.08-1.68z"/>
      <path fill="#fff" fill-opacity="0.2" d="M117.93 106.66a21.6 21.6 0 00-12.68 7.66 9.71 9.71 0 00-1.97 7.62c3.89.95 7.96-1.03 10.37-3.95a20.24 20.24 0 004.87-10.56l.05-.55v-.06a.8.8 0 00-.64-.16z"/>
      <path fill="#000" d="M120.45 104.42c-2.83 2.88-9.43 1.18-16.38 9.94-3.92 4.94-.98 10.38-1.84 12.37-.03.24.29.56.45.73.22.1.63.29.86.2 1.73-1.38 8.01-.27 11.8-5.31 6.7-8.92 3.08-14.49 5.11-17.93zm-2.06 2.68c1.14 5.49-2 12.17-4.49 14.78-2.39 2.51-6.5 3.74-8.88 2.55-1.88-1.84-1.86-5.97-.06-8.89 1.88-3.06 7.62-7.88 13.43-8.44z"/>
      <path d="M90.11 106.68c5.02.89 9.56 3.8 12.68 7.63a9.68 9.68 0 011.72 8.61c-.41 1.18-1.36 2.33-2.78 2.31-4.17.49-7.96-2.26-9.85-5.66a19.89 19.89 0 01-2.85-11.21c0-.68.07-1.81 1.08-1.68z"/>
      <path fill="#fff" fill-opacity="0.2" d="M90.11 106.66c5.02.89 9.57 3.83 12.69 7.66a9.71 9.71 0 011.97 7.62c-3.89.95-7.96-1.03-10.37-3.95a20.1 20.1 0 01-4.87-10.56 4.31 4.31 0 01-.05-.55v-.06a.8.8 0 01.63-.16z"/>
      <path fill="#000" d="M87.6 104.42c2.84 2.88 9.44 1.18 16.38 9.94 3.93 4.94.98 10.38 1.85 12.37.03.24-.29.56-.45.73-.22.1-.63.29-.86.2-1.73-1.38-8.02-.27-11.8-5.31-6.7-8.92-3.08-14.49-5.12-17.93zm2.07 2.68c-1.14 5.49 2 12.17 4.49 14.78 2.39 2.51 6.5 3.74 8.88 2.55 1.88-1.84 1.86-5.97.06-8.89-1.89-3.06-7.62-7.88-13.43-8.44z"/>
      <path d="M103.66 100.46c-2.57 2.29-4.1 5.44-5 8.65-.62 2.28-1 4.69-.57 7.04a9.83 9.83 0 003.44 5.64c.74.51 1.58 1 2.51 1.08.97-.09 1.86-.6 2.62-1.17a9.8 9.8 0 003.42-6.11c.32-2.93-.33-5.89-1.37-8.64a16.56 16.56 0 00-4.36-6.54c-.21-.15-.49-.09-.69.05z"/>
      <path fill="#fff" fill-opacity="0.2" d="M103.98 100.32a.71.71 0 00-.34.16c-2.57 2.29-4.08 5.41-4.98 8.61-.16.57-.3 1.14-.41 1.72v.06a8 8 0 003.3 4.17c.74.41 1.56.76 2.49.83a5.9 5.9 0 002.61-.95 7.73 7.73 0 003.19-4.05 23.97 23.97 0 00-1.11-3.94 16.37 16.37 0 00-4.4-6.5.42.42 0 00-.35-.11z"/>
      <path fill="#000" d="M104.04 97.49c-.49 3.94-6.86 6.34-7 17.34-.1 6.21 5.65 8.9 6.19 10.99.12.21.58.29.81.34.24-.05.7-.13.81-.34.55-2.09 6.29-4.78 6.2-10.99-.16-11-6.51-13.4-7.01-17.34zm0 3.33c4.32 3.77 5.94 10.92 5.56 14.45-.37 3.38-2.9 6.71-5.56 7.11-2.65-.4-5.2-3.73-5.56-7.11-.39-3.53 1.24-10.68 5.56-14.45z"/>
    </g>
    <g stroke="none">
      <path d="M107.62 126.66c.06.07.11.11.11.16.02.25-.67.37-.65.6.13 1.78-.45 3.56-.35 5.23.15 3.46.29 6.6.25 9.94.02 2.07-.21 4.43-.38 6.95a51 51 0 00-.27 3.14c-.08 1.32-.13 2.71-.16 4.16-.18 1.56.42 3.2-.04 4.82-.2 4.98-.06 10.54.28 16.54s.89 12.41 1.21 19.02c0 1.86.23 3.94.33 5.94.09 2 .05 3.93-.6 5.47-.51.71-1.59.53-2.51-.18-.91-.71-1.65-1.92-1.53-3.05.48-7.25.46-14.47.43-21.35-.04-6.87-.11-13.39-.04-19.28.2-2.12-.42-4.37.05-6.16.09-2.07.15-4.04.22-5.89l.01-1.19c.06-3.36.23-6.49.13-8.96.04-.4.08-.78.1-1.16.15-1.21.27-2.41.39-3.63.11-2.39-1.26-4.87-1.64-7.69-.05-1.13-.29-2.2-.65-3.37-.19-.62-1.38-.27-.54-.72.48-.39 4.76-.84 5.26.07.1.15.43.39.59.59z"/>
      <path fill="#fff" fill-opacity="0.2" d="M107.62 126.66c.06.07.11.11.11.16.02.25-.67.37-.65.6.13 1.78-.45 3.56-.35 5.23.15 3.46.29 6.6.25 9.94.02 2.07-.21 4.43-.38 6.95a51 51 0 00-.27 3.14c-.08 1.32-.13 2.71-.16 4.16-.18 1.56.42 3.2-.04 4.82-.2 4.98-.06 10.54.28 16.54s.89 12.41 1.21 19.02c0 1.86.23 3.94.33 5.94.09 2 .05 3.93-.6 5.47-.51.71-1.59.53-2.51-.18-.91-.71-1.65-1.92-1.53-3.05.48-7.25.46-14.47.43-21.35-.04-6.87-.11-13.39-.04-19.28.2-2.12-.42-4.37.05-6.16.09-2.07.15-4.04.22-5.89l.01-1.19c.06-3.36.23-6.49.13-8.96.04-.4.08-.78.1-1.16.15-1.21.27-2.41.39-3.63.11-2.39-1.26-4.87-1.64-7.69-.05-1.13-.29-2.2-.65-3.37-.19-.62-1.38-.27-.54-.72.48-.39 4.76-.84 5.26.07.1.15.43.39.59.59z"/>
      <path d="M107.62 126.66c.06.07.11.11.11.16.02.24-.58.37-.62.58l-.31.25c-.57-.21-.8-.6-1.22-.72-4.07-1.19-1.84 1.66-1.59 3.4-.01.14-.24.41-.22.55-.26-.2-.47-.03-.69.07l-.12-.87c-.05-1.12-.8-1.53-1.16-2.7-.19-.63-.87-1.05-.03-1.51-.2-.75 4.14-.96 4.98-.16.12.11.21.24.27.36.11.15.44.4.6.59zm-2.91 5.59c-.18.25-.39.51-.73.39.41 2.38 1.57 4.91 1.36 7.31l-.01 2.02c.12 2.66-.34 6.01-.47 9.67l-.02.38a148.96 148.96 0 00-.18 6.97c-.18.29-.31.61-.27 1.11.1 1.22.52.93.82 1.29-.35.14-.74.2-.77 1.27-.2 6.31.16 13.71.56 21.61.2 3.96.39 8.03.42 12.11a84.8 84.8 0 01-.63 12.01c-.9-.73-1.59-1.89-1.48-2.99.48-7.24.45-14.49.4-21.37-.04-6.89-.11-13.42-.05-19.3.21-2.12-.38-4.33.09-6.12l.23-5.9.01-1.18c.04-2.49.15-4.87.16-6.93a35.8 35.8 0 00.11-3.16c.03-.39.05-.8.09-1.19.07-.91-.04-2.06.25-2.47.09-1.93-1.11-3.74-1.39-5.94.5.36.85.59 1.5.41z"/>
      <path fill="#000" d="M108.01 125.37c.26.58.48 2.18-.46 2.24.07 1.24-.66 2-.55 3.61.41.72.62 1.03.11 1.62.19 2.98.39 6.19.35 9.89 0 1.81-.19 3.92-.36 6.2a115.14 115.14 0 00-.62 10.12c.36.95.68 1.57-.02 2.51-.02 4.24.11 8.88.36 13.54.25 4.65.63 9.33.93 13.69.32 4.52.59 8.66.7 12.09a50.5 50.5 0 01-.18 7.88c-.4 1.5-1.65 1.94-2.97 1.21-1.3-.73-2.62-2.6-3.26-5.17-.15-.43-.13-.81.04-1 .08-.09.46-1.39.65-3.33.2-1.94.28-4.59.34-7.69.12-6.19-.03-14.16.03-21.6.02-3.56.11-6.92.24-9.99-.62-1.19-.59-1.48.11-2.4.05-2.26.14-4.14.23-5.72l.05-1.71c.12-3.02.23-5.13.17-6.79-.29-.9-.17-1.38-.03-2.04.06.02.15-.49.17-1.22.06-.68.13-1.57.19-2.53.14-2.15-.78-4.63-1.26-6.37-.29-.7-.57-1.09-.16-1.7-.18-1.36-.43-1.4-.93-2.82-1.11-.83-1.08-1.56-.99-2.27s.49.49.24-.32l.6.1c.15.37.17-.51.34-.12-.14.01-1.1 1.21.63 2.58.35 1.45.53 1.52.71 2.95-.21.58-.36.97.2 1.77.57 2.15 1 4.35 1 6.28-.04.89-.1 1.79-.17 2.68 0 .41-.02.83-.05 1.27-.35.56-.15 1.28.04 1.98a69.6 69.6 0 00-.18 6.91l.02.68c-.04 1.97-.05 4.21-.16 6.71-.44.76-.66 1.09-.07 2.24-.1 3.03-.16 6.4-.13 10 .07 7.55.25 15.51.21 21.84-.01 3.17-.07 5.9-.25 7.95-.15 1.67-.12 3.81-.44 4.54 1.02 2.34 1.86 3.72 3.94 2.47.42-3.09-.15-10.84-.66-19.54-.25-4.29-.56-8.94-.76-13.56-.21-4.63-.3-9.23-.25-13.46.58-.93.66-1.3.06-2.45a101.53 101.53 0 01.56-9.25c.21-2.75.47-5.26.43-7.34.02-3.64-.19-6.84-.37-9.81.25-.55.5-.71-.14-1.57-.07-1.15.62-2.45.57-3.44l-.01-.31c.99-.55.61-1.19-.3-2.14.35.18 1.16-.06 1.51.11zm0 0"/>
    </g>
  </g>
</svg>
