<svg xmlns="http://www.w3.org/2000/svg" fill="#d7374a" stroke="#000" viewBox="50 50 200 200">
  <metadata source="http://wappenwiki.org/images/1/11/Elef%C3%A1nthy_Ancient.svg" license="https://creativecommons.org/licenses/by-nc-sa/3.0"/>
  <g id="elephant" stroke-width=".375">
    <path d="M90.84 107c-1.5.71-1.46 2.39-2.1 3.59-1.31 2.47-2.31 5.12-3.36 7.72-.86 2.14-1.81 4.67-2.79 6.85a2.4 2.4 0 00.06 1.69c.22.44.39.89.62 1.54.22.65.35 1.41-.02 1.82-.56.63-2.12.94-3.17 1.08-.63.07-1.35.1-1.99.07-.31.04-.85.05-1.31.01a4.66 4.66 0 01-1.09-.2c-.17-.04-.37-.08-.55-.14-.97.1-1.61-.34-1.61-.62s.01-1.31.6-1.78c.15-.42.54-1.02.54-1.02s.7-1.11.92-1.25c.15-.4 1.7-1.57 1.75-2.07.04-.44 0-1.09.15-1.33-.15-.11.15-1.4.26-1.5.03-.27 1.48-6.22 2.03-8.5 1.17-4.94 1.44-12.34 3.54-16.65l7.36 1.43 1.06 7.07c.01-.01-.79 2.14-.9 2.19zm34.73 2.11c-.77 3.61-3.74 7.99-5.24 11.73a17.64 17.64 0 00-1.15 4.43 8.8 8.8 0 01-.23 4.8c-.01.15-.12.3-.57.5-.45.22-1.79.58-2.83.72-.62.07-1.35.1-1.98.07-.32.04-.85.05-1.32.01a4.66 4.66 0 01-1.08-.2c-.18-.04-.38-.08-.55-.14-.98.1-1.62-.34-1.62-.62s.02-1.31.6-1.78c.15-.42 1.85-2.33 1.85-2.33s.96-.88 1.18-1.02c.15-.4.43-1 .43-1.5 0-.43.3-1.08.42-1.33-.17-.1-.15-1.39-.05-1.5.01-.28.02-.54.06-.81.33-2.38.68-4.73 1.11-7.08.32-1.66.58-3.5.05-5.21-.21-.71-.35-1.05-.37-2.16l2.72-.98 8.81 1.15-.25 3.25z"/>
    <path d="M75.15 131.01c.05 0 .12-.08.05-.83-.06-.75-.62-1.63-1.06-1.55m3.96 2.73c-.01-.35-.32-1.85-1.17-1.85-.85 0-1.2 1.22-1.23 1.64m34.9-.14c.05 0 .12-.08.05-.83-.06-.75-.62-1.63-1.06-1.55m3.96 2.73c-.01-.35-.32-1.85-1.17-1.85-.85 0-1.2 1.22-1.23 1.64"/>
    <path d="M70.63 75.34c1.96-2.44 4.05-4.87 7.74-4.87 1.77 0 2.8.55 4.56.54 1.51-.04 2.01-.09 4.16-.35 1.82-.22 4.04-.78 4.84-.78.8 0 2.52.17 3.5.43 2.98.8 6.12 1.17 9.22 1.39 2.58.19 5.14.41 6.15.51 7.75 0 13.54 2.83 19.18 6.48a13.05 13.05 0 014 5.15c.75 1.57 2.37 5.16 2.37 5.16a28.28 28.28 0 012.05 7.19c.5 3.01.74 6.07 2.37 8.8.8 1.54.57 2.01.47 3.04.49.46.66 1.26.6 2.52-.03.41.07.84.1 1.25a16 16 0 00.21 1.75c-.29.06-1.35-.82-1.55-1.16-1-1.41-1.14-2.78-1.25-3.13-.32.23.06 1.02-.5 1.45-.5-.81-.57-2.63-.6-3.58-.04-1.5-.2-2.98-.42-4.45-.13-.85-.45-1.67-.54-2.52-.2-1.86-.26-3.72-.5-5.58-.56-3.2-2.05-5.15-2.05-5.15.3 1.2.87 4.63 1.02 6.83.33 4.8-.06 6.58.2 8.58.04 2.04-.22 3.56-.18 5.07.03 1.7-.37 2.94-.34 5.23.02 2.45-.04 3.76-.16 4.77-.42 4.08.13 3.94.05 5.24.17.66.62 3.14.15 4.79-.02.16-.13.31-.58.51-.45.21-2.3.58-3.35.71-.62.08-1.35.1-1.99.08-.3.04-.85.05-1.3.01a4.66 4.66 0 01-1.1-.21c-.17-.04-.37-.08-.54-.14-.98.1-1.62-.34-1.62-.61s.02-1.31.6-1.79a9.9 9.9 0 011.52-2.15c.53-.57.98-1.05 1.2-1.2.16-.4.2-.99.2-1.49 0-.43-.1-1.08.03-1.33-.16-.1-.15-1.4-.05-1.5.01-.28.03-.54.06-.82.33-2.37-.2-3.68-.43-6.61-.1-1.2-.52-2.91-1.5-3.49-.99-.57-1.32-1.85-2.74-3.02-1.18-.96-2.18-1.59-3.65-1.56-1.94.02-3.26.26-5.19.45-2.04.2-4.07.47-6.11.46-2.31-.01-4.61-.35-6.91-.68-.3-.03-1.67-.28-1.67-.28-.66 1.5-.5 3.05-.33 4.6.27 2.82.16 4.6.36 7.45.15 2.23.49 6.3.1 7.73-.13.48 0 1.25.21 1.69.21.44.5.89.73 1.54.22.65.35 1.41-.02 1.82-.56.63-2.12.94-3.17 1.08-.63.07-1.35.1-1.99.07-.31.04-.85.05-1.31.01a4.66 4.66 0 01-1.09-.2c-.17-.05-.37-.08-.55-.15-.97.1-1.61-.33-1.61-.6s.01-1.32.6-1.8c.15-.4.59-1.17.59-1.17s.67-1.11.9-1.25c.15-.4.6-.51.6-1 0-.44-.34-1.09-.22-1.34-.16-.1-.15-1.39-.05-1.5.02-.27-.96-4.44-1.28-5.97a48.66 48.66 0 01-.48-2.64c-.43-2.96-1.21-5.48-1.38-6.59-.18-1.11-.82-2.72-1.14-3.94-1.54-.07-2.85-1.52-3.18-1.88a7.01 7.01 0 01-1.07-1.64 4.46 4.46 0 01-1.83-1.31c-.4-1.12-1.3-1.97-2.19-2.77-.22-.2-.43-.4-.68-.56-.3-.2-.64-.35-.98-.5-.67-.3-.96-.64-1.77-.64a5.16 5.16 0 01-1.32.15c-1.26 0-1.98-.2-3.67.23-.28.27-.76.35-1.15.65-.38.33-.53.11-.56-.07-.05-.26.11-.6.21-.82.29-.59 1.34-1.97 1.52-3.45-1.17.75-3.03.49-4.2 1.4-.83.65-1.2 1.64-1.2 1.64s-1.56 3.2-1.56 5.83 1.43 7.03 4.24 7.03a3.38 3.38 0 003.52-3.41s-.38-.09-.58-.66c-.17-.5.17-.71.03-1.01-.15-.32-.43-.54-.5-.9-.06-.4.2-.78.55-.95.57-.28 1.32-.07 1.57-1.05.06-.25.27-.97.92-1.07.41-.06.69.07.95.43.25.35.3.8.25 1.2-.11 1.19-.8 1.2-.89 2.4-.02.31.1.74.13 1.05.14 1.36.4 2.84-.44 4.04-.34.88-.7 1.65-1.71 2.25-.74.57-1.09 1.4-2.59 1.25-.46-.05-1.8.62-3.04.25-.6-.2-2.05-.13-2.86-1.05-1.22-.4-2.14-.94-2.42-1.94-.44-.6-1.67-1.75-1.69-2.79-.18-.69-.99-2.21-.74-2.94-.15-.7-.61-1.79-.26-2.49.02-.92.09-1.07.09-1.07s-.25-1.23.12-2.11c.18-.93-.3-1.43.11-2.54 0 0-.3-1.79.34-2.74.36-.51.05-1.6 1.18-2.61.33-.59.17-1.7 1.1-2.42.42-.78.73-1.14 1.15-1.93.5-.97.78-2.04 1.16-3.06.15-.43.32-1.03.6-1.39.55-.71 1.57-1.16 2.35-1.77.95-.7 1.55-1.72 1.79-2.04z"/>
    <path fill="none" d="M93.28 130.89c.05 0 .11-.09.05-.84s-.63-1.63-1.06-1.55m3.97 2.74c-.01-.35-.33-1.85-1.18-1.85-.85 0-1.2 1.21-1.22 1.64m32.75-.14c.05 0 .11-.09.05-.84s-.63-1.63-1.06-1.55m3.96 2.74c-.01-.35-.33-1.85-1.18-1.85-.85 0-1.2 1.21-1.22 1.64m5.42-.04c-.06-.34-.55-1.74-1.38-1.63-.84.11-1.04 1.44-1.02 1.86"/>
    <path class="secondary" d="M69.19 91.89c-.2.67-.78 2.12-1.55 3.24-3.35 4.82-7.45 5.4-8.34 5.52s-1.36 0-1.41-.23c-.05-.22.82-.58 1.06-.7 4.65-2.67 6.71-6.67 7.26-8.44.27-.54 1.43-.68 2.13-.52.51.13 1.04.54.85 1.13z"/>
    <path fill="#fff" d="M68.61 81.15c.03.46.24.96.67 1.14.36.16.78.05 1.13-.13.17-.08.32-.18.45-.31.32-.31.4-.72.54-1.15-.99-.07-1.85.1-2.82.29l.03.16z"/>
    <path fill="none" d="M78.36 81.11c1.04 1.05 1.53 2.5 1.84 3.94.09.42.13.85.16 1.27.18 1.7.5 3.42 1.18 4.98s1.8 3.06 3.22 4.01c.45-.87 1.42-1.3 2.65-1.16a3.7 3.7 0 01.02-3.59c.13-.2.28-.38.47-.53.68-.55 1.7-.63 2.61-.34-.57-.54-.98-1.3-.9-1.98.05-.58.3-1.36.7-1.81a3.4 3.4 0 012.8-1.25 3.15 3.15 0 01-.8-1.59c-.05-.26 0-.53.04-.8a2.95 2.95 0 011.15-1.86c.54-.4 1.39-.61 2.01-.66l-1.22-.48a14.43 14.43 0 01-1.44-.58 8.86 8.86 0 01-2.57-1.7c-.8-.78-1.32-1.78-2.03-2.63"/>
    <path fill="none" d="M77.42 77.94a12.5 12.5 0 016.33 4.77c.18.26.37.53.58.76.7.77 2.52 1.27 3.1 1.18-.1.3-.32.74-.8.96a3.2 3.2 0 01-2.11.08"/>
    <g fill="#000" stroke="none">
      <path d="M86.36 100.7l.02.06.01.09.01.13a3.26 3.26 0 01-.06.72c-.1.59-.34 1.32-.6 2.04-.27.72-.57 1.42-.79 1.95l-.26.64-.09.25-.03-.02.07-.25.23-.65.68-1.99c.23-.72.42-1.46.48-2 .03-.28.03-.5.01-.66l-.01-.09-.02-.07v-.06l.35-.09zm3.15 5.06c.08.27.04.54 0 .79a4.73 4.73 0 01-.22.75l-.29.73-.32.7-.04-.02c.03-.26.09-.52.16-.76l.25-.74.27-.72c.07-.23.16-.46.2-.73zm-1.16-3.2l.02.1v.14a.8.8 0 01.02.17l-.01.42-.06.46c-.05.31-.13.61-.2.84l-.08.37H88l.04-.39c.03-.22.05-.53.06-.85 0-.15.02-.3 0-.45 0-.13-.01-.27-.03-.37l-.03-.14c-.01-.04-.01-.07-.03-.1l-.03-.1.37-.1zM77.12 128.8c-.1.07-.22.15-.3.24a1.63 1.63 0 00-.22.28 1.58 1.58 0 00-.16.33c-.04.11-.09.24-.1.34l-.36-.1c.06-.14.12-.25.2-.38.07-.11.16-.23.26-.31a1.86 1.86 0 01.66-.44l.02.04zm.3-6l.05-.03.1-.02.1-.02h.12l.11.02a3.95 3.95 0 01.85.25l-.01.03s-.31-.03-.63-.02l-.22.01-.1.01-.08.03c-.02.01-.05.01-.05.03h-.02l-.04.05-.19-.34zm.27-1.5l.04-.02h.04l.07-.02h.18c.06 0 .12.03.17.04.24.07.4.21.4.21l-.01.04-.13-.03a1.24 1.24 0 00-.28-.01.45.45 0 00-.14.03c-.03 0-.04 0-.06.02-.02.01-.04.01-.05.03l-.1.06-.13-.35zm38.95-15.53l.39.92a5.5 5.5 0 01.52 1.95c.03.33.02.68-.08 1h-.07a7.73 7.73 0 00-.16-.95 26.82 26.82 0 00-.24-.94 21.63 21.63 0 01-.25-.96 3.83 3.83 0 01-.12-1l.01-.02zm5.93 6.85c.05.13.07.28.05.4a4.36 4.36 0 01-.42 1.13l-.43.67-.44.65-.04-.01c.06-.26.17-.51.3-.75l.39-.69a8.73 8.73 0 00.37-.67c.12-.23.22-.46.22-.73zm-10 16.18c-.1.07-.2.15-.28.24a1.63 1.63 0 00-.22.28 1.58 1.58 0 00-.17.33l-.1.34-.36-.1c.06-.14.13-.25.2-.38.08-.11.16-.23.26-.31.1-.1.2-.19.32-.26.1-.08.23-.14.35-.18v.04zm1.43-3.31l-.21-.07a2.48 2.48 0 00-.47-.08.84.84 0 00-.25 0 5.98 5.98 0 00-.2.03.64.64 0 00-.13.05l-.05.03-.14-.35.08-.01a.76.76 0 01.19-.03l.26.01c.09.02.19.04.27.08.18.06.34.15.47.21l.2.1-.02.03zm3.84-.93l.25.03c.15.03.34.06.54.13.1.04.19.08.27.13l.13.07.1.08.15.12.05.05-.29.24-.04-.05a.48.48 0 00-.1-.12l-.07-.08-.09-.09c-.06-.06-.14-.11-.21-.16-.15-.1-.33-.19-.46-.24l-.23-.07v-.04zm-4.46-2.25l.05-.02c.01-.02.06-.03.09-.04l.1-.03.1-.01h.12l.24.03c.32.05.62.13.62.13v.04s-.31-.01-.62.03c-.08 0-.15.02-.22.03-.03.02-.06.02-.1.03l-.07.02c-.01.02-.05.02-.05.03l-.03.01-.03.04-.2-.29zm-.03-1.51l.04-.02h.04l.07-.03c.03-.02.05-.02.08-.02h.09c.06 0 .1 0 .17.02a1 1 0 01.41.16l-.01.04-.12-.02c-.07 0-.18 0-.27.03l-.12.04a.27.27 0 00-.09.05.91.91 0 00-.09.07l-.2-.32zM85.2 98.16l.24.69.13.34c.05.1.1.21.15.27l-.33.2a1.87 1.87 0 01-.11-.38c-.03-.13-.04-.25-.05-.37l-.08-.72.05-.03zm2.82 1.15c0 .35.08.7.2 1.04a6.19 6.19 0 001.7 2.59l-.24.27a6.6 6.6 0 01-.7-.86 7.4 7.4 0 01-.53-.95 5.87 5.87 0 01-.36-1.03 3.46 3.46 0 01-.11-1.07l.04.01zm13.9-5.29a7.4 7.4 0 00-.3 1.4c-.07.46-.08.93-.1 1.4 0 .96.08 1.9.08 2.87a11.05 11.05 0 01-.36 2.86c-.1.47-.21.94-.34 1.4a27.14 27.14 0 01-.37 1.39l-.36-.1c.25-.93.48-1.84.7-2.76.1-.47.2-.93.27-1.4.08-.47.11-.93.13-1.4.02-.96-.04-1.9-.02-2.87.02-.47.05-.96.15-1.43l.09-.35.05-.18.06-.17c.08-.23.18-.45.28-.67l.05.02zm17.22 9.4c-.82.02-1.65.02-2.47.06-.83.03-1.64.1-2.45.22-.82.13-1.62.29-2.43.45l-2.44.46h-.01a5.1 5.1 0 01-.99 0 3.33 3.33 0 01-.48-.08c-.17-.04-.32-.1-.47-.15a5.5 5.5 0 00-.91-.28 19.97 19.97 0 01-.92-.25v-.06l.95.17a5 5 0 01.95.23 4.98 4.98 0 00.91.17c.31.01.62-.01.92-.05h-.01c.81-.17 1.61-.36 2.43-.52a32.41 32.41 0 012.45-.44c.4-.05.82-.09 1.25-.1l.62-.01h.63c.83.02 1.66.07 2.48.17h-.01zm5.81-23.32c.25.51.52 1 .74 1.54a5.73 5.73 0 01.41 1.67l.07.85c0 .29.02.56 0 .85 0 .56-.02 1.13-.05 1.7h-.07a19 19 0 01-.2-1.69l-.06-.83-.07-.84a16.55 16.55 0 00-.1-.82 9.35 9.35 0 00-.2-.8c-.17-.54-.35-1.08-.48-1.63h.01zm-25.7 19.24a2.64 2.64 0 01.09 1.66 4.8 4.8 0 01-.28.78c-.1.25-.2.48-.28.75h-.07c-.04-.28 0-.58.06-.84.06-.28.15-.53.2-.78.07-.25.13-.5.17-.76l.1-.8.01-.01zm3.86 1.37c.13.22.2.45.25.7a1.96 1.96 0 01-.32 1.48 1.35 1.35 0 01-.6.46l-.04-.05a3.01 3.01 0 00.58-1.21c.05-.22.07-.44.08-.68.02-.23.02-.46.03-.71l.02.01zm27.04 12.34c.09.21.19.4.29.6l.29.59c.09.2.19.41.24.63.02.12.05.23.05.35a.65.65 0 01-.1.34l-.03-.01c.03-.21-.05-.41-.12-.61l-.27-.6a9.3 9.3 0 01-.25-.63 1.89 1.89 0 01-.1-.66zm-31.64-9c0 .2.05.38.14.54a1.7 1.7 0 00.3.45c.13.13.26.25.41.35.15.1.33.16.52.23v.04a1.21 1.21 0 01-1.12-.46 1.58 1.58 0 01-.3-.55c-.04-.19-.06-.42.06-.6zm42.63 4.13l-.23-.22a1.83 1.83 0 01-.2-.23 1.84 1.84 0 01-.3-.53l.04-.01c.12.16.27.28.42.4l.23.15c.08.05.17.1.25.12l-.21.32zm-6.58-18.67L132.98 86l.04-.03 1.88 3.38zm-39.3 39.15c-.1.08-.22.15-.3.24a1.63 1.63 0 00-.22.29 1.58 1.58 0 00-.16.32c-.04.12-.09.24-.1.34l-.37-.1.2-.38c.08-.1.17-.22.27-.3.1-.1.2-.2.31-.27.11-.07.24-.14.35-.17l.01.03zM94 123.6a.59.59 0 01.22-.09l.18-.01.33.02.63.14v.04c-.22 0-.42 0-.63.02l-.29.05a.37.37 0 00-.12.05l-.04.03-.01.02-.26-.27zm0-1.53a.92.92 0 01.5-.05c.17.03.3.09.43.17l-.01.03a1.14 1.14 0 00-.42.02.63.63 0 00-.3.16l-.2-.33zm34.54 6.6c-.1.08-.21.15-.29.24a1.63 1.63 0 00-.22.29 1.58 1.58 0 00-.16.32c-.04.12-.09.24-.1.34l-.37-.1.2-.38c.08-.1.17-.22.27-.3.1-.1.2-.2.31-.27.11-.07.24-.14.35-.17l.01.03zm1.11-3.43a1.64 1.64 0 00-.68-.1.94.94 0 00-.33.06.87.87 0 00-.29.14l-.15-.34a1.42 1.42 0 01.8-.05c.24.04.48.14.68.27l-.03.02zm4.1-.68a1.04 1.04 0 01.85.16.85.85 0 01.3.37.7.7 0 01.04.45h-.06l-.25-.3c-.07-.08-.16-.14-.25-.22l-.3-.21-.16-.11c-.05-.04-.12-.08-.18-.14h.01zm-5.36-2.36a.59.59 0 01.21-.09l.2-.01.32.02.62.14v.04c-.21 0-.41 0-.62.02l-.29.05a.37.37 0 00-.13.05l-.03.03-.02.02-.26-.27zm-.02-1.53a.61.61 0 01.25-.06.74.74 0 01.23.01c.15.03.3.09.42.17l-.02.03a1.07 1.07 0 00-.4.02.63.63 0 00-.16.06.3.3 0 00-.12.1l-.2-.33zM61.69 98c-.16 0-.31.03-.46.07a1.3 1.3 0 00-.4.18l-.19-.33c.35-.16.71-.16 1.05-.13zm16.07-10.27l-.2.3-.22.3c-.15.18-.3.37-.47.54l-.04-.01a1 1 0 01.11-.38 1.8 1.8 0 01.46-.6c.11-.06.23-.12.36-.15zM63.6 85.35c.2.01.36.09.53.16a7.1 7.1 0 011.24.84l-.03.02a7.98 7.98 0 00-.86-.43c-.15-.07-.3-.12-.45-.17-.15-.03-.3-.07-.43-.05v-.37zm.9 3.4a5.14 5.14 0 00-.97-.5 2.39 2.39 0 00-.52-.14.95.95 0 00-.46.03l-.09-.37c.23-.03.44 0 .63.07.19.06.36.13.52.23.33.2.63.42.92.67l-.03.01zm-1.06 2.29a6.45 6.45 0 00-1.58-.33c-.17 0-.35 0-.48.05l-.08-.36c.21-.03.41 0 .6.04s.38.09.55.15c.35.12.69.26 1.03.44h-.04zm-2.55 2.11c.21-.11.41-.14.61-.14a4.3 4.3 0 011.65.31l-.01.04a6.4 6.4 0 00-1.09-.1 3.58 3.58 0 00-.52.04 1.14 1.14 0 00-.44.16l-.2-.31zm1.91 2.64a3.87 3.87 0 00-.49-.05 3.17 3.17 0 00-.48 0 2.75 2.75 0 00-.47.07 1.3 1.3 0 00-.4.18l-.18-.33c.34-.16.7-.16 1.04-.13.18 0 .34.05.5.07.17.04.33.08.5.14l-.02.05zm-.06 5.37a7.69 7.69 0 00-.94.13c-.15.03-.3.07-.44.12a.8.8 0 00-.17.1c-.05.04-.08.08-.08.09l-.35-.15a.66.66 0 01.27-.24c.08-.04.17-.06.26-.09a6 6 0 011.46 0l-.01.04zm-1.21 3.18c.04-.05.07-.06.1-.09l.1-.06.2-.1c.13-.05.26-.1.4-.13l.4-.07.4-.04v.04a4.22 4.22 0 00-1.07.46l-.15.11-.06.07a.64.64 0 00-.04.05l-.28-.24zm2.78 1.9a2.39 2.39 0 00-.53.46.93.93 0 00-.18.28.56.56 0 00-.05.27l-.37-.01a.88.88 0 01.17-.41c.09-.12.19-.2.29-.28a2.83 2.83 0 01.66-.35l.01.04zm1.29 2.99a.98.98 0 01.05-.44c.05-.13.11-.24.17-.35.14-.21.3-.4.5-.56l.02.02c-.14.2-.25.41-.33.64-.03.11-.07.22-.08.32-.02.1 0 .2.02.28l-.35.09zm3.16-.37a4.46 4.46 0 00-.03 1.04c0 .05 0 .1.02.15 0 .03.01.04.03.06 0 .03 0 .02.02.03l-.31.21a.5.5 0 01-.06-.25v-.2l.08-.36a5.34 5.34 0 01.23-.68h.02zm2.42 0c.05.22.1.43.2.62.05.08.1.17.16.23.06.07.12.09.16.08l-.04.37-.12-.03a1.15 1.15 0 00-.1-.07.52.52 0 01-.08-.09c-.02-.02-.03-.06-.06-.08a1.31 1.31 0 01-.12-.35 3.1 3.1 0 01-.04-.68h.04zm2.43-.77c.1.12.22.24.34.32a.46.46 0 00.19.1.22.22 0 00.15.02l-.03.37a.63.63 0 01-.28-.15c-.08-.06-.13-.14-.18-.21a1.8 1.8 0 01-.21-.45h.02zm1.38-1.91c.15.08.32.16.48.18.1.02.17.03.24.02a.32.32 0 00.18-.08l.16.34a.86.86 0 01-.35.02.99.99 0 01-.29-.11 2.12 2.12 0 01-.45-.36l.03-.01zm-8.92-17.43c-.1.25-.22.5-.26.75-.04.25-.01.5.11.7a.67.67 0 00.5.36c.23.03.48-.03.75-.07.14-.01.3-.03.44-.01l.41.03.8.12c.27.03.53.06.8.06.25 0 .52-.04.77-.15a1.53 1.53 0 01-.77.31c-.27.05-.55.05-.82.04a16.13 16.13 0 01-.81-.05c-.14-.01-.27-.01-.39-.03-.13 0-.25 0-.38.03-.25.04-.53.11-.85.06a.96.96 0 01-.45-.19.98.98 0 01-.28-.38 1.3 1.3 0 01-.02-.89c.1-.26.25-.5.45-.69zM73 90.36c.28-.15.5-.37.68-.66.17-.29.3-.6.42-.93-.06.34-.13.68-.26 1.02a2.47 2.47 0 01-.25.47c-.1.15-.24.29-.38.41l-.21-.3zm.03 3.64a2 2 0 00.6-.53 2.57 2.57 0 00.4-.72 2.9 2.9 0 01-.25.82 2.49 2.49 0 01-.54.73L73 94zM69.9 80.79c.02.1-.1.25-.1.53 0 .3.15.57-.11.52-.26-.05-.69-.69-.62-.95l.83-.1zm-3.13-.97a3.6 3.6 0 00.25 1.1c.02.05.05.1.07.18.03.06.05.13.06.2-.07-.03-.12-.07-.18-.11a.86.86 0 01-.17-.14.89.89 0 01-.22-.38c-.04-.15-.05-.3-.03-.45a.82.82 0 01.22-.4zm1.03.03a.6.6 0 01.35.25.92.92 0 01.15.43l.03.16a.2.2 0 00.05.09l.04.03.12-.02.09.36c-.06.01-.14.05-.26.04a.44.44 0 01-.18-.08l-.1-.1a.5.5 0 01-.11-.26.68.68 0 010-.22c0-.12 0-.22-.05-.32s-.1-.2-.15-.35l.02-.01zm3.59.66l.26-.02c.09-.01.17-.01.25-.03.08-.01.17-.02.24-.05a.73.73 0 01.26-.05l.03.03a.34.34 0 01-.18.25c-.08.06-.17.1-.27.14a1.08 1.08 0 01-.29.07 2.04 2.04 0 01-.28.03l-.02-.37zm-1.43-.02a.92.92 0 01.1-.16l.12-.12a.45.45 0 01.12-.08l.18-.08a.36.36 0 01-.03.2.34.34 0 01-.11.15.41.41 0 01-.16.09.31.31 0 01-.22 0zm-.84 1.92a1.52 1.52 0 00-.47.58 1.74 1.74 0 01.18-.81l.29.23zm2.18-.07l.12-.24.1-.2.13-.2.15-.21a.52.52 0 01.03.27.85.85 0 01-.09.25.72.72 0 01-.19.2.37.37 0 01-.25.13zm-.78 1.74l.03-.13.03-.04c.01 0 .02 0 .04.03l.08.09c.02.06.02.1 0 .13-.01.03-.03.05-.06.05s-.05 0-.07-.02a.23.23 0 01-.05-.11zm.52-.24a.23.23 0 01.06-.14c.03-.03.05-.05.09-.05.03-.01.06 0 .1.01.04.02.07.05.11.1a.23.23 0 01-.06.14c-.03.03-.05.05-.09.05l-.1-.01a.34.34 0 01-.11-.1zm.64-.35l.01-.14.01-.05.05-.01h.14c.05.05.06.1.06.13a.2.2 0 01-.05.12.16.16 0 01-.11.04c-.01-.02-.06-.04-.11-.1zm.47-.54l-.01-.13v-.03l.04-.02.12-.02a.17.17 0 01.1.11c.02.04 0 .08-.02.11-.03.03-.06.05-.1.05a.14.14 0 01-.13-.07zm.44-.51a.3.3 0 01-.05-.15l.01-.09a.15.15 0 01.07-.06.32.32 0 01.15-.05c.05.05.07.1.07.13.01.04 0 .08-.01.12-.01.04-.05.06-.09.07-.02.03-.07.04-.15.03zm-3.41-2.9a2.82 2.82 0 011.26-.33 2 2 0 011.26.38h-.63l-.62.01-.62.01c-.21-.02-.43-.03-.65-.07zm4.55 20.45c.09-.08.16-.11.24-.15a.8.8 0 01.22-.08.68.68 0 01.23-.01c.07 0 .15.03.26.03a.2.2 0 01-.07.15l-.1.1a.62.62 0 01-.26.1.92.92 0 01-.26 0 .39.39 0 01-.26-.14zm.69 1.5c.05-.1.07-.18.12-.25a.55.55 0 01.15-.19c.05-.06.11-.1.19-.15.07-.05.15-.07.25-.13a.4.4 0 01-.03.3.71.71 0 01-.15.23.71.71 0 01-.22.15c-.1.05-.2.07-.31.04zm-.04 1.61a1.53 1.53 0 00.71-.31l.19-.17a2.02 2.02 0 00.3-.4l.11-.25.06-.13c.03-.05.04-.1.08-.14.01.1.04.19.04.3 0 .1 0 .2-.03.31a1.08 1.08 0 01-.3.56 1.27 1.27 0 01-.25.2c-.1.07-.2.1-.3.13a.7.7 0 01-.61-.1zm1.02-4.35l.15.36c.05.12.13.23.19.33l.23.3.26.31a1.07 1.07 0 01-.39-.16 1.19 1.19 0 01-.3-.32 1.23 1.23 0 01-.16-.4.82.82 0 01.02-.42zm-8.56-14.76c.05.22.04.47-.01.7a4.09 4.09 0 01-.22.66c-.08.21-.18.41-.27.61-.09.2-.18.42-.25.63a2.08 2.08 0 01.06-.69 5.86 5.86 0 01.23-.65l.26-.61a9.87 9.87 0 00.2-.65zm56.92 23.06a6.82 6.82 0 01-1.38-1.23 9.9 9.9 0 01-1.06-1.5c-.32-.52-.6-1.06-.88-1.58a7.9 7.9 0 00-1-1.49l.05-.05c.47.39.82.91 1.15 1.41.33.52.61 1.05.94 1.55.32.5.66.99 1.06 1.43.4.43.84.82 1.34 1.13l-.22.33zM86.48 95.86c-.04.25-.02.49.01.73l.1.72a9.33 9.33 0 01.1 1.49h-.04l-.17-.72-.14-.74a6.3 6.3 0 01-.05-.75c.01-.24.05-.5.19-.73zm1.61-21.36a8.6 8.6 0 00-1.85-1.77 7.3 7.3 0 00-2.34-1.1 7.53 7.53 0 012.44.93 9.11 9.11 0 012.04 1.69l-.29.25zm-8.45-2.41c.74-.14 1.5-.07 2.24.08a9.11 9.11 0 013.98 2.1 9.63 9.63 0 011.44 1.75c.42.64.74 1.33 1.05 2l.88 2.05c.3.68.62 1.35 1.01 1.98.39.62.9 1.17 1.34 1.77-.5-.55-1.05-1.06-1.49-1.67-.44-.61-.8-1.28-1.13-1.95l-.93-2.04a16.5 16.5 0 00-1.04-1.95 9.42 9.42 0 00-1.38-1.7 9.43 9.43 0 00-3.76-2.19 7.05 7.05 0 00-2.21-.23zm-1.53 1.81a8.68 8.68 0 014.48 1.77c.32.23.66.47.96.74.3.28.59.57.86.88a13.99 13.99 0 011.44 1.97c.2.35.4.7.59 1.07.19.36.35.73.49 1.12.27.76.48 1.55.65 2.34.17.78.33 1.57.55 2.33a8.55 8.55 0 00.91 2.21 7.88 7.88 0 01-.63-1.03 11.17 11.17 0 01-.46-1.12c-.14-.4-.25-.78-.36-1.17-.11-.38-.2-.77-.3-1.16l-.31-1.15a11.95 11.95 0 00-.39-1.13 8.32 8.32 0 00-.49-1.07 14.72 14.72 0 00-2.77-3.84 6.67 6.67 0 00-.45-.38 11.66 11.66 0 00-2.5-1.64 7.09 7.09 0 00-1.12-.44 8.15 8.15 0 00-1.15-.3zm-2.27 1.56a4.4 4.4 0 011.96.29 5.47 5.47 0 011.71 1.04c.5.45.92 1 1.27 1.56s.65 1.18.87 1.81l-.35.13c-.2-.62-.48-1.2-.81-1.77A7.42 7.42 0 0079.33 77a5.54 5.54 0 00-1.6-1.08 4.87 4.87 0 00-1.89-.45zm8.79 10.35A5.02 5.02 0 0083.5 87a4.96 4.96 0 00-.4.71c-.11.25-.2.51-.27.78a4.24 4.24 0 00-.09 1.63c.04.28.11.54.26.77.14.22.35.42.63.5a1.18 1.18 0 01-.72-.44 1.9 1.9 0 01-.33-.8 4.22 4.22 0 01.01-1.73c.06-.28.14-.56.25-.83a5.01 5.01 0 011.57-2.07l.22.3zM72.85 79.2c.23-.13.49-.15.75-.18a5.35 5.35 0 011.54.16l.74.22a7.54 7.54 0 011.41.63 7 7 0 011.22.95l-.26.27a7.72 7.72 0 00-1.14-.94 7.34 7.34 0 00-1.32-.68l-.71-.25a4.71 4.71 0 00-.73-.17 5.11 5.11 0 00-.75-.09c-.26 0-.51 0-.75.08zm-.31-1.36a4.44 4.44 0 011.19-.4c.41-.08.83-.1 1.26-.1.85.03 1.68.2 2.49.43l-.12.35a9.89 9.89 0 00-2.38-.6 5.73 5.73 0 00-1.23 0 4.44 4.44 0 00-1.21.31z"/>
      <path d="M84.03 86.39c.3.45.5.96.61 1.47.13.52.17 1.03.24 1.54.05.51.11 1.01.22 1.51.12.5.28.98.53 1.43a3.68 3.68 0 01-.7-1.38c-.15-.5-.23-1.01-.32-1.51s-.16-1.01-.3-1.49a4.33 4.33 0 00-.6-1.33l.32-.24z"/>
    </g>
  </g>
</svg>
