<svg xmlns="http://www.w3.org/2000/svg" fill="#d7374a" stroke="#000" viewBox="50 50 200 200">
  <metadata source="http://wappenwiki.org" license="https://creativecommons.org/licenses/by-nc-sa/3.0"/>
  <g id="escallop" stroke-width=".375">
    <path stroke-width=".5" d="M106.64 78.61s4.36.63 6.82-2.32c2.45-2.49 1.39-3 3.37-4.27 1.96-1.26 3.89-1.8 3.89-3.8 0-1.69-1.48-1.62-1.66-1.62-2.43 0-1.78.72-9.68 1.9-2.47.12-2.52.05-3.9 0m-10.9.05c-1.37.02-1.44.1-3.92-.02-7.9-1.17-7.24-1.89-9.67-1.89-.18 0-1.67-.25-1.67 1.46 0 1.98 1.9 2.7 3.89 3.94 1.98 1.26.93 1.75 3.38 4.28 2.45 2.94 6.82 2.3 6.82 2.3"/>
    <path stroke-width=".5" d="M101.19 136.93c.95.76 2.03 1.98 4.12 1.84 2.77-.72 2.1-2.1 3.55-2.65 2.01-.8 4.32.16 6.75-1.6 1.4-1.01 1.22-2.18.8-3.17.15-.83.9-1.03 1.8-.99 1.34.07 2.89.72 4.1-.07 2.89-1.84.14-2.27 2.42-3.96 1.46-.94 2.85-.06 4.14-1.48 1.23-1.13.24-3.33-.75-3.85-.45-1.96.97-1.7 1.38-1.75.74-.12 2.58.45 3.7-.79 1.29-1.5-.51-3.06.05-3.8.54-.77 2.55-1.3 2.34-3.2-.22-1.9-1.2-2.43-1.95-2.52-.97-1.75.1-1.51.47-1.7.67-.3 2.8-.98 3.53-2.46.86-1.8-1.12-3.22-.76-4.07.3-.9 2.09-1.92 1.35-3.72-.72-1.8-1.78-1.66-2.88-1.82-1.04.02-2.12-1.12-.9-1.71 5.1-2.65 1-5.49.47-7.3 2.65-2.87.27-4.35-.52-5.3-.8-.94-8.91 8.66-17.62 8.57-8.86 0-9.13-11.13-9.9-16.17-.36-2.16-.76-4.95-1.48-7.52-.99-3.5-2.57-4.9-5.36-4.9-2.81 0-4.38 1.4-5.37 4.9-.72 2.57-1.13 5.38-1.46 7.52-.79 5.04-1.04 16.17-9.93 16.17-8.7.09-16.83-9.5-17.6-8.57-.8.95-3.2 2.45-.55 5.3-.5 1.83-4.62 4.65.49 7.3 1.24.6.14 1.71-.9 1.71-1.1.16-2.14.05-2.88 1.82-.72 1.8 1.06 2.84 1.35 3.72.34.85-1.62 2.29-.76 4.07.72 1.48 2.85 2.16 3.53 2.47.36.18 1.44-.1.47 1.69-.76.09-1.71.6-1.93 2.52-.21 1.9 1.77 2.43 2.3 3.2.58.72-1.22 2.3.08 3.78 1.1 1.23 2.95.69 3.69.81.41.06 1.82-.21 1.37 1.75-1 .52-2 2.75-.74 3.85 1.28 1.39 2.66.52 4.14 1.48 2.3 1.67-.45 2.12 2.45 3.96 1.2.77 2.75.14 4.08.07.9-.04 1.68.16 1.8.99-.41.99-.6 2.16.81 3.17 2.43 1.74 4.77.8 6.75 1.6 1.44.56.78 1.89 3.55 2.66 2.09.15 3.17-1.08 4.12-1.85.36-.3 1.91-.3 2.29 0z"/>
    <g fill="#000" stroke="none" transform="matrix(1.8 0 0 1.8 -39.5 -113)">
      <path d="M73.56 123.08a52.6 52.6 0 01-5.23 12.62c.74-.28 1.12-1.97 1.67-2.7a47.64 47.64 0 003.56-9.92zm-14.7.33c3.16-.6 6.05-2.41 8.18-4.76-2.27 2.18-5.06 3.92-8.18 4.54v.22zm37.08 3.68c-.1-.44-.47-.76-.84-.98-.11.4.9.3 1.15.07-.41.13-.95-.12-1.34-.02.3.33.76.55 1.03.93zm2.2-7.59c-.19-.39-.88-.4-.4-.64 1.11-.87-1.06.1-.08.41.15.1.32.14.48.23zm-7.51 14.21c.2-1.05-.33-1.17.78-.93.67-.08-.4-.16-.61-.25-.5-.23-.12 1.04-.17 1.18zm-8.67 4.95c.34-.41.53-.93.56-1.46-.46.18.45.97.88.95-.44-.2-.75-.61-.94-1.03-.25.35-.23 1.07-.5 1.52zm15.2-27.37c-.18-.26-1.39-.74-.96-.4.34.14 1.25-.94.61-.45-.28.25-1.35.23-.54.55.3.08.62.24.89.3zm-.56 3.34c-2.26.69-4.7.5-7 .48 2.27.3 4.63.35 6.87-.2.2-.07.23-.05.13-.28zm-.4 8.59c-3.12-.6-5.91-2.4-8.18-4.52a15.1 15.1 0 008.17 4.75l.01-.23zm-2.3 5.72c-3.2-.93-5.55-3.52-7.64-5.99-.15-.1-1.8-2.38-.9-1.02 2.13 2.84 4.58 5.83 8.02 7.06.29-.07.52.37.52-.05zm-6.25 6.16c-1.63-.87-2.28-2.82-3.1-4.37a69.75 69.75 0 01-2.96-7.71c1.04 3.81 2.4 7.6 4.53 10.95.27.28 1.2 1.68 1.53 1.13zm-9.39 3.71c-.52-3.91-.43-7.89-.56-11.83-.03-1.02-.02-2.1-.11-3.08-.03 4.65.04 9.3.31 13.94.17.18-.11 1.28.36.97zM59.1 127.09c.2-.45.8-.6 1-.98-.31.02-1.23.04-1.26.08.28.28 1.51.02.95-.04-.31.22-.68.53-.69.94zm-2.2-7.59c.41-.08 1.13-.52.45-.82-.83-.67.1.53.15.28-.2.18-.43.34-.6.54zm7.51 14.21c.05-.44.3-1.5-.41-1.12-.85.07-.56.27.15.15.56-.46-.05.49.26.97zm8.67 4.95c-.25-.47-.33-1.02-.44-1.5-.3.27-.51.83-1 1.01.43-.02.98-.43 1.07-.92-.41 0 0 .75.1 1.04.07.14.14.27.27.37zm-15.2-27.36c.25-.14 1.58-.38 1-.6-.31.13-1.25-.74-.78-.16.19.51 1.33.23.53.3-.25.13-.58.21-.75.46zm7.56 4c-2.41.3-4.85.32-7.28.22.75.5 2.33.18 3.46.2 1.28-.05 2.57-.11 3.82-.42z"/>
      <path d="M66.94 118.5c-1.81 1.5-3.8 2.86-6.1 3.48-.73.2-1.49.31-2.25.32.06.45.88.05 1.22.1 2.66-.41 5.04-1.9 6.97-3.72l.16-.18zm3.25 2.99a35.21 35.21 0 01-8.35 8.46c.32.3.76-.47 1.11-.6 2.6-2 4.92-4.37 6.75-7.1.18-.24.31-.52.49-.76z"/>
      <path d="M67.44 135.29c.78-.25 1.2-1.02 1.68-1.62a30.93 30.93 0 002.73-5.7c.6-1.63 1.17-3.27 1.6-4.95-.17.35-.24.74-.38 1.1a58.18 58.18 0 01-3.03 7.54 12.2 12.2 0 01-2.05 3.08c-.13.24-.72.24-.55.55z"/>
      <path d="M76.96 138.88c.35-1.75.28-3.54.38-5.32.1-3.22.14-6.45.13-9.67-.11.94-.07 1.88-.12 2.83-.11 3.75-.15 7.51-.43 11.26-.01.25-.24.74.04.9z"/>
      <path d="M61.17 129.13c2.28-.58 4.12-2.18 5.73-3.83 1.14-1.2 2.19-2.5 3.11-3.87-.86 1.05-1.7 2.13-2.62 3.12-1.69 1.8-3.6 3.56-6 4.32-.2.05-.28.03-.22.26z"/>
      <path d="M58.36 114.81c1.32.45 2.74.45 4.12.49.96 0 1.93-.05 2.88-.2-.24-.08-.5 0-.76 0-1.2.03-2.41.06-3.61-.06a9.76 9.76 0 01-2.54-.44l-.09.21z"/>
      <path d="M84.83 121.5a26.13 26.13 0 004.05 5.08 34.72 34.72 0 004.13 3.5c.28-.33-.67-.58-.86-.88a35.43 35.43 0 01-7.35-7.73l.01.02.02.01z"/>
      <path d="M81.44 123.08a44.54 44.54 0 005.05 12.73c.3-.39-.5-1.03-.6-1.51a51.94 51.94 0 01-4.45-11.23z"/>
      <path d="M88.09 118.51c1.35 1.38 3 2.43 4.76 3.22 1.13.48 2.35.76 3.58.75-.06-.36-.52-.18-.77-.21-.57-.1-1.14-.18-1.7-.35a16 16 0 01-5.43-3.07c-.13-.1-.37-.3-.44-.34z"/>
      <path d="M89.59 115.31c1.18.34 2.42.34 3.63.42 1.22.04 2.43.06 3.64-.01.04-.42-.6-.07-.85-.17-1.9.06-3.8.02-5.68-.16l-.74-.08z"/>
    </g>
  </g>
</svg>
