<svg xmlns="http://www.w3.org/2000/svg" fill="#d7374a" stroke="#000" viewBox="50 50 200 200">
  <metadata source="http://wappenwiki.org/images/8/81/Essex.svg" license="https://creativecommons.org/licenses/by-nc-sa/3.0"/>
  <g id="falchion" stroke-width=".33">
    <path class="secondary" d="m96.821 122.45 6.226.616s.11-10.703 1.408-25.223c-2.376-.121-4.268-1.947-4.268-4.356 0-2.486 2.024-4.356 4.51-4.356.275 0 .539.022.792.066.869-5.962 1.98-9.57 3.751-14.454-3.806-2.299-8.393-8.844-9.328-13.662-7.436 28.204-3.091 61.369-3.091 61.369z"/>
    <path d="m97.58 133.67 2.09 1.199 1.76-1.199.11-9.57c0-.77-.99-1.21-2.09-1.21-.88 0-1.76.55-1.98 1.21z"/>
    <path d="M104.334 137.19c-.462 1.056-1.606 1.914-2.882 1.947-1.177.033-2.574-.209-3.212-1.155-.737-1.089-.627-3.113-.66-4.774h.077c.341.385 1.089.583 1.859.583.704-.011 1.43-.187 1.804-.55h.121c0 .902-.022 1.639.924 2.057.946.418 1.089-.341 1.639-.022.484.275.693 1.089.33 1.914zm-15.081-16.368c0 1.936 1.705 2.882 3.707 3.179 1.067.132 5.368.374 6.776.374.011 0 2.629-.66 4.4-.627.781.011 1.936.077 2.409.209.407.121 1.056.363 1.056.935 0 .374-.154.418-.341.671-.165.231-.297.308-.297.737 0 .77.649 1.1 1.375 1.1 1.067 0 1.881-.781 1.881-2.09 0-1.936-1.705-2.882-3.707-3.179-1.067-.132-5.368-.374-6.776-.374 0 0-2.629.66-4.4.627-.781-.011-1.936-.077-2.409-.209-.407-.121-1.056-.363-1.056-.935 0-.374.154-.418.341-.671.165-.231.297-.308.297-.737 0-.77-.649-1.1-1.375-1.1-1.067 0-1.881.781-1.881 2.09z"/>
    <path fill="#000" stroke="none" d="M99.725 121.724s-.011-.352-.022-.968v-1.111c0-.429 0-.913.011-1.43l.033-1.694c.011-.605.033-1.232.055-1.892.022-.66.055-1.331.088-2.024.033-.693.066-1.386.11-2.09s.077-1.397.121-2.09c.044-.693.088-1.364.132-2.024.044-.66.099-1.287.143-1.892.055-.605.099-1.166.143-1.694.044-.528.088-1.001.121-1.43.044-.429.077-.792.099-1.1l.088-.957s-.022.352-.077.957c-.022.308-.055.671-.088 1.1-.033.429-.066.902-.099 1.43-.033.528-.077 1.089-.121 1.694-.033.605-.077 1.232-.11 1.892-.044.66-.066 1.331-.11 2.024l-.099 2.09c-.033.704-.055 1.397-.077 2.09-.022.693-.033 1.364-.055 2.024l-.033 1.892c-.011.605-.011 1.166-.011 1.694s0 1.001.011 1.43c0 .429.011.792.022 1.1.011.616.033.957.033.957z"/>
    <path fill="none" stroke-miterlimit="10" d="M97.492 125.662c.187.572 1.089.858 2.024.847.88-.011 1.804-.286 2.013-.847m-4.037 2.431c.187.572 1.089.858 2.024.847.88-.011 1.804-.286 2.013-.847m-4.037 2.398c.187.572 1.089.858 2.024.847.88-.011 1.804-.286 2.013-.847"/>
  </g>
</svg>
