<svg xmlns="http://www.w3.org/2000/svg" fill="#d7374a" stroke="#000" viewBox="50 50 200 200">
  <metadata author="Mukai" source="https://commons.wikimedia.org/wiki/File:Japanese_Crest_Gohonnhone_Oogi.svg" license="https://creativecommons.org/licenses/by-sa/3.0"/>
  <g id="fan" stroke-width=".28">
    <g class="secondary">
      <path d="M82.08 108.43c.06 0 1.52.79 2.36 1.27a4295.14 4295.14 0 0 0 11.06 6.4l1.53.88 6.04 3.56c1.53.84 1.98 1.16 2.11 1.53.1.27.09.41-.05.67-.13.25-.52.53-.74.53l-.62-.31-7.35-4.23a820.42 820.42 0 0 1-6.4-3.67 269.8 269.8 0 0 1-4.63-2.68 173.26 173.26 0 0 0-2.76-1.58c-.15-.1-1.85-1.08-1.97-1.15zm18.5 11.43a.56.56 0 1 0-1.12 0 .56.56 0 0 0 1.13 0z"/>
      <path d="m98.17 118.26-.74-1.27-1.07-1.86a1345.7 1345.7 0 0 1-4.73-8.2c-.39-.7-1.47-2.56-2-3.46-.3-.5-1-1.74-1-1.79 0-.13 1.48-.9 1.6-.84.05.04.65 1.14.84 1.48l.55.96a2528.39 2528.39 0 0 0 7.1 12.32s3.17 5.65 3.7 6.53c1.06 1.8 1.2 2.3.7 2.68-.35.3-.9.27-1.18-.03zm2.42 1.6a.56.56 0 1 0-1.13 0 .56.56 0 0 0 1.13 0z"/>
      <path d="M99.26 118.89c-.05 0-.09-4.41-.09-9.8V97.87h1.75v18.21s0 5.57-.02 6.94c-.03 2.05-.05 2.23-.25 2.43-.28.28-.7.37-.99.22-.39-.23-.49-.46-.49-1.16zm1.33.97a.56.56 0 1 0-1.13 0 .56.56 0 0 0 1.13 0z"/>
      <path d="M100.22 121.21c.05.05-1.81 3.3-2.06 3.6-.2.23-.77.29-1.08.1-.1-.05-.24-.25-.32-.44-.12-.3-.1-.4.18-.96l3.04-5.06c.01-.03.12-.33.35-.74l.74-1.34a26 26 0 0 1 .84-1.46c0-.02.25-.48.56-1.02.98-1.68 1.31-2.26 1.85-3.21.74-1.33.81-1.46 2.2-3.9.7-1.2 1.4-2.4 1.54-2.68.78-1.38 1.55-2.8 1.8-3.06.52-.25 1.17.43 1.54.84 0 .06-.5.92-.64 1.13l-.44.75c-.1.2-.58 1-1.04 1.8a1629.22 1629.22 0 0 0-6.17 10.74zm.37-1.35a.56.56 0 1 0-1.13 0 .56.56 0 0 0 1.13 0z"/>
    </g>
    <path d="M80.66 109.65a2699.85 2699.85 0 0 1-4.87-2.8l-2.2-1.26a3310.42 3310.42 0 0 0-12.76-7.36l-.73-.42.74-1.26a48.43 48.43 0 0 1 5.7-7.66 50.03 50.03 0 0 1 6.41-5.76 25.18 25.18 0 0 1 2.02-1.4c.09-.04.53-.32.98-.62.46-.3 1.15-.72 1.55-.93.4-.2.98-.53 1.3-.71 2.06-1.22 7.02-3.12 10.13-3.89.97-.24 1.68-.38 4.1-.83 1.95-.37 6.37-.58 9.12-.44 3 .15 3.87.25 6.66.76a46 46 0 0 1 20 9.37l1.13.98c2.22 1.9 4.57 4.4 6.46 6.91.68.9 2.86 4.21 2.86 4.33-2 .96-20.95 12.96-21.4 12.27-.37-.64-2.4-3.18-3.2-3.95a20.45 20.45 0 0 0-10.83-5.68 21.49 21.49 0 0 0-6.55-.18 20.95 20.95 0 0 0-15.2 10.09c-.3.5-.57.92-.58.92l-.84-.48z"/>
    <path class="secondary" d="M95.34 123.13c-.54-.27-.67-1.05-.24-1.43.17-.15.8-.5 4.9-2.87a974.94 974.94 0 0 0 7-4.04 1713.76 1713.76 0 0 0 6.74-3.9 4312.3 4312.3 0 0 0 13.96-8.05 2380.27 2380.27 0 0 0 8.82-5.08c2.2-1.28 2.53-1.46 2.56-1.42l.43.71c.4.68.49.92.3.92-.05 0-.47.22-.92.49a649.75 649.75 0 0 1-8.29 4.79l-2.13 1.24-2.85 1.64a765.57 765.57 0 0 0-6.33 3.66c-.23.13-1.07.6-1.86 1.07a68927.32 68927.32 0 0 0-13.7 7.92 37.84 37.84 0 0 0-2.64 1.51l-1.52.88c-.54.31-1 .57-1.03.57a15.97 15.97 0 0 1-2.81 1.53c-.06 0-.24-.07-.4-.14zm5.25-3.27a.56.56 0 0 0-.57-.57.56.56 0 0 0-.56.57.56.56 0 0 0 .56.56.56.56 0 0 0 .57-.56z"/>
  </g>
</svg>
