<svg xmlns="http://www.w3.org/2000/svg" fill="#d7374a" stroke="#000" viewBox="50 50 200 200">
<metadata source="https://commons.wikimedia.org/wiki/File:%D0%9D%D0%97_%D0%9A%D0%94%D0%A8%D0%92_%D0%BA.svg" author="Inkscape'r" license="https://creativecommons.org/publicdomain/zero/1.0"/>
  <g id="flamberge" stroke-width=".13" transform="matrix(.902 -1.27 1.35 .9 -4.4 103)">
    <path d="M28.82 58.1c.1.7.3 1.3.6 1.8.6-.6 1.2-1 2-1.3 1.3-.4 2-1.2 2.5-2 .6-.8 1.6-1.4 2.6-1.7.9-.3 1.7-.9 2.2-1.7 1-1.5 3-.9 4.1-2.3.8-1 1.8-1.7 2.9-2.2 1-.4 1.9-1.1 2.5-2 .5-.7 1.5-1.1 2.3-1.5 1.6-.6 2.1-1.3 3.1-2.5.4-.5 1.1-1.1 2.1-1.4 1.6-.6 2.8-2.2 3.8-3.9-1.1.5-2.1 1.2-2.9 2-1.3 1.2-3.2 1.3-4.3 2.8-1.9 2.4-4.5 1.8-6.1 4.2-1.4 1.9-2.8 1.2-4.2 2.8-1.3 1.5-3.3.8-5.2 3.4-.8 1.2-2.3 1.5-3.3 2.3-1.4 1-2.2 2.1-3.2 2.4-.5.2-1 .5-1.5.8z"/>
    <path d="M30.32 57.3c1.2-.4 1.8-1.4 3.2-2.4 1.3-.9 2.4-1.1 3.3-2.3 1.9-2.6 3.9-1.9 5.2-3.4 1.4-1.5 2.8-.9 4.2-2.8.4-.6.6-.8 1-1.1v0c1-.8 2.2-1 3.3-1.6v0c.8-.4 1.3-.9 1.8-1.5 1.1-1.5 2.9-1.6 4.3-2.8.9-.9 2.1-1.6 2.9-2-.11 0-3.4.7-4 1.5-1 1.4-3.1 1.1-4.2 2.6-1.9 2.6-3.9 1.4-5.6 3.8-1.3 2-3.1.7-5.1 3.2-1.3 1.5-2.7.4-4.8 3.1-.4.5-.9.8-1.5 1-2.6 1-1.5.5-3.3 2.2-.5.5-1.2 1-1.9 1.2-.5.2-1.2.6-1.7.9.3.5.8.9 1.4 1.2v0c.5-.3 1.2-.7 1.5-.8z"/>
    <g class="secondary">
      <path d="M18.6 64.24l.64.91s-.22.14-.34.1l-.5-.7c0-.17.2-.31.2-.31z"/>
      <path d="m 18.9,65.26 -0.5,-0.7 c -0.47,0.32 0,1.02 0.5,0.7 z"/>
      <path d="M19.04 64.98l-.35-.5c-.29-.4 0-1.11.42-1.4l1.43 2.01c-.43.29-1.21.29-1.5-.11z"/>
      <path d="M20.56 65.14l-1.48-2.11c.66.38 1.46-.16 2.52-.65l.53.75c-.88.75-1.68 1.28-1.57 2.01z"/>
      <path d="M22.1 63.08l-.47-.65c-.25-.35.45-1.04.86-1.46l1.25 1.76c-.56.22-1.39.7-1.64.35z"/>
      <path d="M22.49 60.97l1.28 1.81c.29.4.73-.42 1.07-.94l-1.07-1.51c-.62.12-1.53.29-1.28.64z"/>
      <path d="M23.82 60.3l2.5-1.7 1.1 1.5-2.53 1.71c-.42.28-1.49-1.23-1.07-1.51z"/>
      <path d="M28.82 58.1c-2.2-1.4-2.7-3.1-1.8-5.2h-1.3c-.2 0-.6.2-.6.7a8.93 8.93 0 001.7 5.8z"/>
      <path d="M28.82 58.1c.4 2.5 1.8 3.6 4.1 3.6l-.6 1.2c0 .3-.4.5-.8.3a8.93 8.93 0 01-4.7-3.8z"/>
    </g>
  </g>
</svg>
