<svg xmlns="http://www.w3.org/2000/svg" fill="#d7374a" stroke="#000" viewBox="50 50 200 200">
  <metadata source="http://wappenwiki.org/images/1/18/De_Thou.svg" license="https://creativecommons.org/licenses/by-nc-sa/3.0"/>
  <g id="fly" stroke-width=".7">
    <g>
      <path d="M103.3 108.66c1.8.23 3.47.06 5.88 2.3 2.83 2.52 3.61 5.2 4.17 6.47.31.67.67 1.4 1.6 2.01.47.37-2.07 2.7-2.58 2.1-1.87-2.46-1.2-5.9-4.31-8.68-2.24-1.65-3.53-1.34-3.53-1.34"/>
      <path d="M112.57 121.1c1.03 1.4 2.15 3.08 2.24 4.76.08 1.65.47 3.5 1.51 4.7 1.2.11 2.35-.48 2.63-1.2a6.24 6.24 0 0 1-1.62-3.92 12.88 12.88 0 0 0-2.83-5.97c-.48.23-2.04.87-1.93 1.63z"/>
      <path d="M116.32 130.06a14.06 14.06 0 0 1 2.46 5.62c.5 2.52 3.84 4.2 4.34 4.29.5.08-2.3-2.6-2.49-4.73a15.8 15.8 0 0 0-2.01-6.02c-.98-.42-2.16.05-2.3.84z"/>
      <path d="M104.53 90.91c1.26-1 2.19-2.27 5.13-2.43 3.38-.28 5.54.78 6.72 1.17.64.23 1.31.42 2.3.2.52-.09.47 3-.23 2.97-2.77-.31-4.6-2.89-8.32-2.58-2.46.42-3.05 1.48-3.05 1.48"/>
      <path d="M118.28 92.45c1.57.2 4.62-.22 6.05-.73a7.22 7.22 0 0 0 3.7-2.49c-.2-1.06-1.01-1.9-1.71-1.96a5.46 5.46 0 0 1-3 2.38 11.09 11.09 0 0 1-4.9.5c-.17.48-.7 1.91-.14 2.3z"/>
      <path d="M127.55 89.4c1.43-1.65 2.63-2.1 4.06-2.72 2.15-.64 5.12-.22 5.26-.67.14-.45-3.36-1.85-5.26-1.48-2.72.53-4 1.87-5.24 3-.2.95.48 1.9 1.18 1.87z"/>
      <path d="M106.97 85.9c1.09-3.02 3.22-4.09 4.03-4.93.45-.45.9-.98 1.06-1.9.14-.5 2.78.78 2.5 1.37-1.35 2.27-4.68 2.97-5.88 6.33"/>
      <path d="M114.14 80.38c.78-1.28 1.09-2.1 1.65-3.6.53-1.52.95-5.19.25-6.34-1-.22-2.04.14-2.38.73.5.73.84 3.05.08 4.76-.75 1.74-.8 2.13-1.5 3.45.33.33 1.34 1.34 1.9 1z"/>
      <path d="M115.98 70.92c-.86-1.9-.84-3.84-.36-4.96.78-2.04 2.88-4 2.55-4.28-.34-.28-3.56 2.13-4.37 3.78-.84 1.65-.36 4.23.14 5.74.73.56 1.8.36 2.04-.28z"/>
    </g>
    <g>
      <path d="M96.78 108.66c-1.8.23-3.48.06-5.88 2.3-2.83 2.52-3.62 5.2-4.18 6.47-.3.67-.67 1.4-1.6 2.01-.47.37 2.08 2.7 2.58 2.1 1.88-2.46 1.2-5.9 4.32-8.68 2.24-1.65 3.52-1.34 3.52-1.34"/>
      <path d="M87.48 121.1c-1.04 1.4-2.16 3.08-2.24 4.76a7.98 7.98 0 0 1-1.51 4.7c-1.2.11-2.35-.48-2.63-1.2a6.25 6.25 0 0 0 1.62-3.92 12.88 12.88 0 0 1 2.83-5.97c.5.23 2.07.87 1.93 1.63z"/>
      <path d="M83.73 130.06a14.06 14.06 0 0 0-2.47 5.62c-.5 2.52-3.83 4.2-4.34 4.29-.5.08 2.3-2.6 2.5-4.73.2-2.13 1.09-4.43 2.01-6.02.98-.42 2.16.05 2.3.84z"/>
      <path d="M95.52 90.91c-1.26-1-2.19-2.27-5.13-2.43-3.39-.28-5.54.78-6.72 1.17-.64.23-1.31.42-2.3.2-.53-.09-.47 3 .23 2.97 2.77-.31 4.6-2.89 8.32-2.58 2.46.42 3.05 1.46 3.05 1.46"/>
      <path d="M81.77 92.45a18.2 18.2 0 0 1-6.05-.73c-1.4-.5-2.91-1.31-3.7-2.49.2-1.06 1.01-1.9 1.71-1.96a5.46 5.46 0 0 0 3 2.38 11.09 11.09 0 0 0 4.9.5c.17.48.73 1.91.14 2.3z"/>
      <path d="M72.5 89.4c-1.43-1.65-2.63-2.1-4.06-2.72-2.16-.64-5.12-.22-5.26-.67-.14-.45 3.36-1.85 5.26-1.48 2.72.53 4 1.87 5.24 3 .2.95-.45 1.9-1.18 1.87z"/>
      <path d="M93.1 85.9c-1.08-3.02-3.21-4.09-4.02-4.93a3.39 3.39 0 0 1-1.07-1.9c-.14-.5-2.77.78-2.49 1.37 1.34 2.27 4.68 2.97 5.88 6.33"/>
      <path d="M85.91 80.38a17.75 17.75 0 0 1-1.65-3.6c-.53-1.52-.95-5.19-.25-6.34 1-.22 2.04.14 2.38.73-.5.73-.84 3.05-.09 4.76.76 1.74.82 2.13 1.52 3.45-.31.33-1.35 1.34-1.9 1z"/>
      <path d="M84.06 70.92c.87-1.9.84-3.84.37-4.96-.79-2.04-2.89-4-2.55-4.28.34-.28 3.56 2.13 4.37 3.78.84 1.65.36 4.23-.14 5.74-.7.56-1.8.36-2.05-.28z"/>
    </g>
    <path d="M105.76 61.68c-3.27 2.83-2.4 5.85-4.53 8.8-2.19 3.21-6.64 5.09-6.83 4.78 0-.28 3.19-2.74 4.73-5.2 2.15-3.12 2.38-6.17 5.57-8.91.9-.65 3.78-1.93 1.06.53z"/>
    <path d="M95.43 61.15c3.17 2.74 3.39 5.8 5.57 8.9 1.54 2.47 4.74 4.93 4.74 5.21-.2.28-4.65-1.57-6.84-4.79-2.1-2.94-1.26-5.99-4.53-8.79-2.72-2.46.17-1.18 1.06-.53z"/>
    <path d="M94.4 83.16c-1.52 4.76-4.68 26.9-4.68 33.9 0 2.75 2.18 18.2 10.33 18.2s10.33-15.28 10.33-18.2c0-6.94-3.19-29.09-4.7-33.9H94.4z"/>
    <g stroke="none" fill="#000">
      <path d="M95.18 131.93a24.92 24.92 0 0 0 2.44.48l1.2.14 1.2.05c.82 0 1.63-.08 2.44-.22s1.62-.28 2.44-.48l.05.09a9.02 9.02 0 0 1-3.61 1.2 9.94 9.94 0 0 1-3.84-.25 8.12 8.12 0 0 1-2.32-1z"/>
      <path d="M92.18 126a14.92 14.92 0 0 0 7.9 1.93 15.9 15.9 0 0 0 6-1.07l.94-.39.45-.22.23-.11.25-.14.03.1-.09.1-.11.08-.2.16-.42.31a9.91 9.91 0 0 1-2.88 1.32 14.28 14.28 0 0 1-8.4-.03 11.09 11.09 0 0 1-3.7-2.04z"/>
      <path d="M90.56 119.78a13.72 13.72 0 0 0 4.6 1.65 28.06 28.06 0 0 0 9.68 0c.78-.17 1.6-.33 2.35-.61l1.15-.45.56-.25.28-.14.28-.17.03.11-.11.08-.12.12-.25.2-.53.33c-.36.22-.73.39-1.12.59a13.94 13.94 0 0 1-2.38.78 21.28 21.28 0 0 1-9.97-.06c-.81-.22-1.6-.47-2.38-.84a9.07 9.07 0 0 1-2.07-1.34z"/>
      <path d="M90.2 113.14c.36.26.7.48 1.09.65l.59.25.58.22a15.12 15.12 0 0 0 2.47.62 30.44 30.44 0 0 0 12.6-.62c.39-.14.78-.28 1.17-.47l.56-.31.28-.17.14-.08.14-.11.03.1-.08.12-.11.11-.26.23-.53.36-1.15.62a12.88 12.88 0 0 1-2.49.78 23.04 23.04 0 0 1-5.18.5l-1.29-.02-1.28-.09a26 26 0 0 1-2.58-.42l-1.26-.33a11.14 11.14 0 0 1-2.38-1.1c-.42-.22-.78-.5-1.06-.84z"/>
      <path d="M91.12 105.78c.62.48 1.34.73 2.07.95.73.23 1.49.37 2.24.48l1.15.14 1.15.08 1.15.06h1.14l1.18-.03 1.15-.06 1.15-.08.56-.08.56-.09a15.26 15.26 0 0 0 3.3-.9l.5-.25.26-.14.1-.08.06-.06.03-.02.06-.03.03.11v.03l-.03.03-.06.05-.11.11-.22.2-.48.34a12.52 12.52 0 0 1-3.33 1.23 23.83 23.83 0 0 1-9.35 0c-.79-.14-1.54-.4-2.27-.67a6.48 6.48 0 0 1-1.99-1.32z"/>
      <path d="M92.1 99.84a65.8 65.8 0 0 0 7.95.54c.67 0 1.32 0 1.99-.06l1.99-.11c1.31-.11 2.66-.23 3.97-.42l.03.11a27.89 27.89 0 0 1-15.93-.06z"/>
      <path d="M92.1 91.58a65.8 65.8 0 0 0 7.95.54c.67 0 1.32 0 1.99-.06l1.99-.11c1.31-.11 2.66-.23 3.97-.42l.03.11a27.89 27.89 0 0 1-15.93-.06z"/>
    </g>
    <path d="M100.02 82.18c-1.37 0-8.68.86-8.68-7.2 0-2.13 1.82-3.9 3.5-4.68 2.36-1.09 5.27-1.17 5.27-1.17s2.83.08 5.18 1.17c1.68.79 3.5 2.55 3.5 4.68 0 8.06-7.4 7.2-8.77 7.2z"/>
    <path d="M93.1 87.86c0-.14-.19-1.99-.19-5.18s3.2-6.36 7.11-6.36 7.12 3.17 7.12 6.36-.2 5.04-.2 5.18c0 0-2.44-1.1-6.86-1.1s-6.97 1.1-6.97 1.1z"/>
    <path class="tertiary" d="M110.66 70.33c-1.93-2.6-4.87-2.71-6.52-1.48-2.1 1.57-1.18 3.97.53 6.24 1.6 2.16 4.29 2.94 5.6 1.93 1.65-1.2 1.82-4.76.4-6.69z"/>
    <path class="tertiary" d="M89.86 77.05c1.32.98 4 .2 5.6-1.93 1.68-2.27 2.63-4.68.53-6.24-1.65-1.24-4.59-1.12-6.52 1.48-1.46 1.9-1.26 5.46.39 6.7z"/>
    <path class="secondary" d="M92.91 110.46a23.21 23.21 0 0 1-6.91 10.83 16.52 16.52 0 0 1-9.66 3.42c-1.43-.34-4.1-4.54-2.75-10.42A49.36 49.36 0 0 1 83.5 94.8c4.6-5.57 8.07-8.23 9.36-9.85.61-.9 1.82-2.07 2.74-1.8 1.82.51 1.34 5.55 1.34 5.55s-1.62 12.63-4.03 21.76z"/>
    <path class="secondary" d="M103.08 88.67s-.48-5.01 1.34-5.54c.95-.25 2.13.92 2.74 1.79 1.3 1.65 4.76 4.28 9.36 9.86a49.36 49.36 0 0 1 9.9 19.48c1.35 5.88-1.3 10.08-2.74 10.42-.72.17-5.74-.36-9.66-3.42a23.21 23.21 0 0 1-6.91-10.83c-2.35-9.1-4.03-21.76-4.03-21.76z"/>
    <g stroke="none" fill="#000">
      <path d="m122.54 122.1-1.32-3.1-1.29-3.11-1.29-3.11-1.26-3.14.12.14-2.52-1.93-2.52-1.93-.48-.36.56-.23 1.37-.56-.2.45-1.4-3.42-1.37-3.44v.03l-1.37-2.83-1.34-2.86-1.35-2.85-1.31-2.86.08-.05 1.49 2.77a87.92 87.92 0 0 1 1.45 2.8l1.46 2.8 1.43 2.8 1.42 3.41 1.4 3.42.14.34-.33.14-1.37.56.08-.6 2.5 1.97 2.48 1.96.06.05.03.09 1.17 3.16 1.15 3.17 1.15 3.16c.45 1.04.84 2.1 1.18 3.16z"/>
      <path d="M109.88 108.78c.64.5 1.23 1 1.82 1.54l1.7 1.65-.13-.09 1.51.48 1.48.5c.98.37 2 .73 2.94 1.18l-.02.11a28.84 28.84 0 0 1-4.6-1.15l-1.5-.47-.1-.03-.05-.06-1.57-1.76a19.32 19.32 0 0 1-1.48-1.9z"/>
      <path d="M113.21 112.28a15.68 15.68 0 0 1 .53 1.87l.37 1.9.22 1.94c.06.64.09 1.29.03 1.96l-.11.03a22.6 22.6 0 0 1-1.04-5.71 9.44 9.44 0 0 1 0-2z"/>
      <path d="M112.68 105.64a10.84 10.84 0 0 1-1.62 2.3 16.18 16.18 0 0 1-2.1 1.84l-.09-.08a16.35 16.35 0 0 1 2.66-3.22c.37-.3.73-.59 1.15-.84z"/>
      <path d="m125.5 117.26-1.31-3.08-1.29-3.1-2.5-6.22.06.08-1.56-1.93-1.57-1.93-3.08-3.9.22.12-1.57-.09-1.56-.11.14-.06-1.8 1.43-1.82 1.4-.05-.08 1.7-1.54 1.71-1.54.06-.06h3.36l.08.11 3.14 3.87 1.57 1.93 1.54 1.96.03.06.02.05 2.3 6.3 1.12 3.17c.36 1.03.76 2.07 1.06 3.16z"/>
      <path d="M120.6 117.34a11.2 11.2 0 0 1 2.47-4.53l.08.05c-.08.45-.25.84-.42 1.24l-.56 1.14-.7 1.1c-.25.39-.53.72-.87 1z"/>
      <path d="M119.74 104.77a12.4 12.4 0 0 1-2.83.53c-.48.03-.95.06-1.43.03-.48 0-.95-.05-1.43-.14v-.11c.48-.17.93-.25 1.4-.34.48-.08.95-.1 1.43-.14l1.43-.02c.47.02.95.08 1.43.2z"/>
      <path d="m77.51 122.1 1.12-3.19a105.28 105.28 0 0 1 1.15-3.16l1.15-3.17 1.17-3.16.03-.08.06-.06 2.49-1.96 2.5-1.96.08.59-1.38-.56-.33-.14.14-.34 1.4-3.41 1.43-3.42 1.42-2.8 1.46-2.8 1.46-2.8 1.48-2.77.08.05a129.64 129.64 0 0 1-1.31 2.86l-1.35 2.86-1.34 2.85-1.37 2.83v-.03l-1.37 3.45-1.4 3.41-.2-.45 1.37.56.56.23-.47.36-2.52 1.93-2.52 1.94.1-.14-1.17 3.16-1.26 3.14-1.29 3.1-1.37 3.08z"/>
      <path d="m90.2 108.8-1.49 1.88c-.5.62-1.03 1.2-1.57 1.76l-.05.06-.09.03a31.36 31.36 0 0 1-1.5.47l-1.52.45a28.84 28.84 0 0 1-3.08.7l-.03-.11c.95-.45 1.96-.81 2.94-1.18l1.49-.5 1.5-.48-.13.09 1.7-1.65c.6-.54 1.18-1.07 1.83-1.52z"/>
      <path d="M86.9 112.3c.05.68.02 1.32-.04 1.96-.02.65-.1 1.3-.2 1.94a20.78 20.78 0 0 1-.83 3.78l-.11-.03c-.03-.67 0-1.32.02-1.96.06-.65.12-1.29.23-1.93.11-.65.2-1.3.36-1.9.14-.62.31-1.24.56-1.86z"/>
      <path d="M87.4 105.64a7 7 0 0 1 1.12.87c.36.3.67.64 1 .98a16.35 16.35 0 0 1 1.66 2.24l-.09.08c-.42-.25-.75-.56-1.12-.87a16.18 16.18 0 0 1-1.85-2.07c-.28-.39-.53-.78-.72-1.23z"/>
      <path d="M74.54 117.23c.34-1.06.73-2.13 1.1-3.16l1.12-3.17 2.3-6.3.02-.05.03-.06 1.54-1.96 1.57-1.93 3.13-3.86.09-.12h3.36l.05.06 1.71 1.54 1.7 1.54-.05.08-1.82-1.4-1.79-1.42.14.05-1.57.11-1.57.09.23-.11-3.08 3.89-1.57 1.93-1.57 1.93.06-.08a575.23 575.23 0 0 1-3.78 9.32c-.45 1.04-.87 2.07-1.35 3.08z"/>
      <path d="M79.44 117.37a10.44 10.44 0 0 1-2.52-4.48l.09-.05a11.48 11.48 0 0 1 2.43 4.53z"/>
      <path d="M80.31 104.77c.48-.11.95-.14 1.43-.17.48-.02.95 0 1.43.03l1.43.14c.47.09.95.17 1.4.34v.11c-.48.08-.96.14-1.43.14-.48.03-.95 0-1.43-.03l-1.43-.17c-.45-.1-.92-.22-1.4-.39z"/>
    </g>
  </g>
</svg>
