<svg xmlns="http://www.w3.org/2000/svg" fill="#d7374a" stroke="#000" viewBox="50 50 200 200">
<metadata source="https://commons.wikimedia.org/wiki/File:Meuble_h%C3%A9raldique_Roue_dent%C3%A9e_de_12_pi%C3%A8ces.svg" author="Jean-Paul GIBERT" license="https://creativecommons.org/licenses/by/4.0"/>
  <g id="gear" stroke-width=".6" transform="translate(60.5 60.5) scale(1.85)">
    <path d="M18.47.4l.43 3.2-4.43 1.2-1.24-3-4.82 2.78 1.98 2.57-3.24 3.24L4.58 8.4 1.8 13.23l3 1.24-1.2 4.42-3.2-.42v5.56l3.2-.42 1.2 4.42-3 1.24 2.78 4.82 2.57-1.98 3.24 3.24-1.98 2.57 4.82 2.78 1.24-2.99 4.43 1.19-.43 3.2h5.56l-.42-3.2 4.42-1.19 1.24 3 4.82-2.8-1.98-2.56 3.24-3.24 2.57 1.98 2.78-4.82-2.99-1.24 1.19-4.42 3.2.42v-5.56l-3.2.42-1.19-4.42 3-1.24-2.8-4.82-2.56 1.98-3.24-3.24 1.98-2.57-4.82-2.78-1.24 3-4.42-1.2.42-3.2zm2.78 9.84a11.01 11.01 0 0111.01 11.01 11.01 11.01 0 01-11 11.01 11.01 11.01 0 01-11.02-11 11.01 11.01 0 0111.01-11.02z"/>
  </g>
</svg>
