<svg xmlns="http://www.w3.org/2000/svg" fill="#d7374a" stroke="#000" viewBox="50 50 200 200">
  <metadata source="http://wappenwiki.org/images/4/4d/Istria.svg" license="https://creativecommons.org/licenses/by-nc-sa/3.0"/>
  <g id="goat" stroke-width=".36">
    <path class="secondary" d="M88.68 132.96s0 2.21-.4 2.81c-.92 1.26-3.07 1.75-4.18 1.56-.33-.07-.26-.78.29-1.73 0 0-.88.6-1.59.4.48-.95 2.06-2.34 2.74-4.12.36-.4.78-.67 1.4-.69.62 0 .53-.67.93.24.35.7.81 1.53.81 1.53zm42.45 0s0 2.21-.4 2.81c-.91 1.26-3.07 1.75-4.18 1.56-.33-.07-.26-.78.28-1.73 0 0-.87.6-1.57.4.47-.95 2.05-2.34 2.73-4.12.35-.4.78-.67 1.4-.69.62 0 .52-.67.94.24.34.7.8 1.53.8 1.53zm-18.24 0s0 2.21-.4 2.81c-.91 1.26-3.07 1.75-4.18 1.56-.33-.07-.26-.78.28-1.73 0 0-.87.6-1.57.4.47-.95 2.05-2.34 2.73-4.12.35-.4.78-.67 1.4-.69.62 0 .52-.67.94.24.34.7.8 1.53.8 1.53zm-35.17-.48s-.44 2.19-.95 2.68c-1.14 1.06-3.35 1.11-4.39.7-.32-.12-.1-.81.63-1.64 0 0-.98.42-1.64.1.67-.86 2.48-1.9 3.5-3.5.44-.33.9-.51 1.52-.42.6.12.64-.57.87.42.17.76.46 1.66.46 1.66z"/>
    <path d="M88.15 103.89l-8.3-.36c.3.95.3 5.21-.09 6.8-.3 2.12-1.02 3.52-.8 4.72 0 0-.63 1.77-.64 2.58-.01.73.03 1.24-.01 1.97-.03.57.24 1 .04 1.58-.43 1.18-.61 2.43-.96 3.65-.36 1.21-.55 1.61-.95 2.8-.48 1.41-1.62 2.1-1.79 3.31 2.05-.23 3.07 1.51 3.07 1.51s.63-.16.66-.43c.08-.7-.66-.76-.54-1.26.08-.21-.02-.44.47-.6.74-.19 1 .46 1.65.17.38-.2.5-.43.63-.74.17-.6-1.3-1-.71-2.34.19-.48.55-1.24.85-2.52.3-1.27.42-3.13.84-3.52.56-.54.83-1.12 1.26-1.73.51-1.01.66-1.71.53-2.83-.02-.29-.08-.21-.04-.44.06-.24-.1-.95-.01-1.2-.21-1.05 2.2-4.14 3.43-5.97.69-1.05 1.62-3.49 1.4-5.15z"/>
    <path class="secondary" d="M82.94 70.05s2.68-2.22 6.9-3.08c1.5-.3 3.63-.35 5.16-.28 2.72.12 4.86.65 7.22 1.35 2.38.7 4.24 2.06 6.63 2.7s4.93.47 7.15-.57c.18-.08.54-.32.48-.46-.12-.23-.6-.1-1.26 0a8.87 8.87 0 01-4.48-.33 7.31 7.31 0 01-2.54-1.66c-.45-.6-.69-.97-1.3-1.46-.61-.5-1.82-1.06-2.61-.88-.3-.58-.88-1.16-2.01-1.5-1.12-.35-2.05-.22-2.31-.21-.3-.38-1.62-.9-2.81-.86-.83.05-1.21.02-1.53.2-.3-.35-1.73-.67-2.5-.65a4.78 4.78 0 00-2.22.53 5.05 5.05 0 00-2.91-.05c-1.27.35-2.19.98-2.25 1.45-1.96-.5-4.35 1.22-4.47 1.66-.47-.05-2.26.25-2.54.92"/>
    <path d="M71.45 86.64c-.33.66.06 1.12-.67 1.95-.19.22-.1.3.05.25 1.4-.33 1.54-1.85 1.96-2.05m-1.8-.57c-.06-.37.18-1.08.46-1.37l.79-.84c.56-.57.53-.57.99-1.21.61-.93.83-1.9.43-2.35l3.4.29c-.59 1.42-4.3 5.15-6.08 5.47zm52.7 24.87c-.59 1.39-1.25 1.82-1.78 3.68-.05.22-.19.92-.19 1.14-.02.26.07.5.12.76.1.52.26 1.24-.1 1.63-.95.95-1.86 1.33-2.73 2.35-1.45 1.69-3.12 3.98-3.6 6.15-.4 1.8.55 2.61.3 3.2-.14.29-.3.53-.68.66-.67.23-.88-.44-1.63-.31-.5.09-.86.54-.87.76 0 .5.74.38.82 1.09.04.28-.52.59-.52.59s-1.43-1.44-3.36-.7c-.13-1.21 1.44-3.47 2.37-4.63 1.28-1.59 2.68-4.73 3-5.36.88-1.79 1.78-3.6 2.28-5.52.5-2.04-.54-3.01-1.24-6.21.72-.21 1.26-.8 1.92-1.16.65-.36 1.4-.65 2.13-.49.46.1.86.36 1.23.62.83.55 1.72 1.2 2.54 1.75z"/>
    <path d="M134.8 102.18c.01-.16-.36-.37-.63-.96-.24-.48-.57-2.51-2.68-4.3-2.88-2.45-3.33-3.05-5.34-5.03-2.04-1.65-2.65-2.2-5.54-3.04a17 17 0 00-3.76-.73 75.05 75.05 0 00-5.55-.16c-1.26.02-5.19.4-6.46.32-5.87 0-9-1.47-10.46-2.41-.47-1.62-1.54-2.56-2.02-3.62-.32-.7-.5-1.16-.7-1.87-.21-.82-.22-1.33-.52-2.13a8 8 0 00-.38-.89c-.43-.88-2.04-3.44-2.35-4.67l-9.47-3.7-3.99-.48-3.13 1.54c-.27.17-1.51 1.17-1.64 2.56-.18.65-.63 1.21-.18 1.65.33.31-.33.38-.7 1-.4.65-.82 1.2-1.1 2.08-.24.74-.42 1.06-.77 1.75-.27.53-.3.55-.6.95-.5.7-.83 1.36-.62 1.95l.09.26c.03.08-.03.66-.03.76 0 .24.26.8.51 1.01.38.33.5.36.94.38.35.02 1.1-.31 1.78-.83 1.39-1.09.79-.82 2.2-2.28.49-.5 2.03-1.2 2.7-.63.29.25.63.5.63 1.08.01.7-.62 1.29-.73 1.42-.29.32-.43.5-.7.83-.34.4-.29.47-.7.76-.4.33-.73.98-1.25 1.05-.35.03-.2-.48.07-.85.44-.6 1.05-1.53 1.05-1.53s-1.17.88-1.51 1.42c-.2.32-.41.8-.38 1.33.04.48.63.87.75.87h.05c-.01.4.03.78.17 1.14.18.52.56 1.2.34 1.73-.06.13-.14.25-.16.38v.06c.02.03.06.03.1.02.37-.16.68-.5.83-.87.2-.48.06-.95-.05-1.43a2.4 2.4 0 01.08-1.16c.11-.1.23-.23.34-.36.2-.25.28-.86.45-1.14.46-.8 1.77-1.7 2.11-1.93a4.46 4.46 0 012.19-.52c.22.03.42.03.59 0-.01-.01.7.52.7 1.68 0 .71-.13 1.19-.77 1.87-1.09 1.33-.1 2.12-2.3 2.99.38.72 1.32.57 1.32.57-1.42 1.3-.59 3.13-2.56 4.14.66.81 1.44.57 1.44.57-1.07 1.55.44 4.18-.95 5.05.22.48 1.2.36 1.4.2 0 0-.2.98.13 2.46.22.95 1.07 1.8.63 2.78.08 0 .52-.02.83-.43 1.67.95 1.33 2.48 3.27 2.7.65 1.41 1.98 1.87 2.7 2.24.14 1.13.63 2.57 1.52 4.58.08.17.28.31.28.48 0 .82-.07 1.42-.05 2.23 0 1.1.47 1.98.57 2.42.11.57.45.95.36 1.55-.19 1.23-.1 2.5-.22 3.75-.1 1.27-.36 2.53-.52 3.79-.2 1.46-1.17 2.37-1.1 3.58 1.96-.65 3.33.87 3.33.87s.57-.28.55-.56c-.04-.7-.8-.61-.78-1.1.03-.25-.12-.45.34-.7.67-.33 1.06.25 1.65-.16.34-.26.4-.52.47-.84.05-.64-1.47-.73-1.16-2.17.08-.5.44-2.16.48-3.46.04-1.31-.19-3.17.12-3.62.45-.64.61-1.24.9-1.94a5.24 5.24 0 000-3.13c-.07-.26-.1-.19-.1-.42s-.26-1.14-.23-1.43c.12-.97.88-1.1 1.26-2.34l.02.05c.23.52 1.24.44 1.66.46.8.04 1.59.39 2.4.57 1.6.36 3.15.12 4.78.06.56-.02 1.07.13 1.64.08.72-.07 1.43-.24 2.15-.32.5-.06 1.02-.1 1.5-.24 1.2-.34 2.56-.4 3.8-.55a32.9 32.9 0 014.09-.25c1.69.03 3.75-.5 5.2-.5a9.76 9.76 0 003.5 2.88c.07.47.39.87.79 1.16.38.28 1.78.6 2.17.88 1.12.8.8 1.86 1.33 3.02.27.55.29 1.05.5 1.63.34.85 1.13 3.15 1.18 5.32 0 1.04-.17 1.42-.29 2.9-.1 1.48-1.02 2.61-.9 3.84 1.93-.74 3.36.7 3.36.7s.57-.31.52-.6c-.1-.7-.83-.57-.82-1.08.02-.23-.14-.42.3-.7.66-.37 1.07.2 1.64-.26.32-.26.38-.53.42-.85.02-.64-1.16-1.08-1.4-2.9-.23-1.74-.09-4.7-.32-6.43-.22-1.78-.45-2.35-.28-4.14.11-1.1.62-2.31.05-3.26-.45-.71-1.9-1.15-2.16-1.96-.1-.31-.09-.65-.08-.98.1-2.43.7-2.69.7-5.13 0-1.56-.27-2.89-.27-2.89s.42 1.09.72 1.49c.73.98 1.48 1.54 1.48 1.54s.61 1.85 2.79 2.28c.02-.3-.5-.92-.6-1.57-.09-.6.15-1.5.1-2.02-.15-1.01-.58-1.4-.55-1.47.46.24 1.09.53 1.5.26z"/>
    <path fill="#f6f6f6" d="M72.6 73.96c.28-.15.64-.26.93-.13.07.04.35.3.34.86-.02.24-.07.46-.22.63-.19.23-.64.5-.97.5-.33.03-.58-.01-.7-.3-.18-.46.39-1.42.63-1.56z"/>
    <path class="tertiary" d="M75 81.28c-.12-.33-.55-.65-.55-.65a5.7 5.7 0 00-2.92 1.9c-.56.7-1 1.45-1.72 1.97-.72.53-1.65.82-2.45 1.2-.19.09-.38.2-.48.38a.8.8 0 000 .7c.4.63 1.59.24 2.1-.01.58-.29 1.05-.6 1.44-1a7.22 7.22 0 001.05-1.3c.34-.5.8-1.31 1.46-1.92A4.98 4.98 0 0175 81.28z"/>
    <path class="secondary" d="M88.82 73.25s1.17-.58 3.97-.52a24.7 24.7 0 015.6.65 27.07 27.07 0 017.05 3c2.13 1.26 3.57 3 5.72 4.22 2.16 1.22 4.6 1.88 7.03 1.43.2-.04.6-.2.57-.32-.05-.25-.54-.26-1.22-.33a8.85 8.85 0 01-4.22-1.62 7.15 7.15 0 01-2.03-2.22c-.28-.7-.4-1.12-.85-1.73-.48-.64-1.54-1.43-2.35-1.46a3.09 3.09 0 00-1.55-1.96c-.99-.6-1.95-.74-2.2-.8-.18-.44-.74-1.04-2.11-1.55a3.3 3.3 0 00-1.93-.13c-.18-.48-1.1-1.01-2.2-1.24a5.17 5.17 0 00-2.3.1 4.59 4.59 0 00-2.67-.74c-1.31.01-2.45.28-2.65.72-1.27-.89-4.14-.3-4.56.15-.8-.1-2.6-.48-4.57.32"/>
    <path d="M88.07 70.99a3.28 3.28 0 00-1.61-1.03 8.6 8.6 0 01-.68-.1c-.55-.12-2.3.04-2.85.19-.02-.27-1.56-.53-1.6-.83a7.87 7.87 0 012.34-.5c-.07-.47-.95-.85-1.36-1.13a2.12 2.12 0 00-1.45-.37s-.04-.17-.38-.44a1.8 1.8 0 00-.47-.27c-.6-.19-1.3.1-1.57.15-.23-.26-.42-.38-1.07-.38a1.6 1.6 0 00-1.04.42 1.95 1.95 0 00-1.76.52c-.44.39-.6 1-1.03 1.38-.47.42-1.04.93-2.19.78-.04.22.14.76.84.9 1.47.3 2.3-.4 2.3-.4.05.19.1.64.17.82.01.06.04.1.09.12.04 0 .1 0 .13-.03.3-.13.83-.42 1.08-.62.04.4-.2.72.06 1.11.64-.45 1.3-.45 1.82-.8-.2.34-.2.78-.1 1.13l.06.07c.08.06.19-.04.24-.12.14-.2.4-.29.65-.33.24-.05.5-.05.74-.07.24-.04.47-.1.7-.2a.9.9 0 00.02.77c.12.23.34.43.63.5.1.32.3.62.63.76.21.1.45.12.69.14.4.04.51.17 1.06.03.44-.09.84-.63.84-.63s.26-.25.53-.36c.11-.05.48-.15.6-.17a6.4 6.4 0 011.69.06c.36.06.8.27 1.1.42.25.12.63.34 1.17.73 0 0-.12-.71-.44-1.18 0 .03-.25-.68-.58-1.04z"/>
    <path d="M85.02 76.57a5.4 5.4 0 002.38.82c1 .08 2.33.2 3.52-.08 1.29.34 2.47-.29 2.52-.74-.03-.62-1.4-1.18-1.85-1.43-1.8-1.04-2.34-1.98-3.34-2.47-1.41-.8-3.12-.67-2.56-.7"/>
    <path fill="none" d="M84.54 109.68c-.13-.8-.4-1.63-.66-2.73-.53-1.52.22-2.86.22-2.86m30.65 1.56c1.05 2.07 3.57 2.76 4.66 4.78"/>
    <g fill="#000" stroke="none">
      <path d="M82.7 111.96c.31-.85.85-1.61 1.3-2.42l.33.16c-.45.8-1.06 1.54-1.63 2.25zm-9.8 22.14c.86-.61 1.66-1.45 2.4-2.1-.7.7-1.49 2.12-2.3 2.24zm7.54-12.86c-1.09 1.9-.88 4.24-1.83 6.2-.56.8.18-.57.14-1 .34-1.79.4-3.79 1.69-5.2zm1.7-3.51c.6.63-.67 1.82-.25.6.08-.2.11-.43.25-.6zm17.01-53.65c-.63.62-.74 1.62-.45 2.43-.65-.68-.45-2.08.45-2.43zm5.22 1.93c-.73.46-.57 1.39-.55 2.12-.5-.66-.46-2 .55-2.12zm-.77-.17a2.18 2.18 0 00-.49 1.72c-.46-.54-.15-1.47.49-1.72zm4.46 2.32c-.42.28-.31 1.48-.53 1.42-.33-.47-.06-1.29.53-1.42zm-21.94-3.72a4.82 4.82 0 001.6 2.64 2.41 2.41 0 01-1.6-2.64zm-3.98 1.33c.23.9.63 1.75 1.33 2.38.62.6-.81-.22-.88-.59a2.35 2.35 0 01-.45-1.79zm3.37-1.1c.19.73.36 1.52.96 2.05.33.33.82.74.13.34-.85-.48-1.2-1.46-1.1-2.4zm5.62-1.44c.29.4.12.9 0 1.33-.2.6-.13 1.25.08 1.83a1.9 1.9 0 01-.27-2.15c.15-.32.24-.66.2-1.01zm-.65.17c.17.4-.13.8-.14 1.2-.06.62.14 1.22.28 1.82-.5-.67-.74-1.62-.34-2.38.1-.2.2-.41.2-.64zm5.3.18c-.35.66-.23 1.45-.09 2.16.07.17.25.4-.02.19-.3-.33-.38-.81-.4-1.24.01-.42.12-.9.52-1.11zm-.7-.16c-.16.43-.22.88-.23 1.33 0 .47.04 1 .35 1.4-.51-.31-.62-.98-.6-1.54.05-.42.2-.87.48-1.2zm4.81.79a2.33 2.33 0 00-.66 2.02c0 .14.2.59-.02.28-.6-.76-.23-2 .68-2.3zm-15.63 71.31c.72-.78 1.34-1.74 1.97-2.51-.54.48-1.2 3.1-1.97 2.51zm42.46 0c.74-.76 1.33-1.75 1.97-2.51-.46.4-1.33 3.23-1.97 2.51zm-18.24 0c.68-.62 2.69-3.78 1.36-1.47-.38.25-.84 2.19-1.36 1.47zm-13.8-30.28c.25 2.1-1.29 4.77-2.6 5.78.73-1.65 2.39-3.1 2.54-5.08.04-.22.06-.51.07-.7zm-4.15 15.23c-1.1 1.88-.76 4.2-1.74 6.1.87-1.84.28-4.9 1.61-6.18l.1.07zm-1.04-6.19c.76.86 1.37 3.53.68 3.57.27-1.27-.66-2.33-.68-3.57zm41.5-12.1c.74.74.74 3.91.27 1.46a6.43 6.43 0 00-.26-1.46zm2.27-.17c-.95-1.03-.92-1.38.19-.3.06.06-.17.21-.2.3zm-1.26.15c1.09 1.1.89 2.83 1.68 3.99-1.18-.96-.85-2.76-1.68-4zm-50.27 5.37c-.3-1.6.54-3.22.2-4.85.52 1.5-.17 3.17.12 4.72zM94.6 85.79c.36 1.14 1.36 1.97 2.32 2.55-1.05-.38-2.5-1.48-2.56-2.47l.13-.04zm34.67 15.97c-.36-2.4-1.56-4.7-2.84-6.7a15.66 15.66 0 013.17 6.65zm-9.5-8.31a7.38 7.38 0 014.33 2.97 35.22 35.22 0 00-4.32-2.97zm6.28 5.82c1.33.25 1.2 1.55.1.2a.91.91 0 01-.09-.2zm.42 1.44c1.3.22.52 1.4.01.03zm.33 1.24c1.14.57.88 2.34.13.44l-.13-.42zm.28 1.59c.47.47.58 1.27.26 1.86a6.48 6.48 0 01-.26-1.86zM95.36 106c.86-.54-.5-3.57.51-1.65.21.5.27 1.7-.5 1.65zm7.34-14.93c.65-.3 2.08-.22.8.2-.27.06-.62 0-.8-.2zm-4.35 17.48c.9.2 3.67.68 1.33.67a2.64 2.64 0 01-1.33-.67zM96.98 90.6c1 .33 1.52 3.51.7 1.61-.24-.54-.5-1.06-.7-1.61zm5.9 16.15c.66-.01 2.32 1.55 1.78 1.42-.78-.2-1.22-.91-1.78-1.42zm17.38 9.21c-.92.32-1.14 3.21-1.14 1.11.1-.5.5-1.4 1.14-1.1zm-2.75 4.9c-1.02 2.1-2.44 3.98-3.45 6.07.54-2.29 2.05-4.22 3.44-6.08zM84 91.91c.34.45.82 1.04.52 1.74-.26.81.32 3.96-.3 1.77-.33-.9.1-1.86.04-2.72-.04-.22-.45-.64-.26-.8zm1.78 14.46c-.32.7 1.78 3.32.57 2.31a2.23 2.23 0 01-.57-2.31zm1.1 4.23c.34.29 2.25 1.02 1.2.97-.53-.07-1.05-.44-1.2-.97zm8.42-8.77c.97-.34.6-1.9.61-2.66 1.07-.67-.88-4.63.07-3.1.44 1 .94 2.3.23 3.3.2.06.1 1.57-.29 2.08-.11.22-.34.44-.62.38zm-11.32 2.15c.76-.85-.12-1.87.19-2.8-.19-.38-.04-1.48.4-2 .88-1.2-.82 1.4-.2 2.19-.08.56.72 1.98-.13 2.85zm43.42 8.41c.2.9 2.95 2.8.67 1.42-.46-.28-1.05-.85-.67-1.42zm3.02 11.92c-.03-2.62-.1-5.73.66-8.03.05 2.24-.66 5.43-.66 8.03zM113.6 100.1c.1 1.85.37 3.9 1.32 5.53l-.34.17c-.53-.86-.83-2.62-1.03-3.45a4.61 4.61 0 01.05-2.25zM88.63 81.05c-.67-1.15-.23-2.32-.93-3.52h.3c.6.95.38 2.5.63 3.52zM84 77.28c.6.59.66 1.77.16 2.37-.04-.79-.03-1.58-.16-2.37zm-2.96 3.42c.03 1.27-1.15 2.21-2.31 2.4 0-.16-.17-.19-.12-.25.24-.25 1.19.07 2.11-1.27.2-.3.27-.55.32-.88zm-12.6.24c-.64.42-.27 1.92-1.29 1.83-.61-.38.18-.12.38-.47.24-.48.33-1.14.9-1.36zm-.3-.87c.86-.65 1.77-3.18 2.11-3.05-.59 1.1-.94 2.4-2.1 3.05zm8.7-3.36c-.37.47-.13 2.4-.38 2a2 2 0 01.38-2zm-9.12 4.54c-.48 1.16-1.3.72-.33.08zm6.15-9.1c-.99.39-1.9.93-3 .84-.26.3-.43.42-.21-.04.57-.53 1.47-.02 2.05-.64.35-.16.77-.33 1.16-.15zm.3 3.96c.05-1.54.93-1.31.19-.14a.9.9 0 01-.2.14zm.9-2.84c-1.53-.57-2.56 1.36-4.03 1.13-.44-.06 1.87-.57 2.27-1.2a1.78 1.78 0 011.77.07z"/>
      <path d="M74.72 73.93c-.42.07-.86.1-1.24.03l.09-.28c.36.15.76.24 1.15.25zm-1.93-.02c-.45.19-.56.38-.7.85.1.3.41.5.75.5.1 0 .17-.1.13-.2a2.11 2.11 0 01-.2-1.15z"/>
      <path d="M70.72 76.3c.5-.45.9-.99 1.2-1.58-.03-.19.38-.11.26 0-.1.03-.25.9-1.27 1.5zm-2.4 5.6c-.02.36.13.76-.16 1.05-.11.3-.96.24-.43-.03a.86.86 0 00.41-.66c.05-.13.1-.25.17-.36zm4.55 4.94c.1-1.26.64.23 0-.01zm-1.29.13c-.05-1.14.67.57 0 0zm18.6-5.17c1.04.86 1.29 3.63 1.42 4-.97-1.12-.69-2.76-1.43-4zm-3.2.05c.86 1.07.77 1.75.62 2.65-.07.37-.62.97-.62.97.18-.7.75-1.95 0-3.62zm-3.32.99c-.82.77-1.55 2.19-.97 3.32-1.1-.9-.25-2.58.66-3.27.09-.04.2-.07.3-.05zm-1.63 5.97c-.13 1.02-.59 2.34-.14 3.16-1-.67-.39-2.4.14-3.16zm-1.57 5.48c-.43.9-.64 1.9-.48 2.88a2.1 2.1 0 01.48-2.88zM82 97.7c-.5.63-.31 3.02-.64 2.54-.29-.86-.08-1.95.64-2.54zm4.97-7.73c1.55-.27 1.24 4 .76 1.4-.18-.48-.14-1.28-.76-1.4zm4.72.14c.74 1.08.93 2.5.53 3.74-.1-1.26-.29-2.5-.53-3.74zm2.64 1.25c.95.28.74 1.9.16.46-.12-.1-.03-.47-.16-.46zM89.4 95.9c1.4-.1 1.87 2.9 1.53 2.76-.4-.96-.55-2.16-1.53-2.76zm.37-6.7c0-.65-.06-2.56.25-2.22.23.73.1 1.6-.25 2.21zm-4.67-3.4c.39.72-.47 1.97-.05 2.56-.81-.64-.2-1.73.09-2.48-.02-.02 0-.08-.04-.08zm.63-5.7c1.08.91-1.75 3.4-.45 1.42.34-.38.35-.93.45-1.41zm6.88 7.85c.8.35 2.02 1.37 2.27 1.63-.95-.07-1.75-.93-2.27-1.63zm-14.19 16.7c.47-.33.38-3.03.61-2.54-.33.76.47 2.76-.56 2.6zm-1.58-4.75c.28-.8 1.73-2.73.68-.87-.29.33-.1 1.2-.68.87zm-.38-5.34c.42-.2 1.58-1.75 1.36-1.2-.32.07-1.1 2.23-1.36 1.2zm1.12-4.68c.85-.07 2.51-2.36 1.33-.66-.27.25-1.24 1.55-1.33.66zm28.5 17.12c.56-.28 2.34.82 1.46.68-.5-.16-1.05-.32-1.46-.68zm3.2.35c.55-.4 2.34.9 1.25.56-.43-.15-.91-.23-1.24-.56zm3.11-.26c.8-.46 2 1.2.66.4a4.94 4.94 0 01-.66-.4zm-16.52-37.9c.15.9-.75 1.48-.7 2.28.05.95-.19.76-.25-.02-.1-.92.8-1.43.95-2.26zm-.69 0c-.02.64-.65 1.1-.6 1.79-.03.62 0 1.63-.2.5-.19-.9.35-1.6.8-2.3zm5.2 1.35c-.57.63-.7 1.58-.6 2.39-.5-.57-.3-1.57.15-2.11.13-.12.28-.23.45-.28zm-.77-.35c-.48.76-.88 1.75-.57 2.65-.63-.8-.2-2.09.57-2.65zm4.66 1.9a2.42 2.42 0 00-1.2 2.24c-.56-.9.17-2.16 1.2-2.23zm-.82-.33a2.4 2.4 0 00-1.04 2.27c-.48-.82.11-2.14 1.04-2.27zm4.56 3.17c-.8.25-.9 1.2-1.07 1.9-.3-.75.07-2.08 1.07-1.9zm-.69-.38c-.57.19-.84 1.45-.97 1.38-.18-.62.35-1.32.97-1.38zm3.73 3.32c-.52.13-.86 1.98-.94.93.04-.47.47-.94.94-.93zm-20.3-8.71a4.9 4.9 0 00.88 2.95 2.4 2.4 0 01-.88-2.95zm-.64.07c-.06.9 0 1.84.6 2.57.52.76-.72-.44-.7-.83a2.6 2.6 0 01.1-1.74zm-3.81.18l-.01.55h-.16c.04-.2.1-.38.17-.55zm-6.8 3.32c.31.33 1.37 1.64.9 1.52-.35-.47-.95-.85-.9-1.52zm.08 2.17c.61-.48 1.8 1.17.95.57-.28-.25-.62-.4-.95-.57zm.97 1.47c.67-.29 1.1 1.2.34.39-.11-.13-.23-.25-.34-.4zm.16 1.08c.65-.17.76 1.71 0 0zm.16 1.27c.66.08.12 1.26 0 .37zm-4.18-9.42c.23-.32.38-.68.63-.99.25-.26.63-.18.94-.2.09.21-.65.24-.76.56-.18.3-.45.56-.8.63zm1.8-1.77c.79-.19 1.56-.5 2.38-.49-.02.13.1.42-.13.36-.76-.05-1.5.23-2.26.13zm2.74 1.29c-.61-.1-1.29-.16-1.83.22-.19.08-.67.48-.36.06.31-.54 1-.85 1.6-.62.23.05.42.18.59.34zm.31 1.36c.39-.26.87-.43 1.35-.32.12 0 .07.48-.1.36-.34-.18-.7-.07-1.06-.04zM75.5 68.4c.24-.48.43-1.12 1.04-1.2.29-.05.5.09.13.18-.48.26-.63.9-1.17 1.02zm5.95 3.16c.75.2 1.56.2 2.26-.15.2-.11.96-.22.41 0-.57.4-1.26.71-1.97.52a1.8 1.8 0 01-.7-.37zm4.08-.54a1.5 1.5 0 012.05.54 4.71 4.71 0 00-2.05-.54zm-2.06 4.4c.52.24 1.66 1 1.66 1s-.16.34-.2.3c-.3-.2-.45-.46-.62-.57-.21-.3-.62-.52-.84-.72zm.93-2.27a4.67 4.67 0 013.33.24c1 .38 1.73 1.24 2.7 1.7.66.42 1.54.65 2.05 1.17-1.27-.61-2.73-.98-3.8-1.95a5.02 5.02 0 00-3-1.18 8.12 8.12 0 00-1.28.02zm2.92 1.2c-.41.78-1.59.92-2.18.27.68.15 1.54.19 2.19-.27zm-2.46 1.33c1.55.8 3.25 1 4.8 1.06.75.05-.54.1-.76.11-1.69-.16-2.9-.22-4.04-1.17zm-7.1-5.33c.3-.07.92-.8.57-.2-.13.13-.31.68-.48.32zm-1.93-.29c.22-.25 1.06-.78.48-.19-.17.4-.13.45-.47.2zm-1.45-.3c.33-.15 1.01-1 .6-.29-.13.14-.23.7-.44.44zm5.66 1.07c.32-.11.59-.83.42-.11-.1.35-.17.47-.42.11z"/>
    </g>
  </g>
</svg>
