<svg xmlns="http://www.w3.org/2000/svg" fill="#d7374a" stroke="#000" viewBox="50 50 200 200">
<metadata source="https://commons.wikimedia.org/wiki/File:Meuble_h%C3%A9raldique_Grenade_enflamm%C3%A9e.svg" author="Jean-Paul Gibert" license="https://creativecommons.org/licenses/by-sa/3.0"/>
  <g id="grenade" stroke-width="2" transform="matrix(0.41,0,0,0.41,82.8,60.3)">
    <g class="secondary" stroke-width="1.5">
      <path d="M55.21 102.53s-3.2-6.83-5.75-19.09c-1.77-8.5-3.28-4.49 5.02-13.44 7.04-7.6-4.34-7.06 7.85-47.82-25.96 27.17-6.85 31.05-16.28 43.4-12.45 16.3-10.97 28.22.88 39.03z"/>
      <path d="M34.44 102.55c25.85-21.98 26.04-21.1 43.9-29.46-11.2 14.38-13.33 25.98-34.45 34.94-1.1 7.92-.9 3.04-6.02-8 12.48-9.07-8.55 4.94-3.43 2.52z"/>
      <path d="M46.29 102.72C22.7 78.32 22.43 79.18 5.46 69.12c9.74 15.4 10.74 27.16 30.89 38.13.33 7.99.6 3.12 6.77-7.39-11.53-10.23 8.03 5.76 3.17 2.86z"/>
      <path d="M29.47 90.37C16.9 58.85 17.8 58.95 15.6 39.35c4.98 13.77 23.5 21.45 25.24 44.33 7.15 3.58 4.77 21.71-7.35 23.04-4.6-14.73-3.37-10.73-4.02-16.35z"/>
      <path d="M68.11 45.61c4.27-4.24-6.5 4.1-11.84 12.04-4.31 6.41.97 15.66-2.96 21.04-5.49 7.5-8.13 2.84-16.39 12.87-9.88 12-.58 29.02.63 31.5l2.37-10.67c-.44-2.83-2.13-8.6 3.74-8.59 7.91.02 12.6-1.13 19.72-9.93 6.74-8.32 3.15-19.45 1.83-27.09-2.58-7.4-.6-13.19 2.9-21.17z"/>
      <path d="M34.7 59.03c4.14-33.68 4.87-33.17 12.36-51.41-2.26 14.47 10.3 30.1.82 51 4.55 6.58-6.25 21.34-17.5 16.67 3.04-15.12 2.19-11.02 4.32-16.26z"/>
      <path d="M33.95 100.03S42.54 93.77 48 82.5c3.79-7.83 4.28-3.56-1.6-14.26-4.98-9.08 5.93-5.8 4.02-48.29 18.57 32.66-.91 31.78 5.24 46.06 8.11 18.83 3.78 30.03-10.35 37.64z"/>
      <path d="M35.96 109.28C30.44 89.3 23.14 97.53 12.74 76.95 1.87 50.15 32.92 46.85 32.37.82c12.77 39.12-6.63 30.74-5.77 51.82-.23 29.73 15.51 3.83 24.17 46.76z"/>
      <path d="M45.87 104.47c13.47-20.15 2.62-34.45-4.51-43.33-4.97-5.92-3.72-11.15-1.8-17.25 6.42-20.44 2.11-21.28-2.72-40.25 1.27 13.83-1.36 31.45-8.22 42.1-7.28 3.2-13.1 24.18-1.1 26.15 14.78 2.42 13.44 10.23 14.02 30.25l4.33 2.33z"/>
      <path d="M29.52 25.67c-2.57-5.44 4.74 6.05 7.07 15.34 1.88 7.5-6.22 14.4-4.35 20.8 2.62 8.92 6.69 5.42 11.06 17.66 5.23 14.64-9.28 27.5-11.26 29.41l-3.26-8.03c1.37-2.51 5.92-6.6 4.04-12.15-2.05-6.03-11.47-5.33-15.2-16.03-3.52-10.1 3.63-19.36 7.46-26.1 4.93-6.09 5.03-12.2 4.44-20.9z"/>
    </g>
    <g>
      <path d="M56.37 102.56c0 2.83-2.96 5.12-15.55 5.12-12.34 0-15.54-2.3-15.54-5.12 0-2.82 2.84-5.11 15.54-5.11 12.47 0 15.55 2.29 15.55 5.11z"/>
      <path d="M29.8 107.14a5.44 5.44 0 01-.38 8.69h22.02a5.44 5.44 0 01-.49-8.7s-3.41-1.04-10.57-1.04c-7.36 0-10.57 1.05-10.57 1.05z"/>
      <path d="M82.7 153.41c0 21.6-18.26 39.12-40.8 39.12-22.53 0-40.8-17.51-40.8-39.12 0-21.6 18.27-39.12 40.8-39.12 22.54 0 40.8 17.52 40.8 39.12z" />
    </g>
  </g>
</svg>
