<svg xmlns="http://www.w3.org/2000/svg" fill="#d7374a" stroke="#000" viewBox="50 50 200 200"><metadata license="https://creativecommons.org/licenses/by-nc-sa/3.0" source="http://wappenwiki.org"/><g id="greyhoundCourant" stroke-width=".36"><path d="M78.06 86.66c-.48-.61-.85-2.72-2.03-2.48-.92.2-1.48.24-2.04.7a3.94 3.94 0 00-.9 1.1"/><path d="M71.69 93.68s-2.07-.87-3.82-.67c-1.83.21-2.82 1.17-3.82 1.27-1.88.24-2.05-.56-2.25-.53-.13.04-.04.56.21.74s.89.7 2.2.56c1.6-.2 2.3-1 3.82-1.17a6.48 6.48 0 013.64.66" class="tertiary"/><path fill="#f6f6f6" d="M65.3 94.26c-.06-.01-.35.58-.35 1.04l.03-.03c.17-.08.43.13.57.13-.08-.32-.2-1.13-.25-1.14zm-.54-.81c.07-.07-.33-.45-.55-.93l-.07-.25c-.2.03-.4.1-.61.1-.04 0-.18.02-.23 0 .23.35.9 1.11 1.46 1.08z"/><path d="M110.22 113.44c-.47.25-1.07.18-1.55.3l-.06.02c-.3.13-.36.29-.41.27-.07-.03 0-.34.05-.48.3-.95 1.39-1.29 1.39-1.3" class="secondary"/><path d="M111.16 114.45c-.46.27-1.06.22-1.53.36l-.06.03c-.3.14-.36.3-.4.28-.08-.02-.02-.33.02-.49.26-.96 1.34-1.34 1.34-1.35m5.22.16c-.36-.57-1.21-.49-.98.31a.3.3 0 00.12.16c.34.24.16.9.33.88.41-.18.69-.75.57-1.26l-.04-.09z" class="secondary"/><path d="M112 115.52c-.47.26-1.06.21-1.54.35l-.05.03c-.3.14-.35.3-.4.28-.07-.02-.01-.33.02-.49.26-.96 1.35-1.34 1.35-1.35" class="secondary"/><path d="M124.24 109.14c-.23.55-.27.9-.4 1.06-.18.24-.53.47-1.3.4-1.3.07-2.12.47-3.76 1.07-2.18.83-2.05 1.7-2.98 2-.35-.23-.64-.17-.85.15a.4.4 0 01-.16.15c-.31.16-1 1.6-1.7 1.74-.44.08-.76.07-.96 0a.3.3 0 01-.21-.27c0-.17-.12-.38-.28-.6l-.03-.03c-.2-.19-.35-.26-.47-.27a.3.3 0 01-.25-.25 1.06 1.06 0 00-.29-.59c-.11-.12-.21-.16-.28-.2a.3.3 0 01-.2-.24 1.14 1.14 0 00-.22-.5 1.02 1.02 0 00-.37-.34.3.3 0 01-.07-.5l.04-.03.04-.03c.18-.11.23-.09.4-.09s.1.03.41-.03c1.11-.4 1.54.38 2.64-.09 2.57-1.46 4.86-1.8 5.29-3 0 0-2.7-.37-4.1-1.03a3.4 3.4 0 01-1.87-2.3c-.42-1.85 2.49-3.15 3.36-4.5l7.16 3.02c-.33.69-1.35 1.67-.9 3.57.22 1.03 2.58.47 2.3 1.73z"/><path d="M66.4 106.7c.15-.65-.56-1.17-.86-.32.17.38-.43.76-.3.84.39.15.93-.1 1.16-.52zm-4.74-2.11c-.46.42-1.48.19-1.97.67-.14.14-.1.08-.1-.03.05-1.1 1.25-1.5 1.25-1.5m1.02 2.65c-.45.41-1.48.19-1.97.66-.14.15-.1.09-.1-.02.06-1.1 1.28-1.51 1.27-1.51m1.59 2.19c-.2.58-1.22.87-1.42 1.51-.06.2-.06.13-.1.04-.49-1 .4-1.9.38-1.92" class="secondary"/><path d="M80.52 101.78s-1.85.88-2.75.9c-2.43.01-3.4.5-4.1.31-.96-.25-1.72-.45-2.4-.4-.32.03-1.1.46-1.8.65-.91.24-2.13.16-2.49.23-1.03.18-1.71-.06-1.99.06-.27.12-1.02.06-1.26.02-.38-.07-.71.09-1.07.18-.25.06-.78-.14-.85-.23-.13-.15-.4-.2-.56-.17-.18.02-.24.08-.38.17-.14.1-.13.26-.13.26s.27-.03.49.5c.15.39.01.54.02.57.01.05.06.18.23.15l-.17.05a.75.75 0 00-.36.27c-.07.09-.07.23-.03.28.03.01.23.07.4.37.24.51.04.68.04.68s.23.07.29.03l-.12.12a.94.94 0 00-.2.44c-.03.11.03.23.09.25.03 0 .25-.06.52.12.47.34.42.56.42.56.22.14.33-.05.49-.18.15-.13.1-.3.23-.49.19-.26.71-.25.98-.56.17-.17.25-.39.5-.48.8-.28 1.09.26.98.04.4-.19.7-.06.8.35.05-.06.04-.07.07-.14.2-.33.45-.58 1.16-.53.58.04.8 0 1.25-.08 1.02-.2 1.82-.62 2.81-.72.98-.1.92.5 2.1.66 1.52.2 1.6-.01 3.07.18s1.13.8 2.98 1.07c1.24.18 2.88.07 3.61.01"/><path d="M62.1 105.1c-.31.01-.77-.12-.77-.12s.6.1.7-.03c.12-.13.5.02.5.02s-.12.1-.43.13zm.15 1.38c-.27.15-.77.17-.77.17s.63-.1.65-.26c.05-.17.48-.18.48-.18s-.08.13-.36.27zm72.48 7.2c-.38.4-.97.52-1.4.8-.25.24-.27.4-.33.4-.07 0-.1-.32-.11-.47-.03-1 .9-1.67.89-1.68m6.61-1.54c-.3-.67-1.3-.63-.98.31.42.21.16.96.33.95.44-.14.76-.74.65-1.26z" class="secondary"/><path d="M135.95 114.34c-.36.4-.96.56-1.36.84-.25.25-.26.42-.32.42-.07 0-.12-.32-.13-.47-.06-1 .84-1.7.83-1.71" class="secondary"/><path d="M137.08 115.07c-.36.4-.95.56-1.36.85-.25.24-.26.42-.32.42-.07 0-.12-.32-.13-.47-.06-1 .84-1.7.83-1.71" class="secondary"/><path d="M116.32 101.3a19.1 19.1 0 00-2.21.14c-1.03.2-2.14.79-2.14.79s-.44.26-.6.01a.43.43 0 01-.01-.44 7.6 7.6 0 011.41-1.42"/><path d="M82.4 92.13s1.85 2.25 6.09 3.3c9.12 2.28 14.2-2.8 23.63-2.8 5.74 0 9.12 3.36 12.37 3.54 3.53.19 7.1-1.35 7.1-5.1 0-3.3-2.53-5.75-6.26-5.75-3.33 0-5.44 1.52-7.08 3.35.68-2.1 3.38-4.79 7.2-4.79 4.5 0 7.97 2.94 7.97 7.2 0 5.25-5.35 7.74-10.47 7.05 0 0 2.29.88 3.95 4.43.56 1.17 1.68 1.4 2.63 1.46 1.83.1 2.8-1.48 3.74-1.59.6-.06.9-.2 1.12-.18.28.04.66.24.99.95.32.7.53 1.76 2.18 3.65 1.26 1.35 1.64 2.18 2.06 2.92.19.34.51.55.71 1.1.11.3.07.5.07.5-.37-.3-.71-.2-.94.25-.1-.06-.25.03-.27.4-.04.35-.04.7-.1 1.42a1.85 1.85 0 01-.89 1.48c-.62.35-1.03.37-1.18.27.01-.22-.2-.44-.49-.63-.57-.3-.76-.01-.76-.01s-.07-.48-.55-.74c-.38-.19-.52-.06-.52-.06s-.07-.34-.44-.62c-.52-.34-.68-.16-.68-.16s-.18-.23.03-.55c.16-.2.2-.17.36-.23.15-.05.12-.01.38-.17.7-.52 1.24-.02 2.12-.8.12-.11.28-.7.28-1.07 0-.8-.11-1.62-1.33-2.47-.83-.55-.93-.61-1.83-1.05l1.83 1.05c-.83-.55-.93-.61-1.83-1.05-1.07-.52-1.81-.4-2.74.02-1.88.81-5 1.43-6.84 1.43-2.47 0-3.93-1.38-5.35-2.62-2.68-2.34-2.98-4.5-5.5-4.5-12.1 0-18.9 11.72-25.8 8.85-.7-.3-1.74-.88-1.98-1.32-.83-.3-2.87.17-3.07-.02l-1-1.5s-.9 2.09-2.22-2.83c-.16-.59.1-1.64-.14-2.6-.65-1.8-.72-1.34-1.34-2.23-.62-.9-.77-1.6-.77-1.6-.6-.76-1.36-1.02-1.58-1.39-.8.06-2.13-.19-2.83-.49-.36-.15-.67-.06-1.07-.1-.38-.05-.68 0-1.11-.07-.31-.03-.72-.14-1.03-.16-.3-.03-.87.18-1.32.25-.21.03-.5-.04-.71 0-.34.05-.54.06-.86.08-.28.03-.54.12-.75.18-.26.04-.56-.1-.81-.17-.09-.02-.28-.1-.31-.19-.07-.13.02-.24.12-.28.18-.1.33-.13.52-.16.22-.02.49-.01.7-.02.2-.01.4-.17.61-.17.22 0 .35-.03.56-.08.3-.06.49-.24.82-.32.34-.09.37 0 1.2-.15s2.57.27 2.71-.03c.13-.31-.14-1.02-.93-1.4a7.88 7.88 0 00-1.49-.52c-.18-.02-.74-.17-.91-.18-.2-.01-.61-.21-1.09-.17-.62.06-1.04.52-1.48.5-.27-.06-1.45-.26-1.91-.23-.18 0-.58.15-.75.15-.48 0-.7-.4-1.1-.62a1.85 1.85 0 01-.56-.37c-.23-.21-.13-.4-.28-.56a1.17 1.17 0 01-.3-.75c.02-.15.02-.4.19-.51.22-.22 1-.36 1.22-.4.22-.03 1.13-.41 1.83-.6 1.16-.32 1.52-.23 2.68-.6a5.72 5.72 0 001.94-.97c.15-.18.18-.23.55-.59.24-.21.9-.43 1.52-.51.51-.18 1.05-.37 1.5-.48.62-.14.96-.06 1.36-.07.34-.01.72.1 1.24.06 1.42-.1 2.5.44 3.44.99.5.29.81.7 1.67 1.82.01 0 1.5 1.5 2.36 3.7z"/><path d="M68.74 111.95c.03-.65-.76-1.05-.91-.16.24.34-.3.82-.16.89.42.07.93-.26 1.07-.73zm-5.25-.77c-.28.55-1.32.68-1.62 1.28-.08.18-.07.12-.1.03-.33-1.05.67-1.84.66-1.84m1.86 2.14c-.29.54-1.32.68-1.62 1.28-.08.18-.07.12-.1.03-.33-1.05.68-1.85.67-1.86m2.23 1.52c.01.62-.85 1.23-.82 1.91.01.2-.01.14-.1.07-.77-.77-.27-1.93-.28-1.93" class="secondary"/><path d="M88.45 109.34a.83.83 0 01-.54.38c-.12.02-.27.03-.38.02-.2.15-.47.14-.7.08-.25-.06-.46-.18-.71-.21a1.62 1.62 0 00-.54 0c-.72.11-2.32.61-3.57.64-1.87.05-1.65-.6-3.12-.55-1.48.06-1.53.29-3.07.35-1.18.04-1.21-.55-2.16-.29-.96.26-1.64.82-2.61 1.18-.42.17-.67.27-1.25.35-.7.07-.92.32-1.05.66-.03.07-.01.09-.05.15-.17-.4-.48-.47-.85-.22.16.2-.35-.49-1 .04-.22.16-.22.4-.32.62-.15.38-.65.56-.74.87-.06.21.05.35-.05.53-.1.18-.15.4-.4.34 0 0-.04-.23-.58-.39-.33-.08-.52.04-.54.06-.06 0-.16-.1-.17-.2a.9.9 0 01.11-.63c-.05.05-.29.06-.29.06s.13-.21-.27-.62c-.25-.23-.45-.21-.49-.21a.26.26 0 01-.06-.28c.06-.21.2-.32.25-.38l.14-.1c-.15.08-.22-.04-.26-.08-.02-.02.07-.21-.21-.52-.38-.43-.63-.31-.63-.31s-.06-.15.03-.29c.11-.13.15-.21.31-.3.16-.08.42-.13.6-.02.08.05.65.07.87-.07.3-.22.57-.47.95-.53.25-.03.51.03.75-.03.17-.04.74-.18 1-.35.24-.16.96-.1 1.94-.44.34-.13 1.52-.25 2.36-.64.67-.31 1.36-.86 1.66-.94.68-.18 1.47-.11 2.44-.03.73.06 1.63-.58 4.03-1 .9-.18 2.56-.88 2.56-.88"/><path d="M64.08 111.5c-.29.12-.78.2-.78.2s.62-.16.66-.32c.06-.15.49-.14.49-.14s-.09.14-.37.26zm.62 1.25c-.22.23-.65.43-.65.43s.51-.32.5-.48c-.02-.16.37-.33.37-.33s-.01.15-.22.38zM78.55 87.9c.05-.16.11-.31.23-.4.08-.08.42-.16.79-.19a1.9 1.9 0 00.76-.25c.55-.34 1.23-.3 1.62-.57.4-.26 2.16-.49 2.21-1.01s-1.98-.61-1.98-.61-1.2-.18-2.36-.23c-.95-.03-1.61-.22-2.27.09-.56.26-1.24.26-1.56.96l-.37.78"/><path fill="#f6f6f6" d="M70.95 88.24c-.1.17-.49.34-.8.4s-.49 0-.57-.2c-.19-.34 0-.82.22-.82.21-.05.8.34 1.15.62z"/><g fill="#000" stroke="none"><path d="M80.47 101.58a4.78 4.78 0 001.75-.93c-.42.58-1.05.97-1.68 1.27l-.04-.17zm-18.23 2.88c.24-.46-.84-.74-.26-1.03-.1.06.65.93.26 1.03zm2.9.23c-.4.5-1.25.09 0 0zm-.85-.12c.55-.38 1.73.24 0 0zm-4.53.4c.77-.66 1.36-.53 0 0zm2.68-.11c1.18-.27 1.5.64 0 0zm-.24 1.02c0-.44-.71-.63-.44-.97.26.16.6.71.44.97zm-2.22.87c.64-.62 1.57-.58 0 0zm2.5-.64c.3-.29.86-.18 1.19-.33-.3.16-.93.66-1.2.33zm.4 1.18c-1.1-.5-.6-1.22 0 0zm-1.63 1.6c0-.34.44-.87.64-.8-.26.23-.44.52-.64.8zm18.12-3.69c-1.25.11-3.1-.36-1.15-.42.38.01.75.09 1.13.13zm-6.94-.92c-.2.7-1.25.74-1.67.22.56-.01 1.16.09 1.67-.22zM69.98 87.6c.68 1.14-.64 1.1 0 0zm41.05 12.35c1.45-.02 2.8.65 4 1.42-.44.42-1.2-.64-1.83-.77a6.54 6.54 0 00-2.17-.65zm10.21-2.45c.56.2 1.13.45 1.74.44.2.92-1.44-.45-1.74-.44zm-10.35-3.39c2.32-.36 5.17-.27 6.98 1.46-1.98-1.33-4.63-1.58-6.98-1.46zm24.72 20.42c-.14-.96 1.05-.82 1.43-1.52.75-.32-.64.92-1.1 1.17-.15.17.06.44-.33.35z"/><path d="M136.22 113.64c.44-.42 1.57 1.07.93.45-.28-.3-.82-.05-.93-.45zm-1.29-1.02c-1.2-.2-1.03-.86-.15-.22.03.06.2.15.15.22zm2.1-1.04c.34-.54.86-1.06.38-.16-.1.1-.23.16-.37.16zm.68-.66c.14.86-.53 1.08 0 0zm-4.65 3.57c.81-1.03 1.48-1.1 0 0zm6.2-2.8c-.23-.6-.16-.9.23-.2l-.13.12zm-9.72-7.83c.97.18 2.22-.01 2.93-.26-.91.47-1.96.58-2.97.53l.03-.17zm5.34.68c-.65.22-1.6-1.42-.33-.28l.33.28zm4.8 6.67c.5.3.06 1.53.08.25a1.1 1.1 0 00-.09-.25zm-5.15 2.55c-.12-1.12 1.32-.83 1.87-1.49-.33.86-1.5.55-1.62 1.44l-.17.03z"/><path d="M135.13 112.87c.44-.42 1.58 1.06.93.45-.28-.31-.81-.05-.93-.45zm-.82 2.3c.78-1.07 1.41-1.1 0 0zm1.13.75c.62-.96 1.52-1.2 0 0zm-38-11.38c.4-.6 1.62-.93.8-.2a.98.98 0 01-.8.2zm1.83-1.2c.3 0 1.96-1.09 1.65-.5-.36.49-1.08.66-1.65.5zm2.6-1.15c.6-.13 1.15-.7 1.8-.6-.46.45-1.15.88-1.8.6zm2.64-.99c1.3-.56 2.22.2.33.15a1 1 0 01-.33-.15zm-14.1 7.07c1.13-.2 2.03-1.28 3.34-1.33.73.04 1.05-.53 1.4-1.05a13 13 0 011.46-.5c-.6.54-1.45.68-1.7 1.52-.99.69-2.49.2-3.29 1.27-.38.1-.9-.31-1.21.09zm-8.67-3.26a5.12 5.12 0 002.05-1.21c-.16.15-1.22 1.34-1.9 1.52zm-17.75 5.83c-1.29-.95-.24-.9.04-.01zm3.17-.64c-.04.35-1.07.44-.35.1.11-.06.23-.08.35-.1zm-.86.02c.32-.45 1.66-.04 0 0zm-4.45 1.94c.44-.83 1.15-1.04 0 0zm2.47-1.01c1.33-.71 1.23.23 0 0zm.12 1.06c-.14-.43-.96-.27-.73-.76.32.08.71.46.73.76zm-1.8 1.57c.44-.84 1.15-1.04 0 0zm2.14-1.46c.17-.41.76-.39.99-.72-.23.25-.64.94-1 .72zm.78.96c-.25-.15-1.41-.3-.55-.44.24.04.48.2.55.44zm-.99 2.09c.1-1.12.58-1.41 0 0zm21.32-13.21c.9-.82 2.67-.59 3.36.03a5.24 5.24 0 00-3.36-.03zm-2.29 3.3c-.44 1.26-1.62 1.18 0 0zm0 .88c.13.26-.63 1.2-.49.57a.89.89 0 01.5-.57zm.11.69c.13.94-.69.91-.24.15zm2.93.44c-.4.11-.97 1.28-1.13 1-.04-.58.57-1.12 1.13-1zm-9.94 1.42c1.35-.87 4.46.14 1.32 0-.44-.03-.88-.08-1.32 0zm-7.14-17.97c.67.35 2.51 1.45.96.98a1.73 1.73 0 01-.96-.98zm4.75 1.97c.61 0 1.54.3 1.51 1.03-.4-.48-1.13-.53-1.51-1.03zm-9.68-2.45c1.45.18 1.89 1.29.16.26a.57.57 0 01-.16-.26zm6.44-.77c-.23-.46.16-1 .62-1.09a2.3 2.3 0 01-.62 1.09zm.64-1.56c.3-.32 1.52.2.8.3-.29.02-.66 0-.8-.3zm7.02-.16c-.23.26-.34 1.58-.37.43-.37-.82.1-.47.37-.43zm-1.05-.66c.38.3.24 1.04-.24 1.14.04-.39.1-.78.24-1.14zm-1.9-.75c-.23.4-1.25 1-.55.3.23-.23.09-.69.56-.3z"/><path d="M76.68 88.1c-.28-.8.84-1.33.86-2.11.75-1.66 4.25-.1 4.78-.44-1.4.4-2.9-.13-4.27.21-.2.96-1.28 1.37-1.37 2.34zm-15.44 2.78c1.98-2.36.8.86 0 0zm.95.31c.03-.87.91-.14 0 0zm6.88-2.91c-.04 1.35-1.1 1.4-.18.15l.01-.02zm.21-1.32c.4 1.02 1.63-.48 2.2.54-.6-.44-2.4.88-2.2-.54zM71 88.1c1.09.22-.02.59 0 0zm39.78 26.43c.18-.95 1.32-.47 1.9-1 .84-.25-.84.82-1.17.64-.42-.02-.31.61-.73.36z"/><path d="M111.64 113.9c.48.01.88.6.84 1-.03-.64-.9-.5-.84-1zm-.88-1.4c-.19-.3-.5-.51-.84-.57.04-.78.9.45.84.57zm2.32-.3c1.6-.84 1.31-.09 0 0zm1.2-.17c-.05.47-1.34.58-.48.23l.48-.23zm-5.9 1.65c.23-.37.8-.5 1.16-.4-.4.1-.81.17-1.17.4zm6.32.39c-.17-.21-.3-.98-.01-.37.22.18.25.16 0 .37zm.37-.5c.5.2.15 1.56.12.34a.86.86 0 00-.12-.34zm-5.08-.13c.25-1.07 1.58-.46 2.3-.81-.7.58-1.67.26-2.17.84z"/><path d="M110.85 112.8c.49.01.88.61.85 1-.03-.63-.9-.49-.85-1zm-1.51 1.93c.22-.4.77-.53 1.15-.45-.39.12-.82.18-1.15.45zm.83 1.06c.22-.4.78-.53 1.16-.45-.4.12-.83.18-1.16.45zm8.13-7.3c2 .06 1.12.56-.03.17l.03-.17zm-30 .75c.34-1.01-.48-2.34.37-3.24-.46 1.14.51 2.38-.06 3.44l-.31-.2zm-11-12.83a5.08 5.08 0 002.32-1.14c-.28.91-1.41 1.5-2.32 1.14zm5.28-2.65c.58.18 1.59 1.08.5.71-.26-.15-.5-.39-.5-.71zm-1.74 4.88c-.02.44-.18 1.29-.37 1.41-.32-.44-.08-1.14.37-1.4zm.9-1.24c.45.95-.84 1.95-.2.54l.2-.54z"/></g></g></svg>