<svg xmlns="http://www.w3.org/2000/svg" fill="#d7374a" stroke="#000" viewBox="50 50 200 200">
  <metadata source="http://wappenwiki.org/images/2/29/Canillac.svg" license="https://creativecommons.org/licenses/by-nc-sa/3.0"/>
  <g id="greyhoundRampant" stroke-width=".34">
    <path class="secondary" d="M79.74 115.1c-.6 0-1.15-.39-1.68-.5l-.07-.01c-.36-.02-.51.09-.54.04-.06-.05.17-.33.28-.45.79-.79 2.04-.56 2.04-.57m24.94 23.07c-.46.38-1.15.44-1.64.69-.32.21-.36.4-.42.4-.08-.02-.08-.37-.06-.54.12-1.1 1.25-1.71 1.23-1.72m7.47-.78c-.25-.77-1.33-.89-1.13.2.42.3.03 1.1.22 1.1.52-.1.96-.7.91-1.3z"/>
    <path class="secondary" d="M105.96 137.57c-.46.4-1.14.48-1.62.74-.32.23-.36.42-.41.42-.08 0-.1-.36-.08-.53.08-1.1 1.17-1.76 1.16-1.77"/>
    <path class="secondary" d="M107.1 138.54c-.46.4-1.14.48-1.62.74-.32.23-.36.42-.41.42-.08 0-.1-.36-.08-.53.08-1.1 1.17-1.76 1.16-1.77m-26-20.83c-.58.03-1.15-.33-1.69-.43l-.07-.01c-.36-.01-.5.1-.55.07-.05-.06.16-.35.28-.47.75-.81 2.02-.63 2.02-.65m5.06 2.85c-.07-.74-.96-1.1-1.12-.2-.01.07 0 .15.03.22.2.4-.3.97-.13 1.04.5.05 1.07-.39 1.2-.96l.02-.1z"/>
    <path class="secondary" d="M80.43 118.04c-.6.03-1.16-.33-1.7-.43l-.07-.01c-.36-.01-.5.1-.54.07-.06-.06.16-.35.27-.47.75-.81 2.02-.63 2.02-.65"/>
    <path d="M107.29 113.78a7.32 7.32 0 0 1-4.5 1.81c-1.45-.02-2.1.05-3.35-.68-.85-.5-1.53-1.03-2.41-1.43-.89-.4-1.79-.03-1.96 1.15-.43 1.7 3.16 4.7 1.4 5.61-.76.58-1.5.35-1.7.48-2.15 1.61-3.95-.1-5.2-.65-2.32-1.16-3.36-1.72-4.42-1.9-.22-.41-.55-.5-.91-.27a.42.42 0 0 1-.24.05c-.39.01-1.81 1.09-2.57.85a2.52 2.52 0 0 1-.95-.48.35.35 0 0 1-.08-.4c.09-.17.08-.44.03-.72l-.01-.06a1.01 1.01 0 0 0-.3-.51.34.34 0 0 1-.12-.38c.06-.18.1-.43.02-.73a.85.85 0 0 0-.18-.34c-.08-.09-.12-.23-.08-.34.04-.15.09-.35.04-.6a1.22 1.22 0 0 0-.18-.53.34.34 0 0 1 .18-.52l.05-.01.06-.02c.24-.02.26.04.42.12.16.08.1.08.43.18 1.31.17 1.32 1.16 2.64 1.27 3.28-.13 7.31 3.18 8.6 2.63-.62-1.56-3.3-2.95-4.07-6.52-.28-1.28.46-3.76 1.78-4.98.77-.71 1.97-1.17 3.67-1.4 2.92-.4 10.49 5.53 14.15 4.1"/>
    <g>
      <path class="secondary" d="M84.66 72.06c.67-.29.69-1.27-.27-1-.23.4-.96.12-.96.29.13.44.7.79 1.23.7zm-1.79-5.64c-.68 0-1.32-.99-2.08-.99-.22 0-.16-.02-.07-.1.89-.83 2.15-.23 2.16-.24m-1.22 2.93c-.68-.01-1.52-1-2.08-1-.2 0-.07-.1-.07-.1.89-.83 2.19-.21 2.19-.22m-.44 2.97c-.6.31-1.65-.13-2.3.12-.12.04-.11-.06-.11-.06.38-1.15 1.8-1.22 1.79-1.23"/>
      <path d="M93.96 83.05s-2.38-.52-3.66-2.33c-.9-1.3.19-4.06-.06-5.53-.1-1.1-.08-1.7-.4-2.42-.4-.89-1.3-1.23-1.75-1.91-.52-.63-.8-1.27-1.6-1.97-.26-.22-.63-.8-.76-.95-.17-.2-.24-.51-.4-.74-.25-.35-.62-.5-.99-.7-.24-.13-.51-.71-.5-.83.02-.23-.16-.45-.32-.58-.16-.11-.25-.13-.44-.16s-.3.1-.3.1.24.2 0 .78c-.17.42-.41.43-.42.47-.02.04-.1.18.06.3l-.18-.1a.8.8 0 0 0-.49-.06c-.12.02-.22.13-.24.2.03.03.13.24.03.6-.2.6-.5.57-.5.57s.13.23.21.25h-.18a1 1 0 0 0-.49.2.3.3 0 0 0-.13.27c.04.02.26.15.32.5.1.63-.1.77-.1.77.06.28.3.22.53.23.22.02.31-.17.57-.21.35-.06.76.35 1.23.32.26-.01.5-.13.77 0 .85.39.41 1.23.53.99.43.24.5.6.2.95.1 0 .13.09.42.3.68.92.97.77 1.7 1.59.44 1-.02 1 .14 2 .4 3.78-.86 4.83.2 6.96.75 1.47.16 1.41 1.19 3.21.7 1.21 1.91 2.1 2.42 2.75 1.3 1.37 2.87 1.1 2.93 1.29"/>
      <path fill="none" d="M82.84 67.18c-.27-.23-.29-.35-.29-.35s.17.21.34.18c.2-.02.4.4.4.4s-.2 0-.45-.23zm-.95 1.23c-.33-.1-.4-.2-.4-.2s.23.13.38.03c.17-.1.52.21.52.21s-.17.05-.5-.04z"/>
      <g stroke="none" fill="#000">
        <path d="M83.44 66.77c.17-.31.3-.69.24-1.02h.34a1.9 1.9 0 0 1-.56 1.05c.02-.01-.02-.03-.02-.03zm2.5 2.7c-.25.12-.58-.03-.7-.26l.01-.04c.27.01.52.12.7.3zm-.65-.69c.37-.05.6.29.8.55l-.02.04a.47.47 0 0 1-.25-.08c-.12-.08-.25-.22-.35-.32-.04-.06-.16-.14-.18-.19zm-4.22-3.5c.4-.09.89.04 1.13.4l-.01.01c-.36-.21-.73-.3-1.12-.42z"/>
      </g>
      <path fill="none" d="M82.54 66.82c-.03-.15-.07-.2-.12-.24"/>
      <g stroke="none" fill="#000">
        <path d="M83.3 67.24c.43.14.38.65.75.86l-.02.03c-.27-.06-.43-.33-.63-.49-.06-.04-.13-.06-.15-.05l.04-.35zm-1 .64c.17-.3.23-.7.07-1.01l.33-.1c.08.4-.1.84-.38 1.14l-.02-.03zm-2.44-1.01c.4-.1.88.04 1.12.4h-.01c-.36-.2-.73-.29-1.1-.4zm2.5 1.4c.53-.03.72.57 1.2.62v.03c-.32.07-.62-.2-.92-.3-.09-.03-.18-.03-.21 0l-.07-.35zm-.58 1.27c-.12-.37-.1-.68-.17-1.05l.03-.04c.46.12.49.87.14 1.09zm-2.57.03c.32-.26.81-.36 1.19-.16l-.01.02c-.4-.03-.78.06-1.18.14z"/>
      </g>
      <path fill="none" d="M81.48 68.2c-.1-.11-.15-.13-.22-.15"/>
    </g>
    <g stroke="none" fill="#000">
      <path d="M88.8 82.43c.5.7.93 1.4 1.39 2.1l.67 1.08c.22.34.46.7.9.76-.78.17-1.47-1.1-1.85-1.65a10.13 10.13 0 0 1-1.11-2.29zm-1.12-9.25c0 .32.17.54.38.73.23.2.52.36.7.62a1.67 1.67 0 0 1-.93-.37c-.26-.21-.43-.71-.15-.98z"/>
    </g>
    <path d="M109.26 65.66s-.7-1.32-1.54-2.5c-.66-.97.13-1.8-.67-2.2-.67-.36-1.18-1.03-2.12-.83-.88.3-1.24 1.5-2.05 2.16m3.12 49.29c0-.14-.56-2.11-.7-2.36a9.7 9.7 0 0 0-1.37-2.12s-.39-.41-.16-.64c.09-.09.25-.2.46-.14.65.19 1.9 1.19 1.9 1.19"/>
    <g>
      <g stroke="none" fill="#000">
        <path d="M79.72 116.45c.27-.36.8-.48 1.14-.23l.07.04h-.02c.13.04.25.1.39.12.4.09.83-.04 1.22.15v.03c-.25.04-.57.1-.82.12-.33.03-.74-.04-.95-.16-.08-.06-.18-.1-.27-.1a.57.57 0 0 0-.47.22 2.5 2.5 0 0 1-.29-.2z"/>
        <path d="M80.92 116.25c.44.2.57 1.04.37 1.44l-.04-.02c.06-.22 0-.46-.08-.66-.07-.18-.2-.4-.34-.44l.1-.32zm-.17-1.82a1.5 1.5 0 0 0-.52-1l.24-.23a1.6 1.6 0 0 1 .32 1.23h-.04zm2.45.9c.47.01.9.16 1.36.15l.01.03c-.38.28-1.06.1-1.37-.18zm1.28.44c-.3.28-.75.21-1.06 0v-.03c.18-.03.35-.01.53 0 .18.02.36.01.53.03zm-6.67-1.4c.41-.27 1-.08 1.37.18l-.01.03c-.45-.1-.9-.29-1.36-.2zm6.03 3.64c-.02-.24.03-.48.14-.7 0 .03.02.03.03.01h-.03c0-.02.02-.03.03-.02v.04c0 .19.04.4.15.57l-.32.1zm.63-.3c.21.3.03.74-.22.97l-.02-.01c.1-.33.25-.64.24-.97zm-4.95-2.73a.89.89 0 0 1 1.03-.3l.18.11h-.02c.13.05.25.14.37.2.12.07.23.12.34.16.24.08.53.04.77.17v.03c-.28.04-.54.1-.82.04a2.59 2.59 0 0 1-.78-.32l.05.02c-.06-.01-.1-.04-.15-.08a.37.37 0 0 0-.24-.06.6.6 0 0 0-.46.22l-.27-.2z"/>
        <path d="M80.7 114.77c.44.2.58 1.04.37 1.44l-.03-.02c.05-.22 0-.46-.08-.67-.07-.17-.2-.38-.35-.43l.1-.32zm-2.5 1.14c.42-.28.99-.11 1.38.13l-.01.02c-.44-.08-.9-.24-1.36-.15zm.3 1.47c.4-.28.97-.11 1.36.13l-.01.02c-.44-.08-.9-.24-1.36-.15z"/>
      </g>
    </g>
    <path d="M113.6 105.67c-1.53-5.1-4.13-5.26-6.02-9.32a12.43 12.43 0 0 1 .8-12.19 21.51 21.51 0 0 0 2.84-7.1 12.64 12.64 0 0 0 .82-7.32c-.5-2-.24-3.13-.74-4.15a7.52 7.52 0 0 0-2.17-2.57 3.56 3.56 0 0 0-.9-.6c-.27-.11-.58-.16-.86-.2l-2.93-.44c-.84-.12-1.19.06-2.03-.11-2.21-.44-2.45.88-3.25 1.58-.33.19-2.06.72-3.83.83-1.9.1-3.18.46-4.08.65-1.33.33-.55 1.28-.52 1.75.14 1.23 1.01 1.44 1.39 1.73a4.18 4.18 0 0 0 2.45 1.06c-.01.33.05.71.48.78.7.11 1.06.01 2.03.44.92.41 2.05.07 2.7.45a9.58 9.58 0 0 0 3.4.83c.61.4.37 2.65-.55 4.32-1.27 2.3-4.2 1.14-6.18 4.56-1.9.81-4.63 2.13-5.5 4.1a10.15 10.15 0 0 0-.71 6.81c.53 2.52 2.29 4.39 5.07 6.4 2.5 2.29 4.87 3.59 7.5 5.47 2.2 1.57 3.97 4.1 2.84 7.36-.88 2.77-2.83 3.48-2.57 7.75.12 1.8.8 4.3 2.58 6.02 1.23 1.19 1.54 2.16 1.84 3.9.34 2.23 0 3.73-.12 4.62-.06.4-.3 1.03-.44 1.13-1.1.75-1.61.11-2.45.6-.32.12-.28.08-.45.12-.18.04-.24 0-.43.19-.28.33-.12.6-.12.6s.22-.18.73.28c.38.34.4.74.4.74s.19-.13.57.14c.5.35.5.89.5.89s.25-.29.85.12c.28.25.5.53.44.76.17.14.62.15 1.35-.13s1.06-.97 1.18-1.5c.19-.8.24-1.18.32-1.57.08-.39.25-.47.37-.39.32-.46.7-.51 1.08-.13 0 0 .08-.2 0-.57-.1-.45-.44-.97-.6-2.32-.07-.56-.23-.7-.25-1.58a5.76 5.76 0 0 1 1.11-3.84c.6-.74.03-1.3-.03-1.4-.05-.09-.17-.15-.34-.34-.28-.28-1.09-.53-1.18-1.2-.27-1.68 1-2.78 2.28-4.49 1.22-1.61 2.07-2.04 2.65-4.6a9.15 9.15 0 0 0-.32-5.88 11.14 11.14 0 0 0 8.1-.5c4.27-2.06 5.58-7.12 3.37-11.6-1.89-3.8-6.1-5.17-8.53-4.82 2.63.72 5.4 1.97 7.03 5.3 1.78 3.6.32 7.7-2.77 9.18-3.21 1.57-7.05.5-8.2-.6z"/>
    <g stroke="none" fill="#000">
      <path d="M91.97 117.22c.51-.03 1.23-.18 1.29-.8.04.3-.14.6-.4.77a2.58 2.58 0 0 1-.82.36l-.07-.33zm4.42-5.93c.9.02 1.77.13 2.64.36-.87.25-1.86.11-2.64-.36zm11.32 11.6c.62-.1 1.03-.54 1.32-1.05l.32-.55c.04.45-.09.9-.38 1.24-.31.35-.84.56-1.26.36z"/>
    </g>
    <g>
      <g>
        <path d="M109.55 64.49c.3.03.83.4 1.17.4.78 0 1.43.46 2 .45.57-.01 2.48.87 2.87.37.39-.5-1.62-1.87-1.62-1.87s-1.1-.94-2.23-1.71c-.93-.63-1.66-1.36-2.51-1.46-.73-.08-1.42-.52-2.18 0a5.88 5.88 0 0 0-1.7 1.75"/>
        <g stroke="none" fill="#000">
          <path d="M106.29 64.55c.08-.96.53-1.25 1.32-1.67.44-.3.67-.91 1.22-1.08.92-.22 1.72.5 2.38 1.03.98.79 2.34 1.1 3.17 2.09-.82-.7-1.9-.95-2.81-1.47-.56-.3-1.04-.8-1.57-1.1-.33-.18-.73-.35-1.1-.27-.38.13-.6.5-.91.75a1.7 1.7 0 0 1-.57.33c-.65.27-1.03.71-1.13 1.4zm-.81-2.04c-.34.47-.74.95-1.32 1.12.5-.28.78-.79 1.02-1.3l.3.18z"/>
          <path d="M106.96 64.4c.27-.15.48-.37.68-.6.28-.3.31-.28.17.12-.12.32-.5.61-.85.49zm2.56.26c-.5-.14-.98.18-1.28.57-.12.13-.2.28-.31.44.14-.34.3-.67.57-.93a1.37 1.37 0 0 1 1.08-.43l-.06.35z"/>
        </g>
      </g>
      <g stroke="none" fill="#000">
        <path d="M94.56 69.1c.99-.05 2.95.06 3.72.71a.91.91 0 0 1 .18.2c-.29-.19-.6-.27-.93-.36-.97-.22-1.98-.24-2.96-.22l-.01-.34zm-3.7-2.76.03.02c-.02-.02-.08 0-.1 0 .14-.19.19-.45.43-.6.09-.03.19-.04.3-.02.14.03.22.14.31.22h.04c.04-.01.09-.08.18-.13.03.15-.1.34-.28.3-.14-.05-.26-.17-.4-.08-.06.12-.1.34-.19.49a.57.57 0 0 1-.11.15c-.07.06-.23.1-.31.05-.1-.03-.14-.09-.17-.12l.27-.28zm1.68-.7c.14.28.18.66-.07.9-.25.23-.67.21-.88-.04.15.03.28.02.4-.02.43-.1.39-.49.55-.84zm10.65 5.95c.63.1 1.32.01 1.85-.38a2.46 2.46 0 0 1-1.35.66c-.17.04-.34.05-.53.05l.03-.33zm-3.42-4.17a1.03 1.03 0 0 1 .5.27c-.2.12-.5-.03-.5-.27zm.06.78c.15.13.3.18.38.38-.2.07-.49-.16-.38-.38zm.14.9c.15.12.3.17.38.37-.2.07-.5-.16-.38-.38zm5.93 2.09c.43-.45.76-.91 1.04-1.46.1.65-.4 1.35-1.04 1.46z"/>
      </g>
      <g>
        <g>
          <path fill="#F6F6F6" stroke-width=".33" stroke-linejoin="round" d="M100.46 63.87c.83.02 1.16.76 1.75 1.1a3.18 3.18 0 0 1-1.76.13c.01 0-.27-.37.01-1.23z"/>
          <g stroke="none" fill="#000">
            <path d="M100.53 65.25c-.24.05-.48.06-.72.05.2-.1.4-.22.57-.36l.15.31zm1.74-.42c.2.12.28.34.5.42-.21.05-.43-.11-.62-.11l.12-.31zm-1.6-2.03c.46-.25 1.03.03 1.39.36.36.31.6.74 1.08.9a.72.72 0 0 1-.38-.04c-.76-.33-1.18-1.26-2.1-1.22z"/>
          </g>
        </g>
        <g stroke="none" fill="#000">
          <path d="M102.2 65.52a3.21 3.21 0 0 0-1.12.79c-.03-.54.62-1 1.11-.79zm-1.67-1.63c-.06.35.01.54.06.73.02.1.08.14.1.17.02.04.22.03.23-.06 0-.2 0-.52.07-.68"/>
          <path d="M100.4 63c-.19 0-.34.29-.3.46.08.18.32.14.49.16l.48.06a2.7 2.7 0 0 1 1.6.98A6.95 6.95 0 0 0 101 64l-.44-.1c-.13-.03-.33-.03-.49-.16-.18-.1-.19-.37-.06-.53.08-.13.24-.27.4-.22z"/>
        </g>
      </g>
    </g>
    <g stroke="none" fill="#000">
      <path d="M105.55 137.74c-.03-.47.34-.9.8-.91h.03l-.02.01c.12-.04.26-.08.37-.13.37-.18.63-.55 1.04-.65l.02.03c-.17.18-.37.43-.56.6-.22.24-.6.45-.84.48-.1.01-.2.04-.26.1a.57.57 0 0 0-.23.46l-.35.01z"/>
      <path d="M106.36 136.84c.46-.11 1.1.47 1.18.9l-.03.01a1.08 1.08 0 0 0-.48-.45c-.16-.1-.4-.18-.54-.12l-.13-.34zm-1.28-1.3a1.43 1.43 0 0 0-1.04-.44l.05-.36c.43.1.8.4 1.02.77l-.03.02zm2.45-.75.16-.23c.16-.23.2-.48.36-.72l.04.02c.08.37-.14.9-.56.93zm.66-.82c.2.27.16.76-.17.91l-.02-.02.05-.22.08-.43c.02-.07.02-.17.06-.24zm-5.44 3.36c.15-.47.72-.68 1.18-.72v.03c-.4.2-.87.35-1.18.7zm7.24-2.19c-.09-.22-.1-.46-.04-.7 0 .02.03.02.03 0h-.03c0-.01 0-.03.03-.01l.01.03a1.04 1.04 0 0 0 .31.51c-.01-.03-.3.17-.3.17zm.52-.48c.28.24.23.71.05 1h-.02c.02-.35.08-.68-.04-1zm-6.06 2.07a.88.88 0 0 1 .62-.88l.21-.03h-.02c.14-.04.3-.03.43-.06l.36-.1c.24-.08.44-.29.7-.33l.03.03c-.2.2-.36.42-.62.55a2.67 2.67 0 0 1-.8.24l.05-.02-.17.04a.35.35 0 0 0-.22.1.58.58 0 0 0-.22.46h-.35z"/>
      <path d="M105.26 135.83c.47-.12 1.1.46 1.19.9h-.04a1.08 1.08 0 0 0-.48-.45c-.16-.09-.4-.18-.53-.11l-.14-.34zm-1.23 2.45c.14-.48.7-.7 1.15-.77l.01.03c-.4.21-.86.38-1.16.74zm1.15.97c.14-.48.7-.71 1.15-.77l.01.03c-.4.21-.86.38-1.16.74zm7.78-31.61.85.54.23.12c.11.05.22.11.34.14.1.04.25.1.34.12l-.15.4-.44-.32-1.17-1zm-2.1.25c2.08 1.14 2.72 4.11 2.59 6.31h-.05c-.28-2.26-.74-4.76-2.54-6.31zm-10.48-8.6c.42.13.78.33 1.1.64a.95.95 0 0 1-1.1-.64zm1.7.96c.5.33.84.74 1.32 1.1-.64.07-1.2-.5-1.32-1.1zm1.97 1.6c.24.18.42.37.64.54.2.17.51.35.57.65-.27-.15-.52-.2-.77-.4a1.22 1.22 0 0 1-.44-.78zm1.87 1.7c.33.4.87.76.78 1.35-.31-.4-.86-.78-.78-1.36zm-11.36-8.32c.16-.07.27.07.36.17.17.14.2.38.3.55 0 .02 0 .02.04.03.15.07.31.1.47.15.92.25 1.13 1.21 1.74 1.76.1.07.18.07.29.07.76-.15.97.4 1.41.85.1.1.22.16.36.18a.6.6 0 0 1-.41-.1c-.5-.32-.68-.82-1.34-.63-.16.03-.36.02-.5-.09-.58-.45-.8-1.23-1.39-1.66-.25-.15-.58-.18-.8-.4-.13-.2-.08-.46-.24-.64-.08-.12-.13-.26-.3-.24z"/>
    </g>
    <g>
      <g stroke="none" fill="#000">
        <path d="M111.3 72.45c.05.37.05.72.06 1.09l-.01.39a.88.88 0 0 1-.25-.34c-.16-.37-.1-.85.2-1.14zm-7.68 4.61c-.24.51-.63.86-.92 1.33-.18-.6.36-1.2.92-1.33zm1.4-.84c.06.3-.1.6-.3.82a1.46 1.46 0 0 1-.74.44c.06-.15.14-.26.23-.37l.81-.9zm1.35 29.94c.37 1.57-.01 3.2-.55 4.69l-.33-.11a9.78 9.78 0 0 0 .92-3.39 5.81 5.81 0 0 0-.07-1.17c0-.02.03-.02.03-.02zm3.76 20.6c-.66-.22-.34-1.14.25-1.22l.03.05-.17.3c-.1.19-.18.33-.17.53-.01.1.04.2.06.34zm-10.08-34.62c.34-.5.15-1.04.07-1.63-.06-.61.06-1.27.44-1.76h.04c-.06.31-.14.59-.18.87-.1.62.09 1.12.17 1.76 0 .34-.06.67-.27.96l-.27-.2zm-1.6-9c1.35-.17 2.8.7 3.28 1.97a6.35 6.35 0 0 0-3.27-1.96z"/>
      </g>
      <path class="secondary" d="M80.67 91.62c-.06-.73-1-1.04-1.02-.05.3.34-.2.95-.03 1 .46.03.97-.42 1.05-.95zm-5.9-.01c-.23.65-1.35.95-1.59 1.67-.07.2-.07.15-.12.04-.53-1.1.44-2.12.43-2.14m2.42 2.07c-.23.65-1.35.96-1.59 1.67-.07.2-.07.15-.12.04-.53-1.1.46-2.15.45-2.16m2.72 1.33c.1.67-.73 1.48-.6 2.22.03.22 0 .16-.1.09-.98-.73-.6-2.09-.63-2.09"/>
      <path d="M93.76 87.86s-2.4.9-3.27 1.41c-1.37.8-3.65-1.78-5.13-1.98-1.06-.25-1.59-.67-2.36-.57-.97.1-1.63 1.04-2.43 1.27-.75.31-1.45.39-2.37.93-.29.17-.96.35-1.13.42-.25.1-.56.07-.82.15-.41.12-.66.45-.97.73-.2.19-.84.26-.95.21-.2-.09-.49.01-.65.13-.16.11-.2.2-.28.37-.1.18 0 .32 0 .32s.25-.17.74.24c.35.3.28.53.3.55.04.03.15.15.3.05l-.13.13c-.06.07-.17.2-.2.46-.04.12.04.25.1.28.03 0 .26-.04.56.16.52.38.4.64.4.64s.26-.04.3-.11l-.06.18a.9.9 0 0 0 .04.54.3.3 0 0 0 .21.2c.04-.02.22-.2.58-.15.63.1.7.33.7.33.28.04.3-.21.39-.43.08-.22-.07-.36-.04-.6.06-.36.57-.62.69-1.08.07-.26.03-.5.24-.74.62-.68 1.3 0 1.1-.2.37-.34.72-.31.97.09.04-.08.13-.1.42-.3 1.09-.36 1.17-1.1 2.16-1.54 1.1-.1.8.74 1.81.9 1.94 1.02 2.94 4.19 5.3 3.83 1.63-.25 1.4.29 3.42-.14 1.37-.29 2.59-1.19 3.35-1.46a2.62 2.62 0 0 1 .58-.12c.28 0 .54.07.81.1.28.02.57-.03.76-.23.13-.02.3-.05.42-.1a.91.91 0 0 0 .52-.52"/>
      <path fill="none" d="M75.46 91.87c-.3.18-.42.17-.42.17s.25-.1.27-.27c.05-.19.52-.24.52-.24s-.07.16-.37.34zm.88 1.28c-.2.28-.3.33-.3.33s.19-.2.13-.37c-.04-.18.36-.43.36-.43s.01.18-.2.47z"/>
      <g stroke="none" fill="#000">
        <path d="M75.27 91.16a1.64 1.64 0 0 0-.9-.53l.1-.33c.38.18.64.49.82.84l-.02.02zm3.34-1.56a.56.56 0 0 1-.48.6l-.02-.03c.09-.24.27-.46.5-.57zm-.86.43c.06-.37.46-.49.78-.59l.02.02c-.03.1-.09.16-.16.22-.11.1-.28.17-.4.24l-.24.11zm-4.64 2.93c.05-.4.32-.83.73-.94l.01.02c-.3.25-.5.6-.74.92z"/>
      </g>
      <path fill="none" d="M75.04 92.04c-.15-.01-.2.01-.26.05"/>
      <g stroke="none" fill="#000">
        <path d="M75.68 91.45c.26-.38.73-.17 1.05-.45l.02.03c-.15.23-.44.31-.66.45-.07.05-.1.1-.1.12l-.31-.15zm.3 1.14a1.16 1.16 0 0 0-.94-.38l.01-.34c.41.06.78.34.97.7l-.03.02zm-1.73 2.01c.04-.4.32-.82.72-.93l.01.02c-.3.25-.5.58-.73.91zm2.11-1.93c.14-.52.77-.52.96-.96h.03c-.04.34-.38.54-.57.79-.05.08-.09.16-.08.2l-.34-.03zm1.03.93c-.38 0-.67-.11-1.05-.16l-.02-.04c.24-.4.97-.2 1.07.2zm-.77 2.44c-.14-.39-.09-.89.22-1.17h.02c-.16.38-.18.77-.24 1.17z"/>
      </g>
      <path fill="none" d="M76.03 93.48c-.14.05-.17.1-.22.16"/>
      <g stroke="none" fill="#000">
        <path d="M94.61 88.54c-.13.35-.38.6-.64.88l-.27.26a.68.68 0 0 1 .05-.4c.15-.38.48-.65.86-.74zm-.03.98c-.02.39-.23.7-.56.89a.77.77 0 0 1 .56-.89zm.09.78c.01.27-.06.5-.18.74l-.17.22a.57.57 0 0 1-.1-.28c0-.29.15-.6.45-.68zm4 .12a4.7 4.7 0 0 0-.97 1.48c-.3-.64.29-1.44.97-1.48zm-9.6 2.89c.4-.54 1.13-.1 1.5.28-.56.1-.96-.34-1.5-.28z"/>
      </g>
    </g>
    <g stroke="none" fill="#000">
      <path d="M93.67 87.7c.8-.4 1.83-.78 1.87-1.82h.03c.01.24-.02.48-.12.71-.3.67-1.03 1.02-1.6 1.4l-.18-.28z"/>
    </g>
  </g>
</svg>
