<svg xmlns="http://www.w3.org/2000/svg" fill="#d7374a" stroke="#000" viewBox="50 50 200 200">
  <metadata source="http://wappenwiki.org" license="https://creativecommons.org/licenses/by-nc-sa/3.0"/>
  <g id="griffinRampant" stroke-width=".32">
    <path class="secondary" d="M75.47 75.57s1.08-.54.68-1.43-.97-.75-.97-.75-.3.15-.65.14c-.89 0-1.13-.6-1.13-1.18 0-.26.11-.4.1-.49-.05-.22-1.2.69-.63 2.34.62 1.81 2.6 1.37 2.6 1.37zm-.16-9.1s.75.95.02 1.57c-.73.64-1.2.26-1.2.26s-.22-.26-.53-.4c-.8-.37-1.28.08-1.52.6-.11.25-.06.42-.13.49-.14.18-.8-1.12.43-2.39 1.32-1.37 2.93-.14 2.93-.14zm5.47-1.87s-.32 1.17-1.26.95c-.95-.2-.93-.8-.93-.8s.09-.32.01-.67c-.18-.86-.82-.97-1.39-.85-.25.05-.36.2-.46.18-.24 0 .42-1.3 2.16-1.08 1.9.25 1.87 2.27 1.87 2.27zM84.8 68s-.9.8-1.58.1-.33-1.17-.33-1.17.25-.23.38-.55c.32-.83-.16-1.27-.7-1.49-.23-.1-.4-.04-.48-.1-.2-.13 1.07-.86 2.4.28 1.45 1.25.31 2.93.31 2.93z"/>
    <path class="secondary" d="M76.4 67.45c.19.54 1.1.54 1.6.88.63.43.16 1.37.8 1.78.71-.42-.3-1.14.12-1.74.36-.7-.14-1.41-.15-2.11-.68-.1-1.08-1.08-.49-1.51.44-.26.93.4 1.5.17.56.05 1.27-.92 1.5.03.16.58-.23 1.04-.72 1.23.2.62.53 1.35.04 1.96-.01.62.21 1.38-.1 1.9.79.1.67-.78 1-1.14.68.05 1-.63.46-1.09-.3-.63.82-1.55 1.09-.76.36.6 1.13.99 1.84.87.5.42-.04 1.27-.6 1.31-.7-.3-1 .5-1.63.6-.4.49-.12 1.46-1.06 1.38-.71-.2-1.2.64-.54 1.07.26.4.75.62.93 1.09.29.42.74.77.99 1.22.45.46.72 1.02 1.13 1.5.48.84 1.28 1.52 1.53 2.48.2.6-.39 1.08-.94 1.07-.87.08-1.07-1.16-1.68-1.64a96.44 96.44 0 00-3.76-4.45c-.53-.54-1.4.03-1.43.7-.24.6-1.14.62-1.1 1.43-.32.56-1.79.43-1.25-.37.27-.7-.08-1.5-.46-1.97.05-.73 1.22-.85 1.5-.22.33.45.31-.3.1-.47 0-.57.58-.7.99-.54.47-.4-.76-.74-.4-1.34-.02-.77-.95-.73-1.25-1.31-.38-.91-1.2.33-1.76-.35-.5-.3-.34-1.02.23-1.05.59-.41.74-1.18.86-1.78.52-.3 1.23.3 1.17.87-.01.1-.03.2-.07.3z"/>
    <path d="M87.25 84.7c-1.17-.73-1.72-1.8-3.26-3.23-.65-.62-2.12-1.57-2.89-1.57s-2.7-.55-2.17-2.31c.02-.1.05-.02.1.02.34.7.87 1.32 2.72 1-.53-.58.07-1.46.07-1.46s.03-.04.06 0c-.03 1.06.67.79.99 1.18s.72.66 1.85.69c0-.09.03-.48-.14-.77-.24-.43-1.24-1.42-.44-3.03.26-.5.57-.95.55-1.3a.85.85 0 00-.9-.81c-.1-.01-.17-.03-.1-.14.15-.23.64-.25.79-.25.33-.02.97.2 1.3.75.39.56.4 1.35.28 1.98-.27 1.34 1.45 2.87 2.27 3.22 1.93.87 3.35 2.72 3.52 2.29-.03-.17-4.56 3.77-4.6 3.73z"/>
    <path class="tertiary" d="M105.1 73.16l-.07-.12-.3-.4a7.8 7.8 0 00-1.3-1.2 5.78 5.78 0 00-1.37-.71l-.09-.02-.23-.07-.67-.14a7.36 7.36 0 00-.7-.08c-.24 0-.48-.02-.72 0-1.25.02-3.34.46-4.59.28-1.36-.15-2.18-.82-2.33-.94.2-.06.97-.07 1.06-.08.33-.02.13-.08-.01-.13a7.53 7.53 0 01-1.64-.89c-.71-.52-1.32-1.32-1.45-1.23-.27.18.49 2.62 1.16 3.64.1.16.25.4.25.27 0-.08.06-.84.1-1.09l.04.02c.45.51 1.57 1.03 2.92 1.17.77.09 2.4.05 3.16-.05.47-.06.92-.12 1.37-.14.21-.01.43-.02.65-.01.21 0 .42.02.62.04a4.88 4.88 0 01.75.13l.08.02.03.01v.01l.27.09a5.36 5.36 0 012.13 1.54c.13.14.22.27.28.34l.07.09.02.03.54-.36z"/>
    <path d="M97.07 73.74c.34.26.3.68.27.79-.14.44-.65.7-.44 1.23a.73.73 0 00.47.42c-.12-.28-.12-.58.15-.86.2-.2.6-.23.65-.66-.01.05.03.33.08.45.17.54.5.42.43.84-.05.34-.66.54-.41.63.32.12.77.11 1.11-.23.4-.4.46-.8.36-1.04.13.31.81.62 1.35.08-.17-.04-.85-.27-.85-.85 0-.76 1.05-1.13 1.52-1.18"/>
    <path class="secondary" d="M104.2 74.28c.23-.5.28-1.03.28-1.44 0-.65.02-2.1-1.28-3.6-.63-.74-1.24-1.14-2.72-1.48a1.92 1.92 0 01-1.4-1.1 4.47 4.47 0 01-.47-1.58c-.06-.68-.04-.87-.02-1.1.05-.61.23-1.2.23-1.2-.5-.07-1.46-.12-1.72.68-.75-.1-2.99.8-3.42 2.9a3.33 3.33 0 00.6 2.63c.2.2.34.19.3-.1-.05-.5.39-1.1 1.13-1.39 1.68-.64 2.93.78 3.41 1.14 1.26 1 1.81.2 3.17.92 1.28.7 1.67 2.49 1.56 2.67a5.22 5.22 0 00-1.88-.38c-1.04.03-1.87.7-2.7.93-.64.27-2.31.4-2.76-.52-.1-.22-.1-.11-.15-.02 0 0-.04.36.18.9.22.52.88.88 1.56.91 1.95 0 2.35-.71 4.17-.71 1.14 0 1.68.6 1.93.94z"/>
    <path d="M103.42 63.85a4.57 4.57 0 013.06-2.07c1.2-.17 2.43.18 3.6-.1.93-.2 1.69-.86 2.5-1.35.82-.51 2.03-.62 2.8-.04-.14.24-.68.17-1.1.37-1.06.52-1.37 1.85-2 2.85a6.64 6.64 0 01-2.6 2.18 6.22 6.22 0 01-2.48.8c-.86.05-1.4-.32-2.52-.16"/>
    <path class="secondary" d="M78.3 117.27s-.64-.96-1.88-1.1a2.58 2.58 0 00-1.91.58c-.44.38-.35.5.06.46.5-.04.78.04 1.05.24.51.36.24.79.24.79s.72 1.51 1.68.8c.96-.72.76-1.77.76-1.77zm-4.45 4.8s-.42.13-.83.54c-.74.75-.94 1.63-.61 2.81.1.45.44.47.45.06.05-.24.2-.53.46-.74.6-.41 1.24-.14 1.24-.14s1.5-.6 1.09-1.72c-.32-.86-1.9-.78-1.8-.8zm5.96 4.77c.94.75-.37 1.8-.37 1.8s-.82.28-1.03.87c-.12.32-.1.65-.02.87.21.36-.1.5-.42.18-1.1-1.05-1.19-1.95-.68-3.26.23-.6.7-.68.7-.68s.88-.52 1.82.22z"/>
    <path class="secondary" d="M84.05 125.88c-.13 1.32-.78 1.58-.58 1.74.27.22 1.22-.03 2.01-.54.32-1.25-.8-2.82-1.43-1.2z"/>
    <path d="M106.58 107.26s-.42-6.74-3.14.7c-1.24-.02-6-3.1-11.47-3.1-5.24 0-5.78 2.83-7.26 2.83-.95-.16-.6-1.55-.8-1.58s-.74.34-.87 1.1c-.23 1.3.89 1.64.89 1.64s-.43.96-1.31 1.1c-1.23.19-2.24-.34-2.14-.03.4 1.3 1.88 1.67 3.01 1.41.87-.2 1.1-.78 1.2-.9-.33 2.96 3.4 5.14 3.4 6.4 0 0-.05.15-.47.57-.51.58-4.29 3.62-6.87 2.96-1.13-.2-.75-1.18-1.67-1.58-.05-.05.31-.51.04-1.02-.14-.26-.4-.54-.82-.5 0 0-.27.66-1.09.96-.79.24-1.35 0-1.35 0s-.5.37-.2 1.1c.27.67 1.07.78 1.08.75l-.01-.02v.02c.98.59.26 1 1.18 1.4-.4.45-1.9.26-1.9.26s-.36-.6-1.2-.53c-.78.09-1.08.62-.96.87 0 0 .45-.18.83.7.48 1.14-.1 1.82-.1 1.82.1.24.43.57 1.08.44.65-.12.74-.8 1.08-.74.2.2.83.18 1.46-.24.6-.14 1.13.2 1.32.1-.09.6-1.06.61-1.05 1.23-.05 0-.71-.32-1.27.43-.37.66-.27 1.31.08 1.47 0 0 .4-.27 1.3.11.9.4.86 1.25.86 1.25.43.12.99-.2 1.18-.8.28-.87-.16-1.1-.16-1.1s.75-.06 1.17-1.12c.3-.11.49-.45 1.2-.64l.08-.02c.41-.09 1.32-.05 1.12.9.78-.26 1.39.36 1.44 1.2 1.37-.76 1.89-2.8 2.67-3.52 1.4-1.69 2.63-2.01 4.03-2.53s2.72-.48 3.49-.48c1.27.01 2.07-.5 2.08-1.84a1.73 1.73 0 00-.12-.47c-.3-.77-1.1-1.2-1.79-1.6-.32-.2-.66-.38-.95-.62a2.37 2.37 0 01-.42-.48c-.08-.13-.13-.25-.25-.36-.03-.03-.31-.17-.31-.18-.02-.05.02-.09.05-.11l.13-.04a5.52 5.52 0 013.21.22c1.42.54 2.17 1.8 4.31 1.84 3.25.08 3.62-5.37 3.62-5.37z"/>
    <path class="secondary" d="M95.58 143.15c-.8.92-.7 2.55-.04 3.43.14.16.24.1.26-.04.3-1.38 1.43-1.69 1.93-1.63.21-.94-.7-2.42-2.15-1.76zm13.66-5.25c-.56-1.17-2.46-1.36-1.9.3.64.22.4.93.4 1.32 0 .15.02.29.2.25.94-.28 1.38-.9 1.3-1.87zm-14.53-.12c-2.35.7-1.73 3.36-1.6 3.34.33.08.96-1.52 1.91-.85 1.57-.4.54-2.7-.31-2.49zm6.3 5.86s-.26.37-.3 1.12a2.09 2.09 0 00.82 1.74c.14.07.32.25.28-.15-.06-.63.14-1.42.93-1.58.14-1.41-1.42-1.76-1.73-1.13z"/>
    <path d="M100.26 104.7s-1.08-.86-1.86-.98c-.34-.04-.5.04-.59.2-.21.33.11.58.27.73a12.18 12.18 0 012.54 3.36l.9-.72-.42-1.8z"/>
    <path d="M116.81 90.94c-.5 0-.75-.09-.78-.3-.02-.19.15-.36 1.08-.6h.04c1.3-.06 3.44-.86 6.04-2.23a43.66 43.66 0 006-3.82c1.43-1.1 2.86-2.57 3.9-3.63l.55-.57c.23-.27.34-.27.38-.27.07 0 .13.03.16.1.06.1.02.22-.13.45-.46.71-2.48 2.92-4.87 4.76-4.99 3.86-9.25 5.64-11.57 6.04-.28.05-.56.07-.8.07z"/>
    <path d="M116.7 86.2c-.2 0-.25-.13-.26-.18-.08-.39 1.02-1.25 1.64-1.57 1.8-.9 7.93-4.16 11.13-8.1a37.1 37.1 0 004.5-7c.17-.33.27-.38.35-.38.06 0 .11.04.16.08.05.08.06.17-.03.45-.32 1.17-1.96 4.3-4.43 7.3-1.47 1.76-4.56 4.67-11 8.44-1.61.97-1.95.97-2.06.97z"/>
    <path d="M115.44 82.46c-.11 0-.2-.06-.23-.15-.13-.37.79-1.42 1.32-1.83l.2-.15c4.6-3.52 7.75-6.81 9.35-9.78a38.1 38.1 0 003.1-7.71c.08-.3.18-.44.3-.44.06 0 .1.03.15.07.05.06.08.16.04.44-.1 1.2-1.12 4.6-2.98 8-1.87 3.43-5.77 7.1-9.34 10.22-1.5 1.33-1.8 1.33-1.91 1.33z"/>
    <path class="secondary" d="M75.18 97.3s.25-1.18-.7-1.43c-.93-.24-1.18.3-1.18.3s-.08.32-.3.59c-.55.7-1.18.5-1.62.13-.2-.16-.24-.34-.33-.37-.21-.1-.22 1.36 1.43 1.95 1.8.66 2.7-1.17 2.7-1.17zm-7.2-5.57s1.21 0 1.25.97c.03.98-.54 1.1-.54 1.1s-.34 0-.65.17c-.8.39-.74 1.04-.48 1.56.1.23.28.31.3.4.06.22-1.37-.08-1.61-1.82-.24-1.9 1.73-2.38 1.73-2.38zm1.98-5.43s.72.98-.04 1.58-1.21.22-1.21.22-.2-.27-.52-.42c-.8-.4-1.28.03-1.54.54-.12.23-.09.41-.15.48-.14.18-.76-1.15.5-2.37 1.4-1.32 2.96-.03 2.96-.03zm5.18-1.01s.05 1.2-.91 1.3-1.13-.5-1.13-.5-.02-.33-.2-.63c-.44-.77-1.08-.68-1.58-.39-.23.13-.3.3-.4.31-.21.08 0-1.37 1.74-1.7 1.9-.33 2.48 1.6 2.48 1.6z"/>
    <path class="secondary" d="M68.17 91.15c-.44.2-.33.6-.33.6s.52.28.73 1c.15.52.15.82-.06 1.1.22.28.34.43.6.42.29-.01.68-.2.76-.32.15-.21.14-.56.19-.7.12-.32.76-.08 1.16-.21.25-.07.56-.27.67-.28.12-.02.5.02.71.22.23.2.26.36.92.18.45 0 .29.29.23.39s-.52.05-.35.7c.17.66.8.12.74.68-.15.02-.49-.06-.71.04-.14.06-.41.4-.5.68-.06.26.06.4.3.67.32-.13.6-.08 1.08.18.66.36.83.92.83.92s.35.2.65-.2c.4-.62.37-.87-.08-1.31-.23-.51.3-.8-.1-1.31-.39-.53-.33-.7-.27-1.03.12-.58.88-.55.88-.55s5.24-.23 7.62-.04c.36-.34 1.37-1.74-.93-2l-1.73-.08s-.5-.11-1.08-.03c-.23-.14-.86-.1-1.2-.02a1.84 1.84 0 00-1.15.02 2 2 0 00-1.24 0h-.63c-.6.08-.62-.53-.61-.58s.95-1.13.39-1.49c-.26-.16-.64-.65-.38-1s-.14-.78.16-1.07c.58-.43.5-.78.28-1.3-.22-.41-.6-.28-.6-.28s-.25.53-.97.78c-.52.18-.81.19-1.11 0-.26.24-.4.36-.38.62.02.3.24.67.37.75.2.14.43.09.58.12.15.02.56.25.28.68-.42.66.13.74.25.97.2.5-.18 1.01-.22.83s-.2-.49-.5-.73c-.24-.2-.64-.13-.87-.6-.05-.13-.2-.51-.48-.7-.56-.31-.62-.25-.77-.28s-.28-.1-.29-.24c.24-.58.14-.8-.47-1.23-.43-.23-.67.1-.67.1s.08.58-.37 1.18c-.34.44-.57.6-.92.61-.09.34-.14.52.02.73.18.23.57.42.71.41.25 0 .53-.22.67-.26s.42.4.86.46c.83.26.8.92 1.28 1.18s.58.14.72.24c.23.19.16.51.16.51s-.39.13-.78-.1c-.97-.87-1.67-.08-1.98.15-.53.4-.93-.01-.8.17-.29-.53-.75-.54-1.27-.35z"/>
    <path d="M136.16 89.31c-.44.02-.02 2.37-2.65 2.37-3.15 0-4 3.46-4.57 3.46.04 0-.34-1.37-1.86-1.37-1.35 0-1.64.78-1.64.78s1.55-.31 1.55 1.23c0 1.78-3 1.59-3.19 1.59-.64 0-4.5-.06-7.01 2.05a6.4 6.4 0 00-2.2 5.16c0 5.38 7.85 6.62 7.85 10.58 0 2.85-2.7 4.08-4.23 4.23.34-.27.55-.54.55-1.22-.06-1.1-.4-.53-.59-.4-.4.43-.94 1-2.25 1-1.42 0-3.35-.69-4.74-4.95-.46-1.43-.77-3.5-1.11-4.84-1.03-4.68-4-8.02-4.58-10.12l1.04.02c5.17-.04 8.84-1.7 9.34-3.3 3.75.39 8.26-2.63 8.48-3.32 1.78.88 7.74-2.63 7.95-5 1-.5 2.89-3.51 2.26-5.22.1-.7-.34-1.07-.6-1.08-.47-.01-1.2 1.06-2.44 2.31a27.73 27.73 0 01-6.58 4.72 16.56 16.56 0 01-5.75 1.89 2.7 2.7 0 01-1 .06c1.09-.14 2.39-.56 4.18-2.02.48-.4.93-.9 1.1-1.5 2.54 1.02 7.39-4.24 7.12-5.1 1.13.28 4.22-2.94 4.29-5.63 1.24-1.64 1.6-5.12.7-5.54-.04-.42-.49-.58-.65-.57-.41.04-.64 1.25-1.7 2.96-4.56 6.96-11.1 10.78-14.69 11.93a3.25 3.25 0 00.54-.42c.63-.13 5.35-2.16 5.42-4.26 1.8.39 5.3-3.86 5.12-5.77.98.28 3.86-4.76 3.11-6.04 1.1-.43 1.22-5.51.12-5.88-.21-1.63-1.83-2.06-2.14-1.68-.38.43 0 2.27-1.1 5.25a32.72 32.72 0 01-3.72 6.68c-1.5 1.88-2.35 3.35-4.2 4.8-3.15 2.5-3.18 2.52-4.73 3.15.59-.4 1.17-1.08 1.12-1.4.73.22 5.08-3.52 4.75-5.1 1.19.15 3.79-5.32 3.22-6.37.91-1.85.59-4.7-.37-4.92-1.27-1.2-1.28.47-1.92 2.15-.25.71-.89 2.32-1.75 3.57s-4.06 5.5-7.8 8.67c-3.06 2.57-7.3 4.99-7.14 4.77a9.25 9.25 0 001.65-2.73c.3-.79.4-1.77.58-2.44l.21.2c.3.25.7.6 1.41.6 1.6 0 1.96-1.42 1.96-1.42s.02-.22-.13-.12a2.34 2.34 0 01-1.24.3c-1.04 0-1.1-1.08-1.1-1.27 0-.57.3-.85.3-1.53 0-.64-.33-1-.33-1.27l.01-.17s.52.24.87.24c.56 0 1.36-.31 1.56-1.14.04-.15-.1-.1-.17-.1-.61.2-1.2.19-1.51-.24-.38-.51-.15-1.72-.22-2.1 0-1.56-.97-2.83-1.77-3.73-.8-.9-.34-1.7-2.3-2.55a11.9 11.9 0 00-4.92-.86c-1.66 0-2.56.34-3 1.24-.14.27-.32.77-.33 1.38 0 .24-.03.44.03 1.12.06.68.27 1.18.46 1.6s.6.93 1.4 1.1c1.5.33 2.16.77 2.77 1.54a5.27 5.27 0 011.19 3.5c0 .5-.04 1.1-.28 1.45-.2.27-.49.27-.98.67-.4.33-.55.98-1.52.42-.12.16-.05.44.1.64.29.36.74.37.74.37-.54.3-1.1-.09-2.09.21-.45.14-.83.48-1.3.59-.43.1-.93.1-1.33-.08-1.32-.55-2.5-.1-3.12-1a1.42 1.42 0 01-.1-1.23c-.4-.03-.7.42-.83.72-.18.45-.05 1.06.22 1.45h-.13c-1.19 0-1.65.84-2.8 1-.5.08-1.93.16-2.07-.86-.15-1.07.56-1.38.75-1.54.05-.16-.42-.23-.95.01-.57.26-1.13 1.06-1 2.11.2 1.31 1.23 1.81 2.14 1.84.74.04.85-.02 1.17-.06 0 0-1.43.37-2.05 1.3-.16.25-.54.82-1.1.82-.67 0-1.03-.8-1.03-.8-.17.14-.14.67-.07.9.21 1 1.01 1 1.01 1s-.66.41-1 1.1c-.64 1.3-.14 1.86-.59 2.74-.18.3-.43.62-1.04.62-.71 0-.88-.46-.98-.31a.67.67 0 00-.02.57c.21.56.75.92 1.4.92 1.15 0 1.76-1.07 1.76-1.07 0 .4-.2.74.04 1.5-.27.02-.9-.04-1.75.27s-3.07.9-3.94-.14a2.66 2.66 0 00-1.72-1.02 1.53 1.53 0 00-1.4.55c-.09.12-.38.5-.3.78.05.12.1.07.2.01a.86.86 0 011.18-.2c.27.2.43.73.66 1.25.76 1.65 2.15 1.48 2.63 1.57.35.05.62.32.7.38-.73.86-1.2 1-1.7 1.02-.5 0-.74.72-1.53.04-.05 0-.04.04-.04.04s.31 1.02 1.09.98c-.91 1.63-1.73 1.65-2.49 1.49-.06.01-.14-.01-.08.07 1.04 1.51 2.68.34 3.17-.25s2.14-1.15 3.03-1.27c2.06-.3 4.34-.25 4.47-.32a6.94 6.94 0 002.27 4.04c1.4 1.33 3.61 2.11 5.49 3.27 2.79 1.7 3.46 3.74 3.46 4.87 0 2.02-2.47 3.63-2.47 8.49a14.29 14.29 0 00.77 4.56 9.96 9.96 0 002.33 3.74c1.15 1.13 2.2 2.05 2.2 5.83 0 5.1-1.02 6.8-1.68 7.67-.58.81-1.16 1-1.76 1.02-1.3-.06-1.87-.91-4.02-.27-.4-.28-1.5 0-1.48.5.55.16 1.05 1.6.3 2.5 0 0 .2.27.58.27.78 0 .63-.48 1.31-.51.9.04.88.46 1.33.4a4.22 4.22 0 00-.74.84c-.37.46-.73.73-.98.74-.48.02-.9.38-1 .54a.5.5 0 00.08.63c.48-.06 2.17.16 1.8 1.78l.3.19c.46.33 1.14-.43 1.12-.78-.02-.53.68-.96.76-1.04 1.16-.93 1.13-.32 1.77-.88l-.06.3a.7.7 0 00-.36.45c-.07.26 0 .39.1.46.73-.16 1.87 0 1.72 1.13.12-.03.37-.07.52-.08 1.58 0 2.3-1.5 2.3-1.5.59-.8.42-2.09.41-3.17 0-.84.07-1.6.59-1.76a1.6 1.6 0 011.04.11c.34-.89 1-.96 1.66-.45a1.2 1.2 0 00-.06-.49c-.16-.52-.76-1.3-.76-3.03.01-4.45 2.4-6.86 2.75-7.4.49-.62 1.98-2.73-.94-3.34-2.06-.39-2.3-.98-2.34-2.3 0-1 1.13-2.88 1.2-4.94.12.2 2.28 5.65 8.53 5.65 5.3 0 7.84-3.84 7.84-6.79 0-2.58-1.77-3.94-3.6-5.48-.35-.33-.45-.7-.45-.98 0-1.37 2.73-.31 2.7-1.95-.05-.48-.13-.34-.33-.22-.04.03-.24.21-.53.21-1.17 0-1.56-.65-2.36-.65-.49 0-1.61-.12-2.47 1.06a4 4 0 01-1.29-2.95c0-3.1 2.98-4.4 7.17-4.4 2 0 4.59.27 6.43-.79 2.76-1.67 1.83-4.08 3.02-5.27.45-.4 1.47-.94 1.86-1.33s1.05-1.2 1.05-1.93-.32-1.27-.5-1.33z"/>
    <path d="M107.23 62.92c.46-.18.95-.3 1.48-.3 1.2 0 2.37.5 3.58.4.95-.09 1.8-.62 2.67-1s2.09-.34 2.76.34c-.15.22-.68.07-1.14.2-1.12.37-1.61 1.65-2.37 2.55a6.6 6.6 0 01-2.88 1.82 6.35 6.35 0 01-2.56.44"/>
    <path fill="#f6f6f6" d="M101.11 65.86c-1.72.18-1.77-1.6-1.74-1.77.2.02 1.6-.43 2.1-.21.27.2.72 1.81-.36 1.98z"/>
    <g fill="none">
      <path d="M93.1 86.91c1.53-1.43 3.75-2.2 6.19-2.84.67-.16 3.59-.75 5.28-1.33a32.6 32.6 0 002.53-1.07"/>
      <path d="M92.3 94.45c1.95 2.06 5.85 1.59 6.23 1.59 3.44.03 4.9 2.6 6.95 2.85"/>
      <path d="M103.6 83.06c1.28-.05 3.54-.86 4.26-1.16 2.92-1.27 4-2.84 4.57-2.85 1.4.06.54 2.61.33 2.77.15.53-.52 2.28-1.45 2.88.17-.07.92-.38 1.15-.52a17.17 17.17 0 003.03-1.88c.36-.31.83-.7.97-.7h.01c.07-.02.18.03.3.15.35.34.55 1.19-.01 2.41.13.38-.22 2.02-1.75 3.1a4.7 4.7 0 01-.77.48c2.67-.58 3.51-1.98 4-1.9h.01a.5.5 0 01.26.22c.36.66.1 1.62-.45 2.4.12.63-.23 1.26-1.17 2.15-.78.77-2.5 1.36-2.5 1.36s1.22-.15 2.36-.67c2.61-1.01 3.25-2.29 3.21-.3.1.23.02.92-.2 1.22.05.65-2.24 2.87-3.59 2.69-.07.35-1.9 2.41-5.24 2.41a3.5 3.5 0 01-1.64-.42c-.28.57-3.16 1.42-5.69 1.13"/>
      <path d="M116.97 80.3c-2.3 2.14-4.45 2.7-4.45 2.7m-1.22 1.7c-.68.2-1.57.59-1.57.59m6.82-.04c1.1-.1 1.9-.68 2-.75"/>
      <path d="M114.24 87.73c-.58.34-1.4.72-1.74.57-.08.5-.65.82-.65.82"/>
      <path d="M113.13 92.22a5.37 5.37 0 001.23-.27m3.81-1.99c-.33.08-.82.14-.82.14"/>
    </g>
    <g fill="#000" stroke="none" transform="translate(56.584 72.535) scale(.10824)">
      <path d="M258.5 58.9c-2.2-2.28 5.54-3.65-.29-2.01-.04 2.6-1.9-2.65-2.92-3.32C243.58 37.43 230.7 22.17 218 6.8c12.44 12.82 24.54 27.67 36.37 41.68 2.28 2.9 5.01 5.86 6.5 9.18-4.16 4.23-2.8-2.85.03-.06l-2.4 1.3zM221.1 6.7c4.49-.02 5.6-9.08 8.76-5.5-1.1 3.65-5.2 5.36-8.66 5.9l-.1-.37zm7.2 9c4.65.06 5.57-9.12 8.66-5.63-.85 3.8-5.02 5.6-8.56 6.03l-.1-.37zm7.4 8c2.44-1.23 5.33-3.2 5.1-6.3 2.22-.27 3.83.35 2.13 2.48-1.48 2.56-4.52 3.56-7.23 4.22v-.38zm6.7 8.7c4.02-.46 5.36-9.27 8.1-5.35-1.08 3.46-4.75 4.99-8 5.65zm18.5 36.1c-2.98-2.53-2.61-11.99.34-7.37-.4 2.4-.79 4.9-.04 7.27zm-17.8-7c-1.68-4.12-6.68-4.96-10.5-3.7-2.18-5.54 6.68-2.46 8.64-.05a7.05 7.05 0 011.86 3.75zm-36.7-85c1.9 2.95.46 7 2.9 9.7-2.18-.4-3.15-3.72-4.02-5.76-.25-1.34-2.41-2.22-.17-2.96l1.29-.98zm15.3.8c-1.82 1.45-3.16 8.17-3.17 2.44 0-3.33.17-5.24 3.17-2.44zm30.1-7.1a19.21 19.21 0 01-7.5-4.6c2.32.55 5.16 1.95 7.9 1.8l-.4 2.8zm-29.2 18.4a6 6 0 002.4 5.2c-1.73 2.05-3.19 1.83-3.3-.93-.18-1.27-.32-3.84.9-4.27zm.1-46.9c-2.84 1.38-12.78.4-5.47-.69 1.96-.09 4.44-3.57 5-.3l.47.99zm-35.3 73.9c2.75 2.86 1.39 11.9-.95 6.94.9-2.16.74-5.01.95-6.94zm24.8-9.1c-3.2-1.24-7.4 2.6-9.53 1.81-3.86-4.4 8.77-2.92 9.53-1.81zm70.3 77.4c-6.53-7.06-11.87-17.72-7.5-27.22 2.56-3.4 8.24-2.45 11.97-1.28 6.34 2.37 11.46 7.32 15.13 12.9-2.8-2-5.65-5.7-9.01-7.74-4.6-3.44-10.8-5.5-16.39-3.26.78-.43-1.46 3.2-1.26 4.62-1.03 8 2.97 15.41 7.06 21.98z"/>
      <path d="M270.6 81.2c-4.25-.08-9.35-1.55-11.4-5.6 3.64 1.18 7.91 3.56 11.4 5.6zm-95.2-67.6c-6.7 3.38-17.17 3.34-20.74-4.47-1.33-3.8-1.16-6.69-.2-1.63 2.08 6.44 10.03 7.99 15.84 6.05 2.07-.18 4.08-3.08 5.1.05zm-9.2-55.2c-3.98-5.67-12.42-10.13-18.72-5.2-2.53 2.57-4.8 5.61-1.64.81 5.67-6.88 16.08-3.42 21.1 2.5 1.55 1.07.09 1.17-.74 1.89zm41.5-28.5c2.51-6.94.24-17.52-8.44-18.44-4.62.3-3.4-.53-.38-.48 7.2.06 12.02 7.48 11.51 14.22-.42 2.07.83 7.18-2.69 4.7zm38.2 22.2c7.6-5 9.44-18.12.3-22.1 7.6 2.3 9.44 12.12 5.31 18.25-1.15 1.71-2.76 4.96-4.5 5.12l-1.11-1.27zm-66.7 8.2c.98-2.78 3.78-10.97 4.78-5.72a16.9 16.9 0 01-4.48 5.92z"/>
      <path d="M287.2 70c-1.18-1.05-2.38-2.07-3.29-3.37-1.3-1.56-2.3-3.33-3.41-5.03 1.55-.61 3.33 1.73 4.37 2.9a10.91 10.91 0 012.33 5.5zM268 91.1c-5.79-2.3-11.25-6.4-13.75-12.26a11.82 11.82 0 01-.8-6.32c2.98-3.29 7.83-4.6 12.13-3.66 3.85.62 7.36 2.44 10.72 4.34-1.57.2-4.17-1.58-6.19-1.76-4.07-1.08-8.73-1.68-12.56.49-.67.1-2.5 2.21-2.17 1.51.22-.05-.07 2.37.3 3.18 1.55 6.45 7.1 10.92 12.32 14.48z"/>
      <path d="M346.9 40.8c7.67 8.69 16.57 10.65.55 4.81-6.58-2.1-2.18-3.35-.55-4.81zm-28.3 22.5c8.93-1.84 16.6-9.53 25.4-9.1-9.18 1.44-15.75 9.04-24.5 11.9l-.9-2.8zm-12.7 26.9a30.03 30.03 0 01-17 5.9c-1.12-6.34 12.75-1.05 17-5.9zm91.6-63.6c-3.64-10.43 4.52-4.6 0 0zm-14.8-7c1.9-6.31 5.26-2.41 1.8.12l-1.32-.09zM180.3 457.7c6.4 2.63 6.95 12 2.1 16.3 1.35-5.45 1.17-11.5-2.1-16.3zm36 40.2c-1.98-6.92-14.34-5.5-13.4-11.1 5.65 1.74 11.22 5.47 13.4 11.1zm-66-14.9c2.9-6.68 10.71-9.33 17.5-9.4-1.89 4.23-12.3.9-15.7 6.8-.76.75-1.22 1.72-1.8 2.6zm47.7 48.5c-2.82-8.5 4-16.48 11.1-20.2 1.66 3.4-5.43 3.86-6.96 7.05-3.46 3.35-5.5 8.3-4.14 13.15zm-28.2-121.4c6.75.17 15.1 4.35 14.8 12.1-3.55-.13-1.77-7.36-6.23-8.74a21.01 21.01 0 00-8.57-3.36zM259 493c-2.57 10.48-9.44 16.82-2.2 1.8-.07-2.08 0-2.46 2.2-1.8zm89.6-84.1c-8.29 4.87-10.77 16.91-7.8 24.6-8.13-7.34-3.07-23.25 7.8-24.6zm-90.7-58.8c3.07-6.4 11.7-12.69 4.81-4.62-3.35 2.38.4 7.45-4.81 4.62zm-5-16c9.22.55 7.17 2.1-.9 2.8l.9-2.8zm-56.5 116.5c5.78-1.15 12.18-.8 17.2 2.6-5.21-2.25-11.37-1.93-16.5.4l-.7-3zm14.7 25.2c3.57-2.32 6.23-5.8 8.1-9.6-.87 4.53-3.02 8.93-6.4 12.1l-1.7-2.5zm-2.2-47.6c-3.68 3.96-8.77 6.95-14.3 7 5.06-.97 9.1-4.68 11.8-8.9l2.5 1.9zM424.5 33.9c10.14-2.66 15.56-6.94 5.15 1.3-2.65.67-6.13 3.8-5.15-1.3zm62.4-53.7c2.17 5.21 6.44 9.35 11.3 12.1-2.1 5.6-6.66-2.98-8.84-5.4-.65-1.48-4.34-6.52-2.46-6.7zm-4.4 47.5a17.78 17.78 0 005.8 7.9c-2.93 6.4-6.14-6.6-5.8-7.9zm-9.6 10.4c1.15 11-2.47 26.57-14.3 29.6-12.06-3.76-15.48-19.53-13.1-29.6.84 9.84 3.43 23.25 14.1 26.8 4.16-1.99 10.77-11.33 11.94-19.07.66-2.43.99-5.74 1.36-7.73z"/>
      <path d="M459.1 41.2c1.68 4.38 1.5 9.16 1.12 13.76 0 1.26-1.15 5.93-1.88 2.46a31.3 31.3 0 01.35-15.39c.17-.18.12-.83.41-.83zm-16.5 15.3c-4.16 8.66-10.62 16.67-19.51 20.75a21.12 21.12 0 01-12.69 1.65 15.52 15.52 0 01-3.98-12.65c.75-7.68 4.6-15.23 10.87-19.8.85-.96 3.12-1.27 1.1.1-4.76 4.12-7.5 10.14-8.91 16.17-1 4.67-.62 10.15 2.82 13.78-2.13-.98 1.44-.02 2.24-.27 6.72-.21 12.74-3.99 17.66-8.3a123.1 123.1 0 007.3-7.5 78.69 78.69 0 003.1-3.93z"/>
      <path d="M426.4 51.5c-2.62 3.49-4.04 7.68-6.26 11.41A51.42 51.42 0 01416 69.7c-.92-1.6.41-4.26.89-6.13 1.59-4.17 3.61-8.66 7.48-11.2a9 9 0 012.03-.87zm-25.6 17.3c-7.3 6.08-16.38 10.72-26.03 10.94-4.38.04-8.88-1.07-12.47-3.64-2.04-4.67-.66-10.28 2.83-13.88 3.97-4.42 9.76-6.58 15.26-8.42 2.04-.25 5.39-2.1 6.81-1-7 2.48-14.33 5.24-19.58 10.71-2.56 2.67-4.22 6.5-3.14 10.2.45 1.17.26.97-.28.19 6.58 4.4 15.14 3.5 22.34 1.3 5-1.54 9.68-3.92 14.26-6.4z"/>
      <path d="M389.3 60.3c-5.96 3.5-11.79 7.38-18.3 9.8 0-1.96 3.3-3.63 4.8-5.1 3.9-2.76 8.51-5.03 13.4-4.8zm-31.2 19c-5.03 7.46-12.05 13.97-20.61 17.06-4.62 1.6-9.86 2.06-14.49.24-3.27-4.19-2.92-10.13-.36-14.56 3.64-6.26 9.6-10.98 16.05-14.14 3.23-1.18-1.26 2-2.16 2.56-5.2 4.28-10.57 9.2-12.6 15.84-.8 2.8-.47 6 1.27 8.4-2.06-1.43 3.83.9 4.87.24 9.21-.32 17.23-5.8 23.85-11.8 1.4-1.26 2.79-2.56 4.18-3.84z"/>
      <path d="M344.3 74.4c-5.03 4.5-9.77 9.3-14.6 14-.69-1.6 1.3-4.16 2.2-5.84 2.91-4.06 7.27-7.7 12.4-8.16zM486-4c.8 11.68-1.74 25.16-11.5 32.7-2.24 1.38-4.9 3.83-7.52 1.9-9.58-3.95-13.73-14.74-14.48-24.4-.23-2.16-.62-11.78.62-8.93 1.11 10.85 3.2 23.86 13.45 29.91 3.87 4.37 10-4.01 13.15-8.7C483.56 11.64 485.2 3.56 486-4z"/>
      <path d="M469.5-.3a46.9 46.9 0 011.23 15.2c-.24 1.93-.24 4.63-1.32 6-1-1.4-.94-3.8-1.25-5.64-.5-5.2 0-10.49 1.24-15.56zm7.2-40.4c1.6 7.43 1.74 15.45-.89 22.66-1.77 4.61-4.95 8.86-9.41 11.14-6.08-.83-11.37-4.87-14.33-10.17a45.57 45.57 0 01-5.17-19.53c1.65 1.43 1.54 5.7 2.81 8.07 2.28 6.89 5.95 14.1 12.81 17.35.75.67 4.13 1.02 3.56 1.26-1.53.38 1.78-1.1 1.95-1.62 6.16-5.25 8.01-13.7 8.62-21.42.18-2.5.18-5.56.05-7.74z"/>
      <path d="M462.3-35.4c2 2.07 2.98 4.9 3.43 7.68.6 3.67.72 7.59-.63 11.12-.8.22-.64-.85-.88-1.35-.63-2.63-.85-5.33-1.22-8-.24-2.6-.47-5.2-.6-7.82l-.1-1.63z"/>
      <path d="M284.9 149.2c4.06-.14 8.11-.39 12.14-.9 4.7-.5 9.35-1.3 13.96-2.3-1.2 1.23-4.33 1.44-6.26 2.2-6.02 1.56-12.09 3-18.26 3.8-1.19.5-1.51-.1-1.43-1.25l-.15-1.55zm4.1-24a67.7 67.7 0 01-3.2 12.3l-2.6-1.5a45.21 45.21 0 005.8-10.8zm40.1-6.6c-4.73 7.68-11.55 14.44-20 17.86a22.7 22.7 0 01-14.3.94c-3.36-4.14-3.34-9.97-1.63-14.79 2.07-6.42 6.15-11.99 10.97-16.64a21.59 21.59 0 014.36-3.47c.33 1.24-2.25 2.29-2.9 3.57-4.42 5.3-8.23 11.35-10.04 18.07-.95 3.67-1.1 7.96 1.24 11.16-2.05-1.32 2.31.37 3.14 0 7.95.37 15.2-3.91 21.12-8.82 2.88-2.4 5.42-5.2 8.04-7.88z"/>
      <path d="M313.5 111.8c-3.97 5.94-11.1 14-12.41 15.6 1.8-6.2 5.58-13.9 12.41-15.6zm22 21.2a42.72 42.72 0 015.8-25.6c-2.63 8.06-4.63 16.74-2.8 25.2l-3 .4zm19.5-16.5c.84 10.16-7.63 5.64 0 0zm88-27.7c.96 11.44-6.75 6.01 0 0zm-35.2 14.9c-1.96-5.93 4.38-31.5 2.17-14.86-1.23 4.64 1.69 12-.7 14.6l-1.44.26zm18.2-15c-3.02 3.02 1.65 14.58-4.2 10.6.9-3.41 1.5-9.08 4.2-10.6zM397.2 96c-1.42 3 1.33 10.4-1.72 10.46-5.64.03 4.33-8.64 1.72-10.46zm-32.4 19.9c-1.97-7.15-2.55-15.67-.7-22.5-2.73 6.92 6.8 20.07.7 22.5zm15.6-17.4c1.3 5.09-1.46 19.21-2.18 8.24.49-2.67.76-6.37 2.18-8.24zm-58.1 101.8c-14.3 1.8-25.98-5.26-4.24-1.27l4.24.97zm247.9 233.9c-15.2 8.75-6.34-4.91-.04-.05zm91.1-209.1c7.39-2.6 7.02-11.45 6.4-17.5 5.47.06-3.88 3.11 2.8 1.8 1 6.2-2.52 15.76-9.2 15.7zm-60.9 109.4c1.45 12.78-.23 14.74-2.9 1.1-.26 1.06 2.57-1.28 2.9-1.1zm-31.9-6.7c-.22-11.4 8.45-8.53 0 0zm156.1-141.2c-6.97 8.94-19.11 15.14-4.75 1.94 1.3-.35 3.75-3.08 4.75-1.94zm-473.4-26.7c-7.28 1.42-14.93-1.79-19.9-7.1 4.48-4.64 12.77 11.35 19.9 7.1zm-79.9 6.7c6.98.76 6.54 6.9.62 1.7-.31-.43-1.39-1.38-.62-1.7zm76.7 14.8c-.44 3.62-16-2.5-20.34-.1-11.07-.57-47.27.7-44.49-.27 22.4-.33 45.46-3.76 67.63-.53 1.75 2.41-1.93.57-2.8.9zm-63.6-2.2c-.68-4.56-.21-16.3 2.3-6-.2 1.85-.8 5.38-2.3 6zm11.5 0c-2.81-9.85 3.9-14.52 1.2-1.5-1.01-.52-.2 2-1.2 1.5zm10.9-.8c-3.08-9.4 3.7-13.3 1-1.4-1.3-1.11-.07 1.9-1 1.4zm11 .3c-2.06-5.72.88-15.17 1.93-4.33-.52 1.2-.54 4.26-1.93 4.33zm-66.1-7c3.86 1.78 14.11 5.91 4.1 3.8-3.23-1.35-5.36.5-4.1-3.8zm10.1-11.5c2.96 6 1.18 6-2.3 1.9-1.87-1.68 1.59-1.1 2.3-1.9zm13.4-27.8c-17.86 11.05-3.25-5.5 0 0zm-40.4 4.8c-1.37 2.52-3.2 5.62-5.6 6.7 3.27-2 .33-10.17 5.6-6.7zm35.4 73.8c11.03 2.4 7.16 11.16 0 0zm8.4-25c-3.56 2.05-2.72 11.27-6.5 7.7.98-2.94 4.44-7.1 6.5-7.7zm-56.6-3.3c-5.03-3.67-3.23-12.26-.55-4.47.23 1.14 1.27 3.7.55 4.47zm39.2 36.4c-1.4 9.34-12.87 18.75-21 10.6 11.54 8.86 16.19-6.92 21-10.6zm-48.8-27.4c-9.04-1.5-19.47 7.34-15.23 16.05-4.94-9.17 5.72-19.24 15.23-18.05v1.46zm3.8-50.2c-4.28-7.7-17.17-11.76-22-2.4 4.43-10.11 18.85-6.62 23.7 1.4l-1.26.74zm41.2-15.8c1.35-9.38-8.97-18.89-16.86-14.35 9-5.6 19.96 4.49 18.86 14.25l-1.46.07zm125.6 54c-9.9.98-24.08-2.33-26.8-13.1 3.3-10.63 17.91-14.22 26.9-11.6-8.71.89-20.81 3.03-23.9 12.6 2.37 6 15.32 11.5 23.8 12.1z"/>
      <path d="M281.7 167.4c-4.53 1.7-9.55 1.68-14.27.88-.67-.28-3.7-.5-2.67-1.47 3.9-1.26 8.09-1.36 12.11-.81 1.6.32 3.48.46 4.83 1.3v.09zm-2.1 28.1c-4.74 2.89-10.42 4.75-16 4.02a13.88 13.88 0 01-8.2-4.12c-.92-4.98 1.52-10.24 5.68-13.05a29.61 29.61 0 019.62-4.75c.18 1.2-2.39 1.64-3.16 2.62-3.61 2.64-7.54 5.65-8.74 10.2-.46 1.16-.33 3.4-.38 4-.9-1.67 1.3.95 2.01 1.01 4.3 2.41 9.48 1.93 14.15 1.18 1.7-.25 3.36-.7 5.02-1.11z"/>
      <path d="M273.5 187.4c-3.02 3.07-7.18 4.82-11.4 5.4-.6-1.21 1.64-2.36 2.44-3.2a12.66 12.66 0 018.96-2.2zm30.5-4.8c-6.44 1.59-13.6 1.72-19.72-1.16a15.37 15.37 0 01-7.28-6.94 15.73 15.73 0 017.4-11.05 30.46 30.46 0 0116.4-4.35c-.23 1.4-3.38 1.01-4.61 1.88-5.5 1.75-11.24 4.32-14.5 9.33-.86 1.05-1.4 3.66-1.64 4.16-.48-1.85 1.02 1.54 1.7 1.8 4.48 4.44 11.02 5.83 17.1 6.31 1.6.12 4.24.2 5.15.02z"/>
      <path d="M302 171c-4.08 1.34-8.38 1.64-12.61 2.19-1.45 0-3.19.55-4.47.14.41-1.33 2.57-1.99 3.88-2.63 4.27-1.39 9.08-1.6 13.3.1l-.1.2zm16.1-4c-4.57 1.45-9.7 1.5-14.09-.59-2.3-1-4.29-2.76-5.41-5.01a11.33 11.33 0 015.43-8.16c3.43-2.13 7.57-2.97 11.57-2.84.43 1.18-1.9.75-2.46 1.4-3.57 1.44-7.56 2.69-9.99 5.88a8.66 8.66 0 00-1.57 3.63c-.5-1.83.52.46 1.17.94 3.08 3.11 7.62 4.08 11.84 4.38 1.13.12 2.28.14 3.4.31l.08.04z"/>
      <path d="M316.8 158.9a11.91 11.91 0 01-3.41 1.29c-.87.16-1.72.37-2.59.52-.99.05-1.97.15-2.96.18l-2.94-.09c-.26-.31-.17-.59.19-.8 1.76-1.66 4.26-2.21 6.62-2.26 1.8-.03 3.62.36 5.19 1.26l-.1-.1z"/>
      <path d="M323.5 147.5c3.21-6.08 8.02-11.04 12.8-15.9 4.1 2.72-1.56 4.39-3.33 6.6a51.84 51.84 0 00-9.37 9.5zm.9 46.8a45.9 45.9 0 006.7 7c-3.1 5-4.59-3.33-6.3-5.4.13-.39-1.06-1.44-.4-1.6zm180.4-108a71.87 71.87 0 01-32.2 24.1c-2.72-4.52 4.27-3.5 6.79-5.48A74.37 74.37 0 00504.6 86.1zm50.6 61.7c-12.95 11.75-29.93 17.92-46.6 22.3-2.08-5.66 7.45-3.06 10.72-5.33 12.75-3.5 25.33-8.76 35.58-17.27z"/>
      <path d="M522.1 71.7c37.12-25.75 70.6-57.87 94.02-96.75C621.87-35.2 627-45.75 630.5-56.9c-1.98 9.19-6.65 18.92-11.1 27.7-23.07 41.5-57.35 75.99-95.9 103.3l-1.4-2.4zM696.6-85.6c-3.28 47.24-29.22 89.86-60 124.5-21.79 23.67-47.29 44.55-76.8 57.8-2.24-7.03 13.91-7.25 18.1-12.5 45.5-27.31 82.43-68.89 104.5-117.1 7.34-16.72 12.64-34.52 13.9-52.8zM566.9 184.7c-21.26 13.08-45.15 22.93-70.2 25 1.83-7.15 17.63-2.34 24.7-6.62 15.94-3.84 31.4-10.83 45.5-18.38zm-23.8-74.4c-8.67 9.52-19.62 17.33-31.9 21.4-1.75-6.35 10.93-4.82 14.86-9.21 6.22-3.24 11.7-7.98 17.04-12.19z"/>
      <path d="M723.4.3c-20.15 48.97-59.34 88.35-104.79 114.57a422.76 422.76 0 01-45 22.63c-3.7-5.88 9.02-5.14 11.88-8.51 39.44-17.54 76.54-41.95 104.42-75.25 13.62-16.1 25.06-34.1 33.29-53.54z"/>
      <path d="M708.4 101.3c-17.62 25.39-41.96 45.7-68.8 60.74a228.16 228.16 0 01-55.8 21.46c-2.67-5.6 7.3-3.34 10.3-5.61 43.85-11.86 84.17-37.73 111.92-73.86.8-.32 1.5-3.3 2.38-2.73z"/>
      <path d="M398.4 122.5c5.54-4.35 11.79-8.27 18.82-9.55 4.37-.76 9.1.03 12.68 2.75 1.26 4.39.8 9.22-1.32 13.28-3.38 6.68-9.6 11.44-16.08 14.92-.64-1.03 1.83-1.69 2.33-2.6 4.91-4.17 9.72-8.98 11.87-15.2.98-2.89 1.13-6.06.3-9 1.34 1.54-.61-.15-1.43-.41-4.5-2.14-9.67-1.12-14.24.25-4.49 1.4-8.72 3.5-12.93 5.56z"/>
      <path d="M407.5 130.2a19.62 19.62 0 019.55-8.9c1.5-.35 4.4-1.83 5.35-.4-3.92 2.58-7.64 5.52-11.74 7.84-1.02.54-2.05 1.1-3.16 1.46zm10.9 16.4c6.7-4.13 14.17-7.46 22.07-8.25 5.21-.48 10.7.98 14.53 4.65 1.46 7.27-2.12 14.68-7.5 19.47a43.02 43.02 0 01-15.4 9.33c1.38-2.14 5.4-3.5 7.6-5.6 5.95-4.53 11.88-10.57 12.57-18.4.43-.82-.7-5.12.33-2.9-4.82-4.53-12-4.36-18.08-3.21-5.54 1.05-10.83 3.03-16.12 4.91z"/>
      <path d="M428.2 156.1c2.92-5.96 9.77-9.98 16.4-9.24 2.94.3-.05 1.32-1.14 1.62-4.97 1.64-9.49 4.35-13.95 7a23 23 0 01-1.31.62zm-63.7-4.3c8.75-4.95 18.82-9.41 29.1-7.7 3.73.66 7.48 2.43 10.04 5.18 1.7 9-3.57 17.84-10.63 23.06a54.52 54.52 0 01-14.51 8.26c1.65-2.26 6-3.77 8.4-6.1 6.63-4.96 13.14-11.7 13.9-20.38.42-.8-.56-5.55.3-3.32-5.75-5.46-14.5-5.3-21.74-3.6a120.32 120.32 0 00-14.86 4.6z"/>
      <path d="M374.2 163.5c2.88-5.35 8.66-8.66 14.51-9.74 1.38-.05 4.71-.88 4.96.5a171.95 171.95 0 00-14.58 6.59c-1.64.88-3.25 1.78-4.89 2.65zm-23.4-34.1c4.98-3.56 10.14-7.03 15.81-9.38 4.55-1.8 10.21-2.29 14.33.82 1.4.64 1.09 2.4 1.34 3.66.5 6.25-2.85 12.15-7.34 16.26a38.41 38.41 0 01-11.54 7.64c.76-2 4.26-3.3 5.82-5.25 4.88-4.42 9.81-9.93 10.08-16.86.28-.85-.51-3.89-.09-3.45.46.83-2.24-1.41-3.26-1.3-5.54-1.3-10.95 1.47-15.91 3.6-3.09 1.4-6.14 2.9-9.24 4.26z"/>
      <path d="M359 134.8c3.1-4.86 8.35-8.55 14.15-9.12 1.87 1.2-2.36 2.3-3.1 3.35-3.44 2.34-7.03 4.59-11.05 5.77zm-21.6 24.6c8.02-.7 16.55-1.83 24.16 1.52 3 1.45 5.57 3.98 6.64 7.18-1.66 5.8-6.42 10.36-12.07 12.31-5.5 2.12-11.52 2.24-17.33 1.89 3.17-1.66 6.97-1.03 10.26-2.38 5.96-1.33 12.24-4.3 15.08-10.01.8-1.67 1.25-1.57.05-2.9-1.68-2.86-5.02-4.26-8.07-5.17-6.15-1.57-12.55-1.6-18.82-2.34z"/>
      <path d="M341.8 168.3c4.75-2.65 10.77-3.28 15.86-1.25 1.37.27 2.1 1.6.29 1.33-5 .35-10.03.74-15.01.1-.39-.03-.76-.17-1.14-.18zm2 41c6.56.85 13.1 2.83 19.77 2.14 2.61-.37 5.34-1.44 6.83-3.74-.54 2.16-.32-1.73-.86-2.38-2.04-6.24-7.93-10.15-13.59-12.83-1.63-1.12-4.69-1.46-5.55-2.89 7.61 1.34 15.65 4.4 20.1 11.1a15.5 15.5 0 012.5 8.4c-2.47 3.64-7 5.27-11.28 5.03-6.28-.37-12.33-2.46-18.12-4.83h.13z"/>
      <path d="M349.8 202.5c5.31.42 10.37 2.18 15.3 4.1-1.08 1.84-4.62 1.04-6.65.75-3.23-.75-6.48-2.28-8.65-4.85zm27.6 6.3c7.66 1.17 15.38 3.53 23.19 2.4a11.66 11.66 0 006.87-3.86c-.51 1.93-.28-2.04-.78-2.59-1.85-6.59-7.71-10.92-13.5-13.94-2.69-1.57-5.99-2.56-8.55-3.95 2.83-.15 6.5 1.3 9.48 2.33 6.7 2.65 13.34 7.53 15.32 14.78.32 1.5.83 3.14.58 4.65-2.59 3.86-7.37 5.59-11.9 5.46-7.26-.07-14.2-2.64-20.91-5.18l.13-.06z"/>
      <path d="M384.2 201.2c5.93.65 11.62 2.58 17.2 4.6-3.37 2.41-7.73.41-11.24-.68a21.1 21.1 0 01-5.96-3.92zm44.3 26.4c7.9.99 15.92 3.98 23.89 1.82 2.8-.95 5.51-2.96 3.74-6.12-2.55-7.42-9.87-11.66-16.66-14.67-1.58-.65-5.35-2.18-1.56-1.66 3.9.94 7.67 2.46 11.25 4.24 5.45 2.94 10 8.3 10.57 14.6-.53 4.37-5.4 6.16-9.19 6.73-7.38.8-14.5-2.05-21.28-4.58l-.39-.18z"/>
      <path d="M434.9 220.4c5.66.41 11 2.44 16.3 4.3-1.58 1.96-5.85 1-8.27.38-3-.89-5.91-2.33-8.03-4.68zm-35.8-52.1c8.65-2.07 18.26-3.16 26.57.73 3.3 1.54 6 4.15 7.83 7.27-.96 7.63-6.85 13.74-13.75 16.6-5.17 2.34-10.83 3.35-16.45 3.8 1.46-1.73 5.85-1.64 8.26-3 7.14-2.5 14.73-6.5 17.77-13.87.47-1.53 1.28-4.12 1-2.91-3.31-5.76-10.25-8.04-16.51-8.6-4.89-.52-9.82-.6-14.72-.22v.17z"/>
      <path d="M404.3 180.9c3.15-3.52 8.22-4.52 12.75-4.58 2.25.02 4.46.47 6.55 1.28.1 1.03-1.62.58-2.31.96-5.67.77-11.36 1.33-17 2.34zm29.6 24.4c9.24-1.37 19.18-2.58 26.76-8.53 2.5-1.68 4.76-5.73 5.54-7.46.08 1.79-.95-2.2-1.53-2.54-4.02-6.48-11.57-9.62-18.75-11.09a78.04 78.04 0 00-13.42-1.48c.56-1.3 3.42-.48 4.84-.88 8.29-.33 17.18.66 24.11 5.61a22.06 22.06 0 017.85 10.47c-1.66 4.51-4.71 8.57-8.95 10.96-6.45 3.83-14.14 4.96-21.53 5.26-1.53-.1-3.73.24-4.92-.32z"/>
      <path d="M436.9 190.6c7.14-.1 14.3-.18 21.4-1-.05 1.46-2.82 2.13-4.15 2.78-5.64 1.75-12.18 1.42-17.25-1.78zM426.3 106c6.75-4.22 14.25-7.95 22.31-8.49 4.63-.3 9.73 1.11 12.93 4.5 1.7 8.02-2.7 15.96-8.8 20.91-3.86 3.32-8.39 5.78-13.04 7.78 1.28-2.15 5.3-3.56 7.3-5.8 6.03-4.79 12.06-11.45 11.86-19.64-.26-1.54-.08-2.84 0-1.76-5.2-4.42-12.6-3.67-18.76-2.17-4.73 1.13-9.27 2.93-13.8 4.67z"/>
      <path d="M435.5 115.4a21.1 21.1 0 0114.02-9.28c.8-.28 4.64-.31 2.75.8-5.07 2.43-9.76 5.6-14.93 7.84-.6.24-1.22.46-1.84.64zm25.4-3.9c6.2-2.54 12.87-4.4 19.62-4.12 4.73.2 9.58 2.16 12.38 6.12.26 6.88-4.24 13.09-9.96 16.52a42.96 42.96 0 01-14.34 5.58c2.31-1.99 6.7-3.16 9.53-5.31 5.04-2.93 9.91-7.17 11.38-13.05.22-1.43.6-3.87.5-2.67-3.55-4.47-9.75-5.27-15.1-5.03-4.7.24-9.46.91-14.01 1.96z"/>
      <path d="M467.5 121.4c2.9-3.33 7.18-5.33 11.5-5.95 1.74-.13 3.86-.22 5.3.67.07.77-1.18.6-1.68.95-3.97 1.3-7.85 2.91-11.93 3.83-1.05.22-2.11.43-3.19.5zm21.1 1.2c5.54-2.48 11.75-4.46 17.85-3.18 2.9.7 5.61 2.33 7.35 4.78.3 6.06-3.91 11.48-9.16 14.08A35.7 35.7 0 01494.1 142c.8-1.53 3.88-1.95 5.44-3.2 4.63-2.62 9.55-6.14 10.89-11.6.12-1.48.62-2.9.5-1.9-2.65-3.42-7.28-4.13-11.34-4-3.7.1-7.34.82-11 1.3z"/>
      <path d="M493.1 130.6c2.69-4.29 8.68-6.24 13.4-4.4-.44 1.4-2.84 1.42-4.16 2.07-3.03 1-6.1 1.8-9.24 2.33zm-16.2 16.9c7.99-2.7 16.7-4.48 25.06-2.46 4.16 1.04 8.22 3.5 10.34 7.29-.26 6.37-4.19 12.1-9.34 15.63-5.67 3.92-12.42 5.94-19.16 7.04.2-1.3 2.9-1.17 4.05-1.97 7.22-2.71 14.68-6.33 19.04-12.98a16.67 16.67 0 002.51-7.55c.66 2.13-1.04-1.17-1.77-1.43-4.01-3.66-9.7-4.6-14.95-4.77-5.28-.13-10.55.54-15.78 1.2z"/>
      <path d="M483.5 159.1c3.5-3.08 8.02-5 12.63-5.54a13.9 13.9 0 016.47.84c.04.86-1.09.58-1.65.86-4.58 1-9.06 2.42-13.65 3.36-1.26.23-2.52.41-3.8.48zm-29.4-5.2c5.01-1.3 10.28-2.1 15.45-1.48 4.2.63 8.3 3 10.25 6.88a15.29 15.29 0 01-6.34 10.44c-4.35 3.21-9.83 4.57-15.15 5.08-1 .56-2.55-.42-.75-.68 5.61-1.68 11.46-3.74 15.65-8.02a13.9 13.9 0 003.49-6.92c.62 2.22-.93-1.2-1.82-1.5-4.13-3.59-9.92-3.85-15.12-3.9-1.82 0-4.18.06-5.66.1z"/>
      <path d="M457.6 162.8c3.51-3.94 9.86-4.9 14.5-2.5-.8 1.42-3.39 1-4.95 1.46-3.18.39-6.34 1.12-9.55 1.04zm44.9 33.6c6.4-3.71 13.3-7.3 17.76-13.4 1.62-2.4 2.82-5.25 2.54-8.2 1.07 2.1-1.85-1.82-2.85-1.92-6.63-4.04-14.85-2.78-21.99-1-1.68.08-4 1.76-5.26 1.02 6.17-3.24 13.14-5.59 20.19-5.2 4.92.28 9.75 2.6 12.81 6.5.47 6.65-3.98 12.48-9.3 15.94a43.61 43.61 0 01-13.9 6.26z"/>
      <path d="M501.2 184.4c4.3-2.53 9.04-4.17 13.65-6.04.84-.23 1.77-.89 2.55-.86.1 1.26-1.55 2.57-2.58 3.42a19.57 19.57 0 01-13.62 3.58zm-24.7 39.3c6.27-3.63 12.98-7.15 17.5-13 1.75-2.5 3.1-5.49 2.8-8.6 1.1 2.13-1.57-1.52-2.45-1.66-6-3.96-13.68-3.27-20.36-1.74-2.38.16-5.35 2.04-7.29 1.5 6.01-3.17 12.77-5.44 19.63-5.24 5.1.17 10.2 2.48 13.37 6.54.45 6.24-3.48 11.85-8.4 15.3a43.62 43.62 0 01-14.8 6.9z"/>
      <path d="M475.2 211.8c5.12-2.59 11.08-5.58 16.4-6.7-3.07 5.44-10.7 7.5-16.4 6.7zM717.1 87.7c7.35-1.99-.98 6.8 0 0zm-18.3 49.7c-5.25-4.18.59-5.28.82-1.47l-.82 1.47zm-73.7 46c-3.87-7.59 4.57-3.12 0 0zM727.7-19.3c-1.3-4.52 6-2.38 1.63-.3-.46.14-1.3.99-1.63.3zM683.1 82.8c-5.25-4.18.59-5.28.82-1.47l-.82 1.47zm-66.2 46.7c-4.12-9.52 4.96-2.08 0 0zm105.9-98.8c-6.83-3.8 1.9-5.36.03-.1zm-48.6-15.4c-5.25-4.18.59-5.28.82-1.47l-.82 1.47zm-47.1 53.3c-1.7-.76-2.92-6.86-.1-3.2 2.62.13.39 1.9.1 3.2z"/>
      <path d="M703.1-40.4c-.41-.29-.82-.58-1.2-.92-.32-.26-.56-.62-.84-.93-.5-.63-.91-1.32-1.26-2.05.1-.08.19-.29.32-.12.52.36 1.09.67 1.7.87.46.12.9.28 1.38.33.23.04.47.01.7.02l-.8 2.8z"/>
      <path d="M704.9-94.8c-.74-.02-1.47.06-2.2.1-.54.1-1.09.2-1.56.48l-.44.22c-.08-.1-.28-.19-.13-.32.17-.29.3-.6.56-.83.34-.36.67-.74 1.02-1.1.48-.36.94-.75 1.43-1.1.2-.12.4-.25.62-.35l.7 2.9z"/>
      <path d="M576.6 107.9l-.3-.2-.4-.5a6 6 0 01-1.1-3.1v-.7l.3-.1s.6.9 1.4 1.4c.4.3.8.4 1.1.5h.3s.1 0 0 0z"/>
      <path d="M611.5 13.1l-.6-.6-1-1.5-1-2.1.2-.2 2 1.2c.5.3 1 .5 1.3.5h.6z"/>
      <path d="M567.9 60.2l-.3-.2-.4-.5a6 6 0 01-1.1-3.1v-.7l.3-.1s.6.9 1.4 1.4c.4.3.8.4 1.1.5h.3s.1 0 0 0z"/>
      <path d="M641.4-45.7l-.7-.5-1.4-1.1-1.9-1.7.2-.3 2.4.4 1.6.2h.7z"/>
      <path d="M639.3-91.4l-.6.3-1.3.8-1.1 1-.4.6-.3-.1v-.8l.4-1.7.7-1.6.3-.5.1-.2z"/>
      <path d="M475.6 449.8c-.81 2.96-1.62 5.95-1.67 9.04-.13 2.74.02 5.5.67 8.17.52 2.5 1.58 4.88 3 6.99-.75.16-1.3-1.33-1.87-1.87a20.33 20.33 0 01-2.92-6.84 37.79 37.79 0 01-.84-10.11c.1-2 .35-4 .73-5.98l2.9.6z"/>
      <path d="M465.5 598.3c-.24 2.18-.7 4.38-1.85 6.28-1.12 1.92-2.84 3.4-3.91 5.35-.73.56-.54 2.3-1.33 2.36-.74-.4-2.08-.6-2.43-1.13a11.45 11.45 0 012.44-3.48c1.68-1.77 3.98-2.98 5.13-5.22.76-1.28 1.2-2.72 1.55-4.16h.4z"/>
      <path d="M433.5 655.5c-2.22-2.3-4.58-4.57-7.48-6-2.6-1.18-5.53-1.32-8.35-1.53-.53.1-1.7-.22-.67-.59 1.38-.38 2.8-.69 4.24-.67 1.72-.1 3.48.06 5.06.8a12.92 12.92 0 016.65 6.56c.25.45.38.95.55 1.43z"/>
      <path d="M427.2 633c-2.79.97-5.2 2.81-7.25 4.9-2.24 2.33-3.76 5.22-5.04 8.16-.44 1.36-1.79-.7-2.65-.95.3-1.24 1.62-2.78 2.51-4a30.2 30.2 0 014.2-4.46 19.94 19.94 0 018.13-3.95l.05.15z"/>
      <path d="M369.7 640c4.18-.06 8.06 2.08 11.2 4.66a19.57 19.57 0 016.6 10.04c-1.04-.43-1.24-2.55-2.17-3.48a20.03 20.03 0 00-8.44-6.85c-1.91-.83-4-1.44-6.1-1.34-1.56.68-.66-2.33-1.09-3.03z"/>
      <path d="M381.6 627.8c3.15-2.54 6.82-4.84 10.98-5.06 2.8-.26 5.73.02 8.39-1.12 1.07-.11 2.61-1.82 3.23-1.33a16.04 16.04 0 01-6.46 3.23c-2.89.72-6.05.62-8.67 2.22a24.75 24.75 0 00-5.21 4.18c-.73-.45-1.3-1.22-1.96-1.82l-.3-.3z"/>
      <path d="M366.5 596.7c3.1 1.96 5.03 5.35 6.05 8.8.91 3.18.94 6.7-.35 9.8-.47-1.02.36-2.5.08-3.75-.14-4.12-1.9-8.29-5.06-10.98-.77-.72-2.7-1-1.53-2.24l.81-1.63z"/>
      <path d="M430 610.6c4.47-7.97 6.2-17.1 7.2-26.08.5-1.2-.62-3.64 1.37-3.05-1 3.63-1.57 7.41-3.13 10.88-1.28 3.02-3 5.86-5.14 8.35.33-1.92 1.96-3.3 2.5-5.17a45.86 45.86 0 003.82-14.24c.24-2.53 3.56-1.55 2.96.69-.21 7.9-2.28 15.7-5.5 22.9a22.7 22.7 0 01-4.08 5.72z"/>
      <path d="M361.6 678.6c.78-3.47 2.1-6.96 4.68-9.5 2.55-2.62 5.94-4.2 9.41-5.2.6-.1 1.6-.81 1.53.2l.28 1.4c-3.26.53-6.58 1.4-9.26 3.43a17.02 17.02 0 00-6.54 9.77l-.1-.1z"/>
      <path d="M415.7 678.1a12.65 12.65 0 012.24-11.42 19.51 19.51 0 017.16-5.88l.9 1.8c-2.54 1.21-5.11 2.54-7 4.7-2.7 2.8-4.04 6.97-3.1 10.8h-.2z"/>
      <path d="M339 630c1.32-5.13 5.49-9.51 10.66-10.81 2.6-.84 5.35-.84 8.04-.69l-.3 2c-2.68-.4-5.44-.43-8.1.23a14.1 14.1 0 00-6.4 3.42 17.16 17.16 0 00-3.9 5.9z"/>
      <path d="M475 603a19.2 19.2 0 011.69 11.12 25.64 25.64 0 01-.79 3.48c-.38-.48.2-1.77.08-2.57a19.7 19.7 0 00-1.6-9.2c-.2-.85-1.78-2-.34-2.32l.96-.51z"/>
      <path d="M484.4 407a61.52 61.52 0 01-5.1-20.4c.67-.18.27.95.56 1.24a56.51 56.51 0 007.24 17.76l-2.7 1.4z"/>
      <path d="M257.5 186.9c-2.78-.3-5.26-1.7-7.63-3.1-1.04-.21-.04-.85.26-1.35.4-.34.78-1.34 1.2-1.21 1.8 2.05 3.67 4.23 6.27 5.26l-.1.4z"/>
      <path d="M365 235.9c.38-.22.78-.38 1.2-.45 2.4-.7 5.03-.48 7.27.59.59.35 1.2.66 1.71 1.13.49.34.85.82 1.24 1.26.36.67.8 1.34.87 2.11-.07.09-.41-.19-.59-.24a38.49 38.49 0 00-3.56-1.38c-2.4-.72-4.88-1.25-7.14-2.38-.38-.15-.7-.37-1-.64z"/>
      <path d="M380.5 249c2.37-.36 4.82.34 6.89 1.48 1.64 1.08 3.34 2.23 4.34 3.98.19.4 1.32 1.68.17 1.23-1.87-.45-3.53-1.46-5.28-2.24-2.27-1.12-4.2-2.83-6.12-4.45z"/>
      <path d="M396.6 268.2a9.53 9.53 0 013.97.87c2.4.89 4.3 2.82 5.62 4.96.55 1.02 1.24 2.76 1.1 3.6-2.11-1.4-4.05-3.06-5.98-4.7-1.5-1.5-3.2-2.81-4.48-4.51l-.11-.11z"/>
      <path d="M449 330.8c7.85 8.41 13.39 18.77 17 29.64 1.86 6.04 3.41 12.23 3.8 18.56-3.5-9.83-6.8-19.75-11.21-29.22-2.81-5.98-5.54-12.04-8.84-17.76a7.76 7.76 0 01-.75-1.22z"/>
      <path d="M411.2 438c-.65 4.95 2.76 9.3 6.59 12 2.04.9-2.4 1.35-.1-.23 1.63-1.79 4.83-5.44 7.23-3.57.29 2.92-1.65 5.76-1.34 8.78-.12 3.94 1.97 8.12 5.6 9.85 2.1.2-1 3.27-.48.46-.49-4.84 3.05-9.2 7.34-11.02 1.94-.71 4.9-2.81 5.53-3.7-2.21 4.36-8.1 5.4-9.78 10.17-1.1 2.01-.17 4.3-.46 6.3-1.6 1.55-4.11-.13-5.62-1.19-4.06-3.2-5.87-8.68-4.94-13.71.48-1.43.66-5.24 2.07-5.19.83.67 2.27 1.38.23 1.65-2.58.37-3.8 5.35-6.42 3.26-3.34-3.1-6.56-7.33-5.93-12.15.1-.59.27-1.16.48-1.71z"/>
      <path d="M356.5 368.5c-1-1.03-.34-2.65-.9-3.78-1.54.54-2.39 2.38-4.1 2.74-2.74.75-5.6 1.02-8.3 1.95a41.45 41.45 0 00-9.8 4.49l2.6-8.3a40.02 40.02 0 01-16.1 2.2"/>
      <path d="M319.2 366.4c2.66-.99 4.96-2.9 6.4-5.36a34.35 34.35 0 002.98-6.59c-.7 3.9-1.47 8.03-4.03 11.2a14.27 14.27 0 01-3.58 3.14c-.89.98-2.8.44-2.78-.96.03-.6.37-1.29 1.01-1.43z"/>
      <path d="M381.7 362.2c-2.67 1.72-5.33 3.45-8.21 4.8a64.37 64.37 0 01-8.96 3.78c-1.15.25-2.3.5-3.49.55a6.9 6.9 0 01-5.74-1.93l2.3-1.9c.2.35.51.62.89.8.98.6 2.23.6 3.35.54 4.72-.56 9.25-2.08 13.6-3.96 2.06-.95 4.24-1.64 6.26-2.68z"/>
      <path d="M481.9-46.1c-6.96-.98-13.02-5.16-20.05-5.81-.57-.1-3.67-.33-1.88-.29 5.66-.26 11.2 1.1 16.65 2.43 1.87.34 3.77.7 5.68.67l-.4 3zm-31-30.3a47.93 47.93 0 0116.5-13.7c.06.95 1.7 2.6.56 3-6.4 2.2-12.16 6.1-17.06 10.7zm9.6 10.8a27.4 27.4 0 0116.72-13.82c12.02-2.3 24.25.15 36.36-1A46.57 46.57 0 00532-85.3c-7.18 5.57-16.47 7.54-25.38 7.86-8.74.46-17.49-.45-26.22-.06-7.74.88-14.8 5.41-19.6 11.42l-.3.48zm13 9.4c12.2.1 24.33-2.1 35.83-6.09 2.9-.97 5.75-2.04 8.57-3.21-10.28 8.39-24.05 12.07-37.18 10.8a36.57 36.57 0 01-7.22-1.5z"/>
      <path d="M472.1-67.5c1.6-1.59 3.33-3.1 5.4-4.03 2.01-1 4.1-1.93 6.34-2.32 1.92-.39 3.9-.46 5.86-.25-2.63 1.86-5.67 3.04-8.65 4.22-2.9 1.05-5.86 2.09-8.95 2.38z"/>
      <path d="M381-84.6c.89-.31 1.8.38 2.42.99a4.84 4.84 0 011.36 4.09c-.18 1.47-.75 3.12-2.18 3.81-1.39.76-3.39.58-4.33-.8-.64-.86-.67-2-.3-2.97.05-.57 1.34-1.18.8-.24.08.77.48 1.75 1.37 1.84 1.02-.02 1.6-1.07 1.82-1.95a4.9 4.9 0 00-.4-3.89c-.11-.33-.2-.74-.56-.88z"/>
      <path d="M375.7-83.5c-.63 1.7-1.05 3.5-.84 5.31 0 2.21.7 4.46 2.05 6.21.27.42 1.5 1.02.43.59a7.21 7.21 0 01-2.27-2.16 16.21 16.21 0 01-2.57-9.08c.13-.57-.14-1.92.78-1.44.8.2 1.61.38 2.42.57z"/>
      <path d="M332.8-24.4a13.9 13.9 0 01-1.55-1.98c-.8-1.2-1.26-2.55-1.65-3.92a13.49 13.49 0 005.1 3.4l-1.9 2.5z"/>
      <path d="M327.8-20.1c-.41-.52-.72-1.12-1.04-1.7-.54-1.18-1.1-2.36-1.62-3.56-.43-1.23-.9-2.46-1.32-3.7l-.42-1.44a40.1 40.1 0 006.6 8.4l-2.2 2z"/>
      <path d="M373.4-61.7c.24.11.47.26.7.4.42.48.5 1.25.2 1.82-.24.44-.73.8-1.25.77-.2-.04-.4-.05-.6-.11-.1-.04-.19-.09-.13-.21l.18-1.37.8-1.12.1-.18z"/>
      <path d="M369.5-59.3c.4.21.74.57.9 1 .14.4.1.88-.13 1.25-.1.19-.18.39-.28.56-.2.13-.4.28-.6.4-.27.02-.53.06-.79.09-.04-.38-.12-.76-.1-1.15v-.65c.1-.33.25-.66.5-.9.12-.23.29-.44.5-.6z"/>
      <path d="M365.7-56.6c-.01.5.04 1-.07 1.5-.11.35-.3.7-.6.93-.3.21-.56.45-.83.67-.84-.69-.87-2.15-.03-2.85.2-.15.42-.33.68-.34l.85.09z"/>
      <path d="M361.4-53.4c.1.05.23.1.28.21.14.18.3.36.32.6.04.45-.1.92-.38 1.25-.27.28-.68.4-1.05.3l-.47-.06c-.05-.37-.14-.73-.09-1.1.01-.37.27-.7.61-.8.25-.08.47-.19.7-.31l.08-.09z"/>
      <path d="M431.9-79.3c-4.3-2.97-9.31-4.65-14.33-5.93-2.66-.58-5.3-1.25-7.97-1.77l-7.2-1.2c4.83-1.61 10.1-1.12 14.98-.01 3.88 1 7.76 2.44 11 4.86a13.18 13.18 0 013.52 4.05z"/>
      <path d="M402.8-77.9c1.7-.5 2.9.1 3.3 1.3.9 2.4-2.6 2-2.2 4.4.5 2.5 3.6 3.3 1.2 4 0 0-3.9.1-4.8-3.9-.5-1.7-.2-4.9 2.5-5.8z"/>
      <path d="M394.8-76.6a5.16 5.16 0 01-3.56-2.3c-.66-.96-.75-2.16-.84-3.28-.05-.85.06-1.68.2-2.52a7.77 7.77 0 001.5 4.2c.68.82 1.8.98 2.8.9l-.1 3zm28.8-.6c-3.09-2.19-7.07-2.23-10.69-1.89-.6.06-1.22.04-1.81.19v-3c3.91.58 8.14 1.04 11.25 3.72.38.4.8.7 1.25.98zm-13.5 18.8c-3.35-.23-6.75-1.54-9.1-4-.7-.63.3-.68.76-.92.52-.2 1.4-.56 1.7-.65.72 1.36 1.99 2.38 3.07 3.47 1.04.91 2.28 1.58 3.57 2.1z"/>
    </g>
  </g>
</svg>
