<svg xmlns="http://www.w3.org/2000/svg" fill="#d7374a" stroke="#000" viewBox="50 50 200 200">
<metadata source="https://commons.wikimedia.org/wiki/File:Coa_Hungary_Family_Apafi.svg" author="Madboy74" license="https://creativecommons.org/publicdomain/zero/1.0"/>
  <g id="helmetZischagge" stroke-width="1.2" transform="translate(-102 150) scale(.45)">
    <path d="M518.09-59.07l-1.03 3.02c14.38 7.14 19.33 17.71 22.24 29.15 2.02-10.64 2.8-22.15-6.04-31.65z"/>
    <path fill="#000" fill-opacity=".3" stroke="none" d="M518.09-59.07l-1.04 3.01c.54.27 1.04.56 1.55.84 3.7-1.49 6.49.85 11.28 2.35a12.54 12.54 0 016.06-2.3 27.93 27.93 0 00-2.68-3.38l-15.18-.52z"/>
    <path d="M498.68-67.15c2.96 3.24 11.73 6.75 16.78 10.49 4.3-2.55 7.15.13 12.42 1.79 3.62-2.56 7.76-3.02 12.03-1.55-4.3-5.84-11.8-9.1-15.36-14.51l-6.33-2.04-19.23 1.48z"/>
    <path fill="#000" fill-opacity=".3" stroke="none" d="M518.22-72.97l-19.23 1.48-.31 4.34c.28.3.62.6 1 .92 5.33-1.73 9.72.33 15.6 1.86 4.43-2.22 6.17-3.4 13.17-2.32a21.42 21.42 0 01-3.9-4.24l-6.33-2.04z"/>
    <path d="M480.11-80.14c3.2 3.2 10.95 8.66 16.32 12.37 5.92-2.52 10.52-.24 16.85 1.4 5.06-2.54 6.61-3.72 16.51-1.71-4.6-5.16-14-10.2-17.4-14.71l-6.21-1.86-24.6 1.34z"/>
    <path fill="#000" fill-opacity=".3" stroke="none" d="M506.17-84.65l-24.59 1.34-1.47 3.15c.32.3.63.61 1 .93 6.42-2.74 15.04 1.43 21.04 3.21 4.97-2.46 8.12-3.3 15.53-1.88-2.18-1.68-4.11-3.32-5.3-4.9l-6.21-1.85z"/>
    <path d="M470.63-91.9c2.55 3.48 3.85 6.64 8.48 10.67 6.41-2.74 15.04 1.43 21.04 3.21 5.56-2.75 8.8-3.5 18.28-1.31-3.64-5.69-15.21-11.5-17.72-16.4l-5.83-2.02-21.24 2.02z"/>
    <path fill="#000" fill-opacity=".3" stroke="none" d="M494.88-97.75l-21.24 2.02-3 3.82c.29.4.57.8.83 1.2 5.97-2.7 13.1.37 18.5 2.15 5.64-2.4 10.1-2.45 16.96-.98-2.79-2.16-5.22-4.25-6.21-6.19l-5.84-2.02z"/>
    <path d="M464.49-103.37c1.4 3.49 1.65 6.65 4.94 10.67 5.98-2.73 13.13.36 18.54 2.14 6.48-2.75 11.4-2.41 20.16-.23-1.76-5.69-11.4-11.5-12.3-16.4l-5.16-2.02-21.91 2.02z"/>
    <path d="M463.74-102.7a323 323 0 01-35.16-1.12c1.02 18.03 7.35 32.33 18.4 41.76 12.18-11.35 18.01-26.17 16.76-40.62z"/>
    <path d="M389.14-107.3c35.46 5.65 100.76 7.86 107.42-.95-.87-3.38-1.65-5.6-3.97-7.95 3.37-30.41-3.6-61.6-31.62-63.24-44.66-2.62-63.08 34.22-71.83 72.14z"/>
    <rect width="10" height="2" x="336.83" y="-207.67" transform="rotate(14.433)"/>
    <path d="M398.12-153.22c-2.5-1.26-3.26-1.3-1.88-3.46 4.95-7.67 10.06-14.28 16.34-13.38-12.7 13.55-29 57.17-29.55 80-2.82-1.97-4.72-9.15-4.82-14.94-.04-2.42 1.52-1.92 4.02-1.58 3.08-16.27 9.84-31.66 15.89-46.64z"/>
    <rect width="9" height="9.5" x="341.19" y="-211.39" transform="rotate(14.433)"/>
    <rect width="3" height="5.8" x="335.8" y="-209.54" transform="rotate(14.433)"/>
    <path fill="#000" fill-opacity=".3" stroke="none" d="M486.96-161.34c8.25 31.8 2.27 48.68-15.84 52.02 1.33 2.13 1.9 3.76 1.12 6.52l.01.05c12.83 8.91 23.13.15 28.46 2.9-.37-.35-5.57-6.58-5-7.13.44-.42.6-.95.85-1.27-.87-3.38-1.65-5.6-3.98-7.95 1.82-16.38.63-32.98-5.24-45.08z"/>
    <path fill="#000" fill-opacity=".3" stroke="none" d="M379.77-115.61l-.26 1.02 2.15.55.26-1.01zm-3.33.23l-.47 1.82 3.07.79.47-1.82z"/>
    <path fill="#fff" fill-opacity=".1" d="M447.36-178.91c-35.18 5.4-50.4 37.77-58.21 71.61a361.24 361.24 0 0039.72 4.15l.05-6.41c-4.86-1.01-10.45-3.24-5.33-14.48-37.87-5.8.94-52.67 23.77-54.87z"/>
    <path fill="#fff" fill-opacity=".1" d="M459.79 160.84c-8.94.42-17.86.46-26.74.16 1.5 13.35 6.2 23.8 13.71 31.2 8.55-9.43 12.95-20.52 13.03-31.36z" transform="matrix(1 .03708 0 1 0 -276.55)"/>
    <path fill="none" d="M428.63-109.44c21.26 2.74 61.57 1.67 64.11-6.75"/>
    <path fill="none" d="M463.56-108.62l.34 6.52"/>
    <g fill="#000" stroke="none">
      <circle cx="432.58" cy="-106.18" r="1.067"/>
      <circle cx="439.58" cy="-105.73" r="1.067"/>
      <circle cx="446.58" cy="-105.45" r="1.067"/>
      <circle cx="453.58" cy="-105.39" r="1.067"/>
      <circle cx="460.58" cy="-105.34" r="1.067"/>
      <circle cx="469.32" cy="-106.07" r="1.067"/>
      <circle cx="483.73" cy="-107.7" r="1.067"/>
      <ellipse cx="505.56" cy="19.932" rx=".73" ry="1.067" transform="rotate(-14.878)"/>
      <circle cx="469.09" cy="-100.11" r="1.067"/>
      <circle cx="470.95" cy="-96.463" r="1.067"/>
      <circle cx="474.43" cy="-91.238" r="1.067"/>
      <circle cx="479.88" cy="-84.609" r="1.067"/>
      <circle cx="483.87" cy="-79.834" r="1.067"/>
      <circle cx="496.68" cy="-71.014" r="1.067"/>
      <circle cx="501.85" cy="-67.081" r="1.067"/>
      <circle cx="515.27" cy="-59.497" r="1.067"/>
      <circle cx="521.51" cy="-55.677" r="1.067"/>
      <path d="M443.26-98.77c-.67 5.13-2.25 9.42-6.33 11.83 5.3-1.41 6.85-8.18 7.32-11.7z"/>
      <path d="M449.43-98.68l-1 .07c.87 5.39 1.37 9.95 7.26 13.65a20.46 20.46 0 01-6.26-13.72z"/>
      <path d="M444.38-94.52c-.12 5.11-.83 9.76-3.35 12.93 3.82-3.28 4.2-9.43 4.35-12.9z"/>
      <path d="M446.72-94.25c.32 5.56 1.31 9.57 4.98 12.74-2.68-3.39-3.94-7.9-3.98-12.7z"/>
    </g>
  </g>
</svg>
