<svg xmlns="http://www.w3.org/2000/svg" fill="#d7374a" stroke="#000" viewBox="50 50 200 200">
  <metadata author="Chatsam" source="https://commons.wikimedia.org/wiki/File:Blason_ville_fr_Betoncourt-l%C3%A8s-Brotte_70.svg" license="https://creativecommons.org/licenses/by-sa/3.0"/>
  <g id="helmetCorinthian" stroke-width=".48">
    <path class="tertiary" d="M96.89 60.11c15.6 0 32.82 16.14 32.82 36.58 0 18-7.08 22.54-7.08 42.57-1.94-3.1-4.24-20.42-4.2-25.64L108.1 84.3l-19.78-1-3.54.2c-3.49-3.88-10.15-9.25-14.4-12.41C75.7 63.76 84.7 60.1 96.89 60.1z"/>
    <path class="tertiary" d="M118.42 113.63c-.03 5.22 2.27 22.52 4.22 25.63 0-20.03 7.07-24.58 7.07-42.57 0-20.45-17-36.56-32.6-36.56-10.88 0-18.37 4.2-22.68 10.08 4.6 3.96 9.96 8.44 13.9 13.07l19.78 1.01 10.3 29.34z"/>
    <path class="tertiary" opacity=".6" d="m118.26 113.18.93.14c.48 8.42 1.3 16.89 3.23 25.55-1.9-3.94-4.03-20.21-4-25.25l-.16-.44z"/>
    <path d="M83.05 112.56s-1.07.52-1.18.96c-.1.4-.05.7-.05.7l-4.65 22.9c.65-2.43 6-3.9 9.31-4.75l11.47-3.07 2.77-19.51-17-5.01-1.85 4.09c.51 1.77 1.02 2.29 1.54 2.94l-.36.75z"/>
    <path stroke="none" fill="#000" opacity=".5" d="M83.05 112.56s-1.07.52-1.18.96c-.1.4-.05.7-.05.7l-4.65 22.9c.65-2.43 6-3.9 9.31-4.75l11.47-3.07 2.77-19.51-17-5.01-1.85 4.09c.51 1.77 1.02 2.29 1.54 2.94l-.36.75z"/>
    <path d="m118.94 112.64-1.56.27-.09.14.89.7 1.3-.15-.54-.96z"/>
    <path class="secondary" d="m116.58 110.32 2.29 2.41-1.43.24-1.83-2.3.97-.35z"/>
    <g fill="none" stroke-linecap="round">
      <path d="M96.93 85.26a144.68 144.68 0 0 0-3.81-20.13"/>
      <path d="M94.94 82.62c-3.2-5.88-6.62-11.71-10.84-17.38"/>
      <path d="M97.3 81.7a144.32 144.32 0 0 0-3.54-20.18"/>
      <path d="M92.02 82.78a144.59 144.59 0 0 0-13.7-15.23"/>
      <path d="M95.12 81.05c-2.93-6.02-6.08-12-10.04-17.86"/>
      <path d="M98.35 81.74c.3-6.69.38-13.45-.3-20.48"/>
      <path d="M101.08 82.97a144.9 144.9 0 0 0 2.66-20.3"/>
      <path d="M119.29 100.43c2.64-.3 4.87-.22 7.72.26m-8.6 9.9c2.98 2.35 3.87 6.66 5.04 9.47m-4.65-10.64c3.17.74 5.54 5.64 5.95 6.89m-5.78-19.47c3.3.12 6.37-1.04 9.43-1.96m-15.77-8.92c3.51-4.33 5.51-6.53 7.82-10.42m-1.04 28.44c2.7.45 3.19.5 6.58 2.38m-6.45-3.63c2.93 1.02 4.05.63 7.83 3.23m-8.57-10.7c2.71-.13 6.1-2.17 8.15-2.84m-9.8-.98c2.92-.3 5.72-2.58 7.82-3.83m-8.95 2.78a22.07 22.07 0 0 0 8.93-5.08m-10.15 3.17c4.01-1.25 7.5-4.82 9.39-6.86m-4.74 25.24c1.73.76 5.46 2.99 6.52 4.56M110 84.28c3.22-4.73 4.08-8.93 5.35-12.41m-7.44 11.18c4.15-3.84 4.99-8.88 6.64-13.89m-6.76-3.44c-.58 5.4-2.01 10.8-3.32 15.48"/>
    </g>
    <path class="secondary" d="M100.98 79.93c5.6.06 10.64 2.55 13.65 5.71 6.38 6.69 7.78 18.52 4.24 27.1l-2.29-2.42c2.84-9.35-1.98-15.8-6.44-19.59-5.58-4.74-13.09-4.13-17.28.03l-2.73-.13c-.7-2.43-2.23-4.57-4.22-6.54l3.21-.31a19.87 19.87 0 0 1 11.86-3.85Z"/>
    <path class="secondary" d="M90.13 90.63c-.7-2.44-2.23-4.57-4.22-6.55l3.2-.3a14.4 14.4 0 0 1 3.74 6.98l-2.72-.13z"/>
    <path d="M116.23 128.68c-.13 1.45-9 1.16-14.46 2.42-5.46 1.26-15.46 5-19.95 7.47l5.23-24.36c3.91-.07 7.74-.53 11.14-1.04 0 0-5.55-4.13-9.64-4.13-1.47 0-3.24 1.83-3.6 3.2-.32 1.17.25 2.87-.14 4-.43 1.3-2.25 3.93-2.79 3.74-1.05-.37-.66-4.07-.4-5.03.28-.98 1.09-1.09 1.43-3.1.17-.95-.33-3.03-.7-3.16-.25-.09-.53.24-.53.24.02-2.66 1.13-4.9 1.13-5.73 0-.35-.18-.58-.33-.66.84-5.11 3.6-9.1 7.38-12.22 1-.11 2.07-.03 2.78.09 3.9-3.19 7.55-3.7 11.54-2.9 6.72 1.36 12.58 8.95 13.36 15.64.66 5.7-2.26 10.81-3.73 12.9-.17 0-.42.14-.61.45-.47.75-1.15 1.77-1.24 3.48-.1 1.72.73 6.15 4.13 8.7z"/>
    <path d="M116.23 128.68c-.13 1.45-9 1.16-14.46 2.42-5.46 1.26-15.46 5-19.95 7.47l5.23-24.36c3.91-.07 7.74-.53 11.14-1.04 0 0-5.55-4.13-9.64-4.13-1.47 0-3.24 1.83-3.6 3.2-.32 1.17.25 2.87-.14 4-.43 1.3-2.25 3.93-2.79 3.74-1.05-.37-.66-4.07-.4-5.03.28-.98 1.09-1.09 1.43-3.1.17-.95-.33-3.03-.7-3.16-.25-.09-.53.24-.53.24.02-2.66 1.13-4.9 1.13-5.73 0-.35-.18-.58-.33-.66 1.19-3.35 10.1-.03 18.13 5.4a160.55 160.55 0 0 0 13.2 8.1c-.17 0-.42.15-.61.46-.47.75-1.15 1.77-1.24 3.48-.1 1.72.73 6.15 4.13 8.7z"/>
    <path class="tertiary" d="M84.79 83.48c-3.5-3.87-10.15-9.24-14.4-12.4 1.26-.47 2.65-.67 4.05-.87 4.6 3.96 9.95 8.44 13.89 13.07l-3.54.2z"/>
    <path d="M101.18 78.7c5.86.1 11.12 2.7 14.35 6.08 6.82 7.15 7.88 19.86 3.96 28.8l-.67-.74c3.54-8.58 2.2-20.51-4.19-27.2-5.08-5.33-15.95-8.61-25.6-1.74l-3.44.34-1.1-.8 3.58-.5a22.52 22.52 0 0 1 13.11-4.25z"/>
    <path d="m89.03 83.9-3.44.34-1.1-.82 3.58-.47.96.95z"/>
  </g>
</svg>
