<svg xmlns="http://www.w3.org/2000/svg" fill="#d7374a" stroke="#000" viewBox="50 50 200 200">
  <metadata author="Paladium" source="https://commons.wikimedia.org/wiki/File:Wappen_at_gilgenberg_am_weilhart.svg" license="https://creativecommons.org/licenses/by-sa/4.0"/>
  <g id="helmetGreat" stroke-width=".46">
    <path d="M73.08 81.73c-.16-.19-.19-.47.04-.87.23-.91.74-1.72.98-2.63.78-2.07 1.78-4.05 2.63-6.08.7-1.46 1.41-2.9 1.9-4.45.07-.62.66-1.24.43-1.86-.34-.81-.39-1.73-.56-2.6-.3-1.1.27-2.54 1.48-2.75 1.6-.33 3.24-.17 4.86-.2 11.13 0 22.26-.01 33.4 0 1.18.04 2.53-.02 3.44.88.87.88.93 2.2.74 3.34.06.84-.36 1.62-.63 2.37.23.63.44 1.27.62 1.92a36.04 36.04 0 0 0 1.94 5.51c1.39 3.08 2.36 6.34 3.72 9.43.5.78-.02 2.2 1.1 2.44.55.36 1.76.37 1.61 1.29 0 .96.05 1.93-.14 2.89-.15 1.66-.57 3.28-.78 4.94-.47 2.6-.66 5.23-1 7.85-.33 2.36-.41 4.75-.77 7.1-.1.97-.29 1.92-.32 2.9-.25 1.38-.32 2.8-.64 4.17-.18 1.5-.55 2.96-.81 4.45-.16 1.07-.25 2.19-.65 3.2-.41.84-1.45.93-2.22 1.3-.77.23-1.6.33-2.4.37-.68.42-1.26 1.05-2.03 1.37-1.56.76-3.27 1.15-4.88 1.78-3.68 1.18-7.35 2.4-11.02 3.6-2.58.8-5.19 1.47-7.8 2.15-1.13.34-2.3.62-3.4 1.06-1.66.41-3.18 1.33-4.91 1.4-1.04-.31-1.37.84-2.24 1.08-.85.32-2 .61-2.7-.17l-.34-.28c-1.5-.6-2.52-1.9-3.4-3.2l-.1-.1c-.58.12-1.3-.74-1.72-1.1-1.24-1.32-2.72-2.47-3.6-4.1a8.45 8.45 0 0 1-1.08-3.78c-.04-1.24.05-2.48.11-3.72-.1-.85.15-1.67.1-2.5-.07-.9.16-1.79.1-2.69 0-4.2.01-8.42-.1-12.62-.07-1.5.14-2.99 0-4.48-.19-.99-.18-2-.37-3a33.08 33.08 0 0 1 0-3.23c.4-.8-.74-1.04-1.31-.96-1.18.07-1.1-1.15-1.02-1.96-.29-.99.39-1.7 1.3-1.9.43-.42 1.55-1.18 1.45-1.56-.57-.59-1.13-1.24-1.92-1.57-.9-.27-.9-1.23-.83-2 .03-.56-.21-1.4.5-1.62.88-.3 1.86-.1 2.7-.56l.15-.05.15-.06z"/>
    <g fill="none">
      <path d="M117.7 89.46c1.17.03 2.35-.05 3.52.05 1 .22.8 1.46.9 2.23-.12 1.27-.1 2.55-.23 3.82.04.87-.12 1.73-.12 2.6-.2 1.3.02 2.62-.17 3.92v11.47c-.3 1.55-.1 3.14-.3 4.7-.1 1.4-.34 2.8-.54 4.2-.13.96-.04 1.95-.07 2.93 0 .39.07.77.1 1.16"/>
      <path d="M71.84 93.66c.94-.14 1.9.2 2.53.93 1.53 1.69 2.05 3.98 2.74 6.08.3.86.42 1.76.52 2.66.16.82.49 1.6.52 2.45.11.86.18 1.73.2 2.6.06 1.01.11 2.02.08 3.03.2 1.29.03 2.6.13 3.89.07 1.28.07 2.56.07 3.85.2.88.06 1.8.1 2.7 0 3.27.01 6.54 0 9.82-.25 1.13.01 2.3-.16 3.44a.64.64 0 0 1-.26.2"/>
      <path d="M128.48 85.87c-.29.18-.6.33-.95.28-.47.04-.92.17-1.4.12-2.25-.01-4.5-.14-6.74-.1h-1.7"/>
      <path d="M113 66.58c.16 1.36.27 2.74.49 4.1.04.63.18 1.26.24 1.9.08.7.21 1.39.29 2.1.12.7.22 1.42.29 2.14.12.62.16 1.24.29 1.85.04.47.14.93.11 1.4.17.75.05 1.54.09 2.3v.1"/>
      <path d="M89.72 66.18c-.01 1.1-.48 2.1-.87 3.1-.76 2.17-1.61 4.32-2.03 6.59-.18 1.1-.29 2.23-.3 3.36.17 1 .3 2.13 1 2.92.77.59 1.77.84 2.73.9 5.1.05 10.19-.1 15.29-.09 1.97-.04 3.96-.2 5.9.11.81.05 1.6-.09 2.4-.15.8-.48 1.55-.08 2.36.15.85-.07 1.39.65 1.2 1.45-.12.77.32 1.48.17 2.23-.12.9-.21 1.84.06 2.71-.15.87-.45 1.86-1.4 2.13-.78.1-1.59.14-2.38.17-2.9 0-5.79.02-8.68-.01-1.1-.2-2.24-.06-3.36 0-1.33.11-2.67.25-4 .35-2.45.52-5 .8-7.25 1.96a8.22 8.22 0 0 0-3.16 2.84 13.13 13.13 0 0 0-1.58 5.09c-.15.84-.23 1.69-.3 2.53-.1 1-.13 1.99-.1 3-.15 4.04-.08 8.08-.1 12.13.02 2.83-.04 5.66.05 8.5.1 1.38.02 2.77.07 4.16.15 1.38.5 2.74.52 4.12.12.5.14 1 .16 1.5"/>
      <path d="M79.23 66.08a6.78 6.78 0 0 1 3.8.1"/>
      <path d="M121.6 66.78c-.3 0-.58-.03-.86-.1-.92-.13-1.85-.26-2.79-.2-1.25.04-2.5-.14-3.75-.1-.73-.1-1.43.33-2.1-.18-1.32-.54-2.76-.17-4.13-.42H91.9c-.85-.2-1.72.44-2.49.18a3.71 3.71 0 0 0-2.7.12l-.07.14c-.5-.67-1.62-.26-2.36-.3-.93.08-1.4.7-1.41 1.61-.61 1.93-1.75 3.63-2.46 5.51-1.14 2.28-1.89 4.77-3.44 6.83-.55.94-1.35 1.86-2.49 2.02-.46.18-1.02.16-1.32-.07"/>
      <path d="M82.02 138.84c-.22-.38.26-1 .1-1.56 0-9.65.02-19.3 0-28.94-.17-1.32-.06-2.66-.1-3.99.03-.78-.02-1.56-.1-2.34.09-1.06-.28-2.1-.2-3.15-.15-.94-.2-1.89-.3-2.83-.2-1.42-.33-2.99-1.39-4.07"/>
      <path d="M80.83 83.77c.52-.95.42-2.1.9-3.06.84-2.27 1.53-4.6 2.47-6.83.6-1.67 1.2-3.34 1.82-5 .33-.83.62-1.68.69-2.56"/>
    </g>
    <g stroke="none" fill="#000">
      <path d="M71.44 85.95c1.07-.03 2.15.07 3.21-.03 1.4-.13 1.89.37 1.84 1.8-.04 1.24-.14 2.07-1.7 1.92-1.22-.12-2.46 0-3.68-.02-.6-.01-.8-.4-.84-1.84-.02-1.28.52-1.94 1.17-1.83z"/>
      <path d="M106.04 85.49c1.12 0 1.67.27 1.66 1.91-.01 1.58-.3 2.3-1.67 2.24-2.9-.1-5.8-.03-8.7-.03-2.9 0-5.81-.05-8.71.02-1.13.03-1.66-.3-1.65-1.93 0-1.58.3-2.25 1.65-2.23 5.8.08 11.61.07 17.42.02z"/>
    </g>
    <g fill="#000" stroke-width=".23">
      <circle cx="75.58" cy="104.54" r="1.11"/>
      <circle cx="75.58" cy="109.59" r="1.11"/>
      <circle cx="75.58" cy="114.64" r="1.11"/>
      <circle cx="75.58" cy="119.68" r="1.11"/>
      <circle cx="89.9" cy="104.54" r="1.11"/>
      <circle cx="89.9" cy="109.59" r="1.11"/>
      <circle cx="89.9" cy="114.64" r="1.11"/>
      <circle cx="89.9" cy="119.68" r="1.11"/>
      <circle cx="94.17" cy="107.75" r="1.11"/>
      <circle cx="94.17" cy="112.11" r="1.11"/>
      <circle cx="94.17" cy="116.47" r="1.11"/>
      <circle cx="98.43" cy="112.11" r="1.11"/>
    </g>
    <g>
      <circle cx="116.84" cy="98.8" r="1.41"/>
      <circle cx="116.84" cy="105.68" r="1.41"/>
      <circle cx="116.84" cy="112.57" r="1.41"/>
      <circle cx="116.84" cy="119.45" r="1.41"/>
      <circle cx="109.45" cy="71.21" r="1.41"/>
      <circle cx="110.31" cy="76.72" r="1.41"/>
      <circle cx="113.87" cy="87.55" r="1.41"/>
      <circle cx="82.96" cy="62.97" r="1.41"/>
      <circle cx="92.04" cy="62.97" r="1.41"/>
      <circle cx="103.53" cy="62.97" r="1.41"/>
      <circle cx="114.54" cy="62.97" r="1.41"/>
    </g>
  </g>
</svg>
