<svg xmlns="http://www.w3.org/2000/svg" fill="#d7374a" stroke="#000" viewBox="50 50 200 200">
  <metadata source="http://wappenwiki.org" license="https://creativecommons.org/licenses/by-nc-sa/3.0"/>
  <g id="heron" stroke-width=".3">
    <path class="secondary" d="M95.03 140.6s1.07-.34 1.38.5c.31.85-.16 1.13-.16 1.13s-.3.1-.52.33c-.6.58-.35 1.14.03 1.52.17.17.33.2.37.27.12.18-1.23.33-1.94-1.15-.76-1.6.84-2.6.84-2.6zm-3.15-3.58s1.11.07 1.1.97c-.02.9-.56 1-.56 1s-.32-.02-.62.1c-.76.33-.73.93-.53 1.43.1.23.23.3.25.39.04.21-1.27-.15-1.39-1.78-.1-1.78 1.75-2.11 1.75-2.11zm.89-4.34s.77.81.14 1.47c-.63.64-1.02.35-1.02.35s-.21-.22-.52-.33c-.78-.28-1.25.15-1.43.66-.09.23-.03.39-.09.46-.11.19-.82-.97.2-2.24 1.13-1.39 2.72-.37 2.72-.37z"/>
    <path class="secondary" d="M107.42 108.34c-.04.15-.18.13-1.23.31-1.13.2-1.09.93-1.25.9h-.04c.2.34.55.77.82 1.47.3.8.41 1.25.5 1.52.35.54-.78 1.07-.32 2.62.18 1.49-1.35 4.96-1.9 6.89-.27.22-.6 1.56-.73 1.95-.27.22-.77 1.7-.67 1.85-.23.13-.64 1.51-.5 1.87-.2.2-.62 1.5-.6 1.8-.25.19-.81 1.68-.64 1.93-.06.14-.2.13-.31.35-.25.44-.27.85-.78 1.3-.45.37-.88.46-1.48.6-1.07.07-1.66-.52-2.55-.7a1.7 1.7 0 00-.75.06c-.69.3-1.35-.17-1.4-.41-.1-.66-.59-.77-1.09-.8-.56.03-.77.42-.77.42s.61.1.4 1.18c-.04.14-.06.28-.13.4-.06.1-.31.4-.32.49-.04.28.22.59.76.61.35.01.64-.28.77-.45.44.2.86.39 1.35.27.16-.04.33-.1.48-.05.16.05.26.22.4.33.18.15.76.07 1 .06-.44.18-.96.55-1.56.52-.43-.03-.78-.06-1.12.11-.41.2-.54.42-.84.71-.05-.14-.28-.28-.4-.32-.16-.05-.32-.05-.48-.05-.51 0-1.4.58-1.12 1.23.03.08.04.06.11.06.44-.15 1.22.58 1.17 1.54-.01.11.1.36.2.42.26.17.85.19 1.27-.19s.27-.74.26-.88c.32-.19.53-.6.83-.83.45-.34 1.07-.2 1.64-.23.62-.02 1.44-.62 1.52-.66-.24.48-.57 1.09-1.13 1.28-.32.11-.58.36-.73.73-.04.13-.2.38-.25.61-.05.23-.13.46-.13.46s-.38-.25-.94-.02c-.72.31-.95 1.1-.7 1.57l.23.21c.59-.58 1.9.2 1.9.78.08.18.47.4 1.01.01.25-.19.45-.53.4-.98s-.25-.28-.25-.69.67-.83.87-1c.31-.25.53-.53.66-.87.17-.49.14-.77.41-1.2.27-.41.66-.28 1.27-.4.62-.12.72-.72 1.16-1.18.24-.29.96-.58 1.11-.28.31.65.82.3.86.43.05.3-.2.9.5 1.27.6.3.9-.13.9-.13s-.23-1.26 1.29-1.61c.16-.1.22-.7-.63-1.02-.5-.24-.88.18-.88.18s-.36-.46-.97-.33c-.37.07-.3-.13-.6-.34-.22-.15-.55-.18-.6-.32a4.33 4.33 0 01.15-1.74s.37-1.15.5-1.7c.13-.54 1.27-4.26 1.96-6.05s1.97-5.24 1.97-5.24c.47-1.2.92-2.66 1.48-3.83 1.52-2.2.2-2.76-.11-3.47-.15-.33-.5-1.26-.75-2.14-.22-.56-.36-.96-.46-1.19z"/>
    <path d="M98.63 103.09a5.14 5.14 0 001.58 3.28c.94.97 2.44 1.57 3.15 2.71.37.61 1.07 1.19 1.37 1.7.5.86.89 1.3 1.21 1.39.16.04.16-.47 1.3-.55 1.14-.07 1.23-.02 1.28-.2.06-.22-.21-.65-.32-1.31-.22-1.27.17-1.63-.2-2.92"/>
    <path class="secondary" d="M112.82 136.37s-1.08-.3-1.35.56.21 1.13.21 1.13.3.08.54.3c.61.55.4 1.11.04 1.51-.16.18-.32.2-.36.29-.1.18 1.24.27 1.87-1.23.7-1.64-.95-2.56-.95-2.56zm-10.64 5.78s1.05-.38 1.4.45-.13 1.14-.13 1.14-.29.1-.51.35c-.57.6-.3 1.15.09 1.51.17.18.34.19.38.26.13.17-1.21.38-1.98-1.07-.8-1.59.75-2.64.75-2.64zm-3.27-3.47s1.13.03 1.14.93-.53 1.01-.53 1.01-.31 0-.6.14c-.75.35-.7.95-.48 1.44.1.22.24.29.27.38.05.22-1.27-.1-1.45-1.72-.2-1.77 1.65-2.18 1.65-2.18zm.72-4.38s.8.8.2 1.47c-.62.66-1.02.38-1.02.38s-.22-.21-.53-.3c-.78-.27-1.23.2-1.4.7-.08.23-.02.4-.07.47-.1.2-.86-.94.12-2.25 1.08-1.42 2.7-.46 2.7-.46z"/>
    <path class="secondary" d="M111.73 116.17c-.55-1.5.54-2.12.17-2.63-.1-.26-.24-.72-.6-1.5-.31-.67-.69-1.07-.9-1.42l.04.01c.17.01.09-.7 1.2-.97 1.02-.25 1.17-.24 1.2-.39.1.23.28.61.48 1.18.32.86.72 1.77.88 2.1.36.68 1.7 1.16.32 3.44-.48 1.21-.83 2.68-1.24 3.93 0 0-1.07 3.52-1.65 5.34a86.85 86.85 0 00-1.57 6.17c-.1.55-.4 1.72-.4 1.72-.04.48-.24 1.57-.14 1.83.05.14.39.16.61.3.32.2.25.4.62.32.6-.15.98.3.98.3s.36-.45.87-.22c.86.29.82.88.67 1-1.51.41-1.22 1.66-1.22 1.66s-.28.45-.9.17c-.72-.33-.5-.94-.56-1.24-.04-.13-.53.23-.87-.4-.16-.3-.86.02-1.1.32-.42.48-.5 1.08-1.11 1.22-.62.15-1 .03-1.26.45-.26.43-.21.72-.36 1.2-.12.36-.32.64-.62.9-.2.19-.85.64-.84 1.04.01.41.2.23.28.68.06.45-.12.8-.36 1-.53.4-.92.19-1 .03-.05-.58-1.37-1.31-1.94-.71-.08-.04-.24-.2-.24-.2-.28-.45-.06-1.26.63-1.59.56-.27.95-.01.95-.01l.1-.47c.04-.23.19-.48.23-.62.15-.39.38-.65.7-.77.55-.2.86-.83 1.1-1.32-.48.38-.88.66-1.5.71-.56.05-1.2-.05-1.63.3-.3.23-.5.65-.81.86.02.14.18.5-.23.9-.4.38-1 .38-1.25.23-.11-.07-.22-.3-.22-.43.02-.96-.78-1.65-1.22-1.5-.07.02-.09.03-.12-.05-.3-.64.57-1.25 1.09-1.27.16-.01.32-.01.47.03.13.04.36.17.41.31.3-.3.41-.52.8-.74.34-.18.7-.17 1.13-.16.6.01 1.1-.37 1.54-.58-.24.03-.8.11-1-.03-.14-.1-.24-.27-.4-.32-.17-.04-.33.02-.49.06-.5.14-.92-.03-1.36-.21-.12.17-.4.47-.75.48-.53.01-.8-.3-.78-.58 0-.1.24-.4.3-.49a1 1 0 00.11-.4c.18-1.09-.44-1.17-.44-1.17s.2-.41.76-.46c.5 0 1 .1 1.11.76.06.24.74.67 1.41.36.09-.05.45-.14.75-.1.9.14 1.52.71 2.59.6.6-.16 1.02-.25 1.45-.65.49-.48.56-.92.78-1.37.1-.24.22-.23.29-.38-.19-.23.29-1.75.52-1.96-.04-.3.3-1.62.48-1.83-.15-.35.19-1.76.39-1.9-.1-.14.31-1.65.57-1.88.1-.39.35-1.75.6-1.99.46-1.97 1.78-5.52 1.5-7z"/>
    <path class="secondary" d="M87.05 69.82l.35-1.07-1.63-1.67-2.61.75c-1.5.4-3.35.96-5.33 1.49-3.2.85-6.7 2.16-7.02 2.27-2.9.99-3.47 2.3-3.37 2.2.65-.53 1.1-.59 1.1-.59a43.22 43.22 0 016.84-1.96c4-.86 11.25-1.3 11.67-1.42"/>
    <path d="M94.02 65.26c.94-.06 3.09.5 4.78.36 1.76-.15 2.5-1.44 2.63-1.38.14.05 0 1.06-.67 1.74-1.04 1.07-2.57.8-2.57.8s.75.42 1.43.36c.9-.07 1.22-.48 1.3-.33.1.17-.3.87-.87 1.2-.6.36-1.3.28-1.3.28s.48.62 1.1.82c.71.23 1.5-.12 1.56-.03s-.3.71-.87.96c-.95.33-1.58.08-1.58.08"/>
    <path class="secondary" d="M87.27 69.59c-.38.17-7.5 1.66-11.34 3.07a44.17 44.17 0 00-6.47 2.93s1.43.01 4.89-1.32a56.76 56.76 0 0113.11-2.67l.99-1.27-1.18-.74z"/>
    <path d="M83.46 98.23c-2.3-2.99-2.14-8.24.44-11.96a42.4 42.4 0 013.81-4.5c1.88-2.05 3.54-3.46 5.33-5.3.88-.88 1.47-1.58 1.69-2.23.33-1 .04-1.59.04-1.59-1.05-.86-1.94.52-4.57-.06 0 0-1.04-.32-1.56-.4s-1.39-.46-1.39-.46.61-.94.12-1.86c-.35-.64-.78-.74-1.34-1.39-.47-.53-.5-1.41-.5-1.41s.16-.6 1.32-1.35c1.1-.7 3-1.53 5.07-1.48a8.33 8.33 0 017.61 6.91c.39 2.53-.92 4.5-2.74 7.08-.7.97-1.65 2.51-3.54 5.23-1.6 2.3-3.02 4.49-3.21 5.78-.18 1.12-.06 2.38 1.19 2.53 4.01.38 2.8-4.62 17.1-3.35 5.83.8 12.42 5.56 16.55 10.71 2.74 2.08 3.95 4.08 5.74 6.64.42.68.85 1.38 1.17 2.12 1.07 2.5.81 5.35.55 8.06-.08.7-.37 1.43-.72 2.04-.04-1.04-.4-2.24-.66-3.4.03 1.6.02 3.2-.3 4.76a8.97 8.97 0 01-1.99 4.26s.13-1.71.1-3c-.02-.86-.17-2.6-.57-3.35l-.09.49a14.04 14.04 0 01-3.1 7.03c.6-1.77.89-3.65.84-5.52a9.18 9.18 0 01-4.7 6.38 10.59 10.59 0 002.25-10.47c-.04.68-1.34 2.82-2.34 3.02 0 0 .3-2.19-.44-5.46a7.5 7.5 0 00-2.92-4.6c-1.46.03-1.69.12-3 .05-.35-.02-1.36-.06-1.73-.13.59 1.21.27 1.64.7 2.84.22.63.57 1 .54 1.23-.02.2-.1.15-1.2.42s-1.03.78-1.2.76c-.32-.03-.78-.4-1.42-1.15-.39-.47-1.17-.92-1.65-1.45-1.3-1.46-2.9-1.87-3.17-2.17-.2-.19-.63-.33-1.03-.79-.39-.43-2.62-.89-3.2-1.7l-.38-.37-3.67-1.56c-2.66.21-6.82-1.06-7.43-1.55-1.22-.96-4.46-1.8-6.4-4.33z"/>
    <path d="M88.8 64.95s.23.53.69.74c.44.19.92.17 1.04.18.12 0 .46-.1.8-.09.36.01.36.26.72.27s.58-.44.95-.43.6.15.84.07c.12-.05.29-.22.5-.35s.4-.21.52-.25a6.8 6.8 0 00-2.93-.85 8.83 8.83 0 00-3.27.58l.14.13z"/>
    <path fill="#fff" d="M89.54 66.83c.45.01.84.23.83.68 0 .2-.09.37-.23.51a1.01 1.01 0 01-.74.3c-.45-.02-.6-.33-.72-.54-.12-.26-.13-.5-.1-.55.13-.05.48-.4.96-.4z"/>
    <path d="M94.63 94.5c-.69.37-.9.36-1.51.46-.8.13-2.53.05-2.55 1.78-.03 2.14.92 2.93 2.48 4.5 1.4 1.41 2.32 1.6 5 3.36 1.51.95 3.94 1.54 9.84 2.13 4.1.4 8.25.79 12.03.17.97-.16 2.22-.31 3.07-.8.93-.55.92-1.2.35-1.52-.29-.9-1.37-1.07-2.16-1.03.3 0 1.98-.19 1.6-1.04.39-.75-.95-1.79-1.94-1.57 0 0 .33-.27.31-.7.03-.76-.72-1.47-1.9-1.6-.6-.62-2.47-1-4.1-1.2.42-.53 0-1.96-1.06-1.91 0 0-.76-.78-2.28-1.04-.51-.09-1.46-.2-1.46-.2.03-.64-.72-1.01-1.67-1.4-.17-.08-.5-.68-2.06-.74a4.44 4.44 0 00-1.82.21 5.48 5.48 0 00-2.57.09"/>
    <path fill="none" d="M101.84 103.36c.19-.1.7-.4.81-.58.12-.2.13-.44.12-.67-.02-.42-.1-.84-.28-1.24.36-.16.95-.48 1.14-.86.06-.14.08-.9-.2-1.24.42-.32.9-.93.8-1.54s-.64-1.14-1.25-1.21c.2-.4.47-.82.43-1.26s-.3-.88-.7-1.05c.17-.51-.25-1.11-.7-1.41m8.36 2c-.83-.08-1.8.2-1.95.16-.97-.17-4.1-.26-4.97.2"/>
    <path fill="none" d="M120.87 100.94c-1.08-.38-3.9-.95-5.85-.53 0 0-1.04-.64-2.89-.77s-3.25.06-3.25.06c-.66-.6-3.72-.73-5.32-.6m17.67 4.46c-1.08-.35-4.6-.43-6.53.04 0 0-1.05-.62-2.9-.7s-3.26.15-3.26.15c-.67-.6-4.15-.85-5.75-.68m1.34-5.49c1.66-.42 4 .08 4 .08 1.54-.18 3.57.04 4.24.32 1.5-.14 1.83.01 2.8.17m2.55 10.68c-.61-.56-1.03-.65-1.51-.95"/>
    <g fill="#000" stroke="none" transform="translate(0 5)">
      <path d="M96.03 136.82c-.89.32-1.5 1.11-.78 1.95v.02c-.86-.9-.23-1.85.74-2.18zm-3.8-3.27c-.95-.07-1.62.48-1.31 1.5h-.02c-.4-1.1.37-1.77 1.37-1.7zm-.28-4.54c-.45-.54-1.62-.66-1.96.24l-.02-.01c.4-.96 1.54-1.01 2.13-.37zm12.27-9.86a2.1 2.1 0 00-.89-.01c-.13-.16-.25-.4.13-.27.26.07.54.19.76.28zm-.8 1.85c-.24-.23-.85.2-.84-.15-.03-.4.67.04.85.14zm-.52 1.87c-.25-.01-.52-.13-.75-.01-.4-.5.45-.27.66-.04zm-.59 1.83c-.23-.17-.6-.07-.78-.12-.34-.3.2-.27.39-.16.13.08.3.14.39.28zm.37.9c.32-2.24 1.17-4.36 1.82-6.52.73-2.06 1.43-4.14 2.23-6.19.13-.33.58-1.35.26-.5-.7 1.97-1.28 3.99-2 5.96-.79 2.4-1.71 4.78-2.31 7.25zm-.98 1.05c-.24-.24-.77.08-.85-.22-.14-.41.74.06.85.22zm3.25-9.44a2.18 2.18 0 00-.89-.01c-.16-.17-.22-.4.16-.26.25.07.51.19.73.27zm2.7-9.16c-.15.5.19 1.3.26 1.54a1.1 1.1 0 01-.26-1.54zm-14.56 24.17c-.12-.23-.23-.47-.36-.68l.3-.1c.05.26.06.52.09.77h-.03zm.64-4.59c.04.43-.14.8-.38 1.13l-.03-.02c.15-.38.17-.7.09-1.05zm8.81 1.21a1.1 1.1 0 01-.43-.83h.03c.1.28.29.43.56.55zm-6.83 5.68c.3.24.55.53.73.87l-.03.02a2.59 2.59 0 00-.86-.6zm16.36-2.03c.79.27 1.4 1.28.71 2.07h-.03c.6-.86-.04-1.62-.72-1.85zm-8.88 5.85c-.82.3-1.31 1.23-.67 1.97v.02c-.76-.75-.18-1.92.62-2.19zm-3.9-3.15c-.77-.02-1.57.69-1.23 1.56l-.02.01c-.4-.96.41-1.78 1.26-1.78zm-.49-4.63c-.8-.38-1.5-.4-1.88.41h-.03c.38-.92 1.12-1.03 2-.56zm7.18 1.42c-.56.1-.7 1-1.04 1.13-.32-.45.58-.88.91-1.1l.08-.02zm5.22.14c-.26-.5.74-1.82.47-.95-.25.26-.33.69-.47.95zm-11.08 1.71c-.55-.34-.14-1.25-.01-.4-.1.08.15.35.01.4zm3.24-2.35c.76.2 1.24-.46 1.9-.55a11 11 0 01-1.08.7c-.28.1-1.03.4-.82-.15zm-2.77-2.25c.12.55-.56 1.72-.25.53.05-.32-.26-.53.25-.53zm8.85.89c-.3-.04-.62-1.14-.33-.64.17.3.72.25.33.64zm-6.62 5.92c.47.28 1.1 1.27.25.48-.32-.19-.53-.11-.25-.48zm7.8-15.78c-.34-.2-.87.2-.99-.13-.15-.31.66-.05.86.07l.13.06zm-.7 1.88c-.32-.23-.95.35-.86-.23.28-.05.62.08.86.23zm-.4 1.9c-.31-.09-.95.13-.87-.26.31-.09.59.15.87.26zm-.48 1.86c-.38-.05-1.43-.19-.5-.29.17.08.37.15.5.29zm.42.88c.43-3.62 1.61-7.09 2.57-10.59.32-1.11.64-2.23 1.07-3.3-.91 3.18-1.72 6.4-2.62 9.58-.4 1.42-.78 2.85-1.02 4.31zm-.92 1.12c-.32-.24-.86.2-.91-.3.26-.08.7.1.91.3zm2.68-9.64c-.24-.07-.75 0-.85 0-.51-.37.3-.27.55-.14.1.03.2.1.3.14zm2.05-9.11c-.22.5 1.35 1.76.4 1.23-.36-.28-.57-.79-.4-1.23zM94.32 70.99c.27-.41.7-.37 1.1-.38-.22.32-.72.36-1.1.38zm-.92.95c.32-.45.79-.39 1.28-.39-.34.29-.84.3-1.28.39zm-.95.85a1.79 1.79 0 011.67-.46c-.5.24-1.14.34-1.67.46zm2.62-2.89c.16-.36.45-.37.8-.39-.14.3-.5.34-.8.39zm-5.09 11.82c-.18.5-.58.88-.97 1.18.14-.54.52-.92.97-1.18zm-.46 1.4c-.11.82-.34 1.69-.51 2.45-.21-1.02.08-1.65.51-2.45zm-1.15-.11c-.14.58-.21 1.16-.73 1.45.25-.5.3-1.08.73-1.45zm.5.71c-.29.67-.39 1.32-.73 1.92.05-.75.1-1.5.73-1.92zm2.53-3.88c-.2.39-.58.74-.95.94.13-.5.52-.76.95-.94zm-3.41 4.92c-.15.58-.2 1.14-.73 1.45.23-.5.31-1.1.72-1.45zm-3.34-21.83c-.87.35-1.9.76-2.83.8.87-.4 1.84-.64 2.83-.8zm-.42.94c-.38-.13-.9.06-1.19.24.1-.58.99-.67 1.19-.24zm5.08-2c.14 0 .14.2.14.54 0 .35 0 .6-.14.6s-.3-.25-.3-.6c0-.36.16-.55.3-.54zm-.85-.3c.7-.62 1.62-.4 2.13.23a3.52 3.52 0 00-2.13-.23zm4.47 5.33c-.75.35-1.49.64-2.25.33.78-.06 1.54-.46 2.25-.32zm-4.04-2.42c.14-.51.68-.59 1.07-.73-.1.45-.69.58-1.07.73zm-1.28-2.26c.3.21.62.05.89-.13l.15.28c-.4.14-.76.14-1.04-.15zm2.78-.18c.16.25.4.37.64.48-.3 0-.61-.1-.87-.26zm4.57 3.4c.4-.1.6.06.8.29a1.1 1.1 0 01-.8-.29zm-.37.29c.36.05.51.33.58.63-.33-.1-.47-.36-.58-.64zm1.01-1.98c.35-.12.64.02.8.29a.99.99 0 01-.79-.29zm-.34-.64a.6.6 0 01.61.16c-.27.18-.47.08-.61-.16zm-.69 1.26c.36-.04.62 0 .85.21-.37.1-.65.08-.85-.21zm1.41-.02c.28.01.42.14.54.34-.31.09-.48-.07-.54-.34zm19.48 38.03c-2.63 0-5.28-.27-7.58-.5-5.7-.56-8.3-1.13-9.9-2.15a48.63 48.63 0 00-2.35-1.43 11.24 11.24 0 01-2.68-1.94l-.3-.3c-1.4-1.4-2.26-2.25-2.23-4.33.02-1.63 1.47-1.8 2.33-1.89l.36-.04.26-.05c.41-.06.65-.1 1.2-.4l.15.29c-.6.32-.87.36-1.31.43-.08 0-.16.02-.25.04l-.37.04c-.86.1-2.03.23-2.05 1.58-.03 1.94.75 2.7 2.15 4.1l.3.29c.86.88 1.56 1.28 2.6 1.89.62.35 1.38.79 2.37 1.44 1.3.83 3.4 1.46 9.76 2.1 3.61.37 8.1.82 12 .18.1-.03.22-.04.33-.06.92-.14 1.94-.3 2.66-.73.43-.24.68-.54.67-.8 0-.17-.11-.32-.31-.42a.17.17 0 01-.08-.1c-.29-.9-1.48-.94-2-.9h-.01a.16.16 0 01-.16-.16c0-.08.06-.16.15-.17h.02c.4-.02 1.24-.17 1.44-.5.04-.04.08-.14 0-.31a.16.16 0 010-.14c.14-.26-.02-.53-.12-.68-.33-.41-1.03-.79-1.62-.66-.08.02-.15-.02-.19-.09a.16.16 0 01.05-.19s.27-.22.24-.56c.03-.72-.74-1.34-1.76-1.44a.11.11 0 01-.1-.06c-.45-.47-1.9-.89-4-1.14-.05-.01-.1-.05-.13-.1s0-.12.02-.16c.19-.23.17-.7-.03-1.1-.12-.22-.38-.58-.89-.56a.16.16 0 01-.11-.05 4.35 4.35 0 00-2.2-1c-.5-.08-1.44-.19-1.45-.2a.16.16 0 01-.14-.17c.02-.49-.56-.82-1.56-1.23a.55.55 0 01-.17-.13c-.2-.18-.65-.56-1.83-.6-1.14-.04-1.74.2-1.75.2-.04.02-.08.03-.12 0a5.25 5.25 0 00-2.46.1l-.14-.3c.42-.2 1.92-.32 2.64-.12.18-.06.8-.25 1.83-.21 1.3.05 1.8.48 2.03.69l.09.07c.87.36 1.68.74 1.75 1.4.28.03.94.11 1.33.18 1.35.23 2.12.85 2.32 1.04.47 0 .88.26 1.12.73.2.4.25.87.13 1.22 1.48.19 3.26.54 3.92 1.17 1.18.14 2.02.87 2 1.75a1 1 0 01-.12.5c.62.03 1.24.4 1.56.82.25.32.31.65.2.94a.6.6 0 01-.06.55c-.12.2-.35.33-.6.43.48.13.97.4 1.17.97.27.16.42.41.42.67 0 .38-.3.77-.83 1.1-.77.44-1.88.61-2.77.75-.12.02-.24.03-.35.06-1.44.25-2.95.35-4.49.35z"/>
      <path d="M95.85 88.38c-.06-.03-.14-.02-.2.01-.42.3-.63.88-.92 1.25l-.2-.26c.4-.35.65-.79 1.1-1.01a.22.22 0 01.22.01z"/>
      <path d="M94.64 88.34c.55.16.4.98.1 1.22-.53-.26.48-.69.02-1.1l-.05-.07zm4.01 6.98c.28-.13.89-.41 1.02-.22-.2.32-.75.49-1.02.22zm-1.12.79c.37-.08.75-.17 1.12-.04-.26.31-.85.38-1.12.04zm-2.38-.16c.3.37.75.56 1.18.74-.5.3-1.27-.13-1.18-.74zm4.54-1.69c.17-.23.96-.23.45.14-.16.08-.37.03-.45-.14zm-10.31 1.08c.21.49.51.93.75 1.41-.54-.16-1.01-.86-.75-1.41zm-1.15-.9c.1.42.42 1.3.23 1.46-.38-.36-.51-1-.23-1.46zm-1.03-1c.1.74.22 1.48.29 2.23-.49-.6-.66-1.54-.29-2.23zm-1.05-.42c.22.62.24 1.28.23 1.93a2.07 2.07 0 01-.23-1.93zm5.17 3.06c.23.29.3.67.51.96-.5.12-.73-.6-.51-.96zm2.61-7.01c-.62.5-1.45.28-2.18.29.64-.42 1.46-.27 2.18-.29zm5.79 9.58a3.15 3.15 0 002.05-.42l.15.3c-.35.11-.75.21-1.11.24-.4.05-.73 0-1.09-.12zm3.5-3.32c6.85 1 11.24.94 16.73 1.87-5.6-1-12.07-.63-16.76-1.58l.03-.3zm.93-2.41c5.14-.16 8.81.9 13.21 1.37-4.55-.27-8.62-1.35-13.19-1.03z"/>
      <path d="M103.14 90.82c2.99-.5 6.29-.07 9.01.17-3.04-.1-5.96-.46-8.94.17zm-.34-2.26c1.6-.29 3.3-.35 4.96-.12a14.7 14.7 0 00-4.89.44l-.06-.32zm-1.01 9.76l.18.05c.12.03.3.09.53.14l.82.2 1.07.23c2.46.49 4.95.84 7.45 1.05.53.03 1.05.06 1.56.07 1 .05 1.95.06 2.76.07h2.5l.14-.01h.02-.01.01-.16c-.13.02-.31.02-.55.03l-1.95.03h-2.76l-1.56-.05a64.46 64.46 0 01-7.5-.92l-1.07-.22-.84-.18-.53-.13-.2-.04zm22.71 11.71c.15.24.28.5.37.76.3.76.46 1.56.71 2.34.1.31.23.61.35.92.04.03-.1.06-.14.1-.07.05.01-.1.01-.15.17-.7.32-1.4.43-2.12.08-.38.1-.78.17-1.16l.16-1.66c.04.42.01.84.03 1.26a17.24 17.24 0 01-.33 3.05c-.06.3-.12.62-.22.92-.08.15-.29.1-.36-.03-.12-.15-.16-.34-.23-.52-.23-.57-.34-1.19-.47-1.8a16.32 16.32 0 00-.47-1.91zm-2.82-3.83c.29.42.55.86.74 1.34.29.67.49 1.37.8 2.03.09.17.17.35.28.51-.07.02-.11.09-.17.13.1-.56.17-1.12.22-1.68.05-.36.06-.73.08-1.1.01-.48-.02-.96-.06-1.45l-.15-.91c.1.32.21.63.27.96.1.39.12.78.16 1.18.02.3 0 .61.01.92 0 .32-.04.63-.07.95-.03.37-.08.74-.14 1.1 0 .13-.06.3-.21.26-.23-.03-.29-.27-.39-.43-.16-.32-.28-.66-.4-1-.24-.7-.42-1.45-.7-2.15-.09-.22-.2-.44-.27-.66zm5.28 1.98c.17.28.32.58.42.89.22.59.35 1.2.49 1.81.1.4.2.78.34 1.16.04.07.05.17.1.24-.07.01-.12.07-.18.1.15-.54.3-1.09.42-1.64.06-.31.14-.62.18-.93.05-.37.12-.73.13-1.1.03-.39.02-.78.02-1.17l-.03-.28a8.02 8.02 0 01.16 2.57 13.65 13.65 0 01-.49 2.43c-.05.12-.04.3-.2.32-.2 0-.29-.2-.35-.35-.16-.4-.25-.83-.35-1.25-.11-.6-.2-1.19-.32-1.78-.09-.32-.16-.64-.3-.94l-.04-.08z"/>
      <path d="M126.97 103.17c.22.27.42.55.56.87.18.39.38.77.5 1.18.13.36.28.7.42 1.05.11.22.21.45.34.66.07.1.06.1-.03.17-.06.08-.08.07-.06-.03.06-.47.14-.94.17-1.41l.07-1.13v-.97c-.05-.51-.1-1.03-.22-1.53a6.04 6.04 0 01.48 2.56c.03.35 0 .7 0 1.05-.04.5-.07.99-.15 1.48-.01.1-.02.25-.16.27-.15.02-.28-.1-.34-.23-.16-.3-.3-.6-.41-.92-.3-.77-.48-1.57-.8-2.33-.05-.16-.14-.31-.2-.47l-.17-.27zm-4.55-.61c.14.13.26.27.37.42.28.31.47.68.68 1.03l.55 1.05c.2.38.43.74.69 1.08.08.03-.05.06-.07.13-.06.11-.03-.05-.04-.1v-1.55c-.04-.6-.07-1.2-.17-1.8-.06-.4-.13-.81-.26-1.2l-.14-.43c.17.3.3.63.41.96.16.4.24.84.33 1.28.06.42.1.85.14 1.27 0 .4.03.78.02 1.17-.01.17 0 .35-.02.53-.11.2-.39.05-.47-.1a9.94 9.94 0 01-1.06-2.03c-.14-.35-.3-.69-.49-1.02-.1-.17-.18-.35-.3-.5a.95.95 0 01-.17-.19z"/>
      <path d="M124.4 99.68c.55.24 1.03.6 1.47 1 .43.39.86.77 1.3 1.14.2.16.4.32.63.44l-.08.19a24.64 24.64 0 00-1.18-2.93 9.38 9.38 0 00-.95-1.5l-.17-.18a6.71 6.71 0 011.66 2.2c.17.36.35.7.49 1.08.16.44.4.88.45 1.34-.07.16-.3.14-.41.05a7.5 7.5 0 01-1.11-.93c-.44-.45-.88-.9-1.34-1.33-.24-.2-.48-.42-.77-.57zm4.69 6.05a3.06 3.06 0 01.82 1.59c.09.32.16.66.31.96.2.47.51.9.88 1.25-.07 0-.12.14-.16.14.03-.63.05-1.27.04-1.9a11.84 11.84 0 00-.42-2.91 7.39 7.39 0 00-.45-1.1l-.18-.32a5.87 5.87 0 01.96 1.9c.13.38.2.77.27 1.17.06.31.07.63.11.95.02.51.03 1.02.01 1.53-.02.25-.02.5-.05.76-.08.16-.3.09-.39-.02l-.3-.34c-.33-.44-.6-.92-.73-1.46-.14-.55-.18-1.13-.41-1.65-.08-.19-.2-.37-.31-.55zm-4.01-.61c.23.26.4.56.51.89.12.33.15.69.24 1.03.05.23.1.47.2.68.07.27.22.51.35.76.12.2.28.38.43.56-.04-.03-.12.09-.17.13a28.53 28.53 0 00.2-3.02c-.03-.2-.01-.39-.04-.58-.02-.29-.06-.57-.1-.85a7.9 7.9 0 00-.58-1.85c.21.34.41.7.55 1.08a7 7 0 01.43 1.94c.02.27.05.54.04.81 0 .31 0 .63-.03.94-.03.52-.1 1.04-.17 1.56-.03.2-.29.17-.38.04-.2-.24-.37-.5-.52-.76a4.63 4.63 0 01-.47-1.77 4.03 4.03 0 00-.2-.99c-.04-.22-.18-.4-.29-.6zm-22.39-16.29h-.19c-.12-.03-.25-.1-.37-.15l-.33-.14-.12-.02h-.04.04c.03-.02.08-.02.13-.03.1-.01.25.01.38.03.12.02.25.03.34.02h.05l.04-.02h.05l.02.31zm.28 2.34l-.2-.04a3.88 3.88 0 00-.42-.06c-.16 0-.33 0-.44.02-.12.01-.2.04-.2.04l.19-.08a2.75 2.75 0 01.9-.18l.2-.01-.03.3zm.33 2.7l-.03-.05c-.26-.43-.77-.5-1.21-.66.5.02.96.04 1.38.39l.05.05.05.04zm-.8 2.19h-.55c-.28-.03-.54-.1-.54-.1l.16-.01c.1-.01.23-.02.36-.05l.34-.1.1-.04a.12.12 0 00.05-.03l.08.33zm-.6-8.66l-.03-.02c-.23-.3-.56-.4-.92-.46.39-.09.76.03 1.11.22l.03.02.01.01-.2.24zm10.95 15.74c-.15-.36-.54-.53-.82-.73.45.15.81.25 1.1.59z"/>
      <path d="M95.15 64.9c.18.27.43.22.73.22-.1-.37-.42-.32-.73-.22z"/>
    </g>
  </g>
</svg>
