<svg xmlns="http://www.w3.org/2000/svg" fill="#d7374a" stroke="#000" viewBox="50 50 200 200">
  <metadata source="http://wappenwiki.org/images/8/82/Tierberg.svg" license="https://creativecommons.org/licenses/by-nc-sa/3.0"/>
  <g id="hindStatant" stroke-width=".38">
    <path class="secondary" d="M78.69 132.63c-1.09 2-2.56 1.8-3.66 3.38-.38.54-.4.66-.35.69a4.88 4.88 0 0 0 1.46.29s-.54.81-.19.96a6.4 6.4 0 0 0 2.95-.13c1.05-.28 1.61-.7 1.76-1 .22-.4.43-1.06.5-1.86.09-.86-.02-1.92-.02-1.92"/>
    <path d="M87.33 109.09c-.02.72-.03 1.5-.44 2.1-.29.42-.79 1.6-1.16 1.95-.9.8-1.23 1.94-1.4 3.11-.18 1.14.22 2.16-.1 3.29-.2.7-.47 1.38-.6 2.1-.14.81-.07 1.65-.14 2.47-.09 1.08-.76 2.44-.9 3.5a3.75 3.75 0 0 0 .68 2.5c.64.99.78.85.74 1.69-.01.21-.02.31-.15.49-.22.3-.67.31-1.04.21-.36-.1-.7-.28-1.08-.26-.17.01-.34.06-.43.19-.06.08-.11.38-.15.62l-2.46-.41c.75-2.2 1.72-5.48 1.96-8.68.2-2.71-.71-4-.31-6.7.11-.76.61-1.9.74-2.66a11.44 11.44 0 0 0-.04-4.65c-.43-2.52.59-4.55.59-5.47"/>
    <g stroke="none" fill="#000">
      <path d="M78.81 133.63a4.75 4.75 0 0 1-1.17 1.82c-.25.26-.5.51-.73.79a7 7 0 0 0-.61.85l-.32-.2c.2-.31.42-.61.68-.88.25-.26.53-.51.79-.75a7.09 7.09 0 0 0 1.36-1.64zm4.4-14.57c.03.16 0 .33-.05.48a1.32 1.32 0 0 1-.57.72.96.96 0 0 1-.45.15 4.88 4.88 0 0 1 .51-.7l.26-.32.3-.33zm-1.67 10.89c.06.09.11.15.13.23l.08.18c.03.06.04.13.04.2v.26c-.12 0-.2-.06-.27-.12s-.1-.15-.13-.23a.67.67 0 0 1-.02-.27c.04-.1.1-.19.17-.25zm2.88-19.65c.07.11.08.23.1.35a1.13 1.13 0 0 1-.2.66.8.8 0 0 1-.27.24l.09-.33.09-.3.08-.3.12-.32zm-.1 1.94c.02.16 0 .31-.06.45a2.01 2.01 0 0 1-.44.8 1.38 1.38 0 0 1-.36.29l.2-.4.22-.38.2-.38.25-.38z"/>
    </g>
    <path d="M80.79 65.4c.98-.64 1.58-.74 2.72-1.27a8.5 8.5 0 0 0 4.01-3.9c.93.45 1.24 1.62 1.15 2.65a6.71 6.71 0 0 1-1.38 3.42c-.75 1-1.7 1.82-2.73 2.55"/>
    <path class="secondary" d="M126.24 134.22c-.94 2.1-2.41 2-3.4 3.65-.34.57-.34.7-.29.72.33.19 1.49.19 1.49.19s-.48.85-.12.97c.47.15 1.92.01 2.93-.35 1.02-.36 1.55-.82 1.69-1.13.17-.4.34-1.08.36-1.88.03-.88-.17-1.91-.17-1.91M87 134.23c-.94 2.08-2.41 1.98-3.4 3.65-.34.56-.34.68-.29.7.33.2 1.5.2 1.5.2s-.48.85-.12.97c.46.15 1.91.01 2.92-.35 1.03-.36 1.55-.82 1.7-1.13.17-.4.33-1.08.36-1.88.02-.88-.18-1.91-.18-1.91m16.65-1.88c-.94 2.09-2.41 1.99-3.4 3.65-.34.56-.34.69-.29.71.33.19 1.49.19 1.49.19s-.47.85-.11.97c.46.15 1.91.02 2.92-.35 1.03-.36 1.55-.82 1.69-1.12.17-.41.34-1.09.36-1.89.03-.87-.17-1.91-.17-1.91"/>
    <path d="M108.64 132.82c-.03-.22.3-.53.46-.57.29-.06.44.05.73.26.43.34 1.02.68 1.5.41.47-.25.28-.85.32-1.37.16-2.41.28-2.24 1.64-4.26.4-.6.86-1.43 1.19-2.07.52-1 .73-.9 1.4-1.82.8-1.08 2.4-1.66 3.06-2.83.64-1.13-.15-1.38-.25-2.7-.1-1.43.21-1.62.91-2.88.26-.48.59-.94.7-1.48.19-.82-.14-1.66-.49-2.42a36.86 36.86 0 0 0-2.04-3.88 1.95 1.95 0 0 0-.62-.72c-.21-.13-3.05-3.27-3.29-3.3-2.28-.33-3.77 3.77-4.12 5.9-.64 3.62 2.4 5.26 3.14 7.52 1.36 4.13.3 5.81-2.62 11.31a5.7 5.7 0 0 1-.9 1.34c-.45.46-1.01.76-1.5 1.19-.48.41-1.78 1.5-1.71 2.14l2.49.23z"/>
    <path d="M87.46 82.89c.2-3.2 1.47-7.51 1.24-10.1-.03-4.33-1.75-5.89-3.02-6.65-1.4-.84-3.6-1.13-5.2-1.1-1.42.01-2.36.37-3.36.6-.55.12-.7.09-1.23.26a.72.72 0 0 0-.46.49c-.08.26-.47.44-.6.69a2.41 2.41 0 0 1-1.02 1.03c-1.14.58-1.81.83-3.16 1.2-1.43.4-1.95.29-3.24 1.04a3.01 3.01 0 0 0-.77.95c-.17.38-.19.75-.3 1.15-.09.28-.05.15-.25.59a.25.25 0 0 1-.05.07 1 1 0 0 0 0 .39c.15.25.16.39.43.48 0-.03 1.03.32 1.28.33.47.05.93.14 1.39.05.29-.05.9.04 1.2.05.59.03.51.23.67.44.04.05.04.13-.01.18-.11.12-.19.2-.36.28-.4.18-1.25.08-1.45.1-.64.08-1.34-.12-1.91.15-.05.03-.1.05-.12.1v.11c.35.6.53.2 1.03.57.42.32.6.23.94.33.4.13.82.1 1.2-.1.73-.34.52-.23 1.1-.33.26-.04 1.16-.28 1.5-.28.72-.01.66-.07 1.32.06.54.12.64.44 1.15.63.04.01.5.37 1.48.81.62.29 1.3.33 1.3.33s.22.41.16 1.02c-.1 1.11-1.68 4.18-2.46 6.63a12.96 12.96 0 0 0-.35 6.52 15.36 15.36 0 0 0 2.02 4.67c-.76 2.7.04 5.37 1.8 7.56.7.87 2.6 1.7 3.38 2.5.8.85 1.9 1.07 3.12 1.07l2.51.8c4.84 1.35 11.9 1.5 16.64.25 2.55-.66 6.09-2.3 8.75-2.3 2.26 0 2.41.51 2.41.51l1.19 2.1c4.61 6.74 8.65 8.03 10.23 10.92.77 1.42.52 2.03.52 3.66 0 5 0 6.07-1.88 10.52l2.5.23c.02-.23.04-.54.1-.63.1-.13.26-.2.42-.22.37-.04.74.11 1.11.17.38.08.81.03 1.03-.28a.71.71 0 0 0 .1-.5c-.02-.84-.35-.81-.85-1.88-1.12-2.4.33-5.6 1.16-9.24.29-1.28 1.14-2.84.34-3.88-.84-1.09-1.92-.61-2.95-2.71a13.14 13.14 0 0 1-1.34-4.73c-.24-2.35.97-5.7.86-7.96a10.5 10.5 0 0 0-.79-3.78c.18.43 1.32 3.11 2.92 4.34.32.25 2.12 1.45 3.17.82.55-.34-.17-.73-.5-1.64-.2-.55-.19-1.48-.76-2.6-.88-1.68-1.78-1.93-2.53-3.1-.52-.83-.98-1.54-1.46-2.38a4.5 4.5 0 0 0-2.07-2.02c-2.05-1.13-3.17-1.46-5.43-2.22-2.15-.72-3.87-1.72-6.64-1.72-1.97 0-8.43 1.65-13.11 1.65-4.64 0-4.12-1.76-8.61-1.51-3.21.5-5.79.3-5.43-5.54z"/>
    <path d="M94.13 108.74c.05.72.08 2.75-.28 3.39-.25.45-.66 1.66-1.02 2.02a5.67 5.67 0 0 0-1.43 3.33c-.09 1.15.39 2.13.14 3.28-.15.71-.37 1.41-.44 2.14-.09.82.05 1.65.04 2.48-.02 1.07-.59 2.48-.64 3.55a3.75 3.75 0 0 0 .87 2.43c.72.94.83.79.87 1.63.01.21 0 .31-.12.5-.2.31-.65.36-1.02.29-.38-.08-.74-.23-1.11-.18a.53.53 0 0 0-.42.23c-.06.08-.08.4-.1.62l-2.5-.23a37.07 37.07 0 0 0 1.32-8.8c0-2.7-1.14-3.93-.93-6.66.06-.77.48-1.94.54-2.71.15-1.89-.71-2.45-1.25-4.5a29.36 29.36 0 0 1-.51-4.19"/>
    <g stroke="none" fill="#000">
      <path d="M106.36 133.59c-.09.35-.24.69-.41 1.01a7.25 7.25 0 0 1-.63.9c-.22.29-.46.55-.66.84a8.07 8.07 0 0 0-.55.89l-.33-.18c.17-.33.38-.64.6-.93l.73-.8c.25-.26.48-.52.68-.82.21-.29.38-.6.57-.91zm10.75-14.47a1.25 1.25 0 0 1-.1.5c-.05.14-.12.28-.19.4s-.12.25-.16.38c-.05.12-.07.26-.1.44-.12-.12-.2-.3-.2-.48s.05-.35.13-.5c.07-.15.16-.29.26-.4.11-.12.23-.24.36-.34zm-1.66-2.75c.03-.2.07-.37.13-.53l.18-.5a5.61 5.61 0 0 1 .55-.94c.03.2 0 .39-.04.56a2.59 2.59 0 0 1-.44 1c-.1.15-.22.3-.38.42zm.19-1.8a.48.48 0 0 1-.13-.22.38.38 0 0 1-.01-.2c.01-.06.03-.13.06-.19s.09-.12.16-.17c.08.07.1.13.13.21.03.06.03.14.01.2s-.02.13-.06.19a.36.36 0 0 1-.16.17zm-5.3 16.02-.09.29-.1.22a1.88 1.88 0 0 1-.13.21c-.04.08-.1.15-.18.24a.5.5 0 0 1-.1-.31.65.65 0 0 1 .29-.55c.08-.08.2-.11.3-.1zm-24.35-23.22v-.5l-.06-.48-.14-.49-.15-.49.23.47c.08.15.17.3.23.46.07.16.12.34.16.5l.1.51-.37.03zm7.94-3.1a6.41 6.41 0 0 1 .44 2.23c0 .39-.07.78-.1 1.13-.02.36 0 .72.04 1.08l-.37.04a4.53 4.53 0 0 1 .11-1.73l.07-.53c.03-.36 0-.74-.03-1.1l-.16-1.11zm-.44-11.63c.16.01.31.07.45.16a1.2 1.2 0 0 1 .5.78.88.88 0 0 1-.04.47l-.24-.38-.21-.33-.23-.34-.23-.36zM95 94.12c.24.1.45.25.63.45.16.2.28.44.37.68a3 3 0 0 1 .15 1.49 5.25 5.25 0 0 1-.28-.69l-.22-.68a4.86 4.86 0 0 0-.65-1.25zm-2.38 4.48c.24.09.44.25.62.45a2 2 0 0 1 .45 1.44c-.03.25-.1.51-.24.71l-.05-.71a5.46 5.46 0 0 0-.4-1.28 11.63 11.63 0 0 0-.38-.61zm-5.3-.81-.22.5-.21.46-.2.47-.21.5a1.25 1.25 0 0 1-.08-.56 1.7 1.7 0 0 1 .92-1.37zM85.84 104c-.01-.25-.05-.47-.09-.71-.03-.24-.05-.47-.03-.74.03-.26.14-.52.3-.72.1-.1.2-.19.33-.25a.6.6 0 0 1 .39-.04.9.9 0 0 0-.46.45 1.75 1.75 0 0 0-.18.6l-.05.69c-.04.26-.09.51-.21.72zm27.63-3.69.55 1.73a15 15 0 0 0 .65 1.68c.25.54.52 1.08.8 1.6.28.53.55 1.07.85 1.6l-.32.17-.83-1.61c-.26-.55-.52-1.1-.73-1.66a17.44 17.44 0 0 1-.97-3.5zm12.97 34.9c-.09.35-.24.7-.41 1.02a7.25 7.25 0 0 1-.63.9c-.23.29-.46.55-.66.84a8.07 8.07 0 0 0-.55.88l-.34-.17c.18-.33.39-.64.61-.93.24-.29.49-.55.73-.8a10.11 10.11 0 0 0 1.25-1.74zm-39.22 0c-.08.35-.23.7-.4 1.02a7.25 7.25 0 0 1-.63.9c-.23.29-.46.55-.66.84a8.07 8.07 0 0 0-.55.88l-.34-.17c.17-.33.39-.64.61-.93.24-.29.49-.55.72-.8.25-.26.48-.52.68-.82.21-.3.39-.6.57-.92zm7.38-29.7a1.68 1.68 0 0 1-.03-.5 2.29 2.29 0 0 1 .34-.94c.09-.14.2-.27.34-.38l-.16.46-.16.44-.17.45c-.03.15-.1.3-.16.46zm35.49 13.28.15.38.14.33.15.34.17.38a.79.79 0 0 1-.4-.2 1.05 1.05 0 0 1-.35-.8.86.86 0 0 1 .14-.43zm-40.27-.85c.14.09.26.21.34.34a1.5 1.5 0 0 1 .18.91.95.95 0 0 1-.18.44l-.11-.44-.09-.4-.07-.4-.06-.45zm-.16 13.4c.08.07.13.15.16.21l.1.18.04.2.03.26a.49.49 0 0 1-.28-.1.45.45 0 0 1-.15-.23.47.47 0 0 1-.02-.26c.01-.1.05-.19.12-.26zm39.66.33c.05.1.08.18.1.27v.25a.8.8 0 0 1-.05.24 1 1 0 0 1-.12.26.5.5 0 0 1-.16-.25 1.04 1.04 0 0 1-.04-.27c.01-.1.02-.2.07-.27.05-.08.1-.17.2-.23zm-5.47-32.87a.48.48 0 0 1 .33.04.63.63 0 0 1 .24.19c.07.08.12.17.14.28.03.1.03.22-.04.33l-.22-.19-.16-.19-.15-.2c-.05-.07-.1-.15-.14-.26zm.34 2.11c.12.1.21.2.27.33.08.11.13.25.17.38a1.41 1.41 0 0 1 0 .82c-.1-.11-.17-.24-.23-.35a2.15 2.15 0 0 1-.21-.75c-.01-.14-.03-.27 0-.42zm.26 2.97c.1.09.15.16.21.25l.13.26a1.41 1.41 0 0 1 .06.6c-.11-.05-.2-.13-.26-.21s-.11-.18-.15-.28a.86.86 0 0 1-.05-.31.5.5 0 0 1 .06-.31zm-32.61 4c.09.05.12.1.16.16l.04.17a.3.3 0 0 1-.07.18c-.03.05-.1.1-.18.12a.46.46 0 0 1-.1-.18c-.01-.05-.03-.1-.01-.15 0-.05.02-.09.04-.14.02-.05.05-.1.12-.16zm-.56 2.22c.03.11.02.2 0 .29a.75.75 0 0 1-.22.44.6.6 0 0 1-.25.15c-.03-.11-.02-.2-.01-.29a.75.75 0 0 1 .23-.44c.06-.05.13-.11.25-.15zm-1.33.27c.03.1-.03.2-.09.3a.5.5 0 0 1-.25.17.53.53 0 0 1-.31.01.38.38 0 0 1-.25-.19l.25-.1.19-.07.2-.05.26-.07z"/>
    </g>
    <g>
      <g>
        <path d="M84.01 67.54c1.64-1.12 3.06-1.17 4.3-1.42a8.45 8.45 0 0 0 4.83-2.82c.79.65.71 1.8.39 2.77-.4 1.2-1.28 2.3-2.24 3.1s-1.93 1.34-3.08 1.8"/>
      </g>
      <g stroke="none" fill="#000">
        <path d="M79.67 81.56c-.05.25-.12.5-.18.74l-.23.7-.24.7c-.08.24-.16.46-.27.7a3.21 3.21 0 0 1 .15-1.52 3.88 3.88 0 0 1 .31-.7 4.38 4.38 0 0 1 .47-.62zm.37 4a2.25 2.25 0 0 1-.09 1.16 2.17 2.17 0 0 1-.61 1 4.25 4.25 0 0 1 .27-1.1l.19-.53a3.25 3.25 0 0 1 .24-.53zm-2.17 2.68v1.41l.05.69.08.72a1.85 1.85 0 0 1-.36-.65 2.55 2.55 0 0 1 .24-2.17zm2.67 2.48c.11.12.16.24.2.38.04.14.04.29.02.42a.95.95 0 0 1-.14.4.8.8 0 0 1-.3.32l.02-.4.04-.37.05-.35.1-.4zm3.81-9.23a6.84 6.84 0 0 1 .25-1.04l.17-.49c.07-.16.14-.32.24-.48a1.96 1.96 0 0 1-.06 1.08c-.06.18-.14.34-.24.5-.09.17-.21.3-.36.43zm-6.16-3.9.86.04a3.5 3.5 0 0 0 1.64-.3c.26-.12.51-.27.77-.4a3.25 3.25 0 0 1-1.51.9c-.29.07-.59.1-.89.12l-.89.01.02-.37zm6.61-7.63a3.95 3.95 0 0 1 1.61-1.83 11.25 11.25 0 0 1 1.09-.58c.38-.17.76-.31 1.14-.45l1.14-.42c.37-.16.73-.32 1.1-.5.35-.2.7-.4 1-.64.32-.25.62-.53.82-.89a2.54 2.54 0 0 1-.71.99 7.53 7.53 0 0 1-2.1 1.27l-.56.24-.58.22c-.38.15-.76.28-1.13.44-.36.16-.72.34-1.07.53a5.19 5.19 0 0 0-1.75 1.62z"/>
        <path d="M89.1 68.83a1.65 1.65 0 0 0 .1-.84 2.38 2.38 0 0 0-.21-.79l.28-.11c.05.16.07.3.1.45a2.7 2.7 0 0 1-.08.89c-.05.13-.13.27-.19.4zm-1.76-.97a2.38 2.38 0 0 1 .19.58 2.96 2.96 0 0 1-.08 1.12c-.05.18-.1.36-.17.53.05-.18.07-.36.1-.54 0-.19.02-.36 0-.55a2.56 2.56 0 0 0-.08-.52 1.59 1.59 0 0 0-.23-.47l.27-.15zm.96 3.28a11.31 11.31 0 0 1-1.59.39l-.8.08c-.26.03-.54.04-.79.13.24-.13.52-.16.78-.21l.78-.18a9.25 9.25 0 0 0 1.48-.55l.14.34zm-4.17-3.44c-.15.09-.32.17-.45.28a2.7 2.7 0 0 0-.76.75c-.1.15-.17.3-.23.48.02-.17.07-.36.15-.52a3.08 3.08 0 0 1 .65-.91l.42-.38.22.3zm-7.34 6-.14.45-.1.41-.06.41-.05.47a.88.88 0 0 1-.24-.45 1.18 1.18 0 0 1 .2-.99.86.86 0 0 1 .39-.3zm-4.5-1.34c.03-.05.12-.05.18-.02a.43.43 0 0 1 .23.28l.03.1v.05l.1.57c.03.18.06.37.06.57v.29c0 .1-.01.2-.05.3-.06-.19-.14-.36-.19-.55a9.15 9.15 0 0 1-.28-1.13V72.47c-.02-.02-.03-.06-.08-.1zm-4.23-.89c.16-.1.39-.1.58-.05.19.07.37.17.51.34.04.05.07.11.09.16.02.07.04.12.04.18 0 .11-.02.21-.04.31-.05.19-.14.33-.2.51-.09-.17-.09-.38-.09-.55 0-.17-.04-.3-.1-.37a1.63 1.63 0 0 0-.34-.3c-.12-.1-.26-.17-.45-.23zm.45.7c.01.13-.07.24-.15.32a.94.94 0 0 1-.29.16c-.1.02-.2.04-.32.02-.11-.02-.23-.06-.3-.16l.28-.14.25-.08.25-.07c.08 0 .17 0 .28-.05zm10.54-3.48c-.11-.13-.23-.25-.35-.33a1.1 1.1 0 0 0-.4-.15c-.29-.05-.61-.05-.93-.06l-.23-.01-.25-.03c-.16-.02-.34-.05-.5-.11a.9.9 0 0 1-.24-.14.47.47 0 0 1-.15-.25.63.63 0 0 1 0-.26.77.77 0 0 1 .09-.24c-.01.16-.01.34.05.46s.19.18.32.22c.14.02.3.03.45.03h.24l.25-.02a2.6 2.6 0 0 1 1.01.11c.18.06.34.16.45.31.1.13.15.3.19.47zm.95 1.07c-.24.04-.47.05-.72.03s-.52-.1-.74-.28l.27-.26c.05.07.13.15.22.21a1.98 1.98 0 0 0 .97.3z"/>
      </g>
      <path fill="#f6f6f6" d="M77.28 68.1c.35-.01 1.18 1.01 1.4 1.29.05.07-.74.48-.98.53-.59.14-1 .04-1.19-.13a1.07 1.07 0 0 1-.37-.78c-.01-.35.85-.9 1.14-.91z"/>
      <g stroke="none" fill="#000">
        <path d="M77.24 68.15c-.09.04-.09.07-.18.07h-.11l-.13.1-.04.03-.08.09c-.1.11-.26.12-.31.27.06.35.32.82.67.9.11.03.21-.07.19-.18-.1-.38-.16-.97-.01-1.28z"/>
        <path d="M74.96 69.5c.23-.23.52-.35.75-.5a2.13 2.13 0 0 0 .33-.26l.3-.31.26.27-.35.29c-.12.09-.26.17-.41.24l-.43.14c-.16.07-.3.1-.45.13z"/>
      </g>
    </g>
    <g stroke="none" fill="#000">
      <path d="M77.38 96.56a4.88 4.88 0 0 0 .23-1.45v-.75c-.01-.25-.02-.5-.01-.76a5.66 5.66 0 0 1 .14 3.06l-.36-.1zm50.33 2.3a12.88 12.88 0 0 0-.47-1.81 7.78 7.78 0 0 0-.86-1.66c.4.49.76 1.01 1.03 1.59.28.57.48 1.18.67 1.8l-.37.08zm1.09-1.72c.23.27.45.54.69.76.25.24.51.44.8.61.27.18.59.33.89.51a1.88 1.88 0 0 1 .75.76 3.5 3.5 0 0 0-.88-.54c-.31-.14-.64-.28-.94-.46a3.34 3.34 0 0 1-.8-.72 2.92 2.92 0 0 1-.51-.92zm1.1 2.4a12.36 12.36 0 0 1 1.19 1.15c.36.42.65.86 1.14 1.15a1.38 1.38 0 0 1-.78-.35 3.8 3.8 0 0 1-.59-.6 13.01 13.01 0 0 1-.96-1.35zm1.69 3.11c.15.04.27.09.4.14l.37.11.38.1.41.11a.86.86 0 0 1-.42.14 1.38 1.38 0 0 1-.45-.05 1.1 1.1 0 0 1-.4-.2.8.8 0 0 1-.3-.35z"/>
    </g>
  </g>
</svg>
