<svg xmlns="http://www.w3.org/2000/svg" fill="#d7374a" stroke="#000" viewBox="50 50 200 200">
  <metadata source="http://wappenwiki.org/images/5/5a/Albrecht_II_of_Braunschweig-Grubenhagen.svg" license="https://creativecommons.org/licenses/by-nc-sa/3.0"/>
  <g id="horsePassant" stroke-width=".36">
    <path class="secondary" d="M105.88 132.36c.07.38.3 1.19-.27 1.84-.74.88-4.53 3.46-6.6 2.24-.57-.32 1.25-2.18 1.26-4.43.06-.84 2.79-.36 2.79-.36s2.77.4 2.82.71z"/>
    <path d="M117.14 107.33c-.46 2.15-2.77 3.12-2.84 4.04-.24 1.53.55 1.27 1.33 2.34 1.24 1.59 2.25 1.44 2.27 2.56-.05 1.21-.86 1.88-1.96 1.85-.43.22-.8.92-2.3 1.95a7.9 7.9 0 0 1-1.82.76c-.52.15-2.26 3.51-3.22 4.35-1 .87-1.68 1.1-1.7 1.44-.32 1.4 1.35 1.68 1.34 2.3-.05.33-.1.58-.4.85-.55.44-.96-.1-1.6.27-.42.27-.15.5-.41.9-.24.45.72.46.74 1.2.01.3-.6.54-.6.54s-3.65-1.04-5.73-.66c.06-.74.55-1 1.3-1.53.72-.55 1.14-1.31 1.14-1.95 0-1.56 1.2-2.5 2.49-3.86.62-1.43 1.65-2.18 3.2-4.1a18.43 18.43 0 0 0 2.38-4.58c.26-1.35-7.55-3.3-8.44-6.48-1.07-.76-.27-2.84-.42-3.28-.29-.9-.55-2.13.18-2.73s1.65-.93 2.56-1.19c3.2-.86 6.67-.76 9.7-2.12.62-.28 1.31-.62 1.95-.37.29.12.52.35.72.57a7.12 7.12 0 0 1 1.63 5.51"/>
    <path d="M71.09 68.04a6.3 6.3 0 0 1-1.62-4.1c1.53 1.74 3.17 1.93 4.57 2.83"/>
    <path class="secondary" d="M66.59 115.64c.38.06 1.21.15 1.62.9.56 1.01 1.63 5.48-.27 6.98-.5.43-1.6-1.95-3.68-2.76-.77-.35.65-2.74.65-2.74s1.37-2.45 1.68-2.38z"/>
    <path d="M73.34 96.7c-.64.3-.9.42-1.53.75-.95.55-3.71 2.51-5.47 2.73-2.27.48-3.7-.2-4.65.7-.3.3-.15.9-.36 2-.12.67-.7 1.47-.67 1.98.06 1.35.8 2.14.98 3.6.11.94-.03 2.28-.32 3.13-.29.85-.38 2.35.8 4.02.5.81.74 1.39.99 2.27.25.87.47 2.62 1.14 2.95.38-2.1 2.66-5.13 2.66-5.13s-.02-.66-.3-.75c-.7-.24-1.05.65-1.38.26-.29-.4-.45-.44-.29-.91.27-.7 1.08-.32 1.22-1 .07-.42.08-.48-.09-.75-.38-.5-1.6-.2-1.64-1.33-.1-.33.17-1.4.06-2.72-.07-1.5-.48-2.35-.35-2.88.6-.58.56-1.16.86-1.34.99-.6 3.74.29 6.06.85 1.34.33 3.8-.17 5.38-.54 1.33-.31.92.07 2.26-.24.33-.07.34-.31.75-.54s.13-.43.23-.56c.1-.13 1.64-.33 2.4-1.19.7-.25 2.27-1.67 2.42-2.66"/>
    <path class="secondary" d="M127.84 133.56c.03.38.18 1.21-.44 1.8-.82.82-4.83 3.02-6.79 1.6-.54-.36 1.45-2.04 1.68-4.28.13-.82 2.81-.1 2.81-.1s2.72.67 2.74.98z"/>
    <g fill="#000" stroke="none">
      <path d="M68.3 102.6c.8-.01 1.61.04 2.4.08l1.2.06c.39.02.78.04 1.18.04h.59a9.83 9.83 0 0 0 1.73-.29 17.76 17.76 0 0 0 1.7-.5c.1-.04.2-.06.26-.11.09-.05.16-.1.22-.2a.6.6 0 0 1-.18.24 11.17 11.17 0 0 1-1.93.85 8.05 8.05 0 0 1-1.8.36h-.6c-.8-.01-1.61-.07-2.4-.17-.78-.1-1.57-.23-2.37-.36z"/>
    </g>
    <path d="M130.1 89.05c2.04 0 3.7 1.18 3.7 1.18s2 .49 2.86 1.19a7.92 7.92 0 0 1 3.21 6.64c0 5.74-2.94 7.2-2.94 9.56 0 1.5 1.12 1.95 1.12 3.82 0 2.97-2.7 4.24-2.7 5.7 0 1.78 1.2 1.73 1.2 3.84 0 1-1.1 1.68-1.6 1.86-.26-.25.63-.58.63-1.77 0-1.79-2.58-1.84-2.58-3.97 0-2.04 1.27-2.6 1.27-3.98 0-2.02-2.92-2.98-2.92-6.62 0-3.97 1.96-4.28 1.96-7.85 0-2.18-.93-4.87-3.27-5.6-2.31-.64-4.23.29-4.23.29a12.7 12.7 0 0 1 2.17 9.06c-.3 2.34-1.67 5.16-1.67 7.11 0 .91-.13 2.55 1.27 3.16 1.4.61 3.08.33 3.57 1.04.63 1.03.33 2.04-.59 2.63-.23.43.4 1.32-.17 3.05-.29.67-.72 1.27-1.15 1.9-.31.44-.1 1.8-.35 3.04-.26 1.3.25 2.5.24 2.83-.29 1.4.57 1.66.57 2.27-.04.33-.09.58-.4.85-.53.46-.95-.07-1.58.32-.42.26-.11.49-.14.94-.02.46.96 1.17.92 1.9-.03.29-.65.48-.65.48s-3.53-1.4-5.65-1.2c.13-.73.62-1 1.41-1.48.78-.48 1.01-.72 1.02-1.2.09-2.04.9-2.67 1.42-3.4.51-.74-.22-2.26.14-4.56.33-1.48-.35-4.05-.95-5.15-.7-1.23-1.72-1.51-5.55-2.27a7.46 7.46 0 0 1-4.4-2.15c-1.2-.6-2.68-2.65-3.14-3.9-.45-1.26-1.37-2.59-1.73-3.86-7-.96-11.1 4.97-21.07 5.82-4.11.35-4.68-.2-4.68-.2s-1.75.07-3.92-.53c-3.85-1.06-6.22-2.98-7.6-5.46-2.22-4.02-.79-6.44-1.16-7.61 0 0-.83-2.2.01-4.63a10.2 10.2 0 0 1 2.23-3.56c1.1-1.24 1.62-1.62 2.76-3.9a7.1 7.1 0 0 0 .93-4c-.12-1.08-.69-1.58-.69-1.58s-1.25.78-2.2 1.05c-1.53.42-2.78.12-2.78.12s-.87.15-2.87 1.03c-.63.3-1.32.61-1.72 1.04-.45.5-.33.83-.74 1.17-.3.25-.86.25-1.09.19-.33-.08-.55.06-.55.06s-.31.31-.55.2c-.22-.12-.2-.32-.18-.48.06-.24.43-.66 1.04-1.12.58-.45.85-.58 1.03-.86s.16-.44.04-.52c-.1-.09-.26-.06-.44-.02-1.01.36-1.62 1.72-2.5 2a1.1 1.1 0 0 1-1.16-.34c-.24-.29-.3-.59-.35-.9-.12-.64 0-1-.03-1.63-.02-.61-.42-1.42-.12-1.96.3-.59.86-.62 1.48-1.15.24-.2.14-.06 1.25-1.14 1.1-1.08 1.97-1.86 2.94-2.8.95-.93.53-1.78 1.02-2.44.53-.75 1.2-.8 1.68-2.03.02.01-.41-.35-1.06-.4-.83.01-.79.8-1.86.82-.68.01-1.04-1.02-1.58-1.62-.41-.46-.99-.53-.9-.58 1.52-.6 1.8.9 2.57.89s.16-.7.87-1.22c.71-.53 1.17-.08 1.75-.08.09-.18 1.59-1.94 2.4-1.3a6.01 6.01 0 0 1-.73-3.38c.99 1.48 3.76 2.85 3.76 2.85s.43-.91 1.46-.91c1.02-.02 1.37 1.05 1.89 1.04.02.01.18-.62.64-1.1.48-.48 1.24.1 1.6-.62s-.82-1.3-.76-1.36c.09-.24 1.84.24 1.85 1.28.01.85-.25 1.18-.36 1.24h-.03.03c.3-.04 1.32-.4 2.28.03 1.01.45 1.3 1.54 1.92 1.54.94-.05.55-1.32.65-1.36.1-.02.61.41.61 1 0 .63-.5 1.46-1.32 1.47-.84.02-1.45-.28-1.52-.3.05.11.62.39 1.08.46.53.1 1.27.25 1.79.58.81.51 1.2 1.93 1.76 1.93.4 0 .55-.27.55-.65-.02-.6-.6-.73-.55-.9.04-.18 1.78.36 1.79 1.7a2.15 2.15 0 0 1-1.27 2.04c.18.04.34.1.5.15 2.54.92 1.52 3.2 1.72 3.79.02.08.18.28.66.28.7-.02.3-1.1.4-1.2.09-.11.8.32.82 1.04.01 1.21-1.16 1.44-1.26 1.45 0 .2.53 1.06 1.19 1.06.18 0 .5-.39 1-.4.51 0 .82.59.77.69-.04.08-.4-.12-.7-.04-.39.12-.39.7-1.04.96-.64.26-1.35.08-1.35.08s.68.54.85 1.22c.18.73-.04.94.14 1.48.22.69 1.08 1.13 1.1 2.38 0 1.25-.6 1.78-.65 1.72s-.13-1.29-1.29-2c.18 1.07-.06 1.83-.14 2.15-.5 1.79 5 2.9 8.02 2.9 8.2 0 9.08-1.34 15.75-1.03 4.06.24 6.5 1.92 8.17 1.92 2.67-.08 2.6-1.2 5.7-1.2z"/>
    <path class="secondary" d="M83.27 133.56c.03.38.18 1.21-.43 1.8-.83.82-4.84 3.02-6.8 1.6-.54-.36 1.46-2.04 1.68-4.28.14-.82 2.81-.1 2.81-.1s2.73.67 2.74.98z"/>
    <path d="M77.2 105.48c-.46 2.84 1.64 3.62 1.46 7.12 0 .37-.85 2.8.72 4.8.56 1.08 1.13 1.74 1.27 2.02.15.3.66 1.14.43 2.6-.36 2.31.94 3.84.42 4.57-.51.73-1.33 1.37-1.41 3.4-.03.49-.24.73-1.02 1.2s-1.29.75-1.42 1.48c2.13-.18 5.65 1.2 5.65 1.2s.64-.19.65-.48c.05-.74-.93-1.45-.91-1.9.02-.45-.28-.67.13-.94.64-.39 1.06.14 1.59-.31.3-.28.34-.53.4-.86 0-.62-1.35-.87-1.05-2.26.01-.34-.04-1.54.24-2.84.26-1.24-.22-3.16-.22-3.68.85-.73.53-1.42.66-2 .2-.9.47-1.05.48-1.83a3.54 3.54 0 0 0-.67-2.12c-1.55-2.56.77-7.38.77-7.38"/>
    <path fill="none" d="M92.46 86.45c-.3 1-1.38 2.13-2.86 1.97-.68-.17.39-.66.8-1.35"/>
    <path fill="none" d="M77.5 66.31c3.03.31 7 1.96 10.04 6.85"/>
    <path fill="none" stroke-width=".21" d="M77.27 79.04c.37-.24.54-.66.85-1.6.2-.65.25-1.83.2-2.42"/>
    <path fill="#f6f6f6" stroke-width=".3" d="M70.74 71.83c.8.22 1.62.78 1.62.78s-.82.78-1.45.73c-.77-.1-.99-.43-.99-.43s.09-.37.28-.66c.17-.25.43-.43.54-.42z"/>
    <g fill="#000" stroke="none">
      <path d="M110.63 121.04c-.13.05-.23.14-.33.22-.1.08-.19.18-.27.29a8.02 8.02 0 0 0-.5.62l-.47.65-.5.64c-.33.42-.68.84-1.08 1.2a3.4 3.4 0 0 1-1.02.72.97.97 0 0 1-.4.06c.26-.05.48-.2.67-.39.19-.17.37-.37.55-.56.35-.4.67-.83 1-1.25.33-.42.67-.84 1.04-1.24.18-.2.37-.4.59-.56.1-.08.21-.17.33-.24.11-.08.24-.14.39-.16z"/>
      <path d="M105.23 129.67c-.04.2-.18.34-.31.46s-.3.21-.45.3l-.45.21c-.16.08-.32.12-.47.22.01-.1.07-.18.12-.25.06-.07.12-.15.19-.2a3.92 3.92 0 0 1 .9-.5c.16-.1.3-.14.47-.24z"/>
      <path d="M114.89 116.63a.79.79 0 0 1-.24-.41 1.08 1.08 0 0 1 0-.48c.03-.16.1-.3.18-.43s.19-.24.35-.31l-.09.43-.1.38-.07.39c-.02.13-.02.26-.03.43z"/>
      <path d="M110.69 111.16c.01-.14.05-.23.08-.34a1.23 1.23 0 0 1 .71-.64c-.01.14-.05.23-.08.34a1.28 1.28 0 0 1-.4.48.76.76 0 0 1-.31.16z"/>
      <path d="M110.76 109.9a.96.96 0 0 1 0-.26c.01-.07.01-.14.04-.2a.63.63 0 0 1 .07-.2l.13-.22a.49.49 0 0 1 .16.5.68.68 0 0 1-.14.24.44.44 0 0 1-.26.15z"/>
      <path d="M136.06 95.47a7.37 7.37 0 0 1 .88 2.83c.04.5.04 1.01-.04 1.5s-.24.99-.48 1.44c-.23.46-.5.88-.8 1.28-.28.4-.58.79-.85 1.2-.26.4-.5.82-.7 1.26a5 5 0 0 0-.4 1.74l-.03.36c0 .24.02.46.06.7.1.45.33.87.6 1.29.24.4.53.83.77 1.26a4.87 4.87 0 0 1 .64 2.15 3.2 3.2 0 0 1-.25 1.47c-.1.23-.23.45-.36.66-.27.42-.6.8-.8 1.24a1.99 1.99 0 0 0-.1 1.44 1.96 1.96 0 0 1 .04-1.46c.2-.47.5-.87.75-1.29.25-.42.45-.86.5-1.34a4.16 4.16 0 0 0-.1-1.43 5.39 5.39 0 0 0-.56-1.33c-.24-.42-.53-.82-.8-1.24a4.29 4.29 0 0 1-.65-1.38 2.78 2.78 0 0 1-.07-.77l.01-.38c.01-.13.01-.25.04-.37a6.12 6.12 0 0 1 .7-2.15 7 7 0 0 1 .4-.64c.28-.42.58-.8.86-1.2a11.04 11.04 0 0 0 .8-1.21 4.89 4.89 0 0 0 .58-2.78 7.34 7.34 0 0 0-.64-2.85z"/>
      <path d="M136.5 110a5.16 5.16 0 0 1-.73-.87 2.83 2.83 0 0 1-.44-2.26c.08-.38.23-.74.39-1.09.32-.68.67-1.34.88-2.05.1-.35.15-.72.16-1.1.03-.37 0-.74-.04-1.11a4.4 4.4 0 0 1-.2 3.37c-.14.35-.3.7-.46 1.03a3.7 3.7 0 0 0-.47 2.08c.05.35.17.7.33 1.03s.38.65.58.97z"/>
      <path d="M133.25 94.43a6.08 6.08 0 0 1 1.45 2.28 5.3 5.3 0 0 1-.18 4.05c-.18.42-.38.83-.59 1.23-.2.4-.4.79-.57 1.2a9.24 9.24 0 0 0-.41 1.27c.02-.44.1-.9.24-1.33.13-.43.3-.85.49-1.27.18-.41.37-.82.53-1.23.17-.4.29-.83.37-1.25.1-.42.1-.86.08-1.3-.02-.2-.03-.42-.07-.64-.01-.1-.05-.22-.07-.32l-.08-.32a8.17 8.17 0 0 0-1.19-2.38z"/>
      <path d="M63.98 103.82c.09.1.14.2.16.33.02.12.01.24-.02.36a.65.65 0 0 1-.2.31.55.55 0 0 1-.32.16l.17-.57.08-.26c.03-.05.03-.1.05-.15l.08-.18z"/>
      <path d="M75.17 99.2c-.15-.19-.22-.44-.23-.7-.01-.24.04-.5.1-.72.08-.23.19-.45.3-.64l.37-.6c.02.24-.04.48-.1.7l-.21.66a4.01 4.01 0 0 0-.23 1.3z"/>
      <path d="m76.85 100.7-.16-.22-.13-.22-.25-.4-.25-.4c-.1-.14-.18-.27-.3-.4.19.01.36.1.5.2.14.11.26.26.36.41.1.16.16.33.2.5a1 1 0 0 1 .04.26c.01.08.01.17-.01.26z"/>
      <path d="M62.94 105.97a4.43 4.43 0 0 1 .59 1.83l.05.38.02.38.01.39a16 16 0 0 1-.07 1.52c-.04.5-.1 1.01-.1 1.51-.14-.49-.16-1.02-.19-1.52l-.01-1.51v-.57l-.01-.19c0-.12-.01-.25-.03-.37s0-.25-.02-.37c-.04-.48-.1-.97-.24-1.48z"/>
      <path d="M63.85 116.16c.16.1.25.29.33.46a3.56 3.56 0 0 1 .16 1.02c0 .16 0 .32.03.51a.62.62 0 0 1-.2-.2l-.11-.25c-.06-.17-.1-.35-.12-.52-.03-.17-.04-.34-.05-.5-.01-.18-.01-.34-.04-.52z"/>
      <path d="M83.11 119.3c-.1.16-.25.28-.42.36-.17.09-.36.12-.55.12a1.05 1.05 0 0 1-.91-.55c.1.03.17.06.25.07l.23.06c.14.04.3.06.44.06.15 0 .3 0 .46-.02l.5-.1z"/>
      <path d="M129.42 121.32c-.26.46-.44.97-.6 1.5-.16.53-.28 1.07-.38 1.6-.12.55-.22 1.09-.35 1.64a8.8 8.8 0 0 1-.22.8c-.05.14-.08.27-.14.4-.06.13-.12.25-.2.36.08-.1.14-.24.19-.37l.12-.4c.07-.26.12-.54.16-.81.1-.54.17-1.1.26-1.65.08-.55.18-1.09.3-1.64.13-.54.27-1.1.55-1.61l.31.18z"/>
      <path d="M126.7 130.87a.95.95 0 0 1-.35.43c-.15.11-.3.2-.47.26-.16.07-.32.12-.48.16-.16.05-.31.09-.48.17.02-.1.08-.17.14-.24a.79.79 0 0 1 .22-.18c.14-.1.31-.18.47-.25.15-.07.31-.12.48-.18a2 2 0 0 0 .47-.17z"/>
      <path d="M127.87 114.2c.13-.1.3-.13.46-.13a1.18 1.18 0 0 1 .81.43c.1.12.17.27.2.42l-.38-.2-.34-.2a3.1 3.1 0 0 0-.35-.16l-.4-.17z"/>
      <path d="M72.2 96.68c.08.5.24 1 .44 1.5s.4.96.63 1.44c.22.48.45.96.65 1.46.2.49.37 1 .43 1.52-.08-.53-.3-1-.51-1.49-.23-.48-.48-.93-.72-1.4-.26-.47-.5-.94-.72-1.42a7.93 7.93 0 0 1-.56-1.52l.35-.09z"/>
      <path d="M84.29 120.72a5.21 5.21 0 0 0-.53 1.63c-.1.58-.17 1.17-.22 1.77-.06.58-.1 1.18-.15 1.77l-.12.89c-.03.14-.06.29-.11.43-.05.15-.1.29-.2.4.1-.12.14-.27.19-.41a5.48 5.48 0 0 0 .15-1.32c.04-.59.05-1.19.08-1.78.02-.6.06-1.18.13-1.78.03-.3.08-.6.15-.9.08-.3.17-.58.32-.87l.3.17z"/>
      <path d="M82.08 130.67a.97.97 0 0 1-.23.5 2.79 2.79 0 0 1-.8.66c-.15.1-.29.17-.43.29 0-.1.03-.2.08-.28l.16-.22a3.26 3.26 0 0 1 .8-.65c.14-.1.28-.18.42-.3z"/>
      <path d="M77.02 105.48a6.12 6.12 0 0 0-.09-1.24c-.07-.4-.2-.8-.36-1.18s-.35-.78-.48-1.18c-.14-.4-.23-.83-.26-1.25.06.42.18.83.35 1.21.16.39.37.76.56 1.14s.36.78.46 1.22c.1.42.15.85.18 1.28h-.36z"/>
      <path d="M85.22 107.17a10.77 10.77 0 0 0 1.6-5.36c.05.95-.06 1.9-.28 2.84a10.51 10.51 0 0 1-1.02 2.7l-.3-.18z"/>
      <path d="M80.42 114.97c0-.19.1-.37.23-.5s.31-.23.5-.28c.17-.05.35-.06.53-.03s.35.07.5.14c-.16.07-.33.1-.5.13l-.45.1c-.15.03-.28.08-.42.15-.12.08-.25.16-.39.3z"/>
      <path d="M82.25 94.76c.06-.12.15-.2.26-.27a.91.91 0 0 1 .73-.09c.12.04.24.1.33.2l-.35.1c-.1 0-.2.03-.31.04l-.31.02c-.11 0-.22.02-.35 0z"/>
      <path d="M84.26 95.1a.5.5 0 0 1 .35-.08.9.9 0 0 1 .35.1c.22.12.37.3.52.42a4.9 4.9 0 0 0 1.02.69c-.23.05-.46.01-.69-.06-.21-.07-.42-.2-.6-.36-.17-.16-.29-.33-.43-.46a.84.84 0 0 0-.52-.25z"/>
      <path d="M84.95 100.97c.17.08.31.2.43.33a3 3 0 0 1 .32.45c.09.15.16.33.2.5.06.18.08.36.07.55-.11-.15-.2-.3-.28-.45l-.25-.46-.25-.45-.24-.47z"/>
      <path d="M85.22 103.3c.11.28.15.6.12.9-.02.3-.12.6-.22.88l-.32.8c-.1.28-.15.56-.24.85-.07-.3-.07-.6-.03-.91.03-.3.14-.6.25-.88.1-.28.22-.53.29-.8.07-.27.12-.54.15-.84z"/>
      <path d="M108.58 99.77c.1-.04.18-.04.26-.04a.69.69 0 0 1 .4.2c.07.05.12.11.15.22-.1.04-.18.04-.26.04a.69.69 0 0 1-.4-.2.53.53 0 0 1-.15-.22z"/>
      <path d="M109.26 98.48c.16 0 .31.05.44.12s.27.16.38.27c.1.1.19.23.26.37.07.13.12.29.12.44a4.4 4.4 0 0 1-.35-.27l-.3-.29-.27-.3c-.1-.1-.2-.2-.28-.34z"/>
      <path d="M110.27 104.75a9.2 9.2 0 0 0-.64-1.86 5.05 5.05 0 0 0-1.17-1.59c.54.4.98.93 1.33 1.5.35.58.61 1.22.83 1.85l-.35.1z"/>
      <path d="M97.55 107.05c.18-.33.35-.65.5-.97a10.2 10.2 0 0 0 .71-2.03l.22-1.08c.08.37.1.75.06 1.13a4.9 4.9 0 0 1-.75 2.12c-.2.32-.44.6-.74.83z"/>
      <path d="M94.82 107.4c.17-.24.32-.47.45-.7.13-.24.24-.48.35-.72l.3-.75c.12-.25.22-.52.37-.77a4.86 4.86 0 0 1-.34 1.66c-.1.26-.26.51-.44.74a1.98 1.98 0 0 1-.69.54z"/>
      <path d="M92.78 107.99c.09-.27.2-.5.3-.75l.27-.72.26-.73.27-.75a3.1 3.1 0 0 1-.2 1.6c-.1.26-.21.5-.36.74a3.24 3.24 0 0 1-.54.6z"/>
      <path d="M90.82 107.56a5.14 5.14 0 0 1 .42-.94l.25-.43c.1-.15.19-.29.31-.42a1.94 1.94 0 0 1-.26 1.03c-.09.16-.2.3-.32.43-.1.12-.25.24-.4.33z"/>
      <path d="M89.14 107.5c.03-.12.08-.2.13-.3a1.53 1.53 0 0 1 .35-.41c.07-.06.15-.12.26-.17.02.12.01.23-.02.32a.9.9 0 0 1-.16.28.74.74 0 0 1-.24.2.5.5 0 0 1-.32.08z"/>
      <path d="M135.12 96.83a6.02 6.02 0 0 0-.86-2.69 5.13 5.13 0 0 0-2.02-1.88 7 7 0 0 0-5.5-.2c.83-.49 1.82-.72 2.79-.74.98-.02 1.98.17 2.87.62a5.12 5.12 0 0 1 2.72 4.89z"/>
      <path d="M127.98 90.74c.32-.21.7-.37 1.1-.45.38-.1.78-.12 1.18-.1.4.03.8.11 1.16.24.38.13.74.33 1.04.59-.38-.12-.74-.24-1.1-.31a8.66 8.66 0 0 0-3.37.04z"/>
      <path d="M67.19 80.69c.1.02.18.07.24.15.06.09.1.18.1.3 0 .1-.04.2-.09.28a.4.4 0 0 1-.22.18c.04-.2.06-.34.06-.47 0-.07 0-.13-.02-.2a1.3 1.3 0 0 0-.07-.24z"/>
      <path d="M62.76 79.96c.02-.15.08-.28.17-.41.08-.12.19-.24.31-.33l.16-.13a.28.28 0 0 0 .1-.12.17.17 0 0 0 .02-.07v-.08a.34.34 0 0 0 0-.16c-.02-.1-.06-.23-.12-.35-.06-.1-.14-.23-.22-.3l-.02-.02-.02-.01h-.07c-.05 0-.1.02-.15.06-.11.07-.2.18-.3.28a.77.77 0 0 1 .2-.4c.05-.05.12-.1.2-.14l.15-.02.08.02.06.04c.16.1.24.22.33.35.08.13.14.26.18.43v.26c0 .04-.03.09-.04.14a.56.56 0 0 1-.06.12c-.05.08-.12.13-.18.18a.78.78 0 0 1-.2.1c-.11.08-.22.14-.32.23-.08.11-.16.22-.26.33z"/>
      <path d="M63.23 78.38c.01.08-.03.14-.05.2s-.06.1-.08.15l-.17.27-.17.26-.2.28a.84.84 0 0 1 .13-.7c.07-.12.15-.2.25-.28l.14-.1c.05-.02.1-.03.15-.08z"/>
      <path d="M68.34 74.66c-.13.3-.32.58-.53.82-.2.25-.43.48-.67.7-.23.24-.48.44-.7.66l-.72.64c.14-.3.34-.56.54-.81.22-.25.45-.48.68-.7l.7-.65.7-.66z"/>
      <path d="M68.54 72.05c.08-.16.15-.3.2-.45l.2-.44c.04-.08.1-.16.16-.23a.75.75 0 0 1 .21-.17c.16-.1.31-.15.5-.18-.11.14-.23.24-.34.36-.11.12-.18.23-.25.36-.08.14-.15.3-.26.44-.13.13-.26.24-.42.3z"/>
      <path d="M78.2 75.02a4.04 4.04 0 0 0-.13-1.06c-.03-.18-.08-.35-.13-.53-.06-.17-.12-.35-.24-.48.07.06.12.13.17.21l.12.26.19.51a4.32 4.32 0 0 1 .24 1.08l-.22.01z"/>
      <path d="M73 72.68c-.03.06-.09.1-.16.11l-.2.01c-.06 0-.12 0-.18-.02l-.2-.05.14-.26.13.1.14.08c.05.02.1.05.16.06.06.02.12.02.17-.03z"/>
      <path d="M71.3 79.67c.15.13.32.23.48.29a2.09 2.09 0 0 0 .53.08l-.06.36a2.23 2.23 0 0 1-.56-.28c-.16-.13-.3-.28-.39-.45z"/>
      <path d="M66.84 80.33c-.1.02-.2.02-.29.02h-.26l-.27-.01-.28-.02a.83.83 0 0 1 .85-.15.8.8 0 0 1 .25.16z"/>
      <path d="M67.56 78.53c.04-.05.07-.09.12-.1l.13-.02a.2.2 0 0 1 .13.05c.04.02.08.06.1.12l-.13.06h-.11a.2.2 0 0 1-.1-.03.27.27 0 0 1-.14-.08z"/>
      <path d="M68.1 78.2c.02-.07.07-.1.1-.12.04 0 .1-.02.13 0 .03 0 .07.02.1.04.04.02.07.06.09.12a.45.45 0 0 1-.12.07l-.1.01c-.04 0-.07 0-.1-.03a.36.36 0 0 0-.1-.1z"/>
      <path d="M68.66 77.98a.22.22 0 0 1 .09-.1c.02-.01.06-.02.08-.01.03 0 .05.01.07.03.03.03.05.05.06.11-.03.05-.06.06-.1.09h-.06a.07.07 0 0 1-.06-.03c-.03-.02-.05-.05-.08-.1z"/>
      <path d="M69.2 77.82c0-.06.03-.08.05-.1.03-.02.06-.03.09-.02.02 0 .04.01.06.04 0 .02.03.06.03.1l-.08.08h-.06c-.01 0-.03 0-.04-.03l-.06-.07z"/>
      <path d="M63.66 81.3c-.01-.06.02-.1.05-.14a.2.2 0 0 1 .1-.06c.04-.02.08-.02.13-.02.03.02.08.03.13.08a.3.3 0 0 1-.09.12c-.02.02-.06.04-.1.04-.03.02-.05.02-.09.02a.97.97 0 0 0-.13-.04z"/>
      <path d="M64.07 80.86a.12.12 0 0 1 .03-.12c.03-.03.05-.05.08-.05h.08c.04.01.06.02.1.07l-.05.1-.06.06a.08.08 0 0 1-.07 0 .33.33 0 0 1-.11-.06z"/>
      <path d="M64.49 80.6c-.03-.06-.01-.1.01-.13.02-.02.04-.05.06-.05.02 0 .05 0 .07.02.03 0 .05.03.09.08l-.05.1c-.01.03-.03.04-.05.04h-.05c-.02-.03-.03-.06-.08-.07z"/>
      <path d="M70.51 75.98c-.03-.04-.02-.1-.02-.12l.03-.08c.03-.02.05-.04.08-.04s.07 0 .12.03v.12l-.04.07a.2.2 0 0 1-.07.04c-.01-.02-.05-.02-.1-.02z"/>
      <path d="M70.72 75.46c-.05-.04-.05-.09-.05-.12 0-.04.02-.06.03-.08a.17.17 0 0 1 .08-.02c.03 0 .06.01.1.04.02.04.02.08 0 .1 0 .03 0 .05-.02.05l-.05.01c-.02.02-.05 0-.1.02z"/>
      <path d="M70.88 77.93c-.06.01-.1-.04-.1-.06-.03-.03-.03-.06-.03-.09 0-.02.01-.04.04-.07.02-.02.06-.03.1-.03l.08.08.01.06-.02.05c-.02.01-.04.01-.08.06z"/>
      <path d="M70.43 76.52a.17.17 0 0 1-.05-.12l.02-.08c.02-.02.04-.04.08-.05l.12-.01.03.12c0 .04-.01.06-.02.07-.01.03-.04.04-.06.05l-.12.02z"/>
      <path d="M70.44 77.03c-.05-.04-.06-.07-.06-.11l.01-.08a.14.14 0 0 1 .06-.06.26.26 0 0 1 .12-.03l.05.11-.01.07a.1.1 0 0 1-.05.05.28.28 0 0 1-.12.05z"/>
      <path d="M70.62 77.5c-.05-.03-.06-.05-.08-.09-.02-.02-.02-.06-.02-.08 0-.03.02-.05.04-.07a.18.18 0 0 1 .1-.06c.06.03.07.06.1.1v.08c0 .02 0 .04-.03.07a.23.23 0 0 1-.11.06z"/>
      <path d="M65.22 83.56a1.67 1.67 0 0 0 .48-.32l.23-.21a.81.81 0 0 1 .27-.17.74.74 0 0 0-.2.23l-.16.27-.19.27-.24.23-.19-.3z"/>
      <path d="m64.06 78.67-.15-.25-.12-.22a1.14 1.14 0 0 0-.12-.2c-.05-.07-.08-.14-.17-.22.05-.03.11-.02.17-.02.06.01.11.04.16.06.1.06.17.14.21.24.12.18.14.42.02.61z"/>
      <path d="M71.6 71.8c.06-.05.16-.05.23-.04.09.01.16.05.22.08.06.04.12.09.17.15.04.06.1.12.1.21-.08 0-.15-.03-.22-.06a1.46 1.46 0 0 1-.35-.22c-.05-.03-.09-.08-.16-.12z"/>
      <path d="m72.18 69.94-.43.03-.41.01h-.4c-.15 0-.3 0-.44-.03a1.47 1.47 0 0 1 1.3-.22c.12.05.26.11.38.2z"/>
      <path d="m72.3 71.75-.28-.07c-.1-.02-.18-.05-.26-.05a1.17 1.17 0 0 0-.5.02c-.16.05-.3.13-.47.23-.09.05-.17.1-.28.13a.84.84 0 0 1-.35.03h.03a.68.68 0 0 1-.27-.09.59.59 0 0 1-.19-.19c-.1-.16-.1-.36 0-.48-.02.16.04.3.13.38.05.05.1.08.16.1.06.02.12.02.18.02h.02c.15.02.27-.06.44-.15.15-.1.33-.2.55-.24.21-.05.43-.01.61.06.17.06.34.18.48.3z"/>
      <path d="M70.96 71.92s-.08.1-.03.38.24.7-.03.7c-.28.02-.54-.2-.6-.65a.53.53 0 0 1 .04-.28"/>
      <path d="M71.36 73.62a.68.68 0 0 1-.27.14.9.9 0 0 1-.31.02.7.7 0 0 1-.52-.34l.29.06.26.05.27.03.28.04z"/>
      <path d="m69.24 80.65-.43.34-.43.32-.88.65c.08-.17.2-.31.34-.44a3.11 3.11 0 0 1 .89-.67c.15-.08.32-.15.51-.2z"/>
      <path d="M80.34 70.49c1.1.62 2.11 1.4 2.99 2.33l.32.36.16.18.14.19.3.37.28.4c.35.52.67 1.08.95 1.66.26.58.49 1.18.67 1.8a12.36 12.36 0 0 1 .4 1.86c.08.64.13 1.28.13 1.9-.02.64-.05 1.27-.17 1.9a16.56 16.56 0 0 0-.2-3.76A13.45 13.45 0 0 0 83.16 73a15.63 15.63 0 0 0-2.81-2.51z"/>
      <path d="M75.47 69.22c.08.08.17.13.26.19l.28.14.29.15c.1.04.19.1.28.18-.12 0-.22 0-.33-.03-.11-.02-.22-.06-.33-.1a.97.97 0 0 1-.28-.21c-.1-.08-.17-.2-.17-.32z"/>
      <path d="M71.11 67.81c.16-.19.36-.32.57-.45l.63-.35.66-.3c.23-.1.46-.17.69-.24l.1.35-.7.19c-.22.07-.44.14-.66.23a10.8 10.8 0 0 0-.66.26l-.63.31z"/>
      <path d="M87.7 73.07c.52.92 1 1.88 1.38 2.89.37 1 .62 2.04.78 3.1.15 1.05.2 2.12.16 3.18-.03 1.05-.14 2.1-.24 3.16.06-1.05.16-2.1.16-3.16s-.07-2.12-.25-3.16a14.75 14.75 0 0 0-.87-3.02c-.4-.98-.88-1.91-1.42-2.8l.3-.2z"/>
      <path d="M79.16 78.73c.12.11.24.22.35.35.1.13.2.25.29.4a3.44 3.44 0 0 1 .5 1.9c0 .32-.06.65-.19.95.01-.32 0-.63-.03-.95a5.81 5.81 0 0 0-.48-1.78l-.2-.44c-.07-.15-.16-.28-.24-.43z"/>
      <path d="m92.46 79.62-.28-.07c-.08-.04-.18-.07-.25-.12-.08-.05-.15-.11-.21-.17a.91.91 0 0 1-.15-.23.7.7 0 0 0 .43.23l.24.02h.23l-.01.34z"/>
      <path d="M92.52 84.4c-.14-.11-.28-.22-.4-.35-.12-.12-.22-.27-.33-.4-.1-.14-.2-.29-.27-.44a3.29 3.29 0 0 1-.18-.48 2.55 2.55 0 0 0 .58.8 2.8 2.8 0 0 0 .78.55l-.18.32z"/>
      <path d="m89.86 71.74-.16.04c-.05.02-.1.02-.16.03-.1.01-.19 0-.28-.01-.1-.02-.2-.04-.28-.08a1.5 1.5 0 0 1-.24-.12l.26.04.26-.02a.72.72 0 0 0 .22-.08c.04 0 .08-.03.11-.04l.09-.06.18.3z"/>
      <path d="M92.64 77.26h-.23c-.07 0-.14 0-.21-.02a1.48 1.48 0 0 1-.41-.13 1 1 0 0 1-.34-.25c-.1-.1-.17-.22-.24-.32.1.1.18.19.3.25.11.07.23.12.35.14.12.03.24.04.36.03l.18-.03c.06 0 .12-.03.16-.05l.08.38z"/>
      <path d="M82 64.24c0-.02-.02 0-.02 0h-.1a1 1 0 0 0-.3.17l-.14.13a1.3 1.3 0 0 1 .3-.52c.02-.02.04-.05.08-.07l.04-.04.08-.03.06.36z"/>
      <path d="M82.68 66.42c.13-.1.28-.2.44-.26.17-.06.35-.1.52-.11.18-.01.36.01.54.05.18.03.35.08.53.16l-.2.32a1.97 1.97 0 0 0-.41-.22 1.68 1.68 0 0 0-.96-.1c-.16 0-.3.08-.46.16z"/>
      <path d="M78.84 65.26c-.02-.11-.04-.23-.04-.35s.02-.25.06-.37l.32.19c-.15.1-.26.31-.34.53z"/>
      <path d="M71.34 66.78c-.17-.1-.36-.17-.55-.22-.2-.04-.39-.06-.57-.06l.05-.36a2.35 2.35 0 0 1 1.07.64z"/>
      <path d="M90.8 77.6c-.15-.2-.26-.42-.36-.64a5.08 5.08 0 0 1-.2-.7c-.1-.47-.16-.95-.29-1.4a2.78 2.78 0 0 0-.67-1.2 4.2 4.2 0 0 0-1.16-.8c.22.08.45.17.67.28a2.78 2.78 0 0 1 1.36 1.68c.13.48.17.96.25 1.43.07.44.16.91.4 1.34z"/>
      <path d="M87.62 70.06c-.1.02-.19 0-.28-.03a.86.86 0 0 1-.26-.14c-.15-.12-.3-.25-.43-.39-.27-.26-.54-.54-.84-.73a1.8 1.8 0 0 0-.48-.24c-.17-.06-.36-.1-.54-.13-.37-.06-.74-.1-1.13-.13.39-.05.77-.07 1.16-.04a2.44 2.44 0 0 1 1.11.36c.33.23.59.52.84.8.13.14.25.28.39.4.12.15.26.28.46.27z"/>
      <path d="M82.74 65.56a4.31 4.31 0 0 0-1.1.36 21.46 21.46 0 0 0-.77.4l-.15.05c-.04.01-.1.04-.15.01.02 0 .05 0 .07-.02l.06-.04a.78.78 0 0 0 .1-.1l.24-.17a2.81 2.81 0 0 1 1.09-.5c.21-.04.42-.05.61 0z"/>
      <path d="M80.38 64.51c.08.13.12.31.06.47a.99.99 0 0 1-.28.4c-.1.12-.23.2-.32.3-.1.1-.17.22-.22.38a.6.6 0 0 1 .1-.47c.08-.14.2-.24.3-.35.12-.1.21-.19.27-.3a.94.94 0 0 0 .09-.43z"/>
      <path d="M92.56 82.67c-.22-.18-.4-.4-.53-.65-.07-.12-.12-.25-.17-.38l-.13-.39c-.09-.25-.2-.48-.36-.7-.16-.22-.35-.43-.52-.64a3.05 3.05 0 0 1 .78.7 1.99 1.99 0 0 1 .3.58c.1.25.16.52.25.77.09.24.23.47.38.7z"/>
      <path d="M70.55 67.43c-.27-.04-.53-.09-.8-.1h-.38c-.12.01-.24.04-.35.09-.21.1-.33.3-.46.55a.7.7 0 0 1-.3.3.6.6 0 0 1-.41.02.7.7 0 0 0 .36-.1.8.8 0 0 0 .21-.3c.05-.13.11-.25.2-.37.08-.12.2-.22.33-.28.28-.12.58-.11.84-.06s.52.14.76.25z"/>
      <path d="M72.1 62.16c.08.3.21.58.4.82.17.24.39.44.62.64l.73.57c.24.19.48.4.72.61a4.97 4.97 0 0 1 1.57 3.34 9.15 9.15 0 0 0-.67-1.7 5.5 5.5 0 0 0-1.1-1.42c-.44-.42-.94-.78-1.4-1.22a3.2 3.2 0 0 1-.6-.73c-.17-.29-.26-.6-.27-.91z"/>
      <path d="M75.38 67.79c-.18-.07-.33-.2-.46-.35s-.24-.31-.33-.48a1.59 1.59 0 0 1-.15-.56c-.03-.2-.02-.4.04-.58.08.18.12.36.18.53l.2.49.25.47.27.48z"/>
      <path d="M75.13 68.03c-.3-.16-.55-.36-.79-.59l-.7-.7c-.21-.25-.42-.51-.62-.78l-.14-.2-.14-.2c-.1-.15-.16-.3-.25-.44l.31-.16c.16.27.33.55.5.8a8.37 8.37 0 0 0 .58.78c.2.25.41.5.63.73.21.24.43.47.63.73v.03z"/>
      <path d="M75.78 64.32a4.54 4.54 0 0 1 2 2.24c.12.3.23.63.27.96l-.04.02c-.18-.3-.32-.58-.48-.87a5.16 5.16 0 0 0-1.94-2.04l.19-.31z"/>
      <path d="M78.8 82.6c.05.84-.1 1.69-.42 2.47-.15.4-.37.77-.58 1.13-.23.36-.47.7-.71 1.04-.5.67-1 1.33-1.4 2.05-.39.72-.68 1.5-.82 2.33.02-.84.24-1.68.61-2.44.18-.38.4-.74.64-1.09.22-.35.48-.68.73-1.03.49-.67.97-1.34 1.33-2.09.34-.73.55-1.53.62-2.37z"/>
      <path d="M91.42 85.88c-.06-.2-.15-.4-.23-.57-.1-.18-.2-.37-.28-.57a2.3 2.3 0 0 1-.15-1.26l.14.62c.06.19.12.38.2.57.08.2.17.39.23.59.06.2.11.4.09.62z"/>
      <path d="M122.34 111.58c.47 0 .95.12 1.37.34l.15.09.15.1.27.23c.18.17.34.35.48.53.3.37.54.76.82 1.12.28.36.59.68.95.98a3.5 3.5 0 0 1-1.15-.8c-.34-.34-.62-.72-.9-1.08a4.33 4.33 0 0 0-.93-.94 5.14 5.14 0 0 0-1.21-.57z"/>
      <path d="M126.53 98.08a.8.8 0 0 1 .07.44c-.01.16-.06.3-.12.44-.12.28-.26.52-.43.76s-.35.46-.55.67a3.74 3.74 0 0 1-.68.55l.46-.73.47-.7.47-.68c.18-.24.3-.47.3-.75z"/>
      <path d="M126.07 101.2c.12.1.16.26.16.42a.75.75 0 0 1-.16.42 1.02 1.02 0 0 1-.72.4c.06-.14.15-.25.22-.34l.2-.27.17-.26c.06-.12.1-.22.13-.36z"/>
      <path d="M125.72 103.33c.09.05.14.12.16.18.02.07.04.15.04.22a.6.6 0 0 1-.08.2.5.5 0 0 1-.19.16.72.72 0 0 1-.08-.22l-.01-.18c0-.06.02-.1.04-.17l.12-.19z"/>
      <path d="M90.24 86.98c.13-.16.22-.38.28-.6.06-.2.08-.45.07-.69.08.23.1.47.1.72 0 .24-.03.5-.14.76l-.31-.2z"/>
    </g>
  </g>
</svg>
