<svg xmlns="http://www.w3.org/2000/svg" fill="#d7374a" stroke="#000" viewBox="50 50 200 200">
  <metadata source="http://wappenwiki.org/images/d/d1/H%C3%A4stehufvud.svg" license="https://creativecommons.org/licenses/by-nc-sa/3.0"/>
  <g id="horseHeadCouped" stroke-width=".35">
    <path stroke-linejoin="round" d="M83.78 74.66c-1.83-2.5-3.43-5.83-3.14-9.63 3.28 4.18 7 4.86 10.1 7.11"/>
    <path stroke-linejoin="round" d="M128.84 121.92c.37-.42 2.66-2.53 2.1-7.01 2.55 1.77 2.53 4.59 2.66 4.74.13.14 1.57-.97 1.72-3.85.16-2.86-1.76-4-2.16-5.6-.32-1.28.2-1.72-.11-3.44-.29-1.56-1.79-2.9-1.79-2.9s1.6.53 3.13.01 1.63-1.83 2.55-2.05c.66-.16 1.47.37 1.6.17.1-.2-.51-1.6-1.67-1.67-1.17-.06-1.98.78-2.38.76-1.5-.09-2.6-2.16-2.58-2.6.24 0 2.96-.38 3.1-3.14.09-1.66-1.5-2.74-1.74-2.51-.25.22.55 2.78-1.07 2.69-1.11-.06-1.43-.52-1.5-.72-.33-1.37 2.32-6.48-3.39-8.96-.35-.15-.73-.3-1.14-.41 1.66-.75 3-1.89 3.22-4.52.15-3.06-3.74-4.53-3.86-4.13-.12.39 1.18.77 1.14 2.15-.04.9-.46 1.46-1.35 1.41-1.3-.07-2-3.37-3.8-4.67a11.89 11.89 0 0 0-4.02-1.57c-1.03-.21-2.3-.93-2.4-1.22.16.05 1.52.82 3.46.93 1.86.1 3.15-1.75 3.23-3.2.07-1.35-1.06-2.44-1.28-2.38-.2.05.49 3.05-1.67 3.02-1.45-.07-1.96-2.63-4.2-3.8s-5.08-.09-5.31-.4c0 .14.98-.4 1.1-2.79s-3.85-3.76-4.08-3.22c-.14.12 2.5 1.63 1.56 3.24-.93 1.61-2.6.16-3.75 1.2-1.16 1.04-1.6 2.47-1.65 2.45-1.2-.06-1.84-2.55-4.2-2.68-2.34-.12-3.47 1.9-3.47 1.9s-6.17-3.53-8.23-7.07a13.92 13.92 0 0 0 1.22 7.9c-1.8-1.6-5.48 2.23-5.71 2.63-1.35-.07-2.33-1.2-4.04-.08-1.71 1.1-.44 2.77-2.18 2.68-1.75-.1-2.19-3.57-5.76-2.41-.18.1 1.12.35 2 1.45 1.16 1.45 1.83 3.85 3.4 3.93 2.46.13 2.48-1.71 4.38-1.6 1.48.2 2.43 1.1 2.37 1.07-1.27 2.75-2.82 2.8-4.14 4.42-1.21 1.44-.36 3.46-2.68 5.44-2.37 2.04-4.47 3.72-7.15 6.06-2.69 2.33-2.48 2.03-3.04 2.45-1.51 1.12-2.78 1.13-3.55 2.44-.75 1.18.03 3.1 0 4.5-.04 1.44-.38 2.29-.18 3.75.1.72.18 1.42.68 2.13.6.8 1.64 1.18 2.63.93 2.07-.52 3.67-3.54 6.02-4.23.42-.1.77-.11 1 .09s.3.59-.16 1.2c-.46.6-1.1.87-2.5 1.82-1.48.99-2.37 1.9-2.55 2.45-.1.36-.13.83.34 1.11.55.32 1.29-.37 1.29-.37s.5-.31 1.27-.07c.51.17 1.8.24 2.54-.3.98-.71.74-1.45 1.84-2.55 1-.93 2.62-1.55 4.12-2.15 4.7-1.72 6.74-1.96 6.74-1.96s2.8.89 6.37.13c2.22-.47 5.2-2.09 5.2-2.09s1.23 1.2 1.36 3.74c.05 3.45-1.2 5.8-2.94 8.72-2.95 5.09-4.6 5.76-7.15 8.57-1.56 1.72-1.8 4.45-2.13 4.83-2.6 2.14-3.7 7.76-2.95 10.73 1.28 3.45 14.43 3.08 24.06.65 9.65-2.44 20.75-7.29 22.21-16.17z"/>
    <g stroke="none" fill="#000">
      <path d="M73.05 103.17c.1.04.18.1.26.17.07.07.16.16.2.25.06.1.1.2.13.3a1.22 1.22 0 0 1-.18.94c-.11.19-.26.34-.45.44a3.83 3.83 0 0 0 .3-1.07v-.26l-.04-.25c-.02-.1-.06-.17-.09-.26-.04-.09-.1-.17-.13-.26zm-10.07-2.32c.11-.3.28-.59.5-.85a3.07 3.07 0 0 1 .76-.63l.4-.26c.12-.1.22-.2.3-.31l.04-.1.05-.09.04-.1.02-.11.02-.21v-.22a2.73 2.73 0 0 0-.3-.86 2.76 2.76 0 0 0-.5-.74.35.35 0 0 0-.15-.1h-.2a.9.9 0 0 0-.4.17 2.71 2.71 0 0 0-.64.68c.12-.3.28-.59.53-.82.13-.12.28-.21.46-.26.1-.03.18-.03.28-.03a.59.59 0 0 1 .27.13c.16.11.26.24.37.38a2.94 2.94 0 0 1 .6 1.4l.01.27c0 .1-.02.17-.03.27 0 .04-.03.08-.04.13l-.04.13-.06.13-.07.12a1.42 1.42 0 0 1-.4.36c-.14.1-.29.17-.43.25a3.9 3.9 0 0 0-.78.52c-.22.23-.42.5-.61.75z"/>
      <path d="M64.26 97.32a.83.83 0 0 1-.19.37l-.24.3-.49.59-.42.6c-.14.22-.25.45-.4.68 0-.27.06-.54.15-.79a2.76 2.76 0 0 1 .96-1.27l.31-.23c.12-.08.23-.15.32-.25zm12.28-7.83a9.91 9.91 0 0 1-1.43 1.71 25.02 25.02 0 0 1-.82.77l-.83.73-1.72 1.4c-.56.48-1.1.96-1.62 1.49.4-.63.9-1.18 1.45-1.7.26-.26.54-.5.82-.75a45.9 45.9 0 0 1 .85-.72l.85-.71.43-.36.42-.35a27 27 0 0 0 1.6-1.51zm.82-5.98c.24-.31.46-.6.65-.91l.13-.24.13-.25c.08-.16.17-.34.27-.5l.17-.25.2-.22.22-.2.25-.17c.33-.21.7-.34 1.06-.45-.3.24-.62.44-.9.67l-.2.18-.19.19c-.1.14-.22.27-.3.42-.2.31-.36.67-.62.97a3.54 3.54 0 0 1-.87.76z"/>
    </g>
    <path fill="none" d="M96.42 100.8c.88-.49 1.32-1.42 2.2-3.57.52-1.46.83-4.15.77-5.52"/>
    <g stroke="none" fill="#000">
      <path d="M99.21 91.7c.04-.4 0-.8-.02-1.22a14.8 14.8 0 0 0-.15-1.24c-.07-.41-.14-.82-.26-1.23l-.2-.6c-.07-.19-.16-.39-.3-.53.16.13.25.33.34.52a10.94 10.94 0 0 1 .58 1.8c.1.42.18.83.25 1.26.06.42.12.84.12 1.28l-.36-.03z"/>
    </g>
    <path fill="#F1F0EE" d="M82.45 83.34c1.78.6 3.6 2.03 3.6 2.03s-1.97 1.68-3.43 1.48c-1.75-.37-2.2-1.14-2.2-1.14s.26-.82.73-1.46c.41-.58 1.04-.97 1.3-.9z"/>
    <g stroke="none" fill="#000">
      <path d="M87.5 85.6c-.07.14-.23.18-.37.2-.14 0-.28-.02-.42-.04-.14-.02-.27-.07-.4-.1l-.4-.16.17-.3a3.36 3.36 0 0 0 .69.4 2 2 0 0 0 .37.11c.12.02.26 0 .36-.1zm-4.88 15.8a2.9 2.9 0 0 0 1.02.83 4.59 4.59 0 0 0 1.21.42l-.08.34a4.48 4.48 0 0 1-.64-.26c-.2-.1-.4-.21-.59-.34a3.08 3.08 0 0 1-.92-.98zm-10.33.9c-.23 0-.44-.03-.65-.05l-.62-.06-.6-.04-.66-.02a2.15 2.15 0 0 1 1.3-.29c.22.03.45.07.65.15.2.05.4.16.58.3z"/>
      <polygon points="80.57 85.81 79.41 86.95 80.29 85.6"/>
      <path d="M74.2 98.26c.1-.05.19-.07.28-.1h.29c.09.01.18.04.28.09.1.03.18.09.25.17l-.29.01-.27-.02-.27-.05-.27-.1zm1.3-.7a.35.35 0 0 1 .26-.1c.1 0 .17 0 .26.03l.23.08c.07.04.16.1.21.17a.65.65 0 0 1-.26.01.76.76 0 0 1-.23-.04.7.7 0 0 1-.23-.07l-.24-.08zm1.3-.42c.05-.06.11-.07.18-.09a.5.5 0 0 1 .2 0l.16.06c.06.04.1.07.15.13a.4.4 0 0 1-.19.05l-.17-.01-.17-.05a.48.48 0 0 1-.17-.1zm1.25-.28c.02-.07.09-.09.14-.1h.16l.14.07c.04.03.09.07.11.14a.47.47 0 0 1-.17.04l-.12-.02a.35.35 0 0 1-.12-.04l-.14-.09zm-13.2 7.2c.04-.1.12-.15.2-.2a.66.66 0 0 1 .23-.1.92.92 0 0 1 .26-.03c.08 0 .17.01.26.05-.07.06-.16.1-.23.13a.9.9 0 0 1-.23.07l-.24.05c-.07.02-.15.02-.25.03zm1-.94a.34.34 0 0 1 .12-.15l.17-.09.18-.02c.06 0 .13.01.19.05-.05.06-.1.1-.16.13l-.15.07-.17.02-.19-.01zm.99-.57c0-.07.04-.13.08-.16l.14-.07a.34.34 0 0 1 .3.08l-.12.1-.13.05-.13.01h-.14zm14.49-9.73c-.02-.09.02-.14.04-.2a.47.47 0 0 1 .12-.14l.15-.1a.5.5 0 0 1 .2-.03.61.61 0 0 1-.2.3l-.14.1-.17.07zm.55-1.18c-.03-.06-.02-.13 0-.2s.06-.09.1-.12l.15-.07h.18l-.08.15-.09.1-.1.07-.16.07zm.04 5.7c-.07-.03-.11-.1-.12-.14v-.17l.06-.14a.27.27 0 0 1 .14-.1l.03.16v.14a.35.35 0 0 1-.06.12l-.05.13zm-.85-3.3a.43.43 0 0 1 0-.2l.08-.17.13-.13a.4.4 0 0 1 .19-.09.5.5 0 0 1-.05.2l-.08.16-.12.13c-.05.05-.1.07-.15.1zm-.04 1.18c-.03-.07-.02-.14-.01-.2l.07-.18.12-.15c.05-.03.1-.08.18-.1a.35.35 0 0 1-.03.21.5.5 0 0 1-.07.16l-.1.15-.16.11zm.34 1.13a.4.4 0 0 1-.04-.2v-.17a.41.41 0 0 1 .08-.17c.03-.04.07-.1.13-.15.03.07.05.13.05.19s0 .12-.03.18a.41.41 0 0 1-.07.16.45.45 0 0 1-.12.16zm-13.14 13.34a3.72 3.72 0 0 0 1.14-.77l.5-.5c.18-.17.38-.31.6-.4-.21.11-.39.28-.54.46l-.44.56a5.4 5.4 0 0 1-.5.53c-.2.17-.4.3-.6.44l-.16-.32zm-2.11-11.61-.16-.63a4.01 4.01 0 0 0-.52-1.08 1.37 1.37 0 0 0-.43-.43c.11-.02.23.02.34.05l.15.08.14.11c.18.15.32.34.43.55a1.89 1.89 0 0 1 .16.68c.02.23-.02.46-.11.67zm18.27-14.71c.18-.08.37-.03.54.02a2.12 2.12 0 0 1 .83.58c.1.13.22.27.29.43a2.77 2.77 0 0 1-.46-.22l-.4-.27-.38-.29c-.13-.08-.25-.17-.42-.25zm1.63-4.2-.98-.11a13.33 13.33 0 0 0-1.93-.1h-1c.16-.07.33-.11.48-.16l.5-.1a4.78 4.78 0 0 1 2 .09c.33.1.65.2.93.39z"/>
      <path d="M86.03 83.37a6.76 6.76 0 0 0-1.19-.48 2.65 2.65 0 0 0-1.8.13l-.56.29c-.2.1-.4.2-.62.26-.23.06-.49.07-.72 0h.02c-.19-.02-.38-.09-.55-.18a1.12 1.12 0 0 1-.4-.41c-.1-.17-.15-.36-.16-.55a.9.9 0 0 1 .15-.52 1.03 1.03 0 0 0 .54 1.25c.14.08.3.11.46.12h.02c.38.09.74-.08 1.12-.28a4.01 4.01 0 0 1 1.25-.48 2.71 2.71 0 0 1 1.35.16 4.48 4.48 0 0 1 1.1.69z"/>
      <path d="M82.93 83.53s-.19.24-.12.87c.09.63.46 1.64-.17 1.62-.64-.01-1.2-.58-1.25-1.58-.04-.32.12-.63.12-.63a1.7 1.7 0 0 1 1.42-.28zm.69 3.99-.32.14c-.11.02-.23.06-.35.07a2.3 2.3 0 0 1-.7-.02 2.2 2.2 0 0 1-.64-.26 1.3 1.3 0 0 1-.48-.5 8.35 8.35 0 0 0 1.21.42c.2.03.41.08.63.09l.31.04.34.02zm-5.87 15.86-1.07.67-1.05.67-1.04.7c-.34.24-.69.47-1.03.73.24-.35.54-.66.86-.94a9.16 9.16 0 0 1 3.33-1.83zM104.7 81.6l.89.63.43.32.23.17.2.18.86.68.42.35.4.37.8.74.76.8.38.38.36.42.72.82.68.86.33.44.3.45.62.9.56.94c.2.3.36.64.54.95.17.32.35.64.5.98l.45 1 .43 1.01a30.55 30.55 0 0 1 1.84 15.03c-.1.72-.22 1.44-.38 2.15a31.13 31.13 0 0 0 .22-8.66 32.13 32.13 0 0 0-2.03-8.4l-.4-1-.47-.98c-.14-.33-.32-.65-.5-.97-.17-.32-.33-.64-.51-.95l-.56-.93-.6-.9-.3-.46-.33-.43a41.65 41.65 0 0 0-.64-.87l-.7-.84c-.12-.14-.23-.29-.36-.42l-.36-.4-.74-.8-.78-.75-.4-.38-.4-.37-.8-.72-.2-.17-.22-.17-.43-.34-.81-.66zM93.67 78c.15.2.34.35.53.5l.61.38.65.37c.21.13.44.24.65.4a3.82 3.82 0 0 1-1.47-.47 2.7 2.7 0 0 1-.63-.49c-.1-.1-.16-.21-.23-.33a.78.78 0 0 1-.11-.36zm-9.8-3.87a5.43 5.43 0 0 1 .68-.48c.23-.14.48-.26.73-.39a24.64 24.64 0 0 1 4.7-1.61l.08.34-1.6.39a30.5 30.5 0 0 0-3.12 1.04l-.75.33c-.24.12-.5.23-.73.38z"/>
    </g>
    <path fill="none" d="M98.74 71.6c6.93 1.15 15.83 5.48 22.12 17.16"/>
    <g stroke="none" fill="#000">
      <path d="M121 88.68a40.2 40.2 0 0 1 2.8 6.78 35.54 35.54 0 0 1 1.42 7.19 40.95 40.95 0 0 1-.01 7.31c-.2 2.43-.6 4.84-.96 7.25.32-2.42.69-4.83.87-7.26s.17-4.87-.09-7.3a35.5 35.5 0 0 0-2.77-10.52c-.48-1.1-1.01-2.2-1.58-3.28l.33-.17zm-20.17 11.67a8.66 8.66 0 0 1 2.13 5.1c.02.37.03.75 0 1.11a6.87 6.87 0 0 1-.46 2.19 11.5 11.5 0 0 0-.3-5.42c-.1-.35-.24-.68-.37-1.03-.28-.67-.62-1.32-1-1.95zm30.42 3.69a3.21 3.21 0 0 1-.6-.15c-.19-.08-.39-.15-.57-.25-.17-.1-.34-.21-.5-.37a1.52 1.52 0 0 1-.32-.5c.1.17.23.33.39.43.15.12.33.2.5.27a3.19 3.19 0 0 0 1.13.22l-.03.35zm-.42 11.02-.46-.38c-.14-.13-.3-.26-.43-.41a7.8 7.8 0 0 1-1.32-1.91 5.2 5.2 0 0 1-.39-1.09 6.43 6.43 0 0 0 2.31 3.18l.46.32-.17.29zm-4.58-29.48-.32.11-.32.05a2.3 2.3 0 0 1-.64-.01 3.56 3.56 0 0 1-.9-.26l-.26-.15.3.1c.09.02.18.06.29.07.2.05.4.05.59.05a2.36 2.36 0 0 0 .57-.09l.28-.08c.08-.03.17-.07.24-.12l.17.33zm5.69 13.07-.49.03-.23-.01-.24-.02a2.97 2.97 0 0 1-1.64-.85c-.12-.1-.2-.24-.3-.36l-.12-.19-.12-.2.14.18c.05.06.08.13.14.18.1.1.2.22.32.32a2.68 2.68 0 0 0 1.6.63H131.42c.15-.02.3-.04.42-.08l.1.37zm-22.45-31.63c0 .05 0 .1-.03.14l-.04.04-.02.02-.08.04-.11.03-.19.06a2.67 2.67 0 0 0-.97.72 2.58 2.58 0 0 1 .86-.95l.2-.1.08-.06-.02.03-.02.08.34-.05zm1.15 5.55a3.66 3.66 0 0 1 2.26-.6 5.49 5.49 0 0 1 2.3.74l-.2.3a5.43 5.43 0 0 0-2.12-.85 3.46 3.46 0 0 0-2.24.4zm-8.65-3.21a3.52 3.52 0 0 1 .36-1.55l.3.2a3.25 3.25 0 0 0-.66 1.35z"/>
    </g>
    <path fill="none" d="M128.86 121.94s-2.2 2.91-5.66 2.49c-.22-.02-.42-.33-.08-.7"/>
    <g stroke="none" fill="#000">
      <path d="M125.16 121.17c.12-.16.24-.28.36-.41l.3-.41a2.08 2.08 0 0 0 .33-.97c.02.18 0 .35-.02.53s-.08.35-.15.52c-.07.16-.16.33-.25.48-.1.16-.2.31-.26.44l-.3-.18zM84.55 71.81a5.95 5.95 0 0 0-1.18-.7c-.22-.08-.43-.16-.64-.2-.21-.06-.44-.1-.66-.14l.07-.34a4.5 4.5 0 0 1 1.31.53 4.96 4.96 0 0 1 1.1.85zm43.13 27.57c-.3-.47-.52-.98-.69-1.51a9.75 9.75 0 0 1-.34-1.63c-.08-.56-.13-1.1-.2-1.64-.06-.54-.13-1.09-.26-1.62a6.4 6.4 0 0 0-2.6-3.96c-.43-.33-.9-.62-1.38-.9.51.21 1.02.45 1.49.74s.9.65 1.3 1.05a5.73 5.73 0 0 1 1.53 2.98c.25 1.1.29 2.2.38 3.3a10.15 10.15 0 0 0 .77 3.19zm-6.21-17.75a.97.97 0 0 1-.65-.1c-.2-.1-.39-.24-.55-.38a10.04 10.04 0 0 1-.94-.95l-.88-.96a8.27 8.27 0 0 0-1.46-1.23 8.65 8.65 0 0 0-1.81-.63c-.84-.19-1.71-.3-2.58-.4.87-.03 1.75-.01 2.63.13a7.22 7.22 0 0 1 1.92.6c.2.1.39.24.57.38.7.56 1.27 1.25 1.81 1.94.28.34.55.68.84.99.16.15.3.3.49.41a.96.96 0 0 0 .61.2zM110.91 70.6l-.67.07-.65.13c-.43.1-.85.24-1.25.41-.42.16-.82.35-1.22.54l-.61.29c-.1.04-.22.09-.32.11l-.17.05c-.06.01-.13.01-.17-.02.06 0 .1-.01.15-.04l.14-.08.28-.19.57-.38a6.22 6.22 0 0 1 2.56-1c.23-.04.46-.04.7-.04.21.06.43.09.66.15zm-5.31-2.72c.07.17.12.34.13.52.01.19-.01.38-.1.56a2.16 2.16 0 0 1-.68.86c-.27.22-.54.42-.78.65s-.41.5-.52.83c-.02-.17 0-.36.06-.53.06-.17.15-.34.26-.48.22-.3.5-.52.77-.74.26-.23.5-.44.66-.71.15-.27.2-.6.2-.96zm25.43 43.43a5.89 5.89 0 0 1-1.4-2.5l-.25-.9a5.8 5.8 0 0 0-.76-1.68c-.33-.52-.74-1-1.14-1.5a7.39 7.39 0 0 1 1.65 1.75l.25.42.2.45c.04.16.11.31.15.46.18.63.27 1.24.48 1.82.2.57.5 1.12.82 1.68zm-48.4-38.1c-.6-.15-1.19-.3-1.79-.38-.3-.04-.59-.07-.88-.06-.3 0-.58.04-.84.15l-.1.04-.09.04-.18.1-.3.3c-.2.22-.35.49-.52.74l-.3.37c-.1.11-.27.22-.41.29-.3.13-.65.11-.94.02.3.01.6-.04.86-.19a1.18 1.18 0 0 0 .3-.28l.24-.37c.14-.26.3-.54.5-.8a1.89 1.89 0 0 1 .79-.6c.31-.12.65-.17.96-.15a7.47 7.47 0 0 1 2.7.77zm4.29-11.89c.12.7.35 1.37.72 1.97.36.6.84 1.12 1.33 1.62.51.48 1.04.95 1.57 1.43s1.05.96 1.55 1.48a11.74 11.74 0 0 1 2.31 3.61c.06.17.14.33.19.51l.16.5.15.53.07.26.06.26c.16.7.24 1.4.3 2.1-.14-.69-.27-1.38-.47-2.07a12.81 12.81 0 0 0-3.04-5.46c-.95-1.04-2.06-1.94-3.05-2.96a7.63 7.63 0 0 1-1.28-1.73 5.04 5.04 0 0 1-.57-2.05z"/>
      <path d="M93.7 74.7a4.77 4.77 0 0 1-1.54-2.08l-.06-.16-.05-.15-.1-.32c-.04-.21-.09-.42-.1-.65-.06-.44-.02-.87.06-1.3.07.43.1.85.21 1.25a11.41 11.41 0 0 0 .26.9l.05.15.06.15a9.9 9.9 0 0 0 1.2 2.21zm-.6.49c-.61-.46-1.14-1-1.65-1.55a25.49 25.49 0 0 1-2.73-3.58l-.29-.49-.27-.5-.14-.24-.13-.25-.25-.5.32-.16c.33.66.67 1.32 1.06 1.95l.14.23.15.24.31.47c.21.3.41.61.64.9.44.61.9 1.2 1.38 1.77l1.47 1.68-.02.03zm1.86-8.21a11.04 11.04 0 0 1 4.24 5.3c.29.7.51 1.43.64 2.18h-.04c-.27-.7-.53-1.4-.83-2.1-.31-.68-.65-1.34-1.08-1.96a11 11 0 0 0-3.14-3.13l.2-.3zm4.48 42.2a13.78 13.78 0 0 1-2.96 8.04c-.57.78-1.18 1.53-1.78 2.28-1.23 1.47-2.48 2.94-3.49 4.55a16.05 16.05 0 0 0-2.1 5.3c.11-.96.33-1.9.65-2.8.32-.92.73-1.8 1.22-2.64.48-.84 1.04-1.63 1.63-2.4s1.2-1.5 1.81-2.24a28.61 28.61 0 0 0 3.34-4.65 15.06 15.06 0 0 0 1.68-5.44zm28.5 9.34a6.57 6.57 0 0 0-.4-1.37l-.28-.66-.26-.69a6.02 6.02 0 0 1-.23-2.9 13.76 13.76 0 0 0 .56 2.8l.24.67c.07.22.17.46.22.7.15.46.22.96.16 1.45z"/>
    </g>
  </g>
</svg>
