<svg xmlns="http://www.w3.org/2000/svg" fill="#d7374a" stroke="#000" viewBox="50 50 200 200">
  <metadata source="http://www.wappenwiki.org/images/0/00/Scali.svg" license="https://creativecommons.org/licenses/by-nc-sa/3.0"/>
  <g id="ladder" stroke-width=".33">
    <g>
      <path d="M87.23 61.42c.06-.64 4.15-1.65 4.08-1-.06.64-4.67 75.37-4.74 76-.06.64-5.92 4.01-5.84 3.37.05-.63 6.42-77.73 6.5-78.37z"/>
      <path d="M84.34 126.94h33.3v-3.7h-33.3s-.56.25-.56 1.85.56 1.85.56 1.85zm1.4-17.8h29.95v-3.7H85.73s-.55.25-.55 1.85.55 1.85.55 1.85zm1.5-17.8H112v-3.7H87.25s-.56.25-.56 1.85.56 1.85.56 1.85zm1.63-17.81h22.16v-3.7H88.87s-.55.25-.55 1.85.55 1.85.55 1.85z"/>
      <path d="M112.9 61.08c-.06-.64-4.15-1.3-4.08-.65.06.64 4.68 75.37 4.74 76 .07.65 5.92 4.01 5.84 3.37-.05-.64-6.42-78.08-6.5-78.72z"/>
    </g>
    <path d="M115.77 123.24s.56.26.56 1.86-.56 1.85-.56 1.85m-1.4-21.5s.55.26.55 1.85-.55 1.85-.55 1.85m-1.52-21.52s.56.26.56 1.86-.56 1.85-.56 1.85m-1.3-21.5s.56.25.56 1.85-.56 1.85-.56 1.85"/>
    <path fill="none" d="M115.7 123.24s-.55.26-.55 1.86.56 1.85.56 1.85m-1.43-21.5s-.56.26-.56 1.85.56 1.85.56 1.85m-1.54-21.52s-.55.26-.55 1.86.55 1.85.55 1.85m-1.32-21.5s-.55.25-.55 1.85.55 1.85.55 1.85"/>
  </g>
</svg>
