<svg xmlns="http://www.w3.org/2000/svg" fill="#d7374a" stroke="#000" viewBox="50 50 200 200">
  <metadata author="Christie L. Ward" source="https://commons.wikimedia.org/wiki/File:Coa_Illustration_Elements_Insect_Ladybird.svg" license="https://creativecommons.org/licenses/by-sa/3.0"/>
  <g id="ladybird" stroke-width=".554">
    <g stroke-linejoin="round">
      <path d="M99.695 70.93c2.435.356 4.889.625 7.354.803v-2.01c-.028-.755-.55-1.443-1.372-1.808a32.437 32.437 0 0 0-3.525-.97c-.462-.503-1.415-.82-2.458-.82-1.044 0-1.997.317-2.459.82-1.2.26-2.377.584-3.523.97-.822.365-1.344 1.053-1.372 1.809v2.01c2.466-.18 4.92-.448 7.355-.805Z"/>
      <path d="M77.446 88.31a1.205 1.205 0 0 1-.5-2.328l3.697.914a.681.681 0 0 1-.358 1.272c-.939.15-1.89.197-2.84.142Z"/>
      <path d="M76.272 87.489a19.117 19.117 0 0 0-3.606 7.973 2.96 2.96 0 0 1-2.972 2.94l.317-2.516a11.298 11.298 0 0 1 3.841-7.657 22.98 22.98 0 0 1 2.513-1.741c-.119.32-.15.665-.093 1Z"/>
      <path d="M69.715 97.505a94.786 94.786 0 0 0-3.707.296l-2.654.421-.267-.489-2.42-.02-.572.817c.228-.3.427-.62.594-.956l-.498-1.109.483 1.022a8.02 8.02 0 0 1 2.36-.438l.356-.779c.991.154 1.97.382 2.928.682l3.523-.387Z"/>
      <path d="M73.668 117.45a1.384 1.384 0 0 1-1.974-1.893l4.104-1.511a.783.783 0 0 1 .478 1.441 15.131 15.131 0 0 1-2.608 1.963Z"/>
      <path d="M72.023 117.423a21.96 21.96 0 0 0 1.704 9.909 3.4 3.4 0 0 1-.932 4.71l-1.32-2.599a12.978 12.978 0 0 1-1.278-9.757c.35-1.118.773-2.212 1.268-3.273.094.38.286.728.558 1.01Z"/>
      <path d="M72.235 131.173c-1.13.868-2.241 1.758-3.335 2.669l-2.252 2.112-.57-.295-2.315 1.54-.018 1.145c.024-.43.007-.863-.05-1.29l-1.188-.735 1.118.662a9.217 9.217 0 0 1 1.963-1.939l-.165-.969a22.954 22.954 0 0 1 3.224-1.237l3.102-2.637Z"/>
      <path d="M84.55 79.591a1.205 1.205 0 0 0-1.744 1.62l3.552 1.372a.681.681 0 0 0 .436-1.248 13.173 13.173 0 0 0-2.244-1.744Z"/>
      <path d="M83.118 79.59a19.116 19.116 0 0 1 1.62-8.6 2.96 2.96 0 0 0-.75-4.112l-1.183 2.243a11.298 11.298 0 0 0-1.245 8.475c.289.978.643 1.936 1.059 2.867.087-.33.258-.63.499-.873Z"/>
      <path d="M83.491 67.625a94.624 94.624 0 0 1-2.867-2.369l-1.932-1.868-.499.248-1.994-1.371v-.998a5.93 5.93 0 0 1-.062 1.124l-1.044.623.982-.561a8.027 8.027 0 0 0 1.682 1.713l-.156.842c.901.443 1.834.818 2.79 1.121l2.664 2.338Z"/>
      <path d="M103.995 67.62a.679.679 0 0 1 .808.25c.038-.104.073-.208.105-.313l.022.062 5.234-4.735a1.15 1.15 0 0 0 1.371-1.62 1.44 1.44 0 0 0-1.932.997l-4.465 4.049a5.78 5.78 0 0 0-1.081-3.8.49.49 0 0 0-.935.123c.21.335.276.74.186 1.124a1.056 1.056 0 0 0 .935 1.62 2.67 2.67 0 0 1-.248 2.242Z"/>
      <path d="M94.958 67.62a.679.679 0 0 0-.809.25 5.716 5.716 0 0 1-.104-.313l-.022.062-5.234-4.735a1.151 1.151 0 0 1-1.372-1.62 1.44 1.44 0 0 1 1.933.997l4.465 4.049a5.78 5.78 0 0 1 1.08-3.8.49.49 0 0 1 .936.123c-.21.335-.277.74-.186 1.124a1.056 1.056 0 0 1-.935 1.62 2.67 2.67 0 0 0 .248 2.242Z"/>
      <path d="M122.52 88.31a1.205 1.205 0 0 0 .5-2.328l-3.696.914a.681.681 0 0 0 .358 1.272c.938.15 1.89.197 2.839.142Z"/>
      <path d="M123.694 87.489a19.117 19.117 0 0 1 3.606 7.973 2.96 2.96 0 0 0 2.972 2.94l-.317-2.516a11.298 11.298 0 0 0-3.84-7.657 22.98 22.98 0 0 0-2.513-1.741c.118.32.15.665.092 1Z"/>
      <path d="M130.251 97.505c1.238.074 2.474.173 3.708.296l2.654.421.266-.489 2.42-.02.572.817a5.919 5.919 0 0 1-.593-.956l.498-1.109-.483 1.022a8.02 8.02 0 0 0-2.36-.438l-.356-.779a19.98 19.98 0 0 0-2.928.682l-3.523-.387Z"/>
      <path d="M126.299 117.45a1.384 1.384 0 0 0 1.973-1.893l-4.103-1.511a.783.783 0 0 0-.478 1.441c.796.746 1.67 1.404 2.608 1.963Z"/>
      <path d="M127.944 117.423a21.96 21.96 0 0 1-1.704 9.909 3.4 3.4 0 0 0 .932 4.71l1.32-2.599a12.978 12.978 0 0 0 1.278-9.757 26.387 26.387 0 0 0-1.268-3.273c-.094.38-.287.728-.558 1.01Z"/>
      <path d="M127.732 131.173c1.129.868 2.24 1.758 3.335 2.669l2.251 2.112.57-.295 2.315 1.54.018 1.145a6.808 6.808 0 0 1 .051-1.29l1.188-.735-1.118.662a9.217 9.217 0 0 0-1.963-1.939l.164-.969a22.954 22.954 0 0 0-3.224-1.237l-3.101-2.637Z"/>
      <path d="M115.417 79.591a1.205 1.205 0 0 1 1.744 1.62l-3.552 1.372a.681.681 0 0 1-.437-1.248 13.173 13.173 0 0 1 2.245-1.744Z"/>
      <path d="M116.849 79.59a19.116 19.116 0 0 0-1.62-8.6 2.96 2.96 0 0 1 .75-4.112l1.182 2.243a11.298 11.298 0 0 1 1.246 8.475 22.976 22.976 0 0 1-1.06 2.867 1.937 1.937 0 0 0-.498-.873Z"/>
      <path d="M116.475 67.625c.972-.771 1.927-1.56 2.868-2.369l1.932-1.868.498.248 1.995-1.371v-.998a5.93 5.93 0 0 0 .062 1.124l1.043.623-.981-.561a8.027 8.027 0 0 1-1.682 1.713l.155.842c-.9.443-1.833.818-2.79 1.121l-2.663 2.338Z"/>
      <g class="secondary">
        <path d="m101.69 138.967-1.747-55.092 14.459-.248a4.43 4.43 0 0 1 4.112 1.994 40.993 40.993 0 0 1 5.475 26.714 31.127 31.127 0 0 1-22.3 26.632Z"/>
        <path d="m97.699 138.967 1.746-55.092-14.458-.248a4.43 4.43 0 0 0-4.113 1.994 40.994 40.994 0 0 0-5.475 26.714 31.127 31.127 0 0 0 22.3 26.632Z"/>
      </g>
      <path d="M99.694 83.644c4.45.328 8.924-.008 13.275-.997a3.122 3.122 0 0 0 2.305-3.366 11.498 11.498 0 0 0-3.865-7.602 2.12 2.12 0 0 0-3.053-.375 25.745 25.745 0 0 1-8.662-.498 25.745 25.745 0 0 1-8.661.498 2.12 2.12 0 0 0-3.056.375 11.498 11.498 0 0 0-3.862 7.602 3.122 3.122 0 0 0 2.304 3.366 45.003 45.003 0 0 0 13.275.997Z"/>
      <g class="tertiary">
        <path d="M85.065 75.872a1.358 1.358 0 0 0 1.32 1.695l1.62.25a3.685 3.685 0 0 0 3.927-1.62 10.975 10.975 0 0 1 3.077-4.717c-1.298.051-2.598.004-3.888-.142a2.12 2.12 0 0 0-3.054.375 11.498 11.498 0 0 0-2.76 3.627l.02.016a1.357 1.357 0 0 0-.076.1 11.74 11.74 0 0 0-.186.416Z"/>
        <path d="M114.492 75.872a1.358 1.358 0 0 1-1.32 1.695l-1.62.25a3.685 3.685 0 0 1-3.927-1.62 10.975 10.975 0 0 0-3.078-4.717c1.298.051 2.598.004 3.89-.142a2.12 2.12 0 0 1 3.053.375 11.5 11.5 0 0 1 2.76 3.627l-.02.016c.027.032.052.065.076.1.065.137.127.276.186.416Z"/>
        <path d="M94.46 67.749a1.496 1.496 0 1 0 2.855-.867c-.066.054-.126.11-.18.168a32.6 32.6 0 0 0-2.676.699Z"/>
        <path d="M104.953 67.749a1.496 1.496 0 1 1-2.856-.867c.067.054.127.11.18.168a32.6 32.6 0 0 1 2.676.699Z"/>
        <path d="M90.75 83.66a10.482 10.482 0 0 0 17.887-.126c-5.961.123-11.924.165-17.886.126Z"/>
      </g>
      <path d="M83.192 106.056c1.45-1.45 4.385-.862 6.559 1.311 2.173 2.174 2.76 5.11 1.311 6.559-1.448 1.449-4.385.861-6.558-1.312s-2.76-5.11-1.312-6.558Z"/>
      <path d="M80.896 121.347c.888-.519 2.123-.284 3.237.615 1.114.899 1.937 2.325 2.159 3.739.221 1.414-.193 2.6-1.086 3.11-1.375.786-3.448-.243-4.636-2.3-1.187-2.056-1.041-4.366.326-5.164Z"/>
      <path d="M79.561 95.99c1.014.174 1.81 1.147 2.085 2.552.275 1.404-.01 3.026-.75 4.252s-1.82 1.868-2.832 1.685c-1.557-.283-2.484-2.403-2.071-4.742.412-2.339 2.008-4.014 3.568-3.747Z"/>
      <path d="M116.177 106.056c-1.449-1.45-4.385-.862-6.558 1.311-2.174 2.174-2.761 5.11-1.312 6.559 1.449 1.449 4.385.861 6.558-1.312 2.174-2.173 2.76-5.11 1.312-6.558Z"/>
      <path d="M118.474 121.347c-.889-.519-2.124-.284-3.237.615-1.114.899-1.938 2.325-2.16 3.739-.22 1.414.193 2.6 1.087 3.11 1.375.786 3.448-.243 4.635-2.3 1.187-2.056 1.042-4.366-.326-5.164Z"/>
      <path d="M119.808 95.99c-1.014.174-1.809 1.147-2.085 2.552-.275 1.404.01 3.026.75 4.252s1.82 1.868 2.832 1.685c1.558-.283 2.484-2.403 2.072-4.742-.413-2.339-2.008-4.014-3.569-3.747Z"/>
      <path d="M99.694 90.995a3.1 3.1 0 0 0 6.107-.997 4.843 4.843 0 0 0-2.868-3.616 3.263 3.263 0 0 1-1.433-2.865h-3.614a3.263 3.263 0 0 1-1.434 2.865 4.842 4.842 0 0 0-2.865 3.616 3.1 3.1 0 0 0 6.107.997Z"/>
      <path d="M99.956 83.486c-.175-.004-.35-.004-.524 0l-1.708 54.704c1.309.238 2.632.238 3.94 0Z"/>
    </g>
  </g>
</svg>
