<svg xmlns="http://www.w3.org/2000/svg" fill="#d7374a" stroke="#000" viewBox="50 50 200 200"><metadata license="https://creativecommons.org/licenses/by-nc-sa/3.0" source="http://wappenwiki.org/images/5/59/Aquitaine.svg"/><g id="lionPassantGuardant" stroke-width=".375"><path d="M95.38 124.46s-.31.04-.52 1.18c-.15.8.08 2.13.4 2.13.2 0 .45-1.13 1.72-1.82-.04.07-.05.26-.06.26-.21 1.15-.08 2.45.25 2.45.19 0 .57-1.15 1.86-1.85.03-.01-.11.23-.16.55-.21 1.15-.03 2.28.3 2.28.19 0 .17-.88 1.32-1.52.73-.45 1.8-.2 1.8-.2l.35-2.2-3.37-.9-2.51-.8z" class="secondary"/><path d="M97.28 125.11c-.04 0-.61-.41-1.07-.6-.97-.19-1.03.2-1.05.2-.1 0-.38-.49-.23-.95.16-.45.39-.82.9-.82.7-.14 1.04-.5 1.58-.65.76-.23 1.63.35 2.22.3.59-.05-.89 1.3-.89 1.3z"/><path d="M126.07 130.92c.19 0 .17-.87 1.32-1.5.73-.46 1.8-.2 1.8-.2l.35-2.2-3.37-.92-2.51-.8-1.38.46s-.31.04-.52 1.18c-.15.8.08 2.13.4 2.13.2 0 .45-1.13 1.72-1.82-.04.07-.05.26-.06.26-.21 1.15-.08 2.45.25 2.45.19 0 .57-1.15 1.86-1.85.03-.01-.11.23-.16.55-.2 1.14-.01 2.26.3 2.26" class="secondary"/><path d="M67.04 125.76s-.3.04-.52 1.18c-.15.8.09 2.13.41 2.13.19 0 .44-1.13 1.71-1.82-.03.07-.05.26-.06.26-.21 1.15-.07 2.45.25 2.45.19 0 .58-1.15 1.86-1.85.03-.01-.1.23-.16.55-.21 1.15-.02 2.28.3 2.28.19 0 .18-.88 1.33-1.52.72-.45 1.8-.2 1.8-.2l.35-2.2-3.38-.9-2.51-.8z" class="secondary"/><path d="M114.98 116.09c.69-.5.85-1.07 1.29-1.38.44-.31 1.81-1.49 1.81-2.49 0-1.67-1-.85-2.05-1.8-.69-.63-.44-1.42-.2-1.82.66-.78 2.36-1.61 3.94-2.81.67-.53-.91-2.3-.91-2.3l-2-3.7s-4.15-1.34-5.1-.75c-4.52 2.37-5.87 4.08-6.53 4.6-.21.2-.92.1-1.26.2-.34.12-.81.5-1.59.52.38.49 1.16.49 1.36.49a6.8 6.8 0 01-1.65.66c-.83.2-.7 1.15-1.6 1.59 1.02.4 1.27-.28 1.84-.51.51-.2 1.23-.13 1.23-.13s-.7 1.1-1 2.26c-.27 1.03-.1 2.67 1.5 4.05 1.63 1.4 3.57 1.02 3.45 1.1-.64.47-.14.95-1.15 3.1a8.12 8.12 0 01-1.8 2.48c-.73.56-.87 1.32-1.48 1.96-.61.64-.84 1.4-1.36 1.4-.96 0-2.14-.79-3.35.41-.04.03-.54-.12-.96.58-.3.4-.33 1.27-.15 1.32 0 0 .7-.8 2.45.78 0 .05.1.1.1.1s.26-.48 1.06-.05c1.2.8 1.24 1.94 1.24 1.94s.12.37.9.23c.8-.13.9-.58.9-.58s.5.16 1.4.16c.45 0 .98-.85 1.7-1.23.76-.38 1.62-.5 1.92-.82.59-.64.38-1.81.79-2.95.41-1.14 1.39-2.24 1.66-3.08.28-.82 1.06-1.67 1.48-2.37.56-.86 1.16-.49 2.12-1.16z"/><path d="M62.28 75.62c-.64-1.3-2.77-2.16-4.22-.83-.1.1-.3.28.06.37 1.67.39 1.39 1.35 1.39 1.35s.16.58.13.78c3.1-.03 2.55-1.23 2.64-1.67zm1 15.4s2.04-1.83.15-2.13c-.15.13-.44-.03-.56-.03-.78.18-1.3-.24-1.41-.25-.13-.01-.13.05-.14.11-.16.68.24 1.44.84 2m-2.43-9.78c-1.24-.85-3.51-.34-4.01 1.56-.04.14-.09.42.26.3 1.63-.58 1.89.37 1.89.37s.44.4.54.6c2.58-.16 1.48-2.4 1.32-2.83z" class="secondary"/><path d="M68.1 76.62c.72-1.08.43-3.43-1.34-4.02-.14-.04-.4-.11-.3.24.5 1.62-.47 1.85-.47 1.85s-.4.4-.6.48c1.15 2.35 2.3 1.6 2.72 1.45z" class="secondary"/><path d="M73.07 101.05c-.46-1.14-1.28-2.49-3.74-4.08-2.05-1.2-4.02-.98-4.02-.98s-.73.12-.67-.15c.15-.72.37-.93 1.05-1.18.82-.32 1.9-.27 1.85-1-.07-.57-1.02-1.25-2.03-1.6-1.73-.5-2.83-.8-3.47-1.42.77-.07 1.08-1.25.6-1.8.5-.07 1.52-.28 1.32-1.48-.28-1.12-1.73-2.17-2.87-2.09a2.03 2.03 0 01-2.06-1c-.66.27-1.85-.67-1.24-1.2 1.63-.25 1.95-1.45 1.25-2.46.5.14.08-.74 1.2.11.47.38.53.97.7 1.12.7.56 1.02.26 1.43-.14 1.07-1.29-1.33-1.25-2.06-3.21-.35-.3-.72-.1-1.08-.85-.11-.25-.17-.7.01-1.02.17-.17.14-.06.2-.15.8.9 2.77.2 2.74-1.03.25.16.39-.03.74.25.56.42.7 1.13.32 1.7-.18.66.4 1.38.95 1.68.2.1.54.2.6.17.73-.78-.16-2 .14-2.7-.29-.3-.01-1.84.75-1.83.15 0 .28-.02.35-.09-.09 1.23 1.8 2.48 2.18 1.75l.12.18c.15.19.38.22.34.77-.08.67-.49 1-.84 1.14-.27.13-.22.95-.34 1.21-.36.84-.57 1-.5 1.7.1.92 1.25 3.8 4.6 6.58a32.3 32.3 0 004.1 2.95c.24.14-.86 8.56-.86 8.56s-1.5 2.24-1.76 1.59z"/><path d="M115.2 100.02s-1.27.17-2.04.4c-.78.24-2.12.72-3.37 1.4-.25.15-.72.45-1.06.03-.15-.19-.2-.44 0-.84.5-.96 2.14-2.05 2.14-2.05l3.45-.26z"/><path d="M132.28 71.56s1.34-.32 2.21-1.49c.38-.45.45-.87-.3-.4-1.62 1-4.13 1.03-4.13 1.03l-1.68.04-.67-.77s.2-.1.53-.23c.35-.13.14-.32-.2-.25-.36.06-1 .08-1.6.3-.5-.05-2.25 2.45-2.25 2.45l-.07.97s1.56-.27 2.39-.27c1.28 0 1.88.6 2.95.6.9 0 1.36-.4 1.36-.4l.51-.85z"/><path d="M124.18 126.41c-.04 0-.61-.41-1.07-.6-.97-.19-1.03.2-1.05.2-.1 0-.38-.49-.23-.95.16-.45.39-.82.9-.82.7-.14 1.04-.5 1.58-.65.76-.23 1.63.35 2.22.3.59-.05-.8 1.08-.91 1.36-.11.27-1.44 1.16-1.44 1.16z"/><path d="M68.93 126.41c-.04 0-.61-.41-1.07-.6-.97-.19-1.03.2-1.05.2-.1 0-.38-.49-.23-.95.16-.45.39-.82.9-.82.7-.14 1.04-.5 1.58-.65.76-.23 1.63.35 2.22.3.59-.05-.89 1.3-.89 1.3z"/><path d="M144.24 86.84c0-4.54-4.1-8.08-8-8.08-2.35 0-3.35-1.67-3.72-2.1-.55-.27-.51-.09-.58.1-.27.85.37 2.18-.27 2.18-1.71-.02-2.64-1.37-3.31-1.95-.58-.3-.54-.12-.6.07-.48 1.48.52 2.24-.17 2.25-1.45.01-2.35-1.15-3.56-1.77-.55-.28-.51-.1-.57.1-.34 1.37.58 2.32-.12 2.33-1.3.02-3.05-1.4-3.85-2.03-.55-.28-.5-.1-.57.1-.43 1.37.45 2.26-.24 2.27-1.37.01-3.26-1.9-3.92-2.32-.55-.28-.52-.1-.58.1-.27.85.48 2.48-.16 2.5-1.4 0-2.86-1.9-4-2.37-.55-.27-.51-.08-.58.1-.27.85.55 2.52-.08 2.53-1.45.01-2.02-1.68-3.34-2.5-.51-.25-.45-.09-.51.09-.08 1.15-.65 2.3-2.07 2.16v0c-1.53-.15-3.62-1.83-3.62-3.45 0-3 3.95-5.09 8.47-5.11 4.84 0 5.9 1.68 8.84 2.76 4.23 1.75 7.44-3.44 11.31-2.29.55.14 1.3.53 2.12.64 2.73.29 4.47-.79 4.4-1.64.58-.7.37-.69-.5-.24-.6.27-1.3.48-2.24.32-.6-.1-1.25-.4-2.01-.75-.8-.37-1.75-.75-2.9-.92-2.82-.42-3.53-.37-5.1-.06-2.67.39-4.28.98-7.32.55-1.15-.16-2.93-.75-6.6-.75-5.86.03-11.16 2.88-11.16 7.54 0 3.87 3.5 6.99 9.55 6.99 11.83 0 18.58-2.6 27.35-2.6 4.15 0 7.34 1.97 7.34 5.15 0 2.45-1.69 5.42-6.3 5.42-2.18 0-5.06-1.07-8.93-2.84a30.47 30.47 0 00-11.28-2.18c-2.74 0-4.98.73-7.87 1.15-3.06.43-2.8.55-6.4.55-4.1 0-5.7-1.25-6.73-2.08-1.03-.84-.93-2.57-1.98-3.29.54.05 1.21-.18 1.41-.65.14-.25.22-.35-.1-.32-1.75.15-.8-1.51-1.4-1.78.15-.05.8-.35.95-.77.05-.11.14-.21-.03-.24-.43.08-1.3-.07-1.18-1.01.19-.91-.3-1.08-.3-1.08s.9.12 1.11-.87c0-.31-.46.15-1-.39-.32-.39-.02-1.09-.13-1.52-.13-.5-.52-.82-.5-.85.37-.97.43-2.7-.18-3.32-1.37-.46-2.09.07-2.09.07l-.43-.27a1.66 1.66 0 00-.73-.22s-.01-.28-.61-.53-.86-.06-.86-.06-.1-.21-.78-.39c-.61-.16-.86 0-.86 0s-.33-.23-1.05-.17c-.48.05-.59.14-.61.19-.03-.05-.14-.14-.63-.2-.72-.05-1.05.17-1.05.17s-.25-.2-.86-.04c-.7.18-.78.4-.78.4s-.26-.15-.86.1-.61.53-.61.53-.38.01-.73.22l-.43.27s-.72-.52-2.1-.07c-.62.63-.54 2.35-.17 3.32.02.03-.37.37-.5.85-.1.43.2 1.13-.13 1.52-.54.54-1 .09-1 .39.17.96 1.1.87 1.1.87-.04.12-.5.17-.32 1.08.13.94-.75 1.09-1.17 1.01-.18.01-.09.11-.04.24.16.42.8.71.95.77-.59.27.44 2.1-1.41 2.22-.33-.04-.25.06-.11.32.18.45 1.15.65 1.4.65-1.02 1.29-.28 3.91-1.08 5.23-.25.4-1.46 1.13-1.96 3.32-.24 1.01.21 1.43.21 1.43s-.29.66-.25 1.22c.04.45.39.9.39.9s.16.59.17 1.45c.02.4-.42.93-.22 1.4.25.7.64.51.87 1.44.28.81-.25 1.36-.13 1.8.15.51 1.25.65 1.5.99.1 1.22 1.32 2.35 1.65 3.18 1.02 2.38 2.3 1.65 2.6 1.88-.14.29.27.15-.45 1.36-.88 1.51.86 4.25.72 4.36-.65.67.1 2.07-.69 4.28-.25.7.42 1.75-.23 2.36-.8.75-.55 1.51-1 2.09-.54.69-1.27 1.52-1.8 1.52-.95 0-2.13-.78-3.34.42-.04.02-.54-.13-.96.57-.3.4-.33 1.28-.15 1.33 0 0 .7-.82 2.45.77 0 .05.1.1.1.1s.26-.47 1.06-.05c1.2.8 1.24 1.94 1.24 1.94s.12.37.9.24c.8-.14.9-.6.9-.6s.5.17 1.4.17c.45 0 .98-.85 1.7-1.22.76-.4 1.36-.5 1.66-.83.59-.64.32-1.81.74-2.95.4-1.14.62-2.02 1.15-2.72.76-1.02.56-3.17 1.28-3.88.73-.71 1.45-2.71 1.94-2.95.48-.25 1.25-1.2 1.84-2.21 0 0 .61-1.31.36-2.46 0 0 .09-.14.35-.14.18 0 .56.17 1.33.17.43 0 4.02-.15 6.22-1.32 4.84-2.39 10.93-9.4 15.88-9.4 2.72 0 3.52.75 4.38 1.84 1.4 1.75.82 4.8 1.75 6.52.94 1.73 1.95 1.93 3.12 4.15.55-.47.53-.89.02-1.92.44.1.41.77 1.71 1.52s2.57 1 4.03.93c1.46-.08 1.56-.33 2.51-.05.95.27 1.33.5 1.99 2.66.66 2.16.82 4.01.82 5.25 0 1.25-.77 2.66-1.38 3.3-.62.64-1.22.82-1.75.82-.97 0-2.14-.78-3.35.42-.04.02-.54-.13-.97.57-.28.4-.32 1.28-.15 1.33 0 0 .72-.82 2.45.77.02.05.1.09.1.09s.45-.35 1.07-.04c1.2.8 1.23 1.94 1.23 1.94s.13.37.92.24c.78-.14.9-.6.9-.6s.48.26 1.38.26c.44 0 1.23-.65 1.95-1.03.75-.38 1.7-.25 2-.57.58-.64.03-2.31.45-3.45.42-1.14 1.5-2.19 1.5-3.08 0-1.27-.7-2-.8-2.66-.12-.66-.36-3.46-.47-5.24-.06-1.02.17-1.6.06-2.32-.11-.71-.5-1.14-.5-1.78 0-.5.45-.55.45-1.35 0-.78-.24-1.35-1.19-1.35s-.4.44-1.62.44c-1.23 0-1.44-.94-1.88-1.69-.82-1.4-1.07-3.5-1.35-4.87-.4-3-3.15-6.9-3.37-7.1 2.96 1.82 5.07 2.02 7.74 2.02 5.96 0 9.08-4.26 9.08-8.23z"/><path fill="#f6f6f6" stroke-width=".25" d="M85.38 82.86c.04.1.18.6-.02 1.31-.15.5-.43.63-.43.63s0 0 0 0 0 0 0 0c-.09-.03.04-.14-.09-.71-.18-.85-.36-1.04-.5-1.32 0-.02.55.1.55.1s.5-.03.5 0zm-1.01 4.75s.2-.31.29-.91c.05-.4-.02-.7 0-.7 0 0 0 0 0 0h.06c.11.01.24.15.32.31.1.16.13.34.15.63 0 .1-.33.4-.33.4z"/><path fill="#f6f6f6" stroke-width=".25" d="M80.66 82.79c-.17.27-.33.43-.52 1.28-.12.58.02.7-.08.72 0 0 0 0 0 0s0 0 0 0-.28-.13-.43-.63a2.3 2.3 0 01-.02-1.31l.5-.01s.56-.07.55-.05zm-.87 4.13c.03-.28.07-.45.15-.6.1-.17.22-.3.33-.32h.05s0 0 0 0c.02.01-.04.31.01.7.09.6.29.91.29.91l-.41-.19c-.02 0-.43-.33-.42-.5z"/><path fill="#f6f6f6" stroke-width=".25" d="M86.57 75.11c-.46.01-1.48.63-1.46.91.02.2.4.58 1.02.57.63-.03 1.25-1.18 1.25-1.3a1.9 1.9 0 00-.81-.18z"/><path fill="#f6f6f6" stroke-width=".25" d="M78.42 75.11c.46.01 1.47.63 1.46.91-.02.2-.4.58-1.02.57-.63-.03-1.25-1.18-1.25-1.3 0-.03.5-.2.8-.18z"/><path fill="none" d="M99.04 126.81s.33-.6.78-.85"/><path fill="none" d="M97 125.95c0-.13.16-.86.4-1.03"/><path fill="none" d="M125.94 128.11s.27-.47.77-.82"/><path fill="none" d="M123.9 127.25c0-.13.16-.86.4-1.03"/><path fill="none" d="M70.7 128.11s.32-.6.77-.85"/><path fill="none" d="M68.64 127.25c0-.13.17-.86.42-1.03"/><path fill="none" d="M82.5 81.82v.48"/><path stroke-width=".313" d="M80.62 83.77v1.83c0 1.55 1.24 2.54 1.89 2.54.63 0 1.87-1 1.87-2.54v-1.83c0-.33-.22-.7-.75-.7-.52 0-.86.24-1.14.24-.27 0-.6-.24-1.13-.24-.52 0-.74.37-.74.7z" class="tertiary"/><path fill="none" d="M78.42 81.79c.14.4.34.77.65.95.14.07.29.12.46.12 1.73 0 2.66-.56 2.98-.56.3 0 1.25.56 2.97.56.18 0 .33-.05.46-.12.3-.18.5-.53.64-.92"/><path fill="none" d="M74.43 99.24c.65-2 2.2-.5 3.01-2.77-.15.8-.46 2.83-1.77 3.37-.26.1-.46.23.1.36 1.51.37 3.16-.65 4.07-1.6 1.63-1.75 1.94-3.49 2.02-3.73.52.38-1.2 2.97 1.2 4.2.3.14.43.18.38-.28-.06-.52 0-.8.1-1.04"/><g fill="#000" stroke="none"><path d="M65.37 82.87a8.07 8.07 0 001.81 2.49l-.02.04c-.25-.1-.48-.26-.68-.44a4.1 4.1 0 01-.94-1.3 2.2 2.2 0 01-.17-.79z"/><path d="M66.8 94.15c.32-.09.6-.1.9-.16.28-.05.56-.13.8-.3l.02.03a2 2 0 01-.78.45c-.27.12-.57.2-.8.3z"/><path d="M64.16 86.71a4.75 4.75 0 00-1.28-.94 3.16 3.16 0 00-.72-.26 1.83 1.83 0 00-.73-.05l-.05-.37c.31-.02.59.05.86.13a4.15 4.15 0 011.95 1.47z"/><path d="M63.03 77.39c-.09.2-.25.37-.42.52a2.25 2.25 0 01-1.27.49c-.22 0-.46-.04-.66-.15l.01-.04a2.7 2.7 0 001.24-.19c.2-.07.39-.16.56-.27.2-.1.37-.21.54-.36z"/><path d="M65.44 76.87a2.95 2.95 0 00.93.93c.19.12.39.24.57.32.2.1.4.15.63.1l.02.03a.66.66 0 01-.35.12c-.12 0-.25 0-.36-.05a2.35 2.35 0 01-1.16-.78c-.15-.2-.26-.43-.28-.67z"/><path d="M59.3 83.94c.12-.03.2-.08.3-.14l.23-.2a3.65 3.65 0 00.73-1c.08-.19.15-.39.16-.6l.04-.01c.08.2.06.46 0 .67a2.01 2.01 0 01-1.1 1.25c-.12.05-.24.08-.35.03z"/><path d="M63.04 89.56a2.11 2.11 0 01-1.55-.66c.4.27.99.46 1.54.44z"/><path d="M56.33 82.34c.36-.24.77-.2 1.16-.24.42.05.8.25 1.09.56l-.2.15c-.74-.68-1.22-.61-2.04-.46z"/><path d="M58.46 74.95c.1.01.23.02.35.05.1.04.22.05.33.1a2.03 2.03 0 011.3 1.61l-.25.03a1.93 1.93 0 00-1.07-1.57c-.1-.06-.21-.08-.31-.12-.12-.04-.23-.05-.34-.08z"/><path d="M66.86 73.02a1.66 1.66 0 01.18 1.22 2.46 2.46 0 01-.59 1.11l-.17-.18a2.65 2.65 0 00.64-.97 1.55 1.55 0 00-.08-1.16z"/><path d="M74.4 100.11c.23.3.37.65.46 1.01.08.37.12.73.16 1.1a5.13 5.13 0 00.63 2l-.06.03a2.55 2.55 0 01-.67-.9 3.39 3.39 0 01-.28-1.1l-.07-1.08a8.1 8.1 0 00-.16-1.06z"/><path d="M74.08 105.31c.43.3.66.77.9 1.22.3.8.65 1.2 1.39 1.43l-.24.21a1.64 1.64 0 01-1.02-.87 5.9 5.9 0 01-.35-.82 2.85 2.85 0 00-.72-1.14l.04-.03z"/><path d="M72.53 99.65c.01.43.04.85.03 1.28.04.53.07 1.05.16 1.57.02.12.09.4.12.45.14.26.38.52.6.76.17.21.39.41.45.69-.11.07-.13-.18-.23-.2-.36-.32-.8-.55-1.06-.95-.23-.37-.3-.81-.33-1.23a11 11 0 010-.93c.04-.49.1-.98.26-1.44z"/><path d="M98.43 90.39c-.7.05-1.42.05-2.1-.15-.4-.09-.76-.26-1.12-.42-.77-.4-1.43-.98-2.17-1.44-.16-.15-.5-.16-.58-.34.67.08 1.25.42 1.8.78a8.74 8.74 0 004.13 1.54c.08-.02.05 0 .04.03z"/><path d="M84.58 97.85c.16.99.58 1.98 1.37 2.63.6.5 1.37.74 2.14.78.2.04.53-.03.65.05-.2-.07-.3-.27-.44-.41a3 3 0 01-.62-1.65c-.11-.51-.37-.97-.7-1.37-.07-.07-.3-.31-.08-.21.16.17.34.32.5.5.29.34.5.76.58 1.2.1.55.35 1.07.76 1.45.13.16.39.27.4.5-.03.32-.39.36-.64.33a4 4 0 01-2.65-.86 4.04 4.04 0 01-1.27-2.94z"/><path d="M86.27 95a6.66 6.66 0 004.04 1.96c.76.03 1.5-.2 2.16-.56.06-.07-.44-.08-.59-.2a3.34 3.34 0 01-1.52-1.35 3.65 3.65 0 00-1.74-1.23c.27-.07.67.2.98.32.48.22.9.58 1.19 1.03.45.55 1.1.93 1.8 1.04.56.14.27.75-.15.84a4 4 0 01-3.2.27A6.17 6.17 0 0186.27 95z"/><path d="M93.04 92.99c-.68.05-1.26-.4-1.77-.8a3.34 3.34 0 00-1.94-.82c-.3-.01-.61.01-.91-.01.13-.16.47-.2.7-.25.83-.12 1.68.17 2.29.72.47.4.9.9 1.49 1.09.04.02.16 0 .14.07z"/><path d="M89.94 99.64a3.56 3.56 0 002.12 1.82c.76.2 1.57.06 2.3-.21.14.13-.28-.04-.35-.1a2.77 2.77 0 01-1.12-1.3 2.79 2.79 0 00-1.18-1c.26-.04.54.18.79.3.38.23.64.6.87.98.3.42.73.74 1.23.88.44.24-.02.67-.35.7-.92.34-2.02.33-2.87-.2-.7-.41-1.2-1.1-1.44-1.87z"/><path d="M97 92.2c-.67-.78-1.73-1.06-2.72-1.1-.85-.08-1.76-.1-2.5-.57-.13-.06-.55-.51-.2-.31.3.23.7.32 1.06.38.92.12 1.88.03 2.78.35.6.17 1.2.53 1.5 1.1.03.05.04.12.08.15z"/><path d="M91.26 93.72c.77.55 1.77.45 2.64.7.8.22 1.5.74 1.96 1.42.06.1.25.44.03.22-.46-.37-.88-.82-1.45-1.04-.82-.4-1.78-.39-2.6-.8-.25-.1-.42-.3-.58-.5z"/><path d="M99 95.1c-.57-.03-1.03-.4-1.5-.69-.52-.35-1.04-.72-1.66-.9-.3-.09-.64-.08-.95-.16.05-.14.36-.1.5-.14.88-.07 1.7.38 2.36.92.41.33.8.7 1.27.93z"/><path d="M93.4 97.8c.72-.27 1.53-.2 2.22.1.59.25 1.08.67 1.65.95.14.1.4.1.49.19-.05.07-.2.04-.3.05-.4 0-.76-.18-1.1-.36-.59-.3-1.15-.64-1.8-.77-.37-.1-.76-.13-1.15-.12l-.01-.04z"/><path d="M115.86 99.19a3.26 3.26 0 01.16-2.32c.28-.77.73-1.48.85-2.3.06-.21-.02-.5.03-.68.09.18.11.41.12.62 0 .71-.32 1.37-.6 2.02a5.05 5.05 0 00-.6 2.2c0 .15.02.3.04.46z"/><path d="M123.56 109.65a.98.98 0 01-.79-.41 1.1 1.1 0 01-.27-.5l-.02-.1c.07-.05.1.07.16.1l.46.51.19.17c.1.07.19.15.27.23z"/><path d="M120.7 108.45a.92.92 0 01-.48-.59.9.9 0 01.01-.51c.08 0 .07.11.11.17.1.21.18.43.26.65.04.09.08.18.1.27v.01z"/><path d="M119.4 107.42c-.17-.14-.23-.37-.2-.59a.99.99 0 01.17-.5c.1-.03.07.14.08.2.02.18-.02.36-.01.54l-.03.35z"/><path d="M124.4 109.09c.3.25.59.5.84.8.02.07-.05.05-.09.02a.89.89 0 01-.67-.52.77.77 0 01-.08-.3z"/><path d="M126 108.9c.28.1.57.2.85.32.05.03.25.1.13.15a.96.96 0 01-.79-.18c-.1-.07-.13-.2-.19-.29z"/><path d="M118.36 106.3c-.15-.2-.12-.5 0-.7.07-.1.16-.23.3-.24 0 .14-.06.27-.1.4-.08.18-.16.35-.2.54z"/><path d="M121.78 108.97c-.26-.23-.26-.63-.12-.93.01-.12.18-.23.17-.04.01.23-.03.46-.02.7l-.03.27z"/><path d="M114.64 109.24c-.51.19-1.11-.1-1.36-.57.22.02.41.19.63.26.24.11.48.22.73.31z"/><path d="M111.62 110.05c-.42-.03-.84-.4-.83-.83.26.15.43.41.65.61.06.07.13.14.18.22z"/><path d="M110.06 110.07c-.42 0-.74-.4-.75-.8.3.14.43.49.66.7l.05.05z"/><path d="M108.63 109.49c-.38-.08-.55-.55-.42-.89.2.16.24.44.35.66.02.08.03.16.07.23z"/><path d="M112.9 109.69c-.4.05-.84-.57-.68-.78.28.2.46.52.68.78z"/><path d="M132.03 108.39c.55.01 1.06.25 1.58.41.32.1.64.21.98.17.04-.01.19-.06.1.02a.84.84 0 01-.8.32c-.5-.07-.9-.37-1.3-.62a2.45 2.45 0 00-.56-.3z"/><path d="M129.84 103.27c.11.2.16.45.08.67l-.11.28a.62.62 0 01-.2.22c-.07-.04-.02-.13-.02-.2l.14-.64c.03-.1.06-.22.11-.33z"/><path d="M130.16 104.91c.1.13.12.29.09.44a.83.83 0 01-.23.5c-.03.05-.19.19-.17.04l.07-.3c.07-.23.16-.45.24-.68z"/><path d="M130.66 106.34c.1.17 0 .36-.08.51-.1.15-.25.32-.44.33-.05-.08.07-.21.12-.3.1-.14.18-.3.3-.42l.1-.12z"/><path d="M129.24 101.8c.26.21.28.61.16.9 0 .1-.19.3-.17.09-.03-.33 0-.66.01-.99z"/><path d="M112.64 97.1a.82.82 0 01-.71.3.97.97 0 01-.49-.16c.02-.07.12-.05.19-.07l.6-.03c.14-.03.27-.03.41-.04z"/><path d="M110.4 98.26a.71.71 0 01-.84-.13c-.04-.04-.14-.2-.02-.16l.45.11c.13.06.27.1.39.17l.02.01z"/><path d="M109.12 98.56c-.2.11-.45.03-.61-.1-.08-.08-.2-.18-.17-.3.14.02.28.08.4.15l.38.25z"/><path d="M112.48 96.52c.24-.06.48-.11.73-.11.1-.04.35-.01.18.1a.72.72 0 01-.91.01z"/><path d="M113.22 95.75c.22-.15.45-.3.7-.4.21-.03-.03.23-.1.28-.15.15-.4.24-.6.12z"/><path d="M108.12 98.84c-.26.16-.6-.02-.73-.26 0-.23.29.02.4.06.1.1.23.11.33.2z"/><path d="M111.4 97.72c-.25.27-.7.18-.92-.08.24-.14.55.03.81.05l.06.02z"/><path d="M114.12 94.17a.8.8 0 01-.81.74c.1-.29.45-.37.63-.6.05-.06.11-.11.18-.14z"/><path d="M113.18 93.97c.07-.08.14-.17.23-.24.12-.12.26-.24.41-.32.07 0 .03.08.02.13a.82.82 0 01-.1.2.56.56 0 01-.56.23z"/><path d="M112.5 93.26l.37-.23c.1-.06.22-.1.34-.12.03.03.03.07 0 .1-.06.14-.2.24-.35.3a.36.36 0 01-.31-.01c-.02 0-.05-.03-.05-.04z"/><path d="M111.67 92.82l.23-.1.2-.04a.75.75 0 01.26-.01c.05.05 0 .1-.04.12a.49.49 0 01-.54.12.35.35 0 01-.11-.09z"/><path d="M79.48 100.06a6.86 6.86 0 00-2.2 3.62 9.48 9.48 0 00-.14 2.95c0 .5-.13.99-.12 1.49h-.38c0-.63.19-1.26.1-1.9a7.34 7.34 0 01.16-2.33c.3-1.37.99-2.72 2.14-3.58.15-.04.28-.32.44-.25z"/><path d="M90.86 107.87c.1.21.3.36.51.48.22.15.47.26.7.41.04.05-.05.1-.09.05a1.39 1.39 0 01-.92-.39c-.14-.15-.23-.35-.2-.55z"/><path d="M92.08 107.54c.2.17.39.32.6.46l.7.44c.02.1-.22.02-.3.01-.39-.09-.78-.31-.94-.7a.99.99 0 01-.06-.21z"/><path d="M93.16 107.19c.48.38 1.08.52 1.63.76-.1.1-.36.03-.52.03-.47-.07-.94-.33-1.11-.79z"/><path d="M94.42 106.87c.41.14.84.22 1.25.38-.2.2-.5.08-.73.04a.86.86 0 01-.52-.42z"/><path d="M95.83 106.32c.28.2.64.25.93.42-.27.19-.69.06-.86-.2-.06-.07-.04-.15-.07-.22z"/><path d="M89.47 103.45c-.07.25.18.37.34.48.25.22.18.62-.03.84-.11.16-.26.28-.37.44-.09-.14.15 0 .27-.06.29 0 .56-.13.85-.16.28-.03.3.34.25.54-.16.45-.61.7-1.02.9-.14.1-.06-.11-.07-.19.04-.1.24.12.32.2.22.2.35.48.35.77.04.05-.1.31-.26.26-.3.02-.62-.16-.9.02-.05 0 .03-.16.03-.23.16.3.11.7-.14.95-.17.19-.41.32-.65.41-.38.24-.53.7-.6 1.13l-.37-.04c.06-.55.3-1.15.81-1.43.13-.03.25-.13.37-.2.21-.12.37-.4.25-.63-.02-.08-.14-.2 0-.24.19-.15.44-.17.68-.16.16 0 .32.05.48.04-.08.02-.09.21-.08.03-.03-.29-.25-.5-.46-.67l-.3-.19c.44-.18.9-.37 1.2-.76.1-.08 0-.43.06-.26-.29.03-.56.16-.85.15-.19 0-.57 0-.52-.28.1-.22.32-.34.46-.53.21-.2.2-.55-.07-.69-.16-.04-.31-.5-.08-.45l.05.01z"/><path d="M79.57 104.31c0-.23.14-.44.3-.6.1-.1.22-.16.34-.23.1-.04.22-.07.33-.05.04.06-.07.08-.1.13l-.52.42-.35.33z"/><path d="M80.72 101.79a.82.82 0 01.6-.41c.13-.02.28 0 .39.07.04.06-.07.07-.1.08-.21.07-.41.15-.62.21-.1.02-.18.05-.28.05h.01z"/><path d="M80.12 104.8c-.12.17-.3.28-.44.43-.1.1-.2.19-.32.26-.1.01-.03-.13-.02-.19.12-.3.45-.51.78-.5z"/><path d="M79.9 105.89c-.09.18-.14.37-.23.55-.05.11-.12.22-.2.32-.11-.05-.03-.22-.05-.32.05-.2.16-.43.36-.53a.3.3 0 01.12-.02z"/><path d="M80.16 102.91c.01-.27.28-.43.51-.49.1-.03.44-.06.28.1-.24.17-.52.28-.79.39z"/><path d="M81.1 107.46c0 .17-.05.34-.09.5-.03.15-.06.3-.13.43-.03 0-.06 0-.07-.04-.05-.09-.05-.2-.05-.29 0-.24.12-.5.34-.6z"/><path d="M82.28 107.7l-.17.4c-.08.13-.14.27-.25.37-.04.01-.08-.02-.06-.06v-.11c.01-.21.11-.42.28-.55.06-.03.13-.06.2-.05z"/><path d="M83.3 107.57c-.1.16-.2.32-.34.46-.06.05-.13.12-.21.13-.05-.06 0-.14 0-.2.07-.18.2-.32.37-.39a.3.3 0 01.18 0z"/><path d="M109.67 113.76c-.68-.12-1.33.23-2 .29-.24.1-.2-.54.08-.35.64.02 1.3-.18 1.91.04l.01.02z"/><path d="M104.8 104.64a5.79 5.79 0 01-1.04.4v-.38c.34.03.7 0 1.03-.06l.01.04z"/><path d="M104.2 106.49c-.1-.03-.2 0-.3.02-.1.02-.17.08-.25.13l-.02.01-.11-.36h.27c.04 0 .07.01.11.03.11.03.23.06.31.14l-.01.03z"/><path d="M86.64 111.01a1.43 1.43 0 01-1.83 1l-.15-.05c0-.03.03-.05.06-.04h.26l.28-.05c.43-.05.8-.31 1.11-.58.1-.1.19-.18.27-.28z"/><path d="M83.52 112.59c.15 0 .29.04.43.05l.78.04.41.06c.02.04.08.09-.08.07-.46.17-1.03.15-1.44-.13l-.06-.05z"/><path d="M82.67 113.7c.25-.21.63-.21.93-.12l.21.09c0 .05.02.12-.12.07-.33.06-.69.04-1.02-.04z"/><path d="M82.92 114.49c-.4.15-.83.24-1.26.18-.05-.05.06-.07.1-.1.13-.07.28-.12.44-.15.13-.02.26-.01.39-.02a.7.7 0 01.33.09z"/><path d="M81.44 120.21l.1.16.09.14c.05.1.08.21.08.32 0 .02-.01.02-.02.02-.03.02-.06 0-.08-.02l-.1-.07a.46.46 0 01-.14-.43.28.28 0 01.07-.12z"/><path d="M80.87 120.95c.08.02.12.1.16.16.05.07.05.16.05.24a.39.39 0 01-.14.31c-.03-.01-.07-.01-.06-.08a.74.74 0 01-.05-.34c0-.04 0-.1.02-.14l.02-.16v.01z"/><path d="M125.74 92.07c.68.1 1.37.42 1.84.89l-.27.23c-.1-.12-.2-.24-.32-.34-.3-.28-.65-.5-1.03-.66-.07-.04-.18-.05-.23-.1l.01-.02z"/><path d="M89.68 106.5h-.3c-.27-.02-.56-.13-.72-.34.02-.04.05 0 .08 0 .05.03.11.05.17.06a.9.9 0 00.54-.03l.12-.05.11.36z"/><path d="M112.68 116.2c.32-.48.66-.95.92-1.46.15-.27.25-.57.45-.8a.67.67 0 01.54-.22c.1-.02.14.11.02.1-.12.02-.22.11-.3.2-.14.21-.18.47-.29.7a2.92 2.92 0 01-1.34 1.48z"/><path d="M98.4 123.02c.16 0 .31.02.47.04.38.07.76.24 1.04.51.05.06.1.13.13.2-.03.04-.05.1-.13 0-.18-.05-.34-.15-.53-.2a2.2 2.2 0 00-.3-.09l-.33-.07-.36-.02v-.37h.01z"/><path d="M101.74 122.61c.03 0 .08 0 .1.03.25.06.5.15.75.17.35.03.72.01 1.05-.13.1-.03.19-.1.27-.14.06.03-.04.06-.05.09-.28.23-.65.32-1 .37-.3.06-.63.04-.94 0l-.16-.01c-.04.01-.01-.04-.02-.06v-.32z"/><path d="M99.54 125.95c-.05-.45.1-.92.4-1.24.2-.22.46-.37.72-.5.33-.17.74-.2 1.08-.05.67.2 1.4.67 1.63 1.39-.12.06-.13-.2-.24-.21-.31-.33-.7-.58-1.11-.77-.34-.12-.73-.24-1.08-.08-.25.1-.46.26-.66.43-.26.26-.41.62-.36.99l-.38.04z"/><path d="M95.83 122.75l.36.01c.13.01.25.05.37.09.11.03.22.07.32.13.1.07.2.15.24.28 0 .02-.03.04-.05.02l-.29-.07c-.1-.02-.2-.05-.31-.05l-.63-.04v-.37h-.01z"/><path d="M101.53 124.09a2.96 2.96 0 011.9-.2c.48.11.97.28 1.47.22.43-.05.8-.28 1.16-.49.08.08-.13.14-.14.2-.36.38-.87.62-1.39.58-.57-.02-1.12-.2-1.69-.21-.21 0-.44-.03-.65.07a.64.64 0 01-.2.03l-.32.15-.14-.35z"/><path d="M104.74 121.1c.1-.1.2-.21.28-.33l.47-.7.2-.3c.05-.07.14-.06.19 0 .07.1-.08.26-.08.35a6.8 6.8 0 01-.8 1.46c-.08.1-.16.18-.26.24-.04-.05.07-.12.09-.18.1-.16.17-.35.26-.52.09-.16.16-.34.24-.51l.2-.47.13-.32.22.1c-.14.21-.3.4-.46.6-.07.1-.17.2-.26.3-.05.03-.08.08-.14.1-.09.07-.18.13-.28.17v.01z"/><path d="M136.07 117.17c-.24-.32-.2-.84.1-1.1.05 0 0 .09.02.12 0 .16-.02.32-.03.47l-.04.26-.05.25z"/><path d="M135.44 115.76c-.1-.2-.01-.44.1-.61a.8.8 0 01.38-.3c.04.04.08.07-.02.13-.1.25-.25.46-.4.68l-.06.1z"/><path d="M135.06 114.35c-.05-.2.07-.4.22-.53l.21-.1c.06-.02.14-.05.2-.02.02.01.03.03 0 .04-.08.13-.2.23-.31.34l-.23.2-.09.07z"/><path d="M125.3 124.34a2.07 2.07 0 011.57.62c.05.06.13.24-.06.12-.2-.06-.38-.17-.58-.22-.15-.06-.32-.07-.48-.1-.15-.04-.3-.05-.46-.06v-.36z"/><path d="M128.64 123.91c.03 0 .08 0 .1.03.25.06.5.15.75.17.35.03.72.01 1.05-.13.1-.03.19-.1.27-.14.06.03-.04.06-.05.09-.28.23-.65.32-1 .37-.3.06-.63.04-.94 0l-.16-.01c-.04.01-.01-.04-.02-.06v-.32z"/><path d="M122.73 124.05l.36.01c.13.01.25.05.37.09.11.03.22.07.32.13.1.07.2.15.24.28 0 .02-.03.04-.05.02l-.29-.07c-.1-.02-.2-.05-.31-.05l-.63-.04v-.37h-.01z"/><path d="M132.14 122.52c.1-.2.19-.4.26-.62l.08-.25c.07-.17.1-.35.16-.52.03-.07.03-.16.1-.2.07-.06.16 0 .18.08a7.03 7.03 0 01-.39 1.82c-.05.13-.12.27-.21.38-.08-.04-.18-.07.02-.24.12-.48.17-.97.25-1.45l.07-.51.23.05c-.03.15-.1.29-.16.42-.06.16-.14.3-.22.46l-.14.25a.7.7 0 01-.23.33z"/><path d="M126.43 127.25c-.05-.48.12-1 .48-1.32.27-.23.57-.43.9-.53.27-.06.57-.06.82.06.65.2 1.4.67 1.63 1.39-.12.06-.13-.2-.24-.21a3.09 3.09 0 00-.83-.62c-.2-.13-.43-.23-.67-.26-.4-.14-.8.03-1.12.27-.12.1-.24.19-.34.3-.12.17-.2.36-.25.56-.02.1.02.26-.03.32l-.35.04z"/><path d="M128.4 125.39a2.94 2.94 0 011.79-.21c.47.08.93.25 1.42.24.49 0 .91-.26 1.32-.5.06.08-.11.17-.16.24-.36.34-.84.57-1.35.54-.57-.02-1.12-.2-1.7-.21-.21 0-.44-.03-.64.06-.07.02-.14.04-.2.04l-.32.13-.16-.33z"/><path d="M70.06 124.34c.2 0 .4 0 .6.06.34.09.68.24.93.5.05.06.09.12.12.19-.04.03-.08.07-.14 0-.25-.09-.48-.23-.74-.28l-.49-.09-.3-.02v-.36h.02z"/><path d="M73.4 123.91c.04 0 .08 0 .11.03.29.08.58.17.88.18.31 0 .63-.02.92-.14l.28-.13c.03.02.1.04-.07.08a2.7 2.7 0 01-1.89.38l-.2-.02c-.04 0-.01-.05-.02-.07l-.01-.31z"/><path d="M71.2 127.25c-.08-.58.22-1.18.7-1.5.4-.3.94-.5 1.44-.32l.45.17c.5.23 1 .6 1.19 1.14.05.22-.17-.13-.26-.17a2.89 2.89 0 00-1.74-.86c-.45 0-.83.31-1.14.61-.14.2-.24.43-.26.67.08.3-.18.22-.38.26z"/><path d="M67.48 124.05l.36.01c.13.01.25.05.37.09.11.03.22.07.32.13.1.07.2.15.24.28 0 .02-.03.04-.05.02l-.29-.07c-.1-.02-.2-.05-.31-.05l-.64-.04v-.37z"/><path d="M73.18 125.39c.7-.34 1.52-.33 2.25-.11.51.13 1.08.23 1.58 0 .25-.1.47-.23.7-.36-.1.25-.35.39-.55.54-.44.27-.97.29-1.46.19-.59-.1-1.2-.23-1.79-.13-.2.05-.39.17-.6.16l-.13-.29z"/><path d="M76.4 122.4c.38-.4.66-.88.95-1.34.2-.15.28.19.14.3-.28.6-.53 1.25-1.03 1.7-.11.02.14-.26.16-.36.25-.52.5-1.05.71-1.58.19.02.23.2.07.3-.29.37-.57.78-1 .98z"/><path d="M101.52 127.31c-.48.08-.95.25-1.34.54l-.3.27-.3.31-.37.41c-.04-.04-.1-.08.02-.16a2.6 2.6 0 011.02-1.18c.18-.1.39-.16.6-.2.21-.04.45-.04.67.02z"/><path d="M98.9 126.31c-.41.36-.84.7-1.2 1.12l-.61.71c-.15-.08.08-.17.07-.28.33-.73 1-1.28 1.74-1.55z"/><path d="M96.7 125.56l-.6.6c-.14.19-.32.35-.46.54l-.38.44c-.16.01.03-.13.02-.2.21-.55.65-1 1.16-1.28.09-.04.17-.08.26-.1z"/><path d="M128.42 128.61c-.55.1-1.1.3-1.51.7-.2.14-.34.35-.52.52l-.28.31c-.13-.1.1-.19.1-.31.24-.47.61-.89 1.1-1.1.3-.12.6-.18.92-.15.06 0 .15.04.19.03z"/><path d="M125.8 127.61c-.5.42-.98.85-1.4 1.34l-.41.49c.12-.6.57-1.09 1.06-1.44.23-.16.49-.29.75-.39z"/><path d="M123.6 126.86c-.45.45-.88.91-1.28 1.4-.06.1-.28.3-.16.05.23-.66.77-1.23 1.44-1.45z"/><path d="M73.18 128.61c-.49.1-.97.26-1.36.57-.2.16-.38.32-.53.51l-.41.45c-.16-.1.08-.18.1-.3.23-.43.55-.83.98-1.07.27-.13.57-.2.87-.2.11 0 .26.03.35.04z"/><path d="M70.57 127.61c-.36.31-.73.61-1.06.96-.27.27-.52.56-.75.87-.17-.06.07-.17.06-.28.34-.73 1-1.28 1.75-1.55z"/><path d="M68.36 126.86c-.25.26-.52.52-.76.8-.19.18-.34.4-.52.6-.06.06-.2.28-.23.12.12-.1.12-.27.2-.4.25-.44.64-.8 1.1-1.04.06-.04.14-.06.21-.08z"/><path d="M135.1 71.61c-.99.84-2.37.91-3.57.58-1.37-.33-2.65-1-4.08-1.1-1.46-.2-2.95 0-4.35.45-.58.11-1.27.42-1.81.18 1.25.04 2.32-.75 3.55-.86 1.83-.3 3.74-.1 5.46.6 1.32.43 2.88.9 4.17.13.29-.21.41-.33.63.02z"/><path d="M104.57 81.45c3.74.5 7.52.11 11.27-.06l3.72-.24c-.09.1-.35.05-.5.1-3.92.47-7.86.78-11.8.6-.9-.06-1.8-.2-2.69-.4z"/><path d="M100.44 79.51a3.44 3.44 0 01-.69-1.49c-.05-.28-.1-.56-.12-.85-.01-.06.09-.02.13-.03h.25a4.22 4.22 0 00.45 2.33l-.01.02z"/><path d="M123.38 81.36c1.97-.3 3.93-.62 5.9-.94 1.98-.29 3.99-.34 5.98-.15-2.08.04-4.17.09-6.23.44a58.44 58.44 0 01-5.65.65z"/><path d="M77.76 92.04c.02.28.01.56-.08.82-.28.75-1 1.21-1.33 1.93-.23.44-.34.93-.44 1.42-.18-.07-.08-.4-.11-.58a2.9 2.9 0 01.91-1.97c.42-.44.89-.9 1-1.52.02-.03 0-.12.05-.1z"/><path d="M91.94 83.65a1.36 1.36 0 01-1-.64c-.01-.05-.08-.13-.05-.17.1-.03.06.1.13.13.18.18.43.31.7.32h.21v.36h.01z"/><path d="M91.87 80.89a1.2 1.2 0 01-.64-.05 1.01 1.01 0 01-.39-.24c.03-.06.1.01.14.01.14.05.3.07.44.05.06 0 .1-.04.17-.05.05-.01.1-.05.15-.07l.13.35z"/><path d="M73.26 80.54l.13.06c.08.03.16.06.24.07.16.01.34-.01.46-.13.08.03-.05.1-.06.13a.87.87 0 01-.71.23c-.07 0-.13-.02-.19-.03l.13-.33z"/><path d="M78.53 71.77c.6-.02.98-.63 1.58-.66.44-.05.87.05 1.31.05.3-.03.53-.28.83-.33.3-.1.64-.02.91.16.27.2.62.15.94.12.42-.03.87-.08 1.26.13.3.14.52.38.84.45.14.04.4.12.1.11-.51-.02-.9-.47-1.42-.46-.44-.04-.85.1-1.28.11-.45.03-.77-.44-1.22-.34-.36.06-.64.39-1.02.33-.5-.01-1-.17-1.5-.07-.44.14-.83.5-1.33.4z"/><path d="M77.28 72.04l-.46-.43c-.2-.15-.4-.3-.62-.4-.07-.03-.15-.05-.22-.09-.2-.06-.4-.1-.62-.11l-.22-.01c-.02-.06.06-.06.1-.08.2-.08.43-.1.65-.06.44.07.83.33 1.1.68.12.15.23.31.29.5z"/><path d="M74.5 71.99c.04.11.03.23.05.35.03.16.03.33.06.5l.08.6.1.46c-.03.02-.07.07-.09-.04-.32-.39-.35-.93-.3-1.4 0-.09 0-.17.02-.25.03-.08.05-.15.09-.22h-.01z"/><path d="M74.42 73.84a.2.2 0 01.07.12l.06.14.04.22c.02.1.03.21.02.32-.05 0-.1.01-.09-.1a2.03 2.03 0 00-.21-.32c-.04-.04-.1-.07-.13-.11-.02 0 0 0 0-.02l.24-.25z"/><path d="M73.77 77.44a.5.5 0 00.17 0c.12 0 .23-.09.33-.15l.06-.05.03-.03.03.03c-.05.12-.11.25-.2.35-.1.11-.25.2-.4.2v-.35h-.02z"/><path d="M76.32 72.72l-.27-.1c-.08-.03-.15-.03-.23-.05a.75.75 0 01-.45-.15.31.31 0 01-.09-.13l.03-.03c.09.04.18.04.27.04l.27.01c.1.01.22.05.31.11.07.09.15.18.16.3z"/><path d="M80.97 69.67c.14-.06.3-.03.43.05.05.03.08.07.11.12l.1.15c.02.08.03.18 0 .26h-.03l-.29-.29c-.05-.04-.08-.1-.13-.12l-.2-.17h.01z"/><path d="M79.43 69.94a.4.4 0 01.3 0c.1.02.2.09.27.17.07.06.12.15.18.23.04.06.08.12.14.17l-.01.04c-.11.02-.22-.03-.3-.1-.14-.07-.2-.21-.32-.3l-.25-.21h-.01z"/><path d="M77.92 70.47l.11-.05c.06 0 .1 0 .16.03.03.01.08.02.1.05.12.09.2.2.27.33.06.1.13.2.23.25.06.03-.02.08-.06.07l-.13-.01c-.15-.06-.25-.2-.33-.32l-.14-.2a.36.36 0 00-.21-.15z"/><path d="M76.67 70.57c.12.14.25.27.36.42.11.14.23.3.3.45-.02 0-.03.03-.05.01l-.17-.16c-.22-.15-.43-.3-.67-.42l.23-.3z"/><path d="M87.73 72.04c.08-.29.27-.53.48-.74a1.56 1.56 0 011.67-.33c0 .06-.07.04-.1.04-.3.01-.61.03-.9.15a2.85 2.85 0 00-1.15.88z"/><path d="M90.52 71.99c.06.13.08.28.1.42.02.19 0 .38 0 .57-.02.31-.1.64-.3.9-.03.06-.13.05-.09-.03.06-.25.1-.5.14-.76.04-.21.05-.43.08-.64.02-.15.02-.31.07-.46z"/><path d="M90.84 74.11a.5.5 0 00-.13.11c-.07.1-.14.19-.19.29l-.08.14c-.05 0-.02-.07-.03-.11a1.41 1.41 0 01.1-.58.34.34 0 01.07-.12c.05.03.09.1.13.13l.13.14z"/><path d="M91.24 77.81a.72.72 0 01-.53-.38.72.72 0 01-.07-.18c.02-.02.03-.04.05 0 .09.08.2.14.33.19l.15.02.09-.01v.36h-.02z"/><path d="M88.7 72.72c0-.15.13-.26.25-.33.12-.05.26-.06.39-.07.12 0 .25 0 .37-.03.04.08-.09.16-.14.21-.12.06-.26.07-.4.1-.15.02-.3.04-.44.1l-.02.01z"/><path d="M84.06 69.69l-.32.27-.15.16-.13.14c-.03-.01-.08 0-.05-.07-.01-.15.04-.33.17-.42a.4.4 0 01.48-.08z"/><path d="M85.58 69.99c-.07.06-.15.1-.21.16-.2.16-.33.43-.6.44h-.06l-.02-.04c.09-.06.14-.16.2-.24l.13-.17a.52.52 0 01.56-.15z"/><path d="M87.1 70.49c-.08.01-.16.04-.2.11a.82.82 0 00-.1.16.99.99 0 01-.25.3c-.06.04-.12.09-.18.08h-.08l-.06-.03v-.04a.3.3 0 00.18-.15l.19-.29a.55.55 0 01.23-.2l.06-.01h.15l.05.07h.01z"/><path d="M88.57 70.87c-.27.15-.55.29-.77.5-.04.02-.05.1-.1.07.02-.1.08-.2.14-.28l.16-.22c.1-.14.23-.26.36-.38l.21.31z"/><path d="M82.53 69.85h-.04l-.16-.51h.38l-.18.5v.01z"/><path d="M74.72 83.92c.09.37.06.78-.12 1.12-.22.45-.63.78-.76 1.27-.05.17-.08.35-.11.53-.12.01-.1-.16-.13-.24-.09-.43.06-.87.32-1.2.19-.27.4-.52.52-.8.12-.22.15-.46.26-.67l.02-.01z"/><path d="M73.08 83.71c.33.06.67-.08.9-.31l.13-.14c.06.02-.03.1-.03.15a1.23 1.23 0 01-1.01.65v-.35h.01z"/><path d="M73.6 92.56c-.4.28-.75.62-1 1.03-.23.38-.46.75-.78 1.06-.32.34-.73.57-1.08.87-.15.12-.23.37-.36.46-.05-.07.03-.21.05-.3.07-.21.19-.39.34-.54.27-.29.59-.53.85-.83.38-.39.62-.9 1.03-1.26.27-.24.6-.42.95-.49z"/><path d="M74.26 90.51a.89.89 0 01-.65.7c-.56.17-1.18.28-1.65.67a4.8 4.8 0 00-1.43 1.83c-.03.2-.19.28-.34.16-.25-.03 0-.25.04-.38.38-.69.93-1.28 1.55-1.75.53-.36 1.16-.48 1.77-.61.3-.07.6-.27.65-.59l.02-.02z"/><path d="M73.58 89.26c0 .43-.41.68-.75.85a4.2 4.2 0 00-1.48 1.3c-.22.27-.45.54-.63.84-.05.1-.3.45-.31.21.18-.17.2-.44.33-.65.3-.59.68-1.15 1.2-1.56.38-.29.85-.4 1.28-.59.16-.09.3-.23.36-.4z"/><path d="M72.1 95.25c-.03.44-.26.84-.55 1.17-.2.25-.46.44-.66.7-.12.06-.05-.18-.04-.25.1-.36.37-.64.6-.92.22-.23.4-.48.64-.7h.01z"/><path d="M75.8 91.15c.1.58-.29 1.09-.6 1.53-.45.57-.92 1.14-1.18 1.83-.21.52-.37 1.06-.6 1.56-.07-.32.04-.67.09-.99.16-.8.5-1.59 1.05-2.2.41-.5.96-.91 1.17-1.54.02-.06.02-.14.07-.19z"/><path d="M72.54 96.15c.13.52-.09 1.05-.32 1.5-.22.45-.47.9-.51 1.4-.04.13.04.35-.07.4-.1-.08-.11-.24-.15-.37-.1-.53.1-1.06.36-1.5.26-.46.55-.9.66-1.42z"/><path d="M77.28 96.44c.06-.28.17-.55.28-.82.23-.51.58-1 1.05-1.32.1.06-.02.12-.08.12a3.24 3.24 0 00-.81 1.6c-.04.16-.07.31-.09.47l-.35-.05z"/><path d="M83.37 97.67c.28-.67.82-1.17 1.33-1.67.44-.46.92-.9 1.15-1.5.1-.14.07-.4.18-.48a3.04 3.04 0 01-.68 1.52c-.45.59-1.01 1.1-1.4 1.74-.1.15-.16.37-.25.5l-.33-.11z"/><path d="M83.27 98.07c.01-.48.17-.95.41-1.36l.24-.43c.08-.18.14-.37.17-.56.07-.02.03.07.04.11-.03.38-.19.74-.34 1.08-.13.36-.16.77-.16 1.14l-.36.02z"/><path d="M85.62 85.61c.04.34-.01.69-.14 1.01a1.9 1.9 0 01-.61.88c-.29.21-.63.34-.95.45-.33.1-.66.19-1 .24l-.05-.32a6.54 6.54 0 001.82-.6c.25-.16.44-.43.57-.72.12-.3.2-.61.3-.94z"/><path d="M84.07 88.25c-.22.09-.43.16-.64.27a2.63 2.63 0 01-1.55.14c-.23-.03-.44-.17-.65-.27l-.34-.13c.03-.12.2.02.28-.02.3.04.57.2.87.2.32.04.64.04.96 0 .33-.04.64-.2.98-.2l.09.01z"/><path d="M86.1 82.75l-.1.84c-.05.25-.07.5-.16.75-.02-.01-.07-.01-.05-.04.07-.37 0-.74-.03-1.1l-.03-.34-.01-.14.38.03z"/><path d="M75.98 81.5c-.13-.16-.21-.36-.39-.48-.22-.17-.45-.42-.49-.69.02-.03.04-.02.07 0l.42.28c.14.12.3.23.36.4.04.12.07.24.05.37l-.02.12z"/><path d="M75.5 82.54c.28.24.62.44.83.75.13.19.2.42.16.65-.05.02-.07-.03-.1-.06-.08-.12-.15-.26-.26-.36-.16-.18-.34-.35-.47-.56-.08-.12-.17-.3-.16-.42z"/><path d="M76.16 84.9c.2.06.3.25.38.42.1.27.15.56.24.83 0 .08.11.24-.02.26-.05-.08-.13-.13-.19-.2-.2-.25-.26-.58-.3-.89l-.11-.43v.01z"/><path d="M78.06 82.2c.28.47.43 1 .5 1.54.07.32.08.64.08.97v.54c-.09.04-.07-.1-.1-.14-.08-.36-.12-.72-.18-1.08-.05-.36-.13-.71-.19-1.07-.01-.26-.08-.5-.11-.76z"/><path d="M79.4 85.61c.11.36.2.74.37 1.08.14.28.37.53.65.67.43.25.93.35 1.4.46.08.04.31-.01.26.12l-.04.25a4.58 4.58 0 01-2.12-.85 2.2 2.2 0 01-.57-1.72l.05-.01z"/><path d="M79.3 87.14c0 .66.63 1.09.71 1.72.3.12.37-.34.36-.4.35.12.6.45.7.8.1-.1.25-.78.44-.47 0 .3.17.53.35.76-.05-.27.25-.67.55-.59.26.2.7.3.72.66-.14.11.23-.3.24-.44.12-.18-.02-.75.28-.41.14.14.27.75.36.25.16-.3.44-.54.77-.63-.21.12-.12.55.18.5.08-.62.67-1.04.7-1.67.12.39-.2.75-.35 1.1-.18.26-.1.94-.6.66-.16 0-.34-.51-.17-.33-.33.15-.27.63-.58.8-.27.03-.59-.53-.3-.57-.02.36-.2.77-.53.96-.31.03-.16-.56-.53-.52-.33-.35-.45.11-.57.35-.36.18-.64-.41-.67-.73.03-.29.18.25-.03.32-.27.42-.53-.06-.57-.35-.1-.03-.3-.42-.22-.27-.06.35-.7.53-.66.05-.1-.51-.5-.91-.6-1.42l.02-.13z"/><path d="M79.26 82.72l-.1 1.12c0 .16 0 .32.03.48-.05.02-.12.07-.09-.1-.06-.21-.08-.44-.12-.66-.01-.27-.08-.58-.1-.82l.38-.02z"/><path d="M80.18 79.07c-.23.22-.18.62.02.84.17.24.5.5.8.3.33-.26.68.4.51.45.3.16.6.37.85.61.11.15.4.4.26.58-.16.02-.44.02-.26-.22.22-.4.61-.69 1-.93.13-.1.2-.05.06.03-.08-.3.29-.7.58-.49.3.18.6-.14.77-.36.24-.22.13-.6.04-.8.25.12.26.48.21.72-.16.38-.48.77-.93.77-.18-.1-.46-.11-.32.18-.16.33-.62.38-.83.7-.2.08-.2.44-.44.39-.2.04-.28-.06-.37-.22a2.3 2.3 0 00-.7-.58c-.26-.09-.24-.34-.3-.55-.37.19-.8.03-1.02-.31-.23-.25-.33-.65-.12-.94.05-.07.1-.14.19-.17z"/><path d="M81.76 87.36c.08-.02.17 0 .25 0l.5.03c.14 0 .29-.04.44-.05.05-.02.1-.03.16-.02.04 0 .1 0 .12.03 0 .02-.02.03-.04.04l-.13.09c-.15.06-.3.13-.45.15a.86.86 0 01-.5-.09c-.12-.05-.25-.1-.35-.18z"/><path d="M82.5 85.84c-.07.01-.05-.07-.05-.12l-.14-2.41h.37l-.19 2.53z"/><path d="M82.83 93.2c-.71-.13-1.14-.93-1.12-1.6 0-.66-.67-.75-.85-.11-.3.63-1.97 1.24-1.57.02.28-.6-.5-2.01-1.11-1.4-.12.52-.39 1.43-.95.67-.54-.48-.38-1.66-.64-1.96-.29.33-1.89.49-1.31-.1.6.15 1.22-.19 1.64-.64.57.37-.14 1.47.38 2.08.41 1.05.39-.66 1.1-.75.53.01 1.12.93 1.26 1.52-.06.5-.14 1.27.5.68.52-.52 1.02-1.65 1.71-.6.28.6.1 1.47.82 1.8.13-.67.67-1.25.95-1.9.26-.97.71.6 1.17.74.97.63.07-1.17.82-1.54.38-.42.82-1.15 1.3-.37.28.29.4 1.25.69.45.5-.6-.12-1.7.34-2.1.5.52 1.2.68 1.85.75-.04.79-1.53-.2-1.6.1.07.74-.29 2.25-1.18 2.09-.08-.5-.44-1.7-1-.81-.61.46-.4 1.22-.33 1.86-.62.49-1.36-.25-1.75-.73-.43.27-.8 1.02-.84 1.62.04.16-.15.24-.28.23z"/><path d="M89.7 88.71c-.05.04-.02.21-.08.08-.23-.34-.43-.7-.49-1.1-.06-.37.22-.68.2-1.04-.02-.07-.02-.3.03-.12.02.14.08.29.03.44-.04.23-.1.46-.04.7.1.4.4.7.65 1.02.1.11.01.31-.14.32-.13 0-.28-.16-.17-.27v-.02l.01-.01z"/><path d="M75.68 86.49c-.04.26.01.52.13.76.06.2.06.41.01.61a1.9 1.9 0 01-.32.74c-.05.08-.1.18-.17.25.01-.05-.07-.17 0-.07.07.15-.13.34-.27.24-.11-.06-.13-.22-.05-.32.17-.2.34-.39.47-.6.11-.2.21-.43.2-.67 0-.22-.12-.43-.09-.65.02-.09.02-.18.06-.26l.03-.03z"/><path d="M81.12 90l.1.17c.04.1.09.2.1.32l-.01.2c-.02.03-.02.09-.05.1l-.32-.19a.28.28 0 00.1-.15c.01-.05.04-.1.03-.16v-.2V90l.05-.01z"/><path d="M83.68 90.69l.1-.18.09-.12c.02-.01.04-.05.07-.05.02 0 .04 0 .03.02l.02.19.06.17c0 .01.02.03 0 .02l-.37-.05z"/><path d="M78.5 89.34c.08-.05.18-.1.22-.2a.47.47 0 00.02-.22c-.02-.04-.1-.18 0-.12.1.11.18.24.18.4 0 .16-.08.3-.2.42-.02.04-.04-.03-.06-.05l-.16-.23z"/><path d="M76.9 88.1c.1-.02.12-.13.17-.2.03-.12.02-.24.02-.36.08-.04.1.14.14.2.05.14.08.3.03.44-.03.08-.1.3-.18.15l-.18-.23z"/><path d="M83.07 78.09c0 .06-.08.07-.13.08-.12.03-.24.07-.36.07-.19 0-.37-.03-.54-.1-.04-.01-.12-.02-.13-.07.06-.03.13-.02.2-.02.27 0 .55 0 .83.02.04.02.08.02.13.02z"/><path d="M82.62 74.64c-.06-.08-.07-.18-.1-.27-.03-.09-.06-.17-.06-.27l-.02-.21h.13l-.05.4-.05.19c-.03.05-.04.12-.08.17l.05-.6.03-.2c.02-.03.08-.01.1.03.02.04.01.08.02.13l.02.3v.16c-.02.05 0 .1 0 .16l.01.01z"/><path d="M80.28 77.67c-.06-.09-.09-.2-.12-.3a.58.58 0 01-.02-.16c-.02-.05.03-.12.08-.06.07.05.09.14.13.2.02.06 0 .12 0 .18a.27.27 0 01-.07.14z"/><path d="M82.22 77.05c.07-.06.16-.06.24-.08.1 0 .2-.01.3.04.05.05-.02.1-.07.09a.36.36 0 01-.34.02c-.05-.02-.1-.03-.13-.07z"/><path d="M82.1 77.54c.13-.08.28-.02.42-.04.11.01.23-.06.33 0 .08.08-.12.11-.17.16a.53.53 0 01-.52-.1.17.17 0 00-.06-.02z"/><path d="M81.74 78.61c.42-.04.85 0 1.27-.04.12-.03.33.04.1.09-.39.13-.82.15-1.2-.01-.06 0-.11-.04-.17-.04z"/><path d="M79.76 77.8c.08.13.2.27.15.44 0 .08-.08.22-.12.07-.06-.14-.15-.3-.07-.46l.04-.05z"/><path d="M79.27 78.45c.14.1.15.31.08.46-.11.22-.16-.14-.13-.24.01-.07 0-.15.05-.22z"/><path d="M75.98 75.86c-.82 1.04-.61 2.58.11 3.62-1.1-.67-1.27-2.45-.43-3.4.1-.08.2-.16.32-.22z"/><path d="M81.17 73.8c-.4-.7-2.15-.76-2.12-1.24.73.37 1.86.27 2.12 1.24z"/><path d="M80.66 72.51c.39-.24 1.15.3 1.01.52-.32-.21-.68-.34-1.01-.52z"/><path d="M89 81.5c-.08-.28.05-.57.26-.76.09-.09.2-.15.29-.24.1-.06.2-.14.31-.19.07.05-.01.14-.02.2-.1.2-.25.35-.4.48-.11.09-.21.19-.28.3l-.15.21H89z"/><path d="M89.5 82.54c-.06.37-.34.64-.58.9-.14.16-.28.3-.37.5-.14.03-.05-.21-.05-.3.1-.39.41-.67.72-.9.08-.07.22-.15.28-.2z"/><path d="M88.84 84.91c-.15.4-.12.89-.4 1.25-.03.11-.35.37-.25.1.1-.34.16-.7.31-1.03.07-.14.2-.27.34-.32z"/><path d="M84.73 79.51c-.31.61-1.11-.1-1.53.52-.74.36-1.49-.1-2.17-.3-.32.38-1.2-.38-.44-.07.59-.4 1.21.16 1.86.2.63.12 1.21-.68 1.79-.18.18.05.37-.04.49-.17z"/><path d="M86.26 89.64a.59.59 0 01-.14-.2.58.58 0 01-.05-.38c.02-.08.08-.14.12-.2.03-.03.07-.11.1-.06-.01.06-.05.12-.06.2-.01.08.03.16.08.23a.3.3 0 00.14.1c.04 0 0 .03 0 .05l-.19.26z"/><path d="M87.86 88.4c-.18-.19-.18-.48-.08-.7.03-.06.07-.16.13-.17.02.08-.01.17 0 .26 0 .1.05.22.14.29.08.02-.04.1-.06.15l-.13.17z"/><path d="M87.18 74.61c-.58.08-1 .5-1.41.89-.45.33-1.12.3-1.57-.01-.27-.32.36.02.53-.06.4.02.77-.15 1.06-.43.37-.32.9-.57 1.39-.39z"/><path d="M84.47 76.6a.66.66 0 01.16-.31l.25-.22c.04-.02.07-.07.09-.12l.26.15c-.08.1-.2.17-.32.21l-.18.07a.57.57 0 00-.23.22h-.03z"/><path d="M87.78 75.55a.7.7 0 00-.24-.08l-.21-.02.1-.3.21.16c.07.06.13.12.17.2l-.03.04z"/><path d="M84.7 77.67a.37.37 0 01-.04-.36c.02-.05.04-.1.07-.13.03-.04.06-.07.1-.08l.03.01c0 .1 0 .2-.03.3l-.06.16a.5.5 0 01-.06.1h-.01z"/><path d="M85.23 77.8c.04.04.05.1.05.15l-.01.16-.1.28h-.03c-.03 0-.04-.03-.05-.05a.39.39 0 01-.03-.1v-.17l.07-.13.1-.14z"/><path d="M85.72 78.45c.02.05.04.1.04.16l-.01.3-.02.08c-.04 0-.06-.04-.08-.06-.02-.02-.04-.05-.04-.08l-.02-.13.03-.15a.47.47 0 01.1-.12z"/><path fill="#231f20" d="M86.28 75.45c-.14-.05-.25-.01-.32.1-.07.17.03.16 0 .41-.03.16-.1.38.1.43 0 0 .2.1.37-.27.13-.23.03-.62-.15-.67z"/><path d="M87.5 73.82c-.22.03-.44.02-.66.08-.32.04-.6.2-.88.36l-.29.16c-.12.06-.24.13-.37.14-.06 0-.14.03-.12-.05.2-.1.33-.26.5-.38a1.65 1.65 0 011.37-.46c.16.02.3.09.44.15h.01z"/><path d="M89.02 75.86c.49.25.73.8.78 1.32.12.81-.13 1.71-.77 2.25-.08.14-.27-.02-.1-.07.12-.1.18-.26.25-.4.2-.43.3-.9.33-1.39 0-.3 0-.59-.08-.87-.08-.3-.2-.6-.41-.84z"/><path d="M83.82 73.79c.11-.36.38-.67.74-.8.42-.17.89-.19 1.29-.41.06-.01.22-.19.2-.06a1.7 1.7 0 01-.9.54c-.33.1-.68.16-.95.37-.14.11-.26.24-.38.36z"/><path d="M84.34 72.51l-.58.28-.36.2c-.03.07-.25.13-.14.02.14-.35.52-.54.88-.54.07 0 .13.02.2.04z"/><path d="M85.34 76.74c.46.22 1.09.22 1.44-.2.14-.05.3-.37.36-.29-.18.45-.63.87-1.15.8a1.34 1.34 0 01-.65-.31z"/><path d="M77.8 74.6c.4-.1.83-.02 1.16.22.2.14.38.3.57.44.22.15.49.14.74.16.2 0 .42-.03.62-.1.08.07-.07.12-.11.17-.25.2-.58.24-.89.24-.2-.01-.4-.04-.57-.17-.37-.25-.64-.65-1.08-.81-.13-.08-.32-.08-.44-.15z"/><path d="M80.5 76.61c-.08-.15-.24-.23-.4-.28-.07-.02-.14-.05-.2-.1a.4.4 0 01-.13-.12l.27-.15c.03.05.05.1.1.15.09.07.18.13.25.22.07.08.12.18.15.28h-.04z"/><path d="M77.18 75.54c.05-.1.12-.17.2-.24.05-.05.12-.09.18-.13l.1.3c-.08 0-.15.02-.23.03-.08 0-.15.04-.22.07l-.03-.03z"/><path fill="#231f20" d="M78.7 75.45c.14-.05.26-.01.33.1.06.17-.04.16 0 .41.03.16.1.38-.11.43 0 0-.19.1-.36-.27-.13-.23-.03-.62.15-.67z"/><path d="M77.5 73.82a1.52 1.52 0 011.52.07c.24.13.43.34.64.5.04.06.27.12.14.16a.86.86 0 01-.45-.13l-.67-.38c-.29-.13-.6-.2-.92-.2l-.26-.02z"/><path d="M79.64 76.74c-.2.22-.51.3-.8.32-.26 0-.5-.14-.68-.3a1.38 1.38 0 01-.35-.54c.02-.05.07.04.1.06.14.15.29.29.45.41.1.07.2.14.31.16a.5.5 0 00.27.04c.24-.01.48-.06.7-.15z"/><path d="M87.04 82.2c-.08.38-.16.77-.22 1.16l-.25 1.51c-.03.13-.05.27-.1.4-.05 0-.04-.05-.04-.09 0-.28-.02-.55 0-.83.01-.24.03-.48.07-.71.12-.5.28-1 .54-1.45z"/><path d="M88.6 80.77c-.29.89-.47 1.8-.55 2.73-.1.85-.17 1.71-.52 2.5-.11.27-.3.5-.48.74-.18.2-.37.4-.6.55-.14.02.15-.17.17-.23.53-.55.85-1.27.98-2.01.2-1.17.2-2.38.65-3.5.1-.26.2-.54.35-.78z"/><path d="M76.52 80.77c.6 1.14.75 2.43.88 3.7.1.81.3 1.65.82 2.3.1.19.42.4.44.54a3.1 3.1 0 01-.65-.59c-.43-.47-.6-1.12-.76-1.73-.17-.88-.2-1.78-.36-2.66a10.7 10.7 0 00-.38-1.56z"/><path d="M86.38 81.77c.18-.44.27-.9.3-1.38.02-.4-.12-.8-.26-1.14.08.04.15.18.2.27.12.23.2.48.23.73.08.55.03 1.1-.11 1.64l-.36-.12z"/><path d="M78.58 79.26c-.22.36-.27.8-.26 1.22.04.43.12.86.27 1.26l-.36.1c-.2-.86-.24-1.86.31-2.6l.04.02z"/><path d="M74 97.41c-.13.2-.22.43-.27.66-.07.4.08.84.37 1.12.05.04.08.1.13.11-.04 0-.02-.04 0-.06.01-.02.01-.08.04-.07l.35.1-.1.2a.34.34 0 01-.35.15c-.14-.03-.22-.16-.3-.26-.15-.21-.27-.44-.31-.7-.03-.25-.01-.51.1-.75.07-.2.18-.38.31-.54l.03.04z"/><path d="M80.42 106.86c0 .08-.04.17-.06.25l-.1.2c-.05.14-.11.28-.2.41h-.04a.55.55 0 01-.02-.37.57.57 0 01.07-.2c.08-.13.2-.25.35-.29z"/></g></g></svg>