<svg xmlns="http://www.w3.org/2000/svg" fill="#d7374a" stroke="#000" viewBox="50 50 200 200">
  <metadata source="http://wappenwiki.org/images/f/f9/Langres_Livro.svg" license="https://creativecommons.org/licenses/by-nc-sa/3.0"/>
  <g id="lionSejant" stroke-width=".45">
    <g>
      <g>
        <path class="secondary" d="M60.69 117.85s-.35.04-.58 1.3c-.17.87.1 2.34.44 2.34.2 0 .48-1.24 1.89-2-.04.08-.05.3-.07.28-.23 1.25-.08 2.7.26 2.7.2 0 .63-1.28 2.03-2.04.02-.02-.13.25-.18.6-.23 1.25-.03 2.49.33 2.49.2 0 .2-.96 1.46-1.67.79-.5 1.96-.21 1.96-.21l.38-2.42-3.68-.99-2.74-.87z"/>
        <path d="M62.75 118.56c-.03 0-.68-.44-1.17-.66-1.06-.2-1.13.22-1.16.22-.1 0-.41-.55-.25-1.04s.42-.91.98-.91c.77-.15 1.14-.55 1.71-.71.85-.25 1.8.38 2.43.33"/>
        <path class="secondary" stroke-linejoin="round" d="M111.58 117.85s-.34.04-.57 1.3c-.17.87.1 2.34.44 2.34.2 0 .48-1.24 1.88-2-.03.08-.05.3-.06.28-.23 1.25-.09 2.7.26 2.7.2 0 .63-1.28 2.03-2.04.02-.02-.13.25-.18.6-.23 1.25-.03 2.49.33 2.49.2 0 .2-.96 1.45-1.67.8-.5 1.97-.21 1.97-.21l.38-2.42-3.68-.99-2.74-.87z"/>
        <path d="M113.65 118.56c-.04 0-.68-.44-1.18-.66-1.05-.2-1.12.22-1.15.22-.1 0-.41-.55-.25-1.04s.41-.91.98-.91c.77-.15 1.13-.55 1.71-.71.84-.25 1.95.54 2.6.5"/>
        <path d="M126.64 116.75c-1.09.2-3.75.21-4.84-.02-1.05-.23-2.08-.23-3.15-.3-1.06-.06-2.48-1.24-3.78.09-.05.01-.58-.14-1.06.62-.31.45-.36 1.4-.16 1.46 4.03 1.65 19.64 5.53 24.07 1.61a7.61 7.61 0 0 1-.23-4.8m-61.25-1.54c.7 1.01.69 2.5.69 2.5-.16.05-1.02.18-1.19.21-1.09.2-3.75.22-4.84-.01-1.05-.24-2.08-.24-3.15-.3-1.06-.07-2.48-1.08-3.78.25-.05.01-.58-.14-1.06.62-.31.45-.36 1.4-.16 1.46 8.72 4.46 16.01.76 23.52 2.7 1.56-.52.95-1.81.6-3.17"/>
        <path fill="none" d="M115.58 120.43s.33-.7.82-.97m-3.07.03c0-.13.18-.94.47-1.12"/>
      </g>
      <g stroke="none" fill="#000">
        <path d="m112.06 115.94.07.01.16.04.51.15c.19.06.37.16.47.24.11.09.16.17.16.17s-.06-.07-.2-.1a1.92 1.92 0 0 0-.95-.05l-.17.02-.06.01zm2.83.31.08.02.1.01.13.04.16.03.17.05.35.15c.23.11.44.26.57.38l.23.21-.26-.15c-.16-.08-.4-.16-.63-.21l-.34-.05h-.4l-.1.02h-.08z"/>
      </g>
      <path fill="none" d="M116.42 119.46s-.1-.8.51-1.3c.61-.52 1.16-.69 1.64-.47"/>
      <g stroke="none" fill="#000">
        <path d="m118.39 117.4.16-.04.18-.07.27-.06c.1-.04.21-.04.33-.05l.36-.02.18.02.2.03c.13.03.26.05.38.1l.36.13.33.15.32.11.14.04.14.03h.24l.2-.03.17-.05-.17.06c-.05.04-.11.04-.2.05l-.26.04-.15-.02-.16-.02-.33-.08-.35-.1a2.64 2.64 0 0 0-.35-.08l-.34-.05h-.17l-.16.02c-.12.01-.22.01-.32.05l-.26.08-.22.08-.18.08-.15.07z"/>
        <path d="m118.63 117.46.1.03.1.05.15.07c.05.03.12.05.16.1l.19.11.34.28a2.87 2.87 0 0 1 .7.96s-.09-.13-.23-.28a2.63 2.63 0 0 0-.98-.66l-.18-.07-.15-.05-.13-.03-.12-.02-.1-.01z"/>
      </g>
      <g>
        <path fill="none" d="M64.68 120.43s.33-.7.83-.97m-3.08.03c0-.13.19-.94.47-1.12"/>
      </g>
      <g stroke="none" fill="#000">
        <path d="m61.16 115.94.07.01.16.04.52.15c.18.06.36.16.46.24.11.09.16.17.16.17s-.06-.07-.2-.1a1.92 1.92 0 0 0-.95-.05l-.17.02-.06.01zm2.81.31.08.02.1.01.13.04.17.03.16.05.35.15c.23.11.45.26.58.38l.23.21-.26-.15c-.17-.08-.4-.16-.63-.21l-.35-.05h-.4l-.1.02h-.08z"/>
      </g>
      <path fill="none" d="M65.52 119.46s-.1-.8.51-1.3c.61-.52 1.16-.69 1.64-.47"/>
      <g stroke="none" fill="#000">
        <path d="M76.93 116.12h.03-.01l.1-.02c.11-.03.31-.1.56-.1.11 0 .26 0 .4.04l.06.01.05.02.11.05.2.13.3.27.07.04.08.04.2.08.79.25c.26.06.51.1.73.13l.52.02.2-.02-.2.03a4.26 4.26 0 0 1-1.27-.01 7.6 7.6 0 0 1-.84-.17l-.21-.05-.12-.03-.12-.05c-.14-.08-.24-.18-.34-.25l-.15-.08-.05-.02-.05-.01h.02-.33c-.19.03-.33.08-.45.13l-.18.06h-.08zm-9.46 1.29.17-.05.18-.07.26-.06c.1-.04.22-.04.33-.05l.36-.02.19.02.2.03c.13.03.26.05.37.1l.37.13.33.15.31.11.15.04.13.03h.25l.2-.03.16-.05-.16.06c-.05.04-.12.04-.2.05l-.26.04-.15-.02-.17-.02-.33-.08-.35-.1a2.64 2.64 0 0 0-.34-.08l-.35-.05h-.16l-.17.02c-.11.01-.21.01-.31.05l-.27.08-.21.08-.18.08-.15.07z"/>
        <path d="m67.73 117.46.1.03.1.05.15.07c.05.03.12.05.17.1l.18.11.34.28a2.87 2.87 0 0 1 .7.96s-.08-.13-.23-.28a2.63 2.63 0 0 0-.98-.66l-.18-.07-.15-.05-.13-.03-.11-.02-.1-.01z"/>
      </g>
    </g>
    <g stroke="none" fill="#000">
      <path d="m62.17 119.09-.07.07-.21.18-.14.12-.15.14-.3.31-.28.33-.24.3-.23.32-.01-.02.03-.1.12-.26.2-.33.3-.34.16-.17.16-.15.17-.13.15-.1.24-.14z"/>
      <path d="m113.03 119.06-.08.07-.2.18-.14.12-.15.14-.3.31-.29.33-.24.3-.22.32-.02-.02.03-.1.12-.26.21-.33.29-.34.16-.17.17-.15.16-.13.15-.1.24-.14c.06-.03.1-.05.1-.03z"/>
    </g>
    <g>
      <path stroke-linejoin="round" d="M85.14 91.12v-4.18l-2.88-4.31-1.29 1.05c1.03 1.13 1.1 2.71 1.1 3.67s-.4 2.45-1 2.84z"/>
      <path class="tertiary" stroke-linejoin="round" d="M83.3 87.37s-2.3-1.92-4.44-1.92c-2.24 0-3.63 1.2-4.87 1.2-2.72 0-2.3-2.59-2.54-2.59-.17.07-.4.76-.4 1.2 0 1.56.98 2.98 2.93 2.98 1.96 0 2.97-1.22 4.85-1.22a6.49 6.49 0 0 1 4.23 1.73"/>
      <path stroke-linejoin="round" d="M85.63 75.15c.64-.4 1.59-.93 2.28-.66.6.21.9.74 1.07 1.3"/>
      <path fill="#f6f6f6" stroke-linejoin="round" d="M74.5 83.2c-.28 1.9.81 3.04 1.03 2.95.23-.12-.48-1.44.6-2.47M75 89.32c-.03-1.1.68-1.72.8-1.66.19.09-.39 1.08.44 1.92"/>
      <g>
        <path class="secondary" d="M62.34 119.84s-.35.03-.58 1.28c-.17.88.1 2.35.44 2.35.2 0 .48-1.24 1.89-2-.04.08-.05.3-.07.28-.23 1.26-.08 2.7.26 2.7.2 0 .63-1.28 2.03-2.04.02-.02-.13.25-.18.6-.23 1.25-.03 2.49.33 2.49.2 0 .2-.96 1.46-1.67.79-.5 1.96-.21 1.96-.21l.38-2.41-3.68-1-2.74-.87z"/>
        <path d="M64.4 120.55c-.03 0-.68-.45-1.17-.67-1.06-.2-1.13.22-1.16.22-.1 0-.41-.55-.25-1.04s.42-.9.98-.9c.77-.16 1.14-.55 1.72-.72.84-.25 1.8.38 2.42.33"/>
        <path class="secondary" stroke-linejoin="round" d="M113.23 119.84s-.34.03-.57 1.28c-.17.88.1 2.35.44 2.35.2 0 .48-1.24 1.88-2-.03.08-.05.3-.06.28-.23 1.26-.08 2.7.26 2.7.2 0 .63-1.28 2.03-2.04.02-.02-.13.25-.18.6-.23 1.25-.03 2.49.33 2.49.2 0 .2-.96 1.45-1.67.8-.5 1.97-.21 1.97-.21l.38-2.41-3.68-1-2.74-.87z"/>
        <path d="M115.3 120.55c-.04 0-.68-.45-1.17-.67-1.06-.2-1.13.22-1.16.22-.1 0-.41-.55-.25-1.04s.42-.9.98-.9c.77-.16 1.14-.55 1.71-.72.85-.25 1.95.55 2.6.5"/>
        <path d="M139.17 117.32c.88-3.07 1-2.8.74-5.28-.48-4.86-1.7-7.75-7.44-11.2-2.84-1.7-3.92-3.05-7-3.07-1.39-.66-3.6-1.52-4.7-1.48-1.87.04-3.21 1.55-4.37 1.9-2.42 0-6.2 1.68-10.9 1.2-3.46-.36-5.49-1.02-7.62-2.25-.51-1.4-2.62-3.56-2.62-3.56s.74.16 1.7-.07a2.64 2.64 0 0 0 1.55-1.16c.08-.13.13-.4-.04-.36-1.5.36-3.07-.6-3.64-1.55-.8-1.3-1.3-1.75-1.42-2.8 0 0 .84.47 1.81.39a2.46 2.46 0 0 0 1.69-.75c.1-.11.2-.36.01-.36-1.53.13-2.26-.58-2.82-1.52a4.5 4.5 0 0 1-.56-1.8c0-.25 0-.5.11-.74 1.95-.17 2.36-1.67 2.27-1.74-.32-.26-.68.35-1.67.35-1.27 0-1.27-1.44-1.49-2.24-.21-.53-.54-1.24-.86-1.46-.5-.31-3.36-2-3.36-2s-1.3-.57-2.33-.67c-1.04-.09-2.26-.48-3.14-.48-.87 0-1.9.13-2.2.34-.6.42-.84.73-1.4.83-.66.08-1.5.13-2.49.41-.6.19-1.2.48-1.9.66-.61.15-2.33.3-2.44.55-.07.15-.2 1.39.43 1.9 0 .05-.23.35-.23 1.4s.56 1.49 1.02 2c.48.56 1.52 1.2 2.57 1.2s2-.67 3.1-.67c.54 0 1.51-.02 2.52.97 1.02 1 1.05 2.3 1.05 3.16 0 .84-.36 2.28-.95 2.62a8.91 8.92 0 0 1-4.1.14c-1.52-.32-2.06-.71-2.69-.86-.63-.17-1.05-.27-1.05-.07 0 .48.13.41.23.63 0 1.27-1.23 1.53-1.14 1.67.11.2.6.3 1.14.1.54-.2.79-.48.79-.48s-.03.44.4.99c.14 0 .33-.81.95-1.08.43-.1.86.22 2.36.22 0 .28-.3 2.16-1.86 2.9-1.57.75-1.92.35-3 1.69-.3.43-1.62.76-2 2.03-.32 1.06-.09 1.72-.09 1.72s-.54.7-.5 1.3c.02.48.16.96.16.96s0 .64.18 1.55c.23 1.14-.46 1.1-.23 1.6.28.75.52.45.77 1.44.3.88-.16 1.82-.05 2.28.15.55.71.86.98 1.2.11 1.31 1.25 2.37 1.62 3.28.3.67 1.32 2.18 2.85 2.66.71 1 .7 2.49.7 2.49-.17.05-1.03.18-1.2.21-1.08.2-3.74.22-4.83-.01-1.06-.23-2.08-.23-3.15-.3-1.06-.07-2.48-1.07-3.79.25-.04.01-.57-.13-1.05.63-.32.44-.37 1.4-.17 1.45 0 0 .8-.9 2.68.86 0 0 .6-.32 1.27.06a2.92 2.92 0 0 1 1.35 2.13s.13.42 1.01.27c.28-.05.56-.15.74-.37.15-.16.18-.42.46-.4.32.06.6.26.91.32.43.1 1-.26 1.34-.01.15.1.8.21 1.22.16.91-.1 1.69-.5 2.64-.45.6.04 2.73.19 3.32.19.17 0 .33 0 .46-.07.28-.12.43-.26.73-.31.41-.05 1.59-.1 2.74-.1 1.2 0 1.7.44 2.2.44l.46-.01c.43-.05.92-.33 1.02-.8.1-.44-.34-1.96-.43-2.37a7.94 7.94 0 0 0 5.19 1.85c4.95 0 8.15-.93 11.29-3.08 5.7-3.43 9.31-4.92 11.87-4.6.84.77 2.31.97 3.1 1.81.38.42 1.27.48 1.8.68.47.17.91.07 1.37.28.27.12.56.25.85.15.04-.02.1-.03.14-.02.07.02.1.1.14.17.11.18.34.23.54.21.22 0 .41-.05.61 0 .17.05.3.15.45.25.62.38 1.47 1 2.08.61.31.05.63.28.94.3h.13c-.05 0-.1.02-.13 0a18.26 18.27 0 0 1-5.45.03c-1.06-.23-2.08-.23-3.15-.3-1.06-.06-2.48-1.23-3.78.09-.05.01-.58-.13-1.06.62-.31.45-.36 1.4-.17 1.46 0 0 .8-.9 2.68.86 0 0 .61-.32 1.27.06a2.92 2.92 0 0 1 1.35 2.13s.14.42 1.01.27c.28-.05.56-.15.74-.37.15-.16.19-.43.47-.4.31.06.6.26.9.32.43.1 1-.26 1.34-.01.15.1.81.21 1.22.16.91-.1 1.69-.5 2.65-.45.59.04 1.78.19 2.37.19.17 0 .33 0 .46-.07.29-.12.43-.26.73-.31.41-.05 1.4.13 1.8.06.8-.16 3.42-.01 3.6-.01l.46-.02c.43-.05.93-.33 1.03-.8.1-.44-.32-.89-.43-1.28a7.1 7.1 0 0 1 .26-3.63z"/>
        <path fill="none" d="M117.23 122.41s.33-.7.82-.97m-3.07.03c0-.13.19-.94.47-1.12"/>
      </g>
      <path fill="none" d="M116.39 98.18c-1.92.95-2.33 1.64-2.8 3.06-.5 1.59.07 5.96.96 7.4 1.1 1.73.67 4.06 2.33 5.6"/>
      <path fill="none" stroke-linejoin="round" d="M125.47 97.77c1.58.96 2.92 2.46 4.34 3.82"/>
      <g stroke="none" fill="#000">
        <path d="m113.71 117.92.07.02.16.03.52.15c.18.06.36.16.46.25.11.08.16.16.16.16s-.06-.07-.2-.1a1.92 1.92 0 0 0-.95-.05l-.17.02-.06.01zm2.83.31.08.02.1.02.13.03.16.03.17.05.35.15c.23.12.44.26.57.38l.24.21-.27-.14c-.16-.09-.4-.17-.63-.22l-.34-.05h-.4l-.1.02h-.08zm8.1 5.04v-.05l.04-.08.04-.08.05-.07.14-.12a2.31 2.31 0 0 1 .69-.24l.36-.09.3-.1.2-.11.06-.05-.05.07-.16.16-.28.17a7.26 7.27 0 0 0-.86.54l-.05.07v.01c0 .02 0 0 0 0s0-.01 0 0v.05zm7.5-.48.05-.03.11-.1.4-.33.41-.31.15-.09.07-.01-.05.03-.12.11-.28.42a6.74 6.74 0 0 0-.35.6l-.03.04zm-3.59.05.09-.02.1-.01.1-.02a.78.78 0 0 0 .28-.11l.14-.09.15-.11c.2-.17.38-.37.55-.48l.21-.13.09-.04-.07.05-.17.17c-.13.15-.24.38-.4.6l-.14.16-.15.15c-.1.1-.21.16-.31.21l-.15.07-.1.03-.08.03zm-1.12-5.56.3.16.3.18.08.05.08.07.17.15.28.28c.08.08.16.13.25.16l.18.07.06.01-.15.48-.1-.05-.24-.16a1.54 1.54 0 0 1-.27-.3 3.96 3.96 0 0 1-.21-.34l-.12-.15-.05-.07-.06-.07-.25-.24-.25-.23zm-7.05-3.94-.1-.01a.9.9 0 0 1-.48-.43l-.08-.2-.05-.23v-.22l.02-.18.05-.3.02-.11v-.2l.03.02.06.03.09.08.08.14c.05.1.08.23.1.36l.01.18.02.18.02.15.03.15.07.28.06.23.05.08zm4.01 1.87.09.02.18.05.23.1.25.18a.4.4 0 0 1 .1.13l.08.13c.05.1.08.18.08.27.03.16 0 .3 0 .3l-.08-.04-.17-.1c-.13-.08-.26-.21-.38-.33-.11-.13-.24-.28-.33-.43l-.06-.2c.03-.05.01-.08.01-.08zm-2.8-1.34.03.09.07.2.05.13.05.13.05.13.04.13.25.51.1.2.05.09h-.1l-.1-.02-.13-.05-.15-.08-.15-.12-.13-.15a1.82 1.82 0 0 1-.1-.18l-.06-.2-.04-.2.02-.18.03-.16.07-.13.06-.09.09-.05zm14.03-5.45-.03-.13-.08-.35-.25-1.02-.27-1.02-.08-.35-.03-.13.1.1.1.11.13.17c.08.13.18.28.25.46l.11.28.08.3.1.6c.02.2 0 .36-.01.52l-.07.36-.05.1zm1.26-.89.13.22c.03.06.1.14.13.24l.13.37c.03.13.08.28.1.44l.03.25.02.27c.02.18 0 .34-.02.54-.01.18-.03.36-.08.55l-.11.52-.15.52-.28.87-.12.35-.08.26-.05.25-.03-.25c0-.16 0-.4.03-.66l.16-.9.1-.52.1-.51.08-.51.05-.5.02-.23v-.23l-.02-.22-.01-.2-.04-.18-.03-.16-.06-.28v-.3zm-6.43-2.03.04.08.05.23v.33l-.09.37-.16.33c-.07.1-.13.18-.22.25l-.18.13-.08.05.02-.09.05-.21.18-.6.23-.57.1-.2c.03-.08.06-.1.06-.1zm-2.77-2.89.07.1.06.12c.02.04.05.1.05.16l.02.1v.11l-.02.24-.06.23-.1.23a3.47 3.47 0 0 1-.55.68l-.21.2-.09.06.02-.12.08-.28c.09-.23.25-.5.38-.74.15-.25.25-.5.3-.71l.05-.26v-.12zm3.81 13.5.1.17a5.65 5.65 0 0 0 2.02 1.85l.64.25.5.12.2.03-.2.05c-.14.02-.32.05-.53.03a2.63 2.63 0 0 1-1.14-.3 2.9 2.9 0 0 1-1-.85c-.1-.12-.17-.22-.22-.33l-.17-.32a3.55 3.55 0 0 1-.2-.7z"/>
        <path d="m130.17 114.3.05.15.12.38a4.92 4.92 0 0 0 .6 1.29l.19.21c.13.14.26.25.4.33l.18.1.15.07.15.05-.04.02-.11.01h-.18a1.29 1.29 0 0 1-.5-.13 1.65 1.65 0 0 1-.53-.4l-.21-.28a2.48 2.48 0 0 1-.32-1.2c-.01-.37.05-.6.05-.6z"/>
        <path d="m127.78 113.3.08.14.08.17.12.2.15.23.18.25.21.23.25.23c.08.06.17.15.27.2l.26.18.26.15.25.11.23.09.18.06.17.05-.17.03-.2.02h-.1l-.14-.02-.3-.05c-.11-.01-.21-.06-.33-.11l-.33-.17-.31-.23c-.1-.08-.2-.16-.27-.26l-.21-.3-.17-.3-.1-.3-.03-.13-.02-.11-.01-.2v-.16zm1.32 5.11.23.04.28.03.36.07.43.1a7.13 7.13 0 0 1 1.46.54l.46.22.23.08.23.06.45.1.41.07a7.33 7.33 0 0 1 .87.15v.05l-.24.05-.28.03-.37.02-.43-.02-.47-.07-.27-.05-.26-.08-.5-.2-.48-.2-.46-.16-.45-.12-.4-.08-.34-.06-.28-.04-.23-.03zm.87-16.99a75.02 75.04 0 0 0 1.14 1.06l.7.56.72.53.35.21.31.2.27.17.21.13.18.11-.01.05-.22-.03-.24-.07-.32-.1-.34-.14-.38-.2-.4-.23-.4-.27-.74-.56a17.09 17.1 0 0 1-1.17-1.06z"/>
      </g>
      <path fill="none" d="M118.07 121.44s-.1-.8.51-1.3c.61-.52 1.16-.68 1.64-.47"/>
      <g stroke="none" fill="#000">
        <path d="m120.04 119.39.16-.05.18-.07.27-.06c.1-.04.21-.04.33-.05l.36-.02.18.02.2.03c.13.03.26.05.38.1l.36.13.33.15.32.12.15.03.13.03h.25l.2-.03.16-.05-.17.07c-.05.03-.11.03-.2.05l-.26.03-.15-.02-.16-.01-.33-.09-.35-.1a2.64 2.64 0 0 0-.35-.08l-.34-.05h-.17l-.16.02c-.12.01-.22.01-.32.05l-.26.08-.22.08-.18.09-.15.06z"/>
        <path d="m120.28 119.44.1.03.1.05.15.07c.05.03.12.05.17.1l.18.11.34.28a2.87 2.87 0 0 1 .7.96s-.09-.13-.23-.28a2.63 2.63 0 0 0-.98-.66l-.18-.07-.15-.05-.13-.03-.12-.02-.1-.01z"/>
      </g>
      <g>
        <g stroke="none" fill="#000">
          <path d="m73.6 106.26-.07.92-.03.47-.02.46c-.02.3 0 .6.02.9.01.29.06.57.14.83l-.01-.03.11.2.14.18a3.3 3.3 0 0 0 .31.36 3.63 3.63 0 0 1 .33.38l.15.23.1.25-.07.04-.06-.1-.09-.09-.18-.14-.4-.3-.2-.17a1.98 1.98 0 0 1-.52-.6V110l-.08-.25-.07-.25-.07-.5a6.1 6.11 0 0 1 .12-1.41l.12-.46c.08-.3.2-.6.33-.9zm1.38.64.12.17.11.2.14.28.06.16.05.18.1.4.12.86.05.43.06.4.05.18.05.18.05.16.05.15.11.27.1.21.09.18-.07.05-.16-.13-.17-.16-.2-.25c-.06-.1-.15-.2-.2-.33l-.08-.18-.06-.2-.07-.22-.05-.21-.07-.45a7.92 7.93 0 0 1-.05-.86l-.01-.4-.04-.34-.03-.3-.05-.23v-.2zm3.5-4.47.04-.12.1-.3.16-.4.23-.45.13-.22.15-.2.15-.18.15-.15.13-.11.1-.08.1-.07.03.03-.08.09-.08.1-.1.13-.12.16-.11.18-.1.22-.1.21-.15.45a6.93 6.94 0 0 1-.15.68l-.02.1zm-4.55-.43.06.16.03.09.02.11.02.13v.32l-.02.16-.08.33a5.68 5.68 0 0 1-.28.65l-.28.54-.07.12-.05.11-.1.24-.03.11-.03.1-.05.18-.05.17-.05.01-.03-.16-.04-.18-.01-.25c0-.08 0-.18.03-.28l.03-.15.05-.17.12-.3.15-.32c.11-.22.23-.42.3-.61l.14-.29.1-.26.05-.23.03-.18.02-.17zm4.16-5.8v.25l-.02.07-.05.16-.07.18-.1.2-.11.22c-.08.14-.2.3-.31.44l-.4.46-.45.48-.44.48-.22.25-.2.25-.16.25-.15.26c-.08.16-.18.35-.25.53l-.2.5-.26.75-.1.3-.08-.02.02-.31a7.21 7.22 0 0 1 .24-1.34c.07-.18.12-.38.22-.58l.13-.3.18-.29c.13-.2.28-.36.43-.55l.48-.47.46-.45.43-.41.36-.38.15-.18.14-.17.1-.15.08-.13c.05-.08.06-.17.08-.21l.03-.09zm-3 15.58.14.1.15.13.08.08.08.1c.07.06.12.15.17.25l.16.28.33.6.19.3.18.27.1.12.1.1.1.08.1.06.1.05.08.04.08.03.06.02.14.03-.12.48-.18-.07-.1-.03a.33.33 0 0 1-.1-.07l-.12-.06-.11-.1-.12-.1-.11-.12-.1-.13-.1-.15-.17-.31-.14-.33-.27-.65-.13-.28-.13-.25-.07-.1-.06-.08-.12-.13-.12-.11zm-1.64-10.72.03.13.03.31a1.32 1.32 0 0 1-.08.42c-.03.06-.05.15-.1.21l-.11.2-.14.16-.15.15-.3.22-.12.08-.12.07-.12.06-.05-.01.04-.1.1-.25c.1-.2.28-.43.44-.68.17-.23.33-.48.43-.67l.12-.24.05-.08zm3.03-5.82-.01.07-.07.18c-.06.17-.16.4-.33.65-.08.13-.2.24-.31.36l-.43.33c-.31.2-.68.36-1 .58a2.31 2.31 0 0 0-.44.35l-.4.37-.34.38-.28.37-.38.58-.12.21-.43-.23.05-.07.12-.18.45-.58.33-.36.4-.38.44-.36c.16-.13.33-.23.5-.33.36-.2.74-.35 1.05-.51a2.38 2.38 0 0 0 1.12-1.21l.08-.18.04-.07zm-1.45 2.94-.18.1-.2.14-.25.2-.24.26-.25.33-.5.77-.3.38a5.94 5.95 0 0 1-.3.35c-.2.22-.42.41-.54.58-.11.16-.18.31-.23.44a1.16 1.16 0 0 1-.06.19l-.48-.15.02-.05.06-.17c.07-.13.17-.33.35-.52.18-.2.4-.37.6-.55l.34-.3.31-.33.56-.72.28-.33.29-.27.26-.18.21-.12.2-.08zm5.02-1.1-.03.21-.02.12-.05.13-.05.15-.08.16c-.05.12-.15.22-.25.33l-.33.32-.36.28-.36.26-.19.14-.16.14-.3.3c-.08.12-.18.2-.25.31l-.2.3-.16.27-.12.21-.1.2-.06-.02.02-.21.03-.25.1-.31.15-.37c.05-.13.15-.26.23-.4l.15-.17.16-.19.18-.16.2-.15a5.5 5.5 0 0 1 .78-.5l.33-.23c.08-.08.2-.15.26-.23l.12-.11.08-.12.08-.1.07-.1.11-.18z"/>
        </g>
        <path fill="none" d="M75.06 105.58c.25.27.37.07.42-.13.7-2.13 2.34-.54 3.22-2.96-.17.85-.5 3.03-1.9 3.59-.28.11-.5.25.11.4 1.62.4 3.37-.7 4.36-1.7 1.74-1.87 2.08-3.72 2.15-3.99.4.28-.45 1.74-.02 3 .05.12.22.64 1.36 1.5.3.14.44.18.4-.3-.06-.55 0-.86.1-1.1.65-1.74 3.13-2.82 2.2-5.33-.11-.4-.26-.34-.36-.6.36.26 2.01.7 2.79-.29.1-.15.15-.16-.12-.28"/>
        <g stroke="none" fill="#000">
          <path d="m87.68 89.55-.12-.05-.13-.08-.16-.15-.15-.22-.07-.13-.03-.15-.04-.15-.01-.15v-.28l.01-.26v-.23l-.01-.1-.02-.1-.03-.1-.03-.08-.07-.15-.07-.12-.06-.11.05-.07.13.05c.03.02.1.03.13.08l.17.14c.05.06.11.13.14.21l.07.13.05.15.03.15.02.15v.28l-.02.26v.35l.02.1.03.18.05.17.07.13c.03.1.06.13.05.15zm-7.28 1.5.33-.07a2.48 2.48 0 0 1 .33-.03h.33l.33.02.64.03h.15l.13-.02.12-.03.1-.05-.05.03c.11-.11.23-.24.26-.34l.02-.17v-.25l.01-.54v-.15l.05-.16.12-.27.21-.46.09-.23.08-.25.07-.25.05-.24.03-.27.03-.26h.08l.05.26.04.27c0 .18.01.36-.02.54a3.14 3.14 0 0 1-.1.55l-.18.5-.08.24-.04.2v.77c0 .1-.01.23-.06.35-.05.12-.13.2-.2.28l-.2.2-.03.03h-.02l-.2.08-.2.04h-.2l-.17-.02-.33-.07-.33-.06-.65-.13-.31-.05-.33-.04z"/>
          <polygon points="82.38 77.46 82.77 77.77 82.76 77.82 82.25 77.84"/>
          <path d="m90.2 83.34.04.11.05.12.03.07.05.06.1.13.13.15.15.17.15.2.15.21.1.25.04.25c.02.08-.01.16-.01.23l-.05.18-.07.13-.06.1-.07-.03-.02-.12-.01-.11-.04-.15-.05-.15-.08-.17-.1-.16-.13-.18-.13-.2-.13-.22-.1-.21-.05-.22v-.1l.01-.1.04-.13.05-.1zm-1.91-.25.05-.1.06-.11.09-.15.08-.17.1-.18.1-.18.1-.2.08-.2.08-.2.15-.36.12-.26.05-.1h.08l.03.11c.02.07.05.18.05.32a1.98 1.98 0 0 1-.2.92l-.13.23-.15.2-.16.17a1.16 1.16 0 0 1-.45.26h-.13zm-3.09 2.06.02-.1.06-.23c.04-.1.1-.2.17-.3l.25-.27a2.1 2.1 0 0 1 .6-.35l.24-.05h.1l.03.07-.05.08-.15.18c-.11.13-.28.3-.46.43-.18.15-.36.28-.51.36l-.2.12c-.07.06-.1.08-.1.06zm-5.55-2.98.04.06.03.17-.02.11-.03.13-.13.24a.69.69 0 0 1-.43.24.33.33 0 0 1-.18 0l-.07-.01-.03-.07.03-.07.08-.13.1-.15.14-.15.13-.13.15-.11.13-.1.06-.03zm5.22-3.26-.03.03-.05.07c-.03.05-.08.08-.13.08l-.15-.05-.08-.08-.02-.06.02-.04.05-.06c.03-.05.1-.09.16-.09s.13.04.18.09c.02.01.05.05.05.08 0 0 .02.02 0 .03zm-.53.41v.04l-.03.08c-.03.07-.1.1-.15.12-.06.01-.11-.02-.16-.05l-.05-.07-.02-.03v-.07s.02-.06.07-.1c.03-.05.08-.08.13-.08s.1.02.15.07l.06.05c-.03.03-.01.04 0 .04zm-.6.45v.03l-.04.09c-.05.05-.1.1-.17.1s-.11-.02-.16-.07l-.05-.07-.02-.03v-.07l.07-.1a.2.2 0 0 1 .15-.06c.05 0 .1.03.15.08l.05.07.03.03zm-1.51.55v.03l-.02.03-.03.03a.25.25 0 0 1-.18.07c-.05-.02-.1-.05-.12-.11l-.01-.09v-.03l.03-.05.08-.07c.05-.03.08-.05.12-.03.03.02.05.05.06.1l.02.03.02.04.03.05zm.8-.19-.02.04-.07.06a.25.25 0 0 1-.18.07.24.24 0 0 1-.15-.1.13.13 0 0 1-.03-.08l-.02-.04.02-.06.1-.08c.04-.04.11-.05.16-.04.05.02.1.05.12.1l.03.07.03.06zm-8.54-1.47.03.05.02.15c0 .07-.04.13-.09.18l-.14.14c-.1.06-.22.08-.3.06l-.13-.01-.05-.02-.05-.07.01-.05c0-.03.02-.08.05-.11a.54.54 0 0 1 .22-.22c.08-.05.15-.05.23-.05l.11-.03.09-.02zM78.55 80l-.12-.03-.28-.08-.76-.27-.76-.3-.24-.13-.1-.05.01-.08.12-.03.3-.04c.11 0 .26 0 .4.04l.24.05.23.06.43.22c.13.08.23.18.31.26.15.22.23.37.22.38zm-5.78-1.37-.07-.1a.6.6 0 0 1-.05-.33c.02-.06.04-.16.09-.25s.16-.16.31-.18h.08l.12.02.16.06.19.12.11.03.12-.01.13-.09c.05-.03.13-.1.25-.13h.13l.06.02.05.03c.07.03.1.08.12.13l.03.14-.06.03-.09-.05-.08-.02h-.02l-.01.02h-.02c.02 0 0 0 0 0v.02l-.05.1a.74.74 0 0 1-.2.2.6.6 0 0 1-.33.1.63.63 0 0 1-.34-.09l-.22-.15-.05-.03c-.01 0 0 0 0 0h-.05.02c-.02 0-.03-.02-.07 0l-.1.08-.1.23-.01.12zm8.85-.46-.07.06-.08.07-.1.1-.11.1-.12.11-.13.12-.13.12-.53.4-.2.14-.08.05-.07-.05.02-.1c.01-.06.03-.15.08-.23a1.62 1.62 0 0 1 .46-.58c.12-.08.23-.16.35-.21l.35-.1.24-.02.1.02zm.44 14.07-.18.1-.2.11-.23.15-.24.22-.25.26-.25.3-.26.33-.15.16-.15.17-.17.15a1.16 1.16 0 0 1-.16.13l-.18.12-.18.1c-.12.06-.25.1-.35.13l-.3.06-.23.02h-.2l-.01-.08.18-.09.2-.08.24-.13.14-.08.13-.09.28-.23.26-.26.27-.32.28-.3.31-.3.33-.24c.12-.08.23-.11.33-.16s.22-.07.3-.09c.08-.03.16-.03.23-.03l.2-.01zm1.49-8.34h.05l.12.02c.08.03.16.1.21.18.05.08.05.2 0 .28-.02.05-.03.08-.07.1l-.03.03-.08.02-.05-.02-.1-.05a.47.47 0 0 1-.15-.16c-.03-.07-.02-.15 0-.24l.03-.11.07-.05zm-.97-.43.05-.02h.13c.11.02.23.09.31.19.08.1.12.23.1.34-.02.1-.07.18-.07.18l-.06.02-.05-.02-.12-.05a.5.5 0 0 1-.11-.08l-.08-.1a.66.66 0 0 1-.1-.25l-.02-.13.02-.08z"/>
          <polygon points="80.08 91.05 79.09 91.46 78.98 90.98 80.07 91"/>
          <path d="M74.26 78.33a.46.46 0 0 1-.12.22.52.52 0 0 1-.18.15l-.35.24h-.01l-.2.22-.09.13-.03.07-.01.03-.02.03-.43-.23.03-.05.04-.03.06-.07.15-.13a.9.9 0 0 1 .35-.2h-.02l.43-.14.18-.09c.05-.03.1-.08.13-.15zm9.14-1.94-.13-.04-.33-.08-.45-.12-.24-.06-.25-.07-.25-.06-.25-.05-.23-.04-.2-.01h-.31l-.12.01-.04-.05.01-.03.08-.08.14-.08.08-.05.05-.02.06-.02c.32-.11.73-.1 1.11 0s.73.28.96.47l.26.23.05.15zm-3.61-.17s.01.07.08.13c.05.08.15.18.26.18h.05-.01.21l.13-.01.13-.04.15-.03.15-.05.35-.1.2-.03h.2c.13 0 .26.03.37.07.12.03.24.06.32.11.1.05.18.08.26.15l.35.25.11.11-.03.07-.16-.03-.42-.1-.26-.07-.28-.05-.15-.01h-.3l-.15.01-.3.07c-.12.03-.26.05-.37.05h-.18l-.19-.02-.14-.03-.09-.02-.08-.03a.45.45 0 0 1-.21-.22l-.05-.2v-.18z"/>
          <polygon points="79.51 77.81 79.51 77.77 80.13 77.48 80.2 77.87"/>
          <path d="m83.15 93.2.02.18v.21l-.05.28-.11.32c-.07.1-.12.23-.22.33l-.13.15-.15.15c-.1.1-.21.16-.33.24l-.35.2-.33.17-.31.15-.26.13-.22.13-.15.11-.11.14-.07-.04.05-.18c.02-.06.07-.11.12-.2l.18-.21.24-.22.3-.2.63-.37.15-.1.15-.1.13-.1.11-.12.12-.11.1-.12.16-.23.14-.21.08-.19.08-.16zm1.79-1.6a3.19 3.19 0 0 0 .2.36l.08.28c.01.1.05.23.03.35v.2l-.03.2-.05.2-.07.19-.18.38-.2.35-.2.3-.18.3-.13.27-.1.23-.06.2a6.27 6.28 0 0 0-.05.18h-.09l-.05-.18-.01-.23v-.13l.01-.15.09-.33.15-.35.18-.35.18-.34.18-.33.13-.33.05-.17.03-.15.04-.15.01-.14V92l-.01-.22-.02-.18zm.89-2.27.11.07.14.1.13.16.11.22.1.26.12.56.06.55.07.46.03.18.04.15.03.13-.07.05-.1-.1-.11-.11-.12-.18-.11-.22-.08-.26-.12-.56-.03-.29-.02-.26-.02-.25-.03-.21-.03-.18c-.02-.05-.02-.1-.05-.14l-.05-.13zm2.76-.33.08.07.08.08.1.1.23.25.25.28.13.15.13.13.22.26a3.04 3.04 0 0 1 .2.28l-.04.07-.1-.02-.26-.08a1.82 1.82 0 0 1-.9-.84l-.07-.18-.05-.18a.5.5 0 0 1-.02-.27l.02-.1zm-.14-3.48a2.67 2.68 0 0 0 .45.21l.2.13.2.17.2.2.18.23a3.17 3.17 0 0 1 .4.78l.04.24c.03.15.03.28.02.37l-.02.14h-.08l-.07-.11-.06-.13-.1-.17-.25-.4-.15-.2-.15-.22-.15-.22-.14-.21-.15-.2-.14-.18-.2-.3c-.03-.07-.04-.12-.03-.13zm5.29-2.41-.1-.02-.23-.03a2.44 2.44 0 0 1-.66-.23l-.17-.1-.15-.12-.13-.11-.1-.12-.06-.12-.05-.08-.04-.08.05-.02.05.07.05.06.08.09.12.08.13.08.15.07.17.05c.21.05.44.06.6.05l.2-.02.07-.02zm-2.02 3.28.1.02.12.03.13.07c.18.1.4.28.6.44l.3.24.25.16.1.05.09.02.06.01-.13.48-.1-.05-.11-.06-.14-.1c-.1-.07-.18-.17-.26-.25l-.26-.31-.47-.55a.47.47 0 0 0-.18-.11l-.08-.04zm.65 20.28.16.33.18.32.43.57c.17.19.33.34.51.48l.28.2.15.08.15.09.32.13.33.08.33.05.34.02h.17l.16-.02.35-.05.35-.06.34-.09h.02l.03-.01-.01.01-.02.05.02.07.01.03c.02 0 0 0 0 0l-.05-.01-.24-.14-.24-.15c-.14-.1-.28-.23-.4-.36a4.1 4.1 0 0 1-.54-.89l-.05-.12-.01-.03v.02-.02l-.04-.05-.11-.2-.28-.36-.35-.33-.4-.3.05-.06a5.48 5.48 0 0 1 .88.5c.13.1.26.22.36.35l.15.22.03.05v.02l.02.01.02.04.05.11a2.43 2.43 0 0 0 .87 1.02l.2.12.2.1-.05-.02.11.04.12.06.1.13.03.19c0 .06-.03.13-.06.18l-.05.06-.05.05a.7.7 0 0 1-.22.09h.02l-.36.1-.38.06-.38.03-.2.02h-.2a3.2 3.2 0 0 1-.78-.12l-.38-.11-.36-.17-.16-.1-.17-.11-.3-.25a3.38 3.39 0 0 1-.87-1.24c-.1-.23-.18-.46-.23-.7zm-3.83-5.12a8.49 8.49 0 0 0 1.78 1.52l.4.25.4.22.44.18.21.08.22.07.21.04.22.05.44.07.45.02.44-.04.45-.1.21-.06.22-.07.41-.18.02-.02.05-.01.01-.02v.03l.02.05-.05-.01h-.05l-.33-.12c-.1-.05-.21-.08-.31-.15l-.3-.18-.28-.21-.25-.23-.23-.27-.38-.56-.08-.15-.02-.03s.02.01 0 .01v-.01l-.01-.02-.05-.06-.19-.25-.21-.23-.23-.22a6.14 6.14 0 0 0-1.07-.67l.03-.07.6.23c.2.1.4.2.59.33s.36.26.5.43l.24.25.05.06.02.02.01.02.02.03.08.13a5.45 5.45 0 0 0 .58.71l.23.2.25.18.26.15.28.12.28.08h-.05l.14.03.14.07c.05.03.1.06.14.13a.4.4 0 0 1 .06.2v.11l-.03.1-.1.15a.83.83 0 0 1-.23.13l.02-.01c-.15.06-.3.15-.47.2l-.23.08-.25.06-.49.1-.5.04-.5-.02-.49-.08-.24-.07-.24-.07-.23-.08-.23-.1-.44-.23-.42-.25-.4-.28-.37-.31a8.78 8.79 0 0 1-1.17-1.49zm-2.08 2.93.05.4.08.42a6.08 6.08 0 0 0 .6 1.49l.24.33a4.28 4.28 0 0 0 .41.43l.15.13a3.5 3.5 0 0 0 .68.4c.11.05.23.11.36.15l.18.06.2.05.4.08.4.07.39.03h.07l-.02.02-.02.02-.01.01a.08.08 0 0 0 0 .07l-.02-.02-.03-.01-.22-.24-.18-.24-.16-.27-.14-.28a2.31 2.31 0 0 1-.16-.58c-.03-.2-.07-.4-.07-.6v-.17.01-.03l-.01-.07-.02-.13-.03-.13-.09-.25-.1-.25-.26-.47-.31-.47.06-.05a9.54 9.55 0 0 1 .75.88l.14.26.12.28.08.3.02.07v.08l.02.13a2.97 2.97 0 0 0 .28 1.03l.11.23c.05.06.08.15.15.21l.17.2.18.18-.04-.03.1.08.09.12c.03.05.05.1.05.16s0 .13-.04.2l-.05.08-.06.07-.15.07c-.1.03-.17.01-.25.01h.02l-.43-.03-.43-.07-.43-.1-.22-.06-.21-.08-.41-.19-.38-.23-.35-.26-.16-.15-.15-.17a2.4 2.4 0 0 1-.27-.34l-.23-.38a3.73 3.73 0 0 1-.31-.81 4.79 4.79 0 0 1-.13-1.69zm-11.44-.98-.05.08-.1.24-.09.34-.01.2.01.2.02.1.02.1.06.16.09.15.08.13.08.1.07.07.06.06-.36.33-.07-.1-.06-.1-.09-.14-.08-.18-.06-.22-.04-.23v-.23l.04-.23.06-.22.17-.34.15-.22.06-.08zm14.67-5.9-.16-.06-.09-.03-.08-.05-.16-.12-.15-.13-.13-.13-.12-.15-.12-.15-.1-.16-.08-.17-.06-.16a2.84 2.84 0 0 1-.22-1.06l.05-.1-.05.03v.05-.01l-.01-.04-.02-.06-.05-.15a1.32 1.32 0 0 0-.31-.5l-.12-.1-.07-.03-.06-.03.02-.05.08.03.06.03.14.1.21.23.17.27.06.15.03.08.02.03v.1l-.05.05.05-.1.08.35.1.33.13.31.09.15.08.13.1.14.1.11.11.12.12.1.13.08.13.06.07.04.08.03.17.05z"/>
        </g>
        <path fill="#f6f6f6" stroke-width=".36" d="M82.21 77.56c-.16.18-.54.25-1 .3-.47.04-.93.03-1-.2-.1-.17.19-.93.5-.93.3-.01 1.07.51 1.5.83z"/>
        <g stroke="none" fill="#000">
          <path d="m84.95 102.03-.11-.25-.08-.3c-.04-.14-.04-.27-.05-.42l.01-.48.04-.27.05-.26.13-.54.15-.57.13-.54.05-.27.03-.26.05-.5v-.44l-.03-.38-.04-.3-.03-.26.07-.03.11.24.12.3.11.4.07.48c0 .16.03.36 0 .54l-.02.28-.05.3-.13.58-.16.56-.17.53-.08.24-.07.24-.05.23-.05.21-.03.2-.02.18v.3l.02.26zm-4.2.45.1-.25.13-.28.11-.36.07-.22.05-.23.03-.25.03-.24.05-.55.05-.58.07-.58c.03-.2.06-.38.13-.56l.08-.26.1-.25c.07-.16.17-.3.23-.43l.23-.33c.07-.1.15-.16.22-.23.11-.13.2-.18.2-.18l.06.05-.11.23-.14.26a3.63 3.63 0 0 0-.14.35l-.07.2-.07.21-.11.48c-.05.17-.05.35-.08.53l-.07.56-.07.58c-.01.2-.06.38-.1.56-.05.18-.08.36-.14.53l-.09.23-.1.22-.21.34-.2.25c-.16.15-.23.21-.25.2zm11.34-12.44.03.1.03.12.05.13.12.31.11.35.07.18.05.18a3.2 3.2 0 0 1 .13.58l.02.1-.07.05-.08-.05-.2-.18a1.87 1.87 0 0 1-.4-.7 1.3 1.3 0 0 1-.06-.42v-.2l.03-.18.1-.27.05-.1zm1.86 10.79-.02-.17-.03-.18-.06-.21-.05-.12-.05-.13-.15-.27c-.12-.18-.25-.38-.36-.6l-.17-.35-.12-.35-.06-.35-.02-.31.02-.27.05-.2.05-.16h.08l.03.17.04.18.06.23.08.26.1.28.14.3.14.31.17.32c.05.11.11.21.15.33l.11.33c.02.11.05.21.04.31v.15l-.02.13-.05.2-.07.17zm-.35-6.03-.1-.13-.11-.15-.17-.17-.1-.08-.11-.08-.26-.15c-.2-.1-.42-.2-.63-.33l-.32-.22-.28-.24a3.3 3.3 0 0 1-.23-.27l-.16-.26-.12-.23-.06-.2-.05-.17.06-.03.12.12.13.13.17.16.21.19.23.2.27.18.3.18.3.18.3.2a1.77 1.77 0 0 1 .47.5l.06.12.05.12.05.2-.02.23zm-4.12-1.82.08.13.1.14.13.15.2.14.23.15.26.17.28.2.14.11.13.13.11.14.1.14.15.3.08.28.05.23v.35l-.08.02-.08-.14-.08-.14-.12-.19-.13-.21-.17-.22-.2-.21-.2-.2-.26-.2-.24-.2a1.54 1.54 0 0 1-.4-.47c-.03-.09-.08-.17-.08-.25-.02-.08-.04-.13-.02-.18l.02-.17zm-4.56 11.23.02-.11.01-.14.04-.18.11-.43c.05-.15.13-.31.22-.46l.24-.41a1.49 1.49 0 0 0 .19-.37l.05-.14.03-.12.02-.11h.04v.11l-.01.13-.03.17c-.04.13-.07.26-.14.41l-.16.45c-.05.15-.1.3-.12.44-.03.15-.03.28-.03.38v.4zM81.17 77.9s-.11-.15-.11-.43.16-.5 0-.5c-.15 0-.4.25-.4.58s.1.33.1.33"/>
        </g>
        <g>
          <path d="M86.98 76.6s.62-.51 1.06-.68c.22-.08 2.25-.9 3.22-.21 1.35.97.26 3.4.2 3.6"/>
          <g stroke="none" fill="#000">
            <path d="m86.98 76.58.27-.26a3.19 3.19 0 0 1 .8-.58 7.02 7.02 0 0 1 2.1-.58c.28-.01.58.02.86.12.15.05.28.13.42.23l.08.07.08.08c.07.05.1.11.15.18a1.98 1.98 0 0 1 .35.8 3.09 3.09 0 0 1-.09 1.43c-.1.4-.24.71-.34.92l-.14.25-.05.08-.06-.03.1-.34c.05-.24.13-.55.18-.93l.05-.61a3 3 0 0 0-.07-.66 1.65 1.65 0 0 0-.28-.6l-.1-.11-.05-.05-.08-.07c-.08-.05-.18-.11-.28-.15a1.91 1.91 0 0 0-.7-.11 5.37 5.37 0 0 0-1.4.18l-.6.17a2.64 2.64 0 0 0-.49.18l-.36.2c-.21.14-.33.21-.35.2z"/>
          </g>
        </g>
        <g stroke="none" fill="#000">
          <path d="m96.7 118.75.06.03.06.03.07.02.07.03.08.03.15.09.28.23.08.11.03.05-.01.07-.07.03-.16.03a.63.63 0 0 1-.43-.13l-.1-.08-.09-.1-.04-.11-.04-.12v-.1l.02-.07.03-.06zm-1.64.23.08.01.08.02.1.02.22.06.21.1c.15.08.28.17.38.27l.13.13.05.05-.01.08-.07.03-.18.04c-.15 0-.35-.04-.53-.14l-.23-.18a.83.83 0 0 1-.15-.21.5.5 0 0 1-.05-.18c-.05-.07-.05-.09-.03-.1zm-1.4.03.08.07.08.06.1.07.11.08.14.08.28.2.52.4.19.16.06.07-.01.06-.1.02-.25-.02a1.49 1.49 0 0 1-.33-.1l-.18-.08-.17-.11a1.62 1.62 0 0 1-.3-.28c-.03-.05-.08-.1-.1-.17a.5.5 0 0 1-.06-.16l-.03-.15v-.12c-.05-.05-.05-.08-.04-.08zm-1.24.1.06.06.07.07.08.07.2.18.1.1.1.1a4.18 4.18 0 0 1 .54.66l-.03.06h-.08a.66.66 0 0 1-.22-.05c-.08-.03-.18-.06-.28-.13l-.28-.23-.12-.15-.1-.15a.5.5 0 0 1-.06-.16l-.03-.15-.02-.13.02-.1.01-.08zm-1.37.05.05.06.04.09.07.06.08.09.09.08.1.1.1.1.2.2.17.2.12.16.05.06-.03.07H92l-.21-.03-.28-.12-.15-.1-.13-.11-.12-.15-.1-.17-.06-.16-.02-.17.02-.15.03-.1.05-.08zm-.78-39.65.08-.09.08-.1.05-.06.05-.07.09-.16.08-.18.08-.22.08-.21.09-.23.08-.22a5.13 5.14 0 0 1 .33-.8h.08l.03.12.04.33c.01.27-.04.63-.17.96l-.11.25c-.04.08-.1.15-.15.23l-.17.2c-.05.06-.13.1-.18.15-.05.05-.13.06-.18.08-.05.03-.1.03-.15.03l-.13-.01zm-2.16-.32.01-.01.04-.05.06-.19.17-.5.05-.14.05-.13.05-.13.05-.12.08-.18.03-.08h.08s.09.1.14.28c.05.18.05.43-.05.66l-.09.16-.1.15a.75.75 0 0 1-.24.22.5.5 0 0 1-.14.06l-.11.04h-.07l-.01-.04zm2.1-3.2-.24.05-.24.06-.32.1-.36.14-.38.18a5.45 5.45 0 0 0-.76.5l-.17.14-.08.08-.08.09a2.7 2.7 0 0 0-.48.67c-.05.12-.1.23-.12.33l-.03.3c0 .08.02.15.05.2l.08.1.05.02v.08h-.06a.25.25 0 0 1-.18-.08.6.6 0 0 1-.17-.27l-.05-.18-.02-.2c0-.28.09-.6.27-.9a1.82 1.82 0 0 1 .31-.4l.1-.1.08-.09.2-.18c.13-.11.28-.2.43-.3.15-.08.3-.16.45-.2.15-.08.3-.1.44-.14l.42-.07.18-.01h.16l.27.01.23.05z"/>
          <path d="m87.5 78.02-.04-.02-.03-.03-.05-.05a.8.8 0 0 1-.15-.31l-.06-.33-.02-.17.48.1-.05.12a1 1 0 0 0-.08.26c-.02.1-.04.2-.02.28l.02.05.01.03.02.04z"/>
        </g>
      </g>
      <g stroke="none" fill="#000">
        <path d="M93.4 92.57h.1l.12.02.13.03c.2.06.43.21.66.35l.33.18.28.11.12.04.08.01h.07l-.07.5-.11-.04-.12-.04-.15-.07-.31-.22-.3-.26c-.2-.18-.38-.36-.54-.46l-.2-.1-.08-.02zm-2.44 20.16s-.01 0 0 0l-.06.04-.15.05c-.12.03-.28.06-.45.05a1.1 1.1 0 0 1-.43-.09l-.11-.06-.05-.04.01-.05h.05l.14.02a1.06 1.06 0 0 0 .66-.23l.08-.07.02-.01s0-.02 0 0zm-6 2.04v.33l-.04.13a.74.74 0 0 1-.16.23l-.1.08-.05.03-.09-.01-.03-.05-.05-.12a.43.43 0 0 1 .04-.34l.11-.17a.33.33 0 0 1 .17-.1l.08-.01h.11zm-1.05.46.02.06.02.07.01.07.02.14v.17a.9.9 0 0 1-.1.3l-.08.11-.04.05h-.08l-.05-.05-.08-.11c-.05-.1-.08-.25-.05-.38.02-.07.03-.15.08-.2a.39.39 0 0 1 .14-.15l.08-.05.06-.02c.02-.01.04-.03.05-.01zm-1.33.13.03.05.03.07.04.06c.01.05.04.1.04.17l.04.16c.01.12 0 .23-.04.33l-.04.13-.02.05-.07.04-.06-.04-.12-.1a.66.66 0 0 1-.15-.4.8.8 0 0 1 .12-.4l.11-.12.05-.03zm-2.53-4.5-.03-.07-.02-.07v-.1a.5.5 0 0 1 .05-.21l.13-.2a.66.66 0 0 1 .38-.2h.15l.07.02.03.06-.02.07-.05.13a1.16 1.16 0 0 1-.21.28l-.13.1-.15.08-.07.03-.06.04-.07.03zm.73 3.23.01.06v.07l.02.07.02.16v.18a1.2 1.2 0 0 1-.1.35l-.07.13-.03.05-.08.02-.05-.05a.26.26 0 0 1-.09-.13.58.58 0 0 1-.06-.42l.06-.23a.45.45 0 0 1 .14-.16c.03-.02.05-.05.08-.05l.06-.04.09-.01zm-.14-1.22v.06l-.01.07-.02.08-.05.18-.08.18c-.07.12-.15.22-.23.3l-.12.1-.05.03-.08-.01-.03-.07-.03-.16a.66.66 0 0 1 .11-.45.7.7 0 0 1 .36-.3c.07-.03.12-.03.17-.03l.07.02zm-.37-3.4v-.07l.01-.17a.73.73 0 0 1 .27-.38c.13-.1.3-.15.42-.15l.17.04.07.03.01.08-.03.05-.08.12c-.07.08-.17.18-.27.25l-.16.1-.17.06-.08.02-.07.01h-.1zm-.38 3.05-.04-.07c-.01-.05-.05-.1-.05-.2l.02-.28a.83.83 0 0 1 .12-.28 1.1 1.1 0 0 1 .4-.38l.19-.06.08-.02.05.07-.02.06-.06.17c-.05.13-.15.28-.23.41l-.07.1-.06.1-.07.08-.07.08-.06.07-.05.07-.05.05z"/>
        <path d="M89.7 109.53c0 .1.04.2.12.25.07.05.17.06.27.1.1.01.23.08.31.18.05.05.08.1.1.16l.02.05.01.04.02.1c.02.26-.08.47-.16.66l-.14.28-.01.05v.01-.01l-.02-.02-.03-.03c-.02-.02-.02 0 0 0h-.04c.22-.05.42-.12.61-.23l.3-.19.17-.1.11-.05a.33.33 0 0 1 .18-.01l.05.02.04.03.1.13.06.15.04.16v.15a1.58 1.59 0 0 1-.2.51c-.09.15-.2.29-.3.42l-.17.18-.18.18-.1-.38.1.02.09.03.16.07c.1.05.22.1.31.18a1.32 1.32 0 0 1 .37.43l.06.18-.01-.03.01.05.02.08c0 .06-.02.13-.07.18-.08.08-.13.1-.18.12l-.2.05-.3.06c-.2.05-.37.12-.46.23v-.31c.12.11.22.28.27.46.05.18.02.4-.05.55a1.44 1.44 0 0 1-.43.6l-.08.07-.05.04-.02.01s-.01.02 0 0l-.34-.34.08-.09.06-.06.12-.14c.08-.08.13-.18.18-.28a.5.5 0 0 0 .03-.26.6.6 0 0 0-.13-.25l-.13-.16.13-.15c.1-.12.23-.2.35-.27.13-.05.25-.1.36-.11l.35-.05.11-.03-.03.03-.03.11v.07l-.02-.05-.05-.1a.33.33 0 0 0-.06-.1l-.04-.05-.03-.05-.1-.08-.21-.13-.12-.05-.07-.02-.04-.01-.4-.12.31-.26.17-.15.16-.17c.1-.11.2-.23.27-.34a.85.85 0 0 0 .15-.37c.01-.11 0-.2-.09-.28l.09.05h.01l-.05.02-.13.08-.31.18a2.8 2.8 0 0 1-.71.25h-.02c-.05 0-.08 0-.15-.03l-.1-.08-.03-.12.02-.13.03-.09.15-.28a1.12 1.12 0 0 0 .18-.52v-.12l-.05-.12a.42.42 0 0 0-.21-.14c-.09-.04-.2-.07-.3-.17a.47.47 0 0 1-.1-.31zm-11.61-1.5-.17.31-.16.36-.1.24-.1.24-.1.28-.1.3-.1.31-.08.34c-.05.23-.08.47-.1.7l-.02.75a11.28 11.28 0 0 0 .2 1.45c.1.46.25.88.38 1.24l.35.84.11.25.02.03.02.04.01.03-.48.15v-.03l-.01-.04-.12-.23a8 8.01 0 0 1-.7-5.28l.09-.35.12-.33c.08-.22.16-.41.26-.58.08-.18.18-.33.28-.46l.25-.33.23-.27z"/>
      </g>
      <g>
        <path fill="none" d="M66.33 122.41s.33-.7.83-.97m-3.07.03c0-.13.18-.94.46-1.12"/>
      </g>
      <path fill="none" d="M88.54 120.07c-.55-2.78 1.68-4.86 1.68-4.86"/>
      <g stroke="none" fill="#000">
        <path d="m62.81 117.92.07.02.17.03.5.15c.19.06.37.16.47.25.12.08.17.16.17.16s-.07-.07-.2-.1a1.92 1.92 0 0 0-.96-.05l-.17.02-.06.01zm2.81.31.08.02.1.02.14.03.16.03.17.05.34.15c.23.12.45.26.58.38l.23.21-.26-.14c-.17-.09-.4-.17-.63-.22l-.35-.05h-.4l-.1.02h-.08zm8.1 5.04v-.05l.04-.08.05-.08.05-.07.13-.12a2.31 2.31 0 0 1 .7-.24l.36-.09.3-.1.2-.11.06-.05-.05.07-.17.16-.28.17a7.26 7.27 0 0 0-.85.54l-.05.07v.01c0 .02 0 0 0 0s0-.01 0 0v.05zm8.44-.48.05-.03.12-.1.4-.33.4-.31.16-.09.06-.01-.05.03-.11.11-.28.42a6.74 6.74 0 0 0-.35.6l-.03.04zm-4.5.05.08-.02.1-.01.1-.02a.78.78 0 0 0 .28-.11l.15-.09.15-.11c.2-.17.37-.37.54-.48l.21-.13.09-.04-.07.05-.16.17c-.14.15-.25.38-.42.6l-.13.16-.15.15c-.1.1-.21.16-.31.21l-.15.07-.1.03-.08.03z"/>
      </g>
      <path fill="none" d="M67.17 121.44s-.1-.8.51-1.3c.62-.52 1.16-.68 1.64-.47"/>
      <g stroke="none" fill="#000">
        <path d="m109.19 114-.05.07-.13.17a2.84 2.84 0 0 1-1 .64l-.2.05-.07.02.03-.09.12-.18a1.7 1.7 0 0 1 1.02-.64l.21-.02.07-.01zm1.73-1.56-.08.01-.21.04-.6.08-.6.11-.2.04-.09.01.05-.08.15-.18.28-.2.18-.06.2-.05h.38c.11.01.23.05.31.1.08.03.17.08.2.13l.03.05zm2.03-1.32-.08.01-.2.03a5.33 5.33 0 0 1-1.05-.01l-.19-.03-.08-.02.05-.07.17-.11a.63.63 0 0 1 .26-.1c.1-.03.22-.03.31-.03a1.27 1.27 0 0 1 .58.16c.07.05.13.08.17.13l.06.04zm-34.37 6.98h.03-.01l.1-.02c.11-.03.31-.1.56-.1.11 0 .26 0 .4.04l.06.01.05.02.12.05.2.13.3.27.06.05.08.03.2.08.79.25c.26.07.51.1.73.13l.52.02.2-.02-.2.04a4.26 4.26 0 0 1-1.27-.02 7.6 7.6 0 0 1-.84-.17l-.21-.05-.12-.03-.11-.05c-.15-.08-.25-.18-.35-.25l-.15-.08-.05-.02-.05-.01h.02-.33c-.18.03-.33.08-.45.13l-.18.07h-.08zm-9.46 1.29.17-.05.18-.07.26-.06c.1-.04.22-.04.33-.05l.37-.02.18.02.2.03c.13.03.26.05.37.1l.37.13.33.15.31.12.15.03.13.03h.25l.2-.03.16-.05-.16.07c-.05.03-.12.03-.2.05l-.26.03-.15-.02-.17-.01-.33-.09-.34-.1a2.64 2.64 0 0 0-.35-.08l-.35-.05h-.16l-.17.02c-.11.01-.21.01-.31.05l-.27.08-.21.08-.18.09-.15.06z"/>
        <path d="m69.39 119.44.1.03.1.05.14.07c.05.03.12.05.17.1l.18.11.35.28a2.87 2.87 0 0 1 .69.96s-.08-.13-.23-.28a2.63 2.63 0 0 0-.98-.66l-.18-.07-.15-.05-.13-.03-.11-.02-.1-.01z"/>
      </g>
      <g>
        <path stroke-width=".45" stroke-linejoin="round" d="M104.95 79.23s-1.24-.52-2.03-1.64c-.35-.45-.4-.84.3-.36 1.5 1 3.86 1.27 3.86 1.27l1.56.1 1.44-.38s-1.27-.9-1.6-1.03c-.31-.13-.12-.3.21-.23a18.33 18.33 0 0 1 3.85 1c.46-.06.78 2.22.78 2.22l.03.93s-1.85-.3-2.87-.18c-1.2.13-1.8.5-2.8.46-.85-.03-1.43-.56-1.43-.56l-.45-.83z"/>
        <path stroke-width=".45" stroke-linejoin="round" d="M134.37 87.68c0 3.87-7.25 7.3-7.25 11.33.92.8 1.78 1.72 2.69 2.58 0-6.16 7.35-8.34 7.35-13.78 0-5.74-4.8-9.03-10.44-9.18a22.3 22.3 0 0 0-6.1.68c-2.8.72-3.6-1.03-6.11-1.49-2-.41-2.78-.18-4.8.02-1.1.11-2 .44-2.78.74-.75.3-1.36.58-1.93.63a3.6 3.6 0 0 1-2.12-.38c-.79-.45-1-.48-.48.21-.08.8 1.52 1.89 4.1 1.7.8-.08 1.5-.4 2.01-.52 3.7-.94 7.53 3.94 11.54 2.4 2.07-.79 4.38-1.33 6.66-1.33 3.43.02 7.66 2.21 7.66 6.4z"/>
        <g stroke="none" fill="#000">
          <path d="m102.57 78.98.11.11h-.01l.23.17.11.08.02.02c.02 0-.02-.02-.02 0l.04.01.06.04c.17.1.33.16.5.23l.13.05.13.03.27.05.26.02h.3l.23-.02h.13l.07-.02h.06-.01l.28-.03a5.61 5.62 0 0 0 .72-.13l.37-.08.18-.05.18-.05.73-.22.72-.2.14-.03h.01l.8-.08.79-.05a12.7 12.7 0 0 1 1.19.05l.4.05.39.06.38.09.38.1.38.11.74.25.38.13c.12.05.25.07.38.1l.31.05.22.02.21-.02.15-.02-.15.02a.48.48 0 0 1-.21.02h-.22l-.31-.05c-.13-.04-.26-.05-.38-.1l-.38-.12-.76-.23-.38-.1-.38-.08-.38-.07-.4-.05-.37-.03-.4-.02-.78.02-.77.07-.78.11h.02l-.15.04h.02l-.73.23-.71.23-.18.05-.18.05-.37.1-.76.16-.26.05-.15.02-.16.01h.03l-.3.02h.02-.3l-.31-.02-.32-.05-.14-.03-.15-.05c-.2-.06-.4-.15-.58-.25l-.07-.03-.03-.02-.03-.01-.02-.02-.13-.08-.25-.17-.13-.1z"/>
        </g>
      </g>
      <g stroke="none" fill="#000">
        <path d="M98.14 97.18v.05l.02.13a2.54 2.54 0 0 0 .43 1.04c.13.21.3.41.5.61l.3.28.29.25a45.96 45.98 0 0 0 1.16.8l-.62-.32-.62-.35-.35-.21-.33-.25a4.04 4.05 0 0 1-1-1.22c-.1-.2-.17-.37-.2-.52l-.04-.14-.01-.05z"/>
      </g>
    </g>
    <g stroke="none" fill="#000">
      <path d="m69.18 122.96-.14.01-.36.06a2.6 2.6 0 0 0-.5.15l-.25.12a1.35 1.35 0 0 0-.24.17l-.22.2-.21.19-.35.39-.22.28-.1.1s.08-.2.25-.46a3.63 3.63 0 0 1 .54-.63l.24-.2.27-.17.28-.12a2.4 2.4 0 0 1 .53-.12c.27-.02.48.01.48.03z"/>
      <path d="m63.78 121-.08.07-.2.18-.14.12-.15.13-.3.32-.29.33-.24.3-.22.31-.02-.01.03-.1.12-.26.21-.33.29-.35.16-.16.17-.15.16-.14.15-.1.24-.14zm2.62.68-.1.08-.12.07-.15.1-.18.14-.2.15-.2.18-.19.18c-.13.12-.25.26-.36.4l-.28.35a5.16 5.16 0 0 0-.27.38l-.02-.02.05-.12.15-.3a4.65 4.65 0 0 1 .63-.8l.2-.17.22-.17.2-.15.2-.12.3-.15z"/>
      <path d="m120.06 123-.13.02-.36.06a2.6 2.6 0 0 0-.5.15l-.25.12a1.35 1.35 0 0 0-.24.17l-.23.2-.2.19-.35.39-.23.28-.09.1h-.01s.09-.2.25-.46a3.63 3.63 0 0 1 .54-.63l.24-.2.27-.17.29-.12a2.4 2.4 0 0 1 .52-.12c.27-.02.48.01.48.03z"/>
      <path d="m114.66 121.04-.07.08-.21.18-.14.12-.15.13-.3.32-.28.33-.24.3-.23.31-.01-.01.03-.1.12-.26.2-.33.3-.35.16-.16.16-.15.17-.14.15-.1.24-.14zm2.63.7-.1.07-.13.07-.15.1-.18.14-.2.15-.19.18-.2.18c-.13.12-.25.26-.35.4l-.29.35a5.16 5.16 0 0 0-.27.38l-.01-.02.04-.12.15-.3a4.65 4.65 0 0 1 .63-.8l.21-.17.21-.17.21-.15.2-.12.3-.15z"/>
    </g>
  </g>
</svg>
