<svg xmlns="http://www.w3.org/2000/svg" xmlns:xlink="http://www.w3.org/1999/xlink" fill="#d7374a" stroke="#000" viewBox="50 50 200 200">
  <metadata author="Milenioscuro" source="https://commons.wikimedia.org/wiki/File:Heraldic_lyre.svg" license="https://creativecommons.org/licenses/by-sa/3.0"/>
  <g id="lyre" stroke-width=".45">
    <rect x="68.78" y="121.41" width="62.44" height="1.34"/>
    <rect x="86.62" y="65.66" width="26.76" height="3.12"/>
    <g id="lyre-a">
      <path d="M69.09 96.8c-1.75-3.26-4.84-.34-4.76 2.85 1.3-.26 2.48-.63 3.28 1.02-2.7 8.59-1.01 17.02 11.83 28.05 1.83-1.25 3.7-2.5 5.57-3.79-20.11-14.58.82-39.37 2.68-54.63 1.01-8.43-3.87-10.4-7.77-10.31-1.3.03-2.5.3-3.33.63-6.83 2.56-3.05 14.64 6.5 7.7.2.67-.32 1.98-.47 2.45a82.8 82.8 0 0 1-4.8 10.11c-2.23-2.2-4.62-.9-5.03 1.99 2.1-.23 2.95.53 2.72 2.1-2.4 4.14-4.74 8.02-6.42 11.83z"/>
      <path d="m84.48 125.51 3.88-.94c-7.54-5.93-9.55-13.6-8.65-18.77.67-4 3.43-5.85 4.46-8.29 1.14-2.4-.7-3.5-2.72-3.58-1.65-.08-3.35.58-5.44 4.94-4.69 11.17.93 19.33 8.47 26.64z"/>
      <path d="M97.96 126.85c-2.35-.37-1.53-4.63-8.17-3.88-4.69.85-7.5 3.57-11.24 5.35l.13 6.7-3.21 2.67 1.34 2c5.44-1.87 10.21-1.38 14.36-.44l.85-2.37 3.12 1.61 2.57-4.01z"/>
      <path d="M94.51 136.93c2.35-7.37-8.15-10.06-9.58-4.2 2.44-1.1 5.56 2 2.9 4.07-3.76 2.58-7.59-1.3-6.38-5.76 3.34-8.74 24.3-5.89 13.06 5.89z"/>
      <path fill="none" d="M70.34 106.29c-3.03-8.06 10.93-22.55 7.4-25.42"/>
      <line x1="91.08" y1="121.41" x2="91.08" y2="68.78"/>
      <line x1="94.65" y1="121.41" x2="94.65" y2="68.78"/>
      <line x1="98.22" y1="121.41" x2="98.22" y2="68.78"/>
      <path fill="none" d="M83.1 68.4a4.1 4.1 0 0 0-4.17-3.14"/>
    </g>
    <use xlink:href="#lyre-a" transform="translate(200 0) scale(-1 1)"/>
    <path d="M92.86 139.92h14.28c-2.68-4.24-4.91-10.93-2.68-15.39-2.23 2.23-6.69 2.23-8.92 0 2.23 4.46 0 11.15-2.68 15.39z"/>
  </g>
</svg>
