<svg xmlns="http://www.w3.org/2000/svg" fill="#d7374a" stroke="#000" viewBox="50 50 200 200">
<metadata source="https://commons.wikimedia.org/wiki/File:%D0%9D%D0%97_%D0%9C%D0%9E_%D0%9D%D0%93%D0%A8.svg" author="Inkscape'r" license="https://creativecommons.org/publicdomain/zero/1.0"/>
  <g id="maces" stroke-width=".6">
    <g transform="matrix(1.1 0 0 1.1 59 64)">
      <g transform="matrix(.249 .249 -.249 .249 274.3 -21.26)">
        <circle cx="-367.662" cy="513.168" r="23.01"/>
        <path class="secondary" d="M-375.28 504.49a4.01 4.01 0 016.84-2.75c.5-.13 1.01-.15 1.5-.06a4.01 4.01 0 016.77 2.9c.42.24.8.58 1.08.99a4.01 4.01 0 012.75 6.84c.13.5.15 1.01.06 1.5a4 4 0 01-2.9 6.77c-.24.42-.58.8-1 1.08a4.01 4.01 0 01-6.83 2.75c-.5.13-1.01.15-1.5.06a4.01 4.01 0 01-6.77-2.9 3.46 3.46 0 01-1.08-1 4.01 4.01 0 01-2.75-6.83 3.46 3.46 0 01-.06-1.5 4.01 4.01 0 012.9-6.77c.24-.42.58-.8.99-1.08z"/>
        <path class="secondary" d="M-364.88 490.29a3.06 3.06 0 01-5.68 0c-4.51.55-6.77 1.92-10.51 4.09.67.64 2.8 1.44 4.24 1.46.3.23.66.41 1.08.55.01 1.21 1.8 2.2 4.01 2.2 1.07 0 2.04-.23 2.76-.6.5.04 1 .03 1.5-.05.73.4 1.73.65 2.83.65 2.18 0 3.96-.96 4.01-2.15.42-.16.75-.37 1-.6 2.2 0 4-.99 4-2.2a1 1 0 000-.1 22.87 22.87 0 00-9.24-3.25z"/>
        <path class="secondary" d="M-392.9 513.12c0-3.42 1.82-5.19 3.53-8.02.38-.63 1.12-.58.9.6-.14.69-.78 1.75-.8 3.29-.03 1.1.55 2.44.55 4.08 0 1.6-.58 2.93-.56 4.03.03 1.62.67 2.74.8 3.44.22 1.18-.51 1.23-.89.6-1.62-2.69-3.53-4.77-3.53-8.02z"/>
        <path class="secondary" d="M-342.45 513.13c0-3.43-1.83-5.2-3.53-8.03-.38-.62-1.12-.58-.9.6.14.7.78 1.75.8 3.3.03 1.1-.55 2.44-.55 4.07 0 1.6.57 2.93.56 4.04-.03 1.61-.67 2.74-.8 3.44-.23 1.18.5 1.22.88.6 1.63-2.7 3.54-4.78 3.54-8.02z"/>
        <circle cx="342.387" cy="513.168" r="2.349" transform="matrix(-1 0 0 1 0 0)"/>
        <path class="secondary" d="M-372.4 532.79c0-.03-1.94.9-3.67.2-2.19-.88-3.7-.57-3.44-.1.56.38 1.1.77 1.6 1.19-.98-.52-2-1.12-3.17-1.8.68-.64 2.8-1.44 4.25-1.46.29-.22.66-.4 1.08-.54 0-1.22 1.8-2.2 4.01-2.2 1.07 0 2.04.23 2.76.6.49-.04 1-.03 1.5.04.73-.4 1.73-.64 2.83-.64 2.18 0 3.96.96 4.01 2.15.41.16.75.36 1 .6 1.83 0 3.37.68 3.84 1.6-.6.02-1.43.18-2.39.56-1.73.7-5.62 7.78-5.64 7.8-2.05 2.04-7.7 2.5-8.57-8z"/>
        <path d="M-367.13 531.65c.27 1.49 2.43.46 2.7 1.95.26 1.47.07 5.19-1.11 6.94 1.57-1.57 2.11-6.18 3.68-7.75.02-.02 1.94.9 3.68.2 2.18-.88 3.68-.57 3.43-.1a20.18 20.18 0 00-7.26 8.41l-5.12.47-5.12-.47a20.18 20.18 0 00-7.26-8.4c-.25-.48 1.25-.8 3.44.1 1.73.7 3.65-.23 3.67-.2 1.57 1.56 2.11 6.17 3.68 7.74-1.18-1.75-1.36-5.47-1.1-6.94.26-1.5 2.43-.46 2.7-1.95z"/>
        <circle cx="-367.661" cy="513.168" r="3.556"/>
        <circle cx="-367.66" cy="489.205" r="3.055"/>
        <path d="M-377.89 516.73a1.9 1.9 0 113.8 0 1.9 1.9 0 01-3.8 0zm6.56 2.77a1.9 1.9 0 110 3.79 1.9 1.9 0 010-3.8zm7.21 0a1.9 1.9 0 110 3.79 1.9 1.9 0 010-3.8zm2.77-2.77a1.9 1.9 0 113.8 0 1.9 1.9 0 01-3.8 0zm0-7.21a1.9 1.9 0 113.8 0 1.9 1.9 0 01-3.8 0zm-2.76-6.56a1.9 1.9 0 110 3.79 1.9 1.9 0 010-3.8zm-7.22 0a1.9 1.9 0 110 3.8 1.9 1.9 0 010-3.8zm-6.56 6.55a1.9 1.9 0 113.8 0 1.9 1.9 0 01-3.8 0z"/>
        <circle cx="-392.837" cy="513.17" r="2.349"/>
      </g>
      <g class="secondary" transform="matrix(.271 .271 -.271 .271 220.2 -100.7)">
        <path d="M-99.5 668.84c.43 2.55 4.17 4.9 8.64 4.9 4.47 0 8.21-2.35 8.64-4.9z"/>
        <path d="M-98.28 641.33h14.84l1.62 23.33H-99.9z"/>
        <path d="M-95 552.49h8.3l3.22 84.38h-14.76z"/>
        <rect width="10.802" height="2.221" x="-96.258" y="550.981" rx="1.11" ry="1.11"/>
        <rect width="10.802" height="2.221" x="-96.258" y="544.015" rx="1.11" ry="1.11"/>
        <rect width="16.253" height="4.745" x="-98.984" y="546.236" rx="2.372" ry="2.372"/>
        <rect width="17.132" height="3.498" x="-99.423" y="630.515" rx="1.749" ry="1.749"/>
        <rect width="17.132" height="3.498" x="-99.423" y="638.657" rx="1.749" ry="1.749"/>
        <rect width="20.543" height="2.221" x="-101.129" y="660.158" rx="1.11" ry="1.11"/>
        <rect width="24.379" height="2.221" x="-103.047" y="667.022" rx="1.11" ry="1.11"/>
        <rect width="23.319" height="4.644" x="-102.517" y="662.379" rx="2.322" ry="2.322"/>
        <rect width="21.178" height="4.644" x="-101.446" y="634.013" rx="2.322" ry="2.322"/>
      </g>
    </g>
    <g transform="matrix(0 -1.1 1.1 0 64 141)">
      <g transform="matrix(.249 .249 -.249 .249 274.3 -21.26)">
        <circle cx="-367.662" cy="513.168" r="23.01"/>
        <path class="secondary" d="M-375.28 504.49a4.01 4.01 0 016.84-2.75c.5-.13 1.01-.15 1.5-.06a4.01 4.01 0 016.77 2.9c.42.24.8.58 1.08.99a4.01 4.01 0 012.75 6.84c.13.5.15 1.01.06 1.5a4 4 0 01-2.9 6.77c-.24.42-.58.8-1 1.08a4.01 4.01 0 01-6.83 2.75c-.5.13-1.01.15-1.5.06a4.01 4.01 0 01-6.77-2.9 3.46 3.46 0 01-1.08-1 4.01 4.01 0 01-2.75-6.83 3.46 3.46 0 01-.06-1.5 4.01 4.01 0 012.9-6.77c.24-.42.58-.8.99-1.08z"/>
        <path class="secondary" d="M-364.88 490.29a3.06 3.06 0 01-5.68 0c-4.51.55-6.77 1.92-10.51 4.09.67.64 2.8 1.44 4.24 1.46.3.23.66.41 1.08.55.01 1.21 1.8 2.2 4.01 2.2 1.07 0 2.04-.23 2.76-.6.5.04 1 .03 1.5-.05.73.4 1.73.65 2.83.65 2.18 0 3.96-.96 4.01-2.15.42-.16.75-.37 1-.6 2.2 0 4-.99 4-2.2a1 1 0 000-.1 22.87 22.87 0 00-9.24-3.25z"/>
        <path class="secondary" d="M-392.9 513.12c0-3.42 1.82-5.19 3.53-8.02.38-.63 1.12-.58.9.6-.14.69-.78 1.75-.8 3.29-.03 1.1.55 2.44.55 4.08 0 1.6-.58 2.93-.56 4.03.03 1.62.67 2.74.8 3.44.22 1.18-.51 1.23-.89.6-1.62-2.69-3.53-4.77-3.53-8.02z"/>
        <path class="secondary" d="M-342.45 513.13c0-3.43-1.83-5.2-3.53-8.03-.38-.62-1.12-.58-.9.6.14.7.78 1.75.8 3.3.03 1.1-.55 2.44-.55 4.07 0 1.6.57 2.93.56 4.04-.03 1.61-.67 2.74-.8 3.44-.23 1.18.5 1.22.88.6 1.63-2.7 3.54-4.78 3.54-8.02z"/>
        <circle cx="342.387" cy="513.168" r="2.349" transform="matrix(-1 0 0 1 0 0)"/>
        <path class="secondary" d="M-372.4 532.79c0-.03-1.94.9-3.67.2-2.19-.88-3.7-.57-3.44-.1.56.38 1.1.77 1.6 1.19-.98-.52-2-1.12-3.17-1.8.68-.64 2.8-1.44 4.25-1.46.29-.22.66-.4 1.08-.54 0-1.22 1.8-2.2 4.01-2.2 1.07 0 2.04.23 2.76.6.49-.04 1-.03 1.5.04.73-.4 1.73-.64 2.83-.64 2.18 0 3.96.96 4.01 2.15.41.16.75.36 1 .6 1.83 0 3.37.68 3.84 1.6-.6.02-1.43.18-2.39.56-1.73.7-5.62 7.78-5.64 7.8-2.05 2.04-7.7 2.5-8.57-8z"/>
        <path d="M-367.13 531.65c.27 1.49 2.43.46 2.7 1.95.26 1.47.07 5.19-1.11 6.94 1.57-1.57 2.11-6.18 3.68-7.75.02-.02 1.94.9 3.68.2 2.18-.88 3.68-.57 3.43-.1a20.18 20.18 0 00-7.26 8.41l-5.12.47-5.12-.47a20.18 20.18 0 00-7.26-8.4c-.25-.48 1.25-.8 3.44.1 1.73.7 3.65-.23 3.67-.2 1.57 1.56 2.11 6.17 3.68 7.74-1.18-1.75-1.36-5.47-1.1-6.94.26-1.5 2.43-.46 2.7-1.95z"/>
        <circle cx="-367.661" cy="513.168" r="3.556"/>
        <circle cx="-367.66" cy="489.205" r="3.055"/>
        <path d="M-377.89 516.73a1.9 1.9 0 113.8 0 1.9 1.9 0 01-3.8 0zm6.56 2.77a1.9 1.9 0 110 3.79 1.9 1.9 0 010-3.8zm7.21 0a1.9 1.9 0 110 3.79 1.9 1.9 0 010-3.8zm2.77-2.77a1.9 1.9 0 113.8 0 1.9 1.9 0 01-3.8 0zm0-7.21a1.9 1.9 0 113.8 0 1.9 1.9 0 01-3.8 0zm-2.76-6.56a1.9 1.9 0 110 3.79 1.9 1.9 0 010-3.8zm-7.22 0a1.9 1.9 0 110 3.8 1.9 1.9 0 010-3.8zm-6.56 6.55a1.9 1.9 0 113.8 0 1.9 1.9 0 01-3.8 0z"/>
        <circle cx="-392.837" cy="513.17" r="2.349"/>
      </g>
      <g class="secondary" transform="matrix(.271 .271 -.271 .271 220.2 -100.7)">
        <path d="M-99.5 668.84c.43 2.55 4.17 4.9 8.64 4.9 4.47 0 8.21-2.35 8.64-4.9z"/>
        <path d="M-98.28 641.33h14.84l1.62 23.33H-99.9z"/>
        <path d="M-95 552.49h8.3l3.22 84.38h-14.76z"/>
        <rect width="10.802" height="2.221" x="-96.258" y="550.981" rx="1.11" ry="1.11"/>
        <rect width="10.802" height="2.221" x="-96.258" y="544.015" rx="1.11" ry="1.11"/>
        <rect width="16.253" height="4.745" x="-98.984" y="546.236" rx="2.372" ry="2.372"/>
        <rect width="17.132" height="3.498" x="-99.423" y="630.515" rx="1.749" ry="1.749"/>
        <rect width="17.132" height="3.498" x="-99.423" y="638.657" rx="1.749" ry="1.749"/>
        <rect width="20.543" height="2.221" x="-101.129" y="660.158" rx="1.11" ry="1.11"/>
        <rect width="24.379" height="2.221" x="-103.047" y="667.022" rx="1.11" ry="1.11"/>
        <rect width="23.319" height="4.644" x="-102.517" y="662.379" rx="2.322" ry="2.322"/>
        <rect width="21.178" height="4.644" x="-101.446" y="634.013" rx="2.322" ry="2.322"/>
      </g>
    </g>
  </g>
</svg>
