<svg xmlns="http://www.w3.org/2000/svg" xmlns:xlink="http://www.w3.org/1999/xlink" fill="#d7374a" stroke="#000" viewBox="50 50 200 200">
  <metadata author="Bluebear2" source="https://commons.wikimedia.org/wiki/File:Manteau_pair.svg" license="https://creativecommons.org/licenses/by-sa/3.0"/>
  <g id="mantle" stroke-width=".117">
    <path d="m83.69 77.506-10.753-3.595-6.771 3.998-5.21 18.325s.96.74 1.28 1.143c.231.29.451.74.592 1.083.096.235.212.56.234.813.013.145-.01.342-.052.48-.075.251-.28.542-.399.775-.221.436-.71 1.36-.729 1.458-.02.098-.14.78-.05 1.117.107.4.412.92.749 1.162.158.114.478.035.63.158.246.198.264.702.467.944.27.32 1.125.822 1.125.822s-1.12.577-1.532.92a3.242 3.242 0 0 0-.533.603c-.146.214-.341.515-.394.768-.161.783-.065 1.898.178 2.66.363 1.142 1.516 2.354 2.088 3.407.661 1.22 1.007 3.196 1.99 4.176 1.16 1.16 3.379 1.848 4.943 2.344 1.315.418 4.53.788 4.53.788s1.399.293 1.892.63c.29.2.62.578.748.907.082.21.126.54.04.748-.125.302-.532.555-.808.73-.367.23-1.01.267-1.34.55-.13.113-.278.322-.295.493a.7.7 0 0 0 .177.492c1.549 1.528 4.752 1.808 6.855 2.364 1.581.419 3.73.841 5.358 1.005 3.385.34 11.34.168 11.34.168s7.956.172 11.342-.168c1.627-.164 3.777-.586 5.357-1.005 2.103-.556 5.307-.836 6.855-2.364a.7.7 0 0 0 .178-.492c-.017-.171-.165-.38-.296-.492-.33-.284-.972-.32-1.34-.552-.276-.174-.682-.427-.807-.729-.086-.208-.042-.539.04-.748.127-.329.457-.707.748-.906.493-.339 1.89-.63 1.89-.63s3.217-.371 4.531-.789c1.565-.496 3.783-1.184 4.945-2.344.982-.98 1.327-2.956 1.989-4.176.572-1.053 1.724-2.265 2.088-3.407.242-.762.339-1.877.177-2.66-.052-.253-.248-.554-.394-.768a3.235 3.235 0 0 0-.532-.603c-.413-.343-1.533-.92-1.533-.92s.856-.502 1.126-.822c.203-.242.22-.746.467-.944.151-.123.472-.044.63-.158.337-.241.642-.761.748-1.162.09-.337-.03-1.018-.05-1.117-.02-.099-.507-1.022-.728-1.458-.119-.233-.325-.524-.4-.774a1.437 1.437 0 0 1-.052-.48c.022-.254.138-.579.235-.814.14-.342.36-.793.59-1.083.32-.404 1.281-1.143 1.281-1.143l-5.209-18.325-6.772-3.998-10.752 3.595-16.351-4.227Z"/>
    <g id="mantle-a">
      <path class="secondary" d="M131.615 74.745c-.336.017-2.1-.34-2.362-.13-.235.19-1.219 1.093-1.35 1.365-.214.445-.193 1.317-.007 1.775.184.451.892.787 1.03 1.254.155.516-.154 1.246-.194 1.783-.03.408-.157.968-.056 1.365.109.425.684.82.752 1.253.018.11-.04.26-.083.362-.079.191-.301.388-.362.585-.202.648-.01 1.587-.112 2.257-.085.563-.473 1.838-.473 1.838s1.948-.67 2.735-.745c.754-.072 1.548.045 2.279.244.466.127 1.117.318 1.476.64.265.238.446.704.585 1.032.127.296.269.71.307 1.03.037.316-.236.797-.056 1.059.458.666 1.999 1.415 2.563.835.384-.393-.52-1.185-.613-1.727-.084-.486.112-1.163 0-1.643-.111-.48-.543-1.018-.724-1.477-.524-1.325-1.369-3.116-1.393-4.54-.01-.546.49-1.21.474-1.755-.016-.494-.586-1.07-.53-1.56.056-.489.551-1.014.864-1.393.391-.475 1.25-.833 1.504-1.393.279-.617.334-.924-.032-1.494-.462-.718-1.545-2.022-2.399-2.023-.88-.002-.958.652-1.822.819-.944.183-1.092.34-2 .384z"/>
      <g class="tertiary">
        <path d="M127.221 77.624s.255 1.879.383 2.68c.08.495.165 1.16.293 1.644.096.363.2.873.418 1.178.329.46.977.906 1.476 1.17a6.714 6.714 0 0 0 2.083.647c.411.05.978.024 1.379-.083.629-.169 1.943-.969 1.943-.969l-.397-.271s-1.043.496-1.526.578c-.589.1-1.412.09-1.991-.056-.445-.111-.98-.435-1.365-.682-.253-.162-.595-.391-.78-.627-.412-.523-.778-1.362-.947-2.006-.186-.705-.182-2.423-.182-2.423l-.787-.78z"/>
        <path d="M133.308 80.235c.024-.067.109-.127.167-.167a.933.933 0 0 1 .314-.132 1.177 1.177 0 0 1 .647.104.606.606 0 0 1 .223.195c.038.07.042.185.035.265a.729.729 0 0 1-.076.237c-.037.071-.092.173-.16.216-.1.061-.267.065-.384.07-.115.003-.28.01-.383-.042a.879.879 0 0 1-.348-.384c-.044-.1-.072-.259-.035-.362z"/>
        <path d="m133.76 81.001-.173 3.072.432-.16.076-2.877-.334-.035z"/>
        <path d="M134.276 80.987s.267.443.32.655c.054.213.028.512.029.731 0 .234-.028.78-.028.78s.11-.176.174-.237c.038-.036.146-.097.146-.097s.006-.727-.02-1.038c-.014-.153-.024-.363-.077-.508-.055-.15-.28-.453-.28-.453s-.041.094-.076.119c-.047.034-.188.048-.188.048z"/>
        <path d="m134.924 82.819-.14.09-.201.265.035.244.07.146.11.09.404.21.244-.112s.09-.236.105-.264c.014-.028-.035-.342-.035-.342l-.223-.236-.153-.105-.216.014z"/>
        <path d="M134.416 84.33s-.072.183-.091.265a1.612 1.612 0 0 0-.042.334c0 .09.014.213.042.3.025.076.065.184.125.237a.645.645 0 0 0 .342.125.816.816 0 0 0 .376-.084.854.854 0 0 0 .306-.271c.06-.098.1-.255.098-.37-.003-.126-.037-.313-.126-.403-.074-.076-.23-.094-.334-.112-.113-.02-.268-.003-.383-.007-.094-.003-.314-.014-.314-.014z"/>
        <path d="M135.182 85.5c-.078.048-.213.082-.258.16-.042.073.03.204-.007.279-.075.149-.354.198-.439.341a.594.594 0 0 0-.055.341c.014.108.057.278.153.328.289.151.764-.075 1.072-.181.198-.069.748-.334.886-.49.09-.103.251-.269.245-.406-.006-.135-.133-.357-.26-.404-.121-.044-.532.16-.62.116-.067-.035-.094-.158-.16-.195a.503.503 0 0 0-.307-.042c-.086.018-.175.107-.25.153z"/>
        <path d="M135.328 82.937s.313-.5.39-.738c.1-.311.189-.755.146-1.08-.035-.267-.448-.577-.348-.828.029-.072.176-.056.237-.105.078-.061.102-.257.202-.264.258-.018.49.378.612.606.084.155.12.401.112.578-.015.309-.12.732-.293.989-.226.336-1.058.842-1.058.842z"/>
        <path d="M135.223 80.284c.075.013.177-.015.251-.028.08-.014.198-.016.265-.063.07-.048.127-.157.16-.236a.49.49 0 0 0 .042-.216.409.409 0 0 0-.098-.216.628.628 0 0 0-.341-.153.758.758 0 0 0-.376.09.79.79 0 0 0-.195.181c-.05.06-.123.14-.14.216-.014.068-.006.174.035.23.079.107.267.172.397.195z"/>
        <path d="m134.409 80.026.383-.153s-.023.15.007.202c.05.09.285.188.285.188l-.383.244s.007-.205-.035-.279c-.048-.085-.257-.202-.257-.202z"/>
        <path d="M128.438 88.467c-.495.544-.387 1.689-.363 2.423.016.47.094 1.128.335 1.532.203.341.63.726 1.002.864.15.055.53 0 .53 0s-.27-.22-.39-.306c-.171-.124-.44-.237-.585-.39-.172-.184-.389-.476-.418-.725-.028-.233.074-.57.223-.752.305-.373.95-.643 1.42-.752.79-.183 1.904-.057 2.703.084.528.092 1.22.316 1.699.557.247.123.66.27.752.529.105.294-.083.76-.279 1.003-.367.457-1.196.668-1.727.92-.294.139-.978.092-1.002.417-.018.224.429.314.64.39 1.439.516 3.615.178 5.042.724.31.119.757.324.92.613.098.175-.166.614.028.669.3.085.578-.551.585-.864.008-.383-.505-.74-.669-1.086-.24-.504-.215-1.364-.613-1.755-.59-.58-2.175-.132-2.575-.857-.016-.03-.034-.13-.034-.13s-.395-.059-.271-.054c.082-.002.276.05.276.05s.17-.904.097-1.266c-.12-.594-.471-1.408-.947-1.783-.793-.624-2.25-.832-3.26-.835-.964-.003-2.471.065-3.12.78z"/>
        <path d="m135.003 86.975.042 2.75.313.305.021-.396.265.333.004-.377.258.275.086-.328.231.31.054-.345.175.334.062-.419.174.386-.013-.397.208.333.045-.42.248.28s-.07-.428-.042-.387c.028.042.263.257.263.257l-.044-.382.283.26-.009-.4.288.198-.018-.376.303.204-.09-.362-1.59-2.307-.555.337s-.507.201-.605.227c-.184.048-.357.135-.357.107z"/>
        <path d="m136.822 104.408-.46-.056s-.35-.272-.445-.431c-.131-.217-.254-.556-.237-.808.018-.278.29-.585.376-.85.068-.211.191-.506.153-.724-.042-.242-.245-.537-.432-.697-.238-.203-.96-.404-.96-.404s.46 2.06.793 2.897c.079.199.204.458.334.627.105.136.263.318.418.39.126.059.46.056.46.056z"/>
      </g>
      <g class="secondary">
        <path d="m136.836 104.422-.098.432s-.656-.465-.975-.585c-.493-.187-1.203-.264-1.727-.32-.386-.043-.935.105-1.295-.042-.348-.143-.92-.85-.92-.85s.761-1.312 1.226-1.755a4.128 4.128 0 0 1 1.24-.78c.146-.055.515-.084.515-.084s.443 1.945.738 2.744c.071.191.186.44.293.613.075.122.192.275.292.376.072.072.171.171.265.21.125.05.446.04.446.04z"/>
        <path d="M124.825 121.716s-.324.465-.444.665c-.13.215-.374.748-.374.748s-.509-.224-.69-.374c-.158-.131-.459-.583-.459-.583s.804-.225 1.148-.304c.245-.055.82-.152.82-.152z"/>
      </g>
      <g class="tertiary">
        <path d="M136.731 104.847s-.076.62-.076.654c0 .035 0 .466.055.655.083.283.36.593.46.87.069.191.14.662.14.662s-.75-.657-1.129-.843c-.413-.201-1.026-.314-1.476-.403-.686-.137-1.665-.028-2.313-.293-.517-.212-1.175-.661-1.483-1.128-.147-.223-.216-.864-.216-.864s.348-.036.467-.118c.292-.203.46-.76.661-.996.173.166.675.722.913.836.527.251 1.066-.115 1.664-.035.474.063 1.11.358 1.553.53.253.097.78.473.78.473z"/>
        <path d="M123.987 123.13s-.31.759-.374 1.102c-.069.36-.103 1.196-.103 1.196s-1.032-.324-1.434-.585c-.26-.168-.637-.42-.748-.71-.081-.21-.027-.54.059-.748.132-.322.462-.689.748-.886.202-.14.72-.329.72-.329s.322.47.482.605c.17.143.65.354.65.354z"/>
      </g>
      <path d="M112.873 77.37c1.437-.355 3.342-.867 4.767-1.269 1.146-.323 2.655-.82 3.805-1.132 1.162-.315 3.9-.952 3.9-.952l1.633 1.67s-4.41 2.945-6.591 3.356c-3.125.59-7.451-.322-10.55-1.04-.285-.066-.914-.341-.914-.341s.955.295 1.378.292c.791-.005 1.804-.395 2.572-.585z"/>
      <path d="M127.451 71.804c-.594.142-1.23.01-1.822.118-.204.067-.23.322-.246.512.04.213.042.425.04.64.16.339-.209.574-.119.897.134.269.347.538.542.69.166.128.29.097.413.305.237.285.428.67.779.837.075.028.187.014.266.03.125.018.235.082.354.117.682-.126 1.076-1.18 1.684-1.379.664-.068 1.342.08 2 .168.817.106 1.54-.256 2.314-.404.821-.075.713-.665 1.674-.768.572-.061 1.466.714 1.901.335.19-.165.175-.57.08-.788-.182-.415-.499-.937-.986-.936-.226 0-.522.213-.68.394-.085.098-.062.203-.187.244-.258-.178-.07-.473-.147-.756-.074-.189-.192-.448-.345-.581-.184-.16-.543-.184-.749-.315-.218-.14-.427-.433-.64-.581-.542-.342-1.145-.576-1.792-.532-.273.028-.639.108-.887.226-.219.105-.426.39-.65.483-.424.178-1.093.055-1.516.236-.434.287-.763.673-1.28.808z"/>
      <g class="tertiary">
        <path d="m126.81 75.709.857.278s.045.997.233 1.392c.211.445.692.944 1.1 1.22 1.142.768 4.301 1.615 4.301 1.615l.014.397s-.665-.118-.944-.185c-1.186-.284-2.745-.811-3.76-1.487-.487-.322-1.1-.86-1.38-1.372-.28-.513-.42-1.858-.42-1.858z"/>
        <path d="M128.565 78.954s.143 1.027.084 1.462c-.057.42-.189 1.006-.453 1.338-.295.37-.88.731-1.344.828-.61.127-1.494-.02-2.054-.292-.516-.251-1.125-.81-1.38-1.324-.435-.88-.486-2.277-.368-3.252.09-.75.395-1.774.87-2.36.373-.46 1.672-1.052 1.672-1.052s-.24-.173-.286-.286c-.035-.087.007-.313.007-.313s-1.447.685-1.894 1.184c-.462.514-.833 1.405-1.003 2.075-.225.888-.3 2.148-.14 3.05.123.685.455 1.603.9 2.138.36.436 1.037.858 1.573 1.038.582.195 1.44.256 2.04.132.596-.122 1.379-.486 1.804-.919.264-.269.464-.762.55-1.128.143-.602.022-2.022.022-2.022l-.6-.297z"/>
      </g>
    </g>
    <use xlink:href="#mantle-a" transform="translate(200 0) scale(-1 1)"/>
    <path class="secondary" d="M107.965 71.23H92.364s-.304.021-.433.039c-.29.053-.592.086-.867.197-.198.096-.426.288-.591.433-.987 1.146-2.07 2.224-3.388 2.955-1.29.715-2.81.917-4.215 1.379l4.235 1.201c2.42-.618 4.618-1.84 6.795-3.033 1.463-.914 2.805-1.993 4.068-3.161l3.96-.01.167.118c2.681 2.622 6.07 4.327 9.534 5.673.38.126 1.3.315 1.3.315l4.724-1.221c-1.764-.238-6.335-3.657-6.85-4.007-.542-.53-1.148-.634-1.857-.8-.147-.05-.981-.078-.981-.078z"/>
    <path class="tertiary" d="M102.155 71.426c-.66.62-1.354 1.203-2.061 1.77-2.725 1.88-5.828 4.102-9.137 4.874-1.298.029-2.602-.2-3.817-.654.777-.246 5.332-2.287 6.022-2.718 2.878-1.796 2.221-1.162 4.815-3.453l4.095.028c2.715 2.855 7.118 5.055 10.84 6.062-1.008.331-2.034.611-3.096.68-3.202-.342-7.086-3.04-9.778-4.764.447-.302 2.117-1.825 2.117-1.825z"/>
  </g>
</svg>
