<svg xmlns="http://www.w3.org/2000/svg" fill="#d7374a" stroke="#000" viewBox="50 50 200 200">
<metadata source="https://commons.wikimedia.org/wiki/File:Coa_Illustration_Elements_Tool_Millstone.svg" author="Madboy74" license="https://www.gnu.org/licenses/fdl-1.3.html"/>
  <g id="millstone" stroke-width="3" transform="matrix(0.18,0,0,0.18,63.25,73.1)">
    <path d="M202.46 20.64C90.96 20.64 6.2 46 6.2 142.04c0 27.21 4 50 12.46 68.85 14.13 46.83 91.04 82.61 183.8 82.61 92.4 0 169.07-35.52 183.61-82.1 8.64-18.94 12.73-41.88 12.73-69.36 0-96.05-84.85-121.4-196.34-121.4z"/>
    <path d="M388.6 104.67a186.1 98.17 0 01-372.21 0 186.1 98.17 0 11372.21 0z"/>
    <g fill="#000" stroke-width="2.5">
      <path fill-opacity="0.4" d="M255.15 101.26a52.95 27.93 0 11-105.9 0 52.95 27.93 0 11105.9 0z"/>
      <path fill-opacity="0.3" d="M132.13 86.7l-3.84 29.1h28.76c-4.92-4.23-7.84-9.2-7.84-14.55 0-5.33 2.92-10.3 7.84-14.55h-24.92zm115.2 0c4.93 4.24 7.85 9.22 7.85 14.55 0 5.34-2.92 10.32-7.84 14.56h29.37l-3.84-29.1h-25.53z"/>
    </g>
  </g>
</svg>
