<svg xmlns="http://www.w3.org/2000/svg" fill="#d7374a" stroke="#000" viewBox="50 50 200 200">
  <metadata source="http://wappenwiki.org/images/f/f5/Ellwangen.svg" license="https://creativecommons.org/licenses/by-nc-sa/3.0"/>
  <g id="mitre" stroke-width=".31">
    <g>
      <path stroke-linecap="round" d="M112.58 67.16c-.35 1.35-1.64 1.82-2.99 1.47s-2.24-1.38-1.9-2.73 1.72-2.14 3.07-1.8a2.52 2.52 0 0 1 1.82 3.06z"/>
      <path class="tertiary" stroke-linecap="round" d="M109.97 67.82c-3.66-.95-23.91 14.7-27.98 30.48-1.59 6.17.57 10.83.29 14.48l.21.38a23.59 23.59 0 0 0 .6.81c2.12.16 7.47.68 14.36 2.46a91.4 91.4 0 0 1 9.65 3.06c1.72.19 3.49-.22 5.19-.42a.41.41 0 0 1 .43.22l.59-.13c1.83-2.75 5.02-5.62 6.44-11.13 4.01-15.62-6.11-39.27-9.78-40.21z"/>
      <g>
        <path stroke-linecap="round" d="M118.75 96.09c.42 4.39.43 8.31-.4 11.58a21.92 21.92 0 0 1-2.04 5.13c.7.51.68.24 1.16.64a20.01 20.01 0 0 0 2.28-5.41c4.01-15.6-6.11-39.27-9.78-40.21-3.66-.95-23.91 14.7-27.98 30.48a19.73 19.73 0 0 0-.58 5.83c.6-.1.46.12 1.33 0a21.32 21.32 0 0 1 .65-5.46c.84-3.3 2.76-6.77 5.26-10.4 2.16-3.16 5.25-6.31 8.34-9.29a58.92 58.92 0 0 1 8.03-6.65c2.4-1.59 3.8-2.14 4.38-2.28.43.4 1.4 1.57 2.73 4.14a61.45 61.45 0 0 1 3.8 9.75c1.26 4.09 2.45 8.35 2.82 12.15z"/>
      </g>
    </g>
    <g>
      <path class="tertiary" stroke-linecap="round" d="M116.5 118.06c0 .9-6.17 1.42-16.46 1.42s-16.25-.5-16.25-1.52l16.24-4.47 16.47 4.57z"/>
      <path stroke-linecap="round" d="M83.77 118.23c0-4.13-4.18-8.42-4.18-15.83 0-17.1 16.48-38.3 20.44-38.3s20.45 21.4 20.45 38.3c0 7.75-4.18 11.77-4.18 15.83 0 0-6.51-1.46-16.27-1.46s-16.26 1.47-16.26 1.47z"/>
      <path class="secondary" stroke-linecap="round" d="M95.2 105.94v-35.7c-5.64 6.3-14.83 20.1-14.83 31.27 0 2.93-.02 5.4.71 7.47 3.18-1.2 9.3-2.53 14.11-3.04zm23.58 3.05c.72-2.03.57-5.05.57-8.06 0-10.98-8.75-24.16-14.37-30.54v35.56c4.8.52 10.64 1.83 13.8 3.04z"/>
      <path stroke-linecap="round" d="M101.8 87.78c0 1.2-.87 2.05-1.94 2.05-1.07 0-1.95-.86-1.95-2.05 0-1.2.88-2.05 1.95-2.05 1.08 0 1.94.85 1.94 2.05zm-10.36 9.81c0 2.04-1.5 3.5-3.32 3.5s-3.33-1.46-3.33-3.5 1.5-3.5 3.33-3.5 3.32 1.45 3.32 3.5zm17.2 0c0 2.04 1.49 3.5 3.32 3.5s3.33-1.46 3.33-3.5-1.5-3.5-3.33-3.5-3.33 1.45-3.33 3.5z"/>
      <g>
        <path stroke="none" fill="#0F0D0A" d="m90.87 97.36.02.2v.24c-.01.1 0 .2-.03.32-.02.11-.04.24-.09.37l-.06.2-.08.2c-.02.07-.06.14-.1.2l-.12.2-.13.2-.16.17-.17.17-.18.15-.18.14-.2.11-.2.1a.64.64 0 0 1-.19.07l-.18.06-.18.03-.16.03h-.16l-.13.02-.12-.01-.2-.02.2-.04.1-.02.13-.03.15-.03.15-.06.16-.06.17-.07a.72.72 0 0 0 .17-.1l.18-.1.17-.1.17-.14.16-.15.16-.15.14-.17.13-.17.11-.18.1-.17.1-.18.07-.17c.05-.12.08-.23.11-.34l.04-.16.03-.14c.02-.1.04-.17.04-.24l.06-.18zm20.84 3.15.2-.04.12-.02.13-.03.13-.03.15-.06.17-.06.16-.07a.72.72 0 0 0 .18-.1l.17-.1.18-.1.16-.14.17-.15.15-.15.15-.17.12-.17.11-.18.1-.17.1-.18.07-.17.12-.34.04-.16.03-.14c.02-.1.04-.17.04-.24l.04-.2a3.54 3.54 0 0 0 .02.45c-.01.1 0 .2-.03.32-.02.11-.03.24-.08.37l-.06.2-.09.2c-.02.07-.06.14-.1.2l-.11.2-.14.2-.15.17-.18.17-.17.15-.19.14-.2.11c-.05.04-.13.06-.19.1a.64.64 0 0 1-.2.07l-.18.06-.17.03-.17.03h-.15l-.14.02-.11-.01-.2-.01z"/>
      </g>
      <path stroke-linecap="round" d="M101.8 99.47c0 1.2-.87 2.05-1.94 2.05-1.07 0-1.95-.86-1.95-2.05s.88-2.05 1.95-2.05c1.08-.01 1.94.85 1.94 2.05zm0-23.37c0 1.2-.87 2.05-1.94 2.05-1.07 0-1.95-.86-1.95-2.05s.88-2.05 1.95-2.05c1.08-.01 1.94.85 1.94 2.05zm.33 34.8c0 1.25-1.02 2.15-2.27 2.15-1.26 0-2.28-.9-2.28-2.16s1.02-2.16 2.28-2.16c1.25 0 2.27.9 2.27 2.16zm9.5.83c-.17 1.24-1.2 2.01-2.33 1.87-1.12-.14-1.91-1.16-1.75-2.41.17-1.25 1.2-2.02 2.32-1.87s1.92 1.16 1.75 2.4zm-23.17 0c.16 1.24 1.2 2.01 2.31 1.87 1.13-.14 1.92-1.16 1.75-2.41-.16-1.25-1.19-2.02-2.31-1.87s-1.92 1.16-1.75 2.4zm-7.99 2.16c.36 1.2 1.5 1.81 2.59 1.5 1.08-.33 1.02-1.21.66-2.42s-.8-2.06-1.9-1.73c-1.09.32-1.7 1.44-1.35 2.65zm38.78 0c-.36 1.2-1.5 1.81-2.58 1.5-1.08-.33-1.02-1.21-.66-2.42s.8-2.06 1.9-1.73 1.7 1.44 1.34 2.65z"/>
      <path stroke-linecap="round" d="M116.35 90.54c1.58 4.34 2.61 8.33 2.61 11.86 0 1.95-.3 4.23-.73 5.75.85.34.75.07 1.35.35a21.01 21.01 0 0 0 .9-6.1c0-16.9-16.48-38.3-20.45-38.3S79.6 85.3 79.6 102.4a20.5 20.5 0 0 0 .95 6.08c.6-.27.49 0 1.34-.34a22.44 22.44 0 0 1-.77-5.73c0-3.57 1.04-7.59 2.62-11.94 1.37-3.77 3.69-7.8 6.04-11.62a62.49 62.49 0 0 1 6.41-8.86c2.02-2.25 3.32-3.17 3.85-3.46.54.29 1.84 1.22 3.87 3.5a63.76 63.76 0 0 1 6.4 8.9c2.36 3.83 4.68 7.85 6.05 11.6z"/>
      <path stroke-linecap="round" d="m119.65 108.53-.07-.03v0l-.22-.1s0 0 0 0c-.55-.25-5.69-2.25-14.06-3.11V71.68a60.05 60.05 0 0 0-1.17-1.4v36.07l.54.05c7.15.65 12.03 2.05 14.51 3.2.08.03.17.04.25.04.21 0 .32-.12.41-.34.12-.28.11-.63-.19-.77zm-24.87-36.9v33.65c-8.43.76-13.46 2.84-14 3.09h-.02l-.22.1h0l-.08.03c-.29.14-.3.49-.16.77.1.22.2.34.41.34a.7.7 0 0 0 .25-.05c2.47-1.14 7.34-2.53 14.46-3.17l.53-.05v-36.1c-.4.44-.78.9-1.17 1.39zm7.72-8.86c0 1.46-1.18 2.28-2.64 2.28s-2.65-.82-2.65-2.28 1.19-2.63 2.65-2.63 2.65 1.17 2.65 2.63z"/>
      <path stroke-linecap="round" stroke-linejoin="round" d="M116.15 117.26a80.4 80.4 0 0 0-16.06-1.71 80.15 80.15 0 0 0-16.05 1.7c-.46.08-.64.42-.6.87.06.45.4.71.78.87 2.99 1.05 9.91 1.37 15.87 1.37 5.97 0 12.93-.35 15.88-1.37.39-.12.72-.38.78-.87.06-.48-.11-.82-.6-.86zm-16.04 1.63c-9.25 0-13.05-.69-13.78-.69a86.64 86.64 0 0 1 13.78-1.22c6.32 0 12.61 1 13.76 1.22-.7.03-4.53.7-13.76.7z"/>
    </g>
    <g>
      <g>
        <g>
          <path stroke-linecap="round" stroke-linejoin="round" d="M79.2 129.3c2.58-2.05 3.33-2.99 4-6 1.85-1.86 7.67 3.1 10.98.02 1.95-1.8 1.25 3.13-2.51 6.21-3.88 2.48-8.47-2.77-12.47-.23z"/>
          <path stroke-linecap="round" stroke-linejoin="round" d="M79.2 129.3c.28-1.29 1.31-1.38 4-6-1.07 3.8 6.13 9.67 6.13 9.67s-2.55 3.17-4.35 5.45c-4.63-4.1-6.07-7.82-5.78-9.12zm5.8 9.13c1.79-2.28 4.34-5.45 4.34-5.45l1.9 1.49s-2.55 3.16-4.34 5.45l-1.9-1.49zm4.03-1.21-1.9-1.49m2.96.13-1.9-1.48m-.23 4.18-1.9-1.49m4.56-1.88-1.9-1.48m-.24 4.19-1.9-1.49m2.97.13-1.9-1.49m-.24 4.2-1.91-1.49"/>
        </g>
        <path stroke-linecap="round" stroke-linejoin="round" d="m93.5 117.2.45 3.3a19.26 19.26 0 0 1 .25 3.78c-.26 3.13-1.62 4.47-2.53 5.26 4.18-2.89 6.02-5.94 6.9-9.47.2-1.13.05-2.28-.1-3.1-1.71.03-3.4.11-4.98.23z"/>
      </g>
      <g>
        <g>
          <path stroke-linecap="round" stroke-linejoin="round" d="M120.78 129.3c-2.59-2.05-3.34-2.99-4-6-1.85-1.86-7.67 3.1-10.99.02-1.95-1.8-1.25 3.13 2.51 6.21 3.89 2.48 8.47-2.77 12.48-.23z"/>
          <path stroke-linecap="round" stroke-linejoin="round" d="M120.78 129.3c-.3-1.29-1.32-1.38-4-6 1.06 3.8-6.14 9.67-6.14 9.67s2.56 3.17 4.35 5.45c4.63-4.1 6.08-7.82 5.79-9.12zm-5.8 9.13a586.06 586.06 0 0 0-4.35-5.45l-1.9 1.49s2.55 3.16 4.34 5.45l1.9-1.49zm-4.04-1.21 1.9-1.49m-2.96.13 1.9-1.48m.23 4.18 1.9-1.49m-4.56-1.88 1.91-1.48m.24 4.19 1.9-1.49m-2.97.13 1.9-1.49m.24 4.2 1.9-1.49"/>
        </g>
        <path stroke-linecap="round" stroke-linejoin="round" d="m106.48 117.2-.45 3.3a19.26 19.26 0 0 0-.26 3.78c.27 3.13 1.63 4.47 2.53 5.26-4.18-2.89-6.02-5.94-6.9-9.47a8.61 8.61 0 0 1 .1-3.1c1.72.03 3.4.11 4.98.23z"/>
      </g>
    </g>
  </g>
</svg>
