<svg xmlns="http://www.w3.org/2000/svg" fill="#d7374a" stroke="#000" viewBox="50 50 200 200">
  <metadata source="http://wappenwiki.org/images/4/46/Slatte.svg" license="https://creativecommons.org/licenses/by-nc-sa/3.0"/>
  <g id="moonInCrescent" stroke-width=".342">
    <g>
      <path stroke-linejoin="round" d="M128.6124 64.9788c-5.6544-3.705-11.7192-4.9818-17.3964-4.9818-22.002 0-39.0678 17.841-39.0678 39.843s17.0658 39.9684 39.0678 39.9684c5.6772 0 11.4684-1.4136 17.3964-4.9134-7.2048 1.7442-10.7958 1.3224-15.8232-.6498-3.7392-1.4706-3.933-3.2718-6.5436-4.7994-1.4934-.8778-3.2262-1.2426-4.7994-1.9494-1.5846-.7182-2.9868-1.311-3.9444-2.8614-.7182-1.1628-1.1742-2.4738-1.3452-3.8304 1.8582-.342 2.2344-1.7556 2.2572-2.0292.114-1.5846-1.5732-2.0292-1.5732-2.7474.6612-.1254 1.8126-.5814 1.9608-1.6416.114-.7752-.9006-1.0602-1.6302-1.8696-.4446-.4902-.8892-1.425-.969-2.0748 1.9038-.684 6.0648 1.1856 6.8286-1.5732.4218-1.5504-1.197-3.477-2.3712-6.0762-.9348-2.0406-2.5308-5.1642-2.4738-6.6462.0798-1.995.7524-1.8924 1.4136-3.6252.4446-1.1628.5814-2.4966.114-3.648-.4788-1.197-1.0716-2.0976-1.4706-3.3174-.5472-1.7328-.2052-2.394.4218-3.3744 1.3908-2.28 1.824-4.731 1.9266-5.6544.5928-5.6202 7.239-10.9782 12.54-12.0384 5.358-1.0602 10.4652-.8322 15.4812.4902z"/>
    </g>
    <path fill="#F6F6F6" d="M83.9586 96.078c1.9608.7524 5.2554 1.0944 7.2846.513 2.0178-.5814 2.9982-1.8582 4.2522-3.5454-1.4022-.6612-2.7816-1.9494-4.332-1.9836-3.1122-.0684-5.244 2.736-7.2048 5.016z"/>
    <g stroke="none" fill="#000">
      <path d="M96.8976 116.199c-.6156.1596-1.2312.171-1.8468.1368-.6156-.0456-1.2198-.1482-1.8012-.3534-.5814-.1938-1.1172-.4788-1.6644-.7296-.5472-.2508-1.1058-.4788-1.71-.5472.6042.0456 1.1856.2508 1.7442.4788.5586.228 1.1058.4788 1.6758.6384.57.1596 1.1628.2394 1.7556.2508.5928.0114 1.1856-.0456 1.7328-.2166z"/>
    </g>
    <path fill="none" d="M87.1506 92.658c1.1628-.969 2.4624-1.6416 4.0014-1.6074.912.0228 1.7556.4788 2.5878.9804 0 .0456.0114.0912.0114.1368 0 1.8354-1.482 3.3174-3.3174 3.3174-1.6644.0114-3.0438-1.2198-3.2832-2.8272z"/>
    <g stroke="none" fill="#000">
      <path d="M80.0256 104.8674c0 .2166 0 .4104.0228.5928.0114.1938.0456.3762.0912.5586s.1026.3534.171.5358c.0684.1824.1596.3534.2508.5358-.1938-.0798-.3648-.2394-.4902-.4104-.1254-.171-.2166-.3762-.2736-.5814-.0456-.2166-.057-.4332-.0228-.6498.0342-.2052.114-.4218.2508-.5814z"/>
      <path d="M96.2022 120.987c-.399.0912-.8094.114-1.2198.1026-.4104-.0228-.8094-.0912-1.197-.1938-.7752-.2052-1.4934-.5472-2.2002-.9006.7296.2964 1.4706.5814 2.2458.7296.3876.0684.7752.114 1.1514.1026a4.6583 4.6583 0 0 0 1.1286-.171z"/>
    </g>
    <g>
      <path fill="none" stroke-linejoin="round" d="M96.0882 89.4204c.0114-.0114.0228 0 .0228 0 .1482-.0456.2052-.57.2166-.684.0342-.2622.0342-.5928-.0912-.9918-.114-.3876-.4104-.8436-.8778-1.14-.4674-.3078-1.0488-.456-1.6074-.4788h-.2166l-.228.0114c-.1254 0-.228.0114-.3648.0228-.2736.0342-.5586.0684-.8208.114-1.0716.1938-2.1546.6042-3.1464 1.0602-.9918.456-1.8924.969-2.7246 1.368-.8322.399-1.596.6954-2.3028.8436-.3534.0684-.6954.1254-1.0032.1368-.3078.0114-.5928.0228-.8208.0114-.228-.0114-.4218-.0114-.5472-.0342-.1368-.0114-.2052-.0114-.2052-.0114s.057.0456.1482.1254c.1026.0798.2508.2052.4674.3306.2052.1254.4788.285.8094.4104s.7182.2508 1.1628.3192c.8892.1482 1.9608.0456 2.9982-.2622 2.3712-.684 4.6056-2.3598 7.1706-2.0976.9462.1026 1.9038.9918 1.9608.9462z"/>
    </g>
    <g stroke="none" fill="#000">
      <path d="M90.0804 109.4844c.2166.2964.4218.6042.5586.9576.0684.171.114.3648.1254.5586.0114.1938-.0114.399-.0684.5814-.1254.3876-.399.684-.6954.9234-.3078.2394-.6498.399-.9804.5586-.3306.1482-.6612.2964-.9462.4902-.1482.0912-.285.2052-.4104.3192-.1254.1254-.2508.2508-.3534.3876-.4332.5472-.7068 1.2312-.7752 1.9608-.0798-.7296.1254-1.4934.5586-2.1204.2052-.3192.4902-.5928.798-.8094.3078-.228.6612-.3762.9804-.5358.3306-.1482.6498-.3078.9234-.5016.2736-.2052.513-.456.6498-.7638.1254-.3078.1254-.6612.0342-1.0032-.0798-.3534-.2394-.6726-.399-1.0032z"/>
      <path d="M97.6842 109.2108c-.4902-.171-1.0146-.228-1.5162-.1596-.5016.0684-.9576.2964-1.4364.513-.114.057-.2394.114-.3648.1596-.057.0228-.1254.0456-.1824.0798l-.0912.0342-.1026.0342c-.2736.0798-.57.0798-.8436.0228-.285-.057-.5472-.1824-.7752-.3648a1.6447 1.6447 0 0 1-.5016-.684v-.0114c-.1368-.3876-.2052-.8094-.2052-1.2198s.0684-.8322.1824-1.2198c.1254-.3876.2964-.7638.5244-1.0944.228-.342.4902-.6498.798-.9006-.513.6042-.9006 1.3224-1.083 2.0748-.0912.3762-.1368.7638-.114 1.14.0114.3876.0912.7638.2166 1.1172v-.0114c.1938.4332.5814.7638 1.0374.855.228.057.4788.0456.6954 0l.0798-.0228.0912-.0342c.057-.0228.114-.0456.1824-.0684.114-.0456.2394-.0912.3534-.1482.2394-.0912.4902-.1938.741-.2736.2508-.0798.5244-.1368.7866-.1482.5244-.0342 1.0716.0798 1.5276.3306z"/>
      <path d="M83.2062 94.4478c.285-.2394.513-.5586.7068-.8778.1938-.3192.3762-.6612.57-.9804.1938-.3306.399-.6498.6384-.9462.2394-.3078.5016-.5814.7866-.855l.228.2622c-.285.228-.5586.4788-.8094.7524-.2508.2736-.4788.57-.6954.8778-.2166.3078-.4218.627-.6384.9348-.228.3078-.4788.6042-.7866.8322z"/>
      <path d="M95.7462 91.6548c-.6042-.5928-1.2084-1.197-1.8924-1.6872-.6726-.4902-1.4364-.8778-2.2458-1.0146l.0684-.3306c.4332.1026.8436.2736 1.2198.4788s.7296.456 1.0602.7296c.6612.5472 1.2198 1.1856 1.7898 1.824z"/>
      <path d="M88.9746 92.145c0 .8436.684 1.539 1.539 1.539.8436 0 1.539-.684 1.539-1.539s-.684-1.2768-1.539-1.2768c-.855 0-1.539.4332-1.539 1.2768z"/>
    </g>
  </g>
</svg>
