<svg xmlns="http://www.w3.org/2000/svg" fill="#d7374a" stroke="#000" viewBox="50 50 200 200">
  <metadata source="http://wappenwiki.org/images/6/66/Arch-Steward.svg" license="https://creativecommons.org/licenses/by-nc-sa/3.0"/>
  <g id="orb" stroke-width=".338">
    <path d="M102.454 98.008V76.296h7.246a2.95 2.95 0 0 0 2.71 4.106 2.94 2.94 0 0 0 2.847-3.656c.124.022.259.022.394.022a2.95 2.95 0 0 0 2.947-2.947 2.95 2.95 0 0 0-2.947-2.948c-.135 0-.259.011-.394.023a2.91 2.91 0 0 0 .09-.71 2.947 2.947 0 0 0-2.936-2.947 2.95 2.95 0 0 0-2.712 4.107h-7.245v-6.278a2.95 2.95 0 0 0 4.107-2.711 2.94 2.94 0 0 0-3.657-2.847c.023-.123.023-.258.023-.393a2.95 2.95 0 0 0-2.948-2.948 2.95 2.95 0 0 0-2.947 2.948c0 .135.011.258.022.393a2.91 2.91 0 0 0-.708-.09 2.947 2.947 0 0 0-2.948 2.937 2.95 2.95 0 0 0 4.107 2.711v6.311H90.26a2.95 2.95 0 0 0-2.712-4.106 2.95 2.95 0 0 0-2.947 2.948c0 .247.034.483.09.708a4.349 4.349 0 0 0-.394-.022 2.94 2.94 0 1 0 0 5.884c.135 0 .259-.012.394-.023a2.91 2.91 0 0 0-.09.709 2.95 2.95 0 0 0 2.947 2.947 2.95 2.95 0 0 0 2.712-4.106h7.245V98.03"/>
    <path d="M116.393 98.807c0 6.086-6.502 11.025-16.402 11.025-9.889 0-16.403-4.939-16.403-11.025 0-4.005 6.424-10.62 16.403-10.62 9.978-.012 16.402 6.03 16.402 10.62z"/>
    <path class="tertiary" d="M124.73 115.94c0 13.658-11.07 24.728-24.728 24.728s-24.727-11.07-24.727-24.727c-.012-13.658 11.058-24.728 24.727-24.728 13.658 0 24.727 11.07 24.727 24.727z"/>
    <path d="M100.002 91.213a24.9 24.9 0 0 0-4.792.473v18.798l-2.813.327c-6.345.742-12.229 2.317-17.123 4.837v.293c0 3.397.687 6.648 1.936 9.596.753-.473 1.597-.912 2.475-1.373 4.477-2.351 12.768-3.847 20.306-3.847 7.537 0 15.772 1.631 20.306 3.847.889.439 1.721.9 2.486 1.373l.011.011a24.603 24.603 0 0 0 1.936-9.608c0-.157 0-.326-.012-.483a1.62 1.62 0 0 1-.202.191c-4.894-2.43-10.778-4.095-17.123-4.837l-2.812-.327v-18.81l.022-.022a24.736 24.736 0 0 0-4.601-.439z"/>
    <path d="M99.99 123.512c9.63 0 17 2.092 21.353 4.893 0 0 1.001.383 1.62-.798s-.18-2.07-.18-2.07a30.065 30.065 0 0 0-2.486-1.373c-4.534-2.216-12.769-3.847-20.306-3.847s-15.83 1.496-20.307 3.847c-.877.461-1.721.9-2.486 1.373 0 0-.405 1.046-.079 1.946.338.9 1.519.911 1.519.911 4.354-2.79 11.734-4.882 21.352-4.882z"/>
    <path d="M75.275 115.648c4.893-2.43 10.777-4.095 17.122-4.838l2.813-.326v-18.81s-.372-.585-1.598-.427c-1.226.157-1.597 1.282-1.597 1.282v15.109c-5.94.698-11.554 2.171-16.426 4.331 0 0-.922.473-1.023 1.8-.09 1.339.708 1.879.708 1.879z"/>
    <path d="M124.516 115.648c-4.894-2.43-10.778-4.095-17.123-4.838l-2.812-.326v-18.81s.371-.585 1.597-.427c1.227.157 1.598 1.282 1.598 1.282v15.109c5.951.698 11.565 2.171 16.436 4.331 0 0 .923.473 1.024 1.8.09 1.339-.72 1.879-.72 1.879z"/>
    <rect width="8.213" height="8.213" x="95.885" y="69.568"/>
    <g class="secondary">
      <ellipse cx="99.991" cy="114.647" rx="3.386" ry="3.521"/>
      <ellipse cx="99.991" cy="105.658" rx="2.959" ry="3.071"/>
      <ellipse cx="109.43" cy="115.941" rx="2.959" ry="3.071"/>
      <path d="M120.668 118.168c0 1.699-1.327 3.071-2.959 3.071s-2.958-1.372-2.958-3.071 1.327-3.071 2.959-3.071c1.63-.012 2.958 1.372 2.958 3.071z"/>
      <ellipse cx="99.991" cy="96.669" rx="2.959" ry="3.071"/>
      <path d="M122.513 123.163c1.744.664 2.813.045 3.364-1.395.551-1.44.371-3.15-1.373-3.814 0 0-.866-.225-1.653 2.25-.799 2.475-.338 2.96-.338 2.96z"/>
      <ellipse cx="90.394" cy="115.941" rx="2.959" ry="3.071"/>
      <path d="M79.156 118.168c0 1.699 1.327 3.071 2.958 3.071s2.96-1.372 2.96-3.071-1.328-3.071-2.96-3.071c-1.642-.012-2.958 1.372-2.958 3.071z"/>
      <path d="M77.31 123.163c-1.743.664-2.812.045-3.363-1.395-.551-1.44-.371-3.15 1.372-3.814 0 0 .867-.225 1.654 2.25.799 2.475.338 2.96.338 2.96z"/>
      <rect width="5.344" height="5.344" x="97.325" y="71.008"/>
    </g>
  </g>
</svg>
