<svg xmlns="http://www.w3.org/2000/svg" fill="#d7374a" stroke="#000" viewBox="50 50 200 200">
  <metadata source="http://wappenwiki.org/images/4/4a/Jules_L%C3%A9ger%2C_Governor-General_of_Canada.svg" license="https://creativecommons.org/licenses/by-nc-sa/3.0"/>
  <g id="owlDisplayed" stroke-width=".25">
    <path stroke-width=".38" d="M104.67 104.04c-.82 2.35.37 6.03.9 7.67.33 1.01.74 2.33.8 3.38.07.87.02 1.76-.46 2.55-.39.16-.97.23-1.32.02-.12.24-.57.31-.82.4a.75.75 0 0 1-.65-.04c-.05.18-.45.17-.62.23a1.3 1.3 0 0 1-.54.03c-.21-.03-.45-.04-.55-.17-.1.15-.26.2-.6.25-.32.05-.7-.03-.84-.17-.13.14-.5.22-.83.17-.34-.05-.5-.1-.6-.25-.12.13-.34.14-.55.17-.18 0-.36.02-.54-.03s-.57-.05-.63-.23a.75.75 0 0 1-.64.04c-.26-.09-.7-.16-.82-.4-.36.21-.95.13-1.32-.02a4.22 4.22 0 0 1-.47-2.55c.08-1.07.48-2.38.8-3.38.53-1.64 1.73-5.32.9-7.67"/>
    <g stroke="none" fill="#000">
      <polygon points="99.99 111.95 100.17 118.2 99.8 118.2"/>
      <path d="M100.86 110.13c.03.67.11 1.33.23 2 .11.66.25 1.32.38 1.98l.2 1a6.95 6.95 0 0 1 .1 2.05c-.02.35-.07.69-.18 1.04l-.35-.13a6.54 6.54 0 0 0 .19-2.9 183.8 183.8 0 0 1-.46-3c-.06-.7-.12-1.37-.1-2.05zm1.25-.38c.03.7.18 1.39.34 2.08a54.1 54.1 0 0 0 .81 3.06 10.15 10.15 0 0 1 .21 2.14c0 .36-.03.72-.16 1.08l-.35-.12c.12-.3.17-.64.19-.98a9.18 9.18 0 0 0-.34-3.08c-.16-.7-.32-1.38-.45-2.07a10.25 10.25 0 0 1-.25-2.11zm1.3-.54c.01.37.08.72.15 1.08l.26 1.05a65.38 65.38 0 0 0 .66 2.06l.32 1.04c.05.17.09.36.11.55l.07.55c.02.36.02.73 0 1.1-.03.37-.08.73-.2 1.11l-.35-.13c.1-.3.18-.66.22-1a7.49 7.49 0 0 0-.36-3.16c-.2-.7-.4-1.39-.56-2.1-.1-.35-.17-.7-.23-1.06a6.38 6.38 0 0 1-.09-1.09zm-4.3.92c.01.67-.05 1.35-.14 2.02a51.3 51.3 0 0 1-.3 2l-.15 1c-.05.33-.06.66-.07.99 0 .34.01.66.05.99.04.32.1.65.21.93l-.35.13a4.32 4.32 0 0 1-.19-1.04 9.38 9.38 0 0 1 .1-2.05l.2-1c.14-.66.28-1.32.4-1.99a10.55 10.55 0 0 0 .24-1.98zm-1.25-.38a12 12 0 0 1-.24 2.1l-.45 2.06-.22 1.03c-.06.34-.1.69-.11 1.02-.03.35-.03.69 0 1.04.02.34.07.69.19.97l-.35.13a3.7 3.7 0 0 1-.17-1.09 10.4 10.4 0 0 1 .49-3.16c.19-.68.38-1.35.54-2.04a11.44 11.44 0 0 0 .32-2.06zm-1.3-.54c0 .37-.04.73-.1 1.08-.06.36-.13.71-.22 1.06l-.56 2.1-.28 1.04-.09.52-.04.53c0 .35 0 .71.04 1.06s.1.7.23 1.01l-.35.13a4.34 4.34 0 0 1-.2-1.11 8.08 8.08 0 0 1 0-1.1l.06-.55c.03-.18.06-.38.11-.55l.33-1.04c.22-.69.45-1.38.65-2.06a16.1 16.1 0 0 0 .42-2.12z"/>
    </g>
    <path stroke-width=".38" stroke-linejoin="round" d="M103.86 102.72a3.7 3.7 0 0 0 2.81 1.02c.5.7 1.7 1.05 2.63.87 0 0 .69.68 1.41.79.56.1 1.15.06 1.71-.04a3.75 3.75 0 0 0 3.23.69 4.5 4.5 0 0 0 2.99 1.57c0 .58 1.08 1.72 2.03 1.94.54.13 1.02-.05 1.02-.05-.1.53.4 1.21.77 1.61.38.4.73.6 1.24.84.56.27 1.1.18 1.1.18.09.59.96 1.35 1.55 1.59 1.02.42 1.32.28 1.32.28.42.86 1.7 1.74 2.7 1.65.05.55.73 1.18 1.24 1.45.51.28 1 .39 1.6.45-.05.35.45.68.68.93.26.29 1.01.59 1.41.67.69.15 1.44-.01 1.44-.01s.17.7.76 1.27c.51.5 1.34 1.32 2.07.77.33-.25.48-.68.48-2.11 0-1.5-.2-3.87-.51-5.5-1.79-9.83-3.39-15.5-8.28-20.28-3.02-2.97-8.77-5.8-10.92-6.36-4.17-1.06-12.43.47-15.07-.28"/>
    <path fill="none" stroke-width=".38" d="M134.21 101.06c-1.46-2.94-3.66-5.74-5.39-7.04-2.04-1.14-2.8-2.3-4.62-2.92-2.01-.07-4.07-2.07-5.86-2.24-1.39.23-3.84 1.03-5.54.2-2.54.3-5.06.98-7.21-.31"/>
    <g stroke="none" fill="#000">
      <path d="M107.25 103a8.47 8.47 0 0 1-.9-2.24c-.21-.77-.34-1.57-.42-2.39l-.06-.6-.02-.6v-.6l.04-.6c.06-.8.2-1.6.51-2.36a12.63 12.63 0 0 0-.23 2.38v.6l.03.59.04.58.05.59.13 1.18.1.58.1.59c.17.78.35 1.54.63 2.3zm2.88.38a8.47 8.47 0 0 1-.9-2.24c-.22-.78-.34-1.58-.43-2.39l-.05-.6-.03-.6v-.6l.04-.6c.06-.8.2-1.61.51-2.36a12.63 12.63 0 0 0-.22 2.37v.6l.03.59.03.59.05.59.14 1.17.09.59.1.59c.17.77.36 1.53.64 2.3zm3.12.75a8.47 8.47 0 0 1-.9-2.24c-.21-.78-.34-1.58-.42-2.39l-.06-.6-.02-.6v-.6l.04-.6c.06-.8.2-1.61.51-2.36a12.63 12.63 0 0 0-.23 2.37v.6l.03.59.04.59.05.59.13 1.17.1.59.1.59c.17.77.35 1.53.63 2.3zm21.18 11.9a9.21 9.21 0 0 1-1.02-2.55c-.22-.9-.36-1.8-.42-2.72l-.04-.69-.01-.68.02-.69.07-.69c.1-.91.3-1.82.7-2.65-.24.88-.35 1.78-.4 2.68l-.02.33-.01.34v.68l.01.67.04.68c.04.45.08.9.14 1.35l.09.67.1.66c.2.88.4 1.75.75 2.6zm-3.1-1.33a9.2 9.2 0 0 1-.78-2.63c-.15-.9-.2-1.82-.19-2.74l.03-.7.05-.68.09-.69a8.16 8.16 0 0 1 1.06-3.25 12.04 12.04 0 0 0-.65 2.63l-.04.34-.04.33-.06.68-.04.67-.02.68c-.01.45 0 .9.01 1.35l.04.67.05.68c.09.88.22 1.78.49 2.66zm-3.06-2.13a8.97 8.97 0 0 1-.5-2.7c-.04-.9 0-1.83.1-2.75l.1-.68.13-.68.16-.67c.05-.23.13-.44.19-.66.28-.88.65-1.74 1.2-2.47a12.41 12.41 0 0 0-.91 2.55l-.08.33c-.02.11-.06.21-.07.32l-.13.67-.11.66-.09.67c-.05.45-.1.9-.12 1.35l-.04.68-.01.67c-.03.91.02 1.81.19 2.71zm-2.62-1.37a8.97 8.97 0 0 1-.5-2.7c-.05-.91-.01-1.84.1-2.75l.1-.69.13-.67.16-.68.18-.66c.28-.87.65-1.74 1.2-2.46a12.41 12.41 0 0 0-.9 2.55l-.08.32c-.03.12-.07.22-.08.33l-.12.66-.12.66-.08.68c-.05.45-.1.9-.13 1.35l-.04.67v.68c-.03.91.02 1.81.18 2.71zm-2.61-2.89a8.38 8.38 0 0 1-.55-2.35c-.09-.8-.1-1.61-.06-2.42l.04-.6.07-.6.1-.6.12-.59a7.56 7.56 0 0 1 .86-2.25c-.27.75-.45 1.53-.57 2.31l-.09.59-.07.59-.05.59-.04.58c-.03.4-.04.79-.04 1.19v.6l.01.6c.04.78.1 1.58.27 2.36zm-3.38-1.25a8.38 8.38 0 0 1-.55-2.35c-.09-.8-.1-1.61-.06-2.42l.05-.6.06-.6.1-.6.13-.59a7.56 7.56 0 0 1 .86-2.25c-.28.75-.45 1.53-.58 2.31l-.08.59-.08.59-.05.59-.04.58c-.02.4-.03.79-.03 1.19v.6l.01.6c.04.78.1 1.58.26 2.36zm-3.13-1.9a8.65 8.65 0 0 1-.73-2.3c-.15-.8-.22-1.6-.24-2.41v-.6l.03-.6.05-.6.07-.6c.13-.8.33-1.6.69-2.31a12.66 12.66 0 0 0-.44 2.94l-.02.58-.01.6v.6a37.71 37.71 0 0 0 .17 2.37c.08.78.2 1.56.43 2.33zm20.08 14.12a5.22 5.22 0 0 1-.84-1.35 12.44 12.44 0 0 1-.5-1.48 9.28 9.28 0 0 1-.13-3.1l.01.11a7.03 7.03 0 0 1-.59-1.86 14.15 14.15 0 0 1-.12-3.85c.09-.64.2-1.27.46-1.86l.04.01a8.61 8.61 0 0 0-.29 1.88 15.85 15.85 0 0 0 .21 3.76c.13.61.3 1.21.59 1.76.01.04.03.08.01.1v.01l-.04.37v1.12a8.09 8.09 0 0 0 1.03 3.54c.13.21.26.4.43.56l-.27.28zm-3.55-1.62c-.15-.22-.26-.46-.37-.7l-.3-.71a10.16 10.16 0 0 1-.44-1.49c-.05-.27-.05-.52-.06-.77l-.01-.77.02-.76.03-.39.02-.2.01-.1.01-.05.03-.07v.11a10.59 10.59 0 0 1-.4-3.25c.01-.55.09-1.09.21-1.62.14-.53.34-1.05.65-1.5l.04.02c-.24.49-.39 1-.49 1.53a9.63 9.63 0 0 0 .31 4.73v.14l-.02.04-.01.09-.01.19-.03.37-.01.75a15 15 0 0 0 .09 1.49c.08.47.25.95.4 1.42a6.64 6.64 0 0 0 .63 1.33l-.3.17z"/>
      <path d="M130.22 115.76a4.66 4.66 0 0 1-.57-1.37 8.19 8.19 0 0 1-.24-2.91 14.18 14.18 0 0 1 .11-1.1l.04-.18.03-.1.01-.05.03-.06-.02.11a10.53 10.53 0 0 1 .05-4.86c.17-.53.39-1.03.73-1.46l.04.02a5.49 5.49 0 0 0-.55 1.49 10.66 10.66 0 0 0 .07 4.72v.06l-.01.06v.02l-.01.04-.02.07-.02.18-.04.35-.05.71a8.55 8.55 0 0 0 .25 2.79c.13.45.28.9.53 1.26l-.35.21zm-2.7-1.65a3.95 3.95 0 0 1-.53-1.25 6.8 6.8 0 0 1-.2-1.31 9.38 9.38 0 0 1 .14-2.3l.02-.16.05-.19v.11a7.29 7.29 0 0 1-.26-1.71 9.78 9.78 0 0 1 .47-3.38 6.5 6.5 0 0 1 .75-1.53l.04.02a8.22 8.22 0 0 0-.57 1.58 12.2 12.2 0 0 0-.32 1.64 9.25 9.25 0 0 0 .23 3.38v.02l-.03.12-.02.15-.04.31a11 11 0 0 0-.08 1.92c.03.42.1.83.2 1.25.1.4.24.8.47 1.12l-.32.21zm-2.87-1.87a5.8 5.8 0 0 1-.74-2.7 8.63 8.63 0 0 1 .09-1.39l.1-.69.06-.34.04-.17.05-.19v.11a8.6 8.6 0 0 1 .13-4.9 5.75 5.75 0 0 1 .7-1.47l.05.02a8.44 8.44 0 0 0-.83 3.1 8.18 8.18 0 0 0 .29 3.25v.02l-.04.14-.04.16-.06.32-.1.66a8 8 0 0 0 .13 2.65c.1.43.26.86.5 1.2l-.33.22zm-3.13-2.63a3.95 3.95 0 0 1-.53-1.25 6.8 6.8 0 0 1-.2-1.31 9.38 9.38 0 0 1 .14-2.3l.02-.16.05-.19v.11a6.67 6.67 0 0 1-.25-1.65 9.07 9.07 0 0 1 .48-3.25c.18-.51.42-1.02.73-1.46l.04.02a9.64 9.64 0 0 0-.9 3.1 7.7 7.7 0 0 0 .23 3.26l-.03.13-.03.15-.03.32a11 11 0 0 0-.08 1.9c.03.43.09.85.2 1.25.11.4.25.8.48 1.12l-.32.21zm-3.1-1.89a2.75 2.75 0 0 1-.52-1 8.24 8.24 0 0 1-.34-1.6l-.02-.56a8.07 8.07 0 0 1 .03-.82l.05-.3v.11a5.68 5.68 0 0 1-.37-1.7 11.09 11.09 0 0 1 .41-3.4c.16-.55.35-1.09.56-1.61l.04.01-.39 1.65c-.12.55-.22 1.1-.28 1.65a7.4 7.4 0 0 0-.02 1.66c.05.55.2 1.09.4 1.59v.11l-.02.24-.01.26v.53l.02.52c.01.18.05.34.08.52.06.35.13.68.25 1 .11.33.25.65.45.9l-.32.25zm-11.88-3.86a5.28 5.28 0 0 1-1.19-2.51l-.07-.55-.04-.55v-.28c0-.1 0-.17.02-.3l.01.12a6 6 0 0 1-.52-1.67 8.88 8.88 0 0 1-.09-1.72 12.88 12.88 0 0 1 .63-3.35l.03.01-.25 1.68c-.07.56-.12 1.11-.13 1.67-.02.57.02 1.12.12 1.67.1.53.28 1.07.53 1.55.01.03.02.07.01.1l-.01.24.01.27.04.52.07.53a5.84 5.84 0 0 0 .51 1.46c.17.3.35.6.6.84l-.28.27zm2.62.88a5.28 5.28 0 0 1-1.19-2.51l-.07-.56-.04-.55v-.27c0-.1 0-.17.03-.3l.01.11a6 6 0 0 1-.53-1.66 8.88 8.88 0 0 1-.08-1.73 12.88 12.88 0 0 1 .62-3.34h.04l-.25 1.68c-.08.57-.13 1.12-.14 1.68-.01.56.03 1.11.13 1.66.1.54.27 1.07.52 1.55.01.04.03.07.01.1v.51l.04.53.08.52a5.84 5.84 0 0 0 .51 1.47c.16.3.35.6.59.83l-.28.28zm3.13.75a5.28 5.28 0 0 1-1.19-2.51l-.07-.56-.04-.55v-.27c0-.1 0-.17.02-.3l.01.11a6 6 0 0 1-.52-1.66 8.88 8.88 0 0 1-.09-1.73 12.88 12.88 0 0 1 .63-3.34h.03l-.25 1.68c-.07.57-.12 1.12-.13 1.68-.02.56.02 1.11.12 1.66.1.54.28 1.07.53 1.55.01.04.02.07.01.1v.01l-.01.24.01.26.04.53.07.52a5.84 5.84 0 0 0 .51 1.47c.17.3.35.6.6.83l-.28.28zm3.22.69a5.28 5.28 0 0 1-1.19-2.52l-.07-.55-.04-.55v-.27c0-.1 0-.18.03-.3l.01.11a6 6 0 0 1-.52-1.66 8.88 8.88 0 0 1-.1-1.73 12.88 12.88 0 0 1 .63-3.35l.04.02-.25 1.67c-.07.56-.13 1.11-.14 1.68-.01.56.03 1.1.13 1.66.1.54.27 1.07.52 1.55.01.04.03.07.01.1v.51l.04.53.08.52a5.84 5.84 0 0 0 .51 1.46c.16.3.35.6.59.84l-.28.28zm15.03-3.68a7.78 7.78 0 0 1 .11-2.81 8.57 8.57 0 0 0 .25 2.72l-.36.09zm-2.15-1.56a5.25 5.25 0 0 1 0-1.4c.05-.45.12-.9.22-1.35-.02.45-.05.9-.04 1.35.02.45.07.9.2 1.31l-.38.09zm-2.23-1.89-.11-.75c-.01-.25-.01-.5.03-.75.06-.5.22-.96.3-1.44-.03.49-.13.98-.12 1.45 0 .48.1.94.26 1.39l-.36.1zm-2.1-1.01a2.94 2.94 0 0 1-.29-1 5 5 0 0 1 .63-2.89 4.25 4.25 0 0 0-.42 1.89c0 .32 0 .65.08.95.07.31.18.6.34.86l-.34.19zm-2.17-1.28a4.75 4.75 0 0 1-.4-2.77c.06-.3.16-.6.32-.86a2.38 2.38 0 0 0-.22.88 4.31 4.31 0 0 0 .62 2.58l-.32.17zm-3.45-1.07a4.63 4.63 0 0 1-.33-1.93c.04-.65.21-1.27.43-1.87a6 6 0 0 0-.24 1.87c.03.63.2 1.23.47 1.78l-.33.15zm-7.3-2.52a6.21 6.21 0 0 1 .04-2.98 5.95 5.95 0 0 0 .32 2.89l-.36.1zm3.5 1.88a4.64 4.64 0 0 1-.61-2.33 6.95 6.95 0 0 1 .4-2.32 7.33 7.33 0 0 0-.22 2.32 4.29 4.29 0 0 0 .75 2.14l-.32.19zM110 92.67a2.15 2.15 0 0 1-.42-.57 2.63 2.63 0 0 1-.24-.69c-.05-.24-.06-.49-.05-.72.01-.24.06-.48.16-.7l.03.7a6.28 6.28 0 0 0 .27 1.34l.25.65zm13.1 3.54a2.73 2.73 0 0 1-.2-1.08c0-.2.01-.38.04-.55a2 2 0 0 1 .13-.54c.04.19.05.36.07.55l.02.54v.53c-.04.19-.04.36-.06.55zm6.6 5.12c-.07-.2-.13-.4-.15-.62a5.25 5.25 0 0 1 .02-1.25c.04-.2.1-.41.18-.6.03.22.03.42.03.63v.61l-.02.61-.06.62zm-2.42-2.05a2.48 2.48 0 0 1-.1-1.04 2 2 0 0 1 .12-.53c.06-.16.16-.32.29-.45l-.1.5a6.5 6.5 0 0 0-.06.49l-.05.5c-.03.19-.05.35-.1.53zm-2.23-1.74c-.06-.18-.1-.37-.11-.55a2.66 2.66 0 0 1 .17-1.09c.06-.18.15-.34.28-.49l-.09.54-.09.52-.07.53-.09.54zm-4.55-1.98a4.65 4.65 0 0 1-.1-3.27l-.01.82.01.81c0 .28.03.54.04.82l.06.82zm-3.83-1.35a8.53 8.53 0 0 1-.37-2.95 5.13 5.13 0 0 1 .16-.97l.03.99.04.97.06.97c.03.34.07.67.08 1zm-3.28-.82a2.84 2.84 0 0 1-.63-1.39 3.13 3.13 0 0 1 .1-1.51l.05.74c.03.23.05.48.1.72.04.24.1.47.16.71l.22.73z"/>
      <path d="M108 93.39a5.8 5.8 0 0 0 3.25-.43.15.15 0 0 1 .21.08l.02.01.26.41a3.1 3.1 0 0 0 1.11.95 3.29 3.29 0 0 0 1.91.37c.05-.02.1 0 .14.03a3.75 3.75 0 0 0 2.7.74l.99-.14c.06-.01.11.01.15.05.21.21.45.41.7.59.25.17.51.33.79.41.28.09.57.15.86.14l.21-.03.24-.05c.16-.02.32-.05.5-.05.06 0 .12.04.16.1.04.08.11.16.17.23l.22.21a3.52 3.52 0 0 0 .75.5l.29.1c.2.06.4.11.6.14.04.01.08.04.12.07.39.52 1.02.84 1.68.93l.12.01.15.01c.04 0 .09.02.13.06.04.02.08.07.1.1.04.08.04.13.06.17a2.99 2.99 0 0 0 .77 1.25c.24.2.55.38.83.39h.1l.12-.03a.38.38 0 0 1 .25.04.4.4 0 0 1 .16.16c.04.05.05.1.07.14l.06.11.13.21c.17.28.4.54.67.67.14.06.3.08.46.12.16.04.35.08.53.15h.01a.2.2 0 0 1 .1.13 3.26 3.26 0 0 0 1.8 2.4 3 3 0 0 1-1.34-.89 3.25 3.25 0 0 1-.77-1.46l.11.12c-.31-.09-.68-.07-1.05-.25a2.13 2.13 0 0 1-.82-.8l-.14-.24-.06-.12-.05-.1-.02-.03h-.01l-.14.03-.16.01a1.77 1.77 0 0 1-1.05-.49 3.27 3.27 0 0 1-.89-1.4l-.02-.07.01.01h.01l-.11-.01-.14-.01a3.11 3.11 0 0 1-1.06-.34 2.56 2.56 0 0 1-.86-.74l.12.08a6.31 6.31 0 0 1-.66-.15l-.32-.12-.32-.16c-.2-.11-.38-.25-.55-.4l-.23-.25a1.71 1.71 0 0 1-.22-.29l.17.1-.44.03-.23.04-.26.03a3.15 3.15 0 0 1-1.89-.6 5.19 5.19 0 0 1-.75-.65l.17.05-1 .14a4.22 4.22 0 0 1-2.98-.84l.14.04a3.65 3.65 0 0 1-3.01-1.04 3.89 3.89 0 0 1-.37-.4c-.11-.16-.2-.32-.27-.5l.22.1a5.69 5.69 0 0 1-3.41.12zm30.95 26.28-.24-.55-.12-.27-.07-.14-.05-.14-.18-.57-.1-.29-.08-.29c-.1-.38-.21-.78-.29-1.17l-.12-.59-.1-.6c-.28-1.59-.45-3.19-.7-4.77a34.71 34.71 0 0 0-1-4.69 21.54 21.54 0 0 0-1.84-4.4l.33-.19a20.77 20.77 0 0 1 1.87 4.49c.45 1.56.75 3.15.98 4.75.22 1.6.38 3.2.63 4.79l.2 1.18c.07.4.17.8.25 1.18l.07.29.07.28.16.58.38 1.14-.05-.02z"/>
    </g>
    <path stroke-width=".38" stroke-linejoin="round" d="M96.17 102.72a3.7 3.7 0 0 1-2.8 1.02c-.5.7-1.7 1.05-2.63.87 0 0-.69.68-1.41.79-.57.1-1.15.06-1.72-.04a3.75 3.75 0 0 1-3.22.69 4.5 4.5 0 0 1-2.99 1.57c0 .58-1.09 1.72-2.04 1.94-.53.13-1.01-.05-1.01-.05.1.53-.4 1.21-.77 1.61-.38.4-.73.6-1.24.84-.56.27-1.1.18-1.1.18-.09.59-.96 1.35-1.55 1.59-1.03.42-1.33.28-1.33.28-.41.86-1.68 1.74-2.7 1.65-.05.55-.72 1.18-1.23 1.45-.52.28-1 .39-1.6.45.05.35-.45.68-.68.93a3.45 3.45 0 0 1-1.41.67c-.69.15-1.44-.01-1.44-.01s-.17.7-.76 1.27c-.51.5-1.34 1.32-2.08.77-.32-.25-.47-.68-.47-2.11 0-1.5.2-3.87.51-5.5 1.79-9.83 3.39-15.5 8.28-20.28 3.02-2.97 8.77-5.8 10.92-6.36 4.16-1.06 12.43.47 15.06-.28"/>
    <path fill="none" stroke-width=".38" d="M65.83 101.06c1.46-2.94 3.66-5.74 5.38-7.04 2.05-1.14 2.82-2.3 4.63-2.92 2.01-.07 4.07-2.07 5.86-2.24 1.39.23 3.84 1.03 5.54.2 2.54.3 5.06.98 7.21-.31"/>
    <g stroke="none" fill="#000">
      <path d="M92.79 103a14.88 14.88 0 0 0 .61-2.3l.1-.59.09-.59c.06-.38.1-.78.13-1.17l.05-.59.04-.59.03-.58v-.6c-.02-.79-.07-1.59-.23-2.38.31.75.45 1.55.51 2.36l.04.6v.6l-.02.6-.05.6c-.09.8-.22 1.6-.43 2.4a8.01 8.01 0 0 1-.87 2.23zm-2.88.38a14.88 14.88 0 0 0 .61-2.3l.1-.6.1-.58c.05-.39.1-.79.13-1.18l.05-.58.04-.59.02-.59v-.6c-.01-.79-.06-1.59-.22-2.37.31.75.45 1.55.51 2.36l.04.6v.6l-.03.6-.05.6c-.09.8-.21 1.6-.42 2.39a8.01 8.01 0 0 1-.88 2.23zm-3.12.75a14.88 14.88 0 0 0 .61-2.3l.1-.6.09-.58c.06-.39.1-.79.13-1.18l.05-.58.04-.59.03-.59v-.6c-.02-.79-.07-1.59-.23-2.37a7.54 7.54 0 0 1 .51 2.36l.04.6v.6l-.02.6-.05.6c-.09.8-.22 1.6-.43 2.39a8.01 8.01 0 0 1-.87 2.23zm-21.18 11.9c.34-.85.55-1.73.73-2.62l.11-.66a24.69 24.69 0 0 0 .22-2.02l.04-.68.01-.67v-1.02l-.02-.33a12.16 12.16 0 0 0-.41-2.68 8.41 8.41 0 0 1 .77 3.34l.03.69-.02.68-.03.69c-.08.91-.2 1.83-.43 2.71a9.26 9.26 0 0 1-1 2.57zm3.1-1.33c.27-.88.4-1.77.49-2.66l.05-.68.04-.67c.01-.45.02-.9.01-1.35l-.03-.68-.03-.67-.06-.68-.04-.33-.04-.34a12.8 12.8 0 0 0-.65-2.63c.47.79.75 1.68.94 2.58l.12.67.09.69.05.69.03.69c0 .9-.04 1.83-.2 2.75a9.63 9.63 0 0 1-.77 2.62zm3.05-2.13c.18-.9.21-1.8.21-2.7v-.67l-.04-.68a24.63 24.63 0 0 0-.13-1.34l-.09-.68-.11-.66-.12-.66-.08-.33-.07-.32c-.23-.88-.5-1.74-.92-2.55a8.19 8.19 0 0 1 1.2 2.46c.07.22.14.44.19.66l.16.68.13.67.1.69c.1.91.15 1.84.1 2.75a10.45 10.45 0 0 1-.53 2.69zm2.63-1.37c.17-.9.21-1.8.21-2.7l-.01-.68-.04-.67a24.63 24.63 0 0 0-.12-1.35l-.1-.67-.1-.67-.13-.66-.07-.32-.08-.33c-.23-.87-.5-1.74-.91-2.55a8.19 8.19 0 0 1 1.2 2.46c.06.23.14.44.19.67l.16.67.12.68.1.68c.1.92.15 1.84.1 2.75a10.45 10.45 0 0 1-.52 2.69zm2.61-2.89c.16-.79.23-1.57.26-2.37l.01-.6v-.6c0-.4 0-.79-.03-1.19l-.04-.59-.05-.58-.07-.6-.1-.58c-.12-.79-.3-1.56-.57-2.31a7.7 7.7 0 0 1 .87 2.25l.12.58.1.6.06.6.05.6c.04.82.03 1.62-.06 2.43a8.45 8.45 0 0 1-.55 2.36zm3.38-1.25c.16-.79.22-1.57.26-2.37l.01-.6v-.6c0-.4-.01-.79-.04-1.19l-.03-.59-.05-.58-.08-.6-.09-.58c-.12-.79-.3-1.56-.57-2.31a7.7 7.7 0 0 1 .86 2.25l.13.58.1.6.06.6.05.6c.04.82.02 1.62-.06 2.43a8.45 8.45 0 0 1-.56 2.36zm3.13-1.9a13.88 13.88 0 0 0 .44-2.35l.06-.59.05-.58.05-1.19.01-.6v-.6l-.03-.59-.04-.59c-.07-.78-.17-1.57-.4-2.35a7.72 7.72 0 0 1 .69 2.32l.07.6.05.6.03.6v.6a15.63 15.63 0 0 1-.24 2.41 8.2 8.2 0 0 1-.74 2.31zM63.16 119c.17-.16.3-.36.43-.56.12-.21.22-.44.32-.66l.28-.7a6.7 6.7 0 0 0 .42-2.18l.01-.75v-.38l-.05-.36v-.01l.02-.1a6.5 6.5 0 0 0 .59-1.76 15.85 15.85 0 0 0 .2-3.76 8.73 8.73 0 0 0-.28-1.88l.04-.01c.25.59.37 1.22.46 1.86.08.64.1 1.27.08 1.93-.03.63-.08 1.28-.2 1.92s-.3 1.26-.6 1.86l.02-.11.05.4.03.39v.77a8.13 8.13 0 0 1-.44 2.29l-.28.72a5.22 5.22 0 0 1-.83 1.35l-.27-.27zm3.5-1.55a4.38 4.38 0 0 0 .34-.64l.29-.69c.17-.46.32-.95.41-1.42.04-.23.05-.49.07-.74l.02-.75-.02-.75-.02-.37-.01-.19-.02-.09v-.06l-.02-.06v-.05a10.74 10.74 0 0 0 .31-4.74 5.57 5.57 0 0 0-.49-1.52l.04-.03c.31.45.51.96.65 1.5s.2 1.07.21 1.63c.03 1.08-.1 2.18-.4 3.24v-.1l.03.07.01.05.01.1.03.2.03.38.02.77-.01.76-.06.78a7.3 7.3 0 0 1-.44 1.48 8.65 8.65 0 0 1-.68 1.42l-.3-.18z"/>
      <path d="M69.5 115.55c.25-.36.4-.81.53-1.26.12-.45.2-.92.23-1.38.04-.46.03-.94.01-1.41l-.04-.71-.04-.35-.03-.18-.01-.07-.01-.04v-.03l-.01-.05v-.06a10.26 10.26 0 0 0 .07-4.72 6.25 6.25 0 0 0-.55-1.49l.04-.02c.34.42.56.93.72 1.46.16.52.25 1.06.29 1.61.09 1.09 0 2.19-.24 3.25l-.01-.11.02.06.02.05.02.1.04.19.05.36a14.18 14.18 0 0 1 .07 2.19c-.03.49-.12.97-.25 1.45s-.28.95-.57 1.37l-.35-.21zm2.7-1.65c.23-.33.38-.72.47-1.13a8.69 8.69 0 0 0 .12-3.16l-.04-.31-.03-.15-.02-.13a6.5 6.5 0 0 0 .27-1.73 9.25 9.25 0 0 0-.05-1.66 12.2 12.2 0 0 0-.3-1.64 8.22 8.22 0 0 0-.58-1.58l.03-.02c.33.46.57 1 .75 1.54a9.45 9.45 0 0 1 .22 5.08v-.11a1.41 1.41 0 0 1 .07.35l.05.33a11.43 11.43 0 0 1 .09 1.97c-.03.45-.09.89-.2 1.31-.11.43-.28.86-.54 1.25l-.31-.21zm2.88-1.88c.23-.34.38-.76.5-1.18.1-.43.16-.88.18-1.31.01-.44-.02-.9-.06-1.34a10.53 10.53 0 0 0-.16-.99l-.04-.16-.04-.14v-.01a8.18 8.18 0 0 0 .29-3.26c-.05-.54-.15-1.07-.27-1.58a8.1 8.1 0 0 0-.55-1.51l.03-.03a5.75 5.75 0 0 1 .72 1.48 8.6 8.6 0 0 1 .12 4.9v-.12l.05.2.04.17.06.33.1.7c.05.45.1.9.09 1.38a6.4 6.4 0 0 1-.19 1.39c-.11.45-.28.9-.55 1.31l-.33-.23zm3.12-2.62c.23-.33.38-.72.47-1.13a8.24 8.24 0 0 0 .13-3.14l-.04-.32-.02-.15-.03-.12v-.02a7.5 7.5 0 0 0 .23-3.26 9.51 9.51 0 0 0-.9-3.09l.03-.02c.32.45.55.95.74 1.46s.31 1.06.39 1.6c.07.55.11 1.1.09 1.65-.03.55-.1 1.11-.25 1.65v-.11a1.41 1.41 0 0 1 .07.35l.05.32a11.43 11.43 0 0 1 .09 1.98c-.03.45-.09.89-.2 1.31-.11.44-.28.86-.54 1.25l-.31-.21zm3.13-1.91c.2-.25.33-.56.45-.89a6.66 6.66 0 0 0 .35-2.05v-.53l-.02-.26-.02-.24a.13.13 0 0 1 .01-.1 5.38 5.38 0 0 0 .39-1.6 9.24 9.24 0 0 0-.3-3.3c-.11-.56-.25-1.1-.39-1.66l.04-.01a12.86 12.86 0 0 1 .91 3.29c.07.56.1 1.15.06 1.72a5.76 5.76 0 0 1-.37 1.7v-.11l.05.3.02.27.01.55-.02.55c-.01.2-.05.38-.08.55a6.6 6.6 0 0 1-.26 1.07c-.11.35-.27.7-.52 1l-.32-.25zm11.9-3.89c.24-.24.43-.53.6-.84a5.75 5.75 0 0 0 .58-1.99l.04-.52.01-.26-.01-.24v-.01l.01-.1c.25-.49.43-1.02.53-1.55.1-.54.14-1.1.12-1.67-.01-.56-.07-1.1-.13-1.67l-.25-1.68h.03a14.5 14.5 0 0 1 .63 3.34 8.88 8.88 0 0 1-.09 1.73 5.6 5.6 0 0 1-.53 1.66l.02-.11c.02.12.01.2.02.3v.27c0 .19-.01.36-.04.55a8.7 8.7 0 0 1-.2 1.1c-.1.35-.24.7-.4 1.04a3.88 3.88 0 0 1-.66.92l-.27-.27zm-2.62.88c.24-.24.43-.53.59-.84a5.75 5.75 0 0 0 .59-1.99l.04-.53v-.6c.26-.5.43-1.02.53-1.56.1-.54.14-1.1.13-1.66-.01-.56-.08-1.11-.14-1.68l-.25-1.67.04-.01a14.5 14.5 0 0 1 .62 3.35 8.88 8.88 0 0 1-.09 1.72 5.6 5.6 0 0 1-.52 1.66l.01-.1c.03.12.01.2.03.3v.27c0 .18-.01.36-.04.55a8.7 8.7 0 0 1-.2 1.1c-.11.35-.25.7-.41 1.03a3.88 3.88 0 0 1-.65.93l-.28-.28zm-3.12.74c.24-.23.42-.52.59-.83a5.75 5.75 0 0 0 .58-1.99l.04-.53.01-.26-.01-.24.01-.1c.25-.5.43-1.02.53-1.56.1-.54.14-1.1.12-1.66-.01-.56-.07-1.11-.13-1.68l-.25-1.67.03-.01a14.5 14.5 0 0 1 .63 3.35 8.88 8.88 0 0 1-.09 1.72 5.6 5.6 0 0 1-.53 1.66l.02-.1c.02.12.01.2.02.3v.27c0 .18-.01.36-.04.55a8.7 8.7 0 0 1-.2 1.1c-.1.35-.24.7-.4 1.03a3.88 3.88 0 0 1-.66.93l-.27-.28zm-3.23.7c.24-.25.43-.53.59-.85a5.75 5.75 0 0 0 .59-1.98l.04-.53v-.61c.26-.49.43-1.01.53-1.55.1-.54.14-1.1.13-1.66-.01-.56-.08-1.11-.14-1.68l-.25-1.67.04-.01a14.5 14.5 0 0 1 .62 3.35 8.88 8.88 0 0 1-.08 1.72 5.6 5.6 0 0 1-.53 1.66l.01-.11c.03.12.01.2.03.3v.27c0 .2-.01.37-.04.55a8.7 8.7 0 0 1-.2 1.1c-.11.35-.25.7-.41 1.04a3.88 3.88 0 0 1-.65.93l-.28-.28zm-15.12-3.5a8.57 8.57 0 0 0 .25-2.72c.09.45.15.93.17 1.39.03.47.01.94-.06 1.42l-.36-.09zm2.15-1.56c.12-.41.17-.86.18-1.31.02-.45 0-.9-.03-1.35.09.45.17.89.22 1.35.05.45.06.93 0 1.4l-.37-.09zm2.22-1.91c.15-.45.26-.91.26-1.39s-.1-.96-.1-1.45c.08.48.23.94.3 1.44a3.76 3.76 0 0 1-.1 1.5l-.36-.1zm2.14-1.09a2.88 2.88 0 0 0 .34-.86 4.8 4.8 0 0 0-.34-2.84 3.88 3.88 0 0 1 .4.9 4.58 4.58 0 0 1 .23 1.99c-.04.34-.13.68-.3 1l-.33-.19zm2.17-1.27a4.34 4.34 0 0 0 .63-2.58c-.03-.3-.1-.6-.23-.89.17.27.27.57.33.87a4.54 4.54 0 0 1-.4 2.77l-.33-.17zm3.43-1.06c.28-.55.45-1.15.47-1.78a6.38 6.38 0 0 0-.23-1.88c.22.6.4 1.23.42 1.88a4.63 4.63 0 0 1-.32 1.93l-.34-.16zm7.29-2.47a5.95 5.95 0 0 0 .32-2.89 6.21 6.21 0 0 1 .04 3l-.36-.1zm-3.45 1.79a4.29 4.29 0 0 0 .75-2.14 7.32 7.32 0 0 0-.23-2.32c.25.75.42 1.52.42 2.32a4.94 4.94 0 0 1-.62 2.33l-.32-.19zm4.95-2.17.25-.66c.07-.2.12-.43.17-.66.05-.22.08-.45.1-.67.03-.23.03-.46.03-.7.1.22.15.46.16.7a2.84 2.84 0 0 1-.29 1.41c-.11.21-.25.41-.42.57zm-13.1 3.53-.04-.55v-.53l.03-.54c0-.18.02-.36.06-.55a2.13 2.13 0 0 1 .14.54 4.06 4.06 0 0 1-.02 1.1 3.38 3.38 0 0 1-.17.53zm-6.6 5.12-.05-.63-.01-.61v-.61c0-.2 0-.42.02-.63.09.2.14.4.18.6a5.04 5.04 0 0 1 .02 1.25c-.05.23-.09.44-.16.63zm2.42-2.05a2.59 2.59 0 0 1-.09-.52l-.05-.5-.06-.49-.1-.5c.13.13.23.3.29.46.06.16.11.33.13.52.02.18 0 .35 0 .53a3.6 3.6 0 0 1-.12.5zM75 97.54 74.9 97l-.08-.53-.08-.52-.09-.54a2.34 2.34 0 0 1 .42 1.03 2.05 2.05 0 0 1-.09 1.1zm4.55-1.98.06-.82c.01-.28.04-.54.04-.81l.01-.82-.01-.82c.1.26.16.53.2.81a4.5 4.5 0 0 1-.3 2.46zm3.82-1.35.08-.98.06-.98.04-.97.02-1c.09.33.14.66.16.98.03.33.03.67.02 1-.03.33-.05.67-.13.99-.05.34-.12.66-.25.96zm3.29-.82.21-.71.17-.72.1-.72.05-.74a3.13 3.13 0 0 1-.53 2.89z"/>
      <path d="M92.04 93.39a5.09 5.09 0 0 1-1.69.21 5 5 0 0 1-1.7-.32l.22-.1c-.07.18-.16.34-.27.5a3.88 3.88 0 0 1-1.25 1.04c-.65.34-1.4.5-2.13.4l.14-.03a3.73 3.73 0 0 1-1.92.81c-.35.05-.7.05-1.05.03l-1-.14.16-.05a7.22 7.22 0 0 1-.75.64 3.15 3.15 0 0 1-1.89.6l-.26-.03-.23-.04-.43-.03.16-.1a2.88 2.88 0 0 1-.21.3l-.24.25a4.1 4.1 0 0 1-.86.56 5.67 5.67 0 0 1-.99.26l.12-.07a2.59 2.59 0 0 1-.86.73 3.29 3.29 0 0 1-1.06.34l-.14.01-.11.02h.01l.01-.02-.02.08a3.15 3.15 0 0 1-.89 1.4c-.15.12-.3.24-.47.32-.18.09-.37.15-.58.17l-.16-.02-.14-.02h-.01l-.01.02-.05.1-.07.13-.13.24a2.13 2.13 0 0 1-.83.8c-.37.17-.74.16-1.05.25l.11-.13a3.31 3.31 0 0 1-2.1 2.35c.48-.22.9-.57 1.2-1 .32-.41.53-.9.6-1.4 0-.06.04-.1.1-.13l.53-.14a4.13 4.13 0 0 0 .46-.13c.26-.13.49-.39.68-.66l.12-.21.06-.12.07-.14c.04-.05.07-.1.16-.16.09-.05.19-.04.25-.04l.12.03h.1c.28-.01.6-.19.83-.39a2.65 2.65 0 0 0 .77-1.25l.07-.16.1-.11.12-.05.15-.01.13-.02a2.5 2.5 0 0 0 1.67-.92c.03-.04.08-.06.13-.08.2-.03.41-.07.6-.13a1.94 1.94 0 0 0 .55-.24 2.75 2.75 0 0 0 .7-.58l.17-.22v-.01c.04-.05.1-.1.16-.1.18 0 .34.03.5.06l.24.05.21.02c.3.02.58-.05.87-.13.27-.1.53-.24.78-.42s.5-.37.7-.58c.04-.04.1-.07.15-.05l1 .13c.3.03.63.03.95-.01a3.5 3.5 0 0 0 1.74-.72.14.14 0 0 1 .14-.04 3.29 3.29 0 0 0 3.29-1.73l.01-.01c.04-.07.14-.11.21-.07.49.23 1.03.37 1.58.45.52.06 1.1.05 1.65-.04zm-30.98 26.26.38-1.14.16-.57.07-.29.07-.29c.09-.38.19-.77.25-1.17l.2-1.19c.25-1.59.41-3.19.64-4.79.22-1.6.52-3.18.97-4.75a21.04 21.04 0 0 1 1.88-4.48l.32.18a20.88 20.88 0 0 0-1.84 4.4 35.13 35.13 0 0 0-1 4.69c-.25 1.59-.43 3.19-.7 4.78l-.1.6-.12.58c-.08.4-.19.79-.29 1.18l-.07.29-.1.28-.2.58-.04.14-.06.13-.13.28-.24.55-.05.01z"/>
    </g>
    <g class="secondary" stroke-width=".38">
      <path stroke-linejoin="round" d="M98.09 107.36c.04.21.37.93.17 1.61a1.75 1.75 0 0 0-.07.35l-.04.3c-.04.14-.06.3-.06.43 0 .15.02.29.1.42l.11.2c.05.1.06.22.05.33 0 .41.41 1.02.49 1.12 0 0 .27.07.38.2.1.1.2.3.2.45 0 .07-.02.15-.07.2.07.03.17.43-.13.82-.23.26-.5.33-.58.27.11-.1.18-.47.17-.61-.01-.14-.15-.29-.27-.33-.14-.03-.34-.38-.32-.6-.08-.03-.2-.14-.27-.2-.15-.1-.25-.27-.35-.42l-.06-.11c-.03.29.05.56.18.81.08.04.1.15.1.24s-.02.19-.08.24c.02.08.01.7.47.97-.5.31-1.17-.45-.97-.68 0 .04-.3-.1-.34-.12a.54.54 0 0 1-.16-.33l-.03-.28c-.02-.15-.11-.29-.17-.44a1.99 1.99 0 0 1-.12-1.29c.12-.5.35-.96.54-1.45s.43-1.6.11-2.32"/>
      <path d="M97.7 113.04a.25.25 0 0 0-.14.01l-.12.07c-.08.07-.15.13-.18.22m1.25-.24c.24-.23.71-.25.81-.16"/>
      <g stroke="none" fill="#000">
        <path d="m98.81 112.3-.24-.09-.12-.02c-.04 0-.09-.02-.13.01l.1-.1.13-.07.28-.1-.02.37zm-2.25.19a.54.54 0 0 1 .16-.06l.15-.03.15.01c.06.01.1.01.14.04-.05 0-.07.02-.11.05l-.1.07-.07.1a.13.13 0 0 0-.04.08l-.28-.26z"/>
      </g>
      <path stroke-linejoin="round" d="M102.13 107.36c-.04.21-.38.93-.18 1.61.04.12.06.24.07.35l.04.3c.04.14.06.3.06.43 0 .15-.02.29-.1.42l-.1.2c-.06.1-.07.22-.06.33 0 .41-.41 1.02-.48 1.12 0 0-.28.07-.4.2a.8.8 0 0 0-.18.45c0 .07.01.15.06.2-.07.03-.17.43.13.82.24.26.5.33.59.27-.12-.1-.2-.47-.18-.61.01-.14.15-.29.28-.33.13-.03.33-.38.3-.6.1-.03.22-.14.28-.2.15-.1.25-.27.35-.42l.07-.11c.02.29-.05.56-.2.81-.07.04-.1.15-.08.24 0 .09.01.19.08.24-.03.08-.02.7-.48.97.5.31 1.18-.45.98-.68 0 .04.3-.1.33-.12a.54.54 0 0 0 .17-.33l.02-.28c.03-.15.11-.29.18-.44.18-.41.2-.85.1-1.29-.1-.5-.34-.96-.53-1.45s-.42-1.6-.11-2.32"/>
      <path d="M102.51 113.04c.05-.02.1 0 .14.01l.13.07c.07.07.15.13.17.22m-1.25-.24c-.24-.23-.71-.25-.81-.16"/>
      <g stroke="none" fill="#000">
        <path d="m101.4 111.92.28.1.12.08c.04.03.09.06.1.1-.04-.03-.09-.01-.13-.01l-.12.02-.24.09-.01-.38zm1.97.83-.03-.09-.08-.09-.1-.07-.11-.05a.25.25 0 0 1 .14-.04l.15-.01.15.02c.05.02.1.03.16.07l-.27.26zm-6-.88c-.06-.1-.1-.22-.13-.33a1.7 1.7 0 0 1-.04-.37c.01-.23.07-.43.06-.66.08.21.08.45.11.64a1.16 1.16 0 0 0 .3.51l-.3.22z"/>
      </g>
    </g>
    <path stroke-width=".38" stroke-linejoin="round" d="M93.65 88.44c-.1-.84-.45-1.94-.2-3.71.14-1 .28-1.43.9-2.5-1.05-.9-1.11-2.57-1.96-3.53a.7.7 0 0 1 .34-.13c1.46 0 2.76 1.46 3.68 1.9.38.17.94.37 1.33.27l.49-.15a5.38 5.38 0 0 1 1.87-.23h.03a5.38 5.38 0 0 1 1.87.23l.49.15c.4.1.95-.1 1.32-.28.93-.43 2.23-1.88 3.69-1.88.11 0 .24.07.34.12-.84.96-.9 2.63-1.96 3.54.62 1.06.76 1.5.9 2.49.23 1.77-.12 2.87-.2 3.7a5.13 5.13 0 0 0 .08 2c.53 1.93.93 4.28.6 6.28-.96 5.98-2.57 7.83-2.78 9.07a9.28 9.28 0 0 0-.17 2.2c-.35.03-.71-.1-.96-.32l-.11.79a4.68 4.68 0 0 1-.89-.61l-.26.54c-.06.13-.18.3-.33.28-.11-.01-.2-.12-.28-.2-.1-.07-.25-.11-.32-.01-.02.04-.01.09-.03.14-.05.08-.2.05-.28-.03-.6-.52-.44-1.64-.52-1.9h-.42c-.08.26.08 1.38-.52 1.9-.08.08-.23.11-.28.03-.02-.04-.02-.09-.03-.14-.05-.1-.22-.08-.32.01-.08.08-.17.19-.28.2-.15.01-.25-.15-.33-.29l-.26-.53a5.34 5.34 0 0 1-.89.61l-.11-.79a1.25 1.25 0 0 1-.96.32 8.67 8.67 0 0 0-.17-2.2c-.21-1.23-1.83-3.1-2.78-9.07-.33-2 .07-4.35.6-6.27a5.38 5.38 0 0 0 .07-2z"/>
    <g>
      <g stroke="none" fill="#000">
        <path d="M100.56 90.99a.3.3 0 0 0 .09-.26l-.01-.16c0-.06 0-.12.05-.2l.1-.12.11-.05.11-.04-.02.01c-.02.02-.02.02 0 0 .01-.02 0-.1.05-.2a.3.3 0 0 1 .12-.13l.14-.04h.16l.1-.01c.05-.02.11-.04.2-.04.15 0 .26.06.35.11.09.06.19.11.26.19-.1.01-.2 0-.32-.01-.1-.02-.2-.03-.26 0l-.1.05-.19.06-.15.01h-.01l.02-.02-.01.08c-.01.04-.03.1-.06.14-.04.05-.09.1-.14.11-.1.04-.15.03-.19.03h-.04l-.05.09-.05.15c-.03.14-.15.25-.26.25zm5.44-2.7c.11.3.1.66-.01.97l-.1.23a.3.3 0 0 0-.05.15l.02.18v.3a.85.85 0 0 1-.08.28.54.54 0 0 1-.24.24c-.13.05-.23.05-.28.06l-.05.01-.02.03a.5.5 0 0 0-.05.18l-.03.13c-.01.04-.01.09-.05.15-.01.02-.06.07-.11.07h-.09l-.11-.05-.23-.07.24-.03h.13l.04-.02h-.03v-.09l-.01-.11a.77.77 0 0 1 .01-.29c.01-.06.05-.11.1-.16s.11-.08.16-.09l.19-.05a.4.4 0 0 0 .12-.26v-.19a.94.94 0 0 1 0-.27c0-.13.07-.23.1-.29l.13-.19c.16-.21.26-.5.3-.82zm-4.84.62c.09 0 .14 0 .18.03.03.01.06.04.08.07.02.03.03.06.02.11-.01.04-.03.1-.09.17-.09 0-.14 0-.17-.03a.17.17 0 0 1-.1-.07c0-.03-.02-.07 0-.12s.03-.1.08-.16zm-.35-3.27a.95.95 0 0 1 .1-.49l.05-.11.06-.11.14-.22c.19-.27.41-.51.64-.73.23-.23.47-.43.72-.63s.5-.37.75-.59c-.1.31-.33.56-.55.81l-.66.7-.67.64-.09.09-.07.09-.08.09-.08.08c-.1.1-.18.23-.26.38zm6.18-6.48a3.27 3.27 0 0 0-.9.75l-.78.9a13.31 13.31 0 0 1-1.25 1.31c-.16.13-.34.25-.54.32.17-.13.3-.28.4-.44l.37-.47c.23-.33.47-.64.73-.95a6.34 6.34 0 0 1 1.38-1.23c.17-.1.37-.17.59-.19zm-1.58 7.27c0-.1.01-.14.04-.18.02-.04.05-.06.09-.06.03-.01.07 0 .11.02.04.03.07.07.09.15l-.08.15c-.02.03-.04.05-.06.05l-.07-.02-.12-.11zm-.17.53c0-.08.02-.13.06-.17a.18.18 0 0 1 .13-.05c.04 0 .08.02.12.06.03.04.05.1.04.18l-.13.1c-.02.02-.04.02-.06.02l-.05-.04-.11-.1zm-.24.55a.19.19 0 0 1 .03-.2.24.24 0 0 1 .13-.09c.05 0 .1 0 .14.04.04.03.08.08.11.15l-.11.14-.07.05-.08-.03-.15-.06zm-.2.43a.4.4 0 0 1 .13-.15c.04-.03.08-.05.13-.05s.1.01.14.04c.05.02.09.07.14.14a.47.47 0 0 1-.14.14l-.13.04-.13-.04c-.04-.01-.09-.05-.14-.12zm-.25.45.1-.1.1-.03.1.03.1.1a.38.38 0 0 1-.1.1l-.1.02-.1-.02a.25.25 0 0 1-.1-.1zm-.15.42.07-.09.06-.02.06.01.1.06c0 .07-.01.1-.04.13l-.09.05c-.04 0-.06 0-.1-.03a.25.25 0 0 1-.06-.1zm-.41.39.12-.09.11-.01.12.04c.03.02.07.05.1.11l-.13.09-.11.01-.11-.04-.1-.11zm-.38.2a.38.38 0 0 1 .26-.03l.1.05a.3.3 0 0 1 .1.12.24.24 0 0 1-.13.08.25.25 0 0 1-.14 0 .22.22 0 0 1-.11-.07c-.04-.04-.08-.07-.08-.15zm1.93-3.63.15-.04h.07l.03.07v.16c-.06.07-.1.09-.15.09a.1.1 0 0 1-.1-.02c-.03-.03-.05-.05-.05-.1.01-.03.01-.08.05-.16zm.01-.7c.09 0 .15.02.2.03a.3.3 0 0 1 .11.1c.03.04.04.09.04.14 0 .05-.01.11-.06.19a.34.34 0 0 1-.19-.05.23.23 0 0 1-.1-.1.21.21 0 0 1-.04-.12c-.01-.04 0-.1.04-.19zm-.04-.97c.09 0 .15.01.2.04.05.02.09.05.12.08.02.04.03.1.03.14 0 .05-.01.11-.05.19a.44.44 0 0 1-.2-.04c-.05-.02-.09-.05-.1-.09a.25.25 0 0 1-.04-.13c0-.05 0-.1.04-.19zm-.3-.61c.04-.08.1-.1.15-.11.05-.02.1 0 .14 0a.2.2 0 0 1 .09.12c.01.05.01.11-.03.19l-.16.04-.07-.02c-.03-.01-.04-.02-.05-.06-.04-.04-.05-.09-.07-.16zm-.67-.3c0-.09.02-.14.03-.16a.14.14 0 0 1 .1-.07.1.1 0 0 1 .1.03c.03.02.07.06.1.14l-.08.15c-.03.02-.04.05-.07.05s-.05 0-.07-.03l-.11-.11zm-2.38 5.09.18-.02.07.03.04.07.04.17c-.05.07-.12.1-.17.1s-.1-.02-.15-.04c-.03-.03-.06-.08-.07-.13 0-.05.01-.11.06-.18zm-.63.1c.1 0 .16.03.2.07l.15.1.08.14c.03.06.05.12.07.22a.35.35 0 0 1-.25.01.36.36 0 0 1-.18-.1.34.34 0 0 1-.1-.2.44.44 0 0 1 .03-.25zm1.1 2.86c.05-.08.1-.1.13-.13.04-.02.09-.02.13-.02.04 0 .07.02.1.06.04.04.06.07.09.16-.05.08-.1.1-.14.13-.04.02-.09.02-.13.02-.04-.01-.07-.02-.1-.06-.02-.04-.06-.08-.08-.16zm-.82.21.18-.04.09.02c.02 0 .05.02.06.06l.1.15c-.04.09-.09.12-.15.14a.21.21 0 0 1-.18-.02.27.27 0 0 1-.12-.11c0-.05-.02-.11.02-.2zm-.7.16.16.01.07.04.01.08-.05.16c-.07.04-.13.05-.17.04-.04-.02-.08-.03-.1-.07-.03-.02-.03-.06-.03-.1.04-.06.05-.1.11-.16zM105.65 81a.5.5 0 0 1-.03.27c-.02.08-.07.14-.12.2s-.11.1-.19.14c-.07.03-.16.06-.27.04l.06-.25a.56.56 0 0 1 .13-.18c.04-.05.1-.1.17-.13a.54.54 0 0 1 .25-.1zm.3-.43.15.11c.03.04.05.08.05.12 0 .03 0 .08-.03.13a.3.3 0 0 1-.13.14l-.15-.11c-.03-.04-.05-.07-.05-.11 0-.04 0-.09.02-.14a.3.3 0 0 1 .14-.14zm.01 1.84-.17.05-.18.04c-.11.02-.23.05-.36.05l.28-.22.12-.12.11-.13.2.33z"/>
      </g>
      <path class="secondary" stroke-width=".31" d="M101.1 87.64c-.11-.2-.17-.1-.54-1.16-.04-.1-.07-.2-.14-.3s-.16-.14-.32-.14c-.2 0-.26.07-.33.15s-.1.19-.13.29c-.35 1.06-.43.96-.54 1.16-.06.1-.03.17.04.26.06.1.18.25.28.42.48.82.3 1.96.65 1.96.35 0 .18-1.14.65-1.95l.3-.43c.1-.1.14-.16.08-.26z"/>
      <g>
        <path fill="none" d="M102.06 86.78c-.2-.27-.41-.54-.55-.84-.22-.46-.44-1.13.91-1.74"/>
        <g stroke="none" fill="#000">
          <path d="m102.38 84.08.83-.35.42-.2c.13-.07.26-.17.4-.2-.14.06-.26.17-.38.26l-.38.26-.8.48-.1-.25zm.63 3.58c-.19-.11-.37-.22-.55-.36a5.6 5.6 0 0 1-.5-.45l.2-.15a3.67 3.67 0 0 0 .85.96z"/>
        </g>
      </g>
      <g stroke="none" fill="#000">
        <path d="M99.72 87.69c.02.14.05.25.08.37l.09.36c.06.25.11.5.14.77-.1-.1-.15-.23-.2-.34l-.13-.38a2.06 2.06 0 0 1-.05-.38c.01-.14.01-.28.07-.4zm.28-.38-.07-.24-.04-.04h.05c-.03.02-.06.07-.08.12-.02.05-.03.11.02.2-.05.01-.1-.01-.14-.06l-.05-.08-.01-.08c0-.05 0-.1.02-.17a.43.43 0 0 1 .11-.15l.05-.02.09-.02.08.03.02.01.03.03c.05.07.05.12.05.19a.5.5 0 0 1-.13.28zm.5.63c-.01-.01 0 0 0 0V88l.01.09v.16c0 .11-.01.23-.04.33a1.3 1.3 0 0 1-.1.3c-.03.1-.1.2-.17.3l.04-.33.05-.31.07-.32.05-.16.04-.07.03-.04v-.03l.02.02c0-.03 0-.01 0 0z"/>
        <path d="M100.24 87.31a.38.38 0 0 1-.13-.25c0-.06 0-.11.05-.19l.03-.02.02-.01.08-.03.09.01.05.03c.06.04.1.1.1.15.03.05.03.11.03.16l-.01.09a.25.25 0 0 1-.05.07.2.2 0 0 1-.14.07c.05-.09.04-.15.02-.2-.03-.06-.07-.11-.08-.11 0 0-.01 0 0 0h.03l.02-.02-.04.05c-.03.03-.05.1-.07.2z"/>
      </g>
      <path fill="#f6f6f6" stroke-width=".31" d="M104.85 85.21c0 .97-.76 1.69-1.7 1.69-.68 0-1.46-1.01-1.25-1.65.2-.6.7-.82 1.14-1.01.3-.13 1.01-.3 1.32-.13.29.15.49.76.49 1.1z"/>
      <g stroke="none" fill="#000">
        <path d="M102.47 85.11c0 .44.34.8.77.8.42 0 .76-.36.76-.8s-.44-.8-.86-.8c-.43 0-.66.36-.66.8z"/>
      </g>
      <g>
        <g stroke="none" fill="#000">
          <path d="M99.65 90.99c-.11 0-.23-.11-.26-.23l-.05-.15c-.01-.05-.04-.07-.05-.09h-.04l-.19-.02a.25.25 0 0 1-.13-.11c-.04-.05-.05-.1-.07-.14l-.01-.09.03.03h-.02l-.15-.02-.18-.06-.1-.05c-.07-.02-.15-.01-.27 0l-.32.01.26-.18c.09-.05.2-.12.35-.12.07 0 .15.03.2.04.05.01.07.03.1.01h.16l.14.04c.05.03.1.08.13.13.04.11.03.18.04.21 0 .01 0 .01 0 0l-.02-.01.11.03.11.05c.05.03.08.07.1.12.05.08.05.15.05.21v.15c-.02.06 0 .15.08.24zm-5.44-2.7c.05.31.14.61.29.86l.13.19c.05.06.1.16.1.28.02.12 0 .2 0 .28v.19c0 .11.07.22.12.26.03.03.09.03.19.05.05.01.11.04.16.09.05.05.09.11.1.16.04.11.02.2.01.29l-.01.11v.09s-.01-.02-.03 0l.04.01.13.01.23.03-.22.07-.11.04-.09.01c-.05 0-.1-.05-.11-.07-.04-.06-.04-.1-.05-.15l-.03-.13c-.01-.07-.02-.15-.05-.19l-.02-.02-.05-.01c-.05-.02-.15 0-.28-.07a.55.55 0 0 1-.24-.23.77.77 0 0 1-.08-.29v-.29l.02-.19a.3.3 0 0 0-.05-.15l-.1-.22c-.1-.35-.11-.7 0-1.01zm4.84.62c.05.06.07.11.09.16.01.04 0 .08-.01.12-.02.02-.04.05-.1.07l-.17.03a.42.42 0 0 1-.09-.17c0-.03 0-.07.02-.1.01-.03.03-.06.08-.08l.18-.03zm.35-3.27a2.16 2.16 0 0 0-.25-.4l-.07-.09-.08-.09-.07-.09-.1-.08c-.2-.23-.44-.44-.67-.65a8.68 8.68 0 0 1-.66-.69c-.21-.24-.42-.5-.55-.81.25.21.5.38.75.58s.49.4.72.63c.23.22.45.46.64.74l.14.21.06.11.05.11c.05.18.09.35.09.52zm-6.18-6.48c.2.01.4.09.6.19s.34.23.5.35c.33.26.6.56.87.87l.74.95.36.48c.12.16.25.31.4.44-.2-.07-.38-.19-.54-.32a4.76 4.76 0 0 1-.45-.4c-.29-.3-.54-.6-.8-.9-.25-.3-.5-.62-.78-.9a3.27 3.27 0 0 0-.9-.76zm1.58 7.27-.13.1c-.02.03-.05.03-.07.03-.03 0-.04-.01-.06-.05l-.08-.15a.39.39 0 0 1 .09-.15c.04-.02.07-.04.11-.02.04.01.06.02.09.06.04.04.05.09.05.17zm.17.53-.1.13-.06.04-.06-.03-.13-.1a.23.23 0 0 1 .04-.17c.04-.04.08-.07.13-.07s.08.01.12.05c.04.01.06.06.06.15zm.24.55a.32.32 0 0 0-.15.08l-.07.02c-.03 0-.05-.01-.08-.05a.33.33 0 0 1-.11-.13c.03-.08.06-.13.11-.15a.25.25 0 0 1 .14-.04c.05.01.1.04.14.09a.2.2 0 0 1 .02.18zm.2.43a.47.47 0 0 1-.14.14.28.28 0 0 1-.13.03.25.25 0 0 1-.13-.04.36.36 0 0 1-.14-.13.33.33 0 0 1 .14-.15l.14-.04c.05 0 .1.01.14.05.05.01.08.06.12.14zm.25.45a.38.38 0 0 1-.1.1l-.1.02-.1-.02a.38.38 0 0 1-.1-.1l.1-.1.1-.03.1.03c.04.02.08.05.1.1zm.15.42c-.01.05-.04.09-.07.1-.03.03-.06.03-.1.03-.04 0-.06-.03-.09-.05-.03-.03-.04-.06-.04-.13l.1-.06.06-.01.05.02.1.1zm.41.39a.3.3 0 0 1-.1.11l-.1.04-.12-.01a.25.25 0 0 1-.13-.09.3.3 0 0 1 .1-.11l.12-.04.11.01.13.09zm.38.2a.28.28 0 0 1-.06.14l-.12.07a.25.25 0 0 1-.13 0 .28.28 0 0 1-.14-.08l.1-.12.1-.05.11-.01.14.05zm-1.92-3.63c.03.08.04.13.03.17a.1.1 0 0 1-.05.09c-.02.02-.06.02-.1.02-.04-.01-.09-.02-.15-.09v-.16c0-.04.01-.05.03-.06l.07-.01c.04 0 .09 0 .16.04zm-.02-.7c.04.1.05.14.05.2 0 .04-.01.08-.04.12a.23.23 0 0 1-.1.09l-.18.05a.33.33 0 0 1-.06-.2c0-.04 0-.1.03-.13a.3.3 0 0 1 .11-.1l.2-.02zm.04-.97c.04.07.05.14.05.19 0 .05-.01.1-.04.13l-.1.1a.44.44 0 0 1-.2.03.42.42 0 0 1-.05-.19c0-.05.02-.1.04-.14a.27.27 0 0 1 .11-.08c.04-.03.1-.04.19-.04zm.3-.61-.05.16c-.01.04-.03.05-.05.06l-.07.01-.17-.03a.26.26 0 0 1-.02-.19.2.2 0 0 1 .09-.11c.03-.03.08-.03.13-.01.05 0 .1.03.14.1zm.67-.3a.48.48 0 0 1-.12.11l-.07.03c-.03 0-.06-.03-.07-.05l-.07-.15a.25.25 0 0 1 .1-.14c.03-.03.07-.04.1-.03.03.01.06.03.08.06.04.03.05.08.05.17zm3.02 5.19a.4.4 0 0 1 .02.23.34.34 0 0 1-.1.19.52.52 0 0 1-.17.11.35.35 0 0 1-.25-.01c.01-.1.04-.16.06-.23l.09-.13a.4.4 0 0 1 .14-.1l.2-.06zm-1.1 2.86a.33.33 0 0 1-.09.16l-.1.06c-.04.01-.07 0-.13-.02-.03-.03-.08-.05-.13-.13a.33.33 0 0 1 .09-.16l.1-.06c.03 0 .07 0 .12.02.04.03.09.05.14.13zm.81.21c.04.09.03.15 0 .2-.03.05-.07.1-.13.11a.27.27 0 0 1-.17.01.27.27 0 0 1-.15-.13l.1-.15.06-.06.09-.02.2.04zm.7.16c.06.05.09.1.1.15.01.04 0 .08-.03.11-.02.03-.05.05-.1.07-.05 0-.1 0-.17-.04l-.05-.16.01-.08.06-.03.18-.02zM94.56 81a.75.75 0 0 1 .43.22l.12.18c.04.07.05.15.06.25a.4.4 0 0 1-.27-.04.73.73 0 0 1-.19-.14l-.12-.2a.41.41 0 0 1-.03-.27zm-.3-.43a.3.3 0 0 1 .14.14c.03.05.03.1.03.14 0 .04-.03.07-.05.11a.52.52 0 0 1-.15.11.3.3 0 0 1-.14-.14c-.03-.05-.03-.1-.03-.13 0-.04.03-.08.05-.12a.52.52 0 0 1 .15-.1zm.19 1.53.11.12.13.13.27.21c-.11 0-.23-.02-.36-.05l-.17-.04-.18-.05.2-.32z"/>
        </g>
        <g>
          <path fill="none" d="M98.15 86.78c.2-.27.41-.54.55-.84.23-.46.44-1.13-.91-1.74"/>
          <g stroke="none" fill="#000">
            <path d="M97.74 84.3a10.35 10.35 0 0 1-.8-.47l-.38-.27c-.12-.09-.24-.2-.39-.25.15.03.3.13.42.19l.41.2.84.35-.1.25zm-.54 3.36a4.04 4.04 0 0 0 .85-.97l.2.15a4.28 4.28 0 0 1-1.05.82z"/>
          </g>
        </g>
        <path fill="#f6f6f6" stroke-width=".31" d="M95.36 85.21c0 .97.76 1.69 1.7 1.69.68 0 1.46-1.01 1.25-1.65-.2-.6-.7-.82-1.14-1.01-.3-.13-1-.3-1.32-.13-.29.15-.49.76-.49 1.1z"/>
        <g stroke="none" fill="#000">
          <path d="M97.74 85.11c0 .44-.34.8-.76.8-.43 0-.77-.36-.77-.8s.44-.8.86-.8c.43 0 .67.36.67.8z"/>
        </g>
      </g>
    </g>
    <g stroke="none" fill="#000">
      <path d="M98.17 106.21c.13.1.28.13.43.15l.46.05c.3.03.61.04.91.04.3 0 .6-.03.92-.05l.92-.14a2.84 2.84 0 0 1-.87.43 3.59 3.59 0 0 1-2.17-.06l-.22-.1-.21-.12a.43.43 0 0 1-.17-.2zm6.18-9.95a1 1 0 0 1 .06.78c-.04.12-.1.25-.17.35a.72.72 0 0 1-.31.26c0-.15 0-.28.03-.39l.09-.34.11-.33.19-.33zm1.09-1.81c.07.07.11.16.14.25a.63.63 0 0 1-.02.26.5.5 0 0 1-.12.23.5.5 0 0 1-.25.15c-.03-.11-.03-.19-.03-.26 0-.08.01-.15.04-.22l.07-.2.17-.21zm-1.18 4.81c.09.08.13.18.15.26.03.1.02.2-.01.3a.7.7 0 0 1-.14.24.46.46 0 0 1-.26.15 1 1 0 0 1 0-.27l.04-.23.07-.21.15-.24zm1.25-1.75c.09.08.13.18.15.26.03.1.02.2-.01.3a.7.7 0 0 1-.14.24.46.46 0 0 1-.26.15 1 1 0 0 1 0-.27l.04-.23.07-.21.15-.24zm-.56 3.59c.09.13.14.25.15.39.01.14.01.27-.02.41a1.04 1.04 0 0 1-.5.65c0-.15.03-.28.06-.39l.07-.35.1-.34c.03-.12.08-.23.14-.37zm-1.99.89c.1.07.15.17.18.29.02.1.02.22 0 .33-.03.11-.08.21-.15.3s-.18.15-.29.18l.03-.32.05-.25.07-.25.11-.28zM101.3 104a.88.88 0 0 1 .1.42 1.34 1.34 0 0 1-.49 1.14c-.01-.15 0-.29.01-.42s.04-.26.08-.39l.11-.38c.05-.1.1-.25.19-.37zm.67-3.86c.07.16.1.32.08.47a1.55 1.55 0 0 1-.31.9c-.1.13-.21.24-.36.33.02-.18.06-.31.1-.46l.13-.42.16-.4a1.88 1.88 0 0 1 .2-.42zm.3-3.19a1 1 0 0 1 .1.46 1.38 1.38 0 0 1-.1.45c-.06.15-.13.28-.23.39a.86.86 0 0 1-.39.26c.04-.16.09-.28.14-.42l.15-.38.15-.37.17-.39zm-.12-2.46a.64.64 0 0 1-.45.37.73.73 0 0 1-.29.03.54.54 0 0 1-.28-.13l.25-.17a1.34 1.34 0 0 1 .48-.13c.08 0 .18 0 .29.03zm1.85-1.52a.63.63 0 0 1 .01.4c-.04.13-.09.25-.17.37-.09.1-.19.19-.31.25a.63.63 0 0 1-.4.07 3.38 3.38 0 0 1 .2-.31l.2-.26.2-.25.27-.26zm-8.14 3.3c.08.12.14.23.18.34l.11.34.09.34c.02.12.04.24.04.39-.14-.07-.23-.17-.32-.27a1.31 1.31 0 0 1-.17-.35 1.38 1.38 0 0 1-.05-.38.94.94 0 0 1 .12-.42zm-1.08-1.82c.07.07.12.15.16.21.04.07.06.13.07.2l.04.22c0 .07 0 .16-.03.26a.43.43 0 0 1-.25-.15.57.57 0 0 1-.13-.49.72.72 0 0 1 .13-.25zm1.17 4.81c.06.09.11.16.14.24.04.07.06.14.07.21.03.08.04.14.04.23a1 1 0 0 1 0 .27c-.11-.02-.2-.07-.26-.15s-.11-.16-.14-.25a.73.73 0 0 1-.01-.29.54.54 0 0 1 .16-.26zm-1.25-1.75c.06.09.11.16.14.24.04.07.06.14.07.21.03.08.04.14.04.23a1 1 0 0 1 0 .27c-.11-.02-.2-.07-.26-.15s-.11-.16-.14-.25a.73.73 0 0 1-.01-.29.54.54 0 0 1 .16-.26zm.56 3.59.14.38.1.33.07.35.06.39a.75.75 0 0 1-.32-.28 1.29 1.29 0 0 1-.17-.37 1.15 1.15 0 0 1-.03-.41.93.93 0 0 1 .15-.39zm1.99.89.11.29.08.24.05.25.02.32a.5.5 0 0 1-.29-.18.68.68 0 0 1-.14-.3.77.77 0 0 1 0-.34.47.47 0 0 1 .17-.28zm1.66 2.01c.09.13.14.26.19.39l.11.37.08.39c.01.14.02.28.01.42-.13-.08-.21-.2-.29-.32a1.5 1.5 0 0 1-.16-.39 1.2 1.2 0 0 1-.04-.42c0-.15.04-.3.1-.44zm1.2-2.17a.97.97 0 0 1 .2.55c.01.08 0 .18-.01.27a.77.77 0 0 1-.1.3.72.72 0 0 1-.19-.26 1.08 1.08 0 0 1-.07-.29c-.01-.1 0-.2.02-.29.03-.1.07-.2.15-.28zm-1.87-1.7.21.43.16.4.14.42c.04.13.07.28.1.46a1.39 1.39 0 0 1-.59-.75 1.52 1.52 0 0 1-.09-.48.78.78 0 0 1 .07-.47zm-.29-3.18a3.75 3.75 0 0 1 .19.4l.15.38.15.37c.05.13.1.26.14.43a1.01 1.01 0 0 1-.4-.27 1.25 1.25 0 0 1-.32-.84.88.88 0 0 1 .09-.47zm.11-2.46c.11-.03.21-.03.3-.03s.16.03.25.04l.24.09c.07.03.16.08.25.17a.54.54 0 0 1-.29.13c-.1.01-.2 0-.29-.03a.73.73 0 0 1-.26-.12.57.57 0 0 1-.2-.25zm-1.85-1.52.25.28.2.25.2.26.22.31a.75.75 0 0 1-.4-.07.89.89 0 0 1-.5-.61.75.75 0 0 1 .03-.41z"/>
    </g>
  </g>
</svg>
