<svg xmlns="http://www.w3.org/2000/svg" fill="#d7374a" stroke="#000" viewBox="50 50 200 200">
  <metadata source="http://wappenwiki.org/images/5/56/Tagliavia.svg" license="https://creativecommons.org/licenses/by-nc-sa/3.0"/>
  <g id="palmTree" stroke-width=".28">
    <g>
      <path d="M97.74 70.34s-.19-2.1-2.38-4.19c.84-.13 1.49.36 1.49.36s-.84-2.64-2.16-3.1c.8-.29 1.71.1 1.71.1s-1.02-2.07-2.34-3.13c1.42-.1 5.1 2.09 6.6 8.52 1.15 4.81.45 7.3-.06 9.03-.42 1.64-1.2 2.93-1.16 2.26.09-1.17 0-2.48-.46-3.58-.47-.89-.8-2.04-2.43-3.84 1.12-.06 1.66.43 1.66.43-.39-.93-1.04-2.56-2.09-3.5.37 0 1.02.1 1.62.65"/>
      <g stroke="none" fill="#000">
        <path d="M98.27 73.08c.88.6 1.35 1.64 1.66 2.63.15.5-.2-.46-.3-.62a4.12 4.12 0 0 0-1.49-1.77l.14-.24zm-.46-2.85a8.75 8.75 0 0 1 2.12 2.5 8.63 8.63 0 0 0-2.26-2.27l.14-.23zm-.9-3.85a7.2 7.2 0 0 1 2.73 3.21 7.06 7.06 0 0 0-2.87-2.96l.14-.24zm-.45-3a4.7 4.7 0 0 1 2.07 2.32 4.57 4.57 0 0 0-2.19-2.07l.13-.25z"/>
      </g>
    </g>
    <g>
      <g>
        <g>
          <path d="M102.2 70.34s.18-2.1 2.38-4.19c-.83-.13-1.48.36-1.48.36s.83-2.64 2.14-3.1c-.79-.29-1.7.1-1.7.1s1.02-2.07 2.35-3.13c-1.44-.1-5.1 2.09-6.6 8.52-1.17 4.81-.45 7.3.05 9.03.42 1.64 1.2 2.93 1.15 2.26-.07-1.17.01-2.48.47-3.58.47-.89.79-2.04 2.43-3.84-1.11-.06-1.67.43-1.67.43.4-.93 1.05-2.56 2.1-3.5a2.51 2.51 0 0 0-1.62.65"/>
          <g stroke="none" fill="#000">
            <path d="M101.8 73.33a4.68 4.68 0 0 0-1.74 2.3c-.08.2-.15.4-.05.08.32-.98.77-2.02 1.65-2.63l.13.24zm.48-2.88a8.61 8.61 0 0 0-2.27 2.28 8.77 8.77 0 0 1 2.11-2.51l.16.24zm.9-3.81a7.06 7.06 0 0 0-2.87 2.95 7.2 7.2 0 0 1 2.72-3.2l.14.24zm.42-3a4.57 4.57 0 0 0-2.2 2.06 4.7 4.7 0 0 1 2.08-2.32l.12.25z"/>
          </g>
          <path d="M107.75 71.56s1.34-2.12 5.26-3.04c-.99-.62-2.08-.48-2.08-.48s2.47-2.3 4.4-2.03c-.86-.77-2.24-.89-2.24-.89s2.41-1.59 4.66-1.94c-1.76-.94-7.63-.77-12.96 5.17-4.06 4.41-4.46 7.47-4.74 9.58-.34 1.99-.02 3.8.28 3.07a8.5 8.5 0 0 1 2.5-3.53c1.08-.65 2.09-1.7 5.14-2.63-1.4-.72-2.35-.52-2.35-.52 1-.76 2.7-2.1 4.54-2.49a4.08 4.08 0 0 0-2.42-.26"/>
          <path d="M112.04 76.52s2.35-1.27 6.46-.1c-.6-1.09-1.68-1.53-1.68-1.53s3.48-.84 5.12.4c-.4-1.16-1.61-1.98-1.61-1.98s3.06-.24 5.33.6c-1.16-1.78-6.7-4.64-14.7-1.9-6.03 2-8 4.61-9.33 6.43-1.34 1.67-1.98 3.5-1.32 2.97a9.02 9.02 0 0 1 4.13-1.95c1.34-.06 2.81-.5 6.13.21-.93-1.39-1.91-1.7-1.91-1.7 1.3-.18 3.58-.56 5.49.04a4.32 4.32 0 0 0-2.1-1.49"/>
          <g stroke="none" fill="#000">
            <path d="M108.6 78.1c-1.34-.7-2.92-.62-4.35-.34 1.45-.38 3.07-.54 4.47.1l-.14.23zm3.39-1.45a12.54 12.54 0 0 0-4.36-1.08c1.52.01 3.06.28 4.48.82l-.12.26zm4.77-1.63a10.18 10.18 0 0 0-5.62-1.3 10.4 10.4 0 0 1 5.74 1.05l-.12.25zm3.5-1.6a6.76 6.76 0 0 0-4.1-1.13 6.88 6.88 0 0 1 4.24.9l-.14.23z"/>
          </g>
          <path d="M114.3 81.54s2.9-.37 6.62 2.4c-.15-1.34-1.08-2.18-1.08-2.18s3.9.47 5.06 2.37c.07-1.33-.83-2.62-.83-2.62s3.23.95 5.19 2.67c-.44-2.25-4.91-7.27-14.2-7.6-7-.3-10.08 1.57-12.19 2.88-2.05 1.16-3.47 2.76-2.58 2.48 1.54-.46 3.35-.74 5.02-.37 1.4.46 3.08.59 6.18 2.58-.38-1.76-1.26-2.45-1.26-2.45 1.42.3 3.89.82 5.59 2.16a4.49 4.49 0 0 0-1.53-2.32"/>
          <g stroke="none" fill="#000">
            <path d="M110.13 81.79c-1.1-1.21-2.74-1.74-4.3-2.01 1.62.18 3.34.64 4.51 1.83l-.21.18zm4.06-.14a13.53 13.53 0 0 0-4.02-2.77 13.66 13.66 0 0 1 4.23 2.57l-.2.19zm5.54.2c-1.4-1.56-3.15-2.93-5.2-3.47 2.1.47 3.93 1.77 5.4 3.28l-.2.2zm4.23-.26a7.24 7.24 0 0 0-3.71-2.7 7.35 7.35 0 0 1 3.93 2.53l-.22.17z"/>
          </g>
        </g>
        <path d="M111.64 87.86s2.45 1.06 4.07 5.02c.48-1.14.16-2.26.16-2.26s2.81 2.2 2.84 4.28c.67-1.04.56-2.51.56-2.51s2.08 2.27 2.82 4.57c.69-2-.47-8.12-7.56-12.73-5.3-3.52-8.56-3.45-10.82-3.38-2.14-.03-3.98.6-3.16.8a9.02 9.02 0 0 1 4.09 2.03c.87 1.03 2.12 1.92 3.6 4.96.54-1.58.17-2.55.17-2.55.96.91 2.65 2.48 3.34 4.34.15-.55.28-1.51-.1-2.57"/>
        <g stroke="none" fill="#000">
          <path d="M108.27 86.1c-.28-1.47-1.3-2.66-2.41-3.62 1.19.91 2.32 2.09 2.69 3.6l-.28.02zm3.23 1.8a12.55 12.55 0 0 0-1.84-4.1c.93 1.21 1.68 2.57 2.11 4.03l-.27.07zm4.23 2.73a10.24 10.24 0 0 0-2.44-5.22 10.4 10.4 0 0 1 2.72 5.17l-.28.05zm3.4 1.77a6.73 6.73 0 0 0-1.62-3.9 6.88 6.88 0 0 1 1.9 3.87l-.27.03z"/>
        </g>
        <path d="M107.2 92.29s1.7 2.03 1.4 6.3c.94-.8 1.14-1.96 1.14-1.96s1.54 3.23.65 5.1a4.65 4.65 0 0 0 1.64-2s.43 2.4.93 5.35c.34-3.16 2.75-7.5-1.57-14.77-3.18-5.5-6.14-6.88-8.18-7.84-1.92-.96-3.84-1.21-3.2-.68a9.02 9.02 0 0 1 2.77 3.64c.33 1.3 1.05 2.66 1.03 6.05a4.1 4.1 0 0 0 1.28-2.22c.46 1.25 1.27 3.4 1.08 5.39a4.3 4.3 0 0 0 1.03-2.36"/>
        <g stroke="none" fill="#000">
          <path d="M104.95 89.22c.4-1.45 0-2.97-.56-4.31.67 1.34 1.16 2.9.82 4.4l-.26-.1zm2.1 3.04c.34-1.47.37-3 .17-4.5.3 1.5.37 3.06.1 4.56l-.27-.06zm2.57 4.32c.52-1.86.71-3.89.13-5.76.68 1.87.57 3.93.14 5.84l-.27-.08zm2.27 3.09a8.1 8.1 0 0 0 .27-4.21 8.24 8.24 0 0 1-.01 4.32l-.26-.11zm-6.27-25.21c-1.4.03-2.67.82-3.72 1.7 1.02-.98 2.28-1.86 3.72-1.98v.28zm2.14-2.76a11.72 11.72 0 0 0-4.1 1.12 12.06 12.06 0 0 1 4.08-1.4l.02.28zm3.18-3.52a9.7 9.7 0 0 0-5.22 1.5 9.75 9.75 0 0 1 5.2-1.77l.02.27zm2.14-2.92a6.26 6.26 0 0 0-3.88.93 6.46 6.46 0 0 1 3.9-1.2l-.02.27z"/>
        </g>
      </g>
      <g>
        <g>
          <path d="M92.2 71.56s-1.35-2.12-5.28-3.04c1-.62 2.09-.48 2.09-.48s-2.48-2.3-4.4-2.03c.86-.77 2.24-.89 2.24-.89s-2.42-1.59-4.67-1.94c1.77-.94 7.65-.77 12.97 5.17 4.06 4.41 4.47 7.47 4.74 9.58.34 1.99.03 3.8-.28 3.07a8.5 8.5 0 0 0-2.5-3.53c-1.07-.65-2.09-1.7-5.15-2.63 1.4-.72 2.36-.52 2.36-.52-1-.76-2.7-2.1-4.54-2.49a4.08 4.08 0 0 1 2.42-.26"/>
          <path d="M87.9 76.52s-2.35-1.27-6.46-.1c.6-1.09 1.67-1.53 1.67-1.53s-3.47-.84-5.11.4c.4-1.16 1.61-1.98 1.61-1.98s-3.06-.24-5.32.6c1.15-1.78 6.68-4.64 14.68-1.9 6.05 2 8 4.61 9.34 6.43 1.34 1.67 1.98 3.5 1.32 2.97a9.02 9.02 0 0 0-4.13-1.95c-1.34-.06-2.81-.5-6.13.21.93-1.39 1.92-1.7 1.92-1.7-1.32-.18-3.58-.56-5.5.04a4.3 4.3 0 0 1 2.1-1.49"/>
          <g stroke="none" fill="#000">
            <path d="M91.21 77.85c1.4-.63 3.02-.47 4.47-.1-1.43-.27-3-.35-4.33.34l-.14-.24zm-3.37-1.45a12.7 12.7 0 0 1 4.47-.82 12.56 12.56 0 0 0-4.36 1.08l-.11-.26zm-4.78-1.62a10.4 10.4 0 0 1 5.73-1.05c-1.95-.2-3.9.42-5.6 1.3l-.13-.25zm-3.52-1.58a6.84 6.84 0 0 1 4.23-.9 6.75 6.75 0 0 0-4.1 1.14c-.03-.08-.08-.16-.13-.24z"/>
          </g>
          <path d="M85.65 81.54s-2.92-.37-6.64 2.4c.17-1.34 1.1-2.18 1.1-2.18s-3.9.47-5.07 2.37c-.08-1.33.84-2.62.84-2.62s-3.23.95-5.2 2.67c.44-2.25 4.9-7.27 14.2-7.6 7-.3 10.07 1.57 12.19 2.88 2.05 1.16 3.47 2.76 2.58 2.48a10.16 10.16 0 0 0-5.03-.37c-1.4.46-3.06.59-6.16 2.58.36-1.76 1.24-2.45 1.24-2.45-1.42.3-3.88.82-5.58 2.16.17-.59.56-1.55 1.53-2.32"/>
          <g stroke="none" fill="#000">
            <path d="M89.6 81.6c1.17-1.18 2.89-1.64 4.51-1.82-1.56.28-3.2.79-4.3 2l-.22-.17zm-4.05-.15a13.65 13.65 0 0 1 4.22-2.57 13.5 13.5 0 0 0-4.03 2.77l-.2-.2zm-5.55.21a11.12 11.12 0 0 1 5.42-3.28c-2.06.54-3.82 1.9-5.21 3.46l-.21-.18zm-4.24-.24a7.38 7.38 0 0 1 3.95-2.54 7.22 7.22 0 0 0-3.72 2.7l-.23-.16z"/>
          </g>
        </g>
        <path d="M88.3 87.86s-2.45 1.06-4.06 5.02c-.5-1.14-.16-2.26-.16-2.26s-2.82 2.2-2.85 4.28c-.67-1.04-.56-2.51-.56-2.51s-2.08 2.27-2.81 4.57c-.7-2 .46-8.12 7.56-12.73 5.29-3.52 8.55-3.45 10.81-3.38 2.14-.03 3.98.6 3.17.8a9.02 9.02 0 0 0-4.1 2.03c-.87 1.03-2.12 1.92-3.61 4.96-.53-1.58-.16-2.55-.16-2.55-.96.91-2.64 2.48-3.35 4.34a4.3 4.3 0 0 1 .12-2.57"/>
        <g stroke="none" fill="#000">
          <path d="M91.39 86.07c.37-1.5 1.49-2.68 2.69-3.58-1.1.95-2.13 2.14-2.41 3.62l-.28-.04zm-3.23 1.76a12.69 12.69 0 0 1 2.12-4.04 12.61 12.61 0 0 0-1.85 4.1l-.27-.06zm-4.21 2.76a10.4 10.4 0 0 1 2.71-5.17 10.24 10.24 0 0 0-2.45 5.21l-.27-.05zm-3.42 1.79a6.88 6.88 0 0 1 1.91-3.88 6.7 6.7 0 0 0-1.63 3.9l-.28-.02z"/>
        </g>
        <path d="M92.75 92.29s-1.72 2.03-1.42 6.3c-.94-.8-1.14-1.96-1.14-1.96s-1.55 3.23-.65 5.1a4.65 4.65 0 0 1-1.62-2s-.43 2.4-.93 5.35c-.34-3.16-2.75-7.5 1.56-14.77 3.2-5.5 6.14-6.88 8.2-7.84 1.9-.96 3.83-1.21 3.18-.68a9.02 9.02 0 0 0-2.76 3.64c-.33 1.3-1.05 2.66-1.04 6.05a4.1 4.1 0 0 1-1.27-2.22c-.46 1.25-1.28 3.4-1.08 5.39a4.3 4.3 0 0 1-1.02-2.36"/>
        <g stroke="none" fill="#000">
          <path d="M94.74 89.3c-.35-1.5.14-3.05.8-4.39-.55 1.34-.95 2.86-.55 4.3l-.26.1zm-2.13 3a12.66 12.66 0 0 1 .09-4.54 12.65 12.65 0 0 0 .19 4.49l-.28.05zm-2.55 4.38c-.44-1.91-.56-3.98.13-5.84-.59 1.86-.38 3.9.13 5.76l-.26.07zm-2.27 3.11a8.22 8.22 0 0 1-.01-4.32 8 8 0 0 0 .27 4.2l-.26.12zm6.53-25.61c1.45.12 2.7 1 3.72 1.98-1.04-.88-2.3-1.67-3.72-1.7v-.28zM92.2 71.43a12.09 12.09 0 0 1 4.06 1.39 11.72 11.72 0 0 0-4.1-1.1l.04-.29zm-3.2-3.53c1.84.14 3.73.63 5.2 1.77a9.7 9.7 0 0 0-5.2-1.49v-.28zm-2.17-2.92c1.38.02 2.79.36 3.9 1.21a6.27 6.27 0 0 0-3.88-.93l-.02-.28z"/>
        </g>
      </g>
    </g>
    <g>
      <path class="secondary" d="M114.39 128.03c-.38-.34-.96-.44-.96-.44s-.17-.2-.75-.2-.62.47-1.37.47c-.82 0-.63-.5-1.47-.5-.3 0-.56.09-.8.39-1.1.16-1.38 1.1-2.52 1.1-1.44 0-2.5-1.2-2.61-1.64-.12-.56-.34-2.11-.24-3.52.03-.55.12-3.05.08-3.58-.04-.53-.4-2.31-.45-2.97-.05-.67.07-1.19.03-1.67-.04-.47-.26-.84-.3-1.32-.04-.48.15-1.96.1-2.7-.07-.74-.1-1.96-.1-1.96s-.25-1.95-.25-2.6.17-2.2.17-2.77v-.02c-.23-2.78-.75-5.54-.65-8.35-.09-.36-.19-.74-.14-1.16.1-2.85-.47-6.2-.22-9.07.09-.9-.46-1.92-.89-2.67-.33-.59-.36-2.01-.99-2.37-.23-.13-.57-.05-.7.19-.04.07-.06.16-.11.21-.1.1-.25.12-.34.2-.16.18-.06.54-.11.75-.06.28-.19.57-.36.8-.1.12-.19.24-.26.37-.24.49-.1 1.3-.1 1.85v.06c.34 2.94-.6 6.3-.01 8.84a7.9 7.9 0 0 1-.16 1.76c.03 1.28-.09 2.57-.14 3.83-.08 1.59-.05 3.17-.3 4.7l.03.28c0 .58.1 1.92.1 2.58s-.34 2.59-.34 2.59l.06 3.2s.08.93 0 2.05c-.1 1.14.04 3.83 0 4.45-.05.61-.25 1.73-.3 2.51-.07.76.18.93.12 1.77-.06.82.12 2.43.01 2.77-.1.25-.34 1.55-1.54 1.55-.77 0-2.03-2.02-3.32-2.02-1.3 0-1.99 1.8-3 1.8-.59 0-.52-.29-.9-.28-.32 0-.63.19-.77.26-.31.16-.39.59-.74.73-.37.15-.88-.12-1 .02-.1.14.35.65 1.06.65s.77-.55 1.14-.55.71.33 1 .33c1.32 0 2.08-1.45 3.02-1.45.58 0 .93.52.93.68 0 .54-.67.28-1.4.84-.73.56-.7 1.14-.53 1.24.18.1.03-.5 1.05-.7.48-.04.61-.25 1.04-.25 1.61 0 1.62.89 2.55.89 1.38 0 2.07-.58 2.25-.58.2 0 .46.08.46.62 0 .53-.53.84-.98.84-.6 0-.86-.22-1.35-.22-.48 0-1 .46-1 .46s-.9-1.08-1.85-1.08c-.94 0-1.08.93-1.74.93-.43 0-.34-.44-1.36-.44s-1.48.93-1.34 1.04c.19.19.48-.33 1.31-.33.84 0 .62.79 1.49.79s1.13-.66 1.63-.66 1.16.53 1.16.92c-.14 1.24.45 1.26.45 1.26s.18.6.79.62c.53.13.79-.45 1.86.2.74.66-.15 1.65.09 1.94.25.12.9-.84.9-1.6 0-.68-.33-1.23-1.03-1.29-.33-.6-1.43-.25-1.43-.76s.83-.62 1.13-.5c.29.14.8.28 1.58-.36.37 1.8 1.7 1.92 1.7 2.6 0 .25-.96.89-.96 1.73.04.96.56 1.18.72 1.68.3 1.27-.2 2 .06 2.05.6 0 .9-.92.8-1.72-.08-.81-.38-.84-.38-1.47 0-.64.46-.9.49-1.18.18-.17.37 0 .6-.01.44-.03.54-.43.54-.86s-.27-.6-.5-.6c-.23-.7-.9-1.11-.9-2.24 0-.25.18-.45.38-.45.45 0 1.31.47 1.61.57.15.5 1.08.3 1.08.9 0 .85-.44.65-.6 1.47-.16.82.2 1.75.38 1.67.16-.07-.1-.85.26-1.52.15-.16.56-.44.72-.64.37-.31.37-.68.37-1.05 0-.21-.54-1.55-1.35-1.47 0-.65-1.53-.6-1.53-1.3 0-.18.2-.4.68-.4 1.16 0 .47 1.6 2.75 1.12.08.93 1.05 1.11 1.05 1.5 0 .4-.22.46-.22.89 0 .61.56 1.36.69 1.26.13-.1-.3-.45 0-1.2.15-.4.48-.6.48-1.05 0-.97-.77-.69-.77-1.4 0-.49.91-.53 1.3-.95.28 0 .28.69.62.84.62.34 1.08-.3 1.35 0 0 .65-.68.39-.95.84-.5.75-.44 1.66-.26 1.72.17.06.1-.8.83-1.28 1.4-.12 1.49-1.1 1.57-1 1.48.16 1-.54 1.96-.7-.46-.55-.78-.05-1.44-.05-.23 0-.37-.56-.72-.56-.34 0-.93.28-.93.28s-.57-.03-.57-.35.1-.69.35-.69.31.25.56.25c.25 0 .5-.22.5-.22s.24.2.7.2c.74 0 .98-.56 1.43-.56 1.06 0 1.37.68 1.65.5.14-.1-.06-.51-.47-.9z"/>
    </g>
    <g stroke="none" fill="#000">
      <path d="M97.09 121.2a11.88 11.88 0 0 0 6.48 1.68c-.88.28-2.57.13-3.71-.18a6.08 6.08 0 0 1-2.77-1.5zm.2-1.77c1.77 1.2 3.98 1.53 6.08 1.61.58.03-1.47.25-1.85.1-1.51-.17-3.16-.57-4.23-1.7z"/>
      <path d="M103.65 121.2c-1.64 1.55-4.09 2-6.26 1.76-.52-.12 1.48-.02 1.88-.22 1.52-.24 3.1-.63 4.38-1.53zm0-1.85c-1.64 1.54-4.09 1.99-6.26 1.75-.52-.12 1.48-.02 1.88-.22 1.52-.24 3.1-.63 4.38-1.53zm-6.36-1.68c1.76 1.12 3.95 1.39 6 1.51.86 0-1.41.26-1.76.1-1.48-.2-3.16-.49-4.24-1.61zm0-1.86c1.6 1.05 3.6 1.28 5.45 1.56 1.44 0-1.33.26-1.73 0-1.3-.25-2.78-.56-3.72-1.58z"/>
      <path d="M103.38 117.72c-1.38 1.35-3.47 1.54-5.3 1.62-1.83-.19 1-.07 1.48-.35 1.3-.27 2.73-.46 3.82-1.27zm-.06-1.82c-1.6 1.33-3.84 1.72-5.86 1.48-.44-.12 1.57-.04 2.01-.25a11.07 11.07 0 0 0 3.85-1.23zm-5.93-1.95c1.57 1.06 3.53 1.3 5.36 1.56 1.44.03-1.58.26-1.99-.05-1.2-.23-2.52-.57-3.37-1.51zm-.1-1.86c1.53.99 3.42 1.25 5.18 1.56 1.47 0-1.32.27-1.63-.04-1.27-.24-2.65-.55-3.56-1.53z"/>
      <path d="M103.04 114.22c-1.43 1.19-3.42 1.4-5.2 1.38-1.25-.19 1.89-.14 2.38-.46.98-.19 1.97-.4 2.81-.92zm.08-1.97a7.64 7.64 0 0 1-5.52 1.45c-.47-.13 1.53-.06 1.9-.28 1.25-.22 2.5-.56 3.62-1.17zm-5.85-2.04c1.57 1.02 3.5 1.27 5.3 1.6 1.38.01-1.29.24-1.68-.05-1.28-.24-2.7-.56-3.62-1.55zm.21-1.77c1.49.99 3.33 1.16 5.04 1.5 1.38.02-1.25.26-1.59-.03-1.23-.23-2.59-.5-3.45-1.48z"/>
      <path d="M103.06 110.49c-1.1 1.17-2.88 1.19-4.37 1.4-.57.1-2.18-.2-.67-.12 1.53-.24 3.13-.38 4.57-.99.16-.08.33-.18.47-.3zm-.12-1.78c-1.4 1.12-3.3 1.33-5.02 1.3-1.74-.22 1.44-.1 1.93-.38 1.05-.2 2.15-.37 3.09-.93zm-5.36-2c1.54.85 3.34 1.09 5.05 1.36.29.15-1.77.08-2.28-.13-.98-.22-2.04-.49-2.77-1.23zm-.1-1.93c1.6.89 3.47 1.2 5.26 1.44-1.07.21-2.76-.14-3.96-.6a3.7 3.7 0 0 1-1.3-.84z"/>
      <path d="M102.78 106.9c-1.33 1.04-3.15 1.3-4.8 1.27-1.14-.19 2.19-.22 2.7-.58a7.97 7.97 0 0 0 2.1-.7zm.16-1.91a7.2 7.2 0 0 1-5.32 1.17 18.5 18.5 0 0 0 3.9-.64 6.88 6.88 0 0 0 1.4-.53zm-5.34-2c1.67.8 3.52 1.2 5.35 1.37A7.49 7.49 0 0 1 97.6 103zm.1-1.79c1.39.84 3.07.92 4.6 1.26 1 .23-2.32.02-2.9-.32a3.39 3.39 0 0 1-1.7-.93z"/>
      <path d="M102.86 103.17a7.57 7.57 0 0 1-4.88 1.24c-1.15-.2 2.23-.18 2.75-.56a8.85 8.85 0 0 0 2.13-.68zm-.18-1.76c-1.2.92-2.78 1.09-4.22 1.22-1.85-.16.7-.12 1.26-.41.99-.24 2.05-.34 2.96-.81zm-4.85-2a18.34 18.34 0 0 0 4.84 1.23 7.15 7.15 0 0 1-4.66-1.08l-.13-.1-.05-.03Zm.07-1.79c1.42.63 2.97.88 4.49 1.15a6.6 6.6 0 0 1-4.5-1.15z"/>
      <path d="M102.47 99.65a7.57 7.57 0 0 1-4.77.99c1.63-.16 3.21-.52 4.77-.99zm-.16-1.77a6.88 6.88 0 0 1-4.38.9c1.48-.19 2.94-.47 4.37-.9zm-4.45-2.13c1.42.63 2.97.88 4.48 1.16a6.53 6.53 0 0 1-4.48-1.16zm.21-1.74c1.33.49 2.7.73 4.07 1.02A6.23 6.23 0 0 1 98.07 94z"/>
      <path d="M102.29 96.02a7.43 7.43 0 0 1-4.32.9c1.44-.3 2.9-.47 4.32-.9zm-.19-1.78a6.58 6.58 0 0 1-4.16.84c1.4-.2 2.8-.48 4.16-.84zm-4.23-2.21c1.34.58 2.79.83 4.22 1.14a6.29 6.29 0 0 1-4.22-1.14zm.12-1.8c1.3.51 2.65.75 4 1.07-1.4.07-2.87-.2-4-1.06z"/>
      <path d="M102.14 92.4a7.14 7.14 0 0 1-4.12.8c1.37-.3 2.77-.41 4.12-.8zm-.1-1.85a7.44 7.44 0 0 1-4.16.79c1.39-.3 2.79-.44 4.17-.8zm-4-2.14c1.28.49 2.63.72 3.95 1.03a6.07 6.07 0 0 1-3.94-1.02zm.1-1.82c1.2.43 2.5.67 3.75.98-1.3.07-2.69-.2-3.76-.98z"/>
      <path d="M101.9 88.74a7.1 7.1 0 0 1-3.93.75c1.3-.3 2.63-.45 3.94-.75zm.03-1.86a6.35 6.35 0 0 1-3.86.75c1.3-.23 2.58-.47 3.86-.75zm-3.8-2.14c1.23.42 2.5.65 3.76.97-1.3.1-2.7-.19-3.76-.98zm.02-1.86c.93.36 2.8.67 3.22.93a5.34 5.34 0 0 1-3.22-.93z"/>
      <path d="M101.85 85.09c-.91.65-3 .85-3.53.63 1.18-.2 2.36-.38 3.53-.63zm-.37-1.78c-.83.56-2.76.8-3.21.57 1.07-.2 2.14-.4 3.22-.57zm1.4 40.28-.29.12-.7.29c-.3.12-.63.26-.98.44l-.5.31a2.53 2.53 0 0 0-.77.9l-.3.54-.27.5a2.94 2.94 0 0 1-.66.71 1.53 1.53 0 0 1-.59.24l.07-.02a1.5 1.5 0 0 0 .45-.3 2.3 2.3 0 0 0 .54-.73l.25-.5c.09-.2.16-.38.27-.57a4.45 4.45 0 0 1 .37-.54 2.79 2.79 0 0 1 1.03-.76 5.14 5.14 0 0 1 1.04-.37c.3-.1.56-.15.75-.19l.27-.07zm-.89 2.1a42.47 42.47 0 0 0 .15.04l.15.07c.05.05.12.1.16.16.06.07.12.14.16.22a2.32 2.32 0 0 1 .23.56l.09.29.21.57.19.5a15.88 15.88 0 0 1 .18.5l-.1-.12a3.62 3.62 0 0 1-.5-.78 4.6 4.6 0 0 1-.33-.88l-.08-.28c-.04-.19-.1-.36-.18-.49a.87.87 0 0 0-.22-.28l-.04-.03-.04-.02-.03-.03zm-1.89 1.68a9.62 9.62 0 0 0 .1.1c.06.08.13.2.18.36a1.26 1.26 0 0 1-.05.9l-.12.3a7.14 7.14 0 0 1-.83 1.32l-.1.11.05-.14.15-.36.21-.5.26-.55c.1-.19.19-.37.24-.55a1.39 1.39 0 0 0 .03-.5c0-.15-.04-.27-.07-.36l-.04-.1v-.03zm-2.32-2.42.04-.02.14-.02a.99.99 0 0 1 .41.1l.1.04a.84.84 0 0 1 .23.21.65.65 0 0 1 .1.19l-.06-.02a2.05 2.05 0 0 1-.49-.19 2.98 2.98 0 0 1-.44-.26l-.04-.03z"/>
    </g>
    <g class="tertiary" stroke-width=".23">
      <g>
        <path d="M102.95 88.14c.1-.1 1.15-.7 2.24.35 1.14 1.12-.1 3.04-.1 3.04s-.99.7-2.23-.5 0-2.8.09-2.9z"/>
        <g stroke="none" fill="#000">
          <path d="M104.66 91.42c.03.12-.11.23-.22.17-.19-.1.07-.3.2-.19l.02.02zm-.32-.04c-.02.14-.22.19-.28.05-.04-.16.23-.19.28-.05z"/>
          <path d="M104.05 91.26c.02.19-.27.17-.23 0 .1-.12.16-.1.23 0zm-.24-.15c.02.15-.22.19-.24.03-.02-.12.19-.18.21-.04l.03.01zm-.24-2.95a.56.56 0 0 0-.35.43c-.05.14-.22.19-.3.3-.1.08-.19.28-.25.33a.69.69 0 0 1 .32-.68c.04-.11.09-.23.19-.3a.42.42 0 0 1 .4-.08z"/>
        </g>
      </g>
      <g>
        <path d="M104.77 85.45c.1-.1 1.21-.6 2.2.54 1.05 1.2-.34 3.02-.34 3.02s-1.07.62-2.2-.69c-1.13-1.3.24-2.79.34-2.88z"/>
        <g stroke="none" fill="#000">
          <path d="M106.2 88.86c.01.12-.14.23-.24.15-.18-.1.08-.29.19-.17l.02.01zm-.32-.06c-.02.11-.19.17-.25.06-.1-.09.08-.21.16-.16l.1.09zm-.28-.14c0 .18-.28.14-.23-.04.1-.11.16-.07.24.04zm-.22-.18c.01.13-.2.18-.24.04-.06-.13.19-.2.2-.06l.03.02zm0-2.97a.56.56 0 0 0-.39.4c-.05.14-.22.18-.31.28-.11.08-.22.26-.28.3-.04-.27.14-.52.37-.65.06-.1.12-.23.24-.29a.4.4 0 0 1 .37-.03z"/>
        </g>
      </g>
      <g>
        <path d="M101.78 85.06c.12-.06 1.32-.25 1.98 1.1.7 1.44-1.12 2.82-1.12 2.82s-1.19.33-1.94-1.22c-.75-1.56.96-2.64 1.08-2.7z"/>
        <g stroke="none" fill="#000">
          <path d="M102.26 88.73c-.02.13-.2.19-.28.07-.11-.12.14-.23.21-.12l.07.05zm-.28-.15c-.06.12-.24.12-.28-.01-.06-.15.23-.2.25-.03 0 0 0 .03.02.04zm-.23-.2c-.04.11-.22.12-.23 0-.04-.14.22-.19.22-.02-.01 0 .02.03 0 .03zm-.19-.22c-.02.12-.24.1-.23-.03-.01-.14.23-.15.22 0l.01.02zm.8-2.87c-.2.02-.38.1-.47.27-.1.14-.28.12-.4.2-.12.04-.28.2-.35.22.05-.28.28-.47.54-.53.1-.12.23-.23.38-.23.1-.02.22.02.28.07z"/>
        </g>
      </g>
      <g>
        <path d="M102.88 85.63c.1-.1 1.16-.7 2.24.35 1.15 1.12-.08 3.04-.08 3.04s-1 .7-2.24-.5 0-2.8.08-2.9z"/>
        <g stroke="none" fill="#000">
          <path d="M104.6 88.9c.02.13-.12.24-.23.18-.19-.1.08-.3.2-.19l.02.02zm-.32-.03c-.02.14-.23.19-.28.05-.05-.16.22-.19.28-.05z"/>
          <path d="M103.99 88.76c.02.17-.27.16-.23-.02.09-.11.16-.1.23.02zm-.24-.16c.02.15-.23.19-.23.03-.03-.11.18-.18.2-.05zm-.24-2.95a.56.56 0 0 0-.36.43c-.04.14-.21.19-.3.3-.1.08-.18.28-.25.33a.69.69 0 0 1 .32-.68c.05-.12.1-.24.2-.31a.42.42 0 0 1 .39-.07z"/>
        </g>
      </g>
      <g>
        <path d="M100.9 83.15c.06-.1.92-.97 2.25-.25 1.4.76.73 2.95.73 2.95s-.78.95-2.3.12c-1.5-.83-.74-2.7-.69-2.82z"/>
        <g stroke="none" fill="#000">
          <path d="M103.42 85.86c.08.11-.05.27-.18.22-.19-.05.02-.3.15-.22h.03zm-.31.05c.01.1-.1.2-.2.15-.2-.09.08-.32.2-.15z"/>
          <path d="M102.8 85.88c.05.18-.27.2-.23.03.05-.14.13-.1.23-.03zm-.28-.1c.08.16-.19.25-.22.08-.01-.1.14-.19.2-.08h.02zM101.5 83a.59.59 0 0 0-.24.53c0 .14-.14.23-.2.36-.07.1-.1.31-.15.37-.12-.24-.05-.54.13-.74-.02-.25.16-.5.42-.52h.04z"/>
        </g>
      </g>
      <g>
        <path d="M103.5 82.54c.12-.06 1.3-.33 2.05 1 .76 1.39-.97 2.88-.97 2.88s-1.16.38-2-1.12.8-2.7.93-2.75z"/>
        <g stroke="none" fill="#000">
          <path d="M104.2 86.18c-.02.13-.18.2-.28.1-.13-.1.1-.23.19-.16l.08.06zm-.3-.13c-.05.1-.22.13-.26.01-.1-.14.18-.21.22-.08l.04.07zm-.24-.18c-.02.12-.23.12-.24-.02-.03-.1.12-.15.19-.1l.05.1zm-.2-.22c-.01.13-.23.13-.23-.01-.01-.14.23-.16.22 0l.02.01zm.63-2.9a.56.56 0 0 0-.46.31c-.1.12-.25.12-.38.2-.12.05-.26.2-.33.24a.7.7 0 0 1 .5-.56c.09-.1.17-.2.3-.24.12-.04.27-.04.37.04z"/>
        </g>
      </g>
      <g>
        <path d="M98.2 88.74c-.1-.08-1.25-.53-2.18.65-.98 1.26.5 3 .5 3s1.09.56 2.15-.8-.37-2.76-.47-2.85z"/>
        <g stroke="none" fill="#000">
          <path d="M96.94 92.22c.1-.14.4 0 .25.13-.1.1-.27 0-.25-.13zm.3-.07c.04-.15.26-.16.3-.02-.01.13-.2.17-.27.06 0 0 0-.04-.02-.04z"/>
          <path d="M97.52 91.99c.02-.13.2-.14.23-.02.02.19-.24.17-.23.02zm.22-.19c.05-.08.12-.15.21-.06.06.06 0 .2-.1.18a.11.11 0 0 1-.11-.1zm-.16-2.96c.23-.12.52.03.6.26.08.09.21.13.28.23a.65.65 0 0 1 .15.45 1.48 1.48 0 0 0-.53-.45c-.13-.1-.13-.3-.27-.37a.46.46 0 0 0-.23-.12z"/>
        </g>
      </g>
      <g>
        <path d="M96.12 85.95c-.11-.07-1.28-.43-2.1.84-.88 1.33.73 2.94.73 2.94s1.15.46 2.09-.97c.95-1.45-.6-2.74-.72-2.8z"/>
        <g stroke="none" fill="#000">
          <path d="M95.17 89.52c.07-.14.38-.05.27.1a.15.15 0 0 1-.28-.1zm.3-.1c.03-.15.24-.18.28-.05 0 .13-.18.2-.25.1-.02 0-.01-.06-.03-.05zm.25-.18c.03-.14.19-.15.24-.04.02.1-.08.18-.16.13-.04-.01-.06-.06-.08-.1zm.22-.2c.03-.08.09-.17.2-.08.07.05 0 .22-.11.18-.06 0-.1-.06-.1-.1zm-.42-2.94c.21-.13.52 0 .63.21.1.08.21.12.29.2.12.13.18.29.2.45a1.37 1.37 0 0 0-.57-.41c-.14-.1-.16-.28-.32-.36a.64.64 0 0 0-.23-.09z"/>
        </g>
      </g>
      <g>
        <path d="M98.94 85.53c-.12-.03-1.35-.07-1.81 1.36-.5 1.52 1.48 2.65 1.48 2.65s1.22.16 1.76-1.49c.53-1.63-1.3-2.47-1.43-2.5z"/>
        <g stroke="none" fill="#000">
          <path d="M98.96 89.23c.04-.13.3-.16.3 0-.02.12-.2.16-.28.05l-.02-.04zm.26-.18c-.01-.14.2-.23.27-.1.02.09-.09.2-.19.15-.03 0-.05-.05-.08-.05zm.2-.23c0-.1.08-.19.19-.13.1.05 0 .25-.1.2-.04 0-.07-.05-.1-.07zm.15-.25c0-.12.1-.2.2-.13.1.14-.13.3-.2.13zm-1.17-2.73c.18-.19.5-.15.65.03.1.07.22.04.33.12.15.08.28.21.31.38a1.47 1.47 0 0 0-.65-.24c-.16-.05-.22-.23-.4-.26-.07-.03-.17-.03-.24-.03z"/>
        </g>
      </g>
      <g>
        <path d="M97.92 86.25c-.1-.1-1.24-.54-2.17.65-.99 1.25.5 3 .5 3s1.08.55 2.15-.8-.37-2.77-.48-2.85z"/>
        <g stroke="none" fill="#000">
          <path d="M96.67 89.73c.08-.13.37-.03.26.11-.1.11-.28.03-.26-.11zm.3-.09c.04-.14.26-.14.29 0 0 .12-.19.16-.25.05-.02 0-.02-.04-.03-.05z"/>
          <path d="M97.25 89.5c.02-.13.18-.14.23-.03.02.18-.25.17-.23.03zm.22-.2c.05-.07.11-.15.2-.06.07.06 0 .2-.09.19-.06 0-.12-.06-.11-.12zm-.17-2.95c.24-.12.52.03.62.26.08.08.2.13.28.23a.65.65 0 0 1 .14.45 1.49 1.49 0 0 0-.53-.46c-.14-.1-.13-.3-.27-.38a.64.64 0 0 0-.24-.1z"/>
        </g>
      </g>
      <g>
        <path d="M99.46 83.34c-.07-.1-1.05-.84-2.27.05-1.27.94-.32 3.02-.32 3.02s.9.83 2.3-.19c1.38-1.02.36-2.77.29-2.88z"/>
        <g stroke="none" fill="#000">
          <path d="M97.32 86.36c.12-.11.38.08.23.19-.1.07-.28-.06-.22-.19zm.33 0c.08-.18.4 0 .21.13-.1.08-.21-.03-.21-.12z"/>
          <path d="M97.94 86.29c.07-.1.18-.1.24 0 .04.16-.25.2-.24.02v-.01zm.26-.11c.08-.1.21-.1.25.02 0 .16-.25.15-.25 0-.01 0 .03-.03 0-.02zm.65-2.9c.24-.05.47.16.5.4.04.1.17.17.2.27.08.16.1.35.04.5a1.49 1.49 0 0 0-.39-.57c-.1-.13-.05-.32-.17-.44a.6.6 0 0 0-.18-.17z"/>
        </g>
      </g>
      <g>
        <path d="M96.99 83.1c-.13-.06-1.35-.16-1.9 1.24-.58 1.5 1.34 2.73 1.34 2.73s1.2.22 1.84-1.38c.62-1.6-1.16-2.55-1.28-2.6z"/>
        <g stroke="none" fill="#000">
          <path d="M96.8 86.79c.03-.14.3-.15.29 0-.02.12-.21.16-.28.05l-.02-.06zm.27-.17c-.02-.15.2-.22.26-.1.02.1-.07.2-.18.16-.03 0-.07-.04-.09-.06zm.2-.22c0-.13.15-.2.23-.1.06.12-.11.24-.19.13-.02.01-.04-.06-.04-.03zm.16-.24c.01-.12.11-.19.22-.11.09.13-.12.27-.2.13v-.02zm-1-2.8c.18-.17.5-.11.65.07.08.08.21.07.3.14.16.1.28.23.31.4-.18-.14-.4-.24-.62-.28-.16-.03-.2-.22-.35-.27a.62.62 0 0 0-.3-.05z"/>
        </g>
      </g>
    </g>
  </g>
</svg>
