<svg xmlns="http://www.w3.org/2000/svg" fill="#d7374a" stroke="#000" viewBox="50 50 200 200">
<metadata source="https://commons.wikimedia.org/wiki/File:Coa_Hungary_Town_Bakonyoszlop.svg" author="Madboy74" license="https://creativecommons.org/publicdomain/zero/1.0"/>
  <g id="pillar" stroke-width=".8" transform="translate(43.8 45) scale(0.54)">
    <path d="M81.85 34.07c.35 1.43 1.05 2.52 2.7 2.75-.41.63-.1 1.88.52 2.75 2.32 1.12 3.73 4.25 4.98 7.73 1.93 5.4.21 11.05 2.62 15.43l3.13 2.65-1.23 4.14-2.92 82c-1.3.84-2 2.1-1.98 3.83-1.32 1.42-.04 1.88.78 2.35.82.47.23 1.92-.35 2.3-1.04.67-1.95.86-1.6 2.52-2.32 1.92-3.09 4.05-2.98 6.86h36.95c.12-2.81-.65-4.94-2.97-6.86.35-1.66-.54-1.85-1.58-2.52-.58-.38-1.17-1.83-.35-2.3s2.07-.93.75-2.35a4.2 4.2 0 00-1.97-3.83l-2.93-82-1.2-4.15 3.13-2.64c2.41-4.38.66-10.03 2.6-15.43 1.25-3.48 2.66-6.6 4.97-7.73.63-.87.94-2.12.53-2.75 1.65-.23 2.35-1.32 2.7-2.75zm0 0"/>
    <path d="M94.82 66.6c-1.03 0-1.87.67-1.87 1.5s.84 1.5 1.87 1.5h18.36c1.03 0 1.87-.66 1.87-1.5s-.84-1.5-1.87-1.5zm0 0"/>
    <path d="M85.08 39.57h37.84"/>
    <path fill="#000" fill-opacity=".3" stroke="none" d="M88.77 39.62h30.45v2.63H88.77z"/>

    <path stroke="none" d="M88.05 42.68c.78 1.46-.89 2.14-1.82 1.98-.82-.14-1.8-.38-1.7-1.71.1-1.33 1.35-2.02 2.5-1.93 1.14.07 3.33 1.23 2.8 3.36-.54 2.14-2.07 2.57-3.8 2.5-1.72-.1-3.68-1.38-3.73-3.44-.05-2.06.9-3.45 2.77-4.07 1.86-.61 5.72.23 6.65 3.06a53.43 53.43 0 011.55 7.62"/>
    <path stroke="none" d="M119.95 42.68c-.79 1.46.88 2.14 1.82 1.98.81-.14 1.8-.38 1.69-1.71-.1-1.33-1.35-2.02-2.49-1.93-1.14.07-3.33 1.23-2.8 3.36.54 2.14 2.07 2.57 3.79 2.5 1.73-.1 3.69-1.38 3.74-3.44.05-2.06-.91-3.45-2.77-4.07-1.87-.61-5.72.23-6.65 3.06-.93 2.82-1.55 7.62-1.55 7.62"/>

    <g fill="#000" stroke="none" >
      <path d="M97.33 64.86a13.31 13.31 0 001.39-9.73c.27-1.02.51-2.18.46-2.9a2.08 2.08 0 00-1.93.57A6.25 6.25 0 0096 49.91c-1.02.56-1.09 1.38-1.14 1.71-.59-.4-1.39-.76-2.09-.43-.39.91-.29 1.8.3 2.53-.87.14-1.1.58-1.48 1.42.33.71.35 1.03 1.05 1.3-.43.58-.7 1.35-.44 2.05 1.3.2 2.32.17 2.94 1.37.77 1.48.28 3.14-.34 4.62-.16.17-.06.14.17.04.94-1.73 1.23-4.14.37-5.46-.73-1.11-1.79-.89-2.75-1.08-.1-.83.42-1.21.73-1.8-.89-.07-1.14-.53-1.33-1.07.82-1.07 1.27-.96 2.04-1.1-1-.65-1.18-1.8-.97-2.45.84-.25 1.68.38 2.25.93-.07-1 .26-1.97.64-2 .7.65 1.04 2.18 1.07 3.23.28-.5.96-1.4 1.88-1.12.02.77-.22 1.76-.58 2.62a15.36 15.36 0 01-1.2 9.64c-.04.27.08.39.19.15z"/>
      <path d="M96.22 64.8c-.04.29.14.28.23 0 2.05-4.85 1.33-9.26-1.95-11.85 2.48 2.6 3.8 7.18 1.71 11.86z"/>
      <path d="M87.48 43.1c.54.33.2 1.17-.39 1.27-.71.13-1.59.1-2.07-.47-.63-.72-.12-1.87.66-2.32 1.61-.95 4 .35 4 2.22a2.88 2.88 0 01-2.4 2.79c-1.55.22-3.37-.15-4.25-1.53-.86-1.35-.44-3.19.6-4.33a3.69 3.69 0 013.12-1.16c1.63.11 3.36.82 4.2 2.27.64 1.1.78 2.4.8 3.66l.86.03a11.42 11.42 0 00-.56-3.02 5.18 5.18 0 00-2.73-3.04c-1.34-.55-3.27-1-4.63-.38-1.66.76-2.98 2.35-2.7 4.97.18 1.6 1.48 2.74 3 3.09 1.1.24 2.19.26 3.22-.2a3.2 3.2 0 001.81-3.52c-.41-2-2.93-3.08-4.5-2.14-.88.52-1.46 2.03-.85 2.9a2.3 2.3 0 001.73.9c.66.03 1.54-.25 1.74-1.07.18-.74-.61-.9-.66-.92z"/>
      <path d="M96.47 41.84c-.6.2-.76 1.06-.85 1.61-.58-.44-1.22-1.11-2.11-.97-.65.86-.31 1.93-.08 2.84-.8-.2-1.92-.21-2.54.12-.28 1.04.59 1.96 1.07 2.65-.84.1-.78.97-.84 1.57.3 1.02.8 1.61 1.72 1.95l.1.1c0-.1 0-.17.03-.28.12-.04.25-.06.39-.06l-.2-.22c-.93-.37-1.17-.53-1.55-1.62.23-.51.05-.86.54-.85 1.14.05 2.47.9 3.49 1.82l.18-.25c-.91-1.1-2.13-2.03-3.24-2.24-.77-.79-1.43-1.75-1.1-2.2 2.24-.37 3.8 1.1 4.9 3.31-.05-1.26-1.37-3.1-2.28-3.61-.47-.94-.42-2.12-.2-2.5 2.16.65 3.43 3.34 4.01 5.33.27-.77-.94-3.5-1.6-4.24-.03-.64.08-1.4.27-1.52 1.97 1.63 2.78 4.31 2.64 7.3.48-1.7.15-4.04-.55-5.4 0-.45.31-.84.51-.93 2.62 5 2.34 12 1.15 16.56-.32 1.2-.76 2.39-1.26 3.53l.35.02a27.82 27.82 0 002.35-13.08 17.82 17.82 0 00-2.43-7.54c-.45-.17-.86.4-.96.78-.46-.79-1.04-1.64-1.91-1.98zm-.03 9.25l.2.46.22.29c-.12-.25-.26-.5-.42-.75z"/>
      <path d="M110.67 64.86a13.28 13.28 0 01-1.38-9.73 10.37 10.37 0 01-.47-2.9c.67-.17 1.46.08 1.93.57a6.28 6.28 0 011.25-2.89c1.02.56 1.09 1.38 1.14 1.71.59-.4 1.39-.76 2.09-.43.39.91.29 1.8-.29 2.53.86.14 1.1.58 1.47 1.42-.33.71-.36 1.03-1.05 1.3.43.58.71 1.35.44 2.05-1.31.2-2.32.17-2.94 1.37-.77 1.48-.28 3.14.34 4.62.16.17.06.14-.17.04-.94-1.73-1.23-4.14-.37-5.46.73-1.11 1.79-.89 2.75-1.08.09-.83-.42-1.21-.73-1.8.89-.07 1.14-.53 1.33-1.07-.82-1.07-1.27-.96-2.04-1.1a2.24 2.24 0 00.97-2.45c-.83-.25-1.68.38-2.25.93.07-1-.26-1.97-.64-2-.69.65-1.04 2.18-1.07 3.23-.28-.5-.96-1.4-1.88-1.12-.02.77.22 1.76.58 2.62a15.32 15.32 0 001.2 9.64c.04.27-.08.39-.19.15z"/>
      <path d="M111.79 64.8c.03.29-.15.28-.24 0-2.05-4.85-1.33-9.26 1.95-11.85-2.48 2.6-3.8 7.18-1.71 11.86z"/>
        <path d="M120.52 43.1c-.54.33-.21 1.17.38 1.27.72.13 1.6.1 2.08-.47.63-.72.11-1.87-.66-2.32-1.61-.95-4 .35-3.99 2.22a2.87 2.87 0 002.39 2.79c1.55.22 3.37-.15 4.24-1.53.87-1.35.45-3.19-.58-4.33a3.69 3.69 0 00-3.13-1.16c-1.63.11-3.36.82-4.2 2.27a7.53 7.53 0 00-.81 3.66l-.85.03c.07-1.03.22-2.03.56-3.02a5.16 5.16 0 012.73-3.04c1.34-.55 3.27-1 4.63-.38 1.66.76 2.98 2.35 2.69 4.97-.17 1.6-1.47 2.74-3 3.09a5.01 5.01 0 01-3.21-.2 3.18 3.18 0 01-1.81-3.52c.41-2 2.93-3.08 4.51-2.14.87.52 1.45 2.03.84 2.9-.36.53-1.07.88-1.74.9-.65.03-1.54-.25-1.73-1.07-.18-.74.61-.9.66-.92z"/>
      <path d="M111.53 41.84c.6.2.75 1.06.85 1.61.57-.44 1.21-1.11 2.1-.97.65.86.31 1.93.08 2.84.81-.2 1.92-.21 2.55.12.27 1.04-.59 1.96-1.08 2.65.85.1.79.97.84 1.57-.3 1.02-.8 1.61-1.71 1.95l-.1.1-.04-.28a1.23 1.23 0 00-.38-.06l.2-.22c.93-.37 1.16-.53 1.55-1.62-.24-.51-.06-.86-.55-.85-1.14.05-2.47.9-3.48 1.82l-.19-.25c.91-1.1 2.13-2.03 3.24-2.24.78-.79 1.43-1.75 1.1-2.2-2.24-.37-3.79 1.1-4.9 3.31.05-1.26 1.37-3.1 2.28-3.61.47-.94.42-2.12.21-2.5-2.17.65-3.44 3.34-4.02 5.33-.27-.77.94-3.5 1.6-4.24.03-.64-.07-1.4-.27-1.52-1.96 1.63-2.78 4.31-2.64 7.3a8.35 8.35 0 01.55-5.4c0-.45-.31-.84-.51-.93-2.62 5-2.34 12-1.15 16.56.32 1.2.76 2.39 1.26 3.53l-.35.02a27.8 27.8 0 01-2.35-13.08 17.89 17.89 0 012.44-7.54c.44-.17.85.4.95.78.46-.79 1.04-1.64 1.92-1.98zm.02 9.25l-.2.46-.21.29c.11-.25.25-.5.41-.75z"/>
    </g>

    <path d="M93.53 63.57c-1.04 0-1.85.67-1.85 1.5s.81 1.53 1.85 1.53h20.95c1.04 0 1.85-.69 1.85-1.53s-.81-1.5-1.85-1.5zm0 0"/>
    <g fill="none">
      <path d="M91.65 151.53h24.71"/>
      <path d="M88.5 162.52h31"/>
      <path d="M123.45 36.83h-38.9"/>
      <path d="M118.33 155.34H89.68"/>
    </g>
    <g fill="#000" fill-opacity=".3" stroke-width=".5">
      <path d="M96.8 74.47c.6 0 1.13 1.88 1.08 4.21l-1.4 65.85c-.06 2.34-.6 4.22-1.34 4.22-.74 0-1.4-1.88-1.33-4.22l1.9-65.85c.08-2.33.49-4.21 1.1-4.21z"/>
      <path d="M101.6 74.47c.6 0 1.09 1.88 1.08 4.21l-.3 65.85c-.01 2.34-.59 4.22-1.33 4.22s-1.36-1.88-1.33-4.22l.8-65.85c.03-2.33.48-4.21 1.08-4.21z"/>
      <path d="M106.4 74.47c.6 0 1.05 1.88 1.08 4.21l.81 65.85c.02 2.34-.6 4.22-1.34 4.22s-1.32-1.88-1.33-4.22l-.3-65.85c-.02-2.33.48-4.21 1.08-4.21z"/>
      <path d="M111.2 74.47c.6 0 1.01 1.88 1.08 4.21l1.91 65.85c.07 2.34-.59 4.22-1.33 4.22s-1.28-1.88-1.33-4.22l-1.41-65.85c-.05-2.33.48-4.21 1.08-4.21z"/>
    </g>
    <g fill="#000"  fill-opacity=".3" stroke="none">
      <path d="M91.67 65.07c0 .84.82 1.53 1.85 1.53h20.95c1.04 0 1.85-.69 1.85-1.53z"/>
      <path d="M92.95 68.1c0 .84.84 1.5 1.88 1.5h18.35c1.03 0 1.87-.66 1.87-1.5z"/>
      <path d="M94.57 69.6l-.1 2.63h19.05l-.09-2.63z"/>
      <path d="M82.4 35.48c.44.7 1.1 1.2 2.15 1.34v.01h38.9a2.85 2.85 0 002.15-1.35zm2.07 2.79a4 4 0 00.6 1.3l.09.05h37.68l.09-.05c.28-.39.49-.85.61-1.3z"/>
      <path d="M89.86 157.37l.59.33c.82.47.23 1.92-.35 2.3h27.82c-.58-.38-1.17-1.83-.35-2.3l.59-.33z"/>
      <path d="M88.5 162.52c-.32.27-.6.53-.86.8h32.72c-.27-.27-.55-.53-.86-.8z"/>
      <path d="M82.66 42l-.4 1.2c-.14.71.01 1.38.46 2l.9 1.1 1.43.46 1.61.17 1.75-.46 1.14-1.2c-2.22 2.2-7.29.68-6.79-3.23zm2.13.43l-.06.18-.2.98.7.78 1.25.31 1.03-.24.54-.44c-.21-.3-.08-.7-.56-.9-.74 1.34-2.86.62-2.7-.67zm6.49 7.15A2.16 2.16 0 0092.7 52l.09.58.02-.92.03-.32-.9-.73zm1.52 3v.07zm0 .07l.07.46.58.74-.24.1.44-.05zm.41 1.3l-.34.04-.85.56-.19.6.04.06.17-.48.63-.55zm-1.34 1.26l-.05.16-.24.44c.19.5.53.81 1.06.9l-.1.45.51-.85-.8-.45zm.68 1.95l-.14.24.03.3zm-.11.55l-.07.34.23.4c2.8 1.19 2.63 2.62 2.47 5.04l.32-.06.27-1.55.02-1.63-1.26-1.66-1.94-.48zm2.07-4.73c3.49 5.2 2.58 8.16 2.1 10.54l.26-.08.5-2.2-.03-3.12-.37-1.55-1.24-2.3c-.4-.42-.8-.98-1.22-1.3z"/>
      <path d="M125.34 42l.4 1.2c.14.71-.01 1.38-.47 2l-.9 1.1-1.42.46-1.62.17-1.75-.46-1.13-1.2c2.22 2.2 7.28.68 6.78-3.23zm-2.14.43l.07.18.2.98-.7.78-1.25.31-1.04-.24-.54-.44c.22-.3.08-.7.57-.9.73 1.34 2.86.62 2.69-.67zm-6.48 7.15a2.17 2.17 0 01-1.43 2.41l-.09.58-.02-.92-.04-.32.91-.73zm-1.52 3v.05l-.01.02zm-.01.07l-.07.46-.57.74.24.1-.44-.05zm-.4 1.3l.34.04.84.56.19.6-.04.06-.16-.48-.64-.55zm1.33 1.26l.06.16.24.44c-.19.5-.54.81-1.06.9l.09.45-.5-.85.79-.45zm-.67 1.95l.14.24-.04.3zm.1.55l.07.34-.23.4c-2.8 1.19-2.63 2.62-2.46 5.04l-.32-.06-.27-1.55-.02-1.63 1.26-1.66 1.94-.48zm-2.07-4.73c-3.48 5.2-2.57 8.16-2.1 10.54l-.26-.08-.49-2.2.03-3.12.37-1.55 1.23-2.3c.4-.42.8-.98 1.22-1.3z"/>
    </g>
  </g>
</svg>
