<svg xmlns="http://www.w3.org/2000/svg" fill="#d7374a" stroke="#000" viewBox="50 50 200 200">
  <metadata source="http://wappenwiki.org/images/7/71/MacGregor_Glengyle.svg" license="https://creativecommons.org/licenses/by-nc-sa/3.0"/>
  <g id="pineTree" stroke-width=".34">
    <path class="secondary" d="M97.41 110.21a58.6 58.6 0 0 1 .14 10.3l.04 4.49s-.13 3.46-.2 4.41c-.07.95 0 5.36-.05 6-.04.66.16.8.1 1.49-.04.7.1 1.79.02 2.07l5.47 1.08c-.1-.48-.34-1.78-.25-2.96 0-.45.09-2.55.05-3-.03-.44-.32-2.83-.36-3.4-.05-.55.06-2.77.02-3.17l-.25-2.9c-.03-.4.13-1.65.08-2.27-.04-.62-.08-3.43-.08-3.43s-.15-2.53-.15-3.08c-.1-1.57.1-4.65.28-5.6l-4.86-.03z"/>
    <path stroke-linejoin="round" d="M121.02 104.38c-.32-.08-.86.34-1.15.46-1.07.56-3.8.63-5.53.63-1.64 0-5.3-.52-6.7-1.4-.43-.25-2.67-2.38-3.7-4.01.12-.26.46-.65.64-.56.24.11.01.8.38.7.26-.05.38-1.11.48-1.41.22-.82.43-1.78.52-2.68.28.5.35 1.15.56 1.73.08.24.17.31.25.57.1.35.07.73.14 1.1.03.21.13 1 .28.99.18-.01.15-.6.43-.43.18.1.29 1.15.4 1.41.27-.08.4-.92.46-1.27.12-.77.35-1.37.43-2.2.15.5.34 1 .41 1.54.08.64.04 1.34.41 1.83.19-.62.6 1.11.69 1.27.36.1.48-.12.65-.55.3-.78.21-.63.59-.24.05-.77.28-1.46.3-2.27.2.7.26 1.54.55 2.23.1.25.24.44.31.7.03.11.01.4.06.48.18.21.2-.38.26-.54.25.2.2.97.47.95.12-.68.48-1.18.6-1.84.07-.32.03-.61.06-.95a9.35 9.35 0 0 1 .34-1.8c.33.62.17 0 .5-.08.1.73.29 1.46.41 2.22h.15s.13-.86.13-1.22c0-.41-.2-1.05.07-1.38.56.8.36-1.5.43-1.75.08-.3.34-.34.44-.62.15-.38.15-.87.47-.36.2.33.2.9.4 1.22.1-.26.08-.63.11-.94.05-.45.18-.88.2-1.33.03-.48.06-.72.18-1.14.1-.3.06-.74.13-.8a.7.7 0 0 0 .14-.36c-1.4 1.04-1.98 1.38-2.98 1.95s-2.66.67-3.42.6c-3.01-.34-5.19-1.33-4.7-1.15-.5-.18-1.94-1.1-2.69-1.73-.79-.66-.87-.87-1.47-1.88a2.5 2.5 0 0 1 .39-.54c.11-.04.2.12.3.1.22-.06.29-.37.38-.67.23.05.24.45.3.72.07.2.26 1.14.39 1.18.25.06.31-2.17.46-2.17.16 0 .07.36.15.6.08.23.15.56.3.74.02.04.2.14.21.15.16.28.24.81.44 1.1.18-.3.36-1.58.67-1.52.1.3.16.67.27.98.27-.2.35-2.26.62-1.94.12.15.24 1.21.33 1.47.2.6.36 1.23.54 1.86l.21-.25c.05-.8.17-1.64.36-2.4.16.19.13 1.1.21 1.47.12.57.17 1.2.34 1.74.2-.68.23-1.6.4-2.4.08-.42.04-.88.14-1.3.06-.22.16-.36.18-.59.52-.06.58 2.47.87 2.26.07-.06.1-.49.12-.6.1-.41.23-.86.3-1.28.07-.5.02-1.07.1-1.58.24-.13.2.37.33.59.05.08.17.04.24.16.2.33.27.66.47 1.05.03-.81.13-1.21.26-2 .08-.48.12-.92.23-1.38.15-.59.57-1.14.54-1.8 0 0 .1-.15.09-.37-.3.26-.75.49-1.09.7a9.5 9.5 0 0 1-4.11 1.23 10.25 10.25 0 0 1-5.55-1.8 3.2 3.2 0 0 1-1.4-1.65c0-.34-.08-.45.1-.47.08-.01.23-.57.3-.67.2.15.25.3.35.56.05.13.11.48.25.48.18 0 .12-.38.22-.4.22-.03.23.74.45.02.15-.48.02-1.22.29-1.6-.02.54.26 1.99.53 2.26.23.23.29-.1.47 0 .15.08.2.6.23.83.15-.44.21-.85.27-1.33.07-.57.01-1.33.22-1.82.08.14.11.35.25.38.01.22.02.64.14.8.1.15.23.04.36.15.41.34.32 1.27.52 1.76.33-.23.36-.94.5-1.4.14-.53.12-1.11.31-1.6.23.16.36.61.47.94.16-.24.14-.57.16-.89.03-.47.22-.95.23-1.41.12.16.25.45.36.55.04-.5.15-1.14.3-1.6l.36-1.66c.12-.1.22-.56.22-.8-.42.07-.76.52-1.18.7-.54.21-1.03.8-1.55.94-1.11.3-2.67.72-3.78.02-.3-.18-.7-.36-.94-.66-.33-.4-.62-.97-.81-1.34-.19-.38-.16-.91-.32-1.33.08-.1.3.1.3.1.2.06.15-.27.31.12.1.25.22.63.28.9.22-.12.25-.76.54-.45.15.14.12.77.38.55.3-.26-.05-2.1.54-1.93.05.22.05.46.1.7.07.38.23.53.33.86.12-.15.15-.75.3-.5.05-.08.15-.17.19-.28.14.17.3 1.26.53.72.08-.18.12-2.5.5-1.66.03-.15.07-.31.13-.44.1.19.16.5.22.78.02-.35.12-1.04.2-1.47.12-.77.44-1.35.62-2.06-.23.1-.26.09-.72.42a3.99 3.99 0 0 1-1.7.7c-.52 0-.9.07-1.43 0a2.06 2.06 0 0 1-1.4-.85 2.5 2.5 0 0 1-.46-1.67c.04.07.15.26.23.27.08 0 .11-.45.19-.4.16.1.24.73.39.7.05-.05.2-1.01.2-1.11.15-.01.2-.25.28-.47.09.08.14.2.18.41.28.03.22-1.16.33-1.46.34.2.4-1.06.45-1.34-.5-.05-.54.3-1.39.83-.36.2-.77-.02-.96-.31-.19-.28-.26-1.04-.26-1.04s.43.15.6.08c.18-.07.28-.12.46-.46.07-.13.12-.42.16-.55.06-.2.18-.25.13-.52-.3.14-.52.56-.87.52-.26-.02-.6-.42-.56-.9 0 0 .63-.9.48-1.13-.05-.1-.2.09-.33.11-.2.04-.48.23-.48.23s.05-.47-.06-.79c-.1-.27-.16-.52-.27-.52-.1 0-.17.25-.27.52-.11.32-.08.8-.08.8s-.26-.2-.46-.24c-.12-.02-.27-.2-.33-.11-.14.22.48 1.13.48 1.13.04.48-.3.88-.56.9-.34.03-.55-.39-.86-.52-.05.28.07.32.12.52.05.13.08.42.16.55.18.34.3.4.46.46.18.07.6-.08.6-.08s-.07.76-.25 1.04-.6.5-.97.3c-.84-.52-.88-.87-1.39-.82.05.28.12 1.55.46 1.34.1.29.04 1.48.33 1.46.03-.2.09-.33.18-.41.06.22.11.46.29.47 0 .1.13 1.06.19 1.11.15.03.23-.6.39-.7.09-.06.11.4.2.4.07-.01.18-.2.22-.27.06.5-.08 1.17-.46 1.67a1.98 1.98 0 0 1-1.4.84c-.53.08-.91 0-1.42 0-.38 0-1.27-.36-1.71-.7-.46-.32-.5-.31-.72-.41.18.71.51 1.3.62 2.06.07.43.18 1.12.2 1.47.06-.27.12-.6.22-.78.05.13.1.29.13.44.38-.84.41 1.48.5 1.66.23.54.4-.55.53-.72.04.1.15.2.18.29.17-.28.18.34.3.49.11-.33.27-.48.34-.87l.1-.7c.58-.16.22 1.67.54 1.94.26.22.23-.4.37-.55.3-.31.32.33.55.45.06-.27.18-.66.27-.9.16-.39.12-.06.32-.12 0 0 .22-.22.3-.1-.16.42-.14.95-.32 1.33a6.58 6.58 0 0 1-.8 1.34c-.26.3-.66.47-.96.66-1.1.7-2.66.28-3.77-.02-.52-.14-1.01-.72-1.55-.95-.42-.17-.77-.62-1.18-.7-.02.25.1.7.21.8l.37 1.67c.15.45.25 1.1.3 1.6.1-.1.23-.39.36-.55 0 .46.2.94.23 1.41.02.31-.02.65.16.9.11-.34.24-.8.46-.94.2.49.17 1.07.32 1.58.14.47.16 1.18.5 1.4.2-.47.12-1.4.52-1.75.12-.11.26 0 .36-.15.12-.16.13-.58.14-.8.12-.03.16-.25.25-.38.2.49.15 1.25.22 1.82.05.48.12.89.27 1.33.02-.22.08-.74.23-.83.18-.1.24.23.46 0 .28-.27.55-1.72.54-2.27.26.39.15 1.14.29 1.61.21.72.22-.05.45-.01.1.01.04.4.22.39.14-.02.2-.35.25-.48.1-.26.15-.41.34-.56.08.1.23.66.3.67.2.04.1.13.1.47a3.32 3.32 0 0 1-1.4 1.65 10.25 10.25 0 0 1-5.54 1.8 9.46 9.46 0 0 1-4.12-1.24c-.33-.2-.78-.43-1.08-.7-.01.22.09.38.09.38-.03.66.39 1.21.54 1.8.11.46.14.9.22 1.37.14.8.23 1.2.27 2 .21-.38.26-.71.46-1.04.07-.12.2-.08.24-.16.14-.22.08-.72.35-.6.06.53.02 1.09.09 1.59.05.43.2.87.3 1.29.02.1.05.55.12.6.28.2.35-2.32.86-2.27.03.23.13.38.19.6.1.4.05.87.15 1.3.17.78.19 1.7.38 2.4.17-.55.23-1.18.34-1.75.07-.37.06-1.27.21-1.47.18.76.3 1.6.35 2.4a1.48 1.48 0 0 0 .22.25c.18-.63.33-1.24.54-1.86.09-.26.2-1.32.33-1.47.27-.32.35 1.74.61 1.94.12-.3.18-.68.28-.98.3-.06.49 1.22.67 1.52.2-.29.27-.82.43-1.1.01 0 .2-.11.22-.15.13-.18.2-.5.3-.75.07-.23-.02-.6.14-.6s.22 2.23.47 2.18c.13-.04.32-.97.38-1.18.06-.27.08-.67.3-.72.1.3.16.6.38.66.1.03.2-.13.3-.09a2.5 2.5 0 0 1 .4.54c-.6 1.01-.69 1.22-1.48 1.88a13.87 13.87 0 0 1-2.69 1.73c.5-.18-1.68.81-4.7 1.14-.76.08-2.4-.02-3.41-.59s-1.59-.91-2.99-1.95a.9.9 0 0 0 .15.35c.07.08.03.52.12.81.13.42.15.66.19 1.14.03.45.15.88.2 1.33.02.33 0 .68.1.94.21-.32.2-.89.4-1.22.32-.51.32-.02.47.36.12.27.37.33.45.62.06.25-.13 2.57.43 1.75.26.33.07.95.07 1.38 0 .37.07.85.12 1.18.06.32.1.06.15.05.13-.74.3-1.47.42-2.21.33.08.16.7.5.08a9.35 9.35 0 0 1 .33 1.8c.04.33 0 .63.06.94.13.65.48 1.17.6 1.84.28.02.21-.75.47-.95.06.16.08.74.27.54.05-.07.03-.37.05-.47.07-.27.2-.47.31-.7.3-.7.34-1.55.56-2.24 0 .8.25 1.5.3 2.27.37-.4.28-.55.59.24.17.43.28.65.65.56.08-.16.51-1.9.68-1.28.37-.5.33-1.2.41-1.83.07-.55.25-1.04.41-1.55.08.84.31 1.44.44 2.22.05.34.19 1.18.46 1.26.1-.26.22-1.31.4-1.41.28-.17.24.42.42.43.14.01.26-.77.29-1 .06-.36.03-.73.14-1.09.08-.26.17-.34.25-.57.2-.58.27-1.24.56-1.73.09.91.28 1.86.52 2.68.08.3.2 1.36.48 1.41.36.08.14-.59.37-.7.19-.1.46.48.65.56.31.12-3.29 3.76-3.72 4.03-1.38.87-5.05 1.4-6.7 1.4-1.72 0-4.45-.08-5.52-.63l-1.13-.47c.09.33.18.82.24 1.18.05.33.15.73.17 1.08.32.1.32-.29.55-.37l.28 1.55c.07.35.1.88.27 1.13.25-.29.4-.6.54-1.04.1-.3.15-.61.43-.51.08.61.12 1.22.2 1.83.08.48.4 1.13.37 1.61.24-.04.28-.61.5-.76.28-.2.4.49.52.88.08.27.15 1.06.38 1.11.19.05.37-.62.43-.9.09-.48.08-1.03.22-1.51.07-.2.3-1.14.4-1.22.25-.22.28.52.45.7.26.29.21-.25.47-.17.11.6.13 1.19.31 1.72.1-.11.16-.11.28-.12.14.73.3 1.55.72.66a6.38 6.38 0 0 0 .37-1.28c.07-.3.14-1.11.29-1.24.13.39.24.82.32 1.24.4.2.35-.11.59-.65.1-.21.3-.61.49-.66.22.85.5 1.55.75 2.34.3-.34.13-1.53.62-1.18.13-.49.25-.71.44-1.11-.04.84.28 1.75.47 2.53.2.77.66-1.24.66-1.24.02-.14.13-.41.2-.47.05.23.09.45.09.7 0 .63 0 1.46-.4 1.9a12.8 12.8 0 0 1-4.75 2.68c-3.6 1-7.35.52-7.96.52a3.53 3.53 0 0 0-1.12-.25c.16.36.42.57.6.91.1.18.33 1.1.43 1.17.03.03.07.03.1.04.08-.49.26-.48.42-.2.18.34.27.99.32 1.4.04.36.27 1.8.6 1.7.06-.24.1-.68.27-.71.13.63.85 2.92 1.25 1.52.11-.43.07-.87.16-1.28l.3-1.18c.19.02.47.9.58 1.18.17.49.3 1.08.4 1.6.09.48.18.83.34 1.23.05-.43.28-.73.32-1.12.3.32.32.51.52-.25.14-.5.26-1.08.25-1.63.04.68.17 1.34.32 1.97.25.01.34.48.46.75.16.36.25.44.53.53.15-.54.1-1.21.29-1.7l.08-.01c.12-.56.26-2.35.68-2.55.02.15.08.28.1.42h.12c.3 1.74.48 3.22.98 4.82.16-.32.14-.9.2-1.34.04-.2.08-.74.17-.89.27-.4.44.75.5 1.09.21.02.28-.66.42-.93.13-.27.28-.5.38-.85.13-.46.07-2.95.4-3.1.16.72.24 1.92.3 2.67.05.5.18.9.28 1.37.05.23.05.52.15.65.1-.25.1-.61.2-.85.16-.39.08-.16.24.1.36.56.49.26.62-.49.22-1.2.47-1.73.65-2.93a13 13 0 0 1 .29 2.5c0 .55.04 1.06.3 1.39.14-.2.14-.6.31-.72.05-.02.08.28.19.2.17-.12.1-.69.12-.95.05-.51.29-1.1.4-1.57.05-.2.03-.65.2-.7.32-.1.4 1.46.5 1.79.3.88.3-.51.71-.47.03-.5.04-1.1.18-1.55.19-.66.27-.3.58-.52.2-.14.28-.67.37-.98.15-.46.33-.57.53-.87.18-.27.16-.73.33-1.04.3-.38.4-1.07.62-1.12.21-.06.04.46.36.95.06.17.08.5.16.68.08.19.44.23.54.38.1.14.26.5.55.5.3 0 .46-.36.55-.5.1-.15.46-.2.55-.38.06-.18.1-.5.16-.68.3-.49.14-1.01.35-.95.22.05.34.74.63 1.12.17.31.14.76.33 1.04.2.3.38.41.52.87.1.3.18.84.38.98.3.21.39-.14.58.52.14.46.15 1.05.17 1.55.42-.04.4 1.35.7.47.12-.32.19-1.88.52-1.79.16.05.14.5.2.7.1.47.35 1.06.4 1.57.02.26-.05.83.12.95.1.06.15-.23.18-.2.18.12.17.51.3.72.28-.33.32-.84.32-1.4 0-.86.13-1.67.28-2.49.2 1.2.45 1.72.65 2.93.14.75.26 1.05.63.48.16-.25.08-.48.24-.09.1.24.09.6.2.85.1-.14.1-.43.14-.64.1-.48.25-.88.28-1.38.06-.75.14-1.95.31-2.66.31.14.25 2.63.39 3.09.1.35.25.58.39.85.13.27.2.96.4.93.06-.33.25-1.48.5-1.09.11.15.15.69.18.9.07.42.05 1 .2 1.33.5-1.61.69-3.08.99-4.81l.11-.01c.03-.14.08-.27.1-.42.42.2.56 1.99.69 2.55h.08c.18.5.13 1.16.28 1.7.29-.08.38-.16.54-.52.12-.27.21-.74.45-.75a10.96 10.96 0 0 0 .32-1.97c0 .55.12 1.13.25 1.63.2.77.22.58.53.25.03.39.26.7.32 1.12.16-.4.25-.74.34-1.22.09-.53.23-1.13.4-1.61.1-.27.37-1.16.57-1.18l.3 1.18c.1.4.05.85.17 1.28.4 1.4 1.11-.88 1.25-1.52.17.03.2.47.27.7.32.1.55-1.33.6-1.68.04-.42.13-1.06.31-1.4.16-.29.35-.3.42.2l.1-.05c.09-.06.33-.99.43-1.17.18-.34.45-.54.6-.91-.4.02-.72.11-1.11.25-.63.01-4.36.5-7.97-.52a12.8 12.8 0 0 1-4.74-2.68c-.4-.44-.4-1.27-.4-1.9 0-.25.03-.47.08-.7.08.06.18.34.2.47 0 0 .47 2.01.66 1.24.2-.78.53-1.69.47-2.53.2.4.32.62.45 1.11.49-.35.32.84.61 1.18.25-.79.54-1.5.75-2.34.2.05.4.45.5.66.23.54.18.85.59.65.08-.42.18-.85.32-1.24.14.13.21.95.28 1.24.1.42.22.91.38 1.28.4.89.58.08.72-.66.1.02.18.01.27.12.2-.53.22-1.14.32-1.72.26-.08.2.46.47.17.17-.18.19-.92.45-.7.1.08.32 1.01.39 1.22.15.48.14 1.03.23 1.51.05.28.24.95.42.9.24-.05.3-.84.39-1.11.12-.4.24-1.08.52-.88.2.14.24.72.5.76-.04-.48.28-1.13.36-1.6.09-.6.12-1.21.2-1.84.29-.1.33.2.43.51.15.44.28.74.54 1.04.18-.25.2-.78.27-1.13l.29-1.55c.23.08.24.47.55.37 0-.36.11-.75.17-1.08.07-.36.16-.85.24-1.18"/>
    <g stroke="none" fill="#000">
      <path d="M95.43 110.38c-.07.43-.14.85-.23 1.26-.15.11-.2-.16-.29-.24-.34-.6-.45-1.29-.57-1.94l-.08-.48.27.02c-.1.32-.19.64-.25.97-.05.25-.1.5-.1.76-.02.1.02.25-.08.34-.11.11-.25 0-.26-.14a4.8 4.8 0 0 1-.18-.7l-.16-.96.34-.02c-.04.37-.24.69-.3 1.05l-.31 1.17c-.1.3-.22.6-.37.89-.06.2-.32.17-.37-.03a2.86 2.86 0 0 1-.52-1.46c.01-.06.13-.02.18-.03.06.01.16-.02.19.02 0 .32.15.62.27.9l.25.42-.3.03c.21-.37.36-.77.46-1.18l.2-.71c.04-.23.1-.46.2-.69.07-.15.11-.3.14-.47.05-.19.34-.11.34.08.06.44.11.87.2 1.3l.08.32-.3.06c.03-.27.04-.54.1-.8.04-.3.15-.6.23-.89l.13-.4c.12-.13.27.03.25.16.12.69.2 1.37.44 2.03.07.16.13.33.23.48-.1.02-.21.07-.12-.08l.32-1.07-.03.03zm.55-10.45c.23-.39.53-.72.78-1.1.1-.1.2-.23.33-.34.18-.14.41-.26.54-.46.02-.07.06-.13.06-.2.07-.23.06-.48.14-.7a1 1 0 0 1 .31-.48c.03.08-.1.2-.1.3-.05.23-.05.46-.06.68 0 .11-.02.25-.05.37a1.1 1.1 0 0 1-.34.52c-.2.16-.4.32-.56.52l-.11.17-.51.7c-.06.05-.08.26-.17.18l-.26-.16zm2.89-12.02c.03-.03.08.04.11.06.06.08.12.16.15.26l.14.4.06.23c.04.14.05.29.07.42 0 .06.05.12.03.16l-.34.1-.04-.2-.06-.46-.03-.2-.03-.23c-.02-.15-.07-.29-.05-.43v-.06c.06.01.02-.03 0-.03l-.01-.02zm-1.72 2.14c.03.1.05.2.1.3.01.03.08.1 0 .06-.03 0-.06.02-.08.05.05-.08.07-.16.1-.25a.57.57 0 0 1 .1-.23c.02-.06.05-.12.1-.14.04-.03.1-.03.15-.03l.06.03c.04.02.05.07.07.1l.06.13.11.45c.06.04.03.05-.02.05l-.17.02c.02-.07.07-.11.08-.18.04-.11.06-.23.09-.34a4.5 4.5 0 0 1 .2-.67c.06 0 .02.08.03.11.02.1.01.2.01.28 0 .21-.01.4-.03.6-.03.11-.05.23-.1.34-.02.07-.09.14-.18.11-.1-.04-.15-.16-.2-.25l-.1-.28-.07-.18c0-.02.04.04.04.02l.06.02c.03.01.11-.04.11-.04 0 .04-.03.06-.03.11-.05.14-.07.28-.14.41-.04.06-.1.11-.16.11a.3.3 0 0 1-.34-.13 1.48 1.48 0 0 1-.2-.52l.35-.06zm1.43-16.8.1-.09.09-.09.1-.1.09-.1.07-.1.07-.1h.03l-.02.13-.02.13-.05.15-.06.14-.04.12-.05.13-.3-.22zm.59-5.9-.02.02-.02.07v.08l.01.11.01.13v.14l-.02.05-.02.05-.02.04-.27-.26h.01l.04-.01.02-.02.02-.04.05-.09.05-.11.02-.06.03-.04c.03-.04.05-.04.06-.05l.02-.01h.03zm.02-3.52.09-.04.06-.02.08-.06.17-.14.07-.03.02-.01.01.03-.01.03-.04.05-.08.2-.05.12-.08.12-.07.08-.17-.33zm-2.6 40.27c-.02-.11 0-.21-.02-.32 0-.11.14-.1.22-.1.12-.01.22.06.33.08.07.03.16.02.22.01l-.1.13c-.01-.28-.04-.55.04-.8.06-.12.16-.23.3-.23.11.05.2.08.2-.08.03-.14.1-.28.23-.34.15-.04.29-.1.43-.13.02.02.13 0 .09.02l-.19.12c.04-.15.04-.3.06-.46.04-.22.05-.47.13-.7.03-.1.09-.1.11-.01l.17.22c.08-.09 0 .12 0 .18l-.08.72c0 .07 0 .14-.08.18l-.16.09-.3.09c-.08.06-.05.2-.13.28-.05.1-.14.19-.26.19-.07.02-.2-.06-.2-.03-.02.06-.05.19-.05.28l-.03.48c-.03.1-.19.1-.3.09-.1-.03-.22-.1-.33-.15-.06-.04-.16-.05-.21-.06.02-.04.07-.11.03 0 0 .08-.04.16-.06.25h-.06zm2.61-10.42a.64.64 0 0 1-.6.12c-.1-.04-.22-.12-.36-.07-.15.03-.2.1-.3.2-.14.15-.26.33-.45.44-.15.1-.1.3-.1.45v.46c0 .16-.15.26-.16.4-.03.17-.03.33-.07.46-.01.08-.08.14-.13.19a.88.88 0 0 0-.27.5c-.06.1-.02.3-.13.33-.02-.2 0-.41.02-.6.03-.15.09-.29.19-.4l.07-.1c.03-.14.01-.3.03-.45 0-.14.12-.23.13-.37v-.12c-.01-.29-.12-.6.04-.86.1-.18.31-.27.41-.44.12-.11.25-.3.35-.34a.79.79 0 0 1 .46-.14c.16 0 .3.07.45.1.08.03.18-.12.24-.08l.18.32zm.24 16.71c-.05-.15-.2-.35-.38-.3-.11.08-.09.26-.12.37-.01.14-.07.29-.18.35-.16.1-.35.03-.52.04-.11.05-.11.07-.13.17 0 .15-.03.3-.1.44-.03.1-.14.13-.22.21-.19.25-.23.57-.38.86-.06.09-.11.19-.22.22-.1.03-.11-.08-.14-.16-.03-.09-.12-.22-.14-.27.03-.01.11-.14.1-.06a7.75 7.75 0 0 1-.09.77l-.1.78c-.05.1-.04-.18-.05-.22 0-.46.05-.9.05-1.35-.03-.14.17-.16.24-.07.11.12.17.28.22.42l-.17-.04c.15-.14.19-.34.27-.52.06-.2.12-.43.3-.57.08-.05.19-.1.2-.21.03-.16 0-.34.15-.46.09-.11.23-.16.37-.12.15.04.37.08.41-.12.06-.18.06-.38.2-.5a.3.3 0 0 1 .33.07c.08.06.09.17.1.27zm4.33-10.27c-.15-.25-.33-.48-.5-.71l-.26-.37c.02.01-.05-.07-.07-.1-.17-.22-.42-.34-.6-.56-.12-.1-.16-.24-.22-.38-.01-.11-.05-.22-.05-.35-.02-.3 0-.6-.13-.87-.03-.03-.07-.18 0-.11.25.2.3.52.35.82.02.14.03.27.08.4 0 .03.03.08.06.11.11.23.34.35.52.48.11.1.23.2.3.33.24.32.5.62.72.96.02.07.15.16.03.2l-.23.15zm-2.6-12.17c0 .01.05.01.02.04 0 .12.02.23-.02.35l-.04.22-.04.23-.04.38-.06.34c0 .03-.03 0-.06 0l-.3-.07.05-.25c.02-.17.06-.34.12-.5l.08-.26c.03-.1.06-.2.11-.29a.8.8 0 0 1 .16-.23c.01-.02.07-.02.06 0l-.05.04zm2.09 2.18c-.04.11-.06.25-.12.36a1.2 1.2 0 0 1-.13.23c-.1.1-.3.11-.4 0l-.08-.15-.12-.4c-.02-.03-.03-.06 0-.01.05.02.1.03.14.01l.05-.02c.03-.07-.01.06-.03.08l-.1.27c-.04.12-.08.23-.17.31-.05.06-.15.07-.2.01-.04-.06-.06-.14-.08-.22a.67.67 0 0 1-.05-.2c-.02-.08-.02-.17-.03-.25v-.38c0-.11-.03-.23 0-.34.05-.05.05.03.08.07l.08.25.15.66c.03.06.04.14.08.2l-.22-.04c.05-.07.07-.17.09-.25.03-.11.06-.23.11-.34 0-.05.04-.07.06-.1l.06-.05c.03-.02.08 0 .11 0 .06.01.11.04.14.1l.08.15.09.3.04.09c-.02-.05-.09-.06-.11-.04.03-.08.08-.14.1-.22.02-.05 0-.15.06-.15l.32.07zm-2.09-16.67-.04-.13-.05-.12-.06-.14-.04-.15-.02-.13a1.37 1.37 0 0 0-.03-.13l.04-.01.07.1.06.1.1.1.1.11.09.1.09.08-.3.22zm-.25-6.13h.02l.06.05.04.05.02.06.04.1.05.1.02.03.02.03h.05l-.26.27-.02-.04-.03-.05v-.06l-.02-.07v-.06l.01-.13.01-.11v-.08l-.02-.07-.01-.02h.02zm-.25-3.19-.07-.07-.08-.12-.05-.11-.08-.2-.04-.07-.01-.02.01-.03h.02l.07.04.17.14.08.06.06.02.1.03-.18.33zm2.76 39.96c-.02-.11-.08-.2-.08-.32.01.04.1.1.02.08-.17 0-.28.13-.43.17-.12.04-.23.06-.34 0-.07-.06-.04-.17-.05-.25-.01-.2-.01-.38-.07-.57.03-.02-.09.01-.16.03a.34.34 0 0 1-.25-.12c-.1-.08-.11-.23-.16-.34l-.3-.1c-.08-.01-.13-.08-.2-.12-.08-.02-.04-.11-.07-.17l-.09-.83c-.01-.05-.04-.11.01-.05l.22-.3c.11.1.11.25.15.4l.09.76c.01.08.01.1-.06.04l-.13-.09c.08 0 .16 0 .23.03.14.05.29.08.4.17.12.11.12.26.17.39.07 0 .23-.07.32 0 .07.06.14.13.15.22.06.19.05.4.05.57l-.01.2-.12-.13c.08 0 .17.02.23-.02.13-.02.23-.1.35-.07.1 0 .25.02.2.15l-.01.27h-.06zm-2.83 6.28c.02-.18.16-.42.38-.4.08.02.13.07.17.15.09.16.06.38.2.5.14.1.3-.03.45 0 .14 0 .24.1.32.2.09.16.03.35.11.49.1.08.23.11.28.23.14.22.19.5.3.74.04.09.1.16.15.23l-.17.04c.06-.16.11-.34.26-.44.1-.08.23-.02.2.11 0 .46.07.9.04 1.35.01.05-.02.34-.04.17-.04-.4-.1-.78-.15-1.18l-.04-.37c.03.03.14.09.1.11-.1.1-.12.23-.16.34-.05.16-.22.06-.27-.04-.19-.24-.22-.57-.36-.85-.06-.15-.2-.18-.29-.3-.11-.14-.11-.34-.12-.52-.01-.04-.06-.09-.15-.11-.17 0-.38.08-.51-.06-.08-.03-.12-.15-.14-.23-.05-.15-.01-.34-.14-.46-.13-.06-.26.05-.34.17l-.08.13z"/>
    </g>
    <g class="secondary">
      <path d="M99.25 96.42c-.1.08-.35.03-.46.1-.08.05-.1.15.03.37.07.11.29.22.31.38.05.22-.1.32-.16.5-.09.34.04.67 0 1-.02.26-.08.45-.08.73 0 .4.04.83-.07 1.2-.05.21-.11.44-.12.64.09.01.07-.11.15-.17l.17-.12c.15-.12.16-.2.27-.41a2 2 0 0 1 .51-.69c.05.04.07.12.23.12s.18-.08.23-.12a2.28 2.28 0 0 1 .51.69c.1.21.13.3.28.4l.17.13c.08.06.05.2.15.17-.02-.2-.07-.43-.13-.64-.1-.37-.07-.8-.07-1.2 0-.28-.05-.47-.08-.72-.03-.36.1-.67 0-1-.05-.18-.2-.29-.16-.5.04-.17.24-.28.31-.4.13-.21.11-.31.03-.36-.1-.07-.35-.02-.45-.1-.3-.25-.29-.6-.79-.6s-.48.35-.78.6zm.78-3.4c-.28 0-.67.54-.93.5 0-.27.16-.36.23-.6.07-.27.02-.45.04-.77.03-.45.07-.88.07-1.35 0-.51-.11-.85-.18-1.35 0 0 .3-.21.37.01.06.24.22.23.41.23.37 0 .35.01.41-.23.06-.23.37 0 .37 0-.07.5-.18.83-.18 1.34 0 .47.03.9.06 1.35.03.32-.03.5.05.77.07.24.58.6.23.6-.28 0-.66-.5-.95-.5zm.32-7.88c.2-.05.3.29.5.22-.03-.16-.04-.33-.12-.47-.08-.15-.2-.15-.26-.37-.1-.31.04-.55 0-.87-.02-.12-.07-.24-.08-.38-.02-.17 0-.18.03-.3.02-.19.08-.6-.16-.5h-.43c-.24-.1-.19.31-.16.5 0 .12.04.13.03.3-.01.14-.07.26-.08.38-.04.32.1.55 0 .87-.07.22-.18.21-.26.37-.07.14-.1.31-.13.47.2.07.3-.27.5-.22.18.06.42.06.62 0zm-.6-13.47c-.01-.14-.07-.34-.04-.47.07-.3.16-.4.2-.73.02-.3-.1-.74.04-.85.14-.1.01-.1.16 0 .14.1.02.54.05.85.02.32.12.45.2.73.03.13-.04.32-.04.47-.16-.01-.15-.29-.28-.32-.12-.02-.13.3-.3.32zm.89 35.2c.13.17.18.39.28.57.1.15.2.26.3.42.13.25.09.16.3.23.14.04.21.06.32.22.19.26.35.82.64.64-.22-.25-.25-.34-.34-.56-.08-.2 0-.42-.06-.6-.03-.1-.16-.3-.21-.37-.1-.14-.17-.22-.32-.2a.52.52 0 0 0-.13-.26c-.02-.56-.18-1.01-.15-1.57.02-.25.13-.7-.04-.9-.05-.05-.24.02-.56-.13-.32-.13-.33-.26-.66-.26s-.34.12-.66.26-.51.08-.56.13c-.17.2-.06.65-.05.9.04.56-.12 1.01-.14 1.57a.57.57 0 0 0-.13.25c-.15-.02-.23.06-.32.2-.06.09-.18.27-.22.37-.05.19.04.43-.05.6-.1.24-.13.33-.34.57.3.18.46-.37.63-.64.1-.16.19-.18.32-.22.23-.05.17.02.31-.23.1-.16.2-.27.3-.42.1-.18.15-.4.28-.57.2-.23.38-.52.63-.35.27.16.44.12.63.35zm-.4-32.13c-.03.21.07.43.08.65.02.23 0 .49 0 .73 0 .35.03.59.1.9.07.33.24.49.34.77.1.25.24.8.18.84s-.13-.37-.24-.47c-.1-.1-.18-.05-.26-.12-.13-.11-.24-.34-.4-.4-.19-.09-.3.29-.43.4-.08.07-.17.01-.26.12-.1.1-.17.52-.24.47-.06-.04.08-.58.18-.84.1-.3.27-.44.34-.76s.1-.56.1-.91v-.73c.02-.22.1-.45.09-.65h.42z"/>
    </g>
    <g stroke="none" fill="#000">
      <path d="M103.4 97.2c-.07-.22-.12-.45-.21-.66-.07-.13-.23-.21-.26-.35l-.06-.4c.02-.11-.02-.15-.08-.25-.11-.17-.1-.39-.1-.57 0-.17.07-.34-.02-.5l-.23-.18c-.15-.14-.25-.31-.4-.44-.02 0-.16-.09-.25-.1-.14-.01-.26.1-.41.1a.69.69 0 0 1-.5-.12c0-.05.06-.12.09-.15l.1-.18c.11.08.25.11.38.04.18-.07.4-.09.58 0 .15.06.28.14.38.27.13.15.26.33.43.44.13.11.22.28.21.46 0 .22-.05.45-.04.68.03.14.16.25.13.4.03.14 0 .28.04.42.01.06.16.2.2.3.08.25.08.53.07.8h-.05zm-5.1-17.27.02-.34v-.56c0-.07.05-.09.1-.09.07 0 .13.03.19.07.02.03.1 0 .09 0l.04-.02c.03-.01.03-.04.04-.07l.07-.22.1-.18.3.23a.68.68 0 0 0-.15.2l-.07.15c-.05.06-.1.12-.15.14-.06.01-.11.04-.17.03a.28.28 0 0 1-.2-.08c-.02-.03-.07-.05-.04-.08l.05-.08-.07.52-.07.34c-.01.02 0 .06-.02.06h-.06zm3.42.02-.07-.35-.03-.2-.05-.37.06.1c-.04.05-.1.1-.15.12a.27.27 0 0 1-.23 0 .35.35 0 0 1-.17-.11c-.06-.07-.07-.16-.12-.23l-.12-.17.3-.23.11.23.06.18.02.07.06.02s.07.02.09-.01c.06-.04.11-.08.2-.06.04 0 .1.02.1.1l-.02.55.03.34h-.07zm-4.26 29.15c-.1-.07-.15-.16-.21-.24-.11-.23-.17-.46-.24-.69a1.68 1.68 0 0 1-.07-.48l-.07-.75a7.18 7.18 0 0 0-.03-.22l.27.07a.46.46 0 0 0-.11.17c-.07.12-.08.25-.11.38l-.15.75a1.94 1.94 0 0 1-.2.57c-.06.07-.14.12-.2.2-.04.02-.06.08-.08.1l-.08.21c-.02.04-.04.23-.08.15a1 1 0 0 1 .02-.4c0-.05.04-.1.05-.14.03-.1.11-.16.16-.25l.07-.19c.1-.37.1-.76.18-1.14.03-.16.08-.3.15-.45.04-.07.1-.16.17-.23.1-.07.22.02.22.14.06.16.07.34.1.5l.06.59c.03.18.05.35.12.52.03.14.07.27.14.4.02.06.06.12.13.16l-.21.27zm10.69 1.76c.01.3-.1.58-.2.86-.1.26-.25.51-.4.74-.12.11-.29.02-.32-.12-.19-.34-.31-.7-.43-1.06l-.22-.93c-.05-.17-.08-.34-.16-.5-.06-.18-.14-.37-.16-.57h.34c-.08.46-.13.92-.24 1.35l-.16.45c-.1.14-.3 0-.26-.15-.03-.25-.04-.49-.08-.74-.04-.29-.12-.56-.18-.83l-.1-.34.25-.03c-.1.69-.21 1.4-.46 2.04a2.17 2.17 0 0 1-.32.57c-.13.2-.23-.09-.22-.21l-.17-1c.13.08.11.4.2.55.05.2.17.47.17.64-.1-.02-.18-.03-.07-.14.11-.22.21-.45.28-.7.16-.6.24-1.2.33-1.8.04-.18.29-.1.29.05l.17.57c.07.23.12.46.16.69.04.24.06.48.08.71l-.3-.05c.12-.33.15-.67.2-1.02l.1-.68c.08-.2.36-.11.34.09.05.32.24.62.3.94l.3 1.14c.06.22.15.43.23.64l.13.22-.3-.02c.22-.3.38-.66.48-1.03.02-.11.06-.23.05-.34l.35.01zm-4.23-1.48c-.03-.11-.06-.25-.11-.36l-.05-.08c-.03-.08-.14-.14-.18-.22-.12-.14-.16-.32-.2-.5-.1-.37-.13-.76-.26-1.13l-.11-.23c-.06-.04-.05-.06.03-.07l.2-.04c-.03.14-.06.3-.06.45-.02.26-.04.54-.08.8-.02.13-.05.25-.1.37-.04.17-.1.34-.19.5-.05.09-.11.18-.19.24-.05.04-.06-.06-.08-.08l-.14-.22c.05-.03.07-.1.12-.14.02-.11.09-.19.11-.3.04-.15.1-.31.12-.48.04-.25.05-.5.08-.76.03-.18.03-.37.1-.54.05-.1.21-.1.27 0a1.03 1.03 0 0 1 .17.32c.15.4.14.84.23 1.25.03.16.07.32.17.46.08.06.14.18.17.3.03.13.05.28.03.43l-.05.03z"/>
    </g>
  </g>
</svg>
