<svg fill="#d7374a" stroke="#000" version="1.1" viewBox="50 50 200 200" xmlns="http://www.w3.org/2000/svg">
  <g id="plaice" stroke-width=".51">
    <g>
      <path class="secondary" d="M139.45 89.73c-.26.94-1.18 1.56-2.12 1.87-.36.1-.75.15-1.11.3-.79.32-1.4 1.07-1.94 1.95-1.13 1.77-2.1 1.49-3.04 2.22-1.62 1.26-3.39 1.37-5.27 1.18v8.28c1.88-.2 3.65-.1 5.27 1.18.94.73 1.91.38 3.04 2.14a4.91 4.91 0 0 0 2.03 1.96c.36.15.74.19 1.11.3 1.62.47 1.4.32 2.05 1.71.06.15 1.28-1.54-.56-2.99-.06-3.27-.25-6.45-2.73-8.46 2.48-2.03 2.67-5.2 2.73-8.46 1.97-1.86.54-3.18.54-3.18z"/>
      <path fill="none" d="M138.87 92.87c-1.3 1.1-2.09.94-2.99 1.43"/>
      <g stroke="none" fill="#000">
        <path d="M135.77 94.1c-.2.13-.38.3-.55.45l-.47.49c-.3.33-.58.7-.82 1.07a6.34 6.34 0 0 1 1.54-1.26l.54-.3zm1.37 1.74c-.4.12-.75.34-1.07.59a9.02 9.02 0 0 0-.88.8l-.83.8a5.08 5.08 0 0 1-.96.65c.41.02.83-.13 1.18-.34a4.7 4.7 0 0 0 .96-.75 11.54 11.54 0 0 0 .8-.88c.26-.3.5-.58.8-.87zm-.68 2.64a1.32 1.32 0 0 0-.5.26l-.42.4-.35.39-.36.34c-.27.2-.55.35-.87.47s-.71.2-1.01.45l1.1-.06c.4-.04.8-.2 1.1-.45l.22-.2.2-.23.3-.47.27-.47c.08-.15.17-.3.32-.43z"/>
      </g>
      <path fill="none" d="M138.87 109.81c-1.3-1.09-2.09-.94-2.99-1.43"/>
      <g stroke="none" fill="#000">
        <path d="M136.01 108.16a3.08 3.08 0 0 1-.54-.3l-.55-.38a6.34 6.34 0 0 1-1-.88c.23.37.51.73.83 1.07l.47.49.55.45zm1.13-1.32c-.3-.28-.54-.56-.8-.86l-.8-.89a4.7 4.7 0 0 0-.96-.75 2.22 2.22 0 0 0-1.18-.34 5.08 5.08 0 0 1 .96.66l.83.8c.28.27.56.54.88.8s.68.49 1.07.58zm-.68-2.63a2.33 2.33 0 0 1-.32-.43l-.28-.47-.3-.47-.19-.23-.22-.2a2.22 2.22 0 0 0-1.1-.46c-.39-.05-.73-.01-1.1-.05.3.24.7.34 1.01.45.34.11.6.26.87.47l.36.34.35.4.42.39a.94.94 0 0 0 .5.26z"/>
      </g>
    </g>
    <path class="secondary" d="M67.98 91.76c.2-.31.37-.7.58-.97l1.7-2.43c1.32-1.86 2.64-3.74 4.37-5.22.96-.83 2.03-1.53 3.08-2.2l7.4-4.78a25.76 25.76 0 0 1 8.45-3.42 17.3 17.3 0 0 1 10.8 1.37 33.84 33.84 0 0 1 9.07 5.5 80.71 80.71 0 0 1 6.1 6.06c2.7 3.01 5.22 6.3 6.48 10.16.3.92.53 1.93.15 2.82-.34.8-1.13.63-1.54 1.12-.55.64-.38 1.71-.13 2.47.28.88.75 1.69.98 2.6a6.81 6.81 0 0 1-.89 4.92 25.38 25.38 0 0 1-6.84 7.23c-2.99 2.3-4.96 4.37-7.95 6.68-3.67 2.86-10.96 4.75-15.36 3.27-4.95-1.64-7.8-2.03-12.07-5.02-.47-.32-.94-.68-1.47-.92-.4-.19-.8-.32-1.16-.57a3.88 3.88 0 0 1-.93-1c-.43-.63-.82-1.3-1.14-2-.23-.5-.34-1.6-.87-1.85.23.1-.11 1.1-.11 1.32-.04.71.15 1.45.13 2.18-.75-.07-1.13-.79-1.71-1.16-.66-.44-1.26-.93-1.9-1.36-.56-.37-1.16-.6-1.62-1.16-.84-1.04-1.03-2.45-1.1-3.8-.14-2.73.13-5.47-.38-8.14a10.56 10.56 0 0 0-1.3-3.52c-.6-.97-1.82-1.75-2.14-2.84a6.33 6.33 0 0 1-.3-1.76c0-.81 1.46-3.37 1.62-3.58z"/>
    <g stroke="none" fill="#000">
      <path d="M70.38 93.51a7.26 7.26 0 0 0 .45-2.67 6.83 6.83 0 0 1-.9 2.45z"/>
      <path d="m72.36 91.5.48.1.34-3.28z"/>
      <path d="m74.57 89.55.12.03.13.02a.4.4 0 0 0 .22-.07c.12-.08.17-.17.23-.25.1-.17.15-.34.17-.5l.1-.93c.03-.62.03-1.22 0-1.84a14.36 14.36 0 0 1-.46 2.69.94.94 0 0 1-.17.34l-.1.07.03-.01zm3.73-3.05a12.82 12.82 0 0 0 .5-3.57c-.17 1.18-.5 2.33-1 3.38z"/>
      <path d="m80.91 83.96.5.04.03-2.73z"/>
      <path d="M84.09 82.46a8.46 8.46 0 0 1 .32-3.48 8.52 8.52 0 0 0-.81 3.5zm-8.56 34.8c.06-1.07.17-2.15.34-3.18l-.5-.04c0 1.07.05 2.15.16 3.22zm-2.42-1.58c.07-.75.24-1.5.52-2.18l-.48-.13a7.95 7.95 0 0 0-.04 2.3zm-.77-1.5c-.02-.42.07-.81.26-1.13l-.49-.15c-.04.47.04.92.23 1.27zm7.91 5.09a7.67 7.67 0 0 1-.4-3.18l-.5-.02c.07 1.15.38 2.24.9 3.2zm2.22 1.63a11.02 11.02 0 0 1-.53-4.47l-.5-.02a11.47 11.47 0 0 0 1.03 4.5zm2.35.6c-.15-.63-.23-1.3-.3-1.95-.06-.66-.08-1.31-.02-1.95H84a16.06 16.06 0 0 0 .82 3.9zm3.46 1.75a10.92 10.92 0 0 1-1.11-4.5l-.5.03a11.64 11.64 0 0 0 1.6 4.47zm2.9.93a8.33 8.33 0 0 1-.8-4.74l-.5-.04a8.42 8.42 0 0 0 1.3 4.78zm2.3.32a17.43 17.43 0 0 1-.58-5.74h-.5c.05 1.96.43 3.91 1.09 5.74zm2.92 1.1a22.89 22.89 0 0 1-.98-5.62l-.5.04c.28 1.92.77 3.8 1.48 5.58zm2.67.14a13.01 13.01 0 0 1-.77-6.2l-.5-.06a13.2 13.2 0 0 0 1.27 6.26zM123.92 109a6.55 6.55 0 0 1 .17-2.7l-.5-.08c-.08.96.05 1.9.33 2.78zm-1.5 1.43a6.41 6.41 0 0 1-.3-3.55l-.5-.08c-.08 1.28.2 2.56.8 3.63zm-2 1.83a8.19 8.19 0 0 1-.48-3.67l-.5-.02c.03 1.32.39 2.58.99 3.69zm-2.02 1.43a6.4 6.4 0 0 1-.36-3.5l-.5-.06a6.7 6.7 0 0 0 .86 3.56zm-1.73 2.04a18.31 18.31 0 0 1-.77-5.32l-.51.02c.17 1.83.6 3.63 1.28 5.3zm-2.09 1.45a40.69 40.69 0 0 1-.49-4.77l-.5.05c.26 1.58.58 3.16.99 4.72zm-1.52 1.6a8.74 8.74 0 0 1-1.58-4.8l-.5.04a9.04 9.04 0 0 0 2.08 4.76zm-2.1 1.47a2.88 2.88 0 0 1-.65-1.06l-.4-1.2-.76-2.4-.47.16 1 2.32c.16.37.31.77.5 1.14.2.42.43.77.77 1.04zm-2.43 1.09c-.53-1.32-.9-2.67-1.13-4.04l-.49.1c.4 1.38.94 2.7 1.62 3.94zm-1.85 1.75a12.78 12.78 0 0 1-1.88-5.12l-.48.1a12.5 12.5 0 0 0 2.36 5.02zm-2.36 1.16c-.38-1.13-.76-2.24-1.04-3.38a14.48 14.48 0 0 1-.47-3.46l-.5.02c.07 1.2.35 2.37.73 3.5.35 1.14.82 2.23 1.28 3.32zm-2.5.6a19.29 19.29 0 0 1-.98-6.67h-.51c.11 2.3.62 4.57 1.49 6.67zm-27.47-8.51c.04-1 .2-1.98.54-2.88l-.49-.13c-.18 1-.2 2.03-.05 3zm12.7-34.82a4.44 4.44 0 0 0 .5-1.75c.05-.6 0-1.18-.17-1.75.07.58.05 1.17-.08 1.71s-.36 1.07-.68 1.5zm3-.5c.2-1.6.28-3.22.24-4.84-.13 1.6-.38 3.2-.73 4.74zm2.9-1.44c.22-1.67.3-3.36.25-5.05a31.31 31.31 0 0 1-.75 4.96zm26.78 14.76a10.26 10.26 0 0 1-.68-4.47c-.28 1.5-.2 3.1.21 4.62zm2.67 1.67a10.26 10.26 0 0 1-.68-4.47c-.28 1.5-.2 3.1.21 4.62zm-5.64-4.68a11.54 11.54 0 0 1-.47-2.42c-.07-.83-.11-1.68-.15-2.5-.04.82-.1 1.67-.1 2.52s.06 1.69.23 2.53zm-3.16-3.14a23 23 0 0 1-.43-4.96c-.2 1.65-.23 3.35-.07 5.04zm-3.2-2.8c.03-1.39-.16-2.76-.54-4.08a13.87 13.87 0 0 1 .04 4.04zm-2.76-1.84a10.72 10.72 0 0 1-.73-4.3c-.23 1.46-.15 2.98.24 4.45zm-2.87-.77c-.44-1.13-.74-2.3-.89-3.5l-.1-.9.03-.9c.04-.6.11-1.23.1-1.83-.03.62-.14 1.2-.23 1.83l-.1.92a16.36 16.36 0 0 0 .68 4.57zm-3.24-2.7a19.8 19.8 0 0 1-.62-4.95c-.17 1.67-.13 3.36.13 5.04zm-2.97-.38c-.13-.81-.22-1.66-.32-2.49s-.15-1.67-.22-2.5l-.04 2.52c0 .85.02 1.68.08 2.54zm-2.6.24c-.05-1.7-.25-3.37-.6-5 .18 1.67.21 3.35.1 5z"/>
    </g>
    <path d="M68.26 94.66c.15-.2.32-.4.52-.56.23-.17.47-.3.72-.44.77-.43 1.5-.96 2.14-1.56.58-.54.81-1.37 1.52-1.8 2.03-1.22 3.6-3.35 5.51-4.81a30.02 30.02 0 0 1 15.59-6.06c2.27-.19 4.6-.11 6.77.66a20.3 20.3 0 0 1 3.21 1.56c2.07 1.15 4.14 2.28 6.02 3.7 3.7 2.8 6.6 6.58 10.52 9.14a14.06 14.06 0 0 0 7.94 2.63c1.26-.05 1.75.94 2.16 2.13.3.9.45 1.84.41 2.78-.03 1.22-.5 2.91-1.63 3.36-.43.17-.9.1-1.36.14a16.26 16.26 0 0 0-6.78 2.03c-1.98 1.1-3.6 2.67-5.5 3.85-.7.43-1.46.79-2.2 1.2-2.47 1.38-4.64 3.24-6.97 4.87a16.26 16.26 0 0 1-7.74 3.26c-2.8.22-5.55.37-8.31-.15a30.96 30.96 0 0 1-7.7-2.73c-1.83-.9-3.66-2.14-5.61-2.78-2.07-.68-4-1.56-6.11-2.13-.77-.2-1.68-.19-2.4-.49-.85-.35-1.51-1.09-2.13-1.73-.75-.79-2.48-1.54-3.3-2.25-.73-.64-1.53-1.54-2.4-1.98-.15-.07-.3-.13-.43-.22-.53-.38-1.05-2.16-.04-2.13.58.02 1.13.29 1.66.53.56.28.97.55 1.44.98.45.41.92.8 1.47 1.09.13-.81-.23-1.67-.66-2.33l-.43-.53a6.73 6.73 0 0 0-1.05-1.01c-.38-.25-.93.07-1.2-.29-.33-.41-.27-1.18-.12-1.6.24-.63 1.32-.97 1.79-1.46.65-.68 1.69-1.37 2.35-2.05.5-.53.88-1.24 1.44-1.7.36-.31.6-.73.89-1.12z"/>
    <g stroke="none" fill="#000">
      <path d="M70.38 110.6a8.54 8.54 0 0 1 2.73-1.01l.96-.13c.33-.04.67-.12 1-.27l.24-.11.67-.34c.3-.17.59-.36.85-.64.13-.13.23-.3.3-.49s.1-.4.1-.58l-.08-1.95.02-.46c.02-.15.05-.28.11-.43a6.5 6.5 0 0 0 .04-4.89 7.78 7.78 0 0 1-.45 4.74l-.15.5c-.04.18-.04.37-.06.54l.02 1 .04.97c.02.28-.08.5-.27.73-.18.2-.43.4-.71.55l-.41.24-.42.23c-.28.13-.56.2-.88.26s-.64.11-.98.2l-.94.33c-.66.24-1.26.54-1.73 1.01z"/>
      <path d="M72.15 112.52c.19.08.41.1.62.08a3.57 3.57 0 0 0 .62-.12l1.18-.37c.2-.06.38-.12.59-.14l.6-.09a27.43 27.43 0 0 0 2.44-.45c.42-.11.83-.26 1.2-.49a2.63 2.63 0 0 0 .9-.98 7.9 7.9 0 0 0 .5-1.18l.73-2.35.36-1.19.34-1.2c.18-.8.3-1.67.13-2.5-.1-.41-.25-.8-.5-1.16-.22-.36-.5-.66-.78-.96.24.33.49.67.68 1.03s.3.73.35 1.13c.1.79-.05 1.6-.28 2.37s-.5 1.56-.75 2.33l-.75 2.35a4.7 4.7 0 0 1-.44 1.09c-.18.34-.43.62-.73.8-.32.21-.68.36-1.05.48l-1.19.3-1.2.24-.6.13a3.2 3.2 0 0 0-.6.2c-.4.14-.75.33-1.13.46-.19.08-.38.13-.58.17a1.32 1.32 0 0 1-.66.02zm-8.07-12.54c-.1.02-.18.11-.22.2v.03l.04.07a.4.4 0 0 0 .47.23.38.38 0 0 0 .2-.17.28.28 0 0 0 0-.25c-.13.1-.22.08-.26.06l-.15-.04.02.1c-.06-.06-.08-.14-.1-.23zm.25 1.3.22-.1h.14l.1.02c.06.02.12.04.21.13.08-.07.08-.22.02-.32a.38.38 0 0 0-.3-.2.38.38 0 0 0-.34.13c-.09.11-.1.24-.05.34z"/>
    </g>
    <path fill="none" d="M85.14 105.06c.56.09 1.09.43 1.52.43a3 3 0 0 0 2.45-1.02c.75-.84 1.73-2.6 1.61-3.76-.03-.35-.15-.43-.52-.43-.96 0-3.01 1.13-5.47 2.22"/>
    <g stroke="none" fill="#000">
      <path d="m84.61 102.27.1-.01h.02-.46c-.16.01-.33.03-.5.09s-.3.15-.44.26-.2.27-.26.4c.1-.12.2-.23.34-.3s.26-.12.41-.12.29 0 .42.04l.2.06.1.04.05.01.04.02h.06l.11-.02zm-1.24 2.5c.23.21.55.32.85.4l.47.07.41.08.08-.5-.5.03-.44.06c-.28.01-.59 0-.87-.14z"/>
      <path d="M85.63 103.1a1.65 1.65 0 0 0-.36-.45l-.2-.2-.25-.2-.19.48.25.05.26.08a1.7 1.7 0 0 1 .49.24zm2.86.8-.5.08-.43.1-.9.2-.02.08c.15.13.32.2.51.23s.38.02.55-.02a1.7 1.7 0 0 0 .49-.25c.1-.1.22-.24.3-.43zm.33-1.14-.65.2-.62.16-1.28.32-.02.07c.22.14.47.17.71.2a2.26 2.26 0 0 0 .72-.08 2.1 2.1 0 0 0 1.14-.87zm-3.08.15c.3.08.6.06.9.02a3.27 3.27 0 0 0 1.66-.71c.24-.19.43-.43.58-.7l-.06-.05c-.28.13-.5.28-.77.39a9.21 9.21 0 0 1-.75.36l-.77.34z"/>
    </g>
    <path d="M60.6 103.63c.17-.04.6.04.78.11 1.24.49 1.9 1.05 2.95 1.86.28.2.71.68.9.96.23.36.3.77.36 1.18.02.17.04.38-.12.46-.1.07-.28-.02-.35-.14s-.1-.26-.13-.39c-.1-.34-.29-.64-.53-.88a8.52 8.52 0 0 0-3.38-1.83c-.34-.07-.62-.13-.83-.43-.13-.2-.13-.8.36-.9z"/>
    <path d="M62.24 101.75c.81.11 1.92.84 2.45 1.46.52.64.97 1.38 1.33 2.13.3.62.41 1.28.47 1.97.06.72-.08 1.58-.8 1.83-.63.2-.52-.44-.57-.85a13.16 13.16 0 0 0-.7-3.18 5.47 5.47 0 0 0-1.16-1.46c-.25-.23-.51-.51-.8-.66-.4-.2-.86-.36-.93-.6-.13-.47.24-.72.71-.64z"/>
    <g stroke="none" fill="#000">
      <path d="M79.48 94.96a5.08 5.08 0 0 0-2.24-2.56 8.5 8.5 0 0 0-3.27-1l1.54.7a9.48 9.48 0 0 1 2.82 1.68c.4.33.76.77 1.15 1.18z"/>
    </g>
    <g>
      <path fill="#f6f6f6" d="M67.54 98.72c.44-.24 2.33-.66 2.54-.38.62.85.56 1.66-.1 2.22-.67.57-1.72.59-2.25-.13-.53-.7-.5-1.15-.19-1.7z"/>
      <g stroke="none" fill="#000">
        <path d="M68.1 99.28c.14-.39.65-.52 1-.39s.53.55.4.94-.53.6-.89.49c-.33-.13-.63-.64-.5-1.04zm1.92-.73c.25-.05.5-.07.74-.1.24 0 .49 0 .73.08-.2-.15-.45-.24-.71-.34a5.1 5.1 0 0 0-.77-.16zm-3.6.66c.18-.11.39-.19.58-.2l.66-.06-.15-.5-.59.3a1.7 1.7 0 0 0-.5.46z"/>
      </g>
    </g>
    <g stroke="none" fill="#000">
      <path d="M91.5 87.52a3.5 3.5 0 0 0 .8-1.02 4.4 4.4 0 0 0 .53-2.54 3.3 3.3 0 0 0-.34-1.26c-.02.44-.02.85-.06 1.26a9.21 9.21 0 0 1-.5 2.39c-.12.38-.27.77-.44 1.17zm3.64.3c.28-.27.53-.57.72-.9a5.73 5.73 0 0 0 .65-2.19c.02-.37 0-.77-.09-1.14l-.3 1.09-.3 1.05-.34 1.03zm2.97 1.07a3.38 3.38 0 0 0 .94-.7 4.47 4.47 0 0 0 1.11-2.07c.08-.37.11-.78.06-1.16L99.78 86l-.47 1a24.82 24.82 0 0 1-.54.96zm2.6 2.86c.41-.17.8-.4 1.14-.7a5.68 5.68 0 0 0 1.58-2.16c.17-.42.28-.85.3-1.3l-.66 1.13-.7 1.05c-.24.34-.5.68-.78 1zm3.85 1.93c.41-.07.8-.26 1.17-.47a4.57 4.57 0 0 0 2.04-3.1c-.24.36-.45.7-.7 1.02l-.74.92c-.27.3-.55.56-.85.84zm4.15 1.92c.29-.1.55-.24.78-.43s.43-.42.6-.64a3.95 3.95 0 0 0 .41-.8c.1-.27.15-.57.13-.87l-.49.7-.47.67-.47.66c-.17.24-.33.45-.49.71zm3.78 1.28c.25-.08.45-.19.66-.34a3.25 3.25 0 0 0 .92-1.09c.12-.2.2-.45.23-.7a4.46 4.46 0 0 0-1 .98l-.41.55c-.15.18-.28.37-.4.6zm3.99 1.22a.98.98 0 0 0 .5-.19c.16-.1.29-.22.38-.37s.17-.32.21-.5.04-.35-.04-.54l-.34.4-.26.37-.24.38c-.06.13-.15.26-.21.45z"/>
    </g>
  </g>
</svg>
