<svg xmlns="http://www.w3.org/2000/svg" fill="#d7374a" stroke="#000" viewBox="50 50 200 200">
  <metadata source="http://www.wappenwiki.org/images/0/00/Coningsby_Ancient.svg" license="https://creativecommons.org/licenses/by-nc-sa/3.0"/>
  <g id="rabbitSejant" stroke-width=".57">
    <g>
      <path class="secondary" d="M90.63 132.4s-.17-.1-1-.17a2.69 2.69 0 0 0-1.77.49c-.22.17-.85.94-.73 1.09.13.15 1.62-.2 2.26-.13.64.06.96.17 1.17.25.2.07.07-1.53.07-1.53zm.02 2.47s-.2-.08-1.05-.06c-.87.02-1.57.55-1.76.76-.22.22-.75.92-.58 1.07.15.15 1.64-.26 2.3-.28a3.8 3.8 0 0 1 1.24.1c.21.05-.15-1.59-.15-1.59zm4.34 2.9c-.21.08-.53.23-1.06.64s-1.5 1.6-1.7 1.57c-.22-.02-.2-.91-.16-1.19a2.77 2.77 0 0 1 1-1.66c.69-.53.84-.4.84-.4s1.3.95 1.08 1.04z"/>
      <path d="M84.17 79.26c.07-.47-.02-.13.22-.88.53-1.57 1.53-3.4 2.49-5.79.96-2.39.36-4.47-.17-6.65-.56-2.17-1.13-3.32-1.56-4.53-.6-2.03-1.17-.85-2.02.06a10.78 10.78 0 0 0-2.2 3.69A14.14 14.14 0 0 0 80 73.7c.44 3.07.42 4.51.4 5.56"/>
      <path d="M98.5 122.7a17.25 17.25 0 0 0 3.48 5.76c2.02 2.15 5.5 4.13 5.5 4.67a59.43 59.43 0 0 1-11.3-.26c-1.46-.3-3.8-.81-4.49-1.15-.8-.38-1.45.34-1.51.55.38.81.34 1.07.32 1.47-.79.17-.58.98-.77 1.05 0 0 .64.17 1.05 1.76.12.24.83.3 1.25.24.43-.07.88-.45.88-.45s-.03.62.3.68c.06 0 .36 0 .7.17.34.17.7.64.74.68.51.39.77.09 1.05-.1.61-.4 2-.13 2.87.19 1.81.49 2.2.1 3.54-.49 2.51-1.26 9.41-1.24 12.46-.83 1.64.21 2.45.36 3.81-.02.64-.2 1.3-.73 1.51-1.4.77.65.94 1.14 2.47 1.38 1.22.19 3.52.06 3.88-.05.34-.08.66-.27.98-.46 1.5-.9 2.94-.96 3.88-2.13.85-1.99-.34-1.47-.26-1.9.09-.43.36-.77.66-1.09l1.28-1.42c.47-.51.94-1.11.92-1.8-.07-1.2-1.7-2.02-1.45-3.19.1-.5.57-.98.47-1.49-.07-.28-.28-.47-.47-.66-1.05-1.02-1.03-4.98-2.58-3.53-1.98 1.9-.6 6.56-2 9.5a11.43 11.43 0 0 1-2.07 2.79c-.3.31-.64.66-1.09.7-.31.02-.63-.13-.93-.26l-.09-.02a17.17 17.17 0 0 0 3.82-11.4c0-8.43-3.99-16.03-10.2-21.38-5.84-5-11.19-7.22-20.43-9.75-4.52-1.24-3.82-11.93-11.98-15.3l-.66-.23c-1.38-.2-2.02-.04-3.47.21a12.35 12.35 0 0 0-3.6 1.07c-.7.42-2.17 1.15-3.02 1.85-.56.49-2.7 2.51-3.62 3.2-.8.63-1.24 1.34-2.39 2.34-1.02.91-1.17 1.64-1.13 2.08a2 2 0 0 0 .4 1.09c.1.09.2 1.09.75 1.66a3.51 3.51 0 0 0 2 1.17c.28.26 1.94 1.66 3.35 1.26a6.39 6.39 0 0 0 2.47.75c.87.04 1.9-.26 2.62-.77.7.38 1.32.53 2.28.53 2.77 5.82-7.2 15.93 6.77 26.14l3.05-2.64c.91 2.1.7 3.96 2.55 5.3l5.46 3.94"/>
      <path d="M86.13 78.36c.24-.4.02-.13.51-.74 1.05-1.3 3.5-2.52 5.22-4.41 1.73-1.9 1.88-4.07 2.11-6.3.23-2.22.04-3.27.04-4.54.17-1.69-1.8-1.4-2.94-.86-1.13.56-1.79.77-3.4 2.43-2.1 1.96-2.67 4.77-3.3 7.8s-1.16 4.39-1.54 5.37"/>
      <g stroke="none" fill="#000">
        <polygon points="83.11 77.23 82.15 79.26 82.11 79.24 82.58 77.02"/>
        <path d="m85.09 80.17.17-.5.21-.5.21-.49.22-.47.49.28-.32.43-.32.4-.32.43c-.1.15-.21.27-.28.42h-.06zm8.07-14.63c.09 1.07.04 2.15-.15 3.22-.1.53-.23 1.06-.45 1.57a5.64 5.64 0 0 1-2 2.62 10.54 10.54 0 0 1-1.38.85c-.47.26-.94.5-1.37.8a5.33 5.33 0 0 0-1.15 1.04l-.06-.05c.23-.49.6-.91 1.02-1.27.43-.37.88-.64 1.32-.94a8.2 8.2 0 0 0 2.37-1.96c.62-.81 1-1.79 1.25-2.8.3-.95.45-2.01.6-3.08zm-2.28.45-.49 1.04-.5 1.04-.26.52-.26.5-.49 1.05a90.18 90.18 0 0 0-1.38 3.17c-.18.35-.37.7-.67.98l-.06-.06c.2-.32.32-.68.43-1.06l.34-1.11.38-1.11.45-1.09a23.98 23.98 0 0 1 1.77-3.04l.74-.83z"/>
        <path d="M92.78 62.09c-.32.2-.7.26-1.02.4A8.3 8.3 0 0 0 89 64.13a9.12 9.12 0 0 0-1.39 1.62l-.3.45-.25.45a4.05 4.05 0 0 0-.32.98c-.3 1.38-.32 2.87-.43 4.32-.04.75-.1 1.47-.25 2.22-.09.36-.17.72-.3 1.08a2.77 2.77 0 0 1-.62.94l-.06-.06c.23-.28.36-.62.47-.96a18.53 18.53 0 0 0 .3-3.24l.06-2.22c.04-.74.1-1.49.28-2.23a5.6 5.6 0 0 1 .63-1.62l.32-.47a7.56 7.56 0 0 1 4.54-3.13l.56-.1c.17.01.34 0 .53-.07zM79.1 78.36a4.82 4.82 0 0 0-1.02-.55 2.98 2.98 0 0 0-1.02-.24c-.32 0-.66.13-1.05.28l-.3.1c-.1.03-.2.07-.36.05-.12 0-.27-.06-.34-.17a.57.57 0 0 1-.15-.3l.09-.04c.06.06.13.15.21.17.07.02.13.04.2.02l.46-.23c.34-.22.75-.4 1.24-.43.47 0 .9.15 1.25.38.35.24.64.56.8.96z"/>
      </g>
      <path fill="#F6F6F6" d="M78.66 79.13s-.66-.85-1.7-.79c-1.67.15-1.82 1.56-1.82 1.56s-.1.66.38 1.1a1.7 1.7 0 0 0 1.37.5c.87-.07 1.4-.65 1.66-1.22.23-.55.1-1.15.1-1.15z"/>
      <g stroke="none" fill="#000">
        <path d="M76.82 78.58c-1 .1-1.12 1.06-1.12 1.06s-.07.45.2.75a1 1 0 0 0 .84.32c.53-.05.64-1.2.64-1.2s0-.98-.56-.93zm-9.43 6.6-.07.02.05-.02.15-.2c.1-.16.2-.33.36-.5a.9.9 0 0 1 .25-.24c.11-.06.26-.08.37-.06.12.02.2.08.3.17l.2.23-.04.04c-.14-.12-.34-.23-.49-.23-.17 0-.25.13-.34.28l-.2.55-.18.32a.5.5 0 0 1-.2.17.43.43 0 0 1-.35.02l.19-.55z"/>
        <path d="m68.03 85.18.25-.17.15-.09.17-.04.3-.02.06.04c.03.13 0 .26-.06.34a.64.64 0 0 1-.26.22c-.23.06-.53 0-.61-.28zm1.96 2.75a10.86 10.86 0 0 1 1.64.17c.53.1 1.06.25 1.53.5l-.02.07a5.54 5.54 0 0 0-1.56-.25h-.78l-.77.06-.04-.55zm2.62-8.48a14.48 14.48 0 0 0-.6.45l-.55.46c-.39.32-.75.64-1.18.92l-.04-.04c.1-.26.26-.47.4-.66.18-.2.35-.39.56-.56s.43-.3.66-.4c.21-.13.47-.2.75-.17zm-3.86 4.34-.23.03-.2.02-.25.06-.26.13-.36.19-.08-.04a.66.66 0 0 1 .08-.5.72.72 0 0 1 .4-.33.66.66 0 0 1 .9.45zm9.93-4.94.06.02.04.03.02.02.03.02.04.04.06.1.13.2.23.4-.04.05-.4-.22-.2-.08-.1-.04-.04-.03h-.02l.02.03.04.02.13-.56zm-3.6 4.2a1.06 1.06 0 0 1 .34-.07c.1 0 .19.05.25.07.09.04.15.08.22.17.06.08.1.17.12.3l-.04.08c-.13.05-.23.05-.32.05l-.25-.09a.43.43 0 0 1-.2-.2.43.43 0 0 1-.12-.31zm1.49.21a.64.64 0 0 1 .3-.08l.23.04c.06.02.13.08.2.15.04.06.1.15.12.28l-.04.08c-.1.06-.22.06-.3.06a.43.43 0 0 1-.23-.06l-.18-.15c-.04-.08-.08-.17-.1-.32zm1.3-.1a.64.64 0 0 1 .27-.13c.09-.02.17 0 .24.02.06.02.15.06.2.13.05.06.1.12.14.25l-.02.09c-.1.06-.2.1-.28.1s-.17 0-.23-.04l-.2-.13c-.06-.06-.1-.15-.12-.3zm1.08-.47c.07-.11.15-.15.22-.2.06-.04.12-.04.19-.04.06 0 .13.02.17.07.06.04.1.1.17.2v.1a.38.38 0 0 1-.21.16c-.07.03-.13.05-.2.03-.06 0-.12-.05-.17-.09-.08-.04-.12-.1-.17-.23zm.86-.73.12-.23c.05-.04.09-.09.15-.09.05-.02.1 0 .15.02.07.03.1.07.2.17l.01.09-.12.21a.21.21 0 0 1-.15.07c-.04 0-.1 0-.17-.05-.07-.02-.13-.06-.2-.19zm-4.4-2.02-.14.3-.17.27c-.1.2-.24.34-.38.52.06-.2.1-.4.12-.6l.02-.3v-.28l.56.09zm5.27 9.73a4.69 4.69 0 0 0 1.21-.1 4.5 4.5 0 0 0 2.13-1.26c.28-.32.56-.66.7-1.07-.1.43-.33.81-.59 1.16a4.9 4.9 0 0 1-2.1 1.57c-.43.15-.88.24-1.35.28v-.58z"/>
      </g>
      <path fill="none" d="M109.41 107.93c-4.83-.96-9.58.12-11.22 3.15-1.58 2.92-1.68 7.48.32 11.63"/>
      <g stroke="none" fill="#000">
        <path d="M117.49 111.27a22.36 22.36 0 0 0-8.14-3.04l.1-.56a24.5 24.5 0 0 1 4.22 1.4 17.9 17.9 0 0 1 3.82 2.2z"/>
      </g>
      <path fill="none" d="M120.34 130.95c.26 2 .23 2.73-.47 4.3"/>
      <g stroke="none" fill="#000">
        <path d="M114.61 118.51a3.9 3.9 0 0 0 .21 1.69c.17.53.39 1.06.64 1.57a30.25 30.25 0 0 0 1.75 2.98l1.92 2.92c.32.5.61 1 .89 1.54.28.53.53 1.08.62 1.72l-.56.09a5.63 5.63 0 0 0-.57-1.54 20.66 20.66 0 0 0-.85-1.49l-1.86-2.94c-.61-1-1.19-2-1.68-3.06a8.71 8.71 0 0 1-.57-1.69c-.05-.3-.11-.6-.11-.9 0-.29.04-.59.13-.87l.04-.02zm-22.02 17.83c.02-.17.04-.3.1-.45.07-.15.15-.27.26-.4.1-.13.27-.21.42-.26a.9.9 0 0 1 .47-.04l-.1.02c.3-.1.61-.15.91-.1l.83.1c.26.05.51.05.8.05h.8l.02.06a2.09 2.09 0 0 1-.79.3c-.27.04-.57.04-.85.04l-.8-.04c-.26 0-.5.04-.71.12l-.04.03h-.09c-.08 0-.19 0-.25.04a.31.31 0 0 0-.2.13l-.15.21-.08.28-.55-.09zm1.57-2.26c-.23.13-.49.2-.76.22l-.8.02-.78-.09a4.95 4.95 0 0 1-.77-.17h-.02l-.04-.02-.09-.02-.1-.02-.22.02-.17-.53c.13-.05.28-.07.43-.07l.21.05.24.08-.07-.02.7.2.73.12.72.08c.26.03.5.05.75.11l.04.04zm-2.28-2.57a1.21 1.21 0 0 1 .28.76c.02.26-.02.5-.09.7h-.06a2.15 2.15 0 0 0-.15-.63l-.15-.26a.59.59 0 0 0-.19-.15l.36-.42z"/>
        <path d="M94.23 135.72c.17-.08.34-.1.5-.08a1.06 1.06 0 0 1 .5.19c.15.1.25.26.32.43.06.17.08.34.02.53l-.09.02-.61-.51-.3-.24-.17-.12-.17-.22zm-3-2.21.08.04.06.04.1.09.18.2c.08.12.15.27.2.42l.08.42.02.4h-.07l-.12-.38c-.07-.12-.11-.23-.2-.34a.9.9 0 0 0-.23-.25l-.13-.09-.06-.02h-.02s-.02 0 0 0l.1-.53zm9.07 1.87a6.11 6.11 0 0 0 1.87-.5l.55-.3.07.4a1.7 1.7 0 0 0-.73.04l-.4.09-.23.02h-.24c-.28 0-.57-.05-.85-.13a2.6 2.6 0 0 1-.79-.34l.83.06h.4l.41-.02.2-.02.18-.04.4-.09c.29-.06.6-.1.93-.02.12.02.19.15.17.28a.25.25 0 0 1-.11.15c-.2.12-.43.21-.64.3-.21.08-.45.12-.68.17-.24.04-.45.04-.68.04-.22 0-.45-.02-.66-.09zm29.99-10.92c-.09.27-.02.5.04.74s.2.45.28.75c.04.15.06.3.06.47a1.06 1.06 0 0 1-.13.5.75.75 0 0 1-.38.35c-.15.06-.34.06-.47-.02.15-.05.23-.11.3-.22.06-.08.1-.19.13-.3.04-.19 0-.4-.09-.63-.06-.24-.17-.52-.17-.83 0-.15.02-.32.09-.47.08-.13.19-.28.34-.34zm-.09 4.38c.02.2-.06.4-.19.56-.13.15-.3.27-.45.38-.3.21-.57.38-.68.62l-.17.47c-.06.17-.15.4-.34.57a.67.67 0 0 1-.32.17l-.28.07c-.17.02-.34.02-.42.21-.04-.09 0-.21.08-.3.09-.08.17-.13.26-.17.17-.08.32-.17.36-.28.06-.1.1-.23.15-.4l.17-.58a1.5 1.5 0 0 1 .45-.5c.17-.11.36-.2.53-.26a3.4 3.4 0 0 0 .49-.22.9.9 0 0 0 .36-.34zm-1.85 4.43c-.2.5-.64.88-1.17 1.05-.28.08-.58.08-.81.08-.26 0-.45 0-.64.09l-.7.25c-.26.09-.52.13-.8.15a3.1 3.1 0 0 1-1.53-.23c.52-.02 1-.09 1.47-.2.24-.06.45-.12.69-.23.2-.08.44-.21.7-.3.13-.04.28-.08.42-.08l.4.02c.26.02.48.04.7.02.44-.06.89-.25 1.27-.62zm-3.43-14.97a2.09 2.09 0 0 1 .28 1.02 3.43 3.43 0 0 1-.69 1.96c-.19.28-.42.53-.68.77l-.08-.04c.08-.34.23-.64.34-.96l.36-.9c.1-.3.21-.6.28-.9.08-.27.15-.59.19-.95zm-1.09-4.24c.17.17.28.39.34.6.07.21.09.45.09.68a1.98 1.98 0 0 1-.5 1.26l-.08-.02-.02-.64.02-.6.05-.6c.02-.23.04-.44.1-.68zm.75 9.52a1.5 1.5 0 0 1 .04.68 2.04 2.04 0 0 1-.21.64 1.79 1.79 0 0 1-1 .9l-.07-.07c.09-.23.17-.4.28-.6l.3-.52.3-.52c.08-.15.19-.34.36-.5z"/>
      </g>
    </g>
    <g stroke="none" fill="#000">
      <path d="M107.45 132.85a18.4 18.4 0 0 1 3.05.08c1 .07 2 .17 3 .22-1 .04-2.02.04-3.02.06l-1.51.06c-.5.03-1 .07-1.5.13l-.02-.55zm-22.8-31.9a10.07 10.07 0 0 0-1.35 5.57 13 13 0 0 0 .4 2.86c.22.93.54 1.85.8 2.8l-.56.13c-.2-.93-.47-1.87-.64-2.85-.17-.96-.28-1.96-.26-2.94a11.37 11.37 0 0 1 1.6-5.58zm8.09 8.13a4.45 4.45 0 0 1 .06-1.69c.13-.55.34-1.04.53-1.53a4.4 4.4 0 0 0 .2-3.09c.18.5.31 1.03.33 1.58 0 .55-.1 1.09-.25 1.6-.15.5-.32 1.02-.39 1.53-.08.51-.04 1 .07 1.5l-.55.1zM82.26 93.14c.06-.19.19-.34.36-.46.17-.11.34-.17.5-.22.18-.04.35-.04.52-.04.17 0 .34.04.51.09l.02.08c-.13.15-.3.24-.47.3l-.49.13-.46.06-.5.07zm-.35 1.62a.85.85 0 0 1 .32-.3l.39-.12a1.28 1.28 0 0 1 .4 0c.13.02.26.06.4.17v.08a1.06 1.06 0 0 1-.36.22l-.36.08h-.36c-.13-.02-.25-.04-.43-.13zm-.14 2.56a.7.7 0 0 1 .08-.43l.21-.34c.09-.08.2-.17.32-.23a.9.9 0 0 1 .43-.1l.04.06-.15.38-.23.28-.3.2a.71.71 0 0 1-.4.18zm.38 1.77a.7.7 0 0 1 .08-.43l.22-.34c.08-.08.19-.17.32-.23a.9.9 0 0 1 .42-.11l.05.06-.15.39-.24.27-.3.22a.78.78 0 0 1-.4.17zm16.93-5.5c.17-.19.39-.34.6-.47.21-.12.45-.23.7-.3a1.92 1.92 0 0 1 1.51.22l-.02.08a22.28 22.28 0 0 0-1.36.26l-.68.15c-.24.04-.5.08-.75.06zm6.4 1.73-.4.3-.33.23-.36.23c-.13.07-.28.15-.47.17l-.07-.06a1.06 1.06 0 0 1 .22-.47 1.32 1.32 0 0 1 .9-.5.59.59 0 0 1 .5.1zm-3.74-.53c.11-.2.22-.35.37-.47a1.9 1.9 0 0 1 1.04-.54c.21-.02.43-.02.62.11v.09l-.47.25-.45.24-.49.2c-.21.07-.4.14-.62.12zM94 117.69l.24-.41.25-.4a9.59 9.59 0 0 0 .83-1.6c.09-.28.13-.6.28-.9l.06.02c0 .32.07.62 0 .96a2.34 2.34 0 0 1-.34.94c-.17.27-.36.53-.57.76l-.34.32c-.15.13-.28.24-.4.3zm-.42-19.82c-.3-.2-.6-.42-.92-.57a2.2 2.2 0 0 0-.96-.24c-.17-.02-.34 0-.57-.04s-.4-.15-.58-.23c-.32-.17-.62-.36-.9-.4a.6.6 0 0 0-.38.04l-.12.06-.15.06a.85.85 0 0 1-.32.07c-.45.04-.86-.11-1.15-.24-.24-.13-.54.02-.81.24-.28.21-.6.47-.96.57l-.04-.08c.3-.2.53-.47.78-.73.13-.13.28-.25.5-.36l.31-.1c.15-.03.26.02.34.04.37.1.69.19.98.12.07-.02.15-.02.22-.06l.1-.04.13-.07c.21-.08.47-.1.68-.08.45.08.77.32 1.07.49.15.08.3.17.42.19l.52.09a2.45 2.45 0 0 1 1.8 1.27zm-8 7.01a1.55 1.55 0 0 1 .84-.79 1.34 1.34 0 0 1 1.15 0v.09c-.17.1-.34.17-.5.23l-.44.17-.47.17a1.28 1.28 0 0 1-.57.13zm.58-2.36c.05-.17.11-.3.2-.39a1.06 1.06 0 0 1 1.08-.36l.02.09a1.4 1.4 0 0 1-.25.32l-.3.2c-.1.07-.21.12-.34.14a.85.85 0 0 1-.4 0z"/>
    </g>
    <path class="secondary" d="M76.08 131.87s-.17-.1-1-.17a2.69 2.69 0 0 0-1.77.49c-.21.17-.85.94-.72 1.08.12.15 1.61-.19 2.25-.12.64.06.96.17 1.17.25.2.07.07-1.53.07-1.53zm.02 2.47s-.2-.09-1.04-.06c-.88.02-1.58.55-1.77.76-.21.22-.75.92-.58 1.07.15.15 1.64-.26 2.3-.28a3.8 3.8 0 0 1 1.24.1c.21.05-.15-1.6-.15-1.6zm4.35 2.87c-.22.09-.54.24-1.07.64s-1.5 1.6-1.7 1.58c-.22-.02-.2-.92-.15-1.2a2.77 2.77 0 0 1 1-1.65c.68-.54.83-.4.83-.4s1.3.95 1.08 1.03z"/>
    <path d="M93.01 109.03c.21 1.35 1.43 2.37 1.22 4.03-.09.64-.9 1.64-1.18 2.22-.72 1.49-1.17 2-2.23 3.25-1.05 1.24-1.43 2.65-2.13 4.1a38.43 38.43 0 0 0-2.96 10.11c-.3 1.05-.13 4.1-2.45 3.96-.81-.04-1.51.15-2.13.58-.28.19-.53.49-1.05.1-.04-.04-.4-.5-.74-.68-.34-.17-.64-.17-.7-.17-.32-.08-.3-.68-.3-.68s-.45.36-.88.45c-.42.06-1.12 0-1.25-.24-.4-1.6-1.05-1.76-1.05-1.76.2-.07 0-.88.77-1.05.02-.38.06-.66-.32-1.47.09-.23.7-.96 1.51-.55.69.34 1.75.72 2.54.85.5-.42.72-.94 1.06-1.7.81-2.05 1.39-4.13 2.2-6.16.47-1.17 1.53-4.88 1.87-6.09.9-3.11.17-2.68-.6-5.81"/>
    <g stroke="none" fill="#000">
      <path d="M78.04 135.79c.02-.17.04-.3.1-.45.07-.15.15-.28.26-.4.1-.13.28-.22.43-.26a.9.9 0 0 1 .46-.04l-.1.02c.3-.1.62-.15.91-.1l.83.1c.26.04.52.04.8.04h.8l.02.07a2.09 2.09 0 0 1-.78.3c-.28.04-.58.04-.86.04l-.8-.05c-.26 0-.5.05-.7.13l-.05.02h-.09c-.08 0-.19 0-.25.05a.31.31 0 0 0-.2.12l-.14.22-.09.27-.55-.08zm1.57-2.26c-.23.13-.49.2-.76.21l-.8.02-.78-.08a4.95 4.95 0 0 1-.77-.17h-.02l-.04-.02-.08-.02-.11-.03-.21.03-.17-.54c.12-.04.27-.06.42-.06l.21.04.24.09-.07-.02.7.19.73.13.73.08c.25.02.49.04.74.1l.04.05zm-2.27-2.56a1.21 1.21 0 0 1 .27.77c.02.26-.02.49-.08.7h-.07a2.15 2.15 0 0 0-.15-.64l-.15-.25a.59.59 0 0 0-.19-.15l.37-.43z"/>
      <path d="M79.68 135.2c.17-.1.34-.12.5-.1a1.06 1.06 0 0 1 .5.2c.15.1.25.25.32.42.06.17.08.34.02.54l-.09.02-.61-.51-.3-.24-.17-.13-.17-.2zm-3-2.22.08.04.06.04.11.09.17.19c.09.13.15.27.2.42l.08.43.02.4h-.06l-.13-.38c-.07-.13-.1-.23-.2-.34a.9.9 0 0 0-.23-.26l-.13-.08-.06-.02h-.02s-.02 0 0 0l.1-.53zm5.36-.3c.05-.28.22-.51.36-.75.13-.21.26-.45.35-.68.1-.23.17-.49.25-.72l.24-.77.42.17c-.19.38-.45.72-.72 1.04l-.45.45a2.3 2.3 0 0 1-.51.38l.34-.5.34-.52.6-1.04c.06-.1.19-.15.32-.1.1.03.15.16.12.25l-.23.76c-.09.26-.21.52-.34.77-.15.24-.3.47-.5.68a3.83 3.83 0 0 0-.59.58zm-2.15-.47c-.3.23-.64.36-.96.47.22-.28.4-.53.51-.83l.45.36z"/>
    </g>
  </g>
</svg>
