<svg xmlns="http://www.w3.org/2000/svg" fill="#d7374a" stroke="#000" viewBox="50 50 200 200">
<metadata source="https://commons.wikimedia.org/wiki/File:Listel_0.svg" author="Eugenio Hansen, OFS" license="https://creativecommons.org/licenses/by-sa/4.0"/>
  <g id="ribbon5" stroke-width="3.5" transform="matrix(0.094,0,0,0.094,59.8,61.2)">
    <path d="M141.9 466.78s33.91-20.24 5.2-31.5c-28.67-11.27-52.14-2.25-67.8-22.52l13.04 47.27s49.57 22.5 49.57 6.75z" transform="matrix(1.06639 0 0 1.12479 -28.264 -203.357)"/>
    <path d="M718.8 616.84s38.1 10 13.48 27.57c-24.64 17.58-49.69 15.26-59.34 37.82l-.12-46.66s41.73-33.2 45.97-18.73z" transform="matrix(1.06639 0 0 1.12479 -28.264 -203.357)"/>
    <path fill="#000" fill-opacity="0.5" d="M718.8 616.84s38.1 10 13.48 27.57c-24.64 17.58-49.69 15.26-59.34 37.82l-.12-46.66s41.73-33.2 45.97-18.73z" transform="matrix(1.06639 0 0 1.12479 -28.264 -203.357)"/>
    <path d="M61.56 454.38c11-18.3 29.33-3.4 48.9-1.7s32.05 13.52 47.7-5.06c0 0-8.57 27.01-16.39 43.88-7.82 16.9-105.64 5.09-80.2-37.13z" transform="matrix(1.06639 0 0 1.12479 -28.264 -203.357)"/>
    <path fill="#000" fill-opacity="0.5" d="M61.56 454.38c11-18.3 29.33-3.4 48.9-1.7s32.05 13.52 47.7-5.06c0 0-8.57 27.01-16.39 43.88-7.82 16.9-105.64 5.09-80.2-37.13z" transform="matrix(1.06639 0 0 1.12479 -28.264 -203.357)"/>
    <path d="M227.87 519.06s27.37-11.35 15.64-28.37c-11.73-17-37.17-7.58-82.15-5.67-45 1.88-109.56-9.46-95.86-35.94 0 0-7.84 3.79-13.7 41.61a4097.56 4097.56 0 01-13.68 81.32s1.94 11.34 17.59 20.82c15.65 9.45 68.47 15.13 113.47 7.55 0 0 60.65-60.53 58.69-81.32z" transform="matrix(1.06639 0 0 1.12479 -28.264 -203.357)"/>
    <path d="M645.24 641.35c15.21 17.35 29.53-2.24 48.25-7.95 18.71-5.72 27.34-20.69 47.14-3.95 0 0-14.21-27.32-25.96-43.82-11.74-16.49-104.53 15.67-69.43 55.72z" transform="matrix(1.06639 0 0 1.12479 -28.264 -203.357)"/>
    <path d="M789.1 542.1s29.23 5.36 21.46 23.96c-7.82 18.59-34.72 14.62-79.14 21.8-44.4 7.16-105.07 30.88-85.96 53.42 0 0-8.46-2.05-22.38-37-13.94-34.9-31-74.86-31-74.86s-.55-11.21 12.72-23.38c13.24-12.15 63.68-28.09 109.3-29.85 0 0 72.41 45.65 74.99 65.92z" transform="matrix(1.06639 0 0 1.12479 -28.264 -203.357)"/>
    <path fill="#000" fill-opacity="0.5" d="M789.1 542.1s29.23 5.36 21.46 23.96c-7.82 18.59-34.72 14.62-79.14 21.8-44.4 7.16-105.07 30.88-85.96 53.42 0 0-8.46-2.05-22.38-37-13.94-34.9-31-74.86-31-74.86s-.55-11.21 12.72-23.38c13.24-12.15 63.68-28.09 109.3-29.85 0 0 72.41 45.65 74.99 65.92z" transform="matrix(1.06639 0 0 1.12479 -28.264 -203.357)"/>
    <path d="M147.52 526.45s-9.77-19.4 17.6-19.4c27.4 0 81.44 11.08 81.44-6.38l-14.91 43.23s-62.6 5.83-84.13-17.45z" transform="matrix(1.06639 0 0 1.12479 -28.264 -203.357)"/>
    <path fill="#000" fill-opacity="0.5" d="M147.52 526.45s-9.77-19.4 17.6-19.4c27.4 0 81.44 11.08 81.44-6.38l-14.91 43.23s-62.6 5.83-84.13-17.45z" transform="matrix(1.06639 0 0 1.12479 -28.264 -203.357)"/>
    <path d="M98.78 625.4s-4.82 15.53 36.19 27.16c41 11.63 168.86 17.46 303.95-19.4 108.36-29.55 318.27-88.46 340.13-85.35 31.82 4.51 33.79 17.46 33.79 17.46s3.46-7.33-7.08-24.36c-10.55-17.03-65.3-93.99-65.3-93.99s-16.88-19.4-57.9-15.51c-41.01 3.88-253.28 60.14-330.47 81.48-77.2 21.34-151.97 19.4-180.92 13.58-28.96-5.82-17.61-16.44-17.61-16.44S139.8 505.12 98.8 625.4z" transform="matrix(1.06639 0 0 1.12479 -28.264 -203.357)"/>
  </g>
</svg>
