<svg xmlns="http://www.w3.org/2000/svg" fill="#d7374a" stroke="#000" viewBox="50 50 200 200">
<metadata source="https://commons.wikimedia.org/wiki/File:Listel_4.svg" author="Eugenio Hansen, OFS" license="https://creativecommons.org/licenses/by-sa/4.0"/>
  <g id="ribbon8" stroke-width="5" transform="translate(63.2 74) scale(0.07)">
    <path d="M526 526.5c207.3-2.2 348.1-133.2 348.1-133.2 2.2 8.8 44.9 41.5 44.9 41.5s4.3 18.5 27.7 8.8c31.4-12.9 42.8-69.7 42.8-69.7 0 6.6 51.3 28.2 51.3 28.2-2.1-19.4-2.1-32.6 0-54.3 2.2-22 4-19.8-40.6-67.9-44.9-48-51.3-2.2-55.6-8.8 0 0-4.3-6.2-19.1-19.4-15.1-13.2-57.8-54.7-87.6-21.7C704.7 375.4 562.3 380.5 526 380.5c-36.2 0-178.3-5.1-311.5-150.5-29.8-33-72.5 8.5-87.6 21.7-14.8 13.2-19.1 19.4-19.1 19.4-4.3 6.6-10.7-39.2-55.6 8.8C7.3 328 9.4 325.8 11.6 347.8c2.1 21.7 2.1 34.9 0 54.3 0 0 51.3-21.6 51.3-28.2 0 0 11.1 57.8 42.8 69.7 20.3 7.5 27.7-8.8 27.7-8.8s42.7-32.7 44.9-41.5c0 0 140.8 135.4 347.7 133.2z"/>
    <path fill="#000" fill-opacity="0.5" stroke="none" d="M870.9 396.3l3.2-3c2.2 8.8 44.9 41.5 44.9 41.5l.3.8c1.6-6.6 4.3-17.1 6.8-23.8 3.7-10.3 22-28.3 35.3-48.3s11.4-41.3 11.4-41.3-8.2-9.7-14.6-9c-6.3.6-20.2 11.6-39.7 30.3-19.6 18.7-48 52.2-48 52.2l.4.6zm118.5-22.1l.1-.3c0 6.6 51.3 28.2 51.3 28.2-2.1-19.4-2.1-32.6 0-54.3.9-9.6 1.8-14.5-1.1-21-2.7-1-6.7-2.3-10.8-2.6-6.9-.7-14.5 1.2-25.8 10.9-9.6 8.1-12.9 31.8-13.7 39.1zM11.8 328.9c-1.9 5.5-1 10.4-.2 18.9 2.1 21.7 2.1 34.9 0 54.3 0 0 43.3-18.3 50.4-26.3-.5-5.6-2.9-28.2-10.7-35.5-8.8-8.4-14.5-16.1-27.7-14.2-4.2.6-8.2 1.6-11.8 2.8zm123.6 104.3c8.6-6.6 41-32.2 42.8-39.9 0 0 2.1 2.1 6.2 5.6l.1-1.2s-20.8-19.4-54.3-55.5c-33.4-36.1-35.9-27.7-42.3-29-6.3-1.3-8.2 8.4-8.2 8.4s0 13.5 3.2 23.2 16.4 32.2 35.3 54.8c19 22.6 17.1 33.5 17.1 33.5l.1.1z"/>
    <path fill="none" d="M972.2 320.5c-10.4-13.2-16.9-11-51 26-34.1 37.1-34.1 34.9-47.1 45.9m164.6-65.3c-10.8-4.4-38.5-7.2-49.2 47.1m-43.7-100.9c8.3 8.8 20.3 25.2 24.3 36.2 4.3 11 6.4 30.4-14.8 63.1-21.5 33-36.3 39.3-36.3 61.3M80.2 321.4c10.4-12.9 16.9-11 51 26.4 34.1 37.1 34.1 34.9 47.1 45.5M13.7 328c10.8-4.4 38.5-8.8 49.2 45.9m44.9-102.8c-8.6 8.8-21.5 28.6-25.8 39.3-4 11-6.1 30.8 15.1 63.5 21.5 32.6 36.3 39.2 36.3 60.9"/>
  </g>
</svg>
