<svg xmlns="http://www.w3.org/2000/svg" fill="#d7374a" stroke="#000" viewBox="50 50 200 200">
  <metadata source="http://wappenwiki.org/images/f/f2/Mohyla_Ancient.svg" license="https://creativecommons.org/licenses/by-nc-sa/3.0"/>
  <g id="sabresCrossed" stroke-width=".342">
    <g transform="translate(200 0) scale(-1 1)">
      <path class="secondary" d="M132.304 137.367s-12.86-6.794-28.17-25.866C90.66 94.73 83.991 78.6 83.991 78.6l-4.845 3.317c.011 0 20.656 51.334 53.158 55.45z"/>
      <path d="M76.455 66.391c-2.063-.335-2.192-.09-3.135 1.619 0 0 5.5 10.745 5.985 11.879.835 1.858 3.825-.631 3.352-1.722-.315-.466-6.202-11.776-6.202-11.776z"/>
      <path d="M68.988 65.388c-.057-1.049.502-2.223 1.528-2.782.935-.513 2.177-.912 3.1-.41 1.05.57 2.315 3.226 3.033 4.56-1.37-.189-2.6.624-3.158 1.584-.376-.73-1.163-2.302-2.109-2.234-.946.057-.74.73-1.322.707-.513-.034-1.015-.604-1.072-1.425z"/>
      <path d="M82.11 81.336c-1.14.593-4.8 2.417-5.723 2.748-1.756.604-3.534.547-4.344-1.026-.547-1.072-.216-2.04.65-2.485.582-.297 1.254-.308 1.573.319.183.342.103.467.069.718-.046.285-.148.376.011.684.24.467.878.4 1.254.32.445-.092 1.402-.525 2.04-.844 1.449-.719 3.447-2.441 3.447-2.441.57-.297 4.602-2.12 5.514-2.461 1.756-.593 3.534-.548 4.344 1.026.547 1.06.216 2.04-.65 2.485-.582.308-1.254.308-1.573-.32-.171-.341-.103-.467-.069-.718.046-.296.148-.387-.011-.683-.24-.468-.878-.4-1.254-.32-.445.092-1.402.525-2.04.844-1.449.718-3.238 2.154-3.238 2.154z"/>
      <g fill="none">
        <path d="M132.304 137.367c-5.506-2.2-11.218-5.517-17.317-10.34-9.302-7.364-19.22-19.037-30.324-40.447-.456-.889-1.448-2.781-1.915-3.705"/>
        <line x1="82.771" x2="84.367" y1="82.875" y2="79.82"/>
        <line x1="82.771" x2="79.67" y1="82.875" y2="82.75"/>
        <path d="M81.973 76.936c-1.436-.635-2.94.45-3.272 1.687"/>
        <path d="M80.958 74.952c-1.436-.445-3.008.486-3.272 1.688"/>
        <path d="M79.932 72.98c-1.419-.514-2.956.485-3.272 1.687"/>
        <path d="M78.848 70.997c-1.336-.548-3.022.614-3.203 1.687"/>
        <path d="M77.822 69.041c-1.449-.503-2.898.499-3.116 1.67"/>
      </g>
    </g>
    <g>
      <path class="secondary" d="M132.304 137.367s-12.86-6.794-28.17-25.866C90.66 94.73 83.991 78.6 83.991 78.6l-4.845 3.317c.011 0 20.656 51.334 53.158 55.45z"/>
      <path d="M76.455 66.391c-2.063-.335-2.192-.09-3.135 1.619 0 0 5.5 10.745 5.985 11.879.835 1.858 3.825-.631 3.352-1.722-.315-.466-6.202-11.776-6.202-11.776z"/>
      <path d="M68.988 65.388c-.057-1.049.502-2.223 1.528-2.782.935-.513 2.177-.912 3.1-.41 1.05.57 2.315 3.226 3.033 4.56-1.37-.189-2.6.624-3.158 1.584-.376-.73-1.163-2.302-2.109-2.234-.946.057-.74.73-1.322.707-.513-.034-1.015-.604-1.072-1.425z"/>
      <path d="M82.11 81.336c-1.14.593-4.8 2.417-5.723 2.748-1.756.604-3.534.547-4.344-1.026-.547-1.072-.216-2.04.65-2.485.582-.297 1.254-.308 1.573.319.183.342.103.467.069.718-.046.285-.148.376.011.684.24.467.878.4 1.254.32.445-.092 1.402-.525 2.04-.844 1.449-.719 3.447-2.441 3.447-2.441.57-.297 4.602-2.12 5.514-2.461 1.756-.593 3.534-.548 4.344 1.026.547 1.06.216 2.04-.65 2.485-.582.308-1.254.308-1.573-.32-.171-.341-.103-.467-.069-.718.046-.296.148-.387-.011-.683-.24-.468-.878-.4-1.254-.32-.445.092-1.402.525-2.04.844-1.449.718-3.238 2.154-3.238 2.154z"/>
      <g fill="none">
        <path d="M132.304 137.367c-5.506-2.2-11.218-5.517-17.317-10.34-9.302-7.364-19.22-19.037-30.324-40.447-.456-.889-1.448-2.781-1.915-3.705"/>
        <line x1="82.771" x2="84.367" y1="82.875" y2="79.82"/>
        <line x1="82.771" x2="79.67" y1="82.875" y2="82.75"/>
        <path d="M81.973 76.936c-1.436-.635-2.94.45-3.272 1.687"/>
        <path d="M80.958 74.952c-1.436-.445-3.008.486-3.272 1.688"/>
        <path d="M79.932 72.98c-1.419-.514-2.956.485-3.272 1.687"/>
        <path d="M78.848 70.997c-1.336-.548-3.022.614-3.203 1.687"/>
        <path d="M77.822 69.041c-1.449-.503-2.898.499-3.116 1.67"/>
      </g>
    </g>
  </g>
</svg>
