<svg xmlns="http://www.w3.org/2000/svg" fill="#d7374a" stroke="#000" viewBox="50 50 200 200">
  <metadata source="https://commons.wikimedia.org/wiki/File:Imbalanced_justice_scale_silhouette.svg" license="https://creativecommons.org/publicdomain/zero/1.0"/>
  <g id="scale" stroke-width=".4">
    <path d="M99.69 72.49c-1.92-1.12-5.95-1.58-7.65-1.58-2.26 0-3.44.26-6.16 1.77-2.26 1.25-2.89 1.79-4.46 1.44-1.58-.34-2.34-1.15-3.16-1.43-.82-.27-2.06.62-2.13.88-.09.29-.36-.07-.43-.28-.07-.2-1.62.68-1.55 1.23.07.54 1.4 2.05 1.6 1.4.19-.62.45-.67.7-.43.23.24 1.13.73 1.27 1.7.13.95-.35 1.23-.7.95-.34-.27-.47-.4-.54-.68-.07-.27-1.5.42-1.3.62.2.2.61 1.5 1.1 1.64.47.14.48.76.48 1.03 0 .28.82.22.82.15l.06-.97s1.59-.14 1.52-2.13c-.07-1.99-1.17-2.6-.7-2.74.49-.14 2.89 1.1 4.95 1.16 2.06.07 4.84-1.99 8.55-1.99 2.75 0 5.52 1.29 6.53 1.95l3.16.73c1.01-.66 3.3-2.68 6.05-2.68 3.7 0 6.5 2.05 8.55 1.98 2.06-.07 4.46-1.3 4.94-1.16.48.13-.62.75-.7 2.74-.06 1.99 1.53 2.12 1.53 2.12l.06.97c0 .07.82.13.82-.14 0-.28 0-.9.49-1.03.48-.14.88-1.44 1.09-1.64.2-.2-1.23-.9-1.3-.62-.07.27-.2.4-.55.68-.34.27-.83 0-.69-.96s1.03-1.46 1.28-1.7c.24-.24.49-.18.67.44.2.64 1.55-.86 1.62-1.41.07-.55-1.49-1.43-1.56-1.23-.06.21-.33.58-.42.28-.08-.26-1.31-1.14-2.14-.87-.82.28-1.57 1.09-3.15 1.43-1.58.35-2.2-.19-4.47-1.44-2.71-1.5-3.9-1.77-6.17-1.77-1.7 0-2.8.4-4.7 1.52z"/>
    <g class="secondary" stroke-width=".32">
      <g>
        <path d="M63.77 114.36c8.3 4.65 18.79 4.4 27 0 .68-.4-8.97-1.47-13.54-1.47-8.16 0-13.6.81-13.46 1.47zm13.64-35.23a6.3 6.3 0 0 1 0 1.54s.97 0 .97.21c0 .23-.12 4.28.23 4.68.35.4.57.32.74.1.16-.2.64-.18.7-.07.05.1.17.77-.18 1-.48.3-1.68.3-1.78-.87-.11-1.16-.1-2.15-.56-2.15-.16 0-.15.55-.15 1.17 0 .62.05.78.16.92.1.13.08 1.43 0 1.43h-.81c-.08 0-.1-1.3 0-1.43.1-.14.16-.3.16-.92 0-.62.08-1.17-.08-1.17-.5 0-.43.89-.54 2.05-.1 1.16-1.22 1.2-1.76 1-.54-.19-.28-.97-.23-1.08.07-.16.39-.02.59.1.23.14.46.3.81-.1.35-.41.38-4.43.38-4.66 0-.22.89-.2.89-.2.02-.52.1-1.04 0-1.55.23.12.35.07.46 0zm-.25 1.86c-.26 0-.47.05-.47.1v.73c0 .06.21.1.47.1s.47-.04.47-.1v-.73c0-.05-.21-.1-.47-.1z"/>
        <path d="M77 87.04c.5-.47.21-.13.24.3l-.1 30.18M75.3 85.8c.06.02.08.19.03.37-.04.17-.14.37-.24.67-3.21 9.67-6.73 19.23-10.1 28.84M78.87 85.8c-.07.02-.08.19-.03.37.04.17.14.37.24.67 3.21 9.67 6.73 19.23 10.1 28.84"/>
        <path d="M63.77 114.44c9.05 4 18.79 3.2 27 0-.18.93-4.82 6.66-13.86 6.66-8.92 0-13.14-6.01-13.14-6.66z"/>
      </g>
      <g>
        <path d="M122.22 79.16a6.3 6.3 0 0 0 0 1.54s-.98 0-.98.21c0 .23.13 4.28-.22 4.68-.36.4-.58.32-.74.1-.16-.2-.64-.18-.7-.07-.05.1-.17.77.18 1 .48.3 1.67.3 1.78-.86.1-1.17.1-2.16.55-2.16.17 0 .16.55.16 1.17 0 .62-.06.78-.17.92-.1.13-.08 1.43 0 1.43h.82c.08 0 .1-1.3 0-1.43-.11-.14-.17-.3-.17-.92 0-.62-.07-1.17.09-1.17.49 0 .43.89.53 2.05.11 1.16 1.23 1.2 1.77 1 .54-.19.28-.97.23-1.08-.07-.16-.4-.02-.6.1-.22.14-.45.3-.8-.1-.35-.41-.39-4.43-.39-4.66 0-.22-.88-.2-.88-.2-.03-.52-.1-1.04 0-1.55-.24.13-.35.07-.46 0zm.25 1.86c.26 0 .46.05.46.1v.73c0 .06-.2.1-.46.1s-.47-.04-.47-.1v-.73c0-.05.2-.1.47-.1zm-13.28 33.37c8.28 4.65 18.78 4.4 27 0 .68-.4-8.98-1.47-13.55-1.47-8.16 0-13.6.81-13.45 1.47z"/>
        <path d="M122.57 86.93c-.42.26-.12-.23-.15.19l.07 30.43m-1.77-31.72c.07.02.08.19.03.37-.04.18-.14.37-.24.67-3.21 9.67-6.73 19.23-10.1 28.84m13.88-29.88c-.06.02-.08.19-.03.37.04.18.14.37.24.67 3.21 9.67 6.73 19.23 10.11 28.84"/>
        <path d="M109.19 114.47c9.04 4 18.78 3.2 27 0-.19.93-4.83 6.66-13.87 6.66-8.92 0-13.13-6.01-13.13-6.66z"/>
      </g>
    </g>
    <g>
      <path d="M84.97 134.46s-.1-1.62 2.38-1.66c2.47-.03 24.08 0 25.7 0 1.61 0 2.01 1.1 2 1.67-.04 1.38-11.15 4.25-11.16 4.19l-14.73-1.18c-1.4-1-3.38-.99-4.2-3.02z"/>
      <path d="M84.98 134.27v3.15c-.1 3.33 30.07 3.5 30.06 0v-3.15c.03 3.5-30.12 3.51-30.06 0z"/>
      <path d="M86.94 132.1c.04-.57 4.07-2.06 12.66-2.06 8.63 0 13.48 1.19 13.48 2.1 0 .23-2.66 2.04-2.66 2.04l-11.1 1.07-12.21-1.99z"/>
      <path d="M86.94 132.02v2.29c.05 2.1 26.14 2.4 26.13 0v-2.29c0 2.27-26.1 2.24-26.13 0z"/>
      <path d="M105.87 132.25s-3.68-.38-4.56-.97c-.87-.58-.68-.63-1.57-.63-.9 0-.7.05-1.58.63-.88.59-4.56.97-4.56.97"/>
      <path d="M96.84 128.8h6.34c.05.26-2.02 2.08-2.7 2.04h-1.3c-.76.02-2.35-1.94-2.34-2.04zm1.83-61.44v-1.39c.96-.42 1.71-.93 2.68 0v1.26z"/>
      <path d="m99.92 67.03-.32.02c-.12 0-.23.03-.34.05-.66.11-1.12.38-1.12.72v6.12c0 .33.46.6 1.12.72l.34.05.32.01h.13l.4-.01c.82-.07 1.43-.39 1.43-.77v-6.12c0-.38-.61-.7-1.42-.77h-.04l-.32-.01zm-1.53 60.65V77.1l3.24-.02-.02 50.93-3.22-.34z"/>
      <path d="M96.84 128.8h6.34c.05-.25-2.02-2.08-2.7-2.04h-1.3c-.76-.02-2.35 1.94-2.34 2.04zm1.47-51.77h3.32s-.54-.91-1.67-.91-1.65.87-1.65.91zm0-1.8h3.4s-.62-.97-1.75-.97-1.65.93-1.65.97z"/>
      <path d="M98.3 73.38h3.4s-.6.92-1.74.92a1.87 1.87 0 0 1-1.65-.92zm.78-9.46v1.03l-.08.03h-.02c-.4.07-.96.21-1.14.42-.07.08-.06.13 0 .2.1.14 1.04.58 2.1.58h.13c1.05 0 1.99-.44 2.1-.58.09-.11.06-.13 0-.2a2.99 2.99 0 0 0-1.14-.42h-.01l-.09-.03v-1.03z"/>
      <path d="M102.25 62.3a2.25 2.25 0 0 1-2.24 2.23 2.25 2.25 0 0 1-2.24-2.24 2.25 2.25 0 0 1 2.24-2.24 2.25 2.25 0 0 1 2.24 2.24z"/>
      <path d="M102.56 71.73c0-.7-.57-1.28-1.28-1.28h-2.55c-.7 0-1.27.58-1.27 1.28v5.06c0 .7.57 1.28 1.27 1.28h2.55c.7 0 1.28-.57 1.28-1.28z"/>
    </g>
  </g>
</svg>
