<svg xmlns="http://www.w3.org/2000/svg" fill="#d7374a" stroke="#000" viewBox="50 50 200 200">
<metadata source="https://commons.wikimedia.org/wiki/File:Blason_ville_be_Opdorp.svg" author="Wikibelgiaan" license="https://creativecommons.org/licenses/by-sa/3.0"/>
  <g id="scalesHanging" stroke-width="1.5" transform="matrix(0.208,0,0,0.208,38,66)">
    <path stroke-width="1" d="M168.9 91.48c-1.9.58-2.2 2.54 0 2.77 6.3-1.04 8 1.74 7.7 9.35-.1 5.2-1.4 8.2-5.2 8.8-4.1.6-5.8-3.2-5.2-7 0-2.7-3-2.4-3.2.8 0 7.5 4.2 9.2 8 9.2 5.5 0 8.8-4.8 8.6-9 0-3.2-.1-6.1-.1-9.14-.1-2.89-4.4-7.28-10.6-5.78z"/>
    <path stroke-width="1" d="M427.8 91.48c1.9.58 2.3 2.54 0 2.77-6.3-1.04-8 1.74-7.7 9.35.1 5.2 1.4 8.2 5.2 8.8 4.1.6 5.8-3.2 5.2-7 0-2.7 3-2.4 3.2.8 0 7.5-4.2 9.2-8 9.2-5.5 0-8.8-4.8-8.6-9 0-3.2.1-6.1.1-9.14.1-2.89 4.4-7.28 10.6-5.78z"/>
    <path d="M239.2 94.82c-29.2 0-45.7 3.88-59.3 3.88v6.8c13.3 0 41.5 3.8 59.3 3.9 17.8.1 59.3-3.9 59.3-3.9s41.6 4 59.3 3.9c17.8-.1 46-3.9 59.3-3.9v-6.81c-13.6 0-30.1-3.87-59.3-3.87-29.2 0-59.3 3.87-59.3 3.87s-30.1-3.89-59.3-3.87z"/>
    <path d="M308.9 73.47c0 14.56-5.9 21.31-10.4 21.31s-10.4-6.75-10.4-21.31c0-14.56 5.9-41.02 10.4-41.02s10.4 26.48 10.4 41.03z"/>
    <path d="M310.7 102.1a12.1 11.16 0 11-24.2 0 12.1 11.16 0 1124.2 0z"/>
    <path d="M306.7 102.1a8.3 7.66 0 11-16.6 0 8.3 7.66 0 0116.6 0z"/>
    <path d="M298.4 19.76a9.67 8.36 0 100 16.71 9.67 8.36 0 000-16.71zm0 4.92a3.97 3.43 0 110 6.86 3.97 3.43 0 010-6.86z"/>
    <path d="M235.1 256.6c0 12.7-12.3 24.5-32.3 30.8-20 6.3-44.6 6.3-64.6 0-20-6.4-32.3-18.1-32.2-30.8h64.5z"/>
    <path d="M170.5 111.8l-64.4 144.6"/>
    <path d="M170.4 111.7l64.7 144.8"/>
    <path d="M491.1 256.6c0 12.7-12.3 24.5-32.3 30.8-20 6.3-44.6 6.3-64.6 0-20-6.4-32.3-18.1-32.2-30.8h64.5z"/>
    <path d="M234.8 255.6c0 4.1-28.9 7.4-64.6 7.4-35.7 0-64.6-3.3-64.6-7.4 0-4 28.9-7.3 64.6-7.3 35.7 0 64.6 3.3 64.6 7.3z"/>
    <path d="M170.5 112.3l.1 150.5"/>
    <path d="M426.8 111.8l-64.4 144.6"/>
    <path d="M426.6 111.7l64.7 144.8"/>
    <path d="M491 255.6c0 4.1-28.9 7.4-64.6 7.4-35.6 0-64.5-3.3-64.5-7.4 0-4 28.9-7.3 64.5-7.3 35.7 0 64.6 3.3 64.6 7.3z"/>
    <path d="M426.8 112.3l.1 150.6"/>
  </g>
</svg>
