<svg xmlns="http://www.w3.org/2000/svg" fill="#d7374a" stroke="#000" viewBox="50 50 200 200">
  <metadata source="http://wappenwiki.org/images/c/c0/Arch-Chamberlain.svg" license="https://creativecommons.org/licenses/by-nc-sa/3.0"/>
  <g id="sceptre" stroke-width=".29">
    <path d="M101.27 138.35c0 .804-.56 1.451-1.255 1.451s-1.255-.647-1.255-1.45c0-.804.559-.863 1.255-.863s1.254.06 1.254.863zm3.988-68.776a3.303 3.303 0 0 0-.823-2.077c-1-1.068-3-1.127-4.43-.804-1.43-.323-3.43-.264-4.43.804a3.332 3.332 0 0 0-.823 2.077 6.458 6.458 0 0 0 .343 2.235c.128.402.284.803.559 1.127.127.147.284.264.402.421.411.52.46 1.372 1.068 1.617l2.842.725v.01l.03-.01.029.01v-.01l2.842-.725c.617-.245.666-1.097 1.068-1.617.117-.157.274-.274.402-.421.274-.314.43-.725.558-1.127a6.037 6.037 0 0 0 .363-2.235zm-2.529-5.243c.343.353.784.686 1.265.794.421.098 1.068.137 1.42-.157-.725-1.303.853-1.822 1.363-.94.304.529.039 1.127-.549 1.509a3.009 3.009 0 0 1-1.96.323 2.156 2.156 0 0 1-.549-.196c-.5-.245-.97-.588-1.225-1.078m-5.321-.255c-.343.353-.784.686-1.264.794-.422.098-1.069.137-1.421-.157.725-1.303-.853-1.822-1.363-.94-.303.529-.039 1.127.55 1.509a3.009 3.009 0 0 0 1.96.323 2.156 2.156 0 0 0 .548-.196c.5-.245.97-.588 1.225-1.078"/>
    <path d="M99.368 64.116c-3.136 3.116-1.891 6.899-4.655 8.996-1.362 1.03-3.89 1.235-5.018-.411-.51-.745 1.353.48 2.656-1.098.559-.725.177-1.617-.059-2.185-.333-.794-.264-1.94.412-2.578.804-.754 1.735-.843 2.244-.588.765-.343 2.048-.676 2.235-2.126m3.469-.01c3.136 3.116 1.891 6.899 4.655 8.996 1.362 1.03 3.89 1.235 5.017-.411.51-.745-1.352.48-2.655-1.098-.559-.725-.177-1.617.058-2.185.334-.794.265-1.94-.411-2.578-.804-.754-1.735-.843-2.244-.588-.765-.343-2.049-.676-2.235-2.126"/>
    <g stroke="none" fill="#000">
      <path d="M105.14 66.115c.216.118.422.235.618.392.098.069.186.157.274.245l.235.284c.147.206.245.431.304.676.059.245.059.49.04.726-.04.48-.187.93-.295 1.391-.049.226-.098.46-.078.696a.872.872 0 0 0 .284.617.882.882 0 0 1-.323-.617c-.03-.235 0-.48.039-.706.078-.47.206-.92.215-1.381.01-.226-.01-.461-.068-.677s-.167-.411-.304-.588l-.108-.127-.117-.118c-.089-.068-.167-.147-.265-.205a3.489 3.489 0 0 0-.588-.334l.137-.274z"/>
    </g>
    <path d="M103.357 67.634c-.647-.95-1.176-1.48-1.323-2.058-.147-.568-.157-.98-.157-1.578l-1.872.079-1.872-.079c-.01.598-.01 1.01-.157 1.578-.147.568-.793 1.343-1.323 2.058-.196.255-.323.892-.323 1.235-.03 1.274.588 2.322 1.392 3.214.411-.362.627-1.058.803-1.617-.166 1.137.608 2.352 1.48 2.93.872-.578 1.646-1.793 1.48-2.93.166.559.392 1.255.803 1.617.804-.892 1.421-1.842 1.392-3.116 0-.343-.137-1.059-.323-1.333zm1.685 68.15c0 1.332-1.754 1.861-5.037 1.861s-5.037-.539-5.037-1.862 1.754-2.215 5.037-2.215 5.037.882 5.037 2.215zm-.862-31.939c0-3.989-2.538-9.075-2.538-27.342h-3.264c0 18.267-2.538 23.353-2.538 27.342 0 3.254 1.352 6.37 4.155 6.41h.04c2.802-.04 4.145-3.156 4.145-6.41z"/>
    <g>
      <path d="M101.975 75.572c.078.52.196 1.039.44 1.5.246.46.687.99 1.314 1.077 0 0-.206-.588.127-.97a.921.921 0 0 1 .873-.333c.705.059 1.283.637 1.41 1.323a1.607 1.607 0 0 1-.881 1.735 2.087 2.087 0 0 1-1.745.01 3.587 3.587 0 0 1-1.381-1.128 5.194 5.194 0 0 1-1.059-2.557"/>
    </g>
    <g>
      <path d="M98.045 75.572c-.078.52-.196 1.039-.441 1.5-.245.46-.686.99-1.313 1.077 0 0 .206-.588-.128-.97a.921.921 0 0 0-.872-.333c-.705.059-1.284.637-1.411 1.323a1.607 1.607 0 0 0 .882 1.735 2.087 2.087 0 0 0 1.744.01 3.587 3.587 0 0 0 1.382-1.128 5.194 5.194 0 0 0 1.059-2.557"/>
    </g>
    <path d="M103.964 123.631c0 4.645-1.676 8.409-3.959 8.409-2.283 0-3.96-3.764-3.96-8.409s1.677-8.408 3.96-8.408 3.96 3.763 3.96 8.408zm.353-10.829c0 1.137-1.049 2.058-4.302 2.058s-4.302-.921-4.302-2.058 1.048-2.058 4.302-2.058 4.302.921 4.302 2.058zm-.745 20.6c0 .872-1.872.892-3.567.892s-3.567-.03-3.567-.892c0-.872 1.42-1.284 3.567-1.284 2.156.01 3.567.421 3.567 1.284z"/>
    <path d="M102.896 116.908h-5.772c-.598 0-1.088-.49-1.088-1.087v-.167c0-.598.49-1.088 1.088-1.088h5.772c.598 0 1.088.49 1.088 1.088v.167a1.078 1.078 0 0 1-1.088 1.087zm-.284-5.801h-5.194a.98.98 0 0 1-.98-.98v-.147a.98.98 0 0 1 .98-.98h5.194a.98.98 0 0 1 .98.98v.147a.98.98 0 0 1-.98.98zm-.431-34.486h-4.352a.745.745 0 0 1-.744-.745c0-.412.156-.745.568-.745h4.694c.412 0 .569.333.569.745a.725.725 0 0 1-.735.745z"/>
    <path d="M103.23 75.474H96.8c-.43 0-.784-.333-.784-.745 0-.411.069-.745.5-.745h6.988c.43 0 .5.334.5.745a.757.757 0 0 1-.775.745zm-.089-10.76s-1.156.196-3.126.196c-1.98 0-3.126-.196-3.126-.196-.55-.089-.735-.53-.735-.931 0-.412.382-.735.793-.735h6.145c.412 0 .794.333.794.735-.01.411-.196.823-.745.93zm-.843 67.747h-4.576a.735.735 0 0 1-.735-.735v-.127c0-.461.372-.824.823-.824h4.39c.46 0 .823.373.823.824v.127a.725.725 0 0 1-.725.735z"/>
    <path d="M103.22 62.607c0 .607-.598.793-3.205.793-2.617 0-3.205-.186-3.205-.793s1.117-1.078 3.205-1.078c2.087 0 3.204.48 3.204 1.078z"/>
    <path d="M98.878 61.107a1.127 1.127 0 0 1 2.254 0c0 .618-.51.735-1.127.735-.617.01-1.127-.108-1.127-.735z"/>
    <g stroke="none" fill="#000">
      <polygon points="100.015 69.868 99.868 64.812 100.162 64.812"/>
      <path d="M95.007 66.38a3.806 3.806 0 0 0-.588.333c-.098.059-.176.137-.265.206l-.117.117-.108.128a1.862 1.862 0 0 0-.304.588 2.205 2.205 0 0 0-.068.676c.02.46.137.921.215 1.382.04.235.069.47.04.705a.892.892 0 0 1-.324.618.833.833 0 0 0 .284-.618c.02-.235-.03-.46-.078-.696-.108-.46-.245-.911-.294-1.391a2.58 2.58 0 0 1 .039-.725 1.764 1.764 0 0 1 .304-.677c.068-.107.157-.196.235-.284a4.096 4.096 0 0 1 .892-.637l.137.275z"/>
      <polygon points="101.348 70.486 101.397 69.418 101.642 70.456"/>
      <polygon points="98.378 70.456 98.623 69.418 98.672 70.486"/>
    </g>
  </g>
</svg>
