<svg xmlns="http://www.w3.org/2000/svg" fill="#d7374a" stroke="#000" viewBox="50 50 200 200">
  <metadata source="http://wappenwiki.org/images/8/8d/Jurisic.svg" license="https://creativecommons.org/licenses/by-nc-sa/3.0"/>
  <g id="scorpion" stroke-width=".53">
    <path d="M123.57 81.56a5.1 5.1 0 0 1 3.9-1.09c.46.06 1.06.37 1 .57-.06.19-.73.1-1.05.05a3.5 3.5 0 0 0-2.8.72c-.16.12-.5.25-.67.33-.2.1-.37-.1-.37-.1zm-8.45-2c-.18.24.09 1.07-.42 1.44-.3.21.44.63.8.63.16 0 .29-.28.59-.58.35-.38.84-.8.82-.8-1.67.13-1.58-1-1.8-.7zm11.2 9.8c1.66-.37 3.02-.35 4.51.62.48.3.92.96.76 1.14-.17.18-.83-.3-1.14-.53-1.04-.72-2.26-.58-3.12-.44-.24.06-.65.02-.91 0-.25 0-.34-.3-.34-.3zm-3.7 13.22c1.65-.48 2.99-.53 4.54.35.49.28.96.92.8 1.1-.15.19-.7-.25-1.03-.47-1.08-.66-2.41-.44-3.28-.22-.24.07-.65.05-.91.07-.25 0-.35-.29-.35-.29zm-3.52 18.87c1.3 1.12 2.5 1.74 4.27 1.58.57-.05 1.27-.42 1.2-.65s-.76-.05-1.15 0c-1.24.14-2.37-.62-3.06-1.16-.2-.16-.58-.32-.79-.44-.23-.1-.44.1-.44.1zM77.63 63.89a15.56 15.56 0 0 1 3.2-3.57c.51-.33.32.2.32.2s-1.36 1.79-1.73 2.21a6.8 6.8 0 0 0-1.39 3.1c-.03 1.16.13 1.13.04 1.16-.09.02-2.97 2.3-2.97 2.3s1.77-4.06 2.53-5.4zm-1.27 17.67a5.1 5.1 0 0 0-3.9-1.09c-.46.06-1.06.37-1 .57.06.19.73.1 1.05.05a3.5 3.5 0 0 1 2.8.72c.15.12.49.25.67.33.19.1.36-.1.36-.1zm8.45-2c.18.24-.09 1.07.42 1.44.3.21-.44.63-.8.63-.17 0-.29-.28-.59-.58-.35-.38-.84-.8-.82-.8 1.68.13 1.6-1 1.79-.7zm-11.18 9.8c-1.67-.37-3.02-.35-4.52.62-.47.3-.91.96-.76 1.14.18.18.83-.3 1.15-.53 1.04-.72 2.25-.58 3.11-.44.25.06.65.02.92 0 .25 0 .33-.3.33-.3zm3.68 13.22c-1.65-.48-2.99-.53-4.54.35-.5.28-.97.92-.8 1.1.15.19.7-.25 1.03-.47 1.07-.66 2.41-.44 3.27-.22.25.07.66.05.92.07.25 0 .35-.29.35-.29zm3.52 18.88c-1.3 1.13-2.5 1.75-4.27 1.59-.57-.06-1.27-.43-1.2-.65s.76-.06 1.14 0c1.25.14 2.38-.62 3.07-1.17.19-.15.58-.31.79-.44.23-.1.44.11.44.11zm39.2 9.44c.31-.46.53-1.9.4-3.05s-.2-2.62-2.18-4.08c-1.48-1.13-2.46-.99-3.5-.93-1.04.07-1.7.7-2.94.65-.81 0-1.29-.3-1.85-.94-.51-.58-.28-1.5-.28-1.5s-.53.3-.34 1.52c.2 1.23 1.27 1.4 2.06 2.04.81.65 1.41 1.29 3.3 3.17s2.97 1.81 2.97 1.81.74-.03.56.51c-.14.59 1.48 1.25 1.8.8z"/>
    <path d="M118.32 129.84c-.54 0-.46.1-.46.65 0 .18.3.28.37.58.13.64.13 1.52.51 1.52.28 0 .44-.65.7-1.02.27-.36.68-.4.68-.67 0-.06-.02-.1-.07-.13-.16-.08-.6-.01-.9-.15-.39-.2-.57-.78-.83-.78z"/>
    <path d="M107.37 138.36c-.23.63-1.02 1.4-.52 1.46.5.09 1.09.25 1.63.16a8.74 8.74 0 0 0 3.5-1.41 150.2 150.2 0 0 0 5.32-4.58c.51-.45 1.06-.77 1.4-1.12.25-.25-.24-.88-.26-1.02-.05-.39.22-.69-.2-1.27s-.76-.74-1.15-.74c-.2-.09-1 .69-1.99 1.22-2.1 1.12-5.1 2.64-5.76 3.13-.7.53-1.8 1.51-1.97 2.25-.14.7.21 1.29 0 1.92z"/>
    <path d="M101.85 134.49c-.51.31-1.18.74-1.04 1.21.35 1.94 2.02 2.98 2.7 3.42 1.03.66 2.58 1.1 3.18.84.33-.2.7-.83.97-1.23s.26-1.4.28-1.83c.07-.64-.6-1.55-1.6-2.2-.74-.48-2.06-1.18-2.8-1.06-.69.1-1.08.48-1.7.85z"/>
    <path d="M99.6 128.63c-.6 0-1.24-.16-1.41.67-.14.68.07 3.41.42 4.13.54 1.11 1.14 2.24 2.15 2.29.38.02.95-.83 1.39-1.06.44-.2 1.16-.49 1.39-.84.54-.83.3-1.64-.23-2.71-.39-.8-1.22-1.96-1.92-2.24-.62-.26-1.1-.24-1.8-.24z"/>
    <path d="M100.02 123.26c-.78 0-1.52.07-2 .68-.41.55-.63 1.98-.63 2.79 0 1.23.25 2.23 1.15 2.72.33.2 1 .2 1.5.2s1.2-.02 1.56-.25c.85-.51 1.06-1.48 1.06-2.67 0-.88-.23-2.3-.72-2.86-.5-.54-1.22-.61-1.92-.61zm15.4-41.64c.1.44.33.65.82.5.48-.13.99-.2 1.46-.38 1.84-.72 3.7-1.32 5.04-2.96 1.12-1.35 1.21-1.26.35-2.74 0 0-.1-.07-.25-.06-1.12.34-2.25.7-3.36 1.08-.61.21-1.1.58-1.4 1.2-.38.75-.62 1.56-1.5 2-.35.25-.67.58-.9.85-.18.19-.32.3-.26.5zm-.51-2.98c-.14-.46-.25-.95-.51-1.32-.7-.97-1.46-1.92-2.3-2.78s-1.79-1.58-2.63-2.43c-.51-.53-1.04-.58-1.66-.42-.7.16-.96.88-.96.88s-.22.77-.11.95l.32.51a13.97 13.97 0 0 0 3.92 4.33c1.41.97 2.96 2.8 3.8 2.75.43-.06.6-.97.53-1.3-.1-.36-.17-.34-.4-1.17zm-5.21 4.26c-.39-.35-1-.54-1.29-.54-.26 0-.33.91-.33.91.23.5 1.04 1.23 1.56 1.78.48.46 1.13.93 1.64 1.32.35.26.92.56 1.2.63s.61.21.77-.4c.18-.6-3.17-3.36-3.55-3.7zm9.45.6c.77-.51 1.78-.86 2.53-1.37a3.08 3.08 0 0 1 1.59-.65c.33-.04.56.01.61.28.06.23 0 .54-.12.74-.1.17-.35.3-.56.38-1.1.5-2.43 1.27-3.61 1.5-.35.07-.34-.1-.34-.1z"/>
    <path d="M113.64 87.28a4.58 4.58 0 0 1-.65-.19c-.13-.07.2-.65.2-.65s.3-.04.64-.16c.27-.09.53-.26.69-.26.35 0 .35.86.35.86s-.69.47-1.23.4z"/>
    <path d="M119.66 84.42c-1.18 1.39-2.89 1.83-4.5 2.42-.52.2-.46.11-.46.11-.08-.2-.11-.39-.2-.56-.14-.29-.05-.4.2-.58 1.17-.83 3.08-1.7 4.34-2.36.37-.23.8.65.62.97zM105.2 71.87c-.18 0-.35.05-.51-.02-.37-.16-.56.05-.7.33-.3.65-.64 1.29-.87 1.97-.1.3-.05.7.07 1 .07.17.44.18.67.27.34.14.56.32.92.46 0 0 .17.07.35-.21.26-.44.42-.93.65-1.4.14-.3.12-.54.03-.89-.15-.74-.45-1.51-.61-1.51z"/>
    <path d="M104 78.4c.31-.34.61-.69.94-1 .3-.29.29-.59.13-.9-.16-.3-.23-.92-.72-1.08-.5-.17-1.25-.2-1.25-.2-.78.45-.5 1.13-.44 1.79l.07.44m3.1-3.75c.42 0 .95-.16.98-.7.05-.64.5-.76.37-1.08s-.28-.63-.37-.95c-.12-.44-.33-.74-.83-.62-.42.1-.67.39-.7.88a3.7 3.7 0 0 0 .18 1.66zm2.42 9.4c-.17.35-.17.35-.42.26-.25-.07-.2-.14-.9-.34s-.88-.03-1.1-.33c-.23-.28-.2-1.04-.2-1.04l.35-.16c.81-.26 2.01.04 2.47.64.28.38-.04.65-.2.97z"/>
    <path d="M104.5 81.1h.2c.33.06.8.02.98.22.22.23.13.7.25 1.04.07.19.05.38.05.38-.1.23-.74.46-1.07.39m6.51 4.68c-1.56-1.7-2.4-2.32-2.7-2.37s-.59 1.03-.59 1.03c.16.64.92 1.73 1.46 2.49.48.63 1.18 1.32 1.73 1.9.37.38.9.8 1.23.95s.68.37 1-.34c.3-.72-.54-1.97-2.13-3.66zM120.6 90c1.1-.3 1.44-.03 3.43-.66.69-.2 1.38-.44 2.08-.18.39.14.55.25.46.56a1.32 1.32 0 0 1-.53.74c-.21.14-.53.14-.81.13-2.87-.11-2.97.72-4.42.56-.42-.05-.35-.25-.35-.25z"/>
    <path d="M113.13 91.98c-.14-.1.39-.74.39-.74s.77-.24 1.21-.1c.4.12.09 1.12.09 1.12s-1.11.37-1.7-.28z"/>
    <path d="M120.86 91.23c-1.89 1.18-3.65 1-5.72 1.09-.66.03-.57-.04-.57-.04 0-.24.02-.49-.02-.72-.07-.37.1-.5.43-.6 2.44-.86 3.85-.16 5.52-1.07.51-.12.67 1.05.36 1.34zm-12.48-4.95c-.28.39-.28.37-.57.25-.28-.14-.2-.21-1-.58s-1.04-.23-1.27-.62-.03-1.27-.03-1.27l.44-.12c1-.16 2.4.44 2.83 1.25.28.5-.16.74-.4 1.1z"/>
    <path d="m104.3 83.2.22.04c.39.14.95.17 1.13.45.2.32 0 .87.09 1.29.03.24-.02.47-.02.47-.18.27-.97.4-1.36.25m5.7 8.6c-.79-2.18-1.33-2.72-1.61-2.9s-.92.4-.92.4c-.09.66.18 1.96.39 2.86.2.77.58 1.67.86 2.41.2.51.51 1.1.78 1.35.24.27.49.62 1.03.08.57-.53.27-2.01-.52-4.2zm7.52 7.35c1.13.01 1.4.35 3.49.3.7 0 1.39-.13 2 .33.32.25.5.46.34.76a1.51 1.51 0 0 1-.7.58c-.24.07-.55-.02-.82-.1-2.72-.89-3.06-.11-4.4-.66-.4-.16-.26-.33-.26-.33z"/>
    <path d="M110.03 98.81c-.09-.14.63-.53.63-.53s.96.18 1.24.55c.24.33-.6.95-.6.95s-.99-.14-1.27-.97z"/>
    <path d="M117.5 102.91c-2.14.62-4.23-1.72-5.97-2.87-.55-.37-.43-.37-.43-.37.15-.19.32-.38.43-.6.16-.33.35-.35.7-.22 2.48.75 3.45 3.1 5.32 2.67.49.02.31 1.2-.06 1.4zm-9.58-11.01c-.74.45-1.2-.37-1.37-.7-.18-.33-.53-.73-.58-1.17s.73-2.71.73-2.71c-.07-.12.46.05.46.05.99.25 1.55 3.08 1.66 3.98.07.6-.53.33-.9.55z"/>
    <path d="m105.68 86 .2.12c.31.28 1.04.58 1.09.9.07.37-.6 2.32-.7 2.75-.06.24-.2.42-.2.42-.26.17-1.27-1.3-1.58-1.6m5.33 19.57c-.35-2.29-.93-3.7-1.18-3.93s-.97.21-.97.21a15.86 15.86 0 0 0 .13 6.76c.28 1.16.54 2.45.54 2.45s.55.07.76-.07c.46-.25 1.07-3.13.72-5.42zm5.4 9.9c1.06.41 1.2.85 3.15 1.63.65.26 1.34.42 1.71 1.07.21.35.28.62 0 .83-.23.17-.6.28-.88.24-.25-.01-.5-.23-.7-.4-2.17-1.89-2.71-1.32-3.8-2.29-.32-.28-.15-.4-.15-.4z"/>
    <path d="M108.3 113.79c-.03-.18.8-.28.8-.28s.77.39.97.8c.17.38-.78.82-.78.82s-1-.48-.98-1.34z"/>
    <path d="M114.82 119.25c-2.2.17-3.9-2.35-5.37-3.82-.46-.46-.35-.44-.35-.44.17-.16.39-.32.53-.5.23-.3.42-.26.74-.08 2.28 1.23 2.86 3.55 4.77 3.5.5.1.08 1.21-.32 1.34zm-7.11-14.63c-.3.18-.65-.69-.78-1.04-.07-.23-.84-1.67-1.12-3.06-.18-.85-.06-1.74-.04-1.92.04-.46.85-1.25 1.48-1.18.44.04.6 1.64.95 2.66s.63 3.29.55 4.19c-.04.58-.64.2-1.04.35z"/>
    <path d="M105.95 98.4c-.3.18-.6-.6-.7-.98-.08-.23-.66-2.06-.94-3.43-.17-.85-.53-2-.5-2.17.03-.45.71-1.37 1.35-1.3.47.92 1.2 2.03 1.54 3.03.36 1.02.6 3 .52 3.9-.08.59-.88.82-1.27.96zM75.22 69.03a8.1 8.1 0 0 0-.44 6.58c.2.49.65.9.98 1.34s.74.35.74.35.28-.83.34-1.08c.07-.24-.25-.33.07-.79.2-.24.46-.42.68-.63 1.27-1.16 2.08-2.54 1.89-4.31a7.15 7.15 0 0 1 .9-4 28.74 28.74 0 0 1 3.04-5.05c.26-.35.67-.85.35-.9-.33-.05-.8.35-.98.53a28.5 28.5 0 0 0-3.37 3.84c-.35.58-.77.8-1.46 1.26-.65.44-2.46 2.17-2.74 2.86z"/>
    <path d="M84.53 81.62c-.1.44-.34.65-.83.5-.47-.13-.98-.2-1.46-.38-1.83-.72-3.7-1.32-5.03-2.96-1.13-1.35-1.22-1.26-.35-2.74 0 0 .1-.07.24-.06 1.13.34 2.25.7 3.36 1.08.62.21 1.11.58 1.41 1.2.37.75.62 1.56 1.5 2 .35.25.67.58.9.85.15.19.31.3.26.5zm.5-2.98c.15-.46.26-.95.52-1.32.7-.97 1.46-1.92 2.29-2.78s1.8-1.58 2.64-2.43c.5-.53 1.04-.58 1.65-.42.7.16.97.88.97.88s.21.77.1.95l-.31.51a13.97 13.97 0 0 1-3.93 4.33c-1.4.97-2.95 2.8-3.8 2.75-.42-.06-.6-.97-.53-1.3.1-.36.16-.34.4-1.17zm5.2 4.26c.39-.35 1-.54 1.29-.54.26 0 .33.91.33.91-.23.5-1.04 1.23-1.57 1.78-.47.46-1.12.93-1.63 1.32-.35.26-.92.56-1.2.63s-.62.21-.77-.4c-.16-.6 3.18-3.36 3.55-3.7zm-9.43.6c-.78-.51-1.78-.86-2.54-1.37a3.08 3.08 0 0 0-1.58-.65c-.34-.04-.56.01-.62.28-.05.23 0 .54.13.74.1.17.35.3.56.38 1.1.5 2.43 1.27 3.6 1.5.36.07.34-.1.34-.1z"/>
    <path d="M86.29 87.28a4.58 4.58 0 0 0 .65-.19c.12-.07-.21-.65-.21-.65s-.3-.04-.63-.16c-.27-.09-.53-.26-.7-.26-.34 0-.34.86-.34.86s.68.47 1.23.4z"/>
    <path d="M80.27 84.42c1.18 1.39 2.87 1.83 4.5 2.42.52.2.46.11.46.11.07-.2.1-.39.2-.56.14-.29.05-.4-.2-.58-1.18-.83-3.08-1.7-4.34-2.36-.37-.23-.78.65-.62.97zm14.45-12.55c.18 0 .35.05.51-.02.37-.16.56.05.7.33.32.65.64 1.29.87 1.97.1.3.05.7-.07 1-.07.17-.44.18-.67.27-.34.14-.57.32-.92.46 0 0-.17.07-.35-.21-.26-.44-.42-.93-.65-1.4-.14-.3-.12-.54-.04-.89.16-.74.46-1.51.62-1.51z"/>
    <path d="M95.93 78.4c-.31-.34-.61-.69-.95-1-.3-.29-.28-.59-.12-.9.16-.3.23-.92.72-1.08.5-.17 1.25-.2 1.25-.2.78.45.5 1.13.44 1.79l-.07.44m-3.08-3.75c-.42 0-.95-.16-.98-.7-.06-.64-.5-.76-.37-1.08s.28-.63.37-.95c.12-.44.33-.74.82-.62.42.1.67.39.7.88a3.7 3.7 0 0 1-.17 1.66 22.18 22.18 0 0 1-.37.8zm-2.45 9.4c.18.35.18.35.43.26.24-.07.19-.14.9-.34s.87-.03 1.1-.33c.23-.28.2-1.04.2-1.04l-.36-.16c-.8-.26-2 .04-2.46.64-.28.38.04.65.2.97z"/>
    <path d="M95.42 81.1h-.19c-.33.06-.81.02-.99.22-.2.23-.12.7-.24 1.04-.07.19-.06.38-.06.38.11.23.74.46 1.08.39m-6.51 4.68c1.56-1.7 2.39-2.32 2.7-2.37s.59 1.03.59 1.03c-.16.64-.92 1.73-1.46 2.49-.48.63-1.18 1.32-1.73 1.9-.37.38-.9.8-1.23.95s-.69.37-1-.34c-.28-.72.54-1.97 2.13-3.66zM79.34 90c-1.1-.3-1.45-.03-3.44-.66-.68-.2-1.37-.44-2.07-.18-.37.14-.55.25-.46.56.07.28.28.58.53.74.21.14.53.14.8.13 2.88-.11 2.98.72 4.43.56.42-.05.35-.25.35-.25z"/>
    <path d="M86.82 91.98c.14-.1-.39-.74-.39-.74s-.77-.24-1.21-.1c-.41.12-.1 1.12-.1 1.12s1.12.37 1.7-.28z"/>
    <path d="M79.07 91.23c1.89 1.18 3.65 1 5.72 1.09.65.03.57-.04.57-.04 0-.24-.02-.49.01-.72.07-.37-.08-.5-.42-.6-2.45-.86-3.85-.16-5.53-1.07-.5-.12-.65 1.05-.35 1.34zm12.48-4.95c.28.39.28.37.56.25.29-.14.22-.21 1-.58.82-.37 1.05-.23 1.27-.62s.04-1.27.04-1.27l-.44-.12c-1-.16-2.4.44-2.82 1.25-.3.5.14.74.4 1.1z"/>
    <path d="m95.63 83.2-.22.04c-.4.14-.95.17-1.13.45-.2.32 0 .87-.09 1.29-.03.24.02.47.02.47.17.27.97.4 1.35.25m-5.7 8.6c.8-2.18 1.34-2.72 1.62-2.9s.92.4.92.4c.08.66-.18 1.96-.4 2.86-.18.77-.57 1.67-.85 2.41-.2.51-.51 1.1-.78 1.35-.24.27-.5.62-1.04.08-.56-.53-.26-2.01.53-4.2zm-7.5 7.35c-1.12.01-1.39.35-3.48.3-.7 0-1.4-.13-2 .33-.32.25-.5.46-.34.76.14.24.44.47.7.58.23.07.55-.02.81-.1 2.73-.89 3.06-.11 4.4-.66.4-.16.27-.33.27-.33z"/>
    <path d="M89.91 98.81c.1-.14-.63-.53-.63-.53s-.95.18-1.23.55c-.25.33.6.95.6.95s.97-.14 1.26-.97z"/>
    <path d="M82.43 102.91c2.13.62 4.23-1.72 5.97-2.87.55-.37.42-.37.42-.37-.14-.19-.31-.38-.42-.6-.16-.33-.35-.35-.7-.22-2.48.75-3.45 3.1-5.32 2.67-.5.02-.32 1.2.05 1.4zm9.58-11.01c.74.45 1.2-.37 1.37-.7.18-.33.53-.73.58-1.17s-.74-2.71-.74-2.71c.07-.12-.45.05-.45.05-.99.25-1.55 3.08-1.66 3.98-.05.6.53.33.9.55z"/>
    <path d="m94.24 86-.19.12c-.32.28-1.04.58-1.1.9-.04.37.6 2.32.71 2.75.06.24.2.42.2.42.26.17 1.26-1.3 1.58-1.6m-5.33 19.57c.35-2.29.93-3.7 1.18-3.93s.97.21.97.21a15.86 15.86 0 0 1-.13 6.76c-.28 1.16-.54 2.45-.54 2.45s-.55.07-.76-.07c-.44-.25-1.07-3.13-.72-5.42zm-5.4 9.92c-1.06.4-1.2.85-3.16 1.62-.65.27-1.33.43-1.7 1.08-.21.35-.28.61 0 .82.23.18.58.29.88.25.24-.02.49-.23.7-.4 2.17-1.89 2.71-1.32 3.8-2.3.32-.27.14-.4.14-.4z"/>
    <path d="M91.62 113.79c.04-.18-.79-.28-.79-.28s-.77.4-.97.83c-.17.36.78.8.78.8s1-.49.98-1.35z"/>
    <path d="M85.11 119.28c2.2.18 3.89-2.34 5.37-3.82.46-.46.35-.44.35-.44-.18-.16-.39-.32-.53-.5-.23-.29-.42-.26-.74-.08-2.29 1.23-2.87 3.56-4.77 3.5-.5.1-.09 1.22.32 1.34zm7.11-14.66c.3.18.65-.69.77-1.04.07-.23.85-1.67 1.13-3.06.18-.85.05-1.74.04-1.92-.04-.46-.85-1.25-1.48-1.18-.44.04-.6 1.64-.95 2.66s-.64 3.29-.55 4.19c.04.58.64.2 1.04.35z"/>
    <path d="M94 98.4c.3.18.6-.6.7-.98.07-.23.65-2.06.93-3.43.18-.85.53-2 .51-2.17-.03-.45-.72-1.37-1.35-1.3-.48.92-1.2 2.03-1.55 3.03-.35 1.02-.6 3-.51 3.9.05.59.86.82 1.27.96zm7.57-23.12c.42 0 .73.05.93.26.21.25.26.64.26 1.04 0 .74-.56 1.22-.98 1.22-.67 0-1.24-.67-1.24-1.41 0-.37.1-.65.25-.85.2-.2.44-.26.78-.26z"/>
    <path d="M101.39 72.7c.39-.02.65.05.84.22.29.27.46.81.46 1.3 0 .81-.5 1.25-1.14 1.25s-1.1-.68-1.16-1.25 0-.8.12-1.03c.2-.4.5-.48.88-.5z"/>
    <path d="M101.44 70c.32 0 .92.69.92 1.6s-.48 1.53-.8 1.53c-.72 0 0-.68 0-1.6-.01-1.16-.33-1.53-.12-1.53z"/>
    <path d="M100.77 70.2c-.31 0-.65.52-.65 1.53 0 .91.48 1.69.8 1.69.72 0 .2-.67 0-1.68-.22-1.02.05-1.55-.15-1.55zm-2.4 5.08c-.43 0-.75.05-.94.26-.21.25-.26.64-.26 1.04 0 .74.56 1.22.98 1.22.67 0 1.23-.67 1.23-1.41 0-.37-.08-.65-.24-.85-.2-.2-.44-.26-.78-.26z"/>
    <path d="M98.54 72.7c-.39-.02-.65.05-.85.22-.28.27-.45.81-.45 1.3 0 .81.5 1.25 1.14 1.25s1.1-.68 1.16-1.25 0-.8-.12-1.03c-.2-.4-.5-.48-.88-.5z"/>
    <path d="M98.49 70c-.32 0-.92.69-.92 1.6s.48 1.53.8 1.53c.71 0 0-.68 0-1.6.01-1.16.33-1.53.12-1.53z"/>
    <path d="M99.15 70.2c.32 0 .66.52.66 1.53 0 .91-.48 1.69-.8 1.69-.72 0-.2-.67 0-1.68.21-1.02-.07-1.55.14-1.55zm.87 47.94c-.9 0-1.78.07-2.33.68-.49.55-.74 1.66-.74 2.47a3 3 0 0 0 1.71 2.78c.4.2.81-.13 1.37-.13s1.04.3 1.47.08a3.04 3.04 0 0 0 1.61-2.75c0-.88-.26-1.97-.84-2.53-.58-.53-1.43-.6-2.25-.6z"/>
    <path d="M104.63 110.62s.77 1.97.02 4.95-1.45 3.34-2.45 3.34c-1.02 0-1.2-.32-2.22-.32s-1.2.32-2.22.32-1.69-.37-2.44-3.34.02-4.95.02-4.95z"/>
    <path d="M95.6 104.43s-1.6 1.44-1.5 3.82c.1 2.35.62 2.95 1.06 3.1s1.83-.1 2.71-.1 1.57.5 2.1.5 1.2-.5 2.09-.5 2.27.23 2.7.1.96-.73 1.06-3.1c.11-2.36-1.5-3.82-1.5-3.82z"/>
    <path d="M104.68 99.96s1.44 1.33 1.36 3.38-.5 2.25-.76 2.4-2.78.22-2.78.22-1.52.38-2.52.38-2.52-.38-2.52-.38-2.51-.06-2.8-.21c-.26-.16-.66-.37-.75-2.41s1.35-3.38 1.35-3.38z"/>
    <path d="M104.47 96.05s1.18 1.14 1.3 2.74c.09 1.17.02 1.75-.33 2.2-.32.32-2.11.53-3.15.53s-1.83-.12-2.3-.12-1.28.12-2.31.12-2.84-.2-3.15-.53c-.37-.44-.43-1.02-.34-2.2.12-1.6 1.3-2.74 1.3-2.74z"/>
    <path d="M95.76 93.14s-1.34.8-1.34 2.08c0 .58.09 1.34.35 1.67.34.4 2.66.32 3.24.13a6.92 6.92 0 0 1 3.87 0c.58.19 2.9.26 3.24-.13.26-.33.35-1.1.35-1.67 0-1.3-1.33-2.08-1.33-2.08z"/>
    <path d="M104.5 89.98s1.03 1.37 1.03 2.44c0 .37-.06 1.43-.48 1.53s-1.65.07-2-.24c-.36-.34-2.5-.37-3.1-.37s-2.73.05-3.08.37-1.59.35-2.01.24-.48-1.16-.48-1.53c0-1.07 1.03-2.44 1.03-2.44z"/>
    <path d="M103.9 86.56s1.63 1.27 1.63 2.64c0 .3.03 1.32-.51 1.66-.23.14-1.85.28-2.2.14s-2.13-.23-2.86-.23-2.5.09-2.85.23-1.97 0-2.2-.14c-.54-.34-.5-1.38-.5-1.66 0-1.37 1.61-2.64 1.61-2.64z"/>
    <path d="M105.1 87.64c1.22-1.59.16-6.1-1.12-9.02-.48-1.05-1.41-1.5-2.04-1.5-1.4 0-1.76 1-1.98 1s-.58-1-1.97-1c-.63 0-1.56.47-2.04 1.5-1.3 2.93-2.36 7.43-1.13 9.02 1.29 1.54 5.14 1.26 5.14 1.26s3.86.28 5.14-1.26z"/>
    <g stroke="none" fill="#000">
      <path d="m75.76 69.7-.12.21-.14.23-.07.14-.07.18-.14.4a18.57 18.57 0 0 0-.18.97c-.02.18-.03.35-.02.53l.02.53.06.49.08.46.1.4.1.34.05.14.05.12c.04.09.09.12.1.16l.04.05.07-.03-.01-.07-.04-.16-.02-.1v-.15l-.01-.35-.02-.4-.02-.46-.02-.48v-1.23l.02-.23.04-.44.05-.39.02-.17.03-.16.05-.26.04-.23zm25.38 43.23-.12.1-.14.13-.16.19-.16.25-.14.3-.12.33-.09.35-.07.35-.04.36c-.01.22 0 .44.02.61l.07.44.06.16h.08l.06-.16.1-.4.27-1.24.07-.33.07-.32.07-.3.07-.26.07-.23.05-.17zm-.75-4.3-.1.14-.06.1-.04.15v.16c0 .05 0 .12.04.17l.07.18c.1.23.3.39.46.46l.2.05h.1l.03-.07-.03-.07-.08-.18-.42-.84-.05-.09-.04-.09-.05-.07zm.56-3.36-.02-.09-.02-.19-.01-.1-.02-.13-.14-.5-.05-.1-.04-.1-.09-.18-.05-.07h-.09l-.05.07-.09.2-.03.12-.02.14v.16l.03.16.06.15.08.14.11.13.1.09.11.05.09.03c.09.04.12.04.14.02zm-.05-4.4-.02-.07-.04-.18-.14-.42-.08-.2-.16-.26a.14.14 0 0 1-.04-.07l-.03-.07-.1-.01-.04.05-.1.18-.03.12c0 .05-.02.1 0 .14l.02.16.05.16c.1.19.27.35.4.4.17.1.3.09.3.07zm.03-4.82-.02-.02-.01-.07-.04-.09-.02-.12-.01-.14-.04-.14-.07-.32-.09-.33c-.03-.1-.05-.21-.1-.3l-.1-.21-.06-.1h-.09l-.03.1-.07.23c-.02.1-.06.2-.04.33a1.58 1.58 0 0 0 .12.58l.1.18.1.15.12.13.12.09.1.03c.1.05.13.04.13.02zm-.24-3.33.03-.05a.35.35 0 0 1 .07-.1.7.7 0 0 0 .05-.27l-.03-.1-.07-.1-.12-.12-.1-.01-.1.07-.05.05c-.04.03-.05.1-.07.16v.17l.07.14.12.11.13.05.05.02zm-.27-3.32s-.09.05-.14.14l-.03.2.03.2.1.16.15.09.14.03h.07l.07-.05.02-.05.01-.13a.8.8 0 0 0-.05-.28l-.03-.05-.06-.05-.1-.07-.1-.1-.06-.04zm1.64-1.41-.42-.02-.48-.07a1.7 1.7 0 0 1-.54-.2.75.75 0 0 1-.22-.19c-.03-.03-.03-.07-.05-.12v-.02.02-.05l-.02-.1-.03-.4-.02-.4-.02-.88-.03-1.83-.02-.88-.02-.83-.03-.74c-.04-.91-.1-1.53-.1-1.53h-.1s-.1.62-.17 1.53l-.09 1.57-.02.88v.91l.04.92.07.9.05.44.07.4.02.09.02.05s.01.04 0 .02v.02l.01.03.13.21c.1.13.23.2.35.25.25.1.47.12.65.12a3.8 3.8 0 0 0 .81-.08l.1-.04zm-3.3 24.94.06.16.05.17.07.23.07.26.07.3.07.32.07.33a28.64 28.64 0 0 0 .43 1.8h.09l.05-.16.07-.44a3.45 3.45 0 0 0-.09-1.32l-.09-.35-.12-.33-.14-.3-.16-.25-.16-.2-.14-.12zm.76-4.3-.05.07-.03.1-.06.08-.42.84-.07.18-.03.07.03.07h.09l.21-.05a.88.88 0 0 0 .46-.46.53.53 0 0 0 .07-.18l.03-.17v-.16l-.03-.14-.06-.1-.1-.15zM99 105.3l.08-.02.1-.03.1-.06.1-.08.1-.13.1-.14.05-.16.03-.16v-.15l-.01-.14-.04-.13-.09-.2-.05-.06h-.09l-.05.07-.09.17-.03.11-.06.1-.14.5-.01.12-.02.1-.02.2zm.03-4.4s.12.02.28-.05.32-.22.4-.4l.06-.17.02-.16v-.14l-.04-.12-.09-.18-.05-.05-.09.02-.07.14-.15.26-.1.2-.13.42-.04.18zM99 96.07h.1l.1-.04.13-.09.12-.12.1-.16.1-.17.07-.2c.03-.12.03-.26.05-.39s-.02-.22-.03-.33l-.08-.23-.03-.09h-.09l-.05.1-.1.2-.11.3-.09.34-.07.31-.07.28-.02.13L99 96l-.02.07c0-.02 0 0 .02 0zm.24-3.33h.06l.14-.04c.05-.01.1-.07.14-.12l.05-.09.03-.08v-.11l-.01-.09-.1-.14-.1-.09-.05-.01-.09.01-.03.04-.07.09-.06.1-.03.1.02.11.07.21zm.25-3.34-.1.07-.06.05-.1.07-.06.05-.03.06a.4.4 0 0 0-.06.28l.02.12.02.05.07.06h.07l.14-.04.14-.09c.05-.03.07-.09.1-.16.04-.05.04-.12.04-.19v-.1l-.02-.1-.1-.1-.05-.03zM97.85 88l.09.06.25.12c.19.07.49.12.77.07l.21-.05.21-.09.18-.12c.05-.04.09-.1.12-.16l.07-.16.02-.12v-.1l-.09-.03-.07.06-.09.05-.1.05-.12.04-.22.05-.08.02-.16.03-.35.07-.32.07-.34.13zm14.77 36.47.28.16.32.2.4.24.48.3.52.33.55.37.28.2c.09.07.2.12.27.2l.5.43.92.92.37.4.3.35.21.3.1.2.02.07.1.01v-.1l-.02-.1-.04-.15c-.04-.1-.07-.23-.14-.35l-.1-.21-.15-.23-.16-.25-.17-.24c-.12-.16-.25-.35-.4-.51l-.46-.51-.1-.1-.06-.04-.14-.13-.28-.23c-.2-.15-.4-.28-.59-.4-.19-.14-.4-.23-.6-.35l-.3-.16-.27-.12-.27-.13-.26-.1-.46-.16-.35-.1-.32-.08z"/>
    </g>
    <path d="M120.06 64.25a15.31 15.31 0 0 0-3.83-2.9c-.57-.22-.29.26-.29.26s1.68 1.5 2.12 1.83c.9.7 1.83 2.16 1.97 2.76.26 1.14.1 1.14.2 1.14s3.35 1.7 3.35 1.7-2.51-3.63-3.52-4.8z"/>
    <path d="M123.42 68.8a8.17 8.17 0 0 1 1.71 6.38c-.1.52-.47 1-.72 1.5s-.65.5-.65.5l-.55-.98c-.1-.23.18-.4-.23-.78-.24-.2-.52-.33-.8-.5-1.48-.87-2.54-2.09-2.7-3.86a7.13 7.13 0 0 0-1.65-3.75 29.34 29.34 0 0 0-3.98-4.38c-.33-.29-.83-.7-.51-.81.32-.11.86.19 1.07.33 1.46.97 3 2.08 4.03 3.12.46.5.92.65 1.68.96a11.62 11.62 0 0 1 3.3 2.27z"/>
    <g stroke="none" fill="#000">
      <path d="m123 69.6.07.22.1.25.06.16.05.18.13.37.1.42c.02.07.06.14.06.23l.05.23.1.47.1.5.06.47.07.44.07.4.06.34.03.14.02.1v.23l.09.02.01-.05.07-.18.04-.14.02-.14.03-.35.02-.42V73l-.03-.5-.1-.5-.12-.51c-.05-.16-.08-.34-.15-.48l-.2-.44-.23-.37-.1-.16-.1-.12-.18-.21c-.11-.07-.18-.14-.2-.12z"/>
    </g>
  </g>
</svg>
