<svg xmlns="http://www.w3.org/2000/svg" fill="#d7374a" stroke="#000" viewBox="50 50 200 200">
<metadata source="https://commons.wikimedia.org/wiki/File:Bor%C3%A5s_vapen.svg" author="Marmelad" license="https://creativecommons.org/publicdomain/zero/1.0"/>
  <g id="shears" stroke-width="0.8" transform="matrix(0.54,0,0,0.54,13.4,108.7)">
    <path d="M160.05-84.84a13.07 13.07 0 00-13.06 13.14 13.1 13.1 0 003.85 9.29c1.19 1.18 4.64 3.87 6.57 4.73-4.56 15.47-9.31 28.43 9.85 40.06-26.44 44.8-44.6 75.42-44.6 75.42l28.87-114.34c-.45-.39-.94-.69-1.4-1a17.7 17.7 0 01-7.83-14.72 17.76 17.76 0 1127.67 14.71c-.47.32-.96.62-1.4 1.01L197.43 57.8s-18.15-30.61-44.6-75.42c19.17-11.63 14.42-24.6 9.85-40.06 1.94-.86 5.39-3.55 6.57-4.73a13.1 13.1 0 003.85-9.3c0-7.24-5.8-13.13-13.05-13.13z"/>
    <path d="M160.13-84.84a13.14 13.14 0 00-9.29 22.43c1.19 1.18 4.64 3.87 6.57 4.73-4.56 15.47-9.31 28.43 9.85 40.06-26.44 44.8-44.6 75.42-44.6 75.42l28.87-114.34c-.45-.39-.94-.69-1.4-1a17.7 17.7 0 01-7.83-14.72c-.01-9.81 7.95-17.77 17.75-17.77"/>
  </g>
</svg>
