<svg xmlns="http://www.w3.org/2000/svg" fill="#d7374a" stroke="#000" viewBox="50 50 200 200">
<metadata source="http://wappenwiki.org/images/0/0d/Smolensk_1857.svg" author="Azgaar" license="https://creativecommons.org/licenses/by-nc-sa/3.0"/>
  <g id="skeleton" stroke-width="0.9" transform="matrix(0.22 0 0 0.22 59.8 47.8)">
      <path d="M194.03 75.73c7 5.48 9.42 8.86 9.48 13.1 0 1.18-.4 2.93-.9 3.84-.68 1.4-1.02 1.58-1.7 1.01-.45-.33-.79-1.35-.79-2.25 0-1.81-.9-2.26-1.3-.68-.28 1.52 1.36 5.42 2.83 6.55 2.7 2.14 1.13 5.08-3.67 6.88-3.45 1.3-4.4 2.2-1.92 1.87 1.58-.23 1.86-.06 2.26 1.18.22.8.4 3.67.4 6.38v4.91l-2.21 2.26c-2.26 2.32-8.13 5.54-11.52 6.33-1.18.22-3.5.1-5.87-.34-3.1-.57-4.35-1.13-5.87-2.6-3.1-3.05-7.23-12.82-6.89-16.43.12-1.52.45-1.92 1.7-2.03 1.75-.23 2.37.73 2.93 4.4.62 4.58 1.7 7.96 2.6 8.47.45.23 2.82.8 5.2 1.19 3.94.62 4.68.62 7.61-.29 8.75-2.76 9.88-4.17 8.36-10.95-.4-1.75-1.13-2.37-1.52-1.3-.06.23-2.1.62-4.4.8-2.32.22-5.77.61-7.63.95-5.36.9-8.75.74-9.09-.45-.85-2.88-1.7-3.78-3.9-4.12-4.06-.68-5.8-4.35-3.44-7.45 1.75-2.32 3-5.82 2.71-7.9-.28-2.15-1.3-1.92-1.18.28.17 2.14-.46 4.4-1.19 4.4-.79 0-2.26-3.16-2.6-5.48-.9-7.17 5.76-12.42 18.4-14.5.8-.12 3.5-.17 6.05-.06 4.29.17 4.85.34 7.06 2.03z"/>
      <path d="M193.63 109.55c.45.73-2.26 2.37-3.5 2.14a1.6 1.6 0 01-1.19-1.13c-.16-.9.29-1.07 3.67-1.52.34 0 .8.17 1.02.5z"/>
      <path d="M187.42 110.73c.45 1.3-.4 2.54-1.3 1.98-.28-.17-.68-.96-.79-1.75-.22-1.07-.05-1.41.74-1.41.56 0 1.18.5 1.35 1.18z"/>
      <path d="M184.03 111.24c.45 1.41-.05 2.26-1.35 2.26-1.02 0-1.98-2.37-1.3-3.1.73-.68 2.31-.17 2.65.84z"/>
      <path d="M175.17 112.03c.17.74-.11.96-1.13.8-.68-.12-1.35-.63-1.47-1.2-.17-.73.12-.9 1.13-.78.74.11 1.41.67 1.47 1.18z"/>
      <path d="M179.86 111.86c.5.96.45 1.3-.12 1.7-.45.28-.96.5-1.18.5-.68 0-2.15-1.75-2.15-2.6 0-1.3 2.71-.95 3.45.4z"/>
      <path d="M193.91 113.16c0 .8-.56 1.8-1.24 2.32-1.18.79-1.35.79-1.98-.12-1.01-1.35-.9-1.75.85-2.65 2.1-1.19 2.37-1.13 2.37.45z"/>
      <path d="M176.47 115.25c1.3 1.3 1.18 2.43-.4 2.65-1.52.17-2.31-.5-2.76-2.31-.34-1.3-.23-1.53.79-1.53.67 0 1.7.51 2.37 1.19z"/>
      <path d="M186 117.28c0 1.02-.33 1.3-1.4 1.3-1.24 0-1.41-.22-1.41-1.92 0-1.07.34-2.03.73-2.2.9-.34 2.09 1.19 2.09 2.82z"/>
      <path d="M189.62 115.48c.9 1.35.85 1.4-.56 1.75-1.58.4-2.49-.4-2.49-2.2 0-1.47 1.98-1.2 3.05.45z"/>
      <path d="M181.6 115.98c.9 2.1.29 3.05-1.74 2.71-1.47-.22-1.75-.5-1.75-1.75 0-.84.16-1.75.4-1.92.78-.84 2.47-.33 3.1.96z"/>
      <path d="M180.2 128.18c1.52.34 3.38.34 5.3 0 1.64-.34 3.05-.45 3.16-.34.12.11-.22.73-.79 1.35-.84.96-1.92 1.25-6.2 1.59l-5.26.4v-1.82c0-1.92.23-1.97 3.78-1.18z"/>
      <path d="M188.27 132.13c0 .9-2.2 1.52-7.17 1.92-3.78.28-4.69.23-4.69-.4 0-.5 1.24-.96 3.84-1.35 5.25-.8 8.02-.85 8.02-.17z"/>
      <path d="M192.22 135.07a65.94 65.94 0 003.61 2.88c1.64 1.12 1.92 2.08.62 2.08-.45 0-2.37.74-4.23 1.64-1.86.85-3.39 1.47-3.39 1.36 0-.12.34-.68.68-1.3.5-.8.56-1.53.11-2.66-.56-1.52-.45-5.81.17-5.81.17 0 1.3.85 2.43 1.8z"/>
      <path d="M188.27 135.18c0 1.13-.96 1.64-3.95 2.09a55.1 55.1 0 00-4.8 1.01c-3.28.85-4.91.29-4.69-1.52l.17-1.47 5.08.11c2.82.06 5.48-.1 5.93-.45 1.24-.79 2.26-.67 2.26.23z"/>
      <path d="M173.42 137.04c-.17 2.1-.23 2.15-2.54 2.32-1.3.11-2.37 0-2.37-.29.05-.33 4.29-3.9 4.91-4.06.06-.06.06.9 0 2.03z"/>
      <path d="M188.55 139.47c.17.56.06 1.58-.23 2.2-.56.96-1.18 1.07-6.66.96-6.6-.11-7.5-.4-7.5-2.09 0-1.01.28-1.13 2.42-.84 1.41.16 3.16 0 4.35-.46 1.07-.4 3.16-.79 4.63-.84 2.14-.06 2.7.17 2.99 1.07z"/>
      <path d="M168.06 140.49c3.38.33 4.57.67 5.19 1.52.5.62.9 1.3.9 1.52 0 .4-5.75.96-9.6.9-1.4 0-5.53.29-9.25.74-6.44.68-6.72.68-7.51-.34-1.19-1.63-.68-2.7 1.52-3.27 1.08-.23 3.4-.8 5.08-1.24a23.1 23.1 0 016.21-.51c1.7.17 5.09.5 7.46.68z"/>
      <path d="M215.82 141.22c1.92.34 3.67.9 3.84 1.19.22.33-.17 1.07-.8 1.75-1.07 1.07-2.08 1.18-13.77 1.58-11.06.33-12.7.28-13.6-.51-.57-.45-.9-1.13-.8-1.41.06-.29 2.2-1.19 4.63-2.04 4.07-1.4 5.09-1.58 10.73-1.35 3.39.11 7.8.45 9.77.79z"/>
      <path d="M145.25 143.7c.9 1.98.9 1.98-1.24 1.98-1.08 0-2.6.23-3.4.5-1 .46-1.57.35-2.08-.27-.34-.46-.56-.9-.45-.96 1.8-1.36 4.4-2.66 5.36-2.66.74 0 1.41.57 1.8 1.41z"/>
      <path d="M226.26 143.93c1.58.62 2.1 1.7.85 1.8-.4.06-2.32.18-4.24.23l-3.5.11 1.25-1.58c1.3-1.69 2.31-1.8 5.64-.56z"/>
      <path d="M188.72 144.78c2.6 1.35 3.05 2.25 2.48 4.68-.28 1.19-.56 3.9-.62 6.1-.22 8.19-4.51 16.09-8.8 16.09-2.15 0-3.17-1.02-4.4-4.52-1.25-3.44-1.48-5.02-1.59-10.67-.06-2.65-.45-5.93-.9-7.22-.9-2.77-.34-4.46 1.7-5.2 1.85-.73 10.32-.22 12.13.74z"/>
      <path d="M171.9 146.19c-4.01 2.26-4.35 2.31-6.44 1.47-2.15-.9-3-1.75-1.98-2.1.34-.05 2.83-.22 5.48-.28l4.85-.16-1.91 1.07z"/>
      <path d="M137.9 147.2c.52.85.86.85 2.83.29 3.45-1.02 4.57-.85 5.2.79.67 1.8.73 4.74.05 4.74-.28 0-1.4 1.13-2.54 2.54-1.7 2.03-2.2 3.33-2.88 6.89-.45 2.42-1.18 5.81-1.63 7.5a127.9 127.9 0 00-1.75 8.2c-.51 2.76-1.3 5.92-1.75 6.94-.4 1.07-.96 3.95-1.13 6.49-.4 5.02-1.25 6.6-3.45 6.6a6.2 6.2 0 00-2.48.62c-.85.46-1.36.4-2.03-.17-.51-.39-1.7-1.01-2.66-1.3-1.52-.5-1.75-.84-1.63-2.42.05-2.15 1.4-3.9 3.1-4.18 1.19-.17 3.27-4.63 3.27-6.94 0-.57.34-2.1.8-3.39 1.97-5.59 6.15-21.17 5.75-21.57-.1-.17-.05-.84.23-1.58.4-1.07.11-1.63-1.75-3.44-2.54-2.48-2.77-4-.8-6.1 1.59-1.7 4.47-2.03 5.26-.5z"/>
      <path d="M156.65 147.2c.06 1.36.96 2.49 3.95 4.69l2.54 1.86-3.72-.4c-3.22-.27-3.84-.22-4.74.74-1.41 1.58-.74 3.67 1.52 4.74l1.86.96h-2.7c-2.26 0-3.17-.34-5.76-2.25a25.56 25.56 0 01-3.11-2.49c0-.11.4-.9.85-1.8.5-1.08.67-2.38.45-4.07-.28-2.26-.23-2.48.73-2.15.62.17 2.2.12 3.62-.16 3.9-.8 4.51-.74 4.51.33z"/>
      <path d="M162.47 147.6c3.61 2.09 5.7 2.31 7.68.96.9-.68 1.86-1.19 2.2-1.19.84 0 1.7 2.77 2.09 6.78l.33 3.67-5.81.22c-3.22.17-6.94.29-8.36.29-2.99.05-5.81-1.42-5.3-2.77.28-.73 1.35-.8 6.66-.5 6.66.33 10.56-.18 10.95-1.42.17-.5 0-.68-.56-.45-.51.17-2.1.45-3.62.62l-2.76.34 3.61-1.13c3.84-1.13 4.4-1.47 3.84-2.09-.23-.17-1.92.06-3.84.62-4.35 1.19-6.55.8-9.54-1.75-1.8-1.58-2.15-2.14-1.64-2.77.9-1.07 1.36-1.01 4.07.57z"/>
      <path d="M217.8 148c-.68 1.3-.74 2.2-.29 3.89.45 1.92.34 2.43-1.13 4.74-1.64 2.49-2.7 3.28-2.7 1.98 0-.45-.85-.57-2.5-.4-2.25.28-3.55.8-6.82 2.54-1.41.8-7.51 2.15-7.9 1.75-.18-.17 1.86-1.01 4.57-1.86 6.66-2.14 9.93-5.14 8.13-7.34-.96-1.18-3.96-1.07-5.31.17-1.58 1.41-5.2 2.37-8.75 2.37-2.49 0-2.88-.17-2.88-1.13 0-1.3.06-1.35 2.88-.5 1.8.56 2.7.5 5.3-.34 2.77-.85 3.4-1.36 4.86-3.73 1.8-2.88 2.15-3.05 8.98-3.5l3.5-.28c.84-.12.84.05.05 1.63z"/>
      <path d="M233.1 147.71c1.91 1.98 1.86 2.82-.57 5.08l-2.03 1.92 1.18 3.56a50.94 50.94 0 011.7 7.17c.5 3.44 1.86 10.73 3.6 20.04.74 3.78.8 3.95 2.55 4.3a6.3 6.3 0 014.68 3.83c.46 1.07.29 1.64-.73 2.77-1.92 2.03-3.27 2.31-6.72 1.58-2.65-.62-3.22-.96-4.29-2.94a15.08 15.08 0 01-1.58-4.46c-.68-4.29-2.03-10.72-3.1-14.68a54.49 54.49 0 01-1.92-13.15c-.06-2.88-.17-3.1-3.56-6.44-3.16-2.99-3.56-3.67-3.56-5.59 0-2.65 1.41-3.6 4.75-3.16a6 6 0 003.72-.45c2.2-1.24 4.18-1.02 5.87.62z"/>
      <path d="M198.43 147.94c-1.13.73-5.08.73-5.08.05 0-.5 5.02-1.12 5.64-.73.12.11-.1.4-.56.68z"/>
      <path d="M204.58 147.32c.68.45.68.79-.22 2.14-.57.85-1.47 1.87-1.92 2.26-1.36 1.02-4.86 1.47-7.74 1.02-2.2-.29-2.54-.51-2.37-1.58.17-1.08.62-1.3 3.56-1.53 2.14-.17 4.12-.73 5.36-1.52 2.26-1.47 2.26-1.47 3.33-.8z"/>
      <path d="M207.91 154.77c-.22 1.75-2.37 3.1-7.17 4.74-4.46 1.53-9.09 1.86-9.09.68.06-2.71.63-3.22 3.9-3.22 3.9-.06 8.24-1.13 9.48-2.43 1.42-1.4 3.11-1.24 2.88.23z"/>
      <path d="M170.54 159.74c-.56.84-6.1 1.35-8.86.79l-2.49-.57 3.67-.34c4.8-.5 7.57-.73 7.85-.56.06.06 0 .34-.17.68z"/>
      <path d="M212.77 161.1c-.57 1.91-2.26 3.5-5.59 5.19-3.44 1.69-4.74 1.69-12.08.05-4.97-1.13-5.2-1.24-4.74-2.31.33-1.02 2.25-1.08 4.46-.23 1.92.68 8.69-.73 10.95-2.31 1.47-1.02 6.15-2.26 6.94-1.87.23.17.28.8.06 1.47z"/>
      <path d="M174.72 161.49c0 1.4-.34 1.8-2.66 2.82-2.82 1.24-4.96 1.35-12.87.68-4.9-.4-5.08-.45-5.08-1.8v-1.42h7.96c6.78 0 8.08-.11 8.92-1.02.57-.5 1.58-.96 2.37-.96 1.13 0 1.36.29 1.36 1.7z"/>
      <path d="M190.53 167.41c.4.46 1.24.85 1.92.85.62 0 1.69.4 2.25.85.85.68 2.94.85 8.92.85 8.3 0 8.7.16 6.95 2.65-.74 1.02-1.58 1.24-7.62 1.58-3.73.23-6.9.62-7.06.85-.5.79 3.27 3.95 5.25 4.29 3.22.62 9.82-.57 12.36-2.2 1.41-.9 1.19.62-.28 1.97-2.14 2.03-5.93 3.16-10.56 3.16-5.36 0-5.36 0-5.36.9 0 1.3 3.67 4.13 5.93 4.52 1.75.34 2.76.12 5.64-1.3 3.62-1.8 5.37-2.2 5.37-1.18 0 1.35-4.86 3.56-8.47 3.9-2.03.22-4.01.56-4.4.84-.8.5-.4 2.6.67 3.28 1.08.73 5.14.5 7.68-.4 1.3-.45 2.77-.85 3.16-.85 1.36 0 .85 1.13-.73 1.75-.9.34-2.32 1.19-3.28 1.87-2.37 1.8-5.13 3.16-6.43 3.16-1.64 0-3.33-2.49-4.69-7a35.69 35.69 0 00-2.2-5.7c-.5-.9-1.24-2.71-1.58-3.96a94.3 94.3 0 00-2.26-5.92c-.9-2.04-2.03-4.63-2.54-5.76-1.24-3-.34-5.03 1.36-3z"/>
      <path d="M176.58 168.49c.17.45-.34 1.8-1.18 2.99-2.04 2.77-7.74 15.02-8.87 18.91-1.01 3.56-3.27 6.44-5.47 6.89-1.19.28-1.75 0-3-1.41-1.69-2.03-1.69-3.67 0-3.5a3.1 3.1 0 001.92-.34c1.41-.9.17-2.26-2.99-3.16-2.88-.85-4.18-1.7-3.61-2.32.17-.11 1.4.17 2.76.62 2.77 1.02 4.75.74 7.8-1.01 1.12-.62 2.08-1.19 2.08-1.19.06-.05.23-.56.46-1.24.33-1.13.05-1.24-5.65-1.92-5.25-.62-6.21-.9-7.8-2.26-2.42-2.2-1.57-2.65 1.7-.9a12.23 12.23 0 0010.67.4c2.32-1.02 4.07-3.34 3.5-4.7-.4-1.06-6.49-2.14-11.8-2.02-4.23.05-6.1-.57-6.1-1.92 0-.57 7.52-.06 10.17.67.79.23 3.56.17 6.2-.1 3.73-.4 5.2-.86 6.5-1.87 1.98-1.58 2.32-1.7 2.71-.62z"/>
      <path d="M188.72 171.76c.4 1.36.9 2.77 1.07 3.22.28.73-3.1-.96-4.57-2.26-.5-.45 1.64-3.33 2.48-3.33.17 0 .62 1.07 1.02 2.37z"/>
      <path d="M186.18 174.64c1.47.85 2.65 1.86 2.65 2.2 0 .4-.56 1.75-1.18 3.1-.9 1.93-1.41 2.44-2.15 2.1-.5-.23-2.43-.57-4.29-.8-3.95-.45-5.53-1.01-5.14-1.91.12-.34.74-1.98 1.25-3.62l1.01-2.93 2.54.11c1.58.11 3.67.8 5.3 1.75z"/>
      <path d="M185.84 183.17c.56.45 1.64 1.3 2.37 1.92.9.73 1.24 1.35.96 2.14-.28.9-1.24 1.24-5.2 1.86-3.55.57-5.02.57-5.47.12a2.62 2.62 0 00-1.58-.62c-2.09 0-2.26-1.42-.5-3.9 1.69-2.26 1.74-2.31 5.07-2.31 2.1 0 3.73.28 4.35.79z"/>
      <path d="M186.57 190.28c-.73.5-.73.62.06 1.13.5.28 1.41.96 2.09 1.52 1.18.96 1.18 1.08.22 2.26-.67.9-2.25 1.47-5.58 2.15l-4.69.96-1.64-1.64-1.63-1.64 1.75-1.92c1.69-1.92 4.9-3.1 8.86-3.27 1.13-.06 1.24 0 .56.45z"/>
      <path d="M188.21 200.84l1.86 2.65-1.3 1.07c-2.42 1.98-12.98.68-12.92-1.58.05-.28.67-1.3 1.4-2.2 1.02-1.3 2.04-1.8 4.07-2.09 4.92-.68 4.92-.68 6.9 2.15z"/>
      <path d="M125.04 199.76c1.01.85 1.13 1.19.62 2.54-.34.9-.62 3.05-.62 4.8 0 2.66.5 4.24 2.88 9.43 3.84 8.3 3.78 8.13 4.12 11.01.5 4.69-1.53 9.09-4.58 9.88-1.86.45-2.37-.11-2.7-2.88-.12-1.19-.51-4.4-.8-7.11-.28-2.77-.67-5.2-.9-5.54-.17-.28-.34-2.99-.34-6.04-.05-5.08-.17-5.75-1.7-8.13-2.47-3.9-2.64-5.75-.78-7.5 1.86-1.7 3.1-1.87 4.8-.46z"/>
      <path d="M133.73 203.15c0 2.37-.22 6.55-.45 9.2-.4 4.35-.34 5.25.96 8.75 2.14 6.04 2.94 11.3 1.98 14.06-.74 2.32-2.15 3.1-3.79 2.03-.62-.4-.62-.96 0-3.5 1.41-5.7.4-10.38-4.4-19.87-1.52-3.05-1.92-4.57-1.98-7.28-.05-4.91 1.53-6.55 7.46-7.74.17-.05.28 1.92.22 4.35z"/>
      <path d="M238.06 200.27c1.75 1.53 1.3 5.6-2.09 18.52a33.49 33.49 0 00-.73 8.86c.05 4.63-.06 5.7-.96 6.66-2.88 3.17-3.95-.5-2.32-7.9 2.94-12.93 2.83-12.08 2.1-19.25-.35-3.73-.52-7.06-.35-7.34.57-.85 3.22-.56 4.35.45z"/>
      <path d="M245.4 201.18c.23.39.34 1.07.23 1.52-.17.45-.57 2.26-.9 3.95-.4 1.7-1.02 4.52-1.48 6.27-.45 1.7-.79 4.4-.79 5.93 0 1.52-.4 5.81-.84 9.48-.8 6.55-1.64 8.8-3.39 8.8-1.02 0-2.7-2.08-2.26-2.87.23-.34.51-3.62.57-7.23.11-3.61.45-7.45.84-8.52 1.3-4.12 3.33-14.51 3.05-15.58-.45-1.7 1.24-3.22 3.1-2.77.8.22 1.64.68 1.87 1.02z"/>
      <path d="M187.7 207.9c1.75 2.93 1.47 4.57-.96 5.86-2.31 1.19-3.16 2.6-1.35 2.1 2.54-.68 2.99 5.64 1.24 15.91-1.19 6.67-2.15 9.88-2.94 9.88s-2.54-3.9-4.17-9.6a32.19 32.19 0 01-1.64-10.72l-.06-5.36 1.87.05c2.42.12 2.25-.4-.46-1.7-2.54-1.23-2.7-1.85-1.3-5.24.9-2.15 1.25-2.37 3.28-2.6 5.36-.5 5.3-.5 6.5 1.41z"/>
      <path d="M170.54 211.62c1.3.85 3.1 1.92 4.07 2.43 1.58.9 1.63 1.13 1.91 5.64.17 2.6.23 4.8.17 4.91a5.8 5.8 0 01-1.58-1.01 4.75 4.75 0 00-3.61-1.02c-2.03.17-2.15.28-2.31 2.37-.17 2.1.05 2.43 3.27 5.48 1.92 1.8 4.12 3.33 4.91 3.44 1.19.17 1.58.74 2.54 3.62 1.07 3.33 1.07 3.55.11 5.02-1.12 1.7-2.87 2.54-5.41 2.54-1.64 0-1.7-.06-1.3-2.2.62-3.61-1.92-7.5-5.65-8.75-1.13-.34-1.97-1.41-5.7-7.11-5.7-8.64-5.48-12.99.85-16.38 2.48-1.35 4.46-1.13 7.73 1.02z"/>
      <path d="M202.72 212.01c4.18 3.22 5.87 5.6 5.87 8.2 0 1.63-.5 2.59-2.6 4.85-3.55 3.72-4.74 5.75-4.74 8.07 0 1.7-.11 1.86-1.24 1.47-5.42-1.7-6.77-.8-6.89 4.68-.05 4.01-.11 4.07-1.86 4.91-1.47.74-2.09.74-3.95.12-2.37-.8-2.37-.62-.9-6.21.95-3.84.95-3.84 3.72-4.8 5.36-1.86 7.62-6.5 4.63-9.43-1.58-1.64-2.43-1.75-4-.56-1.65 1.24-1.93 1.01-1.93-1.47 0-1.3-.28-3.33-.68-4.52-.56-1.92-.5-2.37.4-3.33.56-.62 1.41-1.13 1.92-1.13.5-.05 2.31-.79 4-1.7 1.7-.95 3.5-1.69 4.02-1.69.5 0 2.42 1.13 4.23 2.54z"/>
      <path d="M207.69 235.16c2.09 2.26 2.2 3.84.68 8.7-1.3 4.06-1.36 5.08-1.19 13.38.11 4.9.45 11.9.79 15.46.28 3.56.56 8.92.56 11.92l.06 5.42 2.54 1.8a16.22 16.22 0 014.01 4.35c1.47 2.54 1.47 2.6.45 3.61-.56.57-2.31 1.24-3.84 1.47-2.65.34-2.76.34-2.42-.85.22-.62.56-1.75.73-2.48l.28-1.24-1.01 1.3-2.15 2.7c-1.47 1.87-4.91 2.38-7.8 1.14-1.18-.46-2.25-1.3-2.47-1.81-.46-1.19.56-5.08 2.37-8.98 1.3-2.88 1.3-3.16.79-11.35-.29-4.62-.62-9.31-.8-10.38-.1-1.08-.61-6.6-1.07-12.31-.79-9.88-.84-10.39-2.54-13.04-1.86-2.88-2.09-4.46-1.13-7.4.62-1.7.8-1.8 2.66-1.47a6 6 0 012.82 1.13c.73.74 1.02.63 2.43-.84 1.86-2.04 3.55-2.1 5.25-.23z"/>
      <path d="M162.3 237.14c1.24 1.35 1.7 1.58 2.09.96.22-.45 1.35-.96 2.54-1.13 2.2-.34 2.7.05 4.51 3.33.85 1.52.9 1.86.12 3.39-.51.9-1.3 2.14-1.87 2.76-1.13 1.24-1.63 4.07-2.03 12.42-.17 3.1-.56 8.25-.9 11.4-.4 3.17-.57 7.12-.4 8.76.17 1.63.12 5.13-.05 7.79l-.4 4.8 1.86 1.75c2.54 2.42 2.66 5.76.23 8.18-.9.9-2.09 1.64-2.6 1.64-.5 0-1.63.4-2.54.85-1.01.5-1.75.62-1.97.28-.17-.34.17-.57.79-.57 1.75 0 1.4-.9-.51-1.58-1.86-.67-3.95-3.6-3.95-5.64 0-.68-.23-1.24-.57-1.24-1.24 0-.5 3.78 1.13 6.04l1.7 2.31-3.22.4c-3.1.4-3.28.34-4.8-1.36-2.54-2.82-1.92-6.43 1.52-9.65.85-.8 2.26-2.82 3.1-4.57 1.53-2.94 1.65-3.67 1.93-12.14.17-4.91.67-12.42 1.13-16.6 1.35-12.2 1.35-13.1-.06-13.6-1.92-.68-4.18-5.09-3.78-7.23.73-3.62 4.4-4.52 7-1.75z"/>
      <path d="M239.08 239.45c1.52.96 2.82 2.1 2.82 2.49 0 2.03-11.23 3.33-12.42 1.4-1.41-2.2 1.47-5.36 4.35-4.9 1.01.17 1.86.1 1.86-.23 0-.79.28-.68 3.39 1.24z"/>
      <path d="M133.11 239.45c2.71.74 2.82 2.32.28 3.95-2.37 1.47-6.43 1.13-7.9-.67-2.37-2.83 2.14-4.8 7.62-3.28z"/>
      <path d="M140.5 244.98c2.1 2.15 2.32 3.45.63 3.45-.96 0-4.75-3.95-4.8-4.97 0-1.35 2.09-.62 4.18 1.52z"/>
      <path d="M125.26 249.5c-.34 4.91-.9 6.6-1.97 5.93-.74-.45-.96-3.33-.45-6.95.67-4.74.84-5.19 1.92-4.8.79.34.84 1.14.5 5.82z"/>
      <path d="M228.52 244.08c.28.8-1.64 4.35-2.43 4.35-.22 0-.73-.4-1.13-.85-.56-.68-.45-1.13.68-2.48 1.41-1.8 2.43-2.2 2.88-1.02z"/>
      <path d="M242.46 249.84v5.3l-2.54.4c-1.4.17-2.76.17-2.99 0-.17-.22-.34-2.48-.4-5.02 0-3.9.18-4.63.97-4.8.84-.17 1.01.4 1.13 3.9.1 2.7.19 5.79.7 5.96.5.17.61-.04.61-.04s.21-1.75-.07-2.82c-.17-.8-.4-2.71-.4-4.3-.11-2.25.12-3.1.96-3.66.57-.45 1.3-.68 1.53-.5.28.16.5 2.64.5 5.58z"/>
      <path d="M135.37 246c1.13 2.26 2.82 9.6 2.37 10.28-.45.79-2.94.79-3.44 0-.57-.96-.8-11.8-.23-11.8.28 0 .9.67 1.3 1.52z"/>
      <path d="M129.1 250.4c.4 5.37.12 6.33-1.7 5.03-.95-.62-1.23-1.41-1.23-3.22 0-4.23.62-6.66 1.63-6.5.68.18.96 1.2 1.3 4.7z"/>
      <path d="M132.66 248.43c.56 4.12-.11 8.47-1.36 8.47-.84 0-1.01-.74-1.07-5.65-.11-5.25-.06-5.64.96-5.64.85 0 1.13.56 1.47 2.82z"/>
      <path d="M231.96 247.7c-.67 3.33-.73 5.98-.17 7.05.46.85.29 1.13-.96 1.58-.84.34-1.63.45-1.8.34-.34-.4-.28-7.45.17-9.37.28-1.36.68-1.7 1.8-1.7 1.36 0 1.42.12.96 2.1z"/>
      <path d="M235.3 246.34c.16.45.1 1.07-.12 1.41-.22.34-.22 2.26 0 4.18.4 3.9.28 4.4-.9 4.4-.45 0-.96-.84-1.19-2.03-.4-2.03 0-7.11.62-8.13.51-.79 1.25-.68 1.58.17z"/>
      <path d="M145.25 250.18c.5.96 1.52 2.48 2.26 3.39l1.3 1.58-1.3.67c-1.13.63-1.41.51-2.43-.9-.62-.85-1.7-2.2-2.37-3-1.58-1.69-1.58-2.14-.28-2.87 1.46-.9 1.8-.8 2.82 1.13z"/>
      <path d="M224.4 249.56c.5.96.28 1.47-1.53 3.44-1.52 1.64-2.42 2.15-3.16 1.92-1.46-.56-1.18-2.26.8-4.52 1.97-2.25 3.04-2.48 3.89-.84z"/>
      <path d="M218.25 255.77c.05.28.1.96.1 1.4 0 2.04-.22 2.55-1 2.55-.57 0-.85-.57-.85-1.86 0-1.08.16-2.1.39-2.26.56-.57 1.3-.45 1.36.17z"/>
      <path d="M149.88 258.03c0 1.97-.57 2.14-1.64.5-.62-1.01-.62-1.3.06-1.69 1.24-.85 1.58-.56 1.58 1.19z"/>
      <path d="M243.48 259.27c-.17 2.7-.28 2.99-1.52 2.99-1.13 0-1.47-.45-2.1-2.54a47.2 47.2 0 01-.78-2.65c0-.17 1.97-.62 3.27-.68 1.24-.06 1.3.11 1.13 2.88z"/>
      <path d="M124.76 258.82c.56 2.76.16 4-1.3 4.17-.9.12-1.25-.1-1.25-.84 0-.57-.16-1.98-.33-3.16-.34-1.98-.29-2.1 1.07-2.1 1.24 0 1.52.35 1.8 1.93z"/>
      <path d="M129.22 258.53c.67.74.9 1.81.79 3.28-.17 1.86-.34 2.14-1.59 2.14-1.18 0-1.46-.34-1.91-2.37-.8-3.84.56-5.42 2.7-3.05z"/>
      <path d="M233.6 257.86c.17.28.45 2.03.68 3.95.34 3.05.28 3.61-.57 3.9-.56.22-1.18.05-1.46-.4-.57-.9-.68-6.95-.12-7.45.51-.51 1.19-.51 1.47 0z"/>
      <path d="M237.67 258.03c.17.28.5 1.8.67 3.38.29 2.6.23 2.83-.9 2.83-1.3 0-1.98-1.19-2.6-4.75-.4-1.92-.34-2.03 1.02-2.03.79 0 1.64.23 1.8.57z"/>
      <path d="M133.79 260.51c.45 2.71.11 3.73-1.19 3.73-.56 0-.79-.8-.79-3.1 0-2.32.23-3.11.8-3.11.56 0 .95.9 1.18 2.48z"/>
      <path d="M137.74 261.7c.45 3.9-.17 5.58-1.86 5.25-.68-.12-.9-1.19-1.02-4.58-.11-4.23-.11-4.34 1.19-4.34 1.18 0 1.35.28 1.69 3.67z"/>
      <path d="M230.5 261.53c-.12 2.7-.4 3.55-1.02 3.55-1.07 0-1.36-1.47-.85-4.57.23-1.64.62-2.48 1.19-2.48.68 0 .79.73.68 3.5z"/>
      <path d="M243.6 265.03c0 .73-.35 1.63-.8 1.97-.67.57-.96.45-1.52-.56-.57-1.08-.5-1.41.4-2.03 1.46-1.08 1.91-.9 1.91.62z"/>
      <path d="M123.9 266.72c0 1.8-1.29 3.73-1.85 2.77-.17-.29-.46-1.42-.68-2.6-.4-1.98-.34-2.09 1.07-2.09 1.3 0 1.47.23 1.47 1.92z"/>
      <path d="M128.42 267.17c0 3-.84 4.57-1.69 3.28-.79-1.19-.68-4.18.11-4.97 1.19-1.19 1.58-.74 1.58 1.7z"/>
      <path d="M132.6 268.02c-.45 3.56-1.35 4.46-1.35 1.47 0-2.6.45-4.13 1.18-4.13.29 0 .34 1.2.17 2.66z"/>
      <path d="M238.51 267.9c0 3.05-.79 3.28-1.97.51-.96-2.31-.74-3.05.9-3.05.9 0 1.07.4 1.07 2.55z"/>
      <path d="M230.83 267.74c.46 1.86.4 5.53-.1 5.53-.57 0-1.81-3.39-1.81-4.91 0-2.1 1.35-2.54 1.91-.62z"/>
      <path d="M234.9 268.02c1.58 2.09.45 5.87-1.41 4.74-.8-.5-1.86-4.52-1.41-5.25.5-.79 2.03-.5 2.82.5z"/>
      <path d="M136.72 269.32c.23 1.18-.73 2.48-1.46 2.03-.34-.23-.63-1.02-.63-1.8 0-1.08.29-1.42.96-1.25.57.11 1.08.57 1.13 1.02z"/>
      <path d="M208.03 304.04c.28.79.96 1.4 1.52 1.4 1.47 0 3.56 2.27 3.56 3.85 0 .79-.74 2.76-1.7 4.4a27.14 27.14 0 00-2.25 5.7c-.29 1.47-.96 4.12-1.42 5.82-2.25 8.24-3.67 14.96-3.67 17.22 0 1.35-.5 3.72-1.07 5.3-.62 1.53-1.92 5.87-2.93 9.66l-1.81 6.88 1.24 1.59c1.41 1.91 1.53 4.06.34 5.08-1.07.9-4.4.28-5.7-1.02a4.61 4.61 0 00-2.71-.96c-1.24 0-1.8-.28-1.92-1.02-.4-1.92.4-3.67 1.75-3.9.96-.1 1.24-.56 1.35-2.14.29-3.6 1.36-12.08 2.15-16.65.9-4.97 1.47-8.86 2.88-19.48.5-3.9 1.18-7.96 1.47-9.14.56-1.98.5-2.15-1.75-4.3-2.66-2.53-2.94-4.23-1.13-6.6 1.01-1.24 1.52-1.47 3.1-1.19 1.02.23 1.98.12 2.2-.22.17-.28 1.19-.57 2.26-.57 1.08 0 2.1-.28 2.26-.56.62-.96 1.41-.62 1.98.85z"/>
      <path d="M169.8 305.34c1.7 1.86 2.2 4.06 1.25 5.58-.51.74-.96 2.43-.96 3.73-.17 4.18 2.09 16.54 5.2 28.34.61 2.49 1.57 8.3 2.08 12.93.9 7.68 1.07 8.41 2.2 8.92a4.1 4.1 0 011.87 2.31 3.65 3.65 0 01-3.5 4.86c-3.05-.11-7.29-1.3-7.9-2.26-.8-1.3 0-3.78 1.35-4.18.79-.28 1.01-.67.79-1.3a60.3 60.3 0 01-1.13-5.87 60.43 60.43 0 00-2.71-10.16c-2.82-7.5-6.1-18-6.04-19.53 0-.68-.4-2.2-.9-3.39-1.64-3.9-3.05-8.52-3.05-9.94 0-1.07-.4-1.52-1.36-1.8-1.7-.4-3.39-2.2-2.88-3.05.17-.28.45-1.3.62-2.15.45-2.54.62-2.76 2.83-3.21 1.8-.34 2.25-.17 3.1.96.96 1.24 1.07 1.24 1.75.28 1.47-1.92 5.99-2.66 7.4-1.07z"/>
      <path d="M196.34 372.86c.68.45 2.88 1.13 4.91 1.46 1.98.34 4.07.9 4.58 1.13 1.69.9.95 2.88-1.76 4.8-1.4.96-2.93 2.6-3.38 3.56-.8 1.75-1.02 1.86-3 1.52-5.02-.73-8.86-4.18-8.86-7.9.06-1.86.74-3 2.82-4.4 1.7-1.19 3.05-1.25 4.7-.17z"/>
      <path d="M179.4 375.45c3 3.33 1.47 6.66-4.4 9.54-4.29 2.15-4.85 1.98-6.6-2.14a26.86 26.86 0 00-2.2-4.07c-.97-1.35-1.02-1.63-.29-1.63.5 0 .9-.34.9-.8 0-.78 3.4-2.3 6.21-2.82 2.66-.45 4.8.23 6.38 1.92z"/>
      <path d="M164.9 379.52c.9 1.35 2.2 3.55 2.87 4.97l1.25 2.54-1.53 1.24c-.84.62-3.1 2.03-5.08 3.05l-3.61 1.8-1.3-1.63c-.73-.9-1.7-2.43-2.03-3.33-.4-.96-1.19-2.32-1.75-3.05-1.75-2.26-1.36-3.9 1.13-4.58a32.5 32.5 0 004.63-1.92 20.45 20.45 0 013.16-1.4c.34-.06 1.35 1 2.25 2.3z"/>
      <path d="M211.58 379.24c1.64.5 3.9 1.52 5.03 2.25 2.09 1.25 2.09 1.3 1.3 3.1-.46 1.14-1.25 1.93-1.92 2.04-1.19.17-1.7 1.24-.62 1.24.33 0 .56.29.56.57 0 .9-2.37 3.95-3.05 3.95-.28 0-3.05-1.19-6.1-2.65-5.36-2.54-5.58-2.77-5.41-4.35.1-1.24.95-2.32 3.55-4.35a53.23 53.23 0 013.56-2.7c.11-.06 1.52.39 3.1.9z"/>
      <path d="M151 382.51c0 1.02-1.4 1.75-4.45 2.48-3.16.68-2.88-.1.67-1.8 3.5-1.75 3.79-1.75 3.79-.68z"/>
      <path d="M226.26 383.8c2.37 1.02 2.37 1.08 1.07 1.76-1.12.62-1.8.5-4.4-.51-1.7-.68-3.05-1.47-3.05-1.64 0-1.52 2.37-1.35 6.38.4z"/>
      <path d="M152.53 385.9c.23.73-4.18 2.54-6.2 2.54-2.6 0-1.76-1.47 1.46-2.37 3.22-.96 4.46-1.02 4.74-.17z"/>
      <path d="M224.4 387.03c1.7.9 2.26 1.97 1.02 1.97-1.2 0-6.67-1.97-6.67-2.43 0-.73 3.96-.4 5.65.46z"/>
      <path d="M154 388.72c.11.79-5.14 3.22-6.55 3-2.2-.35-1.52-1.3 1.7-2.55 3.44-1.3 4.68-1.41 4.85-.45z"/>
      <path d="M222.42 389.57c2.66 1.13 3.16 2.37 1.08 2.7-1.25.18-6.44-1.97-6.44-2.65 0-1.52 1.92-1.52 5.36-.05z"/>
      <path d="M155.35 391.6c.23.79-6.2 3.1-6.83 2.48-.67-.67-.73-.62 2.77-2.09 2.93-1.24 3.78-1.3 4.06-.4z"/>
      <path d="M223.16 394.93c-.29 1.75-1.92 1.64-4.8-.4-1.53-1.01-2.82-1.91-2.94-1.97-.05-.06 0-.34.17-.68.23-.34 1.75-.06 4.01.68 3.05 1.02 3.67 1.47 3.56 2.37z"/>
      <path d="M157.1 394.2c-.33 1.07-5.3 3.5-6.32 3.1-1.47-.56-1.07-1.41 1.24-2.6 2.37-1.3 5.42-1.58 5.08-.5z"/>
      <path d="M215.08 394.65c.17.28.62.4 1.02.22.4-.1 1.7.8 2.94 2.04 1.92 1.92 2.03 2.25 1.01 2.25-1.8 0-6.32-3.27-6.38-4.68 0-.57 1.02-.51 1.41.17z"/>
      <path fill="#fff" d="M176.3 93.51c2.7 1.87.62 5.31-3.28 5.31-2.14 0-4.51-1.47-4.51-2.7 0-.86 2.03-2.44 3.72-2.94 2.38-.68 2.66-.68 4.07.33z"/>
      <path fill="#fff" d="M194.3 94.42c1.59 1.47 1.65 2.76.23 4.06-.79.74-1.58.9-2.82.62-2.65-.56-5.02-4.17-3.61-5.53.9-.9 4.91-.34 6.2.85z"/>
      <path d="M183.41 104.18a.98.98 0 01-.56 1.25c-1.07.4-1.58-.12-1.19-1.25.45-1.07 1.3-1.07 1.75 0z"/>
  </g>
</svg>
