<svg xmlns="http://www.w3.org/2000/svg" fill="#d7374a" stroke="#000" viewBox="50 50 200 200">
  <metadata source="https://freesvg.org/white-skull-1635536980" license="https://creativecommons.org/publicdomain/zero/1.0"/>
  <g id="skull" stroke-width=".15">
    <path fill="#362e2c" stroke="none" d="m87.73 123.9 5.49.45 4.8 1.03 4.29-.24 3.98-.72 5.21-.59 1.13-.58s.35 1 .28 1.37c-.1.41-2.13 1.51-2.13 1.51l-4.6.76h-4.6l-2.84-.18-3.02-.27-6.51-.45z"/>
    <g fill="#f6f6f6" stroke="#362e2c" stroke-linejoin="round">
      <path d="M106.46 119.4c-.17.04-.52.52-.69.76-.17.2-.34.93-.34 1.24 0-.1-.1-.24-.34-.62-.24-.34-.72-.45-1.14-.41-.54.07-.54.89-.68.96-.1.1 0 .62.07.93.17.68.07 1.71.03 1.37-.07-.72-.48-2-.51-2.27-.07-.55-.1-1.27-1.1-1.33-.79 0-1.17 1.23-1.3 1.74-.1.42-.59 2.4-.59 2.82 0 .44-.07 1.03 0 1.2.07.2.24.44.8.48.54.07 1.8.14 2.4-.2.1-.08.3-.35.44-.7.1.42.3.59.51.66.2.03.8-.04 1.3-.1.52-.1.7-.52.62-1.24.18.27.52 1.51 1.65 1.44.79-.07.79-.48.9-.79.1 0 .1-.79.13-.58.1.68-.2 1.1.58.82.31-.14.83-.55.86-1 .07.04.2.18.34.18.17 0 .59-.17.69-.28.03.07.38.24.72.21.34-.03.75-.62.75-.96l.42-.03c.2-.07.48-1.14.4-1.82 0-.45-.23-.96-.44-1.37v.13s0 .07-.07.07v.04l-.1.1-.07.1-.14.14c0 .07-.07.1-.1.17v.03l-.07.04v.07l-.07.03v.52l.04.1v.1l.03.1.04.1.03.11.07.14v.86l-.04.06v-.51l-.03-.1-.03-.1-.04-.1-.03-.08-.04-.1-.07-.2-.06-.18-.07-.13v-.07l-.04-.1v-1.2l-.03-.14H112v-.07l-.34.4c-.1.15-.14.21-.27.21h-1.1c-.17.1-.27.1-.38 0-.1-.13-.1 0-.24.04-.17.1-.44.24-.44-.07.03-.27-.35-.48-.62-.45l-1.03.35c0-.1-.24-.55-.38-.9-.13-.27-.48-.58-.68-.58zm-18.7 5.15c-.13.07-.13.38-.27.8-.14.5-.17 1.43 0 1.57h.96c.1 1.13.34 1.13.79 1.23.45.07 1-.2 1-.2s.06.51.2.58c.17.04.75 0 1.3-.2.07.13.55.75.8.79.23 0 .58-.59.78-.76.17-.2.48-.1.55.07.07.14.48 1.78.69 1.85a12.04 12.04 0 0 0 1.37-2.91c.14-.48.07-1.03.03-1.38 0-.06-.07-.17-.17-.2l-.17.03c-.2.07-.79 0-1.3-.1-.18 0-.31-.14-.42-.28-.1.07-.17.18-.34.25l-1.65-.31c-.3-.07-.54 0-.92.24-.17-.07-1-.07-1.4-.2a1.92 1.92 0 0 0-.9-.15c0-.13-.45-.58-.72-.68h-.2z"/>
      <path d="M112.9 124.31h-.13c-.24.17-.69.65-.69.83-.3 0-.65-.1-1.1 0-.47.06-.68.44-.85.51l-.76-.17-.2.1c-.35.14-.48.1-.52 0l-.3.07c-.07.24-.25.45-.8.48-.44.04-.78-.14-1.02-.38h-.04c-.51.1-1.1.14-1.1.52 0 .34-.13 1.03-.24 1.61-.1.51-.1.96.24 1.68.42.79.76 1.51 1.14 1.48.13-.04.61-2.2.68-2.37 0-.14.35-.28.55-.1.17.17.58.72.82.68.24-.03.7-.68.7-.86.6.18 1.2.18 1.33.1.14-.1.17-.61.17-.61s.58.27 1.03.14c.38-.1.65-.14.68-1.3l.9-.07c.17-.14.07-1.07-.1-1.58-.18-.45-.21-.76-.38-.8zm-16.66 1.24-.07.03v1.37c0 .48.1 1.72.41 2.3.14.52.27.76.41.76.1 0 .55-.9.69-1.27.1-.41.3-.41.4-.65a5.83 5.83 0 0 0 .32-1.75 5.5 5.5 0 0 1-1.96-.28 1.3 1.3 0 0 1-.2-.48z"/>
      <path d="M99.63 125.79c-.03.2-.24.44-.75.51l-.24.04a3.43 3.43 0 0 0-.07.61c0 .42.27 1.65.41 2.27 0 0 .07.44.28.51.2.07.51.04.65-.2.13-.2.58-1.3.61-1.48l.21-1.5v-.25h-.1c-.55-.07-.72-.3-.8-.48h-.16zm3.64.07h-.1c-.04.1-.07.17-.14.2-.52.31-1.68.28-2.27.24-.06.35-.1 1-.06 1.13l.13.62.07.69c0 .27.38 1 .62 1 .27 0 .86-.66.93-1.07.03-.45.24-.86.27-.93.07.35 0 1.03 0 1.1 0 .1.45.41.51.62.07.2.18.68.35.75.13 0 1.03-1.16 1.1-1.44l.44-1.13c.07-.07.27-.86.24-1.3 0-.14.07-.35-.03-.45h-.04c-.51.1-1.1.17-1.3.1l-.28-.13h-.44z"/>
      <path d="M93.01 119.4c-.17 0-.58.25-.75.56-.17.34-.28.85-.35.96-.24-.1-.72-.31-.99-.35-.24-.06-.62.18-.62.45 0 .3-.27.14-.4.07-.18-.07-.15-.17-.25-.07-.14.14-.24.14-.38.07-.13-.07-.55-.07-.68-.07-.14 0-.31.07-.45.03-.14 0-.17-.06-.3-.24-.14-.13-.25-.96-.49-.68-.27.2-.72 1.13-.79 1.82-.06.68.21 1.78.42 1.81.2.07.34 0 .44.07-.03.35 0 .69.34.72.35.04.62 0 .7-.07.1.1.47.28.68.28.13 0 .27-.1.34-.17 0 .48.14.68.45.68.34 0 .82-.34.99-.48.14-.17.55-.17.62-.13.1.34.48.68.89.68.41.04.9-.3 1.1-.58v-.41l.34-3.09c0-.07.07-.1.17-.1-.07-.35-.2-.76-.34-.93-.17-.24-.48-.79-.65-.82zm5.08.7c-.96.06-1.03.92-1.13 1.43a10.53 10.53 0 0 1-.45 1.38.88.88 0 0 1-.03-.69c.03-.34.24-.82.1-.93-.1-.06-.82-.85-1.03-.89-.2-.07-.9 0-1.13.38l-.24.41h.07c.17 0-.14.52-.24.72-.1.2-.28 1.65-.35 2.4 0 0 0 .31-.06.41.17.38.24.9.72.97.51.1 1.1.17 1.3.13a1.72 1.72 0 0 0 .58-.3c.07.23.17.44.24.5.28.21 1.89.35 2.4.28.55-.07.76-.34.8-.51.06-.2 0-.96 0-1.37 0-.45-.42-2.4-.38-2.75 0-.3-.35-1.58-1.17-1.58z"/>
    </g>
    <g stroke-width=".22" stroke="#362e2c" stroke-linejoin="round">
      <path d="M121.93 111.45a19.31 19.31 0 0 1-4.5.55l-.54.07c-1.14 2.7-1.82 4.29-2.13 5.18-.48 1.4-.69 2.78-.82 3.26-.1.34-.1 3.01-.59 4.87.14.51.17 1.16.04 1.27l-.55.06h-.35l-.03.45c-.07.75-.34.79-.69.9-.17.03-.37 0-.54 0h-.45c0 .13-.07.4-.17.44-.14.1-.69.1-1.24-.07l-.1.07c-.14.24-.48.75-.69.79-.2 0-.58-.41-.78-.66a.34.34 0 0 0-.42-.1c-.1.04-.17.1-.17.17-.07.14-.51 2.34-.68 2.34-.35.06-.69-.69-1.14-1.48l-.37-.96h-.24l-.07.2c-.1.28-1 1.45-1.17 1.41-.13 0-.24-.55-.34-.75-.03-.2-.45-.52-.45-.59v-.27h-.3v.07c-.07.45-.66 1.06-.9 1.06s-.65-.68-.61-1.03v-.1h-.55l-.41.93c-.14.24-.45.27-.7.2-.16-.07-.23-.51-.23-.51l-.14-.62h-1.13l-.03.1c-.1.42-.59 1.27-.69 1.27-.1 0-.27-.2-.38-.72-.1-.17-.17-.4-.24-.68h-.86l-.24.55c-.34.68-.58 1.2-.75 1.16-.14-.07-.48-1.37-.62-1.78-.07-.2-.24-.24-.27-.24-.17 0-.28 0-.38.17-.2.24-.48.69-.68.69-.28-.07-.76-.7-.83-.83-.55.24-1.13.28-1.27.2-.17-.06-.24-.58-.24-.58s-.55.31-1 .24c-.4-.1-.68-.1-.78-1.26h-.93c-.17-.1-.17-1.03 0-1.58.1-.38.14-.69.24-.76-.34-.03-.34-.4-.34-.75l-.41-.04c-.2-.06-.48-1.13-.45-1.81v-.04c-.2-.58-.34-1.1-.37-1.3-.14-.45-.83-1.54-1.38-2.3-.58-.75-.27-3.4-.96-6.1-.34-.14-.68-.21-1.1-.21-1.13 0-2.6-.14-3.94-.41 1.03 6.2 2.06 9.84 2.37 10.53.24 1.37-.28 7.75.24 9.33.48 1.58 3.02 3.26 3.63 3.87.66.59 7.55 4.67 10.74 4.67 3.12 0 4.6-.1 4.6-.1s1.44.13 4.56.1c3.15 0 10.08-4.08 10.73-4.67.62-.61 3.16-2.3 3.64-3.87.51-1.58.2-7.14.45-8.58.27-.61 1.16-5.59 2.16-11.42zm-33.48 13.03c-.03.07-.24.1-.51.07.3.14.72.59.75.69.28 0 .41 0 .76.1a13.72 13.72 0 0 0-.9-.79l-.1-.07z"/>
      <path d="M100.15 59.93C88.38 60 81.83 66.8 78.4 70.73c-3.43 3.88-5.62 10.64-5.62 18.73 0 6.04 3.9 6.14 3.84 8a14.75 14.75 0 0 1-2.06 6c-.9 1.3-.41 4.8.9 6.48 1.3 1.61 4.93 2.06 7.3 2.06 2.36.03 3.84 2.37 4.73 4.29.9 1.92-2.2 3.08-.14 3.8.24-.24.35.59.48.72.14.18.17.24.35.24.1.04.27-.03.4-.03a2.74 2.74 0 0 1 .7.07c.13.07.23.07.34-.07.13-.1.1 0 .27.07.14.07.41.24.41-.07 0-.3.35-.51.62-.45.27.04.75.24 1.03.35.03-.1.14-.65.34-.96.14-.31.55-.59.72-.55h.04c.17 0 .48.58.65.82s.34.86.34 1.17l.38-.62c.24-.38.92-.45 1.13-.41.2.07.93.86 1.03.92 0 0 .27-.24.45-.17.06-.51.1-.96 1.06-1.03.44 0 .79.42.96.83.1.24.2.27.38.27h1.2c.2-.58.55-1.16 1.13-1.16.96.06 1.03.78 1.1 1.33l.13.04c.14 0 .24-.07.35-.17.07-.21.13-.83.61-.86.38-.04.9.03 1.1.41l.07.1.38-.03a2.06 2.06 0 0 1 .27-.72c.17-.2.52-.69.69-.72.2 0 .55.27.68.58l.35.76h.1l.27.03.69-.24c.27-.03.69.17.62.48 0 .27.3.14.44.07s.14-.2.24-.07c.1.1.24.1.35.03.17-.06.58-.06.68-.06l.45.06c.17-.03.17-.06.34-.24 0-.06.1-.17.24-.34l.1-.14c.21-.24.45-.44.59-.34 0 .07.07.1.1.14l.14-.04c1.13-.44-.65-2.4.07-3.94.89-1.92 2.16-4.12 4.52-4.15 2.34-.03 5.97-.45 7.28-2.06 1.33-1.68 1.81-5.14.92-6.52a14.75 14.75 0 0 1-2.06-6c-.1-1.85 3.6-2.54 3.81-7.99.34-8-1.92-15.02-5.35-18.93a28.02 28.02 0 0 0-21.88-10.57Z"/>
    </g>
    <g fill="#000" opacity=".2" stroke="none">
      <path d="M117.54 133.75a13.38 13.38 0 0 0 1.5-1.72 2.74 2.74 0 0 0 .35-.93c.07-.1.07-.27.1-.4l.07-1.04.07-1.23v-3.8l.07-1.04c0-.27 0-.51.07-.68l.1-.45.2-.79a104.86 104.86 0 0 0 1.14-6.03l.68-4.19a13.48 13.48 0 0 1-2.26.41l-1.17.1-1.03.04-.54.07-1.38 3.26a44.9 44.9 0 0 0-1.03 2.95l-.27.96-.27 1.27-.07.65-.07 1.2a25.59 25.59 0 0 1-.41 2.95c.1.3.24 1.13.44 1.3 1.07.62 1.75.45 1.82-.24.1-.68.27-4.5.34-5.42.1-.92.93-6.38 1.2-6.62.28-.24.69-.1.59.55-.1 1.1 0 5.35.03 6.17 0 .76-.62 5.05-.62 5.25 0 .24-.54 3.2-.44 4.4.07.85.38 2.3.82 3.05zm6.3-37.22v-.03l.15-.18.13-.13c0-.07.07-.1.1-.17l.18-.14.3-.34.35-.35.14-.2.2-.17.17-.21a5.63 5.63 0 0 0 .35-.48l.17-.24.17-.28.17-.27.14-.27.07-.18.07-.13.06-.17.07-.18.07-.17.07-.17.07-.2.03-.18.07-.2.04-.2.03-.21.07-.2v-.25l.07-.2v-.25l.07-.24v-.48l.06-.75v-2.23l-.03-.69-.07-.75-.03-.69-.1-.68-.07-.69-.1-.68-.14-.69a37.46 37.46 0 0 0-1.34-4.94 82.66 82.66 0 0 0-.93-2.2 19.96 19.96 0 0 0-.51-.99l-.28-.48-.27-.45a31.86 31.86 0 0 0-.28-.44l-.17-.2-.13-.25a6.1 6.1 0 0 0-.45-.58l-.17-.2a5.76 5.76 0 0 0-.35-.35 54.74 54.74 0 0 0-1.02-1.2l-.18-.17v.1c.1.82 1.17 2.33 1.27 3.43.1 1.13.45 3.36.59 4.7.17 1.3-.1 2.92-.69 3.91-.58 1.03-1.71 3.09-1.47 4.73.27 1.69 2.12 6 2.57 7.31.44 1.23.3 2.85.75 3.19zm-47.8-.24h.17l.06-.07.07-.07.1-.1.07-.1.07-.1.1-.14a2.71 2.71 0 0 0 .18-.28l.07-.13.1-.18.07-.13.17-.35.17-.34a60.13 60.13 0 0 0 .27-.69l.14-.34.28-.62.17-.48.07-.1-.18.31-.1.2-.14.21a10.15 10.15 0 0 1-.51.93l-.07.07-.07.1-.07.07-.06.07-.07.06-.04.04-.07.03h-.34l-.07-.03-.07-.04-.06-.03-.1-.03-.08-.04-.1-.07-.1-.07-.07-.06c-.03 0-.07 0-.1-.07l-.07-.07-.1-.07-.07-.1-.1-.1-.07-.1-.1-.15-.08-.13-.06-.1-.07-.18a3.94 3.94 0 0 1-.18-.48v-.17l-.06-.2a3.46 3.46 0 0 1-.04-.38v-1.4l.07-.49.03-.44.07-.48.07-.45.07-.45.07-.44.1-.86.07-.41.07-.41.03-.35.07-.4a98 98 0 0 1 0-.52v-.17l.04-.35v-.27l.03-.24v-.24l.07-.41a7.55 7.55 0 0 0 .03-.59v-.92a38.1 38.1 0 0 1-.1-1.03l-.03-.34a69.97 69.97 0 0 0-.17-1.14l-.04-.17-.03-.17-.07-.14v-.17l-.07-.13-.07-.14a3.77 3.77 0 0 0-.1-.24l-.04-.14a2.06 2.06 0 0 0-.2-.27l-.07-.07h-.04a36.12 36.12 0 0 0-2.05 12.35c0 4.6 2.26 5.76 3.32 6.86zm3.08 6.31c1.03 1.48 1.89 1.92 2.95 2.2l3.95.89c.34.03-1.62.27-2.4.24-1.41-.1-3.44-.38-4.12-1-.69-.61-1.27-3.67-.34-2.33zm30.29 3.88c2.23-.2 7.2-.8 8.4-1.65s2.57-1.3 2.75-3.43c.13-2.2.75-4.05.82-3.02.03 1.03.48 3.57.2 4.12-.27.55-1.71 3.5-3.73 3.74-2.03.2-7.65 1.03-8.44.24z"/>
      <path d="M120.11 111.83h.07l.24-.07h.27l.28-.07.24-.07.27-.03.24-.07.24-.07.28-.07.24-.07.2-.1.24-.07.24-.1.2-.1.11-.04.1-.07.1-.03.11-.07.07-.07.1-.03.1-.07.07-.07.1-.07.07-.07c.04 0 .07 0 .07-.07.04 0 .07 0 .1-.06l.07-.07.07-.07.07-.07.04-.07c.06-.03.06-.07.06-.1l.07-.07.07-.07.04-.1.13-.17a3.36 3.36 0 0 0 .2-.38l.08-.2.1-.21.07-.2.1-.25.07-.2.07-.24.03-.24.07-.21.04-.24.06-.24v-.24l.07-.24v-.24c0-.07 0-.14.07-.2v-.9l-.03-.2-.04-.2-.03-.18-.04-.2-.03-.08-.03-.1-.04-.07-.03-.07-.04-.1-.03-.07-.04-.07-.03-.06-.07-.07v-.07c-.07 0-.07-.07-.1-.1l-.1-.14-.07-.17-.1-.14-.07-.17-.1-.17-.08-.17-.1-.18-.07-.17-.1-.2-.07-.17-.1-.21-.07-.2-.07-.21-.1-.2c0-.08 0-.15-.07-.21l-.07-.21-.07-.2-.07-.21-.06-.2c0-.08 0-.14-.07-.21l-.04-.2-.07-.21-.03-.24-.07-.18v-.2l-.07-.17a.4.4 0 0 0-.34-.04c-.76.14-.1 3.2-.34 4.56a10.29 10.29 0 0 1-1.62 4.4 5.14 5.14 0 0 0-1.23 4.45zm-11.94 1.03c.24 1.85 1.55 6.3 1.75 6.41.24.14.93.79 1.37.76.48 0-.85-1.45-1.13-2.23-.86-2.37-1.92-4.8-1.82-7.31.04-.82 1.48-2.98.83-2.3a6.02 6.02 0 0 0-1.27 2.4c0 .31 0 .41.27 2.27zm-18.24 5.93c.68-2.57 1.78-5.25 1.95-7 .17-1.71.55-.79.45.04a25.55 25.55 0 0 1-.8 4.29c-.27.37-.78.92-.92 1.64-.14.69.41.48.76 0 .34-.48 1.03-2.26 1.71-2.4.69-.14-.1 2.33-.3 2.57-.18.24.37-.07.82.28.48.3-.28.34-.69.4-.34.04-.76.08-1.17.56-.4.51-1.5.86-1.71.55-.24-.28-.34-.48-.1-.93zm4.49.17c.68.1.75.2.96.41.2.18.24-.13.58-.13s1.58-.07 1.89-.2c.34-.18-.52-.42-1.1-.49-.58-.03-2.2-.48-2.4-.27-.24.2-.24.48.07.68zm8.27-1c.4.83.96 1.38 1.2 1.41.2.07.37-.17.34-.34-.1-.17.96-.14 1.16-.2.24-.07 1.27-.7.76-.83-.52-.14-1.75-.68-2.06-1.27-.27-.61-1.23-1.5-1.37-.82-.17.69-.2 1.92 0 2.06zm6-.03c.1.59.34 1.58.62 1.72.27.1-.07-1.03-.18-1.37-.07-.35-.55-1.72-.75-1.68-.2.06.2.75.3 1.33zm3.02 1.89c.1-.45.24-2.2 0-2.78-.21-.62-.8-1.37-.38-1.37.34 0 .92.1.96.27 0 .21-.07 1.38 0 1.86.07.48.55 1.2.34 1.44-.14.2-.34.79-.89.58zm-32.86-8.23c.48.51 1.16.62 2.23.79 1.1.17.92.51.92.85a44.86 44.86 0 0 0 3.09 12.28c.55 1.17 1.3.96 1.82.83.48-.14.27.58.55.75.34.24.58.07.89.07 0 .14 0 .9.27 1.17.31.24.83.1 1.13.03.28-.07.35-.14.52-.2v-.18h-.17l-.38.14c-.14.07-.34.07-.69.03-.24 0-.34-.17-.4-.37-.08-.2-.15-.45-.18-.9h-.14c-.07 0-.13.04-.27 0h-.52c-.2-.1-.17-1.02 0-1.54.1-.41.1-.68.24-.79-.34-.03-.37-.4-.34-.75l-.44-.04c-.21-.06-.48-1.13-.42-1.81v-.07l-.27-.83c-.17-.89-1.03-2.05-1.58-2.88a6.17 6.17 0 0 1-.34-2.16c0-.58-.34-2.88-.52-3.8-.34-.14-.72-.21-1.1-.21-1.13 0-2.57-.1-3.9-.41zm8.91 12.96zm-7.95-37c.37-1.65-.83-5.08-1.4-6.35-.63-1.27-.94-2.5-1.1-2.27-.18.21.23 1.75.34 2.68.06.9-.42 2.43.17 3.53.62 1.1 1.64 2.71 1.44 3.26-.2.55.24-.1.55-.86zm1.92.44c1.71-.93 2.74-1.92 5.04-2.37 1.2-.24 3.4-.61 2.2-.68-1.2-.14-3.95.2-5.08.68a8.92 8.92 0 0 0-2.64 1.89c-.59.62-.59 1.13.48.48zm32.1-1.48c1.72.35 3.95.96 4.56 1.45.59.48 2.13 2.12 1.72 1.26a4.78 4.78 0 0 0-2.33-2.16c-.96-.3-2.06-.92-3.95-.55z"/>
      <path opacity=".15" d="M97.81 81.1c1.72.27 4.02-.59 5.97-2.17 1.92-1.57 3.47-5.14 1.68-4.49-1.81.62-4.66 3.02-5.96 3.02-1.27 0-3.57-1.03-4.94-2.2-1.27-1.02-2.1.07-1.38 1.27.69 1.2 3.3 4.4 4.63 4.57z"/>
    </g>
    <g fill="#362e2c" stroke-width=".07" stroke-linejoin="round">
      <path d="m84.47 105.62-.55.03-.68.04-.31.24-.07.38-.03.34-.24.17-.14.24-.17.17v.34l-.28.18a1.89 1.89 0 0 0 .1.61l-.3.2-.18.15-.06.27-.24.34v.18l-.28.34v.27l-.07.1.07.21.14.34.14-.68.1-.24.2-.17v-.2h.21l.34-.11-.2-.24.24-.1.34-.1v-.63l.14-.34-.07-.51.03-.2.35-.42.1-.24-.03-.2.1-.45.3-.17h.32l.4.13.8.04.37-.07-.89-.27zm33.38.51-.14.07-.04.35-.13.24.07.27.17.27.37.21-.06.34.17.69.24.34.27.38-.03.51-.1.35.13.44v-.37l.04-.18.1-.17v-.44l-.04-.28-.17-.1-.03-.14-.28-.34-.13-.2v-.9l-.24-.14-.2-.34-.08-.3.1-.32-.03-.24zm4.28-17.73.07-1.61.34-.31.35-.96.4-1.48.11-.34.52-1.16-.2 1.16-.32.86-.4 1.03.13.65-.55.69.34.48.48-.18.52.31.3-.4.49.03.48-.48v.58l-.76.17-.34.34-.69-.1-.89-.2v.4zm-21.74 7.41-.07-.93-.04-.51-.1-.34-.1-.59-.1-.85-.18-.69-.1-.93.45-.07v-.48l-.38-.27.27-.48.62.34-.41-.79-.79-.44.2-.45s-.1.14.25.24c.34.1.55.55.55.55l.4.82.08.35.3.27-.75-.07v.45l-.17.27-.28.1v.59l.1.69.14 1.02.21.7.03.47.04.34zm-.17 24.97c.03-.24.2-1.27 0-1.37-.28-.07-.35-.55-.35-.55l-.3-.28.4-.06.14.48.28.34.03.72v.55zm8.54 14.54c.03-.27.17-.61.44-.75.24-.14-.1.27-.14.44 0 .14 0 .35.14.52s-.41 0-.44-.2zm-17.15-.96c.17.24.24.62.17.69-.07.1-.07.38-.28.38-.24 0-.44-.14-.44-.14s.07-.14.34-.2c.27-.11.2-.28.17-.52-.07-.24-.24-.62 0-.2zm-4.67-26.92.52-.1.4-.35.25-.07.3-.1.32-.07.27-.24s.17-.14.27-.1l.42.1.4.1h.35l-.14.1-.27.04-.2-.14h-.35l-.17.04-.31.07-.17.1-.41.1-.31.1-.24.14-.14.04-.14.1-.17.17h-.24zm22.16-.69.55-.14.3-.2v-.28l.08-.37.13-.28.1-.2.28-.2s-.1-.25 0-.25l.34-.3-.13-.11-.18.03-.03.14-.1.14-.14.1.03.07-.06.14-.21.34-.1.34-.07.1v.35l-.1.24-.21.14-.34.06z"/>
    </g>
    <g fill="#69645d" stroke="none">
      <path d="M95.86 121.57c.24.62.38 1.85.34 2.23-.07.34-.07.86-.07 1.03l.14-1.03c0-.2.24-.69.24-.93 0-.3-.07-.58 0-.86.07-.34.14-.65.07-.68-.07 0-.3-.31-.34-.34-.07 0 0 .37-.35.58zm-4.12-.69-.27 1.38a30.63 30.63 0 0 0 .07 2.22v-.68s.07-1.61.13-1.89c.1-.24.35-.96.28-1.03h-.2zm-1.6.35-.63 2.98c0 .2.28-1.1.31-1.23 0-.18.41-1.75.35-1.75zm-.8-.07c0 .17-.62 1.23-.62 1.34-.03.06-.24.17-.24.78 0 .62 0 .52.07.18.04-.35.28-.83.42-1.03l.54-.8c0-.06.35-.5-.17-.47zm-1.3 0v.58c0 .1-.34.69-.41.79 0 .14-.2.58-.2.93 0 .34.13-.04.13-.21.03-.14.27-.93.41-1.03.1-.14.24-.48.24-.58 0-.07.07-.59 0-.59s-.07-.17-.17.1zm17.42.51c.17.45.17.59.31 1.03.04.28.17.79.17 1.03l-.03.96c.1-.34.1-.51.1-.58.04-.35.1-.41.07-.76a46.92 46.92 0 0 1-.48-1.95l-.14.27zm3.16 3.12c0-.34-.17-1.68-.24-1.85a14.4 14.4 0 0 0-.34-.96c0-.14-.31-.9-.28-1.03 0-.1.38-.27.41-.27.07 0 .14.4.07.61 0 .21.14 1.24.2 1.45.08.2.49 1.57.49 1.88 0 .28-.14.8-.17.93-.04.17-.14-.2-.14-.76zm1.1.35c.03-.14.1-.66.07-.76l-.52-2.78c-.1-.4-.14-.55 0-.4h.17c.04.1.04.75.1 1.02 0 .28.49 2.2.45 2.4-.03.2-.1.48-.27.52zm1.27-.59c0-.34-.1-2.02-.21-2.33-.14-.3-.3-.79-.27-.93.06-.13 0-.27.24-.27s.54 0 .44.1l-.44.62c0 .07.34.9.34 1.13v1.61l-.1.07zm.82 3.2c.2-.32.41-.62.41-.9 0-.41 0-.75-.07-1.1 0-.17-.14-.44-.17-.48-.03 0-.1-.13-.03-.13.06 0 .2 0 .2-.07 0-.1.07-.14.07.07 0 .2.14.61.1.89 0 .3.14.72.14.75 0 0-.03.96-.24 1.07-.24.1-.41.24-.41-.1zm-1.72-2.06.55 1.92c.04.17.07.27.17.3.07 0 .18-.1.1-.27-.06-.2-.64-1.85-.61-1.99.03-.14-.07-.07-.1 0h-.1zm-1.4.06c.2.42.44 1.72.48 1.96 0 .24.07.62.17.72.1.1 0-.1 0-.31 0-.2-.28-1.82-.24-1.99.07-.14.17-.55 0-.51-.14.03-.48 0-.45.13zm-1.37.42c.13.13.24.54.24.82 0 .24-.35 1.58-.38 1.71a3.19 3.19 0 0 0 .44-1.13c.04-.27.24-1.27.21-1.37-.03-.1-.51-.03-.51-.03zm-4.57 1.6c.04-.5.18-1.02.07-1.2-.13-.13-.17-.64.1-.47.28.2.1.44.1.75.04.34-.27.93-.27.93zm-10.08-2.05c.14.17.58.41.62.72.03.3.24 1.65.2 1.71 0 .07.17.07.2.07.04 0 .15-.13.11-.34 0-.2-.24-1.06-.2-1.2 0-.14.2-1.03.13-1.03h-.4l-.63-.1c-.03 0-.17.07 0 .17zm-2.1-.17a5 5 0 0 0-.34 1.2v.92c0 .07.14.1.1-.13 0-.24.04-.86.11-.96.03-.07.34-.69.55-.72.17-.04.3-.35.24-.35a1.03 1.03 0 0 0-.2.1zm1.62.17c-.48.38-1 .69-.96.96.07.27.75 1.54.65 1.58l-.41-.14c-.2-.1-.58-1.5-.34-1.82.27-.3.54-.55 1.06-.58z"/>
    </g>
    <g fill="#362e2c" stroke="none">
      <path d="M97.03 113.17c-2-1.62-3.78-2.82-2.27-6.49 1.48-3.63 3.4-6.62 4.05-7.82.1-.17.27-.34.34-.55.8-2.05 1.65-1.92 2.2 0l.48.69c1.03 1.54 3.26 5.21 3.77 7.65.58 2.64.41 5.32-1.54 6.28-2 .96-3.02.68-3.23-.07-.13-.59-.03-1.86-.68-1.86-.62 0-.45 1.03-.76 1.69-.4.82-1.03 1.2-2.4.48zm-16.2-10.77c1.58 1.64 3.33 2.95 6.39 1.68 3.01-1.27 7.06-4.3 7.58-5.7.51-1.4 1.16-4.9.13-6.82-1.03-1.92-2.23-4.12-4.04-3.91-1.82.24-7.31.79-9.81 2.84-2.54 2.06-1.03 5.97-.96 6.42.17 1.03-.45 3.87.72 5.49zm23.57-8.24c.24 4.7 2.3 8.51 7.03 9.74 4.73 1.2 7.1-1.26 7.41-1.78.34-.51.69-4.66.65-5.73-.03-1.06.83-4.11.69-4.46-.07-.44-2-3.22-4.8-3.8-2.78-.62-6.7-.96-8.03.24-1.34 1.23-3.09 3.43-2.95 5.8z"/>
    </g>
    <g fill="#181413" stroke="none">
      <path d="M104.4 94.16c.24 4.7 2.26 8.2 7 9.4 4.76 1.24 6.51-1.1 6.86-1.61.27-.52.61-4.5.58-5.52 0-1.03.79-3.95.69-4.36-.07-.34-1.38-3.36-4.12-3.94-2.81-.62-6.72-.96-8.06.24-1.34 1.23-3.09 3.43-2.95 5.8zm-23.12 8.24c1.55 1.71 3.09 2.57 6.14 1.3 3.02-1.27 6.86-3.91 7.38-5.32s1.16-4.9.13-6.82c-1.03-1.92-2.23-4.12-4.04-3.91-1.82.24-6.86.82-9.4 2.88-2.5 2.06-1.03 5.97-.96 6.45.17 1.02-.41 3.87.75 5.45zm15.75 10.39c-1.79-1.4-3.57-2.92-2.27-6.1 1.48-3.64 3.4-6.63 4.05-7.83.1-.17.27-.34.34-.55.8-2.05 1.65-1.92 2.2 0l.48.69c1.03 1.54 3.26 5.21 3.77 7.65.48 2.2 0 4.87-1.54 5.93-1.86 1.2-3.02.69-3.23-.1-.13-.58-.03-1.82-.68-1.85-.62 0-.45 1.03-.76 1.71-.4.8-1.03 1.17-2.4.45z"/>
    </g>
    <path fill="#69645d" stroke="#69645d" stroke-width=".19" stroke-linejoin="round" d="m111.95 120.44.03.07.03.13v1.2l.04.07v.07l.07.17.07.17.06.21.04.07.03.1.04.1.03.1.04.11v.51l.03-.06.03-.1v-.76l-.06-.17-.04-.07-.03-.1-.04-.1v-.11l-.03-.1v-.62h.07v-.07l.07-.07.1-.14.1-.13.1-.1.07-.1.04-.04.03-.04.04-.03v-.14l-.07-.07v-.07a1.72 1.72 0 0 0-.24-.34h-.17l-.07.07h-.07l-.07.07-.27.3z"/>
    <path fill="none" stroke="#362e2c" stroke-width=".22" stroke-linejoin="bevel" d="M100.15 59.93C88.38 60 81.83 66.8 78.4 70.73c-3.43 3.88-5.62 10.64-5.62 18.73 0 6.04 3.9 6.14 3.84 8a14.75 14.75 0 0 1-2.06 6c-.9 1.3-.41 4.8.9 6.48 1.3 1.61 4.93 2.06 7.3 2.06 2.36.03 3.84 2.37 4.73 4.29.9 1.92-2.2 3.08-.14 3.8.24-.24.35.59.48.72.14.18.17.24.35.24.1.04.27-.03.4-.03a2.74 2.74 0 0 1 .7.07c.13.07.23.07.34-.07.13-.1.1 0 .27.07.14.07.41.24.41-.07 0-.3.35-.51.62-.45.27.04.75.24 1.03.35.03-.1.14-.65.34-.96.14-.31.55-.59.72-.55h.04c.17 0 .48.58.65.82s.34.86.34 1.17l.38-.62c.24-.38.92-.45 1.13-.41.2.07.93.86 1.03.92 0 0 .27-.24.45-.17.06-.51.1-.96 1.06-1.03.44 0 .79.42.96.83.1.24.2.27.38.27h1.2c.2-.58.55-1.16 1.13-1.16.96.06 1.03.78 1.1 1.33l.13.04c.14 0 .24-.07.35-.17.07-.21.13-.83.61-.86.38-.04.9.03 1.1.41l.07.1.38-.03a2.06 2.06 0 0 1 .27-.72c.17-.2.52-.69.69-.72.2 0 .55.27.68.58l.35.76h.1l.27.03.69-.24c.27-.03.69.17.62.48 0 .27.3.14.44.07s.14-.2.24-.07c.1.1.24.1.35.03.17-.06.58-.06.68-.06l.45.06c.17-.03.17-.06.34-.24 0-.06.1-.17.24-.34l.1-.14c.21-.24.45-.44.59-.34 0 .07.07.1.1.14l.14-.04c1.13-.44-.65-2.4.07-3.94.89-1.92 2.16-4.12 4.52-4.15 2.34-.03 5.97-.45 7.28-2.06 1.33-1.68 1.81-5.14.92-6.52a14.75 14.75 0 0 1-2.06-6c-.1-1.85 3.6-2.54 3.81-7.99.34-8-1.92-15.02-5.35-18.93a28.02 28.02 0 0 0-21.88-10.57Z"/>
    <path fill="none" stroke="#362e2c" stroke-width=".22" stroke-linejoin="bevel" d="M121.93 111.45a19.31 19.31 0 0 1-4.5.55l-.54.07c-1.14 2.7-1.82 4.29-2.13 5.18-.48 1.4-.69 2.78-.82 3.26-.1.34-.1 3.01-.59 4.87.14.51.17 1.16.04 1.27l-.55.06h-.35l-.03.45c-.07.75-.34.79-.69.9-.17.03-.37 0-.54 0h-.45c0 .13-.07.4-.17.44-.14.1-.69.1-1.24-.07l-.1.07c-.14.24-.48.75-.69.79-.2 0-.58-.41-.78-.66a.34.34 0 0 0-.42-.1c-.1.04-.17.1-.17.17-.07.14-.51 2.34-.68 2.34-.35.06-.69-.69-1.14-1.48l-.37-.96h-.24l-.07.2c-.1.28-1 1.45-1.17 1.41-.13 0-.24-.55-.34-.75-.03-.2-.45-.52-.45-.59v-.27h-.3v.07c-.07.45-.66 1.06-.9 1.06s-.65-.68-.61-1.03v-.1h-.55l-.41.93c-.14.24-.45.27-.7.2-.16-.07-.23-.51-.23-.51l-.14-.62h-1.13l-.03.1c-.1.42-.59 1.27-.69 1.27-.1 0-.27-.2-.38-.72-.1-.17-.17-.4-.24-.68h-.86l-.24.55c-.34.68-.58 1.2-.75 1.16-.14-.07-.48-1.37-.62-1.78-.07-.2-.24-.24-.27-.24-.17 0-.28 0-.38.17-.2.24-.48.69-.68.69-.28-.07-.76-.7-.83-.83-.55.24-1.13.28-1.27.2-.17-.06-.24-.58-.24-.58s-.55.31-1 .24c-.4-.1-.68-.1-.78-1.26h-.93c-.17-.1-.17-1.03 0-1.58.1-.38.14-.69.24-.76-.34-.03-.34-.4-.34-.75l-.41-.04c-.2-.06-.48-1.13-.45-1.81v-.04c-.2-.58-.34-1.1-.37-1.3-.14-.45-.83-1.54-1.38-2.3-.58-.75-.27-3.4-.96-6.1-.34-.14-.68-.21-1.1-.21-1.13 0-2.6-.14-3.94-.41 1.03 6.2 2.06 9.84 2.37 10.53.24 1.37-.28 7.75.24 9.33.48 1.58 3.02 3.26 3.63 3.87.66.59 7.55 4.67 10.74 4.67 3.12 0 4.6-.1 4.6-.1s1.44.13 4.56.1c3.15 0 10.08-4.08 10.73-4.67.62-.61 3.16-2.3 3.64-3.87.51-1.58.2-7.14.45-8.58.27-.61 1.16-5.59 2.16-11.42zm-33.48 13.03c-.03.07-.24.1-.51.07.3.14.72.59.75.69.28 0 .41 0 .76.1a13.72 13.72 0 0 0-.9-.79l-.1-.07z"/>
    <path fill="none" stroke="#362e2c" stroke-width=".07" stroke-linejoin="round" d="M106.46 119.4c-.17.04-.52.52-.69.76-.17.2-.34.93-.34 1.24 0-.1-.1-.24-.34-.62-.24-.34-.72-.45-1.14-.41-.54.07-.54.89-.68.96-.1.1 0 .62.07.93.17.68.07 1.71.03 1.37-.07-.72-.48-2-.51-2.27-.07-.55-.1-1.27-1.1-1.33-.79 0-1.17 1.23-1.3 1.74-.1.42-.59 2.4-.59 2.82 0 .44-.07 1.03 0 1.2.07.2.24.44.8.48.54.07 1.8.14 2.4-.2.1-.08.3-.35.44-.7.1.42.3.59.51.66.2.03.8-.04 1.3-.1.52-.1.7-.52.62-1.24.18.27.52 1.51 1.65 1.44.79-.07.79-.48.9-.79.1 0 .1-.79.13-.58.1.68-.2 1.1.58.82.31-.14.83-.55.86-1 .07.04.2.18.34.18.17 0 .59-.17.69-.28.03.07.38.24.72.21.34-.03.75-.62.75-.96l.42-.03c.2-.07.48-1.14.4-1.82 0-.45-.23-.96-.44-1.37v.06-.1c-.2-.55-.45-.89-.9.04h-.03l-.03-.07-.3.34c-.15.17-.18.24-.32.24h-1.1c-.13.1-.27.1-.37 0-.1-.14-.1 0-.24.03-.14.1-.45.24-.45-.06.04-.28-.34-.48-.62-.45l-.99.34-.41-.89c-.14-.27-.48-.58-.69-.58z"/>
  </g>
</svg>
