<svg xmlns="http://www.w3.org/2000/svg" fill="#d7374a" stroke="#000" viewBox="50 50 200 200">
<metadata source="https://commons.wikimedia.org/wiki/File:72_%D0%9E%D0%9C%D0%91%D1%80.svg" author="Inkscape'r" license="https://creativecommons.org/publicdomain/zero/1.0"/>
  <g id="skull2" stroke-width=".3" transform="translate(37 17) scale(1.8)" >
    <path d="M35 25c-2.8 0-5.33.45-7.58 1.74a16.43 16.43 0 00-6.24 6.66c-2.36 4.88-2.1 8.92.06 12.18 1.19-1.51 2.2-3.07 1.6-5.06a3.82 3.82 0 010-2.64c.13 1.97 1.75 3.8.46 6.03-1.2 2.1-2.3 3.87-2.02 5.81a7.4 7.4 0 001.13 2.83c.21.36-.1.35-.48.36-1.29.03-2.2.97-2.54 2.05-.06.2.02.44.16.6l.75.84c.28.31.4.62.46.92a1 1 0 00.52.73c1.24.58 2.64-.14 3.53-.9.26-.23.56-.2.81-.19.9.06 1.8.04 2.72.58.13.08.26.1.38.01.39-.24.64-.32.94-.46.22-.52.58-.87.95-1.2-.35.66-.6 1.26-.79 2.05-.02.07-.04.15-.09.15h-.15a.22.22 0 00-.19.1c-.25.36-.33.75-.4 1.14-.02.1-.03.21-.12.23-.1.01-.14.02-.15.1-.16 1.03 0 2.17-.12 3.1l.5.22.12-.1a.47.47 0 01.08-.04.58.58 0 01.2-.06.47.47 0 01.04 0 .59.59 0 01.5.28c.04-.02.1-.03.15-.03h.04a.47.47 0 01.02 0 .8.8 0 01.7.38l.01.01c.1-.04.2-.08.34-.08a.85.85 0 01.7.42c.13-.07.28-.13.45-.15a.9.9 0 01.55.14c.15.09.25.22.32.35.09-.07.19-.12.29-.16.2-.08.41-.11.61-.12.23 0 .46 0 .7.24l.08.08.08-.08c.25-.25.47-.24.7-.24a1.72 1.72 0 01.91.28.9.9 0 01.87-.49c.16.02.31.08.44.16a.85.85 0 01.7-.43c.14 0 .25.04.34.08a.8.8 0 01.73-.39h.04c.06 0 .1.01.16.03l.02-.04a.6.6 0 01.47-.24.47.47 0 01.04 0 .6.6 0 01.2.06.47.47 0 01.08.04l.12.1.5-.22c-.13-.93.04-2.07-.12-3.1-.01-.07-.04-.09-.15-.1-.09-.01-.1-.13-.11-.23a2.81 2.81 0 00-.4-1.14c-.06-.07-.12-.1-.2-.1h-.15c-.05 0-.07-.08-.09-.15-.2-.79-.43-1.4-.8-2.05.38.33.74.69.97 1.2.3.14.55.22.93.46.13.08.25.07.38-.01.91-.53 1.82-.52 2.72-.58.26-.01.55-.04.81.19.89.76 2.3 1.48 3.53.9.27-.12.45-.38.52-.73a2 2 0 01.46-.92l.75-.83c.14-.16.23-.4.16-.61-.34-1.08-1.25-2.02-2.54-2.05-.38 0-.7 0-.48-.35a7.4 7.4 0 001.13-2.84c.27-1.94-.81-3.71-2.02-5.8-1.3-2.24.33-4.06.46-6.03.38 1 .24 1.83 0 2.63-.6 2 .42 3.55 1.6 5.06 2.16-3.26 2.42-7.3.06-12.18a16.43 16.43 0 00-6.24-6.66C40.33 25.45 37.81 25 35 25zm-9 16.32c2.03 1.44 5.42 2.17 7.97 3.54.1.05.08.17.1.25.1.39.57.31.63-.08.1-.52.18-.92.3-1.31.12.4.2.8.3 1.31.07.4.53.47.63.08.02-.08 0-.2.1-.25 2.55-1.37 5.94-2.1 7.98-3.54-1 2.12-5.07 3.18-7.76 4.67-.73.4-.91 1.6-.52 2.28a2.05 2.05 0 002.58.8c2.12-.83 1.76-2.79 3.27-3.8-.24.41-.33.89-.3 1.41 1.08-.9 3.93-.52 4.7-2.29 0 .6.27 1.08.67 1.51a4.58 4.58 0 01-.36 6.68 5 5 0 01-2.83 1.23 9.28 9.28 0 01-4.23-.79 11.8 11.8 0 00-3.82-3.07L35 51.87l-.41-1.92a11.8 11.8 0 00-3.82 3.07c-1.3.51-2.64.91-4.23.8a5 5 0 01-2.83-1.24 4.58 4.58 0 01-.36-6.68c.4-.43.68-.92.67-1.5.77 1.76 3.62 1.38 4.7 2.28.03-.52-.06-1-.3-1.4 1.5 1 1.15 2.96 3.27 3.8 1.1.43 2.13-.02 2.58-.8.4-.68.22-1.89-.52-2.3C31.07 44.5 27 43.45 26 41.33zm8.46 12.03c.07 0 .13.04.18.1.26.27.06.84.36.95.3-.1.1-.68.36-.96.1-.1.24-.14.38 0 1.36 1.45 2.24 4.07 1.94 5.7-.2 1.09-1.45 2.14-2.1 1.02-.26-.46-.32-1.04-.4-1.58-.16-1-.15-2.07-.18-3.12-.03 1.05-.02 2.12-.17 3.12-.09.54-.15 1.12-.4 1.58-.66 1.12-1.9.07-2.1-1.01-.31-1.64.57-4.26 1.94-5.7.06-.07.13-.1.2-.1z"/>
    <path d="M19.23 43.55c-.1 1.45.19 3.86 1.02 4.83-.04-.59.15-1.52.5-2.01a6.87 6.87 0 01-1.52-2.82z"/>
    <path d="M50.77 43.55c.1 1.45-.19 3.86-1.02 4.83a3.66 3.66 0 00-.5-2.01 6.87 6.87 0 001.52-2.82z"/>
    <path d="M34.6 64.39c.22.22.27 1.82.2 2.08a.65.65 0 01-.2.3.6.6 0 01-.32.15c-.23.03-.45.01-.66-.04a.59.59 0 01-.28-.12c-.1-.1-.12-.21-.13-.33-.03-.2 0-.4.01-.6.02-.3.04-.7.1-.9.05-.2.08-.2.13-.3.2-.35.96-.42 1.15-.24z"/>
    <path d="M32.5 64.08c-.28.02-.42.23-.55.44-.14.24-.23 1.2-.25 1.48-.02.24.03.43.25.53a2 2 0 00.67.16c.1 0 .18 0 .22-.08.1-.2.13-.43.14-.65.02-.28.02-1.24-.03-1.51a.43.43 0 00-.2-.3.41.41 0 00-.26-.07z"/>
    <path d="M31.07 63.9c-.2.14-.37 1.2-.43 1.42-.05.2-.07.39-.03.56.01.06.03.12.07.17.03.05.08.05.13.04.16-.04.31-.09.44-.15.1-.05.18-.12.22-.22.08-.18.08-.37.1-.55.05-.37.1-1.03.07-1.1a.48.48 0 00-.27-.25c-.11-.03-.21.02-.3.08z"/>
    <path d="M30.47 64.9c-.06.24-.1.47-.17.7 0 .03-.01.06-.05.08-.03.01-.05 0-.08-.01a2.06 2.06 0 01-.36-.27.2.2 0 01-.07-.13v-.16c.08-.5.04-1.15.3-1.53.04-.05.1-.08.17-.08.06 0 .13 0 .2.02.07.03.11.07.14.12.23.41 0 .9-.08 1.26z"/>
    <path d="M29.65 63.42c.03-.13-.07-.2-.15-.16-.43.31-.63.9-.54 1.34.04.18.35.44.35.44.05.06.16.07.17-.12.01-.45.1-1.06.17-1.5z"/>
    <path d="M35.4 64.39c-.22.22-.27 1.82-.2 2.08.03.12.11.22.2.3a.6.6 0 00.32.15c.23.03.45.01.66-.04.1-.02.2-.05.28-.12.1-.1.12-.21.13-.33.03-.2 0-.4-.01-.6-.02-.3-.04-.7-.1-.9-.05-.2-.08-.2-.13-.3-.2-.35-.96-.42-1.15-.24z"/>
    <path d="M37.5 64.08c.28.02.42.23.55.44.14.24.23 1.2.25 1.48.02.24-.03.43-.25.53-.2.09-.41.14-.67.16-.09 0-.17 0-.22-.08-.1-.2-.13-.43-.14-.65a10.6 10.6 0 01.03-1.51.43.43 0 01.2-.3.41.41 0 01.26-.07z"/>
    <path d="M38.93 63.9c.2.14.37 1.2.43 1.42.06.2.07.39.03.56a.51.51 0 01-.07.17c-.03.05-.08.05-.13.04a2.1 2.1 0 01-.44-.15.44.44 0 01-.22-.22c-.08-.18-.08-.37-.1-.55a6.44 6.44 0 01-.07-1.1c.05-.11.15-.22.27-.25.11-.03.21.02.3.08z"/>
    <path d="M39.53 64.9c.06.24.1.47.17.7 0 .03.01.06.05.08.03.01.05 0 .08-.01.13-.07.25-.17.36-.27a.2.2 0 00.07-.13v-.16c-.08-.5-.03-1.15-.3-1.53a.21.21 0 00-.16-.08c-.07 0-.14 0-.2.02a.27.27 0 00-.15.12c-.23.41 0 .9.08 1.26z"/>
    <path d="M40.35 63.42c-.03-.13.07-.2.15-.16.43.31.63.9.54 1.34-.04.18-.35.44-.35.44-.05.06-.16.07-.17-.12a11.1 11.1 0 00-.17-1.5z"/>
  </g>
</svg>
