<svg xmlns="http://www.w3.org/2000/svg" fill="#d7374a" stroke="#000" viewBox="50 50 200 200">
  <metadata author="Lokal_Profil" source="https://commons.wikimedia.org/wiki/File:Frostviken_vapen.svg" license="https://creativecommons.org/licenses/by-sa/2.5"/>
  <g id="snowflake" stroke-width=".53">
    <path d="m134.04 79.1-3.6 1.98.5-2.78-2.81-.24-.88 4.76-7.6 4.19.23-5.28 2.36-1.32-1.28-2.31-.94.51.1-2.12-2.86.12-.09 1.94-.85-.55-1.7 2.3 2.42 1.51-.32 6.8-3.98 2.2.11-2-2.84.1-.22 3.5-7.92 4.36-.18-9.03 2.93-1.95-1.34-2.5-1.68 1.1-.09-4.56 5.74-3.67 2.51 1.34 1.15-2.63-.9-.46 1.63-1.05-1.33-2.53-1.78 1.15-.02-1.07-2.65.05.04 2.7-4.46 2.84-.17-8.68 3.68-3.14-1.6-2.3-2.17 1.81-.09-4.1-1.09.02-1.07-.03-.09 4.12-2.16-1.83-1.61 2.31 3.68 3.14-.17 8.68-4.46-2.84.04-2.7-2.64-.05-.03 1.07-1.78-1.15-1.33 2.53 1.64 1.05-.91.46 1.15 2.63 2.51-1.34 5.74 3.67-.09 4.55-1.68-1.1-1.34 2.51 2.93 1.95-.18 9.04-7.92-4.36-.22-3.52-2.84-.08.1 2-3.97-2.2-.32-6.8 2.42-1.52-1.7-2.3-.85.55-.1-1.94-2.85-.12.1 2.12-.94-.51-1.28 2.31 2.36 1.32.24 5.28-7.61-4.19-.88-4.76-2.8.24.5 2.78-3.6-1.97-.52.94-.57.93 3.52 2.13-2.66.96 1.2 2.55L71.5 85l7.43 4.5-4.69 2.43-2.32-1.39-1.36 2.27.91.56-1.88.97 1.53 2.41 1.72-.89-.05 1.02 2.85.32.1-2.85 6.05-3.13 3.89 2.35-1.79.9 1.5 2.42 3.15-1.57L96.3 100l-7.74 4.68-3.15-1.57-1.5 2.42 1.8.9-3.9 2.35-6.05-3.13-.1-2.85-2.85.32.05 1.02-1.72-.9-1.53 2.42 1.88.97-.91.56 1.36 2.27 2.32-1.4 4.7 2.45-7.44 4.5-4.56-1.63-1.2 2.55 2.67.96-3.52 2.13.57.92.51.95 3.6-1.97-.5 2.78 2.81.24.88-4.76 7.6-4.19-.23 5.28-2.36 1.32 1.28 2.31.94-.51-.1 2.12 2.86-.12.09-1.94.85.55 1.7-2.3-2.42-1.51.32-6.8 3.98-2.2-.11 2 2.84-.1.22-3.5 7.92-4.37.18 9.04-2.93 1.95 1.34 2.5 1.68-1.1.09 4.56-5.74 3.67-2.51-1.34-1.15 2.63.9.46-1.63 1.05 1.33 2.52 1.78-1.14.02 1.07 2.65-.05-.04-2.7 4.46-2.84.17 8.68-3.68 3.14 1.6 2.3 2.17-1.82.09 4.11 1.08-.02 1.08.03.1-4.12 2.15 1.83 1.61-2.31-3.68-3.14.17-8.68 4.46 2.84-.04 2.7 2.65.05.02-1.07 1.78 1.14 1.33-2.52-1.63-1.05.9-.46-1.15-2.63-2.51 1.34-5.74-3.67.09-4.55 1.68 1.1 1.34-2.51-2.93-1.95.18-9.04 7.92 4.36.22 3.52 2.84.08-.1-2 3.97 2.2.32 6.8-2.42 1.52 1.7 2.3.85-.55.1 1.94 2.85.12-.1-2.12.94.51 1.28-2.31-2.36-1.32-.24-5.28 7.61 4.19.88 4.76 2.8-.24-.5-2.78 3.6 1.97.52-.95.57-.92-3.52-2.13 2.66-.96-1.2-2.55-4.55 1.62-7.43-4.5 4.69-2.43 2.32 1.39 1.36-2.27-.91-.56 1.88-.97-1.53-2.41-1.72.89.05-1.02-2.85-.32-.1 2.85-6.05 3.13-3.89-2.35 1.79-.9-1.5-2.42-3.15 1.57-7.74-4.68 7.74-4.68 3.15 1.57 1.5-2.42-1.79-.9 3.9-2.35 6.04 3.13.1 2.85 2.85-.32-.05-1.02 1.72.9 1.53-2.42-1.88-.97.91-.56-1.36-2.27-2.32 1.4-4.7-2.45 7.44-4.5 4.56 1.63 1.2-2.55-2.67-.96 3.52-2.13-.57-.92-.51-.95z"/>
  </g>
</svg>
