<svg xmlns="http://www.w3.org/2000/svg" fill="#d7374a" stroke="#000" viewBox="50 50 200 200">
  <metadata source="http://wappenwiki.org/images/5/59/Manndorff.svg" license="https://creativecommons.org/licenses/by-nc-sa/3.0"/>
  <g id="spear" stroke-width=".237">
    <path d="M100.045 139.857c.506 0 .909-.34.909-.758V76.436l-.127-.182-.49-.671-.6-.79-.521 1.998-.095-.11v62.418c.016.418.427.758.924.758z"/>
    <path d="M99.129 77.945v14.133h1.833V77.826a7.95 7.95 0 0 1-1.833.119z"/>
    <g class="secondary">
      <path d="M101.19 74.169c.34-2.852 2.308-4.385 2.308-4.385-2.758-3.563-3.469-9.78-3.469-9.78s-.703 6.217-3.468 9.788c0 0 1.967 1.533 2.307 4.385h2.323z"/>
      <polygon points="99.374 74.003 100.029 62.437 100.693 74.003"/>
      <path d="M99.303 74.714c0 1.28-.316 3.436-.316 3.436s.253.198 1.043.198c.797 0 1.042-.198 1.042-.198s-.316-2.172-.316-3.436"/>
      <path d="M98.829 74.911h2.401a.538.538 0 0 0 0-1.074H98.83a.538.538 0 0 0-.537.537c0 .292.244.537.537.537z"/>
    </g>
  </g>
</svg>
