<svg xmlns="http://www.w3.org/2000/svg" fill="#d7374a" stroke="#000" viewBox="50 50 200 200">
  <metadata source="http://wappenwiki.org/images/7/72/Hirzbach.svg" license="https://creativecommons.org/licenses/by-nc-sa/3.0"/>
  <g id="stagPassant" stroke-width=".34">
    <g>
      <path class="secondary" d="M124.1 134.37c-.87 1.92-2.23 1.83-3.14 3.36-.3.52-.3.63-.26.66.3.17 1.37.17 1.37.17s-.44.78-.1.9c.42.13 1.75 0 2.69-.33s1.42-.75 1.55-1.03c.16-.38.3-1 .33-1.74.02-.8-.16-1.76-.16-1.76m-41.94-.23c-.86 1.92-2.22 1.83-3.13 3.36-.3.52-.3.63-.26.66.3.17 1.37.17 1.37.17s-.44.78-.1.9c.42.13 1.75 0 2.68-.33.95-.33 1.43-.75 1.56-1.03.16-.38.3-1 .33-1.74.02-.8-.16-1.76-.16-1.76m20.03-1.72c-.86 1.92-2.22 1.83-3.13 3.36-.3.51-.3.63-.26.65.3.17 1.37.17 1.37.17s-.44.79-.1.9c.42.14 1.75.01 2.69-.32s1.42-.76 1.55-1.04c.16-.37.3-1 .33-1.73.02-.8-.16-1.76-.16-1.76"/>
      <path d="M109.05 133.09c-.02-.21.28-.5.43-.53.26-.06.4.04.66.24.4.3.95.62 1.4.38.42-.23.25-.78.28-1.27.15-2.22.25-2.06 1.5-3.92.38-.55.8-1.31 1.1-1.9.48-.93.68-.84 1.3-1.68.72-.98 2.2-1.52 2.8-2.6.6-1.04-.13-1.27-.22-2.48-.1-1.32.2-1.5.84-2.65.24-.44.54-.87.64-1.36.17-.76-.13-1.53-.45-2.23-.55-1.23-1.18-1.27-1.87-2.42a1.8 1.8 0 0 0-.58-.66 1.6 1.6 0 0 0-.64-.19c-2.1-.3-4.25.56-6.18 1.44-.58 3.33 2.21 4.84 2.89 6.92 1.25 3.8.27 5.35-2.4 10.4-.23.45-.49.88-.83 1.24-.42.43-.93.7-1.38 1.1-.45.37-1.65 1.37-1.58 1.96l2.29.2z"/>
      <path class="secondary" d="M72.3 125.15c1.11 1.8.26 2.86 1.02 4.47.25.56.35.61.4.59.3-.15.9-1.03.9-1.03s.4.8.68.6a5.9 5.9 0 0 0 1.25-2.41c.25-.97.19-1.61.01-1.86a3.68 3.68 0 0 0-1.25-1.26c-.8-.47-1.46-1-1.46-1"/>
      <path d="M73.85 123.22c-.1-.2-.22-.45-.22-.55 0-.15.1-.28.22-.37.28-.2.63-.27.95-.4s.66-.36.67-.7c0-.2-.03-.3-.15-.45-.42-.65-.45-.36-1.45-.75-.98-.4-1.14-.32-1.5-.92-.48-1.14-.15-1.8-.2-2.89-.13-3.1-.59-3.44-.85-4.77.37-.08.83-.06 1.38-.4.46-.29.87-.87.87-.87 1.97-.67 6.94.57 9.3-.48l-3.06-7.91c-2.17.67-3.43 1.92-5.06 2.99-.68.45-1.3.92-2.06 1.2-1.32.51-2.31.51-3.02.86-.51.26-.51.93-.79 1.44-.16.3-.3.65-.48.94-.42.69-.3 1.48-.1 2.1a50.83 50.83 0 0 1 1.6 6.45c.43 2.3.51 4.22.61 4.75.3 1.42 1.58 2.44 1.79 2.64.34-.75 1.3-1.15 1.51-1.97"/>
      <g stroke="none" fill="#000">
        <path d="M78.08 108.04a2.35 2.35 0 0 1-1.1.26c-.2 0-.38-.02-.57-.05-.18-.05-.36-.1-.54-.21l.57-.07.54-.01.54.01.56.07zm-6.84 2.45.47-.24c.15-.07.28-.15.38-.25.1-.09.17-.23.29-.37.05-.07.11-.15.2-.22.07-.06.16-.12.26-.12-.13.14-.16.29-.22.45l-.1.25c-.05.08-.1.18-.19.26a.99.99 0 0 1-.53.25c-.2.03-.39.03-.56-.01zm1.93 15.02a3.8 3.8 0 0 1 .55.84c.15.3.27.62.36.94l.29.94a7.47 7.47 0 0 0 .39.88l-.31.17a4.76 4.76 0 0 1-.38-.94c-.1-.33-.16-.66-.23-.98a11.04 11.04 0 0 0-.67-1.85zm33.79 8.28c-.08.32-.22.63-.38.93a6.67 6.67 0 0 1-.58.83c-.2.26-.42.5-.6.77a7.43 7.43 0 0 0-.51.81l-.31-.16c.16-.3.35-.58.56-.85.22-.26.45-.5.67-.73.23-.25.43-.49.62-.76.2-.27.36-.56.53-.84zm9.89-13.3a1.15 1.15 0 0 1-.1.44c-.04.14-.1.26-.17.38s-.11.23-.15.34c-.04.12-.07.25-.09.4-.11-.1-.18-.27-.18-.43s.04-.32.11-.46.15-.26.24-.37c.1-.11.21-.22.34-.3zm-1.53-2.54c.02-.18.07-.34.11-.5l.18-.45a5.16 5.16 0 0 1 .5-.87c.02.19 0 .36-.03.52a2.38 2.38 0 0 1-.42.92c-.09.15-.2.28-.34.38zm.17-1.65a.44.44 0 0 1-.11-.2.34.34 0 0 1-.02-.18l.06-.18a.43.43 0 0 1 .15-.16c.07.07.1.13.12.2.02.06.02.12 0 .18s-.02.12-.05.17a.46.46 0 0 1-.15.17zm-4.88 14.73-.08.26-.09.2a1.73 1.73 0 0 1-.11.2c-.05.07-.1.14-.18.22a.46.46 0 0 1-.09-.28.6.6 0 0 1 .27-.51c.08-.06.18-.1.28-.1z"/>
      </g>
      <path d="M80.28 70.16c.47-1 .88-1.38 1.52-2.38a7.93 7.93 0 0 0 1.23-5.1c.95-.11 1.79.67 2.24 1.52.54 1.04.71 2.24.62 3.42s-.44 2.3-.89 3.38"/>
      <path stroke-miterlimit="10" d="M83.33 68.13c-1.34-.03-2.7.28-3.64.45-.53.1-.78.06-1.29.22-.25.08-.35.2-.43.44s-.1.52-.23.75c-.22.39-.68.56-1.1.7-1.2.4-2.27 1.17-3.43 1.64-1.19.47-2.07.75-3.34.9-.3.04-.45.11-.62.35a8.51 8.51 0 0 0-.61.97c-.16.29-.2.43-.43.66-.32.34-.46.77-.6 1.23l-.05.15c.17.24.46.39.75.44-.03 0 1.1.28 1.34.27.44-.02.89-.1 1.3-.25.27-.1.52-.21.78-.23.28-.03.58.05.74.27-.12.17-.17.29-.35.4a6.21 6.21 0 0 1-.98.5c-.6.15-1.26.06-1.76.39-.04.02-.08.06-.1.1 0 .04 0 .07.03.12.4.5.51.11 1.02.39.52.28.48.4.98.44.42.03.94-.23 1.25-.52.31-.3.36-.53.77-.66a10.75 10.75 0 0 1 3.52-.5c.54.04.78.33 1.32.43.34.76 1.54 1.63 2.88 1.79 0 0 .3.42.38 1.53a5.5 5.5 0 0 1-.34 2.2c-.16 1.15-1.76 3.04-2.51 4.02-1.34 1.68-2.81 3.29-2.26 5.56.4-.5.78-.74 1.17-1 .07.8-.49 2.13-.88 2.82l.02-.05a4.4 4.4 0 0 0-.75 3.49c.32-.4.6-.61 1.02-.89-.16.88-.38 1.92-.35 2.81.04.89.29 1.8.88 2.45-.36 2.52 1.51 5.43 2.7 6.04.85.42 1.7 2.69 4.1 2.69l4.6.73c4.45 1.25 9.11.92 13.47-.23 2.35-.6 6.31.15 8.68-.32 2.05-.4 3.34-.02 3.34-.02 1.06 3.84 4.63 5.43 7.7 6.83a8.27 8.27 0 0 1 3.35 2.7c.76 1.28.48 1.87.48 3.36 0 4.6 0 5.59-1.72 9.68l2.29.21c.02-.2.04-.5.1-.57.08-.13.23-.19.38-.21.34-.04.68.1 1.02.16s.75.02.94-.27c.1-.17.12-.26.1-.46-.01-.77-.33-.74-.79-1.72-1.02-2.2.32-5.15 1.07-8.5.27-1.18 1.05-2.62.32-3.58-.78-1-1.76-.56-2.72-2.5a12.09 12.09 0 0 1-1.23-4.34c-.22-2.16.9-5.36.8-7.44a9.66 9.66 0 0 0-.73-3.47c.16.39 1.2 2.86 2.68 3.99.3.23 1.95 1.33 2.92.76.5-.32-.16-.68-.46-1.52-.18-.5-.17-1.36-.7-2.38-.8-1.55-1.63-1.78-2.32-2.86-.49-.76-.91-1.42-1.35-2.19a4.14 4.14 0 0 0-1.9-1.86 20.22 20.22 0 0 0-5-2.15 15.62 15.62 0 0 0-6.1-.55c-.63.06-2.51.11-3.11.26-2.43.63-5.26.52-7.81.56a18.3 18.3 0 0 1-6.65-1c-1.73-.41-4.9-2.68-4-7.89.5-2.9-.06-6.03-.39-8.26-.17-3.66-1.98-6.63-3.15-7.39-1.35-.8-3.5-1.03-5.02-1.07z"/>
      <g>
        <path stroke="none" fill="#000" d="M81.05 79.8c.44.11.9.18 1.36.17.23-.01.46-.03.67-.07a4.17 4.17 0 0 0 1.84-.91c.37-.3.72-.62 1.1-.9-.34.32-.65.68-1 1a4 4 0 0 1-2.61 1.18c-.5.03-.98-.03-1.47-.14l.1-.34z"/>
      </g>
      <path d="M90.75 112.19c.05.67.08 1.38-.25 1.97-.23.41-.6 1.53-.94 1.86-.76.8-1 1.86-1.08 2.94-.08 1.06.35 1.97.12 3.03-.13.65-.33 1.3-.4 1.96-.08.76.05 1.52.04 2.28-.02.99-.55 2.29-.6 3.27a3.45 3.45 0 0 0 .81 2.24c.66.86.76.72.8 1.5 0 .2 0 .28-.1.46-.19.28-.6.33-.95.26-.34-.07-.68-.2-1.02-.16a.49.49 0 0 0-.38.2c-.06.09-.08.37-.1.58l-2.3-.2a34.1 34.1 0 0 0 1.21-8.1c0-2.5-.93-3.62-.73-6.13.06-.72.43-1.78.5-2.5.13-1.73-.78-2.25-1.27-4.14-.27-1-.3-1.86-.36-2.7"/>
      <g stroke="none" fill="#000">
        <path d="M83.61 110.82c0-.44 0-.88-.06-1.32a7.25 7.25 0 0 0-.26-1.3c.18.4.33.83.44 1.26.1.44.17.89.23 1.33l-.35.03zm6.96-3.89a7.36 7.36 0 0 1 .41 2.63c0 .44-.05.88-.08 1.32-.02.44-.03.86.03 1.29l-.35.03c-.04-.45-.03-.9.01-1.34l.14-1.32a12.74 12.74 0 0 0-.16-2.6zm-7.89-24.96c.12.18.17.41.2.63.03.23.02.45-.02.68-.03.22-.1.44-.17.65l-.25.61c-.17.4-.36.79-.46 1.19-.1.4-.15.83-.05 1.25-.11-.18-.2-.4-.22-.63-.03-.23-.02-.46.02-.68.07-.45.24-.87.41-1.26l.26-.59.22-.59c.1-.41.15-.84.06-1.26zm7.95-1.32c.06.2.06.4.02.6-.03.19-.1.38-.18.57a1.84 1.84 0 0 1-.35.48 1.35 1.35 0 0 1-.5.34l.28-.5.26-.48.23-.5.24-.51zm.17 2.07c.01.23-.03.44-.1.65a2.86 2.86 0 0 1-.72 1.1c-.16.15-.34.28-.55.37l.35-.54.34-.52.33-.52.35-.54zm-.34 2.21a.7.7 0 0 1-.09.38 1.13 1.13 0 0 1-.5.54.8.8 0 0 1-.37.1c.06-.13.13-.22.2-.31a2.3 2.3 0 0 1 .21-.26c.09-.08.15-.16.25-.23a2 2 0 0 1 .3-.22zm-.33 1.63a7.5 7.5 0 0 1-.23.6l-.23.6-.23.58c-.08.2-.15.39-.25.6a1.86 1.86 0 0 1-.01-.67c.03-.22.09-.44.17-.64.08-.21.18-.4.32-.6a1.84 1.84 0 0 1 .46-.47zm.52 2.05-.18.7-.16.67-.18.68c-.05.23-.12.46-.23.7-.04-.25-.05-.5-.04-.73a3.68 3.68 0 0 1 .34-1.4c.13-.25.25-.45.45-.62zm-.25 6.35a.9.9 0 0 1 .41.15 1.1 1.1 0 0 1 .46.72.8.8 0 0 1-.03.43l-.22-.34-.2-.31-.2-.31-.22-.34zm1.39 1.37c.22.08.41.23.57.42.15.18.27.4.35.62a2.76 2.76 0 0 1 .14 1.36 4.83 4.83 0 0 1-.26-.63l-.2-.62a4.47 4.47 0 0 0-.6-1.15zm-2.19 5.27c.22.08.4.23.57.41a1.84 1.84 0 0 1 .41 1.32c-.02.23-.1.48-.22.66l-.04-.66a5.03 5.03 0 0 0-.37-1.17 10.7 10.7 0 0 0-.35-.56zm-8.77-2.2a1.87 1.87 0 0 1-.43-1.07c-.03-.4.04-.8.14-1.16.1-.37.22-.72.3-1.07.05-.17.07-.36.1-.54 0-.18 0-.37-.03-.55.1.16.16.36.2.55.02.2.03.4 0 .59-.03.39-.13.76-.22 1.11l-.13.53c-.03.17-.06.36-.07.53-.03.36.01.73.14 1.08zm4.37-7.24c.07.12.08.3.05.45a1.38 1.38 0 0 1-.18.42c-.15.27-.33.48-.46.71a3.33 3.33 0 0 0-.32.75c-.1.27-.15.54-.24.83a2.53 2.53 0 0 1 .26-1.75c.16-.27.37-.48.54-.69.18-.2.34-.41.35-.72zm-.47 8.7-.2.46-.2.43-.19.43-.2.46a1.15 1.15 0 0 1-.06-.51 1.56 1.56 0 0 1 .41-.95.99.99 0 0 1 .44-.32zm-1.37 5.72c-.01-.23-.05-.44-.08-.66-.02-.22-.05-.43-.02-.68.02-.24.12-.48.27-.66.08-.1.19-.18.3-.23a.55.55 0 0 1 .36-.04.83.83 0 0 0-.43.42 1.61 1.61 0 0 0-.16.55l-.05.63a1.8 1.8 0 0 1-.2.67zm1.03-18.99c-.3.24-.63.47-.88.74a2.19 2.19 0 0 0-.53.93c-.12.37-.23.73-.37 1.1-.14.37-.27.74-.45 1.08a13.74 13.74 0 0 1 .49-2.3 2.07 2.07 0 0 1 .25-.56c.11-.18.26-.33.42-.46a3.2 3.2 0 0 1 1.07-.53zm-7.7 10a2.3 2.3 0 0 1 .5-.8c.2-.23.42-.42.63-.63.2-.2.4-.42.56-.66.16-.24.26-.51.32-.8a2.19 2.19 0 0 1-.24.85 4.05 4.05 0 0 1-.52.74c-.2.23-.39.44-.56.67-.17.23-.3.48-.36.74l-.33-.1zm.52 5.3a9.48 9.48 0 0 1 .68-2.21l.43-1.05c.14-.35.26-.71.31-1.1a6 6 0 0 1-.23 1.12l-.35 1.09a7.37 7.37 0 0 0-.5 2.19l-.34-.04z"/>
      </g>
      <g>
        <g>
          <path class="secondary" d="M88.75 66.62c-2.45.73-2.48 1.47-3.08 1.7-.18.09-.98.18-.99.38-.03.9.98.82 1.7 1.34.36.26 1.04.95 1.33.76.36-.24.18-.99.55-1.23.6-.38.96-.68 1.52-.86 2.63-.91 4.45-.27 6.4-.06 3.89.4 4.02-.2 6.5.28.26.04 2.24.74 3.56.94.5.08 2.73.11 4.26.45 2.66.53 6.07 1.37 9.6-.85 1.75-1.16 1.98-3.07 3.12-3.83.56-.38 1.28-.58 2.37-.44.22.02-.14-.78-1.4-.94a4.03 4.03 0 0 0-2.43.5c-1.45.87-1.75 2.67-3.8 3.4a8.05 8.05 0 0 1-5.08.09c-.57-.2-.52-1.15-.23-1.75.6-1.28 2.29-.95 3.25-2.87.34-.68.36-1.51.19-1.86-.08-.3-.24-.35-.4-.09-1.1 2.8-4.27 2-5.17 3.76-.53 1.06-.23.59-.6 1.34-.66 1.3-4.85.65-5.86-.07-.59-.43-.62-1.35-.16-1.73 1.23-1.06 2.13-.64 3.82-2.08a3.45 3.45 0 0 0 1.11-2.71c-.01-.35-.27-.3-.42-.1-.15.21-.48 1.9-3.06 2.22-1.12.14-2.3.4-3.27 1.26-1.47 1.3-.7 1.5-1.9 2.6-.42.35-.86 0-1.78-.13-.8-.13-4.66.3-4.64-.47 0-1.3 1.12-1.96 2.3-2.2 1.39-.29 2.24-.47 3.23-1.38a3.4 3.4 0 0 0 1.08-1.67c.08-.35-.13-.33-.28-.24-.1.07-.65.73-1.67 1.07-1.12.38-2.02.44-3.54.65-2.3.32-3.56 1.56-3.92 2.68-.31.97-.2 1.65-1 1.86-.57.1-.32.1-1.2.28z"/>
        </g>
        <g stroke="none" fill="#000">
          <path d="M110.14 66.7c-.12.24-.24.47-.38.69a3.53 3.53 0 0 1-.47.62c.14-.22.23-.46.31-.7l.22-.73.32.13zm-11.06 1.02c-.3.03-.61.06-.9.06h-.46c-.15 0-.3 0-.5-.08-.08-.04-.15-.1-.21-.14a.34.34 0 0 0-.08-.06l-.07-.03c-.1-.05-.24-.04-.38-.03-.14.02-.3.05-.45.05-.16 0-.33-.03-.45-.15a.6.6 0 0 0 .43 0l.42-.13a.94.94 0 0 1 .51 0l.13.05.1.07c.06.04.1.08.16.1.1.05.24.06.4.07l.44.06c.32.03.61.08.91.16zm-6.16-.02-.36.1-.35.07-.34.04c-.12.02-.24.03-.38.02a1 1 0 0 1 .31-.23c.12-.06.24-.1.37-.12.13-.02.25-.02.38 0 .12.01.25.05.37.12zm10.55-.7c.1.11.2.14.31.2l.36.15.34.2c.1.09.21.18.3.28a1.47 1.47 0 0 1-.4-.08l-.37-.15a1.91 1.91 0 0 1-.34-.21.73.73 0 0 1-.15-.18c-.05-.05-.07-.13-.05-.22zM91.3 65.75c.03.13 0 .24-.04.36s-.13.2-.2.29c-.1.08-.2.13-.32.17a.63.63 0 0 1-.36.01l.26-.2.23-.2.22-.2.21-.23zm-.6 2.03a.82.82 0 0 1-.28.23.42.42 0 0 1-.2.03c-.09 0-.15-.02-.2-.03h-.1l-.11.04-.15.1-.15.08c-.2.1-.4.2-.63.27-.12.04-.23.06-.36.07a.73.73 0 0 1-.35-.05c.23-.04.4-.16.6-.27.19-.12.37-.23.58-.33l.16-.07.16-.07.2-.06c.09-.01.18.01.24.03l.14.07.12.03.34-.07zm19.92 1.18c.21-.12.45-.18.7-.2.24 0 .48.03.72.1.23.07.45.16.67.26.2.12.4.24.58.4a6.54 6.54 0 0 1-.68-.19l-.65-.2a4.44 4.44 0 0 0-1.34-.17zm-22.83.12-.05.18-.07.15-.1.14a.49.49 0 0 1-.13.12.3.3 0 0 1-.02-.2l.05-.17c.04-.06.07-.1.13-.14a.3.3 0 0 1 .19-.08zm-.61-.65a.6.6 0 0 1-.21.17c-.08.05-.16.07-.24.1-.08 0-.17.02-.27 0a.52.52 0 0 1-.25-.08c.08-.05.16-.07.24-.1l.23-.05.23-.04h.27zm-.03.5c0 .09-.02.15-.03.2l-.08.16-.12.14a.64.64 0 0 1-.17.12.6.6 0 0 1 .01-.2l.08-.18.13-.14c.05-.03.1-.07.18-.1z"/>
        </g>
      </g>
      <g>
        <g>
          <path class="secondary" d="M119.55 77.68a10.64 10.64 0 0 1-5.34.32c-.58.15-.62.86-.4 1.48.48 1.34 2.19 1.17 2.97 3.18.27.7.22 1.53.01 1.86-.1.3-.28.33-.41.05-.82-2.89-4.06-2.4-4.78-4.25-.42-1.1-.18-.6-.48-1.39-.53-1.37-4.74-1.44-5.88-.94-.66.29-.6 1-.25 1.47.98 1.3 1.92 1.2 3.26 2.97a3.5 3.5 0 0 1 .5 2.88c-.08.34-.33.25-.42 0-.1-.24-.05-1.95-2.51-2.81a5.77 5.77 0 0 1-2.92-1.92c-1.15-1.6-.44-1.73-1.37-3.06-.27-.29-.07-.1-1.3-.27-.8-.1-4.85-1.28-5.01-.53-.28 1.28.65 2.27 1.74 2.76 1.3.58 2.1.95 2.86 2.05.57.83.69 1.5.69 1.85 0 .36-.2.3-.31.18-.09-.1-.49-.86-1.4-1.4-1.02-.63-1.88-.87-3.33-1.4-2.2-.8-3.14-2.3-3.26-3.46-.09-1.02 0-2.2-1.09-3.16-1.02-1-1.56-1-2.57-1-.44 0-.54.55-.98.56-.35 0-.55-.94-.73-1.35-.34-.81-1.24-1.3-.72-2.03.11-.16.84.17 1.03.2.64.1 1.84-.21 4.26.76 3.38 1.56 2.78 2.34 6.22 3.06 4.05.76 5.83.51 8.36.58.27.01.56.2 1.9.13.5-.03 2.72.54 4.28.54 2.16.09 3.72.74 5.53.48 2.16-.31 2.92-1.44 4.52-2a4.14 4.14 0 0 1 2.14-.24c1.26.2 1.6 1 1.38.97a4.18 4.18 0 0 0-2.4.3c-1.25.52-1.85 1.77-3.79 2.58z"/>
        </g>
        <g stroke="none" fill="#000">
          <path d="m111.02 79.13-.15-.75a3.4 3.4 0 0 0-.26-.72c.17.2.3.42.42.65l.32.71-.33.1zm-10.16-3.26c-.3.01-.6 0-.9-.02l-.45-.05c-.15-.02-.3-.03-.4-.02l-.18.07-.11.05-.14.02a.86.86 0 0 1-.5-.13l-.39-.22a.74.74 0 0 0-.41-.09.64.64 0 0 1 .46-.04c.15.03.3.09.43.13.14.05.27.08.38.06l.08-.02.1-.04a.66.66 0 0 1 .24-.09 1.15 1.15 0 0 1 .5.04l.43.09c.29.08.57.16.86.26zm-6.07-2.12a.9.9 0 0 1-.4-.03 1.38 1.38 0 0 1-.65-.39.82.82 0 0 1-.2-.33c.12.04.24.09.34.15l.31.17.3.18c.1.07.2.14.3.25zm9.95 3.84a.3.3 0 0 1 .09-.21c.05-.06.12-.1.18-.14a2.32 2.32 0 0 1 1.2-.2c-.12.1-.23.16-.36.21l-.38.13a2.42 2.42 0 0 1-.38.07c-.13.03-.24.04-.35.14zm-11.7-1.4-.1-.32-.1-.27-.12-.28-.14-.3c.13.02.23.1.31.17.1.08.15.19.2.3.04.12.07.23.06.36a.45.45 0 0 1-.1.33zm18.99.65a3.52 3.52 0 0 0 1.36-.05l.66-.14c.23-.04.45-.09.7-.11a3.23 3.23 0 0 1-1.32.54 2.19 2.19 0 0 1-.72.02 1.74 1.74 0 0 1-.68-.26zm-23.48-4.57-.14.14-.14.1-.15.06c-.06.01-.11.04-.18.04a.39.39 0 0 1 .08-.19c.04-.04.09-.09.15-.11a.5.5 0 0 1 .18-.06.3.3 0 0 1 .2.02zm-.18-.86a.53.53 0 0 1-.26.04.63.63 0 0 1-.25-.06l-.22-.13a.56.56 0 0 1-.16-.2 1.63 1.63 0 0 1 .47.13l.22.1a.5.5 0 0 1 .2.12zm-.28.41c-.05.07-.1.1-.14.15l-.15.1-.17.05h-.21a.38.38 0 0 1 .13-.17c.04-.04.1-.08.16-.1.05-.02.11-.05.18-.05a.6.6 0 0 1 .2.02z"/>
        </g>
      </g>
      <g stroke="none" fill="#000">
        <path d="M113.39 101.4c.21.37.34.8.4 1.24.06.44.06.89.03 1.33l-.05.65-.05.66-.04 1.31c0 .44.03.87.05 1.31a16.03 16.03 0 0 0 .73 3.83l-.33.1c-.12-.42-.25-.85-.34-1.28l-.13-.66-.09-.66c-.06-.43-.08-.88-.1-1.32-.01-.43-.03-.88-.01-1.32s.03-.89.06-1.32.1-.89.15-1.31a4.76 4.76 0 0 0-.28-2.57zm12.06.32a11.85 11.85 0 0 0-.44-1.66 7.15 7.15 0 0 0-.8-1.53c.39.45.71.93.96 1.46.26.53.44 1.1.61 1.65l-.33.08zm-1.17 33.57c-.08.33-.22.64-.38.94a6.67 6.67 0 0 1-.58.82c-.2.27-.42.5-.6.77a7.43 7.43 0 0 0-.51.82l-.31-.16c.16-.3.35-.59.56-.85.22-.27.45-.5.67-.74a7.93 7.93 0 0 0 1.15-1.6zm-39.64 0c-.08.33-.22.64-.38.94a6.67 6.67 0 0 1-.58.82c-.2.27-.42.5-.6.77a7.43 7.43 0 0 0-.51.82l-.31-.16c.16-.3.35-.59.56-.85.22-.27.45-.5.67-.74.23-.24.43-.48.62-.76.2-.26.35-.55.53-.84zm6.55-27.22a1.55 1.55 0 0 1-.02-.46 2.1 2.1 0 0 1 .3-.86c.09-.13.2-.24.32-.34l-.15.42-.15.42-.15.4-.15.42zm-10.7-6.29c.06.05.13.1.19.17.05.07.1.17.11.25.05.17.05.35.05.51l-.05.5v.46c.02.3.07.6.19.9.1.3.26.58.45.86a2 2 0 0 1-.7-.75 2.3 2.3 0 0 1-.27-1.53l.1-.48c.04-.16.07-.31.06-.46a.72.72 0 0 0-.14-.43zm-.07 7.64a5.58 5.58 0 0 1-.76-3.73c-.05.63.04 1.27.23 1.88a5.3 5.3 0 0 0 .81 1.65l-.28.2zm.35-19.87c.06.39-.03.8-.15 1.18-.11.38-.27.74-.4 1.1a5.03 5.03 0 0 0-.25 2.24 2.88 2.88 0 0 1-.28-1.17c-.01-.4.06-.81.2-1.2.13-.37.3-.72.48-1.06.17-.36.32-.7.4-1.1zm14.84 21.52.69-.33.66-.32.66-.35.68-.35a2.55 2.55 0 0 1-.53.58 3.36 3.36 0 0 1-2.16.77zm4.11-.26c.12-.12.25-.2.36-.28l.35-.24.34-.23c.12-.08.24-.16.38-.23a1.1 1.1 0 0 1-.2.43 1.47 1.47 0 0 1-.74.52.99.99 0 0 1-.49.03zm3.05-.52.38-.17.36-.14.35-.12.4-.12a.87.87 0 0 1-.26.35 1.73 1.73 0 0 1-.37.21c-.13.05-.27.08-.42.08a.96.96 0 0 1-.44-.09zm24.86 9.9.14.34.13.3.14.32.16.34a.72.72 0 0 1-.37-.17.97.97 0 0 1-.32-.73.8.8 0 0 1 .12-.4zm-40.6-.79c.12.08.23.2.3.31a1.38 1.38 0 0 1 .17.84.87.87 0 0 1-.16.4l-.1-.4-.09-.37-.06-.37-.06-.4zm-.15 12.33c.07.07.11.14.15.2l.08.15.04.19.03.24a.45.45 0 0 1-.26-.1.41.41 0 0 1-.13-.2.44.44 0 0 1-.03-.24.4.4 0 0 1 .12-.24zm40.05.3c.05.1.07.18.08.26l.01.23c0 .07-.02.15-.04.22a.92.92 0 0 1-.12.24.46.46 0 0 1-.15-.23.96.96 0 0 1-.03-.25c.01-.08.02-.17.07-.24.04-.1.1-.16.18-.22zm-3.88-30.24c.1-.02.2 0 .3.04a.57.57 0 0 1 .23.17c.05.08.1.16.12.27.02.09.02.2-.03.3l-.21-.18-.15-.17-.14-.18c-.04-.07-.09-.14-.12-.25zm.3 1.95c.12.08.2.18.26.3.07.1.11.23.15.34a1.3 1.3 0 0 1 0 .76c-.1-.1-.15-.22-.2-.32a1.98 1.98 0 0 1-.2-.7c-.01-.12-.03-.24 0-.38zm.25 2.72c.09.08.14.15.2.23l.1.24a1.3 1.3 0 0 1 .07.56c-.1-.05-.19-.12-.25-.2s-.1-.16-.13-.25a.8.8 0 0 1-.05-.29.46.46 0 0 1 .06-.29zm-34.72 3.7c.08.04.11.09.15.14l.03.16c0 .06-.02.12-.05.17-.04.04-.1.09-.18.11a.42.42 0 0 1-.09-.17c-.01-.05-.02-.1-.01-.14 0-.05.02-.08.05-.13 0-.04.04-.09.1-.15zm-.52 2.03c.04.1.03.18.01.26a.69.69 0 0 1-.2.4.56.56 0 0 1-.23.14c-.04-.1-.03-.18-.01-.26a.69.69 0 0 1 .2-.4 1 1 0 0 1 .23-.14zm-1.22.24c.03.1-.02.2-.08.28a.46.46 0 0 1-.23.16.5.5 0 0 1-.28.01.34.34 0 0 1-.23-.17l.23-.1.17-.06.18-.05.24-.07zm39.31-12.3c.2.26.41.5.63.71.23.22.47.4.74.56.25.16.54.3.82.47a1.73 1.73 0 0 1 .69.7 3.22 3.22 0 0 0-.81-.5c-.29-.13-.59-.25-.86-.43a3.07 3.07 0 0 1-.74-.65 2.7 2.7 0 0 1-.47-.85zm1.01 2.22a11.37 11.37 0 0 1 1.1 1.05c.33.4.6.8 1.04 1.06a1.26 1.26 0 0 1-.71-.32 3.5 3.5 0 0 1-.54-.55 11.97 11.97 0 0 1-.89-1.24zm1.55 2.87c.14.04.26.08.37.13l.35.1.34.1.38.1a.79.79 0 0 1-.39.12 1.26 1.26 0 0 1-.41-.04 1.01 1.01 0 0 1-.64-.5z"/>
      </g>
    </g>
    <g>
      <path stroke-width=".12" d="M86.28 72.12c1.86 0 3 .72 4.08 1.18a7.96 7.96 0 0 0 5.25.34c.26.92-.4 1.77-1.16 2.36a6.66 6.66 0 0 1-3.37 1.22c-1.17.1-2.2.03-3.34-.22"/>
      <g stroke="none" fill="#000">
        <path d="M92.74 77.05a7.95 7.95 0 0 1-1.66.34 10.58 10.58 0 0 1-3.4-.23l.08-.33a10.25 10.25 0 0 0 3.3.22 6.6 6.6 0 0 0 3.27-1.19c.5-.38 1.28-1.13 1.14-2a8.12 8.12 0 0 1-5.18-.4l-.62-.28a7.54 7.54 0 0 0-3.39-.88v-.35a7.9 7.9 0 0 1 3.54.91l.61.28c1.66.69 3.47.81 5.13.33.1-.02.19.02.22.11.33 1.15-.62 2.09-1.22 2.55a6.14 6.14 0 0 1-1.82.92z"/>
        <path d="M85.61 74.42a3.96 3.96 0 0 1 2.22-.57 12.56 12.56 0 0 1 2.28.38l1.1.26c.37.08.74.15 1.12.2.37.04.75.06 1.13.03.36-.02.74-.09 1.09-.26a2.55 2.55 0 0 1-1.08.39 7.67 7.67 0 0 1-2.31-.1l-.57-.12-.56-.13c-.37-.08-.74-.18-1.1-.25a12.4 12.4 0 0 0-1.12-.16c-.18-.02-.37-.02-.55-.02l-.55.04c-.37.07-.74.16-1.1.31z"/>
        <path d="m89.56 75.8.3-.28a2.35 2.35 0 0 0 .37-.69l.09-.37.27.06c-.04.15-.1.27-.17.4l-.23.36c-.08.11-.18.2-.29.3-.1.09-.23.16-.34.21zm-.88-1.67a1.73 1.73 0 0 1-.16.54c-.08.16-.18.3-.28.46a2.88 2.88 0 0 1-.37.37c-.13.12-.27.23-.42.33a3.56 3.56 0 0 0 .36-.37c.12-.13.2-.28.3-.42a1.67 1.67 0 0 0 .28-.92h.3zm-.97 3.04a8.96 8.96 0 0 1-2.1-.88 3.06 3.06 0 0 0-.69-.33c.26.04.49.15.72.25a7.4 7.4 0 0 0 2.14.63l-.07.33zm-1.43-4.87-.5-.03a2.4 2.4 0 0 0-1.4.44c.1-.13.24-.24.4-.33a2.55 2.55 0 0 1 .98-.37c.18-.04.35-.05.53-.07l-.01.36zm-8.05 3.76a2.88 2.88 0 0 0-.17 1.04c.01.18.02.36.06.52.03.17.08.33.16.47l-.31.15a2.4 2.4 0 0 1-.15-1.15c.02-.18.05-.38.11-.56a1.26 1.26 0 0 1 .3-.47zm-4.15-.42c.05-.04.13-.04.18 0 .06.03.1.07.14.13.07.1.08.23.08.32 0 .1 0 .2-.02.29s-.06.2-.12.29a.82.82 0 0 1-.15-.28 1.15 1.15 0 0 1-.05-.29v-.35c0-.04 0-.07-.06-.1zM70.18 74a.69.69 0 0 1 .54-.1.9.9 0 0 1 .5.27c.04.04.09.1.1.15l.05.16c.02.1 0 .2-.02.29-.03.18-.09.32-.13.5-.1-.17-.1-.36-.13-.51-.01-.16-.06-.28-.13-.35a1.15 1.15 0 0 0-.34-.24.92.92 0 0 0-.44-.17zm.48.6c.03.12-.04.24-.11.3a.62.62 0 0 1-.25.18c-.1.03-.2.06-.3.05a.51.51 0 0 1-.3-.12c.09-.07.17-.1.25-.15l.23-.1.23-.08c.07-.01.15-.03.25-.07zm10.03-2.86c-.1-.11-.2-.24-.3-.32a.86.86 0 0 0-.38-.15c-.26-.05-.56-.07-.86-.08l-.23-.02-.24-.04a1.8 1.8 0 0 1-.47-.12.87.87 0 0 1-.22-.14.46.46 0 0 1-.14-.24.46.46 0 0 1 .01-.25l.08-.22c-.02.15-.03.3.03.42s.17.18.3.21c.13.03.27.05.42.06h.22l.23-.01c.31 0 .62 0 .94.13a.9.9 0 0 1 .42.3 1.03 1.03 0 0 1 .2.47zm.85 1.05c-.22.04-.45.04-.68 0a1.26 1.26 0 0 1-.67-.29l.25-.23c.04.07.11.14.2.21.07.06.17.1.27.15.2.08.41.14.63.16z"/>
      </g>
    </g>
    <path fill="#F6F6F6" d="M79.05 71.14c.33 0 1.08.98 1.26 1.25.05.07-.7.42-.93.47-.55.12-.94.01-1.11-.16a1 1 0 0 1-.33-.74c0-.33.83-.82 1.1-.82z"/>
    <path stroke-width=".12" fill="#000" d="M79.01 71.18c-.09.04-.08.07-.17.07h-.1l-.13.07-.05.03-.08.08c-.09.1-.25.1-.3.26.05.33.28.77.61.86.1.03.2-.06.19-.16-.08-.37-.12-.92.03-1.2z"/>
    <g>
      <path stroke="none" fill="#000" d="M76.83 72.38c.22-.2.5-.31.71-.44a1.61 1.61 0 0 0 .31-.24l.3-.28.23.26a2.73 2.73 0 0 1-1.55.7z"/>
    </g>
  </g>
</svg>
