<svg xmlns="http://www.w3.org/2000/svg" fill="#d7374a" stroke="#000" viewBox="50 50 200 200">
  <metadata source="http://wappenwiki.org" license="https://creativecommons.org/licenses/by-nc-sa/3.0"/>
  <g id="stagsAttires" stroke-width=".58">
    <path d="M114.57 128.56a6.53 6.53 0 00-1.72-1.94c-.35-.23-.73-.43-1.1-.64-.95-.61-1.7-1.47-2.62-2.15-.9-.67-2.1-1.22-3.17-.87-1.23-.11-2.15.36-3.03.36s-1.62-.69-2.93-.69-2.07.69-2.93.69c-.88 0-1.8-.45-3.03-.36-1.08-.35-2.27.18-3.17.87-.9.66-1.67 1.54-2.62 2.15-.36.21-.75.4-1.1.64a6.06 6.06 0 00-1.72 1.94c-.27.45-.5 1.11-.1 1.45.14.11.34.15.51.2 4.71 1.07 7.65 2.18 11.38 5.64 1.31 1.21 1.78 2.7 2.78 2.7s1.47-1.49 2.78-2.7c3.73-3.44 6.67-4.57 11.38-5.65.17-.04.35-.08.5-.2.4-.33.18-1-.1-1.44z"/>
    <path d="M133.75 76.89c.28-.27.26-.68-.25-.6-.5.07-2.56.6-3.7 2.52-1.7 2.87-.68 5.8-2.17 7.72-.54.7-1.56.47-1.62-.76-.12-1.94.66-6.88.2-8.74 0 0 2.26-1.18 3.34-3.46 1.37-2.88-1.4-6.89 1.2-10.8.25-.43.05-.63-.46-.49-.62.04-1.76.74-2.42 1.74-1.92 2.9-.12 4.77-1.25 6.75-.38.6-1.53 2.35-2.76 1.7-3.25-1.94-2.7-6.22-4.48-8.7a6.44 6.44 0 00-3.34-2.07c-1.98-.55-3.02.43-2.66.52 1.7.47 2.64 1.22 3.24 2.13 1.22 1.84.37 4.82 2.23 7.63 1.55 2.33 2.1 2.66 2.62 5.38.6 2.85-.1 5.3-.08 6.92-.13.04-.6.43-1.34-.33-1.35-1.39-.63-3.19-.9-5.57-.38-3.15-1.78-4.78-3.8-5.05-1.25-.17-.58.5-.37.69 2.8 2.46.53 5.31.8 8.6.24 2.7 1.2 4.17 2.92 4.97 1.5.68 1.58 1.52 1.72 2.64.13 2.27-1.14 4.55-2.17 10.36-.79 2.1 1.05 12.1-4.66 13.34 0 0 .69-1.56-.14-2.93-1.19-2.02-.37-3.72.02-4.76 1.16-2.89 1.65-5.75.3-7.04-1.04-.9-.84 0-.8.34.4 2.97-1.69 4.42-3.35 7.5a6.13 6.13 0 00-.4 4.56c.5 1.74.71 3.25 0 5-.77 1.3-.42 2.61-2.41 4.33-.24.08-.94-.23-1.78.41a1.7 1.7 0 00-.6 1.08c-.03.39 0 .82.24 1.15.24.33.94.72 1.31.57-.05.58.04 1.47 1.94 2.33.76.35 2.03.21 2.03.21.1 0 .47.53 1.31.72.67.16 1.31-.17 1.67-.76a2.2 2.2 0 00.02-1.97 2.74 2.74 0 00-.59-.83.68.68 0 01-.2-.21c-.04-.1-.04-.2-.04-.31.02-.57-.03-.75.14-1.3.6-1.91 1.78-1.58 2.8-3.32.74-.39 3.23-1.23 5.8-4.42 1.1-1.13 2.12-3.83 2.22-4.8.13-.85.86-1.34 2.09-1.42 1.76-.1 4.42-1.87 4.95-5.24.27-2.29.29-5.36 1.07-6.96.7-1.45 1.6-2.17 1.72-2.3.18-.2.24-.52-.31-.46a4.4 4.4 0 00-2.68 1.21c-1.92 1.75-1.95 4.37-2.64 6.4-.57 1.7-1.64 2.91-3.03 2.54-1.11-.3-.43-2.85-.23-4.07.39-2.4 1.13-4.45 1.44-6.41.5-1.49 3.52-1.11 5.09-4.2 1.11-2.18 1.15-5.01 1.07-6.7-.21-3.85 1.86-4.7 2.13-4.98zm-67.45 0c-.27-.27-.25-.68.26-.6.5.07 2.56.6 3.7 2.52 1.7 2.87.68 5.8 2.17 7.72.54.7 1.56.47 1.62-.76.12-1.94-.67-6.88-.2-8.74 0 0-2.27-1.18-3.34-3.46-1.37-2.88 1.4-6.89-1.2-10.8-.25-.43-.05-.63.46-.49.62.04 1.76.74 2.42 1.74 1.92 2.9.12 4.77 1.25 6.75.37.6 1.53 2.35 2.76 1.7 3.25-1.94 2.7-6.22 4.48-8.7a6.44 6.44 0 013.34-2.07c1.98-.55 3.01.43 2.66.52-1.7.47-2.64 1.22-3.24 2.13-1.22 1.84-.38 4.82-2.23 7.63-1.55 2.33-2.1 2.66-2.62 5.38-.61 2.85.1 5.3.07 6.92.14.04.61.43 1.35-.33 1.35-1.39.63-3.19.9-5.57.37-3.15 1.78-4.78 3.8-5.05 1.25-.17.58.5.37.69-2.8 2.46-.53 5.31-.8 8.6-.24 2.7-1.2 4.17-2.92 4.97-1.5.68-1.58 1.52-1.72 2.64-.13 2.27 1.14 4.55 2.17 10.36.78 2.1-1.05 12.1 4.66 13.34 0 0-.69-1.56.13-2.93 1.2-2.02.38-3.72-.02-4.76-1.15-2.89-1.64-5.75-.29-7.04 1.04-.9.84 0 .8.34-.4 2.97 1.68 4.42 3.35 7.5.8 1.47.8 3.2.4 4.56-.5 1.74-.72 3.25 0 5 .77 1.3.42 2.61 2.41 4.33.24.08.94-.23 1.78.41.32.24.55.69.59 1.08.04.39 0 .82-.24 1.15-.23.33-.93.72-1.3.57.05.58-.04 1.47-1.94 2.33-.76.35-2.04.21-2.04.21-.1 0-.46.53-1.3.72a1.53 1.53 0 01-1.67-.76 2.2 2.2 0 01-.02-1.97c.14-.32.35-.59.59-.83a.68.68 0 00.2-.21c.03-.1.03-.2.03-.31-.02-.57.04-.75-.13-1.3-.6-1.91-1.78-1.58-2.8-3.32-.74-.39-3.23-1.23-5.8-4.42-1.1-1.13-2.12-3.83-2.22-4.8-.13-.85-.86-1.34-2.09-1.42-1.76-.1-4.42-1.87-4.95-5.24-.27-2.29-.3-5.36-1.07-6.96-.7-1.45-1.6-2.17-1.72-2.3-.18-.2-.24-.52.3-.46.56.06 1.57.2 2.69 1.21 1.91 1.75 1.95 4.37 2.64 6.4.56 1.7 1.64 2.91 3.03 2.54 1.11-.3.43-2.85.23-4.07-.39-2.4-1.13-4.2-1.44-6.41-.5-1.47-3.52-1.13-5.09-4.2-1.11-2.18-1.15-5.01-1.07-6.7.21-3.85-1.86-4.7-2.14-4.98z"/>
    <g fill="#000" stroke="none">
      <path d="M110.5 128.89c-.69.2-1.44.14-2.09.53.08-.8 1.06-1.24 1.7-.76l.39.23zm-3.97 1.47c-.22.68-1.32.2-.53-.22.2-.06.47 0 .53.22zm-.83-1.14c-.27.44-1.22.44-.75-.17.22-.27.68-.14.75.17zm-.48-.66c-.15.32-.91.34-.75-.1.15-.34.74-.33.75.1zm-.55-1.04c-.17.59-1.16.14-.5-.27.2-.1.49.04.5.27zm-.43-.8c-.27.75-1.05-.34-.26-.3.12.05.23.17.26.3zm-.33-.8c-.15.24-.47.37-.7.2-.26-.49.62-.74.7-.2zm-14.35 2.97c.44-.31 1.02-.62 1.53-.27.4.16.84 1.14.1.64-.5-.36-1.13-.1-1.63-.37zm3.97 1.47c.6-.92 1.29.83.21.21-.09-.06-.14-.14-.21-.21zm.84-1.14c.1-.5.93-.3.84.19-.32.45-.59.02-.84-.19zm.47-.66c.2-.87 1.31.27.4.27-.16 0-.27-.24-.4-.27zm.54-1.04c.13-.71 1.2.22.44.27-.27.12-.28-.13-.44-.27zm.43-.8c.21-.74 1.04.2.28.29-.17 0-.16-.22-.28-.29zm.34-.8c.13-.75 1.28.28.39.29-.21.07-.25-.2-.39-.29z"/>
      <path d="M126.36 77.3c-.9.4-2.12.83-.74-.1.47-.46.41-.54.74.1zm-18.52 45.4c-.9-.17-1.68.66-1.57 1.54-1.7.1.85-2.36 1.57-1.54zm2.9 1.2c1.11-.07 1.15 2.33.54 1.83-.16-.61-.28-1.25-.54-1.83zm11.73-46.38c-.23-1.51-1.11-2.8-1.58-4.23 1.16.98 2.18 2.7 1.58 4.23z"/>
      <path d="M120.85 98.81c.18 1.1-.35 2.21.04 3.28-.05.54-1.13 2.71-.88 1.24.63-.92-.14-1.83.23-2.77.15-.6.35-1.19.61-1.75zm-2.45 10.49c.39.7.14 1.7-.56 2.1-.06-.74.18-1.48.56-2.1zm7.94-21.52c-.94.29-1.4-.86-1.29-1.6.26-1.7.54 1.52 1.29 1.6zm-2.14 19.99c-.5.38-1.05.69-1.61.98-.07-.79.95-1.42 1.61-.98zm-11.21 6.33c-.7.47-1.09 1.2-2.05 1.25-.52.35-1.3.84-.63-.08a4.4 4.4 0 012.68-1.16zm1.83 4.46c.5-.5.78-1.17 1.18-1.76-.01.46-.39 2.86-1.18 1.76z"/>
      <path d="M74.01 76.81c.45.54 1.9 1.38.47.82-.71-.3-.93-.15-.47-.82zm18.21 45.89c.98-.37 2.08.38 2.17 1.43-1.07.5-.56-2-2.17-1.43zm-2.9 1.2c-.38.3-.35 2.55-.84 1.87-.3-.67.06-1.75.84-1.87zM77.59 77.52c-.62-1.54.44-3.24 1.58-4.23-.47 1.43-1.35 2.71-1.58 4.23z"/>
      <path d="M79.21 98.81c.54 1.12.91 2.39.52 3.57.35.64.48 2.35-.06.92-.76-.69-.36-1.62-.38-2.45a9.14 9.14 0 01-.08-2.04zm2.45 10.49c.39.37.96 2.77.09 1.68-.32-.49-.42-1.17-.09-1.68zm-7.94-21.52c.87-.14.67-2.4 1.25-1.82.14.79-.15 2.14-1.25 1.82zm2.15 19.99c.66-.44 1.66.2 1.6.98-.56-.27-1.1-.61-1.6-.98zm11.2 6.33c.77-.3 1.11.6 1.87.53.64.1 1.6 1.87.48.92-.51-.54-1.56-.25-1.82-1.06a1.21 1.21 0 00-.53-.39zm-2.3 4.82a3.4 3.4 0 01-.71-2.12c.02.68 1.57 1.5.89 1.99l-.18.13z"/>
    </g>
  </g>
</svg>
