<svg xmlns="http://www.w3.org/2000/svg" fill="#d7374a" stroke="#000" viewBox="50 50 200 200">
  <metadata source="http://wappenwiki.org/images/3/34/Podolia.svg" license="https://creativecommons.org/licenses/by-nc-sa/3.0"/>
  <g id="sunInSplendour2" stroke-width=".3">
    <path stroke-width=".32" stroke-linejoin="round" d="M125.69 107.09c-4.17.17-6.3 1.33-8.75-.24 3.9-.04 6.57-2.12 8.68-5.6 1.43-2.37 3.05-5.07 5.85-5.73 2.76-.65 4.54.1 6.04 1.42 0-.76-.6-2.38-1.64-3.24a8.47 8.47 0 0 0-10.08-.64c-3.42 2.2-4.7 4.2-7.45 4.2 3.23-2 4.9-5.33 5-9.31.07-2.76.61-6.18 2.71-8.15a8 8 0 0 1 6.71-2.2 4.73 4.73 0 0 0-3.11-1.7c-3.83-.63-7.63 1.3-9.99 4.85-2.13 3.2-2.66 6.22-5.15 7.65 1.84-3.34 1.64-7.1-.27-10.6-1.32-2.44-2.57-5.67-1.7-8.42a8.04 8.04 0 0 1 4.72-5.26 4.82 4.82 0 0 0-3.54.08c-3.64 1.35-5.96 4.92-6.25 9.17-.26 3.95.86 6.9-.79 9.43-.01-3.95-2.09-7.18-5.6-9.3-2.36-1.44-5.07-3.6-5.73-6.4-.65-2.77.11-5.42 1.42-6.93a4.76 4.76 0 0 0-3.02 1.86c-2.45 3-2.66 7.26-.74 11.08 1.7 3.41 4.03 5.37 4.08 8.2-2-3.22-5.33-4.9-9.3-4.99-2.77-.06-6.19-.6-8.16-2.7a8 8 0 0 1-2.2-6.71 4.73 4.73 0 0 0-1.7 3.1c-.63 3.84 1.3 7.63 4.86 10 3.19 2.13 6.21 2.66 7.64 5.14-3.34-1.83-7.1-1.63-10.6.28-2.43 1.32-5.67 2.56-8.42 1.7a8.04 8.04 0 0 1-5.25-4.72 4.82 4.82 0 0 0 .07 3.54c1.36 3.64 4.92 5.96 9.18 6.25 3.92.26 6.86-.85 9.38.77-3.93.02-6.6 2.1-8.71 5.6-1.43 2.36-3.05 5.07-5.85 5.73a5.61 5.61 0 0 1-5.71-1.42 4.84 4.84 0 0 0 1.53 3.23 8.14 8.14 0 0 0 9.86.64c3.46-2.22 4.72-4.27 7.56-4.2-3.29 2-4.54 5.1-4.62 9.14-.06 2.76-.1 5.92-2.2 7.88-2.07 1.95-3.82 2.34-5.79 1.96a5.3 5.3 0 0 0 3.14 1.93c3.67.6 7.03-1.17 8.81-4.6 1.86-3.59 1.97-5.96 4.31-7.34-1.8 3.33-1.58 7.04.32 10.53 1.32 2.43 2.56 5.66 1.7 8.41a8.04 8.04 0 0 1-4.72 5.26c1.06.44 2.27.39 3.54-.07 3.64-1.36 5.96-4.92 6.25-9.18.26-3.95-.86-6.9.79-9.43 0 3.95 2.09 7.19 5.6 9.31 2.36 1.43 5.07 3.6 5.73 6.4.65 2.76-.11 5.41-1.42 6.92a4.76 4.76 0 0 0 3.01-1.86c2.46-3 2.66-7.26.75-11.07-1.7-3.41-4.04-5.37-4.08-8.21 2 3.22 5.32 4.9 9.3 5 2.77.06 6.19.6 8.16 2.7a8 8 0 0 1 2.2 6.7 4.73 4.73 0 0 0 1.7-3.1c.63-3.83-1.3-7.63-4.86-10-3.22-2.14-6.27-2.66-7.69-5.22 3.36 1.86 6.67 1.4 10.2-.54 2.42-1.33 5.18-2.84 7.94-2 2.72.82 3.6 2.53 4.25 4.42a5.69 5.69 0 0 0 .22-3.68c-1.16-3.97-4.26-5.89-8.12-5.72z"/>
    <g stroke="none" fill="#000">
      <path d="M102.28 78.44c.25.33.46.7.63 1.1a7.66 7.66 0 0 1 .57 2.45c.02.41 0 .84-.09 1.25a15.07 15.07 0 0 0-.12-1.23l-.11-.6-.07-.3-.06-.3c-.09-.4-.21-.8-.33-1.19a13.53 13.53 0 0 0-.42-1.18zm-3.48-1.92a5.28 5.28 0 0 1 .82 1.02 8.93 8.93 0 0 1 1.03 2.4c.1.43.17.86.17 1.3a12.36 12.36 0 0 0-1.34-3.6c-.21-.38-.43-.76-.68-1.12zm-1.15 45.06a5.1 5.1 0 0 1-.63-1.1 7.66 7.66 0 0 1-.57-2.45c-.02-.41 0-.84.09-1.25.02.42.06.82.12 1.23l.1.6.07.3.07.3a15.95 15.95 0 0 0 .75 2.37zm3.47 1.92a5.28 5.28 0 0 1-.8-1.02 8.93 8.93 0 0 1-1.04-2.4c-.1-.43-.17-.86-.17-1.3a12.36 12.36 0 0 0 1.34 3.61c.21.39.43.75.67 1.11zm11.58-41.05a6.62 6.62 0 0 1-.72 3.66 4.47 4.47 0 0 1-.7 1.05 14.83 14.83 0 0 0 .71-1.72l.1-.28.09-.3a15.73 15.73 0 0 0 .52-2.41zm-2.06-3.39c.12.42.18.86.2 1.29a8.69 8.69 0 0 1-.3 2.6 5.24 5.24 0 0 1-.5 1.2 13.06 13.06 0 0 0 .63-3.8c0-.43 0-.86-.03-1.29zm-23.4 38.51a6.62 6.62 0 0 1 .7-3.66c.2-.37.43-.74.71-1.05a14.83 14.83 0 0 0-.71 1.72l-.1.29-.1.3a15.73 15.73 0 0 0-.5 2.4zm2.05 3.39a5.7 5.7 0 0 1-.2-1.29 8.69 8.69 0 0 1 .3-2.6c.12-.41.28-.82.5-1.2a13.06 13.06 0 0 0-.6 5.09zm32.3-18.69c-.34.25-.7.46-1.1.63a7.66 7.66 0 0 1-2.45.57c-.42.02-.84 0-1.25-.09.42-.02.82-.06 1.23-.12l.6-.1.3-.07.3-.07c.4-.09.8-.21 1.19-.33a13.53 13.53 0 0 0 1.17-.42zm1.92-3.47a5.28 5.28 0 0 1-1.02.8 8.93 8.93 0 0 1-2.4 1.04c-.43.1-.86.17-1.3.17a12.36 12.36 0 0 0 3.6-1.34c.38-.21.76-.43 1.12-.67zm-45.06-1.05c.33-.25.7-.46 1.1-.63a7.66 7.66 0 0 1 2.45-.57c.41-.02.84 0 1.25.09-.42.02-.82.06-1.23.12l-.6.11-.3.07-.3.06c-.4.09-.8.21-1.19.33a13.53 13.53 0 0 0-1.18.42zm-1.92 3.48a5.28 5.28 0 0 1 1.02-.82 8.93 8.93 0 0 1 2.4-1.03c.43-.1.86-.17 1.3-.17a87.36 71.06 0 0 0-3.61 1.35c-.39.2-.75.42-1.11.67zm43.25-10.15a5.38 5.38 0 0 1-.63 1.1 7.57 7.57 0 0 1-1.82 1.72 4.73 4.73 0 0 1-1.13.56c.35-.23.68-.47 1-.72l.47-.4a3.96 3.96 0 0 0 .23-.21l.22-.2a16.2 16.2 0 0 0 1.66-1.85zm-.09-3.96a7.79 7.79 0 0 1-3.05 4.12 11.91 11.91 0 0 0 2.43-2.98c.23-.38.42-.75.62-1.14zm-39.44 21.82c.15-.39.38-.75.62-1.1a82.57 66.27 0 0 1 1.83-1.72 4.73 4.73 0 0 1 1.13-.56c-.35.23-.68.47-1 .73l-.47.4a3.96 3.96 0 0 0-.23.2l-.22.21a16.2 16.2 0 0 0-1.66 1.84zm.1 3.96a7.79 7.79 0 0 1 3.05-4.12 11.91 11.91 0 0 0-2.43 2.98 12.76 12.76 0 0 0-.62 1.14zm28.59 6.87a5.38 5.38 0 0 1-1.1-.62 7.57 7.57 0 0 1-1.72-1.83 4.73 4.73 0 0 1-.56-1.13c.23.35.47.68.72 1l.4.47a3.96 3.96 0 0 0 .2.23l.22.22a16.2 16.2 0 0 0 1.84 1.66zm3.97-.09a7.79 7.79 0 0 1-4.12-3.05 11.91 11.91 0 0 0 2.98 2.43c.38.23.75.44 1.14.62zM91.09 80.25c.39.15.75.38 1.1.63a7.57 7.57 0 0 1 1.72 1.82 4.73 4.73 0 0 1 .56 1.13c-.23-.35-.47-.68-.73-1l-.4-.47a3.96 3.96 0 0 0-.2-.23l-.21-.22a16.2 16.2 0 0 0-1.84-1.66zm-3.97.09a7.79 7.79 0 0 1 4.12 3.05 11.91 11.91 0 0 0-2.98-2.43c-.37-.23-.74-.44-1.14-.62zm-4.55 6.7a6.86 6.86 0 0 1 4.68 1.5 16.97 16.97 0 0 0-1.69-.73l-.29-.1-.3-.1a15.84 15.84 0 0 0-2.4-.56zm-3.42 2.13c.41-.12.85-.17 1.28-.19a8.69 8.69 0 0 1 2.59.33c.42.14.82.3 1.2.52a9.96 9.96 0 0 0-1.24-.35 15.98 15.98 0 0 0-2.55-.33c-.41 0-.84 0-1.28.02zm38.2 23.7a6.86 6.86 0 0 1-4.69-1.5 16.97 16.97 0 0 0 1.7.74l.28.1.3.08a15.84 15.84 0 0 0 2.41.57zm3.42-2.02a5.69 5.69 0 0 1-1.29.19 8.69 8.69 0 0 1-2.58-.33 5.8 5.8 0 0 1-1.2-.52c.4.14.82.27 1.24.35a15.98 15.98 0 0 0 2.54.33c.43 0 .86 0 1.3-.02zM97.21 81.23a5.61 5.61 0 0 1 .6 1.6 5.47 5.47 0 0 1 .08 1.69 4.22 4.22 0 0 0-.24-1.64c-.09-.27-.2-.52-.3-.77a5.72 5.72 0 0 0-.42-.72l.28-.16zm5.18 37.56a5.61 5.61 0 0 1-.6-1.6 5.47 5.47 0 0 1-.08-1.69 4.22 4.22 0 0 0 .24 1.64 5.72 5.72 0 0 0 .72 1.49l-.28.16zm4.52-36.44a7.32 7.32 0 0 1-.28 1.7 4.93 4.93 0 0 1-.76 1.5 4.75 4.75 0 0 0 .71-2.37c.02-.28.02-.56.01-.82l.32-.01zm-14.3 35.06a7.32 7.32 0 0 1 .29-1.7 4.93 4.93 0 0 1 .76-1.5 4.75 4.75 0 0 0-.72 2.37c-.02.28-.02.55-.01.82h-.32zm26.2-20.21a5.61 5.61 0 0 1-1.61.6 5.47 5.47 0 0 1-1.69.08 4.22 4.22 0 0 0 1.64-.24c.27-.09.52-.2.77-.3a5.72 5.72 0 0 0 .72-.42l.16.28zm-37.57 5.18a5.61 5.61 0 0 1 1.6-.6 5.47 5.47 0 0 1 1.69-.08 4.22 4.22 0 0 0-1.64.24c-.27.09-.52.2-.77.3a5.72 5.72 0 0 0-.72.42l-.16-.28zm33.58-14.27c-.15.26-.33.48-.5.7a4.95 4.95 0 0 1-2 1.56 4.22 4.22 0 0 0 1.29-1.05 5.83 5.83 0 0 0 .92-1.36l.29.15zm-30.05 23.41c.15-.25.33-.47.5-.7a4.95 4.95 0 0 1 2-1.55 4.22 4.22 0 0 0-1.3 1.04 5.83 5.83 0 0 0-.92 1.37l-.28-.16zm26.6 3.4c-.26-.15-.48-.33-.7-.5a4.95 4.95 0 0 1-1.56-2 4.22 4.22 0 0 0 1.05 1.3 5.83 5.83 0 0 0 1.36.92l-.15.28zm-23.2-30.04c.26.15.48.33.71.5a4.95 4.95 0 0 1 1.55 2 4.22 4.22 0 0 0-1.04-1.29 5.83 5.83 0 0 0-1.37-.92l.16-.29zm-5.78 7.95c.3.01.57.06.86.1a6.47 6.47 0 0 1 1.62.53c.25.12.48.29.71.46a4.01 4.01 0 0 0-1.54-.61 6.93 6.93 0 0 0-.81-.12 6.77 6.77 0 0 0-.82-.03l-.02-.33zm34.98 14.2c-.3 0-.57-.05-.86-.1a6.47 6.47 0 0 1-1.61-.52 4.17 4.17 0 0 1-.72-.47 4.01 4.01 0 0 0 1.54.62 6.92 6.92 0 0 0 1.63.14l.02.33zm-20.15 5.16c.44.14.88.18 1.33.21l.67.02h.68c.46 0 .9-.03 1.35-.06.45-.03.89-.08 1.34-.17-.4.22-.86.34-1.31.42a8.2 8.2 0 0 1-2.75.05l-.34-.07-.33-.1a2 2 0 0 1-.64-.3zm7.57-7.11c.05-.28 0-.53-.1-.76a1.85 1.85 0 0 0-1.08-.95c-.24-.08-.5-.1-.78-.1.24-.14.55-.19.84-.15a1.6 1.6 0 0 1 1.27 1.12c.03.14.05.3.02.44a.88.88 0 0 1-.17.4zm-.26 5.87a6.9 6.9 0 0 0-1.08-.58c-.2-.1-.38-.16-.58-.23l-.28-.1-.3-.1c-.4-.09-.8-.19-1.19-.23-.2-.04-.4-.05-.6-.07l-.6-.02c-.2.01-.41 0-.61.02s-.4.03-.6.07c-.41.04-.81.14-1.2.24l-.3.09-.28.1a7.42 7.42 0 0 0-1.66.81c.3-.29.65-.52 1.01-.73a7.14 7.14 0 0 1 3.62-.93 7.84 7.84 0 0 1 3.62.93c.39.21.74.44 1.03.73z"/>
      <polygon points="103.06 97.01 102.8 97.84 102.73 96.98"/>
      <polygon points="97.08 96.98 97 97.94 96.75 97.01"/>
    </g>
    <g>
      <g stroke="none" fill="#000">
        <path d="M95.66 105.67c.04-.1.1-.19.2-.25a.75.75 0 0 1 .3-.15c.21-.05.44-.03.65.05l.08.03.08.05.13.1.22.24.43.45c.3.27.62.51 1 .66a3.29 3.29 0 0 0 2.35-.01c.38-.15.7-.39 1.02-.66l.43-.44.24-.24.13-.1.07-.05.08-.03c.21-.08.44-.1.66-.05.11.04.21.08.3.15.09.06.15.15.2.25a.71.71 0 0 0-.5-.3c-.2-.03-.4.01-.6.1l-.06.02-.05.04-.1.1-.2.24a8.8 8.8 0 0 1-.42.48 3.2 3.2 0 0 1-2.36 1.03c-.44 0-.9-.08-1.3-.26-.4-.17-.77-.45-1.07-.77a9.02 9.02 0 0 1-.42-.5l-.2-.23-.1-.1c-.02-.02-.03-.04-.05-.04l-.06-.03a.97.97 0 0 0-.59-.1.73.73 0 0 0-.5.32zm-.62-.6a.85.85 0 0 1-.16-.39c-.03-.14-.01-.3.02-.44a1.55 1.55 0 0 1 1.27-1.12c.3-.05.6 0 .84.15a1.93 1.93 0 0 0-1.42.46 1.64 1.64 0 0 0-.44.59c-.1.23-.16.48-.1.76zm1.57-10.1c.4.51.76 1.06 1.03 1.66l.1.22.08.23c.06.15.13.3.16.46l.12.47.09.49.05.48.02.5v.48l-.04.48c-.04.65-.18 1.28-.1 1.92-.12-.3-.14-.64-.15-.96v-.97a9.48 9.48 0 0 0-.57-3.71c-.2-.6-.5-1.16-.79-1.74zm5.47 3.3c0 .26-.03.51-.05.76l-.1.72-.05.72a5.61 5.61 0 0 0 .03.73 1.7 1.7 0 0 1-.29-.71 3.48 3.48 0 0 1 .46-2.21z"/>
      </g>
      <g>
        <path fill="none" stroke-width=".33" stroke-linejoin="round" d="M87.83 93.14c-.2.1.74-1.14 2.3-1.9a6.53 6.53 0 0 1 3.37-.57 6.66 6.66 0 0 1 3.25 1.28c.89.7 1.26 1.04 1.28 1.39-.75.4-2-1.18-4.8-1.4a9.49 9.49 0 0 0-2.98.18c-.69.17-1.74.66-2.42 1.02z"/>
      </g>
      <path fill="#F6F6F6" stroke-linejoin="round" d="M96.91 97c0 .02-.24-2.7-2.78-2.84-2.27.04-2.9.66-3.58 1.21-.51.42-.83.5-.83.5s1.71 1.93 4.01 1.95a7.82 7.82 0 0 0 3.18-.83z"/>
      <path fill="none" stroke-linejoin="round" d="M95.47 95.32c0-.13 0-.4-.02-.6l-.01-.23a3.1 3.1 0 0 0-1.31-.31 5.98 5.98 0 0 0-2.41.42c-.06.22-.1.42-.11.59-.03 1 .8 1.83 1.87 1.88 1.07.02 1.96-.76 2-1.75z"/>
      <g stroke="none" fill="#000">
        <path d="M92.79 95.14c-.01.48.32.88.76.9.44 0 .8-.37.82-.84.01-.47-.33-.88-.76-.9-.45-.01-.81.36-.82.84z"/>
        <path d="M90.23 94.43a4.21 4.21 0 0 1 3.27-1.6 3.8 3.8 0 0 1 1.85.39 2.9 2.9 0 0 1 1.34 1.27 3.6 3.6 0 0 0-2.29-1.26 4.67 4.67 0 0 0-1.76.04c-.28.06-.57.15-.84.26a4.95 4.95 0 0 0-1.57.9z"/>
      </g>
      <g>
        <path fill="none" stroke-width=".33" stroke-linejoin="round" d="M111.97 93.14c.19.1-.75-1.14-2.3-1.9a6.53 6.53 0 0 0-3.38-.57 6.66 6.66 0 0 0-3.24 1.28c-.9.7-1.26 1.04-1.29 1.39.76.4 2.02-1.18 4.8-1.4.9-.1 2.08-.05 3 .18.68.17 1.73.65 2.41 1.02z"/>
      </g>
      <path fill="#F6F6F6" stroke-linejoin="round" d="M102.9 97c0 .02.24-2.7 2.78-2.84 2.26.04 2.9.66 3.57 1.21.52.42.84.5.84.5s-1.72 1.93-4.01 1.95a7.82 7.82 0 0 1-3.18-.83z"/>
      <path fill="none" stroke-linejoin="round" d="M104.33 95.3c0-.12 0-.39.02-.6v-.22c.35-.17.78-.3 1.32-.32 1.15.03 1.88.2 2.4.43.06.22.1.42.12.59.03 1-.8 1.83-1.87 1.88a1.9 1.9 0 0 1-2-1.75z"/>
      <g stroke="none" fill="#000">
        <path d="M106.2 94.3c-.44.02-.79.43-.76.9s.38.85.82.83c.44 0 .77-.41.76-.89s-.38-.85-.82-.83z"/>
        <path d="M109.57 94.42a5.53 5.53 0 0 0-3.27-1.27 4.67 4.67 0 0 0-1.73.29 3.6 3.6 0 0 0-1.44 1.03c.27-.55.77-.99 1.34-1.27a3.64 3.64 0 0 1 1.85-.39 4.3 4.3 0 0 1 1.82.44c.55.29 1.05.68 1.43 1.17z"/>
      </g>
    </g>
  </g>
</svg>
