<svg xmlns="http://www.w3.org/2000/svg" fill="#d7374a" stroke="#000" viewBox="50 50 200 200">
<metadata source="https://commons.wikimedia.org/wiki/File:Scottish_Thistle_(Heraldry).svg" author="Sodacan" license="https://creativecommons.org/licenses/by-sa/3.0"/>
  <g id="thistle" stroke-width="1.5" transform="translate(60 60) scale(0.32)">
    <g>
      <path d="M129.59 227.43s-13.6-5.5-27.62-3.19c-9.64 1.58-16.96 10.59-26.56 12.4-3.6.67-10.98-.71-10.98-.71 7.08-4.25 5.8-8.5 7.79-12.75-2.7-.84-3.28.94-7.96-1.7-5.37-3.02-3.6-9.44-13.27-9.56-9.03-.11-15.87 4.13-24.1 8.78-1.74-6.62 1.55-9.83 3.19-13.46-3.61-1.47-3.08-9.04-12.4-13.8 12.38-4.1 14.98 8.63 25.5 4.95-4.46-15.88-35.77-15.62-41.43-47.8 11.5 10.42 19.97 7.57 21.6 6.72a530.1 530.1 0 01-7.57-14.93c-3.26-6.78-1.32-14.14-6.95-20.84 6.71 2.25 7.28 4.49 9.56 6.73-.5-5.3-1.35-10.62 1.42-15.93 1.38 2.77 2.03 6.76 5.31 6.37 2.4-8.04 5.87-13.65 10.98-15.58-2.14 8.7 4.65 15.08-1.06 23.73 5.24 1.86 8-5.33 14.87-3.19-2.73 6.25-5.74 10.86-7.18 24.89-.9 8.84 9.43 11.52 11.6 3.41.5-1.9.57-1.7-.17-7.4 13.55 11.72 3.44 24.24 6.73 36.11 1.91 6.9 9.82 4.3 9.2 0l-1.41-9.91 4.6 3.18-2.83-9.56s6.36 2.2 8.5 4.6c8.93 10.07 6.31 27.16 14.87 37.54 2.23 2.7 5.64 4.27 8.85 5.67 3.92 1.7 8.55 1.35 12.4 3.19 10.81 5.17 14.52 12.04 14.52 12.04z"/>
      <path stroke="none" fill="#fff" fill-opacity="0.05" d="M32.69 109.99c.28 2.07.74 3.95 1.06 5.62.67 3.52.93 5.97-1.4 9.5a3.2 3.2 0 001.62 4.78c2 .72 4.1.55 5.69 0 1.59-.54 2.78-1.35 3.84-1.97.56-.33.95-.48 1.4-.71-2.12 4.74-4.26 10.18-5.37 21.03-.58 5.68 2.7 10.28 7 11.47 4.05 1.12 8.75-1.36 10.5-6.13 1.17 2.79 1.35 5.57 1.13 8.75-.4 5.64-2.33 12.16-.38 19.19 1.29 4.65 5.59 7.07 9.13 6.53a7.84 7.84 0 004.62-2.4 6.69 6.69 0 001.72-5.41l-.44-3.13a3.2 3.2 0 003.53-4.06l-.75-2.5c.24.17.86.47.94.56 3.77 4.25 5.32 10.43 6.84 17.25 1.53 6.82 3.04 14.24 7.97 20.22 2.88 3.49 6.82 5.15 10.07 6.56 4.9 2.14 9.47 1.79 12.28 3.13a37.54 37.54 0 015.31 3.19c-5.08-.87-11.13-1.44-17.56-.38-5.65.93-10.23 3.88-14.47 6.56-4.25 2.69-8.16 5.1-12.16 5.85-.56.1-2.02-.02-3.22-.07.62-.91 1.3-1.83 1.63-2.71 1-2.65 1.2-4.65 1.9-6.16a3.2 3.2 0 00-1.96-4.44c-2.03-.63-3.6-.32-4.22-.31-.62 0-1.1.04-3.13-1.1-1.7-.96-2.2-2.5-3.97-4.96-1.76-2.46-5.26-4.93-10.8-5-8.18-.1-14.67 2.98-21.2 6.62.5-2.25 1.87-3.94 3.16-6.81a3.2 3.2 0 00-1.69-4.28c.01 0-.17-.08-.62-.81-.45-.74-1.03-1.98-1.85-3.44-.55-1-1.48-2.14-2.34-3.25.93.47 1.88 1.02 2.94 1.69 1.72 1.08 3.62 2.4 6.1 3.18 2.46.8 5.5.9 8.71-.22a3.2 3.2 0 002.03-3.9c-1.38-4.91-4.83-8.43-8.75-11.35-3.92-2.9-8.46-5.36-12.87-8.25-6.99-4.56-13.56-9.98-17.35-19.5a25.34 25.34 0 008.53 2.91c4.45.57 7.45-.4 8.97-1.19a3.2 3.2 0 001.38-4.31 527.8 527.8 0 01-7.53-14.84c-1.33-2.76-1.66-5.94-2.32-9.63-.04-.26-.16-.57-.22-.84l.04.03a3.2 3.2 0 005.43-2.6c-.25-2.63-.5-5-.47-7.24.1.06.13.15.22.21a6.37 6.37 0 004.16.97 3.2 3.2 0 002.69-2.28c1.25-4.2 2.79-7.32 4.5-9.62z"/>
      <path stroke="none" fill="#fff" fill-opacity="0.05" d="M26.72 126.86a8.33 8.33 0 005.53 7.85c1.43.5 2.95.64 4.4.65-.89 3.45-1.7 7.32-2.21 12.35-.8 7.7 3.94 15.06 10.72 16.93 2.45.68 5.11.44 7.62-.47-.63 4.8-2.07 11.01.06 18.72 1.82 6.56 9.08 11.1 14.85 10.22a12.74 12.74 0 007.6-4c.84-.91 1.53-2.1 2.08-3.37.33 1.27.72 2.3 1.04 3.72 1.52 6.79 3 15.12 8.96 22.37a22.79 22.79 0 007.44 5.81c-4.16 1.58-7.62 3.81-10.6 5.69-1.5.96-2.78 1.67-4.09 2.4a8.33 8.33 0 00-5.43-10.5c-3.12-.96-5.92-.55-5.82-.56.11 0 .98.42-.53-.43-.15-.09-.06-.28-2.34-3.47-2.29-3.2-8.22-7.08-14.9-7.16-.56 0-1.03.14-1.57.16a8.33 8.33 0 001.66-7.63c-1.8-6.41-6.25-10.83-10.6-14.06-4.35-3.23-8.92-5.7-13.12-8.44a54.01 54.01 0 01-8.75-7.03c3.68-.02 6.43-.88 8.47-1.94a8.33 8.33 0 003.53-11.21 529.1 529.1 0 01-7.44-14.72c-.4-.83-.7-1.86-.97-3.13a8.33 8.33 0 004.38-8.12c-.03-.25-.01-.36-.03-.6a8.33 8.33 0 00.06-.03z"/>
      <path stroke="none" fill="#000" fill-opacity="0.8" d="M31.06 117.77s-1.72 3.32-2.6 7.19c-.87 3.86-.89 8.32-.68 11.25a74.15 74.15 0 005 21.46c-.3-5.98-.56-18.55 8.88-26.43-6.24 7.76-8.77 17.76-7.29 30.28a96.4 96.4 0 004.7 9.22c3.02 5.23 7.38 9.62 11.87 14-1.42-6.38-.98-10.09.12-13.28 1.25-3.63 3.09-6.75 3.72-13.7 1.46 4.63-2.32 11.06-3.16 18.73-.33 3.1.47 7.05 1.29 10.15 1.89 1.85 3.77 3.72 5.56 5.66 6.13 6.66 10.18 12.23 16.47 18.25a25.6 25.6 0 005.37 3.72c-3.56-5.65-3.66-11.18-3.28-16.44.43-6.01 1.4-11.68-1.28-17.31 4.55 4.37 2.93 15.34 2.78 17.44-.43 5.9-.27 11.66 4.69 17.78 1.6.7 3.23 1.27 4.78 1.68 5.61 1.52 10.68 1.34 16.19 2.35 0 0-2.76.11-6.19.1-3.43-.03-7.5-.19-10.31-.88a35.31 35.31 0 01-12.13-5.7c-1.37-.98-2.67-2.05-3.9-3.18-5.32-2.66-11.65-4.64-16.88-5.15a25.08 25.08 0 00-18.5 5.4c2.29-4.4 11.74-6.8 13.72-6.97 1.64-.13 3.27-.1 4.9.07 4.94.49 9.36 1.59 13.76 3.62-4.11-4.34-7.72-9.15-11.66-13.44-2.56-2.78-5.35-5.42-8.13-8.12-5.72-3.87-11.67-6.06-17.25-8.94-3.56-1.84-15.07-6.25-18-13.06 5.6 5.7 11.95 8.73 18.63 11.69 4.02 1.77 8.13 3.58 12.25 5.9a51.61 51.61 0 01-7.16-9.37 84.83 84.83 0 01-4.03-8.32l-.1.04-11.27-17c2.08.78 6.29 6.78 9 10.84-5.05-14.11-8.2-31.87.12-39.53z" />
      <path d="M120.41 227.43s13.6-5.5 27.62-3.19c9.64 1.58 16.96 10.59 26.56 12.4 3.6.67 10.98-.71 10.98-.71-7.08-4.25-5.8-8.5-7.79-12.75 2.7-.84 3.28.94 7.96-1.7 5.37-3.02 3.6-9.44 13.27-9.56 9.03-.11 15.87 4.13 24.1 8.78 1.74-6.62-1.55-9.83-3.19-13.46 3.61-1.47 3.08-9.04 12.4-13.8-12.38-4.1-14.98 8.63-25.5 4.95 4.46-15.88 35.77-15.62 41.43-47.8-11.5 10.42-19.97 7.57-21.6 6.72a530.1 530.1 0 007.57-14.93c3.26-6.78 1.32-14.14 6.95-20.84-6.71 2.25-7.28 4.49-9.56 6.73.5-5.3 1.35-10.62-1.42-15.93-1.38 2.77-2.03 6.76-5.31 6.37-2.4-8.04-5.87-13.65-10.98-15.58 2.14 8.7-4.65 15.08 1.06 23.73-5.24 1.86-8-5.33-14.87-3.19 2.73 6.25 5.74 10.86 7.18 24.89.9 8.84-9.43 11.52-11.6 3.41-.5-1.9-.57-1.7.17-7.4-13.55 11.72-3.44 24.24-6.73 36.11-1.91 6.9-9.82 4.3-9.2 0l1.41-9.91-4.6 3.18 2.83-9.56s-6.36 2.2-8.5 4.6c-8.93 10.07-6.31 27.16-14.87 37.54-2.23 2.7-5.64 4.27-8.85 5.67-3.92 1.7-8.55 1.35-12.4 3.19-10.81 5.17-14.52 12.04-14.52 12.04z"/>
      <path stroke="none" fill="#fff" fill-opacity="0.05" d="M217.31 109.99c-.28 2.07-.74 3.95-1.06 5.62-.67 3.52-.93 5.97 1.4 9.5a3.2 3.2 0 01-1.62 4.78c-2 .72-4.1.55-5.69 0-1.59-.54-2.78-1.35-3.84-1.97-.56-.33-.95-.48-1.4-.71 2.12 4.74 4.26 10.18 5.37 21.03.58 5.68-2.7 10.28-7 11.47-4.05 1.12-8.75-1.36-10.5-6.13-1.17 2.79-1.35 5.57-1.13 8.75.4 5.64 2.33 12.16.38 19.19-1.29 4.65-5.59 7.07-9.13 6.53a7.84 7.84 0 01-4.62-2.4 6.69 6.69 0 01-1.72-5.41l.44-3.13a3.2 3.2 0 01-3.53-4.06l.75-2.5c-.24.17-.86.47-.94.56-3.77 4.25-5.32 10.43-6.84 17.25-1.53 6.82-3.04 14.24-7.97 20.22-2.88 3.49-6.82 5.15-10.07 6.56-4.9 2.14-9.47 1.79-12.28 3.13a37.54 37.54 0 00-5.31 3.19c5.08-.87 11.13-1.44 17.56-.38 5.65.93 10.23 3.88 14.47 6.56 4.25 2.69 8.16 5.1 12.16 5.85.56.1 2.02-.02 3.22-.07-.62-.91-1.3-1.83-1.63-2.71-1-2.65-1.2-4.65-1.9-6.16a3.2 3.2 0 011.96-4.44c2.03-.63 3.6-.32 4.22-.31.62 0 1.1.04 3.13-1.1 1.7-.96 2.2-2.5 3.97-4.96 1.76-2.46 5.26-4.93 10.8-5 8.18-.1 14.67 2.98 21.2 6.62-.5-2.25-1.87-3.94-3.16-6.81a3.2 3.2 0 011.69-4.28c-.01 0 .17-.08.62-.81.45-.74 1.03-1.98 1.85-3.44.55-1 1.48-2.14 2.34-3.25-.93.47-1.88 1.02-2.94 1.69-1.72 1.08-3.62 2.4-6.1 3.18-2.46.8-5.5.9-8.71-.22a3.2 3.2 0 01-2.03-3.9c1.38-4.91 4.83-8.43 8.75-11.35 3.92-2.9 8.46-5.36 12.87-8.25 6.99-4.56 13.56-9.98 17.35-19.5a25.34 25.34 0 01-8.53 2.91c-4.45.57-7.45-.4-8.97-1.19a3.2 3.2 0 01-1.38-4.31 527.8 527.8 0 007.53-14.84c1.33-2.76 1.66-5.94 2.32-9.63.04-.26.16-.57.22-.84l-.04.03a3.2 3.2 0 01-5.43-2.6c.25-2.63.5-5 .47-7.24-.1.06-.13.15-.22.21a6.37 6.37 0 01-4.16.97 3.2 3.2 0 01-2.69-2.28c-1.25-4.2-2.79-7.32-4.5-9.62z"/>
      <path stroke="none" fill="#fff" fill-opacity="0.05" d="M223.28 126.86a8.33 8.33 0 01-5.53 7.85c-1.43.5-2.95.64-4.4.65.89 3.45 1.7 7.32 2.21 12.35.8 7.7-3.94 15.06-10.72 16.93-2.45.68-5.11.44-7.62-.47.63 4.8 2.07 11.01-.06 18.72-1.82 6.56-9.08 11.1-14.85 10.22a12.74 12.74 0 01-7.6-4c-.84-.91-1.53-2.1-2.08-3.37-.33 1.27-.72 2.3-1.04 3.72-1.52 6.79-3 15.12-8.96 22.37a22.79 22.79 0 01-7.44 5.81c4.16 1.58 7.62 3.81 10.6 5.69 1.5.96 2.78 1.67 4.09 2.4a8.33 8.33 0 015.43-10.5c3.12-.96 5.92-.55 5.82-.56-.11 0-.98.42.53-.43.15-.09.06-.28 2.34-3.47 2.29-3.2 8.22-7.08 14.9-7.16.56 0 1.03.14 1.57.16a8.33 8.33 0 01-1.66-7.63c1.8-6.41 6.25-10.83 10.6-14.06 4.35-3.23 8.92-5.7 13.12-8.44a54.01 54.01 0 008.75-7.03 18.33 18.33 0 01-8.47-1.94 8.33 8.33 0 01-3.53-11.21 529.1 529.1 0 007.44-14.72c.4-.83.7-1.86.97-3.13a8.33 8.33 0 01-4.38-8.12c.03-.25.01-.36.03-.6a8.33 8.33 0 01-.06-.03z"/>
      <path stroke="none" fill="#000" fill-opacity="0.8" d="M218.94 117.77s1.72 3.32 2.6 7.19c.87 3.86.89 8.32.68 11.25a74.15 74.15 0 01-5 21.46c.3-5.98.56-18.55-8.88-26.43 6.24 7.76 8.77 17.76 7.29 30.28a96.4 96.4 0 01-4.7 9.22c-3.02 5.23-7.38 9.62-11.87 14 1.42-6.38.98-10.09-.12-13.28-1.25-3.63-3.09-6.75-3.72-13.7-1.46 4.63 2.32 11.06 3.16 18.73.33 3.1-.47 7.05-1.29 10.15-1.89 1.85-3.77 3.72-5.56 5.66-6.13 6.66-10.18 12.23-16.47 18.25a25.6 25.6 0 01-5.37 3.72c3.56-5.65 3.66-11.18 3.28-16.44-.43-6.01-1.4-11.68 1.28-17.31-4.55 4.37-2.93 15.34-2.78 17.44.43 5.9.27 11.66-4.69 17.78-1.6.7-3.23 1.27-4.78 1.68-5.61 1.52-10.68 1.34-16.19 2.35 0 0 2.76.11 6.19.1 3.43-.03 7.5-.19 10.31-.88a35.31 35.31 0 0012.13-5.7c1.37-.98 2.67-2.05 3.9-3.18 5.32-2.66 11.65-4.64 16.88-5.15 6.22-.62 12.48.74 18.5 5.4-2.29-4.4-11.74-6.8-13.72-6.97-1.64-.13-3.27-.1-4.9.07-4.94.49-9.36 1.59-13.76 3.62 4.11-4.34 7.72-9.15 11.66-13.44 2.56-2.78 5.35-5.42 8.13-8.12 5.72-3.87 11.67-6.06 17.25-8.94 3.56-1.84 15.07-6.25 18-13.06-5.6 5.7-11.95 8.73-18.63 11.69-4.02 1.77-8.13 3.58-12.25 5.9a51.61 51.61 0 007.16-9.37 84.83 84.83 0 004.03-8.32l.1.04 11.27-17c-2.08.78-6.29 6.78-9 10.84 5.05-14.11 8.2-31.87-.12-39.53z"/>
    </g>
    <g fill="#000" stroke="none">
      <path d="M109.54 171.23c7.76 2.53 9.98 3.5 14.24 4.14 1.15 1.52-.13 1.5-.61 1.98-5.77-2.4-6.47-2.71-13.63-6.12z"/>
      <path d="M111.72 178.3c7.2 3.34 9.22 4.52 13.31 5.62.85 1.63-.4 1.47-.98 1.89-5.25-3-5.9-3.37-12.33-7.5z"/>
      <path d="M110.34 187.96c6.8 3.78 8.67 5.1 12.62 6.45.66 1.68-.57 1.44-1.19 1.82-4.9-3.32-5.49-3.74-11.43-8.27z"/>
      <path d="M107.43 199.3c7.75 2.52 9.98 3.48 14.24 4.13 1.14 1.52-.13 1.5-.61 1.98-5.77-2.4-6.48-2.71-13.63-6.12z"/>
      <path d="M106.46 211.07c7.76 2.52 9.98 3.48 14.24 4.13 1.15 1.52-.13 1.5-.6 1.98-5.78-2.4-6.48-2.71-13.64-6.11z"/>
      <path d="M105.85 222.9c7.75 2.53 9.98 3.48 14.23 4.13 1.15 1.53-.12 1.5-.6 1.98-5.78-2.4-6.48-2.71-13.63-6.11z"/>
      <path d="M137.83 208.8c-7.2 3.32-9.23 4.5-13.33 5.59-.85 1.63.41 1.47.98 1.9 5.26-3 5.9-3.37 12.35-7.5z"/>
      <path d="M138.26 198.76c-7.2 3.32-9.23 4.5-13.33 5.59-.85 1.63.4 1.47.97 1.9 5.27-3 5.91-3.37 12.36-7.5z"/>
      <path d="M136.88 190.64c-7.2 3.32-9.23 4.5-13.33 5.6-.85 1.62.4 1.46.98 1.89 5.26-2.99 5.9-3.37 12.35-7.49z"/>
      <path d="M138.56 180.88c-6.3 4.24-8.01 5.68-11.78 7.3-.45 1.72.75 1.4 1.4 1.73 4.48-3.65 5.02-4.1 10.38-9.03z"/>
      <path d="M140.47 170.23c-6.82 3.75-8.7 5.06-12.67 6.4-.67 1.67.57 1.44 1.18 1.82 4.92-3.3 5.52-3.72 11.5-8.22z"/>
    </g>
    <g >
      <path d="M181.63-718.37s-7.12 23.74-6.19 40.4c.45 7.96 2.07 20.49 2.13 27.7.06 7.26-2.8 16.98-3.56 25.68-.52 5.97.6 12.9.7 20.2.06 4.96-.94 11.88-.94 11.88l11.47-16.08s-3.59-8.23-2.91-16.04c.65-7.5 2.31-16.71 2.24-25.7-.07-8.16-1.74-20.63-2.16-28-.8-14.18 5.94-38.07 5.94-38.07z" transform="matrix(1.1792 0 0 1.03779 -87.517 861.47)"/>
      <path stroke="none" fill="#fff" fill-opacity="0.2" d="M128.94 116.53s-8.28 24.7-7.22 41.26c.51 8.08 2.43 21.04 2.5 28.8.08 8.05-3.08 18.2-3.94 26.88-.96 9.76.93 16.45.93 16.45.8-2.42 3.14-3.14 5.56-4.13 0 0-2.78-3.52-1.91-12.29.8-8.15 2.98-18.12 2.9-26.95-.08-8.17-2-21.1-2.5-28.93-1-15.44 7.07-40.21 7.07-40.21z"/>
      <path stroke-width="1.86" d="M100.08-225.63s3.18-1.92 5.98-4.47c4.83-4.58 11.28-17.75 19.3-14.16 1.22.55 2.2 1.9 2.37 3.23.93 7.42-10.58 12.78-16.06 14.35-4.76 1.36-11.6 1.05-11.6 1.05z" transform="matrix(.78496 -.30842 .35044 .69083 115.932 435.44)"/>
      <path stroke="none" fill="#000" fill-opacity="0.2" d="M126.93 230.35c-1.25.3-2.64 3.4-3.56 6.47-.62 2.07-1.91 5.54-2.49 7.67 3.44-1.44 8.82-7.83 9.2-11.48.17-1.64-.66-3.1-3.15-2.66z"/>
    </g>
    <g stroke="none">
      <path d="M105.85 96.94C98.95 68.51 61.7 28.5 61.7 28.5s.42-2.8 2.05-4.08c1.63-1.28 4.46-1.05 5.78-1.99 1.33-.94 1.09-3.42 2.43-4.29 1.34-.87 4.26-.12 5.62-.92 1.36-.8 1.68-3.67 3.05-4.4 1.37-.72 3.79.69 5.17.03 1.38-.66 1.9-3.74 3.3-4.32 1.39-.6 3.65 1.3 5.05.78s1.76-3.1 3.16-3.55c1.41-.45 3.86 1.23 5.27.85 1.41-.39 1.95-2.83 3.37-3.15 1.4-.31 3.7 1.5 5.1 1.26 1.42-.25 2.66-2.21 4.07-2.4 1.41-.17 3 1.43 4.4 1.32 1.41-.11 2.82-2.3 4.23-2.34 1.4-.05 2.8 2.04 4.2 2.06 1.4.02 2.79-1.86 4.18-1.77 1.38.08 2.76 2.13 4.14 2.28 1.38.15 2.76-1.77 4.12-1.56 1.37.22 2.72 2.56 4.07 2.84 1.36.28 3.4-1.5 4.74-1.16 1.33.34 1.96 2.81 3.28 3.22 1.31.4 3.15-1.08 4.45-.6 1.3.46 2.06 2.89 3.33 3.42 1.28.53 3.6-1.18 4.86-.58 1.25.6 1.44 3.5 2.67 4.15 1.22.66 3.5-.58 4.7.14 1.2.72 1.33 3.4 2.5 4.17 1.18.78 3.74-.15 4.88.69 1.14.84.87 3.46 1.98 4.36 1.11.9 3.6.24 4.94 1.46 1.33 1.21 1.51 4.3 1.51 4.3s-37.38 39.88-44.38 68.29l-38.07-.07z"/>
      <path fill="#fff" fill-opacity="0.1" d="M134.9 4.32c1.39.15 4.13-2.22 5.5-2 1.36.2 2.71 2.55 4.06 2.83 1.36.28 3.4-1.5 4.74-1.16 1.33.34 1.96 2.81 3.28 3.22 1.31.4 3.15-1.08 4.45-.6 1.3.46 2.06 2.89 3.33 3.42 1.28.53 3.6-1.18 4.86-.58 1.25.6 1.44 3.5 2.67 4.15 1.22.66 3.5-.58 4.7.14 1.2.72 7.75 7.87 8.92 8.65-22.19 21.05-35.33 34.49-44.24 74.71l-6.34-.01c-2.81-28.88-6.94-64.78 4.08-92.77z"/>
      <path fill="#000" fill-opacity="0.05" d="M140.4 2.31c1.36.22 2.71 2.56 4.06 2.84 1.36.28 3.4-1.5 4.74-1.16 1.33.34 1.96 2.81 3.28 3.22 1.31.4 3.15-1.08 4.45-.6 1.3.46 2.06 2.89 3.33 3.42 1.28.53 3.6-1.18 4.86-.58 1.25.6 1.44 3.5 2.67 4.15 1.22.66 3.5-.58 4.7.14-15.37 14.33-32.5 51.5-39.37 83.35h-6.34c.2-24 5.61-71.92 13.61-94.78z"/>
      <path fill="#000" fill-opacity="0.1" d="M123.37 101.82l-13.92-4.28c-9.48-27.06-25.95-49.9-41.68-73.69l5.01-6.35 5.45.01 3.2-5 5.44.93 3.65-5 4.09.92 3.64-3.63 4.54 1.37 3.19-3.63 5.45 2.28c9.4 29.7 8.49 65.2 11.94 96.07z"/>
      <path fill="#000" fill-opacity="0.2" d="M112.18 97.1C100.6 71.77 91.66 46.45 70.96 21.12l1.82-3.63h4.09c21.76 26.55 29.06 53.07 40.76 79.6l1.17.46c-4.54-19.68-5.56-44.03-32.84-84.13l3.65-4.99 4.09.46c13.63 14.86 28.97 80 30.1 88.67l-11.62-.48z"/>
      <path fill="#fff" fill-opacity="0.15" d="M167.3 12.67l-1.8-4.1-3.64 1.36c-10.38 16.07-9.75 20.82-12.36 28 3.93-4.1 4.6-14.64 17.8-25.26z"/>
      <path fill="#fff" fill-opacity="0.15" d="M180.54 22.22l-1.8-4.1-3.65 1.36c-18.56 19.33-19.6 28.06-21.2 34.49 3.37-6.32 13.27-21.8 26.65-31.75z"/>
      <path fill="#fff" fill-opacity="0.15" d="M135.18 4.47l-3.25-3.07-2.83 2.66c-5 21.9-2.1 42-1.15 48.59 1-7.64.63-36.6 7.23-48.18z"/>
      <path fill="#000" fill-opacity="0.15" d="M132.17 97.13c-1.28-31.77 3.58-61.99 11.97-91.32l5.46-2.26 2.27 4.1C140.04 37.6 134.6 67.58 134.9 97.58l-2.73-.46z"/>
    </g>
   <path fill="none" d="M105.85 96.94C98.95 68.51 61.7 28.5 61.7 28.5s.42-2.8 2.05-4.08c1.63-1.28 4.46-1.05 5.78-1.99 1.33-.94 1.09-3.42 2.43-4.29 1.34-.87 4.26-.12 5.62-.92 1.36-.8 1.68-3.67 3.05-4.4 1.37-.72 3.79.69 5.17.03 1.38-.66 1.9-3.74 3.3-4.32 1.39-.6 3.65 1.3 5.05.78s1.76-3.1 3.16-3.55c1.41-.45 3.86 1.23 5.27.85 1.41-.39 1.95-2.83 3.37-3.15 1.4-.31 3.7 1.5 5.1 1.26 1.42-.25 2.66-2.21 4.07-2.4 1.41-.17 3 1.43 4.4 1.32 1.41-.11 2.82-2.3 4.23-2.34 1.4-.05 2.8 2.04 4.2 2.06 1.4.02 2.79-1.86 4.18-1.77 1.38.08 2.76 2.13 4.14 2.28 1.38.15 2.76-1.77 4.12-1.56 1.37.22 2.72 2.56 4.07 2.84 1.36.28 3.4-1.5 4.74-1.16 1.33.34 1.96 2.81 3.28 3.22 1.31.4 3.15-1.08 4.45-.6 1.3.46 2.06 2.89 3.33 3.42 1.28.53 3.6-1.18 4.86-.58 1.25.6 1.44 3.5 2.67 4.15 1.22.66 3.5-.58 4.7.14 1.2.72 1.33 3.4 2.5 4.17 1.18.78 3.74-.15 4.88.69 1.14.84.87 3.46 1.98 4.36 1.11.9 3.6.24 4.94 1.46 1.33 1.21 1.51 4.3 1.51 4.3s-37.38 39.88-44.38 68.29l-38.07-.07h0z"/>
    <g fill="#000" fill-opacity=".8" stroke="none">
      <path d="M46.76 68.48c9.35 7.35 29.67 25.83 42.36 32.2.83 3.17-.89 2.66-1.77 3.36-11.86-7.9-28.08-19.85-40.6-35.56z"/>
      <path d="M63.68 56.47c9.85 8.3 26.72 25.95 36.6 34.4.38 3.25-1.25 2.5-2.23 3.06-10.66-11.2-24.32-23.01-34.37-37.46z"/>
      <path d="M40 88.97c10.34 5.88 33.19 21.13 46.68 25.54 1.3 3-.48 2.77-1.25 3.59-12.9-6.06-30.72-15.45-45.43-29.13z"/>
      <path d="M42.5 113.32c11.24 3.91 36.46 14.8 50.53 16.7 1.81 2.73.02 2.81-.59 3.76-13.78-3.64-33-9.66-49.93-20.46z"/>
      <path d="M47.23 137.54c11.89.1 39.27 2.33 53.2-.38 2.6 2 .93 2.65.65 3.74-14.21.98-34.35 1.44-53.85-3.36z"/>
      <path d="M62.83 156.81c11.87-.8 39.34-.66 53.03-4.41 2.74 1.79 1.12 2.57.93 3.68-14.1 2.05-34.15 4.04-53.96.73z"/>
      <path d="M83.7 171.97c11.6-2.64 38.76-6.78 51.7-12.62 2.98 1.34 1.5 2.36 1.48 3.49-13.6 4.23-33.1 9.3-53.18 9.13z"/>
      <path d="M203.31 68.75c-9.37 7.32-29.76 25.73-42.47 32.06-.85 3.16.88 2.66 1.76 3.36 11.89-7.86 28.15-19.75 40.71-35.42z"/>
      <path d="M186.43 56.69c-9.88 8.26-26.81 25.85-36.72 34.26-.38 3.25 1.25 2.51 2.22 3.08 10.7-11.17 24.4-22.93 34.5-37.34z"/>
      <path d="M210 89.27c-10.36 5.84-33.26 21.01-46.77 25.38-1.3 3 .47 2.76 1.24 3.58 12.92-6 30.78-15.34 45.53-28.96z"/>
      <path d="M207.41 113.6c-11.25 3.88-36.5 14.68-50.58 16.54-1.83 2.71-.03 2.8.57 3.75 13.8-3.58 33.04-9.54 50.01-20.29z"/>
      <path d="M202.6 137.8c-11.89.07-39.28 2.2-53.2-.55-2.6 1.99-.94 2.65-.67 3.74 14.22 1.03 34.36 1.55 53.87-3.18z"/>
      <path d="M184.93 157.04c-11.87-.83-39.34-.8-53.02-4.6-2.74 1.79-1.13 2.57-.94 3.68 14.1 2.1 34.13 4.16 53.96.92z"/>
      <path d="M166 172.15c-11.58-2.68-38.73-6.92-51.64-12.8-3 1.33-1.52 2.35-1.5 3.48 13.59 4.28 33.06 9.43 53.15 9.32z"/>
    </g>
    <g stroke="none">
      <path d="M87.08 154.24c21 19.64 55 19.58 75.93-.13 20.93-19.71 20.87-51.61-.14-71.25-21-19.64-55-19.58-75.93.13-20.93 19.71-20.86 51.61.14 71.25z"/>
      <path fill="#fff" fill-opacity="0.05" d="M93.16 81.26c17.65-16.62 46-16.64 63.61-.17 17.62 16.47 17.65 43-.01 59.63-17.66 16.63-45.93 16.7-63.54.23s-17.7-43.07-.06-59.7z"/>
      <path fill="#fff" fill-opacity="0.05" d="M99.2 80.22c14.18-13.36 36.59-13.33 50.63-.2s14.11 34.06-.1 47.45c-14.22 13.4-36.53 13.4-50.57.27S85 93.58 99.2 80.22z"/>
      <path fill="#fff" fill-opacity="0.05" d="M103.84 82.76a26.4 26.4 0 0136.2-.24c10.05 9.4 10.17 24.1-.2 33.89-10.4 9.78-26.06 9.72-36.13.31-10.06-9.4-10.2-24.23.13-33.96z"/>
      <path fill="#000" fill-opacity="0.8" d="m 47.2,31.94 c -1.24,1.64 -2.37,2.71 -3.45,3.93 -0.57,-0.79 -1.13,-1.58 -1.67,-2.39 l -0.58,0.23 v 0 c 0.59,0.89 1.2,1.78 1.81,2.66 -1.17,1.29 -2.28,2.38 -3.34,3.33 -0.63,-1.02 -1.25,-2.08 -1.85,-3.21 l -0.73,0.4 c 0.64,1.19 1.29,2.3 1.94,3.38 -1.13,0.96 -2.23,1.79 -3.32,2.56 -0.36,-0.64 -0.71,-1.29 -1.06,-1.97 l -0.64,0.47 c 0.34,0.68 0.69,1.32 1.03,1.95 -0.78,0.54 -1.56,1.07 -2.37,1.61 l 0.14,1.61 c 0.96,-0.64 1.92,-1.33 2.88,-2.07 0.65,1.15 1.31,2.23 1.96,3.24 -1.01,0.81 -2.04,1.62 -3.09,2.42 -0.57,-0.91 -1.1,-1.86 -1.61,-2.86 l -0.56,0.5 v 0 c 0.51,1.02 1.02,1.96 1.52,2.85 -0.37,0.28 -0.74,0.57 -1.12,0.85 l 0.87,1.48 c 0.39,-0.29 0.76,-0.59 1.14,-0.88 0.6,0.96 1.2,1.87 1.81,2.7 -0.61,0.43 -1.21,0.86 -1.83,1.28 l 0.98,1.21 c 0.61,-0.41 1.21,-0.83 1.8,-1.25 0.76,0.95 1.54,1.84 2.34,2.66 -0.63,0.46 -1.26,0.92 -1.87,1.39 l 1.4,0.9 c 0.52,-0.39 1.07,-0.8 1.6,-1.19 0.94,0.88 1.92,1.73 2.97,2.56 -0.28,0.19 -0.58,0.39 -0.86,0.59 l 1.9,0.5 c 0.1,-0 0.13,-0.1 0.2,-0.13 0.16,0.12 0.3,0.23 0.46,0.35 l 2.54,0.5 c -0.67,-0.5 -1.34,-1.01 -2.02,-1.55 0.97,-0.68 1.93,-1.37 2.89,-2.07 0.89,0.76 1.8,1.51 2.72,2.26 -0.71,0.48 -1.43,0.95 -2.13,1.41 l 2.57,-0.33 c 0.17,-0.11 0.33,-0.22 0.49,-0.33 l 0.18,0.15 1.94,-0.38 c -0.27,-0.21 -0.54,-0.43 -0.81,-0.64 1.1,-0.76 2.14,-1.54 3.15,-2.36 0.5,0.42 1.01,0.86 1.5,1.29 l 1.47,-0.81 c -0.57,-0.5 -1.17,-1 -1.77,-1.5 0.9,-0.8 1.77,-1.66 2.63,-2.6 0.64,0.52 1.28,1.05 1.94,1.56 l 1.07,-1.15 C 63.69,56.53 63.04,56 62.38,55.46 c 0.66,-0.79 1.33,-1.66 2,-2.59 0.47,0.42 0.92,0.84 1.41,1.25 l 0.76,-1.54 c -0.48,-0.41 -0.72,-0.7 -1.19,-1.1 0.55,-0.82 1.25,-2.04 1.81,-2.98 -0,-0.49 -0.17,-0.57 -0.18,-1.07 -0.55,0.92 -1.63,2.69 -2.23,3.53 -0.98,-0.86 -1.95,-1.73 -2.9,-2.61 0.73,-0.97 1.47,-2.03 2.22,-3.15 1.02,0.91 2.03,1.73 3.03,2.5 l 0.11,-1.65 c -0.86,-0.66 -1.57,-1.27 -2.43,-1.94 0.36,-0.57 0.73,-1.14 1.1,-1.75 L 65.6,41.38 c -0.37,0.61 -1.07,1.66 -1.44,2.24 -1.03,-0.83 -2.07,-1.71 -3.14,-2.74 0.71,-1 1.41,-2.04 2.12,-3.16 l -0.48,-0.83 c -0.66,1.05 -1.56,2.43 -2.24,3.39 -1.01,-1.01 -2.04,-2.14 -3.12,-3.49 0.66,-0.83 1.32,-1.65 1.97,-2.5 l -0.55,-0.27 c -0.6,0.77 -1.21,1.51 -1.82,2.26 -1.01,-1.3 -1.93,-2.47 -3.03,-4.17 l -0.72,-0 c 0,0 0.1,0.1 0.1,0.14 -0.96,1.21 -1.93,2.37 -2.9,3.5 -0.91,-1.19 -1.8,-2.41 -2.66,-3.68 0,-0.1 0.1,-0.1 0.1,-0.13 z m -9.81,4.95 v -0 z m 9.9,-4.37 c 0.85,1.26 1.72,2.49 2.59,3.71 -1.07,1.21 -2.14,2.38 -3.23,3.51 -0.86,-1.08 -1.7,-2.18 -2.51,-3.3 1,-1.18 2.05,-2.48 3.15,-3.92 z m 6.31,0.2 c 0.98,1.5 1.94,2.86 2.86,4.1 -0.88,1.06 -1.78,2.11 -2.71,3.13 -1.02,-1.19 -2.01,-2.43 -2.99,-3.7 0.94,-1.15 1.89,-2.33 2.84,-3.53 z m -3.3,4.1 c 0.93,1.29 1.87,2.56 2.83,3.81 -1,1.08 -2.02,2.14 -3.06,3.17 -0.97,-1.09 -1.92,-2.2 -2.85,-3.34 1.04,-1.18 2.06,-2.4 3.08,-3.64 z m -6.59,0.13 c 0.79,1.13 1.6,2.24 2.41,3.33 -1.13,1.15 -2.3,2.26 -3.49,3.35 -0.74,-1 -1.46,-2.05 -2.18,-3.16 1.05,-1.05 2.12,-2.19 3.26,-3.52 z m 13.15,0.4 c 1.04,1.37 2.05,2.56 3.03,3.66 -0.8,1.07 -1.6,2.08 -2.42,3.03 -1.1,-1.15 -2.18,-2.32 -3.23,-3.52 0.88,-1.04 1.75,-2.1 2.62,-3.17 z m -10.15,3.7 c 0.87,1.15 1.77,2.28 2.68,3.4 -1.13,1.1 -2.29,2.17 -3.47,3.21 -0.85,-0.95 -1.7,-1.96 -2.54,-3.03 1.13,-1.17 2.24,-2.36 3.33,-3.58 z m -6.88,0.1 c 0.7,1.11 1.4,2.16 2.11,3.16 -1.07,0.97 -2.16,1.91 -3.29,2.84 -0.68,-0.99 -1.35,-2.06 -2.01,-3.19 1.04,-0.83 2.09,-1.76 3.19,-2.81 z m 13.78,0.15 c 0.99,1.27 2.01,2.51 3.06,3.72 -0.92,1.03 -1.84,1.98 -2.77,2.88 -1.09,-1.09 -2.16,-2.21 -3.2,-3.36 0.99,-1.06 1.96,-2.14 2.91,-3.24 z m 6.85,0.42 c 1.03,1.11 2.03,2.08 3,2.97 -0.74,1.1 -1.5,2.14 -2.26,3.1 -1.05,-1 -2.07,-2.01 -3.08,-3.03 0.78,-0.96 1.57,-1.97 2.34,-3.04 z m -10.44,3.54 c 0.98,1.18 1.99,2.33 3.02,3.46 -1.1,1.03 -2.2,1.98 -3.3,2.88 -1.01,-0.94 -2.02,-1.94 -3.01,-3.01 1.12,-1.08 2.22,-2.19 3.29,-3.33 z m -7.32,0.11 c 0.8,1.09 1.61,2.1 2.42,3.06 -1.1,0.95 -2.22,1.88 -3.37,2.78 -0.74,-0.88 -1.48,-1.81 -2.21,-2.81 1.09,-0.98 2.13,-2 3.16,-3.03 z m 14.6,0.38 c 0.95,1.09 1.93,2.17 2.94,3.21 -0.8,0.96 -1.61,1.85 -2.42,2.68 -1.08,-0.97 -2.13,-1.97 -3.17,-2.98 0.88,-0.92 1.77,-1.87 2.65,-2.91 z m -18.48,3.28 c 0.69,1.01 1.38,1.95 2.07,2.83 -1.03,0.8 -2.08,1.58 -3.15,2.34 -0.68,-0.84 -1.34,-1.72 -1.97,-2.65 1.05,-0.82 2.07,-1.66 3.05,-2.52 z m 7.11,0.34 c 0.94,1.07 1.88,2.07 2.83,3.02 -1.17,0.92 -2.33,1.77 -3.47,2.61 -0.88,-0.85 -1.75,-1.75 -2.62,-2.72 1.11,-0.95 2.2,-1.92 3.26,-2.91 z m 7.86,0.17 c 0.99,1.05 2,2.09 3.05,3.1 -0.97,0.95 -1.94,1.83 -2.91,2.64 -1.09,-0.91 -2.18,-1.83 -3.28,-2.82 1.04,-0.91 2.09,-1.88 3.14,-2.92 z m 7.12,0.1 c 0.92,0.93 1.87,1.84 2.85,2.73 -0.7,0.89 -1.42,1.72 -2.16,2.52 -1.01,-0.83 -2,-1.68 -2.98,-2.54 0.76,-0.84 1.52,-1.74 2.29,-2.71 z M 41.8,52.94 c 0.82,0.99 1.63,1.91 2.46,2.77 -1.04,0.74 -2.07,1.47 -3.08,2.2 -0.83,-0.82 -1.65,-1.67 -2.45,-2.58 1.05,-0.78 2.07,-1.57 3.07,-2.39 z m 7.88,0.32 c 1.05,1.02 2.09,1.96 3.13,2.89 -1.11,0.9 -2.23,1.72 -3.34,2.52 -1.04,-0.87 -2.09,-1.76 -3.14,-2.73 1.11,-0.85 2.22,-1.73 3.35,-2.68 z m 7.97,0.1 c 0.94,0.88 1.89,1.75 2.88,2.59 -0.89,0.89 -1.81,1.72 -2.73,2.5 -0.95,-0.79 -1.92,-1.58 -2.9,-2.4 0.91,-0.83 1.83,-1.72 2.75,-2.69 z m -12.36,3.39 c 0.99,0.98 1.98,1.9 2.99,2.77 -1,0.7 -1.98,1.38 -2.97,2.06 -1,-0.81 -2.01,-1.67 -3.01,-2.59 1,-0.74 1.97,-1.47 2.99,-2.24 z m 8.5,0.28 c 0.96,0.84 1.88,1.63 2.81,2.43 -1.06,0.86 -2.13,1.64 -3.19,2.39 -0.93,-0.74 -1.86,-1.49 -2.81,-2.25 1.07,-0.81 2.13,-1.66 3.19,-2.57 z" transform="matrix(3.125,0,0,3.125,-31.25,-31.25)" />
    </g>
   <path fill="none" stroke-width=".5" d="M-281.39 1320.36a16.1 16.1 0 01-16.17 16.02 16.1 16.1 0 01-16.18-16.02 16.1 16.1 0 0116.18-16.02 16.1 16.1 0 0116.17 16.02z" transform="matrix(-2.34303 2.20672 2.37465 2.22024 -3707.612 -2156.322)"/>
  </g>
</svg>
