<svg xmlns="http://www.w3.org/2000/svg" xmlns:xlink="http://www.w3.org/1999/xlink" fill="#d7374a" stroke="#000" viewBox="50 50 200 200">
  <metadata author="Celbusro" source="https://commons.wikimedia.org/wiki/File:Coat_of_arms_elements_-_wasps_2.svg" license="https://creativecommons.org/licenses/by-sa/4.0"/>
  <g id="wasp" stroke-width=".81" stroke-linejoin="round">
    <path d="M100.03 70.59a6.3 6.3 0 0 0-4.5 1.92c-.37.34-.75.67-.82 1.17-.14 1.03 2.62 2.22 1.52 3.2l-3.66 2.18c-1.36 1.22.37 2.63.37 2.63l7.09-2.3 7.09 2.3s1.73-1.41.37-2.63l-3.66-2.18c-1.1-.98 1.66-2.17 1.52-3.2-.07-.5-.45-.83-.81-1.17a6.3 6.3 0 0 0-4.51-1.92z"/>
    <path stroke-width=".64" d="M100.03 78.74c-3.82-.01-8.93 2.67-9.07 7.6-.08 2.96.12 5.2.75 6.86h-.58a7.21 7.21 0 0 0 1.96 2.19 9.6 9.6 0 0 0 2.79 1.56c.52.2.97.5 1.39.76 1.57.97.73 1.1 1 1.84h3.51c.28-.73-.56-.87 1.01-1.84.36-.22.74-.51 1.18-.65a7.5 7.5 0 0 0 3.49-2.06c.52-.56 1.1-1.08 1.47-1.8h-.5c.57-1.64.75-3.87.67-6.87-.13-4.92-5.25-7.57-9.07-7.59z"/>
    <path class="tertiary" stroke-width=".57" d="M98.28 99.55c-.28-.73.56-.87-1.01-1.84-.36-.22-.74-.51-1.18-.65A7.5 7.5 0 0 1 92.6 95l.75-5.4c1.06-2.12-2.24-3.64-2.24-3.64l.1-.4 2.32.53a14.67 14.67 0 0 1 4.94-7.17l.14-.06a9.31 9.31 0 0 1 2.84 0l.14.06a14.67 14.67 0 0 1 4.94 7.17l2.31-.53.1.4s-3.3 1.52-2.23 3.65l.75 5.4a7.5 7.5 0 0 1-3.49 2.05c-.44.14-.82.43-1.18.65-1.57.97-.72 1.1-1 1.84h-1.76Zm-3.22-10.46c-.39.08-.84.66-.83 1.07.01.97 1.11 2.34 2.04 2.43 1.8.16 3.84-2.78 2.46-3.5-.83-.43-2.8-.17-3.67 0zm-2.11 3.37c.51 2.24 4.06 3.43 5.46 3.16.55-.11 1.07-1.07.3-1.2-1.94-.29-4.4-.92-5.76-1.96zm8.38-3.37c-1.38.72.65 3.66 2.46 3.5.93-.1 2.03-1.46 2.04-2.43.01-.41-.44-1-.83-1.07-.88-.17-2.84-.43-3.67 0zm.02 5.34c-.77.12-.25 1.08.3 1.19 1.4.27 4.95-.92 5.46-3.16-1.36 1.04-3.82 1.67-5.76 1.97z"/>
    <path d="M96.26 99.01c-6.98.3-7.68 4.36-7.7 10.22-.23 20.01 8.16 27.43 11.47 30.67 3.3-3.24 11.59-10.71 11.46-30.67-.01-5.86-.03-9.92-7.05-10.22-1.24-.05-2.82.5-4.41.54-1.47-.03-2.29-.6-3.77-.54z"/>
    <path class="tertiary" stroke-width=".57" d="M109.19 103.63c-3.84-.87-4.97-.64-6.95-.75 0 .5.46.73 1.02 1.07 1.16.7.3 1.9-.1 2.03-1.59.49-2.4.81-3.13 1.39-.72-.58-1.54-.9-3.13-1.4-.4-.12-1.26-1.31-.1-2.02.56-.34 1.02-.56 1.02-1.07-1.98.11-3.11-.12-6.95.75l-1.84.37c.73-2.94 2.6-4.79 7.23-4.99 1.48-.06 2.3.5 3.77.54 1.6-.05 3.17-.6 4.41-.54 4.67.2 6.24 2.07 6.78 5.02z"/>
    <g class="tertiary" stroke-width=".6">
      <path d="m88.89 107.67-.4 1.26c1.73 1.25 4.51 1.97 6.28 2.73.5.21.94 0 1.38 1.37 1.14 3.67 2.2 4.64 3.88 5.46 1.68-.82 2.74-1.8 3.88-5.46.44-1.38.88-1.16 1.38-1.37 1.77-.76 4.55-1.48 6.27-2.73l-.33-1.15c-6.96 2.87-15.37 2.52-22.34-.11z"/>
      <path d="m89.22 116.8.13.93a12.39 12.39 0 0 0 5.04 2.43c.85.22 2.24.41 2.54 1.13.93 2.25 1.74 3.43 3.1 4.02 1.36-.6 2.17-1.77 3.1-4.02.3-.72 1.69-.9 2.54-1.13 2.25-.6 3.73-1.34 5.04-2.43l.13-.94c-7.3 3.97-14.3 3.65-21.62 0z"/>
      <path d="m91.05 125.08.35.96c1.56 1.03 2.52 1.7 5.12 2.18 1.58.46 2.3 2.7 3.56 3.58 1.22-1 1.93-2.97 3.46-3.58 2.6-.48 3.56-1.15 5.12-2.18l.35-.96c-6.24 3.5-11.7 3.17-17.96 0z"/>
      <path d="M93.73 132.03c2.07 1.12 2.94 1.9 4.96 2.34.67.21.92 1.16 1.34 1.8.42-.64.67-1.59 1.34-1.8 2.02-.45 2.9-1.22 4.96-2.34l.06.01c-2.3 4.02-4.85 6.38-6.36 7.86-1.51-1.48-4.08-3.83-6.4-7.84Z"/>
    </g>
    <g id="wasp-a">
      <g stroke-width=".64">
        <path d="M102.9 71.36c7.33-5.18 15.07-12.3 23.22-11.1.87.12.66 1-.07 1.1-9.67 1.28-16.46 6.69-22.4 10.49z"/>
        <path d="m109.17 106.68 4.93-1.71.72.18c2.1 3.66 3.14 7.3 6.47 11v.81c1.58 2.21 3.86 4.23 6.47 6.15l.1.36a17.56 17.56 0 0 0 4.12 3.1l.75 1.09 3.04 1.5.97.92-.55 2.33c-.96-2.18-2.75-2.85-4.34-3.9l-1.16-1.1a6.07 6.07 0 0 1-2.76-2.22l-1.15-1.04-.6-.32a36.73 36.73 0 0 1-5.63-5.68c-1.1-.32-2.08-.78-2.27-2.36-1.26-2.27-2.6-5.4-3.95-8.49l-.63.18-2.89 3.15z"/>
        <path d="m108.4 90.38 4.84 2.2.1.42 7.3-1.2 1.16-.22 5.89-2.05 1.46-.16v.16l3.62.1v.27l1.66-.43c.7-.18.87.3.7.74-.43 1.14-1.63.77-2.51 1l-.2.27-3.27-.8-.2.27-6.65 1.37-.05.37-1.26 1.2c-.55.54-1.01 0-1.2-.26l-5.64.69-.5-.21-.4.16-6.45-.2z"/>
        <path d="M108.32 86.5c1.37.14 4.93-.04 5.94.89a9.4 9.4 0 0 0 .52-5.29l1.11-.09-.26-.71a10.46 10.46 0 0 1 2.06-4.03l.34.09c1.17-.74 2.61-1.87 3.34-2.06.82-.23 1.33.58.6 1.25-1.06.97-2.26 1.24-3.42 1.8l.17.35c-.91 1.01-1.73 2.03-1.97 3.05l.17.62c-.33 2.23-.22 5-1.8 5.65l-.09.88c-1.59-.15-6.6.51-7.57-.17z"/>
      </g>
      <path class="tertiary" d="M107.9 79.65c1.52-.75 1.3-6.32-2.66-6.32l-2.42 3.55z"/>
      <g class="tertiary" stroke-width=".48">
        <ellipse ry="1.18" rx="1.26" cy="114.08" cx="107.3"/>
        <ellipse ry=".93" rx="1.08" cy="121.56" cx="107.16"/>
        <ellipse ry=".75" rx=".9" cy="129.51" cx="105.53"/>
      </g>
      <path class="secondary" stroke-width=".81" d="M106.54 89.7c.2 7.2 2.87 9.04 3.33 14.35 1.25 4.22 2.3 8.46 4.27 12.66.4 3.87.1 7.72 2.43 11.98.8 3.7 1.09 8.1 3.1 9.05.78.38 3.22.62 4.23-1.71 3.82-8.83-.74-17.2-5.27-25.45l.27-.6-4.7-8.33-.03-.9c-1.84-3.9-4.04-9.99-5.52-10.44Z"/>
      <g fill="none" stroke-width=".28">
        <path d="M122.49 118.26c-5.22-3-7.04-7.62-9.65-11.86.52-3.35-4.14-12.74-4.18-16.1"/>
        <path d="M124.59 123.45c-2.9 4.2-1.44 8.24-.52 12.3"/>
        <path d="M114.14 116.7c1.38 3.59 2.18 7.53 4.91 10.27l.79-.75c-.22-3.48-.86-7.15-.66-10.43"/>
        <path d="m122.92 127.54-3.08-1.32"/>
        <path d="M117.92 128.44c-.3 2.7.12 5.36.64 8.03"/>
        <path d="m119.05 126.97-1.13 1.47"/>
        <path d="M110.76 107.26c2.5 3.36 4.46 7.64 8.42 8.53"/>
      </g>
    </g>
    <use xlink:href="#wasp-a" transform="translate(200 0) scale(-1 1)"/>
  </g>
</svg>
