<svg xmlns="http://www.w3.org/2000/svg" fill="#d7374a" stroke="#000" viewBox="50 50 200 200"><metadata license="https://creativecommons.org/licenses/by-nc-sa/3.0" source="http://wappenwiki.org"/><g id="wing" stroke-width=".45"><path d="M104.37 87.97c6.86-3.13 17.7-10.95 22.92-15.88.75-.68 1.08-.82.54.03-2.45 3.84-14.84 14.03-25.13 18.3-4.12 1.64-.51-1.48 1.67-2.45zm-1.57 7.88c8.17.42 18.54-2.04 24.41-5.26.88-.55 1.15-.27.34.33-2.72 2.03-12.05 6.43-23.74 6.27-1.16.14-4.02-.3-1.01-1.34zm-1.43 7.65c7.8 2.49 18.46 3.12 24.96 1.5 1-.32 1.18.02.25.4-3.15 1.27-13.3 2.78-24.57-.34-1.15-.16-3.8-1.32-.64-1.56zm-3.77 7.18c6.58 4.86 18.5 8.84 25.18 9.4 1.04.02 1.1.4.1.46-3.38.19-15.52-1.6-25.18-8.18-1.04-.53-3.18-2.48-.1-1.68zm-7.29 5.22c5.01 6.47 17.25 13.32 23.52 15.67 1 .3.96.7-.02.47-3.32-.74-16.35-5.53-23.86-14.5-.86-.78-2.38-3.24.36-1.64z"/><path d="M99.44 83.3s8.47-7.24 13.93-13.15c5.57-5.89 9.3-11.44 10.5-12.15.68-.39 1.22-.18 1.78.79.97.4.91 3.33.23 4.68.38 2.3-2.62 7.22-5.58 8.95-.1 2.04-5.4 6.84-8.46 8.51-.9 3.92-9.09 8.62-9.09 8.62m-2.25 7.67c2.04.04 6.82.63 12.82.15 7.5-.38 12.31-2.64 14.64-2.71.82 0 1.3.76.75 1.8.42.95-1.91 4.57-5 4.94-1.01 1.5-7.18 2.66-10.22 1.95-1.79 1.66-9.43 1.3-12.1-.1m-.33 1.32c12.99 5.62 24.56 5.4 26 6.45.73.42.83 1.05.22 2.12-.44 1.52-2.79 2.3-4.17 2.1-.84 1.3-7.34 1.67-10.01-.09-3.36.6-9.65-1.82-10.2-2.99-3.12.31-8.78-2.97-8.78-2.97m1.08 2.22c13.36 9.29 24.92 11.55 26.1 12.87.64.57.6 1.2-.22 2.13-.74 1.4-3.2 1.67-4.51 1.18-1.1 1.1-7.16.1-9.41-2.18-3.41-.12-8.5-3.24-8.78-4.5-3.12-.35-7.97-4.74-7.97-4.74m-2.06-.65a56.84 56.84 0 0010.82 11.99c5 3.98 9.73 6.36 11.16 7.1 1.35.66.01 2.49-.8 2.28-.4.73-2.56 1.78-4.29.53-3.42.5-7.12-1.77-8.2-3.28-3.31-.14-8.17-5.53-8.2-6.74-1.82-.6-6.4-5.46-7.06-9.35m21.4-28.72c1.94-.58 6.2-.96 12.3-3.75 7.35-3.6 10.94-6.26 12.33-6.39.77-.06 1.17.36 1.27 1.47.7.78-.05 3.54-1.24 4.47-.63 2.24-6.4 5.54-9.82 5.85-.95 1.81-10.03 4.97-13.3 4.61"/><path d="M100.1 79.24c.6.65.39 1.2.14 1.68-.18.31-.49 1.32-2.12 2.34-1.63 1.01-4.18 1.87-6.12 3.9-3.78 3.96-2.41 7.62-1.87 11.29.4 2.72-.43 5.23-2.68 7.59-2.53 2.65-5.24 2-7.77 1.16-2.63-.93-4.63-.98-6.26.35-1.88 1.55-2.11 4.95-.25 7.2 2.26 2.15 3 1.44 5.32 3.65.53.51 1.21 1.96 2.38 2.63 1.5-1.18.99-3.45.99-3.45.1.07.54 1.81 2.02 2.8 1.88-.78 1.95-2.84 2-3.03.05.1.63 1.96 2.42 2.33 1.9-1.3 1-3.69 1-3.69.12.07 1.35 1.77 3.61 1.4.74-1.31-.34-3.2-.4-3.35.35.14 2.05 1.58 3.33.93.12-1.2.04-2.54-.63-3.43.68.16 2.25 1.07 3.21.84.4-2.82-.57-3.48-.67-3.6.3.09 1.79 1.32 3.54 1.02.83-1.86-.85-3.25-.85-3.25 1.4 0 2.07-.49 3.1-.73l-2.32-3.36s2.5 1.03 3.9-.79c-.4-1.95-2.47-2.5-2.63-2.57.05-.02 2.6.01 3.47-1.32-.25-1.49-2.21-2.04-2.35-2.13.9-.06 2.3-.57 2.9-1.55-.82-1.92-2.5-2.04-2.5-2.04.23-.13 2.16.07 3.05-1.98-.94-2.1-2.61-1.68-2.61-1.68.04-.04 2.15-.57 2.2-2.87-1.79-1.55-2.76-.59-3.18-.55.3-.21 2.18-1.43 1.6-3.12-.9-.62-2.03-.64-3.34-.06.52-1.05-.33-2.48-1.64-2.56z"/><g fill="#000" stroke="none"><path d="M104.93 83.11c6.26-6.06 13-11.78 17.94-19.24-4.8 8.01-12.16 14.33-17.97 19.83zm20.87-19.39l-.4-.4c.13-.1.4-.02.58-.01zm.06-4.82c-.11.12-.33.25-.43.31l.02-.51zm-21.44 41.3c5.9.46 12.56.5 20.06-1.6-5.38 2.25-12.82 2.4-19.83 2.13zm8.88 3.03c.16-.17.3-.31.39-.54.14.32.04.58-.06.84zm10.2-1.78c0-.22.05-.43.1-.65.1.25.25.4.34.53zm4.39-4.4c.27-.27.5-.44.64-.79l.4.22c-.3.3-.69.5-1.04.57zm-7.98-24.99l.55.2-.3.34c-.11-.15-.2-.39-.25-.54zm-8.32 8.92c.06-.24-.01-.47-.08-.66.24.17.44.36.53.66zm-10.05 27.44c6.73 2.18 13.24 4.46 20.52 4.67-6.59.4-14.5-2.25-20.54-4.27zm21.38 6.7c.13-.2.22-.46.23-.67.18.17.24.64.18.9l-.41-.22zm4.41-1.77c-.25.02-.52.03-.74.02.32-.18.45-.23.6-.45zm-14.43 1.63c.3-.1.38-.27.53-.42-.02.29-.09.56-.22.76l-.3-.34zm-10.18-3.02c.25-.1.39-.3.53-.5.04.45-.1.67-.26.86zM95.19 115c5.9 3.71 13.14 8.36 20.8 10.27-7.08-1.13-14.57-5.75-21.21-10.13zm21.21 12.45c.17-.2.3-.37.37-.62.17.29.07.61-.01.9-.1-.04-.25-.2-.36-.28zm4.7-.83c-.25-.04-.5-.07-.74-.13.3-.1.5-.23.66-.32l.08.45zm-14.09-1.42c.3-.06.45-.27.58-.45.1.27-.17.68-.36.85zm-8.76-4.53c.24-.06.45-.23.61-.39-.04.31-.19.6-.42.8a2.5 2.5 0 01-.19-.41zM85.73 118c5.38 6.13 12.94 14.32 20.18 17.72-7.59-2.96-15.62-11.77-20.33-17.24zm23.72 19.1l-.61-.67c.43.13.54.16.77.25zm-12.55-3.18c.25-.05.47-.21.65-.36-.02.26-.26.62-.48.77zm-8.17-6.82c.25.06.52.02.72-.06a1.3 1.3 0 01-.75.51zm16.16-35.04c7.16-1.95 14.25-3.61 20.29-8.02-5.6 4.56-13.48 6.57-20.11 8.42zm23.09-7.1l-.28.35-.28-.49c.27.09.4.09.56.14zm.65-3.53l.26-.88.39.22-.65.66zM92.64 92.27c2-.58 3.2.2 3.65.78-.4 1.72-1.88 2.11-3.06 2.25 1.09-.4 2.38-1.11 2.59-2.14-.82-.94-2.06-.95-3.17-.88l-.01-.01z"/><path d="M93.31 93.7c.32-.46.93-.6 1.46-.58.12.04.51.02.45.2a4.33 4.33 0 01-1.91.38zm.93 4.65c.41-.1.83-.15 1.22-.31.3-.11.6-.25.88-.42.34-.23.63-.54.78-.93.02-.09.02.22-.02.05-.1-.29-.31-.52-.54-.71a3.7 3.7 0 00-1.57-.6c-.28-.06-.56-.08-.84-.11-.04-.11.1-.07.18-.1.24-.03.48-.03.72-.03.75 0 1.52.21 2.06.75.21.2.34.45.44.72.07.07 0 .15-.03.23-.1.26-.28.48-.46.69a5.4 5.4 0 01-.56.39c-.25.14-.53.24-.8.3-.48.13-.97.13-1.46.1v-.01z"/><path d="M94.54 96.8c.64-.13 1.3-.21 1.95-.08.05.2-.37.22-.5.3-.47.13-1.05.13-1.45-.2v-.01zm3.38 2.91a6.5 6.5 0 001.39-.57c.27-.14.5-.36.71-.58.17-.2.3-.43.35-.68.02.1.03.2-.04.05a1.44 1.44 0 00-.57-.57c-.68-.38-1.47-.38-2.22-.4.07-.2.44-.15.64-.2.66-.1 1.39-.04 1.96.33.13.1.26.18.36.31.13.16.24.33.33.51a1.99 1.99 0 01-.85 1.22c-.2.15-.42.26-.64.35-.46.16-.94.26-1.42.25v-.01z"/><path d="M98.05 98.27a3.68 3.68 0 011.77-.27c.06.1-.08.14-.14.2a1.6 1.6 0 01-1.52.16c-.02-.02-.16-.06-.11-.09zm-1.63-6.57a4.1 4.1 0 011.9.17 2.19 2.19 0 011.47 1.27c.07.1-.04.2-.06.3-.1.29-.3.55-.53.76-.35.28-.77.48-1.21.56-.47.12-.95.1-1.42.07-.24 0-.07-.13.06-.1.53-.09 1.05-.2 1.54-.42.45-.17.88-.47 1.1-.91l.1-.25c0 .14 0 .17-.06.02a1.96 1.96 0 00-.83-.83 4.8 4.8 0 00-1.77-.58l-.29-.04v-.02z"/><path d="M96.78 93.24c.4-.37 1.03-.38 1.54-.24.08.05.53.12.38.27-.6.17-1.25.07-1.87 0 0-.01-.06 0-.05-.03zm-1.82-5.27a3.8 3.8 0 011.38-.53c.31-.09.64-.07.96-.07.3.02.58.11.84.25.2.09.37.25.54.4 0 .27.03.54-.05.8-.18.59-.6 1.08-1.11 1.41-.28.2-.6.34-.93.47l-.38.13c-.06-.1.1-.11.15-.17.65-.4 1.29-.89 1.69-1.56.15-.3.22-.62.19-.95.05.1.08.17-.02.05a2.17 2.17 0 00-1.32-.47 5.5 5.5 0 00-1.59.17l-.35.09v-.01z"/><path d="M95.9 89.24c.13-.36.51-.58.85-.72.27-.06.74-.24.95-.03-.44.36-1 .53-1.53.7l-.27.07v-.01zm2.04-2.78c.23-.14.48-.25.73-.36.44-.16.92-.24 1.4-.22a2.15 2.15 0 011.39.62c0 .17.04.34 0 .51-.04.26-.11.52-.26.74-.23.37-.55.69-.92.91-.24.16-.5.27-.77.38l-.38.12c-.08-.08.07-.1.11-.15a4.5 4.5 0 001.6-1.49c.14-.28.21-.59.18-.9.03.07.1.2 0 .08a1.76 1.76 0 00-1.04-.44c-.25-.02-.5-.05-.75-.01-.43.02-.86.11-1.28.23l-.01-.02z"/><path d="M98.82 87.66c.23-.51.84-.76 1.37-.8.21-.07.47.08.2.2a4.2 4.2 0 01-1.56.62v-.02zm.84 4.84a4 4 0 011.86.65c.35.22.64.53.84.9.12.23.22.47.24.74-.2.3-.44.58-.76.76-.69.38-1.52.36-2.26.18-.22-.04-.43-.12-.64-.19 0-.14.2-.02.3-.05a4.3 4.3 0 002.28-.26c.27-.14.5-.36.65-.61-.02.21-.05.1-.07-.05a2.58 2.58 0 00-1.16-1.4 7.1 7.1 0 00-1.28-.65v-.02z"/><path d="M99.64 94.08c.49-.26 1.1-.13 1.56.14.21.08.54.43.13.35a4.41 4.41 0 01-1.69-.48zm-5.82 7.07c.62.16 1.25.27 1.89.24a2.14 2.14 0 001.43-.56c0 .12-.07.11-.04-.08-.02-.77-.62-1.4-1.21-1.83-.28-.2-.58-.38-.88-.56.04-.15.23.03.34.03.77.28 1.55.72 1.95 1.46.2.37.29.8.24 1.22-.43.47-1.07.7-1.7.68-.71 0-1.43-.22-2.02-.6z"/><path d="M94.75 99.87c.64.13 1.27.35 1.8.74-.1.2-.5.05-.7.06-.43-.11-.94-.35-1.11-.8zm4.06-10.34c.84-.5 1.93-.79 2.88-.4.24.1.5.26.65.47a2 2 0 01-.41 1.44c-.42.54-1.05.88-1.69 1.11-.16.1-.4.06-.13-.07.71-.46 1.5-1.01 1.75-1.86.05-.18.04-.35.04-.53.16.3-.2-.14-.34-.15a2.8 2.8 0 00-1.57-.22c-.4.03-.8.15-1.18.21z"/><path d="M99.7 90.73c.27-.6 1.05-.89 1.68-.77-.1.3-.64.44-.92.58-.25.07-.53.17-.76.19zm-2.85 13.12c.98.24 2.1.46 3.03-.08.11-.03.4-.4.25-.12.07-.94-.68-1.69-1.4-2.16a9.9 9.9 0 00-.69-.43c.08-.15.33.07.48.08.84.35 1.75.91 2 1.86.06.25.07.52.06.78-.42.42-1 .67-1.6.67a3.7 3.7 0 01-2.13-.6z"/><path d="M97.78 102.57a4.9 4.9 0 011.8.74c.01.12-.14.08-.21.1a1.8 1.8 0 01-1.54-.7c0-.04-.08-.1-.05-.14zm-3.75 3.7c.28.14.56.28.85.4.42.13.84.27 1.27.29.42.03.86-.05 1.21-.29-.07.09-.13.16-.07 0 .07-.2.05-.43.04-.64a3.48 3.48 0 00-1.03-1.72c-.16-.18-.34-.34-.51-.5.12-.14.32.14.46.19.3.2.6.42.84.7.3.35.55.74.65 1.19.06.27.05.55.01.82-.03.1-.03.22-.1.3a2 2 0 01-1 .35 3.2 3.2 0 01-1.27-.2 4.2 4.2 0 01-1.21-.75c-.04-.05-.15-.09-.14-.14z"/><path d="M95.2 105.22c.6.26 1.18.62 1.61 1.12-.14.2-.5-.07-.7-.1-.37-.2-.77-.49-.89-.91l-.02-.11zm-4.97 1.5c.26.13.52.24.8.34.54.2 1.13.33 1.72.28.3-.02.57-.14.81-.3-.07.12-.1.13-.05-.01.1-.36 0-.75-.14-1.08-.3-.7-.88-1.23-1.44-1.74.04-.12.15.02.22.04.45.24.86.56 1.2.94.24.3.46.63.57 1.01.08.3.09.62.03.92-.03.08-.02.2-.09.26a2 2 0 01-.94.36c-.4.04-.79 0-1.16-.12a4.2 4.2 0 01-1.54-.89h.01z"/><path d="M91.38 105.64c.6.27 1.19.58 1.63 1.08 0 .1-.13.05-.2.05a1.85 1.85 0 01-1.36-.88c-.03-.07-.09-.18-.07-.25zm.46-1.87c.52.23 1.06.45 1.62.51.4.07.82.06 1.2-.05.2-.06.36-.15.52-.26-.06.1-.1.16-.06 0 .04-.15.01-.32.02-.49a3.26 3.26 0 00-1.22-1.87l-.47-.41c.04-.12.13 0 .2.02.52.26 1 .6 1.37 1.05.26.3.46.66.53 1.05a2 2 0 01.01.73c-.02.07-.02.17-.05.24a2.29 2.29 0 01-1.55.42 3.69 3.69 0 01-1.6-.54c-.18-.12-.4-.26-.52-.4z"/><path d="M92.95 102.65c.6.26 1.21.53 1.67 1.02-.11.16-.43 0-.59-.02a1.8 1.8 0 01-1.07-.9l-.02-.09zm-1 6.15c.37.18.74.37 1.13.49.62.2 1.31.3 1.93.06.05 0 .32-.22.22-.1-.08.15 0-.08.01-.15.08-.46-.06-.93-.3-1.33-.29-.52-.72-.94-1.15-1.36-.23-.23.24-.01.32.08.42.27.8.6 1.1 1a2.17 2.17 0 01.38 2.05c-.33.21-.71.35-1.1.35a3.6 3.6 0 01-2.28-.84c-.08-.09-.2-.15-.27-.25z"/><path d="M93.13 107.75c.58.28 1.16.6 1.59 1.1 0 .2-.36 0-.46 0-.46-.16-.93-.48-1.1-.95-.01-.05-.07-.14-.03-.15zm-2.63 3.15c.22.2.47.37.72.53.47.3 1 .54 1.58.53.16 0 .32-.03.47-.1-.06.05-.15.15-.07.02.15-.3.17-.64.13-.97-.09-.5-.33-.95-.58-1.37-.08-.15-.18-.28-.27-.42.06-.09.11.04.17.07.49.4.86.95 1.06 1.55.07.26.1.52.06.78-.02.26-.14.5-.26.74-.21.07-.43.13-.66.12-.25.02-.5-.03-.73-.12-.28-.1-.55-.24-.78-.43a3.8 3.8 0 01-.86-.91s.03 0 .02-.02z"/><path d="M91.7 110.23c.47.3.89.71 1.15 1.2.08.25-.32.01-.4-.03-.37-.22-.72-.6-.75-1.06v-.11zm-4.15-1.15c.46.48.93.95 1.53 1.25.38.2.82.34 1.26.3.06 0 .26-.07.13 0-.12.1.01-.05.04-.1.17-.24.22-.54.25-.82a3.8 3.8 0 00-.42-1.72c-.09-.22-.2-.42-.29-.63.08-.1.12.05.17.1.21.24.38.52.55.8.27.52.45 1.1.4 1.7-.03.39-.22.74-.45 1.05a2.3 2.3 0 01-.82.05 2.68 2.68 0 01-1.16-.52c-.52-.37-.91-.9-1.21-1.45h.01z"/><path d="M89.01 108.5c.48.44.89.98 1.13 1.59-.16.13-.39-.2-.53-.25a1.64 1.64 0 01-.62-1.34H89zm-4.33 1.98c.27.32.52.65.85.92.42.4.93.72 1.5.83a2 2 0 00.51-.01c-.1.05-.17.1-.06-.02.32-.4.41-.93.35-1.43-.05-.63-.29-1.22-.52-1.8.13-.1.2.2.28.28.27.43.5.89.6 1.38.15.58.07 1.22-.26 1.72-.07.1-.17.2-.24.31-.2 0-.4.06-.6.01-.42-.04-.8-.23-1.14-.48a3.84 3.84 0 01-1.29-1.7s.03.01.02-.01z"/><path d="M86.18 110.01c.43.5.83 1.05 1 1.69-.39.04-.73-.56-.9-.88-.12-.24-.19-.56-.1-.81zm-7.33 3.54c.16.61.37 1.22.74 1.74.21.32.53.57.9.69-.24.02-.03-.04.07-.1.56-.37.78-1.07.87-1.7.05-.28.06-.57.08-.86.14-.04.08.21.13.3.14.82.05 1.74-.52 2.37-.2.2-.42.34-.67.45a2.07 2.07 0 01-.9-.55 3.34 3.34 0 01-.72-2.34z"/><path d="M80.23 113.73c.18.55.3 1.15.17 1.72-.3-.06-.36-.58-.41-.84-.02-.3.02-.64.22-.88h.02zm4.89-.33c.15.6.36 1.18.7 1.7.22.34.56.62.95.73-.18.02-.13-.02 0-.07.36-.2.6-.55.73-.93.2-.52.24-1.1.28-1.66.18.02.11.35.16.5.08.7 0 1.48-.44 2.05-.2.24-.44.42-.72.54-.08.07-.18-.04-.28-.05a1.78 1.78 0 01-.58-.38 2.64 2.64 0 01-.66-1.14 3.72 3.72 0 01-.16-1.29h.02z"/><path d="M86.5 113.59c.19.54.29 1.14.18 1.71-.18.04-.26-.3-.33-.41-.14-.41-.17-.96.14-1.3zm-9.86-2.27c-.4.7-.82 1.46-.75 2.29 0 .2.07.4.16.59-.2-.17.06-.02.18-.01.66.12 1.3-.25 1.82-.62l.62-.51c.08.17-.2.37-.31.54-.51.61-1.28 1.14-2.12 1.04a1.64 1.64 0 01-.56-.17c-.34-.62-.27-1.4.06-2 .2-.45.53-.83.89-1.16z"/><path d="M77.47 112.44c-.27.5-.6 1.01-1.1 1.32-.13-.04-.02-.2-.01-.3.15-.5.56-.98 1.1-1.03zm4.18-.86c.12.7.27 1.4.61 2.04.25.46.62.88 1.12 1.08.01.03-.21 0 0-.04.4-.16.7-.48.9-.83.28-.48.42-1.01.5-1.55.07-.25.09-.5.12-.75.16.09.08.44.11.64.02.66-.08 1.35-.41 1.93-.23.44-.61.8-1.08.98-.13.08-.27.1-.4 0a2.53 2.53 0 01-1.24-1.43 4.55 4.55 0 01-.27-1.35c0-.24-.03-.48.04-.72z"/><path d="M83.3 111.93c.11.67.19 1.36.07 2.03-.07.2-.23-.18-.24-.25-.21-.55-.24-1.24.12-1.74.01-.02.02-.05.05-.04zm-4.87-2.33a7.23 7.23 0 00.03 1.9c.09.47.26.94.58 1.3l.31.27c-.1-.02-.18-.05-.03-.05.48-.06.9-.35 1.22-.71.36-.4.6-.87.81-1.36.09-.19.15-.39.23-.58.12 0 .04.13.04.2a4.4 4.4 0 01-.82 2.06 2.23 2.23 0 01-1.39.83c-.1 0-.24.06-.33-.04-.19-.14-.37-.3-.5-.5a2.83 2.83 0 01-.46-1.5 4.51 4.51 0 01.3-1.82z"/><path d="M79.94 110.35c-.04.7-.17 1.4-.47 2.04-.32-.31-.13-1.05 0-1.46.1-.2.26-.49.47-.58zm7.83 2.15a4.41 4.41 0 001.9 1.29c.24.04.5.07.73 0-.22.17 0-.07.04-.18.3-.72.05-1.52-.27-2.18-.06-.16-.14-.3-.21-.46.25.02.4.44.57.63.41.66.65 1.55.27 2.27-.06.12-.14.26-.24.35a2 2 0 01-1.53-.27 3.56 3.56 0 01-1.27-1.45z"/><path d="M89.06 111.98c.41.39.85.92.99 1.4-.02 0-.03.04-.05.04-.77-.3-.97-1-.96-1.44h.02z"/></g></g></svg>