<svg viewBox="0 0 100 100">
  <g fill="#EBE8DF" stroke="#4D3F36" stroke-linecap="round" stroke-linejoin="round" stroke-width="1.4" transform="translate(50 70) scale(1 1)">
    <path d="M 4.439,0 L -18.531,0 L -18.994,-61.849 L 4.902,-61.849 L 4.439,0"/>
    <path d="M 19.103,0 L 1.283,0 L 0.924,-45.875 L 19.462,-45.875 L 19.103,0"/>
    <path fill="#4D3F36" d="M 10.193,-49.907 L 10.193,-54.973 L 11.638,-55.519 L 12.545,-55.52 L 13.396,-55.159 L 14.352,-54.496 L 15.413,-53.531 L 16.454,-52.885 L 17.476,-52.559 L 18.478,-52.553 L 19.462,-52.865 L 20.367,-53.044 L 21.194,-53.089 L 22.112,-52.943 L 23.623,-52.44 L 22.112,-52.373 L 21.194,-52.173 L 20.367,-51.816 L 19.462,-51.296 L 18.478,-50.612 L 17.476,-50.241 L 16.454,-50.181 L 15.413,-50.434 L 14.352,-50.999 L 13.396,-51.301 L 12.545,-51.342 L 11.638,-50.998 L 10.193,-49.907"/>
    <path d="M 10.193,-45.875 L 10.193,-54.973"/>
    <g stroke-width="0.6" stroke-linecap="mitter" fill="#4D3F36">
      <path d="M -16.365,-58.727 L -16.365,-61.849 L -14.796,-61.849 L -14.796,-58.727 L -16.365,-58.727"/>
      <path d="M -12.951,-58.727 L -12.951,-61.849 L -11.382,-61.849 L -11.382,-58.727 L -12.951,-58.727"/>
      <path d="M -9.538,-58.727 L -9.538,-61.849 L -7.968,-61.849 L -7.968,-58.727 L -9.538,-58.727"/>
      <path d="M -6.124,-58.727 L -6.124,-61.849 L -4.554,-61.849 L -4.554,-58.727 L -6.124,-58.727"/>
      <path d="M -2.71,-58.727 L -2.71,-61.849 L -1.141,-61.849 L -1.141,-58.727 L -2.71,-58.727"/>
      <path d="M 0.704,-58.727 L 0.704,-61.849 L 2.273,-61.849 L 2.273,-58.727 L 0.704,-58.727"/>
      <path d="M 3.847,-42.752 L 3.847,-45.875 L 5.416,-45.875 L 5.416,-42.752 L 3.847,-42.752"/>
      <path d="M 7.555,-42.752 L 7.555,-45.875 L 9.124,-45.875 L 9.124,-42.752 L 7.555,-42.752"/>
      <path d="M 11.263,-42.752 L 11.263,-45.875 L 12.832,-45.875 L 12.832,-42.752 L 11.263,-42.752"/>
      <path d="M 14.97,-42.752 L 14.97,-45.875 L 16.539,-45.875 L 16.539,-42.752 L 14.97,-42.752"/>
      <path d="M -8.475,-52.589 L -6.906,-52.589 L -6.906,-55.16 L -7.181,-55.711 L -8.199,-55.711 L -8.475,-55.16 L -8.475,-52.589"/>
      <path d="M 9.463,-36.614 L 11.032,-36.614 L 11.032,-39.185 L 10.756,-39.737 L 9.739,-39.737 L 9.463,-39.185 L 9.463,-36.614"/>
      <path d="M -5,0 V -5 H -8 V 0"/>
    </g>
  </g>
  <circle cx="50" cy="50" r="2" fill="red" />
</svg>