<svg xmlns="http://www.w3.org/2000/svg" fill="#d7374a" stroke="#000" viewBox="50 50 200 200">
<metadata source="http://wappenwiki.org/images/e/e1/Dwight_D._Eisenhower.svg" license="https://creativecommons.org/licenses/by-nc-sa/3.0"/>
  <g id="anvil" stroke-width=".5">
  <path d="m 111,116 6,5 v 9 c 0,0 0,1 -1,1 h -11 v -1 c -1,-1 -5.1,-4 -10,-4 -5,0 -10,3 -11,4 0,1 -0.5,1 -0.5,1 h -10 c -0.5,0 -1,-1 -1,-1 v -9 l 5.1,-5 7.9,-3 c 1.2,-2 1,-3 1,-6 0,-11 -12,-15 -22,-16 C 63,91 62,89.4 62,87.9 v -6.2 c 0,-0.9 0.5,-1.5 1.6,-1.5 H 108 c 1,0 2,0.6 2,1.5 v 0.6 c 0,1 0,1.5 1,1.5 h 2 c 1,0 1,0 1,0.5 v 1 c 4,0 26,0 26,0.6 0,5.6 -7,13 -18,14 -10,2.1 -19,3.1 -19,10.1 0,4 4,4 8,6 z"/>
    <g fill="#000" stroke="none">
    <path d="m 107,87 c 0,-2.2 -1,-3.6 -3,-3.6 H 86 v 16.5 c -0.6,-1.6 -0.6,-3 -0.6,-4 v -13 H 104 c 3,0.1 3,2 3,4.1 z"/>
    <path d="m113 96c0-3-1-8.3 3-8.7l20-.5-20 1c-3 .2-3 5.2-3 8.2z"/>
    <path d="m105 127c-8-5-14-4-22 0 7-5 16-5 22 0z"/>
    <path d="m 79,118 c 2.8,-2 6.5,-4 7.2,-7 h 0.4 c -0.3,3 -5,6 -7.6,7 z"/>
    <path d="m 110,118 c -4,-2 -6,-4 -7,-7 h 0 c 0,3 3,6 7,7 z"/>
    </g>
  </g>
</svg>