<svg xmlns="http://www.w3.org/2000/svg" fill="#d7374a" stroke="#000" viewBox="50 50 200 200">
<metadata source="https://commons.wikimedia.org/wiki/File:Coat_of_Arms_of_Halszany,_Belarus.svg" author="Leonid 2" license="https://creativecommons.org/publicdomain/zero/1.0"/>
  <g id="centaur" stroke-width="1" transform="matrix(0.258,0,0,0.258,54.6,53.9)">
    <path fill="#FFF" d="M248.78 93.76a9.6 9.6 0 00.15 4.22c.6-1.3 2.35-2.8 3.32-3.08l-3.47-1.14zm7.02 18.6a6.85 6.85 0 01-2.46-3c-.4.76-.65 2.3-.55 3.33l3.01-.32z"/>
    <path stroke="none" d="M 285.7 28.53 C 283.1 28.48 280.4 28.76 277.6 29.39 C 255.1 34.64 250.5 59.66 266.5 71.75 C 272.7 76.43 281.8 79.7 280.4 89.9 C 279.1 93.57 277.1 94.66 275.1 93.72 C 273.5 92.94 272.2 91.31 270.5 90.38 C 260 84.46 250.8 88.82 247 93.68 C 264.2 98.09 273.5 109.4 252 112.7 C 262.5 118.3 278.5 109 284 98.91 C 292.4 83.04 278.6 71.09 272.4 66.42 C 259.3 56.59 268.1 32.91 290.4 37.25 C 323.6 43.74 318.5 97.39 306.8 118.6 C 294.8 140.4 272 151.8 248.2 147.9 C 247.9 147.9 247.6 147.8 247.3 147.8 C 246 147.5 244.6 147.3 243.3 146.9 C 229.4 141.3 215.1 140.5 201.7 148.9 C 201.6 149 201.4 149.1 201.3 149.2 C 201 149.3 200.7 149.5 200.4 149.7 L 199.8 150 C 199.5 150.1 199.3 150.2 199 150.4 C 198.8 150.5 198.6 150.6 198.3 150.6 C 198.1 150.7 197.8 150.8 197.6 150.9 C 197.2 151.1 196.8 151.2 196.4 151.3 C 196.1 151.4 195.9 151.5 195.6 151.6 C 190.9 152.8 185.8 152.6 180.4 151 C 175 149.4 169.2 148.5 163.7 146.8 C 159.4 145.4 155.2 142.9 151.3 142.3 L 151.2 142.2 C 147.1 136.4 140.7 132.4 131.1 130.6 C 130.7 127.5 129.6 125.1 127.7 123.3 L 77.43 131.6 C 74.3 136.1 72.35 142.5 72.01 150.3 C 68.74 150.8 65.41 153.6 65.18 156 C 64.08 167.6 65.06 178.7 72.63 189.8 C 72.87 190.2 73.1 190.5 73.34 190.9 C 73.15 190.6 72.96 190.4 72.77 190.1 C 65.24 192.4 53.02 203.2 41.07 211.6 C 36.65 210.8 34.19 212.2 33.11 215.8 C 32.24 218.7 31.24 221 29.6 223.4 C 28.34 225.3 28.17 229.4 30.79 231.4 C 32.12 232.4 33.19 233.5 33.76 235 C 37.64 245.1 40.92 255.3 40.42 265.9 C 40.33 267.8 40.12 269.4 41.26 270.2 C 43.85 272 46.67 273.5 49.62 275.6 C 51.24 276.8 53.36 276.9 54.87 275.7 C 56.99 274 59.01 273.6 61.55 273.8 C 63.02 273.8 64.19 273.5 65.16 272.3 C 66.61 270.4 68.15 268.7 69.89 266.6 C 70.69 266.9 71.39 266.7 72.1 265.6 C 74.13 262.6 77.03 259.7 81.08 257.4 C 76.73 252 66.09 250.5 57.64 253 C 57.46 253.5 57.25 253.9 57.03 254.4 C 57.98 252.4 58.55 250.3 58.54 247.9 C 56.5 249.5 55.02 250 53.35 249.7 C 54.9 248.5 56.02 246.5 55.88 244.5 C 53.93 245.5 52.46 245.8 50.73 244.8 C 51.47 244.3 52.31 243.4 52.57 242 C 49.69 242 48 240 46.65 237.7 C 46.4 235.6 46.19 233.4 46.05 231.3 C 48.01 227.3 50.34 224 52.86 221.2 C 62.36 220.4 72.28 218.5 81.78 216.1 C 82.65 216.8 84.12 217 84.72 216.3 C 86.48 214.1 87.69 211.5 88.7 208.6 C 88.62 208.6 88.55 208.5 88.48 208.4 C 92.73 211.9 97.2 214.1 102 214.7 C 104 217.9 107.8 220.6 112.6 220 L 112.7 220 C 111.8 223.6 111 227.4 109.7 230.6 C 109 232.5 107.6 234.9 106.7 237 C 105.3 240.1 104.3 243 102.9 245.6 C 101.4 247.8 99.7 246.6 97.9 248.6 C 95.9 250.7 94.33 253 94.1 255.9 C 93.97 257.5 94.1 257.6 92.88 258.8 C 90.07 261.6 88.03 264.8 88.01 269.6 C 88.01 271.2 87.76 273.1 86.61 274.8 C 81.59 282.4 75.93 289.4 68.79 294.7 C 67.13 295.9 66.08 297.6 66.19 299.8 C 66.28 301.7 62.48 305.9 60.05 305.9 C 58.34 305.8 57.27 306.6 56.05 308.4 C 52.65 313.5 46.89 319 42.86 322.2 C 45.89 324.6 59.84 326.9 66.55 323.5 C 68.43 322.6 69.66 321.2 69.76 319.2 C 70.26 317.6 70.11 316.4 69.72 315.4 C 69.28 314.2 69.18 313.5 69.35 312.2 C 70.03 306.9 74.46 306.2 76.55 308.5 C 76.69 308.7 76.83 308.8 76.97 308.9 C 76.96 308.9 76.95 308.9 76.94 308.9 L 76.94 308.9 C 79.55 311.6 77.42 317.3 84.76 317 C 82.57 312.3 87.68 305.3 87.34 297.7 C 88.77 300.3 87.63 302.6 89.07 304.7 C 90.81 300.2 94.71 300 94.56 286.9 C 95.86 289.4 97.26 289.7 97.22 294.7 C 103 289 99.28 282.4 99.74 279.3 C 100.3 280.7 101.3 281.9 102.6 282.7 C 102.4 279.7 103.3 276.1 102 272.6 L 102 272.6 C 100.8 273.7 99.63 274.7 98.5 275.8 C 100.3 274 102.3 272.4 104.1 270.4 C 105.7 268.7 107.1 266.6 108.6 264.6 C 110.5 262.1 112 260.8 112.4 257.5 C 112.6 255.7 113 253.8 114 252.4 C 114.6 251.5 115.1 250.3 115.7 249 C 123.9 242.9 131.2 235.2 136 224.9 C 136.1 224.6 136.3 224.3 136.4 224 C 136.9 223.8 137.3 223.7 137.8 223.5 C 162 236 196.7 235.4 221 220.9 C 224.2 224.9 228.7 227.3 235.8 226.5 C 243.7 233.3 251.9 239.6 261.9 242.6 C 264.6 243.4 267.3 244.6 269.7 246.7 C 273.5 249.9 278.1 254 280.5 259.4 C 285 269.2 286.9 280.4 287.4 294 C 287.5 297.6 286.8 300.4 286.6 303.9 C 286.3 307.6 287.6 309.5 285.3 311.8 C 283.5 313.6 282 313.6 280.5 315.7 C 278.2 320.3 274.7 324.6 270.3 329 C 267.9 331.3 269.3 332 271.8 332.4 C 274.4 332.9 278.4 332.9 281.9 332.6 C 287.2 332.2 294.2 331.5 295.7 325.3 C 296.5 322.3 296.5 317.5 295.8 311.7 C 304.4 314.2 306.3 308.4 303.1 300 C 298.3 287.2 296.2 275.3 296.2 264.8 C 296.2 263.3 296.5 261.7 296.6 260.2 C 296.7 257.2 297.9 254.6 297.4 251.6 C 297.1 249.6 296.8 248.6 296.9 246.4 C 297.1 240.8 295.5 238.5 293.7 237 C 291.3 235 288.2 234.6 285.2 234.1 C 282.2 233.7 279.1 233.2 276.7 229.4 C 275.5 227.5 274.4 225.6 273.4 223.7 L 273.5 223.8 C 285.3 212.1 285.1 214.3 272.1 204.2 C 275.1 196.2 277.3 188 278 179.6 C 278.7 170.7 276.2 164.2 269.1 160.8 C 269.5 160.6 270 160.5 270.4 160.4 L 270.4 160.3 C 301.6 150.3 321.7 130.1 325.7 93.65 C 329.1 63.46 321.9 45.97 308.1 36.39 C 301.3 31.64 293.7 28.65 285.7 28.53 z M 48.37 247.8 C 49.44 252.3 50.91 256.5 52.94 259.9 C 53.62 259.2 54.26 258.5 54.85 257.8 C 54.24 258.6 53.6 259.3 52.9 260 C 50.9 256.6 49.44 252.3 48.37 247.8 z M 97.04 277.3 C 96.98 277.3 96.92 277.4 96.86 277.5 C 96.92 277.4 96.98 277.3 97.04 277.3 z M 95.98 278.5 C 95.91 278.6 95.85 278.6 95.79 278.7 C 95.85 278.6 95.91 278.6 95.98 278.5 z M 95.07 279.7 C 94.98 279.8 94.89 279.9 94.81 280 C 91.83 284.3 89.19 289 86.87 294 C 89.18 289 91.83 284.2 94.8 280 C 94.89 279.9 94.98 279.8 95.07 279.7 z M 85.51 296.9 C 84.64 298.9 83.81 300.9 83.04 302.9 C 82.7 303.8 82.13 305.2 81.39 306.6 C 82.13 305.2 82.7 303.8 83.04 302.9 C 83.81 300.9 84.64 298.9 85.51 296.9 z M 81.39 306.6 C 81.14 307 80.88 307.4 80.6 307.8 C 80.88 307.4 81.14 307 81.39 306.6 z M 80.6 307.8 C 80.47 308 80.34 308.1 80.21 308.3 C 80.34 308.1 80.47 308 80.6 307.8 z M 80.09 308.4 C 79.99 308.5 79.88 308.6 79.78 308.7 C 79.88 308.6 79.99 308.5 80.09 308.4 z M 79.61 308.9 C 79.52 308.9 79.42 309 79.33 309 C 79.42 309 79.52 308.9 79.61 308.9 z M 77.4 309.2 C 77.44 309.2 77.48 309.2 77.52 309.2 C 77.48 309.2 77.44 309.2 77.4 309.2 z M 79.1 309.2 C 79.03 309.2 78.95 309.2 78.87 309.3 C 78.95 309.2 79.03 309.2 79.1 309.2 z M 77.9 309.3 C 77.95 309.4 78.01 309.4 78.05 309.4 C 78 309.4 77.95 309.4 77.9 309.3 z M 78.59 309.4 C 78.52 309.4 78.46 309.4 78.39 309.4 C 78.46 309.4 78.52 309.4 78.59 309.4 z " />
    <path fill="none" d="m 263.1,93.38 c 0.7,2.84 5.3,1 3.4,-1.84 m -5.9,1.94 c 3.7,1.01 3.3,-2.84 8.2,-1.94 M 151.4,142.3 c 3.8,0.6 8,3.1 12.3,4.4 5.5,1.8 11.3,2.7 16.7,4.3 7.9,2.3 15.2,1.7 21.3,-2.1 13.4,-8.4 27.7,-7.6 41.6,-2 25.5,6.5 50.7,-5 63.5,-28.3 11.7,-21.21 16.8,-74.86 -16.4,-81.35 -22.3,-4.35 -31.1,19.33 -18,29.16 6.2,4.68 20,16.63 11.6,32.49 -5.5,10.1 -21.5,19.4 -32,13.8 21.5,-3.3 12.2,-14.61 -5,-19.03 3.8,-4.86 13,-9.21 23.5,-3.3 1.7,0.94 3,2.56 4.6,3.34 2,0.95 4,-0.15 5.3,-3.81 1.4,-10.21 -7.7,-13.48 -13.9,-18.16 -16,-12.09 -11.4,-37.11 11.1,-42.36 10.9,-2.53 21.4,0.67 30.5,7 13.8,9.59 21,27.07 17.6,57.27 -4,36.95 -24.7,57.15 -56.6,67.15 7.1,3.4 9.6,9.9 8.9,18.7 -0.8,10.1 -3.8,19.8 -7.6,29.1 -1.4,3.4 -1.2,6.8 0.3,9.8 1.8,3.6 3.6,7.3 6,11 2.4,3.8 5.4,4.3 8.5,4.7 3,0.5 6.1,0.9 8.5,2.9 1.8,1.5 3.4,3.8 3.2,9.4 -0.1,2.2 0.2,3.2 0.5,5.2 0.5,3 -0.7,5.6 -0.8,8.6 -0.1,1.5 -0.4,3 -0.4,4.6 0,10.5 2.1,22.4 6.9,35.2 3.2,8.4 1.3,14.2 -7.3,11.7 0.7,5.8 0.7,10.6 -0.1,13.6 -1.5,6.2 -8.5,6.9 -13.8,7.3 -3.5,0.3 -7.5,0.3 -10.1,-0.2 -2.5,-0.4 -3.9,-1.1 -1.5,-3.4 4.4,-4.4 7.9,-8.7 10.2,-13.3 1.5,-2.1 3,-2.1 4.8,-3.9 2.3,-2.3 1,-4.3 1.3,-7.9 0.2,-3.5 0.9,-6.3 0.8,-9.9 -0.5,-13.6 -2.4,-24.8 -6.9,-34.6 -2.4,-5.4 -7,-9.5 -10.8,-12.7 -2.4,-2.1 -5.1,-3.3 -7.8,-4.1 -10,-3 -18.2,-9.3 -26.1,-16.2 -14.1,1.8 -18,-9.4 -21.8,-20.5 -2.8,-8.1 -6.6,-16.1 -11.3,-23.3 m -2.2,-22 c -1.2,5 -5.1,10 -4.1,14.5 1.1,5.1 5.1,7.2 9.4,9.1 1.2,0.6 2.4,1.4 3.6,2.2 m -78.3,-55.8 c 17.2,3.2 25.2,14.1 25.8,30.8 m -29.3,-38 c 4.4,4 4.7,11.8 0.8,22.1 m 154.9,95.3 c 1.9,0.4 3.4,-0.2 5.4,-0.7 3.2,-0.8 5.4,2.3 2.4,8 0.6,3.4 0.4,6.7 0,10.1 m -40.8,6.4 c 3.8,1.7 5.7,6.1 11.2,5 -3.2,-2.6 -3,-5.6 -4.6,-8 1.2,0.9 2.6,1.6 3.8,1.9 -0.9,-2.9 0.5,-6.1 -1.5,-10.1 0.8,0.7 1.6,1.2 2.3,1.3 -1.1,-2.8 0.9,-5.3 -0.2,-7.9 1.5,1 1.4,2.1 2.9,2.8 -0.6,-2.2 0.8,-4.4 0.2,-6.1 M 272,204 c 13.1,10.3 13.4,8 1.5,19.8 M 264,180.7 c 4.5,6.1 6,13.4 1.9,23.4 -1.4,3.4 -1.5,5.4 0.4,6.8 m 30,51.8 c 0.6,2.3 2.4,4.2 4.1,6 1.9,1.9 2.8,4.4 4.6,6.2 -1.5,0.6 -3.1,-0.7 -4.7,-1.2 2.1,3.5 7.9,6.6 9,13.8 -2.5,-0.2 -4.6,-3 -6.5,-3.3 1.1,4.4 6.8,6.1 8.6,10.4 0.5,1.1 1,2.6 1.9,3.8 -1.5,0.8 -4.7,-1.3 -7.1,-0.7 8.4,3.7 6.1,14.2 12.2,14.9 -5.4,4.9 -9.6,0.1 -14,-3.5 m -23.9,6.8 c 4.9,1.6 10.5,5 15.3,9.7 m -54.4,-42.9 c 3.6,-4 6,-8.4 7.5,-13.6 m 10.7,-27.3 c -9.9,11.1 -6.2,19.5 -8.9,22.9 -7,-3 -6.5,2.7 -1.9,4.3 7.7,1.9 11.5,9.5 6.9,23.6 -0.8,2.5 -1.9,2.6 -3.5,0.6 -3.4,-4.3 -6.9,-7.6 -10.4,-10.3 -3.8,-1.3 -5.1,-2.9 -4.9,-4.8 0.3,-2.2 -0.3,-4.6 -1.5,-6.5 -4.3,-7 -4,-11.7 -1.5,-14.8 5.3,-6.5 10.4,-13.2 14.9,-20.5 m -127.6,2.3 c -3.9,4.6 -5.2,10.7 -7.3,13.7 -0.9,1.5 -1.3,3.3 -1.6,5.2 -0.3,3.3 -1.8,4.6 -3.7,7.1 -1.5,2 -2.9,4.1 -4.5,5.8 -3.1,3.4 -6.62,5.8 -9.31,9.6 -4.76,6.8 -8.67,15 -11.77,22.9 -0.89,2.3 -3.44,8.9 -6.48,5.6 -2.1,-2.3 -6.52,-1.6 -7.2,3.7 -0.17,1.3 -0.1,2 0.37,3.2 0.39,1 0.54,2.2 0,3.8 -0.1,2 -1.32,3.4 -3.2,4.3 -6.71,3.4 -20.66,1.1 -23.69,-1.4 4.03,-3.1 9.78,-8.6 13.19,-13.7 1.22,-1.9 2.29,-2.6 4,-2.6 2.42,0.1 6.23,-4.2 6.14,-6 -0.11,-2.2 0.93,-3.9 2.6,-5.1 7.14,-5.3 12.8,-12.3 17.82,-19.9 1.15,-1.7 1.4,-3.6 1.4,-5.2 0,-4.8 2.06,-8 4.87,-10.8 1.22,-1.2 1.09,-1.3 1.22,-2.9 0.22,-2.9 1.8,-5.2 3.8,-7.4 1.8,-1.9 3.54,-0.7 5.04,-2.9 1.4,-2.6 2.4,-5.5 3.8,-8.6 0.9,-2.2 2.3,-4.5 3,-6.4 1.5,-3.8 2.3,-8.5 3.6,-12.6 0.9,-3.1 2.4,-6.2 3.3,-9.3 1.2,-6.3 5.6,-5 9.4,-5.9 m -13.5,-9.9 c -1.9,6.6 -1.5,13.7 2.1,21.5 m 21.7,9.6 c 7.5,-2.5 13.9,-9.7 20.1,-20.3 M 76.9,308.9 v 0 c 2.6,2.7 0.48,8.4 7.82,8.1 -2.2,-4.7 2.92,-11.7 2.57,-19.3 1.44,2.6 0.3,4.8 1.73,6.9 1.74,-4.4 5.64,-4.7 5.5,-17.7 1.29,2.5 2.69,2.8 2.65,7.8 5.83,-5.7 2.06,-12.3 2.53,-15.4 0.6,1.4 1.6,2.6 2.9,3.4 -0.2,-3 0.7,-6.6 -0.7,-10.1 v 0 m -45.84,35.7 c 5.32,2.9 9.98,6.4 13.67,10.9 m 18.91,-34.9 c 4.4,-9.2 8.89,-10.1 12.36,-13.1 m 36.8,-47.7 c 24.2,12.4 58.9,11.8 83.1,-2.6 M 115.6,249 c 8.2,-6.1 15.5,-13.9 20.4,-24.2 1,-2.1 1.7,-4.4 2.5,-6.6 m -80.82,34.7 c 8.39,-2.4 19.03,-1 23.39,4.5 -4.06,2.3 -6.96,5.1 -8.99,8.2 -0.7,1 -1.41,1.3 -2.21,1 -1.73,2.1 -3.27,3.7 -4.73,5.6 -0.96,1.3 -2.13,1.6 -3.61,1.5 -2.54,-0.1 -4.55,0.2 -6.68,1.9 -1.5,1.3 -3.63,1.2 -5.25,0 -2.95,-2.1 -5.77,-3.6 -8.35,-5.4 -1.14,-0.8 -0.94,-2.5 -0.85,-4.3 0.5,-10.6 -2.78,-20.8 -6.65,-30.9 -0.57,-1.5 -1.64,-2.7 -2.98,-3.7 -2.62,-2 -2.44,-6 -1.19,-7.9 1.64,-2.5 2.65,-4.7 3.51,-7.6 1.08,-3.6 3.54,-5.1 7.96,-4.2 12.01,-8.5 24.27,-19.4 31.78,-21.6 M 46.6,237.6 c 1.36,2.3 3.05,4.4 5.95,4.4 -0.25,1.4 -1.09,2.3 -1.84,2.8 1.74,1 3.2,0.7 5.16,-0.3 0.14,2 -0.99,3.9 -2.54,5.2 1.68,0.3 3.16,-0.2 5.19,-1.9 0,5 -2.35,8.8 -5.54,12.1 m -0.94,-44.2 c 1.25,-1.1 4.12,-2.2 7.41,-2.1 13.42,0.8 22.61,-1.2 25.71,-8.3 M 112.6,220 c -4.8,0.6 -8.7,-2.1 -10.6,-5.4 C 90.87,213.5 81.56,203 72.62,189.8 65.05,178.6 64.07,167.6 65.17,156 c 0.24,-2.5 3.67,-5.3 7.01,-5.7 m -12.6,110.4 c 3.98,0 7.45,2 10.42,6 m -15.34,-8.6 c 4.58,-0.9 6.15,2.7 5,8.5 M 46.03,231.3 c 0.73,10.7 2.73,22.4 7.55,29.8 m 35.01,-52.3 c -1.01,2.9 -2.14,5.3 -3.9,7.5 -0.61,0.7 -2.08,0.5 -2.95,-0.2 -9.5,2.4 -19.42,4.3 -28.92,5.1 -3.31,3.7 -6.29,8.2 -8.52,14.1 M 77.4,131.6 c -4.18,6 -6.25,15.3 -5.23,27.1" />
    <path d="M259.66 241.79c-9.94 11.12-6.22 19.48-8.91 22.93-7-3.04-6.5 2.7-1.98 4.3 7.8 1.94 11.5 9.47 6.95 23.58-.8 2.52-1.9 2.64-3.5.63a62.8 62.8 0 00-10.42-10.34c-3.82-1.24-5.04-2.9-4.84-4.75.25-2.26-.32-4.65-1.52-6.57-4.37-7-4-11.7-1.5-14.77a182.92 182.92 0 0014.84-20.45l10.88 5.44z"/>
    <path d="M264.38 243.46c.64 1.7-.76 3.98-.12 6.14-1.54-.67-1.49-1.77-2.91-2.83 1.08 2.64-.9 5.18.2 7.94a4.46 4.46 0 01-2.32-1.28c1.97 3.94.53 7.2 1.48 10.11a11.43 11.43 0 01-3.8-1.97c1.57 2.43 1.44 5.43 4.6 8.08-5.54 1.05-7.44-3.34-11.16-5l-.13-.15.52.22c2.7-3.45-1.03-11.81 8.92-22.93l-1.37-.68 6.09 2.35z"/>
    <path d="M304.41 309.14c4.4 3.54 8.64 8.4 13.98 3.46-6.12-.69-3.74-11.21-12.14-14.92 2.36-.56 5.51 1.48 7.08.7-.9-1.2-1.42-2.7-1.88-3.75-1.86-4.37-7.5-6.07-8.64-10.41 1.9.3 4.01 3.1 6.47 3.28-1.05-7.15-6.86-10.34-8.93-13.75 1.56.47 3.11 1.78 4.67 1.2-1.83-1.82-2.68-4.39-4.58-6.3-1.75-1.76-3.5-3.62-4.11-5.92-.07.7-.12 1.4-.12 2.11.02 10.41 2.08 22.37 6.9 35.14 1.38 3.68 1.81 6.84 1.13 9.05l.17.11z"/>
    <path fill="#fad398" d="M216.04 95.94c-.15-.27-.3-.53-.42-.79l-5.42-1.8c-1.12-.1-2.71.84-4.42 1.76-2.3 1.23-3 2.8-5.36 2.2a20.63 20.63 0 00-4.56-.5c-11.94-.34-24.56-10.4-34.84-7.38-7.77-4.78-17.03-8.05-26.31-10.88-1.72-4.29-5.12-7.57-9.2-10 .3-.4.47-1.05.44-1.9.82-.22 1.39-.83 1.5-2.37l.21.05c1.96 1.12 3.63 1.12 3.77-.83.11-1.62.12-3.18.08-4.8-.05-1.85-.27-3.88.34-5.72 1.32-.4 1.92-1.46 2.45-3.36 1.48-5.33.4-9.74-1.33-12.2-3.88-.14-7.77-.48-10.94-3.32 1.95 7.19.02 11.95-5.79 14.28a10.34 10.34 0 00-6.42 7.26c-1.1-1.53-1.48-3.13-1.02-4.68 2.74-9.35-4.45-9.94-6.16-5.86a6.13 6.13 0 00-.38 3.06c-4.75 3.99-9.1 8.66-13.18 13.33-1.72 1.97-3.7 1.23-6-.05-9.4-5.2-16.27-3.77-22.05-1.23-8.68-6.08-17.34-7.15-26.31-1.32-2.66 1.73-9.54.51-9.43 5.53.09 3.72 5.88 5 8.16 7.13 6.36 6.06 16.78 10.63 29.97 13.1 1.94 11.42 3.02 19.62 9.3 24.63.1 10.92 1.45 18.48 6.94 25.34a24.05 24.05 0 001 15.22c.51-2.42 1.83-3.34 2.58-6.66 2.99 5.62-.56 10.09 1.4 14.33.42-2.1 1.52-2.36 1.82-4.8 3 3.16 1.32 9.9 3.64 11.57.01-2.32.94-3.16.95-5.25 2.51 2.09 2.74 4.58 3.32 7 2.1-2.48 4.62-4.6 7.36-7 .72 2.3-.31 4.1-.23 6.41 2.81-3.25 3.41-8.65 6.73-12.98 1.18 2.67.65 5.4 1.4 7.35 2.38-4.35.62-12 6.07-16.07-.29 2.84.42 4.96.63 7.43a36.79 36.79 0 003.99-12.08c5.04-6.45 8.58-16.54 9.22-28.2a35.47 35.47 0 005.85-9.06 68.41 68.41 0 0027.75 4.47c5.57 5.26 17.01 5.13 29.9 3.69 2.47-.28 4.54.57 7.02.44 2.28-.12 1.74-.53 3.44.9 2 1.69 5.49 3.18 9.35 3.58 1.28.13 2.71.02 3.97-.21 1.68-.32 2.3-2.58 1.52-3.55a2.28 2.28 0 001.66-.77c.98-1 .98-2.73.55-3.34a2.24 2.24 0 001.51-.74c.7-.82.82-2.3.22-4.19 1.44-.18 2.54-.87 2.7-2.44l-1.65-2.63-7.29-1.1z"/>
    <path fill="#b6d73d" stroke="none" d="m 263.1,93.38 c 0.7,2.84 5.3,1 3.4,-1.84 z"/>
    <path fill="none" d="m 260.6,93.48 c 3.7,1.01 3.4,-2.84 8.2,-1.94" />
    <path fill="#000" stroke="none" d="m 265.2,93.45 a 0.2429,1.108 0 0 1 -0.2,1.11 0.2429,1.108 0 0 1 -0.3,-1.11 0.2429,1.108 0 0 1 0.3,-1.11 0.2429,1.108 0 0 1 0.2,1.11 z" />
    <path class="tertiary" d="M189.51 33.87c11.2 6.12 19.7 8.53 27.7 19.56a49.01 49.01 0 019.2 28.25 124.04 124.04 0 01-5.36 37.55c-3.66 11.86-10.47 20.48-20.13 26.56-7.72 4.86-20.18 7.68-28.36 9.19-4.6.85-8.14 2.63-9.18 7.35-1.29-5.68 1.76-9.3 8.9-11.65 9.98-3.27 18.58-5.2 25.4-10.79 6.96-5.68 12.16-13.48 15.46-23.62 3.48-10.68 5.05-24.5 4.45-35.73-.85-15.92-6.4-24.99-15.66-33.06-4.77-4.16-10.85-6.26-15.51-10.3-4.12-3.57-5.46-7.6-3.48-13.1.3 4.3 2.5 7.55 6.57 9.79z"/>
    <path fill="#FC9" stroke="none" d="M221.19 102.65c-2.43-1.14-4.3 1.68-2.69 3.04.24.2.48.38.73.54-1.43-.38-3.2 2.26-1.12 3.67-1.42.3-2.48 2.48-.62 3.97 1.02.82 3.51 1.17 5.3.84 1.68-.32 2.32-2.62 1.52-3.58l.3-.05c2.3-.4 2.45-3.1 1.98-3.86l-.12-.18.47-.1c1.6-.36 2.14-2.19 1.29-4.82 1.43-.17 2.57-.86 2.74-2.45l-1.67-2.63-7.29-1.1-.42-.78-5.42-1.8c-1.12-.1-2.71.84-4.42 1.75-2.3 1.24-3 2.8-5.36 2.2l2.13 9.91c4.13-.23 7.52-1.41 7.31-6.57.97 0 2.16-.46 2.85-1.13a8.65 8.65 0 002.51 3.13"/>
    <path fill="none" d="M186.64 31.66L113.9 79.23l56.05 76.4"/>
    <path fill="none" d="M134.8 78.56c11.1 3.4 22.02 7.43 30.57 13.88"/>
    <path class="secondary" d="M110.63 82.9c4.9 2.89 15.28 2.3 20.76-1.99-4.47-6.54-13.02-7.89-19.6-7.2z"/>
    <path class="secondary" d="M226.21 95.88L110.6 78.64l.2-1.7 115.7 17.25-.29 1.68z"/>
    <path fill="#eee" d="M222.76 92.98l6.99 1.04 2.76-2.45 10.75 6.01-12.04 2.61-1.92-3.15-7-1.05.46-3.01z"/>
    <path fill="#fad398" d="M37.4 74.76c10.97 4.08 25.43 4.04 37.31 3.8a4.53 4.53 0 013.09 1.04c2.08 1.73 3.95 1.84 6.3 1.53 2.32 5.57 10.66 3.21 17 1.9.09 1.01.38 1.8 1 2.06-3.06 1.4-4.81 4.21-2.38 4.83 2.15-1.33 5.52-2.4 6.65-3.62 2.73.87 2.49.3 4.41-2.51 3.76-3.45 4.13-3.62.83-7.25 1.54-2.11 2.5-3.48.5-4.62-1.77-1-3.15-2.1-4.89-2.81-1.6-.66-3.29-.59-5.03-.43-3.62.33-7.32 1.25-10.93 2.08-2.04.47-3.9.15-5.9-.9-7.46-3.93-18.7-5.17-21.12-7.2-9.76-8.17-19.44-10.32-29.52-3.77-2.65 1.73-9.54.51-9.42 5.53.09 3.72 5.87 5 8.16 7.13 1.16 1.1 2.52 2.2 3.94 3.2"/>
    <path fill="#4f1a00" d="M84.3 62.06c1.8.84 3.37 1.05 4.78-.56 4.08-4.67 8.43-9.35 13.2-13.3a6.16 6.16 0 01.36-3.1c1.71-4.07 8.9-3.49 6.16 5.87-.45 1.54-.08 3.14 1.03 4.68.8-3.16 2.87-5.84 6.42-7.26 5.8-2.33 7.73-7.1 5.78-14.28 6.23 5.57 15.19 1.5 21.41 5.27-.36-4.8-4-7.73-10.18-8.02-4.96-.23-7.26-2.1-11.23-4.25-10.73-5.8-27.28.44-25.93 14.44.13 1.34.05 2.26-.4 2.8-.6.76-5.1 1.45-6.45 2.1-9.26 4.4-9.32 10.75-4.95 15.6"/>
    <path fill="#4f1a00" d="M139.21 37.88c2.03 4.17-.06 8.86-4.64 10.62 1.06-4.81.02-8.78-1.57-11.07 2.12.08 4.22.1 6.21.45"/>
    <path fill="none" d="M92.62 192.06c-.9-8.96-.62-17.35 1.76-26.03 2.1-2.47 4.62-4.59 7.36-6.99.71 2.3-.32 4.1-.24 6.4 2.82-3.25 3.42-8.65 6.73-12.97 1.19 2.66.66 5.4 1.41 7.35 2.38-4.35.61-12 6.06-16.07-.29 2.83.42 4.95.64 7.43 7.82-15.17 3.1-25.36-.16-29.97m-20.42 9.8a6.81 6.81 0 004.61 1.1 8.1 8.1 0 004.95 1.19M97 152.18c1.31-4.07.9-7.87 1.42-12.13.59-4.77 2.8-9.28 3.36-14.22m-7.36 40.4c-.64-2.48-.78-5.04-3.37-7.2-.02 2.1-.95 2.93-.96 5.26-2.32-1.68-.63-8.41-3.64-11.58-.3 2.44-1.4 2.7-1.82 4.8-1.95-4.24 1.6-8.71-1.4-14.33-.74 3.33-2.06 4.25-2.58 6.66-4.8-11.53.82-24.01 8.19-29.72m3.41 25.46a8.43 8.43 0 005.8 1.31c2.21.91 4.42 1.33 6.63 0m15.61-7.82c5.07-6.42 8.6-16.51 9.24-28.14M63.4 84.53c2.06 12.12 3.13 20.63 10.38 25.53m6 24.73c-5.6-6.9-6.97-14.5-7.07-25.47m39.56-9.18c2.71.55 5.47 1.5 8.14 2.88 3.78 1.93 6.88 1.49 9.37-.68 2.5-2.18 4.66-4.8 7-6.77 5.02 1.97 10.04 3.7 15.07 3.85m-16.57 2.41c10.46 3.91 20.92 5.3 31.37 4.17m-39.78 7.66c5.05-4.98 8.96-10.63 10.37-17.8m71.27 11.37c4.13-.23 7.52-1.42 7.31-6.57.97 0 2.15-.46 2.85-1.13 1.41 2.97 4.59 5.2 6.57 3.62 1.14-.9.18-2.01-.39-2.86-1.18-1.74-2.43-3.46-3.27-5.12m4.3 6.84c2.38.41 4.82.07 5.1-2.33m-9.91 3.06c-2.44-1.14-4.19 1.6-2.58 2.96 2.47 2.08 5.5 1.9 8.44 1.25 1.6-.36 2.14-2.19 1.29-4.81m-9.05 4.14c-1.43-.37-3.15 2.22-1.1 3.63a8.87 8.87 0 006.52 1.18c2.3-.4 2.46-3.1 1.99-3.86m-8.36 2.67c-1.49.2-2.64 2.45-.74 3.98 1.02.82 3.51 1.17 5.3.83 1.68-.31 2.3-2.57 1.56-3.52m-61.2-4.85c5.57 5.24 17 5.1 29.89 3.66 2.47-.27 4.54.57 7.02.44 2.29-.12 1.75-.52 3.44.9 2.13 1.8 5.97 3.38 10.13 3.64m-52.51-25.55c10.27-3.02 22.8 7.06 34.74 7.4 1.52.05 3.05.1 4.57.49 2.35.6 3.05-.96 5.36-2.2 1.7-.91 3.3-1.71 4.41-1.62M69.88 78.7c1.69 1.65 2.63 5 3.54 7.95a48.4 48.4 0 004.03 9.84c2.39 4.14 5.83 6.43 13.49 4.51a25.84 25.84 0 018.72-.86M37.48 74.78c10.96 4.09 25.4 4.06 37.28 3.81a4.53 4.53 0 013.08 1.05c2.08 1.73 3.96 1.84 6.3 1.53 2.33 5.57 10.66 3.21 17 1.9.1 1.01.39 1.8 1 2.06-3.06 1.4-4.8 4.21-2.38 4.83 2.16-1.33 5.53-2.4 6.66-3.62 2.72.87 2.48.3 4.41-2.51 3.76-3.45 4.13-3.62.83-7.25 1.53-2.11 2.49-3.48.49-4.62-1.77-1-3.14-2.1-4.88-2.81-1.6-.66-3.3-.59-5.04-.43-3.61.33-7.32 1.25-10.92 2.08-2.04.47-3.9.15-5.9-.9-7.47-3.93-18.7-5.17-21.13-7.2-9.76-8.17-19.43-10.32-29.51-3.77-2.66 1.73-9.54.51-9.42 5.53.08 3.72 5.87 5 8.16 7.13 7.89 7.52 22.03 12.75 39.93 14.5m30.98-5.61c.89 1.48 2.34 4.98 1.78 6.12m.5-10.12a27.17 27.17 0 013.71 7.98m1.43-7.78c-1.67-1.42-3.23-2.34-4.84-4.49M91.63 51.53c-2.75 4-5.63 7.49-3.54 10.83m-3.73-.28c-4.38-4.85-4.32-11.2 4.94-15.6 1.35-.64 5.84-1.34 6.45-2.09.45-.55.53-1.47.4-2.8-1.35-14 15.2-20.25 25.93-14.45 3.97 2.14 6.27 4.03 11.23 4.26 6.19.28 9.82 3.22 10.18 8.01-6.22-3.76-15.18.3-21.4-5.27 1.94 7.19.02 11.95-5.8 14.28a10.34 10.34 0 00-6.41 7.26c-1.12-1.53-1.48-3.13-1.03-4.68 2.74-9.36-4.45-9.94-6.16-5.86-.8 1.9-.18 3.26-.25 5.1-.1 2.63-.16 4.54 2.25 4.58-2.52 10.76 2.57 12.24 15.09 18.53 2 1 5.97-.43 4.72-4.18m10.9 11.33c-1.4-5.25-5.17-9.13-9.84-11.92M61.1 60.26c5.77-2.56 12.64-3.99 22.05 1.22 2.3 1.28 4.27 2.02 6 .05 4.07-4.67 8.42-9.34 13.17-13.3m2.29-1.27c-.22-3.52 4.98-1.32 1.64 1.2-3.21 2.43 1.19 3.74.9.36m27.47.01c4.6-1.75 6.69-6.45 4.64-10.63m-20.83 24.08c1.2-3.6 5.67-1.02 6.41-5.79m8.2-18.74c1.72 2.47 2.8 6.88 1.32 12.21-.52 1.9-1.13 2.96-2.44 3.36-.61 1.84-.4 3.87-.35 5.71.05 1.62.04 3.18-.08 4.8-.13 1.96-1.8 1.96-3.76.84-3.36-.76-2.63-3.5-1.12-3.85m-2.8-6.94c.58.94 2.08 1.13 2.73.19m-4.63-.58c2.29-.07 3.33 1.63 5.42.12m-7.72-2.29c4.08.8 4.84-.55 6.53.24 1.44.67 2.07 2.53 4.34.4m-7 17.66c1.58 0 2.6-.46 2.54-2.57m-5.16.01c3.12-.67 6.35 1.5 6.67-2.44"/>
    <path fill="none" d="M83.2 95.85c1.02.36 1.64 1.24 1.38 1.97-.25.72-1.3 1.02-2.31.66-1.03-.36-1.65-1.24-1.4-1.97.26-.72 1.3-1.02 2.32-.66z"/>
    <path fill="none" d="M126.05 99.22c1.07-.18 2.04.29 2.17 1.05.13.76-.64 1.52-1.7 1.7-1.07.18-2.05-.29-2.17-1.05-.13-.76.63-1.52 1.7-1.7z"/>
  </g>
</svg>
