<svg xmlns="http://www.w3.org/2000/svg" fill="#d7374a" stroke="#000" viewBox="50 50 200 200">
  <metadata source="http://wappenwiki.org/images/f/f6/Saunders_Ancient.svg" license="https://creativecommons.org/licenses/by-nc-sa/3.0"/>
  <g id="elephantHeadErased" stroke-width=".66">
    <path stroke-linejoin="round" d="M123.33 77.06c11.93 13.72 5.48 26.36 6.67 33.06.62 3.49 4.29 7.27 8.58 6.47-3.78 6.37-15 5.66-18.24-1.17 1.09 4.13 1.9 7.34-.4 10.83-3.44 5.2-8.1 3.89-12.88 8.29a8 8 0 0 0-2.23 5.32c-2.9-2.45-3.05-6.47-1.6-10.1 1-2.5 6.2-8.48 2.9-15.7a10.28 10.28 0 0 1-4.81 9.47c-4.4 3.07-10.08 1.66-11.74-.22a5.48 5.48 0 0 0 5.55-4.88c.64-4.38-1.62-11.12.66-14.72a12.55 12.55 0 0 0-6.14.42c-.51.5-1.42.66-2.12 1.21-.69.6-.98.2-1.04-.15-.1-.46.2-1.1.4-1.5.53-1.09 2.47-3.67 2.82-6.41-2.16 1.39-5.63.9-7.82 2.58-1.52 1.2-2.21 3.05-2.21 3.05s-2.65 4.27-3.34 9.73c-.6 4.84-.04 8.28 1.53 12.42 1.9 4.55 6.05 6.19 7.2 6.12 0 0 .14-.73 1.22-1.13.9-.33 1.32.29 1.88 0 .57-.29.97-.84 1.65-.97.73-.13 1.46.3 1.8.95.52 1.02.17 2.43 2.03 2.85.46.11 1.81.46 2 1.66.14.75-.06 1.28-.72 1.79a3.31 3.31 0 0 1-2.23.55c-2.21-.15-2.28-1.41-4.51-1.5-.58-.02-1.37.2-1.92.29-2.52.33-5.24.9-7.52-.58-1.66-.6-3.1-1.2-4.26-3.05-2.28-.75-2.92-2.2-3.45-4.09-.82-1.1-2.6-2.8-2.67-4.7-.34-1.26-1.84-4.12-1.38-5.46-.28-1.3-1.12-3.32-.48-4.62.04-1.73.15-2.01.15-2.01s-.46-2.28.22-3.92c.34-1.72-.57-2.63.23-4.7 0 0-.58-3.32.64-5.06.66-.95.08-2.99 2.18-4.87.62-1.1.34-3.16 2.04-4.48.8-1.44 1.37-2.1 2.12-3.56.93-1.81 1.46-3.78 2.16-5.68.3-.77.6-1.9 1.11-2.56 1.02-1.3 2.94-2.17 4.38-3.3 1.72-1.34 2.85-3.22 3.29-3.84 3.65-4.51 7.51-9.04 14.36-9.04 3.3 0 7.27 1.37 10.28 2.14a16.44 16.44 0 0 1 8.04 5.1l5.62 9.67z"/>
    <g stroke="none" fill="#000">
      <path d="M105.8 114.07a5.97 5.97 0 0 0-.17-1.23c-.1-.42-.23-.82-.36-1.24-.13-.42-.26-.84-.35-1.28a2.6 2.6 0 0 1 .04-1.3 2.43 2.43 0 0 0 .11 1.25c.14.4.31.8.49 1.2.38.8.7 1.6.86 2.52l-.62.08zm14.23 1.46a9.01 9.01 0 0 1-.3-1.88 17.68 17.68 0 0 1 .17-3.7c.11-.63.25-1.22.47-1.8a8.4 8.4 0 0 0-.31 1.81c-.05.62-.07 1.22-.05 1.84.02.6.1 1.21.18 1.8.09.6.24 1.18.44 1.73l-.6.2zm-49.76-4.2c-.31-.04-.6-.09-.91-.09a6.19 6.19 0 0 0-1.77.14 2.3 2.3 0 0 0-.75.33l-.33-.58c.33-.15.66-.22 1-.26.32-.05.63-.02.97 0 .3.02.61.09.92.15l.91.25-.04.06zm19.2-7.47c.42-.24.8-.57 1.13-.97.3-.4.57-.86.77-1.35a5.34 5.34 0 0 1-.49 1.53 4.44 4.44 0 0 1-.99 1.32l-.42-.53zm-.02-6.76c.5-.26.93-.7 1.26-1.24a9.4 9.4 0 0 0 .8-1.72A9.2 9.2 0 0 1 91 96a3.8 3.8 0 0 1-1.19 1.63l-.37-.53zm-12.89-3c-.22.46-.42.9-.48 1.39-.09.46-.02.93.2 1.3.1.2.24.35.4.47s.35.17.55.2c.2.02.42 0 .66-.03l.75-.1a4.86 4.86 0 0 1 1.57.06l1.48.22c.49.07.97.11 1.48.11.49 0 .97-.07 1.44-.29a2.96 2.96 0 0 1-1.42.58 7.07 7.07 0 0 1-1.52.06 31.98 31.98 0 0 1-2.23-.15c-.25 0-.47 0-.69.04-.46.07-1 .2-1.59.14a1.77 1.77 0 0 1-.84-.36c-.24-.2-.42-.44-.53-.7a2.19 2.19 0 0 1-.04-1.62 3 3 0 0 1 .81-1.32zm-3.73 31.97a4.77 4.77 0 0 0-1.02.87c-.13.15-.26.33-.33.5-.09.18-.1.36-.09.51l-.66-.02a1.92 1.92 0 0 1 .84-1.26 4.42 4.42 0 0 1 1.24-.64l.02.04zm-4.7-3.02.2-.16.17-.1a2.65 2.65 0 0 1 .35-.19c.24-.1.49-.17.73-.24l.75-.15c.25-.05.51-.07.75-.07l.03.07-.71.22-.69.28-.62.36-.26.2-.11.1-.09.1-.5-.42zm2.22-5.93a15.07 15.07 0 0 0-2.56.45c-.13.04-.24.1-.33.17-.09.07-.16.16-.16.18l-.61-.27a.9.9 0 0 1 .46-.42l.49-.15a12.15 12.15 0 0 1 2.71-.02v.06zm.14-9.96c-.31-.05-.6-.1-.9-.1a6.19 6.19 0 0 0-1.78.14 2.3 2.3 0 0 0-.75.33l-.33-.57c.33-.16.66-.22 1-.27.33-.04.64-.02.97 0 .3.02.62.1.92.16l.91.24-.04.07zm-3.56-4.89c.37-.22.75-.24 1.13-.26a8.55 8.55 0 0 1 3.05.55l-.03.07a12.4 12.4 0 0 0-2.98-.14c-.3.07-.62.16-.82.31l-.35-.53zm4.75-3.93a12.24 12.24 0 0 0-2.94-.62c-.33-.02-.64 0-.9.09l-.14-.64c.4-.07.75 0 1.1.04a14.37 14.37 0 0 1 2.92 1.06l-.04.07zm1.97-4.24a9.35 9.35 0 0 0-2.77-1.2 1.97 1.97 0 0 0-.88.05l-.15-.64a2.43 2.43 0 0 1 1.15.1 10.34 10.34 0 0 1 2.67 1.66l-.02.03zm-1.66-6.3c.38.02.68.15.97.28a15 15 0 0 1 2.3 1.55l-.04.05a12.29 12.29 0 0 0-2.46-1.11 2.56 2.56 0 0 0-.8-.11l.03-.66zm26.3 4.4-.4.55-.4.53a12.29 12.29 0 0 1-.88 1.04l-.07-.03c.02-.24.11-.46.22-.68s.22-.42.38-.6l.49-.5c.2-.14.4-.27.66-.32zM78 85.25c.09.41.04.86-.04 1.28s-.25.84-.4 1.21l-.51 1.15c-.18.38-.33.75-.46 1.17-.05-.42.02-.86.13-1.28s.26-.82.42-1.2l.48-1.14c.16-.4.27-.77.38-1.2zm17.88 18.12c.64.15 1.28.28 1.9.28a2.7 2.7 0 0 0 1.75-.55l.75-.64.68-.7c.42-.51.75-1.11 1.02-1.7a9.06 9.06 0 0 1-1.55 2.58l-.7.73a2.65 2.65 0 0 1-.89.57 4.2 4.2 0 0 1-1.04.24c-.7.07-1.39-.02-2.05-.1l.13-.71zm-2.8 30.23-.7.29-.59.37-.55.44-.55.51a2.1 2.1 0 0 1 .84-1.3c.22-.16.46-.27.73-.33.28-.07.55-.07.81.02zm-8.12-1.66c.07.38.18.69.33.95.1.14.16.27.27.38l.3.33c.23.22.5.38.78.53l.47.2.24.09c.09.04.18.06.24.13l-.55.09c-.18.02-.38 0-.58-.02a2.21 2.21 0 0 1-1.06-.53 2.48 2.48 0 0 1-.4-.45 1.77 1.77 0 0 1-.24-.55c-.06-.4-.02-.84.2-1.15zm2.99-.02c.2.09.33.13.46.22l.35.27c.11.08.2.22.3.33l.23.44c-.2.07-.4.02-.55-.02a1.8 1.8 0 0 1-.44-.27 1.22 1.22 0 0 1-.31-.42c-.04-.15-.11-.35-.04-.55zm2.74-1.37.28.42c.07.13.11.27.14.42l.04.42-.02.49a.47.47 0 0 1-.29-.11l-.2-.2a.96.96 0 0 1-.2-.47 1.2 1.2 0 0 1-.02-.48c.07-.16.11-.34.27-.49zm-11.4 2.67c-.16.3-.3.62-.34.93-.02.16-.04.31-.02.44.02.14.07.25.13.34l-.6.3a1.3 1.3 0 0 1-.06-.64c.02-.2.1-.37.18-.55a2.65 2.65 0 0 1 .64-.84l.06.02zm-3.63-2.45c-.22.2-.44.4-.6.62a1.1 1.1 0 0 0-.2.35.44.44 0 0 0-.02.3l-.66-.03c.04-.22.13-.4.24-.53a1.77 1.77 0 0 1 .38-.33c.26-.18.53-.31.81-.42l.05.04z"/>
    </g>
    <g>
      <path class="secondary" d="M82.38 99.9a24.97 24.97 0 0 1-2.88 6.02c-6.2 8.95-13.83 10.01-15.47 10.25s-2.54 0-2.63-.42c-.08-.42 1.55-1.08 1.97-1.32 8.62-4.93 12.46-12.36 13.48-15.67.49-1 2.63-1.26 3.96-.95.93.24 1.9 1.01 1.57 2.1z"/>
      <path fill="#f6f6f6" d="M81.3 80c.04.86.44 1.79 1.23 2.12.66.28 1.46.1 2.12-.25.31-.15.6-.35.84-.6.6-.57.71-1.34 1.02-2.11-1.84-.16-3.45.17-5.24.53l.02.3z"/>
      <g stroke="none" fill="#000">
        <path d="m86.29 82.18.2-.44.22-.37.22-.38.29-.4a1 1 0 0 1 .04.51c-.02.18-.09.33-.18.46-.08.16-.2.27-.33.38a.69.69 0 0 1-.46.24zm-4.09.14c-.35.26-.66.61-.86 1.06-.02-.49.09-1 .33-1.48l.53.42zm1.6-3.56.19-.29.2-.22.24-.18c.09-.04.18-.1.31-.13.02.13 0 .27-.07.38-.04.1-.13.2-.22.28l-.3.18c-.1 0-.23.02-.36-.02zm2.64.06.49-.04.46-.04.45-.1c.13-.04.28-.08.48-.08l.05.04a.66.66 0 0 1-.34.47c-.15.1-.33.17-.5.24l-.53.13-.51.05-.05-.67zm-6.65-1.26c.27.07.49.25.64.47.16.22.27.53.27.8l.04.3.09.18.09.07.22-.05.15.64c-.1.03-.24.1-.48.07a.66.66 0 0 1-.31-.13l-.18-.18a1 1 0 0 1-.22-.46l-.02-.42c0-.22 0-.4-.09-.6-.09-.2-.2-.38-.29-.64l.1-.05zm-1.92-.04.06.73a5.44 5.44 0 0 0 .4 1.26l.16.33.13.38-.33-.2-.29-.27a1.72 1.72 0 0 1-.46-1.52 1.1 1.1 0 0 1 .33-.71zm5.81 1.79c.02.18-.18.46-.18 1s.27 1.03-.2.94c-.48-.08-1.25-1.28-1.17-1.76l1.55-.18zm-1.33-2.32c.38-.2.76-.33 1.15-.42.4-.09.8-.15 1.2-.18.4-.02.81.03 1.23.14a3.1 3.1 0 0 1 1.13.53l-1.2-.03a20.33 20.33 0 0 0-1.14.03l-1.17.02c-.38 0-.8-.02-1.2-.09zm6.33 5.4c-.07-.12-.07-.2-.1-.27l.03-.18.13-.13.27-.1c.08.1.13.19.13.27.02.1 0 .16-.02.2-.03.07-.1.11-.16.16-.06.04-.15.06-.29.04zm-.82.94-.02-.22c0-.04-.03-.06 0-.09l.06-.02.22-.04a.3.3 0 0 1 .18.2c.02.06 0 .15-.04.2-.05.04-.12.08-.18.08a.27.27 0 0 1-.22-.1zm-.86 1 .02-.25.04-.1.11-.03.25-.02c.08.09.1.18.1.24 0 .1-.04.16-.08.2-.05.05-.14.07-.2.07-.09 0-.18-.02-.24-.11zm-1.2.64c.05-.13.09-.2.13-.25l.16-.08c.07-.03.11 0 .18.02.06.02.13.09.22.18a.59.59 0 0 1-.14.24l-.15.09-.18-.03c-.06-.02-.13-.06-.22-.17zm-.97.44.07-.22.04-.07c.02 0 .04 0 .07.05l.15.15v.24c-.02.05-.07.1-.1.1s-.1 0-.14-.05a.41.41 0 0 1-.09-.2z"/>
      </g>
    </g>
    <path stroke-linejoin="round" d="M99.42 79.93c1.94 1.94 2.82 4.64 3.4 7.31.18.78.22 1.57.3 2.37.32 3.16.94 6.32 2.17 9.24a17.2 17.2 0 0 0 6 7.44c.81-1.6 2.62-2.4 4.92-2.16-1.06-1.77-1.2-4.82.02-6.65a4.64 4.64 0 0 1 .87-1c1.23-1.01 3.16-1.15 4.86-.62-1.06-1.01-1.84-2.4-1.7-3.67.13-1.1.57-2.54 1.3-3.35a6.3 6.3 0 0 1 5.2-2.33 5.8 5.8 0 0 1-1.49-2.96 5.57 5.57 0 0 1 2.21-4.92 7.71 7.71 0 0 1 3.74-1.22l-2.28-.86a35.58 35.58 0 0 1-2.67-1.09 16.4 16.4 0 0 1-4.78-3.13c-1.48-1.44-2.43-3.3-3.75-4.87"/>
    <path fill="none" stroke-linecap="round" d="M97.63 74.03a23.16 23.16 0 0 1 11.73 8.84c.33.48.69.97 1.08 1.41a9.1 9.1 0 0 0 5.77 2.17 2.87 2.87 0 0 1-1.48 1.79c-.86.42-2.2.55-3.91.13"/>
    <g stroke="none" fill="#000">
      <path d="M94.7 69.4a8.62 8.62 0 0 1 3.65.54c1.18.44 2.24 1.1 3.19 1.94.93.84 1.68 1.86 2.34 2.9.66 1.06 1.2 2.19 1.64 3.36l-.62.22a18.21 18.21 0 0 0-1.5-3.27 10.52 10.52 0 0 0-5.16-4.86 10.6 10.6 0 0 0-3.53-.82zm4.25-2.89a16.5 16.5 0 0 1 8.29 3.28 15.65 15.65 0 0 1 3.38 3 25.37 25.37 0 0 1 5.86 12.07c.3 1.46.62 2.91 1.04 4.33a18.85 18.85 0 0 0 1.7 4.1 13 13 0 0 1-1.15-1.91 24.2 24.2 0 0 1-1.53-4.22l-.57-2.17-.58-2.14a18.12 18.12 0 0 0-1.6-4.11c-.34-.67-.72-1.3-1.1-1.95a27.32 27.32 0 0 0-2.56-3.6c-.48-.55-.97-1.1-1.52-1.6a12.9 12.9 0 0 0-.84-.7l-.86-.69c-1.17-.88-2.41-1.7-3.76-2.34a16.57 16.57 0 0 0-4.2-1.35zm2.8-3.35a8.2 8.2 0 0 1 2.09-.12 13.41 13.41 0 0 1 5.98 1.77 16.22 16.22 0 0 1 6.13 5.68c.75 1.2 1.37 2.46 1.94 3.72l1.64 3.82c.55 1.26 1.15 2.5 1.88 3.64.72 1.18 1.67 2.2 2.5 3.3-.94-1.02-1.93-2-2.77-3.12a23.65 23.65 0 0 1-2.08-3.62c-.62-1.24-1.15-2.52-1.72-3.78a29.81 29.81 0 0 0-1.92-3.63 16.73 16.73 0 0 0-9.6-7.2 11.5 11.5 0 0 0-4.06-.46zm8.16 26.54a8.4 8.4 0 0 1 1.15 2.72c.22.95.33 1.9.44 2.85.11.95.2 1.87.42 2.8a8.62 8.62 0 0 0 1 2.63 7.23 7.23 0 0 1-1.3-2.56c-.27-.93-.43-1.88-.58-2.8-.15-.94-.29-1.89-.55-2.77a7.96 7.96 0 0 0-1.13-2.5l.55-.37zM88.6 73.8a8.55 8.55 0 0 1 4.53-.92c1.57.04 3.11.37 4.62.8l-.2.61a18.25 18.25 0 0 0-4.42-1.1 9.8 9.8 0 0 0-2.28 0c-.8.13-1.55.3-2.25.62zm.57 2.53c.42-.22.9-.3 1.4-.31a10.39 10.39 0 0 1 4.21.7 11.85 11.85 0 0 1 4.89 2.97l-.47.46a13.3 13.3 0 0 0-1.01-.93l-1.1-.82a14.28 14.28 0 0 0-6.53-2.2c-.46 0-.95 0-1.39.13z"/>
      <path d="M111.02 88.64a9.33 9.33 0 0 0-3.32 4.95 7.78 7.78 0 0 0-.15 3.02c.06.51.22 1 .48 1.42.27.42.67.8 1.18.95a2.21 2.21 0 0 1-1.33-.84 3.87 3.87 0 0 1-.64-1.48 8.11 8.11 0 0 1 .49-4.73 8.77 8.77 0 0 1 2.89-3.82l.4.53z"/>
    </g>
  </g>
</svg>
