<svg xmlns="http://www.w3.org/2000/svg" fill="#d7374a" stroke="#000" viewBox="50 50 200 200">
<metadata source="https://commons.wikimedia.org/wiki/File:Coa_Hungary_Family_Reznek_K%C3%B3sa.svg" author="Madboy74" license="https://creativecommons.org/publicdomain/zero/1.0"/>
  <g id="flangedMace" stroke-width=".8" transform="matrix(0.2057 -0.3435 0.343 0.206 -101.2 103.5)">
    <g>
      <path stroke-width=".5" d="M192.5 472.2a3.48 3.54 58.92 00-4.8-1.1 3.48 3.54 58.92 00-1.3 4.8 3.48 3.54 58.92 004.9 1.1 3.48 3.54 58.92 001.2-4.8zm-1.4.9a1.86 1.9 58.92 01-.7 2.5 1.86 1.9 58.92 01-2.5-.6 1.86 1.9 58.92 01.6-2.6 1.86 1.9 58.92 012.6.7z"/>
      <path d="M225.5 440.6c-1.5 1-.5 1.9-.6 3.5-.4 4.5-18.1 12.5-30.3 19.9-5.6-4.8-7.2 4.9-4.5 9.4 2.8 4.6 12 7.6 10.4.5 12.4-7.2 27.6-19.1 31.8-17.5 1.5.6 1.8 1.8 3.3 1z"/>
      <ellipse cx="503.6" cy="33.91" rx="9.821" ry="2.148" transform="rotate(58.92)"/>
    </g>
    <path fill="#000" fill-opacity="0.3" stroke="none" d="M192.5 472.2a3.48 3.54 58.92 00-4.8-1.1 3.48 3.54 58.92 00-1.3 4.8 3.48 3.54 58.92 004.9 1.1 3.48 3.54 58.92 001.2-4.8zm-1.4.9a1.86 1.9 58.92 01-.7 2.5 1.86 1.9 58.92 01-2.5-.6 1.86 1.9 58.92 01.6-2.6 1.86 1.9 58.92 012.6.7z"/>
    <path fill="#000" fill-opacity="0.3" stroke-width=".5" d="M189.5 465.1c-.4 1.5-.6 3.1-.4 4.7.3 1.1.6 2.3 1.1 3.3.7 1.3 1.6 2.3 2.7 3.1 1.4.9 2.9 1.7 4.6 1.9.2.1 1.3-.1 1.3-.1-2.5-.6-3.7-2.3-4.8-3.8-1.1-1.5-2-3-2.8-4.7-1-2-1.3-3.5-1.2-5.8 0 0-.5 1.3-.5 1.4z"/>
    <path d="M291.1 408.5l-61.3 35.7c-.2.1.4 2.3 1.6 4.4 1.2 2 2.9 3.5 3.2 3.4l60.2-37.6z"/>
    <path d="M300.4 402.2l-9.9 6a4.21.85 58.92 001.5 4 4.21.85 58.92 002.9 3.2l9.9-5.9z"/>
    <path d="m 342.2,388 c 0,0 2.5,14.7 -2.4,16.9 -10.2,4.7 -22.5,4 -32.5,8.8 -3.3,0.6 -6.5,-3.1 -8.2,-5.8 l 40.4,-24.3 z m -5.4,-8.9 c 0,0 -11.8,-9.1 -16,-5.8 -8.9,6.9 -14.1,18 -23,24.7 -2,2.6 -0.3,7.2 1.4,9.9 l 40.3,-24.4 z" />
    <path fill="#000" fill-opacity="0.2" d="M336.8 379.1s-11.8-9.1-16-5.8c-8.9 6.9-14.1 18-23 24.7-2 2.6-.3 7.2 1.4 9.9l40.3-24.4z"/>
    <path fill="#000" fill-opacity="0.2" d="M342.2 388s2.5 14.7-2.4 16.9c-10.2 4.7-22.5 4-32.5 8.8-3.3.6-6.5-3.1-8.2-5.8l40.4-24.3z"/>
    <path d="M338 381s-8.8-3.9-13.1-.8c-9.2 6.4-15.9 14.9-25 21.2-2.3 2.1-1.6 5-.7 6.5l40.3-24.3z"/>
    <path fill="#000" fill-opacity="0.2" d="M338.5 381.9s-8.3-3.2-12.7-.2c-9.2 6.3-16 14.8-25.2 20.9-2.3 2.1-2.1 4.1-1.5 5.3l40.4-24.4z"/>
    <path d="M341 386.1s-.5 9.5-5.3 12c-10 5.1-20.7 7-30.4 12.2-3 1-5.1-.9-6.1-2.4l40.3-24.3z"/>
    <path fill="#000" fill-opacity="0.2" d="M340.5 385.2s-1 8.9-5.7 11.4c-9.9 5.3-20.5 7.3-30.3 12.5-2.9 1.1-4.6 0-5.4-1.2l40.4-24.4z"/>
    <path d="M331.4 387c-6.3 3.3-28.9 17.7-28.9 17.7-2.5 1.5-3.6 2.9-3.5 3.1.2.2 1.9 0 4.5-1.6 0 0 23.1-13.3 29-17.4 5.9-4 7.3-4.7 6.9-5.3-.3-.7-1.7.2-8 3.5z"/>
    <circle cx="503.6" cy="-97.2" r="4.597" transform="rotate(58.92)"/>
    <rect width="11.15" height="2.286" x="-509.2" y="-95.24" rx="1.194" ry="1.422" transform="scale(-1 1) rotate(-58.915)"/>
    <path fill="#000" stroke="none" d="M222.5 447.6s-.1.1-.1.2a8.38 8.38 0 001.1 5.7 8.38 8.38 0 004.4 3.7h.4l-.3-.1c-1.7-1-2.7-2.5-3.6-4.1-1-1.6-1.8-3.2-1.9-5.2v-.2zm-1.6.8v.3a8.38 8.38 0 001.1 5.7 8.38 8.38 0 004.4 3.7c.2 0 .3.1.4 0l-.3-.1c-1.7-1-2.7-2.5-3.7-4.1-.9-1.6-1.8-3.2-1.9-5.1.1-.2.1-.3 0-.4zm-1.5.9c0 .2-.1.2-.1.4a8.38 8.38 0 001.1 5.6 8.38 8.38 0 004.5 3.7h.3l-.2-.1c-1.8-.9-2.8-2.4-3.7-4-1-1.7-1.9-3.3-1.9-5.3zm-1.5 1c-.1 0-.1.2-.2.3a8.38 8.38 0 001.2 5.6 8.38 8.38 0 004.5 3.7c.1.1.2 0 .3.1l-.2-.2c-1.8-.9-2.8-2.4-3.7-4-1.1-1.6-1.9-3.3-1.9-5.2-.1-.2 0-.2 0-.3zm-1.6.9s0 .2-.1.3a8.38 8.38 0 001.2 5.7 8.38 8.38 0 004.5 3.7c.1 0 .2-.1.3 0l-.3-.1c-1.7-1-2.7-2.5-3.6-4.1-1.1-1.6-1.9-3.2-2-5.2a1.88 1.88 0 01.1-.3zm-1.5.9c0 .1 0 .2-.1.3a8.38 8.38 0 001.2 5.7 8.38 8.38 0 004.5 3.7h.3c-.1 0-.2 0-.4-.1-1.6-1-2.6-2.5-3.7-4.1-.9-1.6-1.8-3.2-1.8-5.2zm-1.5.9c-.1.1-.1.2-.1.4a8.38 8.38 0 001.1 5.6 8.38 8.38 0 004.5 3.6c.1.1.2.1.4.1l-.4-.1c-1.6-.9-2.7-2.4-3.7-4.1-.9-1.6-1.8-3.2-1.8-5.1a1.88 1.88 0 010-.4zm-1.5 1c-.1 0-.1.1-.1.3a8.38 8.38 0 001.1 5.6 8.38 8.38 0 004.5 3.7c.1.1.2 0 .3.1l-.3-.2c-1.7-.9-2.7-2.4-3.7-4.1-1-1.5-1.8-3.2-1.8-5.1 0-.2-.1-.3 0-.3zm-1.5.9c-.1 0-.2.2-.2.3a8.38 8.38 0 001.2 5.7 8.38 8.38 0 004.4 3.6c.2.1.3.1.4.1l-.3-.1c-1.7-1.1-2.7-2.5-3.7-4.2-1-1.5-1.8-3.1-1.8-5.1zm-1.6.9c0 .1-.1.2-.1.3a8.38 8.38 0 001.2 5.7 8.38 8.38 0 004.4 3.6c.2.1.3.1.4.1l-.4-.1c-1.6-1-2.7-2.5-3.6-4.1-1-1.6-1.8-3.2-1.9-5.1v-.4zm-1.6.9c.1.1 0 .2 0 .4a8.38 8.38 0 001.2 5.6 8.38 8.38 0 004.4 3.7h.4l-.4-.1c-1.7-1-2.7-2.5-3.7-4.1-.9-1.6-1.8-3.2-1.8-5.1zm-1.5.9v.4a8.38 8.38 0 001.1 5.6 8.38 8.38 0 004.5 3.7h.2l-.2-.1c-1.7-1-2.7-2.4-3.7-4.1-1-1.6-1.8-3.2-1.8-5.1-.1-.2-.1-.3-.1-.4zm-1.5.9c0 .1-.1.3-.1.4a8.38 8.38 0 001.1 5.6 8.38 8.38 0 004.5 3.7c.1 0 .3 0 .3.1l-.2-.2c-1.7-.9-2.7-2.4-3.7-4.1-1-1.6-1.8-3.2-1.9-5.2v-.3zm-1.5 1s-.1.2-.1.3a8.38 8.38 0 001.1 5.7 8.38 8.38 0 004.5 3.7c.1-.1.3-.1.3 0l-.3-.2c-1.6-.9-2.7-2.4-3.7-4-.9-1.7-1.8-3.2-1.9-5.2zm-1.5.9c-.1.1-.1.2-.2.3a8.38 8.38 0 001.2 5.7 8.38 8.38 0 004.4 3.6c.2.1.3.1.4.1l-.3-.2c-1.7-.9-2.7-2.4-3.7-4-.9-1.7-1.8-3.2-1.9-5.2a1.88 1.88 0 01.1-.3zm-1.6.9c0 .1-.1.2-.1.4a8.38 8.38 0 001.2 5.6 8.38 8.38 0 004.4 3.6c.2.1.3.1.4.2l-.3-.2c-1.7-.9-2.7-2.4-3.7-4.1-.9-1.6-1.8-3.2-1.9-5.2a1.88 1.88 0 010-.3zm-1.5.9c0 .1-.1.2-.1.4a8.38 8.38 0 001.1 5.7 8.38 8.38 0 004.5 3.6c.2 0 .3 0 .3.1 0-.1-.1-.1-.2-.2-1.7-.9-2.7-2.4-3.7-4.1-1-1.6-1.8-3.2-1.9-5.2v-.3zm-1.5 1s-.1.2-.1.3a8.38 8.38 0 001.1 5.7 8.38 8.38 0 004.5 3.6c.1 0 .3 0 .3.1l-.3-.2c-1.6-.9-2.6-2.4-3.7-4-.9-1.7-1.8-3.2-1.8-5.2v-.3zm-1.5.9c-.1.1-.1.2-.2.4a8.38 8.38 0 001.2 5.6 8.38 8.38 0 004.4 3.6c.2.1.3.1.4.1l-.3-.1c-1.7-1-2.7-2.6-3.7-4.1-.9-1.6-1.8-3.2-1.8-5.2z"/>
  </g>
</svg>
