<svg xmlns="http://www.w3.org/2000/svg" fill="#d7374a" stroke="#000" viewBox="50 50 200 200">
  <metadata source="http://wappenwiki.org/images/e/ef/CHA504_Merovingians.svg" license="https://creativecommons.org/licenses/by-nc-sa/3.0"/>
  <g id="frog" stroke-width=".51">
    <g>
      <path stroke-width=".58" stroke-linejoin="round" d="M86.25 85.39a11.96 11.96 0 0 1 2.7-2.17 14.4 14.4 0 0 1-.63-7.59c.16-.94.57-1.88.92-2.76 1-2.6 3.74-4.53 4.85-7.08.23-.5.39-1.03.62-1.54 1.01-2.19 2.99-4.05 5.4-4.05 2.33 0 4.4 1.84 5.4 4.05.24.5.42 1.03.63 1.54 1.1 2.55 3.84 4.49 4.85 7.08.35.9.76 1.82.92 2.76a14.4 14.4 0 0 1-.64 7.6c.16.09 2.44 1.58 2.71 2.16.67.13 2.85 1.28 6.4 1.42.46.03.64-.46.92-.8a28.45 28.45 0 0 0 1.35-2.07c.35-.74.44-1.52.6-2.3.05-.23.1-.46.19-.7.11-.31.32-.64.43-.96l.23-.8c.23-.79.7-1.48 1.1-2.17.2-.3.44-.7.3-1.08 0 0-1.03-.41-1.21-.82-.1-.17-.26-.56-.3-.74-.12-.5-.23-1.01-.2-1.52.04-.73.17-1.29-.5-1.75-.4-.3-.7-.39-.91-.94-.2-.6-.03-1.52.64-1.5.6.03.88.24 1.27.67.64.74 1.24 1.24 1.84.88.8-.14.5-1 .34-1.52l-.2-.7-.23-.68c-.33-.85-.33-1.7-.72-2.49-.18-.4-.6-.78-.62-1.26-.04-.99 1.36-1.33 2.07-.9.44.28.67.9.46 1.38-.3.7-.53 1.04.07 1.73.28.32.64.6.83.99.11.23.16.48.25.73.35 1.1 1.89 1.13 1.61-.23a4.88 4.88 0 0 1 .02-2c.1-.46.28-1.01.12-1.47-.16-.44-.35-.62-.1-1.04a1.08 1.08 0 0 1 .65-.5c.5-.12 1.15.16 1.31.67a1.61 1.61 0 0 1-.23 1.47c-.55.66.1 1.63.26 2.34.16.7-.26 1.84.3 2.35.15.16.4.18.61.14.49-.12.86-.12 1.25-.48.3-.3.55-.7.8-1.02.28-.34.1-.39.2-.8.22-.7 1.57-1.45 1.99-.49.09.21.07.42.04.65-.02.25-.04.5-.16.71a1.15 1.15 0 0 1-.69.62c-.39.14-.37.35-.53.67a11.62 11.62 0 0 1-1.42 2.35c-.21.23-.5.39-.76.6-.23.15-.6.36-.76.6-.12.15-.14.4-.23.61-.25.6-.32 1.27-.6 1.84-.34.76-.99 1.34-1.42 2.05-.46.78-.46 1.84-.63 2.71-.13.83-.13 1.7-.25 2.53-.18 1.52-.34 2.97-1.08 4.35-.32.6-.55 1.2-.94 1.77-.42.62-.83 1.15-.92 1.91-.07.53-.19 1.06-.32 1.56-.17.56-.56.97-.83 1.48-.14.25-.26.53-.49.66l-.36.16c-.62.28-.92.86-1.43 1.27-.23.2-.55.28-.85.41-.35.16-.67.33-1.04.44-2.9.85-5.77-1.17-8.6-.76-.18 1.2.62 2.85.95 4 .96 3.36 1.15 8.05-.42 11.27.71-.69 1.52-1.15 2.35-1.65.57-.35 1.17-.6 1.75-.9.46-.23 2.02-.92 3.33-.74a3.6 3.6 0 0 1 2.2 1.45c.28.4.74 1.43.74 2.35a13.7 13.7 0 0 1-.75 4.07c-.21.74-.49 1.45-.72 2.16a26.8 26.8 0 0 0-1.01 8.24c.58-.5 1.84-3.27 2.19-3.96.3-.57.57-1.2.48-1.84-.05-.37-.2-.74-.14-1.08.05-.23.18-.44.25-.67.07-.23.07-.48.05-.71-.05-.94-.41-1.96-.07-2.88.28-.75.87-1.54 1.8-1.33a1.38 1.38 0 0 1 .94.83c.23.71-.32 1.13-.62 1.7a2.23 2.23 0 0 0-.16 1.45c.06.34.11 1.03.6 1.01.38 0 .48-.37.7-.6.26-.25.58-.43.81-.69.42-.48.58-1.1.76-1.68l.16-.62c.37-.96.97-1.7 1.68-2.41.5-.5 1.66-1.52 1.52-2.32-.07-.44.18-.79.32-1.15.35-.9 1.47-1.02 2.19-.63.09.05.2.14.25.26.18.48.39.9.16 1.42-.2.46-.94.83-1.33 1.13-.42.28-.6.85-.9 1.27-.37.48-.74.96-1.06 1.5-.16.24-.16.52-.28.77s-.34.32-.48.55c-.16.28-.11.49-.16.81-.1.69-.48 1.29-.55 1.98.02-.32.9-.95 1.13-1.15.36-.3.73-.65 1.15-.85.5-.23.66-.42 1.17-.72.34-.2.55-.36.92-.53.39-.16.78-.32 1.03-.69.33-.48.67-.96 1.31-.98h.3c.19.02.4.04.56.16.8.64 1.26 1.33.5 2.27-.41.51-1.08.28-1.65.46a7.36 7.36 0 0 0-2.21 1.2l-.83.64a8.21 8.21 0 0 0-1.15 1.04c-.28.32-1.04 1.13-.67 1.52.32.34 1.15.32 1.59.32.8-.02 2.48-1.45 3.1-.5.23.36.3.82.19 1.23a1.43 1.43 0 0 1-1.08.9c-.53.07-.97-.23-1.52-.02-.23.1-.41.25-.67.25l-.6.02c-.23.05-.34-.09-.43.14-.21.42-.67.62-1 .92a3.68 3.68 0 0 0-.96 1.18c-.14.27-.23.57-.39.85-.18.32-.46.57-.73.8-.23.2-.49.4-.76.5-.28.12-.6.15-.9.21-.5.12-2.37 1.5-2.67 2-.46.79-1.75 2.51-1.88 3.41-.4.6-.6 1.33-.88 2.02-.3.74-.57 1.48-1.01 2.14-.4.62-1.36 1.15-1.84 1.7-.85.9-1.93.67-3.15 1.38-.78.46-1.8-.64-2.1-1.49-.34-.23-.36-.78-.16-1.15.21-.37-.16-.62.07-.99s.07-.78.16-1.2l.67-3.35c.42-2.03.32-5.5.42-5.9l-.9 2.4c-.58 1.52-.83 2.58-1.54 4.03-.44.87-1.01 1.47-1.66 2.2-.23.28-.46.56-.76.72-.46.25-.99.25-1.52.25-.48 0-1.05-.05-1.35-.46-.12-.16-.16-.35-.28-.48a2.6 2.6 0 0 0-1.7-.74c-2.05 0-4.26 2.83-5.75 2.83-1.5.02-3.68-2.83-5.75-2.83-.8 0-1.56.53-1.7.74-.12.16-.16.34-.28.48-.3.4-.85.44-1.36.46-.52 0-1.05 0-1.51-.25a2.76 2.76 0 0 1-.76-.72c-.62-.76-1.22-1.35-1.66-2.2-.71-1.45-.99-2.51-1.54-4.03l-.9-2.4c.07.4 0 3.87.42 5.9l.66 3.35c.1.42-.06.83.17 1.2.2.35-.14.62.06.99.21.37.19.92-.16 1.15-.3.85-1.3 1.93-2.09 1.5-1.24-.72-2.3-.49-3.15-1.39-.5-.52-1.45-1.08-1.84-1.7-.41-.66-.71-1.4-1.01-2.14-.28-.66-.49-1.4-.88-2.02-.16-.9-1.42-2.6-1.88-3.4a8.56 8.56 0 0 0-2.67-2c-.3-.07-.62-.1-.9-.21-.27-.12-.53-.3-.76-.5a3.08 3.08 0 0 1-.73-.81c-.16-.28-.26-.58-.4-.85a3.94 3.94 0 0 0-.96-1.18c-.34-.3-.8-.5-.99-.92-.11-.23-.2-.09-.44-.14-.2-.04-.39-.02-.6-.02-.25-.02-.43-.18-.66-.25-.55-.2-.99.1-1.52.02a1.44 1.44 0 0 1-1.08-.9 1.4 1.4 0 0 1 .18-1.24c.63-.94 2.3.5 3.1.5.45 0 1.27.05 1.6-.31.39-.42-.4-1.22-.67-1.52a8.21 8.21 0 0 0-1.15-1.04l-.83-.64a7.36 7.36 0 0 0-2.2-1.2c-.58-.18-1.25.05-1.66-.46-.76-.94-.3-1.6.5-2.27a.92.92 0 0 1 .56-.16h.3c.64.04.98.5 1.3.98.26.37.63.53 1.04.7.37.13.57.32.92.52.48.28.64.46 1.17.72.44.18.8.53 1.15.85.26.2 1.1.83 1.13 1.15-.07-.7-.46-1.29-.55-1.98-.05-.32.02-.53-.16-.8-.14-.21-.37-.3-.49-.56-.11-.25-.11-.53-.27-.78a22 22 0 0 0-1.06-1.5c-.3-.4-.48-.98-.9-1.26-.41-.28-1.12-.64-1.33-1.13-.23-.53-.02-.94.16-1.42a.46.46 0 0 1 .25-.26c.74-.39 1.84-.27 2.19.63.14.36.39.7.32 1.15-.12.8 1.03 1.81 1.52 2.32a7.03 7.03 0 0 1 1.68 2.41l.16.62c.18.6.34 1.22.76 1.68.23.28.55.44.8.7.23.25.32.6.71.6.49 0 .53-.7.6-1.02.1-.48.07-1.01-.16-1.45-.3-.57-.85-.99-.62-1.7a1.31 1.31 0 0 1 .94-.83c.92-.2 1.52.58 1.8 1.33.34.9-.03 1.91-.07 2.88a1.84 1.84 0 0 0 .04.71c.07.23.21.44.26.67.07.37-.1.71-.14 1.08-.1.64.18 1.27.48 1.84.37.67 1.64 3.43 2.19 3.96.09-2.46-.26-5.87-1.01-8.24-.23-.73-.51-1.45-.72-2.16-.36-1.31-.78-2.69-.76-4.07 0-.92.44-1.96.74-2.35a3.7 3.7 0 0 1 2.2-1.45c1.32-.2 2.88.51 3.34.74.58.28 1.18.53 1.75.9.85.5 1.63.99 2.35 1.65-1.57-3.22-1.38-7.9-.42-11.27.33-1.12 1.13-2.8.95-4-2.83-.41-5.7 1.61-8.6.76-.37-.11-.7-.28-1.04-.44-.3-.13-.6-.2-.85-.41-.48-.44-.78-1.01-1.43-1.27l-.37-.16c-.23-.16-.34-.43-.48-.66-.27-.5-.67-.9-.83-1.48-.13-.52-.25-1.03-.32-1.56-.1-.76-.5-1.29-.92-1.9-.39-.58-.62-1.18-.94-1.78-.74-1.36-.9-2.83-1.08-4.35-.12-.82-.12-1.7-.26-2.53-.16-.87-.16-1.95-.62-2.71-.41-.71-1.05-1.29-1.42-2.05-.28-.57-.35-1.24-.6-1.84-.1-.2-.12-.43-.23-.62-.16-.23-.55-.41-.76-.6-.25-.18-.55-.34-.76-.6-.57-.66-1.01-1.56-1.43-2.34-.16-.3-.13-.53-.52-.67a1.15 1.15 0 0 1-.7-.62c-.1-.23-.13-.48-.16-.71-.02-.2-.02-.44.05-.65.41-.94 1.77-.18 1.98.49.14.41-.07.46.2.8.26.33.53.72.81 1.02.4.39.76.36 1.24.48.21.04.46.02.62-.14.56-.53.16-1.66.3-2.35.16-.69.78-1.68.26-2.34a1.54 1.54 0 0 1-.23-1.47c.18-.51.8-.79 1.3-.67.3.07.51.25.65.5.25.42.07.6-.1 1.04-.15.46.03 1.01.12 1.47.12.71.16 1.31.03 2-.28 1.36 1.26 1.34 1.6.23.08-.25.14-.5.26-.73.18-.4.55-.67.83-1 .6-.66.37-1 .07-1.72a1.15 1.15 0 0 1 .46-1.38c.71-.43 2.11-.09 2.07.9-.03.48-.42.85-.62 1.26-.37.79-.4 1.66-.72 2.49l-.23.69-.2.69c-.17.53-.46 1.38.34 1.52.58.36 1.2-.12 1.84-.88.4-.43.67-.64 1.27-.66.66-.03.85.9.64 1.5-.18.54-.48.63-.92.93-.67.46-.55 1.02-.48 1.75.04.5-.1 1.01-.21 1.52-.05.18-.23.55-.3.74-.18.39-1.22.82-1.22.82-.14.37.12.79.3 1.08.41.7.87 1.38 1.1 2.17a10.58 10.58 0 0 0 .23.8c.12.32.33.65.44.97.1.23.14.46.19.69.18.78.25 1.56.6 2.3.1.25.27.48.4.71l.95 1.36c.25.34.44.83.92.8 3.77-.13 5.96-1.28 6.62-1.42z"/>
      <g stroke="none" fill="#000">
        <path d="M104 132.68c-.04.36-.53.5-.83.46-.32-.03-.46-.07-.78.04 0-.37.5-.55.8-.5.3.02.49.09.81 0zm-.16-.67c-.41.23-.94.34-1.36.02.4-.3 1-.39 1.36-.02zm1.63-7.3c.21.35-.13.79-.36 1-.26.23-.4.41-.58.7-.18-.34 0-.8.28-1.05.23-.25.48-.3.66-.64zm-.16 2.08c-.07.3-.02.53-.18.8-.14.26-.4.49-.71.49.13-.42.27-.7.5-1.04.1-.11.23-.25.4-.25zm-.55 2.46c-.16.09-.23.23-.34.37-.37.41-1.15.6-1.57.13.5-.07.9-.23 1.34-.43.16-.07.39-.19.57-.07zm-.12.92c-.3.62-1.2.85-1.77.46a5.75 5.75 0 0 1 1.77-.46zm-4.16 4.3c.32-.3.48-.65.94-.74.17-.02.37.05.44.21-.32.02-.34.18-.55.34-.23.17-.55.35-.83.19zm5.75-4.65a.4.4 0 0 0-.25.26c-.07.23-.28.6-.53.7a.84.84 0 0 1-.48.12l.23-.36c.16-.23.25-.46.48-.67.16-.14.44-.2.55-.05zm-.11 1.36c.2.62-.65 1.22-1.22 1.1.3-.5.78-.7 1.22-1.1zm7.59-20.17c-1.48 1.42-3.48 2.28-4.56 4.05-.53 1.17-1.56 2.07-2.07 3.24-.25.71-.3 1.5-.43 2.25 0 .07-.12.05-.12-.02l.16-1.54c.14-1.61 1.57-2.7 2.12-4.12.23-.48.6-.9.94-1.28.65-.67 1.66-1.43 2.4-2 .4-.33.8-.65 1.14-1 .3-.25.7.14.42.42zm.09 5.33c-.35-.25-.37-.78-.23-1.15.14-.4.34-.69.39-1.03.05-.23.41-.18.37.07-.02.18-.1.32-.19.46l-.3.37c.03-.33.12-.6.07-.85l.4.02c.02.78-.72 1.33-.51 2.11zm1.8-4c.22.19.22.53.04.76s-.37.26-.67.28c-.04-.48.35-.76.62-1.04zm6.27 18.52a4.4 4.4 0 0 1-1.45 3.08 10.5 10.5 0 0 1 1.45-3.08zm-1.98 4.5a2.84 2.84 0 0 1-1.79 2.24c.5-.83 1.08-1.57 1.8-2.23zm8.03-59.33c-.55.36-1.26.46-1.9.34-.3-.07-.95-.16-.79-.6.07-.13.25-.2.4-.13.7.39 1.46.3 2.25.27.06 0 .09.1.04.12zm-6.95 10.85c-.48.49-.48 1.15-.55 1.77a2.2 2.2 0 0 1-.76 1.06c-.04.05-.11 0-.09-.07.14-.39.4-.69.44-1.08 0-.41-.07-.85.1-1.26.08-.3.45-1.18.86-.83.12.09.12.3 0 .41zM127 75.31c-.94.4-2.44-.6-1.95-1.65.25.9 1.15 1.3 1.95 1.65zm-3.31 18.31-.3.07-.02.02c.02 0 .02-.02.02 0-.07.1-.14.3-.25.33l-.16.04c-.03-.07 0-.14 0-.18l-.03-.1v-.16c.05-.41.6-.46.74-.02zm-4.07.32c.57.44 1.15.79 1.86.85.25.03.5-.02.76.03-.87.92-2.48.36-2.62-.88zm-6.93-1.03c.21.16.28.41.33.64.13.62.09 1.31.23 1.93a.29.29 0 0 1-.19.4c-.71.2-.32-1.87-.39-2.28 0-.23 0-.44-.07-.62-.02-.07.05-.12.1-.07zm2.58 32.61c.58-2 .92-4.1 1.63-6.07-.53 2.05-.66 4.12-1.08 6.21-.07.4-.66.25-.55-.14zm6.4.42c-1.3 1.95-2.63 3.9-3.57 6.05.18-.56.41-1.1.64-1.64a60.9 60.9 0 0 1 2.44-4.71c.2-.35.72-.05.49.3zm-25.44 6.74c.32.09.48.02.8 0 .3-.05.8.13.8.5-.31-.11-.48-.04-.77-.04-.3.04-.79-.1-.83-.46zm.16-.67c.37-.4.96-.28 1.36.02-.42.32-.95.23-1.36-.02zm-1.64-7.3c.19.33.42.4.7.65.27.25.43.71.27 1.06a2.99 2.99 0 0 0-.57-.71c-.26-.21-.6-.65-.4-1zm.17 2.08c.16 0 .3.13.39.25.23.34.36.62.5 1.03a.9.9 0 0 1-.71-.48c-.16-.27-.11-.5-.18-.8zm.55 2.46c.16-.1.41 0 .55.07.46.2.83.36 1.33.43-.41.46-1.17.28-1.56-.13-.1-.14-.14-.28-.32-.37zm.11.92c.65.07 1.2.2 1.77.46-.57.39-1.47.16-1.77-.46zm4.17 4.3c-.28.14-.63-.02-.83-.19-.23-.16-.26-.3-.55-.34a.37.37 0 0 1 .43-.2c.46.08.62.43.95.73zM94 129.82c.11-.16.39-.09.52.03.23.23.33.43.49.66l.23.37a.69.69 0 0 1-.48-.11c-.26-.12-.47-.49-.53-.72-.03-.09-.1-.18-.23-.23zm.11 1.36c.44.4.9.6 1.22 1.1-.57.12-1.4-.46-1.22-1.1zm-7.2-20.59c1.45 1.4 3.52 2.44 4.49 4.28.46 1.18 1.51 2.1 1.95 3.34.23.73.23 1.54.32 2.32 0 .07-.09.1-.11.02-.16-.76-.18-1.51-.44-2.25-.3-.71-.78-1.29-1.24-1.9-.57-.7-.83-1.6-1.5-2.22-1.17-1.2-2.64-2-3.88-3.15-.25-.27.14-.71.41-.44zm-.48 5.75c.2-.78-.55-1.33-.55-2.09l.39-.02c-.1.3.32 1.33-.2.48a1.6 1.6 0 0 1-.2-.46c-.02-.23.33-.3.38-.07.06.33.27.62.39 1.04.16.34.13.87-.21 1.13zm-1.8-4c.28.28.67.56.6 1.04-.3-.02-.46-.05-.66-.28-.16-.23-.19-.57.07-.76zm-6.25 18.52c.67.94 1.1 2 1.45 3.08a4.4 4.4 0 0 1-1.45-3.08zm1.98 4.5c.71.67 1.28 1.4 1.8 2.24a2.85 2.85 0 0 1-1.8-2.23zm11.52-61.52-.16-.74c-.16-.69.18-1.67.8-2.04.51-.3 1.15-.5 1.75-.53-.32-.05-.57.25-.85.46a4.12 4.12 0 0 0-1.54 2.85zm-19.53 2.07c.8.05 1.54.12 2.28-.27.34-.17.6.34.25.5a2.76 2.76 0 0 1-2.55-.14c-.07 0-.05-.09.02-.09zm7.32 10.58c.55.55.6 1.36.55 2.1.07.38.32.68.44 1.07 0 .03 0 .07-.05.07l-.07-.02c-.2-.18-.39-.39-.55-.64a1.66 1.66 0 0 1-.23-.88 2 2 0 0 0-.5-1.33c-.26-.28.15-.64.4-.37zm-6.44-11.18c.82-.34 1.7-.73 1.95-1.65.48 1.03-1.01 2.04-1.95 1.65zm3.3 18.31c.12-.46.7-.41.77.05v.16l-.02.09c0 .05.02.12 0 .18l-.17-.04c-.11-.03-.2-.23-.25-.32 0-.03 0 0 .02 0l-.02-.03-.32-.09zm4.08.32c-.14 1.25-1.75 1.8-2.62.88.25-.07.5 0 .76-.03.71-.04 1.26-.41 1.86-.85zm7.02-.96c-.12.62-.03 1.28-.03 1.93-.02.3.07 1.03-.43.94-.14-.04-.23-.2-.19-.34.14-.62.12-1.31.23-1.96.05-.23.12-.48.32-.64.07-.05.12.02.1.07zm-3.22 32.68c-.42-2.07-.56-4.16-1.09-6.21.72 1.98 1.06 4.07 1.64 6.07.11.4-.49.53-.56.14zm-5.36-.05c1.12 2.07 2.3 4.14 3.08 6.38-.46-1.09-1.06-2.1-1.66-3.11-.62-1.01-1.24-2-1.9-2.97-.21-.32.27-.62.48-.3z"/>
      </g>
    </g>
    <g stroke="none" fill="#000">
      <path d="m99.01 123.8 1.1-.03c.35 0 .74-.02 1.1.03-.47.76-1.72.76-2.2 0zm-.44-4.26c1.06.12 2 .12 3.06 0-.73.9-2.3.9-3.06 0zm-.2-4.83a4.42 4.42 0 0 0 3.5 0c-.77 1.27-2.75 1.24-3.5 0zm0-4.6a4.42 4.42 0 0 0 3.5 0c-.77 1.27-2.75 1.24-3.5 0zm.02-4.6c.85.28 1.65.5 2.55.25l.9-.25a2.07 2.07 0 0 1-3.45 0zm0-4.53c.85.28 1.65.5 2.55.25l.9-.25c-.76 1.27-2.7 1.24-3.45 0zm0-4.5c.85.27 1.65.5 2.55.25l.9-.26a2.07 2.07 0 0 1-3.45 0zm0-4.3c.48.04 1.24.13 1.72.13.49 0 1.22-.1 1.73-.14a2.46 2.46 0 0 1-3.45 0zm0-4.54c.48.05 1.24.14 1.72.14.49 0 1.22-.1 1.73-.14a2.46 2.46 0 0 1-3.45 0zm.16-4.5c1.08.1 2.05.1 3.15 0-.78.91-2.4.91-3.15 0zm0-4.12c1.08.11 2.05.11 3.15 0-.78.9-2.4.9-3.15 0zM96.89 64.5c.33.14.53-.16.67-.41.12-.2.32-.55.3-.76l-.02-.02c0-.03.02.02.04 0h.03l-.14.04c-.32.23-.67.49-.94.76 0-.18.09-.34.16-.5.2-.44.8-1.2 1.28-.67.4.5-.04 1.1-.39 1.45-.2.25-.76.5-.99.11z"/>
    </g>
    <path fill="#F6F6F6" stroke-linejoin="round" d="M93.05 76.33c1.18.66 2.58.32 3.4-.23 2.3-1.55 2.21-6.58-.48-7-1.88-.27-3.08.85-3.77 1.87-.9 1.26-1.15 3.88.85 5.35z"/>
    <path stroke-linejoin="round" d="M95.95 69.08c2.71.41 2.78 5.45.48 7-.82.54-2.23.89-3.4.22-.07-1.42.41-3.45 1.31-4.53.6-.69 1.61-1.82 1.61-2.69z"/>
    <g stroke="none" fill="#000">
      <path d="M92.57 79.43c-.14.62-.46 1.15-.2 1.75.2.64.36 1.29.36 1.98a6.09 6.09 0 0 1-.9-1.82c-.04-.16-.11-.37-.09-.58.02-.55.4-1 .83-1.33zm4.78-13.16c.4.58.03 1.4-.6 1.66-.06-.64.21-1.15.6-1.66zm-4.83 6.97v-.41l.03-.42c.02-.23.02-.46.11-.69.19-.4.35-.82.7-1.12.13-.14.8-.55.91-.23.1.23-.25.48-.39.62-.39.41-.69.92-.9 1.45-.09.3-.2.62-.46.8zm10.8-8.74c-.24.4-.8.14-1.02-.11-.35-.35-.76-.94-.4-1.45.5-.53 1.11.23 1.3.67.06.13.18.32.16.5a9.73 9.73 0 0 0-.95-.76c-.04-.04-.11-.04-.13-.04h.02c.02 0 .04-.03.04 0l-.02.02c-.02.2.19.55.3.76.16.25.37.55.7.41z"/>
    </g>
    <path fill="#F6F6F6" stroke-linejoin="round" d="M107.15 76.33c-1.17.66-2.57.32-3.4-.23-2.3-1.55-2.21-6.58.48-7 1.89-.27 3.08.85 3.77 1.87.9 1.26 1.15 3.88-.85 5.35z"/>
    <path stroke-linejoin="round" d="M104.25 69.08c-2.71.41-2.78 5.45-.48 7 .83.54 2.23.89 3.4.22.07-1.42-.4-3.45-1.3-4.53-.6-.69-1.62-1.82-1.62-2.69z"/>
    <g stroke="none" fill="#000">
      <path d="M107.64 79.43a2 2 0 0 1 .85 1.36 2 2 0 0 1-.1.57 6.7 6.7 0 0 1-.9 1.82c0-.7.17-1.34.38-1.98.22-.62-.07-1.15-.24-1.77zm-4.79-13.16c.4.51.67 1.02.6 1.66-.62-.25-.99-1.06-.6-1.66zm4.83 6.97v-.41l-.02-.42c-.02-.23-.02-.46-.12-.69-.18-.4-.34-.82-.69-1.12-.13-.14-.8-.55-.92-.23-.09.23.26.48.4.62.39.41.68.92.9 1.45.1.3.2.62.45.8z"/>
    </g>
  </g>
</svg>
