<svg xmlns="http://www.w3.org/2000/svg" fill="#d7374a" stroke="#000" viewBox="50 50 200 200">
  <metadata source="http://wappenwiki.org/images/b/b4/Gustav_Johansson_%28Tre_Rosor%29.svg" license="https://creativecommons.org/licenses/by-nc-sa/3.0"/>
  <g id="rhinoceros" stroke-width=".56">
    <g>
      <path class="secondary" d="M86.05 125.96c-.2-.29-.61-.04-1.29.5-.29.22-.54.45-.99.52-.54.06-1.1.04-1.64-.07-.72-.16-1.8-.36-1.8-1.28 0-1.06.54-1.87 1.06-2.84 1.21.11 2.5-.18 3.62-.67.72-.32 1.46-.75 2.25-.61a2.7 2.7 0 0 1 1.33.79c.52.49 1.03 1.1 1.08 1.82.07 1.08-.86 1.93-1.28 2.92m7.53 4.17c-.25-.25-.6.04-1.19.7-.25.26-.45.53-.9.67a4.95 4.95 0 0 1-1.62.2c-.74-.04-1.84-.07-1.98-.94-.18-1.04.22-1.94.56-2.97a11.47 11.47 0 0 0 5.74-1.65c.34-.24.72-.54 1.12-.42a.9.9 0 0 1 .45.31 2.25 2.25 0 0 1 .48 1.69 3.7 3.7 0 0 1-.66 1.66"/>
      <path class="secondary" d="M90.43 126.84a4.25 4.25 0 0 1-4.3.6l-.24-.15c-.1-.14-.07-.3-.05-.45l.2-.88c.1-.27.18-.51.39-.72.13-.13.56-.45 1.05-.65.57-.23 1.02-.4 1.6-.52.18-.02.36-.04.54 0 .2.05.38.2.52.34.27.25.52.5.74.79"/>
      <path d="m81.86 104.39 1.22 2.45c.4.83 1.98 3.01 3.06 1.35.22-.36.13-.81.22-1.24.56 2.14-.99 2.97-.09 9.11.25 1.62.27 3.6-1.69 4.28-.65.22-1.44.09-2.02.47-.54.34-.72 1.22-1.13 1.96 0 .8 1.15 1.28 1.64 1.4.52.13 1.33.33 1.8.22.39-.12.75-.18 1.1-.39.23-.13.48-.27.75-.31.27-.04.56-.02.77.16s.24.52.06.72c1.44.16 1.91.52 2.36 1.1.3.36.5.77.57 1.15.58-.05 1.03-.36 1.5-.88.25-.27.41-.77.48-1.13.06-.38.09-.63-.07-.99-.3-.71-.92-1.46-.56-2.74.58-2.3 1.68-3.08 2.56-4.54.97-1.67 1.08-3.65 1.42-5.54a21.76 21.76 0 0 1 1.66-5.96"/>
      <g stroke="none" fill="#000">
        <path d="M90.3 114.58c-.68-1.17.43-2.41 1.06-3.31.22-.32.4-.63.51-1.01.11.4.02.85-.13 1.23-.43 1.08-1.44 1.85-1.44 3.09zm-6.69 7.47c.03-.5.59-.83 1.04-.65a1.3 1.3 0 0 1-1.04.65zm2.19-1.28c0-.25.29-.34.47-.45.14-.07.2-.16.34-.3l.29-.29c.09.31.02.65-.25.85-.29.27-.54.12-.85.18z"/>
      </g>
      <path class="secondary" d="M115.27 126.08c-.47-.32-.97-.18-1.64.36-.3.22-.54.45-.99.51-.54.07-1.1.05-1.64-.07-.72-.15-1.8-.35-1.8-1.28 0-1.05.43-1.57.92-2.54 1.75-.52 3.56-1.3 5.33-1.69.45-.09.95-.18 1.3.07.26.16.41.4.53.68.51 1.12.58 2.45.18 3.62"/>
      <path class="secondary" d="M116.35 124.59c-.5.2-.92.52-1.05.65a1.57 1.57 0 0 0-.39.72l-.2.88c-.02.16-.04.34.05.45l.24.16a4.28 4.28 0 0 0 4.3-.61c.11-.81.25-1.67.23-2.48 0-.44-.05-.92-.3-1.28"/>
      <path stroke-linejoin="round" d="M134.44 81.25c1.55 3.5.63 7.72 2.23 11.19.68 1.46 1.75 2.7 2.4 4.16 1.4 3.15.73 5.83.19 9.2v1.08c.07.63.34 1.24.4 1.87a.5.5 0 0 1-.04.36c-.07.11-.2.18-.32.11l-.11-.13-.58-1.04c.04.88.06 1.85-.5 2.52 0-.79-.23-.92-.25-1.73-.2.45-.76.88-1.21 1.06.2-.4.92-1.67.83-2.37-.43.3-.9.41-1.3.72 0-.31.17-.6.4-.85.2-.25.47-.45.65-.7.3-.4.68-1.21.81-1.69.45-1.95.7-3.55.32-5.53-.3-1.53-1.04-2.68-1.78-4.03"/>
      <path d="M73.2 85.71c-1.28.09-2.03 1.24-4.5.14-.9-.41-1.94-1.85-2.45-2.68a8.6 8.6 0 0 0-1.58-1.91 7.88 7.88 0 0 1 4.82-.7c2.2.34 3.28 2.11 4.36 3.55"/>
      <path class="secondary" d="M100.38 131.32a4.2 4.2 0 0 1-4.12 1.33c-.09-.03-.2-.05-.27-.12-.11-.11-.14-.27-.14-.43 0-.29.03-.6.07-.9.05-.27.1-.54.25-.76.11-.16.47-.54.92-.83.52-.32.95-.66 1.55-.7s1.29.18 1.56.74m29.81 1.67c-.25-.25-1.06-.07-1.62.58-.25.27-.45.54-.9.68a4.95 4.95 0 0 1-1.62.2c-.74-.04-1.85-.07-1.98-.94-.18-1.04.22-1.94.56-2.97 2.18-.39 4.16-1.53 6.26-2.28.22-.06.45-.15.67-.11.2.05.38.18.56.32.54.45 1.04.94 1.49 1.48"/>
      <path class="secondary" d="M132.08 128.64c-.45.3-1.13.88-1.3.97a2.1 2.1 0 0 0-1.2 1.6 5.85 5.85 0 0 0-.07.9c0 .15.03.33.14.42.07.07.18.1.27.11a4.2 4.2 0 0 0 4.12-1.32"/>
      <path d="M112.44 105.47c-.61 1.19-.14 3.21.6 4.25.43.58 1 1.06 1.44 1.64 1.04 1.33.45 3.38.63 4.95.18 1.62.27 3.38-1.68 4.05-.66.23-1.44.09-2.03.47-.54.34-.85 1.51-1.24 2.25 0 .68.95 1.01 1.44 1.13a7.65 7.65 0 0 0 2.12.2c.4-.07.74-.18 1.1-.38.23-.14.47-.27.74-.32.27-.04.57-.02.77.16.2.18.25.52.07.72 1.44.16 1.91.52 2.36 1.1.3.36.5.77.56 1.15.59-.04 1.04-.36 1.51-.88.25-.27.4-.76.47-1.12.07-.38.1-.63-.07-1-.29-.71-.92-1.45-.56-2.74.59-2.3 1.69-3.08 2.57-4.54.96-1.67 1.08-3.65 1.41-5.54a21.76 21.76 0 0 1 1.67-5.96"/>
      <g stroke="none" fill="#000">
        <path d="M120.31 111.92a6.53 6.53 0 0 0 2.88-2.63c.1 1.46-1.42 2.86-2.88 2.63zm-7.83 10.13c.02-.5.59-.83 1.04-.65a1.3 1.3 0 0 1-1.04.65zm2.19-1.28c0-.25.29-.34.47-.45.13-.07.2-.16.34-.3l.29-.29c.09.31.02.65-.25.85-.3.27-.54.12-.85.18z"/>
      </g>
      <path d="M90.45 106.19c1.08 3.12.14 7 2.03 11.09.27.58.65 1.12.88 1.73a16.43 16.43 0 0 1 .94 3.42c.23 2.56-.18 3.13-.83 3.49-.6.34-1.4.34-1.91.8-.47.44-.5 1.25-.77 2.12.14.81 1.33 1.06 1.87 1.1.52.05 1.37.12 1.8-.09.36-.15.7-.31 1.01-.56.2-.18.43-.34.68-.45s.54-.11.76.05c.23.13.34.47.18.7 1.44-.1 1.98.2 2.52.67.34.32.61.68.75 1.03.56-.13.94-.54 1.32-1.12.2-.32.27-.83.27-1.2 0-.38-.02-.65-.22-.96-.43-.65-1.15-1.28-1.04-2.61.2-2.36.52-4.68 1-6.35.51-1.84.33-4.7.17-6.61a22.95 22.95 0 0 1 .1-6.21 5.14 5.14 0 0 0 3.37 1.22c1.75.06 2.25-.12 3.94-.59.63-.18 1.28-.34 1.9-.56 1.36-.52 3.09-1.35 5.1-.68 2.83 1.38 3.95 1.08 5.17 1.17.72 1.92.79 4.05 2.52 5.45.47.38.9 1.5 1.44 3.44.47 6.46 4.25 5.94 2.2 9.72-.54 1.01-1.84.83-2.36 1.3-.47.43-.58 1.54-.76 2.12.13.81.87.86 1.39.99.56.14 2 .25 2.43.07.36-.16.54-.34.85-.61.2-.18.43-.34.68-.45s.54-.11.77.05c.22.13.33.47.18.7 1.44-.1 1.98.2 2.52.67.33.31.6.67.74 1.03.56-.13.94-.54 1.33-1.12.2-.32.27-.83.27-1.2 0-.38-.03-.65-.23-.96-.43-.65-1.15-1.28-1.03-2.61.2-2.36.76-3.78 1.21-5.45.52-1.84.11-5.6-.04-7.51-.18-2.14-.27-3.08-.07-4.64.2-1.3.67-2.54 1.12-3.8 1.51-4.27 2.5-7.06 1.29-11.43-.45-1.6-1.17-3.08-1.53-4.7-.41-1.8.06-3.47-.07-5.27a7.45 7.45 0 0 0-4.75-6.41c-1.55-.7-3.22-1.17-4.68-2.02-2.1-1.24-3.15-3.2-4.81-4.82a7.79 7.79 0 0 0-5.45-1.96c-.47.03-2.14.61-3.55 1.3-2.25 1.2-8.4 1.45-11.37 1.45-3.37 0-6.39-1.28-7.65-1.24a7.42 7.42 0 0 0-3.96 1.67c-1.21.9-2.36 1.95-3.71 2.63-2.18 1.08-2.45.7-4.57 1.8a8.26 8.26 0 0 0-1.53 1.1c-1.75 1.49-3.15 3.38-5.42 4.14l-4.61 2.32a11.16 11.16 0 0 0-2.2 6.61c.06 1.74.49 3.54-.07 5.18-.39 1.08-1.15 2-1.51 3.1-.4 1.2-.43 2.8-.52 3.56l-2.27 5.56c-.1.76-.16 1.6.25 2.25l.51.7c.43.74.16 1.68.4 2.49a3.15 3.15 0 0 0 1.38 1.8c.88.47.88.88 2.27 1.15.4.2 1.29-.2 2.2-1.73 1.72.38 2.08-.59 2.21-.88.86-1.33 1.8-1.58 2.82-2.27a9.98 9.98 0 0 0 2.76-3.29c1.24-1.78 2.48-2 3.42-2.38"/>
      <path d="M81.86 104.4c.74-.29 1.28-.69 1.46-2.02"/>
      <g stroke="none" fill="#000">
        <path d="M92.86 127.76a.77.77 0 0 1 .92-.8c-.18.4-.49.67-.92.8zm1.94-1.62c-.05-.25.22-.38.38-.52.11-.09.18-.18.27-.33.07-.12.13-.23.25-.34.15.3.13.63-.1.9-.24.25-.51.16-.8.3zm.45-7.17c.72.49 1.62 1.17.92 2.09-.14-.3-.14-.54-.3-.77-.3-.38-.65-.8-.62-1.33z"/>
      </g>
      <path fill="none" d="M87.69 102.36c.16.27.38.52.54.81.27.47.07 2.27 2.23 3.04"/>
      <g stroke="none" fill="#000">
        <path d="M87.28 103.71c.18.56.3 1.22-.02 1.78-.23.52-.6.99-.68 1.53l-.56-.11c.23-.93 1.17-1.4 1.29-2.32.04-.3 0-.59-.03-.88z"/>
      </g>
      <path fill="none" d="M84.38 94.5a12.15 12.15 0 0 0 3.3 7.86"/>
      <g stroke="none" fill="#000">
        <path d="M82.36 96.8a6.5 6.5 0 0 1 1.73 1.69c.38.63.27 1.42.09 2.1-.18.62-.56 1.16-.54 1.8h-.56c0-.9.54-1.52.7-2.33.44-1.53-.75-2.09-1.42-3.26zm20.8.45c.6.3.55 1.26-.08 1.49-.11-.54-.1-.97.09-1.49zm.48-2.36c.79.23.88 1.53.14 1.87l-.03-.52-.11-1.35zm.22-1.5a3.06 3.06 0 0 1-.7-1.67c.61.29.9 1.03.7 1.66zm-.56 7.58c.25.45.25 1-.04 1.46-.14.2-.39.31-.5.5-.18.35-.04.83-.07 1.28-.04.7-.45 1.39-.45 2.04h-.56c0-.78.38-1.4.5-2.09l.02-.7c.02-.24.04-.54.22-.78.16-.23.41-.3.54-.45a2.02 2.02 0 0 0 .34-1.26zm23.2 26.8a.77.77 0 0 1 .92-.82 1.35 1.35 0 0 1-.92.81zm1.96-1.63c-.05-.25.22-.38.38-.52.11-.09.18-.18.27-.33.07-.12.14-.23.25-.34.16.3.13.63-.1.9-.24.25-.51.16-.8.3z"/>
      </g>
      <path d="M120.13 103.33c-.04.85.18 1.73.65 2.45.23.34.5.68.66 1.06"/>
      <g stroke="none" fill="#000">
        <path d="M126.64 95.34c.65-.2 1.3-.32 1.82-.7.36-.27.63-.9 1.21-.85.3.02.52.11.72.18.4.13.84.16 1.3.11a2 2 0 0 1-1.39.32l-.63-.1c-.18.03-.24.1-.36.25-.58.86-1.75 1-2.68.79zm6.14.05c.63.02 1.3.24 1.64.85.34.59.16 1.13.43 1.71a.8.8 0 0 1-.38-.3c-.27-.33-.36-.83-.54-1.14-.25-.47-.75-.74-1.15-1.13z"/>
      </g>
      <g>
        <g stroke="none" fill="#000">
          <path d="M119.86 103.33c.16-1.98-.2-3.94.02-5.9.2-1.98.8-3.87 1.15-5.8.11 1.98-.58 3.89-.67 5.85-.16 1.98.24 3.91.06 5.9l-.56-.05zm1.49-15.35c-.07-.9.25-1.78.4-2.6.16-.84.16-1.7.11-2.55a17.2 17.2 0 0 1 .23-5.26l.11 2.63c.1 1.3.3 2.63.2 3.96-.04 1.32-.78 2.52-1.05 3.82zm-8.08 12.33c-.68-.07-1.22.34-1.64.79a.68.68 0 0 1-.23.2c-.18.14-.47.02-.63 0a.7.7 0 0 0-.51.14c-.16.11-.23.25-.43.34-.23.09-.45.02-.63 0-.14-.03-.14 0-.25.06-.16.14-.47.45-.76.45l-.3-.02c-.58-.11-1.12.34-1.64.77.34-.59.9-1.24 1.64-1.22.18 0 .3-.02.36-.07.1-.04.18-.18.34-.31.14-.16.47-.27.68-.2.2.02.33.04.36.02.09-.05.2-.2.33-.27a1.24 1.24 0 0 1 1.2-.09l.06.02c.5-.5 1.33-.97 2.05-.6zm1.28-.34c.23.14.45 0 .61-.13.81-.83 1.46-.45 2.36-.02-.45.22-1.06 0-1.48.11-.16.02-.36.18-.66.31-.29.12-.76.07-.83-.27zm-24.03 5.95.92.24c.61.14 1.15-.15 1.74-.36.78-.27 1.6-.51 2.43-.56.85.02 1.62.5 2.32.88-.97-.14-1.8-.7-2.77-.43-.63.14-1.22.36-1.82.59-.61.24-1.33.6-2.03.42-.36-.07-.65-.18-.95-.25l.16-.54zm1.92-24.3c-.95.44-1.96.78-2.82 1.34-.38.3-.58.81-.85 1.22-.3.45-.59.9-.95 1.33.16-.52.34-1.04.57-1.53.22-.52.45-1.08.9-1.44a6.04 6.04 0 0 1 3.15-.93zm-5.09 5.2c-.38.96-.09 1.84-.07 2.83-.8-.72-1.03-2.32.07-2.84z"/>
        </g>
        <path d="M71.98 84.97c-.45-.27-.9-.7-1.42-1.42-.56-.81-.7-2.59-.67-3.56 0-.83-.11-1.66-.34-2.45 1.64.11 3.2.86 4.46 1.94a4.37 4.37 0 0 1 1.28 1.84"/>
        <g stroke="none" fill="#000">
          <path d="M75.56 81.23c.34 1.17.3 2.39.32 3.58-.2-1.13-.34-2.34-.84-3.38l.52-.2zm-1.08 4.57c-.85-.32-1.8-.14-2.65-.58l.29-.48c.65.54 1.64.59 2.36 1.06zm-3.22-6.19a4.54 4.54 0 0 1 3.56 4 8.66 8.66 0 0 0-3.56-4zM71.17 81a4.05 4.05 0 0 0 3.33 3.57c-1.93.36-3.82-1.66-3.33-3.58zm7.74 21.12c.56-.92.45-1.91.74-2.92.1-.27.18-.52.34-.74.05-.07.1-.1.16-.1.04 0 .11 0 .11.05l-.02.04c0-.09-.13.05-.11.07-.11 1.24.11 2.97-1.22 3.6zm-4.72.97c.27-.43.8-.72.99-1.15.06-.2.09-.45.13-.72.05-.27.1-.58.3-.8-.03.29.02.53.06.8.18 1.13-.52 1.56-1.48 1.87zm-5.5-5.67c.35-.7.89-1.28 1.34-1.89.18-.3.1-.63.13-.97 0-.38.05-.79.11-1.19.16.38.25.77.32 1.15.09.4.16.92-.1 1.3a6.82 6.82 0 0 1-1.8 1.6zm6.33-4.32c0-1.1 2.45-1.44 3.06-2.36a2.48 2.48 0 0 0 .54-1.15c.3.95-.38 2-1.26 2.39-.63.33-1.26.45-1.89.72a.72.72 0 0 0-.45.4zm5.22-5.02c.6-.09 1.42.1 1.69.79.15.4.02.79.11 1.13.04.13.13.27.25.4.24.3.58.6.63 1.01-.27-.31-.61-.43-.93-.7a1.71 1.71 0 0 1-.45-.51c-.2-.38-.04-.83-.13-1.17-.16-.5-.7-.68-1.17-.95zm12.73-8.6.8-.91c.24-.3.51-.63.78-.9.2.9-.65 1.89-1.58 1.82zM74.4 107.64c-.34 1.12-1.37 1.84-2.12 2.7-.29.36-.4.94-.58 1.48-.18.56-.4 1.13-.81 1.62l-.43-.36c.52-.63.72-1.46 1.02-2.25.27-.85 1.14-1.37 1.75-1.98a15.07 15.07 0 0 0 1.17-1.22zm-6.73 3.62c.54-.34 1.1.4.81.94-.27.43-.74.59-1.21.54.22-.31.54-.54.72-.79.11-.29.02-.53-.32-.7zm2.2-1.94c.3.45.7.88.7 1.49 0 .22-.06.43-.13.58a6.34 6.34 0 0 1-1.1 1.78c.07-.7.31-1.35.58-1.98.34-.63-.09-1.2-.04-1.87z"/>
        </g>
      </g>
      <g stroke="none" fill="#000">
        <path d="M131.25 86.83c1.28-.45 2.72.1 3.62 1.04-.63-.14-1.17-.45-1.8-.6a12.6 12.6 0 0 0-1.82-.44z"/>
      </g>
      <path class="secondary" stroke-linejoin="round" d="M64.76 108.32c.54.34 1.98-1.03 2.27-3.01.25-1.64-.31-3.65-1.12-4.3-1.82-1.13-3.06-2.38-3.33-4.97a7.45 7.45 0 0 1 .45-3.65 5.5 5.5 0 0 0-2.48 3.2 11.72 11.72 0 0 0 .32 7.31c.7 2 1.64 4.05 3.89 5.42z"/>
      <path fill="#F6F6F6" d="M72.12 101.75c.54.45 1.21.34 1.66.18.45-.18.7-.58.81-1.03.12-.47-.11-1.15-.58-1.3-.2.1-.45.15-.7.22-.43.11-.9.31-1.1.72-.27.51-.14.92-.1 1.21z"/>
      <g stroke="none" fill="#000">
        <path d="M73.9 99.37c.24-.07.51-.38.58-.65v.27a1.35 1.35 0 0 1-.36.78l-.23-.4zm-1.7 1.44c.23.27.75.45 1.09.38l.09-.02.07-.1c.06-.22-.03-.44-.19-.62a2.48 2.48 0 0 0-.56-.38m1.2 4.86c.08-.77 1.1-1.24 1.75-.84-.63.27-1.15.52-1.76.83zm4.43-22.17a4.28 4.28 0 0 1 1.35-2.74c.83-.65 1.95-.61 2.47-1.6a1.3 1.3 0 0 1-.31.72c-.48.58-1.35.81-1.87 1.24-.79.6-1.17 1.55-1.64 2.38zM123 107.78c.4.3.79.56 1.22.77.85.43 1.8.56 2.74.7 2.39.47 4.75-.23 6.96-1.22a8.98 8.98 0 0 1-7.02 1.75c-1.49-.2-3-.76-3.9-2zm7.63 13.55c.18-1.01 1.4-1.71 2.34-1.33-.83.43-1.55.83-2.34 1.33zM99.37 75.5c.13 1.28.29 2.56.51 3.82.14.86.47 1.53 1 2.2a6.62 6.62 0 0 1 1.36 3.67 10.33 10.33 0 0 0-1.05-2.31c-.45-.77-1.1-1.33-1.49-2.16-.18-.43-.29-.88-.36-1.31a15.2 15.2 0 0 1 .02-3.91zm-27.25 27.94a2.1 2.1 0 0 0-.23-1.64l.43-.14c.16.59.16 1.28-.2 1.78z"/>
        <path d="M70.23 102.88a.81.81 0 0 0 .63-.56c.09-.25 0-.52-.1-.84a3.28 3.28 0 0 1 .12-2.02c.65-1.4 2.36-1.15 3.6-1.4-.54.36-1.22.47-1.8.65-1.62.46-1.58 1.76-1.44 3.2.02.54-.5 1.08-1.01.97z"/>
      </g>
    </g>
    <g stroke="none" fill="#000">
      <path d="M98.53 112.69c.07-1.13.32-2.16.72-3.2a3.15 3.15 0 0 1-.72 3.2z"/>
    </g>
  </g>
</svg>
