<svg xmlns="http://www.w3.org/2000/svg" fill="#d7374a" stroke="#000" viewBox="50 50 200 200">
  <metadata author="Eugenio Hansen, OFS" source="https://commons.wikimedia.org/wiki/File:Listel_1.svg" license="https://creativecommons.org/licenses/by-sa/4.0"/>
  <g id="ribbon1" stroke-width=".21">
    <path d="M60 101.56c-.72-1.41 2.26-2.24 3.66-2.5 3.1-.58 6.7.41 9.64.1l5.81-3.97-.86 8.24c.03 1.06-1.32 1.58-2.4 1.78-2.9.56-7.44-.79-10.58-.17-1.02.2-2.01.54-3 .93z"/>
    <path d="M59.9 100.96c.47 1 1 1.33 1.55 1.46a1.66 1.66 0 0 0 1.18-.2c.4-.23.42-.63.77-.98 0 0 .3 1.03.34 1.5.05.82-.3 1.93-.27 2.76.02.6.31 2 .31 2-.06.17-.21.5-.5.58-.35.1-.85-.1-1-.17-.32-.2-.67-.48-.74-.87-.1-.65-.15-1.4-.42-2.1-.36-.95-.83-1.98-1.1-2.75-.18-.55-.25-1.05-.12-1.23z"/>
    <path d="M139.93 101.56c.72-1.41-2.25-2.24-3.65-2.5-3.1-.58-6.73.42-9.67.1l-5.78-3.97.86 8.24c-.03 1.06 1.32 1.58 2.4 1.78 2.9.56 7.43-.79 10.58-.17 1.02.2 2.01.54 2.98.92z"/>
    <path d="M140.04 100.96c-.47 1-1 1.33-1.55 1.46a1.66 1.66 0 0 1-1.18-.2c-.4-.23-.42-.63-.78-.98 0 0-.3 1.03-.33 1.5-.05.82.28 1.93.26 2.76-.02.6-.3 2-.3 2 .06.17.21.5.5.58.35.1.85-.1 1-.17.3-.2.67-.48.73-.87.1-.65.16-1.4.42-2.1.37-.95.83-1.98 1.1-2.75.2-.55.26-1.05.13-1.23z"/>
    <g stroke-width=".24" fill="#000" fill-opacity=".5">
      <path d="m79.1 95.19-.83 8.21s-.58-1.16-1.84-1.67c-.86-.35-1.95-.4-2.69-.66-.76-.26-1.16-.72-.87-1.22 1.86-3.2 6.54-4.77 6.24-4.66z"/>
      <path d="m120.83 95.19.84 8.21s.58-1.16 1.83-1.67c.87-.35 1.96-.4 2.7-.66.76-.26 1.16-.72.87-1.22-1.86-3.2-6.54-4.77-6.24-4.66z"/>
    </g>
    <path d="M72.98 93.28s4.45-.76 6.4-.76c6.1 0 14.28 4.75 20.38 4.75 6.25 0 14.56-5.6 20.8-5.6 1.9 0 6.43 1.61 6.43 1.61-1.57 1.72-.94 3.97 0 6.3 0 0-1.22-.77-2.63-1.18-1.42-.4-3.05-.42-4.04-.42-6.11 0-14.28 5.6-20.39 5.6-6.19 0-14.45-4.77-20.63-4.77-1.04 0-2.95-.25-4.35-.04-1.18.18-1.97.81-1.97.81.63-1.86 1.6-3.62 0-6.3z"/>
  </g>
</svg>
