<svg xmlns="http://www.w3.org/2000/svg" fill="#d7374a" stroke="#000" viewBox="50 50 200 200">
  <metadata source="https://commons.wikimedia.org/wiki/File:Zell-blazon.svg" license="https://creativecommons.org/publicdomain/zero/1.0"/>
  <g id="snail" stroke-width=".41">
    <path d="M72.76 84.22c.66-2.5 2.53-7.9 5.5-16.9 2.52-.56 2.26-3.1.43-3.71a1.86 1.86 0 0 0-1.97 3.04c-3.2 5.8-6.15 15.23-8.26 16.22"/>
    <path d="M66.69 80.86c-1 .06-3.09-3.26-3.82-4 .82-2.46-1.44-2.95-2.44-2.16-1.02.81-.16 2.92 1.35 2.73.95 1.44 2.54 3.94 3.11 4.75"/>
    <path d="M118.13 123.26c9.03.78 20.23 2.97 21.79 10.08-67.21 12-77.36-10.88-76.84-50.78 3.68-3.7 14.15-1.6 14.06 4.42-.1 6.02.69 10.57 1.68 13.7 1.01 3.2 5.76 12.95 22.62 19.12z"/>
    <path stroke-linecap="round" d="M76.55 86.22c.75-2.71 4.43-9.72 8.63-18.2 2.58-.21 3.04-2.78 1.48-3.7-1.5-.89-4 .78-2.87 2.6-3.48 5.37-8.23 15.32-10.46 16.01"/>
    <path class="secondary" d="M100.39 79.2c15.26-5.09 32 6.68 34.15 20.7 2.13 14.1-12.94 22.4-16.4 23.36-3.47.96-9.42 2.37-16.7-3.46-16.86-6.17-21.6-15.93-22.62-19.12 5.06-3.9 6.28-16.38 21.57-21.48z"/>
    <path fill="none" stroke-linecap="round" d="M101.44 119.8c-7.31-5.87-11.88-26.06.32-32.6 12.13-6.5 23.46 3.23 23.74 9.02.95 10.58-5.19 14.47-11.77 14.83-7.7.39-14.08-7.27-12.1-14.32 2.54-8.31 11-9.41 15.5-5.52 3.44 3.16 4.3 8.13 1.25 10.53-6.64 5.82-13.56-1.84-10.5-6.88 1.65-3.08 5.15-4.4 7.46-2.16 1.61 1.15 2.16 4.11-.25 5.15-1.43.4-3.28-.17-3.72-2.04-.15-.64.55-1.45 1.24-1.72.3-.11 1.02.1 1.47.63.41.49-.26 1.28-.26 1.28"/>
    <path stroke-linecap="round" d="M70.6 81.9c-1.18-1.51.77.5-4.38-7.43 1.14-2.33-1.05-3.4-2.37-2.65-1.3.74-.64 3.15.88 3.16 1.67 3.55 3.1 5.7 3.07 7.08"/>
    <g stroke="none" fill="#000">
      <path d="M64.46 104.32c.76.23 1.61-.08 2.3-.3.39-.15.76-.6.96-.79-.14.55-.59.91-.94 1.26-.37.34-.88.52-1.26.68-.3.09-.7.17-.9.18z"/>
      <path d="M65.66 110.06c.33.2.63.2 1 .21.24 0 .63-.2.84-.27.08-.03.66-.53.7-.64.18.27-.65 1.14-.89 1.26-.34.18-.9.51-1.21.61z"/>
      <path d="M68.01 116.5c.27-.03.56-.12.83-.15a4.87 4.87 0 0 0 1.33-1.08 3.7 3.7 0 0 1-.79 1.33c-.28.24-.68.57-.97.72z"/>
    </g>
  </g>
</svg>
