<svg xmlns="http://www.w3.org/2000/svg" fill="#d7374a" stroke="#000" viewBox="50 50 200 200">
<metadata source="https://commons.wikimedia.org/wiki/File:Badge_of_the_Falkland_Pursuivant.svg" author="Sodacan" license="https://www.gnu.org/licenses/fdl-1.3.html"/>
  <g id="stagLodgedRegardant" stroke-width="1.2" transform="translate(60 60) scale(0.38)">
    <g class="tertiary" stroke-width="2.55">
      <path transform="matrix(.33452 -.2187 .20412 .32605 -697.402 30.833)" d="M1287.17 1335.43c-8.03 11.73-12.81 26.28-32.93 40.41 7.24 1.52 15.24 2.36 22.46-1.75-1.31 6-9.37 14.78-13.78 20 15.95-.31 24.9-3.4 33.88-10.99 9.8-8.3 17.97-21.92 24.55-43l-34.18-4.66z"/>
      <path transform="matrix(.37323 .14295 -.14463 .35645 -169.096 -473.736)" d="M1287.17 1335.43c-8.03 11.73-12.81 26.28-32.93 40.41 7.24 1.52 15.24 2.36 22.46-1.75-1.31 6-9.37 14.78-13.78 20 15.95-.31 24.9-3.4 33.88-10.99 9.8-8.3 17.97-21.92 24.55-43l-34.18-4.66z"/>
      <path transform="matrix(-.17098 -.36125 .35087 -.1577 -165.768 879.717)" d="M1287.17 1335.43c-8.03 11.73-12.81 26.28-32.93 40.41 7.24 1.52 15.24 2.36 22.46-1.75-1.31 6-9.37 14.78-13.78 20 15.95-.31 24.9-3.4 33.88-10.99 9.8-8.3 17.97-21.92 24.55-43l-34.18-4.66z"/>
    </g>

    <path class="secondary" d="M65.64 36.24a86.25 86.25 0 0010.76 6.7c5.26 2.77 16.24 5.9 16.24 5.9l4.92-1.31s4.78-.64 7.47-5.13c2.66-4.44-.69-10.04.54-15.08.66-2.73 4.05-6.65 4.05-6.65s-5.32 1.56-6.86 4c-2.55 4 .38 10.15-2.7 15.02-1.51 2.4-7.96 2.38-7.96 2.38 6.16-8.4 7.3-13.8.28-21.7.49 8.88 2.74 14.47-4.85 20.43-4.75.93-7.95-2.7-11.5-5.77 4.59-13.75 2.7-16.72-3.44-22.37 2.56 8.37 3.6 12-1.93 19.07 0 0-3.95-2.66-4.9-5.02-1.96-4.85 1.34-13.3-.25-18.12-.98-2.97-3.9-4.7-3.9-4.7s.67 3.82.82 6.92c.18 3.52-2.74 10.28-5.02 10.5-3.54.8-8.76-7.74-11.89-12.53a126 126 0 01-3.98-7.15s-.65 4.68-.04 6.9c1.8 6.52 6.76 11.48 11.36 16.4a91.17 91.17 0 006.17 6c-7.44 1.18-12.55-4.58-17.3-8.34.93 7.07 15.17 18.35 23.9 13.65z"/>
    <path d="M3 171.52c2.27-6.6 10.4-10.37 13.03-16.83.59-1.45-.6-1.5.27-6.88.92-5.6 1.87-9.03 3.54-13.81 1.25-3.56 2.97-6.77 5.92-8.94a7.6 7.6 0 015.83-1.5c2.5.36 4.73 2.02 6.57 3.75 2 1.9 2.16 3.4 3.1 6 1.27 3.55 2.7 11.25 2.7 11.25l4.7 7.5h3.93l-.94 20.63s-5.88 3.83-9.18 3.75a5.84 5.84 0 01-4.78-2.55c-1.67-2.16-1.37-5.59-2.35-8.14-.94-2.46-2.93-4.21-3.65-6.75-.44-1.57-.29-6.37-.29-6.37s-1.86 4.37-3.05 6.14c-1.56 2.32-4.95 4.53-5.56 7.25 0 0-.17 4.11-1.29 5.7-.7 1-3.08 1.99-3.08 1.99s1.6 2.55 1.54 3.96c-.59 6.22-11.2 10.76-16.07 7.93-1.41-.83-1.42-1.67-1.54-3.3-.1-1.4 1.32-3.75 1.32-3.75-1.65-2.23-1.37-4.97-.67-7.03z"/>
    <path d="M118.7 127.6c3.7-.3 8.9.2 15.2-.8 9.3-1.4 20.6-4.7 30.5-2.9 8.7 1.5 15.1 6 20.7 11.4 6.8 6.8 10.4 22.1 7.4 34.2 2 6.9 11.3 10 15.1 2.5.5 5.1-.9 11.3-7 13 .2.8 1.9.5 4.1 1-4.3 3.2-6.8 2.7-9.3 1-.5-.4-1.4-.4-2.1-.2l2.1 2.8c-6.1.1-6.7-4.2-8.9-6.2l.5 3.6c-2.8-2.4-4.2-4.9-5-8.5-1.3 2-.6 3.5.2 5.7 1.3 3.4 6.7 6 6.9 8.2.4 4.9-1.1 8.4-3.4 10.9-7 7.4-19.1 2.3-25.6 1.1l-16.6-3.1c-6.3 1.6-9.1 1.2-12.2-4.9 0 0-4.2 2.3-6.7 2.1-4.5-.3-10.5-5.1-11.8-9.7-.9-3.3 4.1-5.7 11.4-7.4 2.9-.7 6.1.2 8.8 1.4 3.6 1.6 5.5 5.3 9.3 6.1 0 0 8.9 3.3 13.5 2.7 3.1-.4 8.7-2.9 8.7-2.9s-2.4-2.2-7.6-3.7c-5.7-1.6-3.4-.4-7.5-2.9-2.6-1.6-5.2-3.7-7.1-5.7 0 0-10.3-1.7-19.5.4-5.8 1.3-10.9 4.5-16.6 6-4.4 1.1-8.89 1.7-13.41 1.9-3.05.2-9.17-.3-9.17-.3-7.84 3.6-13.09.4-17.72 2-2.47.8-5.91 3.8-5.91 3.8.47.9 7.86 1.2 11.64-.1a10.8 10.8 0 017.47-.4c3.37 1.1 6.13 3.6 7.7 6.5 1.76 3.2 2.02 6.9 0 9.1-.84.9-2.63 1.6-4.6 1.4-1.83-.1-3.78-1-6.11-1.4-2.73-.4-4.82.5-8.78-1.2-7.95-2.6-12.9-4-20.63-3.1l-5.85.6c-4.53.6-10.89-1.4-13.2-5.3-1.36-2.3-.87-5.7.61-7.7 3.64-4.7 13.05-5.9 18.73-12.9 0-2.5-.42-4.2-1.21-7.1-1.13-4.1-4.3-7.9-5.85-13.6-.6-2.2-1.25-7.8-.82-10 .54-2.8 1.4-5.1 2.65-7.6 1.29-2.6 3.07-4.9 4.14-7.6 1.98-4.9 3.63-11.4 5.61-16.3 5.64-17.03 14.61-33.24 34.78-46.64-4.48-1.74-8.35 3.19-14.91 3.44-9.43.36-12.84-2.94-16.99-4.81 0 0 6.36-1.56 11.97-5.35 5.77-3.89 10.88-10.02 16.1-10.09 3.12 0 6.91 4.46 6.91 4.46l-.13-2.84c-.31-6.35 10.32-5.7 14.98-5.39 4 .27 13 .83 17.8 2.95 3 1.4 3.8 5.34 6.4 7.34 1.6 1.22 3.4 1.69 5.4 2.5 7.6 3.21 16.9 4.74 21 11.56.7 1.08.9 3.68-.3 4.58-.5 4.33-1.6 5.57-4.5 6.4 0 0-.5 2.71-1.5 3.75-1.3 1.41-3.5 1.88-5.5 2.06-4 .38-7.8-1.41-11.8-1.1-5.1.38-12.5 4.47-17.6 4.2-1 0-2.7-1.29-3-.31-2.2 8.49-2.8 38.29 8.1 37.39z"/>
    <path class="secondary" d="M8.34 1.63a16.7 16.7 0 002.3 10.93c6.64 10.8 26.93 15.65 31.2 27-12.38 6.9-18.6-6.51-21.67-10.78-.58-.3-.55 4.19.9 7.45 2.29 5.18 4.13 7.06 8.61 9.25a15.92 15.92 0 0014.72-.2c1.83-.95 5.23-.79 5.23-.79l2.53.38 1.15-7.43c-4.8-2.08-12.8-6.53-15.28-14.34 0 0 2.07-10.2-.23-15.2-1.16-2.51-5.65-5.8-5.65-5.8 1.88 5.07 5.56 15.92-.58 17.95C21.4 18.45 12.25 8.15 8.34 1.63z"/>
    <path class="secondary" d="M53.71 44.68c2.75 2.66 5.84 3.23 8.94 3.82 0 0-2.2 2.36-3.37 2.4a4.87 4.87 0 01-3.34-1.03c-3.73-3-2.69-12.17-2.02-16.47.64-4.12 4.75-11.4 4.75-11.4-8.08 3.57-10.39 11.63-10.45 19.22-.03 3.58.2 7.38 1.75 10.6A9.92 9.92 0 0053.72 56a10.3 10.3 0 005.42 1.35c2.25 0 3.82-1.06 5.6-2.42 1.96-1.49 5.13-5.39 5.13-5.39 3.06-.43 4.5-2.13 7.27-3.48 2.3 1.86 8.57 2.9 11.32 2.8 0 0 .02 2.6.92 3.48.5.48 1.35.6 2.02.46 2.84-.58 4.89-2.65 6.24-5.21.54-1.02.76-2.52.09-3.45-.57-.8-1.14-.82-2.12-.77-1.63.08-4.9 1.2-4.9 1.2-2.22-.47-6.58-1.25-8.1-2.93 8.41-7.37 5.92-14.85 7.44-23.88.5-2.63 3.04-7.43 3.04-7.43s-3.6 1.4-4.95 2.71c-1.5 1.46-2.46 3.44-3.18 5.4-1.12 3.02-.75 6.42-1.67 9.5-.73 2.44-1.52 4.97-3.03 7.03-1.95 2.66-4.44 5.21-7.48 6.5-2.26.95-4.88.7-7.32.62-4.1-.13-12.04-4.3-12.02-5.01-.18 2.7-.44 5.47.27 7.6z"/>

    <g stroke="none">
      <path fill="#fff" d="M121.77 60.44c-.3 1.85-2.68 3.5-5.39 3.08-2.7-.43-4.17-2.2-3.88-4.04.29-1.85 2.15-2.58 4.86-2.15 2.7.43 4.7 1.26 4.4 3.1z"/>
      <path fill="#633100" d="M118.25 58.17a2.15 2.15 0 00-2.45 1.75 2.2 2.2 0 001.79 2.48 2.16 2.16 0 002.4-1.82 2.11 2.11 0 00-1.74-2.4z"/>
      <path fill="#2b2200" d="M118.28 59.23c-.6-.1-1.16.3-1.25.87-.1.57.35 1.19.91 1.28.57.09 1.11-.34 1.2-.94a1 1 0 00-.86-1.2z"/>
      <path fill="#fff" d="M118.85 59.2c-.33-.06-.58.13-.62.4-.04.25.2.6.46.64.26.04.51-.14.57-.48.05-.35-.06-.5-.41-.56z"/>
    </g>

    <g fill="#000" stroke="none">
      <path d="M7.56 191.48a16.84 16.84 0 011.74 8.36c0 .14-.09.51-.24.81-.16.33-.37.58-.38.74l1.54-1.23.52.95c-.1-3.42-.9-7.07-3.18-9.63z"/>
      <path d="M113.77 191.67a16.83 16.83 0 01-5.75 6.3c-.12.1-.47.24-.8.3-.36.05-.7.03-.83.11l1.9.53-.46.98c2.71-2.09 5.2-4.88 5.94-8.22z"/>
      <path d="M89.62 203.28a16.83 16.83 0 018.52-.58c.14.03.5.16.77.35.3.2.53.45.68.48l-1-1.7 1-.38c-3.4-.36-7.12-.06-9.97 1.84z"/>
      <path d="M37.67 136.92s-.06.63-.16 1.37c-.1.75-.24 1.64-.38 2.07a9 9 0 01-1.71 2.96c-.73.92-1.54 1.85-2.16 3.1-1.1 2.2-2.63 6.97-2.63 6.97l.94.3s1.6-4.82 2.6-6.83c.55-1.12 1.29-1.97 2.03-2.91s1.49-1.94 1.9-3.28c.35-1.67.65-5.24-.68-5.38z"/>
      <path d="M154.37 136.45c-9.25 3.19-16.1 7.6-18.79 17.47-1.42 5.24-1.43 11.29.85 16.28 1.32 2.9 1.7 3.73 3.34 5.88l2.88.21a21.68 21.68 0 01-5.63-22c4.35-12.99 12.99-14.14 17.35-17.84zm-65.6 9.85c2.62 2.23 7.66 4.87 10.28 10.74 1.56 3.5.98 7.35-.4 11.07-3.58 9.64-12.98 14.84-15.75 16.03l1.9.53c3.57-1.4 11.3-5.98 15.07-16.1 1.44-3.88 2.11-8.1.4-12.02-2.38-5.48-6.36-8.36-11.5-10.25zm-15.69.4s-.9.31-1.96.78a9.4 9.4 0 00-3.07 1.88c-1.09 1.18-1.72 2.93-1.15 4.56.2.6.62 1.07 1.1 1.47-1.37-.1-2.75-.07-3.76.69-1.55 1.15-3.4 3.29-5.37 5.71-1.98 2.43-4.05 5.13-5.94 7.32-3.78 4.37-6.85 6.75-6.85 6.75l-.15 1.37s4.11-2.82 7.97-7.28c1.92-2.23 4-4.94 5.97-7.34 1.96-2.4 3.84-4.53 5.15-5.5.73-.54 2.59-.6 4.22-.35 1.83.29 3.5.7 5.38.75-1.6-1.16-2.78-1.5-4.1-2.09-1.09-.5-2.18-1.29-2.4-1.94-.37-1.05.08-2.35.9-3.25 1.53-1.66 3.4-2.81 4.06-3.53zm-21.87 37.78c-.6.01-1 .1-1 .1.55 1.05 3.07 1.3 4.4 2.21 1.13.81 1.8 1.67 2.6 2.47.8.8 2.5 1.94 4.9 1.88l-1.4-1.25a4.89 4.89 0 01-2.56-1.53c-.74-.74-1.51-1.68-2.78-2.6a6.8 6.8 0 00-3.5-1.25l-.66-.03zm116.53 3.32a24.1 24.1 0 00-4.03.43l.16.97c5.67-1.03 8.97-.23 13.68 2.69-1.25-3.29-8.2-4.11-9.8-4.1z"/>
      <path fill-opacity=".3" d="M63.3 65.56c1.5.43 6.16-1.2 7.73-1.06 1.14.1-.82 2.08.3 1.93.84-.1 2.74-3.32 3.7-3.66.93-.33.92 2.21 1.9 1.8.98-.42 1.69-3.66 2.63-4.02.95-.35 2.13 2.17 2.94 2.02.77-.14 1.04-2.5 1.84-2.2 1.75.65 3.84 4.48 3.84 4.48l-3.4-6.98-2.88-2.8h-2.45l-3.14 1.75s-2.77 3.53-4.46 4.98a13.57 13.57 0 01-2.97 1.92z"/>
      <path d="m 80.27,54.46 c -0.18,0 -0.35,0 -0.53,0.1 -2.14,0.39 -3.62,1.91 -5,3.5 -1.38,1.6 -2.69,3.28 -4.28,4.2 -1.9,1.06 -3.92,1.87 -6.03,2.4 -1.89,0.48 -6.03,0.72 -6.03,0.72 4.42,1.32 10.34,-1 12.56,-2.25 1.84,-1.06 3.19,-2.85 4.53,-4.41 1.35,-1.56 2.68,-2.87 4.44,-3.19 0.96,-0.17 2.18,0.4 3.03,1.13 1.24,1.07 2.4,3.53 3.5,5.53 0.82,1.5 0.75,3.68 2.47,3.53 0,0 -0.6,-1.84 -1.56,-3.97 -0.96,-2.13 -2.24,-4.54 -3.75,-5.84 -0.92,-0.85 -2.1,-1.34 -3.35,-1.4 z m 58.23,9.31 c 2.2,1.94 5.8,3.75 7.9,6.02 0.2,-0.21 0.6,-0.36 0.9,-0.41 v 0 c -2.5,-3 -5.7,-3.87 -8.8,-5.61 z M 94.9,73.9 c 0.2,7.94 4.8,12.69 11,15.62 1.5,0.8 4.5,1.64 4.5,1.56 l 0.4,-1.33 c -1.5,-0.14 -3,-0.52 -4.4,-1.13 C 97.53,84.57 96.09,76.89 94.9,73.9 Z m 43.3,5 c -2.3,0.1 -3.9,1.49 -5.1,2.53 2.1,-0.8 3.1,-1.37 4.7,-1.53 0.9,-0.1 2.6,0.74 4.8,1.47 2.2,0.73 5,1.27 8.3,0.43 l -0.2,-0.96 c -3.2,0.77 -5.7,0.25 -7.8,-0.44 -1.8,-0.61 -3.3,-1.41 -4.7,-1.5 z"/>
      <path fill-opacity=".5" d="M154.95 74.8s-1.81.86-2.75.47c-1.6-.66-1.25-3.47-2.84-4.16-.41-.18-1.04-.07-1.32.28-.2.25-.13.66 0 .95.17.39.95.85.95.85s-.63.65-1.04.66c-.75.03-1.6-.4-2-1.04-.51-.86-.39-1.77.1-2.65.24-.42.76-.67 1.23-.75 1.15-.2 2.17.6 3.31.37 1-.2 2.75-1.23 2.75-1.23 1.73 1.97 2.1 3.83 1.6 6.25z"/>
      <path d="M111.54 56.89c2.94-.78 5.55-.62 7.62.21.8.32 1.34.63 1.86.98a3 3 0 001.75.64c1.66.06 2.06-1.24 2.75-1.29 0 0-.05.58-.42 1.12-.38.54-1.13 1.05-2.35 1.02a3.88 3.88 0 01-2.19-.77c-.57-.39-1.05-.8-1.71-1.05-2.82-1.52-8.57.5-10.34.16a23.48 23.48 0 013.03-1.02z"/>
      <path d="M113.84 57.12a6.59 6.59 0 013.6-.26c1.38.22 2.59.54 3.48 1.1.9.54 1.48 1.45 1.3 2.54-.34 2.2-2.97 3.95-5.9 3.49a5.7 5.7 0 01-3.35-1.64 3.5 3.5 0 01-.92-2.94 2.94 2.94 0 011.8-2.29zm.36.86c-.73.31-1.13.78-1.25 1.56-.12.79.13 1.54.71 2.17a4.7 4.7 0 002.78 1.35c2.49.4 4.62-1.18 4.86-2.69.12-.75-.16-1.2-.86-1.63a9.16 9.16 0 00-3.16-.94 5.82 5.82 0 00-3.08.18z"/>
    </g>
  </g>
</svg>
