<svg xmlns="http://www.w3.org/2000/svg" fill="#d7374a" stroke="#000" viewBox="50 50 200 200">
  <metadata source="http://wappenwiki.org/images/7/7a/Wolseley.svg" license="https://creativecommons.org/licenses/by-nc-sa/3.0"/>
  <g id="talbotPassant" stroke-width=".41">
    <path class="tertiary" d="M77.17 75.79s-3.19-2.07-6.03-2.06c-2.97.01-4.75 1.37-6.37 1.37-2.78.04-2.7-1.27-2.93-1.27-.22.05-.29.58.05 1.23.34.6 1.16 1.33 3 1.28 2.6-.01 3.85-1.19 6.33-1.2a10.45 10.45 0 0 1 5.73 1.74"/>
    <g stroke-width=".34" fill="#f6f6f6">
      <path d="M66.45 75.57c-.1-.06-.5.96-.66 1.7l.07-.03c.3-.09.53-.07.77-.02a7.24 7.24 0 0 0-.18-1.65zm-.94-1.26c.14-.11-.22-.6-.41-1.66a1.7 1.7 0 0 1-.03-.52c-.33-.01-.65.03-1-.06-.06 0-.3-.02-.37-.05.24.74.91 2.14 1.81 2.3z"/>
    </g>
    <g class="secondary">
      <path d="M75 133.75c.02.01-1.57.88-1.75 2.44-.03.23-.04.74.09.76.08.01.13-.25.6-.57.7-.34 1.67-.42 2.33-.96m3.43 2.7c-.65.55-1.6.66-2.3 1.05-.44.33-.5.6-.57.6-.13-.02-.13-.53-.11-.77.1-1.55 1.67-2.48 1.65-2.5m5.98-3.95c.16.34.43.19.8.62.2.26.4.67.45.7.09.03.21-.25.25-.4.24-.9-.05-1.72-.04-1.72a17.14 17.14 0 0 0-2.41-2.17m41.78 4.17c.02.01-1.57.88-1.75 2.44-.03.23-.04.74.08.76.08.01.14-.25.6-.57.71-.34 1.68-.42 2.34-.96m3.42 2.7c-.64.55-1.6.66-2.29 1.05-.44.33-.5.6-.58.6-.12-.02-.12-.53-.1-.77.1-1.55 1.66-2.48 1.65-2.5"/>
      <path d="M128.22 136.69c-.65.55-1.6.66-2.3 1.05-.43.33-.49.59-.57.59-.13-.02-.13-.53-.11-.76.1-1.56 1.67-2.48 1.65-2.5m7.63-2.52c.17.34.43.19.8.62.21.26.4.67.46.7.08.03.2-.25.25-.4.23-.9-.06-1.72-.04-1.72a6.03 6.03 0 0 0-1.9-1.76m-56.2 6.85c-.65.55-1.6.66-2.3 1.05-.43.33-.49.6-.57.6-.13-.02-.13-.53-.11-.77.1-1.56 1.67-2.48 1.65-2.5m20.12-6.18c.02.02-1.57.88-1.75 2.44-.03.24-.04.75.08.76.09.02.14-.25.61-.56.7-.35 1.67-.43 2.33-.97m3.43 2.7c-.65.56-1.6.67-2.3 1.05-.44.34-.5.6-.57.6-.13-.02-.13-.53-.11-.76.1-1.56 1.67-2.48 1.65-2.5"/>
      <path d="M99.72 131.97c-.65.55-1.6.66-2.29 1.05-.44.33-.5.59-.58.59-.12-.01-.12-.53-.11-.76.11-1.56 1.67-2.48 1.66-2.5m8.15-1.23c.08.38.37.3.64.8.15.3.22.76.27.8.07.03.26-.2.35-.34.44-.81.34-1.68.36-1.68a5.9 5.9 0 0 0-.49-2.8"/>
    </g>
    <path d="M117.7 105.76c-.56 3.4-2.9 5.47-3.38 6.97-.37 1.17-.48 2.44.79 2.77.84.22 1.67.5 2.12 1.2.87 1.34 1.23 3.27-.41 4.06-.4.2-.84.28-1.23.51-.39.22-.68.57-1 .87a7.96 7.96 0 0 1-1.92 1.38c-.92.87-.35.98-1.85 1.68-1.69 1.18-2.3 3.15-2.67 3.47-.22-.07-.44-.17-.67-.15-.51.02-.85.19-.94.59-.8.62-.62 1.31-1.15 2.06a4.06 4.06 0 0 1-1.97 1.68c-1.04.4-2.02.81-2.26.62.07-.34-.24-.73-.64-1.09-.83-.58-1.19-.18-1.19-.18s0-.74-.71-1.25c-.56-.38-.82-.2-.82-.2s-.02-.55-.55-1.05c-.72-.64-1.03-.38-1.03-.38s-.23-.39.16-.86c.28-.26.35-.22.6-.27.26-.06.19 0 .64-.18.89-.46 1.9.55 3.2-.18.3-.13 1.6-.76 1.95-1.1.9-.68 1.59-.55 2.07-1.58 1.56-3.12 4.4-5.2 4.64-6.85.08-.48-.55-.66-1.01-.93-1.45-.87-2.86-1.44-3.92-2.75a8.89 8.89 0 0 1-1.72-4.51c-.25-1.6.88-3.78 1.83-4.97 1.15-1.38 2.95-3.12 4.1-4.5 2.26-2.75 5.9-4.86 9.45-4.94 1.08-.03 2.21.17 3.1.77.61.42 1.08 1.01 1.48 1.65a10.12 10.12 0 0 1 1.44 3.68"/>
    <path d="M113.95 101.04c-3.35.36-6.23 2.57-6.23 2.57s-.64.6-.99.22a.73.73 0 0 1-.2-.73c.37-1.27 3.04-3.15 3.04-3.15"/>
    <g>
      <g class="secondary">
        <path d="M72.81 126c0-.02 1.77-.34 2.42-1.77.1-.23.26-.7.15-.75-.09-.04-.22.2-.75.36-.77.12-1.7-.11-2.5.2m-2.44-3.64c.79-.33 1.74-.14 2.51-.29.53-.18.67-.41.73-.37.12.04-.04.52-.12.75-.6 1.44-2.35 1.84-2.35 1.86m-1.98-2.1c.37-.08.27-.37.78-.63.3-.16.76-.24.8-.28.03-.07-.2-.25-.34-.33-.81-.44-1.68-.35-1.7-.36-.9.52-1.87 1.17-2.66 1.85"/>
        <path d="M71.02 122.18c.78-.33 1.74-.14 2.5-.29.53-.18.67-.41.74-.37.11.04-.04.54-.12.75-.6 1.44-2.35 1.84-2.35 1.86"/>
      </g>
      <path d="M66.34 117.88c-.13-.11-1.6-1.2-1.7-1.34-.27-.39-.72-1.28-1-1.67.28-.57.84-.97.99-1.57a4.3 4.3 0 0 0 .07-1.58 9.35 9.35 0 0 0 3.92-1.25c1.18-.62 1.84-1.42 3.32-2.21a7.41 7.41 0 0 0 3.98-1.34c.71-.54 1.22-1.05 2-1.5l-5.6-7.88c-.12.45-1.55 1.56-1.88 1.89-1.1 1.06-.82 1.94-2.43 3.8-.39.45-1.27.96-1.63 1.43a24.35 24.35 0 0 1-3.2 3.43 2.13 2.13 0 0 1-.65.46c-.26.1-.55.14-.81.23a2.76 2.76 0 0 0-1.27 1.1 4.31 4.31 0 0 0-.35 2.4c.03.48.08.93.1 1.4.01.46-.11 1.24.05 1.69a1.93 1.93 0 0 0 .42.59l.9.98c.4.45 1.79 1.88 2.04 2.44.44 1.04.74 1.8 1.16 2.83.08.2.16.41.3.58A6.07 6.07 0 0 0 66.6 124c2.1.75 2.94 2.72 5 2.67.48-.03.4 0 .66.03s.32.1.66-.07c.51-.32.42-.76.42-.76s-.38.15-.86-.7c-.35-.63-.2-1.17-.2-1.17s-.31.1-.72-.42c-.52-.7-.3-1.42-.3-1.42s-.46.26-1.07-.54c-.28-.47-.44-.93-.26-1.23-.17-.25-1.01.03-1.42-.14-.4-.1-.57-.28-.61-.79-.02-.23.08-.6.15-.82-.52-.61-1.4-.51-1.71-.76z"/>
      <path fill="none" d="M72.26 124c-.07.06-.08.4-.5.63-.3.15-.69.16-.95-.06m.44-2.43c-.05.07-.1.32-.5.6-.27.19-.66.24-.95.06"/>
      <g stroke="none" fill="#000">
        <path d="M72.2 126.89a1.66 1.66 0 0 1-.87-.55c-.1-.13-.19-.28-.24-.43a.83.83 0 0 1-.05-.48l.23.4c.08.12.17.23.28.31.12.1.23.17.36.22.13.06.27.1.39.13l-.1.4zm.06-2.47c.2-.04.34-.02.5-.02l.48.02c.3 0 .62-.03.9-.17a2.1 2.1 0 0 1-.89.3l-.47.06c-.15.02-.31.03-.42.07l-.1-.26zm-.95-1.86c.19-.05.34-.02.5-.02l.48.02c.3 0 .62-.03.9-.17a2.1 2.1 0 0 1-.89.3l-.47.06c-.15.01-.32.03-.43.07l-.1-.26zm-1.42-1.85c.19-.05.34-.02.5-.02l.47.02c.3 0 .63-.03.92-.17a2.1 2.1 0 0 1-.9.3l-.47.06c-.15.01-.32.03-.43.07l-.1-.26zm.78 4.01-.25-.23-.23-.28c-.07-.1-.13-.2-.18-.33a.69.69 0 0 1-.03-.37l.2.27.23.24.25.2.27.2-.26.3zm-.96-1.74a2.01 2.01 0 0 1-.57-.54c-.07-.1-.14-.22-.18-.34a.9.9 0 0 1-.05-.39l.22.3a1.84 1.84 0 0 0 .5.43l.3.18-.22.36z"/>
        <path d="M69.84 123.01c-.3.03-.6.01-.9-.07-.3-.07-.57-.2-.8-.38a4.22 4.22 0 0 1-.64-.58l-.28-.34-.14-.16c-.05-.04-.1-.11-.16-.11.07 0 .12.05.18.1l.15.13.3.3a4 4 0 0 0 .68.48 2.14 2.14 0 0 0 1.53.2l.08.43zm.98 1.77a2.8 2.8 0 0 1-1.07-.18 5.42 5.42 0 0 1-1.77-1.08l-.4-.33-.2-.17a.5.5 0 0 0-.21-.12c.08.01.15.07.23.11l.22.14.43.29c.29.2.58.36.87.5.3.16.6.29.92.37.32.08.64.1.94.05l.04.42z"/>
      </g>
    </g>
    <g stroke="none" fill="#000">
      <path d="M105.16 126.4c-.02.17-.08.32-.15.47-.09.16-.18.3-.3.42a1.52 1.52 0 0 1-.4.32c-.15.08-.3.15-.48.18l.35-.36.33-.35.32-.36.33-.33zm6.13-4.34c-.05.33-.2.66-.4.94a2.64 2.64 0 0 1-.74.71l-.42.25a1.66 1.66 0 0 0-.36.25c-.22.2-.39.48-.6.76.05-.33.14-.66.35-.97.1-.15.25-.27.4-.37l.41-.26a5.62 5.62 0 0 0 1.36-1.31zm4.1-4.21c.13.17.21.37.24.58a1.5 1.5 0 0 1-.34 1.2 1.16 1.16 0 0 1-.53.36l.25-.53a7.18 7.18 0 0 0 .18-.5c.06-.16.08-.34.12-.52l.07-.59zm-4.1-6.03a5.15 5.15 0 0 0 2.08-1.8c.27-.37.51-.75.74-1.17.24-.4.47-.81.74-1.21-.11.47-.27.92-.45 1.36-.18.45-.41.87-.7 1.27a4.1 4.1 0 0 1-1.05 1.02c-.4.28-.87.49-1.35.53zm-45.43-2.65c.26-.41.67-.73 1.1-.97.43-.25.88-.41 1.34-.59l1.32-.52c.44-.18.87-.38 1.31-.6a4.77 4.77 0 0 1-1.16.89 9.63 9.63 0 0 1-1.32.62c-.46.18-.91.31-1.34.5a5.52 5.52 0 0 0-1.25.67zm-2.3 1.85c.06.32.13.62.16.94.04.31.04.66-.06 1a1.84 1.84 0 0 1-.6.85 2.62 2.62 0 0 1-.86.45c.2-.25.44-.47.63-.69.2-.23.35-.47.42-.73.08-.26.1-.57.14-.87.04-.32.05-.65.16-.95z"/>
    </g>
    <path fill="none" d="M99.35 132.23c.03-.08 0-.35.29-.72.2-.27.55-.44.88-.36m-2.69-.37c.04-.08-.04-.43.29-.76.23-.23.6-.36.92-.23"/>
    <g stroke="none" fill="#000">
      <path d="M96.99 128c.18 0 .34 0 .52.06a1.53 1.53 0 0 1 .84.54c.1.12.18.29.2.46-.11-.13-.2-.23-.33-.32a1.27 1.27 0 0 0-.38-.22c-.13-.06-.26-.1-.4-.11h-.41l-.04-.4zm3.59 2.96.36.12c.12.06.23.13.34.21s.2.18.28.28c.08.1.13.22.16.34l-.3-.2-.3-.17-.3-.11-.35-.07.1-.4zm-1.6-1.37.59-.12.6-.14c.19-.05.38-.1.54-.2.18-.1.32-.24.47-.4-.1.17-.23.34-.4.48s-.36.23-.53.31c-.2.1-.4.16-.57.24l-.58.23-.12-.4z"/>
      <path d="m100.44 130.97.54-.2.53-.21c.17-.07.35-.17.49-.28.15-.1.26-.26.38-.41-.08.17-.18.34-.3.5-.14.15-.29.27-.45.38l-.5.3-.53.3-.16-.38zm-2.75-.59c-.16.1-.33.12-.48.17l-.46.12c-.29.1-.59.22-.81.44.2-.25.48-.43.76-.56l.44-.2c.14-.05.29-.12.39-.2l.16.23zm1.63 1.32c-.16.1-.33.13-.48.17l-.46.12c-.29.1-.6.23-.81.45.2-.25.48-.43.76-.57l.44-.2c.14-.05.29-.12.38-.19l.17.22zm1.78 1.48c-.16.1-.33.13-.48.17l-.46.12c-.29.1-.6.22-.81.44.2-.25.48-.42.76-.56l.44-.2c.14-.05.29-.12.39-.19l.16.22zm-1.97-3.59.3.16.3.19c.1.07.2.16.27.26s.12.22.13.35l-.27-.21-.28-.15-.3-.11-.33-.11.18-.38z"/>
    </g>
    <path d="M87.58 67.05c0-2.2-.91-4.08-2.7-5.26a9.43 9.43 0 0 0-5.4-1.53c-1.44 0-2.52.3-3.96.5-1.66.26-2.45.85-3.36 1.09-1.2.33-1.89.44-2.05 1.34.04.25-.05.5-.25.65s-.79.36-1.37.41c-1.14.08-1.85.4-2.63.75-1.07.5-.78.13-1.9.46-.5.05-1.58 0-1.72.49-.46 1.28.43 1.78.43 2.15 0 0-.26.9-.11 2.04.1.65.3 1.62.65 1.8.24.16.48.25.7.29.62.12 1.15.19 1.78.52a3.05 3.05 0 0 0 2.2.14c.34-.11.67-.32.96-.53.2-.15.46-.42.72-.48.3-.05 1.05.2 1.35.2 1.67 0 1.86.33 2.66.99.89.7.76 1 1.22 1.71a3.96 3.96 0 0 1 .56 2.28c-.08.5-1.4.08-1.89.22-.47.14-.7.23-1.89.32-.87.06-1.86-.5-2.66-.3-1.8.46-1.92-.33-3.06-.04-.36.14-1.01-.02-.94.21-.13.07.01.58.37.79.55.41 1.21.54 1.89.43.77-.13.62-.05 1.9 0 2.13.19 1.2.29 2.88.38 2.07.06 2.07-.23 3.27.02.34 1.51-.4 2.19-.61 3.85-.14 1.06-.93 3.14-1.7 3.83-.74.68-1.6 1.3-2.25 2.22-1.56 2.24-1.67 6.5-.41 8.7.72 1.25.37 2.81 1 4.12a5.64 5.64 0 0 0 3.18 2.96c.9 2.27 2.64 2.48 3.88 3.14l11.02 1.12c4.16.68 6.09-1.9 7.84-2.73 1.84-.87 3.95-1.33 6.14-2.94 3.9-2.87 6.43-2.87 9.15-2.46 1.88.39 3.52 2.18 4.18 4.57.98 3.5 5.79 7.96 9.91 9.41 1.48.65 3.74 1.34 4.4 2.18-.15.62.39 1.16.74 1.7.73 1.16.62 3.28.71 4.83.03 1.66.64 4.28-.71 5.55-.67.52-1.4 1.99-1.63 2.33-.27.37-.86.83-1.18.95-1.28.73-1.86-.12-2.73.33-.45.18-.38.13-.63.18-.27.06-.33.02-.61.28-.39.47-.17.85-.17.85s.32-.24 1.04.4c.52.49.55 1.04.55 1.04s.26-.18.82.2c.7.5.71 1.25.71 1.25s.36-.4 1.19.18c.4.36.7.74.63 1.09.24.2 1.22-.22 2.27-.62 1.03-.4 1.3-1.1 1.83-1.69.54-.58.43-2.45.76-3.35.1-.34.3-.62.77-.76.23-.07.46-.05.7-.04.37-.69 1.17-1.15 1.43-1.9.12-.34.07-1.08.06-1.44 0-1.02-.75-2.08-.7-3.46l-.04.01c.42-1.75.56-3.57.4-5.37-.08-.96.09-2.66.32-3.6.2-.79 0-1.66-.5-2.29-.44-.54-1.94-.57-2.63-1.85a39.05 39.05 0 0 1-3.4-10.05c-.78-3.82-1.5-7.21-3.97-10.24 6.72.38 13.25-5.18 12.8-14.18-.45-8.8-7.78-13.43-14.57-13.51-6.39-.07-10.94 4.4-10.89 8.66a7.15 7.15 0 0 0 6.99 7.26c2.76.03 5.2-1.83 5.16-4.2-.03-2.35-2.06-2.8-2.06-2.8s1.78 4.67-3.28 4.62c-2.17-.03-3.98-2.02-4.02-4.85-.04-3.13 3.15-5.95 8.17-5.78 5.65.2 10.89 3.4 11.15 11.03.24 6.77-6.57 11.73-12.36 9.12a27.12 27.12 0 0 0-16.53-1.98c-4.24 1-9.4 1.7-13.61.58a5.24 5.24 0 0 1-3.66-3.14c-.7-1.56-.2-3.7-.36-5.41-.34-3.69-2.34-6.5-2.34-9.94z"/>
    <path stroke-linejoin="round" d="M77.97 104.77c-.04.94.37 1 .35 1.92a5.52 5.52 0 0 0 .5 2.65c.24.5.57.95.9 1.4.58.8.61 1.2.8 2.39-.13 2.13.49 2.6.86 4.7.22 1.29.81 2.59.66 3.9-.1.88.4 3.38.14 4.22-.33 1.05-.25 2.17-.41 3.26-.17 1.09-1.01 1.43-1.73 2.27-.26.38-.85.97-1.17 1.1-1.28.73-2-.27-2.89.17-.45.18-.38.13-.63.18-.26.06-.33.02-.6.28-.4.47-.17.85-.17.85s.31-.24 1.03.4c.53.49.55 1.04.55 1.04s.27-.18.82.2c.7.5.72 1.25.72 1.25s.35-.4 1.18.18c.4.36.7.74.64 1.09.23.2 1.21-.22 2.26-.62 1.04-.4 1.45-1.26 1.97-1.84.54-.58.78-2.44.63-3.2 0-.41.13-.62.62-.76.22-.07.6-.05.82-.04.49-.63.27-1.4.25-1.71-.01-.32-.23-.65-.25-.97.1-1.05.67-1.58.94-2.72.3-1.16 0-1.72.07-2.92.04-.83.57-1.53.9-2.28.44-1 .1-1.64-.13-2.7-.15-1.82.7-2.45.11-5.7.06-.94 1.45-2.24 1.63-3.69l.02.03c.12-.32.47-.47.78-.6.32-.14.97-.52.91-1.32-.38.13-.86.32-1.42.3.14-.62.58-.77 1.04-1.06.43-.29 1.03-.74 1.03-1.54-1.11.69-1.7.29-1.7.29"/>
    <path fill="none" d="M126.56 114.9c1.48.64 3.74 1.33 4.4 2.18m-54.81 18.4c.04-.08-.04-.42.29-.75.23-.24.6-.36.92-.24m50.5 2.44c.03-.08 0-.34.29-.71.2-.28.55-.44.88-.36m-2.7-.37c.04-.09-.04-.43.29-.76.23-.24.6-.36.92-.24m-49.87 2.44c.03-.08 0-.34.29-.71.2-.28.55-.44.88-.36"/>
    <g stroke="none" fill="#000">
      <path d="M128.78 111.13c-.07.37.03.7.2 1 .16.3.38.57.65.8.26.26.53.49.8.77.24.27.48.6.55.99-.22-.3-.5-.52-.78-.75-.27-.22-.57-.42-.85-.69a2.48 2.48 0 0 1-.66-.96c-.07-.2-.1-.39-.1-.6.03-.2.08-.4.2-.56zM90.12 98.47a3.17 3.17 0 0 1-.16-.93c-.02-.3-.04-.61-.1-.89-.05-.27-.14-.54-.28-.8s-.3-.52-.44-.83c.27.18.5.4.71.65a1.96 1.96 0 0 1 .42.91c.07.33.04.67.01.98l-.16.91zm-.24 6.84a3.35 3.35 0 0 1-.56-.61 2.73 2.73 0 0 1-.38-.72 2.94 2.94 0 0 0 1.16.97l-.22.36zm-.26 2.33-.44-.07h-.42c-.27.04-.55.2-.8.37.21-.23.44-.44.75-.56.15-.07.32-.1.48-.11l.47-.03-.04.4zM86.65 87.2c.07.13.08.28.07.4a.87.87 0 0 1-.43.65.67.67 0 0 1-.4.1c.06-.14.13-.24.18-.33l.17-.28.18-.26.23-.28zm.51-2.62c.1.1.15.2.18.3a.88.88 0 0 1-.03.63c-.04.1-.1.19-.22.27l-.1-.32c-.02-.1-.03-.19-.02-.28l.04-.3.15-.3z"/>
      <path d="M90 102.38c0 .23.07.46.14.68.07.22.13.45.17.69a2.66 2.66 0 0 1-.11 1.46l-.37-.17a2.7 2.7 0 0 0 .29-1.27c0-.22-.03-.45-.06-.69-.05-.23-.1-.47-.05-.7zM73.17 90.82c-.03.13-.07.23-.11.34l-.16.26a1.1 1.1 0 0 1-.2.24c-.09.08-.17.15-.28.22a.69.69 0 0 1 0-.37 1.06 1.06 0 0 1 .4-.57c.1-.07.2-.12.35-.12zM75 87.53l-.15.46-.12.4c-.03.12-.06.29-.13.44a.59.59 0 0 1-.13.23c-.06.07-.14.14-.22.15.05-.16.04-.3.04-.45 0-.15 0-.3.04-.48a1.03 1.03 0 0 1 .67-.75zm4.77 3.9c.15-.16.33-.27.5-.38l.26-.17.23-.17c.29-.27.54-.57.77-.89.24-.32.49-.66.76-.98.3-.3.64-.6 1.02-.73a5.38 5.38 0 0 0-.77.93l-.69 1.02a3.52 3.52 0 0 1-.91.9l-.3.15-.3.1-.57.21zm-4.46 41.3c.18-.02.34 0 .52.05a1.53 1.53 0 0 1 .84.54c.1.12.18.29.2.45-.11-.12-.2-.22-.33-.31a1.27 1.27 0 0 0-.38-.22c-.13-.06-.26-.1-.4-.11h-.41l-.04-.4zm6.7-1.77c.06.12.1.28.1.41.02.14-.01.3-.07.43s-.14.28-.25.37a.73.73 0 0 1-.4.2c.1-.11.17-.22.24-.33l.15-.34.11-.35.11-.39zm-4.25-26.2c.02-.45.09-.89.23-1.32.13-.43.33-.81.5-1.2.17-.38.31-.77.4-1.18.08-.42.13-.83.23-1.26.08.43.08.87.02 1.3a5.93 5.93 0 0 1-.33 1.27c-.15.41-.33.78-.44 1.18-.1.4-.18.8-.2 1.22l-.4-.02zm57.08 10.37a1.32 1.32 0 0 1 .17.64c.01.22.01.4.04.58.03.17.08.33.2.44.1.12.28.22.49.33a.87.87 0 0 1-.7-.07.88.88 0 0 1-.27-.28c-.07-.1-.1-.23-.12-.36-.04-.23-.02-.46.04-.67l.15-.6zm.2 10.49a34.36 34.36 0 0 1 .5-1.7l.2-.84.2-.87c.1.29.13.6.12.91a4.14 4.14 0 0 1-.46 1.77 2.62 2.62 0 0 1-.55.73zm-59.03 9.47c-.16.1-.33.12-.48.16l-.46.13c-.29.1-.59.22-.81.44.2-.25.48-.43.76-.57l.44-.2c.14-.05.29-.12.39-.18l.16.22zm1.48 1.47c-.17.1-.33.13-.48.17l-.46.12c-.29.1-.6.22-.81.44.19-.24.48-.42.76-.56l.44-.2c.13-.05.29-.12.38-.19l.17.22zm1.92 1.34c-.17.1-.33.13-.49.17l-.45.12c-.3.1-.6.22-.82.44.2-.25.49-.43.76-.56l.45-.2c.13-.05.28-.12.38-.19l.17.22zm-1.98-3.59.3.15.31.2a.9.9 0 0 1 .4.6l-.27-.2-.28-.15-.3-.11-.34-.11.18-.38zm48.06-1.58c.17-.02.34 0 .52.05a1.53 1.53 0 0 1 .84.54c.1.12.18.29.2.45-.12-.12-.21-.22-.34-.31a1.27 1.27 0 0 0-.37-.22c-.14-.06-.26-.1-.4-.11h-.41l-.04-.4zm7.28-2.21a3.35 3.35 0 0 1-.36 1.06c-.1.17-.2.33-.33.47a.97.97 0 0 1-.48.32c.14-.14.22-.3.32-.44l.26-.47.27-.47c.09-.17.18-.33.32-.47zm-3.7 5.16.36.12c.13.06.24.13.35.21s.19.18.27.28c.09.1.14.22.17.34l-.3-.2-.3-.17-.31-.11-.35-.07.11-.4zm-2.87-.6c-.16.1-.33.13-.48.17l-.46.13c-.29.1-.59.22-.81.44.2-.25.48-.43.76-.57l.44-.2c.14-.05.3-.12.39-.18l.16.22zm1.62 1.34c-.17.1-.33.13-.49.17l-.45.12c-.3.1-.6.22-.81.45.19-.25.48-.43.75-.57l.45-.2c.13-.05.29-.12.38-.19l.17.22zm1.78 1.48c-.17.1-.33.13-.49.17l-.45.12c-.29.1-.6.22-.81.44.19-.25.48-.43.75-.56l.45-.2c.13-.05.29-.12.38-.19l.17.22zm-1.98-3.59.3.15.31.2a.9.9 0 0 1 .4.6l-.27-.2-.28-.15-.3-.11-.34-.11.18-.38z"/>
      <path d="m127.47 134.3.53-.14a4.55 4.55 0 0 0 .5-.14c.17-.05.32-.13.48-.25.15-.1.27-.22.41-.34-.1.15-.2.3-.34.43-.13.12-.28.26-.45.34-.16.1-.33.17-.5.25l-.5.24-.13-.4zm1.47 1.38.5-.2.5-.19c.15-.08.3-.19.43-.31.14-.11.25-.27.36-.4a2.7 2.7 0 0 1-.68.88c-.15.12-.31.2-.47.3l-.47.3-.17-.38zM78.19 99.5a3.2 3.2 0 0 1-.37-1.3 3.8 3.8 0 0 1 .73-2.6c.26-.37.57-.7.9-.99l-.62 1.16a7.78 7.78 0 0 0-.49 1.17 4.7 4.7 0 0 0-.2 1.24c-.02.45.01.87.05 1.32zm3.5 5.27a.95.95 0 0 1-.4-.28 1.38 1.38 0 0 1-.25-.4c-.06-.14-.1-.3-.13-.45-.01-.16-.01-.32.04-.49a2.73 2.73 0 0 1 .46.78l.15.4.12.44zm1.76.5a1.15 1.15 0 0 1-.55-.21c-.17-.11-.3-.27-.42-.42a1.88 1.88 0 0 1-.4-1.06c.17.12.3.26.42.4l.33.43.3.43.32.44zm1.1-.23c-.08.04-.16.03-.23.02l-.2-.07a.95.95 0 0 1-.34-.25 1.08 1.08 0 0 1-.22-.33.7.7 0 0 1-.05-.42c.12.09.23.16.31.24l.27.25.23.27.11.16c.03.04.06.1.11.13zm1.54-.18a.78.78 0 0 1-.47.02 1.03 1.03 0 0 1-.68-.61.97.97 0 0 1-.08-.44c.15.08.25.18.36.26l.27.26.28.25.32.26zm.52-.71c.15-.27.3-.5.43-.76a5.19 5.19 0 0 0 .52-1.56c.06-.28.09-.55.13-.86.14.28.19.58.19.89s-.04.62-.14.9a2.53 2.53 0 0 1-1.13 1.39zm23.49-7.46c.07-.1.16-.13.25-.18a.87.87 0 0 1 .26-.04c.08 0 .18.03.26.07.08.04.17.1.22.2-.1.08-.18.1-.27.13l-.24.03a.69.69 0 0 1-.23-.04.87.87 0 0 1-.25-.17zm-3.2 1.08a.75.75 0 0 1 .26-.34c.1-.09.23-.16.37-.2a.9.9 0 0 1 .43-.03c.14.02.28.07.4.17l-.37.17-.35.1-.34.09-.4.04zm-2.74 2.6.5-.32.46-.32.42-.36.45-.4c0 .22-.07.43-.18.6a1.77 1.77 0 0 1-1 .78 1.3 1.3 0 0 1-.65.01zM86 111.73l-.01-.45.02-.4.06-.4c.03-.13.05-.27.1-.42a1 1 0 0 1 .23.41c.04.15.06.3.03.46a1.24 1.24 0 0 1-.13.44.94.94 0 0 1-.3.36zm-.88 6.65.15.84c.04.28.08.58.05.88a1.52 1.52 0 0 1-.33.87c-.2.24-.4.39-.54.65a.83.83 0 0 1 .09-.44l.19-.39.14-.36.07-.37.04-.83a2.07 2.07 0 0 1 .14-.85zm.84-5.6c.1.12.16.27.14.46-.04.2-.17.32-.24.42l-.23.27-.28.32a.91.91 0 0 1-.03-.47c.05-.15.11-.29.21-.41l.25-.25c.07-.07.1-.2.18-.34zm28-14.16.67.73.65.73.67.72.67.73a3.73 3.73 0 0 1-.88-.5 5 5 0 0 1-1.78-2.41zm12.89-6.93a12.88 12.88 0 0 0-1.05-1.08 5.5 5.5 0 0 0-1.23-.87c.48.15.94.43 1.35.7.43.3.83.61 1.22.96l-.3.29zm-4.72 1.05c.25-.06.52-.03.77.05a2.06 2.06 0 0 1 1.16 1c.11.23.2.5.18.74-.15-.2-.29-.4-.44-.56a5.31 5.31 0 0 0-1.04-.89l-.63-.34zm-3.02-1.26c.12-.1.27-.14.41-.16.15-.02.29 0 .44.04.14.04.28.1.39.2.1.1.2.21.26.36a3.23 3.23 0 0 1-.77-.16l-.36-.11-.37-.17zm-40.2 44.19.36.12c.12.06.23.13.34.21s.2.18.28.28c.08.1.13.22.16.34l-.3-.2-.3-.17-.3-.11-.35-.07.1-.4z"/>
      <path d="m78.76 135.68.5-.2.5-.19c.16-.08.3-.19.43-.31.14-.11.25-.27.36-.4a2.7 2.7 0 0 1-.67.88c-.16.12-.32.2-.47.3l-.47.3-.18-.38zm-1.46-1.38.52-.14a4.55 4.55 0 0 0 .51-.14c.17-.05.32-.13.47-.25.15-.1.28-.22.41-.34-.1.15-.2.3-.34.43-.13.12-.28.26-.44.34-.17.1-.33.17-.51.25l-.5.24-.12-.4z"/>
    </g>
    <g>
      <path d="M80.43 67.45a7.9 7.9 0 0 1-.42 2.27c-.34 1-.58 1.98-.77 3.03a7.52 7.52 0 0 0 .43 3.74c.34 1.02.68 2.06 1.17 3.02.7 1.38 1.52 1.9 2.3 2.85.23.3.49.6.85.74.6.22 1.24-.1 1.78-.4l1.06-.6a6.49 6.49 0 0 0 2.62-3.83c.45-2.3.58-3.77-.15-6-.45-1.4-1.34-2.83-1.56-4.3-.08-.57-.08-.35-.16-.92"/>
      <g stroke="none" fill="#000">
        <path d="M72.13 62.73c.25-.15.53-.23.82-.26.29-.03.58-.01.87.1.27.1.5.25.76.38.23.14.45.3.7.42-.27-.03-.55-.14-.8-.24-.26-.1-.51-.2-.74-.27-.25-.06-.5-.06-.76-.07-.3 0-.57-.02-.85-.06zm5.37 14.75-.08.38-.1.38c-.04.13-.08.27-.18.4l-.04.06-.05.05-.09.07-.16.11c-.22.16-.5.28-.77.33-.28.06-.54.06-.8.06v-.41l.74-.05c.24-.02.44-.1.66-.22l.17-.1.07-.03.03-.02.02-.03c.07-.06.13-.17.18-.29s.1-.23.17-.34c.04-.14.1-.28.23-.35zm-2.72-9.28a.8.8 0 0 1 .4-.03 1.26 1.26 0 0 1 .69.36.97.97 0 0 1 .21.34l-.36-.12-.31-.15-.3-.17-.33-.23zm4.17-1.53c.11.08.18.16.25.23l.17.25a1.49 1.49 0 0 1 .18.6.65.65 0 0 1-.34-.15.86.86 0 0 1-.31-.58.68.68 0 0 1 .05-.35zm-10.4 1.76a.5.5 0 0 1 .4-.04c.13.03.25.1.36.18a1 1 0 0 1 .34.65 1.38 1.38 0 0 1-.32-.2l-.25-.2-.23-.2-.3-.19zm-1.6-.5a.45.45 0 0 1 .26-.15.62.62 0 0 1 .5.14c.08.06.13.14.16.25a.75.75 0 0 1-.5.03.58.58 0 0 1-.19-.09l-.23-.19zm8.47 1.55c.2-.01.4 0 .6.06a1.52 1.52 0 0 1 .56.29c.08.06.15.15.22.24l.14.28c.07.2.1.36.19.54-.2-.06-.36-.24-.47-.39-.1-.15-.2-.27-.33-.37a3.2 3.2 0 0 0-.41-.3c-.18-.1-.35-.21-.5-.35zm-1.9 1.68c.4.3.8.57 1.18.9.39.33.7.72.98 1.13a6 6 0 0 1 .39.64c.1.22.23.45.3.7a2.2 2.2 0 0 1-.03 1.5c.03-.5-.1-.96-.27-1.39l-.33-.62-.39-.6c-.28-.4-.55-.78-.87-1.14-.33-.34-.69-.69-.95-1.12zm5.57-8.2a11.04 11.04 0 0 1 1.09 2.12 6.9 6.9 0 0 1 .46 2.37l-.42-.01a6.85 6.85 0 0 0-.26-2.3 12.36 12.36 0 0 0-.9-2.16l.03-.01zm8.28 4.12a6.03 6.03 0 0 0-1.8-3.7l.02-.03c.3.2.57.46.8.72a6.7 6.7 0 0 1 1.38 2.95l-.4.06z"/>
      </g>
    </g>
    <g>
      <path d="M70.12 63.17c0 .34.03.7.33.93"/>
      <path fill="#f6f6f6" d="M74.48 65.55s-.62.2-1.14.43c-.53.23-1.77.05-1.96-.3-.1-.23.02-1.1.42-1.2.5-.23.96-.19 1.63.23.65.4 1.04.82 1.05.84z"/>
      <g stroke="none" fill="#000">
        <path d="M70.58 63.93c.02.03.1.06.17.07l.25.03h.54a7.31 7.31 0 0 0 1.1-.14l.3-.05a2.86 2.86 0 0 1 .9 0c.38.05.76.2 1.05.47a3.35 3.35 0 0 0-1.62-.21l-.27.05-.26.09a8.32 8.32 0 0 1-1.74.23l-.31-.03c-.11-.02-.23-.05-.35-.13l.24-.38zm-6.5 3.41c.06.07.08.17.06.26 0 .09-.05.17-.1.24s-.13.12-.2.15a.47.47 0 0 1-.25.06c.03-.1.07-.17.11-.23l.13-.16.12-.15.14-.17zm-.02-1.02c.06.01.11.06.14.1.03.05.04.1.04.18s-.01.12-.04.18l-.12.15c-.2.16-.45.2-.52.3-.1.13-.19.32-.28.51-.06.1-.1.2-.18.3a.6.6 0 0 1-.43.24v-.41l.04-.02.07-.05.16-.22c.11-.17.21-.38.4-.54l.17-.11.08-.03.09-.03c.1-.03.19-.05.26-.1l.1-.06.06-.11c.04-.1.04-.21-.04-.28zm7.34-.57-.52.1c-.18.04-.35.07-.51.13l-.03-.05.46-.3.47-.28.13.4zm-3.72.46c0-.11.02-.2.07-.29.04-.08.1-.17.16-.23s.15-.13.24-.17c.1-.04.19-.07.3-.04l.01.05-.15.22-.16.18a.8.8 0 0 1-.21.16.43.43 0 0 1-.26.12zm7.99-.98-.38-.3a3.73 3.73 0 0 0-.82-.38l-.46-.13v-.05a1.66 1.66 0 0 1 1 .11c.31.14.57.42.66.75zm-5.56.14-.3.29-.3.25-.3.23c-.11.08-.2.15-.35.22l-.05-.03a1.05 1.05 0 0 1 .44-.75 1 1 0 0 1 .4-.21c.14-.04.3-.06.46-.02v.02zm3.4 3.16c.03-.36.09-.7.2-1.05.1-.35.26-.69.52-.98a2.07 2.07 0 0 1 .95-.6 2.6 2.6 0 0 1 1.08-.1v.07c-.33.1-.66.2-.95.35a2.6 2.6 0 0 0-.76.57 3.8 3.8 0 0 0-.54.81c-.15.3-.29.62-.5.93zm-1.27-3.96c.18 0 .2.15.2.52l-.02.28c-.04.23 0 .38-.13.38-.14 0-.39-.16-.45-.4l-.02-.26c-.02-.36.26-.52.43-.52z"/>
      </g>
    </g>
  </g>
</svg>
