<svg xmlns="http://www.w3.org/2000/svg" viewBox="0 0 90 90">
<path stroke="none" d="m 46.8,34.2c -2.1,-0.1 -3.9,1 -4.4,1 -2,-0.2 -4.5,0.2 -5.8,0.9 -1.5,1.1 -5.9,2.3 -5.3,4.3 1,0.8 2.8,-0.2 3.8,0.3 1.3,0.7 2.6,0.9 4,0.8 1,-0.1 2,-0.4 2.2,0.9 0.3,1.7 1,3.1 1.9,4.6 0.7,2.2 0.9,2.5 0.9,6.1h 1.8c 0,-1 -0.1,-3.6 1.1,-5.1 1,-1.3 1.3,-3.1 2.7,-4 0.8,-1.3 1.8,-2.3 3.4,-2.4 1.5,-0.3 3.4,0.7 4.6,0.3 0.8,-0.1 2.9,0.9 3.1,-0.9 0.1,-1.8 -2,-1.9 -2.9,-3C 57,36.6 54.9,36.2 53.5,36.3 51.6,34.6 49.3,34.1 46.8,34.2Zm 6.5,2.4c 1.5,0 3.1,0.1 4.1,1.4 0.9,1.1 3.1,1.6 3.1,2.7 0,1.9 -2.9,0.5 -3.2,0.1 -1.2,-1.3 -2.6,-0.5 -4,-0.6 -1.4,-0.1 -2.9,0.4 -4.1,-0.5 -1,-0.6 -2.2,0.1 -3.4,-0.1 -1.6,-0.2 -3.6,-0.4 -5.3,-0.1 -1.3,0 -2.5,0.1 -3.8,0 -1.5,0.5 -5,1 -4.9,0.4 0.2,-1 4,-2.9 5.3,-3.5 1.7,-0.8 3.3,-1 5.6,-0.7 3.3,-1.7 7.9,-1.6 10.7,1zM 48.1,40c 1.4,0.3 1.8,2 1.1,3 -0.9,1.2 -0.9,-1.2 -1.2,-1.8 -0.2,-0.5 -0.7,-1.2 0.1,-1.2zm -11.6,0.2c 0.9,-0.1 3.1,-0.3 2.8,0.8 -1.3,0 -3.1,0.1 -4,-0.5 0.4,-0.2 0.8,-0.2 1.2,-0.3zm 5,-0.1c 0.7,0.1 2.8,-0.3 2.7,0.5 -1.2,0.5 -1.4,2 -1.9,2.8 -0.4,-1.1 -0.6,-2.4 -1.9,-2.9 -0.8,-0.5 0.9,-0.5 1.2,-0.4zm 4.8,0.3c 1,0.1 1.4,2.2 0.1,1.2C 45,40.4 45.9,40.3 46.4,40.3Zm 6.8,0.4c 1.1,0 3,-0.2 2.6,0.2 -1.3,1.1 -2.7,-0.3 -4.3,0.7 -0.8,0.5 -1.8,0.7 -1,-0.4 0.5,-0.5 1.2,-0.5 2.7,-0.5zm -8,0.1c 0.6,1.1 1.9,1.4 2.6,1.9 0.8,1.4 -0.5,2.8 -1.2,4 -0.8,1.4 -1.7,2 -2.2,0.3 -0.1,-0.5 -1.6,-2 -1.1,-3.3 0.3,-1.2 0.5,-2.3 1.8,-2.9zm 11.2,0.1c 0.5,0.2 1.2,1 0.2,0.8 -1.3,-0.1 -1.3,-0.3 -0.2,-0.8z" fill="#5c5c70" />
<path fill="#ffffff" d="m31.05 40.05 c 1.62, -2.7 7.29, -5.13 11.34, -4.86 5.4, -1.98 8.37, -0.81 10.71, 1.17 1.53, 0.18 2.88,-0.27 4.68, 1.98 2.43, 1.08 3.33, 2.16 2.43, 3.33 -1.44, 0.27 -1.98, 0 -4.23, -1.44 -4.68, 0.09 -6.3, 0.63 -7.83, -0.81 -2.52, 0.9 -3.24, 0 -8.73, 0.18 -4.14, 0 -7.2, 1.44 -8.37, .36 z" stroke-linejoin="round" fill="none" />
<path stroke="none" d="m42.3 38.097 c1.8 0.09 3.69 0.45 5.49 -0.27 1.26 -0.27 2.34 0.72 3.24 1.44 0.63 0.36 2.25 0.63 2.43 1.08 -1.98 -0.09 -3.24 0.36 -4.32 -0.36 -0.9 -0.63 -1.98 -0.27 -2.7 -0.18 -0.81 0.09 -2.7 -0.36 -4.95 -0.18 -2.34 0.18 -4.59 -0.09 -6.48 0.45 -3.24 0.54 -3.33 0 -3.33 0 1.98 -1.8 8.19 -1.53 10.71 -1.98 z" fill="#999999" />
</svg>
