<?xml version="1.0" encoding="UTF-8"?>
<svg width="1672" height="1672" version="1.1" viewBox="0 0 1672 1672" xmlns="http://www.w3.org/2000/svg">
   <path d="m834.446 513.79c-5.0157 0.67632-11.0343-1.34671-15.4449 1.73033-2.11407 3.34904-1.53468 7.94968-0.69072 11.6312 6.07577 5.72268 4.21686 10.1099 4.10977 20.5974 0 0 30.6256 2.08019 45.513 1.72318-1.11197-5.45341-0.54939-12.2847 0.34-17.7978 1.05342-1.75941 4.22643-1.73023 4.26392-4.40881-0.0425-3.7163 1.42227-8.24622-0.77373-11.5285-5.23549-2.87523-11.7868-1.23297-17.5128-1.83554-6.60138-0.0594-13.2028-0.12956-19.8046-0.11143zm-178.647 0.81312c-0.48693 4.9297-1.79268 10.3502-0.15896 15.127 1.69916 1.73105 5.05965 2.56531 4.25125 5.72555 0.0642 3.43461-0.49449 7.79664-0.12364 11.0912 14.5642-0.13426 29.1995 0.39775 43.6295-0.0637 0.12001-5.74676-0.39831-13.7523 4.72379-17.6449 1.59884-4.54901 0.43448-9.8232 0.26025-14.4081-17.5046 0.1162-35.1857-0.23074-52.5822 0.17304zm166.437 533.217-0.0216 17.4762c-5.44705 2.3254-5.11263 10.4367-3.76796 14.936 1.8702 4.1949 7.66047 2.7442 11.3372 3.3467 13.5063 0.018 33.8403 0.8854 40.5515-1.0888 4.03907-6.5785 1.72574-16.2731-2.92262-18.0854l-0.14445-18.1989zm-163.519 2.4802 0.0784 15.0766c-3.59344 1.2132-4.45917 5.1481-3.84329 8.5334 0.60644 2.9898-0.64571 8.5996 3.80249 8.8852 13.0055 1.6915 26.2477 0.5868 39.3336 0.4636 3.44477-0.7643 9.44314 1.3245 10.6419-3.415 1.8346-6.1191-1.27257-12.08-4.23015-17.2076l-0.11267-12.8607z" fill="#87786b" fill-rule="evenodd" stroke-linecap="round" stroke-width=".544453"/>
   <path d="m467.547 1051.6c-103.487-1.2357-164.621-6.627-268.214-23.6533-44.6703-7.342-123.069-23.6143-128.959-26.7666-5.34164-2.8588-6.1697-6.5771-8.27926-37.177-4.28836-62.2041-5.06744-94.6158-4.37469-182 0.84406-106.471 4.56281-177.753 9.56137-183.277 2.71748-3.00278 21.7973-7.78488 69.6042-17.4453 124.687-25.1957 228.754-36.721 348.781-35.9374l158.691 1.03603c159.149-1.80408 311.918-0.65869 460.976 47.7956 14.3456 4.66332 35.6 12.6249 47.3334 17.3858 23.049 9.35231 70.5531 32.074 90.1316 43.1108 89.2906 50.3344 78.7921 55.8173 103.489 35.0101 2.0647-1.73951 9.87-5.55495 19.1106-11.3317 9.8643-6.16671 26.1851-16.2162 36.2685-22.3321 14.6841-8.9065 18.3333-11.7073 18.3333-14.071 0-6.93448-8.1124-8.02206 135.042 18.1043l38.3754 7.0037 3.0438-2.85949c3.722-3.49659 9.0402-3.69023 11.9849-0.43636 1.956 2.16137 2.2304 8.96669 2.5399 63l0.3471 60.5769 9.8652 0.7664c11.23 0.8724 14.8015 3.5625 14.8015 11.1489 0 6.9781-4.2934 9.8736-15.3467 10.3498l-9.32 0.4016-0.6666 62.4416c-0.6391 59.8602-0.7737 62.5198-3.2549 64.3333-3.5938 2.6268-6.4467 2.368-10.69-0.9697l-3.6377-2.8615-34.8754 6.2114c-75.8346 13.5066-128.432 22.4743-132.875 22.655-4.2983 0.1749-4.6707-0.1168-4.7187-3.6956-0.049-3.6236-2.4749-5.4056-36-26.4395-19.7713-12.4048-36.3727-22.7882-36.8515-23.1337-32.8348-23.6918-70.8487 13.202-106.834 30.495-43.8078 21.0523-97.9949 47.695-144.44 63.6628-56.1662 19.3101-161.223 36.5808-206.89 41.8881-12.8324 1.4913-109.15 3.8641-109.15 3.8641-46.2339 0.7607-92.8341 1.9246-138.341 1.8852-9.47574-0.01-174.561 1.2604-174.561 1.2604zm958.209-109.264c9.6621-25.8544 22.1183-96.1391 22.2183-125.368l0.026-7.7013-20.2481 0.368-20.248 0.3681-4.4091 7.5488c-5.4395 9.313-15.1779 20.0906-26.3265 29.136-8.4151 6.8276-8.4934 6.9547-13.4007 21.7581-2.7149 8.1897-6.9575 19.2693-9.4281 24.6213l-4.492 9.731 10.8953 6.9357c38.1979 24.3161 60.5201 38.1051 61.8094 38.1813 0.817 0.048 2.4385-2.4622 3.6032-5.5789zm22.4932-163.667c-1.7441-36.15-10.2328-81.9259-22.5521-121.613l-2.3632-7.61319-16.6666 10.3359c-9.1667 5.68477-25.0667 15.3608-35.3334 21.5024-10.2666 6.14152-21.5802 12.7954-22.3173 13.2103 1.1556 2.15967 3.7126 5.56646 6.6301 12.407s6.61 16.3983 8.2054 21.2393c2.6001 7.88977 3.7934 9.52615 11.5147 15.7908 16.4115 13.3154 27.8014 27.4591 32.5689 40.4431l1.3594 3.7024 39.3722-0.7382z" fill="#87552b"/>
   <path d="m530.667 1019.69c-530.667-1019.69-530.667-1019.69 0 0zm-354.667-271.689h84v101.333h-84zm246.396-171.56 152.21-0.3465-0.26934 444.85-148.933-0.2841z" fill="#714724"/>
   <path d="m532 1052-49.6667-0.01c-52.8403-0.01-91.6311-1.3995-131.667-4.7234-84.8468-7.0442-178.658-21.609-258.439-40.124-26.793-6.218-27.505-6.7497-28.775-21.4891-7.96973-92.495-9.04886-221.784-2.74043-328.323 2.82934-47.7829 3.77484-55.7467 7.0016-58.9735 2.92914-2.92913 9.87404-4.76601 51.6191-13.6529 58.104-12.3694 113.705-21.7046 166.667-27.9827 68.1098-8.0737 101.697-10.1433 178.333-10.9889l67.6563-0.62075-0.27044 30.3246-52.8596 0.1661c-55.9025 0.17567-87.2881 1.51883-136.193 5.82843-79.5162 7.00714-165.588 20.5625-240.898 37.9386l-9.5643 2.20677-0.776349 9.54511c-6.36662 78.2768-7.02403 206.146-1.61878 314.857l1.52372 30.6453 38 7.67071c129.457 26.1322 233.668 37.1516 352.856 37.3111l49.5228 0.066zm426.933-16c-0.5866 0-11.2366 1.4759-23.6667 3.2799-12.4301 1.8039-31.9001 4.2259-43.2668 5.3822-20.5834 2.0939-104.502 4.5486-158.249 4.629l-69.0773 1.141-39.3262 0.5696 10.1124-15.3018 10.1124-15.3018 47.5471-0.8607c26.1509-0.4734 70.9471-1.1715 99.5471-1.5514 77.7718-1.0328 97.1983-2.2901 144.57-9.356 12.0471-1.7969 22.0467-3.1238 22.2214-2.9487 0.78207 0.7841 0.0616 30.3187-0.52506 30.3187zm-407.228 10.6667c0.82165-24.8583 1.14409-25.3334 17.1933-25.3334 7.98637 0 11.1038 0.4676 11.1112 1.6667 0.0226 3.667-5.90163 30.1458-6.64223 29.6881-0.43657-0.2698-5.27297-0.6389-10.7476-0.8202l-9.9538-0.3297zm428.294-17.9242c0-2.1566 4.31228-6.8384 15.2363-16.5419 8.37998-7.4437 15.5047-13.5339 15.8326-13.5339 0.328 0-0.4999 6.10333-1.8397 13.5629-1.3399 7.4596-2.0718 14.1523-1.6266 14.8727 0.4452 0.7203 0.1533 0.9042-0.6486 0.4086-1.195-0.7385-11.2401 0.7816-24.6207 3.726-1.68441 0.3707-2.33333-0.3231-2.33333-2.4944zm0-20.3203c0-5.6565 0.44118-6.8932 2.66667-7.4752 3.12892-0.8182 3.12167-0.859 1.10856 6.2316-2.36013 8.313-3.77523 8.7791-3.77523 1.2436zm118.209-37.8848c55.7193-20.6795 108.276-44.6833 145.551-67.8019 5.9289-3.67723 11.0446-6.24702 11.3682-5.71066 1.241 2.05665 0.9733 34.9752-0.2843 34.9752-0.7097 0-5.6899 2.59188-11.0672 5.75974-22.7911 13.4268-65.2793 34.2013-93.1101 45.5261-12.5024 5.0874-46.3642 17.9396-74.8129 25.8326zm-673.32-30.0929c-1.85485-1.85484-0.91513-10.8157 1.22016-11.6351 1.15998-0.44513 25.46-0.80932 54-0.80932h51.891v13.3333h-53.1111c-29.2111 0-53.5111-0.4-54-0.88889zm846.399-19.1111s0.684-10.5747 0.694-19.4253l0.018-16.092 6.9517-4.8452c3.8234-2.66487 7.1173-4.67964 7.3196-4.47728 0.2024 0.20236-1.7591 7.5241-4.3587 16.2705-2.5997 8.74643-5.5425 18.9026-6.5396 22.5693-2.0225 7.43748-4.0852 6-4.0852 6zm97.2272-70.2189c1.2274-3.91492 6.1517-33.7305 6.1517-37.2469 0-3.15212 0.1978-3.20259 13-3.31651 7.15-0.0636 15.1-0.29757 17.6666-0.51987 2.5667-0.2223 3.9517-0.1319 3.0777 0.2009-0.8739 0.33279-2.9308 3.41673-4.5708 6.85319-2.9903 6.26585-27.084 31.6558-33.0897 34.8699-2.6615 1.42442-2.9156 1.32885-2.2355-0.84067zm7.5949-65.5757c-0.7244-1.35368-1.9678-7.69733-2.7631-14.097-1.7921-14.4221-5.1969-31.2528-7.0216-34.7104-1.9253-3.6481 20.7927 16.7721 28.6546 25.7563 5.3582 6.12312 14.3535 21.6044 14.3535 24.7029 0 0.44516-7.1789 0.80938-15.9531 0.80938-14.1446 0-16.1024-0.27901-17.2703-2.46125zm-98.4432-75.0736-5.6667-3.94463 0.1237-14.927 0.1238-14.9269 5.9431 17.7994c3.2687 9.78967 5.763 18.2819 5.5429 18.8716-0.2201 0.5897-2.9502-0.7029-6.0668-2.87245zm-31.6667-19.3125c-35.5801-21.5281-104.22-53.3788-140.155-65.0355-6.8129-2.21003-6.8288-2.22858-12.9686-15.1649-3.3811-7.1237-7.6955-15.5022-9.5876-18.6189-4.3433-7.15418-3.9188-7.16667 16.3346-0.48049 32.2337 10.6412 61.4794 22.2766 91.6027 36.444 17.9348 8.435 54.6169 27.335 61.9899 31.9395 2.5864 1.61527 2.7837 2.94401 2.7837 18.7511 0 9.35693-0.45 17.0111-1 17.0092-0.55-2e-3 -4.6-2.18164-9-4.84391zm-822.218-29.098c-1.18468-2.60009-1.06062-3.93996 0.59941-6.47348l2.09328-3.19476 105.525-0.09128v13.0382h-106.724zm558.551-68.3978c-1.8513-0.41179-2.33333-1.93112-2.33333-7.35458 0-7.84621 1.60871-7.1359 3.74769 1.65474 1.635 6.71944 1.71526 6.39596-1.41436 5.69984zm12.6406-13.2575c-8.23564-7.02023-14.9739-13.7797-14.9739-15.021 0-2.10017 0.8569-2.11969 12.3333-0.28095 6.78334 1.08681 12.541 2.14212 12.7947 2.34512 0.5119 0.40962 5.3945 25.0779 5.0417 25.4726-0.122 0.13659-6.9602-5.49549-15.1958-12.5157zm-55.6093 6.76657c-95.8801-11.8147-192.88-9.72037-289.365-10.5526l-8.94558-13.1628c-4.92007-7.23952-10.3201-14.7093-12-16.5996-1.67993-1.89026-2.09387-2.70576-0.91986-1.81223 3.94273 3.00081 194.488-0.89998 265.078 6.33288 19.9571 2.04486 63.7877 8.00215 63.7877 8.00215s2.70727-1.21002 2.70315 29.9597l-4.18491-0.15148c-2.3017-0.0833-9.57083-0.99052-16.1536-2.016zm-386.783-24.184 0.0391-17.4304 22.6181 0.15727c1.99847 9.91351 4.11334 20.455 6.28072 30.3324l-13.8265 0.10427z" fill="#c88f3d"/>
   <g>
    <path d="m538.536 763.675c-12.7065 0.30419-24.7843 10.6552-26.4842 23.3614-0.6754 7.2042-0.16458 14.7711 4.26462 20.7951 6.29875 10.5772 19.6316 15.8377 31.501 12.69 18.266-3.69776 28.9033-27.9431 17.6767-43.3772-5.91828-8.61621-16.2493-14.8409-26.9581-13.4693zm427.88 0.76397c-12.7065 0.3042-24.7843 10.6552-26.4842 23.3614-0.6754 7.2042-0.16458 14.771 4.26462 20.795 6.29875 10.5773 19.6316 15.8377 31.501 12.6901 18.266-3.6978 28.9034-27.9431 17.6767-43.3773-5.91828-8.6162-16.2493-14.8408-26.9581-13.4692zm291.706 3.75186c-12.7065 0.3042-24.7843 10.6552-26.4843 23.3614-0.6754 7.2042-0.1646 14.771 4.2646 20.795 6.2988 10.5773 19.6316 15.8377 31.501 12.6901 18.266-3.6978 28.9034-27.9431 17.6768-43.3773-5.9183-8.6162-16.2493-14.8408-26.9581-13.4692z" fill="#874e1c" fill-rule="evenodd" stroke-linecap="round" stroke-width=".58219"/>
    <path d="m535.871 1157.17c-4.39641 0-7.68343-8.1608-7.68343-12.1997 0-1.3306 1.25515-4.7611 2.7892-7.6233 1.31671-2.4567 2.41116-4.1424 2.32196-9.1963l-1.35076-76.5299 0.32694-507.364c1.2e-4 -0.18951 0.41428-20.6129 0.81388-45.399 0.65585-40.6815 0.5121-45.3026-1.47767-47.5013-3.35113-3.70296-4.06019-11.001-1.54195-15.8707 4.5307-8.7614 16.2518-10.4073 22.9299-3.28 4.54633 4.85214 6.29882 12.9716-0.4641 19.8287l0.62668 682.688c0.94002 1.817 7.26194 9.4435 1.65309 17.9414-1.98252 3.0037-8.12614 6.6108-12.2276 6.5394-1.68642-0.029-4.43222-2.0338-6.71612-2.0338zm428.138-1.7163c-4.39641 0-7.68343-8.1608-7.68343-12.1997 0-1.3306 1.25515-4.7611 2.7892-7.6233 1.31671-2.4567 2.44934-4.1432 2.32196-9.1963l-1.72891-68.5799 0.32694-507.364c1.2e-4 -0.1895 0.41428-20.6129 0.81388-45.399 0.65585-40.6815 0.5121-45.3026-1.47767-47.5013-3.35113-3.70296-4.06019-11.001-1.54195-15.8707 4.5307-8.7614 16.2518-10.4073 22.9299-3.28 4.54633 4.85214 6.29882 12.9716-0.4641 19.8287l1.00483 674.738c0.94002 1.817 7.26194 9.4435 1.65309 17.9414-1.98252 3.0037-8.12614 6.6108-12.2276 6.5394-1.68642-0.029-4.43222-2.0338-6.71612-2.0338zm286.705-145.198c-0.1704-7.0388 6.2246-9.737 6.2187-16.7298l-0.3322-396.16c-3.74-3.85867-8.2403-9.27143-4.513-17.2505 4.1747-8.93654 15.2369-10.9162 22.6058-4.13443 4.8927 4.50281 6.3121 14.4284-2.5237 21.3718l0.1675 398.706c5.4098 7.21222 8.7114 14.2458 3.7132 21.9747-2.7693 4.2822-7.2309 5.995-11.3833 5.9668-8.7008-0.059-13.8186-8.1953-13.953-13.7447z" fill="#874e1c"/>
    <path d="m458 575.996 0.41602 23.002c0.2286 12.6509 0.0408 25.5513-0.41602 28.668-0.90504 5.81745-3.40708 5.94049-8.66602 5.66796v-57.334h-6.66796c-5.36306 0-6.71649 0.45691-6.92188 2.33398-0.14042 1.28334-0.28913 18.3818-0.33203 37.998l-0.0781 35.666 7 2e-3h7v-16.1699c2.86872 0.2766 7.00017-0.0136 8.83204 2.5039 0.0917 0.91667 0.24228 4.36602 0.33398 7.66602l0.16602 6h14.668v-76zm64 2e-3 -15.4531 2e-3 0.49415 76h14.2129zm-39.2988 2e-3 0.13867 38 0.13868 38h14.127l0.1289-76zm79.2988 57.3339c-5.77778 0-10 0.56167-10 1.33204s4.22222 1.33398 10 1.33398 10-0.56361 10-1.33398-4.22222-1.33204-10-1.33204zm117.152 1.00977c-0.77115 0.10332-1.15972 0.31153-0.98047 0.60156 0.3585 0.58007 3.16686 1.00712 6.24024 0.94922 6.27227-0.11816 5.39452-0.79067-1.98438-1.51953-1.34928-0.13328-2.50423-0.13457-3.27539-0.0312zm-580.152 0.04102c-3.85046-0.21175-7.00046 0.06523-7 0.61523s4.34935 0.91823 9.66602 0.81836c10.1798-0.19121 9.07076-0.78811-2.66602-1.43359zm1020.29 0.11132c-3.9277 0.0213-7.8572 0.29077-8.3555 0.78907-0.3932 0.39319 3.3854 0.71484 8.3965 0.71484s8.7477-0.36163 8.3047-0.80469c-0.4929-0.49289-4.4181-0.72054-8.3457-0.69922zm-123.777 0.041c-1.44351-0.16683-3.56957-0.13066-6.52734 0.0937l-8.32226 0.63281 8.66796 0.80469c4.76667 0.44284 8.79672 0.90859 8.95704 1.03516 0.16031 0.12657 4e-3 -0.52084-0.34571-1.4375-0.22632-0.5924-0.98617-0.96208-2.42969-1.12891zm-281.1 0.46484c-11.2286 0.22328-2.41602 0.40567 19.584 0.40627s31.1874-0.18044 20.416-0.40429c-10.7713-0.22376-28.7713-0.22521-40-2e-3zm104.666 0c-10.8615 0.22437-2.3487 0.40952 18.918 0.41016 21.2667 6.3e-4 30.1532-0.1832 19.748-0.4082-10.4051-0.22485-27.8045-0.22633-38.666-2e-3zm-444.082 0.00393c-7.88333 0.23573-1.43268 0.42773 14.334 0.42773 15.7667 0 22.2154-0.192 14.332-0.42773-7.88334-0.23573-20.7827-0.23573-28.666 0zm510.723 4e-3c-4.9805 0.25724-1.25599 0.47065 8.27734 0.47265s13.6075-0.20918 9.05469-0.46875c-4.55283-0.25933-12.3515-0.26113-17.332-4e-3zm45.9434 0c-5.31667 0.25308-0.96537 0.46093 9.66796 0.46093 10.6333 0 14.9827-0.20785 9.66602-0.46093s-14.0173-0.25308-19.334 0zm-651.332 0.01c-3.48333 0.27466-0.63463 0.5 6.33204 0.5 6.96666 0 9.81731-0.22534 6.33398-0.5-3.48333-0.27467-9.18268-0.27467-12.666 0zm-86 0.0156c-2.38333 0.29577-0.43463 0.53906 4.33204 0.53906 4.76666 0 6.71731-0.24329 4.33398-0.53906s-6.28268-0.29577-8.66602 0zm-55.334 0.00946c-2.01667 0.3055-0.36732 0.55469 3.66602 0.55469 4.03333 0 5.68463-0.24919 3.66796-0.55469-2.01666-0.3055-5.31731-0.3055-7.33398 0zm111.35 0.0117c-1.65855 0.31892-0.61693 0.59262 2.31641 0.60742s4.29041-0.24635 3.01562-0.58008c-1.27478-0.33372-3.67348-0.34627-5.33203-0.0273zm81.332 0c-1.65855 0.31892-0.61497 0.59262 2.31836 0.60742 2.93335 0.0148 4.29041-0.24635 3.01562-0.58008-1.27478-0.33372-3.67543-0.34627-5.33398-0.0273zm-14.6816 0.00197c-1.65 0.31781-0.3 0.57813 3 0.57813s4.65-0.26032 3-0.57813c-1.65-0.3178-4.35-0.3178-6 0zm-137.975 0.0176c-1.29729 0.33806-0.55937 0.63686 1.64063 0.66406s3.26208-0.25 2.35937-0.61523c-0.90271-0.36522-2.70271-0.38689-4-0.0488zm82.0586 0.0137c-1.06364 0.42564-0.74857 0.74069 0.80469 0.80469 1.40555 0.0579 2.19305-0.25616 1.75-0.69922-0.44306-0.44305-1.59219-0.49063-2.55469-0.10547zm654.582 0.0274c-0.91667 0.36988-0.16537 0.67187 1.66796 0.67187 1.83334 0 2.58269-0.30199 1.66602-0.67187s-2.41732-0.36988-3.33398 0zm-395.619 50.2539c-10.5027-0.17902-30.0567 4.2e-4 -66.2656 0.41016-43.0208 0.48682-142.772 1.03281-221.668 1.21289-132.444 0.3023-126.52 0.3794 77.2207 1.00586 121.367 0.37318 221.116 0.82578 221.666 1.00586s1-0.67047 1-1.89063c0-1.02696-1.45045-1.56511-11.9531-1.74414zm47.2891 0.49219c-8.43186 0.0752-15.333 0.58672-15.334 1.13672s6.8987 1 15.332 1c8.43334 0 15.332-0.51153 15.332-1.13672 0-0.62518-6.89822-1.0752-15.3301-1zm434.189 0.49219c-4.60458 0.0269-10.6053 0.29258-16.1914 0.78515-2.56666 0.22634 1.78269 0.5115 9.66602 0.63477 7.8833 0.12328 14.3359-0.22539 14.3359-0.77539 0-0.45996-3.2059-0.67143-7.8105-0.64453zm-175.859 0.63867c-124.004-0.30931-130.998-0.20296-130.979 2.00576 0.0145 1.6573 0.32547 1.8529 1.07422 0.67383 0.82681-1.302 29.0771-1.73593 130.98-2.00781l129.924-0.34571zm320.088 8e-3c-13.798 0.21688-2.8872 0.39411 24.2461 0.39453 27.1333 4.1e-4 38.4233-0.17724 25.0879-0.39453-13.3354-0.2173-35.5361-0.21689-49.334 0zm80.5801 0.0332c-2.3833 0.29577-0.4347 0.53906 4.332 0.53906 4.7666 0 6.7173-0.24329 4.334-0.53906s-6.2826-0.29577-8.666 0zm-1066.33 43.6306v6.66796l-36.334 0.30079-36.332 0.29882 35.8926 0.70118 35.8945 0.69921-0.15234 18.666c-0.0837 10.2667-0.18546 22.1173-0.22656 26.334l-0.07617 7.66602-64.666 0.61719 32.334 0.38086 32.332 0.38281 0.22851 24.9766c0.12543 13.737 0.50562 26.1697 0.47852 27.6426l-0.36719 20.0039 58.9941 0.66211h58l0.05078-9.66602c0.0276-5.31667 5e-3 -21.816-0.0488-36.666l-0.0977-27h58.4961c32.1732 0 81.0333 0.39649 108.578 0.88086l50.082 0.87891 1.68945 7.96484c1.88875 8.90018 9.77151 21.8988 15.9453 26.2949 2.11105 1.5032 7.31681 4.3466 11.5703 6.31835 6.44744 2.98879 9.61992 3.59005 19.0684 3.61915 13.2274 0.0407 20.2314-2.55472 30.8223-11.4219 7.8391-6.56327 12.0538-13.9645 14.5059-23.8691 1.44389-5.83218 2.28697-12.865 0.97266-19.1504-2.9685-14.1961-12.077-28.2016-26.9688-35.0859-6.8444-3.16411-9.73626-3.70217-20.0195-3.73047-11.1385-0.0307-12.6894 0.30822-21.1641 4.63282-13.8851 7.0855-23.236 19.9706-25.4004 35l-0.91209 6.33398h-217.17v-61.334h-58zm5.33398 5.1582 52.332 0.42187 52.334 0.41993 0.3457 61.543 0.34766 61.543-7.67969 0.45703c-4.22394 0.25162-28.0803 0.15769-53.0137-0.20898l-45.334-0.66602 0.0957-3c0.0524-1.65 0.20303-29.4407 0.33398-61.7559zm405.666 1.62305c-10.9848-0.0663-19 0.41174-19 1.13281 0 1.57553 28.9612 1.6881 34.1562 0.13281 2.60998-0.7814-2.25587-1.18782-15.1562-1.26562zm261.334 0.20117c-70.5833-0.17352-128.334 0.13554-128.334 0.68554-1.9e-4 0.90567 89.9686 0.89738 210.666-0.0195 25.3-0.19219-11.7487-0.4925-82.332-0.66601zm-426 2e-3c-113.995 0.28687-118.857 0.37985-52.334 1.01563 144 1.37626 178 1.37626 178 0 0-0.8817-42.5663-1.22474-125.666-1.01563zm754 0.0176c-16.6833 0.21157-3.0347 0.38476 30.332 0.38476 33.3666 0 47.0173-0.17319 30.334-0.38476-16.6833-0.21158-43.9826-0.21158-60.666 0zm-153.393 8e-3c-5.3488-0.25351-13.7481-0.2519-18.666 4e-3 -4.91792 0.25581-0.54206 0.46293 9.72461 0.46093 10.2667-2e-3 14.2901-0.21111 8.9414-0.46484zm-39.6074 9.6582c-12.2836 0-13.8952 0.31026-20.4648 3.94922-12.8392 7.11168-23.2755 21.579-25.084 34.7734l-0.81446 5.9431 0.0274 1.44336 0.64062 5.67969c1.85498 16.4573 14.5757 32.4763 29.9492 37.7148 16.4528 5.60632 31.9263 3.30489 45.6797-6.79102 10.5696-7.75876 18.5109-22.4464 18.7656-34.7129 0.3953-19.0341-10.4268-36.306-27.873-44.4863-6.53044-3.06206-9.2062-3.51368-20.8262-3.51368zm289.678 7.42579c-4.3394 0.31639-8.588 1.34885-12.5273 3.15234-10.4609 4.78914-15.7856 9.08692-19.8496 16.0215-4.7388 8.08615-6.158 13.4169-6.0547 22.7324 0.2158 19.4571 12.0446 34.7595 30.8613 39.9219 14.4781 3.97208 30.6159-0.70378 42.1152-12.2031l7.3438-7.34375-0.4492-20.3867-0.4512-20.3887-5.3906-6.46679c-8.7452-10.4898-22.5794-15.9882-35.5977-15.0391zm-714.182 8.25781c10.1716 0.7481 20.8128 7.93787 25.3086 17.6484 6.32452 13.6603 0.20269 31.0556-13.3457 37.9199-17.7931 9.01491-38.405-0.73928-42.6816-20.1973-3.81869-17.3745 7.94991-33.1012 26.4062-35.2871 1.41461-0.16754 2.85941-0.19085 4.3125-0.084zm429.254 1.27929c5.68188 0.53713 10.9674 2.79057 15.4414 6.71875 16.8236 14.7714 12.3396 41.128-8.48242 49.8535-6.08085 2.5482-16.1319 2.1764-22.377-0.82617-6.24874-3.00437-8.3416-4.67688-12.3594-9.88281-10.0425-13.0122-4.83316-35.1274 9.96094-42.2891 6.05791-2.93258 12.1345-4.11134 17.8164-3.57422zm289.453 6.06641c8.0159 0.31965 15.8199 4.27151 20.6465 11.2363 3.2652 4.71166 3.8164 6.78528 3.8164 14.3828 0 11.7063-4.3272 18.7404-14.4199 23.4394-8.2729 3.85183-14.3506 4.04739-21.7188 0.70118-11.7389-5.33109-18.4002-18.6752-15.1386-30.3242 2.1239-7.58589 5.3406-11.6095 12.7558-15.9551 4.3629-2.55683 9.2491-3.67226 14.0586-3.48047zm-508.426 21.2969c-28.4806-5e-3 -45.8526 0.22056-45.5723 0.67382 0.34019 0.55 43.6336 0.85986 96.207 0.68946 52.5734-0.17039 80.2879-0.46905 61.5879-0.66407-44.1525-0.46044-83.7421-0.69456-112.223-0.69921zm419.889 0.62278c-21.8167-0.15575-39.6672 0.1668-39.668 0.7168-9e-4 0.55 11.5485 0.84602 25.666 0.6582 48.9646-0.65144 53.4665-1.09327 14.002-1.375zm-153.857 19.584c-0.1204 0.29748-0.2033 1.03281-0.2168 2.13281-0.027 2.2 0.2481 3.26208 0.6133 2.35937 0.3648-0.9027 0.3868-2.70271 0.049-4-0.169-0.64864-0.3268-0.78967-0.4472-0.49218zm-1.4375 23.3047c-0.1402 0.14019-0.2336 0.60619-0.2656 1.38282-0.058 1.40555 0.2561 2.19305 0.6992 1.75 0.443-0.44306 0.4905-1.59219 0.1054-2.55469-0.2128-0.53182-0.3988-0.71831-0.539-0.57813zm-446.705 11.5156c-11.7914-0.0127-19 0.48503-19 1.3125 0 1.74352 33.3021 1.74352 36 0 1.34315-0.86801-4.24008-1.2988-17-1.3125zm-164 0.29492c-113.077 0.28593-118.069 0.3833-52.334 1.01758 142.646 1.3764 177.334 1.3764 177.334 0 0-0.88166-42.3448-1.22659-125-1.01758zm358.1 0.01758c-31.0382 0.19951-6.03359 0.36318 55.5664 0.36328 61.6 9e-5 86.9953-0.16368 56.4336-0.36328s-80.9618-0.19951-112 0zm396.658 0c-17.4672 0.21065-3.5585 0.3845 30.9082 0.38477 34.4666 2.7e-4 48.7593-0.1719 31.7598-0.38282-16.9995-0.21091-45.2009-0.21259-62.668-2e-3zm-1064.7 8e-3c-6.08482 0.24762-1.46185 0.45113 10.2715 0.45313 11.7333 2e-3 16.711-0.20186 11.0625-0.45117-5.64851-0.24924-15.2492-0.24958-21.334-2e-3zm38.6484 8e-3c-3.87458 0.2702-1.04427 0.4931 6.28906 0.4961s10.5037-0.21658 7.04492-0.49024c-3.45875-0.27335-9.45939-0.27604-13.334-6e-3zm858.623 0c-3.85 0.26934-0.69997 0.49024 7.00002 0.49024 7.7 0 10.85-0.22089 7-0.49024-3.85-0.26934-10.15-0.26934-14 0zm-49.3105 0.0176c-2.39647 0.29675-0.75742 0.54574 3.64258 0.55274 4.40001 7e-3 6.36095-0.23484 4.35742-0.53907-2.00353-0.30422-5.60353-0.31042-8-0.0137zm-465.689 54.3008c-34.2222 0-52.668 0.46565-52.668 1.33204 0 0.86638 18.4457 1.33398 52.668 1.33398 34.2222-4e-4 52.666-0.468 52.666-1.33438 0-0.86639-18.4438-1.33204-52.666-1.33204zm87.666 0.01914c-10.6077 0.0138-15.0202 0.43736-13.666 1.3125 2.68757 1.73684 29.332 1.73684 29.332 0 0-0.8144-6.09685-1.325-15.666-1.3125zm-309.334 0.0859c-92.5833-0.0579-168.332 0.34453-168.332 0.89453 6e-5 1.03997 332.736 0.84224 335.242-0.19921 0.78293-0.3253-74.3268-0.63742-166.91-0.69532zm737.334 0.15433-14.334 0.26172 14 0.81055c7.69998 0.44624 14.1507 0.92871 14.334 1.07226 0.1833 0.14354 0.334-0.33893 0.334-1.07226 0-0.82239-5.4933-1.23325-14.334-1.07227zm-217.898 0.0723c-33.9721 0.1982-6.56823 0.36124 60.8984 0.36132s95.2622-0.16109 61.7676-0.35937-88.6939-0.20015-122.666-2e-3zm375.232 2e-3c-15.95 0.2127-2.9 0.38672 29 0.38672s44.95-0.17402 29-0.38672-42.05-0.2127-58 0zm-717.4 40.998c0.24334 26.1111 0.39275 52.2272 0.89649 78.334 4.4123 0.8174 9.04289 0.061 13.5039 0.334v-78.668zm23.7324 0v78.668h14.668v-78.668zm23.8691 0-0.34571 78.9395 15.1445-0.2715 1.4668-78.668zm24.4922 0 0.64258 78.2676 13.6777-0.2676-0.0137-78zm54.8066 13.1055c-5.40872 0.24119-9.83398 0.9925-9.83398 1.66789 0 1.94768 18.2668 1.52572 19.0254-0.43945 0.48792-1.26399-1.73334-1.56121-9.19141-1.22852zm549.832 0.32227c-4.2847-0.0524-7.666 0.49507-7.666 1.24023 0 1.60643 8.9276 1.60643 12.666 0 1.9186-0.82445 0.5159-1.17283-5-1.24023zm-929.777 0.17187c-25.5503 0.2131-28.8402 0.4236-16.5547 1.06055 17.2397 0.8938 46.5875 0.52969 47.709-0.5918 0.40442-0.40444-13.6154-0.61501-31.1543-0.46875zm534.537 0.0684c-18.9346 0.20875-3.82578 0.38063 33.5742 0.38086 37.4 2.4e-4 52.8912-0.17187 34.4258-0.38086s-49.0654-0.20876-68 0zm-472.092 4e-3c-9.35 0.2292-1.7 0.41602 17 0.41602s26.35-0.18682 17-0.41602c-9.35-0.22919-24.65-0.22919-34 0zm142 6e-3c-5.31666 0.25309-0.96731 0.45898 9.66602 0.45898s14.9827-0.20589 9.66602-0.45898c-5.31667-0.25308-14.0154-0.25308-19.332 0zm549.332 2e-3c-4.58334 0.26036-0.83269 0.47461 8.33398 0.47461s12.9173-0.21425 8.33398-0.47461c-4.58333-0.26036-12.0846-0.26036-16.668 0zm46.668 0.10547c-0.91666 0.36989-0.16731 0.67188 1.66602 0.67188s2.58268-0.30199 1.66602-0.67188c-0.91667-0.36988-2.41537-0.36988-3.33204 0zm-95.668 0.0469c-32.9139 0.0584-36.217 0.20882-17.332 0.78711 12.8333 0.39298 29.3327 0.54804 36.666 0.34375 27.4791-0.76548 20.0502-1.20066-19.334-1.13086zm-552 0.0254c-22.6252 5e-3 -32.82 0.31995-24 0.74218 8.43333 0.40368 22.534 0.57794 31.334 0.38672 33.3333-0.72432 30.6454-1.1379-7.33398-1.1289zm644.408 173.611c-0.1219 0.3021-0.19727 0.9485-0.19727 1.8652 0 1.8333 0.30199 2.5826 0.67188 1.666 0.36988-0.9167 0.36988-2.4153 0-3.332-0.18495-0.4583-0.35272-0.5013-0.47461-0.1992zm-21.332 12c-0.12189 0.3021-0.19922 0.9485-0.19922 1.8652 0 1.8333 0.30395 2.5826 0.67383 1.666 0.36989-0.9167 0.36989-2.4153 0-3.332-0.18494-0.4583-0.35272-0.5013-0.47461-0.1992z" fill="#4e2d10" stop-color="#000000"/>
   </g>
   <path d="m552.06 1132.67c-0.0331-1.4658 2.5853-10.7658 5.8187-20.6666 7.90577-24.208 12.0576-38.7873 16.7071-58.6683 5.04591-21.5757 11.0977-52.9663 10.5264-54.6006-0.24517-0.70137-7.64576 4.95832-16.4458 12.5771s-16.1932 13.3112-16.4294 12.6498 1.06785-5.5729 2.8978-10.9144c23.3499-68.157 37.5602-152.174 37.2739-220.379-0.28319-67.4726-10-125.914-34.0293-204.667-3.69198-12.1-7.03729-23.2-7.43402-24.6667-0.5415-2.00185 0.76767-1.33703 5.25121 2.66667 3.2849 2.93333 8.33443 7.33778 11.2212 9.78765 2.88675 2.44987 7.48763 6.61089 10.2242 9.2467s5.28258 4.48533 5.65786 4.11004c0.81023-0.81023-4.37017-28.0687-9.08638-47.8111-4.51052-18.8813-11.9451-45.0466-17.728-62.392-5.84857-17.5423-7.20251-22.9414-5.75313-22.9414 2.58002 0 54.3489 59.9329 72.8353 84.3214 57.136 75.378 83.2177 155.441 83.1822 255.345-0.0439 123.625-43.6123 223.332-143.178 327.667-8.47652 8.8825-11.4672 11.3077-11.5118 9.3349zm428.003-2.172c-0.0347-1.9271 0.89557-5.7984 2.06734-8.6029 3.24894-7.7758 14.8171-47.1708 19.3493-65.8933 4.8624-20.0866 11.7422-58.6667 10.4618-58.6667-0.5045 0-7.7319 6.04767-16.0608 13.4392-14.6385 12.991-17.729 14.4237-14.7252 6.8264 2.07244-5.2417 13.4695-44.9028 15.5938-54.2656 0.99831-4.4 3.64409-15.8 5.87949-25.3333 10.9537-46.714 16.4376-93.2839 16.5644-140.667 0.1416-52.963-4.7487-92.3997-18.6833-150.667-5.57166-23.2976-9.01923-35.7711-18.0243-65.213-2.11059-6.90046-3.61738-12.7663-3.34844-13.0353s7.47311 5.54632 16.0093 12.9228c10.9721 9.48155 15.5203 12.7015 15.5203 10.988 0-13.2123-23.4912-106.599-29.3535-116.692-0.75473-1.29937-1.75313-5.14135-2.21866-8.53774l-0.84641-6.17526 9.9425 10.5377c58.8896 62.4152 96.2991 116.22 117.089 168.404 28.3238 71.094 35.6457 159.554 20.0417 242.134-10.5953 56.0733-27.313 97.2754-59.2375 145.996-23.2749 35.5204-44.0323 61.5617-76.5241 96.0038-8.59713 9.1132-9.43936 9.6893-9.49692 6.4962zm292.397-136.163c7.5609-18.4656 21.5166-76.8009 18.9802-79.3374-0.3522-0.35214-4.9629 2.50375-10.2461 6.34644-6.2657 4.55722-9.2632 6.11812-8.6205 4.48883 8.895-22.5488 21.7191-75.1836 24.7387-101.537 4.197-36.6288-2.0781-80.5383-18.8742-132.07-3.6647-11.2437-6.3981-20.7082-6.0742-21.032 0.3239-0.32389 4.2761 2.12553 8.7828 5.44314 4.5067 3.31762 8.8485 6.03204 9.6486 6.03204 2.9692 0-2.093-25.8205-10.979-56-2.9149-9.9-5.9253-19.2711-6.6897-20.8248-0.7644-1.55362-1.1799-3.91482-0.9233-5.24713 0.8929-4.63653 48.2562 49.958 65.2907 75.2591 11.5544 17.1615 16.9269 27.7348 23.1607 45.5811 8.6136 24.6595 14.0118 54.1588 14.0118 76.5698 0 10.8498-3.2262 37.2893-6.1006 49.9953-4.0571 17.9343-17.0936 52.3559-23.1929 61.2385-1.2947 1.88547-5.6885 8.52813-9.7641 14.7615-10.5799 16.1812-25.139 33.9964-44.4029 54.3333-15.1309 15.9738-20.6716 20.7029-18.746 16zm148.281-34.213c-1.6685-2.69971 0.7305-4.97152 4.6435-4.39722 4.5473 0.6674 5.0709-0.96103 1.3823-4.29918-2.3288-2.10746-2.4027-2.78714-0.7985-7.33419 9.5522-27.0738 19.8997-82.0416 22.7946-121.09l0.9144-12.3333h143.683l-0.3467 60.911-0.3468 60.911-9.3334 1.63479c-85.2479 14.9318-157.076 27.21-159.18 27.21-1.4641 0-2.9994-0.54585-3.4118-1.21301zm28.023-186.454c-2.0716-31.8158-10.1208-75.9422-19.4275-106.503-5.1235-16.824-5.1752-17.2-2.615-18.9931 3.9229-2.74756 3.2672-5.50403-1.3095-5.50403-4.3573 0-6.4762-2.13583-4.2888-4.32317 1.0099-1.00998 3.865-1.00308 9.8171 0.0237 15.9427 2.75023 53.7866 9.5134 71.7264 12.8184 9.9 1.82385 33 6.0445 51.3333 9.37922 18.3333 3.33473 34.6833 6.38328 36.3333 6.77456l3 0.71144v119.949h-143.636z" fill="#353535"/>
</svg>
