<?xml version="1.0" encoding="UTF-8"?>
<svg width="1672" height="1672" version="1.1" viewBox="0 0 1672 1672" xmlns="http://www.w3.org/2000/svg">
  <path d="m1208.03 874.667c-12.6873-0.0783-25.5083 2.18414-37.6709 5.62005-10.9132 2.80559-20.3292 9.63592-29.4906 15.6408-6.1741 8.37153-11.3523 17.2365-13.903 27.4054-6.3396-1.10064-12.5137-6.8589-18.5891-2.07538-9.4014 3.1908-13.4474 13.2286-16.3511 21.7926-1.0049 7.94901 1.5432 15.8965 6.5164 22.0179 4.3557 5.12339 11.1773 8.16632 17.3807 9.58357 5.5494-0.82281 12.9678-6.02764 12.7934 3.13374 2.9648 10.3362 5.4072 21.7038 14.9641 28.0812 7.1111 6.946 17.5419 9.2032 26.6554 12.6787 8.6977 3.3363 17.5541 5.6627 26.941 4.6213 13.0988-0.6713 26.5988 1.4736 39.4214-1.1365 12.3344-3.1388 24.3984-7.9244 36.7342-10.5672 34.4572-0.1664 68.9806-0.9657 103.397-0.7377 16.0284 3.7809 32.5185 7.0584 48.9864 6.6404 15.2824-1.2055 30.3507-3.5442 44.9707-8.2631 9.4526-2.819 18.4618-7.8135 26.9832-12.5278 4.7048-4.4552 7.4998-12.5583 15.2729-11.1523 6.6476-3.1424 11.39 3.25336 17.4991 2.56601 7.003-0.5551 13.9712-1.2073 19.2278-6.39834 5.0272-3.13717 11.5376-2.77067 17.1604-4.50189 6.2384 7.44398 15.6757 12.2184 25.5111 10.9101 6.1412-0.79316-3.1403-9.04666-4.0714-12.6061-7.1542-6.45003 1.6396-6.49202 5.3531-9.57246 4.7094-9.32407 1.0616-20.0362 1.6076-30.0518-2.834-4.84884-13.8631-5.89638-7.4607-11.6612 0.9691-3.77033 10.5731-12.2992 4.6902-13.4404-6.8854-0.12547-14.5575 1.77818-20.1594 5.48539-3.1609 5.83869-9.595 6.50423-15.2049 3.68841-9.9834-3.03406-19.5108-10.4119-30.1665-8.84588-5.3611 5.99455-12.8547 2.57901-19.6987 2.03148-7.644-7.63953-15.409-15.1073-25.741-18.9126-14.9023-5.71642-30.4051-9.35745-46.2783-11.1007-13.5852-0.84544-27.4396 0.52397-41.0167 1.83241-20.1318 4.98357-40.8856 2.58105-61.3984 3.04008-19.3075-0.46586-38.7904 0.73578-57.9861-0.79365-17.7711-2.83124-34.2886-10.9971-52.4375-11.7056-4.7872-0.88058-9.5972-0.74599-14.4415-0.71896z" fill="#6e4928" />
  <path d="m1206.34 617.349c-12.6873-0.0783-25.5083 2.18414-37.6709 5.62005-10.9132 2.80559-20.3292 9.63592-29.4906 15.6408-6.1741 8.37153-11.3523 17.2365-13.903 27.4054-6.3396-1.10064-12.5137-6.8589-18.5891-2.07538-9.4014 3.1908-13.4474 13.2286-16.3511 21.7926-1.0049 7.94901 1.5432 15.8965 6.5164 22.0179 4.3557 5.12339 11.1773 8.16632 17.3807 9.58357 5.5494-0.82281 12.9678-6.02764 12.7934 3.13374 2.9648 10.3362 5.4072 21.7038 14.9641 28.0812 7.1111 6.94605 17.5419 9.20324 26.6554 12.6787 8.6977 3.33632 17.5541 5.66265 26.941 4.62132 13.0988-0.67136 26.5988 1.47353 39.4214-1.13652 12.3344-3.13885 24.3984-7.92444 36.7342-10.5672 34.4572-0.16637 68.9806-0.96568 103.397-0.73767 16.0284 3.7809 32.5185 7.0584 48.9864 6.64035 15.2824-1.20552 30.3507-3.54411 44.9707-8.26306 9.4525-2.81904 18.4617-7.81349 26.9831-12.5278 4.7048-4.4552 7.4998-12.5583 15.2729-11.1523 6.6476-3.1424 11.39 3.25336 17.4991 2.56601 7.003-0.55511 13.9713-1.20728 19.2279-6.39834 5.0272-3.13717 11.5376-2.77067 17.1604-4.50189 6.2384 7.44398 15.6757 12.2184 25.5111 10.9101 6.1412-0.79316-3.1403-9.04666-4.0714-12.6061-7.1542-6.45003 1.6396-6.49202 5.3531-9.57246 4.7094-9.32407 1.0616-20.0362 1.6076-30.0518-2.834-4.84884-13.8631-5.89638-7.4607-11.6612 0.9691-3.77033 10.5731-12.2992 4.6902-13.4404-6.8854-0.12547-14.5575 1.77818-20.1594 5.48539-3.1609 5.83869-9.595 6.50423-15.2049 3.68841-9.9834-3.03406-19.5108-10.4119-30.1665-8.84588-5.3611 5.99455-12.8547 2.57901-19.6987 2.03148-7.644-7.63953-15.409-15.1073-25.741-18.9126-14.9023-5.71642-30.4051-9.35745-46.2783-11.1007-13.5852-0.84544-27.4396 0.52397-41.0167 1.83241-20.1318 4.98357-40.8856 2.58105-61.3984 3.04008-19.3075-0.46586-38.7904 0.73578-57.9861-0.79365-17.7711-2.83124-34.2886-10.9971-52.4375-11.7056-4.7872-0.88058-9.5972-0.74599-14.4415-0.71896z" fill="#6e4928" />
  <path d="m258.667 1112-7.33334-0.036-5.85015-1.5688-0.81652-5.7282-60-1.3333-3.33334-2.1574v-19.6522l4.31183-4.3118 65.6882 0.3977 0.79393-16.2764h-161.461v-488h159.949l1.5697-6.25419-0.85223-9.83231-67.4319-0.58016-2.52726-4-0.0408-19.0068 4.22457-3.50608 58.3989-0.1538 2.57113-7.33333h10.4944l1.39465-5.33371h18.6053l1.39469 5.33334h10.9823l2.38501 6.27307 59.1961 1.41063 2.31203 3.64963v18.6667l-2.4624 3.89293-66.9534 1.09958 0.79002 15.0075 538 0.67315v-8.69836l-5.33334-3.33072v-3.69616l-62.7643-0.94791-2.52822-4-0.0408-19.0068 4.01743-3.33417 60.1968-1.38218 2.38644-6.27683h10.4217l1.39466-5.33334h20.2497v5.18001l11.2271 0.81999 1.43959 6.06593 60.2572 0.60074 4.40946 3.65985-0.0408 19.0068-2.41996 3.82428-60.7659 1.19732-7.43994 7.43994v8.20512h105.333v47.8972l29.3819 8.23016 2.88876-1.78535-0.46865-16.171-0.46864-16.171 19.3333-0.78349v38.457l3.3334 2.62935 34.6666 8.23533 33.9999 6.72065 38.4258 7.06426 252.317 39.1503-0.2614-66.1401 0.8522-6 14.3489-0.81813 4.3177 1.79284-0.9601 392.309-9.89 0.4543-7.8165-0.4043-0.43-3.7502-0.4299-3.75 0.6677-64.3154-248.209 40.4819-64.9321 12.1761-45.3333 9.29387-5.0303 1.4919 0.6846 14.4437 0.6846 14.4436-13.6722 1.3965-6.65998-0.7994-0.34386-23.2278-1.69236-1.6924-13.6519 3.1357-13.6519 3.1355-2.20915 1.8787-0.45752 38.3242-104.667 0.6976v15.969h66.4762l4.19048 4.1905v19.6522l-3.33333 2.1573-61.2166 1.3334-1.55629 6.6666-11.2271 0.82v5.18h-20.2497l-1.3581-5.1934-11.0589-0.8066-0.84379-7.3333h-60.9657l-4.19048-4.1903v-18.2857l4.19048-4.1905h66.4762v-15.9868l-526.916-0.6798-11.7507 0.9351v15.7315h64.1753l5.15801 2.7605v21.0822l-3.33332 2.1573-58.6338 1.3334-1.00797 5.3333-3.02485 1.9591-10 0.04v5.3333h-18.6667zm720.502-104.16 12.165-2.8268 3.3552-2.6911-0.34426-75.3925-0.34427-75.3925-25.3333-7.3806-7.64436-0.156 1.64433 166.667h4.33657zm141.498-28.962 223.94-39.8632-196.606-49.3047-66.7082-16.5912-66.7082-16.5913-1.2502 1.2503v140.444l1.502 1.5019zm255.333-141.545-316.667 0.024-14 1.6816v7.302l-3.4141 2.8335-14.5859 0.8264 10.6667 2.8753 10.6667 2.8754 99.9999 24.5836 227.518 54.828-0.185-47.1623zm0-84-2e-4 -45.5556-242.666 67.3283-43.3333 11.3268-45.3332 10.9395-6.6667 1.62385 4 1.31131 3.3333 4.20292v6.15699h330.667zm-391.816 50.1175 9.81598-3.09724 0.36845-77.8435 0.36846-77.8434-1.30428-5.40193-30.6524-7.93141-0.11355 176.969 11.7014-1.75473zm61.816-15.5154 26.6666-6.82456 56-14.5301 30.4433-7.9601 194.686-53.4619-229.129-37.6911-40-7.16163-34.6666-7.16267-16.4768-3.90498-16.4767-3.90498h-3.7132v148.889l1.8071 1.80711 4.1929-1.26939z" fill="#6e4928" />
 <path d="m90.6667 1059.98v-486.646l869.802 0.0245 0.94158 0.94158-0.0772 486.367zm850.667-466.622-830 0.64299-0.67446 446h830.674z" fill="#bd853b"/>
 <path d="m349.333 922.928c-7.2916-6.6943-1.14595-19.6673-2.94426-28.9284 4.0069-36.2752 7.71805-72.5649 6.19303-109.112 1.49111-33.0538-2.27544-65.817-5.30238-98.6619-1.01834-11.3577-0.8131-22.7747-1.20894-34.1626 10.2006-8.03236 25.0276-2.01757 37.2833-3.8103 90.1231 0.29554 180.246 0.59108 270.369 0.88663 5.43421 9.34889 0.25612 21.8009 1.36089 32.4157-1.0311 25.9205-1.75896 51.8515-2.61735 77.778-0.59311-12.4801 0.23977 92.0768 1.57803 97.6286 0.69497 21.4953 2.58062 42.972 2.41755 64.4808-7.47754 7.82095-20.5682 1.48833-30.4739 3.18664-56.6077-0.69296-113.21-2.70165-169.767-4.33636-34.5795 0.51407-69.039 3.4456-103.555 5.34026z" fill="#c1a782"/>
 <path d="m336.417 932.289c-5.16112-4.44715-3.44469-12.5756-3.69421-18.8008 0.42581-85.2028 0.85163-170.406 1.27746-255.608 2.53494-3.97308 4.46639-9.06332 10.1471-7.21302 4.45673 0.77401 0.97625 9.63772 2.23941 13.6667-0.14325 28.0282 5.05203 55.7556 6.16835 83.686-0.20279 28.9069 0.49286 57.8579-0.27929 86.7368-2.34016 27.5429-6.72845 54.969-6.23413 82.6734-0.33392 4.80999 6.3321 9.10775 10.9164 7.95073 37.7265-2.064 75.4459-5.52179 113.249-5.02897 60.7702 3.04504 121.622 3.40237 182.443 4.76948 7.48849-6.27008-0.42057 1.35453-1.68722 5.45772-2.59616 4.4732-10.1185 1.00412-14.7994 2.11611-99.3876 0.20144-198.775 0.40287-298.163 0.6043l-1.58325-1.00989zm70.2499-36.2663c2.77743-3.33891 9.27758-4.23019 13.4209-6.67103 21.9455-9.80816 44.3296-19.1925 68.1014-23.4792 14.0199-4.17889 28.7426-1.79745 43.1443-2.41323 14.0179 2.64572 27.9843 5.47908 41.2462 10.8824 16.5425 5.43475 31.2633 15.1424 46.9774 22.52 0.2317 1.02595-9.52064-1.78588-12.9547-2.97217-18.1747-5.72167-36.334-11.5026-55.1379-14.8066-16.0674-1.70614-32.4011-1.24098-48.5714-2.10801-27.8424 2.77377-55.3412 8.34635-82.2068 16.1322-4.29694 0.58802-11.1752 4.17376-14.0195 2.9156zm-19.5982-15.7104c11.2322-12.1434 19.6867-26.4752 28.4315-40.4068 2.74498-6.65599 6.68815-13.0936 8.7261-19.8784-1.0352-6.50933 0.92789-14.1512-4.66648-18.9385-9.0167-10.948-16.6882-22.7917-23.3994-35.2748-7.91036-16.286-13.465-33.7775-17.401-51.4367-1.01917-7.48437-4.05286-15.0918-3.82916-22.5003 1.7428-1.13347 3.63355 9.06236 5.4346 12.3887 5.525 17.0359 14.1122 32.8555 22.3754 48.6675 11.5348 20.613 27.3811 38.3137 39.9267 58.2695 1.16386 7.77906-2.71726 14.7044-6.36979 21.259-6.84706 10.3635-14.3544 20.1809-23.4684 28.6689-10.1745 11.6265-22.5604 20.8817-34.263 30.8697-1.83003-1.62687 6.03311-7.74167 8.04416-11.147zm214.575-76.6133c-5.69708-9.06826-10.3064-19.0354-14.9878-28.662-1.37121-7.33021-4.28584-14.6724-1.23058-21.9683 1.8623-9.66946 7.36198-18.2451 11.7066-26.947 9.19907-13.8215 20.7749-25.7685 31.4275-38.4438 1.83617 4.91533-4.23857 8.9605-5.82717 13.4991-6.88978 10.7044-12.9704 21.8195-17.3376 33.8045-3.98311 8.56771-5.63603 18.1547-6.91301 27.4029 1.02832 13.3934-0.0653 27.1198 4.67203 39.9314 1.01116 2.10082 0.43616 4.6241-1.50986 1.38317zm-105.644-96.5053c-17.0528-2.07674-33.9208-5.27092-50.3143-10.4658-17.4046-4.25966-33.4361-12.5607-50.1611-18.8205-2.80918-6.10535 7.51667 0.73829 10.958 0.79492 15.9875 5.15065 32.8009 7.24033 49.2274 10.5767 19.083 1.57071 38.084 5.59715 57.2818 3.73502 15.786-0.30546 31.5107-1.2607 47.0471-4.20946 19.5774-3.40386 38.9425-8.10874 57.9493-13.9273 0.77443 3.29031-8.74171 4.80991-12.0943 7.39007-12.9995 6.72609-26.4927 12.2373-40.5028 16.4765-11.3897 3.96642-23.4363 6.14568-35.3025 7.96939-11.348 0.0123-22.7952 1.64956-34.0886 0.4805z" fill="#837057"/>
 <path d="m1173.11 1020.11s-27.5525-6.8612-33.1099-22.4802c-3.4312-20.7038 24.0417-15.0044 37.7006-19.8213 28.7182-4.78971 57.6358-9.4083 86.2994-13.8054-1.5032 15.4842 1.1813 33.1308-3.9992 46.583-14.0406 16.4808-86.8909 9.5239-86.8909 9.5239zm226.691-8.9744c-10.4324-8.4563-0.3677-29.7887-3.6038-43.7463-4.1624-29.0461 7.8751-9.27991 3.8029-1.36273 5.5393 6.02406 25.6411 11.1994 34.7302 18.5571 19.2089 5.42889 39.4584 4.75257 59.2599 4.81199-26.8698 21.9344-60.9967 24.1144-94.1892 21.7399zm-118.054-25.4231c-4.2334-19.908 2.9533-30.558 23.7448-28.2668 23.3182-4.05517 46.966-2.51734 70.508-2.77594-1.0467 16.3385 2.0467 36.8169-1.4888 50.6666-3.4568 11.0184-32.1275 2.6214-46.4153 5.2989-14.3109-2.1369-37.2263 4.2611-46.5723-2.8006 0.075-7.374 0.1491-14.7481 0.2236-22.1222zm-285.747-58.46v-76.908c12.305 9.84235 18.755 18.9725 16.005 35.243-0.2613 38.0611 0.1194 76.1118 1.7351 114.143-24.3377 13.1862-17.05-10.7697-17.7385-27.3928-5.2e-4 -15.0283-1e-3 -30.0566-2e-3 -45.0849zm152.667 44.0163c10.1893-13.92 30.4849-11.2721 42-21.6387-14.9775-9.76002-41.0024-9.50259-48.0144-30.9624-8.0582-16.8514 3.9617-36.4125 21.2478-24.157 33.2073 7.4764 65.9132 17.7776 99.4332 23.4925 4.6657 18.7934-6.933 35.4424-2.202 35.3637-38.6068 5.14072-76.7502 13.7264-115.131 19.8848l2.3216-1.72617zm-819.022-84.9324 0.31158-67c0.68069 36.6565 0.55603 79.2551 1.73193 112.258 9.01897 2.49325 51.7504 3.60359 66.6191 4.34971 30.5642-0.12514 61.1283-0.25029 91.6924-0.37543-31.2442-2.98096 11.5698-1.40002 22.9424-1.75582 30.5747 0.0337 61.1495 0.0675 91.7242 0.10127-7.7908 0.28577-65.8701 1.85935-47.7737 1.52115 26.1468 0.0842 52.2936 0.1684 78.4403 0.25259-20.0106-2.37325 25.8589-1.05072 19.1386-8.12489 6.37137 24.421-6.43469 29.8089-28.7354 25.7737h-296.403zm1085.46 0.80487c26.7592-0.96833 56.4965 4.8169 77.2244 22.1951-25.599-1.1526-51.7188-0.78059-74.0492 13.6513-11.5129 4.97051-27.2867 26.0994-22.4328 1.60724 0.3829-17.9686-8.8716-41.9765 19.2576-37.4536zm-1267.1-103.138h153.333v148h-153.333zm1202.67 143.324c-23.1587-4.80526-46.1542-10.3813-69.4279-14.6266-6.7935-25.7578 13.0119-23.8574 32.5839-22.1996 18.7115 1.06139 39.6061-1.76966 56.9666 1.70067 8.7249-3.60632 5.3892 21.4548 3.5667 30.4682-4.944 8.51674-5.6137 9.93906-23.6893 4.65731zm-89.4592-19.3147c-30.1856-10.3433-64.5703-12.4384-93.3827-24.9317 0.2309-2.5955 19.3836-7.25067 32.9806-7.10078 13.613-2.33769 31.5939 0.48697 43.1946 3.95926 18.9212 4.53901 23.5795 29.0551 17.2075 28.0733zm-579.21-82.3426c8.4e-4 -18.1111 2e-3 -36.2222 3e-3 -54.3333h110.667c0.23219 36.2222 0.46439 72.4444 0.69658 108.667h-111.368c8.4e-4 -18.1111 2e-3 -36.2222 3e-3 -54.3333zm314.003-105.412v-80.2548c23.5504-0.71259 14.815 26.5462 16.2241 41.449-0.8311 37.3621 1.5169 77.5595-1.2316 113.218-7.6569-25.0396-17.0581 22.8331-14.9922-5.72903-1.2e-4 -22.8943-2.3e-4 -45.7885-3.5e-4 -68.6828zm-847.333-88.9215 152.667 0.92328v139.743h-153.357zm1049.33 133.94c-15.8173-1.4855-9.8776-5.99715 12.6528-10.3475 17.8259-4.19492 35.3384-10.7668 53.3472-13.5929-3.8157 6.86462-3.5935 4.79336-0.052 13.2245-10.6899 5.80338-18.6997 6.83138-16.7023 5.96778-8.7717 0.94975-6.1084 3.81133-21.5795 4.23594 2.771-1.1396-25.1363 4.62742-27.6667 0.51217zm-38-7.68681c-11.7315-6.01355-27.8792-16.3897-16.2258-31.9489 8.029-14.3136 8.4575-17.3363 26.2763-23.7949 44.0938-6.42073-8.9383-19.0728-22.3007-25.0876-22.6124-10.1785 100.309 11.6506 116.25 15.8267-3.4411 14.7628 9.7435 41.9368-13.1964 40.5244-29.7535 8.22902-62.4998 18.5321-90.8036 24.4804zm240.525-3.79384c-9.2787-8.05669-5.0144-31.0397-4.4305-44.9148 7.1409-0.85554 29.9711 14.7055 31.7587 16.0366 20.6413 9.97753 44.0122 6.46144 66.147 7.14445-26.3799 21.6142-60.7823 24.1023-93.4752 21.7338zm-119.178-9.41241c-2.0113-18.3464 27.9945-12.3903 39.8304-20.226 18.3256-5.25894 36.9212-9.80146 54.8227-16.3769-4.2615 13.7542 9.4261 45.3956-8.679 45.3538-28.6626 0.0988-57.3251 0.19764-85.9877 0.29647 0-3.01579 0.01-6.03157 0.014-9.04736zm0.255-44.5972c5.7522-8.94901 26.3275-1.56248 37.7315-1.36488 7.0342 2.16372 49.9294 0.89972 25.7795 7.49511-21.1346 7.03553-43.1557 10.8306-63.7795 19.3525-0.8513-12.9724 8.1112-12.984 0.2685-25.4827zm19.3007-14.5247c-23.7343 4.03942-20.3793-16.1719-19.4443-33.5251-8.2814-26.3785 17.7798-18.1997 34.8225-19.0958 20.1442-0.33851 40.3917 1.21805 60.3858-1.87675-10.9315 0.26811 4.9187 21.1662-0.6957 33.9054-2.9839 17.2536 3.6013 24.7523-12.2123 21.7837-20.9213-0.61629-42.0445 1.10996-62.856-1.19144zm94.783-27.2714c-5.0996-20.417 1.1424-33.2307 23.7426-28.2399 25.591-1.26705 53.2046 6.26062 73.2384 22.1441-26.9955-1.05548-55.1239-0.81354-78 15.4383-23.4663 10.1945-17.395 26.1101-18.981-9.34249zm-145.019 19.8505c-36.4974-5.71595-74.161-9.19808-109.717-17.7774-5.2323-14.8562 6.892-30.0167 17.7176-31.3939 5.6767-1.97961 9.1665-4.1969 22.1483-7.89642 19.29-4.11136 43.0056-4.46992 59.6213 1.50263 23.0339-2.57256 27.0075 15.25 23.5637 34.6706-2.1738 12.4112 7.5411 29.7067-13.3337 20.8945zm-384.434 88.2826c-12.6388-0.3782-25.4265 4.16094-34.0562 13.6058-8.14067 7.55602-12.6018 18.313-15.1678 28.9271-3.90445 20.1092 1.08207 43.4941 18.0178 56.4256 13.5954 10.9514 32.4053 11.8236 48.7406 7.8055 15.8061-3.73844 29.3235-15.7079 34.3121-31.2616 4.06657-9.52637 2.45344-20.1636 2.2928-30.2142-1.23386-11.6727-7.12174-22.6516-14.9254-31.2664-10.0671-10.8133-24.8108-14.7697-39.214-14.0218z" fill="#905c2b"/>
 <path d="m861.488 1106.33c-28.0164-20.2399-111.294 21.7329-105.604-24.2862 53.4539-5.7921 108.504 0.2604 162.898-2.7228 37.2978 31.8859-42.8521 22.2181-57.2944 27.009zm-576.153-2.653c-44.589-14.371-64.3757 11.5524-102.852-8.1407 10.5642-37.3051 74.3724-2.1104 107.122-14.9118 21.3008-10.5063 92.4348 2.8919 47.6653 22.7931-17.3205-1.0168-34.6206 0.2478-51.9352 0.2594zm1091.43-90.6803c0.6889-36.3393 6.7556-74.1842-41.9515-58.7954-27.5906-16.8592-74.4317 26.1786-69.7573-30.2741 16.0738-8.11755 25.9217 38.4848 57.5785 19.2173 29.5937-2.03543 45.5715 1.11991 17.4259-13.9073 43.799 18.962 30.7413-24.4862 41.8235-46.1685 32.7685-5.32387 124.083 9.59025 111.91 25.5535-22.806-17.244-108.863-46.9723-99.1292 4.65887v97.0971c37.6235 14.3283 91.9272-16.055 102.204-14.6899-33.0838 23.1424-87.4659 23.4882-120.104 17.3085zm-112.134-4.8341c-10.2012-24.1556 17.6229-72.7637 16.8628-24.7171 2.0016 13.3826 1.546 40.7533-16.8628 24.7171zm-1134.63-2.9564c49.1392-2.009 117.494-0.2155 173.373-0.8843 208.357-0.1083 416.714-0.2167 625.071-0.3252-220.298 3.2362-440.7 0.8675-661.038 1.906-45.8026-0.091-91.6052-0.2988-137.406-0.6965zm1425.9-30.056c3.0082-17.9264-34.7022 10.758-24.54-16.3151-29.4644-17.3282-40.8404-11.0332-60.5468 1.91337-32.9521-8.79256-49.6009-19.7358-53.7306-13.9918 12.9953 43.5213-37.9869-15.484 3.0997-10.76-14.7918-23.7351 22.5442 4.02745 15.3253-18.4024 43.1238-3.2573 114.215 11.5168 128.743 12.1874 14.8532 22.8194-40.1048 35.4556 2.5107 35.2039 4.7276 6.04626-18.5297 22.1831-10.8611 10.1646zm-445.558-3.36593c4.7746-10.9564 3.5406-62.5169-10.4477-35.2967-0.5677 39.4121-16.9153-25.3594 21.3734-14.3898 11.1815 17.1182 52.7744 6.54014 30.7291 37.8989-37.1365-31.2379-14.932 22.07-41.6548 11.7876zm-998.344-25.7876c72.3628-3.50198 144.901-0.72665 217.332-2.1253-52.8968 10.4694-111.186 0.56807-166.12 3.6804-16.5617-0.78661-36.8771 1.36296-51.2128-1.5551zm742.666-62.9112c-55.7428-9.00168-68.4655-97.8081-14.7156-118.585 35.2517-19.2594-47.3008-5.7624-66.9931-7.08979-21.1775-0.1655-70.6966 0.41026-81.9716-0.70072 82.9607-1.93981 166.062-1.5924 249.014-0.37958-29.1722 5.57984-79.9766-8.53658-29.9268 16.7454 48.9023 40.6472 8.39447 124.925-55.4066 110.01zm29.988-10.3613c56.2944-13.8943 45.3919-108.167-14.1763-106.658-65.227-5.97642-76.141 99.6684-12.3609 108.649 8.84186 1.58779 17.9935 0.60238 26.5372-1.99129zm493.091-113.061c2.1852-36.5107-2.4439-63.3758-42.9393-40.3698-43.6747-4.91753 67.9385-20.5513 2.9228-20.2517-58.7828-8.69636 53.887 3.19345 0.732-7.70667-32.5478-8.1525 64.8113 11.6632 37.4979-34.9436-9.3309-57.47 82.4931-25.1886 114.089-14.9761 29.953 28.8479-41.2451-23.1526-64.0218-12.8546-39.9254-11.9452-31.1407 23.7993-31.3596 49.2715v75.4468c33.2892 12.9069 93.1538-14.5834 100.276-16.0986-34.3383 25.5649-77.9338 21.0094-117.198 22.4828zm61.1037-36.859c-15.9419 0.91723-62.6382-37.1051-14.7756-27.6024 47.4708 5.61657 102.254-10.5091 145.26 6.44691-6.186 39.0319-44.8087-8.98366-58 16.5589-30.7013 10.3198-37.3702-3.07388-72.4842 4.59665zm-335.548-4.34808c-38.8545-42.2735 108.545-19.9743 26.3587-10.4596-20.4267 8.74733-6.3776 22.3899-26.3587 10.4596zm448.588-28.2894c-38.9091-10.9202-88.2558 6.66362-120.523-19.6522 23.9632-30.3903 86.1628 2.56997 121.498 3.75767 6.0802-32.853 31.0225 28.9929-0.9748 15.8945zm-279.556-7.83986c-25.3829-20.2724 8.9639-85.1528 9.5443-25.4546-4.2157 7.08996 7.0093 33.097-9.5443 25.4546zm-647.667-44.997c-104.889-0.225-209.778-0.45001-314.667-0.67501l630-0.65832c-70.8145 4.04927-142.753 0.69497-214.067 1.55056-33.7553-0.0724-67.5106-0.14482-101.266-0.21723zm192.892-80.308c-23.9392 2.53333-93.7907-1.80745-50.5716-26.2299 54.6251 11.9418 100.283-0.27099 148.545-0.0478 54.5338 41.7461-87.8072 21.4392-97.973 26.2776zm-634.328-2.80981c3.08403-51.2122 82.6699-2.49316 117.614-19.7372 27.2995-23.2892 79.6899 18.8179 29.0541 21.5-48.9399-5.48276-99.6298 2.07025-146.668-1.76275z" fill="#523c27"/>
 <path d="m148 858v-74h153.078l0.14413 66.3333 0.14412 66.3333-0.85545 7.66666-0.85546 7.66667h-151.656zm123.689 55.8079 12.0988-0.8588 0.0234-89.6157-0.71794-10.41-0.71793-10.41-1.40203 1.40203-0.46952 5.70898-0.46953 5.70898-40.7011 38.5184-56 56.4663-13.3333-0.83679-1.63021-0.1478 0.58991-3.66666 0.58991-3.66667 0.6794-2 0.67941-2-0.19227-37.6667-0.19226-37.6667h2.27611l1.57778 1.57777 1.57778 1.57778 0.92501-0.92502 0.92502-0.92502-3.56946-3.72571-3.56946-3.72572v-9.55731l9.00428-1.68921 3.16452 1.23737 3.16453 1.23738 10.6667 11.1288 2.30332 1.25863 2.30333 1.25864-0.85818-2.36419-0.85819-2.36418-7.78103-10h67.3556l-5.79817 6.17187v3.16142h2.12548l10.4157-10.6667h10.1255v-2.47478l-14-1.53376-96 0.67521-0.33127 43.3333-0.33127 43.3333 1.56684 24.5169 2.21452 0.58688 2.21451 0.58688 88.257 0.30934zm-20.1283-16.8523-13.5608-13.7111-5.7443-6.52497-5.7443-6.52498 10.8029-10.8029 17.7718 17.2751 12.4463 12.6667 12.4463 12.6667 0.0106 4.33333 0.0106 4.33334h-14.8784zm-59.5608 11.6515v-0.72631l33.3031-33.8807 34.7906 35.3333h-68.0937zm67.478-33.1559-17.1887-16.5446 0.6989-1.82129 0.69889-1.82129 34.9796-32.9003v69.6363l-2-4e-3zm423.189-49.3158v-53.8647l18-1.5375 89.7782 0.60019 0.895 0.89522 0.89501 0.89522 0.40404 44.4381 0.40404 44.4381-0.71295 9-0.71294 9h-108.95zm97.0214 3.53135 0.35476-36.3333-3.10992 3.61885-0.88342 52.9331-23.7833-24.2298 27.7766-32.3222-2.74786 3e-5 -22.0321 22-10.5963 9.53542-13.5886 14.4646-23.9454 23.3599-4.23302-0.84661-4.23301-0.84663v-7.22212l29.3333-27.6763v-1.99473l-6.7995-6.38676-6.7995-6.38677-3.06767-0.98634 7.04996 7.25235 7.04995 7.25235-12.4339 12.9075-12.4339 12.9075h-1.89876v-49.4846l5.92668 4.15121h2.07332v-2.79884l-9.35077-9.62817-0.55386 0.55387-0.55387 0.55387-0.22366 35.3263-0.22366 35.3263 0.11958 1.01899 0.11957 1.019 83.3333-0.70466zm-53.9315 20.7793 10.8631-11.7793 1.35683-0.1579 1.35682-0.15789 0.86326 0.11231 0.86325 0.11231-0.50027-2.28775-0.50026-2.28775 4.09296-3.20296 4.09297-3.20296 27.6923 27.7392 0.36457 3.33334 0.36457 3.33333-7.56708 0.86635-10.6096-7.02107 2.8505 5.32622-2.00721 1.17253-44.4398-0.1188zm-577.757-148.779 1.2e-4 -69.6667h153.333l-0.0988 64.3333-0.0988 64.3333-1.80234 10.6667h-151.334zm106.667 52.6424 28.6667-0.30908-0.15016-52.3373-0.15016-52.3373-29.1832-0.0879-29.1832-0.088-59.0735 0.1838-0.15173 52.5711-0.15174 52.5711 6.0436 0.85785 27.3333-0.35759 27.3333-0.35756zm-84.21-7.54736-0.21004-3.42839 0.40556-4 0.0368-38.526 0.0368-38.526-0.4332-0.4332-0.43319-0.4332 0.54956-4.70742 0.54951-4.70742h13.2467l8.46154 8.49375 31.4588 29.1586 1.64655-1.64655-34.3069-34.6725 71.8682-0.0408 3.2856-2.08704 6.3572 0.7306 6.3572 0.73061 0.40657 4.18254 0.40656 4.18254-8.96822 7.81746-8.96823 7.81746-28.0946 25.3333-50.7584 48.7692-12.6904-0.57906zm41.9615 2.62456-20.2486-0.71961 13.8305-13.3333 19.1706-18.4336 16.1746 15.8835 16.1746 15.8835-10.1864 1.84632-14.6667-0.4071zm33.8649-16.329-18.9497-17.6094-0.37176-1.41585-0.37176-1.41586 5.26225-5.13845 5.26225-5.13844 42.219 39.4106 0.82764 8.9167h-14.9282zm13.3836-15.1401-17-15.3534v-2.12636l5.66666-5.07453 5.66667-5.07453 12.3333-11.3084 12.3333-11.3084v65.6617l-2-0.0626z" fill="#996431"/>
</svg>
