<svg xmlns="http://www.w3.org/2000/svg" fill="#d7374a" stroke="#000" viewBox="50 50 200 200">
  <metadata source="http://wappenwiki.org/images/c/cb/Pontev%C3%A8s.svg" license="https://creativecommons.org/licenses/by-nc-sa/3.0"/>
  <g id="bridge" stroke-width=".37">
    <g stroke-linejoin="round">
      <rect x="61.29" y="109.06" width="8.31" height="11.82"/>
      <rect x="61.29" y="119.16" width="8.31" height="1.7"/>
      <polygon points="132.43 109.06 138.7 109.06 138.7 85.82 132.43 85.82 67.56 85.82 61.29 85.82 61.29 109.06 68.88 109.06 68.88 101.82 70.28 97.51 73.62 94.62 78.85 93.87 82.11 95.52 84.68 99.76 84.68 102.1 84.68 105.66 84.68 109.06 91.87 109.06 91.87 101.21 93.91 97.07 98.03 94.57 101.92 94.3 105.19 95.93 107.38 99 108.15 103.48 108.15 109.06 114.93 109.06 115.04 99.84 117.88 95.52 122.62 94.3 127.7 95.52 131.06 99.76 131.2 105.6 131.2 109.06"/>
      <line fill="none" x1="61.49" y1="103.37" x2="69.55" y2="103.37"/>
      <line fill="none" x1="61.49" y1="99" x2="69.55" y2="99"/>
      <line fill="none" x1="84.56" y1="103.37" x2="92.61" y2="103.37"/>
      <line fill="none" x1="84.56" y1="99" x2="92.61" y2="99"/>
      <line fill="none" x1="138.52" y1="103.37" x2="130.46" y2="103.37"/>
      <line fill="none" x1="138.52" y1="99" x2="130.46" y2="99"/>
      <line fill="none" x1="115.09" y1="103.37" x2="108.29" y2="103.37"/>
      <line fill="none" x1="115.09" y1="99" x2="107.03" y2="99"/>
      <line fill="none" x1="61.49" y1="94.57" x2="138.52" y2="94.57"/>
      <rect x="84.37" y="109.06" width="8.31" height="11.82"/>
      <rect x="84.37" y="119.16" width="8.31" height="1.7"/>
      <rect x="107.38" y="109.06" width="8.31" height="11.82"/>
      <rect x="130.4" y="109.06" width="8.31" height="11.82"/>
      <rect x="130.4" y="119.16" width="8.31" height="1.7"/>
      <path d="M76.93 93.05c-4.91 0-8.9 4-8.9 8.91V108h1.52v-6.04c0-1.78.72-3.48 2.03-4.8 1.42-1.41 3.31-2.2 5.35-2.2s3.93.79 5.34 2.2a6.76 6.76 0 0 1 2.03 4.8v6.03h1.53v-6.03a8.9 8.9 0 0 0-8.9-8.9z"/>
      <path d="M100 93.05c-4.9 0-8.9 4-8.9 8.91V108h1.52v-6.04c0-1.78.72-3.48 2.04-4.8 1.41-1.41 3.3-2.2 5.34-2.2s3.93.79 5.35 2.2a6.76 6.76 0 0 1 2.03 4.8v6.03h1.53v-6.03a8.9 8.9 0 0 0-8.9-8.9z"/>
      <path d="M123.07 93.05c4.9 0 8.9 4 8.9 8.91V108h-1.53v-6.04c0-1.78-.71-3.48-2.03-4.8a7.5 7.5 0 0 0-5.34-2.2 7.5 7.5 0 0 0-5.35 2.2 6.8 6.8 0 0 0-2.03 4.8v6.03h-1.53v-6.03c0-4.9 4-8.9 8.9-8.9z"/>
      <rect x="84.37" y="107.98" width="8.31" height="1.07"/>
      <rect x="107.38" y="107.98" width="8.31" height="1.07"/>
      <rect x="107.38" y="119.16" width="8.31" height="1.7"/>
      <rect x="61.29" y="107.98" width="8.31" height="1.07"/>
      <rect x="130.4" y="107.98" width="8.31" height="1.07"/>
      <polygon points="139.76 83.64 60.24 83.64 61.29 85.82 138.7 85.82"/>
      <rect x="60.24" y="79.01" width="79.51" height="4.63"/>
      <line fill="none" x1="91.1" y1="103.37" x2="91.1" y2="107.98"/>
      <line fill="none" x1="85.83" y1="103.37" x2="85.83" y2="107.98"/>
      <line fill="none" x1="61.49" y1="90.16" x2="138.52" y2="90.16"/>
    </g>
    <g fill="none" stroke-linejoin="round">
      <line x1="100.11" y1="90.16" x2="100.11" y2="85.82"/>
      <line x1="88.52" y1="90.16" x2="88.52" y2="85.75"/>
      <line x1="111.7" y1="90.16" x2="111.7" y2="85.75"/>
      <line x1="134.46" y1="90.16" x2="134.46" y2="85.75"/>
      <line x1="123.09" y1="90.16" x2="123.09" y2="85.75"/>
      <line x1="65.28" y1="90.16" x2="65.28" y2="85.82"/>
      <line x1="76.88" y1="90.16" x2="76.88" y2="85.75"/>
      <line x1="105.92" y1="94.57" x2="105.92" y2="90.22"/>
      <line x1="94.34" y1="94.57" x2="94.34" y2="90.16"/>
      <line x1="117.5" y1="94.57" x2="117.5" y2="90.16"/>
      <line x1="128.89" y1="94.57" x2="128.89" y2="90.16"/>
      <line x1="71.1" y1="94.57" x2="71.1" y2="90.22"/>
      <line x1="82.69" y1="94.57" x2="82.69" y2="90.16"/>
      <line x1="105.92" y1="83.48" x2="105.92" y2="79.14"/>
      <line x1="94.34" y1="83.48" x2="94.34" y2="79.07"/>
      <line x1="117.5" y1="83.48" x2="117.5" y2="79.07"/>
      <line x1="128.89" y1="83.48" x2="128.89" y2="79.07"/>
      <line x1="71.1" y1="83.48" x2="71.1" y2="79.14"/>
      <line x1="82.69" y1="83.48" x2="82.69" y2="79.07"/>
      <line x1="88.52" y1="98.99" x2="88.52" y2="94.57"/>
      <line x1="111.7" y1="98.99" x2="111.7" y2="94.57"/>
      <line x1="134.46" y1="98.99" x2="134.46" y2="94.57"/>
      <line x1="65.28" y1="98.99" x2="65.28" y2="94.64"/>
      <line x1="88.52" y1="107.8" x2="88.52" y2="103.39"/>
      <line x1="111.7" y1="107.8" x2="111.7" y2="103.39"/>
      <line x1="134.46" y1="107.8" x2="134.46" y2="103.39"/>
      <line x1="65.28" y1="107.8" x2="65.28" y2="103.45"/>
    </g>
    <g fill="none" stroke-linejoin="round">
      <line x1="102.92" y1="93.53" x2="102.23" y2="95.26"/>
      <line x1="106.88" y1="96.16" x2="105.71" y2="97.56"/>
      <line x1="108.78" y1="100.84" x2="107.44" y2="100.96"/>
      <line x1="97.19" y1="93.53" x2="97.87" y2="95.26"/>
      <line x1="93.22" y1="96.16" x2="94.39" y2="97.56"/>
      <line x1="91.2" y1="100.84" x2="92.54" y2="100.96"/>
      <line x1="108.91" y1="105.42" x2="107.57" y2="105.55"/>
      <line x1="91.2" y1="105.42" x2="92.54" y2="105.55"/>
      <line x1="125.98" y1="93.53" x2="125.3" y2="95.26"/>
      <line x1="129.95" y1="96.16" x2="128.77" y2="97.56"/>
      <line x1="131.85" y1="100.84" x2="130.51" y2="100.96"/>
      <line x1="120.25" y1="93.53" x2="120.93" y2="95.26"/>
      <line x1="116.28" y1="96.16" x2="117.45" y2="97.56"/>
      <line x1="114.26" y1="100.84" x2="115.6" y2="100.96"/>
      <line x1="131.97" y1="105.42" x2="130.63" y2="105.55"/>
      <line x1="114.26" y1="105.42" x2="115.6" y2="105.55"/>
      <line x1="79.73" y1="93.53" x2="79.05" y2="95.26"/>
      <line x1="83.7" y1="96.16" x2="82.52" y2="97.56"/>
      <line x1="85.59" y1="100.84" x2="84.25" y2="100.96"/>
      <line x1="74" y1="93.53" x2="74.68" y2="95.26"/>
      <line x1="70.03" y1="96.16" x2="71.2" y2="97.56"/>
      <line x1="68.13" y1="100.84" x2="69.47" y2="100.96"/>
      <line x1="85.72" y1="105.42" x2="84.38" y2="105.55"/>
      <line x1="68.01" y1="105.42" x2="69.35" y2="105.55"/>
    </g>
  </g>
</svg>
