<svg xmlns="http://www.w3.org/2000/svg" fill="#d7374a" stroke="#000" viewBox="50 50 200 200">
  <metadata author="Azgaar" license="https://creativecommons.org/publicdomain/zero/1.0"/>
  <g id="crossOccitan" stroke-width=".5">
    <path d="M100 60a3 3 0 00-3 3 3 3 0 001.8 2.7c-1.9 2.4-5.9 6.4-12.7 7.4a3 3 0 000-.1 3 3 0 00-3-3 3 3 0 00-3 3 3 3 0 003 3 3 3 0 002.4-1.2 39 39 0 018.8 19.3A39 39 0 0175 85.3a3 3 0 001.2-2.4 3 3 0 00-3-3 3 3 0 00-3 3 3 3 0 003 3 3 3 0 00.1 0c-1.1 6.8-5 10.9-7.4 12.8a3 3 0 00-2.7-1.8 3 3 0 00-3 3 3 3 0 003 3 3 3 0 002.7-1.8c2.4 1.9 6.3 5.9 7.4 12.8a3 3 0 00-.1 0 3 3 0 00-3 3 3 3 0 003 3 3 3 0 003-3 3 3 0 00-1.2-2.4 39 39 0 0119.2-8.8 37.3 37.3 0 01-8.8 19.3 3 3 0 00-2.4-1.2 3 3 0 00-3 3 3 3 0 003 3 3 3 0 003-3 3 3 0 000-.1c6.8 1.1 10.8 5 12.7 7.4a3 3 0 00-1.8 2.7 3 3 0 003 3 3 3 0 003-3 3 3 0 00-1.8-2.8c1.9-2.4 5.9-6.4 12.7-7.4a3 3 0 000 .1 3 3 0 003 3 3 3 0 003-3 3 3 0 00-3-3 3 3 0 00-2.4 1.2 39 39 0 01-8.8-19.3 39 39 0 0119.2 8.8 3 3 0 00-1.2 2.4 3 3 0 003 3 3 3 0 003-3 3 3 0 00-3-3 3 3 0 00-.1 0c1.1-6.8 5-10.9 7.4-12.8a3 3 0 002.7 1.8 3 3 0 003-3 3 3 0 00-3-3 3 3 0 00-2.6 1.9c-2.4-1.9-6.3-5.9-7.4-12.8a3 3 0 00.1 0 3 3 0 003-3 3 3 0 00-3-3 3 3 0 00-3 3 3 3 0 001.2 2.4 39 39 0 01-19.2 8.8c1.4-10.1 6.7-17 8.8-19.3a3 3 0 002.4 1.2 3 3 0 003-3 3 3 0 00-3-3 3 3 0 00-3 3 3 3 0 000 .1c-6.8-1.1-10.8-5-12.7-7.4a3 3 0 001.7-2.7 3 3 0 00-2.9-3zm0 10c4.2 4.6 9 5.7 9 5.7-5.6 6.7-6.9 17.2-7.2 22.4 5.2-.3 15.6-1.6 22.3-7.2 0 0 1.1 4.7 5.6 9-4.6 4.3-5.6 9-5.6 9-6.7-5.7-17.1-6.9-22.3-7.2.3 5.2 1.6 15.7 7.2 22.4 0 0-4.7 1.1-9 5.7-4.2-4.6-9-5.7-9-5.7 5.6-6.7 6.9-17.2 7.2-22.4-5.2.3-15.6 1.6-22.3 7.2 0 0-1.1-4.7-5.6-9 4.6-4.3 5.6-9 5.6-9 6.7 5.7 17.1 6.9 22.3 7.2-.3-5.2-1.6-15.7-7.2-22.4 0 0 4.7-1.1 9-5.7z"/>
  </g>
</svg>
