<svg xmlns="http://www.w3.org/2000/svg" fill="#d7374a" stroke="#000" viewBox="50 50 200 200">
  <metadata source="http://wappenwiki.org/images/a/a1/Dufva_i_V%C3%A4sterg%C3%B6tland.svg" license="https://creativecommons.org/licenses/by-nc-sa/3.0"/>
  <g id="dove" stroke-width=".44">
    <g>
      <g>
        <path class="secondary" d="M94.73 131.83c-.47-.8-1.23-1-1.23-1s-1.14-.33-1.34.62c-.2.96.36 1.32.36 1.32s.6-.33 1.24-.07c.85.27 1.04 1.06 1.3 1.15.24-.41-.04-1.52-.33-2.02zm-12.5-2.58s-.97.05-1.58.76c-.38.44-.63 1.59-.27 2.12.18-.02.33-.87 1-1.05a1.41 1.41 0 0 1 1.1.22m-1.11.64s-.74.17-1.09 1.25c-.38 1.33.76 2.45.9 2.32.04-.09-.2-.99.23-1.44.43-.46.72-.41.82-.37m1 .51s-.72.33-.79 1.45c-.06 1.38 1.2 2.23 1.3 2.08.07-.06-.33-1.07-.02-1.61a.91.91 0 0 1 .96-.49"/>
        <path class="secondary" d="M90.57 123.45c-.16.34-.62 1.28-.53 1.44-.25.12-.47.93-.37 1.33a2.6 2.6 0 0 0-.54 1.3c-.3.2-.74 1.18-.59 1.45-.09.14-.22.11-.37.35-.3.44-.28.56-.82.56-.66.03-.78-.8-1.56-.66-.23.04-.42.04-.57.2-.49.46-1.3.1-1.4-.12-.22-.6-.69-.6-1.17-.52-.52.13-.65.54-.65.54s.59-.02.6 1.03a.91.91 0 0 1-.28.76 1.4 1.4 0 0 0-.47.05c-.94.23-.82.73-.82.88.01.09.03.07.1.07.44-.07 1.06.74.87 1.63.1.36.73.46.94.43l.1.2c.72-.33 1.56.81 1.4 1.36.01.18.34.37.96.2.27-.1.52-.22.61-.64.1-.43-.13-.33-.01-.7.13-.38.73-.21.97-.32.65-.29.62-1.03 1.5-1.16.6-.09.44-1.07.85-1.12 1.01-.1.94.48 1.68.2.28.07.08.76.88.82.64.03.8-.38.8-.38s-.58-1.1.71-1.84c.12-.15.02-.7-.87-.76-.51-.1-.74.4-.74.4s-.78-.32-.98-.02c-.13.17-.51.2-.83-.06-.18-.18-.02-.38-.02-.38l.7-1.64s3.34-7.46 3.4-7.77c.08-.94-1.94-1.55-1.94-1.55s-1.29 3.87-1.54 4.44z"/>
        <g stroke="none" fill="#000">
          <path d="M89.8 130.48a1.12 1.12 0 0 1-.13-.41.83.83 0 0 1 .05-.38h.04c.03.11.07.22.15.3.06.1.15.15.22.2l-.32.3zm-5.8-1.3a1.15 1.15 0 0 1-.03.63 1.2 1.2 0 0 1-.3.5l-.04-.03c.07-.17.1-.34.1-.5a.6.6 0 0 0-.04-.24c-.01-.07-.06-.13-.1-.2l.4-.15zm-.75 3.1a1.47 1.47 0 0 0-.28-.48l-.1-.05.28-.34c.07.09.1.16.11.23l.05.22v.4l-.06.01zm1.66.8c.09.1.15.18.2.28l.1.28c.07.2.1.37.11.56l-.04.01a2.35 2.35 0 0 0-.28-.45l-.16-.2a.62.62 0 0 0-.18-.11l.25-.37zm6.72-1.36a2.4 2.4 0 0 1-.18-.68 1.15 1.15 0 0 1 .2-.76l.33.3a.7.7 0 0 0-.16.2 1.57 1.57 0 0 0-.13.92l-.06.02zm-.06-7.99c-.16-.06-.34-.07-.52-.08l-.24-.02h-.12l-.05.02c-.01 0 0 0 0 0-.01 0 .06 0 .08-.03l-.28-.34.13-.05h.06l.09.02a1.85 1.85 0 0 1 .4.16c.16.09.32.16.46.3l-.01.02zm-.66 1.43a1.18 1.18 0 0 0-.44-.09l-.22.02-.1.01-.05.02h-.07l.01-.45c-.03 0-.01 0 0 0h.04l.08.02.13.03.24.1c.14.07.29.18.4.28l-.02.06zm-.38 1.34-.46-.1-.2-.02c-.06 0-.12.03-.1.04l-.19-.4c.15-.05.25 0 .34.02a1.18 1.18 0 0 1 .24.12c.15.09.26.19.38.28l-.01.06zm-.55 1.32a.9.9 0 0 0-.42-.13h-.21c-.06 0-.12.03-.1.04l-.2-.38a.48.48 0 0 1 .34 0l.25.12c.15.09.28.19.39.34l-.05.01zm-.56 1.48a.96.96 0 0 0-.44-.13l-.22-.01-.1.01c-.03 0-.06.02-.05.03l-.11-.42c.09-.02.14 0 .19.01l.13.04a1.91 1.91 0 0 1 .46.27c.07.06.13.12.17.19l-.03.01z"/>
          <path d="M82.3 130.97a1.23 1.23 0 0 1 .88.48l-.17-.09h.03-.01l-.06.06.01-.03.02-.03.01-.01.02-.02.1-.1.12-.1.25-.2c.09-.07.19-.13.3-.17a.91.91 0 0 1 .35-.06c.45-.01.83.12 1.2.2.18.05.37.1.49.07l.11-.03.14-.05.26-.09.28-.1c.04-.01.1-.04.18-.04h.17l.3.06.28.11v.05c-.2.06-.4.06-.6.07l-.1.02-.11.03-.27.11-.28.1-.13.05-.15.06a.97.97 0 0 1-.35.01l-.3-.04c-.39-.07-.76-.2-1.1-.16l-.22.04-.2.12-.2.16-.11.09-.1.1.01-.01-.01.03.01-.03c-.03.06-.09.09-.13.12l-.1.02h-.15c-.06 0-.12-.04-.16-.08a.59.59 0 0 0-.25-.21.83.83 0 0 0-.33-.1l.06-.41zm5.71.75a.7.7 0 0 1-.35.35l-.22.1-.22.07-.2.08-.08.04-.02.02.02-.02.01-.03v-.04.09l-.01.03c-.03.04-.07.06-.09.07l-.04.01h-.47a.77.77 0 0 0-.39.08l-.14.09-.1.07-.08.07a1.47 1.47 0 0 0-.3.3l-.3.35-.33-.01-.01-.02-.03-.01-.06-.05-.12-.07a.88.88 0 0 0-.26-.07c-.2-.02-.41 0-.57.07a.82.82 0 0 0-.4.34.97.97 0 0 0-.07.54l-.45.07a1.32 1.32 0 0 1 .1-.82 1.12 1.12 0 0 1 .64-.56c.26-.09.53-.12.8-.09.13.02.26.06.39.12l.18.1.08.08.1.09-.33-.02.32-.35.1-.09.1-.09.19-.14.08-.06.1-.08c.07-.06.15-.1.24-.13.18-.07.37-.07.53-.07l.24.01.11.02h.1-.02l-.03.01-.08.06-.01.03v.06-.08l.03-.05.04-.06.08-.05.11-.06.25-.07.22-.04.23-.05a.73.73 0 0 0 .38-.19l.01.05z"/>
        </g>
      </g>
      <path d="M85.92 111.9c.49 1.18.53 2.16 1.34 4.23a23.9 23.9 0 0 1 1.94 4.5c.1.33.27.62.4.93.06.13.28.72.43.73.11.02.53-.51.61-.6.53-.25.86.12.97.34.05.09.37.76.44.82.1.08.64-.53.74-.54.23-.02.04-.05.28-.06.06 0 .13-.02.19.03.04.03.07.09.09.13.13.3.2.54.48.7.41.26.89-.4.96-.55.47-2.37 2.25-5.46 2.14-8.93"/>
      <g>
        <path stroke="none" fill="#000" d="M94.16 115.65c.14.32.22.69.22 1.06s-.06.73-.18 1.07c-.12.35-.28.65-.43.96-.14.3-.26.6-.29.97a1.12 1.12 0 0 1-.12-.53c0-.2.03-.37.08-.55.08-.35.23-.67.33-.98a7.01 7.01 0 0 0 .39-2z"/>
      </g>
    </g>
    <g>
      <path class="secondary" d="M99 134.44c-.45-.83-1.2-1.05-1.2-1.05s-1.11-.38-1.35.57.3 1.34.3 1.34.63-.3 1.24-.03c.86.31 1 1.1 1.27 1.2.25-.42.01-1.52-.27-2.03zm-12.38-3.1s-.97 0-1.62.68c-.4.43-.7 1.56-.35 2.1.17 0 .36-.85 1.04-1a1.44 1.44 0 0 1 1.1.27m-1.14.6s-.75.15-1.14 1.21c-.42 1.32.66 2.48.8 2.35.04-.09-.16-.98.3-1.42.45-.45.73-.39.83-.34m.97.56s-.74.29-.85 1.4c-.1 1.39 1.11 2.3 1.22 2.14.06-.06-.3-1.07.04-1.62a.91.91 0 0 1 .97-.44"/>
      <path class="secondary" d="M95.19 125.9c-.17.33-.67 1.26-.6 1.42-.24.1-.5.91-.4 1.3a2.68 2.68 0 0 0-.6 1.3c-.29.18-.77 1.15-.64 1.43-.09.15-.22.12-.38.34-.32.42-.3.54-.85.53-.67 0-.75-.83-1.53-.72-.24.04-.43.02-.59.19-.51.44-1.3.06-1.4-.18-.19-.6-.66-.63-1.14-.57-.53.1-.67.51-.67.51s.6 0 .56 1.06a.88.88 0 0 1-.3.75 1.74 1.74 0 0 0-.48.01c-.94.2-.85.7-.86.86.01.08.03.07.1.07.44-.06 1.03.78.8 1.66.08.35.7.49.92.47.01.07.06.13.1.2.74-.3 1.53.89 1.34 1.42.02.17.32.38.94.23.28-.08.53-.19.65-.61.12-.43-.13-.34.01-.7s.75-.19.99-.27c.66-.27.66-1 1.54-1.1.6-.08.49-1.06.9-1.1 1.03-.07.9.52 1.66.27.28.07.06.78.84.85.64.06.8-.34.8-.34s-.52-1.1.8-1.8c.12-.14.04-.7-.84-.8-.51-.1-.76.39-.76.39s-.77-.36-.97-.08c-.14.18-.53.2-.84-.1-.16-.2 0-.38 0-.38l.76-1.6s3.65-7.34 3.7-7.64c.13-.94-1.86-1.61-1.86-1.61s-1.43 3.78-1.7 4.33z"/>
      <g stroke="none" fill="#000">
        <path d="M94.13 132.9a.85.85 0 0 1-.1-.42c0-.13 0-.26.05-.38h.05c.03.12.07.22.13.3a.59.59 0 0 0 .22.21l-.35.28zm-5.74-1.55.03.32c-.01.1-.03.2-.07.31a1.22 1.22 0 0 1-.32.47l-.03-.03c.07-.16.11-.34.11-.5l-.02-.23c-.02-.08-.06-.14-.1-.2l.4-.14zm-.9 3.06-.15-.34a1.03 1.03 0 0 0-.1-.13c-.04-.05-.08-.08-.11-.06l.3-.33c.07.1.08.16.11.25l.03.22c0 .14 0 .28-.03.4l-.04-.01zm1.64.86c.09.1.15.2.19.28l.1.28c.05.2.08.37.1.56l-.05.02a2.97 2.97 0 0 0-.43-.67.41.41 0 0 0-.18-.11l.27-.36zm6.78-1.08a2.65 2.65 0 0 1-.15-.68c0-.12 0-.25.04-.37a.8.8 0 0 1 .2-.37l.3.31a.67.67 0 0 0-.17.18l-.12.28a1.91 1.91 0 0 0-.06.65h-.04zm.26-7.97c-.16-.06-.34-.09-.5-.12l-.25-.01h-.16c-.02 0 0 0 0 0-.02 0 .06 0 .07-.03l-.26-.36.13-.04h.06l.09.01.13.06.25.12a1.91 1.91 0 0 1 .46.3l-.02.07zm-.72 1.4a1.6 1.6 0 0 0-.44-.1h-.32l-.05.02h-.07l.03-.44c-.03 0-.02 0 0 0h.04l.08.01.13.05.23.1c.15.09.28.2.4.3l-.03.05zm-.43 1.3-.44-.11-.2-.02c-.06 0-.12.03-.1.04l-.17-.4a.5.5 0 0 1 .34.04l.24.13.36.3-.03.02zm-.6 1.31a1.07 1.07 0 0 0-.43-.16l-.2-.02c-.06 0-.12.03-.1.05l-.2-.4a.55.55 0 0 1 .36.02 1.18 1.18 0 0 1 .23.11c.15.1.28.21.37.36l-.03.04zm-.63 1.47a1.13 1.13 0 0 0-.43-.15l-.22-.01h-.1l-.04.01-.1-.42c.1-.02.15.01.2.01l.13.05c.09.04.16.07.24.13l.2.15c.06.05.13.11.18.19l-.06.04z"/>
        <path d="M86.6 133.07a1.25 1.25 0 0 1 .85.51l-.14-.1h.03-.02c-.01 0-.04.01-.06.06l.02-.03.01-.03.02-.02.01-.01.1-.09.12-.1.27-.2a1 1 0 0 1 .3-.14l.34-.06c.46 0 .83.15 1.2.25.17.06.36.1.48.09l.12-.03.13-.04.28-.1.28-.08.17-.04.18.01.3.07c.08.03.19.08.27.14l-.01.04c-.2.05-.4.05-.59.05h-.12l-.1.02-.26.1-.28.11-.14.04-.16.05a.95.95 0 0 1-.35 0l-.3-.06c-.4-.09-.76-.22-1.08-.2a.67.67 0 0 0-.24.04l-.2.1-.2.16-.11.1-.12.1.02-.02-.02.03.02-.03a.27.27 0 0 1-.14.1l-.1.03h-.15c-.06-.01-.11-.04-.14-.09a.84.84 0 0 0-.24-.22c-.1-.06-.2-.09-.32-.12l.07-.4zm5.69.97c-.06.16-.22.26-.37.34l-.23.08-.24.06a1.03 1.03 0 0 0-.19.08l-.09.04-.01.02.01-.02.02-.03v-.04.09l-.02.03a.13.13 0 0 1-.09.05l-.04.02h-.13l-.12-.02-.22-.01c-.15 0-.28.01-.4.06-.06.01-.11.06-.16.09l-.09.05-.1.08a1.2 1.2 0 0 0-.32.28l-.31.34-.33-.02-.01-.01-.01-.02-.05-.04-.12-.08-.26-.08a1.32 1.32 0 0 0-.59.04.76.76 0 0 0-.41.32.86.86 0 0 0-.09.55l-.44.06c-.04-.28 0-.56.15-.83a1.1 1.1 0 0 1 .64-.53 1.47 1.47 0 0 1 .8-.04l.4.13.17.12.09.07.09.1-.33-.02.34-.34.09-.09.1-.09c.08-.04.14-.1.2-.13l.11-.06.09-.06a1.03 1.03 0 0 1 .25-.13c.18-.06.37-.06.53-.06l.23.03.12.02h.09-.01l-.03.01-.08.06-.01.03v.06l.01-.08.03-.06.06-.05.07-.05.12-.04a.7.7 0 0 1 .25-.06l.22-.03.22-.03a.81.81 0 0 0 .4-.18v.02z"/>
      </g>
    </g>
    <path d="M95.45 88.25c6.8 5 8.42 9.33 12.79 12.35 7.2 4.57 6.01 9.55 13.9 12.26l-2.21 2.66.61.69c-5.76-1.59-13.52.69-18.84-.31.07 3.47-1.75 6.97-2.24 9.33-.07.14-.54.8-.95.55-.27-.16-.34-.41-.47-.7-.03-.05-.05-.11-.1-.14-.05-.05-.1-.03-.18-.03-.24.01-.05.04-.28.06-.1.01-.66.6-.75.53-.07-.06-.38-.75-.44-.83-.12-.22-.44-.58-.97-.33-.09.08-.5.61-.62.58-.15-.03-.37-.61-.41-.75-.13-.3-.28-.61-.38-.94-.56-1.66-1.12-2.26-2.22-4.38-.8-2.07-.84-3.05-1.31-4.25-2.62-1.55-8.47-1.44-14.45-5.73A16.64 16.64 0 0 1 65.68 95.5c-.32-2.33-.34-6.07 1.47-8.87.44-3.68 3.7-5.53 4.85-9.46a6.8 6.8 0 0 0-.19-4.1 4.44 4.44 0 0 1-1.75-3.36c.49.07 1.97.1 2-.2.49-1.1-.8-2.63-2.72-3.21l.02-.02-.02.02c.58-.53.39-1.31 0-1.9-.26-.41-.64-.74-.9-.8a5.95 5.95 0 0 1 2.52-2.52 7.44 7.44 0 0 1 3.88-.99c1.54 0 3.35.28 4.7.99 3.5 2.06 5.47 5.88 5.91 10.29.64 1.16 1.28 2.32 1.67 3.58.64 2.15.86 3.44 2.04 6.16.51.96 1.5 3.63 6.29 7.15z"/>
    <g stroke="none" fill="#000">
      <path d="M73.27 73.64a1.96 1.96 0 0 1 .5.55c.06.1.12.2.16.31.04.12.09.22.12.39a.7.7 0 0 1-.39-.17 1.13 1.13 0 0 1-.4-.66.84.84 0 0 1 0-.42zm3.8-.77c.12.09.18.2.24.32.04.12.07.25.07.37 0 .13-.03.27-.07.38a.67.67 0 0 1-.26.31l-.1-.36v-.33c0-.1 0-.22.02-.32.02-.12.05-.24.1-.37zm-1.9.81.16.32.1.27.09.28.09.34a.55.55 0 0 1-.37-.15.8.8 0 0 1-.22-.32.68.68 0 0 1-.03-.39.5.5 0 0 1 .19-.35zm3.48-1.56c.12.12.19.27.23.4a1.54 1.54 0 0 1 .02.88c-.05.15-.12.28-.24.41-.06-.16-.09-.3-.11-.44l-.03-.41.01-.41.12-.43z"/>
    </g>
    <g>
      <path d="M119.01 111.37c3.49 5.06 8.74 8.04 11.46 12.14 2.02 2.2 6.63 7.06 6.55 7.99l.02-.08c0 .5-.56 1.37-1.77.96.13.88-2.3.34-3.14.04-.18 1.25-2.5.5-3.41.15-1.27.88-4.18-.96-5.72-2.3a25.89 25.89 0 0 1-4.2-4.85c-3.17-4.57-4.1-9.12-6.1-13.87-.55-1.28-.73-2.72-1.05-4.16"/>
      <path fill="none" d="M128.69 132.57a11.77 11.77 0 0 1-2.9-1.8"/>
      <g stroke="none" fill="#000">
        <path d="M115.43 114.83a59.1 59.1 0 0 1 2.11 4.33l1 2.2c.34.71.68 1.45 1.08 2.14.4.69.83 1.35 1.32 1.98a30.63 30.63 0 0 0 5 5.13l-.28.34a29.02 29.02 0 0 1-3.51-3.34 21.21 21.21 0 0 1-2.81-3.95c-.38-.72-.7-1.46-1.05-2.19l-.95-2.2c-.65-1.49-1.25-2.97-1.91-4.44z"/>
        <path d="M117.6 115.62a34.84 34.84 0 0 1 1.2 2.62c.38.88.73 1.76 1.14 2.63.41.85.87 1.69 1.38 2.5.52.79 1.12 1.54 1.74 2.26a25.68 25.68 0 0 0 4.11 3.92 18.11 18.11 0 0 0 4.97 2.7l-.15.4a18.23 18.23 0 0 1-5.08-2.77 24.4 24.4 0 0 1-4.13-4.03 20.62 20.62 0 0 1-3.09-4.87c-.76-1.77-1.32-3.61-2.09-5.36z"/>
        <path d="M120.1 117.34c.9 1.62 1.53 3.37 2.44 4.94.22.4.47.78.74 1.14l.4.55.44.53a26.6 26.6 0 0 0 6.27 5.26 30.55 30.55 0 0 0 4.93 2.41l-.17.41-.64-.26-.33-.13-.32-.15-.63-.28-.63-.3-.31-.16-.31-.16-.62-.32-1.2-.7a27.49 27.49 0 0 1-4.41-3.39c-.68-.63-1.31-1.32-1.88-2.04l-.43-.54-.41-.56a12.33 12.33 0 0 1-.74-1.2c-.86-1.61-1.45-3.36-2.19-5.05z"/>
        <path d="M130.64 123.4c.37.58.68 1.19.93 1.83a4.7 4.7 0 0 1 .28 1.02c.01.17.03.38-.05.6a.6.6 0 0 1-.22.3l-.09.04-.1.04-.19.02c-.22-.02-.38-.1-.54-.15l-.47-.22a16.24 16.24 0 0 1-2.52-1.75 24 24 0 0 1-2.9-2.84 12.02 12.02 0 0 1-2.14-3.4 18.19 18.19 0 0 0 2.35 3.23 25.75 25.75 0 0 0 4.54 3.9 9.94 9.94 0 0 0 1.3.7c.15.06.3.1.41.12.06 0 .06 0 .1-.03.03-.02.05-.05.08-.1.03-.11.03-.26.01-.4-.04-.3-.15-.62-.25-.92a11.61 11.61 0 0 0-.88-1.76l.35-.23zm-11.96-11.15 1.47 1.81a197.72 197.72 0 0 1 2.88 3.68c.47.61.92 1.26 1.26 1.97l-1.48-1.8-1.49-1.78-1.5-1.78-1.48-1.79.34-.3z"/>
      </g>
    </g>
    <path d="M89.16 81.07c.51.99 1.5 3.66 6.29 7.18 4.65 3.66 10.5 6.92 15.4 10.23 2.6 1.76 6.8 5.1 9.1 7.22a77.35 77.35 0 0 1 9.27 10.1c2.35 3.64-11.44-2.6-21.64-3.55-2.59-.23-9.62-.64-13.16-1.3-4.95-.92-17.84-4.2-21.98-13.87"/>
    <g stroke="none" fill="#000">
      <path d="M85.32 75.2c.05.33 0 .69-.09 1.02a5.76 5.76 0 0 1-1.58 2.62c.11-.32.28-.63.42-.93l.46-.88.42-.9c.15-.3.25-.61.37-.94zm.74 3.17a2.57 2.57 0 0 1-.4 1.59 2.66 2.66 0 0 1-1.2 1.13l.46-.66a15.8 15.8 0 0 0 .78-1.33l.36-.73zm.14 2.88a2.13 2.13 0 0 1-1.51 1.9l.4-.47.36-.46.36-.47.4-.5zm-16.62 4.07c-.18.34-.34.65-.49.99-.14.32-.26.66-.35 1a12.32 12.32 0 0 0-.34 2.11 2.84 2.84 0 0 1-.22-1.1 3.92 3.92 0 0 1 .62-2.17c.2-.33.45-.62.78-.83zm20.15 25.23a2.8 2.8 0 0 1 .2 1.03l.11 1.01a7.32 7.32 0 0 0 .54 1.93l-.4.17a7.47 7.47 0 0 1-.5-2.07c-.04-.35-.02-.7-.02-1.04l.07-1.03zm11.4 1.69c.1.3.14.6.2.91.06.3.16.57.25.87a6.12 6.12 0 0 1 .32 1.88h-.44a6.13 6.13 0 0 0-.23-1.78c-.08-.3-.15-.62-.18-.93-.01-.32 0-.64.09-.95zm-27.19-20.8.15 1.1a9.19 9.19 0 0 0 .62 2.09l.47 1.01a3.09 3.09 0 0 1-.78-.85 4.6 4.6 0 0 1-.49-1.06 3.8 3.8 0 0 1 .03-2.3zm4.77 6.25a4.5 4.5 0 0 0 1.72 1.6 6.47 6.47 0 0 0 2.2.8c.38.08.78.12 1.18.17.4.04.8.04 1.19.06.8.01 1.6-.03 2.42-.03-.79.19-1.6.32-2.4.38a8.73 8.73 0 0 1-3.67-.5 4.95 4.95 0 0 1-2.03-1.41 2.93 2.93 0 0 1-.61-1.07zm12.77 2.55a7.25 7.25 0 0 0 4.65.74 3.09 3.09 0 0 1-1.18.44 4.15 4.15 0 0 1-2.48-.4 3.01 3.01 0 0 1-.99-.78zm3.9-1.75c.57.47 1.26.7 1.95.87.7.18 1.41.31 2.12.37.35.04.72.06 1.07.07a18.02 18.02 0 0 0 3.24-.26 8.19 8.19 0 0 1-2.7.64l-.55.03c-.37 0-.75-.01-1.12-.04l-1.1-.18a8.97 8.97 0 0 1-2.09-.76c-.3-.2-.6-.44-.82-.74zm-10.94 3.52a8.83 8.83 0 0 0 3.91 1.72c.7.13 1.41.23 2.12.25.35.01.7 0 1.06-.06.35-.06.69-.16 1.02-.33a2.75 2.75 0 0 1-.97.55 4.7 4.7 0 0 1-1.1.2 7.1 7.1 0 0 1-2.22-.2 6.88 6.88 0 0 1-2.09-.77 5.67 5.67 0 0 1-1.73-1.36zm20.87-.6a3.97 3.97 0 0 0 1.12.5c.4.1.8.19 1.2.24.81.14 1.64.22 2.46.31l1.24.14c.4.04.82.08 1.23.17l.3.06.27.03c.2.01.39 0 .52-.04.07-.03.12-.06.15-.12s.03-.13.01-.22a1.75 1.75 0 0 0-.23-.55l.02-.03c.17.14.31.3.42.5.04.1.08.24.04.39s-.15.26-.26.32a1.32 1.32 0 0 1-.7.16l-.33-.01-.33-.05-1.2-.22-1.22-.2c-.83-.14-1.63-.27-2.44-.44-.41-.1-.81-.21-1.2-.34-.4-.15-.79-.31-1.11-.58l.04-.01zm-1.61 1.63c.53.38 1.13.64 1.75.85.61.2 1.26.35 1.9.47 1.27.25 2.58.38 3.89.51 1.3.14 2.63.2 3.92.46l.49.09.48.1c.33.06.64.1.96.12.16 0 .3 0 .45-.03a.73.73 0 0 0 .2-.07.15.15 0 0 0 .07-.14.76.76 0 0 0-.16-.4 3.53 3.53 0 0 0-.31-.38l.03-.03c.13.1.26.21.37.34.1.13.23.27.25.47.01.1-.05.24-.14.3a.73.73 0 0 1-.26.13c-.18.06-.35.07-.52.09-.69.04-1.35-.1-1.98-.18-1.3-.15-2.6-.34-3.91-.51a43.07 43.07 0 0 1-3.9-.67 14.1 14.1 0 0 1-1.9-.57 6.07 6.07 0 0 1-1.73-.95h.05zm-1.68 2.32a8.2 8.2 0 0 0 2.38.97 25.14 25.14 0 0 0 2.55.51c1.7.28 3.42.47 5.16.66 1.72.2 3.45.34 5.17.68.43.09.85.18 1.28.3.41.1.82.19 1.25.23.2.01.41.03.62 0 .19-.03.36-.12.4-.28.02-.18-.07-.38-.17-.56-.1-.19-.22-.37-.35-.53l.03-.03c.14.17.3.33.42.5l.17.3c.04.1.08.22.07.35 0 .13-.09.26-.2.35a.99.99 0 0 1-.33.15c-.24.06-.46.06-.68.06a6.8 6.8 0 0 1-1.32-.18l-1.26-.23-2.56-.38-2.57-.37c-1.72-.24-3.44-.47-5.15-.8-.85-.16-1.7-.35-2.54-.61a8.42 8.42 0 0 1-2.38-1.06l.01-.03zm-1.37 2.78c1 .4 2.05.72 3.1.95a39.1 39.1 0 0 0 3.18.56c2.13.31 4.3.52 6.44.74 2.15.22 4.32.42 6.45.86 1.06.22 2.13.49 3.15.87.13.04.25.1.38.13a2.9 2.9 0 0 0 .75.15c.12 0 .24-.03.28-.1.06-.08.06-.2.03-.31a4.72 4.72 0 0 0-.57-1.05l.03-.02c.17.2.35.4.5.64.07.12.14.24.19.38l.04.22c0 .08-.01.18-.06.25a.44.44 0 0 1-.2.17l-.24.06a2.35 2.35 0 0 1-.85-.1l-.4-.13c-1.03-.3-2.07-.54-3.13-.73a115.98 115.98 0 0 0-6.4-.94c-2.16-.27-4.3-.52-6.45-.87a39.54 39.54 0 0 1-3.19-.65c-1.06-.26-2.09-.6-3.07-1.04l.04-.04zM78.34 87.5a.88.88 0 0 1 .72.18c.1.07.18.16.25.26.06.1.12.22.12.37-.15-.03-.25-.07-.36-.12-.1-.04-.19-.1-.27-.17a1.1 1.1 0 0 1-.24-.22.68.68 0 0 1-.22-.3zm1.72-.03a.44.44 0 0 1 .37-.11c.13.01.25.05.35.11s.18.15.25.25c.06.1.1.2.12.36a.94.94 0 0 1-.34-.1 1.03 1.03 0 0 1-.25-.14l-.22-.16-.28-.2zm1.87-.11a1.32 1.32 0 0 1 .54.1c.18.07.32.16.47.28.15.12.27.25.38.4.1.14.2.32.24.5-.18-.06-.33-.17-.47-.26l-.41-.29-.39-.32-.36-.41zm-7.41-4.2a1.25 1.25 0 0 1 .4.77c.04.3 0 .59-.06.88-.08.28-.2.56-.36.81a3.97 3.97 0 0 1-.53.68l-.32-.31c.18-.2.34-.4.49-.6.14-.21.26-.45.33-.68.1-.24.14-.49.12-.74-.01-.25-.06-.5-.12-.77l.05-.03zm24.36 35.12c.14.33.2.7.2 1.06s-.06.74-.18 1.08c-.11.35-.29.64-.44.95-.14.31-.26.6-.29.96a1.3 1.3 0 0 1-.1-.53c0-.2.03-.37.07-.55.09-.35.24-.67.34-.98a7.01 7.01 0 0 0 .4-1.99zm-3.77 1.08a2.5 2.5 0 0 0-.42-1.58c-.15-.2-.37-.38-.58-.66a.88.88 0 0 1-.19-.47c-.01-.16.02-.35.12-.47-.02.16.01.3.09.41.06.12.14.21.25.31l.32.28c.12.1.24.22.34.35.19.28.3.6.32.93.02.32-.06.65-.25.9z"/>
    </g>
    <g>
      <path stroke-width=".15" d="M93.11 106.17c1.18.06 2.37.07 3.53-.16s1.7-.77 2.49-1.65"/>
      <path stroke="none" fill="#000" d="m93.11 106.17 1.65-.14c.54-.04 1.07-.1 1.6-.19a4.15 4.15 0 0 0 1.47-.5c.46-.26.85-.63 1.3-.97a4.56 4.56 0 0 1-1.1 1.28 3.53 3.53 0 0 1-1.61.63 10.32 10.32 0 0 1-3.3-.11z"/>
    </g>
    <g>
      <path stroke="none" fill="#000" d="M96 92.5c-.67-.52-1.48-.71-2.27-.99a4.51 4.51 0 0 1-1.68-.97l-.23-.23-.1-.14-.1-.1a1.18 1.18 0 0 0-.4-.3l-.24-.07-.25.02-.12.03-.16.06c-.14.04-.26.03-.38.03-.12-.02-.24-.03-.37-.08l-.09-.04-.05-.03-.14-.06a3.76 3.76 0 0 0-1.14-.3c-.42-.04-.83-.02-1.25-.07v-.07c.4-.05.82-.1 1.25-.12.42-.01.86.05 1.28.2l.14.07.08.02.04.02c.07.03.16.03.25.04.09 0 .18 0 .24-.03l.13-.05.17-.06c.12-.03.25-.05.37-.05.13.02.25.05.37.1a1.54 1.54 0 0 1 .68.55l.08.12.2.22a5.59 5.59 0 0 0 1.5.97c.38.16.76.32 1.14.51.43.22.78.46 1.04.8z"/>
    </g>
    <path d="M72.44 97.1c-1.54-4.18-.69-8.46 1.37-10.95"/>
    <path class="secondary" d="M64.3 67.8a10.79 10.79 0 0 0-3.4 1 8.63 8.63 0 0 1 5.44-3.8c-.38-1.05 1.28-1.58 2.1-1.45.27.08.64.38.92.8.38.58.57 1.36 0 1.9 1.9.58 3.2 2.1 2.72 3.21-.02.3-1.5.27-2 .2a14.08 14.08 0 0 1-3.28-.71c-.93-.27-2.18-.65-2.5-1.15z"/>
    <path fill="#F6F6F6" d="M72.96 66.64a2.06 2.06 0 0 0 2.38.04c.65-.47 1.15-1.17.82-1.98-.3-.78-1.98-1.41-2.88-.74-.34.25-.98.87-1.04 1.28-.07.6.3 1.09.72 1.4z"/>
    <g stroke="none" fill="#000">
      <path d="M80.8 66.3a.88.88 0 0 1 .44.2c.13.1.23.23.3.37.08.14.14.3.17.46.01.16.01.32-.05.48l-.28-.36-.22-.36-.19-.35-.18-.44zm.11 2.87a.94.94 0 0 1 .62.44.94.94 0 0 1 .13.76 1.01 1.01 0 0 1-.3-.25l-.2-.28a1.5 1.5 0 0 1-.15-.3 1 1 0 0 1-.1-.37zm-.87 1.35a1.18 1.18 0 0 1 .31.41c.08.15.14.31.17.47.02.16.04.33.01.5a1.16 1.16 0 0 1-.15.49c-.09-.17-.14-.31-.19-.46-.04-.15-.09-.3-.1-.44l-.06-.46c0-.17-.01-.33.01-.51z"/>
    </g>
    <path fill="none" d="M66.34 65.02s.55-.07 1.5.28a6.32 6.32 0 0 1 1.5.96M64.3 67.8c.78-.13 1.59-.18 2.38-.15.78.03 1.77.06 3.2.47"/>
    <g>
      <path stroke="none" fill="#000" d="m69.93 67.9.44.14c.15.05.3.1.43.17l.2.1a1.04 1.04 0 0 1 .42.3c.03.04.05.07.07.13.01.05.03.12-.02.16l-.04-.01c-.03-.06-.09-.08-.16-.1l-.2-.08-.18-.06-.22-.06-.45-.11-.42-.14.13-.44z"/>
    </g>
    <path stroke="none" fill="#000" d="M74.05 66.12c.16-.11.03-.35-.02-.48a1.25 1.25 0 0 1-.03-.62c.03-.17.08-.38-.03-.54a.12.12 0 0 0-.06-.06c-.11-.05-.36.1-.44.2a1.32 1.32 0 0 0-.17.53c-.05.22-.03.47.07.68s.34.35.56.32c.04.02.07 0 .12-.03z"/>
    <path fill="none" d="M72.65 64.57c-1.18 1.07-2.12 1.13-3.3-.21"/>
    <g>
      <path stroke="none" fill="#000" d="M73.17 63.79c.22-.2.48-.34.76-.41.28-.1.57-.1.85-.12l.81.03.38-.02c.13-.01.25-.06.4-.06-.04.06-.1.1-.16.14a1.87 1.87 0 0 1-.6.16l-.81.1a2.98 2.98 0 0 0-1.39.5l-.24-.32z"/>
    </g>
  </g>
</svg>
