<svg xmlns="http://www.w3.org/2000/svg" fill="#d7374a" stroke="#000" viewBox="50 50 200 200">
  <metadata source="http://wappenwiki.org" license="https://creativecommons.org/licenses/by-nc-sa/3.0"/>
  <g id="horseshoe">
    <path stroke-width=".72" d="M78.5 129.86l-2.23 2.01.02 6.94h10.56s1.47-6.6 1.47-9c0-2.09-2.24-9.89-3.68-15.7-1.6-6.72-5.1-16.94.96-26.76a16.39 16.39 0 0114.48-8.06c6.43 0 11.4 3.1 14.47 8.06 6.07 9.8 2.57 20.02.96 26.76-1.44 5.81-3.67 13.61-3.67 15.7 0 2.4 1.46 9 1.46 9h10.56l.02-6.94-2.23-2.01c0-2.48 12.17-19.64 12.17-35.52 0-17.3-14.42-32.98-33.74-32.98-19.3 0-33.75 15.67-33.75 32.98 0 15.86 12.17 33.04 12.17 35.52zm46.8-29.52c-1.03 0-1.87-1.04-1.87-2.33 0-1.3.84-2.33 1.87-2.33s1.87 1.03 1.87 2.33c-.02 1.3-.86 2.33-1.87 2.33zm-3.62 8.85c.38-1.22 1.5-1.97 2.5-1.65.98.3 1.46 1.56 1.05 2.78-.39 1.22-1.51 1.97-2.5 1.66-.96-.32-1.44-1.56-1.05-2.79zm.72-25.75c.98-.34 2.08.38 2.52 1.6s-.05 2.48-1.04 2.82c-.98.33-2.08-.39-2.52-1.61s.08-2.5 1.04-2.81zm-8.64-9.17c.81-.62 2.1-.31 2.9.7.8 1 .77 2.35-.05 2.97s-2.1.32-2.9-.7c-.77-1-.75-2.34.05-2.97zm-27.39 0c.81.65.84 1.97.05 2.98-.8 1-2.09 1.34-2.9.7-.82-.63-.82-1.95-.04-2.97s2.08-1.36 2.89-.71zM74.86 95.68c1.02 0 1.86 1.03 1.86 2.33s-.84 2.33-1.87 2.33-1.87-1.04-1.87-2.33.84-2.33 1.87-2.33zm3.9-9.46c-.4 1.23-1.53 1.95-2.52 1.61-.98-.33-1.44-1.58-1.03-2.8s1.54-1.95 2.52-1.61c.99.33 1.44 1.6 1.03 2.8zm-1.36 25.76c-.99.3-2.1-.44-2.5-1.66-.38-1.22.07-2.47 1.06-2.78.98-.32 2.08.43 2.5 1.65.4 1.23-.08 2.47-1.06 2.79z"/>
    <path fill="#000" stroke="none" d="M117.45 112.46c2.4-6.67 3.46-14.1 1.6-21.03-2.62-7.47-9.2-14.07-17.38-14.67-7.1-.73-14.15 3.17-17.87 9.15a21.36 21.36 0 00-3.73 13.23 40.89 40.89 0 002.53 13.32c-2.67-6.78-3.8-14.49-1.74-21.58 2.7-7.47 9.46-13.99 17.66-14.49 7.64-.77 15.05 3.92 18.69 10.5 3.7 5.92 3.37 13.33 1.93 19.89a65.41 65.41 0 01-1.69 5.68zm6.41 19.6l-10.1-.03-.02 3.9h-.35c.02.66.04-4.27.04-4.27h10.42l.01.4zm-3.48-2.2c-1.4.11-4.5.19-4.82-.07 1.6-.12 3.22-.14 4.82.07z"/>
    <path fill="#000" stroke="none" d="M113.54 131.97c-.24-.42-.68-.85-.56-1.26.22.03.53.44.9 1.07zm9.02-8.21c5.22-9.6 9.23-20.4 8.7-31.47-.97-10.31-7.66-20.22-17.3-24.3-3.23-1.21-7.03-1.85-10.18-.07-3.1 1.22-6.59.62-9.5-.84-4.83-.98-9.76 1.2-13.55 4.09-8.48 6.43-13.35 17.54-11.6 28.14 1.09 8.63 4.41 16.96 8.43 24.5-5.28-9.57-9.38-20.37-8.9-31.46.92-10.5 7.72-20.57 17.54-24.66 3.27-1.24 7.16-1.92 10.37-.09 3.05 1.24 6.44.53 9.31-.85 6.05-1.18 11.96 2.17 16.26 6.18 7.02 6.68 10.83 16.76 9.19 26.4a65.3 65.3 0 01-8.77 24.43zm-46.27 7.92c3.44 0 6.88-.02 10.32.05l-.01 4.06h-.32l-.02-3.73h-9.94zm3.48-1.82c1.7-.15 3.53-.22 5.14.02-1.7.14-3.46.16-5.14-.02z"/>
    <path fill="#000" stroke="none" d="M86.3 131.78c.24-.48.5-.84.94-1.11.06.46-.39.94-.61 1.3-.13-.03-.22-.13-.33-.19z"/>
  </g>
</svg>
