<svg xmlns="http://www.w3.org/2000/svg" fill="#d7374a" stroke="#000" viewBox="50 50 200 200">
<metadata source="https://commons.wikimedia.org/wiki/File:Greek_Roman_Laurel_wreath_with_branches_vector.svg" author="Фёдор Таран" license="https://creativecommons.org/publicdomain/zero/1.0"/>
  <g id="laurelWreath2" stroke-width=".1">
    <path d="m 83,74 c -4.6,2 -10.4,7.8 -13,13 -4.4,12.2 1.1,26 8.8,34 5,4 11.4,7 21.2,7 16,-1 26,-11 30,-22 4,-11.9 0,-26 -14,-32 v 1 c 13,6 16,19 13,30 -6,19 -29.1,29 -48.2,16 C 72,112 66.5,101 71,87 74,82.2 78.7,76.8 83,75 Z"/>
    <path d="m102 127s0-7 4-10c0 0 5 5-4 10z"/>
    <path d="m102 127s0 9 9 7c0 0 1-4-9-7z"/>
    <path d="m110 126s-2-7 1-11c0 0 6 5-1 11z"/>
    <path d="m110 126s1 7 11 4c0 0 2-5-11-4z"/>
    <path d="m117 122s5 7 12 1c0 0-3-4-12-1z"/>
    <path d="m117 122s-4-2-1-11c0 0 6 4 1 11z"/>
    <path d="m123 116c-3-2-4-5-4-9 5 2 6 5 4 9z"/>
    <path d="m123 116c3 4 11 4 12-2-4-1-8 0-12 2z"/>
    <path d="m128 109s7-7 11-5c0 0-2 9-11 5z"/>
    <path d="m128 109s-5-1-6-7c0 0 7 0 6 7z"/>
    <path d="m130 102s2-7.9 8-8.8c0 0 2 8.8-8 8.8z"/>
    <path d="m130 102s-7-1-9-6.1c0 0 7-1.5 9 6.1z"/>
    <path d="m131 93.7s-3-6.3 5-10.2c0-.2 2 7.8-5 10.2z"/>
    <path d="m131 93.7s-10 2.2-12-3.7c0 0 6-3.5 12 3.7z"/>
    <path d="m128 86.2s-3-7.5 2-12.2c0 0 5 8.2-2 12.2z"/>
    <path d="m128 86.2s-6-5.9-12-.5c0 0 6 3.5 12 .5z"/>
    <path d="m123 79.4s-5-5.6-1-13c0 0 7 9 1 13z"/>
    <path d="m117 75.1s1-7.2-9-7.8c0 0-1 7.7 9 7.8z"/>
    <path d="m97.7 127s-.3-7-4.7-10c0 0-4.6 5 4.7 10z"/>
    <path d="m97.7 127s-.6 9-9.8 7c0 0-.4-4 9.8-7z"/>
    <path d="m89.2 126s1.8-7-1.4-11c.1 0-5.1 5 1.4 11z"/>
    <path d="m89.2 126s-1 7-11 4c0 0-1.5-5 11-4z"/>
    <path d="m82.1 122s-4.9 7-11.6 1c0 0 2.6-4 11.6-1z"/>
    <path d="m82.1 122s3.9-2 1.5-11c0 0-6.7 4-1.5 11z"/>
    <path d="m76.3 116c4.2-2 4.2-4 4.2-9-5.6 1-7.4 4-4.2 9z"/>
    <path d="m76.3 116c-3.2 5-8.8 4-12-2 4.5-1 8.1 0 12 2z"/>
    <path d="m71.9 109s-6.7-7-10.9-5c0 0 2 9 10.9 5z"/>
    <path d="m71.9 109s5.1-1 6.4-7c.1 0-7.4 0-6.4 7z"/>
    <path d="m69.5 102s-2.4-7.9-8.2-8.8c0 0-2.2 8.8 8.2 8.8z"/>
    <path d="m69.5 102s7.2-1 8.7-6.1c0 0-6.6-1.5-8.7 6.1z"/>
    <path d="m68.6 93.7s2.6-6.3-4.9-10.2c0-.2-2.8 7.8 4.9 10.2z"/>
    <path d="m68.6 93.7s9.6 2.2 11.4-3.7c0 0-5.5-3.5-11.4 3.7z"/>
    <path d="m70.8 86.2s2.7-7.5-2.3-12.2c0 0-5.7 8.2 2.3 12.2z"/>
    <path d="m70.8 86.2s5.4-5.9 11.3-.5c0 0-5.5 3.5-11.3.5z"/>
    <path d="m76.3 79.4s5.1-5.6.7-13c0 0-7 9-.7 13z"/>
    <path d="m76.3 79.7s4.3-5.1 10.7 1.3c0 0-5.8 3.4-10.7-1.3z"/>
    <path d="m81.9 75.1s-.1-7.2 9.9-7.8c0 0 .1 7.7-9.9 7.8z"/>
    <path d="m123 79.7s-4-5.1-11 1.3c0 0 6 3.4 11-1.3z"/>
  </g>
</svg>
