<svg xmlns="http://www.w3.org/2000/svg" fill="#d7374a" stroke="#000" viewBox="50 50 200 200">
  <metadata author="Tretinville" source="https://commons.wikimedia.org/wiki/File:Blason_ville_fr_Plogoff_%28Finist%C3%A8re%29.svg" license="https://creativecommons.org/licenses/by-sa/3.0"/>
  <g id="lighthouse" stroke-width=".516">
    <path d="M95.275 79.722h9.45l3.663 59.63c-5.525.866-11.122.805-16.776 0z"/>
    <path stroke-linejoin="bevel" d="M105.373 86.815c-3.861.78-6.986.995-10.698.075l.329-3.824-3.489-2.136.006-4.266.769-.002.025 2.824 2.062.01-.024-3.295-.861-.93-.41-1.373 1.533-.046V66.07l-1.073-.048c1.045-1.755 2.863-2.902 5.656-3.544l.025-.299c-.696-.213-.782-.983-.404-1.356.694-.893 1.438-1.145 2.293.055.292.418.223 1.106-.5 1.342l-.014.263c2.71.713 4.561 1.795 5.523 3.62l-.895.008.002 7.808 1.522.011-.436 1.355-.848.96v3.298l2.146.01v-2.928l.835-.001-.066 4.227-3.35 2.25.342 3.714z"/>
    <path class="tertiary" d="M95.415 66.227h4.204v2.572h-4.204zm0 3.37h4.204v4.148h-4.204zm4.956-3.37h3.915v2.572h-3.915zm0 3.37h3.915v4.148h-3.915z"/>
    <line x1="94.377" y1="79.495" x2="105.466" y2="79.543"/>
    <path d="M91.21 74.75h17.58c.095 0 .171.16.171.354v.531c0 .487-.191.885-.426.885h-17.07c-.234 0-.426-.398-.426-.885v-.53c0-.196.076-.355.17-.355z"/>
    <path fill="none" d="M91.825 137h16.333m-16.133-3h15.883m-9.907 3v-3m-4 3v-3m8 3v-3m4 3v-3m-13.776-3h15.533m-15.433-3h15.283m-9.607 3v-3m-4 3v-3m8 3v-3m4 3v-3m-13.442-3h14.833m-14.633-3h14.483M98 125v-3m-4 3v-3m8 3v-3m4 3v-3m-13.116-3h14.133m-13.933-3h13.783M98 119v-3m-4 3v-3m8 3v-3m4 3v-3m-10 18v-3m4 3v-3m4 3v-3m-8-3v-3m4 3v-3m4 3v-3m-8-3v-3m4 3v-3m4 3v-3M93.3 113h13.383m-6.681 3v-3m-4 3v-3m8 3v-3m-10.471-3h12.983m-8.512 3v-3m-4 3v-3m8 3v-3m-8.38-2.996 12.683-.004m-6.303 3v-3m-4 3v-3m8 3v-3m-10.162-3h12.283m-8.121 3v-3m4 3v-3m4 9v-3m-6-6v-3m-4 3v-3m8 3v-3m-9.944 0h11.884m-7.94 0v-3m4 3v-3m-2 0v-3m-4 3v-3m8 3v-3m-9.83 3h11.582M94.38 95h11.283m-7.661 0v-3m4 3v-3m-7.442 0h10.883M100 92v-3m-4 3v-3m8 3v-3m-9.303 0h10.583M98 89v-1.5m4 1.5v-1.5m-6 52.3V137m4 3v-3m4 2.8V137"/>
    <g class="secondary">
      <path d="M98.799 114.702c0-.671.503-1.074 1.181-1.074.68 0 1.207.425 1.207 1.186V119h-2.388z"/>
      <path d="M98.799 96.702c0-.671.503-1.074 1.181-1.074.68 0 1.207.425 1.207 1.186V101h-2.388z"/>
      <path d="M97.564 133.372c0-1.018 1.019-1.63 2.394-1.63 1.374 0 2.443.646 2.443 1.8v6.345h-4.836z"/>
    </g>
  </g>
</svg>
