<svg xmlns="http://www.w3.org/2000/svg" fill="#d7374a" stroke="#000" viewBox="50 50 200 200">
  <metadata source="http://wappenwiki.org/images/5/58/Slavonia.svg" license="https://creativecommons.org/licenses/by-nc-sa/3.0"/>
  <g id="martenCourant" stroke-width=".3">
    <g stroke-linejoin="round">
      <path class="secondary" d="M72.18 110.57s-.73 1.18-.12 1.96c.1-1.03.94-1.42.94-1.42s-.06-.4-.28-.5c-.3-.2-.55-.04-.55-.04zm-.1-.07s-1.53.35-1.39 1.43c-.29-.24-.33-.58-.24-1.08.12-.71.88-1.14.88-1.14s.33-.01.56.2c.12.12.18.6.18.6zm-1.32-1.82s-1.17.24-1.32.98c-.1.59.27 1.27.33 1.22.07-.06-.06-.54.2-.96.33-.48 1.07-.27 1.07-.27m-.17-2.17s-1.2-.2-1.58.45c-.3.5-.22 1.29-.12 1.25.07-.02.12-.52.5-.8.48-.35 1.1.1 1.1.1m-4.5-4.02s-1.15.77-.92 1.73c.53-.89 1.44-.89 1.44-.89s.12-.4-.03-.57c-.2-.3-.48-.27-.48-.27zm-.07-.1s-1.52-.33-1.83.72c-.17-.33-.07-.66.21-1.08.41-.6 1.28-.66 1.28-.66s.32.12.43.42c.06.15-.09.6-.09.6zm-.42-2.2s-1.17-.28-1.6.35c-.34.48-.3 1.26-.22 1.23.08-.02.17-.5.58-.78.5-.3 1.08.2 1.08.2m.75-2.04s-1-.69-1.63-.24c-.48.32-.72 1.06-.64 1.08.09 0 .34-.42.82-.53.58-.12.95.55.95.55m67.56 6.2s1.37-.24 1.56-1.2c-.85.6-1.68.2-1.68.2s-.28.32-.2.55c.04.36.33.44.33.44zm.02.11s1.25.93 1.97.11c.01.36-.2.64-.65.89-.6.36-1.44.08-1.44.08s-.24-.24-.2-.56c0-.17.32-.52.32-.52zm-.53 2.19s.96.73 1.61.34c.5-.3.8-1.03.71-1.04-.08-.01-.36.4-.84.48-.59.06-.91-.62-.91-.62m-1.55 1.54s.64 1.02 1.38.9c.59-.1 1.1-.68 1.03-.73-.07-.03-.48.24-.96.15-.56-.15-.62-.9-.62-.9"/>
    </g>
    <path fill="#F6F6F6" stroke-width=".24" stroke-linejoin="round" d="M61.68 96.86c.14.45.74 1.11 1.3 1.1.26 0-.42-.53-.2-1.26m1.01 3.18c-.21-.2-.4-.7-.21-.98.08-.14.4.48.9.57"/>
    <path d="M66.7 100.96c-.17-.58-.93-.53-1.05-.26-.01.06.18.19.11.62-.01.1-.16.4-.16.4s-.43.02-.57.3c0 .12.21.22.31.38s.08.42.05.54c-.28.1-.27.17-.34.28-.08.1-.08.3-.02.33.19-.08.43.01.59.24.24.39-.15.46.34.85.3-.2.86.04.64.66.12.28.42.39.74.41.22.04.48-.14.78-.18.3-.05.6.07.69.09.73.1 1.51.5 2.43.38a2.52 2.52 0 0 1 1.32.14c.44.12.82.39 1.08.47.66.18.83 0 .96-.06.48-.24 3.94-.87 4.37-.7.45.2.8-2.37.8-2.37l-.67-3.47c-.24.17-2.14 1.47-2.36 1.67a5.63 5.63 0 0 1-3.12 1.37c-.58.06-.7.27-1.58.24-.9-.03-1.9-.34-2.46-.5-.57-.16-1.5-.41-1.8-.8-.12-.14-.77-.5-1.08-1.03"/>
    <g>
      <path class="secondary" d="M128.28 108.04s1.36-.22 1.56-1.19c-.86.6-1.7.22-1.7.22s-.27.31-.2.54c.05.36.34.44.34.44zm0 .12s1.26.94 1.98.12c.01.36-.2.64-.65.89-.6.36-1.44.08-1.44.08s-.24-.24-.2-.56c0-.17.32-.52.32-.52zm-.52 2.2s.96.73 1.61.34c.5-.3.8-1.03.71-1.04-.08-.01-.36.4-.84.48-.59.06-.91-.62-.91-.62m-1.55 1.54s.64 1.02 1.38.9c.59-.1 1.1-.68 1.03-.73-.07-.03-.48.24-.96.15-.56-.15-.62-.9-.62-.9"/>
      <path d="M115.98 97.8c.48 1.13 1.56 3.53 1.98 3.72 1.82.83 2.7-.34 3.3-.33.64.02 1.18.24 1.62.65.72.66.83 1.44 1.4 2.25.35.52.72.82 1.2 1.25.38.38.34.22.95.61.07.04.31.28.6.36.29.09.6.04.78.16.29.15.52.38.52.68-.46.48-.05.93.3.85.27.58-.1.48-.04.93.05.27.23.45.43.47.05.06-.04.24-.15.3-.12.06-.12.12-.42.12a.72.72 0 0 0-.2.5c.03.18.2.36.15.48-.24.2-.65.02-.65.02s-.26.22-.31.3c-.24.36-.12.57-.17.6-.21.2-.92-.07-.84-.66-.06-.6-.5-1.2-.55-1.39-.12-.48-.65-.98-1.08-1.37-.46-.38-.59-.36-1.12-.7-.14-.08-.56-.54-.84-.76-.72-.58-1.8-1.56-1.8-1.56-.79-.3-1.56.44-2.6.78-1.06.35-2.94.6-4.08.6-.76.12-1.12-.12-1.85-.4-.61-.22-1.45-.86-2.23-1.46-1.3-1.27-1.9-3.98-4.04-5.42"/>
      <g stroke="none" fill="#000">
        <path d="M120.95 102.45a1.32 1.32 0 0 0 .12.12l.07.08.2.18.12.09.12.07a2.84 2.84 0 0 0 .72.24c.05 0 .09.02.09.02v.04l-.09.01-.2.04c-.08 0-.2 0-.3-.03l-.16-.05a.42.42 0 0 1-.16-.07l-.16-.1-.12-.11a.98.98 0 0 1-.17-.24l-.05-.12-.02-.09-.01-.07zm4.22 5.43c0-.02 0-.03-.02-.04 0-.03-.03-.04-.04-.05l-.07-.09-.18-.15-.34-.3a.08.08 0 0 1 .1-.16 2.09 2.09 0 0 1 .55.37l.07.1.03.06v.06h-.03l-.02-.04-.04-.03-.08-.06c-.05-.05-.12-.07-.18-.11l-.18-.1-.2-.08.1-.16a3 3 0 0 1 .47.56l.05.1.02.06v.06z"/>
      </g>
      <path fill="none" d="M128.7 108.2a.83.83 0 0 1-.52.34c-.24.03-.4.02-.67-.27m1.08 1.53c-.24 0-.57-.03-.68-.28m-.16 1.32c-.23-.08-.36-.26-.36-.56"/>
      <g stroke="none" fill="#000">
        <path d="m127.56 109.8-.04.09v.17l.02.24-.3-.02s.04-.14.12-.27a.54.54 0 0 1 .12-.17l.06-.05.02.01zm.24-.93a5.95 5.95 0 0 0 .02.1 1.63 1.63 0 0 0 .22.49l-.28.12v-.12a2.04 2.04 0 0 1 0-.57l.02-.02h.03zm-1.5 2.17V111l.05-.08a1.08 1.08 0 0 1 .14-.23.86.86 0 0 1 .27-.2l.02-.01.02.02-.02.02-.05.06-.1.2a.86.86 0 0 0-.04.28v.02l-.29-.04zm1.1-2.69-.02-.03-.02-.05-.03-.06a1.07 1.07 0 0 1-.08-.36c0-.12.02-.25.06-.35l.07-.13h.02s-.02.07-.02.15a.77.77 0 0 0 .17.56l.03.03a12.88 12.88 0 0 1 .06.07l-.24.17z"/>
        <path d="m127.46 108.4-.04-.01-.06-.05c-.03 0-.05-.02-.08-.05-.1-.07-.19-.18-.28-.27-.1-.1-.2-.2-.3-.24l-.05-.03-.05-.02h-.05v-.04h.11l.08.03c.11.02.24.1.36.16l.33.2.05.02.03.01h.05l-.1.3zm.42 1.26-.07-.01-.1-.04-.11-.06-.12-.08-.11-.12-.2-.24c-.11-.18-.22-.36-.32-.48l-.08-.06-.06-.05-.06-.04.01-.03.07.03.07.04.1.07c.12.1.26.25.4.41l.22.2.1.08.1.04.08.03.05.01h.07l-.04.3zm-.55.77-.06-.04-.08-.06-.09-.08c-.04-.06-.1-.13-.14-.22l-.12-.26-.2-.48a1.2 1.2 0 0 0-.12-.2l.02-.02.05.05.12.13.27.45c.05.07.1.15.16.21l.14.16.06.03.03.02a1.1 1.1 0 0 1 .08.03l-.12.28z"/>
      </g>
    </g>
    <g>
      <path stroke="none" fill="#000" d="M75.94 104.6a310.32 310.32 0 0 0 .48.04h.51c.2 0 .39-.02.58-.06l.29-.06.27-.06.24-.1a3.13 3.13 0 0 0 .54-.23l.12-.06.13.26-.12.06a4.04 4.04 0 0 1-.6.2l-.26.08-.29.05-.3.03h-.87a4.49 4.49 0 0 1-.72-.12v-.03z"/>
    </g>
    <path d="M69.82 89.8s-.53-.44-.82-.9c-.17-.29-.28-.62-.44-.62-.48 0-.75.8-1.24 1.46-.36.48-.76.84-.76 1.02"/>
    <g>
      <path stroke="none" fill="#000" d="m68.5 88.94-.04.06-.12.15c-.1.15-.22.35-.31.55l-.25.58-.15.26-.2-.13.17-.24.32-.53a3.35 3.35 0 0 1 .52-.67l.06-.05v.02z"/>
    </g>
    <path d="M131.6 106.07c.06.04.3.28.6.36.28.09.6.04.77.16.29.15.52.38.52.68-.46.48-.05.93.3.85.27.58-.1.48-.04.93.05.27.23.45.43.47.05.06-.04.24-.15.3-.12.06-.12.12-.42.12a.72.72 0 0 0-.2.5c.03.18.2.36.15.48-.24.2-.65.02-.65.02s-.26.22-.31.3c-.24.36-.12.57-.17.6-.21.2-.92-.07-.84-.66-.06-.6-.5-1.2-.55-1.39-.12-.48-.65-.98-1.08-1.37-.46-.38-.59-.36-1.12-.7-.14-.08-.56-.54-.84-.76-.72-.58-1.8-1.56-1.8-1.56-.79-.3-3.48.44-4.52.78-1.06.35-2.16.72-4.44.6-.76.12-1.24-.12-1.97-.4-.61-.22-1.09-.86-1.87-1.46-1.3-1.27-1.28-1.27-2.6-3.47 0 0-1.4-2.05-5.7-1.99-3.58.24-7.66 4.14-14.28 4.88-3.82.5-5.94-.21-5.94-.21l-.46.55c-.53.76-1.14 2.08-1.56 2.87-.24.91-1.54.91-2.17 1.17-.7.28-1.44.44-2.11.75-1.48.66-1.14.5-1.56.78-.8.48-1.35.12-2.06.32-.07.03-.42.05-.67.2-.24.17-.4.45-.61.5-.32.12-.64.14-.86-.06-.06-.65-.68-.64-.84-.33-.63-.16-.32-.4-.69-.63-.24-.15-.48-.12-.62.02-.07 0-.16-.2-.12-.32.02-.12-.03-.18.18-.39a.72.72 0 0 0-.25-.48c-.16-.1-.41-.1-.46-.2.01-.31.4-.52.4-.52s0-.33-.03-.43c-.1-.42-.33-.45-.35-.51 0-.3.68-.65 1.06-.2.5.35 1.24.4 1.42.48.43.24 1.16.17 1.75.09.57-.09.87-.15 1.68-.48.83-.35 2.31-.93 2.3-1.13 0-.2.05-.47.3-1.7.24-1.23.16-1.12.39-2.07 0 0-1.12-.95-1.8-2.2-.58-1.07-2.3-1.65-3.54-1.99a11.04 11.04 0 0 0-1.54-.24 4.6 4.6 0 0 0-1.96.36c-.85.28-1.38.69-2.26.86-.38.07-1.38.12-1.76.22-.44.12-.7.3-1.14.48-.9.33-1.63.09-1.5-.12.12-.22.46 0 1.13-.34.67-.33 1.2-.75 1.83-1.06.62-.31 2.2-.43 2.1-.67-.56-1.23-2.63-1.13-3.5-.89a4.92 4.92 0 0 1-1.36.12c-.36 0-.75-.1-1.12-.17-.37-.06-.82.24-1.1.11-.16-.08-.22-.16-.48-.5a1.92 1.92 0 0 1-.57-.52c-.38-.48-.08-1.03.46-1.44.21-.17.44-.2.68-.4.33-.27.65-.36.96-.57.55-.37.48-.43 1-.84.24-.22.79-.96 1.26-1.35.4-.32.3-.33.8-.6.35-.16.7-.37 1.02-.5.82-.26 1.87-.44 1.87-.44s.35-.17.68-.41c.37-.29.81-.41 1.03-.57.43-.27.86-.33 1.09-.27.7.17.82 1.34.82 1.34s.3-.01.48.01c2.12.1 6.08 1.3 7.66 2.04 1.98.93 4.3.22 4.97.2.96 0 2.9.46 4.02.49 1.12 0 5.35-.55 7.45-.96 1.06-.18 6.5-1.79 9.9-1.79 5.4 0 9.46 2.54 11.49 3.26 4.49 1.32 5.53 1.05 10.23 1.78 4.68.72 9.94.2 11.46 1.49-1.9 1.34-4.38 3.7-10.68 2.7-6.32-.99-7.7-2.74-10.74-3.33 0 0 .94 1.18 1.9 3.2.68 1.17.96 2.56 1.38 2.76 1.82.82 4.26-.35 4.86-.34.64.02 1.18.24 1.62.65.72.66.83 1.44 1.4 2.25.35.52.72.82 1.2 1.25.38.39.34.22.95.61z"/>
    <path class="tertiary" d="M78.74 98.56v-.26c-.4-.36-.68-.3-1.03-.72-.7-.84-2.34 0-3.36-.41-.36-.15-.33-.28-.67-.35-.31-.06-.73-.06-1.02-.1-.52-.08-1.2-.25-1.79 0-.35.14-.6.45-.98.47-.8 0-.99.24-1.38.5.08.25-1.49.37-2.11.68-.63.31-1.16.72-1.83 1.05-.67.34-1 .12-1.13.34-.12.22.6.46 1.5.12.44-.18.7-.36 1.14-.48.38-.1 1.38-.14 1.76-.22.88-.16 1.41-.58 2.28-.85a4.51 4.51 0 0 1 1.94-.36 11.04 11.04 0 0 1 1.54.24c1.24.34 2.96.93 3.52 2a9 9 0 0 0 1.82 2.19c.19-1.25-.24-2.57-.2-3.84z"/>
    <g stroke="none" fill="#000">
      <path d="M86.17 100.13s.04.09.06.23a4.97 4.97 0 0 1 .01 1.25l-.28-.06.06-.22a4.76 4.76 0 0 0 .14-.96l-.01-.24h.02zm-1.92-4.02-.03.01-.09.05a.45.45 0 0 1-.25 0 .6.6 0 0 1-.22-.08c-.06-.04-.1-.09-.1-.09v-.03l.13-.04c.07-.02.17 0 .24 0l.21.1.08.05.02.02zm1.84 1.72-.07-.05-.2-.07a.44.44 0 0 1-.19-.11h-.01v-.01l-.02-.03-.05-.1c-.05-.11-.06-.22-.12-.3v-.02l-.04-.02-.03-.02c-.03-.03-.08-.03-.15-.06a.27.27 0 0 1-.17-.16l-.03-.17v-.31l.03-.01.05.07.07.2.05.12.07.04c.03.01.1.01.18.05l.1.07.04.05c.02.01.02.02.03.05a.4.4 0 0 1 .09.19l.02.17.01.04.01.03.03.02.1.09c.05.04.13.1.16.15l.04.05v.02zm-14.52-7.74a3.52 3.52 0 0 0 .17.84V91.24c0 .12 0 .24-.03.35l-.1.32-.03.16v.15a13.72 13.72 0 0 1-.1.65.7.7 0 0 1-.14.27c-.05.07-.12.12-.16.16l-.12.12-.08.14h-.04l.02-.05.03-.12.1-.16.12-.19a.6.6 0 0 0 .1-.22l.02-.28v-.34a2.6 2.6 0 0 1 .06-.36l.1-.32a2.22 2.22 0 0 0 .07-.45v-1zm1.15 1.17.08.05c.06.03.15.07.24.15a.52.52 0 0 1 .15.27v.12c0 .09-.03.16-.04.22a.54.54 0 0 0-.03.19v.4l-.04.21a.42.42 0 0 1-.08.18l-.18.2-.09.07-.02-.03.03-.08.12-.24.03-.12v-.18l-.01-.2v-.23c0-.09.02-.17.04-.24.03-.06.06-.12.06-.17v-.04l.02-.01v-.02l-.02-.08-.06-.13-.14-.2-.06-.07v-.02zm9.22 15.45-.1.01-.1.02-.14.02-.16.03-.16.05-.17.07-.17.09-.16.1-.14.12-.12.12-.12.12-.08.1-.06.08-.06.08-.04-.02.02-.1.04-.1.06-.13.08-.16.12-.14c.05-.06.1-.12.16-.16l.18-.12a.8.8 0 0 1 .2-.1l.1-.02.1-.02.2-.03h.17l.14.03.12.02.09.03zm44.17-4.14a1.32 1.32 0 0 0 .12.12l.07.08.2.18.12.09.12.07a2.84 2.84 0 0 0 .72.24c.05 0 .09.02.09.02v.04l-.09.01-.2.04c-.08 0-.2 0-.3-.03l-.16-.05a.42.42 0 0 1-.16-.07l-.16-.1-.12-.11a.98.98 0 0 1-.17-.24l-.05-.12-.02-.09-.01-.07zM70.43 90.3a25.48 25.48 0 0 0 .05.06l.07.17c.03.15.05.35.03.53a3.72 3.72 0 0 1-.04.52l-.03.16v.05l-.03.03h-.02l-.03-.06c-.03-.04-.04-.11-.05-.18-.04-.15-.04-.34-.04-.53l.06-.5.03-.17v-.06zm-7.91 4.01-.02.05c0 .01 0 .04-.03.05 0 .02-.02.05-.05.06l-.13.12-.19.08-.18.05-.14.04-.1.02-.02.02h-.04v-.06l.02-.06.05-.07c.09-.08.22-.12.34-.17l.32-.08.12-.04h.05zm7.16-2.77h.08c.04.04.07.08.08.13 0 .05 0 .1-.04.13 0 .04-.04.05-.04.05h-.03l-.03-.06a.24.24 0 0 1-.04-.1v-.09c.01 0 .02-.02.01-.04v-.02zm-.63-.59.05.05a.28.28 0 0 1 .06.08c0 .04.02.08 0 .12v.06l-.03.02-.06-.03c-.02 0-.03-.02-.05-.03l-.03-.06V91l.03-.05h.03zm1.53-1.73-.08.06-.1.06-.12.1-.26.24-.16.14a130.46 130.46 0 0 1-.33.3l-.17.11-.32.2-.34.17-.02-.03s.1-.12.26-.27l.29-.24.15-.13.17-.14c.11-.1.22-.2.34-.27a1.97 1.97 0 0 1 .48-.26l.12-.02.1-.02z"/>
      <polygon points="67.78 90.45 68.31 89.61 68.54 89.8 67.8 90.47"/>
      <path d="m60.78 95.79-.05-.03a.28.28 0 0 1-.1-.08c-.02-.01-.03-.04-.04-.07-.01-.04-.03-.09 0-.15s.07-.1.12-.12h.12l.03.02.03.02.03.04.05.08.03.05.03.03.04.04.08.05.05.01v.05l-.05.02-.05.01h-.07a.2.2 0 0 1-.19-.06l-.07-.08-.05-.07.02.01h.05-.01.01-.01l-.02.01v.16l.02.05zm3.38-1h.09l.12-.02.12.03.07.05v.04s0 .03-.05.07a.23.23 0 0 1-.21.04l-.05-.03a.2.2 0 0 1-.1-.12v-.05h.01zm.46.28h.04l.02-.03c.02-.02.05-.04.1-.04.03 0 .07 0 .12.02l.06.05v.03s0 .05-.04.08a.2.2 0 0 1-.13.06.2.2 0 0 1-.16-.06l-.02-.04V95.08zm.37.3h.04l.01-.03h.01a.2.2 0 0 1 .11-.07l.12.01.08.05v.04s0 .03-.03.07a.16.16 0 0 1-.13.07.24.24 0 0 1-.09 0l-.08-.05-.04-.03-.01-.04v-.02h.01zm.54.24-.05-.07a.1.1 0 0 1 0-.12c.03-.05.08-.09.12-.09.04 0 .05 0 .08.03v.18l-.08.04-.07.02zm1.25-.33v-.14c.01-.02.04-.04.07-.05h.11l.04.07c0 .04 0 .09-.02.12a.25.25 0 0 1-.12.05l-.06-.02-.02-.01zm.24-.6v-.08c0-.05.02-.08.06-.12h.13l.06.06v.04s0 .03-.02.06c0 .03-.03.06-.05.07h-.1l-.07-.03zm.18-.5-.01-.02c0-.02-.03-.04-.01-.06 0-.06 0-.12.07-.17.06-.04.12-.05.18-.04a.2.2 0 0 1 .08.05v.04l-.05.07-.07.07c-.02.01-.06.04-.1.04l-.05.02h-.04zm.04-1.63.04-.05c.03-.02.04-.04.06-.04s.05.02.06.04l.04.06v.04s0 .03-.04.06c0 .03-.04.04-.07.04a.12.12 0 0 1-.08-.07l-.01-.05v-.02zm-.36.85v-.1l-.09-.18c-.08-.12-.2-.22-.19-.21l.18-.17.05.1.08.22c.03.09.03.18.03.24s-.03.1-.03.1h-.02zm.15-1.12h.03v-.06c.02-.02.02-.04.04-.04 0 0 .04 0 .06.02l.04.05.01.03v.08l-.07.04c-.02 0-.07 0-.1-.04v-.03s-.02-.02 0-.02v-.03zm.05-.36-.06.06-.07.04c-.03 0-.05 0-.06-.04l-.06-.03-.03-.04.03-.07c.02-.04.08-.06.12-.06.05 0 .08.04.1.07.03.03.03.07.03.07zm-.36-.27s0-.05.02-.09a.2.2 0 0 1 .12-.1.2.2 0 0 1 .22.12v.03l-.07.05c-.03.02-.06.05-.1.05a.24.24 0 0 1-.12-.03l-.07-.02v-.01zm-.76.1-.02.04a.84.84 0 0 1-.08.12l-.24.3a.44.44 0 0 0-.09.17l-.01.07v.06l.01.05.01.04.03.03-.35.12v-.07l-.01-.08v-.1l.03-.12c0-.04.03-.07.05-.12l.09-.1.08-.08.34-.24.1-.07.03-.05.03.02zm-.34-.25-.12.15-.2.3-.07.07-.05.08-.03.09-.05.07c0 .02-.02.05-.04.06l-.02.06-.02.04h-.04l-.01-.05a.27.27 0 0 1-.01-.15v-.1l.02-.1.05-.1.06-.12a.82.82 0 0 1 .33-.26c.12-.05.2-.05.2-.05zm-1.04 2.12.02-.04.02-.04.02-.04a.74.74 0 0 1 .22-.22l.24-.18.04-.02.02-.03-.01.03.21.08v.02l-.03.03-.03.02-.04.03-.05.02-.28.12a.96.96 0 0 0-.24.13l-.03.04-.03.03-.02.03h-.03zm6.4-2.62h.04v-.01l.07-.03c.02 0 .05 0 .07.03l.05.02v.04l-.03.05a.13.13 0 0 1-.16.02.12.12 0 0 1-.06-.07V91zm.24.5h-.06a.36.36 0 0 1-.13-.04l-.04-.03-.03-.01h-.02l-.02-.04s0-.03.05-.06a.14.14 0 0 1 .17 0 .2.2 0 0 1 .1.11v.07zm-.46.28V91.84l.03.02.02.03.07.07a.67.67 0 0 1 .11.17l.01.07v.04h-.04l-.06-.04-.16-.12-.06-.1a.23.23 0 0 1-.01-.13l.02-.06.04-.02h.02z"/>
    </g>
    <path fill="#F6F6F6" stroke-width=".24" d="M66.68 92.84s-.46.76-.88.8c-.42.04-.54-.53-.54-.53s0-.61.58-.66c.57-.03.84.39.84.39z"/>
    <path fill="#1D1D1B" d="M65.75 92.86c.08.24.21.48.05.53-.17.06-.36-.12-.41-.29-.05-.17-.06-.25.01-.4.07-.14.29-.21.29-.21s-.04.14.06.37z"/>
    <g stroke="none" fill="#000">
      <path d="m68.9 103.36.05.02.05.03.12.02.22.05.45.1a.08.08 0 0 1 0 .18 2.1 2.1 0 0 1-.67-.05l-.12-.05-.04-.04c-.02 0-.03-.02-.04-.04l.02-.02.05.03h.05l.1.02h.2l.21-.01.22-.02v.18l-.24-.06-.24-.08a1.66 1.66 0 0 1-.31-.16l-.05-.05-.03-.05zm5.43 4.98c.02 0 .03.02.06.01h.17l.22-.02.46-.06a.08.08 0 0 1 .05.17 2.09 2.09 0 0 1-.64.18l-.12-.02-.06-.02-.05-.02v-.03h.11l.1-.02.2-.06.2-.09.19-.08.04.17-.24.01h-.24a1.64 1.64 0 0 1-.36-.05l-.04-.02c-.03 0-.04-.03-.05-.04zm56-.34c0-.02 0-.03-.02-.04 0-.03-.03-.04-.04-.05l-.07-.09-.18-.15-.34-.3a.08.08 0 0 1 .1-.16 2.09 2.09 0 0 1 .55.37l.07.1.03.06v.06h-.03l-.02-.04-.04-.03-.08-.06c-.05-.05-.12-.07-.18-.11l-.18-.1-.2-.08.1-.16a3 3 0 0 1 .47.56l.05.1.02.06v.06zm-42.98-7.36-.06-.12a.85.85 0 0 1-.03-.48c0-.08.04-.12.04-.12s.05.02.1.1c.04.05.08.15.08.23 0 .11-.01.2-.05.28a.33.33 0 0 1-.08.1zm.49-.72-.05-.08-.03-.13c0-.05.02-.08.04-.12l.06-.07.09.06a.2.2 0 0 1-.03.29.2.2 0 0 1-.08.05zm28.92 5.68h.07l.17-.02.5-.04.5-.03a4.57 4.57 0 0 1 .25 0s-.06.06-.2.12c-.07.05-.15.07-.25.1a1.56 1.56 0 0 1-.56.04 1.22 1.22 0 0 1-.42-.12l-.06-.05zm1.51-1 .01-.03.03-.1a4.12 4.12 0 0 0 .1-.47v-.16l.04.02.09.08.06.14a.5.5 0 0 1-.06.36.38.38 0 0 1-.22.16h-.05zm-37.05-5.97v.06l-.03.12a5.26 5.26 0 0 0-.05.72v.18l-.04-.03a.62.62 0 0 1-.17-.3c-.01-.08-.03-.15-.01-.23 0-.07.02-.16.04-.22a.62.62 0 0 1 .2-.27l.06-.03zm-.56 1.27s.05.04.09.11a.84.84 0 0 1 .1.6s-.05-.02-.11-.08a.5.5 0 0 1-.12-.24.5.5 0 0 1 0-.27c0-.07.04-.12.04-.12zm32.46-5.76.04-.02a.22.22 0 0 1 .12-.06c.05-.02.1-.04.17-.04a.72.72 0 0 1 .2.02.72.72 0 0 1 .2.08.56.56 0 0 1 .2.23l.02.05-.05-.02-.12-.03-.3-.07-.32-.09-.12-.02-.04-.03zm0-.63h-.08l-.2.02a6.82 6.82 0 0 1-1.32-.06h-.08s.1-.06.26-.1a2.04 2.04 0 0 1 1.42.14zm.56 1.47h.12a.65.65 0 0 1 .48.24s-.05.04-.12.05a.58.58 0 0 1-.24-.02.58.58 0 0 1-.2-.15l-.04-.12zm-6.24 1.88.1.04.12.08.16.1.18.12.2.16.39.37a9.29 9.29 0 0 1 .91 1.14l-.24.17-.24-.38a9.1 9.1 0 0 0-.9-1.2l-.18-.18-.16-.15-.14-.1-.12-.09-.1-.06.02-.02zm-28.5.64s-.06.27-.06.53c-.02.28 0 .53 0 .53h-.3s.04-.29.13-.55l.12-.36.08-.16.03.01zm36.32-3.86.14.05.18.05.22.1c.08.02.17.06.26.11l.28.12.3.17.29.18a9.08 9.08 0 0 1 1.34 1.06l.09.08.03.04-.23.19-.02-.03a344.41 344.41 0 0 1-.36-.38 9.73 9.73 0 0 0-.95-.82l-.25-.2-.28-.18-.26-.16-.24-.12-.22-.12a170.75 170.75 0 0 1-.3-.12v-.02zm-43.03-.68-.06-.12-.04-.17-.03-.2c-.04-.3-.05-.7-.05-1.09v-.3a9.12 9.12 0 0 0-.07-.78l-.08-.34v-.1l-.02-.04.29-.06v.04l.02.1a5.8 5.8 0 0 1 .04 1.18l-.03.3a10.44 10.44 0 0 0-.02 1.29l.04.14c0 .09.04.12.03.12l-.02.03z"/>
    </g>
    <path fill="none" d="M71.78 110.8a.84.84 0 0 1 .09-.62c.12-.2.24-.32.65-.33m-1.89-.19a.72.72 0 0 1 .69-.32m-.9-.99c.19-.12.42-.1.64.09"/>
    <g stroke="none" fill="#000">
      <path d="m71.32 108.88-.04-.07-.12-.12a.97.97 0 0 0-.2-.15l.21-.21s.09.12.12.26c.04.07.05.15.05.2v.08h-.02zm.43.78-.03-.01-.04-.04a.64.64 0 0 0-.33-.13h-.06l.04-.3s.02 0 .03.02l.08.04a.8.8 0 0 1 .3.32l.02.06v.03l-.01.01zm-.55-2.52.02.02.04.08.08.24a.84.84 0 0 1-.01.36h-.03v-.1l-.1-.22a.89.89 0 0 0-.17-.21l-.01-.03.18-.15zm1.33 2.57h.03l.05.02.07.01a1.08 1.08 0 0 1 .33.18.89.89 0 0 1 .27.41l-.02.01-.1-.12a.77.77 0 0 0-.52-.21h-.15l.04-.3z"/>
      <path d="m72.43 109.72.05-.01.07-.03.09-.02.4-.02.35-.06.07-.04.05-.02.04-.03.02.03-.03.03-.04.04-.06.05c-.1.06-.24.12-.37.15l-.36.12-.06.03-.03.02-.03.02-.16-.26zm-1.21-.48.06-.05.1-.06.12-.05.14-.02.16-.01c.1 0 .2 0 .3.02.22.03.43.05.57.05h.11l.07-.02.07-.03.02.04-.06.02-.09.04-.12.02c-.14.03-.36.04-.56.04-.11 0-.2.02-.3.03l-.12.03-.11.03-.06.05c-.02 0-.02.01-.05.04l-.05.05-.2-.22zm-.2-.92.06-.03.1-.02h.11c.09 0 .17 0 .27.02.1.01.18.05.27.07l.48.17a1.18 1.18 0 0 0 .24.04v.03h-.25c-.14 0-.32-.04-.52-.07l-.26-.03h-.2l-.08.03h-.02v.01h-.02l-.06.04-.12-.26z"/>
    </g>
    <path fill="none" d="M65.82 104.5a.84.84 0 0 1 .34-.52c.19-.12.36-.19.72-.03"/>
    <g>
      <path stroke="none" fill="#000" d="M66.86 103.8a53.71 53.71 0 0 0 .12 0l.09.03.37.14c.13.05.26.09.36.1h.12l.05-.01.01.02-.05.02-.05.03h-.07c-.12.02-.26.01-.4 0l-.38-.04h-.14l-.03-.29z"/>
    </g>
    <path fill="none" d="M65.24 103c.22-.1.46-.2.76-.02"/>
    <g>
      <path stroke="none" fill="#000" d="m65.95 102.84.07-.02h.24l.15.02.14.06.28.16c.18.1.36.22.49.28l.1.03.08.03h.07v.03h-.17l-.1-.02c-.16-.04-.35-.12-.54-.2l-.28-.1-.12-.03h-.2l-.05.02-.06.02-.1-.28z"/>
    </g>
    <path fill="none" d="M65.6 101.72c.23-.04.41.08.54.34"/>
    <g stroke="none" fill="#000">
      <path d="M66.14 101.92h.08l.1.01.11.05.22.13.21.2.39.35.12.09.06.03v.03l-.07-.01-.16-.09-.43-.27-.24-.15-.2-.07-.07-.01h-.1v-.29z"/>
      <path d="M66.2 102.57v-.09c0-.04-.03-.1-.07-.15a.6.6 0 0 0-.12-.2l.28-.13s.02.16.01.3c0 .08-.02.15-.04.2l-.03.08-.04-.01zm.14.92-.03-.02-.03-.06a.82.82 0 0 0-.3-.28.43.43 0 0 0-.05-.02l.14-.25s.03 0 .04.02l.06.06a.92.92 0 0 1 .18.44v.08l.01.03h-.02zm.5-2.57v.12a1.08 1.08 0 0 1-.04.27.86.86 0 0 1-.14.3l-.02.02-.03-.01v-.02l.03-.08v-.22a.86.86 0 0 0-.08-.28v-.01l.28-.09zm.12 2.9.02.03.04.03.06.04a1.08 1.08 0 0 1 .22.3.89.89 0 0 1 .08.48h-.04l-.02-.13a.77.77 0 0 0-.4-.43l-.04-.02-.04-.03h-.04l.15-.26z"/>
    </g>
    <path fill="none" d="M133.86 108.33a.83.83 0 0 1-.52.33c-.24.03-.4.02-.67-.27m1.08 1.53c-.24 0-.57-.03-.68-.28m-.16 1.32c-.23-.08-.36-.26-.36-.56"/>
    <g stroke="none" fill="#000">
      <path d="m132.72 109.92-.04.09v.17l.02.24-.3-.02s.04-.14.12-.27a.54.54 0 0 1 .12-.17l.06-.05.02.01zm.24-.93a5.95 5.95 0 0 0 .02.1 1.63 1.63 0 0 0 .22.49l-.28.12v-.12a2.04 2.04 0 0 1 0-.57l.02-.02h.03zm-1.5 2.17v-.04l.05-.08a1.08 1.08 0 0 1 .14-.23.86.86 0 0 1 .27-.2l.02-.01.02.02-.02.02-.05.06-.1.2a.86.86 0 0 0-.04.28v.02l-.29-.04zm1.1-2.69-.02-.03-.02-.05-.03-.06a1.07 1.07 0 0 1-.08-.36c0-.12.02-.25.06-.35l.07-.13h.02s-.02.07-.02.15a.77.77 0 0 0 .17.56l.03.03a12.88 12.88 0 0 1 .06.07l-.24.17z"/>
      <path d="m132.62 108.52-.04-.01-.06-.05c-.03 0-.05-.02-.08-.05-.1-.07-.19-.18-.28-.27-.1-.1-.2-.2-.3-.24l-.05-.03-.05-.02h-.05v-.04h.11l.08.03c.11.02.24.1.36.16l.33.2.05.02.03.01h.05l-.1.3zm.42 1.26-.07-.01-.1-.04-.11-.06-.12-.08-.11-.12-.2-.24c-.11-.18-.22-.36-.32-.48l-.08-.06-.06-.05-.06-.04.01-.03.07.03.07.04.1.07c.12.1.26.25.4.41l.22.2.1.08.1.04.08.03.05.01h.07l-.04.3zm-.55.77-.06-.04-.08-.06-.09-.08c-.04-.06-.1-.13-.14-.22l-.12-.26-.2-.48a1.2 1.2 0 0 0-.12-.2l.02-.02.05.05.12.13.27.45c.05.07.1.15.16.21l.14.16.06.03.03.02a1.1 1.1 0 0 1 .08.03l-.12.28z"/>
    </g>
    <path class="tertiary" d="M110.8 101.45c-.4-.75-.78-1.6-1.42-2.5a5.13 5.13 0 0 0-1.8-.88c-.72-.23-1.49.03-2.24-.12-.64-.15-1.13-.46-1.85-.43a4 4 0 0 0-1.68.48c-.24.12-.3.25-.63.33-.3.07-.62.06-.92.12-.59.15-1.1.55-1.64.85-.56.32-1.06.22-1.66.47-.4.17-.42.45-.7.67-.3.24-.64.27-1.02.32-.67.08-1.23.18-1.8.43-.72.32-1.27.24-2.05.27-.7.04-1.41.32-2.11.3-.36 0-.59-.21-.96-.26-.32-.05-.64.06-.95.02-.38-.04-1.08-.3-1.27.05a5.58 5.58 0 0 1-1.25 2.56h.06-.03s2.12.72 5.95.21c6.61-.74 10.69-4.64 14.27-4.88 4.3-.06 5.7 2 5.7 2l-.03-.03.03.02z"/>
    <g stroke="none" fill="#000">
      <path d="M103.84 98.68s-.02.02-.05.04l-.12.06-.33.18-.3.19-.13.07-.03.04v-.06c0-.04.02-.09.04-.14a.54.54 0 0 1 .12-.16c.05-.06.12-.11.18-.15.08-.05.15-.07.22-.1a.68.68 0 0 1 .35.02c.03 0 .05.02.05.02zm-1.89.4s0 .08-.03.18c-.03.1-.09.2-.18.3-.09.1-.2.16-.3.19-.09.03-.16.03-.16.03l.08-.14a1.72 1.72 0 0 1 .45-.47l.14-.08zm-1.49.64s0 .08-.04.16a.96.96 0 0 1-.6.56l.06-.15a1.13 1.13 0 0 1 .43-.48c.08-.06.15-.09.15-.09z"/>
    </g>
  </g>
</svg>
