<svg xmlns="http://www.w3.org/2000/svg" fill="#d7374a" stroke="#000" viewBox="50 50 200 200">
<metadata source="https://commons.wikimedia.org/wiki/File:Palacio_torreado02.svg" author="Xavigivax" license="https://www.gnu.org/licenses/fdl-1.3.html"/>
  <g id="palace" stroke-width="1" transform="matrix(0.238,0,0,0.238,68.5,60.4)">
    <path fill-rule="evenodd" d="M102.2 61.53h59.3V169.2h-59.3zm21 37.02c.1-7.07 4.6-9.94 8.7-9.84 4 .1 9 2.42 9 9.9l-.1 20.69h-17.6z"/>
    <path d="M102.5 71.01l58.8.23"/>
    <path d="M102.5 88.29l58.8.22"/>
    <path d="M102.5 105.4H123"/>
    <path d="M102.5 122.7l58.8.2"/>
    <path d="M102.5 140l58.8.2"/>
    <path d="M102.5 155.2l58.8.3"/>
    <path d="M114.9 122.7v17.1"/>
    <path d="M131.9 122.9v16.9"/>
    <path d="M114.9 88.4v17.2"/>
    <path d="M148.7 88.4v17.5"/>
    <path d="M106.1 70.9v17.05"/>
    <path d="M123.1 70.9v17.05"/>
    <path d="M140 70.9v17.05"/>
    <path d="M157.6 70.9v17.39"/>
    <path d="M106.1 105.7v16.8"/>
    <path d="M123.2 119.5v3.1"/>
    <path d="M140.8 119.4v3.3"/>
    <path d="M157.6 105.7v17.5"/>
    <path d="M106.1 139.7v15.2"/>
    <path d="M122.9 140.6v14.6"/>
    <path d="M139.9 140.6v14.3"/>
    <path d="M157.4 140.6v14.3"/>
    <path d="M131.9 155v16.8"/>
    <path d="M148.7 155.2v16.6"/>
    <rect width="5.345" height="29.42" x="99.68" y="21.49"/>
    <path d="M95.65 23.01L102.1.11l6.6 23.16z"/>
    <rect width="5.345" height="29.42" x="129.3" y="21.49"/>
    <path d="M125.2 23.01l6.5-22.9 6.6 23.16z"/>
    <rect width="5.345" height="29.42" x="159" y="21.49"/>
    <path d="M154.9 23.01l6.5-22.9 6.6 23.16z"/>
    <path d="M95.95 59.3h71.85v5.74c-1.8.47-6.7 2.83-6.5 7.53l-59.5-.37c.4-1.98-1.4-5.84-5.85-6.97z"/>
    <path d="M96.24 65.23l71.46-.19"/>
    <path d="M109.9 36.09H94.96v24.29h73.84V36.09H154v10.03h-14.9V36.09h-14.4v10.03h-14.8z"/>
    <path d="M140.8 105.7h20.5"/>
    <path fill-rule="evenodd" d="M7.2 172h249.4v160.4H7.2zm22.2 60.5s-.3-14.7-.2-21.8c.1-7 4.1-9.2 8.1-9.1 4.1.1 7.8 1.8 8 9.3.2 7.5-.1 21.6-.1 21.6zm47.9 0s-.3-14.7-.2-21.8c.1-7 4-9.2 8.1-9.1 4 .1 7.8 1.8 8 9.3.2 7.5-.1 21.6-.1 21.6zm47.8 0s-.2-14.7-.1-21.8c.1-7 4-9.2 8.1-9.1 4 .1 7.8 1.8 8 9.3.2 7.5-.1 21.6-.1 21.6zm47.9 0s-.2-14.7-.1-21.8c.1-7 4-9.2 8.1-9.1 4 .1 7.8 1.8 8 9.3.2 7.5-.1 21.6-.1 21.6zm47.9 0s-.3-14.7-.2-21.8c.2-7 4.1-9.2 8.2-9.1 4 .1 7.8 1.8 8 9.3.1 7.5-.1 21.6-.1 21.6zm-110 101.2V290c0-19.8 10.3-24.2 21.5-24.3 10.4 0 20.6 4.4 20.5 24.8-.1 19.9 0 43.4 0 43.4z"/>
    <path d="M7.3 243.4h249.1"/>
    <path d="M7.3 314.9h95.9"/>
    <path d="M28.5 315.2V331"/>
    <path d="M51.9 315.3v15.8"/>
    <path d="M75.1 315.4v15.9"/>
    <path d="M97 315v8.3"/>
    <path d="M167.8 315.1V331"/>
    <path d="M191.1 315.3v15.8"/>
    <path d="M214.3 315v16"/>
    <path d="M237.4 315v16"/>
    <path d="M28.8 279.6v17.5"/>
    <path d="M51.9 279.6v17.5"/>
    <path d="M75.1 279.6v17.5"/>
    <path d="M98.3 279.6l-.3 17.5"/>
    <path d="M167.8 279.6l-.3 17.5"/>
    <path d="M191.1 279.6v17.5"/>
    <path d="M214.2 279.6v17.5"/>
    <path d="M237.4 279.6v17.5"/>
    <path d="M28.8 243.9v18.6"/>
    <path d="M51.9 243.7v18.1"/>
    <path d="M75.1 243.4v19.1"/>
    <path d="M98.3 243.7V262"/>
    <path d="M167.8 243.7V262"/>
    <path d="M191.1 243.6V262"/>
    <path d="M214.2 243.7V262"/>
    <path d="M237.4 243.7V262"/>
    <path d="M51.9 208.1v17.5"/>
    <path d="M74.9 208.1v17.4"/>
    <path d="M98.3 208.1v17.5"/>
    <path d="M121.4 208.1v17.5"/>
    <path d="M144.6 208.1v17.5"/>
    <path d="M167.8 208.1v17.5"/>
    <path d="M191.1 208.1v17.5"/>
    <path d="M214.2 208.1v17.5"/>
    <path d="M17 296.7V315"/>
    <path d="M40.2 296.7V315"/>
    <path d="M63.3 296.7V315"/>
    <path d="M86.5 296.7V315"/>
    <path d="M179.2 297v18.5"/>
    <path d="M202.4 297v18.3"/>
    <path d="M225.4 297v18.3"/>
    <path d="M17 262.2v17.1"/>
    <path d="M40.2 262.2v17.1"/>
    <path d="M63.3 262.2v17.1"/>
    <path d="M86.5 262.2v17.1"/>
    <path d="M179.2 262.2v17.1"/>
    <path d="M202.4 262.2v17.1"/>
    <path d="M225.4 262.2v17.1"/>
    <path d="M17 225.2v18.2"/>
    <path d="M40.2 232.4v10.8"/>
    <path d="M63.3 225.2v18.2"/>
    <path d="M86.5 232.6v10.6"/>
    <path d="M109.6 225.2v18.2"/>
    <path d="M132.8 232.3v10.9"/>
    <path d="M156 225.2v18.2"/>
    <path d="M179.2 232.3v10.9"/>
    <path d="M202.4 225.4v18"/>
    <path d="M225.5 232.2v11.1"/>
    <path d="M17.7 189.9v17.7"/>
    <path d="M41 189.9v12.7"/>
    <path d="M64 189.9v17.7"/>
    <path d="M87.4 189.9v11.9"/>
    <path d="M110.3 189.9v17.7"/>
    <path d="M133.8 189.9V202"/>
    <path d="M156.7 189.9v17.7"/>
    <path d="M180.2 189.9v12"/>
    <path d="M203.1 189.9v17.7"/>
    <path d="M226.6 189.9v12"/>
    <path d="M248.5 296.7v18"/>
    <path d="M248.5 261.8v17.3"/>
    <path d="M248.5 225.3v18.1"/>
    <path d="M248.6 190.2v17.4"/>
    <path d="M7.3 207.6h22"/>
    <path d="M144.4 243.4v13.9"/>
    <path d="M7.3 262h96.6"/>
    <path d="M160 262h96.4"/>
    <path d="M7.3 297h95.9"/>
    <path d="M161 297h95.4"/>
    <path d="M7.3 279.2h95.9"/>
    <path d="M160.9 279.2h95.5"/>
    <g stroke-width=".918" transform="translate(-149.9 -440.6)">
      <rect width="4.606" height="30" x="155.8" y="569.8"/>
      <path d="M152.3 577.6l5.7-23.5 5.6 23.5z"/>
      <rect width="4.606" height="30" x="183.5" y="569.8"/>
      <path d="M180.1 577.6l5.6-23.5 5.5 23.5z"/>
      <rect width="4.606" height="30" x="211.2" y="569.8"/>
      <path d="M207.8 577.6l5.6-23.5 5.7 23.5z"/>
      <rect width="4.606" height="30" x="237.9" y="569.8"/>
      <path d="M234.4 577.6l5.7-23.5 5.6 23.5z"/>
      <rect width="4.606" height="30" x="265.8" y="569.8"/>
      <path d="M262.4 577.6l5.6-23.5 5.7 23.5z"/>
      <rect width="4.606" height="30" x="295.5" y="569.8"/>
      <path d="M292.1 577.6l5.6-23.5 5.6 23.5z"/>
      <rect width="4.606" height="30" x="322.1" y="569.8"/>
      <path d="M318.7 577.6l5.6-23.5 5.6 23.5z"/>
      <rect width="4.606" height="30" x="349.2" y="569.8"/>
      <path d="M345.8 577.6l5.6-23.5 5.6 23.5z"/>
      <rect width="4.606" height="30" x="377.2" y="569.8"/>
      <path d="M373.7 577.6l5.7-23.5 5.6 23.5z"/>
      <rect width="4.606" height="30" x="404" y="569.8"/>
      <path d="M400.5 577.6l5.7-23.5 5.6 23.5z"/>
    </g>
    <path d="M42.6 150.3H28.9v11.9H15v-11.9H.5v29.1h262.7v-29.1h-13.6v11.9h-12.3v-11.9h-15.6v11.9h-13.5v-11.9h-13.9v11.9h-12.6v-11.9h-14.5v11.9h-12.9v-11.9h-13.5v11.9h-15.2v-11.9h-14.7v11.9H98.1v-11.9H82.9v11.9H70.7v-11.9H56.3v11.9H42.6z"/>
    <path fill="none" d="M103 331.1l-.3-48.3c-.2-22 15.4-27.2 29.9-26.9 14.5.3 28.6 3.8 28.6 27.4v48z"/>
    <path d="M123.4 251.5h17l-3.7 14.4c-3-.4-6.2-.4-9.5.1z"/>
    <path d="M95.6 303h15.3v10.6H95.6z"/>
    <path d="M168.2 302.5h-15.3v10.6h15.3z"/>
    <path d="M95.7 282h15.9c-.5 3.2-.7 6.7-.7 10.5l-15.2-.2z"/>
    <path d="M168.1 281.3h-16c.5 2.8.9 6.2.8 10.5l15.2-.2z"/>
    <path d="M154.3 258.3l-9.5 10.7c3.1 2.1 5.2 5 6.3 8.6l11.4-12.1c-1.4-3-4.3-5.3-8.2-7.2z"/>
    <path d="M109.5 258.2l9.7 11c-3.2 2.4-5.1 5.2-6.5 8.2l-11.4-12c1.4-3 4.3-5.3 8.2-7.2z"/>
    <path d="M.6 178.3h262.5v5.8c-3 1.3-5.3 2.1-5.6 6.7H6.4c-.7-1.9-1.1-4.6-5.8-6.5z"/>
    <path d="M1.1 184.3l261.6-.2"/>
    <path d="M96.4 323.5h14.5V334l-14.4-.2z"/>
    <path d="M167.3 323.6H153v10.5l14.3-.2z"/>
    <rect width="257.9" height="3.719" x="3" y="331.2"/>
    <path d="M161.1 314.9H257"/>
    <path d="M121.2 243.4v13.9"/>
    <path d="M45.18 207.6h32.39"/>
    <path d="M92.67 207.6h32.53"/>
    <path d="M140.9 207.6h32.2"/>
    <path d="M188.5 207.6h32.6"/>
    <path d="M236.4 207.6h20.2"/>
    <path d="M7.28 225.5h22"/>
    <path d="M45.18 225.5h32.18"/>
    <path d="M93.16 225.5h32.04"/>
    <path d="M141.1 225.5h32"/>
    <path d="M188.7 225.5h32.4"/>
    <path d="M236.6 225.5h20"/>
  </g>
</svg>
