<svg xmlns="http://www.w3.org/2000/svg" fill="#d7374a" stroke="#000" viewBox="50 50 200 200">
<metadata source="https://commons.wikimedia.org/wiki/File:Coat_of_Arms_of_Sianno,_Belarus.svg" author="Leonid 2" license="https://creativecommons.org/publicdomain/zero/1.0"/>
  <g id="scythe2" stroke-width=".2" transform="translate(68 57.5) scale(0.85) rotate(131.1 40.09 44.87)">
    <path fill="#000" d="M12.4 64.39l-.6.51c-.08 2.34 1.78 2.68 3.61 1.99 1.66 4.76 4.99 8.45 8.96 11.44 4.92 3.7 10.56 6.3 16.2 8.65-6.38.24-12.46-2.05-18.04-4.94a62.26 62.26 0 01-8.78-5.52 44.07 44.07 0 01-4-3.4 23.98 23.98 0 01-3.07-3.5c-.95-1.38-1.4-3.09-.29-4.51a9 9 0 012.06-1.93c.3-.2.62-.38.95-.53l.14-.14.68-.6c-.34-.55-.26-1.3.26-1.75l.58-.5v-.01c.52-.44 1.27-.44 1.78-.02l35.9-31.43c-.41-2.64 1.81-4.68 4.44-3.88l20.34-17.8a1.55 1.55 0 011.8-.24 1.84 1.84 0 01.88 1c.2.55.1 1.18-.47 1.68L56.09 26.14c1.48 1.05 3.03 2.08 4.43 3.2l.29.26c.48.56.34 1.36-.12 1.93-.47.59-1.33.93-1.96.33a53.63 53.63 0 00-1.84-1.64c-.55.82-1.24 1.54-1.99 2.17.7.7 1.43 1.4 2.15 2.1.58.56.3 1.37-.2 1.87-.5.51-1.36.86-1.96.28a30.84 30.84 0 01-2.9-3.3 66.69 66.69 0 01-1.61-2.2L15 62.1c.34.56.24 1.3-.26 1.74l-.58.51-.01.01c-.5.44-1.25.43-1.76.03zm39.86-34.9c.4.51.84 1 1.28 1.47.7-.57 1.35-1.22 1.89-1.95l-1.38-1.08-1.79 1.57z"/>
    <path stroke="none" d="M9.07 63.3l-.38.23a8.55 8.55 0 00-1.97 1.84c-1 1.26-.54 2.8.31 4.02a23.68 23.68 0 003 3.43A43.65 43.65 0 0014 76.2c6.48 4.9 15.38 9.29 22.4 10.23a60.58 60.58 0 01-16.24-6.95c-4.77-3-8.35-6.4-11.38-9.84-1.17-1.32-2.02-2.9-.87-4.55.34-.48.74-.87 1.15-1.28a1.39 1.39 0 010-.5zm2.27-3.33l-.58.5a.96.96 0 00-.1 1.34h.01l1.87 2.14c.35.39.95.43 1.34.1v-.01l.58-.5v-.01a.96.96 0 00.1-1.33h-.01l-1.87-2.14a.96.96 0 00-1.34-.1zM9.2 64.25c-.34.33-.67.67-.95 1.07-1.03 1.47-.2 2.86.83 4.03a51.05 51.05 0 0011.3 9.76c4.65 2.93 10.45 5.5 17.99 7.4-5.38-2.3-10.29-4.85-14.26-7.84-4.21-3.17-7.38-6.84-8.97-11.26-1.97.63-3.69-.1-3.77-2.2-.44.23-.93.16-1.35-.08-.35-.2-.65-.52-.82-.88zm2.18.46l.71-.62-1.61-1.85-.67.59a.98.98 0 00-.27 1.15c.13.33.38.61.68.78.37.21.81.25 1.16-.05zm1.74-4.78l1.61 1.84 35.4-30.97c-.48-.67-1.05-1.34-1.29-2.14L13.13 59.93zM56.79 29.6c.76.64 1.5 1.29 2.22 1.96.45.42 1.04.1 1.35-.29.4-.48.47-1.13-.04-1.53-1.9-1.52-3.31-2.42-4.56-3.3l-1.38 1.22L56 28.93c-.7 1-1.55 1.86-2.5 2.6a28.77 28.77 0 01-2.2-2.6c-.64-.88-.89-2.19 0-2.97l1.5-1.3c-2.36-.56-4.13 1.46-3.58 3.73.21.9.9 1.66 1.42 2.4.55.78 1.1 1.55 1.68 2.29.92 1.18 1.87 2.3 2.87 3.26.4.4 1.04.07 1.37-.27.32-.33.6-.9.2-1.28-.84-.8-1.67-1.61-2.48-2.43.98-.8 1.86-1.7 2.51-2.77zm-5.23-3.3c-.19.17-.32.36-.38.6-.15.6.13 1.34.46 1.8l.36.48L75.45 8.64c.42-.36.49-.82.35-1.22a1.37 1.37 0 00-.68-.76c-.4-.2-.9-.2-1.33.18L51.56 26.29z"/>
  </g>
</svg>
