<svg xmlns="http://www.w3.org/2000/svg" fill="#d7374a" stroke="#000" viewBox="50 50 200 200">
  <metadata source="https://commons.wikimedia.org/wiki/File:Coa_England_Family_Rosalinda_Lucinda_Mandragon_de_la_Vega.svg" license="https://creativecommons.org/publicdomain/zero/1.0"/>
  <g id="squirrel" stroke-width=".53">
    <path stroke-linejoin="round" d="M128.1 80.11s1.1-4.31-3.3-4.98c-2.83-.43-4.87 2.13-4.87 5.85 0 10.52 3.6 12.82 5.45 28.87 1.01 8.74-4.56 23.25-19.3 23.25l-.14-3.66s4 .61 6.3-1.3c3.17-2.8 6.37-11.54 3.65-18.87-2.71-7.33-4.5-10.5-8.03-16.46-3.53-5.96-3.98-14.73.35-21.79 4.5-7.33 15.16-9.82 20.89-4.69 5.72 5.13 1.57 12.46-1 13.78z"/>
    <path stroke-linecap="round" stroke-linejoin="round" d="M87.14 127.97c-2.63-.82-3.93.15-5.21 1.02-1.7 1.16-4.42 1.9-4.8 3.56-.4 1.66.7 2.46.7 2.46.55 1.71 1.95 1.18 1.95 1.18s3.73-.32 4.76-2.7c.62-1.44 1.76-1.6 3.73-.79l.57-2.9-1.7-1.83"/>
    <path stroke-linejoin="round" d="M74.49 109.36c3.29-1.2 4.54 1.23 7.48 3.62 2.94 2.39 3.84.5 3.84.5a11.77 11.77 0 0 0-1.37 8.38c.62 2.9 3.9 8.18 3.9 8.18-2.73-.17-3.78 1.08-4.82 2.23-1.4 1.54-3.87 2.9-3.87 4.61 0 1.7 1.23 2.22 1.23 2.22.93 1.54 2.17.68 2.17.68s3.56-1.2 4.03-3.75c.46-2.56 3.1-2.05 8.97-.17 5.88 1.87 11 2.05 13.47 1.02 2.47-1.02 1.24-3.75 1.24-4.44 0-.68 4.17-3.75 4.17-10.75 0-14.86-8.82-23.22-14.39-26.3-5.57-3.07-5.57-8.19-6.35-12.46-.77-4.27-3.9-5.67-3.9-5.67 2.65-3.12 2.16-6.76 1.9-9.52-.32-3.25-1.4-7.68-1.4-7.68-.15 3.92-4.02 8.02-5.73 9.39 0 0-1.06-5.9-4.33-8.12 0 0 1.26 5.14.12 8.05-1.13 2.92-2.62 4.83-2.62 7.6a6.7 6.7 0 0 0-2.22 2.18c-.87 1.4-2.25 3.76-2.25 8.32 0 1.82-1.04 2.73-1.48 3.4-.36.54-.12 2.4.83 2.17 0 0 .98 3.12 2.97 3.06 1.98-.06 1.82-1.34 3.36-1.46.96-.08 2.64.82 4.83-.14 0 0 .43.35-1.2 2.92-.78 1.15-.97 2.82-.97 3.95 0 .76-.05 2.23 1 3.31-.2.46-.38.98-.52 1.56 0 0-2.02-1.02-3.47-2.48-1.46-1.46-5.69-5.1-6.7-4.04-.17.17-.25.4-.15.64 0 0-1.27-.93-1.88.19-.2.35-.06.77.27 1.26 0 0-.98-.43-1.42.25-.36.56-.45 1.22.07 1.92 0 0-.64-.5-1.21.48-.57.97 1.65 3.01 3.24 3.94 1.59.92 2.07 1.34 3.16.95z"/>
    <g fill="none" stroke-linecap="round" stroke-linejoin="round">
      <path d="M81.64 130.8s-3.76 1.41-3.82 4.2"/>
      <path d="m82.71 132.05-.52.33c-1.3.75-2.57 1.46-2.41 3.8"/>
      <path d="M69.3 103.99c.55.72 1.71 1.77 3.94 3.28"/>
      <path d="M70.65 101.82c.74 1.07 2.47 2.4 3.78 3.65"/>
      <path d="M72.27 100.37c.49 1.11 3.27 3.2 3.27 3.2"/>
      <path d="M84.27 94.5c1.32-.57 2.82-1.82 4.48-4.35"/>
      <path d="M73.11 93.05c.23-.06.5-.24.82-.59"/>
      <path d="M82.43 77.64s-.1-.76-.05-1.85c.09-1.85.59-4.66 2.68-6.34"/>
      <path d="M85.81 113.47a7.26 7.26 0 0 1 6.37-3.56c5.11 0 9.9 4.44 10.68 8.36"/>
      <path d="M88.35 130.04c.91.05 2.02.27 3.37.7 5.42 1.7 10.37 2.21 10.37 2.21"/>
      <path d="M90.3 77.26c-.46.55-1.01 1.07-1.68 1.58"/>
      <path d="M92.96 104.1s-.29 3.22-2.3 5.95"/>
      <path d="M82.38 75.79s-2.13-.04-4.15 1.2"/>
      <path d="M86.05 101.4s-1.82.73-2.95 3.29"/>
      <path d="M83.64 134.1s-3.34 2.27-2.76 5"/>
      <path d="M85.12 134.9c-.2.21-.39.42-.58.6-1.1 1.05-2.17 2.04-1.49 4.28"/>
      <path d="M85.91 76.83s-.77-3.25 1.48-5.59c2.24-2.33 2.5-3.6 2.5-3.6s.51 3.6-.97 6.15"/>
      <path d="M129.37 75.73c.82-4.3-8.54-10.2-14.3-2.94-5.5 6.92-1.4 16.81 4.82 30.64 4.67 10.37 1.8 19.14-3.38 24.65"/>
    </g>
    <path fill="#f6f6f6" stroke-linejoin="round" d="M77.48 87.4s.72-1.34.9-2.75c.22-1.54 1.98-2.02 3.86-1.86 0 0 .28 2.4-.97 3.55-1.55 1.42-2.72.49-3.8 1.05z"/>
    <g stroke="none" fill="#000">
      <path d="M78.7 83.83c-.16.23-.27.5-.31.82-.04.32-.11.63-.2.92a4.14 4.14 0 0 0 .87 1.62c.49 0 1.01-.05 1.6-.39 0-.45-.12-1-.4-1.55-.42-.88-1.06-1.44-1.55-1.42zm1.02 1.83c-.09.05-.26-.12-.39-.38-.12-.26-.16-.5-.07-.56.08-.05.25.12.38.38s.16.5.08.56z"/>
    </g>
  </g>
</svg>
