<svg xmlns="http://www.w3.org/2000/svg" fill="#d7374a" stroke="#000" viewBox="50 50 200 200">
	<metadata source="http://wappenwiki.org/images/2/26/Brixen.svg" license="https://creativecommons.org/licenses/by-nc-sa/3.0"/>
  <g id="agnusDei" stroke-width="3" transform="matrix(.116 0 0 .116 74 60)">
    <path d="M3.5 539s17.7 4.4 21.7 8.7c8.3 9.8 7.9 27.9 4.2 36.3-1.1 2.6-6.8.6-13.2-5.7 0 0 3 8.1.1 13.4-6.6-5.7-14.5-21.1-27.4-30-2.6-3.6-3.9-7.5-2.8-12.5s-4.5-5.5 3.7-7.1c6.1-1 13.7-3.1 13.7-3.1z"/>
    <path d="M57.5 421.6c-10.1 9.4-30.8 14.9-41.2 15.2-18.2.6-43.3.4-49.2 6.8-1.8 1.9-3 10.9-8.1 14.6-1.6 3.8 3.6 13 6.1 24.3 2.6 9.7 5.7 26.1 7.3 28.1 3.6 7.8 11.3 2.1 15.4 4.4 2 1.5 2.1 1.9 2.8 5 1.1 5.2-5.7 5-5.5 10.6.2 3.8 2.1 3.5 5.1 5.3 3.2 1.6 3.1-5.3 8.4-5.6 5.1-.3 5.4 7.4 5.4 7.4s-15 7.4-14.3 24.4c-9.9-2.2-13.7-12.4-25-17.1-11.3-4.7-12.4-15.7-12.9-22.5-.5-6.8-5.9-29.6-8-36.5-3.4-10.7-12.2-33.4-13-43.6-.3-3.8 3.8-10 4.6-15.1 1.3-8.4 0-13 2.3-15.3 7-7.1 21-7.4 36.6-15.5 12.5-5.1 41-25.5 45.9-32.1"/>

    <g fill="#f2bc51">
			<polygon points="-24.2 591.3 -32.1 584.6 452.4 6.3 460.4 13"/>
      <path d="M97.5 68.4c-65.6 0-118.7 53.2-118.7 118.7S31.9 305.9 97.5 305.9s118.7-53.2 118.7-118.7c0-65.7-53.1-118.8-118.7-118.8z"/>
      <path d="M97.6 277.7c-50 0-90.6-40.6-90.6-90.6s40.6-90.6 90.6-90.6 90.6 40.6 90.6 90.6c0 50.1-40.6 90.6-90.6 90.6z"/>
      <path d="M114.6 203.8h.4c31 .3 52.5 9.3 66.2 17.9 4.4-10.7 6.9-22.4 6.9-34.6 0-12-2.3-23.5-6.6-33.9-13.6 8.6-35.1 17.7-65.9 18.1h-1.1v-.5c.4-31.6 9.7-53.5 18.5-67.1a91.14 91.14 0 00-69.8-.5c8.8 13.5 18.4 35.4 18.8 67v1c-31.7-.8-54.1-10.6-68-19.5A90.45 90.45 0 006.9 187c0 12.8 2.7 25 7.4 36 13.9-8.8 36.1-18.4 67.6-19.2-.8 31-10.2 53.1-18.9 67 10.6 4.4 22.3 6.8 34.5 6.8 12.7 0 24.7-2.6 35.6-7.3-8.6-13.8-17.7-35.7-18.5-66.5z"/>
			<path d="M494.3 60.2L334.7 75.6v7.7l159.5-15.4v-7.7z"/>
			<path stroke-width="2" d="M455.9 11.8c0 .2 2.6 16.6 9.1 28.5 6.9 12.3 24.8 22.2 24.9 22.3l-1.7 3.2c-.8-.4-19-10.4-26.4-23.6-4.8-8.7-8.7-19.4-9.3-25.4"/>
			<path stroke-width="2" d="M450.6 13.6c-6.3 7.5-25.7 26.9-50.5 38.8C360.5 71.9 328.4 78 328 78.1l-.7-3.5c.4-.1 32-6.2 71.3-25.5 31-14.9 51.9-41.1 52.1-41.4l3.2-4.4.1 5.4"/>
			<path d="M488.3 54.8c5.1 0 9.3 4.2 9.3 9.3s-4.2 9.3-9.3 9.3c-5.1 0-9.3-4.2-9.3-9.3.1-5.2 4.2-9.3 9.3-9.3z"/>
    	<path d="M331.7 69.3c5.1 0 9.3 4.2 9.3 9.3 0 5.1-4.2 9.3-9.3 9.3-5.1 0-9.3-4.2-9.3-9.3-.1-5.2 4.1-9.3 9.3-9.3z"/>
    	<path d="M456.7-1.6c5.1 0 9.3 4.2 9.3 9.3s-4.2 9.3-9.3 9.3c-5.1 0-9.3-4.2-9.3-9.3.1-5 4.2-9.3 9.3-9.3z"/>
    </g>
    <path fill="#f6f6f6" d="M343.4 82l133-12.8s-11.3 29.2-3.7 63.7c9.1 44 43.1 51.1 53.5 109.9 7.6 43.9-7.3 70.9-7.3 70.9s-1.9-28.2-13.4-45.5c-14.4-21.6-36.4-33.5-36.4-33.5s7.2 18.7 5.2 41.6c-1.9 27.7-16.8 49.7-16.8 49.7s-4.6-40.3-24.8-68.5c-17.4-24.2-71.4-66.7-83.1-108.6-11.8-42.4-6.2-66.9-6.2-66.9z"/>
    <path fill="#bc2e2e" d="M351.3 154c.2.5.3.9.5 1.4.3.9.7 1.7 1 2.7.1.2.2.4.2.6.4 1 .9 2.1 1.3 3.1 17.7-5.6 35-7.7 52.8-9.2 7.6 19.9 19.3 36 30.8 51.8 11.7 16.1 28.1 44.8 36.2 71.7v-.1c.3-3.8.4-7.5.3-11l-.5-8a99.42 99.42 0 00-4.8-22.3h0c0-.1-.1-.2-.1-.3h0v-.1l.1.1h0c1.2.7 11.6 6.6 22.5 16.9h0c-7.9-24.7-22.5-43.2-35.4-61.1-9.5-13.2-17.4-25.6-23.9-39.9 14.2-1.3 28.5-3.4 43.1-7.6h0c-.5-1.5-.9-3.1-1.4-4.6 0-.2-.1-.3-.1-.5-.2-.6-.3-1.2-.5-1.8 0-.2-.1-.4-.1-.6-.2-.8-.4-1.6-.5-2.5-.3-1.3-.5-2.8-.8-4.1 0-.2-.1-.4-.1-.7l-.6-3.9h0l-1.3-4.5c-14.9 4.4-29.6 6.2-45 7.5-3-14.7-3.2-31.8.7-53l-.4-.1-24.3 2.2c-3.2 20.4-2.8 37.6-.1 52.7-17.3 1.6-35.2 4-53.8 9.8v.1c.3 1.4.6 2.8 1 4.2 0 .2.1.3.1.5l1.2 4.6c.3 1.2.7 2.4 1.1 3.6.4 1.1.6 1.8.8 2.4z"/>

    <path d="M96 650.6s0 18.2-3.3 23.1c-7.5 10.4-25.2 14.4-34.3 12.8-2.8-.5-2.2-6.4 2.3-14.2 0 0-7.2 4.9-13 3.3 3.9-7.8 16.9-19.2 22.5-33.8 2.9-3.4 6.4-5.6 11.5-5.7 5.1-.1 4.3-5.6 7.7 1.9 2.8 5.7 6.6 12.6 6.6 12.6z"/>
    <path d="M445.1 650.6s0 18.2-3.3 23.1c-7.5 10.4-25.2 14.4-34.3 12.8-2.8-.5-2.2-6.4 2.3-14.2 0 0-7.2 4.9-13 3.3 3.9-7.8 16.9-19.2 22.5-33.8 2.9-3.4 6.4-5.6 11.5-5.7 5.1-.1 4.3-5.6 7.7 1.9 2.8 5.7 6.6 12.6 6.6 12.6z"/>
    <path d="M295.1 650.6s0 18.2-3.3 23.1c-7.5 10.4-25.2 14.4-34.3 12.8-2.8-.5-2.2-6.4 2.3-14.2 0 0-7.2 4.9-13 3.3 3.9-7.8 16.9-19.2 22.5-33.8 2.9-3.4 6.4-5.6 11.5-5.7 5.1-.1 4.3-5.6 7.7 1.9 2.8 5.7 6.6 12.6 6.6 12.6z"/>
    <path d="M384 474.7c-4.9 11.4-10.4 15-14.7 30.3-.5 1.8-1.5 3.5-1.6 5.4-.1 2.1.6 4.1 1 6.1.8 4.3 2.2 10.3-.9 13.5-7.7 7.8-15.2 10.9-22.4 19.3-11.9 13.9-25.6 32.7-29.6 50.6-3.3 14.8 4.5 21.5 2.6 26.3-1.3 2.4-2.5 4.3-5.7 5.4-5.5 1.9-7.2-3.6-13.4-2.6-4.1.8-7.1 4.5-7.2 6.4 0 4.1 6.1 3.1 6.8 8.9.3 2.3-4.3 4.8-4.3 4.8s-11.8-11.8-27.6-5.7c-1.1-10 11.8-28.6 19.5-38.1 10.5-13.1 22-38.9 24.6-44.1 7.3-14.7 14.7-29.5 18.7-45.4 4.2-16.8-3.3-24.7-9.1-51.1 5.9-1.7 9.4-2.5 14.8-5.5 5.3-3 11.5-5.3 17.5-4 3.8.8 7.1 3 10.2 5.1 6.7 4.5 14.1 9.9 20.8 14.4z"/>
    <path d="M475.5 401.6c.1-1.3-2.9-3-5.2-7.9-1.9-3.9-4.7-20.6-22-35.3-23.7-20.1-27.3-28.1-43.9-44.4-16.8-13.6-21.8-18.1-45.6-25-9.9-2.9-20.9-4.4-30.9-5-12.2-.7-38.2.1-50.6 1.7-10.3 1.3-44.6 3.6-55.1 3.6-61.5 0-74.7-21.9-92.7-25.2-5-6.4-4.4-15.9-4.4-15.9s10.2 3 23.2-2.4c5.9-2.5 13.7-2.9 21-1.1 2.4.6 4.2 1.2 6.7 2.5 5.9 3.1 10 2.9 15.8 1.7 4.3-.9 7.2-7.6 7.2-7.6 3.3-.9 6.1-1.7 8.6-4.9 1.6-2.1 3.4-6.4 3.2-9.9 0-.7-1.1-3.3-1-4 0-.4.9-2 .8-4.2-.3-4.1-1.5-8.8-5.3-15.8-2.6-4.7-13.3-17.4-16.8-22.6-3.6-5.3-7.3-8.8-10.3-11.8-1.1-1.1-9.5-9.3-10.3-10-1.7-1.3-2.6-3.2-3-5.3-.8-4.9-6-10.2-10.8-13.2-2.2-1.4-2.5-2-2.6-2.7-.4-3.1-5.5-8-9.6-9-6.2-1.4-10.2-6.2-16.9-6.5-6.9-.2-9.9-1.3-13.6-1.9-3.7-.6-7.9.2-13.4-.8-15.2-2.8-29.1 4.4-36.5 9.2s-23 11.5-31.4 29.8c-3.3 7.2-5.5 14.7-8.9 21.8-3.2 6.9-3.4 14.1-5.6 21.4-1.9 6.1-6.2 11.7-2.3 16.5 0 0-1 8.6-5.5 15.6-3.6 5.6-1.1 12 3.2 15.1 0 0-1.8 6.8-8 13.2-4.7 4.9-4.2 12.6.2 16.4-3.5 10.6-24.2 21-13.6 38.2-14.7 10.8-6.4 30-8 38.2-10.1 20.8 11.4 40 11.4 40-8.8 19.5 17.8 34.5 17.8 34.5s1.6 15.2 24.1 14.4c4.9 15.3 20.2 19.2 26.1 20.4 1.2 9.3 3.2 16.6 13.6 37.7.7 1.4 2.2 2.6 2.2 4 0 6.7.4 13.7 1.6 20.3 1.1 5.9 1.9 7.9 2.8 13.9.7 4.6 3.6 7.8 2.9 12.7-1.5 10.2-.9 20.6-1.8 30.9-.9 10.4-3 20.8-4.3 31.1-1.5 12.1-9.6 19.5-9 29.5 16.1-5.3 27.3 7.2 27.3 7.2s4.7-2.3 4.6-4.6c-.4-5.9-6.6-5.1-6.4-9.2.2-1.9-1-3.6 2.7-5.6 5.6-2.8 8.8 2 13.6-1.4 2.8-2.1 3.3-4.2 3.9-6.9.4-5.2-12.1-6-9.6-17.8.7-4.1 3.7-17.8 4-28.5.3-10.8-1.6-26 1-29.8 3.7-5.2 5-10.2 7.4-15.9 2.4-8.9 2.9-12.7.1-21.7-.7-2.2-1-1.5-1-3.5s-2.1-9.4-1.8-11.7c.9-8 8.2-6 11.3-16.3l.2.4c2 .9 13.6 3.4 15.8 3.2 9.9-1.2 20.1-2.1 26.5-1.5 9.6.8 20.2-1.1 29.6.5 11.4 1.9 20.7-.9 32-2.3 4.1-.5 8.3-.9 12.3-2 3.6-1 7.3-1.1 11-1.8 4.9-.9 18.4.2 23.2 1.3 10 2.3 17.6-.4 27.9-.3 7.3.1 14.4-1.8 21.4-3.8 9-2.5 16.5-3.5 24-8.1 6.1 8.1 11.4 21.8 28 29.5l-.1.2c.5 3.9 3.2 7.2 6.4 9.5 3.1 2.4 6.7 4 9.9 6.3 9.1 6.6 11.5 12.3 16 21.8 2.1 4.6 5.3 8.7 7.1 13.4 2.7 7 9.2 25.9 9.6 43.8 0 8.5-1.4 11.6-2.3 23.8-.9 12.2-8.5 21.5-7.4 31.6 15.8-6.1 27.6 5.7 27.6 5.7s4.6-2.5 4.3-4.8c-.8-5.8-6.9-4.8-6.8-8.9.1-1.9-1.1-3.5 2.4-5.7 5.5-3.1 8.9 1.5 13.5-2.2 2.7-2.2 3.1-4.4 3.5-7.1.2-5.2-9.5-8.8-11.5-23.8-1.9-14.3-.7-34.6-2.6-48.9-1.9-14.6-3.8-19.3-2.3-34 .9-9.1 5-19 .3-26.8-3.6-5.9-15.6-9.5-17.7-16.1-.8-2.6-.7-5.4-.6-8.1.7-20 4.7-17.1 4.7-37.1 0-12.9-3.2-25.8-3.2-25.8s3.4 8.9 5.9 12.2c6 8 14.1 9.6 14.1 9.6s5.1 15.3 23 18.8c.2-2.5-4.1-7.5-4.9-12.9-.7-4.9 1.2-12.3.7-16.6-1.1-8.3-4.7-11.5-4.4-12.1 3.8 2.8 8.9 5.2 12.3 2.9z"/>
    <path fill="none" d="M61 463.4c-1.1-6.5-2.4-13.4-4.4-22.5-4.4-12.5 1.8-23.5 1.8-23.5"/>
    <path fill="none" d="M316.5 419.6c1 8.1 3.1 17.4 10.2 21.4 0 6.1 5.2 11.4 11.2 12.2 3 5.1 8.8 5.1 11.6 10.3"/>
    <path d="M65.2 183.8c-2.9 1.6-10.4 4.8-19.6 4.9-8-.1-18.6-.1-28-3.3-10.4 1.8-19.4-4.1-19.5-7.7.7-4.9 12-8.3 15.8-10 15-7 19.8-12.1 28.1-15.4 10.8-4.3 24.8-5.1 31.3-3.7"/>
    <path fill="#f6f6f6" stroke-width="2.5" d="M150.4 165.1c-2.6-.4-5.4-.2-7.3 1.7-.5.5-1.8 3.2-.1 7.4.7 1.7 1.8 3.1 3.4 4 2.1 1.2 6.2 1.8 8.7 1.1 2.6-.8 4.3-1.9 4.3-4.3.1-4.1-7-9.6-9-9.9z"/>

    <g fill="#000" stroke="none">
      <path d="m -8.3,426 c 3.6,-1 10.85,-2 14.55,-2 l 0.1,2 c -3.96,0 -11.46,0 -14.65,0 z"/>
      <path d="M-38.4 434.8l-.3 2.8c-.1.9-.1 1.8-.1 2.7 0 1.8-.3 4-1.1 5.8-.4.9-.8 1.8-1.4 2.7-.6.9-1.3 1.7-2.2 2.3-1.7 1.3-3.8 2-5.9 1.6v-.5c1.7-.6 3.2-1.6 4.2-2.8.5-.6 1-1.3 1.4-2 .4-.7.7-1.5 1-2.4.6-1.6 1-3.2 1.5-5.1.5-1.8 1.4-3.7 2.9-5.1z"/>
      <path d="M-48.7 463.4c1.1 4.6 2.2 9 3.4 13.5l1.7 6.7c.6 2.2 1.1 4.5 1.7 6.7.6 2.2 1.1 4.5 1.7 6.7l1.8 6.7c1.2 4.5 2.5 8.9 4.2 13.3-2.8-3.8-4.7-8.2-6.4-12.5l-1.2-3.3c-.4-1.1-.7-2.2-1.1-3.3-.7-2.2-1.3-4.5-1.9-6.7-1.1-4.5-2.1-9.1-2.8-13.7-.7-4.7-1.2-9.4-1.1-14.1z"/>
      <path d="M-25.2 541.4a8 8 0 014.3.5c1.4.5 2.6 1.4 3.7 2.2 1.1.9 2.1 1.9 3 2.9.9 1 1.7 2.1 2.6 3.1l-.2.3c-1.4-.5-2.5-1.4-3.6-2.2-1.1-.9-2.1-1.8-3.1-2.6-1-.9-2-1.7-3.1-2.4-1.1-.6-2.2-1.2-3.6-1.8z"/>
      <path d="M14.9 579.3c-2.3-3.6-5-7.1-7.8-10.5-2.8-3.4-5.7-6.7-8.7-9.9l.2-.2c3.3 2.9 6.5 5.9 9.7 9 3.1 3.1 6.2 6.3 9 9.8l-2.4 1.8z"/>
      <path d="M59.7 671.4c2.9-3.1 5.7-6.6 8.3-10.1 2.6-3.5 5.1-7.1 7.6-10.8l.3.2c-2 3.9-4.2 7.8-6.5 11.6s-4.6 7.5-7.4 11.1l-2.3-2z"/>
      <path d="M408.8 671.4c2.9-3.1 5.7-6.6 8.3-10.1 2.6-3.5 5.1-7.1 7.6-10.8l.3.2c-2 3.9-4.2 7.8-6.5 11.6s-4.6 7.5-7.4 11.1l-2.3-2z"/>
      <path d="M258.8 671.4c3-3.1 5.7-6.6 8.3-10.1 2.6-3.5 5.2-7.1 7.6-10.8-2 3.9-4.1 7.8-6.4 11.6-2.3 3.8-4.6 7.6-7.3 11.2l-2.2-1.9z"/>
      <path d="M145.4 426.3c.6 4.6.3 9.3-.6 13.9-.9 4.6-2.5 9-4.4 13.3-1.9 4.3-4.2 8.3-6.5 12.3s-4.7 7.9-6.4 12l-2.8-1.1c2-4.4 4.5-8.3 6.9-12.2 2.5-3.9 4.8-7.8 6.9-11.9a62.04 62.04 0 006.9-26.3z"/>
      <path d="M111.2 547.6c-2.1 3.6-3.6 7.7-4.7 11.9-1.2 4.2-2 8.5-2.8 12.8-.8 4.3-1.5 8.6-2.4 13-.4 2.2-.9 4.3-1.6 6.4-.7 2.1-1.4 4.3-2.8 6l-.2-.2c1.3-1.7 1.9-3.9 2.4-6s.9-4.3 1.2-6.4c.7-4.3 1.1-8.7 1.7-13.1.6-4.4 1.2-8.7 2.2-13.1 1-4.3 2.2-8.7 4.4-12.8l2.6 1.5z"/>
      <path d="M102.7 500.7c1.1 2.5 2.3 4.9 3.6 7.3 1.3 2.4 2.6 4.9 3.5 7.6.9 2.7 1.4 5.6 1.2 8.5-.2 2.9-.9 5.8-2.7 8.1l-.4-.2c.7-2.6.8-5.2.6-7.8-.2-2.6-.8-5.1-1.6-7.6s-1.8-4.9-2.7-7.6c-.9-2.6-1.6-5.4-1.6-8.2l.1-.1z"/>
      <path d="M443.7 401.6c2 2.9 2.9 6.5 3.7 9.9.4 1.7.7 3.4 1.1 5.1.4 1.7.9 3.3 1.6 4.6l-2.8 1.2c-.7-1.9-.9-3.7-1.1-5.4-.2-1.8-.3-3.5-.5-5.2-.3-3.4-.8-6.9-2.4-10l.4-.2z"/>
      <path d="M462.3 400.2c-1.5-1.4-2.8-2.9-3.9-4.5s-2.1-3.3-2.8-5l.3-.1c1.1 1.5 2.4 2.9 3.8 4.1 1.4 1.2 2.9 2.3 4.4 3.2l-1.8 2.3z"/>
      <path d="M452 401.5c1.8 2.4 3.6 4.9 4.9 7.7 1.4 2.7 2.4 5.7 3 8.6.6 3 .9 6 1.8 8.7.9 2.7 2.6 5.2 4.3 7.6l-.2.2c-2.3-2-4.4-4.3-5.6-7.2-.7-1.4-1-3-1.4-4.5-.3-1.5-.5-3-.9-4.4-.6-2.9-1.4-5.7-2.5-8.4-.9-2.8-2.3-5.4-3.4-8.3z"/>
      <path d="M427.3 400.1c-.7-4.6-1.6-9.2-2.7-13.8-1.1-4.6-2.3-9.1-3.7-13.6-2.8-9-6.2-17.8-9.7-26.7 2.4 4.1 4.5 8.4 6.4 12.7 1.9 4.4 3.6 8.8 5.3 13.3 1.6 4.5 3 9 4.3 13.6 1.3 4.6 2.2 9.3 3.1 14l-3 .5z"/>
      <path d="M351.5 329.8c3.6.8 7.1 1.9 10.4 3.5 1.7.7 3.3 1.7 4.9 2.5 1.6.9 3.2 1.9 4.7 3 3 2.1 5.9 4.4 8.5 7 2.6 2.6 5 5.4 7 8.5l-.4.3c-2.7-2.4-5.5-4.7-8.3-6.9-2.8-2.2-5.6-4.4-8.5-6.4-1.4-1.1-2.9-2-4.4-3-1.5-1-3-1.9-4.5-2.8-3-1.9-6.2-3.5-9.4-5.4v-.3z"/>
      <path d="M403.1 377.7c1.2.1 2.2.5 3.2.9 1 .5 1.9 1 2.7 1.6.4.3.8.6 1.2 1 .4.4.8.7 1.1 1.2.4.5.7 1 .9 1.7.1.3.1.7.1 1 0 .4-.2.7-.5.8-.1-.6-.5-.8-.8-1.1-.4-.2-.8-.5-1.2-.7-.4-.2-.9-.4-1.3-.7-.4-.3-.9-.6-1.3-.9-.8-.6-1.6-1.3-2.3-2.1-.7-.7-1.4-1.6-1.8-2.7z"/>
      <path d="M406.6 389.5c1-.1 1.9.1 2.7.5a6.11 6.11 0 013.4 3.7c.3.8.4 1.7.2 2.7-.9-.4-1.6-.9-2.2-1.4-.6-.5-1.1-1-1.6-1.5s-.9-1.1-1.4-1.7c-.4-.6-.8-1.3-1.1-2.3z"/>
      <path d="M409.2 399.9c1.2.5 2.2 1.3 3.1 2.2.9.9 1.6 1.9 2.3 2.9.6 1.1 1.1 2.2 1.4 3.4.3 1.2.5 2.5.3 3.8-1-.9-1.8-1.8-2.5-2.8-.7-.9-1.3-1.9-1.9-2.9-.6-1-1.1-2-1.6-3.1-.3-1.1-.8-2.2-1.1-3.5z"/>
      <path d="M411.6 412.8c1 1 1.7 2.2 2.3 3.4.5 1.2.9 2.6 1.1 3.9.2 1.3.2 2.7 0 4.1-.2 1.3-.6 2.7-1.3 3.9-.5-1.4-.8-2.6-1-3.9l-.6-3.7c-.2-1.2-.3-2.5-.4-3.7-.1-1.3-.2-2.6-.1-4z"/>
      <path d="M158.8 427.6c-.7-1.3-1.2-2.4-1.7-3.6-.5-1.1-1.1-2.3-1.6-3.4-.5-1.2-1-2.4-1.3-3.7-.4-1.3-.6-2.6-.6-4.1 1.1 1 1.9 2 2.7 3.1.8 1.1 1.4 2.3 2 3.5.5 1.3.9 2.6 1.1 4 0 1.4 0 2.9-.6 4.2z"/>
      <path d="M209 307.4c1.1-.4 2.1-.6 3.1-.8 1-.2 1.9-.4 2.8-.5.9-.1 1.9-.3 2.9-.4 1-.1 2-.2 3.2-.1a6.4 6.4 0 01-2.5 2.4c-1 .6-2 .9-3.2 1.1-1.1.2-2.2.1-3.3-.1-1-.3-2.1-.8-3-1.6z"/>
      <path d="M174.2 457.6c-.2.2-.2.4-.1.5.1.1.3.3.5.3.2.1.4.1.5.2h.6c1-.1 1.9-.1 2.9-.2 1.9-.1 3.8-.1 5.6-.2 1.9 0 3.7-.1 5.6-.1 1.9 0 3.8 0 5.8.2-1.7 1-3.6 1.6-5.5 2.1a28.72 28.72 0 01-14.6-.5l-.4-.1c-.2-.1-.3-.1-.5-.2-.3-.2-.5-.4-.7-.6-.2-.2-.3-.5-.4-.8 0-.1 0-.3.1-.5.4-.1.5-.1.6-.1z"/>
      <path d="M183.2 411c1.2-.9 2.4-1.5 3.6-2 1.2-.5 2.5-1 3.7-1.4 1.3-.4 2.5-.7 3.9-.9 1.3-.2 2.7-.4 4.1-.3-1 1.1-2.2 1.9-3.4 2.5-1.2.7-2.5 1.2-3.8 1.6-1.3.4-2.6.6-4 .8-1.3.1-2.7.1-4.1-.3z"/>
      <path d="M222.4 439.4c1.2-.4 2.4-.4 3.5-.2 1.2.2 2.3.7 3.3 1.3 1 .6 1.9 1.5 2.5 2.4.7 1 1.2 2.1 1.2 3.3-1.1-.5-2-1.1-2.9-1.6l-2.5-1.6-2.5-1.6c-.8-.6-1.7-1.2-2.6-2z"/>
      <path d="M256 435.8a29.46 29.46 0 008.7.9c1.4-.1 2.7-.3 4.1-.7 1.4-.3 2.8-.8 4.3-1.4a7.9 7.9 0 01-3.4 3.6c-1.5.9-3.1 1.4-4.8 1.5-1.7.1-3.4-.1-5-.8-1.6-.7-3-1.7-3.9-3.1z"/>
      <path d="M355.3 511.1c-1.9.2-2.9 1.5-3.7 2.9-.4.7-.8 1.4-1.1 2.1-.3.8-.7 1.5-.9 2.3-.6 1.6-1.1 3.2-1.6 4.8-.5 1.7-.8 3.4-1.3 5.2-.8-1.7-1-3.6-1-5.5s.4-3.8 1.1-5.6a13.68 13.68 0 013-5c.7-.7 1.6-1.3 2.6-1.6.5-.1 1-.2 1.5-.2.6.2 1 .4 1.4.6z"/>
      <path d="M332.7 551.3c-2.1 4.4-4.4 8.6-6.8 12.8-1.2 2.1-2.4 4.1-3.7 6.2l-3.7 6.1c-1.3 2-2.5 4.1-3.7 6.1-1.3 2-2.4 4.1-3.6 6.2-2.4 4.1-4.6 8.4-6.8 12.7 1-4.7 2.7-9.3 4.7-13.8 1-2.2 2.1-4.4 3.3-6.5l3.6-6.3c2.6-4.1 5.2-8.1 8-12 2.7-3.9 5.6-7.8 8.7-11.5z"/>
      <path d="M319.1 410.1c-.7-.6-1-1.6-1.2-2.5-.1-1 0-2 .4-2.9.7-1.8 1.9-3.4 3.5-4.5 1.5-1.1 3.2-1.7 4.8-2.3 1.6-.5 3.2-1 4.9-1.5-1 1.6-2.5 2.7-3.9 3.6-1.4.9-2.9 1.7-4.1 2.6-1.2.8-2.3 1.9-3.1 3.1-.9 1.2-1.5 2.5-1.3 4.4z"/>
      <path d="M357.6 452c-.9 1-2.2 1.5-3.5 1.7-1.3.2-2.7 0-3.9-.5-1.2-.5-2.4-1.3-3.2-2.3-.8-1-1.4-2.3-1.4-3.6 1.1.8 2 1.3 2.9 1.9.9.5 1.8.9 2.8 1.3.9.4 1.9.7 2.9 1 1 .1 2.1.3 3.4.5z"/>
      <path d="M46.2 335.6c0 2.5-.1 4.9-.1 7.3v7.1l.3 7.1c.1 2.4.3 4.8.4 7.2-1.3-2.1-2.1-4.5-2.8-6.9-.6-2.4-.9-4.9-1-7.4-.1-2.5.2-5 .7-7.4.5-2.4 1.3-4.8 2.5-7z"/>
      <path d="M71.9 436.2c.4 2.1.8 4.1 1.3 6.1.5 1.9 1.2 3.8 1.9 5.6.7 1.8 1.6 3.6 2.6 5.3 1 1.7 2.1 3.4 3.3 5.2-2-.9-3.7-2.2-5.2-3.9-1.5-1.6-2.6-3.5-3.5-5.6-.8-2-1.3-4.2-1.4-6.4-.1-2.1.2-4.3 1-6.3z"/>
      <path d="M81 471.1c1.3.7 2.4 1.3 3.6 2l3.3 1.9 3.3 1.8c1.1.6 2.3 1.2 3.5 2-1.4.5-2.9.5-4.3.2-1.4-.2-2.8-.7-4-1.4-1.3-.7-2.4-1.6-3.3-2.7-1-1.1-1.8-2.3-2.1-3.8z"/>
      <path d="M150.8 399.4c1-.1 1.7-.8 2.2-1.6.5-.8.7-1.7.9-2.6a35.52 35.52 0 00-1-17.1v-.1c-.1-.4-.1-.8.2-1.1 1.2-1.9 1.8-4.2 1.9-6.6.1-1.2 0-2.5-.1-3.7-.1-1.3-.3-2.5-.5-3.8.6 1.1 1.2 2.3 1.6 3.6.5 1.2.8 2.5 1 3.9.2 1.3.2 2.7 0 4.1-.2 1.4-.7 2.8-1.4 4.1l.1-1.2c.7 2 1.3 4.1 1.5 6.2.3 2.1.3 4.2 0 6.3-.3 2.1-.8 4.1-1.6 6.1-.4 1-1 2-1.7 2.8-.4.4-.9.7-1.4.9-.6-.1-1.2 0-1.7-.2z"/>
      <path d="M57.1 416.6c1-1.7 1.9-3.4 2.3-5.1.5-1.7.4-3.5 0-5.4-.4-1.9-.9-3.9-1.2-6-.3-2.1-.3-4.4.4-6.5v.6c-.6-2-.7-4-.6-6 .2-2 .6-4 1.3-5.8.7-1.8 1.6-3.6 2.7-5.2s2.4-3.1 3.9-4.3c-1.2 1.5-2.3 3.1-3.1 4.8a25.75 25.75 0 00-3 10.7c0 1.8.2 3.6.8 5.3.1.2.1.4 0 .6v.1c-.5 1.7-.4 3.6-.1 5.5.4 1.9 1 3.8 1.5 5.8.3 1 .5 2.1.5 3.3 0 1.1-.1 2.3-.3 3.4-.5 2.2-1.5 4.1-2.5 5.9l-2.6-1.7z"/>
      <path d="M409.2 483.8c-.1 2 .7 3.7 1.8 4.9 1.1 1.3 2.6 2.3 4.2 3.5 1.6 1.2 3 2.5 4.5 3.9 1.4 1.4 2.8 2.8 3.9 4.5-1.9-.7-3.7-1.7-5.4-2.7-1.7-1-3.3-2.1-4.9-3.3-1.5-1.2-3.2-2.6-4.3-4.6-.5-1-.8-2.1-.8-3.2s.3-2.3 1-3z"/>
      <path d="M439 583.8c-.4-5.5-.4-11.1-.3-16.6.1-5.5.4-11.1.7-16.6.3-5.5.8-11.1 1.5-16.6.6-5.5 1.4-11 2.5-16.5l2.9.6c-1.2 5.3-2 10.8-2.8 16.2-.8 5.5-1.4 10.9-2 16.4-1.1 11-1.7 22-2.5 33.1z"/>
      <path d="M301 384.3c0 3.5 0 7 .3 10.5s.7 7 1.7 10.2c.5 1.6 1.2 3.1 2.1 4.4.9 1.3 2.1 2.5 3.4 3.6 2.6 2.1 5.6 3.7 8.7 5.3l-1.4 2.7c-3.1-1.7-6.3-3.5-9.1-5.9-1.4-1.2-2.6-2.7-3.6-4.3-1-1.6-1.7-3.4-2.1-5.2-.4-1.8-.7-3.6-.8-5.4-.1-1.8-.2-3.6-.2-5.3-.1-3.6.2-7.2 1-10.6z"/>
      <path d="M76.3 306c1.1.1 2.1.8 2.7 1.9.6 1 .9 2.2.9 3.3.1 1.1 0 2.2-.3 3.3-.2 1.1-.5 2-.9 3-.7 2-1.5 3.9-2.4 5.7-1 1.8-2.1 3.6-3.5 5.1.3-2.1.8-4.1 1.3-6 .5-1.9 1.1-3.9 1.8-5.8s1.3-3.6 1.6-5.5c.4-1.7.5-3.5-1.2-5z"/>
      <path d="M53.1 306c1.1-.2 2.2.5 3 1.3.8.8 1.4 1.7 1.9 2.7.9 2 1.5 4.1 1.7 6.3 0 1.2-.1 2.2-.2 3.3-.2 1.1-.5 2.1-.8 3.1-.7 2-1.6 3.8-2.5 5.7-.3-2.1-.1-4.3.2-6.2l.3-2.9c0-.5.1-1 .1-1.4v-1.4c-.1-1.8-.4-3.8-.9-5.6-.2-.9-.5-1.8-.9-2.7-.4-.9-.9-1.7-1.9-2.2z"/>
      <path d="M118.8 306.1c1.6 2.2 2.8 4.6 3.7 7.1.9 2.5 1.6 5.1 1.9 7.8.4 2.6.5 5.3.3 8s-.7 5.3-1.6 7.8c-.3-2.7-.5-5.2-.8-7.8-.2-2.6-.5-5.1-.9-7.6s-.8-5-1.2-7.6c-.4-2.5-1-5-1.4-7.7z"/>
      <path d="M140.5 316.3c1.1.3 2 .9 2.7 1.6.7.7 1.4 1.5 1.9 2.4.5.9.8 1.8 1 2.8.2 1 .2 2-.1 3.1-.9-.7-1.5-1.5-2-2.2-.6-.8-1-1.5-1.5-2.3-.4-.8-.8-1.6-1.2-2.5-.3-.9-.6-1.8-.8-2.9z"/>
      <path d="M102 349.8c2.6.2 5 1.7 6.9 3.5 1.9 1.9 3.3 4.2 4.2 6.7.9 2.4 1.5 5 1.9 7.4.4 2.5.6 5 .8 7.5-1.4-2.2-2.2-4.6-3-7-.8-2.4-1.5-4.7-2.4-6.9a33 33 0 00-3.2-6.2c-1.4-1.8-3.1-3.6-5.2-5z"/>
      <path d="M126.3 288.4c2 .8 3.8 1.8 5.5 2.9 1.7 1.1 3.4 2.3 5 3.6 1.6 1.3 3.1 2.6 4.6 3.8 1.5 1.2 3.1 2.2 5.2 2.7-2 .8-4.5.3-6.4-.6-2-.9-3.7-2.2-5.3-3.5-1.6-1.3-3.1-2.6-4.6-4.1-1.4-1.5-2.8-3-4-4.8z"/>
      <path d="M96.4 312.8c1.4.9 2.5 2.2 3.3 3.6.8 1.4 1.3 3 1.4 4.7.2 1.6 0 3.3-.4 4.9-.5 1.6-1.2 3.1-2.4 4.2 0-1.6.1-3.1.1-4.5s-.1-2.8-.2-4.2c-.1-1.4-.4-2.8-.7-4.2-.3-1.5-.7-2.9-1.1-4.5z"/>
      <path d="M92.9 298.7c-.2-1.8-.1-3.6-.1-5.3 0-1.7.1-3.4.2-5.1l.3-5.1c.2-1.7.3-3.4.7-5.2.9 1.6 1.4 3.4 1.7 5.1.3 1.8.4 3.6.3 5.3-.1 1.8-.4 3.6-.9 5.3-.5 1.8-1.2 3.5-2.2 5z"/>
      <path d="M110.7 253.2c1.3.3 2.5 1 3.5 1.9 1 .9 1.8 2 2.3 3.2.6 1.2.9 2.5 1 3.8.1 1.3-.1 2.7-.8 3.9-.6-1.2-1.1-2.3-1.5-3.3-.5-1-.9-2-1.4-3-.5-1-.9-2-1.5-3-.5-1.2-1-2.3-1.6-3.5z"/>
      <path d="M131 263.4c1 2.2 2.4 4.3 3.9 6.1 1.6 1.9 3.5 3.6 5.4 5.2 3.9 3.2 8.4 5.9 12.5 9.1-2.4-1-4.7-2.1-7-3.4-2.3-1.3-4.5-2.6-6.7-4.1a42.3 42.3 0 01-6.1-5.1 25.6 25.6 0 01-4.7-6.6l2.7-1.2z"/>
      <path d="M30.1 309.6c-.6-1.8-1-3.6-1.1-5.5-.1-1.9 0-3.8.4-5.7.4-1.9 1.1-3.7 2.2-5.4 1.1-1.6 2.6-3 4.4-3.7-.9 1.7-1.7 3.2-2.3 4.8-.6 1.6-1 3.2-1.4 4.9-.4 1.7-.6 3.4-1 5.2-.2 1.7-.6 3.5-1.2 5.4z"/>
      <path d="M52.9 274.1c-.4 1.6-.6 3.1-.7 4.6-.1 1.5-.1 2.9 0 4.4.1 1.4.4 2.9.8 4.3s1 2.8 1.6 4.4c-1.5-.8-2.6-2.1-3.4-3.6-.8-1.5-1.3-3.1-1.5-4.8-.2-1.7 0-3.4.5-5 .6-1.7 1.5-3.2 2.7-4.3z"/>
      <path d="M14.1 216c.5.3.9.4 1.2.3.3-.1.8-.5 1.2-1.1.8-1.2 1.5-2.7 2.2-4.2.7-1.5 1.4-3 2.3-4.4.9-1.4 2-2.7 3.4-3.5-1.3 1-2.1 2.4-2.8 3.9-.7 1.4-1.1 3-1.6 4.5-.5 1.6-.8 3.1-1.6 4.8-.4.8-.9 1.7-2.1 2.3-.6.3-1.3.4-1.9.4-.6 0-1.1-.2-1.7-.4l1.4-2.6z"/>
      <path d="M11.3 246.7c.5.1.8.1 1.1-.1.3-.2.7-.7 1-1.3.6-1.2 1-2.7 1.4-4.1.4-1.4.8-2.9 1.5-4.3s1.6-2.7 2.9-3.4c-1.2.9-1.8 2.3-2.2 3.7-.4 1.4-.6 2.9-.7 4.3-.2 1.5-.3 3-.7 4.6-.2.8-.6 1.7-1.4 2.5-.8.8-2 1.2-3 1.2l.1-3.1z"/>
      <path d="M3.6 276.1c.4.1.6.1.9.1.3-.1.6-.3.9-.7.6-.8 1.1-1.9 1.5-3.1.4-1.1.8-2.3 1.4-3.5.5-1.1 1.2-2.3 2.2-3-.9.9-1.2 2.1-1.5 3.2-.3 1.2-.4 2.4-.6 3.6-.2 1.2-.4 2.5-1 3.8-.3.7-.8 1.4-1.6 1.9-.8.6-1.9.7-2.7.6l.5-2.9z"/>
      <path d="M69.1 209.7c.1 1.7.1 3.3.3 4.8.2 1.5.3 3 .6 4.6.2 1.5.5 3 .8 4.6.3 1.5.6 3.1.8 4.8l-.4.2a13.9 13.9 0 01-2.8-4.3c-.7-1.5-1.1-3.2-1.3-4.9-.3-1.7-.2-3.4.1-5.1.3-1.7.9-3.3 1.9-4.7z"/>
      <path d="M42.5 233.8c-.4-1.2-.5-2.5-.4-3.7.1-1.2.3-2.3.6-3.4s.6-2.1.9-3.1c.3-1 .6-2 .9-3.3.9.9 1.3 2.2 1.4 3.5.1 1.3 0 2.5-.3 3.6-.3 1.2-.7 2.2-1.2 3.2-.6 1.2-1.2 2.2-1.9 3.2z"/>
      <path d="m 32.8,189 c -0.1,1 -0.3,2 -0.6,3 -0.3,1 -0.6,2 -0.9,3 -0.3,1 -0.6,2 -0.9,4 -0.9,-1 -1.3,-3 -1.4,-4 -0.1,-1 0,-2 0.3,-3 0.3,-2 0.7,-3 1.2,-4 z"/>
      <path d="M57.5 194.5c.7 1 .9 2.1 1 3.2 0 1.1-.2 2.2-.6 3.3-.4 1-1 2-1.8 2.8-.8.8-1.7 1.4-2.9 1.7.3-1.2.6-2.1.9-3 .3-.9.6-1.8 1-2.6.3-.9.7-1.7 1.1-2.6.3-.9.7-1.8 1.3-2.8z"/>
      <path d="M191.5 212.5c1.7.5 3.3 1.4 4.6 2.7 1.3 1.3 2.2 2.9 3 4.4.4.7.8 1.4 1.3 1.9.4.5 1 .8 1.6 1.1.6.3 1.2.4 1.8.4.6 0 1.2-.3 1.8-1l.4.1c.1.5 0 1-.3 1.5s-.7.9-1.3 1.2c-1.1.5-2.3.5-3.3.1s-1.9-1-2.5-1.9c-.7-.8-1-1.7-1.4-2.5-.4-.8-.7-1.6-1-2.3-.4-.7-.7-1.5-1.2-2.1-.9-1.3-2.1-2.5-3.5-3.6z"/>
      <path d="M195.4 198.5c-2.1-.7-4-1.8-5.8-3.1a34.2 34.2 0 01-4.9-4.4c-1.5-1.6-2.8-3.3-4.1-5-1.3-1.7-2.6-3.3-4-4.9l.2-.2c2 1 3.6 2.5 5.1 4.1 1.5 1.5 2.9 3.2 4.3 4.7 1.4 1.6 2.9 3.1 4.4 4.5 1.6 1.5 3.2 2.9 4.8 4.3z"/>
      <path d="M138.7 141.1c.8-1 2-1.7 3.3-1.9 1.3-.2 2.6-.1 3.8-.1 1.2 0 2.3-.1 3-.5.7-.4 1-1.2 1.3-2.2l2.8 1c-.4.7-.6 1.3-1.2 1.9-.2.3-.6.6-.9.8-.3.3-.7.4-1.1.6-1.6.6-3 .3-4.2 0-1.2-.2-2.4-.5-3.5-.6-1.1 0-2.3.3-3.1 1.1l-.2-.1z"/>
      <path d="M197.6 213.9c1-.2 1.8-.2 2.7 0 .9.2 1.7.5 2.5 1s1.5 1.1 2 2c.5.9.6 2.1 0 2.9-.4-.9-1-1.3-1.5-1.7-.5-.4-1.2-.7-1.8-1.1-.6-.4-1.3-.8-1.9-1.3-.7-.5-1.3-1-2-1.8z"/>
      <path d="M111.2 126.1c-1.9 0-3.6.2-5.2.7-.8.3-1.5.6-2.3 1-.7.4-1.5.9-2.4 1.3-.9.4-1.9.8-3 .9-1.1.1-2.1 0-3-.2-1.9-.4-3.5-1-5.4-1.2 1.8-.9 3.8-.7 5.6-.8.9 0 1.7-.1 2.5-.2s1.5-.4 2.2-.8c.8-.4 1.6-.8 2.5-1.2.9-.4 1.9-.7 2.9-.8 1.9-.1 4 .2 5.6 1.3z"/>
      <path d="M114.9 144.9c-1.1.4-2.1.7-3.1 1.1-.9.4-1.8.8-2.7 1.3-.8.5-1.7 1-2.6 1.6-1 .5-2.1 1.1-3.3 1.1.8-.9 1.4-1.8 2.1-2.6.7-.8 1.6-1.7 2.7-2.3 1.1-.6 2.3-.9 3.5-1 1.1-.1 2.3.2 3.4.8z"/>
      <path d="M96.6 139.9c.9-1.2 1.9-2.2 3.2-3 1.2-.8 2.6-1.4 4.1-1.8 1.4-.4 3-.5 4.5-.3s3 .6 4.1 1.7c-1.5-.1-2.8.1-4.1.3-1.3.2-2.6.5-3.9.8-1.3.3-2.5.7-3.8 1.1-1.4.3-2.7.8-4.1 1.2z"/>
      <path d="M126.1 134.1c.3-.9 1-1.6 1.8-2 .8-.5 1.7-.7 2.5-.8.9-.1 1.7 0 2.5.2s1.6.6 2.3 1.2c-.9.4-1.6.6-2.4.7l-2.2.3-2.1.1-2.4.3z"/>
      <path d="M155.9 183.7c-.4.4-.9.7-1.4 1-.5.2-1 .5-1.5.6-1.1.3-2.2.4-3.3.3a7.2 7.2 0 01-3.2-1.1c-1-.6-1.8-1.4-2.2-2.6l.3-.2c2 .8 3.7 1.2 5.5 1.4l2.8.3c.5 0 1 .1 1.5.1.4 0 .9 0 1.5.2z"/>
      <path d="M131.7 166.2c1-1.2 2.1-2.2 3.4-3.1 1.3-.8 2.8-1.5 4.4-1.8 1.6-.3 3.2-.3 4.7-.2 1.5.2 3 .4 4.5.8 1.5.3 2.9.7 4.3 1.1 1.4.4 2.8.7 4.2 1 2.8.5 5.7 1 8.3-.4l.2.3a8.23 8.23 0 01-4.2 2c-1.6.3-3.1.2-4.6.1-3.1-.3-5.9-1.1-8.8-1.7-1.4-.3-2.8-.7-4.2-.9-1.4-.2-2.8-.3-4.2-.2-2.8.3-5.4 1.5-8 3z"/>
      <path d="M134.5 170.9c1.5-.6 2.9-1.4 4.2-2.3 1.3-.9 2.6-1.8 3.6-2.9l1.5 2a24.72 24.72 0 01-9.3 3.2z"/>
      <path d="M148.5 164.2c.7.2 1.4.3 2 .3.3 0 .6-.1.8-.1.3.2.7.3 1 .5.1.1.3.1.4.2.2.2.4.3.7.5.8.7 2.2 1.9 2.8 3-.1 2.6-1.7 4.9-4.2 6-.8.3-1.6-.3-1.5-1.1.3-2.9-.6-7.1-2-9.3z"/>
      <path d="M170.1 177.5c-1.2.1-2.4.1-3.5-.2-1.2-.3-2.3-.6-3.4-1.1-1.1-.5-2.2-1-3.2-1.7s-2-1.4-2.9-2.3l1.9-1.7c.6.7 1.5 1.5 2.3 2.2.8.7 1.8 1.3 2.7 1.9.9.6 1.9 1.1 3 1.5 1 .5 2 .9 3.1 1.4z"/>
      <path d="M73.5 147c1.9.5 3.7 1.2 5.3 2.1 1.6.9 3.1 2 4.4 3.3l-.2.2c-1.5-.9-3.2-1.6-4.8-2-1.7-.5-3.3-.7-5-.7l.3-2.9z"/>
      <path d="M78.3 176.2c-2.4.8-4.4 2.4-6.4 4-1 .8-1.9 1.7-2.9 2.5s-2 1.7-3.2 2.5l-1.4-2.7c1-.4 2.1-1.1 3.2-1.7 1.1-.6 2.2-1.3 3.3-2 2.3-1.3 4.6-2.5 7.2-2.9l.2.3z"/>
      <path d="M6.2 177c2.5-1.9 5.3-3.2 8.3-4.4a40 40 0 019.2-2.3c3.1-.4 6.4-.3 9.5.2 3.1.4 6.2 1.4 9.1 2.3 1.5.5 2.9.9 4.3 1.1 1.4.2 2.9.3 4.4.3.7 0 1.5 0 2.3-.1l2.3-.2c1.5-.1 2.9-.5 4.3-.9 2.8-.9 5.6-2.2 8.3-3.7 2.7-1.5 5.2-3.2 7.7-5.1l.3.3c-2.2 2.2-4.6 4.2-7.2 6-2.6 1.8-5.3 3.4-8.4 4.5-1.5.6-3.1 1-4.7 1.2l-2.3.3c-.8.1-1.6.1-2.4.2-1.6.1-3.2 0-4.9-.3-1.6-.3-3.2-.7-4.7-1.2-5.8-2-11.7-3.5-17.7-3.1-3 .2-6 .7-9 1.6-3 .9-5.9 1.9-8.7 3.3z"/>
      <path d="M136.5 144.2c-.5 1.1-1.1 2.1-1.9 2.9-.8.8-1.8 1.5-3 1.9-1.2.4-2.5.5-3.7.2-1.2-.3-2.4-1.1-2.8-2.3 1.2.2 2.1.1 3 0 .9-.2 1.7-.4 2.6-.7.9-.3 1.7-.6 2.7-1 .9-.5 1.9-.9 3.1-1z"/>
      <path d="M122.1 152.3c-.7 1.6-1.5 3.1-2.7 4.4-1.1 1.3-2.6 2.5-4.3 3.3-1.7.8-3.8.9-5.6.5-1.8-.4-3.4-1.3-4.6-2.6 1.8.1 3.4.3 4.9.2 1.5-.1 2.9-.4 4.2-.9 1.3-.6 2.6-1.4 3.9-2.3 1.3-.8 2.7-1.8 4.2-2.6z"/>
      <path d="M104.9 166.5c.8 1 1.1 2.3 1 3.6-.1 1.3-.5 2.5-1.2 3.5s-1.6 1.9-2.7 2.5c-1.1.6-2.4.9-3.6.7.8-.9 1.5-1.7 2.1-2.5.6-.8 1.2-1.5 1.7-2.3.5-.8 1-1.6 1.5-2.5.4-.9.8-1.8 1.2-3z"/>
      <path d="M97.9 184c1.3.7 2.3 2.1 2.8 3.6s.5 3.2.1 4.7-1.2 3-2.4 4c-1.2 1.1-2.4 1.5-3.6 2.4 0-.8.4-1.5.8-2.1.4-.6.7-1.2 1-1.7a15.07 15.07 0 001.3-10.9z"/>
      <path d="M81.2 234.7c2 1.1 3.7 2.4 5.4 3.9 1.6 1.5 3 3.3 4.1 5.4 1 2.1 1.6 4.5 1.4 6.8-.1 2.3-1 4.7-2.7 6.2.6-2.2.7-4.2.4-6.1-.3-1.9-.9-3.8-1.8-5.6-.9-1.8-2-3.5-3.2-5.2-1.2-1.7-2.5-3.4-3.6-5.4z"/>
      <path d="M101.4 260.4c1.8 1.5 3.2 3.3 4.5 5.2 1.3 1.9 2.3 4 3.1 6.2.8 2.1 1.4 4.5 1.3 7 0 1.2-.3 2.5-.8 3.6a6.3 6.3 0 01-2.4 2.7c1.2-2 1.2-4.1.9-6.1-.3-2.1-1-4-1.7-6.1-.7-2-1.5-4.1-2.3-6.1-1-2.2-1.8-4.2-2.6-6.4z"/>
      <path d="M72.8 262.5c-.2.4-.1.8.1 1.2.2.4.4.7.7 1l1.7 2.2c1.1 1.5 2.2 3 3 4.8a13 13 0 011.2 5.9c-.1 2-.9 4.2-2.5 5.3.5-1.9.5-3.6.2-5.2-.3-1.7-.9-3.2-1.6-4.8-.7-1.6-1.6-3.2-2.3-4.9-.4-.9-.7-1.8-1-2.7-.1-.4-.3-1-.2-1.5 0-.3.1-.6.2-.8.1-.2.3-.4.5-.5z"/>
      <path d="M58.1 234.8c.8 1.7 1.2 3.3 1.8 4.8.6 1.5 1.3 2.8 2.2 3.9.9 1.1 2.3 2.1 3.6 3.4.6.6 1.3 1.4 1.7 2.2.4.9.7 1.9.5 2.8-.9-1.6-2.2-2.3-3.7-3.2-1.4-.8-3-1.7-4.4-3.2-1.3-1.5-2-3.5-2.2-5.3-.2-1.8 0-3.6.5-5.4z"/>
      <path d="M88.4 137.3c-1.3.1-2.5.1-3.6.1l-3.4-.1-3.4-.1c-1.2-.1-2.3-.1-3.6-.3 1-.8 2.2-1.3 3.4-1.6 1.2-.3 2.5-.5 3.7-.4 1.3 0 2.5.3 3.7.7 1.1.2 2.3.8 3.2 1.7z"/>
      <path d="M79.3 128.3c-1.5.4-2.9.9-4.2 1.5-1.3.6-2.4 1.3-3.4 2.2-.5.4-1 .9-1.5 1.4-.5.5-1 1.1-1.6 1.6-.6.5-1.3 1.1-2 1.4-.8.4-1.7.5-2.5.3 1.5-.7 2.2-1.8 3-3 .4-.6.8-1.2 1.3-1.9.5-.6 1.1-1.3 1.7-1.8 1.3-1.1 2.8-1.8 4.4-2.2 1.6-.2 3.3-.1 4.8.5z"/>
      <path d="M37.1 208.5c-.8 1.4-1.5 2.7-2 4-.5 1.3-.9 2.6-1.2 3.9-.3 1.3-.5 2.7-.5 4.1-.1 1.4 0 2.8.2 4.5-1.3-1-2.1-2.6-2.5-4.2-.4-1.6-.4-3.4-.1-5 .4-1.6 1.1-3.2 2.1-4.5 1-1.3 2.4-2.4 4-2.8z"/>
      <path d="M29.7 243.9c.1 1.1 0 2.1-.1 3.1-.1.9-.3 1.8-.5 2.7-.2.9-.5 1.7-.8 2.6-.3.9-.7 1.8-1.4 2.7-.6-1-.9-2-1-3-.1-1 0-2.1.3-3.1s.7-1.9 1.2-2.8c.5-.9 1.3-1.7 2.3-2.2z"/>
      <path d="M30.9 263.2c-.7 1.8-1.4 3.5-2 5.3-.6 1.7-1.1 3.4-1.5 5.1-.4 1.7-.8 3.5-1 5.3-.3 1.8-.4 3.6-.6 5.6-1-1.7-1.5-3.7-1.7-5.6-.2-2 0-4 .4-5.9.5-1.9 1.3-3.8 2.3-5.5 1.1-1.7 2.4-3.2 4.1-4.3z"/>
      <path d="M49 244c-.6.6-.8 1.4-1.1 2.1-.2.8-.5 1.5-.6 2.3-.4 1.6-.7 3-.8 4.6-.2 1.6-.5 3.3-1 4.8-.5 1.6-1.2 3.1-2.2 4.5-.2-1.7-.1-3.3.1-5 .2-1.6.4-3.2.7-4.8.3-1.7.9-3.3 1.6-4.8.4-.7.8-1.5 1.4-2.2.5-.6 1.1-1.3 1.9-1.5z"/>
      <path d="M100 224.4c-.1 3.2.6 6.3 2.1 8.9 1.5 2.6 3.7 4.8 6.3 6.6 2.5 1.7 5.3 3.1 8.2 4.2 2.9 1.1 5.9 2 8.9 2.6l-.7 2.9c-3.1-.8-6.3-1.8-9.3-3.1-3-1.3-5.9-2.9-8.4-5-2.6-2-4.9-4.6-6.3-7.6-1.3-2.9-1.7-6.4-.8-9.5z"/>
      <path d="M199.2 242.7c-2.1.2-4.3.2-6.4-.5-2.1-.7-3.8-1.8-5.5-2.8-1.6-1.1-3.3-2.1-4.9-3.1-1.7-1-3.4-1.9-5.1-2.9 2 .3 3.9.9 5.7 1.6 1.8.8 3.6 1.7 5.4 2.5a22 22 0 005.1 2.1c.9.2 1.7.3 2.6.3l1.3-.1 1.3-.1.5 3z"/>
      <path d="M90 198.9c-.1 1.2-.6 2.3-1.4 3.1-.7.9-1.7 1.6-2.6 2.1-1 .5-2 .8-3.1 1-1.1.1-2.2.2-3.3-.1.8-.9 1.7-1.5 2.5-2.1.9-.6 1.7-1 2.5-1.4.8-.4 1.7-.8 2.5-1.2l2.9-1.4z"/>
      <path d="M136.7 206.1c1.2-.2 2.3-.1 3.4.3s2.1.9 3 1.6c.9.7 1.6 1.6 2.2 2.6.6 1 .9 2.1.9 3.3-1.1-.6-1.9-1.2-2.7-1.8-.8-.6-1.6-1.2-2.3-1.8-.7-.6-1.5-1.2-2.2-1.9-.7-.7-1.5-1.4-2.3-2.3z"/>
      <path d="M145.8 217.9c.8.5 1.4 1.2 1.9 1.9a7.71 7.71 0 011.1 5.2c-.1.9-.4 1.8-.9 2.5-.3-.9-.5-1.7-.6-2.5l-.5-2.3-.5-2.3c-.2-.8-.4-1.6-.5-2.5z"/>
      <path d="M-8.4 393.2c1-1.4 1.6-3.3 2-5.2.4-1.9.6-3.9.8-6 .5-4.1 1-8.2 2.7-12l.3.1C-3.9 374-4 378-4 382.1c0 2 0 4.1-.2 6.2-.2 2.1-.6 4.3-1.7 6.4l-2.5-1.5z"/>
      <path d="M9.5 429.2c-.4-2-.4-4-.2-5.9.2-1.9.7-3.7 1.2-5.5.5-1.8 1-3.5 1.4-5.3.4-1.7.5-3.6.2-5.3l.3-.1c.6 1.8.7 3.7.5 5.5-.2 1.9-.5 3.7-.8 5.5-.3 1.8-.5 3.6-.5 5.3 0 1.7.2 3.4.7 5l-2.8.8z"/>
      <path d="M-19.1 353c1.4-1 2.7-2.1 3.8-3.4 1.1-1.3 1.9-2.9 2.4-4.5.5-1.7.8-3.5 1.1-5.3.3-1.8.7-3.7 1.5-5.4l.3.1c-.6 1.7-.7 3.6-.8 5.4-.1 1.8-.1 3.7-.5 5.6-.3 1.9-1 3.8-2.1 5.5a23.8 23.8 0 01-3.9 4.5l-1.8-2.5z"/>
      <path d="M-11.1 314.8c1.1-.8 2.2-1.8 3.1-3 1-1.1 1.8-2.4 2.8-3.7 1-1.3 2-2.5 3.3-3.5 1.2-1 2.6-1.8 4.1-2.4l.1.3c-1.3.8-2.5 1.8-3.5 2.9-1 1.1-1.8 2.4-2.6 3.7-.8 1.3-1.4 2.7-2.3 4.1-.8 1.4-1.9 2.7-3.1 3.9l-1.9-2.3z"/>
      <path d="M12.1 380.3c1.6-1.5 3-3 4.2-4.6 1.3-1.6 2.4-3.2 3.3-4.9 1-1.7 1.8-3.5 2.5-5.4.7-1.9 1.3-3.9 1.8-6 .7 2.1.8 4.4.5 6.6-.3 2.2-1.1 4.4-2.2 6.3-1.1 1.9-2.6 3.7-4.3 5.1-1.7 1.4-3.7 2.5-5.8 2.9z"/>
      <path d="M19.2 303.7c-1.6 1.5-3.1 2.9-4.5 4.4a42.9 42.9 0 00-3.6 4.8c-1.1 1.7-2 3.4-2.8 5.3-.8 1.8-1.5 3.8-2.1 5.9-.6-2.1-.6-4.4-.2-6.6.4-2.2 1.3-4.3 2.5-6.2 1.2-1.9 2.8-3.6 4.5-4.9 2-1.4 4-2.4 6.2-2.7z"/>
      <path d="M18.1 332c-1.1 1.9-2.2 3.6-3 5.5-.8 1.8-1.5 3.7-2.1 5.6-.5 1.9-.9 3.8-1.1 5.8-.2 2-.3 4-.3 6.2-1.2-1.9-1.8-4-2-6.3a18.56 18.56 0 013.5-12.6c1.3-1.7 3-3.3 5-4.2z"/>
      <path d="M35.2 387.7c-.5 2.1-1 4.1-1.3 6.1-.3 2-.6 3.9-.7 5.9-.1 2-.1 3.9 0 5.9.1 2 .3 4 .5 6.2-1.4-1.7-2.3-3.7-2.9-5.8-.6-2.1-.8-4.3-.6-6.5.1-2.2.6-4.3 1.4-6.4.9-2.1 2-3.9 3.6-5.4z"/>
    </g>
  </g>
</svg>