<svg xmlns="http://www.w3.org/2000/svg" fill="#d7374a" stroke="#000" viewBox="50 50 200 200">
  <metadata source="http://wappenwiki.org/images/5/5c/Angel_Charge.svg" license="https://creativecommons.org/licenses/by-nc-sa/3.0"/>
  <g id="angel" stroke-width=".28">
    <path d="M67.49 104.26s.88 4.25 2.63 9.8c1.75 5.57 4.68 10.81 5.46 10.47.7.24 1.46-1.03 1.07-1.94.73-.95-2-9.75-2.74-9.62.13-.87-1.88-8-1.92-8 .5 2.5 1.77 5.33 2.6 7.71 1.05 3.07 1.68 5.39 2.26 5.23.64.07 1.6-1.33 1.28-2.27.84-.88.48-7.44-.94-8.7.16-1.6-2.97-9.46-2.98-9.8.05.05 2.48 6.86 3.46 6.42.7.01 1.73-1.33 1.23-2.99.7-.52.08-4.17-.57-4.66.08-.88-2.03-5.67-1.87-5.27.7 1.83 2.08 5.11 2.78 4.79.68.17 1.57-1.39 1.23-2.32.45-1.2-.87-2.81-.93-4.96a42.9 42.9 0 01.4-5.96c.24-1.98.25-4.07-.69-5.83-.94-1.75-3.1-3.02-5.02-2.4a5.2 5.2 0 00-2.71 2.46c-.57.97-1 2.02-1.24 3.1-.38 1.66-.35 3.37-.38 5.07-.08 4.78-.66 9.55-1.23 14.3"/>
    <path d="M69.75 110.17c.47 0 .89-.62.86-1.1.25-.53.25-1.03.25-1.71.12.04.27.13.39.16a.6.6 0 00.57-.14c.44-.44.5-1.13.36-1.73.12-.15.15-.33.18-.52.08-.46.09-.91.03-1.37a.9.9 0 00.4-.1c.59-.24.96-.93.79-1.71.47-.39.5-1.42.54-2.02a4.1 4.1 0 00-.3-1.73c.12.04.34.06.46 0a.89.89 0 00.31-.26c.31-.36.5-1 .62-1.44a3 3 0 00-.06-1.73c.18-.78.14-1.83-.13-2.59a1 1 0 00.73 0c.45-.17.79-.52.95-1.05.21-.7.33-1.73-.06-2.36 0 0 .12-.75.07-1.83-.03-.67-.27-1.59-.35-1.9L77.37 81v-2.99l-6.5-1.05-1.1 6.04-.25 7.54-.58 6.22-.6 4.47v5l.56 2.54.28 1.38"/>
    <path fill="none" d="M75.02 92.2a7.27 7.27 0 00-.9-3.18c-.27-1.36-.6-2.5-.97-3.38"/>
    <path fill="none" d="M73.82 98.2c.33-1.87-.72-4.29-.72-4.29s-.08-2.21-.69-3.15"/>
    <path fill="none" d="M72.38 103.65a7.87 7.87 0 00-.38-1.72c.19-.65-.09-1.36-.26-2.02a7.78 7.78 0 00-.81-1.9"/>
    <path fill="none" d="M70.86 107.36s-.07-1.3-.32-1.9l-.03-.7a6.25 6.25 0 00-.64-2.54"/>
    <path d="M97.2 95.94c-.68 2.04-2.37 2.7-2.37 2.7s-1.7-.66-2.38-2.7c-.63 1.2-2.43 1.79-2.43 1.79s-1.71-1.6-2.23-3.26c-.38.45-1.15 1.25-1.74 1.4a5.44 5.44 0 01-2.21-2.52c-.33.25-.69.48-1.07.66-.34-.02-.58-.3-.76-.58-.52-.78-1.2-2.27-1.4-3.18l-.97.45a5.55 5.55 0 01-1.6-2.69c-.34-1.44-.28-2.42-.33-3.46a2.3 2.3 0 01-1.35.7 4.94 4.94 0 01-.76-2.05 16.3 16.3 0 01.14-4.38s-.96.37-1.27-.14a8.8 8.8 0 01-.92 5.43c-.41.1-.82-.24-1.1-.55a9.9 9.9 0 01.93 3.9 12.8 12.8 0 01-.64 4.13c-.27.04-1.01-.32-1.28-.54.4 1.75.72 4.08-.3 5.6-.17 0-.54-.5-.65-.61.36 1.03.44 2.22.42 3.45a4.4 4.4 0 01-.51 1.8c-.28 0-.58-.2-.83-.44a6.48 6.48 0 01-.62 5.06l.75 4.38-.05-.2c.3 1.22.6 3.16.46 4.4-.43-.6-.57-1.52-.88-2.22-.63-1.4-.9-3.1-1.25-4.6-.51-2.18-.9-4.38-1.19-6.6-.56-4.39-.9-9.58-.71-14.19.38-9.03 2.88-15.76 3.78-17.5a27.7 27.7 0 014.85-7.08c1.6-1.63 3.6-3.23 5.96-3.15 2.62.07 3.65 1.5 4.28 3.66.51 1.77.54 3.79.38 5.61-.13 1.45-.71 3-.52 4.44a4.43 4.43 0 001.8 3.07c1.25.85 3.03.11 4.88.42 1.3.22 1.47.8 2.42 1.27 1.02.52 1.34.53 2.98.53"/>
    <path fill="none" d="M89.12 80.88c-.04.14-.26.17-.4.22a1 1 0 01-.44.04c-.4-.05-.8-.23-1.1-.5-.3-.27-.57-.57-.8-.9a4.98 4.98 0 01-1.64-.85c-.46-.41-.8-.99-.75-1.58-.23 0-.4-.18-.53-.36a2.2 2.2 0 01-.4-1.58c-.4-.33-.57-1.42-.58-1.93"/>
    <path fill="none" d="M68.97 105.93c-.46-2.25-.64-5.97-.72-8.45-.13-3.9 0-6.98.49-11.23a55.12 55.12 0 013.89-14.16"/>
    <path d="M132.4 104.26s-.9 4.25-2.64 9.8c-1.75 5.57-4.68 10.81-5.46 10.47-.7.24-1.46-1.03-1.07-1.94-.73-.95 2-9.75 2.74-9.62-.13-.87 1.88-8 1.92-8-.5 2.5-1.77 5.33-2.6 7.71-1.05 3.07-1.68 5.39-2.26 5.23-.64.07-1.6-1.33-1.28-2.27-.84-.88-.48-7.44.94-8.7-.16-1.6 2.97-9.46 2.98-9.8-.05.05-2.48 6.86-3.46 6.42-.7.01-1.73-1.33-1.23-2.99-.7-.52-.08-4.17.56-4.66-.07-.88 2.03-5.67 1.87-5.27-.69 1.83-2.07 5.11-2.77 4.79-.68.17-1.58-1.39-1.23-2.32-.45-1.2.87-2.81.93-4.96a42.9 42.9 0 00-.41-5.96c-.23-1.98-.25-4.07.7-5.83.94-1.75 3.1-3.02 5.02-2.4a5.2 5.2 0 012.71 2.46c.57.97 1 2.02 1.24 3.1.38 1.66.34 3.37.38 5.07.08 4.78.66 9.55 1.23 14.3"/>
    <path d="M130.13 110.17c-.47 0-.9-.62-.86-1.1-.26-.53-.26-1.03-.26-1.71-.11.04-.26.13-.38.16-.24.05-.42 0-.57-.14-.45-.44-.51-1.13-.36-1.73a1.05 1.05 0 01-.18-.52 4.97 4.97 0 01-.03-1.37.9.9 0 01-.41-.1c-.58-.24-.95-.93-.78-1.71-.47-.39-.5-1.42-.55-2.02-.04-.59.11-1.18.31-1.73a.75.75 0 01-.47 0 .9.9 0 01-.3-.26c-.32-.36-.5-1-.63-1.44a2.99 2.99 0 01.07-1.73 5.06 5.06 0 01.13-2.59.98.98 0 01-.73 0 1.55 1.55 0 01-.95-1.05c-.21-.7-.33-1.73.06-2.36 0 0-.12-.75-.07-1.83.03-.67.27-1.59.35-1.9L122.51 81v-2.99l6.5-1.05 1.1 6.04.25 7.54.58 6.22.6 4.47v5l-.56 2.54-.28 1.38"/>
    <path fill="none" d="M124.86 92.2c.05-.88.33-2.35.9-3.18.27-1.36.6-2.5.97-3.38"/>
    <path fill="none" d="M126.05 98.2c-.32-1.87.73-4.29.73-4.29s.08-2.21.68-3.15"/>
    <path fill="none" d="M127.5 103.65c.06-.59.19-1.17.38-1.72-.2-.65.09-1.36.26-2.02.17-.66.47-1.3.81-1.9"/>
    <path fill="none" d="M129.01 107.36s.08-1.3.33-1.9l.03-.7a6.25 6.25 0 01.64-2.54"/>
    <path d="M102.68 95.94a4.44 4.44 0 002.37 2.7s1.7-.66 2.38-2.7c.63 1.2 2.43 1.79 2.43 1.79s1.71-1.6 2.23-3.26c.38.45 1.15 1.25 1.74 1.4a5.44 5.44 0 002.21-2.52c.33.25.68.48 1.07.66.34-.02.58-.3.76-.58.52-.78 1.2-2.27 1.4-3.18l.97.45a5.55 5.55 0 001.6-2.69c.33-1.44.28-2.42.32-3.46.36.34.85.67 1.36.7.3-.39.67-1.32.76-2.05.16-1.4.07-3.38-.14-4.38 0 0 .96.37 1.27-.14a8.8 8.8 0 00.92 5.43c.4.1.81-.24 1.1-.55a9.9 9.9 0 00-.93 3.9c.02 1.25.17 3.05.63 4.13.28.04 1.02-.32 1.29-.54-.4 1.75-.72 4.08.3 5.6.17 0 .54-.5.65-.61a9.98 9.98 0 00-.42 3.45c.01.62.27 1.35.51 1.8.28 0 .58-.2.83-.44a6.48 6.48 0 00.62 5.06l-.75 4.38.05-.2c-.3 1.22-.6 3.16-.46 4.4.43-.6.57-1.52.88-2.22.63-1.4.9-3.1 1.25-4.6.51-2.18.9-4.38 1.19-6.6.56-4.39.9-9.58.71-14.19-.38-9.03-2.88-15.76-3.78-17.5a27.7 27.7 0 00-4.85-7.08c-1.6-1.63-3.6-3.23-5.96-3.15-2.63.07-3.65 1.5-4.28 3.66a15.72 15.72 0 00-.38 5.61c.13 1.45.7 3 .52 4.44a4.43 4.43 0 01-1.8 3.07c-1.25.85-3.03.11-4.88.42-1.3.22-1.47.8-2.42 1.27-1.02.52-1.35.53-2.98.53"/>
    <path fill="none" d="M110.6 80.83c.03.14.43.21.56.27a1 1 0 00.43.04c.42-.04.8-.24 1.12-.5.3-.26.55-.58.8-.9.58-.2 1.17-.46 1.63-.85.46-.4.8-.99.75-1.58.22 0 .4-.18.52-.36a2.2 2.2 0 00.4-1.58c.42-.33.58-1.42.59-1.93"/>
    <path fill="none" d="M130.9 105.93c.47-2.25.65-5.97.73-8.45a71.1 71.1 0 00-.49-11.23 55.12 55.12 0 00-3.89-14.16"/>
    <path fill="#f2bc50" d="M99.83 60.25a8.25 8.25 0 110 16.5 8.25 8.25 0 010-16.5z"/>
    <path fill="#f2bc51" d="M99.97 72.88h1.18c-.04.34-.03.83.1 1.36.16.56.42 2.7.8 3.16.6.73 1.08.64 1.68 1.08.27.63.87-.56 1.14-.16.51.77 1.42.75 2.03.64-.37-.57.66-.9.81-2.75.15-1.83-.88-3.25-.88-3.25a2.75 2.75 0 01-.4-1.76 5.96 5.96 0 00-.51-3.23c-.52-.92-1.1-1.6-1.38-1.95-.12-1.46-1.41-2.7-2.7-3.15-.98-.36-2.03-.08-2.03-.08h0s-1.06-.27-2.05.08c-1.28.45-2.57 1.7-2.69 3.15-.28.35-.84 1.03-1.38 1.95-.53.94-.52 2.17-.46 3.23a2.7 2.7 0 01-.4 1.76s-1.03 1.42-.88 3.25c.15 1.84 1.19 2.18.81 2.75.65.09 1.67.09 2.03-.64.22-.43.83.78 1.1.16.86-.64.87-.14 1.67-1.08.39-.46.64-2.6.8-3.16.13-.52.15-1 .1-1.36h1.19"/>
    <path d="M108.7 136.59c1.14 1.04 2.03 2.9 1.74 3.94-.92.47-2.28-.14-3.09-.66-.9-.59-1.38-1.62-2.29-2.2"/>
    <path d="M91.15 136.18c-.98 1.2-1.6 3.15-1.18 4.16.99.33 2.24-.46 2.97-1.1.83-.7 1.15-1.78 1.96-2.48"/>
    <path d="M114.02 134.05a4.2 4.2 0 00-1.43-2.53c-.9-1.28-2.72-5.4-3.2-8.22-1.08-6.3-.33-11.1-1.3-17.4-.7-4.53-1.99-8.78-1.99-11.84l-6.91-1.39-5.5 1.4c0 3.05-1.3 7.3-2 11.82-.97 6.32-.22 11.13-1.3 17.41a28.3 28.3 0 01-3.2 8.22 4.21 4.21 0 00-1.43 2.53c-.1.85.18 1.5.89 1.96.8.51 2.02 1.44 3.07 1.32.53-.07 1-.66 2.07-.44 1.45.3 2.08 1.32 2.96 1.8 1.57.83 3.76.95 5.15.93 1.4.03 3.58-.1 5.15-.94.88-.46 1.5-1.48 2.96-1.8 1.07-.22 1.54.37 2.08.45 1.04.12 2.26-.8 3.06-1.32a1.9 1.9 0 00.87-1.96z"/>
    <path d="M99.83 75.2c-.46 0-2.04 1.52-3.15 2.07-.49.25-1.16.4-2.05.46-.71-.15-1.07.15-1.65.15-2.77.15-4.02 3.02-4.2 3.94-.17.92-1.8 4.5-2.06 6.1a36.3 36.3 0 01-1.29 4.57s-.95 2.07-.94 3.14c.01 1.1.33 2.73.33 2.73s-.07 2.49.14 4.05c.13.9.59 1.25.59 1.25l.42 1.76s1.32.07 3.55-2.43c2.24-2.5 1.8-4.07 1.8-4.07s-.9-.95-1.49-2.72c-.35-1.07-.26-3.32-.26-3.32s.85-1.14 1.72-2.95c.71-1.51 1.2-3.82 1.2-3.82 0 3.19 1.1 3.22 1.1 8.03l5.86 1.53 6.7-1.53c0-5.34 1.1-4.83 1.1-8.03 0 0 .49 2.3 1.2 3.82a18.73 18.73 0 001.72 2.95s.09 2.25-.26 3.32c-.6 1.77-1.49 2.72-1.49 2.72s-.44 1.58 1.8 4.07c2.23 2.49 3.55 2.43 3.55 2.43l.42-1.76s.46-.35.59-1.25c.21-1.56.14-4.05.14-4.05s.32-1.64.33-2.73c.01-1.07-.94-3.14-.94-3.14s-1.03-2.95-1.3-4.56c-.25-1.62-1.88-5.18-2.05-6.1-.17-.92-1.43-3.79-4.2-3.95-.42-.04-.85-.28-1.5-.04-.58-.24-1.75-.33-2.2-.57-1.1-.55-2.69-2.06-3.15-2.06"/>
    <path d="M85.38 103.55c-.15 1.9.59 1.87.59 1.87s.05-2.8 2.2-4.83c2.15-2 3.15-1.67 3.15-1.67s.16-.47-.7-.99c-.63.03-1.84.54-3.2 1.85-1.6 1.52-1.87 3.08-2.04 3.77z"/>
    <path fill="none" d="M99.88 136.81a7.35 7.35 0 004.08-.9c.84-.54 1.5-1.5 2.96-1.8 1.07-.23 1.54.36 2.08.44 1.04.12 1.13-.38 1.93-.9.4-.25.85-.47 1.34-.44.37.02.44.15.48-.3.04-.43-.16-1.4-.16-1.4"/>
    <path fill="none" d="M99.88 136.81a7.35 7.35 0 01-4.08-.9c-.84-.54-1.5-1.5-2.96-1.8-1.07-.23-1.54.36-2.08.44-1.04.12-1.13-.38-1.93-.9-.4-.25-.84-.47-1.34-.44-.37.02-.43.15-.48-.3-.04-.43.16-1.4.16-1.4"/>
    <path d="M106.24 92.97c.2 0-.05.8-.05 1.26 0 .53.23 1.18.15 1.2-.09.03-1.58.53-6.46.53s-6.37-.5-6.45-.53c-.09-.03.14-.67.14-1.2 0-.47-.25-1.26-.05-1.26s2.63.42 6.37.42 6.15-.42 6.35-.42z"/>
    <path d="M114.36 103.55c.15 1.9-.59 1.87-.59 1.87s-.05-2.8-2.2-4.83c-2.15-2-3.15-1.67-3.15-1.67s-.16-.47.7-.99c.63.03 1.84.54 3.2 1.85 1.6 1.52 1.87 3.08 2.04 3.77z"/>
    <path fill="#eabfa2" d="M111.46 103.57c.06-.3.57-1.13 1.02-1.92a8.19 8.19 0 00-2.93-2.51c-.06.48-.11.97-.22 1.38-.2.8-.63 1.87-.89 2.1-.1.08-.7.47-.9.64-.1.11-.25.45-.46.68-.2.22-.28.46-.46.9-.17.47-.27.49-.33.66-.06.17-.1.43-.1.56l-.11.2c-.23.36-.42.48-.37.58.05.07.1.12.17.15.26.14.63 0 .71-.1l.1-.13s.02.54.33.66.44.1.6.08c.18.08.3.3.55.35.26.06.44.02.58-.04.14.05.26.18.55.23.28.05.5-.05.62-.13.16.01.7.14 1.1-.5a.4.4 0 00.2-.27c.03-.11.04-.27.06-.34.12-.33.3-.64.39-1.31.13-.82-.39-1.11-.21-1.92z"/>
    <path fill="#eabfa2" d="M88.42 103.57c-.06-.3-.57-1.13-1.02-1.92a8.19 8.19 0 012.93-2.51c.06.48.11.97.22 1.38.2.8.63 1.87.89 2.1.1.08.7.47.9.64.1.11.25.45.45.68.2.22.3.46.46.9.18.47.28.49.34.66.06.17.1.43.1.56.03.08.08.13.1.2.23.36.43.48.38.58a.56.56 0 01-.17.15c-.26.14-.63 0-.71-.1l-.1-.13s-.02.54-.33.66-.44.1-.6.08c-.18.08-.31.3-.56.35a.83.83 0 01-.57-.04c-.14.05-.26.18-.55.23a.84.84 0 01-.62-.13c-.16.01-.7.14-1.1-.5a.4.4 0 01-.2-.27c-.03-.11-.04-.27-.07-.34-.11-.33-.28-.64-.38-1.31-.13-.82.38-1.11.21-1.92z"/>
    <path fill="#eabfa2" d="M99.87 78.55c2.71 0 3.2-1.27 3.2-1.27-.77-.66-1.1-.26-1.07-3.63h-4.27c.05 3.34-.28 2.96-1.06 3.63 0 0 .47 1.27 3.2 1.27z"/>
    <path fill="#eabfa2" d="M96.05 69.57c.02-.44.03-1 .2-1.13.21-.17.29-.5.53-1.12.23-.55.8-.7 1.07-.79.47-.13.75-.24 1.18-.58.4-.32.4-.57.83-1.09.4.62.6.82.94 1.08.43.35.43.27 1.07.6.25.14.84.24 1.07.8.24.6.3.94.53 1.11.17.13.18.7.2 1.13 0 .44-.18 1.58-.28 1.95-.24.83-.24 1.22-.66 1.97-.33.6-1.82 2.14-2.86 2.14-1.04 0-2.53-1.54-2.86-2.14-.42-.75-.43-1.15-.66-1.97a9.2 9.2 0 01-.3-1.96z"/>
    <path fill="#f1bb51" stroke-width=".1" d="M96.51 68.75c.11-.24.32-.46.56-.6.25-.13.52-.2.81-.22.3-.01.56.07.81.15.26.1.49.21.72.34-.27 0-.53-.04-.8-.08-.25-.05-.5-.08-.73-.08a2.28 2.28 0 00-1.37.5z"/>
    <path fill="#f6f6f6" stroke-width=".1" d="M99.12 69.51a1.11 1.11 0 00-1.03-.65c-.48.02-.73.2-.9.33a.86.86 0 00-.2.27l.3.2c.22.1.39.15.7.18.29.03.49 0 .7-.1.05-.01.24-.11.3-.14l.13-.09z"/>
    <path fill="#0d6793" stroke-width=".1" d="M97.61 68.94s0 0 0 0l-.02.2c0 .26.22.47.48.47.27 0 .49-.21.49-.47 0-.03 0-.1-.02-.16v-.03c-.13-.06-.28-.1-.45-.1-.2.01-.35.04-.48.09z"/>
    <path fill="#f1bb51" stroke-width=".1" d="M103.26 68.75c-.1-.24-.32-.46-.56-.6a1.78 1.78 0 00-.81-.22c-.29-.01-.56.07-.81.15-.26.1-.48.21-.72.34.27 0 .54-.04.8-.08.25-.05.5-.08.73-.08a2.28 2.28 0 011.37.5z"/>
    <path fill="#f6f6f6" stroke-width=".1" d="M100.66 69.51c.02-.05.29-.64 1.04-.65.47.02.72.2.88.33.18.16.22.27.22.27l-.3.2c-.23.1-.4.15-.7.18-.3.03-.5 0-.71-.1l-.29-.14z"/>
    <path fill="#0d6793" stroke-width=".1" d="M102.17 68.94s0 0 0 0l.02.2c0 .26-.21.47-.48.47a.48.48 0 01-.48-.47v-.16l.02-.03c.13-.06.28-.1.45-.1.18.01.34.04.47.09z"/>
    <g fill="#000" stroke="none">
      <path d="M74.47 120.24a142.5 142.5 0 01-3.85-11.1l.13-.3c1.07 4 2.54 7.65 3.77 11.39z"/>
      <path d="M76.37 111.58c-.8-2.97-1.98-5.77-2.89-8.84l.15-.25c.75 3.06 2.23 6.2 2.79 9.1z"/>
      <path d="M77.43 99.73c-.9-2.11-1.52-4.34-2.27-6.61l.2-.07c.7 2.19 1.4 4.61 2.1 6.66z"/>
      <path d="M79.17 93.25c-.9-2.8-1.79-5.08-2.83-7.9l.2-.07c.95 2.7 2.03 5.4 2.67 7.96z"/>
      <path d="M74.26 95.01c-.3-1.82-.71-3.47-1.13-5.2l.07-.31c.55 1.83.99 3.72 1.11 5.5z"/>
      <path d="M72.8 99.62c-.4-1.58-.72-2.8-1.17-4.35l.16-.21c.41 1.5.83 3.18 1.06 4.55z"/>
      <path d="M71.23 105.12a17.77 17.77 0 00-.85-3.8l.13-.18s.71 2.62.75 3.98z"/>
      <path d="M75.66 90.48c-.16-2.58-1.05-5.45-1.62-7.5l.16-.37c.74 2.59 1.39 5.25 1.51 7.86z"/>
      <path d="M75.68 62.79c-.3.4-.51.82-.73 1.23-.14-.37.3-1.1.73-1.23z"/>
      <path d="M78.87 69.54c-.74 1.57-1.44 3.27-1.22 5.04.26 1.03.23 1.4 1.04.68.15-.15.71-.8.67-.37-.21.81-.57 1.6-.5 2.46 0 1.26.14 2.6.9 3.64.1.18.48.42.53.42-.45-.09-.7-.52-.93-.87a7.26 7.26 0 01-.76-3.55c.03-.73.26-1.45.52-2.13.02.35-.24.54-.4.7-1.38 1.27-1.4-1.76-1.23-2.8.24-1.15.81-2.2 1.38-3.22z"/>
      <path d="M80.66 79.64c.09 1.2-.08 2.43.23 3.61.18.77.38 1.56.83 2.21.43.04.82-.16 1.22-.29.25-.07-.25.14-.32.18-.3.16-.63.37-.98.3-.28-.2-.4-.53-.56-.8a7.8 7.8 0 01-.51-4.42l.1-.78z"/>
      <path d="M83.61 81.22c-.06 1.28 0 2.57.15 3.84.19 1.26.85 2.4 1.7 3.34-.17 0 .06-.06.1-.1.33-.14.66-.26.96-.43-.28.2-.56.39-.87.54-.09.03-.18.14-.27.1a5.49 5.49 0 01-1.9-3.72 14.85 14.85 0 01.13-3.57z"/>
      <path d="M86.3 83.84c.06 1 .08 2.03.34 3.01.05.2.17.56.17.56l-.11.45a9.38 9.38 0 01-.4-4.02z"/>
      <path d="M85.43 92.2s.03-1.47.2-2.14c-.01.64 0 1.29.03 1.93z"/>
      <path d="M82.06 84.5c-.32-1.3-.03-2.5.33-3.65-.18 1.26-.25 2.4-.33 3.65z"/>
      <path d="M85.54 86.99a6.76 6.76 0 01-.27-4.31c-.13 1.5.06 2.94.27 4.31z"/>
      <path d="M79.84 79.11a9.8 9.8 0 01.74-4.24c-.27 1.36-.52 2.9-.74 4.24z"/>
      <path d="M78.48 73.71a6.04 6.04 0 011.02-3.13c-.35 1.03-.7 2.16-1.02 3.14z"/>
      <path d="M75.45 76.58c-.11-1.44.6-2.72 1.26-3.89-.45 1.32-1 2.54-1.26 3.88z"/>
      <path d="M76.95 81.5c-.23-1.75.3-3.3 1-4.73-.58 1.6-.83 3.12-1 4.72z"/>
      <path d="M79.08 87.22c-.32-1.74-.04-3.46.4-5.05-.2 1.71-.34 3.4-.4 5.05z"/>
      <path d="M82.35 90.82c-.37-1.44-.3-2.92-.06-4.29 0 1.5.03 2.84.06 4.29z"/>
      <path d="M79.11 74.84c.3-.7.71-1.36 1.2-1.96-.4.64-.75 1.29-.95 2z"/>
      <path d="M82.36 73.53c-.54-1.46 0-2.73-1.1-3.47 1.36.39.96 2.47 1.37 3.4-.04.08-.2.04-.27.07z"/>
      <path d="M80.46 90.3a11.09 11.09 0 01-.31-3.55c.03-.4.09-.79.22-1.16h.05a8.42 8.42 0 00-.05 2.34 14.16 14.16 0 00.37 2.28z"/>
      <path d="M83.7 93.4c-.49-1.7-.48-3.42-.4-5.05h.06c-.01 1.74.25 3.4.62 4.96z"/>
      <path d="M92.31 95.99c-.3-1-.32-2.07-.25-3.11.03-.32.1-.64.21-.94.1.06.21.1.02.3-.14 1.22.02 2.52.28 3.68l-.26.07z"/>
      <path d="M74.33 78.76c-.92-2.66.68-5.64 1.85-7.7l.05.02c-1.23 2.63-2.34 4.9-1.64 7.55z"/>
      <path d="M77.57 84.58c-.03-.4 0-.8.03-1.2a20.38 20.38 0 01.36-2.31c.09-.39.16-.77.3-1.15l.05.02-.18 1.16c-.05.38-.12.77-.16 1.15l-.12 1.17c-.02.38-.04.77 0 1.14z"/>
      <path d="M75.6 78.81c.04-.23.1-.47.16-.7a16.78 16.78 0 01.67-2.05l.06.01c-.1.48-.22.93-.31 1.4l-.15.69-.14.7z"/>
      <path d="M71.31 91.1a42.9 42.9 0 01-.61-3.87h.05c.29 1.23.57 2.51.84 3.8z"/>
      <path d="M72.32 83.62a6.1 6.1 0 01-.45-1.85h.05c.2.59.43 1.16.66 1.73z"/>
      <path d="M69.88 93.82c.41.63.55 1.43.76 2.18l-.27.1c-.2-.73-.33-1.5-.54-2.25z"/>
      <path d="M72.5 72.02c.26-.52.5-1.05.78-1.58.8-1.6 1.97-2.98 3.4-4.04 1.88-1.37 4.78-1.6 5.45-3.96h.05c-.53 2.44-3.56 2.92-5.36 4.12a11.35 11.35 0 00-3.27 4.02c-.27.53-.52 1.05-.77 1.58z"/>
      <path d="M73.08 81.28c-.02-1.06-.33-2.05-.38-3 .43 1.02.55 1.93.37 2.99z"/>
      <path d="M72.17 88.68c0-1.5-.3-2.8-.71-4.14.85 1.33.86 2.74.71 4.14z"/>
      <path d="M70.82 93.6c-.2-1.39-.43-2.77-.66-4.15.58 1.45.7 2.74.66 4.14z"/>
      <path d="M69.78 98.88a9.15 9.15 0 01-.54-2.8c.38.92.5 1.78.54 2.8z"/>
      <path d="M69.1 99.65a3.03 3.03 0 00.61 1.13l-.24.16a2.98 2.98 0 01-.37-1.3z"/>
      <path d="M125.37 120.21c1.58-5 3.22-6.45 3.7-11.43l.2.29c-.62 5.21-1.99 6.17-3.85 11.16z"/>
      <path d="M123.47 111.57c.72-3.1 1.8-5.73 2.73-8.81l.17.22c-.9 3.02-2.13 5.75-2.85 8.58z"/>
      <path d="M122.41 99.7c.82-2.38 1.55-5.14 2.34-7.22l-.06.58a70.48 70.48 0 01-2.25 6.67z"/>
      <path d="M120.67 93.24c.65-2.77 1.9-5.52 2.61-8.04l.24.05c-.73 2.43-2.05 5.61-2.81 8z"/>
      <path d="M125.56 95.01c.19-1.87.56-3.7 1.11-5.5l.06.67c-.3.89-.38 1.19-.58 2.1-.21.9-.36 1.82-.53 2.74z"/>
      <path d="M127.03 99.6c.36-1.94.43-2.68 1-4.57l.21.07c-.6 1.87-.7 2.8-1.17 4.52z"/>
      <path d="M128.6 105.12c.05-1.86-.15-2.64.58-4.2l.22.1c-.82 1.6-.53 2.43-.76 4.1z"/>
      <path d="M124.16 90.48c.06-2.63.83-5.5 1.5-7.63l.23.08a34.95 34.95 0 00-1.68 7.56z"/>
      <path d="M124.2 62.79c.56.25.63.82.75 1.26-.2-.44-.48-.85-.75-1.26z"/>
      <path d="M121.01 69.54a9.92 9.92 0 011.46 3.79c.13.88.06 1.87-.52 2.6-.38.07-.71-.34-1-.55-.12-.14-.47-.31-.36-.45.16-.17.21-.06.25.12.3.79.5 1.62.44 2.47-.07 1.2-.26 2.48-1.04 3.44-.2.23-.44.47-.76.46.57-.09.83-.68 1.05-1.14a7.7 7.7 0 00.48-3.6c0-.65-.49-1.28-.48-1.9.18-.14.32.14.45.24.2.27.83.56.87.69-.25.07.23-.34.2-.48.4-.98.22-2.1-.02-3.09-.22-.91-.66-1.74-1.02-2.6z"/>
      <path d="M119.21 79.64c.14 1.16.33 2.33.11 3.5a5.64 5.64 0 01-.88 2.33c-.1.1-.2.23-.36.2-.1-.02-.3 0-.13-.2.11.02.24.03.3-.09a8.45 8.45 0 00.95-4.4c-.01-.44-.02-.9.01-1.34z"/>
      <path d="M116.26 81.22a13.3 13.3 0 01.13 3.89 5.1 5.1 0 01-1.18 2.69c-.2.26-.43.5-.68.72a.07.07 0 01-.07 0 9.18 9.18 0 01-1.08-.64c.2.1.37.19.57.27l.57.25h-.08c.42-.46.8-.99 1.1-1.54a5.16 5.16 0 00.6-1.79c.08-.63.11-1.27.15-1.9 0-.66.02-1.31-.03-1.95z"/>
      <path d="M113.57 83.84a7.57 7.57 0 01-.5 4.26l-.1-.44c.52-1.25.55-2.6.6-3.82z"/>
      <path d="M114.2 92.34c.04-.76.03-1.52.03-2.28a8 8 0 01.15 2.57z"/>
      <path d="M117.81 84.5c-.04-1.25-.18-2.45-.31-3.66.55 1.22.46 2.46.31 3.66z"/>
      <path d="M114.34 86.99c.3-1.46.33-2.94.27-4.33.44 1.48.23 3-.27 4.33z"/>
      <path d="M120.04 79.11a199.3 199.3 0 00-.76-4.24c.6 1.48.78 2.8.75 4.24z"/>
      <path d="M121.4 73.71c-.34-1.01-.7-2.14-1.02-3.14.71.97.96 2.1 1.01 3.14z"/>
      <path d="M124.43 76.58c-.22-1.33-.84-2.6-1.26-3.88a7.41 7.41 0 011.26 3.88z"/>
      <path d="M122.93 81.5a20.25 20.25 0 00-1-4.73 8.46 8.46 0 011 4.72z"/>
      <path d="M120.8 87.22c-.03-1.72-.22-3.47-.39-5.05.58 1.7.56 3.42.39 5.05z"/>
      <path d="M117.53 90.82c.02-1.45.02-2.9.05-4.3.32 1.46.22 2.93-.06 4.29z"/>
      <path d="M120.5 74.93a7.31 7.31 0 00-.91-2.05 9.26 9.26 0 011.19 1.96z"/>
      <path d="M117.34 73.32c.11-.06.2-.17.23-.3.07-.48.05-1 .06-1.44.03-.97.23-1.32.96-1.51-.73.25-.7.84-.78 1.53.05.53.01.91 0 1.5a.77.77 0 01-.35.47c-.06.05-.16.01-.2-.05-.01-.07 0-.16.08-.2z"/>
      <path d="M119.14 90.21c.38-1.65.48-3.08.32-4.61l.05-.01c.43 1.57.21 3.2-.09 4.71z"/>
      <path d="M115.9 93.3c.51-1.6.56-3.39.62-4.96h.05c.2 1.74.01 3.46-.4 5.05z"/>
      <path d="M107.29 95.9a9.5 9.5 0 00.29-3.95c.11.05.11.3.16.42a8.13 8.13 0 01-.18 3.6l-.27-.07z"/>
      <path d="M125.28 78.64c.12-.29.2-.62.24-.94.24-1.84-.22-3.2-.97-4.79-.31-.6-.63-1.2-.9-1.82l.05-.02c.32.6.67 1.17 1 1.77.98 1.58 1.15 3.16 1.1 4.91-.05.34-.1.69-.25 1.02z"/>
      <path d="M122.03 84.55c.03-.37 0-.76-.02-1.14a21.38 21.38 0 00-.28-2.32c-.05-.39-.11-.77-.18-1.16l.06-.02c.14.38.21.76.3 1.15.07.38.15.76.21 1.15a14.47 14.47 0 01.18 2.36z"/>
      <path d="M124 78.85c-.17-.9-.4-1.92-.59-2.78l.05-.02c.37.86.61 1.8.83 2.76z"/>
      <path d="M128.28 91.03l.2-.95.21-.96.2-.95.23-.95.05.01c-.02.33-.06.65-.1.98l-.16.96-.17.96-.18.96z"/>
      <path d="M127.3 83.52l.35-.86a13 13 0 00.3-.88l.06.01c.01.16 0 .32-.03.48-.03.16-.08.31-.12.47l-.14.45-.16.45z"/>
      <path d="M130.04 93.85a5.25 5.25 0 00-.28 1.1 10.93 10.93 0 01-.26 1.15l-.27-.1c.06-.17.12-.36.16-.54l.14-.55c.05-.2.1-.38.17-.57.06-.18.16-.36.29-.52z"/>
      <path d="M127.13 72.17a48 48 0 00-.79-1.61 10.9 10.9 0 00-3.27-4.02c-1.88-1.38-4.83-1.63-5.36-4.12h.05c.67 2.33 3.64 2.8 5.44 3.96a11.86 11.86 0 013.41 4.04c.27.52.52 1.11.78 1.63z"/>
      <path d="M126.8 81.28c-.25-.76-.1-1.41.1-2.12.1-.29.26-.56.28-.87.1.3 0 .62-.09.92-.2.72-.25 1.38-.29 2.07z"/>
      <path d="M127.71 88.68a5.7 5.7 0 01.71-4.15c-.24.68-.39 1.38-.53 2.04-.1.7-.16 1.4-.18 2.1z"/>
      <path d="M129.06 93.6c-.1-1.56.19-2.83.66-4.14l-.66 4.13z"/>
      <path d="M130.1 98.88c.02-.98.24-1.9.55-2.8a8.5 8.5 0 01-.56 2.8z"/>
      <path d="M130.78 99.65a3.55 3.55 0 01-.37 1.3l-.24-.17c.14-.16.26-.33.36-.52.1-.2.2-.4.25-.6z"/>
      <path d="M105.83 77.73a3.1 3.1 0 00-.68-1.73c-.2-.3-.41-.63-.46-1-.02-.22 0-.44.07-.65.12.05 0 .22.06.32.04.41.25.78.5 1.11.17.27.35.53.47.83.08.26.15.52.11.8 0 .1-.03.21-.06.32z"/>
      <path d="M105.5 74.02c0-.32-.02-.63-.07-.93-.07-.3-.16-.6-.26-.9-.1-.3-.2-.6-.26-.92a2.97 2.97 0 01-.03-.98h.05c.05.32.11.62.2.92.08.3.19.59.3.9.1.3.18.62.21.95.01.32-.02.65-.14.96z"/>
      <path d="M104.74 73.16a3.9 3.9 0 01-.4-1.57 9.15 9.15 0 00-.75-2.7l.03-.38s.59 1.25.69 1.96c.07.42.1.84.14 1.26.04.48.08.98.32 1.41l-.03.02z"/>
      <path d="M105.63 70.92c.24.32.39.7.59 1.03.2.34.44.64.7.92l-.2.17a5.15 5.15 0 01-.63-1.03c-.17-.36-.28-.73-.48-1.08z"/>
      <path d="M103.33 65.4c.31.59.8 1.04 1.25 1.53.48.54.9 1.16 1.15 1.84.14.42.22.87.24 1.31-.08.02-.18.06-.09-.2-.25-1.04-.8-2-1.5-2.8-.4-.51-.9-1.02-1.05-1.68z"/>
      <path d="M102.54 64c.14.22.31.43.51.61.39.36.84.64 1.25.98.12.1.24.22.35.34l-.2.17c-.5-.55-1.13-.98-1.61-1.55a1.61 1.61 0 01-.3-.55z"/>
      <path d="M101.85 65.42c.27.34.68.52 1.03.77a4.2 4.2 0 011.2 1.17c.23.37.43.83.45 1.24a5.83 5.83 0 00-1.3-1.82c-.28-.25-.58-.5-.88-.72-.2-.18-.43-.4-.5-.64z"/>
      <path d="M103.12 72.75s.05 1.87.14 2.51c-.22-.71-.25-1.58-.3-2.35z"/>
      <path d="M104.26 76.62a5.62 5.62 0 00-.35-2.06c-.1-.34-.2-.69-.26-1.05-.04-.36-.02-.74.09-1.09l.04.01c0 .35.02.7.1 1.04.07.34.18.67.29 1.01.1.34.19.7.21 1.07.03.36 0 .73-.12 1.07z"/>
      <path d="M106.58 77.97a1.19 1.19 0 01-.14-.84c.05-.43.23-.84.28-1.27.1-.57.05-1.15-.08-1.71.01-.09-.11-.23-.02-.28.4.62.5 1.4.35 2.11-.06.26-.12.51-.21.76-.1.35-.26.7-.2 1.06 0 .05.04.13.02.17z"/>
      <path d="M100.22 64.1c.15-.07.32-.04.47.03.14.06.27.17.39.28l.3.32c.09.08.19.16.3.21-.19.05-.37-.03-.52-.13-.11-.07-.2-.16-.3-.25-.1-.08-.18-.17-.27-.26a1.65 1.65 0 00-.37-.2z"/>
      <path d="M100.05 63.35c.33-.14.72-.2 1.07-.09.3.09.52.31.67.57a7.33 7.33 0 001 1.26 2.36 2.36 0 01-.76-.55c-.13-.16-.28-.3-.4-.47-.15-.3-.38-.56-.7-.64a2.7 2.7 0 00-.88-.08z"/>
      <path d="M93.82 77.73c-.1-.35-.08-.74.03-1.08.06-.14.12-.28.2-.4l.31-.5c.19-.26.37-.54.44-.86.04-.17.06-.35.05-.53.1 0 .07.18.1.26.06.38-.06.77-.26 1.09-.25.42-.58.81-.73 1.28a3.6 3.6 0 00-.14.74z"/>
      <path d="M94.15 74.02c-.1-.3-.14-.63-.12-.96.03-.33.11-.64.22-.95l.3-.9c.08-.3.15-.6.2-.92h.04c.06.32.04.65-.03.98-.05.32-.16.63-.26.93a6.63 6.63 0 00-.35 1.82z"/>
      <path d="M94.84 73.14c.28-.53.3-1.13.35-1.71a5.9 5.9 0 01.6-2.5c.1-.18.23-.36.36-.52l.15.13a4.18 4.18 0 00-.83 1.83c-.17.66-.19 1.35-.32 2.02-.06.27-.15.53-.29.77z"/>
      <path d="M94.06 70.93c-.2.35-.31.72-.49 1.08a5.15 5.15 0 01-.63 1.03l-.2-.17c.27-.28.5-.59.7-.92.21-.33.36-.7.6-1.03z"/>
      <path d="M96.29 65.42c-.19.65-.65 1.18-1.07 1.7a6.27 6.27 0 00-1.53 2.97c-.07-.02-.16-.02-.03-.19.07-.97.49-1.9 1.11-2.64.5-.62 1.12-1.14 1.52-1.84z"/>
      <path d="M97.07 64c-.13.4-.39.73-.7 1l-.75.67-.45.45-.2-.19c.61-.7 1.54-1.03 2.04-1.83l.06-.09z"/>
      <path d="M97.76 65.43c-.07.2-.21.35-.35.5-.39.35-.82.64-1.18 1.01-.43.4-.76.9-1.02 1.42-.06.07-.07.27-.17.26a3.1 3.1 0 01.78-1.64c.13-.13.24-.27.38-.38.4-.34.85-.6 1.27-.9.1-.08.2-.17.29-.27z"/>
      <path d="M96.65 72.51a16.2 16.2 0 01-.31 2.76c.14-.61.18-2.77.13-2.8z"/>
      <path d="M95.4 76.62a2.82 2.82 0 01-.13-1.08c.03-.36.12-.73.22-1.07.1-.34.21-.67.29-1.01.07-.35.1-.69.1-1.04l.04-.01c.1.34.12.73.08 1.09a5.2 5.2 0 01-.26 1.05c-.1.34-.2.67-.26 1.01-.06.35-.08.7-.09 1.06z"/>
      <path d="M93.07 77.97c.12-.42-.03-.84-.16-1.24a3.55 3.55 0 01-.17-2.04c.07-.25.16-.62.33-.79.03.15-.07.33-.09.5-.15.71-.07 1.46.13 2.16.08.3.15.6.14.92a1.1 1.1 0 01-.18.49z"/>
      <path d="M99.39 64.1a.96.96 0 00-.43.27l-.3.3a1.1 1.1 0 01-.29.2.57.57 0 01-.42.08c.16-.1.3-.22.43-.35.15-.15.28-.32.47-.42l.16-.08a.46.46 0 01.38 0z"/>
      <path d="M99.56 63.35c-.39-.01-.8 0-1.14.2-.19.1-.29.3-.41.46-.13.2-.3.38-.46.57-.21.2-.46.38-.73.5a7.35 7.35 0 00.98-1.22c.14-.24.33-.46.6-.56a1.46 1.46 0 011.16.05z"/>
      <path d="M105.88 75.47a.86.86 0 01-.15-.59.89.89 0 01.13-.44l.19-.23.21-.22c0 .2-.1.38-.17.55l-.1.29c-.05.18-.07.37-.1.55l-.01.09z"/>
      <path d="M93.79 75.47c-.02-.13-.03-.26-.07-.39a1.9 1.9 0 00-.16-.54c-.08-.17-.18-.36-.16-.53.1.1.2.19.28.3a.92.92 0 01.11 1.16z"/>
      <path d="M110.09 92.8c.22-.18.5-.23.78-.2h.08l.07.02v.03l-.24.03-.2.08c-.06.03-.13.06-.19.12l-.07.07-.03.03-.2-.18z"/>
      <path d="M114.2 95.86c0 .22-.02.44.09.64.11.35.3.67.49.99.13.23.2.5.27.76.05.12-.08.1-.15.1-.1.02-.14-.01-.11-.11-.03-.42-.25-.8-.4-1.18a2.82 2.82 0 01-.21-.65c-.05-.19-.02-.37 0-.56l.02.01z"/>
      <path d="M114.76 101.29c0-.11-.03-.23-.06-.34-.02-.11-.04-.23-.09-.34-.09-.33-.25-.64-.37-.95-.03-.1-.07-.21-.05-.32.05.05.05.2.11.29.17.35.41.66.55 1.03.08.18.12.36.16.55.01.08-.15.05-.22.07h-.03z"/>
      <path d="M89.46 93l-.05-.07-.11-.09c-.06-.04-.14-.07-.21-.1a1.3 1.3 0 00-.36-.08c0-.05-.01-.1.1-.04.13-.01.26-.02.39 0l.21.06.23.13-.2.19z"/>
      <path d="M88.68 84.28c.02.44-.07.89-.2 1.3-.13.43-.3.84-.44 1.25a10.27 10.27 0 00-.65 2.5h-.05c-.04-.44 0-.89.07-1.33.08-.44.21-.86.36-1.27.16-.42.33-.81.5-1.22.17-.38.32-.79.41-1.23z"/>
      <path d="M85.56 95.86c.03.24.04.49-.03.72-.06.26-.18.5-.28.74-.13.28-.25.57-.3.87 0 .08.04.2-.08.17h-.19a2.67 2.67 0 01.34-.96c.18-.32.36-.64.47-.98.06-.18.07-.37.05-.55l.02-.01z"/>
      <path d="M84.73 101.24l.07-.3c.06-.21.14-.41.24-.61.15-.28.33-.54.46-.83.05-.04 0-.21.07-.15 0 .25-.14.47-.23.7-.13.3-.24.61-.3.93-.05.09 0 .24-.07.3l-.24-.04z"/>
      <path d="M105.34 109.62c0 3.63-.02 7.27.26 10.89.24 2.73.6 5.46 1.38 8.09.25.86.56 1.7.88 2.54a26.5 26.5 0 01-1.94-6.1c-.8-4.3-.87-8.72-.69-13.08.04-.78.06-1.56.11-2.34z"/>
      <path d="M103.4 134.75c.97-4.25.27-8.66-.66-12.85-1.14-4.99-2.4-10.05-2.17-15.2.03-.62.1-1.24.18-1.86-.41 4.16.32 8.32 1.18 12.38.96 4.4 2.23 8.8 2.1 13.35-.08 1.4-.21 2.85-.63 4.18z"/>
      <path d="M104.36 100.43c.15 3.86-.31 7.77-1.49 11.46.79-3.72 1.26-7.5 1.47-11.28l.02-.18z"/>
      <path d="M101.83 98.54c.05 1.88-1.2 3.42-2.2 4.89-.4.59-.8 1.2-1.09 1.85.66-2.42 2.86-4.14 3.26-6.66l.03-.08z"/>
      <path d="M99.86 102.75s-.5-.28-.7-.47c-.36-.27-.7-.58-.99-.93-.15-.17-.28-.36-.41-.54.25.33.54.62.87.87.35.3 1.43.83 1.43.83z"/>
      <path d="M101.02 97.62c-.09.49-.42.87-.6 1.32-.29.61-.6 1.21-.91 1.81.16-.94.53-1.85 1.13-2.6.14-.16.3-.32.38-.53z"/>
      <path d="M99.88 99.7s-.85-1.15-1.26-1.65c-.23-.29-.48-.56-.74-.83.7.62 1.5 1.37 2.06 2.11.31.2.03.24.02.31z"/>
      <path d="M95.7 136c-.86-.8-1.53-1.8-2.05-2.85a19.1 19.1 0 01-.92-2.15c-.16-.5-.33-1.01-.44-1.53.27 1.01.65 2 1.1 2.93.47.94 1 1.86 1.7 2.64.23.27.49.52.75.76.02.08-.1.13-.14.2z"/>
      <path d="M91.34 134.2c.13-.1.2-.27.27-.42.05-.11.08-.23.12-.34.1-.33.12-.68.16-1.03 0-.25 0-.5-.06-.76.04.04.06.18.08.26a4.27 4.27 0 01-.16 2.18c-.07.1-.11.21-.2.3l-.21-.19z"/>
      <path d="M97.99 136.59c1.21-2.73 1.6-5.74 1.9-8.7.43-4.54.44-9.15-.2-13.68.73 4.5.7 9.08.4 13.61-.32 3-.63 6.1-1.85 8.9l-.25-.13z"/>
      <path d="M91.44 123.52a12.58 12.58 0 01-4.2 8.1c-.4-.26.28-.5.43-.73a12.5 12.5 0 003.77-7.37z"/>
      <path d="M96.6 108.62a43.5 43.5 0 00-1.42 14.2 43.1 43.1 0 001.28 8.14 37.1 37.1 0 01-1.58-13.03c.13-2.3.45-4.6.99-6.86.2-.83.43-1.65.73-2.45z"/>
      <path d="M94.84 101.07c.42 2.3-.2 4.34-.64 6.87-.39 1.61-.78 3.24-.87 4.9-.09-2.94.98-5.73 1.4-8.6.16-1.05.25-2.12.11-3.17z"/>
      <path d="M109 134.42c.55.08 1.1.2 1.67.17.07 0 .25-.06.24-.06-.16.1-.36.12-.54.13-.46.05-.93.02-1.39.02l.02-.26z"/>
      <path d="M104.86 135.37c-.4.29-.7.68-1.03 1.02-.41.44-.84.88-1.37 1.17-.1.04-.35.16-.34.14.44-.18.78-.5 1.1-.84.47-.5.83-1.09 1.32-1.57.09-.15.17-.1.25 0l.07.08z"/>
      <path d="M89.45 135.27c.19 0 .36-.1.52-.18.39-.2.7-.51 1.06-.75.14-.13.16.1.18.2-.1.07-.25.08-.35.17-.36.2-.72.43-1.11.55a.64.64 0 01-.3.01z"/>
      <path d="M94.4 134.64c.37.34.68.74.93 1.17.25.39.49.8.89 1.05.06.06.3.15.27.14-.16-.04-.3-.13-.45-.22-.32-.2-.56-.5-.77-.8-.3-.4-.6-.8-1.01-1.09l.14-.25z"/>
      <path d="M94.26 137.03c-.53-.33-1.04-.59-1.59-.87.76 0 1.13.37 1.59.87z"/>
      <path d="M96.25 99.6l-.02-.15c-.02-.05-.02-.12-.03-.2a1.75 1.75 0 01-.02-.24v-.63l.01-.35c.01-.12.02-.25.05-.37l.06-.36.08-.34.08-.32.1-.3.08-.23.08-.18.06-.16.24.12s-.04.05-.08.15l-.08.17c-.04.06-.07.14-.1.22-.03.09-.08.18-.1.27-.05.1-.08.2-.11.31l-.1.33-.09.36-.06.35-.04.34-.02.32-.01.29v.44c0 .12.02.17.02.17z"/>
      <path d="M103.18 99.26c.14-1.2-.13-2.2-.55-3.36l.25-.1c.4 1.16.48 2.2.3 3.46z"/>
      <path d="M104.88 95.7a5.64 5.64 0 00.39 2.94c0 .02.02.03.02.03l-.02-.03c-.63-.9-.58-1.88-.66-2.94z"/>
      <path d="M94.52 97.58c-.04-.83-.1-1.12.12-1.92l.25.09c-.34.8-.28 1.03-.37 1.83z"/>
      <path d="M101.58 89.64a7.12 7.12 0 00-1.11 3.79c-.12 0-.33.18-.28-.02a6.67 6.67 0 011.39-3.77z"/>
      <path d="M103.78 90.26c-.23 1.03-.4 2.05-.4 3.05h-.23c-.05-.01.23-2.54.63-3.05z"/>
      <path d="M95.3 93.22c.13-1.12-.32-3.01-.32-3.01l.06-.02s.6 1.9.53 3.05z"/>
      <path d="M105.42 77.85c-.04.35-.06.7-.01 1.04.04.43.1.86.07 1.29l-.01.18-.01.11c0-.28-.02-.57-.08-.84l-.16-.82a5.23 5.23 0 01-.07-.97l.27.01z"/>
      <path d="M94.76 77.7c.12.44.25.88.3 1.34.05.45.02.91 0 1.36a7.1 7.1 0 00-.13-1.34c-.1-.44-.26-.86-.41-1.29z"/>
      <path d="M92.35 86.21c.07-1.23.21-2.57.53-3.77-.19 1.21-.24 2.7-.2 3.92z"/>
      <path d="M107.11 86.18c0-.3-.08-.66-.14-.96l-.2-.92a6.92 6.92 0 01-.2-1.87c.03.62.15 1.23.35 1.82l.3.9c.08.3.14.7.19 1.01z"/>
      <path fill="none" d="M94.62 81.76c.1 2-2.9 3.9-1.94 6.95.1.36.32.7.57.98.7.8 2.14 1.18 3.23 1.04a5.4 5.4 0 002.88-1.42"/>
      <path d="M94.5 82.12c.06 1.02-.53 1.92-1 2.78-.4.7-.7 1.49-.66 2.31.01.72.1 1.15.68 2.05a4.26 4.26 0 004.68.27c.4-.2.77-.45 1.12-.73a4.77 4.77 0 01-4.3 1.5 3 3 0 01-2.13-1.51c-.49-.76-.45-1.71-.26-2.56.33-1.33 1.44-2.3 1.8-3.6.05-.17.07-.34.07-.5z"/>
      <path fill="none" d="M104.98 81.74c-.07 2 2.95 3.85 2.05 6.91-.1.37-.3.7-.57 1-.68.81-2.12 1.2-3.21 1.08a5.38 5.38 0 01-2.9-1.4"/>
      <path d="M100.27 82.94c-.2.96-.49 1.97-.77 2.86.01-1 .28-1.99.77-2.86z"/>
      <path d="M98.87 83.08c.58.52.48 1.07.23 1.59.1-.57-.08-1.09-.23-1.6z"/>
      <path d="M107.4 104.39c-.03.7-.33 1.22-.54 1.84-.04.18-.05.36-.04.54l-.27.01c.17-.6.44-1.17.66-1.76l.2-.63z"/>
      <path d="M109.72 103.95c.05.63-.29.76-.62.87.18-.32.4-.58.62-.87z"/>
      <path d="M107.81 106.72c-.48.32-.75-.06-.79-.29.21.15.54.2.79.29z"/>
      <path d="M109.95 105.03c-.26-.27-.04-.56-.02-.81.2.22.03.56.02.81z"/>
      <path d="M107.55 107.38c.04 0 .09 0 .1-.04l.18-.21c.02-.03.04-.06.07-.04-.04.13-.07.27-.12.4a.26.26 0 01-.08.1c-.02.02-.05.04-.05 0l-.1-.21z"/>
      <path d="M108.93 107.11c-.49.37-.7.02-.8-.19.23.08.55.13.8.19z"/>
      <path d="M108.63 107.75a.82.82 0 00.1-.1.55.55 0 00.1-.1l.08-.12c.04.01.01.07.01.1 0 .09-.03.18-.04.27l-.03.1-.22-.15z"/>
      <path d="M109.26 107.2l.73.09c-.29.52-.76.05-.73-.09z"/>
      <path d="M111.07 107.57c-.31.12-.67-.07-.79-.17.25-.03.47-.08.69-.12z"/>
      <path d="M92.52 104.68c.35.72.75 1.37.81 2.09-.08-.01-.2.01-.26-.02-.04-.65-.36-1.5-.61-2.17z"/>
      <path d="M90.17 103.95l.59.89c-.6-.13-.52-.57-.59-.89z"/>
      <path d="M92.07 106.7c.16-.05.5-.2.76-.3h.03c-.13.55-.61.4-.79.31z"/>
      <path d="M89.92 105.03c-.15-.27-.01-.55-.01-.79.39.21.09.56.01.79z"/>
      <path d="M92.22 107.62a.26.26 0 01-.15-.18l-.1-.36c.04-.02.05.04.08.06l.1.13c.05.02.07.06.1.09.02 0 .04.02.04 0l-.07.26z"/>
      <path d="M90.95 107.11l.77-.21.03.02c-.24.5-.7.37-.8.19z"/>
      <path d="M91.01 107.9l-.07-.35-.02-.12h.03c.09.1.17.22.27.31l-.21.16z"/>
      <path d="M89.9 107.28c.09-.05.48-.05.71-.08l.03.02c-.18.55-.7.16-.74.06z"/>
      <path d="M88.9 107.26c.2.2.53.1.7.14-.2.24-.53.13-.79.17z"/>
      <path d="M89.88 108.02a.14.14 0 01-.05-.12v-.17l.04-.2c.04 0 .09 0 .08.05-.02.05.02.1.04.14l.07.12c.01-.02-.02 0-.02.01l-.16.17z"/>
      <path d="M98.81 68.76a2.4 2.4 0 00-.53-.17 1.34 1.34 0 00-.55.01c-.18.04-.35.1-.5.2-.15.1-.28.25-.45.34.15-.13.25-.29.4-.42.16-.13.34-.2.53-.24.2-.05.4-.06.59 0 .2.04.38.14.51.28z"/>
      <path d="M101.08 71.47c.08.3.35.46.52.67-.43-.24-.52-.4-.52-.67z"/>
      <path d="M98.85 71.45c0 .42-.23.62-.46.73.24-.17.37-.47.46-.73z"/>
      <path d="M100.54 68.85c-.16.32-.26.67-.29 1.03a4.7 4.7 0 00-.03.53c-.02.18.01.32.05.53a1.65 1.65 0 01-.13-.53c-.02-.18-.01-.36 0-.56.03-.37.17-.71.4-1z"/>
      <path d="M99.54 68.96c.23.07.15.27.18.32l-.19-.32z"/>
      <path d="M100.47 72.08c.16 0 .32-.1.35-.26.04-.1 0-.22-.08-.28a.75.75 0 01-.18-.18.87.87 0 01-.13-.22c.13.1.25.23.4.31.09.06.16.16.15.28-.01.2-.18.38-.38.37a.4.4 0 01-.13-.02z"/>
      <path d="M99.5 72.08c-.19.08-.43-.03-.48-.22a.32.32 0 01.02-.31.44.44 0 01.24-.2c.08-.04.17-.04.26-.06-.02.1-.13.11-.19.17-.08.05-.17.1-.2.19-.05.1 0 .22.08.3.05.1.17.12.27.13z"/>
      <path d="M99.42 71.97c.09-.06.21-.05.3 0l.15.13c.04.04.12.04.18.04.06-.01.09-.07.13-.1.06-.06.13-.12.22-.11.05 0 .1.02.14.04 0 .06-.08.02-.12.04-.06 0-.1.05-.14.09l-.11.13c-.06.05-.14.06-.2.06a.28.28 0 01-.2-.07l-.11-.14c-.05-.03-.08-.09-.14-.1-.03 0-.08.02-.1-.01z"/>
      <path d="M100.25 74.4a1.96 1.96 0 00-.67-.04c.22-.17.62-.03.67.04z"/>
      <path d="M97.87 69.12c0 .13.09.22.2.22.1 0 .19-.1.19-.22 0-.13-.09-.23-.2-.23-.1 0-.19.11-.19.23z"/>
      <path d="M100.96 68.76c.13-.13.31-.23.5-.28.2-.05.4-.04.59 0 .2.04.37.11.53.24.15.13.26.3.4.42-.17-.1-.3-.25-.45-.34a1.56 1.56 0 00-1.05-.2c-.17.02-.35.08-.52.16z"/>
      <path d="M101.7 68.9c-.1 0-.2.09-.2.22s.1.22.2.22.19-.1.19-.22c0-.13-.08-.23-.2-.23z"/>
      <path d="M100 72.42c.06.14 0 .24.01.37-.16-.08-.05-.3-.01-.37z"/>
      <path d="M98.45 73.22c.13 0 .25-.05.38-.1l.36-.18c.12-.06.27-.1.42-.05.14.03.26.12.37.12.1 0 .22-.09.36-.12a.6.6 0 01.43.05c.13.07.23.14.35.19.12.05.25.08.39.1-.13 0-.27-.02-.4-.05-.13-.03-.26-.1-.37-.15a.5.5 0 00-.36-.02l-.18.07c-.06.02-.13.06-.21.06-.09 0-.15-.04-.22-.06a1.3 1.3 0 00-.18-.07.57.57 0 00-.35.02c-.12.05-.24.12-.37.15-.15.03-.28.05-.42.04z"/>
      <path d="M98.45 73.22c.15.02.28.1.4.2l.35.24c.23.15.49.26.77.26.26 0 .52-.11.75-.26l.36-.25c.12-.07.25-.16.4-.18a1.3 1.3 0 00-.35.25l-.33.29a1.29 1.29 0 01-.83.32c-.16 0-.31-.03-.45-.09a1.8 1.8 0 01-.4-.22c-.12-.09-.22-.2-.33-.3-.1-.1-.2-.2-.34-.26z"/>
      <path d="M100.9 73.26a.89.89 0 00-.23.07l-.22.07c-.15.06-.3.09-.47.09a1.5 1.5 0 01-.47-.09c-.15-.05-.3-.1-.44-.13.16-.03.3.03.46.06.15.03.3.07.45.06.15 0 .3-.03.45-.06.15-.02.3-.08.47-.07z"/>
      <path d="M105.21 82.12c-.05 1.02.53 1.92 1 2.78.4.7.7 1.49.66 2.31 0 .72-.07 1.56-.68 2.05a4.26 4.26 0 01-4.68.27c-.4-.2-.76-.45-1.11-.73a4.77 4.77 0 004.3 1.5 3 3 0 002.13-1.51c.48-.76.44-1.71.25-2.56-.32-1.33-1.44-2.3-1.8-3.6a2.06 2.06 0 01-.07-.5z"/>
    </g>
  </g>
</svg>
