<svg xmlns="http://www.w3.org/2000/svg" fill="#d7374a" stroke="#000" viewBox="50 50 200 200"><metadata license="https://creativecommons.org/licenses/by-nc-sa/3.0" source="http://wappenwiki.org/images/4/44/Smolensk_Ancient.svg"/><g id="bearPassant" stroke-width=".375"><path d="M109.8 121.8s-.8 2.2.4 3.3c-.1-1.8 1.2-2.6 1.2-2.6s-.2-.7-.6-.8c-.6-.2-1 .1-1 .1z"/><path d="M109.7 121.7s-2.5 1-2 2.8c-.5-.3-.6-.9-.6-1.7 0-1.2 1-2.2 1-2.2s.6 0 1 .2c.3.2.6 1 .6 1z"/><path d="M107 119s-2 .8-2 2c0 1 .9 2.1 1 2 0-.1-.3-.9 0-1.6.4-1 1.7-.8 1.7-.8"/><path d="M92.8 122s-.9 2.2.3 3.3c0-1.7 1.2-2.6 1.2-2.6s-.2-.7-.6-.8c-.5-.2-1 .1-1 .1z"/><path d="M92.6 122s-2.4 1-1.9 2.7c-.5-.3-.7-.8-.7-1.7 0-1.2 1.1-2.1 1.1-2.1s.6-.2 1 .1c.3.2.5 1 .5 1z"/><path d="M90 119.3s-2 .7-2 2c0 1 .8 2 .9 2 0-.2-.3-1 0-1.7.5-.9 1.7-.8 1.7-.8"/><path d="M89.7 117.3s-2 0-2.4 1.2c-.4 1 0 2.2 0 2.1.2 0 .2-.9.7-1.5.7-.7 1.9-.1 1.9-.1"/><path d="M130.6 121.8s-.6 2.3.8 3.2c-.4-1.7.8-2.7.8-2.7s-.3-.7-.7-.7c-.6-.2-1 .2-1 .2z"/><path d="M130.4 121.8s-2.3 1.3-1.5 3c-.6-.3-.8-.8-1-1.6-.1-1.2.9-2.3.9-2.3s.5-.2 1 0l.6.9z"/><path d="M127.3 119.5s-1.7 1-1.6 2.3c.2 1 1.1 2 1.2 1.8 0-.1-.4-.8-.2-1.6.3-1 1.6-1 1.6-1"/><path d="M126.8 117.6s-2 .3-2.2 1.5c-.3 1 .3 2.2.4 2 .1 0 0-.8.4-1.5.6-.8 1.8-.4 1.8-.4"/><path d="M75 121.8s-1 2.1.3 3.2c-.1-1.7 1.1-2.6 1.1-2.6s-.2-.6-.6-.8c-.5-.2-.9.2-.9.2z"/><path d="M75.2 121.5s-2.4 1-1.9 2.8c-.5-.3-.7-.9-.7-1.7 0-1.2 1.2-2.2 1.2-2.2s.5 0 1 .2c.2.2.4 1 .4 1z"/><path d="M72 119s-1.8.7-1.9 2c0 1 .8 2 1 2 0-.2-.3-1 0-1.7.4-.9 1.7-.8 1.7-.8"/><path d="M71.9 117s-2 0-2.5 1.2c-.4 1 0 2.2.1 2.1.1 0 0-.9.6-1.5.7-.7 1.9-.1 1.9-.1"/><path d="M106.8 117s-2 0-2.5 1.3c-.3.9 0 2.1.2 2 0 0 0-.8.6-1.4.7-.7 1.8-.1 1.8-.1m-38.3-29s-1.6-.3-3 .2c-2 .6-2.3 1.2-3.3 1.4-1.3.4-2 .3-2.6.1-1.2-.4-1.2-1-1.4-.8-.1.4.5 1.4 1.3 1.8 1 .5 2 .6 3.8 0 1-.3 1-.5 2.3-.9a5.6 5.6 0 012.3-.2"/><path d="M114.4 97c1.6 2.2-4.3 5.8-3.6 10.6.3 3 1.8 4.8 1.8 4.8s.7.8.6 2.2c0 .8-.7 2-1.3 2.1-1.2-.4-1.5.5-2.3.3-.3-.1-1.6 0-2.5-.4-.8-.7-1.8.1-1.7.6 0 0 .4 0 .7.7l.2.8s-.6.4-.5 1l.8.1c.3.2.5.5.5.8l-.2.7c0 .2.2.5.3.4.2-.2.6-.3 1-.2.8.3.3.8 1.4.9.2-.6 1.2-.8 1.5.3.4.3 1 .1 1.4-.2.3-.1.5-.6.9-1l1-.5c1.1-.5 2.4-.2 3.6-1.2l1.4-1.4c.3-.6 0-.6.3-2 .3-1-.1-1 0-2.8s.3-3.4 1.8-5c1.5-1.7 4.3-2.1 6.6-5.8"/><path d="M74.5 78s.2-.4.9-.7c.3 0 1.2-.3 2.1 0 .8.3 1.6 1 1.8 1.5"/><path fill="#f6f6f6" d="M60.8 89.2s.6 1.2 1.6 1.6a4.5 4.5 0 01-.2-1.6"/><path fill="#f6f6f6" d="M66 92.5c-.3 0-.5-.2-.8-.4 0 .3 0 .8.2 1.2m-.6.3a2.4 2.4 0 01-.7-.8c-.3.5-.2 1 0 1.4"/><path d="M102 100.3a70.8 70.8 0 00-9-1.3l-.6.1c-.3.1-.4.4-.5.6-.7 1.2-2.2 3-2 4.4.3 1.4 1.8 2.3 2.2 3.6.2.7 2.3 3.7 2.6 4 1.2 1.6 1 2.6 1 3.5 0 .6-.1 1.2-.6 1.5-.7-.4-1.8.7-2.6.5-.3-.1-1.5 0-2.4-.4-.8-.7-1.8.1-1.7.6 0 .1.4.1.7.8l.1.7s-.5.4-.5 1c.1.1.5 0 .8.2.3.1.5.5.6.7-.3.4-.2.5-.2.7 0 .2.2.5.3.5.2-.3.6-.4 1-.2.7.3.3.7 1.3.8.2-.6 1.2-.8 1.5.3.4.3 1 .1 1.5-.1.3-.2.5-.7.8-1 .4-.4 1-.5 1-.6 1.2-.5 2.5-.2 3.7-1.2l1.3-1.4c.4-.6 0-.5.4-2l.4-3.2c.2-1.8-2-4.4-1.8-6.3.2-2.6 1-3.3 1.7-4.7"/><path d="M139.7 91.9c-2.2-1-2.5-5.3-7-8.5a48 48 0 00-6.7-4 29 29 0 00-8-2.5 38.5 38.5 0 00-8.2-.3c-3.6.2-4.4 1-9.8 1-5.3 0-7.6-2.9-11-2.3-2.4.4-3.9 1.3-5.6 2-1.4.7-3.1.9-3.4 1l-2.5.2s-.8-1.3-3.6-1c-4.3.6-5.6 2.3-6.4 2.5l-1 .2c-.3.1-.7 1-1 1.1-.8.6-.2 1-.4 1.3-.1.2-.8.2-1.3.4l-1.1.7c-.6.1-.3.6-1.5 1.2-.3.2-2 .3-2.2.8-.1.3 0 .9.4 1.1.4.8.4 1 .3 1.3l.1 1c.2.3.7.2 1.2.3.5 0 1.2.2 1.9 0 .8 0 1.5-.3 2-.4 1.5-.3 2.3.6 2.5 1.9 0 1-1 1-1.2 1.3-.3.3-.6.9-.9 1-.3 0-.3.4-.6.5 0 0-.5.1-1 .5a1 1 0 01-.4.3c-.2 0-.3.4 0 .6.3.2.3.3 1 .3.6 0 1.2.7 1.6.6.4 0 .5-.5 1.3-.6.9-.1 1.2-.8 2 0 .6.7 1.3.4 1.7.7.3.3.8.3 1 .5 0 .1 0 .4.2.4l.8-.8c.1.4.4 1 .7 1.2.2-.5.5-.9 1-1.2-.2.3.1.7 0 1.1.6-.1.9-1 .9-1s.4.5.9 2c1.1 3.2 2.7 2.3 3.1 4.3.2.7-.3 2.1-.2 4.4-.4 3.3.4 5.9 0 6.7-.2.9-1 2.7-1.6 2.8-1.3-.4-2.3.6-3 .4-.4-.1-1.6 0-2.5-.4-.8-.7-1.8.1-1.7.6 0 .1.4.1.7.8l.1.7s-.5.4-.5 1c.1.1.5 0 .8.2.3.1.5.5.6.7-.3.4-.2.5-.2.7 0 .2.2.5.3.5.2-.3.6-.4 1-.2.7.3.3.7 1.3.8.2-.6 1.2-.8 1.5.3.4.3 1 .1 1.5-.1.3-.2.5-.7.8-1 .4-.4 1-.5 1-.6 1.2-.5 1.7-.2 3-1.2.5-.6-.4.2 1-1 .3-.2 1.7-.8 2.6-2 .7-1.1.3-2.3.8-3.4.6-1.4.1-2.9.9-4.3.8-1.7 2.4-2.6 3.2-4a45 45 0 001.9-3.3l1.4.5c1 .4 2.6 1 5 1.2a36 36 0 006.6-.8c1.8-.3 3.9-1 6.9-1 3.7 0 6.1.7 7.5.6.5 0 1.4-.1 2.1-.4.9 1.9 1.5 4.7 4 6.4 2.1 1.6 2.2 1.2 3.4 2.8 1 1.3 1 2 1.8 2.8.7.7 1 2.6.5 2.7-1.3-.2-1.6.7-2.5.6-.3 0-1.5.2-2.5 0-.8-.6-1.7.3-1.6.8 0 0 .5 0 .9.6l.2.7s-.5.5-.3 1c0 .2.5 0 .8.1.3.1.6.5.7.7-.3.4-.2.5-.1.7 0 .2.2.4.3.4.2-.3.6-.4 1-.3.7.1.4.7 1.4.6.2-.6 1.1-1 1.6.1.4.2 1 0 1.4-.4.3-.2.4-.7.7-1 .3-.5.6-.7.7-.8 1-.7 2.6-.6 3.6-1.8l1.1-1.6c.3-.6 0-.5 0-2 .2-1-.7-2.6-1.9-4s-1.4-2-1-5.5c0-1.3 1-4 1.5-7.2a20.6 20.6 0 000-4.6c-.3-.6 2.1 1.5 3.6-1.2.1-.2-1-.2-2-.5z"/><path d="M81.7 81.7s.4-.5.3-1.4a3.2 3.2 0 00-1.3-1.8 3.6 3.6 0 00-2.2-.5c-.6 0-1.2.7-1.2.7"/><path fill="#f6f6f6" d="M67.2 83.6c0-.2.4-.8.8-.8s.7.3 1.2.6c-.1.1-.2.5-1 .6-.6.1-1-.2-1-.4z"/><g fill="#000" stroke="none"><path d="M116.8 108c.8.1.5 1.5.1 1.5V108z"/><path d="M117.5 105.8c1 .5 1.1 1.9.6 2.8 0-1 0-2-.6-2.8z"/><path d="M118.1 103.8c1.6.7 1.8 2.9 1.2 4.3 0-1.4 0-3.3-1.2-4.3z"/><path d="M119.2 102.4c1 .9 1.7 2.5 1 3.8a8 8 0 00-1-3.8z"/><path d="M97.4 109.4c1.2-.1 1 2.4.4.7 0-.3-.2-.5-.4-.7z"/><path d="M97 107.2c1.2 0 2 1.2 1.7 2.3-.3-1-.7-1.8-1.7-2.3z"/><path d="M97.2 104.6c1.7 0 2.8 1.9 2.8 3.4-.6-1.2-1.3-3-2.8-3.4z"/><path d="M98.6 103c1 .5 1.8 1.5 1.7 2.5-.4-.9-1.1-1.6-1.7-2.5z"/><path d="M113.6 116.1c.3.5-.4 1.4-.7 1.2.1-.4.4-.8.7-1.2z"/><path d="M109 122.4c-.3-.9.3-2.1 1.1-2 .4-.1 2-1 1.5-.5-.8.7-2.6.8-2.2 2.2.2.2-.3.2-.3.3z"/><path d="M106.9 120.6c.5-1 1-.5 1.5-1a6 6 0 012.1-.4c-.8.5-1.8.3-2.5 1-.6-.2-.7 1-1.1.4z"/><path d="M106.2 118.5c.2-.5 1.4-.2 1 0 .6-.6 2.8-.1 2.5 0l-2.7.2c-.3-.2-.6.3-.8-.2z"/><path d="M108 119.3c-1.5-.7 0-1.3 0 0z"/><path d="M109 120.4c-1 .1-1.3-1-.2-.3 0 0 .3.2.2.3z"/><path d="M107.2 116.4c.3.2.7.8.4 1.1 0-.4-1-.8-.4-1z"/><path d="M110.2 120.3c1-.2 2 1.3.6.5-.4-.2-.7.1-.6-.5z"/><path d="M96.3 116.3c.4.4 0 1.3-.5 1.3l.5-1.3z"/><path d="M92 122.6c-.4-.8.3-2.1 1-2 .4-.1 2.1-1 1.6-.4-.8.6-2.7.7-2.3 2.1.2.2-.2.2-.3.3z"/><path d="M89.8 120.9c.5-1 1-.6 1.5-1.1a6 6 0 012.2-.3c-.8.4-1.9.2-2.6.9-.5-.2-.7 1-1 .5z"/><path d="M89.1 118.7c.2-.4 1.4-.2 1.1 0 .5-.5 2.7 0 2.4 0l-2.6.2c-.4-.2-.7.3-.9-.2z"/><path d="M90.9 119.5c-1.4-.7.1-1.3 0 0z"/><path d="M92 120.6c-1 .2-1.3-1-.3-.3l.3.3z"/><path d="M90.2 116.6c.3.3.6.8.4 1.2-.1-.4-1-.8-.4-1.2z"/><path d="M93.1 120.6c1-.3 2 1.3.6.4-.3-.1-.7.1-.6-.4z"/><path d="M114.6 114.2c.8-.2.5 1.4.2 1.1 0-.3 0-.8-.2-1.1z"/><path d="M116 113.8c.4.4.3 2.1 0 1.4 0-.4-.4-1 0-1.4z"/><path d="M116.8 113.4c1 .1.4 1.7-.1 1.5.2-.4.3-1 .1-1.5z"/><path d="M117.9 114.5c-1.1-.7 1-2.3.1-.8a2 2 0 00-.1.8z"/><path d="M97.3 114.4c.8-.2.5 1.4.2 1.1 0-.3 0-.8-.2-1z"/><path d="M98.7 114c.4.4.3 2.1 0 1.5 0-.5-.3-1 0-1.4z"/><path d="M99.5 113.6c1 .1.4 1.7-.1 1.5.2-.4.3-1 .1-1.5z"/><path d="M100.6 114.7c-1.1-.6 1-2.3.1-.8a2 2 0 00-.1.8z"/><path d="M132.5 112.9c.6-.5 1.1 1 .6.9 0-.3-.3-.7-.6-1z"/><path d="M133.5 112c.4.2 1.2.8.8 1.4 0-.6-.9-.9-.8-1.5z"/><path d="M134 111.1c.9-.3 1.2 1.3.6 1.4 0-.4 0-1.2-.6-1.4z"/><path d="M135.5 111.6c-.6.1-.9-1-.5-1-.4 0 .4-.1.3.6 0 .1 0 .3.2.4z"/><path d="M134 93c2.1 3 2 7 1 10.4.5-1.7 1-7.2-1-10.3z"/><path d="M137.2 91.3c.1.7 1.4 2 .6 2.3-.1-.8-.3-1.5-.6-2.3z"/><path d="M92.7 101.6l1-1.4c.5-.6 1.3-1.1 1.8-1.8.5-.6 0-1.9-.5-3.3-1.4-2.3.4-3.6.4-4-.2 1.2-.9 1.2-.7 2.6.6 2 1.5 3.3 1 4.7-.3.8-1 1.2-1.8 2-.3.5-.7 1.7-1.2 1.2z"/><path d="M79.4 103.4c0-1 0-2-.2-3-.3 1.4-.5-2.4-.7-.8-.6.5-.5-.9-.4-1.3 0-.3.7-2.3.5-1.3-.2.8-.5 1.8-.2 2.6-.7 0 .9-1.3.6-.1 0 1.7.5 0 .7 1.7 0 .8.2 1.6 0 2.4l-.3-.2z"/><path d="M84.6 97c-.7.4-1.5 1-.4-.2.1 0 .4 0 .4.2z"/><path d="M132.4 103.9c-.5.4-.1 1.5-1 1.4-1-.8.3 1.3-.7 1.4-.6 0-1.4-.8-.9-.2.2.8-.6.8-1.2.5-.3-.5-.2 1.6-.6.7.6.4-.1-1.7 1.1-.9.1 0 1-1.5 1.6-.3 0-.5 0-1.2.2-1.5 1.2.4.9-.3 1.5-1.1z"/><path d="M121.5 92.1c-.5 3.3.6 8.6.9 9.7-1-2.1-1.5-6.2-1-9.7z"/><path d="M77.5 98.6c-.8-.5-.7-1.6-.7-2.3.6.6.4 1.6.7 2.3z"/><path d="M79.2 93.6c.6 0 .4 1.2.1 1.3-.2-.4.1-1-.1-1.3z"/><path d="M79.7 91.8c1.1.2 0 2.3.2.6l-.2-.6z"/><path d="M80.5 90.2c1.2 0 0 2.2.2.3l-.2-.3z"/><path d="M80.1 87.7c.7-.3 1 1 1 1.1-.6-.1-.5-.9-1-1z"/><path d="M81.3 87.7c-.4-.3-.2-1.4.1-.5.1.2 0 .4-.1.5z"/><path d="M83.4 114.4c.9-.7 1.6 1.8.8.7l-.8-.7z"/><path d="M113 97.4c.3.8-.5 1.6-1 2.1 0-.8.8-1.4 1-2.1z"/><path d="M117.6 95.2c.5.3 0 1.6-.2 1.2-.2-.4.2-.8.2-1.2z"/><path d="M114 97.6c.8.7-.6 1.9 0 .4v-.4z"/><path d="M111.2 98.3c.9.1-.6 2-.5 1.2 0-.5.6-.8.5-1.2z"/><path d="M110 98.6c.4 1.5-.8.7 0 0z"/><path d="M116 96.7c.4.4-.2 1.1-.4 1.2-.2-.5.3-.8.4-1.2z"/><path d="M137.2 114.3c.6-.5 1.6.4 1.3.8-.4-.4-.8-.6-1.3-.8z"/><path d="M88.7 102.3c1.5 0 .8 2.7.5.7a2 2 0 00-.5-.7z"/><path d="M87.8 105.5c-.5-.4 0-2 .1-1.4 0 .5.2 1-.1 1.4z"/><path d="M85.6 106.5c1.2.3-.5 2.1 0 .7v-.7z"/><path d="M87 105.3c.6 0 .2 1.2-.1 1v-1z"/><path d="M84.5 108.6c-1-.5.4-1.8 0-.3v.3z"/><path d="M89.2 101.2c.7-1 1.5 1.4.6.3a1 1 0 00-.6-.3z"/><path d="M89 99.6c.7-.7 1.7.5 1.4.8-.4-.4-.7-.8-1.3-.8z"/><path d="M89.1 98.5c.4-.8 1.7.3 1.3.6-.3-.3-.8-.7-1.3-.6z"/><path d="M94.2 84c-2-1.9-5.2-2.6-7.6-1.2-1-.3-2 .3-2.7 1 .6-.9 1.7-1.6 2.8-1.3-.3 0 .5-.4.8-.5 2.4-.6 5.1 0 6.7 2z"/><path d="M86.5 83.1c0 .2-.3 1.5-.4.7 0-.2.1-.6.4-.7z"/><path d="M120.9 86.9c1.8-1.6 4.5-1.6 6.6-.8.2.5 1.4-.1 2 .5.9.4 1.7 1.1.4.3a4 4 0 00-2.2-.3c-1.7-1-4-.8-5.8-.2l-1 .5z"/><path d="M128 86.9c1 1 .6 2.4 0 0z"/><path d="M133.2 115.6c.6.3.4 1.5-.3 1.3.4-.3.2-1 .3-1.3z"/><path d="M129.9 122.5c-.8-.9.3-2.1.8-2.2.4-.1 2-1.4 1.3-.5-.6.8-2.1.8-2 2 0 .4.4.6-.1.7z"/><path d="M127.4 121.1c.5-1 1-.7 1.4-1.3.6-.4 1.5-.5 2.2-.8-.7.8-2 .6-2.5 1.4-.6 0-.5 1.1-1 .7z"/><path d="M126.4 119c.8-.7 1.2.1 1.6-.4.4-.2 3-.3 1.5 0-1 0-1.7.6-2.6.5-.2.3-.3.2-.5 0z"/><path d="M128.3 119.6c-1.5-.4-.1-1.4 0 0z"/><path d="M129.5 120.5c-.5.3-1.6-.5-.5-.4.2 0 .5.2.5.4z"/><path d="M127.2 116.8c1.4 1 0 1.3-.1.2v-.1z"/><path d="M130.7 120.3c.7-.4 2.2 1 .8.3-.4-.1-.8.4-.8-.3z"/><path d="M79.8 116.2c-.2 1.2-2.1 1.5-.6.4l.6-.4z"/><path d="M74.1 122.3c-.4-.8.3-2.1 1-2 .4-.1 2.1-1 1.6-.4-.8.6-2.7.7-2.3 2.1.2.2-.2.2-.3.3z"/><path d="M72 120.6c.5-1 1-.6 1.4-1.1a6 6 0 012.2-.3c-.8.4-1.9.2-2.5.9-.6-.2-.8 1-1.2.5z"/><path d="M71.2 118.4c.3-.4 1.4-.2 1.1 0 .6-.5 2.8 0 2.5 0l-2.7.2c-.4-.2-.7.3-.9-.2z"/><path d="M73 119.2c-1.4-.7.1-1.3 0 0z"/><path d="M74 120.3c-1 .2-1.2-1-.2-.3.1 0 .4.2.3.3z"/><path d="M72.3 116.3c.3.3.6.8.4 1.2 0-.4-1-.8-.4-1.2z"/><path d="M75.3 120.3c1-.2 2 1.3.5.4-.3-.1-.7.2-.5-.4z"/><path d="M76.8 79.6c0-1.4 1.2-1 0 0z"/><path d="M66.8 83.1c-1.5.3-1.3-1.9-.3-2.3 1.3-.7 2.7 0 3.3 1.1-.8-.8-1.9-1.4-3-.9-.8.2-1.3 2-.1 2z"/><path d="M68.3 91c.8.6 1 1.6 1.4 2.4-.8-.4-.9-1.7-1.4-2.4z"/><path d="M71 93.4c-.6-1.8-2.5-3-3-4.9.8 1.8 2.7 3 3 5z"/><path d="M66.6 85.8c.5 1.5 1.7 2.4 2.7 3.4 0 .2-1.1-.7-1.5-1-.6-.7-1-1.5-1.2-2.4z"/><path d="M69 88c-1.2-.5-2-1.6-2.4-2.8.7 1 1.4 2 2.4 2.7z"/><path d="M68.3 86c-.7.2-1.4-.5-1.4-1.2.4.5.8 1 1.4 1.2z"/><path d="M67.7 84.8c-.5.3-1.1-1-.5-.5l.5.5z"/><path d="M73.6 87.7c-1.2 0-2.9.8-3.7-.5 1 .9 2.5-.1 3.7.5z"/><path d="M70.2 83.3c.5-.1 1-.2 1.3-.5.5 0 0 .5.3 0 .5.3-.4 1 .2.6-.4.5-.4-.3-.4-.3-.1-.6.1.1 0 0-.4.6-.9.3-1.4.2z"/><path d="M62.8 84.6c.4-.3.9-1.2 1.5-.8-.5 0-.9.8-1.5.8z"/><path d="M59.5 86.8c.1-.8.9-.2.8.1-.2.8.3-.4 0 .4-.1-.4.3-.7.7-1 .7-.2-.1.2-.2.5-.3 1-.5 0-.4.5-.4-.7.3.4-.3-.2-.1-.4-.2-.6-.6-.3z"/><path d="M60.8 87c.3.7-1 .8-.7.3.3.3.5 0 .7-.4z"/><path d="M69.2 84c0 .6-1.2.7-1.3.4.5 0 1-.2 1.3-.4z"/><path d="M65 95c0 .3-.7.9-.6.2.2 0 .4 0 .5-.3z"/><path d="M69.7 83.1c0 .3-.8.8-.5.1l.5-.1z"/><path d="M67.3 83.8c-.6.3-1.3.4-2 .2.7.5 1.8-1 2-.3z"/><path d="M67.1 83c-.2-1 1.3-1.3 2-.7-.8 0-1.7 0-2 .8z"/><path d="M76.4 80.8c.8.4 1.7 0 1.7-1 .2-1.4 2.4-.7 2.3.6.3.8-.5 2-1 2.2 1.3-.8 1.1-3.6-.7-3.3-.6.4-.6 2-1.7 1.7-.2 0-.4 0-.6-.2z"/><path d="M78.6 81.8c-.2-.5-.6-2.4-.1-1 .1.3.4.7 0 1z"/><path d="M79.7 81.4c.1-.7-1.4-.8-.4-1.4.6-.6-.2.4 0 .5.3 0 .6.5.4 1z"/><path d="M80.5 83.2c.2-1 2.3-2.2.6-.7-.2.3-.5.4-.6.7z"/><path d="M64.8 94.6l2-2c-.3.8-.6 1.7-1.6 1.8.1.2-.5 0-.4.2z"/><path d="M77.5 87.8c.6.5.5 2.4-.3 1.2.4 0 0 1.4-.2 1.9-.2.7-1 .8-1 0 .3-1.2 0 1.4-.6 1.9-.8 1.4-1 0-.7-1 0 1.3-.1 2 .6.6.5-.5.3-2.4 1-2 0 .4.5 1 0 .8.7-.6.6-1.8 1-2.4.5.1.3.8.4.1 0-.4 0-.7-.2-1z"/><path d="M68.3 83.7c.6-1.8-1.4-.4 0 0z"/></g></g></svg>