<svg xmlns="http://www.w3.org/2000/svg" fill="#d7374a" stroke="#000" viewBox="50 50 200 200"><metadata license="https://creativecommons.org/licenses/by-nc-sa/3.0" source="http://wappenwiki.org/images/0/0d/Smolensk_1857.svg"/><g id="cannon" stroke-width="3"><path stroke-width=".4" d="M98.15 99.13l10.87 20.33 3.8 3.44-.94-26.38-13.73 2.61z"/><g transform="matrix(.13 0 0 .13 56.46 96.74)"><g transform="translate(263 154)"><path d="M-11.4-23.6c3.5 3.5 5.2 15 5.2 21.9v20.2h17.4V-1.7c0-6.8 1.6-18.4 5.2-21.9"/><path d="M16.1-25.5c-3.5-3.5-5.2-15-5.2-21.9v-20.2H-6.5v20.2c0 6.8-1.6 18.4-5.2 21.9"/><path d="M2.3-18.3c-8.8 0-14.6-2.6-14.8-2.8-1.6-.8-2.2-3-1.9-4.7.3-1.9 1.5-3.1 2.9-3.1.4 0 .7.1 1 .2 0 0 5.1 2.3 12.7 2.3s12.7-2.3 12.8-2.3c.3-.2.7-.2 1-.2 1.4 0 2.6 1.2 2.9 3.1.3 1.8-.3 4-1.9 4.7-.4.3-6 2.8-14.7 2.8z"/><path d="M-70.1-109.8c-3.5 3.5-15 5.2-21.9 5.2h-20.2v17.4H-92c6.8 0 18.4 1.6 21.9 5.2"/><path d="M-68.9-79.3c-1.7 0-3.2-.8-3.8-2-.3-.6-2.8-6.2-2.8-14.8s2.5-14.2 2.8-14.8c.6-1.2 2-2 3.8-2 .3 0 .6 0 .9.1 1.3.2 2.3.9 2.8 1.8.4.7.4 1.5 0 2.2 0 0-2.3 5.1-2.3 12.7s2.3 12.7 2.3 12.8c.1.3.2.7.2 1 0 1.4-1.2 2.6-3.1 2.9-.2.1-.5.1-.8.1h0z"/><path d="M-58.7-54.6c0 5-7 14.3-11.8 19.1l-14.3 14.3 12.3 12.3 14.3-14.3C-53.4-28-44.1-35-39.1-35"/><path d="M-37.8-36.5c0-5 7-14.3 11.8-19.1l14.3-14.3L-24-82.2l-14.3 14.3c-4.8 4.8-14.1 11.8-19.1 11.8"/><path d="M43.9-35.1c5 0 14.3 7 19.1 11.8L77.3-9l12.3-12.3-14.3-14.3c-4.8-4.8-11.8-14.1-11.8-19.1"/><path d="M62-55.9c-5 0-14.3-7-19.1-11.8L28.6-82 16.3-69.8l14.3 14.3c4.8 4.8 11.8 14.1 11.8 19.1"/><path d="M43.9-32.4c-1.3 0-2.8-.8-3.7-2.2-.8-1.1-1-2.3-.7-3.3.2-.7.8-1.3 1.5-1.6 0 0 5.2-2 10.6-7.4C57-52.3 59-57.5 59-57.5a2.49 2.49 0 012.5-1.6c.8 0 1.6.3 2.4.9 1.5 1 2.6 3 2 4.7-.2.6-2.5 6.4-8.5 12.4-6.1 6.1-11.8 8.3-12.4 8.5-.4.2-.7.2-1.1.2h0z"/><path d="M-112.9-162.5C-76.1-226.2 5.3-248 68.9-211.2S154.4-93 117.6-29.4C80.8 34.3-.6 56.1-64.2 19.3c-63.7-36.7-85.5-118.1-48.7-181.8zM-48.4-8C.2 20.1 62.4 3.4 90.5-45.2S101.9-156 53.3-184.1s-110.8-11.4-138.9 37.2S-97.1-36.1-48.4-8z"/><path d="M2.3-136.2c-22.1 0-40.1 18-40.1 40.1S-19.8-56 2.3-56s40.1-18 40.1-40.1-17.9-40.1-40.1-40.1zm0 60.2a20 20 0 1120-20c.1 11-8.9 20-20 20z"/><circle cx="2.3" cy="-96.1" r="20"/></g><g><path d="M304.9-106.1c6.3-.9 14-11.3 19.8-15.6 9.6-7 21.4-4.9 30 4 2.6 2.7 2.9 3.8 5.7 6.2 2.9 2.4 7.2 3.2 10.9 3l17.5-.8s-2.8-.7-7.9-5.8c-4.2-4.2-8.3-8.6-12.4-12.9-13.8-14.4-35.6-16.9-52.7-6.5-8.6 5.2-15.4 17.6-25.6 19-1.6.2-3.2.2-4.7.6-4.1 1-6.8 5.2-6.7 9.4 0 .1 25.1-.5 26.1-.6z"/><ellipse cx="51.7" cy="-68.6" rx="19.6" ry="48.4"/><ellipse cx="51.7" cy="-68.6" rx="5.9" ry="24.2"/><circle cx="628.3" cy="-68.6" r="15.8"/><path d="M614.6-77c-14.7-11.9-25.2-29.8-40.5-46.3 5.4 7.4 15.4 22.4 15.4 54.7s-10 47.3-15.4 54.7c15.4-16.5 25.8-34.4 40.5-46.3 0 0-1-3.4-1-8.4s1-8.4 1-8.4z"/><path d="M51.7-20.2c10.8 0 19.6-21.7 19.6-48.4S62.5-117 51.7-117c59 15 194.5 7 272.7 5.1 113-2.7 249.6-11.4 249.6-11.4 5.4 7.4 15.4 22.4 15.4 54.7s-10 47.3-15.4 54.7c0 0-136.5-8.8-249.6-11.4-78.2-1.8-212.8-10.1-272.7 5.1z"/><path d="M395.9-18c-.6 0-1.3-.1-1.9-.3-3.3-1.1-5.1-2.5-4.1-5.8.1-.3 3.8-12.9 3.8-44.5 0-31.8-3.8-44.4-3.8-44.5-1-3.3.8-4.7 4.1-5.8 3.3-1 6.8.8 7.9 4 .2.6 4.4 12 4.4 46.3s-4.2 45.7-4.4 46.3c-.8 2.6-3.3 4.3-6 4.3z"/><path d="M502.8-12.2c-.6 0-1.3-.1-1.9-.3-3.3-1.1-5.1-2.5-4.1-5.8.1-.3 4.3-14.5 4.3-50.2 0-35.9-4.3-50.1-4.3-50.3-1-3.3.8-4.7 4.1-5.8 3.3-1 6.8.8 7.9 4.1.2.6 4.9 13.6 4.9 52s-4.7 51.4-4.9 52c-.9 2.6-3.4 4.3-6 4.3z"/><path d="M249.1-21.4c-.6 0-1.3-.1-1.9-.3-3.3-1.1-5.1-2.5-4.1-5.8.1-.3 3.5-11.9 3.5-41 0-29.3-3.5-40.9-3.5-41-1-3.3.8-4.7 4.1-5.8 3.3-1 6.8.8 7.9 4 .2.5 4.1 11 4.1 42.8s-4 42.3-4.1 42.8c-.9 2.6-3.3 4.3-6 4.3z"/><path d="M131.6-22.7c-.6 0-1.3-.1-1.9-.3-3.3-1.1-5.1-2.5-4.1-5.8.1-.3 3.4-11.6 3.4-39.8 0-28.5-3.4-39.7-3.4-39.8-1-3.3.8-4.7 4.1-5.8 3.3-1 6.8.8 7.9 4 .2.5 4 10.7 4 41.6s-3.8 41.1-4 41.6a6.3 6.3 0 01-6 4.3z"/><path d="M344.8-112.4c6.3-.9 14-11.3 19.8-15.6 9.6-7 21.4-4.9 30 4 2.6 2.7 2.9 3.8 5.7 6.2 2.9 2.4 7.2 3.2 10.9 3l17.5-.8s-2.8-.7-7.9-5.8c-4.2-4.2-8.3-8.6-12.4-12.9-13.8-14.4-35.6-16.9-52.7-6.5-8.6 5.2-15.4 17.6-25.6 19-1.6.2-3.2.2-4.7.6-4.1 1-6.8 5.2-6.7 9.4-.1.1 25.1-.5 26.1-.6z"/></g><path d="M620.4 166.3c-11.2 0-19.7-5.9-25.2-14.2-5-7.6-7.5-16.8-13.8-23.5-7.8-8.4-21.2-10.9-31.5-6 1.7-30.3-25.1-46.4-50.3-37.3L435.8-43.6H193v88.4h157l83.6 156.4h186.7l.1-34.9h0z"/><path d="M182.7-13.9l-9.8-8.9-1-6.4h-8.2v47.6L193 44.8v-88.4h-6l-4.3 29.7z"/><circle cx="513.4" cy="123.1" r="17.6"/><g transform="translate(163 82)"><path d="M179-86.6c-3.5-3.5-5.2-15-5.2-21.9v-20.2h-17.4v20.2c0 6.8-1.6 18.4-5.2 21.9"/><path d="M151.5-84.6c3.5 3.5 5.2 15 5.2 21.9v20.2h17.4v-20.2c0-6.8 1.6-18.4 5.2-21.9"/><path d="M179-81.3c-.4 0-.7-.1-1-.2 0 0-5.1-2.3-12.7-2.3s-12.7 2.3-12.8 2.3c-.3.1-.7.2-1 .2-1.4 0-2.6-1.2-2.9-3.1-.3-1.8.3-4 1.9-4.7.6-.3 6.2-2.8 14.8-2.8s14.2 2.5 14.8 2.8c1.6.8 2.2 3 1.9 4.7-.3 1.9-1.5 3.1-3 3.1z"/><path d="M151.5 58.4c3.5 3.5 5.2 15 5.2 21.9v20.2h17.4V80.3c0-6.8 1.6-18.4 5.2-21.9"/><path d="M179 56.5c-3.5-3.5-5.2-15-5.2-21.9V14.4h-17.4v20.2c0 6.8-1.6 18.4-5.2 21.9"/><path d="M165.2 63.7c-8.8 0-14.6-2.6-14.8-2.8-1.6-.8-2.2-3-1.9-4.7.3-1.9 1.5-3.1 2.9-3.1.4 0 .7.1 1 .2 0 0 5.1 2.3 12.7 2.3s12.7-2.3 12.8-2.3c.3-.2.7-.2 1-.2 1.4 0 2.6 1.2 2.9 3.1.3 1.8-.3 4-1.9 4.7-.4.3-6 2.8-14.7 2.8z"/><path d="M237.7-.3c3.5-3.5 15-5.2 21.9-5.2h20.2v-17.4h-20.2c-6.8 0-18.4-1.6-21.9-5.2"/><path d="M235.8-27.9c-3.5 3.5-15 5.2-21.9 5.2h-20.2v17.4h20.2c6.8 0 18.4 1.6 21.9 5.2"/><path d="M236.5 2.7c-.3 0-.6 0-.9-.1a3.8 3.8 0 01-2.8-1.8c-.4-.7-.4-1.5-.1-2.2 0 0 2.3-5.1 2.3-12.7s-2.3-12.7-2.3-12.8c-.2-.3-.2-.7-.2-1 0-1.4 1.2-2.6 3.1-2.9.3-.1.6-.1.9-.1 1.7 0 3.2.8 3.8 2 .1.2 2.8 6 2.8 14.8 0 8.6-2.5 14.2-2.8 14.8-.6 1.3-2.1 2-3.8 2h0z"/><path d="M92.8-27.8c-3.5 3.5-15 5.2-21.9 5.2H50.7v17.4h20.2c6.8 0 18.4 1.6 21.9 5.2"/><path d="M94.7-.3c3.5-3.5 15-5.2 21.9-5.2h20.2v-17.4h-20.2c-6.8 0-18.4-1.6-21.9-5.2"/><path d="M94 2.7c-1.7 0-3.2-.8-3.8-2-.3-.6-2.8-6.2-2.8-14.8s2.5-14.2 2.8-14.8c.6-1.2 2-2 3.8-2 .3 0 .6 0 .9.1 1.3.2 2.3.9 2.8 1.8.4.7.4 1.5 0 2.2 0 0-2.3 5.1-2.3 12.7s2.3 12.7 2.3 12.8c.1.3.2.7.2 1 0 1.4-1.2 2.6-3.1 2.9-.2.1-.5.1-.8.1h0z"/><path d="M226.3-55.6c0-5 7-14.3 11.8-19.1L252.4-89l-12.3-12.3L225.8-87c-4.8 4.8-14.1 11.8-19.1 11.8"/><path d="M205.4-73.7c0 5-7 14.3-11.8 19.1l-14.3 14.3L191.6-28l14.3-14.3c4.8-4.8 14.1-11.8 19.1-11.8"/><path d="M224.4-51.1c-1.1 0-2.1-.6-2.4-1.6 0 0-2-5.2-7.4-10.6-5.4-5.4-10.6-7.4-10.6-7.4-.3-.1-.6-.3-.9-.6-1-1-1-2.7.1-4.3.9-1.3 2.4-2.2 3.7-2.2.3 0 .7.1 1 .2.6.2 6.4 2.5 12.4 8.5 6.1 6.1 8.3 11.8 8.5 12.4.6 1.7-.5 3.6-2 4.7-.8.6-1.6.9-2.4.9h0z"/><path d="M104.2 27.4c0 5-7 14.3-11.8 19.1L78.1 60.8l12.3 12.3 14.3-14.3C109.5 54 118.8 47 123.8 47"/><path d="M125.1 45.5c0-5 7-14.3 11.8-19.1l14.3-14.3L138.9-.2l-14.3 14.3c-4.8 4.8-14.1 11.8-19.1 11.8"/><path d="M123.6 49.6c-.3 0-.7-.1-1-.2-.6-.2-6.4-2.5-12.4-8.5-6.1-6.1-8.3-11.8-8.5-12.4-.6-1.7.5-3.6 2-4.7.8-.6 1.6-.9 2.4-.9 1.1 0 2.1.6 2.4 1.6 0 0 2 5.3 7.4 10.6 5.4 5.4 10.6 7.4 10.6 7.4.3.1.6.3.9.6 1 1 1 2.7-.1 4.3a4.5 4.5 0 01-3.7 2.2h0z"/><path d="M206.8 46.9c5 0 14.3 7 19.1 11.8L240.2 73l12.3-12.3-14.3-14.3c-4.8-4.8-11.8-14.1-11.8-19.1"/><path d="M224.9 26.1c-5 0-14.3-7-19.1-11.8L191.5 0l-12.3 12.2 14.3 14.3c4.8 4.8 11.8 14.1 11.8 19.1"/><path d="M206.8 49.6c-1.3 0-2.8-.8-3.7-2.2-.8-1.1-1-2.3-.7-3.3.2-.7.8-1.3 1.5-1.6 0 0 5.2-2 10.6-7.4 5.4-5.4 7.4-10.6 7.4-10.6a2.49 2.49 0 012.5-1.6c.8 0 1.6.3 2.4.9 1.5 1 2.6 3 2 4.7-.2.6-2.5 6.4-8.5 12.4-6.1 6.1-11.8 8.3-12.4 8.5-.4.2-.7.2-1.1.2h0z"/><path d="M123.7-75.1c-5 0-14.3-7-19.1-11.8l-14.3-14.3L78-88.9l14.3 14.3c4.8 4.8 11.8 14.1 11.8 19.1"/><path d="M105.6-54.2c5 0 14.3 7 19.1 11.8L139-28.1l12.3-12.3L137-54.7c-4.8-4.8-11.8-14.1-11.8-19.1"/><path d="M106.1-51.1c-.8 0-1.6-.3-2.4-.9-1.5-1-2.6-3-2-4.7.2-.6 2.5-6.4 8.5-12.4 6.1-6.1 11.8-8.3 12.4-8.5.3-.1.6-.2 1-.2 1.3 0 2.8.8 3.7 2.2.8 1.1 1 2.3.7 3.3-.2.7-.8 1.3-1.5 1.6 0 0-5.3 2-10.6 7.4-5.4 5.4-7.4 10.6-7.4 10.6-.1.3-.3.6-.6.9-.4.4-1.1.7-1.8.7h0z"/><path d="M50-80.5c36.8-63.7 118.2-85.5 181.8-48.7S317.3-11 280.5 52.6c-36.8 63.7-118.2 85.5-181.8 48.7C35 64.6 13.2-16.8 50-80.5zM114.5 74c48.6 28.1 110.8 11.4 138.9-37.2S264.8-74 216.2-102.1 105.4-113.5 77.3-64.9 65.8 45.9 114.5 74z"/><path d="M165.2-54.2c-22.1 0-40.1 18-40.1 40.1s18 40.1 40.1 40.1 40.1-18 40.1-40.1-17.9-40.1-40.1-40.1zm0 60.2a20 20 0 1120-20c.1 11-8.9 20-20 20z"/><circle cx="165.2" cy="-14.1" r="20"/></g></g></g></svg>