<svg xmlns="http://www.w3.org/2000/svg" fill="#d7374a" stroke="#000" viewBox="50 50 200 200">
<metadata source="http://wappenwiki.org/images/5/50/Neuhoff.svg" license="https://creativecommons.org/licenses/by-nc-sa/3.0"/>
  <g id="chain" stroke-width="3" transform="translate(50 50) scale(0.12)">
    <path d="M410.6 553.4c-23.7 0-46.8-11.8-64.8-33.3-20.9-24.8-32.5-58.6-32.5-95s11.5-70.2 32.5-95c18.1-21.5 41.1-33.3 64.8-33.3s46.8 11.8 64.8 33.3c20.9 24.8 32.5 58.6 32.5 95s-11.5 70.2-32.5 95c-18.1 21.5-41.1 33.3-64.8 33.3m0 68.6c91.6 0 165.9-88.2 165.9-197s-74.3-197-165.9-197-165.9 88.2-165.9 197 74.2 197 165.9 197h0z"/>
    <path d="M335.3 249.5c-14.3-22.8-22.1-50.9-22.1-80.8 0-20.7 3.7-40.5 10.7-58.3-23.1-5.6-44.9-13.2-64.9-22.2-9.3 24.6-14.5 51.8-14.5 80.5 0 49 15.1 93.7 40 128.2 14.2-19.5 31.4-35.7 50.8-47.4z"/>
    <path d="M562 88.2c-20.1 9-41.8 16.6-64.9 22.2 7 17.8 10.7 37.6 10.7 58.3 0 36.5-11.5 70.2-32.5 95-18.1 21.5-41.1 33.3-64.8 33.3-1.5 0-3 0-4.4-.1-22.2 1.4-43.4 13-60.4 33.1-3.8 4.5-7.2 9.3-10.4 14.3 22.6 13.6 48.1 21.4 75.2 21.4 91.6 0 165.9-88.2 165.9-197 .1-28.7-5.1-55.9-14.4-80.5z"/>
    <path d="M335.4 600.6c-19.4-11.8-36.7-27.9-50.8-47.4-24.9 34.5-40 79.2-40 128.2 0 28.7 5.2 55.9 14.5 80.5 20.1-9 41.8-16.6 64.9-22.2-7-17.8-10.7-37.6-10.7-58.3 0-29.9 7.7-57.9 22.1-80.8z"/>
    <path d="M410.6 484.4c-27.1 0-52.6 7.7-75.2 21.4 3.1 5 6.6 9.8 10.4 14.3 16.9 20.1 38.2 31.8 60.4 33.1 1.5-.1 2.9-.1 4.4-.1 23.7 0 46.8 11.8 64.8 33.3 20.9 24.8 32.5 58.6 32.5 95 0 20.7-3.7 40.5-10.7 58.3 23.1 5.6 44.9 13.2 64.9 22.2 9.3-24.6 14.5-51.8 14.5-80.5-.1-108.8-74.4-197-166-197z"/>
  </g>
</svg>