<svg xmlns="http://www.w3.org/2000/svg" fill="#d7374a" stroke="#000" viewBox="50 50 200 200"><metadata author="Azgaar" license="https://creativecommons.org/publicdomain/zero/1.0"/><g id="crossAvellane" stroke-width=".5"><path d="M99.9 60c-1.8 0-2.4 3.2-4.2 3.5-2.6.5-4.9-3.2-7.6-2.4-2.6.7-5 3-6.4 6.3 1.9-2 4.3-2.6 6.5-1.6 2.2.9 4.1 3.3 5 6.4.3 1.2.1 2.5-.5 3.5-.8 1.8-1.3 6-1.3 8.1 0 6.6 2 9.8 7.6 10.2a5.3 5.3 0 00-5 5c-.3-5.6-3.6-7.5-10.3-7.5-2.1 0-6.3.4-8.1 1.3-1 .6-2.3.8-3.5.5-3.1-.9-5.5-2.7-6.4-4.9-.9-2.2-.3-4.6 1.6-6.5-3.3 1.4-5.6 3.7-6.3 6.4-.7 2.6 2.9 4.9 2.4 7.5-.3 1.7-3.2 2.3-3.2 4.1 0 1.8 2.9 2.5 3.2 4.3.4 2.6-3.1 4.9-2.4 7.5.7 2.6 3 4.9 6.3 6.4-1.9-1.9-2.5-4.2-1.7-6.4.9-2.2 3.2-4 6.2-5 1.2-.3 2.6-.2 3.6.4 1.8.9 6.1 1.3 8.2 1.3 6.6 0 10.1-1.8 10.4-7.4.2 2.9 2.1 4.7 5 5-5.6.3-7.7 3.4-7.7 10.1 0 2.1.4 6.3 1.3 8.1.6 1 .8 2.3.5 3.5-.9 3.1-2.7 5.5-5 6.4-2.2.9-4.6.3-6.5-1.6 1.4 3.3 3.7 5.6 6.4 6.3 2.6.7 5-2.9 7.6-2.4 1.8.3 2.5 3.3 4.2 3.3 1.8 0 2.4-3 4.2-3.3 2.6-.5 4.9 3.2 7.6 2.4 2.6-.7 5-3 6.4-6.3-1.9 1.9-4.2 2.6-6.4 1.7-2.2-.9-4-3.2-5-6.2-.3-1.2-.2-2.6.4-3.6.9-1.8 1.3-6.1 1.3-8.2 0-6.6-1.7-9.8-7.3-10.2a5.3 5.3 0 005-5c.3 5.6 3.3 7.5 10 7.5 2.1 0 6.4-.5 8.2-1.3 1-.6 2.4-.7 3.6-.4 3 .9 5.3 2.7 6.2 5 .9 2.2.3 4.6-1.7 6.4 3.3-1.4 5.6-3.7 6.3-6.4.7-2.6-2.9-4.9-2.4-7.5.3-1.8 3.4-2.6 3.4-4.4 0-1.7-3-2.3-3.4-4-.5-2.6 3.1-4.9 2.4-7.5-.7-2.6-3-4.9-6.3-6.4 2 1.9 2.6 4.3 1.6 6.5-.9 2.2-3.3 4.1-6.4 4.9-1.2.3-2.5.1-3.5-.5-1.8-.8-6-1.3-8.1-1.3-6.6 0-9.6 1.8-9.9 7.4-.2-2.8-2.1-4.7-5-5 5.6-.3 7.2-3.4 7.2-10.1 0-2.1-.5-6.4-1.3-8.2-.5-1-.7-2.4-.4-3.6.9-3 2.7-5.3 5-6.2 2.2-.9 4.6-.3 6.4 1.7-1.4-3.3-3.7-5.6-6.4-6.3-2.6-.7-5 2.9-7.6 2.4-1.8-.4-2.3-3.5-4.2-3.5z"/></g></svg>