<svg xmlns="http://www.w3.org/2000/svg" fill="#d7374a" stroke="#000" viewBox="50 50 200 200"><metadata author="Azgaar" license="https://creativecommons.org/publicdomain/zero/1.0"/><g id="crossMoline" stroke-width=".5"><path d="M104.3 74.9c0-6.4 2.7-11.4 5.1-14.8-4.1 0-7.2 2-9.4 4.9-2.2-2.9-5.3-4.9-9.4-4.9 2.5 3.4 5.1 8.4 5.1 14.8v20.8H74.9c-6.4 0-11.3-2.7-14.8-5.1 0 4.1 2 7.2 4.9 9.4-2.9 2.2-4.9 5.4-4.9 9.4 3.4-2.5 8.3-5.1 14.8-5.1h20.8v20.9c0 6.4-2.7 11.4-5.1 14.8 4.1 0 7.2-2 9.4-4.9 2.2 2.9 5.3 4.9 9.4 4.9-2.5-3.4-5.1-8.4-5.1-14.8v-20.9h20.8c6.4 0 11.3 2.7 14.8 5.1 0-4.1-2-7.2-4.9-9.4 2.9-2.2 4.9-5.4 4.9-9.4-3.4 2.5-8.3 5.1-14.8 5.1h-20.8z"/></g></svg>