<svg xmlns="http://www.w3.org/2000/svg" fill="#d7374a" stroke="#000" viewBox="50 50 200 200"><metadata license="https://creativecommons.org/licenses/by-nc-sa/3.0" source="http://wappenwiki.org"/><g id="deerHeadCaboshed" stroke-width=".3"><path d="M95.11 134.69c.47.9.87 3.72 1.6 4.43a4.57 4.57 0 003.28 1.19c1.07 0 2.47-.4 3.28-1.19.73-.71 1.13-3.54 1.6-4.43"/><path d="M107.14 107.56c2.16-1.38 5.93-3.43 8.48-3.86 1.31-.23 2.73-.21 4.05-.32 3.17-.26 6.24-1.23 8.64-3.77.65.59.69 3.04-.01 4.71a12.26 12.26 0 01-3.79 4.85 11.59 11.59 0 01-6.38 2.37c-3.49.17-6.12-1.51-8.49-.91m-16.87-3.07c-2.16-1.38-5.93-3.43-8.48-3.86-1.31-.23-2.73-.21-4.05-.32-3.17-.26-6.24-1.23-8.64-3.77-.65.59-.69 3.04.01 4.71a12.26 12.26 0 003.79 4.85 11.59 11.59 0 006.38 2.37c3.49.17 6.12-1.51 8.49-.91"/><path d="M100.01 99.25h0c1.4 0 2.84-.65 4.56-.19 1.02.27 2.8.88 2.94 1.88.1.71.05-.07.36.58.31.64.13.69.78.97.59.25.77.25 1.16.25.72 0 1.64 1.39 1.62 2 1.25 3.85.36 4.6.47 5.69 1.35 4.37-.28 4.15-.28 6.46 0 1.55-.99 3.35-1.39 4.26-.49 1.35-3.5 4.31-3.78 7.9-.46 3.23-.83 3.99-.83 3.99s.48.96 0 2.05c-.34.77-.67 1-1.3 1.21-1.11.18-1.78 1.77-4.31 1.76-2.53.01-3.21-1.59-4.31-1.76-.63-.2-.96-.43-1.3-1.21-.49-1.09 0-2.05 0-2.05s-.36-.75-.83-3.99c-.28-3.59-3.29-6.56-3.78-7.9-.4-.91-1.39-2.71-1.39-4.26 0-2.31-1.62-2.08-.28-6.46.11-1.08-.78-1.83.47-5.69-.02-.61.9-2 1.62-2 .39 0 .57 0 1.16-.25.66-.28.47-.32.78-.97.31-.64.26.13.36-.58.14-.99 1.92-1.6 2.94-1.88 1.7-.46 3.14.19 4.56.19h-.02"/><path d="M105.89 100.69c-.19.05-1.01-.54-1.69-.1-.26.16-.46.49-.52.79-.06.3-.05.64.1.9s.67.62.97.52c-.08.45-.07 1.12 1.33 1.93.55.32 1.65.2 1.65.2.07.01.32.44.95.64.5.16.92.05 1.22-.38s.33-1.02.15-1.52a1.9 1.9 0 00-.4-.67c-.05-.06-.1-.11-.13-.18-.03-.08-.02-.16-.01-.24.06-.43.4-.75.55-1.16.48-.68 1.39-.89 2.05-1.92 0 0 2.51-.69 4.51-2.46.98-.62 1.92-2.23 2.49-2.69.85-.6 1.65.24 2.85.75 1.37.57 4.3.49 6.23-1.64 1.25-1.49 1.9-2.42 3.19-3.19 1.16-.7 2.14-.8 2.29-.84.21-.06.39-.25-.01-.46a4.27 4.27 0 00-2.49-.32c-1.69.21-2.57.88-3.99 2-1.19.95-2.53 1.69-3.79.62-.75-.63-.03-1.9.62-2.7.99-1.22 2.09-4.32 2.39-4.71 1.46-1.46 1.89-.62 3.58-2.45 1.4-1.52 1.53-3.25 1.76-4.65.53-3.26 2.39-3.6 2.67-3.78.28-.18.34-.51-.1-.54a4.74 4.74 0 00-3.51 1.43c-1.91 2.07-1.28 3.99-2.85 5.32-.57.49-1.37.11-1.21-.92.25-1.62-.66-5.5.82-6.63.85-.65.48-.2 1.67-1.11 2-1.53.38-5.05 3.33-7.31.3-.26.2-.46-.2-.48-.47-.13-1.51.09-2.27.68-2.17 1.66-1.32 3.52-2.67 4.71-.43.36-1.23.77-2.21.27-2.59-1.49-2.38-4.95-3.88-6.83a5.1 5.1 0 00-2.73-1.51c-1.59-.35-2.35.46-2.08.52a4.2 4.2 0 012.65 1.54c1.04 1.4.49 3.78 2.07 5.93 1.31 1.78 1.59 1.8 2.11 3.93.4 1.17.1 3.37-.02 3.99h0a3.86 3.86 0 00-2.96-1.79c-1.97-.28-2.62-1.53-3.07-2.21-1.25-1.92-2.34-3.25-4.22-3.22-1.07.02-.39.53-.17.64 2.03.97 1.95 2.89 3.08 5.22a4.79 4.79 0 003.25 2.65c1.35.33 3.63 2.06 3.84 3.7-.29 1.93-.68 3.9-3.78 7.81-1.42 1.25-2.66 4.77-7.43 6.05-.23-1.28-1.48-2.34-2.62-3.52-1.11-1.35-.41-3.44-.11-4.32.85-2.49 1.15-4.92-.04-5.95-.91-.71-.71.04-.66.32.48 2.48-1.23 3.8-2.51 6.48a5.45 5.45 0 000 4.62c.59 1.42 1.67 1.95 2.01 4.1-.01 1.98-.86 2.51-2.05 4.14zm-11.87 0c.19.05 1.01-.54 1.69-.1.26.16.46.49.52.79.06.3.05.64-.1.9-.16.27-.67.62-.97.52.08.45.07 1.12-1.33 1.93-.55.32-1.65.2-1.65.2-.07.01-.32.44-.95.64-.5.16-.92.05-1.22-.38a1.7 1.7 0 01-.15-1.52c.09-.25.22-.48.4-.67.05-.06.1-.11.13-.18.03-.08.02-.16.01-.24-.06-.43-.4-.75-.55-1.16-.48-.68-1.39-.89-2.05-1.92 0 0-2.51-.69-4.51-2.46-.98-.62-1.92-2.23-2.49-2.69-.85-.6-1.65.24-2.85.75-1.37.57-4.3.49-6.23-1.64-1.25-1.49-1.9-2.42-3.19-3.19-1.16-.7-2.14-.8-2.29-.84-.21-.06-.39-.25.01-.46a4.27 4.27 0 012.49-.32c1.69.21 2.57.88 3.99 2 1.19.95 2.53 1.69 3.79.62.75-.63.03-1.9-.62-2.7-.99-1.22-2.09-4.32-2.39-4.71-1.46-1.46-1.89-.62-3.58-2.45-1.43-1.53-1.56-3.26-1.79-4.66-.53-3.26-2.39-3.6-2.67-3.78-.28-.18-.34-.51.1-.54.43-.03 2.23.05 3.5 1.43 1.91 2.07 1.28 3.99 2.85 5.32.57.49 1.37.11 1.21-.92-.25-1.62.66-5.5-.82-6.63-.85-.65-.48-.2-1.67-1.11-2-1.53-.38-5.05-3.33-7.31-.3-.26-.2-.46.2-.48.47-.13 1.51.09 2.27.68 2.17 1.66 1.32 3.52 2.67 4.71.43.36 1.23.77 2.21.27 2.59-1.49 2.38-4.95 3.88-6.83a5.1 5.1 0 012.73-1.51c1.59-.35 2.35.46 2.08.52a4.2 4.2 0 00-2.65 1.54c-1.04 1.4-.49 3.78-2.07 5.93-1.31 1.78-1.59 1.8-2.11 3.93-.4 1.17-.1 3.37.02 3.99h0a3.86 3.86 0 012.96-1.79c2.01-.28 2.66-1.52 3.11-2.21 1.25-1.92 2.34-3.25 4.22-3.22 1.07.02.39.53.17.64-2.03.97-1.95 2.89-3.08 5.22a4.79 4.79 0 01-3.25 2.65c-1.35.33-3.63 2.06-3.84 3.7.29 1.93.68 3.9 3.78 7.81 1.42 1.25 2.66 4.77 7.43 6.05.23-1.28 1.48-2.34 2.62-3.52 1.11-1.35.41-3.44.11-4.32-.85-2.49-1.15-4.92.04-5.95.91-.71.71.04.66.32-.48 2.48 1.23 3.8 2.51 6.48a5.45 5.45 0 010 4.62c-.59 1.42-1.67 1.95-2.01 4.1.01 1.99.86 2.52 2.05 4.15z"/><g fill="#000" stroke="none"><path d="M96.76 137.35c.17.29.34.57.56.81.22.24.47.44.76.58.29.13.6.22.91.27a6.24 6.24 0 001.93-.01 3.02 3.02 0 001.69-.86c.23-.23.43-.5.61-.78-.12.31-.29.61-.5.87a2.8 2.8 0 01-.78.67c-.3.18-.63.29-.96.37a5.04 5.04 0 01-2.04.01 2.93 2.93 0 01-.98-.34 2.4 2.4 0 01-.76-.69 4.41 4.41 0 01-.44-.9zm16.66-28.26a5.74 5.74 0 013.58-3.01c2.76-1.05 5.83-1.23 8.43-2.7.72-.4 1.4-.9 1.88-1.58-.83 1.36-2.33 2.1-3.76 2.67-2.55 1-5.37 1.2-7.82 2.47a5.57 5.57 0 00-2.31 2.15z"/><path d="M120.44 108.03c.44-.85.5-1.87.22-2.78.56-.3.29.68.35.99a3.48 3.48 0 01-.57 1.79zm-2.85-1.91c.46 1.2.1 2.56-.46 3.67.44-1.1.7-2.43.18-3.55l.28-.12zm-12.29 2.03c.3.08.7-.16.98-.26.35-.05.77-.74.94-.2-.59.27-1.25.57-1.91.49zm3.23 2.81c.38-.08.7-.3 1.05-.47.16.23.1.35-.17.35-.3.07-.58.14-.88.12zm4.62-4.61c-.11.34-.3.64-.54.9-.09-.37.19-.8.54-.9zm-1.25 1.5c.08.41.03.84-.09 1.24-.2-.38-.18-.9.09-1.24zm-25.41 1.24c-.86-1.6-2.6-2.46-4.27-2.96-2.84-.91-6-1.22-8.44-3.08a4.05 4.05 0 01-1.05-1.1c1.28 1.53 3.27 2.16 5.11 2.7 2.4.7 5 .99 7.09 2.44a4.93 4.93 0 011.56 2z"/><path d="M79.47 108.03a3.86 3.86 0 01-.51-2.86c.63.04-.06.84.12 1.24.01.56.1 1.13.39 1.62zm3.13-1.78c-.55 1.12-.26 2.45.18 3.55-.54-1.12-.94-2.46-.46-3.67l.28.12zm12.01 1.9c-.5.18-1.17-.16-1.66-.33-.51 0-.01-.7.2-.19.44.25.93.54 1.45.54l.01-.01zm-3.23 2.81c-.33-.03-1.1 0-1.13-.3.03-.32.27-.06.44 0 .22.12.44.25.69.3zm-4.62-4.61c.5-.04.8 1.35.3.59a2.78 2.78 0 01-.3-.59zm1.25 1.5c.3.25.28 1.18.06 1.15-.1-.37-.13-.77-.06-1.15zm17.28 8.87c-.82 2.17 0 4.57-.86 6.74-.4 1.15-.98 2.3-.82 3.56.03.75.33 1.45.66 2.12a4.64 4.64 0 01-.82-3.6c.31-1.39 1.04-2.66 1.1-4.1.16-1.58-.01-3.26.74-4.72zm-2.98 17.13c.2-.77 1.3-1.23 1.9-.59.24.24.73.98.67 1.01-.51-.33-.82-1.09-1.52-1.02-.41.04-.76.32-1.05.6z"/><path d="M103.28 133.79c.17.36-.03.77-.22 1.08-.15.28-.65.69-.82.67.33-.5.7-.96.97-1.5a.84.84 0 00.07-.25zm-5.66.06c-.35-.35-.86-.71-1.39-.57-.54.2-.77.79-1.27 1.05.36-.46.57-1.11 1.17-1.33.62-.2 1.3.26 1.49.85z"/><path d="M96.65 133.79c.32.63.73 1.27 1.08 1.8-.71-.52-1.08-.68-1.08-1.8z"/><path fill="#f6f6f6" stroke="#000" d="M107.38 113.82c0 .37.59 1.05 1.98 1.05 1.07 0 1.59-2.24 1.59-2.43 0-.19-.03-1.18-.98-1.18-1.02-.01-2.59 2.59-2.59 2.56z"/><path d="M107.51 108.27a6.57 6.57 0 00-3 1.22c-.07.04-.3.25-.1.01a3.07 3.07 0 013.1-1.23zm3.23 2.07c-.38.2-.82.06-1.22.16-.14-.03-.42.23-.42.12.13-.4.6-.5.97-.45.23.03.45.11.67.17z"/><path d="M110.62 109.53a2 2 0 00-2.24 1.38 4.91 4.91 0 01-1.26 2.21c-.42.46-.9.86-1.45 1.16 1.03-.92 2.03-2 2.4-3.37a1.99 1.99 0 012.1-1.49c.15.02.3.05.45.11zm-21.41 0c1-.4 2.21.25 2.5 1.28.23.69.5 1.37.98 1.92.42.58.93 1.1 1.46 1.56a5.63 5.63 0 01-2.64-3.16 2.06 2.06 0 00-2.3-1.6zm21.62 5.24c-.38.97-1.61 1.36-2.54.98-.3-.29-1.23.42-.59-.13.61-.28 1.3.18 1.92-.09.47-.12.9-.39 1.21-.76zm-3.26-.96c-.4.69-.93 1.45-1.11 2.24-.04-.83.48-1.65.83-2.37l.28.13zm2.4-2.71c.58-.03 1.21.16 1.59.62-.41-.4-1.33-.18-1.58-.46l-.01-.16z"/><path stroke="#000" stroke-width=".1" d="M108.27 112.72c.09.36.35.82.24 1.37 0 .01.2-.05.37-.21.19-.18.36-.45.43-.68.15-.5.11-1.12-.09-1.64"/><path fill="#f6f6f6" stroke="#000" d="M92.55 113.82c0 .37-.59 1.05-1.98 1.05-1.07 0-1.59-2.24-1.59-2.43 0-.19.03-1.18.98-1.18 1.03-.01 2.59 2.59 2.59 2.56z"/><path d="M92.42 108.27c1.1-.26 2.34.23 3.02 1.13.07.08.31.42 0 .1a6.35 6.35 0 00-3.02-1.23zm-3.22 2.07c.47-.15 1.1-.32 1.5.08.1.08.21.39 0 .18-.47-.24-1.03-.02-1.5-.26zm-.09 4.43c.56.67 1.5.96 2.34.77.37-.07.86-.05 1.03.35-.34-.35-.85-.14-1.25-.04-.83.17-1.8-.27-2.12-1.08zm3.52-1.1c.35.69.82 1.45.86 2.22-.01.4-.1-.26-.18-.35-.22-.59-.62-1.18-.93-1.72l.25-.14zm-2.69-2.27a2.75 2.75 0 00-1.58.32c.37-.46 1.01-.65 1.59-.62l-.01.3z"/><path stroke="#000" stroke-width=".1" d="M91.56 112.62c-.09.36-.35.92-.24 1.47a.8.8 0 01-.37-.21 1.7 1.7 0 01-.43-.68c-.15-.5-.11-1.12.09-1.64"/><path d="M95.76 111.2c.36-.16.66.34.64.65-.28.16-.44-.5-.64-.65zm.3 1.39c.4-.05.39.92.02.42a.54.54 0 01-.02-.42zm-.26.75c.37.07.15.96-.08.44a.46.46 0 01.08-.44zm-.25.99c.37.11-.03.86-.13.34a.42.42 0 01.13-.34zm3.52-2.69a7.33 7.33 0 01.9 4.42c-.09-.08-.1-.6-.16-.84a27.4 27.4 0 00-.74-3.58zm5.01-.44c-.22.19-.39.77-.65.68-.01-.32.27-.87.65-.68zm-.31 1.39c.24.25-.37.9-.3.33.01-.16.13-.3.3-.33zm.27.75c.34.2-.17.98-.2.37 0-.15.08-.29.2-.37zm.25.99c.36.2-.03.83-.14.3a.3.3 0 01.14-.3z"/><path d="M100.76 111.64a36.78 36.78 0 00-.84 4.36c-.04.46-.07-.45-.08-.53a7.4 7.4 0 01.92-3.83zm4.18 14.36c-.05-.33-.1-.66-.12-1 .27.24.35.7.12 1zm.51-1.89c-.07-.3-.17-.6-.29-.9.37.1.5.6.29.9zm.87-1.15c-.1-.66-.36-1.28-.37-1.95.27.6.56 1.28.37 1.95zm.63-1.96c-.06-.55-.09-1.1-.13-1.66.3.48.35 1.14.13 1.66zm-1.48 12.06c-.23-.71-.89-1.3-1.67-1.27-.46-.05-.95.19-1.31.29.84-.82 2.47-.63 3 .45.15.3.4.43-.02.53zm-3.41-.95c.15.26-.45.63-.4.37.11-.14.24-.28.4-.37zm-.84.16c-.18.47-1.4.48-.5.15.16-.05.32-.14.5-.15zm-6.68-15.55c1.06 2.06.32 4.5 1.15 6.63.47 1.32 1.05 2.71.65 4.12-.06.5-.62 1.47-.73 1.56a4.9 4.9 0 00.25-4.36 9.85 9.85 0 01-.9-4.02c-.02-1.32.08-2.68-.42-3.93zm.36 9.28c-.25-.27-.1-.9.13-.96-.03.32-.07.64-.13.96zm-.51-1.9c-.22-.28-.07-.79.29-.88-.12.29-.22.58-.3.89zm-.88-1.14c-.18-.68.13-1.34.38-1.95 0 .66-.27 1.3-.38 1.95zm-.63-1.96c-.25-.46-.09-1.43.13-1.57-.04.52-.06 1.05-.13 1.57zm1.33 11.97c.24-.56.62-1.12 1.24-1.3a2.27 2.27 0 011.68.16c.09.07.36.18.27.29a2.25 2.25 0 00-1.85-.22c-.54.17-.8.67-1 1.16-.04.05-.19-.04-.25-.05l-.09-.04zm3.56-.86c.18.11.34.27.45.45-.25.07-.5-.2-.45-.45zm.84.16c.25.03.5.13.72.24l.2.12c-.34.1-.7-.1-.92-.36zm7.69-30.49c-.83-.33-1.33.67-1.56 1.02-.35-.6.95-1.46 1.56-1.02zm2.13 1.12c.96-.06.39 2.45.3 1.24-.06-.42-.1-.86-.3-1.24zm19.45-31.3c-.7.06-1.78 1.77-1.6 1.37.14-.4 1.26-2.03 1.6-1.37zm-4.81 15.46c-.42.84-1.3 1.43-1.44 2.39-.25.22-1.9 1.66-1.03.61 1.02-.63 1-1.97 2.04-2.62l.21-.19zm-5.81 5.34c-.14.73-2.3 1.17-1.07.52.35-.18.7-.37 1.07-.52zm9.04-12.53c-.67-.26-.53-1.75-.4-1.8.3.56.16 1.23.4 1.8zm-5.62 13.78c-.53 0-1.07.08-1.58.23.3-.54 1.14-.63 1.58-.23zm-9.33 2.44c-.64.1-.67.99-1.43.9-.56.28-1.58 1.26-.62.1.72-.25 1.3-1 2.05-1zm12.6-24.03c-.1-1.19-.84-2.16-1.33-3.2.85.78 1.66 2 1.33 3.2zm-12.02 27.51c.31-.64 1.5-1.65 1.54-1.88-.05.83-1 1.22-1.25 1.97l-.29-.09zm-18.32 2.21c.65-.51 2.09.67 1.43 1.06-.07-.56-.6-1.23-1.3-1.09l-.09.02zm-2.13 1.12c-.39.29-.16 1.91-.48 1.47-.21-.5-.08-1.25.48-1.47zM72.19 71.35c.66.17 1.7 1.98 1.4 1.64-.07-.74-1.85-1.13-1.4-1.64zm4.65 15.71c1.37.78 1.44 2.4 2.66 3.26.3.41-1.1-.63-1.25-.93-.12-.93-1.04-1.5-1.41-2.33zm5.81 5.34c.43.19 2.27 1.01 1.04.8-.42-.14-.8-.42-1.04-.8zm-9.04-12.53c.15-.66.55-2.8.5-1.06-.07.37-.04.93-.5 1.06zm5.62 13.78c.44-.43 1.27-.32 1.57.22a5.5 5.5 0 00-1.57-.22zm9.33 2.44c.83.18 1.7.68 2.32 1.32.45.62-1.1-.66-1.63-.72-.16-.29-.32-.54-.69-.6zm-12.6-24.03c-.33-1.21.48-2.41 1.33-3.2-.5 1.04-1.22 2.02-1.33 3.2zM87.7 99.67c-.27-.79-1.34-1.21-1.24-2.13-.15.75 2.14 1.73 1.24 2.13z"/></g></g></svg>