<svg xmlns="http://www.w3.org/2000/svg" fill="#d7374a" stroke="#000" viewBox="50 50 200 200">
  <metadata source="http://wappenwiki.org/images/1/13/Dauney.svg" license="https://creativecommons.org/licenses/by-nc-sa/3.0"/>
  <g id="dragonRampant" stroke-width=".3" transform="matrix(1.1,0,0,1.1,-10,-10)">
    <path d="M78.7 69.04c-.34-.7-.9-1.05-1.22-1.23-.67-.36-.51.01-.48.05.21.33.44.61.47 1.03.07.51-.09.81-.28 1.04-.07.08-.28.17-.34.15-.11-.04-.3.27-.3.27s-.05.2.01.38h0c.04.13.12.27.2.42a2.58 2.58 0 01.29.66c.32.17.61.21.86.11.49-.19.88-.87.89-.87.02 0 .45-.76-.1-2.01z"/>
    <path d="M72.17 80.89a2.76 2.76 0 01-1.61-.62c-.6-.47-.19-.47-.15-.46.38.06.74.16 1.14.02.5-.14.71-.41.84-.68.05-.09.04-.32 0-.37-.08-.09.13-.39.13-.39s.16-.13.35-.15h0c.13-.01.29 0 .46.02.2.02.42.04.64.02l.09-.01c.28.22.44.47.45.75.03.53-.44 1.16-.44 1.16-.02 0-.54.7-1.9.71z"/>
    <path d="M75.94 75.29c.26-.21.69-.87.63-1.19-.06-.34.22-.84.47-1.14.34-.4.87-.75 1.1-.74.39.05.65-.2.81-.5.16-.29.18-.48.1-.61l-.15-.25c-.32.05-1.37.2-1.91-.82-.22-.06-.42.04-.56.17-.25.24-.32.66-.27.86.06.2.14.17.19.33.03.09.02.16-.02.23-.05.08-.15.14-.31.17-.52.09-.77 1.13-.82 1.52l-.01.02c-.21.52-.33.79-.44.83m-.33-5.91a2.8 2.8 0 00-1.65-.5c-.76 0-.44.25-.4.27.34.19.68.33.91.68.31.42.31.76.25 1.05-.02.1-.17.28-.23.29-.12.02-.14.38-.14.38s.05.2.19.33h0c.1.09.23.18.38.27.17.11.36.23.51.38l.06.06c.36 0 .63-.11.81-.31.35-.4.37-1.18.37-1.19-.01 0 .01-.86-1.06-1.71z"/>
    <path d="M69.44 71.98c-.72.29-1.11.82-1.3 1.13-.4.65-.02.51.02.48.34-.19.64-.4 1.06-.41.52-.04.81.14 1.02.35.08.07.15.29.13.35-.05.11.25.32.25.32s.2.06.38.02h0c.13-.03.27-.1.43-.17.18-.08.38-.18.59-.23l.09-.02c.19-.31.25-.59.17-.85-.15-.5-.81-.94-.81-.94-.03-.02-.75-.5-2.03-.03z"/>
    <path d="M89.9 82.18c-.99-.45-1.7.79-4.06.72-1.01 0-4.27-2.71-5.12-3.23a13.84 13.84 0 01-3.98-3.56c-.3-.45-.54-.69-.72-.93-.19-.29-.4-.94-.41-.97-.02-.05 0-.1.02-.18.37-.82.11-1.22-.09-1.56s.03-.72.12-.89l.05-.12a1 1 0 00-.01-.39l-.02-.06V71c-.02-.05.01-.1.05-.12.01 0 .34-.2.35-.58a.82.82 0 00-.2-.49c-.18-.2-.36-.14-.36-.14-.2.15-1.26.79-2.07.35-.26-.02-.41.4-.42.58 0 .1.01.19.04.27.17.52.63.51.64.51.03 0 .06.02.07.04.03.02.01.05.02.08 0 0-.06.34.01.56l.03.07c.02.04.07.08.12.13a1 1 0 01.32.45c.08.25.06.56-.07.95a.3.3 0 000 .23c.02.07.33.5.23.7a.45.45 0 01-.12.15c-.02-.12-.65-.39-.97-.94l-.03-.04v-.02a1 1 0 00-.05-.25.91.91 0 00-.62-.63.08.08 0 01-.07-.05c-.03-.03 0-.07-.01-.09 0 0-.01-.16-.1-.43-.08-.24-.31-.43-.6-.58-.46-.17-.66-.17-.84.07.07.14.11.2.15.32.13.42.11.75-.06 1-.22.31-.65.53-.81.55-.04.14-.12.25-.01.57.06.2.54.5.87.47.16-.02.21-.11.27-.13s.23.01.46.01c.29 0 .48.29.62.54.06.11.12.23.17.27.17.13.74.26.92.82a2.7 2.7 0 00-.11 1.28l.01.07v.03c-.02.36-.22.32-.46.34-.25.02-.36-.04-.64.36s-.14.53-.01.69l.1.1c.15-.01.69-.01 1.08.48.16.2.28.47.35.78l.03.06c.07.08.2.08.35.05.17-.03.32-.23.42-.47.23-.58.05-.73-.01-.81l-.02-.02c-.11-.14-.02-.27.05-.36.08-.12.17-.25.13-.49-.02-.15.03-.3.05-.44.99.77.82 1.58 1.46 1.98 0 .01.87.63 1.16 1.05.39.82 1.62 1.58 2.49 2.43 2.06 2.01 2.19 3.16 2.26 3.18.07.37-.06.91.69 1.53.78.51-.15.06 1.18-.11 1.54-.2 2.48.32 4.04.27s1.79.09 2.31-.01m7.9-20.25c.13-.97.36-2.2.75-3.03a8.2 8.2 0 013.61-3.6c1.89-1.07 2.5-1.96 2.5-1.96s-.45 1.09-.5 1.86c-.07 1.04.17 1.57.45 2.23-1.11.5-2.01 1.38-2.07 2.6-.02.36.03.73.24 1.02-.76.15-1.47.38-2.07.87m-11.11 2.3c-.54.12-1.06.28-1.6.37a5.57 5.57 0 01-3.42-.6c.32-.05 1.03-.3 1.31-.47l.06-.07c-1.66-.19-3.05-1.29-4.38-2.72-.18 1.46.85 4.26 1.74 5.2.03.03.05.02.08-.02s-.4-.84.06-1.49a5.8 5.8 0 004.53 1.12c.54-.1 1.06-.28 1.59-.42a9.24 9.24 0 016.95 1.03l-.01-.68a9.2 9.2 0 00-6.91-1.25z"/>
    <path fill="#f6f6f6" d="M92.75 68.69c.22.32.53.58.88.74 0-.36.14-.72.38-.99m-2.71.2c.17.37.38.87.75 1.03.12-.33.13-.67.25-1m-2.33-.36c-.03.34.12.83.25.97.06.06.07.18.15.17.05-.01.08-.06.11-.11.07-.14.14-.56.25-.77m-2.41-.68c.07.67.32 1.62.73 2.16-.01-.52.09-1.34.28-1.82m.01 4.75c-.28-.34-.39-1.21-.28-1.63.37.38.72 1.15 1.59 1.39-.18-.48.02-1.09.12-1.2.4.49.87 1 1.49 1.07-.03-.32-.01-.64.06-.95.23.37.6.65 1.01.79"/>
    <path d="M104.99 136.02c.07.77-.24 1.36-.42 1.68-.4.65-.44.25-.44.2.01-.39.07-.75-.12-1.13-.2-.48-.49-.65-.77-.75-.1-.04-.33 0-.37.05-.08.09-.4-.08-.4-.08s-.14-.15-.19-.33h0c-.03-.13-.03-.29-.04-.46-.01-.2-.01-.42-.06-.64l-.02-.08c.19-.31.42-.49.69-.54.52-.09 1.2.3 1.21.3.01-.01.77.42.93 1.78zm-13.21-5.35a2.76 2.76 0 00-1.07 1.35c-.28.71.07.5.11.47.3-.25.55-.51.97-.59.5-.13.82-.01 1.07.15.09.06.2.26.19.32-.02.12.31.27.31.27s.2.03.38-.05h0c.12-.06.25-.15.39-.25.16-.12.34-.25.54-.34l.08-.03c.13-.34.13-.63.01-.87-.24-.47-.97-.78-.97-.78-.04 0-.84-.34-2.01.35z"/>
    <path d="M99 132.97c-.23-.24-1.64-.88-1.96-.78-.33.1-.86-.11-1.19-.33-.44-.29-.84-.77-.86-1.01 0-.39-.28-.62-.59-.74-.31-.12-.49-.12-.62-.03l-.23.18c.09.31.37 1.34-.59 1.99-.04.22.09.41.24.53a1 1 0 00.89.16c.2-.08.15-.16.31-.23a.27.27 0 01.23-.01c.09.04.15.13.2.29.15.5 1.21.63 1.61.64h.02c.54.15.83.23.88.33m-5.83 1.05a2.69 2.69 0 00-.3 1.7c.09.76.3.41.32.37.15-.36.24-.71.57-.98.38-.35.72-.39 1.01-.37.1.01.3.13.32.19.03.12.4.09.4.09s.19-.07.31-.23h0c.08-.11.15-.25.22-.4.09-.18.18-.38.32-.55a.3.3 0 00.05-.07c-.04-.36-.18-.62-.41-.77-.43-.3-1.22-.23-1.22-.22-.02-.01-.88.08-1.59 1.24zm4.28 4.51c.37.68.95 1 1.28 1.16.69.32.51-.04.48-.08-.23-.31-.48-.58-.53-1.01-.1-.51.05-.82.22-1.05.06-.08.27-.18.33-.17.12.03.29-.29.29-.29s.04-.2-.03-.38h0a3.41 3.41 0 00-.22-.41 3.32 3.32 0 01-.3-.56l-.03-.08c-.33-.15-.62-.18-.87-.07-.48.21-.84.91-.84.92 0 .03-.39.8.22 2.02z"/>
    <path d="M80.9 122.39c-.58.51-1.23.63-1.59.67-.76.07-.46-.2-.43-.23.32-.22.64-.39.83-.77.26-.45.23-.79.14-1.07-.03-.1-.2-.26-.26-.27-.12-.01-.17-.37-.17-.37s.03-.2.15-.35h0c.09-.1.21-.2.35-.31.16-.12.33-.26.47-.43l.05-.07c.36-.04.64.04.84.23.38.36.48 1.14.48 1.15.02.02.12.88-.86 1.82z"/>
    <path d="M77.44 109.32a2.85 2.85 0 00-1.73-.05c-.73.2-.36.36-.31.37.38.09.74.13 1.06.42.41.32.5.65.52.95.01.1-.09.31-.14.34-.11.05-.03.41-.03.41s.1.18.27.27h0a3 3 0 00.43.16c.19.06.4.12.6.23l.08.04c.35-.1.58-.27.7-.52.23-.47.04-1.24.04-1.24-.02-.02-.23-.86-1.49-1.38z"/>
    <path d="M79.76 115.73c.05-.33-.1-1.1-.37-1.29-.28-.2-.43-.76-.45-1.15-.03-.53.11-1.14.29-1.29.31-.24.33-.6.24-.92-.09-.32-.2-.47-.35-.52l-.28-.08c-.19.26-.85 1.1-1.95.72-.2.1-.27.32-.28.51-.02.34.22.7.4.81.18.11.22.03.37.11.08.04.13.1.15.18.02.1-.01.2-.11.33-.31.42.22 1.35.46 1.67l.01.02c.21.52.31.8.26.9m-4.34-4.02c-.77.1-1.28.53-1.54.78-.55.53-.15.49-.1.47.37-.1.72-.23 1.13-.13.51.09.75.34.9.59.06.09.07.32.04.37-.07.1.17.37.17.37s.17.11.36.11h0c.13 0 .29-.03.46-.06.19-.04.41-.08.63-.08h.09c.26-.25.39-.51.37-.79-.02-.53-.55-1.11-.56-1.11-.01-.01-.59-.65-1.95-.52z"/>
    <path d="M72.77 117.84c-.32.7-.23 1.36-.16 1.72.16.75.33.38.35.34.12-.37.18-.73.49-1.03.35-.38.68-.45.98-.45.1 0 .31.11.33.16.04.11.4.06.4.06s.18-.09.29-.25h0c.07-.11.13-.26.19-.42.07-.18.15-.39.27-.58l.05-.07c-.07-.35-.23-.6-.47-.73-.46-.26-1.23-.12-1.24-.12-.02-.01-.87.14-1.48 1.37z"/>
    <path d="M80.77 118.2c.2.2.1.14.29.39.2.15.23.3.25.44.02.11.04.27.22.29h.03c.1.01.33 0 .56.58.1.24.13.49.02.63-.09.12-.19.22-.29.2-.02 0-.05 0-.07-.02-.23-.17-.5-.28-.79-.32-.41-.06-.83.1-1.11.4a.32.32 0 01-.14 0c-.2-.03-.39-.02-.47-.51s.05-.52.21-.7.33-.29.1-.56l-.02-.02-.06-.04c-.41-.3-.75-.7-.99-1.14-.52-.28-.84.15-1.05.17a.92.92 0 01-.31-.07c-.28-.09-.61-.17-.82.03-.16.16-.3.26-.33.31s0 .15-.11.28c-.22.25-.78.36-.96.26-.3-.16-.32-.29-.38-.42.1-.12.26-.58.21-.95-.05-.3-.26-.56-.65-.77-.11-.06-.18-.08-.33-.13-.04-.29.11-.43.56-.63.31-.09.61-.12.83 0 .25.14.36.24.37.24l.04.05.02.01c.03.01.06 0 .09-.02.02-.01.41-.23.89.03l.23.16.05.01c.61.17 1.3-.05 1.35.01 0-.06 0-.13-.02-.19-.06-.21-.58-.31-.65-.34a.3.3 0 01-.16-.17c-.12-.3-.33-.56-.6-.74a.95.95 0 00-.54-.1l-.18-.01-.07-.03c-.2-.11-.39-.39-.39-.4-.01-.01-.02-.03-.04-.03l-.03-.01c-.03 0-.06 0-.08.02-.01 0-.33.33-.81.07-.07-.04-.14-.1-.21-.17-.12-.14-.3-.54-.1-.71.89-.24 1.22-1.44 1.26-1.68 0 0 .09-.16.36-.15.26.02.45.19.48.22.25.28.15.65.15.66-.02.05 0 .1.05.12h.01l.05.03c.06.03.23.18.28.28l.05.12c.06.18.15.61.53.72s.84.22 1.14 1.07c.04.07.07.12.11.14.03.02.63.34.97.42.29.05.62.06 1.16.18.59.12.74.15 1.09.18.39.04 1.3.19 1.78.23l1.55.11c.59.04 2.01-.03 2.86-.18 0 0-.81-2.09-1.69-3.24-.93-1.19-1.72-2.08-1.5-3.25.23-.81-.31-2.5 1-3.31.99-1.21 2.38-.66 3.36-.94 1.54-.83 3.07.26 4.25.28 1.38-.28 1.92.38 2.7.7l5.48 3.38-2.04 4.48c-2.37.71-4.69.49-7.16.26-.53-.05-1.22.08-1.22.79 0 1.05.11 1.04.81 1.95.63.81 1.07 1.33 1.48 1.84.52.64.8 2.07.67 2.3-.29.5-1.39.72-2.92.61a7.4 7.4 0 01-2.92-1.21c-.8-.54-2.34-1.17-3.43-1.55-1.4-.43-2.85-.74-4.31-.94z"/>
    <path d="M99.07 91.28c.45-.52.49-1.27.39-1.95-.09-.6-.38-1.28-.33-1.89.04-.43.41-.92.89-.8.51.14.72 1.07.82 1.49.95-1.01.46-2.06.32-3.23-.15-1.25-.26-2.64.49-3.74.69-1.02 1.46.05 1.49.89.27-.14.46-.41.6-.69.34-.67.4-1.45.48-2.2.05-.49.08-3.12 1.02-2.96.23.04.4.23.52.43.18.28.2.58.3.87.24-.17.3-.47.38-.74.07-.23.13-.46.16-.7a4.27 4.27 0 00-.43-2.13c-.28-.56-.71-1.18-.84-1.8-.03-.15-.04-.3-.05-.45-.01-.22-.02-.45.11-.63.16-.23.48-.28.75-.27.41.01.62.27.89.54.06-1.24-.72-1.96-1.29-2.61-.32-.36-.8-.86-1.1-1.24-.47-.61-.48-1.29-1.02-1.84l-.06 3.2c-.03 1.56-.06 3.14-.44 4.65-1.09 4.37-4.82 7.56-6.65 11.67a23.6 23.6 0 00-1.19 3.59m28.71 8.63c-1.4.07-1.62 1.03-1.81 1.3-.15.2-.45.29-.57.09-.19-.34.15-.65.15-.65-.94.3-1.79 1.81-1.79 3.7-.05.18-.23.28-.4.3a.5.5 0 01-.5-.25c-.23-.41-.13-.96-.13-.96-.73.77-.86 1.94-.75 3 .11 1.06.61 1.77.48 2.99-.03.52-.56.65-.86.43-.39-.27-.47-.85-.47-.85-.39.99-.09 2.12.41 3.06.49.94 1.37 1.42 1.49 2.47.05.51-.27.64-.51.62-.47-.05-.7-.68-.7-.68-.86 2.16 1.49 3.38.84 5.22-.19.54-.57.54-.73.48-.25-.09-.31-.32-.33-.51-.03-.47.3-.92.3-.92-2.31.17-1.8 3.59-4.02 3.32a.5.5 0 01-.46-.62c.06-.26.26-.36.45-.4.46-.1.96.16.96.16-.52-2.26-3.3-1.27-4.05-2.51-.35-.57-.28-1.12.1-1.28.53-.22 1.03.23 1.03.23.04-2.32-2.85-2.66-3.44-4.37-.12-.35-.24-1.21.49-1.22.69-.01.67.94.67.94.56-.87.09-2.09-.53-2.76-.75-.8-2.26-1.05-3.3-2.52-.31-.43-.63-1.21.08-1.41.66-.18.89.74.89.74.32-.98-.44-2.05-1.21-2.54-.92-.59-2.78-.82-4.02-1.73.01 3.48.09 7.08 1.95 10.03.82 1.3 1.93 2.39 2.9 3.58 1.93 2.37 3.43 5.3 6.17 6.66 1.63.81 3.58.95 5.31.38a3.24 3.24 0 001.56-.96c.33-.4.51-.89.66-1.39 1.32-4.46.29-9.26.81-13.89.09-.82.24-1.64.55-2.4.44-1.07 1.21-1.97 1.96-2.85l1.95-2.28"/>
    <path d="M103.77 65.3c-.55-.79-1.57-1.93-2.66-2.09-1.08-.16-2.63.23-3.96.12l-.82-.04c-.08 0-1.48-.05-1.81.4-.18.24.14.54-.1.86-.93-.21-1.52.11-1.94.16 0 0-.44-.05-1.06.24-.3.14-.64.08-.64.08-.75-.16-1.36.45-1.79.25-.43-.2-1.29-.08-1.65.09-.34.17-.12.44-.23.8-.02.05-.08.11-.13.12 0 0-.3.14-.9-.03a2.3 2.3 0 01-1.12-.85c-.11.33-.08.79.07 1.1.34.76 1.21 1.29 2.27 1.32.21.02.24.08.43.47.05.1.25.14.36.12.27-.06.46-.14.62-.16.37-.04.89-.05 1.14.08 1.33.7 2.62.31 4.04.35.32.01.77.17 1.04.35 1.27.84 1.47 1.83 1.73 2.42.04.09.08.19.06.28-.02.12-.12.21-.22.25-.11.05-.33.25-.45.26-.46.02-.28-.02-.74 0-.32.01-.59-.11-.89.02-.17.07-.62-.12-.78-.03-.44.23-.85.18-1.34.23l-3.44.32c-.19.02-.42.08-.43.27 0 .15 0 .27.15.32.42.14.5.35.83.36.26.01.53.03.75-.1-.25 1.03 1.01 1.48 1.13 3.29.89-1.27-.37-2.71.21-3.43 0 0 .27-.03.41-.1.26.47-.32 1.49.63 1.98-.38-1.01.73-1.3.49-2.01.62-.08.72-.01 1.35-.08.31-.04.93.07 1.25.07.48.01.77-.16 1.25-.18.29.6.39 1.04.12 1.84-.91.25-1.28 1.34-1.92 1.92-1.36.31-2.08 1.09-2.95 1.88-1.73 0-2.04 1.18-3.42 1.82-1.99 0-2.44 2-3.46 2.74-1.68.7-1.26 2.3-1.86 3.56-1.11 1.22-.31 2.65-.55 4.09-.71 1.75.86 3.35 1.29 4.52.19 1.83 2.36 2.58 2.84 3.65.47 1.64 1.92 1.3 2.96 2.31.81 1.31 2.12 1.36 2.96 2.21.23 1.3 1.92 1.09 2.73 2.18.33 1.36 1.73 1.74 2.2 2.83-.19 1.32 1.05 2.32 1.05 3.2-.54.86-.23 2.32-.33 3.36-.56 1.48.66 2.42.95 3.75.06 1.24 1.77 2.47 1.97 3.24.21.55.33 1.38.35 1.93-.05.86-.28 1.05-.58 1.79a133.4 133.4 0 00-1.12 3.53c-.15.46-.52.94-.65 1.31-.11.33-.18.37-.43.91-.14.31-.1.26-.26.57l-.4.69c-.1.13-1.08.11-1.11.13-.05.02-.1.01-.18 0-.86-.27-1.23.04-1.54.27-.31.24-.72.05-.89-.01l-.13-.04c-.11-.01-.32.03-.39.06l-.05.03h-.01c-.05.02-.1 0-.13-.04a.72.72 0 00-.62-.27.76.76 0 00-.46.25c-.17.2-.1.37-.1.37.18.18.93 1.16.59 2.02.01.26.44.36.62.35.1-.01.18-.03.26-.07.5-.23.43-.68.43-.69 0-.03.01-.06.03-.08l.03-.02.05-.01s.34.02.55-.07l.07-.04c.04-.03.07-.08.11-.14.09-.12.2-.27.41-.37.24-.11.54-.12.95-.04.08.02.15.01.23-.02.07-.03.46-.39.67-.31.04.01.1.04.16.1-.03.02-.31.69-.82 1.08a.14.14 0 01-.04.03l-.02.01a.85.85 0 00-.24.08.93.93 0 00-.55.69.1.1 0 01-.04.08l-.02.01-.06.01s-.16.03-.41.15c-.23.1-.39.36-.5.66-.12.47-.09.68.16.82.13-.08.18-.13.3-.18.4-.18.74-.2 1.01-.06.34.18.6.58.64.74.14.03.26.09.57-.05.19-.08.43-.6.37-.92-.04-.16-.13-.2-.16-.25-.02-.06-.02-.23-.05-.45-.04-.29.23-.51.47-.68a.94.94 0 00.25-.21c.11-.19-.04-.7.5-.95.66.1 1.39-.22 1.6-.02l.03.03.07.05c.24.18.24.18.48.09l.06-.02.03-.01c.36-.02.34.18.39.41.05.24 0 .36.43.59s.54.08.69-.07a.48.48 0 00.08-.11c-.03-.14-.1-.68.35-1.13.18-.19.43-.33.73-.44a.2.2 0 00.06-.04c.07-.08.05-.21.01-.36-.05-.16-.26-.29-.52-.36-.61-.16-.73.04-.8.11l-.02.02c-.13.13-.26.05-.37 0-.13-.07-.27-.14-.5-.07-.35.11-.95-.12-1.17-.16.22-1.07 2.04-3.89 2.66-4.87a4.45 4.45 0 012.05-1.91c1.06-.47 1.02-.9 1.17-1.34.26-.78-.06-.97-.24-1.51-.57-1.67.75-3.96 1.49-5.21.1.11 2.19 4.55 7.11 4.55 4.77 0 6.83-3.97 7.15-8.1.29-3.73-1.29-6.66-.48-10.47.74-3.47 2.97-5.56 3.55-6.19.03.15.45 2.88 1.38 3.51.42.4 1.88-3.88 2.73-5.43 1.09-2.3 3.25-4.84 3.11-5.11-.13-.27-3.59.51-6.59 1.89-2.78 1.27-5.18 3.27-5.1 3.56.13.71 2.6.45 3.09.54-.37.34-3.4 3.12-4.36 6.84-1.07 4.14.58 7.14.18 10.75-.29 2.61-1.36 5.23-4.66 5.23-3.83 0-5.58-5.87-6.89-9.82-1.6-4.94-5.27-8.75-7.78-13.53a13.44 13.44 0 01.65-14.17 32.07 32.07 0 003.06-6.15 13.64 13.64 0 00-.73-11.12l.31-.13z"/>
    <path fill="none" d="M99.34 73.05a5.4 5.4 0 01-.17 2.51c.19 1.25-1.01 1.84-1.4 2.93-.21 1.33-1.96 1.94-2.5 2.45-.76 1.26-1.86 1.32-2.91 1.96-.6 1.04-1.91 1.33-2.48 1.87.08.64-1.18 1.69-1.51 2.85.37 1.15-.16 2.34-.22 3.24.48.39.96 2.35.96 3.18a8 8 0 012.46 3.23 5.57 5.57 0 012.63 2.97 4.83 4.83 0 012.14 2.59c.67.48 1.88 1.94 1.88 2.65m-9.48-24.85a6.23 6.23 0 013.62 2.27m-.2-4.09a6.33 6.33 0 013.11 2.13m-.16-4.01c1.06.08 1.92.88 2.66 1.56m-.75-3.47c.93-.11 1.29.2 2.15.55M87 99.18a6.66 6.66 0 014.56-1.93m-1.61 4.24a6.07 6.07 0 014.24-1.26m-1.24 3.43a4.95 4.95 0 013.38-.84m-.67 3.05c.66-.36 1.83-.63 2.54-.4m-14.04-9.94a9.06 9.06 0 014.94-1.51m-6.23-3c1.74-.41 3.53-.39 5.28-.16m-4.74-3.93c1.33-.19 3.64.2 4.95.69m-3.08-4.25c1.61.01 3.22.56 4.6 1.4"/>
    <path fill="none" d="M108.67 117.57a2.06 2.06 0 01-.63 1.07m-9.83-13.17c1.1.44 1.54 2.02 1.85 3.16m0 0c.66.9 1.07 2.31.72 3.29m0 0c.35.84.77 2.16.43 3.26m-.08.09c.48 1.06.65 2.07.51 3.22m0 .01c.65.95 1.33 2.35 1.09 3.47"/>
    <path fill="none" d="M97.85 108.71a5.04 5.04 0 012.22-.08m-1.15 3.21a3.5 3.5 0 011.87.08m-2.23 3.35a4.58 4.58 0 012.57 0m-1.62 3.75c.41-.62 1.55-.72 2.13-.52m-.16 3.76c.21-.26.76-.41 1.25-.29m-12.86-13.81c1.19.57 2.56.67 3.79.19m-3.79-.19c-.4.38-1.87.71-2.42.31m6.21-.12c.18-.85.19-1.85-.04-2.69m-3.75 2.5c.35-.85-.17-2.39-.5-2.78m4.29 2.97c1.28-.09 2.21.01 3.17-.83m-9.37.95a5.08 5.08 0 01-1.44-2.14"/>
    <path fill="none" d="M87.46 108.47c0 .36-.28.94-.48 1.06-.41.24-1.31.47-1.97.11m1.97-.11c.28.5.56 1.26.56 1.83 0 .83-.49 1.41-1.03 1.52"/>
    <path d="M77.72 102.26c-.49.6-1.12.81-1.47.91-.74.19-.49-.13-.46-.16.28-.27.57-.49.7-.89.19-.48.1-.81-.03-1.08-.05-.09-.23-.23-.29-.22-.12.01-.23-.34-.23-.34s0-.21.1-.37h0c.07-.11.18-.23.29-.36.13-.15.29-.31.4-.5l.04-.08c.35-.09.64-.06.87.09.44.3.66 1.05.66 1.06 0 .02.24.86-.58 1.94z"/>
    <path d="M72.27 89.88a2.73 2.73 0 00-1.71.22c-.69.32-.3.41-.25.41.39.03.75.02 1.11.25.45.25.59.57.66.85.02.1-.04.32-.09.36-.1.07.03.41.03.41s.13.16.31.22h0c.13.04.28.07.45.09.2.03.42.06.62.13l.08.03c.33-.15.53-.36.61-.62.15-.5-.15-1.23-.16-1.23 0 .01-.34-.79-1.66-1.12z"/>
    <path d="M75.56 95.86c0-.33-.27-1.07-.57-1.22-.31-.16-.54-.68-.62-1.07-.11-.51-.07-1.14.08-1.32.27-.28.23-.64.09-.94s-.27-.43-.43-.45a4.48 4.48 0 00-.29-.03c-.15.28-.67 1.22-1.81 1.02-.18.13-.22.36-.2.55.04.34.33.66.52.74.2.08.22-.01.38.05.09.03.14.08.17.15.04.09.02.2-.06.34-.24.47.43 1.3.71 1.58l.02.02c.29.48.43.75.4.85m-4.9-3.32c-.74.22-1.18.72-1.4 1.01-.46.61-.07.5-.03.48.35-.16.67-.34 1.09-.31.52.01.79.22.98.44.07.08.12.3.09.36-.06.11.22.34.22.34s.19.08.38.05h0c.13-.02.28-.08.44-.13.19-.07.4-.14.61-.18l.09-.01c.22-.29.3-.57.25-.84-.11-.52-.72-1.01-.72-1.01s-.68-.54-2-.2z"/>
    <path d="M68.98 99.03c-.2.74-.02 1.38.11 1.73.27.71.39.33.4.28.06-.38.07-.75.32-1.09.28-.43.6-.55.9-.6.1-.02.32.06.35.11.06.1.41-.01.41-.01s.17-.12.24-.29h0c.05-.12.09-.28.12-.45a3.73 3.73 0 01.21-.69c-.13-.34-.32-.56-.58-.65-.49-.18-1.24.07-1.24.07-.01 0-.83.29-1.24 1.59z"/>
    <path d="M89.5 88.95c-.96.52-1.48 2.19-2.97 4.03-.61.8-3.66 1.39-4.59 1.75a14.06 14.06 0 01-5.25 1.01c-.55-.03-.87.01-1.17.01-.34-.02-.99-.25-1.02-.26-.05-.02-.08-.06-.13-.13-.43-.79-.91-.83-1.29-.88-.39-.05-.55-.46-.64-.63-.02-.05-.04-.09-.07-.11-.1-.1-.2-.17-.32-.23l-.06-.02h-.01c-.05-.02-.08-.07-.06-.12 0-.01.04-.39-.25-.63a.85.85 0 00-.51-.14c-.26.02-.33.2-.33.2 0 .25-.14 1.48-.98 1.86-.17.2.07.56.21.68.08.06.15.1.23.13.52.18.78-.19.79-.2.2-.1.44.25.59.33l.08.02c.04.01.11-.01.18-.02a.95.95 0 01.55.02c.24.09.48.29.71.64.04.07.1.11.18.14.07.02.6.04.7.24.02.04.04.1.05.19-.1-.08-.7.28-1.34.2h-.05l-.02-.01a.7.7 0 00-.23-.11.94.94 0 00-.88.11.11.11 0 01-.08.03l-.02-.01-.05-.04s-.13-.09-.4-.18c-.24-.08-.53-.01-.82.13-.41.26-.54.42-.45.7.15.03.22.03.34.08.41.15.67.37.76.66.11.36.03.83-.05.97.08.12.12.24.44.36.19.07.73-.13.9-.41.08-.14.04-.23.06-.29s.15-.18.28-.36c.17-.23.52-.2.81-.16.13.02.26.04.32.02.21-.06.65-.43 1.21-.23.4.53.73.76.95.87l.08.04c.28.23.12.37-.01.57-.13.21-.25.26-.1.73s.34.43.54.43l.14-.02a1.3 1.3 0 011.04-.57c.26-.01.54.06.83.2l.07.01c.11 0 .18-.11.26-.25.08-.15.01-.39-.12-.62-.32-.54-.55-.48-.65-.48h-.03c-.18 0-.23-.15-.26-.26-.04-.14-.09-.29-.31-.4-.13-.07-.22-.2-.33-.31 1.22-.32 1.75.31 2.46.04.01 0 1.03-.31 1.53-.28.89.19 1.23.16 2.44-.02 2.84-.42 4.36.32 4.42.28.33.17.69.6 1.63.38.88-.31.44-.48 1.11-1.64.78-1.35 1.76-1.78 2.66-3.05.91-1.27 1.16-1.37 1.39-1.84"/>
    <path fill="#f6f6f6" d="M95.69 65.16c1.11-.26 1.69.12 1.69.12-.15.55-.26 1.05-1.24 1.1-.53.03-.93-.3-1.02-.73-.03-.16-.06-.37.07-.42.19 0 .2 0 .5-.07z"/>
    <path d="M100.7 66.53c.44-.88 1.06-1.96 1.7-2.61a8.15 8.15 0 014.6-2.22c2.14-.39 3-1.04 3-1.04s-.79.89-1.08 1.59c-.4.96-.35 1.54-.3 2.25-1.21.11-2.35.65-2.81 1.78-.13.33-.21.7-.1 1.04a4.7 4.7 0 00-2.24.14"/>
    <path d="M96.9 73.18c.36-.01 1.04.07 1.39-.04.4-.11.76.1 1.05-.09.28-.29-.12-.9-.14-1.1.34.06.58.28 1.03.17"/>
    <path d="M127.12 64.98c.67-.08.62-.73 1.82-.81 0-.07-.82-.86-2.1-.12m-24.52 35.41c-.07 1.12.32 1.34.03 2.13 1.26-.59.96-1.87.96-1.87m18.1-7.98c.35.38.98.39 1.5 1.14.31-1.26-.83-1.76-.83-1.76m4.34-12.36c.85.12.95-.46 1.99-.04a1.8 1.8 0 00-.69-.85c-.48-.33-1.07-.41-1.07-.41m-13.43 24.57c.1.51.63.85.68 1.76.92-.91.21-1.93.21-1.93"/>
    <path d="M104.68 79.18c-.51-.09-.86-.62-1.77-.65.89-.94 1.93-.24 1.93-.24"/>
    <path d="M98.21 88.32c3.13-.66 3.9-1.15 5.28-2.66a6.03 6.03 0 001.11-6.52c.46-.51.24-.86.24-.86 3.33-.65 6.03-4.73 8.46-7.26A23.8 23.8 0 01126.93 64c.06.21-.02.77.22.98-3.94 3.05-2.79 7.82-.29 12.47 0 0-.6.49-.23 1.3-3.65 1.64-6.42 7.03-4.56 12.38 0 0-.41 0-.6.66-6.04 1.7-7.41 6.77-7.36 10.07 0 0-.35-.22-.86.25-2.97-3.46-8.34-3.32-9.91-2.21 0 0-.53-.21-1.02.06-.28-1.29-1.26-3.73-3.19-4.47"/>
    <path fill="none" d="M102.27 90.25a6.56 6.56 0 002.35-1.96 10.34 10.34 0 002.37-7.76c-.06-.54.21-1.06.68-1.32a8.86 8.86 0 003.27-3.27"/>
    <g fill="#000" stroke="none" transform="matrix(.1 0 0 .1 58 72)">
      <path d="M173.5-9.2c-2.55 4.27-9.32 6.17-13.2 2.6 4.44-.68 8.71-2.22 13.2-2.6zm-28.1 20.6c2.18 3.94-.23 9.27-4 11.3-2.05 1.22-2.78.59-1.34-1.12 1.9-3.33 3.91-6.62 5.34-10.18zm19.9 60.2c-.7-2.67-4.78-6.7-5.1-7.2 2.55 1.23 6.96 3.73 7.24 5.96l-2.14 1.24zm-37.76-57.5c-4.8-4.95-12.59-6.95-19.04-4.3 6.6-3.77 15.62-1.88 20.7 3.6l-1.66.7zM197.5 1.4c-4.18 2.93-13-2.98-10.99-5.51 3.66 1.86 7.5 3.32 10.99 5.51zm-38.58-19.75c1.72-4.94.2-10.82-2.76-15.05-1.3-1.73-5.77-5.1-1.47-2.17 5.2 4.18 7.18 11.7 5.85 18-.48.33-1.14-.63-1.62-.78zm34.18 3.37c4.4-4 6.28-10.86 4.81-16.64-.87-2.01-1.72-4.65.06-1.1 2.7 6.26 1.08 14.17-3.5 19.06-.82.35-.8-1.11-1.37-1.33zM132.8 81.2c6.93.68 14.1-3.74 16.47-10.31 3.8 1.36-3.8 6.71-5.6 8.11-3.2 2.18-7.07 3.14-10.87 2.2z"/>
      <path d="M184.3 411c2.2 4.75-5.17 12.68-7.33 10.21 2.44-3.4 4.44-7.15 7.33-10.21zm-6.1 34.3c5.68.42 6.7 12.53 3.56 11.95-.92-4.06-1.9-8.13-3.56-11.95zm55.9 29.8c-2.56-2.16-13.54-.77-5.71-2.55 3.03-.18 8.02-2.2 5.71 2.55zm10.3-20.1c3.1 1.93 6.84.88 10.1 1.1 3.75 3.64 9 .82 12.9 3.5 5.68.79 10.39 2.72 15.75 4.49 3.73.96 7.15 3.73 11.24 4.02 1.79 1.37 7.2 4.32 1.3 2.2-2.8-1.35-11.48-2.27-11.92-3.65-3.88 1.54-9.31-3.86-9.42-2.74-3.82 1.34-10.58-2.94-10.74-2.76-5.49 1.4-8.77-4.38-12.21-3.26-2.57-.26-5.31-.74-7-2.9zm95.3 18.3c-4.67 2.28-7.07 7.71-9.8 11.2-1.58-5.63 3.71-12.85 9.8-11.2zm-172.1-13.59c-6.87-1.04-14.21 3.5-16.84 9.9 1.54-7.3 9.41-11.58 16.39-12.18 1.95-.29.64 1.39.46 2.28zm41.36-57.61c-1.25 4.94-11.15 6.7-11.9 3.68 4-1.15 7.84-2.78 11.9-3.68zm-41.68 12.15c-3.07-6.02-10.54-10.04-17.32-8.64 5.35-2.1 11.8.6 15.98 4.27.84 1.4 5.54 4.13 1.34 4.37zm27.27-21.5c.05-5.25-2.94-10.59-7.05-13.89-1.57-1.17-6.56-3.09-1.83-1.53 6.27 2.63 10.09 9.37 10.8 15.82-.65.1-1.28-.32-1.92-.4zm22.71 111.8c5.34-4 7.21-11.65 5.17-17.87-1.95-2.29 2.74-2.57 1.48.63.79 6.18-1.01 14.06-6.65 17.23z"/>
      <path d="M712.4 216.8c-14.04 7.77-28.33 15.19-41.38 24.57-.73.73-3.2 2.19-1.3.37 8.53-8.45 19.2-14.32 29.91-19.53 4.15-2.05 8.36-4 12.77-5.4zm-39.7 46.4a205.23 205.23 0 0128.5-24.1c-.16 1.21-2.46 2.1-3.39 3.23-8.17 7.05-15.98 14.57-22.9 22.87-.74-.66-1.48-1.33-2.2-2z"/>
      <path d="M314.2 168.2c3.4-1.7 7-3 10.7-3.7 3.7-.8 7.4-1.1 11.1-.8-3.7.2-7.3 1-10.7 2.2s-6.7 2.9-9.6 4.9zm163.6 200.2c7.81 4.57 8.54 11.14 10.2 18.1-3.44-6.15-6.85-12.22-10.2-18.1zm10 25.1c5.83 3.69 5.23 7.51 5.2 13.2-2.34-4.26-3.71-8.86-5.2-13.2zm4.6 23.2c4.8 4.43 3.41 7.78 2.5 13.1-1.9-4.24-2-8.79-2.5-13.1zm12.8 38.9c1.2-5.2 1.8-10.6 1.9-16s-.3-10.9-1.6-16.2c.9 2.6 1.5 5.3 2 8s.9 5.4 1.1 8.2c.4 5.5.3 11.1-.4 16.6z"/>
      <path d="M129.6 268.7c-5.72-.25-11.06 3.93-13.86 8.7-.9 1.84-1.71 5.28-.96 1.28a18.32 18.32 0 0115.09-12.03c.57.56-.44 1.4-.28 2.05zm31.9-63.47c-.47 5.12-10.08 8.22-11.25 5.25 3.74-1.78 7.32-3.9 11.25-5.25zm-39.07 18.23c-4.28-5.09-11.95-8.2-18.53-5.73 3.94-2.6 9.74-1.51 13.99.34 1.25.97 9.62 4.46 4.54 5.4zm23.47-25.05c-.97-6.8-6.53-13.38-13.6-14.38 3.86-.34 7.78 2.25 10.47 5 1.8 2.07 6.41 7.96 4 9.43l-.87-.05zm39.8 106.6c4.48-4.73 5.5-12.67 2.25-18.31-1.9-2.03 2.44-2.52 1.7.63 1.7 6.09.75 13.33-3.95 17.88z"/>
      <path d="M138.6 217.8c1.72 13.25-12.59 18.41 0 0zm-.8 34.8c10.66 3.56 5.46 19.7 1.7 3zm60 20.7c-23.06 3.26 2.9-7.69 0 0zm93.9-24.8c-18.9.5-36.55 5.96-54.98 3.74-5.06-2.46 18.01-.43 24.98-4.74 10.02 1.97 20.2-2.03 30 1zm77.9 344c2.13 14.06-9 15.51 0 0zm34 27.4c-4.94 10.7-11.48 2.67 0 0zm-41.6-2.4c10.83 8.29 3.6 22.01 0 0zm23.7 25.5c15.55-2.44 16.61 9.79 0 0zm64.2-24.3c-14.2 18.7-3.19-7.67 0 0zm-20.8-2.5c-18.96-.56 4.97-6.69 0 0zM319.3 242.6c-1.52 16.87-32.18-.48-8.9 5 3.7.07 6.87-2.14 8.9-5zm45.5-42.4c6.18-5.73 6.33-26.94 6-7.8-2.15 2.22-.67 12.36-6 7.8zm-42.9 14.6c13.85-6.86 12.55 5.52 0 0zm14.8-6.5c7.53-9.8 12.05.45 0 0zm7-10.7c3.2-9.24 8.93.6 0 0zm-40.4 242.9c1.44 9.45 17.12 25.38 2.7 10.7-.54-3.12-9.02-9.67-2.7-10.7zM216.9 95.2c10.24.9 12.09 15.18 2.1 2.6zm17.8 16.1c6.35 4.95 19.23 20.86 3.7 9-1.53-2.88-1.06-6.7-3.7-9zm198.1 477c2.46-2.59 2.7-6.4 3.4-9.6 3.28-2.45 3.75-6.65 5.15-9.97 3.35-2.66 2.92-7.46 5.44-10.34 1.8-1.67 3.34-3.65 3.73-6.13.7-2.8 4.35-3.77 4.88-6.86.35-3.59 4.26-4.9 5.5-8.1.66-2.44 3.75-5.49 5.3-6-1.61 3.31-3.57 4.04-3.94 7.4a23.88 23.88 0 01-4.16 5.7c.95-1.85-.4 2.66-.68 3.2-.46 1.87-3.73 5.21-4.05 4.84.77-.97-.38 2.96-.9 3.76-.8 1.82-3.53 4.7-4.31 4.88.84-1.5-.34 3.15-.78 3.91-.96 2.38-2.75 4.27-4.48 6.11 1.02-1.9-.46 3.14-1 3.83-.89 1.84-3.43 4.57-4.34 4.85.28.43-.75 3.14-1.27 4.49a8.15 8.15 0 01-3.49 4.03zm38.9-75a22.05 22.05 0 006.89 10.09c2.75 1.6 1.5 2.72-.9 1.74-4.8-1.3-8.35-7.14-6.09-11.84zm-8.3 136.5c.2-7.26-6.18-13.08-11.85-15.35 3.5-2.37 8.63 5.22 10.56 8.45a12.76 12.76 0 011.3 6.9zm-109.7-16.11c-4.85-2.36-10.39 1.26-14.13 4.2-1.61 2.26-3.77 4.76-1.19.6 3.23-4.52 11.12-9 15.93-6.37l-.32.73zm36.7 27.63c-4.32 3.54-4.78 10.26-3.35 15.3 2.65 6.46-2.57-2.93-1.67-5.44.05-3.47.7-10.2 4.04-11.13l.49.69zm-36.63-62.28c-3.28-3.92-9.2-4.38-13.97-3.84-2.69.35-8.4 4.08-3.09.5 5.3-2.74 12.06-2.18 17.22.53 2.3 1.4 1.1 1.66-.16 2.81z"/>
      <path d="M394.2-68.6c1.2.5 2.5 1 3.8 1.3s2.7.4 4 .3 2.6-.6 3.6-1.4c1-.9 1.7-2.1 2.2-3.5-.3 1.4-.7 2.8-1.7 4s-2.4 2-3.9 2.4-3 .5-4.5.5c-1.5-.1-3-.3-4.5-.7zm-22.5 2.4c-1.13-.5-1.7-.85-2.4-1.2-.7-.5-1.3-1-1.8-1.5-.6-.6-1.1-1.1-1.5-1.8s-.8-1.4-.8-2.2c.3.7.8 1.2 1.4 1.6s1.2.8 1.9 1.1c1.2.77 2.41.9 3.8 1z"/>
      <path d="M455.1-43.9a23.05 23.05 0 00-13.6 10.4c0-2.55 2.76-5.7 4.7-7.8a25.51 25.51 0 017.9-5.3l1 2.7zm-32.7-1c.5-3.63 2.08-6.98 3.3-10.4l2.7 1.3c-2 3-4.07 5.97-5.7 9.2l-.3-.1zm39.5-17.2c1.16-3.3 3.95-5.94 7.04-7.49 2.53-.95-.46 3.57-1.48 4.52a9.66 9.66 0 01-5.56 2.97zm3.6 4.7c2.24-.84 5.2-1.92 5.34-4.75.53-6.6 5.31-11.95 10.77-15.22.54.13-1.63 2.75-2.24 3.8-2.56 3.71-5.1 7.59-6.03 12.06-.75 3.64-4.6 4.77-7.84 4.11z"/>
      <path d="M420.7 1.3c.1-2.37-.78-6.68 2.68-6.81 7.43-1.36 1.99-11.2 3.47-16.25.06-3.71 2.66-7.5 6.45-8.14-7.14 4.2-3.88 13.31-3.58 19.9 2.26 4.7-5.73 7.3-6.22 7.45.26 1.95.03 8.4-2.8 3.85zM303.9-58.6c7.07-6.51 10.1 9.95 5.38 9.27-.12-3.6-.2-9.8-5.38-9.27zm-.8 4.1c5.05.14.8 9.33-.4 2.7-.04-.92.25-1.8.4-2.7zm74.2-13c-2.55 4.65 5.86 12.83 5.19 3.99.14-1.83.16-3.69-.19-5.49m22-8.3c-5.96 4.58-13.86-.33-20.58-.47-4.66-1.37-9.64 1.59-14.02-.13 6.6-2.54 13.96-4.17 21-1.52 4.42.73 9.14 3.97 13.6 2.12zm-20.7 41.6c3.81-3.26 11.09 6.41 4.12 3.24-1.46-.84-3.1-1.83-4.12-3.24zm12.5 7.7c7.3 0-.9 7.24 0 0zm4.9 6.7c5.38-2.1 1.94 10.11.12 3.18-.3-1.05.6-2.26-.12-3.18zm-90.6-47.3c3.3 1.57 8.56 7.55 8.1 8.81-1.24-4.08-9.24-4.27-8.79-7.44l.69-1.37zm17.7-2.6c3.15 1.44 7.79 7.24 8.95 7.4-2.9-1.54-10.41-2.92-9.24-6.47l.29-.93zm17-3.1c4.08 1.2 6.63 4.81 10.18 6.86-.62.58-6.86-3.6-10.13-3.9-1.55.19.05-2.16-.05-2.96zm38.1 25.4a25.09 25.09 0 0122.9-3.9 241.94 241.94 0 01-22.9 3.9zm-90.5-6.8c3.6 2.34 6.1 7.67 3.3 11.5-.16-4.06-2.08-7.7-3.3-11.5zm57.7 70.9c-2.95-.91-8.15-2.13-2.13-2.54 3.11-1.05 2.06.04 2.13 2.54zm-20.9 0c-3.36-.42-7.58 4.88-8.3-.3 2.74-.6 5.59-.3 8.3.3zm6.9-66.2c11.54-3.92 26.28-1.41 33.6 9-9.84-6.77-21.92-8.57-33.6-9z"/>
      <polygon points="271.1 -19 265.4 -24.8 272.8 -21.5"/>
      <polygon points="259.7 -14.8 254.6 -21.7 261.8 -16.9"/>
      <path d="M440.2-51.5c1.31-6 4.92-12 10.79-14.41 1.05-.42 4.29-1.28 4.2-.5-1.39 1.9-1.2-.2-1.01-1.59.44-5.72 4.96-10.64 10.5-11.9 2.31-1.02.9.63.56.32 2.32-5.4 8.44-8.09 14.07-7.92 1.36-.1 3.5.52 1.3.75 1.48-2.52 3.27-5.02 5.83-6.58a23.93 23.93 0 018.76-3.37c-4.92 1.93-9.92 4.92-12.05 10-.25.84-.66 2.35-1.84 1.8a14.42 14.42 0 00-11.43 3.95c-1.4 1.9-2.16 4.4-5.03 4.22-4.89 1.35-8.18 6.24-8.05 11.23-.4 2.48-3.57.71-5.2 1.85-5.46 1.97-8.91 7.19-11.4 12.15z"/>
      <path d="M371.5 173.5c1.5-2.3 3.8-4.1 6.3-5.4s5.1-2.2 7.8-3 5.4-1.3 8.1-1.9c2.7-.5 5.5-.9 8.1-1.5l.6 2.9c-2.9.4-5.6.5-8.3.8s-5.4.6-8.1 1.1-5.3 1.2-7.8 2.2c-2.5 1.1-5 2.6-6.7 4.8z"/>
      <path d="M410.8 236.2c-2.3-1-4.8-1.6-7.3-2.2s-5.1-1-7.7-1.4c-2.6-.3-5.2-.5-7.9-.6-2.6 0-5.3.1-7.9.5 2.6-.6 5.2-1 7.9-1.2s5.3-.2 8-.1 5.3.3 8 .7 5.3.8 8 1.6l-1.1 2.7z"/>
      <path d="M395.3 203.3c1.7-.5 3.3-1.2 4.8-2s2.9-1.8 4.1-2.9a19.54 19.54 0 005.3-8.2c.2-.6.7-.9 1.3-.9 2.6.2 5.4 0 8.1-.3 2.7-.4 5.4-.9 8-1.6 2.6-.7 5.2-1.6 7.8-2.6 2.5-1 5-2.2 7.2-3.6l1.6 2.5c-2.5 1.6-5.1 2.8-7.7 3.9-2.7 1.1-5.4 1.9-8.2 2.6-2.8.7-5.6 1.2-8.4 1.5a42 42 0 01-8.7.1l1.3-.9c-.7 1.9-1.6 3.4-2.6 5-1.1 1.5-2.3 2.9-3.8 4.1-1.4 1.2-3.1 2.1-4.8 2.7-1.7.6-3.6.9-5.3.9v-.3zm133-164.8C537 26.3 546 14.1 556 2.8c10-11.3 20.9-21.9 33-31 12.1-9.1 25.3-16.7 39.1-22.7 3.4-1.7 7-2.9 10.5-4.3 1.8-.7 3.5-1.4 5.3-2l5.4-1.7c3.6-1.1 7.2-2.3 10.8-3.2 3.7-.9 7.3-1.8 11-2.6l.1.3c-7.1 2.3-14.4 4.3-21.4 7l-5.3 1.9c-1.7.7-3.5 1.4-5.2 2.1l-5.2 2.1c-.9.4-1.7.7-2.6 1.1L629-49c-13.6 6.2-26.5 13.8-38.3 22.9-12 9.1-22.7 19.6-32.5 30.9-9.8 11.2-18.7 23.2-27.5 35.4l-2.4-1.7z"/>
      <path d="M676 55.1C639.07 45 600.62 40.7 562.4 40.4c-4.83-.4-26.43 1.9-12.58-.18 38.26-4.68 77.51-.36 114.4 10.56 4 1.28 7.94 2.7 11.81 4.33zm-1.2 8.7c-43.89-8.13-88.93-10.24-133.4-6.78-5.93.57-16.2 2.04-4.6-.15 41.26-7.04 83.9-5 124.8 3.32 4.45 1.03 8.85 2.22 13.2 3.61zm-170.4 40.5c41.64 9.16 78.16 33.5 110 61.06 5.47 4.66 19.23 18.48 18.83 19.16-29.82-27.21-62.9-51.41-99.39-68.9-9.5-4.56-19.31-8.4-29.44-11.32zm-4.8 16.4c33.49 4.75 62.79 23.6 90.51 41.84a595.5 595.5 0 0139.09 29.36c-38.65-25.37-76.3-54.05-120.6-68.92a92.29 92.29 0 00-9.01-2.28zm-11.1 29c25.59 30.07 43.05 66.16 56.94 102.9 4.7 12.6 9.18 25.38 11.76 38.61-10.64-33.71-25.32-66.05-41.5-97.44-8.11-15.25-16.6-30.38-27.2-44.06zm-8.3 12.6c20.95 22.36 34.77 50.26 48.61 77.3 8.28 17.62 16.68 35.39 21.59 54.3-12.11-31.23-27.94-60.88-43.78-90.35-8.12-14.12-15.78-28.8-26.42-41.25zm-26 23c7.05 25.42 6.13 52.58 1.39 78.35-1 4.74-2.91 11.54-1.47 2.55 2.36-26.86 3.5-54.1.08-80.9zm-11.3 9.2c7.4 24.38 6.4 50.59 2.4 75.5-.02-25.17.9-50.48-2.4-75.5z"/>
    </g>
  </g>
</svg>
