<svg xmlns="http://www.w3.org/2000/svg" fill="#d7374a" stroke="#000" viewBox="50 50 200 200"><metadata license="https://creativecommons.org/licenses/by-nc-sa/3.0" source="http://wappenwiki.org"/><g id="fountain" stroke-width=".5"><circle cx="100" cy="100" r="30"/><g fill="#fafafa"><path d="M74.54 84.09c3.22.66 4.19 4.61 7.86 4.61 4 0 4.8-4.7 8.8-4.7 4 0 4.8 4.7 8.8 4.7 4 0 4.8-4.7 8.8-4.7 4 0 4.8 4.7 8.8 4.7 3.66 0 4.64-3.94 7.86-4.61a31.66 31.66 0 00-4.49-5.57 4.98 4.98 0 01-3.37 1.38c-4 0-4.8-4.7-8.8-4.7-4 0-4.8 4.7-8.8 4.7-4 0-4.8-4.7-8.8-4.7-4 0-4.8 4.7-8.8 4.7a4.96 4.96 0 01-3.32-1.34 29.18 29.18 0 00-4.54 5.54z"/><path d="M73.6 93c-1.26 0-2.2.47-3.03 1.11a31.28 31.28 0 00-.4 9.05 4.89 4.89 0 013.43-1.46c4 0 4.8 4.7 8.8 4.7 4 0 4.8-4.7 8.8-4.7 4 0 4.8 4.7 8.8 4.7 4 0 4.8-4.7 8.8-4.7 4 0 4.8 4.7 8.8 4.7 4 0 4.8-4.7 8.8-4.7 1.48 0 2.53.65 3.46 1.46.38-3 .32-6.05-.46-9.18a4.74 4.74 0 00-3-1.08c-4 0-4.8 4.7-8.8 4.7-4.1.1-4.9-4.6-8.9-4.6s-4.7 4.7-8.7 4.7c-4.1 0-4.8-4.7-8.8-4.7-4 0-4.8 4.7-8.8 4.7-4 0-4.8-4.7-8.8-4.7z"/><path d="M72.19 111.22c2.24 5.67 5.64 10.07 10.42 13.21 3.7-.27 4.71-4.73 8.59-4.73 4 0 4.8 4.7 8.8 4.7 4 0 4.8-4.7 8.8-4.7 4 0 4.55 4.7 8.55 4.7 4.81-3.3 8.29-7.7 10.51-13.25a3.96 3.96 0 00-1.46-.25c-4 0-4.8 4.7-8.8 4.7-4 0-4.8-4.7-8.8-4.7-4 0-4.8 4.7-8.8 4.7-4 0-4.8-4.7-8.8-4.7-4 0-4.8 4.7-8.8 4.7-5.94-.4-3.88-5.06-10.21-4.38z"/></g></g></svg>