<svg xmlns="http://www.w3.org/2000/svg" fill="#d7374a" stroke="#000" viewBox="50 50 400 400">
  <metadata source="http://wappenwiki.org" license="https://creativecommons.org/licenses/by-nc-sa/3.0"/>
  <g id="garb" stroke-width="2.5" transform="matrix(0.228,0,0,0.228,50,45.5)">
    <path d="m322 386c0.13524-7.8854-13.961-14.238-22-67 2-10 4-15 10-32 3-9 15-29 20-37 2.0166-160.84-230.28-162.39-228-4 0 5 4 1 8 4 3 4 16 25 21 36 5 13 7 23 9 33 1.7406 12.85-3.2908 44.891-21 63-6.4858 13.126 28.142 15.937 39 19 19 6 61 1 66 1 4-1 41 3 60-2 12.084-3.5413 31.984-1.9685 38-14z"/>
    <g>
      <path d="m223 104 9 30 12-29c1-18-9-31-9-31s-11 12-12 30z"/>
      <path d="m219.8 132.2c-10.7-18.1-4.8-34.2-4.8-34.2s16 7 24 25"/>
      <path d="m236.4 142c0.4-0.6 9-9.2 9.4-9.9 10-16.2 6.2-32.1 6.2-32.1s-20.1 5.5-29 30.9"/>
      <path d="m218 157c-11-16-6-31-6-31s17 5 26 22"/>
      <path d="m230 168c13.7-2.7 25.1-23.7 23-40-21.7 8.2-32.6 21.7-32 34"/>
      <path d="m230 182c-3 0-9-4-13-10-7-10-6-18-6-18s12.3 2.3 19.5 12.5"/>
      <path d="m229 182c5.7 0.2 11.2-3.8 15-8 4.9-5.4 7-18 7-18s-12 2-19 9c-2.7 2-10.2 16.4-3 17z"/>
    </g>
    <g transform="rotate(18.232 159.92 357.77)">
      <path d="m223 104 9 30 12-29c1-18-9-31-9-31s-11 12-12 30z"/>
      <path d="m219.8 132.2c-10.7-18.1-4.8-34.2-4.8-34.2s16 7 24 25"/>
      <path d="m236.4 142c0.4-0.6 9-9.2 9.4-9.9 10-16.2 6.2-32.1 6.2-32.1s-20.1 5.5-29 30.9"/>
      <path d="m218 157c-11-16-6-31-6-31s17 5 26 22"/>
      <path d="m230 168c13.7-2.7 25.1-23.7 23-40-21.7 8.2-32.6 21.7-32 34"/>
      <path d="m230 182c-3 0-9-4-13-10-7-10-6-18-6-18s12.3 2.3 19.5 12.5"/>
      <path d="m229 182c5.7 0.2 11.2-3.8 15-8 4.9-5.4 7-18 7-18s-12 2-19 9c-2.7 2-10.2 16.4-3 17z"/>
    </g>
    <g transform="rotate(34.283 135.73 342.53)">
      <path d="m223 104 9 30 12-29c1-18-9-31-9-31s-11 12-12 30z"/>
      <path d="m219.8 132.2c-10.7-18.1-4.8-34.2-4.8-34.2s16 7 24 25"/>
      <path d="m236.4 142c0.4-0.6 9-9.2 9.4-9.9 10-16.2 6.2-32.1 6.2-32.1s-20.1 5.5-29 30.9"/>
      <path d="m218 157c-11-16-6-31-6-31s17 5 26 22"/>
      <path d="m230 168c13.7-2.7 25.1-23.7 23-40-21.7 8.2-32.6 21.7-32 34"/>
      <path d="m230 182c-3 0-9-4-13-10-7-10-6-18-6-18s12.3 2.3 19.5 12.5"/>
      <path d="m229 182c5.7 0.2 11.2-3.8 15-8 4.9-5.4 7-18 7-18s-12 2-19 9c-2.7 2-10.2 16.4-3 17z"/>
    </g>
    <g transform="rotate(24.191 144.34 371.68)">
      <path d="m223 104 9 30 12-29c1-18-9-31-9-31s-11 12-12 30z"/>
      <path d="m219.8 132.2c-10.7-18.1-4.8-34.2-4.8-34.2s16 7 24 25"/>
      <path d="m236.4 142c0.4-0.6 9-9.2 9.4-9.9 10-16.2 6.2-32.1 6.2-32.1s-20.1 5.5-29 30.9"/>
      <path d="m218 157c-11-16-6-31-6-31s17 5 26 22"/>
      <path d="m230 168c13.7-2.7 25.1-23.7 23-40-21.7 8.2-32.6 21.7-32 34"/>
      <path d="m230 182c-3 0-9-4-13-10-7-10-6-18-6-18s12.3 2.3 19.5 12.5"/>
      <path d="m229 182c5.7 0.2 11.2-3.8 15-8 4.9-5.4 7-18 7-18s-12 2-19 9c-2.7 2-10.2 16.4-3 17z"/>
    </g>
    <g transform="rotate(8.4722 168.86 384.61)">
      <path d="m223 104 9 30 12-29c1-18-9-31-9-31s-11 12-12 30z"/>
      <path d="m219.8 132.2c-10.7-18.1-4.8-34.2-4.8-34.2s16 7 24 25"/>
      <path d="m236.4 142c0.4-0.6 9-9.2 9.4-9.9 10-16.2 6.2-32.1 6.2-32.1s-20.1 5.5-29 30.9"/>
      <path d="m218 157c-11-16-6-31-6-31s17 5 26 22"/>
      <path d="m230 168c13.7-2.7 25.1-23.7 23-40-21.7 8.2-32.6 21.7-32 34"/>
      <path d="m230 182c-3 0-9-4-13-10-7-10-6-18-6-18s12.3 2.3 19.5 12.5"/>
      <path d="m229 182c5.7 0.2 11.2-3.8 15-8 4.9-5.4 7-18 7-18s-12 2-19 9c-2.7 2-10.2 16.4-3 17z"/>
    </g>
    <g transform="rotate(-41.162 289.88 345.74)">
      <path d="m223 104 9 30 12-29c1-18-9-31-9-31s-11 12-12 30z"/>
      <path d="m219.8 132.2c-10.7-18.1-4.8-34.2-4.8-34.2s16 7 24 25"/>
      <path d="m236.4 142c0.4-0.6 9-9.2 9.4-9.9 10-16.2 6.2-32.1 6.2-32.1s-20.1 5.5-29 30.9"/>
      <path d="m218 157c-11-16-6-31-6-31s17 5 26 22"/>
      <path d="m230 168c13.7-2.7 25.1-23.7 23-40-21.7 8.2-32.6 21.7-32 34"/>
      <path d="m230 182c-3 0-9-4-13-10-7-10-6-18-6-18s12.3 2.3 19.5 12.5"/>
      <path d="m229 182c5.7 0.2 11.2-3.8 15-8 4.9-5.4 7-18 7-18s-12 2-19 9c-2.7 2-10.2 16.4-3 17z"/>
    </g>
    <g transform="rotate(-23.857 263.15 366.51)">
      <path d="m223 104 9 30 12-29c1-18-9-31-9-31s-11 12-12 30z"/>
      <path d="m219.8 132.2c-10.7-18.1-4.8-34.2-4.8-34.2s16 7 24 25"/>
      <path d="m236.4 142c0.4-0.6 9-9.2 9.4-9.9 10-16.2 6.2-32.1 6.2-32.1s-20.1 5.5-29 30.9"/>
      <path d="m218 157c-11-16-6-31-6-31s17 5 26 22"/>
      <path d="m230 168c13.7-2.7 25.1-23.7 23-40-21.7 8.2-32.6 21.7-32 34"/>
      <path d="m230 182c-3 0-9-4-13-10-7-10-6-18-6-18s12.3 2.3 19.5 12.5"/>
      <path d="m229 182c5.7 0.2 11.2-3.8 15-8 4.9-5.4 7-18 7-18s-12 2-19 9c-2.7 2-10.2 16.4-3 17z"/>
    </g>
    <g transform="rotate(-31.078 279.15 369.23)">
      <path d="m223 104 9 30 12-29c1-18-9-31-9-31s-11 12-12 30z"/>
      <path d="m219.8 132.2c-10.7-18.1-4.8-34.2-4.8-34.2s16 7 24 25"/>
      <path d="m236.4 142c0.4-0.6 9-9.2 9.4-9.9 10-16.2 6.2-32.1 6.2-32.1s-20.1 5.5-29 30.9"/>
      <path d="m218 157c-11-16-6-31-6-31s17 5 26 22"/>
      <path d="m230 168c13.7-2.7 25.1-23.7 23-40-21.7 8.2-32.6 21.7-32 34"/>
      <path d="m230 182c-3 0-9-4-13-10-7-10-6-18-6-18s12.3 2.3 19.5 12.5"/>
      <path d="m229 182c5.7 0.2 11.2-3.8 15-8 4.9-5.4 7-18 7-18s-12 2-19 9c-2.7 2-10.2 16.4-3 17z"/>
    </g>
    <g transform="rotate(-10.912 233.79 268.94)">
      <path d="m223 104 9 30 12-29c1-18-9-31-9-31s-11 12-12 30z"/>
      <path d="m219.8 132.2c-10.7-18.1-4.8-34.2-4.8-34.2s16 7 24 25"/>
      <path d="m236.4 142c0.4-0.6 9-9.2 9.4-9.9 10-16.2 6.2-32.1 6.2-32.1s-20.1 5.5-29 30.9"/>
      <path d="m218 157c-11-16-6-31-6-31s17 5 26 22"/>
      <path d="m230 168c13.7-2.7 25.1-23.7 23-40-21.7 8.2-32.6 21.7-32 34"/>
      <path d="m230 182c-3 0-9-4-13-10-7-10-6-18-6-18s12.3 2.3 19.5 12.5"/>
      <path d="m229 182c5.7 0.2 11.2-3.8 15-8 4.9-5.4 7-18 7-18s-12 2-19 9c-2.7 2-10.2 16.4-3 17z"/>
    </g>
    <g transform="rotate(-14.721 266.19 381.05)">
      <path d="m223 104 9 30 12-29c1-18-9-31-9-31s-11 12-12 30z"/>
      <path d="m219.8 132.2c-10.7-18.1-4.8-34.2-4.8-34.2s16 7 24 25"/>
      <path d="m236.4 142c0.4-0.6 9-9.2 9.4-9.9 10-16.2 6.2-32.1 6.2-32.1s-20.1 5.5-29 30.9"/>
      <path d="m218 157c-11-16-6-31-6-31s17 5 26 22"/>
      <path d="m230 168c13.7-2.7 25.1-23.7 23-40-21.7 8.2-32.6 21.7-32 34"/>
      <path d="m230 182c-3 0-9-4-13-10-7-10-6-18-6-18s12.3 2.3 19.5 12.5"/>
      <path d="m229 182c5.7 0.2 11.2-3.8 15-8 4.9-5.4 7-18 7-18s-12 2-19 9c-2.7 2-10.2 16.4-3 17z"/>
    </g>
    <g transform="rotate(-23.405 376.56 380.61)">
      <path d="m223 104 9 30 12-29c1-18-9-31-9-31s-11 12-12 30z"/>
      <path d="m219.8 132.2c-10.7-18.1-4.8-34.2-4.8-34.2s16 7 24 25"/>
      <path d="m236.4 142c0.4-0.6 9-9.2 9.4-9.9 10-16.2 6.2-32.1 6.2-32.1s-20.1 5.5-29 30.9"/>
      <path d="m218 157c-11-16-6-31-6-31s17 5 26 22"/>
      <path d="m230 168c13.7-2.7 25.1-23.7 23-40-21.7 8.2-32.6 21.7-32 34"/>
      <path d="m230 182c-3 0-9-4-13-10-7-10-6-18-6-18s12.3 2.3 19.5 12.5"/>
      <path d="m229 182c5.7 0.2 11.2-3.8 15-8 4.9-5.4 7-18 7-18s-12 2-19 9c-2.7 2-10.2 16.4-3 17z"/>
    </g>
    <g transform="rotate(19.413 28.088 347.37)">
      <path d="m223 104 9 30 12-29c1-18-9-31-9-31s-11 12-12 30z"/>
      <path d="m219.8 132.2c-10.7-18.1-4.8-34.2-4.8-34.2s16 7 24 25"/>
      <path d="m236.4 142c0.4-0.6 9-9.2 9.4-9.9 10-16.2 6.2-32.1 6.2-32.1s-20.1 5.5-29 30.9"/>
      <path d="m218 157c-11-16-6-31-6-31s17 5 26 22"/>
      <path d="m230 168c13.7-2.7 25.1-23.7 23-40-21.7 8.2-32.6 21.7-32 34"/>
      <path d="m230 182c-3 0-9-4-13-10-7-10-6-18-6-18s12.3 2.3 19.5 12.5"/>
      <path d="m229 182c5.7 0.2 11.2-3.8 15-8 4.9-5.4 7-18 7-18s-12 2-19 9c-2.7 2-10.2 16.4-3 17z"/>
    </g>
    <g transform="rotate(5.5638 -463.01 355.46)">
      <path d="m223 104 9 30 12-29c1-18-9-31-9-31s-11 12-12 30z"/>
      <path d="m219.8 132.2c-10.7-18.1-4.8-34.2-4.8-34.2s16 7 24 25"/>
      <path d="m236.4 142c0.4-0.6 9-9.2 9.4-9.9 10-16.2 6.2-32.1 6.2-32.1s-20.1 5.5-29 30.9"/>
      <path d="m218 157c-11-16-6-31-6-31s17 5 26 22"/>
      <path d="m230 168c13.7-2.7 25.1-23.7 23-40-21.7 8.2-32.6 21.7-32 34"/>
      <path d="m230 182c-3 0-9-4-13-10-7-10-6-18-6-18s12.3 2.3 19.5 12.5"/>
      <path d="m229 182c5.7 0.2 11.2-3.8 15-8 4.9-5.4 7-18 7-18s-12 2-19 9c-2.7 2-10.2 16.4-3 17z"/>
    </g>
    <g transform="rotate(-8.2048 743.2 484.12)">
      <path d="m223 104 9 30 12-29c1-18-9-31-9-31s-11 12-12 30z"/>
      <path d="m219.8 132.2c-10.7-18.1-4.8-34.2-4.8-34.2s16 7 24 25"/>
      <path d="m236.4 142c0.4-0.6 9-9.2 9.4-9.9 10-16.2 6.2-32.1 6.2-32.1s-20.1 5.5-29 30.9"/>
      <path d="m218 157c-11-16-6-31-6-31s17 5 26 22"/>
      <path d="m230 168c13.7-2.7 25.1-23.7 23-40-21.7 8.2-32.6 21.7-32 34"/>
      <path d="m230 182c-3 0-9-4-13-10-7-10-6-18-6-18s12.3 2.3 19.5 12.5"/>
      <path d="m229 182c5.7 0.2 11.2-3.8 15-8 4.9-5.4 7-18 7-18s-12 2-19 9c-2.7 2-10.2 16.4-3 17z"/>
    </g>
    <g transform="rotate(-2.2161 1883.9 494.01)">
      <path d="m223 104 9 30 12-29c1-18-9-31-9-31s-11 12-12 30z"/>
      <path d="m219.8 132.2c-10.7-18.1-4.8-34.2-4.8-34.2s16 7 24 25"/>
      <path d="m236.4 142c0.4-0.6 9-9.2 9.4-9.9 10-16.2 6.2-32.1 6.2-32.1s-20.1 5.5-29 30.9"/>
      <path d="m218 157c-11-16-6-31-6-31s17 5 26 22"/>
      <path d="m230 168c13.7-2.7 25.1-23.7 23-40-21.7 8.2-32.6 21.7-32 34"/>
      <path d="m230 182c-3 0-9-4-13-10-7-10-6-18-6-18s12.3 2.3 19.5 12.5"/>
      <path d="m229 182c5.7 0.2 11.2-3.8 15-8 4.9-5.4 7-18 7-18s-12 2-19 9c-2.7 2-10.2 16.4-3 17z"/>
    </g>
    <path stroke="none" d="m 128.17375,269.13469 c 0,0 -5.21157,-7.94147 -2.23353,-9.92683 l 2.97805,-1.98537 5.70792,-0.49634 c 0,0 11.41585,4.21891 13.15305,1.7372 l 1.73719,-2.4817 c 7.68141,-6.06866 13.39425,-5.25324 16.13109,-4.46708 4.19233,2.32811 7.12579,3.46602 11.72347,3.53384 0,0 2.31591,-3.7309 6.50764,-2.62911 l 5.86815,1.54244 c 0,0 5.61213,-0.30943 11.07189,-0.30943 3.47041,0 4.91181,-1.83458 7.92996,-1.76152 1.73008,0.0419 5.09297,-12.18432 5.09297,-12.18432 l 17.54524,5.82859 9.02092,-1.92633 12.53901,-0.36505 4.46618,4.73925 12.2633,-0.47222 6.69653,6.81056 c 3.67353,3.47804 15.99359,3.4219 20.58665,1.69058 1.08925,-0.41059 6.30673,-3.78664 6.10018,-1.37675 -0.48557,5.66527 13.01688,12.41212 11.76506,13.34579 -2.45157,1.82852 -23.19828,-4.88378 -21.48966,-6.66472 l -22.24132,2.5781 L 260.07696,252.18111 206,256 192.68685,261.1913 173,259.0001 148,261 Z"/>
    <path fill="#000" stroke="none" d="m185 271c3.5904 7.0331 8.8861 24.367 9 37.778h-2c-0.79254-13.655-3.8065-25.004-7-37.778zm101-8c-10.857 14.237-16.496 28.31-22.07 45.429 3.486-21.271 7.3524-31.405 22.07-45.429zm-30 6c-1.999 11.905-5.1564 24.99-6.6619 35.76l-2.3381-0.75955c0.45203-12.31 4.6858-25.414 9-35zm-108-8c13.421 13.959 16.571 25.569 19 45h-2c-2.2704-16.684-8.0606-32.99-17-45zm58-5c5.9508 18.495 7.7806 34.048 6.8897 52.399l-1.3569 0.11681c-0.25069-18.177-2.4038-34.785-5.5328-52.516zm-15.649 99.305 2.1051 0.69515c0.11287 3.1634-8.2185 21.958-13.456 31 3.8948-10.447 7.4892-19.95 11.351-31.695zm-18.078-7.6802 2.4245 0.47287c-2.1903 11.576-6.9404 24.623-12.698 34.902 5.9865-12.216 9.0254-26.468 10.273-35.375zm-19.273 3.3754c-0.48918 11.747-6.6863 19.966-12 26 4.5171-9.0929 8.1545-16.941 12-26zm45.676 4.6217c-1.2672 6.6661-0.69976 4.6544-3.6756 12.378l2-12zm25.324 1.3783c-1.2839 15.97-3.3724 22.692-7 32 2.5193-9.841 4.0881-21.095 4.9113-31.331zm45.089 21.887c-4.1267-9.0141-8.545-17.612-11.089-28.887l2.5586 0.10976c2.311 13.114 5.781 20.045 8.5302 28.777zm11.452-31.344 1.7023 0.10434c2.6443 13.742 5.6804 24.199 10.757 37.352-7.9612-11.882-11.154-27.603-12.459-37.457zm-29.541 44.457c-0.56494-10.052 0.43891-23.579 1-34 2.3176 11.054 2.3946 23.848-1 34zm-54-10c0.50148 5.107-1.9542 9.9227-4 13 0.99502-4.5072 2.7762-9.3286 4-13zm-46-87c-3.1971-10.424-10.313-18.306-17-26 9.6112 6.3666 16.033 15.228 17 26zm73.58 13.099c0.80422-10.378 4.9369-22.005 7.7748-33.195 1.3029-5.2675 3-16 3-16 0.92144-4.9144-0.53908 13.012-2 18.195-3.3046 10.114-5.071 20.587-7.1291 31zm59.42-4.0991c11.61-11.903 16.872-20.281 21.349-36.566-0.58283 16.287-10.946 27.636-19.349 37.566zm-105 5c-3.0377-10.979-6.0041-22.878-7-33-0.40056-5.735 0.29156-11.333 1-17 0.84023 18.363 3.8632 32.225 7 50z"/>
    <path fill="#bc2e2e" d="m305 319c-2.0879-9.9795 1.4228-14.172-0.38191-18.334-52.359 12.701-111.59 12.11-164.38 1.3341-9.3711-3.8799-4.3387 11.356-4.2418 16 0.3061 2.2881-1.1424 7.0456-1.1424 9.2612-0.99049 11.437 3.3064 15.736 14.142 17.739 40.179 4.3277 80.623 5.6647 121 4 7 0 13.881-2.4746 21-4 6.9141-1.4816 14-5 16-12-0.33658-4.7273-1.0729-9.3643-2-14z"/>
    <path fill="#bc2e2e" d="m194 356c-6 0-5.6167-3.7-2.9501-6.3666 7.9638-6.5658 8.4756-14.631 11.95-25.633 2-6 5-14 11-17 5-2 11 2 16 1 5-2 5-4 15-4 7 0 8 6 8 6-0.66151 3.274-2.9725 5.4657-5 8-4 5-7 11-9 18-2 5-3 12-7 16-2.3915 2.1762-5.0146 3.8703-8 5-6.4894 2.4556-11.383-5.1347-16-4-4.8408 1.1898-9.1461 2.4607-14 3z"/>
    <g fill="#000" stroke="none">
    <path d="m142 316c11.583 3.9814 23.507 7.5161 36 8-12.476 3.3956-25.73-0.69296-36-8zm116 14c15.469-3.6047 27.373-7.0948 40.223-12.172-4.5019 3.6532-10.556 8.1162-16.747 8.9678-8.4567 1.1632-14.87 3.4096-23.476 3.2042zm22 4c6.4699 0.478 12.911 0.85364 19 0-5.7947 3.2829-13.077 3.3556-18.861 0.0525zm-129-2c13.117 2.29 32.584 2.9964 48.889 0.19176l-0.0269 2.8724c-16.275 1.7335-16.424 2.7694-32.839 1.2815-5.1366-1.1022-10.997-2.8488-16.023-4.3457z"/>
    <path d="m215 349c2.1472-4.102 4.3149-7.9186 5.8224-12.598 1.2589-2.6822 2.7303-3.3803 4.0481-6.022 1.1069-2.2189 3.1519-4.2478 4.8134-5.1693 0.57349-0.23065-1.0722 1.6798-1.3668 2.3161-1.3759 1.6116-1.2857 3.7435-2.4698 5.4768-2.3724 3.4729-3.0011 8.1502-5.9673 11.116z"/>
    <path d="m223 311c-0.0393 0.9614 0.084 1.9491-0.29426 2.8784-0.43812 1.0764-0.73853 2.2075-1.3519 3.2148-1.4466 2.3756-2.842 4.8593-3.5188 7.5667l-0.83502 3.3401c0.0423-1.4586-0.16247-2.9385 0.0787-4.3795 0.26853-1.6044 0.43301-3.2503 0.99937-4.7768 0.49829-1.343 1.0691-2.6928 1.9219-3.8438 0.83829-1.1314 2.3938-1.7286 2.8654-3.1373 0.0895-0.27823 0.13551-0.57045 0.13472-0.86266z"/>
    </g>
  </g>
</svg>
