<svg xmlns="http://www.w3.org/2000/svg" fill="#d7374a" stroke="#000" viewBox="50 50 200 200"><metadata license="https://creativecommons.org/licenses/by-nc-sa/3.0" source="http://wappenwiki.org"/><g id="hand" stroke-width=".6"><path d="M84.46 131.34c-1.56-1.7-5.82-8.28-5.82-19.2 0-5.36.24-7.48.44-12.96l.06-1.38c.14-2.86.24-4.94.16-6.54-.54-.8.2-6.32.46-7.94-.38-1.18.54-5.42.54-5.42s.68-4.08 2.92-4.1c2.2-.04 2.82 2.54 2.84 3.58l.04 5.6c.02 2.58.04 5.26.12 6.84.2 3.94 1.08 5.86 1.08 5.86l.34-9.7c-.4-1.54.36-8.26.62-10.58-.32-.8.36-5.78.34-6.5 0-.72.4-4.58 3.24-4.62 2.04-.02 2.92 2.4 2.84 3.44.1 3.04.32 11.28.34 14.68.02 3.44.48 11.32 1.26 11.54 0-6.12.54-10.52.54-10.52s-.1-.36-.1-.98c.02-2.46.2-8.84.42-10.74-.26-2.22.24-5.96.2-6.28-.04-.32.36-4.38 2.92-4.38 3.04 0 3.34 3.6 3.34 3.6l.42 11.68.72 9.7s-.54 8.1.5 8.1c.46 0 1.06-7.58 1.26-8.8-.38-1.3.4-9.04.36-9.5-.4-1.18-.2-6.16-.2-6.92 0-.76.3-3.94 3.04-3.94 2.68 0 3.16 3.96 3.16 3.96s1.3 6.84 1.24 12.6c-.04 4.86-.3 8.88-.44 14.02-.1 3.9-.32 9-.44 11.78.34-.2.76-1.06.88-2.2-.26-.66.18-5.94.42-6.82-.66-3.28 2.6-9.14 2.6-9.14s.92-1.72 3.16-1.54c2.24.18 2.24 2.32 2.24 2.32s-.72 3.54-.72 4.9c0 .68.82 7.98.82 7.98l-.96 6.94c-.38 2.62-.64 5.86-1.52 7.22-3.06 5.16-5.98 10.34-9.08 12.18-1.06 2.5.2 6.52.4 8.16 0 1.76-1.32 2.22-2.62 2.22-2.34.02-6.08-.36-10-.36-3.66-.02-7.48.36-10.4.46-1.98 0-4.34-.5-4.34-3 .12-.82.36-4 .36-5.3z"/><g fill="#000" stroke="none"><path d="M265.5 273.4c-5.7 2.9-12.5 3.2-18.7 2 0-5.3 5.1-.6 8.2-1.2 3.5.6 7.1-.3 10.5-.8zm-1.9 48.7c-6 2.3-12.9 2.5-19 .6 1-5.9 8 1.3 12.1-.2 2.3.3 4.6-.2 6.9-.4zm-38.1-7.9c-5.3 4.4-13.6 4.4-19.4.8 6.5-.5 12.9-.2 19.4-.8zm-.9-56c-5.3 4.4-13.6 4.4-19.4.8 6.5-.5 12.9-.2 19.4-.8zm-45.2 17.6c-4.7 4.5-12.9 4.7-18.2 1.1 6-.6 12.2-.8 18.2-1.1zm-2.7 49.9c-4.7 4.5-12.9 4.7-18.2 1.1 6-.6 12.2-.8 18.2-1.1zm-42.4-15.5c-4.4 4.2-12.1 4.7-17 1 5.7-.3 11.4-.8 17-1zm2 40.6c-4.5 4.7-12.4 5.1-17.8 1.7 5.9-.7 11.9-.7 17.8-1.7zm95.3 49.9c-14.2 2.9-27.6 8.6-41.2 13.4-15.1 6.3-31.3 11.6-43.9 22.5-.2-.9 8.1-8.8 12.2-10.8 19.9-11.8 42.1-19.8 64.7-24.4 2.7-.4 5.4-1 8.2-.7zm-5.8 57.5c-15 14.9-28 35.3-25.2 57.2.8 7.9 3.9 15.3 7.7 22.2-11.4-13.3-14-32.8-6.9-48.8 5-12.3 14.1-22.4 24.4-30.6z" transform="matrix(.2 0 0 .2 57.5 21.1)"/><path d="M202.4 590.8l-3-.2 2.7-20.1z" transform="matrix(.2 0 0 .2 57.5 21.1)"/><path d="M248.8 548.2c6.7-1.4 13-4.3 18.6-8.2 2.2 2.1 1.2 3.3-1.4 3.9-5.4 2.4-11.3 3.7-17.2 4.3zm-81.4 6.5c-9 2-18.6 3.2-27.7.9-2-.6-4-1.4-5.7-2.7 1.2-2.2 2.4-2.6 4.2-.7 8.9 4.4 19.6 3.6 29.2 2.5zm75.1-103.1c6.3-6.9 15.9-10.7 25.3-10.3 1.9.2-3.2 1.3-4.3 1.9-7 2.6-14.2 5-21 8.3z" transform="matrix(.2 0 0 .2 57.5 21.1)"/><path d="M224.1 367.1c7.3-4 16.4-2.7 24-.2 1.7.5 8 4.2 5 3.4-8.5-1.9-17.2-3.1-25.9-3.4-1 .1-2.1.1-3.1.2zm79.4 24.8c-6.6 1-14 .1-19-4.6 1.6-2.2 2.9-1.9 4.4.2 4.1 3.2 9.5 4.4 14.6 4.4zm-2 35.2c-6.7 1.8-15 .5-19.2-5.6 2.7-2.7 3.6.1 5.5 2 3.8 3.2 8.9 4 13.7 3.6zm-122.9-58.2c6.6-5.1 15.8-5.3 23.7-3.7 2.1.4 5.9 1.9 6.5 2.6-9.5-.8-19.1-1-28.5.7-.6.1-1.1.3-1.7.4zm-45 17.2c4.8-7.1 13.1-11.3 21.1-13.7 3-.8 6.3-1.2 9.4-.3-8.1 1.4-15.2 5.9-22.5 9.5-2.6 1.5-5.4 2.7-7.7 4.6z" transform="matrix(.2 0 0 .2 57.5 21.1)"/></g><path fill="none" d="M113.66 106.84s-.72 1.34-.96 2.78"/><path stroke-width=".4" d="M121.92 94.9c0-1.36.84-5.44.84-5.44s-1.28-.22-1.28 1.26.44 4.86.44 4.18z"/></g></svg>