<svg xmlns="http://www.w3.org/2000/svg" fill="#d7374a" stroke="#000" viewBox="50 50 200 200"><metadata license="https://creativecommons.org/licenses/by-nc-sa/3.0" source="http://wappenwiki.org/images/6/6c/Corsica_Ancient.svg"/><g id="headWreathed" stroke-width=".375"><path d="M86.68 124.55c1.65 3.68.67 5.1.9 6.94.35 3.12 1.37 2.52 2.06 5.9.72 2.94-1.69 5.45.32 5.26 4.08-.93 6.2-3.27 13.72-5.11 7.52-1.84 10.7-.88 12.96-1.98 1.96-.9 2.97-2.01 2.77-3.2-.47-3.02-1.96-4.29-2.87-10.47-.5-4.41-.41-6.4 1.45-9.59l6.55-12.54c.26-4.53-1.65-7.45-4.75-10.77-3.1-3.31-6.89-5.9-10.24-8.98-1-.91-1.96-1.87-3.05-2.68a24.43 24.43 0 00-5.51-2.9c-8.88-3.65-14.69-9.32-24.15-7.7-.14.23-3.26 3.45-3.91 5.27C71.8 75.45 69 79.75 69 82.45c0 3.89 2.25 3.59 2.25 5.71 0 0 0 4.1-2.06 6.89-1.74 2.35-5.04 3.03-5.04 5.6 0 3.33 3.86 2.56 3.86 4.23 0 1.32-.53 1.47-1.18 2.2-.57.66-1.04 1.12-1.1 1.43-.14.94.33 1.67.76 2.24.89 1.19 2.25 1.68 2.25 1.68s-1.43.3-1.43 1.9c0 .8.74 2.02 1.5 2.57 1.4 1.01 3.19.56 3.19.56.49 1.89-.87 2.6.84 5.57.96 1.52 3.92 2.3 5.8 2.48 1.56.15 2.3-.09 3.89-.37 1.45-.24 4.15-.59 4.15-.59z"/><path d="M129.1 88.41c.31-2.3-.6-3.1-.6-4.46 0-1.35.76-1.9.14-4.3-.63-2.4-1.73-1.56-2.14-3.65-.42-2.09-.02-1.39-.74-3.99-.73-2.61-3.09-3.27-3.83-4-.72-.72-1.36-3.02-3.66-4.06-1.99-.9-3.84-.65-5.19-1.28-1.35-.62-1.1-1.9-4.4-2.98-3.02-1-4.3-.15-5.87-.35-1.56-.22-2.89-1.62-5.51-1.77-2.45-.13-3.14.97-5.02 1.18-1.87.21-2.55-.1-5.3.32-2.17.34-3.48 2.45-5.17 2.98-1.59.49-6.24 2.05-6.11 4.95-.33.7-2.76 1.97-2.41 3.81.18-.4-.42 1.43.44 1.48.68.03 2.8.28 3.43.6 1.99 1.02 2.79-.12 4.98.41.54.13.91.82 1.46.9 2.22.31 5.73.59 6.51 3.4.26.95-.26 1.92-.26 2.9-.02 1.44 2.37 2.69 2.41 4.17.02.98-.11 2.13.64 2.77.63.53.35.4 1.1.78.4.2.7.55 1 .9 1.2 1.34 2.46 2.33 2.07 4.4-.09.47-.27.92-.31 1.4-.06.62.11 1.24.29 1.84.63-.14 1.3-.12 1.92.04.8.21 1.89.92 2.61.24.62-.58.88-2.37 1.18-3.14.22-.58.64-1.03.95-1.64.26-.51.24-1.34.59-1.85s.77-.65 1.25-.92c.62-.38 1.31-.95 2-1.08 1.73-.34 2.52-.3 2.52-.3.3 0 .86.25.86.25 2.68.83 4.7 4.14 3.35 8.48-.95 3.08-2.27 3.51-3.77 4.06-.49.17-.99.4-1.49.66-.02.25-.01.5 0 .74.13 1.82-.51 1.81-.97 2.76-.45.93-.75 1.86.08 2.93.2.25.55.51.77.9.28.52.5 1.32.88 1.61.34.26.78.41 1.12.75.36.37.62.92 1.05 1.12.58.28.97-.02 1.67.07.45.05.45.32.93.5.32.11.9.08 1.11.13.97.2 1.99 1.4 2.96.3.44-.5.56-1.2.99-1.73.55-.69.75-.77 1.41-1.35.9-.8.31-3.19 1.05-3.98 1.11-1.19 1.74-1.3 2.71-2.61a14 14 0 001.15-1.7c.42-.76.64-1.61 1.08-2.36.4-.68.91-1.08 1.02-1.9.22-1.54-.42-3.07-.07-4.58.41-1.8.82-2.46 1.14-4.75z"/><path fill="none" d="M110.96 88.32c2.68.83 4.69 4.14 3.35 8.48-.95 3.09-2.27 3.51-3.77 4.06a9.9 9.9 0 00-3.68 2.25c-1.05 1.16-1.91 1.71-3.39 1.25"/><path fill="#fff" d="M81.61 91.7c-.1-.09-1.51-1.18-2.96-2-1.61-1.11-3.05-1.26-3.05-1.26h0s-.4 1.13-.14 2.31a5 5 0 001.19 2.26c1.71-.27 2.51-.5 3.29-.66.3-.09 1.68-.37 1.67-.65z"/><path d="M72.04 84.92c-.1.03-.19.04-.28.03-.69-.07.06-1.51.29-1.81.47-.6 1.1-1.04 1.82-1.28 1.88-.61 3.63-.01 5.28.86 1.34.77 6.27 4.68 5.35 5.33-.63-.45-4.85-3.03-7.53-3.53a9.73 9.73 0 00-4.16.11c-.2.05-.5.23-.77.3z"/><g fill="#fff"><path d="M127.7 99.74c-1.88 1.4-1.32 4.42-3.03 4.39-.74-.1-1.11-1.64-2.18-2.93-1.3-1.59-1.52-3.21-1.97-4.65-.51-1.54-1.93-2.79-3.94-4.75-1.54-1.49-1.12-2.39-2.71-3.56-1.59-1.18-3.81-1.01-6.36-2.56-2.38-1.44-2.4-2.92-3.5-3.43-1.08-.5-2.53-.42-4.84-1.52-2.9-1.4-3.4-3.24-4.49-3.74s-4.76.19-8.37-.99c-3.2-1.02-2.65-3.09-5.25-2.75-3.03.42-3.63-.68-6.25-.74-1.9-.05-1.82 1.21-2.41.96.85-2.66-1.26-4.33-.28-6.86 1.19-3.7 2.76-2.71 2.76-2.71s1.44-.4 2.78-.15c3.06.58 3.26 2.04 5.45 1.73 1.86-.25 2.88-.7 5.5-.05 2.4.4 5.66 1.08 8.4 4.03 1.66 1.18 3.35.04 5.83 1.24 1.28.61 3.37 1.38 5.07 3.69 1.13 1.54 4.1.87 5.37 1.89 4.33 3.45 2.91 3.77 4.69 4.82 1.79 1.05 2.26.2 4.79 2.25 1.65 1.34 2.1 4.38 3.23 5.95 2.55.64 2.99 6.96 2.99 6.96s.61 2.08-1.27 3.48z"/><path d="M87.55 67.89c-.97-.68-2.22-.81-3.32-1.24-.8-.3-1.55-.7-2.25-1.18-1.28-.22-1.9-1.26-4.35-1.72-1.34-.25-2.78.15-2.78.15s-.09-.05-.24-.09c.53.4.99.87 1.33 1.43.7 1.19.55 2.77 1.34 3.91 1.37 2.01 3.17 3.02 4.58 3.94l.32.21c1.37.35 1.5 1.88 4.1 2.71 3.6 1.17 7.28.48 8.37.99-2.25-2.65-3.34-6.49-7.1-9.11z"/><path d="M123.69 99.59c.66-2.26 1.32-1.83 1.99-4.09.6-2.04.9-4.1-.03-6.66-.91-1.65-1.45-4.26-2.94-5.46-2.52-2.05-3-1.2-4.79-2.25a3.8 3.8 0 01-.67-.5c.24.67 1.14 2.4 1.38 3.06.66 1.94.38 4.06.78 6.07.13.59.3 1.18.4 1.76.18 1.07.46 2.9.13 3.92 0 0 0 0 0 0 .24.36.42.74.55 1.12.44 1.44.66 3.08 1.97 4.65.35.43.63.89.88 1.3 0-.95.17-2.34.35-2.92z"/><path d="M113.49 87.96c-.59-.97-2.26-2.25-2.99-5.47-.31-1.39-.1-2.33-.36-3.73-.29-1.53-1.1-2.83-2.28-4.36-1.71-2.31-3.79-3.07-5.06-3.69-2.48-1.2-4.17-.06-5.84-1.23 2.93 2.6 1.98 2.63 3.73 6.03.27.54.55 1.09.9 1.59.35.51.77.96 1.11 1.48.6.9 1.11 2.55 1.44 3.57l.07.25c.89.59 1.08 1.96 3.28 3.3 2.39 1.45 4.49 1.4 6.05 2.35l-.05-.09z"/><path d="M131.53 92.76c-.2 2.06-.68 3.69.42 6.14.65 1.44 1.24 2.19 2.09 3.52a13.72 13.72 0 011.41 10.9 15.83 15.83 0 01-4.31 6.28c-1.71 1.33-3.04 5.83-3.1 9.71-.04 2.49.56 3.94.76 5.69-1.93-.49-3.73-2.86-4.38-4.19-1-2.05-1.7-3.86-1-7.51.37-1.98 1.7-3.86 2.66-5.63 1.56-2.83 2.17-6.3 2.26-9.52-1.75-2.71-2.79-5.14-2.06-8.05.46-1.86-.45-3.71-.43-5.64"/><path d="M126.4 98.94a5.32 5.32 0 004.36-1.78 5.29 5.29 0 001.02-5.74 3.56 3.56 0 00-2.72-1.95c-1.07-.15-2.4.78-2.99 1.63-.1.14-.23.07-.13.23s.24.24.36.36c.57.48.9 1.25.86 2-.04.75-.4 1.42-.65 2.12a6.44 6.44 0 00-.11 3.13z"/><path d="M121.42 93.35c.04 1.25-.52 2.44-.75 3.66a7.16 7.16 0 001.13 5.3c.23.33.47.65.72.96.42.5-.25 2.33-.45 2.85-.33.9-.8 1.67-1.32 2.44-1.16 1.76-1.89 3.98-2.46 5.99a6.8 6.8 0 000 4.26c.6 1.6 1.65 3.49 1.83 6.31 1.04-1.48 1.8-4.93 1.95-6.3a19.52 19.52 0 014.78-10.78c1.41-1.64 1.36-4.08.97-6.2-.38-2.14-1.03-4.32-.55-6.43"/><path d="M120.91 95.89a3.77 3.77 0 01-.16-3.73c.21-.47.46-.92.83-1.3 1.3-1.31 3.17-1.36 4.72-.71 1.94.81 2.81 2.21 2.76 3.81-.02.85-1 2.2-1.81 2.48a3.38 3.38 0 00-3.08-2.1c-1.4-.08-2.56.32-3.26 1.55z"/></g><g fill="#000" stroke="none"><path d="M122.6 103.1c.9.89 1.7 1.88 2.44 2.9.27.4.53.82.62 1.3-.16.1-.12-.26-.23-.3-.29-.58-.74-1.04-1.15-1.54l-1.03-1.18c-.25-.32-.68-.62-.88-.92l.23-.26zm-3.15 12.65c0-1.03.44-2 1.04-2.82.93-1.26 2.3-2.05 3.58-2.88a13.6 13.6 0 002.44-1.97c.1-.3.27-.09.43 0-.18.4-.66.73-.98 1.03-1.22 1.08-2.72 1.75-4 2.74a6 6 0 00-2.32 3.4c-.1.14.03.53-.19.5zm11.75 3.96c-.89.62-1.8 1.21-2.74 1.74a8.65 8.65 0 00-4.01 5.8c-.16-.09.02-.45 0-.64a8.57 8.57 0 013.46-5.2c.6-.45 1.29-.77 1.9-1.21.4-.23.81-.62 1.19-.77l.2.28zm-2.75-11.7c.8 1.1 1.74 2.08 2.55 3.17.65.84 1 1.9.97 2.96.03.81-.22 1.62-.69 2.28-.5.77-1.26 1.71-2.03 2.02a7.47 7.47 0 002.35-3.25c.16-.56.1-1.15.05-1.72-.11-1-.65-1.88-1.3-2.62-.75-.88-1.52-1.74-2.2-2.66l.3-.18z"/><path d="M103.4 104.5c-.83-.36-1.17-1.14-1.34-1.93.27.73.74 1.4 1.47 1.58zm.92-4.69c-.22-.2-.19-.54-.07-.78.77-1.2.4-2.3 0-3.49-.05-.2-.11-.46.05-.63a.6.6 0 00.06.4c.78 1.27 1.11 2.46.19 3.66-.15.22-.32.47-.24.74 0 .03.03.08.01.1zm.96-5c.03.32.09.73.43.86.79.09 1.65-.47 2.32-.13 1.11.66 1.08 1.9.73 2.92a.94.94 0 01-1.07.63c-.31-.02-.68-.2-.96.01-.48.3-.77.83-1.27 1.1-.18.1-.4.16-.6.06.37.09.66-.2.88-.46.38-.4.7-1.02 1.3-1.1.35-.03.72.14 1.06 0 .63-.65.7-2 .15-2.6-.75-.74-1.67-.1-2.46-.24-.33-.06-.5-.4-.5-.7-.01-.12-.03-.26 0-.35zm2.46-3.82c1.47-.28 2.7 1.49 1.62 2.6.4-1.34-.42-2.25-1.62-2.6zm-1.94.83c.3-.84 1.1-1.53 1.91-1.94 1.3-.59 2.84-.2 3.98.59a3.7 3.7 0 011.58 2.94c.11 1.33-.16 2.69-.64 3.93-.46 1.13-1.55 1.79-2.62 2.26-1.23.55-2.52 1.03-3.56 1.9-.27.26.28-.34.43-.4 1-.8 2.2-1.3 3.32-1.88.99-.53 1.98-1.29 2.26-2.43.47-1.6.76-3.39.01-4.95-.57-1.06-1.72-1.68-2.85-1.98a3.42 3.42 0 00-3.26 1.14c-.18.25-.55.5-.56.82z"/><path d="M106.54 89.13c.28-.25.63-.45.98-.62a6.08 6.08 0 012.3-.51c.4-.01.8.03 1.2.14l-.13.35a3.9 3.9 0 00-1.09-.21 5.78 5.78 0 00-2.25.32c-.35.12-.7.3-1.01.52z"/><path d="M124.1 73.61a67.68 67.68 0 003.19 3.59l-.28.25a55.94 55.94 0 01-2.9-3.84zm2.75 7.09c1.01.9 1.26 2.14 1.64 3.42.13.4.26.8.47 1.13l-.3.2c-.2-.4-.35-.82-.44-1.25-.3-1.24-.47-2.67-1.37-3.5zM90.03 59.81c1.34-.15 2.19-.97 3.25-1.47l.15.35c-1.13.48-2.23 1.1-3.4 1.12zm-9.2 5.05a6.1 6.1 0 013.75-3.16c.69-.24 1.42-.35 2.05-.73.13-.05.35-.31.38-.33-.24.5-.77.77-1.26.99-1.04.41-2.12.76-3.03 1.43-.71.5-1.32 1.14-1.9 1.8zm11.23 1.37c1.76-.03 3.53.13 4.62 1.45-1.2-1-2.6-1.07-4.04-1.12zm-4.29-2.57c2.38-2.28 5.58-.29 7.43-.98-1.87.79-4.16-.07-5.87.41-.53.16-1.06.36-1.57.57zm11.26 4.47c1.94-.15 3.29 1.57 4.57 2.85l-1.09-.5c-1-.9-2.2-2.3-3.48-2.35zm1.81-7.97c1.2-.39 2.24-.98 3.4-1.02v.37c-1.16 0-2.35.35-3.4.65zm9.03 2.74c1.51.6 3.13-.1 4.67 0l-.04.38c-1.54-.21-3.24.3-4.64-.38zm-10.67.65c1.98-1.5 3.58-.7 5.52-.68.16 0 .32-.04.46-.11-1.22.64-2.74.07-3.93.24-.7.08-1.39.3-2.05.55zm11.25 5.25a5.77 5.77 0 01-3.9-1 6.58 6.58 0 00-3.57-1.54c1.57-.2 2.62.44 3.79 1.24a7.66 7.66 0 003.68 1.3zm10.4 1.41c-2.9.79-4.33-3.13-7.09-2.47 2.72-1.2 4.24 2.22 6.49 2.53.2.01.4-.01.6-.06zm3.62 9.8a5.45 5.45 0 01-2.92-.43c-1.53-.9-2.8-1.96-4.56-2.11 2.24-.36 3.6 1.46 5.33 2.09.68.26 1.44.44 2.15.45zm-9.2-8.11c.99 1.92 3.8 1.63 4.95 3.19.23.33.38.72.42 1.13-.82-2.33-3.89-1.9-5.11-3.56a1.7 1.7 0 01-.26-.76zm-7.83-.98c.72 1.33 2.33 1.44 3.54 1.79.83.23 1.67.55 2.24 1.22.26.32.44.7.52 1.11a3.35 3.35 0 00-2.16-1.77c-1.49-.54-3.8-.61-4.14-2.35zm15.63 12.75c.8.29 1.63.65 2.13 1.36.23.34.38.73.41 1.14-.28-.79-1.28-1.6-2.03-1.95z"/><path d="M98.21 82.45c-.42 1.36-.16 2.82.12 4.18.15.87.36 1.74.21 2.63-.05.47-.2.94-.46 1.34.41-1.2.18-2.47-.07-3.67a12.1 12.1 0 01-.3-2.48c.02-.69.17-1.39.5-2zm14.8 20.8c.2.63.3 1.3.28 1.96 0 .42-.1.83-.17 1.25-.26.99-.2 2.01-.05 3.01 0 .09.05.29-.07-.08a4.92 4.92 0 01-.37-2.07c.06-.83.33-1.63.37-2.46.04-.54.01-1.07.01-1.61zm3.03-.66c.1.76.26 1.58.83 2.14.48.47 1.1.82 1.44 1.42.48.76.62 1.69.6 2.58 0 .14-.01.54-.05.2-.15-.75-.28-1.5-.61-2.2-.3-.62-.86-1.06-1.37-1.52-.76-.63-1-1.68-.84-2.62zm1.59-6.95c.05 1.01.08 2.08.6 2.98.45.8 1.34 1.3 1.67 2.2.27.63.28 1.33.2 2a4.3 4.3 0 00-.71-2.26c-.51-.67-1.26-1.17-1.58-1.98a5.15 5.15 0 01-.18-2.94zM93.25 78.31c-.1 1.06-.22 2.18.21 3.19.36.83 1.1 1.45 1.3 2.37.17.66.1 1.35-.08 2a4.3 4.3 0 00-.48-2.52c-.41-.67-1-1.25-1.2-2.04-.27-.99-.1-2.06.25-3zm7.47 5.05c.52.27.83.83.9 1.4.13.9-.08 1.81-.23 2.7-.18 1-.37 2.01-.23 3.03-.03.05.15.73 0 .26a5.67 5.67 0 01-.21-2.97c.14-.96.34-1.91.4-2.88a2.17 2.17 0 00-.63-1.54z"/><path d="M107 110.4c.35 5.1-3.26 9.67-4.35 14.48.71-4.95 4.05-9.5 4.35-14.48zm-8.61 13.8c-1.32 3.65-.92 7.87-1.66 11.49.04-4.05.16-7.9 1.66-11.49zm3.86-12.65c-.51 2.6-1.1 4.94-2.25 7.11-1.4 2.66-4.48 4.15-7.08 5.05-2.08.75-4.23.88-6.26 1.07l-.03-.38 1.57-.14c2.6-.22 5.43-1.04 7.5-2.11 1.85-.93 3.19-1.83 4.14-3.59a26.38 26.38 0 002.4-7.02zm-25.94-9.54a7.7 7.7 0 00-.01 1.27c.26 2.92 2.75 3.98 4.26 5.94.27.34.48.73.59 1.14l-.05.02c-1.86-2.81-5.93-4.36-4.79-8.36zm11.55 5.77c3.43-1.38 6.86-3.37 8.28-6.83l.06.02c-1.03 3.74-4.8 5.95-8.33 6.82v-.01zm-11.61 4.15c-1.8-.58-3.47-1.74-5.07-2.52-1.6-.7-3.64-1.64-5.24-.68l-.19-.33c1.88-.9 3.9 0 5.55.8 1.73.8 3.15 2.07 4.95 2.73zm-7.4.37a6.29 6.29 0 013.93.55c1.16.67 2.36 1.3 3.62 1.36-1.37.18-2.62-.57-3.75-1.09a6.08 6.08 0 00-3.72-.44zm7.99 3.84c-1.45.4-2.72 1.05-4.05 1.46-.2.06-.43.09-.65.1l-.1-.42a5.6 5.6 0 001.24-.2c.77-.25 1.63-.59 2.33-.8.4-.12.81-.23 1.23-.22zm-4.9-11.79c-.9.48-2.12.41-2.85-.23l.02-.05c1.04.2 1.83.27 2.84.27v.01zm.85-5.3c.6.06 1.19.23 1.72.49.28.14.53.31.75.52.69.75.77 1.71.44 2.65-1.2 3-2.6 1.25-4.5.49a5.97 5.97 0 00-3.44.13l-.02-.05c1.18-.42 2.38-.76 3.56-.38 1.56.54 3.1 2.54 4.08-.3.41-1.13.06-2.35-.97-2.9a5.8 5.8 0 00-1.64-.64h.02zm-.95-4.09c.54-1.31.93-2.5 1.37-3.89-.04 1.35-.53 3.08-1.37 3.9zm9.08-1.87c-.79.54-1.87 1-2.8.74v-.06c.97-.25 1.87-.64 2.81-.68zm-4.16 1.31c.05.23 0 .46-.07.68a4.64 4.64 0 00.01 4.3l-.05.03c-1.3-1.48-1-2.88-.15-4.41.1-.19.2-.39.23-.6zm-.18-7.82c2.7.17 4.28 2.68 5.31 4.71-1.75-2-3.04-4-5.32-4.71zm-3.43 1.38c.8.19 1.73.2 2.49.35l-.16.34c-.72-.31-1.6-.41-2.33-.69zm3.49 5.28l-1.99.29 1.9-.67zm-.11-7.48a9.72 9.72 0 00-2.03-.05c-.7.05-1.25.34-1.89.63l-.03-.05c.48-.57 1.22-.9 1.88-.96.72-.08 1.44.07 2.06.43zm.2 3.08c-.1.06-.47.68-.37 1.49.09.65.39 1.53 1.15 1.93.88.25-.88-1.33.54-2.88-.44-.08-1.11-.54-1.32-.54z"/></g></g></svg>