<svg xmlns="http://www.w3.org/2000/svg" fill="#d7374a" stroke="#000" viewBox="50 50 200 200">
<metadata source="http://wappenwiki.org/images/5/5a/Albrecht_II_of_Braunschweig-Grubenhagen.svg" license="https://creativecommons.org/licenses/by-nc-sa/3.0"/>
	<g id="horsePassant" stroke-width="3" transform="translate(51 51) scale(0.12)">
		<path d="M457.3 678c.6 3.2 2.5 9.9-2.2 15.3-6.2 7.4-37.8 28.9-55 18.7-4.8-2.7 10.4-18.2 10.5-36.9.5-7 23.2-3 23.2-3s23.1 3.3 23.5 5.9z"/>
		<path d="M551.2 469.4c-3.9 17.9-23.1 26-23.7 33.7-2 12.7 4.6 10.6 11.1 19.5 10.3 13.2 18.7 12 18.9 21.3-.4 10.1-7.2 15.7-16.3 15.4-3.6 1.9-6.7 7.7-19.2 16.3-5.3 3-9.2 4.5-15.2 6.3-4.3 1.3-18.8 29.3-26.8 36.3-8.3 7.2-14 9.1-14.1 12-2.7 11.6 11.2 14 11.1 19.2-.4 2.7-.8 4.8-3.4 7-4.5 3.7-7.9-.8-13.3 2.3-3.5 2.2-1.2 4.1-3.4 7.5-2 3.7 6 3.8 6.2 10 .1 2.4-5 4.5-5 4.5s-30.4-8.7-47.8-5.5c.5-6.2 4.6-8.3 10.8-12.8 6.1-4.6 9.6-10.9 9.6-16.2 0-13 9.9-20.9 20.7-32.2 5.2-11.9 13.8-18.2 26.7-34.2 7.8-9.6 18.5-32.4 19.8-38.1 2.2-11.3-62.9-27.6-70.3-54-8.9-6.4-2.3-23.7-3.5-27.4-2.4-7.5-4.6-17.7 1.5-22.7s13.7-7.8 21.3-9.9c26.7-7.2 55.6-6.4 80.8-17.7 5.2-2.3 11-5.2 16.3-3.1 2.4 1 4.3 2.9 6 4.8a59.33 59.33 0 0113.6 45.9"/>
		<path d="M167.4 142c-7.2-8.6-13.7-20.3-13.5-34.1 12.8 14.4 26.4 16 38.1 23.5"/>
		<path d="M129.9 538.7c3.2.5 10.1 1.2 13.5 7.5 4.7 8.4 13.6 45.6-2.2 58.1-4.2 3.6-13.3-16.2-30.7-23-6.4-2.9 5.4-22.8 5.4-22.8s11.4-20.4 14-19.8z"/>
		<path d="M186.2 380.9c-5.4 2.4-7.6 3.4-12.8 6.2-7.9 4.6-30.9 20.9-45.6 22.7-18.9 4-30.8-1.7-38.7 5.9-2.5 2.4-1.3 7.5-3 16.7-1 5.5-5.8 12.2-5.6 16.4.5 11.3 6.6 17.9 8.2 30.1.9 7.8-.3 18.9-2.7 26-2.4 7.1-3.2 19.6 6.6 33.5 4.3 6.8 6.2 11.6 8.3 18.9 2.1 7.3 3.9 21.9 9.5 24.6 3.2-17.5 22.2-42.7 22.2-42.7s-.2-5.5-2.5-6.3c-5.8-2-8.8 5.4-11.5 2.2-2.4-3.3-3.8-3.7-2.4-7.6 2.2-5.8 9-2.7 10.1-8.4.6-3.4.7-3.9-.7-6.2-3.2-4.1-13.3-1.6-13.7-11.1-.8-2.7 1.4-11.7.5-22.6-.6-12.6-4-19.6-2.9-24 5-4.9 4.7-9.7 7.2-11.2 8.2-5 31.1 2.4 50.5 7.1 11.1 2.7 31.6-1.4 44.8-4.5 11.1-2.6 7.7.6 18.8-2 2.8-.6 2.9-2.6 6.3-4.5s1.1-3.6 1.9-4.7c.8-1.1 13.7-2.7 20-9.9 5.9-2.1 18.9-13.9 20.2-22.2"/>
		<path d="M640.3 688c.3 3.2 1.5 10.1-3.6 15-6.9 6.8-40.3 25.2-56.6 13.4-4.5-3.1 12.1-17.1 14-35.7 1.1-6.9 23.4-.8 23.4-.8s22.7 5.5 22.8 8.1z"/>
		<path d="M659.1 317.1c17.1 0 30.9 9.8 30.9 9.8s16.6 4.1 23.8 9.9c16.9 13.4 26.8 30.4 26.8 55.4 0 47.8-24.5 59.9-24.5 79.6 0 12.6 9.3 16.3 9.3 31.9 0 24.7-22.5 35.3-22.5 47.4 0 14.9 10 14.5 10 32.1 0 8.3-9.1 14-13.3 15.5-2.2-2.1 5.2-4.9 5.2-14.8 0-14.9-21.5-15.3-21.5-33.1 0-17 10.6-21.6 10.6-33.1 0-16.9-24.3-24.9-24.3-55.2 0-33.1 16.3-35.7 16.3-65.4 0-18.2-7.7-40.6-27.2-46.7-19.3-5.3-35.3 2.4-35.3 2.4 10.8 15.2 22.5 41.1 18.1 75.5-2.5 19.5-13.9 43-13.9 59.3 0 7.6-1.1 21.2 10.6 26.3 11.7 5.1 25.6 2.8 29.7 8.7 5.3 8.6 2.8 17-4.9 21.9-1.9 3.6 3.4 11-1.4 25.4-2.4 5.6-6 10.6-9.6 15.8-2.6 3.7-.8 15-2.9 25.4-2.2 10.8 2.1 20.8 2 23.6-2.4 11.6 4.7 13.8 4.7 18.9-.3 2.7-.7 4.8-3.3 7.1-4.4 3.8-7.9-.6-13.2 2.6-3.5 2.2-.9 4.1-1.1 7.9-.2 3.8 8 9.7 7.6 15.8-.2 2.4-5.4 4-5.4 4s-29.4-11.6-47.1-10c1.1-6.1 5.2-8.3 11.8-12.3 6.5-4 8.4-6 8.5-10 .7-17 7.5-22.3 11.8-28.4 4.3-6.1-1.8-18.8 1.2-38 2.7-12.3-2.9-33.7-7.9-42.9-5.8-10.2-14.4-12.6-46.3-18.9-16-3.2-23-5.6-36.7-17.9-9.9-5-22.3-22.1-26.1-32.5-3.8-10.5-11.4-21.6-14.4-32.2-58.4-8-92.5 41.4-175.6 48.5-34.3 2.9-39-1.7-39-1.7s-14.6.6-32.7-4.4c-32.1-8.8-51.8-24.8-63.3-45.5-18.5-33.5-6.6-53.6-9.7-63.4 0 0-6.9-18.3.1-38.6 3.2-9.3 8.2-17.8 18.6-29.6 9.1-10.4 13.5-13.5 23-32.6 5.6-10.9 8.6-20.7 7.7-33.2-1-9.1-5.7-13.2-5.7-13.2s-10.4 6.5-18.4 8.7c-12.7 3.5-23.1 1-23.1 1s-7.3 1.3-23.9 8.6c-5.3 2.5-11 5.1-14.4 8.7-3.7 4.2-2.7 6.9-6.1 9.7-2.5 2.1-7.2 2.1-9.1 1.6-2.8-.7-4.6.5-4.6.5s-2.6 2.6-4.6 1.6c-1.8-.9-1.7-2.6-1.5-3.9.5-2 3.6-5.5 8.7-9.4 4.8-3.7 7.1-4.8 8.6-7.1s1.3-3.7.3-4.4c-.9-.7-2.2-.5-3.7-.1-8.4 3-13.5 14.3-20.8 16.6a9.1 9.1 0 01-9.7-2.8c-2-2.4-2.4-4.9-2.9-7.5-1-5.3 0-8.4-.2-13.6-.2-5.1-3.5-11.8-1-16.3 2.5-4.9 7.1-5.2 12.3-9.6 2-1.7 1.2-.5 10.4-9.5 9.2-9 16.4-15.5 24.5-23.4 7.9-7.7 4.4-14.8 8.5-20.3 4.4-6.2 10-6.7 14-16.9.2.1-3.4-2.9-8.8-3.3-6.9.1-6.6 6.7-15.5 6.8-5.7.1-8.7-8.5-13.2-13.5-3.4-3.8-8.2-4.4-7.5-4.8 12.7-5 15 7.5 21.4 7.4s1.4-5.8 7.3-10.2c5.9-4.4 9.7-.6 14.6-.6.7-1.5 13.2-16.2 20-10.8-2.3-3.5-7.7-16.8-6.1-28.2 8.2 12.3 31.3 23.7 31.3 23.7s3.6-7.6 12.2-7.6c8.5-.1 11.4 8.8 15.7 8.7.2.1 1.5-5.2 5.4-9.2 4-4 10.3.9 13.3-5.1s-6.8-10.9-6.3-11.4c.7-2 15.3 2 15.4 10.7.1 7.1-2.1 9.8-3 10.3h-.3c0 .1.1.1.3 0 2.5-.3 11-3.3 19 .3 8.4 3.7 10.8 12.8 16 12.8 7.8-.4 4.6-11 5.4-11.3.8-.2 5.1 3.4 5.1 8.3 0 5.3-4.2 12.2-11 12.3-7 .1-12.1-2.4-12.7-2.6.4 1 5.2 3.3 9 3.9 4.4.8 10.6 2.1 14.9 4.8 6.8 4.3 10 16.1 14.7 16.1 3.3 0 4.6-2.2 4.6-5.4-.2-5-5-6.1-4.6-7.5.3-1.5 14.8 3 14.9 14.1-.2 9.6-4.8 14-10.6 17.1 1.5.3 2.9.8 4.2 1.2 21.2 7.7 12.7 26.7 14.3 31.6.2.7 1.5 2.3 5.5 2.3 5.9-.1 2.5-9.1 3.3-10 .8-.9 6.8 2.7 6.9 8.7.1 10.1-9.7 12-10.5 12.1 0 1.6 4.4 8.8 9.9 8.8 1.5 0 4.2-3.2 8.4-3.3 4.2 0 6.8 4.9 6.4 5.7-.4.7-3.4-1-5.8-.3-3.3 1-3.3 5.8-8.7 8-5.4 2.2-11.3.7-11.3.7s5.7 4.5 7.1 10.1c1.5 6.1-.3 7.9 1.2 12.4 1.8 5.7 9 9.4 9.1 19.8.1 10.4-4.9 14.8-5.4 14.3s-1.1-10.7-10.7-16.6c1.5 8.9-.5 15.2-1.2 17.9-4.2 14.9 41.7 24.1 66.8 24.1 68.4 0 75.7-11.1 131.3-8.5 33.8 2 54.1 16 68.1 16 22.2-.7 21.7-10.1 47.4-10.1z"/>
		<path d="M268.9 688c.3 3.2 1.5 10.1-3.6 15-6.9 6.8-40.3 25.2-56.6 13.4-4.5-3.1 12.1-17.1 14-35.7 1.1-6.9 23.4-.8 23.4-.8s22.7 5.5 22.8 8.1z"/>
		<path d="M218.3 454c-3.8 23.7 13.7 30.2 12.2 59.3 0 3.1-7.1 23.3 6 40.1 4.7 8.9 9.4 14.4 10.6 16.8 1.2 2.4 5.5 9.5 3.6 21.7-3 19.2 7.8 31.9 3.5 38-4.3 6.1-11.1 11.4-11.8 28.4-.2 4-2 6-8.5 10s-10.7 6.2-11.8 12.3c17.7-1.5 47.1 10 47.1 10s5.3-1.6 5.4-4c.4-6.2-7.8-12.1-7.6-15.8.2-3.8-2.3-5.6 1.1-7.9 5.3-3.2 8.8 1.2 13.2-2.6 2.6-2.3 2.9-4.4 3.3-7.1 0-5.2-11.2-7.3-8.7-18.9.1-2.8-.3-12.8 2-23.6 2.2-10.4-1.8-26.4-1.8-30.7 7.1-6.1 4.4-11.8 5.5-16.6 1.7-7.6 3.9-8.8 4-15.3.1-5.5-1.2-11.1-5.6-17.7-12.9-21.3 6.4-61.5 6.4-61.5"/>
		<path fill="none" d="M345.5 295.4c-2.5 8.4-11.5 17.8-23.8 16.4-5.7-1.4 3.2-5.5 6.6-11.2"/>
		<path fill="none" d="M220.8 127.6c25.3 2.6 58.4 16.3 83.7 57.1"/>
		<path fill="none" stroke-width="1.72" d="M218.9 233.7c3.1-2 4.5-5.5 7.1-13.4 1.6-5.4 2.1-15.2 1.6-20.1"/>
		<path fill="#f6f6f6" stroke-width="2.5" d="M164.5 173.6c6.6 1.8 13.5 6.5 13.5 6.5s-6.8 6.5-12.1 6.1c-6.4-.9-8.2-3.6-8.2-3.6s.7-3.1 2.3-5.5c1.4-2.1 3.6-3.6 4.5-3.5z"/>

		<g fill="#000" stroke="none">
			<path d="M496.9 583.7c-1.1.4-1.9 1.1-2.7 1.8-.8.7-1.6 1.5-2.3 2.4a66.8 66.8 0 00-4.1 5.2l-4 5.4-4.1 5.3c-2.8 3.5-5.7 7-9 10.1-1.6 1.6-3.4 3.1-5.4 4.3-1 .6-2 1.2-3.1 1.6-1.1.4-2.3.6-3.4.5 2.2-.4 4-1.7 5.6-3.2 1.6-1.4 3.1-3.1 4.6-4.7 2.9-3.3 5.6-6.9 8.3-10.4 2.8-3.5 5.6-7 8.7-10.3 1.5-1.7 3.1-3.3 4.9-4.7.9-.7 1.8-1.4 2.8-2 .9-.7 2-1.2 3.2-1.3z"/>
			<path d="M451.9 655.6c-.3 1.6-1.5 2.8-2.6 3.8s-2.4 1.8-3.7 2.5c-1.3.7-2.6 1.3-3.8 1.8-1.3.6-2.6 1-3.9 1.8.1-.8.6-1.5 1-2.1.5-.6 1-1.2 1.6-1.7 1.2-1 2.4-1.8 3.7-2.4 1.3-.7 2.5-1.3 3.8-1.8 1.3-.7 2.5-1.1 3.9-1.9z"/>
			<path d="M532.4 546.9c-1-.9-1.7-2.1-2-3.4a9 9 0 010-4c.3-1.3.8-2.5 1.5-3.6s1.6-2 2.9-2.6c-.2 1.3-.5 2.5-.7 3.6l-.8 3.2c-.2 1-.4 2.1-.6 3.2-.2 1.1-.2 2.2-.3 3.6z"/>
			<path d="M497.4 501.3c.1-1.1.4-1.9.7-2.8.4-.8.8-1.5 1.4-2.2.5-.7 1.2-1.3 1.9-1.8s1.5-1 2.6-1.3c-.1 1.1-.4 1.9-.7 2.8a10.7 10.7 0 01-3.3 4c-.7.6-1.5 1-2.6 1.3z"/>
			<path d="M498 490.9c-.1-.9-.1-1.6 0-2.2.1-.6.1-1.2.3-1.7.1-.5.3-1.1.6-1.6.3-.6.6-1.1 1.1-1.9a4.08 4.08 0 011.3 4.2c-.2.7-.6 1.4-1.1 2-.6.6-1.3 1.1-2.2 1.2z"/>
			<path d="M144.2 430c6.7-.1 13.4.3 20 .7 3.3.2 6.6.4 9.9.5 3.3.1 6.6.3 9.9.3h4.9c1.6 0 3.2-.2 4.8-.4 3.2-.4 6.4-1.2 9.6-2 3.2-.8 6.4-1.7 9.5-2.7 1.6-.5 3.2-1 4.7-1.5.8-.3 1.6-.5 2.2-.9.7-.4 1.3-.9 1.8-1.7-.3.8-.9 1.5-1.5 2-.7.6-1.5 1-2.2 1.3-1.5.8-3 1.5-4.5 2.2-3.1 1.3-6.2 2.6-9.4 3.6-3.2 1.1-6.5 1.9-9.8 2.5-1.7.3-3.4.5-5.2.5-1.7 0-3.4.1-5 0-6.7-.1-13.4-.6-20-1.4-6.5-.9-13.1-1.9-19.7-3z"/>
			<path d="M708.8 370.6c2 3.6 3.6 7.4 4.8 11.4 1.2 3.9 2.1 8 2.5 12.2.4 4.1.4 8.4-.3 12.5s-2 8.2-4 12c-1.9 3.8-4.2 7.3-6.6 10.6-2.4 3.4-4.9 6.6-7.1 10-2.2 3.4-4.2 6.9-5.8 10.5-1.6 3.7-2.6 7.5-3.1 11.5-.2 1-.3 2-.3 3-.1 1-.1 2-.2 3-.1 2 .1 3.9.5 5.8.8 3.8 2.7 7.3 4.9 10.8 2.1 3.4 4.5 6.9 6.5 10.5 2 3.6 3.7 7.6 4.5 11.7.4 2.1.7 4.1.8 6.2.1 2.1.1 4.2-.3 6.3-.3 2.1-1 4.1-1.8 6-.8 1.9-1.9 3.7-3 5.5-2.2 3.5-4.9 6.6-6.6 10.3-.8 1.8-1.4 3.8-1.5 5.9-.1 2 .1 4.1.7 6.1-.6-1.9-1-4-1-6.1 0-2.1.5-4.1 1.3-6.1 1.6-3.9 4.1-7.2 6.2-10.7 2.1-3.5 3.8-7.2 4.2-11.2.3-2 .2-4 .1-6s-.5-4-1-5.9c-1-3.9-2.6-7.6-4.6-11.1-2-3.5-4.4-6.8-6.7-10.3-2.3-3.5-4.4-7.2-5.4-11.5-.5-2.1-.7-4.3-.6-6.4 0-1.1 0-2.1.1-3.2s.1-2.1.3-3.1a51.02 51.02 0 015.9-17.9c1-1.8 2.1-3.6 3.3-5.3 2.3-3.5 4.8-6.7 7.2-10a92 92 0 006.6-10.1c1.9-3.5 3.3-7.3 4.1-11.2.8-3.9 1-8 .8-12-.1-8.1-2.1-16.2-5.4-23.7z"/>
			<path d="M712.5 491.7c-2.3-2.2-4.3-4.6-6.1-7.3-1.7-2.7-3.1-5.7-3.8-8.9-.7-3.2-.6-6.7.1-9.9s2-6.2 3.3-9.1c2.7-5.7 5.6-11.2 7.3-17.1.8-2.9 1.3-6 1.4-9.1.2-3.1-.1-6.2-.4-9.3 1 3 1.7 6.1 1.9 9.3.2 3.2 0 6.5-.6 9.6-.6 3.2-1.7 6.2-2.9 9.2-1.2 2.9-2.6 5.8-3.9 8.6-2.7 5.6-4.7 11.4-3.9 17.3.4 2.9 1.4 5.8 2.8 8.6s3.1 5.4 4.8 8.1z"/>
			<path d="M685.4 361.9a50.67 50.67 0 0112.1 19c2.6 7.2 3.3 15.2 1.9 22.8-.8 3.8-1.9 7.5-3.4 11s-3.2 6.9-4.9 10.2c-1.7 3.3-3.3 6.6-4.8 10a77 77 0 00-3.4 10.6c.2-3.7.9-7.5 2-11.1 1.1-3.6 2.5-7.1 4.1-10.6 1.5-3.4 3.1-6.8 4.4-10.2 1.4-3.4 2.4-6.9 3.1-10.4.8-3.5.9-7.2.7-10.8-.2-1.8-.3-3.6-.6-5.4-.1-.9-.4-1.8-.6-2.7-.2-.9-.4-1.8-.7-2.6-1-3.5-2.4-6.9-4.1-10.2-1.6-3.3-3.6-6.5-5.8-9.6z"/>
			<path d="M108.2 440.2c.7.8 1.1 1.7 1.3 2.7.2 1 .1 2-.2 3-.3 1-.8 1.9-1.6 2.6-.7.7-1.7 1.2-2.7 1.3l1.4-4.7c.2-.7.5-1.4.7-2.2.2-.4.2-.8.4-1.2.3-.6.4-1 .7-1.5z"/>
			<path d="M201.4 401.7c-1.2-1.6-1.8-3.7-1.9-5.8-.1-2.1.3-4.2.9-6.1.6-1.9 1.5-3.7 2.5-5.3 1-1.7 2-3.3 3-5 .2 2-.3 4-.8 5.9-.6 1.9-1.2 3.7-1.8 5.4-.6 1.7-1.1 3.5-1.4 5.2-.4 1.9-.5 3.7-.5 5.7z"/>
			<path d="M215.4 414.1c-.5-.6-.9-1.2-1.3-1.8-.4-.6-.8-1.2-1.1-1.8-.7-1.2-1.4-2.3-2.1-3.4l-2.1-3.3c-.8-1.1-1.5-2.2-2.5-3.3 1.6.1 3 .8 4.2 1.7 1.2.9 2.2 2.1 3 3.4.8 1.3 1.3 2.7 1.7 4.1.2.7.3 1.5.3 2.2.1.7.1 1.4-.1 2.2z"/>
			<path d="M99.5 458.1c2.2 3.7 3.6 7.8 4.4 12 .3 1.1.4 2.1.5 3.2.2 1.1.3 2.1.4 3.2.1 1.1.2 2.1.2 3.2.1 1.1.1 2.1.1 3.2 0 4.3-.2 8.5-.6 12.7-.3 4.2-.8 8.4-.9 12.6-1.1-4.1-1.3-8.5-1.5-12.7-.1-4.2-.1-8.5-.1-12.6v-4.7l-.1-1.6c0-1-.1-2.1-.2-3.1s-.1-2.1-.2-3.1c-.3-4-.9-8.1-2-12.3z"/>
			<path d="M107.1 543c1.3.9 2.1 2.4 2.7 3.8.5 1.4.8 2.9 1 4.3.2 1.4.3 2.8.3 4.2.1 1.4 0 2.7.3 4.3-.7-.4-1.2-1.1-1.6-1.7-.4-.7-.7-1.4-1-2.1-.5-1.4-.8-2.9-1-4.3-.2-1.4-.3-2.8-.4-4.2-.1-1.5-.1-2.8-.3-4.3z"/>
			<path d="M267.6 569.2c-.8 1.3-2.1 2.3-3.5 3-1.4.7-3 1-4.6 1a8.74 8.74 0 01-7.6-4.6c.8.2 1.4.5 2.1.6.7.2 1.3.4 1.9.5 1.2.3 2.5.5 3.7.5 1.2 0 2.5 0 3.8-.2 1.3-.3 2.7-.5 4.2-.8z"/>
			<path d="M653.5 586c-2.2 3.8-3.7 8.1-5 12.5-1.3 4.4-2.3 8.9-3.2 13.4-1 4.5-1.8 9-2.9 13.6-.5 2.3-1.1 4.5-1.8 6.7-.4 1.1-.7 2.2-1.2 3.3-.5 1.1-1 2.1-1.7 3 .7-.9 1.2-2 1.6-3.1.4-1.1.7-2.2 1-3.3.6-2.2 1-4.5 1.4-6.8.8-4.5 1.4-9.1 2.1-13.7.7-4.6 1.5-9.1 2.5-13.7 1.1-4.5 2.3-9.1 4.6-13.4l2.6 1.5z"/>
			<path d="M630.8 665.6c-.5 1.5-1.7 2.7-2.9 3.6-1.2.9-2.5 1.6-3.9 2.1-1.3.6-2.7 1-4 1.4-1.3.4-2.6.7-4 1.4.2-.8.7-1.4 1.2-2 .5-.6 1.1-1.1 1.8-1.5 1.2-.9 2.6-1.5 3.9-2.1 1.3-.6 2.6-1 4-1.5 1.3-.3 2.5-.7 3.9-1.4z"/>
			<path d="M640.6 526.6c1.1-.7 2.5-1 3.8-1 1.3.1 2.7.5 3.8 1.1 1.2.6 2.2 1.5 3 2.5.8 1 1.4 2.2 1.7 3.5-1.2-.6-2.2-1.1-3.2-1.7l-2.9-1.6c-.9-.5-1.9-1-2.9-1.4-1-.5-2-.8-3.3-1.4z"/>
			<path d="M176.6 380.7c.7 4.2 2.1 8.3 3.7 12.4s3.4 8.1 5.3 12.1c1.8 4 3.7 8 5.4 12.1 1.6 4.1 3.1 8.3 3.6 12.7-.7-4.4-2.5-8.4-4.3-12.4-1.9-4-4-7.8-6-11.7-2.1-3.9-4.1-7.8-6-11.8-1.9-4-3.5-8.2-4.6-12.7l2.9-.7z"/>
			<path d="M277.4 581c-2.3 4-3.5 8.8-4.4 13.6-.9 4.8-1.4 9.7-1.8 14.7-.5 4.9-.8 9.9-1.3 14.8-.3 2.5-.6 4.9-1 7.4-.2 1.2-.5 2.4-.9 3.6-.4 1.2-.8 2.4-1.6 3.3.8-1 1.1-2.2 1.5-3.4.3-1.2.5-2.4.7-3.6.3-2.4.5-4.9.6-7.4.3-4.9.4-9.9.6-14.8.2-5 .5-9.9 1.1-14.9.3-2.5.7-5 1.3-7.4.6-2.5 1.4-4.9 2.6-7.3l2.6 1.4z"/>
			<path d="M259 663.9c-.1 1.6-1 3-1.9 4.2-1 1.2-2.1 2.2-3.2 3.1-1.1.9-2.3 1.7-3.5 2.4-1.2.8-2.4 1.4-3.6 2.4 0-.8.3-1.6.7-2.3.4-.7.8-1.3 1.3-1.9 1-1.2 2.1-2.1 3.2-3 1.1-.9 2.3-1.7 3.5-2.4 1.2-.8 2.3-1.5 3.5-2.5z"/>
			<path d="M216.8 454a51 51 0 00-.7-10.3c-.6-3.4-1.7-6.7-3-9.9s-2.9-6.5-4-9.8c-1.2-3.4-1.9-6.9-2.2-10.4.5 3.5 1.5 6.9 2.9 10.1 1.4 3.2 3.1 6.3 4.7 9.5s3 6.5 3.8 10.1c.9 3.5 1.3 7.1 1.5 10.7h-3z"/>
			<path d="M285.2 468.1c4.1-6.6 7.3-13.8 9.6-21.4 2.3-7.5 3.6-15.4 3.7-23.3.4 7.9-.5 15.9-2.3 23.7a87.6 87.6 0 01-8.5 22.5l-2.5-1.5z"/>
			<path d="M245.2 533.1c0-1.6.8-3.1 1.9-4.2 1.1-1.1 2.6-1.9 4.1-2.3 1.5-.4 3-.5 4.5-.3s2.9.6 4.2 1.2c-1.4.6-2.8.8-4.2 1.1-1.3.3-2.6.5-3.8.8-1.2.3-2.3.7-3.5 1.3-1 .6-2.1 1.3-3.2 2.4z"/>
			<path d="M260.4 364.7c.5-1 1.3-1.7 2.2-2.3a7.61 7.61 0 016.1-.7c1 .3 2 .8 2.7 1.7-1.1.3-2 .5-2.9.7-.9.1-1.7.3-2.6.4-.8.1-1.7.2-2.6.2-.9 0-1.8.1-2.9 0z"/>
			<path d="M277.2 367.5c.8-.6 1.8-.8 2.9-.7 1 .1 2 .4 2.9.9 1.8 1 3.1 2.4 4.3 3.5 1.2 1.1 2.5 2.1 3.9 3.1 1.4.9 2.9 1.8 4.6 2.6-1.9.4-3.8.1-5.7-.5-1.8-.6-3.5-1.7-5-3-1.4-1.3-2.4-2.7-3.6-3.8-1.1-1-2.5-2-4.3-2.1z"/>
			<path d="M282.9 416.4c1.4.7 2.6 1.7 3.6 2.8 1 1.1 1.9 2.4 2.7 3.7.7 1.3 1.3 2.8 1.7 4.2.4 1.5.6 3 .5 4.6-.9-1.3-1.6-2.6-2.3-3.8l-2.1-3.8-2.1-3.8c-.6-1.2-1.3-2.4-2-3.9z"/>
			<path d="M285.2 435.8c.9 2.4 1.2 5 1 7.5-.2 2.6-1 5.1-1.9 7.4-.9 2.3-1.8 4.4-2.6 6.7s-1.3 4.6-2 7c-.6-2.5-.6-5-.3-7.6.3-2.5 1.2-5 2.1-7.3.9-2.3 1.8-4.4 2.4-6.7.6-2.2 1-4.5 1.3-7z"/>
			<path d="M479.8 406.4c.8-.3 1.5-.3 2.2-.3.7.1 1.3.2 1.8.5.6.3 1.1.6 1.6 1.1.5.5.9 1 1.2 1.9-.8.3-1.5.3-2.2.3-.7-.1-1.3-.2-1.8-.5-.6-.3-1.1-.6-1.6-1.1-.5-.5-.9-1-1.2-1.9z"/>
			<path d="M485.5 395.7c1.3 0 2.6.4 3.7 1s2.2 1.3 3.1 2.2c.9.9 1.6 1.9 2.2 3.1.6 1.1 1 2.4 1 3.7-1.1-.8-2-1.5-2.9-2.3-.9-.8-1.7-1.6-2.5-2.4-.8-.8-1.6-1.6-2.3-2.5-.8-.8-1.6-1.7-2.3-2.8z"/>
			<path d="M493.9 447.9c-1.3-5.3-2.9-10.6-5.3-15.5a42.1 42.1 0 00-9.8-13.2c4.5 3.3 8.2 7.7 11.1 12.5 2.9 4.8 5.1 10.1 6.9 15.4l-2.9.8z"/>
			<path d="M387.9 467.1c1.5-2.8 2.9-5.4 4.2-8.1a85.05 85.05 0 005.9-16.9c.7-2.9 1.2-5.9 1.8-9 .7 3.1.8 6.2.5 9.4-.3 3.1-1 6.3-2 9.2-1 3-2.4 5.8-4.2 8.5-1.7 2.6-3.7 5-6.2 6.9z"/>
			<path d="M365.2 470c1.4-2 2.6-3.9 3.7-5.8 1.1-2 2-4 2.9-6 .9-2.1 1.7-4.2 2.6-6.3.9-2.1 1.8-4.3 3-6.4 0 2.4-.3 4.7-.7 7-.5 2.3-1.2 4.6-2.1 6.8-.9 2.2-2.2 4.3-3.7 6.2a16.5 16.5 0 01-5.7 4.5z"/>
			<path d="M348.2 474.9c.7-2.2 1.6-4.2 2.4-6.2.8-2 1.6-4 2.3-6 .7-2 1.5-4 2.2-6.1.7-2.1 1.4-4.1 2.2-6.3.4 2.3.3 4.6.1 6.8-.3 2.3-.9 4.5-1.7 6.6-.8 2.1-1.8 4.2-3 6.1a27 27 0 01-4.5 5.1z"/>
			<path d="M331.8 471.3c.4-1.5 1-2.8 1.6-4.1.6-1.3 1.2-2.5 1.9-3.7l2.1-3.6c.8-1.2 1.6-2.4 2.6-3.5a16.18 16.18 0 01-2.2 8.6c-.7 1.3-1.6 2.5-2.6 3.6-.9 1-2.1 2-3.4 2.7z"/>
			<path d="M317.8 470.8c.3-1 .7-1.7 1.1-2.4a12.74 12.74 0 012.9-3.5c.6-.5 1.3-1 2.2-1.4.2 1 .1 1.9-.2 2.7-.3.8-.7 1.6-1.3 2.3-.6.7-1.2 1.2-2 1.6-.8.5-1.7.8-2.7.7z"/>
			<path d="M701 381.9c-.6-8-3.1-15.7-7.2-22.4-2.1-3.3-4.5-6.4-7.4-9-2.8-2.7-6-4.9-9.4-6.7-6.9-3.5-14.7-5.2-22.6-5.5-7.9-.2-15.8.9-23.3 3.9 7-4.1 15.2-6 23.3-6.2 8.2-.2 16.5 1.4 23.9 5.2 3.7 1.9 7.1 4.4 10.1 7.3 2.9 2.9 5.5 6.3 7.4 9.9 4 7.1 5.8 15.4 5.2 23.5z"/>
			<path d="M641.5 331.2c2.7-1.8 5.8-3.1 9.1-3.8 3.2-.8 6.6-1 9.9-.8 3.3.2 6.6.9 9.7 2 3.1 1.1 6.1 2.7 8.6 4.9-3.1-1-6.1-2-9.2-2.6-3.1-.6-6.2-1.1-9.3-1.3-3.1-.2-6.2-.1-9.3.1-3.2.3-6.3.8-9.5 1.5z"/>
			<path d="M134.9 247.4c.8.2 1.5.6 2 1.3.5.7.8 1.5.8 2.4 0 .9-.3 1.7-.7 2.4-.4.7-1 1.2-1.8 1.5.3-1.6.5-2.8.5-3.9 0-.6 0-1.1-.2-1.7-.1-.6-.3-1.2-.6-2z"/>
			<path d="M98 241.3c.2-1.2.7-2.3 1.4-3.4.7-1 1.6-2 2.6-2.7l1.3-1.1c.4-.3.7-.7.8-1 .1-.2.2-.4.2-.6 0-.2.1-.4.1-.7.1-.5.1-.9 0-1.3-.2-.9-.6-1.9-1.1-2.9-.5-.9-1.1-1.9-1.8-2.5-.1-.1-.2-.1-.2-.2l-.1-.1h-.6c-.4 0-.9.2-1.3.5-.9.6-1.7 1.5-2.4 2.4.2-1.2.7-2.3 1.6-3.3.4-.5 1-.9 1.7-1.2.4-.1.7-.2 1.2-.2.3 0 .5.1.7.2.2.1.4.2.5.3 1.3.8 2 1.8 2.7 2.9.7 1.1 1.2 2.2 1.5 3.6.1.4.1.7.1 1.1 0 .4-.1.7-.1 1.1 0 .3-.2.7-.3 1.1-.1.3-.3.7-.5 1-.4.7-1 1.1-1.5 1.5-.5.4-1.1.7-1.6.9-1 .6-1.9 1.1-2.7 1.9-.7.9-1.4 1.8-2.2 2.7z"/>
			<path d="M101.9 228.2c.1.6-.2 1.1-.4 1.6s-.5.9-.7 1.3c-.5.8-1 1.5-1.4 2.2l-1.4 2.2c-.5.7-1 1.5-1.7 2.3-.3-1-.3-2.1-.1-3.1.2-1 .6-2 1.2-2.8.6-.9 1.3-1.6 2.1-2.2.4-.3.8-.5 1.2-.8.4-.2.8-.3 1.2-.7z"/>
			<path d="M144.5 197.2c-1.1 2.5-2.7 4.8-4.4 6.8-1.7 2.1-3.6 4-5.6 5.9-1.9 1.9-4 3.6-5.9 5.4-2 1.8-3.9 3.5-5.9 5.4 1.1-2.5 2.8-4.7 4.5-6.8 1.8-2.1 3.7-4 5.6-5.8 1.9-1.8 3.9-3.6 5.9-5.4l5.8-5.5z"/>
			<path d="M146.2 175.4c.6-1.3 1.2-2.5 1.7-3.7.5-1.2.9-2.4 1.6-3.7.3-.7.8-1.3 1.3-1.9.5-.6 1.1-1 1.8-1.4 1.3-.8 2.6-1.3 4.1-1.5-.9 1.1-1.9 2-2.8 3-.9 1-1.5 1.9-2.1 3-.6 1.1-1.2 2.4-2.1 3.6-1.1 1.1-2.2 2-3.5 2.6z"/>
			<path d="M226.7 200.2c0-1.4-.1-2.9-.3-4.4-.2-1.5-.5-3-.8-4.5-.3-1.5-.7-2.9-1.1-4.4-.5-1.4-1-2.9-2-4 .6.5 1 1.1 1.4 1.8.4.7.7 1.4 1 2.1.6 1.4 1.1 2.9 1.6 4.3.5 1.5.9 2.9 1.2 4.4.3 1.5.6 3 .8 4.6l-1.8.1z"/>
			<path d="M183.3 180.7c-.2.5-.7.8-1.3.9-.5.1-1.1.1-1.6.1s-1.1-.1-1.6-.2-1-.2-1.6-.4l1.1-2.2c.3.3.7.6 1.1.8.4.3.8.5 1.2.7.4.2.8.4 1.3.5.5.2 1 .2 1.4-.2z"/>
			<path d="M169.2 238.9c1.2 1.1 2.6 1.9 4 2.4a17.42 17.42 0 004.4.7l-.5 3c-.9-.3-1.7-.6-2.5-1s-1.5-.8-2.2-1.3c-1.3-1.1-2.5-2.4-3.2-3.8z"/>
			<path d="M132 244.4c-.9.2-1.6.2-2.4.2h-2.2c-.7 0-1.4 0-2.2-.1-.7 0-1.5-.1-2.4-.2a6.9 6.9 0 017.1-1.2c.7.3 1.5.7 2.1 1.3z"/>
			<path d="M138 229.4c.3-.4.6-.7 1-.8.4-.1.7-.2 1.1-.2.4 0 .7.1 1.1.4.3.2.6.5.8 1-.4.3-.8.4-1.1.5-.3.1-.6.1-.9.1-.3 0-.6-.1-.9-.3-.4-.1-.7-.3-1.1-.7z"/>
			<path d="M142.5 226.6c.2-.5.6-.7.9-.9.3-.1.7-.2 1-.1.3 0 .6.2.9.4.3.2.5.5.7 1-.4.3-.7.5-1 .6-.3.1-.6.1-.9.1-.3 0-.5-.1-.8-.3-.2-.3-.4-.5-.8-.8z"/>
			<path d="M147.2 224.8c.2-.4.4-.6.7-.8.2-.1.5-.2.7-.1.2 0 .4.1.6.3.2.2.4.4.5.9-.3.4-.5.5-.8.7-.2.1-.4.1-.6.1-.2 0-.4-.1-.5-.3-.2-.2-.4-.4-.6-.8z"/>
			<path d="M151.6 223.5c0-.5.3-.7.5-.9.2-.1.5-.2.7-.1.2 0 .4.1.5.3.1.2.3.5.3.9-.3.3-.5.5-.7.6-.2.1-.3.1-.5.1-.1 0-.2-.1-.3-.3-.1 0-.2-.2-.5-.6z"/>
			<path d="M105.5 252.5c-.1-.5.2-.9.4-1.2.3-.3.5-.4.9-.5.3-.1.6-.1 1-.1.3.1.7.2 1.1.6-.2.5-.4.7-.7 1-.2.2-.5.4-.8.4-.3.1-.5.1-.8.1-.3-.1-.6-.2-1.1-.3z"/>
			<path d="M108.9 248.8c-.1-.5.1-.8.3-1 .2-.2.4-.4.6-.4.2-.1.4-.1.7 0 .3.1.5.2.8.6-.1.5-.2.7-.4.9-.2.2-.3.3-.5.4-.2.1-.4.1-.6 0-.3-.1-.5-.2-.9-.5z"/>
			<path d="M112.4 246.6c-.2-.4-.1-.8.1-1 .2-.2.3-.4.5-.4.2-.1.4 0 .6.1.2.1.4.3.7.7-.1.4-.2.7-.4.9-.1.2-.2.3-.4.3-.1 0-.3 0-.4-.1-.2-.2-.3-.4-.7-.5z"/>
			<path d="M162.6 208.2c-.3-.4-.2-.8-.2-1 .1-.3.2-.5.3-.7.2-.2.4-.3.6-.3.3 0 .6 0 1 .2.1.5.1.8 0 1l-.3.6c-.1.1-.3.2-.6.3-.1-.1-.4-.1-.8-.1z"/>
			<path d="M164.3 203.8c-.4-.3-.4-.7-.4-1 0-.3.2-.5.3-.6.2-.1.4-.2.6-.2.3 0 .5.1.9.3.1.4.1.7 0 .9 0 .2-.1.4-.2.4-.1.1-.2.1-.4.1-.2.1-.4 0-.8.1z"/>
			<path d="M165.7 224.4c-.5.1-.8-.3-.9-.5-.2-.2-.2-.5-.2-.7 0-.2.1-.4.3-.6.2-.2.5-.3.9-.3.3.3.5.5.6.7.1.2.1.3.1.5 0 .1-.1.2-.2.4-.1.1-.3.1-.6.5z"/>
			<path d="M161.9 212.7c-.3-.3-.4-.7-.4-1 0-.3.1-.5.2-.7.1-.2.3-.3.6-.4.3-.1.6-.1 1-.1.2.4.2.7.3 1 0 .3-.1.5-.2.6-.1.2-.3.3-.5.4-.3.1-.6.1-1 .2z"/>
			<path d="M162 216.9c-.4-.3-.5-.6-.5-.9 0-.3 0-.5.1-.7.1-.2.3-.4.5-.5.2-.1.5-.2 1-.2.2.4.3.7.4.9 0 .3 0 .5-.1.6-.1.2-.2.3-.4.4-.3.2-.5.3-1 .4z"/>
			<path d="M163.5 220.9c-.4-.3-.5-.5-.7-.8-.1-.2-.1-.5-.1-.7 0-.2.1-.4.3-.6.2-.2.4-.4.9-.5.4.3.5.5.7.8.1.2.1.5.1.7 0 .2-.1.4-.3.6-.2.2-.5.4-.9.5z"/>
			<path d="M118.5 271.3c.7-.3 1.5-.7 2.1-1.1.7-.4 1.3-.9 1.9-1.5.6-.6 1.2-1.2 1.9-1.8.7-.6 1.4-1.1 2.3-1.4-.7.5-1.3 1.2-1.7 1.9-.4.7-.8 1.5-1.3 2.3-.5.8-1 1.5-1.6 2.2-.6.7-1.3 1.3-2 1.9l-1.6-2.5z"/>
			<path d="M108.8 230.6c-.5-.8-.8-1.5-1.2-2.1l-1-1.8c-.3-.6-.6-1.2-1-1.7-.4-.6-.7-1.2-1.4-1.8.4-.3.9-.2 1.4-.2.5.1.9.3 1.3.5.8.5 1.4 1.2 1.8 2 1 1.5 1.1 3.5.1 5.1z"/>
			<path d="M171.6 173.3c.6-.4 1.4-.4 2-.3.7.1 1.3.4 1.8.7.5.3 1 .7 1.4 1.2.4.5.8 1 .9 1.8-.7-.1-1.3-.3-1.9-.5-.6-.2-1.1-.5-1.5-.8-.5-.3-.9-.6-1.4-1-.4-.3-.7-.7-1.3-1.1z"/>
			<path d="M176.5 157.8l-3.6.3c-1.2.1-2.3.1-3.4.1h-3.4c-1.2 0-2.4 0-3.6-.3 2.1-1.6 4.6-2.2 7.1-2.3 1.2 0 2.5.1 3.7.5 1 .4 2.2.9 3.2 1.7z"/>
			<path d="M177.5 172.9l-2.3-.6c-.8-.1-1.5-.4-2.2-.4-1.5-.2-2.9-.2-4.2.2-1.3.4-2.5 1.1-3.9 1.9-.7.4-1.4.8-2.3 1.1-.9.3-1.9.3-2.9.2h.2c-.8-.1-1.5-.3-2.2-.7-.7-.4-1.2-1-1.6-1.6-.8-1.3-.8-3 0-4-.2 1.3.3 2.5 1.1 3.2.4.4.8.6 1.3.8.5.2 1 .2 1.5.2h.2c1.2.1 2.2-.5 3.6-1.3 1.3-.8 2.8-1.7 4.6-2 1.8-.4 3.6-.1 5.1.5 1.4.5 2.8 1.5 4 2.5z"/>
			<path d="M166.3 174.3s-.6.9-.2 3.2c.4 2.3 2 5.8-.3 5.9-2.3.1-4.5-1.8-4.9-5.5-.2-1.2.3-2.3.3-2.3"/>
			<path d="M169.7 188.5c-.7.6-1.5 1-2.3 1.2-.8.2-1.7.2-2.6.1a5.81 5.81 0 01-4.3-2.8c.9.2 1.6.3 2.4.5.7.1 1.4.3 2.2.4l2.2.3c.7.1 1.5.1 2.4.3z"/>
			<path d="M152 247.1c-1.2 1-2.4 1.9-3.6 2.8l-3.6 2.7-7.3 5.4c.7-1.4 1.7-2.6 2.8-3.7 1.1-1.1 2.3-2.1 3.5-3.1 1.2-.9 2.5-1.8 3.9-2.5 1.3-.6 2.7-1.2 4.3-1.6z"/>
			<path d="M244.5 162.4c9.2 5.2 17.6 11.7 24.9 19.4l2.7 3 1.3 1.5 1.2 1.6 2.5 3.1 2.3 3.3c2.9 4.4 5.6 9 7.9 13.9 2.2 4.8 4.1 9.8 5.6 14.9a103 103 0 013.3 15.6c.7 5.3 1.1 10.6 1.1 15.8-.1 5.3-.4 10.6-1.4 15.8.5-5.2.5-10.5.2-15.7-.3-5.2-.9-10.4-1.8-15.6-1.8-10.3-4.9-20.3-9.3-29.7-4.4-9.4-10.2-18.2-17-26-6.9-7.9-14.8-14.8-23.5-20.9z"/>
			<path d="M203.9 151.8c.7.7 1.4 1.1 2.2 1.6.8.4 1.5.8 2.3 1.2l2.4 1.2c.8.4 1.6.9 2.4 1.5-1 .1-1.9 0-2.8-.2-.9-.2-1.8-.5-2.7-.9-.9-.4-1.7-1-2.4-1.7-.8-.7-1.4-1.6-1.4-2.7z"/>
			<path d="M167.6 140.1c1.3-1.6 3-2.7 4.7-3.8 1.7-1 3.5-2 5.3-2.9 1.8-.9 3.7-1.7 5.5-2.5 1.9-.8 3.8-1.4 5.7-2l.8 2.9c-1.9.5-3.8 1.1-5.7 1.6-1.9.6-3.7 1.2-5.6 1.9a90 90 0 00-5.5 2.2c-1.6.8-3.4 1.6-5.2 2.6z"/>
			<path d="M305.8 183.9c4.4 7.7 8.4 15.7 11.5 24.1 3.1 8.4 5.2 17 6.5 25.8 1.3 8.8 1.7 17.7 1.4 26.5-.3 8.8-1.2 17.6-2 26.4.5-8.8 1.3-17.6 1.3-26.4 0-8.8-.6-17.6-2.1-26.3-1.5-8.6-3.9-17.1-7.2-25.2-3.3-8.1-7.4-15.9-11.9-23.3l2.5-1.6z"/>
			<path d="M234.7 231.1c1 .9 2 1.8 2.9 2.9.8 1.1 1.7 2.1 2.4 3.3 1.5 2.3 2.5 4.9 3.3 7.6.7 2.7 1 5.5.9 8.2-.1 2.7-.5 5.5-1.6 8 .1-2.7 0-5.3-.3-7.9a48.45 48.45 0 00-4-14.9c-.5-1.2-1.1-2.4-1.7-3.6-.5-1.3-1.3-2.4-1.9-3.6z"/>
			<path d="M345.5 238.5c-.9-.2-1.6-.4-2.3-.6-.7-.3-1.5-.6-2.1-1-.7-.4-1.3-.9-1.8-1.4-.5-.6-.9-1.2-1.2-1.9a5.8 5.8 0 003.6 1.9c.7.1 1.3.2 2 .2s1.4 0 1.9-.1l-.1 2.9z"/>
			<path d="M346 278.3c-1.2-.9-2.3-1.8-3.3-2.9-1-1-1.9-2.2-2.8-3.3-.8-1.2-1.6-2.4-2.2-3.7-.6-1.3-1.1-2.6-1.5-4 .6 1.3 1.3 2.5 2.1 3.6s1.7 2.2 2.7 3.1a23.3 23.3 0 006.5 4.6l-1.5 2.6z"/>
			<path d="M323.8 172.8c-.5.2-.9.3-1.3.4-.4.1-.8.1-1.3.2-.8.1-1.6 0-2.4-.1-.8-.1-1.6-.3-2.3-.6-.7-.3-1.4-.6-2-1l2.2.3c.7 0 1.4-.1 2.1-.2.7-.1 1.3-.3 1.9-.6.3-.1.6-.3.9-.4.2-.2.6-.4.7-.5l1.5 2.5z"/>
			<path d="M347 218.8c-.7.1-1.3.1-1.9.1-.6 0-1.2-.1-1.8-.2-1.2-.2-2.4-.6-3.4-1.1-1.1-.5-2-1.2-2.8-2.1-.8-.8-1.4-1.8-2-2.7.8.8 1.5 1.6 2.5 2.1.9.6 1.9 1 2.9 1.2 1 .2 2 .3 3 .2.5 0 1-.1 1.5-.2s1-.3 1.3-.4l.7 3.1z"/>
			<path d="M258.3 110.3c.1-.1-.1 0-.1 0h-.3c-.2 0-.4.1-.6.1-.4.1-.8.3-1.3.6-.4.2-.8.5-1.2.8-.4.3-.8.7-1.1 1a10.76 10.76 0 012.4-4.3c.2-.2.4-.4.7-.6.1-.1.3-.2.4-.3.2-.1.3-.2.6-.3l.5 3z"/>
			<path d="M264 128.5c1.1-.9 2.3-1.7 3.7-2.2 1.4-.5 2.9-.8 4.3-.9 1.5-.1 3 .1 4.5.4 1.5.3 2.9.7 4.4 1.4l-1.6 2.6c-1-.7-2.2-1.3-3.5-1.8-1.3-.5-2.6-.9-3.9-1-1.3-.2-2.7-.1-4.1.1-1.3.1-2.5.7-3.8 1.4z"/>
			<path d="M232 118.8c-.2-.9-.3-1.9-.3-2.9s.1-2.1.5-3.1l2.6 1.6c-1.2.9-2.1 2.6-2.8 4.4z"/>
			<path d="M169.5 131.5c-1.4-.9-3-1.4-4.6-1.8-1.6-.4-3.2-.5-4.7-.5l.4-3a19.58 19.58 0 018.9 5.3z"/>
			<path d="M331.6 221.6c-1.2-1.6-2.1-3.4-2.9-5.3-.7-1.9-1.3-3.9-1.7-5.8-.9-3.9-1.3-7.9-2.4-11.6-1-3.7-2.9-7.2-5.6-10-2.7-2.8-6.1-4.9-9.7-6.7 1.9.6 3.8 1.4 5.6 2.3 1.8 1 3.5 2.1 5 3.5s2.8 3 3.9 4.8c1.1 1.8 1.8 3.7 2.4 5.7 1.1 4 1.5 8 2.1 11.9.6 3.7 1.4 7.6 3.3 11.2z"/>
			<path d="M305.2 158.8c-.8.2-1.6.1-2.4-.2-.8-.3-1.5-.7-2.1-1.2-1.3-1-2.5-2.1-3.6-3.2-2.3-2.2-4.5-4.5-7-6.1a15 15 0 00-4-2c-1.4-.5-3-.8-4.5-1.1-3.1-.5-6.2-.8-9.4-1.1 3.2-.4 6.4-.6 9.6-.3 1.6.1 3.2.4 4.8.9 1.6.4 3.2 1.2 4.5 2.1 2.7 1.9 4.9 4.3 7 6.6 1.1 1.2 2.1 2.4 3.2 3.4 1 1.2 2.2 2.3 3.9 2.2z"/>
			<path d="M264.5 121.3a35.93 35.93 0 00-9.1 3c-1.4.7-2.8 1.4-4.3 2.2-.7.4-1.5.8-2.2 1.1-.4.2-.8.3-1.2.5-.4.1-.9.3-1.3.1.2 0 .4-.1.6-.2.2-.1.3-.2.5-.3.3-.2.6-.5.9-.8.6-.5 1.3-1 1.9-1.5 1.3-1 2.8-1.9 4.3-2.6 1.5-.7 3.1-1.3 4.8-1.6 1.8-.3 3.5-.4 5.1.1z"/>
			<path d="M244.8 112.6c.7 1.1 1 2.6.5 3.9-.4 1.4-1.4 2.5-2.3 3.4-.9.9-1.9 1.6-2.7 2.5-.8.8-1.4 1.8-1.8 3.1-.3-1.3 0-2.7.8-3.9.7-1.2 1.7-2 2.6-2.9.9-.8 1.7-1.6 2.2-2.6.5-1 .7-2.2.7-3.5z"/>
			<path d="M346.3 263.9c-1.8-1.5-3.3-3.3-4.4-5.4-.6-1-1-2.1-1.4-3.2-.4-1.1-.7-2.2-1.1-3.2-.7-2.1-1.7-4-3-5.9-1.3-1.8-2.9-3.5-4.3-5.3 2 1.2 3.8 2.7 5.4 4.4.4.4.8.9 1.1 1.4.4.5.7 1 1 1.5.6 1 1.1 2.1 1.5 3.3.8 2.2 1.3 4.4 2.1 6.5.7 2 1.9 3.9 3.1 5.9z"/>
			<path d="M162.9 136.9c-2.2-.3-4.4-.7-6.6-.8-1.1 0-2.2-.1-3.2 0s-2 .3-2.9.7c-1.8.8-2.8 2.6-3.9 4.6-.3.5-.6 1-1 1.4-.4.4-.9.8-1.5 1.1-1.1.5-2.4.5-3.4.2 1.1-.1 2.2-.3 3-.9.8-.6 1.3-1.5 1.8-2.5.4-1 .9-2 1.6-3 .7-1 1.7-1.9 2.8-2.4 2.3-1 4.8-.9 7-.5s4.3 1.2 6.3 2.1z"/>
			<path d="M175.8 93c.7 2.5 1.8 4.8 3.3 6.8 1.5 2 3.3 3.7 5.2 5.4 2 1.6 4 3.1 6.1 4.7 2 1.6 4 3.3 6 5.1 1.9 1.8 3.7 3.8 5.2 5.9 1.5 2.2 2.9 4.4 4 6.8 2.2 4.8 3.4 9.9 3.9 15.1-1.5-4.9-3.2-9.8-5.6-14.2a45.8 45.8 0 00-9.2-11.8c-3.6-3.5-7.8-6.5-11.6-10.1a26.7 26.7 0 01-5-6.1c-1.4-2.4-2.2-5-2.3-7.6z"/>
			<path d="M203.2 139.9c-1.5-.6-2.8-1.7-3.9-2.9s-2-2.6-2.7-4c-.7-1.5-1.2-3.1-1.3-4.7-.2-1.6-.1-3.3.4-4.8.6 1.5 1 3 1.5 4.4.5 1.4 1.1 2.7 1.7 4.1.6 1.3 1.3 2.6 2 3.9.7 1.3 1.5 2.6 2.3 4z"/>
			<path d="M201.1 141.9c-2.5-1.3-4.6-3-6.6-4.9-2-1.9-3.9-3.8-5.8-5.9-1.8-2-3.5-4.2-5.2-6.4-.4-.6-.8-1.1-1.2-1.7l-1.1-1.7c-.8-1.2-1.4-2.4-2.1-3.6l2.6-1.4c1.3 2.3 2.7 4.6 4.2 6.7a69.76 69.76 0 004.8 6.5c1.7 2.1 3.4 4.1 5.2 6.1 1.8 2 3.6 3.9 5.3 6.1l-.1.2z"/>
			<path d="M206.5 111c2.5 1.4 4.8 3 6.9 5 2.1 1.9 4 4.1 5.6 6.4 1.6 2.3 3 4.8 4.1 7.3 1.1 2.5 2 5.2 2.3 8l-.3.1c-1.5-2.4-2.7-4.8-4-7.2-1.3-2.4-2.7-4.6-4.4-6.7-1.6-2.1-3.4-4-5.4-5.7-2-1.7-4.1-3.2-6.4-4.6l1.6-2.6z"/>
			<path d="M231.7 263.3c.4 7-.8 14.1-3.5 20.6-1.3 3.3-3.1 6.4-4.9 9.4-1.9 3-3.9 5.8-5.9 8.7-4.1 5.6-8.3 11.1-11.6 17.1-3.3 6-5.7 12.5-6.9 19.4.2-7 2-14 5.1-20.3 1.5-3.2 3.4-6.2 5.3-9.1 1.9-2.9 4-5.7 6.1-8.6 4.1-5.6 8.1-11.2 11.1-17.4 2.8-6.1 4.6-12.8 5.2-19.8z"/>
			<path d="M336.8 290.7c-.5-1.7-1.2-3.3-1.9-4.8-.8-1.5-1.6-3.1-2.3-4.7a19.1 19.1 0 01-1.3-10.5l1.2 5.1c.5 1.6 1 3.2 1.7 4.8.6 1.6 1.4 3.2 1.9 4.9.5 1.6.9 3.4.7 5.2z"/>
			<path d="M594.5 504.8c3.9.1 7.9 1 11.4 2.9.4.3.9.5 1.3.7l1.2.9c.8.6 1.6 1.3 2.3 1.9 1.5 1.4 2.8 2.9 4 4.4 2.4 3.1 4.5 6.3 6.8 9.3 2.3 3 4.9 5.7 7.9 8.2-3.6-1.5-6.9-3.9-9.6-6.7-2.8-2.8-5.1-6-7.4-9-2.3-3-4.8-5.7-7.8-7.8-2.9-2-6.4-3.5-10.1-4.8z"/>
			<path d="M629.4 392.3c.6 1.1.7 2.4.6 3.7-.1 1.3-.5 2.5-1 3.7-1 2.3-2.2 4.3-3.6 6.3s-2.9 3.8-4.6 5.6a31.2 31.2 0 01-5.6 4.6c1.2-2.1 2.5-4.1 3.8-6.1 1.3-1.9 2.6-3.9 3.9-5.8 1.3-1.9 2.7-3.8 3.9-5.7 1.5-2 2.5-3.9 2.6-6.3z"/>
			<path d="M625.6 418.4c1 .8 1.3 2.1 1.3 3.4-.1 1.3-.5 2.5-1.3 3.5a8.5 8.5 0 01-6 3.3c.5-1.1 1.2-2 1.8-2.8.6-.8 1.2-1.5 1.7-2.2.5-.7 1-1.4 1.4-2.2.5-1 .9-1.8 1.1-3z"/>
			<path d="M622.7 436.1c.7.4 1.1 1 1.3 1.5.2.6.3 1.2.3 1.8-.1.6-.3 1.2-.6 1.7-.4.5-.9 1-1.6 1.3-.4-.7-.6-1.3-.7-1.8-.1-.5-.1-1-.1-1.5s.2-.9.4-1.4c.2-.4.5-.9 1-1.6z"/>
			<path d="M327 299.8c1.1-1.3 1.8-3.1 2.3-4.9.5-1.8.7-3.8.6-5.8.7 1.9.9 3.9.9 6 0 2-.3 4.2-1.2 6.3l-2.6-1.6z"/>
		</g>
	</g>
</svg>