<svg xmlns="http://www.w3.org/2000/svg" fill="#d7374a" stroke="#000" viewBox="50 50 200 200"><metadata license="https://creativecommons.org/licenses/by-nc-sa/3.0" source="http://wappenwiki.org/images/0/0d/Leijonansikte.svg"/><g id="lionHeadCaboshed" stroke-width=".45"><path d="M119.14 65.59s-.18-.14-1.36-.87a4.44 4.44 0 00-1.98-.75s-.05-.92-2.05-1.74c-2-.83-2.88-.22-2.88-.22s-.28-.7-2.61-1.28c-2.04-.55-2.87-.02-2.87-.02s-1.07-.77-3.49-.54c-2.41.22-2.04.78-2.04.78s.33-.55-2.08-.78c-2.42-.23-3.5.54-3.5.54s-.82-.68-2.86-.13c-2.33.6-2.61 1.29-2.61 1.29s-.87-.47-2.88.36c-2 .82-2.05 1.74-2.05 1.74s-.8.02-1.98.75-1.36.87-1.36.87-2.88-1.74-7.46-.21c-2.07 2.07-1.85 7.84-.6 11.03.06.15-1.24 1.25-1.65 2.86-.37 1.46.43 4.03-.67 5.3-1.8 1.8-3.12.07-3.12 1.09 0 3.2 3.69 2.91 3.69 2.91s.55 2.37-.97 3.7c-.8.66-1.91.81-2.36.72-.4-.07-.81-.24-.63.49a3.4 3.4 0 004.16 2.79c-1.18 1.37-.65 3.14-1.05 3.98-.87 1.94-2.65 1.92-2.65 2.26 0 .34 1.15 1.39 2.43 1.52 1.2.14 1.8-.36 2.25-.47-1.1 1.85-.03 2.77-.68 4.44-.78 2.03-2.48 2.63-2.37 2.97.12.34 1.33.91 2.73.87 1.4-.05 2.41-1 2.86-1.05-.45 1.07.22 2.63-.6 4.48-.85 1.93-2.78 2.74-2.73 3.08.06.34 1.64.88 3.17.92 1.33.05 2.26-.34 2.82-1.13-.5 2.08.74 2.38.25 4.27-.54 2.04-2.16 3.37-1.94 3.6.23.22 1.68.44 3.2.04 1.35-.36 3.01-2.03 3.01-2.03s-.68 3.42 0 5.46c.68 2.01 2.07 3.54 2.4 3.54.35 0 .17-1.91.9-2.95a7.5 7.5 0 012.07-1.9c.11 1.23 1.89 1.85 2.63 3.57.95 2.22-.26 4.54.02 4.88.28.34 2.08-.11 3.43-1.26 1.26-1.06 2.25-3.16 2.25-3.16-.04.01 1.92.3 2.46 2.01.27.86-.1 1.84.48 2.99.92 1.83 2.2 2.95 3.14 2.6.67-.16-.36-1.85 1.36-3.85 2.03-2.34 1.78-3.75 1.73-3.76 0 0 1 2.1 2.25 3.16 1.35 1.14 3.15 1.6 3.43 1.26.29-.34-.92-2.67.03-4.88.74-1.73 2.52-2.34 2.63-3.58.4.23 1.4.98 2.07 1.91.73 1.05.55 2.95.89 2.95.34 0 1.73-1.53 2.4-3.54.68-2.04 0-5.46 0-5.46s1.67 1.67 3.02 2.03c1.52.4 2.97.18 3.2-.05.22-.22-1.41-1.55-1.94-3.59-.5-1.89.75-2.2.25-4.27.56.78 1.48 1.18 2.82 1.13 1.53-.04 3.1-.58 3.16-.92.06-.34-1.88-1.15-2.73-3.08-.81-1.85-.15-3.41-.6-4.48.45.06 1.47 1 2.87 1.05 1.4.04 2.61-.53 2.72-.87.12-.34-1.58-.94-2.36-2.97-.65-1.69.43-2.59-.68-4.44.45.1 1.04.6 2.25.47 1.27-.14 2.43-1.18 2.43-1.52 0-.34-1.78-.33-2.65-2.26-.4-.84.13-2.61-1.06-3.98.97.27 3.63.09 4.17-2.8.18-.72-.23-.56-.63-.48a3.38 3.38 0 01-2.37-.72c-1.51-1.34-.96-3.7-.96-3.7s3.69.27 3.69-2.91c0-1.03-1.32.7-3.12-1.08-1.1-1.28-.3-3.85-.67-5.31-.41-1.61-1.71-2.71-1.66-2.86 1.26-3.2 1.48-8.97-.6-11.04-4.63-1.51-7.61.23-7.61.23z"/><path fill="#f8f8fa" d="M109.53 106.06a7.8 7.8 0 01-.08 4.35c-.48 1.68-1.4 2.1-1.4 2.1s0 0 0 0 0 0 0 0c-.3-.09.1-.46-.3-2.38-.64-2.85-1.19-3.52-1.72-4.42m.13 16.2s.66-1.04.94-3.03c.17-1.33-.04-2.33.05-2.35 0 0 0 0 0 0l.15-.01c.38.05.81.5 1.1 1.06.28.56.4 1.18.49 2.13"/><path fill="#f8f8fa" d="M90.27 106.06a7.8 7.8 0 00.08 4.35c.48 1.68 1.4 2.1 1.4 2.1v0c.31-.09-.1-.46.3-2.38.64-2.85 1.2-3.52 1.72-4.42m-.2 16.09s-.6-.93-.88-2.92c-.17-1.33.05-2.33-.04-2.35h-.02l-.14-.01c-.37.05-.84.48-1.1 1.06-.24.56-.3 1.22-.39 2.18"/><path fill="#f8f8fa" d="M113.48 80.21c-1.54.05-4.93 2.1-4.9 3.04.07.65 1.35 1.94 3.43 1.87 2.08-.07 4.18-3.93 4.17-4.33-.01-.1-1.63-.61-2.7-.58z"/><path fill="#f8f8fa" d="M86.31 80.21c1.54.05 4.93 2.1 4.9 3.04-.07.65-1.34 1.94-3.42 1.87-2.09-.07-4.19-3.93-4.18-4.33.01-.1 1.63-.61 2.7-.58z"/><path fill="#1d1d1b" stroke-width=".113" d="M112.52 81.35c-.43-.16-.83-.03-1.08.34-.22.58.15.53 0 1.4-.07.52-.31 1.24.4 1.4 0 0 .63.37 1.21-.88.4-.84.07-2.1-.53-2.26z"/><path fill="#1d1d1b" stroke-width=".113" d="M87.27 81.35c.44-.16.83-.03 1.08.34.22.58-.15.53 0 1.4.08.52.31 1.24-.4 1.4 0 0-.63.37-1.21-.88-.4-.84-.07-2.1.53-2.26z"/><path fill="none" d="M99.89 102.58l-.01 1.6"/><path d="M93.22 109v6.41c0 5.46 4.37 8.96 6.63 8.96s6.62-3.48 6.62-8.96V109c0-1.19-.81-2.45-2.63-2.45-1.82 0-3.05.82-4 .82-.95 0-2.17-.82-4-.82-1.8 0-2.62 1.26-2.62 2.45z"/><path fill="none" d="M94.4 97.87c.48.02.81-.54 1.23-.34.38.18.6.58.6.9 0 .26-.22.46-.06.55 1.6.8 3.74 2.65 3.74 3.6 0-.95 2.14-2.8 3.74-3.6.14-.1-.06-.3-.06-.54 0-.34.22-.73.6-.91.41-.2.74.37 1.22.34"/><g fill="#000" stroke="none"><path fill="#1d1d1b" d="M109.81 106.3c-4.06 0-6.81-.93-8.47-1.5-.65-.2-1.16-.39-1.43-.39s-.78.17-1.44.4c-1.65.56-4.42 1.5-8.48 1.5-.6 0-1.15-.15-1.65-.46-2.33-1.37-2.94-5.66-2.94-7.73h.45c0 1.98.56 6.08 2.71 7.35.43.26.91.38 1.42.38 4 0 6.72-.92 8.34-1.47.74-.25 1.22-.42 1.57-.42.35 0 .83.17 1.58.42 1.62.55 4.34 1.47 8.32 1.47.52 0 .99-.12 1.42-.38 2.15-1.27 2.7-5.35 2.7-7.35h.46c0 2.07-.62 6.36-2.94 7.73-.47.3-1.03.45-1.62.45z"/><path d="M110.26 115.21c0 1.33-.26 2.67-.8 3.88-.33.7-.9 1.28-1.46 1.8a7.97 7.97 0 01-2.77 1.58c-.68.23-1.37.4-2.07.53.08-.14.07-.36.28-.35 1.46-.44 2.9-1.01 4.13-1.92a6.3 6.3 0 001.93-2.6c.37-.93.62-1.91.77-2.9z"/><path d="M89.54 115.21c.24 1.47.65 2.94 1.43 4.22.32.5.7.87 1.16 1.25 1.1.86 2.45 1.39 3.76 1.82.2.13.68.03.66.35.1.32-.37 0-.54.01-1.37-.33-2.7-.85-3.86-1.66a5 5 0 01-1.13-1 8.52 8.52 0 01-1.47-4.67c0-.09.02-.27-.01-.32z"/><path d="M105.14 124c-.73.2-1.44.49-2.13.8a8.07 8.07 0 01-4 .56 7.67 7.67 0 01-2.8-.8c-.5-.23-1.01-.4-1.53-.55.16-.17.61.06.87.06 1.02.22 1.98.71 3.03.8.78.07 1.56.08 2.35.04.8-.04 1.58-.25 2.33-.52a8.02 8.02 0 011.92-.44l-.04.05z"/><path d="M113.94 98.12c0-.33.01-.66-.01-.99a8.7 8.7 0 00-.4-2.03c-.06-.2-.16-.38-.24-.57-.1-.19-.2-.36-.32-.53.08-.08.15.14.22.19a6.78 6.78 0 011.13 3.08c.03.24.06.5.07.74.04.1-.07.08-.13.09l-.32.02z"/><path d="M86.82 94.02a4.99 4.99 0 00-.83 2.15c-.06.37-.12.75-.14 1.13v.85h-.45c.01-.25.02-.49.06-.73.03-.29.1-.58.15-.86.15-.66.39-1.3.72-1.9.13-.23.28-.44.45-.64h.04z"/><path d="M78.17 101.51a8.7 8.7 0 00-.37-.87 2.74 2.74 0 00-.42-.6c-.44-.52-1.03-.88-1.46-1.4-.2-.22-.36-.48-.52-.74-.01-.1-.2-.23-.08-.3.32.28.63.6.98.88.3.26.62.5.92.78.32.29.61.63.78 1.04a3.25 3.25 0 01.2 1.22l-.03-.01z"/><path d="M76.54 104.98c.37.43.78.85 1.2 1.24.4.4.82.77 1.18 1.2.3.36.55.77.72 1.21.11.32.2.65.2.99 0 .22-.14-.1-.15-.19-.18-.43-.4-.85-.7-1.22-.55-.76-1.3-1.37-1.85-2.13-.25-.33-.48-.69-.63-1.08l.03-.02z"/><path d="M78.73 112.87c.33.22.58.53.77.88.3.56.44 1.19.61 1.8.13.49.28.97.47 1.44.12.28.26.55.39.83-.11.12-.2-.14-.29-.19a4.76 4.76 0 01-.94-1.78c-.21-.66-.31-1.34-.52-2a3.9 3.9 0 00-.35-.74c-.04-.07-.14-.16-.14-.24z"/><path d="M85.1 103.85a16.3 16.3 0 011.25 3.57c.44 1.8.64 3.66.66 5.51.01.37.02.74.06 1.11-.22-.05-.16-.56-.25-.78-.2-1.54-.38-3.09-.65-4.62a48.99 48.99 0 00-1.04-4.64l-.03-.15z"/><path d="M89.26 120.34c-.05 1.76 1.22 3.1 1.92 4.61.4.41.11 1.5.5 1.37.63-.1 1.4-.71 1.23-1.4.24-.06.9.42 1.15.71.53.55.7 1.31 1.02 1.98-.16-.02.67-.26.56-.64.11-.55.33-1.08.86-1.34.06.38.05.93.23 1.34.2.62.75 1.3 1.26 1.53-.17.08.05-1.04.43-1.2.33-.58 1.23-1.17 1.73-.45.3.72 1.33.4 1.54 1.2.33.3 0 1.28.3.74a4.52 4.52 0 001.3-3.22c.47.27.79.7.86 1.23-.1.4.68.76.62.74l.41-1.04c.32-.8.98-1.4 1.76-1.74-.2.65.4 1.22.96 1.44.75.37.26-.49.63-1.02.63-1.62 2.05-2.98 2.02-4.81.15-.15.06.73.01.93-.34 1.81-1.92 3.18-1.97 5.08-.81.46-1.76-.4-2-1.16-.03-.44.47.17-.1.17-.8.55-1.03 1.53-1.38 2.37-.27.36-.81 0-1.03-.25-.17-.41-.7-1.23-.53-1.46.37 0-.09 1.14-.22 1.52-.34.69-.74 1.51-1.52 1.78-.58-.19-.27-1.04-.7-1.4a3.37 3.37 0 01-1.6-1.02 2.01 2.01 0 00-1.23 1.78c-.4.48-1-.22-1.3-.51a3.69 3.69 0 01-.86-2.24c.6.16-.25.77-.2 1.23-.23.36-.54.83-1.02.77-.41-.35-.4-.98-.67-1.43-.21-.56-.8-1.03-1.18-1.31.48-.35-.1.8-.37.88-.39.53-1.68.76-1.47-.22-.36-1.95-2.17-3.45-1.97-5.55z"/><path d="M92.44 94.84c.32.46.82.85 1.4.67.48-.11.83-.57 1.36-.54.77-.06 1.43.4 2.06.75 1.2.6 2.61.61 3.92.41.8-.1 1.49-.53 2.19-.9.64-.31 1.49-.44 2.09.04.46.36 1.24.35 1.6-.15.16-.27.48-.38.16-.02-.37.7-1.38.83-2 .37-.62-.4-1.42-.1-1.98.26a5.7 5.7 0 01-2.98.93 5.87 5.87 0 01-3.58-.85c-.57-.37-1.3-.72-2-.46-.34.18-.68.43-1.09.36-.53.05-1.08-.54-1.15-.87z"/><path d="M105.4 97.64c.42.01.86-.13 1.22-.36a5 5 0 001.05-1.01c.28-.36.54-.77.51-1.24 0-.48.01-1-.3-1.4-.03-.1-.34-.2-.23-.25.36.15.54.53.63.9.07.34.1.71.08 1.07-.1.66-.55 1.2-.95 1.7a2.8 2.8 0 01-1.67 1c-.1 0-.32.12-.32-.02l-.03-.39z"/><path d="M92.2 93.41c-.39.2-.54.65-.57 1.05-.02.27-.03.54 0 .8.06.4.3.74.55 1.05.2.23.4.45.6.65.43.4 1 .68 1.59.67.07 0 .01.12.03.17v.28c-.6 0-1.2-.28-1.65-.68-.27-.22-.46-.52-.68-.79-.31-.4-.6-.87-.63-1.4.01-.49.04-1.01.3-1.44.1-.18.25-.33.44-.42l.02.06z"/><path d="M97.42 121.07c.28-.04.57.05.85.08.43.07.86.17 1.3.2.23 0 .47 0 .7-.04.35-.03.7-.12 1.04-.2.3-.05.6-.13.9-.11.15 0 .01.17-.1.14l-.75.32c-.52.2-1.08.36-1.65.35a5.31 5.31 0 01-1.66-.43c-.23-.09-.44-.22-.68-.28l.05-.03z"/><path d="M101.8 90.11c.13.06-.1.15-.15.17-.5.2-1.06.24-1.6.26a4.4 4.4 0 01-1.53-.2c-.18-.05-.34-.14-.52-.17-.07-.05.01-.12.09-.1.34-.03.67.02 1.01.02.24 0 .48.02.72.01.62 0 1.23.04 1.84.07.07-.02.19.04.14-.05z"/><path d="M100.28 78.6c-.1-.12-.15-.28-.2-.42l-.14-.44a12.7 12.7 0 01-.28-1.66h.46c-.06.58-.16 1.16-.3 1.72a3.87 3.87 0 01-.32.82c-.06-.02-.1-.05-.06-.12.03-.19.06-.38.06-.58.03-.42.05-.84.1-1.26l.05-.6h.45l.08 1.19.05.9c.01.14.01.28.04.41l.01.05z"/><path d="M92.5 88.76c-.06-.09-.08-.2-.13-.3l-.1-.36c-.04-.11-.06-.23-.08-.34-.02-.12-.06-.24-.07-.35l-.05-.33c0-.05-.04-.11 0-.15.02-.02.05-.05.08-.01.09.07.17.15.24.25.13.18.22.4.25.63.02.1.02.2.02.3-.01.1-.01.21-.04.31a1.2 1.2 0 01-.12.34s-.03.02 0 .01z"/><path d="M98.98 86.66c.09-.06.2-.08.3-.1.16-.02.31-.02.47-.02h.66a.8.8 0 01.36.09c.04.01.03.04.02.07-.02.04-.1.05-.13.08-.13.06-.26.13-.4.16l-.3.05c-.12 0-.23 0-.34-.03a1.23 1.23 0 01-.46-.18 1.08 1.08 0 00-.18-.09v-.03z"/><path d="M98.6 88.31c.16-.08.33-.1.5-.08l.6.06h.38c.11-.03.23-.02.34-.05.22-.03.45-.08.65.01.05.02.14.02.1.1-.03.04-.13.04-.19.07-.1.03-.2.1-.3.14a1.59 1.59 0 01-1.05.14c-.24-.04-.45-.15-.66-.26-.1-.04-.2-.1-.3-.12-.02 0-.05-.03-.06 0z"/><path d="M97.4 91.88c.22-.08.46-.04.68-.03a18.15 18.15 0 002.45.04c.55-.01 1.09-.1 1.64-.1.07-.02.28.06.15.11-.2.02-.4.12-.6.17a6.43 6.43 0 01-3.98-.12c-.1-.02-.29-.12-.34-.07z"/><path d="M90.78 89.16c.02.06.04.13.09.18.08.13.14.27.2.4.14.31.22.65.18.99a.84.84 0 01-.13.36c-.01.05-.05.03-.08.02-.05-.03-.03-.11-.05-.16-.03-.1-.05-.2-.1-.3a4.6 4.6 0 01-.14-.54c-.06-.24-.1-.5-.06-.74 0-.08.04-.15.08-.22z"/><path d="M89.15 91.35c.04.05.09.1.12.16.06.1.1.2.13.3.05.14.06.29.06.43a1.44 1.44 0 01-.25.87c-.03.03-.06.08-.1.05-.05 0-.04-.06-.05-.1-.07-.3-.06-.6-.04-.91l.01-.23c0-.09.04-.17.04-.26l.04-.22c0-.02.01-.11.03-.1v.01z"/><path d="M78.17 82.71a6.49 6.49 0 00-1.94 3.95c-.26 2 0 4.07.8 5.92.38.82.88 1.57 1.49 2.24-.27 0-.57-.5-.8-.7a8.43 8.43 0 01-1.91-4.52 8.89 8.89 0 01.55-4.62c.41-.9 1-1.74 1.84-2.28h-.02z"/><path d="M95.47 75.82a5.66 5.66 0 00-2.03-1.84c-1.25-.65-2.73-.69-4-1.35a4.4 4.4 0 01-1.46-1.16c.2-.04.43.31.66.39.95.61 2.09.85 3.18 1.1.92.24 1.86.57 2.55 1.25.49.45.83 1.04 1.11 1.64l-.01-.03z"/><path d="M93.75 71.53c.3-.05.59-.04.88-.02a4.1 4.1 0 011.61.55 3.15 3.15 0 011.04 1.06c.02.08.16.21.06.27-.08-.03-.16-.14-.24-.2a7.44 7.44 0 00-1.6-1.01c-.23-.12-.48-.2-.73-.3l-.57-.2a2.2 2.2 0 01-.45-.15z"/><path d="M79.96 99.1c1.64 3.33 2.2 7.06 2.59 10.72.33 2.92.7 5.98 2.4 8.46.64.96 1.42 1.82 2.28 2.58-.55-.21-1.15-.94-1.65-1.4-2.03-2.08-2.9-4.98-3.25-7.8-.4-3.26-.61-6.56-1.49-9.74-.24-.95-.55-1.95-.88-2.83z"/><path d="M121.61 101.51c0-.28.02-.56.1-.83.05-.21.1-.43.22-.62.17-.33.43-.6.7-.86.55-.47 1.13-.9 1.64-1.41.1-.04.18-.27.28-.16-.1.22-.24.43-.38.64-.38.56-.91.99-1.42 1.43a3.4 3.4 0 00-.72.91c-.1.17-.16.37-.26.55-.05.1-.06.3-.16.35z"/><path d="M123.27 104.99c-.22.57-.6 1.07-1 1.54-.55.62-1.17 1.19-1.64 1.88-.27.4-.47.83-.64 1.28-.16-.02 0-.29-.03-.4.04-.25.11-.49.2-.72.15-.39.37-.75.63-1.08.44-.53.95-1 1.45-1.46.3-.32.64-.61.9-.96.04 0 .1-.15.13-.08z"/><path d="M121.09 112.88a3.92 3.92 0 00-.66 1.53c-.14.57-.26 1.16-.46 1.72a4.47 4.47 0 01-1.08 1.74c-.13-.08.07-.24.09-.34.3-.6.5-1.22.68-1.86.19-.68.33-1.38.69-1.98.16-.3.37-.57.65-.76.02 0 .06-.08.09-.05z"/><path d="M115.54 78.52c-.82.06-1.65.24-2.38.64-1.14.58-1.95 1.63-3.03 2.31-.23.13-.49.27-.76.32-.65.12-1.33.2-2 .08a4.2 4.2 0 01-2.16-.83c.23-.09.57.26.86.28 1.05.34 2.18.3 3.25.04.24-.07.58-.23.8-.41 1.03-.78 1.95-1.76 3.18-2.2a4.71 4.71 0 012.24-.28v.05z"/><path d="M107.27 88.76a1.5 1.5 0 01-.16-.92c.05-.32.18-.66.45-.87.04-.04.1-.11.14-.03.02.08-.02.16-.02.24l-.13.68c-.05.28-.14.54-.24.8l-.04.1z"/><path d="M109.04 89.16c.14.23.09.52.05.78-.06.35-.17.68-.27 1.02.01.12-.13.24-.18.07-.19-.41-.08-.9.09-1.3.09-.2.22-.37.3-.57z"/><path d="M110.67 91.35c.11.58.19 1.17.07 1.75-.06.2-.24-.07-.25-.18a1.57 1.57 0 01-.03-1.25c.05-.12.13-.22.2-.32z"/><path d="M116.55 75.92a9.12 9.12 0 00-2.26-.02c-1.26.14-2.4.75-3.43 1.44-.62.38-1.24.85-1.98.93-.26 0 .03-.15.15-.15.58-.24 1.02-.69 1.53-1.04a5.9 5.9 0 016-1.19v.02z"/><path d="M121.64 82.69a5.67 5.67 0 012.17 3.21c.44 1.61.38 3.32-.02 4.93a7.61 7.61 0 01-2.36 3.97c-.27.1.24-.36.3-.49a9.36 9.36 0 001.89-4.78c.14-1.19.14-2.42-.15-3.59a6.18 6.18 0 00-1.8-3.24h-.02z"/><path d="M104.31 75.8c.38-.85.95-1.65 1.76-2.14 1.08-.67 2.37-.79 3.55-1.16a6.53 6.53 0 002.15-1.12c.05.2-.32.4-.45.56a6.72 6.72 0 01-2.94 1.32c-1 .23-2.04.53-2.85 1.2-.47.38-.86.85-1.21 1.33v.01z"/><path d="M117.22 70.04c.33-1.07 1-2.02 1.81-2.78a6.08 6.08 0 015.91-1.3c-.12.18-.52-.03-.74.03a8.09 8.09 0 00-3.02.46 7.2 7.2 0 00-1.98 1.2 8.9 8.9 0 00-1.98 2.4z"/><path d="M127.07 69.31a8.71 8.71 0 01-.33 5.44c-.16.36-.34.71-.6 1-.12-.09.1-.32.1-.46.13-.37.2-.76.3-1.13.18-.8.3-1.59.36-2.4l.07-.97c.02-.42.05-.84.06-1.27.02-.06-.01-.16.04-.2z"/><path d="M106.04 71.54c-.22.1-.45.16-.68.23a7.6 7.6 0 00-2.74 1.5c-.06.04-.16.2-.2.1.06-.24.2-.44.34-.62.19-.23.42-.43.66-.6a3.88 3.88 0 012.17-.65c.15.01.3.01.45.04z"/><path d="M109.42 85.16c.7.35 1.48.56 2.26.57h.31c.15 0 .4-.02.58-.08a5.85 5.85 0 002.53-1.86c.15-.1.24-.43.4-.41-.05.2-.19.42-.3.62a4.65 4.65 0 01-2.2 1.98c-.6.23-1.25.23-1.86.08a3.81 3.81 0 01-1.74-.86l.02-.04z"/><path d="M120.22 99.1c-1.27 3.37-1.8 6.96-2.14 10.53-.3 2.97-.7 6.08-2.46 8.59a12.9 12.9 0 01-2.63 2.72c.3-.52 1.07-1.01 1.46-1.6a13.25 13.25 0 002.82-6.78c.5-3.45.68-6.97 1.72-10.31.33-1.08.75-2.13 1.23-3.15z"/><path d="M120.53 72.23c.2-.6.79-1.02 1.4-1.1.53-.1 1.07-.04 1.58-.2.1-.08.56-.27.35 0-.38.44-1 .53-1.55.6-.5.04-1 .12-1.41.42-.13.08-.24.19-.37.28z"/><path d="M84.25 78.5a4.95 4.95 0 013.52.96c.86.57 1.54 1.4 2.48 1.86a5.63 5.63 0 004.1-.22c.47-.21-.04.22-.23.28-1.11.6-2.44.7-3.67.44-.35-.02-.67-.25-.97-.43-.9-.64-1.65-1.49-2.6-2.06a5.75 5.75 0 00-2.63-.78v-.05z"/><path d="M83.23 75.9c1.4-.51 3-.47 4.36.17 1.03.45 1.86 1.24 2.79 1.86.16.16.52.18.63.32-.16.06-.4-.04-.57-.08-.98-.36-1.77-1.08-2.7-1.55a6.6 6.6 0 00-3.02-.78c-.5-.02-1 .02-1.5.08v-.02z"/><path d="M90.38 85.18c-.67.6-1.58.91-2.48.96a3.32 3.32 0 01-2.3-.91 5.5 5.5 0 01-1.34-1.87c.16-.05.25.29.39.37a5.99 5.99 0 002.48 1.87c.22.06.44.12.67.12h.22c.57-.02 1.14-.11 1.68-.3.23-.07.47-.2.67-.27l.01.03z"/><path d="M94.7 62.08c.5-.08 1.02.05 1.4.38.43.33.73.86.74 1.4 0 .25-.2 0-.22-.1a3.88 3.88 0 00-1.3-1.33c-.2-.13-.42-.23-.63-.35z"/><path d="M89.57 62.95c.6-.08 1.23.15 1.66.58.44.4.72.98 1.24 1.3.07.17-.24.07-.33.04-.46-.14-.78-.54-1.1-.88a3 3 0 00-1.04-.8c-.12-.1-.35-.1-.43-.24z"/><path d="M84.55 64.75c.3-.24.74-.15 1.03.07.42.32.66.81.96 1.24.2.3.47.6.84.67.2.12-.22.15-.32.12-.51-.1-.86-.52-1.13-.93-.2-.29-.36-.6-.6-.87-.2-.22-.5-.31-.78-.3z"/><path d="M105 62.09c-.26.15-.54.28-.79.46-.36.23-.66.55-.9.89-.14.18-.26.37-.37.56-.18-.13-.02-.42 0-.6.25-.75.98-1.34 1.77-1.34l.3.03z"/><path d="M110.12 63.1c-.5.2-.98.46-1.33.86-.39.42-.76.94-1.36 1.05-.19.1-.26-.12-.06-.16.47-.35.73-.9 1.18-1.28.42-.4 1.01-.59 1.58-.52.01.02-.02.03-.01.05z"/><path d="M86.63 68.98c1.93 0 3.22-1.8 5.1-1.98 1.37-.18 2.74.04 4.1.2 1.51.17 2.63-1.3 4.14-1.22 1.48-.13 2.53 1.4 4.03 1.2 1.6-.16 3.28-.51 4.87-.02 1.49.48 2.66 1.8 4.3 1.78-.45.21-1.28-.09-1.8-.28-1.25-.58-2.47-1.49-3.92-1.4-1.16-.02-2.3.2-3.45.34-1.13.17-2.07-.6-3.06-1-1.14-.5-2.35.07-3.34.64-1.42.8-2.99.03-4.48.04a5.56 5.56 0 00-3.46.76 5.55 5.55 0 01-3.02.97z"/><path d="M82.57 70.06a8.36 8.36 0 00-3.19-3.21c-.98-.55-2.1-.8-3.22-.81-.43-.03-.87 0-1.3.02.07-.19.5-.15.71-.23 1.4-.27 2.9-.02 4.14.7a6.53 6.53 0 012.75 3.21c.02.08.12.31.1.32z"/><path d="M72.73 69.31c.06.86.08 1.71.17 2.56.07.87.2 1.74.41 2.6.1.39.21.77.35 1.15 0 .25-.23-.17-.29-.25a7.3 7.3 0 01-.91-3.27c-.06-.83 0-1.65.17-2.46.03-.08.04-.34.1-.33z"/><path d="M79.25 72.24a2.52 2.52 0 00-1.17-.62c-.63-.12-1.33-.09-1.9-.45-.1-.08-.44-.3-.28-.4.36.2.78.3 1.19.3.62.03 1.32.09 1.78.57.17.17.3.37.38.6z"/><path d="M115.15 64.76c-.33-.01-.65.13-.85.39-.22.25-.37.56-.56.83-.24.37-.56.74-1 .86-.16.03-.35.06-.49-.04.12-.13.4-.1.53-.29.53-.48.75-1.21 1.32-1.65.28-.24.71-.33 1.03-.12l.02.02z"/><path d="M111.53 105.65c-.1.89-.15 1.78-.18 2.68a9.12 9.12 0 01-.34 2.6c-.1.04.02-.22.01-.3.17-.88.1-1.79.08-2.68-.02-.75-.04-1.5-.02-2.26-.03-.1.07-.07.13-.06l.32.02z"/><path d="M88.7 105.63c.01.52.03 1.05.01 1.57 0 .9-.08 1.78-.03 2.67.01.26.04.52.1.77 0 .07.1.38 0 .29-.33-.98-.31-2.01-.36-3.03a35.7 35.7 0 00-.16-2.24l.45-.03z"/><path d="M95.29 129.88c.06.14.13.26.18.4.06.17.12.33.16.5.03.13.04.26.06.4.02.19 0 .39-.01.59-.03.18-.07.37-.15.55-.02.04-.06-.02-.09-.03l-.3-.2c.05-.05.07-.14.11-.21a2.46 2.46 0 00.15-1.4c0-.17-.06-.35-.1-.52 0-.02-.04-.07-.02-.08z"/><path d="M104.26 132.2c.02-.13.07-.26.1-.38l.21-.53.14-.29c.05-.05.07.03.05.06-.04.21-.06.42-.07.63v.47c.03.04.02.1-.05.08l-.39-.04z"/><path d="M86.85 128c.18-.12.33-.29.46-.45a1.35 1.35 0 00.05-1.43c-.03-.1-.19-.21-.13-.29a1.63 1.63 0 01.52.88c.06.28.02.58-.07.85-.13.3-.3.58-.55.8l-.28-.37z"/><path d="M81.49 123.85c.2-.12.3-.34.4-.54.09-.19.12-.39.14-.59.03-.35-.04-.71-.14-1.05.08-.1.1.12.15.17a2.4 2.4 0 01.18 1.5c-.08.3-.24.6-.46.83-.1-.1-.19-.21-.27-.32z"/><path d="M76.99 117.96c.34-.25.45-.68.53-1.08.05-.3.05-.6.05-.9.13.1.08.32.13.46.07.47.05.97-.13 1.42-.09.14-.17.44-.35.43-.09-.1-.15-.23-.23-.33z"/><path d="M74.98 108.7c-.07.18-.15.35-.2.53a2.95 2.95 0 00-.11 1.52c-.05.03-.11.03-.17.05l-.27.06c-.02-.16-.01-.32 0-.48a3.25 3.25 0 01.66-1.6c.02-.04.04-.1.1-.08z"/><path d="M71.81 103.36c.13-.05.25-.1.36-.18.21-.1.37-.3.5-.5s.24-.42.27-.66c.01-.05.02-.27.08-.14.04.42-.05.86-.28 1.23-.12.2-.3.37-.49.51-.07.02-.17.17-.22.1l-.22-.36z"/><path d="M72.71 76.33c.09.46.16.93.22 1.39l.13.9c-.1.01-.08-.2-.14-.27-.2-.64-.4-1.28-.64-1.9l.43-.12z"/><path d="M70.74 88.35c.28 0 .56 0 .82-.13.46-.2.85-.54 1.16-.93.1-.09.04.09 0 .13-.23.37-.5.71-.86.95-.24.17-.5.3-.78.37-.09 0-.27.1-.3 0l-.04-.4z"/><path d="M70.76 96.14c.07-.1.17-.19.25-.28.29-.28.61-.51.96-.7.15-.08.3-.15.45-.2.07-.07.12.04.02.05-.5.3-.91.75-1.23 1.23-.04.07-.1.2-.18.09l-.27-.19z"/><path d="M112.67 128.35a2.24 2.24 0 01-.57-.86c-.11-.35-.1-.76.06-1.1.07-.14.16-.27.25-.4.06-.02.16-.23.18-.12-.1.17-.2.33-.25.52-.06.16-.1.32-.07.5 0 .26.11.5.27.72.08.12.2.21.3.31.21.1-.07.25-.12.37l-.05.06z"/><path d="M118.03 124.2c-.2-.2-.34-.43-.43-.7-.08-.24-.09-.52-.07-.78.01-.27.1-.54.2-.8.03-.08.07-.22.14-.25.03.12-.06.26-.07.38-.08.39-.09.8.04 1.18.05.17.16.33.27.48.02.1.25.15.13.24l-.21.25z"/><path d="M122.55 118.33c-.14-.1-.22-.26-.3-.4a2.25 2.25 0 01-.19-.8c-.02-.19 0-.37.02-.55.02-.2.04-.39.09-.58.1-.06.04.15.05.21 0 .21.01.42.04.62.07.37.16.76.43 1.03.07.05.16.1.06.18l-.2.29z"/><path d="M124.85 108.68a3.27 3.27 0 01.72 1.93c0 .08.04.28-.1.2-.1-.03-.28-.03-.34-.1.1-.48.05-1-.1-1.46a3.7 3.7 0 00-.2-.53c-.03-.05-.02-.05.02-.04z"/><path d="M127.76 103.75c-.16-.1-.32-.2-.45-.34a1.95 1.95 0 01-.53-1.4c0-.06.01-.24.07-.14.03.2.07.42.16.6.05.11.13.2.19.3.12.17.28.32.46.43.11.05.2.11.32.15 0 .12-.15.25-.21.38l-.01.02z"/><path d="M127.5 76.47c-.26.72-.5 1.45-.72 2.2-.1-.05 0-.2-.01-.3.08-.66.19-1.32.3-1.98 0-.07.09 0 .13 0l.3.08z"/><path d="M129.03 88.8a2.36 2.36 0 01-.56-.13c-.25-.1-.48-.25-.7-.42-.3-.26-.55-.6-.74-.96.1-.03.16.18.25.23.25.27.54.5.86.66.2.1.42.17.65.18.08.02.25-.04.28.03l-.04.4z"/><path d="M128.66 96.4a4.3 4.3 0 00-1.4-1.43c.05-.09.17.04.25.05.26.11.51.23.73.4.27.21.53.44.75.7-.03.1-.2.15-.28.23l-.05.04z"/><path d="M84.64 64.16l-.15-.03c-.16-.01-.33.02-.48.04-.04 0-.1.03-.13.02l.02-.45.24.08c.11.06.23.1.33.16l.19.13c.02.02-.02.04-.02.05z"/><path d="M89.77 62.17c-.06-.01-.11-.04-.17-.04a3.52 3.52 0 00-.7-.05c-.03-.01-.1.03-.11 0l.05-.44c.08.01.15.06.23.08.18.08.36.18.53.28l.18.12-.01.05z"/><path d="M94.36 60.47c.08.04.17.08.25.14.15.1.31.2.42.36a.4.4 0 01.08.22c0 .05-.07.01-.06-.03a.4.4 0 00-.17-.14c-.07-.02-.13-.05-.2-.06a2.4 2.4 0 00-.36-.07c-.04 0-.07 0-.05-.05l.09-.37z"/><path d="M80.65 65.39c.94.6 1.8 1.38 2.3 2.39.02.1.16.28.1.33-.12-.14-.18-.33-.3-.47a5.88 5.88 0 00-2.3-1.82c0-.14.14-.27.2-.41z"/><path d="M115.03 64.12c.06-.06.13-.1.2-.14.14-.09.3-.15.45-.2.04-.02.08-.04.12-.04l.02.44-.45-.06c-.1 0-.2 0-.3.02-.01.02-.02-.02-.04-.02z"/><path d="M109.9 62.27c.15-.11.3-.2.47-.28l.44-.2c.05 0 .03.08.04.12l.04.33c-.08 0-.17-.02-.26-.01-.18 0-.36.01-.54.05-.06 0-.12.04-.18.03v-.04z"/><path d="M105.4 60.72c-.15.08-.3.17-.42.28-.06.05-.12.1-.15.17-.02.02.02.07 0 .07h-.43c.01-.08.04-.14.07-.2a.4.4 0 01.15-.15c.1-.08.24-.1.37-.15.13-.04.27-.04.41-.07v.05z"/><path d="M119.25 65.78c-.4.18-.78.42-1.14.67-.5.39-.98.83-1.32 1.37-.04.07-.2.4-.17.18.1-.22.19-.45.33-.65a6.89 6.89 0 012.08-2l.22.43z"/><path fill="#1d1d1b" d="M99.63 60.93h.45l-.2 1.72c-.02 0-.05.01-.05-.02l-.2-1.7z"/><path d="M106.52 85.19c.04-.11.07-.23.13-.33.08-.2.21-.36.35-.5.15-.16.33-.28.5-.4.27-.18.57-.34.78-.6.07-.03.07-.2.14-.14l.36.19c-.07.1-.13.2-.22.26-.11.1-.23.2-.37.26l-.51.24c-.22.1-.44.22-.63.38a1.85 1.85 0 00-.47.62c-.02.07-.02.05-.06.02z"/><path d="M117.55 81.59a3.13 3.13 0 00-1.28-.55c-.04-.02-.12-.02-.14-.05l.15-.42.35.2.35.23a5.01 5.01 0 01.62.55l-.05.04z"/><path d="M93.23 85.2c-.06-.11-.1-.23-.19-.33-.05-.08-.12-.15-.18-.22-.1-.1-.22-.21-.35-.29-.22-.14-.47-.23-.7-.35a2.8 2.8 0 01-.47-.27 1.2 1.2 0 01-.28-.3c-.07-.05-.03-.07.03-.1l.32-.17c.04.1.1.18.17.25.18.2.41.32.62.46.22.14.43.3.61.47.13.12.2.27.3.41.06.11.1.22.14.34.03.06.03.06-.02.1z"/><path d="M82.2 81.56c.09-.12.2-.22.32-.32.18-.16.38-.29.58-.42l.35-.2c.04-.02.08-.06.08 0l.15.4c-.12.02-.25.05-.37.09a3.2 3.2 0 00-1.06.49l-.04-.04z"/><path fill="#1d1d1b" d="M99.67 107.54l.45.01-.25 8.42c-.1-.01-.03-.2-.05-.27l-.15-8.16z"/></g></g></svg>