<svg xmlns="http://www.w3.org/2000/svg" fill="#d7374a" stroke="#000" viewBox="50 50 200 200">
<metadata source="http://wappenwiki.org/images/d/d2/Toggenburger.svg" license="https://creativecommons.org/licenses/by-nc-sa/3.0"/>
  <g id="mastiffStatant" stroke-width="3" transform="translate(49 68) scale(0.13)">
		<path d="M256.5 505.7c.1.1-11.4 6.4-12.7 17.7-.2 1.7-.3 5.4.6 5.5.6.1 1-1.8 4.4-4.1 5.1-2.5 12.1-3.1 16.9-7"/>
		<path d="M290.5 537.4c-4.7 4-11.6 4.8-16.6 7.6-3.2 2.4-3.6 4.3-4.2 4.3-.9-.1-.9-3.8-.8-5.5.8-11.3 12.1-18 12-18.1"/>
		<path d="M324.2 496.9c1.2 2.5 3.1 1.4 5.8 4.5 1.5 1.9 2.9 4.9 3.3 5.1.6.2 1.5-1.8 1.8-2.9 1.7-6.5-.4-12.5-.3-12.5-5.2-5.5-11.3-11.3-17.5-15.7"/>
		<path d="M576.1 505.7c.1.1-11.4 6.4-12.7 17.7-.2 1.7-.3 5.4.6 5.5.6.1 1-1.8 4.4-4.1 5.1-2.5 12.1-3.1 16.9-7"/>
		<path d="M610.1 537.4c-4.7 4-11.6 4.8-16.6 7.6-3.2 2.4-3.6 4.3-4.2 4.3-.9-.1-.9-3.8-.8-5.5.8-11.3 12.1-18 12-18.1"/>
		<path d="M598.1 527c-4.7 4-11.6 4.8-16.6 7.6-3.2 2.4-3.6 4.3-4.2 4.3-.9-.1-.9-3.8-.8-5.5.8-11.3 12.1-18 12-18.1"/>
		<path d="M643.8 496.9c1.2 2.5 3.1 1.4 5.8 4.5 1.5 1.9 2.9 4.9 3.3 5.1.6.2 1.5-1.8 1.8-2.9 1.7-6.5-.4-12.5-.3-12.5-3.6-5.1-8.3-9.6-13.7-12.7"/>
		<path d="M277.4 528c-4.7 4-11.6 4.8-16.6 7.6-3.2 2.4-3.6 4.3-4.2 4.3-.9-.1-.9-3.8-.8-5.5.8-11.3 12.1-18 12-18.1"/>
		<path d="M409.6 471.6c.1.1-11.4 6.4-12.7 17.7-.2 1.7-.3 5.4.6 5.5.6.1 1-1.8 4.4-4.1 5.1-2.5 12.1-3.1 16.9-7"/>
		<path d="M443.6 503.3c-4.7 4-11.6 4.8-16.6 7.6-3.2 2.4-3.6 4.3-4.2 4.3-.9-.1-.9-3.8-.8-5.5.8-11.3 12.1-18 12-18.1"/>
		<path d="M431.6 492.8c-4.7 4-11.6 4.8-16.6 7.6-3.2 2.4-3.6 4.3-4.2 4.3-.9-.1-.9-3.8-.8-5.5.8-11.3 12.1-18 12-18.1"/>
		<path d="M481.1 472.2c.6 2.7 2.7 2.1 4.6 5.8 1.1 2.2 1.6 5.5 2 5.7.5.3 1.9-1.4 2.5-2.4 3.2-5.9 2.5-12.2 2.6-12.2.6-6.8-.8-14.1-3.5-20.3"/>
		<path d="M147.1 469.3c.1.1-12 5.1-14.4 16.3-.4 1.7-.8 5.3 0 5.5.6.1 1.2-1.7 4.8-3.6 5.3-2 12.3-1.8 17.5-5.2"/>
		<path d="M177.7 504.3c-5.1 3.5-12.1 3.6-17.3 5.8-3.5 2-4 3.9-4.6 3.8-.8-.2-.5-3.8-.2-5.5 2-11.2 13.9-16.6 13.8-16.8"/>
		<path d="M166.8 492.7c-5.1 3.5-12.1 3.6-17.3 5.8-3.5 2-4 3.9-4.6 3.8-.8-.2-.5-3.8-.2-5.5 2-11.2 13.9-16.6 13.8-16.8"/>
		<path d="M215.4 467.5c1 2.6 3 1.7 5.3 5.1 1.3 2 2.3 5.2 2.7 5.4.5.2 1.7-1.6 2.1-2.7 2.4-6.3.9-12.4 1-12.5-4.6-3.5-9.4-7.3-14.2-10.5"/>
		<path d="M193 285c-7.7 15.5-3.6 32.8-2.3 48.4.9 11.3 7.1 33.4 7.3 44.7 0 3.1-.3 6.3-.6 9.4-.4 3.4-.7 5.6-1 9-.4 3.7.8 7.2 1.5 10.8.7 4 0 6.9-.6 10.9-1.4 9.4-5 18.9-4.6 28.3-.6 2.9-5.5 7.8-7.5 10-2.2 2.5-6.9 6.4-9.3 7-9.9 4.3-14.3-3.4-20.9-.8-3.4.9-2.9.6-4.7.8-1.9.2-2.4-.2-4.6 1.5-3.1 3.1-1.8 6-1.8 6s2.4-1.6 7.1 3.6c3.4 3.9 3.2 8 3.2 8s2-1.1 5.7 2c4.7 4.2 4.2 9.6 4.2 9.6s2.9-2.6 8.4 2.2c2.6 2.9 4.5 5.8 3.7 8.3 1.6 1.5 8.9-.7 16.7-2.8 7.8-2.1 11.4-8 15.6-11.8 4.3-3.8 7.4-17 6.8-22.6.3-3 1.5-4.4 5.1-5 1.6-.3 4.4 0 6 .3.2.4 1.4-1.2 1.5-5.2 1-10-4.9-24.8-1.5-34 5.2-14.2 7.4-28.1 9.1-43.2.7-6.4 4-12.6 6.6-18.5 3.3-7.5 14.5-31.5 9.4-44"/>
		<path d="M533.6 290c.2 7.1-2.8 24.6-6.7 30.6-4.1 6.2-4.4 8.9-6.8 15.6-3.2 8.7-12.2 23.9-11.1 31.8 2.1 15.1 9.2 11.5 13.5 13.6 5.3 2.7 6.8.3 12 7.1 2.8 3.6 3 6.9 2.1 11.5-.6 3.2-2.8 8.1-7.7 11-6.2 3.6-16 32.4-20.8 37.4-1.9 2-3.9 4-5.8 6.1-2.4 2.5-3.4 4.4-4.8 7.6-1.5 3.4-4.6 6.8-4.6 6.8-1.6-.5-3.2-1.2-4.9-1.1-3.7.2-6.1 1.4-6.8 4.3-5.8 4.5-4.5 9.5-8.3 14.9-3.1 4.5-6.8 9.3-14.3 12.2-7.5 2.9-14.6 5.9-16.4 4.5.5-2.5-1.7-5.3-4.6-7.9-6-4.2-8.6-1.3-8.6-1.3s0-5.4-5.2-9.1c-4-2.7-5.9-1.4-5.9-1.4s-.2-4-4-7.6c-5.2-4.7-7.5-2.8-7.5-2.8s-1.6-2.8 1.2-6.2c2-1.9 2.5-1.6 4.4-2 1.8-.4 1.3 0 4.6-1.3 6.4-3.3 13.7 4 23.1-1.3 2.3-.9 11.6-5.5 14.2-7.9 6.5-5 11.5-4 15-11.5 7.2-15.2 23-26.9 22.2-37.4-1-12.8-17.9-18.8-26.2-32.8-7-11.9-9.6-18.2-18-29-1.1-1.4-4-13.1-4.9-14.6-5.8-9.1-4.7-23.2 2.2-44.1 1.9-5.7 5.9-10.4 8.8-15.6 2.4-4.4 3.1-9.3 5.3-13.6 5.3-10 18.5-15.5 27.9-21.2 21-12.9 46.2 7.9 70.8 10.1"/>
		<path d="M494.7 268.7c-24.3 2.6-45.1 18.6-45.1 18.6s-4.7 4.3-7.2 1.6c-1-1-2.2-2.8-1.5-5.3 2.7-9.2 22.1-22.8 22.1-22.8"/>
		<path d="M207.7-7c1.3-6.6 5.1-11.5 9-16.6 5.5-7.1 9.6-15.3 12-24 1-3.8 2.1-8.1 5.7-9.8 11.4 19.8 14.9 43.6 12.6 66.6"/>
		<path d="M218.2 85.7s-23.1-15-43.7-14.9c-21.5.1-34.4 9.9-46.2 9.9-20.1.3-19.6-9.2-21.2-9.2-1.6.4-2.1 4.2.4 8.9 2.4 4.4 8.4 9.7 21.7 9.3 18.9-.1 27.9-8.6 45.9-8.7 24.2-.1 41.5 12.6 41.5 12.6"/>
		<g fill="#f6f6f6" stroke-width="2.5">
			<path d="M139.5 80.1c-.9-.1-3.9 8.3-3.1 14.3.2-.1.3-.2.5-.3 2.1-1.4 4-1.9 5.8-2.1-1.6-4.3-2.5-11.8-3.2-11.9z"/>
			<path d="M138.7 71.3c1-.8-1.6-4.4-3-12-.3-1.3-.3-2.6-.2-3.8-2.4-.1-4.7.2-7.3-.4-.4-.1-2.1-.2-2.6-.4 1.7 5.4 6.5 15.5 13.1 16.6z"/>
		</g>
		<path d="M330.1 149.9c-4.5-31.5-13.9-61.5-30.4-88.4a27.3 27.3 0 01-4.2-14.7 81.6 81.6 0 00-10.9-41.6c-3-6.9-9-18.5-19.8-22.9-9-3.9-13.8-6.3-31.9-5.1-7.6.5-13-1.2-19.7-.2-14.4.4-17.7 5.2-24.3 6.9-11.1 4.1-17.1 3.6-15.9 8.7 0 2.4 1.1 4 2.4 5.7-8.7-1.5-9.9-1-22.7 4.8-13.3 4.1-11.7.7-26.2 4.9-3.7.3-11.5-.1-12.5 3.5-3.3 9.3 3.1 12.9 3.1 15.6 0 0-.9 5.5.2 13.8.7 4.7 2.2 11.7 4.7 13 1.8 1.2 3.5 1.8 5.1 2.1 4.5.9 8.3 1.4 12.9 3.8s11.2 2.6 16 1c2.4-.8 4.8-2.3 6.9-3.8 1.5-1.1 3.3-3.1 5.2-3.5 2.2-.4 5.6 1.3 7.8 1.4 15.9 1.3 19.2-3 28.7 7.9 2 3.2 1.7 6.9 7.7 13 5.2 5.6 2.9 8.6 2.3 12.1-.6 3.5-3.8 6.4-11.4 4.7-7.6-1.7-13.2 3.8-21.5 4.5-6.2.5-15.2-5.3-20.9-3.7-12.9 3.5-14.9-3.1-22.7-1-2.5 1-7.1-.1-6.6 1.6-.8.5-.8 4.1 1.7 5.6 3.9 2.9 6.6 4.7 11.3 3.9 5.5-.9 3.3-.3 12.3-.2 15.1 1.1 11.7 4 23.5 4.4 14.6.2 22.2-5.2 36.4-3.5l-.4.2c-7.9 17-18.9 28.5-18.6 47.2.1 8.1-5.1 13.5-12.3 20.4-14.5 14.5-16.9 35.7-9.8 57.2-2 8.9-.1 31.7 7.4 42.2 0 0 4.1 20.8 27.5 29.5 9.5 24.8 35.2 27 35.2 27s5.9 3.3 16.9 27.6c-2.6 25.7 15.9 32.3 22.3 68.3.2 4.6 1.5 8.6 3.4 12.8 1.9 4 3.2 8.2 4.6 12.4.9 2.8 1.8 5.5 2.7 8.3 2.4 7.4 0 15.5-.8 23.2-.3 3-.4 6.1-2.2 8.6-1.9 2.7-6.2 7-8.5 7.9-9.3 5.3-14.5-1.9-20.9 1.3-3.3 1.3-2.8.9-4.6 1.3-1.9.4-2.4.1-4.4 2-2.8 3.4-1.2 6.2-1.2 6.2s2.3-1.8 7.5 2.8c3.8 3.6 4 7.6 4 7.6s1.9-1.3 5.9 1.4c5.1 3.7 5.2 9.1 5.2 9.1s2.6-2.9 8.6 1.3c2.9 2.6 5.1 5.4 4.6 7.9 1.7 1.4 8.8-1.6 16.4-4.5 7.5-2.9 10.5-9.1 14.3-13.3 3.9-4.2 5.6-17.7 4.5-23.2 0-3 1-4.5 4.5-5.5 1.6-.5 4.4-.4 6-.3-.9-6.6.4-12.8-1.2-19.3-1.7-6.9-4.8-14-7-20.7-2.8-8.3-3.7-18.5-3.9-27.2 0-15.1-3.9-40.4-2-52.8 2-13.4-2-9.2 0-21.4s.3-11 .3-21.8c22.8 0 33.2-19.1 67.5-32.3 41.6-12.9 44.7-27.5 87.8-27.5 14.3-.6 24 11.5 31.3 22.2 10.1 14.7 21.7 36.7 36.1 48.1 9.7 7.7 22.3 21.3 38.5 29.8 13.2 6.9 32.2 6.9 43 19.6 3.6 7.2 1.6 20.8 1.6 23.1 0 10.2.5 11.1.7 21.3.2 12 5.6 31-4.2 40.2-4.8 3.8-10.1 14.4-11.8 16.9-1.9 2.7-6.2 6-8.5 6.9-9.3 5.3-13.5-.9-19.8 2.4-3.3 1.3-2.8.9-4.6 1.3-1.9.4-2.4.1-4.4 2-2.8 3.4-1.2 6.2-1.2 6.2s2.3-1.8 7.5 2.8c3.8 3.6 4 7.6 4 7.6s1.9-1.3 5.9 1.4c5.1 3.7 5.2 9.1 5.2 9.1s2.6-2.9 8.6 1.3c2.9 2.6 5.1 5.4 4.6 7.9 1.7 1.4 8.8-1.6 16.4-4.5 7.5-2.9 9.4-8 13.3-12.2 3.9-4.2 3.1-17.8 5.5-24.3.7-2.5 2.1-4.5 5.6-5.5 1.6-.5 3.3-.4 5-.3 4.5-6.7 1-23.1 2.8-30 3.9-29.7 12.5-49.3 14.2-57.2 1.4-6.4 2.6-10.9 1.2-17.7-.6-2.8-1.7-4.7-1.1-7.7.9-3.9 4.1-6.7 5.5-10.3 1.2-3 .9-6.5.2-9.6-1-4.2-3.1-8.5-7.2-10-3-1-6.2-.2-9.3 0-6.5.5-16.2-3.5-20.4-7.8-8.6-10.9-11.8-21.6-15.2-34.3-4-15.3-4.8-17.1-7.2-32.4-2-12.6-4.1-17.9-8.2-29.9-4.2-12.1-11.6-32.2-21.1-40.8 44.7-7.2 65.9-26.8 79.3-50.5 9.7-17.1 14-37.3 12.1-56.9C674 32.8 624.9.6 579.9.6c-40 0-73 24.8-73 55.6 0 36.3 28.8 50.9 47.6 50.9 15.9 0 35.6-12.7 35.6-29.7s-13.4-20.2-13.4-20.2 11.4 33.7-22.2 33.7c-14.4 0-29-14.2-29-34.6 0-22.7 23.7-35.5 54.6-35.5 41.6 0 75 35.6 75 78.8 0 13-2.9 26.5-8.6 36.6-14.2 25.2-48.7 42.4-78.4 30.1-25.1-10.8-55.2-18.3-81.6-18.3-65.8-15.2-123.7-8.8-156.4 1.9z"/>
		<path d="M246-13.5c2.8-6.1 7.6-10 12.7-14.1 7-5.6 12.9-12.7 17.2-20.6 1.9-3.4 4-7.4 7.8-8.2 6.5 21.9 4.4 45.9-3.1 67.7"/>
		<g fill="none">
			<path d="M164 494.3c.3-.6.3-2.5 2.6-4.9 1.7-1.8 4.3-2.8 6.6-1.9"/>
			<path d="M154.1 482.7c.3-.6 0-3.1 2.6-5.2 1.9-1.6 4.7-2.2 6.8-1"/>
			<path d="M428.9 494.7c.2-.6 0-2.5 2.1-5.2 1.5-2 4-3.2 6.4-2.6"/>
			<path d="M417.9 484.2c.3-.6-.3-3.1 2.1-5.5 1.7-1.7 4.4-2.6 6.7-1.7"/>
			<path d="M264.8 518.3c.3-.6-.3-3.1 2.1-5.5 1.7-1.7 4.4-2.6 6.7-1.7"/>
			<path d="M595.5 528.8c.2-.6 0-2.5 2.1-5.2 1.5-2 4-3.2 6.4-2.6"/>
			<path d="M584.4 518.3c.3-.6-.3-3.1 2.1-5.5 1.7-1.7 4.4-2.6 6.7-1.7"/>
			<path d="M275.8 528.8c.2-.6 0-2.5 2.1-5.2 1.5-2 4-3.2 6.4-2.6"/>
		</g>
		<path fill="#f6f6f6" d="M205.6 8.8s-5.5 1.4-9.3 3.1c-3.8 1.7-12.8.4-14.2-2.1-.7-1.7.2-8 3.1-8.8 3.6-1.6 10.7-1.2 13.8 1.7 4 3.8 6.5 6 6.6 6.1z"/>
		<g fill="#000" stroke="none">
			<path d="m218 370c4 0 16-8 9 0-3 2-7 2-9 0z"/>
			<path d="m225 357c2-3 14-9 8-2-2 2-5 3-8 2z"/>
			<path d="m505 310c2 11-3 22-10 30 3-10 8-20 10-30z"/>
			<path d="m173.8 486c.7.3 1.7.7 2.5 1.2s1.6 1.1 2.3 1.7c.7.7 1.3 1.4 1.8 2.2s.8 1.7 1 2.6c-.8-.6-1.4-1.2-2-1.7s-1.3-1-2-1.4-1.4-.7-2.2-1-1.5-.5-2.4-.8l1-2.8z"/>
			<path d="m201 454c1 5-2 10-7 10 3-3 5-6 7-10z"/>
			<path d="m150.1 462.1c1.3.1 2.5.3 3.7.8s2.3 1.1 3.2 1.8c1 .8 1.8 1.7 2.4 2.7s1.1 2.2 1 3.4c-.7-1-1.4-1.8-2.1-2.5-.8-.7-1.6-1.3-2.5-1.8s-1.9-.8-2.8-1.1c-1-.2-2-.3-2.9-.3v-3z"/>
			<path d="m164.3 475.1c.6.4 1.4.8 2.1 1.3s1.4 1 2.1 1.6 1.2 1.3 1.7 2.1.8 1.7.8 2.6c-.7-.6-1.2-1.2-1.8-1.7s-1.2-.9-1.9-1.3-1.4-.7-2.1-1-1.5-.6-2.3-1l1.4-2.6z"/>
			<path d="m175.8 502.4c-1.3.5-2.4.7-3.6.9-1.1.2-2.3.3-3.4.6-2.2.5-4.4 1.1-6.2 2.5 1.6-1.7 3.8-2.7 5.9-3.5 1.1-.4 2.2-.7 3.3-1.1 1.1-.3 2.2-.7 3-1.1l1 1.7z"/>
			<path d="m164.2 490.5c-1.3.5-2.4.7-3.6.9-1.1.2-2.3.3-3.4.6-2.2.5-4.4 1.1-6.2 2.5 1.6-1.7 3.8-2.7 5.9-3.5 1.1-.4 2.2-.7 3.3-1.1 1.1-.3 2.2-.7 3-1.1l1 1.7z"/>
			<path d="m153.4 479.7c-1.3.5-2.4.7-3.6.9-1.1.2-2.3.3-3.4.6-2.2.5-4.4 1.1-6.2 2.5 1.6-1.7 3.8-2.7 5.9-3.5 1.1-.4 2.2-.7 3.3-1.1 1.1-.3 2.2-.7 3-1.1l1 1.7z"/>
			<path d="m172.7 486 3.8-1c1.3-.4 2.6-.6 3.7-1.1 1.1-.4 2.2-1.2 3.3-2 1.1-.7 2-1.7 2.9-2.6-.7 1.1-1.5 2.2-2.4 3.2s-1.9 2-3.1 2.7c-1.2.8-2.4 1.2-3.6 1.9l-3.6 1.7-1-2.8z"/>
			<path d="m163.3 475 3.9-.6c1.3-.2 2.6-.3 3.8-.6s2.4-.8 3.5-1.4c1.2-.6 2.2-1.4 3.2-2.2-.8 1-1.7 2-2.8 2.8-1 .8-2.2 1.6-3.5 2.2s-2.6.9-3.8 1.4l-3.8 1.3-.5-2.9z"/>
			<path d="m437.8 485.5c.8.2 1.7.5 2.6.9s1.7.9 2.5 1.5 1.4 1.3 2 2 1 1.6 1.2 2.5c-.8-.5-1.5-1-2.2-1.5s-1.4-.9-2.1-1.2-1.5-.6-2.3-.8-1.5-.3-2.5-.5l.8-2.9z"/>
			<path d="m471 452c0 8-15 14-5 5 2-1 3-3 5-5z"/>
			<path d="m411.8 464.1c1.3-.1 2.5 0 3.8.4 1.2.3 2.4.8 3.4 1.5s2 1.5 2.7 2.4 1.3 2.1 1.4 3.3c-.8-.9-1.5-1.6-2.4-2.3-.8-.7-1.7-1.2-2.7-1.6s-1.9-.7-2.9-.8-2-.1-3 0l-.3-2.9z"/>
			<path d="m427.3 475.6 2.2 1.1c.8.4 1.5.9 2.2 1.4s1.4 1.2 1.9 1.9.9 1.6 1 2.5c-.7-.5-1.4-1-2-1.5-.6-.4-1.3-.8-2-1.1s-1.4-.6-2.2-.8-1.5-.4-2.4-.8l1.3-2.7z"/>
			<path d="m441.6 501.6c-1.2.7-2.4.9-3.5 1.2l-3.3.9c-2.1.7-4.3 1.6-5.9 3.2 1.4-1.8 3.5-3.1 5.5-4.1 1-.5 2.1-1 3.2-1.4 1-.4 2.1-.9 2.8-1.4l1.2 1.6z"/>
			<path d="m428.7 490.9c-1.2.7-2.4.9-3.5 1.2l-3.3.9c-2.1.7-4.3 1.6-5.9 3.2 1.4-1.8 3.5-3.1 5.5-4.1 1-.5 2.1-1 3.2-1.4 1-.4 2.1-.9 2.8-1.4l1.2 1.6z"/>
			<path d="m416.9 481.3c-1.2.7-2.4.9-3.5 1.2l-3.3.9c-2.1.7-4.3 1.6-5.9 3.2 1.4-1.8 3.5-3.1 5.5-4.1 1-.5 2.1-1 3.2-1.4 1-.4 2.1-.9 2.8-1.4l1.2 1.6z"/>
			<path d="m436.8 485.6 7.8-3c1.2-.5 2.5-1.2 3.5-2 1.1-.8 1.9-1.9 2.8-3-.6 1.2-1.3 2.5-2.2 3.6-1 1.1-2.1 2-3.3 2.8s-2.4 1.5-3.6 2.2l-3.6 2.2-1.4-2.8z"/>
			<path d="m426.2 475.6 4.3-.9c1.4-.3 2.9-.6 4.3-1s2.8-.8 4-1.5c1.3-.7 2.3-1.7 3.4-2.8-.8 1.2-1.7 2.4-2.9 3.4s-2.6 1.7-3.9 2.3c-1.4.7-2.8 1.1-4.1 1.7l-4.2 1.7-.9-2.9z"/>
			<path d="m222 403c3 5-2 18-2 19-3-7 3-13 2-19z"/>
			<path d="m516 395c0 7 9 20 0 8-1-3-1-6 0-8z"/>
			<path d="m306 426c5 6 8 23 5 24 0-8-4-16-5-24z"/>
			<path d="m244.6 328.9c-2.4-3.2-4.3-6.8-5.5-10.6-.6-1.9-1.2-3.7-1.7-5.6l-.7-2.8c-.2-.9-.5-1.9-.6-2.9a39 39 0 01-.4-5.9c0-2 .1-3.9.3-5.8.3-3.9 1.2-7.6 1.8-11.5.1 1.9-.1 3.9-.2 5.8l-.3 5.8c-.1 1.9-.1 3.8 0 5.7s.3 3.8.7 5.6c.1.5.2.9.3 1.3s.2.9.4 1.3l.9 2.7c.6 1.8 1.2 3.6 1.9 5.4 1.4 3.5 3.2 6.7 5.5 9.6l-2.4 1.9z"/>
			<path d="m319.3 327.7c.2-2.2.4-4.4.9-6.6s1.2-4.5 2.7-6.5c.7-1 1.5-1.8 2.2-2.5.7-.8 1.3-1.6 1.8-2.4 1.1-1.7 1.8-3.7 2.4-5.8.3-.7-.1-1.6-.6-2.5s-1.2-1.7-1.9-2.5c-1.4-1.6-2.9-3.3-4.2-5-1.3-1.8-2.5-3.6-3.4-5.7-.8-2-1.2-4.3-1-6.4 0 2.2.6 4.3 1.5 6.2s2.2 3.7 3.6 5.3 2.9 3.2 4.4 4.8c.7.8 1.5 1.6 2.1 2.6.3.5.6 1 .8 1.6s.3 1.4.1 2a27 27 0 01-2.2 6.4c-.5 1-1.2 2-1.9 2.9s-1.4 1.7-1.9 2.5c-1.1 1.6-1.6 3.6-1.9 5.6s-.5 4.2-.6 6.3l-2.9-.3z"/>
			<path d="m307 335c3 16-8 31-5 46-7-16 4-30 5-46z"/>
			<path d="m277 324c6 2 19 4 6 5-3-1-6-3-6-5z"/>
			<path d="m288 319c10-3 18 4 3 2l-1-1z"/>
			<path d="m296 312c4-1 7-4 11-3-2 2-8 7-11 3z"/>
			<path d="m293 301c11-6 12 2 0 1z"/>
			<path d="m226 227c-10 14 3 44 3 47-9-14-14-33-3-47z"/>
			<path d="m310.1 219.8c2 .8 3.8 2 5.3 3.7 1.5 1.6 2.6 3.5 3.5 5.5s1.5 4.1 2.1 6.1c.2.5.3 1 .5 1.3 0 .1.1.2.1.2.2.2.5.3.7.5.9.7 1.8 1.6 2.4 2.6 1.3 2 2 4.4 2.2 6.6.2 2.3 0 4.5-.4 6.6s-.9 4.2-1.5 6.2c-.3 1-.6 2-.8 3l-.3 1.5c0 .5-.1 1 .2 1.5-.4-.4-.6-.9-.7-1.5-.1-.5-.2-1.1-.2-1.6 0-1.1 0-2.2.1-3.2.2-2.1.5-4.2.6-6.3.3-4.1.3-8.2-1.6-11.3-.5-.8-1-1.5-1.7-2.1-.2-.2-.4-.3-.5-.5l-.2-.1-.2-.2c-.1-.1-.2-.2-.2-.3-.1-.2-.2-.4-.3-.5-.3-.6-.4-1.2-.5-1.7-.5-2.1-.9-4.1-1.5-6.1-.6-1.9-1.5-3.8-2.6-5.5a18.8 18.8 0 00-4.5-4.4z"/>
			<path d="m307 486c5 5-9 15-1 5v-3z"/>
			<path d="m653 365c4 4 5 12 0 6-1-2-1-4 0-6z"/>
			<path d="m521 196c13-6 23 6 0 0z"/>
			<path d="m542 204c11-6 17 6 0 0z"/>
			<path d="m563 212c13 9 3 10 0 0z"/>
			<path d="m258.7 498.3c1.3-.1 2.5 0 3.8.4 1.2.3 2.4.8 3.4 1.5s2 1.5 2.7 2.4 1.3 2.1 1.4 3.3c-.8-.9-1.5-1.6-2.4-2.3-.8-.7-1.7-1.2-2.7-1.6s-1.9-.7-2.9-.8-2-.1-3 0l-.3-2.9z"/>
			<path d="m274.1 509.8 2.2 1.1c.8.4 1.5.9 2.2 1.4s1.4 1.2 1.9 1.9.9 1.6 1 2.5c-.7-.5-1.4-1-2-1.5-.6-.4-1.3-.8-2-1.1s-1.4-.6-2.2-.8-1.5-.4-2.4-.8l1.3-2.7z"/>
			<path d="m288.4 535.7c-1.2.7-2.4.9-3.5 1.2l-3.3.9c-2.1.7-4.3 1.6-5.9 3.2 1.4-1.8 3.5-3.1 5.5-4.1 1-.5 2.1-1 3.2-1.4 1-.4 2.1-.9 2.8-1.4l1.2 1.6z"/>
			<path d="m274.5 526.1c-1.2.7-2.4.9-3.5 1.2l-3.3.9c-2.1.7-4.3 1.6-5.9 3.2 1.4-1.8 3.5-3.1 5.5-4.1 1-.5 2.1-1 3.2-1.4 1-.4 2.1-.9 2.8-1.4l1.2 1.6z"/>
			<path d="m263.8 515.4c-1.2.7-2.4.9-3.5 1.2l-3.3.9c-2.1.7-4.3 1.6-5.9 3.2 1.4-1.8 3.5-3.1 5.5-4.1 1-.5 2.1-1 3.2-1.4 1-.4 2.1-.9 2.8-1.4l1.2 1.6z"/>
			<path d="m604.3 519.6c.8.2 1.7.5 2.6.9s1.7.9 2.5 1.5 1.4 1.3 2 2 1 1.6 1.2 2.5c-.8-.5-1.5-1-2.2-1.5s-1.4-.9-2.1-1.2-1.5-.6-2.3-.8-1.5-.3-2.5-.5l.8-2.9z"/>
			<path d="m631 482c-2 13-17 24 0 0z"/>
			<path d="m578.3 498.3c1.3-.1 2.5 0 3.8.4 1.2.3 2.4.8 3.4 1.5s2 1.5 2.7 2.4 1.3 2.1 1.4 3.3c-.8-.9-1.5-1.6-2.4-2.3-.8-.7-1.7-1.2-2.7-1.6s-1.9-.7-2.9-.8-2-.1-3 0l-.3-2.9z"/>
			<path d="m603.3 519.7 3.7-1.4c1.2-.5 2.5-.9 3.6-1.4 1.1-.6 2.1-1.4 3.1-2.3 1-.8 1.8-1.9 2.6-2.9-.6 1.2-1.2 2.4-2.1 3.4-.8 1-1.7 2.1-2.8 3s-2.3 1.5-3.4 2.2l-3.4 2.1-1.3-2.7z"/>
			<path d="m592.7 509.7 3.8-1c1.3-.3 2.6-.6 3.7-1 1.2-.4 2.3-1 3.4-1.8 1.1-.7 2-1.6 3-2.5-.7 1.1-1.5 2.2-2.5 3.1-.9.9-2 1.9-3.2 2.5-1.2.7-2.4 1.2-3.7 1.8l-3.6 1.7-.9-2.8z"/>
			<path d="m593.8 509.8 2.2 1.1c.8.4 1.5.9 2.2 1.4s1.4 1.2 1.9 1.9.9 1.6 1 2.5c-.7-.5-1.4-1-2-1.5-.6-.4-1.3-.8-2-1.1s-1.4-.6-2.2-.8-1.5-.4-2.4-.8l1.3-2.7z"/>
			<path d="m608.1 535.7c-1.2.7-2.4.9-3.5 1.2l-3.3.9c-2.1.7-4.3 1.6-5.9 3.2 1.4-1.8 3.5-3.1 5.5-4.1 1-.5 2.1-1 3.2-1.4 1-.4 2.1-.9 2.8-1.4l1.2 1.6z"/>
			<path d="m595.2 525c-1.2.7-2.4.9-3.5 1.2l-3.3.9c-2.1.7-4.3 1.6-5.9 3.2 1.4-1.8 3.5-3.1 5.5-4.1 1-.5 2.1-1 3.2-1.4 1-.4 2.1-.9 2.8-1.4l1.2 1.6z"/>
			<path d="m583.5 515.4c-1.2.7-2.4.9-3.5 1.2l-3.3.9c-2.1.7-4.3 1.6-5.9 3.2 1.4-1.8 3.5-3.1 5.5-4.1 1-.5 2.1-1 3.2-1.4 1-.4 2.1-.9 2.8-1.4l1.2 1.6z"/>
			<path d="m588.1 204.9c-4.9-5.4-11.1-9.7-18.1-12.5a49.8 49.8 0 0120.2 10.3l-2.1 2.2z"/>
			<path d="m273.1 509.7 3.8-1c1.3-.3 2.6-.6 3.7-1 1.2-.4 2.3-1 3.4-1.8 1.1-.7 2-1.6 3-2.5-.7 1.1-1.5 2.2-2.5 3.1-.9.9-2 1.9-3.2 2.5-1.2.7-2.4 1.2-3.7 1.8l-3.6 1.7-.9-2.8z"/>
			<path d="m283.7 519.7 3.7-1.4c1.2-.5 2.5-.9 3.6-1.4 1.1-.6 2.1-1.4 3.1-2.3 1-.8 1.8-1.9 2.6-2.9-.6 1.2-1.2 2.4-2.1 3.4-.8 1-1.7 2.1-2.8 3s-2.3 1.5-3.4 2.2l-3.4 2.1-1.3-2.7z"/>
			<path d="m284.7 519.6c.8.2 1.7.5 2.6.9s1.7.9 2.5 1.5 1.4 1.3 2 2 1 1.6 1.2 2.5c-.8-.5-1.5-1-2.2-1.5s-1.4-.9-2.1-1.2-1.5-.6-2.3-.8-1.5-.3-2.5-.5l.8-2.9z"/>
			<path d="m283-27.1c2 9.5 0 20.03-5 28.34-2 2.87-7 7.42-8 7.39 8-9.91 11-23.23 13-35.73z"/>
			<path d="m127.1 14.4c.4.1.8.4 1 .7.2.4.3.8.3 1.3s-.1.9-.3 1.3-.6.8-.9 1.1c-1.4 1.2-3.2 1.4-3.7 2.2-.8.9-1.4 2.3-2.1 3.7-.4.7-.7 1.4-1.3 2.2a4.26 4.26 0 01-3.1 1.7v-3c.1 0 .2 0 .3-.1s.3-.2.5-.4c.4-.4.8-1 1.2-1.6.8-1.2 1.5-2.7 2.9-3.9.4-.3.8-.6 1.2-.8.3-.1.4-.2.6-.2l.6-.2c.7-.2 1.4-.4 1.9-.7.3-.2.5-.3.7-.5s.3-.5.5-.8c.3-.7.4-1.5-.3-2z"/>
			<path d="m205.6 281.5c.2 1.7.6 3.3 1.1 4.9a121.2 121.2 0 005.4 14.1l-2.8 1a178 178 0 01-2.4-9.9l-.9-5c-.3-1.7-.4-3.4-.4-5.1z"/>
			<path d="m203 180c-4 7-11 28-12 26 0-10 4-20 12-26z"/>
			<path d="m277.5-40.9c.2 2.6-.6 5.4-2 7.7-.7 1.2-1.5 2.2-2.3 3.3l-.9 1.2-.4.4c-.5.5-1 1-1.5 1.4-2 1.7-3.9 3.4-5.8 5.1s-3.7 3.5-5.4 5.3c-1.7 1.9-3.2 3.8-4.3 6-.5 1.1-.9 2.1-1 3.2-.2 1.2-.3 2.4-.3 3.6-.1 2.4.3 4.7 1.5 6.9 1.1 2.1 2.9 4 4.8 5.8-2.4-1-4.8-2.4-6.5-4.7-.8-1.1-1.5-2.4-2-3.7-.4-1.4-.6-2.8-.7-4.1-.1-1.4.1-2.8.2-4.1.2-1.4.7-2.9 1.3-4.1 1.3-2.5 3-4.6 4.8-6.6 3.6-3.9 7.8-7.1 11.7-10.4.5-.4 1-.8 1.4-1.2l1.3-1.3c.9-.9 1.8-1.8 2.6-2.8 1.7-2.1 2.9-4.3 3.5-6.9z"/>
			<path d="m272-16.5c0 6.77-5 13.67-12 14.1 4-4.15 8-8.8 12-14.1z"/>
			<path d="m127 21.8c1 7.1-7 6 0 0z"/>
			<path d="m176.2-3.1c.7.4 2.1.7 3.3.7 1.3.1 2.6.1 3.9 0 2.7-.1 5.4-.4 8-1 .6-.1 1.3-.3 2.1-.4.7-.1 1.4-.2 2.2-.2 1.4-.1 2.9 0 4.3.2 2.8.4 5.6 1.5 7.7 3.4-2.6-1-5.2-1.6-7.9-1.7-1.3-.1-2.6 0-3.9.2-.6.1-1.3.2-1.9.4s-1.2.4-1.9.6c-2.8.7-5.5 1.2-8.3 1.4-1.4.1-2.8.2-4.3.1s-3-.2-4.7-1.1l1.4-2.6z"/>
			<path d="m247.4-12.9c-.5 1.1-.9 2.2-1.2 3.4s-.5 2.4-.6 3.6-.2 2.5-.1 3.7c0 1.2.1 2.5.2 3.8-.8-1.1-1.3-2.3-1.6-3.6s-.5-2.6-.6-4c-.1-1.3 0-2.7.1-4 .2-1.4.5-2.7 1-4l2.8 1.1z"/>
			<path d="m281.9 11.8c-.5 1.3-1.2 2.4-1.9 3.4-.8 1-1.6 2-2.5 2.8s-1.9 1.6-2.9 2.3-2.1 1.3-3.3 1.7c.8-1 1.6-1.9 2.4-2.7.8-.9 1.6-1.8 2.3-2.7s1.4-1.9 1.9-2.8c.5-1 1-2 1.3-3l2.7 1z"/>
			<path d="m188.5 1.7c1.3 0 1.4 1.1 1.4 3.8 0 .7 0 1.4-.1 2-.3 1.7-.1 2.8-1 2.8-1 0-2.8-1.2-3.2-3-.1-.6-.2-1.2-.2-1.8-.1-2.6 1.8-3.8 3.1-3.8z"/>
			<path d="m169 4.8c-3 4.81-5 10.6-6 16.3-1 1.8-1-2.9-1-3.6 0-5 2-10.75 7-12.7z"/>
			<path d="m193 36.4c2.6-2.6 3.4-6.1 4.4-9.6.9-3.5 1.9-7.2 4.2-10.5 1.1-1.6 2.6-3 4.3-4.1s3.5-1.9 5.4-2.3c3.7-1 7.5-.9 11.2-.3v.5c-3.6.5-7.2 1.1-10.4 2.3s-6 3.1-7.9 5.8c-2 2.7-3.1 6-4.5 9.4-.7 1.7-1.4 3.4-2.4 5-1.2 1.6-2.6 3-4.3 3.8z"/>
			<path d="m179 6.8c-4 2.6-7 5.5-11 8.3 0-2.1 2-4.7 4-6.1 2-1.61 5-2.42 7-2.2z"/>
			<path d="m203-2.7c3 4.3 7 6.86 11 9.9-2 1.04-5-.95-7-2.4-3-1.78-5-4.477-4-7.5z"/>
			<path d="m154 14c0-3.2 3-6.43 7-6.1-1 2.5-4 4.5-6 5.9l-1 .1z"/>
			<path d="m190-10.6c3-4.3 10-4 14-1.3 1 1.1 4 2.64 3 4.3-5-2.01-10-4.6-16-3.1z"/>
			<path d="m216 60.5c2 1.6 2 6.3-1 6.8-1-2.2 0-4.9 1-6.8z"/>
			<path d="m222 67.8c2 1.2 1 5.9-1 6.1-1-1.9-1-4.5 1-6.1z"/>
			<path d="m225 75.5c2 .8 1 4.6-1 4.3-1-1.2-1-3.8 1-4.3z"/>
			<path d="m227 82.9c3 .1 1 5-1 3-1-1.3 0-2.3 1-3z"/>
			<path d="m174 38.1c1-.1 2 1.5 2 2.9 0 .7-1 1.7-1 1.7-2-.5-3-2.2-2-3.5 0-.4 0-.7 1-1.1z"/>
			<path d="m178 42.4c2-.3 3 1.8 2 2.9-1 .7-2-.1-3-1 0-.8 1-1.4 1-1.9z"/>
			<path d="m182 46.8c1-.8 3 1.6 1 2.3 0 .5-2 0-2-.8 0-.7 1-.8 1-1.5z"/>
			<path d="m182.3 10.3c-1.3.2-2.5.5-3.8.7-1.3.3-2.5.5-3.7.9l-.2-.3c1-.8 2.2-1.5 3.3-2.2s2.2-1.3 3.4-2l1 2.9z"/>
			<path d="m480 241c7 6 14 13 20 20-9-4-17-11-20-20z"/>
			<path d="m462 240c-2 11-18 13-5 4 2-1 3-2 5-4z"/>
			<path d="m216.8 102.8c3.7.1 7.4.3 11.1.3 3.6.1 7.3-.1 10.7-.9 1.7-.4 3.4-1 5-1.8.8-.4 1.6-.8 2.3-1.4.7-.5 1.4-1.1 2.1-1.7 2.7-2.4 4.9-5.4 7.3-8.3a41.2 41.2 0 01-6.3 9.3c-.6.7-1.3 1.3-2.1 1.9-.7.6-1.6 1.1-2.4 1.7a25 25 0 01-5.3 2.3c-3.7 1.1-7.5 1.4-11.2 1.5s-7.4 0-11.1 0l-.1-2.9z"/>
			<path d="m265 63.7c1-6.2 7-19.7 5-6-1 2.4-2 4.7-5 6z"/>
			<path d="m263.1 94.7c.8 1.5 1.2 3 1.4 4.6a18.48 18.48 0 01-1.2 9.3c-.6 1.5-1.4 2.9-2.5 4.1 0-1.6.1-3.2.2-4.6.1-1.5.3-2.9.5-4.4s.4-2.9.7-4.4c.2-1.6.4-3.1.9-4.6z"/>
			<path d="m267.6 111.6c.4 1.5.3 3 .1 4.5a16.2 16.2 0 01-3.5 8.1c-.9 1.2-2 2.2-3.4 3 .4-1.5.9-2.9 1.4-4.2s1-2.6 1.6-3.9c.5-1.3 1.1-2.5 1.7-3.8.6-1.1 1.3-2.4 2.1-3.7z"/>
			<path d="m269.5 120.4c.9 1.5 1.2 3.4 1 5.2s-.8 3.6-1.6 5.1c-.8 1.6-1.9 3-3 4.3-1.2 1.3-2.5 2.4-4 3.3.6-1.7 1.4-3.2 2.1-4.7l2.3-4.3c.7-1.4 1.4-2.8 1.9-4.3.6-1.3 1-2.8 1.3-4.6z"/>
			<path d="m351 295c6-2 22-4 8 2-3 0-6 0-8-2z"/>
			<path d="m364 284c3-1 20-3 12 1-4 1-8 1-12-1z"/>
			<path d="m380 277c2-2 20-3 13 0-5 2-9 2-13 0z"/>
			<path d="m394 267c6-5 25-6 9 0-3 0-6 1-9 0z"/>
		</g>

		<g stroke-width="2">
			<path stroke-width="4" d="M194.4 158.3s3.1-6.1 5.6-15.9c2.5-9.8 4.7-27.5 4.7-27.5s27.3 2.4 59.2-1.3c31.9-3.8 60.7-9.6 60.7-9.6s3.9 21.1 5.6 26.4c2.8 8.9 6.5 14.4 6.5 14.4s-41.4 9.7-72.1 12.1c-30.6 2.4-70.2 1.4-70.2 1.4z"/>
			<path d="M192 158.1l2.2-5.7s43.4 1.3 70.2-.7c26.8-2 73.4-12.4 73.4-12.4l2.1 6s-45.1 10.4-74.3 12.9c-29.4 2.4-73.6-.1-73.6-.1z"/>
			<path d="M352.5 123.7l-23.8 4.4s-.9 1.8.8 5.8c1.6 4 3.4 4.3 3.4 4.3l19.6-14.5z"/>
			<path d="M348.9 109.4l-23.8 4.4s-.9 1.8.8 5.8c1.6 4 3.4 4.3 3.4 4.3l19.6-14.5z"/>
			<path d="M179.4 139.9l21.9 10.7s1.7-.9 2.6-5.1c.9-4.2-.3-5.5-.3-5.5l-24.2-.1z"/>
			<path d="M181.7 124.7l21.9 10.7s1.7-.9 2.6-5.1c.9-4.2-.3-5.5-.3-5.5l-24.2-.1z"/>
			<path d="M315.3 156.4l2.4-23.8s-1.4-1.4-5.5-.8c-4.1.5-4.9 2.2-4.9 2.2l8 22.4z"/>
			<path d="M292 160.8l2.4-23.8s-1.4-1.4-5.5-.8c-4.1.5-4.9 2.2-4.9 2.2l8 22.4z"/>
			<path d="M217.5 166.2l6.5-23s-1.2-1.6-5.3-1.8-5.2 1.3-5.2 1.3l4 23.5z"/>
			<path d="M265.7 164l4.9-23.4s-1.3-1.5-5.4-1.4c-4.2.1-5.1 1.6-5.1 1.6l5.6 23.2z"/>
			<path d="M240.8 165.7l6.5-23s-1.2-1.6-5.3-1.8c-4.2-.2-5.2 1.3-5.2 1.3l4 23.5z"/>
			<path d="M202 120.2l1.5-5.8s36-.9 62.7-2.9c26.8-2 60.7-9 60.7-9l1.9 6.2s-32.1 6.8-61.4 9.3c-29.3 2.5-65.4 2.2-65.4 2.2z"/>
			<path d="M219.9 108.2l-6.5 23s1.2 1.6 5.3 1.8 5.2-1.3 5.2-1.3l-4-23.5z"/>
			<path d="M266 105.9l-4.9 23.4s1.3 1.5 5.4 1.4c4.2-.1 5.1-1.6 5.1-1.6l-5.6-23.2z"/>
			<path d="M285.7 101.8l-2.8 23.9s1.4 1.3 5.6.8c4.1-.6 4.8-2.2 4.8-2.2l-7.6-22.5z"/>
			<path d="M241.2 106.5l-5.1 23.5s1.3 1.5 5.4 1.4 5.1-1.7 5.1-1.7l-5.4-23.2z"/>
			<path d="M306.9 98.2l7.5 22.3s-1 1.7-5.1 2.4-5.3-.6-5.3-.6l2.9-24.1z"/>
		</g>
	</g>
</svg>