<svg xmlns="http://www.w3.org/2000/svg" fill="#d7374a" stroke="#000" viewBox="50 50 200 200"><metadata license="https://creativecommons.org/licenses/by-nc-sa/3.0" source="http://wappenwiki.org/images/f/ff/Maupeou.svg"/><g id="porcupine" stroke-width=".3"><path d="M93.88 122.72s-.1-.04-.62-.03c-.52.02-.93.32-1.06.44-.12.12-.45.64-.35.72.09.1.97-.25 1.38-.26.4-.02.6.03.73.07.13.04-.08-.94-.08-.94z"/><path d="M94.1 124.25s-.12-.04-.66.05a2 2 0 00-1.03.6c-.12.15-.38.63-.28.71.12.08 1-.29 1.4-.36.4-.07.63-.04.77-.03.14.01-.2-.97-.2-.97z"/><path d="M97 125.67c-.12.07-.31.18-.61.48s-.8 1.1-.92 1.1c-.14 0-.2-.54-.19-.72 0-.18.1-.71.48-1.1.38-.4.48-.31.48-.31s.88.48.76.55z"/><path d="M78.8 120.85s-.12.03-.49.39c-.38.36-.48.85-.5 1.04 0 .17.1.78.22.78.13 0 .57-.84.86-1.12.28-.27.47-.38.6-.44.1-.06-.7-.65-.7-.65z"/><path d="M79.97 121.84s-.12.04-.46.47a1.8 1.8 0 00-.37 1.14c.01.18.13.71.25.7.14-.01.55-.86.8-1.2.27-.32.44-.46.56-.54.13-.07-.78-.57-.78-.57z"/><path d="M83.08 120.98c-.04.12-.11.34-.12.75-.03.42.15 1.35.04 1.44-.1.1-.5-.27-.62-.41a1.9 1.9 0 01-.38-1.14c.03-.54.15-.55.15-.55s.98-.22.93-.1z"/><path d="M125.33 122.72s-.1-.04-.62-.03c-.51.02-.93.32-1.05.44-.13.12-.45.64-.36.72.1.1.98-.25 1.38-.26.4-.02.6.03.73.07.13.04-.08-.94-.08-.94z"/><path d="M125.55 124.25s-.11-.04-.65.05c-.53.1-.92.47-1.04.6-.11.15-.38.63-.27.71.11.08.99-.29 1.39-.36.41-.07.63-.04.77-.03.15.01-.2-.97-.2-.97z"/><path d="M128.45 125.67c-.11.07-.31.18-.6.48s-.8 1.1-.93 1.1c-.14 0-.2-.54-.18-.72 0-.18.09-.71.47-1.1.38-.4.48-.31.48-.31s.89.48.76.55z"/><path d="M110.76 121.2s-.1-.05-.62-.04c-.52.02-.93.32-1.06.44-.12.12-.44.64-.35.72.09.1.98-.25 1.38-.26.4-.01.6.03.73.07.13.03-.08-.94-.08-.94z"/><path d="M110.97 122.71s-.11-.04-.65.05c-.53.09-.92.47-1.04.6-.12.15-.38.63-.28.7.12.09 1-.28 1.4-.35.4-.07.63-.04.77-.03.16.01-.2-.97-.2-.97z"/><path d="M113.88 124.14c-.12.07-.31.18-.61.48s-.8 1.1-.92 1.1c-.14 0-.2-.54-.18-.72 0-.18.09-.71.47-1.1.38-.4.48-.31.48-.31s.88.48.76.55z"/><path d="M121.56 108.52c-.69 2.35-.8 4.57 1.31 5.02.3.05.38.48.46.77.12.42-.05.88-.32 1.23-.26.34-.62.62-.95.9a8.52 8.52 0 00-2.83 5.56c0 .69-.5 1.77-.86 1.93-.44.2-.17.15-.63.13-.49-.03-.81.23-1.32.34-.35.1-.77.2-1.04-.04-.37-.34-.6-.67-1.09-.25-.16.14-.28.34-.63.15-.03-.02-.3-.27-.52-.36-.21-.08-.41-.06-.44-.06-.21-.02-.25-.4-.25-.4s-.24.26-.49.33c-.25.08-.69.1-.78-.05-.37-.95-.78-1-.78-1 .11-.05-.07-.54.39-.71-.03-.24-.01-.41-.31-.87.02-.15.35-.65.88-.48.38.13 1-.27 1.4-.28.73 0 .87.33 1.3.39v-.01c.35-.08.74-.07 1.09.04.13.05.3.1.39 0l.04-.1c.15-.33.42-.61.47-.97.06-.38.26-.7.36-1.08.13-.43.12-.9.15-1.34.08-1.03.4-2.03.9-2.91-.38-.37-.88-.8-1.36-1.05-.55-.27-1.18-.34-1.8-.45-1.24-.22-2.47-.05-3.64-.54a6.86 6.86 0 01-2.8-2.02 2.52 2.52 0 01-.51-1.29c1-1.02 2.5-1.6 3.89-1.95 4-1.04 8.13-2 12.24-1.6"/><path d="M96.18 108.95c-.29.9-1.15 1.45-1.94 1.95-1.2.77-2.28 1.47-3.37 2.38-1.46 1.21-2.6 2.88-4.34 3.61-.5.21-.93.3-1.16.79-.24.26-.2.67-.13 1.02s.19.73.03 1.06c-.2.3-.55.38-.91.38-.5 0-.89-.12-.97.54-.02.2.02.43-.38.53-.03 0-.4-.02-.63.06-.22.09-.34.23-.37.26-.17.12-.44-.14-.44-.14s0 .36-.15.59c-.14.23-.46.52-.63.48-.9-.46-1.25-.23-1.25-.23.06-.12-.4-.35-.17-.78-.17-.18-.28-.3-.82-.45-.08-.13-.16-.71.35-.94.37-.17 1.2-.97 1.4-1.51a2 2 0 01.28-.89c.28-.41.55-.54 1-.77.27-.13.57-.24.82-.42.84-.55 1.3-1.42 1.79-2.27.43-.77.87-1.53 1.37-2.29a6.6 6.6 0 011.17-1.47c.65-.56 1.53-.86 2.1-1.52"/><path stroke-width=".2" d="M83.78 108.9c-.05-.11-.05-.46-.27-.72l-.25-.3-.04-.07c-.01-.08.1-.13.17-.14.18-.03.34-.08.5-.14.03-.01.07-.02.09-.06.05-.05.02-.12 0-.2a2.84 2.84 0 00-.25-.53c-.06 0-.1-.05-.13-.1l-.06-.17c-.08-.15-.26-.2-.42-.25l-.27-.11a.22.22 0 01-.11-.12c-.02-.06.02-.13.08-.16s.13-.03.2-.05c.16 0 .3-.03.47-.05.03 0 .06-.02.06-.05v-.06a1.81 1.81 0 00-.28-.45c-.13-.13-.24-.2-.27-.38a.34.34 0 00-.11-.02c-.07-.11.09-.24.11-.38.01-.09-.04-.17-.1-.25a7.68 7.68 0 00-.5-.63c-.2-.22-.4-.5-.28-.79.08-.2.3-.32.28-.52-.02-.25-.4-.34-.42-.6-.02-.15.14-.29.15-.46.01-.19-.24-.49-.43-.53-.12-.04-.2.07-.33.08-.13.01-.25-.06-.37-.12.2.04.37-.17.57-.24.09-.03.2-.03.27-.09l.08-.07.36-.2c.52-.4.2-.84.52-1.42.3-.57-.21-1.32-.58-1.86-.1-.16-.24-.29-.38-.42-.75-.62-1.03-.56-1.36-.47l.08-.02c-.25-.01-.46.18-.7.22-.09 0-.17 0-.25.02-.23.04-.4.23-.54.41.13-.16.16-.48-.06-.56a.7.7 0 00-.3-.01c-.15.02-.27.05-.41.06h-.04a.02.02 0 01-.02-.03c-.08-.11-.08-.3-.2-.34-.09-.04-.2.02-.27-.04-.07-.04-.18-.36-.17-.44a1.8 1.8 0 00-.74.09c.06-.24.35-.35.57-.45.26-.13.5-.33.66-.58a.46.46 0 01-.34-.08l-.14-.12c-.07-.05-.16-.04-.25-.04a3.1 3.1 0 00-.7.14c.08-.22.26-.37.4-.55.16-.17.25-.41.16-.62a6.16 6.16 0 00-.46-.02c-.06-.2 0-.42.1-.6s.25-.34.4-.47c.18-.18.48-.35.4-.58.34-.36 2.04-1.1 3.58-1.33.91-.14 3.06-1.4 3.97-1.53.89-.12 2.65-1.06 3.57-1.43 1.2-.48 5.44-2.37 10.28-3 8.98-1.18 16 .17 22.66 4.65a16.38 16.38 0 016.22 7.84c1.33 3.35 1.51 4.16 2.74 7.49.52 1.39.74 3.15.66 4.63-.03.46.43.52.88.67.44.15 1.19-.08 1.59.13.7.38.98 1.27.95 2.06 0 .8-.52 2.35-.52 3.14 0 2.37-.27 3.45.12 5.13.32 1.59.65 2.52.5 3.53a2.4 2.4 0 01-.97 1.6c-.31.24-.6.48-.97.64-.43.2-.16.15-.62.13-.5-.02-.81.23-1.32.35-.36.1-.77.2-1.05-.05-.36-.33-.58-.67-1.08-.24-.16.14-.28.33-.63.15-.03-.02-.3-.28-.52-.37-.22-.08-.41-.06-.45-.06-.2-.02-.24-.4-.24-.4s-.24.26-.5.33c-.24.08-.68.1-.77-.04-.37-.96-.79-1.01-.79-1.01.12-.05-.06-.53.4-.7-.03-.25-.02-.42-.31-.88.02-.15.35-.64.88-.47.38.13 1-.28 1.4-.29.73 0 1.12.33 1.56.4.2.1.81.1 1 .16.22.06.47.05.6-.12.1-.15.08-.35.05-.53a5.2 5.2 0 01.05-2.12c.18-.68-.13-1.54-.19-2.23-.06-.81 0-1.63-.46-2.3-.48-.76-.1-.81-.54-1.3-.87-.96-3.04-1.68-4.3-2.02-1.4-.4-2.95-.33-4.24-1-1.19-.62-1.8-1.52-2.55-2.61-1.75-.27-3.28.02-5 .38-3.38.71-8.01 2.04-11.4 1.4.45.5.85 1.02 1.04 1.62.4 1.27-.23 2.37-.48 3.68s.1 2.8.45 4.37c.26 1.06.38 2.52.24 3.53a2.4 2.4 0 01-.97 1.6c-.3.24-.87.48-1.23.64-.43.2-.93.36-1.42.48-.36.1-.77.2-1.05-.05-.37-.33-.58-.67-1.08-.24-.16.14-.29.33-.63.15-.04-.02-.3-.28-.52-.37-.22-.08-.41-.06-.45-.06-.2-.02-.24-.4-.24-.4s-.24.26-.5.33c-.25.08-.68.1-.78-.04-.36-.96-.78-1.01-.78-1.01.12-.05-.07-.53.4-.7-.03-.25-.02-.42-.32-.88.03-.15.36-.64.89-.47.38.13 1-.28 1.39-.29.74 0 .87.33 1.31.4.27.03.99.26 1.1.14.05-.06.06-.15.07-.23.06-.25.2-.48.28-.73.1-.3.1-.6.08-.89-.02-.43-.29-.9-.41-1.3-.1-.32-.22-.63-.31-.95-.18-.6-.12-1.26-.1-1.88 0-.45.07-.9-.03-1.33a6.75 6.75 0 00-.59-1.64c-1.35-1.95-2.86-1.4-3.78-3.84-1.86-.11-6.33.54-9.7-.7z"/><path stroke-width=".2" d="M83.78 108.9s-.57-.25-1.12-.38c-.47-.1-.88.04-1.18-.34-.09-.12-.18-.25-.32-.3-.14-.06-.33 0-.34.16a1.85 1.85 0 01-.67-.35c-.01.18-.06.36-.14.5a2.02 2.02 0 01-1.41-.91c-.06.11-.1.46-.12.59-.2-.03-.4-.12-.56-.26-.14-.11-.25-.27-.41-.35s-.42-.04-.46.13c-.3-.1-.35-.32-.66-.32-.46 0-.46.16-.76.2-.83.1-1-.3-2.17.07-.38.11-1.35-.19-1.91.03-.5.22-1 .16-1.23.22-.24.06-.5.03-.76.01a3.54 3.54 0 01-.8-.15c-.28-.13-.45-.34-.21-.62.07-.08.2-.11.3-.11 1 0 1.92-.26 2.57-.34.5-.06.8-.23 1.31-.22.26.02.54 0 .7-.2.15-.16.37-.43.35-.67-.01-.36-.45-.67-.8-.66-.19.02-.35.1-.52.15-.45.15-.95-.07-1.4.06-.33.1-.94.04-1.49.2 0 0-.37.12-.72.16-.44.04-.87.11-1.3.2-.4.1-.9.07-1.31.02-1.33-.18-2.07-.42-2.66-1.38a4.7 4.7 0 01-.5-1.13c-.06-.2-.09-.41-.15-.61-.05-.2-.1-.58 0-.78.07-.13.18-.24.28-.34.33-.28.85-.05 1.24.08.06.03.1.05.16.04.1-.01.15-.1.21-.17.38-.45.94-.45 1.22-.52 1.15-.27 1.67-1.52 2.6-2.1.9-.57 1.22-.6 1.48-1.55.13-.43.44-.67.66-1.08.32-.6 1.06-.84 1.62-1.23.45-.3.8-.96 1.23-1.3a7.1 7.1 0 011.55-.8c.95-.3 1.52-1.18 2.5-1.31.08.23-.23.4-.4.57-.15.15-.3.3-.4.47s-.17.4-.11.6l.46.02c.1.21 0 .45-.15.62-.15.18-.33.34-.41.56.23-.07.46-.12.7-.14a.4.4 0 01.25.03c.06.04.1.08.14.13.09.08.22.1.34.08-.17.24-.4.45-.66.58-.23.11-.51.2-.57.44.23-.09.49-.12.74-.09-.01.08.1.4.17.45.08.05.19 0 .27.03.12.05.12.25.2.35.01.01.01.02.03.02h.03l.4-.05c.1-.02.21-.04.31 0 .22.1.19.42.06.57.14-.18.31-.38.54-.41l.24-.03c.26-.03.46-.23.72-.22l-.08.03a2.65 2.65 0 013 .88c.35.54.07 1.3-.23 1.87s-.46 1.02-.98 1.41l-.36.2-.08.08c-.08.05-.18.05-.27.09-.2.07-.36.26-.57.24.1.06.24.13.37.12.13-.02.2-.1.33-.09.18.05.44.34.43.53-.01.16-.17.31-.15.48.02.24.4.33.43.58.02.2-.21.35-.3.53-.1.28.11.56.3.78.17.21.34.42.49.64.06.06.12.16.1.25 0 .14-.17.25-.11.38l.11.02c.03.18.14.24.27.38.11.14.2.29.27.45.02.01.02.03.02.06l-.07.04c-.15.03-.31.05-.47.06a.38.38 0 00-.2.05c-.06.03-.1.1-.08.16.01.04.07.08.11.11.08.05.18.08.27.12.16.05.36.09.42.25.03.05.04.1.06.16.02.05.07.1.13.1.1.19.18.34.25.54.02.07.04.14 0 .2a.25.25 0 01-.1.06c-.15.06-.31.1-.49.14-.08 0-.18.05-.17.13 0 .03.03.05.04.07l.25.3c.22.2.2.55.26.68z"/><path fill="#f6f6f6" stroke-width=".25" d="M72.86 99.39s.46.08 1.6-.7c-.73-.17-1.05-.65-1.55-.62-.1 0-.3.24-.33.65-.03.42.28.67.28.67z"/><g fill="#000" stroke="none"><path d="M64.6 101.85c.22.2.49.24.77.38s.53.32.73.56c.2.25.34.54.37.87 0 .08 0 .16-.02.24a.84.84 0 01-.06.24.5.5 0 01-.17.18c-.03.03-.08.04-.11.05-.05 0-.08 0-.12-.02.08 0 .13-.05.18-.1a.5.5 0 00.07-.35l-.02-.1-.02-.09a1.7 1.7 0 00-.37-.67c-.17-.21-.38-.38-.6-.56l-.35-.25c-.12-.13-.23-.24-.28-.38z"/><path d="M64.45 103.75c.12.01.2.02.28.06.08.02.15.05.22.09a1.14 1.14 0 01.39.33c-.1.06-.2.07-.3.06a.84.84 0 01-.28-.08.67.67 0 01-.21-.19.61.61 0 01-.1-.27z"/><path d="M67.28 104.05a.67.67 0 01.57-.31c.06 0 .14 0 .25.04a.51.51 0 01-.34.34.48.48 0 01-.21.02c-.1-.02-.19-.03-.27-.1z"/><path d="M66.05 101.97c.1-.06.2-.1.28-.12l.24-.07.25-.03h.3a.56.56 0 01-.2.26.81.81 0 01-.28.13.7.7 0 01-.31 0c-.1-.05-.2-.1-.28-.17z"/><path d="M69.38 103.15a1.02 1.02 0 00.44-.37l.03-.04h.07a2.81 2.81 0 001.13-.14l.38-.14c-.08.12-.18.2-.3.29a1.64 1.64 0 01-1.24.2l.1-.03a.8.8 0 01-.3.2c-.1.03-.21.05-.32.03z"/><path d="M70.95 101.13l.23-.01h.18l.04-.05a.3.3 0 01.1-.1c.1-.07.22-.06.3-.06.17.02.3.09.43.09a.7.7 0 00.4-.1.51.51 0 01-.4.3.68.68 0 01-.26 0l-.2-.04c-.06-.01-.12-.01-.14.01-.02.01-.04.01-.06.05a.42.42 0 01-.15.1.23.23 0 01-.16-.03l-.1-.05-.2-.11z"/><path d="M74.4 104.2c.1.2.23.32.38.48.07.08.14.16.2.26.05.1.08.23.08.36a.95.95 0 01-.1.33c-.04.1-.11.19-.17.27-.13.16-.25.3-.37.48 0-.22.1-.41.2-.6.1-.18.17-.35.18-.51.01-.16-.07-.31-.17-.49-.06-.08-.1-.17-.15-.27a.45.45 0 01-.08-.3z"/><path d="M75.47 101.38c.13-.08.25-.14.38-.18l.37-.14.37-.14.37-.16a.79.79 0 01-.27.33 1 1 0 01-.38.2 1.74 1.74 0 01-.84.09z"/><path d="M70.78 98.5a2.25 2.25 0 01.2-1.2 1.73 1.73 0 01.21-.37c.17-.23.4-.43.66-.55a1.75 1.75 0 01.84-.22l-.1.03c.1-.07.18-.1.28-.15l.29-.09c.2-.06.4-.07.6-.08l.3.01.15.01.14.03c.1 0 .2.04.3.07l.27.1-.29-.02-.29-.02c-.18 0-.38.02-.55.04a2.73 2.73 0 00-1 .36.13.13 0 01-.1.03h0c-.1 0-.23.02-.35.06s-.23.07-.34.12c-.22.1-.42.26-.58.44a3.46 3.46 0 00-.64 1.4z"/><path d="M72.11 97.17a.69.69 0 00-.09.36c.01.11.07.23.14.26.07.04.18.01.3-.02.11-.04.23-.1.37-.14l.39-.08c.12-.02.26-.03.4-.03.27 0 .55.05.78.2a2.87 2.87 0 00-.77.01l-.38.07-.37.08-.38.12c-.07.01-.13.03-.22.03s-.17-.02-.24-.07a.35.35 0 01-.13-.2.51.51 0 01-.02-.23.72.72 0 01.22-.36z"/><path d="M72.87 99.52h-.32c-.1.02-.22.04-.32.09.08-.08.17-.15.27-.2a.5.5 0 01.16-.09l.17-.07.04.27z"/><path d="M71.17 99.47a1 1 0 01-.15-.37 1.46 1.46 0 01-.04-.39c.02-.12.03-.26.07-.39a.65.65 0 01.23-.32l-.03.37-.01.35c0 .26-.01.49-.07.75z"/><path d="M73.12 98.22c.13-.01.02.25.03.5 0 .21.13.43.04.44-.09 0-.3-.07-.34-.24-.01-.06-.02-.2-.04-.25 0-.26.19-.44.31-.45z"/><path d="M75.55 98.45a.66.66 0 01-.5-.03c-.07-.03-.14-.08-.2-.13s-.12-.13-.14-.23c.1 0 .17.03.24.04l.2.08.2.1c.07.05.14.1.2.17z"/><path d="M80.8 96.46l-.19.18-.18.14a1 1 0 01-.2.11c-.07.04-.15.09-.24.1.01-.1.05-.18.1-.24.06-.07.12-.14.2-.19.08-.04.16-.08.24-.1.1-.03.18-.03.28 0z"/><path d="M80.27 97.5l.36-.1.37-.06.4.01c.12.03.26.06.36.15l-.38.06-.37.05a2.1 2.1 0 01-.38 0 .97.97 0 01-.36-.12z"/><path d="M82.48 99.01c.04.12 0 .24-.05.33a.64.64 0 01-.26.25c-.1.05-.2.09-.3.1a1 1 0 01-.33.01c.07-.1.16-.15.25-.2.1-.06.18-.11.26-.14l.23-.15a.8.8 0 00.2-.2z"/><path d="M80.92 99.05a.57.57 0 01.29-.28l.33-.15c.1-.05.2-.1.32-.14a3 3 0 00.33-.17.78.78 0 01-.21.33c-.1.1-.2.16-.33.2a1.3 1.3 0 01-.37.11c-.12.04-.23.05-.36.1z"/><path d="M102.28 105.24a4 4 0 01.43 1.21 4 4 0 01-.03 1.29l-.06.32-.08.32c-.07.22-.2.42-.31.59-.11.18-.23.36-.29.53-.05.17 0 .3.12.44l-.27.23a.74.74 0 01-.17-.36.8.8 0 01.05-.4c.09-.23.23-.4.35-.58s.25-.33.33-.52l.09-.3.08-.3c.09-.42.16-.83.11-1.26-.04-.41-.2-.82-.35-1.2z"/><path d="M118.17 108.35a13.8 13.8 0 00-2.13-2.76c-.2-.2-.42-.4-.65-.58a4.45 4.45 0 00-.74-.47c-.26-.12-.54-.24-.76-.46a.93.93 0 01-.24-.38.64.64 0 01.01-.43.6.6 0 000 .42c.05.14.14.25.24.36.22.2.5.29.77.41.28.12.53.28.77.45a10.55 10.55 0 011.95 1.83c.38.45.74.93 1.07 1.42l-.3.19z"/><path d="M92.87 105.98c.03.63.1 1.26.2 1.89a7.43 7.43 0 00.57 1.74l-.3.16a4.72 4.72 0 01-.3-.94c-.07-.32-.1-.63-.14-.95-.05-.62-.07-1.27-.03-1.9z"/><path d="M130.6 110.73a2.4 2.4 0 001.01.7c.19.08.4.14.59.2.2.08.41.13.62.24a2.67 2.67 0 01-1.35-.12 1.8 1.8 0 01-.58-.39c-.15-.18-.27-.4-.29-.63z"/><path d="M116.9 110.98a.35.35 0 01.27-.07c.1.01.18.06.25.13s.13.15.15.24c.02.1.02.2-.04.29l-.2-.15-.14-.13-.14-.14-.16-.17z"/><path d="M115.5 109.58c.1-.02.2 0 .29.03.1.04.16.1.23.16.07.07.11.15.15.23.03.1.04.19.02.3-.1-.04-.17-.09-.24-.13a.77.77 0 01-.17-.17c-.06-.05-.1-.11-.15-.18a.95.95 0 01-.13-.24z"/><path d="M100.43 112.06a2.86 2.86 0 00.33.77l.2.37c.07.13.14.27.19.43a1.27 1.27 0 01-.4-.26c-.1-.1-.21-.23-.28-.36-.08-.14-.14-.3-.15-.46a.77.77 0 01.1-.49z"/><path d="M100.78 117.07c.02-.02.05 0 .07 0l.06.06a1.12 1.12 0 01.11.37c.04.16.05.31.05.47 0 .17 0 .33-.02.48-.03.16-.06.32-.13.48a1.87 1.87 0 01-.15-.47 2.19 2.19 0 01-.05-.47c0-.17 0-.33.03-.48a1.79 1.79 0 01.07-.34c0-.04 0-.07-.04-.1z"/><path d="M90.22 111.5c.03.1.04.18 0 .29a.7.7 0 01-.14.25c-.14.14-.3.24-.44.35l-.1.08-.09.09-.17.2-.33.4c-.22.28-.46.58-.71.84-.26.26-.55.51-.89.66.25-.27.46-.55.68-.85l.32-.44c.1-.15.22-.28.33-.43.12-.14.23-.29.37-.43l.2-.2c.04-.03.08-.05.11-.09a.77.77 0 01.13-.08c.17-.1.33-.16.47-.25.07-.05.13-.1.17-.17.06-.04.08-.13.1-.22z"/><path d="M117.39 114.28a.8.8 0 01.35-.08c.12-.01.23 0 .34.01.22.03.41.08.62.14-.2 0-.42 0-.62.04-.2.03-.4.09-.5.2l-.2-.3z"/><path d="M80.64 98.37a3.5 3.5 0 01.9-.34l.45-.12c.14-.05.28-.1.4-.22a.64.64 0 01-.3.4c-.16.1-.32.15-.48.18-.16.04-.31.07-.47.09-.17 0-.33.02-.5 0z"/><path d="M80.25 98.13l-.3.1a1.01 1.01 0 01-.64.02.67.67 0 01-.3-.15l.32-.06.3-.02h.3c.1.02.23.04.32.1z"/><path d="M79.9 104.32c.11.07.2.13.3.16.09.04.17.05.3.08.05.03.13.05.2.1s.08.12.1.18c.05.12.06.2.16.3-.07.01-.13-.02-.19-.06s-.1-.08-.13-.12a.74.74 0 00-.1-.1.28.28 0 00-.1-.04.58.58 0 01-.16-.05.53.53 0 01-.18-.1c-.11-.1-.2-.22-.2-.35z"/><path d="M77.69 104.05c.11.04.22.1.31.15.1.04.18.09.28.12l.13.04c.05 0 .12.02.18.04s.13.07.17.14c.03.06.05.15 0 .2-.01-.06-.06-.1-.1-.12-.04-.02-.07-.02-.12-.02h-.16a.64.64 0 01-.2-.03.87.87 0 01-.3-.21c-.09-.1-.14-.2-.19-.31z"/><path d="M76.32 104.75c.08.08.15.11.24.14l.26.07c.08.02.2.05.3.15s.12.2.12.3l-.25-.14c-.07-.03-.15-.04-.25-.06a.81.81 0 01-.3-.15c-.07-.07-.14-.2-.12-.31z"/><path d="M79.72 102.35a3.39 3.39 0 01.61-.05 1 1 0 01.32.08c.1.05.2.12.24.23-.12-.02-.21-.02-.3-.02l-.29-.01-.3-.05c-.1-.06-.2-.1-.27-.18z"/><path d="M77.62 102.75a.98.98 0 01.33-.05 1.53 1.53 0 01.9.3c-.11.02-.22.02-.33.02-.1 0-.2-.02-.31-.04-.1-.03-.2-.05-.3-.1a.66.66 0 01-.29-.13z"/><path d="M92.17 123.67a2 2 0 01.38-.21 1.73 1.73 0 01.63-.15l.22.01c.14.01.29.04.42.1v.03c-.15 0-.28 0-.42.02-.14.01-.27.02-.4.05-.28.04-.54.11-.83.15z"/><path d="M92.46 125.4a2.37 2.37 0 01.74-.42.54.54 0 01.22-.05l.22-.01c.15 0 .29.01.43.06v.02l-.42.06a1.7 1.7 0 00-.39.09c-.26.07-.52.17-.8.24z"/><path d="M95.6 127.06c.02-.14.08-.28.13-.41.06-.13.13-.26.21-.38l.14-.18.16-.15c.11-.09.24-.17.38-.21l.01.02-.29.3-.26.3c-.16.25-.3.48-.48.7z"/><path d="M95.41 124.99c0-.1.01-.2.04-.29a.67.67 0 01.36-.46c.1-.04.2-.06.3-.07l-.08.03c.17-.1.37-.14.55-.15.19-.02.36 0 .52 0s.32-.02.48-.04c.17-.02.33-.06.5-.07l.01.04c-.14.11-.3.2-.47.25-.17.06-.35.08-.53.1-.17 0-.35 0-.5.03-.14.02-.3.05-.42.12l-.02.01-.05.02a.66.66 0 00-.16.04c-.05.02-.08.06-.12.1a.36.36 0 00-.06.14l-.03.18-.32.02z"/><path d="M96.18 123.47c-.14.1-.29.15-.45.19l-.48.06c-.16.02-.32.03-.48.02-.16 0-.33-.02-.5-.05h0l-.03-.01-.06-.01h-.07a.3.3 0 00-.14.03l-.15-.31a.7.7 0 01.27-.07h.14c.04.01.08.01.15.04l-.04-.02a5.86 5.86 0 00.91.08h.46c.15 0 .31-.02.47 0v.05z"/><path d="M94.58 122.08c.07.07.13.14.16.22a1.05 1.05 0 01.08.68h-.03a1.38 1.38 0 00-.15-.38c-.03-.06-.08-.1-.11-.14a.41.41 0 00-.14-.08l.2-.3z"/><path d="M96.37 124.48c.09-.05.2-.09.3-.09.1 0 .21.04.3.08.1.06.19.14.24.23.05.1.08.2.05.32l-.04.02-.23-.15-.2-.12-.2-.11a1.01 1.01 0 00-.1-.07c-.04-.03-.09-.05-.14-.1h.02z"/><path d="M94.33 123.37c.03 0 .05 0 .06.02l.04.02.07.05a.77.77 0 01.27.34c.03.09.07.18.08.26l.04.25-.03.01a2.88 2.88 0 00-.25-.41.5.5 0 00-.18-.14c-.03-.01-.05-.03-.09-.03l-.04-.02h-.03s0 0 0 0l.06-.35z"/><path d="M78.14 122.69a2.39 2.39 0 01.37-.77 1 1 0 01.15-.16c.05-.05.1-.1.17-.14.11-.08.24-.16.38-.2v.02l-.29.28-.28.3c-.16.22-.3.45-.5.67z"/><path d="M79.5 123.78a2.18 2.18 0 01.42-.99l.15-.16c.1-.09.22-.18.36-.24v.02l-.26.33-.24.33c-.14.23-.26.47-.42.71z"/><path d="M82.96 122.95a2.38 2.38 0 01-.27-.81v-.22l.01-.22c.03-.14.06-.29.14-.41h.02v.83c.03.27.09.54.1.84z"/><path d="M81.44 121.53a.93.93 0 01-.16-.23.76.76 0 01-.08-.29.7.7 0 01.04-.31.6.6 0 01.18-.24l-.04.06c.07-.19.19-.35.31-.48l.4-.34c.12-.1.23-.22.34-.35l.32-.39.03.01c-.03.18-.09.35-.18.5-.1.15-.2.29-.33.41-.12.13-.26.24-.35.36-.1.11-.18.24-.23.38l-.01.02-.03.04-.1.13c-.02.05-.02.1-.02.15 0 .05.02.1.05.16l.09.15-.23.26z"/><path d="M81.01 119.87a1.4 1.4 0 01-.2.44l-.31.37c-.12.11-.23.23-.36.33-.13.1-.25.2-.4.3v.01l-.03.01-.04.03c-.03 0-.04.02-.06.04a.41.41 0 00-.08.12l-.32-.14a.72.72 0 01.15-.23l.1-.1.13-.06h-.04a4.33 4.33 0 001.06-.85c.12-.1.22-.21.36-.3l.04.03z"/><path d="M78.89 119.9c.09 0 .18.02.26.05a1.18 1.18 0 01.5.46l-.02.02a1.23 1.23 0 00-.36-.18c-.06-.02-.13-.02-.19-.02s-.11 0-.15.03l-.04-.37z"/><path d="M81.82 120.52c.02-.1.09-.2.17-.27a.86.86 0 01.29-.15.7.7 0 01.32.01c.1.04.2.1.25.2l-.02.04-.26.04-.22.03-.23.05-.13.02c-.06.01-.1.03-.17.03z"/><path d="M79.55 121.02l.06-.02.05-.01.08-.01h.16c.1 0 .2.04.27.08a1.32 1.32 0 01.43.3l-.02.03-.23-.1c-.08-.02-.16-.04-.23-.04a.46.46 0 00-.22.01c-.04.01-.07.01-.1.04 0 0-.02 0-.03.02l-.01.01s-.01.01 0 0l-.2-.3z"/><path d="M123.62 123.67a2 2 0 01.38-.21 1.73 1.73 0 01.63-.15l.22.01c.14.01.29.04.43.1l-.02.03a4.79 4.79 0 00-.82.07c-.26.04-.53.11-.82.15z"/><path d="M123.92 125.4a2.37 2.37 0 01.75-.42.5.5 0 01.22-.05l.21-.01c.15 0 .3.01.43.06v.02c-.14.01-.28.04-.41.06-.14.02-.27.04-.4.09-.26.07-.52.17-.8.24z"/><path d="M127.05 127.06a3.09 3.09 0 01.34-.8l.14-.17.16-.15c.12-.09.24-.17.38-.21l.01.02-.29.3-.26.3c-.15.25-.3.48-.48.7z"/><path d="M126.86 124.99c0-.1.02-.2.04-.29a.67.67 0 01.37-.46c.09-.04.2-.06.28-.07l-.07.03c.18-.1.37-.14.56-.15.18-.02.35 0 .51 0s.33-.02.49-.04c.16-.02.32-.06.5-.07v.04c-.13.11-.3.2-.47.25-.17.06-.34.08-.53.1-.17 0-.34 0-.5.03-.14.02-.3.05-.42.12l-.02.01-.05.02a.66.66 0 00-.16.04.35.35 0 00-.11.1.36.36 0 00-.07.14l-.02.18-.33.02z"/><path d="M127.65 123.47c-.14.1-.3.15-.45.19-.16.03-.32.05-.49.06-.16.02-.32.03-.48.02-.16 0-.32-.02-.5-.05h0l-.03-.01-.06-.01h-.06a.3.3 0 00-.14.03l-.15-.31a.7.7 0 01.26-.07h.14c.05.01.08.01.15.04l-.03-.02a5.86 5.86 0 00.9.08h.46c.15 0 .31-.02.48 0v.05z"/><path d="M126.05 122.08c.07.07.12.14.16.22l.08.23c.02.15.02.3 0 .45h-.04a1.38 1.38 0 00-.15-.38c-.03-.06-.08-.1-.11-.14a.41.41 0 00-.14-.08l.2-.3z"/><path d="M127.82 124.48c.09-.05.2-.09.3-.09.1 0 .22.04.3.08.1.06.2.14.24.23.06.1.08.2.06.32l-.05.02-.23-.15-.2-.12c-.07-.03-.12-.08-.2-.11a1.01 1.01 0 00-.1-.07c-.04-.03-.09-.05-.13-.1h0z"/><path d="M125.8 123.37c.03 0 .04 0 .05.02l.05.02.07.05a.77.77 0 01.26.34c.04.09.07.18.08.26l.05.25-.04.01a2.88 2.88 0 00-.25-.41.5.5 0 00-.17-.14c-.04-.01-.06-.03-.1-.03l-.04-.02h-.02s-.01 0 0 0l.05-.35z"/><path d="M109.05 122.14a2 2 0 01.38-.21 1.73 1.73 0 01.63-.15l.22.01c.14.01.29.04.43.1l-.02.03-.4.02a2.7 2.7 0 00-.41.05c-.28.04-.54.11-.83.15z"/><path d="M109.34 123.85a2.37 2.37 0 01.75-.41.46.46 0 01.21-.05l.22-.01c.15 0 .29.01.43.06v.02l-.42.06c-.13.02-.26.04-.39.09-.26.08-.51.17-.8.24z"/><path d="M112.47 125.53c.02-.14.08-.28.13-.41.06-.13.13-.26.21-.38l.14-.18.16-.15c.11-.09.24-.17.38-.21l.01.02-.29.3-.26.3c-.15.24-.3.48-.48.71z"/><path d="M112.3 123.46c0-.1 0-.2.03-.29a.67.67 0 01.37-.46c.09-.04.2-.06.28-.07l-.07.03c.18-.1.37-.14.56-.15.18-.02.35 0 .51 0s.33-.02.49-.04c.16-.02.32-.06.5-.07v.04c-.14.11-.3.2-.47.25-.17.06-.34.08-.53.1-.17 0-.34 0-.5.03-.14.02-.3.05-.42.12l-.02.01-.05.02a.66.66 0 00-.16.04l-.11.1a.36.36 0 00-.07.14l-.03.18-.32.02z"/><path d="M113.06 121.94c-.13.1-.28.15-.44.19l-.49.06c-.16.02-.32.03-.48.02-.16 0-.32-.02-.5-.05h0l-.03-.01-.06-.01H111a.3.3 0 00-.13.03l-.15-.3a.7.7 0 01.26-.08h.14c.04.01.08.01.15.04l-.04-.02a5.86 5.86 0 00.91.09c.15 0 .31 0 .46-.02h.47v.06z"/><path d="M111.47 120.55c.06.07.12.14.16.22l.08.23c.02.15.02.3 0 .45h-.04a1.1 1.1 0 00-.15-.38.46.46 0 00-.11-.14.41.41 0 00-.14-.08l.2-.3z"/><path d="M113.25 122.95c.09-.05.2-.09.3-.09.1 0 .22.04.3.08.1.06.2.14.24.23.05.1.08.2.05.32l-.04.02-.23-.15-.2-.12c-.07-.03-.12-.08-.2-.11a1.01 1.01 0 00-.1-.07c-.04-.03-.09-.05-.13-.1h0z"/><path d="M111.21 121.84l.06.02.05.02c.03.01.04.03.06.05a.77.77 0 01.27.35c.03.08.07.17.08.25l.05.25-.04.01a2.88 2.88 0 00-.25-.41.5.5 0 00-.17-.14c-.04-.01-.06-.03-.1-.03l-.04-.02h-.03s0 0 0 0l.06-.35z"/></g><g stroke-width=".115"><path d="M79.33 91.2a3.37 3.37 0 00.79-2.32 4.75 4.75 0 00-.75-2.47 6.31 6.31 0 00-1.96-1.87c-.78-.5-1.63-.88-2.53-1.23-.05-.02-.08-.08-.05-.12 0-.05.05-.07.1-.07a7.45 7.45 0 015.1 2.8 5.5 5.5 0 011.03 2.91 4.32 4.32 0 01-.94 3.02"/><path d="M77.86 91.35s0-.01 0 0c.15-.39.22-.8.22-1.22a4.35 4.35 0 00-.78-2.46c-.24-.38-.53-.73-.84-1.1a.1.1 0 01.01-.15c.04-.02.07-.04.1-.01.48.18.88.5 1.22.87a4.88 4.88 0 011.24 2.8 3.9 3.9 0 01-.2 1.62"/><path d="M85.05 95.32c.01 0 .01 0 0 0 .63-.06 1.24-.16 1.85-.3a11.63 11.63 0 003.46-1.46c.54-.33 1.06-.7 1.6-1.08.05-.04.12-.02.14.02a.1.1 0 010 .12 6.6 6.6 0 01-1.38 1.45 10.99 10.99 0 01-5.58 2.26"/><path d="M86.44 97.7l2.4.32c.79.1 1.58.15 2.37.17a14.67 14.67 0 004.67-.7.1.1 0 01.13.07c.01.05 0 .1-.04.12a7.1 7.1 0 01-2.27.99c-.8.2-1.65.3-2.48.34-.82.05-1.65.01-2.48-.03-.82-.06-1.63-.15-2.44-.26"/><path d="M83.13 99.94c.01 0 .01 0 0 0a9.3 9.3 0 001.74.75 16.32 16.32 0 003.8.72c.66.07 1.31.14 1.98.27.06.01.1.07.08.11-.01.05-.05.07-.08.08-.67.12-1.33.15-2 .16a24 24 0 01-2.03-.08 11.15 11.15 0 01-3.96-1.11"/><path d="M91.24 101.8s0 0 0 0a9.3 9.3 0 001.73.74 16.32 16.32 0 003.81.73c.66.06 1.31.13 1.98.26.06.01.09.07.08.11-.01.05-.05.07-.08.09-.67.11-1.34.14-2 .16a24 24 0 01-2.03-.08 11.15 11.15 0 01-3.97-1.12"/><path d="M85.73 103.36c.78.29 1.57.54 2.38.75a25.63 25.63 0 004.92.79c.84.06 1.67.08 2.52.12.06 0 .1.05.1.1s-.04.09-.09.1c-.84.2-1.69.29-2.55.31a21.06 21.06 0 01-7.62-1.2"/><path d="M91.04 87.38c.01 0 .01 0 0 0a35.76 35.76 0 006.74-4.3 36.63 36.63 0 002.98-2.69c.95-.94 1.85-1.93 2.76-2.94a.1.1 0 01.14-.01c.03.03.04.09.02.12a23.25 23.25 0 01-2.46 3.26 34.49 34.49 0 01-6.17 5.38 34.1 34.1 0 01-3.54 2.1"/><path d="M100.22 87.82c.01 0 .01 0 0 0 1.88-.4 3.76-.8 5.62-1.25 1.86-.45 3.7-.98 5.5-1.61a31.97 31.97 0 005.2-2.35 27.34 27.34 0 004.65-3.3c.05-.03.1-.03.14.01a.1.1 0 010 .14 20.15 20.15 0 01-4.48 3.7 31.96 31.96 0 01-5.24 2.57 49.3 49.3 0 01-5.54 1.77c-1.87.5-3.76.9-5.63 1.33"/><path d="M100.45 89.81a72.76 72.76 0 0018.51-4.8 115 115 0 005.87-2.58c.04-.03.11 0 .14.04.02.05 0 .1-.04.13a49.95 49.95 0 01-5.71 2.99 69.41 69.41 0 01-6.03 2.33 63.17 63.17 0 01-12.6 2.9"/><path d="M103.28 92.08a47.33 47.33 0 0011.68-.4 46.7 46.7 0 005.73-1.26 66.4 66.4 0 005.59-1.87c.05-.03.11 0 .12.05.03.05 0 .1-.04.13-1.75.93-3.6 1.67-5.49 2.29a47.13 47.13 0 01-11.7 2.16c-1.98.1-3.98.07-5.97-.1"/><path d="M113.9 95.07s.01 0 0 0c1.76-.07 3.5-.15 5.25-.25 1.73-.09 3.47-.21 5.2-.37a59.95 59.95 0 0010.26-1.88c.06-.01.1.02.13.07.01.05-.01.1-.06.11a31.84 31.84 0 01-5.02 1.58c-1.72.4-3.45.68-5.2.92s-3.5.4-5.24.53c-1.75.14-3.5.22-5.25.3"/><path d="M124.4 98.16a66.33 66.33 0 007.4.01c1.24-.07 2.47-.18 3.7-.34l3.7-.48c.05 0 .1.04.1.1.02.04-.02.09-.06.1-1.2.4-2.42.67-3.65.9a57.4 57.4 0 01-3.72.53 50.75 50.75 0 01-3.76.25c-1.26.03-2.51.02-3.78-.05"/><path d="M127.5 101.47a103.96 103.96 0 006.52.54c1.09.05 2.18.07 3.27.07s2.19 0 3.3.02c.05 0 .1.05.1.1s-.04.1-.08.1c-1.09.2-2.19.33-3.28.4a63.72 63.72 0 01-6.63.05 52.4 52.4 0 01-3.3-.27"/><path d="M126.8 103.48s0 .02 0 0a34.44 34.44 0 004.81.97c.82.1 1.64.16 2.46.2.83.03 1.65.05 2.49.1.06 0 .1.05.09.1 0 .05-.03.08-.08.1-.82.19-1.67.28-2.5.33a26.52 26.52 0 01-5.07-.29 22.7 22.7 0 01-2.48-.53"/><path d="M118.57 92.8s.01 0 0 0c1.34-.25 2.66-.53 3.97-.8a74.1 74.1 0 003.9-.98 31.36 31.36 0 007.34-3.21c.04-.02.11-.01.13.03.03.05.01.1-.02.13-1.02.9-2.2 1.63-3.42 2.25a28 28 0 01-3.79 1.57c-1.29.45-2.61.8-3.93 1.13-1.33.33-2.65.6-3.97.88"/><path d="M120.33 96.42a38.4 38.4 0 0010.34-.32c1.14-.18 2.28-.41 3.43-.64.05-.01.1.02.11.08.01.04 0 .09-.06.11-1.08.46-2.2.8-3.35 1.07a35.6 35.6 0 01-7.02.85 30.3 30.3 0 01-3.54-.13"/><path d="M114.03 89.28a57.66 57.66 0 0012.88-4.48c1.37-.66 2.71-1.37 4.07-2.09.05-.02.12 0 .14.05.02.05.01.1-.04.13a34.31 34.31 0 01-3.9 2.47c-1.35.74-2.73 1.4-4.15 2.02a47.77 47.77 0 01-8.78 2.89"/><path d="M99.26 86.21a85.1 85.1 0 0011-5.6l3.54-2.15c.05-.03.1-.01.14.03.02.05 0 .1-.03.13-1.04.9-2.16 1.73-3.3 2.52a62.36 62.36 0 01-10.92 6.01"/><path d="M104.37 88.21s.01 0 0 0a98.97 98.97 0 007-4.32 84.6 84.6 0 003.34-2.42l3.28-2.52c.04-.03.1-.02.13.03.04.03.03.09 0 .12a37.12 37.12 0 01-3.02 2.86 64.19 64.19 0 01-6.66 4.98 62.24 62.24 0 01-3.55 2.16"/><path d="M106.2 97.2a52 52 0 006.47 1.82c1.1.23 2.21.42 3.33.57 1.11.16 2.23.28 3.35.43.06.01.1.06.1.12a.12.12 0 01-.1.09c-1.13.1-2.27.07-3.41 0a41.31 41.31 0 01-10.05-2.06"/><path d="M98.67 99.47c1.09.36 2.2.68 3.3.99a56.87 56.87 0 006.76 1.38l3.45.5c.06 0 .09.05.08.1a.12.12 0 01-.1.1c-1.17.07-2.33.04-3.5-.06-1.16-.1-2.32-.24-3.49-.42a43.48 43.48 0 01-3.45-.67 43.53 43.53 0 01-3.39-.93"/><path d="M115.09 101.99c.94.23 1.88.41 2.83.6a47.71 47.71 0 005.75.66c.96.06 1.93.1 2.9.17.06 0 .1.04.1.1 0 .04-.04.08-.08.1-.97.16-1.96.23-2.94.27a42.41 42.41 0 01-5.9-.37c-.97-.14-1.94-.31-2.9-.54"/><path d="M98.96 97.18a96.36 96.36 0 0115.27-3.53c1.72-.24 3.45-.44 5.18-.52.06 0 .1.05.1.1s-.03.09-.08.1c-1.7.32-3.41.6-5.1.94-1.7.32-3.4.67-5.07 1.07a123.26 123.26 0 00-9.96 2.8"/><path d="M95.5 94.08a21.44 21.44 0 014.45-2.56 29.1 29.1 0 014.86-1.56 45.68 45.68 0 0110.01-1.16c.06 0 .1.04.1.1 0 .05-.03.1-.07.1-1.66.26-3.32.47-4.96.74-1.65.27-3.28.59-4.88 1.01-1.6.44-3.16.97-4.65 1.65-1.5.69-2.93 1.5-4.22 2.5"/><path d="M92.36 90.52s.02 0 0 0a56.43 56.43 0 019.48-2.85c1.62-.33 3.24-.6 4.88-.78a39.1 39.1 0 014.92-.25c.06 0 .1.04.1.1a.1.1 0 01-.1.1c-1.61.2-3.23.4-4.84.67a66 66 0 00-14.05 3.96"/><path d="M111.5 103.31c1.14.43 2.29.8 3.45 1.16a52.79 52.79 0 003.52.93c1.18.28 2.38.51 3.58.7l3.62.55c.06 0 .09.05.08.11a.1.1 0 01-.1.08 28.3 28.3 0 01-3.69-.12c-1.23-.13-2.44-.3-3.65-.53a43.11 43.11 0 01-7.14-1.94"/><path d="M106.04 99.94a37 37 0 018.66-1.6 40 40 0 014.39-.05c1.46.06 2.92.23 4.35.54.05 0 .09.07.08.11a.11.11 0 01-.1.08 70.2 70.2 0 00-4.34-.1 41.51 41.51 0 00-8.57.9c-1.4.3-2.8.66-4.16 1.1"/><path d="M86.61 88.27a52.18 52.18 0 008.67-5.76l2.7-2.23c.04-.04.1-.04.13 0 .04.04.04.1 0 .13-.73.92-1.55 1.78-2.41 2.58a46.33 46.33 0 01-5.57 4.36c-.99.65-2 1.25-3.04 1.82"/><path d="M83.1 91.06c.93-.84 1.82-1.66 2.7-2.51.9-.86 1.74-1.74 2.55-2.65.8-.92 1.54-1.89 2.19-2.92l.47-.78.43-.8.4-.84c.13-.27.25-.56.37-.84.03-.04.08-.06.14-.04a.1.1 0 01.06.11 12.55 12.55 0 01-1.33 3.52 22.97 22.97 0 01-2.12 3.13c-.78.99-1.63 1.91-2.5 2.8a81.44 81.44 0 01-2.68 2.6"/><path d="M94 87.89a171.37 171.37 0 007.47-5.4c1.22-.92 2.42-1.9 3.61-2.86 1.2-.96 2.37-1.95 3.6-2.9a.1.1 0 01.13 0c.03.04.02.1 0 .13a55.08 55.08 0 01-3.31 3.24 124.65 124.65 0 01-7.14 5.9c-1.24.95-2.5 1.83-3.77 2.72"/><path d="M90.05 95.88c1.2-.04 2.4-.14 3.59-.25a61.58 61.58 0 007.1-1.1l3.54-.78c.05 0 .1.03.11.09.01.04 0 .09-.06.11a27.8 27.8 0 01-3.45 1.2c-1.17.32-2.35.6-3.55.85a48.22 48.22 0 01-3.61.6c-1.2.16-2.43.26-3.65.32"/><path d="M93.4 92c1.03.4 2.3.26 3.56.24a138.03 138.03 0 007.55-.52c1.25-.13 2.5-.25 3.77-.35.06 0 .1.04.1.1 0 .04-.02.09-.07.1-1.23.32-2.47.58-3.72.77a84.54 84.54 0 01-9.49.94c-.65 0-1.36-.05-2.03-.3"/><path d="M90.1 99.2s.01 0 0 0a80.03 80.03 0 0011.46-.78c1.9-.26 3.79-.6 5.67-1 1.88-.39 3.75-.85 5.62-1.3.05-.02.1.02.12.06.01.05-.01.1-.06.12a47.9 47.9 0 01-5.53 1.73 79.06 79.06 0 01-5.68 1.2 69.8 69.8 0 01-11.57 1"/><path d="M82.2 90.27s0-.01 0 0a5.29 5.29 0 001.8-3.36 5 5 0 00-.11-1.96 7.61 7.61 0 00-.76-1.9c-.02-.05-.01-.12.04-.14.03-.02.08-.01.11.01a4.4 4.4 0 011.2 1.84 5.8 5.8 0 01.33 2.23 5.91 5.91 0 01-.56 2.21c-.33.7-.8 1.32-1.38 1.84"/><path d="M81.1 90.73s0-.01 0 0a7.95 7.95 0 00-.52-6 11.4 11.4 0 00-1.13-1.8c-.04-.04-.02-.1.02-.13a.1.1 0 01.12 0c.62.42 1.12.98 1.54 1.62a8.4 8.4 0 011.27 4.33c.02.77-.1 1.54-.32 2.3"/><path d="M85.68 92.98c1-.39 2-.77 2.96-1.16.98-.4 1.92-.85 2.84-1.34a16.18 16.18 0 004.83-3.94.1.1 0 01.14-.02c.03.04.04.08.02.13-.5.96-1.2 1.83-1.99 2.56-.8.75-1.68 1.4-2.61 1.96a24.6 24.6 0 01-2.88 1.5 60 60 0 01-2.96 1.25"/><path d="M88.4 106.24c1.69.3 3.35.52 5.03.74a106.64 106.64 0 0010.14.76c1.7.06 3.4.07 5.1.11.06 0 .1.05.1.1a.1.1 0 01-.09.1c-1.69.2-3.4.29-5.1.32a84.4 84.4 0 01-10.24-.45 86 86 0 01-5.08-.66"/><path d="M121.86 100.84a53.53 53.53 0 008.81-2.17 55.57 55.57 0 004.24-1.63c1.4-.58 2.78-1.24 4.16-1.9.04-.02.11 0 .13.05.03.05.01.1-.03.13a32.57 32.57 0 01-4 2.29 47.32 47.32 0 01-8.62 3.23 46.3 46.3 0 01-4.5.99"/><path d="M79.4 94.02s.01 0 0 0a10.05 10.05 0 003.95-1.1c.6-.32 1.2-.7 1.72-1.15.54-.45 1.04-.95 1.53-1.47a.1.1 0 01.14 0c.03.04.05.09.02.12a6.26 6.26 0 01-1.27 1.82 9.5 9.5 0 01-6.01 2.82"/><path d="M81.56 92.2c.02 0 .02 0 0 0a10.1 10.1 0 003.47-3.1c.46-.62.85-1.32 1.15-2.05.3-.72.55-1.48.76-2.28a.1.1 0 01.12-.07c.05.02.07.05.08.1a7.2 7.2 0 01-.37 2.47 10.38 10.38 0 01-2.65 4.28 10 10 0 01-2.05 1.54"/><path d="M97.66 101.3a35.69 35.69 0 0012.42 4.15c1.45.2 2.93.32 4.4.4.06 0 .09.05.09.1a.1.1 0 01-.1.1c-1.48.16-2.97.14-4.47.02a34.23 34.23 0 01-8.75-1.98 30.6 30.6 0 01-4.1-1.88"/></g></g></svg>