<svg xmlns="http://www.w3.org/2000/svg" fill="#d7374a" stroke="#000" viewBox="50 50 200 200">
<metadata source="http://wappenwiki.org/images/1/1c/Astrakhan.svg" license="https://creativecommons.org/licenses/by-nc-sa/3.0"/>
  <g id="sabre2" stroke-width="3" transform="translate(46 22) scale(0.13)">
    <path d="M580 618l-13.3-41.8s-147.1 85.4-363.2-15.3c-26.7 25.4-71.9 46.1-94.6 48.5C305.6 773.5 580 618 580 618h0z"/>
    <path d="M669.3 539l13.3 9.2-2.4 14.8s-90.5 42.6-90.2 42.2c-5 .7-10.9-3.1-13.6-9.4-2.7-6-1.9-13 1.9-16.4-.1.2 91-40.4 91-40.4h0z"/>
    <path d="M713.6 569.7c5.3-5.9 7.3-15.4 3.9-23.4-3.1-7.4-8.6-15.5-16.3-16.7-8.9-1.5-28.5 8.3-38.9 12.8l.3.5c3.4 1 6.8 5 8.9 9.9 1.9 4.4 2.9 9.4 1.7 12.8l.3.7c5.6-2.4 17.5-8.1 22.8-3.5 5.3 4.8.9 7.7 4.5 10.3 3 2.2 8.7 1.2 12.8-3.4h0z"/>
    <path d="M599.6 638c-2.2-7-13-34.5-16.9-43.2h0c-4-8.7-17.7-34.9-21.6-41.1-7.6-11.5-18.2-19.5-30.3-14-8.1 3.7-10.7 11-7.6 17.6 2.1 4.5 6 7.6 10.8 5.5 2.6-1.2 2.7-2.3 3.7-3.9 1.2-1.9 1-3 3.2-4 3.6-1.7 7 1.7 8.9 3.9 2.2 2.6 5.9 9.5 8.1 14.4 5.3 10.9 8.4 29.2 8.4 29.2h0s11.8 14.3 16.6 25.5c2.2 4.9 5 12.3 5.6 15.6.4 2.9.8 7.6-2.9 9.2-2.3 1.1-3 .3-5.2-.1-1.9-.4-2.8-.9-5.3.2-4.8 2.2-5 7.2-2.9 11.7 3 6.6 10.2 9.5 18.4 5.7 11.8-5.5 12.7-18.9 9-32.2h0z"/>
    <path fill="none" d="M557.5 631.8c-6.3-7.6-14.9-5.3-14.9-5.3s-90.8 40.6-213.9 45.4c-80.3 3.1-173.6-35.4-219.6-62.4"/>
    <path fill="none" d="M588.1 575.4c4-.4 8.4 4.3 11 10.2 2.5 5.6 3.2 12 .4 14.9"/>
    <path fill="none" d="M603.1 568.5c4.1-.4 8.4 4.3 11 10.2 2.5 5.6 3.3 12 .4 14.9"/>
    <path fill="none" d="M618.3 561.7c4-.4 8.4 4.3 11 10.2 2.5 5.5 3.3 12 .5 14.9"/>
    <path fill="none" d="M633.6 554.7c4-.4 8.4 4.3 11 10.2 2.5 5.6 3.3 12 .4 14.9"/>
    <path fill="none" d="M648.6 547.8c4-.4 8.4 4.4 11 10.2 2.5 5.6 3.3 12 .5 14.9"/>
  </g>
</svg>