<svg xmlns="http://www.w3.org/2000/svg" fill="#d7374a" stroke="#000" viewBox="50 50 200 200">
  <metadata source="http://wappenwiki.org" license="https://creativecommons.org/licenses/by-nc-sa/3.0"/>
  <g id="swanErased" stroke-width=".68">
    <path d="M88.86 86.67a47.26 47.26 0 00-10.11 3.27c-2.94 1.26-5.8 2.85-8.95 3.55-3.06.61-6.59.25-8.96-1.93-.36-.2-1.24-2.07-.5-1.63 2.8 1.7 6.32 1.52 9.42.92 3-.51 5.8-1.72 8.63-2.8a39.02 39.02 0 018.55-2.1c.6-.1 1.2-.17 1.79-.24"/>
    <path d="M87.2 79.8c-.76-.62-.57-2.44-2.07-2.67-.7-.1-.81 0-1.17.14l-1.14 1.16s-2.13 1.6-4 2.9a55.4 55.4 0 01-5.52 2.65c-.73.27-.73.27-2.03.86-1.3.6-2.07.76-2.47 1.28-.38.53-.83 1.1-.7 1.76 0 0 .25.4 1.94.3 2.33-.23 3.49-.94 5.73-1.47 2.47-.56 3.9.33 6.25-.09 2.6-.45 3.44-2.91 5.98-.07-1.89 1.19-3.86 1.68-6.64 3.2-1.74.96-2.61 1.37-3.7 2.24-1.58 1.26-3.29 2.05-4.6 3.42-.19.18.06.99.88.7a5.31 5.31 0 001.69-1.07c.75-.66 1.21-.68 2.52-1.5 1.26-.8 2.2-1.24 2.78-1.6a18 18 0 013.49-1.66c1.96-.62 3.94-1.62 3.94-1.62.23-1.33.83-1.97 1.13-3.59.4-3.65-1.52-4.66-2.3-5.27z"/>
    <path d="M132.01 73.7c-5.09-4.12-11.02-4.6-15.46-4.6-4.14 0-6.88.98-8.7 1.55 0 0-3.38-3.6-9.36-3.72-8.72-.16-11.08 4.1-11.88 5.68-.82 1.58-3.75 4.89-3.02 4.75.74-.16.68-.36 1.56-.23 1.5.2 1.32 2.05 2.07 2.67.75.61 2.7 1.62 2.28 5.22-.3 1.65-.89 2.27-1.11 3.6.47 1.32 3.53.71 3.53.71s9.4 3.41 14.8-6.45c0 0 4.05-3.17 10.19-3.17 7.96 0 12.72 3.24 12.72 8.7 0 5.3-4.94 9.2-11.7 12.1-10.49 4.57-24.66 6.44-29.32 7.72-8.55 1.9-14.65 5.07-17.9 11.16l-.05.07c0 .02-.03.05-.03.05s0 .02-.02.02a23.17 23.17 0 00-2.03 5.94 5.04 5.04 0 01-.42 1.04c-1.2 2.26-3.2 3.31-4.7 4.01 3.45.76 5.53 1.01 8.86-.79 3.29-1.78 3.17-2.44 3.9-3.17l.03.02c0 .63 4.78 5.52 8.87 6.07a8.16 8.16 0 011.53-6.53.26.26 0 00.07-.09c.85.9 1.35.5 4.02 2.58 2.8 2.2 6.5 2.43 9.97 1.67-1.5-.72-6.87-3.08-8.17-9.1-.1-1 .45-1.5 1.26-1.9 2-.62 5.06-.82 9.36-1.67 10.08-1.98 19.44-5.45 25.3-9.88 8.21-5.25 10.8-12.25 10.8-19.19a18.75 18.75 0 00-7.24-14.83z"/>
    <path fill="#fff" d="M91.85 73.93c.8.03 1.24 1.03 1.24 1.98-.02.97-.69 1.65-1.49 1.62a1.53 1.53 0 01-1.13-.45c-.44-.56-.5-1.09-.42-2.07 0-.48.98-1.1 1.8-1.08z"/>
    <path fill="#000" stroke="none" d="M91.26 73.2c.17.68.02 1.34-.3 1.47-.36.13-.77-.33-.95-1.04-.17-.68-.02-1.34.3-1.47.41-.13.62-.3.95 1.04zm-8.98 4.51c-.06 1.33-2.89 3-3.21 2.67.47-1.46 2.24-1.68 3.21-2.67zm-.23 2.44c-.18-2.32 3.88-1.55 1.79.07-2.19 1.1 1.24-1.68-.9-.71-.3.2-.6.43-.89.64zm8.78-.64c0 1.56-.19 3.13-.11 4.69-.73-.33-.75-1.62-.73-2.39.08-.8.28-1.71.84-2.3zm7.73-7.33c.28-1.48 3.54-.84 1.2-.1-.38.16-.8.17-1.2.1zm3.17.54c.57-1.55 3.4-.04 1.11.02-.37.03-.74.06-1.11-.02zm2.51 1.49c1.6-1.12 3.37 2.37 1.02.62-.35-.19-.69-.4-1.02-.62zm-9.59-.76c-.94.68-3.24 1.59-1.42-.1.41-.3 1.06-.28 1.42.1zm-6.49-2.41c1.72.8 4.59-2.63 4.97-1.58-1.2 1.06-3.05 2.93-4.74 1.8a1.67 1.67 0 01-.23-.22zm-14.42 50.49c-.71 2.73-.54 5.68.54 8.29-1.8.57-1.16-3.41-1.29-4.71.1-1.22.35-2.43.75-3.58zm11.48 7.6a5.96 5.96 0 00-.5-7.14 6.44 6.44 0 011.14 7.58l-.64-.44z" transform="matrix(.9 0 0 .9 9.7 9.7)"/>
  </g>
</svg>
