<svg xmlns="http://www.w3.org/2000/svg" fill="#d7374a" stroke="#000" viewBox="50 50 200 200"><metadata license="https://creativecommons.org/licenses/by-nc-sa/3.0" source="http://wappenwiki.org"/><g id="swan" stroke-width=".4"><path d="M98.47 117.98c-.82.81-1.16 1.74-2.01 2.57-.38.37-1.5 1.13-2.62 1.97-1.36 1.03-2.65 1.85-2.88 2.5-.18.52-.09.67.08 1.1a5.93 5.93 0 001.45 1.64c.2.1.3.57.22 1.05-.07.52-.51.95-.51.95s-.05-.87-.53-1.3a4.46 4.46 0 00-1.28-.85c-.9-.32-2.38.07-4 1.16a15.42 15.42 0 00-3.9 3.6c-.6.86-.75 1.51-.84 1.53-.1 0-.48-1.07-.1-2.2a5.87 5.87 0 00-1.14-3.05 4.27 4.27 0 00-3.24-1.48c-.98.02-1.7.6-1.74.54-.04-.06.08-.52.48-1.12.27-.42.74-.5.99-.62.17 0 2.38-1.2 3.29-2.06.9-.86.8-1.68.82-1.91-.03-.57-.76-1.08-1.4-1.23.1-.13.38-.29.93-.3.64-.03 1.21.37 1.21.37s2.73 1.91 4.64 2.59c1.49.52 3.16-.7 3.16-.7s.25-.35.55-.55c.24-.17.51-.22.51-.22s.26-.33.57-.55c.31-.22.63-.33.63-.33s.27-.35.57-.58c.23-.17.54-.25.54-.25s.54-.44.69-.63c.26-.36.26-1.03.62-1.44.39-.44.82-.57 1.31-.7.5-.14.62.03 1.19-1.03 2.6-4.91 1.83.4 1.83.4s.73.32-.09 1.13z"/><path d="M105.86 114.6s-1.66 2.3-2.46 2.53c-.77.22-1.28.13-1.64.2-1 .26-3.32.9-3.32.9s-.38-.55-.86-.98c-.51-.46-1.1-.72-1.1-.72s-.46-1.1-.03-2.46c.42-1.35 4.22-1.23 4.22-1.23l5.2 1.77zm4.06 6.2c-.43 1.06-.37 2.05-.82 3.16-.2.5-.92 1.64-1.6 2.86-.84 1.5-1.7 2.76-1.65 3.45.04.55.2.64.52.98.48.47 1.83.89 1.98.9.21.02.5.41.62.87.14.52-.1 1.09-.1 1.09s-.39-.78-.99-1a4.76 4.76 0 00-1.51-.27c-.95.08-2.16 1.02-3.2 2.66-1 1.57-1.92 3.59-2.13 4.86-.2 1.04-.09 1.7-.17 1.74-.08.06-.86-.78-.97-1.97a5.89 5.89 0 00-2.27-2.34 4.24 4.24 0 00-3.55-.06c-.9.41-1.3 1.24-1.38 1.2-.06-.04-.13-.52-.02-1.22.09-.5.49-.77.65-.97.17-.07 1.7-2.05 2.19-3.2.48-1.16.06-1.86-.02-2.08-.25-.5-1.11-.69-1.77-.57.04-.15.23-.41.73-.65.58-.28 1.26-.14 1.26-.14s3.27.66 5.29.5c1.57-.11 2.61-1.9 2.61-1.9s.09-.43.28-.73c.16-.26.39-.41.39-.41s.1-.41.3-.74c.2-.32.44-.56.44-.56s.1-.44.29-.75c.14-.25.4-.45.4-.45s.31-.61.37-.86c.1-.43-.16-1.05 0-1.56.17-.56.52-.85.92-1.18.4-.32.58-.22.67-1.42.43-5.54 1.63-.19 1.63-.19s1.03-.11.61.95z"/><path d="M115.5 116.05s.04.9-1.52 2.04c-.65.48-1.02.58-1.33.79-.82.64-2.68 2.15-2.68 2.15s-.57-.36-1.19-.56c-.65-.2-1.29-.2-1.29-.2s-.85-.84-1-2.25c-.16-1.4-.54-1.15-.97-1.96M85.7 72.32a33.5 33.5 0 00-7.41 2.17c-2 .76-4.04 1.62-6.22 1.5-1.3-.05-2.72-.36-3.67-1.31-.28-.32-.5-1.03.09-.57 1.8.83 3.87.68 5.77.35 2.77-.45 5.31-1.74 8.08-2.18 1.09-.2 2.18-.34 3.28-.45"/><path d="M84.68 68.74c-.46-.33-.35-1.27-1.27-1.39-.42-.05-.48 0-.71.07l-.7.6s-1.29.82-2.45 1.5c-.4.25-2.61 1.13-3.38 1.38-.45.15-.45.15-1.25.46-.8.3-1.27.39-1.5.66-.23.27-.52.57-.43.91 0 0 .15.21 1.17.16 1.42-.13 2.14-.48 3.51-.76 1.5-.29 2.39.17 3.83-.05 1.6-.24 2.1-1.52 3.65-.04-1.17.6-2.37.87-4.06 1.66-1.05.5-1.6.71-2.26 1.17-.96.65-2 1.07-2.82 1.77-.1.1.03.52.55.37.39-.11.71-.32 1.03-.56.46-.33.75-.35 1.53-.77.8-.42 1.36-.64 1.7-.83.36-.2 1.31-.65 2.15-.87 1.2-.32 2.42-.84 2.42-.84.13-.69.5-1.02.68-1.87.25-1.88-.92-2.4-1.39-2.73z"/><path d="M134.1 102.65c0-.16-1.36-.07-3.42-.1 0-.55-2.59-.08-3.35-.2 0-.44-2-.3-3.1-.54-.05-.65-1.9-.47-2.95-.9-.1-.58-.9-.11-2.08-1.09-2.4-1.58-5.12-4.8-9.94-7.13a36.18 36.18 0 00-10.99-3.62c-.92-.18-2.2-.38-2.2-.38.4-.13 8.55-2.04 13.8-5.4 5.05-2.72 6.63-6.36 6.63-9.97 0-3.21-1.63-5.83-4.4-7.74-3.12-2.15-6.74-2.4-9.47-2.4-2.53 0-4.2.51-5.32.8 0 0-2.07-1.86-5.72-1.93-5.34-.08-6.78 2.14-7.28 2.96-.5.82-2.29 2.54-1.84 2.47.44-.08.4-.2.94-.12.93.12.81 1.06 1.27 1.39.47.33 1.64.85 1.4 2.71-.19.85-.54 1.18-.68 1.87.3.7 2.16.38 2.16.38s5.75 1.78 9.04-3.36c0 0 2.5-1.65 6.25-1.65 4.86 0 7.77 1.68 7.77 4.52 0 2.76-3 4.78-7.14 6.3-6.43 2.38-15.1 3.35-17.93 4.02-7.05 1.31-11.36 3.86-12.4 9.63-.69 3.82 1.13 7.3 4.27 11.4 4.96 5.98 13.5 8.68 17.38 10.02 3.77 1.33 3.98 1.35 7.76 1.89 1.14.16 2.39.3 3.59.4.14.22.26.51.33 1.15a3.96 3.96 0 001.01 2.24 4.7 4.7 0 002.48.77s1.86-1.51 2.68-2.15c.3-.21.66-.3 1.33-.8.46-.33.79-.65 1.02-.93.52-.05 1.09-.13 1.66-.24 3.73-.31 5.27-.8 7.04-1.08a15 15 0 006.53-2.85c1.65-1.52 1.96-2.07 1.86-2.42s-1.04.33-1.97.15c-.72-.15-1.66-.68-2.69-.8-1.48-.18-4.2-.16-5.01-1.38 1.22.22 6.85-.78 7.47-2.12.55.04 2.3-.64 3.22-1.71.78-.26 1.36-1.45 1-2.06z"/><path fill="#fff" d="M87.52 65.7c1.4.23.66 2.39-.56 1.81-1.07-.48-.6-1.98.56-1.81z"/><g fill="none"><path d="M87.68 94.95c-1.17.4-3.06.41-4.55 1.1-1.63.74-2.8 2.2-2.8 3.44 0 2.4 1.58 4.68 4.6 6.35 4.45 2.48 10.93 3.11 10.93 3.11s4.66 1.76 11.56.95c8.06.91 14.08-.66 15-1.38"/><path d="M102.12 101.71c-.47 1.42-1.86 1.66-1.86 1.66s-.63 1.36-2.47 1.62"/><path d="M87.66 104.96c1.88.93 4.2 1.25 4.2 1.25s1.73.9 3.51 1.27c1.82.38 3.44.21 3.44.21s.66-.11 1.02-.36c.51-.05 1.31-.27 1.53-.89.21-.27-.29-.55-.29-.55s.75.15 1.3-.26c.46.05.98-.31 1.26-.5.55-.36-.06-1.07-.06-1.07s1.02.09 1.3-.5c.37-.15.88-.16 1.49-.98.31-.5-.52-.72-.52-.72s1.12-.27 1.55-.86c1.12-.57.43-1.46.24-1.62"/></g><g fill="#000" stroke="none"><path d="M87.74 92.11c.06.6-1.5 1.25-.91.63.37-.07.7-.43.91-.63zm20.81 7.19c1.24.6 2.66.18 3.9.1 1.27.44 2.61-.02 3.8-.37.77.02 1.86-.24 1.99-1.12.64.17-.36 1.16-.88 1.21-.72.26-1.27.03-1.81.4-1 .33-2.5.44-3.24.03-1.22.29-2.75.48-3.76-.25zm1.4-1.3c1.18.7 2.48-.18 3.72.16.47.22 2.45-.58 1.79-.18a4.9 4.9 0 01-2.92.28c-.8.26-1.93.37-2.59-.26zm-14.47-1.03c-.6.4-2.84-.67-2.38-.71.72.43 1.59.49 2.38.71z" transform="translate(1 2)"/><path d="M86.34 91.37c.78.23.48 2.31.29 1.29.14-.47-.06-.93-.29-1.29zm.18-26.82c.18 1.16-.56.67-.65.13-.08-.5.5-1.16.65-.13zm-4.96 2.12c-.2.79-1.24.98-1.8 1.38.25-.8 1.22-.91 1.8-1.38zm-.11 1.13c.01-.7 1.4-1.1 1.22-.19-.76.52-.67.28-.27-.2-.35-.13-.7.25-.95.39zm4.83-.3c-.15.62 0 1.85-.17 2.12-.4-.6-.24-1.57.17-2.12zm4.26-3.42c.37-.75 1.93-.3.49-.06-.16.04-.33.06-.49.06zm1.74.24c.17-.49 1.54-.28 1.03-.05-.34.05-.7.08-1.03.05zm1.38.71c.44-.32 1.3.21 1.22.56l-1.22-.56zm-5.28-.36c-.37.03-1.02.65-1.18.38.25-.37.77-.74 1.18-.38zm-3.58-1.13c1.08.35 1.97-.92 2.92-.83-.9.43-1.89 1.61-2.92.83zm18.92 30.82c-.67.43-1.28 1.55-2.12 1.29.88-.11 1.25-1.13 2.12-1.29zm-2.67 2.62c.32.19 2.06-.85 1.52-.3a1.6 1.6 0 01-1.52.3zm-4.15 6.12a3.9 3.9 0 01-3.56.56c1.16.2 2.48.04 3.36-.81.03 0 .19.3.2.25zm5.91-5.34c.04.99-.8 1.74-1.65 2.08-.18-.65 1.34-.62 1.42-1.46.12-.13.18-.6.23-.62z" transform="translate(1 2)"/><path d="M106.53 97.51c-1.07-.1-3.5-.7-.92-.34.24.08 1.48-.26.92.34zm-23.13 2.97c.99.93 2.09 1.77 3.33 2.33-.36.66-1.33-.64-1.85-.87a9 9 0 01-1.48-1.46zm7.56-2.6c.87.6 2.03.66 2.96 1.02-1.01-.04-2.24-.24-2.96-1.02zm-2.34 1.82c1.4.87 3.13.94 4.66 1.21-1.59.05-3.43-.1-4.66-1.21zm8.92 3.77c.77.37 1.97.07 2.51.4-.43.36-1.88-.1-2.51-.4zm2.31-1.92c.68.61 2.9 0 2.55.65-.83-.04-1.95-.12-2.55-.65zm2.47-1.96c.8.23 1.66.3 2.48.13.1.73-1.4.19-1.92.12-.15-.08-.52-.12-.56-.25zm-7.6 3.04c.49.36 2.76.02 1.76.48a3.68 3.68 0 01-1.76-.48zm1.78-1.78c.77.63 2.5-.06 2.76.68a5.37 5.37 0 01-2.76-.68zm1.74-1.4c.93.28 1.93.27 2.87.09-.12.69-1.68.22-2.36.09-.18-.04-.34-.14-.51-.18zm7.3-.54c-.57.32-3.48.2-2.78-.42.76.6 1.94.37 2.78.42zm-2 2.1c-.85.15-2.6.35-2.98-.39.74.07 2 .67 2.97.36v.03zm-2.31 1.79c-1 .23-2.14.26-3.07-.26.5-.4 1.56.55 2.39.29.21.02.54-.07.68-.03zm-2.95 1.88c-1 .3-2.38.32-3.15-.42.98.47 2.1.37 3.15.42zm31.55-4.2c.43.9-.8 1.99-1.28 2.02a5.66 5.66 0 01-3.5 1.44c0 .29-2.16.97-2.9 1.05-1.48.29-3.28.66-4.63.63-2.12.55-4.5.69-6.72.5-1.49-.08-4.44.2-6.41-.07-.56.2-3.48-.8-1.4-.26 2.54.31 5.2.16 7.71.05 2.18.26 4.5.03 6.63-.44 2.28-.2 4.68-.6 6.9-1.34.6-.5 1.24-.5 1.97-.65 1.13-.28 1.98-1.1 2.96-1.63.45-.29.37-1.01.55-1.26l.12-.05z" transform="translate(1 2)"/><path d="M126.47 100.22c.27.9-.74 1.56-1.53 1.61-.09.39-1.67 1.12-2.45 1.25-1.65.13-3.02 1.34-5.18 1.24-2.48.13-4.92.02-7.4.04-2-.1-4.13-.14-6.05-.47 3.35.2 6.72.35 10.05.19 2.53.1 5.27.02 7.54-1.14a6.01 6.01 0 003.45-1.41c.6-.07 1.43-.53 1.27-1.24l.15-.04z" transform="translate(1 2)"/><path d="M123.37 99.67c.37.9-1.29 1.44-1.35 1.36-.84.75-2.15.87-3.23.77-.82.79-3.47 1.04-5.03.8-1.57-.1-3.17.4-4.78.17-.8-.14-2.18.04-2.67-.68 1.64.86 3.68.4 5.47.39 2.2-.44 4.56.31 6.67-.71 1-.53 2.54-.05 3.4-1.03.53-.06 1.33-.36 1.21-1.01l.31-.06z" transform="translate(1 2)"/><path d="M120.43 98.8c.28.75-1.06 1.12-1.06 1.1a3.5 3.5 0 01-2.46.56c-.01.34-1.85.7-2.56.65-1.9-.23-3.8.3-5.72-.04-3.07-.83 2.37.39 3.03-.17 1.55-.33 3.15.2 4.69-.4.86-.6 2.16-.15 2.95-.93.7.12.69-.74 1.13-.76zm5.84 10.26c1.35.49 2.78-.27 4.08-.62-.17.87-2.27.73-3.2.86-.27-.02-.72 0-.88-.24z" transform="translate(1 2)"/><path d="M130.67 108.67c-1.73.42-3.4 2.02-5.17 1.6 1.92.24 3.34-1.41 5.08-1.91 0 .1.1.2.09.31zm-23.99 4.03c.95.62.42 2.03.71 2.91-.79-.75-.13-2.1-.71-2.91zm5.95-.08a4.4 4.4 0 00-1.27-2.36c.86.38 1.48 1.43 1.27 2.36zm1.73 1.4c.38-.94 1.36-1.73 1.24-2.76.33 1.09-.68 1.89-.93 2.87-.1-.01-.2-.1-.31-.11zm-9.99.09c-.35-1.05-1.66-1.83-1.96-2.71.08.7 2.93 2.2 1.96 2.71z" transform="translate(1 2)"/><path d="M102.2 112.53c.4.78 2.66 1.14 2.15 1.61-.78-.38-1.74-.88-2.15-1.61zm2.32 1.52l.35.5.29.33m8.84.27c.2-.34.36-.7.51-1.07m-8.72 9.25c-.33-.15-.7-.18-1.06-.12-.18-.63.7-.14 1 .01 0 .05.13.05.06.11zm-1.78.79c.29-.04 1.04.2 1 .35-.3-.16-.65-.12-.96-.05l-.04-.3zm-.73 1.29c.38-.02.81.04 1.07.34-.28-.09-.68-.19-.98-.02-.02-.1-.09-.24-.09-.32zm-.65 1.1c.3.08.76.15.88.43-.23-.28-.96.11-.89-.3l.01-.13zm4.81 3.75c-.3.08-.58.68-.4.02.2-.42.19-.3.4-.02zm-12.59-2.19c.07.2-.34 1.15-.28.65.1-.33-.25-.69.28-.65zm-2.46 6.53c.25.06.7 1.06.35.59-.17-.3-.65-.2-.35-.59zm6.46 3.43c.2-.16.98.12.8.18-.26-.13-.64.24-.74-.08l-.06-.1zm.17-.65c.02-1.43.98-2.6 1.39-3.92.07-.45-.22-1.03-.75-.93-1.26.15-2.42.73-3.57 1.24-.7.32-1.42.66-2.02 1.15.28-.47 1.01-.8 1.51-1.13 1.25-.63 2.52-1.37 3.94-1.55.59-.07 1.18.35 1.18.98.03.9-.64 1.61-1.01 2.4a5.74 5.74 0 00-.66 1.82v-.05zm-5.69-3.5c1.22-1.23 2.97-1.66 4.4-2.58.5-.26.58-1.13-.11-1.14-.83-.15-1.7-.18-2.46-.62.47.01 1.08.27 1.6.26.55.09 1.3-.05 1.62.5.27.73-.47 1.31-1.06 1.59-1.33.67-2.79 1.09-3.99 1.99zm6.83-4.04c.7-.62 1.25-1.4 1.63-2.26.04-.39.6-.46.43-.1-.48.7-.87 1.46-1.55 1.99-.15.09-.37.42-.51.37zm-8.62-3.94c-.2-.1-.49.17-.54.14.05-.23.28-.36.48-.45l.06.31zm-10.99 3.67c.32.02.57.26.76.5a3.37 3.37 0 00-.72-.23l-.04-.27zm.41-.53c.53-1.12 1.59-1.84 2.5-2.63.34-.3.62-.79.44-1.25-.25-.4-.78-.44-1.2-.52a23.16 23.16 0 00-3.21-.1c-.7.04-1.4.06-2.07.24.46-.38 1.41-.35 2.05-.46 1.34-.12 2.75-.18 4.07.17.45.15.81.62.68 1.11-.12.76-.86 1.17-1.42 1.61a7.2 7.2 0 00-1.78 1.69l-.03.11zm14.08-11.94c.02.35-.35.75-.68.65.2-.24.51-.38.68-.65zm-2.24 1.78a1.82 1.82 0 00-.92-.51c.03-.57.47 0 .7.16.07.08.23.31.22.35zm-1.95 0c.31.15.77.43.79.77-.2-.28-.56-.43-.9-.46l.11-.31zm-1.19.9c.36.08.7.36.82.72-.18-.13-.38-.4-.66-.4-.3.04-.18-.1-.16-.32zm-1.03.75c.27.18.6.4.67.74-.13-.29-.86-.27-.72-.6l.05-.14zm-7.75-1.7c-.03.2-.67.86-.54.55.3-.28 0-.8.54-.55zm-4.88 5c.16.17.26.97.1.86.08-.32-.56-.55-.2-.76l.1-.1zm1.16-.27c1.58-.67 3.31-.35 4.96-.6.38-.06.9-.35.78-.8-.48-.57-1.26-.78-1.78-1.32-.2-.08-.8-.86-.29-.38.63.6 1.51.82 2.17 1.38.5.43.1 1.2-.46 1.33-1.39.42-2.85.09-4.27.22-.38.02-.74.1-1.11.17zm7.88-.96c.7-.25 1.4-.56 1.97-1.05.1-.27 1.12-.92.91-.32-.7.37-1.31.94-2.1 1.16-.26.07-.52.16-.78.21zm22.16-1.81c.17.32-.07.81-.4.86.14-.28.28-.57.4-.86zM95.08 86.87a19.9 19.9 0 00-11.49 2.67c3.21-2.35 7.4-3.17 11.31-3 .34-.05.19.12.18.33z" transform="translate(1 2)"/></g></g></svg>