<svg xmlns="http://www.w3.org/2000/svg" fill="#d7374a" stroke="#000" viewBox="50 50 200 200">
  <metadata source="http://wappenwiki.org" license="https://creativecommons.org/licenses/by-nc-sa/3.0"/>
 <g id="wheel" transform="translate(31.2 79.3) scale(.1296)" stroke-width="3">
  <path d="M478.6-3.4c13.1-7.8 29.4-33.7 29.4-49l-.2-45.3h44.5l-.2 45.3c0 15.3 16.2 41.2 29.4 49M581.6 1.1c-13.1 7.8-29.4 33.7-29.4 49l.2 45.3h-44.5l.2-45.3c0-15.3-16.2-41.2-29.4-49"/>
  <path d="M581.6 5.1l-1.5-.2c-.2-.1-20-5.5-50-5.5-29.9 0-49.8 5.4-50 5.5-3 .8-6.1-.9-7-3.9-.8-3 .9-6.1 3.9-7 .9-.2 21.4-5.9 53-5.9s52.1 5.6 53 5.9c3 .8 4.8 4 3.9 7a5.4 5.4 0 01-5.3 4.1zM581.6 321.4c-13.1 7.8-29.4 33.7-29.4 49l.2 45.3h-44.5l.2-45.3c0-15.3-16.2-41.2-29.4-49M478.6 317c13.1-7.8 29.4-33.7 29.4-49l-.2-45.3h44.5l-.2 45.3c0 15.3 16.2 41.2 29.4 49"/>
  <path d="M478.6 312.9l1.5.2c.2.1 20 5.5 50 5.5 29.9 0 49.8-5.4 50-5.5 3-.8 6.1.9 7 3.9.8 3-.9 6.1-3.9 7-.9.2-21.4 5.9-53 5.9s-52.1-5.6-53-5.9c-3-.8-4.8-4-3.9-7a5.6 5.6 0 015.3-4.1zM645 33.3c13.3 7.5 43.8 8.6 57.1 1l39.1-22.8L763.5 50s-23.7 13.4-39.3 22.5c-13.2 7.6-27.5 34.6-27.7 49.9M692.6 124.6c-13.3-7.5-43.8-8.6-57.1-1l-39.1 22.8-22.3-38.6s23.7-13.4 39.3-22.5c13.2-7.6 27.5-34.6 27.7-49.9"/>
  <path d="M689.1 126.7c-.3-.4-.4-.9-.6-1.4-.1-.2-5.3-20.1-20.3-46a204.7 204.7 0 00-29.7-40.5 5.7 5.7 0 01-.1-8 5.7 5.7 0 018-.1c.6.6 15.8 15.6 31.6 43s21.2 48 21.4 48.8c.8 3-1 6.1-4.1 6.9-2.4.6-4.9-.6-6.2-2.7zM415.2 284.8c-13.3-7.5-43.8-8.6-57.1-1L319 306.6 296.7 268s23.7-13.4 39.3-22.5c13.2-7.6 27.5-34.6 27.7-49.9M367.6 193.4c13.3 7.5 43.8 8.6 57.1 1l39.1-22.8 22.3 38.6s-23.7 13.4-39.3 22.5c-13.2 7.6-27.5 34.6-27.7 49.9"/>
  <path d="M371.1 191.4c.3.4.4.9.6 1.4.1.2 5.3 20.1 20.3 46s29.5 40.4 29.7 40.5a5.7 5.7 0 01.1 8 5.7 5.7 0 01-8 .1c-.6-.6-15.8-15.6-31.6-43s-21.2-48-21.4-48.8c-.8-3 1-6.1 4.1-6.9 2.4-.6 5 .6 6.2 2.7zM415.2 33.3c-13.3 7.5-43.8 8.6-57.1 1L319 11.5 296.7 50s23.7 13.4 39.3 22.5c13.2 7.6 27.5 34.6 27.7 49.9M367.6 124.6c13.3-7.5 43.8-8.6 57.1-1l39.1 22.8 22.3-38.6s-23.7-13.4-39.3-22.5c-13.2-7.6-27.5-34.6-27.7-49.9"/>
  <path d="M371.1 126.7c.3-.4.4-.9.6-1.4.1-.2 5.3-20.1 20.3-46s29.5-40.4 29.7-40.5a5.7 5.7 0 00.1-8 5.7 5.7 0 00-8-.1c-.6.6-15.8 15.6-31.6 43s-21.2 48-21.4 48.8c-.8 3 1 6.1 4.1 6.9 2.4.6 5-.6 6.2-2.7zM645 284.8c13.3-7.5 43.8-8.6 57.1-1l39.1 22.8 22.3-38.6s-23.7-13.4-39.3-22.5c-13.2-7.6-27.5-34.6-27.7-49.9M692.6 193.4c-13.3 7.5-43.8 8.6-57.1 1l-39.1-22.8-22.3 38.6s23.7 13.4 39.3 22.5c13.2 7.6 27.5 34.6 27.7 49.9"/>
  <path d="M689.1 191.4c-.3.4-.4.9-.6 1.4-.1.2-5.3 20.1-20.3 46a204.7 204.7 0 01-29.7 40.5 5.7 5.7 0 00-.1 8 5.7 5.7 0 008 .1c.6-.6 15.8-15.6 31.6-43s21.2-48 21.4-48.8c.8-3-1-6.1-4.1-6.9-2.4-.6-4.9.6-6.2 2.7z"/>
  <path d="M679.2 417.5A298.2 298.2 0 11381-99a298.2 298.2 0 01298.2 516.5zm48-372.4a227.7 227.7 0 10-394.4 227.8A227.7 227.7 0 00727.2 45.1z"/>
  <path d="m 530.1,52.5 c -52.3,0 -94.7,42.4 -94.7,94.7 0,52.3 42.4,94.7 94.7,94.7 52.3,0 94.7,-42.4 94.7,-94.7 0,-52.3 -42.4,-94.7 -94.7,-94.7 z m 0,48.1 c 25.7,0 46.6,20.8 46.6,46.6 0,25.7 -20.8,46.6 -46.6,46.6 -25.7,0 -46.6,-20.8 -46.6,-46.6 0,-25.7 20.8,-46.6 46.6,-46.6 z"/>
  <g fill="none">
    <circle cx="530.1" cy="159.3" r="284.9"/>
    <circle cx="304.1" cy="290.2" r="11.4"/>
    <circle cx="757.8" cy="28.3" r="11.4"/>
    <circle cx="530.9" cy="-102.7" r="11.4"/>
    <circle cx="530.9" cy="421.2" r="11.4"/>
    <circle cx="304.1" cy="28.3" r="11.4"/>
    <circle cx="757.8" cy="290.3" r="11.4"/>
  </g>
 </g>
</svg>
