<svg xmlns="http://www.w3.org/2000/svg" fill="#d7374a" stroke="#000" viewBox="50 50 200 200"><metadata license="https://creativecommons.org/licenses/by-nc-sa/3.0" source="http://wappenwiki.org"/><g id="wingSword" stroke-width=".33"><path d="M80.39 125.57h-4.15l-.33-.38c.19-7.32.97-50.3.97-51.08 0-1.24.52-6.48 1.4-6.48s1.46 5.2 1.46 6.5c0 .06.78 43.64.96 51.07l-.31.37z"/><path d="M78.92 125.24H77.7s.26-45.82.6-45.82c.34 0 .62 45.82.62 45.82z"/><path d="M79.4 135.75h-2.18s-.97-9.76-.94-9.72c.2-.47 1.1-.84 2.04-.83.89 0 1.8.36 2.02.83l-.94 9.72z"/><path fill="none" d="M80.2 127.05c-.18.38-1.01.57-1.9.56-.82 0-1.68-.2-1.88-.56m3.58 1.72c-.15.34-.91.51-1.7.5-.74 0-1.5-.16-1.68-.5m3.26 1.63c-.15.32-.85.46-1.57.46-.69 0-1.4-.14-1.56-.45m2.99 1.64c-.14.28-.77.4-1.43.4-.62 0-1.27-.12-1.42-.4m2.62 1.61c-.12.24-.65.32-1.2.32-.52 0-1.08-.08-1.2-.32"/><path d="M78.3 126.66c2.97-.02 5.8-.14 8.75-.38-.18-.6-.38-1.68-.56-2.28-1.36.28-2.46.87-3.84 1.05-1.45.18-3.3-.2-4.34-.4-1.04.2-2.9.57-4.35.4-1.37-.18-2.48-.77-3.83-1.05-.19.6-.38 1.67-.57 2.28 2.96.24 5.79.37 8.75.38zm0 13.46c1.4 0 2.53-1.04 2.53-2.44 0-1.05-.64-1.96-1.56-2.34-.25.13-.66.18-1.1.17-.34 0-.69-.04-.95-.13a2.53 2.53 0 00-1.45 2.29 2.47 2.47 0 002.54 2.45z"/><path fill="none" d="M76.63 138.1a1.68 1.68 0 013.36 0c0 .93-.76 1.6-1.68 1.6s-1.68-.68-1.68-1.6z"/><path d="M97.21 134.88c-.48-.18-1.43-.03-1.9-.27-.15-.08.1-1.47-.77-1.91-.41-.22-2.1-.1-2.31-.43s-.24-2.02-.55-2.28a2.43 2.43 0 00-1.86-.52c-2.09 0-4.04-.05-5.4-.84-.8-.46-2.1-2.8-3.69-3.63-.8-.34-2.31-.2-3.63-.15-1.3.06-2.5-.07-3.28.54-.52.57-.34 1.53-1.28 2.79-.07.08-1.26 1.15 0 2.4-.66 1.57.07 1.9.37 2.13-.7 1.3.7 2.33.7 2.33s-.11.68.21 1.27c.26.5.6 1.01 1.7.99.65 0 2.15-.52 2.15-.52s1.52-.48 1.3-1.26c-.23-.98-1.56-.65-1.56-.65s1.61-.44 1.35-1.34c-.27-.8-1.2-.56-1.2-.56s.99-.35.73-1.18c-.24-.76-1.03-.7-1.37-.64l-.16.04.16-.04c.33-.1 1-.36.9-1.01-.14-.74-1.29-.84-1.29-.84s-.06-1.66-.1-1.66c.45 0 1.28-.24 1.28-.24s.33.73.87 1.35a10.4 10.4 0 001.36 1.26l-.5 5.35s.9.6 1.16 1.28c1.1.35 2.41.64 4.52-.03 1.68-.48 2.98-.16 5.69-.11 3.36-.07 6.5-.25 7.15-.98l-.02-.16a2.48 2.48 0 00-.73-.48z"/><path fill="none" d="M73.12 129.33s.7-.64.88-1.76c0 0-.24-.38-.75-.76"/><path fill="none" d="M72.8 127.83s-.52 1.1-.02 1.4c1.41.68 2.71-1.67 2.71-1.67s.54.1 1.27.08m-3.13 7.41s.95.42 1.58.38c.63-.05 2.23-.56 2.23-.56m-4.52-2.16s1.25.68 1.74.72c.48.05 2.91-.46 2.91-.46m-.8-1.78s-1.7.22-2.23.23c-.54 0-1.97-.84-1.97-.84"/><path fill="none" d="M76.54 129.3h-.41l-.26.01c-.24.03-.6.05-.91.05h-.1c-.28 0-.9-.2-.9-.2m3.39 6.31c.2-.3.96-.35.96-.35s.24.28.29.53c.04.22-.12.51-.12.51s-.66.32-.96.12c-.3-.2-.37-.5-.17-.81zm-.39-1.9c.21-.3 1.16-.38 1.16-.38s.24.29.28.55c.04.21-.13.5-.13.5s-.86.36-1.15.16c-.3-.21-.36-.52-.16-.83zm-.51-1.72c.21-.3 1.2-.38 1.2-.38s.26.28.3.54c.03.22-.13.51-.13.51s-.92.36-1.22.15c-.29-.2-.35-.52-.15-.82zM76 130.1c.2-.3 1.16-.36 1.16-.36s.28.16.3.53c.02.37-.18.49-.18.49s-.83.35-1.12.15c-.31-.2-.37-.51-.16-.82z"/><path d="M108.51 124.85c2.63-.14 12.81-1.62 17.08-4.29.38-.24.68-.48.68-.48s.38-.18.36.1c-1.02 1.81-9.32 5-17.65 5.87-1.68.18-3.55 0-4.81-1.13m6.15-13.63c9.88-8 18.54-17.61 20.44-22.6.43-1.13-.3-.3-.8.39-4.55 7.21-14.1 16.2-21.46 21.46m2.77 6.13c2.57-.8 13.18-6.46 18.73-11.69.31-.22.75-.75.72-.31-1.48 3.26-11.83 10.38-21.3 14.11-.61.24-1.4.14-2.05.07s-1.28-.28-1.8-.68a4.08 4.08 0 01-.97-1.22c-.2-.34-.35-.72-.37-1.12m-3.98-13.97c6.26-12.59 9.64-34.89 8.46-40.16-.25-1.13-.3-.17-.41.72-1.03 14.04-5.1 31.7-9.6 39.79m4.97 5.44c9.8-10.08 19.82-30.3 20.3-35.67.1-1.15-.23-.25-.6.57-5.26 13.07-14.52 28.64-21.28 34.97m-7.24-6.08c2.1-13.58 1.06-34.52-1.96-40.07-.55-1-.54-.07-.3.8 2.45 7.63 2.55 32 .76 40.16"/><path d="M85.53 96.14l.92-8.62c.17-1.9.24-6.35-.69-11.2-1.46-7.75-4.3-10.34-4.55-11.7-.14-.77-.12-1.18.93-1.33.69-.74 3.03-.1 4.03 1.03 2.68.27 6 6.36 5.15 8.56 2.29.68 3.46 10.08 2.12 11.75 1.63 1.98.08 8.83-.64 10.14-.2.36.1 4.49-1.36 9.9"/><path d="M92.4 102.53s2.48-8.9 2.6-9.46c.4-1.85 2.12-10.18 2.64-15.09.86-7.82-.62-15.06-.58-16.45.02-.77.47-1.09 1.53-1.03.81-.57 2.94 1.27 3.43 2.9 2.05.95 3.54 8.44 2.29 11.6 1.21 1.84.36 11.48-1.35 13.15.54 5.01-2.43 12.08-3.57 13.67-.24.33-.07 4.7-2.17 9.88m7.28.89s3.44-1.7 6.6-3.29a63.03 63.03 0 009.02-5.91c3.37-2.73 8.98-9.5 10.2-10.05.68-.3 1.15-.03 1.54.98.85.5.03 3.9-1.02 4.48-.5 2.98-3.78 7.2-6.77 8.53-.2 1.5-7.28 7.15-8.83 7.02-2.83 3.52-8.29 3.46-8.29 3.46"/><path d="M101 119.78s3.58-.68 6.87-1.36c3.29-.69 7.74-2.3 9.75-3.18 3.75-1.66 10.6-6.47 11.85-6.66.7-.11 1.06.26 1.17 1.28.65.67-.81 2.86-1.88 3.78.1 1.72-4.7 5.76-6.07 5.47.05 1.68-7.84 4.79-9.57 4.2-3.47 2.52-11.16 1.87-11.16 1.87"/><path d="M98.03 124.62s3.07.5 5.91.91c2.84.42 6.9.43 8.76.3 3.5-.22 10.4-2.08 11.46-1.88.58.12.78.52.56 1.37.33.73-1.02 2.35-2.13 2.8-1.12 1.64-5.13 2.68-6.96 2.29-1.16 1.14-8 2.37-10.17.66-3.52 1-8.26-2.96-8.26-2.96m1.15-25.01s7.17-12.66 9.9-21.92c2.76-8.68 3.08-15.03 3.56-16.34.26-.73.8-.89 1.8-.48.98-.27 2.05 1.7 2.36 3.19 1.68 1.59 1.71 10.37-.25 13.17.7 1.93-1.96 11.26-4.2 12.2.17 5.13-9.04 16.38-9.04 16.38"/><path d="M100.31 108.8s14.33-13.57 18.77-19.85c4.5-6.8 6.22-11.41 7.18-12.42.53-.55 1.1-.5 1.84.3 1 .14 1.28 2.43.96 3.92.9 2.15-1.93 9.78-4.7 11.8.04 2.04-5.93 10.38-8.36 10.55-1.48 4.9-13.78 12.92-13.78 12.92"/><path d="M110.27 124.03c1.87-.93 3.33-1.74 4.16-3.94-1.6-.48-4.83-2.03-6.15-1.78 2.83-1.48 4.94-2.77 5.77-5.6-1.61-.8-4.86-.98-6.3-1.04 1.87-1.4 3.94-4.23 3.46-6.8-2.06-.1-3.92.24-5.83 1.26.99-2.61 1.58-4.9.8-7.59-2.41.23-4.36 1.58-6.16 2.9 1.03-2.44 1.78-4.67.68-7.8-1.87.43-4.53 2.09-5.97 3.53-.04-2.58.11-5.58-1.05-7.59-1.67.4-4.77 3.3-5.19 4.97-.2-2.24-1.37-5.88-3.56-7.2.33.2-1.25 4.12-2.07 7.11-1.06 3.85 1.58 5.8 1.36 9.4-.14 2.32-2.34 2.88-1.74 5.66.38 1.77 1.95 2.07 2.32 2.84.15.31.28.65.39.98.7 2.3 3.5 2.46 5.09 2.93 2.59.76 4.5 2.4 4.94 4.72.52 4.23-1.67 5.93-3.01 7.08-.7.5-2.26.85-2.37 1.4.33-.1 1.2-.01 1.85.52.3.25.33 1.95.55 2.28.22.34.56.63.95.62.47-.02.94-.41 1.36-.2.87.45.62 1.85.78 1.92.46.24 1.4.09 1.9.27.87.34.93 1.12 2.88 1 2.3.3 6-2.11 6.55-4.57l-.03-.03c3.24-.37 5.2-2.9 5.2-2.9a6.13 6.13 0 00-3.8-2.74 6.08 6.08 0 012.24-1.61z"/><path fill="#000" stroke="none" d="M97 130.71c.34.21 2.66.8 1.72.88-.64-.1-1.34-.32-1.72-.88zM85.46 95.27a7.3 7.3 0 01-.21-3.67c.03 1.22.08 2.45.21 3.67zm5.94 1.36c.12-.97.48-2.88.68-3.23a8.33 8.33 0 01-.68 3.23zm5.74 3.39a7.95 7.95 0 002.05-3.37 4.31 4.31 0 01-2.05 3.37zm5.27 5.04a9.03 9.03 0 002.19-4.03 5.36 5.36 0 01-2.19 4.03zm6.63 2.37a5.14 5.14 0 01-3.66 1.64 9.86 9.86 0 003.66-1.64zm2.29 7.12c-1.35.72-2.97.9-4.45.55 1.5.05 3-.17 4.45-.55zm-.85 7.04c-1 .4-2.18.38-3.16-.07 1.05.14 2.11.18 3.16.07zm-4.85 6.71a4.01 4.01 0 013.15.06c-1.04-.12-2.1-.2-3.15-.06zm-21.05-16.45c.31.58 3.08 1.31 2.17 1.16-.59-.2-2.48-.43-2.17-1.16zm15.48 16.8c.87.27 2.66 1.38.83.72-.32-.17-.68-.37-.83-.72zm-4.09 3.55c1.25.36 2.86.6 3.89-.39 0-.4-.45-1.63-1.18-1.97-.69-.5-2.1-1.26-.44-.53 1.04.47 2.1 1.51 1.87 2.73-1.1 1.1-2.9.74-4.14.16zm5.53-6.82c.5.02 2.89.28 1.4.47-.47-.02-1.08-.07-1.4-.47zm-2.49 4.49c1.09.4 2.5.8 3.5 0 .01-.21-.19-1.34-.7-1.7-.31-.42-2.04-1.49-.7-.8.97.51 2.2 1.81 1.48 2.88-1.08.75-2.57.26-3.58-.38zm-.25-10.27c.66-.02 3.6-.7 1.79.03-.57.15-1.25.24-1.79-.03zm2.14 7.3c1.16.03 2.65-.02 3.33-1.13-.08-.38-.85-1.45-1.64-1.6-1.03-.33-1.56-.6-.03-.24 1.06.17 2.76 1.7 1.4 2.58-.83.66-2.3.63-3.06.39zm-3.16-1.86c.57.11 3.55.23 1.85.49-.62.01-1.4-.04-1.85-.49zm.84-3.4c1.45-.32 3.2-.98 3.65-2.55-.23-.41-1.2-1.28-2.05-1.28-.45-.2-3 .02-1.52-.24 1.41-.22 3.33.1 3.86 1.6-.44 1.69-2.4 2.37-3.94 2.47zm3.78.04c.89-.17 3.5-.3 1.2.2-.4 0-.85.02-1.2-.2zm-5.33 5.27c1.47.2 3.53-.4 4.18-1.41-.29-1.7-2.28-2.18-3.6-2.56 1.6.07 3.76.8 3.94 2.63-.87 1.56-3 1.66-4.52 1.34zm4.99-10.17c.58-.07 2.9-1.15 2.13-.43-.6.35-1.5.7-2.13.43zm.06 6.72c1.3-.23 2.9-.73 3.37-2.11-.17-.28-.97-1.2-1.7-1.24-1.23-.25-2.72-.35-.56-.35 1.03.03 2.77.75 2.47 1.96-.63 1.3-2.32 1.73-3.58 1.74zm-7.46-18.9c-.2-.8.14-1.79.69-2.3-.17.78-.45 1.57-.69 2.3zm7.55 14.22c1.37-.55 2.99-1.47 3.18-3.08-.2-.24-1.09-.96-1.78-.92-.52-.25-2.8.32-2.26.05 1.44-.5 3.49-.61 4.34.9-.16 1.73-2.1 2.8-3.48 3.05zm-5.12-3.98c.58-.08 2.9-1.14 2.12-.43-.6.35-1.48.68-2.12.43zm-4.35-10.36c.29-1.48 1.3-3.26 2.95-3.33 1.4.95 1.28 3.02.65 4.36.41-1.32.25-3.38-.7-4.06-1.5.17-2.4 1.84-2.9 3.03zm5.16 2.95c.24-.77 1.6-1.62 1.96-1.44-.62.53-1.34.92-1.96 1.44zm-.66 9.46c1.41-.42 3.03-1.8 3.21-2.98-.96-1.42-3-1.05-4.36-.87 1.5-.57 3.7-.8 4.61.8-.14 1.72-2.1 2.8-3.46 3.05zm-6.27-14.81c-.2-.8.12-1.8.68-2.3-.16.78-.44 1.55-.68 2.3zm5.37 4.02c1.19-1.06 3.22-1.94 4.63-.9.6 1.7-.93 3.41-2.24 4.1 1.1-.98 2.42-2.38 1.91-3.98-1.1-.61-3.1 0-4.3.78zm-9.41-5.54c-.41-.58-.45-1.63-.07-2.13.15.67.08 1.56.07 2.13zm2.11 1.41c.3-1.48 1.3-3.27 2.96-3.34 1.4.95 1.28 3.06.64 4.36.4-1.34.24-3.37-.7-4.07-1.52.2-2.38 1.79-2.9 3.05zm-1.76 3.71c-.22-.82.12-1.9.71-2.43-.17.83-.5 1.62-.71 2.43zm-2.04-4.66c-.17-1.36.14-3.25 1.6-3.71 1.5.37 1.99 2.3 1.81 3.53-.14-1.23-.51-2.81-1.87-3.22a3.38 3.38 0 00-1.27 1.9c-.17.46-.15 1.12-.27 1.5zm6.26 6.64c.15-.85.9-1.7 1.63-1.95-.5.69-1.08 1.31-1.63 1.95zm-6.26-2.09c.32-1.55 1.35-3.47 3.11-3.55 1.48.99 1.35 3.23.7 4.57.42-1.42.3-3.54-.76-4.31-1.6.2-2.64 1.9-3.05 3.29zm15.4 6.6c.35-.38 1.98-2.46 1.35-1.17-.3.5-.75 1.04-1.35 1.17zm-10.97-5.43c.9-1.33 2.65-2.67 4.27-2.02.98 1.51-.05 3.51-1.18 4.52.84-1.21 1.8-2.88.91-4.32a3.74 3.74 0 00-2.85.83c-.4.3-.78.66-1.15.99zm5.2 4.36c.37-.45 2.1-3.04 1.27-1.23-.3.51-.72 1-1.27 1.23zm6.83 2.61c.92-.97 1.53-2.9 1.13-3.84-1.43-.7-2.85.53-3.85 1.32.87-1.2 2.6-2.4 4.05-1.56.67 1.48-.3 3.05-1.33 4.08zm-11.21-1.81c-.31-.68 1.29-2.85 1.01-1.89-.33.63-.66 1.27-1.01 1.89zm5.68.77c.76-1.24 1.62-2.95.8-4.36-.58-.2-2.19.1-2.84.89-1.01 1.03-1.43 1.23-.24-.08.81-.86 2.24-1.56 3.35-.94.85 1.49 0 3.37-1.07 4.49zM94.9 97.19c-.55 1.4-.96 1.92-.36.08-.02-.27.2-.05.36-.08zm-6.31-2.94c.23.47-.31 2.88-.17 1.66.29-.48-.56-1.64.17-1.66zm11.55 7.29c-1.22 1.56-1.17.63-.1-.1zm5.36 4.69c-1.28 1.4-1.05.4-.1-.09l.1.08zm2.28 5.6c-2.1.71-.75-.42-.02-.13zm.5 6.64c-1.26.18-1.3.01-.02-.33l.01.2zm-.32 7.33c-.37-.13-2.2-.32-1.54-.29.46.11 1.84-.45 1.54.29zm-1.46 5.67c-2.36-.38-.19-.88 0 .01zM88.47 111.4c.61-1.48 2.02-3.13 3.75-2.86 1.3 1.26.7 3.47-.21 4.66.57-1.37 1.12-3.2-.04-4.43a3.58 3.58 0 00-2.33 1.13c-.46.44-.82.97-1.17 1.5zm20.47-6.52a151.7 151.7 0 009.27-9.88c3-3.7 5.73-7.78 7.61-12.12-3.58 8.67-10 15.61-16.67 22.1zm15.26-12.25c-.23-.74-.09-.75.27-.08.14.2-.28.02-.27.08zM129.05 81c-1.3-.64.42-.48 0 0zm-1.01-3.62c-.3-.97.65-.54 0 0zm-12.18 25.74c-.25-.73-.05-.77.29-.1.12.21-.23.03-.29.1zm-12.08-4.1c4.56-8.65 8.96-17.72 9.95-28.27-.75 11.22-5 19.88-9.63 28.3zm11.8-18.16c-1-1.03.73-.33 0 0zm.47-13.09c-1.36.05.23-.66 0 0zm-2.28-2.87c-.62-.7.36-.8 0 0zm-2.38 28.08c-.84-.87.42-.47.15-.07zm.32 35.18c3.06-.16 6.1-.61 9.06-1.53 1.5-.52-2.98 1.15-3.77 1.04-1.72.33-3.45.54-5.18.65zm3.8 2.16c.3-.5.46-.46.28.11-.01.25-.2-.08-.28-.11zm6.92-2.16c-.2-1.2.72.15 0 0zm1.91-2.75c.5-.75.67.35 0 0zm-10.8-5.7a44.55 44.55 0 0012.8-6.55c2.23-1.75-.72.7-1.49 1.2a47.78 47.78 0 01-11.15 5.54zm8.99-.51c-.58-1.45.65-.35 0 0zm6.09-5.47c-.58-1.12.63-.18 0 0zm1.64-3.61c.26-.9.83 0 0 0zm-17.34 13.15c.03-1.4.7.44 0 0zm-.68-11.12c4.95-2.89 9.65-6.16 13.67-10.3 1.05-.8 3.11-3.7 3.19-3.78-4.97 6.42-8.27 9.27-16.57 14.16zm11.68-4.81c-.24-1.12.56-.25.14.01zm6.82-8.39c-.96-.9.62-.45 0 0zm.82-4.25c.04-.92.8-.3 0 0zm-16.52 19.67c-.31-1.56.8.29 0 0zM97.79 94.89c.93-4.18 1.66-8.4 2.48-12.6.65-5.92 1.13-12.16-.4-17.94 1.7 5.8 1.18 12.02.59 17.96-.76 4.15-1.46 8.34-2.36 12.48zm6.42-19.74c-.48-.5-.58-.64.26-.21l-.15.12zm-2.08-11.54c-1.2.53-.11-.7 0 0zm-3.49-2.49c-.82-.48.11-.85 0 0zm4.18 27.21c-.4-.47-.7-.66.22-.24.16.09-.23.15-.22.24zM88.94 93.5c.62-4.04.57-8.2.57-12.28-.34-4.25-1.1-8.61-3.02-12.46-1.83-2.73.6.55.9 1.7a40.03 40.03 0 012.3 16.89c-.14 1.88-.12 3.84-.34 5.74zm2.35-20.44c-1.08-.31.12-.57.08-.1zm-4.95-8.56c-1.07.74-.29-.68 0 0zm-3.84-.83c-.9-.3-.08-.87 0 0zm10.83 21.16c-.5-.43-.7-.55.23-.22.1.09-.25.13-.23.22zm-17.72 50.86c-.02.43.58 1.67-.05.8-.11-.23-.17-.62.05-.8zm-.31-.73c-.55-.07-.39-1.8-.21-.8.05.27.19.54.21.8zm-.56-3.22c-.31.3.28 1.32.01 1.2-.34-.22-.43-1.08-.01-1.2zm0-2.04c-.36.26.04 1.47-.25 1.18-.25-.36-.13-.97.25-1.18zm.54-2.48c.81.15-.23.76 0 0zm2.62-.32c.28.69-.78.53-.05.02-.02-.03.1-.02.05-.02zm5.6 7.08c-.12 1.17-1 1.12-.08.11zm-.26-2.44c.5.53.5 1.47.19 2.05a6.88 6.88 0 00-.19-2.05zm-2.51 1.56c.75.47 1.7.66 2.53.65-.85.38-1.96 0-2.53-.65zm1.5-2.77c-.76.5-1.76.18-2.47-.29.45-.42 1.65.92 2.47.29z"/></g></svg>