<svg xmlns="http://www.w3.org/2000/svg" fill="#d7374a" stroke="#000" viewBox="50 50 200 200"><metadata license="https://creativecommons.org/licenses/by-nc-sa/3.0" source="http://wappenwiki.org/images/3/39/Balsic.svg"/><g id="wolfHeadErased" stroke-width=".324"><path fill="#fff" d="M76.14 84.37c.93 3.76 3.54 5.13 3.8 4.82.27-.3-1.33-1.8-1.16-4.33"/><path fill="#fff" d="M80.88 99.29c-.82-2.51.6-4.6.93-4.48.34.12-.22 1.97 1.03 3.83"/><path d="M94.67 91.74c-2.17-1.14-6.88-2.79-9.57-2.3-6.43 1.17-7.2 4.05-11.33 4.8-4 .72-4.73-2.36-5.37-2.24-.32.2-.5 1.8.65 2.98 1.14 1.19 3.18 2.26 5.16 1.9 5.54-1 6.08-3.79 11.4-4.75 2.85-.52 8.04 1.09 9.54 1.97"/><path d="M118.97 63.5a8.27 8.27 0 00-.45-1.61c-.3-.71-.74-1.59-1.53-1.7-.95-.13-1.18.24-2.25.58-.69.29-3.5.88-4.77 2.04l.82 3.65 8.18-2.97z"/><path d="M116.48 63.48s-8.38-2.12-20.38.6c-1.94.45-2.07.57-3.61 1.8-.6.53-.42.74-1.07 1.52-2.2.74-.9 2.36-1.48 2.8-1.35.08-1.7 1.08-3.68 1.72a80.62 80.62 0 01-9.57 2.21c-1.12.17-3.16.63-4.22.89-.76 0-1.32.54-1.36.9-.06.65.14 1.37.33 2.16.3 1.37 1.26 2.07 1.38 2.58.1.4.37 1.78 1.07 2.8.3.42 3.82 1.62 7.15 2.17 3.84.64 5.42-.44 8.68 1.06 4.91 1.78 5.12 7.47 5.27 8.29.2 1.12-.63 1.72-1.35 2.06-1.01.5-2.96-.39-5.01 0-2.06.39-3.29 1.2-4.29 1.38-1.66.3-2.8.19-4.17.12-1.13.11-.84.28-.58.78a5.53 5.53 0 002.8 2.05c1.18.43 2.42.49 3.45.21.83-.22 1.23-.48 1.69-.77s2.25-.8 3.35-1c1.1-.2 2.94.04 3.52.02.1.52-.17 1.4-1.23 2.44-1.07 1.03-2.03 1.25-3.3 2.38-1.28 1.13-.36 2.25-1.98 3.68-.93.82-2.28.68-3.08.67-.26.23.43 1.4.53 1.52.85 1 1.43 1.02 1.96 1.16-1.7.09-3.05.04-4.82 2.43-1.78 2.39-4.23.9-4.38 1.04-.15.13.17 1.33 1.26 2.56.6.68 1.9 1 1.98 1.03-1.07.47-.43 2.31-1.16 3.38a3.57 3.57 0 01-4.23 1.14c1.52 2.62 3.6 3.06 5.08 2.9 2.9-.33 3.31-2.72 4.12-3.11-1.63 3.16-.15 5.31-3.51 8.31 6.24.88 8.65-5.4 9.86-5.55-1.45 2.27-.89 7.67-4.14 8.49 2.22 1.08 4.95.38 6.48-.7 2.77-1.96 3.89-4.34 4.1-4.17.28.85-1.45 3.95-1.14 6.57.13 1.1.66 3.8 2.12 4.95.52-4.39 4.7-5.92 6.9-12.07l.2-.62c.17.12.19.5.17.79-.03.72-.16 1.56-.07 2.63.14 1.67.84 2.75 2.78 4.4 1.34-5.67 3.38-4.4 4.86-9.68.04-.14.2-.3.25-.46a7.71 7.71 0 002.13 3.74 4.2 4.2 0 003.7 1.14c-1.33-3.15.42-6.42.65-10.2.01-.14-.05-.38.14-.44 1.4 3.37 5.56 3.78 6.94 2.41-2.85-1.97-1.2-5.8-1.5-8.67a5.2 5.2 0 00-.77-2.25c.25.19.84.44 1.3.62 1 .4 2.27.77 3.29-.08-2.97-1.82-1.44-5.99-2.28-8.14a5.5 5.5 0 00-1.2-1.92c.39.34 1.19.97 1.58 1.16a3 3 0 001.84.31c1.3-.1 2.26-.76 2.35-1.02-3.12-1.67-3.18-5.77-3.63-7.76-.1-.5-.43-1.34-.74-1.62.42.01.94.15 1.28.09 1.42-.25 2.15-.72 2.09-1.05-3.55-1.72-1.63-6.21-3.18-7.95a7.35 7.35 0 00-1.72-1.38c.62.15 1.6.14 2.01.05 1.3-.3 1.5-1.3 1.34-1.44-5.6-2.3-3.12-6.4-6.05-9.04"/><path d="M117.9 75.9c1.52-.2 3.55-1.27 5.25-2.92m-7.38-9.27c-1.86.63-2.73 1.3-2.73 1.3m10.07 7.97c2.1-2.06 3.7-5.01 3.17-8.34-.14-.75-.38-1.7-1.13-1.98-.9-.34-1.2-.03-2.31.07-.74.14-2-.13-4.4.3-1.05.2-1.94.43-2.67.68"/><path fill="#fff" d="M95.37 73.22s-.76.82-1.4 1.17c-.65.35-1.56.17-1.84-.26-.14-.29-.24-1.59.26-1.76.43-.23 2.98.85 2.98.85z"/><g fill="#000" stroke="none"><path d="M115.7 72.28c1.36.68 2.83.89 4.29.96.02.07-.07.06-.11.08a4.77 4.77 0 01-4.07-.93c-.04-.04-.1-.07-.12-.11zm2.48-.95c1.32.45 2.73.21 4.05.35-1.39.3-3.17.55-4.06-.35zm4.18-7.25c-3.22.8-6.27 1.64-8.57 3.86 1.51-2.62 5.64-3.75 8.57-3.86zm-5.01 10.02c3.15-.85 5.85-2.9 7.36-5.69-.27 2.76-4.58 5.52-7.2 5.68-.04 0-.13.03-.16.01z"/><path d="M92.77 72.66c.23 0 .43.37.44.84 0 .13 0 .25-.02.36-.05.3-.18.5-.35.5-.17.01-.32-.2-.4-.52a1.8 1.8 0 01-.04-.32c-.02-.47.15-.85.38-.86z"/><path d="M95.43 73.07c.2.07.36.16.47.24-.1.2-.4.11-.59.06l.12-.3zm-2.26-5.44a2.68 2.68 0 013.48.34c-1.3-.41-2.48-.84-3.47-.33l-.01-.01zm-.96 6.63c-.4.27-.74.56-1.16.7.13-.43.63-.73.98-.96zm2.39-3.01c.75.79 1.82 1.03 2.8 1.32.02.06-.03.06-.07.05-1.1.07-2.28-.3-2.74-1.36zm-2.96 2.55c-.67.6-1.13 1.37-1.6 2.1.09-.97.86-1.84 1.6-2.1zm2.56 4.97c.2-.17.32-.38.46-.59.48-.94.52-2.07 1.17-2.92 1-1.19 2.58-1.45 3.99-1.38 0 .09-.16.05-.23.08-1.15.18-2.51.43-3.29 1.25-.63.64-.84 1.53-1.16 2.33-.2.48-.49.95-.93 1.23zm-2.74-10.25c-.14.41-.26.9-.05 1.3.15.25.5.35.76.2.51-.27.87-.79 1.44-.97.4-.16.85-.08 1.2.13.71.33 1.23.94 1.72 1.53.15.23.49.43.6.61-.36-.05-.75-.57-1.05-.8-.42-.4-.85-.82-1.4-1.06-.28-.14-.6-.24-.92-.12-.65.19-1.04.84-1.7.99-.49.1-.96-.38-.9-.86 0-.32.12-.62.26-.9.01 0 .03-.09.04-.05zm-1.8 4.16c-.62 1.22-.79 2.64-1.05 3.92-.2-1.36.05-2.98 1.05-3.92zm3.28-2.84c-.07.25-.19.48-.23.74-.27 1.3.56 1.03 1.33 1.56l.34.25c-.04.1-.18-.04-.27-.04-1.33-.26-2.3-.83-1.32-2.33l.15-.18z"/><path d="M93.03 106.1a6.4 6.4 0 013.04-1.18c.88-.17 1.77-.35 2.59-.74a5.39 5.39 0 002.29-2.04c.11.05-.06.18-.08.26a4.84 4.84 0 01-1.84 1.92c-1.2.73-2.63.82-3.98 1.07-.71.12-1.4.36-2.02.72zm13.09 2.38c-.33.17-.68.32-1 .52a12.12 12.12 0 00-2.74 2.06c-1.04 1.03-1.93 2.2-2.98 3.22-.34.31-.7.6-1.09.85-.05-.1.16-.17.21-.26.7-.64 1.3-1.37 1.9-2.1.68-.82 1.37-1.66 2.2-2.35.55-.5 1.16-.91 1.81-1.24.5-.26 1-.49 1.53-.65l.16-.05zm-6.01.08c.5-.23 1-.48 1.49-.77.32-.21.66-.39.96-.63.4-.3.78-.6 1.13-.97.48-.46.88-1 1.24-1.56.34-.55.64-1.14.91-1.73.13-.25.25-.5.36-.77.11.03-.03.19-.03.27a9.02 9.02 0 01-2.24 4 7.28 7.28 0 01-2.38 1.64c-.46.23-.94.38-1.43.53zm10.45 5.52c1.57-2.93 4.22-3.16 4.63-6.81.71 3.48-3.38 4.5-4.61 6.8l-.01.01zm-.16-12.82c-1.18 4.2.93 8-2.43 10.35 2.57-1.84 1.02-7.9 2.16-9.88.08-.16.17-.32.27-.47zm2.59 21.62a14.58 14.58 0 003.14-8.28c.5 3.54-1.26 6.33-3.13 8.29l-.01-.01zm-8.59 1.57c.14-.8.7-1.46 1.27-2 1.52-1.35 3.34-2.34 4.69-3.87a7.67 7.67 0 001.33-2.07c.1.16-.14.5-.2.7a8.77 8.77 0 01-2.9 3.39c-.64.48-1.3.93-1.94 1.4-.8.6-1.66 1.21-2.11 2.14l-.14.31zm-7.57-.05a7.48 7.48 0 012.39-2.53c1.48-1.09 3.08-2.1 4.1-3.66.4-.62.72-1.28.9-2 .1-.2.07.12.03.2a5.98 5.98 0 01-.88 2.2 9.15 9.15 0 01-2.22 2.26c-1.14.84-2.37 1.56-3.42 2.5-.33.32-.64.65-.89 1.03zm-6.71-1.31a6.08 6.08 0 012.54-2.71c1.56-1 3.36-1.55 4.97-2.45.46-.27.9-.57 1.24-.99.07.07-.1.2-.14.3-.84.98-2.05 1.5-3.2 2.04-1.56.75-3.25 1.43-4.5 2.66-.35.34-.64.76-.91 1.15zm28.36-7.89a8.16 8.16 0 001.25-4.31c.16-2.76-1.24-5.05-.86-7.52.09 1.1.35 2.42.59 3.4.77 3.34 1.13 5.82-.97 8.44h-.01zm-22.78-4.24c-3.24 3.24-2.87 7.2-7.21 7.81 4.17-1.07 4.47-6.6 7.21-7.81zm14.43-15.18c2.56-2.54.18-6.58 1.91-9.24-.86 2.87.79 7.32-1.91 9.24zm4.9-2.68c-.76 3.57 1.67 8.6-1.6 11.08 2.9-3.14.27-7.7 1.6-11.08zm6.26 11.98c1.1-4.6-3.22-8.15-3.82-12.1 1.32 4.05 5.43 7.86 3.82 12.1zm-17.83-10.62c2.88-1.42 4.4-3.65 5.49-6.44-.26 2.93-2.89 5.7-5.49 6.44zm7.2-12.22c-.72-2.72-5.47-4.86-5.56-5.3 2.5 1.32 5.35 2.63 5.58 5.3h-.01zm-1.8-7.83a4.8 4.8 0 00-.87-1.52c-.3-.4-.67-.73-1.01-1.08-.47-.46-1-.88-1.38-1.41-.06-.04-.18-.37-.05-.28.1.17.24.3.4.43.36.31.75.57 1.1.9a6.54 6.54 0 011.45 1.7c.17.33.3.7.35 1.06v.2zm4.27-1.02a6.44 6.44 0 00-2.12-2.49c-1.07-.78-2.46-1.1-3.36-2.1-.23-.27-.4-.6-.46-.94-.03-.14.1.02.1.09.15.34.37.65.67.87.38.31.83.53 1.27.75.56.25 1.12.53 1.64.87a4.98 4.98 0 011.94 2.16c.12.26.23.52.32.79zm10.32 16.23a17.63 17.63 0 00-1.24-4.05 14.3 14.3 0 00-3.74-4.75 5.23 5.23 0 01-1.65-2.28c.17.04.2.43.36.58.65.97 1.65 1.62 2.48 2.43a11.17 11.17 0 013.36 5.49c.23.84.37 1.7.44 2.58zm.09 5.19c-3.03-2.29-3.35-6.63-6.87-8.03 3.8.7 4.57 5.74 6.87 8.03z"/><path d="M87.25 111.8l.1-.31c1.1.4 2.02-.62 3.03-.61-1 .61-1.99 1.17-3.13.92zm32 5.48c.7.85 1.3 1.83 1.54 2.83l-.32.06c-.26-1.07-.92-2.02-1.22-2.89zM85 122.96c.28-1.04 1.44-1.84 2.48-2.03-.86.67-1.8 1.19-2.17 2.12l-.31-.09zm6.34 2.77a5.67 5.67 0 012.22-2.85c-.73 1.06-1.4 1.71-1.76 2.73l-.46.12zm22.51.19c-.1-.93-.22-2.25.51-2.89-.3.98-.33 1.9-.19 2.84l-.32.05zm-7.98 2.24c.49-1.23.75-2.48 1.23-3.65a11.97 11.97 0 01-.93 3.76l-.3-.11zm-6.42-1.93a4.8 4.8 0 01-1.41 3.28l-.22-.24c.83-.9 1.25-2.08 1.63-3.04zm-18.1-7.69c1.26.15 2.48-.1 3.68-.27-1.11.66-2.51.68-3.7.59l.02-.32zm43.12-36.73c.56.45 1.21.78 1.9.93 0 .1-.1.2-.12.31-.73-.2-1.5-.5-1.8-1.22l.02-.02zm3.24 11.5c-.64-.57-1.51-1.31-1.67-2.09.35.28 1.38 1.41 1.86 1.85l-.19.24zm-1.42 8.91c-.6-.67-1.35-1.4-1.44-2.13.35.4 1.18 1.38 1.67 1.91l-.23.22zm-1.11 9.53c-.61-.73-1.35-1.82-.77-2.57-.11.93.43 1.7 1 2.34l-.23.23zM100.3 98.69c-3.6-1.59-3.33.95-5.89 1.26l-.01-.32c.08-.02.17 0 .25-.04 1-.25 1.76-1.06 2.55-1.52 1.14-.6 2.07 0 3.1.62z"/><path d="M72.93 80.64l-.23-.16c1.28-1.53 2.34-1 2.88-2.89.07 2.1-1.92 1.92-2.65 3.05zm19.41.27c.34.04.34.42.23.57-.24-.03-.24-.4-.23-.57zm-.81-.76c.39.17.34.48.2.62-.24-.18-.26-.34-.2-.62zm-.98-.8c.38.15.42.53.35.87-.29-.11-.34-.63-.35-.87zm11.59 10.5c.3.29.16.52-.1.67-.4-.39-.06-.7.1-.68zm-.67-.62a.7.7 0 01.01-.87c.32.3.22.66-.01.87zm-.77-2.36c.3.3.23.96-.04 1.24-.27-.43-.34-.86.04-1.24zm-1.16-1.4c.32.46.25.95-.02 1.39-.24-.5-.32-1.04.02-1.4zm-19.46-1.3c.97.04 2.02.12 2.83.04-.88.53-1.98.34-2.83-.03zm12.63 3.23c1.5-.39 3.17-.1 4.55.58-1.42-.35-3.08-.31-4.55-.59zm-16.8-10.18c-.62-.44-.62.15-.86.58-.7 1.3-2.27 1.56-2.66.03-.04-.08-.03-.28-.1-.1-.21.32-.21.73-.17 1.1-.16-.13-.15-.36-.16-.54 0-.23.03-.47.12-.68.06-.16.28-.32.43-.17.1.1.14.26.17.4.57 1.42 1.97.47 2.36-.54.3-.45.54-.45.87-.08zm-2.32-1.58c-.4-.22-.84-.4-1.12-.64.62-.07 1.09.02 1.12.64z"/></g></g></svg>