<svg xmlns="http://www.w3.org/2000/svg" viewBox="-6.2 -14.7 12.4 16.2">
<desc>Burg icon by Watabou (Oleg Dolya), from the Medieval Fantasy City Generator. Source: https://watabou.itch.io/medieval-fantasy-city-generator. Attribution appreciated.</desc>
<g transform="scale(.1)">
<g transform="translate(-60 -150) scale(2 2)">
<path fill="#EBE8DF" d="M29.5 70H18L19 48.7l-.9-.9v-16h11v16l-.8 1L29.5 70" />
<path d="m23.7 11 1.2 6.2.8 3.3 1 2.6 1.2 3.1 2.8 5.6H16.8l2.8-5.6 1.3-3.1.9-2.6.8-3.3 1.1-6.1" />
<path
fill="#4D3F36"
d="M23.7 9.6V4.8l1.4-.7h.9l.8.3 1 .7 1.1 1 1 .6.9.2.7-.4.6-.7.7-.4h.7l.7.3.8.8.8.5.9.3h1l2-.1-2 .8-1 .2h-.9l-.8-.3-.8-.5-.7-.1-.7.2-.7.6-.6 1-.7.5h-.9l-1-.2-1-.7-1-.4-1-.1-.8.3-1.4 1M23.7 11V4.9M23 42.2h1.5v-4.1l-.3-.7h-1l-.3.7v4.1"
/>
<path
fill="#EBE8DF"
d="M19 71.2H1.5L2 63l4-15 4.2.4 4.2.1 4.2-.1 4.1-.5-4 15 .2 8.3M2 63h16.7m8.4 8.2H19l-.2-8.2 4-15 4 15 .4 8.2"
/>
<path d="M18.7 63H2l4-15 4.2.4 4.2.1 4.2-.1 4.1-.5-4 15" />
<path fill="#4D3F36" d="M9.6 69.5h1.6v-4.2l-.3-.6h-1l-.3.6v4.2" />
<path
fill="#EBE8DF"
d="M49.4 71.8H32.5l.5-8.9 4-14.6 4 .5 4.1.1 4-.1 4.1-.5-4 14.6.2 8.9M33 62.9h16.2m8.5 8.9h-8.3l-.2-8.9 4-14.6 4 14.6.5 8.9"
/>
<path d="M49.2 63H33l4-14.7 4 .5 4.1.1 4-.1 4.1-.5-4 14.6" />
<path fill="#4D3F36" d="M40.3 69.8h1.6v-4.2l-.3-.6h-1l-.3.6v4.2" />
<path
fill="#EBE8DF"
d="M32.6 75.3H15.9l1-19 7.6-13.6 7.6 13.6.5 19m8.5 0h-8.5l-.5-19-7.6-13.6 2 .4 2 .1 2-.1 2-.5 7.6 13.8 1 19"
/>
<path d="M40.1 56.4h-8l-7.6-13.8 2 .5 2 .1 2-.1 2-.5 7.6 13.8" />
<path
fill="#4D3F36"
d="m25.2 56 .1.4-.1.4-.3.2-.4.1h-.4l-.3-.4-.1-.4.1-.3.3-.3.4-.2.4.2.3.3M25.7 75.3h-2.4V70l.5-1h1.4l.5 1v5.4"
/>
</g>
<circle fill="#EBE8DF" stroke-width="3" cx="0" cy="0" r="10" />
</g>
</svg>
