<svg xmlns="http://www.w3.org/2000/svg" fill="#d7374a" stroke="#000" viewBox="50 50 200 200">
  <metadata source="http://wappenwiki.org" license="https://creativecommons.org/licenses/by-nc-sa/3.0"/>
  <g id="boarRampant" stroke-width=".38">
    <path class="secondary" d="M128.56 135.64s.32 2.68 0 3.24c-.73 1.23-2.39 1.32-3.4 1.22-.32-.03-1.18.05-.74-.86 0 0-1.34.14-2.01.01.37-.9 2.39-3.93 3-4.99.3-.4.66-.68 1.23-.74.57-.07 1.23.12 1.68.93.33.63.24 1.19.24 1.19zm-8.64-2.47s.3 2.66-.07 3.19c-.85 1.15-3.06 1.11-4.07.9-.13-.04-.47-.23-.05-.94 0 0-1.35.16-2-.02.46-.88 2.46-3.8 3.19-4.8.32-.37.72-.62 1.28-.62.57 0 1.2.24 1.58 1.08.28.66.14 1.21.14 1.21zm-49.14-26.02s-1.12 2.26-1.6 2.72c-1.09.93-3.14.07-4.07-.34-.25-.1-.14-.63.11-.89h0s-1.07-.67-1.65-1c.63-.74 3.75-1.98 4.67-2.79.4-.29.84-.44 1.4-.31.56.12 1.12.5 1.3 1.42.1.69-.16 1.2-.16 1.2z"/>
    <path d="M116.46 105.88c0 .14-1.58 6.25 1.21 8.59 3.21 2.84 4.77 2.4 5.36 4.6.24 1.22.4 1.89-.18 3.34-.92 2.3-1.67 2.29-2.37 2.93a5.46 5.46 0 00-1.7 2.64c-.53 1.46-1.78 2.33-1.98 3.58 2.14-.2 3.16 1.64 3.16 1.64s.64-.15.7-.43c.1-.73-.68-.82-.54-1.31.08-.23 0-.47.5-.61.77-.19 1.02.5 1.7.2.4-.17.36-.15.5-.45.2-.63-.94-.76 0-2.7.2-.47 1.74-1.22 2.32-2.5.57-1.23.66-2.68 1.09-3.08.59-.53 1-.87 1.44-1.49.97-1.61.59-2.1.97-2.41 1.08-.23 1.73-1.07 1.49-2.27-.5-.95-2.25-1.4-3-2.4"/>
    <path class="secondary" d="M67.03 96.77s-1.76 1.82-2.36 2.08c-1.33.56-3-.88-3.78-1.56-.2-.18.06-.65.38-.81h0s-.8-.98-1.28-1.47c.84-.52 4.18-.74 5.3-1.24a1.68 1.68 0 012.24 1.87c-.1.72-.5 1.13-.5 1.13z"/>
    <path d="M86.23 99.89c-.77-.5-.82-1.13-.82-1.13-.43-.19-.54.13-.85-.02-1.25-.58-1.6-1.44-2.1-1.74-.47-.3-4.2-2.16-5.15-3.6-.73-.18-.92-.69-1.46-.71l-1.15-.08c-1.14.82-1.77 1.11-2.19 1.43-1.75 1.22-1.14 2.16-1.7 2.53-.3.15-.24.15-.66.05-.7-.2-.5-.89-1.2-1.23-.48-.21-.7-.16-.87 0-.38.35.25.82-.23 1.4-.19.23-.8.03-.8.03s.06-2.11-1.88-3.03c.82-.98 2.77-.5 3.94-1.52 1.18-1 2.2-1.96 3.14-2.07.94-.13 2.06-1.42 3.87-.47 1.63.75 2.99.27 4 .68.67.3 2.66-.1 4.5 1.24m3.25-25.68c-3.07-4.53-7.36-4.18-7.45-4.02-.08.15.3.56.52 2.06.09.6.1 2.06.2 2.87.53 3.74 2.31 4.66 2.31 4.66"/>
    <path class="tertiary" d="M77.21 84.4c-1.75-1.22-2.77-1.9-6.82-2.38-1.23-.14-2.48-.14-3.69-.37a5.76 5.76 0 01-3.26-1.64 4.05 4.05 0 01-.98-3.05c.02-.22.31-.29.43-.09.36.65.82 1.26 1.51 1.71 2.3 1.48 5.22 1.45 7.86 2.15 2.55.67 4.72 2.17 5.42 3.1"/>
    <path d="M118.18 108.84a10.24 10.24 0 00-4.41-.31c-1.04.15-1.18-.22-.38-.83.67-.47 2.43-1.07 2.43-1.07m17.42-11.81c-1.37-1.05-1.27-1.25-2-2.83-.54-1.2-1.95-2.06-1.95-2.06.8-.1 1.6.28 1.52 0-1.65-2.03-2.3-2.43-2.72-2.69-.18-.11-.2-.15-.18-.15.74-.28 1.61-.11 1.47-.35-2.1-1.58-3.22-1.76-3.69-1.93-.2-.08-.3-.22-.29-.23.8-.1 1.57.3 1.48.02-1.65-2.03-3.36-2.25-3.79-2.5-.19-.11-.2-.15-.19-.15.75-.28 1.62-.11 1.48-.35-2.1-1.58-3.22-1.76-3.69-1.94-.2-.07-.17-.1-.16-.11.76-.23 1.59.03 1.46-.23-1.98-1.7-3.67-1.93-4.14-2.1-.2-.08-.2-.17-.19-.17.76-.23 1.6.04 1.47-.22-1.97-1.71-3.42-1.92-3.87-2.13-.2-.1-.21-.13-.2-.14.72-.35 1.6-.27 1.43-.5-2.24-1.36-3.36-1.47-3.86-1.57-.21-.05-.19-.08-.17-.09.72-.35 1.57-.23 1.4-.45-2.23-1.38-3.88-1.38-4.37-1.48-.22-.05-.24-.08-.23-.08.63-.5 1.58-.63 1.36-.82-2.46-.9-3.86-.76-4.35-.76-.22 0-.36.05-.36.03.6-.53 1.45-.63 1.24-.81-2.51-.73-3.9-.3-4.4-.27-.22.02-.26 0-.25 0 .46-.67 1.26-1.02 1.01-1.13-2.61-.12-3.66.34-4.13.49-.21.06-.2.02-.2.01.45-.65 1.26-.96 1.01-1.08-2.62-.12-4.06.68-4.54.83-.21.06-.25.05-.24.04.32-.74 1.08-1.32.8-1.4-2.59.41-3.74 1.23-4.18 1.47-.19.1-.23.1-.23.1.15-.8.85-1.28.57-1.28-2.44.94-3.33 1.76-3.71 2.1-.17.13-.2.13-.2.13.1-.53-.65.24-1.95.79-.24 4.48.23 9.05 2 13.17a9.9 9.9 0 002.5 3.75c1.25 1.05 2.84 1.54 4.4 1.97 6.03 1.66 12.38 2.7 17.73 5.94a44.3 44.3 0 015.76 4.4"/>
    <path d="M138.88 99a9.66 9.66 0 00-5.64-4.18c-.14-.04-.28-.09-.43-.12-4.1-1.05-3.93-1.66-8.3-5.1-3.53-2.76-6.22-4.9-9.22-8.04-5.12-5.2-10.51-7.54-15.62-9.06a63.18 63.18 0 00-9.93-2.08l-.19-.27.36-.74-1.97-1.42-.53-.72-.1.28-1.75-1.26-.19-.17c-1.51-.5-2.84-.19-4.26-.24-1.3-.04-2.67.92-3.97 1.02a9.6 9.6 0 00-2.04.48c-1.14.38-1.26 1.22-1.6 1.75-1.13-.6-2.18.62-2.63.14-1.04-.43-1.58.52-2.62.28-.88-.22-1.56.56-2.43-.12-.72-.48-.14-1.6-1.27-1.73-1.05-.11-1.27 1.9-1.31 2.67-.08 1.58.08 2.59.4 3.2a4.02 4.02 0 001.87 1.76 5.4 5.4 0 003.3.57c.4-.05.35.08.63.16.46.16.62.36 1.38.24 1.09-.16 2.97.53 3.98 1.58.76.9.73.6 1.54 1.25.9.72 1.06 2.82.63 3.94-.44 1.15-.39.69-1.54.38-.8-.21-2.17-.19-3.06-.4-1.37-.32-1.39-.72-2-.8-.9-.14 0 .55-1.46.4-1.03-.12-.18-.37-1.16-.47-.76-.08-2.29-.1-2.45.22-.17.14-.04.47.13.61 0 .33.4.63.35.96-.08.52-.52.96-1.04 1.06.4.3 1 .33 1.4.04.3-.2.49-.52.75-.77.43-.42 1-.16 1.45-.45-.09.16-.15.34-.17.53.24-.12.51-.18.78-.17.42.01.87.18 1.24-.02-.03.16.06.26.04.41.1-.12.31-.09.48-.07.51.06 1.04.01 1.54-.15a.56.56 0 01-.18.49c.52.04.78-.15 1.64.09 1.34.38 1.56.86 2.76 1.03 1.59.99 1.93 2.66 4.13 2.93 1.25 2.18.68 6.17 3.67 6.77-.01.02 1.56 4.45 5.84 6.16.92.36 3.03 1.23 4 1.44 1.54.32 3.11.46 4.68.4 1.45-.05 2.74-.21 4.17.22.98.29 2 .35 2.98.6.84.2 1.55.53 2.47.5 1.81-.04 3.3.32 4.88 1.27 1.15.7 2.96 2.39 4.43 2.55-.03.13.24 2.04 1 3.35 2.87 4.67 10.45 5.79 11.26 7.93.35 1.2.7 3.11.26 4.61-.7 2.4-1.22 2.43-1.87 3.12a5.49 5.49 0 00-1.44 2.8c-.38 1.49-1.53 2.48-1.61 3.75 2.1-.4 3.3 1.32 3.3 1.32s.62-.2.64-.5c.03-.75-.75-.75-.65-1.25.05-.23-.06-.47.43-.66.75-.25 1.08.38 1.72.04.38-.22.33-.18.44-.5.14-.65-1-.66-.26-2.68.15-.51 1.39-1.37 1.84-2.7.44-1.28.4-2.74.78-3.17.55-.59.93-.97 1.3-1.63.8-1.69.38-2.14.73-2.5 1.06-.33 1.61-1.23 1.26-2.4-.2-1.06-4.26-1.05-4.9-2.38-1.72-3.88 2.89-8.38 3.02-11.6.12-3.21-.43-4.97-1.17-5.95 1.08.29 2.08.74 3.21 2.18.61.78 1.42 3 1.09 4.88-.08.4-.23.8-.5 1.19-.5.1-1.82 1.16-1.95 1.87-.24.39-.25.93-.14 1.08-.48 1.1-.04 2.1.1 2.18-.4.7.3 1.8.43 1.8.25-.74 1.05-.8 1.28-1.17.21.1 1.07-.25 1.47-.91.56-.34.62-.65.88-1.19a4.1 4.1 0 00-.18-3.2c.15-.25.56-1.69.58-2.62 0-1.63-.26-3.34-1.19-4.93z"/>
    <path d="M90.23 101.25c-.9 0-1.35-.49-1.35-.49-.46.08-.38.4-.73.44-1.36.2-2.13-.34-2.7-.34s-4.71.46-6.28-.23c-.72.24-.8.2-1.31.4-.51.18-.81.15-1.02.06-.83 1.14-1.54 1.39-1.83 1.82-1.3 1.7-.43 2.4-.84 2.92-.26.24-.2.22-.63.25-.74.02-.74-.7-1.52-.8-.53-.05-.54.03-.67.23-.25.45.48.7.21 1.4-.1.27-.77.27-.77.27s-.58-2.02-2.7-2.31c.5-1.18 2.31-1.3 3.12-2.62.8-1.31 1.31-1.86 2.14-2.34.82-.48.78-1.56 2.83-1.75 1.76-.25 2.65-1.4 3.72-1.6.7-.1 2.17-1.52 4.45-1.37"/>
    <path fill="#F6F6F6" d="M68.18 75.84c-.01-.33.9-.5 1.7-.07.16.08.4.15.75.13.33-.01 1.09-.06 1.31-1.83.16-1.05-.31-1.91-.09-1.92.3-.02 1.28.83 1.34 2.08.1 1.8-1.07 3-2.52 3.07-1.68.1-2.48-1.24-2.5-1.46z"/>
    <path d="M84.05 66.64c1.78-3.44 6.48-4.72 6.6-4.59.13.13-.17.62-.01 2.14.06.6.42 2.02.52 2.83.4 3.75-1.05 4.99-1.05 4.99"/>
    <path fill="#F6F6F6" d="M76.2 71.93c.25.3 2.48.38 2.9-.82.14-.47-.2-.7-.69-.8a12 12 0 00-2.44.04 1.7 1.7 0 00.23 1.58zM70.29 82.3c.05-.45-1.6-2.37-2.21-7.25-.33-3.67.31-7.54.96-9.27.1-.25.33-1.04-.65-.16-1.9 1.68-2.35 6.67-2.16 10.48a15.1 15.1 0 001.67 6.18c-.01.02.27.4.96.45 1.33.1 1.43-.36 1.43-.44z"/>
    <g fill="#000" stroke="none">
      <path d="M124.23 139.19l1.6-3.97-1.23 4.09zm-8.68-2.95l1.62-3.68-1.25 3.72zm-50.52-27.75l3.26-2.85-2.92 3.08zm-3.89-12.22l3.97-1.65-3.75 2.01zm17.89-3.95c1.4.95 2.92 2.62 4.6 2.85-2.08.09-3.73-1.4-4.6-2.85zm-4.4.48c-.22-.1-.5-.09-.77-.02-.27.06-.55.16-.82.27-.28.12-.55.23-.83.33s-.57.2-.87.23v-.04c.29-.06.57-.17.83-.3l.8-.4c.26-.14.54-.27.83-.37.3-.09.63-.16.98-.05zm55.26.23c.84-1.01 1.34.03 0 0zm-2.54-1.93c.4-.88 2.28-.74.57-.16-.18.08-.4.14-.57.16zm-.25-3.39a6.8 6.8 0 01-2.06.85 2.7 2.7 0 012.06-.85zm-2.47-2.4c-.54.47-3.14 1.69-1.44.5.43-.28.91-.51 1.44-.5zm-2.53-2.77c-.94.32-1.73 1.4-2.68 1.39.85-.54 1.6-1.42 2.68-1.39zm-2.4-2.56c-1 .03-2.55 1.83-2.8 1.5.79-.75 1.61-1.68 2.8-1.5zm-2.4-2.7c-1.18.3-1.8 2.01-3.05 1.76 1.21-.3 1.65-1.92 3.05-1.76zm-2.56-2.43c-1.26.6-2.11 2.23-3.53 2.29 1.31-.57 2.04-2.07 3.53-2.29zm-2.84-2.24c-1.43.56-2.36 2.53-3.97 2.35 1.58-.39 2.3-2.17 3.97-2.35zm-9.59-.12c1.4-.7 1.74-2.6 3.16-3.16-1.15.96-1.52 2.82-3.16 3.16zm-2.97-.76c.97-1.07 1.23-2.92 2.69-3.42-1.21.91-1.4 2.6-2.69 3.42zm-3.51-.58c1.07-1.05 1.58-2.77 2.78-3.55-.89 1.22-1.4 2.75-2.78 3.55zm-2.55-.96c.56-.73 1.04-3.12 1.59-2.8-.73.83-.51 2.23-1.59 2.8zm11.96 3.28c1.33-.45 1.5-2.2 2.9-2.57 1.24-.45-1.57 1.16-1.62 1.97-.33.36-.8.56-1.28.6zm-4.15-1.67a22.1 22.1 0 002.37-2.37 3.74 3.74 0 01-2.37 2.37zm-3.21-.78c.68-.86 1.5-1.67 2.06-2.58-.08 1.14-1.13 2.05-2.06 2.58zm-3.18-.3c.67-.95 1.35-1.9 1.83-2.96.02 1.1-.88 2.32-1.83 2.96zm-3.09-.12c.64-1 1.25-2.12 1.72-3.16a4.25 4.25 0 01-1.72 3.16zm12.69 2c.83-.74 1.69-1.48 2.33-2.4-.12 1.07-1.3 2.04-2.33 2.4zm2.65 1.14c1-.5 2.02-1.08 2.9-1.72a3.9 3.9 0 01-2.9 1.72zm3.37 2c1-.5 2.02-1.1 2.91-1.72a3.89 3.89 0 01-2.91 1.72zm2.81 2.21c.87-.4 1.69-1.04 2.43-1.53a3.01 3.01 0 01-2.43 1.53zm3.01 1.93c.74-.6 1.85-1.28 2.77-1.01-.95.27-1.83.72-2.77 1.01zm2.34 2.45c.61-.65 1.63-1.33 2.49-1.06-.86.27-1.65.73-2.49 1.06zm5.07 1.67c-.78.25-1.57.68-2.33.84.6-.6 1.5-1.01 2.33-.84zm2.56 2.38c-.52.4-3.02 1.37-1.37.33.43-.2.89-.36 1.37-.33zm.18 3.26c.6-.96 2.47-.65.77-.22-.25.09-.51.15-.77.22zm2.32 2.44c1.58-1.28 1.22.14 0 0zm5.09 32.28c-1.25 1.53-2.38 3.17-3.77 4.59-.33.23.6-.72.76-1 .94-1.25 1.83-2.53 2.72-3.82l.29.23zm-.22-7.01c.61-.1 1.27.58 1.22 1.1-.35-.42-.7-.87-1.22-1.1zm1.82-8.4c.33-.66 1.34-1.11 1.76-1.35-.47.52-1.18.82-1.44 1.52l-.32-.17zm3.09-.6c-.26.62-.45 1.3-.33 1.98 0 .57-.36 1.08-.58 1.56-.13-.55-.15-.07-.22 0-.23-.28.12-.47.24-.73.3-.42.38-.93.36-1.44.07-.46.3-1.1.53-1.37zm.67-.15c-.05.82.38 2.2-.22 2.67-.48-.3.4-1.25.14-1.84 0-.27-.02-.65.08-.83zm-3.64 2.92c.16-.5 1.28-1.29 1.33-1.28-.23.52-.87.79-.96 1.39l-.37-.11zm-42.49-9.65c.2-.15.47-.19.7-.29a16.3 16.3 0 001.81-.63c.02.27-.31.38-.48.54-.6.38-1.34.48-2.03.38zm-3.73-1.49c.23-.24.57-.08.85-.1.24-.1.38-.34.57-.52.23-.24.46-.48.65-.75.12.26-.1.53-.22.76-.2.3-.42.62-.76.78-.26.13-.54 0-.77-.14a.56.56 0 00-.32-.03zm-5.18-8.24c-.04.15-.1.3-.13.45a2.83 2.83 0 00.61 2.48c.04.07.2.13.09.2l-.22.22a2.92 2.92 0 01-.44-3.24l.05-.13.04.02z"/>
      <path d="M84.2 95.11c.36-.84.83-1.7 1.62-2.21.11-.09.06-.02.01.04a4.06 4.06 0 011.93-1.89 4.7 4.7 0 012.4-.56c.12-.02.4.1.13.08-.74.04-1.44.32-2.1.62-.8.43-1.65 1-1.99 1.9a3.5 3.5 0 00-1.15 1.27c-.21.22-.3.76-.52.88l-.33-.13zm.94.12c.31.04.57.3.66.6.07.15.16.29.26.43-.1.08-.23-.08-.32-.12-.17-.15-.23-.38-.33-.57-.08-.12-.2-.21-.27-.34z"/>
      <path d="M85.26 96.29a3.92 3.92 0 00-.41-.5c-.1-.11-.21-.22-.33-.31-.09-.06-.3-.1-.17-.24.05-.06.08-.2.14-.2a3.27 3.27 0 01.81 1.22l-.04.03zm4.91 4.77c.2.04.2-.19.26-.3.14-.17.37-.15.56-.2.48-.07.97-.17 1.44-.34l.53-.17c.03.14-.22.23-.32.33-.39.24-.83.35-1.26.48-.2.06-.41.1-.62.14.03.04-.06.26-.15.31-.1.09-.3.17-.4.09l-.04-.34zm-10.14-2.27c.98.18 1.98.28 2.97.33.6.01 1.18-.1 1.75-.2.23-.05.47-.04.66-.18.17-.02-.07.2-.14.22-.35.17-.71.27-1.08.39-.44.14-.9.17-1.36.15a7.17 7.17 0 01-2.78-.66c-.04.02-.04-.05-.02-.05zm-3.19 2.51a2.44 2.44 0 00-1.75.61l-.82.65c-.17.11-.35.21-.53.3-.05-.1.16-.1.2-.18.28-.19.52-.44.78-.67a5 5 0 01.78-.68 2.24 2.24 0 011.36-.43l-.02.4zm42.76-2.93a5.46 5.46 0 012.85-4.24 7.1 7.1 0 013.08-.84c.18-.03.54.03.2.1-.35.04-.69.15-1.03.23-1.53.4-3 1.21-3.96 2.49a7.55 7.55 0 00-1.13 2.24l-.01.02zm6.28 13.32c.66.3 1.23.84 1.5 1.52.29.66.36 1.39.54 2.08.12.4.27.78.45 1.15-.11.11-.17-.19-.25-.2-.61-.77-.74-1.75-1-2.65a3.87 3.87 0 00-1.24-1.9zm-7.82-8.72c.38.53.46 1.21.43 1.85-.03 1.14-.4 2.23-.55 3.35-.05.17.03.44-.02.57l-.36.04c-.07-.52.08-1.04.17-1.54.15-.68.33-1.34.43-2.03.12-.73.1-1.5-.13-2.21l.03-.03zM96.82 86.14a4.1 4.1 0 014.27.82 5.22 5.22 0 011.44 2.34c-.12-.04-.18-.26-.28-.36a7.3 7.3 0 00-1.12-1.42 4.57 4.57 0 00-3.22-1.42c-.35-.02-.81 0-1.09.04zm29.53 36.3a74.63 74.63 0 01-3.38 3.3c-.4.36-.79.7-1.2 1.03l-.03-.03a31 31 0 002.24-2.21 72.9 72.9 0 002.1-2.33l.27.24zm-27.64-20.08c.34-.38 1.02-.32 1.32.08-.43.13-.9.04-1.32-.08zm-.76.02c-.32.45-1.04.46-1.43.1.25-.24.89-.07 1.28-.11l.15.01zm-3.52-.51c.6-.1 1.22-.14 1.84-.15a1.4 1.4 0 01-1.84.15zM88.32 81.8c-.83-.65-2.43-.32-2.74-1.56.5.53 1.9.65 2.58 1.3.12.03.1.2.16.26zm1.85 5.11c-.64-.73-1.71-1.22-1.77-2.32-.15-.62.15-1 .24-.2.18 1 1.15 1.5 1.5 2.37zm2.58-10c-1 .54-1.94-.32-2.79-.73-.44-.06-1.05-.24-.25-.3 1.08 0 1.82 1.07 2.92 1zm-2.69 3.66c-1.17-.4-1.58-1.83-2.78-2.19 1.02-.23 1.71.85 2.24 1.55.17.23.34.45.54.64zm-2.63 3.26c-.65.03-1.64.54-2.06-.1.68.1 1.48-.38 2.06.1zm9.82-3.26c-.9-.45-2.15-.48-2.6-1.55-.4-.69-.03-.62.29-.08.57.77 1.62.84 2.24 1.53zm-2.95.83c-.84-.58-2.1-.83-2.35-2-.28-1.29.73 1.02 1.35 1.07.39.23.84.48 1 .93zm1.48-7.98c-.77 1.01-2.14.7-3.22.64-.78-.1.84-.4 1.1-.3.73.03 1.46.01 2.12-.34zm.54.56c1.23-.37 2.16.7 3.03 1.36.55.51-.98-.19-1.13-.44a3.84 3.84 0 00-1.9-.92zM86.18 85.79c.4.5.61 1.16 1.17 1.52-.01.1-.41.04-.55-.06-.48-.3-.7-.91-.62-1.46zm-1.55-.59c.47.47.63 1.26.32 1.86-.11-.18-.15-.44-.2-.66-.1-.4-.12-.8-.12-1.2zm-1.2 1.53c.05.5-.15.98-.21 1.47-.36-.27-.32-.8-.09-1.15a1 1 0 01.3-.32zm31.74 16.39c.11.1.21.2.34.28.1.08.23.13.35.18l.26.07c-.16.15-.42.15-.6.05a.63.63 0 01-.36-.43l.01-.15zm-1.37.31c.08-.02.16 0 .24 0 .05.02.1.04.17.05.06 0 .11.05.17.08.06.03.12.07.16.12a.4.4 0 01-.24.07c-.09 0-.19 0-.27-.06a.34.34 0 01-.15-.13.37.37 0 01-.07-.13h-.01zm-1.3.02c.24-.05.5.07.63.27.02.04.05.1-.01.09a.59.59 0 01-.54-.24c-.04-.03-.05-.1-.08-.12zm-1.4-.23c.07.03.15.05.2.1l.16.09c.06.05.13.1.18.16l.1.1a.44.44 0 01-.4-.05.59.59 0 01-.2-.19.49.49 0 01-.04-.21zm-7.7-12.59c.27.14.43.42.52.7.06.15.06.32.06.5a.89.89 0 01-.2.5c-.06-.02.02-.15 0-.22a3.38 3.38 0 00-.13-.83c-.03-.12-.06-.25-.12-.36l-.13-.29zm30.24 7.27c-.17-.3-.34-.6-.53-.87-.17-.22-.32-.45-.52-.65.4.3.77.66 1.13 1.02.07.09.16.17.21.27-.07.08-.18.13-.27.2-.02 0-.02.02-.02.03zm-40.74-12c-.66-.55-1.65-.71-2.06-1.54-.25-.28-.5-1.6-.06-.76.31.8 1.06 1.28 1.73 1.76.17.14.32.33.39.54zm4.32-8.95c-.83-.25-1.83-.01-2.52-.65-.32-.16-1.04-1.24-.33-.67.6.65 1.52.76 2.32.98.2.07.39.18.53.34zm-16.51 7.92c-.48-.21-.02-.57.04-.9.12-.3.25-.64.52-.86.39-.05.35.55.72.6.27.19.6 0 .25-.25-.34-.5-.28-1.3.27-1.64.15-.14.37-.47.56-.2.28.2-.38.4-.46.6-.4.4-.12 1.02.2 1.38.43.3-.1.64-.43.56-.43.06-.86-.3-1.07-.5-.22.4-.32.85-.6 1.21z"/>
      <path d="M80.71 84.87c-.13.26-1.09.78-1 .36.38-.14.67-.87 1-.36zm2.86-5.27c.09.65.02 1.34-.26 1.93-.4.36-.47-.29-.2-.51.18-.45.16-1.06.46-1.42zm2.73-4.33c-.6.4-.41 1.4.38 1.37.3.49-.81.8-.75.5.36.11.55-.68.58-.19-.51-.02-1.08-.46-.85-1.02.07-.31.28-.66.64-.66zm-1.53 2.35c-.22.48-.07 1.52-.27 1.67-.45-.47-.3-1.37.27-1.67zm5.47-5.49c-.18-.18-.32-.35-.03-.54.8-1.19.9-2.7.8-4.08-.1-1.58-.73-3.1-.6-4.7 0-.26.22-.75-.23-.5-1.98.61-3.9 1.67-5.23 3.29-.3.31-.52.85-.79 1.1-.31-.08-.33-.26-.09-.5 1.14-1.85 3.02-3.1 4.99-3.91.51-.19 1.03-.42 1.58-.44.46.21.05.82.13 1.2-.08 1.7.66 3.32.64 5.02.02 1.32-.15 2.74-.96 3.84l-.21.22z"/>
      <path d="M82.92 70.45a7.36 7.36 0 01.91-3.85c.5-.11.29.38.11.62-.48 1.01-.72 2.12-.98 3.2l-.04.03zm2.4 4.54c1.03-.07 2.17-.3 2.87-1.13.15-.43.58-.53.93-.75.38-.26.66-.64.81-1.07.5-.27.4.28.18.52-.33.56-.9 1-1.51 1.17.24-.26-.17.35-.27.42a3.4 3.4 0 01-3.02.86zm4.54-10.52c.62 1.85.82 3.96.04 5.8-.23.5-.52 1-.97 1.33.96-1.28 1.11-2.95 1.11-4.5 0-.88-.11-1.75-.18-2.63zm-2.48 2.78c.23 1.45-.37 3.1-1.67 3.86-.4.16.32-.4.37-.6a8.8 8.8 0 001.3-3.26zm-3.28 5c-.67-.97-.48-2.25-.15-3.31a7.7 7.7 0 012.61-4.07 5.3 5.3 0 012.22-1.02 7.56 7.56 0 00-4.29 4.61c-.47 1.18-.95 2.55-.39 3.79z"/>
      <path d="M87.63 73.54c.24.04.5-.02.72-.09l.19-.06.07.37c-.3 0-.6-.01-.86-.15l-.12-.08v.01zm1.72-1.04c.24-.17.47-.36.62-.62.02-.02.04.02.06.03l.23.21c-.26.2-.59.3-.9.38h-.01zm-25.34-4.12c.25-.21.65-.06.8.2.23.33.22.75.21 1.14-.06 1.01-.28 2.02-.2 3.04.02.22.06.44.11.65a4.94 4.94 0 01-.32-2.2c.03-.66.1-1.32.06-1.98a.85.85 0 00-.27-.6 1.1 1.1 0 00-.39-.25z"/>
      <path d="M63.86 71.26c.16-.53.24-1.1.2-1.66-.03-.57-.36.32-.28-.11.13-.64.72-.03.66.37.09.5-.02 1.22-.58 1.4zm5.48-.24c-.04-.65-.6-1.15-1.13-1.35.06-.18.09-.45.3-.22.53.34.9.93.83 1.57zm2.4-.64a1.85 1.85 0 00-.98-.96c.1-.13.18-.47.34-.2.34.29.6.7.64 1.16zm2.81-1.33c-.17-.46.05-1.03.54-1.18.92-.2 1.82.25 2.65.6.3.16.98.4 1.02.5-1.15-.08-2.2-.7-3.35-.79-.53-.1-.84.4-.86.87zm1.66 3.07c-.28-.02-.55 0-.82.07.24-.2.52-.32.8-.44l.02.37zm-1.77-1.55c-.17.57-.03 1.2-.25 1.76-.12.33-.29.74-.65.87.35-.67.45-1.43.62-2.15.06-.18.17-.33.28-.48zm-.82 1.46c-.23-.7-.18-1.6.42-2.1.25-.17-.06.43-.06.65-.12.48-.18.98-.36 1.45zm4.42 8.85c-.22-.94-.83-1.7-1.33-2.5a2.6 2.6 0 011.42 1.93 1 1 0 01-.09.57zm-1.09-10.64c.06 0 .11.05.1.11l-.11.37c-.05.17-.06.35-.04.53.01.12.04.24.03.37 0 .07-.07.08-.12.06a.73.73 0 01-.44-.32.45.45 0 01-.07-.25v-.3c.02-.2.13-.38.3-.48a.6.6 0 01.35-.09zm-6.37 12.59c-.36.73-1.39.75-2.03.41-.38-.16-.38-.27 0-.22.68.06 1.4.18 2.03-.19zm8.75-8.81c.25-.27.73.37.3.32-.15-.02-.28-.16-.3-.32zm.75-.08c.3-.27.63.44.17.29a.37.37 0 01-.17-.29zm.69.06c.48-.29.23.57 0 .1V74zm-2.04.2a.36.36 0 01.28-.02c.04.02.09.04.12.08.05.08.09.17.06.27H79a.37.37 0 01-.22-.16c-.03-.04-.04-.09-.05-.13v-.04zm-.63.2a.15.15 0 01.18-.05c.08 0 .14.04.2.1.05.04.05.1.05.17 0 .04 0 .08-.05.07-.07 0-.15.01-.21-.02-.08-.04-.13-.13-.15-.22 0 0 0-.05-.02-.05zm-.57.24c.07-.09.22-.1.28 0 .04.06.03.13.01.2-.1.06-.29.06-.29-.08v-.12zm-.58.12l.12-.06.09.01c.05.04.03.1.02.16 0 .04-.03.05-.05.07l-.08.04c-.06 0-.13-.03-.12-.1l.02-.12z"/>
      <path d="M75.1 69.08c-.24.26-.17.67-.01.95.13.22.43.2.66.18.3-.04.58-.11.88-.15 1-.08 2.03-.05 2.98.29.27.09.53.21.76.37a9.43 9.43 0 00-3.13-.32c-.18 0-.36.03-.54.02-.48.08-.96.21-1.44.08-.35-.1-.54-.46-.5-.8a.68.68 0 01.34-.62zm-5.89 12.07c-.92-1.12-1.31-2.56-1.67-3.94a18.4 18.4 0 01-.34-5.86c.08-.7.23-1.4.51-2.04-.4 1.52-.33 3.11-.24 4.66.1 1.18.22 2.35.48 3.5.28 1.27.61 2.55 1.27 3.69zm7.23 4.62c.29-.04.57.05.86.05.21 0 .37-.16.51-.3.11-.08.24-.13.31-.25.06-.08.08-.18.12-.28.05-.23.12-.45.16-.68.05-.23.07-.46.21-.65-.1.3-.05.63-.09.94 0 .25-.08.48-.13.72-.03.1-.1.17-.15.26-.08.1-.18.16-.27.24-.14.15-.29.3-.5.36-.33.11-.68-.03-1.02 0v-.41z"/>
    </g>
  </g>
</svg>
