<svg xmlns="http://www.w3.org/2000/svg" fill="#d7374a" stroke="#000" viewBox="50 50 200 200">
  <metadata source="http://wappenwiki.org/images/c/c9/Polkozic_Toison.svg" license="https://creativecommons.org/licenses/by-nc-sa/3.0"/>
  <g id="donkeyHeadCaboshed" stroke-width=".28">
    <path class="secondary" d="M104.64 130.59c-1.86-.16-2.77-.38-4.42-.38-1.64 0-2.56.22-4.38.37l-.18 4.16c0 2.73 1.81 5.19 4.5 5.19 2.7 0 4.67-2.33 4.67-5.19l-.19-4.15z"/>
    <g stroke="none" fill="#000">
      <path d="M100.21 132.27a16.65 16.65 0 0 0 .1 1.68l.01.48v1.47l-.03.86-.06.83h-.04l-.06-.84-.03-.84v-1.96l.05-.85c.01-.5.05-.84.05-.84h.01z"/>
    </g>
    <g>
      <g>
        <path d="M91.92 81.15c-4.5-2.18-5.97-4.72-8.12-6.93-2.1-2.18-5.25-8.12-7.96-11.22a13.49 13.49 0 0 0-2.9-2.65c-.97-.53-1.92-.23-2.78.8a7.92 7.92 0 0 0-1.76 4.13c-.23 1.8-.09 3.62.09 5.43.15 1.5.61 3.05 1.1 4.5.93 2.72 2.84 4.88 3.72 6.07 1.87 2.52 4.41 4.11 7.27 5.33 1.61.69 5.55.78 7 1.75"/>
        <g stroke="none" fill="#000">
          <path d="m71.92 71.86.03.07.04.24.02.36c0 .14 0 .29.04.45.02.07.05.15.1.22.04.08.09.15.15.22.06.09.13.17.17.27l.03.09v.02l.02.03v.03l.03.19c0 .24-.07.45-.07.64l.01.14.04.14c.03.1.08.19.15.27l.39.54.39.52a12.66 12.66 0 0 1 .65.97c.18.29.3.55.38.74.05.09.07.16.09.21l.02.07-.04-.06-.12-.2a21.03 21.03 0 0 0-.8-1.1l-.39-.47-.4-.51c-.15-.18-.29-.36-.42-.55-.06-.1-.13-.2-.16-.33l-.06-.18a1.4 1.4 0 0 1-.02-.2c.01-.25.09-.46.1-.65v-.13l-.01-.04v-.02c0 .01 0 0 0 0v-.02l-.02-.06a.87.87 0 0 0-.13-.24l-.15-.25c-.05-.1-.07-.2-.09-.28-.02-.19 0-.35.01-.49l.04-.35v-.23l-.02-.07zm.48-7.13.04.76.01.2.02.18c.01.13.05.25.07.38a3.26 3.26 0 0 0 .27.7c.1.23.24.45.37.66l.4.66a4.47 4.47 0 0 1 .36.7c.06.12.1.25.13.37l.05.2.02.09v.1l.03.2v.19c0 .13 0 .25.02.37.01.12.04.23.09.34l.08.15.06.06.05.07c.16.17.38.31.58.46a2.7 2.7 0 0 1 .6.53c.04.06.09.11.12.19l.03.05v.02l.01.02.02.05.02.05c.05.14.06.28.07.41.02.27 0 .52.06.75.05.22.18.44.33.6.16.18.35.32.57.41.21.1.44.14.68.12l.2-.01-.06.2a1.86 1.86 0 0 0-.04.95 5.59 5.59 0 0 0 .32.97l.4.97a2.72 2.72 0 0 1 .22 1.59c-.04.18-.1.34-.11.5-.03.16-.02.32.08.41.1.1.26.12.43.13l2.08.17h.01l.01.02a3.04 3.04 0 0 1 .33 1.3 3.11 3.11 0 0 0-.4-1.26l.04.02c-.68-.02-1.37-.04-2.07-.08a1.4 1.4 0 0 1-.27-.03.52.52 0 0 1-.27-.13.56.56 0 0 1-.15-.27.74.74 0 0 1 0-.29l.1-.5c.03-.17.03-.33.02-.5a3.71 3.71 0 0 0-.26-.98c-.12-.32-.28-.63-.42-.95a5.21 5.21 0 0 1-.34-1.01 2.69 2.69 0 0 1-.06-.55c0-.19.04-.38.1-.55l.13.17a1.77 1.77 0 0 1-1.48-.62 1.7 1.7 0 0 1-.38-.74c-.06-.27-.04-.54-.06-.78-.01-.12-.02-.24-.06-.34v-.04l-.03-.05v-.02l-.02-.01-.01-.04c-.02-.06-.06-.1-.09-.15a2.47 2.47 0 0 0-.54-.48c-.2-.15-.43-.3-.61-.5l-.07-.1-.06-.07c-.04-.07-.09-.13-.1-.2a1.05 1.05 0 0 1-.1-.4V69.94l-.03-.18v-.1l-.02-.09-.04-.18c-.04-.12-.07-.24-.12-.35-.09-.23-.2-.46-.33-.68l-.38-.66a6 6 0 0 1-.6-1.43c-.02-.13-.04-.26-.04-.38l-.01-.2v-.96z"/>
          <path d="M69.5 69.9a8.57 8.57 0 0 0 .1.68l.05.35.08.4.1.47.13.52.07.27.09.28.18.57.1.3.13.3.24.63.28.64.07.15.09.16.15.32.16.32.18.32c.12.22.23.43.36.63l.38.63.4.6c.27.4.56.78.83 1.15l.42.52.2.25.21.24.4.47.4.42.36.38.33.34.3.3.26.24.36.34.13.12-.14-.11-.39-.32a2.8 2.8 0 0 1-.27-.23l-.31-.28-.36-.32-.38-.37-.4-.4a20.3 20.3 0 0 1-.64-.7l-.22-.25-.43-.52c-.28-.37-.59-.74-.86-1.15-.29-.39-.54-.81-.8-1.23l-.36-.65-.18-.32a10.15 10.15 0 0 1-.16-.33l-.16-.32-.07-.16-.07-.17-.27-.65-.12-.33-.11-.31-.11-.32-.1-.3-.16-.6-.07-.3-.05-.27-.12-.52-.06-.48-.06-.42-.02-.35-.04-.5c-.06-.06-.06-.13-.06-.13zm1.58-7.58.06-.01.08-.01h.13c.17 0 .44.02.76.1.64.2 1.49.68 2.35 1.44.21.19.42.4.64.63l.3.35.31.37a53.49 53.49 0 0 1 3.85 5.26 38.15 38.15 0 0 1 1.66 2.96c.15.33.3.67.41 1 .26.67.5 1.31.67 1.95.16.63.28 1.24.43 1.79.15.55.32 1.03.5 1.45l.3.58.27.47.25.37.18.27a7.45 7.45 0 0 0 .16.23l-.17-.22a7.73 7.73 0 0 0-.2-.26l-.26-.36-.3-.47c-.1-.17-.21-.36-.3-.57a8.94 8.94 0 0 1-.57-1.45c-.15-.55-.3-1.15-.48-1.77a8.99 8.99 0 0 0-.23-.7l-.02-.06-.02-.06-.05-.12-.37-.98a15.07 15.07 0 0 0-.94-1.96A40.64 40.64 0 0 0 78.1 68.72c-.43-.6-.85-1.2-1.28-1.77a72.07 72.07 0 0 0-1.25-1.62l-.3-.37-.3-.35a9.78 9.78 0 0 0-1.8-1.59A4.64 4.64 0 0 0 72.1 62.5a2.53 2.53 0 0 0-.75-.15h-.12l-.08.01-.08-.03z"/>
        </g>
      </g>
      <g>
        <path d="M108.08 81.15c4.5-2.18 5.98-4.72 8.12-6.93 2.1-2.18 5.25-8.12 7.96-11.22.73-.83 1.94-2.12 2.9-2.65.98-.53 1.93-.23 2.78.8a7.93 7.93 0 0 1 1.76 4.13c.23 1.8.1 3.62-.08 5.43a20.7 20.7 0 0 1-1.11 4.5c-.92 2.72-2.83 4.88-3.72 6.07-1.87 2.52-4.4 4.11-7.27 5.33-1.6.69-5.55.78-7 1.75"/>
        <g stroke="none" fill="#000">
          <path d="M128.08 71.86v.31l.03.35c.02.14.03.3 0 .49 0 .09-.03.18-.07.27s-.1.18-.15.26c-.05.08-.1.15-.13.24l-.02.06v.02s0 .01 0 0v.02l-.01.04v.13c0 .18.08.4.1.65 0 .07 0 .13-.03.2a1.79 1.79 0 0 1-.22.5l-.41.56-.41.5-.38.48-.34.43a8.5 8.5 0 0 0-.46.67l-.12.2-.05.06.03-.07.08-.22c.08-.18.2-.43.38-.73a12.66 12.66 0 0 1 .65-.97l.4-.52c.13-.18.28-.36.39-.54l.15-.27.03-.14.01-.14c0-.2-.06-.41-.06-.64 0-.06 0-.12.02-.19v-.04l.01-.02.01-.02.03-.09a1.49 1.49 0 0 1 .17-.27l.16-.22a.76.76 0 0 0 .09-.22c.04-.15.05-.31.05-.45s0-.26.02-.36l.03-.24.02-.08zm-.48-7.13v.97l-.01.2c0 .12-.03.25-.05.37a6 6 0 0 1-.6 1.43l-.38.66a6.49 6.49 0 0 0-.32.68l-.12.35-.04.18-.02.1v.09l-.03.18V70.52a1.3 1.3 0 0 1-.1.4l-.1.2-.07.08-.06.08c-.19.2-.41.36-.62.5a2.48 2.48 0 0 0-.54.49l-.08.15-.02.04v.01l-.02.02-.02.05v.04c-.03.1-.05.22-.06.34-.02.24 0 .51-.07.78a1.8 1.8 0 0 1-1.86 1.36l.14-.17a2.19 2.19 0 0 1 .04 1.1c-.08.35-.2.68-.35 1.01l-.42.95a3.62 3.62 0 0 0-.26.98c-.01.16 0 .33.02.5.03.15.09.33.1.5.01.1.02.19 0 .3a.48.48 0 0 1-.14.26.52.52 0 0 1-.27.13l-.27.03-2.09.07.04-.01a3.13 3.13 0 0 0-.4 1.25 3.15 3.15 0 0 1 .33-1.3l.01-.01h.02l2.08-.17c.16 0 .33-.03.42-.13.1-.1.12-.25.09-.4-.03-.17-.09-.33-.11-.51a1.8 1.8 0 0 1-.03-.55c.03-.36.13-.7.25-1.04.12-.34.27-.65.4-.97.13-.32.25-.64.32-.97.06-.32.06-.66-.04-.96l-.07-.2.21.02c.23.02.47-.02.68-.12s.4-.23.57-.4c.15-.18.28-.4.32-.61.06-.23.05-.48.07-.75 0-.13.03-.27.06-.4l.02-.06.02-.05.01-.02.01-.02.03-.05.1-.19a2.7 2.7 0 0 1 .61-.53c.22-.15.42-.29.58-.46l.06-.07.05-.06.09-.15c.04-.1.07-.22.08-.34l.02-.37v-.2l.03-.2v-.1l.03-.09.04-.2c.05-.11.08-.24.13-.37.1-.24.23-.47.36-.7l.4-.65c.14-.21.28-.43.38-.66a3.26 3.26 0 0 0 .27-.7c.03-.13.05-.25.06-.38l.02-.18.01-.2.06-.76z"/>
          <path d="M130.51 69.9v.18l-.04.5-.03.35-.06.42-.06.47-.11.52-.06.28-.07.3-.16.59a3.86 3.86 0 0 1-.2.62l-.12.32-.12.32-.27.66-.07.16-.07.16-.16.33a10.15 10.15 0 0 0-.16.32l-.17.33-.37.64c-.26.42-.52.84-.8 1.24-.27.41-.58.77-.86 1.15l-.43.52-.22.25-.21.23-.42.46-.41.4-.38.38-.36.32a7.6 7.6 0 0 1-.31.28l-.27.23-.4.32-.13.1.13-.11.36-.35.26-.24.3-.3.33-.33.37-.38.39-.42.4-.47.2-.24.2-.25.43-.52c.27-.38.56-.75.83-1.15.13-.2.28-.4.4-.6l.38-.63.36-.63.18-.32.16-.32.16-.32.08-.16.07-.16.28-.63c.1-.22.16-.42.25-.62l.12-.31.1-.3.19-.58.08-.28.07-.27.13-.5.1-.47.08-.41.06-.36.07-.5c-.03-.15-.02-.22-.02-.22zm-1.58-7.58h-.07l-.08-.01h-.12c-.18 0-.44.03-.75.15-.31.1-.67.27-1.05.53a9.31 9.31 0 0 0-1.81 1.58l-.3.35-.3.38-1.25 1.62a54.05 54.05 0 0 0-3.66 5.58c-.17.33-.35.65-.5.98a41.94 41.94 0 0 0-.81 1.97l-.05.12-.02.05-.01.06-.09.24-.15.47c-.18.62-.31 1.22-.48 1.76a8.62 8.62 0 0 1-.56 1.46l-.3.57-.32.47-.26.36-.2.26-.18.22.16-.22.19-.27.24-.38.28-.47a9.08 9.08 0 0 0 .8-2.03c.14-.55.25-1.16.43-1.79a22.88 22.88 0 0 1 1.08-2.95 41.2 41.2 0 0 1 4.22-6.61 41.9 41.9 0 0 1 1.28-1.6l.3-.38.32-.35c.21-.22.42-.43.64-.63a6.5 6.5 0 0 1 2.35-1.43c.31-.1.58-.11.76-.11h.2c.04.05.07.05.07.05z"/>
        </g>
      </g>
      <path d="M114.9 96.22a7.3 7.3 0 0 0-.89-5.81 7.1 7.1 0 0 1-.75-1.44c-.67-1.67-.3-2.54-.28-4.18a5.3 5.3 0 0 0-.81-2.88c-.37-.71-.64-1.84-1.13-2.46-.65-.96-1.6-1.9-2.49-1.91.5-.5.9-1.22.83-1.93 0-.12-.15-.18-.25-.1-.85.65-2.73 1.08-3.8 1.21a3.6 3.6 0 0 0 .14-2.1c-.05-.15-.25-.27-.34-.13-.45.68-1.21 1.93-2.79 2.06l-.21.01h-.17c-.65.01-1.17-.07-1.77-.24-.29-.08-.69-.2-.9-.4a1.32 1.32 0 0 1-.44-1c-.36.37-.47 1.34-.07 1.74a4 4 0 0 0-.88-.1c-1.75 0-2.57-1.36-3.03-2.07-.1-.14-.3-.02-.35.14-.17.52-.1 1.57.14 2.1-1.07-.14-2.95-.57-3.8-1.23a.16.16 0 0 0-.25.11c-.06.71.34 1.43.83 1.93-.9.02-1.82.95-2.5 1.9-.49.63-.75 1.77-1.12 2.47a5.3 5.3 0 0 0-.81 2.88c0 1.64.39 2.5-.28 4.18a7.1 7.1 0 0 1-.76 1.44 4.93 4.93 0 0 0-.3.46 7.3 7.3 0 0 0-.59 5.35c.48 1.8 1.83 3.34 1.89 5.2.07 2.14-.27 4.17-.19 6.3.04 1.09.3 2.14.47 3.2.67 4.15 4.43 8.06 4.75 12.25-.4.72-.5 1.37-.77 2.14a8.75 8.75 0 0 0-.43 1.61c-.06.37-.08.76-.05 1.14.16 2.08 1.7 3.33 3.2 4.63.43.38.87.53 1.36.81a8.97 8.97 0 0 0 4.68 1.03c1.9 0 3.28-.25 4.67-1.03.5-.28.93-.43 1.36-.8 1.51-1.3 3.05-2.56 3.2-4.64.03-.39.01-.76-.04-1.14a8.74 8.74 0 0 0-.43-1.61c-.28-.77-.37-1.42-.77-2.14.31-4.2 4.08-8.1 4.75-12.25.16-1.06.42-2.11.46-3.2.09-2.41-.27-3.96-.18-6.3.07-1.86 1.42-3.4 1.9-5.2z"/>
    </g>
    <g>
      <path fill="#f6f6f6" d="M91.51 101.53c0 .43-.67 1.19-2.25 1.19-1.2 0-1.8-2.54-1.8-2.77 0-.22.02-1.34 1.1-1.34 1.19 0 2.95 2.95 2.95 2.92zm19.92-2.92c1.08 0 1.11 1.13 1.11 1.34 0 .22-.6 2.77-1.8 2.77-1.59 0-2.26-.77-2.26-1.2 0 .04 1.78-2.9 2.95-2.9z"/>
      <g stroke="none" fill="#000">
        <path d="m91.96 122.97.06-.07.13-.19.17-.27.16-.32c.1-.24.19-.48.25-.67l.09-.3-.06.31a5.3 5.3 0 0 1-.28 1.07l-.14.3-.1.22-.05.07-.23-.15zm15.85.15-.04-.07-.1-.22a4.93 4.93 0 0 1-.28-.67 5 5 0 0 1-.2-1.01l.09.3c.06.2.14.43.24.67l.17.32.17.27.13.19.05.07-.23.15zM94.79 76.66h.01l.02.04.08.14a1.49 1.49 0 0 0 .34.37l.11.08.11.07.11.06.1.05.17.05.06.02h-.06l-.17-.04-.11-.02-.13-.04-.13-.06-.13-.06a1.83 1.83 0 0 1-.55-.47l-.03-.05h-.04l.24-.14zm-3.26.77.05.05.12.1a3.84 3.84 0 0 0 .83.57l.15.08.05.03-.06-.02-.17-.04c-.14-.04-.31-.1-.48-.18-.18-.07-.35-.16-.47-.23a1.47 1.47 0 0 1-.2-.13l.18-.23zm17.07 24.17-.04.06-.12.16a2.76 2.76 0 0 0-.47 1.06l-.04.2v.07-.28c.01-.16.04-.37.1-.59.06-.21.15-.42.22-.58l.1-.17.03-.07.22.14zm-16.96-.16.03.07.1.18a3.33 3.33 0 0 1 .31 1.17l.01.2v.07-.08l-.04-.2a2.76 2.76 0 0 0-.48-1.05l-.11-.16-.05-.06.23-.14zm-4.35-2.64.2-.07.42-.14.45-.09.2-.03v.28l-.2-.02a3.42 3.42 0 0 0-.88.05l-.2.02zm3.06 1.04s-.12-.02-.12.7c0 .73.69 1.39.4 1.39-.94 0-1.7-.91-1.7-2.04 0-.75.25-.81.35-1.06m16.17-22.03v.01l-.04.05-.12.14a1.79 1.79 0 0 1-.56.4l-.13.05-.12.03-.12.03-.16.03-.07.01.07-.02.16-.05.1-.05.11-.06.11-.07.11-.09a1.7 1.7 0 0 0 .42-.5l.02-.04h.01l.21.13zm3.2.84-.06.04-.15.1a3.6 3.6 0 0 1-.95.4l-.16.04-.07.02.06-.03.15-.07.43-.26c.15-.1.3-.22.4-.31l.12-.11.04-.05.19.23zm2.07 21.2c.1.24.35.31.35 1.06 0 1.12-.76 2.04-1.7 2.04-.3 0 .4-.66.4-1.39 0-.73-.12-.7-.12-.7m3.07-1.05-.2-.03a4.75 4.75 0 0 0-.9-.05l-.19.02v-.28a5.46 5.46 0 0 0 .65.12l.43.14c.12.06.2.08.2.08z"/>
      </g>
    </g>
    <g stroke="none" fill="#000">
      <path d="m107.75 87.53.08-.08.04-.04.02-.05.04-.05.04-.07.06-.16.05-.2c0-.06.03-.13.03-.2V86.22l-.03-.22-.05-.2a4.09 4.09 0 0 0-.16-.45l-.06-.09.07.08.06.1.07.16.08.17.06.2.06.23.04.23v.12l.02.13v.23l-.03.22c-.02.08-.03.14-.06.2l-.03.08-.03.08-.04.08-.04.05-.06.08-.23-.17zm-2.17-.46v-.14c.01-.09.05-.2.1-.34l.03-.05.01-.05.04-.11.03-.11.02-.13.03-.26v-.13l-.01-.14-.03-.27-.03-.13-.03-.12c-.03-.08-.04-.16-.08-.23l-.1-.2-.09-.17-.07-.12-.08-.12.1.09.12.1.13.15.12.2.11.25.05.13.03.14c.02.09.04.2.04.29V85.89a2.91 2.91 0 0 1-.1.41l-.04.12-.1.2-.17.3-.03.15zm-4.85 1.47v-.3l-.02-.2-.04-.25-.07-.27c-.04-.18-.09-.39-.12-.6 0-.1-.02-.22 0-.33a1.52 1.52 0 0 1 .14-.59l.14-.22.08-.08.09-.07a.84.84 0 0 1 .15-.08l.1-.03h.04l-.04.01-.1.06-.11.1-.13.16-.05.1-.05.11a2.14 2.14 0 0 0-.06.26l-.03.29a2.85 2.85 0 0 0 .06.6l.05.3c.03.19.06.38.05.53l-.01.22-.03.17-.03.1z"/>
      <path d="M102.6 86.45v.13l-.01.16-.01.1-.02.11a2.51 2.51 0 0 1-.2.56 4.36 4.36 0 0 1-.4.65l-.27.35-.26.36-.1.2-.05.11-.03.11c-.05.15-.08.32-.1.48a4.3 4.3 0 0 0 .14 1.55l.09.25c.01.04.02.09.05.12l.03.06.02.03.02.05a.28.28 0 0 1-.06.26.3.3 0 0 1-.25.1h-.05l-.02-.01-.03-.01-.07-.02-.14-.06-.13-.07-.12-.07-.23-.16a4.42 4.42 0 0 1-.81-.75l-.09-.1-.08-.1-.16-.2-.14-.22-.06-.1-.06-.12c-.07-.14-.15-.28-.2-.42a4.44 4.44 0 0 1-.15-.41l-.06-.2-.03-.1-.01-.09-.07-.35-.04-.32-.02-.27v-.5l.05.5.05.26.05.3.1.35.02.1.04.08.08.19.16.4c.06.13.14.25.22.4l.05.1.07.09.14.2.16.19.07.1.08.08c.23.26.5.49.79.68l.22.14.23.12.12.05.1.04s0-.01 0 0c.02.02 0-.02 0-.01l-.01-.04-.03-.06-.06-.13a3.1 3.1 0 0 1-.21-.83 4.02 4.02 0 0 1 0-1.11 2.51 2.51 0 0 1 .12-.52l.05-.12.05-.12.12-.22c.1-.15.2-.26.3-.38a7.6 7.6 0 0 0 .71-.93 3.14 3.14 0 0 0 .3-.73l.03-.16v-.1zm7.76-.88a7.17 7.17 0 0 0 .01 2.64l.08.44.05.21.02.12v.14a.26.26 0 0 1-.27.2l-.05-.01h-.02v-.02l-.06-.02-.1-.03a5.1 5.1 0 0 1-1.9-1.24l-.16-.17-.08-.08v-.01s-.01-.01 0 0h.05s.01-.01 0 0v.02l-.07.09-.11.18a7.65 7.65 0 0 0-.71 1.6c-.1.28-.18.56-.24.84l-.1.43-.04.23v.03l-.01.05-.06.07a.29.29 0 0 1-.17.09.28.28 0 0 1-.2-.04l-.04-.03-.02-.02-.04-.03-.03-.04-.05-.05-.08-.09a2.25 2.25 0 0 1-.27-.4 3.22 3.22 0 0 1-.32-.86 4.97 4.97 0 0 1-.05-1.8l.03.08c-.03-.03-.07-.04-.12-.04-.05 0-.11.02-.17.04l-.03.02-.05.02-.08.04-.16.1-.3.25-.13.15-.11.16-.1.16-.07.18c-.05.12-.07.25-.11.38l-.13.38a.51.51 0 0 1-.12.17.53.53 0 0 1-.17.11.47.47 0 0 0 .15-.12c.04-.04.07-.1.1-.17a1.77 1.77 0 0 0 .1-.38c.03-.13.05-.26.1-.39a1.68 1.68 0 0 1 .16-.38l.12-.18.13-.15a2.8 2.8 0 0 1 .3-.28c.05-.04.1-.09.17-.12l.1-.04.04-.02.05-.02a.79.79 0 0 1 .22-.06c.07 0 .18.01.25.08l.04.03-.01.04a5.5 5.5 0 0 0 .1 1.74 2.7 2.7 0 0 0 .55 1.15l.07.07.03.04.05.04.05.04.02.01c-.01 0 0 0 0 0h.04l.01-.01v-.02l.04-.22a7.63 7.63 0 0 1 .34-1.31 9.35 9.35 0 0 1 .74-1.66l.13-.2.06-.08.02-.02.05-.04a.19.19 0 0 1 .12-.04c.05 0 .08.01.12.03l.06.04.03.02.07.09.15.16a6.42 6.42 0 0 0 1.39 1.04 7.45 7.45 0 0 0 .39.19l.1.03.06.02v.01h.02c.03.01.06-.02.07-.04v-.06l-.02-.11-.04-.23-.06-.44a5.8 5.8 0 0 1-.03-1.8c-.02-.35.04-.63.11-.92zm-7.66 38.5-.03-.02c-.02 0-.04-.03-.06-.07l-.01-.11c0-.05.01-.09.03-.12l.05-.06.06-.04.1-.03.1.02.02.02-.01.04-.03.06-.05.13c-.02.04-.06.07-.1.1l-.05.05-.02.03zm-.54 1.8-.02-.07-.03-.16.01-.24c.01-.08.04-.16.07-.25l.05-.12.07-.11c.04-.08.1-.13.15-.18a.56.56 0 0 1 .13-.1l.05-.03v.07l-.04.15a8.13 8.13 0 0 1-.33.85l-.07.14-.04.05zm-1 1.9-.03-.07-.03-.16a1.84 1.84 0 0 1 .15-1c.03-.06.07-.1.1-.14l.04-.06v.07l.02.17a2.7 2.7 0 0 1-.16.96l-.06.16-.04.07zm-.48 2.75.03.03.08.08c.05.06.1.16.12.26.02.1.02.2 0 .28l-.03.1a.1.1 0 0 1-.02.04l-.03-.03-.08-.08a.68.68 0 0 1-.12-.26.7.7 0 0 1 0-.28l.03-.1.02-.04zm1.23-.37.02.04a1 1 0 0 1 .09.7l-.04.12-.02.05-.03-.04-.07-.1a.8.8 0 0 1-.1-.3c0-.12.03-.24.06-.32l.06-.1.03-.05zm1.22-.31v.05l.01.14a1.84 1.84 0 0 1-.13.75l-.07.12-.03.04-.03-.04-.04-.13a1.04 1.04 0 0 1 .15-.78l.08-.1.06-.05zm9.01-27.23-.07.14-.1.16-.16.2-.2.2c-.08.07-.18.15-.28.2l-.17.06-.1.02-.04.01-.04.01c-.13.02-.26.01-.37.01-.24 0-.47-.04-.69-.1l-.3-.08-.26-.07-.23-.03-.17.01-.12.03-.03.01.02-.03.1-.06a1 1 0 0 1 .44-.1l.28.02.31.05a7.23 7.23 0 0 0 .99.06 1 1 0 0 0 .29-.06c.18-.07.34-.19.47-.29l.32-.27.11-.1zm-1.2-6.82-.05.07-.06.07-.09.1-.09.14-.1.18c-.06.12-.11.27-.17.44l-.16.54-.17.61a4.62 4.62 0 0 1-.57 1.29l-.38.6-.38.56a4.52 4.52 0 0 1-.8.91 2.51 2.51 0 0 1-.38.3l-.18.11-.15.09a1.68 1.68 0 0 1-.3.12l.08-.05.2-.13.14-.1.14-.13.09-.08.08-.08.18-.18.35-.42a7.08 7.08 0 0 0 .36-.52l.35-.56.36-.6c.13-.2.24-.4.34-.6.1-.21.19-.42.25-.62.14-.41.26-.81.41-1.14a2.6 2.6 0 0 1 .23-.42l.12-.17.12-.13a1.12 1.12 0 0 1 .18-.16l.06-.04zm-4.52-1.08-.03-.04-.05-.08-.1-.21a1.06 1.06 0 0 1-.06-.24V94l.04.01.1.04a.5.5 0 0 1 .16.16l.04.07.02.16c0 .06 0 .1-.02.14l-.06.1-.04.03zm.32 1.17-.03-.03-.05-.08a.4.4 0 0 1-.03-.21c0-.08.03-.15.08-.2l.06-.06.03-.02.02.03.05.07a.4.4 0 0 1 .04.22c-.01.07-.04.14-.09.2l-.05.06-.03.02zm.2 1.11v-.15a.93.93 0 0 1 .2-.45l.06-.08.04-.03.02.04.04.1v.14l-.03.15a.4.4 0 0 1-.08.13l-.1.1-.1.04-.05.01zm-.3 1.46v-.05l.02-.11c.01-.09.06-.19.12-.28a.8.8 0 0 1 .2-.23l.1-.06.03-.02.01.05v.1a.65.65 0 0 1-.11.3.76.76 0 0 1-.23.23l-.1.05-.04.02zM93.58 94.7l-.03-.03-.05-.09a.34.34 0 0 1-.03-.14c0-.06 0-.11.03-.16l.04-.07.04-.07.11-.1.1-.03h.05v.14a1.06 1.06 0 0 1-.17.44l-.05.08a.28.28 0 0 0-.04.03zm-.31 1.17-.03-.02-.06-.07a.47.47 0 0 1-.08-.2c-.01-.07 0-.14.03-.2l.05-.08.03-.03.03.02.05.06c.04.06.08.12.09.2 0 .07-.01.15-.04.21l-.05.08-.02.03zm-.21 1.11h-.04l-.09-.05a.32.32 0 0 1-.1-.1l-.09-.13a.44.44 0 0 1-.03-.15c-.01-.04 0-.09 0-.14l.04-.1.02-.04.04.03.06.08a.86.86 0 0 1 .2.45v.1l-.01.05zm.3 1.46-.04-.01-.1-.05a.65.65 0 0 1-.23-.22.65.65 0 0 1-.12-.3v-.11l.01-.05.04.02.1.06c.07.06.13.14.2.23.05.09.1.18.12.28l.02.1v.05zm13.13 8.63.04.06.08.17.07.25.05.3a1.58 1.58 0 0 1 0 .3l-.04.26-.05.18-.03.06-.03-.06-.05-.18a2.92 2.92 0 0 1-.07-.53 2.6 2.6 0 0 1 0-.54l.02-.19v-.08zm.08-1.4a.56.56 0 0 0 .13.07l.08.06.08.08c.03.03.06.07.07.12l.07.13.05.14.02.14.01.14-.01.13-.03.1-.04.1-.04.07-.03.05-.01-.06-.03-.16-.1-.45-.02-.12-.04-.11-.04-.11-.02-.1-.06-.16c-.04-.03-.04-.06-.04-.06zm-.03-1.55.07.02.06.03.09.05a.84.84 0 0 1 .17.15l.09.1.06.11.05.12c.02.04.02.09.03.13 0 .09.02.17 0 .24l-.02.09-.02.06-.03.06-.02-.06-.07-.14-.18-.38c-.06-.13-.13-.27-.2-.37l-.06-.14-.02-.07zm-.7 9.34.01.05.04.14.16.5.12.33.14.37.13.4.12.42.1.43.07.42.05.39.02.35c.03.44 0 .74 0 .74l-.04-.2-.11-.5a8 8 0 0 0-.08-.35l-.08-.38-.1-.41-.1-.42-.1-.42a2.5 2.5 0 0 1-.35-1.66v-.2zm2.08 12.45.04.2.07.5.04.33.04.37c0 .13.03.26.03.41a1.51 1.51 0 0 1-.25.86 3.3 3.3 0 0 1-.52.6l-.26.24a1.27 1.27 0 0 1-.46.23l-.14.02h-.05l.05-.02a1.06 1.06 0 0 0 .3-.17c.07-.05.13-.11.2-.19l.22-.25.23-.3.22-.31c.07-.11.12-.23.16-.35.04-.1.04-.24.05-.37v-.76l.01-.34.03-.5c-.02-.13 0-.2 0-.2zm-.28-.9.01-.08c0-.05-.04-.11-.11-.15-.07-.04-.19-.07-.26-.02-.1.06-.17.16-.21.3l-.14.46-.16.53c-.06.18-.11.38-.2.57-.08.2-.2.38-.32.55-.13.17-.26.32-.37.49a3.72 3.72 0 0 0-.6 1.45c-.02.15-.05.28-.04.4 0 .11.04.21.1.28.05.06.1.1.15.12l.08.02h-.08c-.05 0-.12-.03-.2-.1a.48.48 0 0 1-.15-.3c-.03-.13-.02-.28-.01-.44a3.45 3.45 0 0 1 .53-1.58c.11-.18.24-.34.36-.5.12-.16.23-.32.31-.5a9.31 9.31 0 0 0 .21-.54l.2-.51c.06-.17.12-.32.2-.47a.71.71 0 0 1 .13-.2l.08-.07.1-.05a.31.31 0 0 1 .2-.01l.14.07c.07.07.1.15.09.2l-.04.07zm-.37-1.38-.07-.09-.14-.23a10.9 10.9 0 0 0-.46-.68c-.17-.24-.35-.48-.5-.65l-.16-.23-.07-.08.1.04.12.06.14.08.15.12.15.14.16.16c.06.06.1.12.14.19l.13.2.1.2.09.2c.03.06.05.12.05.18l.04.16.02.12.01.11zm-2.82-16.25.02.15.04.42a23.23 23.23 0 0 1 .1 2.53l-.06 1.14c-.04.4-.06.8-.13 1.21l-.19 1.24c-.06.42-.13.83-.17 1.23-.05.4-.1.8-.11 1.2-.02.38-.03.75-.02 1.12a15.95 15.95 0 0 0 .27 2.5l.08.42.03.15-.05-.14-.12-.4-.07-.3-.09-.36-.08-.4-.08-.45c-.03-.31-.08-.65-.1-1.01-.02-.37-.03-.75-.02-1.15a14.14 14.14 0 0 1 .26-2.46l.2-1.24.15-1.19.1-1.12.04-1.01c.02-.62.02-1.14 0-1.52v-.56zM90.89 81.12l-.06.09-.06.11-.07.14-.09.17-.08.2-.09.2-.07.23a24.84 24.84 0 0 1-.2.64l-.05.19-.13.38.02-.4c0-.12.02-.26.06-.4l.06-.23.06-.23.09-.23.1-.21.11-.2a2.33 2.33 0 0 1 .22-.29l.1-.09.08-.07zm17.81-.36s.03-.03.1-.04h.15c.05 0 .1.03.15.07a.7.7 0 0 1 .16.13l.15.17.14.18.13.2.1.23.09.23a2.82 2.82 0 0 1 .13.69v.1l-.04-.1-.1-.27-.14-.37-.1-.2-.1-.2-.1-.21-.13-.19-.12-.18-.12-.13c-.09-.07-.17-.12-.23-.12l-.08.01h-.04zm-4.11-.73.04-.01.1-.02c.05 0 .12 0 .18.02l.22.08c.15.08.29.22.4.4a2.51 2.51 0 0 1 .15.27l.14.28a1.49 1.49 0 0 0 .3.43l.04.05a1.12 1.12 0 0 0 .45.22l.2.04h.17l.1-.01.04-.01-.04.02-.1.03-.17.04h-.22a1.08 1.08 0 0 1-.53-.2l-.07-.06-.05-.06-.11-.12c-.07-.08-.12-.18-.18-.28l-.14-.28-.13-.27c-.1-.17-.2-.3-.33-.4a.58.58 0 0 0-.17-.1l-.15-.05h-.1l-.04-.01zm-2.81-.6s.1.1.24.28a5.4 5.4 0 0 1 .22.3c.04.06.09.12.11.18l.12.19.1.2.1.18a4.83 4.83 0 0 1 .26.7l-.21-.3a6.43 6.43 0 0 1-.2-.31l-.12-.18-.11-.19-.11-.18-.1-.19-.18-.33-.12-.35zm-3.7.66.03.03.04.07a1.49 1.49 0 0 1 .18.78l.01.26v.26l.04.25.06.23c.06.14.14.26.24.36.09.08.18.14.26.15l.08.02.03.01h-.12a.76.76 0 0 1-.32-.1.98.98 0 0 1-.4-.64l-.04-.28v-.53a3.57 3.57 0 0 0-.04-.77.65.65 0 0 0-.04-.1zm-3.26-.78v.04l-.02.1c-.03.08-.1.2-.21.3a.95.95 0 0 1-.22.15l-.25.1a3.1 3.1 0 0 0-.3.17l-.06.03-.1.09a.95.95 0 0 0-.17.21l-.08.12-.05.12-.1.25-.06.22-.1.34-.03.13v-.14c0-.08 0-.21.02-.36l.04-.24c.01-.08.03-.18.07-.27a1.44 1.44 0 0 1 .45-.62l.06-.05.07-.04.28-.11.25-.08a1.05 1.05 0 0 0 .45-.34l.05-.1.01-.02zm-2.78 8.39-.07-.08-.04-.05-.03-.08-.04-.08-.03-.08c-.03-.06-.04-.13-.05-.2l-.03-.22v-.36l.02-.12.03-.23.06-.22.06-.2.08-.19.07-.14.07-.1.06-.09-.05.1-.06.1a2.58 2.58 0 0 0-.16.54l-.02.22-.01.23V86.68c0 .07.02.14.03.2l.05.2.07.16.03.07.04.05.03.05.04.04.07.08-.22.17zm2.39-.63-.04-.12c-.03-.08-.1-.18-.17-.3l-.1-.2-.04-.13-.04-.13-.05-.28v-.3l.03-.29.04-.13.04-.14.12-.24.12-.2c.04-.06.08-.11.13-.15a2.27 2.27 0 0 1 .21-.19l-.07.11-.08.13-.1.16-.08.2-.09.24-.03.12-.02.13-.03.27-.01.14v.13c0 .1 0 .18.03.26l.02.12.02.12.04.1.02.06.02.05a1.3 1.3 0 0 1 .1.44v.02z"/>
      <path d="M89.63 85.57a6.94 6.94 0 0 1 .23 1.77c-.01.3-.04.6-.08.89l-.06.45-.04.22-.02.11v.07c.01.03.04.04.07.03h.02l.06-.02.1-.04a5.04 5.04 0 0 0 1.13-.65c.23-.18.46-.37.65-.58l.15-.16.08-.08.02-.03.06-.04c.04-.02.07-.02.12-.02s.08.01.12.03l.05.04.02.03.06.08.13.2a7.35 7.35 0 0 1 .74 1.65 15.16 15.16 0 0 1 .34 1.32l.04.21v.03h.05s.01 0 0 0l.02-.01.05-.04.05-.03.03-.04.07-.08c.1-.1.18-.21.24-.34.14-.24.23-.52.3-.8a5.24 5.24 0 0 0 .11-1.74v-.05l.03-.03a.32.32 0 0 1 .25-.07c.08 0 .15.03.22.05l.05.02.05.02.09.05.18.11c.1.08.21.18.3.28l.13.16.1.17.1.2.07.19.1.39c.03.13.05.26.1.38l.1.17.15.12-.17-.11a.78.78 0 0 1-.12-.17c-.06-.12-.1-.25-.13-.38l-.1-.39-.08-.17-.1-.17-.1-.16a1.86 1.86 0 0 0-.44-.39l-.16-.1-.08-.05-.05-.02-.03-.02c-.06-.01-.11-.03-.17-.03-.06 0-.1 0-.12.03l.03-.08a5.96 5.96 0 0 1-.05 1.8 2.94 2.94 0 0 1-.59 1.26l-.08.1-.05.04-.03.04-.04.04-.02.02-.05.03a.29.29 0 0 1-.2.03.29.29 0 0 1-.16-.08l-.06-.08a.07.07 0 0 1-.01-.04v-.04l-.04-.22-.1-.43a8.8 8.8 0 0 0-.94-2.45l-.12-.18-.06-.1h-.01.05l-.08.08-.16.17A5.3 5.3 0 0 1 90.46 89l-.42.19-.1.04-.05.02h-.01l-.02.01-.05.01a.26.26 0 0 1-.27-.2v-.14l.02-.11.05-.22.08-.43a5.62 5.62 0 0 0 .12-1.76c-.08-.25-.12-.54-.18-.83zm7.67 38.5-.03-.03-.06-.04-.09-.1c-.03-.04-.04-.09-.06-.14l-.02-.06-.01-.04.03-.02.08-.02.11.03.06.04.04.06a.2.2 0 0 1 .04.12l-.02.1-.05.08c0 .02-.02.02-.02.02zm.55 1.8-.04-.06-.08-.14a4.75 4.75 0 0 1-.32-.84l-.04-.16v-.07l.05.03.13.1a1.49 1.49 0 0 1 .15.18l.06.11.06.12.06.25c.01.09.02.17.01.24l-.02.16-.02.08zm1 1.9-.03-.06-.06-.16a2.93 2.93 0 0 1-.16-.96l.02-.17v-.07l.05.06.09.15a1.84 1.84 0 0 1 .16.98l-.04.17-.03.06zm.48 2.75.02.04.02.1a.7.7 0 0 1 0 .28.56.56 0 0 1-.12.26l-.07.08-.04.03-.02-.04-.03-.1a.7.7 0 0 1 0-.28.56.56 0 0 1 .13-.26l.07-.08.04-.03zm-1.23-.37.03.04.05.1c.04.09.06.2.06.32a.6.6 0 0 1-.1.3l-.06.1-.04.04-.02-.05-.03-.11c-.03-.09-.04-.2-.03-.31 0-.11.03-.21.06-.3l.05-.1.03-.03zm-1.23-.31.04.03.08.11a1.04 1.04 0 0 1 .15.78l-.05.13-.03.04-.02-.04-.07-.12a1.85 1.85 0 0 1-.14-.75l.01-.14.03-.04zm15.96-33.3-.06.14c-.03.08-.1.2-.18.33l-.15.22-.05.05-.05.06-.05.04-.03.03-.03.03-.13.1-.14.09-.15.06-.14.06-.31.08-.3.07-.13.02-.13.04-.22.08-.05.02-.05.03-.08.05-.13.1-.11.08.06-.13.1-.14.17-.14c.07-.05.14-.1.23-.14l.13-.05.14-.05.58-.17a2.32 2.32 0 0 0 .4-.17l.1-.07.03-.02.03-.01.06-.05.04-.04.05-.05.18-.16.26-.27.1-.11zm-24.97 6.07.13.1.31.27c.13.1.3.22.48.29a1 1 0 0 0 .29.06h.32a7.57 7.57 0 0 0 .97-.1c.1-.03.2-.03.29-.03.18 0 .33.04.43.1l.1.06.03.03h-.04l-.11-.04h-.18l-.22.02-.26.07-.31.08a3.32 3.32 0 0 1-1.05.1l-.05-.02h-.05l-.09-.03-.17-.07a1.32 1.32 0 0 1-.48-.4l-.15-.2-.1-.15-.09-.14zm1.19-6.82a1.6 1.6 0 0 0 .36.34l.12.16c.09.13.16.27.23.43.15.33.27.73.41 1.14a5.68 5.68 0 0 0 .26.61c.09.2.2.4.33.6l.36.6.36.57.35.51.36.43a1.58 1.58 0 0 0 .17.18l.09.08.08.08.15.13.14.1.2.13.07.05-.08-.03a1.68 1.68 0 0 1-.37-.18l-.18-.1a3.3 3.3 0 0 1-.78-.72l-.4-.5a8.63 8.63 0 0 1-.38-.57l-.37-.6a4.62 4.62 0 0 1-.58-1.28l-.17-.61-.16-.54a3.9 3.9 0 0 0-.17-.44l-.1-.18-.09-.14-.08-.1-.07-.07-.06-.08zm-1.87.76.1.1.26.27.18.17.04.04.05.04.05.05.03.01.03.02.11.07.12.06.27.1.58.18.14.05.13.06.23.13.17.14.1.14.07.13-.11-.09-.13-.1-.09-.04-.04-.03-.05-.01-.22-.09-.13-.04-.14-.02-.3-.07-.3-.08-.15-.06-.15-.06-.14-.09-.13-.1-.03-.03-.02-.03-.05-.04-.06-.06-.04-.05c-.06-.08-.11-.14-.15-.22a2.67 2.67 0 0 1-.19-.33l-.05-.12zm6.34 10.53.02.07.01.19a5.2 5.2 0 0 1-.07 1.07l-.05.18c0 .04-.03.06-.03.06l-.02-.06a1.35 1.35 0 0 1-.1-.44 1.58 1.58 0 0 1 0-.3 2.85 2.85 0 0 1 .12-.55l.09-.17.03-.05zm-.09-1.4-.02.07-.05.15-.03.1-.04.12-.03.11-.03.12-.1.45-.02.16-.01.06-.04-.05-.04-.07-.03-.1-.03-.1-.02-.13v-.14l.04-.14.04-.14.07-.13.07-.12.09-.08.07-.07.07-.03.04-.04zm.03-1.55-.03.06-.06.14-.2.37-.17.38-.07.14-.03.06-.03-.06-.01-.06a.97.97 0 0 1-.02-.33l.02-.13.05-.12.07-.11.08-.1a.84.84 0 0 1 .18-.15l.08-.05.07-.03h.07zm.7 9.34v.2a7.36 7.36 0 0 1-.23 1.26l-.12.4-.1.42-.1.42-.1.4-.09.39-.07.34-.11.51-.05.2s-.03-.3 0-.74l.03-.35a6.35 6.35 0 0 1 .12-.81l.1-.43.11-.42.13-.4.14-.37.13-.33c.07-.2.13-.37.15-.5l.04-.14.02-.05zm12.25 17.84-.06.08-.2.2a3.46 3.46 0 0 1-.71.48l-.41.2a2.54 2.54 0 0 1-.67.16h-.1l.09-.05.1-.07.13-.08a17.9 17.9 0 0 1 1.48-.78l.14-.07.11-.05.1-.02zm-12.85 0a2.12 2.12 0 0 0 .22.09l.14.06a13.14 13.14 0 0 1 1.48.79l.13.08.1.07.1.05h-.12l-.28-.04-.38-.13a3.94 3.94 0 0 1-1.32-.87l-.07-.1zm-1.48-5.39a4.57 4.57 0 0 0 .05.7v1.1c0 .13.03.26.06.37a2.44 2.44 0 0 0 .39.67l.22.3.21.24.2.2c.07.04.13.08.19.1l.13.06.04.02h-.04l-.14-.02c-.12-.03-.3-.1-.47-.23a3.83 3.83 0 0 1-.52-.52c-.08-.1-.18-.2-.25-.32a1.51 1.51 0 0 1-.2-.41c-.04-.16-.05-.3-.05-.45l.02-.4.04-.38.04-.34.07-.5.01-.19zm.28-.9s-.02-.03-.03-.08c0-.05.02-.13.1-.2a.5.5 0 0 1 .14-.07.31.31 0 0 1 .2 0c.03.02.07.03.1.06l.08.08c.05.05.1.13.13.2l.2.46.19.51.21.54c.08.18.18.34.31.5.12.15.25.32.36.5a3.72 3.72 0 0 1 .54 1.58c0 .16.01.3-.01.44a.51.51 0 0 1-.16.3.4.4 0 0 1-.2.1h-.07l.07-.02c.05-.02.1-.05.16-.12a.47.47 0 0 0 .1-.28c0-.11-.02-.25-.05-.4a3.98 3.98 0 0 0-.96-1.94 2.94 2.94 0 0 1-.33-.55l-.2-.57-.15-.53-.14-.46a.56.56 0 0 0-.22-.3.26.26 0 0 0-.26.02.2.2 0 0 0-.1.15c-.03.05 0 .07 0 .07zm.37-1.38.01-.1.02-.13.04-.16.06-.18.08-.2.1-.2.13-.2.14-.19.16-.16.16-.14.15-.12a.56.56 0 0 1 .14-.08l.1-.06.11-.04-.06.08-.17.23-.5.65-.45.68-.15.23-.07.1zm2.83-16.25v.15l-.01.43v1.52l.05 1c.02.36.06.74.1 1.13a27.76 27.76 0 0 0 .34 2.43 13.65 13.65 0 0 1 .14 4.62l-.07.45a14.6 14.6 0 0 1-.17.75l-.08.3-.12.4-.04.15.02-.15.09-.42a8.91 8.91 0 0 0 .1-.65l.11-.85a15.95 15.95 0 0 0 .04-2.13c-.02-.4-.07-.8-.11-1.2l-.18-1.22-.19-1.24-.13-1.21a25.02 25.02 0 0 1-.02-3l.06-.67.05-.42.02-.17z"/>
    </g>
  </g>
</svg>
