<svg xmlns="http://www.w3.org/2000/svg" fill="#d7374a" stroke="#000" viewBox="50 50 200 200">
<metadata source="https://commons.wikimedia.org/wiki/File:Coa_Illustration_Elements_Tool_Hook.svg" author="Madboy74" license="https://www.gnu.org/licenses/fdl-1.3.html"/>
  <g id="hook" stroke-width=".4" transform="translate(-1.7, 0.1)">
    <path d="M87.94 60.4c-3.23.15-5.92 2.28-6.18 5.89-.33 4.55 4.1 6.35 4.1 6.35.67.26 1.5-.13 1.77-.8.26-.67-.1-1.51-.78-1.77 0 0-2.48-.8-2.34-3.67.1-1.9 1.78-3.4 4.09-3.26 1.9.12 3.52 1.07 3.75 3.2.21 2.04-.92 3.66-2.23 5.41-1.32 1.76-2.99 3.59-3.07 6.16v.05l.29 44.52c.07 10.43 8.96 17.01 17.68 16.83a15.6 15.6 0 0011.9-5.67c4.99-6.08 5.87-16.21 3.58-24.03-1.02 5.05-3.65 17.46-14.82 14.93 3.07 2.67 8.66 3.56 12.5.32a17.09 17.09 0 01-3.37 7 12.9 12.9 0 01-9.84 4.7c-7.33.16-14.83-5.22-14.88-14.1l-.29-44.47c0-1.29 1.14-2.76 2.52-4.6 1.38-1.85 2.97-4.14 2.77-7.19-.2-3.1-3.07-5.69-6.5-5.8-.21-.01-.43-.02-.65 0z"/>
  </g>
</svg>
