<svg xmlns="http://www.w3.org/2000/svg" fill="#d7374a" stroke="#000" viewBox="50 50 200 200">
  <metadata source="http://www.wappenwiki.org/images/8/8d/Peruzzi.svg" license="https://creativecommons.org/licenses/by-nc-sa/3.0"/>
  <g id="pear" stroke-width=".66">
    <g>
      <g>
        <path d="M101.24 75.2c-10.55 0-7.84 17.4-16.47 29.22-3.52 4.84-6.39 8.73-6.39 14.7 0 6.73 1.03 8.84 4.76 13.04 3.16 3.58 8.68 4.55 10.92 4.55 2.86 0 5.55-2.02 7.28-1.31 2.6 1.05 2.84 1.31 5.74 1.31 2.68 0 7.91-.97 11.1-4.55a16.3 16.3 0 0 0 4.91-12.86c0-5.97-3.26-10.62-6.73-14.72-11.52-15.81-4.66-29.38-15.12-29.38z"/>
        <path stroke-linejoin="round" d="M93.24 138.69c2.74.42 5.16-1.05 5.52-1.77.19.48.45 2.63.77 3.06.1-.43.29-2.53.55-2.87.55.76 4 1.95 5.36 1.52-1.6-.39-4.28-1.55-4.1-3.23.13-1.24-2.2-1.34-3.5-1.18v.02c.32 2.47-2.68 4.37-4.6 4.45z"/>
        <g stroke="none" fill="#000">
          <path d="M95.3 135.19a3.7 3.7 0 0 1 1.12-.87 3.16 3.16 0 0 1 .69-.29c.23-.08.5-.1.73-.13v.66l-.63.02-.63.14-.63.23c-.18.1-.42.19-.66.24z"/>
        </g>
      </g>
      <g>
        <path class="secondary" d="M124.25 83.9c-.26-1-.6-1.78-1.1-2.68a13.18 13.18 0 0 0-4.48-4.2c-.9-.56-2.1-.85-3.1-1.19a5.58 5.58 0 0 0-2.08-.26c-.44 0-1.37.2-1.68-.24-.4-.58-.97-1.45-1.53-2.13a24.98 24.98 0 0 0-6.1-5.58c1.45-3.26 2.97-4.91 2.97-4.91s.35-.98-1.23-2c-1.58-1.03-2.5-.19-2.5-.19s-1.55 3.92-2.42 8.16a23.8 23.8 0 0 0-5.23 2.39c-.42.21-1.69 1.18-2.27 1.58-.44.31-1.23-.21-1.65-.4a5.46 5.46 0 0 0-2.03-.5c-1.08-.05-2.29-.23-3.34-.02a13.04 13.04 0 0 0-5.7 2.26 9.6 9.6 0 0 0-2.03 2.1 11.64 11.64 0 0 0-1.81 3.32c-.24.73-.35 1.5-.45 2.23a48.33 48.33 0 0 1-1.32 6.4c-.05.15-.08.34 0 .47.06.08.13.13.24.15.66.3 1.4.37 2.1.37.66 0 1.48.06 2.1-.1l1.27-.32c1.21-.31 2.4-.45 3.58-.87a14.46 14.46 0 0 0 3.47-1.78 13.15 13.15 0 0 0 6.31-9.45l.21-1.55c0-.16-.05-.94.05-1.02a8.94 8.94 0 0 1 1.92-1.27c1.13-.5 2.58-1.2 4.19-1.63l-.14 1.19c-.2 1.97-.23 5.2-.23 5.2s.18.27.7.27.74-.21.74-.21.66-5.5 1.63-7.74l.14-.31a28.14 28.14 0 0 1 5.62 4.86c.19.27.9 1.1 1.32 1.87.05.1-.26.82-.32.97a16.62 16.62 0 0 0-.6 6.24c.18 2.44 1.34 4.39 2.63 6.36a14.23 14.23 0 0 0 2.55 2.92c.95.82 2.02 1.4 3.02 2.1l1.06.77c.52.4 1.31.63 1.92.87.65.26 1.36.44 2.07.42.1 0 .19 0 .27-.06.13-.07.15-.28.18-.44.21-2.19.66-4.29 1.13-6.42.16-.74.34-1.5.4-2.26.13-1.26-.14-2.53-.45-3.74z"/>
        <g stroke="none" fill="#000">
          <path d="M122.38 89.93a1.84 1.84 0 0 1-.81-.24 4.1 4.1 0 0 1-1.21-1l-.5-.58.02-.1c.32 0 .58.13.82.26s.45.32.63.47l.55.56c.19.18.34.36.5.63z"/>
          <path d="M122.43 86.38a3.94 3.94 0 0 1-1.31-.37 15.33 15.33 0 0 1-3.24-2.26l.06-.1c.44.07.87.25 1.26.46l1.13.69 1.05.76 1.05.82z"/>
          <path d="M118.2 89.22c.08.31.05.6.03.9a8.05 8.05 0 0 1-.37 1.65l-.3.79-.1.02c-.15-.29-.15-.6-.15-.92.02-.29.05-.58.13-.87a4.29 4.29 0 0 1 .76-1.57z"/>
          <path d="M115.44 84.32c0 .4-.08.8-.16 1.19l-.31 1.1-.43 1.08c-.15.34-.28.71-.5 1.05l-.1-.02c-.05-.4 0-.82.05-1.19a7.97 7.97 0 0 1 1.45-3.2z"/>
          <path d="m121.72 81.7-1.73-.64c-.58-.2-1.13-.44-1.68-.7l-1.66-.8a19.44 19.44 0 0 1-1.6-.92l.02-.1a19.9 19.9 0 0 1 3.5 1.18c.55.27 1.1.53 1.63.84a8.2 8.2 0 0 1 1.52 1.13z"/>
          <path d="M112.7 79.38c.1.5.06 1.03-.05 1.5-.08.5-.21.97-.34 1.42l-.42 1.37c-.13.44-.24.9-.26 1.4l-.11.02a3.02 3.02 0 0 1-.16-1.53 9.15 9.15 0 0 1 .82-2.84l.52-1.34z"/>
          <path d="M121.99 93.6a13.68 13.68 0 0 1-1.6-2.07 39.32 39.32 0 0 1-2.53-4.6l-.55-1.21-.58-1.16a78.18 78.18 0 0 0-2.53-4.6l-1.31-2.26-1.4-2.24.56-.34 1.31 2.26 1.26 2.32a78.37 78.37 0 0 1 2.95 5.89l.5 1.2 1.1 2.37c.4.8.82 1.56 1.27 2.3.44.73.94 1.47 1.55 2.1v.05z"/>
          <path d="m78.3 82.33.71-.4.71-.31.77-.21a1.84 1.84 0 0 1 .84.05v.1l-.69.37-.7.32c-.24.08-.5.15-.8.18a1.58 1.58 0 0 1-.84-.1z"/>
          <path d="m79.57 79.01 1.26-.34 1.26-.32a7.2 7.2 0 0 1 2.66-.18v.1l-1.27.4a11.05 11.05 0 0 1-2.57.5c-.45.03-.9 0-1.34-.16z"/>
          <path d="M82.48 83.22a4.94 4.94 0 0 1-.07 2.6 1.63 1.63 0 0 1-.48.8l-.08-.06.03-.84a9.63 9.63 0 0 1 .26-1.68c.06-.3.13-.56.34-.82z"/>
          <path d="M86.88 79.67c.1.4.15.79.2 1.16a9 9 0 0 1-.05 2.34c-.07.4-.18.79-.36 1.13l-.1-.03-.09-1.15v-1.16l.1-1.16c.06-.34.14-.74.3-1.13z"/>
          <path d="M81.93 74.9a8.68 8.68 0 0 1 1.82-.41c.6-.1 1.2-.13 1.84-.19.6-.02 1.23-.05 1.84-.02s1.24.05 1.84.18v.1a40.4 40.4 0 0 1-3.66.4l-1.84.03-1.84-.08z"/>
          <path d="m91.22 76.1-.03 1.47c0 .47 0 .97-.05 1.47-.03.5-.1 1-.24 1.47a2.9 2.9 0 0 1-.7 1.34l-.09-.05c.16-.47.21-.92.26-1.4l.11-1.41.18-1.48c.1-.5.24-1 .56-1.42z"/>
          <path d="M77.3 85.85c.8-.37 1.5-.87 2.21-1.4a30.85 30.85 0 0 0 3.95-3.44l.92-.92.95-.92a80.96 80.96 0 0 1 3.94-3.47l2.03-1.68 2.05-1.64.4.53c-.72.53-1.43 1.03-2.11 1.58l-2.05 1.63a96.68 96.68 0 0 0-4.03 3.34l-.97.87-.95.92a31.03 31.03 0 0 1-1.97 1.73c-.66.58-1.37 1.1-2.08 1.63a13.86 13.86 0 0 1-2.26 1.35l-.03-.11z"/>
        </g>
        <g stroke="none" fill="#000">
          <path d="M104.08 67.94c-.21-.1-.32-.21-.42-.32l-.3-.39-.18-.42-.08-.45c.08.13.14.26.24.37l.29.29.32.21.18.05.16.03-.21.63z"/>
          <path d="m103.24 69.65-.24-.34-.21-.37a2.1 2.1 0 0 1-.24-.79c.13.24.32.42.5.58l.32.24.31.18-.44.5z"/>
        </g>
        <path fill="none" d="M101.03 68.65c-.21.74-.4 2.34-.4 2.34"/>
      </g>
    </g>
  </g>
</svg>
