<svg xmlns="http://www.w3.org/2000/svg" fill="#d7374a" stroke="#000" viewBox="50 50 200 200">
  <metadata source="http://wappenwiki.org/images/2/2a/Diessenhofen.svg" license="https://creativecommons.org/licenses/by-nc-sa/3.0"/>
  <g id="pot" stroke-width=".36">
    <path d="M139.58 97.77h0a1.1 1.1 0 00-1.66-.2c-.87.75-2.2 1.67-3.6 1.67-.76 0-.78-.67-1-2.1 0-4.49 9.66-17.78 2.13-28.08-5.84-7.99-23.4-9.28-35.52-9.28h0c-12.13 0-29.69 1.29-35.53 9.28-7.53 10.3 2.13 23.59 2.13 28.07-.22 1.43-.24 2.11-1 2.11-1.4 0-2.73-.92-3.6-1.68a1.1 1.1 0 00-1.48 1.64c.96.89 2.74 2.3 5 2.3 2.56 0 3.12-1.55 3.4-4.1 0-5.99-8.98-17.72-2.54-26.76 5.13-7.2 22.03-8.27 33.6-8.27h0c11.58 0 28.47 1.08 33.6 8.27 6.46 9.04-2.53 20.77-2.53 26.75.28 2.56.83 4.12 3.4 4.12 2.25 0 4.03-1.42 5-2.3.43-.39.5-.99.2-1.44z"/>
    <path d="M136.32 96.42h-5.38l-.1.66c-3-3.52-18.81-4.43-30.91-4.43s-27.91.9-30.92 4.43l-.1-.66h-5.38s-.02 1.24.3 2.5c0 0 .53.3 1.13.38.6.09 1-.07 1-.07a4.96 4.96 0 01-.35-1.02h2.9v.14c0 .57.31 1.83.53 3.5a7.8 7.8 0 01-1.54-.85s-.36.27-.96.4c-.6.14-1.36.1-1.36.1 1.45 1.59 3 2.04 4.08 3.1.03.93 0 1.9-.14 2.92-.31 2.28-1.6 7.99-1.25 12.63.84 11.48 11.59 20.2 32.06 20.2v-.01.01c20.45 0 31.2-8.72 32.05-20.2.35-4.64-.94-10.35-1.25-12.63-.13-1.01-.17-2-.14-2.93 1.09-1.04 2.64-1.49 4.08-3.08 0 0-.76.03-1.36-.1a2.9 2.9 0 01-.96-.4c-.42.3-.92.58-1.54.84.23-1.67.54-2.93.54-3.5 0-.05 0-.09-.02-.14h2.9s-.08.46-.35 1.02c0 0 .4.17 1 .07a3.8 3.8 0 001.15-.38c.31-1.27.29-2.5.29-2.5z"/>
    <path d="M99.89 92.5c-13.44 0-31.15 1.6-31.15 4.8 0 .53.08.41.08.85 0 2.99 12.23 6.71 31.03 6.73h.08c18.8-.02 31.02-3.74 31.02-6.73 0-.44.09-.32.09-.86 0-3.2-17.71-4.8-31.15-4.8z"/>
    <path d="m 76,110 c 14,5 34,5 47,0"/>
    <path fill="none" d="M99.89 93.96c6.64 0 13.66.38 19.23 1.04 8.13.97 10.03 2.15 10.43 2.48.14.18.04.33-.08.61-.1.18-.6.71-2.03 1.38-1.5.7-3.6 1.36-6.1 1.93-5.77 1.3-13.38 2-21.43 2.02h-.07c-8.05 0-15.66-.72-21.43-2.02a31.4 31.4 0 01-6.1-1.93c-1.43-.66-1.93-1.2-2.03-1.38-.13-.22-.26-.47-.07-.61.39-.33 2.3-1.51 10.42-2.48 5.6-.66 12.62-1.04 19.26-1.04M73.47 99.9c1.56-.39 3.85-.82 7.19-1.22 5.57-.66 12.59-1.04 19.23-1.04m0 0c6.64 0 13.66.38 19.23 1.04 3.36.4 5.66.83 7.23 1.23m-44.31 2.28a176.9 176.9 0 0117.85-.88m0 0c5.98 0 12.25.3 17.5.85"/>
  </g>
</svg>
