<svg xmlns="http://www.w3.org/2000/svg" fill="#d7374a" stroke="#000" viewBox="50 50 200 200">
  <metadata source="http://wappenwiki.org/images/d/d0/Bydelsbak.svg" license="https://creativecommons.org/licenses/by-nc-sa/3.0"/>
  <g id="ramsHorn" stroke-width=".314">
    <path d="M130.32 83.17c1.72-2.74-1.28-4.78-2.25-7.52 1.65-3.71-3.86-5.2-7.17-8.35-.77-4.95-6.58-3.35-12.49-5.14-1.39-4.35-6.66-.34-12.37.32-2.96-2.82-6.46 2.69-10.7 4.5-4.13-1.54-5.46 4.67-9.33 8.97-4.35.76-3.15 5.82-5.36 10.6-4.33 2.98-.73 6.98-1.16 12.51-3.12 3.49 1.64 6.58 3.6 12.22-1.92 5.13 5.22 8.9 8.91 12.93.38 7 21.45 15.48 21.48 15.47 2.48 1.37 6.93-1.68 11.56-8.84 4.73-7.3 7.25-15.28 4.8-16.87-.5-.3-1.28-.31-1.43-.3-2.84.05-12.34 0-20.13-5.64-7.9-5.71-12.1-17.39-6.03-25.79 4.21-5.82 13.57-7.61 20-2.97 6.24 4.53 6.37 11.12 3.72 14.78s-8.73 4.54-11.89 2.25c-2.86-2.07-4.76-6-2.17-9.58 2.89-3.99 7.89-1.85 7.27-3.27-1.76-4.04-9.92-4.23-13.58.83-4.09 5.65-2.16 12.77 1.9 17.23.2 2.9 3.1 2.45 6.65 4.53 1.06 2.98 4.94 1.21 7.94 1.34 2.46 1.81 4.64-.8 6.75-1.84 3.17.93 3.94-2.42 5.57-4.11 2.87 0 2.18-3.5 3.72-5.23 2.62-.71 1.64-4.02 2.01-6.22 2.74-2.15-.26-4.4.18-6.81z"/>
    <g fill="#000" stroke="none">
      <path d="M97.34 101.51a2.47 2.47 0 011.19-2.15c.13-.13.42-.19.12-.02a2.3 2.3 0 00-1 2.14c-.04.07-.22.01-.31.03z"/>
      <path d="M104 106.06a5.1 5.1 0 011.15-3.76c-.1.28-.38.63-.5.96a4.52 4.52 0 00-.34 2.76l-.31.04z"/>
      <path d="M111.98 107.5c-1.34-1.27-1.4-3.34-.88-5-.08.61-.23 1.33-.16 2 .05 1.03.44 2.1 1.26 2.77l-.22.23z"/>
      <path d="M118.8 105.69a3.67 3.67 0 01-2.81-2.88c-.14-.37-.13-1.76-.05-1.59-.1 1.51.54 3.2 2 3.85.27.28 1.17.08.86.62z"/>
      <path d="M124.42 101.58c-1.54.15-2.96-.88-3.64-2.22-.15-.2-.5-1.17-.17-.45.66 1.34 2 2.5 3.57 2.38.32-.12.21.11.24.3z"/>
      <path d="M128.15 96.36a6.97 6.97 0 01-4.93-1.33c.54.26 1.17.62 1.8.8 1 .32 2.06.44 3.09.21l.04.32z"/>
      <path d="M130.22 90.12c-1.74 1.07-4 .87-5.77-.01.75.25 1.62.53 2.47.55 1.1.07 2.23-.19 3.14-.81l.16.27z"/>
      <path d="M130.44 83.26c-.83 1.33-2.59 1.6-4 1.2a5.85 5.85 0 01-1.8-.72c1.48.67 3.4 1.15 4.85.12.41-.1.55-1.1.95-.6z"/>
      <path d="M128.2 75.74a4.96 4.96 0 01-5.02 2.12c-.34-.02-1.23-.31-.36-.12 1.92.36 4.08-.38 5.08-2.12.05-.15.22.1.3.12z"/>
      <path d="M121.06 67.31c-.15 1.85-1.9 3.03-3.56 3.45-.62.11.8-.28.93-.43 1.2-.57 2.29-1.65 2.32-3.05l.31.03z"/>
      <path d="M108.57 62.11a9.92 9.92 0 01-.24 5.3c.33-1.71.49-3.53-.07-5.21l.3-.09z"/>
      <path d="M96.13 62.35a7.36 7.36 0 012.76 4.55c-.52-1.67-1.42-3.35-2.94-4.3l.18-.25z"/>
      <path d="M85.4 66.84a7.3 7.3 0 013.94 3.65 7.4 7.4 0 00-4.05-3.36l.1-.3z"/>
      <path d="M75.97 75.8a5.06 5.06 0 015.4 1.66 4.98 4.98 0 00-4.8-1.5c-.35.05-.57.31-.6-.17z"/>
      <path d="M70.57 86.41c2.17-1.43 5.14-.48 6.87 1.13-1.83-1.46-4.63-2.32-6.71-.86l-.16-.27z"/>
      <path d="M69.36 98.98c1.18-1.84 3.83-1.77 5.62-1.17-1.81-.42-4.28-.47-5.36 1.34l-.26-.17z"/>
      <path d="M72.93 111.24c.45-2.3 2.82-3.9 5.03-3.89-2.19.17-4.37 1.7-4.72 3.97l-.31-.08z"/>
      <path d="M81.85 124.23c-.42-2.76 1.74-5.03 3.89-6.4.67-.45 1.38-.76.26-.1-2.1 1.4-4.28 3.63-3.86 6.36.1.18-.21.09-.3.14z"/>
      <path d="M111.94 115.55c-6.7-1.1-13.38-3.67-18.43-8.32a19.23 19.23 0 01-5.95-10.54c-1.32-6.03-.15-13 4.4-17.43 1.08-.97 2.35-2.04 3.67-2.49-3.88 1.88-6.55 5.73-7.55 9.86-1.86 6.74-.22 14.46 4.73 19.5 4.97 5.14 11.87 7.96 18.78 9.35-.04.14.38-.06.35.07z"/>
      <path d="M103.53 138.32c-.83-1.19-.56-2.75-.35-4.09.86-4.08 2.85-7.86 5.26-11.24 2.2-2.88 4.63-5.69 7.71-7.66.9-.5 2.04-1.18 3.06-.65.71.58-.89-.51-1.28 0-2.1.72-3.74 2.33-5.3 3.86-3.97 4.07-7.23 8.95-8.95 14.4-.42 1.58-.9 3.3-.4 4.9.05.17.17.34.25.48z"/>
    </g>
  </g>
</svg>
