<svg xmlns="http://www.w3.org/2000/svg" fill="#d7374a" stroke="#000" viewBox="50 50 200 200">
<metadata source="https://commons.wikimedia.org/wiki/File:Bendo.svg" author="Eugenio Hansen, OFS" license="https://creativecommons.org/licenses/by-sa/4.0"/>
  <g id="ribbon6" stroke="none" transform="translate(59.2 65.3) scale(0.12)">
    <path fill="#000" stroke="none" d="m 124.6,335.3 c -17.7,10.9 -44.2,13.2 -82.45,33.2 5.29,-17.5 11.77,-35.4 19.13,-50.6 -17.66,-4 -35.33,-8.1 -53,-12.1 21.29,-11.7 44.92,-22.6 65.79,-30.2 -8.97,-18 -9.55,-27.4 7.91,-37.3 34.92,-14.9 72.72,-20.9 109.22,-23.5 45.1,-1.4 88.9,5.1 130.8,18.6 40,17.3 81.7,35.6 126.7,43 32.7,4.6 64.9,2.1 96.8,-9.1 -3.8,-11 -8,-17.4 -0.1,-19.9 34.2,-10.8 65.9,-23.6 97.6,-39.8 -4.1,16.2 -9.9,32.5 -15.8,46.7 15.4,7 29.9,10.9 45,14.7 -20.5,13.8 -43.6,25.9 -64.5,34.7 9,13.9 6.2,20.3 -8.4,29.3 -51.6,29.6 -110.2,29.5 -157.5,25.2 -54.5,-4.9 -91.2,-25.2 -135.6,-45.9 -37.5,-15.5 -73,-20.9 -115.1,-18.4 -24.1,1.3 -46.6,5 -68.8,12.9 4.7,10.8 10.8,23.5 2.3,28.5 z"/>
    <path d="m 75.75,280.7 c -17.98,6.4 -35.47,14.1 -52.33,23.1 l 45.72,10.5 c -7.88,14.7 -13.53,29.4 -18.18,44 18.91,-9.1 37.83,-16.6 56.74,-20.9 7.1,-1.8 18.7,-7.2 16.7,-12.7 -2.8,-7.4 -22.3,8.7 -29.68,-0.1 -6.42,-15 -12.54,-28.9 -18.97,-43.9 z M 348.8,326.4 C 313.3,306.2 263.4,289.9 223.9,287.3 185,288 119.1,291 97.23,317.6 L 73,259.2 c -2.4,-7.5 2.93,-12.9 11.01,-16 29.79,-13.2 70.49,-20.9 107.39,-23.1 54.2,-1.1 107.2,6.6 157.5,29.7 72.3,36 154.6,50 228.7,8.9 l 29.7,55.6 c 2,3.7 -2,9 -5.5,11 -27.2,17.4 -59.8,26.1 -93.1,29.2 -54.9,3.3 -108.8,-3.9 -159.8,-28.1 z m -247.9,-4.7 c -1,-3.7 9.4,-9.3 13.9,-11.3 2.4,-1.3 3.9,-0.3 4.6,1.5 0.7,2.3 1.2,4.3 2,6.7 -2.3,-3.9 -17.7,6.4 -20.5,3.1 z m 444.8,-66.4 c -0.8,-2 1.1,-4.3 5.8,-5.4 2.6,-0.6 45.1,-13.3 83.1,-32 -3.7,13.5 -8.9,26.3 -14.3,39 12.4,6.1 25.4,10.9 38.7,14.2 -18.1,11.8 -36.3,20.5 -54.4,28.2 l -22.9,-44.9 c -1.6,-4.5 -7.2,-7.8 -14,-4.3 -7.4,1.8 -20.5,8.8 -22,5.2 z m 2.9,5.3 c 0.8,2.6 1.7,4.3 2.5,6.4 7.7,-2.6 15.2,-5.9 22.3,-10.8 2.4,-1.5 0.8,-2.2 -1.5,-2.2 -7.5,1.1 -16.4,8 -23.3,6.6 z"/>
    <path fill="#000" fill-opacity="0.5" d="m 118.2,309 c 2.5,0 3,7 4.2,10.4 -3.6,-3 -19.3,8.7 -22.63,2.7 -1.53,-3 11.73,-13.7 18.43,-13.1 z" />
    <path fill="#000" fill-opacity="0.5" d="m 544.6,259.7 c 9,0.6 30.9,-10.6 31.5,-6 0.6,4.3 -16.7,12.3 -28,16.2 -0.5,-2.9 -2.6,-8 -3.5,-10.2 z" />
  </g>
</svg>
