<svg xmlns="http://www.w3.org/2000/svg" fill="#d7374a" stroke="#000" viewBox="50 50 200 200">
  <metadata source="http://wappenwiki.org/images/1/1b/Von_Jungingen.svg" license="https://creativecommons.org/licenses/by-nc-sa/3.0"/>
  <g id="scissors" stroke-width=".33">
    <path d="M77.69 60.17s-1.2 3.18-.18 7.95c1.02 4.76 5.62 17.31 5.62 17.31l5.45 13.83s1.84.22 3.84 1.16a7.55 7.55 0 0 1 2.76 2.08l.1.24 3.25 6.54c.45.9 1.11 1.26 1.57 2.18l3.88 10.06c.25.62.89.97 1.56.85.44-.09.97.08 1.42.42.66.53.86 1.41.92 1.97a10.07 10.07 0 0 0 .02 9.34c2.29 4.58 7.24 6.79 11.32 5.18a7.44 7.44 0 0 0 .6-.27c4.18-2.09 5.62-7.67 3.22-12.48-2.29-4.57-7.24-6.78-11.32-5.17a7.46 7.46 0 0 0-1.72.97 3.97 3.97 0 0 0-1.31-1.67 4.66 4.66 0 0 0-2.5-1.04l-3.42-8.85c-.49-1.23.11-1.82-.55-3.32l-3.25-6.55a2.35 2.35 0 0 0-.26-.38c-.29-.55-.69-1.32-.81-1.61-.18-.47-.06-1.7-.06-1.7l-6.07-13.83c-1.84-4.2-14.08-23.2-14.08-23.2m44.17 72.96a5.9 5.9 0 0 1-3.46 4.1c-3.1 1.23-6.9-.55-8.66-4.06a8.17 8.17 0 0 1-.66-5.68 5.9 5.9 0 0 1 3.46-4.1c3.1-1.24 6.9.55 8.66 4.06a8.17 8.17 0 0 1 .66 5.68z"/>
    <path d="M122.32 60.17s-12.24 19.01-14.09 23.2l-6.07 13.85s.12 1.22-.05 1.7a26.09 26.09 0 0 1-.81 1.6c-.1.12-.18.25-.26.4l-3.25 6.54c-.67 1.5-.07 2.1-.56 3.32l-3.42 8.83a4.66 4.66 0 0 0-2.5 1.05 3.88 3.88 0 0 0-1.3 1.66 7.45 7.45 0 0 0-1.72-.97c-4.09-1.6-9.04.6-11.32 5.17-2.4 4.81-.96 10.4 3.21 12.48l.6.27c4.09 1.6 9.04-.6 11.33-5.18a10.07 10.07 0 0 0 .02-9.34c.05-.56.25-1.45.93-1.97.44-.33.97-.5 1.41-.42.67.12 1.31-.22 1.55-.85l3.89-10.06c.45-.92 1.12-1.29 1.55-2.16l3.27-6.55.1-.25a7.55 7.55 0 0 1 2.76-2.08c2-.93 3.84-1.16 3.84-1.16l5.45-13.82s4.6-12.55 5.62-17.33c1.02-4.77-.18-7.94-.18-7.94m-43.51 67.28c1.75-3.5 5.55-5.29 8.66-4.07a5.9 5.9 0 0 1 3.47 4.1 8.17 8.17 0 0 1-.68 5.7c-1.75 3.51-5.55 5.3-8.66 4.08l-.44-.2a5.9 5.9 0 0 1-3.03-3.92 8.17 8.17 0 0 1 .68-5.69z"/>
    <circle cx="100.01" cy="107.55" r="1.18"/>
  </g>
</svg>
