<svg xmlns="http://www.w3.org/2000/svg" xmlns:xlink="http://www.w3.org/1999/xlink" fill="#d7374a" stroke="#000" viewBox="50 50 200 200">
  <metadata author="Lidingo" source="https://commons.wikimedia.org/wiki/File:Steering_wheel_ship.svg" license="https://creativecommons.org/licenses/by-sa/3.0"/>
  <g id="shipWheel" stroke-width=".2415">
    <g id="shipWheel-a">
      <path d="m98.1358 93.9946.2586-9.9997c-.026-.5373-.6986-1.3079-1.0488-1.9863v-.8584c1.7576-.2648 3.5152-.2328 5.2728 0v.9051c-.3568.6259-1.0548 1.3448-1.0344 1.8678l.158 10.0656"/>
      <path fill="none" d="M97.2881 82.0266c1.7583-.1968 3.5579-.1464 5.3734 0"/>
      <path stroke-width=".4025" d="M97.5454 62.1553c-.1844 1.9172.7565 5.8211.7648 7.2148.0062 1.0503-.8715 1.9378-.9811 2.3395l-.0101 1.3232h5.2275c-.001-.4399.0057-.8884-.0101-1.3232-.1096-.4017-.9873-1.2892-.9811-2.3395.0083-1.3937.8698-5.2821.7597-7.2148-.078-1.3695-1.103-2.1492-2.3848-2.1483-1.3522.0009-2.2624.8759-2.3848 2.1483z"/>
      <path fill="none" d="M97.2909 71.7977c1.7677-.294 3.5354-.302 5.3031 0"/>
    </g>
    <use xlink:href="#shipWheel-a" transform="rotate(45 100 100)"/>
    <use xlink:href="#shipWheel-a" transform="rotate(90 100 100)"/>
    <use xlink:href="#shipWheel-a" transform="rotate(135 100 100)"/>
    <use xlink:href="#shipWheel-a" transform="rotate(180 100 100)"/>
    <use xlink:href="#shipWheel-a" transform="rotate(225 100 100)"/>
    <use xlink:href="#shipWheel-a" transform="rotate(270 100 100)"/>
    <use xlink:href="#shipWheel-a" transform="rotate(315 100 100)"/>
    <circle fill="none" stroke-width=".2576" cx="100" cy="100" r="2.2127"/>
    <path stroke-width=".483" d="M99.95 72.9825c-14.8936 0-26.9675 12.0739-26.9675 26.9675 0 14.8936 12.0739 26.9675 26.9675 26.9675 14.8936 0 26.9675-12.0739 26.9675-26.9675 0-14.8936-12.0739-26.9675-26.9675-26.9675zm0 7.9293c10.5135 0 19.0383 8.5247 19.0383 19.0383 0 10.5135-8.5247 19.0383-19.0383 19.0383-10.5135 0-19.0383-8.5247-19.0383-19.0383 0-10.5135 8.5247-19.0383 19.0383-19.0383z"/>
    <path fill="none" stroke-width=".2576" d="m98.3317 101.5036-1.788 1.788m7.1318-7.1318-2.2118 2.2117m.1594 3 1.788 1.788m-7.1318-7.1318 2.2117 2.2118m-.7587 1.7105h-2.7317m10.0859 0h-2.9126m-2.2239 2.2341v2.5286m0-10.0859v3.1279"/>
    <circle fill="none" stroke-width=".0805" cx="100" cy="100" r="19.6973"/>
    <path d="M99.95 93.349c-3.6459 0-6.601 2.9551-6.601 6.601s2.9551 6.601 6.601 6.601 6.601-2.9551 6.601-6.601-2.9551-6.601-6.601-6.601zm0 2.1534c2.4564 0 4.4476 1.9912 4.4476 4.4476 0 2.4564-1.9912 4.4476-4.4476 4.4476-2.4564 0-4.4476-1.9912-4.4476-4.4476 0-2.4564 1.9912-4.4476 4.4476-4.4476z"/>
    <circle fill="none" stroke-width=".483" cx="100" cy="100" r="6.601"/>
  </g>
</svg>
