<svg xmlns="http://www.w3.org/2000/svg" fill="#d7374a" stroke="#000" viewBox="50 50 200 200">
  <metadata source="http://wappenwiki.org/images/3/30/Stubenweg.svg" license="https://creativecommons.org/licenses/by-nc-sa/3.0"/>
  <g id="talbotSejant" stroke-width=".39">
    <path class="secondary" d="M73.92 138.51c.17 0 .17-.72 1.26-1.26.7-.36 1.7-.16 1.7-.16l.33-1.82-3.2-.74-2.37-.67-1.3.38s-.3.03-.5.97c-.15.67.09 1.77.39 1.77.17 0 .4-.93 1.62-1.51-.03.07-.05.22-.06.21-.2.94-.07 2.03.23 2.03.17 0 .54-.96 1.76-1.53.02-.02-.1.18-.16.46-.18.94 0 1.87.3 1.87m22.58 0c.18 0 .18-.72 1.26-1.26.7-.36 1.7-.16 1.7-.16l.33-1.82-3.2-.74-2.36-.67-1.31.38s-.3.03-.5.97c-.15.67.09 1.77.4 1.77.16 0 .4-.93 1.62-1.51-.03.07-.06.22-.07.21-.2.94-.07 2.03.24 2.03.17 0 .53-.96 1.75-1.53.03-.02-.1.18-.16.46-.18.94-.01 1.87.3 1.87"/>
    <path d="M94.7 134.78c-.04 0-.6-.34-1.01-.5-.9-.16-.97.16-1 .16-.09 0-.36-.41-.2-.8.14-.37.36-.67.84-.67.67-.12.99-.4 1.5-.54.73-.18 1.56.29 2.1.25.56-.04-.75.9-.86 1.13-.12.23-1.37.97-1.37.97z"/>
    <path d="M111.02 123.8c.6-1.81.65-3.75.68-5.66.04-1.8.04-3.73-.9-5.28-1.22-1.98-3.64-2.78-5.88-3.43-1.97-.58-3.99-1.16-6.03-.97-2.54.23-2.3 1.2-3.34 3.16-.77 1.46-3.7 2.5-4.02 4.49-.27 1.6-.3 2.95.13 4.5.6 2.15 1.37 4.28 2.64 6.11.71 1.03 1.58 1.96 2.43 2.88a6.27 6.27 0 0 0 1.96 1.25c.5.18 1 .24 1.5.47.28.13.61.26.91.17.06-.02.12-.04.17-.03.08.03.1.12.16.19.12.2.38.24.6.23.23-.01.46-.05.67 0 .17.05.33.17.49.26a2.23 2.23 0 0 0 2.16.06.53.53 0 0 1 .25-.06c.25.03.5.03.74 0 .2-.02.4.1.46.3.1.28.16.67-.31.79-1.34.45-4.67.21-5.88.08-.67-.08-2.48-.64-3.17-.63-.7.01-1.08.29-1.67.55-.04.01-.51-.1-.92.47a.99.99 0 0 0-.17.36c-.09.3.16.6.48.57.36-.04.95.08 1.82.76l.08.08c.02.03.06.04.06.04s.42-.28.98-.04l.07.04c.84.5 1.06 1.15 1.11 1.44.04.17.17.32.34.35.13.03.3.04.55 0 .28-.03.76-.2.97-.45.1-.12.25-.19.4-.17.34.02.6.22.96.31.48.1 1.08-.28 1.47-.03.17.1.88.23 1.34.17.98-.11 1.83-.53 2.88-.5.67.03 1.32.22 2 .22.2 0 .4-.04.58-.14.22-.11.38-.23.66-.26.44-.05.85-.18 1.28-.27.54-.1 1.17-.03 1.72-.03.17 0 .32 0 .5-.02.47-.06 1-.37 1.1-.86.11-.48-.28-.98-.45-1.4-.18-.43-.1-1.14.01-1.69.08-.42.64-.48.84-.1M84.4 108.85a3.7 3.7 0 0 1 .77-3.72c.3-.31.65-.58.85-.94.35-.63.19-1.4.02-2.1-.26-1-.57-1.98-.9-2.95-.18-.53-.41-1.11-.88-1.42-.42-.28-.95-.3-1.44-.27-.97.08-1.92.38-2.85.69-2.05.66-2.93 1.44-4.1 3.26-1.22 1.9-2.04 3.87-2.03 5.93.01 1.98.08 3.93.22 5.91v.03c.02 1.75 1.13 4.97 1.12 6.28-.04 5-.26 6.63-.26 7.59 0 .61-.13 1.83-.13 2.25 0 .04 0 .07-.02.1a12.58 12.58 0 0 1-.63 1.9l-.04.07c-.87 1.4-2.17.24-3.24 1.26a.4.4 0 0 1-.23.1c-.4.08-.57.5-.72.84-.14.38.12.79.21.79.03 0 .2-.32.94-.17l.12.04.75.36c.12.06.25.07.38.02.29-.12.94-.21 2.1.7l.09.07c.02.03.06.04.06.04s.42-.28.98-.04l.07.04c.8.48 1.04 1.1 1.11 1.4.04.17.17.29.34.33.14.03.32.05.57.05.57 0 .81.1 1.26-.23.68-.5.52-.37 1-1.28 0 0 .54-1.19.54-2.2 0-1.03-.43-2.68-.52-3.31 0 0-.13-1.06-.2-2.52-.06-1.44.92-7.02 1.47-8.62.46-1.33 1.1-3.78 2.43-4.79.35-.25.75-1.13.95-1.6l.01-.04c.2-.59.45-2.12-.7-2.77 0-.02-.02-.02-.05-.03-.4-.33 0-.97.48-.75"/>
    <g>
      <path fill="none" d="M73.79 133.2c-.03.03-.97-.1-1.39.48-.27.32-.44 1.06-.29 1.08m22.33.71c0-.1.15-.7.39-.84"/>
      <g stroke="none" fill="#000">
        <path d="M93.32 132.78a2.68 2.68 0 0 1 .94.28c.1.05.2.1.27.2l-.03.02c-.08-.05-.18-.08-.27-.1l-.3-.04c-.2-.01-.41.01-.6.04v-.4zm2.44.23a5.14 5.14 0 0 1 .85.21c.13.05.26.11.38.2.12.07.24.15.34.26l-.03.02a2.3 2.3 0 0 0-.36-.17c-.13-.04-.26-.08-.4-.1-.13-.03-.26-.04-.39-.04l-.4.01v-.4zm-1.61 2.1-.34.33-.34.32c-.23.2-.44.43-.67.65l-.04-.01c.04-.17.12-.31.2-.46.1-.14.2-.26.34-.38.23-.2.52-.4.85-.46zm2.1.5c-.14.14-.28.24-.43.36a.66.66 0 0 0-.1.09l-.1.1c-.07.04-.14.1-.2.17l-.38.38-.36.42h-.04c.03-.2.12-.38.23-.55a2.44 2.44 0 0 1 .85-.77c.16-.1.34-.16.54-.2zm2.48.99c-.22.05-.43.1-.63.17s-.39.14-.56.26c-.1.05-.17.12-.25.18-.1.07-.17.13-.25.21l-.48.45-.04-.03a2.46 2.46 0 0 1 .88-1.03c.2-.13.43-.21.65-.24.22-.04.46-.04.68.03zm-.01-2.71c.37-.15.75-.21 1.13-.23.38-.01.76.02 1.12.08a7.6 7.6 0 0 1 1.08.28c.35.11.7.26 1 .48l-.02.04c-.37-.08-.7-.17-1.05-.26-.34-.1-.7-.16-1.05-.2-.35-.04-.7-.06-1.05-.04-.34.03-.68.1-1 .21l-.16-.36z"/>
      </g>
    </g>
    <g stroke="none" fill="#000">
      <path d="m70.75 132.61.17.03.17.04a1.75 1.75 0 0 1 .64.3c.1.08.17.16.23.26l-.04.02a.7.7 0 0 0-.27-.17c-.09-.04-.2-.07-.3-.08-.1-.02-.2-.03-.31-.03l-.16.01-.16.02v-.4zm3.05.4.21.04.21.05a2.05 2.05 0 0 1 .75.4c.1.08.2.19.27.3l-.04.03c-.09-.09-.2-.17-.31-.23a1.77 1.77 0 0 0-.73-.21c-.07-.02-.13 0-.19-.02h-.18l.01-.36zm29.78 3.82a.5.5 0 0 1 .08-.2c.04-.06.08-.11.13-.14.09-.06.18-.12.27-.16l.54-.18.52-.16c.17-.05.35-.13.48-.26-.1.16-.27.26-.44.36l-.5.24c-.15.08-.32.16-.45.27l-.19.15c-.05.06-.06.1-.05.12l-.4-.04z"/>
    </g>
    <path fill="none" d="M71.85 135.47c0-.1.16-.7.4-.84"/>
    <g stroke="none" fill="#000">
      <path d="M77.16 104.21c-.42.5-.7 1.08-.9 1.67-.1.3-.2.6-.24.9-.07.3-.1.62-.13.93-.04.32-.06.63-.07.96-.03.31-.03.64-.05.95-.04.65-.1 1.3-.25 1.93-.01-.64-.04-1.28-.07-1.93l-.01-.97c0-.33.03-.65.05-.98a6.4 6.4 0 0 1 .47-1.91c.28-.6.67-1.17 1.2-1.55zm-1.63 27.84.1-.67.11-.65.1-.66.08-.67a2.98 2.98 0 0 1 .07 1.36c-.04.23-.1.45-.16.68-.08.2-.17.41-.3.61zm-3.95 3.05-.35.34-.34.32c-.22.2-.43.43-.66.65l-.04-.01c.04-.17.11-.31.2-.46.1-.14.2-.26.33-.38.23-.2.52-.4.86-.46zm2.1.66-.22.17-.2.16-.22.15-.2.16c-.12.1-.26.22-.37.34l-.37.37-.04-.02c.04-.18.13-.34.25-.5a2.15 2.15 0 0 1 1.36-.83zm2.47.84c-.23.05-.43.1-.63.17s-.4.14-.56.26c-.1.05-.17.12-.25.18-.1.07-.17.13-.25.21l-.49.45-.04-.03a2.46 2.46 0 0 1 .88-1.03c.21-.13.43-.21.66-.24.22-.04.45-.04.68.03z"/>
    </g>
    <path d="M98.4 115.8c-.14-.15-.8-.66-1.17-.82-1.51-.7-3.5-.95-3.5-.95s-.81-.07-.78-.54c.02-.18.08-.45.37-.6.87-.41 3.15-.53 3.15-.53"/>
    <path class="secondary" d="M76.1 139.86c.17 0 .17-.72 1.25-1.26.7-.37 1.7-.16 1.7-.16l.33-1.82-3.2-.74-2.36-.67-1.31.38s-.3.02-.5.97c-.15.67.09 1.77.4 1.77.16 0 .4-.93 1.62-1.51-.03.07-.06.22-.07.2-.2.95-.07 2.04.24 2.04.17 0 .53-.96 1.75-1.53.03-.02-.1.18-.16.46-.18.94 0 1.87.3 1.87m23.11 0c.17 0 .17-.72 1.26-1.26.7-.37 1.7-.16 1.7-.16l.33-1.82-3.2-.74-2.37-.67-1.3.38s-.3.02-.5.97c-.15.67.09 1.77.39 1.77.17 0 .4-.93 1.62-1.51-.02.07-.05.22-.06.2-.2.95-.07 2.04.23 2.04.17 0 .54-.96 1.76-1.53.03-.02-.1.18-.16.46-.18.94 0 1.87.3 1.87"/>
    <path d="M97.4 136.13c-.03 0-.58-.35-1-.5-.9-.16-.97.15-1 .15-.09 0-.36-.4-.2-.78.14-.38.36-.68.85-.68.66-.12.98-.4 1.49-.54.73-.18 1.56.29 2.1.25.56-.04-.75.89-.86 1.13-.11.23-1.37.97-1.37.97z"/>
    <path d="M77.9 79.17c0 1.74-2.01 1.54-3.35 3.72-1.09 1.7-3.72 3.22-3.81 6.18a8.94 8.94 0 0 0-.26 7.77c.34 1.26-.32 3.47 1.16 5.85 1.38 2.24 2.44 2.34 3.18 3.13.52.56 1.34.84 1.34.84-.4 3.13-.04 6.55.07 7.94 0 1.76 1.12 5 1.11 6.3-.04 5-.26 6.63-.26 7.59 0 .64-.15 1.94-.13 2.29 0 0-.25 1.1-.66 1.98-.9 1.5-2.25.18-3.37 1.39-.48 0-.69.47-.85.85-.14.38.12.78.21.78.03 0 .21-.32 1-.15l1 .5s.69-.67 2.33.64c0 .04.07.08.07.08s.44-.3 1.03-.03c1.12.67 1.16 1.6 1.16 1.6s.1.2.87.2c.57 0 .8.09 1.25-.24.69-.5.53-.37 1-1.27 0 0 .55-1.2.55-2.22 0-1.02-.43-2.67-.52-3.3 0 0-.13-1.06-.2-2.51-.07-1.44.92-7.02 1.47-8.62.46-1.34 1.1-3.79 2.43-4.8a5.1 5.1 0 0 0 .96-1.6c.2-.58.46-2.16-.7-2.81 0 0-.71-.5-.2-1.1 3.64 2.16 8.14.31 11.42 3.55-2.08 1.03-3.1 1.9-3.38 3.5-.26 1.6.1 3.22.54 4.76.6 2.15 1.37 4.27 2.64 6.1.71 1.04 1.57 1.97 2.43 2.9a6.27 6.27 0 0 0 1.96 1.24c.5.18 1 .24 1.5.47.28.13.61.26.91.17.05-.02.12-.04.17-.03.08.03.1.12.16.18.12.2.38.25.6.24.22-.01.46-.05.67 0 .17.05.33.17.48.26.69.42 1.6.4 2.28-.01.4.06.79.04 1.17-.03 0 0 .6.92-.16 1.12-1.33.44-4.66.2-5.88.07-.67-.07-2.48-.64-3.17-.62-.7 0-1.07.28-1.66.55-.04 0-.51-.1-.92.47-.28.33-.31 1.06-.14 1.09 0 0 .68-.67 2.31.64.02.04.08.08.08.08s.44-.3 1.02-.03c1.13.67 1.17 1.6 1.17 1.6s.12.31.87.2c.32-.06.94-.27 1.06-.62.5-.1.8.18 1.28.3.47.1 1.07-.28 1.47-.03.17.1.88.23 1.33.17.99-.11 1.84-.53 2.89-.5.7.05 1.38.23 2.1.22.1-.04.21-.07.33-.08.3-.13.46-.3.79-.33.44-.05.85-.18 1.28-.28.54-.1 1.17-.02 1.72-.02.17 0 .33 0 .5-.03.47-.05 1-.36 1.1-.85.11-.48-.28-.98-.45-1.4-.33-.8.21-2.5.21-2.5.47.3.46.36.7.86a2.88 2.88 0 0 0 1.95 1.5c.65.92 1.58.75 1.92.95.1.05.19.13.3.21 1 .72 2.3.25 3.44.21.93-.03 1.84-.2 2.7-.51a8.66 8.66 0 0 0 4.38-3.55 11.35 11.35 0 0 0 1.75-6.35c0-10.08-9.27-11.98-9.27-25.26-.11-3.98 1.3-6.9.88-7.43-.65-.1-3.55 3.12-3.55 8.83 0 12.66 8.65 16.85 8.65 23.84 0 3.92-2.14 6.49-5.78 6.49-.75 0-1.5-.1-2.2-.37a5.58 5.58 0 0 1-3.25-3.51 8.4 8.4 0 0 1-.43-2.2c-.05-.67.02-1.35 0-2.02-.04-.7-.12-1.4-.21-2.1-.51-3.57-2.2-8.18-4.53-10.93-3.96-4.67-9.42-8.06-12.25-10.77-5.22-5-7.68-7.1-10.59-12.98-.61-1.2-1.1-3.03-1.3-5.4-.13-1.55-.16-3.64.65-5.23"/>
    <path fill="none" d="M97.23 113.69c1.25-.38 2.2-.84 4.24-.88 1.22-.03 2.95.39 4.45 1.11"/>
    <g stroke="none" fill="#000">
      <path d="M70.57 89c.09-.18.18-.36.29-.52.11-.17.24-.31.38-.44.28-.27.58-.48.8-.76.48-.6 1.08-1.07 1.66-1.54-.55.51-1.09 1.04-1.5 1.64-.22.33-.52.59-.76.85-.23.26-.4.58-.52.92l-.35-.16zm47.81 43.84-.1-.1a.21.21 0 0 1-.06-.09l-.09-.17-.13-.32c-.08-.21-.14-.44-.2-.65l-.23-.62c-.1-.2-.18-.41-.35-.55.18.11.31.32.43.5l.33.6.3.6.15.27c.03.04.06.1.1.12l.04.05s0 .02.02.02l-.2.34zm-1.88-10.89c-.08-.29-.14-.56-.19-.84l-.18-.81-.21-.81c-.08-.28-.16-.55-.22-.84.2.2.38.46.5.72s.24.54.32.83c.07.28.1.59.12.87-.03.3-.05.6-.14.88zm1.36-.97a14.9 14.9 0 0 1 .17 2.28l.01.76c0 .51-.01 1.02-.05 1.52-.01.25-.03.5.01.73.03.24.1.49.25.7-.2-.15-.35-.4-.43-.64a3.18 3.18 0 0 1-.13-.78c-.03-.5-.04-1-.04-1.52l.01-.76c.01-.24.01-.5.04-.76.04-.52.08-1.03.16-1.53zm-43.04-17.4c.04.56.24 1.08.48 1.58.24.48.56.94.94 1.33l-.29.25a5.63 5.63 0 0 1-.82-1.5c-.2-.53-.33-1.1-.3-1.67zm18.53 4.88c.01.2.08.35.2.48.1.13.26.23.4.3.3.15.67.17 1.04.24.18.04.39.08.57.16.2.08.37.2.53.31.3.25.53.54.82.8-.37-.12-.7-.37-1-.54a2.56 2.56 0 0 0-1-.34 4.81 4.81 0 0 1-.57-.12c-.18-.05-.39-.11-.56-.24a1.4 1.4 0 0 1-.42-.46c-.06-.19-.1-.42-.01-.6zm-4.08-5.53a1.58 1.58 0 0 0 1.01 1.53l.24.07c.09.03.2.06.31.14.1.1.16.2.2.29l.1.26.3 1.02-.22-.11a.65.65 0 0 1 .58.1c.16.1.26.25.35.4.16.28.23.58.46.82-.14-.07-.26-.2-.37-.33l-.27-.38c-.1-.12-.2-.2-.32-.27-.11-.07-.23-.08-.31-.04-.08.04-.17-.02-.2-.1l-.02-.02-.36-.98-.07-.24a.46.46 0 0 0-.1-.14c-.06-.07-.23-.08-.43-.16a1.61 1.61 0 0 1-.82-.79 1.53 1.53 0 0 1-.06-1.07zm23.22 16.52a1.66 1.66 0 0 1-.13 1.06c-.08.16-.19.31-.3.45a1.1 1.1 0 0 1-.45.31c.05-.18.12-.34.18-.5.07-.16.13-.3.21-.44l.22-.45.27-.43zm-1.18-1.7c.12.2.16.45.12.7a1.7 1.7 0 0 1-.3.67 4.3 4.3 0 0 1-1 .96c.08-.24.18-.43.3-.63s.25-.37.38-.55c.12-.17.24-.34.31-.53.1-.18.15-.39.19-.62zm.7 12.78a5.45 5.45 0 0 0 1.1 1.44 4.02 4.02 0 0 0 1.5.88c.37.12.76.17 1.15.16h.02c.07 0 .13.05.14.12.05.24.17.5.37.68.18.2.44.31.73.36-.29.06-.6-.02-.87-.2a1.6 1.6 0 0 1-.34-.33c-.09-.13-.15-.28-.2-.44l.17.12a3.26 3.26 0 0 1-2.44-.68 3.95 3.95 0 0 1-.87-.94c-.23-.37-.39-.76-.47-1.17z"/>
      <path d="M110.55 128.55c.1.32.17.62.27.9s.21.57.37.82a2.45 2.45 0 0 0 1.36 1.09 1.4 1.4 0 0 1-.97-.17 1.97 1.97 0 0 1-.72-.71 2.7 2.7 0 0 1-.33-.94 2.75 2.75 0 0 1 .02-.99z"/>
      <path d="M107.94 127.45a4.48 4.48 0 0 0 1.17 1.61 4.53 4.53 0 0 0 1.8.9c-.36.09-.74.05-1.08-.06a2.73 2.73 0 0 1-1.65-1.4c-.16-.33-.25-.7-.24-1.05zm1.36 5.8.53-.07.26-.04c.12-.03.26 0 .37.06.1.07.17.14.23.2l.19.2a3.34 3.34 0 0 0 .83.6c.16.07.33.12.5.16l1.06.18c-.35-.03-.72-.05-1.07-.1a2.45 2.45 0 0 1-1.04-.35c-.15-.09-.3-.2-.44-.32-.15-.12-.28-.26-.4-.32a.22.22 0 0 0-.15-.01l-.26.07-.54.13-.07-.38zm-3.3-19.51c.68.36 1.33.78 1.89 1.3.29.27.54.56.76.87.2.32.38.67.46 1.04-.1-.37-.3-.7-.54-.99a4.95 4.95 0 0 0-.8-.77 8.6 8.6 0 0 0-1.94-1.1l.17-.35z"/>
    </g>
    <g>
      <path fill="none" d="M75.96 134.57c-.02.02-.97-.1-1.38.47-.28.33-.45 1.06-.3 1.09m2.67-5.34c-.07 1.54-.42 3.13-.99 3.76"/>
      <g stroke="none" fill="#000">
        <path d="M96.03 134.13a2.68 2.68 0 0 1 .95.28c.09.05.2.1.26.2l-.03.02c-.08-.05-.18-.08-.27-.1l-.3-.04c-.2-.02-.41.01-.6.04v-.4zm2.44.23a5.14 5.14 0 0 1 .85.21c.13.05.26.11.38.2.12.07.24.15.34.25l-.02.03a2.3 2.3 0 0 0-.37-.17c-.13-.04-.26-.08-.4-.1-.13-.03-.26-.04-.39-.04l-.39.01v-.4z"/>
      </g>
      <path fill="none" d="M99.09 137.53s.24-.4.72-.68m-2.66-.03c0-.1.15-.7.39-.84"/>
      <g stroke="none" fill="#000">
        <path d="m120.98 135.16-.2-.41-.14-.43c-.04-.15-.07-.3-.07-.45s.03-.3.12-.42a.76.76 0 0 0-.02.42c.03.13.08.26.15.38.06.12.13.24.22.36l.25.32-.31.23zm-24.12 1.3c-.12.12-.24.23-.34.35l-.34.31c-.23.21-.43.43-.67.66l-.04-.02a1.8 1.8 0 0 1 .54-.84c.22-.22.52-.4.85-.45zm2.1.52-.44.35a.66.66 0 0 0-.1.1l-.1.08-.2.19-.38.38-.36.42-.04-.02c.04-.2.12-.36.23-.53a2.44 2.44 0 0 1 .85-.78c.17-.1.34-.17.53-.2zm2.47.97c-.22.05-.43.1-.63.17s-.4.14-.56.26c-.1.05-.17.12-.25.18-.1.07-.17.13-.25.21l-.48.45-.04-.03a2.46 2.46 0 0 1 .88-1.03c.2-.14.43-.21.65-.24.24-.04.46-.04.68.03zm-.01-2.72c.36-.14.74-.2 1.12-.22.38-.01.76.01 1.13.08a7.6 7.6 0 0 1 1.07.28c.36.11.7.26 1 .48l-.01.04c-.37-.08-.71-.17-1.05-.26-.34-.1-.7-.16-1.05-.2-.35-.04-.7-.06-1.05-.04-.34.03-.68.1-1 .21l-.16-.37z"/>
        <path d="M99.52 136.82c-.02-.08-.02-.14-.02-.21l.03-.2a1.23 1.23 0 0 1 .38-.68l.15-.12.14-.09c.2-.12.42-.22.67-.29.23-.05.5-.05.74.06.15.05.32.1.46.17.16.06.3.15.45.25s.26.2.38.34c.1.13.2.26.26.43l-.04.01a3.32 3.32 0 0 0-1.15-.76 1.1 1.1 0 0 0-.23-.06 1.37 1.37 0 0 0-.22-.06h-.01c-.35-.11-.75.03-1.09.25l-.13.1c-.04.02-.08.05-.1.09a.8.8 0 0 0-.16.2c-.04.08-.08.16-.1.26v.26l-.41.05z"/>
      </g>
    </g>
    <path fill="none" d="M75.98 101.17c-.1.78-.2 2.09-.08 3.23.09.87.4 1.39.26 2.26m9.64 3.47c.84-1.93 2.06-4.03 2.26-7.41v-.3m-12.08 35.1s.25-.39.72-.67m-2.67-.03c0-.1.15-.7.39-.84"/>
    <g stroke="none" fill="#000">
      <path d="M106.3 138.18a.5.5 0 0 1 .07-.2c.04-.06.08-.11.13-.14.1-.06.18-.12.28-.16.18-.07.35-.13.53-.18l.53-.16c.17-.05.34-.13.47-.26-.1.16-.26.26-.43.36l-.5.24c-.16.08-.33.16-.46.27l-.18.15c-.06.06-.07.1-.06.12l-.39-.04zm7.46-.5c.09-.07.18-.18.29-.27l.28-.28.3-.26c.11-.08.23-.17.35-.2-.12.06-.2.16-.28.27-.08.1-.16.2-.22.33l-.22.34-.24.34-.26-.28zm-3.25.08c.17-.01.34-.05.5-.13.15-.08.3-.18.44-.3.15-.12.28-.26.4-.4.15-.12.3-.25.48-.32-.17.1-.29.24-.4.4l-.35.45a1.88 1.88 0 0 1-1 .68l-.07-.38zm-2.94-5.47.9.57c.15.1.3.2.45.25.16.07.32.1.49.15l-.12.38c-.17-.08-.34-.16-.5-.27-.15-.1-.3-.23-.43-.35l-.79-.73zm-7.7-3.62a.9.9 0 0 1-.48-.37c-.12-.17-.2-.38-.23-.58 0-.21.02-.4.04-.58.03-.17.06-.34 0-.54.1.05.16.13.21.22.06.1.08.2.1.3.03.2.03.4.05.56a2.64 2.64 0 0 0 .31 1zm4.39 2.03c.16.05.29.12.4.19a1.38 1.38 0 0 1 .62.64c.07.14.1.3.1.46-.15-.1-.26-.2-.35-.3a3 3 0 0 1-.29-.28c-.09-.1-.2-.2-.28-.32a.86.86 0 0 1-.2-.39zm-3.07-1.45c.04.18.07.34.12.5.04.14.1.28.16.43a3.95 3.95 0 0 0 .5.82.83.83 0 0 1-.51-.22 1.2 1.2 0 0 1-.34-.46 1.17 1.17 0 0 1-.1-.56c0-.17.04-.37.17-.51zm-22.7-25.7a1.26 1.26 0 0 1-.3-.7c-.01-.23.03-.51.15-.73v.09a.43.43 0 0 1 .02-.29c.04-.08.1-.16.17-.18-.02.15.01.29.08.36l.01.02-.01.08-.07.65-.02.34c.01.12 0 .24-.03.37zm1.5 1.5a1.5 1.5 0 0 1-.33-.42 2.08 2.08 0 0 1-.25-1.02c.01-.18.04-.35.12-.52.09.17.14.32.2.48l.12.47.11.49c.01.17.04.34.04.52zm1.38.49a.39.39 0 0 1-.23-.06.53.53 0 0 1-.17-.17 1.79 1.79 0 0 1-.28-.74c-.01-.13-.02-.28.02-.42.11.09.2.2.27.31a2.18 2.18 0 0 1 .26.72c.04.12.04.23.13.36zm1.64.76a.85.85 0 0 1-.46-.27 1.3 1.3 0 0 1-.36-.98c.01-.17.04-.34.1-.5.1.15.15.3.2.46l.14.44c.05.13.1.27.17.4.05.15.13.29.21.45zm1.23-.57a13.64 13.64 0 0 0 1.85-1.89c.1-.11.18-.22.22-.33.06-.13.07-.28.1-.44.06.15.1.3.09.48 0 .07-.03.17-.06.24-.02.08-.06.15-.1.23a3.52 3.52 0 0 1-1.26 1.37c-.23.15-.52.28-.84.34zm-7.45-8.56a4.6 4.6 0 0 1-.16-1.75c.03-.3.1-.59.16-.87.08-.3.18-.57.31-.84.27-.54.62-1.02 1.01-1.46.4-.43.85-.8 1.34-1.12-.38.44-.76.87-1.1 1.32-.34.45-.66.92-.9 1.43a6.1 6.1 0 0 0-.52 1.58c-.1.55-.14 1.12-.14 1.7zm-3.87 36.8.18.02.17.04a1.75 1.75 0 0 1 .64.3c.09.08.17.16.22.26l-.04.02a.7.7 0 0 0-.26-.17c-.1-.04-.2-.07-.3-.08-.1-.02-.21-.03-.32-.03l-.15.01-.16.02v-.4zm3.06.4.2.04.22.05a2.05 2.05 0 0 1 .74.4c.1.09.2.2.28.3l-.04.04c-.1-.1-.2-.18-.32-.24a1.77 1.77 0 0 0-.73-.21l-.18-.01h-.19l.02-.37zm5.6-10.65a3.43 3.43 0 0 1-.15-1.74c.02-.3.09-.58.15-.87l.23-.84c.15-.55.34-1.1.47-1.65.13-.55.23-1.1.22-1.69.18.57.16 1.17.08 1.75s-.24 1.14-.4 1.7l-.23.82c-.08.28-.14.55-.2.83-.14.55-.22 1.1-.17 1.69zm3.57-9.76c.02-.22-.03-.4-.1-.56-.02-.1-.06-.17-.09-.27l-.1-.27a1.07 1.07 0 0 0-.24-.42c-.02-.03-.05-.04-.09-.06l-.13-.06-.16-.08a.27.27 0 0 1-.1-.14c.09.05.18.04.29.03.05 0 .1-.02.15 0 .07 0 .13.02.19.05.12.05.22.14.29.25.07.09.11.2.15.3l.1.3c.02.1.03.21.03.33 0 .1 0 .22-.04.34a.56.56 0 0 1-.15.26zm2.72-11.55c.1-1.4.02-2.83-.27-4.24.4 1.37.64 2.8.67 4.25l-.4-.01zm-10.82-4.46a8.96 8.96 0 0 0-.88 3.24l-.39-.04a8.17 8.17 0 0 1 1.27-3.2zm.66 35.45c.02-.24.06-.44.1-.67l.1-.65.1-.66.09-.67c.06.23.1.45.1.69.02.22 0 .45-.04.68-.03.22-.09.44-.15.66-.08.21-.17.42-.3.62zm-4.33-42.59c-.32.16-.53.45-.68.76-.16.32-.25.64-.35.98-.1.35-.2.69-.26 1.03a13.47 13.47 0 0 0-.34 2.08c-.04.35-.06.7-.08 1.05-.03.7 0 1.41.04 2.12a10.08 10.08 0 0 1-.33-3.21 10.27 10.27 0 0 1 .9-3.65c.08-.18.17-.33.26-.49.11-.16.23-.3.37-.42.13-.13.3-.2.47-.25zm.37 45.66c-.12.11-.24.22-.34.34l-.34.31-.67.66-.04-.02a1.8 1.8 0 0 1 .54-.84c.22-.22.51-.4.85-.45zm2.1.65c-.07.07-.15.12-.21.17l-.21.16c-.07.05-.15.1-.21.16l-.2.15c-.13.1-.26.23-.38.34l-.37.37-.04-.01c.04-.19.14-.34.25-.5a2.15 2.15 0 0 1 .84-.68c.17-.08.34-.15.53-.16zm2.47.83c-.22.05-.43.1-.63.17s-.39.14-.56.26c-.1.05-.17.12-.25.18-.1.07-.17.13-.25.21l-.48.45-.04-.03a2.46 2.46 0 0 1 .88-1.03c.2-.14.43-.21.65-.24.22-.04.46-.04.68.03zm-.13-2.6c.08-.14.17-.25.26-.36.1-.1.17-.23.25-.33.15-.22.29-.47.28-.75a.9.9 0 0 1 .01.42 4.43 4.43 0 0 1-.29.81c-.05.13-.12.25-.14.37l-.37-.16z"/>
      <path d="M76.4 136.82v-.21c0-.07 0-.13.02-.2a1.23 1.23 0 0 1 .38-.68l.15-.12.14-.09c.2-.12.42-.22.67-.29.23-.05.51-.05.75.06h-.02l.23.08.22.09a1.97 1.97 0 0 1 .42.25c.13.09.25.2.34.34.09.13.17.27.2.43l-.05.01c-.18-.25-.4-.43-.64-.57-.11-.08-.25-.14-.38-.19l-.2-.06-.22-.06c-.36-.11-.76.03-1.1.25l-.13.1c-.04.02-.08.05-.1.09a.8.8 0 0 0-.16.2c-.04.08-.08.16-.1.26v.26l-.41.05z"/>
    </g>
    <g>
      <g>
        <path class="tertiary" d="M79.87 75.85s-3.2-2.07-6.05-2.05c-2.98 0-4.76 1.36-6.4 1.37-2.77.04-2.7-1.27-2.94-1.27-.23.07-.3.58.05 1.24.33.6 1.16 1.35 3 1.3 2.62-.01 3.86-1.19 6.36-1.2 3.34-.02 5.74 1.74 5.74 1.74"/>
        <g fill="#f6f6f6" stroke-width=".33">
          <path d="M69.1 75.63c-.1-.05-.5.97-.66 1.72l.07-.03c.3-.08.55-.07.77-.01a7.39 7.39 0 0 0-.18-1.68zm-.93-1.27c.14-.1-.22-.62-.4-1.66a1.78 1.78 0 0 1-.03-.53c-.33-.03-.66.03-1.01-.06l-.36-.06c.21.76.88 2.16 1.8 2.3z"/>
        </g>
        <path d="M92.18 78.33c.45-2.3.58-3.79-.14-6.01-.46-1.42-1.34-2.83-1.56-4.33-.08-.56-.08-.34-.17-.9 0-2.22-.92-4.1-2.71-5.28a9.37 9.37 0 0 0-5.41-1.55c-1.44 0-2.52.3-3.97.5-1.67.26-2.45.85-3.37 1.09-1.2.33-1.89.44-2.06 1.33.04.25-.04.52-.24.65s-.8.36-1.38.4c-1.15.08-1.85.4-2.65.75-1.06.51-.77.14-1.9.47-.5.05-1.6-.01-1.74.49-.44 1.28.43 1.78.43 2.16 0 0-.26.9-.11 2.05.09.65.3 1.62.65 1.8.25.17.49.25.7.3.62.12 1.16.18 1.79.52a2.98 2.98 0 0 0 3.18-.39c.21-.16.46-.43.72-.47.3-.05 1.05.18 1.37.2 1.67 0 1.86.34 2.67 1 .88.71.76 1.01 1.22 1.72.46.7.65 1.78.57 2.28-.09.5-1.41.08-1.9.22s-.7.24-1.88.32c-.88.06-1.88-.5-2.68-.3-1.8.47-1.92-.33-3.07-.03-.36.14-1.01-.03-.95.2-.11.07.02.59.37.8.55.43 1.22.55 1.89.44.77-.12.61-.04 1.9 0 2.14.2 1.2.29 2.9.4 2.07.05 2.06-.24 3.28 0"/>
        <g>
          <path d="M83.13 67.48a7.87 7.87 0 0 1-.42 2.27c-.35 1-.58 1.99-.77 3.05a7.54 7.54 0 0 0 .43 3.76c.34 1.02.68 2.06 1.18 3.03.7 1.37 1.53 1.9 2.3 2.84.23.3.49.61.86.75.59.22 1.24-.1 1.8-.41l1.05-.6a6.5 6.5 0 0 0 2.63-3.85"/>
          <g stroke="none" fill="#000">
            <path d="M74.81 62.75c.25-.14.53-.22.81-.25.3-.04.58-.01.87.1.14.05.27.1.4.18l.36.2c.23.15.46.3.72.41a2.81 2.81 0 0 1-.8-.23c-.26-.1-.51-.21-.76-.29a4.98 4.98 0 0 0-.77-.08c-.28 0-.55 0-.83-.04zm5.39 14.8c-.06.14-.07.25-.1.39a4 4 0 0 1-.09.38c-.04.13-.08.26-.18.39l-.04.05-.05.05a.42.42 0 0 0-.08.07l-.16.12a2.03 2.03 0 0 1-.77.32c-.28.06-.54.07-.81.06v-.4c.24 0 .5-.01.74-.04.12 0 .24-.04.34-.07s.21-.1.33-.15l.17-.1a.4.4 0 0 0 .08-.04c.01 0 .01-.02.03-.02l.02-.02c.07-.07.12-.19.17-.3l.16-.36a.55.55 0 0 1 .24-.32zm-2.73-9.32c.13-.04.28-.05.4-.03s.27.07.39.12c.11.07.22.14.31.24s.17.2.21.34l-.35-.13-.32-.16c-.1-.05-.2-.1-.3-.17a1.6 1.6 0 0 1-.34-.21zm4.18-1.53c.1.07.17.17.24.24a5.11 5.11 0 0 1 .28.51c.02.1.06.2.07.33a.68.68 0 0 1-.33-.14.96.96 0 0 1-.31-.6.67.67 0 0 1 .05-.34zm-10.44 1.76c.12-.06.26-.06.4-.04s.24.1.35.19c.1.08.18.18.24.29.07.1.1.22.12.36a1.07 1.07 0 0 1-.31-.2c-.1-.06-.17-.14-.26-.2l-.25-.2a1.83 1.83 0 0 0-.3-.2zm-1.61-.5a.46.46 0 0 1 .26-.14c.1-.01.18-.01.27.02a.52.52 0 0 1 .24.13c.07.06.12.13.16.23-.1.04-.2.04-.28.04a.61.61 0 0 1-.22-.04c-.07-.02-.13-.05-.2-.09a.62.62 0 0 1-.23-.16zm8.5 1.55c.2-.01.4.01.6.07.2.05.4.14.55.29a1.24 1.24 0 0 1 .34.52c.07.18.1.35.2.54-.21-.07-.35-.25-.47-.4a1.94 1.94 0 0 0-.34-.38l-.42-.31c-.13-.08-.3-.18-.46-.33zm-1.9 1.7c.4.3.8.57 1.17.9a5.86 5.86 0 0 1 1.37 1.79c.12.22.24.46.3.7.15.48.17 1.03-.01 1.49.03-.5-.08-.96-.28-1.4-.09-.2-.2-.41-.34-.6-.13-.22-.26-.41-.39-.6-.27-.4-.55-.8-.88-1.15-.3-.37-.66-.72-.94-1.13zm5.6-8.24a10.37 10.37 0 0 1 1.1 2.12 7 7 0 0 1 .44 2.4l-.4-.02a6.52 6.52 0 0 0-.27-2.3 12.1 12.1 0 0 0-.9-2.17l.02-.03zm8.31 4.13a6.46 6.46 0 0 0-.57-2.02c-.3-.64-.71-1.23-1.26-1.69l.02-.02c.3.2.57.44.82.72a6.07 6.07 0 0 1 1.37 2.96l-.38.05z"/>
          </g>
        </g>
      </g>
      <g>
        <path d="M72.78 63.18c0 .33.03.7.34.93"/>
        <g stroke="none" fill="#000">
          <path d="M73.24 63.96c.03.02.1.05.18.06l.25.04a7.66 7.66 0 0 0 1.65-.14l.29-.07.3-.04c.2-.01.4 0 .6.03.38.05.76.2 1.05.46a3.54 3.54 0 0 0-1.08-.25 2.58 2.58 0 0 0-.82.08l-.27.08a6.86 6.86 0 0 1-1.76.23c-.1 0-.2-.01-.31-.04-.1-.02-.22-.05-.34-.14l.26-.3zm-6.5 3.4c.05.08.07.17.05.27 0 .09-.05.17-.1.23a.63.63 0 0 1-.45.22l.1-.22.13-.17.11-.14c.07-.06.1-.1.16-.19zm-.04-1.02c.05.01.1.05.13.1a.4.4 0 0 1 .04.18c0 .06-.01.11-.04.18-.02.07-.08.1-.11.14-.1.08-.2.14-.3.17l-.07.03-.07.03a.25.25 0 0 0-.09.08c-.12.13-.2.31-.29.5-.05.1-.1.2-.18.3a.56.56 0 0 1-.4.23v-.4h.05c.03 0 .05-.04.07-.07l.18-.22c.11-.17.2-.38.4-.54.05-.04.1-.08.17-.1l.1-.03.07-.03c.1-.02.2-.05.28-.1l.1-.08a.25.25 0 0 0 .07-.12c-.02-.06-.02-.17-.1-.25z"/>
        </g>
        <path fill="#f6f6f6" d="M77.16 65.57s-.63.18-1.16.43c-.52.24-1.78.05-1.96-.3-.1-.24.02-1.11.42-1.22.5-.22.95-.18 1.64.24.66.42 1.04.85 1.06.85z"/>
        <g stroke="none" fill="#000">
          <path d="M74.06 65.77c-.17.02-.35.06-.52.1l-.51.13-.03-.04c.15-.12.3-.2.46-.3l.47-.27.13.38zm-3.73.47c0-.1.04-.2.08-.3a.92.92 0 0 1 .17-.21.78.78 0 0 1 .24-.17c.09-.04.2-.07.3-.04l.01.05-.16.2-.17.2-.2.15a.6.6 0 0 1-.27.12zm8.02-1a3.71 3.71 0 0 0-.37-.3c-.13-.1-.26-.16-.4-.22-.14-.07-.28-.1-.42-.16-.15-.05-.3-.08-.46-.14v-.04c.33-.07.68-.03 1 .11.15.07.3.17.41.3.1.14.2.3.24.45zm-5.57.16c-.1.12-.2.2-.31.27l-.3.25c-.08.08-.19.16-.3.24-.1.08-.2.16-.33.23l-.06-.02a1.2 1.2 0 0 1 .46-.75c.12-.1.25-.16.4-.2.14-.05.3-.06.44-.03zm3.4 3.16c.06-.36.11-.7.22-1.05.1-.34.26-.7.52-.97.25-.29.59-.5.94-.6.36-.12.72-.14 1.08-.1v.06c-.34.1-.67.2-.97.34-.3.14-.56.32-.77.56-.23.24-.38.52-.54.83-.13.31-.26.64-.47.93zm-1.25-3.97c.17 0 .18.15.2.52 0 .1 0 .2-.03.28-.04.23-.01.39-.13.39-.13 0-.4-.17-.45-.42l-.02-.25a.49.49 0 0 1 .43-.52z"/>
        </g>
      </g>
    </g>
    <g stroke="none" fill="#000">
      <path d="M84.64 85.91c-.1.1-.21.13-.3.17a.88.88 0 0 1-.32.06c-.1 0-.2 0-.31-.03a.84.84 0 0 1-.32-.14c.1-.1.21-.14.3-.17a1.32 1.32 0 0 1 .63-.03c.1.03.21.06.32.14zM86 84.24c.06.02.1.1.12.18a.42.42 0 0 1-.04.22.6.6 0 0 1-.33.3.9.9 0 0 1-.37.02l-.35-.08c.06-.12.2-.19.3-.24l.29-.09c.06-.03.13-.05.2-.1.07-.03.15-.07.18-.21z"/>
    </g>
  </g>
</svg>
