<svg xmlns="http://www.w3.org/2000/svg" fill="#d7374a" stroke="#000" viewBox="50 50 200 200">
  <metadata source="http://wappenwiki.org/images/0/0d/Riddell.svg" license="https://creativecommons.org/licenses/by-nc-sa/3.0"/>
  <g id="wheatStalk" stroke-width=".5">
    <g>
      <path class="secondary" stroke-linejoin="round" d="M100.26 120.8a22.77 22.77 0 0 0-3.18-6.21 13.02 13.02 0 0 0-6.83-5.15c-.64-.18-1.5-.58-2.01.08-.14.18-.2.38-.32.58-.24.4-.65.67-.97 1a3.02 3.02 0 0 0-.62 3.08c.24 1.03 1.6 3.26 2.11 4 .64.97 1.37 1.87 1.97 2.88 1.08 1.83 2.8 4.44 2.47 8.82a9.72 9.72 0 0 0 .95-7.52 41.83 41.83 0 0 0-3.6-9.18c.78.46 1.75.96 3.07 2.19 1.93 1.79 4.55 4.76 5.83 8.1"/>
      <g stroke="none" fill="#000">
        <path d="M90.07 113.38a5.87 5.87 0 0 0-1.3-.6 1.35 1.35 0 0 0-.63-.04.52.52 0 0 0-.22.14l-.2.28c-.12.18-.18.4-.18.62s.06.46.16.67l.34.66c.12.22.2.48.2.74-.2-.48-.56-.8-.83-1.28a2.1 2.1 0 0 1-.24-.79c-.02-.28.06-.58.18-.84l.23-.36c.1-.12.24-.22.4-.29.32-.1.62-.06.88 0 .26.07.52.17.77.29.24.1.46.24.68.36l-.24.44z"/>
        <path d="M88.48 112.58a12.06 12.06 0 0 1 .82 1.48 51.66 51.66 0 0 1 1.33 3.1 11.46 11.46 0 0 1 .5 1.6c-.18-.52-.4-1.04-.62-1.54l-.74-1.5a34.21 34.21 0 0 0-1.71-2.86l.42-.28zm5.5 1.36a14.95 14.95 0 0 1 5.74 8.14c-.4-.74-.79-1.48-1.21-2.19a30.84 30.84 0 0 0-2.85-4.06l-1.67-1.89z"/>
      </g>
    </g>
    <path class="secondary" d="M100.82 109.04s.18 8.02.62 16.04c.19 3.21-.04 6.25.02 8.5.06 2 .29 3.38.17 3.76a3.57 3.57 0 0 1-1.07 1.67c-.96.88-2.2 1.18-2.17.48.84-4.14.78-30.43.78-30.43"/>
    <path d="M97.77 80.84c1.85.56 3.88.32 5.7 1 .4.16.85.39.99.8.08.23.08.47.06.7-.06.77-.16 1.54-.34 2.3-1.57 6.74-1.59 13.55-1.2 20.46.01.29.03.59-.07.87-.08.28-.26.5-.44.72-.54.7-1.19 1.45-2.07 1.61a3.42 3.42 0 0 1-1.35-.12c-.66-.14-1.34-.3-1.8-.8a2.65 2.65 0 0 1-.55-1.37c-.26-1.91.32-3.82.56-5.71.22-1.7.18-3.44.16-5.17-.04-4.24.12-8.48.29-12.72"/>
    <g stroke-width=".4">
      <path d="M100.02 60.36c.26.52.24 1.04.3 1.54l.14 1.55.24 3.12.16 3.11c.04 1.05.04 2.07-.04 3.12a.8.8 0 0 1-.86.72.8.8 0 0 1-.73-.72c-.1-1.05-.08-2.07-.04-3.12l.16-3.11c.06-1.05.14-2.07.25-3.12l.14-1.55c.04-.5.02-1.02.28-1.54zM94.1 83.33c-.16-.42-.34-.86-.42-1.27l-.16-.62-.13-.62c-.1-.42-.16-.83-.22-1.23-.08-.4-.12-.82-.16-1.22a133.3 133.3 0 0 1-.64-14.72c0-.04.04-.08.08-.08s.08.04.08.08l.46 4.87a95.56 95.56 0 0 0 1.3 9.65l.25 1.18.28 1.17.16.56.18.54c.1.38.28.69.43 1.03l.04.1a.82.82 0 1 1-1.53.64v-.06zm.22 7.92-.32-.5-.3-.5-.27-.53-.22-.52c-.12-.34-.28-.7-.38-1.05l-.32-1.04c-.38-1.4-.64-2.81-.86-4.24a75.86 75.86 0 0 1-.79-8.52c0-.04.04-.08.08-.08s.08.02.08.06l.34 2.1.37 2.1c.24 1.38.52 2.77.84 4.14.32 1.36.7 2.73 1.17 4.02l.38.96c.12.32.28.63.42.93.06.16.14.3.24.44l.24.42.28.38.29.36.08.1a.8.8 0 0 1-.17 1.15.8.8 0 0 1-1.14-.16c-.02.02-.04 0-.04-.02zm.64 8.2a16.9 16.9 0 0 1-2.13-3.86c-.56-1.32-1-2.7-1.4-4.06a41.83 41.83 0 0 1-1.6-8.38c0-.04.05-.08.09-.1.04 0 .08.02.08.06a67.88 67.88 0 0 0 2.33 8.1A35.98 35.98 0 0 0 94 95.03a17.27 17.27 0 0 0 2.23 3.38.82.82 0 0 1-1.25 1.08c.02-.02 0-.02-.02-.04zm.73 6.65a21.44 21.44 0 0 1-2.58-3.45 21.9 21.9 0 0 1-1.77-3.9 29.65 29.65 0 0 1-1.04-4.08l-.74-4.1c0-.04.02-.08.06-.1.04 0 .08.02.1.06.42 1.32.76 2.67 1.16 4 .38 1.32.83 2.63 1.37 3.88a19.62 19.62 0 0 0 4.6 6.55.84.84 0 0 1 .04 1.16.84.84 0 0 1-1.16.04l-.04-.06zm7.17-30.05c.36-1.16.64-2.37.9-3.6a109.24 109.24 0 0 0 1.73-11.15c0-.04.04-.08.1-.08.05 0 .09.04.09.08.04.64.04 1.27.04 1.9a59.25 59.25 0 0 1-.27 5.66c-.1 1.27-.22 2.51-.36 3.78a41.43 41.43 0 0 1-.6 3.8.82.82 0 0 1-.99.62.82.82 0 0 1-.62-.99c-.04.04-.02.02-.02-.02zm-1.97-3.61c.3-.93.54-1.9.75-2.86a47.17 47.17 0 0 0 .92-5.9l.3-3.02c0-.04.04-.08.1-.08.04 0 .08.04.08.08.1 1 .12 2.03.14 3.03a51.86 51.86 0 0 1-.7 9.19.84.84 0 0 1-.97.64.84.84 0 0 1-.64-.96l.02-.12zm-5.28 4.04a36.34 36.34 0 0 1-.6-3.8 126.07 126.07 0 0 1-.59-7.56 59.25 59.25 0 0 1 0-3.78c0-.04.04-.08.1-.08.04 0 .08.04.08.08a78.9 78.9 0 0 0 1.03 7.46c.22 1.22.44 2.47.7 3.7.26 1.22.54 2.43.9 3.6a.8.8 0 0 1-.54 1.02.8.8 0 0 1-1.02-.54l-.06-.1z"/>
      <path d="M97.6 72.86a37.39 37.39 0 0 1-.66-6.13c-.04-1.03-.04-2.03-.04-3.06.02-1 .06-2.03.14-3.03 0-.04.04-.08.1-.08.04 0 .08.04.08.08l.3 3.01a48.08 48.08 0 0 0 1.67 8.77c.14.44-.1.9-.52 1.04a.83.83 0 0 1-1.04-.52l-.02-.08zm6.84 9.77c.14-.34.3-.67.42-1.05l.18-.56.16-.58c.12-.39.2-.79.28-1.19l.25-1.2a95.13 95.13 0 0 0 1.3-9.81l.46-4.95c0-.04.04-.08.1-.08.05 0 .09.04.09.08a137.7 137.7 0 0 1-.65 14.96l-.16 1.24c-.06.42-.12.85-.22 1.25l-.12.62-.16.64c-.1.43-.28.87-.42 1.3a.8.8 0 0 1-1.05.47.8.8 0 0 1-.48-1.04l.02-.04v-.06zm0 7.58.28-.37.28-.38.24-.42.24-.44c.15-.3.3-.6.43-.93l.38-.96c.48-1.3.84-2.66 1.16-4.02.33-1.37.6-2.76.85-4.14l.36-2.1.34-2.1c0-.04.06-.08.1-.06.04 0 .08.04.06.08a76.3 76.3 0 0 1-.78 8.52c-.22 1.4-.48 2.83-.87 4.24l-.32 1.04c-.1.35-.26.7-.38 1.05l-.22.52-.26.53c-.08.18-.2.34-.3.5l-.32.5a.84.84 0 0 1-1.15.24.84.84 0 0 1-.24-1.14l.04-.04.08-.13zm-.66 8.2a17.27 17.27 0 0 0 2.23-3.38 32.28 32.28 0 0 0 1.67-3.82 51.68 51.68 0 0 0 2.33-8.1c0-.04.06-.08.1-.06.04 0 .08.04.06.08a43.54 43.54 0 0 1-1.59 8.38 33.47 33.47 0 0 1-1.4 4.06 19.7 19.7 0 0 1-2.14 3.86.8.8 0 0 1-1.14.16.8.8 0 0 1-.16-1.14l.04-.04zm-.6 6.55a18.35 18.35 0 0 0 4.6-6.55 35.4 35.4 0 0 0 1.36-3.88c.4-1.33.75-2.68 1.17-4a.11.11 0 0 1 .1-.06c.04.02.06.06.06.1-.24 1.36-.46 2.73-.74 4.1-.29 1.36-.6 2.73-1.05 4.08a19.4 19.4 0 0 1-4.34 7.35.82.82 0 0 1-1.23-1.1l.06-.04z"/>
    </g>
    <path d="M100.68 80.03s2.17-3.51 1.75-7.31c-.4-3.6-2.41-5.2-2.41-5.2s-2.01 1.6-2.41 5.2c-.43 3.78 1.74 7.31 1.74 7.31m.67 28.45c.5-3.06 3.33-4.7 5.85-5.77.56 1.79-.1 4.12-1.09 5.7a6.61 6.61 0 0 1-4.74 2.84c-1.47 0-3.76-1.25-4.75-2.83-.98-1.6-1.64-3.92-1.08-5.71 2.47 1.06 5.3 2.71 5.8 5.77"/>
    <path d="M100.02 102.75c0-3.18 2.4-5.77 5.87-6.8.66 1.75.12 4.1-.79 5.75a10.4 10.4 0 0 1-5.08 3.86 10.51 10.51 0 0 1-5.09-3.86c-.9-1.63-1.45-4-.78-5.75 3.46 1.03 5.87 3.64 5.87 6.8"/>
    <path d="M100.02 95.57c0-2.09 1.8-4.54 5.89-6.67.72 1.73.28 4.08-.57 5.75A11.74 11.74 0 0 1 100 99a11.72 11.72 0 0 1-5.35-4.36c-.82-1.67-1.29-4.04-.56-5.75 4.12 2.1 5.93 4.58 5.93 6.67"/>
    <path d="M100.02 88.98c0-3.34 2.23-5.87 5.42-7.54a7.64 7.64 0 0 1-.08 5.77 11.42 11.42 0 0 1-5.34 5.05c-1.81-.75-4.36-2.82-5.35-5.05a7.46 7.46 0 0 1-.08-5.77c3.2 1.67 5.43 4.18 5.43 7.54"/>
    <path d="M100.02 81.72a9.25 9.25 0 0 1 3.86-7.4c.94 1.61 1.1 3.97.5 5.73a11.88 11.88 0 0 1-4.36 5.4 11.88 11.88 0 0 1-4.36-5.4 7.38 7.38 0 0 1 .5-5.72 9.25 9.25 0 0 1 3.86 7.4"/>
    <g stroke="none" fill="#000">
      <polygon points="100.28 102.75 100.02 104.6 99.78 102.75"/>
      <polygon points="100.26 95.57 100.02 98 99.76 95.57"/>
      <polygon points="100.26 88.98 100.02 91.25 99.76 88.98"/>
      <polygon points="100.26 81.72 100.02 84.46 99.76 81.72"/>
      <polygon points="100.28 108.48 100.02 109.5 99.78 108.48"/>
    </g>
    <g>
      <path class="secondary" stroke-linejoin="round" d="M100.36 122.53c.82-1.61 2.61-3.82 4.36-5.45a12.78 12.78 0 0 1 7.74-3.66c.66-.06 1.6-.26 1.95.48.1.2.12.42.18.63.16.44.5.78.74 1.18a3.02 3.02 0 0 1 0 3.14 19.84 19.84 0 0 1-2.85 3.5c-.82.82-1.73 1.54-2.5 2.4-1.42 1.6-3.63 3.8-4.17 8.15a9.59 9.59 0 0 1 .58-7.54 43.74 43.74 0 0 1 5.37-8.28c-.87.28-1.9.58-3.46 1.53a23.42 23.42 0 0 0-7.34 6.77"/>
      <g stroke="none" fill="#000">
        <path d="m111.68 116.84.74-.22c.26-.06.52-.1.8-.12.28 0 .59.02.87.18.14.08.26.22.34.36l.16.38c.08.26.1.58.02.86s-.22.53-.38.73c-.34.42-.77.66-1.07 1.08.06-.26.2-.48.36-.7l.47-.58c.14-.18.24-.4.28-.63.04-.22.02-.44-.06-.64l-.14-.3a.4.4 0 0 0-.18-.18 1.4 1.4 0 0 0-.6-.1 7.1 7.1 0 0 0-1.41.32l-.2-.44z"/>
        <path d="M113.89 117.2a21.27 21.27 0 0 0-2.25 2.43 16.62 16.62 0 0 0-1.03 1.33 16.62 16.62 0 0 0-.92 1.38 33.95 33.95 0 0 1 1.74-2.87l1-1.37c.35-.44.71-.88 1.11-1.28l.35.38zm-6.01-.12c-.69.5-1.35.98-2 1.5a36.12 36.12 0 0 0-3.6 3.4c-.55.63-1.08 1.25-1.62 1.91a15.12 15.12 0 0 1 7.22-6.81zm-2.86-12.26a3.22 3.22 0 0 1-.32 1.97 3.34 3.34 0 0 1-1.37 1.46 7.18 7.18 0 0 0 1.45-2.47l.24-.96zm.22-6.2c.06.23.08.47.06.71a2.7 2.7 0 0 1-.5 1.3c-.14.19-.3.37-.5.49l.3-.6.26-.6.2-.63.18-.66zm.1-7.17c.06.3.06.62.02.93a3.58 3.58 0 0 1-.76 1.7c-.2.25-.44.45-.7.6l.52-.74a5.89 5.89 0 0 0 .72-1.6l.2-.89zm-.52-7.1a3.1 3.1 0 0 1-.34 2.54c-.16.24-.36.46-.58.64.14-.26.28-.5.38-.76.12-.26.2-.5.28-.79a8.82 8.82 0 0 0 .26-1.62zm-1-6.79c.12.3.18.63.18.95a3.96 3.96 0 0 1-.49 1.87 2.21 2.21 0 0 1-.64.72 4.66 4.66 0 0 0 .73-1.7c.08-.31.12-.61.16-.91.04-.28.06-.6.06-.93zm-3.26-7.31a4.42 4.42 0 0 1 .84 3.92l-.06-1.03a7.74 7.74 0 0 0-.16-.98c-.06-.33-.16-.65-.26-.97l-.36-.94zm-2.63 7.37a3.02 3.02 0 0 1 .72 1.05c.08.2.14.4.16.62.04.2.04.42.02.64-.1-.2-.18-.38-.24-.58l-.22-.56-.22-.56-.22-.6zm-.3 7.46c.26.2.5.44.68.72a4.72 4.72 0 0 1 .68 1.87c.06.32.1.67.1.99l-.32-.95-.3-.92c-.1-.3-.22-.6-.36-.89-.12-.26-.3-.52-.48-.82zm.16 7.58c.24.12.44.3.6.5.16.2.3.44.42.68.1.24.18.5.24.75.06.26.1.5.1.78-.12-.24-.24-.46-.32-.7l-.3-.7c-.1-.23-.2-.47-.32-.67a4.42 4.42 0 0 0-.42-.64zm-.35 6.4c.25.15.47.33.65.53a4.18 4.18 0 0 1 .8 1.47c.08.26.12.54.1.82a20.9 20.9 0 0 1-.32-.74c-.12-.24-.22-.48-.36-.7l-.4-.69-.47-.68zm.1 6.9a2.9 2.9 0 0 1 1.15 1.09c.14.22.26.46.32.72.08.26.12.53.12.79l-.34-.69-.36-.66a4.25 4.25 0 0 0-.42-.62l-.47-.63z"/>
      </g>
    </g>
    <path class="secondary" d="M100.02 110.93c-1.15 0-1.73-.24-2.15-.38.02.4.22.94.56 1.22.4.34 1 .55 1.6.52.59.02 1.2-.16 1.62-.52.34-.28.52-.84.56-1.22-.46.16-1.05.38-2.2.38z"/>
    <g stroke="none" fill="#000">
      <path d="M101.16 125.5a4.1 4.1 0 0 0-.7 1.65 3.74 3.74 0 0 1 .28-1.9l.42.25zm-.58-2.87a6.63 6.63 0 0 0-.78 1.7c.02-.32.04-.64.1-.96.06-.32.12-.64.24-.96l.44.22zm.56 14.6a3.22 3.22 0 0 0-.42-.1c-.14 0-.24 0-.36.07-.2.08-.4.3-.54.5a6.43 6.43 0 0 0-.39.75c-.14.26-.26.54-.48.76.1-.28.14-.56.22-.85l.12-.42c.04-.14.1-.28.2-.44l.33-.38c.12-.1.28-.2.46-.24a.7.7 0 0 1 .5.06c.16.08.28.18.36.3z"/>
    </g>
  </g>
</svg>
