<svg xmlns="http://www.w3.org/2000/svg" fill="#d7374a" stroke="#000" viewBox="50 50 200 200">
  <metadata source="http://wappenwiki.org/images/7/7e/Louvel.svg" license="https://creativecommons.org/licenses/by-nc-sa/3.0"/>
  <g id="wolfStatant" stroke-width=".36">
    <path class="secondary" d="M104.28 122.06c.02.02-1.68.94-1.86 2.6-.02.25-.04.8.08.8.1.02.16-.27.64-.6.75-.38 1.78-.45 2.5-1.02"/>
    <path class="secondary" d="M109.3 126.74c-.7.6-1.72.71-2.45 1.11-.48.35-.54.63-.62.63-.13 0-.13-.55-.12-.8.12-1.68 1.78-2.65 1.77-2.66"/>
    <path class="secondary" d="M107.53 125.2c-.7.59-1.71.7-2.45 1.11-.48.35-.54.63-.62.63-.13-.01-.13-.56-.12-.8.12-1.68 1.78-2.66 1.77-2.67"/>
    <path class="secondary" d="M73.4 124.55c.02.03-1.68.94-1.86 2.6-.02.25-.03.8.09.81.1.01.15-.27.64-.6.75-.38 1.78-.46 2.5-1.03"/>
    <path class="secondary" d="M78.28 129.22c-.7.6-1.71.71-2.45 1.12-.47.34-.53.63-.62.63-.13-.02-.13-.56-.12-.81.12-1.68 1.79-2.65 1.77-2.66"/>
    <path class="secondary" d="M76.64 127.68c-.7.59-1.71.7-2.45 1.11-.47.35-.53.63-.62.63-.13-.01-.13-.56-.11-.8.11-1.68 1.78-2.65 1.76-2.67"/>
    <path class="secondary" d="M122.68 124.55c0 .03-1.69.94-1.87 2.6-.02.25-.03.8.09.81.1.01.15-.27.64-.6.75-.38 1.78-.46 2.5-1.03"/>
    <path class="secondary" d="M127.69 129.22c-.69.6-1.71.71-2.45 1.12-.47.34-.53.63-.62.63-.13-.02-.13-.56-.11-.81.11-1.68 1.78-2.65 1.77-2.66"/>
    <path class="secondary" d="M125.9 127.68c-.68.59-1.7.7-2.44 1.11-.47.35-.53.63-.62.63-.13-.01-.13-.56-.12-.8.12-1.68 1.79-2.65 1.77-2.67"/>
    <path d="M121.76 104.22c.68 3.73-.27 4.11-.6 6.15-.2 1.2.75 3.38-.06 4.28-.51.58-3.28 2.34-3.93 2.75-2.58 1.7-2.66 4.26-2.76 4.85-.1.6-.89 1.32-1.46 1.94-.57.61-.75 1.92-1.85 2.35-1.1.42-1.77.47-2.02.27.07-.37-.24-.78-.68-1.16-.89-.62-1.27-.2-1.27-.2s0-.79-.76-1.34c-.6-.39-.86-.2-.86-.2s-.04-.6-.6-1.11c-.77-.7-1.1-.42-1.1-.42s-.24-.42.16-.9c.3-.28.37-.24.65-.3.27-.06.19 0 .67-.19.94-.47 1.94.6 3.32-.19 1.05-.83 1.1-1.69 2-2.5.3-.29.24-.53.57-.78a13 13 0 002.6-2.93c.63-.96 1-1.5.76-2.64-.35-1.68-2.28-3.18-3.16-4.65a7.82 7.82 0 01-.58-6.45"/>
    <path class="secondary" d="M70.5 112.44c-1.1-.19-1.9 1.06-.45 1.49.62-.34 1.32.64 1.46.41.19-.68-.26-1.58-1.01-1.9z"/>
    <path class="secondary" d="M66.63 120.37c.02 0 .57 1.9 2.2 2.44.24.08.78.21.83.1.03-.1-.24-.22-.47-.78-.21-.83-.07-1.88-.48-2.72"/>
    <path class="secondary" d="M69.56 118.22c.44.82.34 1.88.58 2.7.25.56.52.68.49.76-.04.12-.58.01-.83-.06-1.65-.49-2.27-2.36-2.28-2.35"/>
    <path class="secondary" d="M70.74 116.82c.44.82.34 1.88.58 2.7.25.56.52.68.49.76-.04.12-.59.01-.84-.06-1.65-.49-2.26-2.36-2.28-2.35"/>
    <path fill="none" d="M67.84 120s0 0 0 0 .03-.03 0 0z"/>
    <path d="M76.16 97.56s-2.3 1.64-2.79 3.28c-.88 1.69-2.47 1.38-4.02 2.87-.26.3-1.29.79-1.64.96-.77.35-.06.06-1.06.52-.34.15-.98.53-1.22.83-.33.45-.8.74-.94 1.16-.3.93-.02 2.17.4 2.95.51.9 1.06 2.45 1.21 3.34s-.47 1.24-.1 2.82c.32 1.36-.64 2.15-.37 3.2.08.52.05.43.04.72 0 .28-.06.35.15.7.4.53 1.22.38 1.22.38s-.33-.53.29-1c.33-.24.46-.3.5-.32-.02-.06-.07-.36.4-.8.71-.65.76-.44.76-.44s-.34-.47.46-1.23c.48-.34.95-.58 1.31-.43.76-1-.53-1.24-.6-2.38-.02-.35.05-.68.05-.68-.35-.67-.17-1.18.51-1.4 0 0-.1-.44-.67-1.4-.23-.37-.67-.86-.67-1.49 0-.46.72-.77.72-.77 1.05-.51 1.94-.06 4.04-.65 2.6-.79 4.23.28 6.76-1.45"/>
    <path fill="#fff" d="M62.35 81.23c.55 1.6 1.74 2.1 1.84 1.96.11-.14-.64-.73-.66-1.84"/>
    <path fill="#fff" d="M64.97 87.56c-.46-1.07.09-2.02.23-1.98.16.04-.02.87.6 1.63"/>
    <path class="tertiary" d="M71.5 83.5c-.99-.41-3.1-.96-4.25-.65-2.76.75-2.99 2.03-4.75 2.5-1.73.47-2.15-.84-2.43-.77-.13.1-.14.8.4 1.27.54.48 1.47.87 2.31.64 2.38-.64 2.5-1.87 4.79-2.49 1.22-.33 3.53.18 4.22.51"/>
    <path d="M80.43 71.86c-.06-.22-.35-1.77-.46-2-.15-.29-.38-.66-.72-.68-.42-.02-.5.14-.96.33-.29.16-1.5.51-2 1.07"/>
    <path d="M115.17 103.04s-1.34.3-2.14.63-2.2.98-3.45 1.85c-.26.18-.73.56-1.13.14-.18-.19-.26-.44-.08-.9.44-1.08 2.08-2.41 2.08-2.41"/>
    <path d="M80.5 106.6c-.79-1.38-2.67-.94-3.68-3.94-.35-.25-1.33-.2-1.62-.67-.22-.39-.12-.88-.63-1.59-.5-.83-.82-.78-1.26-1.38-.33-.4-.33-1.28-.45-1.66 0 0-.34-.34-.43-.98a.8.8 0 01-.16-.37c-.06-.31-.1-.7-.04-1 .04-.14.09-.27.06-.27 0 0-.22-.36-.38-1.4-.18-1.23.6-1.9.7-2.38.4-1.57-.02-1.8.49-2.86.33-.6.42-1.05.14-1.6-.12-.22-.39-.23-.57-.18-.72.2-.89.46-1.26.75-.21.16-.3.23-.55.27s-1.06 0-1.54.12c-.5.13-.97.32-1.42.56-.2.14-.36.27-.71.4a2.6 2.6 0 01-1.51.04 2.5 2.5 0 01-1.3-.79c-.13-.2-.26-.27.23-.35.6-.03 1.1-.02 1.82-.22.42-.12.93-.5 1.81-.76.88-.25 1.76.07 2.19-.19.3-.18.64-.46.5-.95-.09-.35-.38-2.82-2.6-3.42-1.46-.53-2.12 0-3.8-.14-1.48-.12-3.06-.51-3.2-.68-.34-.41-.5-1-.57-1.17-.07-.22-.5-.49-.7-1.07-.1-.33-.23-.64-.23-.93 0-.15.23-.4.56-.44.45-.15 1.32-.42 1.8-.53.5-.12 2.45-.67 4.1-1.32.84-.36.94-.8 1.54-.88.23-.21-.4-.87.53-1.27.25-.37.17-.45.4-.7.63-.6.68-.65 1.51-.91 5.13-1.63 8.86-1.03 8.86-1.03s3.26.4 3.43 3.67c1.37 1.05.82 2.93 3.35 3.7.07.06.03.5-.52.69-.18.06-.74.11-1 .07.25.1.85.45 1.68 1.18 1.42 1.26.54 2.44 3.76 3.45.04.14-.4.39-1 .56-.15.03-.47 0-.66.02.71.91 1.88 1.44 3.66 2.2 2.6 1.11 7.36 1.86 10.67 1.86 5.2 0 10.32-1.16 13.2-.53 5.28 1.15 8.07 3.8 11.45 6.16 1.48 1.06 3.86 3.24 5.74 4.88 1.52 1.33 3.38 2.89 4.82 4.74 2 2.6 2.42 5.07 2.45 7.33 0 1.28-.2 2.48-.8 3.76s-1.17 1.73-1.34 2.74-.08 2.1-1.6 3.41c-.48.42-1.06.54-1.16.46-.2-.14.6-1.4.79-2.1.18-.71.1-1.68.08-1.86-.24-.16-.35-.4-.5-.7a3.42 3.42 0 01-.41-1.9c.1-1.05 1.03-1.63 1.03-3.34-.06.1-.23 1-1 1.2.11-2.94-.82-3.93-1.16-4.26-.04.42-.35.96-.06 2.12-2.16-1.07-2.09-3.83-2.09-3.83s-.33 1.2-1.42 1.41c.77-2.64-1.03-2.97-1.13-5.2-.15-.06-.02 1.73-.73 2.22.33-3.38-1.62-5.42-2-7.77.8 2.3.05 8.34.85 9.97.8 1.64 1.32 2.32 2.48 2.43 1.12.1 1.9.18 2.46.94.6.93-.3 2.16-.4 3.8a62.4 62.4 0 00-.5 5.95c-.2 2.85.95 4.08.84 4.68-.1.6-.5 1.32-1.07 1.93-.57.62-.75 1.93-1.85 2.35-.88.35-1.65.57-2.02.28.07-.37-.24-.79-.68-1.17-.89-.61-1.27-.19-1.27-.19s0-.8-.76-1.34c-.59-.4-.86-.2-.86-.2s-.04-.6-.6-1.12c-.77-.69-1.1-.41-1.1-.41s-.24-.42.16-.9c.3-.28.37-.24.65-.3.27-.06.19 0 .67-.2.94-.47 1.55.6 2.92-.18.5-.4 1.01-1.6 1.04-3.74-.23-1.63-.68-4.05-1.19-4.72-.52-.66-.49-.83-2.26-1.48-1.77-.67-3.56-.08-6.43-3.78a15.57 15.57 0 01-2.3-3.74c-.59-1.32-.77-2.4-.77-2.4s-2.04-.45-3.18-.45c-1.54 0-3.54.44-5.33 1.23-7.07 3.12-4.45 1.74-9.73 3.37-2.43.77-5.65 1.11-7.13.62.44 3.04-.82 3.44-1.27 6.11-.4 2.15-1.2 2.78-1.32 4.93-.05.75-1.34 1.52-1.69 2.17-.27.52-.87 1.36-1.42 3.09-.1.6-1.04 1.73-1.6 2.35-.58.62-.81 1.8-1.93 2.22-1.1.43-1.65.42-1.9.22.07-.37-.24-.79-.68-1.17-.89-.62-1.27-.19-1.27-.19s0-.8-.76-1.34c-.6-.4-.86-.2-.86-.2s-.04-.6-.6-1.12c-.77-.69-1.1-.41-1.1-.41s-.24-.42.16-.9c.3-.28.37-.24.64-.3.28-.06.2 0 .68-.2 1.28-.72 1.75.77 3.39-.36.21-.16.22-.48 1.15-1.37.89-1 .63-.9 1.23-2.18.15-.3 1.45-1.71 1.5-2.03.06-.4.22-1.52.12-1.9-.37-2.14.77-3.28-.14-4.94-1.05-1.33-1.12-4.16-1.12-4.16z"/>
    <path stroke="none" d="M80.23 76.02c1.46-0.32 3.88-2.64 3.26-5.22-0.08-0.32-0.23-0.72-0.56-0.82-0.4-0.12-0.52 0.04-1.01 0.12-0.32 0.08-0.88 0.01-1.9 0.3-1.59 0.43-2.28 1.06-2.28 1.06"/>
    <path fill="none" d="M89.26 108.1c0-.63.11-1.42.98-2.27"/>
    <path fill="#fff" stroke-width=".29" d="M70.32 75.68s-.3.38-.57.55-.68.13-.8-.04c-.08-.12-.17-.68.04-.78.18-.11 1.33.27 1.33.27z"/>
    <g fill="#000" stroke="none" transform="translate(52.5 51.56) scale(.1188)">
      <path d="M193.6 464.5c-2.5 2.58-5.82 2.27-8.8 1.2 2.54-2.57 5.86-2.39 8.8-1.2zm17.9-3.4c-3.45 3.93-8.72 4.22-13.1 2.6 4.16-2.01 8.8-2.5 13.1-2.6zm-72 16.5c1.91 6.45-3.8 9.97-9.2 10.5 3.47-3.42 7.02-6.46 9.2-10.5zm-13.8 48.2a95.6 95.6 0 01-2.2-9.7c3.22 2.51 3.52 6.46 2.2 9.7zm-3.5 1.1c-.68-3.47-1.2-7.4-1.7-10.8 3.32 3.06 3.44 7.05 1.7 10.8zm25.6-8.5h.5c4.12.77 7.47 4.06 9.7 6.9l-.2.1.1-.1c-3.47-3.01-6.3-4.89-10.2-5zm-17.22 33.17c3.37-4.96 7.65-8.01 13.22-9.37-5.33 2.08-8.61 6.12-11.1 11.1zm26.62 24.13c-5.03-4.12-6.29-10.31-5.7-16.3 1.6 5.49 3.52 11.3 5.7 16.3zm-36.7-13.2c2.75-3.94 6.22-7.59 10.5-9.4-4.1 2.47-6.09 6.9-8 10.9zm17.77 4.51c-10.55-3.43-7.38-16.02-7.07-24.2-.04-2.9-.71-5.57-2.1-8 2.9 2 3.54 4.79 4 7.9.42 8.26-3.1 18.74 5.92 21.63zm-10.57 10.4c-5.66-3.01-7.03-7.9-7.1-13.6-.38-4.44 1.1-8.63 1.1-12.9-.15-2.73-.4-5.5-.9-7.9l.9 1.8c.99 1.83 1.33 4 1.7 5.9-.06 5.37-.32 8.3-.3 13-.14 5.41 1.67 8.12 6 10.8zm-18.2.4c1.7-5.52 7.32-7.93 12.1-9.8-4.17 2.64-8.06 5.18-9.1 10zm38.6 10.3c-5.03-4.12-6.29-10.32-5.7-16.3 1.6 5.48 3.52 11.3 5.7 16.3zm-9.6 9.2c-4.55-4.74-4.85-9.95-3.47-15.83.92 5.57 1.86 10.2 3.47 15.82z"/>
      <path d="M291.7 510.6c1.28 3.7-1.9 6.6-4.3 8.7-1.3-3.73 2-6.63 4.3-8.7zm3.4-12.4c1.82 3.17.65 6.26-1.3 8.8-1.88-3.23-.56-6.18 1.3-8.8zm.3-21c4.48 4.91 3.64 11.45.3 16.5-.15-5.71-.2-11.18-.3-16.5zm-82.9 153.7a22.46 22.46 0 0112 11.1 22.95 22.95 0 00-12.8-8.3zm-48.4 5c3.46-5.3 9.54-7.02 15.3-6.9-5.14 2.17-10.72 4.35-15.3 6.9zm31 25.8c2.86-5.69 8.43-8.25 14.3-8.9a136.56 136.56 0 00-14.3 8.9zm-15.3-12c2.86-5.69 8.43-8.25 14.3-8.9a137.88 137.88 0 00-14.3 8.9zm19.8-30.6c5.49 2.18 8.49 6.08 11 11.1-3-4.62-7.76-7.12-13.05-8.51zm.2 22.8c1.6-8.2 7.56-9.42 12.8-11.4 5.54-2.1 9.37-6.92 14.6-9.2-4.79 5.43-9.5 10.02-15.5 12.4-.7.1-1.5.4-2.1.6-3.95.94-6.29 4.47-6.6 8zm-14-12.8c1.83-6.96 7.5-8.88 13.8-10 5.66-1.12 10.73-2.88 15.1-6.3-3.22 4.99-9.32 7.23-14.7 8.4-5.3.95-10.24 3.25-11.3 8.5zm-5.9-23.3c5.76.55 10.39 4.95 13.4 9.3-3.92-3.67-8-6.87-13.11-6.82zm47.1 2.6c1.83-2.66 4.16-5.52 6.2-7.9.11 4.24-2.67 6.83-6.2 7.9zm-3-2c2.22-2.74 4.76-5.76 7.1-8.3-.63 4.52-3.15 7.1-7.1 8.3z"/>
      <path d="M519.6 566.9c.46-4.46 3.13-7.83 5.9-10.8 8.9-9.27 22.29-13.36 27.3-24.5-3.54 13.1-18.06 17.97-26.3 25.4-2.9 2.86-6.26 6.06-6.9 9.9zm-48.1 44.2a22.46 22.46 0 0112 11.1c-3-4.62-7.5-6.9-12.8-8.3zm-48.4 4.9c3.46-5.3 9.54-7.02 15.3-6.9-5.15 2.16-10.67 4.36-15.3 6.9zm31.1 25.9c2.86-5.69 8.43-8.25 14.3-8.9-4.9 2.7-10.02 5.74-14.3 8.9zm-15.3-12c2.86-5.69 8.43-8.25 14.3-8.9-4.9 2.7-10.02 5.74-14.3 8.9zm19.36-31.2c5.49 2.18 8.83 5.59 11.34 10.6-3.7-4.6-7.75-7.4-12.8-8.73zm.64 23.4c.51-5.28 4.46-9.04 9-10.4 8.78-1.77 12.4-7.6 18.4-10.2-4.53 5.82-11.02 11.53-17.6 13-3.95.94-6.29 4.47-6.6 8zm-14-13.9c.4-1.5 1-3 1.9-4.3 2.9-4.15 7.41-4.9 11.9-5.7 5.66-1.12 10.73-2.88 15.1-6.3-3.22 4.99-9.32 7.22-14.7 8.4-5.21.88-10.2 3.08-11.3 8.5zm-6-23.3c5.76.55 10.39 4.95 13.4 9.3-3.92-3.67-8.18-6.86-13.3-6.82zm50 2.8c1.6-2.85 3.37-6.04 5.1-8.7.62 4.03-1.84 7.04-5.1 8.7zm-3.3-1.6c1.84-3.02 4.13-6.35 6.2-9.1.29 4.5-2.4 7.54-6.2 9.1z"/>
      <path d="M627.3 632c5.49 2.18 8.63 6.08 11.14 11.1-3-4.62-8.45-7.42-13.74-8.81zm-14.33-12.38a20.75 20.75 0 0111.57 10.58c-3-4.62-8.28-7.08-13.57-8.47zm.77 23.38c.36-3.63 2-6.23 4.5-8.5 3.05-2.61 10.62-2.8 22.9-12.1-5.08 8.12-16.44 11.88-21 14.5-2 1.4-3 3.9-3.2 6.5zm-14-13.9c.84-3.34 2.87-5.72 5.3-7.6 6.42-3.62 15-2 23.6-8.7-4.86 7.66-14.82 7.45-22.2 10.8a9.9 9.9 0 00-3.8 6.1zm-5.9-22.78c5.76.55 10.4 4.44 13.4 8.79-3.92-3.68-8.08-6.25-13.2-6.2zm47.1-2.02c.74-3.12 1.62-6.67 2.6-9.6 1.77 3.78.28 7.2-2.6 9.6zm-3.6-.7c1.02-3.36 2.28-7.2 3.5-10.4 1.46 4.15-.41 8.05-3.5 10.4zm21.6-50.4c-4.08 11.93-1.31 23.92-1.3 35.7-3.44-12.63-4.66-24.12 1.3-35.7zm-11.9-49.3c.2 7.79 5.97 10.23 10.4 14.1-7.63 1.07-14.35-6.85-10.4-14.1zm-35.1-87.6c-.71-28.11-9.94-57.15-31.4-75.8 24.4 15.84 35.46 48.3 31.4 75.8zm-52.3 30.5c9.42 16.63 8.92 36.86-3.8 50.99 8.05-16.55 8.88-33.17 3.8-50.98zm18.4 190.1c3.46-5.3 9.55-7.01 15.3-6.9-5.15 2.16-10.67 4.37-15.3 6.9zm31 25.9c3.37-5.63 8.54-8.25 14.3-8.9a145.71 145.71 0 00-14.3 8.9zm-15.3-12c2.86-5.68 8.43-8.24 14.3-8.9a137.88 137.88 0 00-14.3 8.9z"/>
      <path d="M653.1 414.3c-3.17 4.91-3.56 9.66-4.1 15.2l-3.23-.06c1.46-5.68 3.04-11.13 7.33-15.14zm15.7 16.1c-2.73 10.71 2.85 21.4 1.5 31.7l-2.9-.6c2.77-9.96-3.75-21.93 1.4-31.1zm17.29 46.04c-1.54-7.19 5.15-17.37-.5-23.24 5.7 5.2 3.46 15.79 3.3 22.3-.91-1.5-1.41-.58-2.8.94zm17.61 24.81c1.94-7.15 1.91-15.11 1.2-22a52.69 52.69 0 011.8 22.6zm-.7 49.95c-.56-15.38 4.47-28.49 14.9-37.3l.2.2c-11.8 11.51-11.59 22.97-12.3 37.4zm-90.8-192.6c6.86 6.21 11.3 15.07 13.9 23.5l-2.9.8c-2.26-8.66-4.78-17.99-11-24.3z"/>
      <path d="M467.3 421c5.33-.7 10.79-.47 15.8.1-5.08 3.54-11.1 2.8-15.8-.1zm-20.2 3.9c3.87-3.42 9.02-2.46 13.3-3.6-2.33 3.92-9.44 4.32-13.3 3.6zm-23 3c4.1-2.24 8.62-2.96 13-3-3.58 4-8.28 4.62-13 3zm-88.7 17.9c4.04.18 3.9 2.95 10.8 2.8 3.34-.71 6.77-3.82 8.9-6.9 7.4 2.86 14.39-.75 20.3-2.5 8.29-1.21 16.7 3.55 23.7-1.2 4.08-5.39 11.92-7.84 18.5-8.6-6.37 2.86-12.93 4.68-17 10.2-7.08 6.41-16.74 1.63-24.8 2.6-7.27 2.79-13.19 4.75-20.6 2.2l1.4-.6c-2.49 3.47-5.89 6.42-10.4 6.5-7.84.43-7.08-3.43-10.8-4.5zm-98-34.6c-2.98 5.22-3.75 11.04-3.4 16.5.95 9.65 5.06 17.03 4.2 26.4-.3 3.2-.8 6.2-.9 9.2l-3-.2c.3-3.2.8-6.3 1.2-9.3 1.44-8.95-3.05-18.3-3.2-26-.04-6.08 1.4-12.22 5.1-16.6zm79 45.3c8.24-9.94 8.19-24.44 5.9-36.1 4.55 11.83 4.9 28.93-3.9 38.3zm190-72.3c14.36 13.96 13.42 34.82 18.9 52.2l-2.9.9c-4.96-18.28-4.19-38.1-16-53.1z"/>
      <path d="M262.8 225.5c2.02 1.46 3.82 1.82 6 2.1l-.5 3c-2.59-.97-4.17-2.6-5.5-5.1zm36.9 48.8c-2.99-2.59-7.38-5.63-8.2-8.7 2.2 2.88 6.65 4.59 9.7 6.2z"/>
      <path d="M77.3 232.1c-1.53 1.6-6.01 3.53-6.56 5.69l-.64-2.09c1.43-2.15 4.29-3.1 6.2-4.5 2.4-1.77 2.92-4.23 3.2-6.9 1.24 2.87-.42 5.93-2.2 7.8zm-10.24-14.09l.14-2.71a7.06 7.06 0 014.5 3.2 8.67 8.67 0 00-4.64-.49zm74.44 14.49c2.68-.03 1.49 1.65.7 1.9-1.35-.83-.94-.47-.7-1.9zm-3.4-2.8c1.9.3 1.2 1.32.9 2.3-1.51-.61-1.15-1.05-.9-2.3zm-3.8-2.7c.5-.1.9.1 1.2.3 1 1.32.4 1.89.1 2.8-1.48-.81-1.36-1.76-1.3-3.1zm45.5 34.8c1.72.96 1.1 1.5.2 2.6-1.4-1.08-.88-1.44-.2-2.6zm-2.6-5.2c1.65 1.2 1.14 1.94.3 3.2-1.47-1.05-1.05-1.92-.3-3.2zm-3.3-5.2c1.84 1.49 1.29 2.91.3 4.5-1.48-1.27-.96-2.9-.3-4.5zm-4.7-4.8c1.77 1.6 1.59 3.33.5 5.1-1.33-1.53-1-3.41-.5-5.1zm-71.8 1.3c3.57-.83 6.66-.76 10.3-.9-2.52 3.09-7.01 2.58-10.3.9zm47.3 7.9c5.59-2.27 11.64-1.56 16.9.7-5.32.43-11.42-.28-16.9-.7zm-64.1-32.6c-2.47-.72-1.57 1.69-2.4 3.5-2.04 4.45-5.7 6.39-9.21 3.16-1.23-1.13-.73-2.22-1.38-2.52s-.3 2.73-.21 3.96c-.9-.8-1.2-2-1.3-3.2-.08-1.9.66-3.99 1.6-3.2 2.69 2.26 5.55 5.08 8.3 1 1.5-2.3 2.06-5.55 4.6-2.7z"/>
      <path d="M137.9 207.2c-1.68.55-3.04 1.13-4.8 1.5 1.23-1.26 2.64-2.27 3.9-3.3zm2.4-24c3.27-5.45 9.4-4 13-.1-4.59-.25-8.85-.9-13 .1zm-22 29.7c.03-2.94 1.65-4.48 4.1-5.1-.55 2.3-2.52 3.9-4.1 5.1zm24-21.9c-.3 1.3-.6 2.5-.8 3.6-.5 2.94-.62 1.9 2.2 3.2 1.2.7 2.2 1.97 2.8 3.17-1.42.61-4.12-.93-5.5-1.27-3.15-1.01-3.09-3.58-1.8-6.2.8-1 1.8-1.9 3.1-2.5zm5.4 5.8c3.26 2.12 6.65 3.76 9.7 5.9-4.82 2.62-9.01-1.7-9.7-5.9zm-11.9 8.1c-2.32 2.4-4.49 5.01-7.1 7.1.44-4.13 3.62-6.23 7.1-7.1zm11.7 18.8c2.51-4.68 1.48-10.82 4.6-14.5 3.96-4.68 9.12-5.57 14.5-5.4-3.77 2.56-9.47 3.27-12 7.2-2.9 4.5-2.91 9.5-7.1 12.7zM134.3 187c-.1 1.3-.2 2.6.2 3.7 1.05 1.62 1.5 1.38 3 .6 5.57-6.43 10.64-4.8 16 1.3.8 1 1.6 1.9 2.6 2.7-1.01.75-2.84-.8-3.8-1.4-6.09-5.55-8.75-3.3-14.4 0-2.69.75-4.1-.45-4.9-3 0-1.5.5-2.8 1.3-3.9zm-5.3 15.8c-1.52 4.73-1.53 10.06-2.6 14.6-2.17-5.01-.59-11.06 2.6-14.6zm11.8-1.7c.8-.1 1.7 1.1 2 2.8.1.5.1.9.1 1.3 0 1.1-.4 1.9-1 2s-1.3-.6-1.7-1.7c-.1-.3-.2-.7-.3-1.1-.3-1.7.1-3.2.9-3.3z"/>
      <path d="M224.5 193.2c5.1 2.38 10.6 2.42 15.8 1.1l.5 2.4c-5.75.69-11.51.04-16.3-3.5zm8.9-4.3c4.84 1.44 10 .26 14.6-1l.5 2.5c-5.08.25-10.63 1.51-15.1-1.5zm13-27.8c-10.66 4.2-22.1 8.76-30.3 16.9 5.38-10.88 19.48-16.46 30.3-16.9zm-15.3 38.3a52.78 52.78 0 0025.2-23.2c-3.27 13.62-13.52 22.68-25.2 23.2zm2.3 6.4c7.77-2.6 14.15-8.34 19.02-14.79 6.3-8.5 9.77-19.91 6.38-30.26-.62-2-1.92-4.26-4.24-4.36-2.22-.4-4.9.99-6.75 1.2-4.45.77-9.04.46-13.44 1.59-7.7 1.7-15.45 4.06-21.96 8.61-.2-1.23 2.41-2.27 3.46-3.2 7.55-4.83 16.26-7.71 25.1-8.94 3.6-.28 7.22-.58 10.63-1.85 3.66-1.04 7.9.95 9.2 4.6 3.4 7.97 2.62 17.3-1 25.07a44.84 44.84 0 01-20.4 21c-1.62.53-5.09 2.48-6.03 1.49l.02-.15z"/>
      <path d="M165.3 363.2c.3-2.5.7-5.1 1.5-7.5 1.53-4.98 4.23-9.33 7-13.3a99.61 99.61 0 016.6-10.9 21.42 21.42 0 004.8-15c1.09 5.94-1.08 10.84-4 15.6-2.6 3.63-3.94 7.69-6 11.3-2.57 4.3-4.9 8.56-6.1 13.1-.6 2.3-.8 4.7-1 7zm4.7 22c.62-5.96 2.72-10.22 5.8-14.7 3-4.3 2.87-9.58 4.6-14.3 1.2-3.3 3-6.2 4.9-9.1-1.6 3-3.2 6.1-4.1 9.4-1.2 5.34-1.09 10.29-3.6 15.1a25.8 25.8 0 00-4.5 13.8zm26.5 18.7c4.38 9.5 3.45 22.76 14.13 28.08 5.24 2.33 15.94 9.2 4.3 4.23-15.06-1.76-17.61-20.12-18.42-32.31zm68.1-16.5c13.84 14.91 21.93 39.61 8.7 57.46-7.86 7.8-19.99-24.45-23.42-34.4 10.33 17.28 19.21 36.97 22.3 31.16 11.2-17.29 3.05-38.88-7.59-54.21zm8.1-50.3c11.49 7.58 16.63 21.04 17.88 34.24.56 9.85 8.72 15.79 14.82 22.06-3.54 7.66-16.22 2.04-22.9.29-12.51-5.63-21.14-17.75-23.1-31.2 3.34 10.29 10.65 21.77 21.16 27.26a40.4 40.4 0 0022.04 3.75c-7.8-4.29-14.44-14-14.98-23.75-.72-12.51-5.22-24.34-14.92-32.65zm39.9 34c16.09 16.28 39.6 7.1 39.6 7.1 3.12-3.49-11.16-11.63-24.62-16.76 13.22 2.35 31.02 10.94 28.83 16.55-14.91 12.22-36.97 4.93-43.81-6.89zm-76-30.1c9.51 15.85 10.33 40.19-5.5 51.8-8.93 1.61-13.44-26.36-12.38-35.16 7.12 61.41 30.93 14.81 17.88-16.64zm23.5-42.8c7.1 9.8 7.04 22.42 3.94 33.64-2.68 8.26 2.32 15.62 5.26 22.66-3.83 5.15-11.25-1.31-15.78-3.89-10.99-7.97-15.55-22.82-12.52-35.7.4 4.68-.2 11.13 2.1 16.2 2.78 11.28 12.58 19.82 23.4 22.8-5.36-5.64-7.45-17.05-4.36-25.4 3.16-10.03 2.66-20.84-2.04-30.3zm80 55.3c13.85-6.96 27.04 4.92 39.2 8.4-13.55 1.26-25.14-11.33-39.2-8.4zm47.9-22.6c-13.03-2.32-24.04-14.17-37.5-13.2 14.47-5.74 25.83 7.41 37.5 13.2zm-70.4-10.7c10.59 5.84 24.23 1.6 34.35 8.98 4.75 2.08 13.47 14.46 4.15 5.77-9.36-8.49-22.64-6.8-33.7-10.95a17.47 17.47 0 01-4.8-3.8zm51.3-3.6c-9.74-10.3-25.18-7.68-37.9-8.9-6.13.73-18.56-9.6-6.26-3.31 13.54 2.8 29.93-2.76 41.05 8.08 1.24 1.2 2.3 2.6 3.1 4.13zm-94.5 11.7c13.13 13.45 34.31 24.17 52.65 14.68 6.82-2.89-11.88-3.88-12.41-9.78-4.4-7.5-11.87-13.58-19.04-16.9 14.29 1.62 18.52 17.77 31.32 21.66 14.82 4.54-8.26 13.88-16.02 11.84-14.79-.72-27.77-10.06-36.5-21.5zm-88.1 39.4c4.9 4.73-4.3 19.72-5.53 16.89-.15-6.24 5.9-10.35 5.33-16.79zm44.4-48c5.28-13.89-3.54-27.05-6.11-40.36.5-5.86 6.13 12.55 8.3 16.61 2.63 7.73 2.79 16.9-2.19 23.75zm13.4-54c.68 10.48 9.59 25.4-1.4 32.6 7.17-10.2-2.9-22.5 1.4-32.6zm-32.2 94.6c3.36 16.22-3.49 37.24-20.4 42-10.48-.64 3.75-14.28-1.87-21.62-1.5-4.97 5.17-21.9 2.07-8.22-1.49 8.58 3.9 17.48-.67 25.59-2.24 5.3 10.58-3.83 11.72-6.2 7.32-8.66 9.32-20.54 9.15-31.56zm44.1-79c7.22 6.46 18.7 3.6 26.87 8.37 4.7.25 14.58 14.12 5.65 5.8-9.46-7.34-25.28-3.96-32.51-14.17zm-38.8 31.2c9.84 9.4.22 22.35-1.2 32.5-3.38-10.73 7.71-21.57 1.2-32.5zm-4.9-10.1c3.67 12.74-10.84 19.24-17.3 26.7 2.48-10.72 17.03-14.71 17.3-26.7zm105.9 12.7c-12.38 2.6-22.01-10.7-34.7-7.59-5.27 1.3-11.88 2.38-3.16-1.22 10.57-4.84 21.08 1.38 30.1 6.57 2.28 1.23 5.99 1.91 7.76 2.24zm-112.5 11.8c-.03 14.24-17.67 20.62-17.8 35.4-4.66-15.21 13.98-22.96 17.8-35.4zm52.5-54.6c.2-13.5-11.49-21.72-17.09-32.65-2.86-8.31 6.78 7.93 9.3 8.57 6.1 6.27 10.05 15.64 7.79 24.09zm-62.6 6.9c8.39-6.08 14.28-15.61 17.9-24.4.6 11.21-7.12 21.49-17.9 24.4zm67.6-26.1a59.3 59.3 0 00-23.49-29.01c-4.4-3.13-7.59-10.38-.9-3.2 12.63 6.57 22.85 17.5 24.4 32.2zm-32.6 22.2c6.66-10.77-5.18-24.7 1.3-34.5-1.74 11.26 9.12 25.16-1.3 34.5zm60.6 6.9c-4.6-9.12-17.8-10.14-20.44-20.86-.36-4.24 7.82 8.93 12.24 9.57 4.04 2.57 8.03 6.15 8.2 11.28zm-85.3 1.2c-7.21 9.56-1.22 26.67-13.6 32.1 8.95-9.05 2.7-24.71 13.6-32.1zm3.1-52c-2.24-8.38-21.69-14.52-20.3-17.2 9.05 1.45 19.62 7.45 20.3 17.2zm6.2-33.2c-5.12-8.62-16.43-8.92-22.71-15.85-3.35-6.23 3.67 2.27 6.77 1.9 6.95 2 14.36 6.3 15.94 13.95zm-15.3 5.1c-3.03-5.93-12.17-9.01-13.4-14.9 5.67 3.43 13.45 7.17 13.4 14.9z"/>
    </g>
  </g>
</svg>
