<svg xmlns="http://www.w3.org/2000/svg" viewBox="-5.1 -9.8 10.2 10.2">
<g transform="scale(.25)" stroke-linecap="round" stroke-linejoin="round">
<g transform="translate(-20 -38)">
<circle cx="20" cy="22" r="15" fill="#e4d6b6" />
<path d="M2 35Q20 32 38 35L33 37H7Z" fill="#8a8060" stroke="none" opacity=".5" />
<path d="M5 34V23L12 17H29L35 23V34Z" />
<path d="M11 23L15 20H24L29 23V30H11Z" fill="#78694e" />
<path d="M4 23L12 17H29L36 23H29L24 20H15L11 23Z" fill="#ab795a" />
<path d="M10 34V25H30V34" />
<path d="M26 25H30V34H26M32 23H35V34H32" fill="#544c3c" stroke="none" opacity=".16" />
<path d="M16 34V29Q20 23 24 29V34Z" fill="#544c3c" />
<path d="M7 26V30M32 26V30M12 27V30M28 27V30" fill="none" stroke-width=".8" />
<path d="M7 22L12 18H27M6 25V31" fill="none" stroke="white" stroke-width=".5" opacity=".35" />
</g>
</g>
</svg>
