<svg xmlns="http://www.w3.org/2000/svg" fill="#d7374a" stroke="#000" viewBox="50 50 200 200"><metadata license="https://creativecommons.org/publicdomain/zero/1.0" source="https://commons.wikimedia.org/wiki/File:Wappen_R%C3%BCdigheim_(Neuberg).svg"/><g id="anchor" stroke-width=".5"><path d="M135.4 98.45c-2.05-3.35-9.03-10.3-12.27-11.86-.51-.25-1.19-.16-1.47.3-.93 1.52.57 6.37-1.07 13.36-.54 2.3-.04 3.36 1.86 2.82 2.05-.58 5.25-2.47 4.97-4.5.3 1.54.45 3.09.45 4.57 0 16.3-19.22 19.1-23.53 19.26a.39.39 0 01-.39-.39V82.33c0-.64.16-1.1.94-1.16.12 0 .22-.1.22-.23l12.2-.74c.13 0 .23-.1.23-.23v-.33l9.91-.26c.13 0 .23-.1.23-.22v-2.98c0-.13-.1-.23-.23-.23l-9.9-.25v-.34c0-.12-.11-.22-.24-.22l-12.2-.74v-.9c0-.13-.1-.23-.22-.23-1.5-.11-3.22-1.26-3.22-3.01v-.4a6.27 6.27 0 10-3.08 0v.4c0 1.75-1.73 2.9-3.22 3-.12 0-.23.1-.23.23v.9l-12.2.75c-.12 0-.22.1-.22.22v.34l-9.91.25c-.13 0-.23.1-.23.23v2.98c0 .12.1.22.23.22l9.9.26v.33c0 .13.1.23.23.23l12.2.74c0 .13.1.23.23.23.78.07.93.52.93 1.16v39.68c0 .22-.17.39-.38.39-4.31-.17-23.53-2.95-23.53-19.26 0-1.48.16-3.03.45-4.57-.28 2.03 2.92 3.92 4.97 4.5 1.9.54 2.4-.52 1.86-2.82-1.64-7-.15-11.84-1.08-13.36-.28-.46-.95-.55-1.46-.3-3.25 1.55-10.22 8.51-12.26 11.86-.44.7-.49 1.9.23 2.32 1.26.73 4.36.1 5.22-2.13a31 31 0 00-1.74 10.34c0 10.28 8.2 16.1 16.24 19.3 7.27 2.89 13.97 3.51 13.97 5.4v1.03a5.56 5.56 0 102.68 0v-1.04c0-1.88 6.7-2.5 13.97-5.4 8.03-3.19 16.24-9.01 16.24-19.3 0-3.72-.65-7.22-1.74-10.33.86 2.24 3.96 2.86 5.22 2.13.72-.42.66-1.61.23-2.32zm-31.97 41.65a3.3 3.3 0 11-4.64-3.01v1.07c0 .57.78 1.03 1.34 1.03s1.34-.46 1.34-1.03v-1.07a3.3 3.3 0 011.96 3zm-3.3-74.82c-.85 0-1.54.69-1.54 1.54v.35a3.71 3.71 0 113.08 0v-.35c0-.85-.69-1.54-1.54-1.54zm3.82 17.06h-7.64m-1.17-7.94v6.54m9.97-6.54v6.54M82.72 75.7v3.94m34.82-3.94v3.94M98.59 67.17v2.7m3.08-2.7v2.7m-2.88 64.83v2.39m2.68-2.39v2.39"/><path fill="#000" stroke="none" d="M129.43 103.12a19.23 19.23 0 01-1.32 7.76c-.34.81-.76 1.6-1.2 2.36a19.38 19.38 0 01-3.43 4.02 27.34 27.34 0 01-4.28 3.07 23.25 23.25 0 01-4.77 2.25 59.51 59.51 0 01-5.06 1.47c-1.7.46-3.4.87-5.02 1.46a12.65 12.65 0 00-2.34 1.05c-.38.21-.72.47-1 .76a2.77 2.77 0 00-.67 1 .25.25 0 01-.43 0c-.13-.38-.38-.7-.66-1a4.83 4.83 0 00-.98-.76 12.65 12.65 0 00-2.36-1.05c-1.62-.57-3.32-1-5.02-1.46-1.7-.43-3.4-.88-5.06-1.47a23.23 23.23 0 01-4.77-2.23 27.64 27.64 0 01-4.27-3.1 18.76 18.76 0 01-4.64-6.37 16.46 16.46 0 01-1.27-5.14 22.65 22.65 0 01-.05-2.64.17.17 0 11.32 0v.02a18.91 18.91 0 001.32 7.63c.34.79.75 1.56 1.19 2.3a19.16 19.16 0 003.38 3.92 25.7 25.7 0 004.22 3.02 22.84 22.84 0 004.72 2.2c1.64.56 3.32 1.01 5.02 1.45s3.4.85 5.06 1.43c.83.3 1.66.62 2.45 1.1.38.22.76.49 1.08.83.32.32.6.71.75 1.17h-.43c.15-.46.43-.85.76-1.17a5.28 5.28 0 011.09-.83c.76-.48 1.6-.8 2.44-1.1 1.66-.56 3.35-1 5.05-1.43s3.4-.87 5.02-1.44A22.84 22.84 0 00119 120a24.92 24.92 0 004.23-3.03 18.4 18.4 0 004.57-6.22 16.12 16.12 0 001.24-5.02c.1-.87.1-1.74.08-2.6a.16.16 0 11.32 0z" transform="translate(0 2)"/><path fill="#000" stroke="none" d="M103 123.32c-.56.45-.95 1.07-1.34 1.68-.57.97-1.05 2-1.35 3.1-.03.32-.5.15-.4-.13a9.91 9.91 0 00-.5-1.45c-.32-.7-.7-1.37-1.13-2-.16-.27-.35-.51-.54-.76-.16-.17-.34-.32-.5-.48-.05-.27.24-.15.33-.03.34.27.58.63.85.96a13.69 13.69 0 011.89 3.79h-.38c.15-.47.33-.92.51-1.37a12.21 12.21 0 011.93-3.07c.16-.16.32-.33.51-.46.13-.04.23.13.13.22z" transform="translate(0 2)"/><path fill="none" stroke-width=".3" d="M100.14 130.24v-47.9M93.8 79.5l-9.3-.56m-2.78-.53l-7.37-.19m32.11 1.28l9.29-.56m2.79-.53l7.38-.19m-22.54 2.35h-6.5m6.5-6.61h-6.5"/></g></svg>