<svg xmlns="http://www.w3.org/2000/svg" fill="#d7374a" stroke="#000" viewBox="50 50 200 200">
<metadata source="http://wappenwiki.org/images/f/f1/Abildgaard.svg" license="https://creativecommons.org/licenses/by-nc-sa/3.0"/>
  <g id="apple" stroke-width="1">
    <path d="M80.96 73.92c-1.92 0-5.44.64-8.32 2.56-5.12 3.2-9.6 11.84-9.6 22.08 0 11.52 4.8 23.04 10.88 30.4 5.44 6.08 12.16 8.32 14.4 8.32 5.12 0 6.4-1.6 11.2-1.6s6.08 1.6 11.2 1.6c2.24 0 8.96-2.24 14.4-8.32 6.08-7.36 10.88-18.88 10.88-30.4 0-10.24-4.48-18.88-9.6-22.08a16.3 16.3 0 00-8.32-2.56c-5.44 0-12.8 3.52-18.56 3.52s-13.12-3.52-18.56-3.52z"/>
    <path fill="none" stroke-width=".5" d="M90.56 135.36c10.56-3.84 11.2-1.6 17.92-.32"/>
    <path class="secondary" d="M100.48 79.68s.32-3.52-.64-8.64c-1.28-5.44-2.88-8-2.88-8s-.32-.64-1.92-.32c-1.28.32-1.28 1.28-1.28 1.28s2.24 1.92 3.84 7.36c1.28 4.48 1.28 8.32 1.28 8.32s.32.32.96.32.64-.32.64-.32z"/>
  </g>
</svg>
