<svg xmlns="http://www.w3.org/2000/svg" fill="#d7374a" stroke="#000" viewBox="50 50 200 200">
  <metadata source="http://wappenwiki.org/images/e/e3/Sm%C3%A5land_%28Armorial_Su%C3%A9dois%29.svg" license="https://creativecommons.org/licenses/by-nc-sa/3.0"/>
  <g id="arbalest" stroke-width="3" transform="translate(99 50) rotate(44.6) scale(0.096)">
    <g>
      <g class="secondary">
        <polygon points="181.1,195.4 118.9,168.2 154,133.2 179.4,107.7 206.6,169.9 222.7,185.3 185.1,97.5 178.1,93.7 146.3,125.5 104.9,166.9 108.7,173.9 196.4,211.5"/>
        <path d="M419.6,463.3c-8.4,2.7-16.8,15-15.5,29.1c1.2,13.5,9.3,23,17.9,29.8c17.5,13.8,36.5,19,56,29.7c13.8,7.5,31.3,18.5,40.3,31.2c3.7,5.2,10.2,15.5,7.6,18.1c-1.2,1.2-2.5-1.4-5.8-4c-1.9-1.5-5.2-1.1-6.8-0.2c-2,1.3-2.8,2.3-3.2,4.7c-0.3,1.9,0.1,3.8,1.2,5.4c2,2.9,12.8,12,21.9,2.9c14.3-14.3-13.5-46.2-33.6-59.1c-18.8-12.1-45.4-23.8-62-35.6c-8.2-5.8-15.3-13.6-16.9-24c-1.5-10.4,4.3-23.6,15.1-28.9L419.6,463.3z"/>
      </g>
      <path d="M649.7,668.2c0,0-166.1-151.1-190.5-170.1c-27-21-65.6-40.9-74.8-50.1l-57.2-70.8c0,0,2.2-16.7-30.3-49.3s-51.4-32.5-51.4-32.5l-89.4-104c-4.2-4.2,2.7-18,15.5-30.8s26.6-19.7,30.8-15.5l471.8,498.4c0,0,2.5,4.7-8.6,15.8S649.7,668.2,649.7,668.2z"/>
      <g stroke="none" fill="#000">
        <path d="M654.2,663.6C530.4,548.3,403.3,426.2,282.5,307.7c-35.7-35.2-86.9-85.7-121.8-120.8C160.7,186.9,654.2,663.6,654.2,663.6L654.2,663.6z"/>
      </g>
      <path class="secondary" d="M223.1,189.8c0.3-0.3,0.4-0.6,0.5-1c4.3-36.4,34-69,70.6-81.7c34.2-11.8,66.5-2.9,87.6,6.4s42.6,19.6,65.7,20c12,0.2,24.5-3,33.5-9c7.9-5.2,13.2-12.6,13.3-21.8c0-0.9,0.8-1.7,1.8-1.7c13.5,0,22.3-7.9,26.7-14.4c1-1.4,3.3-0.7,3.2,1.1c-1.1,18.9-10,39.5-30.9,53.6c-19.1,12.9-50.1,17.3-83.7,9.2c-22.4-5.4-64.9-15.9-99.1-4.1c-36.6,12.6-66.3,45.2-70.6,81.7c0,0.4-0.2,0.7-0.5,1l-0.9,0.9c-0.3,0.3-0.6,0.4-1,0.5c-36.4,4.3-69,34-81.7,70.6c-11.8,34.2-1.4,76.7,4.1,99.1c8.1,33.6,3.7,64.6-9.2,83.7c-14.1,20.9-34.7,29.8-53.6,30.9c-1.7,0.1-2.5-2.2-1.1-3.2c6.5-4.5,14.4-13.2,14.4-26.7c0-0.9,0.7-1.8,1.7-1.8c9.1-0.2,16.5-5.5,21.8-13.3c6.1-9.1,9.3-21.5,9-33.5c-0.4-23-10.7-44.6-20-65.7s-18.2-53.4-6.4-87.6c12.6-36.6,45.2-66.3,81.7-70.6c0.4,0,0.7-0.2,1-0.5L223.1,189.8z"/>
      <g stroke="none" fill="#000">
        <path d="M235.8,194.5c9.7-39.6,44.6-74.2,86.3-76.7c26-1.1,51.5,6.2,76.3,13c28.5,7,70.2,22.6,95.2,0.6c4.9-4.4,8.9-9.8,11.9-15.8c-5.3,12.2-15.7,22.7-28.8,26.2c-26.4,6.9-53.3-2.5-78.8-8.8c-24.8-6.5-49.8-13.7-75.6-12.9C281.1,122.5,246.8,155.9,235.8,194.5L235.8,194.5z"/>
        <path d="M126.7,494.2c42.7-20.7,24.3-71.5,15.2-107c-6.9-25.6-14.8-52-12.8-78.8c3.7-40.7,37.8-74.2,76.6-83.7c-37.7,10.9-70.7,43.8-74.3,84c-1.7,26.6,6.1,52.5,12.7,78C153.3,422.3,170.6,474.8,126.7,494.2L126.7,494.2z"/>
      </g>
      <g>
        <path class="secondary" d="M420.4,402.4c-1,3.3-3.6,5.8-6.9,6.9L108,504.5c-1.8,0.6-3.8-0.5-4.4-2.3s0.5-3.8,2.3-4.4l305.5-95.3c1.1-0.3,1.9-1.2,2.3-2.3L509,94.7c0.6-1.8,2.5-2.9,4.4-2.3c1.8,0.6,2.9,2.5,2.3,4.4L420.4,402.4z"/>
      </g>
      <circle class="secondary" cx="415.5" cy="404.3" r="13.8"/>
    </g>
    <g>
      <path class="tertiary" stroke-width="2.5" stroke-linejoin="round" d="M270.2,253.7c18.2,18.4,54.6,44.1,90.6,63.8c10.3,5.6,20.8,10.9,30.3,18.2c9.5,7.3,18.2,16.9,21.8,27.6s1.1,22.4-7.7,26l-6.6,6.6c-3.8,8.7-15.4,11.1-26.1,7.4c-10.7-3.8-20.2-12.5-27.3-22.1c-7.1-9.6-12.3-20.2-17.8-30.5c-19.3-36.2-44.6-72.9-62.7-91.3L270.2,253.7z"/>
      <g stroke="none" fill="#000">
        <path d="M322.3,302.7c14.8,11.7,30.8,21.9,47.9,30.2c-17.4-7.6-34-17.1-49.4-28.2L322.3,302.7L322.3,302.7z"/>
        <path d="M344.7,327.9c15.5,10.7,32.2,19.8,49.8,27c-17.8-6.4-35-14.8-51.1-24.9L344.7,327.9L344.7,327.9z"/>
        <path d="M360.5,344.8c14.8,11.7,30.8,21.9,47.9,30.2c-17.4-7.6-34-17.1-49.4-28.2L360.5,344.8L360.5,344.8z"/>
        <path d="M314.9,310.5c11,15.6,20.3,32.3,27.7,49.7c-8.1-17.1-18.1-33.3-29.7-48.2L314.9,310.5L314.9,310.5z"/>
        <path d="M339.9,333.3c10,16.2,18.1,33.5,24.3,51.4c-7-17.6-15.9-34.4-26.4-50.1L339.9,333.3L339.9,333.3z"/>
        <path d="M356.5,349.2c11,15.6,20.3,32.3,27.7,49.7c-8.1-17.1-18.1-33.3-29.7-48.2L356.5,349.2L356.5,349.2z"/>
      </g>
      <path class="tertiary" stroke-width="2.5" stroke-linejoin="round" d="M163.6,159.3l242.5,245.5c0,0,2.4,0.2,5.4-2.8c2.9-2.9,2.5-5.1,2.5-5.1L171.6,151.5L163.6,159.3z"/>
      <path class="tertiary" stroke-width="2.5" stroke-linejoin="round" d="M81.2,68.3c0,0,21.6,29.5,22.7,56.3c12.1-0.5,29.1,3.8,42.7,17.5l25.7,26.2c0,0,2.4,0.2,5.4-2.8c2.9-2.9,2.5-5.1,2.5-5.1l-25.7-26.2c-13.6-13.8-17.6-30.8-17-42.9C110.7,90,81.5,68,81.5,68L81.2,68.3z"/>
      <g stroke="none" fill="#000">
        <path d="M93.7,80.7c15.9,13.7,30.8,28.7,44.3,44.8C122.1,111.8,107.3,96.8,93.7,80.7L93.7,80.7z"/>
      </g>
    </g>
  </g>
</svg>
