<svg xmlns="http://www.w3.org/2000/svg" fill="#d7374a" stroke="#000" viewBox="50 50 200 200">
<metadata source="https://commons.wikimedia.org/wiki/File:Coa_Hungary_Family_Zutori_Szab%C3%B3_Luk%C3%A1cs_(1548).svg" author="Madboy74" license="https://creativecommons.org/publicdomain/zero/1.0"/>
  <g id="armEmbowedHoldingSabre" stroke-width="1.15" transform="translate(38 44) scale(.3)">
    <path stroke="none" d="M243.74 147.85a31.34 31.34 0 00-7.1-2.05c-2.23 13.07-2.98 26.33-2.93 39.5-.49 14.4.54 28.43 2.67 41.54.27 2.17-.08 5.5-.77 9.2-1.57 2.9-.32 6.8-.6 10.02-.1 1.15-.23 2.25-.36 3.3-.08.6-.47 1.21-.56 1.77-.53 3.53 0 6-.52 6.66-6.07.4-16.53 3.39-21.74 6.02-.02.21-.03.39-.07.61-.71 4.52-4.8 4.66-10.57 2.82-1.4-.37-2.91-.97-4.45-1.63-2.34-.96-4.85-2.12-7.45-3.34-2-1.05-4.73-1.58-6.48-.66 6.48 3.65-3 37.12-11.21 32.32-.35-.14.18.32.17.3.39 3.62 1.84 3.23 4.96 2.95 2.08 1.19 2.65-1 4.83.4 1.74 1.15 4.34.5 4.53 1.33.72 3.31 1.67 5.84 13.08 3.47 18.4-.53 29.61 6.41 48.6 4.96 23.12-1.84 29.75-6.6 39.32-28.45 3.74-10.88 6.95-28.27 8.38-44.72 1.46-16.47-1.7-32.44 1.8-51.21-5.05-5.92-8.94-12.07-15.64-14.56-10.05-8.36-13.6-11.36-27.18-14.87a57.69 57.69 0 00-10.7-5.68z"/>
    <path class="secondary" d="M310.62 63.26c-77.25-1.65-135.26 99.1-160.08 177.8l15.53 6.32c23.97-69.46 38.6-92.73 74.49-125.5 1.9-1.75 6.4-2.52 8.17-4.58 13.52-15.74 33.81-36.21 61.88-54.03z"/>
    <path class="tertiary" d="M146.85 240.58c4.93 5.24-4.3 30.35-9.5 49.43-10.08.4-15.32 11.65-1.18 16.09 9.35 2.95 14.66-5.72 16.7-11.56 6.34-18.2 9.71-44.99 17.94-47.23-3.43 1.07-14.86-7.64-23.96-6.73z M142.28 296.37a2.12 2.12 0 01-2.62 1.45 2.13 2.13 0 01-1.45-2.59 2.12 2.12 0 012.61-1.44 2.1 2.1 0 011.46 2.58z"/>
    <path class="tertiary" d="M164.52 228.3c-4.77 5.26-9.69 9.11-13.57 9.08-3.88-.04-10.45-3.05-23.57-9.56-13.12-6.5-14.63-17.6-21.7-8.17-9.37 12.52 45.42 17.41 48.06 34.17 13.85-9.8 55.59 26.05 58.01 10.6 1.84-11.64-7.18-4.97-20.99-9.84-13.8-4.86-20.55-7.47-23.29-10.22-2.73-2.76-3.4-8.98-2.95-16.06z"/>
    <g fill="#000" stroke="none">
      <path fill-opacity=".3" d="M106.76 218.35c-.35.39-.7.8-1.07 1.3-9.38 12.52 45.41 17.4 48.05 34.17 13.85-9.8 55.59 26.05 58.01 10.6.06-.36.08-.66.1-.98-8.95 5.06-45.28-19.56-57.67-10.8-2.42-15.37-46.99-23.85-47.42-34.29z"/>
      <path d="M163.72 229.03l.97.34c17.35-50.67 63.07-144.48 144.8-165.72-72.32 16.98-121.7 94.3-145.79 165.38z"/>
      <path fill="#fd9863" d="M141.06 241.66l-8.98 3.55a10.6 10.6 0 00-1.62.92l.05.02c-.35.26-.69.47-.98.76-.14.13-.26.24-.38.38-.26.27-.55.86-.75 1.16-.5.73-.49 1.35-.64 2.2-.05.3-.16.86-.14 1.17 0 .3.04.55.1.86.04.16.08.35.13.5l-.03.04c.14.44.37.88.63 1.34l.05.02c.03.04.04.1.08.15l-4.79 4.61.57.79-1.32.67c.65 2 .98 4.28 2.73 5.47l1.27 2.51-1.68 1.5.03 1.49c-.06.17-.08.37-.1.55-.03.36-.04.67.07 1.04.06.2.17.49.27.7.2.4.5.76.87 1.19.19.21.36.44.58.65.67.68 1.52 1.36 2.57 2.08-.47.55.77-.16.91-.06l1.14 1.56c-.41-.07-1.09-.23-1.22-.16-.29.14-.57.36-.79.53-.1.08-.18.1-.27.19-.19.17-.38.38-.5.57-.18.28-.27.57-.29.9 0 .11-.09 1.58-.08 1.71.04.27.17.52.3.82.3.71 1.2 1.56 2.1 2.45.33.21.63.4.97.59.01 0 .02-.02.03 0 .33.18.67.33.99.5l.06.07c.65.34 1.2.67 1.86.93l.08-.02c.96.4 2.6.62 3.55.85h.03l.94.2c.12 0 .2.02.3.04l.3.36.6-.48c2.24 1.28 7.33.46 7.3-2.76l.1-.11c-.17-.04.01-.25-.16-.28.03.01.04-.02.07-.02 0-.54-.22-1.8-.47-2.27a5.38 5.38 0 00-1.93-1.8l.1-.07-.65-.96 2.8-.45c1.76-.44 4.34-2.19 4.55-3.37.03-.29.05-.54.03-.8-.05-.49-.24-.96-.54-1.43l-.45-.65c-.44-.48 0-.82-.73-1.27l-.43-1.15 1.08-1.9c.17-.38.12-.85-.07-1.35a7.05 7.05 0 00-1.74-2.3c-.23.11-.43.11-.67.2l1.05-.6.85-1.4-.01-1.88c-.03-.18-.03-.38-.1-.55-.34-.86-.74-2.26-1.82-3.21l-.25-.22-3.01-2.37 1.57-1.1a14.3 14.3 0 004.16-1.13c1.24-.59 2.06-1.41 2.4-2.46 1.94 2.71-3.56.88.94 4.54.84.68 1.6 1.4 2.22 2.1l.04.02 2.06 4.16.02.04c-.12.45-.2 1.04-.24 1.85a24.63 24.63 0 00-.03 3.45c.08 1.05-.37 1.91-.14 2.87l.58 2.2c-.34 2.62-4.46 13.62-3.86 16.04 5.89 5.32 10.26 5.46 18.28 4.75.27-.04.58.1 1.58.12 1.56.64 14.81-24.59 7.78-32.43a2.9 2.9 0 01-.98-.74c-2.53-6.64-11.1-10.2-14.97-13.7-2.17-2.28-4.9-2.76-7.79-2.13l-.6-.14a30 30 0 01-3.83-1.8c-.3-.1-.64-.2-.95-.26-.34-.07-.23-.19-.58-.18l-2.87.52-.73.43-.3.03-.2.28-2.44 1.67a63.2 63.2 0 00-5.94-3.41z"/>
      <path fill-opacity=".3" d="M129.14 247.4l-1.3 3.55 1.13 4.6 4.85 4 3.82 3.41 3.28 2.47 3.7 2.24 2.5.27.64-.98 1.67-.4 1.4 1.42c.17 1.78-1.95 1.12-3.45 1.6-3.77 1.24-3.91.44-5.48.42-3.1-.4-5.45-1.26-7.33-2.62-5.79-1.61-9.45-4.79-10.15-8.12l-1.05 2.63 1.53 3.85 3.63 3.46 6.19 2.88 9.08.95 3.29.19 3.1-.65 1.2 1.8-2.53.98-3.1 2.1c-2.78.75-4.75-.14-6.98-.51-8.08.26-10.86-2.47-13.26-4.5l1 3 2.82 2.6 4.72 1.95 6.83 1.9 3.81-.31 1.55.81 1.68 1.95.26 1.64-1.71-.7-3.72.46c-6.48 1.21-11.21-.28-13.82-3.35l.87 2.7 2.92 2.8 5.25 2.02c-.14.17-.05.7-.29.68a8.84 8.84 0 00-3.73.7c2.73 2.88 6.97 1.86 11.45.89 2.83-.67 4.06-2.1 4.68-4.43.96-2.58-.52-3.73-1.07-5.44 1.54-1.29 7.79-1.62 3.7-7.73.23-2.07.92-2.7-.55-5.62l.9-2.94c1.93.23 3.93-.32 5.98-1.28l.02 5.37 2.8 6.32 4.29 4.3c1.22-1.7 1.6-2.18 3.76-3.29-1.66-1.26-1.26-3.06-1.3-4.75-5.97-1.83-5.57-7.62-7.08-12.2l-.44-1.03-4.74-3.79-2.66-3.14a19.38 19.38 0 01-5.2 1.52c-5 .34-8.38-.75-12.03-1.6l-2.09-.22 1.22 2.04c3.57 1.64 7.61 1.5 11.6 1.57l-.32 1.91 3.4 3.08.65 1.82-.13-.17c-.9 1.66-2.04 1.27-2.68 1.55l-3.48-1.88a14.93 14.93 0 00-4.1-1.84c-5.69-3.83-11.63-8.14-11.4-12.9zm29.43 27.43l-3.47 12.75-.18 1.13 1.96 1.92 3.62 2.37 6.62 1.31 6.28-.35 2.62-.65c2.43-1.92 3.44-4.3 4.59-6.65-3.36.04-6.19-.52-7.16-1.91-2.3 1.1-3.2 4.32-7.8 1.88-4.65-2.75-6.37-6.93-7.08-11.8z"/>
      <path d="M140.64 241.49c-1.38.13-3.04.7-5.87 1.9-2.65.94-4.85 2.26-6.37 4.46-1.71 2.45-1.47 4.9-.48 7.3-2.48 1.39-4.91 3.8-5.18 6.16-.35 2.98 1.57 4.7 3.49 6.83-3.21 3.63-.68 8.37 3.46 10.77-1.53 1.35-2.04 3.2-1.35 4.88 1.27 3.1 4.28 4.74 7.15 5.63 1.53.48 3.19.56 4.9.78 3.69 1.62 8.77-1.45 7.97-3.82.66-1.64-1.13-3.73-2.7-4.85.34 0 .48-.24.82-.26 2.58-.07 5.54-1.84 6.28-3.74.4-1.07-.15-2.1-1-2.9a3.27 3.27 0 00-1.38-2.15c.12-.1.36-.11.33-.26l-.09-.33c1.7-1.81 1.06-3.83-.55-5.34.45-.4.85-.9 1.09-1.33 1.21-3.45-1.66-7.26-5.27-8.79 1.77-.2 4.61-.69 6.05-1.34.42.6.8 1.13 1.65 1.84.78.62 1.43 2.06 1.95 2.64.64.96 2.05 1.65 2.98 2.22-.62 2.11-.96 4.43-.87 6.43.08 1.48.9 2.84 1.28 4.08-.9 3.01-1.84 6.25-2.46 8.9-.4 1.74-.88 3.35-1.26 4.76-.39 1.4.05 1.26-.08 1.57-.32.67-1.2 1.78-.63 2.26 4.08 3.99 10.59 5.36 17.43 4.53 1.33-.15 1.43.5 2.78.16l.22-.43c-.19-.07-1.9-.83-2.6-.71-7.3.24-10.2 1.3-17.3-4.62 1.1-4.85 3.51-12.18 4.25-15.7a14.07 14.07 0 007.64 7.97 18.06 18.06 0 01-7.07-9.9 20.68 20.68 0 01-.1-8.77c.1-.42.46-.72.66-1.03.95-.55 1.44-1.42 1.96-2.28-.76.81-1.92 1.14-2.8 1.37-1.14-.23-1.98-1.13-2.68-1.85-.63-.7-1.36-1.38-2.2-2.05-4.5-3.66.95-1.86-.99-4.57-.34 1.05-1.17 1.83-2.41 2.42-1.67.77-4.1 1.2-6.55 1.3-1.04.07-1.94-.05-2.94-.12-1.55.02-3.14-.36-4.56-.82-.36-.16-.72-.28-1.01-.47-.74-.48-1.06-1.12-1.45-1.81 2.87.77 5.32-.17 7.39-2.1.24-.23.14-.58.26-.83.2-.97-.13-1.58-.5-2.4 1.05-.2 2.1-.38 3.12-.65.4-.1.75-.29 1.14-.4 1.87-.78 3.93-2.4 5.8-2.78.27-.07.58-.07.83-.07.72 0 1.47.28 2.06.56 1.5.7 2.71 1.31 4.14 1.87a6.98 6.98 0 015.04.1c.65.25 1.63.91 2.24 1.4.34.27.48.78.75 1.02 3.9 3.5 11.38 6.92 14.5 13.26.4.8 1.11 1 2 1.02l.09-1.08c-.55-.06-1.03-.25-1.24-.72-3.11-7.1-11.03-10.4-14.35-13.47a15.25 15.25 0 00-3.28-2.3c-1.79-.93-3.7-.78-5.56-.33-.74-.27-1.48-.58-2.04-.84-.74-.25-1.35-.73-1.93-1.04a4.81 4.81 0 00-2.6-.4c-1.7.16-4.46 1.62-6.6 2.9-.86.28-1.78.5-2.52.69-1.02.24-1.47.45-2.46.57-1.98-.02-4.33.15-5.96 1.23-1.54 1.04-2.7 3.1-1.78 4.2.05.21.18.59.25.79.21.6.83 1.32 1.28 1.77 1.7 1.58 4.1 1.86 6.17 2.07 1.06 0 1.95.05 3 .1 2.07.83 3.63 2.27 4.79 3.32 2.57 2.38 2.36 6.46-.83 6.6.56-.85.32-1.63.44-2.51-2.74-3.06-8.02-3.2-7.8.78-.88-.56-1.48-.97-2.15-1.66-2.66-3.12-6.71-4.87-9.07-8-1.6-2.3-1.63-4.43-.32-6.65 1.28-2.18 4.07-3.47 6.28-4.35 1.54-.6 4.6-1.74 6.56-2.03.33-.06-.06.15.2.15l-1.34-.75c-.05.03-.1.01-.14.04zm-3.4 6.02c.3-.08.66-.14 1-.18 1-.1 2-.04 2.88-.15.64.92.86 1.72.61 2.35-1.93 2.02-4.64 2.98-7.44 2.08-.5-1.44.52-2.74 1.75-3.53l.08-.03c.36-.23.7-.43 1.12-.54zm-8.5 8.91c2.83 2.92 6.26 4.61 9.08 7.27.83.94 3.2 2.44 3.2 2.44 1.36 1.14 4.84 2.73 6.08 1.9.16-.12.32-.37.4-.55.68-.14 1.14-.23 1.73-.5 1.5 1.41 2.51 2.84 1.2 4.46-.3-.71-.55-1.6-1.14-1.89-1.96-.94-4.8.8-6.04 2.94-4.23-.2-8.77-.24-12.4-2.35a17.17 17.17 0 01-5.63-4.77 4.64 4.64 0 01-1.2-4.06c.48-2.69 2.74-4.01 4.73-4.89zm14.54 6.12c1.38-.2 3.22.59 4.54 1.73a5.34 5.34 0 01-.99 3.34c-1.8.14-3.85-.84-5.36-2.24-.1-1.5.45-2.31 1.29-2.64.17-.08.32-.16.52-.2zm-16 6.35l.03-.02c.61.51 1.82 1.33 2.57 1.76 3.93 2.7 8.97 2.94 13.7 2.81 1.35.73 4.96-.07 6.04-.6 1.21.6 1.38 1.22 1.32 1.64-3.92.29-7.33 3.67-5.2 6.22-9.04 2.39-25.07-5.88-18.47-11.81zm19.86 1.3c.17-.04.33-.1.5-.11.43-.06.85.07 1.21.29.44.24.85.95 1.01 1.68-1.85.86-4.04 1.32-5.82.79a5.87 5.87 0 013.1-2.64zm-16.32 9.31c2.91 1.3 7.66 2.63 10.63 2.68 1.52-.08 2.39-.3 3.56.25a5.16 5.16 0 012.9 3.5c-1.73-1.5-4.35-.76-6.1-.11-1.48.57-2.41 1.73-2.1 3.27-4.57-.51-8.59-1.54-10.34-5.56-.81-1.86-.08-3.26 1.45-4.03zm18.99-4.08c.4-.13.78-.22 1.19-.3.65.48 1.3 1.06 1.35 1.62.15 2.07-3.82 4.13-5.95 3.9-1.83-2.42.66-4.35 3.4-5.22zm-6.41 10.64c.5-.12 1.03-.28 1.54-.33 1.5-.12 2.8.17 2.75 1.06-.22 3.41-6.05 3.6-7.05 2.46-.2-1.1.28-2.1 1.08-2.55a6.55 6.55 0 011.68-.64z"/>
      <path d="M235.7 145.14c-3.12 25.63-4.4 58.46.16 81.76l-.03.04c.26 2.05-.05 5.3-.74 8.96-2.07 4.13.1 8.46-1.06 12.77-.76 1.83-1.28 3.9-.16 5.45l.67-1.5c-.64-1.33.1-2.3.52-3.68 1.98-4.67-1.66-9.47 1.4-12.94.7-3.71.76-6.93.46-9.24v-.02c-3.12-25.39-3.91-54.8.2-80.26 2.28.38 4.58 1.1 6.8 2 3.71 1.49 7.26 3.5 10.38 5.55 12.17 2.63 20.7 9.04 27.07 14.84 6.94 3.23 11.22 9.33 15.26 14.1-3.45 18.74-.9 35-2.33 51.3-1.45 16.4-4.04 36.52-8.5 47.03-3.43 8.09-7.21 14.44-13.43 19.04-5.6 4.1-13.11 5.54-24.64 6.47-9.43.71-16.9-.66-24.38-2.14-7.16-1.43-14.34-2.95-23.1-2.83.97-1.05 1.46-2.62 2.32-4.14 2.18-3.95 3.42-9.34 4.02-14.83.36-3.48 1.19-8.25.34-11.47-.27-1.85-.82-2.33-1.74-2.77.59.68.98 1.3.96 2.47.14.86.15 1.85.15 3-.01 2.52-.43 5.5-.78 8.64-.58 5.4-1.82 10.69-3.89 14.43-1.2 2.1-1.56 4.22-3.8 4.73-5 1.13-7.54 1-9 .37a2.88 2.88 0 01-1.53-1.37 7.17 7.17 0 01-.7-2.1c-.06-.23-.2-.44-.37-.57a2.06 2.06 0 00-.54-.27c-.36-.1-.79-.08-1.23-.12a6.05 6.05 0 01-2.6-.7 3.08 3.08 0 00-2.9-.33c-.68.22-1.06.4-1.97-.11l-.13-.07h-.2c-1.58.14-2.65.27-3.24.04a1.3 1.3 0 01-.7-.67c-.13-.26-.2-1.13-.3-1.64.84.19 1.84.36 2.64 0a7.89 7.89 0 003.1-2.62 35.33 35.33 0 005.4-10.54 49.49 49.49 0 002.27-12.44c-.1-2.5-.45-5.06-1.9-6.8a7.97 7.97 0 014.7.45l.1-.74c-2.05-.95-4.31-1.52-6.17-.53l-.88.46.84.47c2.27 1.64 1.92 4.56 1.87 6.8-.1 3.5-1.35 7.8-2.64 11.87-1.28 4.07-2.61 7.8-4.5 10.22-.93 1.23-1.71 2.07-2.62 2.47-.62.28-1.3.27-1.94.07-.3-.1-.67.26-.96.1-.88-.1.12.09-.83-.02 0 .25.05.3.1.36s-.08-.31-.03-.27l.16.17c-.02-.34.2.4.2.4.09.76.2 1.78.46 2.27.3.54.72.96 1.23 1.16 1.01.4 2.2.17 3.7.03.03 0 .04.01.07 0 1.03.44 1.91.3 2.5.1.66-.22 1-.39 1.97.23 1.01.67 2.2.78 3.1.88.44.04.84.07 1.06.12l.17.07a9 9 0 00.76 2.37 4.2 4.2 0 002.07 1.8c1.8.76 4.59.7 9.48-.13.69-.12 1.1-.23 1.66-.51 8.36.4 16.07 1.65 23.6 3.1 7.48 1.46 15.76 3.37 25.34 2.63 11.58-.9 19.13-2.55 24.98-6.78 5.87-4.24 10.91-10.66 14.77-21.98 5.22-15.29 6.48-31.53 7.74-45.4 1.98-19.38-.9-35.78 1.84-51.4-5.3-6.25-9.63-12.1-15.9-14.86-9.96-8.28-13.77-11.37-27.2-14.87a48.09 48.09 0 00-8.74-5.13 33.12 33.12 0 00-10.3-2.8zm-23.8 118.3l-.27.1.27.8c4.5-2.86 11.93-4.77 17.33-5.5 18.69-2.52 31.53 1.7 39.83 11.76-8.65-12.6-23.61-14.67-34.83-13.55-7.7.88-16.57 2.57-22.33 6.38z"/>
      <path fill-opacity=".3" d="M241.03 152.3l10.65 6.35c7.87 3.38 15.77 6.65 23.43 12.75l13.95 12.33c1.73 12.57 2.38 31.3 1.48 43.65-.83 11.3-.55 16.34-3.27 26.98-.17 5.31-4.5 17.18-9.01 12.9-2.15 6.06.5 9.36.24 12.73-.48 6.38-2.83 10.45-10.8 16.9l-4.16 1.64c-3.02-2.8-3.97-6.79-3.92-11.38 0 0-4.65 6.72-4.47 5.79.2-.95-.01-6.56-.01-6.56-7.44 14.2-12.13 16.36-25.1 14.37-2.46-3.36 7.76-7.24 5.53-20.38-1.98 5.72-4.07 11.28-8.44 13.73-2.11.19-3.71 1.63-5.26 3.2l-4.26-2.92c-1.1-1.39-2.28-2.65-2.39-5.5-2 2.29-3.3 5.44-5.41 3.84-1.79.29-.67-1.02-.88-1.6 2-9.63 1.28-21.68-2.23-17.7l-.99 11.24-2.52 10.59-3.43 6.25-.86.93.28-.05c18.4-.53 29.62 6.41 48.6 4.94 23.12-1.82 29.73-6.58 39.32-28.43 3.75-10.88 5.18-27.84 6.64-44.3 1.44-16.45-2.13-30.23 1.37-49-5.05-5.91-9.47-11.94-16.17-14.42-10.04-8.36-13.61-11.37-27.19-14.88-1.1-.36-12.4-7-10.72-3.99z"/>
      <path d="M233.83 256.94l.47.96c2.87-5.54 18.48-8.48 28.84-5.59-12.38-5.3-27.17-.52-29.3 4.63z"/>
      <path d="M232.97 257.85l.76.22c1.96-3.57-.5-.97 1.45-4.33 3.52-6.1 10.72-7.63 17.57-8.12-6.23-.76-14.94 1.24-18.5 7.2-2.4 4-.15 2.43-1.28 5.03z"/>
      <path fill-opacity=".3" d="M205.15 268.22c-.05-.02-.1 0-.17 0-1.41-.36-2.85-.6-4.23-1.07l-1.38-.54c1.4 1.14 3.22 2.1 3.4 3.76 1.58 5.85-.23 11-2.7 15.85-1.25 2.44-2.72 3.84-4.64 3.4-1.72 1.68-2.93.81-4.24.7.03-.05.07-.07.1-.13-3.61.34-1.5-1.85.44-2.57 4.86-7.56 8.14-13.97 3.84-18.28a29.28 29.28 0 00-7.17-4.28c-2.03-1.1-.97 1.81-.94 3-.36 5.35.96 12.14-1.8 16.97-3.12 5.4 2.6 7.22.77 11.87-.34.87-.42.97-.98 1.21-1.2-.45-3.07-.41-3.31-1.7a5.88 5.88 0 01.43-4.07c-.9.3-1.75.76-2.38 1.67-.77 1.57-3.3.4-4.89-.15l-.07-.1c-1.2.72-2.43.86-3.64.17-.36-.15.2.33.18.32.39 3.61 1.84 3.2 4.96 2.93 2.08 1.19 2.65-1 4.81.4 1.76 1.14 4.36.5 4.55 1.33-.07-.57-.33-.84.1-1.19 2.1-1.74 2.4-3.53 3.3-5.43.05-.09.12-.16.19-.24.74.34 1.49.66 2.18 1.06.56.67.92 1.56 1.76 1.94l1.23.77c-.55.7-.71 1.64-2.12 1.85-1.21 1.41-2.45 1.2-3.7.64.4.43.7.98 1.16 1.34 1.86.2 3.18 1.17 5.3.53.4-1.07 1.84-1.72 1.4-3.1 3.4-2 2.54-5.24 2.93-8.07 1.15-.84 2.1-3.07 3.23-4.72 1.17-.78 2.93-2.36 3.3-4.22.11-2.14.34-3.2.4-5.35-.3-1.83-.52-3.69-.85-5.5-.3-.3-.84-.65-.75-1z"/>
    </g>
  </g>
</svg>
