<svg xmlns="http://www.w3.org/2000/svg" fill="#d7374a" stroke="#000" viewBox="50 50 200 200">
  <metadata source="http://wappenwiki.org/images/2/2d/Smolensk_Bergshammar.svg" license="https://creativecommons.org/licenses/by-nc-sa/3.0"/>
  <g id="bearRampant" stroke-width=".3">
    <path d="M79.7 90.4s-1 2.1.2 3.3c0-1.8 1.3-2.6 1.3-2.6s-.2-.6-.6-.7c-.5-.3-1 0-1 0z"/>
    <path d="M79.5 90.3s-2.5.9-2 2.7c-.5-.4-.7-1-.6-1.8 0-1.2 1.2-2 1.2-2s.6-.2 1 .2c.2.1.4.9.4.9z"/>
    <path d="M77 87.5s-2 .7-2 2c0 1 .7 2 .7 2 .2-.2-.2-1 .2-1.7.4-.9 1.7-.7 1.7-.7"/>
    <path d="M76.9 85.5s-2 0-2.6 1.1c-.4 1 0 2.2 0 2.1.2 0 .2-.9.8-1.4.7-.7 1.8 0 1.8 0"/>
    <path d="M82.2 117.9s-2 1-2 2.6c1.2-1.3 2.7-1 2.7-1s.3-.7 0-1c-.2-.6-.7-.6-.7-.6z"/>
    <path d="M82.1 117.7s-2.4-1-3.2.7c-.2-.5 0-1 .6-1.7.8-.9 2.3-.8 2.3-.8s.5.3.6.8l-.3 1z"/>
    <path d="M82 114s-2-.8-2.8.1c-.7.7-.8 2-.6 2 .1 0 .4-.8 1.1-1.1 1-.4 1.8.6 1.8.6"/>
    <path d="M83.2 112.3s-1.5-1.3-2.6-.8c-1 .5-1.5 1.6-1.4 1.7.2 0 .7-.6 1.5-.7 1 0 1.5 1.2 1.5 1.2"/>
    <path d="M83.3 68.1s-2.2.5-2.4 2.2c1.3-1.1 2.8-.6 2.8-.6s.4-.5.2-1a.9.9 0 00-.6-.6z"/>
    <path d="M83.3 67.9s-2.3-1.4-3.4 0c0-.5.3-1 1-1.5 1-.7 2.4-.3 2.4-.3s.4.3.4.9c0 .3-.4.9-.4.9z"/>
    <path d="M83.8 64.2s-1.7-1.1-2.7-.4c-.8.6-1.2 1.8-1 1.8.1 0 .5-.7 1.3-.9 1-.2 1.6 1 1.6 1"/>
    <path d="M85.4 62.8s-1.2-1.6-2.5-1.3c-1 .3-1.7 1.3-1.6 1.4.1 0 .8-.5 1.6-.4 1 .2 1.2 1.4 1.2 1.4"/>
    <path d="M105.9 136.9s-.8 2.2.4 3.3c-.1-1.8 1.1-2.7 1.1-2.7s-.2-.6-.6-.7a.9.9 0 00-1 .1z"/>
    <path d="M105.7 136.8s-2.4 1-1.8 2.8c-.5-.3-.7-.8-.8-1.7 0-1.2 1.1-2.2 1.1-2.2s.6-.1 1 .2c.3.2.5 1 .5 1z"/>
    <path d="M103 134.2s-2 .8-1.9 2c0 1 .9 2.1 1 2 0-.1-.3-.9 0-1.6.3-1 1.6-.8 1.6-.8"/>
    <path d="M102.7 132.2s-2 0-2.4 1.3c-.4 1 0 2.2.2 2 0 0 0-.8.6-1.4.6-.7 1.8-.2 1.8-.2"/>
    <path d="M102.3 69s-1.1-.3-2.6 0c-1.5.2-2.3.9-3.1 1-.9.2-1.5 0-2-.1-.8-.4-.7-1-1-.8 0 .3.5 1.3 1 1.5a3.8 3.8 0 002.9.3c.8-.1 1.2-.5 2.2-.7h1.8"/>
    <path fill="#f2f2f2" stroke-width=".2" d="M96.7 67.8s.4 1 1.1 1.4V68"/>
    <path fill="#f2f2f2" stroke-width=".2" d="M100.4 70.8a3 3 0 01-.5-.4c-.2.3-.1.6 0 1m-.5.2a1.8 1.8 0 01-.5-.7c-.3.3-.2.8 0 1.1"/>
    <path d="M103 101.4c-1.3 0-6 0-8.3 1-2.4 1-4 3.7-4.7 6-.3 1.8 2 4 1.7 6-.3 1.7-.8 2-1.6 2.6-.6.5-2.4-.5-2.5-.8-.6-1.2-1.9-1.3-2.3-2-.1-.3-1.1-1-1.5-2-.2-1-1.4-1.1-1.7-.7 0 0 .3.3 0 1l-.3.7s-.7-.1-1 .3l.4.7v1c-.6 0-.6.2-.7.3s-.2.5-.1.6c.3-.1.7.1.9.5.3.7-.4.7.4 1.5.5-.2 1.4.3.8 1.3.2.5.7.7 1.2.9l1.3-.2c.5 0 1 .3 1.1.3 1.2.4 2.3 1.9 4 1.9.8 0 1.3 0 2.4-.2 1.3-.3 2.3.1 2.7-.2 1.9-1.8.9-2.7 2.7-5 .5-1 1.9-.9 4.5-2.2"/>
    <path d="M101.1 79.5c-.8-.5-1.3 0-2.7-1-.7-.6-1-1.5-1.6-2.1l-1.9-1.7c-2.2-2.1-2.5-3-3.2-4.2-.7-1-.6-.8-1.7-2a14 14 0 01-2.9-3.5c-.1-.3-1-1.2-1.1-2.2 0-1-1.2-1.4-1.5-1 0 0 .1.4-.2 1 0 .2-.5.6-.5.6s-.7-.3-1 .1c-.1.2.2.5.2.8 0 .3 0 .7-.2.9-.5 0-.5 0-.7.2-.2.1-.3.4-.2.5.3 0 .6.3.8.8.1.7-.5.6 0 1.5.6-.2 1.4.5.7 1.4 0 .5.4.8 1 1 .2.3.7.1 1.2.2s.7.5 1 .7c.4.4.8 1.9 1.6 2.6.7 1 2.3 6.8 3.7 8.6.8 1 2 3.5 2.8 4.3a5.2 5.2 0 003.3 1.5c1.7.2 3.5 0 5-.7 1.8-.7 3.5-1.9 5.4-2"/>
    <path d="M108.4 60.4s.2-.4.7-.5c.3 0 1-.1 1.7.2.6.3 1 1 1.2 1.2"/>
    <path d="M87.6 90.2c1.2 0 7 2.2 9.1 2 .7 3.7 7 4.6 6.2 11.6 0 .3-.4 1-.5 1.3-.3.4-.2.7-.4 1.1-1 .8-.3 1.8-.5 2.6-.1.6-1.2 1.2 0 1.3 0 .5-.8.7-.8 1 0 .2.1.6.5.5-.2 1-.3 1.4-.3 2.2 0 1 .1 2 .6 3 1 1.5.8 2 1.5 3.1.3 1.2.8 1.2 1.9 2.4l2.7 2.6c1.3 1.2 1.3 3.6 1.4 4l-.4 2c-.2.5-.6 1.1-.9 1-1.2-.4-1.4.4-2.2.1-.3 0-1.6.1-2.5-.3-.8-.6-1.8.2-1.7.7 0 0 .5 0 .8.7l.2.7s-.6.4-.5 1c0 .1.5 0 .8.2.3.1.5.5.6.7-.3.4-.2.5-.2.7s.2.5.3.4c.2-.2.6-.3 1-.2.7.3.3.8 1.3.8.2-.6 1.2-.8 1.5.3.5.3 1 .1 1.5-.2.3-.1.5-.6.8-1 .4-.4 1-.5 1-.6 1.2-.5 2.2-.3 3.3-1.3l1-.9c.3-.5 0-1.3.4-2.6.4-1.4 0-1-.4-3.4-.5-2.5-2-3.3-1.6-7.5.3-2 3.2-3.7 2.9-8.8 0-.6 1.5 1.4 2.8 0 0 0-.8-.1-1-1-.5-2.3-1.2-4-1.4-4.7 0-.2-2-6-2-12 0-2.2.1-4.6.7-7 .3-1.3.6-3 1.7-5.3.7-1.4 1.6-2.2 1.4-4-.3-1.8-.7-1.8-1.2-3.7-.5-1.4-.2-2.4-.2-2.8 0-.1.6.1.7-.7-.5 0-1-.4-1.4-.8-.3-.3-.4-1.3-.4-1.3s.6 0 .6-.5c-.3-.1-.9-.2-1.1-.7 0-.7-.3-1.4-.6-2-.4-.7-1-1-1-1s.3-.4.3-1.1c0-.4-.3-1.1-.8-1.5-.6-.5-1.3-.6-1.6-.6-.5 0-.8.3-.8.3s-.9-1-3-1c-3.4 0-4.4 1.2-5 1.3-.5.1-.5 0-.8 0s-.7.7-.8.8c-.8.4-.3.7-.5 1-.2.1-.7 0-1 .2-.4.1-.5.3-1 .3-.4.1-.2.5-1.2.9-.2 0-1.5 0-1.7.4-.2.2 0 .7.2.9.2.6.2.8 0 1v.8c.2.2.6.2 1 .3l1.2.2 1.8-.1c1 0 1.7.5 1.8 1.8 0 .7-1 .6-1.2.9-.2.2-.5.6-.7.6s-.3.3-.5.4c-.1 0-.5 0-.8.3l-.4.2c-.1 0-.3.3 0 .4.2.2.2.3.7.3s.9.7 1.2.7.5-.4 1-.4 1-.6 1.6.1c.4.5.6.5.7.8.2.4 0 .8-.3 1-.5.5-2 .2-2.6 1-.3 0-.6-1.4-1.8-.8-.1 0 1 .3.3 1.2-.1.2-.8.1-1 .5-.4.4-1.1.2-1.1 1-.4.4-1 .1-.7 1-.2.5-.9.7-1 .9 0 .1.1.2.4.3-.3.6-.8.8-.9 1 0 .2.4.3.4.3-.3.7-1.2.8-.5 1.4-.5.5-.2.6-.3 1.1-.1.6-.4.6-.4 1-4.4 1.7-5.9.3-7.2.3l-2.4.1c-2.3.2-3.8.4-4.6.1-.3 0-1.5 0-2.4-.5-.8-.7-1.8 0-1.7.5 0 .1.4.2.7.8v.8s-.5.4-.5.9c.1.2.5.1.8.2s.5.6.6.8c-.3.4-.3.5-.3.7s.2.5.3.5c.2-.3.6-.4 1-.2.7.3.2.8 1.3 1 .2-.6 1.2-.8 1.5.3.4.3 1 .2 1.4-.1.4-.1.6-.6 1-1 .3-.3.7-.2 1-.3.6 0 2.2.6 3.3.3z"/>
    <path fill="#f2f2f2" stroke-width=".2" d="M102.8 63.4c.3 0 .6.2.9.6-.1.1-.2.4-.8.4-.5 0-.8-.2-.8-.4s.5-.5.7-.6z"/>
    <g fill="none" stroke-width=".2">
      <path d="M110.1 68v1.2l-.4-.3s0 1-.9 1.8c0-.3 0-.5-.2-.7-.4.7-.6 1.6-1.2 2v-1.1m-3 3s.4 0 .3.7l.6-1-.2 1.4c.2 0 1-1.3 1-1.3l-.1.8a5 5 0 001.2-1.1v.8l.7-.9c0 .3.3.5.3.5.4-.6.6-1.1.7-1.7"/>
      <path d="M104 119.9v-.5l.9.4c0-.3 0-.5.4-.8.3.1.5.3.8.3.2 0 .3-.4.6-.4l.8.3c0-.5 0-.9.3-1.4.2.1.4.2.9.1.1-.4.4-.7.6-1"/>
      <path d="M96.7 92.2c1 0 2.1.4 3.1-.1.7-.3 1.4-.6 2 0 .6.3 1.2-.1 1.7-.5.5-.6.3-1.5.9-2 .8-1.3.6-1 1.6-1.6"/>
    </g>
    <g fill="#000" stroke="none">
      <path d="M82.5 67.8c.3-.6 1.6-1 2.1-.2.4.2 2 1 1.2.8-1-.3-1.5-1.2-2.6-1-.4 0-.4 1-.7.4z"/>
      <path d="M82.5 65c1-.2 1.3.6 2.1.8.3.5 1.3 1.3 1.2 1.3-.8-.4-1.3-1.3-2.2-1.5-.2-.5-1.3 0-1.1-.6z"/>
      <path d="M83.8 63.2c.7.1.6 1 1.3 1.3.2.4 1.3 1.9.8 1.4-.6-.5-.7-1.3-1.3-1.5l-.8-1.2z"/>
      <path d="M84.3 65c-.2-1.3.7-.3 0 0z"/>
      <path d="M84 66.6c-.4-1 0-1.7 0 0z"/>
      <path d="M86.1 62.8c.1.4-.7 1.3-.5.8.2-.3 0-1 .5-.8z"/>
      <path d="M84.7 67.6c.5.6.2 2.2.1.6 0-.2-.7-.4-.1-.6z"/>
      <path d="M95.5 81c-.3.4-1.6.5-1.6-.1 0 .2 1.2.3 1.6.1z"/>
      <path d="M94.8 80c-.7.3-2.3-.5-.8-.4.2.2.6 0 .8.4z"/>
      <path d="M93.5 77.5c-.4.6-1.7-.6-.9-.2.2.3.9 0 .9.2z"/>
      <path d="M93.9 78.5c-1 .3-1.2-.5 0-.1z"/>
      <path d="M92 76c1-.4 1.7.9.6.2-.1-.2-.2-.3-.6-.2z"/>
      <path d="M82.6 114.7c-.2-1.7.3-.3 0 0z"/>
      <path d="M82.6 116.3c-.4-.6-.5-1.4 0-.4v.4z"/>
      <path d="M84 112.2c0 1-.8 1.2-.3.1 0-.2.2 0 .3-.1z"/>
      <path d="M83.4 117.1c.5 0 .7 1.6.6 1.3 0-.4-.7-.9-.6-1.3z"/>
      <path d="M93.6 84.9c.8-.9 2.1-.7 2.9-1.5.2-.5 1.9-1 .8-.8-.1-.6 1.4-1.3 1-1-1.2.1-.5-.7.2-.9.3-.4 2.7-.5 1.1-.3-.7 0-1.4.8-1.9.9 1.5-.1.3.5-.1 1.1.4-.1-.2.9-.9 1.1-.6.8-2 .7-2.8 1.5-.2.2-.2.1-.3-.1z"/>
      <path d="M79 90.9c-.3-.8 0-1.9 1.1-1.8.4-.3 1.5-.6 1.7-.7-.7.4-1.4.8-2.2.9-.5.4-.4 1-.6 1.6z"/>
      <path d="M76.8 89.1c.6-.7 1.1-.6 1.8-1 .4 0 2.6-.4 1.6-.1-.8.1-1.8.1-2.2.6-.6-.3-.9 1-1.2.5z"/>
      <path d="M76.2 87c1-.4 1 0 2-.2 1.2 0 2.1.3.3.2l-2.1.1h-.2z"/>
      <path d="M78 87.8c-.9-.5-.4-1.2-.1-.1z"/>
      <path d="M79 89c-.5 0-1.5-.7-.6-.5.4 0 .3.4.6.5z"/>
      <path d="M77.3 85c.7.6.4 1.4-.1.2 0 0-.1-.3.1-.2z"/>
      <path d="M80.1 89c.7-.4 2 1.2.9.5-.2-.4-1.3 0-.9-.5z"/>
      <path d="M111.8 130.6c.4-.4 1 .2 1 .4a3 3 0 00-1-.4z"/>
      <path d="M86.8 116.2c.6-.4 2.3.6 1.6.7-.4-.4-1.2-.4-1.6-.7z"/>
      <path d="M109.7 99.3c2.1 2.8 2.5 9 1 12.7 1.2-3.7 1-9.4-1-12.7z"/>
      <path d="M94.5 113.7c.4.2.4.8.2 1.5 0-.5 0-1.1-.2-1.5z"/>
      <path d="M95 111.7c.9.4 1 1.8.5 2.6.1-1 .3-2-.5-2.6z"/>
      <path d="M96.2 109.7c1.2.5 1.4 2.6 1 3.7.2-1 .2-3-1-3.7z"/>
      <path d="M97 107.5c1.2 1 1.6 2.3 1.6 3.8a6.9 6.9 0 00-1.6-3.8z"/>
      <path d="M98.9 88.3c.2.6.3 1.5-.5 1.6-.3.2.8-.8.4-1.5 0 0 0-.4.1-.1z"/>
      <path d="M96.2 89.8c.1-.3 1-1.1 1-.9-.4.2-.6.8-1 .9z"/>
      <path d="M94.2 89c.4.8-1.6.8-.5.6.2 0 .3-.5.5-.6z"/>
      <path d="M95.8 89c0 1-1.2 1 0 .2V89z"/>
      <path d="M92 89.6c-.3-.9 1.7-1 .4-.4 0 .4-.5 0-.4.4z"/>
      <path d="M100 88c.8.4-.1 1.8.2.4-.1 0 0-.4-.2-.4z"/>
      <path d="M101 86.9c.8.1.1 2.3.2.7l-.2-.7z"/>
      <path d="M101.6 86.3c1-.4.7 2 .5.8 0-.3 0-.9-.5-.8z"/>
      <path d="M109.8 85c.6-1.6.5-4.3-1.6-4.7-2-.3.1-1-2.7-.8-.3 0 1.6-.5 1.9.1.2.6.6.2 1.8.8 1.4 1 1.2 3.5.6 4.6z"/>
      <path d="M99.5 83.8c-1.2 0-1-.8-.2 0h.2z"/>
      <path d="M97.7 80c.3.6-1.5 2.3-.7 1.1.2-.4.7-.6.7-1.1z"/>
      <path d="M99.2 78.4c.2.6-.8 1-.7.6.3-.1.7-.6.7-.6z"/>
      <path d="M100.6 77.8c-.1 1-1 1-.1.1l.1-.1z"/>
      <path d="M102 77.4c.8.4-.8 1.2-.4.6.4-.1.5-.1.4-.6z"/>
      <path d="M103.3 77.2c-.6-.2.3-2 .1-.8-.2.3 0 .5-.1.8z"/>
      <path d="M104.5 76c.3.9-.9 1 0 0z"/>
      <path d="M95.5 80.3c.2-.8 1-.6.1-.2-.2.2-.3-.2-.1.2z"/>
      <path d="M87.4 90.2c1-.5 1.6.1.1 0z"/>
      <path d="M102.7 104.4c.2-1.2 1.3-2.1 1.1-3.4.5 1.1-.7 2-.8 3.1-.3-.1.1.5-.3.3z"/>
      <path d="M101.8 63.6c-1 .1-.8-1.2-.4-1.5.7-.6 2-.6 2.5.3.9 1.2-.3-.3-.7-.4-1.5-.7-2.8 1-1.4 1.6z"/>
      <path d="M102.3 69.8c.5.6.6 1.3.8 2l-.8-2z"/>
      <path d="M104.2 71.9c-.2-1.5-1.8-2.5-1.9-4.1.6 1.5 1.8 2.7 1.9 4.1z"/>
      <path d="M101.5 65.6c.1 1.3 1.1 2.3 1.8 3a10 10 0 01-1.8-3z"/>
      <path d="M103.1 67.5a3.4 3.4 0 01-1.5-2.3c.2.7 1.3 2.2 1.5 2.3z"/>
      <path d="M102.8 66c-.6.2-1-1-1-1 .3.5.7 1 1 1z"/>
      <path d="M101.9 64.6l.4.4c-.3-.1-.4-.3-.4-.4z"/>
      <path d="M106.7 67.8c-.7-.3-2.1.3-2.6-.5 1.2.6 2.1 0 2.6.5z"/>
      <path d="M104.4 64c.7.5 1.6-.5 1.5.1l-.8.1c-.5.1-.5 0-.7-.2z"/>
      <path d="M98.6 64.4c.3-.5 1.8-.7.6-.3-.1.3-.4 0-.6.3z"/>
      <path d="M95.8 65.8c.6-.8.7 1 .8.1.7-.6.5-.5 0 .2-.5.2.1-.4-.8-.3z"/>
      <path d="M102.9 64.2c.5-1.5-1-.3 0 0z"/>
      <path d="M103.7 64.5c-.4.3-.7.3-1 .2l1-.2z"/>
      <path d="M116.8 71c-.6-.1-1-1-.2-.2l.2.2z"/>
      <path d="M115.7 68.1c-.7-.1-.6-.7 0 0z"/>
      <path d="M99.3 72.6c0 .7-.7.5 0 0z"/>
      <path d="M104.1 63.9c-.4.2-.4.2-.5-.1h.5z"/>
      <path d="M102.1 63.9c.2.1-.7.4-1.4.3.5 0 1.2-.2 1.4-.3z"/>
      <path d="M109.4 130.6c.5.7-.6 2-.6 1.8.3-.6.6-1.2.6-1.8z"/>
      <path d="M102 63.7c0-.8 1.3-.9 1.8-.5-.9 0-1.3 0-1.8.5z"/>
      <path d="M110.2 62.9c1-1.9 3.7-1 1.7 1.4-.1 0 .9-1 .5-1.7-.4-1.2-1.6-.2-2.2.3z"/>
      <path d="M111.1 63.6c0-1-.2-1.5.2-.3 0 .2-.1.3-.2.3z"/>
      <path d="M112 63.4c-.2-.6-.6-.8 0-1.4-.4.6.4.7 0 1.4z"/>
      <path d="M99.2 72.4c.7-.2 1.2-.6 1.6-1.2-.6.6-1 .8-1.6 1.2z"/>
      <path d="M109.7 128.8c.5-.1.6.6.4.6 0-.2-.2-.4-.4-.6z"/>
      <path d="M110.6 128.2c.3.4.4 1 .4 1-.3-.3-.4-.8-.4-1z"/>
      <path d="M111 127.7c.6.2.6 1.2.4 1.2 0-.4-.2-.8-.4-1.2z"/>
      <path d="M112 128.2c-.3-.5-.2-.9-.1-1l.1 1z"/>
      <path d="M96.8 65.9c-.4.6-.8 0 0 0z"/>
      <path d="M112.5 64.9c.3-.7 1.5-1.4 1.1-.9l-1.1.9z"/>
      <path d="M110 61.8c-.2-.6.9-1.2.7-.7 0 .3-.5.4-.7.7z"/>
      <path d="M100 76.6c.1-.9 1-.8 0 0z"/>
      <path d="M105.2 137.4c-.3-.8 0-1.8 1-1.9.5-.2 1.8-1 1.5-.5-.6.2-1.5.6-2.1 1-.4.3-.1 1.2-.4 1.4z"/>
      <path d="M103 135.8c.5-.7 1-.8 1.8-1.2l1.5-.3c-.4.4-1.8.1-2.1.9-.6-.3-.9 1-1.2.6z"/>
      <path d="M102.2 133.7c.6-.4 1.2 0 1.8-.2.8 0 2.7 0 .9.1-1-.1-1.5.3-2.5.2 0 .3-.1 0-.2-.1z"/>
      <path d="M105 135.5c-.3 0-1-.3-.9-.4.4 0 .6.2.9.4z"/>
      <path d="M103 131.7c.3 0 .5.7.5.8-.2-.5-.6-.7-.5-.8z"/>
      <path d="M106.2 135.5c.8-.4 2 1 .8.4-.2-.2-.7 0-.8-.4z"/>
      <path d="M81.3 117.8c.4-1 1.6-1 2.5-.6.8.2 1.8.7.5.4-.8-.3-2-1-2.5-.1 0 .3-.2.5-.5.3z"/>
      <path d="M80.9 115c1 0 1.3.1 2.1.4.3.2 2 1.3 1.2.9-.8-.5-1.7-.8-2.5-1-.2-.3-.7.1-.8-.3z"/>
      <path d="M81.8 113c.6.3 1 .8 1.6 1.2.3.3 1.6 1.7.7 1-.4-.7-1.2-1.1-1.6-1.4 0-.6-.8-.2-.7-.8z"/>
      <path d="M95.3 82.7c-.5.5-1.3 0-.1.1z"/>
      <path d="M104 134.4l-.7-.7c.7.1.8.7.7.7z"/>
    </g>
  </g>
</svg>
