<svg xmlns="http://www.w3.org/2000/svg" fill="#d7374a" stroke="#000" viewBox="50 50 200 200">
  <metadata source="http://www.wappenwiki.org/images/b/bb/Barberini.svg" license="https://creativecommons.org/licenses/by-nc-sa/3.0"/>
  <g id="bee" stroke-width="2.5" transform="translate(50.3 42.7) scale(0.219)">
    <path d="M265 342.6c1.3 10-1.6 18.1-8.4 25.5.8 7.9-5.2 18.1-11.9 22.3.3 8.6-7.6 18.3-18.1 18.3a18.5 18.5 0 0 1-18-18.3c-6.8-4.2-12.7-14.4-11.9-22.3a29.8 29.8 0 0 1-8.4-25.5c.9-7-5.3-13.5-6.4-20.5-2.7-17.9-3.3-36.5 2-53.8s17-33.3 33.7-40.4 38.1-3.8 49.5 10.2c6.1 7.4 9 17.1 9.8 26.6s-.2 19.2-1.3 28.7l-3.5 30.6"/>
    <g>
      <path stroke="none" d="M221 147.6c-2.4 0-6.4-2.2-8.1-3.7l-.1-.1a47 47 0 0 1-10.7-23.5c-1.3-5.3-2.6-10.9-5.4-16.1-3.4-7-10.7-14.3-15.1-18.8-3.3-3.4-3.9-4-3.8-4.9v-.4l.3-.3c.2-.2.6-.5 1.2-.5 3.1 0 17.8 9.3 24.8 22.5 3 5.3 4.1 10.5 5.2 15.5 1.6 7.2 3.1 14 9.8 21.2 4.5 5.1 4.6 6.8 4.1 7.9-.2.5-.8 1.2-2.2 1.2z"/>
      <path stroke="none" fill="#000" d="M179.3 80.6a51 51 0 0 1 23.7 21.9c7.1 12.6 3.5 24.3 15.2 36.9 4.7 5.4 4.6 7.1 2.8 7.1-1.9 0-5.6-1.9-7.3-3.4-11.4-12.2-8.8-26.2-16-39.4-5.1-10.5-18.8-21.8-18.7-22.9.1-.2.2-.2.3-.2m0-2.5a3 3 0 0 0-2.2.9l-.5.6-.1.8c-.2 1.5.6 2.3 4.1 5.9 4.3 4.4 11.5 11.6 14.8 18.4v.2c2.8 5.1 4 10.3 5.3 15.8a48.6 48.6 0 0 0 11 24.1l.1.1.1.1c1.8 1.7 6.1 4.1 8.9 4.1 2.2 0 3.1-1.4 3.4-2 .9-2.1-.3-4.7-4.3-9.2-6.5-6.9-7.9-13.6-9.5-20.6a53 53 0 0 0-5.4-15.8c-6.8-13.4-21.8-23.4-25.7-23.4z"/>
    </g>
    <path class="tertiary" d="M254.5 308.2s-11.6 3.9-28 3.9-28-3.9-28-3.9l-7.8 31.9s14.1 3.9 35.9 3.9c21.8 0 35.9-3.9 35.9-3.9z"/>
    <path class="tertiary" d="M198.5 274.8s11.6 3.9 28 3.9 28-3.9 28-3.9c-22.4-68.6-39.5-40.2-56 0z"/>
    <path d="M175 345.5c-2.6 8.4-1.8 16.2-3.7 24.3a41.1 41.1 0 0 1-11.7 21.9c-6-.5-11.2-4.5-11.9-8.4 4.1-3.1 9.1-8.1 11.6-17.9 2.5-9.7.9-16.2 3.8-24.4 2.8.3 11.2.7 11.9 4.5z"/>
    <g>
      <path stroke="none" d="M135.5 443.7c-.4 0-1.1-.2-1.6-1-2.7-3.7-3.6-22.3-.9-31.7a81 81 0 0 1 15.8-28.3l.3-.3.4-.1a10.7 10.7 0 0 1 10 2.7 6.8 6.8 0 0 1 2.1 4.8v.5l-.4.4a67.8 67.8 0 0 0-17 25c-2.4 5.9-3.5 12.7-4.5 18.1-1.2 6.6-1.8 9.9-4.2 9.9z"/>
      <path stroke="none" fill="#000" d="M151.9 383.3c4.4 0 8.4 3.1 8.3 6.5a68.8 68.8 0 0 0-17.3 25.5c-4.8 11.9-4.7 27.1-7.3 27.1-2.6-.1-4.4-20.7-1.4-31.1 3-10.4 9.5-20.8 15.5-27.8l2.2-.2m0-2.5c-1 0-1.9.1-2.8.3l-.8.2-.5.6a81.5 81.5 0 0 0-16 28.7c-2.8 9.9-1.8 28.8 1.1 32.8.9 1.2 2 1.5 2.6 1.5h.1c3.4 0 4-3.9 5.2-10.9.9-5.3 2-12 4.4-17.8 2.6-6.9 8.4-17 16.7-24.5l.8-.7v-1.1c0-2-.8-4-2.4-5.7a12 12 0 0 0-8.4-3.4z"/>
    </g>
    <path class="secondary" d="M236.1 231.7c0 8-9.8 1-15.3 6.8a53.2 53.2 0 0 0-13.3 31c-.3 3.3.3 6.6.7 9.9 1.4 10.4 1.7 20.9.8 31.4a54.3 54.3 0 0 1-5.6 22.1 25 25 0 0 1-17.6 13.3c-.9 9.3-9 17.7-15.4 24.5s-14.5 11.7-23.2 15.2c-9.8 3.9-26.1 13.2-38.8 5.9-9.1-11.3-5.4-23.9-.7-35.4 9.6-23.5 17.3-45.2 30.6-66.8 6.8-11 16.5-25.4 24.3-35.8 13.7-18.4 23.4-34.9 37.1-53.3l36.4 31.2z"/>
    <g>
      <path stroke="none" d="M130.8 243.8c-4.1-3.2-6.3-8.7-4.8-12.2l.3-.7.8-.1c3.7-.3 11.3-1 18.7-5.6 7.3-4.7 7.8-5 13.4-9.3l.8-.6 1.1.8c2.5 1.9 7.6 5.8 6.2 9.3l-.1.3-.2.2a64.6 64.6 0 0 1-14.4 10.2A62.6 62.6 0 0 1 132 244l-.5.1-.7-.3z"/>
      <path stroke="none" fill="#000" d="M159.9 216.9c1.7 1.3 7.2 5.3 6.1 8.1a68.3 68.3 0 0 1-14.2 10.1c-6.6 3.6-13.9 7-20.2 7.8-3.8-2.9-5.6-7.8-4.4-10.7 4.1-.3 11.8-1.1 19.2-5.8 7.5-4.9 8-5.3 13.5-9.5m0-3.2-1.5 1.2c-5.5 4.2-6 4.6-13.3 9.2-7.1 4.5-14.5 5.1-18.1 5.4l-1.5.1-.6 1.4c-1.7 4.1.5 10.1 5.2 13.7l.8.6 1-.1c5.6-.7 12.3-3.2 21.1-8.1 6.8-3.7 9.3-5.7 14.6-10.4l.5-.4.2-.6c1.8-4.5-3.9-8.7-6.6-10.8l-.3-.2-1.5-1z"/>
    </g>
    <g>
      <path stroke="none" d="M107.5 264.1a2 2 0 0 1-1-.3c-.7-.4-1.1-1.1-1.2-2.2a26.4 26.4 0 0 1 7-17.7c6.1-6.3 10.4-10.5 15.5-12.1l.3-.1.3.1a9 9 0 0 1 5.9 5 6 6 0 0 1 0 5.2l-.2.4-.5.2a46.7 46.7 0 0 0-22.8 18.5c-1.2 1.8-2 3-3.3 3z"/>
      <path stroke="none" fill="#000" d="M128.1 232.9c4.2 1 6.6 5.6 5.1 8.3a48.6 48.6 0 0 0-15.4 9.5c-7.3 6.1-8.7 12-10.3 12l-.4-.1c-1.8-1 .1-11.8 6.1-18 5.9-6.1 10.2-10.2 14.9-11.7m-.1-2.6-.7.2c-5.3 1.7-9.8 6-16 12.4-3.1 3.2-5 7.2-5.9 10a20.6 20.6 0 0 0-1.4 8.8c.2 1.5.8 2.5 1.8 3.1.5.3 1.1.4 1.6.4 2 0 3.1-1.6 4.4-3.7a45.8 45.8 0 0 1 22-17.9l.9-.3.5-.8c1-1.8 1-4.1.1-6.3a10.3 10.3 0 0 0-6.7-5.7l-.6-.2z"/>
    </g>
    <g>
      <path stroke="none" d="m160.8 179.8-.7-.1-.3-.1-.2-.2-2-1.6c-4-3.2-6.3-5-10.5-10.1a68 68 0 0 1-11.7-19.4l-.2-.5.2-.5c2.1-4.1 6.2-7.1 9.9-7.1l1.2.1.7.2.2.7c.9 3.4 3.2 11.5 9.1 17.9 4.6 4.9 5.8 5.9 8.5 8.3l3 2.6.7.6-.6 1.2c-1.8 4-4.2 8-7.3 8z"/>
      <path stroke="none" fill="#000" d="m145.3 141.6 1 .1c1.1 3.9 3.4 12 9.4 18.4 6 6.4 6.3 6.4 11.5 11-.9 1.9-3.6 7.5-6.4 7.5h-.4c-5.5-4.4-7.6-5.7-12.3-11.6a64 64 0 0 1-11.5-19c1.9-3.9 5.8-6.4 8.7-6.4m0-2.5c-4.1 0-8.7 3.3-11 7.7l-.5.9.3 1a66 66 0 0 0 12 19.8c4.3 5.3 6.6 7.1 10.7 10.3l2 1.6.5.4.6.1.9.1c3.7 0 6.3-4.1 8.5-8.6l.2-.3.9-1.7-1.4-1.3-3-2.6c-2.6-2.3-3.8-3.4-8.4-8.2-5.8-6.2-7.9-14-8.8-17.3l-.4-1.5-1.5-.3-1.6-.1z"/>
    </g>
    <g>
      <path stroke="none" d="m139.5 150.7-1.6-.2-.5-.2-.2-.5a38.4 38.4 0 0 0-13.1-16c-4-3.3-8.7-5.6-12.1-7.3-4.3-2.1-6.6-3.3-5.9-5.3.5-1.3 2.2-1.5 3.5-1.5 4.7 0 15.2 2.5 21 6.4a50.9 50.9 0 0 1 16 16l.2.3v.4c-.2 4.2-3.6 7.9-7.3 7.9z"/>
      <path stroke="none" fill="#000" d="M109.7 120.9c4.6 0 14.8 2.5 20.3 6.1a47.6 47.6 0 0 1 15.6 15.7c-.2 3.8-3.3 6.7-6.1 6.7a5 5 0 0 1-1.2-.2 41.4 41.4 0 0 0-13.4-16.5c-7.9-6.5-18.3-9.2-17.6-11.2.2-.4 1.1-.6 2.4-.6m0-2.5c-1 0-3.9 0-4.7 2.3-1.1 3 2.1 4.6 6.5 6.8 3.4 1.7 8 4 11.8 7.1 4.6 3.6 9 7.5 12.7 15.6l.5 1 1 .3c.6.2 1.3.3 1.9.3 4.3 0 8.3-4.2 8.6-9.1v-.8l-.4-.7a51.3 51.3 0 0 0-16.4-16.4 49 49 0 0 0-21.5-6.4z"/>
    </g>
    <g>
      <path stroke="none" d="M188.7 196.2A29.3 29.3 0 0 0 171 186a31.3 31.3 0 0 1-13.2-5.8c-.6-.6-1.2-1.6-.4-3.5 1.2-3.1 6.7-8.9 9.4-8.9.7 0 1.3.3 1.6.8 2.1 3.5 4.7 5 7.3 6.3l2.9 1.3c4.7 2 11.1 4.7 19.1 14.5l.9 1.2-9.3 5.2-.6-.9z"/>
      <path stroke="none" fill="#000" d="M166.8 169c.3 0 .5.1.6.3 2.3 3.8 5.1 5.4 7.7 6.8 4.9 2.5 12 3.8 21.6 15.4l-7.1 4c-10.6-12.9-21.5-8.3-31-16.3-2-2 5.8-10.2 8.2-10.2m0-2.5c-3.4 0-9.2 6.1-10.6 9.7-1.1 2.7 0 4.2.7 4.8h.2c4.4 3.7 9.1 4.9 13.6 6.1 5.9 1.5 11.5 3 17 9.8l1.3 1.6 1.8-1 7.1-4 2.6-1.5-1.9-2.3a44.8 44.8 0 0 0-19.6-14.8c-1-.4-2-.8-2.8-1.3a14.6 14.6 0 0 1-6.7-5.8v-.2a4 4 0 0 0-2.7-1.1z"/>
    </g>
    <g>
      <path stroke="none" d="M164.8 228.8c-3.4 0-7.9-7.8-8.4-10.8-.4-2.1.7-2.7 1.2-2.9h.2c5.3-1 9.1-3.5 13.1-6.1 5.6-3.6 11.3-7.4 21.3-7.4h1.4l-1.1 10.4-.9.2c-10.7 1.9-13.9 5.2-18 9.4-2 2.1-4.3 4.4-7.7 6.8-.2.3-.6.4-1.1.4z"/>
      <path stroke="none" fill="#000" d="m192.4 202.9-.8 8.1c-16.5 2.9-16 9.3-26.1 16.4l-.6.2c-2.9 0-8.9-10.5-6.7-11.2 13-2.6 17.3-13.5 34.2-13.5m2.7-2.5h-2.8c-10.4 0-16.6 4-22 7.6-3.9 2.5-7.6 5-12.7 5.9h-.2l-.2.1c-1.3.4-2.5 1.8-2.1 4.2.6 3.4 5.3 11.8 9.6 11.8.7 0 1.3-.2 1.9-.5h.2c3.5-2.5 5.8-4.9 7.8-7 4-4.2 7-7.2 17.3-9l1.9-.3.2-1.9.8-8.1.3-2.8z"/>
    </g>
    <g stroke="none" fill="#000">
      <polygon points="227.8,170.4 226.5,197.9 225.3,170.4"/>
      <path d="m196.6 243.4-3.5 10.2-3.7 10.2-3.8 10.1-3.9 10.1v-.8l3.2 11 .2.8-.6.5L173 305l-11.6 9.5.3-.4-13 28.1-6.6 14-6.7 14-.4-.2 6-14.3 6.1-14.2 12.4-28.4.1-.2.2-.2 11.5-9.6 11.6-9.5-.4 1.3-3.2-11-.1-.4.2-.4a420.8 420.8 0 0 1 8.3-20l4.3-9.9 4.6-9.8z"/>
      <path d="M153.8 338.2c3.9-3.3 8-6.3 12.1-9.2l6.2-4.4 6.3-4.2-.2.2 4.3-4.2 4.3-4.1 4.4-4 4.5-3.9.3.3-3.9 4.6-4 4.4-4.1 4.3-4.1 4.3-.1.1-.1.1-6.3 4.2-6.4 4.1c-4.3 2.5-8.6 5.1-13.2 7.4z"/>
      <path d="M171.6 357.3a141.5 141.5 0 0 1 4.7-27c.8-2.9 1.6-5.9 2.7-8.7l.4.1a133.2 133.2 0 0 1-2.6 18c-.7 3-1.3 5.9-2.1 8.8-1.1 3.1-1.9 6-3.1 8.8z"/>
      <path d="M200.1 309.4a37.6 37.6 0 0 1-9-6.5 35.9 35.9 0 0 1-3.9-3.9 28.6 28.6 0 0 1-3.5-4.3l.3-.3c1.7.9 3.2 2 4.6 3.1a71.7 71.7 0 0 1 8.1 7.5c1.2 1.3 2.4 2.7 3.4 4.4z"/>
      <path d="m202.9 262.3-16.4 5.2h-.2l-10.2.3-10.2.2.9-.5-5.9 10.2-6 10.1-6 10.1-3 5c-1 1.7-1.8 3.5-2.7 5.2l-10.9 20.8-5.6 10.4c-1.9 3.4-3.7 6.9-5.7 10.3l-.3-.2 5-10.7 5.1-10.6 10.4-21.2 2.7-5.3 3-5.1 6.1-10.1 6.1-10.1 6.2-10 .3-.5h.6l10.2.1 10.2.2h-.2l16.5-3.8z"/>
      <path d="M133.9 324a94.4 94.4 0 0 1 8.6 16.5c.7 1.9 1.3 3.9 1.8 6l-.4.2c-1.3-1.7-2.3-3.5-3.3-5.3-1-1.8-1.9-3.7-2.7-5.6l-2.3-5.8c-.8-1.9-1.4-3.9-1.7-6z"/>
      <path d="M177.4 286.2c-1.9 1-3.8 1.9-5.8 2.6-2 .8-4 1.4-6 2-2 .6-4 1.1-6.1 1.5-2.1.4-4.1.8-6.3.9l-.1-.4c1.9-1 3.8-1.8 5.8-2.6 2-.7 4-1.4 6-1.9s4-1.1 6.1-1.5c2.2-.2 4.2-.6 6.4-.6z"/>
    </g>
    <path d="M278.1 345.5c2.6 8.4 1.8 16.2 3.7 24.3a41.1 41.1 0 0 0 11.7 21.9c6-.5 11.2-4.5 11.9-8.4a30.6 30.6 0 0 1-11.6-17.9c-2.5-9.7-.9-16.2-3.8-24.4-2.7.3-11.2.7-11.9 4.5z"/>
    <g>
      <path stroke="none" d="M317.5 443.7c-2.3 0-2.9-3.3-4-9.9a68.9 68.9 0 0 0-21.5-43.1l-.4-.4v-.5c0-1.7.7-3.4 2.1-4.8a10.8 10.8 0 0 1 10-2.7l.4.1.3.3a81 81 0 0 1 15.8 28.3c2.7 9.4 1.7 28-.9 31.7-.7.8-1.3 1-1.8 1z"/>
      <path stroke="none" fill="#000" d="M301.2 383.3c.7 0 1.5.1 2.2.3 6 7 12.5 17.5 15.5 27.8s1.2 31-1.4 31.1c-2.6 0-2.5-15.2-7.3-27.1a70 70 0 0 0-17.3-25.5c-.1-3.5 3.9-6.6 8.3-6.6m0-2.5a12 12 0 0 0-8.4 3.4 7.6 7.6 0 0 0-2.4 5.7v1.1l.8.7c8.3 7.5 14 17.6 16.7 24.5a88.9 88.9 0 0 1 4.4 17.8c1.2 7 1.9 10.9 5.2 10.9h.1c.6 0 1.7-.2 2.6-1.5 2.9-4 4-22.9 1.1-32.8a80.7 80.7 0 0 0-16-28.7l-.5-.6-.8-.2c-.9-.2-1.8-.3-2.8-.3z"/>
    </g>
    <path class="secondary" d="M217 231.7c0 8 9.8 1 15.3 6.8a53.2 53.2 0 0 1 13.3 31c.3 3.3-.3 6.6-.7 9.9a143.3 143.3 0 0 0-.8 31.4c.6 7.6 1.9 15.4 5.6 22.1a25 25 0 0 0 17.6 13.3c.9 9.3 9 17.7 15.4 24.5s14.5 11.7 23.2 15.2c9.8 3.9 26.1 13.2 38.8 5.9 9.1-11.3 5.4-23.9.7-35.4-9.6-23.5-17.3-45.2-30.6-66.8-6.8-11-16.5-25.4-24.3-35.8-13.7-18.4-23.4-34.9-37.1-53.3L217 231.7z"/>
    <g>
      <path stroke="none" d="M232.1 147.6c-1.4 0-2-.8-2.2-1.2-.5-1.1-.4-2.9 4.1-7.9 6.7-7.2 8.2-14 9.8-21.2 1.1-5 2.3-10.2 5.3-15.5 7-13.1 21.6-22.5 24.7-22.5.6 0 1 .3 1.2.5l.3.3v.4c.1.9-.4 1.5-3.8 4.9a79.4 79.4 0 0 0-15 18.7c-2.9 5.3-4.2 10.8-5.5 16.2-1.9 7.9-3.8 16.1-10.7 23.5l-.1.1a15.5 15.5 0 0 1-8.1 3.7z"/>
      <path stroke="none" fill="#000" d="m273.8 80.6.3.1c.1 1.1-13.6 12.4-18.7 22.9-7.2 13.2-4.6 27.2-16 39.4a15.2 15.2 0 0 1-7.3 3.4c-1.8 0-1.9-1.7 2.8-7.1 11.7-12.6 8.1-24.3 15.2-36.9 7-13 21.4-21.8 23.7-21.8m0-2.5c-3.9 0-18.9 10-25.8 23.2-3.1 5.5-4.2 10.7-5.4 15.8-1.6 7-3 13.7-9.5 20.6-4 4.5-5.2 7.1-4.3 9.2.3.6 1.1 2 3.4 2 2.9 0 7.1-2.4 8.9-4.1l.1-.1.1-.1c7.2-7.7 9.1-16 11-24.1 1.3-5.5 2.5-10.7 5.3-15.8v-.2c3.3-6.7 10.5-14 14.8-18.4 3.6-3.6 4.3-4.4 4.1-5.9l-.1-.8-.4-.4a3 3 0 0 0-2.2-.9z"/>
    </g>
    <path class="tertiary" d="M197.5 156.8c0-9.8 4.1-15.6 10.7-19.1 9.3-5 18.3-4.2 18.3-4.2s9.2-.8 18.5 4.2c6.6 3.6 10.7 9.4 10.7 19.1 0 27.7-50.6 21.3-29 21.3 21.5.1-29.2 6.4-29.2-21.3z"/>
    <path d="M263.6 149.8c-1.9-7.7-7.8-12.2-15-10.4-4.2 1.1-7.6 8.7-5.9 15.7 1.9 7.7 5.7 14.1 12.9 12.3 7.2-1.8 9.9-9.9 8-17.6z"/>
    <path d="M197.4 167.3c7.2 1.8 10.9-4.6 12.9-12.3 1.7-7-1.7-14.6-5.9-15.7-7.2-1.8-13 2.7-15 10.4-1.9 7.8.9 15.9 8 17.6z"/>
    <g>
      <path stroke="none" d="M321.4 244c-5.4-.7-12-3.2-20.6-7.9a68 68 0 0 1-14.4-10.2l-.2-.2-.1-.3c-1.5-3.6 3.7-7.5 6.2-9.3l1-.8.8.6c5.6 4.3 6.1 4.6 13.4 9.3 7.3 4.7 15 5.3 18.7 5.6l.8.1.3.7c1.5 3.5-.6 9-4.8 12.2l-.4.3-.7-.1z"/>
      <path stroke="none" fill="#000" d="M293.2 216.9a151 151 0 0 0 13.5 9.4 41 41 0 0 0 19.2 5.8c1.2 2.9-.6 7.8-4.4 10.7a60.5 60.5 0 0 1-20.2-7.8 64.8 64.8 0 0 1-14.2-10.1c-1.1-2.8 4.4-6.7 6.1-8m0-3.2-1.5 1.2-.3.2c-2.7 2.1-8.4 6.3-6.6 10.8l.2.6.5.4c5.4 4.6 7.8 6.6 14.6 10.4a62.7 62.7 0 0 0 21.1 8.1l1 .1.8-.6c4.6-3.6 6.9-9.6 5.2-13.7l-.6-1.4-1.5-.1c-3.6-.3-11-.9-18.1-5.4-7.3-4.7-7.8-5-13.3-9.2l-1.5-1.4z"/>
    </g>
    <g>
      <path stroke="none" d="M345.6 264.1c-1.3 0-2.1-1.2-3.3-3.1a46.7 46.7 0 0 0-22.8-18.5l-.5-.2-.2-.4a6 6 0 0 1 0-5.2 9.2 9.2 0 0 1 5.9-5l.3-.1.3.1c5 1.6 9.4 5.9 15.5 12.1a26.4 26.4 0 0 1 7 17.7c-.2 1.1-.6 1.8-1.2 2.2-.3.3-.6.4-1 .4z"/>
      <path stroke="none" fill="#000" d="M325 232.9c4.7 1.5 9 5.6 15 11.8 6 6.2 7.9 16.9 6.1 18l-.4.1c-1.6 0-3-5.9-10.3-12a47.5 47.5 0 0 0-15.4-9.5c-1.6-2.8.9-7.4 5-8.4m.1-2.6-.7.2c-3 .7-5.5 2.9-6.7 5.7a7 7 0 0 0 .1 6.3l.5.8.9.3c6 2 11.7 6.5 14.5 9 4 3.4 6.1 6.7 7.5 8.9 1.3 2.1 2.4 3.7 4.4 3.7.6 0 1.1-.2 1.6-.4 1-.6 1.6-1.6 1.8-3.1.6-4.1-1.9-13.2-7.3-18.8a44.6 44.6 0 0 0-16-12.5l-.6-.1z"/>
    </g>
    <g>
      <path stroke="none" d="M292.3 179.8c-3 0-5.4-4-7.4-7.9l-.6-1.2.7-.6 3-2.6c2.7-2.3 3.9-3.4 8.5-8.3 6-6.4 8.2-14.4 9.1-17.9l.2-.7.7-.2 1.2-.1c3.6 0 7.8 3 9.9 7.1l.2.5-.2.5a70.3 70.3 0 0 1-11.7 19.4c-4.2 5.2-6.4 6.9-10.5 10.1l-2 1.6-.2.2-.3.1h-.6z"/>
      <path stroke="none" fill="#000" d="M307.8 141.6c3 0 6.8 2.6 8.8 6.4-1.9 6-6.7 13.1-11.5 19-4.8 5.8-6.9 7.2-12.3 11.6h-.4c-2.8 0-5.5-5.6-6.4-7.5 5.2-4.6 5.5-4.6 11.5-11s8.3-14.5 9.4-18.4l.9-.1m0-2.5-1.5.2-1.5.3-.4 1.5a41 41 0 0 1-8.8 17.3 83.3 83.3 0 0 1-8.4 8.2l-3 2.6-1.4 1.3.9 1.7.2.3c2.2 4.4 4.8 8.6 8.5 8.6l.9-.1.6-.1.5-.4 2-1.6c4.1-3.3 6.4-5.1 10.7-10.3a68 68 0 0 0 12-19.8l.3-1-.5-.9c-2.4-4.6-7-7.8-11.1-7.8z"/>
    </g>
    <g>
      <path stroke="none" d="M313.6 150.7c-3.7 0-7.1-3.7-7.4-7.9v-.4l.2-.3a50.9 50.9 0 0 1 16-16 48.3 48.3 0 0 1 21-6.4c1.3 0 3.1.2 3.5 1.5.7 2-1.6 3.2-5.9 5.3-3.4 1.7-8.1 4-12.1 7.3a39.7 39.7 0 0 0-13.1 16l-.2.5-.5.2-1.5.2z"/>
      <path stroke="none" fill="#000" d="M343.4 120.9c1.3 0 2.2.2 2.3.6.7 2-9.7 4.7-17.6 11.2a39.8 39.8 0 0 0-13.4 16.5l-1.2.2c-2.8 0-5.9-3-6.1-6.7A49.6 49.6 0 0 1 323 127a48.6 48.6 0 0 1 20.4-6.1m0-2.5c-4.9 0-15.6 2.5-21.7 6.6a51.3 51.3 0 0 0-16.4 16.4l-.4.7v.8c.3 4.8 4.3 9.1 8.6 9.1.7 0 1.3-.1 1.9-.3l1-.3.5-1c3.7-8.1 8.1-12 12.7-15.6 3.8-3.2 8.5-5.5 11.8-7.1 4.4-2.2 7.6-3.8 6.5-6.8-.6-2.5-3.5-2.5-4.5-2.5z"/>
    </g>
    <g>
      <path stroke="none" d="m254.5 191.8.9-1.2c8-9.7 14.4-12.5 19.1-14.5l2.9-1.3c2.6-1.3 5.1-2.8 7.2-6.3a2 2 0 0 1 1.6-.9c2.8 0 8.2 5.8 9.4 8.9.7 1.9.2 2.9-.4 3.5a30.4 30.4 0 0 1-13.2 5.9 29.3 29.3 0 0 0-17.7 10.2l-.7.8-9.1-5.1z"/>
      <path stroke="none" fill="#000" d="M286.3 169c2.5 0 10.3 8.3 8.2 10.2-9.5 7.9-20.4 3.3-31 16.3l-7.1-4c9.6-11.7 16.6-13 21.6-15.5 2.6-1.3 5.4-2.9 7.7-6.8l.6-.2m0-2.5c-1.1 0-2.1.5-2.6 1.4v.2a14.6 14.6 0 0 1-6.7 5.8l-2.8 1.3c-4.8 2-11.4 4.9-19.6 14.8l-1.9 2.3 2.6 1.5 7.1 4 1.8 1 1.3-1.6a28 28 0 0 1 17-9.8c4.5-1.2 9.2-2.4 13.6-6.1h.2c.7-.7 1.7-2.2.7-4.8-1.5-3.9-7.3-10-10.7-10z"/>
    </g>
    <g>
      <path stroke="none" d="M288.3 228.8c-.4 0-.9-.1-1.2-.3-3.5-2.4-5.7-4.8-7.7-6.9-4-4.2-7.2-7.5-18-9.4l-.9-.2-1.1-10.4h1.4c10 0 15.8 3.7 21.3 7.4 4 2.6 7.8 5.1 13.1 6.1h.2c.5.2 1.6.8 1.2 2.9-.5 3-4.9 10.8-8.3 10.8z"/>
      <path stroke="none" fill="#000" d="M260.8 202.9c16.8 0 21.2 11 34.2 13.4 2.2.8-3.8 11.2-6.7 11.2-.2 0-.4 0-.6-.2-10.1-7.1-9.6-13.5-26.1-16.4l-.8-8m0-2.5H258l.3 2.8.8 8.1.2 1.9 1.9.3c10.3 1.8 13.2 4.8 17.3 9 2 2.1 4.3 4.5 7.8 7h.2c.6.3 1.2.5 1.9.5 4.3 0 9-8.4 9.6-11.8.4-2.5-.8-3.8-2.1-4.2l-.2-.1h-.2c-5.1-1-8.8-3.4-12.7-5.9-5.5-3.6-11.6-7.6-22-7.6z"/>
    </g>
    <path class="tertiary" d="M226.6 256.7c1.5 1.4 4.1-3.5 6-3.6 1.4-.1 2.7 1 4.1 1 2.2 0 2.2-2.6 4.2-1.7.7.3 1.3 1 2 1.1 2 .3 3-3.5 4.4-5.3 1.9-2.3 5.8-1.4 6.7-4.5.5-1.5 0-3.5.9-4.6.5-.6 1.2-.8 1.9-1.2 3.2-2.2 4.6-9.2 6.8-12.9l1.4-2c.4-.8.4-1.8.5-2.8.2-4.2-2-3.9-1.9-8.1 1.2-.9 3.3-7.6 2.9-9.2-.3-1-2.9-3.5-3.1-4.5-1.2-4.5.4-7.5-2.7-10.3.5-3.5-2.1-7.1-4.9-6.8-.5.1-.9.2-1.4-.1-1.2-.7-.5-3.1-1.4-4.3-.9-1.4-2.8-.1-4.2-.6-1.3-.5-2-2.3-2.9-3.6s-5-1.7-5.3 0c-1.1-2-5.1-2.8-7.1-2.8-6.6 0-6.9 5.1-6.9 5.1s-1.7-5.1-6.9-5.1c-2 0-6 .8-7.1 2.8-.3-1.7-4.4-1.3-5.3 0s-1.6 3.2-2.9 3.6c-1.4.5-3.2-.8-4.2.6-.8 1.2-.2 3.6-1.4 4.3-.4.2-.9.1-1.4.1-2.8-.3-5.4 3.3-4.9 6.8-3.1 2.8-1.5 5.7-2.7 10.3-.3 1-2.9 3.5-3.1 4.5-.4 1.7.5 9.9 1.7 10.7.2 4.2-.8 2.4-.7 6.6 0 1 .1 1.9.5 2.8.3.8.9 1.3 1.4 2 2.2 3.7 3.6 10.6 6.8 12.9.6.4 1.4.6 1.9 1.2.9 1.2.4 3.1.9 4.6 1 3.1 4.8 2.2 6.7 4.5 1.5 1.8 4.4 5.6 6.4 5.3.7-.1 1.3-.8 2-1.1 2-.9 2.1 1.7 4.2 1.7 1.4 0 2.7-1.1 4.1-1 1.9.1 2.4 2.2 4 3.6z"/>
    <g>
      <path stroke="none" fill="#000" d="M227.8 174.9v5.7l-.1 5.7-.2 5.7c-.1 1.9-.2 3.8-.8 5.7h-.3a28 28 0 0 1-.8-5.7l-.2-5.7-.1-5.7v-5.7h2.5z"/>
    </g>
    <path class="tertiary" d="M244.7 390.4s-8.6 2-18.1 2c-9.6 0-18-2-18-2-6.8-4.2-12.7-14.4-12-22.3 0 0 11.9 3 30 3s30-3 30-3c.8 7.9-5.2 18.1-11.9 22.3z"/>
    <g stroke="none" fill="#000">
      <path d="m256.6 243.4 4.5 9.8a423.4 423.4 0 0 1 8.5 19.9l4.1 10 .2.4-.1.4-3.2 11-.4-1.3 11.6 9.5 11.5 9.6.2.2.1.2 12.4 28.4 6.1 14.2c2 4.7 4.1 9.5 6 14.3l-.4.2-6.7-14-6.6-14-13-28.1.3.4-11.6-9.5-11.6-9.5-.6-.5.2-.8 3.2-11v.8l-3.9-10.1-3.8-10.1-3.7-10.2-3.3-10.2z"/>
      <path d="M299.3 338.2c-4.5-2.4-8.9-5-13.2-7.6l-6.4-4.1-6.3-4.2-.1-.1-.1-.1-4.1-4.3-4.1-4.3-4-4.4-3.9-4.6.3-.3 4.5 3.9 4.4 4 4.3 4.1 4.3 4.2-.2-.2 6.3 4.2 6.2 4.4c4.1 3.1 8.2 6.1 12.1 9.4z"/>
      <path d="M281.5 357.3a97.5 97.5 0 0 1-4.9-17.5c-.6-3-1.2-5.9-1.6-8.9-.5-3-.9-6-1-9.1l.4-.1c1.1 2.9 1.9 5.8 2.7 8.7.8 2.9 1.4 5.9 2.1 8.9l1.6 9c.2 2.9.6 5.9.7 9z"/>
      <path d="M253 309.3c1-1.6 2.2-3 3.5-4.4a78.4 78.4 0 0 1 8.1-7.5c1.5-1.1 3-2.2 4.6-3.1l.3.3c-1 1.6-2.2 3-3.5 4.3-1.2 1.4-2.6 2.6-3.9 3.9l-4.3 3.5a24 24 0 0 1-4.8 3z"/>
      <path d="m250.3 262.2 16.7 4.1h-.2l10.2-.2 10.2-.1h.6l.3.5 6.2 10 6.1 10.1 6.1 10.1 3 5.1 2.7 5.3 10.4 21.2 5.1 10.6 5 10.7-.3.2-5.7-10.3-5.6-10.4-10.9-20.8-2.7-5.2-3-5-6-10.1-6-10.1-5.9-10.2.9.5-10.2-.2-10.2-.3h-.2c-5.7-2-11.2-3.6-16.6-5.5z"/>
      <path d="M319.3 324a58.3 58.3 0 0 1-6.7 17.4c-1 1.8-2.1 3.6-3.3 5.3l-.4-.2c.4-2.1 1.1-4 1.8-6a69.2 69.2 0 0 1 8.6-16.5z"/>
      <path d="M275.7 286.1a60.3 60.3 0 0 1 18.4 4.3c2 .7 3.9 1.5 5.8 2.6l-.1.4c-2.1-.1-4.2-.5-6.3-.9-2.1-.4-4.1-1-6.1-1.5l-6-2c-1.9-.9-3.8-1.8-5.7-2.9z"/>
      <path d="M246.5 195.3a3 3 0 0 1 1.3 1.8c.2.7.2 1.5 0 2.2-.2.7-.6 1.4-1.1 1.9a3 3 0 0 1-2.1.9l.4-2 .4-1.6.5-1.5.6-1.7z"/>
      <path d="M233.9 207.4c.6.5 1 1 1.3 1.5l.8 1.5.6 1.6c.1.6.3 1.2.3 2-.8-.1-1.4-.5-1.9-.9a4.5 4.5 0 0 1-1.6-3.6 3 3 0 0 1 .5-2.1z"/>
      <path d="M250.3 221.5c.7.5 1.1 1.2 1.4 1.9.2.7.3 1.5.2 2.3-.1.8-.4 1.5-.8 2.2-.4.6-1 1.2-1.8 1.5l-.1-2.2.1-1.8.3-1.8.7-2.1z"/>
      <path d="M239 235.2a13.8 13.8 0 0 1 1.2 3.7l.3 1.7.1 2.1c-.8-.2-1.4-.7-1.9-1.3a4 4 0 0 1-.9-2c-.2-.7-.1-1.5 0-2.2.2-.8.6-1.5 1.2-2z"/>
      <path d="M241 187c-.3-.7-.3-1.4-.2-2 .1-.6.4-1.2.8-1.7s.8-.9 1.4-1.3c.6-.3 1.2-.5 2-.5-.1.8-.3 1.3-.6 1.8l-.8 1.4-1.1 1.2-1.5 1.1z"/>
      <path d="M256 205.8c.4.6.6 1.2.8 1.7l.2 1.6-.3 1.6c-.2.5-.4 1.1-.9 1.7a3.8 3.8 0 0 1-1.3-3.3c0-.6.2-1.1.4-1.7a3 3 0 0 1 1.1-1.6z"/>
      <path d="M225.7 222.9a3 3 0 0 1 2-.3c.6.1 1.2.4 1.7.9.5.4.9 1 1.1 1.6.2.6.3 1.3 0 2l-1.6-.9-1.2-.9-1-1-1-1.4z"/>
      <path d="M214.6 218.8c.5-.8.8-1.5 1-2.2l.5-2 .5-2.2c.2-.8.4-1.6.8-2.5a6.6 6.6 0 0 1 1.1 5.3c-.2.9-.7 1.9-1.4 2.6-.6.6-1.5 1.1-2.5 1z"/>
      <path d="M213.7 202.1c-.1-.8 0-1.5.1-2.2l.4-1.8.6-1.7c.3-.6.5-1.2 1-1.9.6.6.8 1.4.9 2.1a5.5 5.5 0 0 1-1.1 4.2c-.5.6-1.1 1.1-1.9 1.3z"/>
      <path d="m203.7 190 1.3-1.9 1.2-1.5 1.3-1.4 1.7-1.6c.3.8.3 1.7.1 2.5-.2.8-.6 1.5-1.1 2.1a7 7 0 0 1-1.9 1.5c-.9.3-1.7.5-2.6.3z"/>
      <path d="M197.6 204.8c1 .5 1.6 1.4 2.1 2.3.5.9.8 2 .8 3 .1 1.1-.1 2.1-.5 3.1s-1 1.9-1.9 2.5v-2.9l-.1-2.6-.2-2.6-.2-2.8z"/>
      <path d="M202.8 225.4c.7.5 1.1 1.1 1.5 1.6a10.5 10.5 0 0 1 1.4 3.7 8 8 0 0 1 0 2.2c-.8-.4-1.3-.9-1.8-1.4-.5-.6-.8-1.2-1-1.8-.2-.7-.4-1.3-.4-2.1-.1-.7 0-1.5.3-2.2z"/>
      <path d="M213.9 234.5a7 7 0 0 1 2.1.1l1.8.4 1.7.6c.6.3 1.2.6 1.8 1.1-.6.5-1.4.8-2.1.9a5.5 5.5 0 0 1-4.1-1.2c-.4-.6-.9-1.1-1.2-1.9z"/>
    </g>
  </g>
</svg>
