<svg xmlns="http://www.w3.org/2000/svg" fill="#d7374a" stroke="#000" viewBox="50 50 200 200">
  <metadata source="http://www.wappenwiki.org/images/b/bb/Barberini.svg" license="https://creativecommons.org/licenses/by-nc-sa/3.0"/>
  <g id="bee" stroke-width="0.5475">
    <path d="M108.43 117.73a6.53 6.53 0 0 1-1.83 5.58c.17 1.73-1.14 3.97-2.61 4.89.06 1.88-1.67 4-3.96 4a4.05 4.05 0 0 1-3.95-4c-1.49-.92-2.78-3.16-2.6-4.89a6.53 6.53 0 0 1-1.84-5.58c.2-1.53-1.16-2.96-1.4-4.49-.6-3.92-.73-8 .43-11.78s3.73-7.3 7.38-8.85 8.35-.83 10.84 2.23c1.34 1.62 1.98 3.75 2.15 5.83s-.04 4.2-.28 6.28l-.77 6.7"/>
    <g>
      <path stroke="none" d="M98.8 75.02c-.53 0-1.4-.48-1.77-.8l-.03-.03a10.3 10.3 0 0 1-2.34-5.14c-.28-1.17-.57-2.4-1.18-3.53-.75-1.53-2.35-3.13-3.31-4.12-.72-.74-.85-.87-.83-1.07v-.09l.06-.06c.05-.05.14-.11.27-.11.68 0 3.9 2.03 5.43 4.92.65 1.16.9 2.3 1.14 3.4.35 1.58.68 3.06 2.14 4.64.99 1.12 1.01 1.5.9 1.73-.04.11-.17.26-.48.26z"/>
      <path stroke="none" fill="#000" d="M89.67 60.35a11.17 11.17 0 0 1 5.19 4.8c1.55 2.76.76 5.32 3.33 8.08 1.03 1.18 1 1.55.6 1.55s-1.22-.41-1.59-.74c-2.5-2.67-1.93-5.74-3.5-8.63-1.12-2.3-4.12-4.77-4.1-5.01.02-.05.04-.05.07-.05m0-.55a.66.66 0 0 0-.49.2l-.1.13-.03.18c-.04.33.13.5.9 1.29.94.96 2.52 2.54 3.24 4.03v.04c.62 1.12.88 2.26 1.16 3.46a10.64 10.64 0 0 0 2.41 5.28l.02.02.03.02c.39.38 1.33.9 1.95.9.48 0 .67-.3.74-.44.2-.45-.07-1.02-.94-2.01-1.43-1.51-1.73-2.98-2.08-4.51a11.6 11.6 0 0 0-1.18-3.46c-1.5-2.94-4.78-5.13-5.63-5.13z"/>
    </g>
    <path class="tertiary" d="M106.14 110.2s-2.54.85-6.14.85-6.13-.85-6.13-.85l-1.7 6.98s3.08.86 7.86.86c4.77 0 7.86-.86 7.86-.86z"/>
    <path class="tertiary" d="M93.87 102.88s2.54.86 6.13.86 6.14-.86 6.14-.86c-4.91-15.02-8.65-8.8-12.27 0z"/>
    <path d="M88.73 118.36c-.57 1.84-.4 3.55-.82 5.33a9 9 0 0 1-2.56 4.8c-1.31-.12-2.45-1-2.6-1.85.9-.68 1.99-1.77 2.54-3.92.54-2.12.2-3.55.83-5.34.61.06 2.45.15 2.6.98z"/>
    <g>
      <path stroke="none" d="M80.07 139.87c-.08 0-.24-.04-.35-.22-.59-.8-.78-4.88-.2-6.94a17.74 17.74 0 0 1 3.47-6.2l.06-.06.1-.03a2.34 2.34 0 0 1 2.18.6 1.49 1.49 0 0 1 .46 1.05v.1l-.09.1a14.85 14.85 0 0 0-3.72 5.47c-.53 1.29-.77 2.78-.99 3.96-.26 1.45-.39 2.17-.92 2.17z"/>
      <path stroke="none" fill="#000" d="M83.67 126.64c.96 0 1.84.68 1.81 1.43a15.07 15.07 0 0 0-3.78 5.58c-1.06 2.6-1.03 5.94-1.6 5.94-.57-.03-.97-4.54-.31-6.82a17.45 17.45 0 0 1 3.4-6.08l.48-.05m0-.54c-.22 0-.42.02-.62.06l-.17.04-.11.14a17.85 17.85 0 0 0-3.5 6.28c-.62 2.17-.4 6.3.24 7.18.2.27.43.33.56.33H80.1c.74 0 .87-.85 1.14-2.38.2-1.16.43-2.63.96-3.9a14.73 14.73 0 0 1 3.66-5.37l.17-.15v-.24c0-.44-.17-.88-.52-1.25a2.63 2.63 0 0 0-1.84-.74z"/>
    </g>
    <path class="secondary" d="M102.1 93.44c0 1.75-2.14.22-3.34 1.5a11.65 11.65 0 0 0-2.92 6.78c-.06.72.07 1.45.16 2.17.3 2.28.37 4.58.17 6.88a11.9 11.9 0 0 1-1.23 4.84 5.47 5.47 0 0 1-3.85 2.9c-.2 2.04-1.97 3.88-3.37 5.37s-3.18 2.57-5.08 3.33c-2.15.86-5.72 2.9-8.5 1.3-2-2.48-1.18-5.24-.15-7.76 2.1-5.14 3.79-9.9 6.7-14.63 1.49-2.4 3.61-5.56 5.32-7.84 3-4.03 5.12-7.64 8.12-11.67l7.98 6.83z"/>
    <g>
      <path stroke="none" d="M79.05 96.1c-.9-.7-1.38-1.91-1.06-2.68l.07-.15.17-.02a8.92 8.92 0 0 0 4.1-1.23c1.6-1.03 1.7-1.1 2.93-2.04l.18-.13.24.18c.55.41 1.67 1.27 1.36 2.03l-.02.07-.05.04a14.15 14.15 0 0 1-3.15 2.24 13.7 13.7 0 0 1-4.51 1.73l-.11.02-.15-.07z"/>
      <path stroke="none" fill="#000" d="M85.42 90.2c.37.29 1.57 1.16 1.33 1.77a14.96 14.96 0 0 1-3.1 2.22c-1.45.79-3.05 1.53-4.43 1.7-.83-.63-1.23-1.7-.96-2.34a8.9 8.9 0 0 0 4.2-1.27c1.64-1.07 1.75-1.16 2.96-2.08m0-.7-.33.26c-1.2.92-1.31 1.01-2.91 2.02-1.56.98-3.18 1.11-3.97 1.18l-.33.02-.13.3c-.37.9.11 2.22 1.14 3l.18.14.22-.02c1.22-.15 2.69-.7 4.62-1.78a13.98 13.98 0 0 0 3.2-2.27l.1-.09.05-.13c.4-.99-.86-1.9-1.45-2.37l-.06-.04-.33-.22z"/>
    </g>
    <g>
      <path stroke="none" d="M73.94 100.54a.44.44 0 0 1-.22-.07c-.15-.09-.24-.24-.26-.48a5.78 5.78 0 0 1 1.53-3.88c1.34-1.38 2.28-2.3 3.4-2.65l.06-.02.07.02a1.97 1.97 0 0 1 1.3 1.1 1.31 1.31 0 0 1 0 1.14l-.05.09-.11.04a10.23 10.23 0 0 0-5 4.05c-.26.4-.43.66-.72.66z"/>
      <path stroke="none" fill="#000" d="M78.45 93.7c.92.22 1.45 1.23 1.12 1.82a10.64 10.64 0 0 0-3.37 2.08c-1.6 1.34-1.9 2.63-2.26 2.63l-.09-.02c-.39-.22.03-2.58 1.34-3.94 1.3-1.34 2.23-2.24 3.26-2.56m-.02-.57-.15.04c-1.16.37-2.15 1.31-3.5 2.72-.68.7-1.1 1.57-1.3 2.19a4.51 4.51 0 0 0-.3 1.92c.04.33.17.55.39.68.11.07.24.09.35.09.44 0 .68-.35.96-.81a10.03 10.03 0 0 1 4.82-3.92l.2-.07.1-.17c.23-.4.23-.9.03-1.38a2.26 2.26 0 0 0-1.47-1.25l-.13-.04z"/>
    </g>
    <g>
      <path stroke="none" d="m85.62 82.08-.16-.03-.06-.02-.05-.04-.44-.35c-.87-.7-1.38-1.1-2.3-2.21a14.9 14.9 0 0 1-2.56-4.25l-.04-.11.04-.11c.46-.9 1.36-1.56 2.17-1.56l.26.03.16.04.04.15c.2.75.7 2.52 2 3.92 1 1.08 1.26 1.3 1.85 1.82l.66.57.16.13-.14.26c-.39.88-.92 1.76-1.6 1.76z"/>
      <path stroke="none" fill="#000" d="m82.22 73.71.22.02c.24.86.74 2.63 2.06 4.03 1.31 1.4 1.38 1.4 2.52 2.41-.2.42-.8 1.64-1.4 1.64h-.1c-1.2-.96-1.66-1.24-2.69-2.54a14.02 14.02 0 0 1-2.51-4.16c.41-.85 1.27-1.4 1.9-1.4m0-.55c-.9 0-1.9.73-2.4 1.69l-.12.2.07.22a14.45 14.45 0 0 0 2.63 4.33 11.7 11.7 0 0 0 2.34 2.26l.44.35.1.09.14.02.2.02c.8 0 1.37-.9 1.86-1.88l.04-.07.2-.37-.3-.29-.67-.57c-.57-.5-.83-.74-1.84-1.8-1.27-1.35-1.73-3.06-1.92-3.78l-.09-.33-.33-.07-.35-.02z"/>
    </g>
    <g>
      <path stroke="none" d="m80.95 75.7-.35-.04-.1-.04-.05-.11a8.41 8.41 0 0 0-2.87-3.5c-.88-.73-1.9-1.23-2.65-1.6-.94-.47-1.45-.73-1.3-1.17.12-.28.49-.33.77-.33 1.03 0 3.33.55 4.6 1.4a11.15 11.15 0 0 1 3.5 3.51l.05.07v.08c-.04.92-.79 1.73-1.6 1.73z"/>
      <path stroke="none" fill="#000" d="M74.42 69.18c1.01 0 3.25.54 4.45 1.33a10.42 10.42 0 0 1 3.42 3.44c-.05.83-.73 1.47-1.34 1.47a1.1 1.1 0 0 1-.26-.05 9.07 9.07 0 0 0-2.94-3.6c-1.73-1.43-4-2.02-3.85-2.46.04-.09.24-.13.52-.13m0-.55c-.21 0-.85 0-1.02.5-.25.66.45 1.01 1.42 1.5.74.36 1.75.87 2.58 1.55a8.4 8.4 0 0 1 2.78 3.41l.11.22.22.07c.13.04.29.06.42.06.94 0 1.82-.92 1.88-1.99v-.17l-.09-.16a11.23 11.23 0 0 0-3.59-3.59 10.73 10.73 0 0 0-4.7-1.4z"/>
    </g>
    <g>
      <path stroke="none" d="M91.73 85.67a6.42 6.42 0 0 0-3.88-2.24 6.85 6.85 0 0 1-2.9-1.27c-.12-.13-.25-.35-.08-.76.26-.68 1.47-1.95 2.06-1.95.15 0 .28.06.35.17.46.77 1.03 1.1 1.6 1.38l.63.29c1.03.44 2.43 1.03 4.19 3.17l.2.27-2.04 1.13-.13-.2z"/>
      <path stroke="none" fill="#000" d="M86.93 79.71c.06 0 .1.02.13.07a3.9 3.9 0 0 0 1.69 1.49c1.07.54 2.62.83 4.73 3.37l-1.56.87c-2.32-2.82-4.7-1.81-6.79-3.57-.43-.43 1.27-2.23 1.8-2.23m0-.55c-.75 0-2.02 1.34-2.32 2.13-.24.59 0 .92.15 1.05h.04c.97.8 2 1.07 2.98 1.33 1.3.33 2.52.66 3.73 2.15l.28.35.4-.22 1.55-.87.57-.33-.42-.5A9.81 9.81 0 0 0 89.6 81a3.98 3.98 0 0 1-.61-.28 3.2 3.2 0 0 1-1.47-1.27v-.05a.88.88 0 0 0-.6-.24z"/>
    </g>
    <g>
      <path stroke="none" d="M86.5 92.8c-.75 0-1.74-1.7-1.85-2.36-.09-.46.15-.59.26-.63h.05c1.16-.22 2-.77 2.87-1.34 1.22-.79 2.47-1.62 4.66-1.62h.3l-.23 2.28-.2.04c-2.34.42-3.04 1.14-3.94 2.06-.44.46-.94.96-1.69 1.49-.04.07-.13.09-.24.09z"/>
      <path stroke="none" fill="#000" d="m92.54 87.14-.18 1.77c-3.61.63-3.5 2.04-5.72 3.6l-.13.03c-.63 0-1.95-2.3-1.46-2.45 2.84-.57 3.78-2.95 7.49-2.95m.59-.55h-.62c-2.27 0-3.63.87-4.81 1.66-.86.55-1.67 1.1-2.79 1.3h-.04l-.04.02c-.29.08-.55.39-.46.92.13.74 1.16 2.58 2.1 2.58a.9.9 0 0 0 .42-.1h.04a11.3 11.3 0 0 0 1.7-1.54c.88-.92 1.54-1.58 3.8-1.97l.41-.07.05-.42.17-1.77.07-.61z"/>
    </g>
    <g stroke="none" fill="#000">
      <polygon points="100.2882,80.0176 100.0035,86.0401 99.7407,80.0176"/>
      <path d="m93.46 96-.77 2.24-.81 2.23-.83 2.21-.86 2.22v-.18l.7 2.41.05.18-.13.1-2.52 2.09-2.54 2.08.06-.1-2.84 6.16-1.45 3.07-1.47 3.06-.08-.04 1.3-3.13 1.34-3.11 2.72-6.22.02-.04.05-.05 2.51-2.1 2.55-2.08-.1.28-.7-2.4-.02-.1.05-.08a92.16 92.16 0 0 1 1.82-4.38l.94-2.17 1-2.15z"/>
      <path d="M84.08 116.77a38.4 38.4 0 0 1 2.65-2.02l1.36-.96 1.38-.92-.04.04.94-.92.94-.9.96-.87.99-.86.06.07-.85 1-.88.97-.9.94-.9.94-.01.03-.03.02-1.38.92-1.4.9c-.94.54-1.88 1.11-2.89 1.62z"/>
      <path d="M87.98 120.95a30.99 30.99 0 0 1 1.03-5.91c.17-.64.35-1.3.6-1.91l.08.02a29.17 29.17 0 0 1-.57 3.94c-.15.66-.29 1.3-.46 1.93-.24.68-.42 1.32-.68 1.93z"/>
      <path d="M94.22 110.46a8.23 8.23 0 0 1-1.97-1.42 7.86 7.86 0 0 1-.85-.86 6.26 6.26 0 0 1-.77-.94l.07-.07c.37.2.7.44 1 .68a15.7 15.7 0 0 1 1.78 1.64c.26.29.52.6.74.97z"/>
      <path d="m94.84 100.14-3.6 1.14h-.04l-2.23.07-2.24.04.2-.1-1.3 2.23-1.3 2.2-1.32 2.22-.66 1.1c-.22.37-.4.76-.59 1.13l-2.39 4.56-1.22 2.28c-.42.74-.81 1.5-1.25 2.25l-.07-.04 1.1-2.34 1.12-2.33 2.27-4.64.6-1.16.65-1.12 1.34-2.2 1.33-2.22 1.36-2.19.07-.11h.13l2.23.02 2.24.05h-.05l3.62-.84z"/>
      <path d="M79.72 113.66a20.67 20.67 0 0 1 1.89 3.61c.15.42.28.85.4 1.31l-.1.05c-.28-.37-.5-.77-.72-1.16-.22-.4-.41-.81-.59-1.23l-.5-1.27c-.18-.42-.31-.85-.38-1.31z"/>
      <path d="M89.25 105.38a15.4 15.4 0 0 1-3.92 1.34c-.46.08-.9.17-1.38.2l-.02-.1c.41-.22.83-.4 1.27-.57.44-.15.88-.3 1.31-.41s.88-.24 1.34-.33c.48-.04.92-.13 1.4-.13z"/>
    </g>
    <path d="M111.3 118.36c.57 1.84.4 3.55.81 5.33a9 9 0 0 0 2.57 4.8c1.31-.12 2.45-1 2.6-1.85a6.7 6.7 0 0 1-2.54-3.92c-.55-2.12-.2-3.55-.83-5.34-.6.06-2.45.15-2.6.98z"/>
    <g>
      <path stroke="none" d="M119.93 139.87c-.5 0-.63-.72-.87-2.17a15.09 15.09 0 0 0-4.71-9.44l-.09-.08v-.11c0-.38.15-.75.46-1.06a2.37 2.37 0 0 1 2.19-.59l.09.03.06.06a17.74 17.74 0 0 1 3.46 6.2c.6 2.06.38 6.13-.2 6.94-.15.18-.28.22-.39.22z"/>
      <path stroke="none" fill="#000" d="M116.36 126.64c.16 0 .33.02.48.07 1.32 1.53 2.74 3.83 3.4 6.09s.26 6.79-.3 6.8c-.58 0-.56-3.32-1.6-5.93a15.33 15.33 0 0 0-3.8-5.58c-.02-.77.86-1.45 1.82-1.45m0-.54a2.63 2.63 0 0 0-1.84.74 1.66 1.66 0 0 0-.52 1.25v.24l.17.15a15.01 15.01 0 0 1 3.66 5.37 19.47 19.47 0 0 1 .96 3.9c.27 1.53.42 2.38 1.14 2.38h.02c.14 0 .38-.04.57-.33.64-.87.88-5.01.24-7.18a17.67 17.67 0 0 0-3.5-6.28l-.1-.14-.18-.04c-.2-.04-.4-.06-.62-.06z"/>
    </g>
    <path class="secondary" d="M97.92 93.44c0 1.75 2.15.22 3.35 1.5a11.65 11.65 0 0 1 2.92 6.78c.06.72-.07 1.45-.16 2.17a31.38 31.38 0 0 0-.17 6.88 11.9 11.9 0 0 0 1.22 4.84 5.47 5.47 0 0 0 3.86 2.9c.2 2.04 1.97 3.88 3.37 5.37s3.18 2.57 5.08 3.33c2.15.86 5.72 2.9 8.5 1.3 2-2.48 1.18-5.24.15-7.76-2.1-5.14-3.79-9.9-6.7-14.63-1.49-2.4-3.61-5.56-5.32-7.84-3-4.03-5.13-7.64-8.13-11.67l-7.97 6.83z"/>
    <g>
      <path stroke="none" d="M101.23 75.02c-.3 0-.44-.17-.48-.26-.11-.24-.09-.63.9-1.73 1.46-1.58 1.8-3.06 2.14-4.64.24-1.1.5-2.24 1.16-3.4 1.54-2.86 4.73-4.92 5.41-4.92.13 0 .22.06.27.1l.06.07v.09c.02.2-.09.33-.83 1.07a17.39 17.39 0 0 0-3.29 4.1c-.63 1.16-.92 2.36-1.2 3.55-.42 1.73-.83 3.52-2.34 5.14l-.03.02a3.4 3.4 0 0 1-1.77.81z"/>
      <path stroke="none" fill="#000" d="m110.36 60.35.07.02c.02.24-2.98 2.72-4.1 5.02-1.57 2.89-1 5.96-3.5 8.63a3.33 3.33 0 0 1-1.6.74c-.4 0-.42-.37.61-1.55 2.57-2.76 1.78-5.32 3.33-8.08 1.53-2.85 4.69-4.78 5.2-4.78m0-.55c-.86 0-4.15 2.2-5.66 5.08-.68 1.2-.92 2.35-1.18 3.46-.35 1.54-.66 3-2.08 4.52-.88.98-1.14 1.55-.94 2.01.06.13.24.44.74.44.64 0 1.56-.53 1.95-.9l.02-.02.02-.02c1.58-1.69 2-3.5 2.41-5.28.29-1.2.55-2.34 1.16-3.46v-.04c.73-1.47 2.3-3.07 3.25-4.03.78-.8.94-.97.9-1.3l-.03-.17-.09-.09a.66.66 0 0 0-.48-.2z"/>
    </g>
    <path class="tertiary" d="M93.65 77.04c0-2.15.9-3.42 2.35-4.18 2.03-1.1 4-.92 4-.92s2.02-.18 4.05.92c1.45.78 2.35 2.05 2.35 4.18 0 6.07-11.08 4.66-6.35 4.66 4.7.03-6.4 1.4-6.4-4.66z"/>
    <path d="M108.13 75.5c-.42-1.68-1.71-2.67-3.29-2.27-.92.24-1.66 1.9-1.29 3.44.42 1.68 1.25 3.08 2.83 2.7 1.57-.4 2.16-2.18 1.75-3.86z"/>
    <path d="M93.63 79.34c1.58.4 2.39-1 2.83-2.7.37-1.53-.38-3.2-1.3-3.43-1.57-.4-2.84.59-3.28 2.27-.42 1.71.2 3.49 1.75 3.86z"/>
    <g>
      <path stroke="none" d="M120.79 96.14c-1.19-.16-2.63-.7-4.51-1.73a14.9 14.9 0 0 1-3.16-2.24l-.04-.04-.02-.07c-.33-.79.8-1.64 1.35-2.03l.22-.18.18.13c1.22.94 1.33 1 2.93 2.04 1.6 1.03 3.29 1.16 4.1 1.23l.17.02.07.15c.33.77-.13 1.97-1.05 2.67l-.09.07-.15-.02z"/>
      <path stroke="none" fill="#000" d="M114.61 90.2a33.07 33.07 0 0 0 2.96 2.06 8.98 8.98 0 0 0 4.2 1.27c.26.63-.13 1.7-.96 2.34a13.25 13.25 0 0 1-4.43-1.7 14.2 14.2 0 0 1-3.1-2.22c-.25-.61.96-1.46 1.33-1.75m0-.7-.33.26-.06.05c-.6.46-1.84 1.38-1.45 2.36l.04.13.11.1c1.19 1 1.71 1.44 3.2 2.27a13.73 13.73 0 0 0 4.62 1.77l.22.02.18-.13c1-.79 1.5-2.1 1.14-3l-.14-.3-.32-.03c-.8-.06-2.41-.2-3.97-1.18-1.6-1.03-1.7-1.1-2.91-2.01l-.33-.31z"/>
    </g>
    <g>
      <path stroke="none" d="M126.09 100.54c-.29 0-.46-.26-.73-.68a10.23 10.23 0 0 0-4.99-4.05l-.1-.05-.05-.08a1.31 1.31 0 0 1 0-1.14 2.01 2.01 0 0 1 1.29-1.1l.07-.02.06.02c1.1.35 2.06 1.3 3.4 2.65a5.78 5.78 0 0 1 1.53 3.88c-.05.24-.13.4-.26.48a.28.28 0 0 1-.22.09z"/>
      <path stroke="none" fill="#000" d="M121.57 93.7c1.03.33 1.98 1.23 3.29 2.59 1.31 1.36 1.73 3.7 1.34 3.94l-.1.02c-.34 0-.65-1.29-2.25-2.62a10.4 10.4 0 0 0-3.37-2.09c-.35-.6.2-1.62 1.1-1.83m.02-.57-.16.04c-.65.15-1.2.63-1.46 1.25a1.53 1.53 0 0 0 .02 1.38l.1.17.2.07a10.04 10.04 0 0 1 4.82 3.92c.29.46.53.8.97.8.13 0 .24-.03.35-.08.22-.13.35-.35.4-.68.12-.9-.43-2.89-1.6-4.11a9.77 9.77 0 0 0-3.51-2.74l-.13-.02z"/>
    </g>
    <g>
      <path stroke="none" d="M114.41 82.08c-.65 0-1.18-.88-1.62-1.73l-.13-.27.15-.13.66-.57c.6-.5.86-.74 1.86-1.82a8.94 8.94 0 0 0 2-3.92l.04-.15.15-.04.27-.02c.78 0 1.7.65 2.16 1.55l.05.11-.05.11a15.4 15.4 0 0 1-2.56 4.25c-.92 1.14-1.4 1.5-2.3 2.21l-.44.35-.04.04-.06.03h-.14z"/>
      <path stroke="none" fill="#000" d="M117.8 73.71c.67 0 1.5.57 1.94 1.4a14.29 14.29 0 0 1-2.52 4.16c-1.05 1.27-1.51 1.58-2.7 2.54h-.08c-.62 0-1.2-1.22-1.4-1.64 1.13-1 1.2-1 2.51-2.4s1.82-3.18 2.06-4.04l.2-.02m0-.55-.33.05-.33.06-.09.33a8.98 8.98 0 0 1-1.92 3.79 18.24 18.24 0 0 1-1.84 1.8l-.66.56-.3.29.19.37.04.07c.49.96 1.06 1.88 1.87 1.88l.2-.02.12-.02.11-.09.44-.35c.9-.72 1.4-1.12 2.34-2.26a14.9 14.9 0 0 0 2.63-4.33l.07-.22-.11-.2c-.53-1-1.53-1.7-2.43-1.7z"/>
    </g>
    <g>
      <path stroke="none" d="M119.08 75.7c-.81 0-1.56-.8-1.62-1.73v-.08l.04-.07a11.15 11.15 0 0 1 3.5-3.5 10.58 10.58 0 0 1 4.6-1.4c.29 0 .68.04.77.32.15.44-.35.7-1.3 1.16-.74.38-1.76.88-2.64 1.6a8.7 8.7 0 0 0-2.87 3.5l-.04.12-.11.04-.33.04z"/>
      <path stroke="none" fill="#000" d="M125.6 69.18c.29 0 .49.04.5.13.16.44-2.12 1.03-3.85 2.45a8.72 8.72 0 0 0-2.93 3.61l-.26.05c-.62 0-1.3-.66-1.34-1.47a10.86 10.86 0 0 1 3.42-3.44 10.64 10.64 0 0 1 4.46-1.33m0-.55c-1.07 0-3.41.55-4.75 1.45a11.23 11.23 0 0 0-3.59 3.59l-.09.15V74c.07 1.05.94 1.99 1.89 1.99.15 0 .28-.02.41-.07l.22-.06.11-.22a8.4 8.4 0 0 1 2.78-3.42c.83-.7 1.86-1.2 2.59-1.55.96-.49 1.66-.84 1.42-1.5-.13-.54-.77-.54-.99-.54z"/>
    </g>
    <g>
      <path stroke="none" d="m106.14 84.7.2-.26a9.8 9.8 0 0 1 4.18-3.17l.63-.29a3.43 3.43 0 0 0 1.58-1.38.44.44 0 0 1 .35-.2c.61 0 1.8 1.27 2.06 1.95.15.42.04.64-.1.77a6.66 6.66 0 0 1-2.88 1.3 6.42 6.42 0 0 0-3.88 2.23l-.15.17-2-1.12z"/>
      <path stroke="none" fill="#000" d="M113.1 79.71c.55 0 2.26 1.82 1.8 2.23-2.08 1.73-4.47.73-6.8 3.57l-1.55-.87c2.1-2.56 3.64-2.85 4.73-3.4a3.63 3.63 0 0 0 1.69-1.49l.13-.04m0-.55c-.24 0-.46.11-.57.31v.04a3.2 3.2 0 0 1-1.47 1.27l-.61.29a10 10 0 0 0-4.3 3.24l-.4.5.56.33 1.56.88.39.22.28-.35a6.13 6.13 0 0 1 3.73-2.15c.98-.26 2.01-.52 2.98-1.34h.04c.15-.15.37-.48.15-1.05-.33-.85-1.6-2.19-2.34-2.19z"/>
    </g>
    <g>
      <path stroke="none" d="M113.54 92.8a.52.52 0 0 1-.27-.06c-.76-.52-1.24-1.05-1.68-1.51-.88-.92-1.58-1.64-3.94-2.06l-.2-.04-.24-2.28h.3c2.2 0 3.47.81 4.67 1.62.88.57 1.7 1.12 2.87 1.34h.04c.11.04.35.17.27.63-.11.66-1.08 2.37-1.82 2.37z"/>
      <path stroke="none" fill="#000" d="M107.52 87.14c3.67 0 4.64 2.4 7.48 2.93.49.17-.83 2.45-1.46 2.45-.05 0-.09 0-.13-.04-2.22-1.56-2.1-2.96-5.72-3.6l-.17-1.74m0-.55h-.62l.07.61.17 1.77.05.42.41.07c2.26.4 2.9 1.05 3.8 1.97.43.46.93.98 1.7 1.53h.04c.13.07.27.11.42.11.94 0 1.97-1.84 2.1-2.58.09-.55-.17-.84-.46-.92l-.04-.03H115.1c-1.11-.21-1.92-.74-2.78-1.29-1.2-.79-2.54-1.66-4.81-1.66z"/>
    </g>
    <path class="tertiary" d="M100.03 98.92c.32.3.9-.77 1.3-.8.32-.01.6.23.9.23.49 0 .49-.57.93-.37.15.06.28.21.44.24.43.06.65-.77.96-1.16.41-.5 1.27-.31 1.47-.99.1-.33 0-.77.2-1 .1-.14.26-.18.4-.27.71-.48 1.02-2.01 1.5-2.83l.3-.43c.1-.18.1-.4.11-.62.05-.92-.43-.85-.41-1.77.26-.2.72-1.66.63-2.01-.06-.22-.63-.77-.68-.99-.26-.99.1-1.64-.59-2.26.11-.76-.46-1.55-1.07-1.49-.1.03-.2.05-.3-.02-.27-.15-.12-.68-.31-.94-.2-.3-.62-.02-.92-.13-.29-.11-.44-.5-.64-.79s-1.1-.37-1.16 0c-.24-.44-1.12-.61-1.55-.61-1.45 0-1.51 1.11-1.51 1.11s-.38-1.11-1.52-1.11c-.43 0-1.31.17-1.55.61-.07-.37-.96-.28-1.16 0s-.35.7-.64.79c-.3.1-.7-.18-.92.13-.17.26-.04.79-.3.94-.09.05-.2.02-.3.02-.62-.06-1.2.73-1.08 1.5-.68.6-.33 1.24-.6 2.25-.06.22-.63.77-.67.99-.09.37.1 2.16.37 2.34.04.92-.18.52-.15 1.44 0 .22.02.42.1.62.07.17.2.28.31.43.48.82.8 2.33 1.5 2.83.12.09.3.13.4.26.2.27.1.68.2 1.01.22.68 1.06.48 1.47.99.33.39.97 1.22 1.4 1.16.16-.03.29-.18.44-.24.44-.2.46.37.92.37.3 0 .6-.24.9-.22.42.02.52.48.88.79z"/>
    <g>
      <path stroke="none" fill="#000" d="M100.29 81v1.25l-.02 1.25-.05 1.25c-.02.41-.04.83-.17 1.25h-.07a6.13 6.13 0 0 1-.17-1.25l-.05-1.25-.02-1.25V81h.55z"/>
    </g>
    <path class="tertiary" d="M103.99 128.2s-1.88.44-3.96.44c-2.1 0-3.95-.44-3.95-.44-1.49-.92-2.78-3.16-2.62-4.89 0 0 2.6.66 6.57.66s6.57-.66 6.57-.66c.17 1.73-1.14 3.97-2.61 4.89z"/>
    <g stroke="none" fill="#000">
      <path d="m106.6 96 .98 2.15a92.72 92.72 0 0 1 1.86 4.36l.9 2.19.04.09-.02.08-.7 2.41-.09-.28 2.54 2.08 2.52 2.1.05.05.02.04 2.71 6.22 1.34 3.1c.44 1.04.9 2.09 1.31 3.14l-.08.04-1.47-3.06-1.45-3.07-2.84-6.15.06.09-2.54-2.09-2.54-2.08-.13-.1.04-.18.7-2.4v.17l-.85-2.22-.83-2.2-.81-2.24-.72-2.24z"/>
      <path d="M115.95 116.77c-.99-.53-1.95-1.1-2.9-1.67l-1.4-.9-1.38-.92-.02-.02-.02-.02-.9-.94-.9-.94-.87-.97-.86-1 .07-.07.99.85.96.88.94.9.94.92-.04-.05 1.38.92 1.36.97c.9.68 1.8 1.33 2.65 2.06z"/>
      <path d="M112.05 120.95a21.35 21.35 0 0 1-1.07-3.83c-.14-.66-.27-1.3-.35-1.95a15 15 0 0 1-.22-2l.08-.02c.24.64.42 1.27.6 1.9.17.64.3 1.3.45 1.96l.36 1.97c.04.63.13 1.29.15 1.97z"/>
      <path d="M105.8 110.44c.23-.35.49-.66.77-.97a17.17 17.17 0 0 1 1.78-1.64c.33-.24.65-.48 1-.68l.07.07c-.22.35-.48.65-.77.94-.26.3-.57.57-.85.85l-.94.77a5.26 5.26 0 0 1-1.05.66z"/>
      <path d="m105.22 100.12 3.65.9h-.04l2.23-.04 2.24-.03h.13l.06.11 1.36 2.2 1.34 2.2 1.33 2.22.66 1.11.6 1.16 2.27 4.65 1.12 2.32 1.1 2.34-.07.05-1.25-2.26-1.23-2.28-2.39-4.55-.59-1.14-.65-1.1-1.32-2.2-1.31-2.22-1.3-2.23.2.1-2.23-.04-2.24-.06h-.04c-1.25-.44-2.45-.8-3.63-1.2z"/>
      <path d="M120.33 113.66a12.77 12.77 0 0 1-1.47 3.8c-.22.4-.46.8-.72 1.17l-.1-.05c.1-.46.25-.87.4-1.31a15.15 15.15 0 0 1 1.89-3.61z"/>
      <path d="M110.78 105.36a13.2 13.2 0 0 1 4.03.94c.44.15.85.33 1.27.57l-.02.08c-.46-.02-.92-.1-1.38-.2-.46-.08-.9-.21-1.34-.32l-1.31-.44c-.42-.2-.84-.4-1.25-.63z"/>
      <path d="M104.38 85.47a.66.66 0 0 1 .29.4.9.9 0 0 1 0 .48 1 1 0 0 1-.24.41.66.66 0 0 1-.46.2l.08-.44.1-.35.1-.33.13-.37z"/>
      <path d="M101.62 88.12c.14.11.22.22.29.33l.17.33.14.35c.02.13.06.26.06.44a.82.82 0 0 1-.41-.2.99.99 0 0 1-.36-.79.66.66 0 0 1 .11-.46z"/>
      <path d="M105.22 91.2c.15.12.24.27.3.42.05.16.07.33.05.5-.03.18-.1.34-.18.49a.84.84 0 0 1-.4.33l-.02-.48.03-.4.06-.4.16-.45z"/>
      <path d="M102.74 94.2a3.02 3.02 0 0 1 .26.82l.07.37.02.46a.8.8 0 0 1-.41-.28.88.88 0 0 1-.2-.44 1.19 1.19 0 0 1 0-.48.82.82 0 0 1 .26-.44z"/>
      <path d="M103.18 83.65a.77.77 0 0 1-.04-.43c.02-.14.08-.27.17-.38s.18-.2.3-.28c.14-.07.27-.11.44-.11a.93.93 0 0 1-.13.4l-.17.3-.24.26-.33.24z"/>
      <path d="M106.46 87.77c.1.13.14.26.18.37l.04.35-.06.35c-.05.11-.09.24-.2.38a.83.83 0 0 1-.28-.73c0-.13.04-.24.08-.37a.66.66 0 0 1 .24-.35z"/>
      <path d="M99.83 91.52a.66.66 0 0 1 .44-.07c.13.02.26.09.37.2.1.08.2.22.24.35a.6.6 0 0 1 0 .43l-.35-.2-.26-.19-.22-.22-.22-.3z"/>
      <path d="M97.4 90.62c.1-.18.17-.33.22-.48l.1-.44.12-.48c.04-.18.08-.35.17-.55a1.45 1.45 0 0 1 .24 1.16c-.04.2-.15.41-.3.57a.7.7 0 0 1-.55.22z"/>
      <path d="M97.2 86.96c-.02-.18 0-.33.02-.48l.09-.4.13-.37c.07-.13.11-.26.22-.41.13.13.18.3.2.46a1.2 1.2 0 0 1-.24.92.8.8 0 0 1-.42.28z"/>
      <path d="m95.01 84.31.29-.42.26-.32.28-.31.37-.35c.07.17.07.37.03.55-.05.17-.13.32-.24.46a1.53 1.53 0 0 1-.42.32c-.2.07-.37.11-.57.07z"/>
      <path d="M93.67 87.55c.22.11.35.3.46.5.11.2.18.44.18.66.02.24-.02.46-.11.68s-.22.42-.42.55v-.64l-.02-.57-.04-.57-.05-.6z"/>
      <path d="M94.81 92.06c.16.11.24.24.33.35a2.3 2.3 0 0 1 .3.81 1.75 1.75 0 0 1 0 .49c-.17-.1-.28-.2-.39-.31-.1-.13-.17-.26-.21-.4-.05-.15-.1-.28-.1-.46a.92.92 0 0 1 .07-.48z"/>
      <path d="M97.24 94.06a1.53 1.53 0 0 1 .46.02l.4.08.37.14c.13.06.26.13.4.24-.14.1-.31.17-.47.2a1.2 1.2 0 0 1-.9-.27c-.08-.13-.19-.24-.26-.41z"/>
    </g>
  </g>
</svg>
