<svg xmlns="http://www.w3.org/2000/svg" fill="#d7374a" stroke="#000" viewBox="50 50 200 200">
<!--Source: http://wappenwiki.org/images/9/90/Algoursan.svg-->
  <g id="bell" stroke-width=".34">
    <path d="M101.43 70.02s.88-.98 1.77-.98c.96 0 1.65.52 1.65 1.59 0 1.25-1.2 1.8-1.2 3.08s3.34 2.76 3.34 2.76-.7-.74-.7-2.33c0-2.55 1.98-2.44 1.98-4.83 0-2.4-1.99-3.02-3.5-3.02-2.14 0-3.75 1.43-3.75 1.43l.41 2.3z"/>
    <path d="M98.5 70.02s-.88-.98-1.79-.98c-.95 0-1.64.52-1.64 1.59 0 1.25 1.2 1.8 1.2 3.08s-3.35 2.76-3.35 2.76.71-.74.71-2.33c0-2.55-1.98-2.44-1.98-4.83 0-2.4 1.98-3.02 3.5-3.02 2.14 0 3.74 1.43 3.74 1.43l-.4 2.3z"/>
    <path d="M100 62.87c.73 0 1.33.6 1.33 1.33 0 .73-.6 1.46-1.33 1.46s-1.33-.72-1.33-1.46a1.33 1.33 0 011.33-1.33m0-1.74a3.08 3.08 0 100 6.15 3.08 3.08 0 000-6.15h0z"/>
    <path d="M102.22 66.9c0 5.14-1 10.04-2.21 10.04s-2.21-4.9-2.21-10.03a2.21 2.21 0 014.42 0z"/>
    <path d="M100.65 134.24c0 .93 1.08 1.68 1.08 2.9 0 .94-.76 1.72-1.72 1.72h0c-.95 0-1.73-.77-1.73-1.73 0-1.2 1.09-1.96 1.09-2.89"/>
    <path d="M100 133.54c10.01 0 30.42-1.18 30.42-7.8 0-3.5-4.48-8.58-8.19-16.05-2.08-4.21-3.93-12.55-4.62-18.43-1.14-9.85-6.2-17.6-17.6-17.6s-16.46 7.75-17.6 17.6c-.69 5.88-2.54 14.22-4.63 18.43-3.72 7.47-8.19 12.55-8.19 16.06 0 6.61 20.41 7.8 30.42 7.8z"/>
    <path fill="none" d="M69.6 125.76c0-5.05 17.3-6.86 30.4-6.86s30.42 1.8 30.42 6.86"/>
    <path fill="#000" stroke="none" d="M246 672.7c-26.68-5.59-51.93-9.77-74-23.5-7-4.54-14.08-10.46-11.1-19.2 5.05-11.37 19.97-13.62 29.4-16.7 73.4-19.93 147.55-26.13 220.4-26.2 74.3 2.35 152.05 4.3 220.4 26.2 7.92 2.07 25.25 5.7 29.4 16.6 2.6 9.17-4.56 14.72-11.2 19.1-22.42 13.32-50.27 19.34-74 23.6 25.17-6.25 49.53-12.26 72.5-25.9 6.21-4.27 11.15-8.43 9.7-15.9-5.28-8.87-19.3-12.06-27.6-14.8-73.03-20.01-146.93-26.03-219.5-26.1-74 2.32-151.3 6.56-219.5 26-10.46 3.76-22.6 5.22-27.5 14.9-2.09 7.5 4.5 12.11 9.7 15.9 22.43 13.22 48.4 20.61 72.9 26z" transform="translate(53.7 54.6) scale(.11281)"/>
    <path fill="none" d="M116.57 86.16c-1.1-2.9-9.9-4.35-16.57-4.35s-15.47 1.44-16.56 4.35"/>
    <path fill="none" d="M82.41 91.05c1.1-2.91 10.92-4.6 17.58-4.6s16.49 1.69 17.57 4.6"/>
    <path fill="none" d="M128.08 119.86c-4.76-4.24-17.3-5.52-28.08-5.52h.03c-10.77 0-23.32 1.28-28.08 5.52"/>
    <path fill="none" d="M123.69 112.74c-6.04-2.29-15.39-3.04-23.7-3.04h.04c-8.4 0-17.9.77-23.91 3.13"/>
    <path d="M94.92 131.9c0-3.58 3.22-5.79 3.22-8.53v-2.23l1.88-.02c.58 0 1.2 0 1.88.02v2.23c0 2.74 3.22 4.95 3.22 8.53 0 2.8-2.28 5.09-5.09 5.09h0a5.1 5.1 0 01-5.1-5.1z"/>
  </g>
</svg>
