<svg xmlns="http://www.w3.org/2000/svg" fill="#d7374a" stroke="#000" viewBox="50 50 200 200">
  <metadata source="http://wappenwiki.org/images/9/90/Algoursan.svg" license="https://creativecommons.org/licenses/by-nc-sa/3.0"/>
  <g id="bell" stroke-width=".34">
    <path d="M101.43 70.02s.88-.98 1.77-.98c.96 0 1.65.52 1.65 1.59 0 1.25-1.2 1.8-1.2 3.08s3.34 2.76 3.34 2.76-.7-.74-.7-2.33c0-2.55 1.98-2.44 1.98-4.83 0-2.4-1.99-3.02-3.5-3.02-2.14 0-3.75 1.43-3.75 1.43l.41 2.3z"/>
    <path d="M98.5 70.02s-.88-.98-1.79-.98c-.95 0-1.64.52-1.64 1.59 0 1.25 1.2 1.8 1.2 3.08s-3.35 2.76-3.35 2.76.71-.74.71-2.33c0-2.55-1.98-2.44-1.98-4.83 0-2.4 1.98-3.02 3.5-3.02 2.14 0 3.74 1.43 3.74 1.43l-.4 2.3z"/>
    <path d="M100 62.87c.73 0 1.33.6 1.33 1.33 0 .73-.6 1.46-1.33 1.46s-1.33-.72-1.33-1.46a1.33 1.33 0 011.33-1.33m0-1.74a3.08 3.08 0 100 6.15 3.08 3.08 0 000-6.15h0z"/>
    <path d="M102.22 66.9c0 5.14-1 10.04-2.21 10.04s-2.21-4.9-2.21-10.03a2.21 2.21 0 014.42 0z"/>
    <path d="M100.65 134.24c0 .93 1.08 1.68 1.08 2.9 0 .94-.76 1.72-1.72 1.72h0c-.95 0-1.73-.77-1.73-1.73 0-1.2 1.09-1.96 1.09-2.89"/>
    <path d="M100 133.54c10.01 0 30.42-1.18 30.42-7.8 0-3.5-4.48-8.58-8.19-16.05-2.08-4.21-3.93-12.55-4.62-18.43-1.14-9.85-6.2-17.6-17.6-17.6s-16.46 7.75-17.6 17.6c-.69 5.88-2.54 14.22-4.63 18.43-3.72 7.47-8.19 12.55-8.19 16.06 0 6.61 20.41 7.8 30.42 7.8z"/>
    <path d="m 102,121 c -1,4 3,8 3.11,10.91 C 105,139 95,139 95,132 c 0,-3 4,-7 3,-11"/>
    <path fill="none" d="M69.6 125.76c0-5.05 17.3-6.86 30.4-6.86s30.42 1.8 30.42 6.86"/>
    <path fill="none" d="M116.57 86.16c-1.1-2.9-9.9-4.35-16.57-4.35s-15.47 1.44-16.56 4.35"/>
    <path fill="none" d="M82.41 91.05c1.1-2.91 10.92-4.6 17.58-4.6s16.49 1.69 17.57 4.6"/>
    <path fill="none" d="M128.08 119.86c-4.76-4.24-17.3-5.52-28.08-5.52h.03c-10.77 0-23.32 1.28-28.08 5.52"/>
    <path fill="none" d="M123.69 112.74c-6.04-2.29-15.39-3.04-23.7-3.04h.04c-8.4 0-17.9.77-23.91 3.13"/>
    <path fill="none" d="m 80,130 c -4,-1 -8,-2 -8,-4 0,-2 12,-5 28,-5 16,0 28,3 28,5 0,2 -4,3 -8,4"/>
  </g>
</svg>
