<svg xmlns="http://www.w3.org/2000/svg" fill="#d7374a" stroke="#000" viewBox="50 50 200 200">
  <metadata source="https://upload.wikimedia.org/wikipedia/commons/9/93/Meuble_h%C3%A9raldique_Livre_ouvert_2.svg" license="https://creativecommons.org/licenses/by-sa/4.0"/>
  <g id="bookOpen" stroke-width="0.69" transform="translate(61 57.5) scale(0.13)">
    <g transform="matrix(2.5737 0 0 2.9948 -54.1 -418.6)">
      <path stroke-width="1.5" d="M24.7 180.2h226.5l-3 142.7h-221l-2.5-142.7z"/>
      <path class="secondary" d="M32.6 181.9 36 316h203.3l2.9-135.4-9.7-7.3c-21.1 5.9-33.6 2.5-49.2 0-13.8-3-27.7-5.4-45.9 8-11.2-6.1-18.4-14.4-52.7-7.4a102.4 102.4 0 0 1-42.4 0l-9.7 7.9z"/>
      <g fill="none">
        <path d="m137.4 313.2-.1-132.2M139.5 314.2c32-17.8 65.9 4.5 91.2-8"/>
        <path d="M140.3 315.2c32-15.8 67.6 4.9 92.3-6.8"/>
        <path d="M234.9 311c-24.8 9.4-62-7.8-93.7 5.1 36.3-6.9 70 3.3 95.7-2.6l3.3-134.3M234.7 311.3l3.6-133.5M232.6 308.7l3.7-132.5M230.5 306.5l3.8-131.7M135.1 314.2c-32-17.8-65.8 5-91.1-7.4"/>
        <path d="M134.2 315.5c-32-15.8-67.6 5.2-92.3-6.4"/>
        <path d="M39.6 311.5c24.9 9.4 62.1-8.3 93.8 4.6-36.3-6.9-70 3.3-95.7-2.6l-3.4-133M39.9 311.8l-3.6-133M42 309.4l-3.7-132.2M44 307.1l-3.7-131.3M55.3 185.7c30 2.7 49.3-8.6 74.5 1.7"/>
        <path d="M57.3 297.3c30 2.7 47.3-8.6 72.5 1.7M55.7 205.4c18.5 1.7 32.8-2 46.9-2.6M55.9 212c30 2.7 48.7-8.7 74 1.6M56.1 218.6c30 2.7 48.5-8.7 73.7 1.6M57 264.5c30 2.7 47.6-8.7 72.8 1.6M57.1 271.2c30 2.6 47.5-8.8 72.7 1.5M57.1 277.5c21.2 1.9 36.2-3.2 52-2.6M57.2 284.2c30 2.7 47.4-8.7 72.6 1.6M57 290.8c30 2.6 47.6-8.7 72.8 1.6M56.4 225.2c30 2.6 48.2-8.7 73.4 1.6M56.4 231.7c30 2.7 48.2-8.7 73.4 1.6M56.5 238.3c10.6 1 19.6.2 28-.8M56.7 245c30 2.7 47.9-8.9 73.1 1.5M56.8 251.5c30 2.7 47.8-8.8 73 1.5M57 258.2c30 2.6 47.6-9 72.8 1.4M55.6 198.9c30 2.6 49-8.7 74.2 1.6M55.3 192.3c30 2.7 49.3-8.7 74.5 1.6M220.2 185.7c-30 2.7-49.4-8.6-74.6 1.7M182 295.5a68 68 0 0 0-36.4 3.5M219.7 205.4c-30 2.7-48.9-8.6-74 1.7M164.3 209.4c-6 .3-12.1 1.5-18.7 4.2M219.3 218.6c-30 2.7-48.5-8.7-73.7 1.6M218.4 264.5c-30 2.7-47.6-8.7-72.8 1.6M218.3 271.2c-30 2.6-47.5-8.8-72.7 1.5M218.3 277.5c-30 2.7-47.5-8.5-72.7 1.8M218.2 284.2c-30 2.7-47.4-8.7-72.6 1.6M218.4 290.8c-30 2.6-47.6-8.7-72.8 1.6M219 225.2c-30 2.6-48.2-8.7-73.4 1.6M219 231.7c-30 2.7-48.2-8.7-73.4 1.6M188.1 237.1c-14.4-1.7-27.1-3.5-42.5 2.8M218.8 245c-30 2.7-48-8.9-73.2 1.5M218.6 251.5c-30 2.7-47.8-8.8-73 1.5M218.5 258.2c-30 2.6-47.7-9-72.9 1.4M219.9 198.9c-30 2.6-49-8.7-74.3 1.6M220.2 192.3c-30 2.7-49.4-8.7-74.6 1.6"/>
      </g>
    </g>
    <g>
      <path fill="none" stroke-width="4.17" d="M29.3 126 38 527.9h523.2l7.3-405.3-24.8-22c-54.4 17.6-86.4 7.6-126.8 0-35.4-8.8-71.1-16.3-118 23.7-28.7-18.2-47.3-43-135.5-22-36.5 6.3-72.9 11.3-109.3 0L29.3 126z"/>
      <path class="tertiary" stroke-width="4.17" d="M299.8 519.6a49.9 49.9 0 0 0-25 29.9c18 13.1 33.5 13.2 50-.9a60.5 60.5 0 0 0-25-29z"/>
    </g>
  </g>
</svg>
