<svg xmlns="http://www.w3.org/2000/svg" fill="#d7374a" stroke="#000" viewBox="50 50 200 200">
  <metadata source="http://wappenwiki.org/images/2/24/Perm.svg" license="https://creativecommons.org/licenses/by-nc-sa/3.0"/>
  <g id="bookClosed" stroke-width="1.5" transform="translate(-96 -35.4) scale(0.477)">
    <path class="secondary" d="M448.4,201.1h-92.7c0,0-4.3,3.9-1.2,10.8s10.2,9.2,10.2,9.2h103.7L448.4,201.1z"/>
    <rect x="364.7" y="221.1" width="106.7" height="145.7"/>
    <rect x="375.4" y="232" width="85.4" height="123.9"/>
    <path fill="none" stroke-width="1" d="M354 203.7h97.6M353.7 206.1h99.2M353.5 208.5h102M353.2 210.9h104.2M355 213.3h105.5M356.9 215.8h106.8M358.6 218.4h107"/>
    <path stroke-linejoin="round" d="M351.1,349.9c0,13.2,13.7,16.9,13.7,16.9V221.1c0,0-7.1-2.3-10.2-9.2s1.2-10.8,1.2-10.8s-3.6,0.7-4.3,3c-0.4,1.3-0.4,4.4-0.4,4.4v115.1C351.1,323.6,351.1,343.8,351.1,349.9z"/>
    <g class="tertiary">
      <polygon points="460.8,253.3 446.1,232 460.8,232"/>
      <polygon points="375.4,334.6 390.1,355.9 375.4,355.9"/>
      <polygon points="375.4,253.3 390.1,232 375.4,232"/>
      <polygon points="460.8,334.6 446.1,355.9 460.8,355.9"/>
      <path d="M364.7,346.1c-9.3,0-13.7-7.6-13.7-7.6s-2.5-3.7-2.5-8.5s2.5-7.1,2.5-7.1c0,15.6,13.7,16.2,13.7,16.2S364.7,345.3,364.7,346.1z"/>
      <path d="M364.7,326.1c-9.3,0-13.7-7.6-13.7-7.6s-2.5-3.7-2.5-8.5s2.5-7.1,2.5-7.1c0,15.6,13.7,16.2,13.7,16.2S364.7,325.3,364.7,326.1z"/>
      <path d="M364.7,268c-9.3,0-13.7-7.6-13.7-7.6s-2.5-3.7-2.5-8.5c0-4.8,2.5-7.1,2.5-7.1c0,15.6,13.7,16.2,13.7,16.2S364.7,267.2,364.7,268z"/>
      <path d="M364.7,248c-9.3,0-13.7-7.6-13.7-7.6s-2.5-3.7-2.5-8.5s2.5-7.1,2.5-7.1c0,15.6,13.7,16.2,13.7,16.2S364.7,247.2,364.7,248z"/>
    </g>
  </g>
</svg>
