<svg xmlns="http://www.w3.org/2000/svg" fill="#d7374a" stroke="#000" viewBox="50 50 200 200">
  <metadata source="http://wappenwiki.org/images/6/66/Luk.svg" license="https://creativecommons.org/licenses/by-nc-sa/3.0"/>
  <g id="bow" stroke-width=".3">
    <path d="M107 64.5v70.9h-1l-.3-71"/>
    <path d="M100 103s-2.3 3.1-2.3 6.6c0 6.7 4.3 11.4 6.6 16.2a23.5 23.5 0 012.9 9.6c0 3.7-1.4 6.6-4.9 6.6-1.3 0-2.3-.8-2.3-1.9s1.1-2 2.3-2c.6 0 1.1.1 1.6.5.3-.6.9-1.6.9-3.2 0-2.8-3.2-7.4-5.4-11-3.8-6-6.5-8.8-6.5-14.3a13.2 13.2 0 012.4-7.2v-6.1s-2.4-3.3-2.4-7.2c0-5.5 2.7-8.2 6.6-14.4 2-3.5 5.3-8.1 5.3-11 0-1.5-.6-2.5-1-3-.4.3-1 .4-1.5.4-1.3 0-2.3-1-2.3-2s1.1-2 2.3-2c3.5 0 4.9 3 4.9 6.6a24 24 0 01-2.9 9.7c-2.3 4.8-6.6 9.4-6.6 16.2a13.2 13.2 0 002.2 6.6z"/>
    <path d="M95.3 96.8s0-.5 2.3-.5 2.3.5 2.3.5m0 6.1s.1.5-2.2.5c-1.7 0-2.1-.3-2.3-.4h-.1m9.4 33.3v-1h2.5v1zm0-71.8v-1.1h2.5v1z"/>
  </g>
</svg>
