<svg xmlns="http://www.w3.org/2000/svg" fill="#d7374a" stroke="#000" viewBox="50 50 200 200">
  <metadata source="http://wappenwiki.org/images/4/45/Orange.svg" license="https://creativecommons.org/licenses/by-nc-sa/3.0"/>
  <g id="bugleHorn" stroke-width=".57">
    <path d="M124 104.84a121.17 121.17 0 01-10.64-9.16c-.66-.66-1.34-1.34-2-2.09 4.48-6.18 6.73-11.52 6.73-16.54 0-3.14-.98-5.95-2.68-8.32a8.55 8.55 0 00-7.18-3.75 7.91 7.91 0 00-6.93 3.91 15.04 15.04 0 00-2.32 8.16c0 5.09 2.68 10.5 8.02 16.72-3.32 4.18-8.68 9.32-10.9 11.34.79.82 1.6 1.61 2.24 2.52 1.94-1.75 6.6-6.18 9.52-9.6l1.41-1.69 1.75 1.8c3.66 3.63 8.68 7.67 10.93 9.38.64-.93 1.27-1.86 2.05-2.68zm-14.93-13.82c-3.61-4.36-6.73-9.18-6.73-13.95 0-2.45.66-4.57 1.8-6.34a4.78 4.78 0 014.07-2.34c3.45 0 6.5 3.73 6.5 8.7 0 4.69-2.48 9.41-5.64 13.93z"/>
    <path d="M109.07 91.02l2.27 2.6m-4.36.18l2.3 2.54m29.69-9.43s.05-1.68.34-4.3c.07-.93.46-2.29.46-2.63 0-.34-.35-1.64-4.19-1.64-3.84 0-4.45 1.32-4.45 1.64 0 .2.41 1.55.61 2.77.23 1.7.53 4.73.53 4.73l3.25 1.02 2.86-.68c-.05-.02.59-.25.59-.91z"/>
    <path d="M131.13 79.98c0 .3 1.11 1.66 4.45 1.66s4.2-1.32 4.2-1.66"/>
    <path fill="#111" stroke="none" d="M135.54 79.73c1.07 0 1.66.11 2 .2a6.2 6.2 0 01-2 .25 6.7 6.7 0 01-2.05-.25c.4-.09 1.03-.2 2.05-.2m0-.57c-2.66 0-3.1.64-3.1.8 0 .16.78.8 3.08.8s2.88-.62 2.88-.8c.05-.18-.2-.8-2.86-.8z"/>
    <path d="M138.92 87.39l-1.88 1.34h-2.82l-.95-.27s-.8-1.07-1.03-1.07c0 .72.8 5.54-.5 11.88-2.1 10.3-11.63 17.13-23.88 17.13-5.81 0-10.7-3-14.15-7.15-2.27-2.75-4.25-5.91-5.43-14.55-.7-5.24.04-10.15.04-10.83 0-2.89 1.14-4.34 1.14-5.39 0-1.04-1.16-4.95-14.16-4.95s-15.06 4.02-15.06 4.95c1.18 9.3 1.64 9.3 2.18 16.8.98 6.4 3.93 15.37 8.73 21.9 8.09 10.95 17.97 17.7 32.1 17.7 17.2 0 28.54-12.98 32.9-25.36a60.4 60.4 0 002.55-12.32c.52-6.06.22-9.81.22-9.81z"/>
    <path d="M74.92 97.2c10.52 0 13.29-4.27 13.29-4.27s0 0 0 0c-.25-3.25.27-7.97.4-9.47.15-1.87.87-3.96.87-4.98 0-1.04-1.16-4.95-14.15-4.95-13 0-15.07 4.02-15.07 4.95.18 1.84.37 3.5.53 4.98.6 5.68 1.1 8.79 1.45 10.58 0 0 2.16 3.16 12.68 3.16z"/>
    <path d="M75.1 87.27c9.34 0 12.81-2.5 13.52-3.81.64-1.5.86-4.25.86-4.98 0-1.04-1.16-4.95-14.15-4.95s-15.07 4.02-15.07 4.95c0 .32-.18 3.16.53 4.98 1.09 1.31 5.43 3.81 14.31 3.81z"/>
    <path d="M60.26 78.48c0 .91 3.77 4.86 15.04 4.86s14.16-3.84 14.16-4.86"/>
    <path d="M87.28 78.41c0-.72-.98-3.27-12.02-3.27s-12.82 2.64-12.82 3.27c0 .66 3.2 3.32 12.8 3.32 9.58.02 12.04-2.59 12.04-3.32zM62.63 96.7s2.5 2.66 12.77 2.66c10.92 0 13.2-4.27 13.2-4.27s.36-.6.2-1.27c-.16-.68-.59-.91-.59-.91s-2.8 4.27-13.3 4.27c-10.51 0-12.67-3.16-12.67-3.16s-.39.37-.39 1.12c-.02.84.78 1.56.78 1.56z"/>
    <path d="M74.7 121.92s3.85 1.16 11.65-3.15c7.79-4.32 7.97-8.7 7.97-8.7s-.27-1.05-.82-1.6c-.54-.54-1.31-1.18-1.31-1.18s-.07 4.27-7.87 8.59c-7.79 4.32-12.02 3.1-12.02 3.1s.1.76.66 1.65c.6.86 1.73 1.3 1.73 1.3zm60.86-9.22c.2-.84.07-1.66.07-1.66s-1.27.52-4.36-1c-3.1-1.52-3.18-2.84-3.18-2.84s-.8.25-1.48 1.14c-.66.88-.68 1.38-.68 1.38s.32 1.75 3.4 3.27c3.1 1.53 4.96 1.16 4.96 1.16s.7-.04 1.27-1.45z"/>
    <path d="M132.2 88.34s.61 1.57 3.4 1.57c2.82 0 3.42-1.77 3.42-1.77s.18-.41.18-1.2c0-.48-.18-1.03-.18-1.03s-.6 2.02-3.41 2.02c-2.82 0-3.52-1.68-3.52-1.68s-.2.39-.2 1c.04.73.3 1.1.3 1.1z"/>
    <path d="M95.78 106.04c.66 0 1.18.52 1.18 1.18a1.19 1.19 0 11-2.37 0 1.16 1.16 0 011.19-1.18m0-2.25c-1.89 0-3.43 1.55-3.43 3.43s1.54 3.43 3.43 3.43c1.88 0 3.43-1.54 3.43-3.43s-1.55-3.43-3.43-3.43h0zm28.99 2.57c.66 0 1.18.52 1.18 1.18 0 .66-.52 1.18-1.18 1.18-.66 0-1.18-.52-1.18-1.18 0-.63.52-1.18 1.18-1.18m0-2.25a3.44 3.44 0 00-3.43 3.43 3.44 3.44 0 003.43 3.43 3.44 3.44 0 003.43-3.43 3.44 3.44 0 00-3.43-3.43h0z"/>
  </g>
</svg>
