<svg xmlns="http://www.w3.org/2000/svg" fill="#d7374a" stroke="#000" viewBox="50 50 200 200">
  <metadata source="http://wappenwiki.org" license="https://creativecommons.org/licenses/by-nc-sa/3.0"/>
  <g id="bullHeadCaboshed" stroke-width=".3">
    <path d="M111.33 86.02c1.3-.92 2.46-3.23 3.68-4.16 0 0 .76.01 1.7-.66 2.22-1.56 1.93-3.93 1.39-5.24-2.15-5.21-12.23-3.2-16.1-9.99-1.78-3.1-.49-6.9.61-7.31.77-.3-.17 1.61 1 3.44 3.89 6.1 17.3 2.58 23.27 11.02a10.4 10.4 0 011.83 5.84c.26 8.81-8.43 11.97-11.67 12.48-1.72 1.72-2.53-.01-4.2-.01m-24.08-5.41c-1.3-.92-2.45-3.23-3.68-4.16 0 0-.76.01-1.7-.66-2.22-1.56-1.93-3.93-1.39-5.24 2.15-5.21 12.23-3.2 16.1-9.99 1.78-3.1.49-6.9-.61-7.31-.77-.3.17 1.61-1 3.44-4.04 6.35-17.42 2.46-23.27 10.72-1.4 1.96-1.77 4.35-1.83 6.14-.26 8.81 8.44 11.97 11.67 12.48 1.72 1.72 2.53-.01 4.2-.01"/>
    <path d="M114.73 92.4s3.4-1.7 5.41-1.7c3.65 0 5.83 2.27 8.87 2.27 1.83 0 3.4-.85 4.06-1.27.32-.09.3.03.33.23-.08 1.23-1.67 4.56-4.9 6.32-.28.7-2.24 1.92-3.04 1.92-.3.24-1.07.94-3.5.94-3.4 0-7.16-1.94-7.16-2.42M85.21 92.4s-3.4-1.7-5.4-1.7c-3.65 0-5.84 2.27-8.87 2.27-1.83 0-3.4-.85-4.07-1.27-.31-.09-.3.03-.32.23.07 1.23 1.67 4.56 4.9 6.32.28.7 2.23 1.92 3.04 1.92.3.24 1.07.94 3.5.94 3.4 0 7.16-1.94 7.16-2.42"/>
    <path d="M82.7 91.7c-.82 4.79 1.36 5.5 1.24 6.75-1.6 5.22 1.35 6.57 1.35 9 0 1.78.22 1.69.68 3.84.26 1.7 1.8 3.79 2.81 5.78.25.5 1.06 3.97 1.06 4.27 0 .14-1.03 1.82-1.03 4.48 0 3.66 2.14 5.8 3.59 5.8 4.5 0 5.28-.47 7.57-.47 2.3 0 3.06.48 7.58.48 1.45 0 3.58-2.15 3.58-5.8 0-2.67-1.02-4.35-1.02-4.49 0-.3.8-3.78 1.05-4.27 1.01-2 2.56-4.07 2.82-5.78.45-2.15.68-2.06.68-3.84 0-2.43 2.96-3.77 1.35-9-.14-1.25 2.06-1.95 1.23-6.75l-.19-.25c-2.25-1.44-2.4-6.7-1.99-9.5-1.04-1.08-3.32-1.57-6.75-1.57s-5.92 1.2-8.34 1.2c-2.41 0-4.9-1.2-8.33-1.2s-5.71.49-6.76 1.57c.42 2.8.28 8.06-1.99 9.5l-.18.25z"/>
    <path fill="#F2BC51" d="m 108.72,124.86 c -0.13,0.71 -0.84,1.42 -1.24,1.68 0.75,1.32 1.19,2.81 1.2,4.34 0.026,4.78 -3.88,8.67 -8.67,8.67 -4.78,0 -8.67,-3.88 -8.67,-8.67 0,-1.55 0.5,-3.1 1.2,-4.35 -0.63,-0.42 -1.02,-1.04 -1.22,-1.7 -1.22,1.7851 -1.92,3.89 -1.93,6.06 -0.02,5.87 4.75,10.63 10.63,10.63 5.87,0 10.67,-4.75 10.63,-10.63 -0.01,-2.15 -0.72,-4.24 -1.93,-6.03 z"/>
    <path fill="#F6F6F6" d="M111 100.6c0 .43.68 1.2 2.3 1.2 1.22 0 1.83-2.59 1.83-2.8 0-.22-.03-1.36-1.13-1.36-1.2-.01-3 2.99-3 2.96zm-22.04 0c0 .43-.68 1.2-2.3 1.2-1.23 0-1.83-2.59-1.83-2.8 0-.22.03-1.36 1.13-1.36 1.19-.01 3 2.99 3 2.96z"/>
    <path fill="none" stroke-width=".22" d="M112.08 91.93c-.42.47-1.18.92-2.48 1.11-.23.01-.3-.05-.2-.17.47-.6.6-1.19.6-1.67m-2.7 1.4c-.52.38-1.3.7-2.5.9-.16.04-.35.14-.23-.1.42-1-.09-2.3-.09-2.3m-1.43 1.75c-.23.5-.4 1.1-.38 1.77.01.21-.09.21-.34.16a2.14 2.14 0 01-1.55-1m-.56-2s-.2 1.93-2.3 2.42c-.2.01-.34.1-.48-.08.34-.49.35-.87.18-1.2m-2-1.34c-.3.52-.62 1.05-.05 1.77.16.26-.05.24-.28.2-1.27-.22-1.8-.68-2.05-1.21m-1.7-1.83c.62 1.03-1.41 1.35-.25 2.33.03.29-.2.3-.49.3-1.68 0-2.32-.72-2.8-1.5"/>
    <g fill="#000" stroke="none">
      <path d="M95.78 67.1c.23.58-1.3 1.41-1 .97.39-.28.68-.64 1-.97zm-2.04.97c.16.73-.75 1.4-1.41 1.09a1.65 1.65 0 001.41-1.09zm-1.88.78c-.07.53-.9.93-1.16.82.4-.27.79-.53 1.16-.82zM74.02 81.99c-.03.68.8 2.66-.05 1.18-.12-.38-.14-.82.05-1.18zm1.23 2.18c.28.54.67 1.72.01.69a.87.87 0 01-.01-.69zm1.47 1.73c.02.31.8 1.35.12.82-.22-.2-.26-.56-.12-.82zm1.56 1.27c-.09.5 1.32 1.53.7 1.36a1.3 1.3 0 01-.7-1.36zm5.36-5.65c-1.44-.67-3-1.95-2.96-3.68.08 1.68 1.64 2.82 3.07 3.41l-.07.17zM104.3 67.1c.19.4 1.77 1.43.67 1-.34-.2-.71-.6-.67-1zm2.06.97c-.1.76 1.98 1.11.98 1.15-.55-.04-1.1-.58-.98-1.15zm1.87.78c.81.43 1.68 1.31.31.48-.15-.12-.24-.3-.31-.48zm17.85 13.14c.4.55-.02 1.68-.41 1.78a5 5 0 00.41-1.78zm-1.24 2.18c.5.53-.89 1.76-.25.67.09-.22.18-.45.25-.67zm-1.47 1.73c.54.54-.94 1.53-.19.52 0-.19.17-.34.19-.52zm-1.56 1.27c.25.6-.52 1.5-.91 1.38.4-.37.78-.83.91-1.38zm-5.47-5.91c1.43-.6 3-1.72 3.07-3.41.05 1.74-1.54 2.99-2.96 3.69l-.07-.17zm-20.51 8.85c.53.44.07 1.3-.13 1.55l-.19-.11s.16-.23.36-.58c.1-.25 0-.64-.04-.86zm8.75-1.01c-.5.53-.16 1.18.01 2 0 .04-.16.04-.18.08-.3-.47-.46-1.7.17-2.08zm5.48 32.5c-.2-.74-.92-1.2-1.48-1.58.83.03 1.57.7 1.81 1.49l-.17.05zm-6.89-2.68c-1.9.36-3.87.75-5.77.08-1.61-.33 2.07.25 2.74.17 1.02.02 2-.37 3.03-.25zm1.68-37.61c-2.3.95-4.81.17-7.2.5-.65.29-3.73-.83-1.64-.29 2.2.25 4.42-.17 6.62.13.75.01 1.5-.1 2.22-.34zm4.06 41.29c-.01 1.25.19 3.11-1.19 3.93-.4.18-.57.43-.87.47-.23.03.28-.39.46-.5 1.47-.99 1.45-2.41 1.45-3.75-.21-.02.18-.27.15-.15z"/>
      <path d="M108.5 122c-.81.91.22 2.7-1.02 3.33.95-.87-.06-2.64 1.02-3.33zm9.24-27.8c1.92-1.55 4.6-1.64 6.79-.62 2.22.72 4.77.65 6.88-.19-2.73 1.55-6.03.96-8.84-.05-1.63-.54-3.41.08-4.83.86zm4.23.57a5.56 5.56 0 00-3.29 1.71c-.63.19-.87-1.15-.29-.22.95-.68 2.14-1.83 3.57-1.49zM117 97.94c2.8 1.96 6.54 1.95 9.53.44 1.33-.73 3.03-1.94.96-.31-3.07 2.12-7.57 2.45-10.49-.13zm-7.33 28.7c.27-.83.14-1.91-.11-2.66-.68-2.16.8.93.58 1.84-.01.35-.08.82-.28 1.17zm.32.71c.23-.4.37-.86.42-1.29.1.5-.03 1.08-.3 1.53zm-6.24 2.85c-2.52-.3-5.03-.11-7.55.04 2.42-.47 5.07-.56 7.55-.04zm3.8-27.86c-.83 3.13-.28 6.54-1.66 9.57-.38 1.17-1 2.9-.37.47 1.2-3.07.99-6.44 1.8-9.59.1-.12.1-.35.23-.45zm3.51 0c1.11-.27 2.65.65 3.41-.63 1.31-2.06.27 1-1.43 1-.69.01-1.35-.43-1.98-.37zm4.1 3.31c-.4 1.3-.98 2.66-1.52 3.86a7.93 7.93 0 011.52-3.86zm-2.59-8.42c-.11-1.44 3.31-.47 2.09-.43-.71-.11-1.6-.13-2.09.43zm-3.4 4.14c2.33-1.45 2.78-4.27 3.98-6.5 1.2-1.2-.07.09-.17.72-.74 2.23-1.56 4.67-3.81 5.78zm-2.89-7.21c.22.4-.24 1.84-.37 1.58-.05-.56.32-1.03.37-1.58zm.66 1.86c-.4.26-1 1.83-.69.52.15-.25.4-.49.69-.52zm-.32 1.58c-.27 1.11-.8.55-.05.01zm.22.97c.12.78-.5.77-.1.07a.24.24 0 01.1-.07zm.3 1.12c.37.8-.3.76-.07.04l.03-.03zm1.02 15.18c-.29 1.07-.87.5 0 0zm-.11 1.29c.08 1-.52.73-.14.07a.22.22 0 01.14-.07zm.73-3.96c-.31.22-.97 1.45-.7.5.13-.27.42-.5.7-.5zm-.5 1.58c-.58 1-.97.38-.04.01h.04zm.8-15.33c.18-1.12.66-2.61 1.75-3.01-.84.82-1.14 2.04-1.75 3.01zm-19.49 23.07c.22-.76 1.02-1.53 1.81-1.46-.63.35-1.28.82-1.48 1.55 0 .12-.34-.22-.33-.09zm6.61-1.72c1.91.1 3.85.86 5.76.2.8-.29 2.58-.25.86.01-1.9.81-3.99.67-5.87-.07-.24-.09-.54-.06-.75-.14zm-5.09 2.8c.38 1.13.11 2.9 1.36 3.74.73.33 1.64 1.4.2.45-1.58-1.05-1.57-2.76-1.56-4.19z"/>
      <path d="M91.52 121.98c1.05.79.07 2.46 1 3.36-1.25-.75-.18-2.44-1-3.36zM82.2 94.21a6.47 6.47 0 00-6.28-.44c-2.32.78-5.28.89-7.33-.43 3 1.43 6.35.4 9.38-.43a5.8 5.8 0 014.23 1.3zm-4.22.55c1.48-.33 2.59.83 3.58 1.51.45-.7.44.03-.11.21-.83-.08-1.16-1.2-2.06-1.33-.42-.16-1.04-.3-1.41-.39zm4.97 3.19c-3.37 2.87-8.74 2.16-11.73-.9 3.03 2.38 7.76 3.44 11.23 1.16l.51-.26zm7.2 28.99c-.4-.82-.37-2 .03-2.77.64-1.72.44-.57.12.58-.13.59-.15 1.3.05 1.9zm-.22.66a2.02 2.02 0 01-.32-1.56c.04.5.19.97.44 1.36zm2.49-25.26c1.12 2.9.65 6.2 1.74 9.15.42 1.17.85 3.55.09.95-1.43-3.03-1.17-6.42-1.7-9.62.52.18-.37-.52-.13-.48zm-3.53 0c-1.17.1-2.68 1.02-3.5-.31-.91-1.65-.14-.53.62.2.88.63 1.97-.22 2.88.12zm-4.09 3.31c.69 1.13 1.54 2.57 1.46 3.87-.47-1.3-1.12-2.56-1.46-3.87zm2.58-8.41c-.63-.75-1.76-.4-2.53-.42.7-.52 2.23-.65 2.53.42zm3.39 4.14c-2.59-1.15-3.13-4.12-4.13-6.42-1.07-1.26.47.05.55.74.84 2.08 1.56 4.47 3.58 5.68zm2.91-7.22c.12.31.54 2.16.24 1.48-.14-.48-.46-.98-.24-1.48zm-.66 1.85c.99.23.94 1.79.31.34-.11-.1-.2-.24-.31-.34zm.32 1.59c.91.63.3 1.28 0 0zm-.22.97c.57.45-.03 1.08.01.13zm-.3 1.12c.43.55-.45 1.1-.03.09.05 0-.02-.1.03-.09zm19.33-.84c.25 1.15-1.06 3.16.95 1.54.56-.7.77-1.86.16-2.59M87.8 98.85c-.25 1.15 1.06 3.16-.95 1.53-.57-.7-.76-1.84-.17-2.58m5.12 17.07c.62.16.47 1.16.12.25l-.06-.12zm.1 1.28c.6.43-.04 1.24.01.04v-.04zm-.73-3.97c.59-.2 1.08 1.43.55.64a5.61 5.61 0 00-.55-.64zm.5 1.59c.83.1.8 1.2.12.12a.46.46 0 00-.12-.12zm-.82-15.32c-.54-1.02-1-2.19-1.7-3.05 1.08.54 1.56 1.95 1.7 3.05zm.61-7.88c-.37-.55-.67-1.48-.15-2.02-.43.6.13 1.43.33 1.92zm8.66 1.2c.4-.83-.9-2.45-.65-2.32.49.21 1.09 1.67.86 2.33-.04.11-.1-.05-.21-.01zm-6.87-8.28c1.24 1.75.47 3.88.62 5.82.18 1.46-.6-1.93-.12-2.4a6.63 6.63 0 00-.5-3.42zm4.57 0c.93 1.66.12 3.44-.07 5.15.36 1.57-.18.48-.16-.4.24-1.58.8-3.16.23-4.75zm-8.86-.11c-.3 2.16-.17 4.5.7 6.47-1.23-1.87-1.3-4.38-.7-6.47zm18.1.22c-1.03 1.88.48 4.16-.55 5.98.7-1.95-.77-4.2.55-5.98zm-4.61 0c-.82 1.8.62 4.07-.45 5.79.74-1.86-.66-4.1.45-5.79zm8.48-.22c-.85 1.88.9 4-.11 5.77.65-1.91-1.08-3.94.11-5.77zm4.62 14.73c-.41-.32-2.27-.29-1.16-.61.37.07 1.13.15 1.16.61zm-4.34 2.47s-2.01 2.35-1.12.95c.2-.14.84-1.09.84-1.09zM84.38 98.1c.12-.66 2.03-.81 1.4-.3-.49-.02-1 .14-1.4.3zm4.6 2.31c.5.3 1.58 2.34.82 1.35-.18-.39-.56-.65-1-1.17z"/>
      <path d="M76.58 94.09c-.65.97-1.94 1.47-3.01 1.61 1.02-.48 2.19-.81 3.01-1.61zm.96-.13c-.03.72-.7 1.4-1.33 1.55.48-.47 1.07-.9 1.33-1.55zm45.84.12c.83.8 2.05 1.1 2.99 1.62-1.1-.22-2.33-.65-2.99-1.62zm-.96-.12c.17.6 1.2 1.25 1.24 1.54-.62-.26-1.2-.86-1.24-1.54zM109.9 91.2c.03-.14-.27-1.37-.04-1.08.15.2.48 1.46.04 1.08zm2.64-.73c.42.33-.2 1.52-.42 1.55-.05 0-.14-.02-.14-.16a2 2 0 00.56-1.39zM107.93 92c-.21.42-.57.7-.57.7l-.14-.18s.34-.26.72-.52zm-7.24 1.85c-.3-.25-.49-1.57-.12-.65.05.17.64.96.12.65zm-3.15-.87c-.06-.31-1.29-1.3-.42-.79.21.12.97.93.42.79zm-4.41-.59c-.22-.28-.3-2.16-.06-1.11-.1.27.55 1.34.06 1.11zm-5.22-.69c.04-.46-1.87-2.23-.79-1.48.27.29 1.38 1.56.79 1.48zm15.7.27c-.2.36-.36.73-.48.94l-.2-.08c.13-.35.5-.82.68-.86z"/>
    </g>
  </g>
</svg>
