<svg xmlns="http://www.w3.org/2000/svg" fill="#d7374a" stroke="#000" viewBox="50 50 200 200">
  <metadata source="http://wappenwiki.org" license="https://creativecommons.org/licenses/by-nc-sa/3.0"/>
  <g id="bullPassant" stroke-width="2">
    <path d="M255.1 371.8s3.7 2 4.6 5c1.6 6.7-6 18.9-11 24-1.5 1.6-4.4-6.9-5.9-12.6 0 0-.1 3 .4 5.3l.7 3.8s-2.7 3.8-5.3 6.2c-1.6-3.2-.4-7.2-1.7-13.3-1-4.8 4.1-8.3 7.9-11.4 3.8-3.1 10.3-7 10.3-7zm351.1 47.6s1.3 4-.2 6.8c-3.5 5.9-17.4 9.5-24.5 9.7-2.2.1 1.6-8 4.5-13.2 0 0-2.2 2.1-3.4 4.1l-2.1 3.2s-4.6.8-8.1.8c1.1-3.4 4.7-5.5 8-10.7 2.6-4.1 8.7-3.1 13.6-2.7 4.8.3 12.2 2 12.2 2zm-87.7-10.2s1.3 4-.2 6.8c-3.5 5.9-17.4 9.5-24.5 9.7-2.2.1 1.6-8 4.5-13.2 0 0-2.2 2.1-3.4 4.1l-2.1 3.2s-4.6.8-8.1.8c1.1-3.4 4.7-5.5 8-10.7 2.6-4.1 8.7-3.1 13.6-2.7 4.8.3 12.2 2 12.2 2zm-196.6 10.2s1.3 4-.2 6.8c-3.5 5.9-17.4 9.5-24.5 9.7-2.2.1 1.6-8 4.5-13.2 0 0-2.2 2.1-3.4 4.1l-2.1 3.2s-4.6.8-8.1.8c1.1-3.4 4.7-5.5 8-10.7 2.6-4.1 8.7-3.1 13.6-2.7 4.8.3 12.2 2 12.2 2z" transform="matrix(.15094 0 0 .15087 36.54 63.58)"/>
    <path d="M281.2 303.8c-13.6 9.5-43.7 3.9-41.6 11.9.5 2.5 0 7.7 4.6 19.9 3.3 10 5.9 15.2 8 19 1.8 3.2 2.9 2.2 5.1 3.5 2.2 1.3 1.6 3.4 3.4 5.3-3 3-7-.9-8.5.7.1 5.3 6.9 5.9 5.2 10.2-2.9 3.9-16.3 15-20.7 17.4-.7-2.9-.5-5.2.1-7.2.7-2.4 1-6.7-.3-10.3-1.3-3.5-4.1-7.2-4.4-11.7-.6-7.7-2.6-17-4-22.1-1.9-5.9-6.9-13.8-11.1-21.3-3.5-5.2-1-7.2-1-11.5s-2.6-7.6 2.4-11.5a94 94 0 0118.7-11.7c1.6-1.6 27-22 32.7-25m-47.6-143.9c4.4-9.9-3.3-14.1-3.3-14.1 1 .2-9.8-2.8-9.2-12.4.8-14.3 16.7-16.7 19-32.6.8-9-5.6-13.8-6.4-14-2-.4.9 4.7.1 8.8-3.6 16.5-29 17.8-33 39.8-4.7 21.9 20.7 31.7 18.6 31.3 0 0 9.8 3.1 14.2-6.8z" transform="matrix(.15094 0 0 .15087 36.54 63.58)"/>
    <path d="M203.7 128.7c-.5 1.1-11.1 1.1-18.7-2.7-5.4-2.8-6.3-5.2-6.7-6.1-1.8-.9-4.8-5.8-4.6-7.7-5.2-7.6-5-16.8-3.8-19.6.3-.4 2.2-.5 2.8 0 1 1.7 1.7 5.2 5.8 7.2 6.8 3.4 14.2.9 22.3 5a41.7 41.7 0 0110.1 9.9m289 161.3c1.1 3.8 2.8 8.3 5 12.9 5.4 11.1 15.3 15.3 17.2 29.7 3 15.2 1.1 33.4-4.9 49.7-1.9 4.7-3.9 15-7.2 22.7-2.1 5.1-5.4 8.5-7.1 10.5-1.9 2.3-4.2 2.9-6.3 4.1a13 13 0 00-5.1 5.1c4.8 1.3 22.2 2.5 27 1.8 4.1-2 1.3-10.9 3.3-11 2.2-.1 2.4 5.5 6.6 5.4 0-2.6 1.1-6.1 1-8.3-.2-7-3-5.8 3.6-24.1 10-27.1 16.7-33.7 20.2-40.6 2.2-4.3.4-14-.1-20.1 2.8-7.7-.4-27.4 3.7-38.5" transform="matrix(.15094 0 0 .15087 36.54 63.58)"/>
    <path d="M605.8 97.7c-36 0-103.6 23.5-165.7 23.5-27.5 0-35.9-11.4-35.9-22.3 0-17.9 17.7-21.3 28.3-21.3 15.7 0 29.5 9.5 57.5 9.5 25 0 37.8 5.6 57.3 5.6 28.7 0 41.3-8.9 49.2-17.6a34 34 0 0124.1-6.4c-8.1-9.5-30.7-1.8-36.6.8-10.9.5-19.6-6.8-37.5-6.8-18.8 0-24.1 10.1-56.1 10.1-23.8 0-37.2-9.8-58.3-9.8-13.1.2-44.4 3.4-44.4 36 0 30.4 30.1 38.1 52.4 38.1 58.7 0 123.9-23.2 166.2-23.2 43.3 0 58.8 24.4 58.8 45 0 15.2-6.7 28.4-22.2 28.4-15.6 0-20.2-19.7-31.6-28.6-11.6-10.4-35.7-17.9-51.8-17.9-22.2 0-34.7 2.1-50.2 3.3-5.8.5-42.3 4.3-67.5 5a351 351 0 01-72.1-6c-20.9-4.1-40.2-11.8-47.8-13.1-6.7-1.1-10.4-.8-13.3-.8a23.3 23.3 0 003-15c-.3-.4-2.2-.7-2.8-.2-1.2 1.6-2.2 5-6.5 6.6-6.7 2.6-13.1-1.7-25.5 4.6l-.3-.3c-2.9.5-7.7.9-10.7-2.7-2.6-3.1-3.3-9.7-.6-12.9.4.9 1.1 1.7 2.1 2-.3-1.1.5-2.1.9-3.1.8-1.7 1.1-4.3.6-6-2.1-.4-3.3-2.8-5.4-3.5-2.7-.9-6.1 1.4-8.2-.4-1.2-1-1.4-3-2.8-3.7-1.3-.7-2.9-.1-4.3-.4-1.3-.3-2.4-1.4-3.7-1.6-1.6-.2-3.1 1-4.8 1-1.9 0-3.8-1.6-5.6-.9-1.2.5-2 1.9-3.3 1.8-.8-.1-1.3-.7-2.1-.9-1.6-.4-2.9 1.2-4 2.5-1 1.3-3 2.5-4.2 1.3-.6-.6-.7-1.8-1.5-2.2-1-.5-2 .6-2.6 1.5-1.1 1.6-2.2 5.3-4.9 4.3-1.1-.4-1.9-1.9-2.9-2.6-.3-.2-4-1.4-3.9-.9.6 3.4.1 6.6-.1 10 0 .8-.1 1.5-.4 2.2-.4.8-1.2 1.4-1.9 2.1a14.3 14.3 0 00-3.9 6.3c-.2.7-.3 1.4-.8 1.9-.6.6-1.5.8-2.2 1.1-2.3 1-3 3.3-3 5.7 0 2.4 1.2 5.3.2 7.5-.6.3-1.1.8-1.4 1.4-.6.3-.8.1-1.2 0-.2.4-.7.7-1.2.6-.2.4-.2.9-.2 1.4-.1 3-2 4.5-3.7 6.6-3 3.6-4.5 8.3-6.6 12.2-.9 2.3-1.8 4.5-3.1 6.6-1.7 4.9-4 6.8-8.1 8.9-3.2 1.6-6.7 3.5-8.1 6.8a9.4 9.4 0 00-.7 3.7c0 6.2 5.2 9.8 6.5 15.6.3 1.4.5 2.8 1.4 3.9 2.3 3 6.9 1.6 10.6 2h0c.5 2.4-.4 2.4-2.4 3.9l-.8.7c-1 1-1.5 2.6-1.1 4a10 10 0 005.5 6.3c2.6 1.3 3.9 1.6 7.1 2.1 3.8.6 7.2.3 10.9-.8s7.1-3.3 9-6.7c.5-.9.8-1.9.8-1.9 3.3-2.1 7.7-10.6 12.2-12.9 3.8-2 8.6-2.8 13.3-2l.5.1c18 18.4 4.2 42.9 16 60.9 4.1 6.3 8.9 9.3 16.7 21 7.8 11.7 7.7 20.3 10.9 24.6 3.1 4.5 12 9.4 20.6 9.3 0 0 0 0 0 0 4 11 7.9 23 7.9 23s.2 7.4 2.2 16.2c2 9 5.7 19.4 5.9 28.2 0 8.4-1.6 27.3-5.7 32.4-1.9 2.3-4.2 2.9-6.3 4.1a13 13 0 00-5.1 5.1c4.8 1.3 22.2 2.5 27 1.8 4.1-2 1.3-10.9 3.3-11 2.2-.1 2.4 5.5 6.6 5.4 0-2.6 1.1-6.1 1-8.3-.2-7-3.3-10.2-4.1-29.6-.8-28.9 3.2-37.5 3.9-45.2.2-2.2.6-12.3.9-19.9 6.6-.7 14.2 2.3 25.6 1.1 30.4-3.1 34.8-1.7 53.4-12.2 23.2 0 42.8-27.9 103.5-27.9 6.4 0 15.6 3.2 19.5 5.8 2.5 4.1 5.8 10.6 5.8 10.6s5.4 9.8 15.1 19c9 8.5 18.9 8.2 26.1 20.9a95 95 0 0114.3 48c0 8.4-1.9 27.3-6.1 32.4-1.9 2.3-4.2 2.9-6.3 4.1a13 13 0 00-5.1 5.1c4.8 1.3 22.2 2.5 27 1.8 4.1-2 1.3-10.9 3.3-11 2.2-.1 2.4 5.5 6.6 5.4 0-2.6 1.1-6.1 1-8.3-.2-7-3.8-10.2-4.6-29.6-.8-28.9 3.7-37.5 4.4-45.2.4-4.8-4.9-13.2-7.6-18.6-.3-8.2-9.1-23.9-9.1-35.7 3.2-8.2 7.1-31.4 7.1-38.6 10-16 11.3-43.8 11.3-43.8s7.9 10.3 23 10.3c26.6 0 40.3-19.7 40.3-48.2 0-47.1-41.7-62.5-76.1-62.5z" transform="matrix(.15094 0 0 .15087 36.54 63.58)"/>
    <path d="M186.3 206.8l-3.4-1.4h-.1c-.8 1.7-1.2 3.4-2.4 4.9a25.2 25.2 0 01-3.9 4.1c-2.9 2.6-8.1 5.1-9.4 9.1-1 3.1 1 6.8 4.1 7.6 8.9 2.4 17.6-8.7 20.2-15.8a41 41 0 002.3-8.1c-2.3.5-5 .4-7.4-.4zm79-80.8c1.95.53 25.2.8 30.2-21 5.6-21.3-16-34.9-12-52.6.9-4.1 5.4-6.6 3.4-7.1-.8-.2-9 .4-11.9 10-4.6 15.5 8.1 26.6 2.8 39.9-3.5 9-12.1 6.9-13.6 7.3 0 0-8.7.5-8.9 11.4-.1 10.8 10 12.1 10 12.1z" transform="matrix(.15094 0 0 .15087 36.54 63.58)"/>
    <path fill="#f6f6f6" d="M189.6 135.2c-.6-2-.5-4.2.2-6.1l.3-.8c.5-.9 1.6-1.3 2.3-2.1a8.2 8.2 0 013.8 5.1c.5 2.2.2 4.5-.8 6.5-.7 1.2-1.9 2.3-3.2 2-.9-.2-1.5-1.1-1.8-2-.4-.9-.5-1.8-.8-2.6m48.4 8.7c.2-1.6.6-2.4-1.4-2.8-3.2-.7-6.9-1.8-10.1-.6-2.6.9-5 2.8-5.8 5.5-.5 1.5 1.2 3.3 2.5 4.2 1.3.9 3 1.2 4.6 1.3 4.6 0 9.5-2.7 10.2-7.6z" transform="matrix(.15094 0 0 .15087 36.54 63.58)"/>
    <g fill="#000" stroke="none">
      <path d="M78.06 109.32c-1.38.5-2.95.48-3.7-.34 1.22.46 2.44.24 3.54 0zM63.9 80.02c.33-.06 1.11-.16 1.24.04-.35.24-.93.26-1.24-.04zm.92.38c.16-.2.54-.34.72-.24-.09.33-.47.4-.72.24zm-1.92-.38c.57.98 1.49 1.8 2.57 2.15l-.04.3a3.19 3.19 0 01-2.44-2.12c-.04-.09-.07-.32-.09-.33z"/>
      <path d="M62.62 78.38c1.08 1.37 3.35.76 4.26 2.2l-.09.07c-1.22-1.16-3.05-.34-4.17-2.27zm65.96 13.9c1.15-.06 1.9 1.9.7.55-.22-.18-.38-.53-.7-.55zm-3.84-18.02c-2.47 1.01-5.22.03-7.74.82 2.1-1.35 4.93-.27 7.26-1.11.42-.25.37-.07.48.29zm1.9.82c-1.46.92-3.31.7-4.92 1.26-1.08.17-2.25.2-3.28-.14 2.56.11 5.04-.7 7.5-1.26.4-.22.5-.41.7.14zm-40 35.86c.19-1.3-.03-2.8 1.05-3.71.35-.78.32-1.72.18-.15-.3.65-1.01 1.06-.79 1.9-.2.53.46 2.28-.44 1.96zM80 104.46c-.21 2.14.7 4.18 1.42 6.14-1.15-.1-1.07-2.7-1.43-3.88a7.58 7.58 0 01.01-2.26zm38.02 3.2c-.89-1.63-1.6-3.17-2.7-4.57-1.12-1.81-2.09-4.1-1.72-6.17.18 2.91 1.66 5.54 3.38 7.8.5.91.99 1.84 1.48 2.76-.14.07-.31.1-.44.18zm-3.16-16.14c1.37-2.52 4.64-2.76 7.2-2.74 2.68.02.45.23-.68.32-2.29.26-4.96.5-6.52 2.42zm11.52 3.74c.44 1.92-.24 3.93-1.28 5.54.5-1.83 1.01-3.66 1.28-5.54zm-1.2 13.56c.64.8.81 2.5-.32 2.98.6-.84.35-2.06.32-2.98zm-1.56 2.74c-1.2-.3-2.61-.98-2.98-2.24.89.87 2.01 1.47 2.98 2.24zm-42.84-6c.74 1.66 1.76 3.28 1.8 5.18.46 2.4-.52-1.3-.7-2.12-.28-1.05-1.02-1.97-1.1-3.06zm5.38 4.12c.3 1.67.16 4.07-1.6 4.9 1.43-1.13 1.54-3.26 1.6-4.9zm-.68 8.16c0 1.95.03 3.9.02 5.84a15.5 15.5 0 01-.02-5.84zm-.02 7.26c.33.73-.49 1.42-1.08 1.72.3-.58 1.01-1.07 1.08-1.72zm41.86-2.06c.07-2.33-.13-4.68-.74-6.94a11 11 0 01.74 6.94zm-9.84-5.74c-.57 1.83-1.43 3.58-1.84 5.46-.02-1.95.93-3.8 1.84-5.46zm-28.74-9.64c1.3.53 2.69.77 3.96 1.36-1.37 0-3.03-.25-3.96-1.36zm-16.8 3.88c.51 1.88 1.12 3.73 1.6 5.62a14.59 14.59 0 01-1.6-5.62zm2.12 6.62c.73.34.7 1.37.4 2.02-.18-.65.01-1.45-.4-2.02zm43.86-9.68c.38.99-.14 2.61-1.34 2.64.85-.57 1-1.75 1.34-2.64zm-32.6-19.06c-1.54 1.51-3.4 2.78-4.62 4.58-.46 1.02-.39 2.22-1 3.18.46-1.6.16-3.6 1.66-4.72a22.32 22.32 0 013.96-3.04zm26.74 9.52c.14.67-1.09 1.23-1.3.8.44-.26.85-.58 1.3-.8zm-3.46 1.66c.19.72-1.37.89-.63.26.19-.14.4-.24.63-.26zm-2.14 1c-.06.9-.85 1.74-1.76 1.82.58-.61 1.18-1.2 1.76-1.82zm-3.42 2.6c-.26 1.14-2.04.56 0 0zm-13.58-.08c-.05-1.53-.55-3.58-.36-4.85.47 1.54.9 3.28.36 4.85zm-20.4-23.34c.58-.04 1.14-1.28 1.58-.64.21 1.09.25 1.38 1.18.54.54-.5-.38.99-.91.94-.54-.12-.65-1.05-.63-1.26.1.18-.94.64-1.22.42zm1.26-1.2c-.22-.49.54-1.13.76-.98-.23.34-.54.64-.76.98zm-2.86.72c1.22.67 0 .81 1.2.08.58-.41-.3 1.06-.64.82-.33-.19-.46-.56-.56-.9zm13.84 5.24c-1.02.38-2.32.6-3.32.1a4.3 4.3 0 003.18-.5l.14.4zm-.98-2.66c.67-.1 1.74.28.64.32-.24-.02-.53-.1-.64-.32zm-.36.1c1.38.27.14.85 0 0zm-1.6 2.08c1.56.26 3.17-.82 3.98-1.86-.49 1.57-2.45 2.6-3.98 1.86z"/>
      <path d="M78.34 83.7a2.11 2.11 0 011.83-1.22 4.85 4.85 0 002.83-.94c-.25.49-.78.8-1.27 1.02-.79.37-1.7.12-2.5.45-.33.18-.7.37-.89.71zM70.9 87a3.4 3.4 0 001.74-.78c.16-.02-.16.45-.32.55-.4.38-.93.32-1.42.23zm2.46-7.14c-.08-.5.4-1 .9-.92-.29.31-.64.6-.9.92zm-1.86-.06c-.3-.58.96-1.17.29-.32-.1.1-.17.26-.29.32zm1.36-1.12c-.22-.3.15-.75.5-.62.2.16-.18.5-.37.58-.02.05-.14-.02-.13.04zm-3.32.72c-.28-.1-.22-.56.06-.62a.7.7 0 01-.06.62zm-4.02 4.7c-.2-.28-.1-.72.18-.41.15.15.04.64-.18.4zm1-2.02c.38.05.44.48.06.16.5-.2.54.52.34.78-.16-.04-.37-.27-.32-.5.4.15-.32-.14-.08-.41zm9.8-2.08c-.09-.18-.2-.84.04-.4.29.2.6.75.02.45 0-.03-.13-.01-.06-.05zm-8.68 13.96c-.07.5.17.97.16 1.46-.48.05-.43-.18-.35-.56 0-.31.08-.6.19-.9zm-4.47.14c1.02-.02 1.6.68 2.46.49.6-.05.95-.53 1.22-1 .53-.56 0 .5-.11.75-.55.86-1.77.92-2.6.5-.39-.36-1.3-.03-.97-.73zm1.39 1.24c-.02.82-.5 1.75-1.35 1.94.04-.24.56-.78.74-1.15.17-.29.42-.52.6-.79zm12.9-16.68a2.38 2.38 0 001.64-1.38c-.1.8-.75 1.43-1.43 1.8-.12.05-.14-.34-.21-.42zm-11.28 6.6c.15-.25.41-1.13.73-.74.13.42-.49.63-.56 1.02-.24.26.06-.9.4-.94.3-.03-.55.64-.57.66zm5.28 7.66c.6.1 1.3.05 1.7-.46-.3.62-1.06.85-1.7.88zm-3.12.16c.94-.37 1.88-.77 2.8-1.18a3.19 3.19 0 01-2.8 1.18zm-6.5-2.88c.63-.14 1.11.5 1.74.44.85.05 1.9-.06 2.46.72.21.37-.23-.14-.44-.1-1-.34-2.23.17-3.09-.61-.2-.18-.43-.37-.67-.45zm5.12-2.98c.31.3-.23.52-.26.83 0 .32-.51.67-.62.56.39-.28.22-.9.7-1.09.13-.03.2-.17.18-.3zm3.92-1.78c-.2-1.12-1.1.76-.03.63.48-.13-.02-.38.03-.63zm-.54-.16c-.42.33-1 .46-1.5.18-.14-.1-.7-.13-.26-.13.47.05 1.03.11 1.37-.3.12-.23.28.2.39.25zm-1.46-1.2c.05-.66.71-.19.66-.7.42-.17.84-.18 1.18-.2-.42.26.2-.48.46-.14.5.24.02.11-.22.24.3.27-.42.1-.56.35-.15.18-.4.04-.56.07-.12.48-.59.13-.9.26zm3.36.54c.2.13.48.07.58-.16.11.34-.73.87-.65.44zm1.54 7.12a1 1 0 011.06-.5 2.8 2.8 0 001.96-1.19c.52-.09.63-.2.7-.76.32-.4.54-.96.4-1.47.32.51.2 1.16-.11 1.64 0 .36-.09.93-.58.82-.29.1-.42.5-.7.65-.65.53-1.53.58-2.32.46-.17.06-.29.24-.41.35zm-9.96 1.1c.01-.64.94-1.15 1.36-.53.1.23-.65.04-.86.3-.16.07-.36.2-.5.23zm.74.4c.27-.2.6-.35.92-.44-.04.41-.6.68-.92.42zm-2.28-1c-.33-.3-.45-.84-.9-.98.2-.37.87-.04.9.38.11.21.03.4 0 .6zm-.48.2c-.44.16-.86-.46-.58-.82.16.28.36.62.58.82zm2.16-5.86c.37.47-.13 1-.28 1.44-.27-.48.22-.98.28-1.44zm-.7 3.48c.29-.07.58 0 .84.14-.2.24-.72.15-.84-.14zm11.18-8.36c.13-.38.25-1.5.28-.46.04.28.14.81-.27.46zm-.96.3c.01-.46.3-.87.22-1.34.15.42.08.88.1 1.32-.1 0-.26.06-.32.02z"/>
      <path d="M73.98 83.28c-.12.03-.2-.08-.2-.19s0-.25-.08-.34a1.08 1.08 0 01-.21-.53c.01-.14-.19-.09-.27-.16a1.05 1.05 0 01-.62-.82c.1 0 .26-.06.32-.02.03.14.12.24.2.35.1.13.26.24.43.25.08 0 .2-.01.23.08.03.11.01.23.05.34.06.21.23.38.27.6.04.03.12-.1.15-.15.07-.13.07-.28.07-.42 0-.17.03-.34.1-.5 0-.06.05-.13.12-.07l.22.1c-.1.2-.1.44-.1.66a.97.97 0 01-.54.78c0 .02-.2.05-.14.04z"/>
      <path d="M72.6 81.26c.03-.23.07-.45.19-.65.06-.14.09-.14.07.01-.01.17.01.33.06.48.07.14-.05.14-.16.14l-.16.02zm-3.64-2.46c-.24.14-.49.26-.69.45-.06.14-.08.14-.05-.01.05-.23.21-.4.32-.6.05-.07.09-.25.17-.11.08.09.19.17.25.27zm1.84-.64a.9.9 0 01.29-.4c.1-.1.2-.2.33-.26l.1.44c-.2-.02-.37.05-.55.13-.05.03-.15.04-.17.09zm1.98-.32c-.24 0-.48.03-.7.14.11-.2.27-.36.46-.48.09-.09.18-.06.17.06l.07.28zm1.76.52c.24-.06.48-.1.72-.14l-.08.44c-.2-.12-.42-.22-.64-.3z"/>
    </g>
    <path fill="none" stroke-width=".4" d="M78.2 91.46c.64-.34.8-.66.88-.8.38-.14 1.06-1.06 1.06-1.44a5.4 5.4 0 00.56-.82"/>
  </g>
</svg>
