<svg xmlns="http://www.w3.org/2000/svg" fill="#d7374a" stroke="#000" viewBox="50 50 200 200">
  <metadata source="http://wappenwiki.org" license="https://creativecommons.org/licenses/by-nc-sa/3.0"/>
  <g id="bullPassant" stroke-width=".302">
    <path class="secondary" d="M75.045 119.674s.558.301.694.754c.242 1.01-.906 2.851-1.66 3.62-.227.242-.664-1.04-.89-1.9 0 0-.016.452.06.8l.105.573s-.407.573-.8.935c-.241-.483-.06-1.086-.256-2.006-.151-.725.619-1.253 1.192-1.72.574-.468 1.555-1.056 1.555-1.056zm52.995 7.18s.196.604-.03 1.027c-.529.89-2.627 1.433-3.698 1.463-.333.015.241-1.207.679-1.991 0 0-.332.317-.513.618l-.317.483s-.695.12-1.223.12c.166-.512.71-.829 1.207-1.614.393-.618 1.314-.467 2.053-.407.725.046 1.842.302 1.842.302zm-13.238-1.538s.197.604-.03 1.026c-.528.89-2.626 1.433-3.698 1.463-.332.015.242-1.207.68-1.991 0 0-.333.317-.514.618l-.317.483s-.694.12-1.222.12c.166-.512.709-.829 1.207-1.613.393-.619 1.313-.468 2.053-.408.724.046 1.841.302 1.841.302zm-29.674 1.539s.196.603-.03 1.026c-.529.89-2.627 1.433-3.699 1.463-.332.015.242-1.207.68-1.991 0 0-.332.317-.514.618l-.317.483s-.694.12-1.222.12c.166-.512.71-.829 1.207-1.614.393-.618 1.313-.467 2.053-.407.725.046 1.842.302 1.842.302z"/>
    <path d="M78.984 109.414c-2.052 1.434-6.596.589-6.279 1.796.076.377 0 1.161.695 3.002.498 1.509.89 2.293 1.207 2.866.272.483.438.332.77.529.332.196.241.513.513.8-.453.452-1.057-.137-1.283.105.015.8 1.042.89.785 1.539-.438.588-2.46 2.263-3.125 2.625a2.006 2.006 0 0 1 .015-1.087c.106-.362.151-1.01-.045-1.554-.196-.528-.619-1.086-.664-1.765-.09-1.161-.392-2.565-.604-3.334-.287-.89-1.041-2.082-1.675-3.213-.528-.785-.151-1.087-.151-1.735s-.392-1.147.362-1.735a14.188 14.182 0 0 1 2.823-1.766c.241-.241 4.075-3.319 4.936-3.771"/>
    <path class="secondary" d="M70.079 81.005c.664-1.493-.498-2.127-.498-2.127.15.03-1.48-.422-1.389-1.87.121-2.158 2.52-2.52 2.868-4.919.12-1.358-.845-2.082-.966-2.112-.302-.06.136.709.015 1.327-.543 2.49-4.377 2.686-4.98 6.005-.71 3.304 3.124 4.783 2.807 4.722 0 0 1.479.468 2.143-1.026z"/>
    <path d="M67.287 82.997c-.076.166-1.676.166-2.823-.407-.815-.423-.951-.785-1.011-.92-.272-.136-.725-.876-.695-1.162-.785-1.147-.754-2.535-.573-2.957.045-.06.332-.076.422 0 .151.256.257.784.876 1.086 1.026.513 2.143.136 3.366.754a6.294 6.291 0 0 1 1.524 1.494m43.622 24.335c.166.574.423 1.252.755 1.946.815 1.675 2.31 2.309 2.596 4.481.453 2.293.166 5.04-.74 7.498-.286.71-.588 2.264-1.086 3.425-.317.77-.816 1.283-1.072 1.584-.287.347-.634.438-.951.619a1.962 1.961 0 0 0-.77.77c.725.195 3.351.376 4.076.27.618-.3.196-1.644.498-1.659.332-.015.362.83.996.815 0-.392.166-.92.15-1.252-.03-1.056-.452-.875.544-3.636 1.51-4.089 2.52-5.085 3.05-6.126.331-.648.06-2.112-.016-3.032.423-1.162-.06-4.134.559-5.809"/>
    <path d="M127.98 78.32c-5.434 0-15.638 3.545-25.011 3.545-4.151 0-5.419-1.72-5.419-3.364 0-2.7 2.672-3.214 4.272-3.214 2.37 0 4.452 1.434 8.679 1.434 3.773 0 5.705.845 8.649.845 4.332 0 6.233-1.343 7.426-2.656a5.132 5.13 0 0 1 3.638-.965c-1.223-1.433-4.634-.272-5.525.12-1.645.076-2.958-1.025-5.66-1.025-2.838 0-3.638 1.523-8.468 1.523-3.592 0-5.615-1.478-8.8-1.478-1.977.03-6.701.513-6.701 5.431 0 4.587 4.543 5.748 7.909 5.748 8.86 0 18.702-3.5 25.086-3.5 6.536 0 8.876 3.681 8.876 6.79 0 2.292-1.012 4.284-3.351 4.284-2.355 0-3.05-2.972-4.77-4.315-1.751-1.569-5.389-2.7-7.819-2.7-3.35 0-5.237.316-7.577.497-.875.076-6.385.65-10.188.755a52.98 52.955 0 0 1-10.883-.905c-3.155-.619-6.068-1.78-7.215-1.977-1.011-.166-1.57-.12-2.008-.12a3.517 3.515 0 0 0 .453-2.264c-.045-.06-.332-.105-.422-.03-.181.242-.332.755-.981.996-1.012.392-1.978-.257-3.85.694l-.045-.045c-.437.075-1.162.135-1.615-.408-.392-.467-.498-1.463-.09-1.946.06.136.166.257.317.302-.046-.166.075-.317.135-.468.121-.256.166-.649.09-.905-.316-.06-.497-.422-.814-.528-.408-.136-.92.211-1.238-.06-.181-.151-.211-.453-.422-.559-.197-.105-.438-.015-.65-.06-.196-.045-.362-.211-.558-.241-.241-.03-.468.15-.725.15-.286 0-.573-.24-.845-.135-.18.075-.302.287-.498.271-.12-.015-.196-.105-.317-.135-.241-.06-.438.18-.604.377-.15.196-.452.377-.634.196-.09-.09-.105-.272-.226-.332-.15-.075-.302.09-.392.226-.166.242-.332.8-.74.649-.166-.06-.287-.287-.438-.392-.045-.03-.603-.211-.588-.136.09.513.015.996-.015 1.509 0 .12-.016.226-.06.332-.061.12-.182.21-.288.316a2.158 2.157 0 0 0-.588.95c-.03.106-.046.212-.121.288-.09.09-.227.12-.332.166-.347.15-.453.497-.453.86 0 .362.181.8.03 1.131a.477.477 0 0 0-.211.211c-.09.046-.121.015-.181 0a.172.172 0 0 1-.181.09c-.03.061-.03.137-.03.212-.016.453-.302.679-.56.996-.452.543-.678 1.252-.995 1.84-.136.347-.272.68-.468.996-.257.74-.604 1.026-1.223 1.343-.483.241-1.011.528-1.222 1.026a1.419 1.418 0 0 0-.106.558c0 .935.785 1.478.981 2.353.045.212.076.423.211.589.348.452 1.042.241 1.6.301.076.363-.06.363-.362.589l-.12.105a.636.636 0 0 0-.167.604 1.51 1.509 0 0 0 .83.95c.393.197.59.242 1.072.317.574.09 1.087.046 1.645-.12s1.072-.498 1.359-1.011c.075-.136.12-.287.12-.287.499-.317 1.163-1.6 1.842-1.946a3.217 3.217 0 0 1 2.008-.302l.075.015c2.717 2.776.634 6.473 2.415 9.188.619.95 1.344 1.403 2.52 3.169 1.178 1.765 1.163 3.062 1.646 3.71.468.68 1.811 1.42 3.11 1.404.603 1.66 1.192 3.47 1.192 3.47s.03 1.116.332 2.444c.302 1.358.86 2.927.89 4.255 0 1.267-.241 4.118-.86 4.888-.287.347-.634.437-.95.618a1.962 1.961 0 0 0-.77.77c.724.196 3.35.377 4.075.271.619-.301.196-1.644.498-1.66.332-.014.362.83.996.816 0-.393.166-.92.15-1.253-.03-1.056-.497-1.539-.618-4.465-.12-4.36.483-5.658.589-6.82.03-.332.09-1.855.136-3.002.996-.106 2.143.347 3.864.166 4.588-.468 5.252-.257 8.06-1.84 3.502 0 6.46-4.21 15.622-4.21.966 0 2.355.483 2.943.875.378.619.876 1.6.876 1.6s.815 1.478 2.28 2.866c1.358 1.282 2.852 1.237 3.939 3.153a14.34 14.333 0 0 1 2.158 7.242c0 1.267-.287 4.119-.92 4.888-.287.347-.635.437-.952.619a1.962 1.961 0 0 0-.77.769c.725.196 3.352.377 4.076.272.619-.302.196-1.645.498-1.66.332-.015.362.83.996.815 0-.393.166-.92.151-1.253-.03-1.056-.573-1.538-.694-4.465-.12-4.36.558-5.658.664-6.82.06-.724-.74-1.991-1.147-2.806-.045-1.237-1.374-3.606-1.374-5.386.483-1.237 1.072-4.737 1.072-5.824 1.51-2.413 1.706-6.608 1.706-6.608s1.192 1.554 3.471 1.554c4.015 0 6.083-2.972 6.083-7.272 0-7.106-6.294-9.429-11.486-9.429z"/>
    <path class="tertiary" d="m64.66 94.78-.513-.211h-.015c-.121.256-.181.513-.363.739a3.804 3.802 0 0 1-.588.619c-.438.392-1.223.769-1.419 1.372-.15.468.15 1.026.619 1.147 1.343.362 2.656-1.312 3.049-2.384a6.189 6.186 0 0 0 .347-1.222c-.347.076-.755.06-1.117-.06z"/>
    <path class="secondary" d="M76.584 82.59c.295.08 3.804.12 4.559-3.169.845-3.213-2.415-5.265-1.811-7.936.135-.618.815-.995.513-1.07-.121-.03-1.359.06-1.796 1.508-.695 2.338 1.222 4.013.422 6.02-.528 1.358-1.826 1.04-2.053 1.101 0 0-1.313.076-1.343 1.72-.015 1.63 1.51 1.825 1.51 1.825z"/>
    <path fill="#f6f6f6" d="M65.158 83.978a1.474 1.474 0 0 1 .03-.92l.046-.121c.075-.136.241-.196.347-.317a1.238 1.237 0 0 1 .573.77c.076.331.03.678-.12.98-.106.18-.287.347-.483.302-.136-.03-.227-.166-.272-.302-.06-.136-.076-.272-.12-.392m7.305 1.312c.03-.241.09-.362-.212-.422-.483-.106-1.041-.272-1.524-.09-.393.135-.755.422-.876.83-.075.225.181.497.378.633.196.136.452.18.694.196.694 0 1.434-.407 1.54-1.147z"/>
    <g fill="#000" stroke="none">
      <path d="M78.06 109.32c-1.38.5-2.95.48-3.7-.34 1.22.46 2.44.24 3.54 0zM63.9 80.02c.33-.06 1.11-.16 1.24.04-.35.24-.93.26-1.24-.04zm.92.38c.16-.2.54-.34.72-.24-.09.33-.47.4-.72.24zm-1.92-.38c.57.98 1.49 1.8 2.57 2.15l-.04.3a3.19 3.19 0 0 1-2.44-2.12c-.04-.09-.07-.32-.09-.33z"/>
      <path d="M62.62 78.38c1.08 1.37 3.35.76 4.26 2.2l-.09.07c-1.22-1.16-3.05-.34-4.17-2.27zm65.96 13.9c1.15-.06 1.9 1.9.7.55-.22-.18-.38-.53-.7-.55zm-3.84-18.02c-2.47 1.01-5.22.03-7.74.82 2.1-1.35 4.93-.27 7.26-1.11.42-.25.37-.07.48.29zm1.9.82c-1.46.92-3.31.7-4.92 1.26-1.08.17-2.25.2-3.28-.14 2.56.11 5.04-.7 7.5-1.26.4-.22.5-.41.7.14zm-40 35.86c.19-1.3-.03-2.8 1.05-3.71.35-.78.32-1.72.18-.15-.3.65-1.01 1.06-.79 1.9-.2.53.46 2.28-.44 1.96zM80 104.46c-.21 2.14.7 4.18 1.42 6.14-1.15-.1-1.07-2.7-1.43-3.88a7.58 7.58 0 0 1 .01-2.26zm38.02 3.2c-.89-1.63-1.6-3.17-2.7-4.57-1.12-1.81-2.09-4.1-1.72-6.17.18 2.91 1.66 5.54 3.38 7.8.5.91.99 1.84 1.48 2.76-.14.07-.31.1-.44.18zm-3.16-16.14c1.37-2.52 4.64-2.76 7.2-2.74 2.68.02.45.23-.68.32-2.29.26-4.96.5-6.52 2.42zm11.52 3.74c.44 1.92-.24 3.93-1.28 5.54.5-1.83 1.01-3.66 1.28-5.54zm-1.2 13.56c.64.8.81 2.5-.32 2.98.6-.84.35-2.06.32-2.98zm-1.56 2.74c-1.2-.3-2.61-.98-2.98-2.24.89.87 2.01 1.47 2.98 2.24zm-42.84-6c.74 1.66 1.76 3.28 1.8 5.18.46 2.4-.52-1.3-.7-2.12-.28-1.05-1.02-1.97-1.1-3.06zm5.38 4.12c.3 1.67.16 4.07-1.6 4.9 1.43-1.13 1.54-3.26 1.6-4.9zm-.68 8.16c0 1.95.03 3.9.02 5.84a15.5 15.5 0 0 1-.02-5.84zm-.02 7.26c.33.73-.49 1.42-1.08 1.72.3-.58 1.01-1.07 1.08-1.72zm41.86-2.06c.07-2.33-.13-4.68-.74-6.94a11 11 0 0 1 .74 6.94zm-9.84-5.74c-.57 1.83-1.43 3.58-1.84 5.46-.02-1.95.93-3.8 1.84-5.46zm-28.74-9.64c1.3.53 2.69.77 3.96 1.36-1.37 0-3.03-.25-3.96-1.36zm-16.8 3.88c.51 1.88 1.12 3.73 1.6 5.62a14.59 14.59 0 0 1-1.6-5.62zm2.12 6.62c.73.34.7 1.37.4 2.02-.18-.65.01-1.45-.4-2.02zm43.86-9.68c.38.99-.14 2.61-1.34 2.64.85-.57 1-1.75 1.34-2.64zm-32.6-19.06c-1.54 1.51-3.4 2.78-4.62 4.58-.46 1.02-.39 2.22-1 3.18.46-1.6.16-3.6 1.66-4.72a22.32 22.32 0 0 1 3.96-3.04zm26.74 9.52c.14.67-1.09 1.23-1.3.8.44-.26.85-.58 1.3-.8zm-3.46 1.66c.19.72-1.37.89-.63.26.19-.14.4-.24.63-.26zm-2.14 1c-.06.9-.85 1.74-1.76 1.82.58-.61 1.18-1.2 1.76-1.82zm-3.42 2.6c-.26 1.14-2.04.56 0 0zm-13.58-.08c-.05-1.53-.55-3.58-.36-4.85.47 1.54.9 3.28.36 4.85zm-20.4-23.34c.58-.04 1.14-1.28 1.58-.64.21 1.09.25 1.38 1.18.54.54-.5-.38.99-.91.94-.54-.12-.65-1.05-.63-1.26.1.18-.94.64-1.22.42zm1.26-1.2c-.22-.49.54-1.13.76-.98-.23.34-.54.64-.76.98zm-2.86.72c1.22.67 0 .81 1.2.08.58-.41-.3 1.06-.64.82-.33-.19-.46-.56-.56-.9zm13.84 5.24c-1.02.38-2.32.6-3.32.1a4.3 4.3 0 0 0 3.18-.5l.14.4zm-.98-2.66c.67-.1 1.74.28.64.32-.24-.02-.53-.1-.64-.32zm-.36.1c1.38.27.14.85 0 0zm-1.6 2.08c1.56.26 3.17-.82 3.98-1.86-.49 1.57-2.45 2.6-3.98 1.86z"/>
      <path d="M78.34 83.7a2.11 2.11 0 0 1 1.83-1.22 4.85 4.85 0 0 0 2.83-.94c-.25.49-.78.8-1.27 1.02-.79.37-1.7.12-2.5.45-.33.18-.7.37-.89.71zM70.9 87a3.4 3.4 0 0 0 1.74-.78c.16-.02-.16.45-.32.55-.4.38-.93.32-1.42.23zm2.46-7.14c-.08-.5.4-1 .9-.92-.29.31-.64.6-.9.92zm-1.86-.06c-.3-.58.96-1.17.29-.32-.1.1-.17.26-.29.32zm1.36-1.12c-.22-.3.15-.75.5-.62.2.16-.18.5-.37.58-.02.05-.14-.02-.13.04zm-3.32.72c-.28-.1-.22-.56.06-.62a.7.7 0 0 1-.06.62zm-4.02 4.7c-.2-.28-.1-.72.18-.41.15.15.04.64-.18.4zm1-2.02c.38.05.44.48.06.16.5-.2.54.52.34.78-.16-.04-.37-.27-.32-.5.4.15-.32-.14-.08-.41zm9.8-2.08c-.09-.18-.2-.84.04-.4.29.2.6.75.02.45 0-.03-.13-.01-.06-.05zm-8.68 13.96c-.07.5.17.97.16 1.46-.48.05-.43-.18-.35-.56 0-.31.08-.6.19-.9zm-4.47.14c1.02-.02 1.6.68 2.46.49.6-.05.95-.53 1.22-1 .53-.56 0 .5-.11.75-.55.86-1.77.92-2.6.5-.39-.36-1.3-.03-.97-.73zm1.39 1.24c-.02.82-.5 1.75-1.35 1.94.04-.24.56-.78.74-1.15.17-.29.42-.52.6-.79zm12.9-16.68a2.38 2.38 0 0 0 1.64-1.38c-.1.8-.75 1.43-1.43 1.8-.12.05-.14-.34-.21-.42zm-11.28 6.6c.15-.25.41-1.13.73-.74.13.42-.49.63-.56 1.02-.24.26.06-.9.4-.94.3-.03-.55.64-.57.66zm5.28 7.66c.6.1 1.3.05 1.7-.46-.3.62-1.06.85-1.7.88zm-3.12.16c.94-.37 1.88-.77 2.8-1.18a3.19 3.19 0 0 1-2.8 1.18zm-6.5-2.88c.63-.14 1.11.5 1.74.44.85.05 1.9-.06 2.46.72.21.37-.23-.14-.44-.1-1-.34-2.23.17-3.09-.61-.2-.18-.43-.37-.67-.45zm5.12-2.98c.31.3-.23.52-.26.83 0 .32-.51.67-.62.56.39-.28.22-.9.7-1.09.13-.03.2-.17.18-.3zm3.92-1.78c-.2-1.12-1.1.76-.03.63.48-.13-.02-.38.03-.63zm-.54-.16c-.42.33-1 .46-1.5.18-.14-.1-.7-.13-.26-.13.47.05 1.03.11 1.37-.3.12-.23.28.2.39.25zm-1.46-1.2c.05-.66.71-.19.66-.7.42-.17.84-.18 1.18-.2-.42.26.2-.48.46-.14.5.24.02.11-.22.24.3.27-.42.1-.56.35-.15.18-.4.04-.56.07-.12.48-.59.13-.9.26zm3.36.54c.2.13.48.07.58-.16.11.34-.73.87-.65.44zm1.54 7.12a1 1 0 0 1 1.06-.5 2.8 2.8 0 0 0 1.96-1.19c.52-.09.63-.2.7-.76.32-.4.54-.96.4-1.47.32.51.2 1.16-.11 1.64 0 .36-.09.93-.58.82-.29.1-.42.5-.7.65-.65.53-1.53.58-2.32.46-.17.06-.29.24-.41.35zm-9.96 1.1c.01-.64.94-1.15 1.36-.53.1.23-.65.04-.86.3-.16.07-.36.2-.5.23zm.74.4c.27-.2.6-.35.92-.44-.04.41-.6.68-.92.42zm-2.28-1c-.33-.3-.45-.84-.9-.98.2-.37.87-.04.9.38.11.21.03.4 0 .6zm-.48.2c-.44.16-.86-.46-.58-.82.16.28.36.62.58.82zm2.16-5.86c.37.47-.13 1-.28 1.44-.27-.48.22-.98.28-1.44zm-.7 3.48c.29-.07.58 0 .84.14-.2.24-.72.15-.84-.14zm11.18-8.36c.13-.38.25-1.5.28-.46.04.28.14.81-.27.46zm-.96.3c.01-.46.3-.87.22-1.34.15.42.08.88.1 1.32-.1 0-.26.06-.32.02z"/>
      <path d="M73.98 83.28c-.12.03-.2-.08-.2-.19s0-.25-.08-.34a1.08 1.08 0 0 1-.21-.53c.01-.14-.19-.09-.27-.16a1.05 1.05 0 0 1-.62-.82c.1 0 .26-.06.32-.02.03.14.12.24.2.35.1.13.26.24.43.25.08 0 .2-.01.23.08.03.11.01.23.05.34.06.21.23.38.27.6.04.03.12-.1.15-.15.07-.13.07-.28.07-.42 0-.17.03-.34.1-.5 0-.06.05-.13.12-.07l.22.1c-.1.2-.1.44-.1.66a.97.97 0 0 1-.54.78c0 .02-.2.05-.14.04z"/>
      <path d="M72.6 81.26c.03-.23.07-.45.19-.65.06-.14.09-.14.07.01-.01.17.01.33.06.48.07.14-.05.14-.16.14l-.16.02zm-3.64-2.46c-.24.14-.49.26-.69.45-.06.14-.08.14-.05-.01.05-.23.21-.4.32-.6.05-.07.09-.25.17-.11.08.09.19.17.25.27zm1.84-.64a.9.9 0 0 1 .29-.4c.1-.1.2-.2.33-.26l.1.44c-.2-.02-.37.05-.55.13-.05.03-.15.04-.17.09zm1.98-.32c-.24 0-.48.03-.7.14.11-.2.27-.36.46-.48.09-.09.18-.06.17.06l.07.28zm1.76.52c.24-.06.48-.1.72-.14l-.08.44c-.2-.12-.42-.22-.64-.3z"/>
    </g>
    <path fill="none" stroke-width=".4" d="M78.2 91.46c.64-.34.8-.66.88-.8.38-.14 1.06-1.06 1.06-1.44a5.4 5.4 0 0 0 .56-.82"/>
  </g>
</svg>
