<svg xmlns="http://www.w3.org/2000/svg" fill="#d7374a" stroke="#000" viewBox="50 50 200 200">
  <metadata source="http://wappenwiki.org/images/0/0e/Barrin.svg" license="https://creativecommons.org/licenses/by-nc-sa/3.0"/>
  <g id="butterfly" stroke-width="2.5" transform="translate(17.5 97.8) scale(0.234)">
    <g>
      <path class="secondary" d="M360-3.6c12.3-16.6,24.6-33.2,36.9-49.7c13.2-17.9,26.6-35.8,43.3-50.6c20.4-18.1,47.4-32.5,75.2-26.3c3,0.7,6.5,2,7.3,5c1.1,4.3,0.6,8-3,10.6c-1.3,0.9-2.8,1.6-3.8,2.9c-1.4,1.9-1.1,4.4-1.1,6.8c0,7.8-3.7,15.5-9.8,20.3c-1.7,1.3-3.7,2.6-4.3,4.7c-0.9,3.1,1.9,6,2.4,9.2c1.1,6.9-8,11.4-9.3,18.3c-0.7,3.7,1.1,7.8-0.4,11.3c-1.9,4.7-8.3,6-10.6,10.5c-2.3,4.8,0.9,11.4-2.6,15.3c-2.2,2.5-6.3,2.8-8.2,5.5c-2.4,3.2-0.6,8-2.7,11.5c-2.6,4.3-9.5,3.9-12.5,7.9c-1,1.3-1.5,3-2.3,4.6c-2.3,4.6-8.2,8.2-14.7,8.1c-7.5,0-14.4-2.1-21.8-3.3c-18.8-2.9-38.1-2.8-56.8,0.4"/>
      <path class="tertiary" d="M396.9-53.3c3.4-4.6,6.9-9.3,10.4-13.9c3.4,7.1,4,13.7,4,13.7s2.4-1.7,6.6-3.8c1.2-0.6,4.5-1.6,5.8-1.8c1.3-0.2,2.7-0.3,4-0.1c1.2,0.1,2.8,0.6,3.3,1c0.2,0.2,0.3,0.3,0.5,0.7c0.2,0.3,0.3,0.9,0.4,1.5c0.2,1.1,0,2.3-0.4,3.5c-0.8,2.3-2.6,4.3-4.7,5.1l-4.4,2.3c0,0,4.8,4.8,6.3,5.8c2.2,1.5,5.1,3.8,5.4,6.6c0.1,1.3,0.2,2-0.5,3.9c-0.7,1.9-2.5,3.6-2.5,3.6s4.2,0,7.1-3.1c0.9-1,1.8-2,2.1-3.7c0.2-0.7,0-1.4,0-2.2c-0.1-0.7-0.2-1.5-0.4-2.2c-0.9-3.1-3.2-5.1-4.8-6.5c-0.3-0.3-0.8-0.7-1.4-1.1c1.9-1.8,3.3-4,4.2-6.4c0.7-2,1-4.3,0.6-6.5c-0.1-1.1-0.4-2.2-1-3.4c-0.5-1.2-1.5-2.4-2.7-3.2c-2.3-1.5-4.2-1.8-6.2-2.2c-2-0.3-4.1-0.2-6.1,0.2c-2,0.4-3.9,1.1-5.7,2c-0.2,0.1-0.3,0.2-0.5,0.3c-0.4-1.9-1-3.7-1.6-5.5c-0.6-1.7-1.3-3.4-2.2-5c8.3-10.5,17-20.5,27-29.4c0,0,7.1-4.1,20.6-4.1c5.3,0,12.9,1.7,16.1,3.5c2.2,1.2,4.3,2.8,4.8,5.3c0.5,2.6-0.8,5.2-2.3,7.4c-3.6,5.2-8.4,9.6-13.9,12.7c3.2,1.6,6.7,3.5,8.2,6.9c2.4,5.5-2.3,11.7-7.7,14.2c-2.1,1-4.3,1.6-6,3.2c-1.7,1.5-3.4,4.9-1.9,6.6c4.4,0.9,6.3,6.6,4.6,10.7c-1.7,4.1-5.7,6.8-9.6,8.7c-4,2-8.3,3.5-11.5,6.5c-0.9,0.8-1.7,1.8-1.9,3c-0.5,2.9,2.9,4.9,4.2,7.6c1.3,2.8,0.2,6.3-2,8.5c-2.2,2.2-5.1,3.5-8,4.6c-8.2,3.3-17,6.2-25.8,5c0.1-2.7-1.4-5.1-2.5-7.5c-1.1-2.4-1.7-5.6,0-7.6c1-1.2,2.6-1.8,3.5-3c2.1-2.7-0.2-6.9-3.5-8c-3.2-1.1-6.7,0-10,1.1c0.7-3.7-0.6-7.8-3.4-10.4c-2.2-2-5.8-3.2-11-2.9C385.9-38.5,391.4-45.9,396.9-53.3z"/>
      <path class="tertiary" d="M493.2-116.1c-0.3,0.5-0.7,1.1-0.5,1.7c0.3,1.1,1.9,1.2,3,1c2.9-0.6,5.7-1.6,8.3-3.1c1.4-0.8,3.9-2.6,1.8-4.2c-0.7-0.5-1.7-0.6-2.6-0.7C499.3-121.5,495.4-119.3,493.2-116.1z"/>
      <path class="tertiary" d="M495.7-95.3c0.4,0.3,0.8,0.4,1.2,0.6c2.9,0.8,6.5,0.1,7.8-2.6c1.8-3.5-1.3-6.5-4.9-6.4C496.1-103.6,491.8-98.5,495.7-95.3z"/>
      <path class="tertiary" d="M482.2-74.6c0.4,2.4,2.5,4.7,5,4.8c0.4,0,0.8,0,1.2-0.1c2.7-0.6,4.5-3.7,4.9-6.6C494.5-85.4,480.9-82.4,482.2-74.6z"/>
      <path class="tertiary" d="M473.1-46.8c0.1,0.7,0.3,1.4,0.7,2c0.5,0.6,1.1,0.9,1.8,1.1c2.3,0.7,5-0.1,6.6-1.9c1.9-2.1,2.9-6.9-0.2-8.3c-1.4-0.6-3-0.4-4.4,0.2C474.7-52.4,472.7-50.1,473.1-46.8z"/>
      <path class="tertiary" d="M462.2-11.2c8-2.9,6.8-16.4-2.6-13.5C450.7-22,451.4-7.3,462.2-11.2z"/>
      <path class="tertiary" d="M441,8.5c0.1,0.6,0.2,1.1,0.6,1.6c0.5,0.7,1.4,1,2.2,1.1c3.6,0.4,8.4-5.8,4-7.9c-1.2-0.6-2.7-0.4-4,0.1C441.8,4.4,440.8,6.3,441,8.5z"/>
      <path class="tertiary" d="M370.9,12.1c0,0-1.2-5.6,2.2-12.9c1.8-3.9,4.6-7.7,8.8-9.1c0.3-0.1,0.6-0.2,1-0.1c0.6,0.1,0.9,0.7,1.1,1.2c1.3,3.1,1.6,6.6,0.8,9.9c2.1,0.1,4.2-0.1,6.2,0.6c2,0.7,3.7,2.8,3.1,4.8c-0.4,1.4-1.8,2.2-3.2,2.5c-1.4,0.3-2.8,0-4.2-0.1C381.2,8.4,375.7,9.6,370.9,12.1z"/>
    </g>
    <g>
      <path class="secondary" d="M345.3-3.6c-12.3-16.6-24.6-33.2-36.9-49.7c-13.2-17.9-26.6-35.8-43.3-50.6c-20.4-18.1-47.4-32.5-75.2-26.3c-3,0.7-6.5,2-7.3,5c-1.1,4.3-0.6,8,3,10.6c1.3,0.9,2.8,1.6,3.8,2.9c1.4,1.9,1.1,4.4,1.1,6.8c0,7.8,3.7,15.5,9.8,20.3c1.7,1.3,3.7,2.6,4.3,4.7c0.9,3.1-1.9,6-2.4,9.2c-1.1,6.9,8,11.4,9.3,18.3c0.7,3.7-1.1,7.8,0.4,11.3c1.9,4.7,8.3,6,10.6,10.5c2.3,4.8-0.9,11.4,2.6,15.3c2.2,2.5,6.3,2.8,8.2,5.5c2.4,3.2,0.6,8,2.7,11.5c2.6,4.3,9.5,3.9,12.5,7.9c1,1.3,1.5,3,2.3,4.6c2.3,4.6,8.2,8.2,14.7,8.1c7.5,0,14.4-2.1,21.8-3.3c18.8-2.9,38.1-2.8,56.8,0.4"/>
      <path class="tertiary" d="M308.4-53.3c-3.4-4.6-6.9-9.3-10.4-13.9c-3.4,7.1-4,13.7-4,13.7s-2.4-1.7-6.6-3.8c-1.2-0.6-4.5-1.6-5.8-1.8c-1.3-0.2-2.7-0.3-4-0.1c-1.2,0.1-2.8,0.6-3.3,1c-0.2,0.2-0.3,0.3-0.5,0.7c-0.2,0.3-0.3,0.9-0.4,1.5c-0.2,1.1,0,2.3,0.4,3.5c0.8,2.3,2.6,4.3,4.7,5.1l4.4,2.3c0,0-4.8,4.8-6.3,5.8c-2.2,1.5-5.1,3.8-5.4,6.6c-0.1,1.3-0.2,2,0.5,3.9c0.7,1.9,2.5,3.6,2.5,3.6s-4.2,0-7.1-3.1c-0.9-1-1.8-2-2.1-3.7c-0.2-0.7,0-1.4,0-2.2c0.1-0.7,0.2-1.5,0.4-2.2c0.9-3.1,3.2-5.1,4.8-6.5c0.3-0.3,0.8-0.7,1.4-1.1c-1.9-1.8-3.3-4-4.2-6.4c-0.7-2-1-4.3-0.6-6.5c0.1-1.1,0.4-2.2,1-3.4c0.5-1.2,1.5-2.4,2.7-3.2c2.3-1.5,4.2-1.8,6.2-2.2c2-0.3,4.1-0.2,6.1,0.2c2,0.4,3.9,1.1,5.7,2c0.2,0.1,0.3,0.2,0.5,0.3c0.4-1.9,1-3.7,1.6-5.5c0.6-1.7,1.3-3.4,2.2-5c-8.3-10.5-17-20.5-27-29.4c0,0-7.1-4.1-20.6-4.1c-5.3,0-12.9,1.7-16.1,3.5c-2.2,1.2-4.3,2.8-4.8,5.3c-0.5,2.6,0.8,5.2,2.3,7.4c3.6,5.2,8.4,9.6,13.9,12.7c-3.2,1.6-6.7,3.5-8.2,6.9c-2.4,5.5,2.3,11.7,7.7,14.2c2.1,1,4.3,1.6,6,3.2c1.7,1.5,3.4,4.9,1.9,6.6c-4.4,0.9-6.3,6.6-4.6,10.7c1.7,4.1,5.7,6.8,9.6,8.7c4,2,8.3,3.5,11.5,6.5c0.9,0.8,1.7,1.8,1.9,3c0.5,2.9-2.9,4.9-4.2,7.6c-1.3,2.8-0.2,6.3,2,8.5c2.2,2.2,5.1,3.5,8,4.6c8.3,3.3,17,6.2,25.8,5c-0.1-2.7,1.4-5.1,2.5-7.5s1.7-5.6,0-7.6c-1-1.2-2.6-1.8-3.5-3c-2.1-2.7,0.2-6.9,3.5-8c3.2-1.1,6.7,0,10,1.1c-0.7-3.7,0.6-7.8,3.4-10.4c2.2-2,5.8-3.2,11-2.9C319.4-38.5,313.9-45.9,308.4-53.3z"/>
      <path class="tertiary" d="M212.1-116.1c0.3,0.5,0.7,1.1,0.5,1.7c-0.3,1.1-1.9,1.2-3,1c-2.9-0.6-5.7-1.6-8.3-3.1c-1.4-0.8-3.9-2.6-1.8-4.2c0.7-0.5,1.7-0.6,2.6-0.7C206-121.5,209.9-119.3,212.1-116.1z"/>
      <path class="tertiary" d="M209.6-95.3c-0.4,0.3-0.8,0.4-1.2,0.6c-2.9,0.8-6.5,0.1-7.8-2.6c-1.8-3.5,1.3-6.5,4.9-6.4C209.2-103.6,213.5-98.5,209.6-95.3z"/>
      <path class="tertiary" d="M223.1-74.6c-0.4,2.4-2.5,4.7-5,4.8c-0.4,0-0.8,0-1.2-0.1c-2.7-0.6-4.5-3.7-4.9-6.6C210.8-85.4,224.4-82.4,223.1-74.6z"/>
      <path class="tertiary" d="M232.3-46.8c-0.1,0.7-0.3,1.4-0.7,2c-0.5,0.6-1.1,0.9-1.8,1.1c-2.3,0.7-5-0.1-6.6-1.9c-1.9-2.1-2.9-6.9,0.2-8.3c1.4-0.6,3-0.4,4.4,0.2C230.6-52.4,232.7-50.1,232.3-46.8z"/>
      <path class="tertiary" d="M243.2-11.2c-8-2.9-6.8-16.4,2.6-13.5C254.6-22,254-7.3,243.2-11.2z"/>
      <path class="tertiary" d="M264.3,8.5c-0.1,0.6-0.2,1.1-0.6,1.6c-0.5,0.7-1.4,1-2.2,1.1c-3.6,0.4-8.4-5.8-4-7.9c1.2-0.6,2.7-0.4,4,0.1C263.5,4.4,264.5,6.3,264.3,8.5z"/>
      <path class="tertiary" d="M335.5,12.1c0,0,1.2-5.6-2.2-12.9c-1.8-3.9-4.6-7.7-8.8-9.1c-0.3-0.1-0.6-0.2-1-0.1c-0.6,0.1-0.9,0.7-1.1,1.2c-1.3,3.1-1.6,6.6-0.8,9.9c-2.1,0.1-4.2-0.1-6.2,0.6c-2,0.7-3.7,2.8-3.1,4.8c0.4,1.4,1.8,2.2,3.2,2.5c1.4,0.3,2.8,0,4.2-0.1C325.1,8.4,330.7,9.6,335.5,12.1z"/>
    </g>
    <path class="secondary" d="M361.6,23.5c9.1,9.1,13.4,22,15.3,34.7c1.9,12.7,1.6,25.7,2.9,38.5c0.4,4,1.2,8.5,4.6,10.7c3,2,7.2,1.6,10.2,3.5c3.6,2.3,4.6,7.1,6.3,11c1.8,3.9,6.4,7.7,10,5.3c3.7-2.4,3.1-9.4,7.4-10.4c3.1-0.7,5.5,2.7,6.9,5.5c6.6,13.2,13.1,26.3,19.7,39.5c1.2,2.5,0.2,1.3,3,1.4c2.2,0,4-2.1,4.3-4.3s-0.3-4.4-0.9-6.6c-2.6-9-4.5-18.2-4.9-27.6c-0.1-2.9-0.1-5.9,0.9-8.6s3.3-5.1,6.2-5.5c2.3-0.3,4.9,0.6,7-0.4c2.5-1.1,3.2-4.4,2.7-7s-1.8-5.1-2.4-7.7c-1.2-5.4,2.5-10.4,8.1-11.3c1.4-0.2,3-0.2,4.3-0.9c5.3-3.1,0.1-10.9-1.6-14.5c-1.5-2.9-2.4-6.7-0.5-9.3c0.8-1.1,1.9-1.8,2.7-2.8c6.6-7.7-11.8-19.6-17-23.4c-10.5-7.8-22.7-13.3-35.4-16.3c-19.7-4.6-40.5-3.5-60,1.7"/>
    <path class="tertiary" d="M421.4,17.1c2.7,0.6,5.4,1.4,8,2.3c3.8,2.6,7.3,5.7,10.2,9.1c3,3.5,5.6,8.4,3.6,12.6c-2,4.1-7.4,5.1-12,5.5c3.3,2.5,3.3,7.9,0.6,11c-2.8,3-7.6,3.7-11.4,2.1c3.3,2.9,2,9-1.8,11.2c-3.8,2.2-8.9,1-12.3-1.9c0.7,3.3,1.1,7.6-1.9,9.4c-2.3,1.4-5.3,0.2-7.4-1.4c-4.7-3.7-7.2-9.4-9.6-14.8c-3.7-8.4-11.2-20.1-19.2-29.8c-1.9-3.2-4.1-6.1-6.7-8.8l-0.2-4.7C381,13.6,401.8,12.5,421.4,17.1z"/>
    <g stroke="none" fill="#000">
      <path d="M420.6,33.2c-2.4-0.5-4.7-1-7-1.6l-6.9-1.7l-6.9-1.7c-2.3-0.6-4.6-1.1-6.9-1.8c2.4-0.3,4.8-0.3,7.2-0.1c2.4,0.2,4.8,0.6,7.1,1.2c2.3,0.6,4.6,1.3,6.9,2.3C416.5,30.7,418.6,31.8,420.6,33.2z"/>
      <path d="M413.5,49.2c-1.5-1.1-2.8-2.3-4.1-3.5l-3.9-3.5l-3.9-3.5c-1.3-1.2-2.6-2.4-3.8-3.7c1.8,0.5,3.4,1.2,5,2.1c1.6,0.9,3,2,4.4,3.2c1.3,1.2,2.6,2.6,3.6,4C411.9,45.9,412.9,47.4,413.5,49.2z"/>
      <path d="M395.5,55.7c-1.4-2.2-2.6-4.4-3.9-6.5c-1.3-2.1-2.6-4.2-4-6.3c-1.4-2.1-2.8-4.1-4.3-6.1c-1.5-2-3-4-4.5-6.1c2.2,1.3,4.2,3,6,4.9c1.8,1.8,3.4,3.8,4.9,6c1.4,2.1,2.7,4.4,3.7,6.8C394.3,50.7,395.1,53.2,395.5,55.7z"/>
    </g>
    <path class="tertiary" d="M450.2,53c-0.8,0.2-1.6,0.3-2.3,0.5c-2.5,1-3.1,4.2-3.1,6.9c0,2.7-0.1,5.9-2.3,7.4c-2.3,1.6-5.6,0.4-8.2,1.6c-3,1.3-3.7,5.1-4.4,8.3c-0.6,3.2-2.3,6.9-5.5,7.2c-3.3,0.3-6.8-3.4-9.4-1.4c-1.2,0.9-1.5,2.7-2.6,3.8c-1.2,1.2-3.1,1.2-4.7,1.1c-3.2-0.3-6.4-1.3-9.6-1c-3.2,0.3-6.6,2.4-6.9,5.6c-0.3,2.8,2,5.3,4.4,6.8c2.5,1.4,5.3,2.2,7.6,3.9c1.6,1.2,3,2.7,4.8,3.4c4,1.4,8.3-2.1,12.5-1.6c3.7,0.4,6.3,3.7,8.3,6.8c3,4.7,5.6,9.7,7.8,14.9c1.8-1,1.9-3.4,1.9-5.4c-0.1-4.3-0.2-8.6-0.3-12.9c-0.1-2.7-0.1-5.6,1.5-7.8c2.8-4,9.7-4.6,10.7-9.4c0.3-1.3,0-2.6,0.1-3.9c0.1-1.4,0.6-2.6,1.2-3.9c2.9-6.3,7-12,9.2-18.5c1.7-5.3,2.2-13.1-1.8-17.7C454.2,42.2,455,51.7,450.2,53z"/>
    <path class="secondary" d="M343.7,23.5c-9.1,9.1-13.4,22-15.3,34.7s-1.6,25.7-2.9,38.5c-0.4,4-1.2,8.5-4.6,10.7c-3,2-7.2,1.6-10.2,3.5c-3.6,2.3-4.6,7.1-6.3,11c-1.8,3.9-6.4,7.7-10,5.3c-3.7-2.4-3.1-9.4-7.4-10.4c-3.1-0.7-5.5,2.7-6.9,5.5c-6.6,13.2-13.1,26.3-19.7,39.5c-1.2,2.5-0.2,1.3-3,1.4c-2.2,0-4-2.1-4.3-4.3c-0.4-2.2,0.3-4.4,0.9-6.6c2.6-9,4.5-18.2,4.9-27.6c0.1-2.9,0.1-5.9-0.9-8.6s-3.3-5.1-6.2-5.5c-2.3-0.3-4.9,0.6-7-0.4c-2.5-1.1-3.2-4.4-2.7-7c0.5-2.7,1.8-5.1,2.4-7.7c1.2-5.4-2.5-10.4-8.1-11.3c-1.4-0.2-3-0.2-4.3-0.9c-5.3-3.1-0.1-10.9,1.6-14.5c1.5-2.9,2.4-6.7,0.5-9.3c-0.8-1.1-1.9-1.8-2.7-2.8c-6.6-7.7,11.8-19.6,17-23.4c10.5-7.8,22.7-13.3,35.4-16.3c19.7-4.6,40.5-3.5,60,1.7"/>
    <path class="tertiary" d="M283.9,17.1c-2.7,0.6-5.4,1.4-8,2.3c-3.8,2.6-7.3,5.7-10.2,9.1c-3,3.5-5.6,8.4-3.6,12.6c2,4.1,7.4,5.1,12,5.5c-3.3,2.5-3.3,7.9-0.6,11c2.8,3,7.6,3.7,11.4,2.1c-3.3,2.9-2,9,1.8,11.2c3.8,2.2,8.9,1,12.3-1.9c-0.7,3.3-1.1,7.6,1.9,9.4c2.3,1.4,5.3,0.2,7.4-1.4c4.7-3.7,7.2-9.4,9.6-14.8c3.7-8.4,11.2-20.1,19.2-29.8c1.9-3.2,4.1-6.1,6.7-8.8l0.2-4.7C324.3,13.6,303.5,12.5,283.9,17.1z"/>
    <g stroke="none" fill="#000">
      <path d="M284.7,33.2c2-1.4,4.2-2.5,6.4-3.4c2.2-0.9,4.5-1.7,6.9-2.3c2.3-0.6,4.7-1,7.1-1.2c2.4-0.2,4.8-0.2,7.2,0.1c-2.3,0.7-4.6,1.3-6.9,1.8l-6.9,1.7l-6.9,1.7C289.4,32.2,287.1,32.8,284.7,33.2z"/>
      <path d="M291.8,49.2c0.6-1.7,1.6-3.3,2.6-4.8c1.1-1.5,2.3-2.8,3.6-4c1.3-1.2,2.8-2.3,4.4-3.2c1.6-0.9,3.2-1.7,5-2.1c-1.3,1.4-2.6,2.5-3.8,3.7l-3.9,3.5l-3.9,3.5C294.6,46.9,293.3,48,291.8,49.2z"/>
      <path d="M309.8,55.7c0.4-2.6,1.2-5,2.2-7.4c1-2.4,2.2-4.7,3.7-6.8c1.4-2.1,3.1-4.2,4.9-6c1.8-1.8,3.8-3.5,6-4.9c-1.5,2.1-3,4.1-4.5,6.1c-1.5,2-2.9,4.1-4.3,6.1c-1.4,2.1-2.7,4.2-4,6.3C312.4,51.4,311.2,53.6,309.8,55.7z"/>
    </g>
    <path class="tertiary" d="M255.1,53c0.8,0.2,1.6,0.3,2.3,0.5c2.5,1,3.1,4.2,3.1,6.9s0.1,5.9,2.3,7.4c2.3,1.6,5.6,0.4,8.2,1.6c3,1.3,3.7,5.1,4.4,8.3c0.6,3.2,2.3,6.9,5.5,7.2c3.3,0.3,6.8-3.4,9.4-1.4c1.2,0.9,1.5,2.7,2.6,3.8c1.2,1.2,3.1,1.2,4.7,1.1c3.2-0.3,6.4-1.3,9.6-1c3.2,0.3,6.6,2.4,6.9,5.6c0.3,2.8-2,5.3-4.4,6.8c-2.5,1.4-5.3,2.2-7.6,3.9c-1.6,1.2-3,2.7-4.8,3.4c-4,1.4-8.3-2.1-12.5-1.6c-3.7,0.4-6.3,3.7-8.3,6.8c-3,4.7-5.6,9.7-7.8,14.9c-1.8-1-1.9-3.4-1.9-5.4c0.1-4.3,0.2-8.6,0.3-12.9c0.1-2.7,0.1-5.6-1.5-7.8c-2.8-4-9.7-4.6-10.7-9.4c-0.3-1.3,0-2.6-0.1-3.9c-0.1-1.4-0.6-2.6-1.2-3.9c-2.9-6.3-7-12-9.2-18.5c-1.7-5.3-2.2-13.1,1.8-17.7C251.1,42.2,250.3,51.7,255.1,53z"/>
    <path class="secondary" d="M265,86.7c-0.8,0-1.6-0.3-2.2-0.6c-2-1-3.8-3.9-2.2-6.1c1.6-2.1,5.9-1.6,7.3,0.4C269.6,82.7,268.1,86.7,265,86.7z"/>
    <path class="secondary" d="M278.7,99.2c-1.1,1.1-3.1,1.1-4.1-0.1c-0.5-0.6-0.7-1.3-0.8-2.1c-0.2-1.4,0-3.2,1.7-3.4C278.5,93.3,281.1,96.9,278.7,99.2z"/>
    <path class="secondary" d="M440.3,86.7c0.8,0,1.6-0.3,2.2-0.6c2-1,3.8-3.9,2.2-6.1c-1.6-2.1-5.9-1.6-7.3,0.4C435.8,82.7,437.2,86.7,440.3,86.7z"/>
    <path class="secondary" d="M426.6,99.2c1.1,1.1,3.1,1.1,4.1-0.1c0.5-0.6,0.7-1.3,0.8-2.1c0.2-1.4,0-3.2-1.7-3.4C426.8,93.3,424.3,96.9,426.6,99.2z"/>
    <g>
      <path d="M384.8-130.3c3.3-2.7,3.9-3.4,5.9-5.5c3.5-3.7,8.6-5.8,13.6-6.7c2.7-0.5,5.8-0.6,8.2,0.8c2.4,1.4,3.7,4.9,2.1,7.1c-1,1.3-2.6,1.8-4.1,2.2c-4.5,1.2-8.2,1.7-12.7,2.6c-4.9,1-7.8,1.3-10.1,2.9"/>
      <g>
        <path stroke-width="2" d="M354.3-55.5h4.4c0-16.8,14.8-60,28.9-71.4l-2.8-3.4C370.7-118.8,354.3-75.2,354.3-55.5z"/>
      </g>
      <path d="M320.5-130.3c-3.3-2.7-3.9-3.4-5.9-5.5c-3.5-3.7-8.6-5.8-13.6-6.7c-2.7-0.5-5.8-0.6-8.2,0.8s-3.7,4.9-2.1,7.1c1,1.3,2.6,1.8,4.1,2.2c4.5,1.2,8.2,1.7,12.7,2.6c4.9,1,7.8,1.3,10.1,2.9"/>
      <g>
        <path stroke-width="2" d="M351-55.5h-4.4c0-16.8-14.8-60-28.9-71.4l2.8-3.4C334.7-118.8,351-75.2,351-55.5z"/>
      </g>
    </g>
    <g>
      <path d="M356.5-54.7c0.6-0.6,1.6-0.7,2.5-0.7c4.2-0.2,8.9-0.3,12.2,2.4c2.1,1.6,3.3,4.2,3.8,6.8c1.2,6,1,15-6.4,16.9c-2.8,0.7-6.2-0.5-7.3-3.2c-0.3-0.8-0.9-2-1.8-1.7"/>
      <path d="M348.8-54.7c-0.6-0.6-1.6-0.7-2.5-0.7c-4.2-0.2-8.9-0.3-12.2,2.4c-2.1,1.6-3.3,4.2-3.8,6.8c-1.2,6-1,15,6.4,16.9c2.8,0.7,6.2-0.5,7.3-3.2c0.3-0.8,0.9-2,1.8-1.7"/>
    </g>
    <path d="M352.7-22c-3.3,0-5.9-0.8-8.4-3.9c-4.1-5.1-3.7-13.4-2.9-19.4c1-8,2.3-13.8,11.4-13.5c9.1-0.3,10.3,5.4,11.4,13.5c0.8,6,1.1,14.4-2.9,19.4C358.6-22.8,355.9-22,352.7-22z"/>
    <path d="M357.7,22c5.3,5,8.2,11.9,9.3,18.9c1.2,7.1,0.7,16.7,0.2,23.8c-0.5,7.4-1.1,14.8-1.8,22.2c-1.2,13.9-3,30.2-10.2,42.6c-1.1,1.9-4,2-5.1,0.1c-7.6-12.3-8.4-25-10.2-45.1c-0.7-7.5-1.3-15-1.8-22.4c-0.5-7-0.9-14.2,0.2-21.1c1.1-7,4-13.9,9.3-18.9"/>
    <path d="M352.7,26.5c2.6,0,4.8-1.3,6.3-2.9c1.8-1.8,5.4-5.8,6.3-14.9c0.8-7.7,1.6-17.1-1.6-24.5c-1.7-4-4.4-7.6-11.1-7.6c-5.1,0-9.3,3.6-11.1,7.6C338.4-8.4,339.2,1,340,8.7c0.9,9.1,4.5,13.1,6.3,14.9C347.9,25.1,350.1,26.5,352.7,26.5z"/>
  </g>
</svg>
