<svg xmlns="http://www.w3.org/2000/svg" fill="#d7374a" stroke="#000" viewBox="50 50 200 200">
  <metadata source="http://wappenwiki.org/images/a/a6/Andronikashvili.svg" license="https://creativecommons.org/licenses/by-nc-sa/3.0"/>
  <g id="caravel" stroke-width="2.5" transform="matrix(-.179 0 0 .179 192.6 -1.5)">
    <path class="tertiary" d="M518.5 390.7c6.4 1 12.8 1.8 19.3 1.5 3.8-.2 7.6-.7 11.3-1.7 3.6-1 8.5-2.7 12.2-3.2 9-1 15.7 2.2 17.3 3.9-2.7-.2-11.4-.1-20.4 5.2-2.3 1.3-6.6 2.3-9.2 2.7 2.6.9 7.3.6 10 1.2 1.8.4 3.6 1.1 5.5 1.5 2.1.4 4.3.2 6.4.7 2.9.7 5.8 2.2 7.6 4.7-2.7-.7-5.6-.9-8.4-.4-2.3.4-4.5 1.2-6.8 1.8-7 1.8-14.5.5-21.6.1-7.9-.4-15.7 2.6-23.6 1.6M658.5 416.5c5.5.9 11 1.5 16.5 1.3 3.3-.1 6.6-.6 9.7-1.5 3.1-.9 7.3-2.4 10.5-2.7 7.7-.8 13.5 1.9 14.9 3.3-2.3-.2-9.8-.1-17.5 4.4-1.9 1.1-5.6 2-7.9 2.3 2.3.8 6.3.5 8.6 1.1 1.6.4 3.1 1 4.7 1.3 1.8.3 3.7.2 5.5.6 2.5.6 5 1.9 6.5 4-2.3-.6-4.8-.8-7.2-.3-2 .3-3.9 1-5.8 1.5-6 1.5-12.5.4-18.6.1-6.8-.3-13.5 2.2-20.3 1.4M369.8 416.5c5.5.9 11 1.5 16.5 1.3 3.3-.1 6.6-.6 9.7-1.5 3.1-.9 7.3-2.4 10.5-2.7 7.7-.8 13.5 1.9 14.9 3.3-2.3-.2-9.8-.1-17.5 4.4-1.9 1.1-5.6 2-7.9 2.3 2.3.8 6.3.5 8.6 1.1 1.6.4 3.1 1 4.7 1.3 1.8.3 3.7.2 5.5.6 2.5.6 5 1.9 6.5 4-2.3-.6-4.8-.8-7.2-.3-2 .3-3.9 1-5.8 1.5-6 1.5-12.5.4-18.6.1-6.8-.3-13.5 2.2-20.3 1.4"/>
    <g stroke-width="1.5">
      <rect x="467.7" y="649.5" width="25.4" height="3.4"/>
      <rect x="470.7" y="637.5" width="23.9" height="3.4"/>
      <rect x="474" y="625.5" width="21.6" height="3.4"/>
      <rect x="478.1" y="613.5" width="19.3" height="3.4"/>
      <rect x="481.2" y="601.5" width="18.6" height="3.4"/>
      <rect x="484.5" y="589.5" width="16.8" height="3.4"/>
      <rect x="487.1" y="577.5" width="16.4" height="3.4"/>
      <rect x="490.2" y="565.5" width="14.7" height="3.4"/>
      <rect x="493.5" y="553.5" width="12.8" height="3.4"/>
      <rect x="423.8" y="588.8" transform="rotate(-81.425 501.421 590.56)" width="155.1" height="3.4"/>
      <rect x="404.4" y="588.8" transform="rotate(-74.687 483.902 590.547)" width="159" height="3.4"/>
      <rect x="414.4" y="588.8" transform="rotate(-77.854 492.878 590.556)" width="156.9" height="3.4"/>
      <rect x="536.7" y="649.5" width="25.4" height="3.4"/>
      <rect x="535.1" y="637.5" width="23.9" height="3.4"/>
      <rect x="534.2" y="625.5" width="21.6" height="3.4"/>
      <rect x="532.3" y="613.5" width="19.3" height="3.4"/>
      <rect x="530" y="601.5" width="18.6" height="3.4"/>
      <rect x="528.5" y="589.5" width="16.8" height="3.4"/>
      <rect x="526.3" y="577.5" width="16.4" height="3.4"/>
      <rect x="524.9" y="565.5" width="14.7" height="3.4"/>
      <rect x="523.5" y="553.5" width="12.8" height="3.4"/>
      <rect x="526.6" y="513" transform="rotate(-8.583 528.284 590.852)" width="3.4" height="155.1"/>
      <rect x="544.2" y="511" transform="rotate(-15.312 545.966 590.594)" width="3.4" height="159"/>
      <rect x="535.2" y="512.1" transform="rotate(-12.15 536.808 590.435)" width="3.4" height="156.9"/>
    </g>
    <path d="M507.8 667.2s-.4 3.5 7.1 3.5c7.4 0 7-3.5 7-3.5l-4.3-278.6c-.1-1.5-1.3-2.7-2.8-2.7-1.6 0-2.8 1.2-2.8 2.7l-4.2 278.6zM652 651.7s-.4 3.3 6.7 3.3c7 0 6.6-3.3 6.6-3.3l-4-236.8c-.1-1.4-1.2-2.6-2.6-2.6-1.5 0-2.6 1.2-2.6 2.6L652 651.7zM363.3 651.7s-.4 3.3 6.7 3.3c7 0 6.6-3.3 6.6-3.3l-4-236.8c-.1-1.4-1.2-2.6-2.6-2.6-1.5 0-2.6 1.2-2.6 2.6l-4.1 236.8z"/>
    <path class="secondary" d="M454.9 496.1c4 13.6 3.5 41.9 0 60.2-5.2 26.5-16.9 46.9-35 60-.3-12-12.1-21.5-24-23.6s-29.1 2.2-40.1 7c-15.4 6.7-28.4 21-28.4 21 6.3-17.8 7.1-42.7 2.4-61-4.8-18.3-16.7-35.2-29.2-42.5 0 0 8.3-5.5 20.6-2.5 30.6 7.4 100.1-5.6 121.1-17.3 7.6-4.3 12.6-1.3 12.6-1.3z"/>
    <path d="M296.5 518.9c.3.1.6.1.9 0L461 495.4c1.5-.2 2.5-1.6 2.3-3.1-.2-1.5-1.6-2.5-3.1-2.3l-163.5 23.5c-1.5.2-2.5 1.6-2.3 3.1.1 1.2 1 2.1 2.1 2.3z"/>
    <path class="secondary" d="M726.9 471.6c-7.2 6.9-18.5 10-27.7 6.2-5.8-2.4-11.3-8.7-13.1-13.9-4.5 4.2-15.2 5.8-23.7 3.2-10.7-3.3-19.4-10.6-21.7-21.7-6.9 2.6-16.4 2-23-.9-9.5-4.1-16.2-15.4-16.2-23l125.4 50.1z"/>
    <path d="M488.6 480.1s9.1-9.3 26.3-9.3c17.1 0 26.3 9.3 26.3 9.3l-12.5 23.2s-5.9 1.2-13.7 1.2c-7.8 0-13.7-1.2-13.7-1.2l-12.7-23.2z"/>
    <path d="M633.8 480.7s8.7-8.8 24.9-8.8 24.9 8.8 24.9 8.8l-11.9 22s-5.6 1.1-13 1.1-13-1.1-13-1.1l-11.9-22z"/>
    <path d="M345.7 462.7s8.7-8.8 24.9-8.8 24.9 8.8 24.9 8.8l-11.9 22s-5.6 1.1-13 1.1-13-1.1-13-1.1l-11.9-22z"/>
    <path d="M596 419.8c.2.2.4.3.7.4l133.2 52.6c1.2.5 2.6-.1 3-1.3.5-1.2-.1-2.6-1.3-3l-133.2-52.6c-1.2-.5-2.6.1-3 1.3-.4 1-.1 2 .6 2.6zM320 642.1c-2.4-.8-7.7-2.4-7.7-2.4-2.6-8.2-3.2-16.8-3.3-26.1 23.2 6.5 71.5 18.9 126.3 21 .2 4.2 1.7 17.1 3.5 24.2l-18 34.3M705 641.9c-4.1-.4-7.9-2.8-10.6-5.9-2.7-3.1-4.6-6.9-6.3-10.7-19.7 3.8-40.7 6.7-60.7 8.5.4 3.7 1.1 16.4 0 21.2l6.4 20.8M364.4 699.7c-1.1 0-2.1 0-3.2-.1-.4 0-.7 0-1 .3-.2.3-.3.6-.2 1 .1 3.8.7 12-.3 15.7-2 7.5-3.2 11.6.1 16.4 4.7 7.1 19.1 5.3 25.6 6.3"/>
    <path d="M320 642.1c26.7 8.4 72.5 14.2 105.3 16.2 75.4 4.7 172.1 4.7 260.7-12.5.6 17.8-3.3 36.6-11.4 52.2-8 15.6-20.1 28.8-34.6 37.9-36.1 11.6-222.1 14.1-254.6 3.6-4.1-.9-7.8-3.5-10.4-6.9-2.6-3.3-4.8-8.1-6.5-13.2-3.4-10.4-7.9-30.3-13.3-41.2-5.4-10.9-14.9-21.2-33.2-26.6 0-.1-1-6.8-2-9.5z"/>
    <g fill="none">
      <path d="M680.9 681.7c-27 10-88.1 14.6-153.3 15.3-70.6.8-138.8-2.9-168.4-9M685.4 663.8c-26.8 8.6-95 15.5-164.1 16.2-74.6.8-140.8-5.2-172.1-11.2M672.8 701.2C646.3 711 588.2 716 524 716.7c-69.4.8-129.7-2.7-158.8-8.6M659.7 719.3c-25 9.3-79.4 14.2-139.9 14.9-65.4.8-121.1-2.3-148.6-8"/>
      <rect x="654.3" y="635.7" transform="rotate(171.65 659.5 640.583)" width="10.4" height="9.8"/>
      <rect x="636.3" y="638.4" transform="rotate(173.826 641.506 643.258)" width="10.4" height="9.8"/>
      <rect x="596.8" y="698.6" transform="rotate(176.861 602.002 703.85)" width="10.4" height="10.6"/>
      <rect x="564.1" y="701.3" transform="rotate(176.861 569.286 706.544)" width="10.4" height="10.6"/>
      <rect x="531.4" y="701.8" transform="rotate(178.854 536.564 707.094)" width="10.4" height="10.6"/>
      <rect x="498.6" y="702.5" transform="rotate(-180 503.857 707.792)" width="10.4" height="10.6"/>
      <rect x="465.9" y="701.9" transform="rotate(-177.856 471.131 707.136)" width="10.4" height="10.6"/>
      <rect x="433.2" y="700.1" transform="rotate(-177.856 438.415 705.34)" width="10.4" height="10.6"/>
      <rect x="671.4" y="633" transform="rotate(171.65 676.576 637.887)" width="10.4" height="9.8"/>
      <rect x="339.7" y="630.4" transform="rotate(-169.052 344.928 635.263)" width="10.4" height="9.8"/>
      <rect x="321.7" y="626.8" transform="rotate(-169.052 326.96 631.637)" width="10.4" height="9.8"/>
      <rect x="358.6" y="633.7" transform="rotate(-171.189 363.825 638.64)" width="10.4" height="9.8"/>
      <rect x="396.4" y="639.4" transform="rotate(-174.81 401.567 644.315)" width="10.4" height="9.8"/>
      <rect x="377.6" y="637" transform="rotate(-172.658 382.834 641.871)" width="10.4" height="9.8"/>
      <rect x="415.5" y="640.8" transform="rotate(-176.968 420.712 645.747)" width="10.4" height="9.8"/>
    </g>
    <path d="M685.9 645.8c7.3-1.4 11.9-2.2 19.1-3.9.3 7.1-.3 14.7-1.5 22.4-1.8 11.7-5.3 23.3-10.1 32.8-8 15.6-15.3 23.8-31.8 32.7-5.7 2.4-12.5 4.8-21.6 6.1 14.5-9 26.5-22.3 34.6-37.9 8-15.7 12-34.5 11.3-52.2z"/>
    <path d="M703.6 664.3c1.2-7.7 1.7-15.4 1.5-22.4 8.6-2.1 25.1-5.4 33.8-6.9 1 3.1 1.4 7.3 1.1 10.5-8.2 2.1-22.9 6.4-27.8 9.3-4.3 2.5-6.5 4.1-8.6 9.5M332.1 686.1s42.5 9 68.2 9.9v-22.4c-28.9-2.2-74.4-10.8-74.4-10.8.8 12.2 6.2 23.3 6.2 23.3z"/>
    <path d="M382.3 694.3v-22.4M363.5 691.7v-22.4M344.7 689.2v-22.4"/>
    <path class="secondary" d="M457.4 501.6c1.1-8.6 5.1-61.1-29.7-78.2 29.7-4.3 103.6-3.8 152.7 48.7-14.3-6.4-37.1-11.6-59-8.8-27.2 3.4-49.7 18-64 38.3z"/>
    <path class="secondary" d="M592.4 490c5.4 14 7.4 46.1 5.1 65.8-4.8 40.8-25.8 67.9-43.7 83.3-1.8-14.5-16.7-22.9-29.5-23.1-30.9-.5-57 27.3-57 27.3 5.1-19.5 4.9-55.8-1.8-74.8S453 530.7 439.1 524c0 0 0-4.5 13.3-2.4 33.1 5.1 105.5-14.8 126.8-29.1 7.7-5.2 13.2-2.5 13.2-2.5z"/>
    <path d="M436.9 526.3c.3 0 .6 0 .9-.1l160.7-38.4c1.4-.3 2.3-1.8 2-3.2-.3-1.4-1.8-2.3-3.2-2L436.5 521c-1.4.3-2.3 1.8-2 3.2.3 1.2 1.3 2 2.4 2.1z"/>
    <path class="secondary" d="M724.9 496.1c4 13.6 3.5 41.9 0 60.2-5.2 26.5-16.9 46.9-35 60-.3-12-12.1-21.5-24-23.6s-29.1 2.2-40.1 7c-15.4 6.7-28.4 21-28.4 21 6.3-17.8 7.1-42.7 2.4-61-4.8-18.3-16.7-35.2-29.2-42.5 0 0 8.3-5.5 20.6-2.5 30.6 7.4 100.1-5.6 121.1-17.3 7.6-4.3 12.6-1.3 12.6-1.3z"/>
    <path d="M566.5 518.9c.3.1.6.1.9 0L731 495.4c1.5-.2 2.5-1.6 2.3-3.1-.2-1.5-1.6-2.5-3.1-2.3l-163.5 23.5c-1.5.2-2.5 1.6-2.3 3.1.1 1.2 1 2.1 2.1 2.3z"/>
    <g stroke="none" fill="#000">
      <path d="M338.2 538.6c2.1 3 3.7 6.3 5.1 9.7 1.4 3.4 2.3 7 3 10.6.6 3.6 1 7.3 1 10.9 0 3.7-.4 7.3-1.3 10.9-.2-3.6-.3-7.2-.7-10.8-.4-3.5-.8-7.1-1.5-10.6-.6-3.5-1.5-6.9-2.4-10.4-1-3.5-2.1-6.9-3.2-10.3zM375.1 530.1c2 3.5 3.6 7.2 4.9 11 1.3 3.8 2.1 7.8 2.7 11.8.5 4 .8 8 .6 12.1-.2 4-.7 8-1.7 11.9 0-4-.1-8-.3-11.9-.2-3.9-.6-7.9-1.1-11.7-.5-3.9-1.3-7.8-2.1-11.6-.9-3.9-1.9-7.7-3-11.6zM434 515.4c.8 5 1.3 9.9 1.5 14.9.2 5 .1 10.1-.5 15.1s-1.7 10-3.6 14.8c-1.8 4.7-4.3 9.2-7.7 13 2.5-4.3 4.4-8.9 5.8-13.6.7-2.4 1.3-4.7 1.8-7.1.5-2.4.9-4.8 1.2-7.3.6-4.9.8-9.8 1-14.8.2-5 .2-9.9.5-15zM631.5 442c-1.9.5-3.9.6-5.8.3s-3.9-.9-5.6-1.8c-1.8-.9-3.4-2.1-4.7-3.5-1.3-1.4-2.5-3.1-3.1-4.9 1.5 1.3 2.9 2.4 4.4 3.5 1.5 1 3 2 4.6 2.8 1.6.8 3.2 1.5 4.9 2.1 1.6.5 3.4 1 5.3 1.5zM679.8 460.5c-2.9 1.2-6.1 1.8-9.3 1.7-3.2-.1-6.4-.8-9.4-2-1.5-.7-2.9-1.4-4.3-2.3-1.3-.9-2.6-1.9-3.7-3.1-2.3-2.3-4.1-4.9-5.3-7.9 2 2.4 4.2 4.6 6.5 6.4 2.4 1.8 4.9 3.4 7.7 4.5 2.7 1.2 5.6 1.9 8.6 2.4 3.1.5 6.1.5 9.2.3zM711.7 473.4c-2.1.4-4.2.4-6.3 0-2.1-.3-4.1-1-6-2-1.9-1-3.7-2.2-5.2-3.7s-2.9-3.3-3.2-5.4c1.3 1.7 2.8 2.8 4.5 3.9 1.6 1.1 3.3 2.1 5.1 3 1.7.9 3.5 1.6 5.4 2.3 1.8.7 3.7 1.3 5.7 1.9zM471 544.7c3.8 4.6 6.8 9.9 9.1 15.4 2.3 5.6 3.9 11.4 4.8 17.4.9 6 1.2 12 .9 18-.3 6-1.1 12-2.5 17.8.4-6 .7-11.9.6-17.8-.1-5.9-.5-11.8-1.4-17.6-.9-5.8-2.3-11.5-4.2-17.1-1.9-5.5-4.4-10.9-7.3-16.1zM527.9 533.7c1.9 5.3 3.2 10.9 4 16.5.8 5.6 1.2 11.3 1.1 17-.1 5.7-.7 11.4-1.7 17s-2.6 11.1-4.7 16.3c1.1-5.5 2.1-11.1 2.7-16.6.7-5.6 1.1-11.1 1.2-16.7.1-5.6-.1-11.2-.5-16.7-.5-5.6-1.2-11.2-2.1-16.8zM578 523.3c2.4 7.3 3.7 14.9 4.3 22.6.3 3.8.4 7.7.2 11.6-.1 3.9-.5 7.7-1.2 11.6-1.4 7.6-3.4 15.1-6.6 22.2-1.6 3.5-3.5 6.9-5.7 10.1-2.3 3.1-4.9 6-7.8 8.5 2.5-2.9 4.8-5.9 6.7-9.2 1.9-3.2 3.6-6.7 4.9-10.2 2.8-7 4.6-14.4 6-21.8 1.4-7.4 1.7-15 1.6-22.6-.1-7.7-.9-15.3-2.4-22.8zM608.2 538.6c2.1 3 3.7 6.3 5.1 9.7 1.4 3.4 2.3 7 3 10.6.6 3.6 1 7.3 1 10.9 0 3.7-.4 7.3-1.3 10.9-.2-3.6-.3-7.2-.7-10.8-.4-3.5-.8-7.1-1.5-10.6-.6-3.5-1.5-6.9-2.4-10.4-1-3.5-2.1-6.9-3.2-10.3zM645.1 530.1c2 3.5 3.6 7.2 4.9 11 1.3 3.8 2.1 7.8 2.7 11.8.5 4 .8 8 .6 12.1-.2 4-.7 8-1.7 11.9 0-4-.1-8-.3-11.9-.2-3.9-.6-7.9-1.1-11.7-.5-3.9-1.3-7.8-2.1-11.6-.9-3.9-1.9-7.7-3-11.6zM704 515.4c.8 5 1.3 9.9 1.5 14.9.2 5 .1 10.1-.5 15.1s-1.7 10-3.6 14.8c-1.8 4.7-4.3 9.2-7.7 13 2.5-4.3 4.4-8.9 5.8-13.6.7-2.4 1.3-4.7 1.8-7.1.5-2.4.9-4.8 1.2-7.3.6-4.9.8-9.8 1-14.8.2-5 .2-9.9.5-15z"/>
    </g>
  </g>
</svg>
