<svg xmlns="http://www.w3.org/2000/svg" fill="#d7374a" stroke="#000" viewBox="50 50 200 200">
  <metadata source="http://wappenwiki.org/images/6/64/Bonanno.svg" license="https://creativecommons.org/licenses/by-nc-sa/3.0"/>
  <g id="catPassantGuardant" stroke-width="3" transform="translate(47.3 44) scale(0.13)">
    <g>
      <g stroke-linejoin="round">
        <path class="secondary" d="M106.9 562.6c2.3 7.5 12.3 16 19.3 12.6.1-4.4-7.6-8.5-5.2-19.3"/>
        <path d="M212.4 443.5c-10.7 4-14.1 9.4-24.1 14.7-11.5 6.1-20.9 6.5-31.8 14.3-3.9 2.8-7.7 6-12.2 8-4.6 2-21.1 4.3-25.8 5.9-7.2 2.5-17.3 8-15.6 24.5 2.4 17.7-5.8 20.7-4 38.4-3.8 5.3.6 14.7 5.4 15 3.3.2 3.5-2.9 5.8-4.9 3.7-3.3 8.7-3.8 11.4-2.3L146 549c3.3-2.5 4.5-8.6.6-13.9-12-16.4-4.3-14.2-9.4-21.5 12.1-4.4 28.9 1.9 42.1-2.4 4.1-1.3 7.2-3.9 11.5-4.1 2.7-.2 5.3 1.3 8 1.3 17.6.3 15.9-4.2 32.6-5.2"/>
        <path class="secondary" d="M146.5 547.9c-2.4 10.8 5.3 14.8 5.2 19.3-7 3.5-17-5-19.3-12.6-.4-1.2 3-3.4 3.9-4.5 1.1-1.4 6.9-2 9.7-1m-15.3 2.7c-2.4 10.8 5.3 14.8 5.2 19.3-7 3.5-17-5-19.3-12.6-.3-1.1-.3-2.6-.3-3.7 0-.7 5.1-1.9 7.6-2.2"/>
        <path d="M130.2 553c-2.6-1.6-7.7-1-11.4 2.3-2.3 2.1-2.5 5-5.8 4.9-6.2-.5-9.1-6.7-5-12"/>
        <path d="M145.9 549.4c-2.6-1.6-7.7-1-11.4 2.3-2.3 2.1-1.5 4.9-4.8 4.8-5.6-.9-9.5-6.9-4.7-12.6"/>
      </g>
      <g stroke="none" fill="#000">
        <path d="M107 547.1c1.2-1 1.3-3.4 1.1-5.7-.2-2.4-.4-4.8-.4-7.3a30.5 30.5 0 0 1 3.2-14.3l.3.1a33.7 33.7 0 0 0-1.7 14.1c.2 2.4.6 4.7 1 7.1.2 1.2.4 2.5.3 3.9 0 1.4-.5 3-1.6 4.2l-2.2-2.1zm16.8-4.1c.3-.3.4-1.1.2-2.1-.1-.9-.5-2-.8-3l-2-6.3c-.6-2.2-1-4.4-1-6.6-.1-2.2.2-4.5 1-6.6l.3.1a35 35 0 0 0-.4 3.2l.2 3.2c.3 2.1.9 4.2 1.6 6.2.7 2 1.7 4 2.5 6 .4 1 .9 2.1 1.2 3.3.2.6.3 1.2.3 2a4 4 0 0 1-.6 2.3l-2.5-1.7z"/>
        <path d="M124 542.9a11 11 0 0 1 2.8-2.9 13 13 0 0 1 3.5-1.8c1.2-.5 2.5-.8 3.8-1l1.9-.2c.6 0 1.3-.1 1.9.3-.6.5-1.1.6-1.7.8l-1.7.6-3.1 1.6c-1 .6-1.9 1.3-2.7 2-.9.7-1.6 1.5-2.4 2.3l-2.3-1.7zm-17.2 4.6c.3-1 1-1.9 1.8-2.6.8-.7 1.7-1.3 2.5-1.8.9-.5 1.8-.8 2.8-1.1l1.4-.4c.5-.1.9-.3 1.5 0a2 2 0 0 1-1.1 1l-1.1.8-2.1 1.7-1.7 1.8-1.4 1.9-2.6-1.3zm29.3-33.1a9.2 9.2 0 0 1 0-9.1c-.6 2.9.6 5.7 2.4 7.3l-2.4 1.8zm45.5-22.6c1.5-.8 3.4-1 5.2-1 1.8 0 3.5.3 5.2.6 1.7.3 3.3.5 4.8.5 1.6 0 2.9-.3 4.4-.9 1.5-.5 3-1.3 4.8-1.9a19 19 0 0 1 5.3-.9c3.6-.2 7 .4 10.3 1.2-3.4.4-6.9.5-10.1 1.1-1.6.3-3.2.7-4.6 1.3l-4.7 2c-.9.3-1.8.6-2.7.7l-1.4.1h-1.4c-1.9-.1-3.6-.6-5.3-1.1-3.3-.8-6.3-2.1-9.8-1.7z"/>
      </g>
    </g>
    <g>
      <g stroke-linejoin="round">
        <path class="secondary" d="M435.2 651.8c-10.8 2.4-11.2 11.1-15.3 12.9-6.1-4.9-2.7-17.6 3.2-22.8a16 16 0 0 1 12.9 3.2"/>
        <path class="secondary" d="M448.2 658.8c-10.8 2.4-11.2 11.1-15.3 12.9-6.1-4.9-2.7-17.6 3.2-22.8 2.9-.3 5.8-.3 8.5.7s5.1 3 6.3 5.6m-30-10.4c-10.8 2.4-11.2 11.1-15.3 12.9-6.1-4.9-2.7-17.6 3.2-22.8 2.7-.5 5.6-.8 8.3-.2 2 .5 4.1 1.4 5.1 3.2"/>
        <path d="M552.4 514.5c-3.7 10.2 1.4 20.1-1.8 28.4-4.6 12.2-15 19-26.9 24.3-20.1 8.9-45.5 30.3-47.7 62.2-.2 10.6-11.6 23.3-15.3 27.1a14.6 14.6 0 0 1-13.5 3.4c.3-3-2.3-7.4-6.9-9.3-2.8-1.2-5.6-.1-6.9-3.2l.2 3.8s-1.8-5.7-6.4-7.6c-2.8-1.2-5.6-.1-6.9-3.2l-.5 4.3c-.1-1.9-2.3-6.2-6.8-8.1-2.8-1.2-5.7-.1-6.9-3.2-1.7-4.5 2.1-11.8 8.5-10.6 4.2 0 20-2.4 28.4-16.8 9.7-20 20-26.7 30.5-44.8 2.4-4.2 4.8-8.5 6-13.3 2.4-10.3-10.7-20.4-9.4-36.9.7-9.1-4.6-21 0-28.9 2-3.4 5.5-5.8 8.9-7.7a98.7 98.7 0 0 1 34-11.2c11.6-1.7 23.5-1.8 35.2-1.8l27-.1c.6 0 1.2 0 1.6.4.5.5.4 1.4.2 2.1a83.8 83.8 0 0 1-5.9 16.8"/>
      </g>
      <path fill="none" d="M442.9 637.7c-7.2-1.9-11 4.1-9.5 9.6m-4.6-17.6c-6.6-1.4-10.6 4.9-8.5 10.6"/>
      <g stroke="none" fill="#000">
        <path d="M455.5 626.4c.1.4.2.8.1 1.2l-.3 1.2-.8 2.3a15.6 15.6 0 0 1-6.6 7.1 7.8 7.8 0 0 1-5.3.9l.4-2.9c1.1 0 2.3-.3 3.6-.8 1.2-.5 2.4-1.2 3.5-2.1 1.1-.9 2.1-1.9 3-3.1l1.2-1.8.5-1 .7-1zm-12.1-7 .1 1.3-.3 1.2-.5 1.2-.6 1.1a15.8 15.8 0 0 1-8.1 6.3c-1.7.6-3.5.9-5.4.5l.3-2.9c2.7-.1 5.7-.8 8.3-2.2 1.3-.7 2.5-1.6 3.6-2.7l.7-.9.6-.9.5-1 .8-1z"/>
        <path d="M443.2 636.2c1.4.2 2.8.7 4 1.4 1.3.7 2.4 1.6 3.4 2.6s1.8 2.2 2.4 3.5l.8 1.9c.2.6.5 1.3.5 2-.5-.5-.8-1.1-1.2-1.6l-1.2-1.5a16.8 16.8 0 0 0-6.1-4l-3.4-1.2.8-3.1zm-14.1-8c1.1 0 2 .4 2.9.8a17.4 17.4 0 0 1 4.9 3.4l1 1.1c.3.4.6.8.7 1.3l-1.2-.7-1.2-.6c-.8-.4-1.7-.6-2.5-.9l-2.6-.7-2.4-.7.4-3zm-14.5-7.1c1-.2 2.1 0 3.1.4s1.9 1 2.6 1.6l2 1.8 1 .8 1.2.7h-1.4l-1.4-.3-2.6-1-2.2-.6-2.2-.3-.1-3.1z"/>
      </g>
      <g stroke-linejoin="round">
        <path class="secondary" d="M642.1 661.4c-10.8 2.4-11.2 11.1-15.3 12.9-6.1-4.9-2.7-17.6 3.2-22.8a16 16 0 0 1 12.9 3.2"/>
        <path class="secondary" d="M655.1 668.4c-10.8 2.4-11.2 11.1-15.3 12.9-6.1-4.9-2.7-17.6 3.2-22.8 2.9-.3 5.8-.3 8.5.7s5.1 3 6.3 5.6m-371.7-3.4c-10.8 2.4-11.2 11.1-15.3 12.9-6.1-4.9-2.7-17.6 3.2-22.8a16 16 0 0 1 12.9 3.2"/>
        <path class="secondary" d="M299.1 668.4c-10.8 2.4-11.2 11.1-15.3 12.9-6.1-4.9-2.7-17.6 3.2-22.8 2.9-.3 5.8-.3 8.5.7s5.1 3 6.3 5.6m-30-10.5c-10.8 2.4-11.2 11.1-15.3 12.9-6.1-4.9-2.7-17.6 3.2-22.8 2.7-.5 5.6-.8 8.3-.2 2 .5 4.1 1.4 5.1 3.2m354.7 6.9c-10.8 2.4-11.2 11.1-15.3 12.9-6.1-4.9-2.7-17.6 3.2-22.8 2.7-.5 5.6-.8 8.3-.2 2 .5 4.1 1.4 5.1 3.2"/>
        <path d="M162.2 324.5c8.5 24.2-1.1 24.2 1.9 40.2 4 21.4 1.4 17.2.7 36.6-.4 10.4 6.5 18.1 8.8 29.1 1.1 5.6 1.3 11.5 3 17a75.6 75.6 0 0 0 25.5 34.8c2.3 1.5 4.8 2.5 7 4.2 6.9 5.2 9 13.9 14.9 20.2 6.7 7.1 11.9 12.7 21.5 14.6 2.9.6 8.8 1.1 11.8 1.3 8.2 12.9 8.9 18.5 11.4 25.5 3.7 10.3 13 16.1 15.3 26.8.7 3.3 8.3 16 6.4 41-2 14.5-20.7 16.4-24.9 16.4-6.4-1.2-10.2 6.1-8.5 10.6 1.2 3.1 4.1 2 6.9 3.2 4.5 1.9 6.8 6.2 6.8 8.1l.5-4.3c1.3 3 4.1 2 6.9 3.2 4.5 1.9 6.4 7.6 6.4 7.6l-.2-3.8c1.3 3 4.1 2 6.9 3.2 4.5 1.9 7.2 6.3 6.9 9.3 1.5.7 8.9 1.3 13.5-3.4 3.7-3.7 14.9-16 15.1-26.6.2-9.5-5.7-12.1-4.4-34.4.6-17.5 6-31.3 2.3-46.6-3.4-14-1.6-11.9-1.4-26.5 29.5 6.8 52.6-7.6 73.5-3.9 22.4 3.9 52.4-8.2 69.2-17.2 9.1-4.9 21.9-8.5 31.8-11.4 10.3-3 17.7-4.7 32.7-11.1 10.3 26.2 24.4 38.5 43.2 47 6.6 3 20.4 5.3 26.7 8.8 6.7 3.7 16.5 8.9 22.9 14.1 5.8 4.6 11.8 7.9 16.2 14 9.7 13.6 9.1 26.9 6.9 43.5-2 14.5-20.7 16.4-24.9 16.4-6.4-1.2-10.2 6.1-8.5 10.6 1.2 3.1 4.1 2 6.9 3.2 4.5 1.9 6.8 6.2 6.8 8.1l.5-4.3c1.3 3 4.1 2 6.9 3.2 4.5 1.9 6.4 7.6 6.4 7.6l-.2-3.8c1.3 3 4.1 2 6.9 3.2 4.5 1.9 7.2 6.3 6.9 9.3 1.5.7 8.9 1.3 13.5-3.4 3.7-3.7 14.9-16 15.1-26.6.2-9.5-5.7-12.1-4.4-34.4 1.2-13.8 2.7-19 4.9-32.8.8-5.2 4.9-12.5 4.8-17.8-.1-5.3-1-10.9-8.1-12.7a40.3 40.3 0 0 1-24.1-14.1 54.2 54.2 0 0 1-12.8-38.1c3.9-27.8 13.6-40.9 5.4-73.9 19.9 3.2 69.5-23.5 62.7-85-4.2-37.5-32.7-59-69-66.8-78.4-16.7-151.2 23-211 9.2-23.7-5.5-37.9-18.3-40.4-39.2-2.5-21.5 17.1-34.7 31.4-35.1 7.8-.2 23.9 2.5 25.5 20.2.3 1.9.8 4.3 3.1 4.3 1.8 0 3.1-2.8 3.8-5.2 4.2-17.4-12.6-37.6-35.9-37.6a52 52 0 0 0-53 57.4c3.3 32.1 22.8 51.6 60.6 59.6 59.3 12.6 144.1-24 205.6-7.7 25.6 6.8 45 20.1 48.1 43.8 4.6 34.3-20.6 53.9-41.3 51.8-37.1-45.2-94.1-41.2-144.3-34.7-21.1 2.8-38.2 8.6-59.1 12.3-44.7 7.9-92.6 7-108.6-6.5-7.2-6.2-20.3-11-23.8-15.4-8.8-11.1-7.1-21.8-14.1-33.5"/>
      </g>
      <g stroke="none" fill="#000">
        <path d="M246.8 493c1.7 2.1 3 4.5 3.9 7 1 2.5 1.7 5.1 2.3 7.7.6 2.6 1.1 5 2.1 7.4.9 2.3 2.1 4.5 3.4 6.7l-2.5 1.6a33.4 33.4 0 0 1-3.7-7.3c-.9-2.6-1.4-5.3-1.9-7.8-.5-2.6-.9-5.1-1.7-7.5-.7-2.5-1.6-4.9-2.2-7.5l.3-.3zm77.8-30.1c1.2 5.7 2.8 11.2 4.1 17 .6 2.9 1.2 5.8 1.4 8.8.3 3 .1 6-.3 9-.7 5.9-2 11.6-3 17.3-1 5.7-2.1 11.4-2.2 17.1h-3a131.9 131.9 0 0 1 2.3-17.6c1.1-5.7 2.4-11.4 3.3-17.1.4-2.8.7-5.6.5-8.5-.1-2.8-.6-5.7-1.1-8.5-1.1-5.7-2.4-11.5-2.4-17.4l.4-.1zm185.2-50.7a85.9 85.9 0 0 1 14.9 37c1 6.7 1.2 13.3 2.2 19.8l.9 4.8 1.1 4.7 1.4 4.7 1.6 4.6-2.8 1.1a82.6 82.6 0 0 1-5.2-19.5c-.9-6.7-1.1-13.3-1.9-19.8a83.8 83.8 0 0 0-4.7-19c-2.2-6.2-5.2-12.1-7.8-18.2l.3-.2zm-265.2 9.5.3 5.4-.1 5.2a90.4 90.4 0 0 1-.7 10.6 25 25 0 0 1-1.6-16.2c.5-1.6 1.1-3.4 2.1-5zm-8 43.5c.5 1.8.9 3.4 1.5 4.9a57.8 57.8 0 0 0 4 8.8l2.7 4.3a14 14 0 0 1-7.7-7.4c-.8-1.7-1.2-3.5-1.4-5.3-.1-1.8.1-3.6.9-5.3zm87.9-35.6c.9.3 1.6.9 2.1 1.5s.9 1.4 1.1 2.2c.2.8.3 1.6.2 2.4a5 5 0 0 1-1 2.4c-.6-.7-1-1.4-1.3-2l-.7-1.9-.4-2v-2.6zm118.8 59.7a6.7 6.7 0 0 1-1.4 3.6 9.1 9.1 0 0 1-6.8 3.5c-1.3 0-2.6-.2-3.8-1l3.3-1.3 2.9-1.4 2.8-1.6 3-1.8zm-23.8 6c-.7 1-1.5 1.7-2.2 2.3l-2.3 1.8a21.3 21.3 0 0 1-5.4 2.9c.2-1.2.7-2.2 1.4-3.1.7-.9 1.4-1.6 2.3-2.2a11 11 0 0 1 2.9-1.4 6 6 0 0 1 3.3-.3zm-26.9 10.3c-.8.9-1.7 1.5-2.5 2.1a17.4 17.4 0 0 1-5.6 2.3c-1 .2-2.1.4-3.3.3.6-1 1.4-1.8 2.3-2.4.9-.6 1.8-1.2 2.8-1.6 1-.4 2-.7 3.1-.9 1-.1 2.1-.1 3.2.2zm-25.4 6.6c-1.1 1-2.3 1.7-3.7 2.2a14.3 14.3 0 0 1-8.4.5 9.9 9.9 0 0 1-3.9-1.8l4.1-.6 3.9-.3 3.9-.2 4.1.2zm225.9 18.3h4.2l3.9.4 3.9.6c1.3.3 2.6.6 4 1.1-1.3.7-2.7 1.1-4.1 1.3-1.4.2-2.8.2-4.2 0a19 19 0 0 1-4.1-1.1c-1.3-.5-2.5-1.3-3.6-2.3zm44.6-100.9c1 4 1.6 8.2 1.8 12.3l.1 6.2-.1 3.1-.2 3.1a75.7 75.7 0 0 1-6.4 24l1.9-12.2c.6-4 1.1-8.1 1.5-12.1l.3-3 .2-3 .2-3 .2-3 .5-12.4zM306.9 550.9a6.2 6.2 0 0 1 1.8 4.5c0 .8-.1 1.6-.3 2.3-.2.8-.6 1.5-1.3 2.2a6 6 0 0 1-1.1-2.3c-.2-.7-.3-1.5-.3-2.2 0-.7 0-1.5.2-2.2.2-.7.4-1.5 1-2.3zm-2.9 14.6c.7.5 1 1.2 1.1 1.9a3.9 3.9 0 0 1-1.6 3.7c-.6.4-1.3.7-2.1.5l.3-1.9.4-1.4.7-1.3c.2-.5.6-.9 1.2-1.5zm-1.2-20.5-1.6-.9-.9-.9a11 11 0 0 1-.6-1.1 7 7 0 0 1-.4-1.8c.7-.3 1.4-.2 2 0 .6.2 1 .6 1.4 1.1.3.5.6 1 .6 1.6.1.7 0 1.3-.5 2zm204.6-7.9 2.3-.7 2.2-.7 2.2-.7 2.1-.9c2.7-1.2 5.2-2.8 7.4-4.8s4.1-4.4 6.5-6.6c.6-.5 1.2-1.1 1.9-1.5a24 24 0 0 1 2.1-1.3l1.2-.5 1.2-.4 2.4-.3c-3 1.3-5.2 3.3-7.1 5.6-1.9 2.3-3.7 5-6.2 7.2-2.4 2.3-5.4 4-8.6 4.8l-2.4.6-2.4.3h-2.4c-.8.1-1.6 0-2.4-.1zm157.9 14.7c0 1.4.1 2.6.3 3.7.2 1.1.6 2.1 1 3.2a16.4 16.4 0 0 0 4.1 5.7c-1.4.2-2.9-.2-4.1-1.1a8.2 8.2 0 0 1-3.3-7.7c.2-1.6.9-3 2-3.8zM182.1 399.9c1.1 1.1 1.4 2.7 1.4 4.2s-.3 2.9-.7 4.2l-1.2 3.7c-.4 1.2-.6 2.3-.6 3.9-1.2-.9-1.7-2.6-1.8-4.1-.1-1.5.3-3 .6-4.3l1.3-3.7c.5-1.2.9-2.4 1-3.9zm14.7-15.2c.7.7 1 1.4 1.3 2.2.2.8.3 1.5.3 2.3 0 .8-.2 1.5-.5 2.2-.3.7-.7 1.4-1.5 2-.5-.8-.7-1.6-.9-2.3-.1-.7-.2-1.4-.1-2.1 0-.7.2-1.4.4-2.1.1-.7.4-1.4 1-2.2z"/>
      </g>
      <path fill="none" d="M649.8 647.3c-7.2-1.9-11 4.1-9.5 9.6m-4.5-17.6c-6.6-1.4-10.6 4.9-8.5 10.6"/>
      <g stroke="none" fill="#000">
        <path d="M662.4 636c.1.4.2.8.1 1.2l-.3 1.2-.8 2.3a15.6 15.6 0 0 1-6.6 7.1 7.8 7.8 0 0 1-5.3.9l.4-2.9c1.1 0 2.3-.3 3.6-.8 1.2-.5 2.4-1.2 3.5-2.1 1.1-.9 2.1-1.9 3-3.1l1.2-1.8.5-1 .7-1zm-12.1-7 .1 1.3-.3 1.2-.5 1.2-.6 1.1a15.8 15.8 0 0 1-8.1 6.3c-1.7.6-3.5.9-5.4.5l.3-2.9c2.7-.1 5.7-.8 8.3-2.2 1.3-.7 2.5-1.6 3.6-2.7l.7-.9.6-.9.5-1 .8-1z"/>
        <path d="M650.1 645.8c1.4.2 2.8.7 4 1.4 1.3.7 2.4 1.6 3.4 2.6s1.8 2.2 2.4 3.5l.8 1.9c.2.6.5 1.3.5 2-.5-.5-.8-1.1-1.2-1.6l-1.2-1.5a16.8 16.8 0 0 0-6.1-4l-3.4-1.2.8-3.1zm-14.1-8c1.1 0 2 .4 2.9.8a17.4 17.4 0 0 1 4.9 3.4l1 1.1c.3.4.6.8.7 1.3l-1.2-.7-1.2-.6c-.8-.4-1.7-.6-2.5-.9l-2.6-.7-2.4-.7.4-3zm-14.5-7.1c1-.2 2.1 0 3.1.4s1.9 1 2.6 1.6l2 1.8 1 .8 1.2.7H630l-1.4-.3-2.6-1-2.2-.6-2.2-.3-.1-3.1zm25.6-214.4c-.5-1.6-1-3.3-1.7-4.9l-2.3-4.7a42.7 42.7 0 0 0-6.5-8.4l.2-.2a46 46 0 0 1 10.7 12.2c.9 1.6 1.7 3.3 2.4 5l-2.8 1zM245 388.5c.4.8.6 1.4.7 2.1.1.6 0 1.3-.2 1.9-.2.6-.4 1.2-.8 1.7s-.8 1-1.6 1.5c-.4-.8-.6-1.4-.7-2.1-.1-.6 0-1.3.2-1.9.2-.6.4-1.2.8-1.7.3-.5.8-1 1.6-1.5zm-18.4-3.4c.9.5 1.4 1.6 1.5 2.6.1 1-.1 2-.4 2.8a15 15 0 0 1-1.1 2.2l-1.4 2.2c-.7-.8-.9-1.9-.8-2.8 0-1 .3-1.8.5-2.6l.8-2.1c.3-.7.7-1.3.9-2.3zm33.3-11.2c.5.8.8 1.6 1 2.2l.6 1.6.3.7.4 1c.1.4.3.8.3 1.3s0 1-.4 1.4c-.7-.7-1.2-.8-1.8-1.3l-.9-.8a3 3 0 0 1-.7-1.2 5 5 0 0 1-.1-2.7c.2-.9.6-1.6 1.3-2.2zm-49.2 15c.4.4.6 1 .7 1.5l-.2 1.6-.7 2.3-.2 2c0 .7.1 1.5.5 2.6a3.6 3.6 0 0 1-2.7-1.8c-.6-1-.8-2.2-.5-3.4.3-1.3 1-2 1.5-2.7.6-.7 1.2-1.1 1.6-2.1zm-11.1 29.6c.6 1 .6 2.2.6 3.2l-.2 2.6v2.5l.1 2.9a4.3 4.3 0 0 1-2.3-2.3c-.5-1-.7-2.1-.7-3.2s.5-2.3.9-3.1l1.6-2.6zm24 4.8c-.5-.3-.9-1-1.1-1.6-.2-.6-.2-1.3-.1-2 .2-1.3.8-2.4 1.3-3.3l1.4-2.5 1.3-3a5 5 0 0 1 1 3.5c0 1.2-.5 2.5-1.1 3.5l-1.7 2.5c-.4.8-.9 1.6-1 2.9z"/>
      </g>
      <path fill="none" d="M293.8 647.3c-7.2-1.9-11 4.1-9.5 9.6m-4.5-17.6c-6.6-1.4-10.6 4.9-8.5 10.6"/>
      <g stroke="none" fill="#000">
        <path d="M306.4 636c.1.4.2.8.1 1.2l-.3 1.2-.8 2.3a15.6 15.6 0 0 1-6.6 7.1 7.8 7.8 0 0 1-5.3.9l.4-2.9c1.1 0 2.3-.3 3.6-.8 1.2-.5 2.4-1.2 3.5-2.1 1.1-.9 2.1-1.9 3-3.1l1.2-1.8.5-1 .7-1zm-12-7 .1 1.3-.3 1.2-.5 1.2-.6 1.1a15.8 15.8 0 0 1-8.1 6.3c-1.7.6-3.5.9-5.4.5l.3-2.9c2.7-.1 5.7-.8 8.3-2.2 1.3-.7 2.5-1.6 3.6-2.7l.7-.9.6-.9.5-1c.2-.3.4-.7.8-1z"/>
        <path d="M294.2 645.8c1.4.2 2.8.7 4 1.4 1.3.7 2.4 1.6 3.4 2.6s1.8 2.2 2.4 3.5l.8 1.9c.2.6.5 1.3.5 2-.5-.5-.8-1.1-1.2-1.6l-1.2-1.5a16.8 16.8 0 0 0-6.1-4l-3.4-1.2.8-3.1zm-14.2-8c1.1 0 2 .4 2.9.8a17.4 17.4 0 0 1 4.9 3.4l1 1.1c.3.4.6.8.7 1.3l-1.2-.7-1.2-.6c-.8-.4-1.7-.6-2.5-.9l-2.6-.7-2.4-.7.4-3zm-14.5-7.1c1-.2 2.1 0 3.1.4s1.9 1 2.6 1.6l2 1.8 1 .8 1.2.7H274l-1.4-.3-2.6-1-2.2-.6-2.2-.3-.1-3.1z"/>
      </g>
      <path stroke-linejoin="round" d="M190.8 355.7c1.1 4.5 4.1 8.5 7 10.5a37.5 37.5 0 0 0 23.3 6.1 37 37 0 0 0 23.3-6.1c2.9-2.1 5.9-6 7-10.5"/>
      <path d="M292.3 263.8c2.4 3.3 3.3 7.5 3.3 11.6 0 5.2-1.8 9.9-.9 15 .7 4.3.1 6 1.9 10 .3.8.8 1.5 1 2.3 1 3.9-2.7 7-3.3 10.6-.3 1.6 1.4 2.9 1.3 4.6-.1 1.6-1.4 2.3-2.1 3.6-1.2 2.2.3 5-1 6.8-.3.4-.7.7-1.1.9l-5.3 3.4s-8 11.3-14.6 12.6a40.7 40.7 0 0 1-9.4 10.8 21.4 21.4 0 0 1-9.4 3.7 51 51 0 0 1-31.5-5.6s-6.7 3-10.9 4.2a51.2 51.2 0 0 1-20.6 1.4c-3.3-.4-6.7-1.8-9.4-3.7a40.7 40.7 0 0 1-9.4-10.8c-6.6-1.3-14.6-12.6-14.6-12.6l-5.3-3.4c-.4-.3-.8-.5-1.1-.9-1.3-1.8.2-4.7-1-6.8-.7-1.3-2-2-2.1-3.6-.1-1.7 1.6-2.9 1.3-4.6-.6-3.5-4.3-6.7-3.3-10.6.2-.8.7-1.5 1-2.3 1.8-4 1.2-5.6 1.9-10 .9-5.1-.9-9.8-.9-15 0-4.1.9-8.3 3.3-11.6l-4.9-29.7 31.3 1.8c3.7-5.7 14.8-9.5 22.3-9.7 1.1-1 5-2.8 8-3.6 5.1-1.3 7.8-1.7 14.5-1.7s9.3.4 14.5 1.7c3 .7 6.9 2.5 8 3.6 7.4.2 17.7 2.7 22.4 9.7l25.7-4.3.4 32.2z"/>
      <path d="M266 235.9c7.9-8.2 24.1-10.5 27.6-28.4.6-3.5 2.1-2.3 3 0 7.9 19.4 7.9 41.6-4.7 56.1m-115.5-27.7c-7.9-8.2-24.1-10.5-27.6-28.4-.6-3.5-2.1-2.3-3 0-7.9 19.4-7.9 41.6 4.7 56.1"/>
      <g stroke="none" fill="#000">
        <path d="m232.1 297.9 1 6.5c.3 2.1.2 4.3.4 6.5s.5 4.3.9 6.5c.3 2.2.8 4.3 1.3 6.5l-.2.1a65.6 65.6 0 0 1-3.9-12.7c-.4-2.2-1-4.4-.9-6.7.1-2.3.3-4.5 1.3-6.7h.1zm6.6 40.9a95.7 95.7 0 0 1 22.6-14.3 29 29 0 0 1 8.8-2.1l-7.8 4.2-7.6 4.4a96.6 96.6 0 0 1-16 7.8zm2.9 6.7c2.1-1.6 4.3-2.9 6.5-4.2a73.7 73.7 0 0 1 14.3-5.9c2.5-.6 5.2-.9 7.8-.6l-7.1 2.9-6.9 3-7.1 2.8c-2.4.8-4.9 1.5-7.5 2zm36.8-89.8c-.7-1.9-.7-4.1-.2-6.1.5-2 1.4-3.9 2.4-5.7 2-3.5 4.4-6.7 6.6-9.9 2.2-3.2 4.2-6.5 5.8-10 1.6-3.5 2.5-7.3 2.9-11.2.8 3.9.6 8.1-.7 12a41.4 41.4 0 0 1-5.5 10.9l-3.5 4.8a81.8 81.8 0 0 0-3.5 4.7c-2.4 3.1-4.5 6.4-4.3 10.5zm-114.6 0c.2-4.1-1.9-7.4-4.1-10.5l-3.5-4.7-3.5-4.8a38.5 38.5 0 0 1-5.5-10.9 24.5 24.5 0 0 1-.7-12c.4 4 1.3 7.7 2.9 11.2a59 59 0 0 0 5.8 10c2.2 3.2 4.6 6.4 6.6 9.9 1 1.8 1.9 3.7 2.4 5.7.3 2 .3 4.2-.4 6.1zm115.8 26.2c.5-.6.8-1 1.2-1.2.3-.3.7-.5 1-.6l1.1-.2c.4 0 .9 0 1.7.2.1.8-.2 1.4-.5 1.8-.3.5-.8.8-1.3 1a3 3 0 0 1-1.6.1 3 3 0 0 1-1.6-1.1zm-1.4 8.6 1.7-.6 1.2-.1 1.2.3c.4.2.9.4 1.5.9-.3.7-.8 1.2-1.3 1.4-.5.3-1.1.4-1.7.3-.6-.1-1.1-.3-1.6-.6a2 2 0 0 1-1-1.6zm-2.8 7.2c.7-.3 1.2-.4 1.7-.4s.9 0 1.2.2c.4.1.7.4 1 .7l1 1.4a3 3 0 0 1-1.6.8c-.5.1-1 0-1.5-.2s-.9-.5-1.2-.9c-.3-.3-.5-.8-.6-1.6zm-4.4 6 1.4.4.7.3c.2.1.3.4.4.7l.5 1.4c-.5.6-1 .7-1.5.7a2 2 0 0 1-1.4-.6 2 2 0 0 1-.7-1.3c0-.5.1-1.1.6-1.6zm-16-64.6c.5 1.2.7 2.3.9 3.3l.8 2.8 1.2 2.4c.5.8 1.1 1.5 2.2 2.3-1.2.5-2.7.2-3.8-.5-1.1-.7-2-1.8-2.4-3.1a8.2 8.2 0 0 1 1.1-7.2zm-67.7 0a7 7 0 0 1 1.4 3.3c.2 1.2.1 2.5-.3 3.8a6.2 6.2 0 0 1-2.4 3.1c-1.1.7-2.6 1.1-3.8.5 1-.7 1.7-1.5 2.2-2.3l1.2-2.4.8-2.8.9-3.2zm49 7.8c.9-.2 1.7-.1 2.5.2.7.2 1.4.6 2 1.1a8 8 0 0 1 1.5 1.7c.4.7.7 1.4.7 2.4-.9-.1-1.6-.4-2.3-.7a10 10 0 0 1-1.7-1.1c-.5-.4-1-.9-1.4-1.5a5 5 0 0 1-1.3-2.1zm-15.5-12.1c.6.8.9 1.5 1.2 2.3a9 9 0 0 1 0 4.6c-.2.8-.6 1.5-1.2 2.3-.6-.8-.9-1.5-1.2-2.3a9 9 0 0 1 0-4.6c.3-.8.6-1.5 1.2-2.3zm9.8-4.9 2.3.4 1.8.7 1.6 1 1.8 1.5c-.8.6-1.6.8-2.4.8a6 6 0 0 1-2.3-.5c-.7-.3-1.4-.8-1.9-1.5s-.9-1.5-.9-2.4zm9.9 40.4a18 18 0 0 1 4.8-2.4 22.8 22.8 0 0 1 10.5-.8c1.7.3 3.5.8 5.1 1.6a84.2 84.2 0 0 1-10.2 1.1l-5 .3c-1.7.2-3.4.3-5.2.2zm52.2-25.5c.6 1 .8 2 .8 3.1 0 1-.1 2.1-.5 3-.3 1-.8 1.9-1.5 2.7-.7.8-1.5 1.5-2.6 1.9l.5-3 .8-2.6 1-2.5 1.5-2.6zm-82.3 53.1a19 19 0 0 1 1.3 6.7c.1 2.3-.5 4.5-.9 6.7l-1.6 6.5c-.7 2.1-1.4 4.2-2.3 6.2l-.2-.1a68 68 0 0 0 2.2-13c.2-2.2.1-4.4.4-6.5.3-2.2.5-4.3 1-6.5h.1zm-2.7 26c1-.6 2.1-1 3.2-1.4l3.4-.8a40 40 0 0 1 6.8-.6v3-3a38.2 38.2 0 0 1 10.2 1.4c1.1.4 2.2.8 3.2 1.4l-3.4.1H221.2v-3 3H211.3l-3.6-.1zm2 6.7c1.3.4 2.4 1 3.6 1.5l2.6 2.4c1.8 1.5 3.7 2.7 5.7 3.5h-1.1c2.1-.8 4-2.1 5.7-3.5l2.6-2.4c1.2-.5 2.3-1.1 3.6-1.5-.4 1.3-.9 2.5-1.5 3.7a33.3 33.3 0 0 1-9.4 6.5l-.5.2-.5-.2c-2.5-1-4.6-2.4-6.6-4l-2.8-2.5-1.4-3.7zm-6.2 8.2c-2.8-1-5.5-2.2-8.2-3.6-2.7-1.3-5.2-2.8-7.8-4.2l-7.6-4.4-7.8-4.2c3 .2 6 1 8.8 2.1a60.3 60.3 0 0 1 15.6 8.7c2.4 1.8 4.8 3.6 7 5.6zm-2.9 6.7a63.7 63.7 0 0 1-14.6-4.8l-6.9-3-7.1-2.9c2.6-.3 5.2.1 7.8.6a49.6 49.6 0 0 1 14.3 5.9c2.2 1.3 4.4 2.6 6.5 4.2zm92.5-80.9-2.4 1.8-2.2 1.7a13.3 13.3 0 0 0-3.5 4.3 15 15 0 0 1 2.4-5.3l1.8-2.4c.6-.7 1.3-1.5 1.7-2.2l2.2 2.1zm-141.6-2 1.7 2.2 1.8 2.4a15 15 0 0 1 2.4 5.3c-.9-1.7-2.1-3.1-3.5-4.3l-2.2-1.7-2.4-1.8 2.2-2.1zM267 237a3 3 0 0 0-.7.5l-.7.7c-.5.5-.9 1.1-1.2 1.7-.4.6-.7 1.3-.9 2a8 8 0 0 0-.6 2.2l-.1-2.3.3-2.4.7-2.3.6-1.1.8-1.2 1.8 2.2zm-3.6 39.5c1.2-.2 2.4-.4 3.6-.9 1.2-.4 2.2-1.1 3.3-1.8l.2.2a11 11 0 0 1-2.6 3.1c-1.1.9-2.3 1.6-3.6 2.2l-.9-2.8zm-30.7 18.6a27.6 27.6 0 0 1 4-9.1l2.2 2c-1.1 1-2.2 2.1-3.2 3.3-1 1.2-1.8 2.5-2.7 3.9l-.3-.1z"/>
      </g>
      <path fill="#F6F6F6" stroke-linejoin="round" d="M263.8 277.9c.6 4 .2 8.9-2.4 13.9-2.9 5.5-9.3 9.5-15.5 7.6-6.4-1.9-8.7-6.2-8.1-12.3 2.4-2.6 5.1-4.6 7.8-5.8 4-1.7 8.5-1.8 12.9-2.3 1.8-.2 3.6-.6 5.3-1.1z"/>
      <g stroke="none" fill="#000">
        <path d="M162.6 281.9a3 3 0 0 1-1.5 1.1c-.6.1-1.1.1-1.6-.1s-1-.5-1.3-1c-.3-.5-.6-1-.5-1.8.8-.2 1.3-.2 1.7-.2l1.1.2c.3.1.7.3 1 .6l1.1 1.2zm1.4 8.6c-.2.8-.6 1.3-1 1.6-.5.4-1 .6-1.6.6-.6.1-1.1 0-1.7-.3a3 3 0 0 1-1.3-1.4c.6-.5 1.1-.7 1.5-.9l1.2-.3 1.2.1c.5.1 1 .2 1.7.6zm2.8 7.2c0 .8-.3 1.3-.6 1.7-.3.4-.7.7-1.2.9-.5.2-1 .2-1.5.2a3 3 0 0 1-1.6-.8c.3-.7.6-1.1 1-1.4l1-.7 1.2-.2c.5-.1 1 0 1.7.3zm4.4 6c.5.5.6 1.1.6 1.6a2 2 0 0 1-.7 1.3c-.4.3-.9.5-1.4.6a2 2 0 0 1-1.5-.7l.5-1.4.4-.7.7-.3 1.4-.4zm34.7-56.8c-.3.9-.7 1.5-1.1 2.1-.4.6-.9 1.1-1.4 1.5l-1.7 1.1c-.7.3-1.4.6-2.3.7 0-.9.3-1.7.7-2.4a5 5 0 0 1 1.5-1.7c.6-.5 1.2-.8 2-1.1.6-.3 1.4-.4 2.3-.2zm5.7-17c0 .9-.4 1.7-.9 2.3-.5.6-1.1 1.1-1.9 1.5a6 6 0 0 1-2.3.5c-.8 0-1.6-.2-2.4-.8a11 11 0 0 1 1.8-1.5l1.6-1 1.8-.7c.7-.1 1.4-.3 2.3-.3zm-9.8 40.4c-1.8.1-3.5 0-5.2-.1l-5-.3-5-.4a107 107 0 0 1-5.2-.7c1.6-.9 3.3-1.3 5.1-1.6a23.3 23.3 0 0 1 10.5.8c1.7.4 3.3 1.2 4.8 2.3zm-52.3-25.5c.7.9 1.1 1.8 1.5 2.6l1 2.5.8 2.6.5 3a6.3 6.3 0 0 1-2.6-1.9 7.2 7.2 0 0 1-1.5-2.7c-.3-1-.5-2-.5-3 0-1.1.2-2.1.8-3.1z"/>
      </g>
      <line fill="none" x1="221.1" y1="340.4" x2="221.1" y2="354"/>
      <g stroke="none" fill="#000">
        <path d="M310.1 409.8a9.7 9.7 0 0 1 9 6.3c.4 1.2.6 2.6.2 3.9-.8-1.1-1.5-1.9-2.3-2.7l-2.2-2.4-2.3-2.4-2.4-2.7zm-22.4-60.6c.2.9.6 1.4.9 1.9l.9 1.2 1.1 1.4c.4.6.8 1.2 1.1 2.1-.9.2-1.7.1-2.5-.2-.8-.3-1.5-.8-2-1.5-.6-.7-.9-1.7-.9-2.6 0-.9.5-1.9 1.4-2.3zM273 360.9a6 6 0 0 1 1.2 1.7 5 5 0 0 1 0 3.4c-.2.6-.6 1.1-1.2 1.7a6 6 0 0 1-1.2-1.7 5 5 0 0 1 0-3.4c.3-.6.6-1.2 1.2-1.7zm-92.3 9.5.6 3.7.6 3.4.7 3.3.7 3.7a7.1 7.1 0 0 1-2.9-2.8 9.8 9.8 0 0 1-1.4-3.7c-.2-1.3-.2-2.7 0-4 .2-1.3.7-2.6 1.7-3.6zm66.4-88.7c-2.1 2.7-1.6 7.6-.2 10.4.3.7.9 1.5 1.8 1.5.6 0 1.1-.4 1.5-.8 3.5-3.6 4.3-8.3 4.1-12.9m-76.4-.6c-1.3-.6-2.5-1.3-3.6-2.2-1.1-.9-2-1.9-2.6-3.1l.2-.2c1.1.8 2.1 1.4 3.3 1.8 1.2.4 2.3.7 3.6.9l-.9 2.8zm31.3 15.9c-.9-1.4-1.7-2.7-2.7-3.9-1-1.2-2.1-2.3-3.2-3.3l2.2-2a27.6 27.6 0 0 1 4 9.1l-.3.1z"/>
      </g>
      <path fill="#F6F6F6" stroke-linejoin="round" d="M178.4 277.9c-.6 4-.2 8.9 2.4 13.9 2.9 5.5 9.3 9.5 15.5 7.6 6.4-1.9 8.7-6.2 8.1-12.3a24.4 24.4 0 0 0-7.8-5.8c-4-1.7-8.5-1.8-12.9-2.3-1.8-.2-3.6-.6-5.3-1.1z"/>
      <g stroke="none" fill="#000">
        <path d="M195.2 281.7c2.1 2.7 1.6 7.6.2 10.4-.3.7-.9 1.5-1.8 1.5-.6 0-1.1-.4-1.5-.8-3.5-3.6-4.3-8.3-4.1-12.9m45.3-14.4c.6.6.8 1.2.9 1.8v1.8c-.1.6-.4 1.1-.8 1.6a3 3 0 0 1-1.7 1.1c-.4-.7-.5-1.3-.5-1.9l.1-1.5c.1-.5.3-1 .6-1.4.3-.5.7-1 1.4-1.5zm-2.8 9.6c.5.7.7 1.4.8 2.1a5 5 0 0 1-.1 2.1 5 5 0 0 1-.8 2c-.4.6-.9 1.2-1.6 1.6a9 9 0 0 1 .5-5.9c.3-.6.6-1.3 1.2-1.9zm-21.5-9.6c.6.5.9 1 1.2 1.4a5.3 5.3 0 0 1 .4 4.7c-.7-.3-1.1-.7-1.5-1.2-.4-.5-.6-1-.7-1.6-.1-.6-.2-1.1-.1-1.7 0-.4.2-1 .7-1.6zm2.7 9.6c.5.7.9 1.3 1.1 1.9l.6 1.8.2 1.9c0 .7 0 1.4-.3 2.2-.7-.4-1.2-1-1.6-1.6-.4-.6-.6-1.3-.8-2-.1-.7-.2-1.4-.1-2.1.2-.7.4-1.4.9-2.1zm-34.4-40.3c.4.4.6.8.8 1.2l.6 1.1c.3.8.6 1.6.7 2.3l.3 2.4-.1 2.3-.6-2.2-.9-2a25 25 0 0 0-1.2-1.7l-.7-.7a3 3 0 0 0-.7-.5l1.8-2.2z"/>
      </g>
    </g>
  </g>
</svg>
