<svg xmlns="http://www.w3.org/2000/svg" fill="#d7374a" stroke="#000" viewBox="50 50 200 200">
  <metadata source="http://wappenwiki.org/images/0/05/Hussite.svg" license="https://creativecommons.org/licenses/by-nc-sa/3.0"/>
  <g id="chalice" stroke-width="3" transform="matrix(.12 0 0 .12 51 47)">
    <path d="M446 522c-9-32-7-46-7-106h-62c1 59 3 74-6 106-25 48-132 67-132 141 0 79 76 127 169 127s170-48 170-127c0-61-112-92-132-141z"/>
    <path d="M162 165c16 172 208 173 208 255v38h77v-38c0-82 187-83 208-256z"/>
    <path d="M669 156c0 19-117 33-259 33s-258-16-258-34c0-4-2-18 7-21 35-13 142-22 254-22 109 0 210 9 248 22 10 3 8 18 8 22zM382 451c0 22-4 35-17 35s-27-12-27-35c0-20 13-35 27-35s17 13 17 35zm54 0c0 22 4 35 18 35s27-12 27-35c0-20-13-35-27-35-13 0-18 13-18 35z"/>
    <ellipse cx="409" cy="457" rx="27" ry="37"/>
    <path fill="none" stroke-width="3.5" d="M427 401c11-22 22-43 65-65m-101 65c-11-22-22-43-65-65m194 280c-38-34-70-67-74-97m-152 97c37-24 69-50 78-95M251 670c32 129 280 129 315 1m9-533c-108-11-216-11-323 0m-64 11c140 26 280 26 445-1"/>
  </g>
</svg>
