<svg xmlns="http://www.w3.org/2000/svg" fill="#d7374a" stroke="#000" viewBox="50 50 200 200">
  <metadata source="http://wappenwiki.org/images/c/cb/M%C3%BCllenheim_Zurich.svg" license="https://creativecommons.org/licenses/by-nc-sa/3.0"/>
  <g id="cinquefoil" stroke-width="4" transform="translate(35.3 54.8) scale(0.124)">
    <g>
      <path d="M842.02 281c-4.29-13.2-52.66-38.45-78.34-74.75-23.9-33.77-42.66-36.9-57.55-32.07-52.87 17.18-59.58 115.4-109.52 131.64-2.6.84-6.6-.21-6.6-.21s-4.1-1.12-8.18-3.75c-3.61-3.02-5.83-6.4-5.83-6.4s-2.22-3.54-2.22-6.25c0-52.52 91.35-89.25 91.35-144.84 0-15.66-8.77-32.54-48.28-44.83-42.46-13.2-81.43-51.4-95.3-51.4s-56.35 39.12-95.86 51.4-48.28 29.17-48.28 44.83c0 55.59 91.35 92.32 91.35 144.84 0 2.39-3.11 8.37-5.1 10.42a39.12 39.12 0 0 1-10.17 6.42c-2.19.53-4.54.56-7-.24-49.94-16.22-56.65-114.45-109.52-131.63-14.88-4.84-33.65-1.7-57.55 32.07-25.68 36.3-74.05 61.56-78.34 74.75-4.28 13.19 19.8 65.68 19.27 107.05-.52 41.37 12.82 54.93 27.71 59.77 52.87 17.18 116.03-58.35 165.98-42.12 2.26.73 7.01 5.56 8.37 8.15 2.53 5.81 2.21 12.35 2.21 12.35s-.18 3.71-1.69 5.79c-30.86 42.48-126.36 18.5-159.03 63.48-9.2 12.67-12.02 31.48 12.71 64.64 26.59 35.64 35.66 89.46 46.88 97.6 11.22 8.16 68.59 1.48 107.77 14.76 39.18 13.28 56.2 4.78 65.4-7.88 32.68-44.97-19.63-128.38 11.24-170.87 1.3-1.79 4.53-3.73 4.53-3.73s4.14-1.57 9.12-1.79c4.98.22 9.12 1.79 9.12 1.79s3.23 1.94 4.53 3.73c30.86 42.49-21.45 125.9 11.23 170.87 9.2 12.66 26.22 21.16 65.4 7.88 39.19-13.28 96.55-6.6 107.77-14.75 11.22-8.15 20.3-61.97 46.89-97.6 24.73-33.17 21.91-51.98 12.71-64.65-32.67-44.97-128.17-21-159.04-63.48-1.5-2.08-2.2-4.3-2.38-6.53 0 0 .38-5.8 2.9-11.61a32.31 32.31 0 0 1 2.94-4.63 12.52 12.52 0 0 1 5.44-3.52c49.94-16.23 113.1 59.3 165.98 42.12 14.88-4.84 28.23-18.4 27.7-59.77-.51-41.37 23.56-93.86 19.28-107.05zm-296.04 28.93a79.06 79.06 0 1 1-48.86 150.37 79.06 79.06 0 0 1 48.86-150.37z"/>
      <g fill="#000">
        <path d="m576.28 458.87 69.66 97.33-72.07-95.55z"/>
        <path d="m607.26 355.8 116.46-37.27-115.51 40.12z"/>
        <path d="M468.64 460.64 396.6 556.2l69.62-97.33z"/>
        <path d="m434.62 359.58-115.79-41.05 116.76 38.21z"/>
        <path d="m520.07 295.33.76-124.22 2.24 124.2z"/>
      </g>
    </g>
  </g>
</svg>
