<svg xmlns="http://www.w3.org/2000/svg" fill="#d7374a" stroke="#000" viewBox="50 50 200 200">
  <metadata source="http://wappenwiki.org/images/4/48/Giuliano_I_Cesarini.svg" license="https://creativecommons.org/licenses/by-nc-sa/3.0"/>
  <g id="column" stroke-width="3" transform="translate(58 54.3) scale(0.102)">
    <g stroke-linejoin="round">
      <polygon points="337.8,729.2 484.5,729.2 528,776.2 294.3,776.2"/>
      <rect x="294.3" y="776.2" width="233.7" height="15.1"/>
      <rect x="310.4" y="822.7" width="201.5" height="18.3"/>
      <polygon points="528,791.3 294.3,791.3 310.4,804.7 511.9,804.7"/>
      <path d="M512.9,822.7H309.3c-5,0-9-4-9-9v0c0-5,4-9,9-9h203.6c5,0,9,4,9,9v0C521.9,818.7,517.9,822.7,512.9,822.7z"/>
    </g>
    <path d="M352.9,84.1c0,4.3,1.1,14.2,6.5,14.2H462c5.9,0,7.4-9.1,7.4-14.2l2-17H350.1L352.9,84.1z"/>
    <path stroke-linejoin="round" d="M359.4,98.3H462c0,0,7.8,354.3,11.1,474.4c3,111.2-1,159.7-1,159.7s-2.7,16.1-61,16.1s-61.9-16.1-61.9-16.1s-2.7-66.2-1-160.5C350.1,470.9,359.4,98.3,359.4,98.3z"/>
    <path stroke-linejoin="round" d="M344.2,730.2c0.8-4.8,4.6-8.3,5.9-6.6c0.6,1.1,11.6,12,61.1,12s60.4-11,60.9-12c1.3-1.8,5.1,1.7,5.9,6.6c0.5,2.7,0.3,8.9-5.7,12c-11.7,6.1-33.8,9.6-61.1,9.6c-27.4,0-49.6-3.5-61.3-9.6C343.9,739,343.7,732.9,344.2,730.2z"/>
    <path d="M469.4,84.2c6.4,0,11.9-10.9,11.9-17.3c0-6.6-140.3-6.6-140.3,0c0,6.4,5.5,17.3,11.9,17.3H469.4z"/>
    <rect x="326.5" y="55.4" width="170" height="15.3"/>
  </g>
</svg>
