<svg xmlns="http://www.w3.org/2000/svg" fill="#d7374a" stroke="#000" viewBox="50 50 200 200">
  <metadata source="http://wappenwiki.org/images/7/76/Beauville.svg" license="https://creativecommons.org/licenses/by-nc-sa/3.0"/>
  <g id="cowStatant" stroke-width="2.6481" transform="translate(45.7 67) scale(0.138)">
    <path class="secondary" d="M251 396s1.5 6.5-.2 9.6c-3.9 6.7-19.5 8.6-27.6 8.9-2.5.1 1.8-9 5-14.8 0 0-2.4 2.4-3.8 4.6a38.5 38.5 0 0 1-2.4 3.6s-5.1.9-9.1.9c1.2-3.9 5.3-7.8 9-13.7 2.9-4.6 9.8-1.9 15.2-1.4 5.6.5 13.9 2.3 13.9 2.3z"/>
    <path d="M268.5 240.3a106.2 106.2 0 0 0-13.2 54c.5 18.9.9 35.5-5.9 53.7-2.1 5.3-4.4 16.7-8 25.3a51.2 51.2 0 0 1-7.9 12.5c-2.2 2.6-4.7 3.3-7.1 4.6-2 1.1-4 2.8-5.7 5.7 5.4 1.5 24.9 2.8 30.3 2 4.7-2.2 1.5-12.2 3.7-12.3 2.5-.1 2.7 6.2 7.5 6.1 0-2.9 1.2-6.8 1.2-9.4 1.4-8-1.6-7.3 5.8-27.7 11.2-30.2 18.6-37.6 22.5-45.2 2.3-4.6 1.1-11.1.6-16-.7-7.6-.1-10.9 3.1-17.8a110 110 0 0 0 12.4-45.5"/>
    <path class="secondary" d="M627.3 409.9s1.5 6.5-.2 9.6c-3.9 6.7-19.5 8.6-27.6 8.9-2.5.1 1.8-9 5-14.8 0 0-2.4 2.4-3.8 4.6a38.5 38.5 0 0 1-2.4 3.6s-5.1.9-9.1.9c1.2-3.9 5.3-7.8 9-13.7 2.9-4.6 9.8-1.9 15.2-1.4 5.5.4 13.9 2.3 13.9 2.3zm-98.6-13.5s1.5 6.5-.2 9.6c-3.9 6.7-19.5 8.6-27.6 8.9-2.5.1 1.8-9 5-14.8 0 0-2.4 2.4-3.8 4.6a38.5 38.5 0 0 1-2.4 3.6s-5.1.9-9.1.9c1.2-3.9 5.3-7.8 9-13.7 2.9-4.6 9.8-1.9 15.2-1.4 5.5.5 13.9 2.3 13.9 2.3zm-210.5 13.5s1.5 6.5-.2 9.6c-3.9 6.7-19.5 8.6-27.6 8.9-2.5.1 1.8-9 5-14.8 0 0-2.4 2.4-3.8 4.6a38.5 38.5 0 0 1-2.4 3.6s-5.1.9-9.1.9c1.2-3.9 5.3-7.8 9-13.7 2.9-4.6 9.8-1.9 15.2-1.4 5.6.4 13.9 2.3 13.9 2.3z"/>
    <path d="M507.7 245c1.3 4.2 3.1 9.3 5.7 14.5 6.1 12.5 17.3 17.2 19.3 33.4 3.4 17.1 1.3 37.5-5.6 55.9-2.2 5.3-4.4 16.9-8.1 25.6-2.4 5.7-6.1 9.5-7.9 11.8-2.2 2.6-4.7 3.3-7.1 4.6-2 1.1-4 2.8-5.7 5.7 5.4 1.5 24.9 2.8 30.3 2 4.7-2.2 1.5-12.2 3.7-12.3 2.5-.1 2.7 6.2 7.5 6.1 0-2.9 1.2-6.8 1.2-9.4-.2-7.9-3.4-6.5 4-27.1 11.3-30.4 18.8-37.9 22.7-45.6 2.5-4.8.4-15.8-.1-22.6 3.2-8.7-.4-30.8 4.2-43.2"/>
    <path class="tertiary" d="M596.1 290c-3.9 10-20.5 22.1-23.4 23.9-2.9 1.8-1.3 16.9-4.3 16.9-3.6 0-4.9-13-8.3-13-1.8 0-5.2.7-9.1.8-3.4 0-7.2-.7-9.5-.7-4.8 0-4.5 14.4-7.9 14.4-4.8 0-2.1-16.3-8-17.4-17.9-2.9-42.5-39-42.5-39a80.1 80.1 0 0 1 48.9-31.1c7.5-1.1 15.6-1 22 3.1 11.3 7.3 12.6 24 22.9 32.7 5.4 4.6 12.5 6.3 19.4 8"/>
    <g stroke="none" fill="#000">
      <path d="m546.5 335-3.6 10.2-3.7 10.1-3.7 10.1-1.7 5.1a30 30 0 0 0-1.1 5.2 17 17 0 0 1 .1-5.5 94.9 94.9 0 0 1 4.4-15.6 124.4 124.4 0 0 1 9.3-19.6zm-12.9-27.9c-2 .5-4.1.5-6.1.2s-4-1-5.9-1.9a15 15 0 0 1-4.9-3.8 7.4 7.4 0 0 1-1.6-2.7c-.4-1-.5-2.1-.3-3.1.7 1.9 2 3.2 3.4 4.4a48.3 48.3 0 0 0 9.9 5.2l5.5 1.7z"/>
    </g>
    <path class="secondary" d="M224.6 122.2c-2.1-1 26.3 6.3 37.1-17.4 10.4-20.5-4.5-31.3 3.8-49.7 2-4.5 6.8-5.7 4.6-6.7-.9-.4-11.2-2.1-16.7 8.1-5.9 11.6.5 21.4-7.4 33.4-6.1 9.4-18.3 4.6-17.2 5.2 0 0-10.1-1.4-12.8 10.9-2.7 12.4 8.6 16.2 8.6 16.2zm-44.5-5.2c1.1-12.6-9-14.2-9-14.2 1.2-.2-11.9.7-14.9-10.1-4.8-17 6.6-16.2 3.3-33.6a14.5 14.5 0 0 0-12.9-12.6c-2.3.3 1.4 3.2 2.1 8 2.5 19.9-15.8 21.5-11.7 47.7 3.2 25.8 32.6 27.3 30.2 27.6-.1.1 11.9-.2 12.9-12.8z"/>
    <path d="M157.3 108.5c-9.3-5.1-18-2.5-25.7-6.8-4.6-2.6-5.3-6.6-6.4-8.7-.7-.7-2.9-.6-3.3-.2-1.5 3.2-2.2 13.9 3.6 23-.3 2.2 3 8 5 9.2.4 1 1.4 3.9 7.6 7.3"/>
    <g stroke="none" fill="#000">
      <path d="M138.6 131.2c3 1.9 6.5 3.3 10 4.2 1.8.5 3.6.8 5.4 1.1l2.8.2h1.4l.7-.1c.2-.1.5-.1.6-.3-.1.2-.4.3-.6.4l-.7.2-1.4.2-2.8.1c-1.9 0-3.8-.2-5.7-.4a37 37 0 0 1-11.1-3.2zm30-10.8c-1.8-2.1-3.6-4.2-5.6-6.1-1-.9-2-1.9-3.1-2.7-1.1-.8-2.2-1.6-3.3-2.1l1.3-2.3a23.6 23.6 0 0 1 6 6.2c1.8 2.3 3.3 4.7 4.7 7zm-24.3-3.8c-.6.8-1.5 1.1-2.4 1.4-.9.2-1.8.3-2.6.2a7 7 0 0 1-2.5-.5c-.8-.3-1.6-.7-2.3-1.3.9-.3 1.8-.3 2.6-.4h2.4l2.4.2a6 6 0 0 0 2.4.4zm2.6 1.1c0 .7-.4 1.2-.8 1.7-.4.4-.9.7-1.5.9-.5.2-1.1.2-1.7.2-.6-.1-1.1-.3-1.7-.7.5-.5.9-.7 1.4-1a7 7 0 0 1 1.3-.5l1.3-.3 1.7-.3zm11.5 5.1a22.9 22.9 0 0 0-8.3-7.6l-1.1-.4-2.4-.6-5-1.1a41.3 41.3 0 0 1-7.4-2.7L132 109c-1.5-1-2.8-2.1-4.1-3.3-1.2-1.3-2.4-2.6-3-4.3 1 1.4 2.3 2.5 3.7 3.5 1.4 1 2.8 1.9 4.3 2.7l2.2 1.2a86.8 86.8 0 0 0 12.1 3.5l2.6.8 1.3.6 1.1.8c2.9 2.1 5.1 5.1 6.2 8.3z"/>
    </g>
    <path fill="#f6f6f6" d="M139.4 134.6c-.7-2.3-.6-4.8.2-7.1l.4-.9c.6-1 1.9-1.5 2.7-2.4 1.4-.4 2.9 1.2 3.8 2.4a17 17 0 0 1 2.8 14.7c-1.6 4.9-6.7 8.8-11.9 7.9"/>
    <path d="M225.6 232.8a43.8 43.8 0 0 0-13.5-16.6L194 206c-10.2 2.6-20.4-2.4-26.2-.1-2.1.9-5.8 2.8-8.8 5.8-.9.9-2.1 2.8-2.8 3.9a19.3 19.3 0 0 1-11.1 8.2c-4.4.9-8.9-.6-13.3-1.3a13 13 0 0 1-7.4-3.7l-5.4-4.9c-2.6 0-5.1-.3-6.6-2.3-1-1.3-1.2-3-1.6-4.5-1.5-6.7-7.6-11-7.6-18.2 0-1.5.2-2.9.8-4.3 1.6-3.9 5.7-6 9.4-7.9 4-2.1 6.6-3.9 8.5-8.1l6.6-14.3c1.6-3.4 3.1-6.8 5.5-9.7 2-2.4 4.3-4.2 4.4-7.6l.1-1.5c.2-.5.6-.9 1.1-.8.7.1.9.4 1.7 0 .7-.3 1.3-.9 1.6-1.6 1.2-2.6-.2-6-.2-8.8 0-2.7.8-5.4 3.5-6.6.9-.4 1.9-.6 2.6-1.3.5-.6.7-1.4.9-2.2a15 15 0 0 1 4.5-7.3c.8-.7 1.7-1.4 2.2-2.4.4-.8.4-1.7.5-2.6.2-4 .7-7.7.1-11.7-.1-.5 4.2.9 4.6 1.1 1.2.7 2.1 2.5 3.3 3 3.1 1.1 4.4-3.1 5.7-5 .7-1.1 1.8-2.3 3-1.7.9.4 1 1.8 1.8 2.5 1.4 1.4 3.7 0 4.9-1.5 1.2-1.5 2.8-3.4 4.6-2.9.9.2 1.5 1 2.4 1 1.5.1 2.5-1.5 3.8-2.1 2.1-.8 4.3 1 6.5 1 1.9 0 3.7-1.4 5.6-1.1 1.6.2 2.8 1.5 4.4 1.9 1.7.4 3.5-.4 5 .5 1.6.9 1.8 3.2 3.2 4.4 2.5 2.1 6.4-.6 9.6.5 2.4.8 3.8 2.5 6.2 2.9.7 2.1.3 6.2-.7 8.2-.6 1.2-1.4 2.4-1.1 3.6-1.2-.3-2-1.2-2.4-2.3-3.1 3.7-2.3 11.4.7 15.1 3.5 4.2 9.9 3.1 13.4 2.3 15.3-3.3 19.6-15.2 19.6-15.2 38.6 5.7 44.7-5.1 54.2-5.1 14.6 0 25.1 7.7 49 9.8 21.1 1.9 57.8 1.2 80.4.6 28.4-.8 63.2-7 69.8-7 8.8 0 25.7 2.1 43 2.5 17.1.3 31.8-1.6 42.1-1.6 18.1 0 41.5 7.6 48.3 15.8a114 114 0 0 1 24.6 57.9c5.4 37.6-4.5 78.7-1.8 94.4 2.2 14.2 10.6 16.6 11.5 30.7.6 17-5.9 25.6-5 36 2.8 5.5 11 26.7 2.3 34.8.5-10.7-3.6-16.7-8-22.8-8.6-7.2-16.9-18.9-19.6-46.1-3.1-37.8 8.8-70.7 7.6-105.3 0-25.3-11.3-34.1-11.3-34.1s-3.4 31.2-14.7 49.3c0 8.1-8.4 34.2-11.9 43.4 0 13.2 9.9 30.9 10.2 40.1 3.1 6.1 9 15.5 8.5 20.9-.7 8.6-5.8 10.3-4.9 42.7.8 21.9 4.9 25.4 5.1 33.3.1 2.6-1.2 6.5-1.2 9.4-4.8.1-5-6.2-7.5-6.1-2.2.1 1 10.1-3.7 12.3-5.4.8-24.9-.5-30.3-2 1.7-2.9 3.7-4.6 5.7-5.7 2.4-1.3 4.9-2 7.1-4.6 4.6-5.7 6.8-26.9 6.8-36.4-.6-19.6-6.5-29.7-16.1-44.3-8-14.3-19.2-13.9-29.3-23.5-10.9-10.4-16.9-21.4-16.9-21.4s-3.7-8.8-6.5-13.5c-4.4-3-14.7-3-21.9-3-36 0-55.3 43-90.2 43-11.6 0-15.8-2.7-24.1-3.4-6.4-.6-30.3 4.2-51.2-1.1-15.1-3.8-21.6 1.5-25.6 1.5h-.6c-.4 10.5-4.3 19.2-4.7 22.8-.7 8.6-5.3 10.3-4.4 42.7.8 21.9 4.4 25.4 4.6 33.3.1 2.6-1.2 6.5-1.2 9.4-4.8.1-5-6.2-7.5-6.1-2.2.1 1 10.1-3.7 12.3-5.4.8-24.9-.5-30.3-2 1.7-2.9 3.7-4.6 5.7-5.7 2.4-1.3 4.9-2.1 7.1-4.6 4.6-5.7 6.4-26.9 6.4-36.4-.3-9.9-4.5-13.6-6.7-23.6-2.2-10-2.4-18.3-2.4-18.3s-6.4-10.1-11.2-23.5l-4.1.1c-9.6 0-22.5-8.1-25.9-13.1-3.6-4.8-7-5.7-15.8-18.8-8.7-13.3-11-26.2-15.3-33.5z"/>
    <g stroke="none" fill="#000">
      <path d="m163.1 201.6 5.6-2.2 5.4-2.1 5.3-2.4 5.4-2.5a25 25 0 0 1-21.7 9.2zm-44.2 10.9c1.7 0 3.4-.2 5.3 0s3.6.5 5.3.9l5.1 1.5 1.2.4 1.2.4 2.4.5c3.2.4 6.6-.3 9-2.3 1.2-1 2.1-2.3 2.9-3.8a13 13 0 0 1 3.2-4.2l.2.2c-1 1.4-1.5 3-2.2 4.6-.6 1.6-1.5 3.4-3 4.6a11.8 11.8 0 0 1-4.9 2.7 17.2 17.2 0 0 1-8.3.2l-1.3-.4-1.2-.4a90 90 0 0 0-4.9-1.4c-1.6-.4-3.3-.7-4.9-.8h-5.1zM169.4 110c1.9-.6 3.6-1.5 5.1-2.6l2-1.8 1-1.1.9-.6.8-.2 1 .2c.6.3.9.9 1 1.3l.2.9.3 1.4.6 2.8c.2.9.5 1.7.9 2.3.4.6.9 1.1 1.5 1.3l-1 .2a77.6 77.6 0 0 1 7-4.8c.7-.6 1.3-1.3 1.7-2.1 0 1-.5 2-1 2.8l-2 2.2-4.2 3.9c-.3.2-.6.3-.9.2h-.1a5 5 0 0 1-3.1-2.1c-.7-1-1.1-2.1-1.3-3.1l-.5-2.9-.2-1.4-.1-.6.2.1h.3l-.3.2-1.1.9c-.8.7-1.7 1.3-2.6 1.7-2.1.5-4.1 1-6.1.9zm9.8-9.3c-.2-1-.1-1.9.1-2.8a7.5 7.5 0 0 1 3.5-4.4c.8-.5 1.8-.8 2.8-.7l-1.7 2-1.6 1.9-1.5 1.9-1.6 2.1z"/>
    </g>
    <path d="M198.6 115c1.1 2.5 3.5 4.5 6.3 4.4 0 0-.2 1.3.7 3.6.5 1.1 1.6 1.8 2 3 .2.7.3 1.4.2 2.1a5.7 5.7 0 0 0 2.4-2.7c.5-1.3.4-2.5.6-3.8.3-2.3 1-3.5 1.3-4.1.9.4 2.5 2.7 4.6 3.6"/>
    <g stroke="none" fill="#000">
      <path d="m215.4 121.1.4-1.5.4-1.5.4-1.5.2-.7.1-.4.1-.2v-.1V115.9l.1.8.2 1.5.2 1.5.3 1.4zm-17.1-14.2c-.2 2.8.2 5.6 1.5 7.6l-2.4 1c-.4-1.5-.4-3.1-.2-4.5.1-1.5.5-2.8 1.1-4.1zm-41.1-.7c1.2.8 2.2 1.8 3.1 2.8.9.9 1.8 1.7 2.8 2l-1.3 1c0-1.1.6-2 1.3-2.6.6-.6 1.3-1 1.9-1.3.6-.3 1.3-.6 1.8-1a3 3 0 0 0 1.4-1.5c.2.8-.2 1.6-.6 2.2a12 12 0 0 1-1.6 1.6l-1.4 1.3c-.4.4-.6.8-.6 1.2 0 .6-.5 1-1.1 1h-.2c-.8-.2-1.6-.7-2.1-1.3-.6-.5-1-1.2-1.4-1.8l-1-1.8a4 4 0 0 1-1-1.8zm-43.3 76.2c1.5-.4 3.2.1 4.6.7l4 2c2.5 1.1 5.3 1.4 8.2 1.4l4.5.1c1.5.1 3.1.3 4.6.7 1.5.4 3 1 4.3 1.9 1.3.9 2.4 2.1 3 3.6a12 12 0 0 0-7.7-3.4 59 59 0 0 0-4.3-.2h-4.5c-1.5-.1-3.1-.1-4.7-.5-1.6-.3-3.1-.9-4.5-1.8-1.4-.8-2.5-1.8-3.7-2.7-1-.9-2.2-1.6-3.8-1.8zm58.7-33.8.1 3.2c0 1 .2 1.9.1 3.1l-.3 1.8c-.2.6-.6 1.2-1 1.6-.4.5-.9.8-1.3 1.1l-.7.4c-.2.1-.6.3-.9.2.3-.1.3-.4.4-.6l.4-.7.7-1.3c.4-.9.5-1.6.6-2.6 0-.9 0-2.2.3-3.2.3-1.1.8-2.1 1.6-3zm-19.2 10.9c.3 0 .7.3.8.7.2.4.2.8.1 1.2 0 .4-.3.8-.5 1.1l-.7.8c-.5.4-.8.7-.9 1l-.5 1.3-.6 1.7c-.3.6-.6 1.3-1.2 1.8-.6.6-1.3.8-1.8.9l-1.7.6c.1-.7.6-1.2 1-1.7l1-1.2c.4-.7.5-1.7.8-3 .2-.6.5-1.3 1-2l.9-.8.9-.5.7-.3.5-.3c.2-.3.5-.8.2-1.3z"/>
    </g>
    <path fill="#f6f6f6" d="M194.6 144.7c.2-1.2.7-2.8-1.6-3.3-2.4-.6-6.2-1.9-10.7-.7a9.6 9.6 0 0 0-6.7 6.4c-.5 1.8 1.3 3.8 2.9 4.9 1.6 1.1 3.5 1.4 5.3 1.5 5.4.1 9.8-3.1 10.8-8.8z"/>
    <path stroke="none" fill="#000" d="M183.7 145.9v-.8c0-.6-.1-1.5-.7-1.9-.6-.4-1.7-.1-2.2.3l-.4.3c-.9.8-.9 2.2-.8 3.4.1 1.2 1.1 3.3 2.9 3.6 1.3.2 3.5-.5 2.5-2.2-.3-.5-.7-.9-.9-1.4-.4-.5-.4-.9-.4-1.3z"/>
    <g stroke="none" fill="#000">
      <path d="M179 144.2c-1 .7-2.1 1.6-3.4 2.1l-2 .6h-2.1c-1.4-.2-2.5-.7-3.7-1.1-1.2-.4-2.3-.8-3.6-.8 1.2-.3 2.5-.1 3.7 0 1.2.2 2.5.4 3.6.3.6 0 1.1-.2 1.6-.3.5-.2 1.1-.4 1.5-.7.9-.5 1.7-1.3 2.6-2.2zm-10.8-8.9c-.2-1.6 1.3-3.3 3.3-3.3l1.2.1h.3-.1c-.1 0-.1.1-.1 0l.1-.5c.1-.6.4-1.1.8-1.6.8-.9 2-1.4 3.2-1.1l1.1.3h.1s-.1 0 0 0l.8-.6c.4-.3.8-.5 1.3-.6.9-.3 1.9-.3 2.8-.1l-1.2 1c0-.5.2-.9.5-1.3.3-.3.6-.6.9-.7.7-.3 1.3-.4 2-.3 1.2.3 2 .9 3 1.4-1.1.1-2.2-.2-3-.1-.4 0-.7.2-1 .4-.3.2-.3.4-.2.5.2.3.1.7-.2.9l-.4.1h-.7c-.6 0-1.1.1-1.6.3l-.7.4-1 .8a2 2 0 0 1-1.1.3l-1-.1-1-.3c-.2-.1-.6 0-.8.2l-.3.4-.2.6c-.1.3-.3.7-.6 1-.3.3-.8.4-1.1.4l-.8-.1-1-.4c-1.1.1-2.6.6-3.3 2zm25.2 4.9c.5.4 1.5.4 2.4.1.9-.2 1.7-.9 2.2-1.9 0 1.1-.6 2.2-1.5 3l-1.6 1c-.6.2-1.3.4-2.1.3zm-9.7 17.8 3.8-1.1 3.5-1.3 3.3-1.7 1.7-1 1.8-1a10 10 0 0 1-1.1 1.7 11.8 11.8 0 0 1-4.9 3.8c-1.3.6-2.6.9-4 1-1.4.2-2.8.1-4.1-.4zm22.4 36.5c.6-.1.9-.6 1.1-1 .2-.5.4-1 .9-1.4.4-.5 1-.8 1.6-.9.6-.2 1.2-.2 1.7-.2 1.1 0 2.1.1 3.1-.1 1-.1 2-.2 3-.5 2-.5 3.8-1.2 5.5-2.3 1.7-1 3.3-2.3 4.6-3.8l.9-1.2 1.2-1.4c.3-.2.6-.5 1-.6.4-.2.9-.2 1.3-.2l1.4.2.3-.2c.2-.2.3-.6.3-1l.1-1.6a6 6 0 0 1 .6-1.9c.3-.6.7-1 1-1.4l.8-1.2c.5-.9.9-1.8 1.1-2.8.6-2 .6-4.1.1-6.2 1 1.9 1.4 4.2 1.2 6.4-.1 1.1-.4 2.2-.9 3.3-.4 1.1-1.2 2.1-1.5 2.8-.2.4-.2.7-.2 1.1v1.6c0 .6-.2 1.4-.5 2.1a7 7 0 0 1-.8 1c-.4.3-.9.5-1.4.5-1 .1-1.5-.2-1.8-.2-.2 0-.3 0-.5.3l-.8 1-1.1 1.3c-3 3.4-7.2 5.7-11.7 6.4-1.1.2-2.2.3-3.4.2-1.1 0-2.3-.2-3.2-.4-1-.1-2-.2-2.7.4l-1 1.1c-.2.4-.7.9-1.3.8zm-76.8 8.4c.4-1.1.9-2.1 1.6-3 .7-.9 1.7-1.7 2.8-2.2 1.1-.5 2.5-.6 3.7-.2.6.2 1.2.6 1.6 1 .4.4.7.8 1.2.9-.5.4-1.3.1-1.8 0-.5-.2-.9-.2-1.4-.2-.9 0-1.8.2-2.6.5s-1.7.8-2.5 1.4c-.7.6-1.5 1.2-2.6 1.8zm5.6 3 1.9-1 1.6-.8 1.7-.8 1.9-.8c0 .8-.4 1.5-.9 2.1-.5.6-1.1 1.1-1.8 1.4-.7.3-1.5.5-2.2.5-.7 0-1.5-.1-2.2-.6zm-17.6-9.2-1.5-2.5-1.4-2.3c-.5-.7-.9-1.4-1.5-1.9s-1.3-.9-2.4-.9c.7-.8 2.1-.9 3.2-.5a6 6 0 0 1 2.5 2.2c.5.9.9 1.9 1.1 2.9a6 6 0 0 1 0 3zm-3.6 1.7a4 4 0 0 1-2.4-.3c-.7-.4-1.4-.9-1.8-1.6a5 5 0 0 1-.9-2.3c-.1-.8.1-1.7.6-2.4l1 1.9 1 1.6 1.1 1.5 1.4 1.6zm18.3-43.7c.8.8 1 2 .9 3a9.5 9.5 0 0 1-.8 3l-1.2 2.5c-.4.8-.8 1.6-1.1 2.6-.6-.9-.6-2.1-.5-3.1.2-1 .5-2 .9-2.9l1.1-2.5c.4-.7.6-1.5.7-2.6zm-7.1 26.9c.7-.2 1.3-.2 1.8-.2l1.6.1 1.5.4 1.6.8a3 3 0 0 1-1.7.8 5.4 5.4 0 0 1-3.5-.6c-.5-.3-1-.7-1.3-1.3zm77.6-78.8c-.1-.9.1-1.8.5-2.7.4-.8.9-1.6 1.5-2.2.6-.6 1.4-1.2 2.2-1.5.8-.4 1.7-.6 2.7-.5l-1.8 1.8-1.6 1.6-1.6 1.6c-.6.7-1.1 1.3-1.9 1.9zm-14.2-.2c-.3-.7-.2-1.4-.1-2.1.1-.7.4-1.3.8-1.9a5 5 0 0 1 1.4-1.5c.6-.4 1.2-.7 2-.8l-.7 1.9-.9 1.5-1 1.4-1.5 1.5zm10.5-8.8a3 3 0 0 1 0-1.9 4 4 0 0 1 1-1.6c.4-.4 1-.8 1.6-.9a3 3 0 0 1 1.9 0l-1 1.4-1 1-1.1.9-1.4 1.1zm-25.6 5.6c-.5-.3-.8-.7-1-1.2-.2-.5-.2-1-.2-1.4l.5-1.3c.3-.4.7-.7 1.3-.9l.3 1.4v1.1l-.3 1.1-.6 1.2zm-29.1 33.1-.2 2-.2 2c-.1 1.4-.2 2.7 0 4.1l-1.3-3.9-.5-2-.4-2.1zm6-13.5 1.6 1.8.7.8.8 1 .1.2.1.4v.5l-.1.7-.1.7.2 1.2c.1.5 0 1.1-.4 1.4-.1-.5-.3-.7-.6-.9-.3-.3-.6-.5-.8-1-.3-.4-.4-1.2-.4-1.6v-.6.1l-.5-1-.5-1.2c-.1-.8-.2-1.7-.1-2.5zm75.8-15.1.1.2-.1-.4a2 2 0 0 0-.4-.6l-.4-.8c-.4-1.1-.3-2.1-.3-3.1a8 8 0 0 0 1.4 2.4l1.1.8c.2.2.5.4.7.8.2.4.4 1 .2 1.6zm-15 13.1c.6-.8.8-2.1 1-3.4a8 8 0 0 1 1.1-4c-.4 1.3-.1 2.6.2 3.9l.4 2.1c.1.8 0 1.6-.2 2.4zm-7.4 2.2.7-2.5.8-2.4c.2-.8.4-1.6.4-2.4l-.1-2.5.8 2.5.3 2.7-.2 2.6-.1 2.5z"/>
    </g>
    <g>
      <g>
        <path d="M237.7 122.5c17.3-9.8 22.5-4.1 30.8-7.3 4.9-1.9 8.2-6.6 9.6-8.5.8-.6 3-.2 3.3.3 1.1 3.4-.5 15.5-7.4 23.6 0 2.2-4.1 7.6-6.2 8.4-.5 1-1.9 3.7-8.5 6.2"/>
      </g>
      <g stroke="none" fill="#000">
        <path d="M259.6 146.5a37.4 37.4 0 0 1-11.4 1.6 54.4 54.4 0 0 1-8.5-.8l-1.4-.4-.7-.3-.5-.4c.1.2.4.3.6.4l.7.2 1.4.2 2.8.2c1.9 0 3.7-.1 5.5-.3 3.7-.4 7.3-1.3 10.5-2.8zm-30.8-11.2a29.9 29.9 0 0 1 5.2-10.9c.9-1.1 1.9-2.1 2.9-3l1.6 2.1c-1 .7-2.1 1.4-3 2.2a24.8 24.8 0 0 0-6.7 9.6zm24.3-7.8 2.5.1 2.4.1 2.4.3c.8.2 1.6.3 2.5.7-.8.5-1.6.8-2.5.9-.9.2-1.7.2-2.6.1-.9-.1-1.7-.3-2.6-.6a3 3 0 0 1-2.1-1.6zm-4.4 2.3 1.6.4 1.3.5 1.2.7c.4.3.8.6 1.2 1.2-.6.3-1.2.4-1.7.4a3 3 0 0 1-1.6-.4c-.5-.3-1-.6-1.3-1.1-.5-.4-.8-1-.7-1.7zm-9.9 1.4c1.6-3.1 4.4-5.6 7.5-7.2l2.5-1.1 2.6-.6c1.8-.3 3.5-.4 5.2-.4 3.4-.1 6.8-.1 10.1-.7a16.3 16.3 0 0 0 8.8-4.6 13 13 0 0 1-3.6 3.8c-1.4 1-3.1 1.8-4.8 2.3-1.7.5-3.4.8-5.2 1l-5.2.4a78 78 0 0 0-5 .4c-1.7.2-3.1.7-4.7 1.3-2.9 1.2-5.7 3-8.2 5.4zm.8 9.5c3.1.3 6.1.4 9.1 0l2.1-.4 2.1-.7a33.2 33.2 0 0 0 17.4-13.7 25.3 25.3 0 0 1-12.4 13.7c-1.4.7-2.9 1.3-4.4 1.8l-2.3.6c-.8.2-1.6.2-2.4.2a22 22 0 0 1-9.2-1.5z"/>
      </g>
    </g>
    <g stroke="none" fill="#000">
      <path d="M525.6 119.5a241.1 241.1 0 0 0 37.8 6.5 201.9 201.9 0 0 0 38.3.3 95.6 95.6 0 0 1-19.1 2.7c-3.2.2-6.5.2-9.7.2-3.2-.1-6.5-.3-9.7-.6-3.2-.3-6.4-.8-9.6-1.3-3.2-.6-6.4-1.1-9.5-1.9a99.6 99.6 0 0 1-18.5-5.9zm101.7 53.7c.1 1.8-.1 3.6-.4 5.4l-1.1 5.3c-.9 3.5-2.1 6.9-3.5 10.2-1.4 3.3-3 6.5-4.7 9.7l-2.7 4.7-2.9 4.5.1-1.3c1.7 4 2.1 8.2 2.2 12.4-.1 4.1-.6 8.2-1.4 12.2a98 98 0 0 1-7.8 23.1 169.5 169.5 0 0 0 5.6-23.5c.6-3.9 1-7.9 1-11.8 0-3.9-.6-7.8-2-11.3-.2-.4-.1-.9.1-1.2l2.9-4.4 2.8-4.5 2.6-4.6 1.3-2.3 1.2-2.4c1.5-3.2 3-6.4 4.1-9.8l.8-2.5.7-2.6c.5-1.8.9-3.5 1.1-5.3zm-21.4 107.1a18 18 0 0 1 2 17.7 8 8 0 0 1-1.8 2.6 5 5 0 0 1-2.7 1.6c1.4-1.5 2.1-3.2 2.5-5 .4-1.8.6-3.6.7-5.5.1-1.9 0-3.7-.1-5.6l-.6-5.8zm-11.4 17.6c-2.4-.4-4.7-1.2-6.9-2.2a48.2 48.2 0 0 1-11.9-8.1l-1.2-1.4a14.3 14.3 0 0 1-2.6-4.8c1.6 1.8 3.4 3.2 5.2 4.6l5.7 4 5.8 3.9 5.9 4zm-244.2-38.8c-1.8-3.2-2.3-7-2.6-10.6-.3-3.6-.3-7.2-.5-10.8a47 47 0 0 0-.3-5.3c-.1-1.8-.4-3.5-.7-5.2-.6-3.4-1.7-6.8-3.8-9.8a19 19 0 0 1 5.8 9.3c1.1 3.6 1.4 7.3 1.6 10.9.1 3.6 0 7.2-.1 10.8 0 3.6-.1 7.2.6 10.7zM288 179.9a47.6 47.6 0 0 1-6.4 14.1l-1.8 2.6a59.8 59.8 0 0 1-8.1 9.5l-4.3 4.4a58.3 58.3 0 0 0-7.8 9.3c1.2-4 3.7-7.5 6.3-10.7 2.6-3.2 5.4-6.2 8-9.3a111.6 111.6 0 0 0 14.1-19.9zm1.9 77.7c.9 3.9 1.8 7.7 2.9 11.5l1.8 5.6.9 2.8c.3 1 .7 1.9.9 2.9a93.7 93.7 0 0 1 3.2 17.6c.2 1.9.6 3.9 1.1 5.8a22.4 22.4 0 0 1-2.4-5.5c-.6-1.9-1-3.8-1.5-5.8-.9-3.8-1.8-7.6-3-11.3l-1.8-5.6-1.4-5.8c-.6-4.2-.9-8.2-.7-12.2zm35.9 29.6a49 49 0 0 1 .9 15.2l-.9 5.1c-.8 3.3-2 6.7-4.1 9.6a16.2 16.2 0 0 1-8 6.4c2.7-2.1 4.8-4.6 6.3-7.5a30.4 30.4 0 0 0 3.2-9.2c.8-3.2 1.3-6.4 1.6-9.7.5-3.2.7-6.5 1-9.9zm-5 107.9c.5.5.8 1.3.8 2.1s-.1 1.5-.3 2.2c-.5 1.4-1.2 2.6-2.1 3.7a14.6 14.6 0 0 1-6.7 4.9 39.4 39.4 0 0 1 4.6-6.4l2.3-2.9.9-1.5c.3-.8.5-1.4.5-2.1zm-1.9-54.2-.1 10.9.1 10.8.1 10.9-.1 10.9c-.7-3.6-1.2-7.2-1.5-10.8a199 199 0 0 1-.6-10.9c0-3.6 0-7.3.4-10.9.3-3.7.8-7.3 1.7-10.9zm26.2-76.5c2.4 1.2 4.8 2 7.3 2.8l7.4 2.3 7.5 2.3c2.5.8 5 1.6 7.4 2.7a50.6 50.6 0 0 1-23-5.3 22.4 22.4 0 0 1-6.6-4.8zm202.3-3.1-7.3-12.1.3.4a99.4 99.4 0 0 1-21.3-25.1 69.8 69.8 0 0 1-6.8-15 42.9 42.9 0 0 1-1.8-16.3h.3a53.1 53.1 0 0 0 3.2 15.7 68.1 68.1 0 0 0 7 14.4 108.7 108.7 0 0 0 21.2 24.1l.3.3 7.2 12.1zm89.9-102.4c1.1 0 2.2.5 3.2 1l2.9 1.7c1.9 1.2 3.7 2.6 5.5 4l-1.9 1.9a102.4 102.4 0 0 0-6.9-7.1 8.4 8.4 0 0 0-2.8-1.5zM333.6 297.6l.4-9.6.2-4.8.1-2.4.5-2.5.7-2.4c.3-.8.6-1.6 1.4-2.3l.3-.2.3-.1.5-.3.9-.7a8 8 0 0 0 1.5-1.7c.9-1.3 1.4-2.8 1.8-4.3.3-1.5.5-3.1.5-4.7.2 1.6.2 3.2-.1 4.8-.2 1.6-.7 3.2-1.5 4.7-.4.7-.9 1.4-1.5 2l-1 .8-.5.4-.3.2-.1.1c-.4.4-.7 1.1-.9 1.8l-.4 2.2-.2 2.3V297.7zm-53.5-48.1a83 83 0 0 0 1 24.5c.7 4 1.8 8 3 11.9l4.1 11.6-2.5.8-3.5-11.9a102.8 102.8 0 0 1-3.2-24.7 56 56 0 0 1 1.1-12.2zm-9.4 84.7a299.4 299.4 0 0 1-7.2 20.1l-3.6 10-1.7 5a30 30 0 0 0-1.1 5.2c-.3-1.8-.2-3.6 0-5.4a122.7 122.7 0 0 1 4.3-15.6c1.3-3.3 2.6-6.7 4.1-9.9 1.6-3.1 3.2-6.3 5.2-9.4zm-17.1 47c.5.5.8 1.3.8 2.1s-.1 1.5-.3 2.2c-.5 1.4-1.2 2.6-2.1 3.7a14.6 14.6 0 0 1-6.7 4.9 39.4 39.4 0 0 1 4.6-6.4l2.3-2.9.9-1.5c.3-.8.5-1.4.5-2.1zm277.6.4c.5.5.8 1.3.8 2.1s-.1 1.5-.3 2.2c-.5 1.4-1.2 2.6-2.1 3.7a14.6 14.6 0 0 1-6.7 4.9 39.4 39.4 0 0 1 4.6-6.4l2.3-2.9.9-1.5c.3-.8.5-1.4.5-2.1zm99.5 13.4c.5.5.8 1.3.8 2.1s-.1 1.5-.3 2.2c-.5 1.4-1.2 2.6-2.1 3.7a14.6 14.6 0 0 1-6.7 4.9 39.4 39.4 0 0 1 4.6-6.4l2.3-2.9.9-1.5c.3-.8.5-1.4.5-2.1zm-7.6-15.3.1-12.1c0-2 0-4-.2-6a108.1 108.1 0 0 0-2.6-17.6l-2.9-11.7a73.9 73.9 0 0 1 6.1 17.2l1 6a62.5 62.5 0 0 1 .2 12.2c-.3 4.1-.8 8.1-1.7 12zm52.7-39a40 40 0 0 1-3.6-12.2 105 105 0 0 1-.9-12.4 85 85 0 0 0-3.5-24.1l.2-.1c2.2 3.5 3.5 7.6 4.3 11.7.7 4.1 1 8.3 1.3 12.4.3 4.1.5 8.2 1.1 12.2.6 4 1.7 7.8 3.4 11.4zm-5.6 12.2a29.7 29.7 0 0 1-4.9-12.6c-.4-2.2-.7-4.3-1.2-6.4l-.7-3.1-.4-1.5-.5-1.6a63.7 63.7 0 0 1-2.6-13c-.4-4.4-.2-8.8.7-13.1h.3c.2 4.4.3 8.7.8 12.9.5 4.3 1.6 8.4 3 12.4l.5 1.5.5 1.6.8 3.2 1.3 6.4a42 42 0 0 0 1.6 6.1c.7 1.9 1.6 3.8 2.8 5.5z"/>
    </g>
  </g>
</svg>
