<svg xmlns="http://www.w3.org/2000/svg" fill="#d7374a" stroke="#000" viewBox="50 50 200 200">
  <metadata source="http://wappenwiki.org/images/a/ad/Rossiter.svg" license="https://creativecommons.org/licenses/by-nc-sa/3.0"/>
  <g id="crocodile" stroke-width=".35">
    <g>
      <path class="secondary" d="M109.05 119.34c-.95.53-1.2 1.82-.9 2.23.17-.24.46-.52.71-.64.6-.32 1.15-.36 1.78-.27"/>
      <path class="secondary" d="M110.36 120.32c-.8.75-.9 2.25-.51 2.57.1-.27.34-.57.54-.76.22-.2.71-.7 1.35-.76m-3.05-3.8c-1.07.2-1.79 1.39-1.61 1.86.22-.17.58-.38.87-.42.7-.1 1.2.03 1.77.3"/>
      <g>
        <path d="M107.95 111.14c.29.37.57.74.92 1.04 1.03.87 3.47.81 4.38 1.8.75.82.61 1.07.65 2.02.02.29-.76.6-1.02.84-.46.4-1.33.47-1.86.5-.16 0-.46.06-.64-.07-.15-.1-.7-.44-1.32-.3-.58.14-.7.42-.7.62.63.26.71.58.77.87a.87.87 0 0 0-.4 1c.64-.16 1.1.35 1.18.64-.03.25.09.51.3.41.6-.23 1.17.29 1.3.93.04.22.01.18.22.2.23.03.23.09.45.03.13-.04.23-.12.34-.19.37-.29.2-.59.28-.7.39-.7.95-.71 1.6-.98.32-.13 2.37-.53 3.2-1.34.55-.75 1.16-.78 1.71-1.52.3-.39.6-.8.68-1.28.08-.51-.08-.79-.12-1.31-.04-.72.21-.94.3-1.66.07-.72-.05-1.76-.6-2.21-.37-.3-2.09-.9-2.53-1.1"/>
      </g>
      <g stroke="none" fill="#000">
        <path d="M109.73 120.07a1.4 1.4 0 0 1 .4-.7 1.03 1.03 0 0 1 .98-.22l.18.06c.1.04.2.07.31.08.22.02.43.02.67.01l.02.04c-.19.17-.47.22-.72.2-.13 0-.26-.02-.39-.05l-.16-.05h-.15a.72.72 0 0 0-.52.19 1.09 1.09 0 0 0-.3.5l-.32-.06zm-.68-1.76a1.45 1.45 0 0 1 1.26-.06l.14.06.12.05c.04.03.15.03.24.03h.3a.58.58 0 0 1 .3.09l-.02.03-.28.06-.29.06c-.1.01-.2.04-.33 0l-.15-.06-.13-.04a1.57 1.57 0 0 0-.51-.06c-.18.01-.34.06-.5.14l-.15-.3z"/>
      </g>
      <path class="secondary" d="M77.15 119.4c-.94.55-1.16 1.85-.85 2.25.15-.25.44-.53.69-.65.6-.33 1.13-.39 1.77-.32"/>
      <path class="secondary" d="M78.5 120.36c-.78.76-.85 2.26-.46 2.57.1-.26.33-.56.54-.76.2-.21.7-.72 1.32-.79m-3.15-3.75c-1.06.23-1.75 1.43-1.57 1.9.22-.17.58-.39.86-.44a2.7 2.7 0 0 1 1.77.27"/>
      <g>
        <path d="M89.65 112.63c.1.42-.16.64-.31 1.04-.16.39.08.94-.44 1.33a9.26 9.26 0 0 0-2.22 1.93c-.5.55-.7 1.25-1.33 1.67-.26.52-2.5 1.02-2.82 1.14-.65.28-1.2.3-1.59 1.02-.06.12.1.41-.25.71-.1.08-.21.16-.34.2-.22.06-.22 0-.45-.01-.21-.01-.19.01-.23-.2-.14-.63-.72-1.14-1.33-.9-.2.11-.32-.15-.3-.4-.1-.29-.54-.79-1.18-.61a.88.88 0 0 1 .37-1.02c-.07-.3-.15-.6-.8-.85.01-.21.12-.49.7-.64a1.72 1.72 0 0 1 1.33.27c.17.13.48.04.64.06.53-.05 1.66.05 2.1-.36.5-.39 1.02-.53 1.5-.9.6-.47 1.27-2.25 1.21-2.92"/>
      </g>
      <g stroke="none" fill="#000">
        <path d="M83.71 113.21a1.6 1.6 0 0 0-.23-.7c-.13-.24-.3-.46-.45-.69a4.52 4.52 0 0 1-.43-.72c-.12-.25-.2-.52-.25-.8a2.9 2.9 0 0 0 .32.76c.14.23.31.45.5.66.17.2.37.41.53.65a1.97 1.97 0 0 1 .36.82l-.35.02zm33.25-3.67a1.98 1.98 0 0 1-.74-.64 3.6 3.6 0 0 1-.42-.85c-.2-.58-.32-1.18-.56-1.74.3.53.48 1.14.72 1.68a3.25 3.25 0 0 0 .45.76 1.74 1.74 0 0 0 .68.48l-.13.3zm-10.29-1.69c-.07.3-.03.6.04.9s.2.57.33.82c.28.52.65 1.01 1.03 1.46l-.27.22a7.83 7.83 0 0 1-.92-1.6 4.06 4.06 0 0 1-.27-.88 2.2 2.2 0 0 1 .06-.92zm-18.95 1.13c.1.34.25.64.45.93.18.29.4.55.61.83.21.28.43.56.62.86.18.3.35.63.44.99l-.34.07a3.48 3.48 0 0 0-.32-.94c-.15-.3-.34-.6-.52-.88s-.39-.58-.55-.9a2.82 2.82 0 0 1-.4-.96zm-9.88 11.14a1.3 1.3 0 0 1 .4-.7 1.04 1.04 0 0 1 1.15-.2c.1.04.2.06.32.07.22.02.44.02.68 0v.04c-.18.18-.46.23-.7.23-.13 0-.26-.01-.38-.05l-.17-.03-.15-.01c-.2 0-.38.07-.52.2a1.11 1.11 0 0 0-.29.53l-.34-.08zm-.7-1.74a1.47 1.47 0 0 1 1.26-.1l.14.06.12.06c.04.02.15.02.24.02h.29c.1.01.2.02.3.08l-.01.04-.28.07-.29.06c-.1 0-.2.03-.33 0l-.16-.04-.12-.05c-.18-.04-.35-.07-.51-.04-.18.02-.34.07-.5.15l-.15-.31zm9.96-5.16-.5 1.01a.46.46 0 0 1-.14-.3.68.68 0 0 1 .07-.35.7.7 0 0 1 .22-.26c.12-.07.24-.12.35-.1zm-5.31 4.66.72-.41.7-.38h.02c.06-.04.12-.01.15.04.02.05.01.1-.03.14-.12.1-.24.24-.37.36a1.28 1.28 0 0 1-.44.32c.13-.13.22-.27.33-.42.1-.15.2-.3.35-.43l.12.18-.36.21-.38.18c-.28.08-.54.16-.81.2zm32.39-.85a7.89 7.89 0 0 0 .68-.45l.3-.27.3-.28a.12.12 0 0 1 .17 0c.03.04.03.08.02.12a2.63 2.63 0 0 1-.98 1.26c.16-.22.3-.43.43-.66a4.76 4.76 0 0 0 .33-.7l.18.13c-.2.19-.4.39-.65.54a1.62 1.62 0 0 1-.37.2c-.14.05-.26.1-.41.11zm3.19-5.51c.04.13.05.24.08.35l.04.31.03.33-.01.36a.68.68 0 0 1-.26-.3.99.99 0 0 1-.07-.73.58.58 0 0 1 .19-.32zm-5.47.78a6.06 6.06 0 0 0 1.3-.15 5.29 5.29 0 0 0 1.2-.51c-.1.2-.27.39-.47.53a1.95 1.95 0 0 1-.65.3c-.23.06-.47.08-.72.06a1.74 1.74 0 0 1-.66-.23z"/>
      </g>
    </g>
    <g>
      <g fill="#F6F6F6" stroke-width=".29" stroke-linejoin="round">
        <path d="M64.88 112.25c-.12-.74.14-1.5.55-2.12-.02.7.23 1.42.71 1.96m.65.31a3.1 3.1 0 0 1-.13-2.2 2.78 2.78 0 0 0 1.29 1.64m.87.32a3.1 3.1 0 0 1-.13-2.2 2.78 2.78 0 0 0 1.29 1.64m-8.06-8.58c-.27.7-.16 1.5.11 2.19.12-.7.53-1.35 1.1-1.78m.5-.32c-.24.7-.1 1.5.2 2.18.1-.7.47-1.37 1.01-1.82m1.36.34a3 3 0 0 0-.3 2.16 2.9 2.9 0 0 1 1.41-1.54m.66.04c-.24.7-.11 1.5.18 2.18.1-.71.48-1.37 1.04-1.81m.81-.01c-.24.7-.11 1.5.18 2.18.1-.71.48-1.37 1.04-1.81m.45-.37c-.24.7-.11 1.5.18 2.18.1-.71.48-1.37 1.04-1.81m.74-.21a3.12 3.12 0 0 0-.36 2.17 2.82 2.82 0 0 1 1.45-1.5"/>
      </g>
      <path d="M80.19 110.1c-.1.22-.38.28-.62.22s-.43-.2-.65-.27c-.61-.21-1.24.11-1.83.24-.67.14-1.32.32-2.02.2-.5-.1-.95-.34-1.45-.47a2.54 2.54 0 0 0-1.55.06c-.67.27-1.29.66-1.96.92-.9.35-1.86.45-2.81.6-1.43.22-2.03.31-3.41.73-.26.08-.49.05-.64.27-.17.08-.29.25-.31.45s.03.38.14.55c.29.44.88.61 1.41.53.56-.08.95-.4 1.46-.62.7-.29.83-.09 1.57-.2a29.31 29.31 0 0 1 8.27-.02c2 .28 3.16.54 5.18.54 1.09 1.15 3.92 3.3 5.48 3.6l5.02-.16a12 12 0 0 0 5.8 1.62c10.14.58 14.66-2.02 21.9-2.02l3.2-.17a31.82 31.82 0 0 0 6.03-2.67c.96-.68 2.18-1.4 3.26-1.93 1.08-.53 2.17-1.17 3.21-2s2.05-1.82 2.88-3.07a11.16 11.16 0 0 0 1.83-5.38l.02-.56v-.53c0-.66-.07-.77-.2-1.49a10.9 10.9 0 0 0-1.8-4.34 10.01 10.01 0 0 0-3.52-3 16.83 16.83 0 0 0-3.62-1.4c-1.16-.3-2.26-.5-3.33-.64a82.18 82.18 0 0 0-3.14-.37c-2.04-.2-4.01-.34-5.94-.54a129.43 129.43 0 0 1-5.74-.72 43.15 43.15 0 0 1-5.4-1.12c-1.56-.45-3.64-1.5-3.64-3.48 0-1.57 1.03-2.65 2.94-3.11a16.59 16.59 0 0 1 2.53-.36c.22-.01.44-.03.68-.03l.73-.04 1.5-.06c1-.04 2.03-.11 3.05-.18 1.02-.1 2.04-.19 3.06-.34 2.04-.28 4.08-.68 6.09-1.31a17.88 17.88 0 0 0 2.94-1.17 11 11 0 0 0 2.64-1.78c.12-.1 1.18-1.25 1.13-1.4 0 0-.86.49-1.54.73-1.83.66-3.74.42-4.9 1-1.13-.4-2.86.43-3.5.05-1.21-.5-2.04.11-3.18.02-1.38-.49-2.27-.12-3.41-.23-1.5-.53-2.49.45-3.4.07-.92-.46-2.15.11-3.11-.06-1.5-.34-1.78.23-3.24.33-1.54 0-1.8.4-3.1.9-1.42.25-2.1 1.52-2.51 2.18-1.38.58-1.14 2.55-1.52 3.23-.73 1.54.12 3.16.1 3.8-.2.96.95 1.76 1.34 2.72.2 1.77 2.13 1.66 2.7 2.34.4.88 1.55 1.1 2.77 1.47.74.75 2.47.76 3 .95 1.06.77 2.24.5 3.28.77 1.03.7 1.89.29 2.9.5 1.08.74 2.15.28 3.16.46.98.67 2.14.35 3.17.5 1.36.67 2.05.26 3.58.59 1.16.67 2.32.31 3.22.47.93.9 2 .48 2.76.7 1.07.96 1.66.6 2.14 1.3-.08.87.6 1.38.6 2.34-.8.86 0 1.38-.67 2.18-1.05.25-1.32 1.57-1.94 1.44-1.42-.29-2.44.49-3 .47-1.6-1.05-2.2-.47-3.86-1.05a2.98 2.98 0 0 0-1.62-.82 6.48 6.48 0 0 0-2.01-.13c-1.1-.95-2.09-.47-3.1-.68a3.39 3.39 0 0 0-1.73-.46c-.6 0-1 .19-1.77.12 0 0-.38-.1-.79-.03-.81.12-1.59.34-2.12.11-.86-.37-1.84.13-2.97.23-.21-.23-.76-.24-.96-.25-1.06-.05-1.25.49-2.5.61-.17-.17-.43-.23-.67-.26a4 4 0 0 0-1.53.09c-.4.11-.2.17-.58.36-.17.07-.3.16-.46.23-.82-.32-1.36-.05-1.98.1l-1.14.25c-.2-.2-.62-.2-1.19-.1-.92.17-1.24.48-1.8.56-1.29-.35-2.04.52-3.01-.02-1.32-.73-2.1-.33-3-.44-1.16-.8-2.05-.28-3.1-.44-1.07-.76-1.93-.26-3-.47-.93-.4-2.2-.08-3.57-.08-.88-.02-1.56-.79-2.45-.9a3.13 3.13 0 0 0-2.44.8 2.93 2.93 0 0 1-.48.36c-2.7-.85-4.85-.23-7.25-.72-1.1-.22-2.33-.36-3.24-1-.16-.1-.32-.23-.52-.23-.14 0-.26.07-.37.15-1.86 1.48-.95 2.13-.76 2.97.22.67 1.66.03 2.2-.13a5.68 5.68 0 0 1 2.13-.1c.88.09 1.42.8 2.18 1.24.66.38 1.34.78 2.09.95 1.31.29 2.74-.16 4.01.28a5.45 5.45 0 0 1 1.38.79c.97.7 1.9 1.5 3.04 1.85.56.18 1.15.26 1.7.46.54.23 1.34.46 1.17 1z"/>
      <g stroke="none" fill="#000">
        <path d="M79.16 108.28c.37-.02.74 0 1.1.07.38.07.75.21 1.06.43.32.22.6.55.72.92.07.18.09.4.09.58a3.1 3.1 0 0 1-.1.56c-.04-.38-.08-.74-.23-1.04a2.06 2.06 0 0 0-.67-.74 3.63 3.63 0 0 0-.93-.45l-1.04-.33zm-2.13-4.32c.4.31.77.63 1.23.83-.5-.08-.96-.32-1.41-.54l.18-.3zm-5.66-.5c.14.09.3.11.45.11a3 3 0 0 0 .92-.16l.45-.16.1.34-.5.08a3.48 3.48 0 0 1-.99 0 .88.88 0 0 1-.43-.21zm-10.75-.8a.9.9 0 0 1 .07-.46 1.14 1.14 0 0 1 .27-.39c.11-.12.25-.2.41-.24a.83.83 0 0 1 .48-.01l-.35.25-.3.26-.28.29-.3.3zm1.58-.69a.3.3 0 0 1 .15.14.6.6 0 0 1 .07.19c0 .07.02.14 0 .22-.01.08-.06.15-.1.22a.6.6 0 0 1-.78.14l.3-.18.2-.17a.49.49 0 0 0 .09-.22c.04-.1.08-.2.07-.34zm22.64 10.55a4.33 4.33 0 0 1-.85.6 6.96 6.96 0 0 1-1.7.63l-.13.02-.13.02-.5.12c-.17.03-.34.07-.53.08v-.35l.49-.03.5-.07.14-.01.12-.02.26-.03.5-.1c.32-.1.66-.2.97-.33.3-.15.6-.32.86-.53z"/>
      </g>
      <path fill="#F6F6F6" d="M76.94 104.1a2.67 2.67 0 0 1-1.17 1.05c-.21.08-.45.1-.67.08a1.9 1.9 0 0 1-1.03-.45c-.18-.16-.33-.37-.48-.57a2 2 0 0 1-.35-.79 4.25 4.25 0 0 1 3.02.3c.24.1.46.25.68.39z"/>
      <g>
        <g stroke="none" fill="#000">
          <path d="m90.2 111.55-.28-.25-.28-.2-.3-.15-.36-.13c.12-.08.27-.1.4-.1.15.01.29.05.41.13a.93.93 0 0 1 .32.29c.04.14.1.28.09.41zm-2.24-.8c-.08.09-.16.13-.24.18l-.25.11-.25.09c-.1.02-.19.03-.3.02.05-.1.12-.18.2-.23s.17-.1.26-.14a.8.8 0 0 1 .28-.06c.1-.02.2-.01.3.03zm25.96-1.38c.04-.09.1-.16.19-.22a.78.78 0 0 1 .55-.12c.1.02.19.04.27.11l-.26.08-.23.06-.23.05c-.1.02-.18.04-.29.04zm1.65-.72c.1-.07.2-.09.31-.09a1.04 1.04 0 0 1 .33.05.7.7 0 0 1 .27.17c.09.08.14.16.17.28l-.28-.12-.26-.1-.25-.1c-.1-.02-.19-.04-.3-.09zm2 .14c.1-.05.19-.08.3-.09a.8.8 0 0 1 .54.2c.07.07.14.15.16.25l-.28-.05-.24-.09-.23-.09-.25-.13z"/>
        </g>
      </g>
      <path class="secondary" d="M114.52 122.5c-.98.47-1.33 1.73-1.05 2.15.17-.22.49-.47.74-.6a2.75 2.75 0 0 1 1.8-.13"/>
      <path class="secondary" d="M115.77 123.57c-.85.69-1.06 2.18-.69 2.53.12-.25.37-.53.6-.72.24-.18.76-.65 1.4-.66m-2.79-4.01c-1.08.14-1.88 1.26-1.74 1.75.23-.16.62-.34.9-.36.7-.06 1.19.1 1.75.43"/>
      <g>
        <path d="M113.99 114.25c.27.38.52.77.85 1.1.95.94 3.4 1.05 4.23 2.1.7.87.55 1.11.51 2.06 0 .3-.79.55-1.08.77-.48.37-1.34.37-1.88.37-.16-.02-.46.02-.62-.12a1.76 1.76 0 0 0-1.3-.4c-.6.1-.73.37-.76.58.62.31.68.62.72.91a.86.86 0 0 0-.46.98c.65-.12 1.05.42 1.12.72-.03.24.06.5.27.43.63-.19 1.15.37 1.23 1.02.02.22 0 .18.21.22.22.03.23.09.45.06.13-.03.25-.1.35-.17.4-.25.26-.57.32-.68.45-.69 1-.66 1.69-.87.32-.1 2.4-.37 3.27-1.13.6-.7 1.22-.7 1.82-1.39.31-.37.64-.75.75-1.22.12-.5-.02-.79-.02-1.3 0-.73.28-.94.4-1.64s.09-1.77-.43-2.27c-.35-.32-2.03-1.04-2.45-1.27"/>
      </g>
      <g stroke="none" fill="#000">
        <path d="M115.15 123.27c.04-.14.1-.25.17-.37a1.16 1.16 0 0 1 .67-.49 1.28 1.28 0 0 1 .41-.02l.2.05.17.06.32.1c.22.06.43.07.67.07l.01.03c-.2.16-.47.19-.73.16a1.33 1.33 0 0 1-.37-.08l-.16-.05-.15-.03a.7.7 0 0 0-.54.16 1.03 1.03 0 0 0-.33.5l-.34-.09zm-.56-1.8c.2-.08.42-.13.64-.13s.44.06.63.16l.14.07.11.06c.05.03.15.04.25.05l.29.02c.1.03.2.04.3.12l-.01.04c-.1 0-.19.02-.28.04l-.3.04c-.1 0-.2 0-.33-.03l-.15-.05-.13-.06a1.33 1.33 0 0 0-1.02 0l-.14-.33z"/>
      </g>
      <path class="secondary" d="M79.18 122.5c-.99.47-1.34 1.73-1.06 2.15.18-.22.49-.47.75-.6a2.75 2.75 0 0 1 1.8-.13"/>
      <path class="secondary" d="M80.42 123.57c-.85.69-1.06 2.18-.68 2.53.11-.25.37-.53.6-.72.23-.18.75-.65 1.4-.66m-2.8-4.01c-1.07.14-1.87 1.26-1.73 1.75.23-.16.61-.34.89-.36.7-.06 1.2.1 1.75.43"/>
      <g>
        <path d="M92.25 116.91c.05.43-.22.62-.42 1-.2.38 0 .95-.56 1.29a9.4 9.4 0 0 0-2.4 1.72c-.54.5-.82 1.18-1.48 1.53-.31.48-2.6.77-2.91.88-.67.22-1.23.18-1.68.87-.07.1.07.42-.33.68a.96.96 0 0 1-.34.17c-.23.03-.23-.03-.46-.06-.2-.04-.18 0-.2-.22-.09-.64-.6-1.21-1.24-1.02-.2.08-.3-.19-.26-.43a1 1 0 0 0-1.13-.72c-.03-.2-.07-.7.47-.98-.05-.29-.1-.6-.72-.91.02-.21.16-.48.75-.57.64-.1 1.16.27 1.3.4.16.13.46.09.63.1.53 0 1.64.22 2.12-.15.53-.34 1.06-.43 1.59-.77a4.93 4.93 0 0 0 1.47-2.78"/>
      </g>
      <g stroke="none" fill="#000">
        <path d="M86.29 116.94c.01-.25-.06-.49-.17-.73a11.25 11.25 0 0 0-.4-.73 4.6 4.6 0 0 1-.36-.77 2.9 2.9 0 0 1-.17-.82 3.13 3.13 0 0 0 .25.78 5 5 0 0 0 .43.71c.16.23.33.45.48.7.14.24.26.53.29.85h-.35zm36.8-3.67a2 2 0 0 1-.69-.7 3.69 3.69 0 0 1-.35-.86c-.16-.6-.23-1.2-.44-1.78.26.56.4 1.16.6 1.73a2.9 2.9 0 0 0 .41.78 1.74 1.74 0 0 0 .64.53l-.16.3zm-10.13-2.4c-.08.29-.08.6-.03.9.06.28.16.57.28.84.25.55.58 1.04.93 1.53l-.29.2a8.8 8.8 0 0 1-.81-1.66c-.1-.29-.17-.6-.2-.9-.02-.3 0-.62.12-.91zm-22.3 2.23c.07.33.2.66.36.96.16.3.35.6.54.9.18.28.37.58.53.9.16.31.29.66.35 1.03l-.35.04a3.54 3.54 0 0 0-.23-.97 9.67 9.67 0 0 0-.44-.93 8.76 8.76 0 0 1-.46-.94 3.32 3.32 0 0 1-.3-1zm-10.85 10.17c.03-.14.09-.25.17-.37a1.16 1.16 0 0 1 .66-.49 1.28 1.28 0 0 1 .42-.02l.2.05.17.06.31.1c.22.06.43.07.68.07v.03c-.2.16-.47.19-.72.16a1.33 1.33 0 0 1-.38-.08l-.16-.05-.15-.03a.7.7 0 0 0-.53.16 1.03 1.03 0 0 0-.34.5l-.33-.09zm-.55-1.8c.2-.08.42-.13.64-.13s.44.06.62.16l.14.07.12.06c.05.03.15.04.24.05l.3.02c.1.03.2.04.3.12l-.02.04c-.09 0-.18.02-.28.04l-.29.04c-.1 0-.2 0-.33-.03l-.15-.05-.13-.06a1.33 1.33 0 0 0-1.02 0l-.14-.33zm31.52-8.5c-.06.16-.17.3-.3.43a1.76 1.76 0 0 1-.87.47c-.17.04-.34.04-.51 0l.44-.22.41-.2.41-.24.42-.24zm-1.63 2.18a.46.46 0 0 1-.17.24.7.7 0 0 1-.26.15c-.09.04-.2.06-.29.06-.1 0-.2-.02-.29-.07a1.28 1.28 0 0 1 .27-.1l.24-.1.25-.09a8.24 8.24 0 0 0 .25-.09zm-1.52 1.5a1.4 1.4 0 0 1-.76.44c-.15.03-.3.03-.45.02a.93.93 0 0 1-.43-.13l.43-.05.4-.07.4-.1.41-.1zm-15.91-2.74a.78.78 0 0 1 .06-.49 1.22 1.22 0 0 1 .7-.68.87.87 0 0 1 .48-.05 2.62 2.62 0 0 0-.74.48c-.1.1-.2.2-.28.33-.1.13-.15.26-.22.4z"/>
        <g>
          <path d="M94.78 109.5c.24-.1.49-.16.74-.2a8.41 8.41 0 0 1 1.52-.12c.26 0 .51.04.77.1a8.53 8.53 0 0 1-1.51.2 8.2 8.2 0 0 1-1.52.02zm4.58-.73c.1-.05.21-.07.32-.1l.3-.03.3.01a1.04 1.04 0 0 1 .31.09.99.99 0 0 1-.6.2l-.31-.04a.75.75 0 0 1-.32-.13zm2.86-.51c.12-.07.25-.1.4-.13.12-.02.26-.03.39-.02.12 0 .26.02.39.06s.25.08.37.17a2.5 2.5 0 0 1-.78.06l-.38-.04-.4-.1zm3.07-.51c.1-.08.2-.14.33-.17l.34-.07a1.25 1.25 0 0 1 .71.15 1.98 1.98 0 0 1-.68.15h-.34l-.36-.06zm3.2-.88a2.17 2.17 0 0 1 1.58 0 2.17 2.17 0 0 1-1.58 0zm3.55-.55c.15-.06.3-.06.45-.06a1.92 1.92 0 0 1 .85.3c.12.1.23.2.31.34-.15-.03-.29-.09-.41-.14l-.4-.14-.4-.13-.4-.17zm3.56.51c.17-.11.35-.17.55-.22a2.03 2.03 0 0 1 1.16.13c.17.08.35.19.49.33l-.56-.1-.54-.09a4.12 4.12 0 0 0-.53-.04h-.57zm4.14.72a.58.58 0 0 1 .3-.1c.11-.01.21 0 .32.02.1.02.2.07.28.13.08.06.16.14.2.24-.11 0-.2 0-.3-.03l-.26-.06-.27-.08-.27-.12zm3.36.58a2 2 0 0 1 1.48 0 2 2 0 0 1-1.48 0zm3.74.35c.13-.08.26-.13.4-.16.14-.04.26-.07.4-.08.14-.03.28-.03.42-.03.14 0 .28.02.43.06-.13.08-.25.13-.4.16-.13.04-.26.07-.4.09-.14.02-.28.02-.42.02a2.55 2.55 0 0 1-.43-.06zm3.2-.77a2.02 2.02 0 0 1 .65-.44l.35-.15a1.4 1.4 0 0 1 .4-.09c-.08.12-.18.2-.28.29a2.03 2.03 0 0 1-.7.35c-.15.03-.28.06-.42.04zm2.73-1a.64.64 0 0 1-.1-.38.9.9 0 0 1 .36-.68.7.7 0 0 1 .37-.14l-.21.3-.16.27-.13.29-.13.35zm2.78-4.71a.53.53 0 0 1-.1-.32 1.8 1.8 0 0 1 .14-.58l.12-.28c.07.1.1.21.1.32a1.8 1.8 0 0 1-.14.58l-.12.28zm-1.06 2.43a.66.66 0 0 1 .02-.33c.04-.1.1-.2.16-.27.06-.08.13-.14.2-.21l.22-.2c.04.1.01.22-.02.33-.04.1-.1.2-.16.26-.06.09-.13.14-.2.21l-.22.21zm.97-5.47a1.2 1.2 0 0 1-.4-.64 1.31 1.31 0 0 1 0-.76c.07.12.11.24.16.34a3.85 3.85 0 0 1 .24 1.06zm-2.03-3.4c-.16 0-.32-.05-.47-.1a2.2 2.2 0 0 1-.8-.56 1.4 1.4 0 0 1-.25-.42l.4.24.38.26.37.26.37.32zm-3.27-2.09c-.15.1-.32.16-.5.2a1.74 1.74 0 0 1-.54-.03 1.6 1.6 0 0 1-.5-.22c-.15-.1-.28-.23-.36-.4l.47.2a5.8 5.8 0 0 0 .94.23l.5.02zm-3.97-.75c-.14.07-.27.1-.41.11a1.77 1.77 0 0 1-.85-.13 1.2 1.2 0 0 1-.37-.24 1.74 1.74 0 0 1 .43.02l.4.05.4.07c.13.03.26.06.4.12zm-3.6-.55c-.13.08-.28.13-.43.16a1.62 1.62 0 0 1-.93-.14 1.3 1.3 0 0 1-.38-.27l.45.05.42.07.43.06.45.07zm-3.34-.38a1.62 1.62 0 0 1-.47.13c-.16.02-.31 0-.47 0a2.09 2.09 0 0 1-.47-.12 1.28 1.28 0 0 1-.42-.24c.17-.02.32 0 .47.02l.44.05.44.05.48.1zm-3.23-.48a1.62 1.62 0 0 1-.46.13c-.17.02-.32.01-.48 0a2.09 2.09 0 0 1-.46-.12 1.28 1.28 0 0 1-.42-.24c.16-.01.31.01.46.02l.44.05.44.06.48.1zm-2.86-.59a1.28 1.28 0 0 1-.41.13c-.14.02-.28.02-.42 0a1.62 1.62 0 0 1-.4-.12 1.14 1.14 0 0 1-.35-.23c.15-.01.28 0 .42.01l.38.06.38.06c.13.01.26.04.4.1zm-3.04-.52a1.36 1.36 0 0 1-.84.05 1.62 1.62 0 0 1-.4-.16 1.23 1.23 0 0 1-.33-.25 4.6 4.6 0 0 1 .8.14l.38.1c.13.01.26.06.39.12zm-7.2-2.67a.55.55 0 0 1-.36.04c-.11-.04-.23-.1-.32-.17a.82.82 0 0 1-.31-.6 2.67 2.67 0 0 1 .26.2l.24.18.23.19c.08.03.16.1.26.16zm1.76 1.17a.52.52 0 0 1-.34.12.7.7 0 0 1-.35-.08.99.99 0 0 1-.29-.2.61.61 0 0 1-.17-.3l.31.11.28.13.27.12.29.1zm2.4.76c-.07.09-.19.15-.32.16a.95.95 0 0 1-.67-.2.56.56 0 0 1-.2-.28l.32.08.29.1.28.08.3.06zm-6.45-5.4a1.13 1.13 0 0 1-.18-.3c-.03-.1-.05-.22-.05-.34-.02-.11 0-.22.02-.33s.06-.22.14-.33a2 2 0 0 1 .13.64v.31c-.02.12-.03.24-.06.35zm.77 2.06a1.04 1.04 0 0 1-.5-.46 1.28 1.28 0 0 1-.13-.31.85.85 0 0 1-.04-.35 2.18 2.18 0 0 1 .42.51l.15.28c.03.1.08.2.1.33zm-.77-4.26a.86.86 0 0 1-.08-.37c0-.13.02-.26.07-.39a1.04 1.04 0 0 1 .2-.32c.1-.1.2-.16.33-.2-.04.12-.1.22-.14.33l-.13.3-.11.31c-.04.1-.07.22-.14.34zm3.04-2.8c.05-.12.12-.23.23-.33.1-.1.22-.18.36-.21a1.18 1.18 0 0 1 .8.02c-.12.07-.25.12-.36.15l-.34.1-.32.13-.37.14zm-1.95.88c.02-.13.07-.26.14-.38s.17-.22.29-.29c.11-.07.24-.11.37-.15.13-.02.25-.03.4-.02l-.32.23-.3.19-.28.2-.3.22zm4.42-1.47c.1-.11.23-.2.37-.25.14-.06.28-.1.43-.13a1.4 1.4 0 0 1 .86.14l-.42.08-.4.06-.41.05a2.55 2.55 0 0 1-.43.05zm3.1-.35a1.97 1.97 0 0 1 .82-.15 2.3 2.3 0 0 1 .81.15 1.97 1.97 0 0 1-.81.15 2.3 2.3 0 0 1-.81-.15zm3-.18c.17-.1.36-.15.54-.18a2.33 2.33 0 0 1 1.13.1c.17.07.35.15.5.26l-.56-.04-.53-.06-.54-.05-.54-.03zm4 .09a2.17 2.17 0 0 1 1.58 0 2.17 2.17 0 0 1-1.58 0zm2.82-.2a3.9 3.9 0 0 1 1.18-.36c.14 0 .28-.02.43 0-.11.1-.23.17-.36.22a2.67 2.67 0 0 1-.4.14c-.13.04-.27.05-.41.06-.16 0-.3-.01-.44-.06zm3.44-.34.34-.12.31-.1.32-.11.35-.1a.66.66 0 0 1-.24.3 1.02 1.02 0 0 1-.7.23.72.72 0 0 1-.38-.1zM92.87 109.2a3.94 3.94 0 0 1-2.1 0 3.94 3.94 0 0 1 2.1 0zm-3.29-.78c-.17.07-.36.1-.53.13a2.47 2.47 0 0 1-1.07-.17 1.62 1.62 0 0 1-.46-.3l.53.08.51.08.51.08.51.1zm-3.81-.97a.6.6 0 0 1-.26.16c-.09.03-.2.04-.3.03a.72.72 0 0 1-.28-.1.64.64 0 0 1-.2-.22l.27.01.25.03.24.03c.1.01.17.02.28.06z"/>
        </g>
        <path d="M75.49 104.23a.9.9 0 0 0 .58-.62 4.16 4.16 0 0 0-1.59-.35c-.17.36.06.75.23.88.21.19.51.2.78.1zm14.18 13.03-.58.95a.48.48 0 0 1-.1-.32c0-.12.03-.23.1-.33a.7.7 0 0 1 .24-.24.46.46 0 0 1 .34-.06zm-5.74 4.14.76-.33.74-.33h.01c.06-.02.13 0 .15.06.03.05 0 .1-.04.14-.14.1-.27.2-.4.32-.15.12-.3.24-.48.28.13-.11.25-.25.36-.38.11-.14.23-.28.38-.4l.11.2-.38.18-.4.14c-.26.05-.53.11-.8.12zm35.87-.86.37-.18.34-.22c.1-.08.22-.16.31-.26l.32-.26c.04-.05.11-.04.16 0 .03.04.03.09.01.14a2.87 2.87 0 0 1-1.06 1.2c.18-.2.33-.42.48-.62a5.45 5.45 0 0 0 .37-.68l.18.14a4.27 4.27 0 0 1-1.07.66 1.1 1.1 0 0 1-.4.08zm3.56-5.27c.04.12.05.24.06.36l.02.32v.33l-.03.36a.73.73 0 0 1-.23-.3 1.02 1.02 0 0 1-.03-.75c.04-.11.1-.23.21-.32zm-5.5.4h.68a5.65 5.65 0 0 0 1.25-.23l.63-.25c-.12.2-.3.37-.51.5a1.83 1.83 0 0 1-.68.25c-.24.05-.48.05-.72 0a1.36 1.36 0 0 1-.65-.28z"/>
        <g>
          <path d="M96.57 103.2a5.96 5.96 0 0 1 1.39 1.7c.35.63.6 1.32.76 2.03a7.42 7.42 0 0 0-.91-1.94 5.66 5.66 0 0 0-1.45-1.52l.2-.28zm3.1-.37c.3.2.55.43.78.67a7.02 7.02 0 0 1 1.14 1.66c.14.3.27.62.34.94a5.66 5.66 0 0 0-1.66-2.42 4.04 4.04 0 0 0-.78-.57l.19-.28zm3.27-.4c.27.22.5.48.67.77.18.3.32.6.45.9l.37.91c.13.3.26.6.43.87-.2-.25-.36-.54-.5-.83l-.45-.87a4.8 4.8 0 0 0-.51-.82 2.64 2.64 0 0 0-.66-.63l.2-.3zm3.45-.36c.26.2.45.45.62.7.16.26.3.54.43.8.12.27.24.55.38.8a4.52 4.52 0 0 0 .46.76 3.9 3.9 0 0 1-.53-.71l-.46-.77a8 8 0 0 0-.5-.73 2.38 2.38 0 0 0-.6-.58l.2-.27zm-12.8 1.6c.39.4.74.85 1.02 1.34.28.49.47 1.02.58 1.56a5.94 5.94 0 0 0-1.84-2.65l.24-.25zm-3.02-.03c.35.39.61.8.85 1.24.23.45.41.9.59 1.36-.22-.44-.47-.87-.73-1.26-.28-.4-.58-.78-.94-1.08l.23-.26zm25.2-1.55c.48.34.85.8 1.13 1.29.28.5.48 1.02.67 1.54a11.05 11.05 0 0 0-.8-1.45 3.5 3.5 0 0 0-1.18-1.1l.18-.28zm3.12.7a4.92 4.92 0 0 1 .97 1.19c.27.43.49.9.61 1.37a5.1 5.1 0 0 0-.76-1.28 4.78 4.78 0 0 0-1.04-1l.22-.29zm3.63.95c.22.2.4.43.55.66a9.2 9.2 0 0 1 1 2.27 8.13 8.13 0 0 0-1.22-2.11 3.51 3.51 0 0 0-.55-.55l.22-.27zm-10.23-1.99a10.56 10.56 0 0 1 1.24 1.26c.37.45.68.96.87 1.51a5.03 5.03 0 0 0-1.01-1.4 10.92 10.92 0 0 0-1.33-1.1l.23-.27zm-2.88.12.53.74c.19.24.36.5.54.77a6.15 6.15 0 0 1 .44.8c.12.29.22.59.25.89a3.13 3.13 0 0 0-.32-.85 6.61 6.61 0 0 0-1.1-1.45l-.6-.7.26-.2zm-21.83 1.34a5.07 5.07 0 0 1 .9 2.7c-.07-.46-.23-.9-.43-1.32a4.54 4.54 0 0 0-.74-1.14l.27-.24zm-3.12-.47c.37.28.68.65.88 1.05.2.41.31.86.29 1.3a2.64 2.64 0 0 0-1.36-2.06l.19-.3zm-3-.45a3.5 3.5 0 0 1 .9.96c.11.18.2.4.26.59l.19.62-.27-.58c-.09-.19-.2-.38-.33-.54a3.48 3.48 0 0 0-.95-.79l.2-.26zm29.28-27.1a3.56 3.56 0 0 1 .8 2.2 3.32 3.32 0 0 0-1.05-1.96l.25-.24zm3.4-.06c.26.33.4.7.51 1.06.12.36.2.73.31 1.09-.17-.34-.3-.7-.47-1.04a3.06 3.06 0 0 0-.62-.89l.27-.22zm3.43.26a5.45 5.45 0 0 1 .34.91l.21.93c-.12-.29-.23-.58-.37-.87-.14-.28-.28-.56-.47-.79l.3-.18zm3.15-.07a2.54 2.54 0 0 1 .78 1.84 2.34 2.34 0 0 0-1-1.57l.22-.27zm3.56 0c.22.54.24 1.13.1 1.65a2.5 2.5 0 0 0-.4-1.48l.3-.16zm-16.62-.14c.16.37.32.74.45 1.13.13.4.2.8.23 1.2-.08-.4-.22-.78-.4-1.13-.17-.36-.39-.7-.6-1.04l.32-.16zm-3.27.29a3.13 3.13 0 0 1 .83 2.27 3.02 3.02 0 0 0-1.08-2.02l.25-.25zm-3.23.92a4.4 4.4 0 0 1 1.29 1.76 4.23 4.23 0 0 0-1.5-1.48l.21-.28zm-2.48 2.1c.23.05.44.16.62.28.19.12.35.27.52.4.16.14.3.28.48.4s.36.21.56.26c-.21-.02-.42-.1-.6-.2a5.2 5.2 0 0 1-.55-.32 4.94 4.94 0 0 0-.53-.32 1.95 1.95 0 0 0-.55-.16l.05-.34zm2.42 12.25c.04-.26.13-.5.22-.72a4.3 4.3 0 0 1 .83-1.19 2.09 2.09 0 0 1 .58-.43 2.04 2.04 0 0 0-.51.49 4.36 4.36 0 0 0-.64 1.23 2.2 2.2 0 0 0-.12.65l-.36-.03zm-2.67-2.42a5.53 5.53 0 0 1 2.01-1.43c-.7.42-1.29.99-1.73 1.64l-.28-.21zm-1.3-2.85a2.53 2.53 0 0 1 2.05-.84c-.73.06-1.4.48-1.77 1.04l-.27-.2zm0-3.74a6.4 6.4 0 0 1 2.48.43 6.02 6.02 0 0 0-2.45-.08l-.04-.35zm29.2 23.03c.06.03.13.08.17.12l.06.07.06.07a2.55 2.55 0 0 1 .2.3c.12.2.2.39.3.59l.26.6.25.6a14.21 14.21 0 0 1-.66-1.11 8.58 8.58 0 0 0-.36-.54l-.2-.23c-.07-.07-.15-.11-.2-.15l.12-.32zm-22.45-12.52a6.11 6.11 0 0 1 .3-1.62c.1-.26.22-.5.36-.73s.32-.45.54-.6c-.2.18-.35.4-.46.64a4.04 4.04 0 0 0-.4 1.52c-.02.26-.03.52 0 .77l-.34.02zm3 .96a6.32 6.32 0 0 1 .1-1.6c.06-.28.14-.53.26-.77.12-.25.27-.47.46-.64a1.95 1.95 0 0 0-.38.67 4.34 4.34 0 0 0-.17 1.53c0 .26.04.51.08.77l-.35.04zm3.27.77a7.27 7.27 0 0 1 .3-2.36c.1-.24.21-.48.36-.7a3.41 3.41 0 0 0-.4 1.5c-.03.5 0 1.03.08 1.52l-.34.04zm2.92.49a7.97 7.97 0 0 1 .14-1.51c.04-.25.08-.5.15-.74.07-.25.15-.5.28-.7a5.2 5.2 0 0 0-.24 1.46v.74l.05.73-.38.02zm3.16.47a7.16 7.16 0 0 1 .54-2.83 6.94 6.94 0 0 0-.2 2.79l-.34.04zm3.17.5a5.24 5.24 0 0 1 .14-1.46 4.23 4.23 0 0 1 .48-1.37c-.1.22-.17.45-.22.68-.04.24-.08.47-.1.71-.03.23-.03.48-.03.71s.03.46.06.7l-.33.03zm3.58.6a5.22 5.22 0 0 1 .37-2.22c.1-.24.21-.46.37-.64-.14.2-.23.43-.29.66-.07.23-.1.48-.14.7a5.06 5.06 0 0 0 .03 1.42l-.34.07zm3.21.47c0-.28.04-.52.1-.78a5.83 5.83 0 0 1 .54-1.41 2.55 2.55 0 0 1 .47-.6 2.33 2.33 0 0 0-.39.63 4.48 4.48 0 0 0-.37 2.12l-.35.04zm2.78.62c.17-.4.37-.8.61-1.16a4.06 4.06 0 0 1 .87-.96 4.06 4.06 0 0 0-.72 1.06 7.39 7.39 0 0 0-.44 1.2l-.32-.14zm2.19 1.23c.37-.3.78-.56 1.22-.74s.91-.24 1.38-.23c-.47.05-.92.17-1.31.4a4.35 4.35 0 0 0-1.06.84l-.23-.27zm.65 2.31a3.18 3.18 0 0 1 1.46-.15 4.18 4.18 0 0 1 1.36.47 4.07 4.07 0 0 0-1.37-.3c-.47 0-.9.12-1.32.3l-.13-.32zm-.56 2.18a2.8 2.8 0 0 1 1.46 1.07c.1.17.2.36.23.55a1.69 1.69 0 0 0-.3-.5 2.47 2.47 0 0 0-1.46-.78l.07-.34zm-1.88 1.46c.3.26.57.55.77.89.2.32.33.7.4 1.06-.11-.36-.3-.68-.54-.96a3.42 3.42 0 0 0-.84-.7l.21-.29z"/>
        </g>
        <path d="M66.44 102.74c.36.1.71.15 1.06.16.36.01.7-.01 1.06-.03.36-.02.74-.04 1.1 0s.75.12 1.07.3a4.2 4.2 0 0 0-1.06-.08l-1.08.05a6 6 0 0 1-1.12-.03 2.22 2.22 0 0 1-1.03-.37zm7.32 8.7c.36-.1.74-.12 1.12-.1.37 0 .74.06 1.1.1.17.02.36.03.53.03h.53c.36-.02.71-.09 1.05-.24a2.06 2.06 0 0 1-1.02.46 4.06 4.06 0 0 1-1.13.03l-1.09-.17a8.47 8.47 0 0 0-1.09-.11z"/>
      </g>
      <path fill="none" d="M75.87 106.4c.33.17.63.4.87.67m.4.35a1.86 1.86 0 0 1 1.13.32"/>
      <g>
        <path stroke="none" fill="#000" d="M74.28 102.66a6.84 6.84 0 0 1 2.38-.03c.4.09.79.21 1.14.4.36.18.68.43.94.74a5.25 5.25 0 0 0-2.14-.92 9.61 9.61 0 0 0-1.16-.15l-1.16-.04z"/>
      </g>
    </g>
  </g>
</svg>
