<svg xmlns="http://www.w3.org/2000/svg" fill="#d7374a" stroke="#000" viewBox="50 50 200 200">
  <metadata source="http://wappenwiki.org/images/a/ad/Rossiter.svg" license="https://creativecommons.org/licenses/by-nc-sa/3.0"/>
  <g id="crocodile" stroke-width="3" transform="translate(52 52) scale(0.116)">
    <g>
      <path class="secondary" d="M491.8 580.5c-8.2 4.6-10.4 15.7-7.7 19.2 1.4-2 3.9-4.4 6.1-5.5 5.2-2.7 9.9-3.1 15.3-2.3"/>
      <path class="secondary" d="M503.1 589c-6.9 6.4-7.8 19.4-4.4 22.1.8-2.3 2.9-4.9 4.7-6.5 1.9-1.7 6.1-6.1 11.6-6.6m-26.3-32.8c-9.2 1.8-15.4 12-13.9 16.1 1.9-1.5 5-3.3 7.5-3.6 6-.9 10.4.2 15.3 2.6"/>
      <g>
        <path d="M482.3 509.8c2.5 3.2 4.9 6.4 8 9 8.8 7.5 29.9 7 37.7 15.5 6.5 7.1 5.3 9.2 5.6 17.4.2 2.5-6.5 5.2-8.8 7.3-3.9 3.4-11.4 4-16 4.3-1.4-.1-4 .5-5.5-.6-1.3-.9-6-3.8-11.4-2.6-5 1.2-6 3.6-6.1 5.3 5.5 2.3 6.2 5 6.7 7.5a7.5 7.5 0 0 0-3.4 8.7c5.5-1.4 9.4 3 10.1 5.5-.2 2.1.8 4.4 2.6 3.5 5.2-2 10.1 2.5 11.2 8 .4 1.9.1 1.6 1.9 1.8 2 .2 2 .7 3.9.2 1.1-.3 2-1 2.9-1.6 3.2-2.5 1.8-5.1 2.4-6 3.4-6.1 8.2-6.2 13.9-8.5 2.7-1.1 20.4-4.6 27.5-11.6 4.8-6.4 10-6.7 14.8-13.1 2.5-3.3 5.1-6.9 5.8-11 .7-4.4-.7-6.8-1-11.3-.4-6.2 1.8-8.1 2.5-14.3.7-6.2-.4-15.2-5.1-19.1-3.2-2.6-18-7.8-21.8-9.5"/>
      </g>
      <g stroke="none" fill="#000">
        <path d="M497.7 586.8a12 12 0 0 1 3.5-6 8.9 8.9 0 0 1 8.4-1.9l1.5.5c.9.3 1.8.6 2.7.7 1.9.2 3.7.2 5.8.1l.1.3c-1.6 1.5-4 1.9-6.2 1.8-1.1 0-2.2-.2-3.3-.5l-1.4-.4-1.3-.1c-1.7-.1-3.3.6-4.5 1.7a9.4 9.4 0 0 0-2.6 4.4l-2.7-.6zm-5.9-15.2a12.5 12.5 0 0 1 10.9-.5l1.2.5 1 .5c.4.2 1.3.2 2.1.2h2.5a5 5 0 0 1 2.6.8l-.1.3-2.4.5-2.5.5c-.9.1-1.7.3-2.9 0l-1.3-.5-1.1-.4c-1.5-.4-3-.6-4.4-.5-1.5.1-2.9.5-4.3 1.2l-1.3-2.6z"/>
      </g>
      <path class="secondary" d="M216.8 581c-8.1 4.8-10 16-7.3 19.4 1.3-2.1 3.8-4.5 5.9-5.6 5.2-2.8 9.8-3.3 15.3-2.7"/>
      <path class="secondary" d="M228.4 589.3c-6.7 6.6-7.3 19.5-3.9 22.2.8-2.3 2.8-4.9 4.6-6.6 1.8-1.8 6-6.2 11.4-6.8m-27.1-32.3c-9.2 2-15.1 12.3-13.6 16.4 1.9-1.5 5-3.4 7.4-3.8 6-1 10.4-.1 15.3 2.3"/>
      <g>
        <path d="M324.6 522.7c.8 3.6-1.4 5.5-2.7 8.9-1.4 3.4.7 8.1-3.8 11.5a79.8 79.8 0 0 0-19.1 16.6c-4.3 4.8-6.1 10.8-11.5 14.4-2.2 4.5-21.6 8.8-24.3 9.9-5.6 2.4-10.4 2.6-13.7 8.8-.5 1 .9 3.5-2.2 6.1-.9.7-1.8 1.4-2.9 1.7-1.9.5-1.9 0-3.9-.1-1.8-.1-1.6.1-2-1.7-1.2-5.4-6.2-9.8-11.4-7.7-1.8.9-2.8-1.4-2.6-3.5-.8-2.5-4.7-6.8-10.2-5.3-.5-1.7-1.1-6 3.2-8.8-.6-2.5-1.3-5.1-6.9-7.3.1-1.8 1-4.2 6-5.5a14.8 14.8 0 0 1 11.5 2.3c1.5 1.1 4.1.4 5.5.5 4.6-.4 14.3.5 18.1-3.1 4.3-3.3 8.8-4.5 13-7.8 5.2-4 10.9-19.3 10.4-25.1"/>
      </g>
      <g stroke="none" fill="#000">
        <path d="M273.4 527.7c-.1-2.1-.9-4.2-2-6.1-1.1-2-2.6-3.9-3.9-5.9a39 39 0 0 1-3.7-6.2c-1-2.2-1.8-4.5-2.2-6.9a25 25 0 0 0 2.8 6.5c1.2 2 2.7 3.9 4.3 5.7 1.5 1.8 3.2 3.6 4.6 5.6a17 17 0 0 1 3.1 7.1l-3 .2zM560 496a17.1 17.1 0 0 1-6.4-5.5 31 31 0 0 1-3.6-7.3c-1.7-5-2.8-10.2-4.8-15 2.5 4.6 4.1 9.8 6.2 14.5a28 28 0 0 0 3.9 6.5 15 15 0 0 0 5.8 4.2L560 496zm-88.7-14.5c-.6 2.6-.3 5.2.3 7.7s1.7 4.9 2.9 7.1c2.4 4.5 5.6 8.7 8.9 12.6l-2.4 1.9a67.5 67.5 0 0 1-7.9-13.8 35 35 0 0 1-2.3-7.6 19 19 0 0 1 .5-7.9zm-163.4 9.7c.9 2.9 2.2 5.5 3.9 8 1.6 2.5 3.4 4.8 5.3 7.2 1.8 2.4 3.7 4.8 5.3 7.4 1.6 2.6 3 5.4 3.8 8.5l-2.9.6a30 30 0 0 0-2.8-8.1c-1.3-2.6-2.9-5.1-4.5-7.6s-3.3-5-4.7-7.7a24.3 24.3 0 0 1-3.4-8.3zm-85.1 96c.2-1.2.6-2.3 1.2-3.3s1.3-2 2.2-2.8a9 9 0 0 1 9.9-1.6c.9.3 1.8.5 2.8.6 1.9.2 3.8.2 5.8 0l.1.3c-1.6 1.6-4 2-6.1 2-1.1 0-2.2-.1-3.3-.4l-1.4-.3-1.3-.1c-1.7 0-3.3.6-4.5 1.8a9.6 9.6 0 0 0-2.5 4.5l-2.9-.7zm-6.1-15c1.6-.9 3.5-1.5 5.4-1.6 1.9-.2 3.8.2 5.5.8l1.2.5 1 .5c.4.2 1.3.2 2.1.2h2.5c.9.1 1.8.2 2.6.7l-.1.3-2.4.6-2.5.5c-.9.1-1.7.3-2.9.1l-1.3-.4-1.1-.4c-1.5-.4-3-.6-4.4-.4-1.5.2-2.9.6-4.3 1.3l-1.3-2.7zm85.9-44.4-4.3 8.7a4 4 0 0 1-1.2-2.7c-.1-1 .2-2 .6-2.9a6 6 0 0 1 1.9-2.3c1-.6 2-1 3-.8zm-45.8 40.1 6.2-3.5 6.1-3.3h.1c.5-.3 1.1-.1 1.3.4.2.4.1.9-.2 1.2-1.1.9-2.1 2-3.2 3.1a11 11 0 0 1-3.8 2.7c1.1-1.1 1.9-2.3 2.8-3.6.9-1.3 1.8-2.6 3-3.7l1.1 1.6-3.1 1.8-3.3 1.5c-2.4.7-4.7 1.4-7 1.8zm279.2-7.3a68 68 0 0 0 5.9-3.9l2.6-2.3 2.6-2.4a1 1 0 0 1 1.4 0c.3.3.3.7.2 1a22.7 22.7 0 0 1-8.4 10.9c1.3-1.9 2.6-3.7 3.7-5.7a41 41 0 0 0 2.8-6l1.6 1.1c-1.7 1.6-3.5 3.3-5.6 4.6a14 14 0 0 1-3.2 1.7c-1.2.5-2.3.9-3.6 1zm27.5-47.5c.4 1.1.5 2.1.7 3l.4 2.7.2 2.8-.1 3.1c-1-.6-1.7-1.5-2.2-2.5a8.5 8.5 0 0 1-.6-6.3c.2-1 .7-2 1.6-2.8zm-47.1 6.7a52.2 52.2 0 0 0 11.2-1.3 45.6 45.6 0 0 0 10.4-4.4c-.9 1.8-2.4 3.4-4.1 4.6a16.8 16.8 0 0 1-5.6 2.6c-2 .5-4.1.7-6.2.5a15 15 0 0 1-5.7-2z"/>
      </g>
    </g>
    <g>
      <g fill="#F6F6F6" stroke-width="2.5" stroke-linejoin="round">
        <path d="M111 519.4c-1-6.4 1.2-12.9 4.8-18.3-.2 6.1 2 12.3 6.1 16.9m5.6 2.7a26.7 26.7 0 0 1-1.1-18.9 24 24 0 0 0 11.1 14.1m7.5 2.7a26.7 26.7 0 0 1-1.1-18.9 24 24 0 0 0 11.1 14.1m-69.5-74c-2.3 6-1.4 12.9 1 18.9 1-6 4.5-11.6 9.4-15.3m4.3-2.8c-2 6.1-.8 12.9 1.8 18.8.8-6.1 4-11.8 8.7-15.7m11.7 2.9a25.8 25.8 0 0 0-2.5 18.7A25 25 0 0 1 132 452m5.7.3c-2.1 6.1-1 12.9 1.5 18.8.9-6.1 4.2-11.8 9-15.6m7-.1c-2.1 6.1-1 12.9 1.5 18.8.9-6.1 4.2-11.8 9-15.6m3.9-3.2c-2.1 6.1-1 12.9 1.5 18.8.9-6.1 4.2-11.8 9-15.6m6.4-1.8a26.9 26.9 0 0 0-3.1 18.7 24.3 24.3 0 0 1 12.5-12.9"/>
      </g>
      <path d="M243 500.9c-.8 1.9-3.3 2.4-5.3 1.9s-3.7-1.7-5.6-2.4c-5.3-1.8-10.7 1-15.8 2.1-5.8 1.2-11.4 2.8-17.4 1.7-4.3-.8-8.2-2.9-12.5-4a21.9 21.9 0 0 0-13.4.5c-5.8 2.3-11.1 5.7-16.9 7.9-7.7 3-16 3.9-24.2 5.2-12.3 1.9-17.5 2.7-29.4 6.3-2.2.7-4.2.4-5.5 2.3-1.5.7-2.5 2.2-2.7 3.9s.3 3.3 1.2 4.7c2.5 3.8 7.6 5.3 12.2 4.6 4.8-.7 8.2-3.5 12.6-5.3 6-2.5 7.1-.8 13.5-1.7a252.7 252.7 0 0 1 71.3-.2c17.3 2.4 27.2 4.6 44.6 4.6 9.4 9.9 33.8 28.5 47.3 31l43.3-1.3c15 9.4 32.3 12.9 50 13.9 87.4 5 126.3-17.4 188.7-17.4l27.7-1.4c9.4-2.1 38.4-14.9 51.9-23.1 8.3-5.8 18.8-12 28.1-16.6 9.3-4.6 18.7-10.1 27.7-17.2s17.7-15.7 24.8-26.5A96.2 96.2 0 0 0 755 428l.2-4.8v-4.6c-.1-5.7-.6-6.6-1.7-12.8a93.9 93.9 0 0 0-15.6-37.4 86.3 86.3 0 0 0-30.3-25.9 145.1 145.1 0 0 0-31.2-12c-10-2.6-19.5-4.3-28.7-5.6-9.3-1.3-18.2-2.3-27.1-3.2-17.6-1.7-34.6-2.9-51.2-4.6a1115.8 1115.8 0 0 1-49.5-6.2 372 372 0 0 1-46.6-9.7c-13.4-3.9-31.3-12.9-31.3-30 0-13.5 8.9-22.8 25.3-26.8a143 143 0 0 1 21.8-3.1c1.9-.1 3.8-.3 5.9-.3l6.3-.3 12.9-.5c8.7-.4 17.5-1 26.3-1.6 8.8-.8 17.6-1.6 26.4-2.9 17.6-2.4 35.2-5.9 52.5-11.3a154.1 154.1 0 0 0 25.3-10.1c8.2-4.1 16.1-9 22.8-15.3 1-.9 10.2-10.8 9.7-12.1 0 0-7.4 4.2-13.2 6.3h-.1c-15.7 5.7-32.2 3.6-42.1 8.6-9.8-3.5-24.7 3.7-30.3.4-10.4-4.2-17.5 1-27.4.2-11.9-4.2-19.5-1-29.4-2-12.9-4.5-21.4 3.9-29.3.6-7.9-3.9-18.5 1-26.8-.5-12.9-2.9-15.3 2-27.9 2.9-13.3 0-15.6 3.4-26.7 7.8-12.3 2.1-18.2 13-21.7 18.7-11.9 5-9.8 22-13.1 27.9-6.3 13.2 1.1 27.2.9 32.7-1.7 8.3 8.2 15.2 11.5 23.5 1.7 15.2 18.4 14.3 23.3 20.1 3.5 7.6 13.4 9.6 23.9 12.7 6.4 6.5 21.3 6.6 25.9 8.2 9.1 6.6 19.3 4.3 28.2 6.6 8.9 6 16.3 2.5 25.1 4.3 9.2 6.4 18.5 2.5 27.2 4 8.4 5.8 18.4 3 27.3 4.3 11.7 5.8 17.7 2.3 30.9 5.1 10 5.8 20 2.7 27.7 4.1 8 7.8 17.2 4.1 23.8 6 9.2 8.3 14.3 5.2 18.5 11.2-.7 7.5 5.1 11.9 5.1 20.2-6.8 7.4 0 11.9-5.7 18.8-9.1 2.1-11.4 13.5-16.8 12.4-12.2-2.5-21 4.2-25.9 4-13.7-9-18.9-4-33.2-9-4.8-4.6-8.9-6-14-7.1a55.9 55.9 0 0 0-17.3-1.1c-9.4-8.2-18-4.1-26.8-5.9A29.2 29.2 0 0 0 534 429c-5.2-.1-8.7 1.6-15.3 1 0 0-3.3-.8-6.8-.3-7 1.1-13.7 3-18.3 1-7.4-3.2-15.8 1.1-25.6 2-1.8-2-6.5-2.1-8.3-2.2-9.1-.4-10.7 4.2-21.5 5.3-1.5-1.5-3.7-2-5.8-2.3-4.4-.6-8.9-.3-13.2.8-3.5 1-1.7 1.5-5 3.1-1.4.6-2.6 1.4-3.9 2-7.1-2.8-11.8-.4-17.1.8l-9.8 2.2c-1.7-1.7-5.4-1.7-10.3-.8-7.9 1.4-10.7 4.1-15.5 4.8-11.1-3-17.6 4.5-26-.2-11.3-6.3-18-2.8-25.9-3.8-9.9-6.9-17.6-2.4-26.6-3.8-9.3-6.5-16.7-2.2-25.9-4-8-3.5-19-.7-30.8-.7-7.6-.2-13.4-6.8-21.1-7.7a27 27 0 0 0-21 6.8 25.3 25.3 0 0 1-4.2 3.1c-23.2-7.3-41.8-2-62.5-6.2-9.4-1.9-20.1-3.1-27.9-8.6-1.4-.9-2.8-2-4.5-2-1.2 0-2.2.6-3.2 1.3-16 12.8-8.2 18.4-6.5 25.6 1.9 5.8 14.3.3 19-1.1a49 49 0 0 1 18.3-.8c7.6.7 12.2 6.8 18.8 10.6 5.7 3.3 11.5 6.7 18 8.2 11.3 2.5 23.6-1.4 34.6 2.4a47 47 0 0 1 11.9 6.8c8.3 6.1 16.4 12.9 26.2 16 4.8 1.5 9.9 2.2 14.6 3.9 4.7 2 11.6 4 10.1 8.7z"/>
      <g stroke="none" fill="#000">
        <path d="M234.1 485.2c3.2-.2 6.4 0 9.6.6 3.2.6 6.4 1.8 9.1 3.7 2.7 1.9 5.1 4.7 6.2 7.9.6 1.6.7 3.4.7 5-.1 1.6-.4 3.2-.8 4.8-.4-3.2-.7-6.3-2-8.9a17.8 17.8 0 0 0-5.8-6.4 31.3 31.3 0 0 0-8-3.9l-9-2.8zm-18.3-37.3c3.4 2.7 6.6 5.5 10.6 7.2-4.3-.7-8.3-2.8-12.2-4.7l1.6-2.5zm-48.8-4.3c1.2.8 2.6 1 3.9 1a25.8 25.8 0 0 0 7.9-1.4l3.9-1.4.8 2.9-4.2.7a30 30 0 0 1-8.6 0 7.6 7.6 0 0 1-3.7-1.8zm-92.7-6.8c-.2-1.4.1-2.8.6-4a9.8 9.8 0 0 1 2.3-3.4c1-1 2.2-1.7 3.6-2.1 1.3-.4 2.8-.5 4.1-.1l-3 2.2-2.6 2.2-2.4 2.5-2.6 2.7zm13.6-6c.6.2 1 .7 1.3 1.2.3.5.5 1.1.6 1.6.1.6.2 1.2 0 1.9-.1.7-.5 1.3-.9 1.9a5.1 5.1 0 0 1-6.7 1.2l2.6-1.5 1.7-1.5c.4-.5.6-1 .8-1.9.4-.9.7-1.7.6-2.9zm195.2 90.9a37.3 37.3 0 0 1-7.3 5.2 60 60 0 0 1-14.7 5.4l-1.1.2-1.1.2-4.3 1c-1.5.3-3 .6-4.6.7v-3l4.2-.3 4.4-.6 1.1-.1 1.1-.1 2.2-.3 4.3-.9c2.8-.8 5.7-1.7 8.4-2.8 2.5-1.3 5.1-2.8 7.4-4.6z"/>
      </g>
      <path fill="#F6F6F6" d="M215 449.2a23 23 0 0 1-10.1 9c-1.8.7-3.9.9-5.8.7-3.2-.4-6.3-1.7-8.8-3.9-1.6-1.4-2.9-3.2-4.2-4.9-1.5-2-2.5-4.4-3-6.8a36.6 36.6 0 0 1 26 2.6c2.1.9 4 2.1 5.9 3.3z"/>
      <g>
        <g stroke="none" fill="#000">
          <path d="m329.3 513.4-2.4-2.2-2.4-1.7-2.6-1.3-3.1-1.1c1-.7 2.3-.9 3.5-.9 1.2.1 2.4.4 3.5 1.1a8 8 0 0 1 2.7 2.5c.4 1.2.9 2.4.8 3.6zm-19.3-6.9c-.7.7-1.4 1.1-2.1 1.5l-2.1 1-2.2.7c-.8.2-1.6.3-2.5.2.4-.9 1-1.5 1.7-2s1.4-.9 2.2-1.2c.8-.3 1.6-.5 2.4-.5.9-.2 1.8-.1 2.6.3zm223.8-11.9c.3-.8.9-1.4 1.6-1.9a6.7 6.7 0 0 1 4.8-1.1c.8.2 1.6.4 2.3 1l-2.2.7-2 .5-2 .4c-.9.2-1.6.4-2.5.4zm14.2-6.2c.8-.6 1.7-.8 2.7-.8a9 9 0 0 1 2.8.4 6 6 0 0 1 2.4 1.5c.7.7 1.2 1.4 1.4 2.4l-2.4-1-2.2-.9-2.2-.8c-.8-.2-1.6-.4-2.5-.8zm17.3 1.2c.8-.5 1.6-.7 2.5-.8a6.9 6.9 0 0 1 4.7 1.7c.6.6 1.2 1.3 1.4 2.2l-2.4-.5-2.1-.7-2-.8-2.1-1.1z"/>
        </g>
      </g>
      <path class="secondary" d="M539 607.7c-8.5 4.1-11.5 15-9.1 18.6 1.5-1.9 4.2-4.1 6.4-5.1a23.7 23.7 0 0 1 15.5-1.2"/>
      <path class="secondary" d="M549.7 617c-7.3 5.9-9.1 18.8-5.9 21.8 1-2.2 3.2-4.6 5.2-6.2 2-1.6 6.5-5.6 12-5.7m-24-34.6c-9.3 1.2-16.2 10.9-15 15.1 2-1.4 5.3-2.9 7.7-3.1 6-.5 10.3.9 15.1 3.7"/>
      <g>
        <path d="M534.4 536.6c2.3 3.3 4.5 6.7 7.3 9.5 8.2 8.1 29.3 9.1 36.5 18.1 6 7.5 4.7 9.6 4.4 17.8 0 2.5-6.8 4.7-9.3 6.6-4.2 3.2-11.6 3.2-16.2 3.2-1.4-.2-4 .2-5.4-1-1.2-1-5.7-4.2-11.2-3.4-5.1.8-6.3 3.1-6.5 4.9 5.3 2.7 5.8 5.4 6.2 7.9a7.4 7.4 0 0 0-4 8.4c5.6-1 9.1 3.6 9.7 6.2-.3 2.1.5 4.4 2.3 3.7 5.4-1.6 9.9 3.2 10.6 8.8.2 1.9 0 1.6 1.8 1.9 1.9.3 2 .8 3.9.5 1.1-.2 2.1-.8 3-1.4 3.4-2.2 2.2-4.9 2.8-5.9 3.8-5.9 8.6-5.7 14.5-7.5 2.8-.9 20.7-3.2 28.2-9.7 5.2-6.1 10.5-6 15.7-12 2.7-3.2 5.5-6.5 6.5-10.5 1-4.3-.2-6.8-.2-11.3 0-6.2 2.4-8 3.5-14.1s.7-15.2-3.8-19.5c-3-2.8-17.5-9-21.1-11"/>
      </g>
      <g stroke="none" fill="#000">
        <path d="M544.4 614.4c.3-1.2.8-2.2 1.5-3.2a10 10 0 0 1 5.7-4.2 11 11 0 0 1 3.6-.2l1.7.4 1.5.6 2.7.9c1.9.4 3.7.5 5.8.5l.1.3c-1.8 1.4-4.1 1.6-6.3 1.4-1.1-.1-2.2-.3-3.2-.7l-1.4-.5-1.3-.2a6 6 0 0 0-4.6 1.4 8.9 8.9 0 0 0-2.9 4.2l-2.9-.7zm-4.8-15.5c1.7-.7 3.6-1.1 5.5-1.1s3.8.5 5.4 1.3l1.2.6 1 .6c.4.2 1.3.3 2.1.4l2.5.2c.9.2 1.8.3 2.6 1l-.1.3c-.8 0-1.6.2-2.4.4l-2.5.3c-.9 0-1.8.1-2.9-.2l-1.3-.5-1.1-.5a11.5 11.5 0 0 0-8.8.1l-1.2-2.9z"/>
      </g>
      <path class="secondary" d="M234.3 607.7c-8.5 4.1-11.5 15-9.1 18.6 1.5-1.9 4.2-4.1 6.4-5.1a23.7 23.7 0 0 1 15.5-1.2"/>
      <path class="secondary" d="M245 617c-7.3 5.9-9.1 18.8-5.9 21.8 1-2.2 3.2-4.6 5.2-6.2 2-1.6 6.5-5.6 12-5.7m-24-34.6c-9.3 1.2-16.2 10.9-15 15.1 2-1.4 5.3-2.9 7.7-3.1 6-.5 10.3.9 15.1 3.7"/>
      <g>
        <path d="M347 559.6c.4 3.7-1.9 5.3-3.6 8.6-1.7 3.3-.1 8.2-4.9 11.1a81 81 0 0 0-20.6 14.8c-4.7 4.4-7.1 10.2-12.8 13.2-2.7 4.2-22.4 6.7-25.1 7.6-5.8 1.9-10.6 1.6-14.5 7.5-.6.9.6 3.6-2.8 5.9-.9.6-1.9 1.2-3 1.4-1.9.3-1.9-.2-3.9-.5-1.8-.3-1.6 0-1.8-1.9-.7-5.5-5.2-10.4-10.6-8.8-1.8.7-2.6-1.6-2.3-3.7a8.6 8.6 0 0 0-9.7-6.2c-.3-1.7-.6-6 4-8.4-.4-2.5-.9-5.2-6.2-7.9.2-1.8 1.4-4.1 6.5-4.9 5.5-.9 10 2.3 11.2 3.4 1.4 1.2 4 .8 5.4 1 4.6 0 14.2 1.8 18.3-1.4 4.6-2.9 9.1-3.7 13.7-6.6a42.5 42.5 0 0 0 12.7-24"/>
      </g>
      <g stroke="none" fill="#000">
        <path d="M295.6 559.8c.1-2.1-.5-4.2-1.5-6.3a97 97 0 0 0-3.4-6.3 39.7 39.7 0 0 1-3.1-6.6 25 25 0 0 1-1.5-7.1 27 27 0 0 0 2.2 6.8c1 2.1 2.3 4.1 3.7 6.1 1.4 2 2.8 3.9 4.1 6 1.2 2.1 2.3 4.6 2.5 7.3h-3zm317.3-31.6a17.2 17.2 0 0 1-6-6c-1.4-2.4-2.3-5-3-7.5-1.4-5.1-2-10.3-3.8-15.3 2.2 4.8 3.4 10 5.2 14.9a25 25 0 0 0 3.5 6.7 15 15 0 0 0 5.5 4.6l-1.4 2.6zm-87.4-20.7c-.7 2.5-.7 5.2-.2 7.7.5 2.5 1.3 5 2.4 7.3 2.1 4.7 5 9 8 13.2l-2.5 1.7a75.8 75.8 0 0 1-7-14.3c-.8-2.5-1.5-5.1-1.7-7.8-.2-2.6 0-5.3 1-7.8zm-192.2 19.2c.6 2.9 1.7 5.7 3.1 8.3 1.4 2.6 3 5.1 4.6 7.7 1.6 2.5 3.2 5.1 4.6 7.8 1.4 2.7 2.5 5.7 3 8.9l-3 .3c-.2-2.8-1-5.6-2-8.3a83.4 83.4 0 0 0-3.8-8 75.5 75.5 0 0 1-3.9-8.1 28.6 28.6 0 0 1-2.6-8.6zm-93.6 87.7c.3-1.2.8-2.2 1.5-3.2a10 10 0 0 1 5.7-4.2 11 11 0 0 1 3.6-.2l1.7.4 1.5.6 2.7.9c1.9.4 3.7.5 5.8.5l.1.3c-1.8 1.4-4.1 1.6-6.3 1.4-1.1-.1-2.2-.3-3.2-.7l-1.4-.5-1.3-.2a6 6 0 0 0-4.6 1.4 8.9 8.9 0 0 0-2.9 4.2l-2.9-.7zm-4.7-15.5c1.7-.7 3.6-1.1 5.5-1.1s3.8.5 5.4 1.3l1.2.6 1 .6c.4.2 1.3.3 2.1.4l2.5.2c.9.2 1.8.3 2.6 1l-.1.3c-.8 0-1.6.2-2.4.4l-2.5.3c-.9 0-1.8.1-2.9-.2l-1.3-.5-1.1-.5a11.5 11.5 0 0 0-8.8.1l-1.2-2.9zm271.7-73.3c-.5 1.4-1.4 2.6-2.5 3.7a15.2 15.2 0 0 1-7.6 4.1c-1.4.3-2.9.3-4.4 0l3.8-1.9 3.6-1.8 3.5-2 3.6-2.1zm-14 18.8a4 4 0 0 1-1.5 2.1c-.6.6-1.4 1-2.2 1.3-.8.3-1.7.5-2.5.5-.9 0-1.7-.2-2.5-.6a11 11 0 0 1 2.3-.9l2.1-.8 2.1-.8a71 71 0 0 0 2.2-.8zm-13.1 13a12 12 0 0 1-6.6 3.7c-1.3.3-2.6.3-3.9.2a8 8 0 0 1-3.7-1.1l3.7-.5 3.5-.6 3.5-.8 3.5-.9zm-137.2-23.7c-.3-1.4-.1-2.9.5-4.2a10.5 10.5 0 0 1 6-5.9c1.3-.5 2.8-.7 4.2-.4-1.3.5-2.5 1.1-3.5 1.8-1.1.7-2 1.5-2.9 2.3-.9.9-1.7 1.8-2.4 2.9-.8 1.1-1.3 2.2-1.9 3.5z"/>
        <g>
          <path d="M368.8 495.7c2.1-.8 4.2-1.4 6.4-1.8a72.5 72.5 0 0 1 13.1-1c2.2.1 4.4.4 6.6.9a73.5 73.5 0 0 1-13 1.7 70.7 70.7 0 0 1-13.1.2zm39.5-6.3c.9-.4 1.8-.6 2.7-.8l2.6-.3 2.6.1a9 9 0 0 1 2.7.7 8.5 8.5 0 0 1-5.2 1.7l-2.7-.3c-1-.2-1.9-.5-2.7-1.1zm24.6-4.4c1.1-.6 2.2-.9 3.4-1.1 1.1-.2 2.3-.3 3.4-.2 1.1 0 2.3.2 3.4.5s2.2.7 3.2 1.5a21.5 21.5 0 0 1-6.7.5l-3.3-.3-3.4-.9zm26.5-4.4c.9-.7 1.8-1.2 2.8-1.5l3-.6a10.8 10.8 0 0 1 6.1 1.3 17.1 17.1 0 0 1-5.9 1.3h-2.9c-1-.1-2-.2-3.1-.5zM487 473a18.7 18.7 0 0 1 13.6 0 18.7 18.7 0 0 1-13.6 0zm30.6-4.7c1.3-.5 2.6-.5 3.9-.5 1.3.1 2.6.4 3.8.8 1.2.4 2.4 1.1 3.5 1.8 1 .8 2 1.7 2.7 2.9-1.3-.3-2.5-.8-3.6-1.2l-3.4-1.2-3.4-1.2c-1.1-.4-2.3-.8-3.5-1.4zm30.7 4.4c1.4-1 3-1.5 4.7-1.9a17.5 17.5 0 0 1 10 1.1c1.5.7 3 1.6 4.2 2.8l-4.8-.9-4.6-.7c-1.5-.2-3.1-.3-4.6-.3l-4.9-.1zm35.7 6.2a5 5 0 0 1 2.6-.9c.9-.1 1.8 0 2.7.2.9.2 1.7.6 2.4 1.1.7.5 1.4 1.2 1.8 2.1-1 0-1.8-.1-2.6-.3l-2.3-.5-2.3-.7-2.3-1zm28.9 5a17.3 17.3 0 0 1 12.8 0 17.3 17.3 0 0 1-12.8 0zm32.3 3c1.1-.7 2.2-1.1 3.4-1.4 1.2-.3 2.3-.6 3.5-.7 1.2-.2 2.4-.2 3.6-.2 1.2 0 2.4.1 3.7.5-1.1.7-2.2 1.1-3.4 1.4-1.2.3-2.3.6-3.5.7-1.2.2-2.4.2-3.6.2a22 22 0 0 1-3.7-.5zm27.6-6.6a17.4 17.4 0 0 1 5.6-3.8l3-1.3a12 12 0 0 1 3.4-.8c-.7 1-1.5 1.8-2.4 2.5a17.5 17.5 0 0 1-6.1 3c-1.2.3-2.3.5-3.5.4zm23.5-8.6c-.7-1-.9-2.1-.9-3.3 0-1.1.3-2.3.9-3.3.5-1 1.3-1.9 2.2-2.6a6 6 0 0 1 3.2-1.2l-1.8 2.5-1.4 2.4-1.1 2.5-1.1 3zm24-40.7c-.6-.8-.9-1.8-.9-2.7a15.5 15.5 0 0 1 1.2-5l1-2.4c.6.8.9 1.8.9 2.7a15.5 15.5 0 0 1-1.2 5l-1 2.4zm-9.2 21c-.2-1-.1-2 .2-2.9.3-.9.9-1.7 1.4-2.3.5-.7 1.1-1.2 1.7-1.8l1.9-1.8c.3 1 .1 2-.2 2.9-.3.9-.9 1.7-1.4 2.3-.5.7-1.1 1.2-1.7 1.8l-1.9 1.8zm8.4-47.2a10.4 10.4 0 0 1-3.5-5.5 11.3 11.3 0 0 1 0-6.5c.6 1 1 2 1.4 2.9a33.2 33.2 0 0 1 2.1 9.1zM702 375.5c-1.4 0-2.8-.4-4.1-.9a19 19 0 0 1-6.8-4.8 12 12 0 0 1-2.2-3.6l3.5 2.1 3.2 2.2 3.2 2.3 3.2 2.7zm-28.2-18c-1.3.9-2.8 1.4-4.3 1.7a15 15 0 0 1-4.7-.2c-1.5-.4-3-1-4.3-1.9-1.3-.9-2.4-2-3.1-3.4l4.1 1.7a50 50 0 0 0 8.1 1.9l4.2.2zm-34.2-6.5c-1.2.6-2.4.9-3.6 1a15.3 15.3 0 0 1-7.3-1.1c-1.1-.5-2.2-1.1-3.2-2.1a15 15 0 0 1 3.7.2l3.5.4 3.4.6c1.1.3 2.3.5 3.5 1zm-31-4.7c-1.2.7-2.5 1.1-3.8 1.4a14 14 0 0 1-8-1.2c-1.2-.6-2.4-1.4-3.3-2.4l3.9.5 3.6.6 3.7.5 3.9.6zm-28.9-3.3a14 14 0 0 1-4 1.1c-1.4.2-2.7.1-4.1 0a18 18 0 0 1-4-1 11 11 0 0 1-3.6-2.1c1.4-.1 2.7.1 4 .2l3.8.4 3.8.5 4.1.9zm-27.8-4.1a14 14 0 0 1-4 1.1c-1.4.2-2.7.1-4.1 0a18 18 0 0 1-4-1 11 11 0 0 1-3.6-2.1c1.4-.1 2.7.1 4 .2l3.8.4 3.8.5c1.5.3 2.8.5 4.1.9zm-24.7-5.1a11 11 0 0 1-3.5 1.1c-1.2.2-2.4.2-3.6 0a14 14 0 0 1-3.5-1 9.8 9.8 0 0 1-3-2c1.3-.1 2.4 0 3.6.1l3.3.5 3.3.5c1.1.1 2.2.4 3.4.8zm-26.2-4.5a11.7 11.7 0 0 1-7.2.4 14 14 0 0 1-3.4-1.3c-1.1-.6-2.1-1.3-2.9-2.2a39.6 39.6 0 0 1 6.9 1.2l3.3.9c1.1.1 2.2.5 3.3 1zm-62-23c-.9.5-2.1.5-3.1.3-1-.3-2-.8-2.8-1.4a7.1 7.1 0 0 1-2.7-5.2 23 23 0 0 1 2.3 1.7l2 1.6 2 1.6c.7.3 1.4.8 2.3 1.4zm15.1 10.1c-.8.7-1.9 1-2.9 1a6 6 0 0 1-3-.7c-.9-.4-1.8-1-2.5-1.7a5.3 5.3 0 0 1-1.5-2.6l2.7 1 2.4 1.1 2.3 1 2.5.9zm20.8 6.5c-.7.8-1.7 1.3-2.8 1.4a8.2 8.2 0 0 1-5.8-1.7 4.8 4.8 0 0 1-1.8-2.4l2.8.7 2.5.8 2.4.7 2.7.5zm-55.7-46.5a9.7 9.7 0 0 1-1.5-2.6c-.3-.9-.5-1.9-.5-2.9-.1-1 0-1.9.2-2.9s.5-1.9 1.2-2.8a17.2 17.2 0 0 1 1.1 5.5v2.7c-.1 1-.2 2-.5 3zm6.7 17.7a9 9 0 0 1-4.3-3.9 11 11 0 0 1-1.2-2.7c-.3-.9-.4-1.9-.3-3a18.8 18.8 0 0 1 3.6 4.4l1.3 2.4c.3.9.7 1.7.9 2.8zm-6.7-36.7a7.4 7.4 0 0 1-.7-3.2c0-1.1.2-2.2.6-3.3a9 9 0 0 1 1.8-2.8c.8-.8 1.7-1.4 2.8-1.8-.3 1.1-.8 2-1.2 2.9l-1.1 2.6-1 2.7c-.3.9-.6 1.9-1.2 2.9zm26.2-24.1c.5-1.1 1.1-2 2-2.9.9-.8 1.9-1.5 3.1-1.8a10.2 10.2 0 0 1 6.9.2c-1 .6-2.1 1-3.1 1.3l-2.9.9-2.8 1.1c-1.1.4-2.1.9-3.2 1.2zm-16.8 7.6c.2-1.2.6-2.3 1.2-3.3s1.5-1.9 2.5-2.5c1-.6 2.1-1 3.2-1.3 1.1-.2 2.2-.3 3.4-.2-.9.8-1.8 1.4-2.7 2l-2.6 1.6-2.4 1.7c-.7.7-1.6 1.4-2.6 2zm38.1-12.7c.9-1 2-1.7 3.2-2.2 1.2-.5 2.4-.9 3.7-1.1a12.1 12.1 0 0 1 7.4 1.2l-3.6.7-3.5.5-3.5.5a22 22 0 0 1-3.7.4zm26.8-3a17 17 0 0 1 7-1.3 19.8 19.8 0 0 1 7 1.3 17 17 0 0 1-7 1.3 19.8 19.8 0 0 1-7-1.3zm25.8-1.6c1.5-.8 3.1-1.3 4.7-1.5a20.1 20.1 0 0 1 9.7.8c1.5.6 3 1.3 4.3 2.3l-4.8-.4-4.6-.5-4.6-.4-4.7-.3zm34.5.8a18.7 18.7 0 0 1 13.6 0 18.7 18.7 0 0 1-13.6 0zm24.3-1.7a33.7 33.7 0 0 1 10.2-3.1c1.2-.1 2.4-.2 3.7-.1-1 .9-2 1.5-3.1 2a23 23 0 0 1-3.4 1.2c-1.2.3-2.4.4-3.6.5-1.4 0-2.6-.1-3.8-.5zm29.7-3 2.9-1 2.7-.9 2.7-.9 3-.9a5.7 5.7 0 0 1-2 2.6 8.8 8.8 0 0 1-6.1 2c-1.1 0-2.2-.3-3.2-.9zM352.3 493.2a34 34 0 0 1-18 0 34 34 0 0 1 18 0zm-28.3-6.7c-1.5.6-3.1.9-4.6 1.1a21.3 21.3 0 0 1-9.2-1.5 14 14 0 0 1-4-2.5c1.6.1 3.1.4 4.6.6l4.4.7 4.4.7 4.4.9zm-32.9-8.4c-.6.7-1.4 1.1-2.2 1.4-.8.2-1.7.3-2.6.2-.9-.1-1.7-.4-2.4-.8a5.5 5.5 0 0 1-1.8-1.9l2.4.1 2.1.2 2.1.3c.8.1 1.5.2 2.4.5z"/>
        </g>
        <path d="M202.5 450.3a7.8 7.8 0 0 0 5-5.4c-4.3-1.9-9-2.9-13.7-3-1.5 3.1.5 6.5 2 7.6 1.8 1.6 4.4 1.7 6.7.8zm122.2 112.3-5 8.2c-.7-.8-.9-1.8-.9-2.8 0-1 .3-2 .9-2.8a6 6 0 0 1 2.1-2.1 4 4 0 0 1 2.9-.5zm-49.4 35.7c2.2-1.1 4.3-1.9 6.5-2.9l6.4-2.8h.1c.5-.2 1.1 0 1.3.5.2.4 0 .9-.4 1.2-1.2.8-2.3 1.8-3.5 2.8-1.2 1-2.5 2-4.1 2.4 1.2-1 2.2-2.2 3.1-3.3 1-1.2 2-2.4 3.3-3.4l1 1.7-3.3 1.5-3.4 1.2c-2.3.5-4.6 1-7 1.1zm309.2-7.4 3.2-1.6 2.9-1.9c.9-.7 1.9-1.4 2.7-2.2l2.7-2.3c.4-.4 1-.3 1.4.1.3.3.3.7.1 1.1a24.7 24.7 0 0 1-9.1 10.4c1.5-1.8 2.8-3.6 4.1-5.4a47 47 0 0 0 3.2-5.8l1.5 1.2a36.8 36.8 0 0 1-9.2 5.7c-1 .4-2.2.7-3.5.7zm30.7-45.5c.3 1.1.4 2.1.5 3.1l.2 2.8v2.8l-.3 3.1a6.3 6.3 0 0 1-2-2.6 8.8 8.8 0 0 1-.2-6.4c.3-1 .9-2 1.8-2.8zm-47.4 3.4c2.1.1 4 .2 5.8.1a48.7 48.7 0 0 0 10.8-2c1.8-.6 3.5-1.4 5.4-2.2-1 1.8-2.6 3.2-4.4 4.3a15.8 15.8 0 0 1-5.8 2.2c-2.1.4-4.2.4-6.2 0-2-.3-4-1.1-5.6-2.4z"/>
        <g>
          <path d="M384.2 441.3c5 4.1 8.9 9.2 12 14.7 3 5.5 5.2 11.4 6.6 17.5a64 64 0 0 0-7.9-16.7 48.8 48.8 0 0 0-12.5-13.1l1.8-2.4zm26.8-3.1c2.5 1.7 4.7 3.7 6.7 5.8a60.5 60.5 0 0 1 9.8 14.3c1.2 2.6 2.3 5.3 2.9 8.1a48.8 48.8 0 0 0-14.3-20.9 34.8 34.8 0 0 0-6.7-4.9l1.6-2.4zm28.1-3.5c2.4 1.9 4.3 4.2 5.8 6.7 1.6 2.5 2.8 5.1 3.9 7.7l3.2 7.9c1.1 2.6 2.2 5.2 3.7 7.5-1.8-2.2-3.1-4.7-4.4-7.2l-3.8-7.5a41.4 41.4 0 0 0-4.4-7 22.8 22.8 0 0 0-5.7-5.5l1.7-2.6zm29.8-3.1c2.2 1.7 3.9 3.9 5.3 6.1 1.4 2.2 2.6 4.6 3.7 6.9 1.1 2.3 2.1 4.7 3.3 6.9a39 39 0 0 0 4 6.5c-1.8-1.8-3.3-4-4.6-6.1l-4-6.6a69 69 0 0 0-4.2-6.3c-1.5-2-3.2-3.7-5.2-5l1.7-2.4zm-110.4 13.8c3.4 3.5 6.4 7.4 8.8 11.6 2.4 4.2 4.1 8.8 5 13.4a51.2 51.2 0 0 0-15.8-22.8l2-2.2zm-26-.2c3 3.3 5.3 6.9 7.3 10.7 2 3.8 3.6 7.7 5.1 11.7-1.9-3.8-4-7.5-6.3-10.9-2.4-3.5-5-6.7-8.1-9.3l2-2.2zm217.2-13.4c4.2 2.9 7.4 6.9 9.8 11.1 2.4 4.3 4.1 8.8 5.8 13.3a95.3 95.3 0 0 0-7-12.5 30.2 30.2 0 0 0-10.1-9.4l1.5-2.5zm26.9 6a42.4 42.4 0 0 1 8.4 10.3c2.3 3.7 4.2 7.7 5.3 11.8a44 44 0 0 0-6.6-11 41.2 41.2 0 0 0-9-8.7l1.9-2.4zm31.3 8.2c1.9 1.7 3.4 3.7 4.8 5.7a79.3 79.3 0 0 1 8.6 19.6 70.1 70.1 0 0 0-10.5-18.2 30.3 30.3 0 0 0-4.8-4.7l1.9-2.4zm-88.2-17.1a91 91 0 0 1 10.7 10.8c3.2 3.9 5.9 8.3 7.5 13.1a43.4 43.4 0 0 0-8.7-12.1 94.1 94.1 0 0 0-11.4-9.5l1.9-2.3zm-24.8 1 4.6 6.4c1.6 2.1 3.1 4.3 4.6 6.6a53 53 0 0 1 3.8 7c1.1 2.4 1.9 5 2.2 7.6a27 27 0 0 0-2.8-7.3 57 57 0 0 0-9.5-12.5l-5.2-6 2.3-1.8zm-188.2 11.6a43.7 43.7 0 0 1 7.8 23.3c-.6-4-2-7.8-3.7-11.4a39.1 39.1 0 0 0-6.4-9.9l2.3-2zm-26.9-4.1c3.2 2.4 5.9 5.6 7.6 9.1 1.8 3.5 2.7 7.4 2.5 11.2a22.8 22.8 0 0 0-11.7-17.8l1.6-2.5zm-25.8-3.9a30.2 30.2 0 0 1 7.7 8.3c1 1.6 1.7 3.4 2.3 5.1l1.6 5.3-2.3-5c-.8-1.6-1.8-3.2-2.9-4.6a30 30 0 0 0-8.2-6.8l1.8-2.3zm252.4-233.6a30.7 30.7 0 0 1 6.8 19c-1-6.6-4.3-12.7-9-16.9l2.2-2.1zm29.3-.5c2.2 2.8 3.5 6 4.4 9.1 1 3.1 1.7 6.3 2.7 9.4-1.5-2.9-2.7-6-4.1-8.9a26.4 26.4 0 0 0-5.3-7.7l2.3-1.9zm29.6 2.2a47 47 0 0 1 2.9 7.9c.7 2.7 1.3 5.3 1.8 8-1-2.5-2-5-3.2-7.5-1.2-2.4-2.4-4.8-4-6.8l2.5-1.6zm27.1-.6a21.9 21.9 0 0 1 6.7 15.9 20.2 20.2 0 0 0-8.6-13.5l1.9-2.4zm30.7.1c1.9 4.6 2.1 9.7.9 14.2.2-4.7-1.1-9.2-3.5-12.8l2.6-1.4zm-143.3-1.3c1.4 3.2 2.8 6.4 3.9 9.8 1.1 3.4 1.7 6.8 2 10.3-.7-3.4-1.9-6.7-3.4-9.7-1.5-3.1-3.4-6-5.2-9l2.7-1.4zm-28.2 2.5a27 27 0 0 1 7.2 19.6 26 26 0 0 0-9.3-17.4l2.1-2.2zm-27.8 8a38 38 0 0 1 11.1 15.1 36.5 36.5 0 0 0-12.9-12.7l1.8-2.4zm-21.4 18.1c2 .4 3.8 1.3 5.4 2.4 1.6 1 3 2.3 4.4 3.4 1.4 1.2 2.7 2.4 4.2 3.4s3.1 1.9 4.8 2.3c-1.8-.2-3.6-.9-5.2-1.7-1.6-.8-3.2-1.8-4.7-2.8-1.5-1-3-1.9-4.6-2.7-1.6-.7-3.1-1.2-4.7-1.4l.4-2.9zM423.3 334c.3-2.3 1.1-4.3 1.9-6.2a37 37 0 0 1 7.1-10.3 18 18 0 0 1 5-3.7 17.6 17.6 0 0 0-4.4 4.2 37.6 37.6 0 0 0-5.5 10.6 19 19 0 0 0-1 5.6l-3.1-.2zm-23-20.9a47.7 47.7 0 0 1 17.3-12.3c-6 3.6-11.1 8.5-14.9 14.1l-2.4-1.8zm-11.2-24.6a21.8 21.8 0 0 1 17.6-7.2c-6.3.5-12.1 4.1-15.2 9l-2.4-1.8zm-.1-32.2c7.4-.2 14.7 1.1 21.4 3.7-7-1.7-14.2-1.9-21.1-.7l-.3-3zm251.8 198.5c.5.3 1.1.7 1.4 1.1l.6.6.5.6a22 22 0 0 1 1.7 2.5c1 1.7 1.8 3.4 2.6 5.1l2.2 5.2 2.2 5.2a122.5 122.5 0 0 1-5.7-9.6 74 74 0 0 0-3.1-4.6l-1.7-2c-.6-.6-1.3-1-1.8-1.3l1.1-2.8zM447.2 346.9a52.7 52.7 0 0 1 2.7-14c.8-2.2 1.8-4.3 3-6.3s2.8-3.8 4.7-5.1c-1.8 1.5-3 3.4-4 5.5a34.8 34.8 0 0 0-3.4 13.1c-.2 2.2-.3 4.5 0 6.6l-3 .2zm25.9 8.3a54.5 54.5 0 0 1 .9-13.9c.5-2.3 1.2-4.5 2.2-6.6 1-2.1 2.3-4 4-5.5a16.8 16.8 0 0 0-3.3 5.8 37.4 37.4 0 0 0-1.5 13.2c.1 2.2.4 4.4.7 6.6l-3 .4zm28.2 6.6a62.7 62.7 0 0 1 2.6-20.3c.8-2.1 1.8-4.2 3.1-6a29.4 29.4 0 0 0-3.4 12.8c-.3 4.4 0 8.9.6 13.2l-2.9.3zm25.2 4.2a68.7 68.7 0 0 1 1.2-13c.3-2.1.7-4.3 1.3-6.4.6-2.1 1.3-4.2 2.4-6a44.8 44.8 0 0 0-2.1 12.6c-.1 2.1-.1 4.3 0 6.4l.4 6.3-3.2.1zm27.2 4.1a61.7 61.7 0 0 1 4.7-24.4 59.8 59.8 0 0 0-1.8 24l-2.9.4zm27.3 4.3a45.2 45.2 0 0 1 1.2-12.6c.4-2.1 1-4.1 1.6-6.1.7-2 1.5-3.9 2.5-5.7-.8 1.9-1.4 3.9-1.8 5.9-.4 2-.7 4-.9 6.1-.2 2-.2 4.1-.2 6.1s.2 4 .5 6l-2.9.3zm30.9 5.1a45 45 0 0 1 3.2-19.1c.8-2 1.8-3.9 3.2-5.5-1.2 1.7-2 3.7-2.5 5.7-.6 2-.9 4.1-1.2 6.1a43.6 43.6 0 0 0 .2 12.2l-2.9.6zm27.7 4.1c0-2.4.3-4.5.8-6.7a50.3 50.3 0 0 1 4.7-12.2 22 22 0 0 1 4-5.1 20.1 20.1 0 0 0-3.3 5.4 38.6 38.6 0 0 0-3.2 18.3l-3 .3zm23.9 5.4c1.5-3.5 3.2-6.9 5.3-10a35 35 0 0 1 7.5-8.3 35 35 0 0 0-6.2 9.1 63.7 63.7 0 0 0-3.8 10.3l-2.8-1.1zm18.9 10.6c3.2-2.6 6.7-4.9 10.5-6.4s7.9-2.1 11.9-2c-4 .4-7.9 1.5-11.3 3.4a37.5 37.5 0 0 0-9.1 7.3l-2-2.3zm5.6 19.9a27.4 27.4 0 0 1 12.6-1.3 36 36 0 0 1 11.7 4 35.1 35.1 0 0 0-11.8-2.5c-4-.1-7.8 1-11.4 2.6l-1.1-2.8zm-4.8 18.8a24.1 24.1 0 0 1 12.6 9.2c.9 1.5 1.7 3.1 2 4.7-.6-1.6-1.5-3-2.6-4.3a21.3 21.3 0 0 0-12.6-6.7l.6-2.9zM667 450.9c2.6 2.2 4.9 4.7 6.6 7.6 1.8 2.8 2.9 6 3.5 9.2-1-3.1-2.6-5.9-4.7-8.3a29.5 29.5 0 0 0-7.2-6l1.8-2.5z"/>
        </g>
        <path d="M124.5 437.4c3.1.9 6.1 1.3 9.1 1.4 3.1.1 6.1-.1 9.2-.3 3.1-.1 6.3-.3 9.5 0s6.4 1.1 9.2 2.7c-3.1-.7-6.2-.9-9.2-.8l-9.3.5c-3.1.1-6.4.2-9.6-.3-3.1-.3-6.3-1.4-8.9-3.2zm63.1 75c3.1-.9 6.4-1 9.6-.9 3.2.1 6.4.6 9.5.9 1.5.2 3.1.3 4.6.3h4.6c3.1-.2 6.1-.8 9-2.1a17.8 17.8 0 0 1-8.8 4 35 35 0 0 1-9.7.2l-9.4-1.4a73 73 0 0 0-9.4-1z"/>
      </g>
      <path fill="none" d="M205.8 468.9c2.8 1.5 5.4 3.5 7.5 5.8m3.5 3.1a16 16 0 0 1 9.7 2.7"/>
      <g>
        <path stroke="none" fill="#000" d="M192.1 436.7a59 59 0 0 1 20.5-.2c3.4.7 6.8 1.8 9.8 3.4 3.1 1.6 5.9 3.7 8.1 6.4a45.3 45.3 0 0 0-18.4-7.9c-3.3-.7-6.6-1-10-1.3l-10-.4z"/>
      </g>
    </g>
  </g>
</svg>
