<svg xmlns="http://www.w3.org/2000/svg" fill="#d7374a" stroke="#000" viewBox="50 50 200 200"><metadata author="Gothika" license="https://creativecommons.org/publicdomain/zero/1.0" source="https://en.wikipedia.org/wiki/File:Triquetra-Cross.svg"/><g id="crossCarolingian" stroke-width=".32"><path d="M84.44 63.48a21 21 0 00-3.46.28c-.96.18-.91.2-.61 1.06 2.78 7.45 8.83 11.7 15.4 13.02a20.7 20.7 0 00-1.17 6.6c0 4.65 1.57 8.91 4.15 12.39-.6.69-1.23 1.32-1.92 1.92a20.77 20.77 0 00-12.4-4.15c-2.31 0-4.5.47-6.59 1.17-1.33-6.57-5.57-12.62-13.02-15.4-.93-.35-.9-.32-1.06.6A20.83 20.83 0 0070.52 100a20.83 20.83 0 00-6.76 19.03c.17.95.2.88 1.06.61 7.45-2.78 11.7-8.83 13.02-15.4a20.7 20.7 0 006.6 1.17c4.65 0 8.91-1.57 12.39-4.15.69.6 1.32 1.23 1.92 1.92a20.77 20.77 0 00-4.15 12.4c0 2.31.47 4.5 1.17 6.59-6.57 1.33-12.62 5.57-15.4 13.02-.42.97-.37.9.6 1.06a20.83 20.83 0 0019.02-6.76 20.83 20.83 0 0019.03 6.76c.97-.15.89-.19.61-1.06-2.78-7.45-8.83-11.7-15.4-13.02a20.7 20.7 0 001.17-6.6c0-4.65-1.57-8.91-4.15-12.39.6-.69 1.23-1.32 1.92-1.92a20.77 20.77 0 0012.4 4.15c2.31 0 4.5-.47 6.59-1.17 1.33 6.57 5.57 12.62 13.02 15.4.95.42.89.35 1.06-.6a20.83 20.83 0 00-6.76-19.02 20.83 20.83 0 006.76-19.03c-.06-1-.18-.84-1.06-.61-7.45 2.78-11.7 8.83-13.02 15.4a20.7 20.7 0 00-6.6-1.17c-4.65 0-8.91 1.57-12.39 4.15-.69-.6-1.32-1.23-1.92-1.92a20.77 20.77 0 004.15-12.4c0-2.31-.47-4.5-1.17-6.59 6.57-1.33 12.62-5.57 15.4-13.02.32-.92.3-.9-.6-1.06A20.83 20.83 0 00100 70.52a20.83 20.83 0 00-15.57-7.04zm0 1.95c5.74 0 10.82 2.6 14.3 6.61A20.86 20.86 0 0096.42 76a18.24 18.24 0 01-13.55-10.43c.52-.04 1.05-.13 1.58-.13zm31.12 0c.53 0 1.06.09 1.58.13A18.24 18.24 0 01103.6 76a20.86 20.86 0 00-2.34-3.95c3.58-4.19 8.8-6.6 14.31-6.61zM100 73.56c.6.85 1.09 1.77 1.54 2.71-1.24.14-2.05.2-3.08 0 .45-.94.94-1.86 1.54-2.7zm-2.29 4.56c1.59.31 2.99.23 4.58 0 .7 1.98 1.15 4.09 1.15 6.32 0 4.05-1.28 7.79-3.44 10.87a18.89 18.89 0 01-3.44-10.87c0-2.23.45-4.34 1.15-6.32zm-32.15 4.74A18.24 18.24 0 0176 96.4c-1.4.63-2.72 1.42-3.95 2.34a18.87 18.87 0 01-6.61-14.31c.02-.54.08-1.14.12-1.57zm68.88 0c.04.52.13 1.05.13 1.58 0 5.74-2.6 10.82-6.61 14.3a20.86 20.86 0 00-3.95-2.33 18.24 18.24 0 0110.43-13.55zm-50 13.7c4.05 0 7.79 1.28 10.87 3.44a18.9 18.9 0 01-10.87 3.44c-2.23 0-4.34-.45-6.32-1.15a22.6 22.6 0 000-4.58c1.98-.7 4.09-1.15 6.32-1.15zm31.12 0c2.23 0 4.34.45 6.32 1.15-.3 1.63-.2 3.09 0 4.58-1.98.7-4.09 1.15-6.32 1.15A18.9 18.9 0 01104.7 100a18.89 18.89 0 0110.87-3.44zM100 98.35a21.4 21.4 0 001.65 1.65 21.4 21.4 0 00-1.65 1.65 20.94 20.94 0 00-1.65-1.65 21.4 21.4 0 001.65-1.65zm-23.73.11c.17 1.2.18 2.08 0 3.08-.94-.45-1.86-.94-2.7-1.54.84-.6 1.76-1.09 2.7-1.54zm47.46 0c.94.45 1.86.94 2.7 1.54-.84.6-1.76 1.09-2.7 1.54-.13-.98-.18-2.08 0-3.08zm-51.69 2.8c1.23.9 2.53 1.7 3.95 2.33a18.24 18.24 0 01-10.43 13.55c-.04-.52-.13-1.05-.13-1.58 0-5.74 2.6-10.82 6.61-14.3zm55.92 0c4.18 3.57 6.6 8.8 6.61 14.3 0 .53-.09 1.06-.13 1.58A18.24 18.24 0 01124 103.6c1.4-.63 2.72-1.42 3.95-2.34zM100 104.68a18.9 18.9 0 013.44 10.87c0 2.23-.45 4.34-1.15 6.32-1.8-.2-3.05-.14-4.58 0a18.89 18.89 0 01-1.15-6.32c0-4.05 1.28-7.79 3.44-10.87zm1.54 19.04c-.45.94-.94 1.86-1.54 2.7-.6-.84-1.09-1.76-1.54-2.7a10.7 10.7 0 013.08 0zm-5.13.28c.63 1.4 1.42 2.72 2.34 3.95a18.87 18.87 0 01-14.31 6.61c-.53 0-1.06-.09-1.58-.13 2.5-5.5 7.58-9.41 13.54-10.43zm7.18 0a18.24 18.24 0 0113.55 10.43c-.52.04-1.05.13-1.58.13-5.74 0-10.82-2.6-14.3-6.61.9-1.23 1.7-2.53 2.33-3.95z"/><path d="M124.01 103.59l-.28-2.05"/><path d="M122.18 104.33l-.28-1.97"/><path d="M127.96 101.25l1.67-1.35"/><path d="M126.55 99.92l1.4-1.17"/><path d="M123.73 98.46l.3-2.1"/><path d="M121.88 97.71l.28-1.94"/><path d="M75.99 96.41l.28 2.05"/><path d="M77.84 95.6l.28 2.11"/><path d="M72 98.76l-1.63 1.38"/><path d="M73.4 100.1l-1.36 1.15"/><path d="M76.27 101.54l-.28 2.05"/><path d="M78.12 102.29l-.28 1.94"/><path d="M96.41 124.01l2.05-.28"/><path d="M95.67 122.18l1.97-.28"/><path d="M98.75 127.96l1.35 1.67"/><path d="M100.08 126.55l1.17 1.4"/><path d="M104.23 122.16l-.64 1.85"/><path d="M102.29 121.88l-.75 1.85"/><path d="M103.59 75.99l-2.05.28"/><path d="M104.33 77.82l-1.97.28"/><path d="M101.25 72.04l-1.35-1.67"/><path d="M99.92 73.45l-1.17-1.4"/><path d="M95.77 77.84l.64-1.85"/><path d="M97.71 78.12l.75-1.85"/><path d="M98.75 103.17l1.25-1.52"/><path d="M101.25 103.17l-1.25 1.52"/><path d="M101.25 96.83L100 98.35"/><path d="M100 95.31l-1.25 1.52"/><path d="M95.31 100l1.52 1.25"/><path d="M96.83 98.75l1.52 1.25"/><path d="M101.65 100l1.52 1.25"/><path d="M103.17 98.75l1.52 1.25"/></g></svg>