<svg xmlns="http://www.w3.org/2000/svg" fill="#d7374a" stroke="#000" viewBox="50 50 200 200">
  <metadata author="Azgaar" license="https://creativecommons.org/publicdomain/zero/1.0"/>
  <g id="crossClechy" stroke-width=".5">
    <path d="M 96.9,103.1 C 97,112 92,122 87,127 c 5.2,2.3 11,8 13,15 2,-7 7.8,-12.7 13,-15 -5,-5 -10,-15 -9.9,-23.9 8.9,-0.1 19.9,4.9 24.9,9.9 2,-5 8,-11 15,-13 -7,-2 -13,-8 -15,-13 -5,5 -16,10 -24.9,9.9 C 103,88 108,78 113,73 108,71 102,65 100,58 98,65 92,71 87,73 92,78 97,88 96.9,96.9 88,97 78,92 73,87 c -2,5 -8,11 -15,13 7,2 13,8 15,13 7,-5 15,-10 23.9,-9.9 z"/>
  </g>
</svg>
