<svg xmlns="http://www.w3.org/2000/svg" fill="#d7374a" stroke="#000" viewBox="50 50 200 200">
  <metadata source="http://wappenwiki.org/images/b/b0/Eichst%C3%A4tt.svg" license="https://creativecommons.org/licenses/by-nc-sa/3.0"/>
  <g id="crosier" stroke-width=".28">
    <path d="M105.7 72.4c-.4 1-1 1.8-1.8 2.4-.74.4-1.28.15-1.9 0-.3-.1-.6 0-.7.3s0 .6.2.7l-1.2.1c-.6 0-1.1 0-1.6-.2a2 2 0 01-.9-1.3v-.3c-.1-.2-.4-.4-.7-.3-.2 0-.3.1-.4.3a4.7 4.7 0 01-.7-2.2v-.4a4 4 0 01.5-1.6c.2-.3.6-.5 1-.5h.3c.3 0 .5-.3.5-.5s-.2-.4-.5-.5a3.6 3.6 0 012.4-.4c.5 0 .7.4.9 1v.2c0 .3.3.4.6.4.2 0 .4-.3.4-.6 1.22 1.68-.07 4.4-2.2 3.6l-.42-.08A1.74 1.74 0 00100.6 71c0-1-.8-1.6-1.7-1.6s-1.8.8-1.8 1.8c0 1.8 1.7 3 3.3 3 2.05-.24 3.58-1.54 3.5-3.5a4 4 0 00-.6-2.1c.3 0 .5-.3.5-.5 0-.3-.3-.5-.5-.6h-.3c-.3 0-.6 0-.9-.2a4 4 0 00-.4-.2 4.4 4.4 0 00-2.1-.6c-.96 0-1.9.27-2.7.8v-.1c0-.3-.3-.5-.6-.5-.2 0-.5.2-.5.5v.2c0 .5-.4 1-.5 1.3a5.3 5.3 0 00-1 2.7v1a6.5 6.5 0 001.3 3.3c-.3 0-.5.3-.5.6s.3.5.6.5h.3c.4-.1 1 .2 1.2.3.62.36 1.3.6 2 .7l.6.1h.5l2-.1c-.11.96 1 .98 1 .2.36-.47.89-.75 1.4-1.1a7.5 7.5 0 003.1-3.6z"/>
    <path d="M109.5 72.8c-.2-.1-.5 0-.7-.2-.4-.1-.5-.8-.4-1.2a8.7 8.7 0 000-2.9c-.2-1.5-.9-3-1.9-4.2.3 0 .6-.4.6-.7s-.4-.6-.7-.6h-.3c-.6.1-1.3-.3-1.6-.5a9.3 9.3 0 00-3.5-1.3l-1.3 1.6.8 1.3c.55.07 1.08.2 1.6.4.4 0 .8.5 1 1.3v.3c.2.3.6.5.9.4.2 0 .4-.3.5-.5.7.8 1.2 1.8 1.4 3l.1 1.2c0 .2 0 .4-.2.5-.4.2-.6 0-.8 0h-.2c-.4.5-.1 1.5.3 1.9.5.4 1 .3 1.6.2-.1.5 0 1 .3 1.5.5.6 2 .6 2-.4.7.1 1.2-.8.5-1.1z"/>
    <path d="M98.4 98v34.8l1.6 7.2 1.6-7.2V98"/>
    <path d="M102.2 86.5l-.1-.8c0-.4-.1-1.1.1-1.6l.2-.3c.1-.3 0-.7-.3-.8a.7.7 0 00-.9.2l-.1-.2a7.4 7.4 0 00-.8-1l-1.4-1c-.3-.3-.8-.9-.8-1.4v-.3c-.1-.4-.5-.6-.8-.6s-.6.4-.5.7a32.62 32.62 0 01-2.7-2.1c-.8-1-1.5-2.1-1.4-3.3 0-.3.1-.7.4-.8 0 .2.3.3.6.3.3-.2.3-.8.1-1-.2-.3-.5-.4-.9-.3-.6 0-1 .6-1 .6v-1.7c0-1 .2-1.9.6-2.7.2-.4.7-.8 1.4-1h.4c.3 0 .5-.4.5-.7s-.43-.58-.8-.5l.7-.6c.9-.6 2-1 3-1.3l1.3.1c.3.3 0 1 0 1 .64.65 1.59-.3 1.8-.8.1-.6-.2-1.3-.5-1.7.3-.1 1-.7 1.2-1.1.3-.8-.2-2.4-1.2-2-.2-.7-1.2-.8-1.2 0l.2.7c0 .4-.4.6-1 .7h-1a10.9 10.9 0 00-6.2 3.2c0-.3-.4-.6-.7-.5-.4 0-.6.4-.6.7l.1.3c.2.6-.3 1.7-.3 1.7a11.7 11.7 0 00-1.4 5.2.7.7 0 00-1 .1c-.1.3-.1.7.1.9l.3.2c.5.3.7 1.2.8 1.5.32 1.6 1 3.1 2 4.4.7 1.1 1.6 2 2.5 2.7l1.6 1.4c-.3 0-.6.4-.6.7s.4.6.7.6l.4-.1c.5-.1 1.2.3 1.6.4l.5.6c.5.7.6 1.5.6 1.8.06.83.06 1.67 0 2.5.11.47.1 1 .4 1.38l3.9-.03c.27-.25.3-.85.4-1.35-.03-1-.1-2-.2-3z"/>
    <path d="M97.5 89h5.2a.4.4 0 110 1h-5.2a.4.4 0 110-1z"/>
    <path d="M100.2 95.3c-1.4 0-2.5 1.1-2.5 2.5h4.9c0-1.4-1.1-2.5-2.4-2.5z"/>
    <path d="M102.6 98h-5.2c-.53 0-.53-.8 0-.8h5.2c.6 0 .6.8 0 .8zm-4.4 12.2c-.6 0-.6-.9 0-.9h3.4c.67 0 .7.9 0 .9h-3.4zm3.5 22.8h-3.4c-.67 0-.67-1 0-1h3.4c.67 0 .67 1 0 1z"/>
    <path d="M101.2 96.4H99a2.6 2.6 0 01-2.5-2.6v-.6c0-1.4 1.1-2.6 2.5-2.6h2.2c1.4 0 2.6 1.2 2.6 2.6v.6c0 1.4-1.2 2.6-2.6 2.6z"/>
    <path fill="none" d="M98.44 102.2h3.16m0 .9h-3.16"/>
    <path d="M96.4 93.3h7.4a.4.4 0 110 .9h-7.4a.4.4 0 110-.9z"/>
    <path fill="#000" stroke="none" d="M100.5 85.3c-2.16-4.85-7.88-6.62-8.8-11.1.09 4.28 5.98 6.52 8.8 11.1z"/>
  </g>
</svg>
