<svg xmlns="http://www.w3.org/2000/svg" fill="#d7374a" stroke="#000" viewBox="50 50 200 200">
  <metadata author="Azgaar" license="https://creativecommons.org/publicdomain/zero/1.0"/>
  <g id="crossClechy" stroke-width=".5">
    <path d="M96.9 103.1c-.3 8.7-3.5 17-8.7 22.3 5.2 2.3 9.5 7.7 11.8 14.5 2.3-6.9 6.6-12.2 11.8-14.5-5.2-5.4-8.4-13.6-8.7-22.3 8.7.3 17 3.5 22.3 8.7 2.3-5.2 7.7-9.5 14.5-11.8-6.9-2.3-12.2-6.7-14.5-11.8-5.4 5.2-13.6 8.4-22.3 8.7.3-8.7 3.5-17 8.7-22.3-5.2-2.4-9.5-7.7-11.8-14.6-2.3 6.9-6.7 12.2-11.8 14.5 5.1 5.4 8.4 13.7 8.7 22.4-8.7-.3-17-3.6-22.4-8.7-2.3 5.1-7.6 9.5-14.5 11.8 6.9 2.3 12.2 6.6 14.5 11.8 7.2-5.3 13.9-8.5 22.4-8.7z"/>
  </g>
</svg>
