<svg xmlns="http://www.w3.org/2000/svg" fill="#d7374a" stroke="#000" viewBox="50 50 200 200"><metadata author="Azgaar" license="https://creativecommons.org/publicdomain/zero/1.0"/><g id="crossErminee" stroke-width=".5"><path d="M100.1 60c-1.6 2.1-3.2 4.1-4 6.7-1.7-2.2-6.5-3.4-9.2-3.2 5 4.7 9.5 9.2 13.2 30.9 3.7-21.7 8.2-26.2 13.2-30.9-2.8-.3-7.5 1-9.2 3.2-.9-2.6-2.5-4.6-4-6.7zM63.6 86.8c-.3 2.8 1 7.5 3.2 9.2-2.5.8-4.6 2.4-6.7 4 2.1 1.6 4.1 3.2 6.7 4-2.2 1.7-3.4 6.5-3.2 9.2 4.7-5 9.2-9.5 30.9-13.2-21.7-3.7-26.2-8.2-30.9-13.2zm72.9 0c-4.7 5-9.2 9.5-30.9 13.2 21.7 3.7 26.2 8.2 30.9 13.2.3-2.8-1-7.5-3.2-9.2 2.5-.8 4.6-2.4 6.7-4-2.1-1.6-4.1-3.2-6.7-4 2.2-1.7 3.4-6.5 3.2-9.2zm-43.2 3.4c-1.7 0-3.1 1.4-3.1 3.1 0 1.7 1.4 3.1 3.1 3.1 1.7 0 3.1-1.4 3.1-3.1 0-1.7-1.4-3.1-3.1-3.1zm13.5 0c-1.7 0-3.1 1.4-3.1 3.1 0 1.7 1.4 3.1 3.1 3.1 1.7 0 3.1-1.4 3.1-3.1 0-1.7-1.4-3.1-3.1-3.1zM100 97c-1.7 0-3.1 1.4-3.1 3.1 0 1.7 1.4 3.1 3.1 3.1 1.7 0 3.1-1.4 3.1-3.1 0-1.7-1.4-3.1-3.1-3.1zm-6.7 6.8c-1.7 0-3.1 1.4-3.1 3.1 0 1.7 1.4 3.1 3.1 3.1 1.7 0 3.1-1.4 3.1-3.1 0-1.7-1.4-3.1-3.1-3.1zm13.5 0c-1.7 0-3.1 1.4-3.1 3.1 0 1.7 1.4 3.1 3.1 3.1 1.7 0 3.1-1.4 3.1-3.1 0-1.7-1.4-3.1-3.1-3.1zm-6.8 2c-3.7 21.7-8.2 26.2-13.2 30.9 2.8.3 7.5-1 9.2-3.2.8 2.5 2.4 4.6 4 6.7 1.6-2.1 3.2-4.1 4-6.7 1.7 2.2 6.5 3.4 9.2 3.2-5-4.7-9.5-9.2-13.2-30.9z"/></g></svg>