<svg xmlns="http://www.w3.org/2000/svg" fill="#d7374a" stroke="#000" viewBox="50 50 200 200"><metadata license="https://creativecommons.org/licenses/by-nc-sa/3.0" source="http://wappenwiki.org/images/1/1c/Astrakhan.svg"/><g id="crown2" stroke-width=".57"><path d="M130.07 93.52c-3.3-3-6.9-3.5-11.07-3.55-3.77-.06-7.19 2.56-10.95 1.67-3.11-.72-5.53-3.61-8.68-4.1-3.69-.6-7.03 2.22-10.66 3.1-3.8.9-7.22-1.19-10.87-.73-3.23.4-6.55 1.77-8.99 4.05-3.68 3.44-3.53 9.65-1.8 14.51 1.75 4.87 4.73 9.2 5.95 14.25l26.63-.19 26.64-.19c1.16-5.05 4.1-9.44 5.78-14.32 1.69-4.89 1.76-11.12-1.98-14.5z"/><path d="M75.18 135.43c2.07-.45 13.47-1.21 24.95-1.21 11.4 0 22.82.74 24.95 1.21-1.32 0-8.2 1.37-24.95 1.37-16.76 0-23.7-1.37-24.95-1.37z"/><g fill="#f2bc51" stroke-width="3" transform="matrix(.19 0 0 .19 22 46)"><path d="M254.4 356.9c-8.8-11-15.9-23.2-20.9-36.3-5.1-13.1-7.8-27.3-7.8-41.6-.1-14.3 3.5-28.9 10-41.9 1.5-3.3 3.7-6.3 5.5-9.4 2-2.9 4.1-5.7 6.3-8.4 4.4-5.4 9.4-10.5 14.7-15 10.6-9.1 22.8-16.2 35.6-21.4 6.4-2.6 12.9-4.6 19.5-6.3 6.6-1.6 12.9-2.9 19.4-4.1 25.8-4.7 52.1-6.8 78.4-6.1l-.3 16.6c-25-.1-50.1 2.5-74.6 7.5-6.1 1.2-12.3 2.7-18.1 4.3-5.8 1.6-11.5 3.5-16.9 5.9-10.9 4.7-21 11-29.7 18.8-4.3 3.9-8.3 8.2-11.9 12.8-1.8 2.3-3.4 4.7-5.1 7.1-1.3 2.5-2.9 4.7-4 7.3-4.7 10-7.3 21.1-6.9 32.4.3 22.7 10.3 45.3 25.1 63l-18.3 14.8z"/><path d="M415.3 347s4.7 40 38 40c28 0 50.5-29.7 50.5-29.7s4.7 37.5 37.2 37.5c18.6 0 44.7-36.6 44.7-36.6s-19.7 61.1-25.5 99.3l-149.9-6.7-149.9 6.7c-5.8-38.3-25.5-99.3-25.5-99.3s26.1 36.6 44.7 36.6c32.7 0 37.2-37.5 37.2-37.5s22.5 33.3 50.5 33.3c33.6 0 38-40 38-40l6.9 3.3h0l3.1-6.9z"/><path d="M410.6 406.1c-81.9 0-142.1 11.1-158.2 13.3-4.4.8-7.2-1.4-7.8-4.4-.6-3.1 2.2-8.9 6.1-9.4 13-2.5 61.6-13.3 160.1-13.3s146.8 10.8 159.8 13.3c3.9.6 6.7 6.1 6.1 9.4-.6 3.1-3.3 5-7.8 4.4-16.5-2.2-76.4-13.3-158.3-13.3z"/><path d="M309.6 373.2c6-5.7 13.3-8.8 21.2-10.3a229.9 229.9 0 01-7.8-38.8c-2.4-20.5-2.3-41.5 1.4-61.3 2-9.9 4.9-19.2 9.6-27.2 4.9-8.2 11.5-15.6 19-22.1 15.2-12.8 34.1-21.4 53.8-24.2l-2.1-16.7c-23.1 2.6-45.3 12-63.5 26.6-9.1 7.4-17.3 16-23.7 26.2-3.2 5.1-5.9 10.8-8 16.3-2.1 5.6-3.7 11.2-5 16.8-2.5 11.3-3.8 22.6-4.3 33.9-.6 11.3-.2 22.6.8 33.8 1.5 15.9 4.3 31.6 8.6 47z"/><path d="M566.5 356.9c8.8-11 15.9-23.2 20.9-36.3 5.1-13.1 7.8-27.3 7.8-41.6.1-14.3-3.5-28.9-10-41.9-1.5-3.3-3.7-6.3-5.5-9.4-2-2.9-4.1-5.7-6.3-8.4-4.4-5.4-9.4-10.5-14.7-15-10.6-9.1-22.8-16.2-35.6-21.4-6.4-2.6-12.9-4.6-19.5-6.3-6.6-1.6-12.9-2.9-19.4-4.1-25.8-4.7-52.1-6.8-78.4-6.1l.3 16.6c25-.1 50.1 2.5 74.6 7.5 6.1 1.2 12.3 2.7 18.1 4.3 5.8 1.6 11.5 3.5 16.9 5.9 10.9 4.7 21 11 29.7 18.8 4.3 3.9 8.3 8.2 11.9 12.8 1.8 2.3 3.4 4.7 5.1 7.1 1.3 2.5 2.9 4.7 4 7.3 4.7 10 7.3 21.1 6.9 32.4-.3 22.7-10.3 45.3-25.1 63l18.3 14.8z"/><path d="M511.3 373.2c-6-5.7-13.3-8.8-21.2-10.3 3.7-12.6 6.3-25.6 7.8-38.8 2.4-20.5 2.3-41.5-1.4-61.3-2-9.9-4.9-19.2-9.6-27.2-4.9-8.2-11.5-15.6-19-22.1a107.84 107.84 0 00-53.8-24.2l2.1-16.7c23.1 2.6 45.3 12 63.5 26.6 9.1 7.4 17.3 16 23.7 26.2 3.2 5.1 5.9 10.8 8 16.3 2.1 5.6 3.7 11.2 5 16.8 2.5 11.3 3.8 22.6 4.3 33.9.6 11.3.2 22.6-.8 33.8-1.4 15.9-4.2 31.6-8.6 47z"/><polygon points="372.5 104.6 403.7 109.2 399.4 77.2 423.7 77.2 419.7 109.2 451 104.6 451 128.9 419.1 122.8 415.7 159.7 407.4 159.7 404 122.8 372.5 128.9"/><polygon points="391.8 309.1 429.5 309.1 426.7 175.2 394.5 175.2"/><path d="M390.7 167.6c0 10.8 8.9 13.5 20 13.5 10.8 0 20-2.6 20-13.5 0-10.8-8.9-19.7-20-19.7-11.1-.3-20 8.9-20 19.7z"/><path d="M454.2 393.9c-12.2 0-22.8-5.8-30-15.3-8.9-10.3-13.6-23.6-13.6-23.6s-6.4 15.3-13.3 23.6c-7.2 9.4-17.8 15.3-29.7 15.3-29.7 0-48.3-30.2-48.3-30.2s-5.5 34.7-37.2 34.7c-28 0-42.7-33.9-42.7-33.9l3.9-17.2s14.4 35.8 40 35.8c18.9 0 25.3-22.5 29.1-34.1 2.2-7.5 3.9-8.9 10.5-1.7 8.6 10.3 22.2 31.1 44.4 31.1 29.4 0 33.6-48 33.6-48H420s4.2 48 33.6 48c22.2 0 35.8-20.8 44.4-31.1 6.4-7.5 8-6.1 10.8 1.7 3.6 11.7 10 34.1 29.1 34.1 25.5 0 40-35.8 40-35.8l3.9 17.2s-14.7 33.9-42.7 33.9c-31.1 0-37.2-34.7-37.2-34.7s-18 30.2-47.7 30.2z"/><path d="M402 336.7c21.1 0 31.6 22.2 46.6 22.2 21.1 0 16.7-20.8 16.7-26.4 0-5.3 4.7-26.4-16.7-26.4-15.3 0-25.5 22.2-46.6 22.2"/><path d="M420.1 336.7c-21.1 0-31.4 22.2-46.6 22.2-21.1 0-17.5-20.8-17.5-26.4 0-5.3-3.9-26.4 17.5-26.4 15.3 0 25.5 22.2 46.6 22.2"/><path d="M591 350s5.8-29.4 13-56.9c-5.8-1.7-28.3-10-33.9 10-3.6 14.4 18.6 29.4 13.3 49.1"/><path d="M596.6 356.1c-20.8-4.4-36.4 14.7-51.1 11.7-20.5-4.4-11.4-23.9-10-29.4 1.4-5.3 2.8-26.4 23.6-22.2 15 3.3 19.4 26.9 40 31.4"/><path d="M415.6 335.6c0-20.5 25.3-30.2 25.3-45.2 0-20.3-24.1-16.6-30.2-16.6-6.1 0-30.2-3.6-30.2 16.6 0 14.7 25.3 24.7 25.3 45.2"/><path d="M230.8 350s-5.8-29.4-13-56.9c5.8-1.7 28.3-10 33.9 10 3.6 14.4-18.6 29.4-13.3 49.1"/><path d="M225.3 356.1c20.8-4.4 36.4 14.7 51.1 11.7 20.5-4.4 11.4-23.9 10-29.4-1.4-5.3-2.8-26.4-23.6-22.2-15 3.3-19.4 26.9-40.2 31.4"/><path d="M252.1 469.5c.6 5.3 3.7 8.1 7.5 9.3 28.2 11 94.5 14.5 151.4 14.5 56.9 0 122.9-3.1 151.4-14.5 3.7-1.6 6.9-4.5 7.5-9.3.3-4.9-1.4-8.5-5.7-9.3-3.7-1.2-74.7-11.6-153.1-11.6-78.7 0-149.1 10.4-153.1 11.6-4.2.4-6.2 4-5.9 9.3zm27.8 1.2c10.9-2.4 70.9-6.4 131.3-6.4 60 0 120.1 3.9 131.3 6.4-6.9 0-43.1 7.2-131.3 7.2-88.2 0-124.7-7.2-131.3-7.2z"/></g><g fill="#000" stroke="none"><path d="M74.95 95.44c-.07.6-.13 1.21-.11 1.8a10.9 10.9 0 00.59 3.5c.19.57.43 1.1.72 1.65a5.28 5.28 0 01-1.05-1.52 6.8 6.8 0 01-.63-3.65c.06-.6.22-1.23.48-1.78z"/><path d="M91.54 94.22c-.23.74-.74 1.39-1.33 1.9s-1.27.93-1.94 1.31c-.66.38-1.33.76-1.94 1.18-.6.44-1.17.95-1.61 1.6.27-.74.78-1.37 1.39-1.86.6-.52 1.27-.92 1.93-1.3.67-.38 1.33-.76 1.94-1.2.61-.43 1.16-.96 1.56-1.63z"/><path d="M109.13 95.08c-.01.8.38 1.5.88 2.07.51.57 1.14 1.02 1.7 1.63a5.4 5.4 0 011.2 2.11c.27.74.5 1.5.82 2.22-.5-.62-.82-1.36-1.16-2.09a7.2 7.2 0 00-1.2-1.93c-.5-.57-1.13-1.07-1.63-1.73-.25-.33-.44-.7-.57-1.09-.11-.4-.15-.81-.04-1.2z"/><path d="M124.98 96.14c-.25.8-.68 1.52-1.16 2.2-.47.69-1 1.32-1.52 1.96-.51.63-1.02 1.27-1.46 1.96a7.17 7.17 0 00-.97 2.24 5.4 5.4 0 01.66-2.41c.38-.76.9-1.43 1.41-2.07.53-.65 1.08-1.26 1.6-1.88.53-.63 1.02-1.28 1.44-2z"/></g><g fill="#f6f6f6"><path d="M118.48 127.89a2.38 2.38 0 01-2.43 2.38 2.38 2.38 0 010-4.76 2.43 2.43 0 012.43 2.38z"/><path d="M131.23 129.85a2.49 2.49 0 01-2.85 1.9c-.68-.15-.83-1.28-.53-2.53.32-1.31 1-2.26 1.58-2.1a2.21 2.21 0 011.8 2.73z"/><path d="M81.62 127.89a2.38 2.38 0 002.43 2.38c1.32 0 2.44-1.07 2.44-2.38s-1.07-2.38-2.44-2.38-2.43 1.07-2.43 2.38z"/><path d="M95.23 127.11c0 1.58 2.16 2.9 4.8 2.9 2.7 0 4.81-1.3 4.81-2.9s-2.17-2.9-4.8-2.9c-2.65.1-4.81 1.36-4.81 2.9z"/><path d="M68.85 129.85a2.49 2.49 0 002.85 1.9c.69-.15.84-1.28.54-2.53-.33-1.31-1.01-2.26-1.58-2.1a2.19 2.19 0 00-1.8 2.73z"/><path d="M70.75 86.47c.69.59 1.32.19 1.92-.47.6-.69.93-1.35.3-1.98a1.71 1.71 0 00-2.33.13c-.59.67-.5 1.73.11 2.32z"/><path d="M75.92 81.9c.32.83 1.08.77 1.94.48.84-.32 1.48-.77 1.16-1.61s-1.24-1.31-2.13-.95a1.67 1.67 0 00-.97 2.07z"/><path d="M82.74 79.48c.14.9.88 1 1.77.93.9-.13 1.63-.42 1.5-1.31a1.64 1.64 0 00-1.84-1.43c-.88.14-1.54.97-1.43 1.8z"/><path d="M89.92 78.28c.14.9.88 1 1.77.93.9-.13 1.64-.42 1.5-1.3a1.64 1.64 0 00-1.84-1.43c-.9.13-1.54.96-1.43 1.8z"/><path d="M66.63 91.73c.78.48 1.37-.07 1.8-.83.48-.78.69-1.5-.1-1.98a1.65 1.65 0 00-2.27.59c-.47.72-.23 1.73.57 2.22z"/><path d="M65.5 98.46c.88 0 1.13-.72 1.13-1.62s-.2-1.65-1.1-1.67-1.64.7-1.67 1.66c-.02.85.76 1.63 1.63 1.63z"/><path d="M85.95 85.71c.6.68 1.28.38 1.96-.2.69-.6 1.12-1.2.57-1.93a1.69 1.69 0 00-2.32-.2c-.68.6-.72 1.67-.2 2.33z"/><path d="M91.9 81.23c.32.83 1.08.77 1.94.49.83-.32 1.48-.78 1.16-1.61a1.64 1.64 0 00-2.13-.95c-.84.32-1.27 1.29-.97 2.07z"/><path d="M82.13 91.18c.82.44 1.35-.17 1.73-.95.44-.82.57-1.54-.24-1.97-.82-.44-1.79-.06-2.23.76-.4.74-.07 1.74.74 2.16z"/><path d="M80.39 97.66c.87.12 1.21-.57 1.33-1.46.11-.88 0-1.67-.88-1.79-.87-.11-1.7.5-1.86 1.43-.13.83.53 1.7 1.4 1.82z"/><path d="M80.18 105.09c.87-.06 1.08-.8 1.02-1.7-.05-.86-.32-1.62-1.21-1.57a1.7 1.7 0 00-1.56 1.77c.04.83.87 1.56 1.75 1.5z"/><path d="M129.22 86.47c-.69.59-1.31.19-1.92-.47-.6-.69-.93-1.35-.3-1.98a1.71 1.71 0 012.33.13c.6.67.5 1.73-.11 2.32z"/><path d="M124.05 81.9c-.32.83-1.08.77-1.94.48-.83-.32-1.48-.77-1.16-1.61s1.24-1.31 2.13-.95c.82.3 1.27 1.27.97 2.07z"/><path d="M117.23 79.48c-.14.9-.88 1-1.77.93-.9-.13-1.63-.42-1.5-1.31.13-.9.91-1.56 1.84-1.43.88.14 1.54.97 1.43 1.8z"/><path d="M110.06 78.28c-.13.9-.87 1-1.76.93-.9-.13-1.64-.42-1.5-1.3.13-.9.9-1.57 1.84-1.43.87.13 1.54.96 1.43 1.8z"/><path d="M133.36 91.73c-.78.48-1.37-.07-1.8-.83-.48-.78-.69-1.5.1-1.98a1.65 1.65 0 012.27.59c.45.72.2 1.73-.57 2.22z"/><path d="M134.48 98.46c-.9 0-1.14-.72-1.14-1.62s.2-1.65 1.1-1.67 1.64.7 1.67 1.66c.02.85-.74 1.63-1.63 1.63z"/><path d="M114.02 85.71c-.6.68-1.28.38-1.96-.2-.68-.6-1.12-1.2-.57-1.93a1.69 1.69 0 012.32-.2c.68.6.74 1.67.2 2.33z"/><path d="M108.07 81.23c-.32.83-1.08.77-1.94.49-.83-.32-1.48-.78-1.16-1.61a1.64 1.64 0 012.13-.95c.84.32 1.3 1.29.97 2.07z"/><path d="M117.84 91.18c-.82.44-1.35-.17-1.73-.95-.44-.82-.57-1.54.24-1.97.82-.44 1.79-.06 2.23.76.4.74.07 1.74-.74 2.16z"/><path d="M119.58 97.66c-.87.12-1.21-.57-1.33-1.46-.11-.88 0-1.67.88-1.79.87-.11 1.7.5 1.86 1.43.13.83-.53 1.7-1.4 1.82z"/><path d="M119.8 105.09c-.88-.06-1.09-.8-1.03-1.7.05-.86.32-1.62 1.21-1.57.88.06 1.6.82 1.56 1.77-.04.83-.85 1.56-1.75 1.5z"/><path d="M101.69 94.83c0 .9-.75 1.14-1.64 1.14-.9 0-1.63-.15-1.69-1.08s.68-1.64 1.63-1.7c.9 0 1.7.75 1.7 1.64z"/><path d="M101.69 89.76c0 .89-.75 1.14-1.64 1.14-.9 0-1.63-.16-1.69-1.09-.06-.93.68-1.63 1.63-1.69.9 0 1.7.74 1.7 1.64z"/><path d="M101.69 84.68c0 .9-.75 1.14-1.64 1.14-.9 0-1.63-.15-1.69-1.08-.06-.93.68-1.63 1.63-1.69.9 0 1.7.74 1.7 1.63z"/><path d="M135.92 113.3a2.95 2.95 0 01-3.47 2.16c-.84-.15-.95-1.52-.53-3.05.36-1.52 1.3-2.7 2.05-2.53a2.78 2.78 0 011.95 3.42z"/><path d="M96.86 109.02a3.21 3.21 0 006.42 0 3.19 3.19 0 00-3.2-3.17 3.22 3.22 0 00-3.22 3.17z"/><path d="M64.16 113.3a2.95 2.95 0 003.48 2.16c.83-.15.95-1.52.53-3.05-.36-1.52-1.31-2.7-2.05-2.53a2.74 2.74 0 00-1.96 3.42z"/><path d="M81.89 108.19c1.82 0 3.3 1.42 3.3 3.19s-1.48 3.2-3.3 3.2a3.25 3.25 0 01-3.3-3.2c0-1.71 1.47-3.2 3.3-3.2z"/><path d="M118.25 108.19c-1.82 0-3.3 1.42-3.3 3.19s1.48 3.2 3.3 3.2c1.83 0 3.31-1.43 3.31-3.2 0-1.71-1.48-3.2-3.3-3.2z"/></g></g></svg>