<svg xmlns="http://www.w3.org/2000/svg" fill="#d7374a" stroke="#000" viewBox="50 50 200 200">
  <metadata source="http://www.wappenwiki.org/images/5/55/Louis_de_Lichtervelde.svg" license="https://creativecommons.org/licenses/by-nc-sa/3.0"/>
  <g id="doveDisplayed" stroke-width="3" transform="translate(53.5 47.5) scale(0.116)">
    <g>
      <g>
        <g class="secondary">
          <path d="M246.9 605.9s7.6-2.5 9.8 3.6c2.2 6-1.1 8.1-1.1 8.1s-2.1.7-3.7 2.4c-4.1 4.2-2.4 8.1.2 10.9 1.2 1.3 2.4 1.4 2.7 1.9.8 1.3-8.7 2.4-13.8-8.1-5.4-11.6 5.9-18.8 5.9-18.8zm73.1-8.2s-7.5-2.6-9.9 3.4c-2.4 6 .9 8.1.9 8.1s2.1.8 3.7 2.4c4.1 4.2 2.3 8.2-.5 10.9-1.2 1.2-2.4 1.3-2.7 1.9-.9 1.3 8.6 2.5 13.9-7.9 5.7-11.4-5.4-18.8-5.4-18.8zm-79.5-33.8s6.3 4.8 2.7 10.2c-3.6 5.3-7.2 3.7-7.2 3.7s-1.8-1.3-4-1.7c-5.7-1-8 2.6-8.7 6.4-.3 1.7.2 2.7-.1 3.3-.6 1.4-6.9-5.8-1.2-16 6.2-11.1 18.5-5.9 18.5-5.9zm25.3-22.4s2.3 7.7-3.7 9.9-8-1.2-8-1.2-.7-2.1-2.3-3.8c-4.1-4.2-8-2.5-10.8.1-1.3 1.2-1.4 2.4-2 2.7-1.3.8-2.2-8.8 8.2-13.8 11.7-5.4 18.6 6.1 18.6 6.1z"/>
          <path d="M347 549.4c-.2.1-.4.2-.6.4-9.1 5.9-17.9 12.3-26.7 18.6-5.1 3.6-10.1 7.3-15.2 10.9-3.1 2.3-4.6 3.6-7.6 5.9-1.2.9-5.1 3.3-4.6 5.3.4 1.7 2.7 2.3 4.6 3.2 3.3 1.5 4.4-1 7.3-1.6 2.6-.6 4.6 1.8 7.2 1 3.2-2.7 4.9-2.5 8.7.6 2.3 2.2.7 4.4.7 4.4s-3.8.6-6.7 4.7c-2.1 3-2.7 4.8-2.1 7.1-2 1.2-3 1.9-4.6 1.3-1.8-.7-3.8-2.8-4-3.7-.5-1.6.4-3.8.3-4.8-3.6-.9-.7 3.7-5.1 4.3-2.2.3-3.4-.3-4.1-2.3-.7-2-2.5-3.5-4.6-3.9-1.3-.2-2.7.7-3.5-.5-.4-.6-.4-1.9-1-2.1-.7-.2-3.5-.5-4.2-.4-4.1.9-.1 6.8-7 7.5-2 .2-4.3-.2-4.9.1-.7.3-6.2 3.7-6.3 6 0 1 .8 3.2.2 4.8-.2.9-2.3 3-4.1 3.7-1.6.6-2.7-.1-4.6-1.3.6-2.3.1-4.1-2-7.1-2.8-4.1-6.6-4.8-6.6-4.8s.6-3.2 2.9-5.4c2.9-2.3 3.3-1.9 6.6.5-1.1-.9 2.2.9 4.7-2.8 1.4-2.1 2.1-7 8.1-7.1-.5 0 .4-3.4-1.5-3.8-1.2-.2-3.5.2-7-.5s-2.3-5.6-8.1-5.7c-2.9.4-5.4-1.8-6.2-1.3-.8.5-2.1 2.5-3.7 2.9-.9.3-3.7-.2-5.3-1.3-1.4-1-1.4-2.3-1.5-4.6 2.2-.8 3.4-2.3 4.6-5.7 1.7-4.6.1-8.2.1-8.2s1-2.5 4-1.9c4.7 1.5 5.7 2.7 5.3 6.9.3.8 1.4 1 2.3 1 1-.1 6.9 3.7 7.5 4.4 2.4 2.6 4.7 1.4 6.7 2.2 2.4 1 4.5 2.3 5.2 3.3-.5-2.4-3.4-8-5.6-10.9-1.1-1.3-4.8-.9-3.2-5.8 1.1-3.3-1.4-5-2.4-4.9-1 .1-2.4.8-3.9.3-.9-.2-2.9-2.3-3.6-4.2-.6-1.7.1-2.7 1.4-4.6 2.2.7 4.1.1 7.1-1.9 4.1-2.7 4.8-6.6 4.8-6.6s2.3-1.5 4.4.9c2.3 2.9 3.3 5.1.3 8.8-1.4 2.4 2.3 4.3 1.3 7-1 2.7 1.2 5.5 3.2 6.1 4.2 1.4 2.5 11.2 3.2 11.9.7.7 3.6 4.1 5.9 2.1.3-.3 1.7-1.2 3.4-2.4 1.1-1.8 4.3-4.2 6.6-4.7 1.2-1.8 4.2-4.2 6.1-4.5 1.5-1.8 4.7-4.3 6.5-4.5 2.8-2.7 20.7-15.3 20.7-15.3l8.8-5.7c11.4-7.8 15.9 5.8 11.4 8.7z"/>
          <g stroke="none" fill="#000">
            <path d="M345.1 546.8c-7.3 4.4-14.3 9.2-21.4 14l-21.1 14.5 20.4-15.5c6.8-5.1 13.7-10.3 20.8-15.1.6-.4 1.3-.2 1.7.3.4.6.2 1.4-.4 1.8zm-57.7 26.8c1.4.6 2.5 1.6 3.2 2.8.7 1.1 1.1 2.3 1.3 3.5l-.3.1c-.6-1-1.4-1.9-2.3-2.5a5 5 0 0 0-2.7-1l.8-2.9zm-31.1 26.6c.8.8 1.5 1.7 2 2.7.5.9.9 1.9 1.2 2.9-1.4-1.5-3.1-2.6-4.8-3.1l1.6-2.5zm15.1-49c-.8.8-1.7 1.5-2.7 2-.9.5-1.9.9-2.9 1.2 1.5-1.4 2.6-3.1 3.1-4.8l2.5 1.6zm-20.8 17.2a12.35 12.35 0 0 1-2.7 5.9c.4-2 .3-4.1-.3-5.8l3-.1zm21.5 10.1c.1.5.3 1 .8 1.5s1.2.9 1.8 1.4l-.1.3c-.7-.1-1.5 0-2.4-.2-.9-.1-1.8-.6-2.6-1.3l2.5-1.7zm-4 11.5c1.4 0 2.6.4 3.7.6.5.1 1.1.1 1.6.1.5-.1 1.1-.2 1.6-.5.1 0 .2 0 .2.1v.2c-.4.4-.9.8-1.5 1.1-.6.3-1.2.5-1.9.7-1.3.3-2.4.4-3.4.8a1.55 1.55 0 0 1-1.1-2.9c.2-.1.4-.1.6-.1l.2-.1zm39.2 8.2c.8-2.3 1.9-4.5 3.5-6.6l2 2.3c-1.9 1-3.8 2.5-5.5 4.3zm-.6-38.3c1.4.6 2.5 1.6 3.2 2.8.7 1.1 1.1 2.3 1.3 3.5l-.3.1c-.6-1-1.4-1.9-2.3-2.5a5 5 0 0 0-2.7-1l.8-2.9zm-6.6 4.5c1.4.6 2.5 1.6 3.2 2.8.7 1.1 1.1 2.3 1.3 3.5l-.3.1c-.6-1-1.4-1.9-2.3-2.5a5 5 0 0 0-2.7-1l.8-2.9zm-6.1 4.5c1.4.6 2.5 1.6 3.2 2.8.7 1.1 1.1 2.3 1.3 3.5l-.3.1c-.6-1-1.4-1.9-2.3-2.5a5 5 0 0 0-2.7-1l.8-2.9z"/>
          </g>
        </g>
        <g class="secondary">
          <path d="M554.2 605.9s-7.6-2.5-9.8 3.6c-2.2 6 1.1 8.1 1.1 8.1s2.1.7 3.7 2.4c4.1 4.2 2.4 8.1-.2 10.9-1.2 1.3-2.4 1.4-2.7 1.9-.8 1.3 8.7 2.4 13.8-8.1 5.4-11.6-5.9-18.8-5.9-18.8zm-73.1-8.2s7.5-2.6 9.9 3.4c2.4 6-.9 8.1-.9 8.1s-2.1.8-3.7 2.4c-4.1 4.2-2.3 8.2.5 10.9 1.2 1.2 2.4 1.3 2.7 1.9.9 1.3-8.6 2.5-13.9-7.9-5.7-11.4 5.4-18.8 5.4-18.8zm79.5-33.8s-6.3 4.8-2.7 10.2c3.6 5.3 7.2 3.7 7.2 3.7s1.8-1.3 4-1.7c5.7-1 8 2.6 8.7 6.4.3 1.7-.2 2.7.1 3.3.6 1.4 6.9-5.8 1.2-16-6.2-11.1-18.5-5.9-18.5-5.9zm-25.3-22.4s-2.3 7.7 3.7 9.9 8-1.2 8-1.2.7-2.1 2.3-3.8c4.1-4.2 8-2.5 10.8.1 1.3 1.2 1.4 2.4 2 2.7 1.3.8 2.2-8.8-8.2-13.8-11.7-5.4-18.6 6.1-18.6 6.1z"/>
          <path d="M454.1 549.4c.2.1.4.2.6.4 9.1 5.9 17.9 12.3 26.7 18.6 5.1 3.6 10.1 7.3 15.2 10.9 3.1 2.3 4.6 3.6 7.6 5.9 1.2.9 5.1 3.3 4.6 5.3-.4 1.7-2.7 2.3-4.6 3.2-3.3 1.5-4.4-1-7.3-1.6-2.6-.6-4.6 1.8-7.2 1-3.2-2.7-4.9-2.5-8.7.6-2.3 2.2-.7 4.4-.7 4.4s3.8.6 6.7 4.7c2.1 3 2.7 4.8 2.1 7.1 2 1.2 3 1.9 4.6 1.3 1.8-.7 3.8-2.8 4-3.7.5-1.6-.4-3.8-.3-4.8 3.6-.9.7 3.7 5.1 4.3 2.2.3 3.4-.3 4.1-2.3.7-2 2.5-3.5 4.6-3.9 1.3-.2 2.7.7 3.5-.5.4-.6.4-1.9 1-2.1.7-.2 3.5-.5 4.2-.4 4.1.9.1 6.8 7 7.5 2 .2 4.3-.2 4.9.1.7.3 6.2 3.7 6.3 6 0 1-.8 3.2-.2 4.8.2.9 2.3 3 4.1 3.7 1.6.6 2.7-.1 4.6-1.3-.6-2.3-.1-4.1 2-7.1 2.8-4.1 6.6-4.8 6.6-4.8s-.6-3.2-2.9-5.4c-2.9-2.3-3.3-1.9-6.6.5 1.1-.9-2.2.9-4.7-2.8-1.4-2.1-2.1-7-8.1-7.1.5 0-.4-3.4 1.5-3.8 1.2-.2 3.5.2 7-.5s2.3-5.6 8.1-5.7c2.9.4 5.4-1.8 6.2-1.3.8.5 2.1 2.5 3.7 2.9.9.3 3.7-.2 5.3-1.3 1.4-1 1.4-2.3 1.5-4.6-2.2-.8-3.4-2.3-4.6-5.7-1.7-4.6-.1-8.2-.1-8.2s-1-2.5-4-1.9c-4.7 1.5-5.7 2.7-5.3 6.9-.3.8-1.4 1-2.3 1-1-.1-6.9 3.7-7.5 4.4-2.4 2.6-4.7 1.4-6.7 2.2-2.4 1-4.5 2.3-5.2 3.3.5-2.4 3.4-8 5.6-10.9 1.1-1.3 4.8-.9 3.2-5.8-1.1-3.3 1.4-5 2.4-4.9 1 .1 2.4.8 3.9.3.9-.2 2.9-2.3 3.6-4.2.6-1.7-.1-2.7-1.4-4.6-2.2.7-4.1.1-7.1-1.9-4.1-2.7-4.8-6.6-4.8-6.6s-2.3-1.5-4.4.9c-2.3 2.9-3.3 5.1-.3 8.8 1.4 2.4-2.3 4.3-1.3 7 1 2.7-1.2 5.5-3.2 6.1-4.2 1.4-2.5 11.2-3.2 11.9-.7.7-3.6 4.1-5.9 2.1-.3-.3-1.7-1.2-3.4-2.4-1.1-1.8-4.3-4.2-6.6-4.7-1.2-1.8-4.2-4.2-6.1-4.5-1.5-1.8-4.7-4.3-6.5-4.5-2.8-2.7-20.7-15.3-20.7-15.3l-8.8-5.7c-11.4-7.8-15.9 5.8-11.4 8.7z"/>
          <g stroke="none" fill="#000">
            <path d="m498.5 575.3-21.1-14.5c-7.1-4.8-14.1-9.6-21.4-14-.6-.4-.8-1.1-.4-1.7.4-.6 1.1-.8 1.7-.4h.1c7.1 4.8 13.9 9.9 20.8 15.1l20.3 15.5zm16 1.2c-.9 0-1.8.3-2.7 1-.9.6-1.6 1.5-2.3 2.5l-.3-.1c.2-1.2.6-2.4 1.3-3.5.7-1.1 1.8-2.2 3.2-2.8l.8 2.9zm31.9 26.2c-1.7.5-3.4 1.6-4.8 3.1.3-1 .7-2 1.2-2.9.5-.9 1.2-1.8 2-2.7l1.6 2.5zm-14.2-53.2c.5 1.7 1.6 3.4 3.1 4.8-1-.3-2-.7-2.9-1.2-.9-.5-1.9-1.2-2.7-2l2.5-1.6zm21.3 19.1c-.6 1.7-.7 3.8-.3 5.8-.7-.8-1.2-1.7-1.7-2.7-.5-1-.8-2-1-3.2l3 .1zm-22 11.6c-.8.7-1.7 1.2-2.6 1.3-.9.2-1.7.1-2.4.2l-.1-.3c.6-.5 1.4-.9 1.8-1.4.5-.5.7-1 .8-1.5l2.5 1.7zm1.1 12.8c-1-.4-2.1-.5-3.4-.8-.6-.1-1.3-.3-1.9-.7-.6-.3-1.1-.7-1.5-1.1-.1-.1-.1-.2 0-.2 0 0 .1-.1.2 0 .5.2 1.1.4 1.6.5.5.1 1.1 0 1.6-.1 1.1-.2 2.3-.5 3.7-.6h.1c.8 0 1.6.6 1.6 1.5s-.6 1.6-1.5 1.6c-.1 0-.3 0-.5-.1zm-38.8 5.2c-1.7-1.8-3.5-3.3-5.5-4.4l2-2.3c1.5 2.2 2.7 4.4 3.5 6.7zm1.4-35.4c-.9 0-1.8.3-2.7 1-.9.6-1.6 1.5-2.3 2.5l-.3-.1c.2-1.2.6-2.4 1.3-3.5.7-1.1 1.8-2.2 3.2-2.8l.8 2.9zm6.5 4.5c-.9 0-1.8.3-2.7 1-.9.6-1.6 1.5-2.3 2.5l-.3-.1c.2-1.2.6-2.4 1.3-3.5.7-1.1 1.8-2.2 3.2-2.8l.8 2.9zm6.2 4.5c-.9 0-1.8.3-2.7 1-.9.6-1.6 1.5-2.3 2.5l-.3-.1c.2-1.2.6-2.4 1.3-3.5.7-1.1 1.8-2.2 3.2-2.8l.8 2.9z"/>
          </g>
        </g>
        <path d="M356.8 468.4c2.6 16.5-27.6 49-32.1 65.1l-1.2 6.1c-.2.9-.3 1.9.4 2.5.6.5 1.4.5 2.2.3 3.5.6 5.4 4.5 5.3 6 0 .6-.3 1.2-.1 1.7.2.6.8 1 1.4 1.3 1.3.7 2.6 1.4 3.9 2.2.4.2.7.4.9.8.1.3.1.7 0 1-.3 1.9 0 3.9.8 5.7.4.8 3.9 3.4 5 1.5 9.8-16.6 25.3-12.1 37.2-43.1m63.8-51.1c-2.6 16.5 27.6 49 32.1 65.1l1.2 6.1c.2.9.3 1.9-.4 2.5-.6.5-1.4.5-2.2.3-3.5.6-5.4 4.5-5.3 6 0 .6.3 1.2.1 1.7-.2.6-.8 1-1.4 1.3-1.3.7-2.6 1.4-3.9 2.2-.4.2-.7.4-.9.8-.1.3-.1.7 0 1 .3 1.9 0 3.9-.8 5.7-.4.8-3.9 3.4-5 1.5-9.8-16.6-25.3-12.1-37.2-43.1"/>
      </g>
      <g>
        <g>
          <rect stroke="none" width="250" height="40" x="267" y="359"/>
          <path d="M188 302.9c-57-16.2-117.8-48-130.9-62-3.5-3.7.5-2.1 4.1-.3 30.9 20.1 79.1 40.9 116.4 51m161.3 99.1c-14.7 49.3-38.6 93-49.7 98-1.5-.1.3-1.6 1.1-2.9.8-1.3 1.5-1.7 3.4-4.3 19.3-26.1 38.9-92.2 39.1-95m42.5-24c-1.4 45.8-17.2 97.2-27.2 104.4-1.6.3-.1-2.1-.1-2.1s1.2-2 2.4-4.3c13-26.9 18.2-97.5 17.6-100m-150.7-33c-63.4 14.6-122.6 15.5-141 9.4-4.9-1.6-.8-2.4 3.2-2.5 36.8 2.9 85.8-2.2 123.2-11.2m103.6 58.6c-23.1 46.3-56 85-69.2 87.6-2.2-.4.9-2 2.4-3.4 26-18.8 59.8-86.9 60.5-89.7m-43.7-33.2c-53.8 35.2-120.4 59.1-137.8 60.2-5.1.3-.8-1.6 2.5-2.7 35-11.2 103.9-43.4 134.7-65.8m35.1 20.8c-36.5 39.1-90.6 83.4-107.2 88.8-4.9 1.6-1.2-1.3 1.8-3.2 31.1-19.5 78.5-64.1 102.8-93.4"/>
          <path d="M278.8 352.7c-3.2 7.7-15.4 33.3-37.7 59.2-10.9 12.7-46.1 43.3-48.6 47.8-1.4 2.5-.6 5 3.2 7 1.7 3.5 13 2.2 18-.4 8.9 1.2 37.7-22.4 43.9-33.4 6.4-.4 26.1-19 28.2-30 14.9-13.3 16.6-35.6 17.2-37.9m21.4-35.3s-10.3 30.2-11.1 32.4c-3 7.6-9.8 24.9-11.9 29.9-3.4 8-5.1 13-14 35.2-11.9 29.4-31.6 49.5-32.8 55.3-.7 3.2.9 5.1 5.4 5.8 2.9 3.2 11.3 0 15.7-4.7 9.5-2 25.3-20.7 28.2-35 7.9-3.4 24-36 22-44.9 9.7-12.5 13.4-31 14.5-37.9.3-1.8 5.8-31.1 5.8-31.1m-5.3 41.9c-1.7 13.5-4.7 31.6-10.7 47.1-6.7 18.6-23.5 50-24 57.8-.2 2.8 1.5 4.3 5.8 4.6 3.1 2.5 11.3-1.7 14.8-6.1 8.6-2.5 25.2-37.3 26.1-49.9M194.6 264.3s-31-11-62.3-34.8c-11.4-8.1-42.5-36.4-48.1-38.4-3.1-1.1-5.2.1-6.6 4.5-3.6 2.3-5 11.5-.9 16.5.5 9.6 11.1 24.4 24.9 29.4 2.2 8.2 29.9 28.9 40.4 30 17.9 23.6 49.2 24.4 49.2 24.4"/>
          <path d="M195.4 296.3s-24-2.5-31-3c-8.6-.6-19.1-1.9-40-3.9-34.5-4.9-55.3-15-61.1-14.2-3.2.4-4.4 2.5-3.6 7-2 3.8 4.3 11.7 10.2 14.4 5 8.4 24.1 21.9 38.4 20.1 5.9 6.4 43.2 13.2 51.2 6.7 23.7 13.6 54.9 1.7 54.9 1.7m37.4 12.8s-8.2 10.2-19 20.1c-10.8 9.9-19.8 18-35.4 26.8-15.6 8.7-52.8 23.3-56.7 27.3-2.1 2.2-1.8 4.4 1.5 7.4.7 4 12.6 5.6 18.6 4.2 12.3 2.3 37.9-3.3 47.4-13 8.2 1.5 37.4-14.6 41.7-28 21.9-5.4 38.8-43.6 38.8-43.6"/>
          <path d="M220.2 320.8s-32.7 13.4-39.3 15.5C139.3 350 97.1 357.4 92 360.4c-2.8 1.7-3.1 4-.5 7.9-.4 4.3 8.8 8.4 15.2 8.5 8 5.7 39.5 4.6 51.9-2.9 7.9 3.5 35.5-3 40.1-12.2 27.1 3 50.2-20.8 50.2-20.8"/>
          <g stroke="none" fill="#000">
            <path d="M198.1 363.2c-.4-.3-.5-.6-.7-.9-.2-.3-.3-.6-.4-.9-.2-.6-.3-1.2-.3-1.8l.3-.1c.4.4.8.7 1.3.8.2.1.4.1.7.2.2 0 .5.1.6 0l-1.5 2.7z"/>
            <polygon points="93.9,368.8 91.5,370 91.6,367 93.9,368.5"/>
            <path d="M105.5 377.2c.4-.7.7-1.5.9-2.4l.3-.1c.7.6 1.3 1.4 1.9 2.3l-3.1.2zm52.8-1.8c-.4-.3-.5-.6-.7-.9-.2-.3-.3-.6-.4-.9-.2-.6-.3-1.2-.3-1.8l.3-.1c.4.4.8.7 1.3.8.2.1.4.1.7.2.2 0 .5.1.6 0l-1.5 2.7zm69.9-42.3c-4.6 2.8-9.3 4.9-14.1 7-4.8 2.1-9.6 4-14.5 5.9-4.9 1.9-9.7 3.7-14.6 5.4-4.9 1.7-9.9 3.4-14.8 4.8-10 3-20.1 5.5-30.3 7.4-10.2 1.9-20.6 3.4-31 3.3v-.3c10.4-.2 20.6-1.8 30.8-4 10.1-2.2 20.1-4.9 30-8.1 9.9-3.1 19.5-6.9 29.1-10.8 4.8-2 9.6-4 14.2-6.1 4.7-2.2 9.4-4.4 13.6-7.1l1.6 2.6zm21.6 50.9c-.4-.2-.6-.4-.9-.7-.2-.2-.4-.5-.6-.7-.4-.5-.6-1.1-.7-1.6l.3-.2c.5.3.9.4 1.4.5h.7c.2 0 .5-.1.5-.2l-.7 2.9z"/>
            <polygon points="144.2,419 142.3,420.8 141.7,417.9 144.1,418.7"/>
            <path d="M159.4 424.2c.2-.7.3-1.6.2-2.5l.2-.2c.8.4 1.6 1 2.4 1.7l-2.8 1zm48.6-12c-.4-.2-.6-.4-.9-.7-.2-.2-.4-.5-.6-.7-.4-.5-.6-1.1-.7-1.6l.3-.2c.5.3.9.4 1.4.5h.7c.2 0 .5-.1.5-.2l-.7 2.9zm65.8-71.4c-7.2 9.1-15.5 17.3-24.3 24.7l-3.3 2.7c-1.1.9-2.2 1.8-3.4 2.7l-6.9 5.2-7.2 4.9c-1.2.8-2.4 1.6-3.6 2.3l-3.7 2.3a296 296 0 0 1-30.4 16.3l-3.9 1.8c-1.3.6-2.6 1.1-4 1.7-1.3.6-2.6 1.1-4 1.7l-4 1.6c-5.4 2-10.8 4-16.4 5.4l-.1-.3c5.5-1.5 10.9-3.5 16.2-5.7l4-1.6c1.3-.6 2.6-1.2 3.9-1.7l3.9-1.8 3.9-1.9c10.3-5 20.3-10.6 30-16.8l3.6-2.3 3.6-2.4 7-5 6.8-5.2 3.3-2.7 3.3-2.8c8.6-7.5 16.6-15.7 23.5-24.8l2.2 1.7zm-115.5-16.4c-.2-.5-.2-.7-.3-1.1 0-.3-.1-.7 0-1 0-.7.2-1.3.5-1.8h.3c.2.5.5.9.8 1.3.2.2.3.3.5.4.2.1.4.3.5.2l-2.3 2z"/>
            <polygon points="61.6,283.6 58.9,283.8 60.2,281.1 61.8,283.3"/>
            <path d="M68.7 296.4c.6-.5 1.3-1.1 1.7-1.9h.3c.4.9.7 1.8.8 2.9l-2.8-1zm38.7 21.4c-.2-.5-.2-.7-.3-1.1 0-.3-.1-.7 0-1 0-.7.2-1.3.5-1.8h.3c.2.5.5.9.8 1.3.2.2.3.3.5.4.2.1.4.3.5.2l-2.3 2zm90.5-7c-5.1.7-10.2.8-15.2.8s-10.1-.1-15.1-.3c-5-.2-10-.5-15-.8-5-.4-10-.7-15-1.4-10-1.3-19.8-3.4-29.5-6.2-4.8-1.4-9.6-3-14.2-4.9a77.2 77.2 0 0 1-13.4-6.9l.2-.3c4.2 2.7 8.8 4.8 13.4 6.5 4.7 1.8 9.4 3.2 14.3 4.5 9.7 2.5 19.5 4.4 29.4 5.5 4.9.5 9.9.8 14.9 1.1 5 .2 10 .4 15 .5 5 .1 10 .1 15 0s10-.3 14.7-1.1l.5 3zm-57.3-39c0-.5.1-.8.2-1.1.1-.3.3-.6.4-.9.3-.6.8-1 1.2-1.3l.3.2c-.1.5 0 1 .1 1.5l.3.6c.1.2.2.4.4.4l-2.9.6zm-61.5-76.3c-.3.3-.5.7-.5 1.2-.1.4 0 1 .2 1.5l-.2.3c-.6-.2-1.2-.6-1.6-1.2-.4-.6-.7-1.3-.9-2l3 .2zm.3 16.5c-.4.4-.8.7-1.4 1-.5.3-1.2.4-2 .4l1.1-2.8c.1.3.4.6.8.8.4.2.9.3 1.3.4l.2.2zm20.9 30.1c0-.5.1-.8.2-1.1.1-.3.3-.6.4-.9.3-.6.8-1 1.2-1.3l.3.2c-.1.5 0 1 .1 1.5l.3.6c.1.2.2.4.4.4l-2.9.6zm74.6 30.4c-.7-.2-1.2-.3-1.8-.5-.6-.2-1.1-.4-1.7-.6-1.1-.4-2.1-.9-3.2-1.3-2.1-.9-4.2-2-6.2-3-4.1-2.1-8-4.4-11.9-6.7-3.9-2.3-7.7-4.8-11.5-7.3s-7.6-5-11.3-7.7c-7.3-5.4-14.4-11.1-21-17.3-6.7-6.2-13-12.7-18.7-19.7l.2-.2c5.9 6.9 12.4 13.2 19.2 19.2a231.62 231.62 0 0 0 32.8 24.1c3.8 2.4 7.7 4.7 11.6 7 3.9 2.2 7.9 4.4 11.9 6.4 2 1 4 1.9 6.1 2.8 1 .4 2.1.8 3.1 1.2.5.2 1 .4 1.5.5.5.2 1.1.3 1.4.4l-.5 2.7zM326 480.9c-.1-.7-.4-1.5-.8-2.3l.1-.3c.9 0 1.8.1 2.8.4l-2.1 2.2z"/>
            <polygon points="313.6,484.5 313.3,486.9 311,485 313.3,484.3"/>
            <path d="M356.5 377.8c-.2 2.2-.3 4.4-.8 6.5l-.6 3.2-.7 3.1-.7 3.1-.9 3.1-.9 3.1-1 3.1c-2.5 8.1-5.4 16.2-8.5 24.1-3.1 7.9-6.4 15.8-10 23.5-1.8 3.9-3.7 7.7-5.7 11.4-1 1.9-2 3.8-3.1 5.6-.6.9-1.1 1.8-1.7 2.7l-1.8 2.6-.2-.2 1.8-2.6c.6-.9 1.1-1.8 1.6-2.7 1.1-1.8 2-3.7 3-5.6 1.9-3.8 3.6-7.7 5.3-11.6 3.4-7.8 6.5-15.7 9.3-23.7 2.9-8 5.5-16 7.8-24.2l.9-3.1.8-3.1.8-3.1.7-3.1.6-3.1.5-3.1c.4-2.1.4-4.1.6-6.2l2.9.3zm-29.8 27c-.5.1-.8 0-1.1-.1l-1-.3c-.6-.2-1.1-.6-1.5-1l.1-.3c.5 0 1-.1 1.5-.3.2-.1.4-.2.6-.4.1-.1.4-.3.4-.4l1 2.8z"/>
            <polygon points="261.7,486.9 261,489.5 258.9,487.4 261.5,486.6"/>
            <path d="M275 484.5c-.2-.8-.6-1.6-1.1-2.3l.1-.3c1-.1 1.9 0 3 .3l-2 2.3zm29.8-34.6c-.5.1-.8 0-1.1-.1l-1-.3c-.6-.2-1.1-.6-1.5-1l.1-.3c.5 0 1-.1 1.5-.3.2-.1.4-.2.6-.4.1-.1.4-.3.4-.4l1 2.8zm23.5-85.7c-4.3 9.4-8.2 19.1-12.2 28.8l-5.9 14.5c-2 4.8-4 9.7-6.2 14.4-4.4 9.5-9.2 18.8-14.6 27.8-5.4 8.9-11.5 17.5-18.6 25.2l-.2-.2c6.9-7.8 12.7-16.5 18-25.5 5.2-9 9.8-18.4 13.9-27.9 2.1-4.7 3.9-9.6 5.8-14.5l5.6-14.6c3.8-9.7 7.4-19.5 11.6-29.2l2.8 1.2z"/>
            <polygon points="197.8,466 196.6,468.2 195.2,465.5 197.7,465.8"/>
            <path d="M212.9 467.1c0-.8-.1-1.6-.4-2.4l.2-.2c.9.1 1.8.5 2.7.9l-2.5 1.7zm45-32.8c-.5-.2-.6-.4-.9-.6-.2-.2-.5-.4-.7-.7-.4-.5-.7-1-.8-1.5l.2-.2c.5.2 1 .3 1.4.3.2 0 .4 0 .6-.1.2-.1.4-.1.5-.2l-.3 3zm32.9-69.5-3.3 7.2c-1.3 2.3-2.5 4.6-3.8 6.9l-4.2 6.6-4.5 6.4c-6.1 8.4-12.7 16.5-19.6 24.2-6.9 7.8-14.1 15.2-21.7 22.3-3.8 3.6-7.6 7-11.6 10.4-1 .9-2 1.6-3 2.5-1 .8-2 1.7-3.1 2.4l-3.2 2.3-3.3 2-.1-.3 3.3-2.1 3.1-2.3 3-2.4c1-.8 2-1.6 3-2.5 3.9-3.4 7.7-7 11.3-10.6 7.4-7.3 14.4-14.9 21.1-22.7 6.7-7.9 13.1-16 18.9-24.5l4.3-6.4 4-6.6c1.2-2.2 2.4-4.5 3.6-6.8 1.1-2.3 2-4.7 3.1-7l2.7 1z"/>
          </g>
          <path d="M348.8 386.1s-13.6-10-19-23.2c-2.1 11.8-16.1 24.6-16.1 24.6s-17.2-13.5-15.8-30.3c-8.1 10-22.5 17.6-22.5 17.6s-11.8-10.9-9.7-30.1c-10.4 10.1-25.3 16.2-25.3 16.2s-9.7-12.8-2.7-34.4c-15.1 17-33.8 10.8-33.8 10.8s-2.4-18.4 5.3-28.3c-12.4 8.4-30.4 2.1-30.4 2.1s2.3-16.7 13.9-24.8c-26.7-4.2-42.8-26.3-36.1-53.5 3.9 7.3 7.5 15 21.3 22.1 24.4 12.5 50.8 3.6 70.8 15.8 11.6 7.1 18.4 18.5 27.9 27.6 6.3 6.1 16.7 12.3 25.4 13.1 12.2 1.2 24-3 36-4.2 12.3-1.2 14.7 4 25.4 7.7"/>
          <g stroke="none" fill="#000">
            <path d="M209.6 274.9c3.4-.7 7-.6 10.5.2 3.5.7 6.9 2.1 9.9 3.9 1.5.9 3 1.8 4.4 2.8 1.4 1 2.9 1.9 4.2 3.3.6.7 1.3 1.4 1.7 2.2.5.8.8 1.6 1.2 2.4.7 1.6 1.3 3.1 2.6 4.3-1.7-.6-2.9-2.2-3.9-3.5-1-1.4-1.9-2.7-3.2-3.6-1.2-1-2.7-1.8-4.2-2.6-1.5-.9-2.9-1.7-4.4-2.6-2.9-1.7-5.9-3.1-9-4.2-3-1.3-6.3-2.1-9.8-2.6zm133 67.2c1.5 1.4 2.7 3.1 3.7 4.9 1 1.8 1.8 3.7 2.3 5.7.5 2 .8 4.1.7 6.1-.1 2.1-.6 4.2-1.6 6-.1-2.1-.4-3.9-.7-5.8-.3-1.9-.8-3.7-1.3-5.5-.5-1.8-1-3.7-1.6-5.5l-1.5-5.9zm-26.7-1.6c.9 1.7 1.4 3.5 1.8 5.4.3 1.8.5 3.7.4 5.6 0 1.9-.3 3.7-.7 5.6-.4 1.8-1 3.6-2 5.3-.3-1.9-.3-3.7-.3-5.5v-5.4c0-1.8.1-3.6.2-5.4.1-1.9.3-3.7.6-5.6zm-29.7-4.9c-.3 1.8-.6 3.4-1 5s-.9 3.2-1.4 4.8c-.5 1.6-1.1 3.1-1.6 4.6-.3.8-.6 1.5-.8 2.3-.3.8-.5 1.5-.6 2.4-.5-.7-.7-1.7-.8-2.6-.1-.9-.1-1.8 0-2.7.2-1.8.5-3.4 1.1-5.1.5-1.6 1.2-3.2 2.1-4.7.6-1.4 1.6-2.8 3-4zm-24.3-11.5c-.9 1.9-1.9 3.6-2.9 5.3-1 1.7-2.1 3.4-3.2 5a72.8 72.8 0 0 1-3.5 4.8c-1.2 1.6-2.5 3.1-3.9 4.6.3-2.1 1-4 1.9-5.9.9-1.8 1.9-3.6 3-5.3 1.1-1.7 2.4-3.3 3.8-4.8 1.4-1.3 2.9-2.7 4.8-3.7zm-42.3-33.5c-1.7.8-3.3 1.4-4.9 2.1l-4.7 1.9-4.7 2c-1.6.7-3.2 1.4-5 2 1-1.6 2.3-2.9 3.8-4s3.1-2 4.8-2.7c1.7-.7 3.5-1.2 5.3-1.4 1.7-.3 3.6-.3 5.4.1zm17 19.7c-1.8 1.2-3.6 2.2-5.3 3.2-1.7 1.1-3.4 2.1-5 3.3-.8.6-1.7 1.2-2.5 1.7l-2.6 1.7c-1.8 1.1-3.7 2-5.7 2.8 1.3-1.7 2.8-3.2 4.3-4.7.8-.7 1.5-1.4 2.3-2.1.8-.7 1.7-1.3 2.5-1.9 1.7-1.2 3.7-2.2 5.7-2.9 2-.7 4.1-1.1 6.3-1.1z"/>
            <polygon points="192.3,285 202.6,283.2 193.2,287.9"/>
            <polygon points="208.3,307.9 217.6,302.6 210.1,310.3"/>
            <polygon points="236.5,325.6 246,316.5 238.8,327.5"/>
            <polygon points="264.4,343.9 270.2,338.3 266.9,345.6"/>
            <polygon points="296.5,356.6 300.9,349.6 299.2,357.7"/>
            <polygon points="328.2,362.9 329.8,352.2 331.2,362.9"/>
          </g>
        </g>
        <g>
          <path d="M613.1 302.9c57-16.2 117.8-48 130.9-62 3.5-3.7-.5-2.1-4.1-.3-30.9 20.1-79.1 40.9-116.4 51m-161.3 99.1c14.7 49.3 38.6 93 49.7 98 1.5-.1-.3-1.6-1.1-2.9-.8-1.3-1.5-1.7-3.4-4.3-19.3-26.1-38.9-92.2-39.1-95m-42.5-24c1.4 45.8 17.2 97.2 27.2 104.4 1.6.3.1-2.1.1-2.1s-1.2-2-2.4-4.3c-13-26.9-18.2-97.5-17.6-100m150.7-33c63.4 14.6 122.6 15.5 141 9.4 4.9-1.6.8-2.4-3.2-2.5-36.8 2.9-85.8-2.2-123.2-11.2m-103.6 58.6c23.1 46.3 56 85 69.2 87.6 2.2-.4-.9-2-2.4-3.4-26-18.8-59.8-86.9-60.5-89.7m43.7-33.2c53.8 35.2 120.4 59.1 137.8 60.2 5.1.3.8-1.6-2.5-2.7-35-11.2-103.9-43.4-134.7-65.8m-35.1 20.8c36.5 39.1 90.6 83.4 107.2 88.8 4.9 1.6 1.2-1.3-1.8-3.2-31.1-19.5-78.5-64.1-102.8-93.4"/>
          <path d="M522.3 352.7c3.2 7.7 15.4 33.3 37.7 59.2 10.9 12.7 46.1 43.3 48.6 47.8 1.4 2.5.6 5-3.2 7-1.7 3.5-13 2.2-18-.4-8.9 1.2-37.7-22.4-43.9-33.4-6.4-.4-26.1-19-28.2-30-14.9-13.3-16.6-35.6-17.2-37.9m-21.4-35.3s10.3 30.2 11.1 32.4c3 7.6 9.8 24.9 11.9 29.9 3.4 8 5.1 13 14 35.2 11.9 29.4 31.6 49.5 32.8 55.3.7 3.2-.9 5.1-5.4 5.8-2.9 3.2-11.3 0-15.7-4.7-9.5-2-25.3-20.7-28.2-35-7.9-3.4-24-36-22-44.9-9.7-12.5-13.4-31-14.5-37.9-.3-1.8-5.8-31.1-5.8-31.1m5.3 41.9c1.7 13.5 4.7 31.6 10.7 47.1 6.7 18.6 23.5 50 24 57.8.2 2.8-1.5 4.3-5.8 4.6-3.1 2.5-11.3-1.7-14.8-6.1-8.6-2.5-25.2-37.3-26.1-49.9m158.3-165.8s31-11 62.3-34.8c11.4-8.1 42.5-36.4 48.1-38.4 3.1-1.1 5.2.1 6.6 4.5 3.6 2.3 5 11.5.9 16.5-.5 9.6-11.1 24.4-24.9 29.4-2.2 8.2-29.9 28.9-40.4 30-17.9 23.6-49.2 24.4-49.2 24.4"/>
          <path d="M605.7 296.3s24-2.5 31-3c8.6-.6 19.1-1.9 40-3.9 34.5-4.9 55.3-15 61.1-14.2 3.2.4 4.4 2.5 3.6 7 2 3.8-4.3 11.7-10.2 14.4-5 8.4-24.1 21.9-38.4 20.1-5.9 6.4-43.2 13.2-51.2 6.7-23.7 13.6-54.9 1.7-54.9 1.7m-37.4 12.8s8.2 10.2 19 20.1c10.8 9.9 19.8 18 35.4 26.8 15.6 8.7 52.8 23.3 56.7 27.3 2.1 2.2 1.8 4.4-1.5 7.4-.7 4-12.6 5.6-18.6 4.2-12.3 2.3-37.9-3.3-47.4-13-8.2 1.5-37.4-14.6-41.7-28-21.9-5.4-38.8-43.6-38.8-43.6"/>
          <path d="M580.9 320.8s32.7 13.4 39.3 15.5c41.6 13.7 83.8 21.1 88.9 24.1 2.8 1.7 3.1 4 .5 7.9.4 4.3-8.8 8.4-15.2 8.5-8 5.7-39.5 4.6-51.9-2.9-7.9 3.5-35.5-3-40.1-12.2-27.1 3-50.2-20.8-50.2-20.8"/>
          <g stroke="none" fill="#000">
            <path d="M601.7 360.5c.1.1.4 0 .6 0 .2 0 .4-.1.7-.2.4-.2.9-.5 1.3-.8l.3.1c0 .6-.1 1.2-.3 1.8-.1.3-.3.6-.4.9-.2.3-.3.6-.7.9l-1.5-2.7z"/>
            <polygon points="707.2,368.5 709.5,367 709.6,370 707.2,368.8"/>
            <path d="M692.6 377c.5-.9 1.1-1.7 1.9-2.3l.3.1c.1.9.5 1.7.9 2.4l-3.1-.2zm-51.1-4.3c.1.1.4 0 .6 0 .2 0 .4-.1.7-.2.4-.2.9-.5 1.3-.8l.3.1c0 .6-.1 1.2-.3 1.8-.1.3-.3.6-.4.9-.2.3-.3.6-.7.9l-1.5-2.7zm-67-42.1c4.2 2.7 8.9 4.9 13.6 7.1 4.7 2.1 9.5 4.2 14.2 6.1 9.6 3.9 19.3 7.6 29.1 10.8 9.9 3.2 19.8 5.9 30 8.1 10.1 2.1 20.4 3.8 30.8 4v.3c-10.4.1-20.8-1.4-31-3.3a318.46 318.46 0 0 1-45.1-12.2c-4.9-1.7-9.8-3.5-14.6-5.4-4.9-1.9-9.7-3.8-14.5-5.9-4.8-2.1-9.5-4.2-14.1-7l1.6-2.6zm-23.8 50.5c0 .1.3.1.5.2h.7c.5 0 .9-.2 1.4-.5l.3.2c-.1.5-.3 1.1-.7 1.6-.2.3-.4.5-.6.7-.3.2-.4.4-.9.7l-.7-2.9z"/>
            <polygon points="657,418.7 659.4,417.9 658.8,420.8 656.9,419"/>
            <path d="M638.8 423.2c.7-.7 1.5-1.3 2.4-1.7l.2.2c-.1.9 0 1.7.2 2.5l-2.8-1zm-46.3-13.9c0 .1.3.1.5.2h.7c.5 0 .9-.2 1.4-.5l.3.2c-.1.5-.3 1.1-.7 1.6-.2.3-.4.5-.6.7-.3.2-.4.4-.9.7l-.7-2.9zm-62.9-70.4c6.9 9 14.9 17.2 23.5 24.8l3.3 2.8c1.1.9 2.2 1.9 3.3 2.7l6.8 5.2 7 5 3.6 2.4 3.6 2.3c9.6 6.2 19.7 11.8 30 16.8l3.9 1.9 3.9 1.8c1.3.6 2.6 1.2 3.9 1.7l4 1.6c5.3 2.1 10.7 4.2 16.2 5.7l-.1.3c-5.6-1.4-11-3.3-16.4-5.4l-4-1.6c-1.3-.5-2.6-1.1-4-1.7-1.3-.6-2.7-1.1-4-1.7l-3.9-1.8a296 296 0 0 1-30.4-16.3l-3.7-2.3c-1.2-.8-2.5-1.5-3.6-2.3l-7.2-4.9-6.9-5.2c-1.2-.8-2.3-1.8-3.4-2.7l-3.3-2.7c-8.8-7.4-17.1-15.6-24.3-24.7l2.2-1.7zm110.9-16.5c.1.1.3-.1.5-.2s.4-.3.5-.4c.3-.3.6-.8.8-1.3h.3c.3.5.4 1.1.5 1.8v1c-.1.4-.1.6-.3 1.1l-2.3-2z"/>
            <polygon points="739.3,283.3 740.9,281.1 742.2,283.8 739.5,283.6"/>
            <path d="M729.6 297.4c.1-1.1.4-2 .8-2.9h.3c.5.8 1.1 1.4 1.7 1.9l-2.8 1zm-38.2 18.5c.1.1.3-.1.5-.2s.4-.3.5-.4c.3-.3.6-.8.8-1.3h.3c.3.5.4 1.1.5 1.8v1c-.1.4-.1.6-.3 1.1l-2.3-2zm-87.7-8.1c4.8.8 9.8 1 14.7 1.1 5 .1 10 .1 15 0s10-.3 15-.5c5-.3 10-.5 14.9-1.1 9.9-1.1 19.7-2.9 29.4-5.5 4.8-1.3 9.6-2.8 14.3-4.5 4.7-1.8 9.3-3.8 13.4-6.5l.2.3c-4.1 2.9-8.7 5-13.4 6.9-4.7 1.9-9.4 3.5-14.2 4.9-9.6 2.8-19.5 4.9-29.5 6.2-5 .7-10 1-15 1.4-5 .3-10 .6-15 .8-5 .2-10 .3-15.1.3-5 0-10.1-.1-15.2-.8l.5-3zm53.9-36.7c.1 0 .3-.2.4-.4l.3-.6c.1-.4.2-1 .1-1.5l.3-.2c.5.3.9.8 1.2 1.3.2.3.3.6.4.9.1.3.2.6.2 1.1l-2.9-.6zm67.3-75.9c-.2.7-.4 1.5-.9 2-.4.6-1 1-1.6 1.2l-.2-.3c.3-.5.3-1 .2-1.5-.1-.5-.3-.8-.5-1.2l3-.2zm-3.1 16.5c.5 0 1-.2 1.3-.4.4-.2.7-.5.8-.8l1.1 2.8c-.8 0-1.4-.1-2-.4-.5-.3-1-.6-1.4-1l.2-.2zm-23.9 29.8c.1 0 .3-.2.4-.4l.3-.6c.1-.4.2-1 .1-1.5l.3-.2c.5.3.9.8 1.2 1.3.2.3.3.6.4.9.1.3.2.6.2 1.1l-2.9-.6zm-72.3 28c.4-.1 1-.2 1.4-.4.5-.2 1-.3 1.5-.5 1-.4 2.1-.8 3.1-1.2 2.1-.9 4.1-1.8 6.1-2.8 4-2 8-4.1 11.9-6.4 3.9-2.2 7.8-4.6 11.6-7 3.9-2.4 7.7-4.8 11.4-7.4 7.4-5.1 14.6-10.7 21.4-16.7 6.8-6 13.3-12.3 19.2-19.2l.2.2c-5.7 7-12.1 13.6-18.7 19.7a247.2 247.2 0 0 1-21 17.3c-3.7 2.7-7.5 5.2-11.3 7.7-3.8 2.5-7.6 4.9-11.5 7.3-3.9 2.3-7.8 4.6-11.9 6.7-2 1.1-4.1 2.1-6.2 3-1.1.5-2.1.9-3.2 1.3-.5.2-1.1.4-1.7.6-.6.2-1.1.4-1.8.5l-.5-2.7zM473 478.7c1-.3 1.9-.4 2.8-.4l.1.3c-.4.7-.7 1.5-.8 2.3l-2.1-2.2z"/>
            <polygon points="487.8,484.3 490.1,485 487.8,486.9 487.5,484.5"/>
            <path d="M447.6 377.7c.2 2 .2 4.1.6 6.2l.5 3.1.6 3.1.7 3.1.8 3.1.8 3.1.9 3.1c2.3 8.1 4.9 16.2 7.8 24.2 2.9 8 6 15.9 9.3 23.7 1.7 3.9 3.4 7.8 5.3 11.6 1 1.9 1.9 3.8 3 5.6.5.9 1 1.9 1.6 2.7l1.8 2.6-.2.2-1.8-2.6c-.6-.9-1.1-1.8-1.7-2.7-1.1-1.8-2.1-3.7-3.1-5.6-2-3.8-3.9-7.6-5.7-11.4-3.6-7.7-6.9-15.6-10-23.5-3.1-7.9-6-16-8.5-24.1l-1-3.1-.9-3.1-.9-3.1-.7-3.1-.7-3.1-.6-3.2c-.5-2.1-.6-4.3-.8-6.5l2.9-.3zm27.9 24.3c0 .1.2.3.4.4.2.1.4.3.6.4.4.2.9.3 1.5.3l.1.3c-.4.4-.9.8-1.5 1-.3.1-.6.2-1 .3-.4.1-.6.1-1.1.1l1-2.8z"/>
            <polygon points="539.6,486.6 542.2,487.4 540.1,489.5 539.4,486.9"/>
            <path d="M524.1 482.2c1-.3 2-.4 3-.3l.1.3c-.5.7-.9 1.5-1.1 2.3l-2-2.3zm-26.7-35.1c0 .1.2.3.4.4.2.1.4.3.6.4.4.2.9.3 1.5.3l.1.3c-.4.4-.9.8-1.5 1-.3.1-.6.2-1 .3-.4.1-.6.1-1.1.1l1-2.8zm-21.9-84.2c4.2 9.7 7.8 19.4 11.6 29.2l5.6 14.6c1.9 4.9 3.7 9.7 5.8 14.5 4.2 9.5 8.7 18.9 13.9 27.9 5.2 9 11 17.7 18 25.5l-.2.2c-7.1-7.7-13.1-16.3-18.6-25.2a282.5 282.5 0 0 1-14.6-27.8c-2.2-4.8-4.2-9.6-6.2-14.4l-5.9-14.5c-4-9.6-7.9-19.4-12.2-28.8l2.8-1.2z"/>
            <polygon points="603.4,465.8 605.9,465.5 604.5,468.2 603.3,466"/>
            <path d="M585.7 465.4c.9-.5 1.8-.8 2.7-.9l.2.2c-.3.8-.4 1.6-.4 2.4l-2.5-1.7zm-42.9-34.1c0 .1.3.2.5.2s.4.1.6.1c.4 0 .9-.1 1.4-.3l.2.2c-.2.5-.4 1-.8 1.5-.2.2-.4.5-.7.7-.3.2-.5.4-.9.6l-.3-3zm-29.7-67.6c1 2.3 2 4.7 3.1 7 1.2 2.3 2.3 4.5 3.6 6.8l4 6.6 4.3 6.4c5.9 8.5 12.3 16.6 18.9 24.5 6.7 7.9 13.7 15.5 21.1 22.7 3.7 3.6 7.5 7.2 11.3 10.6 1 .9 2 1.7 3 2.5s2 1.7 3 2.4l3.1 2.3 3.3 2.1-.1.3-3.3-2-3.2-2.3c-1.1-.7-2-1.6-3.1-2.4-1-.8-2-1.6-3-2.5-4-3.3-7.8-6.8-11.6-10.4-7.5-7.1-14.8-14.6-21.7-22.3-6.9-7.8-13.5-15.8-19.6-24.2l-4.5-6.4-4.2-6.6c-1.3-2.3-2.5-4.6-3.8-6.9-1.2-2.4-2.2-4.8-3.3-7.2l2.7-1z"/>
          </g>
          <path d="M452.3 386.1s13.6-10 19-23.2c2.1 11.8 16.1 24.6 16.1 24.6s17.2-13.5 15.8-30.3c8.1 10 22.5 17.6 22.5 17.6s11.8-10.9 9.7-30.1c10.4 10.1 25.3 16.2 25.3 16.2s9.7-12.8 2.7-34.4c15.1 17 33.8 10.8 33.8 10.8s2.4-18.4-5.3-28.3c12.4 8.4 30.4 2.1 30.4 2.1s-2.3-16.7-13.9-24.8c26.7-4.2 42.8-26.3 36.1-53.5-3.9 7.3-7.5 15-21.3 22.1-24.4 12.5-50.8 3.6-70.8 15.8-11.6 7.1-18.4 18.5-27.9 27.6-6.3 6.1-16.7 12.3-25.4 13.1-12.2 1.2-24-3-36-4.2-12.3-1.2-14.7 4-25.4 7.7"/>
          <g stroke="none" fill="#000">
            <path d="M591.5 274.9c-3.4.6-6.7 1.3-9.9 2.4-3.2 1.1-6.1 2.5-9 4.2-1.5.8-2.9 1.7-4.4 2.6-1.5.9-2.9 1.7-4.2 2.6-1.2.9-2.2 2.2-3.2 3.6s-2.2 2.9-3.9 3.5c1.3-1.2 2-2.7 2.6-4.3.4-.8.7-1.6 1.2-2.4.4-.8 1.1-1.6 1.7-2.2 1.3-1.4 2.8-2.4 4.2-3.3 1.4-1 2.9-1.9 4.4-2.8 3-1.7 6.4-3.2 9.9-3.9 3.5-.6 7.1-.7 10.6 0zm-133 67.2c-.4 2-1 3.9-1.5 5.8s-1.1 3.7-1.6 5.5c-.5 1.8-.9 3.7-1.3 5.5-.3 1.9-.6 3.7-.7 5.8-1.1-1.8-1.5-3.9-1.6-6-.1-2.1.2-4.2.7-6.1.5-2 1.3-3.9 2.3-5.7 1-1.7 2.2-3.4 3.7-4.8zm26.7-1.6c.3 1.9.5 3.7.6 5.5.1 1.8.2 3.6.2 5.4 0 1.8.1 3.6 0 5.4 0 1.8-.1 3.6-.3 5.5-1-1.7-1.6-3.5-2-5.3-.4-1.8-.6-3.7-.7-5.6 0-1.9.1-3.7.4-5.6.4-1.7.9-3.6 1.8-5.3zm29.7-4.9c1.4 1.2 2.4 2.6 3.2 4.1.8 1.5 1.5 3.1 2.1 4.7.5 1.6.9 3.3 1.1 5.1.1.9.1 1.8 0 2.7-.1.9-.3 1.8-.8 2.6-.1-.9-.3-1.7-.6-2.4-.3-.8-.5-1.5-.8-2.3-.6-1.5-1.1-3.1-1.6-4.6-.5-1.6-1-3.1-1.4-4.8-.6-1.7-.9-3.3-1.2-5.1zm24.3-11.5c1.8 1 3.4 2.4 4.8 3.9s2.7 3.1 3.8 4.8c1.1 1.7 2.1 3.4 3 5.3.8 1.8 1.6 3.8 1.9 5.9-1.4-1.5-2.7-3.1-3.9-4.6-1.2-1.6-2.4-3.2-3.5-4.8-1.1-1.6-2.2-3.3-3.2-5l-2.9-5.5zm42.3-33.5c1.8-.4 3.7-.4 5.5-.2 1.8.2 3.6.7 5.3 1.4 1.7.7 3.3 1.6 4.8 2.7s2.8 2.4 3.8 4c-1.8-.6-3.4-1.3-5-2l-4.7-2-4.7-1.9c-1.7-.6-3.3-1.2-5-2zm-17 19.7c2.2 0 4.3.4 6.3 1.1 2 .7 4 1.7 5.7 2.9.9.6 1.7 1.3 2.5 1.9.8.7 1.6 1.3 2.3 2.1 1.5 1.4 3 2.9 4.3 4.7-2-.7-3.9-1.7-5.7-2.8-.9-.5-1.8-1.1-2.6-1.7-.9-.5-1.7-1.1-2.5-1.7-1.6-1.2-3.3-2.2-5-3.3-1.7-1-3.5-2-5.3-3.2z"/>
            <polygon points="607.9,287.9 598.5,283.2 608.8,285"/>
            <polygon points="591,310.3 583.5,302.6 592.8,307.9"/>
            <polygon points="562.3,327.5 555.1,316.5 564.6,325.6"/>
            <polygon points="534.2,345.6 530.9,338.3 536.7,343.9"/>
            <polygon points="501.9,357.7 500.2,349.6 504.6,356.6"/>
            <polygon points="469.9,362.9 471.3,352.2 472.9,362.9"/>
          </g>
        </g>
      </g>
      <g>
        <path d="M338.4 404.8c-4.1-60.9 25.2-99.5 29.2-121.9 2.4-8.5.9-26.2-1-30.4-5.2-3.4-9.3-11.1-9.5-18.4 2.7.4 10.8.6 10.9-1 2.7-6-4.4-14.4-14.8-17.6h.1-.1c3.1-2.9 2.1-7.1 0-10.3-1.5-2.2-3.5-4-4.9-4.3.9-2.5 6.7-10.6 13.8-13.8 6.6-3.3 11.7-5.4 21.1-5.4 8.4 0 18.3 1.5 25.6 5.4 19.1 11.2 29.8 32.1 32.3 56.1 5.2 14.8 4.3 34.6 5.5 47.1 2.8 43.4 16.6 75.5 16.6 114.6 0 57.4-42.3 107.5-42.3 171.2 0 46.7 31.1 64.4 55.9 86.1-6.7 4.2-21.5 5.4-33.1 1.4 0 0 7.3 23.5 4.4 35.8-12.2-1.7-23.6-6.6-31.9-14.3-1.2 11.5-7.7 27-15.1 36.5-7.4-9.4-14.2-25-15.4-36.5-8.3 7.6-19.7 12.6-31.9 14.3-2.9-12.3 4.4-35.8 4.4-35.8-11.6 4-26.4 2.7-33.1-1.4 24.8-21.7 55.9-39.4 55.9-86.1-.3-63.7-42.2-113.9-42.6-171.3z"/>
        <g stroke="none" fill="#000">
          <path d="M442.7 664.8c-4.9-4.4-9.1-9.6-12.4-15.2-3.3-5.6-5.8-11.6-7.6-17.8 2.3 6 5.2 11.8 8.9 17 3.7 5.2 8.1 9.9 13.1 13.7l-2 2.3zm-28.1 20.7c-2.2-9.6-2.5-19.3-2-28.9.5 9.6 1.7 19.2 4.8 28.1l-2.8.8zM357 662.4c5-3.8 9.4-8.5 13.1-13.7 3.7-5.2 6.6-11 8.9-17-1.8 6.2-4.3 12.2-7.6 17.8-3.3 5.6-7.5 10.8-12.4 15.2l-2-2.3zm27.1 22.3c3.1-8.9 4.4-18.5 4.8-28.1.5 9.6.3 19.3-2 28.9l-2.8-.8z"/>
        </g>
      </g>
    </g>
    <g>
      <g>
        <path class="secondary" stroke-linejoin="round" d="M325.6 223.9c-6.8 1.1-12.5 2.3-18.5 5.5 6-9.6 16.9-18 29.7-20.7-2.1-5.8 6.9-8.7 11.5-7.9 1.4.4 3.5 2.1 4.9 4.3 2.1 3.2 3.1 7.4 0 10.3 10.4 3.2 17.5 11.6 14.8 17.6-.1 1.6-8.2 1.5-10.9 1-8-.9-11.6-1.8-17.9-3.9-5-1.4-11.8-3.4-13.6-6.2z"/>
        <path fill="#f6f6f6" d="M372.9 217.6c3.6 2.6 9 3.1 13 .2 3.5-2.5 6.3-6.4 4.5-10.9-1.7-4.2-10.8-7.7-15.7-4-1.9 1.4-5.4 4.7-5.7 7-.5 3.3 1.6 6 3.9 7.7z"/>
        <g stroke="none" fill="#000">
          <path d="M385 256c.5.7.8 1.2 1.1 1.7.3.5.5.9.6 1.4.2.5.3.9.4 1.5.1.5.2 1.1.3 2-.9.1-1.6-.2-2.2-.6a4.16 4.16 0 0 1-1.5-4c.1-.8.5-1.5 1.3-2zm10.3-4.4a4.65 4.65 0 0 1 1.5 5.9c-.3.7-.8 1.3-1.6 1.6-.4-.8-.5-1.4-.7-2-.1-.6-.2-1.1-.2-1.7 0-.6.1-1.1.2-1.8.1-.6.4-1.2.8-2zm8.6-4.1c.8.6 1.2 1.4 1.5 2.2.3.8.5 1.6.5 2.4 0 .8-.1 1.7-.4 2.4-.3.8-.7 1.6-1.5 2.2-.5-.9-.7-1.6-.9-2.4-.2-.8-.2-1.5-.2-2.2 0-.7 0-1.5.2-2.2.2-.8.4-1.5.8-2.4zm7.7-8.8c.9.6 1.5 1.4 1.9 2.2.5.8.8 1.7.9 2.6.2.9.2 1.8.1 2.7-.1.9-.4 1.8-1.1 2.7-.6-.9-1-1.7-1.3-2.5-.3-.8-.5-1.6-.7-2.4l-.3-2.5c.1-.9.2-1.8.5-2.8zm4.7-7.3c.9 0 1.6.4 2.2.8a4.8 4.8 0 0 1 2.2 3.5c.1.7.1 1.5-.3 2.3-.8-.4-1.4-.8-1.8-1.3-.5-.5-.8-.9-1.2-1.4-.3-.5-.6-1.1-.8-1.7-.2-.6-.4-1.3-.3-2.2zm-.7-15.7c1 0 1.9.4 2.6.9.7.5 1.3 1.2 1.8 2 .4.8.7 1.6.8 2.5.1.9 0 1.8-.5 2.7-.8-.7-1.3-1.3-1.7-1.9-.5-.6-.8-1.2-1.2-1.8-.4-.6-.7-1.3-1-2-.3-.6-.6-1.4-.8-2.4zm-41 40.1a9.39 9.39 0 0 1 3 2.9c.3.5.6 1.1.8 1.7.2.6.4 1.3.5 2.2-.9 0-1.7-.3-2.3-.7-.6-.4-1.2-1-1.6-1.6-.4-.6-.7-1.3-.8-2.1-.1-.8 0-1.6.4-2.4z"/>
        </g>
        <path fill="none" d="M336.7 208.7s3-.4 8.2 1.5c2.2.8 5.7 3.2 8.2 5.2m-27.5 8.5c4.3-.7 8.6-1 13-.8 4.3.2 9.6.3 17.4 2.6"/>
        <g stroke="none" fill="#000">
          <path d="M378.8 214.8c.8-.7.2-1.9 0-2.6-.3-1.1-.4-2.2-.2-3.4.1-1 .4-2.1-.1-3l-.3-.3c-.7-.2-2 .6-2.4 1.1-.6.7-.8 2-1 2.9-.2 1.2-.2 2.6.4 3.7.6 1.1 1.8 2 3.1 1.8.1 0 .3-.1.5-.2zm-22.4 9.4c.8.2 1.6.5 2.4.8.8.3 1.6.6 2.3 1 .4.2.8.3 1.2.5.4.2.9.4 1.2.7.4.3.8.6 1.1 1 .1.2.3.5.4.8.1.3.1.7-.2.9l-.3-.1c-.3-.2-.6-.3-.9-.4-.3-.1-.7-.2-1-.4-.4-.1-.6-.2-1.1-.3l-1.2-.3-2.4-.6c-.8-.2-1.6-.5-2.3-.7l.8-2.9z"/>
        </g>
        <path fill="none" d="M371.2 206.3c-6.4 5.8-11.5 6.2-18-1.1"/>
        <g stroke="none" fill="#000">
          <path d="M373.8 201.8c1.2-1.1 2.7-1.9 4.3-2.3 1.6-.4 3.2-.6 4.7-.6s3 .2 4.4.2c.7 0 1.4 0 2.1-.1.7-.1 1.3-.3 2.2-.2-.4.7-1.2 1-1.9 1.3-.7.3-1.5.4-2.2.6-1.5.3-3 .4-4.4.6-1.4.2-2.7.5-3.9 1-1.2.5-2.3 1.1-3.5 1.7l-1.8-2.2z"/>
        </g>
      </g>
    </g>
  </g>
</svg>
