<svg xmlns="http://www.w3.org/2000/svg" fill="#d7374a" stroke="#000" viewBox="50 50 200 200">
  <metadata source="http://wappenwiki.org/images/a/a1/Dufva_i_V%C3%A4sterg%C3%B6tland.svg" license="https://creativecommons.org/licenses/by-nc-sa/3.0"/>
  <g id="dove" stroke-width="3" transform="translate(-29 119.5) scale(0.147)">
    <g>
      <g>
        <path class="secondary" d="M841.7 83.9c-3.2-5.5-8.4-6.8-8.4-6.8s-7.7-2.3-9.1 4.2c-1.3 6.5 2.5 9 2.5 9s4.1-2.3 8.4-.5c5.8 1.8 7.1 7.2 8.9 7.8 1.6-2.8-.3-10.3-2.3-13.7zm-85-17.6s-6.6.4-10.8 5.2c-2.6 3-4.3 10.8-1.8 14.4 1.2-.1 2.2-5.9 6.8-7.1a9.6 9.6 0 0 1 7.5 1.5m-7.6 4.3s-5 1.2-7.4 8.5c-2.6 9.1 5.2 16.7 6.1 15.8.3-.6-1.3-6.7 1.6-9.8 2.9-3.1 4.9-2.8 5.6-2.5m6.8 3.5s-4.9 2.2-5.4 9.8c-.4 9.4 8.2 15.2 8.9 14.2.4-.4-2.3-7.3-.2-11a6.2 6.2 0 0 1 6.5-3.3"/>
        <path class="secondary" d="M813.4 26.9c-1.1 2.3-4.2 8.7-3.6 9.8-1.7.8-3.2 6.3-2.5 9a17.7 17.7 0 0 0-3.7 8.9c-2 1.3-5 8-4 9.8-.6 1-1.5.8-2.5 2.4-2.1 3-1.9 3.8-5.6 3.8-4.5.2-5.3-5.4-10.6-4.5-1.6.3-2.9.3-3.9 1.4-3.3 3.1-8.9.7-9.5-.8-1.5-4.1-4.7-4.1-8-3.6-3.5.9-4.4 3.7-4.4 3.7s4-.1 4.1 7c.2 1.6-.3 3.7-1.9 5.2-.9-.1-1.9 0-3.2.3-6.4 1.6-5.6 5-5.6 6 .1.6.2.5.7.5 3-.5 7.2 5 5.9 11.1.7 2.4 5 3.1 6.4 2.9l.7 1.4c4.9-2.3 10.6 5.5 9.5 9.2.1 1.2 2.3 2.5 6.5 1.4 1.9-.7 3.6-1.5 4.2-4.4.6-2.9-.9-2.2-.1-4.8.9-2.5 5-1.4 6.6-2.1 4.4-2 4.2-7 10.2-7.9 4.1-.6 3-7.3 5.8-7.6 6.9-.7 6.4 3.2 11.4 1.3 1.9.5.6 5.2 6 5.6 4.4.2 5.4-2.6 5.4-2.6s-3.9-7.4 4.9-12.5c.8-1 .1-4.8-5.9-5.2-3.5-.6-5.1 2.8-5.1 2.8s-5.3-2.2-6.6-.2c-.9 1.2-3.5 1.4-5.7-.4-1.2-1.2-.1-2.6-.1-2.6l4.8-11.1s22.7-50.8 23.1-52.9c.5-6.4-13.2-10.5-13.2-10.5s-8.8 26.3-10.5 30.2z"/>
        <g stroke="none" fill="#000">
          <path d="M808.2 74.7c-.5-.9-.8-1.9-.9-2.8-.1-.9 0-1.8.3-2.6h.3c.2.8.5 1.5 1 2.1.4.6 1 1 1.5 1.3l-2.2 2zm-39.5-8.8c.2.7.3 1.5.2 2.2 0 .7-.2 1.4-.4 2.1a8.1 8.1 0 0 1-2.1 3.3l-.2-.2c.5-1.1.7-2.3.7-3.4 0-.6-.1-1.1-.3-1.6-.1-.5-.4-.9-.7-1.3l2.8-1.1zm-5.1 21a10 10 0 0 0-1.9-3.2l-.7-.4 1.9-2.3c.5.6.7 1.1.8 1.6l.3 1.5v2.7l-.4.1zm11.3 5.5c.6.6 1 1.2 1.4 1.9l.7 1.9c.4 1.3.6 2.5.7 3.8l-.3.1a16 16 0 0 0-1.9-3.1l-1.1-1.3c-.4-.4-.8-.6-1.2-.8l1.7-2.5zm45.7-9.3c-.6-1.4-1-2.9-1.2-4.6a7.8 7.8 0 0 1 1.4-5.2l2.2 2.1c-.4.3-.8.8-1.1 1.3a10.7 10.7 0 0 0-.9 6.3l-.4.1zm-.4-54.3c-1.1-.4-2.3-.5-3.5-.6l-1.7-.1h-.8l-.3.1c-.1 0 0 0 0 0-.1 0 .4 0 .5-.2l-1.9-2.3.9-.3h.4l.6.1a12.6 12.6 0 0 1 2.7 1.1c1.1.6 2.2 1.1 3.2 2l-.1.2zm-4.5 9.7a8 8 0 0 0-3-.6l-1.5.1-.7.1-.3.1h-.5l.1-3c-.2 0-.1 0 0 0H810.1l.5.1.9.2 1.6.7c1 .5 2 1.2 2.7 1.9l-.1.4zm-2.6 9.1-3.1-.7-1.4-.1c-.4 0-.8.2-.7.3l-1.2-2.8c1-.3 1.7 0 2.3.2a8 8 0 0 1 1.6.8c1 .6 1.8 1.3 2.6 1.9l-.1.4zm-3.7 9c-.9-.6-1.9-.8-2.9-.9h-1.4c-.4 0-.8.2-.7.3l-1.4-2.6c1.1-.4 1.8-.2 2.4 0l1.7.8c1 .6 1.9 1.3 2.6 2.3l-.3.1zm-3.8 10.1c-.9-.6-2-.8-3-.9l-1.5-.1-.7.1c-.2 0-.4.1-.3.2l-.8-2.9c.6-.1 1 0 1.3.1l.9.3a13 13 0 0 1 3.1 1.8c.5.4.9.8 1.2 1.3l-.2.1z"/>
          <path d="M757.1 78a8.4 8.4 0 0 1 6 3.3l-1.1-.6h.2-.1l-.4.4.1-.2.1-.2.1-.1.1-.1.7-.7.8-.7 1.7-1.4c.6-.4 1.3-.8 2.1-1.1.8-.3 1.5-.4 2.3-.4 3.1-.1 5.7.8 8.2 1.4 1.2.3 2.5.6 3.3.4l.8-.2.9-.3 1.8-.6 1.9-.7c.3-.1.7-.3 1.2-.3h1.2l2 .4 1.9.8v.3c-1.4.4-2.7.4-4 .5l-.8.1-.7.2-1.8.8-1.9.7-.9.3-1 .4c-.9.2-1.7.2-2.4.1l-2.1-.3c-2.6-.5-5.1-1.3-7.4-1.1l-1.5.3-1.4.8-1.4 1.1-.7.6-.7.7.1-.1-.1.2.1-.2c-.2.4-.6.6-.9.8l-.7.2h-1c-.4 0-.8-.3-1.1-.6a4 4 0 0 0-1.7-1.4c-.7-.4-1.4-.6-2.2-.7l.4-2.8zm38.9 5.1a4.7 4.7 0 0 1-2.4 2.4l-1.5.7-1.5.5-1.3.5-.6.3-.1.1.1-.1.1-.2V87 87.6l-.1.2c-.2.3-.5.4-.6.5l-.3.1h-3.2c-1 0-1.9.1-2.6.5l-1 .6-.6.5-.6.5a10 10 0 0 0-2.1 2l-2 2.4-2.2-.1-.1-.1-.2-.1-.4-.3-.8-.5a6 6 0 0 0-1.8-.5c-1.3-.1-2.8 0-3.9.5a5.6 5.6 0 0 0-2.7 2.3 6.6 6.6 0 0 0-.5 3.7l-3 .5a9 9 0 0 1 .7-5.6 7.6 7.6 0 0 1 4.3-3.8c1.8-.6 3.6-.8 5.4-.6.9.1 1.8.4 2.7.8l1.2.7.6.5.6.6-2.2-.1 2.2-2.4.6-.6.7-.6 1.3-1 .6-.4.6-.5c.5-.4 1.1-.7 1.7-.9 1.2-.5 2.5-.5 3.6-.5l1.6.1.8.1H787.7h-.1l-.2.1-.5.4-.1.2v.4-.5l.2-.4.3-.4.5-.3.8-.4 1.7-.5 1.5-.3 1.5-.3a5 5 0 0 0 2.6-1.3l.1.3z"/>
        </g>
      </g>
      <path d="M781.8-51.7c3.3 8 3.6 14.7 9.1 28.8 7.6 14.3 9.4 19.4 13.2 30.6.7 2.2 1.8 4.2 2.7 6.3.4.9 1.9 4.9 2.9 5 .8.1 3.6-3.5 4.2-4.1 3.6-1.7 5.8.8 6.6 2.3.3.6 2.5 5.2 3 5.6.6.5 4.3-3.6 5-3.7 1.6-.1.3-.3 1.9-.4.4 0 .9-.1 1.3.2.3.2.5.6.6.9.9 2 1.4 3.7 3.3 4.8 2.8 1.7 6-2.8 6.5-3.8 3.2-16.1 15.3-37.1 14.6-60.7"/>
      <g>
        <path stroke="none" fill="#000" d="M837.8-26.2c1 2.2 1.5 4.7 1.5 7.2s-.4 5-1.2 7.3c-.8 2.4-1.9 4.4-2.9 6.5-1 2.1-1.8 4.1-2 6.6a7.6 7.6 0 0 1-.8-3.6c0-1.3.2-2.5.5-3.7.6-2.4 1.6-4.6 2.3-6.7a47.7 47.7 0 0 0 2.6-13.6z"/>
      </g>
    </g>
    <g>
      <path class="secondary" d="M870.7 101.6c-3-5.6-8.1-7.1-8.1-7.1s-7.6-2.6-9.2 3.9c-1.6 6.4 2.1 9.1 2.1 9.1s4.2-2.1 8.4-.2c5.8 2.1 6.8 7.5 8.6 8.2 1.7-2.9.1-10.4-1.8-13.9zm-84.2-21.1s-6.6.1-11 4.7c-2.7 2.9-4.8 10.6-2.4 14.3 1.2-.1 2.5-5.8 7.1-6.8a9.8 9.8 0 0 1 7.5 1.8m-7.8 4.1s-5.1 1-7.7 8.2c-2.9 9 4.5 16.9 5.4 16 .3-.6-1.1-6.7 2-9.7 3.1-3 5-2.6 5.7-2.3m6.6 3.8s-5 2-5.8 9.6c-.7 9.4 7.6 15.6 8.3 14.5.4-.4-2-7.3.3-11a6.2 6.2 0 0 1 6.6-3"/>
      <path class="secondary" d="M844.8 43.5c-1.1 2.3-4.5 8.6-4 9.7-1.7.7-3.4 6.2-2.8 8.9a18.2 18.2 0 0 0-4 8.8c-2 1.2-5.3 7.8-4.4 9.7-.6 1-1.5.8-2.6 2.3-2.2 2.9-2 3.7-5.8 3.6-4.5 0-5.1-5.6-10.4-4.9-1.6.3-2.9.2-4 1.3-3.5 3-8.9.4-9.5-1.2-1.3-4.1-4.5-4.3-7.8-3.9-3.6.7-4.5 3.5-4.5 3.5s4 0 3.8 7.2a6 6 0 0 1-2.1 5.1c-.9-.1-1.9-.1-3.2.1-6.4 1.3-5.8 4.8-5.9 5.8.1.6.2.5.7.5 3-.4 7 5.3 5.4 11.3.6 2.4 4.8 3.3 6.3 3.2.1.5.4.9.7 1.4 5-2.1 10.4 6 9.1 9.6.1 1.2 2.2 2.6 6.4 1.6 1.9-.6 3.6-1.3 4.4-4.2.8-2.9-.9-2.3.1-4.8s5.1-1.2 6.7-1.8c4.5-1.8 4.5-6.8 10.5-7.5 4.1-.5 3.3-7.2 6.1-7.4 7-.5 6.2 3.5 11.3 1.8 1.9.5.4 5.3 5.7 5.8 4.4.4 5.5-2.3 5.5-2.3s-3.6-7.5 5.4-12.3c.8-.9.3-4.8-5.7-5.4-3.5-.7-5.2 2.6-5.2 2.6s-5.2-2.4-6.6-.5c-.9 1.2-3.6 1.3-5.7-.7-1.1-1.3 0-2.6 0-2.6l5.2-10.9S868.7 27 869.1 25c.8-6.4-12.7-11-12.7-11s-9.7 25.7-11.6 29.5z"/>
      <g stroke="none" fill="#000">
        <path d="M837.6 91.1c-.5-.9-.7-1.9-.7-2.8 0-.9.1-1.8.4-2.6h.3c.2.8.5 1.5.9 2.1a4 4 0 0 0 1.5 1.4l-2.4 1.9zm-39-10.5.2 2.2c-.1.7-.2 1.4-.5 2.1a8.3 8.3 0 0 1-2.2 3.2l-.2-.2c.5-1.1.8-2.3.8-3.4l-.2-1.6c-.1-.5-.4-.9-.6-1.3l2.7-1zm-6.1 20.8-1.1-2.3a7 7 0 0 0-.7-.9c-.2-.3-.5-.5-.7-.4l2-2.2c.5.6.6 1.1.8 1.7l.2 1.5c0 .9 0 1.9-.2 2.7l-.3-.1zm11.1 5.9c.6.6 1 1.3 1.3 1.9l.7 1.9c.3 1.3.5 2.5.6 3.8l-.3.1a20.2 20.2 0 0 0-2.9-4.5c-.4-.4-.8-.7-1.2-.8l1.8-2.4zm46.1-7.4a18 18 0 0 1-1-4.6c0-.8 0-1.7.3-2.5.2-.9.6-1.7 1.3-2.5l2.1 2.1c-.4.3-.9.7-1.2 1.2l-.8 1.9a13 13 0 0 0-.4 4.4h-.3zm1.8-54.2c-1.1-.4-2.3-.6-3.4-.8l-1.7-.1h-1.1c-.1 0 0 0 0 0-.1 0 .4 0 .5-.2l-1.8-2.4.9-.3h.4l.6.1.9.4 1.7.8a13 13 0 0 1 3.1 2.1l-.1.4zm-4.9 9.5c-1-.4-2-.6-3-.7h-1.5l-.7.1-.3.1h-.5l.2-3c-.2 0-.1 0 0 0H841.1l.5.1.9.3 1.6.7c1 .6 1.9 1.3 2.7 2l-.2.4zm-2.9 8.9-3-.8-1.4-.1c-.4 0-.8.2-.7.3l-1.1-2.8c1-.2 1.7 0 2.3.3l1.6.9 2.5 2-.2.2zm-4.1 8.9c-.8-.6-1.9-.9-2.9-1.1l-1.4-.1c-.4 0-.8.2-.7.3l-1.3-2.7c1.1-.3 1.8-.1 2.4.1a8 8 0 0 1 1.6.8c1 .6 1.9 1.4 2.5 2.4l-.2.3zm-4.3 10c-.9-.6-1.9-.8-2.9-1l-1.5-.1h-.7l-.3.1-.6-2.9c.6-.1 1 .1 1.3.1l.9.3c.6.3 1.1.5 1.6.9l1.4 1c.4.4.9.8 1.2 1.3l-.4.3z"/>
        <path d="M786.4 92.3a8.5 8.5 0 0 1 5.8 3.5l-1-.7h.2-.1c-.1 0-.3.1-.4.4l.1-.2.1-.2.1-.1.1-.1.7-.6.8-.7c.5-.5 1.1-.9 1.8-1.3.6-.4 1.3-.8 2.1-1l2.3-.4c3.1 0 5.6 1 8.1 1.7 1.2.4 2.5.7 3.3.6l.8-.2.9-.3 1.9-.6 1.9-.6 1.2-.3 1.2.1 2 .5c.6.2 1.3.5 1.9.9l-.1.3c-1.4.3-2.7.3-4 .3h-.8l-.7.2-1.8.7-1.9.7-.9.3-1.1.3c-.9.2-1.7.1-2.4 0l-2.1-.4c-2.6-.6-5.1-1.5-7.3-1.4-.5 0-1.1.1-1.6.3l-1.4.7-1.4 1.1-.7.6-.8.7.1-.1-.1.2.1-.2c-.3.4-.6.6-.9.7l-.7.2h-1c-.4-.1-.8-.3-1-.6-.4-.6-1-1.1-1.6-1.5-.7-.4-1.4-.6-2.2-.8l.5-2.7zm38.7 6.6c-.4 1.1-1.5 1.8-2.5 2.3l-1.6.6-1.6.4a7 7 0 0 0-1.3.5l-.6.3-.1.1.1-.1.1-.2v-.3V103.1l-.1.2c-.2.3-.5.4-.6.4l-.3.1h-.9l-.8-.1-1.5-.1c-1 0-1.9.1-2.7.4-.4.1-.8.4-1.1.6l-.6.4-.7.5c-.9.6-1.6 1.1-2.2 1.9l-2.1 2.3-2.2-.1-.1-.1-.1-.1-.3-.3-.8-.5-1.8-.6a9 9 0 0 0-4 .3 5.2 5.2 0 0 0-2.8 2.2c-.6 1.1-.8 2.4-.6 3.7l-3 .4c-.3-1.9 0-3.8 1-5.6a7.5 7.5 0 0 1 4.4-3.6 10 10 0 0 1 5.4-.3l2.7.9 1.2.8.6.5.6.6-2.2-.1 2.3-2.3.6-.6.7-.6c.5-.3.9-.7 1.4-.9l.7-.4.6-.4a7 7 0 0 1 1.7-.9c1.2-.4 2.5-.4 3.6-.4l1.6.2.8.1H816.6h-.1l-.2.1-.5.4-.1.2v.4l.1-.5.2-.4.4-.4.5-.3.8-.3c.5-.2 1.1-.4 1.7-.4l1.5-.2 1.5-.2c1-.2 1.9-.5 2.7-1.2v.1z"/>
      </g>
    </g>
    <path d="M846.6-212.6c46.2 34 57.3 63.5 87 84 49 31.1 40.9 65 94.6 83.4l-15.1 18.1 4.2 4.7c-39.2-10.8-92 4.7-128.2-2.1.5 23.6-11.9 47.4-15.2 63.5-.5.9-3.7 5.4-6.5 3.7-1.8-1.1-2.3-2.8-3.2-4.8-.2-.3-.3-.7-.6-.9-.4-.3-.8-.2-1.3-.2-1.6.1-.3.3-1.9.4-.7.1-4.5 4.1-5.1 3.6-.5-.4-2.6-5.1-3-5.6-.8-1.5-3-4-6.6-2.3-.6.6-3.4 4.2-4.2 4-1-.2-2.5-4.2-2.8-5.1-.9-2.1-1.9-4.2-2.6-6.4-3.8-11.3-7.6-15.4-15.1-29.8-5.4-14.1-5.7-20.8-8.9-28.9-17.8-10.6-57.6-9.8-98.3-39a113.2 113.2 0 0 1-69.7-91c-2.2-15.9-2.3-41.3 10-60.4 3-25 25.1-37.6 33-64.3 3-10.6 1.1-22.7-1.3-27.9a30.2 30.2 0 0 1-11.9-22.9c3.3.5 13.4.7 13.6-1.3 3.3-7.5-5.5-17.9-18.5-21.9l.1-.1-.1.1c3.9-3.6 2.6-8.9 0-12.9-1.8-2.8-4.4-5-6.2-5.4a40.5 40.5 0 0 1 17.2-17.2 50.6 50.6 0 0 1 26.4-6.7c10.5 0 22.8 1.9 32 6.7 23.8 14 37.2 40 40.2 70 4.3 7.9 8.7 15.8 11.3 24.4 4.4 14.6 5.9 23.4 13.9 41.9 3.5 6.5 10.2 24.7 42.8 48.6z"/>
    <g stroke="none" fill="#000">
      <path d="M695.7-312a13.3 13.3 0 0 1 3.4 3.8c.4.7.8 1.3 1.1 2.1.3.8.6 1.5.8 2.6-1-.1-1.9-.5-2.6-1.1a7.7 7.7 0 0 1-2.8-4.5c-.2-.9-.2-1.9.1-2.9zm25.9-5.2c.8.6 1.2 1.4 1.6 2.2.3.8.5 1.7.5 2.5 0 .9-.2 1.8-.5 2.6-.4.8-.9 1.6-1.8 2.1l-.6-2.5-.1-2.2c0-.7 0-1.5.2-2.2.1-.8.3-1.6.7-2.5zm-12.9 5.5 1 2.2.7 1.8.6 1.9.6 2.3c-1 0-1.8-.4-2.5-1a5.4 5.4 0 0 1-1.5-2.2c-.3-.8-.4-1.8-.2-2.6.1-.9.5-1.8 1.3-2.4zm23.6-10.6c.8.8 1.3 1.8 1.6 2.7a10.5 10.5 0 0 1 .1 6c-.3 1-.8 1.9-1.6 2.8-.4-1.1-.6-2-.8-3l-.2-2.8.1-2.8.8-2.9z"/>
    </g>
    <g>
      <path d="M1006.9-55.3c23.7 34.4 59.4 54.7 77.9 82.6 13.8 15 45.1 48 44.6 54.3l.1-.5c0 3.4-3.8 9.3-12 6.5.9 6-15.6 2.3-21.4.3-1.2 8.5-17 3.4-23.2 1-8.6 6-28.4-6.5-38.9-15.6a176.1 176.1 0 0 1-28.5-33c-21.6-31.1-27.9-62.1-41.6-94.4-3.7-8.7-4.9-18.5-7.1-28.3"/>
      <path fill="none" d="M1072.7 88.9c-7.6-3-16-9-19.7-12.2"/>
      <g stroke="none" fill="#000">
        <path d="M982.5-31.8a402.1 402.1 0 0 1 14.4 29.5l6.8 14.9c2.3 4.9 4.6 9.9 7.3 14.6 2.7 4.7 5.7 9.2 9 13.5a208.4 208.4 0 0 0 34 34.9l-1.9 2.3a197.4 197.4 0 0 1-23.9-22.7 144.3 144.3 0 0 1-19.1-26.9c-2.6-4.9-4.8-9.9-7.1-14.9l-6.5-15c-4.4-10.1-8.5-20.2-13-30.2z"/>
        <path d="M997.3-26.4a237 237 0 0 1 8.1 17.8c2.6 6 5 12 7.8 17.9 2.8 5.8 5.9 11.5 9.4 17 3.5 5.4 7.6 10.5 11.8 15.4a174.7 174.7 0 0 0 28 26.7 123.2 123.2 0 0 0 33.8 18.3l-1 2.8a124 124 0 0 1-34.6-18.9 166 166 0 0 1-28.1-27.4 140.3 140.3 0 0 1-21-33.1c-5.2-12.1-9-24.6-14.2-36.5z"/>
        <path d="M1014.3-14.7c6.1 11 10.4 22.9 16.6 33.6 1.5 2.7 3.2 5.3 5 7.8l2.8 3.7 2.9 3.6a180.9 180.9 0 0 0 42.7 35.8 207.8 207.8 0 0 0 33.5 16.4l-1.1 2.8-4.4-1.8-2.2-.9-2.2-1-4.3-1.9-4.3-2.1-2.1-1-2.1-1.1-4.2-2.2c-2.7-1.6-5.5-3.1-8.2-4.8a187 187 0 0 1-30-23c-4.6-4.3-8.9-9-12.8-13.9l-2.9-3.7-2.8-3.8a83.9 83.9 0 0 1-5-8.1c-5.9-11-9.9-22.9-14.9-34.4z"/>
        <path d="M1086 26.5c2.5 4 4.6 8.1 6.3 12.5a32 32 0 0 1 1.9 6.9c.1 1.2.2 2.6-.3 4.1-.2.7-.8 1.5-1.5 2l-.6.3-.7.3-1.3.1c-1.5-.1-2.6-.6-3.7-1l-3.2-1.5a110.5 110.5 0 0 1-17.1-11.9 163.3 163.3 0 0 1-19.7-19.3c-6-7-11.3-14.7-14.6-23.2 4.4 8 10 15.2 16 22a175.2 175.2 0 0 0 30.9 26.5 67.6 67.6 0 0 0 8.8 4.8c1 .4 2 .7 2.8.8.4 0 .4 0 .7-.2.2-.1.3-.3.5-.7.2-.7.2-1.7.1-2.7-.3-2-1-4.2-1.7-6.2a79 79 0 0 0-6-12l2.4-1.6zm-81.4-75.8 10 12.3a1345 1345 0 0 1 19.6 25c3.2 4.2 6.3 8.6 8.6 13.4l-10.1-12.2-10.1-12.1-10.2-12.1-10.1-12.2 2.3-2.1z"/>
      </g>
    </g>
    <path d="M803.8-261.4c3.5 6.7 10.2 24.9 42.8 48.8 31.6 24.9 71.4 47.1 104.7 69.6 17.7 12 46.3 34.7 62 49.1a526.2 526.2 0 0 1 63 68.7c16 24.8-77.8-17.6-147.2-24.1-17.6-1.6-65.4-4.4-89.5-8.9-33.7-6.2-121.4-28.5-149.5-94.3"/>
    <g stroke="none" fill="#000">
      <path d="M777.7-301.4c.3 2.3 0 4.7-.6 7a39.2 39.2 0 0 1-10.8 17.8c.8-2.2 1.9-4.3 2.9-6.3l3.1-6 2.9-6.1c1-2.1 1.7-4.2 2.5-6.4zm5 21.6A17.5 17.5 0 0 1 780-269a18.1 18.1 0 0 1-8.1 7.7l3.1-4.5a107.5 107.5 0 0 0 5.3-9l2.4-5zm1 19.6a14.5 14.5 0 0 1-10.3 12.9l2.7-3.2 2.5-3.1 2.4-3.2 2.7-3.4zm-113.1 27.7c-1.2 2.3-2.3 4.4-3.3 6.7-1 2.2-1.8 4.5-2.4 6.8a83.8 83.8 0 0 0-2.3 14.4c-1-2.4-1.5-4.9-1.5-7.5a26.7 26.7 0 0 1 4.2-14.8c1.4-2.2 3.1-4.2 5.3-5.6zM807.7-60.9a19 19 0 0 1 1.4 7l.7 6.9a49.8 49.8 0 0 0 3.7 13.1l-2.8 1.2a50.8 50.8 0 0 1-3.4-14.1c-.2-2.4-.1-4.8-.1-7.1l.5-7zm77.6 11.5c.6 2.1.9 4.1 1.3 6.2.4 2 1.1 3.9 1.7 5.9a41.6 41.6 0 0 1 2.2 12.8h-3a41.7 41.7 0 0 0-1.6-12.1c-.5-2-1-4.2-1.2-6.3-.1-2.2 0-4.4.6-6.5zm-185-141.5 1 7.5a62.5 62.5 0 0 0 4.2 14.2l3.2 6.9a21 21 0 0 1-5.3-5.8 31.3 31.3 0 0 1-3.3-7.2 25.8 25.8 0 0 1 .2-15.6zm32.4 42.5c2.8 4.8 7.1 8.3 11.7 10.9a44 44 0 0 0 15 5.4c2.6.6 5.3.9 8 1.2 2.7.3 5.4.3 8.1.4 5.4.1 10.9-.2 16.5-.2-5.4 1.3-10.9 2.2-16.4 2.6a59.4 59.4 0 0 1-24.9-3.4 33.7 33.7 0 0 1-13.8-9.6 19.9 19.9 0 0 1-4.2-7.3zm86.9 17.4a49.3 49.3 0 0 0 31.6 5 21 21 0 0 1-8 3 28.2 28.2 0 0 1-16.9-2.7 20.5 20.5 0 0 1-6.7-5.3zm26.5-11.9c3.9 3.2 8.6 4.7 13.3 5.9 4.7 1.2 9.6 2.1 14.4 2.5 2.4.3 4.9.4 7.3.5a122.6 122.6 0 0 0 22-1.8 55.7 55.7 0 0 1-18.3 4.4l-3.8.2c-2.5 0-5.1-.1-7.6-.3l-7.5-1.2a61 61 0 0 1-14.2-5.2c-2.1-1.3-4.1-3-5.6-5zM771.7-119a60.1 60.1 0 0 0 26.6 11.7c4.8.9 9.6 1.6 14.4 1.7 2.4.1 4.8 0 7.2-.4 2.4-.4 4.7-1.1 7-2.2a18.7 18.7 0 0 1-6.6 3.7 32 32 0 0 1-7.5 1.4 48.3 48.3 0 0 1-15.1-1.4 46.8 46.8 0 0 1-14.2-5.2 38.6 38.6 0 0 1-11.8-9.3zm142-4a27 27 0 0 0 7.6 3.3c2.7.7 5.4 1.3 8.2 1.7 5.5.9 11.1 1.5 16.7 2.1l8.4.9c2.8.3 5.6.6 8.4 1.2l2 .4 1.9.2c1.3.1 2.6 0 3.5-.3.5-.2.8-.4 1-.8.2-.4.2-.9.1-1.5-.2-1.2-.9-2.5-1.6-3.7l.2-.2c1.1.9 2.1 2 2.8 3.4.3.7.6 1.6.3 2.6s-1 1.8-1.8 2.2a9 9 0 0 1-4.7 1.1l-2.3-.1-2.2-.3-8.2-1.5-8.3-1.4c-5.6-.9-11.1-1.8-16.6-3-2.8-.6-5.5-1.4-8.2-2.3-2.7-1-5.3-2.1-7.5-3.9l.3-.1zm-11 11c3.6 2.6 7.7 4.4 11.9 5.8 4.2 1.4 8.6 2.4 12.9 3.2 8.7 1.7 17.6 2.6 26.5 3.5 8.9.9 17.9 1.4 26.7 3.1l3.3.6 3.3.7c2.2.4 4.3.7 6.5.8 1.1 0 2.1 0 3.1-.2a5 5 0 0 0 1.3-.5c.3-.2.5-.5.5-.9 0-.8-.5-1.9-1.1-2.7a24 24 0 0 0-2.1-2.6l.2-.2c.9.7 1.8 1.4 2.5 2.3.7.9 1.6 1.8 1.7 3.2.1.7-.3 1.6-.9 2a5 5 0 0 1-1.8.9c-1.2.4-2.4.5-3.5.6-4.7.3-9.2-.7-13.5-1.2-8.8-1-17.7-2.3-26.6-3.5a293 293 0 0 1-26.5-4.5c-4.4-1-8.7-2.3-12.9-3.9a41.3 41.3 0 0 1-11.8-6.5h.3zm-11.4 15.8a55.8 55.8 0 0 0 16.2 6.6 171 171 0 0 0 17.3 3.5c11.6 1.9 23.3 3.2 35.1 4.5 11.7 1.3 23.5 2.3 35.2 4.6 2.9.6 5.8 1.2 8.7 2 2.8.7 5.6 1.3 8.5 1.6 1.4.1 2.8.2 4.2 0 1.3-.2 2.5-.8 2.7-1.9.2-1.2-.4-2.6-1.1-3.8-.7-1.3-1.5-2.5-2.4-3.6l.2-.2c1 1.1 2.1 2.2 2.9 3.4l1.1 2c.3.7.6 1.5.5 2.4 0 .9-.6 1.8-1.3 2.4-.7.5-1.5.8-2.3 1-1.6.4-3.1.4-4.6.4-3-.1-6-.5-9-1.2l-8.6-1.6-17.4-2.6-17.5-2.5c-11.7-1.6-23.4-3.2-35-5.4-5.8-1.1-11.6-2.4-17.3-4.2a57.3 57.3 0 0 1-16.2-7.2l.1-.2zM882-77.3c6.8 2.8 13.9 4.9 21 6.5a266 266 0 0 0 21.7 3.8c14.5 2.1 29.2 3.5 43.8 5 14.6 1.5 29.4 2.9 43.9 5.9 7.2 1.5 14.5 3.3 21.4 5.9.9.3 1.7.7 2.6.9a19.7 19.7 0 0 0 5.1 1c.8 0 1.6-.2 1.9-.7.4-.5.4-1.3.2-2.1a32.1 32.1 0 0 0-3.9-7.1l.2-.2c1.2 1.4 2.4 2.8 3.4 4.4.5.8 1 1.6 1.3 2.6l.3 1.5c0 .5-.1 1.2-.4 1.7a3 3 0 0 1-1.4 1.1l-1.6.4c-1 .1-2 0-3-.1s-1.9-.3-2.8-.6l-2.7-.8c-7-2.1-14.1-3.7-21.3-5a789 789 0 0 0-43.6-6.4c-14.6-1.8-29.2-3.5-43.8-5.9a269 269 0 0 1-21.7-4.4c-7.2-1.8-14.2-4.1-20.9-7.1l.3-.3zM730.2-217.6a6 6 0 0 1 4.9 1.2c.7.5 1.2 1.1 1.7 1.8.4.7.8 1.5.8 2.5-1-.2-1.7-.5-2.4-.8-.7-.3-1.3-.7-1.9-1.2-.6-.4-1.1-.9-1.6-1.5a4.6 4.6 0 0 1-1.5-2zm11.7-.2a3 3 0 0 1 2.5-.8c.9.1 1.7.4 2.4.8s1.2 1 1.7 1.7c.4.7.7 1.4.8 2.4-1-.1-1.7-.3-2.3-.6a7 7 0 0 1-1.7-1l-1.5-1.1-1.9-1.4zm12.7-.8a9 9 0 0 1 3.7.7c1.2.5 2.2 1.1 3.2 1.9 1 .8 1.8 1.7 2.6 2.7.7 1 1.3 2.2 1.6 3.5-1.2-.5-2.2-1.2-3.2-1.8l-2.8-2-2.6-2.2-2.5-2.8zm-50.4-28.5a8.5 8.5 0 0 1 2.7 5.2c.3 2 .1 4-.4 6-.5 1.9-1.3 3.8-2.4 5.5a27 27 0 0 1-3.6 4.6l-2.2-2.1c1.2-1.3 2.3-2.7 3.3-4.1 1-1.4 1.8-3 2.3-4.6.6-1.6.9-3.3.8-5-.1-1.7-.4-3.4-.8-5.3l.3-.2zM869.9-8.2c1 2.2 1.4 4.7 1.4 7.2s-.4 5-1.2 7.3c-.8 2.4-2 4.4-3 6.5-1 2.1-1.8 4.1-2 6.5a8.9 8.9 0 0 1-.7-3.6c0-1.3.2-2.5.5-3.7.6-2.4 1.6-4.6 2.3-6.7a47.7 47.7 0 0 0 2.7-13.5zM844.3-.9a17 17 0 0 0-2.9-10.7c-1-1.4-2.5-2.6-3.9-4.5a6 6 0 0 1-1.3-3.2c-.1-1.1.1-2.4.8-3.2-.1 1.1.1 2 .6 2.8.4.8 1 1.4 1.7 2.1l2.2 1.9c.8.7 1.6 1.5 2.3 2.4 1.3 1.9 2.1 4.1 2.2 6.3.1 2.2-.4 4.4-1.7 6.1z"/>
    </g>
    <g>
      <path stroke-width="1" d="M830.7-90.7c8 .4 16.1.5 24-1.1s11.6-5.2 16.9-11.2"/>
      <path stroke="none" fill="#000" d="m830.7-90.7 11.2-.9c3.7-.3 7.3-.7 10.9-1.3 3.6-.6 7-1.6 10-3.4 3.1-1.8 5.8-4.3 8.8-6.6a31 31 0 0 1-7.5 8.7 24 24 0 0 1-10.9 4.3 70.2 70.2 0 0 1-22.5-.8z"/>
    </g>
    <g>
      <path stroke="none" fill="#000" d="M850.3-183.7c-4.5-3.5-10-4.8-15.4-6.7a30.7 30.7 0 0 1-11.4-6.6l-1.6-1.6-.7-.9-.6-.7a8 8 0 0 0-2.8-2.1l-1.6-.4-1.7.1-.8.2-1.1.4c-1 .3-1.8.2-2.6.2-.8-.1-1.6-.2-2.5-.5l-.6-.3-.4-.2-.9-.4a25.6 25.6 0 0 0-7.8-2c-2.8-.3-5.6-.2-8.5-.5v-.5c2.8-.3 5.6-.7 8.5-.8 2.9-.1 5.9.3 8.7 1.4l1 .4.5.2.3.1c.5.2 1.1.2 1.7.3.6 0 1.2 0 1.6-.2l.9-.4 1.2-.4c.8-.2 1.7-.3 2.5-.3.9.1 1.7.3 2.5.6a10.5 10.5 0 0 1 4.6 3.8l.6.8 1.3 1.5a38 38 0 0 0 10.2 6.6c2.6 1.1 5.2 2.2 7.8 3.5 2.9 1.5 5.3 3.1 7.1 5.4z"/>
    </g>
    <path d="M690.1-152.4c-10.5-28.4-4.7-57.5 9.3-74.5"/>
    <path class="secondary" d="M634.7-351.7a73.4 73.4 0 0 0-23.1 6.8c7.5-12 21-22.5 37-25.8-2.6-7.2 8.7-10.8 14.3-9.9 1.8.5 4.3 2.6 6.2 5.4 2.6 4 3.9 9.3 0 12.9 13 4 21.8 14.4 18.5 21.9-.1 2-10.2 1.8-13.6 1.3a95.8 95.8 0 0 1-22.3-4.8c-6.3-1.8-14.8-4.4-17-7.8z"/>
    <path fill="#F6F6F6" d="M693.6-359.6a14 14 0 0 0 16.2.3c4.4-3.2 7.8-8 5.6-13.5-2.1-5.3-13.5-9.6-19.6-5-2.3 1.7-6.7 5.9-7.1 8.7-.5 4.1 2.1 7.4 4.9 9.5z"/>
    <g stroke="none" fill="#000">
      <path d="M746.9-361.9a6 6 0 0 1 3 1.4c.9.7 1.6 1.5 2.1 2.5.5.9.9 2 1.1 3.1.1 1.1.1 2.2-.3 3.3l-1.9-2.5-1.5-2.4-1.3-2.4-1.2-3zm.8 19.5a6.4 6.4 0 0 1 4.2 3 6.4 6.4 0 0 1 .9 5.2 6.9 6.9 0 0 1-2-1.7l-1.4-1.9c-.4-.6-.7-1.3-1-2.1-.3-.6-.6-1.4-.7-2.5zm-5.9 9.2a8 8 0 0 1 2.1 2.8c.5 1 .9 2.1 1.1 3.2.2 1.1.3 2.2.1 3.4a7.9 7.9 0 0 1-1 3.3c-.6-1.1-1-2.1-1.3-3.1-.3-1-.6-2-.7-3l-.4-3.1c0-1.2-.1-2.3.1-3.5z"/>
    </g>
    <path fill="none" d="M648.6-370.6s3.7-.5 10.2 1.9a43 43 0 0 1 10.2 6.5m-34.3 10.5c5.3-.9 10.8-1.2 16.2-1 5.3.2 12 .4 21.7 3.2"/>
    <g>
      <path stroke="none" fill="#000" d="m673-351 3 .9c1 .4 2 .7 2.9 1.2l1.4.7a7.1 7.1 0 0 1 2.8 2c.2.3.4.5.5.9.1.3.2.8-.1 1.1l-.3-.1c-.2-.4-.6-.5-1.1-.7l-1.3-.5-1.3-.4-1.5-.4-3-.8-2.9-.9.9-3z"/>
    </g>
    <path stroke="none" fill="#000" d="M701-363.1c1.1-.8.2-2.4-.1-3.3a8.5 8.5 0 0 1-.2-4.2c.2-1.2.5-2.6-.2-3.7a.8.8 0 0 0-.4-.4c-.8-.3-2.5.7-3 1.4a9 9 0 0 0-1.2 3.6c-.3 1.5-.2 3.2.5 4.6s2.3 2.4 3.8 2.2c.3.1.5 0 .8-.2z"/>
    <path fill="none" d="M691.5-373.7c-8 7.3-14.4 7.7-22.5-1.4"/>
    <g>
      <path stroke="none" fill="#000" d="M695-379c1.5-1.3 3.3-2.3 5.2-2.8 1.9-.6 3.9-.7 5.8-.8l5.5.2 2.6-.1c.9-.1 1.7-.4 2.7-.4-.3.4-.7.7-1.1.9a12.7 12.7 0 0 1-4.1 1.1l-5.5.7a20.3 20.3 0 0 0-9.4 3.4L695-379z"/>
    </g>
  </g>
</svg>
