<svg xmlns="http://www.w3.org/2000/svg" fill="#d7374a" stroke="#000" viewBox="50 50 200 200">
  <metadata author="Erlenmeyer" source="https://upload.wikimedia.org/wikipedia/commons/c/cd/Drum_with_crossed_drumsticks.svg" license="https://creativecommons.org/licenses/by-sa/4.0"/>
  <g id="drum" stroke-width="0.75" transform="translate(58 59) scale(0.6)" stroke-linecap="round" stroke-linejoin="round">
    <path d="M115 100.3c0 10.9-22.5 19.7-50.1 19.7-27.7 0-50-8.8-50-19.7v-9.1c0-11 22.3-19.8 50-19.7 27.6 0 50 8.8 50 19.7v9z"/>
    <path fill="none" d="M115 91.2c0 10.9-22.5 19.7-50.1 19.7-27.7 0-50-8.8-50-19.7"/>
    <path class="secondary" d="M64.9 108.2c-26 0-47-7.6-47-17V40.9h94v50.3c0 9.4-21 17-47 17z"/>
    <path d="M17.3 48.3c-1 0-2 1.3-1.7 2.4L26.4 103a2 2 0 0 0 1.7 1.5 2 2 0 0 0 2.1-1l14.9-32.7 18 39c.3.6 1 1.2 1.8 1.2a2 2 0 0 0 1.9-1.3l17.9-39 14.9 32.8a2 2 0 0 0 2 1c.9 0 1.6-.7 1.8-1.5l10.8-52.2c.2-1-.5-2.3-1.5-2.5-1.1-.2-2.2.6-2.5 1.7l-9.6 46.6-14.1-31.6c-.3-.7-1.1-1-1.9-1-.7 0-1.4.5-1.8 1.2L65 103.6 47 65.1c-.2-.7-1-1.2-1.7-1.3-.8 0-1.6.4-1.9 1.1l-14 31.5L19.5 50c-.2-1-1.2-1.8-2.2-1.6z"/>
    <path d="M115 48.7c0 10.9-22.5 19.7-50.1 19.7-27.7 0-50-8.8-50-19.7v-9c0-11 22.3-19.8 50-19.8 27.6 0 50 8.8 50 19.7v9.1z"/>
    <path fill="none" d="M14.8 44.9c0-11 22.4-19.8 50-19.8C92.6 25.1 115 34 115 45"/>
    <path fill="none" d="M115 39.6c0 10.9-22.5 19.7-50.1 19.7-27.7 0-50-8.8-50-19.7"/>
    <g class="tertiary" stroke-width="0.5">
      <path d="M27.6 55.7 131.8 26c1.3-.4 2.3 1.2 2.7 2.9.5 1.7.5 3.5-.9 3.9l-105 27-3.6-1.1z"/>
      <path d="M27.6 55.7 22 56c-1.4 0-3.2 1.3-2.4 4.1.7 2.8 3 3.2 4.2 2.3l4.8-2.6z"/>
      <path d="m41.5 19 92.6 56.3c1.2.8.7 2.5-.3 4-.9 1.5-2.3 2.7-3.4 2L39.3 22.6 37.6 19z"/>
      <path d="m41.5 19-3.8-3.9c-1-1-3.2-1.4-4.7 1-1.6 2.5-.3 4.5 1.1 4.7l5.2 1.7z"/>
    </g>
  </g>
</svg>
