<svg width="800" height="800" fill="#d7374a" stroke="#000" viewBox="50 50 200 200" xmlns="http://www.w3.org/2000/svg">
  <metadata source="http://wappenwiki.org" license="https://creativecommons.org/licenses/by-nc-sa/3.0"/>
  <g id="eagle" stroke-width=".321">
    <path d="M79.87 89.13c-.09 4.98-1 9.13-1.72 11.84-1.7 6.15-3.05 7.85-3.12 7.77s1.51-4.12 2.55-8.68c.8-3.52 1.4-9.1 1.45-10.88.02-.23.76-.47.84-.05zM87.1 90.7c.14 5.25-.51 9.43-1.14 12.34-1.49 6.58-2.83 8.55-2.9 8.47-.08-.1 1.39-4.43 2.26-9.3a83.47 83.47 0 001-11.56c.01-.23.66-.4.77.05zM74.55 80.7a51.98 51.98 0 01-2.94 12.1c-2.52 6.36-4.17 8.04-4.24 7.93s2.1-4.21 3.72-8.94a82.45 82.45 0 002.82-11.43c.04-.25.6-.13.64.34z"/>
    <path d="M74.74 80.3s-1.31 11.43-5.47 24.28c-.19.34-.42.95-.67 1.47-.23.51-.35.62-.14 1.05.31.54 1.32.73 2.2.4 1.7.73 2.7-1.73 2.7-1.73s1.94-1.28 2.04-4.58c1.43-1.04 2.07-5.17 1.68-6.03 1.01-.6 1.95-4.45 1.95-4.45l.44-3.55L79 83.6zM73.8 80.85s-1.25 6.53-2.48 7.26c.3.03-.67 4.83-2.57 6.13.03.75-1.01 2.4-1.64 3.01-.67.82-1.93.97-2.1.87-.08-.03-1.13.65-2.16-.21-.56-.6.82-3.29.87-3.5.16-.23 1.63-4.17 2.52-7.51.95-3.56 1.69-7.94 1.66-8.71 0-.2 1.64-4.44 3.52-2.96 1.88 1.5 2.37 5.62 2.37 5.62zM85.86 89.19c.75 2.35-.26 4.51-.27 4.57 0 .3.34 5.67-1.2 6.67.8.63-.9 7.55-2.21 7.72.44 2.2-1.8 4.92-2.81 4.85-1.38 1.85-4.34 1.6-4.16.82-1.38-.3-1.28-1.65-.97-1.89.02-.02-.57-.9.06-1.26 1.04.94 1.95-.14 2.47-1.17.6-1.32 1.1-3.55 1.75-6.46 1.08-4.84 1.7-13.03 1.57-15.08-.02-.2 1.73-1.62 3.46-1.33 1.74.28 2.25 1.3 2.31 2.56zM87.5 91.34c.5 7.18-1.82 18.38-1.82 18.38s-.16.77-.38 1.63c-.21.86.48 1.28 1 1.27.74.03 1.35-.6 1.35-.6s.8-.1 1.3-1.03c.42-.6.5-.97.46-1.34.74-.03 2.18-3.32 1.94-5.27 1.2-.95 1.48-5.78 1-6.53 1.47-.54 1.23-4.76 1.23-4.76s.97-.22-.94-2.44c-1.88-2.2-4.72.08-5.14.69zM125.39 80.7a51.98 51.98 0 002.94 12.1c2.51 6.36 4.17 8.04 4.24 7.93s-2.1-4.21-3.73-8.94a82.45 82.45 0 01-2.81-11.43c-.04-.25-.6-.13-.64.34z"/>
    <path d="M125.2 80.3s1.31 11.43 5.47 24.28c.18.34.42.95.67 1.47.23.51.35.62.13 1.05-.3.54-1.31.73-2.2.4-1.69.73-2.68-1.73-2.68-1.73s-1.95-1.28-2.05-4.58c-1.43-1.04-2.07-5.17-1.68-6.03-1.01-.6-1.96-4.45-1.96-4.45l-.44-3.55.49-3.57zM126.15 80.85s1.24 6.53 2.47 7.26c-.3.03.67 4.83 2.57 6.13-.04.75 1.01 2.4 1.63 3.01.68.82 1.94.97 2.11.87.08-.03 1.12.65 2.16-.21.56-.6-.82-3.29-.87-3.5a65.03 65.03 0 01-2.52-7.51c-.95-3.56-1.69-7.94-1.66-8.71 0-.2-1.65-4.44-3.52-2.96-1.88 1.5-2.37 5.62-2.37 5.62zM114.08 89.19c-.75 2.35.25 4.51.26 4.57 0 .3-.33 5.67 1.21 6.67-.8.63.9 7.55 2.2 7.72-.43 2.2 1.8 4.92 2.82 4.85 1.38 1.85 4.34 1.6 4.15.82 1.38-.3 1.29-1.65.98-1.89-.02-.02.56-.9-.07-1.26-1.04.94-1.94-.14-2.46-1.17-.6-1.32-1.11-3.55-1.75-6.46-1.08-4.84-1.7-13.03-1.58-15.08.03-.2-1.72-1.62-3.45-1.33-1.75.28-2.25 1.3-2.31 2.56zM112.44 91.34c-.5 7.18 1.82 18.38 1.82 18.38s.16.77.37 1.63c.22.86-.47 1.28-1 1.27-.73.03-1.34-.6-1.34-.6s-.8-.1-1.3-1.03c-.42-.6-.5-.97-.47-1.34-.73-.03-2.17-3.32-1.93-5.27-1.21-.95-1.48-5.78-1-6.53-1.47-.54-1.23-4.76-1.23-4.76s-.97-.22.93-2.44 4.73.08 5.15.69z"/>
    <path d="M112.85 90.7c-.15 5.25.5 9.43 1.13 12.34 1.49 6.58 2.83 8.55 2.9 8.47.08-.1-1.4-4.43-2.26-9.3a83.47 83.47 0 01-1-11.56c-.01-.23-.67-.4-.77.05zM120.07 89.13c.08 4.98 1 9.13 1.72 11.84 1.7 6.15 3.05 7.85 3.12 7.77s-1.51-4.12-2.55-8.68a79.1 79.1 0 01-1.46-10.88c0-.23-.76-.47-.83-.05zM128.15 104.21c-2.08-5.2-4.27-12.54-4.59-16.33l.26.03c.5 5.33 1.99 10.25 3.9 15.23.13.35.34.76.43 1.07z"/>
    <path d="M103.53 88.6l1.02-2.48c.8-.37 1.59-.34 2.39-.68.85-.35 2.06-.81 3.25-.86 1.5-.08 2.74.47 4.19-.08.82-.31 1.97-1.9 2.62-2.48 1.07-.95 2.43-1.44 2.54-1.49a3.95 3.95 0 001.52-1.5c.54-.9.72-2.57.23-3.52-.3-.59-.75-.92-1.26-1.22-.6-.33-1.46-.98-1.75-1.85-.86-2.58-.53-6.17 1.52-7.1a3.87 3.87 0 013.17-2.66c1.53-.26 3.43.55 3.95 1.46 0 0 1.16.34 2.3 1.15a4.8 4.8 0 011.5 2.02c.63 1.43.13 1.94.65 2.53.36.42 1.03.34 1.42.3-.45 1.21-1.9.84-1.9.84 0 .41 1.08 1.08 1.53 2.87s.14 2.71.63 3.93c.47 1.18 1.83 1.07 2.54.45.11-.1.37-.03.25.3-.27.73-.8 1.9-2.48 1.68a2.5 2.5 0 01-.94-.44c-.1.3.17 1.5-.38 1.64-.2.05-.58-.09-1.05-.26-.29-.1-.55.16-.1.8.22.32.54.96.35 1.15-.48.29-1.97-.75-2.35-.13 0 0 .43.85.1 1.41-.33.56-1.63-.23-1.86.2.04.4.29.66.05 1.16-.52.58-1.37.24-1.75.63.09.3-.31 1.35-.31 1.35-.7.57-1.95.03-2.04.07s-.49 1.15-.97 1.39c-.43.21-.79-.43-.86-.39-.08.03-.35.88-.88 1.2-.38.21-1.5-.27-1.64-.27-.56 0-.78 1.29-1.3 1.54-.49.22-1.13-.62-1.48-.35-.46.3-.23.66-.82 1.16s-1.4-.52-1.63-.33c-.29.28-.28.77-.4.95s-.79.08-1.44-.38c-.9-.63-.92-.24-1.04-.26-.59.3-.51.64-2.39 1.03-1.2.31-1.77-.9-1.77-.9s-.3.57-1.35.56c-.8-.05-1.85-1.16-1.85-1.16.04-.1.29-.02.4.01-.2-.47-.32-.97-.35-1.47-.04-1.1.02-.47.22-1.52zM77.22 127.42s1.15-.4 1.51.51-.13 1.25-.13 1.25-.33.12-.57.38c-.62.65-.35 1.26.07 1.67.2.19.38.2.42.29.14.19-1.34.4-2.15-1.21-.88-1.75.85-2.9.85-2.9zM90.86 125.14s-1.21-.17-1.4.81c-.18.98.4 1.2.4 1.2s.33.05.62.26c.74.51.6 1.16.26 1.66-.15.22-.32.26-.35.36-.1.21 1.38.13 1.87-1.62.5-1.89-1.4-2.67-1.4-2.67zM76.71 122.11s1.1.55.72 1.46-.99.78-.99.78-.3-.15-.66-.14c-.9 0-1.13.64-1.12 1.23 0 .27.12.4.1.5-.05.24-1.23-.67-.67-2.38.61-1.87 2.62-1.45 2.62-1.45zM79.7 117.65s.6 1.09-.25 1.6-1.24.06-1.24.06-.17-.3-.46-.5c-.74-.52-1.28-.14-1.63.34-.15.21-.14.4-.21.46-.17.17-.6-1.27.83-2.34 1.57-1.15 2.97.38 2.97.38z"/>
    <path d="M92.7 116.55c-2.04 2-3.96 4.13-5.9 6.23-.28.52-1.8 1.47-.71 1.84.74-.06 1.28 1.18 1.96.3.56-.44 1.36.08 1.8-.61.87-.28 1.69.88.62 1.24-.58.47-.43 1.33-.62 1.82-.62.51-1.5-.29-1.3-1-.46.08-.3 1.1-1.05.83-.42-.69-1.16-.72-1.88-.8-.53-.21-.76-1-1.4-.43-.66.24-1.03.95-1.7 1.16-.73-.34-1.39-.04-1.9.52-.65.1-1.06.5-.82 1.17-.1.82-1.59.97-1.35-.02-.12-.86-1.2-1.02-1.43-1.63.17-.88 1.24-.63 1.67-.53.8-.2.87-1.53 1.88-1.35.45.16 1.88.36 1.33-.44-.65-.13-1.48.27-2.08-.3a3.5 3.5 0 00-1.94 0c-.27.78-1.6.63-1.6-.22.65-.47.68-1.49.36-2.16-.03-.9 1.69-.47 1.52.39.63.14 1.53-.31 2.05.42.6.22 1.35-.09 1.88.41-.57-.68-1.22-1.49-2.09-1.79-.39-.35-.03-1.67-.97-1.19-.8.4-1.6-1.26-.55-1.25.81-.24.97-1.2 1.36-1.72.93-.06 1.07 1.05.81 1.7.54.54.29 1.6 1.3 1.67.66.45.68 1.38 1.24 1.87.96.63 1.26-.93 1.96-1.27.58-.7 1.24-1.37 1.92-2a50.88 50.88 0 013.94-4.13c.54-.51 1.5-.32 1.76.4.12.27.16.64-.07.87zM122.72 127.42s-1.15-.4-1.52.51.14 1.25.14 1.25.32.12.57.38c.62.65.35 1.26-.08 1.67-.19.19-.37.2-.41.29-.14.19 1.33.4 2.15-1.21.88-1.75-.85-2.9-.85-2.9zM109.08 125.14s1.2-.17 1.4.81c.17.98-.4 1.2-.4 1.2s-.34.05-.63.26c-.73.51-.58 1.16-.25 1.66.15.22.32.26.35.36.1.21-1.38.13-1.87-1.62-.5-1.89 1.4-2.67 1.4-2.67zM123.23 122.11s-1.1.55-.72 1.46.98.78.98.78.31-.15.67-.14c.9 0 1.13.64 1.12 1.23 0 .27-.12.4-.1.5.05.24 1.22-.67.67-2.38-.61-1.87-2.62-1.45-2.62-1.45zM120.23 117.65s-.59 1.09.26 1.6 1.24.06 1.24.06.17-.3.46-.5c.74-.52 1.28-.14 1.62.34.15.21.14.4.22.46.17.17.6-1.27-.84-2.34-1.56-1.15-2.96.38-2.96.38z"/>
    <path d="M107.25 116.55c2.08 2.05 4.04 4.2 6 6.36.36.48 1.72 1.54.48 1.74-.67.02-1.2 1.11-1.83.26-.56-.43-1.36.1-1.81-.6-.86-.28-1.68.88-.61 1.24.58.47.43 1.33.62 1.82.62.51 1.5-.29 1.3-1 .46.08.3 1.1 1.05.83.42-.69 1.16-.72 1.87-.8.54-.21.77-1 1.4-.43.67.24 1.04.95 1.71 1.16.73-.34 1.39-.04 1.9.52.65.1 1.06.5.82 1.17.1.82 1.58.97 1.35-.02.11-.86 1.19-1.02 1.43-1.63-.18-.88-1.24-.63-1.67-.53-.8-.2-.87-1.53-1.89-1.35-.44.16-1.87.36-1.32-.44.65-.13 1.48.27 2.07-.3a3.5 3.5 0 011.95 0c.27.78 1.6.63 1.6-.22-.65-.47-.69-1.49-.36-2.16.02-.9-1.69-.47-1.52.39-.63.14-1.53-.31-2.05.42-.6.22-1.35-.09-1.89.41.58-.68 1.23-1.49 2.1-1.79.39-.35.03-1.67.97-1.19.8.4 1.6-1.26.55-1.25-.82-.24-.97-1.2-1.36-1.72-.94-.06-1.07 1.05-.82 1.7-.54.54-.28 1.6-1.3 1.67-.65.45-.67 1.38-1.23 1.87-.96.63-1.26-.93-1.96-1.27-.59-.7-1.24-1.37-1.92-2a50.4 50.4 0 00-3.94-4.13c-.54-.51-1.51-.32-1.77.4-.12.27-.16.64.08.87zM96 98.34c-.11 2.19-2.06 4.3-3.16 7.61-1.19 3.56-1 5-2.45 7.13-.66.9-1.7 2.31-3.03 2.17-1.32-.14-2.01-1.4-3.3-1.54-.84-.08-1.78.5-1.88 1.34s.26 1.06.26 1.06.1-1.18 1.48-1.03c.96.1 1.35 1.23 1.35 1.23s-.66.4-.76 1.35c-.06.65.55 1 .55 1s-.17-1.34 1.1-1.2c.64.06 1.13.3 1.77.25 1.58-.1 3.39-1.31 3.39-1.31s.2 1.08.08 2.12c-.17 1.56-.67 2.08-.67 2.08s.23.1.57-.1.73-.7.73-.7.68 1.2.58 2.05-.59 1.16-.59 1.16 1.57.33 1.67-1.55c.05-.77-.47-2.2.3-3.74.37-.68.85-1.3 1.3-1.93 1.1-1.54 2-3.16 2.66-4.94l.54-5.13z"/>
    <path d="M103.93 98.34c.12 2.19 2.07 4.3 3.17 7.61 1.19 3.56 1 5 2.45 7.13.65.9 1.7 2.31 3.03 2.17 1.31-.14 2.01-1.4 3.3-1.54.84-.08 1.78.5 1.88 1.34s-.26 1.06-.26 1.06-.1-1.18-1.49-1.03c-.95.1-1.34 1.23-1.34 1.23s.66.4.75 1.35c.07.65-.54 1-.54 1s.17-1.34-1.1-1.2c-.64.06-1.14.3-1.77.25-1.58-.1-3.39-1.31-3.39-1.31s-.2 1.08-.09 2.12c.18 1.56.68 2.08.68 2.08s-.24.1-.57-.1-.74-.7-.74-.7-.67 1.2-.57 2.05.58 1.16.58 1.16-1.56.33-1.67-1.55c-.04-.77.48-2.2-.3-3.74-.36-.68-.84-1.3-1.29-1.93-1.1-1.54-2-3.16-2.66-4.94l-.54-5.13zM96.41 88.6l-1.03-2.48c-.79-.37-1.58-.34-2.38-.68-.85-.35-2.07-.81-3.25-.86-1.5-.08-2.74.47-4.19-.08-.82-.31-1.97-1.9-2.62-2.48-1.07-.95-2.43-1.44-2.55-1.49a3.95 3.95 0 01-1.52-1.5c-.53-.9-.71-2.57-.22-3.52.3-.59.75-.92 1.26-1.22.59-.33 1.46-.98 1.75-1.85.86-2.58.53-6.17-1.52-7.1a3.87 3.87 0 00-3.17-2.66c-1.53-.26-3.44.55-3.95 1.46 0 0-1.17.34-2.3 1.15a4.8 4.8 0 00-1.5 2.02c-.63 1.43-.14 1.94-.65 2.53-.36.42-1.03.34-1.42.3.45 1.21 1.9.84 1.9.84 0 .41-1.08 1.08-1.53 2.87-.46 1.8-.14 2.69-.63 3.9-.47 1.19-1.83 1.08-2.55.46-.1-.1-.36-.03-.24.3.25.71.79 1.9 2.47 1.68.45-.07.94-.44.94-.44.1.3-.17 1.5.37 1.64.2.05.58-.09 1.05-.26.3-.1.56.16.11.8-.22.32-.55.95-.35 1.15.48.29 1.97-.75 2.35-.13 0 0-.44.84-.1 1.41.33.56 1.63-.23 1.86.2-.05.4-.3.66-.06 1.16.53.58 1.37.24 1.76.63-.09.29.3 1.35.3 1.35.7.57 1.96.03 2.05.06s.48 1.16.96 1.4c.43.2.8-.43.87-.4.08.04.34.89.88 1.2.37.22 1.5-.26 1.64-.26.55 0 .78 1.28 1.29 1.54.5.22 1.13-.62 1.49-.35.46.3.22.66.82 1.15s1.4-.51 1.63-.32c.29.28.28.77.4.94s.79.09 1.44-.37c.9-.63.92-.25 1.04-.26.58.3.51.63 2.38 1.03 1.2.31 1.78-.9 1.78-.9s.3.57 1.35.56c.8-.06 1.85-1.16 1.85-1.16-.04-.1-.3-.02-.4.01.2-.47.31-.97.34-1.47.06-1.08 0-.45-.2-1.5z"/>
    <path d="M118.7 132.6a4.36 4.36 0 00-4.26-3.01c-1.94 0-3.23.78-4.24 1.64-2.17 1.85-3.11 4.44-5.77 4.44-1.44 0-2.34-1.2-2.53-2.7-.1-.81-.05-3.24.05-6 .11-2.62.6-6.3.76-8.43.1-2.15.15-2.07.15-2.07s.27.25.96.25 1.18-.68 1.18-.73-.9-.06-1.45-.81c-.7-1.2.05-2.97.15-3.9a6.79 6.79 0 00-.38-2.63c.07.1.27.4.54.52.36.23.75.11.77.06s-.51-.56-.51-1.16c0-.75.54-1.57.66-2.36.12-.76-.23-1.7-.23-1.7s.5.46.9.53c.27.05.43 0 .46-.05s-.4-.56-.41-1.1c-.03-.74.38-1.55.38-1.55l.32-.75s.25-.73.25-1.48c0-.66-.25-1.35-.25-1.35s.33.35.76.5c.34.11.78.11.83.01s-.36-.3-.39-.9c0-.99.65-2.11.65-3.16 0-.87-.67-1.94-.67-1.94s.47.6 1.06.6c.33 0 .62-.18.66-.27.04-.1-.35-.25-.51-.77-.28-.92.2-2.07-.05-3.04-.27-1.08-.95-1.37-1.24-1.76-.1-.15-.26-.61-.6-.98-.5-.52-1.56-.8-1.56-1.4a1.8 1.8 0 010-.41c.03 0 .44 0 .73-.18.32-.19.51-.6.51-.6s-.97.35-1.46-.13-.42-.98-.42-1.25c0 0 .48.39 1.2.2.66-.16 1.23-.93 1.6-.47.2.22.11.76-.06.85.3-.03.8-.18.8-1.01 0-.61-.42-1.18-1.28-1.18-.77 0-1.98.88-1.98-.96 0-1.42 1.11-1.52 1.11-3.04 0 0 .69.6 1.58.49 1.7-.21 1.59-1.79 1.43-1.92-.2.06-.4.83-1.1.83-.2 0-.6-.14-.87-.54-.55-.84.28-2.03.2-3.23-.07-1.05-.38-1.62-.38-1.62s.21.18.86.18c.83 0 1.34-1 1.27-.99-1.2.2-1.51-.17-1.79-.82-.15-.57.01-1.11-.17-1.84-.12-.5-.44-.86-.62-1.03.14.1.42.23.86.23 1.12 0 1.36-1.03 1.36-1.03s-.3.24-.98.24c-.92 0-.82-.87-.82-.87s1.8.02 1.8-1.63c0-.74-.44-1.35-.98-1.35-.5 0-.58.36-.58.36s.7.02.7.6c0 .42-.37.67-1.06.67a2.9 2.9 0 01-1.48-.5 6.21 6.21 0 00-1.33-.57s1.04-.25 1.04-1.46c0-.66-.4-1-.4-1s.05 1.33-1.2 1.49c-.98.11-1.18-.13-1.18-.13s.2-.33.13-.82c-.02-.24-.23-.5-.63-.63.14.44.16 1.17-.7 1.29-1.01.17-.84.07-2.31.1-.72.01-1.57.36-1.8.93-.08.31-.21 1.1-.19 2 .01.45.1.96.21 1.35.3.98.46 1.1 1.15 1.24 1.25.3 2.15.69 2.7 1.33 1.1 1.3 1.04 3.04 1.04 3.04s-.06.7-.25 1.33c-.52 1.56-.82.82-1.71 1.43-.54.38-.87 1.16-1.6 1.42-1.03.39-1.58-.58-1.58-.58s-.3 1.7 1.6 1.77c-.37.17-.86.1-1.48.36-.47.19-1.05.68-1.39 1.12-.27.4-.63 1.13-1.55 1.16-.57 0-.81-.4-.81-.73 0-.45.24-.75.24-.75s-.92.16-.92 1.14c0 1.03.7 1.55 1.65 1.55.62 0 1.34-.35 1.77-.93.12.45.06 1-.46 1.5-.47.43-.47.99-.47 1.12 0 .69-.16.95-.33 1.05-.41.26-.92 0-1 0 0 .44.55.73.88.73.44 0 .58-.1.63-.1 0 .55-.15 1.23-.28 1.51-.44.78-.97.56-1.46 1.1-.34.36-.5.82-.6.97-.3.4-.97.68-1.24 1.76-.25.98.24 2.12-.04 3.04-.16.52-.55.68-.51.77s.33.27.66.27c.6 0 1.06-.6 1.06-.6s-.67 1.07-.67 1.94c0 1.05.65 2.17.65 3.17-.04.6-.44.8-.38.9.04.09.48.09.82-.03.43-.15.76-.49.76-.49s-.25.69-.25 1.35c0 .75.25 1.48.25 1.48l.32.75s.4.8.4 1.56c-.01.53-.45 1.03-.42 1.09s.2.1.46.05c.4-.07.9-.52.9-.52s-.34.93-.23 1.69c.12.78.67 1.6.67 2.35 0 .6-.54 1.1-.52 1.16s.41.17.77-.06c.32-.16.56-.56.56-.56s-.51 1.4-.39 2.67c.1.93.86 2.7.15 3.9-.54.75-1.45.76-1.45.81s.5.73 1.19.73c.66 0 .93-.23.95-.25-.01.02-.03.23.05 2.07.16 2.13.76 5.8.87 8.43.1 2.77.16 5.2.05 6-.18 1.5-1.08 2.7-2.52 2.7-2.67 0-3.6-2.6-5.78-4.44-1-.86-2.3-1.64-4.24-1.64a4.35 4.35 0 00-4.26 3 3.7 3.7 0 002.23 4.68c.13-.06-.81-1.37-.35-2.63.35-.97 1.42-1.5 2.56-1.5 3.01 0 4.05 3.32 6.6 3.3-1.63.63-1.66 2.06-2.98 2.06-.68 0-1.07-.38-1.07-.79 0-.6.48-.93.62-1.03-.68-.36-1.8.36-1.8 1.67 0 1.4 1.07 2.34 2.65 2.34 2.3 0 3.16-1.16 4.88-1.78 0 0-1.92 1.45-1.92 3.34 0 2.63 2.1 3.04 2.7 2.88-.45-.45-1.56-2.41.4-3.75 2.56-1.73 2.84-2.45 3.17-4.68-.02.64-.1 1.85-.36 2.92-.38 1.24-1.06 3.28-1.06 4.3 0 2.21 2.21 5.07 2.59 5.07s2.47-2.86 2.47-5.06c0-1.03-.69-3.07-1.06-4.31a14.93 14.93 0 01-.36-2.92c.33 2.23.6 2.95 3.16 4.68 1.97 1.34.87 3.3.41 3.75.6.16 2.7-.24 2.7-2.88 0-1.89-1.92-3.34-1.92-3.34 1.71.63 2.57 1.78 4.88 1.78 1.57 0 2.65-.95 2.65-2.34 0-1.31-1.1-2.03-1.8-1.67.13.1.62.42.62 1.03 0 .42-.4.8-1.07.8-1.3 0-1.35-1.45-2.98-2.06 2.55 0 3.59-3.3 6.6-3.3 1.13 0 2.2.5 2.56 1.49.46 1.26-.48 2.58-.35 2.63a3.74 3.74 0 002.16-4.66zm-14.34-24s.01 0 0 0c.01 0 0 0 0 0zm-1.07 0s.01 0 0 0c.01 0 0 0 0 0z"/>
    <path d="M91.3 71.84c2.4 0 3.63-1.71 6.13-1.67 2.75 0 3.95 1.23 4.18 1.5l.03-.3s.01-.2-.03-.51c-.46-.4-2.34-1.9-4.51-1.9-2.26 0-4.5 1.15-5.78 1.15s-2.15-.73-2.15-1.52c0-.57.04-.77.29-1.12.3-.2-.03-.09-.03-.09s-1.16.4-1.16 1.83c-.01 1.72 1.36 2.63 3.03 2.63z"/>
    <path d="M93.2 68.95c.08-.49.57-1.44 1.52-1.44.63 0 1.06.18 1.49.5 1.1.88 2.27.64 3.53 1.16.38.15.85.6 1.08.89.2.35.38.96.29 1.12a4.54 4.54 0 00-1.66-.33c-.91.02-1.5.62-2.23.81-.52.21-1.59.2-1.8-.66-.08-.2-.09-.11-.13-.02-.09.12-.1.66.15 1.08.21.36.66.63 1.16.63 1.22.13 1.98-.48 2.7-.46 1.75-.02 1.82.36 2.01.64l.07-.2c.2-.6.25-1.32.25-1.32s.06-1.74-1.05-3.04c-.53-.63-1.43-1.03-2.7-1.33-.67-.15-.85-.26-1.14-1.24-.1-.4-.2-.9-.21-1.35-.02-.79.07-1.5.16-1.87-.17-.02-1.49-.1-2.01 1.16-1.79.68-2.36 1.9-2.38 2.92 0 1.43.47 2.12.6 2.44.13.18.3.08.3-.09zM99.9 131.85c-2.2 0-2.72-.39-2.72-.39s-1.53-.6-1.53-2.18c0-2.17 1.97-2.24 1.97-2.24s.74.45 2.28.45c1.65 0 2.21-.45 2.21-.45s1.97-.06 1.97 2.24c0 1.65-1.53 2.18-1.53 2.18s-.46.39-2.65.39z"/>
    <path fill="#fff" stroke-width=".214" d="M98.85 65.58c-1.65.17-1.7-1.4-1.68-1.54.18.02 1.53-.38 2-.2.28.18.7 1.6-.32 1.74z"/>
    <g fill="#000" stroke="none">
      <path d="M117.33 91.25c.3 5.45.84 10.69 2.59 15.9.44 1.25.99 2.47 1.73 3.58-1.2-1.59-1.84-3.54-2.42-5.42a65.55 65.55 0 01-2.21-14.04zM109.85 92.56a66.66 66.66 0 002.14 16.65c-.56-1.72-.87-3.5-1.24-5.27a64.8 64.8 0 01-1.18-11.34zM123.29 94.34a1.08 1.08 0 00-.3.6l.01.13.02.1c-.1.03-.21.04-.32.06 0-.06 0-.13.02-.2.04-.15.12-.28.2-.4.08-.1.18-.2.28-.27.02-.01.06-.05.08-.04v.02zM125.07 100.43c0 .04-.03.07-.05.1-.1.08-.19.18-.24.3l-.08.19-.02.13v.06l-.32-.05c.03-.04.03-.09.05-.13l.05-.11a.72.72 0 01.14-.2l.19-.15.2-.13c.02 0 0-.04.03-.02l.05.01zM126.63 105a5.5 5.5 0 00.1.7c0 .01.03.05 0 .05l-.3.04a3.44 3.44 0 01.17-.8l.03.01zM128.92 106.68c0 .04.03.08.04.13a1.22 1.22 0 00.39.56c0 .02.06.04.04.06l-.25.2c-.09-.16-.18-.31-.22-.49l-.05-.3v-.15h.05zM134.43 95.29c-.97-1.24-1.56-2.72-2.23-4.13a37.68 37.68 0 01-2.6-8.25l.32-.08c.5 3.63 1.74 7 3.3 10.3.36.74.71 1.5 1.23 2.14zM128.78 87.98l.03.06c.04.06.09.1.14.13l.21.1c.02 0 .05 0 .04.03v.02h-.2a.9.9 0 01-.3-.04.25.25 0 01-.12-.06l-.04-.03.24-.21zM131.19 94.08h.02l.05.02h.18c.06 0 .14 0 .18-.02l.08-.04.02.03-.06.07c-.04.04-.11.1-.18.14l-.22.1-.07.02h-.03zM134.75 97.51l.02.1c.04.1.08.18.15.26l.15.17-.27.17-.08-.23c-.02-.05-.02-.11-.03-.16a.68.68 0 010-.26c.01-.02 0-.05.03-.05h.03zM115.98 100.07l-.06.05-.12.13a.44.44 0 00-.07.14l-.01.04v.01l-.28-.15c0-.02.02-.02.03-.03l.05-.05a.73.73 0 01.19-.1c.06-.03.12-.04.18-.05l.08-.01zM117.81 108h.02l.02.02h.03c.04.03.11.05.19.05h.22c.06 0 .11-.03.11-.03l.01.03-.09.07-.2.1a.81.81 0 01-.27.06h-.12zM120.5 112.86h.07l.15-.07c.05-.03.1-.08.12-.13l.03-.07h.03l.01.02.01.07c0 .07-.02.15-.06.23a.74.74 0 01-.23.26zM124.12 113.33l.1.08a1.68 1.68 0 00.62.27l-.13.29-.12-.09-.23-.2a1.24 1.24 0 01-.2-.24l-.07-.11zM125.22 111.92s.1-.1.24-.13a.49.49 0 01.22-.02l.07.02h.03l-.15.28-.04-.04a.24.24 0 00-.12-.06c-.05-.02-.1-.02-.15-.02h-.07zM107.5 97.63l.06.01c.1 0 .22 0 .33-.03l.3-.09c.02 0 .04-.03.05 0 .02 0 .02.02 0 .03l-.12.1a1.68 1.68 0 01-.48.27.78.78 0 01-.08.02.42.42 0 01-.05.02v-.33zM108.52 104.17h.04s.02 0 .03.02h.03c.05.02.14.02.24 0 .18-.01.35-.08.35-.08l.02.04-.1.07-.22.15a1.4 1.4 0 01-.27.1l-.05.02h-.08zM110.44 109.47l.02.01.02.02h.02c.02.02.05.02.07.03h.07c.06-.02.12-.07.17-.1l.09-.04.02.02-.05.07-.13.19-.12.08a.3.3 0 01-.13.03l-.1.01zM112.18 111.8l.09.04.17.04c.07.01.13 0 .18-.02l.09-.03.02.02-.07.07c-.05.04-.1.1-.18.13l-.22.07h-.1zM127 84.62l-.03-.07-.04-.16c-.03-.13-.06-.3-.07-.48l.01-.26c0-.04.01-.07.03-.11 0-.03 0-.08.02-.11 0-.06.03-.12.04-.15l.02-.05h.03v.06l-.02.15v.1l.01.1c.01.08.02.16.05.24.03.16.1.31.14.42l.07.13.02.04zM119.95 65.37l-.02.05-.05.16c-.05.13-.1.31-.13.5l-.05.26V66.82l-.03.01-.02-.06c-.02-.04-.02-.1-.04-.17l-.02-.12a.54.54 0 01-.01-.13l-.01-.29c0-.19.02-.38.03-.53 0-.08.02-.14.03-.18l.01-.07zM118.91 82.04l.05-.26c.04-.16.07-.35.14-.55l.2-.55.1-.25.28.16-.14.22a5 5 0 00-.5 1l-.1.24zM115.04 90.51c0-.02.01-.04.03-.05l.14-.01c.1.01.25.04.38.08l.36.1.16.04-.12.3-.15-.08-.33-.2a5.03 5.03 0 00-.44-.2v.01zM120.66 88.02l.02.03.06.09a3.96 3.96 0 00.46.44c.02 0 .04 0 .05.02s0 0 .02 0h-.02v.32h-.03l-.03-.01a.1.1 0 01-.03-.01.33.33 0 01-.06-.05l-.06-.05a2.1 2.1 0 01-.35-.6l-.04-.12-.01-.04zM122.93 87.72c0-.04.03-.07.03-.1l.14-.46c.02-.08.05-.16.05-.24h.03l.02.1.02.27.01.16v.35l-.3-.08zM130.62 81.8l-.12-.3c-.12-.28-.26-.56-.4-.84-.01-.04-.07-.09-.05-.12.04-.03.06.04.08.06l.44.56.26.36.08.13-.3.14zM132.07 78.28v.29a2.28 2.28 0 00.5 1.1l-.26.16a3.05 3.05 0 01-.23-.55 1.78 1.78 0 01-.06-.8c0-.07.01-.14.04-.2h.01zM129.75 69.47c.16.16.2.4.31.6.1.21.26.4.46.54.12.08.26.13.4.2.05.04-.02.1-.03.15l-.07.15a1.96 1.96 0 01-.6-.48 1.55 1.55 0 01-.27-.56c-.05-.17-.09-.34-.17-.5-.02-.03-.07-.07-.03-.1zM111.2 91.19c0 .23-.06.46-.09.68-.07.06-.16.05-.25.06-.01 0-.05.03-.05 0 0-.14.06-.26.13-.37.07-.13.17-.25.27-.37zM125.27 86.34c.03-.11-.03-.22-.05-.33-.08-.22-.17-.46-.16-.7-.02-.05.05-.18.06-.07 0 .14.04.27.11.38.1.18.24.34.31.53.01.06.1.2-.02.2h-.25z"/>
      <path d="M127 84.62c-.11-.33-.17-.69-.12-1.03.03-.12.04-.24.1-.35.08-.01-.01.12.01.17a1.93 1.93 0 00.27 1c.03.11-.15.12-.22.18l-.05.03zM128.75 83.01c-.05-.1-.08-.22-.15-.32-.11-.18-.3-.3-.43-.46-.03-.06-.09-.15-.05-.2.04.03.05.11.1.15.13.1.28.15.4.25.13.1.25.21.34.35.02.05.1.1.01.12l-.22.11zM116.6 84.15c.66.97 1.13 2.1 1.2 3.28.06.77-.09 1.6-.58 2.22-.1.09-.27.07-.41.1-.88.1-1.74-.3-2.35-.9a8.11 8.11 0 01-1.42-1.98c-.04-.1-.17-.33-.04-.13.57.81 1.18 1.62 1.99 2.2.54.38 1.21.6 1.87.49.06 0 .28-.07.14 0 .01-.08.25-.38.3-.56a4 4 0 00.17-1.99 7.8 7.8 0 00-.68-2.31c-.06-.14-.11-.29-.19-.42z"/>
      <path d="M114.96 85.8c.21.13.41.28.56.47.15.18.26.39.36.6.14.27.22.56.33.84l.17.45c.04.11.1.22.16.32-.22-.16-.4-.36-.53-.6-.1-.17-.18-.36-.27-.55-.11-.27-.22-.55-.34-.81a4.85 4.85 0 00-.23-.43c-.05-.1-.14-.19-.2-.28zM109.57 86.06c.13.88.05 1.81-.35 2.62-.1.23-.25.45-.46.6-.22.13-.2.15-.28-.08.22-.14.4-.36.5-.61a7.14 7.14 0 00.6-2.53zM107.92 86.48c.35.45.29 1.12.17 1.64l-.27.03c-.03-.59.15-1.08.1-1.67zM112.77 85.86c.12.48.17.97.16 1.46-.04.5-.1 1-.33 1.44-.1.22-.23.42-.4.59-.14.15-.3.3-.5.38-.3-.06-.58-.16-.83-.34a2.28 2.28 0 01-.74-.91 4.31 4.31 0 01-.42-1.84c0-.04-.02-.2 0-.09.16.6.32 1.22.6 1.78.12.2.25.4.41.57.24.27.58.46.94.52.1.02.04.03-.03.04.19-.11.36-.26.49-.44.35-.4.49-.95.58-1.47a5.95 5.95 0 00.07-1.7z"/>
      <path d="M111.25 86.47c.06.05.1.11.14.17l.15.3c.06.15.07.32.1.49v.43l-.03.45v.37a1.24 1.24 0 01-.18-.29c-.08-.18-.09-.38-.1-.57-.02-.26 0-.52-.02-.78l-.04-.46-.02-.11zM114.04 88.65c.15.5.2 1.03.1 1.54a2.2 2.2 0 01-.31.76c-.13.17-.29.3-.46.42-.14.06-.3-.03-.42-.07a1.4 1.4 0 01-.66-.63 3.06 3.06 0 01-.27-1.02c.08.2.16.4.28.6.13.27.33.5.58.68.13.1.29.14.45.16-.07.02-.14.02-.04-.02.3-.2.48-.54.57-.88.11-.35.16-.72.17-1.09.01-.15.02-.3.01-.45z"/>
      <path d="M112.99 89.07l.1.1.08.13c.07.13.1.28.12.42.02.22-.02.44-.04.66l-.02.2c0 .06-.02.03-.04 0-.06-.05-.1-.13-.14-.2a1.62 1.62 0 01-.09-.66v-.58a.2.2 0 00.03-.07zM110.61 89.71c-.38 1.36-.69 2.35-1.98 2.55l-.11-.36c1.16-.18 1.58-1.27 2.09-2.19zM109.28 89.69c.07.13.1.27.1.42 0 .2-.07.39-.13.57-.1.25-.25.48-.36.73-.02.03-.04.1-.05.01a.91.91 0 01-.02-.44c.05-.3.2-.57.3-.85l.16-.43zM119.83 83.48c.27.48.5.98.63 1.52.12.51.19 1.04.12 1.56-.05.32-.12.64-.29.91-.11.2-.23.43-.43.55a2.1 2.1 0 01-1.64-.51 3.05 3.05 0 01-.7-.85c.33.37.71.7 1.17.9.32.16.68.2 1.03.18.1-.02.09 0 0 .03.15-.19.31-.4.4-.64.12-.36.18-.73.17-1.11.02-.47-.05-.93-.15-1.4-.07-.38-.2-.75-.3-1.14z"/>
      <path d="M118.36 84.63c.24.15.44.37.57.62.12.23.18.48.24.73l.19.77c0 .06.08.18.05.19a1.6 1.6 0 01-.44-.6c-.2-.45-.27-.95-.48-1.4l-.13-.31zM122.44 81.93a5.13 5.13 0 011.05 2.05c.09.34.13.69.1 1.04-.01.44-.15.88-.41 1.22-.1.07-.21.06-.32.09-.52.07-1.04-.1-1.48-.38-.2-.1-.35-.26-.52-.4a4.1 4.1 0 01-.34-.38c.44.35.92.66 1.47.8.33.09.67.11 1 0-.17.16.03-.1.06-.18.1-.24.18-.5.19-.75a4.35 4.35 0 00-.39-2.1c-.1-.27-.26-.53-.36-.81l-.05-.2z"/>
      <path d="M121.2 83.24c.18.05.32.17.46.3.15.14.27.32.37.5.14.3.25.6.38.9.04.1.13.25.15.33a1.46 1.46 0 01-.56-.6c-.2-.33-.33-.7-.53-1.03a2.23 2.23 0 00-.27-.4zM126.04 66.32c.07.67.03 1.36-.2 2-.2.56-.52 1.1-1.04 1.4-.17.08-.36.26-.56.17a2.1 2.1 0 01-1.31-1.27 4.91 4.91 0 01-.25-2.09c.1.8.21 1.62.64 2.32.25.39.64.67 1.08.8-.17-.01.25-.13.31-.2.45-.31.76-.79.95-1.3.22-.5.33-1.06.38-1.61v-.22z"/>
      <path d="M124.33 66.7c.09.11.16.23.2.36.1.27.1.56.04.84-.03.28-.13.54-.16.82 0 .07 0 .27-.07.12a1.54 1.54 0 01-.11-.82c.03-.39.12-.77.1-1.16v-.15zM128.29 66.83a2.63 2.63 0 01.1 1.82c-.08.26-.25.5-.48.67-.1.12-.26.1-.4.06a1.6 1.6 0 01-1.04-.85c-.2-.37-.31-.78-.35-1.2.19.45.37.9.68 1.28.2.23.48.4.78.45.05.01.18.02.06.04-.06 0 .1-.08.12-.1.27-.24.42-.57.49-.9a3.87 3.87 0 00.04-1.27z"/>
      <path d="M127.24 67.3c.21.11.32.35.37.58.05.28 0 .56 0 .83-.03.02-.1-.06-.13-.1-.11-.13-.14-.32-.16-.48-.03-.19-.03-.38-.06-.56l-.02-.22v-.06zM123.5 69.92c.02.5-.1 1-.32 1.43-.23.41-.56.8-1.02.95-.19 0-.37-.1-.54-.2a1.8 1.8 0 01-.76-.89 3.95 3.95 0 01-.23-1.85c.08.45.14.91.3 1.35.17.5.5.97 1 1.18.12.04.3.14.2.08.58-.22.95-.8 1.16-1.36.08-.23.15-.46.21-.7z"/>
      <path d="M122.06 69.5c.06.07.1.15.15.23.09.18.12.38.12.58-.01.29-.08.57-.15.86-.02.06 0 .19-.04.2a.9.9 0 01-.15-.42c-.05-.31.02-.63.06-.94v-.5zM124.41 80.2c.48.51.9 1.12 1.02 1.81a1.9 1.9 0 01-.34 1.43c-.2.13-.46.11-.7.1a2.48 2.48 0 01-1.6-.92c.53.37 1.15.71 1.83.64.11 0 .4-.08.25-.03.27-.44.33-.98.2-1.47-.13-.55-.42-1.04-.66-1.55z"/>
      <path d="M123.29 80.94c.25.06.46.23.61.44.2.26.32.58.45.88l.16.34c-.07.02-.18-.09-.25-.14-.26-.24-.42-.56-.58-.87a3.57 3.57 0 00-.39-.65zM125 77.72c.23.77.26 1.67-.16 2.39a1.6 1.6 0 01-.6.57c-.57-.01-1.02-.47-1.23-.97-.13-.29-.2-.6-.22-.91.24.54.49 1.17 1.06 1.44.12.05.42.17.32.1.44-.28.64-.8.74-1.3.09-.44.12-.88.1-1.32z"/>
      <path d="M123.85 78.18a.6.6 0 01.2.25c.08.14.11.3.13.46.02.27-.02.54-.05.8 0 .07 0 .23-.07.1a1.18 1.18 0 01-.2-.67v-.88a.23.23 0 01-.01-.06zM124.57 71.85c.3.63.45 1.36.3 2.05-.07.37-.23.72-.5.98a.47.47 0 01-.53.14c-.7-.1-1.25-.65-1.53-1.27-.15-.35-.27-.7-.34-1.07.3.59.58 1.22 1.1 1.66.18.15.38.27.61.32.1.02.32.06.34.05.09-.12.25-.2.31-.34.35-.5.39-1.14.35-1.74a9.38 9.38 0 00-.1-.78z"/>
      <path d="M123.32 72.5c.22.1.35.32.42.54.12.35.1.73.14 1.1.03.15-.12-.04-.16-.1-.2-.32-.23-.72-.3-1.09-.02-.15-.05-.3-.1-.46zM125.58 74.58c.48.69.8 1.57.6 2.4-.07.28-.2.56-.4.77-.27.17-.61.1-.9.03-.85-.25-1.37-1.04-1.7-1.8-.12-.26.17.2.24.27.44.58 1 1.22 1.79 1.27.26 0 .4.06.47-.18.2-.28.24-.65.26-.99.03-.61-.19-1.2-.36-1.77z"/>
      <path d="M124.46 75.45c.23.08.41.26.52.48.17.3.2.64.3.96.04.06.06.19-.04.1a1.2 1.2 0 01-.38-.52c-.13-.3-.2-.6-.35-.88l-.05-.14zM127.38 79.08c.5.72.84 1.69.56 2.56-.11.25-.21.57-.5.66-.73.13-1.46-.3-1.9-.88a4.27 4.27 0 01-.6-1.06c.5.64 1 1.4 1.82 1.62.29.02.65.15.72-.14.2-.3.24-.67.26-1.01.02-.6-.2-1.18-.36-1.75z"/>
      <path d="M126.27 79.94c.23.08.4.25.51.46.18.3.21.66.32 1 .05.06.05.17-.04.08-.27-.18-.4-.5-.5-.8a6.05 6.05 0 00-.26-.65l-.03-.09zM128.76 75.87c.29.8.34 1.75-.11 2.5-.13.2-.3.4-.53.5-.6-.04-1.07-.52-1.3-1.05a2.74 2.74 0 01-.22-.78c.26.54.56 1.13 1.12 1.41.11.04.45.12.3.08.5-.36.66-1 .72-1.58.04-.36.03-.72.02-1.08z"/>
      <path d="M127.62 76.38c.23.16.33.43.36.7.04.25.01.5 0 .77-.01.06.02.26-.07.13a1.23 1.23 0 01-.2-.57c-.03-.26-.01-.53-.05-.8 0-.08-.02-.15-.04-.23zM128.97 72.5c.59.73.97 1.76.64 2.69-.1.22-.2.53-.47.58a2 2 0 01-1.96-.87c-.23-.3-.43-.63-.58-.98.49.62 1.04 1.3 1.84 1.5.19.07.64 0 .67 0 .14-.2.3-.47.32-.75a3.57 3.57 0 00-.46-2.18z"/>
      <path d="M127.89 73.43c.26.08.44.3.58.53.17.3.2.67.35.99-.03.04-.17-.09-.22-.13-.23-.23-.34-.55-.46-.85a4.62 4.62 0 00-.25-.54zM127.5 69.54c.34.91.45 1.98 0 2.87-.15.26-.36.47-.6.64-.37.03-.73-.16-1.02-.4a3.02 3.02 0 01-.86-1.65c.32.61.67 1.3 1.33 1.6.23.02.42.24.52.03.52-.5.63-1.26.68-1.95.01-.38-.04-.76-.04-1.14z"/>
      <path d="M126.2 70.2c.33.25.43.67.46 1.06.03.28-.01.57.03.86-.1-.01-.18-.2-.22-.3-.18-.48-.12-1-.24-1.48l-.03-.14zM71.76 104.19A66.33 66.33 0 0075.4 92.6c.43-2.13.61-2.56.73-4.73.58-.11.2-.28.25.06-.4 4.41-1.45 7.87-2.93 12.04a64.12 64.12 0 01-1.67 4.2zM82.95 91.17c-.3 4.61-.85 9.05-2.05 13.52-.6 2.1-1.3 4.2-2.56 6.01.16-.42.59-.93.78-1.4 1.66-3.42 2.32-7.2 2.87-10.93.33-2.47.55-4.64.66-7.13zM90.39 92.55a67.56 67.56 0 01-2.4 16.64c.4-1.85.83-3.69 1.12-5.55.64-3.8 1.01-7.23.99-11.1zM76.67 94.32c.17.1.32.26.43.43.09.15.15.32.15.5l-.32-.06a.3.3 0 00.02-.15c0-.07 0-.14-.02-.2a1.1 1.1 0 00-.23-.44c-.02-.03-.05-.04-.03-.08zM74.9 100.42c.02.05.08.07.12.1.12.06.23.14.32.25.05.06.1.11.13.19l.07.18c.04.05-.06.03-.1.05l-.2.03-.02-.17c-.03-.1-.05-.18-.1-.26l-.24-.29c-.05-.04-.03-.07.02-.08zM73.34 105c.08.24.15.5.17.76 0 .06-.06.02-.09.02l-.23-.03c.08-.24.12-.5.12-.75h.02zM71.05 106.68c0 .16 0 .32-.04.46-.05.17-.14.32-.23.47l-.25-.2c.1-.1.22-.18.29-.3.07-.11.13-.23.16-.36.03-.03 0-.1.07-.07zM65.49 95.26c.7-.88 1.13-1.94 1.61-2.95 1.3-2.88 2.4-6.31 2.94-9.43.2-.2.35-.2.33-.02a46.7 46.7 0 01-4.12 11.33c-.22.36-.47.83-.76 1.07zM71.38 88.2l-.02.01-.03.02-.04.04a.6.6 0 01-.25.06h-.32l-.01-.03.09-.04a.98.98 0 00.18-.09c.06-.03.1-.09.13-.12v-.02c0-.02.02-.02.02-.02v-.02zM68.75 94.4l-.02-.01a1.21 1.21 0 01-.29-.12.9.9 0 01-.24-.21l.02-.03.07.04c.05.02.12.03.18.03l.19-.01.05-.01.02-.01zM65.22 97.51l.02.1v.25c0 .08-.05.18-.07.24l-.05.1-.26-.16s.11-.11.2-.24c.04-.06.09-.13.1-.2l.02-.09zM83.91 100.02a.9.9 0 01.46.18c.02.02.08.05.06.08l-.08.04-.18.1c0-.07-.05-.12-.08-.18a.76.76 0 00-.19-.2l.01-.02zM82.22 108.3c-.09 0-.18.01-.28-.01-.13-.04-.26-.1-.37-.18-.03-.01-.04-.04-.02-.06a1 1 0 00.34.03.5.5 0 00.24-.07c.02.02.02.05.03.08l.06.22zM79.3 113.14a.65.65 0 01-.21-.2.5.5 0 01-.1-.33c0-.03.03-.06.06-.04 0 .04.03.08.05.11.06.08.15.13.24.15h.07l-.12.31zM75.85 113.34c-.08.14-.2.26-.3.38-.1.1-.2.18-.32.25-.05-.06-.07-.16-.11-.24-.05-.08.1-.06.16-.1.18-.05.36-.14.5-.26.02-.02.04-.04.07-.03zM74.71 111.96a.44.44 0 00-.18 0 .58.58 0 00-.13.05l-.07.06-.15-.27c.09-.03.2-.04.29-.02.06 0 .12.04.18.07l.1.07-.04.04zM92.43 97.95l-.1-.03-.18-.07a1.7 1.7 0 01-.43-.3c-.02-.01-.05-.03-.02-.06l.3.1c.11.03.23.04.35.04.03.01.1-.03.08.02v.3zM91.44 104.49l-.13-.02c-.1-.03-.2-.07-.3-.13-.1-.05-.2-.13-.3-.2.03-.07.09 0 .13 0 .17.04.34.07.51.05.03-.02.1-.06.08 0v.3zM89.54 109.8c-.07 0-.13-.02-.2-.04a.34.34 0 01-.15-.09c-.05-.05-.09-.12-.13-.18-.01-.03-.05-.06-.05-.08.01-.03.03-.01.05 0 .06.02.1.06.16.09.04.02.09.05.13.03.04 0 .07-.02.1-.04.02-.02.05-.02.04.01l.05.3zM87.79 112.13c-.06-.02-.11-.01-.16-.03a.7.7 0 01-.32-.14l-.09-.11c.01-.01.02-.03.04-.02.07.03.14.06.21.06.06 0 .12-.01.18-.04l.12-.04.02.32zM72.66 84.48c.12-.23.22-.48.26-.74.03-.16.04-.32 0-.48.05-.06.07.08.09.12a2.36 2.36 0 01-.05 1.24c-.04.01-.07-.03-.1-.04l-.2-.1zM78.48 128.66c-.44.15-.85.44-1.1.84-.16.29-.2.64-.08.95.06.16.14.32.25.46-.17-.07-.27-.24-.36-.4-.21-.43-.13-.98.18-1.35.26-.32.62-.55 1-.7.1 0 .07.14.1.2zM89.87 126.4c.4.01.76.18 1.08.4.3.23.54.59.58.98 0 .25-.04.51-.19.71-.04.06-.17.2-.1.04.13-.34.2-.75 0-1.07a1.38 1.38 0 00-.66-.6 1.98 1.98 0 00-.72-.24c-.01-.07.01-.15.01-.23zM76.73 123.9a2.1 2.1 0 00-1.1-.23c-.32.03-.64.17-.83.43-.16.2-.25.45-.3.7-.07-.07-.02-.26-.03-.37.07-.3.25-.59.5-.76.27-.17.58-.25.89-.23.32 0 .63.08.92.21.1.05-.04.17-.05.25zM78.7 119.1c-.17-.29-.4-.54-.65-.75-.2-.1-.4-.24-.63-.26-.31-.04-.63.08-.87.28-.07.02-.19.2-.21.15.2-.42.67-.64 1.12-.6.4.03.74.26 1.02.53.17.17.3.37.43.58l-.22.07zM91.46 116.89s-4.39 4.7-6.53 6.95c2.46-2.67 6.42-7.27 6.42-7.27zM85.27 121.17c.08.02.16.03.23.07.17.07.32.2.43.35.08.1.15.2.2.31-.04.06-.09-.05-.12-.07-.1-.1-.22-.2-.35-.26a.65.65 0 00-.35-.08h-.08l.04-.32zM86.06 120.3c.08 0 .16.03.23.06.17.08.32.2.43.35.08.1.15.2.2.31-.04.07-.08-.05-.12-.07-.1-.1-.21-.2-.34-.26a.65.65 0 00-.36-.08h-.08l.04-.32zM86.92 119.41c.08.02.16.04.22.08a1.34 1.34 0 01.63.67c-.04.04-.07-.05-.1-.08-.1-.1-.22-.2-.36-.26a.65.65 0 00-.35-.08h-.08l.04-.33zM88.95 125.6c.08-.36.19-.71.37-1.04 0-.05.04-.02.06 0l.22.16a2.2 2.2 0 00-.23.25 9.15 9.15 0 00-.41.62zM82.02 125.14c.12-.03.23-.04.35-.05.18 0 .36-.03.52-.1l.14-.11c.05.03-.05.09-.07.13a.96.96 0 01-.25.19c-.11.06-.24.1-.37.14l-.24.1c-.1.07-.24 0-.24-.11a.17.17 0 01.16-.2zM82.2 123.24c.03.07.08.14.16.17.1.06.23.1.35.14.04 0 .02.06-.01.05l-.22.01a.8.8 0 01-.41-.07l-.09-.06.21-.24zM78.3 122.52a2.07 2.07 0 01-.17.96 1.8 1.8 0 00-.08-.73c0-.05-.05-.1-.05-.15l.3-.08zM80.77 118.91c-.06.09-.12.18-.19.25-.13.16-.3.3-.47.4a3.08 3.08 0 00.23-.41c.05-.1.08-.22.1-.34.01-.07.1.01.14.02l.19.08zM78.6 126.56l.14.12c.1.11.2.24.29.38l.11.26c.03.07-.03-.03-.06-.05-.1-.1-.19-.18-.3-.25-.1-.07-.2-.14-.32-.19-.02-.02.04-.08.05-.11l.1-.16zM84.4 122.08c.08.02.16.03.23.07.17.07.32.2.43.34.08.1.15.2.2.32-.04.06-.08-.05-.12-.07-.1-.1-.21-.2-.34-.26a.65.65 0 00-.36-.08h-.08l.05-.32zM121.52 128.46c.42.11.78.38 1.06.7.23.32.35.72.25 1.1-.05.26-.2.48-.4.64-.08 0 .1-.14.1-.2.17-.32.24-.7.1-1.04-.15-.32-.4-.59-.7-.77-.14-.1-.3-.17-.47-.23l.06-.2zM110.09 126.6c-.28.02-.56.13-.8.26-.27.14-.5.37-.63.65-.15.34-.08.73.06 1.07-.07.04-.14-.17-.2-.23a1.22 1.22 0 01-.04-.9c.1-.26.27-.5.5-.66.29-.22.63-.37 1-.42.15-.05.07.15.1.23zM123.1 123.7c.15-.09.33-.13.5-.18.27-.06.56-.08.83-.04.4.07.77.33.94.71.09.2.12.42.08.63-.08-.1-.08-.31-.17-.45a1.12 1.12 0 00-.77-.64c-.37-.1-.76-.03-1.12.1-.1.03-.22.16-.24-.02l-.05-.1zM121.04 119.02c.16-.29.37-.55.63-.75.35-.3.85-.46 1.3-.3.28.08.53.28.64.55-.1-.03-.17-.16-.27-.21a1.14 1.14 0 00-.73-.23c-.25 0-.48.1-.68.25a2.2 2.2 0 00-.65.71c-.02.11-.17-.02-.24-.02zM108.58 116.57c2.46 2.57 4.28 4.7 6.42 7.17-2.25-2.25-4.39-4.82-6.42-6.85zM114.7 121.49c-.09 0-.18 0-.26.02a.85.85 0 00-.33.16c-.1.07-.2.16-.28.26-.07-.03.02-.1.03-.15.14-.24.35-.46.61-.56.06 0 .15-.07.19-.03 0 .1.03.2.04.3zM113.92 120.61a.84.84 0 00-.54.15c-.12.08-.24.18-.33.3-.07-.07.06-.17.08-.24.15-.24.38-.43.65-.5.08-.06.11.01.1.08l.04.21zM113.06 119.74c-.09 0-.17-.01-.26.02a.85.85 0 00-.32.15c-.1.08-.2.16-.29.26-.06-.03.03-.1.03-.14.14-.25.35-.47.62-.56.05-.01.14-.08.18-.04l.04.3zM110.98 125.6a3.47 3.47 0 00-.4-.61l-.2-.24c-.07-.05.06-.08.08-.12.05-.02.1-.1.14-.1a4.7 4.7 0 01.38 1.06zM117.82 125.44c-.27-.14-.6-.17-.82-.39-.04-.05-.16-.13-.13-.18.08.07.16.12.26.15.2.07.43.04.64.08.1.02.22.03.25.15.02.1-.1.22-.2.19zM117.96 123.5c-.04 0-.08.05-.12.06a.73.73 0 01-.34.06l-.23-.02c-.03 0-.08.01-.06-.03.1-.05.23-.07.34-.13a.5.5 0 00.2-.18l.21.23zM121.95 122.58c-.04.1-.08.21-.1.32-.03.19-.06.37-.04.56-.1-.23-.15-.47-.17-.72v-.24l.31.08zM119.46 118.8c.02.08.03.16.07.24.04.12.09.24.16.35l.15.21c-.09-.04-.17-.1-.25-.16a2.3 2.3 0 01-.4-.44c-.02-.03-.06-.08 0-.09l.27-.12zM121.5 126.83l-.22.1-.24.18c-.1.07-.17.16-.24.24.03-.08.06-.17.11-.25a1.62 1.62 0 01.42-.53c.03-.02.04.06.07.08l.1.18zM115.56 122.4a.85.85 0 00-.58.18c-.1.07-.2.16-.28.26-.07-.03.02-.1.03-.15.14-.24.34-.46.61-.56.06 0 .14-.07.19-.03l.03.3zM106.74 110.14c.31.57.56 1.21.52 1.88 0 .33-.1.66-.3.94-.09.17-.27.34-.48.3-.37 0-.73-.15-1.02-.4-.36-.29-.6-.7-.8-1.1-.1-.22-.19-.43-.25-.66.13-.01.15.19.22.28.3.47.6.98 1.1 1.28.26.17.58.26.9.23-.16.08.05-.11.08-.16.28-.43.34-.97.27-1.47a5.43 5.43 0 00-.24-1.1v-.02z"/>
      <path d="M105.7 110.86c.31.19.48.54.58.88.07.22.07.45.1.67-.07.08-.16-.08-.2-.14-.17-.28-.26-.6-.35-.9l-.13-.44a.2.2 0 010-.07zM106.42 107.22c.35.73.52 1.61.24 2.4-.1.27-.27.53-.52.7a1.8 1.8 0 01-1.59-.91c-.26-.43-.44-.9-.56-1.39.2.1.24.47.4.66.3.52.68 1.09 1.29 1.25.14 0 .4.1.32.03.42-.36.53-.95.53-1.47 0-.44-.07-.88-.16-1.3.02 0 .03.02.05.03z"/>
      <path d="M105.32 107.86c.3.18.44.5.52.83.05.21.05.44.06.65.04.08-.02.22-.1.1-.23-.3-.28-.7-.36-1.05l-.1-.46c-.01-.02-.03-.05-.02-.07zM104.94 114.75c.25.65.55 1.36 1.18 1.73.1.09.41.13.4.16-.09-.01.24-.17.27-.27.34-.45.3-1.05.27-1.59 0-.16-.07-.43-.02-.52.16.16.13.42.21.62.13.59.13 1.29-.29 1.77-.18.23-.46.39-.75.21-.68-.25-1.06-.95-1.21-1.62-.02-.16-.1-.36-.06-.5z"/>
      <path d="M106.03 114.7c.1.2.16.4.25.61.07.21.14.43.16.65.02.08-.05.29-.14.15-.06-.13-.15-.24-.2-.37-.13-.25-.2-.54-.16-.82a.55.55 0 01.09-.21zM108.2 111.8c.54.61.97 1.4.88 2.24-.07.3-.16.77-.54.77-.6.11-1.17-.19-1.57-.6-.3-.3-.55-.66-.75-1.04.22.04.41.45.65.6.42.4.98.82 1.6.73.04 0 .25-.06.13-.02.34-.53.23-1.2.02-1.77-.1-.32-.27-.6-.42-.9z"/>
      <path d="M107.36 112.68c.23.06.41.25.55.44.17.23.28.51.36.8.06.05.02.18-.07.09-.24-.17-.37-.44-.52-.68l-.32-.62zM107.71 119.74c.18-.3.27-.63.25-.97-.03-.26-.13-.54-.36-.68.26.1.39.37.47.62.1.34.07.7-.05 1.03-.01.1-.09.14-.16.07l-.15-.07zM113.3 116.17c.33.05.66-.1 1-.08.16-.02.54.02.34.24-.1.22-.3-.09-.46-.06-.3-.06-.6-.02-.88-.1zM93.21 110.15c-.19.65-.35 1.35-.23 2.03.06.3.2.6.42.82-.1-.09.32.01.4-.08.74-.2 1.16-.91 1.54-1.53.05-.1.21-.4.16-.1a3.42 3.42 0 01-1.2 1.78c-.32.2-.7.3-1.08.24-.48-.42-.62-1.12-.52-1.73.07-.5.3-.97.51-1.43z"/>
      <path d="M94.25 110.86l-.23.75c-.08.26-.17.54-.35.76-.05.08-.15.06-.12-.04.04-.16.03-.33.07-.48.07-.35.23-.7.5-.93a.33.33 0 01.13-.06zM93.53 107.23c-.17.78-.28 1.65.07 2.4.17.21.26.52.57.36.56-.12.94-.62 1.23-1.08.18-.29.32-.6.48-.9.05.28-.14.53-.2.8-.26.66-.74 1.35-1.48 1.5-.4.19-.7-.11-.87-.45-.38-.76-.24-1.66.07-2.42.04-.07.07-.16.13-.21z"/>
      <path d="M94.62 107.87c-.14.52-.17 1.09-.46 1.57-.21.1-.08-.28-.1-.39.04-.42.15-.88.5-1.15l.03-.02zM95 114.75c-.08.71-.32 1.48-.93 1.91-.22.15-.48.29-.75.25-.23-.1-.4-.32-.53-.53-.31-.6-.2-1.33 0-1.96.02-.17.13-.24.12-.03a5 5 0 00-.05 1.1c.02.4.16.84.51 1.1.06.02.11.09.02.03.44-.07.79-.38 1.03-.73.25-.35.42-.75.57-1.15H95z"/>
      <path d="M93.92 114.7c.12.2.1.43.06.64-.06.3-.22.55-.38.8-.12.02-.1-.16-.1-.24.02-.32.17-.61.28-.91.04-.09.08-.24.14-.28zM91.75 111.82c-.35.69-.72 1.45-.57 2.24.03.14.18.5.18.41.56.18 1.11-.15 1.53-.5.3-.26.57-.55.82-.85 0 .29-.26.48-.4.72-.4.54-1 1.05-1.73 1-.34.04-.57-.2-.64-.52-.23-.73.09-1.5.5-2.1l.3-.4z"/>
      <path d="M92.6 112.7c-.2.36-.38.75-.63 1.09-.09.09-.2.27-.33.23.01-.1.07-.2.09-.3.09-.3.24-.58.46-.8.11-.1.23-.2.38-.23h.02zM91.93 119.87c-.06-.1-.08-.23-.12-.34-.08-.32-.06-.67.08-.97a.86.86 0 01.35-.44c.08-.02-.06.05-.07.08-.15.16-.21.4-.24.61-.02.21.03.43.1.62.04.1.08.2.14.29 0 .07-.09.07-.14.1l-.1.05zM86.64 116.17c-.3.12-.64.05-.96.13-.12.01-.22.11-.32.13l-.15-.26c.3-.12.65-.07.96-.02.13.02.26.05.38.05l.1-.03zM80.3 65.27c.09.45.1.92.02 1.37 0 .06-.02.12-.06.16-.05-.02-.01-.1-.02-.16.02-.4-.08-.8-.22-1.17-.03-.04-.04-.1.02-.13l.23-.06h.03zM81 82.04c-.17-.5-.42-.98-.72-1.42-.02-.1.15-.11.21-.17.1-.01.1.18.17.26.17.42.3.85.36 1.3 0 .02-.01.03-.03.03zM84.87 90.51c-.08-.02-.15.05-.22.07-.24.12-.48.27-.72.4l-.11-.3c.3-.08.62-.17.94-.23.04 0 .15.03.11.07zM79.31 88.03c-.04.14-.1.28-.17.41-.09.15-.17.3-.3.42-.04.04-.18.09-.15-.02l.01-.25c.15-.07.26-.2.37-.3l.2-.25c0-.02.03-.03.04 0zM76.7 87.78c0-.17 0-.34.02-.5 0-.12.01-.23.03-.35 0-.05.06 0 .04.03l.13.49.07.2c.02.03.03.07-.02.07l-.27.06zM69.03 81.64l.15-.23.68-.89c.07.05-.04.13-.05.2-.18.35-.36.7-.5 1.06l-.28-.14zM67.9 78.27c.05.18.07.36.06.55-.02.35-.15.7-.31 1.01-.09-.05-.18-.1-.27-.17.18-.23.33-.48.43-.76.07-.18.08-.38.07-.57 0-.02 0-.05.02-.06zM70.2 69.49c-.18.3-.18.68-.37.99-.16.27-.42.46-.69.62-.07-.02-.12-.2-.14-.28.1-.07.23-.09.33-.16.3-.16.5-.46.63-.78.07-.14.11-.3.22-.4h.03zM88.77 91.19c.04.14.14.25.21.37.06.1.13.19.15.3 0 .04.02.11-.04.08l-.28-.05c.01-.18-.06-.35-.08-.52 0-.06-.04-.14-.01-.18h.05zM74.35 86.35c0-.2.12-.36.22-.53.09-.13.18-.26.23-.41.03-.06-.03-.19.04-.2.05.06.03.15.03.23-.03.22-.11.43-.18.64-.02.08-.06.17-.03.26-.03.03-.09 0-.12.01h-.2zM72.66 84.48c.19-.36.33-.76.27-1.17.07-.12.1.23.12.3.05.3.01.6-.06.9-.02.23-.23-.02-.33-.03zM70.9 82.87c.09-.12.17-.24.28-.34.14-.14.32-.21.49-.32.08-.03.09-.15.15-.18.02.12-.08.22-.15.3-.15.14-.31.28-.4.47-.06.06-.03.21-.13.2l-.24-.13zM83.34 84.15a7.08 7.08 0 00-.87 4.07c.07.42.22.83.48 1.17-.07-.02.49.08.67.04 1.06-.09 1.88-.88 2.52-1.66.3-.36.57-.74.85-1.11a6.6 6.6 0 01-2.17 2.67c-.6.38-1.33.5-2.02.35-.37-.31-.51-.81-.61-1.27-.25-1.5.3-3.04 1.15-4.26z"/>
      <path d="M84.97 85.8c-.28.41-.5.87-.67 1.33a3.6 3.6 0 01-.66 1.17c-.05.04-.18.17-.2.15.31-.58.43-1.25.76-1.82.17-.31.4-.58.7-.77l.07-.05zM90.37 86.06c.1.88.23 1.77.66 2.55.09.15.18.3.3.44l-.13.25a4.21 4.21 0 01-.83-2.17 6.17 6.17 0 010-1.07zM92.01 86.48c-.02.44.05.87.1 1.3l-.25.36c-.08-.69-.2-1.02.15-1.66zM87.17 85.86c-.05.92 0 1.87.39 2.72.17.34.42.65.74.85-.13-.03.16-.06.2-.08.53-.16.92-.62 1.17-1.11.28-.56.42-1.16.58-1.76a4.54 4.54 0 01-.7 2.43 2 2 0 01-1.3.8 1.87 1.87 0 01-.77-.73 3.94 3.94 0 01-.42-2.52l.1-.6z"/>
      <path d="M88.69 86.47c-.05.4-.06.82-.06 1.23 0 .33-.05.7-.26.96-.06-.05 0-.28-.03-.39-.03-.5-.1-1.03.14-1.48.06-.12.13-.22.2-.32zM85.9 88.65c0 .69.05 1.41.4 2.02.07.17.3.3.37.4-.1-.02.21-.05.27-.1.51-.27.77-.83.97-1.33a2 2 0 01-.1.56c-.11.43-.36.85-.78 1.04-.21.12-.49.18-.66-.05-.31-.27-.5-.66-.58-1.07-.1-.49-.05-1 .1-1.47z"/>
      <path d="M86.95 89.07v.89c0 .15-.03.3-.1.44a.65.65 0 01-.15.22c-.04-.3-.1-.6-.07-.9.03-.2.1-.41.23-.57.02-.04.06-.05.1-.08zM89.33 89.71c.43.78.56 1.32 1.09 1.8.2.17.54.34.8.41v.34c-1.23-.28-1.81-1.6-1.9-2.55zM90.65 89.69c.18.56.63 1.21.44 1.76-.33-.57-.65-1.16-.44-1.76zM80.1 83.48a6.63 6.63 0 00-.4 3.17c.07.36.2.74.46 1.01-.01.1.04 0 .14.05.5.03 1-.15 1.4-.44.27-.18.5-.4.72-.64-.38.68-1.03 1.26-1.82 1.36-.2.01-.4.07-.58-.06-.24-.16-.35-.43-.47-.67a3.73 3.73 0 01-.04-2.4c.13-.49.33-.96.6-1.38z"/>
      <path d="M81.58 84.63c-.14.31-.27.63-.36.97-.13.46-.26.97-.64 1.3-.11.04.06-.24.06-.33.12-.51.2-1.05.48-1.5.12-.17.27-.33.46-.44zM77.5 81.93c-.53 1.04-1.02 2.2-.83 3.38.13.37.13.83.6.75.78.02 1.5-.39 2.09-.88-.58.75-1.52 1.31-2.49 1.14-.41-.15-.48-.67-.57-1.05a4.36 4.36 0 011.2-3.34z"/>
      <path d="M78.73 83.24c-.19.28-.36.58-.5.89-.2.41-.4.87-.8 1.13-.1 0 .1-.23.11-.33.22-.5.4-1.08.82-1.46.11-.1.25-.16.37-.23zM73.9 66.32c.07.96.31 1.97.94 2.72.22.2.59.58.83.53.71-.22 1.15-.9 1.33-1.6.15-.48.22-.98.28-1.48.05.94 0 1.97-.62 2.73-.28.3-.64.58-1.06.64-.4-.05-.7-.37-.97-.65-.66-.8-.8-1.89-.73-2.89z"/>
      <path d="M75.61 66.7c0 .3 0 .6.06.89.06.4.13.84-.06 1.23-.08.19-.06-.12-.08-.2-.07-.38-.2-.75-.19-1.13 0-.28.1-.57.27-.78zM71.65 66.83c-.05.65-.05 1.36.31 1.92.12.13.3.4.4.32.54-.06.92-.54 1.15-1l.31-.71c-.05.7-.32 1.44-.93 1.84-.2.12-.44.2-.67.23-.43-.2-.68-.65-.75-1.1-.09-.5 0-1.02.18-1.5z"/>
      <path d="M72.7 67.3c0 .15-.03.3-.04.47-.03.27-.04.57-.18.8-.03.04-.15.22-.14.1-.01-.33-.08-.67.04-.98a.74.74 0 01.32-.4zM76.43 69.92c.17.7.45 1.47 1.08 1.9.24.17.33.18.58.02.66-.33.92-1.08 1.07-1.75.06-.24.1-.48.14-.73.05.82 0 1.74-.57 2.39-.24.27-.57.45-.92.55-.67-.2-1.1-.86-1.27-1.5a2.52 2.52 0 01-.1-.88z"/>
      <path d="M77.88 69.5c-.01.33.02.66.07.98.04.3.03.64-.15.9-.06-.07-.03-.22-.07-.32-.1-.4-.2-.84-.04-1.24.05-.11.12-.22.19-.31zM75.52 80.2c-.35.71-.78 1.44-.7 2.26.02.27.12.54.27.78-.14-.13.28.07.37.01a3 3 0 001.67-.64c-.5.63-1.36 1.06-2.18.86-.26-.12-.32-.45-.41-.7-.2-.83.21-1.67.74-2.3l.24-.26z"/>
      <path d="M76.65 80.94c-.18.24-.33.5-.46.76-.19.35-.38.73-.75.93-.09.03.06-.15.07-.21.2-.44.34-.94.73-1.26.12-.1.26-.16.4-.22zM74.94 77.72c-.02.9.05 1.95.76 2.6.47.07.87-.39 1.1-.76.14-.2.3-.7.36-.7-.07.76-.47 1.63-1.28 1.82-.53 0-.81-.59-.98-1.02-.2-.63-.12-1.31.04-1.94z"/>
      <path d="M76.1 78.18c-.01.37 0 .75-.03 1.13-.02.2-.08.4-.21.54-.07-.01-.03-.17-.06-.24-.03-.35-.1-.72.05-1.06.05-.14.14-.26.24-.37zM75.36 71.85c-.13.8-.23 1.69.18 2.43.04.16.38.41.36.45.16-.03.52-.06.71-.2.69-.4 1-1.17 1.35-1.84-.16.8-.47 1.65-1.2 2.1-.28.15-.6.25-.92.24-.5-.29-.74-.88-.79-1.44a3.4 3.4 0 01.26-1.58l.05-.16z"/>
      <path d="M76.62 72.5c-.05.16-.08.32-.1.49-.06.35-.1.72-.29 1.03-.03.06-.2.26-.16.1.04-.28.02-.57.08-.86.04-.23.13-.46.3-.63.04-.06.1-.1.17-.14zM74.36 74.58c-.32.81-.58 1.75-.24 2.6.13.3.21.44.54.38.74-.04 1.3-.6 1.73-1.15.1-.12.36-.5.36-.46-.32.77-.83 1.58-1.67 1.85-.29.07-.62.14-.9.02-.24-.21-.38-.53-.47-.83a3.05 3.05 0 01.65-2.4z"/>
      <path d="M75.48 75.45l-.23.54c-.12.3-.2.64-.43.89-.06.03-.16.18-.2.12.09-.24.12-.5.2-.75.1-.3.27-.63.58-.76l.08-.04zM72.56 79.08c-.32.81-.56 1.76-.2 2.6.13.24.13.4.4.35.71.03 1.3-.5 1.72-1.02.15-.16.41-.57.47-.6-.33.8-.87 1.6-1.74 1.85-.3.07-.72.17-.96-.1a2.1 2.1 0 01-.3-1.78c.11-.47.31-.93.61-1.3z"/>
      <path d="M73.66 79.94l-.22.52c-.1.27-.18.53-.33.77-.08.1-.2.25-.32.26.05-.14.1-.3.13-.44.07-.35.19-.72.46-.96a.62.62 0 01.28-.15zM71.18 75.87c-.03.78-.04 1.62.38 2.32.05.14.4.37.33.38.15-.06.42-.1.57-.25.42-.33.66-.8.88-1.28-.09.7-.43 1.46-1.11 1.75-.3.18-.62.07-.8-.2-.48-.6-.55-1.41-.41-2.13.04-.2.1-.4.16-.6z"/>
      <path d="M72.31 76.38c-.06.39-.04.78-.1 1.17-.03.18-.1.35-.21.49-.06 0 0-.15-.03-.2-.04-.4-.05-.82.12-1.19.06-.1.15-.18.22-.27zM70.97 72.5c-.4.86-.7 1.93-.22 2.81.4.32.97.09 1.36-.13.51-.31.9-.8 1.26-1.26-.37.84-1 1.76-2 1.87-.63.23-1.1-.45-1.11-1.02-.12-.82.27-1.6.7-2.28z"/>
      <path d="M72.05 73.43c-.15.25-.26.52-.36.8-.1.24-.23.5-.44.67-.05.04-.2.12-.12 0 .06-.14.09-.28.14-.42.08-.27.17-.56.37-.77.11-.13.25-.22.4-.28zM72.43 69.54c-.1.84-.12 1.73.2 2.53.13.28.3.54.55.71-.14-.05.14-.06.2-.08.3-.09.57-.28.78-.51.31-.33.51-.74.72-1.14.01.11-.07.32-.11.46-.2.58-.54 1.14-1.1 1.42-.2.1-.4.16-.62.18a1.97 1.97 0 01-.86-1.36 4.08 4.08 0 01.24-2.2z"/>
      <path d="M73.74 70.2c-.02.18-.07.35-.08.53-.06.37-.04.77-.2 1.12a.86.86 0 01-.2.3l.02-.37c0-.3 0-.6.06-.9.04-.18.12-.37.24-.52l.16-.16zM95.48 63.37c.1 0 .28.22.28.47 0 .14-.04.26-.1.35a.24.24 0 01-.21.1c-.14 0-.31-.13-.2-.39.02.12.1.23.16.24.06 0 .11-.04.11-.3.01-.25-.15-.47-.04-.47zM97.23 78.06c-.04.3-.14.58-.33.81-.25.31-.64.45-.96.67-.12.05-.2.3-.32.13-.1-.06-.2-.13-.05-.21.36-.34.93-.35 1.27-.72.18-.2.29-.44.36-.69h.02zM99.94 75.13c-.2.56-.5 1.12-1 1.47-.25.16-.53.27-.82.3-.08-.12-.04-.4.17-.32.36-.06.69-.26.95-.5.26-.23.46-.53.62-.83.03-.04.03-.12.08-.12zM103.84 62.78c-.2.04-.39.01-.58-.02a9.7 9.7 0 00-.58-.07c-.02-.07.12-.05.16-.07.27-.04.54-.05.8-.1.05-.03.12-.04.12.04l.08.22zM106.7 65.2a2.07 2.07 0 01-.38-.1c-.24-.1-.45-.24-.67-.36.03-.07.13.02.19.01.27.07.54.16.83.14.1-.03.06.08.05.13 0 .07 0 .13-.02.19zM106.22 66.62c-.23-.16-.41-.4-.55-.64-.07-.12-.12-.25-.17-.38.06-.04.1.11.15.15.16.22.38.42.63.54.15.02.01.15 0 .22l-.06.11zM106.65 71.1a2.1 2.1 0 01-.84-1.33c-.08-.34-.07-.69-.07-1.03.09.14.03.34.1.5.07.53.28 1.06.7 1.41.1.12.4.18.2.33l-.09.12zM105.78 77.07c-.22-.25-.29-.6-.31-.93 0-.24 0-.5.1-.72.1-.12 0 .08.01.13-.03.28.02.56.1.82.07.17.16.34.31.45.03.1-.13.15-.18.23l-.01.01zM104.19 74.71c.05.8-.1 1.65-.57 2.31-.2.26-.46.46-.75.57a1.57 1.57 0 01-.86-.52c-.52-.6-.59-1.46-.55-2.24.04-.2.1.31.1.42.11.68.28 1.43.85 1.88.24.13.4.32.62.1.56-.37.83-1.03.98-1.65l.18-.87z"/>
      <path d="M102.84 75c.13.2.15.42.16.64 0 .34-.06.67-.14.99 0 .14-.11.03-.1-.06-.09-.41-.01-.83.03-1.25.02-.1.02-.21.05-.31zM103.85 77.62c.13.69.14 1.46-.23 2.07a1.8 1.8 0 01-.6.58c-.29 0-.56-.17-.78-.35-.55-.52-.73-1.3-.75-2.02.15.17.11.42.2.62.18.54.44 1.14 1 1.39.1.03.3.15.24.07.4-.2.62-.61.73-1.02.14-.44.16-.89.19-1.34z"/>
      <path d="M102.72 78.02c.3.37.28.88.22 1.33 0 .11-.05.2-.1.05-.14-.33-.12-.7-.12-1.05 0-.11.02-.23 0-.33zM105.17 68.16c.2.94.18 2-.42 2.8-.23.3-.6.62-.98.39-.75-.28-1.19-1.05-1.37-1.8-.06-.28-.17-.8-.1-.95.1.3.17.63.3.93.24.68.66 1.4 1.4 1.6.18.08.09.01.3-.09.7-.6.88-1.6.87-2.49v-.39z"/>
      <path d="M103.78 68.69c.13.13.22.3.26.49.11.4.06.82.02 1.23.03.1-.08.15-.1.03-.15-.34-.11-.73-.15-1.1 0-.19-.04-.38-.04-.58l.01-.07zM104.98 65.13c.38.48.64 1.1.53 1.73-.05.26-.22.5-.45.65-.61 0-1.11-.5-1.34-1.04-.11-.25-.2-.52-.25-.79.02-.23.13.18.19.26.21.44.47.9.9 1.14.18.06.44.23.51.05.19-.18.24-.47.24-.72a3.21 3.21 0 00-.32-1.24v-.04z"/>
      <path d="M104.52 65.54c.22.12.3.36.35.59.04.2.03.39.03.58-.01.04.02.1-.03.1-.08-.02-.1-.12-.14-.18-.13-.33-.13-.68-.19-1.03l-.02-.06zM105.65 71.23c.18.99.18 2.08-.36 2.96-.18.27-.43.5-.71.66-.65-.1-1.2-.55-1.5-1.12a5.02 5.02 0 01-.5-2.11c.17.26.14.59.26.87.22.73.54 1.54 1.25 1.92.26.09.46.28.61.06.67-.46.87-1.31.95-2.07.04-.39.05-.78 0-1.17z"/>
      <path d="M104.17 71.73c.29.38.36.87.35 1.32 0 .25-.06.5-.05.75-.13-.02-.13-.22-.16-.32-.08-.42-.05-.85-.1-1.27l-.04-.48zM98.7 77.15c-.1.9-.14 1.85.3 2.67.08.2.45.49.47.53.47-.05.9-.34 1.2-.72.23-.28.37-.62.55-.93.05.2-.17.64-.3.9-.3.51-.8.95-1.4 1-.34-.04-.53-.39-.71-.63-.5-.86-.35-1.9-.1-2.82z"/>
      <path d="M100.03 77.74c-.07.26-.12.53-.15.8-.06.36-.1.74-.25 1.08-.1.08-.05-.16-.07-.21-.03-.47.03-.97.25-1.39.06-.1.14-.2.22-.28zM95.05 66.51c.07.09.14.17.23.22.03.04.14.1.09.14-.07.03-.14 0-.2-.04a.28.28 0 01-.15-.22c0-.03 0-.08.03-.1zM94.38 66.84l.05.06.02.06c-.01.02-.04.02-.06.02a.28.28 0 01-.17-.1.2.2 0 01-.04-.16c0-.01 0-.03.02-.04.04 0 .1.06.18.16zM94.6 66.62c.11.08.2.18.32.26.03.02.09.06.03.09h-.14a.35.35 0 01-.18-.15.3.3 0 01-.04-.2zM94.84 63.7c-.05.26-.06.54-.02.81a2 2 0 00.21.65c-.04.05-.11-.12-.15-.16a2.52 2.52 0 01-.35-1.34l.31.04zM100.82 64.33l-.04-.02-.06-.03a.53.53 0 00-.07-.03l-.22-.1-.27-.07-.35-.06a3.85 3.85 0 00-.38-.04l-.4-.01h-.44c-.14 0-.27.03-.41.05l-.41.08-.4.06H97.06l-.04-.01-.05-.01c-.14-.04-.24-.14-.28-.24s-.05-.18-.05-.24v-.16l.02-.06.05.01.01.06.03.14.09.18c.04.06.12.1.18.1h.12-.01.04c.06 0 .1 0 .17-.02l.38-.08c.13-.03.28-.08.41-.1.15-.03.3-.04.45-.05s.3 0 .45 0a5.27 5.27 0 01.83.13c.13.03.24.07.34.11l.28.14.19.14.1.1c.03 0 .04.02.04.03zM100.96 63.86a5.79 5.79 0 00-2.86-.64c-.14-.04.07-.07.12-.08a3.18 3.18 0 012.12.27c.23.1.43.25.6.43zM98.71 65.97c-.36.01-.73-.1-.99-.35-.22-.2-.37-.47-.4-.77.07-.08.12.2.2.25.2.27.45.5.75.64.15.08.3.14.44.23zM102.18 61.61c-.27.3-.65.51-1.05.57a2.5 2.5 0 01-.54.03c.1-.08.27-.04.4-.1.37-.12.73-.35.93-.7.1.05.17.14.26.2zM103.32 65.19c.08.46.04.95-.17 1.38-.12.26-.35.46-.62.57-.43-.1-.76-.48-.85-.9-.07-.33-.04-.68.1-.99.12-.1.01.24.04.32-.01.38.1.76.35 1.04.07.12.33.2.37.25-.08-.02.16-.1.2-.16.35-.31.47-.8.56-1.23 0-.1-.01-.2.02-.28z"/>
      <path d="M102.56 65.39c.03.14 0 .3.02.44 0 .2.05.43-.03.63-.02.07-.1.08-.1 0-.06-.17-.14-.33-.14-.5-.02-.2.05-.4.19-.54a.19.19 0 01.06-.03zM95.66 66.03c.11.13.18.3.33.39.04 0 .1.06.02.07-.13.03-.25-.06-.32-.17-.04-.08-.09-.19-.04-.28zM95.38 66.29c.07.1.16.2.24.28.04.04.18.11.08.15-.2.02-.38-.16-.35-.35 0-.03 0-.06.03-.08zM98.03 63.98c.18-.06.3 0 .34.15.1.26-.27.21-.23.49.06.28.38.36.12.45 0 0-.44-.03-.53-.47-.07-.31.04-.54.3-.62zM96.08 88.9c-.2 1.44-.16 3.03.72 4.24.28.4.65.73 1.07.98 0-.19.63-.34.76-.62.92-.97 1.04-2.36 1.18-3.62.03-.22.05-.87.12-.32 0 1.3-.05 2.7-.79 3.83-.33.5-.82.87-1.38 1.05a4.25 4.25 0 01-1.93-3.93 7 7 0 01.25-1.6z"/>
      <path d="M97.9 89.72c-.15.93-.11 1.88-.07 2.82-.03.18.08.54-.08.61a5.37 5.37 0 01-.22-2.49c.06-.33.16-.66.36-.94zM93.2 88.67c-.39 1.2-.6 2.58-.02 3.75.2.4.5.74.89.97-.23-.07.41-.18.44-.34.8-.7.99-1.8 1.21-2.78l.24-1.18c.11.39-.06.8-.06 1.19-.14 1.04-.32 2.18-1.11 2.95-.35.28-.87.69-1.22.2-.76-.63-1.03-1.67-.97-2.62.04-.74.24-1.47.56-2.14h.02z"/>
      <path d="M94.3 89.27c-.16.6-.19 1.24-.13 1.86.02.43.07.89-.13 1.29-.14.07-.01-.27-.06-.37-.05-.58-.22-1.15-.13-1.74a2 2 0 01.42-1.02l.02-.02zM102.12 94.4c.08 1.55-.13 3.22-1.08 4.5-.3.36-.67.67-1.11.83-1.14-.37-1.8-1.52-2.05-2.62-.22-.9-.25-1.83-.22-2.74.17.45.09.96.2 1.43.2 1.2.53 2.5 1.52 3.3.37.33.7.32 1.04-.06.95-.87 1.33-2.19 1.54-3.42.08-.38.11-.99.17-1.22z"/>
      <path d="M99.92 94.86c.41.65.4 1.46.24 2.2-.05.3-.14.6-.18.91.03.15-.1.3-.12.07-.1-.53.03-1.07.08-1.6.06-.5.08-1 0-1.5-.01 0 0-.13-.02-.08zM93.88 93.87c-.14 1.5.1 3.13 1.1 4.3.27.31.6.57.98.72.17-.2.74-.58.89-1 .55-1.08.67-2.31.8-3.5.13.35.02.75.04 1.12-.08 1.17-.32 2.43-1.17 3.28-.35.48-.94.44-1.32.02-1.2-1-1.59-2.67-1.44-4.17.02-.25.07-.55.12-.77z"/>
      <path d="M95.7 94.74c-.1.55-.1 1.12.05 1.66.1.48.22 1.02.02 1.5-.15 0-.02-.32-.1-.43-.1-.64-.39-1.27-.27-1.93.04-.28.15-.54.3-.77v-.03zM95.8 99.29c-.05 1.38-.07 2.91.78 4.08.36.47.82.84 1.32 1.14-.11-.15.56-.29.65-.52.92-.91 1.08-2.26 1.23-3.48.04-.22.05-1.16.15-.55-.03 1.3-.04 2.74-.81 3.86-.32.43-.75.8-1.27.96-.46-.07-.79-.5-1.15-.77-1.15-1.18-1.2-2.97-.95-4.5.02-.07 0-.17.05-.22z"/>
      <path d="M97.82 100.03c-.16.88-.02 1.77.03 2.65 0 .25.02.53-.1.76-.1 0-.04-.33-.1-.46-.1-.67-.25-1.35-.14-2.03.05-.3.14-.6.3-.87zM95.15 103.92c.33-.31.46-.8.37-1.24-.09-.69-.18-1.39-.09-2.08.04-.35.12-.7.22-1.04.03.22-.13.65-.11.95-.08.74.1 1.48.23 2.2.1.49-.04 1-.36 1.37l-.26-.16zM93.49 98.19c.27-.28.38-.68.3-1.06-.08-.7-.24-1.38-.17-2.08.02-.38.09-.76.18-1.13.03.31-.1.75-.08 1.12-.02.7.17 1.4.32 2.08.09.41.04.9-.27 1.2-.13.08-.19-.09-.28-.13zM92.3 92.7c.29-.29.2-.72.2-1.08-.1-1 .13-2.02.61-2.9.1-.1-.05.27-.1.35a4.9 4.9 0 00-.3 2.66c.05.38.07.8-.15 1.13-.11.02-.17-.11-.26-.15zM102.02 104.7c.07 1.5-.15 3.13-1.11 4.35-.38.42-.99 1.03-1.52.5-.96-.6-1.37-1.72-1.53-2.78a9.09 9.09 0 01-.09-2.06c.16.41.06.88.18 1.3.18 1.15.47 2.44 1.45 3.18.42.5.87.1 1.22-.27a5.94 5.94 0 001.26-3.16c.07-.35.04-.75.14-1.07z"/>
      <path d="M99.92 105.13c.37.6.4 1.35.25 2.02-.07.38-.19.76-.2 1.15-.18-.1-.12-.36-.14-.54 0-.75.23-1.5.15-2.25-.02-.13 0-.27-.06-.38zM96.41 108.52c.36-.38.48-.9.53-1.4.07-.7.13-1.4.49-2.01.04-.14.36-.54.18-.2-.44.7-.44 1.57-.46 2.38-.02.48-.14.98-.45 1.36-.11.02-.19-.1-.29-.13zM99.92 114.15c.32.44.33 1.02.24 1.54-.06.3-.15.6-.2.91-.1.12-.13-.18-.14-.26-.03-.46.09-.92.1-1.37.04-.28.01-.55 0-.82zM97.1 109.17c-.23 1.17-.29 2.48.37 3.53.21.33.5.6.83.82-.12-.1.45-.23.53-.41.69-.65.82-1.64.95-2.52.05-.24.04-.72.12-.8.11.4 0 .83.02 1.24-.06.96-.33 2.04-1.2 2.58-.37.4-.81.09-1.09-.25-.87-.9-.98-2.27-.7-3.44.02-.23.21-.58.17-.75z"/>
      <path d="M98.27 110c-.07.67 0 1.33.03 2 0 .23 0 .48-.1.7-.1-.01-.05-.26-.1-.36a3.82 3.82 0 01-.09-1.8c.05-.18.14-.43.26-.53zM98.16 113.8c.1 1.08.33 2.2.98 3.1.17.25.7.66.78.63.87-.35 1.28-1.3 1.48-2.16.13-.5.18-1.03.22-1.55.17.33.05.72.08 1.08-.06.99-.34 2.1-1.2 2.7-.24.13-.53.42-.8.19-.87-.48-1.28-1.47-1.45-2.4-.1-.51-.1-1.04-.08-1.56l-.01-.02zM99.92 118.75c.32.44.33 1.02.24 1.54-.06.3-.15.6-.2.91-.1.12-.13-.18-.14-.26-.03-.46.09-.91.1-1.37.04-.27.01-.55 0-.82z"/>
      <path d="M98.16 118.4c.1 1.08.33 2.2.98 3.1.17.25.7.66.78.63.87-.35 1.28-1.3 1.48-2.16.13-.5.18-1.03.22-1.55.17.33.05.72.08 1.08-.06.99-.34 2.1-1.2 2.7-.24.13-.53.42-.8.19-.87-.48-1.28-1.47-1.45-2.4-.1-.51-.1-1.04-.08-1.56l-.01-.02zM99.92 123.57c.33.44.33 1.04.24 1.56l-.2.9c-.14.03-.12-.27-.14-.39-.01-.44.09-.88.11-1.32.02-.25.01-.51 0-.76z"/>
      <path d="M98.33 123a6.42 6.42 0 001.05 3.3c.08.18.56.41.5.44.28-.15.63-.44.8-.77.53-.9.63-1.96.73-2.98.15.34.05.76.07 1.13-.06.93-.29 1.97-1.04 2.6-.25.22-.64.42-.92.12-.79-.61-1.08-1.64-1.19-2.6-.03-.4-.1-.84 0-1.24zM96.85 116.34a2 2 0 00.64-.87c.23-.54.34-1.15.68-1.65.11-.04-.1.22-.1.3-.21.64-.26 1.33-.58 1.93-.1.2-.22.37-.36.53-.12.05-.18-.18-.28-.24zM103.74 88.9c.4 1.47.4 3.16-.5 4.45a4 4 0 01-1.19 1.12 3.02 3.02 0 01-1.86-2.11 9.7 9.7 0 01-.3-3.06c.2.52.1 1.09.24 1.62.16 1.1.5 2.29 1.46 2.94.18.07.5.38.47.2 1.21-.73 1.76-2.2 1.78-3.57.01-.53-.04-1.06-.1-1.6z"/>
      <path d="M101.93 89.71c.46.76.46 1.7.31 2.54-.05.3-.13.6-.19.9-.17-.16-.08-.44-.11-.65.01-.9.12-1.82-.04-2.72 0-.02-.01-.08.03-.07zM106.63 88.66c.57 1.2.81 2.67.24 3.92-.23.46-.6.84-1.03 1.1-.95-.25-1.51-1.2-1.7-2.1-.18-.82-.3-1.66-.35-2.5.24.4.19.9.34 1.35.22.96.45 2.04 1.27 2.67.3.18.4.38.64.05.89-.78 1.06-2.07.89-3.18a8.27 8.27 0 00-.32-1.32z"/>
      <path d="M105.53 89.26c.43.54.5 1.27.42 1.94-.05.4-.16.82-.11 1.23-.14.04-.17-.31-.2-.44-.07-.75.12-1.51-.04-2.26-.02-.16-.07-.3-.07-.47zM105.94 93.87c.33 1.57.14 3.35-.94 4.6-.28.31-.63.57-1.02.72-.59-.12-.98-.67-1.26-1.17a7.7 7.7 0 01-.6-3.62c.17.37.08.8.2 1.18.16 1.05.37 2.2 1.15 2.98.28.2.43.47.67.21 1.04-.64 1.58-1.87 1.76-3.04.09-.62.09-1.24.04-1.86z"/>
      <path d="M104.12 94.74c.33.47.4 1.09.27 1.64-.1.5-.3.97-.27 1.48-.2-.03-.16-.42-.18-.6 0-.65.3-1.28.24-1.94 0-.18-.03-.45-.06-.58zM104.03 99.28c.25 1.39.3 2.94-.48 4.18a4.46 4.46 0 01-1.52 1.35c-.9-.31-1.56-1.1-1.81-2-.3-.97-.32-2-.32-3.01.14-.17.1.6.15.8.13 1.11.3 2.3 1.05 3.2.36.28.83.97 1.2.44a3.82 3.82 0 001.67-2.87c.1-.7.06-1.4.06-2.1z"/>
      <path d="M102 100.03c.43.69.4 1.54.28 2.32-.06.35-.13.7-.16 1.05-.09.13-.15-.3-.13-.43-.02-.95.2-1.9.03-2.85-.01-.02 0-.09-.02-.1zM104.41 104.12a1.7 1.7 0 01-.32-1.59c.18-.8.29-1.62.14-2.43 0-.14-.16-.73-.02-.37.21.78.27 1.6.17 2.4-.06.52-.23 1.1.08 1.57.18.21.28.29-.05.42zM106.07 98.38c-.3-.35-.4-.85-.28-1.3.14-.67.34-1.33.3-2.03.01-.38-.06-.76-.09-1.13.11.32.16.67.2 1.01.07.72-.06 1.43-.17 2.13-.05.36-.03.76.23 1.04.16.11-.09.17-.16.26h-.01zM107.25 92.88c-.33-.48-.16-1.09-.12-1.62.08-.9-.13-1.8-.52-2.6.24.27.33.64.46.96.25.73.28 1.5.21 2.26-.09.32.14.61.15.87l-.18.13zM103.15 108.71c-.43-.5-.49-1.2-.48-1.83a3.68 3.68 0 00-.53-2.07c.22.13.36.56.48.83.3.78.18 1.65.48 2.43.03.22.5.5.11.6l-.03.03zM102.72 109.16c.42 1.17.54 2.54-.1 3.65-.23.4-.56.78-.98.98-.42-.03-.75-.39-1.02-.67-.71-.94-.72-2.18-.7-3.3.1-.16.12.34.12.48.15.9.23 1.91.86 2.64.22.24.49.43.79.56-.24-.03.35-.28.41-.45.79-.85.9-2.1.78-3.2-.06-.2-.03-.58-.16-.69z"/>
      <path d="M101.56 110c.35.52.38 1.17.28 1.76-.05.32-.14.64-.18.96-.14-.04-.1-.28-.13-.41-.03-.53.06-1.06.05-1.6l-.03-.69V110zM104.4 82.71c-.22-.24-.44-.5-.57-.82-.09-.16-.12-.37-.29-.47-.09-.02-.05-.08.02-.04.13.05.23.16.3.28.18.3.43.55.71.75.05.1-.1.18-.14.27l-.03.03zM96.49 81c-.05 1.03-.01 2.14.61 3 .2.2.49.63.67.46.63-.13 1.09-.68 1.35-1.24.26-.55.4-1.14.54-1.72.16-.08-.02.4 0 .5-.1.88-.34 1.84-1.05 2.44a2 2 0 01-.98.43c-.77-.4-1.18-1.25-1.24-2.08-.08-.59 0-1.2.1-1.76V81z"/>
      <path d="M98.04 81.54c-.07.56-.06 1.12-.12 1.68-.04.17-.05.37-.18.49-.1-.13-.04-.37-.09-.54a2.3 2.3 0 01.27-1.54.29.29 0 01.12-.1zM101.77 85a4.8 4.8 0 01-1 3.82c-.34.33-.83.75-1.28.35-.86-.45-1.3-1.4-1.43-2.33a5.58 5.58 0 01.02-1.71c.13.37.02.78.11 1.16.13.99.49 2.08 1.4 2.6.3.16.29.23.55.03.94-.6 1.32-1.75 1.5-2.8.08-.36.08-.74.11-1.1l.02-.02z"/>
      <path d="M99.91 85.43c.37.7.34 1.53.17 2.28-.06.14-.06.34-.19.45-.05-.9.06-1.81.04-2.72zM104.94 84.83c.4 1.14.37 2.52-.4 3.5-.27.3-.65.8-1.08.51-.84-.4-1.26-1.32-1.46-2.2-.1-.46-.16-.94-.19-1.41.21.3.17.7.31 1.04.25.84.57 1.77 1.37 2.23l.25.11c.8-.43 1.16-1.36 1.25-2.22a5.3 5.3 0 00-.07-1.56h.02z"/>
      <path d="M103.45 85.43c.27.28.37.66.39 1.04.02.4-.1.8-.12 1.2-.13.08-.14-.2-.18-.3-.07-.44-.01-.9-.04-1.35 0-.2-.07-.4-.05-.59zM94.99 84.66c-.24 1.06-.2 2.2.31 3.17.17.35.42.68.76.87.3-.12.65-.33.85-.63.63-.85.87-1.9 1.1-2.9.12.33-.06.68-.07 1.03-.16.94-.49 1.95-1.28 2.54-.34.28-.78.34-1.07-.05a3.7 3.7 0 01-.88-2.8c.02-.4.17-.97.28-1.23z"/>
      <path d="M96.48 85.39c-.13.56-.13 1.15-.15 1.72-.01.23-.04.46-.13.68-.13-.09-.08-.3-.13-.43-.08-.52-.1-1.08.11-1.57a.9.9 0 01.3-.4zM96.19 81.55c-.37.42-.46.99-.57 1.52-.1.4-.3.8-.66 1.01-.14-.11-.23-.32 0-.37.33-.24.45-.65.58-1.02.14-.42.32-.86.65-1.18v.04zM104.08 84.03c.2.28.52.5.86.54.14-.03.26.03.2.18.01.13-.04.17-.15.11-.41-.11-.75-.42-.93-.8v-.02zM103.23 80.99c.23.98.23 2.06-.25 2.97-.2.36-.51.66-.88.85a2.16 2.16 0 01-1.69-1.44 6.43 6.43 0 01-.4-1.98c.2.33.21.82.38 1.2.24.79.73 1.61 1.59 1.83.2.07 0 .04.24-.06.73-.53.96-1.49 1.03-2.34 0-.32.03-.85-.02-1.04V81z"/>
      <path d="M101.68 81.54c.26.29.35.7.38 1.07.02.31-.02.63-.06.94.04.1-.04.27-.1.1-.13-.24-.13-.52-.16-.78-.02-.42-.04-.85-.08-1.27v-.03zM92.13 136.29l1.93-.06-1.91.38c-.13.02-.24-.15-.16-.25.04-.04.09-.08.14-.07zM98.65 136.64l.05-.21.1-.47.1-.7a9 9 0 00.07 1.21v.22c0 .09-.08.17-.17.17-.09 0-.16-.08-.16-.18v-.04zM101.63 113.76c.36.51.47 1.14.71 1.7.14.32.33.62.59.85-.03.1-.13.28-.25.2-.08-.08-.13-.18-.2-.27-.33-.47-.45-1.03-.57-1.58-.08-.3-.14-.62-.3-.9h.02zM100.85 136.68c0-.47.01-.95.07-1.43.05.41.12.82.21 1.23.02.07.05.14.04.22-.01.1-.15.19-.24.11-.05-.02-.07-.07-.08-.13zM94.36 138.77c.82-.6 1.8-1.06 2.36-1.94.1-.14.24-.45.27-.5-.28.9-1 1.55-1.71 2.1-.24.18-.48.37-.7.57-.12-.03-.14-.16-.22-.23zM107.66 136.6l-1.9-.37 1.93.06c.08 0 .16.07.16.16s-.08.16-.16.16h-.03zM105.27 139.03c-.7-.62-1.53-1.11-2.05-1.9a3 3 0 01-.4-.82 4.3 4.3 0 001.83 1.92c.27.18.55.35.8.55-.04.1-.12.16-.18.25z"/>
    </g>
  </g>
</svg>
