<svg xmlns="http://www.w3.org/2000/svg" fill="#d7374a" stroke="#000" viewBox="50 50 200 200">
  <metadata source="http://wappenwiki.org" license="https://creativecommons.org/licenses/by-nc-sa/3.0"/>
  <g id="eagleTwoHeards" stroke-width=".32">
    <path d="M83.23 66.52s-1 .47-1 1.68c0 1.5 1.17 2.29 2.6 2.29 2.07 0 3.14-1.47 5.3-1.44 2.66 0 3.63 1.34 3.63 1.34l.06-.68s-1.83-1.72-4-1.72c-1.95 0-3.88 1-4.99 1-1.12 0-1.84-.63-1.84-1.31 0-.5.03-.79.24-1.1"/>
    <path d="M93.62 71.4c-.18-.25-.23-.59-1.74-.57-.62 0-1.28.53-2.33.4-.44 0-.82-.23-1-.55-.23-.36-.2-.82-.14-.91.03-.07.03-.16.12 0 .18.75 1.11.76 1.55.58.62-.17 1.13-.68 1.9-.7.43-.01 1.06.1 1.43.28.1-.15-.06-.68-.24-.98a2.72 2.72 0 00-.94-.76c-1.1-.45-2.1-.23-3.05-1a2.03 2.03 0 00-1.29-.42c-.82 0-1.24.82-1.3 1.23 0 .15-.15.25-.24.08-.12-.28-.47-.86-.47-2.1 0-.87.44-1.92 2.01-2.53.5-1.15 1.75-.97 1.75-.97s-.18 2.13.56 3.4c.34.59 2.2.03 3.26 1.99 1.06 1.93.28 3.5.16 3.52zm23-4.88s1 .47 1 1.68c0 1.5-1.16 2.29-2.6 2.29-2.06 0-3.14-1.47-5.29-1.44-2.66 0-3.64 1.34-3.64 1.34l-.05-.68s1.83-1.72 4-1.72c1.94 0 3.87 1 4.98 1 1.12 0 1.85-.63 1.85-1.31 0-.5-.04-.79-.25-1.1"/>
    <path d="M106.24 71.4c.18-.25.22-.59 1.73-.57.62 0 1.28.53 2.33.4.44 0 .83-.23 1.01-.55.23-.36.2-.82.14-.91-.04-.07-.04-.16-.12 0-.18.75-1.12.76-1.56.58-.6-.17-1.12-.68-1.9-.7a3.88 3.88 0 00-1.43.28c-.09-.15.08-.68.25-.98.2-.24.6-.62.94-.76 1.1-.45 2.1-.23 3.04-1 .38-.26.74-.42 1.3-.42.82 0 1.23.82 1.29 1.23 0 .15.16.25.26.08.11-.28.46-.86.46-2.1 0-.87-.45-1.92-2-2.53-.51-1.15-1.75-.97-1.75-.97s.16 2.13-.56 3.4c-.34.59-2.21.03-3.28 1.99-1.06 1.93-.28 3.5-.14 3.52zm-29.37 56.23s1.18-.4 1.55.53c.37.93-.15 1.26-.15 1.26s-.32.11-.57.38c-.63.66-.36 1.28.08 1.68.19.2.38.23.41.3.15.2-1.34.4-2.17-1.23-.9-1.76.85-2.91.85-2.91zm13.82-2.3s-1.23-.18-1.4.82c-.2.99.38 1.21.38 1.21s.34.06.64.27c.74.51.6 1.18.26 1.68-.16.22-.33.27-.36.36-.1.22 1.4.13 1.9-1.64.5-1.9-1.42-2.7-1.42-2.7zm-14.32-3.07s1.12.56.73 1.47c-.4.92-1.01.79-1.01.79s-.3-.15-.67-.14c-.9.01-1.15.65-1.12 1.26 0 .26.1.4.09.5-.05.23-1.24-.67-.68-2.42.62-1.88 2.66-1.46 2.66-1.46zm3.03-4.52s.6 1.12-.25 1.62c-.87.53-1.27.06-1.27.06s-.17-.3-.46-.5c-.75-.53-1.3-.15-1.65.33-.15.23-.14.43-.22.47-.17.18-.6-1.27.85-2.35 1.58-1.18 3 .37 3 .37z"/>
    <path d="M92.55 116.63l-.08.08c-1.2 1.16-2.35 2.42-3.51 3.65l-1.99 2.14c-.41.45-.59.7-.98 1.14-.16.17-.68.66-.55.94.12.24.7.26.88.3.32.08.42.45.73.52.54.13.64-.3 1.06-.47.38-.17.76.13 1.14-.07.41-.51.67-.53 1.34-.18.42.28.24.68.24.68s-.56.2-.88.91c-.23.52-.27.81-.1 1.15-.27.24-.41.38-.68.33-.3-.05-.66-.31-.73-.45-.11-.22-.05-.58-.09-.72-.6-.04 0 .58-.65.8-.33.11-.52.06-.7-.23a.95.95 0 00-.82-.45c-.2 0-.42.03-.6-.02-.23-.06-.59-.3-.75-.45-.06-.07-.1-.27-.2-.28a.73.73 0 00-.34.07c-.6.25-.97.52-1.44.96-.5.5-.76.38-1.05.27a1.1 1.1 0 00-.78.03c-.1.05-.34.35-.54.5-.35.26-1.04.25-1.05.62 0 .16.12.5.05.75-.03.15-.35.47-.63.58-.24.1-.41 0-.71-.19.09-.35 0-.63-.34-1.1-.45-.63-1.04-.73-1.04-.73s-.25-.34.11-.7c.45-.38.82-.47 1.35-.1-.18-.14.34.14.71-.46.23-.32.63-1.34 1.87-.84.45.1.79-.08 1-.13-.08.01-.05-.53-.35-.53-.2 0-.55.14-1.1.13-.56 0-.85-.63-1.72-.45-.44.14-.9-.11-1 0-.1.11-.24.45-.47.56-.13.08-.58.09-.85-.04-.24-.1-.29-.3-.38-.65.31-.17.45-.44.54-1.01.12-.77-.23-1.26-.23-1.26s.07-.42.56-.41c.75.1.96.24 1.03.9.07.12.23.12.39.07.14-.04.17-.12.84-.11.35.02.66.31.76.4.45.34.78.07 1.1.14.39.07.77.2.9.33-.14-.33-1.24-1.26-1.67-1.64-.22-.17-.78 0-.67-.79.07-.56-.36-.74-.51-.7-.15.05-.34.2-.6.18-.15-.02-.52-.27-.67-.54-.15-.23-.07-.42.08-.74.36.03.63-.11 1-.52.56-.53.56-1.15.56-1.15s.3-.3.69 0c.44.38.66.67.31 1.33-.14.4.49.59.42 1.03-.08.45.36.8.67.83.67.08 1.2 1.8 1.33 1.88.13.1.67.53.97.15.03-.06.22-.24.44-.47.12-.3.53-.76.88-.92.11-.31.5-.77.8-.87.17-.32.59-.81.86-.9.33-.5 2.68-2.98 2.68-2.98l1.18-1.14c1.48-1.48 2.59.47 1.98 1.04zm30.4 11s-1.17-.4-1.54.53c-.37.93.14 1.26.14 1.26s.33.11.58.38c.63.66.35 1.28-.08 1.68-.2.2-.38.23-.42.3-.15.2 1.34.4 2.17-1.23.9-1.76-.85-2.91-.85-2.91zm-13.81-2.3s1.23-.18 1.41.82c.18.99-.4 1.21-.4 1.21s-.34.06-.63.27c-.75.51-.6 1.18-.27 1.68.16.22.34.27.36.36.11.22-1.39.13-1.9-1.64-.5-1.9 1.43-2.7 1.43-2.7zm14.31-3.07s-1.12.56-.71 1.47c.38.92 1 .79 1 .79s.3-.15.66-.14c.9.01 1.15.65 1.14 1.26 0 .26-.12.4-.1.5.04.23 1.23-.67.67-2.42-.62-1.88-2.66-1.46-2.66-1.46zm-3.02-4.52s-.6 1.12.26 1.62c.85.53 1.25.06 1.25.06s.18-.3.47-.5c.74-.53 1.3-.15 1.65.33.14.23.13.43.21.47.17.18.6-1.27-.84-2.35-1.59-1.18-3 .37-3 .37z"/>
    <path d="M107.28 116.63l.08.08c1.22 1.16 2.36 2.42 3.53 3.65l1.98 2.14.98 1.14c.15.17.68.66.54.94-.11.24-.7.26-.87.3-.32.08-.42.45-.73.52-.55.13-.64-.3-1.06-.47-.38-.17-.77.13-1.15-.07-.4-.51-.67-.53-1.34-.18-.4.28-.22.68-.22.68s.56.2.87.91c.22.52.27.81.11 1.15.25.24.4.38.67.33.28-.05.65-.31.72-.45.11-.22.07-.58.1-.72.58-.04-.01.58.65.8.34.11.52.06.7-.23a.94.94 0 01.81-.45c.22 0 .42.03.6-.02.23-.06.6-.3.75-.45.07-.07.1-.27.22-.28.11-.01.22.02.34.07.59.25.95.52 1.42.96.51.5.77.38 1.06.27.28-.12.66-.02.78.03.1.05.33.35.54.5.34.26 1.05.25 1.06.62 0 .16-.14.5-.06.75.03.15.34.47.62.58.24.1.42 0 .73-.19-.1-.35 0-.63.33-1.1.45-.63 1.04-.73 1.04-.73s.23-.34-.1-.7c-.46-.38-.84-.47-1.35-.1.16-.14-.36.14-.73-.46-.23-.32-.63-1.34-1.86-.84-.45.1-.78-.08-1-.13.08.01.05-.53.35-.53.19 0 .54.14 1.1.13.55 0 .84-.63 1.71-.45.44.14.9-.11 1 0 .11.11.26.45.48.56.12.08.57.09.84-.04.26-.1.3-.3.38-.65-.31-.17-.45-.44-.53-1.01-.13-.77.23-1.26.23-1.26s-.08-.42-.56-.41c-.76.1-.95.24-1.03.9-.08.12-.24.12-.4.07-.14-.04-.16-.12-.82-.11-.36.02-.68.31-.79.4-.43.34-.76.07-1.08.14-.4.07-.77.2-.9.33.13-.33 1.24-1.26 1.67-1.64.22-.17.77 0 .66-.79-.07-.56.37-.74.52-.7.15.05.33.2.6.18.15-.02.52-.27.67-.54.14-.23.06-.42-.08-.74-.35.03-.62-.11-1.02-.52-.54-.53-.54-1.15-.54-1.15s-.3-.3-.69 0c-.45.38-.67.67-.32 1.33.14.4-.48.59-.4 1.03.06.45-.36.8-.68.83-.68.08-1.2 1.8-1.34 1.88-.11.1-.67.53-.95.15-.04-.06-.23-.24-.45-.47a2.02 2.02 0 00-.88-.92 1.76 1.76 0 00-.8-.87c-.17-.32-.6-.81-.85-.9-.35-.5-2.7-2.98-2.7-2.98l-1.18-1.14c-1.48-1.48-2.6.47-1.98 1.04z"/>
    <path d="M95.9 98.2c-.11 2.21-2.1 4.36-3.2 7.7-1.21 3.6-1.02 5.06-2.49 7.21-.66.93-1.72 2.36-3.07 2.21-1.33-.15-2.04-1.42-3.34-1.57-.85-.08-1.8.52-1.9 1.36s.26 1.07.26 1.07.11-1.18 1.51-1.04c.96.11 1.37 1.24 1.37 1.24s-.68.42-.78 1.37c-.06.67.56 1.02.56 1.02s-.18-1.37 1.11-1.22c.65.07 1.16.3 1.8.26 1.6-.1 3.42-1.34 3.42-1.34s.21 1.1.1 2.15c-.19 1.58-.7 2.11-.7 2.11s.24.11.58-.09c.34-.21.75-.72.75-.72s.67 1.21.58 2.09c-.09.86-.6 1.16-.6 1.16s1.59.34 1.69-1.57c.05-.78-.47-2.23.31-3.78.37-.7.85-1.32 1.31-1.96a19.76 19.76 0 002.76-5l.54-5.2-2.58-7.46zm8.03 0c.11 2.21 2.08 4.36 3.2 7.7 1.2 3.6 1.01 5.06 2.48 7.21.67.93 1.72 2.36 3.07 2.21 1.34-.15 2.04-1.42 3.34-1.57.85-.08 1.81.52 1.9 1.36s-.26 1.07-.26 1.07-.11-1.18-1.5-1.04c-.97.11-1.37 1.24-1.37 1.24s.68.42.77 1.37c.06.67-.55 1.02-.55 1.02s.18-1.37-1.12-1.22c-.65.07-1.14.3-1.8.26-1.58-.1-3.42-1.34-3.42-1.34s-.2 1.1-.1 2.15c.19 1.58.7 2.11.7 2.11s-.23.11-.57-.09c-.33-.21-.76-.72-.76-.72s-.67 1.21-.58 2.09c.1.86.6 1.16.6 1.16s-1.58.34-1.69-1.57c-.04-.78.47-2.23-.31-3.78-.36-.7-.85-1.32-1.31-1.96a21.3 21.3 0 01-2.69-5l-.55-5.2 2.52-7.46zM73.91 80.47a51.69 51.69 0 01-3 12.32c-2.56 6.46-4.24 8.17-4.3 8.07-.06-.11 2.13-4.29 3.79-9.1a84.67 84.67 0 002.87-11.65c.04-.24.6-.11.64.36z"/>
    <path d="M74.12 80.05s-1.35 11.65-5.58 24.74c-.2.34-.45.97-.67 1.48-.26.54-.36.63-.15 1.08.34.56 1.35.74 2.24.41 1.73.73 2.75-1.77 2.75-1.77s1.98-1.31 2.09-4.66c1.46-1.06 2.1-5.26 1.71-6.14 1.02-.6 2-4.53 2-4.53l.46-3.6-.49-3.65-4.36-3.36zm-.97.57s-1.26 6.64-2.52 7.4c.3.02-.67 4.92-2.62 6.22.04.79-1.03 2.47-1.67 3.07-.67.83-1.97.98-2.14.9-.07-.04-1.14.66-2.2-.23-.56-.61.84-3.33.9-3.55a66.75 66.75 0 002.57-7.66c.96-3.62 1.72-8.07 1.68-8.87 0-.2 1.68-4.52 3.58-3 1.9 1.51 2.42 5.71 2.42 5.71zm12.29 8.5c.76 2.4-.27 4.58-.27 4.64 0 .3.35 5.77-1.23 6.8.83.65-.9 7.68-2.24 7.86.45 2.23-1.84 5-2.87 4.93-1.41 1.88-4.41 1.63-4.23.83-1.4-.3-1.31-1.68-.99-1.92.02-.02-.57-.9.07-1.29 1.05.97 1.98-.14 2.5-1.2.62-1.32 1.13-3.6 1.8-6.57 1.09-4.93 1.73-13.26 1.6-15.36-.03-.2 1.75-1.65 3.52-1.36 1.76.3 2.27 1.34 2.35 2.63zm1.66 2.17c.51 7.3-1.85 18.72-1.85 18.72s-.16.79-.38 1.66.5 1.31 1.02 1.3c.76.03 1.38-.62 1.38-.62s.81-.11 1.32-1.05c.43-.62.5-1 .48-1.37.76-.02 2.23-3.36 1.98-5.36 1.22-.96 1.5-5.88 1-6.65 1.51-.55 1.24-4.84 1.24-4.84s1-.24-.93-2.48-4.81.07-5.26.69z"/>
    <path d="M86.7 90.66c.15 5.34-.53 9.6-1.16 12.55-1.5 6.7-2.88 8.72-2.96 8.63-.07-.1 1.43-4.5 2.3-9.46A83.69 83.69 0 0085.9 90.6c.01-.24.68-.4.78.05zm-7.36-1.6a50.18 50.18 0 01-1.76 12.06c-1.73 6.26-3.1 8-3.17 7.9-.07-.08 1.53-4.2 2.58-8.83a79.63 79.63 0 001.5-11.08c0-.23.78-.49.85-.05z"/>
    <path d="M96.18 88.52l-1.05-2.54c-.8-.37-1.62-.34-2.43-.69a10.3 10.3 0 00-3.32-.9c-1.52-.06-2.79.49-4.25-.06-.86-.32-2.02-1.95-2.7-2.54-1.08-.97-2.46-1.46-2.57-1.51a4.01 4.01 0 01-1.54-1.54c-.54-.9-.74-2.6-.23-3.57a3 3 0 011.29-1.24c.6-.35 1.48-1.01 1.77-1.89.88-2.63-.54-6.3-2.63-7.22a3.92 3.92 0 00-3.23-2.7c-1.57-.27-3.5.55-4.02 1.48 0 0-1.19.35-2.35 1.19a4.92 4.92 0 00-1.53 2.03c-.63 1.47-.13 2-.65 2.58-.37.43-1.06.36-1.46.31.47 1.24 1.95.84 1.95.84 0 .43-.72 1.58-.92 3.05-.25 1.87.35 1.84-.31 4-.38 1.23-1.75.97-2.49.33-.11-.08-.38-.02-.25.32.27.74.82 1.94 2.52 1.71.45-.07.96-.45.96-.45.1.3-.17 1.53.39 1.67.2.06.58-.09 1.07-.25.3-.12.56.15.11.81-.23.34-.56.97-.36 1.18.49.29 2.01-.77 2.4-.15 0 0-.44.88-.1 1.44.33.57 1.67-.24 1.9.19-.05.41-.3.67-.06 1.2.54.59 1.39.23 1.8.63-.1.3.3 1.38.3 1.38.7.56 1.99.02 2.08.06.1.03.5 1.17.98 1.4.44.23.8-.43.89-.38.06.04.33.9.88 1.22.38.21 1.51-.28 1.66-.28.56 0 .8 1.3 1.31 1.57.5.22 1.14-.63 1.51-.35.47.31.25.67.85 1.16.6.5 1.41-.51 1.66-.32.3.28.28.78.4.95.12.18.81.09 1.47-.38.9-.64.94-.26 1.05-.26.6.3.52.65 2.43 1.05 1.21.34 1.8-.92 1.8-.92s.31.58 1.37.57c.82-.06 1.89-1.18 1.89-1.18-.05-.11-.3-.02-.4 0 .2-.47.32-.97.34-1.5.08-1.09.02-.45-.18-1.5zm29.73-8.05a52.8 52.8 0 003 12.32c2.57 6.46 4.25 8.17 4.3 8.07.08-.11-2.12-4.29-3.79-9.1a84.67 84.67 0 01-2.87-11.65c-.04-.24-.6-.11-.64.36z"/>
    <path d="M125.71 80.05s1.35 11.65 5.58 24.74c.18.34.43.97.67 1.48.25.54.36.63.14 1.08-.33.56-1.33.74-2.24.41-1.73.73-2.75-1.77-2.75-1.77s-1.98-1.31-2.08-4.66c-1.45-1.06-2.12-5.26-1.71-6.14-1.03-.6-2-4.53-2-4.53l-.45-3.6.48-3.65 4.36-3.36zm.97.57s1.26 6.64 2.5 7.4c-.3.02.69 4.92 2.63 6.22-.04.79 1.03 2.47 1.68 3.07.67.83 1.96.98 2.13.9.07-.04 1.14.66 2.2-.23.56-.61-.83-3.33-.9-3.55a66.75 66.75 0 01-2.57-7.66c-.96-3.62-1.71-8.07-1.68-8.87 0-.2-1.68-4.52-3.58-3-1.9 1.51-2.41 5.71-2.41 5.71zm-12.3 8.5c-.76 2.4.27 4.58.27 4.64 0 .3-.34 5.77 1.23 6.8-.82.65.92 7.68 2.24 7.86-.45 2.23 1.84 5 2.88 4.93 1.41 1.88 4.41 1.63 4.22.83 1.41-.3 1.31-1.68.99-1.92-.02-.02.57-.9-.07-1.29-1.04.97-1.98-.14-2.5-1.2-.62-1.34-1.13-3.6-1.8-6.57-1.09-4.93-1.73-13.26-1.6-15.36.02-.2-1.75-1.65-3.52-1.36-1.76.3-2.26 1.34-2.35 2.63zm-1.66 2.17c-.51 7.3 1.85 18.72 1.85 18.72s.17.79.38 1.66c.23.87-.48 1.31-1 1.3-.77.03-1.4-.62-1.4-.62s-.8-.11-1.32-1.05c-.42-.62-.5-1-.48-1.37-.76-.02-2.22-3.36-1.97-5.36-1.23-.96-1.51-5.87-1.02-6.64-1.5-.55-1.23-4.84-1.23-4.84s-.99-.24.94-2.49 4.82.07 5.25.69z"/>
    <path d="M113.14 90.66a51.7 51.7 0 001.14 12.55c1.51 6.7 2.89 8.72 2.96 8.63.07-.1-1.41-4.5-2.3-9.46a83.89 83.89 0 01-1-11.78c-.03-.24-.7-.4-.8.05zm7.34-1.6c.1 5.06 1.02 9.3 1.76 12.06 1.73 6.26 3.12 8 3.18 7.9.06-.08-1.54-4.2-2.6-8.83a79.63 79.63 0 01-1.47-11.08c-.03-.23-.79-.49-.87-.05z"/>
    <path d="M103.64 88.52l1.05-2.54c.82-.37 1.62-.34 2.44-.69a10.3 10.3 0 013.32-.9c1.51-.06 2.78.49 4.26-.06.84-.32 2-1.95 2.67-2.54 1.1-.97 2.48-1.46 2.59-1.51a3.96 3.96 0 001.53-1.54c.55-.9.74-2.6.23-3.57a3.04 3.04 0 00-1.28-1.24c-.6-.35-1.49-1.01-1.78-1.89-.87-2.63.54-6.3 2.63-7.22a3.92 3.92 0 013.23-2.7c1.57-.27 3.5.55 4.03 1.48 0 0 1.18.35 2.34 1.19a4.92 4.92 0 011.53 2.03c.63 1.47.14 2 .65 2.58.37.43 1.06.36 1.46.31-.47 1.24-1.94.84-1.94.84 0 .43.72 1.58.91 3.05.25 1.87-.34 1.84.31 4 .38 1.23 1.76.97 2.5.33.11-.08.37-.02.25.32-.27.74-.83 1.94-2.53 1.71-.45-.07-.96-.45-.96-.45-.09.3.18 1.53-.38 1.67-.2.06-.59-.09-1.07-.25-.3-.12-.56.15-.11.81.22.34.56.97.35 1.18-.49.29-2-.77-2.4-.15 0 0 .44.88.1 1.44-.33.57-1.66-.24-1.9.19.06.41.3.67.07 1.2-.55.59-1.39.23-1.79.63.09.3-.31 1.38-.31 1.38-.7.56-1.99.02-2.09.06-.1.03-.49 1.17-.98 1.4-.44.23-.8-.43-.88-.38-.07.04-.34.9-.9 1.22-.36.21-1.5-.28-1.64-.28-.56 0-.8 1.3-1.32 1.57-.5.22-1.14-.63-1.51-.35-.47.31-.24.67-.84 1.16-.62.5-1.42-.51-1.66-.32-.3.28-.3.78-.4.95-.11.18-.82.09-1.48-.38-.9-.64-.94-.26-1.05-.26-.6.3-.52.65-2.42 1.05-1.21.34-1.82-.92-1.82-.92s-.3.58-1.36.57c-.81-.06-1.89-1.18-1.89-1.18.05-.11.3-.02.4 0a4.77 4.77 0 01-.34-1.5c-.08-1.09-.02-.45.18-1.5z"/>
    <path d="M94.2 83.7c-.4 1.17-1.05 1.7-1.55 2.25-.33.36-.5.83-.6.99-.3.4-.66 1-.94 2.1-.25 1 .25 2.16-.04 3.09-.15.51-.56.67-.51.78.04.09.33.27.67.27.6 0 1.08-.6 1.08-.6s-.69 1.07-.69 1.95c0 1.06.66 2.2.66 3.2-.04.61-.45.82-.39.91.05.1.5.1.83-.02.45-.14.78-.5.78-.5s-.25.7-.25 1.37c0 .76.24 1.5.24 1.5l.34.77s.4.8.39 1.57c-.01.53-.45 1.05-.43 1.1s.2.12.48.06c.4-.08.9-.54.9-.54s-.33.94-.22 1.72c.11.78.67 1.62.67 2.38 0 .6-.55 1.12-.53 1.17.03.05.42.18.79-.06.32-.16.56-.56.56-.56s-.52 1.41-.4 2.69c.12.95.88 2.75.16 3.95-.56.76-1.48.77-1.48.82s.5.74 1.21.74c.68 0 .94-.23.97-.25-.01.02-.04.23.05 2.1.16 2.15.76 5.88.88 8.53.1 2.8.16 5.27.05 6.07-.19 1.52-1.1 2.73-2.55 2.73-2.7 0-3.65-2.62-5.86-4.49a6.3 6.3 0 00-4.29-1.65 4.4 4.4 0 00-4.31 3.04 3.75 3.75 0 002.25 4.73c.14-.07-.82-1.39-.35-2.67.35-.98 1.44-1.5 2.6-1.5 3.04 0 4.09 3.35 6.68 3.34-1.66.63-1.68 2.08-3.03 2.08-.68 0-1.07-.39-1.07-.8 0-.62.48-.94.63-1.05-.7-.36-1.83.36-1.83 1.7 0 1.4 1.09 2.35 2.69 2.35 2.33 0 3.2-1.17 4.93-1.8 0 0-1.94 1.48-1.94 3.39 0 2.66 2.13 3.08 2.73 2.91-.45-.45-1.58-2.43.42-3.79 2.58-1.75 2.86-2.48 3.2-4.73a15.12 15.12 0 01-.37 2.94c-.38 1.26-1.08 3.33-1.08 4.37 0 2.24 2.24 5.12 2.64 5.12s2.5-2.89 2.5-5.12c0-1.04-.7-3.11-1.08-4.37a15.12 15.12 0 01-.37-2.94c.33 2.25.61 2.98 3.21 4.73 2 1.35.88 3.34.4 3.79.62.17 2.74-.23 2.74-2.91 0-1.9-1.94-3.38-1.94-3.38 1.74.63 2.6 1.79 4.94 1.79 1.6 0 2.69-.94 2.69-2.35 0-1.34-1.12-2.06-1.84-1.68.15.09.64.41.64 1.03 0 .42-.4.8-1.09.8-1.32 0-1.36-1.46-3-2.08 2.57 0 3.62-3.36 6.67-3.36 1.14 0 2.23.53 2.6 1.52.45 1.28-.5 2.61-.36 2.67a3.76 3.76 0 002.25-4.73 4.41 4.41 0 00-4.31-3.04 6.27 6.27 0 00-4.3 1.65c-2.19 1.87-3.14 4.5-5.84 4.5-1.46 0-2.36-1.22-2.55-2.74-.12-.82-.06-3.28.04-6.07.11-2.65.6-6.38.78-8.53.1-2.19.15-2.1.15-2.1s.27.25.96.25 1.2-.67 1.2-.74-.92-.06-1.47-.82c-.71-1.2.05-3 .15-3.94a6.88 6.88 0 00-.38-2.67c.07.12.27.4.55.53.37.22.75.11.78.06.01-.06-.52-.56-.52-1.17 0-.76.56-1.59.67-2.4.11-.77-.23-1.7-.23-1.7s.5.44.9.53c.28.04.45 0 .47-.06s-.4-.56-.41-1.1c-.03-.77.38-1.57.38-1.57l.33-.78s.25-.74.25-1.49c0-.67-.26-1.36-.26-1.36s.34.36.79.49c.33.11.78.11.82.02.04-.09-.35-.3-.39-.9 0-1.01.66-2.16.66-3.2 0-.9-.68-1.97-.68-1.97s.47.6 1.08.6c.33 0 .62-.18.67-.26.03-.11-.36-.27-.53-.79-.28-.93.21-2.1-.04-3.08a5.94 5.94 0 00-.93-2.1c-.12-.16-.32-.6-.6-.99-.62-.86-1.15-1.15-1.4-2.27m-1.35 24.92s0 0 0 0 0 0 0 0h0zm-1.09 0s0 0 0 0 0 0 0 0h0z"/>
    <path d="M118.87 132.88a4.41 4.41 0 00-4.31-3.04 6.27 6.27 0 00-4.29 1.65c-2.2 1.87-3.15 4.5-5.85 4.5-1.45 0-2.35-1.22-2.55-2.74-.1-.82-.06-3.28.06-6.07.1-2.65.59-6.38.76-8.53.1-2.19.15-2.1.15-2.1s.27.25.97.25 1.2-.67 1.2-.74-.92-.06-1.47-.82c-.72-1.2.05-3 .14-3.94a6.88 6.88 0 00-.38-2.67c.07.12.28.4.55.53.37.22.75.11.79.06 0-.06-.53-.56-.53-1.17 0-.76.56-1.59.67-2.4.11-.77-.22-1.7-.22-1.7s.5.44.9.53c.27.04.44 0 .48-.06s-.42-.56-.43-1.1c-.02-.77.4-1.57.4-1.57l.32-.78s.24-.74.24-1.49c0-.67-.24-1.36-.24-1.36s.33.36.76.49c.35.11.78.11.84.02.04-.09-.36-.3-.4-.9 0-1.01.67-2.16.67-3.2 0-.9-.69-1.97-.69-1.97s.49.6 1.08.6c.34 0 .63-.18.67-.26.05-.11-.36-.27-.53-.79-.28-.93.22-2.1-.04-3.08a5.94 5.94 0 00-.93-2.1c-.11-.16-.31-.6-.6-.99-.6-.86-1.14-1.15-1.4-2.26h0s.34.6.97.6c.37 0 .86-.22.92-.59-.07 0-.79.08-1.02-.33-.3-.5-.22-.97-.35-1.65a8.85 8.85 0 00-1.42-2.61c-.45-.67-.5-1.8-.27-2.37a2.24 2.24 0 001.47 1.54c.94.34 1.78-.09 2.2-1.12-.86.26-1.28.24-1.83-.2a2.58 2.58 0 01-.9-2.04c0-.98.37-1.42.56-2 .17-.49.3-1.03.25-1.53-.18-.53-.26-1.25-.26-1.25s-.04-1.5.9-2.62c.46-.55 1.25-.89 2.33-1.14.58-.14.72-.24.98-1.07.1-.33.17-.77.18-1.15.02-.79-.1-1.46-.16-1.73-.2-.51-.96-.8-1.56-.83-1.27-.02-1.35.25-2.23.1-.75-.12-.74-.75-.6-1.13-.35.12-.55.34-.57.55-.03.42.13.72.13.72s-.18.2-1.05.11c-1.1-.13-1.05-1.3-1.05-1.3s-.33.3-.33.88c0 1.06.9 1.28.9 1.28s-.18.56-1.1.72c-.35.07-.95.08-1.24-.22-.41-.44-.18-.78-.23-1.24-.13-.17-.81.59-.68 1.5.17 1.1 1.38 1.25 1.38 1.25s-.31.76-.83.76c-.31 0-.62-.22-.62-.22s.12.9.98.9c.44 0 .7-.27.74-.3-.03.03-.97.99-1.19 2.22-.14 2.13-1.12 2.12-1.13 3.84-.02-1.72-.97-1.71-1.14-3.84a4.46 4.46 0 00-1.18-2.22c.04.03.3.3.73.3.86 0 .99-.9.99-.9s-.33.22-.63.22c-.53 0-.83-.76-.83-.76s1.21-.16 1.38-1.26c.13-.9-.56-1.66-.67-1.49-.07.46.17.8-.23 1.24-.3.3-.88.29-1.25.22-.92-.15-1.09-.72-1.09-.72s.9-.2.9-1.28c0-.59-.34-.88-.34-.88s.05 1.17-1.05 1.3c-.85.1-1.04-.11-1.04-.11s.17-.3.11-.72c-.01-.21-.19-.45-.55-.56.14.4.15 1.02-.6 1.13-.89.16-.97-.1-2.23-.09-.6.03-1.35.32-1.57.83a5.63 5.63 0 00.02 2.88c.26.84.4.94 1 1.07 1.07.25 1.86.59 2.32 1.14.95 1.13.9 2.62.9 2.62s-.07.72-.25 1.25c-.06.5.08 1.04.23 1.53.2.58.56 1.02.56 2a2.58 2.58 0 01-.9 2.04c-.53.45-.97.46-1.8.19.4 1.04 1.25 1.48 2.18 1.12 1.26-.45 1.46-1.53 1.46-1.53.25.56.25 1.7-.27 2.37a7.34 7.34 0 00-1.4 2.6c-.14.7-.06 1.16-.35 1.66-.26.41-.96.33-1.02.33.05.36.53.6.9.6.64 0 .97-.61.97-.61-.4 1.18-1.06 1.71-1.55 2.26-.33.37-.5.83-.6.99-.3.4-.65 1-.94 2.1-.25.99.25 2.15-.04 3.08-.15.52-.56.68-.51.79.04.09.33.27.67.27.6 0 1.07-.6 1.07-.6s-.68 1.07-.68 1.95c0 1.05.66 2.2.66 3.2-.04.61-.45.82-.39.91.04.1.5.1.83-.02.45-.15.78-.5.78-.5s-.26.7-.26 1.37c0 .75.25 1.5.25 1.5l.34.77s.4.8.39 1.56c-.01.54-.45 1.06-.43 1.11s.2.11.47.06c.4-.08.91-.54.91-.54s-.33.94-.22 1.71c.1.79.67 1.63.67 2.39 0 .6-.55 1.12-.53 1.17.03.05.42.17.79-.06.32-.16.56-.56.56-.56s-.52 1.41-.4 2.69c.12.95.88 2.75.16 3.95-.56.76-1.48.77-1.48.83s.5.73 1.21.73c.67 0 .94-.23.97-.25-.02.02-.04.23.05 2.1.16 2.15.76 5.88.88 8.53.1 2.8.16 5.26.05 6.07-.19 1.52-1.1 2.73-2.55 2.73-2.7 0-3.65-2.62-5.86-4.49a6.3 6.3 0 00-4.29-1.66 4.4 4.4 0 00-4.31 3.05 3.75 3.75 0 002.26 4.73c.12-.06-.83-1.38-.36-2.67.36-.98 1.44-1.51 2.6-1.51 3.05 0 4.09 3.36 6.68 3.35-1.65.63-1.68 2.08-3.03 2.08-.68 0-1.07-.39-1.07-.8 0-.62.48-.95.62-1.05-.69-.37-1.82.36-1.82 1.7 0 1.4 1.09 2.35 2.69 2.35 2.33 0 3.2-1.17 4.92-1.8 0 0-1.93 1.48-1.93 3.39 0 2.66 2.13 3.08 2.73 2.9-.45-.44-1.58-2.42.41-3.78 2.6-1.75 2.87-2.48 3.2-4.73a15.12 15.12 0 01-.36 2.94c-.38 1.26-1.07 3.33-1.07 4.37 0 2.24 2.24 5.12 2.62 5.12s2.5-2.9 2.5-5.12c0-1.04-.7-3.11-1.07-4.37a15.12 15.12 0 01-.37-2.94c.33 2.25.62 2.98 3.21 4.73 2 1.35.88 3.34.4 3.79.62.17 2.74-.24 2.74-2.91 0-1.9-1.94-3.39-1.94-3.39 1.74.64 2.6 1.8 4.94 1.8 1.59 0 2.69-.94 2.69-2.36 0-1.33-1.12-2.06-1.83-1.68.14.1.63.42.63 1.04 0 .42-.4.8-1.09.8-1.32 0-1.36-1.47-3.01-2.08 2.58 0 3.63-3.35 6.68-3.35 1.14 0 2.24.51 2.6 1.51.46 1.29-.5 2.61-.36 2.67.56-.06 3.13-1.73 2.2-4.72zm-15.59-24.3h0s0 0 0 0 0 0 0 0zm1.09 0s0 0 0 0h0s0 0 0 0z"/>
    <path d="M99.84 132.12c-2.21 0-2.75-.4-2.75-.4s-1.55-.6-1.55-2.2c0-2.2 2-2.26 2-2.26s.75.45 2.3.45c1.67 0 2.24-.45 2.24-.45s2-.07 2 2.26c0 1.67-1.55 2.2-1.55 2.2s-.47.4-2.69.4z"/>
    <path fill="#F6F6F6" d="M91.48 65.11c-1.41.14-1.46-1.22-1.44-1.34.16.02 1.32-.34 1.72-.16.24.15.61 1.38-.28 1.5zm16.9 0c1.42.14 1.45-1.22 1.44-1.34-.17.02-1.32-.34-1.72-.16-.24.15-.6 1.38.28 1.5z"/>
    <g fill="#000" stroke="none">
      <path d="M80.83 121.54c-1.4.63-1.16 3.16-1.05.5.11-.13 1-1.06 1.05-.5zm10.3-2.04c1.84-.34 1.5 3.52 1.1.8.05-.75-1.36-.14-1.1-.8zm-11.88-2.27c-1.18-1.1-2.92 1.9-1.55-.2.19-.27 1.85-.39 1.55.2zm1.77-4.33c-.78-1.3-3.27-.6-.75-.98.24.15 1.16.66.75.98zM93 110.5c-2.06 1.73-3.97 4.21-5.95 6.24.34-.48 3.47-4.1 5.01-5.7.33-.22.94-1.25.94-.54zm-6.03 4.27c1.18.45.4.88 0 0zm.71-.79c1.34.52.24.81 0 0zm.78-.79c.9.25.94 1.17 0 0zm1.84 5.58c.05-1.24 1.08-1.12 0 0zm-6.27-.42c1.56-.64.29.65-.14.09zm.15-1.7c1.3.22-.53.6 0 0zm-3.51-.67c.14 1.52-.58.24 0 0zm2.23-3.25c-.74 1.7-.61-.74 0 0zm-1.96 6.91c1.42.95-.58.5 0 0zm5.24-4.05c1.3.5.3.82 0 0zm33.56 5.76c1.78.6 1 3.43.8.75-.18-.28-.87-.32-.8-.75zm-10.34-1.67c-1.53.11-1.61 3.03-1.28.47-.08-.12 1.38-1.17 1.28-.47zm11.76-2.61c1.4-1.27 3.17 2.1 1.35.06-.36-.66-1.23.65-1.35-.06zm-1.86-4.25c.44-1.79 3.66-.3 1.08-.78-.5.07-.55.83-1.08.78zm-11.62-2.56c1.69 1.54 4.02 4.33 5.8 6.44-.11-.02-3.04-3.36-4.3-4.63-.57-.83-1.74-1.38-1.5-1.81zm5.89 4.8c-1.28.87-.17-.81 0 0zm-.71-.8c-1.64 1.25 0-.97 0 0zm-.77-.79c-.97.65-.73-.2-.03-.24zm-1.88 5.3c-.87-.81-.22-1.38 0 0zm6.18-.13c-2.22-.73.39-.6 0 0zm.13-1.77c-1.01.56-.36-.55 0 0zm3.6-.83c.15 1.8-.78-.45 0 0zm-2.25-3.42c.97 1.15-.66.33 0 0zm1.85 7.26c-1.17 1.4-.21-.85 0 0zm-5.37-4c-.99.66-.7-.2-.03-.23zm-7.98-11.08c1.93 2.53-1.75 3.94-2.07.84 1.19 2.7 3.02 1.67 2.07-.84z" transform="matrix(1.12 0 0 1.12 -12.37 -7.23)"/>
      <path d="M105.43 105.45c.92.73.74 3.17 0 0zm.65-3.29c1.8 3.14-2.34 3.25-2.1.81 1.06 2.53 2.8 2.14 2.1-.81z" transform="matrix(1.12 0 0 1.12 -12.37 -7.23)"/>
      <path d="M105.1 102.74c.4.23.65 1.26.43 1.44-.28-.42-.32-.98-.43-1.44zm-.36 6.22c.15.72.95 1.64 1.38 1.72.89-.25.35-2.16.61-2 .43.74.12 2.76-1.05 2.09-.61-.37-.9-1.14-.94-1.81z" transform="matrix(1.12 0 0 1.12 -12.37 -7.23)"/>
      <path d="M105.73 108.93c.3.37.57 2 .02.87-.1-.26-.2-.62-.02-.87zm1.97-2.63c.62.64 1.3 2.21.29 2.72-.96.17-1.78-.78-2.07-1.54.42.66 1.75 1.62 2.19 1.14.37-.76-.08-1.65-.41-2.32z" transform="matrix(1.12 0 0 1.12 -12.37 -7.23)"/>
      <path d="M106.93 107.1c.42-.03 1.1 1.3.69 1.14-.3-.33-.5-.74-.69-1.14zm.32 6.37c.67-.34-.37-1.98.19-1.23.22.28.35 1.58-.19 1.23zm5.05-3.22c.65-.45 1.84.36.73.07-.24-.03-.53 0-.73-.07zm-18.16-5.45c-.32.76-.44 2.63.42 2.54.8.06 1.5-1.64 1.62-1.45-.26.9-1.04 2-2.07 1.74-.79-.78-.4-2 .03-2.83z" transform="matrix(1.12 0 0 1.12 -12.37 -7.23)"/>
      <path d="M95.08 105.46c-.09.87-1.1 2.33-.37.37.08-.15.2-.32.37-.37zm-.65-3.3c-.26.79-.2 2.39.46 2.52.91.21 1.71-2.26 1.6-1.43-.18.83-1.11 2.16-2.05 1.57-.6-.74-.44-1.88-.01-2.66z" transform="matrix(1.12 0 0 1.12 -12.37 -7.23)"/>
      <path d="M95.42 102.74c0 .69-.73 2.28-.44.7.06-.26.18-.56.44-.7zm.35 6.23c-.04.84-.7 2.22-1.69 1.86-.87-.28-.3-2.68-.24-2.01-.16.7.14 2.38.94 1.64.52-.34.75-1 .99-1.49z" transform="matrix(1.12 0 0 1.12 -12.37 -7.23)"/>
      <path d="M94.78 108.93c.33.26-.3 1.74-.37 1.07.05-.35.22-.78.37-1.07zm-1.96-2.62c-.45.65-.8 2.19-.25 2.43.78.44 2.2-1.68 1.89-.92-.35.78-1.83 1.87-2.36.78-.26-.83.2-1.68.72-2.29z" transform="matrix(1.12 0 0 1.12 -12.37 -7.23)"/>
      <path d="M93.58 107.1c-.02.33-1.16 1.88-.72.77.13-.31.38-.7.72-.77zm-.6 6.5c-.33-.48-.03-1.47.27-1.57-.65.42.2 1.36-.27 1.57zm-4.78-3.35c-.97.5-1.8-.2-.42-.02.1.02.34.08.42.02zM74.5 99.66a53.5 53.5 0 003.97-14.78h.3c-.86 5.12-2.32 10.57-4.27 14.78zm10.16-11.8c-.44 5.74-1.01 11.45-3.55 16.69-.94 1.58-.46.7.18-.46 2.27-5.16 2.74-10.7 3.08-16.26-.2 0 .42.03.29.03zm6.78 1.27a59.17 59.17 0 01-2.2 15.06 60.97 60.97 0 001.91-15.08zm-12.47 1.55c.94.84.2 1.04-.01 0zm-1.61 5.55c.85.32.45 1.15.17.28 0-.09-.28-.2-.17-.28zm-1.42 4.17c.44 1-.4.9 0 0zm-2.08 1.52c-.27 1.5-.57.53 0 0zM68.8 91.54c2.1-3.4 3.46-7.29 4.1-11.24h.33c-.62 3.64-2.48 8.6-4.43 11.24zm2.97-.79c-1.12-.25.13-.65 0 0zm-3.21 2.83c.2.87-.66.76 0 0zm17.12 2.36c.93.16.21.6 0 0zm-1.66 7.46c-1.27-.04-.1-.69 0 0zm-2.66 4.4c-.37-.3-.34-.66.1-.28l-.06.18zm-3.14.18c-.6.96-.93.27 0 0zm-1.03-1.26c-.62.29-.62-.56 0 0zM93.3 93.98c-1.31-.32-.06-.67 0 0zm-.9 5.94c-1.14-.15 0-.68-.01 0zm-1.72 4.83c-1.09-.27-.01-.62 0 0zm-1.6 2.12c-1.15-.09.07-.63 0 0zM75.32 81.74c.33-.42.24-1.77.37-.51-.13.2.1.93-.37.51z" transform="matrix(1.12 0 0 1.12 -12.37 -7.23)"/>
      <path d="M81.3 64.28c.19.29-.04 2.06-.04.95.04-.31-.54-.98.04-.95zm1.6 15.24c-1.15-1.98-.11-1.55 0 0zm3.53 7.71c-.48.32-.76.33-.8.26.16-.23.52-.28.8-.26zm-5.05-2.26c-.35 1.23-.94.58-.09.07 0-.04.1-.14.09-.07zM79 84.74c-.28-1.34.62-.24 0 0zm-6.98-5.58c.75-1.14.92-1.1.28.12l-.17-.07zM71 76.1c.26 1.52-.92 2.12 0 0zm1.13-8c-.08.44-.72 1.87-1.12 1.21.65-.12.8-.88 1.12-1.21zm17.84 19.74c.3.32.3.55.23.6-.2-.06-.22-.39-.23-.6zm-13.11-4.4c.15-.4.69-1.61.4-.48-.24.29.08.6-.4.48zm-1.54-1.7c.33-.42.24-1.77.37-.51-.13.2.1.93-.37.51zm-1.58-1.47c.68-.8 1.18-.97.31-.02-.01.26-.16.08-.31.02zm11.29 1.16c-.81 1.32-1.25 3.9-.3 4.77 1.67.26 2.77-1.34 3.61-2.53-.67 1.46-2.05 3.3-3.89 2.76-1.07-1.5-.37-3.67.58-5z" transform="matrix(1.12 0 0 1.12 -12.37 -7.23)"/>
      <path d="M86.52 82.94c-.5.66-.87 2.2-1.35 2.32.38-.81.5-1.82 1.35-2.32zm4.91.24c0 .91.45 2.2 1 2.87l-.2.15c-.72-.8-.88-2-.8-3.02zm1.5.38c.21.6-.15 1.46-.15 1.46s-.32-.79.15-1.46zM88.51 83c-.18 1.09.3 2.76.97 3.21 1.24-.2 1.58-1.65 1.84-2.67-.05 1.16-.49 2.86-1.89 2.92-1.15-.71-1.14-2.36-.92-3.46z" transform="matrix(1.12 0 0 1.12 -12.37 -7.23)"/>
      <path d="M89.9 83.54c.04.53-.25 2.87-.34 1.38-.04-.48-.01-1.01.34-1.38zm-2.54 1.99c.01.75.03 1.73.74 2.19.24-.04 1.01-.75 1.1-1.33.09.79-.96 2.24-1.64 1.22a2.33 2.33 0 01-.2-2.08z" transform="matrix(1.12 0 0 1.12 -12.37 -7.23)"/>
      <path d="M88.32 85.91c.24 1.14-.55 1.99-.2.29.05-.1.1-.22.2-.29zm2.17.59c.22.86 1.14 1.93 1.75 2.09l.16.18c-1.2.14-1.9-1.37-1.91-2.27zm1.2-.03c.17.3.68 1.92.28 1.37-.22-.4-.5-.91-.28-1.37zm-9.59-5.63c-.5 1.18-.6 3 .02 3.83.73.4 2.16-1.12 1.91-.73-.47.85-2.16 1.58-2.47.23a4.05 4.05 0 01.54-3.33z" transform="matrix(1.12 0 0 1.12 -12.37 -7.23)"/>
      <path d="M83.44 81.87c-.4.66-.36 1.58-.98 2.1.26-.71.23-1.68.98-2.1zm-3.72-2.45c-.63 1.07-1.05 2.78-.55 3.69.92.5 3.15-1.46 1.55-.06-.76.64-2.2.57-2.06-.73a4.23 4.23 0 011.06-2.9z" transform="matrix(1.12 0 0 1.12 -12.37 -7.23)"/>
      <path d="M80.85 80.61c-.32.45-.98 2.02-1.16 1.68.3-.6.46-1.4 1.16-1.68zm-5.17-15.58c-.04 1.13.72 2.65 1.49 2.98 1.23-.3 1.5-1.75 1.6-2.83.17 1.17-.26 3.07-1.7 3.07-1.2-.56-1.44-2.03-1.39-3.22z" transform="matrix(1.12 0 0 1.12 -12.37 -7.23)"/>
      <path d="M77.23 65.38c.1.64.1 2.95-.2 1.2-.07-.4-.1-.88.2-1.2zm-3.6.12c-.15.7.14 2.2.79 2.03.81-.04 1.4-2.4 1.03-.79-.17.96-1.65 1.63-1.92.4a2.74 2.74 0 01.1-1.64z" transform="matrix(1.12 0 0 1.12 -12.37 -7.23)"/>
      <path d="M74.59 65.91c.07.6-.5 2.1-.34.49.06-.19.13-.42.34-.49zm3.39 2.39c.08.75.81 1.95 1.37 1.82.93-.37 1.12-1.46 1.25-2.33.14 1.03-.24 2.5-1.44 2.64-.82-.32-1.22-1.34-1.18-2.13z" transform="matrix(1.12 0 0 1.12 -12.37 -7.23)"/>
      <path d="M79.29 67.93c.18.89-.1 2.57-.24.71a.98.98 0 01.24-.71zm-1.36 9.93c-.54.77-.83 2.14-.48 2.71.8.46 2.77-1.1 1.24.08-.62.44-1.75.38-1.69-.62-.1-.84.43-1.56.93-2.17z" transform="matrix(1.12 0 0 1.12 -12.37 -7.23)"/>
      <path d="M78.95 78.51c-.18.44-1.47 2.32-.89 1.03.17-.45.45-.83.89-1.03zm-1.55-2.93c-.12.79.3 2.35.83 2.38.85.02 1.45-2.38.99-.62-.18.77-1.35 1.39-1.7.37a2.73 2.73 0 01-.12-2.13z" transform="matrix(1.12 0 0 1.12 -12.37 -7.23)"/>
      <path d="M78.45 76c.24 1.5-.7 1.92-.11.11.03-.05.1-.05.11-.11zm-.66-5.75c-.26.87-.05 2.2.45 2.62 1.02.25 1.76-1.66 1.88-1.67-.18.94-.87 2.07-1.96 1.95-.88-.7-.73-1.98-.37-2.9z" transform="matrix(1.12 0 0 1.12 -12.37 -7.23)"/>
      <path d="M78.92 70.84c-.14.46-.15 1.43-.5 1.47.08-.5-.01-1.17.5-1.47zm-2.05 1.89c-.44.8-.5 2.14-.08 2.7 1.04.2 1.72-.76 2.26-1.49-.32.94-1.48 2.33-2.51 1.58-.6-.84-.26-2.04.33-2.79z" transform="matrix(1.12 0 0 1.12 -12.37 -7.23)"/>
      <path d="M77.88 73.53c-.05.35-.89 2.01-.68 1.09.08-.43.24-.91.68-1.09zm-2.65 3.29c-.38.79-.57 2.4.12 2.69.92.24 1.88-1.34 2-1.33-.31.9-1.5 2.12-2.43 1.4-.6-.83-.25-2 .31-2.76z" transform="matrix(1.12 0 0 1.12 -12.37 -7.23)"/>
      <path d="M76.24 77.6c-.08.35-.88 2-.69 1.08.08-.42.26-.92.69-1.08zm-2.25-3.69c-.17.8.21 2.1.59 2.44.73-.07 1.1-.8 1.37-1.39.06.81-1.17 2.42-1.84 1.28-.45-.69-.36-1.58-.12-2.33z" transform="matrix(1.12 0 0 1.12 -12.37 -7.23)"/>
      <path d="M75.01 74.37c.09 1.18-.62 2.12-.21.26a.6.6 0 01.21-.26zm-1.42-3.33c-.45.78-.67 2.41.03 2.71.89.37 2-1.36 2.08-1.23-.36.88-1.6 2.07-2.52 1.28-.55-.9-.12-1.97.41-2.76z" transform="matrix(1.12 0 0 1.12 -12.37 -7.23)"/>
      <path d="M74.57 71.88c-.26.4-.48 1.34-.83 1.35.16-.51.28-1.12.83-1.35zm.45-3.63c-.1.99-.16 2.24.7 2.93.31-.04 1.25-.68 1.43-1.32.33-.45-.43 1.58-1.17 1.54-1.19.1-1.34-1.64-1.11-2.54l.15-.61z" transform="matrix(1.12 0 0 1.12 -12.37 -7.23)"/>
      <path d="M76.2 68.85c.02.77-.58 2.65-.39.84.03-.3.12-.67.39-.84zm49.77 30.82a53.81 53.81 0 01-4.2-14.82l.3.03c.42 5.12 2.25 10.56 3.9 14.79zm-9.83-11.83c.37 5.72.8 11.46 3.3 16.7.81 1.35.5.98-.13-.15-2.48-5.2-3-10.86-3.46-16.52zm-6.76 1.24a64.1 64.1 0 001.87 15.13 61.25 61.25 0 01-2.15-15.11zm12.18 1.62c-.17.47-.7 1.28-.36.31a.8.8 0 01.36-.31zm1.61 5.54c-.14.66-.97.93-.31.2.1-.06.2-.18.31-.2zm1.43 4.16c.35 1.11-.57.79 0 0zm2.07 1.52c.85.9-.12 1.26 0 0zm5.01-10.36a33.12 33.12 0 01-4.4-11.32h.25c.77 3.93 2.22 8.16 4.15 11.32zm-5.13-6.64c1.04.44-.7.39-.01-.01zm2.18 5.54c.9-.27.05.56 0 .11zm3.24 3.12c.62.93-.3.62 0 0zm-17.13 2.39c-.36.7-.81-.01 0 0zm1.72 7.15c1.09-.15-.06.58-.03.1zm2.46 4.42c.58-.56.29.46.05.1l-.04-.1zm3.29.42c1.09.43.35.85 0 0zm.99-1.27c.68-.47.6.34 0 0zm-16.1-13c1.34-.56-.04.76.01 0zm.92 5.94c1.57-.49-.24.82 0 0zm1.74 4.84c.62-.24.4.26-.05.28l.03-.19zm1.59 2.11c1.14-.2-.2.7 0 0zm13.47-24.72c-.27-.44.04-1.9.05-.66-.07.37.52.56-.05.66z" transform="matrix(1.12 0 0 1.12 -12.37 -7.23)"/>
      <path d="M119.49 64.35c-.23 1.55-.42 1.39-.3.01-.02-.2.2 0 .3-.01zm-1.91 15.16c.34-1.77.91-1.48.03.01h-.03zm-3.53 7.71c1.3-.08 1.3.76 0 0zm5.11-2.26c.5.25.72 1.3.16.42-.05-.12-.18-.3-.16-.42zm2.06-.27c.07-1.27.57-.27.08.02zm7-5.39c-1.46-1.9.25-1 0 0zm1.31-3.2c-.03.5.74 1.92.04.96-.1-.28-.16-.79-.04-.96zm-1.13-8.01c-.01.6 1.6 1.54.72 1.34-.47-.25-.63-.94-.72-1.34zm-17.83 19.75c.01 1.12-.8.71 0 0zm12.78-4.41c-.3-1.14-.14-1.2.28 0h-.19zm1.57-1.57c-.27-.44.04-1.9.05-.66-.07.37.52.56-.05.66zm1.58-1.46c-.45-.78-.9-1.2.16-.28.21.19.01.2-.16.28zm-11.03 1.03c.97 1.4 1.68 3.6.49 5.04-1.82.41-3.14-1.37-3.81-2.8.71 1.3 2.51 3.02 3.74 2.45.92-1.44.2-3.32-.42-4.69z" transform="matrix(1.12 0 0 1.12 -12.37 -7.23)"/>
      <path d="M113.98 82.94c.9.5 1 1.6 1.43 2.43-.8-.58-.83-1.7-1.43-2.43zm-4.9.24c.16 1.09-.06 2.54-1 3.2l.01-.27c.7-.8.94-2 .99-2.93zm-1.5.38c.47.5.2 1.44.05 1.54-.23-.66.02-.87-.05-1.54zm4.41-.56c.28 1.2.23 2.88-1 3.5-1.37-.23-1.7-1.79-1.8-2.95.28 1.03.59 2.46 1.84 2.67.74-.47 1.11-2.14.96-3.22z" transform="matrix(1.12 0 0 1.12 -12.37 -7.23)"/>
      <path d="M110.6 83.54c.5.28.46 2.24.18 1.77-.21-.56-.03-1.2-.18-1.77zm2.54 1.99c.31.81.15 2.56-.99 2.41-.62.02-1.06-1.99-.71-1.18.26.54.94 1.36 1.26.7.4-.55.4-1.28.44-1.93z" transform="matrix(1.12 0 0 1.12 -12.37 -7.23)"/>
      <path d="M112.18 85.91c.73.86-.11 2.1-.01.33.02-.1-.02-.22.01-.33zm-2.16.59c-.14 1-.74 2.28-1.88 2.32l-.05-.37c1.01.18 1.5-1.26 1.93-1.95z" transform="matrix(1.12 0 0 1.12 -12.37 -7.23)"/>
      <path d="M108.82 86.47c.37.45-.53 2.24-.42 1.17.1-.4.31-.77.42-1.17zm9.59-5.63c.7 1.2 1.16 3.05 0 4.11-.82.32-2.08-.97-1.97-1.1.58.64 2.06 1.46 2.23.26.34-1.07.06-2.23-.26-3.27z" transform="matrix(1.12 0 0 1.12 -12.37 -7.23)"/>
      <path d="M117.07 81.87c.72.46.73 1.38.97 2.11-.61-.53-.59-1.44-.97-2.11zm3.71-2.45c.84 1.06 1.57 2.78.61 3.96-.8.4-2.24-.7-2.19-.9.74.57 2.37 1.28 2.33-.1.12-1.05-.32-2.04-.75-2.96z" transform="matrix(1.12 0 0 1.12 -12.37 -7.23)"/>
      <path d="M119.65 80.61c.77.3.88 1.22 1.25 1.86-.7-.38-.77-1.29-1.25-1.86zm5.17-15.58c.16 1.22-.23 2.85-1.54 3.25-1.35-.34-1.61-1.92-1.52-3.11.13 1.07.37 2.52 1.61 2.83.25-.13 1.05-.8 1.16-1.42a3.6 3.6 0 00.29-1.55z" transform="matrix(1.12 0 0 1.12 -12.37 -7.23)"/>
      <path d="M123.28 65.38c.48.44.14 1.8-.01 1.87-.23-.6.08-1.25.01-1.87zm3.59.12c.53.8.1 2.96-1.15 2.12-.62-.17-1.03-2.3-.58-1.14.27.71 1.28 1.62 1.57.57.22-.47.24-1.04.16-1.55z" transform="matrix(1.12 0 0 1.12 -12.37 -7.23)"/>
      <path d="M125.92 65.91c.55.2.4 1.92.09.91-.04-.3-.07-.6-.09-.91zm-3.4 2.39c.14 1.04-.96 2.87-2.02 1.75-.6-.58-.65-1.48-.61-2.26.02.92.66 2.44 1.47 2.34.7-.34.99-1.13 1.16-1.83z" transform="matrix(1.12 0 0 1.12 -12.37 -7.23)"/>
      <path d="M121.22 67.93c.43.35.18 1.7 0 1.55-.2-.5.04-1.04 0-1.55zm1.35 9.93c.77.7 1.43 2.21.47 2.99-.73.15-1.49-.26-1.93-.83.57.43 2.07 1.07 2.08.1.19-.8-.22-1.6-.62-2.26z" transform="matrix(1.12 0 0 1.12 -12.37 -7.23)"/>
      <path d="M121.56 78.51c.59.1 1.17 1.42.97 1.45-.48-.36-.6-1-.97-1.45zm1.54-2.93c.3.86.23 2.56-.91 2.66-.74-.2-1.04-1.01-1.11-1.7.21.74 1.2 2.09 1.64 1.03.36-.6.36-1.31.38-1.99z" transform="matrix(1.12 0 0 1.12 -12.37 -7.23)"/>
      <path d="M122.06 76c.68.55.09 2.34.01.75 0-.25.02-.5-.01-.75zm.66-5.75c.44.9.54 2.33-.43 2.92-1.13-.02-1.74-1.18-1.91-2.16.24.83 1.32 2.13 1.96 1.77.64-.65.6-1.72.38-2.53z" transform="matrix(1.12 0 0 1.12 -12.37 -7.23)"/>
      <path d="M121.58 70.84c.5.14.67 1.81.33 1.35-.2-.42-.19-.9-.33-1.35zm2.05 1.89c.6.82.97 2.23.08 2.97-1.12.2-1.94-.84-2.29-1.78.43.8 1.47 1.65 2.18 1.53.65-.77.31-1.88.03-2.72z" transform="matrix(1.12 0 0 1.12 -12.37 -7.23)"/>
      <path d="M122.62 73.53c.49.04.96 1.57.6 1.3-.32-.36-.39-.87-.6-1.3zm2.65 3.29c.59.81.95 2.2.08 2.93-1.12.2-1.95-.83-2.3-1.77.4.77 1.67 1.85 2.27 1.4.51-.76.2-1.76-.05-2.56z" transform="matrix(1.12 0 0 1.12 -12.37 -7.23)"/>
      <path d="M124.26 77.6c.5.02.98 1.6.6 1.3-.32-.37-.38-.88-.6-1.3zm2.26-3.69c.34.84.34 2.54-.77 2.7-.72-.21-1.1-.98-1.19-1.67.27.72 1.29 2.03 1.68.93.32-.6.3-1.3.28-1.96z" transform="matrix(1.12 0 0 1.12 -12.37 -7.23)"/>
      <path d="M125.5 74.37c.55.25.34 2.23.09 1.02-.04-.33-.03-.7-.09-1.02zm1.41-3.33c.65.78 1.05 2.16.23 2.95-1.12.25-2.02-.73-2.39-1.68.46.8 1.6 1.58 2.25 1.43.63-.76.34-1.92-.09-2.7z" transform="matrix(1.12 0 0 1.12 -12.37 -7.23)"/>
      <path d="M125.94 71.88c.5 0 1.14 1.77.6 1.2-.28-.36-.35-.83-.6-1.2zm-.46-3.63c.39 1.03.47 2.58-.6 3.21-.94-.1-1.49-1.04-1.65-1.89.26.73 1.37 2.05 1.85 1.35.53-.76.55-1.78.4-2.67z" transform="matrix(1.12 0 0 1.12 -12.37 -7.23)"/>
      <path d="M124.3 68.85c.57.22.57 2.52.2 1.32-.1-.43-.1-.89-.2-1.32zM96.74 85.6c-.3 1.69 0 3.78 1.61 4.71.3-.2 1.33-1.02 1.41-1.83.29-.47.38-3.34.45-1.97.04 1.51-.31 3.65-2 4.07-1.7-1-2-3.3-1.47-4.98z" transform="matrix(1.12 0 0 1.12 -12.37 -7.23)"/>
      <path d="M98.38 86.34c-.22 1.01.04 2.19-.13 3.12-.31-.99-.44-2.22.13-3.12zm-4.25-.94c-.63 1.39-.3 3.55.67 4.25 1.52-.62 1.44-2.63 1.89-3.88-.13 1.44-.22 3.73-1.92 4.13-1.53-.93-1.37-3.17-.64-4.5z" transform="matrix(1.12 0 0 1.12 -12.37 -7.23)"/>
      <path d="M95.12 85.93c-.36.91.19 2.12-.29 2.88.03-.95-.43-2.1.29-2.88zm7.08 4.64c.08 1.72-.24 4.14-2.05 4.8-1.82-.75-2.12-3.2-1.93-4.83.14 1.63.32 3.8 2.03 4.55 1.29-.68 1.87-3.07 1.95-4.52z" transform="matrix(1.12 0 0 1.12 -12.37 -7.23)"/>
      <path d="M100.2 90.98c.58.9.21 2.11 0 3.02-.24-.97.27-2.13 0-3.02zm-5.46-.88c-.15 1.66.25 3.74 1.89 4.53.98-.62 1.54-2.7 1.52-4.07.13 1.4-.04 3.69-1.63 4.33-1.78-.77-2.15-3.15-1.78-4.79z" transform="matrix(1.12 0 0 1.12 -12.37 -7.23)"/>
      <path d="M96.4 90.88c-.32.95.45 2.02 0 2.87-.01-.96-.66-1.98 0-2.87zm.08 4.11c-.15 1.75.16 3.84 1.9 4.72.37-.23 1.42-1.23 1.45-2.13.23-.56.34-3.24.37-1.48.03 1.46-.38 3.5-2 3.86-1.84-.92-2.17-3.17-1.72-4.97z" transform="matrix(1.12 0 0 1.12 -12.37 -7.23)"/>
      <path d="M98.31 95.65c-.26 1 .26 2.24-.1 3.12-.1-1.04-.47-2.16.1-3.12zm-2.41 3.52c.86-1.06-.24-2.6.41-3.8.05-.05-.23 1.65.06 2.25.17.43.19 1.9-.47 1.55zm-1.5-5.18c.74-1.02-.27-2.37.2-3.52.21-.78-.18 1.58.17 2.02.2.33.28 2-.37 1.5zm-1.08-4.95c.47-1-.1-2.33.6-3.34.36-.66-.64 1.7-.26 2.23.05.23.17 1.6-.34 1.11zm8.78 10.83c.08 1.66-.25 3.92-1.97 4.6-1.73-.72-2.02-3.03-1.82-4.58 0 1.51.59 4.02 1.95 4.25 1.44-.84 1.66-2.8 1.84-4.27z" transform="matrix(1.12 0 0 1.12 -12.37 -7.23)"/>
      <path d="M100.2 100.27c.56.86.2 2.01 0 2.87-.26-.92.28-1.98 0-2.87zm-3.16 3.06c.8-.96.26-2.57 1.17-3.42-.84 1.04-.11 2.54-.94 3.56l-.16-.1zm3.16 5.09c.48.65.22 1.63-.01 2.26-.23-.73.16-1.51.01-2.26zm-2.54-4.5c-.3 1.36-.2 3.13 1.11 3.93.15-.15 1.14-.9 1.12-1.61.2-.74.36-2.75.34-.87 0 1.07-.41 2.52-1.58 2.73-1.48-.85-1.4-2.85-.99-4.18z" transform="matrix(1.12 0 0 1.12 -12.37 -7.23)"/>
      <path d="M98.72 104.68c-.14.5.19 2.72-.14 2.22-.14-.72-.34-1.66.14-2.22zm-.11 3.43c.02 1.22.7 3.04 1.6 3.38 1.27-.57 1.39-2.23 1.58-3.36.16 1.34-.14 3.28-1.63 3.66-1.35-.64-1.59-2.35-1.55-3.68zm1.59 4.47c.48.65.22 1.63-.01 2.26-.24-.73.16-1.51.01-2.26z" transform="matrix(1.12 0 0 1.12 -12.37 -7.23)"/>
      <path d="M98.61 112.27c.02 1.23.7 3.02 1.6 3.38 1.27-.56 1.38-2.22 1.58-3.36.17 1.33-.14 3.3-1.63 3.66-1.35-.63-1.6-2.37-1.55-3.68zm1.59 4.66c.48.51.23 2.01-.04 2.16-.14-.71.17-1.47.04-2.16z" transform="matrix(1.12 0 0 1.12 -12.37 -7.23)"/>
      <path d="M98.77 116.43c.15 1.2.33 2.7 1.47 3.39a3.4 3.4 0 001.15-2.1c.1-.98.27-1.77.24-.29-.07 1-.43 2.37-1.52 2.63-1.23-.66-1.45-2.46-1.34-3.63zm-1.34-6.02c.77-.53.7-1.7 1.25-2.3-.4.82-.35 1.86-1.02 2.56l-.13-.14zm6.23-24.81c.56 1.75.2 4.19-1.59 5.01-1.81-.69-2-3.1-1.83-4.64.14 1.57.25 3.65 1.93 4.36.3-.27 1.3-1.2 1.39-2.03.26-.88.2-1.8.1-2.7z" transform="matrix(1.12 0 0 1.12 -12.37 -7.23)"/>
      <path d="M102.03 86.34c.55.89.38 2.33.05 3.07-.1-.98.05-2.2-.05-3.07zm4.24-.96c.74 1.41.85 3.78-.79 4.52-1.6-.63-1.7-2.75-1.74-4.14.34 1.35.35 3.25 1.84 3.87.4-.3 1.17-1.55.99-2.49.02-.58-.22-1.28-.3-1.76z" transform="matrix(1.12 0 0 1.12 -12.37 -7.23)"/>
      <path d="M105.28 85.93c.67.84.3 1.99.24 2.91-.39-.9.07-1.96-.24-2.91zm.37 4.17c.4 1.7-.04 4.2-1.88 4.79-1.5-.8-1.65-2.91-1.52-4.33.02 1.4.51 3.43 1.52 4.08 1.64-.77 2.04-2.9 1.88-4.54z" transform="matrix(1.12 0 0 1.12 -12.37 -7.23)"/>
      <path d="M104 90.88c.64.85.05 2-.05 2.84-.35-.9.36-2.01.05-2.84zm-.08 4.11c.46 1.81.03 4.23-1.86 4.98-1.8-.69-1.96-3.08-1.8-4.62-.03 1.54.56 3.78 1.79 4.36 1.74-.9 2.07-2.98 1.87-4.72z" transform="matrix(1.12 0 0 1.12 -12.37 -7.23)"/>
      <path d="M102.08 95.65c.6.9.24 2.28.08 3.08-.27-.97.19-2.13-.08-3.08zm2.19 3.71c-.89-1.15.34-2.66-.22-3.94.2.1.31 2.05.1 2.85-.27.43.63.92.12 1.09zm1.5-5.2c-.78-1.2.45-2.65-.07-3.96.2.34.28 1.61.1 2.31-.38.58.32 1.34-.03 1.65zm1.06-4.96c-.45-1.15.25-2.53-.51-3.66.2.02.78 1.85.55 2.59-.24.4.39.89-.04 1.07zm-3.7 14.32c-.78-1.03-.17-2.56-.9-3.58.89.97.31 2.47 1.15 3.44l-.16.1zm-.39.4c.57 1.39.46 3.56-1.07 4.2-1.43-.55-1.57-2.48-1.4-3.68.15 1.22.2 2.86 1.53 3.41.17-.22 1.13-1.1 1.01-1.85.13-.68.03-1.45-.07-2.08z" transform="matrix(1.12 0 0 1.12 -12.37 -7.23)"/>
      <path d="M101.69 104.68c.5.6.26 2.12.02 2.37-.16-.77.08-1.6-.02-2.37zm.07 3.39c.33.79.87 1.87 1.07 2.46-.73-.12-.76-1.94-1.07-2.46zm8.65-45.17c-.36.58.2.5.22.58-.35.63-.86-.52-.22-.58zm.74.23c-.01.75-.59 1.72-.23.42.09-.22-.24-.51.23-.42zm-3.18 1.59c.42 0 1.1-1.22 1.09-.64-.1.44-.66.8-1.09.64zm2.3.23c.2.5-.64.44-.07.07zm.21.2c.14.57-.7.4 0 0zm.26.17c.23.4-.7.44 0 0zm.66.13c.18.44-.55.22 0 0zm-.3-.05c.03.54-.65.27 0 0zm-20.98-2.5c.82.1-.1 1.26-.21.51.1.18.53-.09.22-.51zm1.98.45c.93.48-.7 1.58 0 0z" transform="matrix(1.12 0 0 1.12 -12.37 -7.23)"/>
      <path d="M89.68 63.15c-.17.53.36 1.74-.17.6-.02-.2-.32-.86.17-.6zm4.61.48c-.98-.6-2.19.03-3.16-.25-.46-.88.97.47 1.6-.28.55 0 1.17.12 1.56.53zm.11-.38c-.7-.33-1.57-.37-2.27-.53.73-.31 1.78-.12 2.27.53zm-1.83 1.48c-.53.27-1.36-.65-1.01-.87.24.38.7.62 1.01.87zm2.96-3.02c-.26.49-1.97.62-.68.26.44-.03.31-.72.68-.26zm1.27.95c-1.66.5-.3-.57 0 0zm1.65 1.8c-2.07 0-.39-.83 0 0zm-.35 1.01c-.84-1 .32-.72 0 0zm-.82.64c.24.87.1 2.51-1.02 2.56-.9-.3-1.29-1.46-1.2-2.26.1.81.8 1.87 1.33 2.02.8-.45.84-1.56.89-2.32z" transform="matrix(1.12 0 0 1.12 -12.37 -7.23)"/>
      <path d="M96.2 66.52c.41.16.36 1.76.06 1.21-.1-.4-.05-.8-.06-1.21zm-.15-2.23c.37.74-.62 2.24-1.2 1.08-.3-.54.14-1.62.11-.5.2.62.55.93.87.25.1-.25.24-.68.22-.83z" transform="matrix(1.12 0 0 1.12 -12.37 -7.23)"/>
      <path d="M95.45 64.45c.27.62-.19 1.27-.23.35.04-.12.09-.31.23-.35zm1.9-.11c.54.46.74 2.06-.27 1.87-.62.02-1.16-1.66-.82-1.27.2.58 1.2 1.61 1.29.57.05-.4-.12-.78-.2-1.17z" transform="matrix(1.12 0 0 1.12 -12.37 -7.23)"/>
      <path d="M96.99 64.66c.74.6 0 1.66 0 .18zm1.38 3.48c.23 1.07.26 2.62-.87 3.18-1.22-.3-1.96-1.73-1.9-2.86.14 1.04 1.22 2.65 2.01 2.48.78-.69.74-1.88.76-2.8z" transform="matrix(1.12 0 0 1.12 -12.37 -7.23)"/>
      <path d="M97.23 68.58c.36.37.4 1.66.14 1.75-.19-.56-.1-1.17-.14-1.75zm-6.95-3.63c.67.44-.15.6 0 0zm-.23.2c.78.6-.26.4 0 0zm-.25.17c.7.36-.21.44 0 0zm-.66.13c.53.24-.19.45 0 0zm.3-.05c.73.3-.1.48 0 0zm6.91 7.66c.5.88-.5 3.14-.04.97.08-.3 0-.72.04-.97zm2.99-2.15c.22 1.17.27 2.77-.91 3.43-1.3-.33-2-1.89-1.96-3.08.11 1.15 1.07 2.55 1.89 2.81 1.02-.69.86-2.23.98-3.16z" transform="matrix(1.12 0 0 1.12 -12.37 -7.23)"/>
      <path d="M98.16 71.4c.38.51.36 1.54.18 1.94-.25-.58-.12-1.35-.18-1.94zm10.28-8.05c-.78.22.52 1.8 0 0z" transform="matrix(1.12 0 0 1.12 -12.37 -7.23)"/>
      <path d="M106.23 63.62c.82-.94 2.16-.31 3.1-.42.28-.78.18.62-.39.28-.9-.15-1.87-.28-2.71.14zm-.1-.37c.5-.63 1.63-.9 2.28-.48-.78.04-1.55.2-2.28.48zm-.89-1.72c.63.6 1.42.8.22.49-.16-.13-.75-.3-.22-.49zm-1.41.87c1.88.3-.47.58 0 0zm-1.7 1.78c2.21-.42-.13.8 0 0zm.1 1.07c.9-1.25.38.62 0 0zm1.03.86c-.11.78.35 2.28.91 2.26.88-.07 1.16-1.93 1.33-1.78-.05.88-.5 2.07-1.51 2.11-.86-.5-.97-1.74-.73-2.59z" transform="matrix(1.12 0 0 1.12 -12.37 -7.23)"/>
      <path d="M104.35 66.52c.17 1.1-.49 2.18-.2.28a.9.9 0 01.2-.28zm.15-2.23c.06.59.54 1.81.97.95.2-1 .42-1.03.28.1-.7 1.35-1.52-.31-1.25-1.05z" transform="matrix(1.12 0 0 1.12 -12.37 -7.23)"/>
      <path d="M105.08 64.44c.53.22-.1 1.4-.07.49 0-.15 0-.38.07-.49zm-1.88-.09c-.33.57-.34 2.13.45 1.41.43-.3.96-1.67.64-.49-.11.67-1.29 1.47-1.53.46-.1-.48.08-1.05.44-1.38z" transform="matrix(1.12 0 0 1.12 -12.37 -7.23)"/>
      <path d="M103.56 64.67c.19.74-.56 1.4-.27.31.05-.12.14-.26.27-.31zm-1.39 3.47c-.09.99.22 2.44.82 2.87 1.18-.28 1.65-1.6 2-2.56-.03 1.2-.75 2.7-2.04 2.85-1.04-.67-.97-2.11-.78-3.16z" transform="matrix(1.12 0 0 1.12 -12.37 -7.23)"/>
      <path d="M103.31 68.58c.1.7-.24 2.8-.3.99 0-.35.08-.71.3-.99zm.9 4.48c-.1.67.41 2.87-.13 1.36-.03-.44-.06-1.03.13-1.36zm-3.01-2.15c.01 1.09-.04 2.46.94 3.18.33-.12 1.26-.81 1.45-1.49.34-.74.64-2.03.32-.36-.26.93-.9 2.01-1.95 2.1-1.05-.76-1.06-2.32-.76-3.43z" transform="matrix(1.12 0 0 1.12 -12.37 -7.23)"/>
      <path d="M102.38 71.4c.1.8-.27 3.13-.3 1 .01-.35.09-.71.3-1zm1.16 2.68c.46 1.45-.12 3.64-1.65 4.06-1.38-.6-1.4-2.5-1.44-3.68.19 1.19.56 2.98 1.48 3.42 1.31-.72 1.79-2.48 1.61-3.8z" transform="matrix(1.12 0 0 1.12 -12.37 -7.23)"/>
      <path d="M101.96 74.66c.74.52 0 3.5 0 1.6a15 15 0 000-1.6zm3.31 6.6c-.47-.7-.29-1.7-.62-2.42.48.66.35 1.58.84 2.22l-.14.13z" transform="matrix(1.12 0 0 1.12 -12.37 -7.23)"/>
      <path d="M104.63 78.77c.46 1.34-.07 3.31-1.48 3.76-1.4-.88-1.23-2.99-1.35-4.38.37 1.4.24 3.18 1.5 4.12.83-.53 1.63-2.3 1.33-3.5z" transform="matrix(1.12 0 0 1.12 -12.37 -7.23)"/>
      <path d="M103.2 78.33c.53.94.28 2.22.08 3.16-.24-1.04.08-2.11-.08-3.16zM97 74.08c-.38 1.38.6 3.37 1.55 3.78 1.26-.59 1.15-2.35 1.56-3.39-.13 1.27-.12 3.33-1.66 3.7A3.52 3.52 0 0197 74.08z" transform="matrix(1.12 0 0 1.12 -12.37 -7.23)"/>
      <path d="M98.58 74.66c-.15.43.13 3.02-.23 2-.11-.62-.27-1.56.23-2zm-3.53 6.41c.5-.62.36-1.65.87-2.2-.42.74-.15 1.7-.64 2.4l-.14-.12zm6.9-3.13c.04 1.68.03 4.04-1.6 4.97-1.66-.87-1.68-3.31-1.5-4.87-.16 1.5 1 6.38 2.4 3.5.5-1.12.63-2.46.7-3.6z" transform="matrix(1.12 0 0 1.12 -12.37 -7.23)"/>
      <path d="M100.37 79.29c.42.76.37 1.83 0 2.57-.07-.84.06-1.8 0-2.57zm-4.46-.52c-.32 1.28.57 3.17 1.41 3.49 1.16-.57 1.02-2.2 1.43-3.13-.1 1.13-.14 3.34-1.63 3.39a3.32 3.32 0 01-1.21-3.75z" transform="matrix(1.12 0 0 1.12 -12.37 -7.23)"/>
      <path d="M97.35 79.3c-.14.42.14 2.8-.23 1.86-.1-.59-.26-1.4.23-1.86zm7.79 2.95c.57 1.34 0 3.5-1.56 3.75-1.33-.48-1.55-2.29-1.53-3.4.17 1.13.66 2.87 1.65 3.16 1.3-.56 1.75-2.25 1.44-3.51z" transform="matrix(1.12 0 0 1.12 -12.37 -7.23)"/>
      <path d="M103.7 82.78c.55.49.33 1.93.08 2.12-.18-.68.11-1.45-.08-2.12zm-1.49-.38c.18 1.5-.25 3.53-1.86 4-1.66-.42-2.09-2.51-1.78-3.91-.17 1.38.69 3.32 1.79 3.63 1.44-.54 1.77-2.42 1.85-3.72z" transform="matrix(1.12 0 0 1.12 -12.37 -7.23)"/>
      <path d="M100.35 82.77c.41.76.39 1.86-.03 2.58-.02-.86.1-1.72.03-2.58zm-5.03-.52c-.4 1.3.4 3.03 1.37 3.49 1.37-.37 1.4-2.13 1.79-3.16-.1 1.26-.3 3.16-1.81 3.44-1.4-.64-1.86-2.49-1.35-3.77z" transform="matrix(1.12 0 0 1.12 -12.37 -7.23)"/>
      <path d="M96.77 82.78c-.2.56.17 2.08-.16 2.11-.17-.68-.35-1.52.16-2.11zm3.64-12.01c.04 2.43-.5.42-.26-.2.05-.11.17.23.26.2z" transform="matrix(1.12 0 0 1.12 -12.37 -7.23)"/>
    </g>
  </g>
</svg>
