<svg xmlns="http://www.w3.org/2000/svg" fill="#d7374a" stroke="#000" viewBox="50 50 200 200">
  <metadata source="http://wappenwiki.org/images/f/f6/Saunders_Ancient.svg" license="https://creativecommons.org/licenses/by-nc-sa/3.0"/>
  <g id="elephantHeadErased" stroke-width="3" transform="translate(50 47) scale(0.221)">
    <path stroke-linejoin="round" d="M331.8 136c54 62.1 24.8 119.3 30.2 149.6 2.8 15.8 19.4 32.9 38.8 29.3-17.1 28.8-67.9 25.6-82.5-5.3 4.9 18.7 8.6 33.2-1.8 49-15.6 23.5-36.7 17.6-58.3 37.5a36.2 36.2 0 0 0-10.1 24.1c-13.1-11.1-13.8-29.3-7.2-45.7 4.5-11.3 28-38.4 13.1-71.1a46.5 46.5 0 0 1-21.8 42.9c-19.9 13.9-45.6 7.5-53.1-1 12-.1 23-7.7 25.1-22.1 2.9-19.8-7.3-50.3 3-66.6a56.8 56.8 0 0 0-27.8 1.9c-2.3 2.3-6.4 3-9.6 5.5-3.1 2.7-4.4.9-4.7-.7-.4-2.1.9-5 1.8-6.8 2.4-4.9 11.2-16.6 12.8-29-9.8 6.3-25.5 4.1-35.4 11.7-6.9 5.4-10 13.8-10 13.8s-12 19.3-15.1 44c-2.7 21.9-.2 37.5 6.9 56.2 8.6 20.6 27.4 28 32.6 27.7 0 0 .6-3.3 5.5-5.1 4.1-1.5 6 1.3 8.5 0 2.6-1.3 4.4-3.8 7.5-4.4 3.3-.6 6.6 1.4 8.1 4.3 2.4 4.6.8 11 9.2 12.9 2.1.5 8.2 2.1 9.1 7.5.6 3.4-.3 5.8-3.3 8.1a15 15 0 0 1-10.1 2.5c-10-.7-10.3-6.4-20.4-6.8-2.6-.1-6.2.9-8.7 1.3-11.4 1.5-23.7 4.1-34-2.6-7.5-2.7-14-5.4-19.3-13.8-10.3-3.4-13.2-10-15.6-18.5-3.7-5-11.8-12.7-12.1-21.3-1.5-5.7-8.3-18.6-6.2-24.7-1.3-5.9-5.1-15-2.2-20.9.2-7.8.7-9.1.7-9.1s-2.1-10.3 1-17.7c1.5-7.8-2.6-11.9 1-21.3 0 0-2.6-15 2.9-22.9 3-4.3.4-13.5 9.9-22 2.8-5 1.5-14.3 9.2-20.3 3.6-6.5 6.2-9.5 9.6-16.1 4.2-8.2 6.6-17.1 9.8-25.7 1.3-3.5 2.7-8.6 5-11.6 4.6-5.9 13.3-9.8 19.8-14.9 7.8-6.1 12.9-14.6 14.9-17.4 16.5-20.4 34-40.9 65-40.9 14.9 0 32.9 6.2 46.5 9.7a74.4 74.4 0 0 1 36.4 23.1l25.4 43.7z"/>
    <g stroke="none" fill="#000">
      <path d="M252.5 303.5a27 27 0 0 0-.8-5.6c-.4-1.9-1-3.7-1.6-5.6-.6-1.9-1.2-3.8-1.6-5.8-.4-2-.4-4 .2-5.9a11 11 0 0 0 .5 5.7c.6 1.8 1.4 3.6 2.2 5.4 1.7 3.6 3.2 7.3 3.9 11.4l-2.8.4zM316.9 310.1c-.8-2.8-1.2-5.6-1.4-8.5a80 80 0 0 1 .8-16.8c.5-2.8 1.1-5.5 2.1-8.1a38 38 0 0 0-1.4 8.2c-.2 2.8-.3 5.5-.2 8.3.1 2.7.4 5.5.8 8.2.4 2.7 1.1 5.3 2 7.8l-2.7.9zM91.7 291.1c-1.4-.2-2.7-.4-4.1-.4a28 28 0 0 0-8 .6c-1.2.3-2.4.8-3.4 1.5l-1.5-2.6c1.5-.7 3-1 4.5-1.2 1.5-.2 2.9-.1 4.4 0 1.4.1 2.8.4 4.2.7l4.1 1.1-.2.3zM178.6 257.3c1.9-1.1 3.6-2.6 5.1-4.4 1.4-1.8 2.6-3.9 3.5-6.1-.4 2.4-1.1 4.7-2.2 6.9a20.1 20.1 0 0 1-4.5 6l-1.9-2.4zM178.5 226.7c2.3-1.2 4.2-3.2 5.7-5.6 1.5-2.4 2.6-5.1 3.6-7.8-.5 2.8-1.1 5.7-2.2 8.4a17.2 17.2 0 0 1-5.4 7.4l-1.7-2.4zM120.2 213.1c-1 2.1-1.9 4.1-2.2 6.3-.4 2.1-.1 4.2.9 5.9.5.9 1.1 1.6 1.8 2.1s1.6.8 2.5.9c.9.1 1.9 0 3-.1l3.4-.5a22 22 0 0 1 7.1.3l6.7 1c2.2.3 4.4.5 6.7.5 2.2 0 4.4-.3 6.5-1.3a13.4 13.4 0 0 1-6.4 2.6 32 32 0 0 1-6.9.3 144.7 144.7 0 0 1-10.1-.7c-1.1 0-2.1 0-3.1.2-2.1.3-4.5.9-7.2.6a8 8 0 0 1-3.8-1.6c-1.1-.9-1.9-2-2.4-3.2a9.9 9.9 0 0 1-.2-7.3c.7-2.5 2.1-4.4 3.7-6zM103.3 357.8a21.6 21.6 0 0 0-4.6 3.9c-.6.7-1.2 1.5-1.5 2.3-.4.8-.5 1.6-.4 2.3l-3-.1a8.7 8.7 0 0 1 3.8-5.7 20 20 0 0 1 5.6-2.9l.1.2zM82 344.1l.9-.7.8-.5a12 12 0 0 1 1.6-.8c1.1-.5 2.2-.8 3.3-1.1l3.4-.7c1.1-.2 2.3-.3 3.4-.3l.1.3-3.2 1-3.1 1.3-2.8 1.6-1.2.9-.5.5-.4.4-2.3-1.9zM92.1 317.3a68.2 68.2 0 0 0-11.6 2c-.6.2-1.1.5-1.5.8-.4.3-.7.7-.7.8l-2.8-1.2a4.1 4.1 0 0 1 2.1-1.9l2.2-.7a55 55 0 0 1 12.3-.1v.3zM92.7 272.2c-1.4-.2-2.7-.4-4.1-.4a28 28 0 0 0-8 .6c-1.2.3-2.4.8-3.4 1.5l-1.5-2.6c1.5-.7 3-1 4.5-1.2 1.5-.2 2.9-.1 4.4 0 1.4.1 2.8.4 4.2.7l4.1 1.1-.2.3zM76.6 250.1c1.7-1 3.4-1.1 5.1-1.2a38.7 38.7 0 0 1 13.8 2.5l-.1.3a56.1 56.1 0 0 0-13.5-.6c-1.4.3-2.8.7-3.7 1.4l-1.6-2.4zM98.1 232.3a55.4 55.4 0 0 0-13.3-2.8c-1.5-.1-2.9 0-4.1.4l-.6-2.9c1.8-.3 3.4 0 5 .2a65 65 0 0 1 13.2 4.8l-.2.3zM107 213.1a42.3 42.3 0 0 0-12.5-5.4 8.9 8.9 0 0 0-4 .2l-.7-2.9a11 11 0 0 1 5.2.5 46.8 46.8 0 0 1 12.1 7.5l-.1.1zM99.5 184.6c1.7.1 3.1.7 4.4 1.3a67.9 67.9 0 0 1 10.4 7l-.2.2a55.6 55.6 0 0 0-11.1-5c-1.2-.3-2.5-.6-3.6-.5l.1-3zM218.5 204.5l-1.8 2.5-1.8 2.4a55.6 55.6 0 0 1-4 4.7l-.3-.1c.1-1.1.5-2.1 1-3.1s1-1.9 1.7-2.7l2.2-2.3c.9-.6 1.8-1.2 3-1.4zM126.7 173.1c.4 1.9.2 3.9-.2 5.8s-1.1 3.8-1.8 5.5l-2.3 5.2c-.8 1.7-1.5 3.4-2.1 5.3-.2-1.9.1-3.9.6-5.8s1.2-3.7 1.9-5.4l2.2-5.2c.7-1.8 1.2-3.5 1.7-5.4zM207.6 255.1c2.9.7 5.8 1.3 8.6 1.3 2.9 0 5.7-.7 7.9-2.5l3.4-2.9 3.1-3.2c1.9-2.3 3.4-5 4.6-7.7a41 41 0 0 1-7 11.7l-3.2 3.3a12 12 0 0 1-4 2.6 19 19 0 0 1-4.7 1.1c-3.2.3-6.3-.1-9.3-.5l.6-3.2zM194.9 391.9l-3.1 1.3-2.7 1.7-2.5 2-2.5 2.3a9.5 9.5 0 0 1 3.8-5.9c1-.7 2.1-1.2 3.3-1.5 1.3-.3 2.5-.3 3.7.1zM158.2 384.4c.3 1.7.8 3.1 1.5 4.3.4.6.7 1.2 1.2 1.7l1.4 1.5c1 1 2.2 1.7 3.5 2.4l2.1.9 1.1.4c.4.2.8.3 1.1.6l-2.5.4c-.8.1-1.7 0-2.6-.1a10 10 0 0 1-4.8-2.4c-.7-.6-1.3-1.3-1.8-2a8 8 0 0 1-1.1-2.5c-.3-1.8-.1-3.8.9-5.2zM171.7 384.3c.9.4 1.5.6 2.1 1l1.6 1.2c.5.4.9 1 1.3 1.5l1.1 2c-.9.3-1.8.1-2.5-.1-.7-.3-1.4-.7-2-1.2-.6-.5-1-1.1-1.4-1.9-.2-.7-.5-1.6-.2-2.5zM184.1 378.1l1.3 1.9c.3.6.5 1.2.6 1.9l.2 1.9-.1 2.2c-.5 0-.9-.2-1.3-.5l-.9-.9c-.5-.6-.8-1.4-.9-2.1-.2-.7-.2-1.5-.1-2.2.3-.7.5-1.5 1.2-2.2zM132.5 390.2c-.7 1.3-1.3 2.8-1.5 4.2-.1.7-.2 1.4-.1 2 .1.6.3 1.1.6 1.5l-2.7 1.4c-.4-1-.4-2-.3-2.9.1-.9.5-1.7.8-2.5a12 12 0 0 1 2.9-3.8l.3.1zM116.1 379.1c-1 .9-2 1.8-2.7 2.8a5 5 0 0 0-.9 1.6 2 2 0 0 0-.1 1.3l-3-.1c.2-1 .6-1.8 1.1-2.4a8 8 0 0 1 1.7-1.5c1.2-.8 2.4-1.4 3.7-1.9l.2.2z"/>
    </g>
    <g>
      <path class="secondary" d="M146.5 239.4a113 113 0 0 1-13 27.2c-28.1 40.5-62.6 45.3-70 46.4s-11.5 0-11.9-1.9c-.4-1.9 7-4.9 8.9-6 39-22.3 56.4-55.9 61-70.9 2.2-4.5 11.9-5.7 17.9-4.3 4.2 1.1 8.6 4.6 7.1 9.5z"/>
      <path fill="#f6f6f6" d="M141.6 149.3c.2 3.9 2 8.1 5.6 9.6 3 1.3 6.6.5 9.6-1.1 1.4-.7 2.7-1.6 3.8-2.7 2.7-2.6 3.2-6.1 4.6-9.6-8.3-.7-15.6.8-23.7 2.4l.1 1.4z"/>
      <g stroke="none" fill="#000">
        <path d="m164.2 159.2.9-2 1-1.7 1-1.7 1.3-1.8c.3.8.3 1.5.2 2.3-.1.8-.4 1.5-.8 2.1-.4.7-.9 1.2-1.5 1.7-.6.7-1.3 1-2.1 1.1zM145.7 159.8c-1.6 1.2-3 2.8-3.9 4.8-.1-2.2.4-4.5 1.5-6.7l2.4 1.9zM152.9 143.7l.9-1.3.9-1 1.1-.8c.4-.2.8-.5 1.4-.6.1.6 0 1.2-.3 1.7-.2.5-.6.9-1 1.3l-1.4.8c-.4 0-1 .1-1.6-.1zM164.9 144l2.2-.2 2.1-.2 2-.4c.6-.2 1.3-.4 2.2-.4l.2.2a3 3 0 0 1-1.5 2.1c-.7.5-1.5.8-2.3 1.1l-2.4.6-2.3.2-.2-3zM134.8 138.3c1.2.3 2.2 1.1 2.9 2.1.7 1 1.2 2.4 1.2 3.6l.2 1.4.4.8.4.3 1-.2.7 2.9c-.5.1-1.1.4-2.2.3a3 3 0 0 1-1.4-.6l-.8-.8c-.5-.6-.9-1.4-1-2.1l-.1-1.9c0-1 0-1.8-.4-2.7-.4-.9-.9-1.7-1.3-2.9l.4-.2zM126.1 138.1l.3 3.3a24.6 24.6 0 0 0 1.8 5.7l.7 1.5.6 1.7-1.5-.9-1.3-1.2a7.8 7.8 0 0 1-2.1-6.9 5 5 0 0 1 1.5-3.2zM152.4 146.2c.1.8-.8 2.1-.8 4.5s1.2 4.7-.9 4.3c-2.2-.4-5.7-5.8-5.3-8l7-.8zM146.4 135.7c1.7-.9 3.4-1.5 5.2-1.9 1.8-.4 3.6-.7 5.4-.8 1.8-.1 3.7.1 5.6.6a14 14 0 0 1 5.1 2.4l-5.4-.1a92 92 0 0 0-5.2.1l-5.3.1c-1.7 0-3.6-.1-5.4-.4zM175 160.1c-.3-.5-.3-.9-.4-1.2l.1-.8.6-.6 1.2-.4c.4.4.6.8.6 1.2.1.4 0 .7-.1.9-.1.3-.4.5-.7.7-.3.2-.7.3-1.3.2zM171.3 164.4l-.1-1c0-.2-.1-.3 0-.4l.3-.1 1-.2c.5.2.7.6.8.9.1.3 0 .7-.2.9-.2.2-.5.4-.8.4-.3 0-.7-.1-1-.5zM167.4 168.9l.1-1.1.2-.5.5-.1 1.1-.1c.4.4.5.8.5 1.1 0 .4-.2.7-.4.9-.2.2-.6.3-.9.3-.4 0-.8-.1-1.1-.5zM162 171.8c.2-.6.4-.9.6-1.1l.7-.4c.3-.1.5 0 .8.1.3.1.6.4 1 .8-.2.6-.4.9-.6 1.1l-.7.4-.8-.1c-.3-.1-.6-.3-1-.8zM157.6 173.8l.3-1 .2-.3c.1 0 .2 0 .3.2l.7.7v1.1c-.1.2-.3.4-.5.4s-.4 0-.6-.2c-.1-.1-.3-.4-.4-.9z"/>
      </g>
    </g>
    <path stroke-linejoin="round" d="M223.6 149c8.8 8.8 12.8 21 15.4 33.1.8 3.5 1 7.1 1.4 10.7 1.4 14.3 4.2 28.6 9.8 41.8a77.8 77.8 0 0 0 27.1 33.7c3.7-7.3 11.9-10.9 22.3-9.8-4.8-8-5.4-21.8.1-30.1a21 21 0 0 1 3.9-4.5c5.6-4.6 14.3-5.2 22-2.8-4.8-4.6-8.3-10.9-7.7-16.6.6-5 2.6-11.5 5.9-15.2a28.5 28.5 0 0 1 23.5-10.5c-3.2-3.1-6.1-9-6.7-13.4a25.2 25.2 0 0 1 10-22.3 34.9 34.9 0 0 1 16.9-5.5l-10.3-3.9a161 161 0 0 1-12.1-4.9 74.2 74.2 0 0 1-21.6-14.2c-6.7-6.5-11-14.9-17-22"/>
    <path fill="none" stroke-linecap="round" d="M215.5 122.3a104.8 104.8 0 0 1 53.1 40c1.5 2.2 3.1 4.4 4.9 6.4a41.2 41.2 0 0 0 26.1 9.8 13 13 0 0 1-6.7 8.1c-3.9 1.9-10 2.5-17.7.6"/>
    <g stroke="none" fill="#000">
      <path d="M202.3 101.4a39 39 0 0 1 16.5 2.4c5.3 2 10.1 5 14.4 8.8 4.2 3.8 7.6 8.4 10.6 13.1 3 4.8 5.4 9.9 7.4 15.2l-2.8 1a82.4 82.4 0 0 0-6.8-14.8 47.6 47.6 0 0 0-23.3-22 48 48 0 0 0-16-3.7zM221.5 88.3a74.7 74.7 0 0 1 37.5 14.8 70.8 70.8 0 0 1 15.3 13.6 114.8 114.8 0 0 1 26.5 54.6c1.4 6.6 2.8 13.2 4.7 19.6a85.3 85.3 0 0 0 7.7 18.6c-2-2.7-3.7-5.7-5.2-8.7a109.5 109.5 0 0 1-6.9-19.1l-2.6-9.8-2.6-9.7a82 82 0 0 0-7.3-18.6c-1.5-3-3.2-5.9-4.9-8.8-3.4-5.7-7.3-11.2-11.6-16.3-2.2-2.5-4.4-5-6.9-7.2a58.4 58.4 0 0 0-3.8-3.2l-3.9-3.1c-5.3-4-10.9-7.7-17-10.6a75 75 0 0 0-19-6.1zM234.2 73.1c3.1-.6 6.3-.7 9.4-.5a60.7 60.7 0 0 1 27.1 8 73.4 73.4 0 0 1 27.7 25.7c3.4 5.4 6.2 11.1 8.8 16.8l7.4 17.3c2.5 5.7 5.2 11.3 8.5 16.5 3.3 5.3 7.6 9.9 11.3 14.9-4.2-4.6-8.7-9-12.5-14.1a107 107 0 0 1-9.4-16.4c-2.8-5.6-5.2-11.4-7.8-17.1-2.6-5.7-5.4-11.2-8.7-16.4a75.7 75.7 0 0 0-43.4-32.6 52 52 0 0 0-18.4-2.1zM271.1 193.2a38 38 0 0 1 5.2 12.3c1 4.3 1.5 8.6 2 12.9.5 4.3.9 8.5 1.9 12.7a39 39 0 0 0 4.5 11.9 32.7 32.7 0 0 1-5.9-11.6c-1.2-4.2-1.9-8.5-2.6-12.7-.7-4.2-1.3-8.5-2.5-12.5a36 36 0 0 0-5.1-11.3l2.5-1.7zM174.6 121.3a38.7 38.7 0 0 1 20.5-4.2c7.1.2 14.1 1.7 20.9 3.6l-.9 2.8a82.6 82.6 0 0 0-20-5c-3.4-.4-6.9-.4-10.3 0-3.6.6-7 1.4-10.2 2.8zM177.2 132.7c1.9-1 4.1-1.3 6.3-1.4a47 47 0 0 1 19.1 3.2 53.6 53.6 0 0 1 22.1 13.4l-2.1 2.1c-1.5-1.5-3-2.9-4.6-4.2l-5-3.7a64.6 64.6 0 0 0-29.5-10c-2.1 0-4.3 0-6.3.6z"/>
      <path d="M276.1 188.4a42.2 42.2 0 0 0-15 22.4 35.2 35.2 0 0 0-.7 13.7c.3 2.3 1 4.5 2.2 6.4 1.2 1.9 3 3.6 5.3 4.3a10 10 0 0 1-6-3.8 17.5 17.5 0 0 1-2.9-6.7 36.7 36.7 0 0 1 2.2-21.4 39.7 39.7 0 0 1 13.1-17.3l1.8 2.4z"/>
    </g>
  </g>
</svg>
