<svg xmlns="http://www.w3.org/2000/svg" fill="#d7374a" stroke="#000" viewBox="50 50 200 200">
  <metadata source="http://wappenwiki.org/images/4/43/Loftur_the_rich_Guttormsson.svg" license="https://creativecommons.org/licenses/by-nc-sa/3.0"/>
  <g id="falcon" stroke-width="3" transform="translate(196 103.5) scale(-0.117 0.117)">
    <g>
      <g class="secondary">
        <path d="M1038.1,76.8c0.8-5.4,4.8-10.5,9.9-12.6c4.9-2.1,13.4,0.6,15.9,2.7c0.6,1.8-0.8,1.7-2.2,2.3c-3.4,1.6-8.9,0.7-10.8,5.6c-0.9,2.2,0.1,3.6-1.5,5.4"/>
        <path d="M996.6,161.7c-1,0.4-4.9,2.1-5.6,3c-2,2.5-2.8,6.1-1.1,12c2.2,7.2,11.1,13.5,12.4,13c1.7-0.7,1.1-3.3,0.8-4.7c-1-3.7-5.3-5.9-2.6-11.8c1-2.2,3.2-3.8,3.6-6.2c0.1-0.4,0.1-0.7,0-1.1c-0.2-0.7-0.7-1.2-1.2-1.7C1001.1,162.7,998.8,160.9,996.6,161.7z"/>
        <path d="M1053.8,80.4c2-5.1,6.8-9.1,12.1-10.6c7.7-2,14.4,2.2,16.7,4.4c0.1,1.9-2.4,2.5-3.8,2.9c-3.7,0.8-8.1-0.9-12.3,3.6c-1.6,1.8-0.9,3.3-2.9,4.7"/>
        <path d="M1046.3,104.9c0.9-1.8,2.6-3.6,4.5-4.4c3.6-1.4,6.9-1,10.7-0.7c4,0.3,12.2,6.2,13.3,10.1c1,3.6-1.3,2.6-3.6,2c-3.1-0.8-7.1-3.3-12.2-1c-0.6,0.3-4.4,4-5.5,5.1"/>
        <path d="M1040.6,97.8c1.7-2,2.1-5.2,6.3-7c2.8-1.2,3.6-2,5.1-4.8c0.5-0.8,1.5-2.7,1.3-3.6c-0.4-2.2,0.2-2.5-2.3-3.6c-1.1-0.5-2.3,2.1-10.5-4c-2.1-1.6-4-2.1-6,0.5c-1.8,2.4-2.3,5-1.8,6.3c0.5,1.3-1,2.9-1.7,4.4c-0.7,1.6-1.2,4.3-2.4,5.8c-0.5,0.6-1.1,1.1-1.7,1.7c-3,2.9-3.9,6.1-5.8,9.7c-0.6,1.3-1.7,2.3-2.8,3.1c-1,0.7-2.1,1.1-3.2,1.5c-1.9,0.7-5.2,6.2-7.2,7.1c1.1,3.1,6,1.2,9,2.6c2,0.9,4.1,1.6,6.2,1.3c2.8-0.4,5-2.3,6.9-4.4c3.8-4,7.1-8.6,9.7-13.5C1040.4,99.9,1041,98.8,1040.6,97.8z"/>
        <path d="M989.4,158.2c1.2-5.8,5.5-5.1,5.1-6.2c-4-11,2.9-7.8-0.3-13.7l-18,0.5c0,0-33.9,1.1-53.8,1.5c-0.4-0.2-0.7-0.3-1.1-0.5c-2.6-0.9-4.8-3.9-6.6-5.8c-2.2-2.3-4.4-4.3-6.8-6.2c0.5-3.8,1.4-6.9,1.4-6.9s30.7,1.5,35.8,1.3c0.8,0,0.6,0.1,4.1,0c2.6-1.7,8.8-0.7,9.8,0.5c1.6-1.5,6.2-1.8,8.9,0.2c2.2-1.1,6.3-1,8.8,0c2.3-1.6,8.3-1.9,10,0c1.4-0.2,5.6,0.2,10.1-1.1c6.7-1.2,15.8-13.9,21-14.9c2.2-0.4,4.2-2.1,6.2-2.3c1.2-0.1,2.3-0.4,3.4-0.8c1.3-0.5,2.5-1.3,3.5-2.4c2.6-3.1,4.2-6,7.8-8.2c0.7-0.4,1.4-0.8,2.1-1.3c1.5-1.2,2.6-3.7,3.6-5.1c0.9-1.3,2.8-2.5,2.6-3.9c-0.2-1.4,0.9-3.8,3.2-5.7c2.4-2,4.2-1.1,5.9,0.9c6.6,7.7,8.3,5.5,9.3,6.2c2.3,1.7,1.5,1.8,1.5,4.1c0,1-1.5,2.5-2.1,3.2c-2.2,2.4-3,3-6.1,3.5c-4.5,0.8-5.6,3.8-7.7,5.4c-2.3,1.8-4.9,3.7-3.6,7.3c1.5,4.3,5.7,6.2,7,7.4c1.8,1.7,2.6,4.8-1.8,7.6c-3.2,2.1-6.6,1.4-8.4,0.1c-0.5-0.4-1.3-0.2-1.9-0.2c-0.8,0.1-1.6,0.4-2.4,0.7c-4.6,1.9-10,0.5-13.8,4.1c-1.1,1.1-2.1,2.5-3.6,2.9c-1.6,0.5-2.2,2.8-3.6,3.6c-2.2,1.3-1.4,4.7-2.1,7.2c-0.5,1.7-1.8,3.1-2.8,4.6c-2.1,3.4-3.3,8.3-2.2,12.2c0.3,1.1,1.1,1.3,1.4,2.4c0.6,2.3,1.2,4.1-0.1,5.9c-0.8,1.2-5.6,5.3-7.8,3.2c-1.2-1.1-3.1-6.8-9.9-6.1c-1.5,0.2-4.2,1.4-4.3,1.2C991,164.7,988.7,161.9,989.4,158.2z"/>
        <path fill="none" d="M1050.9,100.5c-8-2.1-10.5,5.6-12.1,6.7c-0.5,0.3-1.3,1-1.9,1c-1.2,0-2.3,0.4-3.4,0.8"/>
        <g stroke="none" fill="#000">
          <path d="M1034.1,80.8c0.4,1.5,1.2,2.9,2.2,4.2c1,1.3,2.2,2.5,3.7,3.3c-1.7-0.4-3.3-1.2-4.8-2.3c-1.5-1.1-2.8-2.4-3.9-4L1034.1,80.8L1034.1,80.8z"/>
          <path d="M986.2,130.6c-1.1-1.8-1.3-4-1.3-6.1c0.1-0.9,0.1-1.6,0.6-2.5c0,0,2.4,1.8,2.4,1.8c-0.3,0.1-0.5,0.8-0.7,1.2c-0.6,1.7-1.1,3.7-0.7,5.6C986.5,130.5,986.2,130.6,986.2,130.6L986.2,130.6z"/>
          <polygon points="914.7,133.6 985.6,133.7 914.6,136.6 914.7,133.6"/>
          <path d="M975.9,130.3c-1.3-2.2-2.2-6.3-0.3-8.6c0,0,1.9,2.3,1.9,2.3c-0.1-0.1-0.5,0.4-0.7,0.8c-0.7,1.6-1,3.6-0.7,5.3C976.2,130.1,975.9,130.3,975.9,130.3L975.9,130.3z"/>
          <path d="M967,130.2c-0.6-2.8-1.9-5.7-0.1-8.4c0,0,2.1,2.1,2.1,2.1c-0.2,0-0.5,0.4-0.7,0.9c-0.7,1.7-0.8,3.6-1,5.4C967.3,130.2,967,130.2,967,130.2L967,130.2z"/>
          <path d="M958,130.1c-0.9-2.5-1.1-5.4-0.4-8c0,0,0-0.1,0,0l2.8,1.1c-0.1,0.2-0.1,0.1-0.2,0.2c-1.3,1.9-1.9,4.2-1.9,6.6C958.3,130,958,130.1,958,130.1L958,130.1z"/>
          <path d="M948,130.6c-0.7-2.8-0.9-5.7-0.4-8.5c0.1-0.4,0.3-0.8,0.9-1.2c0,0,1.5,2.6,1.5,2.6c0.2-0.1,0.4-0.5,0.4-0.4c-0.2,0.2-0.5,0.9-0.6,1.3c-0.7,2-1.3,4.1-1.3,6.2C948.3,130.6,948,130.6,948,130.6L948,130.6z"/>
          <path d="M1034,110.4c-2.8,0.7-5.5,2.5-7.9,3.9c-1.2,0.8-2.7,2-4,2.5c-1.5,0.6-3.1,0.5-4.5,1.2c0.7-0.4,1.4-0.7,2.1-1c2.3-0.5,3.9-2.3,5.5-3.9c2.4-2.1,4.8-4.3,7.8-5.6C1033,107.6,1034,110.4,1034,110.4L1034,110.4z"/>
          <path d="M1048.3,82.9c-0.5,2.5,1.1,5.3,3,7.2c-2.9-1.4-5.4-3.7-6-7.1C1045.3,82.9,1048.3,82.9,1048.3,82.9L1048.3,82.9z"/>
          <path d="M1040.2,107.7c-0.6,1.1-1,2.3-1,3.6c-0.1,1.3,0.2,2.7,0.6,4c-0.9-1.1-1.7-2.4-2.1-3.8c-0.5-1.5-0.6-3.1-0.4-4.7L1040.2,107.7L1040.2,107.7z"/>
          <path d="M993.9,150.7c1.8-0.6,4-0.6,5.7,0.3c0.5,0.2,1,0.5,1.6,0.5c-0.5,0.3-1.2,0.2-1.8,0.3c-1.6,0-3,0.6-4.2,1.6C995.3,153.3,993.9,150.7,993.9,150.7L993.9,150.7z"/>
          <path d="M1010,139.6c1.8,3.7,3.4,7.7,3.2,12c0,0-3-0.4-3-0.4C1011.4,147.5,1010.8,143.5,1010,139.6L1010,139.6z"/>
        </g>
      </g>
      <g>
        <path d="M894.1,19.3c-1,9.3,10.5,24.5,12.7,40c1.5,13.4,5.1,21.3,10.9,29.3c9.4,13,8.3,21.3,11.6,33.3c0.2,0.6,0.4,1.2,0.3,1.7c-0.4,1.6-2.7,1.4-4.2,0.8c-1.5-0.7-3.6-1.3-4.5,0.1c-0.7,1.1,0,2.5-0.3,3.8c-0.5,1.9-3.2,2.3-4.2,4.1c-0.7,1.3-0.2,3,0.3,4.4c1,2.8,2,5.6,2.6,8.5c0.9,4.6,1.1,5.4-3.2,5.1c-11.3-0.9-20.5-18.3-26.4-22.2c-4.8-2-18.1-7.9-24.8-18c-0.7-1.4-2.3-2.8-4.3-3.8c-7.8-3.7-20.8-16.9-26.7-27.7"/>
        <g stroke="none" fill="#000">
          <polygon points="832.3,79.2 829.2,68.8 835,78 832.3,79.2"/>
          <path d="M910.5,101.7c5.9,1.6,5.6,9.4,5.4,14.3c0,1.7,0,3.3,0.4,5.1c-1.5-1.1-2.3-3-2.7-4.8C912.3,111.2,913.9,106,910.5,101.7L910.5,101.7z"/>
          <path d="M872.7,79c3.5,4.3,7.2,9.8,10.5,14.3c1.1,1.6,2.3,3.2,3.3,5c-3.7-1.8-6.7-4.8-9.1-8.1C875,87,873.2,83.2,872.7,79L872.7,79z"/>
          <path d="M883.7,45.3c3.5,8.5,12.3,13.8,14.4,23.1c0.7,3,0.6,6.6-1.3,9.2c0.6-3,0.1-5.9-1-8.5C892.8,60.7,883.9,54.7,883.7,45.3L883.7,45.3z"/>
          <path d="M853.1,38.9c1.9,8.3,4.7,15.9,8.7,23.5C854.4,57.6,850.6,47.4,853.1,38.9L853.1,38.9z"/>
          <path d="M892.6,19c1.3-8.1,0.7-16.7-0.8-24.7c-0.5-2.8-1.2-5.5-1.5-8.3c0,0,0.3-0.1,0.3-0.1c3,5,4.2,10.7,5.1,16.4c0.6,4.3,0.8,8.7,0.5,13c-0.1,1.5-0.3,2.9-0.6,4.4L892.6,19L892.6,19z"/>
          <path d="M883,110.1c0.9,6.3,4.5,11.9,7.8,17.2c0,0-2.6,1.5-2.6,1.5c-2.6-5.9-5.4-12.1-5.5-18.7C882.7,110.1,883,110.1,883,110.1L883,110.1z"/>
          <path d="M858,88.9c1,6,2.9,11.8,5.1,17.4c0,0-2.9,0.9-2.9,0.9c-1.4-6-2.5-12.2-2.6-18.3C857.6,88.9,858,88.9,858,88.9L858,88.9z"/>
        </g>
      </g>
    </g>
    <g>
      <path stroke-linejoin="round" d="M819.1-82.5c-6.4-0.5-12-0.5-17-4.5c-0.4-9,5-20.8,12.1-26.2c-10,0.7-26.7-1.3-32.4-9.6c2-10.1,7.5-18.7,15.7-24.8c-6.1,1.1-25,6.1-37.2-3.3c-0.5-8.1,12-22,16.3-25.4c-10.9,2.1-31.9-2.7-35.3-8.6c-8,4.6-48.2,12.2-56.5,8.2c-6.8,6.4-56.2,11.3-62.6,1.8c-8.5,5.1-49.2-4.1-51.8-16.1c-16.6-5.7-14.9-22.5-12.8-23c-8.8,4.6-34.7-8.5-36.5-20.7c-5.7-2.2-5.7-13.4-3.6-13.8c-10.1-4.1-18.8-10.9-20.1-17.9c-9.4-7.7-3-16.2,3.1-14.9c9.4,2.1,23.8,7.6,47.8,7.4c55.7,3.6,94.4-2.9,137.9-13.1c39.6-8.5,61.2-16.2,76.5-15.5c-8.1-3.1-13.6-9.7-13.8-15.3c13.1,6.9,36.9,11,79.1,1.9c54.2-10.8,116-2.1,143.6,21.6c18.2,3.1,29.4,10.8,36.6,24.5c6,11.4,1.7,24.4-3.4,27.4c-7.4,4.3-8,8.1-18.7,12.4c-5.1,2-13.6,5.8-17.4,9.7c-4.4,4.6-9.3,8.7-14.6,12.3c-8.2,5.5-17.9,13-24.5,22c-15,23.7-6.8,43.7-4.3,52c5.7,18.7,7.7,26.8,2.8,41.1"/>
      <g>
        <path fill="none" d="M758.5-203.7c-15.7,6.2-36.2,5.8-41.5,1.5c0.1-5.3,3.7-13,6.3-17.5c-10.4,7.5-47.4,13.9-55.4,9.5c-7.1,6-51.5,10.9-57.2,1c-8.8,4.6-43.4,3.7-53.1-4.8"/>
        <path fill="none" d="M737.2-255c-9.7,7.7-48,18.2-68.5,13.8c-7.2,9.9-57.7,15.6-70.9,1.5c-5,3.3-34.7,6-57.3-5.3"/>
        <g stroke="none">
          <path d="M521.9-264.7c39.7,12.4,82,10.9,122.8,5.9c41.1-4.8,81.2-15.5,121.8-23.3c0,0,0.5,2.8,0.5,2.8c-5,0.9-10.1,2-15.1,3.1C682.7-260.8,590.1-240,521.9-264.7L521.9-264.7z"/>
          <path d="M540-233c6.3,1.2,12.6,2.9,18.9,4.2c3.2,0.6,9.5,1.7,12.7,2.3c46.6,7.8,94.6,4.4,140.4-6.3c4.6-1,26.4-6.5,31.3-7.6c0,0,0.7,2.8,0.7,2.8c-8.3,2.1-16.6,4.4-25,6.4C660.5-216.8,597.8-215.2,540-233L540-233z"/>
          <path d="M769.5-193.7c4.8-2.9,10.1-5,15.3-6.9c10.5-3.9,21.3-7.1,32.3-9.5c5.5-1.2,11.1-1.8,16.7-2.3c16.8-1.4,33.8-1.8,50.5,0.6c5.6,0.8,11.2,2,16.6,3.6l-0.8,2.8c-24.1-6.4-49.7-6-74.4-3.9C806.4-206.7,787.5-201,769.5-193.7L769.5-193.7z"/>
        </g>
        <g stroke="none" fill="#000">
          <path d="M945.5-233.5c1.5,3.9,6.3,5.6,8.1,9.5c-1.4-1.7-3.3-2.7-5.2-3.7c-2.1-1.1-4.2-2.3-5.5-4.4C942.9-232.1,945.5-233.5,945.5-233.5L945.5-233.5z"/>
          <path d="M744.9-291.9c3,1.5,5.6,3.7,8.6,5.1c8.9,4.7,18.9,5.8,28.7,6.3c0,0-0.1,2.9-0.1,2.9C768.7-277.3,754.2-281.7,744.9-291.9L744.9-291.9z"/>
        </g>
        <path fill="none" d="M762.7-302.5c19.5,8.6,37.1,7.1,39.2,7c9.1-0.4,24.1-5.6,33.5-5.6c3,0,6.1,0.2,8.8,1.4c1.2,0.6,2.3,1.3,3.6,1.8c2.9,1.2,6.2,0.6,9,1.7c2.4,0.9,4.8,3.1,7.2,4.3c6.2,3.2,13,5.8,20.1,5.1c2.7-0.3,7-2.2,9.6-1.5"/>
        <path fill="none" d="M766.7-280.7c-13.6,7.5-28.2,18.4-34.7,36.3c9.1,5.6,28.4,6,41.8,1.5"/>
        <path fill="none" d="M802-295.4c-14.6,9.7-23.8,18.8-26.6,28.7c4.6,5.1,15.3,7.1,25.3,7.1"/>
      </g>
      <g stroke="none" fill="#000">
        <path d="M579.7-196.9c3,0.6,5.9,1.4,8.9,2.2l8.9,1.9c5.9,1.1,12.1,2,18,2.6c35.4,3,74,1.2,107.7-10.8c0,0,1.1,2.7,1.1,2.7c-5.6,2.3-11.7,4.3-17.6,5.6C669.7-184.1,615.5-183.8,579.7-196.9L579.7-196.9z"/>
      </g>
      <path fill="none" d="M540.6-245c-6.6,1.3-15.2-0.3-23.1-3.5"/>
    </g>
    <g>
      <g>
        <g>
          <path stroke-linejoin="round" d="M995.2-171.8c-5.7,0-9.9-7.7-9.9-12.7c0-4.9,2.2-9.5,5.1-12.1c4-3.5,9-2.7,9-2.7c-1.9,0.5-8.3,9.2-2.8,13.7c2.1,1.7,5.3,1.2,7,0.2c4.4-2.5,6-8.5,16.5-9.5c0,0-3.1-2.7-4.5-8.1c-0.9-3.6-0.2-7.4,2.8-11c3-3.7,6.8-4.3,8.3-4c-2.5,2.4-4.4,6.6-2.4,9.9c2,3.3,6.5,4.8,11.9,2.5c7.8-3.5,12.8-5.2,18.5-6.5c13.5-3.4,25.2-3.3,39.7,0.7c13.5,3.7,28,5.5,29.4,19.4v0c-0.8,6.2-2.9,9.5-6.2,15.1c-4.4,7.7-22.8,17.6-27.4,28.4c-3.3,7.5-2.6,12.5-2.3,17c0.1,4.3,2.3,4.7,3.8,4.5c1.5,6.9-4.9,9.3-7.2,13.2c-26.3,32.9-16.5,61.5-67.1,115C989,31.4,921.9,67.6,841.4,73.7c-37.3,9.3-35.1,3.5-92.4,10c-25.7,5.8-57.6,36.5-108.1,53.5c-37.1,12.4-62.6,6.9-65.3,1.1c-27,4-34.4-14.8-34.4-14.8s-21.3-0.1-24-17c-23.8,1.3-30.5-19.2-20.4-18c79.3-0.6,148.2-9.9,198.4-58.3C857.8-146,939.5-110.8,995.2-171.8z"/>
          <g stroke="none" fill="#000">
            <path d="M541.2,121.9c22.4,0.1,45-0.9,66.9-5.9c22-4.9,42.5-14.5,63.6-22.1c0,0,0.1,0.3,0.1,0.3c-46.5,23-78.6,31.7-130.6,30.8C541.2,124.9,541.2,121.9,541.2,121.9L541.2,121.9z"/>
            <path d="M517.3,104.9c43,1.3,86.8-0.7,127.7-15.1c0,0,0.1,0.3,0.1,0.3c-35.4,16.3-81.1,18.7-119.7,18c0,0-8.1-0.2-8.1-0.2L517.3,104.9L517.3,104.9z"/>
            <path d="M575.5,136.8c22.4-2.1,44.8-6.1,66-13.9c21.3-7.6,41-19.1,61.5-28.5c0,0,0.1,0.3,0.1,0.3c-42.8,25.5-77,41.1-127.4,45.1C575.7,139.8,575.5,136.8,575.5,136.8L575.5,136.8z"/>
          </g>
        </g>
        <g class="secondary">
          <path d="M853.9,209.2c4.8-2.7,11.2-2.6,16.1,0.1c4.7,2.6,7.7,11,7.6,14.3c-1.1,1.5-1.9,0.4-3.2-0.3c-3.4-1.7-6-6.6-11-5.1c-2.3,0.7-2.8,2.3-5.2,2.2"/>
          <path d="M761.4,228.3c-0.9-0.6-4.7-2.6-5.7-2.6c-3.2-0.1-6.6,1.5-10.2,6.5c-4.4,6.1-3.9,17-2.7,17.8c1.6,0.9,3.3-1.1,4.2-2.3c2.3-3,1.4-7.8,7.7-9.3c2.3-0.6,5,0.2,7.1-1c0.3-0.2,0.6-0.4,0.8-0.7c0.4-0.6,0.5-1.3,0.6-2C763.4,232.5,763.4,229.6,761.4,228.3z"/>
          <path d="M860.7,223.9c5.2-1.5,11.4-0.2,15.8,3.1c6.3,4.8,7.1,12.7,6.7,15.9c-1.4,1.3-3.5-0.3-4.6-1.3c-2.9-2.4-4.2-6.9-10.3-7.5c-2.4-0.2-3.2,1.3-5.5,0.6"/>
          <path d="M836.7,232.9c2-0.4,4.5-0.1,6.2,0.9c3.3,2,5,4.8,7.1,8c2.3,3.4,2.5,13.5,0.1,16.7c-2.3,3-2.8,0.5-3.8-1.7c-1.3-3-1.7-7.7-6.6-10.3c-0.5-0.3-5.9-1-7.4-1.3"/>
          <path d="M838.9,224c2.7,0.1,5.4-1.5,9.4,0.7c2.7,1.5,3.7,1.6,6.9,1.1c1-0.1,3-0.4,3.7-1.2c1.5-1.7,2.2-1.4,1.5-4.1c-0.3-1.2-3.1-0.5-3.2-10.7c0-2.6-0.8-4.5-4-4.4c-3,0-5.4,1.2-6.1,2.4c-0.8,1.2-2.9,0.9-4.5,1.4c-1.7,0.5-4.2,1.7-6,1.7c-0.8,0-1.6-0.2-2.4-0.3c-4.2-0.6-7.2,0.6-11.2,1.4c-1.4,0.3-2.9,0.1-4.2-0.3c-1.1-0.4-2.2-0.9-3.1-1.6c-1.7-1.1-8.1-0.3-10-1.3c-1.8,2.8,2.7,5.5,3.4,8.7c0.5,2.1,1.2,4.2,2.8,5.7c2,2,4.9,2.5,7.7,2.8c5.5,0.6,11.1,0.4,16.6-0.6C837.1,225.2,838.3,225,838.9,224z"/>
          <g stroke="none" fill="#000">
            <path d="M848.3,208.6c-1.8,2.6-2.8,6-2.4,9.3c-0.7-1.6-1.1-3.3-1.1-5.1c-0.1-1.8,0.2-3.7,0.8-5.5L848.3,208.6L848.3,208.6z"/>
          </g>
        </g>
        <g>
          <path class="secondary" d="M759.8,220.4c5.3-2.6,7.4,1.2,8,0.3c6.2-9.9,12.8-2.7,15.5-8.8c0.9-1.8-1.6-9.2-1.6-9.2l-4.1-14.6c0,0-6.7-26.8-11.6-46.7c1.9-4,2.9-8.2,4.3-12.4c1.3-4.1,3.7-7.8,6.3-11.3c2.6,0.5,4.4,1.1,4.4,1.1s5,30.3,6.3,35.2c0.1,0.8,0,0.6,0.9,4c2.2,2.1,2.5,8.5,1.6,9.7c1.8,1.3,3,5.7,1.6,8.7c1.6,1.9,2.3,6,1.9,8.6c2.1,1.9,3.6,7.7,2.1,9.7c0.5,1.3,1.9,4.7,4.1,8.8c3.1,4.6,14.2,4.3,18.3,7.8c1.7,1.4,4.2,2.1,5.6,3.5c0.8,0.8,1.7,1.6,2.7,2.2c1.2,0.7,2.6,1.2,4,1.3c4,0.2,7.3-0.4,11.2,1.2c0.8,0.3,1.5,0.7,2.3,0.8c1.8,0.4,4.5-0.2,6.3-0.3c1.6-0.1,3.7,0.7,4.7-0.3c1-1,3.6-1.6,6.5-1c3.1,0.7,3.5,2.6,2.9,5.2c-2.1,10,0.7,9.9,0.8,11.2c0.1,2.8-0.5,2.3-2.3,3.6c-0.8,0.6-2.9,0.4-3.9,0.3c-3.2-0.3-4.2-0.6-6.5-2.7c-3.4-3.1-6.4-2.1-9-2.8c-2.8-0.7-5.9-1.6-8,1.6c-2.5,3.8-1.4,8.2-1.6,10c-0.2,2.4-2.2,4.9-7.1,3.2c-3.6-1.3-5.2-4.3-5.3-6.6c0-0.6-0.6-1.1-1-1.6c-0.5-0.6-1.3-1.1-2-1.5c-4.3-2.5-6.5-7.6-11.6-8.4c-1.5-0.3-3.2-0.1-4.5-1c-1.3-1-3.5,0-5.1-0.6c-2.4-0.9-4.6,1.8-7,2.8c-1.7,0.7-3.5,0.5-5.3,0.6c-4,0.4-8.6,2.4-11,5.7c-0.7,0.9-0.4,1.7-1.1,2.6c-1.4,1.9-2.5,3.4-4.7,3.5c-1.5,0.1-7.6-1.2-7.3-4.2c0.2-1.6,3.5-6.6-1.2-11.6c-1-1.1-3.7-2.5-3.5-2.7C755.7,225.7,756.4,222.1,759.8,220.4z"/>
          <path fill="none" d="M843,233.9c-3.2-7.6-10.9-4.9-12.7-5.4c-0.6-0.2-1.5-0.4-1.9-0.9c-0.7-0.9-1.7-1.6-2.7-2.2"/>
          <g stroke="none" fill="#000">
            <path d="M855.4,221.1c-2.3,1.1-3.6,4.1-3.8,6.7c-0.7-3.1-0.4-6.5,2-9.1C853.5,218.7,855.4,221.1,855.4,221.1L855.4,221.1z"/>
            <path d="M824.8,226.5c-2.4-2.1-4.7-3.7-7.7-4.6c-2.2-0.7-4.9-1.4-6.4-3.2c-0.6-0.5-1.2-1-1.9-1.4c1.5,0.5,2.7,1.7,4.1,2.3c1.2,0.4,3.2,0.6,4.5,0.9c3.2,0.4,6.4,2,9,3.6C826.5,224,824.8,226.5,824.8,226.5L824.8,226.5z"/>
            <path d="M830.8,229.8c-2.8,0.5-5.7,1.8-7.3,4.3c0.8-3.1,3.5-5.6,6.3-7.1C829.8,227,830.8,229.8,830.8,229.8L830.8,229.8z"/>
            <path d="M787.7,196.1c1.5-1.5,3.7-2.1,5.7-2.6c0.9-0.1,1.5-0.3,2.6,0c0,0-1.2,2.7-1.2,2.7c-0.2-0.2-0.9-0.4-1.3-0.4c-1.8-0.2-3.9-0.3-5.6,0.5C787.9,196.3,787.7,196.1,787.7,196.1L787.7,196.1z"/>
            <polygon points="769.7,126.8 784.6,196.2 766.8,127.4 769.7,126.8"/>
            <path d="M785.9,186c1.9-1.8,5.7-3.5,8.3-2.1c0,0-1.8,2.4-1.8,2.4c0-0.1-0.5-0.4-1-0.5c-1.7-0.4-3.7-0.3-5.3,0.5C786.1,186.3,785.9,186,785.9,186L785.9,186z"/>
            <path d="M784.1,177.2c2.6-1.1,5.1-3.1,8.2-1.9c0,0-1.6,2.5-1.6,2.5c0-0.2-0.5-0.4-1-0.5c-1.8-0.3-3.6,0-5.5,0.2C784.2,177.5,784.1,177.2,784.1,177.2L784.1,177.2z"/>
            <path d="M782.3,168.4c2.2-1.4,5-2.2,7.7-2.1c0.1,0,0.1,0,0,0l-0.5,3c-0.2-0.1-0.1,0-0.3-0.1c-2.2-0.9-4.5-1-6.8-0.5C782.4,168.7,782.3,168.4,782.3,168.4L782.3,168.4z"/>
            <path d="M779.6,158.7c2.6-1.3,5.4-2.1,8.3-2.2c0.5,0,0.9,0.1,1.4,0.6c0,0-2.2,2-2.2,2c0.1,0.2,0.5,0.3,0.4,0.3c-0.2-0.2-1-0.3-1.4-0.3c-2.1-0.2-4.3-0.4-6.3,0C779.8,159,779.6,158.7,779.6,158.7L779.6,158.7z"/>
            <path d="M768.5,219.4c1.6,1.1,2.9,2.8,3.3,4.7c0.1,0.6,0.2,1.1,0.6,1.6c-0.5-0.3-0.9-0.8-1.3-1.2c-0.9-1.3-2.3-2-3.8-2.3C767.2,222.1,768.5,219.4,768.5,219.4L768.5,219.4z"/>
            <path d="M787,225.4c-1.8,3.7-4.1,7.4-7.6,9.9c0,0-1.5-2.6-1.5-2.6C781.7,231.3,784.5,228.4,787,225.4L787,225.4z"/>
          </g>
          <g>
            <path d="M853.4,56.6c-8.2,4.6-13.7,22.9-25,33.7c-9.9,9.1-14.2,16.6-17.3,26c-5,15.3-12.3,19.2-20.1,29c-0.4,0.5-0.7,1-1.2,1.2c-1.5,0.6-2.7-1.4-3.1-3c-0.4-1.6-1.1-3.7-2.7-3.6c-1.3,0.1-2,1.5-3.2,2c-1.9,0.7-3.8-1.3-5.8-1c-1.5,0.2-2.5,1.5-3.4,2.8c-1.7,2.4-3.3,4.9-5.3,7.1c-3.2,3.4-3.7,4-6,0.4c-5.9-9.6,2.8-27.4,2.5-34.4c-1.2-5.1-4.2-19.3,0-30.6c0.7-1.4,0.9-3.5,0.5-5.7c-1.5-8.5,1.5-26.7,6.7-37.9"/>
            <g stroke="none" fill="#000">
              <polygon points="768.6,41.7 775.3,33.1 771.2,43.2 768.6,41.7"/>
              <path d="M796.3,118.3c2.2,5.7-4.3,10.1-8.4,12.7c-1.4,0.9-2.6,1.9-3.9,3.3c0-1.9,1.1-3.7,2.3-5C789.7,125.3,794.8,123.5,796.3,118.3L796.3,118.3z"/>
              <path d="M792.5,74.3c-1.4,5.4-3.7,11.6-5.5,16.9c-0.6,1.9-1.3,3.7-2.1,5.6c-0.7-4.1-0.1-8.3,1.2-12.1C787.4,80.8,789.4,77.1,792.5,74.3L792.5,74.3z"/>
              <path d="M826.3,63.4c-4.8,7.8-3.9,18.1-10.2,25.2c-2,2.4-5,4.4-8.2,4.4c2.8-1.3,4.8-3.4,6.3-5.8C819.1,79.8,818.8,69.1,826.3,63.4L826.3,63.4z"/>
              <path d="M813.4,34.9c-5.7,6.4-10.2,13.2-13.9,20.8C799.1,46.9,805.1,37.9,813.4,34.9L813.4,34.9z"/>
              <path d="M852.8,55.2c7.4-3.7,13.9-9.2,19.5-15.2c1.9-2.1,3.7-4.2,5.9-6.1c0,0,0.3,0.2,0.3,0.2c-2.3,5.3-6.3,9.7-10.3,13.8c-3.1,3-6.5,5.8-10.2,8.1c-1.3,0.8-2.5,1.5-3.9,2.1L852.8,55.2L852.8,55.2z"/>
              <path d="M773.4,100.9c-4.6,4.4-7,10.6-9.4,16.4c0,0-2.7-1.2-2.7-1.2c3.3-5.6,6.6-11.5,11.9-15.4C773.2,100.7,773.4,100.9,773.4,100.9L773.4,100.9z"/>
              <path d="M775.8,68.2c-4.3,4.3-7.9,9.3-11.1,14.4c0,0-2.4-1.8-2.4-1.8c4.1-4.7,8.4-9.1,13.3-12.8C775.6,68,775.8,68.2,775.8,68.2L775.8,68.2z"/>
            </g>
          </g>
        </g>
        <g stroke="none" fill="#000">
          <path d="M1032.3-57.8c-4.7,28.1-26.1,50.6-49.5,65.4c-8,4.9-16.5,9-25.4,11.7c17.8-8.3,34.1-19.6,47.9-33.6C1017.4-26.6,1027.5-41.1,1032.3-57.8L1032.3-57.8z"/>
          <path d="M963.5-26.9c0.9-8.3,7.1-16,15-18.6C973.1-39.5,968.3-33.5,963.5-26.9L963.5-26.9z"/>
        </g>
      </g>
      <g>
        <path class="tertiary" d="M1090-143.7c0,0,4.4-2.4,10.5-4.3c6.1-1.9,14.9-5.1,23-3.7c6.1,1.2,10.1,4.2,13.3,4.6c3.6,1,6.1,0,7.7-1.1c3.5-2.4,2.8-4.7,3.9-4.2c2,3.3-1.2,7-3,8.3c-3,2.3-6.2,3.6-12.1,2.4c-3.4-0.6-5.2-2.5-9.3-3.2c-5.7-1.7-12.4-0.5-17.1,0.5c-4.3,1-14.3,4.7-17.3,5C1089.7-143.3,1090-143.7,1090-143.7z"/>
        <path class="secondary" stroke-linejoin="round" d="M1117.8-176.9c3.2-5.6,5.4-8.8,6.2-15.1c5.1-2.3,11.4,1.4,11.6,4.3c6,0,17.7,7.3,22,16.6c4.5,9.8,2.2,22-2.5,31.8c-0.3,0.6-1.5,1.3-1.6,0.1c0-3-2-13-6.5-16.8c-6.4-5.6-18.4,1.8-25.2,1.7c-5.2-0.1-11.6-2.3-15.8,0.9c-3.9,3-8.6,5.2-11.4,14.5c0,0,5.1-4,13.6-2.3c7.3,1.5,14.4-0.9,19.6,0c2.1,0.3,9,2.9,10.6,4.1c1.8,1.3,2.8,3.7-0.2,3.6c-4.2-0.1-9.1-1.8-13.3-0.8c-3.3,0.8-6.7,0.9-10.2,1.1c-7.6,0.3-15.5,1-21.7,5.8c0,0-4.9,2.3-5.1-4.2c-0.3-4.5-1-9.4,2.3-17C1095-159.4,1113.4-169.3,1117.8-176.9z"/>
        <g>
          <path fill="#f6f6f6" d="M1090.9-190.7L1090.9-190.7c3.2,0.8,6.3,2.1,9.1,3.8c1.4,0.8,2.8,1.8,4.3,2.5c2.1,1,4.3,1.4,6.6,1.4c0,0.1,0,0.1,0,0.2c-0.1,5-4.8,8.8-8.9,9.7c-4.2,0.9-8.9-1-11-4.7c-1.4-2.5-1.6-5.5-1.4-8.4C1089.6-187.3,1090.1-189.8,1090.9-190.7z"/>
          <g stroke="none" fill="#000">
            <path d="M1112.3-192.1c-7-3.3-14.3-4.1-21.8-5.5C1097.8-200.5,1107.7-199,1112.3-192.1L1112.3-192.1z"/>
            <path d="M1137-187.9c-0.2,3.2-1.8,5.8-3.9,7.9c1-2.3,1.6-5.3,0.9-7.6C1134-187.5,1137-187.9,1137-187.9L1137-187.9z"/>
            <path d="M1127.9-187.8c4.8,3.4,2.3,11.7-3.9,9.1c0.9-0.7,1.9-1.2,2.4-1.8C1128.3-182.6,1127.5-185.2,1127.9-187.8L1127.9-187.8z"/>
            <path d="M1106.7-183.6c0.2,0.7-0.1,2.8-0.4,3.5c-0.6,1.2-1.8,2.2-2.8,3c-0.7,0.6-1.8,1-2.6,0.4c-0.8-0.5-0.7-1.7-0.6-2.6c0.2-1.7,1-5.9,1.2-7.6"/>
            <path d="M1063.8-121.9c-2.4-0.4-3.7-2.9-3.3-5.1c0.1-0.7,0.4-1.4,1.1-2.1c0.6,0.7,0.9,1.2,1.3,1.8C1063.8-125.5,1064-124,1063.8-121.9L1063.8-121.9z"/>
            <path d="M1031.2-115.5c0.3,0.6,1.1,1.9,1.3,2.5c0.2,0.6,0.2,2.1,0.3,2.8C1029.6-109.3,1028.1-114.5,1031.2-115.5L1031.2-115.5z"/>
            <path d="M1039.1-119.5c1.4,1.9,1.5,3.5,0.3,5.6C1036.7-114.5,1036.5-118.5,1039.1-119.5L1039.1-119.5z"/>
            <path d="M1048.6-118.8c0.8,2,0.7,3.9,0.8,5.9c0,0.6,0.1,1.2,0.3,2.1c-1,0.1-1.9-0.4-2.5-1.2C1045.5-114.1,1046.3-117.4,1048.6-118.8L1048.6-118.8z"/>
            <path d="M1056.6-120.1c0.4,1.5,1.5,2.3,2.3,3.3c1,1.2,2.2,3.1,1.4,4.8c-1.5-1.1-2.5-1.5-3.7-2.9C1055.3-116.1,1054.7-119,1056.6-120.1L1056.6-120.1z"/>
            <path d="M1100.8-167.9c-3.2,1.7-6.8,2.4-9.9,0.1c-2.8-1.6-4.9-3.9-7.5-5.9c0.8-0.2,1.7,0,2.6,0.2c3,0.9,5.7,2.7,8.3,4.2C1096.2-168.4,1098.6-168.7,1100.8-167.9L1100.8-167.9z"/>
            <path d="M1120.2-189.3c0.7,1,0.7,2.5,0.1,3.6c-1.8,3.4-5.9,4.4-9.4,4.3c0,0,0-3,0-3c4-0.1,7.4-0.6,8.9-4.9C1119.9-189.3,1120.2-189.3,1120.2-189.3L1120.2-189.3z"/>
            <path d="M1090.5-189.2c-3.8-0.8-7.9-1.9-11.5,0.1c-1.1,0.6-2.2,1.5-3.5,2.2l-0.2-0.2c0.4-1.5,1.3-2.8,2.5-3.8c3.8-3,9.1-2.4,13.4-1.2C1091.3-192.1,1090.5-189.2,1090.5-189.2L1090.5-189.2z"/>
          </g>
        </g>
        <g stroke="none" fill="#000">
          <path d="M1020.2-180.7c-4.8-0.6-8.1,3.6-11.7,6c-1.9,1.4-3.9,2.6-6.2,3.4c-2.3,0.8-4.8,1.2-7.2,1.1l0.3-3c4.3,0.7,8.6-0.5,12.3-2.8C1011.5-178,1015.5-181.9,1020.2-180.7L1020.2-180.7z"/>
          <path d="M1048.1-198.3c-5.1-0.4-9.2,3.2-13.7,5.1c-4.7,2.4-10.9,3.4-15.2-0.5c0,0,2-2.2,2-2.2c5.4,5.6,13.4,0.8,19.5-1.4C1043.1-198.1,1045.6-198.9,1048.1-198.3L1048.1-198.3z"/>
          <path d="M1056.7-170.2c-1-2.3-0.4-4.5,1.7-6C1060.3-174.2,1059.3-170.8,1056.7-170.2L1056.7-170.2z"/>
          <path d="M1067.4-159.8c-2.3-1.9-3.3-4.7-2.5-7.6C1067.8-166.3,1069-162.5,1067.4-159.8L1067.4-159.8z"/>
        </g>
      </g>
      <g stroke="none" fill="#000">
        <path d="M664.9,85.6c6.8-1.8,13.9-2.3,20.9-2.6c14-0.5,28.1-0.3,42.1-0.2c7,0,14,0.1,20.8-0.6l0.4,3c-14.1,1.2-28.2,0.2-42.3,0C692.9,84.7,678.9,84.5,664.9,85.6L664.9,85.6z"/>
      </g>
    </g>
    <g>
      <path d="M853.8-45.9c-6.1,1.7-11.4,3.7-17.5,1.7c-3.5-8.3-2.6-21.2,2.2-28.7c-9.1,4.2-25.5,8.2-33.7,2.3c-1.7-10.2,0.5-20.1,6.1-28.8c-5.3,3.2-21.3,14.4-36,9.9c-3.3-7.4,3.6-24.8,6.4-29.5c-9.5,5.8-30.8,8.6-36.1,4.3c-5.9,7.1-40.9,28.3-50.1,27.4c-4.1,8.4-48.7,30.3-58,23.5c-6.2,7.7-47.6,13.4-54.1,3c-17.5,0.5-21.8-15.9-20-17.1c-6.6,7.3-35.5,4.1-41.4-6.6c-6.1-0.1-10-10.5-8.2-11.7c-10.9-0.3-21.5-3.7-25.1-9.8c-11.5-4-8.5-14.2-2.3-15c9.5-1.3,25-1.2,47.4-9.7c53.5-16.1,87.5-35.6,124.7-60.5c34.1-21.8,51.7-36.6,66.3-41.3c-8.7-0.1-16.2-4.3-18.3-9.6c14.6,1.9,38.4-2.6,74.8-25.8c47-29.1,111.7-43.9,145.9-31.4c18.2-3.5,33.2-0.9,44.7,9.5c9.6,8.6,10.1,22.3,6.4,26.8c-5.4,6.6-4.7,10.4-13.2,18.2c-4,3.7-16.5,12.3-18.7,17.3c-2.6,5.9-5.7,11.4-9.4,16.6c-5.8,8.1-12.3,18.4-15.3,29.1c-5.8,27.4,8.9,43.4,14.2,50.2c11.9,15.5,16.6,22.4,17,37.6"/>
      <g>
        <path fill="none" d="M745.1-114.8c1.2-10.2,9.9-25.8,18.9-34.8"/>
        <path fill="none" d="M754.7-138.4c-12.6,11.3-31.9,18.1-38.4,15.9c-1.8-5-1.1-13.5-0.2-18.6c-7.1,10.7-39.5,29.6-48.6,28.2c-4.6,8.1-44.4,28.2-53.3,21c-6.6,7.3-39.4,18.6-51.4,14"/>
        <path fill="none" d="M728.4-166.3c-5.7,8.8-10.5,15.3-12.2,25.2"/>
        <path fill="none" d="M716.8-179c-6.5,10.6-38.7,33.8-59.4,36.9c-3.3,11.8-48.6,34.7-65.9,26.2c-3.6,4.8-30.4,17.7-55.5,15.1"/>
        <path fill="none" d="M880.9-172.3c-40.7,10.5-68.9,17.4-99.7,53.3"/>
        <g stroke="none" fill="#000">
          <path d="M511.6-112.9c41.5-2.3,80.6-18.4,117.1-37.3c36.9-18.9,70.7-42.9,106-64.4c0,0,1.5,2.5,1.5,2.5c-4.4,2.6-8.8,5.4-13.1,8.2C663.7-165.4,584.2-113.6,511.6-112.9L511.6-112.9z"/>
          <path d="M539.7-89.5c6.3-1.1,12.8-1.7,19.2-2.7c3.2-0.6,9.5-1.7,12.7-2.3c46.4-9,90.2-28.9,129.4-55c4-2.6,22.5-15.3,26.7-18.1c0,0,1.6,2.4,1.6,2.4c-7.1,4.9-14,10-21.2,14.7C658.3-116.4,600.1-93,539.7-89.5L539.7-89.5z"/>
          <path d="M768.5-132.8c3.5-4.4,7.7-8.2,11.9-11.8c8.5-7.3,17.5-14.1,26.9-20.2c4.7-3.1,9.8-5.6,14.9-8c15.2-7.2,31-13.5,47.5-17.1c5.5-1.2,11.1-2.1,16.8-2.4c0,0,0.2,2.9,0.2,2.9c-24.8,2.4-48.6,11.7-71.1,22.4C798.5-157.9,782.8-145.9,768.5-132.8L768.5-132.8z"/>
        </g>
        <g>
          <path fill="none" d="M883-160.4c-1.7-3.3-3.5-8.5-2.1-11.9c1.4-3.4,4.3-6.2,7.8-7.4c0.5-3.7-3.2-7.6-2-11.2c0.8-2.6,3.2-4.3,5.5-5.8c-0.1-5.9,4-11.7,9.7-13.2c1.1-4.5,4-7.2,8.6-8.3c0.9-5,4-9.5,8.2-12.3c-3.3-3.7-3.1-10.1,0.2-13.6c-4.4-2.6-7.5-7.2-8.4-12.3c1.4-3.5,7.7-5.7,7.7-5.7"/>
          <g stroke="none" fill="#000">
            <path d="M918.6-263.4c1.5,0.9,2.6,2.2,3.8,3.3c2.3,2.5,4.9,2.8,8.1,2.8c1.6,0,3.2,0,4.7,0.4c-3.3-0.1-6.2,1-9.5,0.7c-3.3-0.4-5.6-3.2-8.4-4.4C917.3-260.7,918.6-263.4,918.6-263.4L918.6-263.4z"/>
            <path d="M919.5-245.4c3.2,2.4,8.4,1.8,12.2,3c-2.2-0.1-4.4,0.2-6.6,0.4c-2.4,0.2-4.9,0.3-7.2-0.8C918-242.8,919.5-245.4,919.5-245.4L919.5-245.4z"/>
            <path d="M883.4-161.8c1.5,0.6,3.4,1.4,5,0.7c0.8-0.3,1.5-1,2.4-1.6c0.9-0.6,2-0.9,3-0.7c-1,0.1-1.9,0.5-2.5,1.2c-2.3,3.3-4.8,3.8-8.7,3.1C882.6-158.9,883.4-161.8,883.4-161.8L883.4-161.8z"/>
            <path d="M889.4-180.9c2,1.9,4.9,1,7.4,1.5c1,0.2,1.9,0.6,2.6,1.2c-1.8-0.7-3.5-0.4-5.3,0.1c-1.9,0.6-4.3,0.8-6.3-0.2C887.9-178.4,889.4-180.9,889.4-180.9L889.4-180.9z"/>
            <path d="M903-210.7c1.4,3,4.2,4.5,7.1,6c1,0.6,1.9,1.4,2.5,2.3c-0.8-0.8-1.8-1.3-2.8-1.6c-3.4-0.8-7-2-9.2-5C900.5-209,903-210.7,903-210.7L903-210.7z"/>
            <path d="M892.8-198c3.4,2.6,8.1,1.7,11.4,4.3c-1.9-1-4-0.8-6.1-0.7c-2.2,0.1-4.5-0.2-6.6-0.9C891.5-195.3,892.8-198,892.8-198L892.8-198z"/>
            <path d="M911.6-218.9c1.2,2.9,4.4,4.1,7,5.6c1,0.6,1.8,1.3,2.5,2.2c-0.8-0.7-1.8-1.2-2.8-1.5c-3.3-1-7.1-1.7-9.2-4.7C909.1-217.4,911.6-218.9,911.6-218.9L911.6-218.9z"/>
            <path d="M919.6-231.6c2.8,3.2,7.9,3.1,10.9,6c-1.9-1.1-4-1.3-6.2-1.6c-2.3-0.3-4.7-0.7-6.7-2.2C917.5-229.3,919.6-231.6,919.6-231.6L919.6-231.6z"/>
            <path d="M917.2-260.8c-4.1-2.8-6.1-7.6-6.2-12.4c0.9,4.1,3.7,8.2,7.6,9.7C918.7-263.4,917.2-260.8,917.2-260.8L917.2-260.8z"/>
          </g>
        </g>
        <path fill="none" d="M827.7-234.6c-10.2,7.8-20.7,22.1-23.2,32.1c4.7,5,15.5,6.7,25.5,6.5"/>
        <path fill="none" d="M724.1-232.4c21.2,1.2,37.3-6.3,39.2-7.1c8.4-3.6,20.6-13.7,29.4-16.9c2.8-1,5.8-2,8.8-1.7c1.3,0.1,2.6,0.4,4,0.5c3.2,0.1,6-1.6,9.1-1.6c2.6,0,5.6,1.2,8.3,1.5c6.9,0.8,14.2,0.9,20.6-2.3c2.4-1.2,5.7-4.5,8.5-4.7"/>
        <g stroke="none" fill="#000">
          <path d="M752-162.3c-4,4.3-8.1,8.2-12.1,12.4c-4,4.2-7.4,8.7-11.2,13.1c0,0-0.3-0.1-0.3-0.1c0.9-2.9,2.4-5.4,4.1-7.8c5-7.1,11.2-13.4,17.3-19.6C749.8-164.4,752-162.3,752-162.3L752-162.3z"/>
          <path d="M826.1-210.7c17.9-18.6,49.7-27.1,75-25.1C874.7-233.2,847.9-226.5,826.1-210.7L826.1-210.7z"/>
          <path d="M826.8-235.8c17.3-11.4,45.1-22.6,66-19.9c0,0,0,0.3,0,0.3c-17.1-1.1-34.5,5.6-49.6,13.1c-5.1,2.7-10,5.6-14.7,9C828.5-233.3,826.8-235.8,826.8-235.8L826.8-235.8z"/>
          <path d="M711.1-216.2c3.3,0.4,6.5,1.5,9.9,1.8c10,1.3,19.7-1.2,29.1-4.1c0,0,0.9,2.7,0.9,2.7C738.5-210.9,723.4-209.9,711.1-216.2L711.1-216.2z"/>
          <path d="M851.8-266.2c3.2-0.3,6.1,2.1,9,2c2.8-0.1,5.8-1.2,8.6-1.9c5.9-1.5,12.9-2.3,18.5,0.7c-1.4,0-3.2-0.4-4.6-0.5c-4.5-0.4-8.9,0.6-13.2,2.2c-2.8,0.9-6.1,2.4-9.2,2.6c-1.7,0.1-3.5-0.4-5.1-1c-1.4-0.5-2.8-1.1-3.8-1.1L851.8-266.2L851.8-266.2z"/>
        </g>
        <path fill="none" d="M774.6-205.5C763-195.1,753.4-181,749.8-164c10.2,3.4,21.6,2.8,31.2-1.9"/>
        <path fill="none" d="M735.5-213.4c-10.2,11.8-20,27.1-19.8,46.1c10.5,2.1,28.8-4.3,39.7-13.2"/>
        <g stroke="none" fill="#000">
          <path d="M763.9-216.1c13-17.9,33.8-29.5,55.6-32.9c-8.8,3.5-17.7,7-26,11.5C782.7-231.7,773.1-224.2,763.9-216.1L763.9-216.1z"/>
          <path d="M728.7-178.9c0.8-2.7,2.4-5,4-7.1c4.2-5.3,8.8-10.2,13.8-14.7c1-0.9,2-1.8,3.2-2.6l1.8,2.4c-8,6.6-15.7,14.4-22.5,22.1C729-178.8,728.7-178.9,728.7-178.9L728.7-178.9z"/>
          <path d="M769.5-176.4c2.2-3,4.8-5.6,7.5-8c5.5-4.9,11.3-9.4,17.3-13.5c3-2.1,6.1-4,9.3-5.9c0,0,1.6,2.5,1.6,2.5c-6,3.7-12.4,7.8-18.1,11.9c-6,4.1-11.3,9-17.3,13.2C769.8-176.1,769.5-176.4,769.5-176.4L769.5-176.4z"/>
        </g>
        <path fill="none" d="M763.4-239.5c-10.3,14.1-15.8,25.9-14.9,36.2c6.1,3.2,16.8,1.3,26.2-2.1"/>
        <path fill="none" d="M774.5-205.7c8.9-7.2,31-20.2,46.3-23.4"/>
      </g>
      <path fill="none" d="M816.9-189.4c-19.5,9.7-37.6,24.4-52.9,39.8"/>
      <path fill="none" d="M536.1-100.9c-5.7,3.5-14.4,5-22.8,4.8"/>
      <g stroke="none" fill="#000">
        <path d="M589.5-69.5c3-0.5,6.1-0.8,9.1-1.1c0,0,9-1.3,9-1.3c5.9-1.1,12-2.4,17.8-3.9c34.3-9.6,69.8-24.8,97.1-47.7c0,0,2,2.1,2,2.1c-4.5,4.2-9.5,8.1-14.6,11.4C678.4-89,627.6-69.8,589.5-69.5L589.5-69.5z"/>
        <path d="M886.4-212.4c-4.5,1.2-9,1.6-13.5,2.8c-7.4,1.7-14.7,4-21.9,6.6c-10,3.6-23.7,10.4-33.4,15c0,0-1.3-2.6-1.3-2.6c16.3-8.6,33.6-15.8,51.8-19.5C874.1-211.3,880.2-212.5,886.4-212.4L886.4-212.4z"/>
      </g>
      <g>
        <path fill="none" d="M884-143.6c-25.2,7.7-51.3,18.1-73.2,44.2"/>
        <path fill="none" d="M900.2-116.4c-2.7-1.7-5.4-5.5-6.7-8.4c-0.8-1.8-1.3-3.9-2.4-5.6c-0.8-1.2-1.9-2.2-2.8-3.3c-2.3-2.8-3.4-6.5-4.4-10c-0.4-1.3,1.4-2.8,0.5-3.8c-4.1-4.6-3-9.6-1.5-13"/>
        <path fill="none" d="M838.4-73c23-28.9,37.7-33.5,58-47.1"/>
        <g stroke="none" fill="#000">
          <path d="M943.3-72.1c5.5-4.8,8.9-14.3,7.5-21.4c0,0,2.9-0.6,2.9-0.6C954.4-86.3,949.8-76.5,943.3-72.1L943.3-72.1z"/>
          <path d="M905.1-82.7c-12.7,17.2-30.3,31.5-50.8,38.1c0,0-1-2.7-1-2.7c9.8-3.9,19.3-8.3,27.9-14.4c4.3-3.1,8.4-6.4,12.3-10C897.6-75.2,901-79.2,905.1-82.7L905.1-82.7z"/>
          <path d="M797.7-114.2c21-21.9,54.1-42.5,84.6-46.3c0,0,0.4,2.9,0.4,2.9c-24.9,4-48,15.5-68.3,30.2C808.6-123.3,803.3-118.5,797.7-114.2L797.7-114.2z"/>
          <path d="M823.9-83.7c3.6-5.8,8.3-11,13.1-15.9c14.4-14.9,33.5-23.9,50.6-35.2c0,0,1.7,2.4,1.7,2.4c-11.1,8.2-23.7,13.9-35,21.5c-5.7,3.8-11.1,7.9-16.1,12.5c-1.9,1.6-3.7,3.6-5.5,5.3C829.6-90.1,826.9-86.7,823.9-83.7L823.9-83.7z"/>
          <path d="M939.4-65.5c-7,4.7-17.9,2.5-22.6-4.5C924.1-66.6,931.5-65.1,939.4-65.5L939.4-65.5z"/>
          <path d="M900.7-117.8c3,2.6,7.4,3.8,11.7,2.8c-4,1.9-9,1.9-13.4-0.3L900.7-117.8L900.7-117.8z"/>
          <path d="M894.5-136.6c2.1,1.4,3.9,2.7,6.1,3.8c2,1.2,5,1.6,6.3,4c-2.7-0.4-5.2,0.1-7.7-1.3C896.7-131.4,894.7-133.8,894.5-136.6L894.5-136.6z"/>
          <path d="M901.7-116.6c0.3,4.7,2.2,9.4,5.4,13.3c-3.9-3.1-7-7.6-8.4-12.8L901.7-116.6L901.7-116.6z"/>
          <path d="M885.2-148.7c3.2,2.7,7,1.4,10.5,0.1c1.3-0.4,2.6-0.8,3.9-1.1c-1.2,0.6-2.4,1.2-3.6,1.8c-3.9,2.4-7.9,4.2-12.4,1.8C883.7-146.1,885.2-148.7,885.2-148.7L885.2-148.7z"/>
          <path d="M875.8-38.8c12.1-4.5,21.3-13.4,31.8-20.6C900.1-49.1,889.1-39.2,875.8-38.8L875.8-38.8z"/>
          <path d="M855.8-61.1c5.7-9.5,13.1-18.1,21.8-25c7.7-6.1,16.6-10.5,25.5-14.3c-7.8,5.8-16.2,10.5-23.7,16.7C870.9-77,863.4-69,855.8-61.1L855.8-61.1z"/>
        </g>
      </g>
    </g>
  </g>
</svg>
