<svg xmlns="http://www.w3.org/2000/svg" fill="#d7374a" stroke="#000" viewBox="50 50 200 200">
  <metadata source="http://wappenwiki.org/images/c/cd/St_Gall.svg" license="https://creativecommons.org/licenses/by-nc-sa/3.0"/>
  <g id="fasces" stroke-width=".3">
    <path d="M101.38 72.45l.02 6.41c0 .79-.63.96-1.42.96-.78 0-1.42-.16-1.42-.96l.04-6.5c0-.11.61-.24 1.4-.24.77 0 1.38.22 1.38.33z"/>
    <ellipse cx="100.03" cy="132.48" rx="8.15" ry="1.11"/>
    <path d="M101.53 131.65s-.48-.17-1.55-.17-1.43.17-1.43.17l-.13-54.57c0-.13.7-.36 1.55-.36.86 0 1.55.23 1.55.36v54.57z"/>
    <path d="M104.65 131.95s-.54-.33-1.55-.39c-1.02-.08-1.55.1-1.55.1V77.09c0-.13.84-.36 1.77-.26.85.1 1.35.43 1.35.56v54.56z"/>
    <path d="M106.69 132.13s-.43-.19-1.02-.26a2.35 2.35 0 00-1.02.08V77.39c0-.13.44-.26 1.04-.16.55.1.98.42.98.56v54.34z"/>
    <path d="M108.19 132.45c0 .01-.16-.23-.7-.32-.59-.1-.8 0-.8 0V77.78c0-.14.45-.18.9-.04.45.14.61.42.61.56v54.15z"/>
    <path d="M93.29 77.78c0-.14.43-.47.98-.56.6-.1 1.04.02 1.04.16l.13 54.56s-.38-.16-1.02-.08c-.59.06-1.02.26-1.02.26l-.13-54.33h.02z"/>
    <path d="M91.9 78.31c0-.14.02-.42.48-.56.44-.13.9-.1.9.04l.13 54.34s-.21-.1-.8 0c-.54.1-.7.33-.7.33V78.31z"/>
    <path d="M95.31 77.39c0-.13.5-.47 1.35-.56.93-.1 1.77.13 1.77.26l.12 54.56s-.54-.18-1.55-.1a3.47 3.47 0 00-1.55.39l-.13-54.55z"/>
    <path d="M101.43 132.77l.02 6.41c0 .79-.63.96-1.42.96-.78 0-1.42-.16-1.42-.96l.04-6.5c0-.11.61-.24 1.4-.24.77.01 1.38.22 1.38.33z"/>
    <g class="secondary">
      <path d="M97.71 68.58c-6.14 0-7.46-5.42-7.8-6.29 0 0-2.76 2.8-2.76 8.69 0 6.77 3.56 9.49 3.56 9.49s-.92-4.99 4.98-6.66v-.18-.04-.04l.01-.07.01-.04.02-.06.02-.06.03-.07.02-.05.02-.04.03-.05.04-.06.04-.05.03-.04.03-.03.03-.03.03-.02a.14.14 0 01.04-.03l.03-.02a.08.08 0 01.04-.02l.05-.03a.49.49 0 01.07-.03l.04-.01.04-.01.07-.02.03-.01.06-.01h1.24"/>
      <path d="M101.77 72.17c2.89-.02 4.6.17 6.67 1.09 1.8.8 3.03 2.47 3.03 2.47.15-1.5-.95-3.33-2.65-4.66-1.81-1.42-4.86-2.28-7.05-2.28"/>
      <path d="M101.46 67.56c-.11-4.87-1.38-8.41-1.38-8.41s-1.24 3.68-1.38 8.41"/>
      <path fill="#000" stroke="none" d="M89.88 64.53a13.87 13.87 0 00-.88 3.36 20.08 20.08 0 00.66 8.57c.17.55.36 1.1.59 1.64a10.37 10.37 0 01-1.04-2.41 15.15 15.15 0 01-.67-4.33 17.85 17.85 0 01.7-5.2 11.62 11.62 0 01.64-1.63z"/>
      <path d="M102.17 73.08h-4.36c-.06 0-.1-.04-.1-.1v-4.84c0-.06.04-.1.1-.1h4.36c.06 0 .1.04.1.1v4.84c0 .06-.04.1-.1.1z"/>
      <circle cx="99.99" cy="70.56" r="1.53"/>
      <rect width="3.68" height="1.26" x="98.24" y="66.78"/>
      <line x1="98.23" x2="101.76" y1="67.41" y2="67.41"/>
    </g>
    <g class="tertiary">
      <path d="M107.38 104.66c.36-.23.87-.38.94-.85.02-.19 0-.38-.01-.56-.02-.44.05-.87.06-1.31.01-.45-.07-.87-.23-1.29-.13-.36-.43-.68-.64-.98-1.12-1.6-2.22-3.22-3.42-4.78a92.86 92.86 0 00-10.4-11.49c-.41-.37-.81-.74-1.23-1.1-.11-.1-.38-.44-.54-.44-.24 0-.23.24-.23.39.01.3-.02.59-.02.88-.02.82-.25 2.1.45 2.72.42.36.81.76 1.21 1.16a90.42 90.42 0 016.51 7.12 105.5 105.5 0 016.52 8.92l1.03 1.61z"/>
      <path d="M92.61 104.66c-.36-.23-.87-.38-.94-.85-.02-.19 0-.38.01-.56.02-.44-.05-.87-.06-1.31-.01-.45.07-.87.23-1.29.13-.36.43-.68.64-.98 1.12-1.6 2.22-3.22 3.42-4.78a92.86 92.86 0 0110.4-11.49c.41-.37.81-.74 1.23-1.1.11-.1.38-.44.54-.44.24 0 .23.24.23.39-.01.3.02.59.02.88.02.82.25 2.1-.45 2.72-.42.36-.81.76-1.21 1.16a90.42 90.42 0 00-6.51 7.12 105.5 105.5 0 00-6.52 8.92l-1.03 1.61z"/>
      <path d="M91.57 82.97c.49-.32 3.87-1 8.47-1 4.6 0 7.98.68 8.47 1 .19.1.1-1.18.1-1.52 0-.75-.54-1.18-2.62-1.52-1.59-.25-3.7-.38-5.94-.38-2.23 0-4.35.14-5.94.38-2.09.32-2.62.76-2.62 1.52-.02.48-.11 1.6.08 1.52z"/>
      <path d="M107.38 127.95c.36-.23.87-.38.94-.85.02-.19 0-.38-.01-.56-.02-.44.05-.87.06-1.31.01-.45-.07-.87-.23-1.29-.13-.36-.43-.68-.64-.98-1.12-1.6-2.22-3.22-3.42-4.78a92.86 92.86 0 00-10.4-11.49c-.41-.37-.81-.74-1.23-1.1-.11-.1-.38-.44-.54-.44-.24 0-.23.24-.23.39.01.3-.02.59-.02.88-.02.82-.25 2.1.45 2.72.42.36.81.76 1.21 1.16a90.42 90.42 0 016.51 7.12 105.5 105.5 0 016.52 8.92l1.03 1.61z"/>
      <path d="M92.61 127.95c-.36-.23-.87-.38-.94-.85-.02-.19 0-.38.01-.56.02-.44-.05-.87-.06-1.31-.01-.45.07-.87.23-1.29.13-.36.43-.68.64-.98 1.12-1.6 2.22-3.22 3.42-4.78a92.86 92.86 0 0110.4-11.49c.41-.37.81-.74 1.23-1.1.11-.1.38-.44.54-.44.24 0 .23.24.23.39-.01.3.02.59.02.88.02.82.25 2.1-.45 2.72-.42.36-.81.76-1.21 1.16a90.42 90.42 0 00-6.51 7.12 105.5 105.5 0 00-7.55 10.53z"/>
      <path d="M91.57 106.26c.49-.32 3.87-1 8.47-1 4.6 0 7.98.68 8.47 1 .19.1.1-1.18.1-1.52 0-.75-.54-1.18-2.62-1.52-1.59-.25-3.7-.38-5.94-.38-2.23 0-4.35.14-5.94.38-2.09.32-2.62.76-2.62 1.52-.02.48-.11 1.6.08 1.52z"/>
      <path d="M91.57 129.55c.49-.32 3.87-1 8.47-1 4.6 0 7.98.68 8.47 1 .19.1.1-1.18.1-1.52 0-.75-.54-1.18-2.62-1.52-1.59-.25-3.7-.38-5.94-.38-2.23 0-4.35.14-5.94.38-2.09.32-2.62.76-2.62 1.52-.02.48-.11 1.6.08 1.52z"/>
    </g>
  </g>
</svg>
