<svg xmlns="http://www.w3.org/2000/svg" fill="#d7374a" stroke="#000" viewBox="50 50 200 200">
  <metadata source="http://wappenwiki.org/images/1/18/De_Thou.svg" license="https://creativecommons.org/licenses/by-nc-sa/3.0"/>
  <g id="fly" stroke-width="2.5" transform="translate(50.5 91.5) scale(0.28)">
    <g>
      <path d="M187.5 61.3c6.4.8 12.4.2 21 8.2 10.1 9 12.9 18.6 14.9 23.1 1.1 2.4 2.4 5 5.7 7.2 1.7 1.3-7.4 9.6-9.2 7.5-6.7-8.8-4.3-21.1-15.4-31-8-5.9-12.6-4.8-12.6-4.8"/>
      <path d="M220.6 105.7c3.7 5 7.7 11 8 17 .3 5.9 1.7 12.5 5.4 16.8 4.3.4 8.4-1.7 9.4-4.3a22.3 22.3 0 0 1-5.8-14 46 46 0 0 0-10.1-21.3c-1.7.8-7.3 3.1-6.9 5.8z"/>
      <path d="M234 137.7a50.2 50.2 0 0 1 8.8 20.1c1.8 9 13.7 15 15.5 15.3 1.8.3-8.2-9.3-8.9-16.9a56.4 56.4 0 0 0-7.2-21.5c-3.5-1.5-7.7.2-8.2 3z"/>
      <path d="M191.9-2.1c4.5-3.6 7.8-8.1 18.3-8.7 12.1-1 19.8 2.8 24 4.2 2.3.8 4.7 1.5 8.2.7 1.9-.3 1.7 10.7-.8 10.6-9.9-1.1-16.4-10.3-29.7-9.2C203.1-3 201 .8 201 .8"/>
      <path d="M241 3.4c5.6.7 16.5-.8 21.6-2.6a25.8 25.8 0 0 0 13.2-8.9c-.7-3.8-3.6-6.8-6.1-7A19.5 19.5 0 0 1 259-6.6a39.6 39.6 0 0 1-17.5 1.8c-.6 1.7-2.5 6.8-.5 8.2z"/>
      <path d="M274.1-7.5c5.1-5.9 9.4-7.5 14.5-9.7 7.7-2.3 18.3-.8 18.8-2.4.5-1.6-12-6.6-18.8-5.3-9.7 1.9-14.3 6.7-18.7 10.7-.7 3.4 1.7 6.8 4.2 6.7z"/>
      <path d="M200.6-20c3.9-10.8 11.5-14.6 14.4-17.6 1.6-1.6 3.2-3.5 3.8-6.8.5-1.8 9.9 2.8 8.9 4.9-4.8 8.1-16.7 10.6-21 22.6"/>
      <path d="M226.2-39.7c2.8-4.6 3.9-7.5 5.9-12.9 1.9-5.4 3.4-18.5.9-22.6-3.6-.8-7.3.5-8.5 2.6 1.8 2.6 3 10.9.3 17-2.7 6.2-2.9 7.6-5.4 12.3 1.2 1.2 4.8 4.8 6.8 3.6z"/>
      <path d="M232.8-73.5c-3.1-6.8-3-13.7-1.3-17.7 2.8-7.3 10.3-14.3 9.1-15.3-1.2-1-12.7 7.6-15.6 13.5-3 5.9-1.3 15.1.5 20.5 2.6 2 6.4 1.3 7.3-1z"/>
    </g>
    <g>
      <path d="M164.2 61.3c-6.4.8-12.4.2-21 8.2-10.1 9-12.9 18.6-14.9 23.1-1.1 2.4-2.4 5-5.7 7.2-1.7 1.3 7.4 9.6 9.2 7.5 6.7-8.8 4.3-21.1 15.4-31 8-5.9 12.6-4.8 12.6-4.8"/>
      <path d="M131 105.7c-3.7 5-7.7 11-8 17a28.5 28.5 0 0 1-5.4 16.8c-4.3.4-8.4-1.7-9.4-4.3 2.4-2.7 5.3-6.9 5.8-14a46 46 0 0 1 10.1-21.3c1.8.8 7.4 3.1 6.9 5.8z"/>
      <path d="M117.6 137.7a50.2 50.2 0 0 0-8.8 20.1c-1.8 9-13.7 15-15.5 15.3-1.8.3 8.2-9.3 8.9-16.9.7-7.6 3.9-15.8 7.2-21.5 3.5-1.5 7.7.2 8.2 3z"/>
      <path d="M159.7-2.1c-4.5-3.6-7.8-8.1-18.3-8.7-12.1-1-19.8 2.8-24 4.2-2.3.8-4.7 1.5-8.2.7-1.9-.3-1.7 10.7.8 10.6 9.9-1.1 16.4-10.3 29.7-9.2C148.5-3 150.6.7 150.6.7"/>
      <path d="M110.6 3.4A65 65 0 0 1 89 .8C84-1 78.6-3.9 75.8-8.1c.7-3.8 3.6-6.8 6.1-7 1.7 2.8 4.6 6.3 10.7 8.5a39.6 39.6 0 0 0 17.5 1.8c.6 1.7 2.6 6.8.5 8.2z"/>
      <path d="M77.5-7.5c-5.1-5.9-9.4-7.5-14.5-9.7-7.7-2.3-18.3-.8-18.8-2.4-.5-1.6 12-6.6 18.8-5.3 9.7 1.9 14.3 6.7 18.7 10.7.7 3.4-1.6 6.8-4.2 6.7z"/>
      <path d="M151.1-20c-3.9-10.8-11.5-14.6-14.4-17.6a12.1 12.1 0 0 1-3.8-6.8c-.5-1.8-9.9 2.8-8.9 4.9 4.8 8.1 16.7 10.6 21 22.6"/>
      <path d="M125.4-39.7a63.4 63.4 0 0 1-5.9-12.9c-1.9-5.4-3.4-18.5-.9-22.6 3.6-.8 7.3.5 8.5 2.6-1.8 2.6-3 10.9-.3 17 2.7 6.2 2.9 7.6 5.4 12.3-1.1 1.2-4.8 4.8-6.8 3.6z"/>
      <path d="M118.8-73.5c3.1-6.8 3-13.7 1.3-17.7-2.8-7.3-10.3-14.3-9.1-15.3 1.2-1 12.7 7.6 15.6 13.5 3 5.9 1.3 15.1-.5 20.5-2.5 2-6.4 1.3-7.3-1z"/>
    </g>
    <path d="M196.3-106.5c-11.7 10.1-8.6 20.9-16.2 31.4-7.8 11.5-23.7 18.2-24.4 17.1 0-1 11.4-9.8 16.9-18.6 7.7-11.1 8.5-22 19.9-31.8 3.2-2.3 13.5-6.9 3.8 1.9z"/>
    <path d="M159.4-108.4c11.3 9.8 12.1 20.7 19.9 31.8 5.5 8.8 16.9 17.6 16.9 18.6-.7 1-16.6-5.6-24.4-17.1-7.5-10.5-4.5-21.4-16.2-31.4-9.7-8.8.6-4.2 3.8-1.9z"/>
    <path d="M155.7-29.8c-5.4 17-16.7 96.1-16.7 121.1 0 9.8 7.8 65 36.9 65 29.1 0 36.9-54.6 36.9-65 0-24.8-11.4-103.9-16.8-121.1h-40.3z"/>
    <g stroke="none" fill="#000">
      <path d="M158.5 144.4a89 89 0 0 0 8.7 1.7l4.3.5 4.3.2c2.9 0 5.8-.3 8.7-.8 2.9-.5 5.8-1 8.7-1.7l.2.3a32.2 32.2 0 0 1-12.9 4.3 35.5 35.5 0 0 1-13.7-.9 29 29 0 0 1-8.3-3.6z"/>
      <path d="M147.8 123.2a53.3 53.3 0 0 0 28.2 6.9 56.8 56.8 0 0 0 21.4-3.8l3.4-1.4 1.6-.8.8-.4.9-.5.1.4-.3.3-.4.3-.7.6-1.5 1.1a35.4 35.4 0 0 1-10.3 4.7 51 51 0 0 1-30-.1c-4.8-1.7-9.5-4-13.2-7.3z"/>
      <path d="M142 101a49 49 0 0 0 16.4 5.9 100.2 100.2 0 0 0 34.6 0c2.8-.6 5.7-1.2 8.4-2.2l4.1-1.6 2-.9 1-.5 1-.6.1.4-.4.3-.4.4-.9.7-1.9 1.2c-1.3.8-2.6 1.4-4 2.1a49.8 49.8 0 0 1-8.5 2.8 76 76 0 0 1-35.6-.2c-2.9-.8-5.7-1.7-8.5-3a32.4 32.4 0 0 1-7.4-4.8z"/>
      <path d="M140.7 77.3c1.3.9 2.5 1.7 3.9 2.3l2.1.9 2.1.8a54 54 0 0 0 8.8 2.2 108.7 108.7 0 0 0 45-2.2c1.4-.5 2.8-1 4.2-1.7l2-1.1 1-.6.5-.3.5-.4.1.4-.3.4-.4.4-.9.8-1.9 1.3-4.1 2.2a46 46 0 0 1-8.9 2.8 82.3 82.3 0 0 1-18.5 1.8l-4.6-.1-4.6-.3c-3.1-.4-6.2-.8-9.2-1.5l-4.5-1.2a39.8 39.8 0 0 1-8.5-3.9c-1.5-.8-2.8-1.8-3.8-3z"/>
      <path d="M144 51c2.2 1.7 4.8 2.6 7.4 3.4 2.6.8 5.3 1.3 8 1.7l4.1.5 4.1.3 4.1.2h4.1l4.2-.1 4.1-.2 4.1-.3 2-.3 2-.3a54.5 54.5 0 0 0 11.8-3.2l1.8-.9.9-.5.4-.3.2-.2.1-.1.2-.1.1.4v.1l-.1.1-.2.2-.4.4-.8.7-1.7 1.2a44.7 44.7 0 0 1-11.9 4.4 85.1 85.1 0 0 1-33.4 0c-2.8-.5-5.5-1.4-8.1-2.4-2.6-1.3-5.2-2.6-7.1-4.7z"/>
      <path d="M147.5 29.8a235 235 0 0 0 28.4 1.9c2.4 0 4.7 0 7.1-.2l7.1-.4c4.7-.4 9.5-.8 14.2-1.5l.1.4a99.6 99.6 0 0 1-56.9-.2z"/>
      <path d="M147.5.3a235 235 0 0 0 28.4 1.9c2.4 0 4.7 0 7.1-.2l7.1-.4c4.7-.4 9.5-.8 14.2-1.5l.1.4a99.6 99.6 0 0 1-56.9-.2z"/>
    </g>
    <path d="M175.8-33.3c-4.9 0-31 3.1-31-25.7 0-7.6 6.5-13.9 12.5-16.7 8.4-3.9 18.8-4.2 18.8-4.2s10.1.3 18.5 4.2c6 2.8 12.5 9.1 12.5 16.7 0 28.8-26.4 25.7-31.3 25.7z"/>
    <path d="M151.1-13c0-.5-.7-7.1-.7-18.5s11.4-22.7 25.4-22.7 25.4 11.3 25.4 22.7-.7 18-.7 18.5c0 0-8.7-3.9-24.5-3.9S151.1-13 151.1-13z"/>
    <path class="tertiary" d="M213.8-75.6c-6.9-9.3-17.4-9.7-23.3-5.3-7.5 5.6-4.2 14.2 1.9 22.3 5.7 7.7 15.3 10.5 20 6.9 5.9-4.3 6.5-17 1.4-23.9z"/>
    <path class="tertiary" d="M139.5-51.6c4.7 3.5 14.3.7 20-6.9 6-8.1 9.4-16.7 1.9-22.3-5.9-4.4-16.4-4-23.3 5.3-5.2 6.8-4.5 19.5 1.4 23.9z"/>
    <path class="secondary" d="M150.4 67.7a82.9 82.9 0 0 1-24.7 38.7 59 59 0 0 1-34.5 12.2c-5.1-1.2-14.6-16.2-9.8-37.2a176.3 176.3 0 0 1 35.4-69.6c16.4-19.9 28.8-29.4 33.4-35.2 2.2-3.2 6.5-7.4 9.8-6.4 6.5 1.8 4.8 19.8 4.8 19.8s-5.8 45.1-14.4 77.7z"/>
    <path class="secondary" d="M186.7-10.1S185-28 191.5-29.9c3.4-.9 7.6 3.3 9.8 6.4 4.6 5.9 17 15.3 33.4 35.2a176.3 176.3 0 0 1 35.4 69.6c4.8 21-4.7 36-9.8 37.2-2.6.6-20.5-1.3-34.5-12.2a82.9 82.9 0 0 1-24.7-38.7c-8.4-32.5-14.4-77.7-14.4-77.7z"/>
    <g stroke="none" fill="#000">
      <path d="m256.2 109.3-4.7-11.1-4.6-11.1-4.6-11.1-4.5-11.2.4.5-9-6.9-9-6.9-1.7-1.3 2-.8 4.9-2-.7 1.6-5-12.2-4.9-12.3v.1l-4.9-10.1-4.8-10.2-4.8-10.2-4.7-10.2.3-.2 5.3 9.9a314 314 0 0 1 5.2 10l5.2 10 5.1 10 5.1 12.2 5 12.2.5 1.2-1.2.5-4.9 2 .3-2.1 8.9 7 8.9 7 .2.2.1.3 4.2 11.3 4.1 11.3L252 98c1.6 3.7 3 7.5 4.2 11.3z"/>
      <path d="M211 61.7c2.3 1.8 4.4 3.6 6.5 5.5l6.1 5.9-.5-.3 5.4 1.7 5.3 1.8c3.5 1.3 7.1 2.6 10.5 4.2l-.1.4a103 103 0 0 1-16.4-4.1l-5.4-1.7-.3-.1-.2-.2-5.6-6.3a69 69 0 0 1-5.3-6.8z"/>
      <path d="M222.9 74.2a56 56 0 0 1 1.9 6.7l1.3 6.8.8 6.9c.2 2.3.3 4.6.1 7l-.4.1c-.8-2.2-1.3-4.5-1.8-6.7-.5-2.3-.9-4.5-1.2-6.8-.3-2.3-.6-4.6-.7-6.9-.2-2.4-.3-4.7 0-7.1z"/>
      <path d="M221 50.5a38.7 38.7 0 0 1-5.8 8.2 57.8 57.8 0 0 1-7.5 6.6l-.3-.3a58.4 58.4 0 0 1 9.5-11.5c1.3-1.1 2.6-2.1 4.1-3z"/>
      <path d="m266.8 92-4.7-11-4.6-11.1-8.9-22.2.2.3-5.6-6.9-5.6-6.9-11-13.9.8.4-5.6-.3-5.6-.4.5-.2-6.4 5.1-6.5 5-.2-.3 6.1-5.5 6.1-5.5.2-.2h12l.3.4 11.2 13.8 5.6 6.9 5.5 7 .1.2.1.2 8.2 22.5 4 11.3c1.3 3.7 2.7 7.4 3.8 11.3z"/>
      <path d="M249.3 92.3a40 40 0 0 1 8.8-16.2l.3.2c-.3 1.6-.9 3-1.5 4.4l-2 4.1-2.5 3.9c-.9 1.4-1.9 2.6-3.1 3.6z"/>
      <path d="M246.2 47.4a44.3 44.3 0 0 1-10.1 1.9c-1.7.1-3.4.2-5.1.1-1.7 0-3.4-.2-5.1-.5v-.4c1.7-.6 3.3-.9 5-1.2 1.7-.3 3.4-.4 5.1-.5l5.1-.1c1.7.1 3.4.3 5.1.7z"/>
      <path d="m95.4 109.3 4-11.4a376 376 0 0 1 4.1-11.3l4.1-11.3 4.2-11.3.1-.3.2-.2 8.9-7 8.9-7 .3 2.1-4.9-2-1.2-.5.5-1.2 5-12.2 5.1-12.2 5.1-10 5.2-10 5.2-10 5.3-9.9.3.2A463 463 0 0 1 151.1-6l-4.8 10.2-4.8 10.2-4.9 10.1v-.1l-4.9 12.3-5 12.2-.7-1.6 4.9 2 2 .8-1.7 1.3-9 6.9-9 6.9.4-.5-4.2 11.3-4.5 11.2-4.6 11.1-4.9 11z"/>
      <path d="m140.7 61.8-5.3 6.7c-1.8 2.2-3.7 4.3-5.6 6.3l-.2.2-.3.1a112 112 0 0 1-5.4 1.7l-5.4 1.6a103 103 0 0 1-11 2.5l-.1-.4c3.4-1.6 7-2.9 10.5-4.2l5.3-1.8 5.4-1.7-.5.3 6.1-5.9c2.1-1.9 4.2-3.8 6.5-5.4z"/>
      <path d="M128.9 74.3c.2 2.4.1 4.7-.1 7-.1 2.3-.4 4.6-.7 6.9a74.2 74.2 0 0 1-3 13.5l-.4-.1c-.1-2.4 0-4.7.1-7 .2-2.3.4-4.6.8-6.9.4-2.3.7-4.6 1.3-6.8.5-2.2 1.1-4.4 2-6.6z"/>
      <path d="M130.7 50.5c1.5.9 2.8 2 4 3.1 1.3 1.1 2.4 2.3 3.6 3.5a58.4 58.4 0 0 1 5.9 8l-.3.3c-1.5-.9-2.7-2-4-3.1a57.8 57.8 0 0 1-6.6-7.4c-1-1.4-1.9-2.8-2.6-4.4z"/>
      <path d="M84.8 91.9c1.2-3.8 2.6-7.6 3.9-11.3l4-11.3 8.2-22.5.1-.2.1-.2 5.5-7 5.6-6.9 11.2-13.8.3-.4h12l.2.2L142 24l6.1 5.5-.2.3-6.5-5-6.4-5.1.5.2-5.6.4-5.6.3.8-.4-11 13.9-5.6 6.9-5.6 6.9.2-.3a2054.4 2054.4 0 0 1-13.5 33.3c-1.6 3.7-3.1 7.4-4.8 11z"/>
      <path d="M102.3 92.4a37.3 37.3 0 0 1-9-16l.3-.2a41 41 0 0 1 8.7 16.2z"/>
      <path d="M105.4 47.4c1.7-.4 3.4-.5 5.1-.6 1.7-.1 3.4 0 5.1.1l5.1.5c1.7.3 3.4.6 5 1.2v.4c-1.7.3-3.4.5-5.1.5-1.7.1-3.4 0-5.1-.1l-5.1-.6c-1.6-.4-3.3-.8-5-1.4z"/>
    </g>
  </g>
</svg>
