<svg xmlns="http://www.w3.org/2000/svg" fill="#d7374a" stroke="#000" viewBox="50 50 200 200">
  <metadata source="http://wappenwiki.org/images/e/e9/Barfod.svg" license="https://creativecommons.org/licenses/by-nc-sa/3.0"/>
  <g id="foot" stroke-width=".42">
    <path d="M104.49 65.34c0 14.37 4.5 26.54 4.4 32a19.67 19.67 0 0 1-1.97 8.68c-1.72 3.4-6.31 5.77-10.06 7.07-1.44.5-3.56 1.93-4.73 2.9-2.76 2.27-5.11 4.45-7.62 5.47-2.56.83-4.68 1.12-7.25 2.33-1.2.56-4 1.97-5.4 2.45-1.97.64-5.07.05-6.94.05-.71.03-1.23 1.01-1.33 1.14l-.04.08-.7.01c-.18-.01-.9.62-.71.79-.58 3.19-.03 7.43 3.78 7.43 2.69 0 4.55-.2 6.38-.81 1.65-.62 3.28-1.27 4.94-.52 1.54.74 5.23 2.26 9 2.2 5.82-.06 7.86-.94 10.38-2.3 2.23-1.03 6.15-2.24 12.01-2.24 6 0 10.74 2.68 16.02 4.06 3.15.84 6.38.4 8.52-.67 2.2-1.09 4.36-3.34 4.96-5.9.8-3.31-.08-7.13-1.88-10.02-3.13-5.08-5.08-11.55-5.08-19.16 0-7.38 6.41-18.89 6.41-35.06"/>
    <path d="M104.49 65.34c0-1.32 6.86-2.4 15.79-2.4s17.32 1.08 17.32 2.4-8.39 2.39-17.32 2.39-15.8-1.08-15.8-2.4z"/>
    <path fill="none" d="M73.87 127.06c-1.8.62-4.13.67-4.56.6-.52-.08-5.8-.16-6.46-.12"/>
    <path fill="none" d="M69.38 127.65c0 2.03-4.19 1.82-5.37 1.65-.82-.12-.68-.8-1.1-1.79"/>
    <g fill="#000" stroke="none">
      <path d="m82.52 124.57-.1-.01c-.07-.02-.16-.02-.29-.02-.13-.01-.28 0-.45.02l-.26.02-.3.05c-.2.02-.43.07-.67.12-.24.06-.49.11-.74.2-.5.14-1.04.33-1.57.54-1.05.41-2.09.9-2.87 1.24l-.95.4c-.11.04-.21.09-.28.1l-.1.04-.14-.39.1-.03.26-.1.96-.36c.78-.32 1.83-.77 2.9-1.16.54-.2 1.09-.37 1.62-.5a8.97 8.97 0 0 1 1.45-.27 4.1 4.1 0 0 1 1.04.05l.28.06h.11z"/>
      <path d="m126.3 105.2-.03.05-.07.17a4.27 4.27 0 0 0-.13 2.37c.05.22.1.46.19.7.17.48.35 1 .5 1.59.16.57.28 1.19.34 1.85.05.66.03 1.34-.13 2.03a4.73 4.73 0 0 1-.9 1.92 5.6 5.6 0 0 1-1.6 1.37 5.2 5.2 0 0 1-1.94.66 6.61 6.61 0 0 1-2.74-.14 5.52 5.52 0 0 1-.77-.26 5.47 5.47 0 0 1-1.25-.68c-.35-.25-.61-.5-.8-.73-.2-.22-.33-.43-.41-.57l-.12-.23.13.21c.1.13.24.32.45.53a6.06 6.06 0 0 0 2.09 1.25 6.73 6.73 0 0 0 3.37.25 5.16 5.16 0 0 0 1.78-.66 4.99 4.99 0 0 0 1.48-1.27c.4-.52.69-1.12.83-1.76.15-.63.18-1.3.15-1.9-.04-.64-.14-1.24-.27-1.81-.12-.58-.29-1.1-.42-1.6a6 6 0 0 1-.2-1.41c0-.42.05-.8.12-1.1.07-.29.17-.51.24-.65l.08-.17c.02.01.03-.02.03-.02z"/>
      <path d="m130.05 110.3.07.41.18 1.08.13.71c.06.25.1.52.15.79l.1.4.11.42.24.86.25.85.3.8.3.74.31.64a6.05 6.05 0 0 0 .44.75c.04.07.08.12.12.16.09.1.14.19.2.23l.08.07-.1-.06c-.06-.03-.13-.1-.25-.18l-.15-.15a5.99 5.99 0 0 1-.91-1.33 8.82 8.82 0 0 1-.36-.73c-.12-.27-.24-.53-.34-.81l-.28-.86c-.08-.3-.17-.59-.22-.87-.07-.29-.13-.57-.17-.86-.06-.28-.07-.56-.1-.82l-.06-.72-.02-1.1c-.03-.26-.02-.42-.02-.42z"/>
    </g>
  </g>
</svg>
