<svg xmlns="http://www.w3.org/2000/svg" fill="#d7374a" stroke="#000" viewBox="50 50 200 200">
<metadata source="http://wappenwiki.org/images/e/e9/Barfod.svg" license="https://creativecommons.org/licenses/by-nc-sa/3.0"/>
  <g id="foot" stroke-width="3" transform="translate(43 44) scale(0.14)">
		<path  d="M439.2 152.4c0 102.7 32.2 189.6 31.5 228.6-.4 22.6-4.6 43.2-14.1 62-12.3 24.3-45.1 41.2-71.9 50.5-10.3 3.6-25.4 13.8-33.8 20.7-19.7 16.2-36.5 31.8-54.4 39.1-18.3 5.9-33.4 8-51.8 16.6-8.6 4-28.5 14.1-38.6 17.5-14 4.6-36.2.4-49.5.4-5.1.2-8.8 7.2-9.5 8.1-.2.2-.2.4-.3.6-2.4 0-4.2 0-5 .1-1.3-.1-6.5 4.4-5.1 5.6-4.1 22.8-.2 53.1 27 53.1 19.2 0 32.5-1.4 45.6-5.8 11.8-4.4 23.4-9.1 35.3-3.7 11 5.3 37.3 16.1 64.3 15.7 41.5-.4 56.1-6.7 74.1-16.4 15.9-7.4 43.9-16 85.8-16 42.8 0 76.7 19.1 114.4 29 22.5 6 45.6 2.8 60.9-4.8 15.7-7.8 31.1-23.9 35.4-42.2 5.7-23.6-.6-50.9-13.4-71.5-22.4-36.3-36.3-82.5-36.3-136.9 0-52.7 45.8-134.9 45.8-250.4"/>
		<path d="M439.2 152.4c0-9.4 49-17.1 112.8-17.1s123.7 7.7 123.7 17.1-59.9 17.1-123.7 17.1c-63.8 0-112.8-7.7-112.8-17.1z"/>
		<path fill="none" d="M220.5 593.3c-12.9 4.4-29.5 4.8-32.6 4.3-3.7-.6-41.4-1.2-46.1-.9"/>
		<path fill="none" d="M188.4 597.5c0 14.5-29.9 13-38.3 11.8-5.9-.9-4.9-5.7-7.9-12.8"/>
		<g fill="#000" stroke="none">
			<path d="M282.3 575.5s-.3 0-.7-.1c-.5-.1-1.2-.1-2.1-.1-.9-.1-2 0-3.2.1-.6.1-1.3.1-1.9.2l-2.1.3c-1.5.2-3.1.5-4.8.9-1.7.4-3.5.8-5.3 1.4-3.6 1-7.4 2.4-11.2 3.9-7.5 2.9-14.9 6.4-20.5 8.8-2.8 1.2-5.2 2.2-6.8 2.9-.8.3-1.5.6-2 .7-.5.2-.7.3-.7.3l-1-2.8s.2-.1.7-.2c.4-.1 1.1-.4 1.9-.7 1.6-.6 4-1.5 6.8-2.6 5.6-2.3 13.1-5.5 20.8-8.3 3.8-1.4 7.7-2.6 11.5-3.6 3.7-1 7.3-1.6 10.4-1.9 1.5-.1 3-.1 4.2 0 .6 0 1.2.1 1.7.2.5 0 1 .1 1.5.2.9.1 1.6.3 2 .4.5-.1.8 0 .8 0z"/>
			<path d="M595 437.1s-.1.1-.2.4c-.1.3-.3.7-.5 1.2-.4 1.1-.9 2.7-1.3 4.7-.4 2.1-.5 4.7-.3 7.6.1 1.5.3 3 .7 4.6.3 1.6.7 3.3 1.3 5 1.2 3.5 2.5 7.2 3.6 11.4 1.1 4.1 2 8.5 2.4 13.2.4 4.7.2 9.6-.9 14.5a33.8 33.8 0 01-6.4 13.7 40 40 0 01-11.5 9.8c-2.2 1.3-4.5 2.2-6.8 3-2.3.8-4.7 1.4-7 1.7a47.22 47.22 0 01-19.6-1c-2-.5-3.8-1.1-5.5-1.8a39.1 39.1 0 01-8.9-4.9c-2.5-1.8-4.4-3.6-5.8-5.2-1.4-1.6-2.3-3.1-2.9-4.1l-.8-1.6.9 1.5c.7.9 1.7 2.3 3.2 3.8 1.5 1.5 3.5 3.2 6 4.7 2.5 1.6 5.5 3 8.9 4.2a48.06 48.06 0 0024.1 1.8c2.2-.4 4.4-1 6.5-1.8 2.1-.8 4.3-1.7 6.2-2.9 4.1-2.3 7.7-5.4 10.6-9.1 2.9-3.7 4.9-8 5.9-12.6 1.1-4.5 1.3-9.2 1.1-13.6-.3-4.5-1-8.8-1.9-12.9-.9-4.1-2.1-7.8-3-11.4-1-3.7-1.3-7-1.4-10.1 0-3 .3-5.7.8-7.8.5-2.1 1.2-3.7 1.7-4.7.2-.5.5-.9.6-1.2.1.1.2-.1.2-.1z"/>
			<path d="M621.8 473.6s.2 1.1.5 2.9c.3 1.9.8 4.5 1.3 7.7.3 1.6.6 3.3.9 5.1.4 1.8.7 3.7 1.1 5.6.2 1 .4 2 .7 2.9.3 1 .5 2 .8 3 .5 2 1.1 4.1 1.7 6.1l1.8 6.1c.7 1.9 1.4 3.9 2.1 5.7.7 1.8 1.5 3.6 2.2 5.3.8 1.7 1.5 3.2 2.2 4.6a43.24 43.24 0 003.1 5.3c.3.5.6.9.9 1.2.6.7 1 1.3 1.4 1.6.4.3.6.5.6.5s-.2-.1-.7-.4c-.5-.2-1-.7-1.8-1.3l-1.1-1.1c-.4-.4-.8-.9-1.2-1.4-.8-1-1.7-2.2-2.6-3.6-.9-1.4-1.8-2.9-2.7-4.5a63 63 0 01-2.6-5.2c-.8-1.9-1.7-3.8-2.4-5.8s-1.3-4.1-2-6.1c-.6-2.1-1.2-4.2-1.6-6.2-.5-2.1-.9-4.1-1.2-6.2-.4-2-.5-4-.7-5.8-.2-1.8-.3-3.6-.4-5.2-.1-3.2-.2-5.9-.2-7.8-.2-1.9-.1-3-.1-3z"/>
		</g>
	</g>
</svg>