<svg xmlns="http://www.w3.org/2000/svg" fill="#d7374a" stroke="#000" viewBox="50 50 200 200">
  <metadata source="http://wappenwiki.org/images/e/ef/CHA504_Merovingians.svg" license="https://creativecommons.org/licenses/by-nc-sa/3.0"/>
  <g id="frog" stroke-width="2.2" transform="translate(46.8 44.7) scale(0.23)">
    <g>
      <path stroke-width="2.5" stroke-linejoin="round" d="M171.5 176.9a52 52 0 0 1 11.8-9.4 62.6 62.6 0 0 1-2.8-33c.7-4.1 2.5-8.2 4-12 4.4-11.3 16.3-19.7 21.1-30.8 1-2.2 1.7-4.5 2.7-6.7 4.4-9.5 13-17.6 23.5-17.6 10.1 0 19.1 8 23.5 17.6 1 2.2 1.8 4.5 2.7 6.7 4.8 11.1 16.7 19.5 21.1 30.8 1.5 3.9 3.3 7.9 4 12a62.6 62.6 0 0 1-2.8 33c.7.4 10.6 6.9 11.8 9.4 2.9.6 12.4 5.6 27.8 6.2 2 .1 2.8-2 4-3.5a123.7 123.7 0 0 0 5.9-9c1.5-3.2 1.9-6.6 2.6-10 .2-1 .4-2 .8-3 .5-1.4 1.4-2.8 1.9-4.2l1-3.5c1-3.4 3-6.4 4.8-9.4.8-1.3 1.9-3.1 1.3-4.7 0 0-4.5-1.8-5.3-3.6-.4-.7-1.1-2.4-1.3-3.2-.5-2.2-1-4.4-.9-6.6.2-3.2.8-5.6-2.1-7.6-1.8-1.3-3.1-1.7-4-4.1-.9-2.6-.1-6.6 2.8-6.5 2.6.1 3.8 1 5.5 2.9 2.8 3.2 5.4 5.4 8 3.8 3.5-.6 2.2-4.3 1.5-6.6l-.9-3-1-3c-1.4-3.7-1.4-7.4-3.1-10.8-.8-1.8-2.6-3.4-2.7-5.5-.2-4.3 5.9-5.8 9-3.9 1.9 1.2 2.9 3.9 2 6-1.3 3-2.3 4.5.3 7.5 1.2 1.4 2.8 2.6 3.6 4.3.5 1 .7 2.1 1.1 3.2 1.5 4.8 8.2 4.9 7-1-.6-3.1-.5-5.7.1-8.7.4-2 1.2-4.4.5-6.4-.7-1.9-1.5-2.7-.4-4.5a4.7 4.7 0 0 1 2.8-2.2c2.2-.5 5 .7 5.7 2.9a7 7 0 0 1-1 6.4c-2.4 2.9.4 7.1 1.1 10.2.7 3-1.1 8 1.3 10.2.7.7 1.8.8 2.7.6 2.1-.5 3.7-.5 5.4-2.1 1.3-1.3 2.4-3 3.5-4.4 1.2-1.5.4-1.7.9-3.5.9-3 6.8-6.3 8.6-2.1.4.9.3 1.8.2 2.8-.1 1.1-.2 2.2-.7 3.1a5 5 0 0 1-3 2.7c-1.7.6-1.6 1.5-2.3 2.9a50.5 50.5 0 0 1-6.2 10.2c-.9 1-2.2 1.7-3.3 2.6-1 .7-2.6 1.6-3.3 2.6-.5.7-.6 1.8-1 2.7-1.1 2.6-1.4 5.5-2.6 8-1.5 3.3-4.3 5.8-6.2 8.9-2 3.4-2 8-2.7 11.8-.6 3.6-.6 7.4-1.1 11-.8 6.6-1.5 12.9-4.7 18.9-1.4 2.6-2.4 5.2-4.1 7.7-1.8 2.7-3.6 5-4 8.3-.3 2.3-.8 4.6-1.4 6.8-.7 2.4-2.4 4.2-3.6 6.4-.6 1.1-1.1 2.3-2.1 2.9l-1.6.7c-2.7 1.2-4 3.7-6.2 5.5-1 .9-2.4 1.2-3.7 1.8-1.5.7-2.9 1.4-4.5 1.9-12.6 3.7-25.1-5.1-37.4-3.3-.8 5.2 2.7 12.4 4.1 17.4 4.2 14.6 5 35-1.8 49 3.1-3 6.6-5 10.2-7.2 2.5-1.5 5.1-2.6 7.6-3.9 2-1 8.8-4 14.5-3.2 3.2.5 7.1 2.8 9.6 6.3 1.2 1.7 3.2 6.2 3.2 10.2.1 6-1.6 12-3.3 17.7-.9 3.2-2.1 6.3-3.1 9.4-3.3 10.2-4.8 25-4.4 35.8 2.5-2.2 8-14.2 9.5-17.2 1.3-2.5 2.5-5.2 2.1-8-.2-1.6-.9-3.2-.6-4.7.2-1 .8-1.9 1.1-2.9.3-1 .3-2.1.2-3.1-.2-4.1-1.8-8.5-.3-12.5 1.2-3.3 3.8-6.7 7.8-5.8a6 6 0 0 1 4.1 3.6c1 3.1-1.4 4.9-2.7 7.4a9.7 9.7 0 0 0-.7 6.3c.3 1.5.5 4.5 2.6 4.4 1.7 0 2.1-1.6 3.1-2.6 1.1-1.1 2.5-1.9 3.5-3 1.8-2.1 2.5-4.8 3.3-7.3l.7-2.7c1.6-4.2 4.2-7.4 7.3-10.5 2.2-2.2 7.2-6.6 6.6-10.1-.3-1.9.8-3.4 1.4-5 1.5-3.9 6.4-4.4 9.5-2.7.4.2.9.6 1.1 1.1.8 2.1 1.7 3.9.7 6.2-.9 2-4.1 3.6-5.8 4.9-1.8 1.2-2.6 3.7-3.9 5.5-1.6 2.1-3.2 4.2-4.6 6.5-.7 1.1-.7 2.3-1.2 3.4s-1.5 1.4-2.1 2.4c-.7 1.2-.5 2.1-.7 3.5-.4 3-2.1 5.6-2.4 8.6.1-1.4 3.9-4.1 4.9-5 1.6-1.3 3.2-2.8 5-3.7 2.2-1 2.9-1.8 5.1-3.1 1.5-.9 2.4-1.6 4-2.3 1.7-.7 3.4-1.4 4.5-3 1.4-2.1 2.9-4.2 5.7-4.3h1.3c.8.1 1.7.2 2.4.7 3.5 2.8 5.5 5.8 2.2 9.9-1.8 2.2-4.7 1.2-7.2 2a32 32 0 0 0-9.6 5.2l-3.6 2.8a35.7 35.7 0 0 0-5 4.5c-1.2 1.4-4.5 4.9-2.9 6.6 1.4 1.5 5 1.4 6.9 1.4 3.5-.1 10.8-6.3 13.5-2.2 1 1.6 1.3 3.6.8 5.4a6.2 6.2 0 0 1-4.7 3.9c-2.3.3-4.2-1-6.6-.1-1 .4-1.8 1.1-2.9 1.1l-2.6.1c-1 .2-1.5-.4-1.9.6-.9 1.8-2.9 2.7-4.3 4a16 16 0 0 0-4.2 5.1c-.6 1.2-1 2.5-1.7 3.7-.8 1.4-2 2.5-3.2 3.5-1 .9-2.1 1.7-3.3 2.2-1.2.5-2.6.6-3.9.9-2.2.5-10.3 6.5-11.6 8.7-2 3.4-7.6 10.9-8.2 14.8-1.7 2.6-2.6 5.8-3.8 8.8-1.3 3.2-2.5 6.4-4.4 9.3-1.7 2.7-5.9 5-8 7.4-3.7 3.9-8.4 2.9-13.7 6-3.4 2-7.8-2.8-9.1-6.5-1.5-1-1.6-3.4-.7-5 .9-1.6-.7-2.7.3-4.3 1-1.6.3-3.4.7-5.2l2.9-14.6c1.8-8.8 1.4-23.9 1.8-25.6l-3.9 10.4c-2.5 6.6-3.6 11.2-6.7 17.5-1.9 3.8-4.4 6.4-7.2 9.6-1 1.2-2 2.4-3.3 3.1-2 1.1-4.3 1.1-6.6 1.1-2.1 0-4.6-.2-5.9-2-.5-.7-.7-1.5-1.2-2.1-.6-.8-3.9-3.2-7.4-3.2-8.9 0-18.5 12.3-25 12.3-6.5.1-16-12.3-25-12.3-3.5 0-6.8 2.3-7.4 3.2-.5.7-.7 1.5-1.2 2.1-1.3 1.7-3.7 1.9-5.9 2-2.3 0-4.6 0-6.6-1.1a12 12 0 0 1-3.3-3.1c-2.7-3.3-5.3-5.9-7.2-9.6-3.1-6.3-4.3-10.9-6.7-17.5l-3.9-10.4c.3 1.7 0 16.8 1.8 25.6l2.9 14.6c.4 1.8-.3 3.6.7 5.2.9 1.5-.6 2.7.3 4.3.9 1.6.8 4-.7 5-1.3 3.7-5.7 8.4-9.1 6.5-5.4-3.1-10-2.1-13.7-6-2.2-2.3-6.3-4.7-8-7.4-1.8-2.9-3.1-6.1-4.4-9.3-1.2-2.9-2.1-6.1-3.8-8.8-.7-3.9-6.2-11.3-8.2-14.8a37.2 37.2 0 0 0-11.6-8.7c-1.3-.3-2.7-.4-3.9-.9-1.2-.5-2.3-1.3-3.3-2.2-1.2-1-2.4-2.1-3.2-3.5-.7-1.2-1.1-2.5-1.7-3.7-1-2-2.5-3.6-4.2-5.1-1.5-1.3-3.5-2.2-4.3-4-.5-1-.9-.4-1.9-.6-.9-.2-1.7-.1-2.6-.1-1.1-.1-1.9-.8-2.9-1.1-2.4-.9-4.3.4-6.6.1-2-.3-4.1-2-4.7-3.9-.6-1.8-.3-3.8.8-5.4 2.7-4.1 10 2.2 13.5 2.2 1.9 0 5.5.2 6.9-1.4 1.7-1.8-1.7-5.3-2.9-6.6a35.7 35.7 0 0 0-5-4.5l-3.6-2.8a32 32 0 0 0-9.6-5.2c-2.5-.8-5.4.2-7.2-2-3.3-4.1-1.3-7 2.2-9.9a4 4 0 0 1 2.4-.7h1.3c2.8.2 4.3 2.2 5.7 4.3 1.1 1.6 2.7 2.3 4.5 3 1.6.6 2.5 1.4 4 2.3 2.1 1.2 2.8 2 5.1 3.1 1.9.8 3.5 2.3 5 3.7 1.1.9 4.8 3.6 4.9 5-.3-3-2-5.6-2.4-8.6-.2-1.4.1-2.3-.7-3.5-.6-.9-1.6-1.3-2.1-2.4-.5-1.1-.5-2.3-1.2-3.4-1.4-2.2-3-4.4-4.6-6.5-1.3-1.8-2.1-4.3-3.9-5.5-1.8-1.2-4.9-2.8-5.8-4.9-1-2.3-.1-4.1.7-6.2a2 2 0 0 1 1.1-1.1c3.2-1.7 8-1.2 9.5 2.7.6 1.6 1.7 3.1 1.4 5-.5 3.5 4.5 7.9 6.6 10.1 3.1 3.2 5.7 6.3 7.3 10.5l.7 2.7c.8 2.6 1.5 5.3 3.3 7.3 1 1.2 2.4 1.9 3.5 3 1 1.1 1.4 2.6 3.1 2.6 2.1 0 2.3-3 2.6-4.4.4-2.1.3-4.4-.7-6.3-1.3-2.5-3.7-4.3-2.7-7.4a5.7 5.7 0 0 1 4.1-3.6c4-.9 6.6 2.5 7.8 5.8 1.5 3.9-.1 8.3-.3 12.5a8 8 0 0 0 .2 3.1c.3 1 .9 1.9 1.1 2.9.3 1.6-.4 3.1-.6 4.7-.4 2.8.8 5.5 2.1 8 1.6 2.9 7.1 14.9 9.5 17.2.4-10.7-1.1-25.5-4.4-35.8-1-3.2-2.2-6.3-3.1-9.4-1.6-5.7-3.4-11.7-3.3-17.7 0-4 1.9-8.5 3.2-10.2 2.5-3.4 6.4-5.8 9.6-6.3 5.7-.9 12.5 2.2 14.5 3.2 2.5 1.2 5.1 2.3 7.6 3.9 3.7 2.2 7.1 4.3 10.2 7.2-6.8-14-6-34.4-1.8-49 1.4-4.9 4.9-12.2 4.1-17.4-12.3-1.8-24.8 7-37.4 3.3-1.6-.5-3-1.2-4.5-1.9-1.3-.6-2.6-.9-3.7-1.8-2.1-1.9-3.4-4.4-6.2-5.5l-1.6-.7c-1-.7-1.5-1.9-2.1-2.9-1.2-2.2-2.9-3.9-3.6-6.4-.6-2.3-1.1-4.5-1.4-6.8-.4-3.3-2.2-5.6-4-8.3-1.7-2.5-2.7-5.1-4.1-7.7-3.2-5.9-3.9-12.3-4.7-18.9-.5-3.6-.5-7.4-1.1-11-.7-3.8-.7-8.5-2.7-11.8-1.8-3.1-4.6-5.6-6.2-8.9-1.2-2.5-1.5-5.4-2.6-8-.4-.9-.5-1.9-1-2.7-.7-1-2.4-1.8-3.3-2.6-1.1-.8-2.4-1.5-3.3-2.6-2.5-2.9-4.4-6.8-6.2-10.2-.7-1.3-.6-2.3-2.3-2.9a5 5 0 0 1-3-2.7c-.5-1-.6-2.1-.7-3.1-.1-.9-.1-1.9.2-2.8 1.8-4.1 7.7-.8 8.6 2.1.6 1.8-.3 2 .9 3.5 1.1 1.4 2.3 3.1 3.5 4.4 1.7 1.7 3.3 1.6 5.4 2.1.9.2 2 .1 2.7-.6 2.4-2.3.7-7.2 1.3-10.2.7-3 3.4-7.3 1.1-10.2a6.7 6.7 0 0 1-1-6.4c.8-2.2 3.5-3.4 5.7-2.9 1.3.3 2.2 1.1 2.8 2.2 1.1 1.8.3 2.6-.4 4.5-.7 2 .1 4.4.5 6.4.5 3.1.7 5.7.1 8.7-1.2 5.9 5.5 5.8 7 1 .3-1.1.6-2.2 1.1-3.2.8-1.7 2.4-2.9 3.6-4.3 2.6-2.9 1.6-4.4.3-7.5a5 5 0 0 1 2-6c3.1-1.9 9.2-.4 9 3.9-.1 2.1-1.8 3.7-2.7 5.5-1.6 3.4-1.7 7.2-3.1 10.8l-1 3-.9 3c-.7 2.3-2 6 1.5 6.6 2.5 1.6 5.2-.5 8-3.8 1.7-1.9 2.9-2.8 5.5-2.9 2.9-.1 3.7 3.9 2.8 6.5-.8 2.4-2.1 2.8-4 4.1-2.9 2-2.4 4.4-2.1 7.6.2 2.2-.4 4.4-.9 6.6-.2.8-1 2.4-1.3 3.2-.8 1.7-5.3 3.6-5.3 3.6-.6 1.6.5 3.4 1.3 4.7 1.8 3 3.8 6 4.8 9.4a46 46 0 0 0 1 3.5c.5 1.4 1.4 2.8 1.9 4.2.4 1 .6 2 .8 3 .8 3.4 1.1 6.8 2.6 10 .5 1.1 1.2 2.1 1.8 3.1l4.1 5.9c1.1 1.5 1.9 3.6 4 3.5 16.4-.6 25.9-5.6 28.8-6.2z"/>
      <g stroke="none" fill="#000">
        <path d="M248.7 382.5c-.2 1.6-2.3 2.2-3.6 2-1.4-.1-2-.3-3.4.2 0-1.6 2.2-2.4 3.5-2.2 1.3.1 2.1.4 3.5 0zM248 379.6c-1.8 1-4.1 1.5-5.9.1 1.7-1.3 4.3-1.7 5.9-.1zM255.1 347.9c.9 1.5-.6 3.4-1.6 4.3-1.1 1-1.7 1.8-2.5 3.1-.8-1.5 0-3.5 1.2-4.6 1-1.1 2.1-1.3 2.9-2.8zM254.4 356.9c-.3 1.3-.1 2.3-.8 3.5-.6 1.1-1.7 2.1-3.1 2.1.6-1.8 1.2-3 2.2-4.5.4-.5 1-1.1 1.7-1.1zM252 367.6c-.7.4-1 1-1.5 1.6-1.6 1.8-5 2.6-6.8.6 2.2-.3 3.9-1 5.8-1.9.7-.3 1.7-.8 2.5-.3zM251.5 371.6c-1.3 2.7-5.2 3.7-7.7 2a25 25 0 0 1 7.7-2zM233.4 390.3c1.4-1.3 2.1-2.8 4.1-3.2.7-.1 1.6.2 1.9.9-1.4.1-1.5.8-2.4 1.5-1 .7-2.4 1.5-3.6.8zM258.4 370.1c-.6.2-.9.6-1.1 1.1-.3 1-1.2 2.6-2.3 3.1-.6.3-1.3.6-2.1.5l1-1.6c.7-1 1.1-2 2.1-2.9.7-.6 1.9-.9 2.4-.2zM257.9 376c.9 2.7-2.8 5.3-5.3 4.8 1.3-2.2 3.4-3.1 5.3-4.8zM290.9 288.3c-6.4 6.2-15.1 9.9-19.8 17.6-2.3 5.1-6.8 9-9 14.1-1.1 3.1-1.3 6.5-1.9 9.8 0 .3-.5.2-.5-.1l.7-6.7c.6-7 6.8-11.7 9.2-17.9 1-2.1 2.6-3.9 4.1-5.6 2.8-2.9 7.2-6.2 10.4-8.7 1.8-1.4 3.5-2.8 5-4.3 1.3-1.1 3 .6 1.8 1.8zM291.3 311.5c-1.5-1.1-1.6-3.4-1-5 .6-1.8 1.5-3 1.7-4.5.2-1 1.8-.8 1.6.3-.1.8-.4 1.4-.8 2l-1.3 1.6c.1-1.4.5-2.6.3-3.7l1.7.1c.1 3.4-3.1 5.8-2.2 9.2zM299.1 294.1c1 .8 1 2.3.2 3.3s-1.6 1.1-2.9 1.2c-.2-2.1 1.5-3.3 2.7-4.5zM326.4 374.6c-.3 5-2.4 10.1-6.3 13.4 1.5-4.7 3.3-9.3 6.3-13.4zM317.8 394.2c-.6 4.3-3.7 8.2-7.8 9.7 2.2-3.6 4.7-6.8 7.8-9.7zM352.7 136.2c-2.4 1.6-5.5 2-8.3 1.5-1.3-.3-4.1-.7-3.4-2.6.3-.6 1.1-.9 1.7-.6 3.1 1.7 6.4 1.3 9.8 1.2.3 0 .4.4.2.5zM322.5 183.4c-2.1 2.1-2.1 5-2.4 7.7a9.6 9.6 0 0 1-3.3 4.6c-.2.2-.5 0-.4-.3.6-1.7 1.7-3 1.9-4.7 0-1.8-.3-3.7.4-5.5.4-1.3 2-5.1 3.8-3.6.5.4.5 1.3 0 1.8zM348.7 133.1c-4.1 1.7-10.6-2.6-8.5-7.2 1.1 3.9 5 5.7 8.5 7.2zM334.3 212.7l-1.3.3-.1.1c.1 0 .1-.1.1 0-.3.4-.6 1.3-1.1 1.4l-.7.2c-.1-.3 0-.6 0-.8l-.1-.4v-.7c.2-1.8 2.6-2 3.2-.1zM316.6 214.1c2.5 1.9 5 3.4 8.1 3.7 1.1.1 2.2-.1 3.3.1-3.8 4-10.8 1.6-11.4-3.8zM286.5 209.6c.9.7 1.2 1.8 1.4 2.8.6 2.7.4 5.7 1 8.4.3.7-.1 1.5-.8 1.7-3.1.9-1.4-8.1-1.7-9.9 0-1 0-1.9-.3-2.7-.1-.3.2-.5.4-.3zM297.7 351.4c2.5-8.7 4-17.8 7.1-26.4-2.3 8.9-2.9 17.9-4.7 27-.3 1.7-2.9 1.1-2.4-.6zM325.5 353.2c-5.6 8.5-11.4 17-15.5 26.3.8-2.4 1.8-4.8 2.8-7.1 3.2-7 6.8-13.8 10.6-20.5.9-1.5 3.1-.2 2.1 1.3zM214.9 382.5c1.4.4 2.1.1 3.5 0 1.3-.2 3.5.6 3.5 2.2-1.4-.5-2.1-.2-3.4-.2-1.3.2-3.4-.4-3.6-2zM215.6 379.6c1.6-1.7 4.2-1.2 5.9.1-1.8 1.4-4.1 1-5.9-.1zM208.5 347.9c.8 1.4 1.8 1.7 3 2.8 1.2 1.1 1.9 3.1 1.2 4.6a13 13 0 0 0-2.5-3.1c-1.1-.9-2.6-2.8-1.7-4.3zM209.2 356.9c.7 0 1.3.6 1.7 1.1 1 1.5 1.6 2.7 2.2 4.5-1.4-.1-2.5-1-3.1-2.1-.7-1.2-.5-2.2-.8-3.5zM211.6 367.6c.7-.4 1.8 0 2.4.3 2 .9 3.6 1.6 5.8 1.9-1.8 2-5.1 1.2-6.8-.6-.4-.6-.6-1.2-1.4-1.6zM212.1 371.6c2.8.3 5.2.9 7.7 2-2.5 1.7-6.4.7-7.7-2zM230.2 390.3c-1.2.6-2.7-.1-3.6-.8-1-.7-1.1-1.3-2.4-1.5.3-.7 1.1-1.1 1.9-.9 2 .4 2.7 1.9 4.1 3.2zM205.2 370.1c.5-.7 1.7-.4 2.3.1 1 1 1.4 1.9 2.1 2.9l1 1.6a3 3 0 0 1-2.1-.5c-1.1-.5-2-2.1-2.3-3.1-.1-.4-.4-.8-1-1zM205.7 376c1.9 1.7 3.9 2.6 5.3 4.8-2.5.5-6.1-2-5.3-4.8zM174.4 286.5c6.3 6.1 15.3 10.6 19.5 18.6 2 5.1 6.6 9.1 8.5 14.5 1 3.2 1 6.7 1.4 10.1 0 .3-.4.4-.5.1-.7-3.3-.8-6.6-1.9-9.8-1.3-3.1-3.4-5.6-5.4-8.3-2.5-3-3.6-6.9-6.5-9.6-5.1-5.2-11.5-8.7-16.9-13.7-1.1-1.2.6-3.1 1.8-1.9zM172.3 311.5c.9-3.4-2.4-5.8-2.4-9.1l1.7-.1c-.4 1.3 1.4 5.8-.9 2.1-.4-.6-.6-1.3-.8-2-.1-1 1.4-1.3 1.6-.3.3 1.4 1.2 2.7 1.7 4.5.7 1.5.6 3.8-.9 4.9zM164.5 294.1c1.2 1.2 2.9 2.4 2.6 4.5-1.3-.1-2-.2-2.9-1.2-.7-1-.8-2.5.3-3.3zM137.3 374.6c2.9 4.1 4.8 8.7 6.3 13.4-3.9-3.3-6-8.4-6.3-13.4zM145.9 394.2c3.1 2.9 5.6 6.1 7.8 9.7a12.4 12.4 0 0 1-7.8-9.7zM196 126.7l-.7-3.2c-.7-3 .8-7.3 3.5-8.9 2.2-1.3 5-2.2 7.6-2.3-1.4-.2-2.5 1.1-3.7 2a17.9 17.9 0 0 0-6.7 12.4zM111.1 135.7c3.5.2 6.7.5 9.9-1.2 1.5-.7 2.6 1.5 1.1 2.2a12 12 0 0 1-11.1-.6c-.3 0-.2-.4.1-.4zM142.9 181.7c2.4 2.4 2.6 5.9 2.4 9.1.3 1.7 1.4 3 1.9 4.7 0 .1 0 .3-.2.3l-.3-.1c-.9-.8-1.7-1.7-2.4-2.8-.7-1.1-1-2.5-1-3.8a8.7 8.7 0 0 0-2.2-5.8c-1.1-1.2.7-2.8 1.8-1.6zM114.9 133.1c3.6-1.5 7.4-3.2 8.5-7.2 2.1 4.5-4.4 8.9-8.5 7.2zM129.3 212.7c.5-2 3-1.8 3.3.2v.7l-.1.4c0 .2.1.5 0 .8l-.7-.2c-.5-.1-.9-1-1.1-1.4 0-.1 0 0 .1 0l-.1-.1-1.4-.4zM147 214.1c-.6 5.4-7.6 7.8-11.4 3.8 1.1-.3 2.2 0 3.3-.1 3.1-.2 5.5-1.8 8.1-3.7zM177.5 209.9c-.5 2.7-.1 5.6-.1 8.4-.1 1.3.3 4.5-1.9 4.1-.6-.2-1-.9-.8-1.5.6-2.7.5-5.7 1-8.5.2-1 .5-2.1 1.4-2.8.3-.2.5.1.4.3zM163.5 352c-1.8-9-2.4-18.1-4.7-27 3.1 8.6 4.6 17.7 7.1 26.4.5 1.7-2.1 2.3-2.4.6zM140.2 351.8c4.9 9 10 18 13.4 27.7-2-4.7-4.6-9.1-7.2-13.5-2.7-4.4-5.4-8.7-8.3-12.9-.9-1.4 1.2-2.7 2.1-1.3z"/>
      </g>
    </g>
    <g stroke="none" fill="#000">
      <path d="m227 343.9 4.8-.1c1.5 0 3.2-.1 4.8.1-2.1 3.3-7.5 3.3-9.6 0zM225.1 325.4c4.6.5 8.7.5 13.3 0-3.2 3.9-10 3.9-13.3 0zM224.2 304.4a19.2 19.2 0 0 0 15.2 0c-3.3 5.5-11.9 5.4-15.2 0zM224.2 284.4a19.2 19.2 0 0 0 15.2 0c-3.3 5.5-11.9 5.4-15.2 0zM224.3 264.4c3.7 1.2 7.2 2.2 11.1 1.1l3.9-1.1a9 9 0 0 1-15 0zM224.3 244.7c3.7 1.2 7.2 2.2 11.1 1.1l3.9-1.1c-3.3 5.5-11.7 5.4-15 0zM224.3 225.1c3.7 1.2 7.2 2.2 11.1 1.1l3.9-1.1a9 9 0 0 1-15 0zM224.3 206.4c2.1.2 5.4.6 7.5.6 2.1 0 5.3-.4 7.5-.6a10.7 10.7 0 0 1-15 0zM224.3 186.7c2.1.2 5.4.6 7.5.6 2.1 0 5.3-.4 7.5-.6a10.7 10.7 0 0 1-15 0zM225 167.1c4.7.5 8.9.5 13.7 0-3.4 4-10.4 4-13.7 0zM225 149.2c4.7.5 8.9.5 13.7 0-3.4 3.9-10.4 3.9-13.7 0zM217.8 86.1c1.4.6 2.3-.7 2.9-1.8.5-.9 1.4-2.4 1.3-3.3l-.1-.1c0-.1.1.1.2 0h.1l-.6.2c-1.4 1-2.9 2.1-4.1 3.3 0-.8.4-1.5.7-2.2.9-1.9 3.5-5.2 5.6-2.9 1.7 2.2-.2 4.8-1.7 6.3-.9 1.1-3.3 2.2-4.3.5z"/>
    </g>
    <path fill="#F6F6F6" stroke-linejoin="round" d="M201.1 137.5c5.1 2.9 11.2 1.4 14.8-1 10-6.7 9.6-28.6-2.1-30.4-8.2-1.2-13.4 3.7-16.4 8.1-3.9 5.5-5 16.9 3.7 23.3z"/>
    <path stroke-linejoin="round" d="M213.7 106c11.8 1.8 12.1 23.7 2.1 30.4-3.6 2.4-9.7 3.9-14.8 1-.3-6.2 1.8-15 5.7-19.7 2.6-3 7-7.9 7-11.7z"/>
    <g stroke="none" fill="#000">
      <path d="M199 151c-.6 2.7-2 5-.9 7.6.9 2.8 1.6 5.6 1.6 8.6-1.8-2.4-3-5.1-3.9-7.9-.2-.7-.5-1.6-.4-2.5.1-2.4 1.7-4.4 3.6-5.8zM219.8 93.8c1.7 2.5.1 6.1-2.6 7.2-.3-2.8.9-5 2.6-7.2zM198.8 124.1v-1.8l.1-1.8c.1-1 .1-2 .5-3 .8-1.8 1.5-3.6 3-4.9.6-.6 3.5-2.4 4-1 .4 1-1.1 2.1-1.7 2.7-1.7 1.8-3 4-3.9 6.3-.4 1.3-.9 2.7-2 3.5zM245.7 86.1c-1 1.7-3.4.6-4.4-.5-1.5-1.5-3.3-4.1-1.7-6.3 2.1-2.3 4.8 1 5.6 2.9.3.6.8 1.4.7 2.2a42.3 42.3 0 0 0-4.1-3.3c-.2-.2-.5-.2-.6-.2h.1c.1 0 .2-.1.2 0l-.1.1c-.1.9.8 2.4 1.3 3.3.7 1.1 1.6 2.4 3 1.8z"/>
    </g>
    <path fill="#F6F6F6" stroke-linejoin="round" d="M262.4 137.5c-5.1 2.9-11.2 1.4-14.8-1-10-6.7-9.6-28.6 2.1-30.4 8.2-1.2 13.4 3.7 16.4 8.1 3.9 5.5 5 16.9-3.7 23.3z"/>
    <path stroke-linejoin="round" d="M249.8 106c-11.8 1.8-12.1 23.7-2.1 30.4 3.6 2.4 9.7 3.9 14.8 1 .3-6.2-1.8-15-5.7-19.7-2.6-3-7-7.9-7-11.7z"/>
    <g stroke="none" fill="#000">
      <path d="M264.5 151a8.7 8.7 0 0 1 3.7 5.9c0 1-.2 1.8-.4 2.5-1 2.8-2.1 5.5-3.9 7.9 0-3 .7-5.8 1.6-8.6 1-2.7-.3-5-1-7.7zM243.7 93.8c1.7 2.2 2.9 4.4 2.6 7.2-2.7-1.1-4.3-4.6-2.6-7.2zM264.7 124.1v-1.8l-.1-1.8c-.1-1-.1-2-.5-3-.8-1.8-1.5-3.6-3-4.9-.6-.6-3.5-2.4-4-1-.4 1 1.1 2.1 1.7 2.7 1.7 1.8 3 4 3.9 6.3.5 1.3.9 2.7 2 3.5z"/>
    </g>
  </g>
</svg>
