<svg xmlns="http://www.w3.org/2000/svg" fill="#d7374a" stroke="#000" viewBox="50 50 400 400">
  <metadata source="http://wappenwiki.org" license="https://creativecommons.org/licenses/by-nc-sa/3.0"/>
  <g id="garb" stroke-width=".57">
    <path d="M123.42 133.5c.03-1.79-3.19-3.24-5.02-15.27.46-2.28.91-3.42 2.28-7.3.68-2.05 3.42-6.6 4.56-8.43.46-36.67-52.5-37.02-51.98-.91 0 1.14.9.23 1.82.91.68.91 3.65 5.7 4.79 8.2a42.06 42.06 0 0 1 2.05 7.53c.4 2.93-.75 10.24-4.79 14.37-1.48 2.99 6.42 3.63 8.9 4.33 4.33 1.37 13.9.23 15.04.23.91-.23 9.35.68 13.68-.46 2.76-.8 7.3-.45 8.67-3.2z"/>
    <g>
      <path d="m100.84 69.21 2.06 6.84 2.73-6.61c.23-4.1-2.05-7.07-2.05-7.07s-2.5 2.74-2.74 6.84z"/>
      <path d="M100.11 75.64c-2.44-4.13-1.09-7.8-1.09-7.8s3.65 1.6 5.47 5.7"/>
      <path d="M103.9 77.88c.09-.14 2.05-2.1 2.14-2.26 2.28-3.7 1.42-7.32 1.42-7.32s-4.59 1.25-6.62 7.05"/>
      <path d="M99.7 81.3c-2.5-3.65-1.36-7.07-1.36-7.07s3.87 1.14 5.92 5.01"/>
      <path d="M102.44 83.8c3.12-.61 5.72-5.4 5.24-9.12-4.94 1.87-7.43 4.95-7.3 7.76"/>
      <path d="M102.44 87c-.68 0-2.05-.92-2.96-2.28-1.6-2.28-1.37-4.1-1.37-4.1s2.8.52 4.44 2.84"/>
      <path d="M102.21 87c1.3.04 2.56-.87 3.42-1.83 1.12-1.23 1.6-4.1 1.6-4.1s-2.74.45-4.33 2.05c-.62.46-2.33 3.74-.69 3.88z"/>
    </g>
    <g transform="rotate(18.232 86.4618 127.0716)">
      <path d="m100.84 69.21 2.06 6.84 2.73-6.61c.23-4.1-2.05-7.07-2.05-7.07s-2.5 2.74-2.74 6.84z"/>
      <path d="M100.11 75.64c-2.44-4.13-1.09-7.8-1.09-7.8s3.65 1.6 5.47 5.7"/>
      <path d="M103.9 77.88c.09-.14 2.05-2.1 2.14-2.26 2.28-3.7 1.42-7.32 1.42-7.32s-4.59 1.25-6.62 7.05"/>
      <path d="M99.7 81.3c-2.5-3.65-1.36-7.07-1.36-7.07s3.87 1.14 5.92 5.01"/>
      <path d="M102.44 83.8c3.12-.61 5.72-5.4 5.24-9.12-4.94 1.87-7.43 4.95-7.3 7.76"/>
      <path d="M102.44 87c-.68 0-2.05-.92-2.96-2.28-1.6-2.28-1.37-4.1-1.37-4.1s2.8.52 4.44 2.84"/>
      <path d="M102.21 87c1.3.04 2.56-.87 3.42-1.83 1.12-1.23 1.6-4.1 1.6-4.1s-2.74.45-4.33 2.05c-.62.46-2.33 3.74-.69 3.88z"/>
    </g>
    <g transform="rotate(34.283 80.9464 123.5968)">
      <path d="m100.84 69.21 2.06 6.84 2.73-6.61c.23-4.1-2.05-7.07-2.05-7.07s-2.5 2.74-2.74 6.84z"/>
      <path d="M100.11 75.64c-2.44-4.13-1.09-7.8-1.09-7.8s3.65 1.6 5.47 5.7"/>
      <path d="M103.9 77.88c.09-.14 2.05-2.1 2.14-2.26 2.28-3.7 1.42-7.32 1.42-7.32s-4.59 1.25-6.62 7.05"/>
      <path d="M99.7 81.3c-2.5-3.65-1.36-7.07-1.36-7.07s3.87 1.14 5.92 5.01"/>
      <path d="M102.44 83.8c3.12-.61 5.72-5.4 5.24-9.12-4.94 1.87-7.43 4.95-7.3 7.76"/>
      <path d="M102.44 87c-.68 0-2.05-.92-2.96-2.28-1.6-2.28-1.37-4.1-1.37-4.1s2.8.52 4.44 2.84"/>
      <path d="M102.21 87c1.3.04 2.56-.87 3.42-1.83 1.12-1.23 1.6-4.1 1.6-4.1s-2.74.45-4.33 2.05c-.62.46-2.33 3.74-.69 3.88z"/>
    </g>
    <g transform="rotate(24.191 82.9095 130.243)">
      <path d="m100.84 69.21 2.06 6.84 2.73-6.61c.23-4.1-2.05-7.07-2.05-7.07s-2.5 2.74-2.74 6.84z"/>
      <path d="M100.11 75.64c-2.44-4.13-1.09-7.8-1.09-7.8s3.65 1.6 5.47 5.7"/>
      <path d="M103.9 77.88c.09-.14 2.05-2.1 2.14-2.26 2.28-3.7 1.42-7.32 1.42-7.32s-4.59 1.25-6.62 7.05"/>
      <path d="M99.7 81.3c-2.5-3.65-1.36-7.07-1.36-7.07s3.87 1.14 5.92 5.01"/>
      <path d="M102.44 83.8c3.12-.61 5.72-5.4 5.24-9.12-4.94 1.87-7.43 4.95-7.3 7.76"/>
      <path d="M102.44 87c-.68 0-2.05-.92-2.96-2.28-1.6-2.28-1.37-4.1-1.37-4.1s2.8.52 4.44 2.84"/>
      <path d="M102.21 87c1.3.04 2.56-.87 3.42-1.83 1.12-1.23 1.6-4.1 1.6-4.1s-2.74.45-4.33 2.05c-.62.46-2.33 3.74-.69 3.88z"/>
    </g>
    <g transform="rotate(8.4722 88.5001 133.1911)">
      <path d="m100.84 69.21 2.06 6.84 2.73-6.61c.23-4.1-2.05-7.07-2.05-7.07s-2.5 2.74-2.74 6.84z"/>
      <path d="M100.11 75.64c-2.44-4.13-1.09-7.8-1.09-7.8s3.65 1.6 5.47 5.7"/>
      <path d="M103.9 77.88c.09-.14 2.05-2.1 2.14-2.26 2.28-3.7 1.42-7.32 1.42-7.32s-4.59 1.25-6.62 7.05"/>
      <path d="M99.7 81.3c-2.5-3.65-1.36-7.07-1.36-7.07s3.87 1.14 5.92 5.01"/>
      <path d="M102.44 83.8c3.12-.61 5.72-5.4 5.24-9.12-4.94 1.87-7.43 4.95-7.3 7.76"/>
      <path d="M102.44 87c-.68 0-2.05-.92-2.96-2.28-1.6-2.28-1.37-4.1-1.37-4.1s2.8.52 4.44 2.84"/>
      <path d="M102.21 87c1.3.04 2.56-.87 3.42-1.83 1.12-1.23 1.6-4.1 1.6-4.1s-2.74.45-4.33 2.05c-.62.46-2.33 3.74-.69 3.88z"/>
    </g>
    <g transform="rotate(-41.162 116.0926 124.3287)">
      <path d="m100.84 69.21 2.06 6.84 2.73-6.61c.23-4.1-2.05-7.07-2.05-7.07s-2.5 2.74-2.74 6.84z"/>
      <path d="M100.11 75.64c-2.44-4.13-1.09-7.8-1.09-7.8s3.65 1.6 5.47 5.7"/>
      <path d="M103.9 77.88c.09-.14 2.05-2.1 2.14-2.26 2.28-3.7 1.42-7.32 1.42-7.32s-4.59 1.25-6.62 7.05"/>
      <path d="M99.7 81.3c-2.5-3.65-1.36-7.07-1.36-7.07s3.87 1.14 5.92 5.01"/>
      <path d="M102.44 83.8c3.12-.61 5.72-5.4 5.24-9.12-4.94 1.87-7.43 4.95-7.3 7.76"/>
      <path d="M102.44 87c-.68 0-2.05-.92-2.96-2.28-1.6-2.28-1.37-4.1-1.37-4.1s2.8.52 4.44 2.84"/>
      <path d="M102.21 87c1.3.04 2.56-.87 3.42-1.83 1.12-1.23 1.6-4.1 1.6-4.1s-2.74.45-4.33 2.05c-.62.46-2.33 3.74-.69 3.88z"/>
    </g>
    <g transform="rotate(-23.857 109.9982 129.0643)">
      <path d="m100.84 69.21 2.06 6.84 2.73-6.61c.23-4.1-2.05-7.07-2.05-7.07s-2.5 2.74-2.74 6.84z"/>
      <path d="M100.11 75.64c-2.44-4.13-1.09-7.8-1.09-7.8s3.65 1.6 5.47 5.7"/>
      <path d="M103.9 77.88c.09-.14 2.05-2.1 2.14-2.26 2.28-3.7 1.42-7.32 1.42-7.32s-4.59 1.25-6.62 7.05"/>
      <path d="M99.7 81.3c-2.5-3.65-1.36-7.07-1.36-7.07s3.87 1.14 5.92 5.01"/>
      <path d="M102.44 83.8c3.12-.61 5.72-5.4 5.24-9.12-4.94 1.87-7.43 4.95-7.3 7.76"/>
      <path d="M102.44 87c-.68 0-2.05-.92-2.96-2.28-1.6-2.28-1.37-4.1-1.37-4.1s2.8.52 4.44 2.84"/>
      <path d="M102.21 87c1.3.04 2.56-.87 3.42-1.83 1.12-1.23 1.6-4.1 1.6-4.1s-2.74.45-4.33 2.05c-.62.46-2.33 3.74-.69 3.88z"/>
    </g>
    <g transform="rotate(-31.078 113.6462 129.6844)">
      <path d="m100.84 69.21 2.06 6.84 2.73-6.61c.23-4.1-2.05-7.07-2.05-7.07s-2.5 2.74-2.74 6.84z"/>
      <path d="M100.11 75.64c-2.44-4.13-1.09-7.8-1.09-7.8s3.65 1.6 5.47 5.7"/>
      <path d="M103.9 77.88c.09-.14 2.05-2.1 2.14-2.26 2.28-3.7 1.42-7.32 1.42-7.32s-4.59 1.25-6.62 7.05"/>
      <path d="M99.7 81.3c-2.5-3.65-1.36-7.07-1.36-7.07s3.87 1.14 5.92 5.01"/>
      <path d="M102.44 83.8c3.12-.61 5.72-5.4 5.24-9.12-4.94 1.87-7.43 4.95-7.3 7.76"/>
      <path d="M102.44 87c-.68 0-2.05-.92-2.96-2.28-1.6-2.28-1.37-4.1-1.37-4.1s2.8.52 4.44 2.84"/>
      <path d="M102.21 87c1.3.04 2.56-.87 3.42-1.83 1.12-1.23 1.6-4.1 1.6-4.1s-2.74.45-4.33 2.05c-.62.46-2.33 3.74-.69 3.88z"/>
    </g>
    <g transform="rotate(-10.912 103.3041 106.8183)">
      <path d="m100.84 69.21 2.06 6.84 2.73-6.61c.23-4.1-2.05-7.07-2.05-7.07s-2.5 2.74-2.74 6.84z"/>
      <path d="M100.11 75.64c-2.44-4.13-1.09-7.8-1.09-7.8s3.65 1.6 5.47 5.7"/>
      <path d="M103.9 77.88c.09-.14 2.05-2.1 2.14-2.26 2.28-3.7 1.42-7.32 1.42-7.32s-4.59 1.25-6.62 7.05"/>
      <path d="M99.7 81.3c-2.5-3.65-1.36-7.07-1.36-7.07s3.87 1.14 5.92 5.01"/>
      <path d="M102.44 83.8c3.12-.61 5.72-5.4 5.24-9.12-4.94 1.87-7.43 4.95-7.3 7.76"/>
      <path d="M102.44 87c-.68 0-2.05-.92-2.96-2.28-1.6-2.28-1.37-4.1-1.37-4.1s2.8.52 4.44 2.84"/>
      <path d="M102.21 87c1.3.04 2.56-.87 3.42-1.83 1.12-1.23 1.6-4.1 1.6-4.1s-2.74.45-4.33 2.05c-.62.46-2.33 3.74-.69 3.88z"/>
    </g>
    <g transform="rotate(-14.721 110.6913 132.3794)">
      <path d="m100.84 69.21 2.06 6.84 2.73-6.61c.23-4.1-2.05-7.07-2.05-7.07s-2.5 2.74-2.74 6.84z"/>
      <path d="M100.11 75.64c-2.44-4.13-1.09-7.8-1.09-7.8s3.65 1.6 5.47 5.7"/>
      <path d="M103.9 77.88c.09-.14 2.05-2.1 2.14-2.26 2.28-3.7 1.42-7.32 1.42-7.32s-4.59 1.25-6.62 7.05"/>
      <path d="M99.7 81.3c-2.5-3.65-1.36-7.07-1.36-7.07s3.87 1.14 5.92 5.01"/>
      <path d="M102.44 83.8c3.12-.61 5.72-5.4 5.24-9.12-4.94 1.87-7.43 4.95-7.3 7.76"/>
      <path d="M102.44 87c-.68 0-2.05-.92-2.96-2.28-1.6-2.28-1.37-4.1-1.37-4.1s2.8.52 4.44 2.84"/>
      <path d="M102.21 87c1.3.04 2.56-.87 3.42-1.83 1.12-1.23 1.6-4.1 1.6-4.1s-2.74.45-4.33 2.05c-.62.46-2.33 3.74-.69 3.88z"/>
    </g>
    <g transform="rotate(-23.405 135.8557 132.2791)">
      <path d="m100.84 69.21 2.06 6.84 2.73-6.61c.23-4.1-2.05-7.07-2.05-7.07s-2.5 2.74-2.74 6.84z"/>
      <path d="M100.11 75.64c-2.44-4.13-1.09-7.8-1.09-7.8s3.65 1.6 5.47 5.7"/>
      <path d="M103.9 77.88c.09-.14 2.05-2.1 2.14-2.26 2.28-3.7 1.42-7.32 1.42-7.32s-4.59 1.25-6.62 7.05"/>
      <path d="M99.7 81.3c-2.5-3.65-1.36-7.07-1.36-7.07s3.87 1.14 5.92 5.01"/>
      <path d="M102.44 83.8c3.12-.61 5.72-5.4 5.24-9.12-4.94 1.87-7.43 4.95-7.3 7.76"/>
      <path d="M102.44 87c-.68 0-2.05-.92-2.96-2.28-1.6-2.28-1.37-4.1-1.37-4.1s2.8.52 4.44 2.84"/>
      <path d="M102.21 87c1.3.04 2.56-.87 3.42-1.83 1.12-1.23 1.6-4.1 1.6-4.1s-2.74.45-4.33 2.05c-.62.46-2.33 3.74-.69 3.88z"/>
    </g>
    <g transform="rotate(19.413 56.4041 124.7004)">
      <path d="m100.84 69.21 2.06 6.84 2.73-6.61c.23-4.1-2.05-7.07-2.05-7.07s-2.5 2.74-2.74 6.84z"/>
      <path d="M100.11 75.64c-2.44-4.13-1.09-7.8-1.09-7.8s3.65 1.6 5.47 5.7"/>
      <path d="M103.9 77.88c.09-.14 2.05-2.1 2.14-2.26 2.28-3.7 1.42-7.32 1.42-7.32s-4.59 1.25-6.62 7.05"/>
      <path d="M99.7 81.3c-2.5-3.65-1.36-7.07-1.36-7.07s3.87 1.14 5.92 5.01"/>
      <path d="M102.44 83.8c3.12-.61 5.72-5.4 5.24-9.12-4.94 1.87-7.43 4.95-7.3 7.76"/>
      <path d="M102.44 87c-.68 0-2.05-.92-2.96-2.28-1.6-2.28-1.37-4.1-1.37-4.1s2.8.52 4.44 2.84"/>
      <path d="M102.21 87c1.3.04 2.56-.87 3.42-1.83 1.12-1.23 1.6-4.1 1.6-4.1s-2.74.45-4.33 2.05c-.62.46-2.33 3.74-.69 3.88z"/>
    </g>
    <g transform="rotate(5.5638 -55.5663 126.5449)">
      <path d="m100.84 69.21 2.06 6.84 2.73-6.61c.23-4.1-2.05-7.07-2.05-7.07s-2.5 2.74-2.74 6.84z"/>
      <path d="M100.11 75.64c-2.44-4.13-1.09-7.8-1.09-7.8s3.65 1.6 5.47 5.7"/>
      <path d="M103.9 77.88c.09-.14 2.05-2.1 2.14-2.26 2.28-3.7 1.42-7.32 1.42-7.32s-4.59 1.25-6.62 7.05"/>
      <path d="M99.7 81.3c-2.5-3.65-1.36-7.07-1.36-7.07s3.87 1.14 5.92 5.01"/>
      <path d="M102.44 83.8c3.12-.61 5.72-5.4 5.24-9.12-4.94 1.87-7.43 4.95-7.3 7.76"/>
      <path d="M102.44 87c-.68 0-2.05-.92-2.96-2.28-1.6-2.28-1.37-4.1-1.37-4.1s2.8.52 4.44 2.84"/>
      <path d="M102.21 87c1.3.04 2.56-.87 3.42-1.83 1.12-1.23 1.6-4.1 1.6-4.1s-2.74.45-4.33 2.05c-.62.46-2.33 3.74-.69 3.88z"/>
    </g>
    <g transform="rotate(-8.2048 219.4496 155.8794)">
      <path d="m100.84 69.21 2.06 6.84 2.73-6.61c.23-4.1-2.05-7.07-2.05-7.07s-2.5 2.74-2.74 6.84z"/>
      <path d="M100.11 75.64c-2.44-4.13-1.09-7.8-1.09-7.8s3.65 1.6 5.47 5.7"/>
      <path d="M103.9 77.88c.09-.14 2.05-2.1 2.14-2.26 2.28-3.7 1.42-7.32 1.42-7.32s-4.59 1.25-6.62 7.05"/>
      <path d="M99.7 81.3c-2.5-3.65-1.36-7.07-1.36-7.07s3.87 1.14 5.92 5.01"/>
      <path d="M102.44 83.8c3.12-.61 5.72-5.4 5.24-9.12-4.94 1.87-7.43 4.95-7.3 7.76"/>
      <path d="M102.44 87c-.68 0-2.05-.92-2.96-2.28-1.6-2.28-1.37-4.1-1.37-4.1s2.8.52 4.44 2.84"/>
      <path d="M102.21 87c1.3.04 2.56-.87 3.42-1.83 1.12-1.23 1.6-4.1 1.6-4.1s-2.74.45-4.33 2.05c-.62.46-2.33 3.74-.69 3.88z"/>
    </g>
    <g transform="rotate(-2.2161 479.5292 158.1343)">
      <path d="m100.84 69.21 2.06 6.84 2.73-6.61c.23-4.1-2.05-7.07-2.05-7.07s-2.5 2.74-2.74 6.84z"/>
      <path d="M100.11 75.64c-2.44-4.13-1.09-7.8-1.09-7.8s3.65 1.6 5.47 5.7"/>
      <path d="M103.9 77.88c.09-.14 2.05-2.1 2.14-2.26 2.28-3.7 1.42-7.32 1.42-7.32s-4.59 1.25-6.62 7.05"/>
      <path d="M99.7 81.3c-2.5-3.65-1.36-7.07-1.36-7.07s3.87 1.14 5.92 5.01"/>
      <path d="M102.44 83.8c3.12-.61 5.72-5.4 5.24-9.12-4.94 1.87-7.43 4.95-7.3 7.76"/>
      <path d="M102.44 87c-.68 0-2.05-.92-2.96-2.28-1.6-2.28-1.37-4.1-1.37-4.1s2.8.52 4.44 2.84"/>
      <path d="M102.21 87c1.3.04 2.56-.87 3.42-1.83 1.12-1.23 1.6-4.1 1.6-4.1s-2.74.45-4.33 2.05c-.62.46-2.33 3.74-.69 3.88z"/>
    </g>
    <path stroke="none" d="M79.22 106.86s-1.18-1.8-.5-2.26l.67-.45 1.3-.12s2.6.97 3 .4l.4-.57c1.75-1.38 3.05-1.2 3.68-1.01a5.1 5.1 0 0 0 2.67.8s.53-.85 1.48-.6l1.34.35s1.28-.07 2.53-.07c.79 0 1.12-.42 1.8-.4.4.01 1.17-2.78 1.17-2.78l4 1.33 2.05-.44 2.86-.08 1.02 1.08 2.8-.1 1.52 1.55c.84.79 3.65.78 4.7.38.25-.1 1.43-.86 1.39-.31-.11 1.29 2.97 2.83 2.68 3.04-.56.42-5.29-1.11-4.9-1.52l-5.07.59-2.51-2.67-12.33.87-3.04 1.18-4.49-.5-5.7.46Z"/>
    <path fill="#000" stroke="none" d="M92.18 107.29c.82 1.6 2.03 5.55 2.05 8.61h-.45c-.18-3.11-.87-5.7-1.6-8.61zm23.03-1.83c-2.48 3.25-3.76 6.46-5.03 10.36.8-4.85 1.67-7.16 5.03-10.36zm-6.84 1.37c-.46 2.72-1.18 5.7-1.52 8.16l-.53-.18c.1-2.8 1.06-5.8 2.05-7.98zm-24.63-1.82c3.06 3.18 3.78 5.83 4.34 10.26h-.46c-.52-3.8-1.84-7.52-3.88-10.26zm13.23-1.14a31.66 31.66 0 0 1 1.57 11.94l-.31.03a72.98 72.98 0 0 0-1.26-11.97zM93.4 126.5l.48.16c.03.72-1.87 5-3.07 7.07.89-2.39 1.71-4.55 2.59-7.23zm-4.12-1.75.55.1a27.78 27.78 0 0 1-2.9 7.96 28.34 28.34 0 0 0 2.35-8.06zm-4.4.77c-.1 2.68-1.52 4.55-2.73 5.93 1.03-2.08 1.86-3.87 2.73-5.93zm10.42 1.05c-.3 1.52-.16 1.06-.84 2.82l.46-2.73zm5.77.32c-.3 3.64-.77 5.17-1.6 7.3.58-2.25.94-4.82 1.13-7.15zm10.28 4.99c-.94-2.06-1.95-4.02-2.53-6.59l.59.03c.52 2.99 1.32 4.57 1.94 6.56zm2.61-7.15.4.02c.6 3.14 1.29 5.52 2.44 8.52-1.81-2.7-2.54-6.3-2.84-8.54zm-6.73 10.14c-.13-2.3.1-5.38.23-7.76.52 2.52.54 5.44-.23 7.76zm-12.31-2.28a4.75 4.75 0 0 1-.92 2.96c.23-1.03.64-2.13.92-2.96zm-10.5-19.84c-.72-2.38-2.34-4.17-3.87-5.93 2.2 1.45 3.66 3.47 3.88 5.93zm16.78 2.99c.19-2.37 1.13-5.02 1.78-7.57.3-1.2.68-3.65.68-3.65.21-1.12-.12 2.97-.45 4.15-.76 2.3-1.16 4.7-1.63 7.07zm13.55-.94c2.65-2.71 3.85-4.62 4.87-8.34-.13 3.72-2.5 6.3-4.41 8.57zm-23.94 1.14c-.7-2.5-1.37-5.21-1.6-7.52-.09-1.31.07-2.59.23-3.88.2 4.19.88 7.35 1.6 11.4z"/>
    <path class="secondary" d="M119.54 118.23c-.48-2.27.32-3.23-.09-4.18-11.94 2.9-25.44 2.76-37.48.3-2.13-.88-.98 2.6-.96 3.65.07.53-.26 1.61-.26 2.12-.23 2.6.75 3.58 3.22 4.04 9.16.99 18.38 1.3 27.59.91 1.6 0 3.16-.56 4.79-.91 1.57-.34 3.19-1.14 3.65-2.74a25.45 25.45 0 0 0-.46-3.19z"/>
    <path class="secondary" d="M94.23 126.67c-1.37 0-1.28-.85-.67-1.45 1.82-1.5 1.93-3.34 2.72-5.85.46-1.37 1.14-3.19 2.51-3.87 1.14-.46 2.51.45 3.65.22 1.14-.45 1.14-.9 3.42-.9 1.6 0 1.82 1.36 1.82 1.36-.15.75-.67 1.25-1.14 1.82-.9 1.14-1.6 2.51-2.05 4.1-.45 1.15-.68 2.74-1.6 3.66-.54.5-1.14.88-1.82 1.14-1.48.56-2.6-1.17-3.65-.92-1.1.28-2.08.57-3.19.69z"/>
    <g fill="#000" stroke="none">
      <path d="M82.38 117.55c2.64.9 5.36 1.71 8.2 1.82-2.84.78-5.86-.16-8.2-1.82zm26.44 3.19a61.92 61.92 0 0 0 9.17-2.78c-1.02.84-2.4 1.86-3.81 2.05-1.93.26-3.4.78-5.36.73zm5.02.91c1.48.11 2.94.2 4.33 0a4.39 4.39 0 0 1-4.3.01zm-29.41-.45c2.99.52 7.43.68 11.14.04v.65c-3.71.4-3.75.64-7.49.3-1.17-.25-2.5-.65-3.65-1z"/>
      <path d="M99.02 125.07c.49-.93.98-1.8 1.33-2.87.28-.61.62-.77.92-1.37.25-.5.72-.97 1.1-1.18.13-.05-.25.38-.31.53-.32.36-.3.85-.57 1.24-.54.8-.68 1.86-1.36 2.54z"/>
      <path d="M100.84 116.4c0 .23.02.45-.06.66-.1.25-.17.5-.31.74-.33.54-.65 1.1-.8 1.72l-.2.76c.02-.33-.03-.67.02-1 .07-.36.1-.74.23-1.08.12-.31.25-.62.44-.88.2-.26.55-.4.65-.72a.64.64 0 0 0 .03-.2z"/>
    </g>
  </g>
</svg>
