<svg xmlns="http://www.w3.org/2000/svg" fill="#d7374a" stroke="#000" viewBox="50 50 200 200">
  <metadata source="http://wappenwiki.org/images/f/fd/FW672_Wauncy.svg" license="https://creativecommons.org/licenses/by-nc-sa/3.0"/>
  <g id="gauntlet" stroke-width="3" transform="translate(-18.5 138) scale(0.203)">
    <path d="M543.8-215.2c7.1,3.3,15,4.3,22.7,5.3c9.1,1.2,18.1,2.3,27.2,3.5c1.5,0.2,3.1,0.4,4.6,0.6c4.3,0.6,8.6,1.1,12.9,1.7c8.9,1.1,17.7,2.3,26.7,2.4c16.2,0.2,32.8-3.6,45.1-14c0-0.9,3.1-14.3,3.1-32.1c-0.6-10.2-1-17.6-0.7-23.4c0.7-12.4-0.9-22.6-2-28.4c-0.3-7.9-4.1-19.4-4.1-19.4s-2.1-17.1-12.1-17.2c-9.7-0.1-10.8,11.7-10.9,15.4c0,1.9-1.8,10.5-1.9,20c-0.1,9.2-0.2,18.8-0.6,24.5c-0.9,14.1-5.7,34.5-5.7,34.5s-0.4-42.4-0.7-48.3c1.7-5.5-1.6-29.5-2.7-37.8c-0.7-12-2.4-20.6-2.4-23.2c0-2.5-0.9-19.7-13.6-19.9c-9.1-0.1-12.1,12-11.8,15.7c-0.5,10.9-3.9,40.3-4,52.5c-0.1,12.3-2.2,58.3-5.6,59.1c0-21.9-1.6-35.9-1.6-35.9s-0.4-3-0.4-5.2c-0.1-8.8,0.8-49.5-0.2-56.2c-0.1-11.5-1.9-21.3-1.8-22.4c0.2-1.2-0.8-19.9-12.1-19.9c-13.5,0-14,17.2-14,17.2l-4.4,41.8l-4.9,53.4c0,0,1.6,18.5-0.5,29c-0.4,2-3-27.1-3.9-31.5c0.6-11-1.8-51-1.6-52.6c0.7-8.9,0-22,0-24.8c0-2.7-0.5-18.4-12.7-18.4c-11.9,0-13.1,18.4-13.1,18.4s-7.4,33-7.2,53.6c0.1,17.4-4.2,45.2-0.6,66.3C529.7-223.4,536.8-218.5,543.8-215.2z"/>
    <path d="M564.7-155.6c-0.4-4.3-0.8-8.6-2-12.7c-1.2-4.1-3.1-7.9-5.1-11.7c-8-15.5-16.4-30.5-25-45.6c-1.4-0.2-3.9-2.6-5.7-6.3c0.1-2.5-8-19.6-9.9-22.3c-1.9-11.8-21.8-27.4-21.8-27.4s-5.2-4.6-12.5-1.2c-7.3,3.4-4.6,10.6-4.6,10.6s6.8,10.9,8.5,15.5c0.9,2.3,7.2,27.8,7.2,27.8s13,38.9,19.5,50.9c4.5,8.3,9.4,18.8,14.1,22.3c16.7,13.5,26.1,11.9,38.8,14.2C565.8-146.3,565.2-150.8,564.7-155.6z"/>
    <g fill="none">
      <path d="M646.1-317.3c-0.7-10.6-7.3-15.2-16.2-15.2c-8.9,0-14.7,4.2-16.2,15.2"/>
      <path d="M684.2-295.3c-1.1-7.6-6.1-13.4-14.9-13.4c-8.9,0-13.2,2.4-14.7,13.4"/>
      <path d="M685.7-275.9c0-6-6.9-12.3-15.8-12.3c-8.9,0-15.9,4.8-15.9,10.8"/>
      <path d="M686.1-253.6c0-6-7.4-10.8-16.3-10.8c-8.9,0-19.3,4.8-19.3,10.8"/>
      <path d="M647.5-291c0-6-8.6-10.8-17.5-10.8c-8.9,0-17.3,4.8-17.3,10.8"/>
      <path d="M648-264.7c0-6-9.2-10.8-18.1-10.8c-8.9,0-18.8,4.8-18.8,10.8"/>
      <path d="M562.5-317.3c-0.7-10.6-6.9-15.2-15.8-15.2c-8.9,0-14.7,4.2-16.2,15.2"/>
      <path d="M563.5-291c0-6-7.9-10.8-16.8-10.8c-8.9,0-17.8,4.8-17.8,10.8"/>
      <path d="M605.7-323.3c-0.7-10.6-8.5-16-17.4-16c-8.9,0-13.9,3.9-15.4,14.8"/>
      <path d="M605.2-297.8c0-6-7.9-10.8-16.8-10.8c-8.9,0-17.8,4.8-17.8,10.8"/>
      <path d="M606.3-270.1c0-6-9.1-12.2-17.9-12.2c-8.9,0-20.3,4.8-20.3,10.8"/>
      <path d="M517-254.2c-2,3.4-5.8,7.1-10.7,8.7c-7.6,2.5-14.7,1.6-15.6,0.9"/>
      <path d="M524.2-226.2c-2,3.4-5.8,7.1-10.7,8.7c-7.6,2.5-14.7,1.6-15.6,0.9"/>
      <path d="M536.1-194.8c-2,3.4-5.8,7.1-10.7,8.7c-7.6,2.5-14.7,1.6-15.6,0.9"/>
      <path d="M551.4-167.6c-2,3.4-5.8,7.1-10.7,8.7c-7.6,2.5-14.7,1.6-15.6,0.9"/>
      <path d="M564.8-264.7c0-6-9.2-10.8-18.1-10.8c-8.9,0-19.3,4.8-19.3,10.8"/>
    </g>
    <path d="M556.6-118.3c0.5-1.5,1-3.1,2.4-4c1.3-0.8,3-0.7,4.5-0.6c16.3,1.6,26.6,5.7,42.9,7.3c16.3-1.6,26.6-5.7,42.9-7.3c1.5-0.2,3.2-0.3,4.5,0.6c1.3,0.9,1.9,2.5,2.4,4c10,32.2,13.6,59.6,15.6,93.2c-14,6.5-50.2,17.4-65.4,20.3C591.2-7.7,555-18.6,541-25.1C543-58.7,546.6-86.2,556.6-118.3z"/>
    <path d="M602-237.9h-27.6c-2.3,0-3.8-2.6-2.8-4.7l13.8-27.7c1.2-2.3,4.4-2.3,5.5,0l13.8,27.7C605.9-240.5,604.4-237.9,602-237.9z"/>
    <path d="M559.9-238.1l-24.6,1.9c-2.1,0.2-3.6-2-2.8-4l10.4-25.7c0.9-2.2,3.7-2.4,4.9-0.4l14.2,23.7C563.2-240.7,562-238.3,559.9-238.1z"/>
    <path d="M615.1-236.9l25.7,1.4c2.2,0.1,3.7-2.2,2.8-4.3l-11.5-26.5c-1-2.2-4-2.4-5.1-0.3l-14.2,25.1C611.6-239.5,612.9-237,615.1-236.9z"/>
    <path d="M655.3-232.5l23.1,2.6c2,0.2,3.5-1.8,2.8-3.7l-9-24.5c-0.8-2.1-3.4-2.4-4.6-0.5l-14.2,21.9C652.3-235,653.3-232.7,655.3-232.5z"/>
    <path d="M523.1-224.7c-0.8-8.4,11.2-16.7,17.7-17.8c10.2-1.7,17.2,1.1,24.2,1.1c11.8,0,15.4-5.7,24.7-5.7c8.1,0,12,3.6,16.7,3.6c4.7,0,8.6-3.6,16.7-3.6c9.3,0,12.9,5.7,24.7,5.7c7,0,14-2.8,24.2-1.1c6.5,1.1,18.5,9.4,17.7,17.8c-0.2,2.3,3.2,12.7-2.2,20.5c-1.7,2.5,2.2,14.3-6.1,20.8c-1.8,1.4,0.4,8-7.7,20.1c-1.3,1.9-2.4,4-3.3,6.1c-2.8,6.6-7.4,16.7-13.2,21c-14.1,10.5-33.1,6.7-50.7,6.7c-17.6,0-36.6,3.8-50.7-6.7c-5.8-4.3-10.4-14.4-13.2-21c-0.9-2.2-2-4.2-3.3-6.1c-8.1-12.1-6-18.7-7.7-20.1c-8.3-6.5-4.4-18.2-6.1-20.8C520-212,523.3-222.4,523.1-224.7z"/>
    <g fill="none">
      <line x1="606.4" y1="-115.5" x2="606.4" y2="-8.2"/>
      <circle cx="532.2" cy="-212" r="5.3"/>
      <circle cx="538.1" cy="-190.7" r="5.3"/>
      <circle cx="547.5" cy="-167.8" r="5.3"/>
      <circle cx="587.4" cy="-231.5" r="5.3"/>
      <circle cx="548.3" cy="-231.5" r="5.3"/>
      <circle cx="665.3" cy="-167.8" r="5.3"/>
      <circle cx="674.6" cy="-190.7" r="5.3"/>
      <circle cx="680.6" cy="-212" r="5.3"/>
      <circle cx="664.4" cy="-231.5" r="5.3"/>
      <circle cx="625.4" cy="-231.5" r="5.3"/>
      <path d="M687.4-204.2c0,0-24,11-81.1,11s-81.1-11-81.1-11"/>
      <path d="M681.3-183.4c0,0-17.9,10.7-74.9,10.7s-74.9-10.7-74.9-10.7"/>
      <path d="M671.7-160.3c0,0-8.3,8.8-65.4,8.8s-65.4-8.8-65.4-8.8"/>
      <path d="M689.6-224.7c0,0-26.2,11.2-83.2,11.2s-83.2-11.2-83.2-11.2"/>
      <circle cx="564.5" cy="-92.2" r="6"/>
      <circle cx="556" cy="-48" r="6"/>
      <circle cx="648.3" cy="-92.2" r="6"/>
      <circle cx="656.8" cy="-48" r="6"/>
    </g>
    <path d="M536.1-15.9c0.9-5.8,1.7-12.4,2.6-18.2c0,0,9.4,5.6,18.1,8.2c27.9,8.3,39.4,8,49.6,8c10.2,0,21.6,0.3,49.6-8c8.7-2.6,18.1-8.2,18.1-8.2c0.9,5.8,1.7,12.4,2.6,18.2c0.3,1.9,0.6,3.9-0.1,5.7c-1,2.8-3.9,4.3-6.6,5.6C647.7,5.5,618.4,8.8,606.4,8.8c-12,0-41.3-3.3-63.5-13.4c-2.7-1.2-5.6-2.8-6.6-5.6C535.5-12,535.8-14,536.1-15.9z"/>
    <path d="M553.4-129.2c0.9-3.3,1.3-5.9,0.7-8.8c16,3.5,35.7,4.3,52.3,4.2c16.6,0.1,36.3-0.7,52.3-4.2c-0.6,2.9-0.2,5.4,0.7,8.8c0.7,2.8,0.5,5.5-1.3,8.2c-3.1,3.7-39.7,6-51.7,6s-48.6-2.3-51.7-6C552.9-123.7,552.6-126.4,553.4-129.2z"/>
  </g>
</svg>
