<svg xmlns="http://www.w3.org/2000/svg" fill="#d7374a" stroke="#000" viewBox="50 50 200 200">
<metadata source="https://commons.wikimedia.org/wiki/File:Coa_Hungary_County_Bereg_(history)_v2.svg" author="Madboy74" license="https://creativecommons.org/publicdomain/zero/1.0"/>
  <g id="grapeBunch" stroke-width=".8" transform="translate(35 43.4) scale(0.7)">
    <path class="secondary" d="M128.89 85.18c-.51-1.42-1.46-3.42-.64-4.6-.8-3.59-3.4-4.46 1.78-6.56-4.28-2.14-2.96-3.63-.33-4.94l-3.04-1a4.5 4.5 0 004.3-1.78c-3.06-.97-5.84-2-1.73-4.26-4.86.06-3.87-1.42-1.16-3.33-2.8-.26-3.32-.04-1.97-2.4-2.33.31-7.26 4.23-6.36.01-11.95 8.09-9.74-7.84 4.87-3.62-.61-2.73.78-2.09 3.55-1.93-2.4-2.54 1.35-2.16 3.63-2.19l-2.3-2.42 1.03-1.18c-4.08-1.16-4.89-2.54-2.4-4.15-3.33-.07-4.69-.92-5.28-4.15-2.43.49-4.92 1.36-7.04.37l.97-2.87c-4.3-.23-6.34 1.75-6.13-3.41-3.48 3.09-3.7 2.34-4.58-1.47-.57.66-5.37 3.2-5.37 3.2s-2.06-3.2-2.63-2.55c-.57.66-2.85 5.54-2.85 5.54l-2.66-.93c-1.13 2.6-2 5.63-5.93 4.6 0 1.43 2.2 2.5-.7 4.4 1.8 3.1 6.04 4.63 4.33 8.15-3.24 2.18-5.35-1.8-8.69-3.14-1.46 3.15-2.82 1.13-4.24 1.32 1.58 3.76-1.3 5.04-3.7 6.53l1.3 2.5s-4.52 2.95-5.09 3.61c-.57.66 2.9 2.25 2.9 2.25s-1.83 5.1-2.4 5.76c3.9.34 4.66.45 2.1 4.32 5.08-.94 3.4 1.37 4.26 5.59l2.7-1.37c1.28 1.96.77 4.55.63 7.02 3.28.13 4.31 1.35 4.86 4.64 1.23-2.7 2.72-2.1 4.45 1.78l1.02-1.18 2.72 1.93c-.29-2.26-1.2-5.92 1.66-3.9-.55-2.73-1.4-4.01 1.4-3.8-6.26-13.86 9.2-18.32 2.9-5.33 4.05-1.5.86 3.94.9 6.3 2.13-1.68 1.99-1.13 2.64 1.6 1.5-2.95 2.82-4.15 3.46.67 1.66-4.38 3.07-1.78 4.46 1.11a4.48 4.48 0 001.16-4.5l1.42 2.86c.92-2.79 2.21-4.32 4.94-.38 1.33-5.42 2.57-2.98 6.24-2.7 1.08-.97 3.2-.32 4.66-.02"/>
    <path fill="#000" fill-opacity="0.3" stroke="none" d="M81.56 48.57c-1.47 3.14-2.83 1.12-4.25 1.31 1.58 3.76-1.3 5.05-3.7 6.53l1.3 2.5s-4.52 2.96-5.08 3.61c-.58.66 2.88 2.25 2.88 2.25s-1.83 5.11-2.4 5.77c3.9.34 4.68.44 2.11 4.32 5.08-.94 3.4 1.37 4.26 5.58l2.7-1.36c1.28 1.95.78 4.54.64 7 3.28.14 4.3 1.37 4.85 4.65 1.24-2.69 2.73-2.09 4.45 1.78l1.02-1.18 2.73 1.93c-.3-2.26-1.21-5.92 1.65-3.9-.55-2.73-1.39-4.01 1.4-3.79-6.25-13.87 9.2-18.32 2.9-5.33 4.05-1.5.87 3.93.9 6.3 2.13-1.69 1.99-1.14 2.64 1.6 1.51-2.96 2.83-4.15 3.47.67 1.65-4.4 3.06-1.79 4.45 1.1a4.48 4.48 0 001.17-4.5l1.41 2.86c.92-2.79 2.21-4.32 4.94-.37 1.33-5.42 2.57-2.98 6.24-2.7.96-.9 2.78-.44 4.21-.12-15.82-11.8-29.04-23-38.35-33.3-3.18 1.97-5.28-1.9-8.56-3.21"/>
    <g fill="#000" stroke="none">
      <path d="M93.04 55.5a68.42 68.42 0 00-4.5 12.77 57.6 57.6 0 00-1.33 17.6 57.4 57.4 0 011.9-17.46c1.16-4.26 2.41-8.75 4.37-12.71 4.19-3.03 9.24-5.1 14.03-7.13 5.12-2.17 10.49-3.88 16.04-4.38-5.57.32-11.03 1.86-16.24 3.87a68.9 68.9 0 00-14.1 7.23l-.03.14"/>
      <path d="M100.05 39.59c-.37 2.3-1.4 4.64-1.96 6.89-.33 2.16-.78 4.7-.16 6.45a8.7 8.7 0 003.18.06c4.1-1.04 7.64-3.28 12-2.8-4.2-.2-8.16 2.15-11.88 3.13a6.69 6.69 0 01-3.57-.12c-.77-2.35-.55-4.8.13-6.98.68-2.35 1.76-4.6 2.25-6.63"/>
      <path d="M122.3 65.84c-4.09 1.75-8.84 1.79-10.86 6.12l-.47-.24c2.26-4.52 7.21-4.5 11.34-5.88"/>
      <path d="M125.39 82.6c-12.5-9.47-24.87-19.32-35.04-31.17l-.8.7c10.54 11.72 23.13 21.28 35.84 30.47"/>
    </g>
    <path class="tertiary" d="m 95.14,27.6 c -3.68,5.3 -2.23,19.1 -1.94,24.6 4.17,1.9 6.03,10.8 9.1,13 2.3,1.7 1.3,4.3 1.3,4.3 l -1,1.8 c 0,0 0.3,-1.8 -0.1,-2 -1.6,0.8 -2.52,-0.1 -3.48,-2.6 -1,-6.8 -5.27,-12.6 -8.16,-13 -4.62,-0.5 -9.23,1.6 -13.4,7.9 -1.7,1.5 -0.39,3.8 -2.4,5 -0.2,1.6 -1.45,2.9 -1.45,2.9 L 70.78,69 c 0,0 0,-2.9 1.2,-3.2 1.11,-0.3 0.5,-2.1 3.28,-4.2 4.34,-5.6 9.75,-11.3 15.09,-10.2 0.95,-1.3 0.63,-3.1 0.69,-4.4 0.1,-2.8 -1.73,-15.1 -0.92,-19 1.02,-2 5.39,-2 5.02,-0.3 z" />

    <g stroke-width=".9">
      <path stroke="none" d="m 75.66,73.4 h 9.13 v 6.3 h -9.13 z"/>
      <path fill="#000" fill-opacity="0.2" stroke="none" d="m 75.66,73.4 h 9.13 v 6.3 h -9.13 z"/>
      <path d="M65.23 74.88a6.98 6.98 0 006.71 6.68c3.5 0 6.7-3.18 6.72-6.68a6.98 6.98 0 00-6.71-6.9 6.99 6.99 0 00-6.72 6.9h0z"/>
      <path fill="#000" fill-opacity="0.2" stroke="none" d="M65.62 72.62c-.26.73-.4 1.5-.4 2.26a6.98 6.98 0 006.72 6.68c3.5 0 6.7-3.17 6.72-6.68 0-.76-.13-1.52-.4-2.24a6.9 6.9 0 01-6.32 4.43 6.9 6.9 0 01-6.31-4.45"/>
      <path d="M62.8 85.59a5.11 5.11 0 004.92 4.9 5.11 5.11 0 004.93-4.9 5.12 5.12 0 00-4.92-5.1 5.12 5.12 0 00-4.92 5.1h0z"/>
      <path fill="#000" fill-opacity="0.2" stroke="none" d="M72.09 83.32a5.03 5.03 0 01-4.36 2.65 5.02 5.02 0 01-4.37-2.64c-.37.7-.56 1.48-.56 2.27a5.12 5.12 0 004.93 4.92 5.12 5.12 0 004.92-4.92c0-.79-.18-1.57-.54-2.27"/>
      <path d="M76.07 84.93a6.68 6.68 0 006.42 6.37c3.34 0 6.39-3.02 6.42-6.37.1-3.41-3-6.6-6.42-6.6a6.68 6.68 0 00-6.42 6.6"/>
      <path fill="#000" fill-opacity="0.2" stroke="none" d="M76.49 82.67a6.5 6.5 0 00-.42 2.26 6.66 6.66 0 006.42 6.32c3.33 0 6.36-2.99 6.42-6.32 0-.76-.15-1.53-.42-2.24a6.58 6.58 0 01-6.01 4.16 6.59 6.59 0 01-6.01-4.18"/>
      <path d="M76.51 109.94a6.05 6.05 0 005.82 5.78c3.03 0 5.8-2.75 5.82-5.78.1-3.1-2.71-6-5.82-6-3.1 0-5.9 2.9-5.81 6z"/>
      <path fill="#000" fill-opacity="0.2" stroke="none" d="M87.7 107.67a5.97 5.97 0 01-5.36 3.56 5.98 5.98 0 01-5.37-3.54c-.3.7-.45 1.48-.45 2.24a6.05 6.05 0 005.82 5.77c3.03 0 5.79-2.74 5.81-5.77a5.8 5.8 0 00-.46-2.26"/>
      <path d="M71.17 101.97a6.04 6.04 0 005.81 5.78c3.04 0 5.8-2.74 5.82-5.78a6.06 6.06 0 00-5.82-5.99c-3.1 0-5.9 2.89-5.81 5.99z"/>
      <path fill="#000" fill-opacity="0.2" stroke="none" d="M82.34 99.7a5.95 5.95 0 01-5.35 3.56 5.97 5.97 0 01-5.36-3.54c-.3.7-.46 1.48-.46 2.25a6.05 6.05 0 005.82 5.77c3.02 0 5.79-2.74 5.82-5.77 0-.78-.16-1.55-.47-2.27"/>
      <path d="M64.63 93.38a7.44 7.44 0 007.16 7.16 7.45 7.45 0 007.17-7.16 7.45 7.45 0 00-7.17-7.17 7.45 7.45 0 00-7.16 7.17"/>
      <path fill="#000" fill-opacity="0.2" stroke="none" d="M78.59 91.12c-.95 2.83-3.82 4.9-6.8 4.9s-5.85-2.07-6.8-4.9c-.23.73-.36 1.5-.36 2.26a7.44 7.44 0 007.16 7.13 7.44 7.44 0 007.17-7.13c0-.77-.13-1.53-.37-2.26"/>
      <path d="m 90.97,102.4 a 3.94,3.94 0 0 0 3.8,3.8 c 1.98,0 3.8,-1.8 3.8,-3.8 a 3.95,3.95 0 0 0 -3.8,-3.9 3.95,3.95 0 0 0 -3.8,3.9" />
      <path fill="#000" fill-opacity="0.2" stroke="none" d="M91.72 100.14a3.86 3.86 0 00-.74 2.28c0 2 1.8 3.8 3.8 3.8 1.99 0 3.8-1.8 3.8-3.8 0-.8-.27-1.62-.75-2.27a3.9 3.9 0 01-3.06 1.53 3.83 3.83 0 01-3.05-1.55"/>
      <path d="M90.12 96.22a4.97 4.97 0 004.78 4.76c2.5 0 4.77-2.26 4.78-4.76a4.98 4.98 0 00-4.78-4.9 4.97 4.97 0 00-4.78 4.9z"/>
      <path fill="#000" fill-opacity="0.2" stroke="none" d="M99.1 93.92a4.88 4.88 0 01-4.2 2.52c-1.72 0-3.4-1-4.22-2.5-.37.7-.57 1.48-.57 2.27 0 2.51 2.28 4.79 4.78 4.79 2.5 0 4.79-2.28 4.79-4.79 0-.79-.2-1.59-.58-2.29"/>
      <path d="M77.81 100.2a8.22 8.22 0 007.91 7.91 8.22 8.22 0 007.92-7.91 8.23 8.23 0 00-7.93-7.93c-4.14 0-7.92 3.78-7.92 7.93"/>
      <path fill="#000" fill-opacity="0.2" stroke="none" d="M93.3 97.93a8.15 8.15 0 01-7.57 5.65c-3.37 0-6.6-2.4-7.58-5.63a8.2 8.2 0 00-.34 2.25 8.23 8.23 0 007.91 7.8c4.1 0 7.85-3.7 7.92-7.8a7.9 7.9 0 00-.34-2.27"/>
      <path d="M76.02 92.08a6.05 6.05 0 005.82 5.78c3.04 0 5.8-2.75 5.83-5.78.09-3.1-2.72-6-5.82-6s-5.9 2.9-5.82 6"/>
      <path fill="#000" fill-opacity="0.2" stroke="none" d="M87.21 89.8a5.97 5.97 0 01-5.35 3.57 5.96 5.96 0 01-5.37-3.55c-.3.71-.46 1.48-.46 2.26a6.04 6.04 0 005.82 5.76c3.03 0 5.8-2.74 5.82-5.76 0-.78-.16-1.56-.46-2.28"/>
      <path d="M89.85 122.11c0 3.2 2.92 6.12 6.12 6.12s6.12-2.91 6.12-6.12a6.36 6.36 0 00-6.12-6.28 6.36 6.36 0 00-6.11 6.28z"/>
      <path fill="#000" fill-opacity="0.2" stroke="none" d="M101.65 119.8a6.28 6.28 0 01-5.67 3.85 6.29 6.29 0 01-5.68-3.84 6.2 6.2 0 00-.44 2.29c0 3.2 2.91 6.12 6.12 6.12 3.2 0 6.11-2.91 6.11-6.13 0-.78-.15-1.57-.44-2.3"/>
      <path d="M94.66 113.5a5.74 5.74 0 005.52 5.52 5.74 5.74 0 005.52-5.52 5.74 5.74 0 00-5.52-5.69 5.74 5.74 0 00-5.52 5.7z"/>
      <path fill="#000" fill-opacity="0.2" stroke="none" d="M95.15 111.24c-.32.7-.5 1.48-.5 2.26a5.74 5.74 0 005.53 5.52 5.74 5.74 0 005.52-5.52c0-.78-.17-1.55-.5-2.26-.86 1.92-2.91 3.25-5.02 3.25s-4.17-1.33-5.03-3.25"/>
      <path d="M94.92 106.77c0 2.2 2 4.21 4.22 4.21 2.2 0 4.2-2 4.2-4.2a4.4 4.4 0 00-4.2-4.32 4.39 4.39 0 00-4.22 4.31"/>
      <path fill="#000" fill-opacity="0.2" stroke="none" d="M95.57 104.51a4.25 4.25 0 00-.66 2.26 4.38 4.38 0 004.22 4.2c2.2 0 4.2-2 4.21-4.2 0-.8-.23-1.6-.66-2.26a4.28 4.28 0 01-3.55 1.95 4.3 4.3 0 01-3.55-1.95"/>
      <path d="M100.72 103.41a6.67 6.67 0 006.42 6.36c3.34 0 6.39-3.02 6.41-6.36.1-3.42-3-6.6-6.41-6.6a6.67 6.67 0 00-6.42 6.6"/>
      <path fill="#000" fill-opacity="0.2" stroke="none" d="M101.14 101.15c-.28.72-.42 1.5-.42 2.27a6.66 6.66 0 006.42 6.3 6.66 6.66 0 006.42-6.3c0-.78-.15-1.54-.42-2.26a6.58 6.58 0 01-6.01 4.16c-2.6 0-5.1-1.75-6.01-4.18"/>
      <path d="M83.7 128.92c0 3.2 2.9 6.12 6.1 6.12 3.21 0 6.13-2.91 6.13-6.12a6.36 6.36 0 00-6.12-6.28 6.36 6.36 0 00-6.12 6.28"/>
      <path fill="#000" fill-opacity="0.2" stroke="none" d="M95.48 126.62a6.3 6.3 0 01-5.67 3.85 6.3 6.3 0 01-5.69-3.84c-.29.73-.44 1.51-.43 2.3 0 3.2 2.91 6.1 6.11 6.1s6.12-2.9 6.12-6.1a6.2 6.2 0 00-.44-2.31"/>
      <path d="M80.6 119.02c0 3.21 2.91 6.13 6.11 6.13 3.21 0 6.13-2.92 6.13-6.13a6.37 6.37 0 00-6.12-6.28 6.36 6.36 0 00-6.12 6.28"/>
      <path fill="#000" fill-opacity="0.2" stroke="none" d="M92.4 116.72a6.27 6.27 0 01-5.68 3.85 6.28 6.28 0 01-5.68-3.84c-.3.72-.44 1.5-.44 2.29 0 3.2 2.91 6.12 6.12 6.12 3.2 0 6.12-2.91 6.12-6.12 0-.78-.15-1.57-.44-2.3"/>
      <path d="M86.25 87.21a7.9 7.9 0 007.62 7.53 7.91 7.91 0 007.62-7.53 7.92 7.92 0 00-7.62-7.77c-4.04 0-7.7 3.73-7.62 7.77"/>
      <path fill="#000" fill-opacity="0.2" stroke="none" d="M101.14 84.88a7.83 7.83 0 01-7.27 5.35 7.83 7.83 0 01-7.28-5.33 7.75 7.75 0 00-.34 2.3 7.91 7.91 0 007.62 7.53 7.9 7.9 0 007.61-7.53c.01-.78-.11-1.57-.34-2.32"/>
      <path d="M67.35 81.36a6.98 6.98 0 006.71 6.68c3.5 0 6.7-3.17 6.72-6.68a6.99 6.99 0 00-6.71-6.9 7 7 0 00-6.72 6.9z"/>
      <path fill="#000" fill-opacity="0.2" stroke="none" d="M67.74 79.1c-.26.72-.4 1.5-.4 2.26a6.98 6.98 0 006.72 6.68c3.5 0 6.7-3.17 6.72-6.68a6.7 6.7 0 00-.4-2.24 6.9 6.9 0 01-6.32 4.43 6.88 6.88 0 01-6.31-4.46"/>
      <path d="m 104.7,72.6 a 6.67,6.67 0 0 0 6.4,6.3 6.67,6.67 0 0 0 6.4,-6.3 c 0.1,-3.4 -3,-6.6 -6.4,-6.6 a 6.68,6.68 0 0 0 -6.4,6.6" />
      <path fill="#000" fill-opacity="0.2" stroke="none" d="m 105.1,70.3 c -0.3,0.7 -0.4,1.5 -0.4,2.3 a 6.67,6.67 0 0 0 6.4,6.4 6.67,6.67 0 0 0 6.4,-6.4 c 0,-0.8 -0.1,-1.6 -0.4,-2.3 a 6.6,6.6 0 0 1 -6,4.2 6.6,6.6 0 0 1 -6,-4.2" />
      <path d="M87.13 111.7a6.83 6.83 0 006.57 6.58 6.83 6.83 0 006.57-6.57 6.83 6.83 0 00-6.57-6.57 6.83 6.83 0 00-6.57 6.57z"/>
      <path fill="#000" fill-opacity="0.2" stroke="none" d="M87.54 109.4a6.6 6.6 0 00-.4 2.3 6.82 6.82 0 006.56 6.58 6.83 6.83 0 006.56-6.57c0-.78-.13-1.56-.4-2.29a6.73 6.73 0 01-6.17 4.29 6.73 6.73 0 01-6.15-4.3"/>
      <path d="M95.42 79.1a6.98 6.98 0 006.71 6.68c3.5 0 6.7-3.17 6.72-6.68a6.99 6.99 0 00-6.72-6.9 6.98 6.98 0 00-6.7 6.9z"/>
      <path fill="#000" fill-opacity="0.2" stroke="none" d="M95.8 76.83a6.8 6.8 0 00-.38 2.27 6.98 6.98 0 006.71 6.66c3.5 0 6.7-3.16 6.72-6.66 0-.76-.14-1.53-.4-2.25a6.88 6.88 0 01-6.33 4.43 6.9 6.9 0 01-6.31-4.45"/>
      <path d="m 98.86,89.9 a 5.43,5.43 0 0 0 5.24,5.3 c 2.7,0 5.2,-2.5 5.2,-5.3 a 5.44,5.44 0 0 0 -5.2,-5.3 c -2.8,0 -5.32,2.6 -5.24,5.3" />
      <path fill="#000" fill-opacity="0.2" stroke="none" d="M99.38 87.68c-.34.7-.53 1.5-.52 2.28a5.42 5.42 0 005.22 5.18c2.72 0 5.2-2.45 5.22-5.18 0-.78-.18-1.57-.52-2.27a5.35 5.35 0 01-4.7 2.95 5.35 5.35 0 01-4.7-2.97"/>
      <path d="M96.63 98a5.9 5.9 0 005.67 5.67 5.9 5.9 0 005.67-5.67 5.9 5.9 0 00-5.67-5.68A5.9 5.9 0 0096.63 98z"/>
      <path fill="#000" fill-opacity="0.2" stroke="none" d="M107.5 95.7a5.8 5.8 0 01-5.2 3.41 5.81 5.81 0 01-5.2-3.4c-.3.72-.47 1.5-.47 2.29 0 2.97 2.7 5.67 5.67 5.67 2.97 0 5.67-2.7 5.67-5.67 0-.79-.16-1.58-.47-2.3"/>
      <path d="m 92.69,65.6 a 7.6,7.6 0 0 0 7.31,7.3 7.61,7.61 0 0 0 7.3,-7.3 7.62,7.62 0 0 0 -7.3,-7.4 7.62,7.62 0 0 0 -7.3,7.4" />
      <path fill="#000" fill-opacity="0.2" stroke="none" d="m 107,63.3 a 7.52,7.52 0 0 1 -7,5.1 c -3.05,0 -5.99,-2.2 -6.94,-5.1 a 7.4,7.4 0 0 0 -0.37,2.3 7.6,7.6 0 0 0 7.31,7.3 7.6,7.6 0 0 0 7.3,-7.3 c 0,-0.8 -0.1,-1.5 -0.3,-2.3" />
      <path d="m 70.58,70.6 a 6.98,6.98 0 0 0 6.72,6.7 c 3.5,0 6.7,-3.2 6.71,-6.7 a 6.98,6.98 0 0 0 -6.71,-6.9 6.98,6.98 0 0 0 -6.71,6.9"/>
      <path fill="#000" fill-opacity="0.2" stroke="none" d="M70.98 68.39c-.26.72-.4 1.5-.4 2.26a6.98 6.98 0 006.72 6.66c3.5 0 6.7-3.16 6.72-6.66a6.7 6.7 0 00-.4-2.25 6.9 6.9 0 01-6.32 4.44 6.9 6.9 0 01-6.31-4.45"/>
      <path d="M81.4 72.76c.04 4.2 3.87 8 8.08 8a8.4 8.4 0 008.07-8c.2-4.35-3.7-8.46-8.06-8.46s-8.28 4.1-8.08 8.46z"/>
      <path fill="#000" fill-opacity="0.2" stroke="none" d="M97.22 70.43a8.3 8.3 0 01-7.74 5.8 8.3 8.3 0 01-7.76-5.78 8.23 8.23 0 00-.33 2.31 8.4 8.4 0 008.08 7.96 8.4 8.4 0 008.08-7.96 8.1 8.1 0 00-.33-2.33"/>
      <path d="M62.75 67.58c0 3.72 3.37 7.1 7.08 7.1 3.72 0 7.1-3.38 7.1-7.1a7.38 7.38 0 00-7.1-7.27 7.37 7.37 0 00-7.08 7.27z"/>
      <path fill="#000" fill-opacity="0.2" stroke="none" d="M63.12 65.27a7.34 7.34 0 00-.37 2.31 7.37 7.37 0 007.1 7.04c3.68 0 7.05-3.35 7.08-7.04 0-.78-.12-1.56-.37-2.3a7.3 7.3 0 01-6.72 4.82 7.28 7.28 0 01-6.71-4.82"/>
    </g>
  </g>
</svg>
