<svg xmlns="http://www.w3.org/2000/svg" fill="#d7374a" stroke="#000" viewBox="50 50 200 200">
  <metadata source="http://wappenwiki.org/images/7/70/Vignolles.svg" license="https://creativecommons.org/licenses/by-nc-sa/3.0"/>
  <g id="grapeBunch" stroke-width="1" transform="translate(56 48) scale(0.188)">
    <g>
      <path class="secondary" stroke-width="3" stroke-linejoin="round" d="M320.4 183.1c-2.1-5.2-3.9-13-6.7-18.1-7-13.1-9.3-25.3-21.8-34.9-6.7-5.1-17.7-7.8-22.6-14.7-4.4-6.2-3.9-13.1-4.3-18.3.1-7.7 1.5-12.5 2.9-19.2.4-1.9.9-3.9.7-5.8-.4-4-6.6-7.4-18.5-7.4-15.2 0-18.8 5.2-17.7 9.1.9 2.8 2.3 4.9 4.3 7.1a36.1 36.1 0 0 1 9.3 19.8c1.2 7.8 2 11.8 1.6 19.6-1.2 7.4-7.1 14.5-11.5 20-5 6.3-8.3 14-9.3 21.9-.4 3.2-.6 6.7-3.1 8.8-3.1 8.2-7.7 15-10.8 23.2 5.5.7 8.4-6.3 12-8.9 3.7-2.7 8.8-1.2 12.4-4.1 2.2-1.8-1.3-4.8-.7-7.6 2.3-10 10.5-19.5 16.8-27.9.4-.5.9-1.1 1.6-1.1.7 0 1.2.5 1.7 1 11.7 12.8 6.2 36.1 4.9 52.1-.4 5.1-9.3 7.6-1.7 14a5 5 0 0 0 4.5 1.2c1.7-.4 2.6-1.6 3.3-2.9a77.8 77.8 0 0 0 6.8-17.3c2.7-11 6.2-23.1 5.6-35a31 31 0 0 0-8.4-19c.2.2 6.9 1.5 8 2.1 2.4 1.2 4.2 3.9 5.7 5.7 3.8 4.7 7.4 8.3 10.7 13.3 6.8 10.2 11.1 21 15.8 32.2a7.5 7.5 0 0 0 2.9-2.7l-2.8.6 7.9-3.9.6-.2c.4-.7.3-1.8-.1-2.7z"/>
      <g stroke="none" fill="#000">
        <path d="m261.2 72.1-.8.7-1 .7c-.4.3-.8.6-1.4.8l-1.7.8-2 .7-2.2.5-2.3.3h-2.3l-2.3-.2-2.1-.4-1.8-.6-1.5-.6-1.1-.6-.9-.6 1 .2 2.7.5a9 9 0 0 0 1.8.2l2 .2h4.3l2.2-.2 2.1-.3 1.9-.4 1.7-.5 2.6-.9 1.1-.3z"/>
        <path d="m271 140.2-.2-.2-.8-.8a8.8 8.8 0 0 1-1.6-2.9l-.5-2c-.1-.7-.3-1.4-.3-2.2-.2-1.5-.1-3.1-.4-4.6a17.4 17.4 0 0 0-1.3-4.3c-.5-1.4-1.1-2.6-1.4-3.8a11 11 0 0 1-.4-2.8v-1.1.3l.1.8c.1.7.3 1.6.8 2.7.4 1.1 1.1 2.3 1.8 3.5l1 2.1.9 2.3.9 4.5.5 1.9.6 1.6c.4 1 .9 1.6 1.3 1.9l.4.3.2.1-1.6 2.7z"/>
        <path d="m254.4 145.7-.2-.4-.5-1.3c-.4-1.1-.7-2.5-.8-4a24 24 0 0 1 .1-3.9l.3-1.7.1 1.7c.1 1 .4 2.4.9 3.6l1.6 3.2.7.9.3.4-2.5 1.5z"/>
      </g>
    </g>
    <g stroke-width="3">
      <path d="M211.3 243.6a177.6 177.6 0 0 0-26 39.3c-8.8 18.5-12.7 22.7.8 33.5 12 9.6 22 27.9 19.5 43.1 22.6-3.4 46-2.1 68.1 3.8 18 4.8 35.7 12.7 54.3 12.6 5.1 0 10.7-.9 14.2-4.7 2-2.1 3-4.9 4-7.6 4.2-11.2 7.4-23.5 14-33.5 5.4-8.3 9.1-12.3 9.7-23a69.8 69.8 0 0 0-24.2-56c-4.9-4.1-10.5-7.6-13.9-13-5.1-8-4.4-18.3-3.6-27.8-20.3 4.4-41 7.1-61.8 8.4-20.6 1.2-31.9-1.2-46.1 14.7-3.2 3.4-6.2 6.8-9 10.2z"/>
      <ellipse cx="198.6" cy="344.6" rx="27.7" ry="29.9"/>
      <ellipse cx="202.8" cy="394.4" rx="27.7" ry="29.9"/>
      <ellipse cx="182.9" cy="294.8" rx="27.7" ry="29.9"/>
      <ellipse cx="349.4" cy="270.7" rx="27.7" ry="29.9"/>
      <ellipse cx="356.5" cy="324.7" rx="27.7" ry="29.9"/>
      <ellipse cx="328.1" cy="373.1" rx="27.7" ry="29.9"/>
      <ellipse cx="256.9" cy="459.9" rx="27.7" ry="29.9"/>
      <ellipse cx="218.5" cy="425.7" rx="27.7" ry="29.9"/>
      <ellipse cx="295.3" cy="418.6" rx="27.7" ry="29.9"/>
      <ellipse cx="214.2" cy="371.7" rx="27.7" ry="29.9"/>
      <ellipse cx="248.4" cy="355.2" rx="27.7" ry="29.9"/>
      <ellipse cx="228.5" cy="314.8" rx="27.7" ry="29.9"/>
      <ellipse cx="305.3" cy="367.4" rx="27.7" ry="29.9"/>
      <ellipse cx="191.5" cy="239.4" rx="27.7" ry="29.9"/>
      <ellipse cx="225.6" cy="259.3" rx="27.7" ry="29.9"/>
      <ellipse cx="224.2" cy="199.5" rx="27.7" ry="29.9"/>
      <ellipse cx="319.5" cy="212.3" rx="27.7" ry="29.9"/>
      <ellipse cx="319.5" cy="263.5" rx="27.7" ry="29.9"/>
      <ellipse cx="309.6" cy="316.2" rx="27.7" ry="29.9"/>
      <ellipse cx="257.9" cy="408" rx="27.7" ry="29.9"/>
      <ellipse cx="272.6" cy="228" rx="27.7" ry="29.9"/>
      <ellipse cx="258.7" cy="274.6" rx="27.7" ry="29.9"/>
      <ellipse cx="263.8" cy="377.8" rx="27.7" ry="29.9"/>
      <ellipse cx="293.6" cy="281.5" rx="27.7" ry="29.9"/>
      <ellipse cx="277.6" cy="326.1" rx="27.7" ry="29.9"/>
    </g>
    <g>
      <path class="tertiary" stroke-width="3" stroke-linejoin="round" d="M258.3 109.2c-.1-3.6-1.7-7.7-5.2-8.4-3.6-.7-4.6-1.2-8 .2-26.3 11.3-52.8 65.6-52.8 65.6 5.6-30.7-20.6-42.4-29.4-45.2.1 4.3 1.6 8.9 3.6 13.5-11-10.7-27.1-15.2-38-10.6 2.2 2.8 5.6 5.3 9.3 7.9a45.8 45.8 0 0 0-37.2 10.7c11.8 1.8 13.9 6.5 26.4 10.9-2.9 2.1-5.4 2.2-8.5 4.4 8.2 2.6 14.7 11.1 31 7.3 8.9-2.1 6.4 8 1.1 8.9-14.3 2.3-23.9-17.8-48.7-.7 1.4 2.3 5.9 2 9.8 3.6-18 .3-26.4 11.5-33.8 20 6.1-1 11.6-.3 16.2-2.2-19.2 7.7-22.4 29.5-23.9 34 7.5.7 18.2 1.1 25.3-3.8a70 70 0 0 0-5.4 10.3c30.4-5 30.1-16.6 45.4-23.7 6.3-2.9 16.3 2 2.7 9.6-12.1 6.8-15.7 1.7-29.8 20.6 4.1 1.5 10.1-1.4 13.7-.9-8.5 5.6-20.8 18.1-21.4 27.3 3.6-.9 8.5-2.3 13.9-5.9-5 8.3-12 19.2-6.6 37.9 3.5-2.5 7.1-6.5 9.6-10.3-3.2 12-.4 24.9 3.5 26.9s16.1-3.3 23.6-13.3a40 40 0 0 0-2.5 13.9c18.2-6.9 22.8-19.1 26.4-28 .3 6.5 2.2 11.2 3.6 14.7 7-6 9.6-23.4 9-33.5 2.6 2.6 3.9 9.1 7.5 11.5 6.6-22.6.5-22.5-1.4-36.2-2.1-15.4 7.9-10.4 9.3-3.6 3.5 16.5-6 23.2 8.2 50.5 1.6-2.6 3.3-6.1 5-10.5.3 8.6 7.1 16.9 12.1 22.5 2.7-3.9 18.2-19.6 12.9-39.5 1.2 4.8 5.1 8.8 7.9 14.3 2.4-11.1 6.4-24.5-4.2-39.1 3.6 2.2 6.1 6 8.8 5.7-1.2-30.2-23.1-25.7-29.8-38.6-2.5-4.8 4.1-12.8 7.7-4.5 6.7 15.3 17.5 15.4 24.4 20.4-.2-3.8-1.5-5.8-1.6-9.4 11 7.3 16 6.3 24.5 14.6.4-6.6.1-23.1-13.7-36.2 4.3 1.5 8.4 2.6 11.9 2.7-2.8-11.5-16.1-21.7-31.3-24.1a38 38 0 0 0 13-5.2c-7.5-5.4-32.6-19.3-53.8 3.6 0 0 27.9-52.5 59.1-59.8.6 0 .6-.5.6-.8"/>
      <g stroke="none" fill="#000">
        <path d="m193.7 167.3-2.6 5.3-2.9 6.1-3.7 7.9-9 19.9-10.3 22.9a1293 1293 0 0 1-10.8 22.7l-5.2 10.3c-1.7 3.2-3.3 6.3-5 9.1l-2.3 4-2.2 3.5c-1.4 2.2-2.5 4.2-3.6 5.7a886.6 886.6 0 0 0-3.5 4.9c-.1 0-.1-.1 0-.2l2.8-5.1 3.2-5.9 4-7.7 4.7-9.2 5-10.4 5.2-11.2 5.2-11.6 10.1-23c3.2-7.3 6.2-14.2 9-20l3.7-7.9 2.9-6.1 2.6-5.3c.4-.7 1.3-1.1 2-.7.8.3 1.1 1.2.7 2z"/>
        <path d="m200.2 170.5-1.4 2.8-3.8 7.3-5.4 10.4-6.1 11.9-6 12-2.7 5.6-2.4 5-2.1 4.2-1.6 3.2a46 46 0 0 1-1.5 2.8l-.2.1-.1-.2 1-3c.6-1.9 1.6-4.6 2.9-7.8l2.1-5.1 2.5-5.6 5.7-12.2 5.9-12.1 5.3-10.4 5.3-10.1c.4-.7 1.3-1 2-.6.7.2 1 1.1.6 1.8z"/>
        <path d="m198.9 177-.3 1.1c-.3.7-.5 1.7-.7 3.1a15 15 0 0 0-.2 2.2v1.3l.1 1.4c.1 1.9.4 3.9.9 6.2a102 102 0 0 0 2 7.2l2.8 7.8 3.3 8.3 3.5 8.6 3.5 8.6 3.2 8.5 2.7 8 1.1 3.8.9 3.5a73.5 73.5 0 0 1 2.3 11.1l.4 3.1.1 1.1-1.2-4.1-1.4-4.7-2-6-2.5-7.1-3-7.8-3.4-8.3-3.5-8.6-3.5-8.6c-1.1-2.9-2.2-5.7-3.1-8.5a105.2 105.2 0 0 1-4.1-15.6l-.4-3.4v-3.1c0-1.9.4-3.6.7-5 .1-.7.4-1.3.6-1.8l.5-1.2.7-1.1z"/>
        <path d="m255.9 206.3-2.1-1.9-5.8-4.7-4-2.9-4.6-3a115 115 0 0 0-10.4-5.9 139 139 0 0 0-5.4-2.8l-5.3-2.5-5.1-2.2a71.7 71.7 0 0 0-11.7-3.8h-2c-.5.1-.6.4-.6.4s.1-.3.5-.6 1.2-.5 2.1-.5c1.9-.1 4.5.2 7.5 1a77.9 77.9 0 0 1 21.3 8.4l5.4 3.1 5 3.3 4.5 3.4 3.8 3.3a39 39 0 0 1 5.1 5.6l1.3 1.7.5.6z"/>
        <path d="m95.3 207.1 1-.6 2.8-1.5 4.4-2.2 5.9-2.6 3.4-1.4 3.7-1.4 8-2.7 8.7-2.6 9-2.4 9-2.3 8.7-2.3 8-2.4c2.5-.9 4.8-1.7 6.9-2.7 2.1-1 4-1.9 5.5-3l1.1-.8 1-.8 1.7-1.5c.9-1 1.7-1.8 2-2.4l.6-.9-.5 1-.7 1.2c-.3.4-.6 1-1.1 1.5-.9 1.1-2 2.3-3.6 3.5l-2.5 1.8-2.9 1.7a123 123 0 0 1-23.6 8.7l-9 2.4-9 2.3-8.7 2.3-8.1 2.3-7.2 2.2-6 2-4.6 1.7c-2.4 1.4-3.9 1.9-3.9 1.9z"/>
        <path d="M186.7 170.9v-.7c-.2-.4-.6-1-1.2-1.6a29.9 29.9 0 0 0-5.9-4.4l-4.2-2.6a103 103 0 0 0-10-5.4 284 284 0 0 0-5.5-2.7l-5.5-2.5c-1.9-.8-3.7-1.6-5.5-2.2a171.4 171.4 0 0 0-9.9-3.4 57.4 57.4 0 0 0-10-2.4h2.8a71.7 71.7 0 0 1 17.9 3.4l5.7 2a141 141 0 0 1 11.3 5.3l5.2 3c1.7 1 3.2 2.1 4.7 3.1s2.8 2.1 4 3.1c2.4 2 4.3 3.9 5.3 5.5.5.8.8 1.5.9 2l-.1.5z"/>
      </g>
    </g>
  </g>
</svg>
