<svg xmlns="http://www.w3.org/2000/svg" fill="#d7374a" stroke="#000" viewBox="50 50 200 200">
  <metadata source="http://wappenwiki.org/images/2/29/Canillac.svg" license="https://creativecommons.org/licenses/by-nc-sa/3.0"/>
  <g id="greyhoundRampant" stroke-width="3" transform="translate(55.5 47.5) scale(0.114)">
    <path class="secondary" d="M212.6 592.9c-5.2 0-10.1-3.3-14.7-4.3l-.6-.1c-3.2-.2-4.5.8-4.8.4-.5-.5 1.5-2.9 2.5-4 6.9-6.9 17.9-4.9 17.9-5M431.7 782.3c-4.1 3.3-10.1 3.8-14.4 6-2.8 1.9-3.2 3.6-3.7 3.5-.7-.1-.7-3.2-.5-4.7 1-9.7 10.9-15 10.8-15.1M489.4 765.2c-2.2-6.8-11.7-7.8-9.9 1.8 3.7 2.6.2 9.5 1.9 9.6 4.6-.9 8.4-6.2 8-11.4z"/>
    <path class="secondary" d="M442.6 790.1c-4 3.5-10 4.2-14.2 6.5-2.8 2-3.1 3.7-3.6 3.7-.7-.1-.8-3.2-.7-4.7.7-9.7 10.3-15.4 10.2-15.5"/>
    <path class="secondary" d="M452.6 798.6c-4 3.5-10 4.2-14.2 6.5-2.8 2-3.1 3.7-3.6 3.7-.7-.1-.8-3.2-.7-4.7.7-9.7 10.3-15.4 10.2-15.5M216.3 605.9c-5.2.2-10.2-2.9-14.9-3.8l-.6-.1c-3.2-.1-4.4.9-4.8.6-.5-.5 1.4-3 2.4-4.1 6.6-7.1 17.7-5.5 17.7-5.7M260.5 617.8c-.6-6.5-8.4-9.7-9.8-1.7-.1.6 0 1.3.3 1.9 1.8 3.5-2.7 8.5-1.2 9.1 4.4.4 9.4-3.4 10.6-8.4l.1-.9z"/>
    <path class="secondary" d="M218.7 618.8c-5.2.2-10.2-2.9-14.9-3.8l-.6-.1c-3.2-.1-4.4.9-4.8.6-.5-.5 1.4-3 2.4-4.1 6.6-7.1 17.7-5.5 17.7-5.7"/>
    <path d="M454.3 581.4a64.2 64.2 0 0 1-39.4 15.9c-12.8-.2-18.5.4-29.5-6-7.4-4.3-13.4-9-21.1-12.5-7.8-3.6-15.7-.3-17.2 10.1-3.8 14.9 27.7 41.2 12.3 49.2-6.7 5.1-13.2 3-14.9 4.2-18.9 14.1-34.7-.9-45.7-5.7-20.3-10.2-29.4-15.1-38.7-16.7-1.9-3.6-4.8-4.4-8-2.4-.6.4-1.3.5-2.1.5-3.4.1-15.9 9.5-22.5 7.4a22.1 22.1 0 0 1-8.4-4.2 3.1 3.1 0 0 1-.7-3.4c.8-1.6.7-3.9.3-6.4l-.1-.5a8.9 8.9 0 0 0-2.7-4.5 3 3 0 0 1-1-3.3c.5-1.6.9-3.8.2-6.4-.5-1.5-1-2.4-1.6-3-.7-.8-1-2-.7-3 .4-1.3.8-3.1.4-5.3-.4-2.4-1-3.8-1.6-4.6a3 3 0 0 1 1.6-4.6l.4-.1.5-.1c2.1-.2 2.3.3 3.7 1 1.4.7.9.7 3.8 1.6 11.5 1.5 11.6 10.2 23.1 11.1 28.8-1.1 64.2 27.9 75.5 23.1-5.5-13.7-28.9-25.9-35.7-57.2-2.5-11.2 4-33 15.6-43.7 6.7-6.2 17.3-10.2 32.2-12.3 25.6-3.5 92 48.6 124.1 36"/>
    <g>
      <path class="secondary" d="M255.8 215.4c5.9-2.5 6-11.1-2.4-8.7-2 3.5-8.4 1-8.4 2.5 1.1 3.9 6.1 6.9 10.8 6.2zM240.1 166c-6-.1-11.6-8.7-18.3-8.7-1.9 0-1.4-.2-.6-.9 7.8-7.3 18.9-2 19-2.1M229.5 180c-6-.1-13.4-8.7-18.3-8.7-1.7-.1-.6-.9-.6-.9 7.8-7.3 19.2-1.9 19.2-2M226 194.5c-5.3 2.7-14.5-1.2-20.2 1-1.1.4-1-.5-1-.5 3.4-10.1 15.8-10.7 15.7-10.8"/>
      <path d="M337.4 311.8s-20.9-4.5-32.1-20.4c-8-11.4 1.6-35.6-.6-48.5-.8-9.6-.7-15-3.5-21.2-3.5-7.8-11.3-10.8-15.3-16.8-4.6-5.5-7.1-11.1-14.1-17.3-2.2-1.9-5.5-7-6.6-8.3-1.5-1.8-2.1-4.5-3.5-6.5-2.2-3.1-5.5-4.3-8.7-6.1-2.1-1.2-4.5-6.3-4.4-7.3.2-2-1.4-4-2.8-5.1-1.4-1-2.2-1.1-3.9-1.4-1.6-.3-2.6.9-2.6.9s2.1 1.7 0 6.8c-1.5 3.7-3.6 3.8-3.7 4.1-.2.4-.8 1.6.5 2.6l-1.5-.8a7 7 0 0 0-4.3-.5c-1.1.1-2 1.1-2.1 1.7.2.3 1.1 2.1.2 5.2-1.8 5.3-4.3 5.1-4.3 5.1s1.1 2 1.8 2.2c-.4 0-.9-.1-1.6 0-.8.1-2.6.4-4.3 1.7-.9.6-1.2 1.8-1.1 2.4.3.2 2.2 1.3 2.8 4.4.9 5.5-.9 6.7-.9 6.7.5 2.5 2.6 2 4.6 2.1 2 .1 2.8-1.5 5-1.9 3.1-.5 6.7 3.1 10.8 2.8 2.3-.1 4.4-1.1 6.8 0 7.4 3.4 3.6 10.8 4.6 8.7 3.8 2.1 4.5 5.2 1.8 8.3.8 0 1.1.8 3.7 2.7 5.9 8 8.5 6.7 14.9 13.9 3.8 8.8-.2 8.8 1.2 17.5 3.6 33.2-7.5 42.4 1.8 61.1 6.5 12.9 1.4 12.4 10.4 28.2 6.1 10.6 16.8 18.4 21.2 24.1 11.4 12 25.2 9.7 25.7 11.3"/>
      <path fill="none" d="M239.8 172.6c-2.3-2-2.5-3-2.5-3s1.5 1.8 3 1.5c1.7-.1 3.4 3.6 3.4 3.6s-1.6-.1-3.9-2.1zM231.5 183.4c-2.9-.9-3.6-1.7-3.6-1.7s2.1 1.1 3.4.2c1.5-.8 4.6 1.9 4.6 1.9s-1.5.4-4.4-.4z"/>
      <g stroke="none" fill="#000">
        <path d="M245.1 169c1.5-2.7 2.6-6 2.1-8.9h3c-.5 3.6-2.4 6.6-4.9 9.2.1-.1-.2-.3-.2-.3zM267.1 192.7c-2.3 1.1-5.2-.2-6.3-2.3l.2-.3c2.3.1 4.5 1 6.1 2.6zM261.3 186.7c3.3-.5 5.3 2.5 7 4.8l-.1.3c-.8 0-1.6-.3-2.2-.7-1.1-.7-2.2-1.9-3.1-2.8-.4-.5-1.4-1.2-1.6-1.6zM224.3 155.9c3.5-.7 7.8.4 9.9 3.6l-.1.1c-3.1-1.9-6.4-2.7-9.8-3.7z"/>
      </g>
      <path fill="none" d="M237.2 169.5c-.3-1.3-.6-1.7-1.1-2.1"/>
      <g stroke="none" fill="#000">
        <path d="M243.8 173.2c3.8 1.2 3.4 5.7 6.6 7.5l-.1.3c-2.4-.6-3.8-2.9-5.6-4.3-.5-.4-1.1-.6-1.3-.5l.4-3zM235.1 178.8c1.5-2.7 2-6.1.6-8.9l2.9-.9c.7 3.6-.8 7.4-3.3 10l-.2-.2zM213.7 169.9c3.5-.8 7.7.4 9.8 3.5l-.1.1c-3.1-1.9-6.4-2.6-9.7-3.6zM235.6 182.2c4.7-.3 6.3 5 10.6 5.4v.3c-2.9.6-5.5-1.8-8.1-2.6-.8-.3-1.6-.3-1.9-.1l-.6-3zM230.5 193.3c-1-3.2-.8-5.9-1.5-9.2l.3-.3c4 1 4.3 7.6 1.2 9.5zM208 193.6c2.8-2.3 7.1-3.2 10.4-1.4l-.1.2c-3.5-.3-6.8.5-10.3 1.2z"/>
      </g>
      <path fill="none" d="M227.9 181.6c-.9-1-1.3-1.2-1.9-1.3"/>
    </g>
    <g stroke="none" fill="#000">
      <path d="M292.1 306.4c4.4 6.1 8.2 12.3 12.2 18.5l5.9 9.4c1.9 3 4 6.2 7.8 6.7-6.8 1.5-12.8-9.7-16.2-14.5a88.9 88.9 0 0 1-9.7-20.1zM282.3 225.3c0 2.8 1.5 4.7 3.3 6.4 2 1.8 4.6 3.1 6.2 5.4-3-.4-5.8-1.1-8.2-3.2-2.3-1.9-3.8-6.3-1.3-8.6z"/>
    </g>
    <path d="M471.6 159.3s-6.2-11.6-13.5-22c-5.8-8.4 1.1-15.7-5.9-19.3-5.9-3.1-10.4-9-18.6-7.2-7.7 2.6-10.9 13.1-18 18.9M443 562.1c-.1-1.2-4.9-18.5-6.1-20.7-4-9.3-12.1-18.6-12.1-18.6s-3.4-3.6-1.4-5.6c.8-.8 2.2-1.7 4.1-1.2 5.7 1.6 16.6 10.4 16.6 10.4"/>
    <g>
      <g stroke="none" fill="#000">
        <path d="M212.5 604.8c2.3-3.1 6.9-4.2 10-2l.6.4-.2-.1c1.1.4 2.2.9 3.4 1.1 3.5.8 7.3-.3 10.7 1.3v.3c-2.2.3-5 .8-7.2 1-2.9.3-6.5-.3-8.3-1.4-.7-.5-1.6-.9-2.4-.8a5 5 0 0 0-4.1 1.9 22 22 0 0 1-2.5-1.7z"/>
        <path d="M223 603.1c3.8 1.8 5 9.1 3.2 12.6l-.3-.2c.5-1.9 0-4-.7-5.8-.6-1.5-1.7-3.4-3-3.8l.8-2.8zM221.5 587.1c-.4-3.4-2-6.6-4.6-8.7l2.1-2.1a14 14 0 0 1 2.8 10.8h-.3zM243 595c4.1.1 7.8 1.4 11.9 1.3l.1.3c-3.3 2.4-9.3.9-12-1.6zM254.2 598.9c-2.6 2.4-6.6 1.8-9.3 0v-.3c1.6-.3 3.1-.1 4.7 0 1.5.2 3.1.1 4.6.3zM195.7 586.6c3.6-2.4 8.7-.7 12 1.6l-.1.2c-3.9-.9-7.9-2.5-11.9-1.8zM248.6 618.5c-.2-2.1.3-4.2 1.2-6.1 0 .2.2.2.3.1l-.3-.1c.1-.1.2-.2.3-.1v.3c0 1.7.3 3.6 1.3 5l-2.8.9zM254.1 615.8c1.9 2.7.3 6.6-1.9 8.6l-.2-.1c.9-2.9 2.2-5.6 2.1-8.5zM210.7 591.9c2.1-2.8 6-3.9 9-2.6l1.6 1-.2-.1c1.2.5 2.2 1.3 3.3 1.9 1 .5 2 1 3 1.3 2.1.7 4.6.4 6.7 1.5v.3c-2.4.3-4.7.9-7.2.3-2.5-.5-4.7-1.6-6.8-2.8l.4.2c-.5-.1-.9-.4-1.3-.7-.7-.4-1.4-.6-2.1-.5-1.5 0-3 .7-4 1.9l-2.4-1.7z"/>
        <path d="M221.1 590.1c3.8 1.8 5 9.1 3.2 12.6l-.3-.2c.5-1.9 0-4-.7-5.8-.6-1.5-1.7-3.4-3-3.8l.8-2.8zM199.2 600.1c3.6-2.5 8.6-1 12 1.1l-.1.2c-3.8-.7-7.9-2.1-11.9-1.3zM201.7 613c3.6-2.5 8.6-1 12 1.1l-.1.2c-3.9-.7-7.9-2.1-11.9-1.3z"/>
      </g>
    </g>
    <path d="M509.6 510.3c-13.4-44.8-36.2-46.2-52.8-81.8a109 109 0 0 1 7-106.9 188.7 188.7 0 0 0 25-62.3 110.9 110.9 0 0 0 7.2-64.2c-4.4-17.5-2.1-27.5-6.5-36.4a66 66 0 0 0-19.1-22.6c-2.4-2-4.9-4-7.8-5.2-2.4-1-5.1-1.4-7.6-1.8l-25.7-3.8c-7.4-1.1-10.4.5-17.8-1-19.4-3.9-21.5 7.7-28.5 13.9-2.9 1.6-18.1 6.3-33.6 7.2-16.6.9-27.9 4.1-35.8 5.7-11.7 2.9-4.8 11.3-4.6 15.4 1.3 10.8 8.9 12.6 12.2 15.2a36.7 36.7 0 0 0 21.5 9.3c-.1 2.9.5 6.2 4.2 6.8 6.2 1 9.3.1 17.8 3.9 8.1 3.6 18 .6 23.7 3.9a84 84 0 0 0 29.8 7.3c5.4 3.5 3.3 23.2-4.8 37.9-11.1 20.1-36.8 10-54.2 40-16.7 7.1-40.6 18.7-48.3 35.9a89 89 0 0 0-6.2 59.8c4.7 22.1 20.1 38.5 44.5 56.1 21.9 20.1 42.7 31.5 65.8 48 19.3 13.8 34.8 35.9 24.9 64.6-7.7 24.3-24.8 30.5-22.5 68 1 15.8 7 37.7 22.6 52.8 10.8 10.4 13.5 18.9 16.1 34.2 3 19.5 0 32.7-1 40.5-.5 3.5-2.7 9-3.9 9.9-9.6 6.6-14.1 1-21.5 5.2-2.8 1.1-2.4.8-3.9 1.1-1.6.4-2.1.1-3.8 1.7-2.4 2.9-1 5.3-1 5.3s1.9-1.6 6.4 2.4c3.3 3 3.5 6.5 3.5 6.5s1.6-1.1 5 1.2c4.4 3.1 4.4 7.8 4.4 7.8s2.2-2.5 7.4 1.1c2.5 2.2 4.4 4.6 3.9 6.7 1.5 1.2 5.4 1.3 11.8-1.2s9.3-8.5 10.4-13.2c1.6-6.9 2.1-10.3 2.8-13.7.7-3.4 2.2-4.1 3.2-3.4 2.8-4.1 6.2-4.5 9.5-1.2 0 0 .7-1.8 0-5-.9-3.9-3.9-8.5-5.3-20.3-.6-4.9-2-6.1-2.2-13.9a50.5 50.5 0 0 1 9.8-33.7c5.3-6.5.2-11.4-.3-12.3-.4-.7-1.5-1.3-3-2.9-2.4-2.5-9.5-4.7-10.3-10.5-2.4-14.8 8.7-24.4 20-39.4 10.7-14.2 18.1-17.9 23.2-40.4a80.3 80.3 0 0 0-2.8-51.6 97.7 97.7 0 0 0 71.1-4.4c37.4-18 48.9-62.4 29.5-101.7-16.5-33.4-53.5-45.4-74.8-42.3 23.1 6.3 47.3 17.3 61.7 46.5 15.6 31.6 2.8 67.5-24.3 80.5-28.2 13.8-61.9 4.4-72-5.2z"/>
    <g stroke="none" fill="#000">
      <path d="M319.9 611.6c4.5-.3 10.8-1.6 11.3-7.1.4 2.7-1.2 5.3-3.4 6.8a22.6 22.6 0 0 1-7.3 3.2l-.6-2.9zM358.7 559.6c7.9.1 15.5 1.1 23.1 3.1-7.6 2.2-16.3 1-23.1-3.1zM458 661.3c5.4-.9 9-4.7 11.6-9.2l2.8-4.8c.3 3.9-.8 7.9-3.4 10.9-2.7 3-7.3 4.9-11 3.1z"/>
    </g>
    <g>
      <g>
        <path d="M474.1 149c2.6.3 7.3 3.6 10.3 3.6 6.8 0 12.5 4 17.5 3.9 5-.1 21.8 7.6 25.2 3.2 3.4-4.3-14.2-16.4-14.2-16.4s-9.6-8.2-19.6-15c-8.1-5.5-14.5-11.9-22-12.8-6.4-.7-12.4-4.5-19.1 0a51.6 51.6 0 0 0-15 15.4"/>
        <g stroke="none" fill="#000">
          <path d="M445.5 149.6c.7-8.5 4.7-11 11.6-14.7 3.9-2.7 5.9-8 10.7-9.5 8.1-1.9 15.1 4.5 20.9 9.1 8.6 6.9 20.5 9.6 27.8 18.3-7.2-6.1-16.6-8.3-24.7-12.9-4.9-2.6-9.1-7-13.7-9.6-2.9-1.6-6.4-3.1-9.6-2.4-3.4 1.1-5.3 4.4-8.1 6.6a14.9 14.9 0 0 1-5 2.9c-5.7 2.3-9 6.2-9.9 12.2zM438.4 131.7c-3 4.1-6.5 8.3-11.6 9.8 4.5-2.5 6.9-6.9 9-11.4l2.6 1.6z"/>
          <path d="M451.4 148.3c2.4-1.4 4.2-3.3 6-5.3 2.4-2.6 2.7-2.5 1.5 1-1.1 2.8-4.4 5.4-7.5 4.3zM473.9 150.5c-4.4-1.2-8.6 1.6-11.3 5-1 1.2-1.8 2.5-2.7 3.9 1.2-3 2.7-5.9 5-8.2a12 12 0 0 1 9.5-3.7l-.5 3z"/>
        </g>
      </g>
      <g stroke="none" fill="#000">
        <path d="M342.6 189.4c8.7-.4 25.9.6 32.7 6.3a8 8 0 0 1 1.5 1.7c-2.5-1.6-5.3-2.3-8.1-3.1-8.5-1.9-17.4-2.1-26-1.9l-.1-3zM310.2 165.3l.2.1c-.1-.1-.7 0-.8.1 1.2-1.7 1.6-4 3.7-5.3.8-.3 1.7-.4 2.6-.2 1.3.3 2 1.2 2.8 1.9l.3.1c.4-.2.8-.8 1.6-1.2.3 1.3-.9 3-2.4 2.6-1.3-.4-2.3-1.5-3.5-.7-.1 0 0 0 0 0-.6 1.1-1 3-1.7 4.3a5 5 0 0 1-1 1.3c-.6.6-2 .9-2.7.5-.8-.3-1.2-.8-1.5-1.1l2.4-2.4zM324.9 159.1c1.2 2.5 1.6 5.8-.6 7.9-2.2 2-5.9 1.9-7.7-.3 1.3.2 2.4.1 3.5-.2 3.8-.9 3.4-4.3 4.8-7.4zM418.3 211.3c5.6.9 11.6.1 16.3-3.3a21.6 21.6 0 0 1-11.9 5.8c-1.5.3-3 .4-4.6.4l.2-2.9zM388.3 174.7a9 9 0 0 1 4.5 2.4c-1.8 1.1-4.4-.3-4.5-2.4zM388.9 181.6c1.3 1.1 2.6 1.6 3.3 3.3-1.8.6-4.3-1.4-3.3-3.3zM390.1 189.4c1.3 1.1 2.6 1.6 3.3 3.3-1.8.6-4.3-1.4-3.3-3.3zM442.1 207.8c3.8-3.9 6.7-8 9.1-12.8.9 5.7-3.4 11.8-9.1 12.8z"/>
      </g>
      <g>
        <g>
          <path fill="#F6F6F6" stroke-width="2.8982" stroke-linejoin="round" d="M394.4 143.6c7.3.2 10.2 6.7 15.3 9.7a27.9 27.9 0 0 1-15.4 1.1c.1 0-2.4-3.3.1-10.8z"/>
          <g stroke="none" fill="#000">
            <path d="M395 155.7c-2.1.4-4.2.5-6.3.4 1.8-.8 3.5-1.9 5-3.1l1.3 2.7zM410.3 152c1.7 1.1 2.4 3 4.3 3.7-1.8.4-3.7-1-5.4-1l1.1-2.7zM396.2 134.2c4.1-2.2 9.1.3 12.2 3.2 3.2 2.7 5.3 6.5 9.5 7.9-1.1.2-2.2 0-3.3-.4-6.7-2.9-10.4-11-18.4-10.7z"/>
          </g>
        </g>
        <g stroke="none" fill="#000">
          <path d="M409.6 158.1a28.2 28.2 0 0 0-9.8 6.9c-.2-4.7 5.5-8.7 9.8-6.9zM395 143.8c-.5 3 .1 4.7.5 6.4.2.8.7 1.2.9 1.5.2.3 1.9.2 2-.6.1-1.7.1-4.5.6-5.9"/>
          <path d="M393.9 135.9c-1.7.1-3 2.6-2.7 4.1.7 1.6 2.8 1.2 4.3 1.4l4.2.5a23.7 23.7 0 0 1 14 8.6 61 61 0 0 0-14.6-5.8l-3.8-.8c-1.2-.3-2.9-.3-4.3-1.4-1.6-1-1.7-3.3-.6-4.7.7-1.1 2.1-2.4 3.5-1.9z"/>
        </g>
      </g>
    </g>
    <g stroke="none" fill="#000">
      <path d="M439 791.6c-.2-4.1 3-7.9 7.1-8h.2l-.2.1c1.1-.4 2.3-.7 3.3-1.2 3.2-1.5 5.5-4.8 9.1-5.7l.2.3c-1.5 1.6-3.3 3.8-4.9 5.3-2 2.1-5.3 3.9-7.4 4.2-.9.1-1.7.3-2.3.9a5 5 0 0 0-2 4l-3.1.1z"/>
      <path d="M446.1 783.7c4.1-1 9.7 4.1 10.4 7.9l-.3.1a9.5 9.5 0 0 0-4.2-4c-1.4-.8-3.5-1.6-4.7-1l-1.2-3zM434.9 772.2a12.5 12.5 0 0 0-9.1-3.8l.4-3.1c3.8.9 7.1 3.4 9 6.7l-.3.2zM456.4 765.7l1.4-2c1.4-2 1.8-4.2 3.2-6.3l.3.1c.7 3.3-1.2 7.9-4.9 8.2zM462.2 758.5c1.7 2.4 1.4 6.7-1.5 8l-.2-.2.5-1.9.7-3.8c.1-.6.1-1.5.5-2.1zM414.5 788c1.3-4.1 6.3-6 10.3-6.3v.2c-3.5 1.8-7.6 3.1-10.3 6.1zM478 768.8c-.8-2-.9-4.1-.4-6.2 0 .2.3.2.3 0h-.3c0-.1.1-.2.3-.1l.1.3a9.1 9.1 0 0 0 2.7 4.5c-.1-.3-2.7 1.5-2.7 1.5zM482.5 764.6c2.5 2.1 2.1 6.2.5 8.8l-.2-.1c.2-3 .7-5.9-.3-8.7zM429.4 782.7a7.7 7.7 0 0 1 5.4-7.7l1.9-.3-.2.1c1.2-.4 2.6-.3 3.8-.6l3.1-.8c2.1-.8 3.9-2.6 6.2-3l.2.3c-1.7 1.8-3.1 3.7-5.4 4.8a23.4 23.4 0 0 1-7 2.1l.4-.1-1.5.3c-.8.1-1.4.4-1.9.9a5.1 5.1 0 0 0-1.9 4h-3.1z"/>
      <path d="M436.5 774.8c4.1-1 9.7 4.1 10.4 7.9l-.3.1a9.5 9.5 0 0 0-4.2-4c-1.4-.8-3.5-1.6-4.7-1l-1.2-3zM425.7 796.3c1.2-4.2 6.1-6.2 10.1-6.7l.1.2c-3.6 1.9-7.6 3.4-10.2 6.5zM435.8 804.8c1.2-4.2 6.1-6.2 10.1-6.7l.1.2c-3.6 1.9-7.6 3.4-10.2 6.5zM504 527.5l7.5 4.8 2 1c1 .5 1.9 1 3 1.3.8.3 2.2.9 3 1l-1.3 3.5-3.9-2.8-10.3-8.8zM485.6 529.7c18.3 10 23.9 36.1 22.7 55.4h-.4c-2.5-19.8-6.5-41.8-22.3-55.4zM393.7 454.3c3.7 1.1 6.8 2.9 9.6 5.6a8.3 8.3 0 0 1-9.6-5.6zM408.6 462.7c4.3 2.9 7.4 6.5 11.6 9.7-5.6.6-10.5-4.5-11.6-9.7zM425.9 476.8c2.1 1.5 3.7 3.2 5.6 4.7 1.8 1.5 4.5 3.1 5 5.7-2.4-1.3-4.6-1.8-6.8-3.5a10.7 10.7 0 0 1-3.8-6.9zM442.3 491.6c2.9 3.5 7.6 6.7 6.8 11.9-2.7-3.5-7.5-6.8-6.8-11.9zM342.6 418.7c1.4-.6 2.4.6 3.2 1.5 1.5 1.2 1.8 3.3 2.6 4.8.1.2.1.2.4.3 1.3.6 2.7.9 4.1 1.3 8.1 2.2 9.9 10.6 15.3 15.4.8.6 1.5.6 2.5.6 6.7-1.3 8.5 3.5 12.4 7.5.9.8 1.9 1.4 3.1 1.6-1.2.2-2.5-.2-3.6-.9-4.4-2.8-5.9-7.2-11.7-5.5-1.4.2-3.2.1-4.4-.8-5.1-4-7-10.8-12.2-14.6-2.2-1.3-5.1-1.6-7-3.5-1.2-1.8-.7-4-2.1-5.6-.7-1.1-1.2-2.3-2.6-2.1z"/>
    </g>
    <g>
      <g stroke="none" fill="#000">
        <path d="M489.5 218.9c.4 3.2.4 6.3.5 9.5l-.1 3.4c-1-.8-1.7-1.8-2.2-2.9-1.4-3.3-.9-7.5 1.8-10zM422.1 259.3c-2.1 4.5-5.5 7.5-8.1 11.7-1.5-5.3 3.2-10.5 8.1-11.7zM434.4 251.9c.5 2.7-.9 5.3-2.6 7.2a12.8 12.8 0 0 1-6.5 3.9c.5-1.3 1.2-2.3 2-3.3 1.5-1.8 5.4-6 7.1-7.8zM446.2 514.6c3.3 13.7-.1 28.1-4.8 41.1l-2.9-1a85.8 85.8 0 0 0 8.1-29.7 51 51 0 0 0-.6-10.3c-.1-.1.2-.1.2-.1zM479.2 695.3c-5.8-2-3-10 2.2-10.7l.3.4-1.5 2.7c-.9 1.6-1.6 2.8-1.5 4.6-.1.8.3 1.7.5 3zM390.8 391.6c3-4.4 1.3-9.1.6-14.3-.5-5.4.5-11.2 3.9-15.5l.3.1c-.5 2.7-1.2 5.1-1.6 7.6-.9 5.4.8 9.8 1.5 15.4.1 3-.5 5.9-2.3 8.4l-2.4-1.7zM376.8 312.7c11.8-1.6 24.5 6 28.7 17.2a55.7 55.7 0 0 0-28.7-17.2z"/>
      </g>
      <path class="secondary" d="M220.8 387c-.5-6.4-8.7-9.1-9-.4 2.7 3-1.7 8.3-.2 8.8 4 .2 8.5-3.7 9.2-8.4zM169 386.9c-2 5.7-11.8 8.4-13.9 14.7-.6 1.8-.6 1.3-1.1.3-4.6-9.7 3.9-18.6 3.8-18.7M179 401.3c-2 5.7-11.8 8.4-13.9 14.7-.6 1.8-.6 1.3-1.1.3-4.6-9.7 4.1-18.8 4-18.9M191.8 409c1 5.9-6.4 13-5.3 19.5.3 1.9.1 1.4-.8.8-8.6-6.4-5.3-18.3-5.5-18.3"/>
      <path d="M335.6 354s-21 7.9-28.7 12.4c-12 7-32-15.6-45-17.4-9.3-2.2-13.9-5.8-20.7-5-8.5.9-14.3 9.2-21.3 11.2-6.6 2.7-12.7 3.4-20.8 8.1-2.5 1.5-8.4 3.1-9.9 3.7-2.2.9-4.9.6-7.2 1.3-3.6 1.1-5.8 4-8.5 6.4-1.8 1.7-7.4 2.3-8.3 1.9-1.8-.8-4.3.1-5.7 1.1-1.4 1-1.7 1.8-2.5 3.3-.8 1.5 0 2.8 0 2.8s2.2-1.5 6.5 2.1c3.1 2.6 2.5 4.6 2.7 4.8.3.3 1.3 1.3 2.6.4l-1.2 1.2c-.5.6-1.5 1.8-1.8 4-.3 1.1.4 2.2.9 2.5.3-.1 2.3-.4 5 1.4 4.5 3.3 3.5 5.6 3.5 5.6s2.3-.4 2.6-1l-.5 1.6c-.2.8-.5 2.6.3 4.7a2.6 2.6 0 0 0 1.9 1.8c.3-.2 1.9-1.7 5.1-1.3 5.5.8 6.1 2.9 6.1 2.9 2.5.3 2.7-1.9 3.4-3.8.7-1.9-.6-3.2-.3-5.3.5-3.1 5-5.4 6-9.4.6-2.3.3-4.5 2.1-6.5 5.5-6 11.4-.1 9.7-1.8 3.2-3 6.3-2.7 8.5.8.3-.7 1.1-.8 3.7-2.7 9.5-3.1 10.2-9.5 18.9-13.4 9.6-.9 7.1 6.5 15.9 7.8 17 9 25.8 36.8 46.5 33.7 14.3-2.2 12.2 2.5 30-1.3 12-2.5 22.7-10.4 29.4-12.8a23 23 0 0 1 5.1-1c2.4 0 4.7.6 7.1.8 2.4.2 5-.2 6.6-2 1.2-.1 2.6-.4 3.7-.8a8 8 0 0 0 4.6-4.6"/>
      <path fill="none" d="M175.1 389.2c-2.6 1.6-3.7 1.5-3.7 1.5s2.2-.9 2.4-2.4c.4-1.6 4.5-2.1 4.5-2.1s-.6 1.4-3.2 3zM182.8 400.4c-1.7 2.5-2.7 2.9-2.7 2.9s1.7-1.7 1.2-3.2c-.3-1.6 3.2-3.8 3.2-3.8s.1 1.6-1.7 4.1z"/>
      <g stroke="none" fill="#000">
        <path d="M173.4 383a14.4 14.4 0 0 0-7.9-4.7l.9-2.9c3.3 1.6 5.6 4.3 7.2 7.4l-.2.2zM202.7 369.3a4.9 4.9 0 0 1-4.2 5.2l-.2-.2c.8-2.1 2.4-4 4.4-5zM195.2 373.1c.5-3.3 4-4.3 6.8-5.2l.2.2c-.3.8-.8 1.4-1.4 1.9-1 .9-2.5 1.5-3.6 2.1l-2 1zM154.5 398.8c.4-3.6 2.8-7.3 6.4-8.3l.1.2c-2.7 2.2-4.5 5.2-6.5 8.1z"/>
      </g>
      <path fill="none" d="M171.4 390.7c-1.3-.1-1.8.1-2.3.4"/>
      <g stroke="none" fill="#000">
        <path d="M177 385.5c2.3-3.3 6.4-1.5 9.2-3.9l.2.2c-1.3 2.1-3.9 2.8-5.8 4-.6.4-.9.8-.9 1l-2.7-1.3zM179.7 395.5a10.2 10.2 0 0 0-8.3-3.3l.1-3c3.6.5 6.8 3 8.5 6.2-.1-.1-.3.1-.3.1zM164.5 413.2c.3-3.6 2.8-7.2 6.3-8.2l.1.2c-2.7 2.2-4.4 5.1-6.4 8zM183 396.2c1.2-4.5 6.7-4.5 8.4-8.4h.3c-.4 3-3.4 4.7-5 6.9-.5.7-.8 1.4-.7 1.8l-3-.3zM192 404.4c-3.3 0-5.9-1-9.2-1.4l-.2-.4c2.1-3.5 8.5-1.8 9.4 1.8zM185.3 425.8c-1.3-3.4-.8-7.8 1.9-10.3l.2.1c-1.4 3.3-1.6 6.7-2.1 10.2z"/>
      </g>
      <path fill="none" d="M180.1 403.3c-1.2.5-1.5.9-1.9 1.4"/>
      <g stroke="none" fill="#000">
        <path d="M343.1 360c-1.2 3.1-3.4 5.3-5.6 7.7l-2.4 2.3a6 6 0 0 1 .4-3.5c1.3-3.3 4.2-5.7 7.6-6.5zM342.8 368.6c-.2 3.4-2 6.2-4.9 7.8-.7-3.4 1.5-7 4.9-7.8zM343.6 375.4c.1 2.4-.5 4.4-1.6 6.5-.4.6-.8 1.3-1.5 2a5 5 0 0 1-.9-2.5c0-2.5 1.4-5.2 4-6zM378.7 376.5a41.2 41.2 0 0 0-8.5 13c-2.6-5.6 2.5-12.7 8.5-13zM294.4 401.8c3.6-4.7 10-.8 13.2 2.5-4.9.8-8.4-3-13.2-2.5z"/>
      </g>
    </g>
    <g stroke="none" fill="#000">
      <path d="M334.8 352.7c7-3.5 16.1-6.9 16.4-16h.3c.1 2.1-.2 4.2-1.1 6.2-2.6 5.9-9 8.9-14 12.3l-1.6-2.5z"/>
    </g>
  </g>
</svg>
