<svg xmlns="http://www.w3.org/2000/svg" fill="#d7374a" stroke="#000" viewBox="50 50 200 200">
  <metadata source="http://wappenwiki.org" license="https://creativecommons.org/licenses/by-nc-sa/3.0"/>
  <g id="griffinPassant" stroke-width=".36">
    <path d="M62.96 91.82s.99-.67.49-1.47c-.5-.81-1.05-.6-1.05-.6s-.27.17-.61.22c-.87.1-1.18-.45-1.25-1.02-.04-.25.06-.4.02-.5-.07-.2-1.08.82-.32 2.37.85 1.68 2.72 1 2.72 1zm-1.28-8.86s.84.83.21 1.54c-.64.72-1.14.4-1.14.4s-.23-.22-.57-.32c-.83-.27-1.23.23-1.4.77-.08.25 0 .4-.07.48-.1.2-.91-.98.1-2.37 1.15-1.5 2.87-.5 2.87-.5zm5.1-2.48s-.17 1.17-1.1 1.1c-.96-.1-1.02-.67-1.02-.67s.04-.34-.07-.66c-.29-.82-.93-.85-1.46-.66-.25.08-.33.24-.43.24-.22.03.25-1.32 1.97-1.33 1.88 0 2.1 1.98 2.1 1.98zm4.35 2.8s-.78.9-1.53.3c-.75-.6-.47-1.12-.47-1.12s.21-.25.3-.58c.2-.84-.32-1.22-.86-1.35-.25-.07-.4 0-.49-.04-.2-.1.94-.97 2.38-.02 1.58 1.04.67 2.81.67 2.81z"/>
    <path d="M62.2 82.68c-.45-.16-.64.2-.64.2s.18.54-.16 1.2c-.25.47-.46.67-.8.75-.04.34-.05.52.14.7.22.19.62.32.76.28.25-.04.48-.3.6-.36.32-.15.6.47.97.65.23.13.58.19.66.26.1.07.34.35.36.65.01.3-.06.44.54.76.3.3 0 .4-.11.43-.1.02-.4-.32-.73.26-.33.58.5.63.05.98-.12-.08-.3-.38-.53-.46-.13-.06-.56 0-.8.14-.21.15-.24.32-.26.67.32.13.49.37.64.88.23.7-.05 1.2-.05 1.2s.12.39.6.32c.71-.18.86-.37.84-.99.2-.5.75-.35.83-1 .09-.64.24-.72.51-.91.48-.32 1 .2 1 .2s3.87 3.41 5.42 5.17c.48 0 2.16-.3.7-2.06l-1.17-1.23s-.26-.42-.73-.75c-.07-.26-.54-.66-.85-.83-.1-.29-.53-.65-.83-.77a1.97 1.97 0 00-.86-.85c-.23-.21-.4-.39-.46-.42-.5-.36-.1-.8-.04-.83.04-.04 1.45-.15 1.3-.79-.08-.3 0-.89.4-.97.42-.07.45-.64.85-.66.7.1.89-.2 1.08-.7.13-.46-.23-.63-.23-.63s-.54.2-1.2-.1c-.5-.23-.7-.42-.8-.75-.35-.01-.54-.02-.7.18-.17.22-.28.64-.24.77.05.24.25.36.34.49.1.12.24.55-.26.67-.75.18-.4.62-.48.86-.2.5-.82.58-.72.43.11-.16.2-.5.15-.86-.04-.3-.37-.53-.22-1.03.05-.13.22-.49.14-.82-.19-.6-.27-.6-.35-.73-.08-.11-.13-.27-.05-.36.57-.25.65-.48.51-1.2-.14-.45-.53-.4-.53-.4s-.35.47-1.07.59c-.54.08-.82.04-1.08-.2-.3.18-.45.28-.48.54-.02.29.1.69.23.78.18.18.52.2.65.28.13.07.03.54.3.9.41.75-.06 1.2.1 1.71.15.51.31.5.34.68.03.28-.23.47-.23.47s-.37-.18-.47-.6c-.1-1.27-1.14-1.2-1.51-1.25-.67-.07-.65-.64-.7-.43.14-.56-.17-.89-.68-1.11z"/>
    <path d="M77.32 94.27c-.2-.18-.62-.66-1.42-1.01s-2.71-1.52-2.62-2.87a2.61 2.61 0 00-.52-1.9 1.54 1.54 0 00-1.37-.57c-.14.03-.61.1-.73.35-.05.12.01.13.12.13a.83.83 0 01.97.68c.06.33-.19.8-.38 1.33-.58 1.67.51 2.5.8 2.9.21.28.21.66.23.74-1.1.12-1.53-.1-1.88-.44-.36-.34-1.01.01-1.1-1-.04-.04-.07 0-.07 0s-.47.93.1 1.43c-1.75.53-2.35-.01-2.77-.63-.05-.04-.08-.1-.1-.01-.3 1.78 1.66 2.06 2.4 1.97.75-.1 2.3.65 3 1.18 1.68 1.2 4.84 6.2 5 6.23"/>
    <path d="M86.6 88.3l-.07-.13-.3-.39c-.12-.16-.3-.34-.5-.56a7.39 7.39 0 00-.76-.63 5.1 5.1 0 00-1.36-.68l-.03-.02h-.06l-.07-.02-.16-.04a6.58 6.58 0 00-1.35-.2h-.7c-1.22.01-3.27.44-4.49.26-1.33-.14-2.14-.8-2.3-.91.2-.07.97-.08 1.05-.08.34-.03.13-.09 0-.13-.1-.04-.88-.34-1.6-.87-.7-.51-1.3-1.3-1.41-1.21-.26.18.47 2.55 1.14 3.57.1.14.23.4.23.26 0-.08.06-.82.11-1.07l.04.03c.44.5 1.53 1 2.85 1.14.74.1 2.35.05 3.1-.05.45-.06.9-.1 1.33-.13l.64-.01c.21 0 .41.02.61.03l.59.1.14.03.07.02h.04l.03.02.26.08a5.82 5.82 0 012.08 1.51c.13.14.21.26.27.35l.06.08.03.03.53-.34-.03-.05z"/>
    <path d="M78.73 88.85a.8.8 0 01.28.77c-.13.44-.63.7-.43 1.21a.75.75 0 00.45.42.73.73 0 01.15-.86c.2-.2.6-.22.63-.64 0 .06.04.34.07.45.17.53.5.42.43.82-.05.34-.64.54-.4.62.32.12.75.1 1.08-.24.4-.38.45-.78.36-1 .13.3.8.6 1.31.08-.16-.04-.83-.28-.83-.85 0-.73 1.02-1.1 1.5-1.16"/>
    <path d="M85.72 89.37a3.32 3.32 0 00.27-1.4c0-.64.02-2.05-1.25-3.53-.62-.72-1.22-1.11-2.66-1.43a1.89 1.89 0 01-1.36-1.07 4.56 4.56 0 01-.46-1.56c-.05-.66-.03-.84-.02-1.08.04-.6.23-1.16.23-1.16-.5-.08-1.44-.12-1.69.68-.72-.1-2.92.78-3.34 2.82a3.23 3.23 0 00.59 2.57c.2.2.34.19.3-.1-.06-.48.37-1.07 1.1-1.35 1.65-.62 2.86.76 3.33 1.1 1.23.99 1.77.2 3.1.9 1.25.68 1.63 2.44 1.52 2.63a5.04 5.04 0 00-1.84-.37c-1.02.03-1.83.7-2.63.9-.63.27-2.26.38-2.7-.5-.1-.23-.1-.13-.15-.03 0 0-.05.36.16.88.23.5.87.85 1.52.89 1.91 0 2.3-.7 4.09-.7 1.11.01 1.64.58 1.89.91z"/>
    <path d="M84.96 79.18a4.45 4.45 0 012.99-2.03c1.16-.16 2.36.18 3.51-.08.92-.21 1.65-.84 2.45-1.33s1.98-.6 2.72-.03c-.12.22-.65.15-1.07.35-1.03.5-1.34 1.8-1.96 2.78a6.28 6.28 0 01-2.54 2.14 6.1 6.1 0 01-2.42.77c-.83.05-1.37-.3-2.47-.15"/>
    <path d="M138.2 80.97s.56 0 .79-.04c.22-.04.17-.21-.02-.26-.27-.06-.84-.3-1.63-.27-.23-.16-1.08 0-1.08 0l-1.08 2.64s.9.09 1.31.25c.66.26.74.9 1.27 1.13.47.2.84-.05.84-.05l1.34-1.08s.8 0 1.67-.83c.36-.3.56-.66 0-.41-1.2.53-2.48.03-2.48.03l-1.01-.43.08-.68z"/>
    <path d="M99.17 121.23c-.76.86-1.06 2.27-.24 3.36.13.15.22.08.24-.03.26-1.25 1.28-1.52 1.72-1.46.2-.84-.43-2.46-1.72-1.87zm11.35-5.27c-.83-.8-2.31-.01-1.32 1.21.61-.02.63.66.75.98.05.13.1.23.25.14.7-.52.8-1.6.32-2.33zm-12.22.49c-2.2.66-1.75 3.28-1.54 3.24.3.08.8-1.42 1.64-.82 1.41-.37.66-2.6-.1-2.42zm5.55 5.4c.01.07-.25.33-.29 1-.03.84.54 1.55.73 1.65.12.07.3.21.25-.13-.05-.56.06-1.35 1.05-1.5.15-1.24-1.46-1.56-1.74-1.02z"/>
    <path d="M111.1 113.62c-.57 1.13-.22 1.64-.4 2.7-.71-.23-1.25.05-1.26.9a1.42 1.42 0 00-.9.24c-.4.28-.27.5-.26 1.24 0 .98.15 2.14-.37 2.84 0 0-.65 1.34-2.07 1.36a2.7 2.7 0 00-.46.07c.13-1.02-.89-1.15-1.54-1.01-.1-.06-.1-.23-.04-.46.05-.18.27-.3.42-.3.06-.1-.11-.27-.1-.32-.57.5-.54-.05-1.59.78-.08.07-.7.45-.69.93.03.32-.6 1-1 .7-.17-.1-.08-.2-.27-.17.33-1.45-.94-1.7-1.59-1.7.12-.26-.1-.12.04-.46a.93.93 0 01.77-.49c.21 0 .53-.25.86-.65a3.56 3.56 0 01.67-.75c-.42.05-.49-.33-1.3-.37-.6.03-.2.4-1.09.4-.19 0-.35 0-.64-.25 1.16-.9.57-1.93-.1-2.39.15-.4.67-.4 1.02-.3 1.93-.67 2.47-.13 3.64-.08.82 0 2.26-1.35 2.26-1.35a10.98 10.98 0 001.2-1.95c.83-1.75 1.16-2.1 1.68-2.47.1-.06-1.79.32-3.12-.82s-1.53-2.63-1.3-3.48c.28-1.4.67-2.07.67-2.07s-.58-.06-1 .11c-.47.2-.69.75-1.53.42.75-.36.64-1.14 1.32-1.31a5.58 5.58 0 001.35-.55c-.16 0-.82 0-1.11-.39.63-.02 1.02-.33 1.3-.43.26-.1.85 0 1.02-.16.54-.43 1.57-1.69 5.28-3.64.77-.47 4.19.48 4.19.48l1.63 1.63s1.4 2.49.85 2.92c-1.28.98-2.64 1.46-3.18 2.1-.86.71-1 1.76-.29 2.6.51.49 1.68-.05 1.68 1.32 0 .82-1.27 1.03-1.63 1.3-.34.68-2.79 2.6-3.02 3.28z"/>
    <path d="M111.63 98.61l-3.02.92s-1.38 1.1-1.75 2c-.15.38-.08.6.08.75.33.35.72.04.95-.1 1.07-.72 2.22-1.25 2.9-1.53s1.79-.5 1.79-.5l-.95-1.54z"/>
    <path d="M126.87 121.83a2.67 2.67 0 00-.11 3.36c.13.14.2.07.23-.04.26-1.24 1.29-1.52 1.72-1.46.2-.84-.54-2.46-1.84-1.86zm11.46-5.27c-.83-.81-2.31-.02-1.31 1.2.6-.02.62.66.74.98.05.13.11.24.25.14.7-.52.8-1.58.32-2.32zm-12.2.5c-2.2.66-1.76 3.27-1.55 3.24.3.08.8-1.43 1.64-.82 1.4-.37.67-2.62-.1-2.43zm5.54 5.4c.01.07-.25.33-.28 1-.04.84.53 1.55.72 1.65.12.07.3.2.25-.14-.05-.55.06-1.35 1.06-1.5.14-1.25-1.46-1.57-1.75-1.01z"/>
    <path d="M141.16 83.47c-.42.1-.83.14-1.26-.19-.27-.19-.49-.6-.75-1.06-.27-.47-.6-1-1.14-1.37-1.27-.94-1.65-1.05-2.56-1.1-1.5-.2-2.53-.03-3.92-1.02-.52-.37-3.82-2.74-7.59-1.32-2.06.74-4.2 2.12-4.2 5.14 0 4.73 6.34 6.67 12.17 8.43 2.24.67 4.9 1.61 5.46 3.7a3.03 3.03 0 01-.71 3.05c-.91 1.01-2.22 1.18-3.79.79a8.29 8.29 0 01-4.1-2.73l-.24-.28c-.72-.82-1.8-1.7-2.64-2.52a13.73 13.73 0 00-8.54-3.6c-3.7 0-5.37.7-10.46 1.54s-5.93 1.32-9.29 1.32l-1.37 1.98c-2.87 0-4.64-2.07-4.61-2.74.1.08.06.03.25.14.33.18.8.43 1.48.27 1.53-.35 1.56-1.78 1.56-1.78s-.03-.21-.16-.08c-.31.28-.7.47-1.11.56-.99.22-1.3-.79-1.33-.98-.12-.53.1-.86-.05-1.52-.14-.6-.13-.69-.13-.95l.01-.16s.51.22.84.22c.55 0 1.33-.3 1.52-1.11.05-.16-.1-.11-.15-.1-.6.2-1.19.18-1.49-.24-.36-.5-.15-1.68-.2-2.04 0-1.53-1.33-2.77-2.11-3.65-.78-.89-.32-1.67-2.25-2.49-.66-.28-1.73-.56-2.44-.69a15.7 15.7 0 00-2.36-.15c-1.62 0-2.5.32-2.93 1.2-.21.42-.32.88-.33 1.35 0 .24-.03.43.03 1.1s.26 1.15.46 1.56c.19.42.6.92 1.38 1.07 1.44.32 2.1.76 2.7 1.52 1.16 1.5 1.16 2.8 1.16 3.43 0 .48-.05 1.07-.28 1.4-.19.26-.21-.1-.58.4-.3.4-.3 1.06-1.35.73-.09.18.04.44.25.58.34.28.78.2.78.2-.55.5-1.32.31-2 .36-.8.06-1.54.25-2.24.64-.38.22-.74.49-1.14.68-.5.26-1.06.35-1.61.27a1.38 1.38 0 01-.66-.37c-.05-.04-.19-.42-.26-.63-.38.15-.44.68-.43 1 .04.47.4.94.81 1.18l-.1.07c-1.05.51-1.09 1.44-2.04 2.07-.41.28-1.64.96-2.2.13-.58-.88-.09-1.45 0-1.68-.02-.16-.46-.02-.81.42-.4.47-.55 1.42.03 2.28.72 1.07 1.84 1.07 2.67.7.67-.3.74-.38 1-.56 0 0-1.1.94-1.23 2.02-.04.28-.12.95-.62 1.2-.58.28-1.25-.26-1.25-.26-.1.2.17.64.32.83.62.78 1.33.44 1.33.44s-.39.65-.4 1.41c-.01 1.41.65 1.7.64 2.65-.02.34-.1.73-.64 1-.63.3-.97-.04-1 .14-.01.21.1.4.23.5.43.4 1.07.48 1.62.21 1.01-.49 1.09-1.69 1.09-1.69h.03c.26 2.8 2.39 3.4 3.08 5.04 0 0 .72 1.96 3.87 2.67 2.29.51 5.76-.87 5.76-.87 7.83 1.55 11.16-13.65 21.54-13.65 2.42 0 3.77 1 4.6 2.3 1.73 2.67 1.4 4.12 2.97 7.38.78 1.59 1.76 1.73 2.8 3.73.5-.43.48-.81.02-1.73.45.44.37.7 1.54 1.38a7.24 7.24 0 003.74 1c2.8-.03 4.7-3.5 6.1-2.38.59.51.48 3.42.33 3.93l-.17.47s-.44 1.3-1.25 1.3c-1.17-.06-1.85-.74-3.8-.08-.34-.1-.86-.1-1.02.3.68.47 1.27 1.5.11 2.4.29.26.46.26.64.25.9 0 .48-.36 1.1-.4.8.04.87.42 1.29.37-.26.22-.48.47-.67.75-.33.4-.65.65-.86.65-.44.02-.83.32-.9.49-.14.34.1.2-.03.46.65 0 2.04.25 1.71 1.7.19-.03.1.06.26.17.42.3 1.02-.38 1.01-.7-.02-.48.6-.86.69-.93 1.04-.83 1.02-.28 1.6-.78 0 .06.15.21.09.32-.16 0-.38.12-.42.3-.06.22-.06.39.04.46.65-.16 1.67-.01 1.54 1l.46-.06c1.42-.02 2.07-1.36 2.07-1.36.52-.7.38-1.87.37-2.84 0-.74-.13-.96.26-1.24.25-.17.65-.29.9-.24.01-.84.54-1.13 1.26-.9 0-.81-.63-1.3-1.37-2.03-.93-.87-.72-2.18-.77-3.14-.14-.83.55-4.17.4-4.75-.15-.58-.52-.89-.56-1.41-.05-.43.32-.49.26-1.14s-.48-1.08-1.25-1.01-1.26.5-2.04 1.03c-1.94 1-1.24 2.02-3.83 2.14-.15.01-.32-.01-.46-.07-1.32-.64-.9-2.22-.94-5.25a12.75 12.75 0 00-.75-3.87l-.04-.14a10.35 10.35 0 005.2 3.38c2.36.58 4.58.4 6.04-1.2a5.3 5.3 0 001.08-5.19c-.91-3.34-3.86-4.29-7.06-5.41-3.03-1.07-10.29-2.24-10.29-6.3a2.93 2.93 0 012.21-2.75c2.35-.9 3.58.91 5.4 2.53 3.45 3.04 6.36-.8 7.9.98.23.23.47.72.83.99 1.29.8 2.57.24 2.85-.51.51-.54.4-.57-.21-.36z"/>
    <path d="M75.11 122.53s-.2-1.18-1.15-1.05c-.95.12-.99.7-.99.7s.05.34-.04.66c-.25.83-.9.88-1.44.7-.25-.06-.34-.22-.44-.2-.23-.03.3 1.31 2.02 1.25 1.89-.07 2.04-2.06 2.04-2.06zm-8.6-2.46s1.1-.43 1.49.44c.39.87-.1 1.2-.1 1.2s-.3.13-.53.38c-.58.65-.3 1.22.13 1.6.19.18.37.18.42.26.14.18-1.28.43-2.13-1.08-.9-1.64.71-2.8.71-2.8zm-.17-5.66s1 .62.53 1.46c-.48.83-1.02.64-1.02.64s-.29-.17-.63-.2c-.87-.09-1.15.5-1.21 1.05-.03.26.07.4.03.49-.06.21-1.1-.77-.4-2.35.8-1.7 2.7-1.1 2.7-1.1zm4.34-2.82s.5 1.08-.35 1.52c-.85.44-1.22-.02-1.22-.02s-.14-.3-.41-.51c-.68-.55-1.24-.23-1.6.22-.16.2-.15.38-.23.43-.18.14-.5-1.25.96-2.19 1.6-1 2.85.55 2.85.55z"/>
    <path d="M66.47 119.49c-.32.34-.09.65-.09.65s.57.07 1.02.64c.34.43.44.7.36 1.04.3.16.46.26.7.15.26-.12.55-.44.57-.58.06-.24-.07-.56-.08-.7-.01-.35.66-.36.98-.62.2-.15.42-.45.51-.5.1-.05.47-.17.74-.06.27.1.37.24.9-.18.4-.15.37.17.35.28-.01.1-.45.23-.06.77s.77-.18.91.35c-.13.08-.46.12-.64.3-.1.1-.24.51-.19.8.04.26.2.34.5.5.25-.23.53-.29 1.07-.22.72.09 1.08.54 1.08.54s.4.04.52-.42c.13-.72.03-.94-.54-1.17-.4-.38-.02-.84-.57-1.17-.55-.33-.56-.52-.62-.84-.1-.57.6-.82.6-.82s4.7-2.13 6.93-2.81c.2-.44.61-2.1-1.58-1.49l-1.6.57s-.5.07-1 .36c-.25-.04-.82.21-1.1.42-.3-.02-.82.23-1.04.44-.36 0-.9.23-1.13.45l-.57.23c-.52.3-.76-.24-.77-.3-.01-.06.46-1.37-.2-1.5-.29-.05-.81-.36-.7-.76.1-.42-.4-.67-.25-1.04.38-.6.18-.89-.22-1.28-.35-.3-.66-.05-.66-.05s-.04.58-.6 1.06c-.4.36-.66.47-1 .42-.16.3-.24.47-.12.7.13.26.46.52.6.54.25.05.43-.08.58-.1.15-.04.61 0 .51.52-.15.76.4.63.59.8.36.37.2.98.1.82-.1-.15-.35-.36-.72-.48-.3-.1-.64.12-1.02-.23-.1-.1-.36-.39-.7-.46-.62-.08-.64 0-.79.02-.14.03-.3.01-.35-.1 0-.62-.17-.79-.88-.95-.46-.06-.58.33-.58.33s.28.5.1 1.2c-.15.53-.3.77-.63.91.05.35.08.52.29.66.25.14.68.17.8.11.23-.1.41-.39.52-.47.12-.1.5.2.95.1.85-.07 1.07.55 1.59.61s.58-.08.76-.03c.27.08.33.4.33.4s-.3.26-.75.19c-1.2-.43-1.55.55-1.75.87-.34.57-.86.33-.68.45-.45-.4-.88-.24-1.28.13z"/>
    <path d="M81.56 110.56c-.65.58-2.8 2.65-3.98 2-.56-.3-1.3-.5-1.93-.3a1.53 1.53 0 00-1.09 1c-.03.14-.16.6 0 .81.09.1.12.04.17-.06a.83.83 0 011.02-.6c.32.08.66.5 1.06.89 1.28 1.23 2.5.58 2.97.49.33-.08.69.07.76.1-.36 1.04-.74 1.34-1.19 1.52s-.41.93-1.39.58c-.05.02-.03.05-.03.05s.65.82 1.35.5c-.25 1.82-.99 2.14-1.73 2.26-.06.02-.13.03-.05.08 1.5 1.02 2.58-.64 2.8-1.37.23-.7 1.56-1.79 2.32-2.24 4.33-2.54 6.22-1.83 8.49-4.05"/>
    <path d="M85.37 108.4a6.92 6.92 0 002.14-.54c1.74.98 5.06.38 6.77-.65 2.3-.58 4.06-2.42 4.14-4.47 0 0 .92 0 2.23-.8.74-.42 1.31-1.54 1.31-1.54.95-.85 1.3-1.36 1.14-2.45 2.23-.29 4.24-1.78 4.31-3.2.55-.33.76-1.34.65-2.09 0 0 .62-.39 1.17-.77a4.57 4.57 0 001.23-1.27c1.07-.95 1.16-2.15.6-3.27 0 0 .77-.28 2.27-1.34 1.22-.85 1.97-2.35 2.33-2.66.47-.39 1.64-1.74 1.58-3.1-.03-.86-.52-1.88-.52-1.88a3.27 3.27 0 001.6-1.54c.37-.66.5-1.42.36-2.17-.02-.15-.05-.3-.03-.45.02-.18.13-.33.19-.51.13-.36.2-1.56-.63-1.87-.4-.14-1.6 1.36-1.95 1.68-1.8 1.68-3.07 2.88-4.62 4.27-2.02 1.8-4.18 3.35-6.24 4.84-2.66 1.92-5.7 4.3-9 6-2.57 1.34-6.68 3.22-11.95 7.24-1.3.94-2.41 2.1-3.3 3.42"/>
    <path d="M88.67 78.28c.45-.19.94-.3 1.45-.3 1.18 0 2.32.5 3.5.4.92-.09 1.75-.6 2.6-.99s2.05-.33 2.7.35c-.15.2-.66.06-1.1.2-1.1.35-1.57 1.6-2.32 2.5a6.47 6.47 0 01-2.81 1.76c-.81.29-1.67.5-2.5.44"/>
    <g fill="#000" stroke="none">
      <path d="M122.2 126.4c-.32 2.6 2.69 3.38 3.3 5.44.07 1.82-2.7 1.7-2.97 0-.74-1.4-1.64-4.53-.33-5.44zm40.7 57.1c-.68 2.85-1.56.22-2.9-1.1-8.21-9.78-17.85-18.26-26.85-27.29-4.78-4.58-9.6-9.11-14.45-13.61 14.1 12.48 28.79 24.44 41.87 38.02 1.27 1.73 3.22 3.06 4.13 4.98-.17 2.84-4.29.54-1.8-1zm-40.1-40.9a7.6 7.6 0 004.44-7.5c.68-1.73 3.43-.67 2.86 1.1-.04 3.7-5.1 6.58-7.3 6.4zm7.5 7.2c4.29-1.19 3.72-5.76 5.3-8.3 4.27.45.77 6.42-1.9 7.2-1.04.45-2.27 1.22-3.4 1.1zm7.5 6.3c4.66-.38 2.64-11.55 6.7-6.6.1 3.63-3.7 6.24-6.8 6.8zm6.9 7c4.5-.5 2.92-11.74 6.9-6.6-.13 3.62-3.71 6.23-6.9 6.8zm-38.2-45.7c2.1 2.49 1.11 6.39 3.6 8.6-2.14-1.96-6.95-6.07-5.76-9.03.73-.53 1.6-.14 2.16.43zm13.7-.9c-1.54 1.83-2.14 7.97-2.8 1.9-1.9-3.7 4.13-7.25 2.8-1.9zm25.9-9.6c-2.6-.58-5.46-1.66-7.2-3.6 2.68 1.2 5.7.52 8.43.97 1.46.8.31 3.47-1.23 2.63zm-29-22.1c-2.44.91-5.47 1.68-7.9 1 2.09-.15 11.6-7.5 7.9-1zm-23.2 69.6c1.42 2.53 3.03 5.73 2.14 8.6-5.07 2.31-.73-7-2.14-8.6zm21-10.9c-3.14.07-5.84 1.7-8.32 3.42-3.55-.35-.33-3.59 1.75-3.39 1.89-.48 6.07-1.08 6.57-.03zm-34.5-37.3c1.5-2.56.79-5.54 1.19-8.24.91-1.85 3.67-.41 3.01 1.44-.7 2.57-1.94 5.37-4 7zm2.6 47.7c-5.1 3.53-13.4 4.87-17.88-.35-1.22-1.45-2.5-3.93-2.12-5.55.67 6.45 8.2 9.9 13.9 7.5 2.01.22 5.04-3.92 6.1-1.6zm-14.3-48c-4.25-4.43-12.14-7.37-17.22-2.56-1.25 1.07-2.01 2.71-2.68 4.06 1.45-6 8.43-8.83 13.9-6.63 2.66.82 5.11 2.29 7.1 4.23l-1.1.9zM102.5 76c1.08-5.87-1.12-13.77-7.63-15.3-2.8-.5-7.6.41-2.5-.53 5.97-.63 10.58 4.87 11.27 10.42-.13 1.3 1.56 6.85-1.14 5.41zm36.3 15.5c4.47-4.41 6.94-13.09 1.25-17.54-.67-1.02-5.67-2.65-2.16-1.59 5.24 1.67 7.48 7.82 5.76 12.76a18.81 18.81 0 01-3.85 7.57l-1-1.2z" transform="translate(53 72) scale(.11875)"/>
      <path d="M165.2 193.1c-1.85-2.05-2.5-4.77-3.4-7.3-.78-2 2.8-2.81 2.95-.66.14 1.72-.28 3.48.08 5.2-.12.79.84 2.38.37 2.76zm17.8-3.6c1.81.75 3.34 2 4.95 3.1 1.2.86 2.33 1.78 3.36 2.84 1.2.75-.3.71-1.05.64a8.63 8.63 0 01-6.35-4.05c-.4-.8-.82-1.62-.91-2.53z" transform="translate(53 72) scale(.11875)"/>
      <path d="M448 418.8a21.55 21.55 0 00-13.41-6.06c-1.68-.6 3.13-1.4 3.93-1.34 4.25-.39 9.1 3.15 9.48 7.4zm-5.2-18.4c-4.89 1.98-8.17 6.45-10.1 11.2-4.27 2.41-2.3-3.4-.2-4.9 2.58-3.13 6.19-6.1 10.3-6.5zm-47.1 5.4c6.68.41 13.07 5.9 14.4 12.4-2.63-5.4-8.5-10.12-14.81-9.34-1.83-.43-1.4-3 .41-3.06zm9.6-9.9c3.8-3.67 9.1-4.54 14.2-4.5 3.51-1.32 6.66-2.59 1.48.45-6.15-.3-10.93 5.41-15.68 6.25-.68-.62-.48-1.58 0-2.2zM390 370.1c6.3 2.54 9.03 10.68 6.7 16.7.72-5.45-1.78-12.18-7.6-13.7-2.02-.57-1.3-3.55.9-3zm48.6 8.3c6.18-5.73 9.8-13.69 12.6-21.5 1.36 1.04-1.74 3.6-2.14 5.32-2.12 3.27-4.79 6.57-8.16 8.48 4.12-3.95 7.18-9.07 9.8-14.2 2.37-2.07 2.22 2.13 1.19 3.38-2.81 6.85-6.62 13.74-12.59 18.32l-.7.2zM388 437.6c1.4-5.46 7.92-14.56 12.82-12.73-1.98 1.13-5.14 2.22-7 4.23-2.68 2.22-4.35 5.87-5.82 8.5zm44.3-.4a16.4 16.4 0 017.7-14.9c1.99 2.08-2.5 2.6-3.33 4.43-2.96 2.7-3.66 6.78-4.17 10.57zm-62.8-40.3c3.21-6.03 10.26-9.72 16.96-9.79.3 2.59-4.82 1.19-6.74 2.61-3.96 1.35-7.87 3.64-10.02 7.28zm108.8-21.6c2.8 1.42 4.9 11.04 3.79 10.38-.16-3.64-2.18-6.94-4.89-9.28l1.1-1.1zm29.8-61.3c-2.98 5.04-4.68 11.24-9.4 15 1.7-5.45 3.9-12.39 9.4-15zm-42.7-30.9c1.91 2 2.63 4.9 4.8 6.7-3.72 1.56-6.23-3.77-4.8-6.7zm11.4 5.8c3.06-.7 6.87 5.56 1.6 3.4-.94-.8-1.71-2.3-1.6-3.4zm7.5.1c3.3-.68 3.63 3.75 5.9 4.8-3.67 3.01-4.54-2.91-5.9-4.8zm10.5 0c4.23-1.18 4.47 6.4.44 1.83a3.4 3.4 0 01-.44-1.83zm-31.5 32.2c4.95.95 12.69-1.44 15.5-2.2-4.95 2.7-10.38 5.08-16.09 5.14-1.65-.48-1.07-3.12.59-2.94z" transform="translate(53 72) scale(.11875)"/>
      <path d="M696.8 331.2c-3.2-12.9 3.35-10.46 0 0zm-4.2-12.2c-1.03-7.15 8.2-9.2 0 0zm-2.6-9.8c-.56-5.7 8.63-5.65 1.65-1.2-.52.44-1.1.8-1.65 1.2zm-14.4-25.1c6.45 3.28 28.82.3 12.8 5.1-4.73-.35-8.3-3.94-12.8-5.1zm-73.8 44.6c-4.01.25-8.5-4.25-7.9-7.8 2.74 2.5 4.98 5.5 7.9 7.8zm-21.7-9.1c-2.79-1.21-5.28-5.89-3.2-8.2 1.15 2.7 2.6 5.3 3.2 8.2zm-9.7-7.7c-2.48-1.9-2.13-7.02.3-8.3.48 2.79-.14 5.53-.3 8.3zm37.7 12.5c5.25 3.06 8.31 9.6 1.05 3.2a6.2 6.2 0 01-1.05-3.2zm12.2-1.4c7.63 1.17 8.13 5.79 1.36 1.95-.6-.54-1.35-1-1.36-1.95zm-57.9-19.6c-2.08-8.33 5.99-10.63 0 0zm26 20.2c-2.56-1.87-2.25-7 .2-8.3.52 2.8-.22 5.52-.2 8.3zM519 211.4c-1.87 2.77-7.2 3.17-9 .7 2.99-.36 6-.57 9-.7zm-17.1 8.8c-2.37 1.37-6.27.32-6.8-2.3 2.37.36 4.75 1.03 6.8 2.3zm-9.6 2.3c-8.16.78-8.1-7.52 0 0zm25.5-15.4c9.38-4 9.26 3.57 0 0zm5.5-6c3.6-3.85 9.38-2.9 1.9.5zm-38.6 23.4c-7.17 1.33-7.76-7.07 0 0zm24.9-8.4c-2.64 4.15-11.9-3.39-2.32-.58.79.13 1.54.4 2.32.58zm20.5-26.9c-3.11 9.02-11.46 6.41 0 0zm-7.1-1.4c2.89-5.33 7.4-3.55 2.2-.19a4 4 0 01-2.2.19zm-5.1-5.4c3.3-3.41 8.78-2.07 1.8.6zm-6.3-3.4c3.83-2.9 8.2.61 1.4.9a2 2 0 01-1.4-.9zm31.7 43.2c-5.5-14.15 8.55-26.64 8.2-40.1 4.02 14-9.85 25.94-8.2 40.1zm24.4 108.4c-2.72-3.24-9.53-18.01-5.3-11.1-.05 3.58 11.64 8.67 5.3 11.1zm114.5 93.2c-3.38-4.07-9.51-5.35-13.8-6.4 5.35-2.89 13 .33 13.8 6.4zm-5.1-18.4c-5.44 1.99-8.2 7.45-11 11.91-4.48-1.72 1.88-6.9 4.22-9.1 1.83-1.31 4.78-3.31 6.78-2.81zm-47.2 5.5c6.6-.5 14.33 8.14 13.91 11.7-2.59-5.83-9-8.95-14.97-8.95-1.15-.95-.33-2.69 1.06-2.75zm9.9-9.8c4.87-5.42 13.37-3.23 18.7-6.2-5.44 4.1-13.37 2.81-17.9 8.48-1.17.04-1.75-1.59-.8-2.28zm-15.5-26c6.33 2.43 9.15 11.34 6.6 16.5 1.46-6.48-2.75-12.16-8.44-14.18-.93-1.3.52-2.63 1.84-2.32zm51 10c3.59-7.42 2.99-17.35 3.1-24.3 1.13 1.06-.53 6.46-.92 8.95-.82 2.33-1.62 6.05-3.38 7.35 4.6-3.4 0-18.1 5.4-17.2 1.34 8.18.2 18.1-4.2 25.2zm-51.7-170.4c-2.2-5.08-6.47-10.55-9.3-13.56 4.95 3.4 9.6 7.98 12.25 13.29-.29 1.5-2.38 1.65-2.95.27zM224 273.6c3.48 11.66-.45 23.77.3 35.7-5.49-11.45 1.07-23.75-.3-35.7zM209.6 305c2.29 9.36 10.44 16.81 10.3 26.94-4.06.96-2.16-6.58-4-9.33-1.33-6.2-6-11.2-6.3-17.6z" transform="translate(53 72) scale(.11875)"/>
      <path d="M165 374c2.44 1.76 7.85-3.17 6.6 1.5-1.64.8-7.2-.07-6.6-1.5zm68.8-13.3c2.16 1.97-7.46 2.27-9.84 4.02-15.77 5.53-31.18 12.53-46.66 18.48 17.5-8.22 35.17-16.81 53.5-23.24 1.72-.85 7.24-2.16 4.6 1.34-.52.5-1.45.07-1.6-.6zm-53.7 19.4c.23-3.74-8.79-11.25-1.72-8.48 2.26 1.96 2.85 6.39 1.72 8.48zm9.6-3.8c.05-3.52-9.08-11.25-1.92-8.4 2.39 1.95 2.69 6.26 1.92 8.4zm8.8-4.3c.69-3.64-9.6-10.17-1.9-8.01 2.03 1.85 3.02 5.73 1.9 8.01zm9.3-3.5a7.51 7.51 0 00-5.19-6.7c.6-7.6 8.13 4 5.19 6.7zm-57.4 16.1c3.95.17 14.56.47 4.45 2.15-2.34.63-7.77 2.07-4.45-2.15zm4.6-12.7c4.26 3.66 4.02 4.56-1.3 2.1-2.41-.94-.7-4.5 1.3-2.1zm-30-10.3c.45 2.9-3.78 12.32-2.44 3.84-1.24-2.15-.55-8.51 2.44-3.84zm31.9-17.1c-1.8 2.43-12.07 8.8-5.61 2.95 1.37-1.6 5.83-9.9 5.61-2.95zm22 66.8c2.71-.12 6.37-.55 8.44 1.45.94 2.18-2.69 3.29-3.52.9-.64-1.24-5.09-1.48-4.92-2.35zm-1.3-23.6c-2.58 2.5 1.98 11.41-2.7 9.2-.23-2.99 1.02-7.89 2.7-9.2zm-48.2 16.1c-1.68-2.4-4.81-2.91-6.86-4.65-.27-5.18 7.2 1.46 6.96 4.35l-.1.2zM174 421c1.16 6.55-1.69 15.5-9.23 16.42-11.74.06 10.16.12 7.6-8.58 1.62-2.12-1.71-7.96 1.63-7.84zm-49.6-6.6c-7 1.9-13.42 10.77-7.85 17.42 2.41 2.93-1.62-1.05-1.77-2.34-3.2-6.88 2.87-14.21 9.22-16.48l.4 1.4zM111 371.3c-5.27-3.85-14.62-4.62-17.98 2.1-1.75 5.55-1.47 1.48.88-2.3 4.34-5.2 12.6-4.22 17.8-.9l-.7 1.1zm29-26.8c-2.18-6.56-10.65-12.25-17.01-7.54-1.35 1.15-2.93 2.58-.87.36 5.82-5.6 15.46-1.25 18.53 5.38 2.24 1.78.2 1.5-.65 1.8zm194.5-36.8c1.09 2.8-7.2 6.76-4 6.3 2.39.76 7.22-1.81 7.19 2.37.05 4.17-3.92 6.94-7.39 8.33-.23-4.61 3.2.49 4 2.26.7 2.39 1.58 6.1-1.9 6.04-4.18.13-9.05-4.47-6.1.2-.23 3.09-2.42 6.78-5.71 7.25-2.93-2.29 1.7-3.36 2.31-5.55-3.67-7.38 9.63-6.93 9.1-3.9 1.93-3.28-6.7-7.71-.98-9.4 2.72-.24 5.4-5.84 4.58-5.4-2.6.26-6.8.94-8-1.9 1.62-2.63 5.48-4.11 6.9-6.6z" transform="translate(53 72) scale(.11875)"/>
      <path d="M251.5 310.7c-.39 3.16-1.3 6.29-3.5 8.7-1.94 2.52-4.38 4.55-6.7 6.7-3 1.47-2.86-2.72-.44-3.2 3.13-2.05 6.3-4.27 8.53-7.32 1.05-1.46 1.42-3.25 2.11-4.88zm-26.1 31.5a19.72 19.72 0 01-19.6.47c-1.63-3.4 3.07-2.64 4.46-1.01a18.2 18.2 0 0015.04.24c.24.05.22.13.1.3zm14.1 20.3c-2.76.66-5.65.18-8.38-.36-2.1-2.51 2.12-2.82 3.36-1.16 1.47.83 3.87 1.03 5.02 1.52zm39.5-30.9c-3.85 3.43-7.72 7.3-9.03 12.44a12.42 12.42 0 01-6.37 7.56c-.8.54-5.79 2.55-3.72 1.06 3.35-2.46 6.85-5.35 8-9.53 1.3-5.01 5.36-8.83 10.02-10.83.31-.3.67-.58 1.1-.7zm-26.1 7.4c-1.56 4.4-6.59 6.08-10.75 6.87-4.5.74-9.42.85-13.29 3.55-1.33 1.37-.5-.3.2-.98 2.83-3.25 7.35-4.19 11.44-4.74 4.37-.72 9.3-1.11 12.4-4.7z" transform="translate(53 72) scale(.11875)"/>
      <path d="M622.3 442.6c1.4-4.2 3.66-8.3 7.25-11.02a21.74 21.74 0 015.15-2.88l.5 1.4a18.8 18.8 0 00-11.1 9.15 26.24 26.24 0 00-1.6 3.45l-.2-.1z" transform="translate(53 72) scale(.11875)"/>
      <path d="M666.5 442.2c.1-1.57.14-3.15.46-4.7.3-1.91 1.02-3.77 2.2-5.32a18.31 18.31 0 015.04-4.88l.8 1.3a16.6 16.6 0 00-6.3 5.94 13.37 13.37 0 00-1.49 4.68l-.51 3.08-.2-.1z" transform="translate(53 72) scale(.11875)"/>
      <path d="M603.8 402.9a19.56 19.56 0 015.62-6.72c2.59-2 5.7-3.27 8.92-3.8.67-.14 1.34-.29 2-.4.98-.03 1 1.56.02 1.53-1.2.15-2.4.25-3.56.54a20.26 20.26 0 00-10.84 6.1c-.88.72-1.39 2.2-2.15 2.79z" transform="translate(53 72) scale(.11875)"/>
      <path d="M712.6 380.4c.68.88 1.39 1.74 1.94 2.71.57.94 1.05 1.93 1.43 2.96.29.85.5 1.74.63 2.63l.1 2.9c-.2.06-.24-.07-.23-.24l-.37-2.66a13.55 13.55 0 00-4.08-6.69c-.16-.23-.74-.47-.33-.7l.91-.91z" transform="translate(53 72) scale(.11875)"/>
      <path d="M744.7 100.3c-3.5 2.17-8.07 3.45-12.06 1.9-4.92-2.03-8.43-6.34-11.46-10.55-1.79-2.44-3.5-5-6.04-6.74-4.5-3.62-10.07-6.1-15.92-6.06-3.95-.17-7.9.76-11.83.2-.94-.28-2.95-.86-2.89-1.75 2.49 1.55 5.44.65 8.14.34 5.49-1.09 11.31-1.1 16.57 1.02 3.4 1.27 6.5 3.25 9.3 5.54.83.49 2.31 2.16 3.17 3.3 3.55 4.61 6.95 9.94 12.72 11.89 2.98.87 6.16-.22 8.7-1.79l1.6 2.7z" transform="translate(53 72) scale(.11875)"/>
      <path d="M205.2 187.4c2.63 3.75 11.47 2.33 12.14 2.14-4.1 2.53-9.36 2.52-13.64.46l1.5-2.6zM191 216.5c6.55-4.84 9.24-13.63 16.7-17.3-.98 1.34-3.33 2.5-4.3 4.3-3.07 2.6-7.36 14.82-11.12 15.48-.77.14-.38-1.51-1.22-2.4zm.5 26.6a26.95 26.95 0 01-11.3 11.5c-2.5-3.24 1.25-3.53 3.5-4.91a29.01 29.01 0 007.8-6.59zm46.1-87.3c-1.1-1.13-.26-8.82.5-5.3.78 2.96 3.33 3.34-.5 5.3zm-13.2-6.4c1.08-2.53 3.8-4.88 2.6-.67.9 1.69-1.78.42-2.6.67zm43 11.4c4.34-.48 6.8-4.5 10-6.9-2.5 3.6-4.62 8.53-9.3 9.7l-.7-2.8zm53-46.5a22.19 22.19 0 0010.2 10.6c-2.05 6.1-6.93-3.47-8.65-5.9-.63-1.4-1.79-3.35-1.55-4.7zm5.79 46.75c-3.51 1.77-2.63 1.5-2.8-1.16-.49-4.27-1-8.56-2.19-12.7 2.62 3.32 4.06 10.47 4.99 13.86zm-15.99-6.15a36.05 36.05 0 011.9 13.76l-18.07 11.33c-5.4-5.87-7.28-13.83-8.13-19.49 3.42 4.9 4.32 12.27 9.94 16.94L310 168.7c.75-4.21.22-9.79.2-13.8z" transform="translate(53 72) scale(.11875)"/>
      <path d="M298.9 160.4c3.74 1.91 6.11 17.98 2.5 14.32-1.68-4.32-4.24-10.26-2.5-14.32zM287.6 177c-.83 3.72-2.43 6.7-4.14 10.13l-19.61 15.16c-3.72-2.4-5.55-5.93-5.96-10.28a25.8 25.8 0 015.2-18.24c.39-.85 3.14-2.85 1.6-.8-3.17 4.6-4.42 10.35-4.39 15.88.14 4.2 1.44 8.36 5.11 10.8L283 185.87a65.7 65.7 0 004.61-9.06v.12z" transform="translate(53 72) scale(.11875)"/>
      <path d="M272.5 175.9c-1.44 3.83-1.86 7.94-3.06 11.85a28.2 28.2 0 01-2.24 6.15c-1.3-.6-.58-3.09-.83-4.4.27-3.9 1.27-7.89 3.37-11.23a8.1 8.1 0 012.76-2.37zm-18.3 14.2c-3.06 7.43-8.22 14.25-15.2 18.38-3.85 2.25-8.47 3.39-12.9 2.62a11.88 11.88 0 01-3.24-11.99c1.8-6.1 6.32-10.95 11.13-14.9 1-.45 2.32-2.6 3.21-1.8-4.2 4.23-8.03 8.96-10.66 14.33-1.43 3.4-1.79 7.66.61 10.72.65.76 1.28 1.3.05.64 6.16.77 12.07-2.26 16.57-6.23 4.07-3.36 7.26-7.6 10.43-11.77z" transform="translate(53 72) scale(.11875)"/>
      <path d="M241.7 187.7c-3.22 5.24-6.33 10.7-10.8 15-.96-1.07.6-3.2.97-4.52 1.89-3.9 4.52-7.7 8.35-9.9.47-.24.97-.43 1.48-.58zM229.1 214c-.85 8-4.05 15.94-9.67 21.78a20.03 20.03 0 01-11.73 6.02c-2.6-1.54-4.76-3.9-5.54-6.87-1.53-5.35.38-10.99 2.63-15.84a33.2 33.2 0 015.01-7.39c.14 2.04-2.64 4.81-3.1 7.33-1.7 4.9-3.26 10.38-1.64 15.5.18 1.8 3.27 4.07 3.34 4.4-1.55-.24 1.95-.43 2.35-.86 6.61-2.44 10.98-8.45 14.15-14.47a69.54 69.54 0 004-9.6h.13z" transform="translate(53 72) scale(.11875)"/>
      <path d="M216.1 215.5c-2.03 5.63-3.91 11.3-6 16.9-1.4-.8-.86-3.77-.86-5.44.74-4.4 2.79-9.22 6.86-11.46zm100.5-87.1c.7 10.46-1.32 22.48-10.07 29.29-2.67 2.57-6.2 3.1-9.1.55-8.76-5.45-11.24-16.67-10.87-26.32-.31-2.06.63-5.8.87-1.27 1.05 9.24 3.05 20.26 11.9 25.29 2.44.62 2.17 1.82 2.5 1 8.42-3.76 11.83-13.44 13.62-21.87.58-2.11.53-4.86 1.15-6.67z" transform="translate(53 72) scale(.11875)"/>
      <path d="M301.8 131.7a36.19 36.19 0 011.24 13.08c-.04 1.95-.49 3.86-1.04 5.72-1.4-.31-1-2.9-1.42-4.1-.63-4.91-.23-9.94 1.12-14.7zm6.5-36c1.73 6.94 1.6 14.52-1.12 21.19-1.62 3.77-4.38 7.15-8.08 9.01-5.02-.69-9.44-3.86-12.16-8.07-2.75-4.3-3.98-9.42-4.77-14.41.23-1.19-1.17-3.74.13-4.22 1.65 6.07 3.41 12.34 7.22 17.45 2.42 3.1 5.8 5.68 9.78 6.25-2.28.62 1.16-.87 1.58-1.6 5.17-4.62 6.67-11.82 7.3-18.42.2-2.39.26-4.79.22-7.18z" transform="translate(53 72) scale(.11875)"/>
      <path d="M295.5 100.5c3.89 4.5 4.55 11.3 2.6 16.8-1.76-2.3-1.67-6.8-2.13-10.03-.1-2.26-.51-4.5-.47-6.77zM191.7 277.8c.73 3.43 3.55 8.99 1.63 11.04-4.19.46-.5-5.53-1.52-8.18 0-.95-.04-1.9-.11-2.86zm29.5-21c-.9 11.21-6.29 23.68-17.44 27.97-6.67 2.76-10.2-7.38-10.3-12.5-.18-7 1.2-14.22 4.84-20.27.18 2.69-1.86 6.53-1.9 9.76-.73 7.14-1.27 16.4 5.5 20.84-.45-.55 7.18-2.9 8.93-6 5.29-5.44 7.85-12.93 10.37-19.8z" transform="translate(53 72) scale(.11875)"/>
      <path d="M206.1 257.4c-.62 2.52-.82 5.12-1.2 7.69-.49 3.63-.9 7.3-2 10.81-.32.03-.64.05-.63-.37-.78-2.41-.9-4.99-.75-7.5.1-2.06.61-4.08 1.26-6.03a10.42 10.42 0 012.24-3.7c.33-.34.7-.64 1.08-.9z" transform="translate(53 72) scale(.11875)"/>
      <path d="M315.7 91.2c-1-.29-3.31.6-2.73-1.1-.7-3.35 3.26-1.35 5.27-1.98 9.95-.99 19.54-4.63 28.16-9.6 6.85-3.87 11.97-10.04 16.05-16.65 4.02-6.14 9.24-12.89 17.06-13.84 1.32-.35 6.2.37 2.6-1.2-6.5-3.24-14.35-2.08-20.53 1.37-5.33 2.74-10.75 5.48-16.7 6.58-10.62 2.3-21-2.46-31.57-2.77-4.23-.5-9.08 1.52-12.56 2.01-1.32-1.98-.7-3.2 1.81-3.43 8.2-2.83 16.93-1.28 25.15.51 7.33 1.55 15.24 2.35 22.3-.72 6.8-2.48 12.84-7.08 20.12-8.13 6.33-.85 13.5.68 17.87 5.57-.14 4.37-6.2 2.64-9.12 3.48-7.5 1.78-11.53 9-15.54 14.9-6.72 10.73-17.92 18.07-29.88 21.74a61.51 61.51 0 01-17.76 3.26z" transform="translate(53 72) scale(.11875)"/>
      <path d="M312.9 91.1c-6.33-1-11.84-4.85-18.29-5.36-2.03-.21-2.05-.27-.26-.24 3.58-.17 7.15.3 10.62 1.22 2.7.66 5.43 1.31 8.23 1.28l-.3 3.1zm-27.6-27.2a43.02 43.02 0 0114.6-12.4l1.1 2.8a39.53 39.53 0 00-15.7 9.6zm8.5 9.6c3.95-8.09 12.65-13.62 21.7-13.4 11.38-.4 22.96 1.39 34.15-1.46 2.4-.4 6.88-2.44 7.66-2.65-5.64 4.34-12.7 6.3-19.71 6.83-8.53.81-17.08-.13-25.62.19-7.18.52-13.77 4.99-18.18 10.49zm11.6 8.4c13.51-.35 26.87-3.4 39.4-8.4-9.45 7.76-22.23 11.12-34.3 9.61a30.87 30.87 0 01-5.1-1.21z" transform="translate(53 72) scale(.11875)"/>
      <path d="M304.2 71.9c3.77-4.41 9.9-6.42 15.6-5.9-4.6 3.13-10.14 5.04-15.6 5.9zM223 56.6c4.72-.3 4.64 8.6-.16 8.37-2.36.57-4.1-3.65-1.64-4.37-.87 2.02 2.5 2.68 2.47.34.4-1.4.2-3.2-.67-4.34zm-4.5 1.1c-2.22 3.22.55 10 1.09 10.57-3.39-2.56-4.63-7.3-4.09-11.37l3 .8zM180 110.5a15.1 15.1 0 01-2.9-5.3 12 12 0 004.6 2.9l-1.7 2.4zm-4.5 3.7a37.9 37.9 0 01-3.7-9.3c.2 3.16 7.58 6.15 4.76 8.42l-1.06.88zm40.7-37.1c3.96 2.96-3.9 3.78 0 0zm-3.4 2c3.55 3.53-3.82 3.74 0 0zm-3.5 2.5c.82 5.36-5.18.61 0 0zm-3.7 2.8c2.46 4.1-4.44 1.4 0 0zm62.7-23.1c-8-4.7-17.29-6.39-26.3-8 7.93-2.33 17.04-.47 23.57 4.55a13 13 0 012.73 3.45z" transform="translate(53 72) scale(.11875)"/>
      <path fill="#f6f6f6" stroke="#000" stroke-width=".35" d="M82.7 81.14c-1.69.2-1.73-1.56-1.71-1.72.19.03 1.57-.43 2.04-.21.29.2.71 1.78-.33 1.93z"/>
      <path d="M242.4 62.6c1.5-.5 2.6.1 3 1.2.8 2.2-2.3 1.8-2 3.9.5 2.2 3.2 2.9 1 3.6 0 0-3.5.1-4.3-3.4-.3-1.6-.1-4.5 2.3-5.3z" transform="translate(53 72) scale(.11875)"/>
      <path d="M235.4 64c-1.34-.21-2.7-.8-3.38-2.06-1.03-1.53-.86-3.54-.42-5.24.3 1.62.76 3.69 2.5 4.3.77.07 1.57-.36 1.3.73V64zm25.6-.8c-2.83-2.1-6.53-1.98-9.85-1.63-.84.2-1.5.22-1.25-.78V58.7c3.02.36 6.1.91 8.8 2.4.82.64 1.67 1.26 2.3 2.1zM248.9 80a13.2 13.2 0 01-8.1-3.3c-.35-.32-.72-.85 0-.9l2.3-.9c-.06.19.42.8.65 1.1 1 1.21 2.13 2.35 3.52 3.12a17 17 0 001.63.88z" transform="translate(53 72) scale(.11875)"/>
      <path d="M238.3 230.4a61.5 61.5 0 00-7.8 14.5c-1.9 5.2-3 10.7-2.8 16.4-.7-5.6-.1-11.3 1.4-16.8a64.3 64.3 0 016.8-15.7c.4-.7 1.3-1 2.1-.5.7.4 1 1.3.5 2.1-.1-.1-.2 0-.2 0z" transform="translate(53 72) scale(.11875)"/>
      <path d="M246.9 302.8a55.5 55.5 0 0025.5 2.3c.8-.1 1.6.4 1.7 1.3.1.8-.4 1.6-1.3 1.7h-.2c-8.9.3-17.8-1.7-25.7-5.3zm149-164.6c6.3-4 12.6-8.1 18.7-12.4A2060.3 2060.3 0 00451 99.5l17.8-13.6c5.9-4.6 11.6-9.4 17.3-14.2l17.2-14.5A525.5 525.5 0 00536 26.5l-3.6 4.3-3.7 4.2A298.8 298.8 0 01505 59.1l-17 14.8-8.6 7.3-8.8 7a674.2 674.2 0 01-55.2 38.7c-6.4 3.9-12.9 7.8-19.5 11.3zm10.7 24c10.6-5.8 21.3-11.5 31.8-17.5a355.3 355.3 0 0030.4-19.6l14.6-10.8c4.9-3.6 9.6-7.3 14.4-11a762 762 0 0028.1-23c-8.3 8.8-17.3 17-26.6 24.8-4.6 3.9-9.4 7.7-14.1 11.4l-14.5 11a253.7 253.7 0 01-31 19.2 396.6 396.6 0 01-33.1 15.5z" transform="translate(53 72) scale(.11875)"/>
      <path d="M258.2 279.8a64.8 64.8 0 0018.6 5.8 97 97 0 0019.4.8c.8 0 1.5.6 1.6 1.4 0 .8-.6 1.5-1.4 1.6h-.1c-6.6-.1-13.3-.8-19.8-2.3-6.4-1.6-12.7-4-18.3-7.3z" transform="translate(53 72) scale(.11875)"/>
      <path d="M456.6 161.2c-21.01 15.71-44.77 28.03-69.25 37.01 3.9-8.5 24.29-9.82 33.57-16.67a276.44 276.44 0 0035.68-20.34zm-14.1 36.1c-12.82 7.22-26.43 14.15-40.74 17.37 6.2-8.11 27.76-8.28 38.31-16.19zm-42.9 43.1c-13.9 5.69-28.81 10.43-43.8 10.99.66-5.5 11.82-1.92 16.62-4.23 9.24-1.44 18.35-3.7 27.18-6.76zm-46 40.7c-14.7 3.53-30.27 7.84-45.45 5.37-1.88-1.93 1.48-3.58 3.12-2.35 14.18 2.15 28.4-.47 42.33-3.02zm104.3-87.4c-11.9-6 4.02-4.54 0 0zm25.2-35.5c-1.24-.65-3.38-5.07-.41-2.86 3.05-.99.43 1.82.41 2.86zm-59.2 31.3c5.3-9.35 4.35 4.02 0 0zm6.8-29c2.17-3.72 4.07-9.74 3.12-1.98-.14 2.97-.17 3.85-3.12 1.98zm96.8-62.8c-6.73 2.52-12.89 2.24-2.71-1.46.99-1.73 1.77 1.05 2.71 1.46zm26.8-79a29.01 29.01 0 01-9.2 7.6c4.08-1.18 4.93-12.52 9.2-7.6zm-17.6 35.8c-9.76-.75.45-5.62.1-.56zm-53.1 40.9c-1.16-4.95-1.51-9.1 1.71-2.53 2.81 1.7-.87 1.77-1.71 2.53zm-48 34.4c-7.45-8.3 2.9-5.19 0 0zm-23.1 110.9c-12.97-3.7 2.92-5.15 0 0zm-63.7 56.9c-2.3-1.4-4.2-3.48-5.4-5.9 1.83 3.16 8.78 1.5 5.4 5.9zm-46.9-19.9c-9.36-1.67-17.76-9.07-20.3-18.3a129.13 129.13 0 0020.3 18.3zm42.2-29.7c-6.66-2.1-13.93-6.3-15.6-13.6 4.96 4.81 11.3 8.06 15.6 13.6zm39.9-38.1c-11.8-.49-23.6-.63-35.4-.4 11.35-3.82 24.22-4.22 35.4.4zm-3.9-41.4a67 67 0 01-32.6 12.8c10.33-5.47 21.48-9.3 32.6-12.8zm-3.3 27c-8.2.95-15.33 1.2-3.34-1.89 1.63-2.79 7.57.04 3.34 1.89zm-22.1 31.9c-7.05-4.13-13.14-6.71-1.43-3.5 2.99-1.29 5.72 4.81 1.43 3.5zm-46.1 28.3c-2.28-6.48-5.73-14.82.91-3.97 2.08 1.35 2.96 7.07-.91 3.97zm65.9-102.3c-6.16-1.38-26.2 5.76-22.04 3.54 7.17-3.16 15.1-5.66 22.86-6.21 1.33.52.57 3.21-.82 2.67zM251.9 260.3c9-1.9 14.95-10.3 16.8-18.9 3.97-5.98 13.5-10.73 9.56-19.27-.8-7.55 8.45-13.62 8.6-19.59-.14 6.06-3.78 10.99-6.16 16.26-.05 4.43 2.81 9.72-.6 13.7-4.65 5.3-9.94 10.1-12 17.08-3.14 5.74-9.47 10.59-16.2 10.72zm43.8-51.8c.24-4.29 7.64-19.44 5.61-7.4-.84 3-2.74 5.98-5.61 7.4zm12.1-14.3c2.12-3.42 7.42-19.01 6.86-8.39-.79 3.57-2.92 7.75-6.86 8.39zm28.4-11.7c4.5 3.02 5.1 9.46 2.4 13.9 9.1 8.9-6.83 24.32-7.7 21.72-1.49 13.18-16.3 19.66-27.94 20.5-3.37-.54-6.08 5.96-11.19 7.24-3.06 1.55-8.66 2.08-10.66 1.73 7.74-.08 14.49-4.96 19.1-10.69 10.93-1.59 26.05-6.2 28-19.06 4-4.7 15.24-10.02 9.23-19.2-1.83-4.8 5.09-9.42.41-14.24z" transform="translate(53 72) scale(.11875)"/>
    </g>
    <g fill="none">
      <path d="M88.19 106.18c.64-.02 1.82-.4 1.82-.4s.4-1.2.28-1.76c-.12-.59-.18-1.23-.54-1.82 1.69.8 4.23 1.03 5.3.5.56-.28.43-3.34.06-3.84.6-.13 3.59.42 5.5-1.32-.36-1.74-2.3-2.56-2.92-2.45 1.61-.93 2.74-2.56 2.75-3.66 0-.51-.96-1.45-3-1.38"/>
      <path d="M116.73 78.34c-.39.87-3.27 3.56-6.16 4.94a11.38 11.38 0 01-5.72 4.03 14.84 14.84 0 01-5.09 3.24m11.3-3.22c-2.33 2.65-5.6 3.9-6.71 3.73-.74 1.33-1.78 1.92-3.18 2.53-.72.3-1.49.49-2.26.6m9.15-1.54a11.16 11.16 0 01-3.51 1.69c-.3.08-.7.1-.99.21-.25.1-.41.4-.65.54-.77.47-2.35 1.05-2.85 1.25m-1.65 6.4c-1.76 1.07-4.94 1.55-6.22.99a4.5 4.5 0 01-1.75.51"/>
      <path d="M103.1 97.94a6 6 0 01-2.22.83c-.42.08-1.25.14-1.25.14s-.54.52-.9.75c-.89.57-2.32.9-3.02.72"/>
    </g>
  </g>
</svg>
