<svg xmlns="http://www.w3.org/2000/svg" fill="#d7374a" stroke="#000" viewBox="50 50 200 200"><metadata license="https://creativecommons.org/licenses/by-nc-sa/3.0" source="http://wappenwiki.org"/><g id="harp" stroke-width=".32"><path d="M127.87 77.55s2.82-5-.68-7c-4.95-2.8-9.66 6.6-16.8 9.82-7.15 3.22-17.26 6.83-32.64-2.98-1.07-1.84-.2-6.07-.2-6.07s1.35-4.08 1.39-3.99c4.67 3.86 13.8 8.64 23.12 8.32 12.02-1.31 17.7-13.27 26.8-8.12 5.8 3.29 1.4 11.38 1.4 11.38 0 .02-.58.06-1.35-.36-.8-.45-1.04-1-1.04-1z"/><path d="M127.9 80.36a3.63 3.63 0 00-4.92 1.19c-.81 1.18-30.71 49.5-30.71 49.5l2.17 2.29-1.65 3.03 3.57 2.02 31.54-58.03z"/><path d="M116.94 71.96l-.77.55 6.88 16.84.83-.36-6.94-17.03z"/><path d="M114.7 73.57l-.76.55 7.45 18.25.83-.35-7.52-18.45z"/><path d="M112.45 75.13l-.78.5 8.09 19.78.83-.35-8.14-19.93z"/><path d="M110.13 76.54c-.25.15-.53.29-.8.44l8.78 21.46.83-.35-8.8-21.55z"/><path d="M107.73 77.76c-.27.13-.56.24-.83.36l9.54 23.38.84-.35-9.55-23.4z"/><path d="M102.65 79.48c-.3.06-.6.14-.91.19l11.4 27.9.84-.35-11.33-27.74z"/><path d="M105.24 78.74c-.28.1-.58.2-.86.27l10.41 25.52.83-.35-10.38-25.44z"/><path d="M96.95 79.69l-1.02-.1 13.91 34.05.84-.35-13.73-33.6z"/><path d="M99.9 79.82l-1-.01 12.59 30.8.83-.35L99.9 79.82z"/><path d="M93.9 79.3c-.35-.06-.72-.12-1.07-.2l15.35 37.58.83-.36L93.9 79.31z"/><path d="M90.74 78.64l-1.1-.28 16.9 41.36.83-.35-16.63-40.73z"/><path d="M87.45 77.68l-1.15-.4 18.58 45.47.83-.35-18.26-44.72z"/><path d="M84.01 76.35c-.42-.18-.81-.37-1.22-.57l20.44 50 .84-.35L84 76.35z"/><path d="M80.36 74.48c-.3-.18-.61-.36-.89-.56l-.27.12 22.39 54.79.83-.35-22.06-54z"/><path fill="none" d="M77.33 72.39c4.68 3.85 14.3 7.73 23.62 7.4 7.54-1.2 12.4-5.29 16.48-8.2 3.58-2.55 6.95-4.6 10.57-2.56 5 2.83.89 9.5.89 9.5"/><path d="M98.96 127.15l-1.48 2.74s-6.18-3.22-12.7-10.63c-10.24-11.67-14.99-24.8-16.3-37.96-.77-7.67.2-15.25 2.92-21.87l9.01 5.2s-3.5 7.9-2.65 22.8a56.3 56.3 0 0010.4 28.66c5.43 7.36 10.8 11.06 10.8 11.06z"/><path d="M127.9 80.36a3.78 3.78 0 011.63 4.9c-.55 1.32-24.79 52.57-24.79 52.57l-3.17-.46-1.66 3.04-3.55-2.02 31.54-58.03z"/><path d="M106.72 126.27a2.1 2.1 0 01.79 2.83c-.55 1-1.8 1.36-2.78.8s-1.34-1.82-.8-2.82c.55-1 1.8-1.37 2.79-.81z"/><path d="M122.06 96.12c.5.27.68.9.4 1.4-.27.5-.9.69-1.4.41-.48-.27-.66-.9-.39-1.4.27-.51.9-.68 1.4-.41z"/><path d="M114.37 111.15c.64.36.86 1.18.52 1.82a1.3 1.3 0 01-1.79.52 1.35 1.35 0 01-.51-1.81 1.3 1.3 0 011.78-.53z"/><path d="M130.25 78.91c0 .02-.58.06-1.35-.36-.77-.44-1.03-.97-1.03-.97s-1.8-.78-2.49.48c-.84 1.54.18 2.53 1.92 3.45 1.75.93 2.87 1.02 3.6-.31.74-1.4-.65-2.29-.65-2.29z"/></g></svg>