<svg xmlns="http://www.w3.org/2000/svg" fill="#d7374a" stroke="#000" viewBox="50 50 200 200"><metadata license="https://creativecommons.org/licenses/by-nc-sa/3.0" source="http://wappenwiki.org/images/6/6c/Corsica_Ancient.svg"/><g id="head" stroke-width=".375"><path d="M86.68 124.55c1.65 3.68.67 5.1.9 6.94.35 3.12 1.37 2.52 2.06 5.9.72 2.94-1.69 5.45.32 5.26 4.08-.93 6.2-3.27 13.72-5.11 7.52-1.84 10.7-.88 12.96-1.98 1.96-.9 2.97-2.01 2.77-3.2-.47-3.02-1.96-4.29-2.87-10.47-.5-4.41-.41-6.4 1.45-9.59l6.55-12.54c.26-4.53-1.65-7.45-4.75-10.77-3.1-3.31-6.89-5.9-10.24-8.98-1-.91-1.96-1.87-3.05-2.68a24.43 24.43 0 00-5.51-2.9c-8.88-3.65-14.69-9.32-24.15-7.7-.14.23-3.26 3.45-3.91 5.27C71.8 75.45 69 79.75 69 82.45c0 3.89 2.25 3.59 2.25 5.71 0 0 0 4.1-2.06 6.89-1.74 2.35-5.04 3.03-5.04 5.6 0 3.33 3.86 2.56 3.86 4.23 0 1.32-.53 1.47-1.18 2.2-.57.66-1.04 1.12-1.1 1.43-.14.94.33 1.67.76 2.24.89 1.19 2.25 1.68 2.25 1.68s-1.43.3-1.43 1.9c0 .8.74 2.02 1.5 2.57 1.4 1.01 3.19.56 3.19.56.49 1.89-.87 2.6.84 5.57.96 1.52 3.92 2.3 5.8 2.48 1.56.15 2.3-.09 3.89-.37 1.45-.24 4.15-.59 4.15-.59z"/><path d="M129.1 88.41c.31-2.3-.6-3.1-.6-4.46 0-1.35.76-1.9.14-4.3-.63-2.4-1.73-1.56-2.14-3.65-.42-2.09-.02-1.39-.74-3.99-.73-2.61-3.09-3.27-3.83-4-.72-.72-1.36-3.02-3.66-4.06-1.99-.9-3.84-.65-5.19-1.28-1.35-.62-1.1-1.9-4.4-2.98-3.02-1-4.3-.15-5.87-.35-1.56-.22-2.89-1.62-5.51-1.77-2.45-.13-3.14.97-5.02 1.18-1.87.21-2.55-.1-5.3.32-2.17.34-3.48 2.45-5.17 2.98-1.59.49-6.24 2.05-6.11 4.95-.33.7-2.76 1.97-2.41 3.81.18-.4-.42 1.43.44 1.48.68.03 2.8.28 3.43.6 1.99 1.02 2.79-.12 4.98.41.54.13.91.82 1.46.9 2.22.31 5.73.59 6.51 3.4.26.95-.26 1.92-.26 2.9-.02 1.44 2.37 2.69 2.41 4.17.02.98-.11 2.13.64 2.77.63.53.35.4 1.1.78.4.2.7.55 1 .9 1.2 1.34 2.46 2.33 2.07 4.4-.09.47-.27.92-.31 1.4-.06.62.11 1.24.29 1.84.63-.14 1.3-.12 1.92.04.8.21 1.89.92 2.61.24.62-.58.88-2.37 1.18-3.14.22-.58.64-1.03.95-1.64.26-.51.24-1.34.59-1.85s.77-.65 1.25-.92c.62-.38 1.31-.95 2-1.08 1.73-.34 2.52-.3 2.52-.3.3 0 .86.25.86.25 2.68.83 4.7 4.14 3.35 8.48-.95 3.08-2.27 3.51-3.77 4.06-.49.17-.99.4-1.49.66-.02.25-.01.5 0 .74.13 1.82-.51 1.81-.97 2.76-.45.93-.75 1.86.08 2.93.2.25.55.51.77.9.28.52.5 1.32.88 1.61.34.26.78.41 1.12.75.36.37.62.92 1.05 1.12.58.28.97-.02 1.67.07.45.05.45.32.93.5.32.11.9.08 1.11.13.97.2 1.99 1.4 2.96.3.44-.5.56-1.2.99-1.73.55-.69.75-.77 1.41-1.35.9-.8.31-3.19 1.05-3.98 1.11-1.19 1.74-1.3 2.71-2.61a14 14 0 001.15-1.7c.42-.76.64-1.61 1.08-2.36.4-.68.91-1.08 1.02-1.9.22-1.54-.42-3.07-.07-4.58.41-1.8.82-2.46 1.14-4.75z" class="secondary"/><path fill="none" d="M110.96 88.32c2.68.83 4.69 4.14 3.35 8.48-.95 3.09-2.27 3.51-3.77 4.06a9.9 9.9 0 00-3.68 2.25c-1.05 1.16-1.91 1.71-3.39 1.25"/><path fill="#fff" d="M81.61 91.7c-.1-.09-1.51-1.18-2.96-2-1.61-1.11-3.05-1.26-3.05-1.26h0s-.4 1.13-.14 2.31a5 5 0 001.19 2.26c1.71-.27 2.51-.5 3.29-.66.3-.09 1.68-.37 1.67-.65z"/><path d="M72.04 84.92c-.1.03-.19.04-.28.03-.69-.07.06-1.51.29-1.81.47-.6 1.1-1.04 1.82-1.28 1.88-.61 3.63-.01 5.28.86 1.34.77 6.27 4.68 5.35 5.33-.63-.45-4.85-3.03-7.53-3.53a9.73 9.73 0 00-4.16.11c-.2.05-.5.23-.77.3z" class="secondary"/><g fill="#000" stroke="none"><path d="M103.4 104.5c-.83-.36-1.17-1.14-1.34-1.93.27.73.74 1.4 1.47 1.58zm.92-4.69c-.22-.2-.19-.54-.07-.78.77-1.2.4-2.3 0-3.49-.05-.2-.11-.46.05-.63a.6.6 0 00.06.4c.78 1.27 1.11 2.46.19 3.66-.15.22-.32.47-.24.74 0 .03.03.08.01.1zm.96-5c.03.32.09.73.43.86.79.09 1.65-.47 2.32-.13 1.11.66 1.08 1.9.73 2.92a.94.94 0 01-1.07.63c-.31-.02-.68-.2-.96.01-.48.3-.77.83-1.27 1.1-.18.1-.4.16-.6.06.37.09.66-.2.88-.46.38-.4.7-1.02 1.3-1.1.35-.03.72.14 1.06 0 .63-.65.7-2 .15-2.6-.75-.74-1.67-.1-2.46-.24-.33-.06-.5-.4-.5-.7-.01-.12-.03-.26 0-.35zm2.46-3.82c1.47-.28 2.7 1.49 1.62 2.6.4-1.34-.42-2.25-1.62-2.6zm-1.94.83c.3-.84 1.1-1.53 1.91-1.94 1.3-.59 2.84-.2 3.98.59a3.7 3.7 0 011.58 2.94 8.97 8.97 0 01-.64 3.93c-.46 1.13-1.55 1.79-2.62 2.26-1.23.55-2.52 1.03-3.56 1.9-.27.26.28-.34.43-.4 1-.8 2.2-1.3 3.32-1.88.99-.53 1.98-1.29 2.26-2.43.47-1.6.76-3.39.01-4.95-.57-1.06-1.72-1.68-2.85-1.98a3.42 3.42 0 00-3.26 1.14c-.18.25-.55.5-.56.82z"/><path d="M106.54 89.13c.28-.25.63-.45.98-.62a6.08 6.08 0 012.3-.51c.4-.01.8.03 1.2.14l-.13.35a3.9 3.9 0 00-1.09-.21 5.78 5.78 0 00-2.25.32c-.35.12-.7.3-1.01.52z"/><path d="M98.21 82.45c-.95 2.69 1.32 5.57-.13 8.15.88-2.69-1.3-5.53.13-8.15zm14.8 20.8c.62 1.6-.25 5.67-.08 5.97-.82-1.96.38-3.96.08-5.97zm3.03-.66c.02 2.52 3.45 3.4 2.87 6.14-.08.06-.82-3.38-2.3-3.77a2.89 2.89 0 01-.57-2.37zm1.59-6.95c-.64 2.8 2.59 4.1 2.51 6.67.03.81-.5-2.41-1.61-2.69-1.05-1-1.2-2.63-.9-3.98zM93.25 78.31c-1.03 2.71 1.95 4.5 1.54 7.07-.1.82-.1-2.3-1.1-2.76-1.03-1.2-.99-2.91-.44-4.31zm7.47 5.05c2.05 1.72.1 4.54.4 6.75.22 1.86-.61-1.64-.17-2.32.09-1.43.98-3.24-.23-4.43zM90.04 59.81c.84.01 4.77-2.28 2.56-.75-.81.37-1.66.73-2.56.75zm-12.43 7.97c-1.76-.93 2.18-4.57.75-2.54-.55.72-.94 1.63-.75 2.54zm.94.93c.58-1.19 3.56-2.84 3.24-2.22-1.1.72-2.16 1.48-3.24 2.22zm5.04.01c-.69-2.03 2.98-3.14 3.3-2.93-1.2.7-2.94 1.05-3.23 2.68 0-.16-.07.37-.07.25zm5.32 1.69a3.6 3.6 0 014.48-.83 5.98 5.98 0 00-4.48.83zm4.58 1.12c1.6.47 1.7 2.45 1.3 3.78-.05.8.28 1.93-.23.57-.24-1.5.6-3.39-1.07-4.35zm9.82 3.63c1.55-.04 3.1-1.16 4.54-.04 1.5.63 1.62.92-.04.31-1.52-1.03-2.9.16-4.5-.27zm-5.23.7c.54 1 2.08 3.32 2.34 3.5-1.48-.54-1.9-2.2-2.34-3.5zm-1.67-4.87c1.83-.07 2.5 2.04 3.96 2.73-1.72-.22-2.33-2.34-3.96-2.73zm-15.57-6.13c.95-2.1 3.17-3.17 5.31-3.65 2.14-1.06-1.43 1.1-2.34 1.21a8.93 8.93 0 00-2.97 2.44zm15.39 2.49c-.7-.57-4.18-1.03-5.62-1.07 3.74-.63 5.8.9 5.62 1.07zm-8.45-3.69c1.62-2.07 6.27-.57 7.07-.85-2.34.62-4.88-.48-7.07.85zm13.07-3.5c.9-.82 5.33-1.14 2.13-.53-.72.14-1.43.33-2.13.53zm9.03 2.74c1.52.65 3.1-.16 4.67 0-.22.75-1.78.1-2.56.38a4.1 4.1 0 01-2.11-.38zm-3.14 22.52a6.26 6.26 0 016.55 1.61 9.63 9.63 0 00-6.55-1.61zm9.57 6.63c.49-2.02-1.27-4.02-.26-5.99-.5 2 1.27 4.04.26 5.99zm1.65-6.2c1.89.58 2.5 2.52 3.14 4.15 1.19 1.15-1-.38-.87-1.21a6.27 6.27 0 00-2.27-2.94zm-8.42-7.69c1.8.71 2.74 2.5 3.46 4.18 1.23 1.04 3.08 1.4.67.85-1.77-.69-1.68-3.06-3.12-4.15a8.29 8.29 0 00-1.01-.88zm-5.98-.5c2.14.48 3.33 2.52 3.93 4.46.02.64-1.25-2.22-1.9-2.83a7.22 7.22 0 00-2.03-1.63zM99.2 63.55c1.58-1.36 3.75-.99 5.61-.69.6.27-2.53.08-3.34.11-.78.08-1.54.3-2.27.58zm21.65 6.66c-2.67.94-4.08-2.96-6.75-2.53-.73.06 1.24-.47 1.64-.06 1.87.5 3 2.91 5.1 2.59zm-10.4-1.41c-2.18.44-3.84-1.06-5.56-2.06-1.18-.44-2.68-.62-.57-.47 2.05.43 3.42 2.46 5.63 2.46zm-11.42-.67c2.22-.28 3.49 2.22 5.1 3.3 2.6 1.62-1.04-.05-1.63-.95-1.06-.88-1.98-2.28-3.47-2.35zm21.2 13.72c1.02 2.14 4.6 1.42 5.3 3.89.26.91-.92-1.58-1.73-1.38-1.21-.6-3.37-.82-3.56-2.51zm-12.8-10.93c1.32 2.24 5.17 1.1 6.19 3.7.34.92-.7-1.1-1.34-1.06-1.58-.88-4.27-.51-4.84-2.64zm16.67 2.69c1.04 1.22 2.06 2.45 3.19 3.59-1.22-.03-2.16-2.55-3.18-3.59zm2.75 7.09c1.37 1.14 1.3 3.09 2.1 4.55-.79.34-.7-1.56-.99-2.19-.2-.84-.44-1.76-1.11-2.36zm-5.94 13.26c1.58.88 1.91 2.75 2.8 4.15-.2.47-1.65-2.52-2.2-3.35-.19-.28-.39-.55-.6-.8zm3.03-4.82c1.77.85 2.23 2.93 2.3 4.71 1.12 2.4-1.1-1.06-.7-2.15-.26-1-.85-1.87-1.6-2.56zm.53-9.13c-2.18.46-3.85-1.05-5.57-2.06-1.18-.44-2.68-.62-.57-.46 2.05.47 3.48 2.45 5.7 2.5l.22.01.22.02zm-9.2-8.11c1 2.13 4.58 1.43 5.28 3.89.27.92-.9-1.57-1.72-1.38-1.23-.6-3.36-.83-3.56-2.51z"/><path d="M107 110.4c.35 5.1-3.26 9.67-4.35 14.48.71-4.95 4.05-9.5 4.35-14.48zm-8.61 13.8c-1.32 3.65-.92 7.87-1.66 11.49.04-4.05.16-7.9 1.66-11.49zm3.86-12.65c-.51 2.6-1.1 4.94-2.25 7.11-1.4 2.66-4.48 4.15-7.08 5.05-2.08.75-4.23.88-6.26 1.07l-.03-.38 1.57-.14a21.2 21.2 0 007.5-2.11c1.85-.93 3.19-1.83 4.14-3.59a26.38 26.38 0 002.4-7.02zm-25.94-9.54a7.7 7.7 0 00-.01 1.27c.26 2.92 2.75 3.98 4.26 5.94.27.34.48.73.59 1.14l-.05.02c-1.86-2.81-5.93-4.36-4.79-8.36zm11.55 5.77c3.43-1.38 6.86-3.37 8.28-6.83l.06.02c-1.03 3.74-4.8 5.95-8.33 6.82v-.01zm-11.61 4.15c-1.8-.58-3.47-1.74-5.07-2.52-1.6-.7-3.64-1.64-5.24-.68l-.19-.33c1.88-.9 3.9 0 5.55.8 1.73.8 3.15 2.07 4.95 2.73zm-7.4.37a6.29 6.29 0 013.93.55c1.16.67 2.36 1.3 3.62 1.36-1.37.18-2.62-.57-3.75-1.09a6.08 6.08 0 00-3.72-.44zm7.99 3.84c-1.45.4-2.72 1.05-4.05 1.46-.2.06-.43.09-.65.1l-.1-.42a5.6 5.6 0 001.24-.2c.77-.25 1.63-.59 2.33-.8.4-.12.81-.23 1.23-.22zm-4.9-11.79c-.9.48-2.12.41-2.85-.23l.02-.05c1.04.2 1.83.27 2.84.27v.01zm.85-5.3c.6.06 1.19.23 1.72.49.28.14.53.31.75.52.69.75.77 1.71.44 2.65-1.2 3-2.6 1.25-4.5.49a5.97 5.97 0 00-3.44.13l-.02-.05c1.18-.42 2.38-.76 3.56-.38 1.56.54 3.1 2.54 4.08-.3.41-1.13.06-2.35-.97-2.9a5.8 5.8 0 00-1.64-.64h.02zm-.95-4.09c.54-1.31.93-2.5 1.37-3.89-.04 1.35-.53 3.08-1.37 3.9zm9.08-1.87c-.79.54-1.87 1-2.8.74v-.06c.97-.25 1.87-.64 2.81-.68zm-4.16 1.31c.05.23 0 .46-.07.68a4.64 4.64 0 00.01 4.3l-.05.03c-1.3-1.48-1-2.88-.15-4.41.1-.19.2-.39.23-.6zm-.18-7.82c2.7.17 4.28 2.68 5.31 4.71-1.75-2-3.04-4-5.32-4.71zm-3.43 1.38c.8.19 1.73.2 2.49.35l-.16.34c-.72-.31-1.6-.41-2.33-.69zm3.49 5.28l-1.99.29 1.9-.67zm-.11-7.48a9.72 9.72 0 00-2.03-.05c-.7.05-1.25.34-1.89.63l-.03-.05c.48-.57 1.22-.9 1.88-.96.72-.08 1.44.07 2.06.43zm.2 3.08c-.1.06-.47.68-.37 1.49.09.65.39 1.53 1.15 1.93.88.25-.88-1.33.54-2.88-.44-.08-1.11-.54-1.32-.54z"/></g></g></svg>