<svg xmlns="http://www.w3.org/2000/svg" fill="#d7374a" stroke="#000" viewBox="50 50 200 200">
  <metadata source="http://wappenwiki.org/images/d/dd/Jez.svg" license="https://creativecommons.org/licenses/by-nc-sa/3.0"/>
  <g id="hedgehog" stroke-width="3" transform="translate(52 49) scale(0.12)">
    <g>
      <path class="secondary" d="M154.5 557.3s-.8-.4-4.7-.2c-3.9.1-7 2.4-8 3.3-.9.9-3.4 4.8-2.7 5.5.7.7 7.4-1.9 10.4-2 3-.1 4.6.2 5.6.5.9.3-.6-7.1-.6-7.1zm1.6 11.5s-.9-.3-4.9.3c-4 .7-7 3.5-7.8 4.6s-2.9 4.7-2.1 5.3c.8.6 7.4-2.2 10.5-2.7 3.1-.5 4.8-.4 5.8-.3 1.1.2-1.5-7.2-1.5-7.2zm21.9 10.8c-.9.5-2.4 1.4-4.6 3.6-2.2 2.2-6 8.3-7 8.4-1 0-1.4-4.1-1.4-5.5 0-1.4.7-5.4 3.6-8.3 2.9-2.9 3.6-2.3 3.6-2.3s6.7 3.5 5.8 4.1z"/>
      <path d="M319.7 533.4c-9.6 6.1-19.3 12.3-30.1 15.7-2.9.9-5.9 1.6-8.7 2.6-3.2 1.1-6.3 2.7-9.4 4.1-3.2 1.4-6.4 2.7-9.3 4.5-3.5 2.2-6.4 5.3-9.6 7.9-7.3 5.9-13 10.1-22.3 9.7a283 283 0 0 0-13.1-.3c-9.3.1-11 1.4-19.9 3.9-2.7.7-5.9 1.5-7.9-.4-2.7-2.5-4.4-5.1-8.1-1.8-1.2 1-2.2 2.6-4.8 1.1-.2-.2-2.2-2.1-3.9-2.7-1.7-.6-3.1-.4-3.4-.4-1.6-.2-1.8-3-1.8-3s-1.8 2-3.7 2.6c-1.9.6-5.2.7-5.9-.3-2.8-7.2-5.9-7.6-5.9-7.6.9-.4-.5-4 3-5.3-.1-1.8-.1-3.1-2.4-6.6.2-1.1 2.7-4.9 6.7-3.5 2.9.9 7.5.3 10.6.1 5.2-.3 10.5.7 15.7.7 5.6.1 16.4.4 20.5-3.2 5-4.4 9.5-6.4 15.1-10.1 6.6-4.3 14.8-5.7 21.5-9.8a58 58 0 0 0 10.7-9.1l27.7-27.4"/>
      <g stroke="none" fill="#000">
        <path d="M281.3 534.4c11.4-1.1 21.3-6.8 31.8-10.9-8.7 7.1-20.3 13.4-31.8 10.9z"/>
      </g>
      <path class="secondary" d="M278.5 586.3s-.8-.4-4.7-.2c-3.9.1-7 2.4-8 3.3-.9.9-3.4 4.8-2.7 5.5.7.7 7.4-1.9 10.4-2 3-.1 4.6.2 5.6.5.9.3-.6-7.1-.6-7.1zm1.6 11.5s-.9-.3-4.9.3c-4 .7-7 3.5-7.8 4.6-.8 1.1-2.9 4.7-2.1 5.3.8.6 7.4-2.2 10.5-2.7 3.1-.5 4.8-.4 5.8-.3 1.1.2-1.5-7.2-1.5-7.2zm21.9 10.8c-.9.5-2.4 1.4-4.6 3.6-2.2 2.2-6 8.3-7 8.4-1 0-1.4-4.1-1.4-5.5 0-1.4.7-5.4 3.6-8.3 2.9-2.9 3.6-2.3 3.6-2.3s6.7 3.5 5.8 4.1z"/>
      <g stroke="none" fill="#000">
        <path d="M142.5 563.4a15 15 0 0 1 12.5-1.9v.1c-4.3-.2-8.4 1-12.5 1.8zm2.2 13c3.4-2.6 7.9-4.3 12.2-3.2v.2c-4.3.1-8.2 1.7-12.2 3zm22.7 11.6a15 15 0 0 1 7.7-10l.1.1c-3.3 2.8-5.4 6.5-7.8 9.9zm-1.6-13.6c-.2-3.2 2-6.4 5.4-6.4l-.8.3c3.1-2.5 7.2-2.6 10.9-2.6 3.5 0 6.7-.4 10.1-1.4l.2.3c-1.3 1.3-3 2.1-4.8 2.6-3.4 1-7.1.8-10.4 1.5-1.6.4-3 .9-4.1 1.9a1 1 0 0 1-.7.3c-1.9.1-2.7 1.7-2.7 3.3l-3.1.2zm15-11.8c-3.6 1.7-7.6 1.9-11.5 2.3a76.2 76.2 0 0 1-13.9 0l-1.3-2.7c.6-.3 1.3-.5 2-.5.8 0 1.4 0 2.2.3l-.5-.1c3.7.3 7.6.5 11.4.5 3.9.1 7.6-.3 11.5-.1l.1.3zm-20.9-10.3c2 1.9 2.1 4.5 1.7 6.9h-.3c-.5-1.8-1.3-3.8-3.1-4.4l1.7-2.5z"/>
        <path d="M173.2 570.6c2.8-1.5 7 .8 6.8 4.1l-.3.1c-2.3-2.2-4-2.7-6.5-4.2zm-15.3-8.7c3 .9 4 4.4 4.2 7.2l-.3.1c-.9-1.8-2.2-4.1-4.3-4.4 0 0-.1 0 0 0l.4-2.9z"/>
      </g>
    </g>
    <g>
      <path class="secondary" d="M518.3 557.5s-.8-.4-4.7-.2-7 2.4-8 3.3c-.9.9-3.4 4.8-2.7 5.5.7.7 7.4-1.9 10.4-2 3-.1 4.6.2 5.6.5s-.6-7.1-.6-7.1zM520 569s-.9-.3-4.9.3c-4 .7-7 3.5-7.8 4.6-.8 1.1-2.9 4.7-2.1 5.3.8.6 7.4-2.2 10.5-2.7 3.1-.5 4.8-.4 5.8-.3 1.1.2-1.5-7.2-1.5-7.2zm21.9 10.8c-.9.5-2.4 1.4-4.6 3.6-2.2 2.2-6 8.3-7 8.4-1 0-1.4-4.1-1.4-5.5 0-1.4.7-5.4 3.6-8.3 2.9-2.9 3.6-2.3 3.6-2.3s6.7 3.5 5.8 4.1z"/>
      <path d="M540.4 474.2c-5.6 8.4.4 26.8 4.2 35.9 4.7 11.2 11.9 13.6 22.1 19.1 3.4 1.8 5.9 2.5 8.7 5.1 2.8 2.6 3 6.2 2.8 10.1-.3 6.7-12.1 8.5-17.3 9.1-6.9.8-4.8 1.2-11.7 1.1-5.2-.1-10.5-1-15.7-.7-3 .2-7.7.9-10.6-.1-4-1.3-6.5 2.4-6.7 3.5 2.3 3.5 2.3 4.8 2.4 6.6-3.5 1.3-2.1 4.9-3 5.3 0 0 3.1.4 5.9 7.6.7 1 4 .9 5.9.3 1.9-.6 3.7-2.6 3.7-2.6s.2 2.9 1.8 3c.3 0 1.7-.2 3.4.4 1.7.6 3.6 2.6 3.9 2.7 2.6 1.5 3.6-.1 4.8-1.1 3.7-3.3 5.4-.7 8.1 1.8 2 1.9 5.2 1.1 7.9.4a74.4 74.4 0 0 1 22.9-3.9c4.4-.1 2.8.1 7.1.3 4 .2 5.4-1.4 9.1-3.1 5-2.2 11.4-5.5 14.3-10.7 1.4-2.4 1.7-5.2 2-7.9 1-7.5 7.6-11.6 9.6-18.7 1-3.7.5-8-2.3-10.6-1.3-1.2-2.9-1.9-4.4-2.9a17.7 17.7 0 0 1-7.5-9.7c-1.2-3.8 1.1-15.9 1-19.9a88.7 88.7 0 0 0-3.4-20.5"/>
      <g stroke="none" fill="#000">
        <path d="M506.2 563.6a15 15 0 0 1 12.5-1.9v.1c-4.4-.3-8.4.9-12.5 1.8zm2 12.9c3.4-2.6 7.9-4.3 12.2-3.2v.2c-4.4.1-8.2 1.7-12.2 3zm23.1 11.5a15 15 0 0 1 7.7-10l.1.1c-3.4 2.8-5.5 6.4-7.8 9.9zm-1.6-13.4c-.2-3.2 2-6.4 5.4-6.4l-.8.3c3.1-2.5 7.2-2.6 10.9-2.6 3.5 0 6.7-.4 10.1-1.4l.2.3c-1.3 1.3-3 2.1-4.8 2.6-3.4 1-7.1.8-10.4 1.5-1.6.4-3 .9-4.1 1.9a1 1 0 0 1-.7.3c-1.9.1-2.7 1.7-2.7 3.3l-3.1.2zm14.9-11.8c-3.6 1.7-7.6 1.9-11.5 2.3a76.2 76.2 0 0 1-13.9 0l-1.3-2.7c.6-.3 1.3-.5 2-.5.8 0 1.4 0 2.2.3l-.5-.1c3.7.3 7.6.5 11.4.5 3.9.1 7.6-.3 11.5-.1l.1.3zm-20.8-10.3c2 1.9 2.1 4.5 1.7 6.9h-.3c-.5-1.8-1.3-3.8-3.1-4.4l1.7-2.5z"/>
        <path d="M537.1 570.8c2.8-1.5 7 .8 6.8 4.1l-.3.1c-2.4-2.2-4-2.7-6.5-4.2zm-15.3-8.6c3 .9 4 4.4 4.2 7.2l-.3.1c-.9-1.8-2.2-4.1-4.3-4.4 0 0-.1 0 0 0l.4-2.9z"/>
      </g>
    </g>
    <path d="M183.9 368a99 99 0 0 0-13.7 14.8c-5.8 6.5-7.5 12.5-15.1 17.1-8.7 5.3-18.6 9-25.8 16.2-2.1 2.1-3.9 4.5-6.3 6.3-3.4 2.8-15.5 16.4-34.3 19.3-7.6.5-13.4 2.2-15.3 3-1 .4-2 .9-2.8 1.7-2.7 2.7-3.9 5.9-2.7 9.5.9 2.8 4.5 8.9 11.9 10.7 2.1.9 3.6 3.5 5.1 5.1 2.7 2.9 6.2 4.8 9.6 6.8a39 39 0 0 0 8.3 2.6c1.5 2.3 7.4 5.7 8.7 6.4a67.8 67.8 0 0 0 26.1 8.3c11.1.9 20.2-1.8 30.4-2.4 4.8.1 9.5 1.8 14.2 2.8 12.9 2.6 30.1 3.5 42.8-1.9 12.7-5.4 13.7 1.2 25.1-6.7.8 9.2 8.7 7.2 15.7 13.1 7 5.9 11.3 10.2 18.9 15.3 11.2 7.5 27.9 23.6 41.4 24l61 10.1c31.7 2.3 53.6 9.1 90.6 7.5 9.2-.4 27.8-4.7 36.6-7.4a663 663 0 0 1 46-12.3c13.9-3.1 40.1-5.8 54.2-3.9l55.9-23.3c16.9 25.6 38.3 19.2 42.2 18 11.2-3.4 14.8-11.3 17.4-20.5-11.3 6.3-34.6 5.5-38.4-9.4"/>
    <path d="M324.3 525.9a49 49 0 0 0 6.5 24.7c2 3.7 5.1 10.7 4.8 20.4-.1 3.3-3.3 6.9-5.8 9.1-4.1 3.7-14.9 3.3-20.5 3.2-5.2-.1-10.5-1-15.7-.7-3 .2-7.7.9-10.6-.1-4-1.3-6.5 2.4-6.7 3.5 2.3 3.5 2.3 4.8 2.4 6.6-3.5 1.3-2.1 4.9-3 5.3 0 0 3.1.4 5.9 7.6.7 1 4 .9 5.9.3 1.9-.6 3.7-2.6 3.7-2.6s.2 2.9 1.8 3c.3 0 1.7-.2 3.4.4 1.7.6 3.6 2.6 3.9 2.7 2.6 1.5 3.6-.1 4.8-1.1 3.7-3.3 5.4-.7 8.1 1.8 2 1.9 5.2 1.1 7.9.4 8.9-2.5 10.6-3.8 19.9-3.9 4.4-.1 8.8.1 13.1.3 4 .2 8.4.6 12.1-1.1 6.8-3.1 7-7.2 9.2-14.8 1.3-4.3 3.1-7.4 4.1-11.9 2-8.8 10-13.1 12-21.6 1.5-6.5-1.9-13.2-4.5-19.3"/>
    <g stroke="none" fill="#000">
      <path d="M385.8 538.7c-1.8-4.9-4.5-9.4-6.6-14.2a31.9 31.9 0 0 1-3-15.5c.2 5.2 1.8 10.3 4.4 14.8 2.6 4.6 5.7 8.9 8 13.7l-2.8 1.2zm-63-42.6c4.8 9.1 1.4 19.9 3 29.6l-3 .5c-.5-5.3.7-10.2 1.2-15.3.6-5 .6-10.1-1.2-14.8zm-56.7 96.5a15 15 0 0 1 12.5-1.9v.1c-4.3-.2-8.4 1-12.5 1.8zm2.2 13c3.4-2.6 7.9-4.3 12.2-3.2v.2c-4.3 0-8.2 1.7-12.2 3zm22.7 11.6a15 15 0 0 1 7.7-10l.1.1c-3.4 2.8-5.5 6.4-7.8 9.9zm-1.2-13.8c-.2-3.2 2-6.4 5.4-6.4l-.8.3c3.1-2.5 7.2-2.6 10.9-2.6 3.5 0 6.7-.4 10.1-1.4l.2.3c-1.3 1.3-3 2.1-4.8 2.6-3.4 1-7.1.8-10.4 1.5-1.6.4-3 .9-4.1 1.9a1 1 0 0 1-.7.3c-1.9.1-2.7 1.7-2.7 3.3l-3.1.2zm15-11.8c-3.6 1.7-7.6 1.9-11.5 2.3a76.2 76.2 0 0 1-13.9 0l-1.3-2.7c.6-.3 1.3-.5 2-.5.8 0 1.4 0 2.2.3l-.5-.1c3.7.3 7.6.5 11.4.5 3.9.1 7.6-.3 11.5-.1l.1.3zm-20.9-10.3c2 1.9 2.1 4.5 1.7 6.9h-.3c-.5-1.8-1.3-3.8-3.1-4.4l1.7-2.5z"/>
      <path d="M297.2 599.6c2.8-1.5 7 .8 6.8 4.1l-.3.1c-2.3-2.2-4-2.7-6.5-4.2zm-15.3-8.7c3 .9 4 4.4 4.2 7.2l-.3.1c-.9-1.8-2.2-4.1-4.3-4.4 0 0-.1 0 0 0l.4-2.9z"/>
    </g>
    <g>
      <path class="secondary" d="M578.5 587.3s-.8-.4-4.7-.2c-3.9.1-7 2.4-8 3.3-.9.9-3.4 4.8-2.7 5.5.7.7 7.4-1.9 10.4-2 3-.1 4.6.2 5.6.5.9.3-.6-7.1-.6-7.1zm1.6 11.5s-.9-.3-4.9.3c-4 .7-7 3.5-7.8 4.6-.8 1.1-2.9 4.7-2.1 5.3.8.6 7.4-2.2 10.5-2.7 3.1-.5 4.8-.4 5.8-.3 1.1.2-1.5-7.2-1.5-7.2zm21.9 10.8c-.9.5-2.4 1.4-4.6 3.6-2.2 2.2-6 8.3-7 8.4-1 0-1.4-4.1-1.4-5.5 0-1.4.7-5.4 3.6-8.3 2.9-2.9 3.6-2.3 3.6-2.3s6.7 3.5 5.8 4.1z"/>
      <path d="M600.6 504c-5.6 8.4.4 26.8 4.2 35.9 4.7 11.2 11.9 13.6 22.1 19.1 3.4 1.8 5.9 2.5 8.7 5.1 2.8 2.6 3 6.2 2.8 10.1-.3 6.7-12.1 8.5-17.3 9.1-6.9.8-4.8 1.2-11.7 1.1-5.2-.1-10.5-1-15.7-.7-3 .2-7.7.9-10.6-.1-4-1.3-6.5 2.4-6.7 3.5 2.3 3.5 2.3 4.8 2.4 6.6-3.5 1.3-2.1 4.9-3 5.3 0 0 3.1.4 5.9 7.6.7 1 4 .9 5.9.3 1.9-.6 3.7-2.6 3.7-2.6s.2 2.9 1.8 3c.3 0 1.7-.2 3.4.4 1.7.6 3.6 2.6 3.9 2.7 2.6 1.5 3.6-.1 4.8-1.1 3.7-3.3 5.4-.7 8.1 1.8 2 1.9 5.2 1.1 7.9.4a74.4 74.4 0 0 1 22.9-3.9c4.4-.1 2.8.1 7.1.3 4 .2 5.4-1.4 9.1-3.1 5-2.2 11.4-5.5 14.3-10.7 1.4-2.4 1.7-5.2 2-7.9 1-7.5 7.6-11.6 9.6-18.7 1-3.7.5-8-2.3-10.6-1.3-1.2-2.9-1.9-4.4-2.9a17.7 17.7 0 0 1-7.5-9.7c-1.2-3.8 1.1-15.9 1-19.9a88.7 88.7 0 0 0-3.4-20.5"/>
      <g stroke="none" fill="#000">
        <path d="M566.3 593.4a15 15 0 0 1 12.5-1.9v.1c-4.4-.3-8.4.9-12.5 1.8zm2 12.9c3.4-2.6 7.9-4.3 12.2-3.2v.2c-4.3.1-8.2 1.7-12.2 3zm23.1 11.5a15 15 0 0 1 7.7-10l.1.1c-3.3 2.7-5.4 6.4-7.8 9.9zm-1.6-13.4c-.2-3.2 2-6.4 5.4-6.4l-.8.3c3.1-2.5 7.2-2.6 10.9-2.6 3.5 0 6.7-.4 10.1-1.4l.2.3c-1.3 1.3-3 2.1-4.8 2.6-3.4 1-7.1.8-10.4 1.5-1.6.4-3 .9-4.1 1.9a1 1 0 0 1-.7.3c-1.9.1-2.7 1.7-2.7 3.3l-3.1.2zm15-11.8c-3.6 1.7-7.6 1.9-11.5 2.3a76.2 76.2 0 0 1-13.9 0l-1.3-2.7c.6-.3 1.3-.5 2-.5.8 0 1.4 0 2.2.3l-.5-.1c3.7.3 7.6.5 11.4.5 3.9.1 7.6-.3 11.5-.1l.1.3zm-20.9-10.3c2 1.9 2.1 4.5 1.7 6.9h-.3c-.5-1.8-1.3-3.8-3.1-4.4l1.7-2.5z"/>
        <path d="M597.2 600.6c2.8-1.5 7 .8 6.8 4.1l-.3.1c-2.3-2.2-4-2.7-6.5-4.2zm-15.3-8.7c3 .9 4 4.4 4.2 7.2l-.3.1c-.9-1.8-2.2-4.1-4.3-4.4 0 0-.1 0 0 0l.4-2.9zm88.3-31.1c.1 4.6 2.4 8.3 6.5 10.4-5.6 1.7-10.5-6.1-6.5-10.4z"/>
      </g>
    </g>
    <g stroke="none" fill="#000">
      <path d="M633.9 587.5c4.7 0 7.5-3.6 11.1-6.1-1.2 4.4-6.6 9.1-11.1 6.1zm-301.4.9c4-1.4 7.2-3.5 10-6.7-.2 4.7-5.7 8.3-10 6.7zm-133-28.7c3.4.6 5.9-2.1 8.6-3.7 2.9-1.7 5.8-3.3 9.1-4.3a41.8 41.8 0 0 1-8 6c-2.8 1.7-6.6 4.3-9.7 2zm175-8.8-1.4 13.6c-.1 1.5-.2 3-.5 4.7-.8-1.4-1.2-3-1.5-4.6-.6-4.7.3-9.9 3.4-13.7zM310 495.4c-.1 3.8-.8 9.1-1.1 12.9-.2 2.1-.3 4.2 0 6.1.3 2 1 3.9 2.5 5.6-8.5-3.9-4.8-18.2-1.4-24.6zm100.7 28.4c2.9 4.6 7.8 6.7 12.9 7.7l5.3 1.2c-6.9 2.3-17.5-.5-18.2-8.9zm48.6 8.5c5.8-.7 12 1.8 15.7 6.4a82.1 82.1 0 0 1-15.7-6.4zm31.8 7.5c5 .9 9.7 2.4 14.3 4.5a14.7 14.7 0 0 1-14.3-4.5zm30.3-18.8c1.2 6.2 7.3 9.1 13 9.9 2 .4 4.1.6 6.2 1.1a20 20 0 0 1-12.8-.3c-4.1-1.7-7.8-6.3-6.4-10.7zm24.9 3.9a26 26 0 0 1 12.7-.5 12.3 12.3 0 0 1-12.7.5zm-114.1-1c3.2-1.5 6.8-1.9 10.3-1.8 3.5.2 7 .9 10.1 2.7a45 45 0 0 1-5.2 0c-4.7-.2-10.4-.3-15.2-.9zm4.9 18.7c4.6 1.8 8.9 2.5 13.7 2.5-3.9 3.7-11.3 2.3-13.7-2.5zm-41.6-25.3c-.8 5.8.3 11.2 3.1 16.4-5.8-2.7-7.5-11.7-3.1-16.4zm-49.7-18a21.4 21.4 0 0 0 12.9 14.2c-7.5 1.2-14.8-7-12.9-14.2zM274.7 483a15 15 0 0 0 4.5 11.7c1 1 2.2 1.9 3.6 2.7-6.9.9-12.4-8.9-8.1-14.4zm18.2-3.1c-.3 7.1.5 13.7 2.3 20.5a17.5 17.5 0 0 1-2.3-20.5zm275.3 49.6c3.5-4.4 9.5-6.7 15.1-5.9a75 75 0 0 1-15.1 5.9zm-65.2-3a29 29 0 0 0 12.7 5.9c-4.6 2.9-11.8-.5-12.7-5.9zm-36.8-4.4a131 131 0 0 0 16.3 4.5 14 14 0 0 1-16.3-4.5zm5.6 22.7c3.1.4 6.5 1.3 9.4 2 1 .3 2.1.5 3.2 1-1.1.6-2.2.9-3.4 1-3.4.2-7.2-1.1-9.2-4zm-205.3-83c2.4-1.4 4.4-2.2 7.2-2.6-.4 3.2-4.9 4.8-7.2 2.6zm16.6-2.2c-.5-.3-.1-1 .1-1.4 1.3-2.2 2.6-4 4.5-5.8 1.2 2.9-1.2 6.5-4.2 6.9-.2.1-.4.1-.4.3zm-26.4-20.8c-1.1-2.5 1-5.7 3.8-5.7a8 8 0 0 1-3.8 5.7zM237.9 424c1-3 3.6-5.4 6.8-5.8-1 3-3.7 5.3-6.8 5.8zm-15.4 10.8c-2.4-3.6-1.2-10.9 4-10.7-3 3-2.6 6.9-4 10.7zM240 441a7.7 7.7 0 0 1 6.8-4.9 7.3 7.3 0 0 1-6.8 4.9zm-7.4 15.1c3.3-1.2 6.9-1.2 10.2.1a8.9 8.9 0 0 1-10.2-.1zM204.1 404a4.8 4.8 0 0 1 5.3-3.8 4.8 4.8 0 0 1-5.3 3.8zm8 12.1c2.8-2.9 5.1-5.5 7.7-8.5.9 4.3-3.3 8.9-7.7 8.5zm-30.2-20.3c-.6-2.9 1.3-5.9 3.8-7.3.9-.4 1.8-.7 2.8-.7-.5.9-1.1 1.5-1.6 2.2-1.6 2.1-3.1 4-5 5.8zm4.3 35.5c4.5 2.3 8.9-.1 13.5-.7.1 0 .2 0 .3.2l-.1.2c-.3.3-1.1.7-1.3 1h.1c-.3.1 0-.2.1-.3l.9-.9s0-.1 0 0l.1.1c-2 .5-3.7 1.6-5.7 2.4a14 14 0 0 1-8.8.8l.9-2.8z"/>
    </g>
    <path fill="#F6F6F6" d="m185.7 432.7-.6-.5a29 29 0 0 0-7-3 27 27 0 0 0-17.4 3.5c-.7.7-.7 1.9-.4 2.8.3.9 3.3 7.3 8.2 9.6 3.8 1.8 8.6 1.1 11.7-1.7s4.4-5.7 5.5-9.7v-1z"/>
    <g stroke="none" fill="#000">
      <path d="M137 485.7c-11-4.4-22.9-1-34.4-3.1l.7-2.9c2.6.7 5.4 1.1 8.3 1.4 8.5.9 17.7.5 25.4 4.6zm28.9-55.2c-.4.8-.4 1.7-.4 2.5 0 1.7.9 3.3 1.8 4.8s2.8 2.8 4.5 2.4c.2 0 .4-.1.4-.3v-.3c-.3-1.6-1.3-3-1.5-4.6-.2-1.8.5-3.6 1.3-5.3m7.9-5.3c-3.8.4-7.4.2-11 1-3.4.9-7 2.1-10 4.3a10 10 0 0 1 3.8-4.6c4.8-3.8 12-4 17.2-.7zM157.4 452c-1.1.4-1.2 1.6-1.6 2.5-.8 1.9-1.8 3.4-3.4 4.9a6 6 0 0 1 .3-5.2c.7-1.3 1.7-2.5 3.3-2.8.5-.1 1.1.1 1.4.6zm3.9 2.2a6 6 0 0 1-1.7 7 4.4 4.4 0 0 1 1.7-7zm-55.1-9c2.7-2.6 6-4.1 8.8-6.4 2-1.3 4.4-1.9 6.7-1.9-1.1 1.1-2.4 2-3.5 2.9-1.7 1.2-3.3 3.1-5.3 4-2.1.9-4.3 1.3-6.7 1.4zm40.3-8.4c5-.5 9.3-2.8 13.5-5.5l1.3 2.7a31.5 31.5 0 0 1-14.8 2.8zm-3.4-17.3c.5-4.4 6.5-5 9.3-6.6 3-1.8 6.4-5.9 10.4-5-3.9 1.7-5.2 5.4-8.9 7.6-3.8 2.2-7.9.8-10.8 4zm20.2-1a8.2 8.2 0 0 1 6.4-4.7c2.8-.3 4.5 1.3 7 .2-.5 2.9-4.8 2.8-6.8 2.8-2.2.1-4.2 1.2-6.6 1.7zm-87.9 42.2c1.4-.6 2.7-1 3.6-1.6.9-.6 1.1-1.1 1.8-2.5a10 10 0 0 1 2.7-3.6c1.2-.9 3-1.5 4.4-.9a7.3 7.3 0 0 0-2.7 2.5c-1.1 1.6-1.5 3.6-3 5.3-1.8 2-4.8 1.8-6.8.8zm11.6-4.6c1-.6 2.5-.4 3.5.2 3.4 1.9 3.2 7.6-.4 9.1.3-3.6.2-7.1-3.1-9.3zm96.3 14.1c2.2-.3 12.3-.3 11.7 3-.5-.4-.9-.4-1.3-.3-3.7 1-8 .4-10.4-2.7zm17.7 1.2c2.1-1.6 5.2-1.1 7.1.6.6.6 1.1 1.3 1.4 2.2-1 .1-1.7 0-2.5-.1a13 13 0 0 1-6-2.7zm-28.7-18.7c1.4 0 2.4-.6 3.6-1.1l3.4-1.3c2.3-.9 3.4-3.1 5.6-4.5-.3 2.9-1.4 6-4.3 7.2-1.4.6-2.8.8-4.1.9-1.5.1-3.3 0-4.2-1.2zm-40.3-4.6a4.2 4.2 0 0 1-3.2 3.3c-1.5.4-2.9 0-4.2 0-2.6-.1-4.9.4-7.5 1.2 1.3-2.8 4.6-4.3 7.6-4.2 3.1.2 4.5 1.6 7.3-.3zm117.6 38c6.3-3.1 10.4-9 10.3-16.2.1-2.3-.2-4.7-.5-7 .5 2.3 1 4.6 1.2 7 .9 7.8-3 14.6-9.6 18.8.1-.1-1.4-2.6-1.4-2.6z"/>
    </g>
    <g>
      <path class="tertiary" stroke-linejoin="round" d="M698.4 512.5a80 80 0 0 1-34.4-1.2c-2.3-.5-5.4-.6-6.2 1.6-.2.5-.2 1.1-.5 1.5-.4.6-1.3.6-2 .6-5.4-.1-10.7-2.9-16.1-2.2l.5 3.3c-4.5-1.6-9-3-13.6-4.1a11 11 0 0 0-5.4-.3c-1.5.5-2.7 1.6-4 2.4-1.3.8-2.4 1.8-3.7.9-3.7.3-7.4.2-11.1-.3-2-.3-4.3-.6-6 .5l-1.9 1.6c-1.9 1.5-4.5 1.8-6.9 1.5-5.3-.7-9.7-5.3-14.5-1.8-1.8 1.3-4.7 2.6-6.1.8-.5-.6-.7-1.6-1.5-1.8-.6-.2-1.2.2-1.7.5-4 1.7-8.3-3.4-12.5-2.1-1.2.4-2.2 1.2-3.4 1.3-1.8.2-3.3-1.1-5-1.5-2.1-.5-4.2.4-6.3.7s-4.7 0-5.6-1.9c-1.8 1.8-3.8 3.7-6.3 4-3.6.5-7.7-2.4-10.7-.3-.7.4-1.2 1.1-2 1.3-.7.1-1.4-.1-2-.4-3.2-1.3-6.1-4.8-9.2-5.9-2-.7-5.3 1.3-4 4a188 188 0 0 0-14.9-3.2l1.1 1.6c-4.2-.1-7.9-3.1-12.1-3.2-1.3 0-2.6.2-3.9.1-3.7-.2-7.5-3.1-10.9-1.5-.4 1.6.4 3.5 1.8 4.4-2.5-.2-5.2.6-7.5-.6-5-2.5-10.4-4.2-15.9-4.8l5.8 4.8c-4.8 1.8-9.7-1.7-14-4.4-1.1-.7-2.6-1.4-3.7-.6l.3 4.2c-8-1.4-14.6-8.8-22.7-8.2 2.5.9 4.7 2.7 5.9 5.1a60 60 0 0 1-19-5.9l1.6 6c-4.7-1.8-6.4-3.5-11.1-5.2l.4 4.3-11.2-11.3c-.6 1.6-.8 3.1-2.1 4.1a34 34 0 0 1-7.7-7.9 11 11 0 0 0-1.5 4.3c-3.7-2.4-4.1-5.3-7.1-8.5-.9-.9-1.8-2-3-2.2s-2.8.8-2.4 2a27.2 27.2 0 0 0-10.7-7.9c1 2.1.8 4.6-.3 6.6a43.8 43.8 0 0 0-8.5-8.7c0 2.4-.6 4.9-1.9 7-2.7-.9-4.4-2.9-6.1-5.2-.7-.9-1.3-1.8-2.1-2.5-2-1.6-3.7.4-5.6-1.4-.4-.4-2.1-4.5-.9-4.6-1.2.1-2.1-1.1-2.4-2.3-.2-1.2.1-2.4.1-3.6s-.4-2.5-1.5-3.1c-.9-.5-2.6.3-3.3-.4-.8-.7-.5-3.3-.4-4.3 0-.3.1-.6-.1-.9a1 1 0 0 0-.7-.3 4.2 4.2 0 0 1-3.1-4.8c-1.9.3-5.7.5-7.4-.7-.8-.6-2.6-3.2-1.1-3.9-3 1.4-7.1-.9-7.3-4.2v-3c-.1-1-.5-2.1-1.4-2.4-.6-.3-1.4-.1-2-.3-1.2-.3-1.9-1.4-2.3-2.6-1-3.5-.6-5.2-4.5-6.4-2.8-.9-5.5-.4-5-4.2.2-1.8.3-3.7.3-5.5 0-.7-.1-1.4-.5-1.9-.4-.4-.9-.6-1.5-.8-2.5-.8-4.9-2.1-7.4-2.6-1.9-.4-5.9.8-6.3-2.2l-.1-1.4c-.4-1.2-2-1.3-3.2-1.5a7.6 7.6 0 0 1-6.3-7.2l-7 2c-.4-1.5-.5-3-.4-4.5-1.3-.3-2.6.3-3.9.7-1.3.4-2.8.5-3.8-.4-.9-.9-.2-3.1 1.1-2.7-3.1 1.3-7.6 1.9-11 2.4-.1-2.4.4-4.7 1.3-6.9a63.2 63.2 0 0 0-9.5 6c.7-2.7.9-5.5.6-8.3l-2.7 2.6-.8-7.9c-.1-1-.6-2.4-1.6-2.2-.6.1-.9.6-1.2 1.1a15.6 15.6 0 0 1-6.3 5.9c-.6.3-1.5.6-1.9 0-.2-.3-.2-.6-.2-.9l-.2-4.3a5.8 5.8 0 0 1-5.4.7c.4-1.7.7-3.4.8-5.1a6.4 6.4 0 0 1-4 2.6c.6-3.7-.1-7.5-1.9-10.7-2.3 2.9-3.5 4-5.5 7.3.2-4.6-1.3-10.6-3.4-14.7-2.5-5.2-7.5-15.3-11.6-17.5l14.1 1.3a61 61 0 0 0-12.3-9.8l13.6 2c-3-2.8-5.6-5.9-8-9.3 3.9 1.7 7.6 3.7 11.2 5.9l-3.9-11.4 9.4 5.9c-1.5-4.9-2.7-10-3.6-15.1 3.7 3.3 6.6 7.4 8.5 12l2.1-15.2c1.8 2.8 5 4.9 6.2 8 1.2-4.1 2.3-8.4 4.6-12 1.4 2 2.1 4.6 2.8 6.9 1.4-4.2 2.8-8.8 5.6-12.3 1.1 3.1 1.7 6.4 2.7 9.5 1.2-3.7 4.2-7.6 6.2-11a15 15 0 0 0 3.3 7.6c1.6-4 5.8-9.4 8.3-13 .7 3.6 1.2 7.3 2.5 10.8 4.8-7.3 5.6-9.6 10-16.5 1.1 3.5 2.2 7 3 10.5a71.8 71.8 0 0 0 12-16.8c.2 3.4 1.1 6.8 2.7 9.9l11.4-15.6c-1 2.6-.8 5.5.6 7.8l7.8-15.4c1.5 3.9 2.3 8.1 2.5 12.3 8.3-4.9 5.9-16.9 13.4-22.7l1.6 13.9 12.2-14.7 1.5 7.1a65.2 65.2 0 0 0 15.5-15.5v13.2a67 67 0 0 0 13.3-12.7l-.7 7.6a97.2 97.2 0 0 1 22.7-18.9l-8.2 12.3 21.5-12.8c2.3 4.1-9.1 6.5-7.4 10.8 2.1.5 4.1-.9 5.7-2.3l15.4-13.5-4.7 15.6 15.2-12.4-5 12.9a81.2 81.2 0 0 0 20-16.2c2.6 4.8-7.7 9.4-5.5 14.4 6.5-8 14.3-15.3 23.1-21.5-4.2 5-7.2 10.6-9 16.5a36.4 36.4 0 0 0 18.2-15.8 44.3 44.3 0 0 1-6.8 16c4.2-7 10.9-12.8 19-16.5a122 122 0 0 1-9.7 17.2l15.2-12.3a35.4 35.4 0 0 1-8.4 13.1c4.8-.4 8.7-5.4 11.7-8.1 1.9-1.8 11.8-8.5 11.8-10.7a37.1 37.1 0 0 1-9.1 20.4c9.6-3.1 12.5-15.1 22.3-17.7-4.1 4-7 9-8.4 14.2 4.4-5.5 10-10.3 16.6-13.8-1.2 5.6-3.8 11-7.6 15.7 7.7-5.4 15-11.2 22-17.3-.4 7.9-12.4 13-11.6 20.9 10.4-2.7 16.4-12.8 26.8-15.7l-12.8 11.8c9.4 1.4 16.3-8 25.6-9.6l-10.4 12c8-4.4 16.3-8.3 25-11.6-1.7 7.9-8.6 14.1-15.1 19.9a82.8 82.8 0 0 0 23.5-12l-10.1 10.9a32 32 0 0 0 22.7-8.8c1.4 3.3-1.5 6.9-4.7 9.1-3.2 2.2-7.1 4.1-8.8 7.3 8.7-1 14.6-9.8 23.4-9.4l-17.3 16.6a92.2 92.2 0 0 0 32.5-10.2c0 5.3-5.7 9-10.8 11.8 5.1-.6 10.1-1.8 14.8-3.4l-11 11.3c9 2 16.1-7.3 25.2-8.4-4.3 6.4-11.3 10.9-18.2 15.4l23.9-4.4c-4.8 4-10.6 7.3-16.8 9.5a334 334 0 0 0 28.2 2 50.4 50.4 0 0 1-22.1 4.3l29.2 3.5-17.3 8.2c10.4 1 20.9.2 31-2.1l-18.8 9.9 25.6-1.3c-7 2-13.8 4.1-20.7 6.3h24.2c-2 5.3-8 9.2-14.4 9.3a98 98 0 0 0 24.8-3l-16.3 6.8c-1.1.5-2.3 1-2.8 2a67.8 67.8 0 0 0 30.4.8 98.2 98.2 0 0 0-24.8 7.8l27.8 1-14.9 3.9c-3.5.9-7 1.9-10 3.7 9.7.4 19.3 1.6 28.8 3.7-7.3 1.3-14.8 2-22.3 2a85.2 85.2 0 0 0 21.4 2.4c-6.4 1.8-11.9 2-18.6 2.5 7.4 3.9 16 6.1 24.7 6.3l-19.8 2.2 19.4 4.8c.9.2 2.1.9 1.7 1.7l-18.3 2.4c6.5 2.7 13.3 4.9 20.3 6.5a47 47 0 0 1-19.7 2.7c8.4 1.9 16.6 4.3 24.6 7.2-6.4.3-12.8 1.4-18.8 3.2l24.2 6.9a59.2 59.2 0 0 0-22.2-.7 192 192 0 0 0 24.6 11.8c-7.3-.4-14.7-.5-22-.2l19.9 4c3.1.6 6.5 1.4 8.1 3.8-8.6.5-17.2.3-25.7-.8 6.1 5 13.6 8.6 21.6 10.6l-20.7-.9a83.7 83.7 0 0 0 29.2 16.4c-9.5 0-19-.7-28.4-2.1 11.2 2.6 23 5.4 31.1 12.6l-28.6-3.9a78.5 78.5 0 0 0 30.1 14.3l-19.7.5c-2.4.1-5 .1-7.4-.2l23.1 8.7c-8.4.9-17 0-24.9-2.4 6.1 2.4 11.9 11.6 17 15.4l-22.3.8c7.1 2.6 9.5 7.8 21.4 7.8-.2 0-8.5 4.8-19.5 7.3z"/>
    </g>
    <g stroke="none" fill="#000">
      <path d="M377.6 340a176.7 176.7 0 0 1 45.1-33.5c1.4-.8 2.6 1.3 1.2 2.2-15.7 9.9-30 21.7-43.3 34.6a184.2 184.2 0 0 1 42-36.7l1.2 2.2a258.5 258.5 0 0 0-46.2 31.2zm43.5 11.1a167.8 167.8 0 0 1 39.8-41.9c.6-.4 1.3-.3 1.7.2.4.5.3 1.3-.2 1.7l-5.3 4.8a239.3 239.3 0 0 0-32.5 37.8c8.2-14.6 18.6-28 30.8-39.5l5.3-4.9 1.6 1.9a218.3 218.3 0 0 0-41.2 39.9zm71.4-9.9 19.2-24.8 6.3-8.3c.9-1.2 2.9 0 2.1 1.4a277.6 277.6 0 0 1-24.1 34.6c5.2-8.7 11.3-18.2 16.5-26.9l5.4-9 2.1 1.4c-8.5 11-17.5 21.8-27.5 31.6zm64.8-6.9 19-10.2 6.3-3.4c.6-.3 1.4-.1 1.7.5.3.5.2 1.2-.3 1.6l-5.9 4.4c-6 4.2-12.2 8.1-18.8 11.2 5.5-4.3 11.9-8.9 17.4-13.1l5.7-4.4 1.4 2.1c-8.5 4.5-17.3 8.5-26.5 11.3zm20.3 25.7a71.3 71.3 0 0 1 35.1-20.3c1.5-.4 2.2 1.8.7 2.4a98.3 98.3 0 0 0-32.8 21.1c4-5.3 8.8-10 14.2-13.9a75 75 0 0 1 17.6-9.5l.8 2.4a92.6 92.6 0 0 0-35.6 17.8zm-2.7 26.6c16.2-10.5 34.8-17 53.9-19.4 1.6-.2 2 2.1.4 2.5a156.2 156.2 0 0 0-51.9 20.8 123.6 123.6 0 0 1 44.5-21.6l6.9-1.7.4 2.5a163.7 163.7 0 0 0-54.2 16.9zm22.1 38.5a122.4 122.4 0 0 1 34.8-19.2c1.5-.5 2.4 1.6 1 2.3a210.4 210.4 0 0 0-33.2 20.5c9.3-9.3 20.3-16.9 32.1-22.7l1 2.3a218 218 0 0 0-35.7 16.8zm-5.3 49a392 392 0 0 0 35.1-8.9c3.8-1.2 7.7-2.4 11.4-3.8 1.5-.5 2.4 1.6.9 2.3-14.9 6.8-30.5 12-46.6 14.8a365.6 365.6 0 0 0 45.5-17l.9 2.3a184.8 184.8 0 0 1-47.2 10.3zm-72.2-91.3a110.4 110.4 0 0 1 38.7-19.9c1.6-.5 2.3 1.8.8 2.4a154.1 154.1 0 0 0-36.7 21.1c10.1-10.2 22.5-18 35.8-23.4l.8 2.4c-3.4 1.1-6.9 2-10.2 3.3a157.2 157.2 0 0 0-29.2 14.1zM500 428.1a407.4 407.4 0 0 0 41.5-2.7c1.5-.2 2 2.1.4 2.5-13.7 3.2-27.8 5-41.9 4.7 13.9-1.8 27.7-3.9 41.3-7.2l.4 2.5c-13.8 1.6-27.8 2-41.7.2zm-75-46.5a163.4 163.4 0 0 1 55.8-5.5c1.6.1 1.5 2.5-.1 2.5l-13.8.6c-13.8 1-27.4 3.5-40.9 6.8a172.1 172.1 0 0 1 54.5-9.9v2.5c-18.5-1.3-37.2-.1-55.5 3zm-77-5.8a152.2 152.2 0 0 1 43-7.1c1.6 0 1.7 2.3.2 2.5-14.2 1.8-28.2 5-41.9 8.9 13.2-5.9 27.3-9.5 41.6-11.4l.2 2.5-10.8.5c-10.9.7-21.6 2.3-32.3 4.1zm-4.1 52.3a1463.9 1463.9 0 0 1 59.8-17.1c.7-.2 1.4.2 1.5.9.2.6-.2 1.3-.8 1.5-8.7 2.9-20.9 7.1-29.5 9.8-9.9 3.2-19.8 6.3-29.7 9.2 9.6-3.9 19.3-7.5 29.1-11 8.5-3.1 20.7-7.3 29.3-10.3l.7 2.4c-20 5.2-40.1 10.3-60.4 14.6zm40.5 18.8c16.3-2.1 32.7-3.5 49.1-4.7 1.6-.1 1.8 2.2.3 2.5-16 2.6-32.7 5.1-48.8 6.7 12-2.7 24.1-5 36.3-7.1l12.1-2 .3 2.5a1021 1021 0 0 1-49.3 2.1zm3.2-152.1a98.7 98.7 0 0 1 31.2-10.7c1.5-.3 2.1 2 .6 2.4l-7.6 2.6c-7.6 2.7-14.9 6.1-22.1 9.7a104.2 104.2 0 0 1 29-14.7l.6 2.4a205.3 205.3 0 0 0-31.7 8.3zm-74.8 33a85 85 0 0 1 27-14.9c3.3-1.1 6.7-1.9 10-2.7.7-.2 1.4.3 1.5 1 .1.6-.3 1.2-.8 1.4a116.8 116.8 0 0 0-35 18.7 80.3 80.3 0 0 1 34.2-21l.7 2.4c-13.3 2.7-26 8.1-37.6 15.1zm9.2 17c7.1-3.8 14.6-7 22.1-9.9.6-.3 1.4.1 1.6.7.2.6 0 1.2-.5 1.5l-5.2 3.1c-5.2 3.1-10.5 6.1-16 8.6a350.6 350.6 0 0 1 19.9-13.8l1.1 2.2c-7.6 2.8-15.2 5.6-23 7.6zm-35.6 36.8a124.1 124.1 0 0 1 39.6-18.9c1.5-.5 2.3 1.8.8 2.4a220.1 220.1 0 0 0-38 20.3 134 134 0 0 1 37-22.7l.8 2.4-10.4 3.3a239.1 239.1 0 0 0-29.8 13.2zm-10.7-20.5a47.6 47.6 0 0 1 22.6-8.7c1.5-.2 2 1.9.6 2.4l-5.5 1.9c-5.4 2.1-10.4 5-15.2 8.1 2.7-2.9 5.7-5.4 9.1-7.4 3.4-2.1 7-3.6 10.8-4.9l.5 2.4c-7.9.8-15.5 3.1-22.9 6.2zm186.1 42.6a43.9 43.9 0 0 1 19.9-.5c.7.1 1.1.8 1 1.4-.1.6-.6 1-1.2 1-4.7.2-9.4.8-14 1.6l-4.7.9a50.6 50.6 0 0 1 18.6-5l-.2 2.5c-6.2-1.2-12.9-1.6-19.4-1.9zm9.8-119.8a94 94 0 0 1 33.4-2.1c1.5.2 1.4 2.5-.1 2.5a178.8 178.8 0 0 0-32.3 4 79.7 79.7 0 0 1 15.8-4.7c5.4-1.1 10.9-1.6 16.5-1.8l-.1 2.5c-11-1.3-22.1-1.2-33.2-.4zm39.2 8.2a123 123 0 0 1 26.8-5.7l9.1-.7c.7 0 1.3.5 1.3 1.2 0 .6-.4 1.2-1 1.3a299.5 299.5 0 0 0-34.9 8.2c10.9-5.3 22.6-8.7 34.5-10.7l.2 2.5a271.3 271.3 0 0 0-36 3.9zm53 11.2a70 70 0 0 1 21.5-6.7c1.5-.2 2 1.9.6 2.4-5.1 1.9-10.2 4-15.2 6.2l-5.1 2.2c1.4-1.2 2.9-2.2 4.5-3.3 4.7-3.1 9.7-5.5 14.9-7.4l.6 2.4c-7.3 1.1-14.5 2.7-21.8 4.2zm-4.4-14.8a70 70 0 0 1 21.5-6.7c1.5-.2 2 1.9.6 2.4-5.1 1.9-10.2 4-15.2 6.2l-5.1 2.2c1.4-1.2 2.9-2.2 4.5-3.3 4.7-3.1 9.7-5.5 14.9-7.4l.6 2.4c-7.3 1.1-14.6 2.7-21.8 4.2zm-42 54.5a85 85 0 0 1 21.4-7.5l7.5-1.3c.7-.1 1.3.4 1.4 1.1.1.6-.3 1.2-.9 1.4-9.4 2.7-18.5 6.3-27.5 10.4a86 86 0 0 1 26.8-12.8l.5 2.4a183.7 183.7 0 0 0-29.2 6.3zm-39.9-14.8c5.3-7 12.9-12 21.2-14.7 1.4-.5 2.3 1.5 1.1 2.2l-5.3 3.1a71.6 71.6 0 0 0-13.6 12.2c1.9-3.7 4.4-7.1 7.4-10 3-3 6.5-5.4 10.2-7.4l.9 2.3c-8 2.6-15.3 7-21.9 12.3zM439.9 353c8.7-4 17.8-7.4 26.9-10.5.7-.2 1.4.1 1.6.8.2.6-.1 1.2-.6 1.5l-6.4 3.3c-6.5 3.2-13 6.4-19.7 9.1 4-2.7 8.1-5.2 12.3-7.6l6.3-3.6 6.4-3.4 1 2.3c-9.3 3-18.4 5.9-27.8 8.1zm89.9 53.9a73.7 73.7 0 0 1 20.3-2.8c6.9 0 13.8 1 20.5 2.7 1.5.4 1 2.7-.5 2.4-13-2-26.4-1.1-39.2 2a75 75 0 0 1 39.5-4.5l-.5 2.4-4.9-1.2a104 104 0 0 0-35.2-1zm-14.3 50.3c15.3-4.2 31-6.8 46.8-8.4 1.6-.1 1.9 2.2.4 2.5l-11.5 2.3c-11.1 2.3-23.4 5.3-34.5 8 14.7-5.7 30-9.7 45.5-12.8l.4 2.5-11.8 1.2a853 853 0 0 0-35.3 4.7zm96.5 39.4c7.1.7 14.9 1.4 22 1.5l7.3.1c1.5 0 1.7 2.2.2 2.5-9.9 1.5-20.1 1.9-30.1.4a275.5 275.5 0 0 0 29.7-2.9l.2 2.5c-9.9-.1-19.8-1.2-29.3-4.1zm-69.8.4a142.6 142.6 0 0 1 32.1 5.4c.7.2 1.1.9.9 1.5-.2.6-.8 1-1.4.9l-15.9-1.8-16-1.6a144.8 144.8 0 0 1 32.2.8l-.5 2.4c-10.2-2.6-21.1-5-31.4-7.6zm-40.6-17.2c8.9-.2 17.7.4 26.5 1.2.7.1 1.2.7 1.1 1.4-.1.6-.6 1.1-1.2 1.1l-6.6.4c-6.6.4-13.3.6-19.9.4 4.3-.9 8.7-1.5 13.1-2l6.6-.7 6.6-.6v2.5a258 258 0 0 1-26.2-3.7zM449 460.2c11.1-2.8 22.6-3.9 34.1-3.9 1.5 0 1.7 2.3.1 2.5-5.6.7-11.1 1.6-16.7 2.5-4.8.8-11.7 2.3-16.6 3.3a132.7 132.7 0 0 1 32.9-8.3l.1 2.5c-11-.1-22.7.6-33.9 1.4zm-11.2-34.4a83 83 0 0 1 29.4-1.3c1.5.2 1.4 2.5-.1 2.5l-7.1.3c-7.1.5-14.2 1.6-21.3 2.9a88.2 88.2 0 0 1 28.3-5.7l-.2 2.5c-9.5-1.4-19.3-1.5-29-1.2zM389.3 486c8.1.7 16.1 2.1 24 3.7.7.1 1.1.8 1 1.5-.1.6-.7 1-1.3 1l-6-.2c-6.1-.3-12.1-.6-18.1-1.5a163.6 163.6 0 0 1 24.2-.7l-.3 2.5c-8-1.9-15.9-3.7-23.5-6.3zm-27-2.9c7.3-6 16.7-9.2 26.1-9.4 1.5 0 1.7 2.2.2 2.5a62.3 62.3 0 0 0-23.7 10.5c2.9-3.4 6.5-6.2 10.4-8.4a45 45 0 0 1 12.7-4.6l.2 2.5c-8.9.1-17.8 2.8-25.9 6.9zM219 357.6a57.5 57.5 0 0 1 18.6-6.2c1.5-.2 2 1.8.7 2.4-5.8 2.4-11.5 5.2-17.2 7.8a55 55 0 0 1 16.3-10.1l.7 2.4c-6.5 1-12.8 2.4-19.1 3.7zm38 22.2c5.8-2.9 12-5.1 18.2-7.1.7-.2 1.4.1 1.6.8.2.6-.1 1.2-.6 1.5l-4.2 2.5c-4.3 2.4-8.6 4.7-13.2 6.5 2.5-2.1 5.2-4 7.9-5.9l8.2-5.3 1 2.3c-6.2 1.9-12.5 3.7-18.9 4.7zm5.2 28.9a29 29 0 0 1 23.5-13.6c.7 0 1.3.5 1.3 1.2 0 .6-.4 1.1-1 1.3l-3 .8a34 34 0 0 0-17.2 12.9 27.2 27.2 0 0 1 19.5-16.1l.4 2.4a35 35 0 0 0-23.5 11.1zm20.7 26.2a141 141 0 0 1 17.6-10.5c1.3-.7 2.5 1.1 1.4 2.1-5.2 4.3-10.7 8.7-16.5 12.2a142 142 0 0 1 14.9-14.1l1.4 2.1c-6.2 3-12.4 6-18.8 8.2zm38.1 21.7a33.5 33.5 0 0 1 21.4-11.4c.7-.1 1.3.4 1.4 1.1.1.6-.3 1.2-.9 1.4a39.4 39.4 0 0 0-9.9 4.8c-3.2 2.1-6 4.5-8.7 7.2 1.9-3.4 4.5-6.3 7.6-8.8 3.1-2.5 6.6-4.3 10.3-5.6l.5 2.4c-7.9 1-15.3 4.4-21.7 8.9zm-5.6-42.5a51 51 0 0 1 25.1-11.9c1.4-.2 2.8-.2 4.1-.1 1.5.1 1.6 2.3.1 2.5-2.6.3-4.8.8-7.2 1.6-7.2 2.6-13.3 7.3-19.5 11.6 3.6-3.7 7.4-7.2 11.7-10.1 4.3-2.9 9.5-5.1 14.7-5.6l.1 2.5c-10.5-.6-19.9 5-29.1 9.5zm-6.1-23.4a71.2 71.2 0 0 1 28.8-7.4c1.5-.1 1.8 2.1.3 2.5-9.4 2-18.5 5.3-27.3 9.1 8-5.6 17.2-9.3 26.8-11.5l.3 2.5a144.3 144.3 0 0 0-28.9 4.8zm69.8 3.8a36.2 36.2 0 0 1 26.4-11.9c1.5 0 1.7 2.2.2 2.5a43.3 43.3 0 0 0-23.4 12.5c5.1-8 13.7-13.3 22.9-15l.3 2.5a46.1 46.1 0 0 0-26.4 9.4zm20.3-49.5c2.6-2.1 5.8-3.5 9.1-4.3 1.3-.1 4.4-1.6 4.7.5.1.5-.2 1-.7 1.3-1.8.9-3.6 1.9-5.3 3l-5.3 3.3a24.1 24.1 0 0 1 6.7-6.8l2.8-1.7.7 2.3c-4.3.4-8.5 1.4-12.7 2.4zm38.4-54.8c4.5-3 9.6-5 14.8-6.4l5.3-1.1c.7-.1 1.3.3 1.4 1 .1.6-.2 1.2-.8 1.4-4.8 1.8-9.4 4-13.9 6.5l-4.6 2.5a54.6 54.6 0 0 1 17.6-11.3l.6 2.4c-6.8 1-13.8 3-20.4 5zm197.4 142.2a67.8 67.8 0 0 1 26.4-6.3c.7 0 1.3.5 1.3 1.2 0 .6-.4 1.2-1 1.3-8.6 1.8-16.9 4.7-25 8a68.3 68.3 0 0 1 24.5-10.4l.3 2.5-6.7.5a151 151 0 0 0-19.8 3.2zm-20.8-49.8a85.9 85.9 0 0 1 28.6-2.3c.7 0 1.2.6 1.2 1.3 0 .6-.6 1.1-1.2 1.2-6.9.6-13.8 1.5-20.7 2.8l-6.9 1.3a94.8 94.8 0 0 1 27.4-6.6v2.5c-9.3-.7-19-.6-28.4-.2zm3.2-28.2c8.1-.5 16.1-.1 24.2.4.7 0 1.2.6 1.2 1.3 0 .6-.5 1.1-1.1 1.2l-6 .7c-6 .6-12 1-18.1 1 3.9-1 7.9-1.7 11.8-2.4 3.4-.6 8.4-1.3 11.9-1.7l.1 2.5c-8-.7-16-1.5-24-3zm-73.8 1.1a41.4 41.4 0 0 1 21.9-4.8c1.5 0 1.7 2.2.2 2.5l-5.2 1a77.7 77.7 0 0 0-14.9 5.3c2.7-2.3 5.8-4.3 9.2-5.7a47 47 0 0 1 10.5-3.1l.1 2.5c-7.4-.4-14.6.6-21.8 2.3zM482 361c8.6-1.6 17.2-2.4 25.9-3 1.5-.1 1.9 2.1.4 2.5-8.4 2-17.1 3.9-25.6 5 8-3 16.7-5.3 25-7.4l.4 2.5c-8.7.4-17.4.8-26.1.4zm14.4 37.7a80.1 80.1 0 0 1 26.1-.4c.7.1 1.2.7 1.1 1.4-.1.6-.6 1.1-1.2 1.1l-6.3.4c-4.2.3-8.4.7-12.6 1.3l-6.4.7a93.9 93.9 0 0 1 25.2-4.9l-.1 2.5c-8.4-1.2-17.3-1.7-25.8-2.1zm-95.2 4.8a330 330 0 0 0 34.4-6.1c.7-.2 1.3.3 1.5.9.1.6-.2 1.2-.8 1.5l-8.5 2.9c-8.5 2.6-17.3 4.5-26.2 5.3 8.3-2.3 17.4-4.8 25.5-7.6l8.3-2.9.7 2.4a131.9 131.9 0 0 1-34.9 3.6zm170.9 47a90.9 90.9 0 0 1 28.7-5.6c1.5 0 1.8 2.2.3 2.5-4.6.9-9.3 2-13.8 3.2-4.6 1.2-9.1 2.7-13.7 4.2a83.4 83.4 0 0 1 27-9.8l.3 2.5c-9.6.1-19.2 1.4-28.8 3zm51.1 30.8a181 181 0 0 1 49.3-2.1c1.6.2 1.5 2.5-.1 2.5a282 282 0 0 0-48.5 4 170.2 170.2 0 0 1 48.5-6.5l-.1 2.5a298.3 298.3 0 0 0-49.1-.4zm16.1-35.9c8-.4 15.9.8 23.6 2.9 1.5.4 1.1 2.6-.4 2.4l-11.4-.6-11.6-.2c1.9-.5 3.8-.8 5.7-1.1 5.8-.9 11.7-1 17.5-.5l-.5 2.4c-7.4-2.2-15.4-3.8-22.9-5.3zM578 487.3c8.1 1 16 2.7 23.9 4.6.7.2 1.1.8.9 1.5-.1.6-.7 1-1.3 1l-6.1-.4c-6.1-.5-12.1-1.1-18.1-2.2 4.1-.3 8.1-.3 12.2-.3l6.1.1 6.1.3-.4 2.5c-7.9-2-15.7-4.2-23.3-7.1zm-31.9-12.4c7.4-2.8 15.2-4 23.1-4.1 1.5 0 1.7 2.2.3 2.5-5.5 1.1-11 2.6-16.4 4.2l-5.5 1.7 5-2.8a67.4 67.4 0 0 1 16.4-5.5l.2 2.5a199 199 0 0 0-23.1 1.5zm-63.7 22.9c9.1-.2 18.2.4 27.3 1.2.7.1 1.2.7 1.1 1.4-.1.6-.6 1.1-1.2 1.1l-6.8.4c-6.8.4-13.6.6-20.5.4a230 230 0 0 1 20.3-2.7l6.8-.6v2.5c-9-.8-18.1-1.8-27-3.7zm-32.7-22a332 332 0 0 1 29.2-8c.7-.2 1.3.3 1.5.9.1.6-.2 1.2-.8 1.5l-7.1 2.7c-7.1 2.6-14.2 5.2-21.6 7.2 4.5-2.3 9.1-4.4 13.7-6.5 4-1.8 9.9-4.1 14-5.8l.7 2.4a322 322 0 0 1-29.6 5.6zm17.1-39.2a47 47 0 0 1 13.1-5.4l4.7-1c.7-.1 1.3.3 1.4 1 .1.6-.2 1.2-.8 1.4a300 300 0 0 0-8.2 3.8l-8.1 4.1a47 47 0 0 1 11.1-8.2c1.4-.7 2.7-1.4 4.2-2l.7 2.4c-6 1-12 2.5-18.1 3.9zm82-4.9a141.7 141.7 0 0 1 34.2-10.9c.7-.1 1.3.3 1.5 1 .1.6-.2 1.3-.8 1.4a487 487 0 0 0-33 12.6 147.9 147.9 0 0 1 32.3-15l.6 2.4a490.7 490.7 0 0 0-34.8 8.5zm-182.9 6.6a66 66 0 0 1 29.4-10.2l4.5-.4c.7 0 1.3.5 1.3 1.2 0 .6-.4 1.2-1 1.3a96.6 96.6 0 0 0-31.9 11.9 61 61 0 0 1 14.7-9.3 70 70 0 0 1 16.7-5.1l.3 2.5a96.8 96.8 0 0 0-34 8.1zm-24.1 30.3c10.6-3.4 21.5-6.1 32.4-8.7 1.5-.3 2.2 1.8.7 2.4a397.2 397.2 0 0 1-31.9 10.6c9.9-4.8 20.7-9 31-12.9l.7 2.4a366.6 366.6 0 0 1-32.9 6.2zm51.2-9.3c9.4 1.2 19.2 2.4 28.6 2.9.7 0 1.2.6 1.2 1.3 0 .6-.5 1.1-1.1 1.2l-7.3.5a107 107 0 0 1-21.9-1.4c7-.3 14.8-.4 21.8-1l7.2-.6v2.5c-9.8-.7-19.4-2.3-28.5-5.4zm-30.5-134a46 46 0 0 1 17.1-9c.7-.2 1.4.1 1.6.8.2.6-.1 1.2-.6 1.5l-7.7 5-7.7 5.4a53 53 0 0 1 14.2-12.5l1 2.3c-6.2 1.8-12 4.2-17.9 6.5zm-6.1-24.4a48.2 48.2 0 0 1 18.7-9c.7-.2 1.3.2 1.5.9a1 1 0 0 1-.7 1.4c-2.9 1.5-5.8 3.1-8.6 4.9-2.5 1.5-5.9 3.9-8.4 5.5a53.7 53.7 0 0 1 15.8-12.5l.9 2.3c-6.4 1.5-13 4-19.2 6.5zm16.4-20.6a92 92 0 0 1 23.1-6.3c.7-.1 1.3.4 1.4 1 .1.6-.3 1.2-.8 1.4l-5.5 2-16.5 6.1a93 93 0 0 1 21.2-10.5l.6 2.4-5.8.9-17.7 3zm48.9-10.3a68 68 0 0 1 32.2-7.5c1.5 0 1.7 2.2.2 2.5-2.6.4-5.3.7-7.9 1.3a105 105 0 0 0-22.5 7.7 63.2 63.2 0 0 1 30.1-11.5l.1 2.5c-11-.1-21.8 1.8-32.2 5zm-33.8-7.3a68 68 0 0 1 32.2-7.5c1.5 0 1.7 2.2.2 2.5-2.6.4-5.3.7-7.9 1.3a105 105 0 0 0-22.5 7.7 63.2 63.2 0 0 1 30.1-11.5l.1 2.5c-11-.2-21.8 1.7-32.2 5zm-50.7 13.6a68 68 0 0 1 32.2-7.5c1.5 0 1.7 2.2.2 2.5-2.6.4-5.3.7-7.9 1.3a105 105 0 0 0-22.5 7.7 63.2 63.2 0 0 1 30.1-11.5l.1 2.5c-11-.2-21.7 1.7-32.2 5zM288 295.6a66.5 66.5 0 0 1 30.7-12.4c1.5-.3 2.1 1.9.6 2.4a102.8 102.8 0 0 0-28.8 13.6c7.8-7.6 17.6-13 28-16l.5 2.4c-2.7.5-5.3.8-8 1.5-8 1.9-15.6 5-23 8.5zM241.5 314a66.5 66.5 0 0 1 30.7-12.4c1.5-.3 2.1 1.9.6 2.4a102.8 102.8 0 0 0-28.8 13.6c7.8-7.6 17.6-13 28-16l.5 2.4c-2.7.5-5.3.8-8 1.5-8 1.9-15.6 5-23 8.5zm236.8-48.7c6.4-2.4 13.3-3 20-2.2.7.1 1.2.7 1.1 1.4-.1.6-.5 1-1.1 1.1l-4.7.7c-4.7.8-9.3 2-14 3.3a39.9 39.9 0 0 1 18.4-6.5v2.5c-6.5-.9-13.1-.7-19.7-.3zm38.2 3c10.5-.8 21 .2 31.3 2.3 1.5.3 1.2 2.6-.3 2.5-5.1-.4-10.2-.6-15.4-.8l-15.5-.1a113.7 113.7 0 0 1 31-1.7l-.4 2.5a344 344 0 0 0-30.7-4.7zm34.5 53a32 32 0 0 1 13.8-4h4.9c.7 0 1.2.6 1.2 1.3 0 .6-.4 1.1-1 1.2-5.9 1-11.5 3-16.9 5.5a31.7 31.7 0 0 1 16.4-8l.1 2.5c-6.2-.5-12.4.3-18.5 1.5zm-17.4-6.3a43 43 0 0 1 19.7-13.6c.6-.3 1.4.1 1.6.7.2.6 0 1.3-.6 1.6a79 79 0 0 0-17.4 14.2 43.2 43.2 0 0 1 16.2-16.4l1 2.3c-1.8.7-3.6 1.3-5.4 2.2a88.5 88.5 0 0 0-15.1 9zm50.1 16.3a98 98 0 0 1 28.8-11.9c3.4-.8 6.9-1.3 10.3-1.9 1.5-.3 2.1 2 .6 2.4-3.3.9-6.6 1.7-9.8 2.8-9.7 3.1-18.8 7.5-27.7 12.5a97.3 97.3 0 0 1 36.8-17.8l.4 2.5c-13.6 1.9-26.8 6-39.4 11.4zm8.5-27.6a34.3 34.3 0 0 1 18.5-1.3c.7.1 1.1.8 1 1.5-.1.6-.6 1-1.2 1l-4.3.4c-4.3.5-8.5 1.6-12.7 2.7a33.4 33.4 0 0 1 16.8-5.6l-.2 2.5a71.3 71.3 0 0 0-17.9-1.2zm23 25.3a44.3 44.3 0 0 1 27.9 7.1c.6.4.8 1.2.4 1.8-.3.5-1 .7-1.5.5a62.3 62.3 0 0 0-26.5-4.8 43.7 43.7 0 0 1 27.4 2.5l-1.1 2.2c-2-1.2-4-2.4-6.2-3.4-6.4-3.2-13.4-5-20.4-5.9zm31.3 33.6c7.3-.2 14.5.4 21.7 1.2 1.5.2 1.5 2.4 0 2.5a175 175 0 0 1-21.7.8c7-1.7 14.4-2.6 21.5-3.3v2.5c-7.2-.9-14.4-1.9-21.5-3.7zm-7.2 24.8a69.6 69.6 0 0 1 33.9 6.6l4.5 2.2c.6.3.9 1.1.5 1.7-.3.6-1 .8-1.6.6a99.6 99.6 0 0 0-37.2-6.6 69.4 69.4 0 0 1 38.1 4.1l-1 2.3a97 97 0 0 0-37.2-10.9zm8.8 21.8c8.3-.4 16.7-.1 25 .4 1.5.1 1.6 2.3.1 2.5-8.2.9-16.7 1.7-24.9 1.6 8-1.9 16.4-3.1 24.6-4.1l.1 2.5c-8.4-.6-16.7-1.4-24.9-2.9zm18.7 22.1c7.8.6 15.5 2.1 23.2 3.6.7.1 1.1.8 1 1.5-.1.6-.7 1-1.3 1l-5.8-.2c-5.9-.3-11.7-.6-17.5-1.5 3.9-.5 7.8-.7 11.7-.8l5.9-.1h5.9l-.3 2.5c-7.7-1.6-15.4-3.4-22.8-6zm-1.5 28.1a189 189 0 0 1 23.2 5.2c.7.2 1.1.9.9 1.5-.2.6-.7 1-1.3.9l-5.9-.5c-5.9-.6-11.8-1.4-17.6-2.6 4-.2 7.9-.1 11.9 0 3.4.1 8.3.4 11.8.7l-.4 2.4c-7.7-2.2-15.3-4.5-22.6-7.6zm-6.8 35.2c9.4.4 18.7 1.6 28 2.9 1.5.2 1.4 2.5-.2 2.5-9.3.1-18.9 0-28.1-.9 9.2-1.1 18.8-1.5 28.1-1.6l-.2 2.5c-9.2-1.5-18.5-3-27.6-5.4zm-49.6-44.2c6.3-2.9 13.2-4 20.1-3.8.7 0 1.2.6 1.2 1.3 0 .6-.4 1.1-1 1.2l-4.7 1.1c-4.6 1.1-9.5 2.9-13.9 4.5a44.7 44.7 0 0 1 18.1-8l.2 2.5h-5c-4.8 0-10.2.7-15 1.2zM577.1 402c11.8-3.3 24.3-5.6 36.4-7.3.7-.1 1.3.4 1.4 1 .1.7-.3 1.3-1 1.4-11.9 3.1-23.8 6.4-35.7 9.2 11.4-4.7 23.2-8.4 35.1-11.6l.5 2.5c-12.2 1.6-24.4 3.5-36.7 4.8zm-96.8-98.8c2.8-2.2 6.4-3.2 10-3.1 1.2 0 2.4.3 3.6.6.7.1 1.1.8.9 1.5-.1.5-.5.9-1 .9-1.9.2-3.8.5-5.7 1.2-1.9.6-3.6 1.6-5.3 2.6.6-.8 1.2-1.7 2-2.4 2.3-2.2 5.5-3.5 8.7-3.8l-.3 2.4c-4.3-1.1-8.6-.8-12.9.1zm-51.8 106.5c4.3-2.6 8.9-4.6 13.6-6.3 1.3-.5 2.3 1.3 1.2 2.2a95 95 0 0 1-9.3 6.3c-3.9 2.2-3.9 2.3-.7-1a99 99 0 0 1 8.5-7.3l1.2 2.2a94.3 94.3 0 0 1-14.5 3.9zm-84.9-49.6c3.2-4.3 7.6-7.7 12.4-9.9 1.6-.8 3.4-1.3 5.1-1.8.6-.2 1.3.1 1.6.8.2.6-.1 1.3-.7 1.5l-4.1 2.5A56.3 56.3 0 0 0 347 363a32.4 32.4 0 0 1 13.9-14.4l.9 2.3a52.2 52.2 0 0 0-18.2 9.2zm-35-54.4a99.8 99.8 0 0 1 29.8-16.4c1.5-.5 2.4 1.6 1 2.3-2.5 1.2-4.9 2.6-7.3 3.9-7.3 4.1-14.1 8.8-20.8 13.8a100.8 100.8 0 0 1 27-19.9l1 2.3a181 181 0 0 0-30.7 14zm-36.5 15.7c7.7-8 16.8-14.6 26.5-20 1.4-.7 2.6 1.2 1.4 2.1a246.3 246.3 0 0 0-24.8 21.2 111 111 0 0 1 23.3-23.1l1.3 2.1a281.8 281.8 0 0 0-27.7 17.7zm6.4 17.7 13.3-9.4 4.3-3.2c.5-.4 1.3-.3 1.7.2.4.5.3 1.2 0 1.6a84.1 84.1 0 0 1-16.9 14.6l7.6-8.1 7.4-8.2 1.7 1.8a69.3 69.3 0 0 1-19.1 10.7zm-38.4-8.1c5.1-6 12-10.4 19.4-13.1 1.4-.5 2.4 1.4 1.1 2.2l-4.7 3a87.2 87.2 0 0 0-12.6 10.9 43 43 0 0 1 15.9-16l1 2.3a94.8 94.8 0 0 0-20.1 10.7zm13.2 26.4a40 40 0 0 1 10.6-9l4.1-2.2c.6-.3 1.4 0 1.7.6.3.5.1 1.2-.4 1.5a115.2 115.2 0 0 0-12.7 12 43 43 0 0 1 11.2-14l1.3 2.1c-5.5 2.6-10.8 5.9-15.8 9zm-61.4 13.3a310.5 310.5 0 0 0 25.6-4.6c1.5-.3 2.2 1.8.8 2.4a90 90 0 0 1-25.9 6.7c6.1-2 12.8-4.2 18.8-6.5l6.1-2.4.8 2.4a92 92 0 0 1-26.2 2zm25.2 8.9c5.1-3.9 11-6.7 17.2-8.5 2.1-.6 4.2-1 6.3-1.4.7-.1 1.3.3 1.5 1 .1.6-.3 1.3-.9 1.4-3.8 1.4-7.5 3-11.1 4.9-3.6 1.9-7 4.1-10.5 6.3a52.3 52.3 0 0 1 20.7-13.6l.6 2.4c-8.2 1.4-16.1 4.1-23.8 7.5zm23.5 11.6c2.6-5.1 6.6-9.5 11.1-13 1.1-.9 2.6.6 1.8 1.7a135.3 135.3 0 0 0-9 13.5l1.1-4c1.4-4 3.4-7.6 5.9-11l1.8 1.7a194 194 0 0 0-12.7 11.1zm43.5 22.9a22.2 22.2 0 0 1 17.8-12.1l3.3-.1c1.5.1 1.6 2.2.1 2.5a24 24 0 0 0-17.3 11.8 20.2 20.2 0 0 1 16.9-14.2l.2 2.5a26 26 0 0 0-21 9.6zm15.8 24.9c9.4-5.7 20-9.4 30.8-11.4 1.5-.3 2.1 1.9.6 2.4l-7.5 2.7c-7.5 2.8-14.6 6.4-21.7 10.2 4.2-3.4 8.7-6.4 13.5-8.9 4.8-2.6 9.8-4.6 14.9-6.4l.6 2.4c-10.7 2-21.1 5.2-31.2 9zm53.4-34.3c5.4-6.4 11.4-12.2 17.5-17.9.5-.5 1.3-.4 1.8.1.4.5.4 1.1.1 1.6l-3.8 5c-3.9 4.9-7.9 9.8-12.3 14.3 2.1-3.6 4.4-7.1 6.8-10.6 2-3 5.1-7.2 7.3-10.2l1.8 1.7a211.4 211.4 0 0 1-19.2 16zm44-31.2c9.6-4.9 20-8.8 30.2-12.2 1.5-.5 2.3 1.7.9 2.3-9.7 4.6-19.4 9.5-29.2 13.9 4.5-3.1 9.1-5.9 13.7-8.7l14.4-7.5.9 2.3c-10.2 3.4-20.5 6.9-30.9 9.9zm90.1 8.1c8.8-2.7 17.5-6 25.7-10.4.6-.3 1.4-.1 1.7.5.3.6.1 1.2-.4 1.6a68.2 68.2 0 0 1-25.8 12.6 132.1 132.1 0 0 0 24.3-14.5l1.3 2.1a72 72 0 0 1-26.8 8.1zm50.7 11.3a81.6 81.6 0 0 1 26.2-13.9c1.5-.5 2.3 1.6.9 2.3l-6.4 3.3c-6.3 3.5-12.3 7.6-18.1 11.8 6.5-7.3 14.6-13 23.4-17.4l.9 2.3-6.9 2.4c-6.8 2.6-13.4 5.8-20 9.2zm-43.6 64.9c3.9-4.6 8.7-8.5 13.9-11.6 1.8-1 3.5-2 5.4-2.9.6-.3 1.4 0 1.7.6.3.6.1 1.2-.4 1.6a134 134 0 0 0-17.3 15.5 58.7 58.7 0 0 1 15.8-17.5l1.3 2.1a128 128 0 0 0-20.4 12.2zM435 491.3a206 206 0 0 0 35.9-4.4c.7-.2 1.4.3 1.5.9.1.6-.2 1.2-.8 1.5a106.7 106.7 0 0 1-36.4 6.5 207.3 207.3 0 0 0 35.5-8.9l.7 2.4a114 114 0 0 1-36.4 2zM192.4 364.4a25.7 25.7 0 0 0-6.6-9.9c-1.1-.9 0-2.7 1.3-2.1 3.4 1.4 6.3 3.9 8.1 7.1.6 1 1 2.2 1.4 3.3-.9-.8-1.5-1.8-2.4-2.5-2.3-2.3-5-4.2-8-5.6l1.3-2.1c3.1 3.1 5.3 7.4 4.9 11.8zm8.1-11L187.3 338c-.4-.5-.4-1.3.1-1.8.5-.4 1.2-.4 1.7 0l14.6 13.9-16.2-12 1.8-1.7 11.2 17zm8.9-9.2a43.7 43.7 0 0 0-8.5-15.9c-.5-.5-.5-1.4.1-1.8.5-.4 1.1-.3 1.5 0 1.3 1.1 2.7 2.1 3.9 3.4 3.5 3.6 6.1 8.2 7.2 13.1a47 47 0 0 0-12.5-14.5l1.6-1.8a27.6 27.6 0 0 1 6.7 17.5zm10.4 2.5c.2-6-.2-12-1.9-17.8-.5-2-1.3-3.8-1.9-5.7-.5-1.4 1.5-2.3 2.2-1 4.6 7.4 7 16.2 6 24.9a57.8 57.8 0 0 0-8.1-23.5l2.2-1.2c3 7.6 3.8 16.3 1.5 24.3zm24.4.8a23.3 23.3 0 0 1 11.9-13.5c1.2-.4 3.3-2.1 4.1-.3.2.6 0 1.1-.5 1.4l-3.5 2.7c-3.4 3.1-6 7-7.8 11.3.3-3.2 1.4-6.3 3.2-9.1a23 23 0 0 1 6.9-7l1.1 2.2a33.4 33.4 0 0 0-15.4 12.3zM578.8 556c1.2.1 1.8-.8 2.5-1.6 1.7-2.8 4-5.5 4.6-8.8 1.5 2.9-.3 6.3-2.2 8.5-1.1 1.2-3.3 3.3-4.9 1.9z"/>
    </g>
  </g>
</svg>
