<svg xmlns="http://www.w3.org/2000/svg" fill="#d7374a" stroke="#000" viewBox="50 50 200 200">
  <metadata source="http://wappenwiki.org/images/d/dd/Jez.svg" license="https://creativecommons.org/licenses/by-nc-sa/3.0"/>
  <g id="hedgehog" stroke-width=".36">
    <g>
      <path class="secondary" d="M70.54 115.88s-.1-.05-.56-.03a1.6 1.6 0 0 0-.96.4c-.11.1-.41.57-.33.66.09.08.89-.23 1.25-.24.36-.01.55.02.67.06.11.03-.07-.85-.07-.85zm.2 1.38s-.12-.04-.6.03c-.48.09-.84.42-.93.55s-.35.57-.25.64c.1.07.88-.26 1.26-.32.37-.06.57-.05.7-.04.12.02-.19-.86-.19-.86zm2.62 1.3c-.1.05-.29.16-.55.42-.27.27-.72 1-.84 1.01-.12 0-.17-.49-.17-.66 0-.17.08-.65.43-1 .35-.34.43-.27.43-.27s.8.42.7.5z"/>
      <path d="M90.36 113c-1.15.74-2.31 1.48-3.6 1.9-.36.1-.72.18-1.05.3-.39.14-.76.33-1.13.5-.38.16-.77.32-1.12.54-.42.26-.76.63-1.15.94-.87.71-1.56 1.22-2.67 1.17a33.96 33.96 0 0 0-1.58-.04c-1.11.01-1.32.17-2.38.47-.33.08-.71.18-.95-.05-.33-.3-.53-.61-.97-.21-.15.12-.27.3-.58.13a1.64 1.64 0 0 0-.47-.33c-.2-.07-.37-.04-.4-.04-.2-.03-.22-.36-.22-.36s-.22.24-.45.3c-.22.08-.62.1-.7-.03-.34-.86-.71-.91-.71-.91.1-.05-.06-.48.36-.64-.01-.21-.01-.37-.29-.79.02-.13.32-.59.8-.42.35.11.9.04 1.28.01.62-.03 1.26.09 1.88.09.67.01 1.97.05 2.46-.39.6-.52 1.14-.76 1.81-1.2.8-.52 1.78-.7 2.58-1.18a6.96 6.96 0 0 0 1.29-1.1l3.32-3.28"/>
      <g stroke="none" fill="#000">
        <path d="M85.76 113.13c1.36-.13 2.55-.82 3.81-1.31-1.04.85-2.43 1.6-3.81 1.3z"/>
      </g>
      <path class="secondary" d="M85.42 119.36s-.1-.05-.56-.03a1.6 1.6 0 0 0-.96.4c-.11.1-.41.57-.33.66.09.08.89-.23 1.25-.24.36-.01.55.02.67.06.11.03-.07-.85-.07-.85zm.2 1.38s-.12-.04-.6.03c-.48.09-.84.42-.93.55-.1.14-.35.57-.25.64.1.07.88-.26 1.26-.32.37-.06.57-.05.7-.04.12.02-.19-.86-.19-.86zm2.62 1.3c-.1.05-.29.16-.55.42-.27.27-.72 1-.84 1.01-.12 0-.17-.49-.17-.66 0-.17.08-.65.43-1 .35-.34.43-.27.43-.27s.8.42.7.5z"/>
      <g stroke="none" fill="#000">
        <path d="M69.1 116.6a1.8 1.8 0 0 1 1.5-.22v.01c-.52-.02-1 .12-1.5.22zm.26 1.57c.41-.31.95-.52 1.47-.39v.03c-.52.01-.99.2-1.47.36zm2.73 1.39a1.8 1.8 0 0 1 .92-1.2l.01.01c-.4.34-.64.78-.93 1.19zm-.2-1.63c-.02-.39.25-.77.65-.77l-.1.04c.38-.3.87-.32 1.32-.32.42 0 .8-.04 1.2-.16l.03.03c-.15.16-.36.25-.57.31-.41.12-.86.1-1.25.18-.2.05-.36.11-.5.23a.12.12 0 0 1-.08.04c-.23.01-.32.2-.32.4l-.37.02zm1.8-1.42c-.43.2-.9.23-1.37.28a9.14 9.14 0 0 1-1.67 0l-.16-.33a.67.67 0 0 1 .5-.02l-.05-.01c.44.03.9.06 1.36.06.47.01.92-.04 1.38-.01l.02.03zm-2.5-1.23c.24.22.25.54.2.82h-.03c-.06-.21-.16-.45-.38-.52l.2-.3z"/>
        <path d="M72.78 117.47c.34-.18.84.1.82.5h-.04c-.27-.26-.48-.32-.78-.5zm-1.83-1.04c.36.1.48.53.5.86l-.03.01c-.11-.21-.27-.49-.52-.52 0 0-.01 0 0 0l.05-.35z"/>
      </g>
    </g>
    <g>
      <path class="secondary" d="M114.2 115.9s-.1-.05-.57-.02-.84.28-.96.4c-.1.1-.4.57-.32.65.08.09.89-.23 1.25-.24.36-.01.55.03.67.06s-.07-.85-.07-.85zm.2 1.38s-.1-.04-.59.04c-.48.08-.84.42-.93.55-.1.13-.35.56-.26.63.1.08.9-.26 1.26-.32.38-.06.58-.05.7-.04.13.03-.18-.86-.18-.86zm2.63 1.3c-.11.06-.29.16-.55.43-.27.26-.72 1-.84 1s-.17-.49-.17-.65c0-.17.08-.65.43-1s.43-.28.43-.28.8.42.7.5z"/>
      <path d="M116.85 105.9c-.67 1.01.05 3.22.5 4.31.57 1.35 1.43 1.63 2.65 2.3.41.21.71.3 1.05.6.33.32.36.75.33 1.22-.03.8-1.45 1.02-2.07 1.09-.83.1-.58.14-1.4.13-.63-.01-1.27-.12-1.89-.08-.36.02-.92.1-1.27-.01-.48-.16-.78.28-.8.42.27.42.27.57.28.79-.42.15-.25.59-.36.63 0 0 .37.05.71.92.08.12.48.1.7.03.24-.07.45-.31.45-.31s.03.35.22.36c.03 0 .2-.02.4.05.21.07.44.31.47.32.32.18.44-.01.58-.13.44-.4.65-.08.97.22.24.22.63.13.95.04a8.93 8.93 0 0 1 2.75-.46c.53-.02.33 0 .85.03.48.03.65-.17 1.1-.37.6-.26 1.36-.66 1.7-1.28.18-.3.21-.63.25-.95.12-.9.91-1.4 1.15-2.25.12-.44.06-.96-.28-1.27-.15-.14-.34-.23-.52-.35a2.12 2.12 0 0 1-.9-1.16c-.15-.46.13-1.9.12-2.39a10.64 10.64 0 0 0-.41-2.46"/>
      <g stroke="none" fill="#000">
        <path d="M112.74 116.63a1.8 1.8 0 0 1 1.5-.23v.02c-.52-.04-1 .1-1.5.21zm.24 1.55c.41-.31.95-.52 1.47-.38v.02c-.53.01-.99.2-1.47.36zm2.78 1.38a1.8 1.8 0 0 1 .92-1.2l.01.01c-.4.34-.66.77-.93 1.19zm-.2-1.6c-.02-.4.24-.78.65-.78l-.1.04c.38-.3.87-.31 1.31-.31.42 0 .8-.05 1.22-.17l.02.04c-.16.15-.36.25-.58.3-.4.13-.85.1-1.24.19-.2.05-.36.1-.5.23a.12.12 0 0 1-.08.03c-.23.01-.32.2-.32.4l-.38.02zm1.8-1.42c-.44.2-.92.22-1.39.27a9.14 9.14 0 0 1-1.67 0l-.15-.32a.67.67 0 0 1 .5-.02l-.06-.02c.45.04.91.06 1.37.06.47.01.91-.03 1.38-.01l.01.04zm-2.5-1.24c.24.23.25.54.2.83h-.04c-.06-.22-.15-.46-.37-.53l.2-.3z"/>
        <path d="M116.45 117.5c.34-.18.84.1.82.49l-.04.01c-.29-.26-.48-.32-.78-.5zm-1.83-1.04c.36.11.48.53.5.87l-.04.01c-.1-.22-.26-.5-.51-.53 0 0-.01 0 0 0l.05-.35z"/>
      </g>
    </g>
    <path d="M74.07 93.16a11.88 11.88 0 0 0-1.65 1.78c-.7.78-.9 1.5-1.8 2.05-1.05.63-2.24 1.08-3.1 1.94-.26.25-.47.54-.76.76-.4.33-1.86 1.97-4.12 2.31-.9.06-1.6.27-1.83.36a.97.97 0 0 0-.34.2c-.32.33-.47.72-.32 1.15.1.33.54 1.07 1.43 1.28.25.11.43.42.6.61.33.35.75.58 1.16.82a4.68 4.68 0 0 0 1 .31c.18.28.88.69 1.04.77a8.14 8.14 0 0 0 3.13 1c1.33.1 2.43-.22 3.65-.3.58.02 1.14.22 1.7.34 1.55.32 3.62.42 5.14-.22 1.52-.65 1.64.14 3.01-.8.1 1.1 1.05.86 1.89 1.56.84.71 1.35 1.23 2.26 1.84 1.35.9 3.35 2.83 4.97 2.88l7.32 1.21c3.8.28 6.43 1.1 10.87.9 1.1-.05 3.34-.56 4.4-.89a79.56 79.56 0 0 1 5.52-1.47c1.66-.37 4.8-.7 6.5-.47l6.7-2.8c2.04 3.08 4.6 2.3 5.07 2.16 1.35-.4 1.78-1.35 2.09-2.46-1.36.76-4.15.66-4.6-1.12"/>
    <path d="M90.92 112.1a5.88 5.88 0 0 0 .78 2.97c.24.45.6 1.29.57 2.45-.01.4-.4.83-.7 1.1-.49.44-1.78.39-2.45.38-.63-.02-1.26-.12-1.89-.09-.36.03-.92.11-1.27-.01-.48-.16-.78.29-.8.42.27.42.27.58.28.8-.42.15-.25.58-.36.63 0 0 .38.05.71.91.09.12.48.1.71.04.23-.08.44-.32.44-.32s.03.35.22.36c.04 0 .2-.02.4.05.21.07.44.31.48.33.3.18.43-.02.57-.14.45-.4.65-.08.97.22.24.23.63.13.95.05 1.07-.3 1.27-.46 2.39-.47.53-.01 1.06.01 1.57.04.48.02 1.01.07 1.45-.14.82-.37.84-.86 1.1-1.77.16-.52.38-.89.5-1.43.24-1.06 1.2-1.57 1.44-2.6.18-.77-.23-1.58-.54-2.3"/>
    <g stroke="none" fill="#000">
      <path d="M98.3 113.64c-.22-.58-.54-1.12-.8-1.7a3.83 3.83 0 0 1-.36-1.86c.03.62.22 1.24.53 1.78.31.55.69 1.06.96 1.64l-.33.14zm-7.56-5.1c.57 1.08.16 2.38.36 3.54l-.36.06c-.06-.63.08-1.22.14-1.83a3.7 3.7 0 0 0-.14-1.78zm-6.8 11.57a1.8 1.8 0 0 1 1.5-.23v.02c-.52-.03-1.02.12-1.5.21zm.26 1.56c.4-.31.94-.51 1.46-.38v.02c-.52 0-.98.2-1.46.36zm2.72 1.4a1.8 1.8 0 0 1 .92-1.2h.02c-.41.34-.66.77-.94 1.2zm-.14-1.66c-.03-.39.24-.77.64-.77l-.1.04c.38-.3.87-.32 1.32-.32.42 0 .8-.04 1.2-.16l.03.03c-.15.16-.36.25-.57.31-.41.12-.86.1-1.25.18-.2.05-.36.11-.5.23a.12.12 0 0 1-.08.04c-.23.01-.32.2-.32.4l-.37.02zm1.8-1.42c-.44.2-.92.23-1.38.28a9.14 9.14 0 0 1-1.67 0l-.16-.33a.67.67 0 0 1 .5-.02l-.05-.01c.44.03.9.06 1.36.06.47.01.92-.04 1.38-.01l.02.03zm-2.51-1.23c.24.22.25.54.2.82h-.03c-.06-.21-.16-.45-.38-.52l.2-.3z"/>
      <path d="M87.66 120.95c.34-.18.84.1.82.5h-.04c-.27-.26-.48-.32-.78-.5zm-1.83-1.04c.36.1.48.53.5.86l-.03.01c-.11-.21-.27-.49-.52-.52 0 0-.01 0 0 0l.05-.35z"/>
    </g>
    <g>
      <path class="secondary" d="M121.42 119.48s-.1-.05-.56-.03a1.6 1.6 0 0 0-.96.4c-.11.1-.41.57-.33.66.09.08.89-.23 1.25-.24.36-.01.55.02.67.06.11.03-.07-.85-.07-.85zm.2 1.38s-.12-.04-.6.03c-.48.09-.84.42-.93.55-.1.14-.35.57-.25.64.1.07.88-.26 1.26-.32.37-.06.57-.05.7-.04.12.02-.19-.86-.19-.86zm2.62 1.3c-.1.05-.29.16-.55.42-.27.27-.72 1-.84 1.01-.12 0-.17-.49-.17-.66 0-.17.08-.65.43-1 .35-.34.43-.27.43-.27s.8.42.7.5z"/>
      <path d="M124.07 109.48c-.67 1 .05 3.22.5 4.3.57 1.35 1.43 1.64 2.66 2.3.4.22.7.3 1.04.61.34.31.36.75.34 1.21-.04.8-1.45 1.02-2.08 1.1-.83.1-.57.14-1.4.13-.63-.01-1.26-.12-1.89-.09-.36.03-.92.11-1.27 0-.48-.16-.78.28-.8.41.27.42.27.58.29.8-.42.15-.26.58-.36.63 0 0 .37.05.7.91.09.12.48.11.71.04.23-.07.45-.31.45-.31s.02.34.21.36c.04 0 .2-.03.41.04.2.08.43.32.47.33.31.18.43-.01.57-.13.45-.4.65-.09.98.21.24.23.62.13.94.05a8.93 8.93 0 0 1 2.75-.47c.53-.01.34.01.85.04.48.02.65-.17 1.1-.37.6-.27 1.36-.66 1.71-1.29.17-.29.2-.62.24-.95.12-.9.91-1.39 1.15-2.24.12-.44.06-.96-.27-1.27-.16-.15-.35-.23-.53-.35a2.12 2.12 0 0 1-.9-1.16c-.14-.46.13-1.91.12-2.4a10.64 10.64 0 0 0-.4-2.45"/>
      <g stroke="none" fill="#000">
        <path d="M119.96 120.2a1.8 1.8 0 0 1 1.5-.22v.01c-.53-.03-1.01.11-1.5.22zm.24 1.56c.4-.32.94-.52 1.46-.39v.03c-.52 0-.98.2-1.46.36zm2.77 1.38a1.8 1.8 0 0 1 .92-1.2h.01c-.4.33-.64.78-.93 1.2zm-.2-1.61c-.02-.39.25-.77.65-.77l-.1.04c.38-.3.87-.32 1.32-.32.42 0 .8-.04 1.2-.16l.03.03c-.15.16-.36.25-.57.31-.41.12-.86.1-1.25.18-.2.05-.36.11-.5.23a.12.12 0 0 1-.08.04c-.23.01-.32.2-.32.4l-.37.02zm1.8-1.42c-.43.2-.9.23-1.37.28a9.14 9.14 0 0 1-1.67 0l-.16-.33a.67.67 0 0 1 .5-.02l-.05-.01c.44.03.9.06 1.36.06.47.01.92-.04 1.38-.01l.02.03zm-2.5-1.23c.24.22.25.54.2.82h-.03c-.06-.21-.16-.45-.38-.52l.2-.3z"/>
        <path d="M123.66 121.07c.34-.18.84.1.82.5h-.04c-.27-.26-.48-.32-.78-.5zm-1.83-1.04c.36.1.48.53.5.86l-.03.01c-.11-.21-.27-.49-.52-.52 0 0-.01 0 0 0l.05-.35zm10.6-3.73c0 .55.28 1 .77 1.24-.67.2-1.26-.73-.78-1.24z"/>
      </g>
    </g>
    <g stroke="none" fill="#000">
      <path d="M128.07 119.5c.56 0 .9-.43 1.33-.73-.14.53-.8 1.09-1.33.73zm-36.17.1c.48-.16.86-.41 1.2-.8-.02.57-.68 1-1.2.8zm-15.96-3.44c.4.08.7-.25 1.03-.44.35-.2.7-.4 1.1-.52a5.02 5.02 0 0 1-.97.72c-.33.2-.79.52-1.16.24zm21-1.05-.17 1.63c-.01.18-.02.36-.06.56-.1-.16-.14-.36-.18-.55-.07-.56.04-1.19.41-1.64zm-7.74-6.66c-.01.45-.1 1.09-.13 1.55-.03.25-.04.5 0 .73.03.24.12.47.3.67-1.02-.47-.58-2.18-.17-2.95zm12.08 3.4c.35.56.94.81 1.55.93l.64.14c-.83.28-2.1-.06-2.19-1.06zm5.84 1.03c.7-.09 1.44.21 1.88.76a9.85 9.85 0 0 1-1.88-.76zm3.81.9c.6.1 1.17.28 1.72.54a1.76 1.76 0 0 1-1.72-.54zm3.64-2.26c.14.74.87 1.1 1.56 1.19.24.05.49.07.74.13a2.4 2.4 0 0 1-1.53-.04c-.5-.2-.94-.75-.77-1.28zm2.99.47a3.12 3.12 0 0 1 1.52-.06 1.48 1.48 0 0 1-1.52.06zm-13.7-.12c.39-.18.82-.23 1.24-.22.42.03.84.11 1.21.33a5.4 5.4 0 0 1-.62 0c-.57-.03-1.25-.04-1.83-.11zm.6 2.24c.54.22 1.06.3 1.64.3-.47.45-1.36.28-1.65-.3zm-5-3.03c-.1.7.04 1.34.37 1.96-.7-.32-.9-1.4-.37-1.96zm-5.96-2.16a2.57 2.57 0 0 0 1.54 1.7c-.9.14-1.77-.84-1.54-1.7zm-8.54-1.96a1.8 1.8 0 0 0 .54 1.4c.12.12.27.23.44.33-.83.1-1.5-1.07-.98-1.73zm2.19-.37c-.04.85.06 1.64.27 2.46a2.1 2.1 0 0 1-.27-2.46zm33.03 5.95a2 2 0 0 1 1.82-.7 9 9 0 0 1-1.82.7zm-7.82-.36a3.48 3.48 0 0 0 1.52.7c-.55.36-1.41-.05-1.52-.7zm-4.42-.53a15.72 15.72 0 0 0 1.96.54 1.68 1.68 0 0 1-1.96-.54zm.68 2.73c.37.04.78.15 1.12.24.12.03.26.06.39.12a1 1 0 0 1-.41.12c-.4.02-.86-.14-1.1-.48zm-24.64-9.96c.29-.17.53-.27.86-.32-.04.39-.58.58-.86.32zm2-.27c-.07-.03-.02-.12 0-.17.16-.26.32-.48.54-.7.15.36-.14.79-.5.84-.02 0-.05 0-.05.03zm-3.18-2.5c-.13-.3.12-.68.46-.68a.96.96 0 0 1-.46.69zm-2.25-1.77c.12-.36.43-.65.81-.7-.12.36-.44.64-.81.7zm-1.85 1.3c-.29-.44-.14-1.31.48-1.29-.36.36-.31.83-.48 1.29zm2.1.74a.92.92 0 0 1 .82-.59.88.88 0 0 1-.82.59zm-.89 1.81c.4-.14.83-.14 1.23.01a1.07 1.07 0 0 1-1.23 0zm-3.42-6.25a.58.58 0 0 1 .64-.46.58.58 0 0 1-.64.46zm.96 1.45c.34-.35.61-.66.93-1.02.1.52-.4 1.07-.93 1.02zm-3.62-2.43c-.07-.35.15-.71.45-.88.11-.05.22-.08.34-.08-.06.1-.13.18-.2.26-.18.25-.36.48-.6.7zm.51 4.26c.54.27 1.07-.02 1.62-.09.02 0 .03 0 .04.03l-.01.02c-.04.04-.13.08-.16.12h.01c-.03.01 0-.02.02-.04l.1-.1s0-.02 0 0h.02c-.24.07-.45.2-.69.3a1.68 1.68 0 0 1-1.05.1l.1-.34z"/>
    </g>
    <path fill="#F6F6F6" d="m74.28 100.92-.07-.06a3.48 3.48 0 0 0-.84-.36 3.24 3.24 0 0 0-2.09.42c-.08.09-.08.23-.04.34.03.1.4.88.98 1.15.46.22 1.03.13 1.4-.2s.53-.69.66-1.17v-.12z"/>
    <g stroke="none" fill="#000">
      <path d="M68.44 107.28c-1.32-.52-2.75-.12-4.13-.37l.09-.35c.3.09.64.14 1 .17 1.01.11 2.12.06 3.04.55zm3.47-6.62c-.05.1-.05.2-.05.3 0 .2.1.4.22.58s.33.33.54.28c.02 0 .04 0 .04-.03v-.04c-.03-.19-.15-.36-.18-.55-.02-.22.06-.43.16-.64m.95-.63c-.46.05-.89.02-1.32.12-.41.1-.84.25-1.2.51a1.2 1.2 0 0 1 .45-.55 1.83 1.83 0 0 1 2.07-.08zm-2.7 3.31c-.13.05-.15.2-.2.3-.09.23-.21.4-.4.59a.72.72 0 0 1 .03-.63c.09-.15.2-.3.4-.33.06-.01.13.01.17.07zm.47.26a.72.72 0 0 1-.2.84.53.53 0 0 1 .2-.84zm-6.62-1.08c.33-.3.72-.49 1.06-.76.24-.16.53-.23.8-.23-.13.13-.28.24-.42.35-.2.14-.4.37-.63.48-.25.1-.52.15-.8.16zm4.84-1c.6-.06 1.12-.34 1.62-.66l.16.32a3.78 3.78 0 0 1-1.78.34zm-.4-2.08c.05-.53.77-.6 1.1-.8.37-.2.78-.7 1.26-.6-.47.21-.63.66-1.07.92-.46.26-.95.1-1.3.48zm2.42-.12a.98.98 0 0 1 .76-.56c.34-.04.54.15.84.02-.06.35-.57.34-.81.34-.27 0-.5.14-.8.2zm-10.55 5.06c.17-.07.32-.12.43-.19.1-.07.13-.13.22-.3a1.2 1.2 0 0 1 .32-.43c.14-.1.36-.18.53-.1a.88.88 0 0 0-.33.3c-.13.18-.18.42-.36.63-.21.24-.57.21-.81.1zm1.39-.55c.12-.07.3-.05.42.03.4.22.38.9-.05 1.09.04-.43.03-.85-.37-1.12zm11.56 1.7c.26-.04 1.47-.04 1.4.35a.16.16 0 0 0-.16-.03c-.44.12-.96.05-1.24-.33zm2.12.14c.25-.2.62-.13.85.07.07.07.13.16.17.26-.12.02-.2 0-.3 0a1.56 1.56 0 0 1-.72-.33zm-3.44-2.25c.16 0 .28-.07.43-.13l.4-.15c.28-.11.41-.38.68-.54-.04.34-.17.72-.52.86-.17.07-.33.1-.49.1-.18.02-.4 0-.5-.14zm-4.84-.55a.5.5 0 0 1-.38.4c-.18.05-.35 0-.5 0-.32-.01-.6.05-.9.14.15-.33.54-.51.9-.5.38.02.54.19.88-.04zm14.11 4.56a2.11 2.11 0 0 0 1.24-1.94c.01-.28-.03-.57-.06-.84.06.27.12.55.14.84.11.93-.36 1.75-1.15 2.25l-.17-.3z"/>
    </g>
    <g>
      <path class="tertiary" stroke-linejoin="round" d="M135.8 110.5a9.6 9.6 0 0 1-4.12-.14c-.28-.06-.65-.08-.74.19-.03.06-.03.13-.06.18-.05.07-.16.07-.24.07-.65-.01-1.29-.35-1.94-.26l.06.4c-.54-.2-1.08-.37-1.63-.5a1.32 1.32 0 0 0-.65-.04c-.18.06-.32.2-.48.3-.15.09-.28.2-.44.1-.44.04-.89.02-1.33-.04-.24-.03-.52-.07-.72.06l-.23.2c-.23.18-.54.21-.83.18-.63-.09-1.16-.64-1.74-.22-.21.16-.56.31-.73.1-.06-.08-.08-.2-.18-.22-.07-.02-.14.02-.2.06-.48.2-1-.4-1.5-.25-.15.05-.27.14-.41.15-.22.03-.4-.13-.6-.18-.25-.06-.5.05-.76.09s-.56 0-.67-.23c-.22.22-.46.44-.76.48-.43.06-.92-.29-1.28-.04-.08.05-.14.14-.24.16a.41.41 0 0 1-.24-.05c-.38-.15-.73-.57-1.1-.7-.24-.09-.64.15-.48.47a22.56 22.56 0 0 0-1.8-.38l.14.2c-.5-.02-.95-.38-1.45-.4-.16 0-.31.03-.47.02-.44-.02-.9-.37-1.3-.18-.06.2.04.42.2.53-.3-.03-.62.07-.9-.07-.6-.3-1.24-.5-1.9-.58l.7.58c-.58.21-1.17-.2-1.68-.53-.14-.09-.32-.17-.45-.07l.04.5c-.96-.17-1.75-1.06-2.73-.98.3.1.57.32.71.6a7.2 7.2 0 0 1-2.28-.7l.2.72c-.57-.22-.77-.42-1.34-.62l.05.51-1.34-1.35c-.08.19-.1.37-.26.49a4.08 4.08 0 0 1-.92-.95 1.32 1.32 0 0 0-.18.52c-.44-.3-.5-.64-.85-1.02-.11-.11-.22-.24-.36-.27s-.34.1-.29.24a3.26 3.26 0 0 0-1.28-.95c.12.26.1.56-.04.8a5.26 5.26 0 0 0-1.02-1.05c0 .29-.07.59-.23.84-.32-.1-.53-.35-.73-.62-.08-.11-.16-.22-.25-.3-.24-.2-.45.05-.67-.17-.05-.05-.26-.54-.11-.55-.15.01-.25-.13-.29-.28-.02-.14.01-.29.01-.43s-.05-.3-.18-.37c-.1-.06-.31.03-.4-.05-.09-.08-.05-.4-.04-.52 0-.03.01-.07-.01-.1a.12.12 0 0 0-.09-.04.5.5 0 0 1-.37-.58c-.23.04-.68.06-.89-.08-.1-.07-.31-.38-.13-.47-.36.17-.85-.1-.88-.5v-.36c0-.12-.06-.25-.16-.29-.08-.04-.17-.01-.24-.04-.15-.03-.23-.16-.28-.3-.12-.43-.07-.63-.54-.78-.34-.1-.66-.04-.6-.5.02-.22.04-.44.04-.66 0-.08-.02-.17-.06-.23a.43.43 0 0 0-.18-.1c-.3-.09-.6-.25-.9-.3-.22-.05-.7.09-.75-.27l-.01-.17c-.05-.14-.24-.15-.38-.18a.91.91 0 0 1-.76-.86l-.84.24c-.05-.18-.06-.36-.05-.54-.15-.04-.31.03-.47.08-.15.05-.33.06-.45-.05-.11-.1-.03-.37.13-.32-.37.16-.91.23-1.32.29-.01-.29.05-.57.16-.83a7.58 7.58 0 0 0-1.14.72c.08-.32.1-.66.07-1l-.33.32-.1-.95c0-.12-.06-.29-.18-.27-.08.02-.11.08-.15.14a1.87 1.87 0 0 1-.75.7c-.08.04-.18.08-.23 0-.03-.03-.03-.07-.03-.1l-.02-.52a.7.7 0 0 1-.65.08c.05-.2.09-.4.1-.6a.77.77 0 0 1-.48.3c.07-.44-.01-.9-.23-1.28-.28.35-.42.48-.66.88a3.92 3.92 0 0 0-.4-1.77c-.3-.62-.9-1.83-1.4-2.1l1.7.16a7.32 7.32 0 0 0-1.48-1.18l1.63.24c-.36-.33-.67-.7-.96-1.11.47.2.91.44 1.34.7l-.47-1.36 1.13.7c-.18-.58-.32-1.2-.43-1.8.44.39.8.88 1.02 1.43l.25-1.82c.22.33.6.59.75.96.14-.5.27-1.01.55-1.44.17.24.25.55.33.83.17-.5.34-1.06.68-1.48.13.37.2.77.32 1.14.14-.44.5-.91.74-1.32a1.8 1.8 0 0 0 .4.91c.2-.48.7-1.13 1-1.56.08.43.14.88.3 1.3.57-.88.67-1.15 1.2-1.98.13.42.26.84.36 1.26a8.62 8.62 0 0 0 1.44-2.02c.02.41.13.82.32 1.19l1.37-1.87c-.12.31-.1.66.07.93l.94-1.84c.18.46.27.97.3 1.47 1-.59.7-2.03 1.6-2.72l.2 1.67 1.46-1.77.18.85a7.82 7.82 0 0 0 1.86-1.86v1.59a8.04 8.04 0 0 0 1.6-1.53l-.09.92a11.66 11.66 0 0 1 2.73-2.27l-.99 1.47 2.58-1.53c.28.49-1.09.78-.89 1.3.26.05.5-.11.69-.28l1.85-1.62-.57 1.87 1.83-1.49-.6 1.55a9.74 9.74 0 0 0 2.4-1.94c.3.57-.93 1.12-.66 1.72.78-.96 1.71-1.83 2.77-2.58-.5.6-.87 1.28-1.08 1.98a4.37 4.37 0 0 0 2.18-1.9 5.32 5.32 0 0 1-.81 1.93c.5-.84 1.3-1.54 2.28-1.98a14.64 14.64 0 0 1-1.17 2.06l1.83-1.47a4.25 4.25 0 0 1-1.01 1.57c.57-.05 1.04-.65 1.4-.97.23-.22 1.42-1.02 1.42-1.29a4.45 4.45 0 0 1-1.1 2.45c1.16-.37 1.5-1.81 2.68-2.12-.49.48-.84 1.08-1 1.7a6.4 6.4 0 0 1 1.99-1.66 4.51 4.51 0 0 1-.92 1.89 31.9 31.9 0 0 0 2.64-2.08c-.04.95-1.48 1.56-1.39 2.51 1.25-.32 1.97-1.54 3.22-1.88l-1.54 1.41c1.13.17 1.96-.96 3.07-1.15l-1.24 1.44c.96-.53 1.95-1 3-1.4-.2.96-1.04 1.7-1.82 2.4a9.94 9.94 0 0 0 2.82-1.44l-1.2 1.3a3.84 3.84 0 0 0 2.72-1.05c.16.4-.18.83-.57 1.09-.38.26-.85.5-1.05.88 1.04-.12 1.75-1.18 2.8-1.13l-2.07 1.99a11.06 11.06 0 0 0 3.9-1.22c0 .63-.69 1.08-1.3 1.41a8.7 8.7 0 0 0 1.78-.4l-1.32 1.35c1.08.24 1.93-.88 3.02-1-.51.76-1.35 1.3-2.18 1.84l2.87-.53c-.58.48-1.28.88-2.02 1.14a40.08 40.08 0 0 0 3.38.24 6.05 6.05 0 0 1-2.65.52l3.5.42-2.07.98c1.25.12 2.5.03 3.72-.25l-2.26 1.19 3.08-.16c-.84.24-1.66.5-2.49.76h2.9c-.23.63-.95 1.1-1.72 1.11a11.76 11.76 0 0 0 2.97-.36l-1.95.82c-.13.06-.28.12-.34.24a8.14 8.14 0 0 0 3.65.1 11.78 11.78 0 0 0-2.98.93l3.34.12-1.79.47c-.42.1-.84.23-1.2.44 1.17.05 2.32.2 3.46.45-.88.15-1.78.24-2.68.24a10.22 10.22 0 0 0 2.57.29c-.77.21-1.43.24-2.23.3.89.46 1.92.73 2.96.75l-2.37.27 2.32.57c.11.03.26.11.2.2l-2.19.3c.78.32 1.6.58 2.44.77a5.64 5.64 0 0 1-2.37.33c1.01.23 2 .51 2.96.86-.77.04-1.54.17-2.26.39l2.9.82a7.1 7.1 0 0 0-2.66-.08 23.04 23.04 0 0 0 2.95 1.42c-.87-.05-1.76-.06-2.64-.03l2.39.48c.37.07.78.17.97.46-1.03.06-2.06.03-3.08-.1.73.6 1.63 1.03 2.59 1.27l-2.48-.1a10.04 10.04 0 0 0 3.5 1.96c-1.14 0-2.28-.08-3.4-.25 1.34.31 2.75.65 3.72 1.51l-3.43-.46a9.42 9.42 0 0 0 3.61 1.71l-2.36.06c-.29.01-.6.01-.89-.02l2.77 1.04c-1 .11-2.04 0-2.98-.29.73.3 1.42 1.4 2.04 1.85l-2.68.1c.85.31 1.14.93 2.57.93-.03 0-1.02.58-2.34.88z"/>
    </g>
    <g stroke="none" fill="#000">
      <path d="M97.31 89.8a21.2 21.2 0 0 1 5.41-4.02c.17-.1.32.16.15.26a32.07 32.07 0 0 0-5.2 4.16 22.1 22.1 0 0 1 5.04-4.4l.15.26a31.02 31.02 0 0 0-5.55 3.74zm5.22 1.33a20.14 20.14 0 0 1 4.78-5.03c.07-.04.15-.03.2.03.05.06.04.15-.02.2l-.64.58a28.72 28.72 0 0 0-3.9 4.53 19.94 19.94 0 0 1 3.7-4.74l.63-.58.2.22a26.2 26.2 0 0 0-4.95 4.8zm8.57-1.19 2.3-2.97.76-1c.1-.14.35 0 .25.17a33.31 33.31 0 0 1-2.89 4.15c.62-1.04 1.36-2.18 1.98-3.23l.65-1.08.25.17a36.62 36.62 0 0 1-3.3 3.8zm7.78-.82 2.28-1.23.75-.4c.07-.04.17-.02.2.05.04.06.03.15-.03.2l-.7.52c-.73.5-1.47.98-2.26 1.35.66-.52 1.42-1.07 2.08-1.57l.69-.53.17.25a18.1 18.1 0 0 1-3.18 1.36zm2.43 3.08a8.56 8.56 0 0 1 4.21-2.44c.18-.04.27.22.09.3a11.8 11.8 0 0 0-3.94 2.52 8.02 8.02 0 0 1 1.7-1.66 9 9 0 0 1 2.12-1.14l.1.28a11.11 11.11 0 0 0-4.28 2.14zm-.32 3.2a15.45 15.45 0 0 1 6.47-2.34c.19-.02.24.26.04.3a18.74 18.74 0 0 0-6.22 2.5 14.83 14.83 0 0 1 5.34-2.6l.82-.2.05.3a19.64 19.64 0 0 0-6.5 2.03zm2.65 4.61a14.69 14.69 0 0 1 4.18-2.3c.18-.06.28.19.12.27a25.25 25.25 0 0 0-3.99 2.46 14.47 14.47 0 0 1 3.85-2.72l.12.28a26.16 26.16 0 0 0-4.28 2.01zm-.64 5.88a47.04 47.04 0 0 0 4.22-1.07c.45-.14.92-.28 1.36-.45.18-.06.3.19.11.27a23 23 0 0 1-5.59 1.78 43.87 43.87 0 0 0 5.46-2.04l.1.28a22.18 22.18 0 0 1-5.66 1.23zm-8.66-10.95a13.25 13.25 0 0 1 4.64-2.4c.2-.05.28.22.1.3a18.5 18.5 0 0 0-4.4 2.53 12.81 12.81 0 0 1 4.3-2.81l.09.29c-.41.13-.83.24-1.23.4a18.86 18.86 0 0 0-3.5 1.69zm-2.34 5.43a48.89 48.89 0 0 0 4.98-.32c.18-.03.24.25.05.3-1.65.38-3.34.6-5.03.56a46 46 0 0 0 4.96-.86l.04.3c-1.65.19-3.33.24-5 .02zm-9-5.58a19.6 19.6 0 0 1 6.7-.66c.19.01.18.3-.02.3l-1.65.07c-1.66.12-3.29.42-4.91.82a20.65 20.65 0 0 1 6.54-1.19v.3a28.16 28.16 0 0 0-6.66.36zm-9.24-.7a18.26 18.26 0 0 1 5.16-.85c.2 0 .2.28.02.3-1.7.22-3.38.6-5.02 1.07 1.58-.7 3.27-1.14 4.99-1.37l.02.3-1.3.06a38 38 0 0 0-3.87.5zm-.5 6.28a175.67 175.67 0 0 1 7.18-2.05c.09-.02.17.02.18.1.03.08-.02.16-.1.19-1.04.35-2.5.85-3.53 1.17-1.19.39-2.38.76-3.57 1.1 1.16-.46 2.32-.9 3.5-1.31l3.51-1.24.09.29c-2.4.62-4.82 1.24-7.25 1.75zm4.87 2.26c1.95-.25 3.92-.42 5.89-.57.2 0 .22.27.04.3-1.92.32-3.93.62-5.86.8 1.44-.32 2.9-.6 4.36-.84l1.45-.24.03.3a122.52 122.52 0 0 1-5.91.25zm.38-18.25a11.84 11.84 0 0 1 3.75-1.29c.18-.03.25.24.07.29l-.91.31c-.92.33-1.8.73-2.66 1.17a12.5 12.5 0 0 1 3.48-1.77l.08.29a24.64 24.64 0 0 0-3.8 1zm-8.97 3.96a10.2 10.2 0 0 1 3.24-1.8c.4-.12.8-.22 1.2-.32.08-.02.16.04.18.12a.16.16 0 0 1-.1.17 14.02 14.02 0 0 0-4.2 2.25 9.64 9.64 0 0 1 4.1-2.52l.09.28c-1.6.33-3.12.98-4.51 1.82zm1.1 2.04c.85-.46 1.75-.84 2.65-1.2.07-.03.17.02.2.1.02.06 0 .14-.07.17l-.62.37c-.62.38-1.26.74-1.92 1.04a42.07 42.07 0 0 1 2.39-1.66l.13.26c-.91.34-1.82.68-2.76.92zm-4.27 4.41a14.9 14.9 0 0 1 4.75-2.27c.18-.06.28.22.1.3a26.41 26.41 0 0 0-4.56 2.43 16.08 16.08 0 0 1 4.44-2.73l.1.3-1.26.39a28.7 28.7 0 0 0-3.57 1.58zm-1.29-2.46a5.71 5.71 0 0 1 2.72-1.04c.18-.03.24.23.07.29l-.66.22c-.65.26-1.25.6-1.83.98.33-.35.69-.65 1.1-.9.4-.24.84-.42 1.3-.58l.05.29c-.95.1-1.86.37-2.75.74zm22.34 5.11a5.27 5.27 0 0 1 2.38-.06c.09.02.14.1.12.17a.14.14 0 0 1-.14.12c-.56.03-1.13.1-1.68.2l-.56.1a6.07 6.07 0 0 1 2.23-.6l-.03.3c-.74-.14-1.54-.19-2.32-.23zm1.17-14.37a11.28 11.28 0 0 1 4.01-.25c.18.02.17.3-.01.3a21.46 21.46 0 0 0-3.88.48 9.56 9.56 0 0 1 1.9-.57c.65-.13 1.3-.19 1.98-.21l-.01.3a21.03 21.03 0 0 0-3.99-.05zm4.7.98a14.76 14.76 0 0 1 3.22-.68l1.1-.09c.08 0 .15.06.15.15 0 .07-.05.14-.12.15a35.94 35.94 0 0 0-4.19.99c1.31-.64 2.71-1.05 4.14-1.29l.03.3a32.56 32.56 0 0 0-4.32.47zm6.37 1.35a8.4 8.4 0 0 1 2.58-.8c.18-.03.24.22.07.28-.61.23-1.23.48-1.83.74l-.6.27c.16-.15.34-.27.53-.4a8.56 8.56 0 0 1 1.79-.89l.07.3c-.87.12-1.74.32-2.61.5zm-.53-1.78a8.4 8.4 0 0 1 2.58-.8c.18-.03.24.22.07.28-.61.23-1.22.48-1.82.75l-.62.26c.17-.14.35-.26.54-.4a8.56 8.56 0 0 1 1.8-.88l.06.29c-.87.13-1.75.32-2.61.5zm-5.04 6.54a10.2 10.2 0 0 1 2.57-.9l.9-.16c.08 0 .15.05.16.14.02.07-.03.14-.1.16-1.13.33-2.22.76-3.3 1.25a10.32 10.32 0 0 1 3.21-1.53l.06.28a22.04 22.04 0 0 0-3.5.76zm-4.79-1.78a5.2 5.2 0 0 1 2.54-1.76c.17-.06.28.18.14.26l-.64.38a8.6 8.6 0 0 0-1.63 1.46 5.23 5.23 0 0 1 2.11-2.09l.1.28c-.95.31-1.83.84-2.62 1.47zm-4.51 2.98c1.04-.48 2.13-.89 3.23-1.26.08-.02.16.01.19.1a.15.15 0 0 1-.07.18l-.77.4c-.78.38-1.56.76-2.37 1.08.48-.32.98-.62 1.48-.9l.76-.44.76-.4.12.27c-1.11.36-2.2.7-3.33.97zm10.79 6.47a8.84 8.84 0 0 1 2.43-.34c.83 0 1.66.12 2.46.33.18.04.12.32-.06.28a12.19 12.19 0 0 0-4.7.24 9 9 0 0 1 4.74-.54l-.06.3-.59-.15a12.48 12.48 0 0 0-4.22-.12zm-1.72 6.03c1.84-.5 3.72-.81 5.62-1 .19-.02.22.26.04.3l-1.38.27c-1.33.28-2.8.64-4.14.96 1.77-.68 3.6-1.16 5.46-1.53l.05.3-1.41.14a102.36 102.36 0 0 0-4.24.56zm11.58 4.73c.85.09 1.79.17 2.64.18l.88.01c.18 0 .2.27.02.3-1.19.18-2.41.23-3.61.05a33.06 33.06 0 0 0 3.56-.35l.03.3a12.44 12.44 0 0 1-3.52-.49zm-8.38.05a17.11 17.11 0 0 1 3.86.65c.08.02.13.1.1.18-.02.07-.1.12-.16.1l-1.91-.21-1.92-.2a17.38 17.38 0 0 1 3.86.1l-.06.3c-1.22-.32-2.53-.6-3.77-.92zm-4.87-2.06c1.07-.03 2.13.04 3.18.14.09.01.15.08.13.17 0 .07-.07.13-.14.13l-.8.05c-.78.05-1.59.07-2.38.05.52-.11 1.04-.18 1.57-.24l.8-.09.79-.07v.3a30.96 30.96 0 0 1-3.15-.44zm-6.31-2.36c1.33-.33 2.71-.46 4.1-.46.17 0 .2.27 0 .3-.67.08-1.33.19-2 .3-.58.1-1.4.27-2 .4a15.92 15.92 0 0 1 3.96-1v.3a51.7 51.7 0 0 0-4.06.16zm-1.34-4.12a9.96 9.96 0 0 1 3.52-.16c.18.02.17.3 0 .3l-.86.04c-.85.06-1.7.19-2.56.34a10.58 10.58 0 0 1 3.4-.68l-.02.3a19.78 19.78 0 0 0-3.48-.14zm-5.82 7.22c.97.08 1.93.25 2.88.44.08.02.13.1.12.18-.02.08-.09.12-.16.12l-.72-.02c-.73-.04-1.45-.07-2.17-.18a19.63 19.63 0 0 1 2.9-.08l-.03.3c-.96-.23-1.91-.45-2.82-.76zm-3.24-.35c.87-.72 2-1.1 3.13-1.13.18 0 .2.27.02.3a7.48 7.48 0 0 0-2.84 1.26c.35-.4.78-.74 1.25-1a5.4 5.4 0 0 1 1.52-.56l.02.3a7.15 7.15 0 0 0-3.1.83zm-17.2-15.06a6.9 6.9 0 0 1 2.23-.74c.18-.03.24.21.09.29-.7.28-1.38.62-2.07.93a6.6 6.6 0 0 1 1.96-1.21l.08.29c-.78.12-1.53.29-2.29.44zm4.56 2.67c.7-.35 1.44-.62 2.18-.86.09-.02.17.02.2.1a.15.15 0 0 1-.08.18l-.5.3c-.52.29-1.03.56-1.58.78.3-.25.62-.48.94-.7l.99-.64.12.27c-.75.23-1.5.45-2.27.57zm.62 3.46a3.48 3.48 0 0 1 2.82-1.63c.09 0 .16.06.16.15 0 .07-.05.13-.12.15l-.36.1a4.08 4.08 0 0 0-2.06 1.55 3.26 3.26 0 0 1 2.34-1.94l.04.3a4.2 4.2 0 0 0-2.82 1.32zm2.49 3.15a16.92 16.92 0 0 1 2.11-1.26c.16-.09.3.13.17.25-.63.52-1.29 1.04-1.98 1.46a17.04 17.04 0 0 1 1.79-1.69l.16.25c-.74.36-1.48.72-2.25.99zm4.57 2.6a4.02 4.02 0 0 1 2.57-1.37c.08 0 .15.05.17.14 0 .07-.04.14-.11.16a4.73 4.73 0 0 0-1.19.58c-.38.25-.72.54-1.04.86.22-.4.54-.75.9-1.05.38-.3.8-.52 1.24-.67l.06.28c-.94.12-1.83.53-2.6 1.07zm-.67-5.1a6.12 6.12 0 0 1 3.01-1.43c.17-.02.34-.02.5 0 .17 0 .18.27 0 .3-.3.03-.57.09-.86.18-.86.32-1.6.88-2.34 1.4.43-.45.89-.87 1.4-1.22a3.92 3.92 0 0 1 1.77-.67l.01.3c-1.26-.07-2.39.6-3.5 1.14zm-.73-2.8a8.54 8.54 0 0 1 3.45-.9c.18 0 .22.26.04.3a17.5 17.5 0 0 0-3.28 1.1A9.14 9.14 0 0 1 92.55 95l.03.3a17.32 17.32 0 0 0-3.46.57zm8.37.45a4.34 4.34 0 0 1 3.17-1.43c.18 0 .2.27.02.3a5.2 5.2 0 0 0-2.8 1.5 4.16 4.16 0 0 1 2.74-1.8l.04.3a5.53 5.53 0 0 0-3.17 1.13zm2.44-5.94c.31-.25.7-.42 1.09-.52.16 0 .53-.19.56.06.02.06-.02.12-.08.16-.22.1-.43.23-.64.36l-.63.4a2.9 2.9 0 0 1 .8-.82l.34-.2.08.27c-.51.05-1.02.17-1.52.29zm4.6-6.58a6 6 0 0 1 1.78-.76l.64-.14c.08 0 .15.04.17.12a.15.15 0 0 1-.1.17c-.58.22-1.13.48-1.67.78l-.55.3a6.55 6.55 0 0 1 2.11-1.35l.07.28c-.81.12-1.65.36-2.44.6zm23.7 17.07a8.14 8.14 0 0 1 3.16-.76c.09 0 .16.06.16.15 0 .07-.05.14-.12.15-1.03.22-2.03.57-3 .96a8.2 8.2 0 0 1 2.94-1.25l.03.3-.8.06a18.12 18.12 0 0 0-2.38.39zm-2.5-5.98a10.3 10.3 0 0 1 3.43-.27c.08 0 .14.07.14.15 0 .07-.07.13-.14.15-.83.07-1.66.18-2.48.33l-.83.16a11.38 11.38 0 0 1 3.29-.8v.3a29.34 29.34 0 0 0-3.41-.02zm.38-3.38c.97-.06 1.93-.01 2.9.05.09 0 .15.07.15.15 0 .07-.06.13-.13.15l-.72.08c-.72.07-1.44.12-2.17.12.46-.12.94-.2 1.41-.29.41-.07 1.01-.15 1.43-.2l.01.3a29.5 29.5 0 0 1-2.88-.36zm-8.85.13a4.97 4.97 0 0 1 2.62-.58c.18 0 .2.27.03.3l-.63.12a9.32 9.32 0 0 0-1.78.64c.32-.28.7-.52 1.1-.68a5.64 5.64 0 0 1 1.26-.38l.01.3a9.16 9.16 0 0 0-2.61.28zm-7.42.66c1.03-.2 2.06-.29 3.1-.36.19-.01.24.25.06.3-1.01.24-2.06.47-3.08.6.96-.36 2-.64 3-.89l.05.3c-1.04.05-2.09.1-3.13.05zm1.73 4.52a9.61 9.61 0 0 1 3.13-.04c.08 0 .14.08.13.16-.01.08-.07.14-.14.14l-.76.04c-.5.04-1 .09-1.51.16l-.77.08a11.27 11.27 0 0 1 3.03-.58l-.02.3c-1-.15-2.07-.2-3.1-.26zm-11.43.58a39.6 39.6 0 0 0 4.13-.73c.09-.03.16.03.18.1a.17.17 0 0 1-.1.19l-1.01.34c-1.02.32-2.08.54-3.15.64 1-.28 2.09-.58 3.06-.91l1-.35.08.29a15.83 15.83 0 0 1-4.19.43zm20.51 5.64a10.9 10.9 0 0 1 3.45-.67c.18 0 .21.26.03.3-.55.1-1.11.24-1.65.38-.56.15-1.1.33-1.65.5a10 10 0 0 1 3.24-1.17l.04.3c-1.15.01-2.3.17-3.46.36zm6.13 3.7a21.72 21.72 0 0 1 5.92-.26c.2.03.18.3-.01.3a33.84 33.84 0 0 0-5.82.48 20.42 20.42 0 0 1 5.82-.78l-.01.3a35.8 35.8 0 0 0-5.9-.04zm1.94-4.31c.96-.05 1.9.1 2.83.35.18.04.13.3-.05.28l-1.37-.07-1.39-.02a8.8 8.8 0 0 1 2.78-.2l-.06.3c-.88-.27-1.84-.46-2.74-.64zm-7.36 5.03c.97.12 1.92.32 2.87.55.08.02.13.1.1.18 0 .07-.08.12-.15.12l-.73-.05a21.9 21.9 0 0 1-2.17-.26c.49-.04.97-.04 1.46-.04l.73.01.73.04-.04.3c-.95-.24-1.89-.5-2.8-.85zm-3.83-1.5a8.08 8.08 0 0 1 2.77-.48c.18 0 .2.26.04.3-.66.13-1.32.3-1.97.5l-.66.2.6-.33a8.09 8.09 0 0 1 1.97-.66l.02.3a23.88 23.88 0 0 0-2.77.18zm-7.64 2.76c1.09-.03 2.18.04 3.27.14.09.01.15.08.14.17-.02.07-.08.13-.15.13l-.81.05c-.82.05-1.64.07-2.46.05a27.6 27.6 0 0 1 2.43-.33l.82-.07v.3c-1.08-.1-2.17-.22-3.24-.44zm-3.93-2.64a39.84 39.84 0 0 1 3.5-.96c.1-.03.16.03.19.1a.17.17 0 0 1-.1.18l-.85.33c-.85.31-1.7.62-2.6.86l1.65-.78 1.68-.7.09.3a38.64 38.64 0 0 1-3.56.67zm2.06-4.7a5.64 5.64 0 0 1 1.57-.66l.56-.12c.09 0 .16.04.17.12a.15.15 0 0 1-.1.17 36 36 0 0 0-.98.46l-.97.49a5.64 5.64 0 0 1 1.33-.98c.17-.09.32-.17.5-.24l.09.28c-.72.12-1.44.3-2.17.47zm9.84-.6a17 17 0 0 1 4.1-1.3c.08-.02.16.03.18.12.01.07-.02.15-.1.16a58.44 58.44 0 0 0-3.96 1.52 17.75 17.75 0 0 1 3.88-1.8l.07.28a58.88 58.88 0 0 0-4.17 1.02zm-21.95.8a7.92 7.92 0 0 1 3.53-1.23l.54-.05c.08 0 .15.06.15.15 0 .07-.05.14-.12.15a11.6 11.6 0 0 0-3.83 1.43 7.32 7.32 0 0 1 1.77-1.11 8.4 8.4 0 0 1 2-.62l.04.3a11.62 11.62 0 0 0-4.08.98zm-2.9 3.63c1.28-.4 2.59-.73 3.9-1.04.17-.04.26.21.08.29a47.66 47.66 0 0 1-3.83 1.27 45.82 45.82 0 0 1 3.72-1.55l.08.29a44 44 0 0 1-3.94.74zm6.15-1.11c1.13.14 2.3.28 3.43.34.09 0 .15.08.15.16 0 .07-.06.13-.14.14l-.87.06a12.84 12.84 0 0 1-2.63-.16c.84-.04 1.78-.05 2.62-.12l.86-.08v.3a13.58 13.58 0 0 1-3.42-.64zM95.5 88.04a5.52 5.52 0 0 1 2.05-1.08c.09-.03.17 0 .2.1a.15.15 0 0 1-.08.17l-.92.6-.93.65a6.36 6.36 0 0 1 1.7-1.5l.13.28c-.75.21-1.44.5-2.15.78zm-.73-2.93A5.78 5.78 0 0 1 97 84.03c.09-.03.16.02.18.1a.12.12 0 0 1-.08.17c-.35.18-.7.38-1.03.6-.3.17-.71.46-1.01.65a6.44 6.44 0 0 1 1.9-1.5l.1.28c-.77.18-1.56.48-2.3.78zm1.97-2.47a11.04 11.04 0 0 1 2.77-.76c.08-.01.15.05.17.12a.16.16 0 0 1-.1.17l-.66.24-1.98.73a11.16 11.16 0 0 1 2.54-1.26l.08.29-.7.1-2.12.37zm5.86-1.24a8.16 8.16 0 0 1 3.87-.9c.18 0 .2.26.02.3-.31.05-.63.08-.95.16a12.6 12.6 0 0 0-2.7.92 7.58 7.58 0 0 1 3.62-1.38v.3c-1.31-.01-2.6.22-3.86.6zm-4.05-.88a8.16 8.16 0 0 1 3.86-.9c.18 0 .2.27.03.3-.32.05-.64.09-.95.16a12.6 12.6 0 0 0-2.7.92 7.58 7.58 0 0 1 3.61-1.38l.01.3c-1.32-.02-2.61.2-3.86.6zm-6.09 1.64a8.16 8.16 0 0 1 3.87-.9c.18 0 .2.26.02.3-.31.04-.63.08-.95.15a12.6 12.6 0 0 0-2.7.93 7.58 7.58 0 0 1 3.62-1.38v.3c-1.31-.03-2.6.2-3.86.6zm-5.9 2.31a7.98 7.98 0 0 1 3.68-1.49c.18-.03.26.23.08.3a12.34 12.34 0 0 0-3.46 1.62 8 8 0 0 1 3.36-1.92l.06.3c-.32.05-.64.09-.96.17-.96.23-1.87.6-2.76 1.02zm-5.58 2.21a7.98 7.98 0 0 1 3.68-1.49c.18-.03.26.23.08.29a12.34 12.34 0 0 0-3.46 1.63 8 8 0 0 1 3.36-1.92l.06.29c-.32.06-.64.1-.96.18-.96.23-1.87.6-2.76 1.02zm28.42-5.84c.76-.3 1.6-.36 2.4-.27.08.01.14.09.13.17a.15.15 0 0 1-.13.13l-.57.09c-.56.1-1.11.24-1.68.4a4.79 4.79 0 0 1 2.21-.79v.3c-.78-.1-1.57-.08-2.36-.03zm4.58.36c1.26-.1 2.52.02 3.76.27.18.04.14.31-.04.3-.61-.05-1.22-.07-1.85-.1H114a13.64 13.64 0 0 1 3.72-.21l-.05.3a41.28 41.28 0 0 0-3.68-.56zm4.14 6.36a3.84 3.84 0 0 1 1.66-.48h.58c.09 0 .15.07.15.15 0 .07-.05.13-.12.15-.71.12-1.38.36-2.03.66a3.8 3.8 0 0 1 1.97-.96l.01.3a8.13 8.13 0 0 0-2.22.18zm-2.09-.76a5.16 5.16 0 0 1 2.37-1.63c.07-.04.16.01.19.08.02.07 0 .16-.07.2a9.48 9.48 0 0 0-2.1 1.7 5.18 5.18 0 0 1 1.95-1.97l.12.28c-.21.08-.43.15-.65.26a10.62 10.62 0 0 0-1.8 1.08zm6.01 1.96a11.76 11.76 0 0 1 3.46-1.43c.4-.1.83-.16 1.24-.23.18-.04.25.24.07.29-.4.1-.8.2-1.18.33-1.16.38-2.25.9-3.32 1.5a11.68 11.68 0 0 1 4.41-2.13l.05.3c-1.63.23-3.21.72-4.73 1.37zm1.02-3.32a4.12 4.12 0 0 1 2.22-.15c.09.01.14.1.12.18a.14.14 0 0 1-.14.12l-.52.05c-.51.06-1.02.19-1.52.32a4 4 0 0 1 2.02-.67l-.03.3a8.56 8.56 0 0 0-2.15-.15zm2.76 3.04a5.32 5.32 0 0 1 3.35.85c.07.05.1.15.05.22a.15.15 0 0 1-.18.06 7.48 7.48 0 0 0-3.18-.58 5.24 5.24 0 0 1 3.29.3l-.13.27c-.24-.15-.48-.3-.75-.41-.77-.39-1.6-.6-2.45-.71zm3.76 4.03c.88-.02 1.74.05 2.6.15.18.02.18.28 0 .3a21 21 0 0 1-2.6.1c.84-.21 1.73-.32 2.58-.4v.3c-.86-.11-1.73-.23-2.58-.45zm-.86 2.98a8.35 8.35 0 0 1 4.06.79l.54.26c.08.04.11.14.06.2-.03.08-.12.1-.19.08a11.95 11.95 0 0 0-4.46-.8 8.33 8.33 0 0 1 4.57.5l-.12.28a11.64 11.64 0 0 0-4.46-1.31zm1.05 2.61c1-.04 2 0 3 .05.18.01.2.28.01.3-.98.11-2 .2-2.98.2.96-.23 1.96-.38 2.95-.5l.01.3c-1-.07-2-.17-2.99-.35zm2.25 2.66c.93.07 1.86.25 2.78.43.08.01.13.1.12.18-.01.07-.08.12-.16.12l-.7-.03c-.7-.03-1.4-.07-2.1-.18.48-.06.94-.08 1.41-.1h1.41l-.03.3c-.92-.2-1.85-.41-2.73-.72zm-.18 3.37a22.68 22.68 0 0 1 2.78.62c.08.03.13.11.1.18-.02.07-.08.12-.15.11l-.7-.06c-.71-.07-1.42-.17-2.12-.31.48-.03.95-.01 1.43 0 .4.01 1 .05 1.42.08l-.05.29c-.93-.26-1.84-.54-2.71-.91zm-.82 4.22c1.13.05 2.24.2 3.36.35.18.02.17.3-.02.3-1.12.01-2.27 0-3.38-.1 1.1-.14 2.26-.19 3.38-.2l-.03.3c-1.1-.18-2.22-.36-3.31-.65zm-5.95-5.3a5.37 5.37 0 0 1 2.41-.46c.08 0 .14.07.14.16 0 .07-.04.13-.12.14l-.56.13c-.55.14-1.14.35-1.67.54a5.36 5.36 0 0 1 2.17-.96l.03.3h-.6c-.58 0-1.23.09-1.8.15zm-3.82-5.81a33.9 33.9 0 0 1 4.37-.88c.08 0 .16.05.17.12.01.09-.04.16-.12.17-1.43.37-2.86.77-4.29 1.1 1.37-.56 2.79-1 4.22-1.39l.06.3c-1.47.2-2.93.42-4.4.58zm-11.61-11.86c.33-.26.76-.38 1.2-.37.14 0 .28.04.43.07.08.02.13.1.1.18 0 .06-.05.11-.11.11-.23.03-.46.06-.69.15-.23.07-.43.19-.63.3.07-.09.14-.2.24-.28.27-.26.66-.42 1.04-.46l-.04.3a3.37 3.37 0 0 0-1.54 0zm-6.22 12.78a9.15 9.15 0 0 1 1.63-.75c.16-.06.28.15.15.26a11.4 11.4 0 0 1-1.12.76c-.47.26-.47.27-.08-.12a11.88 11.88 0 0 1 1.02-.88l.14.27a11.32 11.32 0 0 1-1.74.46zm-10.19-5.95c.39-.51.91-.92 1.49-1.19.2-.1.4-.15.61-.21.07-.03.16.01.2.1.02.07-.02.15-.09.17l-.5.3a6.76 6.76 0 0 0-1.3 1.18 3.89 3.89 0 0 1 1.67-1.73l.1.28a6.26 6.26 0 0 0-2.18 1.1zm-4.2-6.53a11.98 11.98 0 0 1 3.58-1.96c.18-.06.29.19.12.27l-.88.47c-.87.5-1.69 1.06-2.5 1.66a12.1 12.1 0 0 1 3.25-2.4l.12.28a21.72 21.72 0 0 0-3.69 1.68zm-4.38 1.89c.93-.96 2.02-1.75 3.18-2.4.17-.09.31.14.17.25a29.56 29.56 0 0 0-2.98 2.54 13.32 13.32 0 0 1 2.8-2.77l.16.25a33.82 33.82 0 0 0-3.33 2.13zm.77 2.12 1.6-1.13.51-.38a.15.15 0 0 1 .2.02c.05.06.04.15 0 .2a10.1 10.1 0 0 1-2.02 1.75l.91-.97.89-.99.2.22a8.32 8.32 0 0 1-2.29 1.28zm-4.6-.97a5.54 5.54 0 0 1 2.32-1.57c.17-.06.29.17.13.26l-.56.36a10.46 10.46 0 0 0-1.51 1.31 5.16 5.16 0 0 1 1.9-1.92l.12.28a11.38 11.38 0 0 0-2.4 1.28zm1.58 3.17a4.8 4.8 0 0 1 1.27-1.08l.49-.27c.07-.03.17 0 .2.08.04.06.02.14-.04.18a13.82 13.82 0 0 0-1.53 1.44 5.16 5.16 0 0 1 1.35-1.68l.15.25c-.66.31-1.3.7-1.9 1.08zm-7.37 1.6a37.26 37.26 0 0 0 3.07-.56c.18-.03.26.22.1.29a10.8 10.8 0 0 1-3.11.8c.73-.24 1.53-.5 2.25-.78l.74-.28.1.28a11.04 11.04 0 0 1-3.15.24zm3.02 1.06c.61-.47 1.32-.8 2.07-1.02.25-.07.5-.12.75-.17.09 0 .16.04.18.12.01.08-.03.16-.1.17-.46.17-.9.36-1.34.59-.43.23-.84.5-1.26.76a6.28 6.28 0 0 1 2.49-1.64l.07.3c-.99.16-1.93.48-2.86.9zm2.82 1.4c.31-.62.8-1.15 1.33-1.57.14-.1.32.08.22.2a16.24 16.24 0 0 0-1.08 1.63l.13-.48a5 5 0 0 1 .71-1.32l.22.2a23.28 23.28 0 0 0-1.53 1.33zm5.22 2.74a2.66 2.66 0 0 1 2.14-1.45l.4-.01c.17.01.19.26 0 .3a2.88 2.88 0 0 0-2.07 1.41 2.42 2.42 0 0 1 2.03-1.7l.02.3a3.12 3.12 0 0 0-2.52 1.15zm1.9 2.99a11 11 0 0 1 3.7-1.37c.17-.03.25.23.07.29l-.9.32c-.9.34-1.76.77-2.6 1.23a9.7 9.7 0 0 1 1.61-1.07c.58-.31 1.18-.55 1.79-.77l.07.29a22.3 22.3 0 0 0-3.74 1.08zm6.4-4.12c.65-.76 1.37-1.46 2.1-2.14.07-.06.16-.05.22 0 .05.07.05.14.01.2l-.45.6c-.47.59-.95 1.18-1.48 1.72.25-.44.53-.86.82-1.28.24-.36.61-.86.87-1.22l.22.2a25.37 25.37 0 0 1-2.3 1.92zm5.29-3.74a26.3 26.3 0 0 1 3.62-1.46c.18-.06.28.2.1.27-1.16.55-2.32 1.14-3.5 1.67.54-.37 1.1-.7 1.65-1.04l1.73-.9.1.27c-1.22.41-2.46.83-3.7 1.19zm10.8.97c1.06-.32 2.1-.72 3.1-1.25.06-.03.16 0 .2.06.03.08 0 .15-.05.2a8.18 8.18 0 0 1-3.1 1.5 15.85 15.85 0 0 0 2.92-1.73l.15.25a8.64 8.64 0 0 1-3.21.97zm6.1 1.36a9.8 9.8 0 0 1 3.14-1.67c.18-.06.27.2.1.28l-.76.4c-.76.41-1.48.9-2.18 1.4a9.28 9.28 0 0 1 2.81-2.08l.11.28-.83.28c-.81.32-1.6.7-2.4 1.1zm-5.24 7.79a6.65 6.65 0 0 1 1.67-1.4c.21-.12.42-.24.65-.34.07-.04.16 0 .2.07.04.07.01.14-.05.19a16.08 16.08 0 0 0-2.07 1.86 7.04 7.04 0 0 1 1.9-2.1l.15.25a15.36 15.36 0 0 0-2.45 1.47zm-7.14 4.02a24.72 24.72 0 0 0 4.3-.53c.1-.03.18.03.19.1a.17.17 0 0 1-.1.19 12.8 12.8 0 0 1-4.37.78 24.88 24.88 0 0 0 4.26-1.07l.09.29a13.68 13.68 0 0 1-4.37.24zM75.09 92.73a3.08 3.08 0 0 0-.8-1.19c-.13-.1 0-.32.16-.25.41.17.76.47.97.85.08.12.12.26.17.4-.1-.1-.18-.22-.29-.3-.27-.28-.6-.5-.96-.68l.16-.25c.37.37.64.89.59 1.42zm.97-1.32-1.58-1.85a.16.16 0 0 1 0-.22.16.16 0 0 1 .21 0l1.75 1.67-1.94-1.44.22-.2 1.34 2.04zm1.07-1.1a5.24 5.24 0 0 0-1.02-1.91c-.06-.06-.06-.17.01-.22a.14.14 0 0 1 .18 0c.16.13.32.25.47.4.42.44.73 1 .86 1.58a5.64 5.64 0 0 0-1.5-1.74l.2-.22a3.31 3.31 0 0 1 .8 2.1zm1.25.3a6.75 6.75 0 0 0-.23-2.14c-.06-.24-.16-.46-.23-.69-.06-.16.18-.27.26-.12.56.9.84 1.95.72 3a6.94 6.94 0 0 0-.97-2.83l.27-.14c.36.91.45 1.95.18 2.91zm2.92.09a2.8 2.8 0 0 1 1.43-1.62c.15-.05.4-.25.5-.04.02.08 0 .14-.07.17l-.42.33c-.4.37-.72.84-.93 1.35.03-.38.17-.75.38-1.09a2.76 2.76 0 0 1 .83-.84l.13.26a4 4 0 0 0-1.85 1.48zm40.16 25.02c.14.01.21-.1.3-.2.2-.33.48-.65.55-1.05.18.35-.04.76-.27 1.02-.13.15-.4.4-.58.23z"/>
    </g>
  </g>
</svg>
