<svg xmlns="http://www.w3.org/2000/svg" fill="#d7374a" stroke="#000" viewBox="50 50 200 200">
  <metadata source="http://wappenwiki.org/images/8/82/Tierberg.svg" license="https://creativecommons.org/licenses/by-nc-sa/3.0"/>
  <g id="hindStatant" stroke-width="3" transform="translate(51.3 71.7) scale(0.125)">
    <path class="secondary" d="M219.1 487.4c-8.7 16.1-20.5 14.4-29.3 27.1-3 4.3-3.1 5.3-2.8 5.5a39 39 0 0 0 11.7 2.3s-4.3 6.5-1.5 7.7a51.2 51.2 0 0 0 23.6-1c8.4-2.3 12.9-5.6 14.1-8 1.7-3.2 3.4-8.5 4-14.9.7-6.9-.2-15.4-.2-15.4"/>
    <path d="M288.2 299.1c-.1 5.8-.2 12-3.5 16.8-2.3 3.4-6.3 12.8-9.3 15.6-7.1 6.4-9.8 15.5-11.2 24.9-1.4 9.1 1.8 17.3-.8 26.3-1.6 5.6-3.7 11.1-4.7 16.8-1.2 6.5-.6 13.2-1.2 19.8-.7 8.6-6.1 19.5-7.2 28a30 30 0 0 0 5.5 20c5.1 7.9 6.2 6.8 5.9 13.5-.1 1.7-.2 2.5-1.2 3.9-1.8 2.4-5.4 2.5-8.3 1.7-2.9-.8-5.7-2.2-8.7-2.1-1.3.1-2.7.5-3.4 1.5-.5.7-.9 3.1-1.2 5l-19.7-3.3c6-17.6 13.8-43.8 15.7-69.4 1.6-21.7-5.7-32-2.5-53.6.9-6.1 4.9-15.2 5.9-21.3a91.5 91.5 0 0 0-.3-37.2c-3.4-20.2 4.7-36.4 4.7-43.8"/>
    <g stroke="none" fill="#000">
      <path d="M220.1 495.4a38 38 0 0 1-9.4 14.6c-2 2.1-4 4.1-5.8 6.3a56 56 0 0 0-4.9 6.8l-2.6-1.6c1.6-2.5 3.4-4.9 5.5-7 2-2.1 4.2-4.1 6.3-6a56.7 56.7 0 0 0 10.9-13.1zM255.3 378.9c.2 1.3 0 2.6-.4 3.8a10.6 10.6 0 0 1-4.6 5.8 7.7 7.7 0 0 1-3.6 1.2 39 39 0 0 1 4.1-5.6l2.1-2.6 2.4-2.6zM241.9 466c.5.7.9 1.2 1.1 1.8l.6 1.5c.2.5.3 1 .3 1.6v2.1c-.9-.1-1.6-.5-2.1-1s-.9-1.2-1.1-1.8c-.2-.7-.2-1.4-.1-2.2.3-.8.7-1.5 1.3-2zM265 308.8c.5.9.6 1.8.7 2.8a9 9 0 0 1-1.6 5.3c-.6.8-1.2 1.4-2.1 1.9l.7-2.6.7-2.4.7-2.4.9-2.6zM264.2 324.3c.1 1.3-.1 2.5-.5 3.6a16.1 16.1 0 0 1-3.5 6.4 11 11 0 0 1-2.9 2.3l1.6-3.2 1.7-3 1.7-3 1.9-3.1z"/>
    </g>
    <path d="M235.9-50.4c7.9-5.1 12.7-5.9 21.8-10.2a68 68 0 0 0 32.1-31.2c7.4 3.6 9.9 13 9.2 21.2a53.7 53.7 0 0 1-11.1 27.4c-6 8-13.6 14.6-21.8 20.4"/>
    <path class="secondary" d="M599.5 500.2c-7.5 16.7-19.3 15.9-27.2 29.2-2.7 4.5-2.7 5.5-2.3 5.7 2.6 1.5 11.9 1.5 11.9 1.5s-3.8 6.8-.9 7.8c3.7 1.2 15.3.1 23.4-2.8 8.2-2.9 12.4-6.6 13.5-9 1.4-3.3 2.7-8.7 2.9-15.1.2-7-1.4-15.3-1.4-15.3M285.7 500.2c-7.5 16.7-19.3 15.9-27.2 29.2-2.7 4.5-2.7 5.5-2.3 5.7 2.6 1.5 11.9 1.5 11.9 1.5s-3.8 6.8-.9 7.8c3.7 1.2 15.3.1 23.4-2.8 8.2-2.9 12.4-6.6 13.5-9 1.4-3.3 2.7-8.7 2.9-15.1.2-7-1.4-15.3-1.4-15.3M438.8 487.2c-7.5 16.7-19.3 15.9-27.2 29.2-2.7 4.5-2.7 5.5-2.3 5.7 2.6 1.5 11.9 1.5 11.9 1.5s-3.8 6.8-.9 7.8c3.7 1.2 15.3.1 23.4-2.8 8.2-2.9 12.4-6.6 13.5-9 1.4-3.3 2.7-8.7 2.9-15.1.2-7-1.4-15.3-1.4-15.3"/>
    <path d="M458.7 489c-.2-1.8 2.4-4.3 3.7-4.6 2.3-.5 3.5.4 5.8 2.1 3.5 2.7 8.2 5.4 12.1 3.3 3.7-2 2.2-6.8 2.5-11 1.3-19.3 2.2-17.9 13.1-34.1 3.2-4.8 6.9-11.4 9.5-16.5 4.2-8.1 5.9-7.3 11.3-14.6 6.3-8.6 19.2-13.3 24.4-22.6 5.1-9.1-1.2-11.1-2-21.6-.8-11.5 1.7-13 7.3-23.1 2.1-3.8 4.7-7.5 5.6-11.8 1.5-6.6-1.1-13.3-3.9-19.4-4.8-10.7-10.3-21-16.3-31a15.6 15.6 0 0 0-5-5.8c-1.7-1-24.4-26.1-26.3-26.4-18.3-2.6-30.2 30.2-33 47.2-5.1 29 19.2 42.1 25.1 60.2 10.9 33 2.4 46.5-20.9 90.5-2 3.8-4.2 7.6-7.2 10.7-3.6 3.7-8.1 6.1-12 9.5-3.9 3.3-14.3 12-13.7 17.1l19.9 1.9z"/>
    <path d="M289.3 89.5c1.6-25.6 11.7-60.1 9.9-80.8-.2-34.6-14-47.1-24.2-53.2-11.1-6.7-28.7-9-41.5-8.8-11.4.1-18.9 3-26.9 4.8-4.4 1-5.6.7-9.9 2.1a5.8 5.8 0 0 0-3.7 3.9c-.6 2.1-3.7 3.5-4.7 5.5a19.3 19.3 0 0 1-8.2 8.3c-9.1 4.6-14.5 6.6-25.3 9.6-11.4 3.2-15.6 2.3-25.9 8.3a24.1 24.1 0 0 0-6.2 7.6c-1.3 3-1.5 6-2.4 9.2-.7 2.2-.4 1.2-2 4.7a2 2 0 0 1-.4.6 8 8 0 0 0 0 3.1c1.2 2 1.3 3.1 3.5 3.8-.1-.2 8.2 2.6 10.2 2.7 3.8.4 7.4 1.1 11.1.4 2.3-.4 7.2.3 9.6.4 4.7.2 4.1 1.8 5.4 3.5.3.4.3 1-.1 1.4-.9 1-1.5 1.7-2.9 2.3-3.2 1.4-10 .6-11.6.8-5.1.6-10.7-1-15.3 1.2-.4.2-.8.4-.9.8v.9c2.8 4.7 4.2 1.6 8.2 4.5 3.4 2.6 4.8 1.9 7.5 2.7 3.2 1 6.6.7 9.6-.8 5.9-2.8 4.2-1.9 8.8-2.7 2.1-.3 9.3-2.2 12-2.2 5.8-.1 5.3-.6 10.6.5 4.3.9 5.1 3.5 9.2 5 .3.1 4 3 11.8 6.5 5 2.3 10.4 2.6 10.4 2.6s1.8 3.3 1.3 8.2c-.8 8.9-13.4 33.4-19.7 53a103.7 103.7 0 0 0-2.8 52.2c3.4 13.9 9.8 27.8 16.2 37.3-6.1 21.7.3 43 14.4 60.5 5.6 7 20.8 13.6 27 20 6.5 6.8 15.3 8.6 25 8.6l20.1 6.4c38.7 10.8 95.2 12 133.1 2 20.4-5.3 48.7-18.4 70-18.4 18.1 0 19.3 4.1 19.3 4.1l9.5 16.8c36.9 53.9 69.2 64.2 81.8 87.3 6.2 11.4 4.2 16.3 4.2 29.3 0 40 0 48.6-15 84.2l19.9 1.8c.2-1.8.4-4.3.9-5 .7-1.1 2-1.6 3.3-1.8 3-.3 5.9.9 8.9 1.4 3 .6 6.5.2 8.2-2.3.9-1.5 1-2.3.9-4-.2-6.7-2.9-6.5-6.9-15-8.9-19.2 2.7-44.8 9.3-73.9 2.3-10.3 9.1-22.8 2.7-31.1-6.7-8.7-15.3-4.9-23.6-21.7a105.1 105.1 0 0 1-10.7-37.8c-1.9-18.8 7.8-45.6 6.9-63.7a84 84 0 0 0-6.3-30.2c1.4 3.4 10.5 24.9 23.3 34.7 2.6 2 17 11.6 25.4 6.6 4.4-2.8-1.4-5.9-4-13.2-1.6-4.4-1.5-11.8-6.1-20.7-7-13.5-14.2-15.5-20.2-24.9-4.2-6.6-7.9-12.3-11.7-19a36 36 0 0 0-16.6-16.2c-16.4-9-25.3-11.6-43.4-17.7-17.2-5.8-31-13.8-53.1-13.8-15.8 0-67.5 13.2-104.9 13.2-37.1 0-33-14.1-68.9-12.1-25.7 4.1-46.3 2.4-43.4-44.3z"/>
    <path d="M342.6 296.3c.4 5.8.7 22-2.2 27.1-2 3.6-5.3 13.3-8.2 16.2a45.4 45.4 0 0 0-11.4 26.6c-.7 9.2 3.1 17.1 1.1 26.3-1.2 5.7-2.9 11.3-3.5 17.1-.7 6.6.4 13.2.3 19.8-.1 8.6-4.7 19.9-5.1 28.4a30 30 0 0 0 7 19.5c5.7 7.5 6.6 6.3 6.9 13 .1 1.7 0 2.5-.9 4-1.6 2.5-5.2 2.9-8.2 2.3-3-.6-5.9-1.8-8.9-1.4-1.3.1-2.6.7-3.3 1.8-.5.7-.7 3.2-.9 5l-19.9-1.8c4.6-18 10.5-44.7 10.5-70.4 0-21.7-9.1-31.5-7.4-53.3.5-6.2 3.8-15.5 4.3-21.7 1.2-15.1-5.7-19.6-10-36-2.3-8.7-3.6-26.2-4.1-33.5"/>
    <g stroke="none" fill="#000">
      <path d="M440.5 495.1c-.7 2.8-1.9 5.5-3.3 8.1a58 58 0 0 1-5 7.2c-1.8 2.3-3.7 4.4-5.3 6.7a64.6 64.6 0 0 0-4.4 7.1l-2.7-1.4c1.4-2.6 3.1-5.1 4.9-7.4 1.9-2.3 3.9-4.4 5.8-6.4 2-2.1 3.8-4.2 5.4-6.6 1.7-2.3 3.1-4.8 4.6-7.3zM526.5 379.4a10 10 0 0 1-.8 3.9c-.4 1.2-1 2.3-1.5 3.3s-1 2-1.3 3c-.4 1-.6 2.1-.8 3.5-1-.9-1.6-2.4-1.6-3.8s.4-2.8 1-4c.6-1.2 1.3-2.3 2.1-3.2.9-1 1.8-1.9 2.9-2.7zM513.2 357.4c.2-1.6.6-3 1-4.3l1.5-4a44.9 44.9 0 0 1 4.4-7.5c.2 1.6 0 3.1-.3 4.5a20.7 20.7 0 0 1-3.6 8c-.8 1.2-1.7 2.4-3 3.3zM514.7 342.9c-.6-.6-.8-1.1-1-1.7a3 3 0 0 1-.1-1.6c.1-.5.2-1 .5-1.5s.7-1 1.3-1.4c.6.6.8 1.1 1 1.7.2.5.2 1.1.1 1.6s-.2 1-.5 1.5c-.2.5-.6 1-1.3 1.4zM472.3 471.1l-.7 2.3-.8 1.8a15 15 0 0 1-1 1.7c-.4.6-.8 1.2-1.5 1.9a4 4 0 0 1-.8-2.5 5.2 5.2 0 0 1 2.3-4.4c.7-.6 1.6-.9 2.5-.8zM277.5 285.4v-4c-.1-1.3-.2-2.6-.5-3.9l-1.1-3.9-1.2-3.9 1.9 3.7c.6 1.2 1.3 2.4 1.8 3.7.6 1.3 1 2.7 1.3 4l.8 4.1-3 .2zM341 260.6a51.3 51.3 0 0 1 3.6 17.8c0 3.1-.6 6.2-.8 9-.2 2.9-.1 5.8.3 8.7l-3 .3a36.2 36.2 0 0 1 .9-13.8l.6-4.3c.2-2.9 0-5.9-.3-8.8l-1.3-8.9zM337.5 167.5c1.3.1 2.5.6 3.6 1.3a9.6 9.6 0 0 1 4 6.2 7 7 0 0 1-.3 3.8l-1.9-3-1.7-2.7-1.8-2.7-1.9-2.9zM349.6 179.4c1.9.7 3.6 2 5 3.6 1.3 1.6 2.3 3.5 3 5.4a24 24 0 0 1 1.2 11.9 42 42 0 0 1-2.2-5.5l-1.8-5.4a38.9 38.9 0 0 0-5.2-10zM330.6 215.2c1.9.7 3.5 2 4.9 3.6a16 16 0 0 1 3.6 11.5c-.2 2-.8 4.1-1.9 5.7l-.4-5.7a43.7 43.7 0 0 0-3.2-10.2 93 93 0 0 0-3-4.9zM288.2 208.7l-1.8 4-1.7 3.7-1.6 3.8-1.7 4a10 10 0 0 1-.6-4.5 13.6 13.6 0 0 1 7.4-11zM276.3 258.5c-.1-2-.4-3.8-.7-5.7-.2-1.9-.4-3.8-.2-5.9.2-2.1 1.1-4.2 2.4-5.8.7-.8 1.6-1.5 2.6-2 1-.4 2.1-.6 3.1-.3a7.2 7.2 0 0 0-3.7 3.6 14 14 0 0 0-1.4 4.8l-.4 5.5c-.3 2.1-.7 4.1-1.7 5.8zM497.4 229l4.4 13.8a120 120 0 0 0 5.2 13.4c2 4.4 4.1 8.7 6.3 12.9 2.3 4.2 4.5 8.5 6.9 12.7l-2.6 1.4-6.6-12.9c-2.1-4.4-4.2-8.8-5.9-13.3a139.5 139.5 0 0 1-7.7-28zM601.1 508.2c-.7 2.8-1.9 5.5-3.3 8.1a58 58 0 0 1-5 7.2c-1.8 2.3-3.7 4.4-5.3 6.7a64.6 64.6 0 0 0-4.4 7.1l-2.7-1.4c1.4-2.6 3.1-5.1 4.9-7.4 1.9-2.3 3.9-4.4 5.8-6.4a80.9 80.9 0 0 0 10-13.9zM287.4 508.2c-.7 2.8-1.9 5.5-3.3 8.1a58 58 0 0 1-5 7.2c-1.8 2.3-3.7 4.4-5.3 6.7a64.6 64.6 0 0 0-4.4 7.1l-2.7-1.4c1.4-2.6 3.1-5.1 4.9-7.4 1.9-2.3 3.9-4.4 5.8-6.4 2-2.1 3.8-4.2 5.4-6.6 1.7-2.4 3.1-4.8 4.6-7.3zM346.4 270.5c-.3-1.3-.3-2.7-.2-4a18.3 18.3 0 0 1 2.7-7.5c.7-1.1 1.6-2.1 2.7-3l-1.3 3.7-1.3 3.5-1.3 3.6c-.3 1.2-.8 2.4-1.3 3.7zM630.3 376.8l1.2 3 1.1 2.7 1.2 2.7 1.4 3a6.3 6.3 0 0 1-3.2-1.5 8.4 8.4 0 0 1-2.8-6.4c.1-1.3.4-2.5 1.1-3.5zM308.2 370c1.1.7 2 1.7 2.7 2.7a12 12 0 0 1 1.4 7.3 7.6 7.6 0 0 1-1.4 3.5l-.9-3.5-.7-3.2-.6-3.2-.5-3.6zM306.9 477.2c.6.6 1 1.2 1.3 1.7l.7 1.4.4 1.6.2 2.1c-.9 0-1.6-.4-2.2-.8-.6-.5-1-1.1-1.2-1.8-.3-.7-.3-1.4-.2-2.1.1-.8.4-1.5 1-2.1zM624.2 479.8c.4.8.6 1.5.7 2.2l.1 2c0 .6-.2 1.3-.4 1.9a8 8 0 0 1-1 2.1 4 4 0 0 1-1.3-2c-.2-.7-.3-1.5-.3-2.2.1-.7.2-1.5.6-2.1.4-.7.8-1.4 1.6-1.9zM580.4 216.9c.9-.2 1.8-.1 2.6.3a5 5 0 0 1 2 1.5c.5.7.9 1.4 1.1 2.3.2.8.2 1.7-.3 2.6l-1.8-1.5-1.3-1.5-1.2-1.6c-.4-.6-.8-1.2-1.1-2.1zM583.1 233.8c1 .7 1.7 1.6 2.2 2.6.6.9 1 2 1.3 3a11.3 11.3 0 0 1 0 6.6c-.8-.9-1.3-1.9-1.8-2.8a17.2 17.2 0 0 1-1.7-6c-.1-1.1-.2-2.2 0-3.4zM585.2 257.5c.8.7 1.2 1.3 1.7 2l1 2.1a11.3 11.3 0 0 1 .5 4.8c-.9-.4-1.6-1-2.1-1.7s-.9-1.4-1.2-2.2c-.3-.8-.4-1.6-.4-2.5a4 4 0 0 1 .5-2.5zM324.3 289.5c.7.4 1 .8 1.3 1.3l.3 1.4c0 .5-.2 1-.5 1.4-.3.4-.8.8-1.5 1-.5-.6-.7-1.1-.8-1.5-.1-.4-.2-.8-.1-1.2 0-.4.2-.7.4-1.1.1-.4.4-.8.9-1.3zM319.8 307.3c.3.9.2 1.6.1 2.3a6 6 0 0 1-1.8 3.5c-.5.5-1.1.9-2 1.2-.3-.9-.2-1.6-.1-2.3a6 6 0 0 1 1.8-3.5c.5-.4 1.1-.9 2-1.2zM309.2 309.4c.2.9-.2 1.7-.7 2.4a4 4 0 0 1-2 1.4c-.8.3-1.7.3-2.5.1a3 3 0 0 1-2-1.5l2-.8 1.5-.6 1.6-.4 2.1-.6z"/>
    </g>
    <g>
      <g>
        <path d="M261.7-33.3c13.1-8.9 24.5-9.3 34.4-11.3a67.6 67.6 0 0 0 38.6-22.6c6.3 5.2 5.7 14.4 3.1 22.2-3.2 9.5-10.2 18.4-17.9 24.7S304.5-9.5 295.3-5.8"/>
      </g>
      <g stroke="none" fill="#000">
        <path d="M227 78.9c-.4 2-1 4-1.5 5.9l-1.8 5.6-1.9 5.6c-.7 1.9-1.3 3.7-2.2 5.6a25.7 25.7 0 0 1 1.2-12.2 31 31 0 0 1 2.5-5.6 35 35 0 0 1 3.7-4.9zM229.9 110.9a18 18 0 0 1-.7 9.3 17.4 17.4 0 0 1-4.9 8 34 34 0 0 1 2.2-8.9l1.5-4.2a26 26 0 0 1 1.9-4.2zM212.6 132.3l-.1 5.8.1 5.5.4 5.5.6 5.8a14.8 14.8 0 0 1-2.9-5.2 20.4 20.4 0 0 1 1.9-17.4zM233.9 152.2c.9.9 1.3 1.9 1.6 3 .3 1.1.3 2.3.2 3.4a7.6 7.6 0 0 1-1.1 3.2c-.6 1-1.3 1.9-2.4 2.5l.1-3.2.3-2.9.4-2.8.9-3.2zM264.4 78.3a54.7 54.7 0 0 1 2-8.3l1.4-3.9c.5-1.3 1.1-2.6 1.9-3.9a15.7 15.7 0 0 1-.5 8.7c-.5 1.4-1.1 2.7-1.9 4-.7 1.3-1.7 2.4-2.9 3.4zM215.1 47.1l6.9.3a28 28 0 0 0 13.1-2.4c2.1-.9 4.1-2.1 6.2-3.2a26 26 0 0 1-12.1 7.2c-2.3.6-4.7.9-7.1 1l-7.1.1.1-3zM268-13.9a31.6 31.6 0 0 1 12.9-14.7 90 90 0 0 1 8.7-4.6c3-1.4 6.1-2.5 9.1-3.6l9.1-3.4c3-1.2 5.9-2.5 8.8-4 2.8-1.5 5.6-3.1 8.1-5.1 2.5-2 4.9-4.2 6.5-7.1a20.3 20.3 0 0 1-5.7 7.9 60.2 60.2 0 0 1-16.8 10.2l-4.5 1.9-4.6 1.8c-3 1.2-6.1 2.2-9 3.5-2.9 1.3-5.8 2.7-8.6 4.2a41.5 41.5 0 0 0-14 13z"/>
        <path d="M302.4-23a13.2 13.2 0 0 0 .8-6.7 19 19 0 0 0-1.7-6.3l2.3-.9c.4 1.3.5 2.4.7 3.6a21.6 21.6 0 0 1-.6 7.1c-.4 1.1-1 2.2-1.5 3.2zM288.3-30.7a19 19 0 0 1 1.5 4.6 23.7 23.7 0 0 1-.6 9c-.4 1.4-.8 2.9-1.4 4.2.4-1.4.6-2.9.8-4.3.1-1.5.2-2.9.1-4.4-.1-1.4-.3-2.8-.7-4.2-.4-1.3-1-2.6-1.8-3.7l2.1-1.2zM296-4.5a90.5 90.5 0 0 1-12.7 3.1l-6.4.7c-2.1.2-4.3.3-6.3 1 1.9-1 4.1-1.3 6.2-1.7l6.2-1.4a74 74 0 0 0 11.9-4.4l1.1 2.7zM262.6-32c-1.2.7-2.5 1.4-3.6 2.2a21.6 21.6 0 0 0-6 6c-.8 1.2-1.4 2.5-1.9 3.9.2-1.4.6-2.9 1.2-4.2a24.6 24.6 0 0 1 5.2-7.3l3.4-3 1.7 2.4zM203.9 16l-1.1 3.6-.8 3.3-.5 3.3-.4 3.7a7 7 0 0 1-1.9-3.6 9.4 9.4 0 0 1 1.6-7.9c.7-1 1.8-1.9 3.1-2.4zM167.9 5.3c.3-.4 1-.4 1.5-.2s.9.6 1.2 1c.3.4.5.8.6 1.3l.2.7.1.5.8 4.5c.2 1.5.4 3 .4 4.6V20c0 .8-.1 1.6-.4 2.4-.5-1.5-1.1-2.9-1.5-4.4a73.2 73.2 0 0 1-2.2-9l-.1-.7V6.1c-.1-.2-.2-.5-.6-.8zM134.1-1.8c1.3-.9 3.1-.9 4.6-.4 1.5.5 3 1.3 4.1 2.7.3.4.6.9.7 1.3.2.5.3.9.3 1.4.1.9-.1 1.7-.3 2.5-.4 1.5-1.1 2.6-1.6 4.1-.7-1.4-.7-3.1-.7-4.4 0-1.4-.3-2.4-.8-3a13 13 0 0 0-2.7-2.4c-1-.8-2.1-1.4-3.6-1.8zM137.7 3.8c.1 1-.6 1.9-1.2 2.5-.7.6-1.5 1-2.3 1.3-.8.2-1.7.3-2.6.2-.9-.2-1.8-.5-2.4-1.3l2.2-1.1 2-.7 2-.5c.7-.1 1.4-.1 2.3-.4zM222-24.1c-.9-1-1.8-2-2.8-2.6-1-.6-2-1-3.2-1.2-2.3-.4-4.9-.4-7.4-.5l-1.9-.1-2-.2c-1.3-.2-2.7-.4-4-.9-.7-.3-1.3-.6-1.9-1.1-.6-.5-1-1.2-1.2-2a5 5 0 0 1 0-2.1c.1-.7.4-1.3.7-1.9-.1 1.3-.1 2.7.4 3.7s1.5 1.4 2.6 1.7c1.1.2 2.4.3 3.6.3l1.9-.1 2-.1c2.6-.1 5.3-.1 8.1.9 1.4.5 2.7 1.3 3.6 2.5.8 1 1.2 2.4 1.5 3.7zM229.6-15.5c-1.9.3-3.8.4-5.8.2s-4.1-.8-5.9-2.2l2.2-2.1c.4.6 1 1.2 1.7 1.7a15.8 15.8 0 0 0 7.8 2.4z"/>
      </g>
      <path fill="#f6f6f6" d="M207.8-28.8c2.8-.1 9.5 8.1 11.2 10.3.4.6-5.9 3.9-7.8 4.3-4.7 1.1-8 .3-9.5-1.1a8.6 8.6 0 0 1-3-6.2c-.1-2.8 6.8-7.2 9.1-7.3z"/>
      <g stroke="none" fill="#000">
        <path d="M207.5-28.4c-.7.3-.7.6-1.4.6h-.9l-1 .7-.4.3-.6.7c-.8.9-2.1 1-2.5 2.2.5 2.8 2.6 6.5 5.4 7.2.9.2 1.7-.6 1.5-1.5-.8-3-1.3-7.7-.1-10.2z"/>
        <path d="M189.3-17.6c1.8-1.8 4.1-2.8 6-4a17 17 0 0 0 2.6-2.1l2.4-2.5 2.1 2.2-2.8 2.3c-1 .7-2.1 1.4-3.3 1.9l-3.4 1.2c-1.3.5-2.4.8-3.6 1z"/>
      </g>
    </g>
    <g stroke="none" fill="#000">
      <path d="M208.6 198.9a39 39 0 0 0 1.9-11.6v-6c-.1-2-.2-4-.1-6.1a45.3 45.3 0 0 1 1.1 24.5l-2.9-.8zM611.3 217.3a103 103 0 0 0-3.8-14.5 62.2 62.2 0 0 0-6.9-13.3c3.3 3.9 6.1 8.1 8.3 12.7 2.2 4.6 3.8 9.5 5.3 14.4l-2.9.7zM620 203.5c1.8 2.2 3.6 4.3 5.5 6.1 2 1.9 4.1 3.5 6.4 4.9 2.2 1.4 4.7 2.6 7.1 4.1a15 15 0 0 1 6 6 28 28 0 0 0-7-4.3c-2.5-1.1-5.1-2.2-7.5-3.7a26.7 26.7 0 0 1-6.4-5.7 23.4 23.4 0 0 1-4.1-7.4zM628.8 222.7a98.9 98.9 0 0 1 9.5 9.2c2.9 3.4 5.2 6.9 9.1 9.2a11 11 0 0 1-6.2-2.8 30.4 30.4 0 0 1-4.7-4.8 104.1 104.1 0 0 1-7.7-10.8zM642.3 247.6c1.2.3 2.2.7 3.2 1.1l3 .9 3 .8 3.3.9c-1 .7-2.2 1-3.4 1.1a11 11 0 0 1-3.6-.4 8.8 8.8 0 0 1-3.2-1.6c-1-.7-1.8-1.6-2.3-2.8z"/>
    </g>
  </g>
</svg>
