<svg xmlns="http://www.w3.org/2000/svg" fill="#d7374a" stroke="#000" viewBox="50 50 200 200">
  <metadata source="http://wappenwiki.org" license="https://creativecommons.org/licenses/by-nc-sa/3.0"/>
  <g id="horseRampant" stroke-width=".32">
    <path d="M72.6 85.38c.03.37.12 1.16-.5 1.68-.8.73-4.67 2.63-6.43 1.2-.49-.37 1.46-1.86 1.76-3.95.17-.77 2.64.04 2.64.04s2.53.74 2.53 1.03zM110.2 142c.07.37.26 1.13-.3 1.73-.7.81-4.33 3.14-6.26 1.93-.53-.31 1.24-2.03 1.3-4.12.08-.8 2.63-.27 2.63-.27s2.6.44 2.63.74z"/>
    <path d="M95.44 87.13c-.53-.9-1.98-.88-2.73-1.23-.49-.44-.9-.6-1.44-1-.82-.58-3.36-3.2-4.23-4.59-1.28-1.71-1.38-2.58-2.47-3.09-.35-.16-.82.17-1.84.36-.6.12-1.49-.1-1.91.1-1.14.5-1.48.95-2.78 1.4-.82.27-1.82.36-2.65.25s-2.82.23-3.93 1.92c-.57.78-.85 1-1.6 1.4-.75.42-2.31.98-2.48 1.65 2-.07 5.26 1.39 5.26 1.39s.6-.15.63-.42c.07-.7-.82-.85-.53-1.22.3-.34.48-.64.97-.65.74 0 .68.88 1.36.77.41-.07.46-.1.67-.35.31-.52-.46-1.5.56-1.74.27-.15 1.3-.1 2.45-.44 1.36-.34 2.05-.87 2.55-.84.63.44 1.65.24 1.94.37.98.43 1.06 2.86 1.51 5.03.26 1.22 1.63 3.1 2.54 4.28.78 1 .17 1.3 2.74 2.72 1.22.66 3.21.16 4.35-.62a4.07 4.07 0 001.06-5.45zm-1.1-23.37a5.89 5.89 0 01-1.32-3.87c1.34 1.67 2.85 1.92 4.1 2.8"/>
    <path d="M93.74 64.16c.02 0-.37-.34-.96-.41-.76-.04-.76.71-1.75.67-.64-.02-.92-.99-1.4-1.56-.35-.44-.88-.53-.8-.57 1.43-.49 1.64.9 2.33.93.7.02.18-.63.87-1.1s1.08 0 1.62 0c.08-.15 1.53-1.7 2.27-1.07l2.82-.38s.44-.82 1.38-.79c.95.03 1.22 1.04 1.7 1.05.03.01.2-.57.65-1 .46-.41 1.14.16 1.51-.5.38-.65-.7-1.24-.64-1.28.09-.23 1.7.3 1.65 1.26-.03.88-.35 1.14-.4 1.14.12.1 1.22-.33 2.11.12.92.45 1.13 1.48 1.7 1.5.88 0 .58-1.2.67-1.23.08-.02.54.41.52.95-.02.58-.52 1.34-1.27 1.3-.78-.02-1.34-.32-1.4-.34.04.11.55.39.97.48.48.1 1.16.29 1.63.61.72.51 1.02 1.84 1.55 1.86.36 0 .52-.23.53-.58 0-.56-.51-.7-.47-.85.05-.17 1.62.4 1.58 1.63a1.98 1.98 0 01-1.27 1.84l.46.15c2.3.97 1.27 3.03 1.42 3.6.02.06.16.26.6.28.66.02.31-1 .41-1.1.1-.09.75.33.72 1-.04 1.13-1.14 1.3-1.24 1.3 0 .16.45.99 1.05 1.01.17.01.48-.34.95-.3.47 0 .72.57.68.64-.05.08-.37-.12-.64-.05-.36.1-.38.62-1 .84s-1.26 0-1.26 0 .61.53.73 1.17c.14.69-.06.87.07 1.37.18.66.5 1.63.26 2.76-.23 1.12-.88 1.49-.92 1.42-.05-.07.13-1.19-.76-2.06.25 1.6-.75 2.85-1.38 3.14 0 0-.79.4-1.86.23-.15-.04-.16-.17-.1-.25.05-.2-2.67-1.02-2.35-2.37.53-2.36 3.34-6.59.7-11.42-2.61-4.66-4.87-4.96-7.65-5.38l-3.52.1c-1.4.2-2.49-.52-3.06.24zm-7.62 65.45c0 .37.07 1.14-.55 1.64-.83.72-4.76 2.45-6.48.97-.48-.4 1.52-1.8 1.9-3.88.2-.77 2.64.13 2.64.13s2.5.84 2.49 1.14z"/>
    <path d="M107.98 111.4c-4.14.28-4.84-.59-6.94-.37-4.1.27-5.44 1.52-6.23 2.73-.25.4-.58 2.7-.1 3.82-.76 2.93 3.13 4.6 2.28 5.54-.44.46-2.04.96-3.4.82-2.14-.25-3.32-.51-4.01-.97-1.46-.9-1.92.75-3.24 2.1a14.5 14.5 0 01-2.9 1.7c-.76.4-2.33.9-2.51 1.56 2 0 5.19 1.59 5.19 1.59s.6-.14.64-.41c.1-.7-.77-.87-.48-1.24.3-.32.47-.63.95-.57.74.13.7.82 1.39.82.4 0 .2-.05.44-.25.39-.42-.05-1.12 1-1.91.21-.23.35-.06 1.56.14 1.16.2 2.96-.06 3.36.2.59.39 1.05.77 1.68 1 1.62.46 2.47-.26 2.9-.16.76.66 1.74.68 2.48-.14.67-.79-.14-1.3-.06-3.15.07-1.22-1-1.86-.1-2.95.48-.7 5-.8 7.19-3.57.36-.44.87-.93 1.22-1.37.26-.32.5-.64.67-1.03.2-.51.24-1.06.22-1.61a3.37 3.37 0 00-.52-1.92c-.58-.78-1.7-.46-2.68-.4z"/>
    <path d="M92.82 101.35c.76 2.67 5.87 6.44 10.42 7.56 2.6.87 4.76 2.01 5.59 3.73-.29 1.17-.72 2.3-.93 3.5-.2 1.19-.14 3.36.53 4.36a6.73 6.73 0 002.52 3.65c2.67 2.3 5.07 3.96 5.07 5.23-.02 1.14-.5 3.06-1.4 4.08-1.43 1.59-2.35 2.41-3.11 2.72s-1.6-.03-2.78 1.63c-.59.75-.9 1.29-1.59 1.78s-2.2 1.23-2.26 1.92c1.98-.3 5.36.77 5.36.77s.58-.23.58-.5c0-.7-.9-.74-.66-1.14.26-.37.36-.7.86-.7.74.02.81.69 1.49.6.4-.07.58-.25.78-.5.34-.52-.59-.97.34-1.9.17-.27 1.08-.73 1.94-1.6.82-.83 1.32-2 1.8-2.18.65-.26 1.29-.5 1.85-.88 1.32-1.06 1.25-2.05 1.66-2.28 1 .01 1.75-.62 1.77-1.73-.03-.8-1.45-1.43-2.25-2.6-.77-1.18-2.5-3.66-2.5-4.18 0-.22 1.94-2.64 2.8-4.59.87-1.95 1.13-5.76.75-7.98.23.2 1.02.2 1.22.13-.16-.35-.84-.54-.98-1.08 0 0 .68.3.98-.1-.55-.3-1.55-1.77-1.88-2.68-.57-1.34-2.14-2.81-3.5-3.69-1.28-.83-6.9-4.38-7.73-8.87-.92-5.79 1.75-9.25 2.04-10.86 0 0-.79.4-1.86.23-.15-.04-.16-.17-.1-.26.04-.2 1.02-.4 1.24-1.4.05-.2.06-.4.05-.6-.02-.2-.05-.4-.05-.59 0-.54.09-.91.48-1.3-.48.23-.69-.13-1.14-.1-.35.06-.62.28-.78.59-.23-.41-.1-1.16.17-1.53.16-.22.37-.41.56-.6.97-1.02 1.17-2.18.84-3.78a17.68 17.68 0 00-1.68-4.48c-2.6-4.64-6.18-6.28-8.97-6.7a4.34 4.34 0 00-1.63-1.83h0s-2.51-1.37-3.35-2.78a5.63 5.63 0 00.53 3.16v.02c.26.5.72 1.22.91 1.53a4.7 4.7 0 00-3.1 1.59c-.48 1.12-1.11 1.15-1.63 1.8-.48.6-.14 1.4-1.04 2.21-.94.83-1.77 1.52-2.84 2.47s-.99.83-1.2 1c-.61.46-1.11.47-1.42 1.01-.3.48.04 1.25.04 1.82-.01.58-.14.92-.06 1.5.05.3.08.57.29.85a1 1 0 001.06.37c.83-.22 1.45-1.45 2.4-1.73.16-.05.3-.06.4 0 .1.09.11.25-.07.5s-.44.35-.99.73c-.6.41-.95.79-1.02 1.02-.02.13-.03.32.15.43.22.12.51-.15.51-.15s.2-.14.51-.03c.2.06.73.08 1.02-.14.4-.3.3-.59.73-1.04.4-.37 1.04-.63 1.63-.88 1.89-.72 2.7-.83 2.7-.83a5.44 5.44 0 004.47-.87s.64 1.25.64 2.45c0 2.1-.9 3.21-2.04 4.3-1.85 1.78-3.24 2.01-4.9 3.67-.63.63-.79 1.48-.91 1.63-.41.4-1.3.45-1.73 1.2-.77 1.4-.5 1.64-.78 2.57h0c-.33.47-.52.88-.63 1.24-1.33-.18-3.68-.48-4.82-1.23-1.87-1-1.52-1.55-2.72-1.76-.38-.06-.2-.12-1.21.15-.6.16-1.48.03-1.9.26-1.1.6-1.25.57-2.52 1.07-.82.31-2.03.48-2.86.4-.81-.06-2.03-.25-3.34 1.3-.67.7-1.01 1.2-1.76 1.62-.74.44-2.28 1.04-2.42 1.72 2-.14 5.28 1.24 5.28 1.24s.6-.17.62-.45c.07-.68-.83-.81-.56-1.2.3-.35.3-.58.8-.54.72.08.57.96 1.26.93.4-.02.47-.03.7-.27.38-.49-.54-1.37.47-1.65.27-.15 1.29-.16 2.44-.55 1.33-.41 2.1-.5 2.6-.51a8.1 8.1 0 002.13.63c1.04.16 2.07 2.13 3.39 3.9.76 1.03 2.77 2.15 4.11 2.82 1.12.56.61.6 1.73 1.16.29.15.44 0 .86.08.43.08.35-.24.51-.27.04 0 .24.08.51.2.23.37.41.7.51 1.06"/>
    <path d="M70.73 95.74c.03.36.15 1.14-.45 1.68-.79.75-4.59 2.75-6.4 1.37-.5-.36 1.41-1.9 1.66-3.98.14-.79 2.63-.04 2.63-.04s2.56.66 2.56.97z"/>
    <path fill="none" d="M89.03 91.27c.6.12 1.6.22 2.18.48m1.11 8.57l1.88.38m5.18-26.5c.35-.21.71-.6 1.05-1.47.2-.58.32-1.67.29-2.22"/>
    <path fill="#f6f6f6" d="M93.85 67.26c.72.22 1.46.78 1.46.78s-.78.69-1.36.61c-.71-.13-.88-.43-.88-.43s.1-.34.28-.6c.16-.23.41-.4.5-.37z"/>
    <path d="M75.68 81.55c-.15.22-.31.62-.26.92.06.35.4.6.46.97.08.6-.02 1.13 0 1.46.06.5.74.84.74.84-.91.27-1.3-.3-1.45-.64-.3-.62-.7-1.46-1.33-1.74-.33-.16-.72-.28-.92-.55m.58 9.46c-.15.21-.32.6-.27.9.07.36.4.62.46.98.09.6-.02 1.13 0 1.47.07.48.74.83.74.83-.9.27-1.28-.3-1.45-.64-.3-.62-.7-1.46-1.32-1.74-.33-.16-.74-.27-.92-.55"/>
    <path d="M132.07 104.19c-.39 1.14 0 2.02-1.38 3.54.55 1.1-.04 1.63.5 2.18.38 1.49-1.11 1.36-.48 3.02.16 0 .98-.24 1.3-.83.27.07 1.06-.15 1.44-.64.29-.15.4-.81 1.02-1.35s1.61-.76 2.25-.24a1.54 1.54 0 01.54 1c.44-.98-.25-2.23-1.27-2.55-1.03-.32-2.2.18-2.83 1.06a6.42 6.42 0 00.6-4.46 1.85 1.85 0 01.19-1.51c.2-.4.6-.73 1.05-.76.34-.02 1.03.1 1.25.7.2-.37.05-.77-.15-1.04-.32-.43-1.07-.63-1.6-.6-.7.05-1.35.4-1.77.94-.33.46-.5 1-.66 1.54z"/>
    <path d="M132.47 100.5c-1.91 2.28-.53 3.72-2 6.3-1.05-.9-.25-1.17-1.03-2.12-.26-.83-.5-.92-.72-1.22-.47-.67-.36-1.56-.06-2.53.48-1.6 1.34-2.09 2.25-2.4 1.2-.43 2.21-.42 3.42-.55 1.07-.12 2.1-.27 2.5-1.44.18-.52.14-1.1-.12-1.58a2.29 2.29 0 01.08 3.44 4.58 4.58 0 01-1.49.78c-1.03.36-2.04.5-2.83 1.32zm-6.53-4.1c.02 1.36 1.12 1.2 1.12 1.2.08.2-.2.99 0 1 .58.28 1.28 0 1.91-.42a5.4 5.4 0 012.13-.9c.96-.3 1.97-.45 2.87-.9 1.33-.64 2.39-1.63 2.2-3.03 0 0 1.22-1.1.83-2.49 0 0 .42-1.63 1.91-.98.82.35 1.17 1.42.8 2.24a2.26 2.26 0 00.46-3.33 2.28 2.28 0 00-2.04-.94c-1.02.05-1.72.72-2.35 1.48-.28.33-.53.7-.8 1.02a7.66 7.66 0 01-3.84 2.33c.36-.11 2.52-1.28 2.9-3.2a4.59 4.59 0 01-1.59 1.4c-.75.36-1.37.4-2.09.72a10.65 10.65 0 00-3.47 2.4 3.88 3.88 0 00-.95 2.4z"/>
    <path d="M124.67 113.86c-2.16-1.17-2.4-2.8-3.05-3.56l-.66-3.73c.5.81 3.14 5.29 5.82 5.29 1.37 0 2.32-.62 2.32-2.06 0-3.33-4.42-4.39-4.42-9.93a6.3 6.3 0 011.25-3.47c.02 1.36 1.12 1.2 1.12 1.2.08.2-.21.99 0 1 .58.28 1.28 0 1.91-.42-.33.9-1.65 1.36-1.65 2.56 0 1.45 1.06 2.3 1.4 2.71.21.3.46.39.72 1.22.78.95-.03 1.22 1.03 2.13.12.34.32.57.23.92.55 1.1.01 1.5.5 2.18.38 1.49-1.11 1.35-.48 3.02-.46.92-2.55 2.3-4.18 1.72-.08.27-.2.53-.36.76-.44.63-1.11.82-1.84.6.87-.63 1.17-1.58.34-2.14z"/>
    <g fill="#000" stroke="none">
      <path d="M97.56 125.67c-1.79-.49-3.89.35-5.52-.72 1.14.46 3.5.03 5.1.49.17 0 .25.24.42.23zm-9.9 1.4c-.23.6-2.22 1.04-1.4.47.42-.26.93-.3 1.4-.47zm20.98-11.34c-1.04 1.65-3.13.94-4.69 1.4 1.44-.93 3.39-.13 4.7-1.4zm-7.44 10.1c-.04-.62.66-1.05 1.22-.9-.41.3-.86.54-1.22.9zm.2-5.02c.24-.95 1.43-3.67.87-1.37a3 3 0 01-.87 1.37zM86.97 83.27c1.1 2.33 1.72 4.97 3.65 6.81.53.54 1.03.89.02.22-2.3-1.66-2.94-4.48-3.67-7.03zm-1.39-3.09c-.62.48-1.54.3-2.18-.05.73-.08 1.45.09 2.18.05zm-3.22-.07c-1.28 1.13-3.08.89-4.64 1.14 1.45-.7 3.2-.4 4.64-1.14zm-7.67 2.73c-.25.56-1.6.94-1.62.72.44-.43 1.08-.49 1.62-.72zm19.61 3.49c-.73.6-1.79 3.6-1.27 1.65.3-.4.6-2.03 1.26-1.65zm25.16 48.2c-1.85.93-3.4 2.41-5.33 3.19 1.8-1.03 3.34-2.47 5.16-3.48zm-7.47 4.92c-.06.6-2.15 1.43-1.27.67.37-.3.87-.45 1.27-.67zm4.78-16.43c1.84.62 1.64 2.82 2.48 4.22-1.25-1.16-.92-3.26-2.48-4.22zm5.07 5.21c.86-.23 1.07 2.05.51.81-.13-.29-.3-.56-.5-.8zm-1.54-5.85c-.8 1.44-1.03.57-.13-.08zm-8.49-14.92c1.1.55.04 1.06 0 0zm1.22-.66c1 .88.23 2.22.04.4zm9.1 7.18c.08 1.46-3.43 2.94-.97 1.1.34-.35.82-.6.98-1.1zm-1.07 2.67c.58.62-1.3 1.34-.63.67.23-.2.5-.38.63-.67zm-.77 1.78c.46.48-.66 1-.15.14l.11-.1zm-15.97-10.9c.94.14 3.69-1.96 3.22-1.27-.8.9-2.03 1.37-3.22 1.28zm-1.96-1.52c1.05-.17 3.98-1.51 1.77-.2a2.5 2.5 0 01-1.77.2zm-1.67-.94c.75-.27 2.3-1.18 2.45-1a3.1 3.1 0 01-2.45 1zm-.98-1.55c.7-.49 2.56-.61.95-.02-.3.09-.64.12-.95.02zm-1.03-1.11c.7-.47 1.4.23.33.17a.68.68 0 01-.33-.17zm11.98 10.2c.8-.84-.16-5.2.47-2.2-.06.39.29 2.59-.47 2.2zM92.2 75.27c.75.17-.3 1.6.06.28 0-.1-.05-.18-.06-.28zm-4.06-.86c.13-.62 1.16-.9.55-1.61-.33-.37-.91.4-.32-.33.77-.35 1.2 1.33.35 1.5l-.31.18z" transform="translate(-2)"/>
      <path d="M88.63 72.99c-.07.26-.3.44-.43.67-.09.1-.22.43-.26.28-.02-.39.26-.7.58-.88.04-.02.07-.06.11-.07zm4.88-3.22a7.14 7.14 0 01-2.05 2.1l-.5.39c.2-.42.52-.75.85-1.06.31-.31.66-.59 1-.87l.7-.56zm9.04.74c.02-.17 0-.34 0-.5-.04-.44-.07-.88-.23-1.29a.67.67 0 00-.08-.15 3.12 3.12 0 01.43.96c.06.23.12.46.16.7.01.08.06.26.04.33-.1 0-.21.03-.32.03zm-4.65-2.38c-.05.28-.66.15-.66 0 .07-.26.2-.22.38-.07.08.05.17.1.27.07zm-1.86 6.38c.23.25.58.37.91.4.03.46-.34.2-.57.02a.93.93 0 01-.34-.42zm-4.16.43c-.33.02-.67-.01-1-.05.26-.25.76-.19 1 .05zm3.3-6.64c-.14.19-.28.41-.5.52 0-.25.14-.47.22-.7l.29.18zm-2.56 5c.3-.33.62.25.14.1-.06-.01-.09-.09-.14-.1zm.52-.29c.27-.32.51.27.08.08l-.08-.08zm.52-.17c.18-.31.4.22.07.08l-.07-.08zm.5-.13c.24-.34.25.35.03.04l-.02-.03zm-5.25 2.98c.01-.37.63-.07.19.02-.07 0-.13.02-.2-.02zm.38-.37c.06-.44.43.11.07.03 0 0-.1-.07-.07-.03zm.4-.24c-.03-.33.4 0 .08.05l-.03-.03zm5.76-4c-.14-.3.42-.3.16-.03-.04.04-.1.03-.16.02zm.22-.49c-.12-.4.44.02.02 0h-.01zm.05 2.29c-.45-.24.41-.3 0 0zm-.36-1.3c-.22-.35.43-.22.06-.02 0 .01-.1-.01-.06.01zm0 .46c-.26-.37.43-.18 0 0zm.13.45c-.26-.23.27-.4.12-.07-.02.04-.07.06-.12.07zm-5.24 5.38c.38-.1.58-.5.94-.62-.3.22-.36.62-.69.82-.13.23-.17-.14-.25-.2zm-.88-4.6c-.13-.29-.23-.62-.46-.85.4-.06.67.53.46.86zm7.27-6.01c.34-.3.98.65.39.29-.15-.08-.25-.21-.4-.3zm.84-1.7c-.52.07-1.05.04-1.57-.06.44-.33 1.16-.3 1.57.05z" transform="translate(-2)"/>
      <path d="M97.3 67.24c-.25-.07-.5-.15-.76-.15-.2 0-.4.09-.57.2-.11.06-.23.11-.36.14a.8.8 0 01-.46-.05c-.2-.09-.36-.33-.3-.55 0-.05.1-.2.07-.08-.01.17.12.35.3.38.12.01.25.02.36-.04.2-.1.38-.22.6-.27a.91.91 0 01.63.07c.18.08.34.2.48.35z" transform="translate(-2)"/>
      <path d="M96.05 67.33c.04.5.04 1.55-.57.64-.05-.17-.1-.36 0-.52m.78 1.6c-.22.41-1.28-.15-.82-.16.27.08.54.12.82.16zm-2.17 6.3c-.53.41-1.1.76-1.68 1.13.36-.6 1.02-.97 1.68-1.13zm10.7-8.93a11.33 11.33 0 015.41 10.48c.03.46-.35 2.48-.19 1.11.38-4.28-1.49-8.7-4.91-11.34l-.27-.22zm-4.46-1.39c.5.16 1.4.93.4.6-.23-.1-.43-.34-.4-.6zm3.02 8.96c.94.81 1.24 2.25.72 3.38a6.7 6.7 0 00-.72-3.38zm12.25 1.39c-.38.03-1.24-.9-.42-.37.36.08.51-.1.42.37zm-.74 4.6c-.42-.25-.8-1.88-.27-.78.11.36.82.5.27.79zm-1.34-12c-.24.2-1.22-.17-.85-.14.37.2.74-.45.85.13zm2.35 5.22c-.52.06-1.07-.2-1.3-.7.26.44.88.43 1.23.47l.07.23zm-9.14-12.67c-.09.25-.98.6-.5.1.43-.44-.09.08.5-.1zm.4 2.22c.5-.43 1.46-.4 1.85 0-.28.5-1.3-.64-1.86 0zm-3.5-1.24c-.22-.52.5-.85.16-.3-.08.08-.11.22-.17.3zm-4.67.96a11.42 11.42 0 001.12 1.43 9.17 9.17 0 01-1.38-1.22zm3.83 1.12a5.92 5.92 0 00-.57-1.04l.3-.14c.11.38.2.78.27 1.16zm-6.16-.98a1.84 1.84 0 00-.5-.23 1.72 1.72 0 00-.51-.08l.05-.33c.2.06.38.16.54.26.15.1.3.23.4.38zm17.5 10.82a2.9 2.9 0 01-.5-1.25l-.1-.65a5.92 5.92 0 00-.12-.64c-.1-.41-.27-.8-.55-1.11-.14-.17-.3-.31-.46-.45a4.8 4.8 0 00-.53-.39c.41.11.83.34 1.17.65a2.37 2.37 0 01.66 1.22c.12.45.13.9.17 1.32.06.46.12.88.27 1.3zm-2.6-7.1a.4.4 0 01-.27-.01c-.09-.03-.16-.08-.24-.12a2.83 2.83 0 01-.4-.37c-.25-.25-.49-.51-.74-.7-.14-.1-.27-.18-.42-.23-.15-.06-.32-.1-.48-.15l-1.03-.22a3.9 3.9 0 011.61.08l.26.1.24.16c.3.22.52.51.75.8l.3.4c.13.13.24.24.43.26zm-4.32-4.38l-.5.17c-.17.05-.32.12-.48.18-.17.06-.32.14-.5.2l-.26.1-.14.04h-.08l-.08-.01c.03 0 .05 0 .06-.02l.06-.04.1-.1.2-.18a1.99 1.99 0 011.04-.43c.2 0 .41.01.58.1zm-2.14-1.06c.1.12.15.3.1.46a.86.86 0 01-.28.39c-.1.1-.22.16-.32.24a1 1 0 00-.26.3c-.06-.14-.02-.33.07-.46.08-.14.2-.24.3-.33.1-.09.18-.16.24-.25.08-.07.12-.2.15-.35zm10.49 17.31a1.84 1.84 0 01-.51-.6c-.13-.23-.2-.5-.27-.72a3.13 3.13 0 00-.28-.67c-.12-.2-.28-.4-.41-.64a2.04 2.04 0 011 1.2c.08.27.11.51.2.74.06.22.17.46.27.7zm-2.3.77c.22-.19.37-.5.46-.8a4.08 4.08 0 00.1-1.02c.06.35.1.68.07 1.04a1.83 1.83 0 01-.41 1.02zm-17.39-15.8c-.25-.01-.5-.05-.73-.06a1.73 1.73 0 00-.64.06.5.5 0 00-.24.17l-.2.29-.14.15-.18.12a.57.57 0 01-.4-.03.73.73 0 00.32-.11.65.65 0 00.17-.27c.06-.1.1-.23.2-.33l.15-.17a1.02 1.02 0 01.2-.12c.14-.06.28-.08.42-.08a2.12 2.12 0 011.07.39zm1.65-4.8a2.55 2.55 0 00.9 1.37l.64.55a6.57 6.57 0 011.19 1.28 5.08 5.08 0 01.74 2.47 8.64 8.64 0 00-.57-1.59 5.3 5.3 0 00-.97-1.35c-.37-.41-.81-.77-1.22-1.19-.2-.2-.38-.45-.51-.71a1.84 1.84 0 01-.2-.84zm16.53 21.62v.58c.02.18.03.39 0 .58 0 .41-.17.8-.45 1.1l.08-.58.05-.54c.01-.18.02-.39.07-.58.03-.2.1-.41.25-.56zm-14.38 20.33c-.73.62-1.8.6-2.71.62-.28.1-1.34-.16-.71-.39a6.2 6.2 0 003.31-.15l.1-.08zm-6.53-8.74c.79-.37 1.7-.8 2.5-.81.9-.03 1.6-.7 2.48-.8 1.15-.29 2.09.62 3.1.95-1.06-.22-2.04-1.11-3.19-.77-.9.25-1.64.98-2.62.91-.76.13-1.45.49-2.13.82l-.14-.3zm.8.92c.53.44.52 1.2.63 1.82-.55-.45-.48-1.2-.63-1.82zm-7.69 1.77c1.18.93 2.2 2.08 3.44 2.94.83.47 1.7.88 2.57 1.25-1.53-.27-3-.95-4.1-2.07-.68-.66-1.3-1.4-1.9-2.12zm5.64 4.94c.48-.11.96.3 1.4-.1.4-.27 1.79.08.73.11-.48.02-.85.45-1.33.41-.3-.07-.46-.41-.8-.42zM84 91.6a3.7 3.7 0 01-2.3-.21c-.32-.1-.65-.98-.18-.4.58.35 1.3.28 1.92.5l.56.11z" transform="translate(-2)"/>
      <path d="M93.38 93.53l.04-.23v-.23c0-.15 0-.3-.02-.46a1.73 1.73 0 00-.2-.62l-.05-.09-.05-.06.24-.2c.03.05.06.08.07.12l.04.12.07.24a2.5 2.5 0 010 .96l-.07.24zm-12.35-1.59c-.44-.1-.92-.16-1.38-.2a15.5 15.5 0 00-2.84.04c-.46.06-.93.13-1.38.28.44-.18.9-.28 1.38-.36a15.27 15.27 0 014.28-.09zm-8.28 1.26a.7.7 0 01-.34.38c-.14.1-.3.18-.44.24l-.46.15c-.15.04-.3.07-.45.15a.51.51 0 01.14-.22l.2-.16c.14-.1.29-.17.43-.23.15-.07.3-.1.45-.15l.47-.16zm26.53-7.98a2.76 2.76 0 01.78-.33l.41-.08c.15-.02.29-.04.44-.04-.1.12-.23.2-.35.28a2 2 0 01-.4.16 1.57 1.57 0 01-.88 0zm4.03.4l.27-.1.26-.05.25-.03h.3a.6.6 0 01-.2.24.89.89 0 01-.31.12c-.1.02-.2.01-.3 0a.61.61 0 01-.27-.17zm4.18 7.51c.08.16.1.34.1.5a1.39 1.39 0 01-.4.92c-.12.11-.26.22-.42.27l.22-.42.18-.4.17-.4zm-1.89 4.05c.07.08.08.19.08.3 0 .1-.04.2-.1.3-.12.19-.3.31-.5.4-.21.09-.4.12-.58.18a1.9 1.9 0 00-.49.2c-.3.18-.58.46-.92.68a1.94 1.94 0 01-.53.29c-.2.07-.4.1-.6.07.4-.08.69-.3.97-.55.28-.24.55-.54.92-.76.16-.1.38-.19.57-.23.2-.05.38-.07.56-.12a1.02 1.02 0 00.46-.26c.06-.06.1-.13.13-.21.05-.1.07-.2.03-.29zm-8.66 1.05a.51.51 0 01.2-.3c.1-.06.24-.1.35-.12.25-.04.48-.03.69-.03h1.32c-.2.13-.41.2-.65.24a2.5 2.5 0 01-.67.08c-.24 0-.45-.03-.66-.04-.2 0-.4 0-.58.17zm1.83-2l.24-.06c.08 0 .14-.02.2-.03h.46a.38.38 0 01-.16.24.46.46 0 01-.26.1c-.1 0-.19 0-.28-.05a.37.37 0 01-.2-.2zM76.45 82.02c0 .2.1.39.22.55l.42.45c.22.3.38.65.36 1.02-.01.07-.03.26-.06-.01-.1-.3-.26-.6-.46-.84-.17-.2-.35-.4-.44-.65-.06-.16-.13-.36-.04-.52zm-.72.38l.22.24c.04.06.1.11.11.18l.04.1c-.26.03-.53-.28-.37-.53zm-1.46 10.34c-.01.2.1.38.22.54l.45.52c.18.22.29.5.32.78 0 .1 0 .2-.02.29-.1-.47-.4-.86-.7-1.22a1.25 1.25 0 01-.32-.74.4.4 0 01.05-.17zm-.74.37l.23.24.16.28c-.25.02-.52-.26-.39-.52z" transform="translate(-2)"/>
      <path d="M135.33 109.46l-.48.87a3.87 3.87 0 01-.6.8 3.63 3.63 0 00.44-.88l.33-.92.31.13zm-.55-10.23a4.46 4.46 0 00-1.44.84 4.57 4.57 0 00-.96 1.37 4.12 4.12 0 00-.48 1.58c-.07.56-.11 1.16-.3 1.72a.17.17 0 01-.2.1.18.18 0 01-.12-.2c.08-.26.15-.54.18-.81l.1-.85a4.95 4.95 0 01.56-1.69c.27-.51.63-1 1.07-1.4a2.82 2.82 0 011.6-.7l.01.01-.02.03zm.2 4.8a1.54 1.54 0 00-.14.7c0 .24.03.47.06.71.07.49.1.98.06 1.49-.03.5-.16.99-.35 1.45-.2.46-.49.88-.86 1.2a5.6 5.6 0 00.89-2.68c.04-.48.04-.95.04-1.45 0-.24 0-.5.03-.73.03-.24.12-.5.27-.69zm-3.5 7.47a3.32 3.32 0 01-.71.9 3.17 3.17 0 01-2.14.85 2.2 2.2 0 01-1.1-.34 3.41 3.41 0 002.14-.18c.33-.14.64-.32.94-.53.3-.22.58-.45.87-.7zm-2.19 2.14c.28-.1.54-.2.8-.34a5.92 5.92 0 001.38-.93l.62-.62a2.5 2.5 0 01-.42.8 3.52 3.52 0 01-.66.6 3.25 3.25 0 01-.82.4c-.3.08-.6.13-.9.1zm9-20.17a6.08 6.08 0 01-1.36 1.02c-.18.1-.35.16-.55.19-.39.08-.75.08-1.12.09l-.55-.01h-.54c-.73.02-1.45.13-2.13.37a5.32 5.32 0 00-1.86 1.11A5.2 5.2 0 01132 95a6.36 6.36 0 012.17-.45l.55-.01.55-.01c.36-.03.72-.05 1.06-.13.33-.07.64-.25.93-.46.29-.2.56-.45.8-.7.06-.07.16-.08.22-.01.07.06.07.16 0 .24.01 0 0 0 0 0zm-4.72-.06c.44-.3 1-.44 1.51-.5.53-.05 1.06-.1 1.57-.19a2.53 2.53 0 00.73-.2c.22-.12.42-.27.6-.45.36-.36.64-.8.86-1.26.05-.08.15-.13.22-.08.08.04.13.14.08.22a4.6 4.6 0 01-.96 1.33 2.58 2.58 0 01-.89.55l-.2.06-.41.06c-.53.07-1.07.1-1.6.12-.5.03-1.02.1-1.5.34zm-.4-.57a9.11 9.11 0 00-2.1.7 6 6 0 00-.96.59 3 3 0 00-.79.8c.14-.36.4-.67.69-.92a7.02 7.02 0 013.11-1.5c.09-.03.18.03.2.12.01.1-.04.19-.14.21zm-4.8 9.36a2.53 2.53 0 00.36.97c.18.3.37.58.57.86l.64.84.63.85c.2.29.4.58.58.89.18.3.35.62.49.95a4.51 4.51 0 01.41 2.08 5.76 5.76 0 00-.61-2 13.54 13.54 0 00-1.1-1.77c-.4-.57-.83-1.13-1.21-1.72a5.94 5.94 0 01-.52-.94c-.14-.3-.25-.66-.24-1.01zm-.03 11.39a1.32 1.32 0 01.37.79v.32l-.32-.09.08-.24c.02-.09.02-.18.02-.26a1.36 1.36 0 00-.15-.52z" transform="translate(-2)"/>
    </g>
  </g>
</svg>
