<svg xmlns="http://www.w3.org/2000/svg" fill="#d7374a" stroke="#000" viewBox="50 50 200 200">
  <metadata source="http://wappenwiki.org/images/d/d1/H%C3%A4stehufvud.svg" license="https://creativecommons.org/licenses/by-nc-sa/3.0"/>
  <g id="horseHeadCouped" stroke-width="3" transform="translate(51 49.7) scale(0.118)">
    <path stroke-linejoin="round" d="M277.8 211.5c-15.5-21.2-29.1-49.4-26.6-81.6 27.8 35.4 59.3 41.2 85.6 60.3"/>
    <path stroke-linejoin="round" d="M659.7 612c3.1-3.5 22.5-21.4 17.7-59.4 21.7 15 21.5 38.9 22.6 40.2 1.1 1.2 13.3-8.2 14.6-32.6 1.3-24.3-14.9-34-18.3-47.5-2.7-10.8 1.6-14.6-1-29.1-2.4-13.3-15.1-24.6-15.1-24.6s13.5 4.5 26.5.1 13.8-15.5 21.6-17.4c5.6-1.4 12.5 3.1 13.5 1.4.9-1.7-4.3-13.6-14.1-14.1-9.9-.5-16.8 6.6-20.2 6.4-12.7-.7-22-18.3-21.8-22 2 0 25.1-3.2 26.3-26.6.7-14.1-12.7-23.2-14.8-21.3-2.1 1.9 4.7 23.6-9.1 22.8-9.4-.5-12.1-4.4-12.6-6.1-2.9-11.6 19.6-54.9-28.8-75.9-3-1.3-6.2-2.5-9.7-3.5 14.1-6.4 25.5-16 27.3-38.3 1.3-25.9-31.7-38.4-32.7-35-1 3.3 10 6.5 9.7 18.2-.4 7.6-3.9 12.4-11.5 12-11-.6-16.9-28.6-32.1-39.6-9.7-7-23.9-10.9-34.1-13.3-8.8-1.8-19.6-7.9-20.4-10.4 1.4.5 12.9 7 29.3 7.9 15.8.8 26.7-14.8 27.4-27.1.6-11.4-9-20.7-10.8-20.2-1.8.5 4.1 25.9-14.2 25.6-12.3-.6-16.6-22.3-35.6-32.2-19-9.9-43-.7-45-3.3.1 1.1 8.3-3.4 9.3-23.7S471 91.5 469.1 96.1c-1.2 1 21.1 13.8 13.2 27.5-7.9 13.6-22 1.3-31.8 10.1-9.8 8.8-13.5 21-14 20.8-10.2-.5-15.6-21.6-35.5-22.7-19.9-1-29.5 16.1-29.5 16.1S319.2 118 301.8 88a118 118 0 0 0 10.3 66.9c-15.3-13.6-46.4 18.9-48.4 22.3-11.4-.6-19.7-10.1-34.2-.7-14.5 9.4-3.7 23.5-18.5 22.7-14.8-.8-18.5-30.2-48.8-20.4-1.5.9 9.5 3 16.9 12.3 9.9 12.3 15.6 32.6 28.9 33.3 20.8 1.1 21-14.5 37.1-13.6 12.5 1.7 20.6 9.4 20.1 9.1-10.8 23.3-23.9 23.8-35.1 37.5-10.3 12.2-3.1 29.3-22.7 46.1-20.1 17.3-37.9 31.5-60.6 51.3-22.8 19.8-21 17.2-25.8 20.8-12.8 9.5-23.5 9.6-30.1 20.7-6.3 10 .3 26.3 0 38.1-.3 12.2-3.2 19.4-1.5 31.8.8 6.1 1.5 12 5.8 18 5.1 6.8 13.9 10 22.3 7.9 17.5-4.4 31.1-30 51-35.8 3.5-.9 6.5-1 8.5.7s2.5 5-1.4 10.2c-3.9 5.1-9.3 7.4-21.2 15.4-12.5 8.4-20.1 16.1-21.6 20.8-.8 3-1.1 7 2.9 9.4 4.6 2.7 10.9-3.1 10.9-3.1s4.3-2.7 10.8-.6c4.3 1.4 15.2 2 21.5-2.5 8.3-6.1 6.3-12.4 15.6-21.7 8.4-7.9 22.2-13.1 34.9-18.2 39.8-14.6 57.1-16.6 57.1-16.6s23.8 7.5 54 1.1c18.8-4 44.1-17.7 44.1-17.7s10.4 10.2 11.5 31.7c.4 29.2-10.2 49.2-24.9 73.9-25 43.1-39 48.8-60.6 72.6-13.2 14.6-15.3 37.7-18.1 40.9-22 18.2-31.3 65.8-25 91 10.9 29.2 122.3 26.1 203.9 5.5 81.8-20.7 175.9-61.8 188.3-137.1z"/>
    <g stroke="none" fill="#000">
      <path d="M186.9 453.1c.8.4 1.5.9 2.2 1.5.6.6 1.3 1.3 1.7 2.1.5.8.8 1.7 1.1 2.6.2.9.3 1.9.2 2.8-.1 1.9-.7 3.7-1.7 5.2s-2.3 2.8-3.9 3.6a32.5 32.5 0 0 0 2.6-9v-2.2l-.4-2.2c-.1-.8-.5-1.4-.7-2.2-.4-.7-.9-1.4-1.1-2.2zM101.5 433.5c1-2.6 2.4-5 4.2-7.2a26 26 0 0 1 6.5-5.4l3.4-2.2c1-.8 1.9-1.6 2.5-2.6l.4-.8.4-.8.3-.9.2-.9.2-1.8-.1-1.8c-.3-2.4-1.2-4.9-2.4-7.3a23.4 23.4 0 0 0-4.3-6.3 3 3 0 0 0-1.3-.8h-1.7c-1.2.1-2.3.7-3.4 1.4a23 23 0 0 0-5.4 5.8c1-2.6 2.4-5 4.5-7 1.1-1 2.4-1.8 3.9-2.2.8-.2 1.5-.2 2.4-.2a5 5 0 0 1 2.3 1.1c1.3.9 2.2 2 3.1 3.2a24.9 24.9 0 0 1 5.1 11.8l.1 2.3c0 .8-.2 1.5-.3 2.3 0 .4-.2.7-.3 1.1l-.4 1.1-.5 1.1-.6 1a12 12 0 0 1-3.3 3.1c-1.2.8-2.5 1.4-3.7 2.1a33 33 0 0 0-6.6 4.4c-1.9 2-3.6 4.2-5.2 6.4z"/>
      <path d="M112.4 403.6a7 7 0 0 1-1.6 3.1l-2.1 2.6-4.1 4.9c-1.3 1.7-2.4 3.4-3.6 5.2-1.2 1.8-2.1 3.7-3.3 5.7 0-2.3.4-4.6 1.2-6.7a23.4 23.4 0 0 1 8.1-10.8l2.7-1.9c1-.7 1.9-1.3 2.7-2.1zM216.4 337.2a84 84 0 0 1-12.1 14.5 212 212 0 0 1-6.9 6.5l-7.1 6.2-14.5 11.9c-4.8 4-9.4 8.1-13.8 12.6 3.4-5.3 7.7-10 12.3-14.4 2.2-2.2 4.6-4.3 7-6.4a389 389 0 0 1 7.2-6.1l7.2-6 3.6-3 3.6-3c4.5-4 9.1-8.2 13.5-12.8zM223.4 286.5c2-2.6 3.9-5.1 5.5-7.7l1.1-2 1.1-2.1c.7-1.4 1.4-2.9 2.3-4.3l1.4-2.1 1.7-1.9 1.9-1.7 2.1-1.4c2.8-1.8 5.9-2.9 9-3.8-2.6 2-5.3 3.7-7.6 5.7l-1.7 1.5-1.6 1.6c-.9 1.2-1.9 2.3-2.6 3.6-1.6 2.6-3 5.6-5.2 8.2a30 30 0 0 1-7.4 6.4z"/>
    </g>
    <path fill="none" d="M384.9 433.1c7.5-4.2 11.2-12.1 18.6-30.3 4.5-12.4 7.1-35.2 6.6-46.8"/>
    <g stroke="none" fill="#000">
      <path d="M408.6 356c.3-3.4 0-6.9-.2-10.4-.3-3.5-.7-7-1.3-10.5-.6-3.5-1.2-7-2.2-10.4l-1.6-5.1c-.7-1.6-1.4-3.3-2.7-4.5 1.4 1.1 2.2 2.8 3 4.4a92.7 92.7 0 0 1 4.9 15.3c.8 3.5 1.5 7 2.1 10.6.5 3.6 1 7.1 1 10.9l-3-.3z"/>
    </g>
    <path fill="#F1F0EE" d="M266.5 285.1c15.1 5.1 30.6 17.2 30.6 17.2s-16.8 14.2-29.1 12.5c-14.9-3.1-18.6-9.6-18.6-9.6s2.1-7 6.1-12.4c3.5-4.9 8.8-8.2 11-7.7z"/>
    <g stroke="none" fill="#000">
      <path d="M309.3 304.3c-.6 1.1-1.9 1.5-3.1 1.6-1.2.1-2.4-.1-3.6-.3-1.2-.2-2.3-.6-3.4-.9l-3.4-1.3 1.5-2.6a28.5 28.5 0 0 0 5.8 3.4c1 .4 2.1.8 3.2 1 1 .1 2.2 0 3-.9zM268 438.2a24.6 24.6 0 0 0 8.6 7 38.9 38.9 0 0 0 10.3 3.5l-.7 2.9a38 38 0 0 1-5.4-2.2c-1.7-.9-3.4-1.8-5-2.9a26.1 26.1 0 0 1-7.8-8.3zM180.4 445.7c-1.9 0-3.7-.2-5.5-.4l-5.2-.5-5.2-.3-5.5-.2a18.2 18.2 0 0 1 11-2.4c1.9.2 3.8.6 5.5 1.2 1.7.5 3.4 1.4 4.9 2.6z"/>
      <polygon points="250.6,306 240.8,315.7 248.2,304.2"/>
      <path d="M196.6 411.5c.8-.4 1.6-.6 2.4-.8h2.4c.8.1 1.6.3 2.4.7.8.3 1.5.8 2.1 1.5l-2.4.1-2.3-.2-2.3-.4-2.3-.9zM207.6 405.6a3 3 0 0 1 2.2-.8c.8-.1 1.5 0 2.2.2l2 .7c.6.3 1.3.8 1.8 1.4-.8.2-1.5.2-2.2.1-.7 0-1.4-.1-2-.3a6 6 0 0 1-1.9-.6l-2.1-.7zM218.6 402c.5-.5 1-.6 1.6-.7.5-.1 1.1-.1 1.6 0l1.4.5c.5.3.9.6 1.3 1.1-.6.3-1.1.4-1.6.4l-1.5-.1-1.4-.4c-.4-.1-.9-.4-1.4-.8zM229.2 399.7c.2-.6.8-.8 1.2-.9h1.4l1.2.6c.3.3.7.6.9 1.2a4 4 0 0 1-1.4.3l-1.1-.1a3 3 0 0 1-1-.4l-1.2-.7zM117.4 460.7c.3-.8 1-1.3 1.6-1.7.7-.4 1.3-.7 2-.8.7-.2 1.4-.3 2.2-.3.7 0 1.5.1 2.2.4-.6.5-1.3.8-1.9 1.1-.7.3-1.3.5-2 .6l-2 .4c-.6.2-1.3.2-2.1.3zM125.8 452.7c.2-.6.7-1 1.1-1.3l1.4-.7 1.5-.2c.5 0 1.1.1 1.6.4-.4.5-.8.8-1.3 1.1-.4.3-.9.4-1.3.6l-1.4.2-1.6-.1zM134.2 447.9c0-.6.4-1.1.7-1.4l1.2-.6a2.9 2.9 0 0 1 2.6.7l-1.1.9-1.1.4-1.1.1-1.2-.1zM257 365.4c-.1-.7.2-1.2.4-1.7a4 4 0 0 1 1-1.2l1.3-.8c.5-.2 1-.3 1.7-.3a5.2 5.2 0 0 1-1.7 2.6l-1.2.8-1.5.6zM261.7 355.4c-.3-.5-.2-1.1 0-1.6s.5-.8.9-1.1l1.2-.6h1.5l-.6 1.3-.8.8-.9.6-1.3.6zM262 403.7c-.6-.2-.9-.8-1-1.2v-1.4l.5-1.2c.3-.4.6-.7 1.2-.9l.3 1.4-.1 1.2a3 3 0 0 1-.4 1l-.5 1.1zM254.8 375.8c-.2-.6-.1-1.2 0-1.8l.7-1.4 1.1-1.1c.4-.3.9-.6 1.6-.7 0 .7-.2 1.2-.4 1.7l-.7 1.3-1 1.1c-.4.4-.8.6-1.3.9zM254.5 385.8c-.3-.6-.2-1.2-.1-1.8l.6-1.5 1-1.2c.4-.3.9-.7 1.5-.8a3 3 0 0 1-.2 1.7c-.1.5-.3.9-.6 1.4l-.9 1.2-1.3 1zM257.4 395.3c-.3-.6-.4-1.1-.4-1.6l.1-1.5c.1-.5.3-1 .6-1.4.3-.4.6-.9 1.1-1.3.3.6.4 1.1.4 1.6s0 1-.2 1.5c-.1.5-.3 1-.6 1.4-.2.4-.5.9-1 1.3zM146 508.4a31.5 31.5 0 0 0 9.7-6.5l4.2-4.3c1.5-1.4 3.2-2.6 5.1-3.3-1.8.9-3.3 2.3-4.6 3.8l-3.7 4.8a45.7 45.7 0 0 1-4.3 4.5c-1.6 1.4-3.3 2.5-5.1 3.7l-1.3-2.7zM128.1 410l-1.3-5.3a34 34 0 0 0-4.4-9.2c-1-1.4-2.1-2.7-3.7-3.6 1-.2 2 .1 2.9.4l1.3.7 1.2.9c1.5 1.3 2.7 2.9 3.6 4.7a16 16 0 0 1 1.4 5.7c.1 2-.2 3.9-1 5.7zM283 285.3c1.5-.6 3.1-.2 4.5.2a18 18 0 0 1 7.1 4.9c.9 1.1 1.8 2.3 2.4 3.7-1.4-.5-2.7-1.2-3.9-1.9l-3.4-2.3-3.2-2.4c-1.1-.7-2.1-1.5-3.5-2.2zM296.8 249.8l-8.3-1a113 113 0 0 0-16.4-.8h-8.4c1.3-.6 2.7-1 4-1.4l4.2-.9a40.5 40.5 0 0 1 17 .8c2.8.8 5.5 1.8 7.9 3.3z"/>
      <path d="M296.9 285.3a57.3 57.3 0 0 0-10.1-4 22.5 22.5 0 0 0-15.2 1.1l-4.8 2.4c-1.7.8-3.4 1.7-5.3 2.2-1.9.5-4.1.6-6.1.1h.2c-1.6-.2-3.2-.8-4.7-1.6a9.5 9.5 0 0 1-3.4-3.5c-.8-1.4-1.2-3-1.3-4.6 0-1.6.4-3.1 1.3-4.4a8.7 8.7 0 0 0 4.5 10.6c1.2.6 2.5.9 3.9 1h.2c3.2.7 6.3-.7 9.5-2.4a34 34 0 0 1 10.6-4.1 23 23 0 0 1 11.4 1.4 38 38 0 0 1 9.3 5.8z"/>
      <path d="M270.6 286.7s-1.6 2-1 7.4c.7 5.3 3.9 13.9-1.5 13.7-5.4-.1-10.2-4.9-10.6-13.4-.3-2.7 1.1-5.3 1.1-5.3 3.6-2.4 7.9-3.6 12-2.4zM276.4 320.5l-2.7 1.2c-.9.2-1.9.5-2.9.6-1.9.3-4 .1-5.9-.2-1.9-.4-3.8-1.2-5.5-2.2a11 11 0 0 1-4.1-4.2 70.8 70.8 0 0 0 10.3 3.5c1.7.3 3.5.7 5.3.8l2.7.3 2.8.2zM226.7 454.9l-9.1 5.7-8.9 5.7-8.8 5.9c-2.9 2-5.8 4-8.7 6.2 2-3 4.6-5.6 7.3-8a77.6 77.6 0 0 1 28.2-15.5zM455 270.4l7.5 5.4 3.7 2.7 1.9 1.4 1.8 1.5 7.2 5.8 3.6 3 3.4 3.1 6.8 6.3 6.4 6.7 3.2 3.3 3.1 3.5 6.1 7 5.7 7.3 2.8 3.7 2.6 3.8 5.2 7.7 4.8 7.9c1.7 2.6 3 5.4 4.5 8.1 1.5 2.7 3 5.4 4.2 8.3l3.9 8.4 3.6 8.6a258.9 258.9 0 0 1 15.6 127.4c-.8 6.1-1.8 12.2-3.2 18.2a263.8 263.8 0 0 0 1.9-73.4 272.3 272.3 0 0 0-17.2-71.2l-3.5-8.5-3.9-8.3c-1.2-2.8-2.7-5.5-4.2-8.2-1.5-2.7-2.8-5.4-4.4-8l-4.7-7.9c-1.6-2.6-3.4-5.1-5.1-7.7l-2.6-3.8-2.7-3.7a353 353 0 0 0-5.5-7.4l-5.9-7.1c-1-1.2-1.9-2.4-3-3.5l-3.1-3.4-6.3-6.8-6.6-6.4-3.3-3.2-3.4-3.1-6.9-6.1-1.7-1.5-1.8-1.4-3.6-2.9-6.9-5.6zM361.6 239.8c1.3 1.8 2.9 3 4.5 4.2 1.7 1.2 3.4 2.2 5.2 3.3l5.5 3.1c1.8 1.1 3.7 2.1 5.5 3.4a32.4 32.4 0 0 1-12.5-4 22.9 22.9 0 0 1-5.3-4.1c-.8-.8-1.4-1.8-2-2.8-.5-.9-.9-2-.9-3.1zM278.5 207a46 46 0 0 1 5.8-4c2-1.2 4.1-2.2 6.2-3.3a208.8 208.8 0 0 1 39.8-13.7l.7 2.9-13.5 3.3c-4.5 1.2-8.9 2.6-13.3 4s-8.8 3.1-13.1 4.8l-6.4 2.8c-2.1 1-4.2 2-6.2 3.2z"/>
    </g>
    <path fill="none" d="M404.6 185.6C463.3 195.3 538.7 232 592 331"/>
    <g stroke="none" fill="#000">
      <path d="M593.3 330.3a340.6 340.6 0 0 1 23.7 57.5 301.2 301.2 0 0 1 12 60.9 347 347 0 0 1-.1 62c-1.7 20.6-5.1 41-8.1 61.4 2.7-20.5 5.8-40.9 7.3-61.5s1.5-41.3-.7-61.8a300.9 300.9 0 0 0-23.5-89.2c-4.1-9.4-8.6-18.7-13.4-27.8l2.8-1.5zM422.3 429.2a73.4 73.4 0 0 1 18 43.2c.2 3.2.3 6.4 0 9.5a58.2 58.2 0 0 1-3.9 18.5 97.4 97.4 0 0 0-2.5-45.9c-.8-3-2-5.8-3.1-8.7-2.4-5.7-5.3-11.2-8.5-16.6zM680.1 460.5c-1.8-.3-3.5-.7-5.1-1.3-1.6-.6-3.3-1.2-4.8-2.1-1.5-.9-2.9-1.8-4.2-3.1a12.9 12.9 0 0 1-2.8-4.2c.9 1.4 2 2.7 3.3 3.6 1.3 1 2.8 1.7 4.3 2.3a27 27 0 0 0 9.5 1.8l-.2 3zM676.5 553.9l-3.9-3.2c-1.2-1.1-2.5-2.2-3.6-3.5a66.1 66.1 0 0 1-11.2-16.2 44 44 0 0 1-3.3-9.2 54.5 54.5 0 0 0 19.6 26.9l3.9 2.7-1.5 2.5zM637.7 304.1l-2.7.9-2.7.4c-1.8.2-3.6.2-5.4-.1a30.2 30.2 0 0 1-7.6-2.2l-2.3-1.2 2.5.8c.8.2 1.6.5 2.5.6 1.7.4 3.4.4 5 .4a20 20 0 0 0 4.9-.7l2.3-.7c.7-.3 1.5-.6 2.1-1l1.4 2.8zM685.9 414.8l-4.1.3-2-.1-2-.2a25.2 25.2 0 0 1-13.9-7.2c-1-.9-1.7-2-2.5-3l-1.1-1.6-1-1.7 1.2 1.5c.4.5.7 1.1 1.2 1.5.9.9 1.7 1.9 2.7 2.7a22.7 22.7 0 0 0 13.6 5.4h1.8l1.8-.1c1.2-.1 2.5-.3 3.5-.6l.8 3.1zM495.7 146.8c0 .4-.1.9-.3 1.2l-.3.3-.2.2-.7.3-.9.3-1.6.5a22.6 22.6 0 0 0-8.2 6.1 21.9 21.9 0 0 1 7.3-8.1l1.6-.9.7-.4.1-.1-.1.1-.1.2-.2.7 2.9-.4zM505.4 193.8a31 31 0 0 1 19.2-5A46.5 46.5 0 0 1 544 195l-1.7 2.5a46 46 0 0 0-17.9-7.2 29.3 29.3 0 0 0-19 3.5zM432.1 166.6a29.8 29.8 0 0 1 3.1-13.1l2.5 1.7a27.5 27.5 0 0 0-5.6 11.4z"/>
    </g>
    <path fill="none" d="M659.8 612.2s-18.6 24.7-47.9 21.1c-1.9-.2-3.6-2.8-.7-6"/>
    <g stroke="none" fill="#000">
      <path d="M628.5 605.7c1-1.4 2-2.4 3-3.5.9-1.1 1.8-2.2 2.6-3.5a17.6 17.6 0 0 0 2.8-8.2c.1 1.5 0 3-.2 4.5s-.7 3-1.3 4.4c-.6 1.4-1.3 2.8-2.1 4.1-.8 1.3-1.7 2.6-2.2 3.7l-2.6-1.5zM284.3 187.4a50.4 50.4 0 0 0-10-5.9c-1.8-.7-3.6-1.4-5.4-1.8-1.8-.5-3.7-.8-5.6-1.1l.6-2.9a38.1 38.1 0 0 1 11.1 4.5 42 42 0 0 1 9.3 7.2zM649.8 421c-2.5-4-4.4-8.3-5.8-12.8a82.6 82.6 0 0 1-2.9-13.8c-.7-4.7-1.1-9.3-1.7-13.9-.5-4.6-1.1-9.2-2.2-13.7a54.2 54.2 0 0 0-22-33.6c-3.7-2.8-7.7-5.2-11.7-7.6 4.3 1.8 8.6 3.8 12.6 6.3s7.7 5.5 11 8.9a48.6 48.6 0 0 1 13 25.2c2.1 9.3 2.4 18.7 3.2 28a86 86 0 0 0 6.5 27zM597.2 270.6c-1.8.4-3.8 0-5.5-.9-1.7-.8-3.3-2-4.7-3.2a85.1 85.1 0 0 1-7.9-8l-7.5-8.2a70.1 70.1 0 0 0-12.4-10.4 73.3 73.3 0 0 0-15.3-5.3c-7.1-1.6-14.5-2.5-21.9-3.4 7.4-.3 14.9-.1 22.3 1.1a61.2 61.2 0 0 1 16.3 5.1c1.7.9 3.3 2 4.8 3.2 6 4.7 10.8 10.6 15.4 16.4 2.3 2.9 4.6 5.8 7.1 8.4 1.3 1.3 2.6 2.5 4.1 3.5a8.1 8.1 0 0 0 5.2 1.7zM507.7 177l-5.7.6-5.5 1.1c-3.6.9-7.2 2.1-10.6 3.5-3.5 1.4-6.9 3-10.3 4.6l-5.2 2.4c-.9.4-1.8.8-2.7 1l-1.4.4c-.5.1-1.1.1-1.5-.2.5.1.9-.1 1.3-.3l1.2-.7 2.4-1.6 4.8-3.2a52.7 52.7 0 0 1 21.7-8.5c1.9-.3 3.9-.3 5.9-.3 1.8.5 3.7.7 5.6 1.2zM462.7 154c.6 1.4 1 2.9 1.1 4.4.1 1.6-.1 3.2-.8 4.7a18.3 18.3 0 0 1-5.8 7.3c-2.3 1.9-4.6 3.6-6.6 5.5s-3.5 4.2-4.4 7.1c-.2-1.5 0-3.1.5-4.5.5-1.5 1.3-2.9 2.2-4.1 1.9-2.5 4.3-4.4 6.5-6.3 2.2-1.9 4.3-3.7 5.6-6 1.3-2.3 1.7-5.1 1.7-8.1zM678.2 522a49.9 49.9 0 0 1-11.9-21.1c-.7-2.6-1.3-5.2-2.1-7.7a49.2 49.2 0 0 0-6.4-14.2c-2.8-4.4-6.3-8.5-9.7-12.7a62.6 62.6 0 0 1 14 14.8l2.1 3.6 1.7 3.8c.4 1.3 1 2.6 1.3 3.9 1.5 5.3 2.3 10.5 4.1 15.4 1.6 4.8 4.2 9.5 6.9 14.2zM268.1 199.1c-5.1-1.2-10.1-2.5-15.2-3.2-2.5-.3-5-.6-7.5-.5-2.5.1-4.9.4-7.1 1.3l-.8.3-.8.4-1.5.9c-.9.7-1.8 1.5-2.6 2.5-1.6 1.8-2.9 4.1-4.4 6.2-.8 1.1-1.6 2.2-2.6 3.2s-2.2 1.8-3.4 2.4c-2.6 1.1-5.5 1-8 .2 2.6.1 5.2-.3 7.3-1.6a10 10 0 0 0 2.6-2.4l2-3.1c1.2-2.2 2.5-4.6 4.2-6.8a16 16 0 0 1 6.7-5.1c2.7-1 5.5-1.4 8.2-1.3a63.3 63.3 0 0 1 22.9 6.6zM304.4 98.4c1 6 3 11.6 6.1 16.7 3.1 5.1 7.1 9.5 11.3 13.7 4.3 4.1 8.8 8.1 13.3 12.1s8.9 8.2 13.1 12.6a99.5 99.5 0 0 1 19.6 30.6c.5 1.4 1.2 2.8 1.6 4.3l1.4 4.3 1.2 4.4.6 2.2.5 2.2c1.4 5.9 2.1 11.9 2.6 17.9-1.2-5.9-2.3-11.8-4-17.6a108.6 108.6 0 0 0-25.8-46.3c-8-8.8-17.4-16.4-25.8-25.1a64.7 64.7 0 0 1-10.9-14.6 42.7 42.7 0 0 1-4.8-17.4z"/>
      <path d="M361.8 211.9a40.4 40.4 0 0 1-13-17.7l-.5-1.3-.4-1.3-.8-2.7c-.4-1.8-.8-3.6-.9-5.5-.5-3.7-.2-7.4.5-11 .6 3.6.9 7.2 1.8 10.6a96.7 96.7 0 0 0 2.2 7.6l.4 1.3.5 1.2a83.9 83.9 0 0 0 10.2 18.8zM356.7 216c-5.1-3.9-9.6-8.4-13.9-13.1a216 216 0 0 1-23.1-30.4l-2.5-4.1-2.3-4.2-1.2-2.1-1.1-2.1-2.1-4.3 2.7-1.3c2.8 5.6 5.7 11.2 9 16.5l1.2 2 1.3 2 2.6 4c1.8 2.6 3.5 5.2 5.4 7.7 3.7 5.1 7.6 10.1 11.7 14.9l12.5 14.3-.2.2zM372.5 146.4a93.6 93.6 0 0 1 36 44.9c2.4 6 4.3 12.2 5.4 18.5l-.3.1c-2.3-6-4.5-12-7.1-17.8-2.6-5.8-5.5-11.4-9.1-16.7a93.2 93.2 0 0 0-26.6-26.5l1.7-2.5zM410.5 504.1a116.8 116.8 0 0 1-25.1 68.1c-4.8 6.6-10 13-15.1 19.3-10.4 12.5-21 24.9-29.5 38.6a136 136 0 0 0-17.9 44.9c1-8.1 2.9-16.1 5.6-23.8 2.7-7.7 6.2-15.2 10.3-22.3 4.1-7.1 8.8-13.8 13.8-20.3s10.2-12.7 15.4-19a242.5 242.5 0 0 0 28.3-39.4 127.6 127.6 0 0 0 14.2-46.1zM652.1 583.2c-.7-4.1-2-7.9-3.5-11.6l-2.3-5.6-2.2-5.8a51 51 0 0 1-2-24.6 116.6 116.6 0 0 0 4.8 23.7l2 5.7c.6 1.9 1.4 3.9 1.9 5.9 1.2 3.9 1.8 8.2 1.3 12.3z"/>
    </g>
  </g>
</svg>
