<svg xmlns="http://www.w3.org/2000/svg" fill="#d7374a" stroke="#000" viewBox="50 50 200 200">
  <metadata source="http://wappenwiki.org" license="https://creativecommons.org/licenses/by-nc-sa/3.0"/>
  <g id="key" stroke-width=".425">
    <path d="M92.418 82.053h2.485v4.124h1.539v-6.015h6.552V69.767h-6.552v-5.915h-1.54v3.953h-2.484V63.85h-7.682v3.413h4.35v2.503h-4.35v3.953h6.482v-2.247h2.485v2.247h2.428v2.503h-2.428v2.232h-2.485v-2.232h-6.481v3.939h4.349v2.502h-4.35v3.513h7.682z"/>
    <path d="M99.802 121.172V61.164c0-.74 1.06-1.351 2.358-1.351s2.359.612 2.359 1.35v60.01h-4.717z"/>
    <path d="M99.802 116.181a.706.711 0 0 1 0-1.393h4.702a.706.711 0 0 1 0 1.393h-4.702zm0 5.39a.706.711 0 0 1 0-1.394h4.702a.706.711 0 0 1 0 1.393h-4.702zm0-1.792a1.638 1.65 0 0 1 0-3.3h4.702a1.638 1.65 0 0 1 0 3.3h-4.702z"/>
    <ellipse cx="102.161" cy="137.909" rx="2.485" ry="1.991"/>
    <path d="M100.17 136.857a.706.711 0 0 1 0-1.394h3.981a.706.711 0 0 1 0 1.394h-3.981z"/>
    <ellipse cx="112.581" cy="129.107" rx="1.977" ry="2.503"/>
    <path d="M111.55 131.112a.706.711 0 0 1-1.383 0v-4.01a.706.711 0 0 1 1.383 0v4.01z"/>
    <ellipse cx="91.599" cy="129.107" rx="1.977" ry="2.503"/>
    <path d="M92.644 127.102a.706.711 0 0 1 1.383 0v4.01a.706.711 0 0 1-1.383 0v-4.01zm15.433 2.034-5.959 4.251-5.845-4.308 5.958-5.887 5.846 5.944zm-3.53-7.565h-4.843l-5.592 5.63v3.712l5.93 4.536h4.166l5.987-4.593v-3.612l-5.648-5.674z"/>
    <path d="m105.846 132.591-.226-1.863-2.57-.981.96 2.588 1.836.256zm-7.47-7.537.226 1.863 2.57.981-.96-2.588-1.836-.256zm.142 7.523 1.85-.228.974-2.588-2.57.967-.254 1.849zm7.497-7.508-1.85.227-.974 2.588 2.57-.967.254-1.848z"/>
    <path d="M108.077 129.136h2.075m-8.034 4.251v2.076m.127-12.271v-1.622m-5.958 7.509h-2.26"/>
  </g>
</svg>
