<svg xmlns="http://www.w3.org/2000/svg" fill="#d7374a" stroke="#000" viewBox="50 50 200 200">
  <metadata source="http://www.wappenwiki.org/images/0/00/Scali.svg" license="https://creativecommons.org/licenses/by-nc-sa/3.0"/>
  <g id="ladder" stroke-width="3" transform="translate(11.7 105.4) scale(0.109)">
    <g>
      <path d="M692.9-403.5c.6-5.9 38.1-15.1 37.5-9.2-.6 5.9-42.9 691.5-43.5 697.3-.6 5.9-54.3 36.8-53.6 30.9.5-5.8 58.9-713.1 59.6-719z"/>
      <path d="M666.4 197.6h305.5v-34H666.4s-5.1 2.4-5.1 17 5.1 17 5.1 17zM679.2 34.3H954V.3H679.2s-5.1 2.4-5.1 17 5.1 17 5.1 17zM693.1-129h227.1v-34H693.1s-5.1 2.4-5.1 17 5.1 17 5.1 17zM708-292.4h203.3v-34H708s-5.1 2.4-5.1 17c0 14.7 5.1 17 5.1 17z"/>
      <path d="M928.5-406.6c-.6-5.9-38.1-11.9-37.5-6 .6 5.9 42.9 691.5 43.5 697.3.6 5.9 54.3 36.8 53.6 30.9-.5-5.9-58.9-716.3-59.6-722.2z"/>
    </g>
    <path d="M954.8 163.7s5.1 2.4 5.1 17-5.1 17-5.1 17M941.9.4s5.1 2.4 5.1 17-5.1 17-5.1 17M928-163s5.1 2.4 5.1 17-5.1 17-5.1 17M916.1-326.3s5.1 2.4 5.1 17-5.1 17-5.1 17"/>
    <path fill="none" d="M954.2 163.7s-5.1 2.4-5.1 17 5.1 17 5.1 17M941.1.4s-5.1 2.4-5.1 17 5.1 17 5.1 17M927-163s-5.1 2.4-5.1 17 5.1 17 5.1 17M914.9-326.3s-5.1 2.4-5.1 17 5.1 17 5.1 17"/>
  </g>
</svg>
