<svg xmlns="http://www.w3.org/2000/svg" fill="#d7374a" stroke="#000" viewBox="50 50 200 200"><metadata license="https://creativecommons.org/licenses/by-nc-sa/3.0" source="http://wappenwiki.org/images/7/78/Schafli.svg"/><g id="lamb" stroke-width=".4"><path d="M112.1 132.5s0 2.4-.4 3c-1 1.4-3.3 1.9-4.5 1.7-.4 0-.3-.9.3-1.9 0 0-1 .7-1.7.5.5-1 2.2-2.5 3-4.4.3-.5.8-.8 1.4-.8.7 0 .6-.7 1 .3l.9 1.6zm-26 0s0 2.4-.4 3c-1 1.4-3.3 1.9-4.5 1.7-.3 0-.2-.9.3-1.9 0 0-.9.7-1.7.5.6-1 2.2-2.5 3-4.4.4-.5.8-.8 1.5-.8.6 0 .5-.7 1 .3l.8 1.6zm45.5 0s0 2.4-.4 3c-1 1.4-3.3 1.9-4.5 1.7-.3 0-.2-.9.3-1.9 0 0-.9.7-1.7.5.5-1 2.2-2.5 3-4.4.4-.5.8-.8 1.5-.8.6 0 .5-.7 1 .3l.8 1.6zm-57.2-.6s-.5 2.3-1 2.8c-1.3 1.2-3.6 1.2-4.8.8-.3-.1 0-.9.7-1.8 0 0-1 .5-1.7.1.7-.9 2.6-2 3.7-3.7.5-.4 1-.6 1.6-.5s.7-.6 1 .5l.5 1.8z"/><path d="M85.5 101.2l-8.9-.4c.4 1 .4 5.6 0 7.3-.4 2.3-1.1 3.8-1 5.1 0 0-.6 2-.6 2.8v2c0 .7.2 1.2 0 1.8l-1 3.9-1 3c-.5 1.5-1.8 2.3-2 3.6 2.3-.3 3.4 1.6 3.4 1.6s.6-.2.7-.5c0-.7-.7-.8-.6-1.3 0-.3 0-.5.5-.7.8-.2 1 .5 1.8.2.4-.2.5-.4.6-.8.2-.6-1.4-1-.7-2.5.2-.5.6-1.3.9-2.7.3-1.4.5-3.4.9-3.8.6-.5.9-1.1 1.3-1.8.6-1.1.7-1.8.6-3v-1.8c-.3-1.1 2.3-4.5 3.6-6.4a10 10 0 001.5-5.6z"/><path d="M123.7 109.6c-.7 1.5-1.4 2-2 4l-.1.7v.8c.2.5.4 1.3 0 1.7-1 1-2 1.4-3 2.5a17.2 17.2 0 00-3.8 6.6c-.4 2 .6 2.8.3 3.5-.1.3-.3.5-.7.7-.7.2-1-.5-1.8-.4-.5.1-.9.6-.9.9 0 .5.8.4.9 1.1 0 .3-.6.6-.6.6s-1.5-1.5-3.6-.7c-.1-1.3 1.6-3.7 2.6-5 1.3-1.7 2.8-5 3.2-5.7 1-2 1.9-3.9 2.4-6 .6-2.1-.4-3.2-1.2-6.6.8-.2 1.2-.3 2-.7.7-.4 1.5-.7 2.2-.5.5 0 1 .4 1.4.6l2.7 2z"/><path d="M135.6 100s-.4-.3-.7-1c-.2-.4-.6-2.6-2.9-4.5-3-2.7-3.5-3.7-5.7-5.8-2.2-1.8-2.8-2.4-6-3.3a18.7 18.7 0 00-4-.6c-1.5-.1-5 0-6.5.2l-7.2.4c-4.5 0-6.8-.3-8.9-1.5a3 3 0 01-1.3-1.7c.5-.6.3-1.6-.4-2.1-1-.7-1.4-1.5-1.4-1.5.5-.5.6-1.4 0-2a4.2 4.2 0 01-1-1.9c.4-.7-.3-1.3-.7-2-.4-1-.6-1.8-1.2-2.6L86 67.5c-1.6-2-3.7-2.6-4.8-3-1-.4-3-1-4.9-.2l-1.7.5-1.7.5c-.8.2-1.2 1-2 1.3-.4.2-1 1-1 1.4l-.2.4c-.5.5-1 1.3-1 2 0 .2 0 .5-.3.7 0 .1-1 1.4-1 1.6l-1 1.7c-.3.8-1.4 2.7-1.6 3.4a4.8 4.8 0 00-.2 2.1c0 .3.2.5.2.5v.6c0 .4.3 1 .6 1.2.4.3.8.3 1.2.4 0 0 .6.7 1.1.7.8 0 1.3 0 2-.6a4.5 4.5 0 013.5-.9c1.8.4 3-.2 3-.2h0c1 1.9-3.2 3.6-2.5 6.3-2 1.2-1 3.8-1.3 4.9-1.6 2.5 1 5.3 1 5.3-1.5 2.4 1.8 4.7 1.8 4.7s0 2.5 3 2.7c.6 2 2.6 2.5 3.4 2.6a15 15 0 001.8 5c0 .1.3.3.3.5 0 .8 0 1.7.2 2.6l.3 1.8c.1.6.5 1 .4 1.7-.2 1.3-.1 2.7-.2 4-.1 1.4-.4 2.7-.6 4-.2 1.6-1.2 2.6-1.2 3.9 2.1-.7 3.6 1 3.6 1s.6-.4.6-.7c0-.7-.9-.6-.8-1.2 0-.2-.2-.4.3-.7.7-.4 1.2.3 1.8-.2.4-.3.4-.5.5-.9 0-.7-1.6-.8-1.3-2.3.1-.5.5-2.3.6-3.7 0-1.4-.2-3.4.1-3.9.5-.7.6-1.3 1-2 .3-1.2.3-1.7 0-2.9l-.2-.4-.2-1.6c.1-1 1-.7 1.5-2h0l2 .4c1.4-.2 2.7-.3 3.5-.2 1.3 0 2.7-.2 3.9 0 1.5.3 2.7 0 4.1-.3.6 0 1.1 0 1.6-.2l1.5-.3c.6 0 2.4 0 3 .2 1.3.3 2.3 0 3.6 0 1 0 2-.3 2.8-.5 1.2-.3 2.2-.5 3.2-1 .8 1 1.4 2.8 3.6 3.8h0c0 .5.4 1 .8 1.2l1.3.9c1.2.8 1.5 1.6 2.1 2.8l1 1.7c.3 1 1.1 3.4 1.2 5.7 0 1.2-.2 1.6-.3 3.1-.1 1.6-1.1 2.8-1 4.2 2-.8 3.6.7 3.6.7s.6-.3.6-.6c-.1-.8-1-.6-.9-1.2 0-.2-.2-.4.3-.7.7-.4 1.2.2 1.8-.3.3-.3.4-.6.4-1 0-.6-1.2-1-1.5-3-.2-1.9 0-4.5-.3-6.4-.3-1.9-.5-2.5-.3-4.4.1-1.2.6-2.5 0-3.5-.4-.8-2-1.3-2.3-2.1v-1c0-2.7.5-2.3.5-5 0-1.6-.4-3.3-.4-3.3l.8 1.6c.8 1 1.8 1.3 1.8 1.3s.7 2 3 2.4c0-.3-.5-1-.6-1.7 0-.6.2-1.6.1-2.1-.2-1.1-.6-1.5-.6-1.6.5.4 1.1.7 1.6.4z"/><path d="M82.2 71.8a5.8 5.8 0 002.6 0c1-.1 2.4-.4 3.5-1 1.4-.1 2.4-1 2.3-1.6-.2-.6-1.7-.7-2.3-.8-2-.5-2.8-1-4-1.3a8.6 8.6 0 00-4 .4"/><path fill="none" d="M81.6 108.1a55 55 0 00-.6-2.9 4 4 0 01.2-3"/><path fill="none" d="M114.9 102.4c.1 1 .4 2.3 1.3 2.8 0 .8.7 1.5 1.5 1.6.4.7 1.1.7 1.5 1.4"/><path fill="#f6f6f6" d="M70.8 71.6c.5-.2 1.2-.1 1.2.5.1.6-.3 1.3-1 1.4-.3 0-.7 0-1-.2-.2-.5.2-1 .4-1.3l.4-.4z"/><g fill="#000" stroke="none"><path d="M170.3 213.2a68 68 0 01-10.4 26.4l1.3.5c1.9-3.1 8.6-13.7 9.1-26.9zM123 231.6a45 45 0 00-4.2 7.8c1.9-2.4 3.9-4.8 5.6-7.4zm25 20.4c.2 5.5 4.5 10.5 2.7 16.3 4-4.6-.3-11.6-2.7-16.3zm-31.6 12.2a9 9 0 00-1 2.9c-1.7 4.8 3.5-.3 1-2.9zm35.2 11.8c-7.1 8.9-2.8 18-6.6 26.6 4.2-8.2 2.8-18.1 7.4-26.1zm-42.5 3.3l-.7.7c-5.6 7.4-5.1 17.1-7.5 25.7-1.7 2.6.2.8.8-.6 3.6-8.3 3-17.9 7.4-25.8zM86.4 326c-.3 0-8 7.6-9.7 8.4l1 1.2c3.1-2.7 5.7-5.9 8.4-9zm47.7 4.1a4 4 0 00-.6.7zm-.6.7c-2.5 3.2-5 7.1-8 10.1 2.7 2.8 6-7 8-10.1zm182.5-.7l-.5.6zm-.5.6c-2.6 3.2-4.9 7.3-8 10.2 2.7 2.8 6-7.2 8-10.2zm-78.4.4c-.2-.2-5.5 7.8-7.7 9.8 2.3 3 4.2-5.3 5.8-6.4l2-3.4z" transform="matrix(.25 0 0 .25 50 50)"/><path d="M118.3 59.7c-.7 0-1.5 0-2.4.5 3.5-.7 5.5 3.2 8.6 2.8-2.6-1.6-4-3.2-6.2-3.3zm-15.6 1.6c-1.2 0-2.9.9-3 1 3.7-.4 7.5 2 10.9-.8-2.6.8-5.4-.3-8-.2zm14 2.2a7 7 0 00-4.5 2.2c2.4-.5 4.7-1 7.1-1.7-.8-.4-1.7-.6-2.6-.5zm-13.2 2.7c-1.4 0-2.7.5-3.6 1.6 2.8-.6 5.6-.1 8.4 0a6.9 6.9 0 00-4.8-1.6zm-13.3.8c-1 .1-1.8.6-2.4 1.3 1.7.3 3.2-.1 4.8-.3-.6-.8-1.5-1-2.4-1zm30.7 2a11 11 0 00-4.5 4h.2c1.3-1.1 3-2 4.8-2.4zm-19.2 2.5c-.9 0-1.7.1-2.3.8 2.2.1 4 1.1 6.1 1.4 0-.8-2-2.1-3.9-2.2zm-21 .3c-1 0-2 1-.6 1.5 2.1 1.7 4.5-1.5 6.7-.3-1.1-1.7-3.6 0-5.3-.4-.1-.6-.5-.8-.9-.8zm7.6 2.4c.4.8 1.3 1.3 2 1.6 1.5.6 3.8.1 4.1-1.6-2 .9-4 0-6.1 0zm61.4 1.6a21 21 0 00-10 3c-2 1.4-4.3 2-6.6 2.2a24 24 0 01-11.7-2.8c1.4 1.6 4.4 2.7 6.7 3.4 2.3.8 4.7.8 7 .4 3-.2 5.3-2.1 7.8-3.3a21.5 21.5 0 0115.4-1.2 19.8 19.8 0 00-8.6-1.8zm-53.2 1.1c.7 1 1.9 2 3 2.7 2.2 1.2 5.1.5 6.4-1.6-1 .3-1.9.6-2.9.7-2.3.2-4.3-1.2-6.5-1.8zm10.3 5.4c-1.2 2.6 2 5.5 4.4 4.6a15.4 15.4 0 01-4.4-4.6zm14.6 2v.1zm0 .1v.1c2.8.4 4.8 2.3 7.3 3.3l.4-1.5c-2.6-.6-5-2-7.7-1.9zm25 .9l-.4.2c-.3 2.5 1.3 3.3 2.2 5.5 1.2-2.4 0-4.2-1.8-5.7zm-34.2 5.3a3 3 0 00-1 1.8c-.5 2.2 1 4.6 3.2 5 1.3.8.6-.3 0-.8a8.2 8.2 0 01-2.2-6zm21.7 1.1c-1 2.2 1 5.2 3.4 5.2-1-1.8-2-3.6-3.4-5.2zm18.2 1.3c.4.2 2.7 2.7 3 4.2.6 1.6 2.4 3.7 4.1 2.3-.7-1-.5-1.3-1.7-1-2-1.6-3-4.5-5.4-5.5zm-6.3 3.8a12 12 0 013.2 5.7l.4 2.3a4 4 0 00.8-2.4c0-.9-.1-1.8-.5-2.6-.3-.7-1-1.5-1.5-2a4 4 0 00-2.4-1zm-74.2.3c-3.3 3.1-4.6 7.7-7.8 10.9a7 7 0 002-1.5 34 34 0 005.8-9.4zm46.2.3c1 2.1 3.5 3 5.9 2-1.8-1-3.8-1.6-6-2zm11.8 3.3c.3 2.6.5 5.1.5 7.7.2.7-.2 1.7.3 2.1 1.7-3 1.7-7.2-.8-9.8zm13.7 3c-1.2 2.3.6 5 2.4 6.6.3-2.5-1.5-4.5-2.4-6.7zm-48.7 2.1c-2.4.5-4.2 2.3-4 5a22 22 0 004-5zm62.7 2a8 8 0 012.2 4c.3 1.6 1.3 4 3.3 3.4-.2-.4 0-1.8-.9-1.4-2-1.6-2.1-4.8-4.6-6zm-42 3.6c.4 1.7.2 3.4-.4 4.9a12 12 0 01-2.5 4.1 16 16 0 01-8.2 5l.4 1.6c5.1-1.5 9.3-5.4 11-10.5.5-1.6.5-3.6-.3-5zm22.5 1c-.7 4.9-2.2 5.7-3.3 9.5.7-.8 4.2-3.5 4.1-6.2 0-1.1-.3-2.3-.8-3.3zm-46.6.4c-1.3 1.7-1 3.3 0 5zm62 1.3a12 12 0 002.7 5.3c.3-1.8-.5-4.4-2.7-5.3zm-27.3.7c-3.2 3-6.2 8.2-1.8 12.2-1.9-4.2.2-8.1 1.8-12.2zm-58.5 0c-.5 0-.8.7-1.2.9-2 1.4-1.4 5-4 5.8-3.2-.7 1.3 2.6 2.2.2 1.4-2 .9-5 3-6.8zm-3 1.4c-1.6 0-3.2 1.1-3.4 2.6.1 2.5 2.4-2.1 3.3-2.6zm80.2 1c1.3 2.4-2.1 7.2 1.2 9.3-.6-.9-.1-3 0-4.5 0-1.6.3-3.6-1.2-4.8zm7.6 5.8l3.2 6.6c.9-2.8-.2-5.3-3.1-6.6zm12.8.5a11 11 0 011.7 3.4c.4 1.4 1.6 3 3.2 2.5-.2-.3-.3-1.8-.8-1.4-2-.6-2.2-3.5-4-4.5zm-88.3.6c-1.8.6-3.7 1.9-5.2 3.2-1.4 1.1-3 2.2-5 2.2h-.1v1.6a9.4 9.4 0 005.8-3zm55 4.3c-.6 3.4-4.1 7.6-.4 10.8.3.2.2 0 .1-.2-1.5-3.3 1.6-7.4.2-10.6zm-13.4 1.5c-2.4 3.5-5 10-.4 13.1-2.7-3 .3-9.3.4-13zm43 1.9c2.4 2 4.8 3.9 7.2 5.6a7.8 7.8 0 00-7.2-5.6zm-23 1.4c1.2 3 1.8 5.7 1 9.2 2.5-2.4 2-7.1-1-9.2zm10.8 3.3c-1.1 1-1 7.3-1 10.2 1.8-3 2.2-6.9 1-10.2zm-25.7 4c-2.6 3.5-4 9.9-.3 13.3-3-3.1.1-9.3.3-13.2zm37 .9c2.1 3 6.2 7.4 10.6 6.7-4-1-6.3-5.6-10.6-6.7zm-60 2.8c-.2 0-4.1 4.5-6.1 6.8 1.2 3.8 3.1-2.3 3.9-3.4l2.3-3.4zm34 5.3c2 3.3-1.7 7.2-1.8 10.7.9.6 6.5-8.9 1.7-10.7zm73 1a10 10 0 00-3.9.7c.8 1 2 1 3.2 1 3.6-1 2.6-1.7.6-1.7zm-51 0c1 5.4 1.9 10.7 2.3 16 1.7-5.2 1-11.3-2.2-16zm-44.2 1.8c-4.5.3-8 4.6-8 9 1-.4 4.3-7.6 8-9zm31.6 1.8c.6 2.8 1.2 6 1 9 2.2-2.8 1.8-6.4-1-9zm24 1.8c.1 1 .6 1.9 1 2.8 2.7 5 2.4-2.1-1-2.8zm-44 4.8a16 16 0 00.3 15c-.3-5-.4-10-.3-15zm-29.3 1.5c-.2.2-2 6.9-5.4 8.3 1 3.4 4.1-2.3 4.4-3.6zm183.3.7c6.3 3.7 12.7 7.9 18.2 12.9a29.1 29.1 0 00-18.2-13zm-166 8.9c-1 .5-4 7.7-7.5 9.4 4.3-.7 7.8-5 7.5-9.4zm198 1.2c.3 2 7.1 18.2 7.6 26.5.8.6 1 .3 1.5-.2-1.8-11.8-5.9-18.8-9.1-26.3zm-162.1.4c4.3 2.6 4.7 8 6.7 12.2 1-.9-.8-12.2-6.7-12.2zm27 7.5c-2.7 6.3 1.5 14.4-1.7 18.4 3.2-2.5 2.8-7.6 1.9-11-.8-2.8-.4-6.2-.2-7.4zm-78.4 0c-.2.1-2.5 8.8-3.8 11 3 3 2.6-5.6 3.1-7.5l.7-3.4zm19.6 5.3a10.1 10.1 0 00-2 12.4c-.2-4.2.4-8.4 2-12.4zm12 0L126 189c-3.5 6.4 1.2 13-2 19.6l1.4.6c2.4-4.5 1-11 .4-13.4-.9-3.5 2.3-9.6 2.2-9.6zm176.8 1.7c0 .3.3.6.5.9 4.6 5.8 5.2.2-.5-1zm-53.3 3.4c-.8 5.7-.2 14.2 5.4 17.8 2 2.8 5.6 1 .7-1.3-6.2-2.9-6.1-10.6-6-16.5zm55.1 2.7c3.2 7 5.3.9 0 0zm26.2 1.5c-.4.1.5 1.7 2.8 4.1 0-.3 1.3-1.1.8-1.3-2-2-3.3-2.9-3.6-2.8zm-66.3 2.5c-1.7 0-8.4 3.3-5.5 6.8-.3-2 1.7-3.6 3.3-4.6 2.7-1.6 3-2.2 2.2-2.2zm41.5 1.5c2 8.2 7.5 7 0 0zm18 .8c.5 2 .9 4.2 1 6.3 2 10.5 2-3.1-1-6.3zm4.2 0c3.4 5 2.3 11.9 6.4 16.3-.4-.6-2.6-12.5-6.4-16.3zm-227.6 1c-.5.2-2.7 7.2-2.6 10.3 2.8.2.6-4 1.9-5.7.8-3.6 1-4.8.7-4.7zm94.4 1.6c-1.6 0-6 1.2-6.9 2.3 1.9.5 3.7 0 5.4-.7 2.4-1.1 2.4-1.6 1.5-1.6zm112.2 3.3c-.1 1 0 1.9.1 2.8.2 7.9 3.6 1-.1-2.8zm-134.2.6c-.8.2 1.7 5.9 2.4 7.1 1-2.3-.3-4.7-1.6-6.5zm-60.3 3.6c-.5-.3-3.7 8.1-2.6 11.8 3 0-.4-4.5 1.4-6.5 1.1-3.6 1.3-5.1 1.2-5.3zm113.5 7.8a4.5 4.5 0 004.4 2c8.1-2.8.5-1.6-4.4-2zm-96 .1c-1.3 3.8 0 8 3.1 10.6 3.3 2-4.1-7.4-3.1-10.6zm79.3 1.7a6 6 0 00-.9 0l1.4 1.1c5.1 4.7 4-1-.5-1.1zm63.3 4.2c.1 2.8 4.2 4.5 6.3 2.4a12 12 0 01-6.3-2.4zm-89.3 5.3h-.3c2.2 3 8.3 1.8 11.4.3-3.4-.7-8.3 1-11.1-.3zm-48.6 7.1a6 6 0 002.8 3.4c8 2.5.1-2-2.8-3.4zm171 6.6c-1.6 2.5 1 5 3 6.2 9.2 5.4-1.9-2-3-6.2zm-29 14c-2.2 0-3.6 3.1-4 5 0 9 1-3.4 5-4.8zm47.5 3.7c-3.4 9.8-3 23.2-2.9 34.4 0-11.1 3-24.7 2.9-34.4zM268 278.4c-6 8-12.5 16.2-14.8 26.1 4.4-9 10.5-17 14.8-26.1z" transform="matrix(.25 0 0 .25 50 50)"/><path d="M88 83.4a8 8 0 00-1.8.4c-3.5 1.1-6.9 3.7-10.7 3.4v.1c.6.5 1.5.6 2.3.6 1.4-.1 2.8-.6 4.1-1-.4.4-.8 1.1-1.1 1.8a3.4 3.4 0 002.8 2.6c.4.1.8-.3.6-.7a8.3 8.3 0 010-4.7l2.4-1c2-.8 4.4-.8 6.4.1a7.5 7.5 0 00-5-1.6zm-.5 2.4L87 87a14.2 14.2 0 004.9.6 14 14 0 01-4.4-1.8zm4.4 1.8a14 14 0 00.1 0 14.2 14.2 0 01-.1 0zM79.6 90a15 15 0 01-5 4.7 9.1 9.1 0 006-4l-1-.7zm8.4 4.2c-1.5.9-3.6 1.6-5.5 2.2 1.6.7 5 .5 5.5-2.2z" transform="matrix(.25 0 0 .25 50 50)"/></g></g></svg>