<svg xmlns="http://www.w3.org/2000/svg" fill="#d7374a" stroke="#000" viewBox="50 50 200 200">
  <metadata source="http://wappenwiki.org/images/4/4b/Leijonhufvud_Gr%C3%A4fsn%C3%A4s.svg" license="https://creativecommons.org/licenses/by-nc-sa/3.0"/>
  <g id="laurelWreath" stroke-width="2" transform="translate(-147 153) scale(0.248)">
    <g>
      <g>
        <path d="M1037.9-342c-1.4-1.1-5.6-2.1-8.5-3.9-1.9.1-3.7 1.3-7.1 1-1.9-.2-3.9-.9-5.9-2.1-6.4-3.8-8.8-10.7-11.9-17-.6-1.2-1.2-2.4-1.6-3.6-.1-.3-.5-1.1-.2-1.5.5-.7 2-.2 2.7 0 3.4 1 6.9 1.7 10.3 2.8 2.4.8 4.9 1.5 7.2 2.8 3.6 2 6.9 5.4 8.1 9.5.8 2.8-.4 4.5.2 6 2.5 1.5 3.9.9 6.8 2.4"/>
        <path d="M1057.7-325.9c-2-.8-7.4-.6-11.4-1.8-2.2.7-4 2.7-8.2 3.5-2.3.4-5 .2-7.8-.6-8.8-2.5-14-9.9-19.8-16.4a55.2 55.2 0 0 1-3.1-3.7c-.3-.4-1-1.2-.8-1.7.4-1 2.3-.9 3.2-.9 4.4.1 8.8-.3 13.2 0 3.2.2 6.3.2 9.4 1 5 1.2 10 4.2 12.8 8.6 1.9 3 1 5.5 2.1 7.1 3.5 1 5-.2 8.9.6"/>
        <g>
          <path stroke="none" fill="#000" d="M1047.2-329.9c-5.6-2-10.4-5.5-15.8-7.7-5.4-2.1-11.2-3.3-16.6-5.5 2.8.9 5.6 1.8 8.4 2.4 2.9.6 5.7 1.2 8.5 2.1 5.6 1.8 10.5 5.1 16.1 6.8l-.6 1.9z"/>
        </g>
      </g>
      <g>
        <path d="M951.5-342c1.4-1.1 5.6-2.1 8.5-3.9 1.9.1 3.7 1.3 7.1 1 1.9-.2 3.9-.9 5.9-2.1 6.4-3.8 8.8-10.7 11.9-17 .6-1.2 1.2-2.4 1.6-3.6.1-.3.5-1.1.2-1.5-.5-.7-2-.2-2.7 0-3.4 1-6.9 1.7-10.3 2.8-2.4.8-4.9 1.5-7.2 2.8-3.6 2-6.9 5.4-8.1 9.5-.8 2.8.4 4.5-.2 6-2.5 1.5-3.9.9-6.8 2.4"/>
        <path d="M931.7-325.9c2-.8 7.4-.6 11.4-1.8 2.2.7 4 2.7 8.2 3.5 2.3.4 5 .2 7.8-.6 8.8-2.5 14-9.9 19.8-16.4l3.1-3.7c.3-.4 1-1.2.8-1.7-.4-1-2.3-.9-3.2-.9-4.4.1-8.8-.3-13.2 0-3.2.2-6.3.2-9.4 1-5 1.2-10 4.2-12.8 8.6-1.9 3-1 5.5-2.1 7.1-3.5 1-5-.2-8.9.6"/>
        <g>
          <path stroke="none" fill="#000" d="M941.6-331.8c5.6-1.7 10.6-4.9 16.1-6.8 5.6-1.8 11.4-2.5 17-4.5a81 81 0 0 1-8.3 2.8c-5.7 1.5-11 3.6-16.1 6.5a58.6 58.6 0 0 1-8 3.8c-.1.1-.7-1.8-.7-1.8z"/>
        </g>
      </g>
      <g>
        <path d="M934.6-330.2c1.7-1.7 7.1-4 10.6-7 2.5-.3 5.3.9 9.8-.2 2.5-.7 5.1-2 7.5-4.1 7.7-6.5 9.6-16.3 12.4-25.5l1.4-5.2c.1-.5.5-1.6 0-2.1-.9-.8-2.7.2-3.6.6-4.4 2.1-8.9 3.7-13.2 6-3.1 1.6-6.2 3.1-9 5.3a22.6 22.6 0 0 0-8.9 14.5c-.5 3.9 1.5 6 1.1 8.1-3.1 2.6-5.1 2.1-8.6 4.6"/>
        <g>
          <path stroke="none" fill="#000" d="M941.9-340.5c4.8-4.2 8.4-9.7 13.1-14.1 4.8-4.3 10.3-7.7 15-12.3-4.4 4.7-9.7 8.5-14.2 13a72.7 72.7 0 0 0-6.1 7.4c-1.9 2.6-4 5.1-6.4 7.4l-1.4-1.4z"/>
        </g>
      </g>
      <g>
        <path d="M925.5-302.4c.2-2.2 2.7-6.9 3.4-11 1.6-1.7 4.2-2.4 6.7-5.8 1.4-1.9 2.4-4.4 2.9-7.2 1.6-9-2.7-17-6-25-.6-1.5-1.2-3-2-4.4-.2-.4-.6-1.4-1.2-1.5-1.1-.1-1.8 1.7-2.2 2.5-1.9 4-4.1 7.7-5.8 11.8-1.2 2.9-2.6 5.8-3.3 8.9-1.1 5-.6 10.9 2.1 15.3 1.9 3 4.5 3.3 5.5 5.1-.7 3.6-2.4 4.4-3.4 8.2"/>
        <path d="M921.3-307.6c.8-2 4.7-5.7 6.6-9.5 2-1.1 4.8-1 8.1-3.5 1.9-1.4 3.6-3.4 5-6 4.3-8.1 2.6-17 1.9-25.6l-.6-4.8c-.1-.5-.2-1.5-.7-1.8-1-.4-2.3 1.1-2.8 1.7-3 3.2-6.3 6.1-9.1 9.5-2.1 2.4-4.2 4.7-5.8 7.5a21.4 21.4 0 0 0-2.7 15.2c.9 3.5 3.3 4.5 3.7 6.5-1.7 3.2-3.6 3.5-5.7 6.8"/>
        <path d="M904.6-285c.2-2.2 2.7-6.9 3.4-11 1.6-1.7 4.2-2.4 6.7-5.8 1.4-1.9 2.4-4.4 2.9-7.2 1.6-9-2.7-17-6-25-.6-1.5-1.2-3-2-4.4-.2-.4-.6-1.4-1.2-1.5-1.1-.1-1.8 1.7-2.2 2.5-1.9 4-4.1 7.7-5.8 11.8-1.2 2.9-2.6 5.8-3.3 8.9-1.1 5-.6 10.9 2.1 15.3 1.9 3 4.5 3.3 5.5 5.1-.7 3.6-2.4 4.4-3.4 8.2"/>
        <g>
          <path stroke="none" fill="#000" d="M923.9-318.8c2.7-5.2 3.8-11 6.3-16.3 2.6-5.3 6.1-10 8.5-15.4a95.4 95.4 0 0 1-3.7 7.9 62.5 62.5 0 0 0-6.5 16.1c-.8 2.8-1.6 5.7-2.8 8.4l-1.8-.7z"/>
        </g>
      </g>
      <g>
        <path d="M910.8-291.5c.2-2.4 3.1-7.6 3.9-12.1 1.8-1.8 4.7-2.6 7.5-6.3 1.6-2.1 2.7-4.8 3.3-7.9 1.9-9.9-2.7-18.8-6.2-27.6-.7-1.6-1.3-3.3-2.1-4.9-.2-.4-.7-1.6-1.3-1.6-1.2-.1-2 1.8-2.5 2.7-2.1 4.4-4.6 8.5-6.6 12.9-1.4 3.2-2.9 6.3-3.8 9.7a23 23 0 0 0 2.1 16.9c2 3.4 4.9 3.7 5.9 5.7-.8 4-2.7 4.8-3.8 9"/>
        <g>
          <path stroke="none" fill="#000" d="M910-304.1c1.1-6.3.4-12.8 1.4-19.2 1-6.4 3.2-12.5 4-18.9-.5 6.4-2.3 12.7-3 19.1-.3 3.2-.2 6.4-.1 9.6.1 3.2.1 6.5-.3 9.8l-2-.4z"/>
        </g>
      </g>
      <g>
        <path d="M900.3-280.8c2-1.3 5.1-6.3 8.7-9.2.7-2.4 0-5.3 1.9-9.6 1.1-2.4 2.9-4.7 5.4-6.7 7.8-6.5 17.8-6.6 27.2-7.8l5.3-.5c.5 0 1.7-.2 2 .3.7 1-.6 2.7-1.2 3.4-2.8 3.9-5.2 8.1-8.2 12-2.2 2.8-4.1 5.6-6.7 8a23.4 23.4 0 0 1-15.8 6.3c-3.9-.2-5.6-2.5-7.8-2.5-3.1 2.6-3 4.7-6.1 7.7"/>
        <g>
          <path stroke="none" fill="#000" d="M910.6-287.9c5.3-3.8 11.4-6.1 16.8-9.7 5.3-3.6 9.9-8.2 15.3-11.7-5.3 3.8-9.6 8.6-14.7 12.6-2.6 2-5.4 3.6-8.2 5.2a73.2 73.2 0 0 0-8 5.2l-1.2-1.6z"/>
        </g>
      </g>
      <g>
        <path d="M1054.8-330.2c-1.7-1.7-7.1-4-10.6-7-2.5-.3-5.3.9-9.8-.2-2.5-.7-5.1-2-7.5-4.1-7.7-6.5-9.6-16.3-12.4-25.5l-1.4-5.2c-.1-.5-.5-1.6 0-2.1.9-.8 2.7.2 3.6.6 4.4 2.1 8.9 3.7 13.2 6 3.1 1.6 6.2 3.1 9 5.3 4.5 3.4 8.2 8.8 8.9 14.5.5 3.9-1.5 6-1.1 8.1 3.1 2.6 5.1 2.1 8.6 4.6"/>
        <g>
          <path stroke="none" fill="#000" d="M1046.1-339c-4.7-4.5-8-10.2-12.5-14.8-4.5-4.6-9.8-8.3-14.2-13 4.6 4.5 10.1 7.9 15 12.3 2.4 2.2 4.5 4.7 6.6 7.2 2.1 2.5 4.2 4.8 6.5 6.9l-1.4 1.4z"/>
        </g>
      </g>
      <g>
        <path d="M1063.9-302.4c-.2-2.2-2.7-6.9-3.4-11-1.6-1.7-4.2-2.4-6.7-5.8a17.3 17.3 0 0 1-2.9-7.2c-1.6-9 2.7-17 6-25 .6-1.5 1.2-3 2-4.4.2-.4.6-1.4 1.2-1.5 1.1-.1 1.8 1.7 2.2 2.5 1.9 4 4.1 7.7 5.8 11.8 1.2 2.9 2.6 5.8 3.3 8.9 1.1 5 .6 10.9-2.1 15.3-1.9 3-4.5 3.3-5.5 5.1.7 3.6 2.4 4.4 3.4 8.2"/>
        <path d="M1068-307.6c-.8-2-4.7-5.7-6.6-9.5-2-1.1-4.8-1-8.1-3.5a17.8 17.8 0 0 1-5-6c-4.3-8.1-2.6-17-1.9-25.6l.6-4.8c.1-.5.2-1.5.7-1.8 1-.4 2.3 1.1 2.8 1.7 3 3.2 6.3 6.1 9.1 9.5 2.1 2.4 4.2 4.7 5.8 7.5a21.4 21.4 0 0 1 2.7 15.2c-.9 3.5-3.3 4.5-3.7 6.5 1.7 3.2 3.6 3.5 5.7 6.8"/>
        <path d="M1084.8-285c-.2-2.2-2.7-6.9-3.4-11-1.6-1.7-4.2-2.4-6.7-5.8a17.3 17.3 0 0 1-2.9-7.2c-1.6-9 2.7-17 6-25 .6-1.5 1.2-3 2-4.4.2-.4.6-1.4 1.2-1.5 1.1-.1 1.8 1.7 2.2 2.5 1.9 4 4.1 7.7 5.8 11.8 1.2 2.9 2.6 5.8 3.3 8.9 1.1 5 .6 10.9-2.1 15.3-1.9 3-4.5 3.3-5.5 5.1.7 3.6 2.4 4.4 3.4 8.2"/>
        <g>
          <path stroke="none" fill="#000" d="M1063.6-318c-2.4-5.4-3.2-11.3-5.5-16.7-2.2-5.4-5.4-10.4-7.6-15.8 1.3 2.6 2.6 5.2 4.1 7.7 1.5 2.5 3.1 5 4.4 7.6 2.5 5.3 3.7 11.1 6.3 16.3.1.1-1.7.9-1.7.9z"/>
        </g>
      </g>
      <g>
        <path d="M1078.6-291.5c-.2-2.4-3.1-7.6-3.9-12.1-1.8-1.8-4.7-2.6-7.5-6.3a18.9 18.9 0 0 1-3.3-7.9c-1.9-9.9 2.7-18.8 6.2-27.6.7-1.6 1.3-3.3 2.1-4.9.2-.4.7-1.6 1.3-1.6 1.2-.1 2 1.8 2.5 2.7 2.1 4.4 4.6 8.5 6.6 12.9 1.4 3.2 2.9 6.3 3.8 9.7a23 23 0 0 1-2.1 16.9c-2 3.4-4.9 3.7-5.9 5.7.8 4 2.7 4.8 3.8 9"/>
        <g>
          <path stroke="none" fill="#000" d="M1077.4-303.8c-.8-6.5.2-12.9-.4-19.4-.6-6.4-2.4-12.7-3-19.1a76 76 0 0 0 1.9 9.5c.8 3.1 1.7 6.2 2.1 9.5 1 6.4.3 12.9 1.4 19.2l-2 .3z"/>
        </g>
      </g>
      <g>
        <path d="M1089-280.8c-2-1.3-5.1-6.3-8.7-9.2-.7-2.4 0-5.3-1.9-9.6a18.6 18.6 0 0 0-5.4-6.7c-7.8-6.5-17.8-6.6-27.2-7.8l-5.3-.5c-.5 0-1.7-.2-2 .3-.7 1 .6 2.7 1.2 3.4 2.8 3.9 5.2 8.1 8.2 12 2.2 2.8 4.1 5.6 6.7 8a23.4 23.4 0 0 0 15.8 6.3c3.9-.2 5.6-2.5 7.8-2.5 3.1 2.6 3 4.7 6.1 7.7"/>
        <g>
          <path stroke="none" fill="#000" d="M1077.6-286.3c-5-4-11-6.5-16.2-10.4-5.1-4-9.4-8.8-14.7-12.6 5.4 3.5 10 8.1 15.3 11.7a68 68 0 0 0 8.3 4.7c2.9 1.5 5.7 3.1 8.4 5l-1.1 1.6z"/>
        </g>
      </g>
    </g>
    <g>
      <g>
        <g>
          <path d="M1037.6-159.4c-4.1 4.8-8.7 9.1-13.3 13.4l-7.3 6.8c-2.5 2.3-5 3.7-7.9 5.4-2.5 1.5-5.2 2.5-7.9 3.7a83.6 83.6 0 0 0-13.4 7.5c-1.7 1.2-5.4 1.6-7.2 2.7-2.6 1.6-5.6 2.5-8.3 3.7-1.5.7-2.8 1.4-4 2.4-1.3 1-2.3.8-3.8 1.3-.8.3-1.5.8-1.9 1.5-.4.7-.4 1.6-.5 2.4-.1 3.3.6 6.6-.3 9.8-.4 1.5-1.4 2.6-1.7 4.1l-.9 5.3c.1-1.2 2.4-1.8 3.2-2.3l4.6-3.4c3.7-2.8 7.2-5.8 10.7-8.9 7.2-6.5 13.7-12.8 22-17.8 2.7-1.6 5-3.7 7.8-5.1a97.9 97.9 0 0 0 36.7-30.5"/>
          <g>
            <g>
              <path d="M1002.1-129c.7-2.1 1.4-8.4 2.4-12.4-.8-2.2-2.9-3.9-3.8-8-.5-2.3-.4-5 .3-7.8 2.2-8.9 9.4-14.4 15.7-20.4l3.6-3.2c.4-.3 1.1-1 1.7-.8 1 .4 1 2.3 1 3.2.1 4.4.6 8.7.5 13.2-.1 3.2 0 6.3-.6 9.5a21 21 0 0 1-8.2 13.1c-2.9 2-5.5 1.2-7.1 2.4-.9 3.6 1.4 6 .7 9.9"/>
              <g>
                <path stroke="none" fill="#000" d="M1006.7-140.7c1.8-5.6 5.1-10.6 7.1-16.1 1.9-5.5 2.9-11.3 4.9-16.8-.8 2.8-1.6 5.6-2.1 8.5-.5 2.9-1 5.8-1.8 8.6-1.6 5.6-4.7 10.7-6.2 16.3l-1.9-.5z"/>
              </g>
            </g>
            <g>
              <path d="M1099.5-266.8c.3-2.4-1-7.9-.8-12.5-1.1-2-3.2-3.2-4.7-7.3-.8-2.3-1.2-5.1-1.1-8.3.4-10.1 5.7-18.3 10.2-26.6a107 107 0 0 1 2.6-4.6c.3-.4.8-1.5 1.3-1.4 1 .1 1.3 2.1 1.4 3 .8 4.6 2 9.1 2.7 13.8.5 3.4 1.1 6.7 1.1 10.2a29 29 0 0 1-4.9 16.5c-2.2 3.1-4.6 3-5.8 4.8-.1 4.1 1.2 5.2 1.3 9.5"/>
              <path d="M1091.1-263.6c.2-2.5-1.6-8.5-1.6-13.4-1.4-2.2-4.1-3.6-6.2-8a22 22 0 0 1-1.8-8.9c-.1-10.8 6-19.1 11-27.8l2.9-4.7c.3-.4.9-1.5 1.5-1.5 1.2.1 1.7 2.3 1.9 3.3 1.3 5 3 9.8 4.1 14.8.8 3.6 1.7 7.2 1.9 10.9.3 6-1.3 12.7-5 17.3-2.6 3.1-5.5 2.9-6.8 4.8.1 4.3 1.7 5.6 2.1 10.2"/>
              <path d="M1100.8-224.6c.4-2.5-1-8.6-.6-13.5-1.3-2.3-3.8-3.9-5.6-8.4-1-2.6-1.4-5.7-1.2-9.1.7-10.7 7.4-18.6 13-26.9 1-1.5 2.1-3.1 3.3-4.5.3-.4 1-1.4 1.6-1.3 1.2.2 1.5 2.4 1.7 3.4.9 5.1 2.3 10 3 15.1.5 3.7 1.2 7.3 1.1 11-.1 6-2.2 12.6-6.3 16.9-2.8 2.9-5.7 2.5-7.1 4.3-.2 4.3 1.3 5.7 1.4 10.3"/>
              <path d="M1084.7-208.3c1.9-1.7 4.6-7.3 8-10.9.5-2.6-.6-5.4 1-10.1.9-2.6 2.5-5.3 4.8-7.8 7.3-7.9 17.4-9.9 27-12.8 1.8-.5 3.6-1.1 5.4-1.4.5-.1 1.7-.5 2.1 0 .8.9-.4 2.8-.9 3.7-2.5 4.5-4.5 9.2-7.2 13.6-1.9 3.2-3.6 6.4-6.1 9.3a26 26 0 0 1-15.5 9.2c-4 .5-6-1.6-8.2-1.1-2.9 3.2-2.5 5.3-5.4 8.9"/>
              <g>
                <path stroke="none" fill="#000" d="M1092-276.8c.3-6.9 2.5-13.5 3-20.4.5-6.8-.1-13.7.5-20.5-.4 6.9.6 13.7.5 20.6-.2 6.9-2 13.6-2.1 20.4l-1.9-.1z"/>
              </g>
            </g>
            <g>
              <path d="M1095.2-248.1c.8-2.4.4-8.7 1.6-13.4-.9-2.5-3.3-4.6-4.3-9.4-.6-2.7-.5-5.8.3-9.1 2.5-10.5 10.7-16.9 17.8-24l4.1-3.8c.4-.3 1.3-1.2 1.9-1 1.2.4 1.1 2.7 1.1 3.7.1 5.2.7 10.3.6 15.5-.1 3.7 0 7.4-.7 11.1-1.1 5.9-4.4 12-9.3 15.4-3.4 2.4-6.2 1.4-8.1 2.9-1 4.2.4 5.9-.3 10.4"/>
              <g>
                <path stroke="none" fill="#000" d="M1099.4-260.5c2-6.6 5.8-12.5 7.9-19 2.1-6.5 3.2-13.3 5.4-19.8-2.1 6.6-2.6 13.4-4.4 20.1-1.9 6.6-5.4 12.6-7 19.2l-1.9-.5z"/>
              </g>
            </g>
            <g>
              <path d="M1100.2-230c-1-2.2-.9-8.1-2.4-12.5.7-2.4 2.9-4.5 3.5-9.1.4-2.6.1-5.5-.9-8.5-3.1-9.6-11.4-15.1-18.7-21.2l-4.2-3.3c-.4-.3-1.3-1.1-1.9-.8-1.1.5-.9 2.6-.9 3.5.3 4.8 0 9.7.5 14.5.3 3.5.5 6.9 1.4 10.4 1.5 5.4 5 10.9 9.9 13.8 3.4 2 6.1.9 7.9 2.1 1.2 3.9 0 5.5 1 9.8"/>
              <g>
                <path stroke="none" fill="#000" d="M1093.5-240.7c-2-6.1-5.8-11.5-8-17.5-2.2-6.1-3.2-12.5-5.6-18.5 2.6 5.9 4.1 12.2 6.6 18.1 1.2 2.9 2.9 5.7 4.5 8.5a71 71 0 0 1 4.4 8.7l-1.9.7z"/>
              </g>
            </g>
            <g>
              <path d="M1097.1-218.1c-1.4-2-2.6-7.7-4.9-11.7.1-2.5 1.6-5 1.2-9.6-.2-2.6-1.1-5.4-2.7-8.2-4.9-8.8-13.7-12.4-21.7-16.9-1.5-.8-3-1.7-4.6-2.3-.4-.2-1.4-.8-1.9-.4-.9.7-.3 2.7 0 3.6 1.3 4.7 2.1 9.4 3.6 14.1 1.1 3.3 1.9 6.7 3.5 9.8a23 23 0 0 0 12 11.4c3.5 1.2 5.7-.4 7.7.5 1.9 3.5 1.2 5.4 3 9.3"/>
              <g>
                <path stroke="none" fill="#000" d="M1088.5-227.1c-3.2-5.5-7.8-10-11.1-15.5s-5.6-11.5-9.1-16.9c1.8 2.6 3.5 5.3 5.1 8.1 3 5.7 6.5 10.9 10.9 15.6 2.1 2.4 4.2 4.9 6 7.6l-1.8 1.1z"/>
              </g>
            </g>
            <g>
              <path d="M1090.6-207.5c1.4-2.1 2.6-8.3 5-12.5-.2-2.7-2-5.3-1.7-10.2.2-2.8 1.1-5.8 2.7-8.7 5.1-9.5 14.8-13.5 23.5-18.5l5-2.6c.5-.2 1.6-.8 2.1-.5 1 .7.4 2.9.1 3.9-1.3 5-2 10.1-3.5 15.1-1.1 3.6-1.9 7.1-3.6 10.5a24.6 24.6 0 0 1-13 12.4c-3.9 1.4-6.4-.3-8.5.6-2 3.8-1.1 5.8-3 10"/>
              <g>
                <path stroke="none" fill="#000" d="M1098-218.4c3.7-5.9 8.8-10.5 12.7-16.2 3.8-5.7 6.5-12 10.4-17.6-3.7 5.8-6.1 12.2-9.6 18.2-3.5 5.9-8.5 10.8-11.8 16.7l-1.7-1.1z"/>
              </g>
            </g>
            <g>
              <path d="M1072-177c.9-2.2 5.1-6.3 7.2-10.4 2.2-1.3 5.1-1.3 8.8-4.1 2.1-1.6 3.9-3.8 5.5-6.6 4.8-8.8 3.2-18.2 2.7-27.4-.1-1.7-.2-3.4-.5-5.1-.1-.5-.1-1.6-.7-1.8-1.1-.4-2.4 1.2-3.1 1.9-3.3 3.6-6.8 6.8-10 10.6-2.3 2.7-4.6 5.2-6.4 8.2-2.9 4.8-4.4 11-3.2 16.3.8 3.6 3.4 4.6 3.7 6.7-1.9 3.5-3.9 3.9-6.3 7.5"/>
              <path d="M1063.1-176.2c.8-2.3 4.6-6.7 6.4-10.9 2.1-1.4 5-1.7 8.4-4.8 1.9-1.7 3.6-4.1 4.9-7 4.1-9.2 1.8-18.4.6-27.5-.2-1.7-.5-3.4-.9-5-.1-.5-.3-1.6-.8-1.8-1.1-.3-2.3 1.4-2.9 2.2-3 3.8-6.3 7.3-9.1 11.3-2 2.8-4.2 5.5-5.8 8.7-2.5 5-3.6 11.3-2 16.5 1.1 3.6 3.7 4.4 4.2 6.4-1.7 3.7-3.6 4.2-5.7 8"/>
              <path d="M1038.8-136.6c.9-2.2 5.1-6.3 7.2-10.4 2.2-1.3 5.1-1.3 8.8-4.1 2.1-1.6 3.9-3.8 5.5-6.6 4.8-8.8 3.2-18.2 2.7-27.4-.1-1.7-.2-3.4-.5-5.1-.1-.5-.1-1.6-.7-1.8-1.1-.4-2.4 1.2-3.1 1.9-3.3 3.6-6.8 6.8-10 10.6-2.3 2.7-4.6 5.2-6.4 8.2-2.9 4.8-4.4 11-3.2 16.3.8 3.6 3.4 4.6 3.7 6.7-1.9 3.5-3.9 3.9-6.3 7.5"/>
              <g>
                <path stroke="none" fill="#000" d="M1046.4-152c1.9-5.6 5.3-10.5 7.4-16 2-5.4 3.1-11.3 5.2-16.7-.9 2.8-1.7 5.6-2.2 8.5-.6 2.9-1.1 5.8-2 8.6-1.7 5.6-4.9 10.6-6.5 16.2l-1.9-.6z"/>
              </g>
              <g>
                <path stroke="none" fill="#000" d="M1065.3-188.4c2.5-5.8 3.4-12.3 5.8-18.2 2.5-5.9 5.9-11.3 8.1-17.4-1 3-2.2 6-3.5 8.9a72 72 0 0 0-6 18c-.7 3.1-1.4 6.3-2.5 9.3-.1.1-1.9-.6-1.9-.6z"/>
              </g>
            </g>
            <g>
              <path d="M1066.3-179.7c2.1-1.5 5.3-6.8 9.1-10 .7-2.6 0-5.6 1.9-10.2 1.1-2.5 3-5 5.6-7.3 8.1-7.1 18.5-7.6 28.4-9.1 1.8-.3 3.7-.6 5.6-.7.5 0 1.8-.2 2.1.3.7 1-.6 2.8-1.2 3.7-2.9 4.3-5.4 8.8-8.5 12.9-2.2 3-4.3 6-7 8.6a25.2 25.2 0 0 1-16.5 7.2c-4.1 0-5.9-2.5-8.2-2.4-3.2 2.9-3.1 5-6.3 8.3"/>
              <g>
                <g>
                  <path d="M1051.9-159c2.4-1 7.8-8.5 12.1-10.7 1.3-2.4 1.3-5.5 4.2-9.4a22 22 0 0 1 7.1-5.8c9.5-5 19.8-3.1 29.8-2.3 1.9.1 3.7.3 5.6.6.5.1 1.8.2 2 .8.5 1.2-1.3 2.6-2 3.3-3.8 3.5-7.3 7.3-11.3 10.6-2.9 2.4-5.6 4.9-8.8 6.8-5.2 3-11.9 4.6-17.7 3.2-4-1-5.2-3.8-7.5-4.2-3.8 2-3.1 5.2-7 7.6"/>
                  <g>
                    <path stroke="none" fill="#000" d="M1065-167.1c6.3-2.8 13.2-3.9 19.5-6.5 6.3-2.6 12.1-6.4 18.5-8.9-6.3 2.8-11.8 6.8-18 9.9-6.2 2.9-13 4.3-19.1 7.3l-.9-1.8z"/>
                  </g>
                </g>
              </g>
              <g>
                <path stroke="none" fill="#000" d="M1076.9-187.4c5.5-4.2 11.9-6.8 17.5-10.8 5.5-4 10.3-9 15.9-12.9-5.5 4.2-10 9.4-15.3 13.7-5.4 4.3-11.7 7.1-16.9 11.5l-1.2-1.5z"/>
              </g>
            </g>
            <g>
              <path d="M1003-126c2.4-.2 9 1.7 13.6 1.6 2.1 1.4 3.4 4.2 7.5 6.2 2.3 1.2 5.2 1.8 8.4 1.8 10.1.1 18-6.1 26-11.1 1.5-.9 3-1.9 4.4-3 .4-.3 1.4-.9 1.4-1.6-.1-1.2-2.2-1.7-3.1-1.9-4.7-1.3-9.2-3-13.9-4.1-3.4-.8-6.7-1.7-10.3-1.9a23.2 23.2 0 0 0-16.2 5.1c-2.9 2.6-2.7 5.5-4.5 6.9-4-.1-4.2-1.7-8.6-2.1"/>
              <g>
                <path stroke="none" fill="#000" d="M1016.3-129c6.4 0 12.7-1.9 19.1-2.1 6.5-.1 12.9.9 19.3.5-6.4.7-12.9 0-19.3.6-3.2.3-6.3.9-9.4 1.6-3.2.7-6.4 1.3-9.7 1.5v-2.1z"/>
              </g>
            </g>
            <g>
              <path d="M1024.9-139.7c2.3-.7 8.2.1 12.7-.9 2.3 1 4.1 3.4 8.6 4.6 2.5.7 5.5.7 8.6.1 9.9-1.9 16.4-9.5 23.3-16.1l3.8-3.8c.3-.4 1.2-1.2 1-1.8-.3-1.2-2.5-1.2-3.4-1.3-4.8-.3-9.6-1.2-14.5-1.3-3.5-.1-6.9-.4-10.4.1-5.6.8-11.4 3.7-14.9 8.2-2.4 3.1-1.6 6-3.1 7.6-4 .7-3.5-.7-7.8-.2"/>
              <g>
                <path stroke="none" fill="#000" d="M1036.4-145.1c6.3-1.3 12.1-4.4 18.3-5.9 6.3-1.4 12.8-1.7 19.1-3.3-6.1 1.9-12.6 2.6-18.8 4.3a68 68 0 0 0-8.9 3.4c-3 1.3-6 2.5-9.2 3.3l-.5-1.8z"/>
              </g>
            </g>
            <g>
              <path d="M1025.5-145.4c.8-2 1.5-6.4 2.6-10.4-.7-2.2-2.8-3.9-3.6-8.1-.4-2.3-.3-5 .4-7.8 2.4-8.9 9.7-14.2 16-20.1 1.2-1.1 2.4-2.2 3.7-3.1.4-.3 1.2-1 1.7-.8 1 .4.9 2.3.9 3.2 0 4.4.4 8.8.2 13.2-.1 3.2-.1 6.3-.8 9.4a21 21 0 0 1-8.4 12.9c-3 1.9-5.5 1.1-7.1 2.3-.9 3.6.3 4-.5 7.9"/>
              <g>
                <path stroke="none" fill="#000" d="M1030.3-155c1.9-5.6 5.3-10.5 7.4-16 2-5.4 3.1-11.3 5.2-16.7-.9 2.8-1.7 5.6-2.2 8.5-.6 2.9-1.1 5.8-2 8.6-1.7 5.6-4.9 10.6-6.5 16.2l-1.9-.6z"/>
              </g>
            </g>
          </g>
          <g>
            <path stroke="none" fill="#000" d="M968.7-109.5c1.2 2.1.9 4.9 0 7.1-.9 2.2-2.3 4.1-4.2 5.6l1.1-3.3c1.3-3 2.6-6.2 3.1-9.4z"/>
          </g>
        </g>
      </g>
      <g>
        <path d="M951.7-159.4a453.4 453.4 0 0 0 20.6 20.2c2.5 2.3 5 3.7 7.9 5.4 2.5 1.5 5.2 2.5 7.9 3.7 4.7 2.1 9.2 4.6 13.4 7.5 1.7 1.2 5.4 1.6 7.2 2.7 2.6 1.6 5.6 2.5 8.3 3.7 1.5.7 2.8 1.4 4 2.4 1.3 1 2.3.8 3.8 1.3.8.3 1.5.8 1.9 1.5.4.7.4 1.6.5 2.4.1 3.3-.6 6.6.3 9.8.4 1.5 1.4 2.6 1.7 4.1l.9 5.3c-.1-1.2-2.4-1.8-3.2-2.3l-4.6-3.4c-3.7-2.8-7.2-5.8-10.7-8.9-7.2-6.5-13.7-12.8-22-17.8-2.7-1.6-5-3.7-7.8-5.1a97.9 97.9 0 0 1-36.7-30.5"/>
        <g>
          <g>
            <path d="M987.3-129c-.7-2.1-1.4-8.4-2.4-12.4.8-2.2 2.9-3.9 3.8-8 .5-2.3.4-5-.3-7.8-2.2-8.9-9.4-14.4-15.7-20.4l-3.6-3.2c-.4-.3-1.1-1-1.7-.8-1 .4-1 2.3-1 3.2-.1 4.4-.6 8.7-.5 13.2.1 3.2 0 6.3.6 9.5a21 21 0 0 0 8.2 13.1c2.9 2 5.5 1.2 7.1 2.4.9 3.6-1.4 6-.7 9.9"/>
            <g>
              <path stroke="none" fill="#000" d="M980.7-140.1c-1.5-5.6-4.5-10.7-6.2-16.3-1.6-5.7-2.1-11.5-3.9-17.1a89 89 0 0 1 2.5 8.4 63.7 63.7 0 0 0 5.9 16.3c1.3 2.6 2.6 5.3 3.5 8.2l-1.8.5z"/>
            </g>
          </g>
          <g>
            <path d="M889.9-266.8c-.3-2.4 1-7.9.8-12.5 1.1-2 3.2-3.2 4.7-7.3.8-2.3 1.2-5.1 1.1-8.3-.4-10.1-5.7-18.3-10.2-26.6a107 107 0 0 0-2.6-4.6c-.3-.4-.8-1.5-1.3-1.4-1 .1-1.3 2.1-1.4 3-.8 4.6-2 9.1-2.7 13.8-.5 3.4-1.1 6.7-1.1 10.2a29 29 0 0 0 4.9 16.5c2.2 3.1 4.6 3 5.8 4.8.1 4.1-1.2 5.2-1.3 9.5"/>
            <path d="M898.3-263.6c-.2-2.5 1.6-8.5 1.6-13.4 1.4-2.2 4.1-3.6 6.2-8a22 22 0 0 0 1.8-8.9c.1-10.8-6-19.1-11-27.8l-2.9-4.7c-.3-.4-.9-1.5-1.5-1.5-1.2.1-1.7 2.3-1.9 3.3-1.3 5-3 9.8-4.1 14.8-.8 3.6-1.7 7.2-1.9 10.9-.3 6 1.3 12.7 5 17.3 2.6 3.1 5.5 2.9 6.8 4.8-.1 4.3-1.7 5.6-2.1 10.2"/>
            <path d="M888.5-224.6c-.4-2.5 1-8.6.6-13.5 1.3-2.3 3.8-3.9 5.6-8.4 1-2.6 1.4-5.7 1.2-9.1-.7-10.7-7.4-18.6-13-26.9-1-1.5-2.1-3.1-3.3-4.5-.3-.4-1-1.4-1.6-1.3-1.2.2-1.5 2.4-1.7 3.4-.9 5.1-2.3 10-3 15.1-.5 3.7-1.2 7.3-1.1 11 .1 6 2.2 12.6 6.3 16.9 2.8 2.9 5.7 2.5 7.1 4.3.2 4.3-1.3 5.7-1.4 10.3"/>
            <path d="M904.7-208.3c-1.9-1.7-4.6-7.3-8-10.9-.5-2.6.6-5.4-1-10.1-.9-2.6-2.5-5.3-4.8-7.8-7.3-7.9-17.4-9.9-27-12.8-1.8-.5-3.6-1.1-5.4-1.4-.5-.1-1.7-.5-2.1 0-.8.9.4 2.8.9 3.7 2.5 4.5 4.5 9.2 7.2 13.6 1.9 3.2 3.6 6.4 6.1 9.3a26 26 0 0 0 15.5 9.2c4 .5 6-1.6 8.2-1.1 2.9 3.2 2.5 5.3 5.4 8.9"/>
            <g>
              <path stroke="none" fill="#000" d="M895.3-276.7c0-6.8-1.9-13.5-2.1-20.4-.1-6.9.9-13.7.5-20.6.2 3.4.4 6.9.3 10.3-.3 6.9.2 13.6 1.8 20.3.7 3.4 1.2 6.8 1.4 10.3l-1.9.1z"/>
            </g>
          </g>
          <g>
            <path d="M894.2-248.1c-.8-2.4-.4-8.7-1.6-13.4.9-2.5 3.3-4.6 4.3-9.4.6-2.7.5-5.8-.3-9.1-2.5-10.5-10.7-16.9-17.8-24a73.7 73.7 0 0 0-4.1-3.8c-.4-.3-1.3-1.2-1.9-1-1.2.4-1.1 2.7-1.1 3.7-.1 5.2-.7 10.3-.6 15.5.1 3.7 0 7.4.7 11.1 1.1 5.9 4.4 12 9.3 15.4 3.4 2.4 6.2 1.4 8.1 2.9 1 4.2-.4 5.9.3 10.4"/>
            <g>
              <path stroke="none" fill="#000" d="M888.1-260c-1.7-6.6-5.2-12.6-7-19.2-1.8-6.7-2.4-13.5-4.4-20.1 1.1 3.2 2 6.5 2.8 9.9a76.6 76.6 0 0 0 6.6 19.2c1.5 3.1 2.9 6.3 3.9 9.6l-1.9.6z"/>
            </g>
          </g>
          <g>
            <path d="M889.2-230c1-2.2.9-8.1 2.4-12.5-.7-2.4-2.9-4.5-3.5-9.1-.4-2.6-.1-5.5.9-8.5 3.1-9.6 11.4-15.1 18.7-21.2l4.2-3.3c.4-.3 1.3-1.1 1.9-.8 1.1.5.9 2.6.9 3.5-.3 4.8 0 9.7-.5 14.5-.3 3.5-.5 6.9-1.4 10.4-1.5 5.4-5 10.9-9.9 13.8-3.4 2-6.1.9-7.9 2.1-1.2 3.9 0 5.5-1 9.8"/>
            <g>
              <path stroke="none" fill="#000" d="M894-241.4c2.4-6.1 6.4-11.3 8.9-17.2 2.5-5.9 3.9-12.3 6.6-18.1-2.4 6-3.4 12.4-5.6 18.5-1.1 3.1-2.6 6-4.1 8.8a56.4 56.4 0 0 0-3.9 8.7l-1.9-.7z"/>
            </g>
          </g>
          <g>
            <path d="M892.3-218.1c1.4-2 2.6-7.7 4.9-11.7-.1-2.5-1.6-5-1.2-9.6.2-2.6 1.1-5.4 2.7-8.2 4.9-8.8 13.7-12.4 21.7-16.9 1.5-.8 3-1.7 4.6-2.3.4-.2 1.4-.8 1.9-.4.9.7.3 2.7 0 3.6-1.3 4.7-2.1 9.4-3.6 14.1-1.1 3.3-1.9 6.7-3.5 9.8a23 23 0 0 1-12 11.4c-3.5 1.2-5.7-.4-7.7.5-1.9 3.5-1.2 5.4-3 9.3"/>
            <g>
              <path stroke="none" fill="#000" d="M899.2-228.2c3.5-5.4 8.3-9.7 11.9-15 3.6-5.2 6.3-11.1 10-16.3a68.5 68.5 0 0 0-4.6 8.4c-1.4 2.9-2.8 5.8-4.4 8.5-3.3 5.5-8 10-11.1 15.5l-1.8-1.1z"/>
            </g>
          </g>
          <g>
            <path d="M898.7-207.5c-1.4-2.1-2.6-8.3-5-12.5.2-2.7 2-5.3 1.7-10.2-.2-2.8-1.1-5.8-2.7-8.7-5.1-9.5-14.8-13.5-23.5-18.5l-5-2.6c-.5-.2-1.6-.8-2.1-.5-1 .7-.4 2.9-.1 3.9 1.3 5 2 10.1 3.5 15.1 1.1 3.6 1.9 7.1 3.6 10.5a24.6 24.6 0 0 0 13 12.4c3.9 1.4 6.4-.3 8.5.6 2 3.8 1.1 5.8 3 10"/>
            <g>
              <path stroke="none" fill="#000" d="M889.7-217.4c-3.3-5.9-8.3-10.8-11.8-16.7-3.5-6-5.8-12.4-9.6-18.2a114 114 0 0 1 5.3 8.8 73.6 73.6 0 0 0 11.5 16.8c2.2 2.6 4.4 5.3 6.3 8.2l-1.7 1.1z"/>
            </g>
          </g>
          <g>
            <path d="M917.4-177c-.9-2.2-5.1-6.3-7.2-10.4-2.2-1.3-5.1-1.3-8.8-4.1a21.5 21.5 0 0 1-5.5-6.6c-4.8-8.8-3.2-18.2-2.7-27.4.1-1.7.2-3.4.5-5.1.1-.5.1-1.6.7-1.8 1.1-.4 2.4 1.2 3.1 1.9 3.3 3.6 6.8 6.8 10 10.6 2.3 2.7 4.6 5.2 6.4 8.2 2.9 4.8 4.4 11 3.2 16.3-.8 3.6-3.4 4.6-3.7 6.7 1.9 3.5 3.9 3.9 6.3 7.5"/>
            <path d="M926.3-176.2c-.8-2.3-4.6-6.7-6.4-10.9-2.1-1.4-5-1.7-8.4-4.8a20.8 20.8 0 0 1-4.9-7c-4.1-9.2-1.8-18.4-.6-27.5.2-1.7.5-3.4.9-5 .1-.5.3-1.6.8-1.8 1.1-.3 2.3 1.4 2.9 2.2 3 3.8 6.3 7.3 9.1 11.3 2 2.8 4.2 5.5 5.8 8.7 2.5 5 3.6 11.3 2 16.5-1.1 3.6-3.7 4.4-4.2 6.4 1.7 3.7 3.6 4.2 5.7 8"/>
            <path d="M950.6-136.6c-.9-2.2-5.1-6.3-7.2-10.4-2.2-1.3-5.1-1.3-8.8-4.1a21.5 21.5 0 0 1-5.5-6.6c-4.8-8.8-3.2-18.2-2.7-27.4.1-1.7.2-3.4.5-5.1.1-.5.1-1.6.7-1.8 1.1-.4 2.4 1.2 3.1 1.9 3.3 3.6 6.8 6.8 10 10.6 2.3 2.7 4.6 5.2 6.4 8.2 2.9 4.8 4.4 11 3.2 16.3-.8 3.6-3.4 4.6-3.7 6.7 1.9 3.5 3.9 3.9 6.3 7.5"/>
            <g>
              <path stroke="none" fill="#000" d="M941-151.4c-1.6-5.6-4.7-10.6-6.5-16.2-1.7-5.7-2.3-11.5-4.2-17.1 1 2.7 1.9 5.5 2.7 8.4a62.4 62.4 0 0 0 6.2 16.2c1.4 2.6 2.7 5.3 3.7 8.1l-1.9.6z"/>
            </g>
            <g>
              <path stroke="none" fill="#000" d="M922.3-187.7c-2.3-6-2.8-12.5-4.9-18.5-2.1-6-5.2-11.7-7.1-17.7 1.2 3 2.4 5.9 3.9 8.7 1.5 2.8 3 5.7 4.2 8.6 2.4 5.9 3.3 12.3 5.8 18.2l-1.9.7z"/>
            </g>
          </g>
          <g>
            <path d="M923.1-179.7c-2.1-1.5-5.3-6.8-9.1-10-.7-2.6 0-5.6-1.9-10.2-1.1-2.5-3-5-5.6-7.3-8.1-7.1-18.5-7.6-28.4-9.1-1.8-.3-3.7-.6-5.6-.7-.5 0-1.8-.2-2.1.3-.7 1 .6 2.8 1.2 3.7 2.9 4.3 5.4 8.8 8.5 12.9 2.2 3 4.3 6 7 8.6a25.2 25.2 0 0 0 16.5 7.2c4.1 0 5.9-2.5 8.2-2.4 3.2 2.9 3.1 5 6.3 8.3"/>
            <g>
              <path d="M937.5-159c-2.4-1-7.8-8.5-12.1-10.7-1.3-2.4-1.3-5.5-4.2-9.4a22 22 0 0 0-7.1-5.8c-9.5-5-19.8-3.1-29.8-2.3-1.9.1-3.7.3-5.6.6-.5.1-1.8.2-2 .8-.5 1.2 1.3 2.6 2 3.3 3.8 3.5 7.3 7.3 11.3 10.6 2.9 2.4 5.6 4.9 8.8 6.8 5.2 3 11.9 4.6 17.7 3.2 4-1 5.2-3.8 7.5-4.2 3.8 2 3.1 5.2 7 7.6"/>
              <g>
                <path stroke="none" fill="#000" d="M923.5-165.3c-6.1-3.1-12.9-4.4-19.1-7.3-6.2-3-11.7-7.1-18-9.9a99 99 0 0 1 9.3 4.4c6 3.4 12.2 6 18.9 7.7 3.3.9 6.6 2 9.8 3.4-.1-.1-.9 1.7-.9 1.7z"/>
              </g>
            </g>
            <g>
              <path stroke="none" fill="#000" d="M911.2-185.8c-5.2-4.4-11.5-7.3-16.9-11.5-5.3-4.4-9.8-9.6-15.3-13.7a83 83 0 0 1 8 6.4c5 4.7 10.5 8.6 16.6 11.8 3 1.6 6 3.4 8.8 5.5l-1.2 1.5z"/>
            </g>
          </g>
          <g>
            <path d="M986.3-126c-2.4-.2-9 1.7-13.6 1.6-2.1 1.4-3.4 4.2-7.5 6.2a18.3 18.3 0 0 1-8.4 1.8c-10.1.1-18-6.1-26-11.1-1.5-.9-3-1.9-4.4-3-.4-.3-1.4-.9-1.4-1.6.1-1.2 2.2-1.7 3.1-1.9 4.7-1.3 9.2-3 13.9-4.1 3.4-.8 6.7-1.7 10.3-1.9 5.6-.3 11.9 1.3 16.2 5.1 2.9 2.6 2.7 5.5 4.5 6.9 4-.1 4.2-1.7 8.6-2.1"/>
            <g>
              <path stroke="none" fill="#000" d="M973-127c-6.5-.4-12.7-2.5-19.1-3.1-6.4-.5-12.9.1-19.3-.6 3.2.1 6.4.1 9.6-.1 3.2-.2 6.4-.5 9.7-.4 6.4.2 12.7 2.1 19.1 2.1v2.1z"/>
            </g>
          </g>
          <g>
            <path d="M964.5-139.7c-2.3-.7-8.2.1-12.7-.9-2.3 1-4.1 3.4-8.6 4.6a19 19 0 0 1-8.6.1c-9.9-1.9-16.4-9.5-23.3-16.1a68.1 68.1 0 0 1-3.8-3.8c-.3-.4-1.2-1.2-1-1.8.3-1.2 2.5-1.2 3.4-1.3 4.8-.3 9.6-1.2 14.5-1.3 3.5-.1 6.9-.4 10.4.1 5.6.8 11.4 3.7 14.9 8.2 2.4 3.1 1.6 6 3.1 7.6 4 .7 3.5-.7 7.8-.2"/>
            <g>
              <path stroke="none" fill="#000" d="M952.6-143.2c-6.3-1.6-11.9-5-18.1-6.8-6.2-1.8-12.7-2.4-18.8-4.3 6.3 1.7 12.7 1.9 19.1 3.3 3.2.7 6.2 1.9 9.2 3 3 1.1 6 2.2 9.1 2.8l-.5 2z"/>
            </g>
          </g>
          <g>
            <path d="M963.9-145.4c-.8-2-1.5-6.4-2.6-10.4.7-2.2 2.8-3.9 3.6-8.1.4-2.3.3-5-.4-7.8-2.4-8.9-9.7-14.2-16-20.1a35.7 35.7 0 0 0-3.7-3.1c-.4-.3-1.2-1-1.7-.8-1 .4-.9 2.3-.9 3.2 0 4.4-.4 8.8-.2 13.2.1 3.2.1 6.3.8 9.4a21 21 0 0 0 8.4 12.9c3 1.9 5.5 1.1 7.1 2.3.9 3.6-.3 4 .5 7.9"/>
            <g>
              <path fill="#000" stroke="none" d="M957.2-154.4c-1.6-5.6-4.7-10.6-6.5-16.2-1.7-5.7-2.3-11.5-4.2-17.1 1 2.7 1.9 5.5 2.7 8.4a62.4 62.4 0 0 0 6.2 16.2c1.4 2.6 2.7 5.3 3.7 8.1l-1.9.6z"/>
            </g>
          </g>
        </g>
        <g>
          <path stroke="none" fill="#000" d="M1020.7-109.5c.5 3.3 1.8 6.4 3.1 9.4l1.1 3.3a13.6 13.6 0 0 1-4.2-5.6c-.9-2.3-1.2-5 0-7.1z"/>
        </g>
      </g>
    </g>
    <g>
      <path class="secondary" stroke-width="2.5" stroke-linejoin="round" d="M1000.1-121.3c-4 7-6.6 26-5.2 34.2 1.2 6.7 3.5 24.9-7.4 33.4-.2-4.2 4-18.6-1.1-24.6-3.2 12.4-8.1 23.8-19.9 25.1 20.7-31.4 8.8-53.2 25.8-68.6"/>
      <path class="secondary" stroke-width="2.5" stroke-linejoin="round" d="M992.7-113.1c3.8 5.8 3.7 13.2 3.8 20.1.1 6.9 1.6 22.9 6.5 27.7.3-3.5.2-16 1.9-19.1 2.9 10.3 7.2 18.3 19 19.2-19.8-25.8-10.6-44.2-27.1-56.6"/>
      <path class="secondary" stroke-width="2.5" stroke-linejoin="round" d="m988.8-133.8.1-.4c.7-2.8 5.7-2.8 7.7-1.8 1.2.6 2.9 2.6 4.3 2.2-1.2.4 3.5 7.8 3.4 8.7-.2 1.5-1.6 2.9-2.2 4.3-.7 1.6-1.2 3.3-1.4 5-2.5-.6-5.4.3-7.3 2l-.9.6c-.8.2-1.4-.5-1.9-1.1a23.7 23.7 0 0 0-5-4.5c-1-.7-2.3-1.5-2.5-2.8-.2-1.6 1.1-2.2 2-3.1 1.3-1.4 2.4-3.1 3.1-4.9.7-1.6.4-2.9.6-4.2z"/>
      <g>
        <path stroke="none" fill="#000" d="m989.5-121.7 1.8-3.6c.4-.9.7-2.1 1.6-3 2.2-2.1 5.4.1 5.4 2.7.1 1.7-.5 2.9-.9 4.2-.6-1.3-.6-2.8-1.1-3.9-.4-1.1-1.5-2.1-2.3-.8a8.8 8.8 0 0 1-4.5 4.4z"/>
      </g>
    </g>
  </g>
</svg>
