<svg xmlns="http://www.w3.org/2000/svg" fill="#d7374a" stroke="#000" viewBox="50 50 200 200">
  <metadata source="http://wappenwiki.org/images/9/9c/Simonetti_Jesi_Ancient.svg" license="https://creativecommons.org/licenses/by-nc-sa/3.0"/>
  <g id="lionHeadErased" stroke-width=".43">
    <path stroke-linejoin="round" d="m97.45 96.36 2.08-7.82-4.59-9.44-2.25 1.85c2.26 2.48 2.41 6.02 2.41 8.15 0 2.13-.88 5.43-2.18 6.32l4.53.94z"/>
    <path class="secondary" d="M96.99 89.14s-5.12-4.27-9.88-4.27c-4.96 0-8.07 2.7-10.8 2.7-6.04 0-5.09-5.77-5.63-5.77-.38.12-.87 1.66-.87 2.64 0 3.49 2.17 6.63 6.48 6.63 4.37 0 6.62-2.73 10.78-2.73 5.58 0 9.38 3.87 9.38 3.87"/>
    <path fill="#F6F6F6" d="M77.45 79.9c-.61 4.24 1.8 6.74 2.26 6.5.53-.25-1.08-3.2 1.31-5.47m-2.5 12.53c-.07-2.43 1.5-3.82 1.8-3.66.4.2-.87 2.39.96 4.27"/>
    <path d="m102.58 65.98-.44-3.97c1.45-.87 3.51-2.03 5.07-1.46 1.32.48 2.02 1.63 2.37 2.9l-7 2.53z"/>
    <path stroke-linejoin="round" d="M129.23 99.07c-1.45-2.1-4.17-2.71-5.85-5.92-1.24-2.39-.53-3.08-1.03-5.42 0 0 .9.66 2.62-.02 1-.5 1.5-1.54 1.46-2.03-1.06.1-2.83.88-4.08-1.45-1.22-2.27-2.65-1.75-2.42-5.13 4.32-.35 5.24-3.68 5.02-3.85-.3-.23-.72.76-3.72.76-2.83 0-2.81-3.18-3.28-4.98-.47-1.17-1.2-2.76-1.9-3.23l-7.49-4.44s-2.85-1.3-5.16-1.49c-2.32-.2-5.03-1.06-6.97-1.06-1.94 0-4.23.31-4.87.77-1.36.92-1.86 1.6-3.12 1.84-1.48.2-3.34.3-5.53.93-1.33.39-2.68 1.09-4.22 1.46-1.34.33-5.17.67-5.43 1.2-.12.32-.43 3.08.97 4.22 0 .12-.52.79-.52 3.13s1.23 3.3 2.27 4.43c1.07 1.23 3.37 2.67 5.72 2.67s4.43-1.5 6.84-1.5a7.22 7.22 0 0 1 5.62 2.17c2.27 2.18 2.35 5.1 2.35 6.98 0 1.88-.8 5.07-2.11 5.85-1.46.62-5.72 1-9.08.29-3.36-.71-4.58-1.57-5.98-1.93-1.4-.36-2.36-.6-2.36-.15 0 1.07.3.9.52 1.39 0 2.83-2.72 3.41-2.53 3.7.25.45 1.31.67 2.53.23 1.22-.44 1.77-1.08 1.77-1.08s-.08 1 .86 2.18c.35 0 .73-1.79 2.12-2.39.94-.2 1.9.5 5.26.5.9 0 2.3-.36 3.56-.39a14.9 14.9 0 0 1 2.96.26c-.52 2-.6 4.14-3.75 5.46-2.62 1.1-3.82.28-6.43 1.58-2.6 1.28-2.98 3.94-4.87 4.27a4.5 4.5 0 0 1-4.42-1.67c-.16-.18-.43-.09-.5.15-.27 1.11.34 4.35 3.01 5.35 2.04.76 3.8.04 4.72-.53l.56-.38s-.2.16-.56.38c-.78.55-2.16 1.6-2.7 2.46-.99 1.63-1.02 3.52-2.43 4.8-1.14 1.04-3 1.01-4.2.12-.22-.16-.52.06-.44.32a6.03 6.03 0 0 0 6.2 3.98 8.38 8.38 0 0 0 4.14-1.97 15.16 15.16 0 0 0 2.85-3c.68-.95 1.58-2.1 2.74-2.22-1.25 1.2-1.87 2.9-2.28 4.58-.43 1.68-.71 3.4-1.44 4.97a6 6 0 0 1-3.1 3.16c-.23.08-.25.4-.03.51a6.42 6.42 0 0 0 7.43-1.39c1.2-1.34 1.74-3.1 2.65-4.63.9-1.53 2.6-2.76 4.36-2.53-.98 1.8-1.56 3.5-1.35 4.87.24 1.54 1.12 3.1.5 4.54-.6 1.38-1.78 1.49-2.72 2.93-1.12 1.71-.88 4-.01 5.9.12.26.51.19.53-.1.03-.38.09-.76.22-1.06a7.04 7.04 0 0 1 1.25-2.14c.98-1.03 2.47-1.37 3.64-2.17 1.91-1.32 2.74-4.8 3.99-6.75 1.53-2.39 3.63-3.18 5.82-4.99 0 1.22.06 2.65-.38 3.96-.62 1.83-2.92 3.17-3.16 5.11a4.86 4.86 0 0 0 2.02 4.39.28.28 0 0 0 .44-.25c-.18-2.63.24-4.3 2.89-5.2 3.03-1.03 4.66-1.99 5.54-3.6.95-1.75.93-4.32 1.78-5.4-.22 1.47.96 2.73 2 3.8.9.9 1.82 2.08 1.76 3.29 0 .24.28.37.46.21a5.88 5.88 0 0 0 1.8-3.69c.34-2.86-2.02-6.1-1.44-9.81.27-1.79 1.18-2.53 1.18-3.32v-.17.17c.1 1.16.41 2.97 1.94 3.93a4 4 0 0 0 2.76.63c.23-.03.32-.3.17-.46-2.45-2.61-.54-4.72-1.14-7.2-.39-1.6-2.2-3.1-2.69-4.67-.48-1.57-.75-3.27-.26-4.84.86.94.52 1.33 2.87 2.3.92.37 1.6 1.08 1.65 1.83.03.54-.2 1.08-.43 1.6-.1.24.15.47.38.37a4.31 4.31 0 0 0 2.2-2.43 4.42 4.42 0 0 0-.52-3.85z"/>
    <g>
      <path stroke="none" d="M105.16 65.21s1.37-1.13 2.34-1.5c.5-.18 5-2.02 7.15-.47 3.02 2.16.6 7.55.43 8"/>
      <g stroke="none" fill="#000">
        <path d="m105.15 65.21.16-.14.46-.38c.2-.16.45-.36.75-.56.15-.1.31-.2.5-.3l.27-.15.15-.06.15-.07a17.26 17.26 0 0 1 2.9-.92 8.93 8.93 0 0 1 2.62-.16 3.79 3.79 0 0 1 1.74.66l.17.14.17.16c.12.11.21.24.3.36.19.24.35.5.47.78l.04.1.03.11.08.22c.03.14.08.27.1.41.12.57.13 1.12.09 1.64-.03.51-.12 1-.21 1.43a12.75 12.75 0 0 1-1 2.79l-.06-.02.07-.2.2-.58c.14-.49.36-1.18.5-2.05.08-.43.14-.9.16-1.4a5.78 5.78 0 0 0-.13-1.52 3.66 3.66 0 0 0-.66-1.46l-.27-.3c-.05-.04-.09-.1-.15-.13l-.17-.14a2.7 2.7 0 0 0-.72-.39 5.52 5.52 0 0 0-1.66-.24c-.56 0-1.12.06-1.66.16-1.07.19-2.05.49-2.87.78l-.17.05-.14.05-.28.12-.5.26-.79.48-.66.46.02.01z"/>
      </g>
    </g>
    <g stroke="none" fill="#000">
      <path d="M120.11 79.31h-.19l-.5-.05c-.4-.05-.94-.17-1.44-.39l-.36-.18-.34-.21-.15-.12-.13-.12-.12-.11-.1-.12-.17-.23-.1-.18-.08-.17.04-.02a4.17 4.17 0 0 0 .4.52l.1.11.13.1.14.1.15.1a3.22 3.22 0 0 0 .7.31 5.11 5.11 0 0 0 1.85.24l.13-.02h.04v.44zm-11.73 5.73.25.16.28.2.17.1.18.16.4.33.41.4.22.23.2.24.1.11.1.13.2.26a2.35 2.35 0 0 1 .18.27l.17.26.15.28.14.28c.08.18.17.36.22.54.08.17.12.34.16.49l.1.43.04.34.01.21v.08H112l-.02-.08-.07-.2-.1-.31-.08-.18-.08-.2-.22-.46c-.07-.16-.17-.32-.27-.49l-.3-.51-.18-.26-.17-.26-.18-.24-.09-.13-.1-.12-.37-.47-.36-.43a126.74 126.74 0 0 1-.5-.54l-.13-.15c-.09-.1-.17-.17-.23-.25a8.77 8.77 0 0 1-.19-.21l.02-.01zm.31 7.7.11.18.12.22.17.25.2.3.12.16.13.16.13.18.14.16c.08.11.19.22.28.33l.3.32.3.3.3.28.26.24.22.2.19.17a7.38 7.38 0 0 0 .16.14l-.04.05-.2-.08-.22-.1-.28-.16-.15-.1-.16-.1-.33-.26a8.56 8.56 0 0 1-.35-.3l-.32-.33-.3-.37a2.9 2.9 0 0 1-.25-.37l-.11-.18-.1-.19a1.66 1.66 0 0 1-.15-.35l-.1-.3-.06-.23-.04-.22h.03zm-6.1.76.06.04c.04.04.1.08.16.15l.1.12.12.15a3.04 3.04 0 0 1 .44.87 11.35 11.35 0 0 1 .38 1.8l.08.62.09.58.1.55.13.48a5.81 5.81 0 0 0 .2.56l.05.14.08.19.04.06-.06.04-.05-.06-.14-.17-.1-.13-.1-.16-.2-.4-.19-.49c-.05-.18-.12-.36-.16-.55-.1-.4-.16-.82-.21-1.23l-.15-1.22-.1-.55c-.04-.17-.07-.33-.13-.48l-.03-.1-.04-.1-.08-.18-.07-.17-.08-.12a1.82 1.82 0 0 0-.16-.25l.01.01zm-2 5 .03.05.1.16.04.13.03.16v.18l-.05.2a3.34 3.34 0 0 1-.38.85c-.16.29-.35.58-.5.88l-.2.46a7.7 7.7 0 0 0-.18.45l-.06.22-.06.22-.08.4a6.1 6.1 0 0 1-.06.35 6.28 6.28 0 0 1-.05.5h-.06l-.06-.24a7.06 7.06 0 0 1-.03-.27 2 2 0 0 1-.01-.37l.01-.21.02-.23.03-.23.06-.25a5.42 5.42 0 0 1 .94-1.88l.27-.39c.08-.11.15-.23.2-.34a.97.97 0 0 0 .12-.57l-.01-.1-.03-.07-.02-.06h-.02zm-4.52 2.53-.01.35-.05.4c-.02.14-.04.31-.1.5-.04.18-.09.38-.18.58l-.12.31-.08.16-.08.15a4.4 4.4 0 0 1-.96 1.16c-.19.17-.4.32-.58.46l-.6.4-.55.35-.46.34-.2.17-.08.09-.07.08-.13.15-.1.14-.15.2-.04.08-.06-.02.03-.09c.02-.05.04-.14.1-.23l.08-.16.1-.18a3.32 3.32 0 0 1 .78-.83l.53-.4.57-.41.56-.44a4.39 4.39 0 0 0 .5-.5l.22-.26.2-.28.08-.14.09-.14.15-.27.23-.54.06-.13.04-.12.07-.22.11-.36.09-.34z"/>
      <polygon points="90.04 67.82 88.54 67.9 88.53 67.85 89.97 67.39"/>
      <path d="m89.17 64.39.02.08.08.24c.04.1.1.21.2.32.1.1.23.2.4.24l.12.04h.14l.32.03.32-.01.33-.03.34-.07.36-.1.75-.2c.12-.03.26-.04.4-.06l.4-.01c.13 0 .27 0 .4.03l.37.07.35.1.17.05.16.07c.22.08.41.16.58.26l.47.24.34.22.3.19-.03.05-.33-.13-.37-.15-.5-.18-.57-.2-.16-.04-.16-.04-.34-.07-.34-.06h-.17l-.18-.02-.36.01-.35.06c-.23.04-.48.12-.73.18l-.37.08a5.24 5.24 0 0 1-.37.06c-.13 0-.25.02-.38 0l-.36-.01-.32-.06h-.08l-.04-.02h-.04l-.17-.05a1.03 1.03 0 0 1-.43-.38 1 1 0 0 1-.16-.4c-.04-.1-.04-.2-.04-.26v-.1l.03.03zm8 .35-.26-.1-.3-.14-.38-.15-.46-.17-.53-.18-.28-.08-.28-.09-.3-.07-.28-.08-.6-.13-.28-.05-.28-.04a4.7 4.7 0 0 0-.53-.05h-.25l-.22.01-.11.01-.1.03-.2.03a5.11 5.11 0 0 0-.5.13l-.04.02-.06-.03.01-.03.04-.04.19-.13c.08-.04.18-.1.3-.14l.2-.07.1-.03.12-.04a5.2 5.2 0 0 1 1.4-.05l.3.04a6.39 6.39 0 0 1 .93.22l.3.1a8.88 8.88 0 0 1 .56.2l.52.24.44.25.2.12.17.12.27.19.22.18h-.02zm8.89 44.6-.33-.15-.16-.1-.16-.1-.15-.12-.15-.12-.14-.13-.13-.14-.25-.3-.2-.32-.1-.16-.1-.17-.07-.17-.07-.18-.13-.37-.1-.36a5.75 5.75 0 0 1-.15-1.51l.02-.37.03-.37.14-.18a.22.22 0 0 0-.1.05.15.15 0 0 0-.04.11v.01-.04l-.01-.08-.02-.15-.06-.3a5.48 5.48 0 0 0-.28-.9l-.14-.27-.08-.13-.1-.13-.1-.12-.12-.1.03-.06c.2.1.37.25.52.42a3.46 3.46 0 0 1 .6 1.2l.09.32.03.17.01.08v.11c0 .03-.02.08-.04.1l-.1.07.14-.18v.73c0 .23 0 .48.03.72l.05.35.05.35.09.34.1.35.05.17.06.16.14.32.17.31.1.15.1.15.1.14.12.14.11.14.13.13.13.12.14.12c.09.09.2.15.29.23l.01.03zm.24-40.97-.07-.06-.07-.07-.08-.1-.07-.15-.07-.16-.05-.18-.03-.2-.03-.37v-.56l.02-.07v-.02l.41.09v.02l-.03.05-.05.2-.06.3c0 .11-.03.23-.03.35v.17l.01.17.04.16.04.14.05.1.06.08.05.06-.04.05z"/>
      <path d="m112.28 63.86-.5.05-.26.03-.3.04-.34.06-.38.09-.4.12-.43.14-.44.17-.45.2c-.3.14-.6.32-.9.5a9.72 9.72 0 0 0-1.26.96l-.2.18-.18.18a6.2 6.2 0 0 0-.63.8 4.48 4.48 0 0 0-.66 1.64 2.31 2.31 0 0 0 0 .7c.03.2.1.38.19.5a.61.61 0 0 0 .39.23v.07l-.14-.01a.66.66 0 0 1-.35-.2 1.34 1.34 0 0 1-.28-.53 3.64 3.64 0 0 1-.08-.36V69a4.25 4.25 0 0 1 .62-1.82c.2-.3.4-.59.66-.87l.2-.2.19-.2.43-.37a8.77 8.77 0 0 1 1.4-.89l.23-.11.24-.11.47-.2.47-.14.45-.12.43-.09.4-.05.35-.03.3-.01h.28l.37.02h.13l-.02.05zM107.63 71l.04-.03.1-.09.1-.14.15-.19.07-.12.08-.13.14-.27c.04-.1.1-.2.13-.31l.06-.17.05-.16.11-.33.09-.33.07-.31.05-.29.05-.24.03-.2.03-.17h.07l.04.17.04.2.02.25.01.31-.03.34-.06.37-.11.36-.06.18a1.28 1.28 0 0 1-.09.18 1.28 1.28 0 0 1-.09.17l-.1.16a2.74 2.74 0 0 1-.43.5l-.21.16a1.07 1.07 0 0 1-.27.12h-.06l-.04.02.02-.01zm4.8.7.07-.04.16-.1.1-.07.13-.1.13-.11.06-.07.06-.07.13-.16.07-.09.06-.1.13-.2.13-.21.23-.47a7.33 7.33 0 0 0 .39-1.04l.16-.51.14-.49.12-.43.23-.92h.06l.02.27c0 .18 0 .41-.04.7a7.49 7.49 0 0 1-.15.97l-.14.55a10.87 10.87 0 0 1-.41 1.08l-.28.5-.16.22-.17.2-.17.18-.17.15-.18.13a.64.64 0 0 1-.16.1l-.15.07-.14.05c-.07.04-.15.05-.19.06h-.06v-.06zm-35.57-2.64-.05.1-.07.12-.07.1-.09.1c-.12.13-.27.21-.4.3l-.43.23a5.14 5.14 0 0 0-.4.25h-.02l-.15.1-.14.1-.06.07-.07.06-.11.13-.22.29-.1.15-.04.07-.04.08-.38-.2.07-.09.06-.09.13-.16.28-.3.15-.13.07-.07.09-.06.17-.11.18-.1.44-.2.45-.2a1.4 1.4 0 0 0 .4-.23l.1-.07.07-.09.06-.1.07-.1.05.05zM95.34 80.5l.1.01a1.23 1.23 0 0 1 .5.26l.14.13.13.15.1.16.09.17.05.16.03.15c.03.1.01.18.01.23v.1l-.07.02-.06-.06-.07-.08-.07-.1a.75.75 0 0 0-.09-.1l-.08-.13-.1-.13-.1-.14-.19-.27-.17-.24-.12-.2-.04-.07v-.02zm2.18.95.08.03.16.11c.11.1.24.27.33.45.04.1.07.2.08.29.03.1.03.18.03.27-.01.16-.06.26-.06.26l-.06.02-.06-.06-.04-.06-.05-.09-.12-.2-.1-.25-.1-.25-.05-.24-.02-.18v-.08l-.02-.02zm-4.3-12.73-.17.1c-.05.04-.12.08-.2.11l-.25.15-.28.19-.15.1-.15.1-.16.13-.16.13-.32.25-.31.27-.3.27-.28.25-.24.24-.52.5-.05-.04s.02-.08.08-.18l.11-.2.16-.25.1-.14.1-.15.26-.3.3-.3.32-.29c.12-.08.23-.18.36-.26a2.57 2.57 0 0 1 .36-.22l.18-.1.18-.07.33-.13.3-.09.22-.04.2-.03h-.02zm-19.46 1.02-.04-.06-.06-.17a1.03 1.03 0 0 1-.04-.29 1.22 1.22 0 0 1 .23-.82.8.8 0 0 1 .52-.3h.15l.17.02c.1.02.2.08.29.12l.42.27c.13.06.26.1.41.1a.8.8 0 0 0 .4-.1c.12-.06.22-.14.33-.25.1-.1.23-.23.42-.27h.23l.1.02.1.05c.12.05.2.14.24.2a.5.5 0 0 1 .09.17l.02.06-.07.03-.03-.05-.12-.11a.57.57 0 0 0-.21-.11l-.06-.01h-.17l-.03.02c-.07.03-.16.13-.25.23-.1.12-.22.26-.39.36a1.24 1.24 0 0 1-1.19.02c-.18-.1-.32-.21-.45-.3a.47.47 0 0 0-.18-.09l-.07-.02h-.11.01-.01c-.1 0-.21.06-.31.13a.93.93 0 0 0-.2.3c-.05.1-.09.21-.1.32l-.03.27v.17l.02.06-.03.03zm12.67 3.03-.22-.1-.54-.28-.37-.18-.4-.2-.44-.18-.46-.18-.47-.16-.46-.15-.43-.13-.4-.1-.33-.1-.26-.08-.22-.06.01-.06h.5l.36.02c.25.02.55.06.87.14l.48.12.5.17.48.2.45.22.4.25c.12.07.23.17.34.25l.47.4.16.17-.02.02zm-9.03-2.95v.1l-.02.1-.03.14a.97.97 0 0 1-.19.3c-.1.1-.2.17-.31.24-.21.13-.44.21-.62.27L76 71l-.08.01-.03-.05.05-.08a1.7 1.7 0 0 1 .4-.37l.3-.18.15-.09.13-.07.12-.08.1-.07.1-.08.08-.06.08-.07zm18.97 3.24-.05.05-.12.07c-.11.04-.25.07-.38.04a.67.67 0 0 1-.46-.28l.02-.07.06-.02.12-.04c.1-.02.23-.02.35 0a.75.75 0 0 1 .36.18l.04.03.05.03v.01zm-1.8.42-.01.05-.03.05-.04.02-.03.02c-.04.03-.1.04-.16.05a.45.45 0 0 1-.17 0 .46.46 0 0 1-.27-.17l-.06-.1-.02-.05.03-.06.04-.02.1-.04a.57.57 0 0 1 .28.02l.06.02.05.03.1.06.02.02.02.03.05.03.04.02v.02zm3.38-1.2-.03.06-.1.1c-.1.06-.23.1-.36.11a.64.64 0 0 1-.36-.08L97 72.4l-.05-.04v-.07l.05-.03.11-.06c.1-.05.22-.08.34-.08s.23.03.33.07l.06.03.06.02.05.02.01.02zm1.32-.98-.03.05a.29.29 0 0 1-.1.1.63.63 0 0 1-.33.16.82.82 0 0 1-.37-.03l-.12-.07a.32.32 0 0 1-.04-.03v-.06l.04-.05.11-.07c.09-.06.2-.1.32-.1.12-.02.24 0 .33.02l.07.02.05.03.06.02zm1.2-.95-.06.03-.05.03-.07.03a.94.94 0 0 1-.32.1.89.89 0 0 1-.34-.04l-.12-.06a.32.32 0 0 1-.04-.03l-.01-.06.04-.05.1-.08a.8.8 0 0 1 .35-.11.8.8 0 0 1 .36.09l.12.08.03.04v.03zm-11.62 7.24v.27l-.03.19-.02.1-.03.11c-.03.08-.05.16-.1.24l-.14.23-.07.12-.09.1-.19.21-.21.17c-.08.05-.14.1-.22.13l-.2.1-.18.06a.43.43 0 0 1-.14.03l-.13.03-.02-.07.32-.29.15-.14.16-.15.17-.17.17-.18.09-.08.07-.1.15-.18.13-.18.07-.09.05-.09.1-.15.07-.11.07-.11zm12.33 6.64.08-.17c.05-.1.12-.26.23-.44l.18-.27a6.58 6.58 0 0 1 .5-.58l.3-.28.33-.26.32-.22.32-.2.29-.14.25-.12.2-.08.19-.05.03.05-.14.12-.16.14-.21.17-.25.2-.28.23-.3.24-.3.24-.3.25-.28.24-.26.24-.24.21a7.58 7.58 0 0 1-.35.33l-.14.13v.02zm6.86-4.6.16-.19.2-.21.1-.13.12-.15.13-.16.12-.18c.09-.13.19-.25.26-.39l.26-.43.12-.22.1-.24.11-.23.1-.24a6.1 6.1 0 0 0 .17-.47l.07-.22.07-.22.1-.4.09-.36.05-.26.03-.19.02-.06h.06l.03.25.01.28v.38l-.03.21-.03.23-.1.48-.07.25-.05.12-.04.13-.1.26-.11.24c-.05.09-.08.18-.13.25l-.14.24c-.09.16-.2.3-.3.43-.1.14-.22.26-.32.38l-.16.16-.16.14-.3.23-.23.15-.21.13v.01zm4.25.56v.25l.03.12.03.14.04.16.07.17a4.07 4.07 0 0 0 .2.37c.07.13.16.24.26.37.2.26.43.53.64.83a4.23 4.23 0 0 1 .54.95 2.25 2.25 0 0 1 .12.96l-.02.2-.04.19c-.02.1-.06.2-.1.28l-.07.17-.03.05-.07-.02.03-.25.03-.28-.01-.35a2.76 2.76 0 0 0-.22-.81 5.56 5.56 0 0 0-.51-.86l-.31-.43-.3-.43c-.1-.15-.17-.3-.24-.44-.06-.15-.11-.3-.14-.44l-.03-.2v-.35l.02-.14.05-.18.02-.06v.03z"/>
      <polygon points="95.44 67.74 94.38 67.58 94.52 67.17 95.46 67.69"/>
      <path d="m86.2 71.65-.15-.05-.17-.07-.21-.08L84.5 71c-.42-.16-.84-.32-1.16-.46a2.46 2.46 0 0 1-.37-.18l-.14-.08.02-.06h.16c.11 0 .25.02.42.04s.38.07.58.12l.32.1.33.11.32.14.3.15c.2.1.37.23.5.33l.33.28.1.12-.02.03zM98.4 88.54l.03.58v.6c-.01.19-.01.39-.03.58l-.08.59-.11.58-.08.29-.08.28c-.12.37-.28.73-.43 1.1-.08.18-.16.35-.22.53l-.04.13-.03.13-.02.13-.01.15-.03.58.02.57.02.6c0 .2-.02.42-.11.62s-.21.38-.34.53a3.85 3.85 0 0 1-.2.22l-.2.22h-.02l-.02.02-.14.08-.15.08-.15.06-.16.06-.08.02-.07.02-.16.03-.16.02-.16.01h-.32l-.32-.05a2.63 2.63 0 0 1-.47-.13l-.16-.06.18-.39.11.05.13.05.27.07.28.05h.56l.13-.03h.07l.06-.03.13-.04.13-.05.13-.06.13-.06-.04.02.2-.2.2-.2c.13-.15.24-.3.31-.45.08-.15.1-.32.1-.51v-1.17l.05-.58.01-.15.02-.17.05-.14.05-.15c.07-.2.16-.37.24-.55a10.39 10.39 0 0 0 .56-1.35l.09-.28.14-.56.1-.58c.02-.2.02-.39.05-.58l.02-.58-.01-.59.03.04zm-19.64-21.2.39-.12.43-.15a15.3 15.3 0 0 0 .55-.22l.31-.14.34-.16.7-.37.74-.4c.26-.13.52-.28.83-.38l.07-.02h.03l.03-.02.11-.02.21-.04.43-.09.84-.16.78-.14.7-.12 1.06-.16.41-.05.01.06-.38.12c-.25.08-.6.18-1.03.29l-.69.18-.77.2-.82.19-.43.1-.21.04-.11.02h-.03l-.02.02-.05.01c-.24.07-.51.2-.77.33l-.77.37-.74.32-.35.12-.33.11-.31.09-.28.06-.46.09-.3.03-.1.01h-.02zm27.93 26.62-.06-.04-.17-.12-.25-.22-.14-.15-.14-.19a3.06 3.06 0 0 1-.42-1c-.07-.4-.06-.83-.04-1.22l.02-.59c0-.2 0-.37-.03-.55a2.36 2.36 0 0 0-.16-.6l-.05-.1-.11-.2-.23-.34-.2-.24-.2-.2.05-.06.25.15c.07.05.17.12.25.2l.15.14.15.17c.1.13.2.27.28.44a1.99 1.99 0 0 1 .18.56c.05.2.07.4.07.6l-.01.63-.03.59a4.74 4.74 0 0 0 .11 1.06l.16.44a2.78 2.78 0 0 0 .2.35l.19.26.17.22.01.01z"/>
    </g>
    <path fill="#F6F6F6" d="M94.54 67.37c-.37.4-1.21.56-2.24.68-1.02.1-2.04.06-2.2-.43-.23-.36.41-2.08 1.09-2.08.67-.06 2.42 1.11 3.35 1.83z"/>
    <g stroke="none" fill="#000">
      <path d="M91.68 68.1s-.26-.33-.26-.96c0-.62.37-1.12.01-1.12-.34 0-.86.54-.86 1.28s.22.72.22.72m16.62 31.06.02.08.03.1.04.15.07.17.04.1.06.1c.06.13.16.28.25.44.1.16.24.32.38.5l.46.52.5.55.51.6a8.78 8.78 0 0 1 .88 1.29l.17.33.14.32c.09.21.15.42.2.6l.08.29.05.25.07.42.03.37h-.07l-.1-.34-.12-.38-.18-.5a8.38 8.38 0 0 0-.59-1.15c-.12-.2-.27-.4-.4-.6a12.68 12.68 0 0 0-.96-1.2l-.48-.57a6.69 6.69 0 0 1-.76-1.14 3.19 3.19 0 0 1-.26-.74l-.03-.19c-.02-.12-.02-.2-.02-.27v-.1h-.01zm-6.49 7.05.04.06.06.2c.01.1.01.22-.02.35a3.12 3.12 0 0 1-.43.83l-.33.44-.74.92-.34.48-.16.24-.14.23c-.09.16-.18.31-.25.47l-.1.23-.08.21-.13.39-.08.3a2.25 2.25 0 0 1-.07.26h-.06l-.01-.28c0-.09 0-.2.02-.34l.02-.2.04-.22a4.17 4.17 0 0 1 .66-1.54 5.45 5.45 0 0 1 .76-.98l.4-.43.37-.4.3-.36c.1-.11.17-.22.21-.33l.05-.15c.03-.04.03-.1.04-.14v-.19l-.01-.07-.02.02zm-13.04 10.31.26-.07.28-.1.35-.15c.13-.06.27-.13.4-.21a4.88 4.88 0 0 0 1.24-1.06c.25-.3.48-.6.7-.9a7.38 7.38 0 0 1 .9-1.06 4.58 4.58 0 0 1 .34-.24l.08-.03.06-.03-.06.03-.08.04-.1.07-.23.2-.27.28a8.42 8.42 0 0 0-.55.82 12.4 12.4 0 0 1-1.02 1.42 5.78 5.78 0 0 1-1.64 1.17l-.3.13-.25.1-.1-.4zm19.41 5.73.26-.13.14-.07.14-.08c.1-.07.21-.13.33-.23l.19-.14.2-.16.19-.18.19-.2.2-.22.17-.23.18-.25.16-.25.09-.13.08-.14.13-.27.25-.54.2-.53a5.46 5.46 0 0 0 .12-.48l.09-.42c.02-.13.04-.23.04-.32l.02-.29v.3l-.03.32-.05.43-.11.5-.16.54c-.06.2-.14.37-.22.57l-.12.29-.07.13-.07.14-.15.28-.17.27-.19.26-.18.24-.2.23-.18.2-.2.2-.19.15c-.12.11-.24.2-.35.27l-.15.1-.13.08-.25.14-.2-.38zm15.61-22.8-.13-.19-.15-.19-.21-.25c-.16-.17-.37-.36-.61-.57a2.25 2.25 0 0 1-.33-.38 3.1 3.1 0 0 1-.26-.44c-.15-.3-.27-.6-.43-.86a3.09 3.09 0 0 0-.24-.37l-.28-.28a2.63 2.63 0 0 0-.5-.33l-.2-.1.22.08c.13.07.32.15.52.3.1.08.22.16.31.27.1.1.2.22.3.35.17.26.33.56.5.84a2.7 2.7 0 0 0 .58.7l.67.53.25.24.18.2.14.19-.33.25zM82.22 111.6l.04-.04.06-.03.08-.04.23-.1a5.74 5.74 0 0 1 1.02-.3l.41-.07.2-.05.2-.04a4.84 4.84 0 0 0 1.13-.46l.29-.18.24-.17.17-.15.1-.1.05-.03-.04.04-.1.11-.15.16-.23.2-.28.22-.33.21a4.37 4.37 0 0 1-.98.43l-.22.06-.4.12a5.63 5.63 0 0 0-1.1.46l-.07.05-.05.04a.32.32 0 0 0-.04.03l-.23-.37zm13.14 9.6.17-.25.2-.3.28-.36.35-.41c.11-.15.26-.3.4-.45l.24-.23.24-.22.26-.22.28-.19.29-.18.29-.16c.19-.1.38-.2.57-.28l.55-.23.5-.2.4-.19.32-.15.27-.13-.27.15-.31.17-.4.2-.49.24-.53.27-.56.31-.27.17-.27.2-.25.2-.24.21-.22.23a1.93 1.93 0 0 0-.2.22c-.13.16-.26.3-.37.46l-.3.43-.26.36-.18.3a7.06 7.06 0 0 1-.16.26l-.33-.24zm20.94.13.01-.07.03-.22a9.66 9.66 0 0 0 .05-1.84l-.03-.3v-.15l-.03-.15a3.1 3.1 0 0 0-.18-.58 8.35 8.35 0 0 0-.57-1.12 7.74 7.74 0 0 1-.49-1c-.13-.3-.2-.55-.26-.73l-.07-.29.1.28a8.35 8.35 0 0 0 .84 1.67c.23.33.45.7.64 1.1a3.1 3.1 0 0 1 .24.62l.03.16.02.16.04.31a11.47 11.47 0 0 1 .08 1.9l-.01.23-.01.09-.43-.07zm5.77-9.64-.01-.06-.02-.15a1.98 1.98 0 0 0-.2-.55 4 4 0 0 0-.46-.71l-.63-.8a18.02 18.02 0 0 1-.87-1.23l-.2-.36a7.24 7.24 0 0 1-.28-.57l.34.54.24.34.29.37c.2.26.44.52.67.77l.7.75a4.6 4.6 0 0 1 .56.74 2.57 2.57 0 0 1 .26.62l.05.2v.06l-.44.04zm.23-23.76-.04-.01-.1-.05c-.1-.04-.22-.1-.35-.2a2.46 2.46 0 0 1-.42-.33 3.85 3.85 0 0 1-.44-.42l-.2-.22-.2-.23-.18-.21-.15-.2-.23-.28-.08-.11.1.1.25.25.17.17.2.19.22.19a4.55 4.55 0 0 0 .47.37l.23.16.23.14.2.1a1.93 1.93 0 0 0 .4.16h.02l-.1.43zm-6.7-.12v.06l.05.19.1.25.07.15.1.16c.07.11.14.23.25.35l.32.35c.23.24.5.49.74.77l.35.44a5.46 5.46 0 0 1 .71 1.31l.12.37.07.28.04.18v.06l-.12-.22-.14-.25-.2-.32a9.57 9.57 0 0 0-.5-.76l-.32-.4-.34-.4-.36-.4-.35-.4-.29-.42-.21-.4-.06-.2-.05-.18-.02-.16v-.14l.02-.2.01-.07zm-.11 7.49v.1l.02.27a4.28 4.28 0 0 0 1.12 2.23l.13.15.27.29.58.58.57.6a7.1 7.1 0 0 1 .91 1.31 3.51 3.51 0 0 1 .35 1.23 3 3 0 0 1-.02.45l-.05.28-.03.1v-.38l-.07-.43a4.15 4.15 0 0 0-.87-1.69 8.65 8.65 0 0 0-.53-.59l-.57-.58a15.27 15.27 0 0 1-.85-.91l-.13-.16-.13-.16a4.34 4.34 0 0 1-.66-1.3c-.06-.2-.1-.4-.12-.58-.02-.17 0-.32 0-.45l.03-.27.05-.09zm-1.17 7.51.09.07.22.18.15.14.17.17a4.6 4.6 0 0 1 .75 1.06 4.53 4.53 0 0 1 .54 1.55c.05.29.07.58.08.86.02.28.03.56.08.83l.07.38.1.37.27.71a4.75 4.75 0 0 1 .26.99l.02.28c.01.17.04.32.07.43.03.11.08.19.14.23l.08.05s-.03 0-.1-.04a.54.54 0 0 1-.2-.22 1.9 1.9 0 0 1-.15-.44c-.04-.17-.08-.36-.16-.55l-.26-.62-.33-.7-.13-.4-.11-.42a5.94 5.94 0 0 1-.09-.86c-.02-.28-.03-.57-.07-.83a6.14 6.14 0 0 0-.7-2.07l-.16-.26-.15-.23-.14-.19-.11-.16-.19-.22-.04-.09zm-2.51 6.95.04.07.14.2.23.27c.1.1.2.23.31.38l.08.1.07.13.08.13c.02.04.05.08.06.14a5.07 5.07 0 0 1 .36 2.02l-.05.7a11.56 11.56 0 0 1-.08.68l-.1.62-.08.56-.06.47-.03.36-.01.24v.08l-.02-.08-.04-.24-.06-.37a6.38 6.38 0 0 1 0-1.05l.02-.63.06-.67c0-.22.03-.44.03-.68l-.01-.67a5.87 5.87 0 0 0-.08-.65l-.14-.58-.1-.26-.05-.12-.06-.12-.24-.4-.18-.34-.08-.22-.01-.07zm-4.85 1.9.06.06.17.22c.07.1.15.21.22.36a3.96 3.96 0 0 1 .37 1.88c0 .25 0 .52-.05.79s-.14.55-.3.8c-.16.24-.34.44-.52.63l-.13.14-.13.14-.12.14-.1.14a6.82 6.82 0 0 0-.7 1.1c-.16.35-.27.66-.34.88l-.09.25-.03.09v-.1l.02-.27a4.03 4.03 0 0 1 .2-.94 4.68 4.68 0 0 1 .6-1.23l.1-.16.13-.16.11-.15.13-.15c.17-.2.35-.38.47-.58.13-.19.2-.41.26-.64.04-.23.08-.48.09-.72 0-.23.02-.47 0-.68s-.01-.43-.05-.61c-.03-.2-.06-.36-.1-.51l-.14-.39-.12-.23-.01-.1zm-5.4-.73a8 8 0 0 0 .18 1.44 2.81 2.81 0 0 1-.32 1.5l-.06.09-.06.1-.07.1-.07.08-.08.08-.07.08-.18.15c-.25.18-.52.32-.77.45l-.39.18-.37.2a11.04 11.04 0 0 0-1.9 1.2c-.35.26-.62.48-.8.65l-.3.26.06-.08.18-.24a9.4 9.4 0 0 1 1.86-1.71c.22-.15.46-.31.72-.45l.38-.2.39-.2c.25-.11.5-.24.7-.4l.15-.11.08-.06.06-.07.07-.06.05-.08.05-.07.06-.08c.12-.2.22-.43.29-.66.06-.23.1-.45.12-.65.05-.42.06-.79.06-1.03l-.02-.4zm-13.88 2.68v-.11l.03-.13.04-.18a2.65 2.65 0 0 1 .57-.98 4.78 4.78 0 0 1 1.28-.97c.27-.14.54-.26.82-.37.28-.12.56-.23.83-.36.28-.11.55-.24.8-.38l.2-.1.18-.11a6.74 6.74 0 0 0 .35-.24c.23-.17.44-.33.63-.5l.54-.5.75-.8.28-.32-.06.1-.16.27-.27.4a7.36 7.36 0 0 1-1.85 1.93l-.19.13-.2.11c-.26.15-.55.3-.83.42l-.85.34c-.28.11-.56.22-.8.34a5.47 5.47 0 0 0-1.29.8 5.17 5.17 0 0 0-.42.44l-.25.4-.12.27-.01.1zm28.8-32.46.05.05.11.14.16.23.09.16.07.18c.05.13.1.27.13.43a5.59 5.59 0 0 1 .12 1.52l-.01.51v.5l.02.46.05.4.05.19.04.16.1.25.07.16.02.06-.04-.05-.13-.12-.17-.24-.09-.15-.08-.18a3.8 3.8 0 0 1-.23-.9l-.04-.51-.01-.53.01-1.01-.02-.46-.04-.41-.04-.18-.04-.16-.08-.26-.07-.17v-.07z"/>
    </g>
  </g>
</svg>
