<svg xmlns="http://www.w3.org/2000/svg" fill="#d7374a" stroke="#000" viewBox="50 50 200 200">
  <metadata source="http://wappenwiki.org/images/f/f9/Langres_Livro.svg" license="https://creativecommons.org/licenses/by-nc-sa/3.0"/>
  <g id="lionSejant" stroke-width="2.73001981" transform="translate(39.4 25) scale(0.15)">
    <g transform="matrix(1.1006216,0,0,1.100974,-43.004283,-138.66824)">
      <g>
        <path class="secondary" d="M168 688.2s-2.1.2-3.5 7.8c-1 5.3.6 14.2 2.7 14.2 1.2 0 2.9-7.5 11.4-12.1-.2.5-.3 1.8-.4 1.7-1.4 7.6-.5 16.3 1.6 16.3 1.2 0 3.8-7.7 12.3-12.3.1-.1-.8 1.5-1.1 3.6-1.4 7.6-.2 15.1 2 15.1 1.2 0 1.2-5.8 8.8-10.1 4.8-3 11.9-1.3 11.9-1.3l2.3-14.6-22.3-6-16.6-5.3z"/>
        <path d="M180.5 692.5c-.2 0-4.1-2.7-7.1-4-6.4-1.2-6.8 1.3-7 1.3-.6 0-2.5-3.3-1.5-6.3s2.5-5.5 5.9-5.5c4.7-.9 6.9-3.3 10.4-4.3 5.1-1.5 10.9 2.3 14.7 2"/>
        <path class="secondary" stroke-linejoin="round" d="M476.3 688.2s-2.1.2-3.5 7.8c-1 5.3.6 14.2 2.7 14.2 1.2 0 2.9-7.5 11.4-12.1-.2.5-.3 1.8-.4 1.7-1.4 7.6-.5 16.3 1.6 16.3 1.2 0 3.8-7.7 12.3-12.3.1-.1-.8 1.5-1.1 3.6-1.4 7.6-.2 15.1 2 15.1 1.2 0 1.2-5.8 8.8-10.1 4.8-3 11.9-1.3 11.9-1.3l2.3-14.6-22.3-6-16.6-5.3z"/>
        <path d="M488.8 692.5c-.2 0-4.1-2.7-7.1-4-6.4-1.2-6.8 1.3-7 1.3-.6 0-2.5-3.3-1.5-6.3s2.5-5.5 5.9-5.5c4.7-.9 6.9-3.3 10.4-4.3 5.1-1.5 11.8 3.3 15.7 3"/>
        <path d="M567.5 681.5c-6.6 1.2-22.7 1.3-29.3-.1-6.4-1.4-12.6-1.4-19.1-1.8-6.4-.4-15-7.5-22.9.5-.3.1-3.5-.8-6.4 3.8-1.9 2.7-2.2 8.5-1 8.8 24.4 10 119 33.5 145.8 9.8a46.1 46.1 0 0 1-1.4-29.1M262.2 664.1c4.3 6.1 4.2 15.1 4.2 15.1-1 .3-6.2 1.1-7.2 1.3-6.6 1.2-22.7 1.3-29.3-.1-6.4-1.4-12.6-1.4-19.1-1.8-6.4-.4-15-6.5-22.9 1.5-.3.1-3.5-.8-6.4 3.8-1.9 2.7-2.2 8.5-1 8.8 52.8 27 97 4.6 142.5 16.4 9.4-3.2 5.7-11 3.6-19.2"/>
        <path fill="none" d="M500.5 703.8s2-4.2 5-5.9M486.9 698.1c0-.8 1.1-5.7 2.8-6.8"/>
      </g>
      <g stroke="none" fill="#000">
        <path d="m479.2 676.6.4.1 1 .2 3.1.9c1.1.4 2.2 1 2.8 1.5.7.5 1 1 1 1s-.4-.4-1.2-.6a11.6 11.6 0 0 0-5.8-.3l-1 .1-.4.1zM496.3 678.5l.5.1.6.1.8.2 1 .2 1 .3 2.1.9c1.4.7 2.7 1.6 3.5 2.3l1.4 1.3-1.6-.9c-1-.5-2.4-1-3.8-1.3l-2.1-.3H497.3l-.6.1h-.5z"/>
      </g>
      <path fill="none" d="M505.6 697.9s-.6-4.8 3.1-7.9c3.7-3.1 7-4.1 9.9-2.8"/>
      <g stroke="none" fill="#000">
        <path d="m517.5 685.5 1-.3 1.1-.4 1.6-.4c.6-.2 1.3-.2 2-.3l2.2-.1 1.1.1 1.2.2c.8.2 1.6.3 2.3.6l2.2.8 2 .9 1.9.7.9.2.8.2h1.5l1.2-.2 1-.3-1 .4c-.3.2-.7.2-1.2.3l-1.6.2-.9-.1-1-.1-2-.5-2.1-.6a16 16 0 0 0-2.1-.5l-2.1-.3h-1l-1 .1c-.7.1-1.3.1-1.9.3l-1.6.5-1.3.5-1.1.5-.9.4z"/>
        <path d="m519 685.8.6.2.6.3.9.4c.3.2.7.3 1 .6l1.1.7 2.1 1.7a17.4 17.4 0 0 1 4.2 5.8s-.5-.8-1.4-1.7a15.9 15.9 0 0 0-5.9-4l-1.1-.4-.9-.3-.8-.2-.7-.1-.6-.1z"/>
      </g>
      <g>
        <path fill="none" d="M192.2 703.8s2-4.2 5-5.9M178.6 698.1c0-.8 1.1-5.7 2.8-6.8"/>
      </g>
      <g stroke="none" fill="#000">
        <path d="m170.9 676.6.4.1 1 .2 3.1.9c1.1.4 2.2 1 2.8 1.5.7.5 1 1 1 1s-.4-.4-1.2-.6a11.6 11.6 0 0 0-5.8-.3l-1 .1-.4.1zM187.9 678.5l.5.1.6.1.8.2 1 .2 1 .3 2.1.9c1.4.7 2.7 1.6 3.5 2.3l1.4 1.3-1.6-.9c-1-.5-2.4-1-3.8-1.3l-2.1-.3H188.9l-.6.1h-.5z"/>
      </g>
      <path fill="none" d="M197.3 697.9s-.6-4.8 3.1-7.9c3.7-3.1 7-4.1 9.9-2.8"/>
      <g stroke="none" fill="#000">
        <path d="M266.4 677.7h.2-.1l.6-.1c.7-.2 1.9-.6 3.4-.6.7 0 1.6 0 2.4.2l.4.1.3.1.7.3 1.2.8 1.8 1.6.4.3.5.2 1.2.5 4.8 1.5c1.6.4 3.1.6 4.4.8l3.2.1 1.2-.1-1.2.2a25.8 25.8 0 0 1-7.7-.1 46 46 0 0 1-5.1-1l-1.3-.3-.7-.2-.7-.3c-.9-.5-1.5-1.1-2.1-1.5l-.9-.5-.3-.1-.3-.1h.1-2c-1.1.2-2 .5-2.7.8l-1.1.4h-.5zM209.1 685.5l1-.3 1.1-.4 1.6-.4c.6-.2 1.3-.2 2-.3l2.2-.1 1.1.1 1.2.2c.8.2 1.6.3 2.3.6l2.2.8 2 .9 1.9.7.9.2.8.2h1.5l1.2-.2 1-.3-1 .4c-.3.2-.7.2-1.2.3l-1.6.2-.9-.1-1-.1-2-.5-2.1-.6a16 16 0 0 0-2.1-.5l-2.1-.3h-1l-1 .1c-.7.1-1.3.1-1.9.3l-1.6.5-1.3.5-1.1.5-.9.4z"/>
        <path d="m210.7 685.8.6.2.6.3.9.4c.3.2.7.3 1 .6l1.1.7 2.1 1.7a17.4 17.4 0 0 1 4.2 5.8s-.5-.8-1.4-1.7a15.9 15.9 0 0 0-5.9-4l-1.1-.4-.9-.3-.8-.2-.7-.1-.6-.1z"/>
      </g>
    </g>
    <g transform="translate(-89.593,20.36)" stroke="none" fill="#000">
      <path d="m241.4 606.9-.5.5-1.4 1.2-.9.8-1 .9-2 2.1-1.9 2.2-1.6 2-1.5 2.1-.1-.1.2-.7.8-1.7 1.4-2.2 1.9-2.3 1.1-1.1 1.1-1 1.1-.9 1-.7 1.6-.9.7-.2z"/>
    </g>
    <g transform="translate(105.852,20.16)" stroke="none" fill="#000">
      <path d="m385 606.9-.5.5-1.4 1.2-.9.8-1 .9-2 2.1-1.9 2.2-1.6 2-1.5 2.1-.1-.1.2-.7.8-1.7 1.4-2.2 1.9-2.3 1.1-1.1 1.1-1 1.1-.9 1-.7 1.6-.9c.4-.2.6-.3.7-.2z"/>
    </g>
    <g transform="matrix(1.1006216,0,0,1.100974,-43.004283,-138.66824)">
      <path stroke-linejoin="round" d="M316.1 526.3V501l-17.4-26.1-7.8 6.4c6.2 6.8 6.6 16.4 6.6 22.2 0 5.8-2.4 14.8-6 17.2z"/>
      <path class="tertiary" stroke-linejoin="round" d="M305 503.6S291 492 278.1 492c-13.6 0-22 7.3-29.5 7.3-16.5 0-13.9-15.7-15.4-15.7-1 .4-2.4 4.6-2.4 7.2 0 9.5 5.9 18.1 17.7 18.1 11.9 0 18-7.4 29.4-7.4a39.3 39.3 0 0 1 25.6 10.5"/>
      <path stroke-linejoin="round" d="M319.1 429.6c3.9-2.4 9.6-5.6 13.8-4 3.6 1.3 5.5 4.5 6.5 7.9"/>
      <path fill="#f6f6f6" stroke-linejoin="round" d="M251.7 478.4c-1.7 11.5 4.9 18.4 6.2 17.8 1.4-.7-2.9-8.7 3.6-14.9m-6.8 34.1c-.2-6.6 4.1-10.4 4.9-10 1.1.5-2.4 6.5 2.6 11.6"/>
      <g>
        <path class="secondary" d="M178 700.2s-2.1.2-3.5 7.8c-1 5.3.6 14.2 2.7 14.2 1.2 0 2.9-7.5 11.4-12.1-.2.5-.3 1.8-.4 1.7-1.4 7.6-.5 16.3 1.6 16.3 1.2 0 3.8-7.7 12.3-12.3.1-.1-.8 1.5-1.1 3.6-1.4 7.6-.2 15.1 2 15.1 1.2 0 1.2-5.8 8.8-10.1 4.8-3 11.9-1.3 11.9-1.3l2.3-14.6-22.3-6-16.6-5.3z"/>
        <path d="M190.5 704.5c-.2 0-4.1-2.7-7.1-4-6.4-1.2-6.8 1.3-7 1.3-.6 0-2.5-3.3-1.5-6.3s2.5-5.5 5.9-5.5c4.7-.9 6.9-3.3 10.4-4.3 5.1-1.5 10.9 2.3 14.7 2"/>
        <path class="secondary" stroke-linejoin="round" d="M486.3 700.2s-2.1.2-3.5 7.8c-1 5.3.6 14.2 2.7 14.2 1.2 0 2.9-7.5 11.4-12.1-.2.5-.3 1.8-.4 1.7-1.4 7.6-.5 16.3 1.6 16.3 1.2 0 3.8-7.7 12.3-12.3.1-.1-.8 1.5-1.1 3.6-1.4 7.6-.2 15.1 2 15.1 1.2 0 1.2-5.8 8.8-10.1 4.8-3 11.9-1.3 11.9-1.3l2.3-14.6-22.3-6-16.6-5.3z"/>
        <path d="M498.8 704.5c-.2 0-4.1-2.7-7.1-4-6.4-1.2-6.8 1.3-7 1.3-.6 0-2.5-3.3-1.5-6.3s2.5-5.5 5.9-5.5c4.7-.9 6.9-3.3 10.4-4.3 5.1-1.5 11.8 3.3 15.7 3"/>
        <path d="M643.4 685c5.3-18.6 6-17 4.5-32-2.9-29.4-10.3-46.9-45.1-67.8-17.2-10.3-23.7-18.5-42.4-18.6-8.4-4-21.8-9.2-28.5-9-11.3.3-19.4 9.4-26.4 11.5-14.7 0-37.6 10.2-66 7.3-21-2.2-33.3-6.2-46.2-13.6-3.1-8.5-15.9-21.6-15.9-21.6s4.5 1 10.3-.4a16 16 0 0 0 9.4-7c.5-.8.8-2.4-.2-2.2-9.1 2.2-18.6-3.7-22.1-9.4-4.8-7.9-7.9-10.6-8.6-16.9 0 0 5.1 2.8 11 2.3 3.8-.4 7.2-1.3 10.2-4.5.6-.7 1.2-2.2.1-2.2-9.3.8-13.7-3.5-17.1-9.2a27.3 27.3 0 0 1-3.4-10.9c0-1.5 0-3 .7-4.5 11.8-1 14.3-10.1 13.7-10.5-1.9-1.6-4.1 2.1-10.1 2.1-7.7 0-7.7-8.7-9-13.6-1.3-3.2-3.3-7.5-5.2-8.8-3-1.9-20.4-12.1-20.4-12.1s-7.8-3.5-14.1-4.1c-6.3-.5-13.7-2.9-19-2.9-5.3 0-11.5.8-13.3 2.1-3.7 2.5-5.1 4.4-8.5 5-4 .5-9.1.8-15.1 2.5-3.6 1.1-7.3 2.9-11.5 4-3.7.9-14.1 1.8-14.8 3.3-.4.9-1.2 8.4 2.6 11.5 0 .3-1.4 2.1-1.4 8.5s3.4 9 6.2 12.1c2.9 3.4 9.2 7.3 15.6 7.3s12.1-4.1 18.7-4.1c3.3 0 9.2-.1 15.3 5.9 6.2 6 6.4 13.9 6.4 19.1 0 5.1-2.2 13.8-5.8 15.9a54 54 0 0 1-24.8.8c-9.2-1.9-12.5-4.3-16.3-5.2-3.8-1-6.4-1.6-6.4-.4 0 2.9.8 2.5 1.4 3.8 0 7.7-7.4 9.3-6.9 10.1.7 1.2 3.6 1.8 6.9.6 3.3-1.2 4.8-2.9 4.8-2.9s-.2 2.7 2.4 6c.9 0 2-4.9 5.8-6.5 2.6-.6 5.2 1.3 14.3 1.3 0 1.7-1.8 13.1-11.3 17.6-9.5 4.5-11.6 2.1-18.2 10.2-1.8 2.6-9.8 4.6-12.1 12.3-1.9 6.4-.5 10.4-.5 10.4s-3.3 4.3-3.1 7.9c.2 2.9 1 5.8 1 5.8s0 3.9 1.1 9.4c1.4 6.9-2.8 6.6-1.4 9.7 1.7 4.5 3.2 2.7 4.7 8.7 1.8 5.3-1 11-.3 13.8.9 3.3 4.3 5.2 5.9 7.3.7 7.9 7.6 14.3 9.8 19.8 1.8 4.1 8 13.2 17.3 16.1 4.3 6.1 4.2 15.1 4.2 15.1-1 .3-6.2 1.1-7.2 1.3-6.6 1.2-22.7 1.3-29.3-.1-6.4-1.4-12.6-1.4-19.1-1.8-6.4-.4-15-6.5-22.9 1.5-.3.1-3.5-.8-6.4 3.8-1.9 2.7-2.2 8.5-1 8.8 0 0 4.8-5.4 16.2 5.2 0 0 3.7-1.9 7.7.4a17.7 17.7 0 0 1 8.2 12.9s.8 2.5 6.1 1.6c1.7-.3 3.4-.9 4.5-2.2.9-1 1.1-2.6 2.8-2.4 1.9.3 3.6 1.5 5.5 1.9 2.6.6 6-1.6 8.1-.1.9.6 4.9 1.3 7.4 1 5.5-.6 10.2-3 16-2.7 3.6.2 16.5 1.1 20.1 1.1 1 0 2 0 2.8-.4 1.7-.7 2.6-1.6 4.4-1.9 2.5-.3 9.6-.6 16.6-.6 7.3 0 10.3 2.7 13.3 2.7l2.8-.1c2.6-.3 5.6-2 6.2-4.8.6-2.7-2.1-11.9-2.6-14.4a48.1 48.1 0 0 0 31.4 11.2c30 0 49.4-5.6 68.4-18.6 34.5-20.8 56.4-29.8 71.9-27.9 5.1 4.7 14 5.9 18.8 11 2.3 2.5 7.7 2.9 10.9 4.1 2.8 1 5.5.4 8.3 1.7 1.6.7 3.4 1.5 5.1.9.3-.1.6-.2.9-.1.4.1.6.6.8 1 .7 1.1 2.1 1.4 3.3 1.3 1.3 0 2.5-.3 3.7 0 1 .3 1.8.9 2.7 1.5 3.8 2.3 8.9 6.1 12.6 3.7 1.9.3 3.8 1.7 5.7 1.8h.8c-.3 0-.6.1-.8 0a110.6 110.6 0 0 1-33 .2c-6.4-1.4-12.6-1.4-19.1-1.8-6.4-.4-15-7.5-22.9.5-.3.1-3.5-.8-6.4 3.8-1.9 2.7-2.2 8.5-1 8.8 0 0 4.8-5.4 16.2 5.2 0 0 3.7-1.9 7.7.4a17.7 17.7 0 0 1 8.2 12.9s.8 2.5 6.1 1.6c1.7-.3 3.4-.9 4.5-2.2.9-1 1.1-2.6 2.8-2.4 1.9.3 3.6 1.5 5.5 1.9 2.6.6 6-1.6 8.1-.1.9.6 4.9 1.3 7.4 1 5.5-.6 10.2-3 16-2.7 3.6.2 10.8 1.1 14.4 1.1 1 0 2 0 2.8-.4 1.7-.7 2.6-1.6 4.4-1.9 2.5-.3 8.5.8 10.9.4 4.8-1 20.7-.1 21.8-.1l2.8-.1c2.6-.3 5.6-2 6.2-4.8.6-2.7-1.9-5.4-2.6-7.8-2.5-11.2 1.6-22 1.6-22z"/>
        <path fill="none" d="M510.5 715.8s2-4.2 5-5.9M496.9 710.1c0-.8 1.1-5.7 2.8-6.8"/>
      </g>
      <path fill="none" d="M505.4 569.1c-11.6 5.7-14.1 9.9-16.9 18.5-3.1 9.6.4 36.1 5.8 44.8 6.6 10.5 4 24.6 14.1 33.9"/>
      <path fill="none" stroke-linejoin="round" d="M560.4 566.6c9.6 5.8 17.7 14.9 26.3 23.1"/>
      <g stroke="none" fill="#000">
        <path d="m489.2 688.6.4.1 1 .2 3.1.9c1.1.4 2.2 1 2.8 1.5.7.5 1 1 1 1s-.4-.4-1.2-.6a11.6 11.6 0 0 0-5.8-.3l-1 .1-.4.1zM506.3 690.5l.5.1.6.1.8.2 1 .2 1 .3 2.1.9c1.4.7 2.7 1.6 3.5 2.3l1.4 1.3-1.6-.9c-1-.5-2.4-1-3.8-1.3l-2.1-.3H507.3l-.6.1h-.5zM555.4 721V720.7l.2-.5.3-.5.3-.4.8-.7a14 14 0 0 1 4.2-1.5l2.2-.5 1.8-.6 1.2-.7.4-.3-.3.4-1 1-1.7 1a44 44 0 0 0-5.2 3.3l-.3.4v.1c0 .1 0 0 0 0s0-.1 0 0V721.5zM600.8 718.1l.3-.2.7-.6 2.4-2 2.5-1.9.9-.5.4-.1-.3.2-.7.7-1.7 2.5a40.8 40.8 0 0 0-2.1 3.6l-.2.3zM579.1 718.4l.5-.1.6-.1.6-.1c.5-.1 1.1-.3 1.7-.7l.9-.5.9-.7c1.2-1 2.3-2.2 3.3-2.9l1.3-.8.5-.2-.4.3-1 1c-.8.9-1.5 2.3-2.5 3.6l-.8 1-.9.9c-.6.6-1.3 1-1.9 1.3l-.9.4-.6.2-.5.2zM572.3 684.7l1.8 1 1.8 1.1.5.3.5.4 1 .9 1.7 1.7c.5.5 1 .8 1.5 1l1.1.4.4.1-.9 2.9-.6-.3-1.5-1a9.3 9.3 0 0 1-1.6-1.8 24 24 0 0 1-1.3-2.1l-.7-.9-.3-.4-.4-.4-1.5-1.5-1.5-1.4zM529.6 660.9l-.6-.1a5.5 5.5 0 0 1-2.9-2.6l-.5-1.2-.3-1.4v-1.3l.1-1.1.3-1.8.1-.7v-1.2l.2.1.4.2.5.5.5.8c.3.6.5 1.4.6 2.2l.1 1.1.1 1.1.1.9.2.9.4 1.7.4 1.4.3.5zM553.9 672.2l.5.1 1.1.3 1.4.6 1.5 1.1c.2.2.5.5.6.8l.5.8c.3.6.5 1.1.5 1.6.2 1 0 1.8 0 1.8l-.5-.2-1-.6c-.8-.5-1.6-1.3-2.3-2-.7-.8-1.5-1.7-2-2.6l-.4-1.2c.2-.3.1-.5.1-.5zM536.9 664.1l.2.5.4 1.2.3.8.3.8.3.8.3.8 1.5 3.1.6 1.2.3.5h-.6l-.6-.1-.8-.3-.9-.5-.9-.7-.8-.9a11 11 0 0 1-.6-1.1l-.4-1.2-.2-1.2.1-1.1.2-1 .4-.8.4-.5.5-.3zM621.9 631.1l-.2-.8-.5-2.1-1.5-6.2-1.6-6.2-.5-2.1-.2-.8.6.6.6.7.8 1c.5.8 1.1 1.7 1.5 2.8l.7 1.7.5 1.8.6 3.6c.1 1.2 0 2.2-.1 3.2l-.4 2.2-.3.6zM629.5 625.7l.8 1.3c.2.4.6.9.8 1.5l.8 2.2c.2.8.5 1.7.6 2.7l.2 1.5.1 1.6c.1 1.1 0 2.1-.1 3.3-.1 1.1-.2 2.2-.5 3.3l-.7 3.2-.9 3.1-1.7 5.3-.7 2.1-.5 1.6-.3 1.5-.2-1.5c0-1 0-2.4.2-4l1-5.5.6-3.1.6-3.1.5-3.1.3-3 .1-1.4v-1.4l-.1-1.3-.1-1.2-.2-1.1-.2-1-.4-1.7v-1.8zM590.6 613.4l.2.5.3 1.4v2l-.5 2.2-1 2c-.4.6-.8 1.1-1.3 1.5l-1.1.8-.5.3.1-.5.3-1.3 1.1-3.6 1.4-3.5.6-1.2c.2-.5.4-.6.4-.6zM573.8 595.9l.4.6.4.7c.1.3.3.6.3 1l.1.6v.7l-.1 1.4-.4 1.4-.6 1.4a21 21 0 0 1-3.3 4.1l-1.3 1.2-.5.4.1-.7.5-1.7c.5-1.4 1.5-3 2.3-4.5.9-1.5 1.5-3 1.8-4.3l.3-1.6v-.7zM596.9 677.7l.6 1a34.2 34.2 0 0 0 12.2 11.2l3.9 1.5 3 .7 1.2.2-1.2.3c-.8.1-1.9.3-3.2.2a15.9 15.9 0 0 1-6.9-1.8 17.6 17.6 0 0 1-6.1-5.2c-.5-.7-1-1.3-1.3-2l-1-1.9a21.5 21.5 0 0 1-1.2-4.2z"/>
        <path d="m588.9 666.7.3.9.7 2.3a29.8 29.8 0 0 0 3.7 7.8l1.1 1.3c.8.8 1.6 1.5 2.4 2l1.1.6.9.4.9.3-.2.1-.7.1H598a7.8 7.8 0 0 1-3-.8 10 10 0 0 1-3.2-2.4l-1.3-1.7a15 15 0 0 1-1.9-7.3c-.1-2.2.3-3.6.3-3.6z"/>
        <path d="m574.4 660.6.5.9.5 1 .7 1.2.9 1.4 1.1 1.5 1.3 1.4 1.5 1.4c.5.4 1 .9 1.6 1.2l1.6 1.1 1.6.9 1.5.7 1.4.5 1.1.4 1 .3-1 .2-1.2.1h-.7l-.8-.1-1.8-.3c-.7-.1-1.3-.4-2-.7l-2-1-1.9-1.4c-.6-.5-1.2-1-1.6-1.6l-1.3-1.8-1-1.8-.6-1.8-.2-.8-.1-.7-.1-1.2v-1zM582.4 691.6l1.4.2 1.7.2 2.2.4 2.6.6a43.2 43.2 0 0 1 8.8 3.3l2.8 1.3 1.4.5 1.4.4 2.7.6 2.5.4a44.4 44.4 0 0 1 5.3.9v.3l-1.5.3-1.7.2-2.2.1-2.6-.1-2.9-.4-1.6-.3-1.6-.5-3-1.2-2.9-1.2-2.8-1-2.7-.7-2.4-.5-2.1-.4-1.7-.2-1.4-.2zM587.7 588.7a454.4 454.4 0 0 0 6.9 6.4l4.2 3.4 4.4 3.2 2.1 1.3 1.9 1.2 1.6 1 1.3.8 1.1.7-.1.3-1.3-.2-1.5-.4-1.9-.6-2.1-.9-2.3-1.2-2.4-1.4-2.4-1.6-4.5-3.4a103.5 103.5 0 0 1-7.1-6.4z"/>
      </g>
      <path fill="none" d="M515.6 709.9s-.6-4.8 3.1-7.9c3.7-3.1 7-4.1 9.9-2.8"/>
      <g stroke="none" fill="#000">
        <path d="m527.5 697.5 1-.3 1.1-.4 1.6-.4c.6-.2 1.3-.2 2-.3l2.2-.1 1.1.1 1.2.2c.8.2 1.6.3 2.3.6l2.2.8 2 .9 1.9.7.9.2.8.2h1.5l1.2-.2 1-.3-1 .4c-.3.2-.7.2-1.2.3l-1.6.2-.9-.1-1-.1-2-.5-2.1-.6a16 16 0 0 0-2.1-.5l-2.1-.3h-1l-1 .1c-.7.1-1.3.1-1.9.3l-1.6.5-1.3.5-1.1.5-.9.4z"/>
        <path d="m529 697.8.6.2.6.3.9.4c.3.2.7.3 1 .6l1.1.7 2.1 1.7a17.4 17.4 0 0 1 4.2 5.8s-.5-.8-1.4-1.7a15.9 15.9 0 0 0-5.9-4l-1.1-.4-.9-.3-.8-.2-.7-.1-.6-.1z"/>
      </g>
      <g>
        <g stroke="none" fill="#000">
          <path d="m246.2 618-.4 5.6-.2 2.8-.1 2.8c-.1 1.8 0 3.6.1 5.4.1 1.8.4 3.5.9 5.1l-.1-.2.7 1.2.8 1.1a20 20 0 0 0 1.9 2.2 22 22 0 0 1 2 2.3l.9 1.4.6 1.5-.4.2-.4-.6-.5-.5-1.1-.9-2.4-1.8-1.2-1a12 12 0 0 1-3.2-3.7v-.2l-.5-1.5-.4-1.5-.4-3a37 37 0 0 1 .7-8.6l.7-2.8c.5-1.8 1.2-3.6 2-5.4zM254.6 621.9l.7 1 .7 1.2.8 1.7.4 1 .3 1.1.6 2.4.7 5.2.3 2.6.4 2.4.3 1.1.3 1.1.3 1 .3.9.7 1.6.6 1.3.5 1.1-.4.3-1-.8-1-1-1.2-1.5c-.4-.6-.9-1.2-1.2-2l-.5-1.1-.4-1.2-.4-1.3-.3-1.3-.4-2.7a48 48 0 0 1-.3-5.2l-.1-2.4-.2-2.1-.2-1.8-.3-1.4v-1.2zM275.8 594.8l.2-.7.6-1.8 1-2.5 1.4-2.7.8-1.3.9-1.2.9-1.1.9-.9.8-.7.6-.5.6-.4.2.2-.5.5-.5.6-.6.8-.7 1-.7 1.1-.6 1.3-.6 1.3-.9 2.7a42 42 0 0 1-.9 4.1l-.1.6zM248.2 592.2l.4 1 .2.5.1.7.1.8v1.9l-.1 1-.5 2a34.4 34.4 0 0 1-1.7 3.9l-1.7 3.3-.4.7-.3.7-.6 1.4-.2.7-.2.6-.3 1.1-.3 1-.3.1-.2-1-.2-1.1-.1-1.5c0-.5 0-1.1.2-1.7l.2-.9.3-1 .7-1.9.9-1.9c.7-1.3 1.4-2.5 1.9-3.7l.8-1.7.6-1.6.3-1.4.2-1.1.1-1zM273.4 557.1v1.5l-.1.4-.3 1-.4 1.1-.6 1.2-.7 1.3c-.5.9-1.2 1.8-1.9 2.7l-2.4 2.8-2.7 2.9-2.7 2.9-1.3 1.5-1.2 1.5-1 1.5-.9 1.6c-.5 1-1.1 2.1-1.5 3.2l-1.2 3c-.7 1.9-1.3 3.4-1.6 4.6l-.6 1.8-.5-.1.1-1.9a43.7 43.7 0 0 1 1.5-8.1c.4-1.1.7-2.3 1.3-3.5l.8-1.8 1.1-1.8c.8-1.2 1.7-2.2 2.6-3.3l2.9-2.9 2.8-2.7 2.6-2.5 2.2-2.3.9-1.1.8-1 .6-.9.5-.8c.3-.5.4-1 .5-1.3l.2-.5zM255.3 651.4l.8.6.9.8.5.5.5.6c.4.4.7.9 1 1.5l1 1.7 2 3.7 1.1 1.8 1.1 1.6.6.7.6.6.6.5.6.4.6.3.5.2.5.2.4.1.8.2-.7 2.9-1.1-.4-.6-.2a2 2 0 0 1-.6-.4l-.7-.4-.7-.6-.7-.6-.7-.7-.6-.8-.6-.9-1-1.9-.9-2-1.6-3.9-.8-1.7-.8-1.5-.4-.6-.4-.5-.7-.8-.7-.7zM245.3 586.5l.2.8.2 1.9a8 8 0 0 1-.5 2.5c-.2.4-.3.9-.6 1.3l-.7 1.2-.8 1-.9.9-1.8 1.3-.8.5-.7.4-.7.4-.3-.1.2-.6.6-1.5c.6-1.2 1.7-2.6 2.7-4.1 1-1.4 2-2.9 2.6-4.1l.7-1.4.3-.5zM263.7 551.3l-.1.4-.4 1.1c-.4 1-1 2.4-2 3.9-.5.8-1.2 1.5-1.9 2.2l-2.6 2c-1.9 1.2-4.1 2.2-6 3.5a14 14 0 0 0-2.7 2.1l-2.4 2.3-2.1 2.3-1.7 2.2-2.3 3.5-.7 1.3-2.6-1.4.3-.4.7-1.1 2.7-3.5 2-2.2 2.4-2.3 2.7-2.2c1-.8 2-1.4 3.1-2 2.1-1.2 4.4-2.1 6.3-3.1a14.4 14.4 0 0 0 6.8-7.3l.5-1.1.2-.4zM254.9 569.1l-1.1.6-1.2.8-1.5 1.2-1.5 1.6-1.5 2-3 4.7-1.8 2.3a36 36 0 0 1-1.9 2.1c-1.2 1.3-2.5 2.5-3.2 3.5-.7 1-1.1 1.9-1.4 2.7a7 7 0 0 1-.4 1.1l-2.9-.9.1-.3.4-1c.4-.8 1-2 2.1-3.2 1.1-1.2 2.4-2.2 3.7-3.3l2-1.8 1.9-2 3.4-4.4 1.7-2 1.7-1.6 1.6-1.1 1.3-.7 1.2-.5zM285.3 562.4l-.2 1.3-.1.7-.3.8-.3.9-.5 1c-.3.7-.9 1.3-1.5 2l-2 1.9-2.2 1.7-2.2 1.6-1.1.8-1 .9-1.8 1.8c-.5.7-1.1 1.2-1.5 1.9l-1.2 1.8-1 1.6-.7 1.3-.6 1.2-.4-.1.1-1.3.2-1.5.6-1.9.9-2.2c.3-.8.9-1.6 1.4-2.4l.9-1.1 1-1.1 1.1-1 1.2-.9a33.3 33.3 0 0 1 4.7-3l2-1.4c.5-.5 1.2-.9 1.6-1.4l.7-.7.5-.7.5-.6.4-.6.7-1.1z"/>
        </g>
        <path fill="none" d="M255.1 613.9c1.5 1.6 2.2.4 2.5-.8 4.2-12.9 14.2-3.3 19.5-17.9-1 5.1-3 18.3-11.5 21.7-1.7.7-3 1.5.7 2.4 9.8 2.4 20.4-4.2 26.4-10.3 10.5-11.3 12.6-22.5 13-24.1 2.4 1.7-2.7 10.5-.1 18.1.3.8 1.3 3.9 8.2 9.1 1.9.9 2.7 1.1 2.4-1.8-.3-3.3 0-5.2.7-6.7 3.9-10.5 18.9-17 13.3-32.2-.7-2.5-1.6-2.1-2.2-3.7 2.2 1.6 12.2 4.3 16.9-1.7.6-.9.9-1-.7-1.7"/>
        <g stroke="none" fill="#000">
          <path d="m331.5 516.8-.7-.3-.8-.5-1-.9-.9-1.3-.4-.8-.2-.9-.2-.9-.1-.9v-1.7l.1-1.6v-1.4l-.1-.6-.1-.6-.2-.6-.2-.5-.4-.9-.4-.7-.4-.7.3-.4.8.3c.2.1.6.2.8.5l1 .8c.3.4.7.8.9 1.3l.4.8.3.9.2.9.1.9v1.7l-.1 1.6V512.4l.1.6.2 1.1.3 1 .4.8c.2.6.4.8.3.9zM287.4 525.9l2-.4a15 15 0 0 1 2-.2h2l2 .1 3.9.2h.9l.8-.1.7-.2.6-.3-.3.2c.7-.7 1.4-1.5 1.6-2.1l.1-1v-1.5l.1-3.3V516.4l.3-1 .7-1.6 1.3-2.8.5-1.4.5-1.5.4-1.5.3-1.5.2-1.6.2-1.6h.5l.3 1.6.2 1.6c0 1.1.1 2.2-.1 3.3a19 19 0 0 1-.6 3.3l-1.1 3.1-.5 1.4-.2 1.2v4.7c0 .6-.1 1.4-.4 2.1-.3.7-.8 1.2-1.2 1.7l-1.2 1.2-.2.2h-.1l-1.2.5-1.2.2H300l-1.1-.1-2-.4-2-.4-3.9-.8-1.9-.3-2-.2z"/>
          <polygon points="299.4,443.6 301.8,445.5 301.7,445.8 298.6,445.9 "/>
          <path d="m346.8 479.2.2.7.3.7.2.4.3.4.6.8.8.9.9 1 .9 1.2.9 1.3.6 1.5.3 1.5c.1.5-.1 1-.1 1.4l-.3 1.1-.4.8-.4.6-.4-.2-.1-.7-.1-.7-.2-.9-.3-.9-.5-1-.6-1-.8-1.1-.8-1.2-.8-1.3-.6-1.3-.3-1.3v-.6l.1-.6.2-.8.3-.6zM335.2 477.7l.3-.6.4-.7.5-.9.5-1 .6-1.1.6-1.1.6-1.2.5-1.2.5-1.2.9-2.2.7-1.6.3-.6h.5l.2.7c.1.4.3 1.1.3 1.9a12 12 0 0 1-1.2 5.6l-.8 1.4-.9 1.2-1 1a7 7 0 0 1-2.7 1.6h-.8zM316.5 490.2l.1-.6.4-1.4c.2-.6.6-1.2 1-1.8l1.5-1.7a12.7 12.7 0 0 1 3.7-2.1l1.4-.3h.6l.2.4-.3.5-.9 1.1c-.7.8-1.7 1.8-2.8 2.6-1.1.9-2.2 1.7-3.1 2.2l-1.2.7c-.4.4-.6.5-.6.4zM282.9 472.1l.2.4.2 1-.1.7-.2.8-.8 1.4c-.7.9-1.8 1.4-2.6 1.5a2 2 0 0 1-1.1 0l-.4-.1-.2-.4.2-.4.5-.8.6-.9.8-.9.8-.8.9-.7.8-.6.4-.2zM314.5 452.4l-.2.2-.3.4c-.2.3-.5.5-.8.5l-.9-.3-.5-.5-.1-.4.1-.2.3-.4c.2-.3.6-.5 1-.5s.8.2 1.1.5c.1.1.3.3.3.5 0 0 .1.1 0 .2zM311.3 454.9v.2l-.2.5c-.2.4-.6.6-.9.7-.4.1-.7-.1-1-.3l-.3-.4-.1-.2v-.4s.1-.4.4-.6c.2-.3.5-.5.8-.5.3 0 .6.1.9.4l.4.3c-.2.2-.1.3 0 .3zM307.7 457.6v.2l-.3.5c-.3.3-.6.6-1 .6s-.7-.1-1-.4l-.3-.4-.1-.2v-.4l.4-.6c.3-.3.6-.4.9-.4.3 0 .6.2.9.5l.3.4.2.2zM298.5 460.9v.2l-.1.2-.2.2c-.3.3-.7.4-1.1.4-.3-.1-.6-.3-.7-.7l-.1-.5v-.2l.2-.3.5-.4c.3-.2.5-.3.7-.2.2.1.3.3.4.6l.1.2.1.2.2.3zM303.3 459.8l-.1.2-.4.4c-.3.3-.7.4-1.1.4-.4-.1-.7-.3-.9-.6a.8.8 0 0 1-.2-.5l-.1-.2.1-.4.6-.5c.3-.2.7-.3 1-.2.3.1.6.3.7.6l.2.4.2.4zM251.6 450.9l.2.3.1.9c0 .4-.2.8-.5 1.1l-.9.8c-.6.4-1.3.5-1.8.4l-.8-.1-.3-.1-.3-.4.1-.3c0-.2.1-.5.3-.7.3-.5.8-1.1 1.3-1.3.5-.3.9-.3 1.4-.3l.7-.2.5-.1zM276.2 459l-.7-.2-1.7-.5-4.6-1.6-4.6-1.8-1.5-.8-.6-.3.1-.5.7-.2 1.8-.2c.7 0 1.6 0 2.5.2l1.4.3 1.4.4 2.6 1.3c.8.5 1.4 1.1 1.9 1.6.9 1.3 1.4 2.2 1.3 2.3zM241.2 450.7l-.4-.6c-.2-.4-.4-1.1-.3-2 .1-.4.2-1 .5-1.5s1-1 1.9-1.1h.5l.7.1 1 .4 1.1.7.7.2.7-.1.8-.5c.3-.2.8-.6 1.5-.8H250.7l.4.1.3.2c.4.2.6.5.7.8l.2.8-.4.2-.5-.3-.5-.1h-.1l-.1.1h-.1c.1 0 0 0 0 0v.1l-.3.6c-.2.3-.6.8-1.2 1.2-.5.4-1.4.6-2 .6-.7 0-1.5-.1-2.1-.5l-1.3-.9-.3-.2c-.1 0 0 0 0 0H243.1h.1c-.1 0-.2-.1-.4 0l-.6.5-.6 1.4-.1.7zM294.8 447.9l-.4.4-.5.4-.6.6-.7.6-.7.7-.8.7-.8.7-3.2 2.5-1.2.8-.5.3-.4-.3.1-.6c.1-.4.2-.9.5-1.4a9.8 9.8 0 0 1 2.8-3.5c.7-.5 1.4-1 2.1-1.3l2.1-.6 1.5-.1.6.1zM297.5 533.1l-1.1.6-1.2.7-1.4.9-1.5 1.3-1.5 1.6-1.5 1.8-1.6 2-.9 1-.9 1-1 .9a7 7 0 0 1-1 .8l-1.1.7-1.1.6c-.7.4-1.5.6-2.1.8l-1.8.4-1.4.1h-1.2l-.1-.5 1.1-.5 1.2-.5 1.5-.8.8-.5.8-.5 1.7-1.4 1.6-1.6 1.6-1.9 1.7-1.9 1.9-1.8 2-1.4c.7-.5 1.4-.7 2-1 .6-.3 1.3-.4 1.8-.5.5-.2 1-.2 1.4-.2l1.2-.1zM306.5 482.6h.3l.7.1c.5.2 1 .6 1.3 1.1.3.5.3 1.2 0 1.7-.1.3-.2.5-.4.6l-.2.2-.5.1-.3-.1-.6-.3c-.4-.3-.7-.6-.9-1-.2-.4-.1-.9 0-1.4l.2-.7.4-.3zM300.6 480l.3-.1c.2 0 .5-.1.8 0 .7.1 1.4.5 1.9 1.1.5.6.7 1.4.6 2.1-.1.6-.4 1.1-.4 1.1l-.4.1-.3-.1-.7-.3a3 3 0 0 1-.7-.5l-.5-.6a4 4 0 0 1-.6-1.5l-.1-.8.1-.5z"/>
          <polygon points="285.5,525.9 279.5,528.4 278.8,525.5 285.4,525.6 "/>
          <path d="M250.2 448.9c-.1.4-.3.9-.7 1.3-.3.4-.7.7-1.1.9l-2.1 1.5h-.1l-1.2 1.3-.5.8-.2.4-.1.2-.1.2-2.6-1.4.2-.3.2-.2.4-.4.9-.8c.6-.5 1.3-1 2.1-1.2h-.1l2.6-.9 1.1-.5c.3-.2.6-.5.8-.9zM305.6 437.1l-.8-.2-2-.5-2.7-.7-1.5-.4-1.5-.4-1.5-.4-1.5-.3-1.4-.2-1.2-.1h-1.9l-.7.1-.3-.3.1-.2.5-.5.8-.5.5-.3.3-.1.4-.1c1.9-.7 4.4-.6 6.7 0s4.4 1.7 5.8 2.8l1.6 1.4.3.9zM283.7 436.1s.1.4.5.8c.3.5.9 1.1 1.6 1.1h.3-.1 1.3l.8-.1.8-.2.9-.2.9-.3 2.1-.6 1.2-.2h1.2c.8 0 1.6.2 2.3.4.7.2 1.4.4 1.9.7.6.3 1.1.5 1.6.9l2.1 1.5.7.7-.2.4-1-.2-2.5-.6-1.6-.4-1.7-.3-.9-.1h-1.8l-.9.1-1.9.4c-.7.2-1.5.3-2.2.3H288l-1.1-.1-.9-.2-.5-.1-.5-.2c-.6-.3-1.1-.8-1.3-1.3l-.3-1.2V436z"/>
          <polygon points="282,445.7 282,445.5 285.8,443.7 286.2,446.1 "/>
          <path d="m304.1 538.9.1 1.1v1.3l-.3 1.7-.7 1.9c-.4.6-.7 1.4-1.3 2l-.8.9-.9.9c-.6.6-1.3 1-2 1.5l-2.1 1.2-2 1-1.9.9-1.6.8-1.3.8-.9.7-.7.8-.4-.2.3-1.1c.1-.4.4-.7.7-1.2l1.1-1.3 1.5-1.3 1.8-1.2 3.8-2.3.9-.6.9-.6.8-.6.7-.7.7-.7.6-.7 1-1.4.8-1.3.5-1.1.5-1zM314.9 529.2a19.3 19.3 0 0 0 1.2 2.2l.5 1.7c.1.6.3 1.4.2 2.1v1.2l-.2 1.2-.3 1.2-.4 1.2-1.1 2.3-1.2 2.1-1.2 1.9-1.1 1.8-.8 1.6-.6 1.4-.4 1.2a38 38 0 0 0-.3 1.1h-.5l-.3-1.1-.1-1.4v-.8l.1-.9.5-2 .9-2.1 1.1-2.1 1.1-2.1 1.1-2 .8-2 .3-1 .2-.9.2-.9.1-.9v-1.5l-.1-1.3-.1-1.1zM320.3 515.5l.7.4.8.6.8 1 .7 1.3.6 1.6.7 3.4.4 3.3.4 2.8.2 1.1.2.9.2.8-.4.3-.6-.6-.7-.7-.7-1.1-.7-1.3-.5-1.6-.7-3.4-.2-1.7-.1-1.6-.1-1.5-.2-1.3-.2-1.1c-.1-.3-.1-.6-.3-.8l-.3-.8zM337 513.5l.5.4.5.5.6.6 1.4 1.5 1.5 1.7.8.9.8.8 1.3 1.6a18.4 18.4 0 0 1 1.2 1.7l-.2.4-.6-.1-1.6-.5a11 11 0 0 1-5.4-5.1l-.5-1.1-.3-1.1a3 3 0 0 1-.1-1.6l.1-.6zM336.2 492.4a16.2 16.2 0 0 0 2.7 1.3l1.2.8 1.2 1 1.2 1.2 1.1 1.4a19.2 19.2 0 0 1 2.4 4.7l.3 1.5c.2.9.2 1.7.1 2.2l-.1.9h-.5l-.4-.7-.4-.8-.6-1-1.5-2.4-.9-1.3-.9-1.3-.9-1.3-.9-1.3-.9-1.2-.8-1.1-1.2-1.8c-.2-.4-.3-.7-.2-.8zM368.2 477.8l-.6-.1-1.4-.2c-1.1-.2-2.7-.7-4-1.4l-1-.6-.9-.7-.8-.7-.6-.7-.4-.7-.3-.5-.2-.5.3-.1.3.4.3.4.5.5.7.5.8.5.9.4 1 .3c1.3.3 2.7.4 3.7.3l1.2-.1.4-.1zM356 497.7l.6.1.7.2.8.4c1.1.6 2.4 1.7 3.6 2.7l1.8 1.4 1.6 1 .6.3.5.1.4.1-.8 2.9-.6-.3-.7-.4-.8-.6c-.6-.4-1.1-1-1.6-1.5l-1.6-1.9-2.8-3.3c-.4-.4-.8-.6-1.1-.7l-.5-.2zM359.9 620.5l1 2 1.1 1.9 2.6 3.5c1 1.1 2 2 3.1 2.9l1.7 1.2.9.5.9.5 1.9.8 2 .5 2 .3 2.1.1h1l1-.1 2.1-.3 2.1-.4 2.1-.5h.1l.2-.1-.1.1-.1.3.1.4.1.2c.1 0 0 0 0 0l-.3-.1-1.5-.8-1.4-.9c-.9-.6-1.7-1.4-2.4-2.2a24.8 24.8 0 0 1-3.3-5.4l-.3-.7-.1-.2v.1-.1l-.2-.3-.7-1.2-1.7-2.2-2.1-2-2.4-1.8.3-.4a33.2 33.2 0 0 1 5.3 3c.8.7 1.6 1.4 2.2 2.2l.9 1.3.2.3v.1l.1.1.1.2.3.7a14.7 14.7 0 0 0 5.3 6.2l1.2.7 1.2.6-.3-.1.7.2.7.4.6.8.2 1.1c0 .4-.2.8-.4 1.1l-.3.4-.3.3c-.5.3-.9.4-1.3.5h.1l-2.2.6-2.3.4-2.3.2-1.2.1H379a19.4 19.4 0 0 1-4.7-.7l-2.3-.7-2.2-1-1-.6-1-.7-1.8-1.5a20.5 20.5 0 0 1-5.3-7.5c-.6-1.4-1.1-2.8-1.4-4.3zM336.7 589.5a51.4 51.4 0 0 0 10.8 9.2l2.4 1.5 2.5 1.3 2.6 1.1 1.3.5 1.3.4 1.3.3 1.3.3 2.7.4 2.7.1 2.7-.2 2.7-.6 1.3-.4 1.3-.4 2.5-1.1.1-.1.3-.1.1-.1v.2l.1.3-.3-.1H376.1l-2-.7c-.6-.3-1.3-.5-1.9-.9l-1.8-1.1-1.7-1.3-1.5-1.4-1.4-1.6-2.3-3.4-.5-.9-.1-.2s.1.1 0 .1v-.1l-.1-.1-.3-.4-1.1-1.5-1.3-1.4-1.4-1.3a37.2 37.2 0 0 0-6.5-4.1l.2-.4 3.7 1.4c1.2.6 2.4 1.2 3.5 2s2.2 1.6 3.1 2.6l1.4 1.5.3.4.1.1.1.1.1.2.5.8a33 33 0 0 0 3.5 4.3l1.4 1.2 1.5 1.1 1.6.9 1.7.7 1.7.5h-.3l.8.2.9.4c.3.2.6.4.8.8.2.3.4.8.4 1.2v.7l-.2.6-.6.9a5 5 0 0 1-1.4.8l.1-.1c-.9.4-1.8.9-2.8 1.2l-1.4.5-1.5.4-3 .6-3 .2-3-.1-3-.5-1.5-.4-1.4-.4-1.4-.5-1.4-.6-2.7-1.4-2.5-1.5-2.4-1.7-2.3-1.9a53.2 53.2 0 0 1-7.1-9zM324.1 607.2l.3 2.5.5 2.5a36.8 36.8 0 0 0 3.7 9l1.4 2a25.9 25.9 0 0 0 2.5 2.6l.9.8a21.2 21.2 0 0 0 4.1 2.4c.7.3 1.4.7 2.2.9l1.1.4 1.2.3 2.4.5 2.4.4 2.4.2h.4l-.1.1-.1.1-.1.1c-.1.2 0 .4 0 .4l-.1-.1-.2-.1-1.3-1.4-1.1-1.5-1-1.6-.8-1.7a14 14 0 0 1-1-3.5c-.2-1.2-.4-2.4-.4-3.6v-1.1.1-.2l-.1-.4-.1-.8-.2-.8-.5-1.5-.6-1.5-1.6-2.9-1.9-2.8.4-.3a57.8 57.8 0 0 1 4.5 5.3l.9 1.6.7 1.7.5 1.8.1.4v.5l.1.8a18 18 0 0 0 1.7 6.2l.7 1.4c.3.4.5.9.9 1.3l1 1.2 1.1 1.1-.2-.2.6.5.5.7c.2.3.3.6.3 1s0 .8-.2 1.2l-.3.5-.4.4-.9.4c-.6.2-1 .1-1.5.1h.1l-2.6-.2-2.6-.4-2.6-.6-1.3-.4-1.3-.5-2.5-1.1-2.3-1.4-2.1-1.6-1-.9-.9-1c-.6-.7-1.2-1.4-1.6-2.1l-1.4-2.3c-.8-1.6-1.5-3.2-1.9-4.9a29 29 0 0 1-.8-10.2zM254.8 601.3l-.3.5-.6 1.4-.5 2.1-.1 1.2.1 1.2.1.6.1.6.4 1 .5.9.5.8.5.6.4.4.4.4-2.2 2-.4-.6-.4-.6-.5-.9-.5-1.1-.4-1.3-.2-1.4v-1.4l.2-1.4.4-1.3 1-2.1.9-1.3.4-.5zM343.7 565.6l-1-.4-.5-.2-.5-.3-1-.7-.9-.8-.8-.8-.7-.9-.7-.9-.6-1-.5-1-.4-1a17.2 17.2 0 0 1-1.3-6.4l.3-.6-.3.2v.3-.1l-.1-.2-.1-.4-.3-.9a8 8 0 0 0-1.9-3l-.7-.6-.4-.2-.4-.2.1-.3.5.2.4.2.8.6 1.3 1.4 1 1.6.4.9.2.5.1.2V551.4l-.3.3.3-.6.5 2.1.6 2 .8 1.9.5.9.5.8.6.8.6.7.7.7.7.6.8.5.8.4.4.2.5.2 1 .3z"/>
        </g>
        <path fill="#f6f6f6" stroke-width="2.18405247" d="M298.4 444.2c-1 1.1-3.3 1.5-6.1 1.8-2.8.3-5.6.2-6-1.2-.6-1 1.1-5.6 3-5.6 1.8-.1 6.5 3.1 9.1 5z"/>
        <g stroke="none" fill="#000">
          <path d="m315 592.4-.7-1.5-.5-1.9c-.2-.8-.2-1.6-.3-2.5l.1-2.9.2-1.6.3-1.6.8-3.3.9-3.4.8-3.3.3-1.6.2-1.6.3-3v-2.7l-.2-2.3-.2-1.8-.2-1.6.4-.2.7 1.5.7 1.8.7 2.4.4 2.9c0 1 .2 2.2 0 3.3l-.1 1.7-.3 1.8-.8 3.5-1 3.4-1 3.2-.5 1.5-.4 1.4-.3 1.4-.3 1.3-.2 1.2-.1 1.1v1.8l.1 1.6zM289.5 595.1l.7-1.5.7-1.7.7-2.2.4-1.3.3-1.4.2-1.5.2-1.5.3-3.3.3-3.5.4-3.5c.2-1.2.4-2.3.8-3.4l.5-1.6.6-1.5c.4-1 1-1.8 1.4-2.6l1.4-2c.4-.6.9-1 1.3-1.4.7-.8 1.2-1.1 1.2-1.1l.4.3-.7 1.4-.8 1.6a22 22 0 0 0-.9 2.1l-.4 1.2-.4 1.3-.7 2.9c-.3 1-.3 2.1-.5 3.2l-.4 3.4-.4 3.5c-.1 1.2-.4 2.3-.6 3.4-.3 1.1-.5 2.2-.9 3.2l-.5 1.4-.6 1.3-1.3 2.1-1.2 1.5c-1 .9-1.4 1.3-1.5 1.2zM358.2 519.8l.2.6.2.7.3.8.7 1.9.7 2.1.4 1.1.3 1.1a19.4 19.4 0 0 1 .8 3.5l.1.6-.4.3-.5-.3-1.2-1.1c-.9-1-1.9-2.5-2.4-4.2-.3-.9-.4-1.7-.4-2.6v-1.2l.2-1.1.6-1.6.3-.6zM369.5 585.1l-.1-1-.2-1.1-.4-1.3-.3-.7-.3-.8-.9-1.6c-.7-1.1-1.5-2.3-2.2-3.7l-1-2.1-.7-2.1-.4-2.1-.1-1.9.1-1.6.3-1.2.3-1h.5l.2 1 .2 1.1.4 1.4.5 1.6.6 1.7.8 1.8.9 1.9 1 1.9c.3.7.7 1.3.9 2l.7 2c.1.7.3 1.3.2 1.9v.9l-.1.8-.3 1.2-.4 1zM367.4 548.6l-.6-.8-.7-.9-1-1-.6-.5-.7-.5-1.6-.9c-1.2-.6-2.5-1.2-3.8-2l-1.9-1.3-1.7-1.5a20 20 0 0 1-1.4-1.6l-1-1.6-.7-1.4-.4-1.2-.3-1 .4-.2.7.7.8.8 1 1 1.3 1.1 1.4 1.2 1.6 1.1 1.8 1.1 1.9 1.1 1.8 1.2a10.7 10.7 0 0 1 2.8 3l.4.8.3.7.3 1.2-.1 1.4zM342.4 537.6l.5.8.6.8.8.9 1.2.9 1.4.9 1.6 1 1.7 1.2.8.7.8.8.7.8.6.9.9 1.8.5 1.7.3 1.4v2.1l-.5.1-.5-.8-.5-.9-.7-1.1-.8-1.3-1-1.3-1.2-1.3-1.3-1.2-1.5-1.2-1.5-1.2a9.3 9.3 0 0 1-2.4-2.9c-.2-.5-.5-1-.5-1.5-.1-.5-.2-.8-.1-1.1l.1-1zM314.8 605.6l.1-.7.1-.8.2-1.1.7-2.6c.3-.9.8-1.9 1.3-2.8l1.5-2.5a9 9 0 0 0 1.1-2.2l.3-.9.2-.7.1-.7h.3v.7l-.1.8-.2 1c-.2.8-.4 1.6-.8 2.5l-1 2.7c-.3.9-.6 1.8-.7 2.7-.2.9-.2 1.7-.2 2.3V605.7zM292.1 446.2s-.7-.9-.7-2.6c0-1.7 1-3 0-3-.9 0-2.4 1.5-2.4 3.5s.6 2 .6 2"/>
        </g>
        <g>
          <path d="M327.3 438.4s3.7-3.1 6.4-4.1c1.3-.5 13.6-5.5 19.5-1.3 8.2 5.9 1.6 20.6 1.2 21.8"/>
          <g stroke="none" fill="#000">
            <path d="m327.3 438.3 1.6-1.6a19.3 19.3 0 0 1 4.9-3.5 42.5 42.5 0 0 1 12.7-3.5c1.7-.1 3.5.1 5.2.7.9.3 1.7.8 2.5 1.4l.5.4.5.5c.4.3.6.7.9 1.1a12 12 0 0 1 2.1 4.8 18.7 18.7 0 0 1-.5 8.7c-.6 2.4-1.5 4.3-2.1 5.6l-.8 1.5-.3.5-.4-.2.6-2.1c.3-1.4.8-3.3 1.1-5.6l.3-3.7c0-1.3-.1-2.7-.4-4a10 10 0 0 0-1.7-3.6l-.6-.7-.3-.3-.5-.4c-.5-.3-1.1-.7-1.7-.9-1.3-.5-2.7-.7-4.2-.7a32.5 32.5 0 0 0-8.5 1.1l-3.7 1a16 16 0 0 0-2.9 1.1l-2.2 1.2c-1.3.9-2 1.3-2.1 1.2z"/>
          </g>
        </g>
        <g stroke="none" fill="#000">
          <path d="m386.1 693.6.4.2.4.2.4.1.4.2.5.2.9.5 1.7 1.4.5.7.2.3-.1.4-.4.2-1 .2c-.8.1-1.8-.2-2.6-.8l-.6-.5-.5-.6-.3-.7-.2-.7v-.6l.1-.4.2-.4zM376.2 695l.5.1.5.1.6.1 1.3.4 1.3.6c.9.5 1.7 1 2.3 1.6l.8.8.3.3-.1.5-.4.2-1.1.2c-.9 0-2.1-.2-3.2-.8l-1.4-1.1a5 5 0 0 1-.9-1.3 3 3 0 0 1-.3-1.1c-.3-.4-.3-.5-.2-.6zM367.7 695.2l.5.4.5.4.6.4.7.5.8.5 1.7 1.2 3.2 2.4 1.1 1 .4.4-.1.4-.6.1-1.5-.1a9 9 0 0 1-2-.6l-1.1-.5-1-.7a9.8 9.8 0 0 1-1.8-1.7c-.2-.3-.5-.6-.6-1a3 3 0 0 1-.4-1l-.2-.9v-.7c-.3-.3-.3-.5-.2-.5zM360.2 695.8l.4.4.4.4.5.4 1.2 1.1.6.6.6.6a25.3 25.3 0 0 1 3.3 4l-.2.4h-.5a4 4 0 0 1-1.3-.3c-.5-.2-1.1-.4-1.7-.8l-1.7-1.4-.7-.9-.6-.9a3 3 0 0 1-.4-1l-.2-.9-.1-.8.1-.6.1-.5zM351.9 696.1l.3.4.3.5.4.4.5.5.5.5.6.6.6.6 1.2 1.2 1.1 1.2.7 1 .3.4-.2.4h-.5l-1.3-.2-1.7-.7-.9-.6-.8-.7-.7-.9-.6-1-.4-1-.1-1 .1-.9.2-.6.3-.5zM347.2 456l.5-.5.5-.6.3-.4.3-.4.5-1 .5-1.1.5-1.3.5-1.3.5-1.4.5-1.3a31.1 31.1 0 0 1 2-4.8h.5l.2.7.2 2c.1 1.6-.2 3.8-1 5.8l-.7 1.5c-.2.5-.6.9-.9 1.4l-1 1.2c-.3.4-.8.6-1.1.9-.3.3-.8.4-1.1.5-.3.2-.6.2-.9.2l-.8-.1zM334.1 454.1l.1-.1.2-.3.4-1.1 1-3.1.3-.8.3-.8.3-.8.3-.7.5-1.1.2-.5h.5s.5.6.8 1.7c.3 1.1.3 2.6-.3 4l-.5 1-.6.9c-.4.6-1 1-1.5 1.3a3 3 0 0 1-.8.4l-.7.2h-.4l-.1-.2zM346.8 434.7l-1.4.3-1.5.4-1.9.6-2.2.8-2.3 1.1a33 33 0 0 0-4.6 3l-1 .9-.5.5-.5.5a16.3 16.3 0 0 0-2.9 4.1c-.3.7-.6 1.4-.7 2l-.2 1.8c0 .5.1.9.3 1.2l.5.6.3.1v.5h-.4c-.3 0-.7-.1-1.1-.5-.4-.4-.8-.9-1-1.6l-.3-1.1-.1-1.2c0-1.7.5-3.6 1.6-5.4a11 11 0 0 1 1.9-2.5l.6-.6.5-.5 1.2-1.1c.8-.7 1.7-1.2 2.6-1.8.9-.5 1.8-1 2.7-1.3.9-.4 1.8-.6 2.7-.8l2.5-.4 1.1-.1h1l1.6.1 1.4.3z"/>
          <path d="m330.4 447-.2-.1-.2-.2-.3-.3c-.4-.4-.7-1.2-.9-1.9l-.4-2-.1-1 2.9.6-.3.7a6 6 0 0 0-.5 1.6c-.1.6-.2 1.2-.1 1.7l.1.3.1.2.1.2z"/>
        </g>
      </g>
      <g stroke="none" fill="#000">
        <path d="M366.2 535.1h.6l.7.1.8.2c1.2.4 2.6 1.3 4 2.1l2 1.1 1.7.7.7.2.5.1h.4l-.4 3-.7-.2-.7-.3-.9-.4-1.9-1.3-1.8-1.6c-1.2-1.1-2.3-2.2-3.3-2.8l-1.2-.6-.5-.1zM351.4 657.2s-.1 0 0 0l-.4.2-.9.3c-.7.2-1.7.4-2.7.3-1 0-1.9-.2-2.6-.5l-.7-.4-.3-.2.1-.3h.3l.8.1a6.4 6.4 0 0 0 4-1.4l.5-.4.1-.1s0-.1 0 0zM315 669.5v2l-.2.8c-.2.5-.6 1-1 1.4l-.6.5-.3.2-.5-.1-.2-.3-.3-.7c-.2-.6-.2-1.4.2-2.1l.7-1a2 2 0 0 1 1-.6l.5-.1h.7zM308.7 672.3l.1.4.1.4.1.4.1.9v1c-.1.6-.3 1.3-.6 1.8l-.5.7-.2.3h-.5l-.3-.3-.5-.7c-.3-.6-.5-1.5-.3-2.3.1-.4.2-.9.5-1.2.2-.4.5-.7.8-.9l.5-.3.4-.1c.1-.1.2-.2.3-.1zM300.6 673.1l.2.3.2.4.2.4c.1.3.3.6.3 1l.2 1c.1.7 0 1.4-.2 2l-.3.8-.1.3-.4.2-.4-.2-.7-.6a4 4 0 0 1-.9-2.4c0-.9.3-1.9.7-2.5l.7-.7.3-.2zM285.3 645.8l-.2-.4-.1-.4v-.6c0-.4.1-.9.3-1.3l.8-1.2a4 4 0 0 1 2.3-1.2h.9l.4.1.2.4-.1.4-.3.8a7 7 0 0 1-1.3 1.7l-.8.6-.9.5-.4.2-.4.2-.4.2zM289.7 665.4l.1.4v.4l.1.4.1 1v1.1c-.1.7-.3 1.5-.6 2.1l-.4.8-.2.3-.5.1-.3-.3c-.2-.2-.4-.4-.5-.8-.4-.7-.6-1.6-.4-2.5l.4-1.4c.2-.4.5-.8.8-1 .2-.1.3-.3.5-.3l.4-.2.5-.1zM288.9 658v.4l-.1.4-.1.5-.3 1.1-.5 1.1c-.4.7-.9 1.3-1.4 1.8l-.7.6-.3.2-.5-.1-.2-.4-.2-1a4 4 0 0 1 .7-2.7c.5-.9 1.4-1.5 2.2-1.8.4-.2.7-.2 1-.2l.4.1zM286.6 637.4v-.4l.1-1c.2-.8.8-1.7 1.6-2.3.8-.6 1.8-.9 2.6-.9l1 .2.4.2.1.5-.2.3-.5.7c-.4.5-1 1.1-1.6 1.5l-1 .6-1 .4-.5.1-.4.1h-.6zM284.3 655.9l-.2-.4c-.1-.3-.3-.6-.3-1.2l.1-1.7a5 5 0 0 1 .7-1.7 6.7 6.7 0 0 1 2.5-2.3l1.1-.4.5-.1.3.4-.1.4-.4 1c-.3.8-.9 1.7-1.4 2.5l-.4.6-.4.6-.4.5-.4.5-.4.4-.3.4-.3.3z"/>
        <path d="M343.7 637.8c.1.6.3 1.2.8 1.5.4.3 1 .4 1.6.6.6.1 1.4.5 1.9 1.1.3.3.5.6.6 1l.1.3.1.2.1.6c.1 1.6-.5 2.9-1 4l-.8 1.7-.1.3v.1-.1l-.1-.1-.2-.2c-.1-.1-.1 0 0 0h-.2c1.3-.3 2.5-.7 3.7-1.4l1.8-1.1 1-.6.7-.3a2 2 0 0 1 1.1-.1l.3.1.2.2.6.8.4.9.2 1v.9a9.6 9.6 0 0 1-1.2 3.1c-.5.9-1.2 1.7-1.8 2.5l-1 1.1-1.1 1.1-.6-2.3.6.1.5.2 1 .4c.6.3 1.3.6 1.9 1.1a8 8 0 0 1 2.2 2.6l.4 1.1-.1-.2.1.3.1.5c0 .4-.1.8-.4 1.1-.5.5-.8.6-1.1.7l-1.2.3-1.9.4c-1.2.3-2.2.7-2.7 1.4v-1.9c.7.7 1.3 1.7 1.6 2.8.3 1.1.1 2.4-.3 3.3a8.7 8.7 0 0 1-2.6 3.6l-.5.5-.3.2-.1.1s-.1.1 0 0l-2.1-2.1.5-.5.4-.4.7-.8c.5-.5.8-1.1 1.1-1.7.2-.6.3-1.1.2-1.6-.1-.5-.4-1-.8-1.5l-.8-1 .8-.9c.6-.7 1.4-1.2 2.1-1.6.8-.3 1.5-.6 2.2-.7l2.1-.3.7-.2-.2.2-.2.7v.4l-.1-.3-.3-.6a2 2 0 0 0-.4-.6l-.2-.3-.2-.3-.6-.5-1.3-.8-.7-.3-.4-.1-.3-.1-2.4-.7 1.9-1.6 1-.9 1-1c.6-.7 1.2-1.4 1.6-2.1.5-.7.8-1.5.9-2.2.1-.7 0-1.2-.5-1.7l.5.3h.1l-.3.1-.8.5-1.9 1.1a17 17 0 0 1-4.3 1.5h-.1c-.3 0-.5 0-.9-.2l-.6-.5-.2-.7.1-.8.2-.5.9-1.7a6.8 6.8 0 0 0 1.1-3.2v-.7l-.3-.7c-.3-.4-.7-.7-1.3-.9-.5-.2-1.2-.4-1.8-1-.5-.6-.6-1.3-.6-1.9zM273.4 628.7l-1 1.9-1 2.2-.6 1.4-.6 1.5-.6 1.7-.6 1.8-.6 1.9-.5 2c-.3 1.4-.5 2.9-.6 4.3l-.1 4.5a68.3 68.3 0 0 0 1.2 8.8c.6 2.8 1.5 5.3 2.3 7.5l2.1 5.1.7 1.5.1.2.1.2.1.2-2.9.9v-.2l-.1-.2-.7-1.4a48.5 48.5 0 0 1-4.3-32l.6-2.1.7-2c.5-1.3 1-2.5 1.6-3.5.5-1.1 1.1-2 1.7-2.8l1.5-2 1.4-1.6z"/>
      </g>
      <g>
        <path fill="none" d="M202.2 715.8s2-4.2 5-5.9M188.6 710.1c0-.8 1.1-5.7 2.8-6.8"/>
      </g>
      <path fill="none" d="M336.7 701.6c-3.3-16.8 10.2-29.4 10.2-29.4"/>
      <g stroke="none" fill="#000">
        <path d="m180.9 688.6.4.1 1 .2 3.1.9c1.1.4 2.2 1 2.8 1.5.7.5 1 1 1 1s-.4-.4-1.2-.6a11.6 11.6 0 0 0-5.8-.3l-1 .1-.4.1zM197.9 690.5l.5.1.6.1.8.2 1 .2 1 .3 2.1.9c1.4.7 2.7 1.6 3.5 2.3l1.4 1.3-1.6-.9c-1-.5-2.4-1-3.8-1.3l-2.1-.3H198.9l-.6.1h-.5zM247 721V720.7l.2-.5.3-.5.3-.4.8-.7a14 14 0 0 1 4.2-1.5l2.2-.5 1.8-.6 1.2-.7.4-.3-.3.4-1 1-1.7 1a44 44 0 0 0-5.2 3.3l-.3.4v.1c0 .1 0 0 0 0s0-.1 0 0V721.5zM298.1 718.1l.3-.2.7-.6 2.4-2 2.5-1.9.9-.5.4-.1-.3.2-.7.7-1.7 2.5a40.8 40.8 0 0 0-2.1 3.6l-.2.3zM270.8 718.4l.5-.1.6-.1.6-.1c.5-.1 1.1-.3 1.7-.7l.9-.5.9-.7c1.2-1 2.3-2.2 3.3-2.9l1.3-.8.5-.2-.4.3-1 1c-.8.9-1.5 2.3-2.5 3.6l-.8 1-.9.9c-.6.6-1.3 1-1.9 1.3l-.9.4-.6.2-.5.2z"/>
      </g>
      <path fill="none" d="M207.3 709.9s-.6-4.8 3.1-7.9c3.7-3.1 7-4.1 9.9-2.8"/>
      <g stroke="none" fill="#000">
        <path d="m461.8 664.9-.3.4-.8 1a17.2 17.2 0 0 1-6 3.9l-1.2.3-.5.1.2-.5.7-1.1a10.3 10.3 0 0 1 6.2-3.9l1.3-.1.4-.1zM472.3 655.4l-.5.1-1.3.2-3.6.5-3.6.7-1.3.2-.5.1.3-.5.9-1.1 1.7-1.2 1.1-.4 1.2-.3h2.3c.7.1 1.4.3 1.9.6.5.2 1 .5 1.2.8l.2.3zM484.6 647.4l-.5.1-1.2.2a32.3 32.3 0 0 1-6.4-.1l-1.1-.2-.5-.1.3-.4 1-.7c.4-.3 1-.5 1.6-.6.6-.2 1.3-.2 1.9-.2a7.7 7.7 0 0 1 3.5 1c.4.3.8.5 1 .8l.4.2zM276.4 689.7h.2-.1l.6-.1c.7-.2 1.9-.6 3.4-.6.7 0 1.6 0 2.4.2l.4.1.3.1.7.3 1.2.8 1.8 1.6.4.3.5.2 1.2.5 4.8 1.5c1.6.4 3.1.6 4.4.8l3.2.1 1.2-.1-1.2.2a25.8 25.8 0 0 1-7.7-.1 46 46 0 0 1-5.1-1l-1.3-.3-.7-.2-.7-.3c-.9-.5-1.5-1.1-2.1-1.5l-.9-.5-.3-.1-.3-.1h.1-2c-1.1.2-2 .5-2.7.8l-1.1.4h-.5zM219.1 697.5l1-.3 1.1-.4 1.6-.4c.6-.2 1.3-.2 2-.3l2.2-.1 1.1.1 1.2.2c.8.2 1.6.3 2.3.6l2.2.8 2 .9 1.9.7.9.2.8.2h1.5l1.2-.2 1-.3-1 .4c-.3.2-.7.2-1.2.3l-1.6.2-.9-.1-1-.1-2-.5-2.1-.6a16 16 0 0 0-2.1-.5l-2.1-.3h-1l-1 .1c-.7.1-1.3.1-1.9.3l-1.6.5-1.3.5-1.1.5-.9.4z"/>
        <path d="m220.7 697.8.6.2.6.3.9.4c.3.2.7.3 1 .6l1.1.7 2.1 1.7a17.4 17.4 0 0 1 4.2 5.8s-.5-.8-1.4-1.7a15.9 15.9 0 0 0-5.9-4l-1.1-.4-.9-.3-.8-.2-.7-.1-.6-.1z"/>
      </g>
      <g>
        <path stroke-width="2.72529602" stroke-linejoin="round" d="M436.1 454.3s-7.5-3.1-12.3-9.9c-2.1-2.7-2.4-5.1 1.8-2.2 9.1 6.1 23.4 7.7 23.4 7.7l9.5.6 8.7-2.3s-7.7-5.4-9.7-6.2c-1.9-.8-.7-1.8 1.3-1.4a111 111 0 0 1 23.3 6c2.8-.3 4.7 13.5 4.7 13.5l.2 5.6s-11.2-1.8-17.4-1.1c-7.3.8-10.9 3-17 2.8-5.1-.2-8.6-3.4-8.6-3.4l-2.7-5z"/>
        <path stroke-width="2.72529602" stroke-linejoin="round" d="M614.3 505.5c0 23.4-43.9 44.2-43.9 68.6 5.6 4.8 10.8 10.4 16.3 15.6 0-37.3 44.5-50.5 44.5-83.4 0-34.8-29-54.7-63.2-55.6-12.7-.3-25.7 1.1-37 4.1-16.9 4.4-21.8-6.2-37-9-12.1-2.5-16.8-1.1-29.1.1-6.6.7-12.1 2.7-16.8 4.5-4.5 1.8-8.2 3.5-11.7 3.8-5.5.7-9.3-.7-12.8-2.3-4.8-2.7-6.1-2.9-2.9 1.3-.5 4.8 9.2 11.4 24.8 10.3 4.8-.5 9.1-2.5 12.2-3.2 22.4-5.7 45.6 23.9 69.9 14.6 12.5-4.8 26.5-8.1 40.3-8.1 20.8.1 46.4 13.4 46.4 38.7z"/>
        <g stroke="none" fill="#000">
          <path d="m421.7 452.8.7.7h-.1l1.4 1 .7.5.1.1c.1 0-.1-.1-.1 0l.2.1.4.2c1 .6 2 1 3 1.4l.8.3.8.2 1.6.3 1.6.1H434.6l1.4-.1h.8l.4-.1h.4-.1l1.7-.2a34 34 0 0 0 4.4-.8l2.2-.5 1.1-.3 1.1-.3 4.4-1.3 4.4-1.2.8-.2h.1l4.8-.5 4.8-.3a76.9 76.9 0 0 1 7.2.3l2.4.3 2.4.4 2.3.5 2.3.6 2.3.7 4.5 1.5 2.3.8c.7.3 1.5.4 2.3.6l1.9.3 1.3.1 1.3-.1.9-.1-.9.1c-.4.1-.9.2-1.3.1h-1.3l-1.9-.3c-.8-.2-1.6-.3-2.3-.6l-2.3-.7-4.6-1.4-2.3-.6-2.3-.5-2.3-.4-2.4-.3-2.3-.2-2.4-.1-4.7.1-4.7.4-4.7.7h.1l-.9.2h.1l-4.4 1.4-4.3 1.4-1.1.3-1.1.3-2.2.6-4.6 1-1.6.3-.9.1-1 .1h.2l-1.8.1h.1-1.8l-1.9-.1-1.9-.3-.9-.2-.9-.3c-1.2-.4-2.4-.9-3.5-1.5l-.4-.2-.2-.1-.2-.1-.1-.1-.8-.5-1.5-1-.8-.6z"/>
        </g>
      </g>
      <g stroke="none" fill="#000">
        <path d="M394.9 563v.3l.1.8a15.4 15.4 0 0 0 2.6 6.3c.8 1.3 1.8 2.5 3 3.7l1.8 1.7 1.8 1.5a278.4 278.4 0 0 0 7 4.8l-3.7-1.9-3.8-2.1-2.1-1.3-2-1.5a24.5 24.5 0 0 1-6.1-7.4c-.6-1.2-1-2.2-1.2-3.1l-.2-.9-.1-.3z"/>
      </g>
    </g>
    <g transform="translate(-79.89523,34.04606)" stroke="none" fill="#000">
      <path d="m278.4 619-.9.1-2.4.4c-1 .2-2.1.5-3.3 1l-1.7.8a9 9 0 0 0-1.6 1.1l-1.5 1.3-1.4 1.3-2.3 2.6-1.5 1.9-.6.7-.1-.1s.6-1.3 1.7-3a24.2 24.2 0 0 1 3.6-4.2l1.6-1.4 1.8-1.1 1.9-.8a16 16 0 0 1 3.5-.8c1.8-.1 3.2.1 3.2.2z"/>
    </g>
    <g transform="translate(-78.895,33.046)" stroke="none" fill="#000">
      <path d="m241.4 606.9-.5.5-1.4 1.2-.9.8-1 .9-2 2.1-1.9 2.2-1.6 2-1.5 2.1-.1-.1.2-.7.8-1.7 1.4-2.2 1.9-2.3 1.1-1.1 1.1-1 1.1-.9 1-.7 1.6-.9.7-.2zM258.9 611.5l-.7.5-.8.5-1 .7-1.2.9-1.3 1-1.3 1.2-1.3 1.2c-.9.8-1.7 1.7-2.4 2.6l-1.9 2.4a34.4 34.4 0 0 0-1.8 2.5l-.1-.1.3-.8 1-2a31 31 0 0 1 4.2-5.3l1.4-1.2 1.4-1.1 1.4-1 1.3-.8 2-1 .8-.2z"/>
    </g>
    <g transform="translate(259.35784,34.37184)" stroke="none" fill="#000">
      <path d="m278.4 619-.9.1-2.4.4c-1 .2-2.1.5-3.3 1l-1.7.8a9 9 0 0 0-1.6 1.1l-1.5 1.3-1.4 1.3-2.3 2.6-1.5 1.9-.6.7-.1-.1s.6-1.3 1.7-3a24.2 24.2 0 0 1 3.6-4.2l1.6-1.4 1.8-1.1 1.9-.8a16 16 0 0 1 3.5-.8c1.8-.1 3.2.1 3.2.2z"/>
    </g>
    <g transform="translate(260.358,33.372)" stroke="none" fill="#000">
      <path d="m241.4 606.9-.5.5-1.4 1.2-.9.8-1 .9-2 2.1-1.9 2.2-1.6 2-1.5 2.1-.1-.1.2-.7.8-1.7 1.4-2.2 1.9-2.3 1.1-1.1 1.1-1 1.1-.9 1-.7 1.6-.9.7-.2zM258.9 611.5l-.7.5-.8.5-1 .7-1.2.9-1.3 1-1.3 1.2-1.3 1.2c-.9.8-1.7 1.7-2.4 2.6l-1.9 2.4a34.4 34.4 0 0 0-1.8 2.5l-.1-.1.3-.8 1-2a31 31 0 0 1 4.2-5.3l1.4-1.2 1.4-1.1 1.4-1 1.3-.8 2-1 .8-.2z"/>
    </g>
  </g>
</svg>
