<svg xmlns="http://www.w3.org/2000/svg" fill="#d7374a" stroke="#000" viewBox="50 50 200 200"><metadata license="https://creativecommons.org/licenses/by-nc-sa/3.0" source="http://wappenwiki.org"/><g id="lionRampant"><g stroke-width=".338"><path fill="#fff" d="M98.76 68.76c-.23 1.53.65 2.43.8 2.34.2-.09-.37-1.15.48-1.96m-.9 4.51c-.02-.88.54-1.38.65-1.32.15.07-.31.86.35 1.54"/><path d="M106.15 75.1l1.9-3.17-2.5-3.68-1.3.9c.81.89.87 2.17.87 2.93 0 .77-.32 1.96-.8 2.28z"/><path d="M105.79 72.1s-1.85-1.55-3.56-1.55c-1.78 0-2.9.97-3.89.97-2.17 0-1.83-2.08-2.02-2.08-.14.04-.32.6-.32.96 0 1.26.79 2.4 2.34 2.4 1.58 0 2.39-.99 3.88-.99 2.02 0 3.38 1.4 3.38 1.4" class="tertiary"/><path d="M107.65 62.32c.51-.32 1.26-.73 1.82-.53.48.18.73.58.85 1.05"/><path d="M73.27 111.8v.41c.34.33 2.89-2.07 1.5-2.92-.53-.14-.45-.1-.64-.14-2.16-.09-2.92.85-3.3 1.59-.13.26-.17.42.04.38 1.24-.5 2.4.05 2.4.68zm3.03-18.51c-.02.19-.32.25-.42.33-.66.68-1.08.6-1.19.65-.1.05-.06.11-.03.17.28.58 1.04.9 1.8.94.45.02 1.01-.45 1.01-.45s.4-2.55-1.17-1.64zm-2.25 22.01c-1.13.3-2.6 1.52-1.92 3.25.04.12.15.39.34.1.53-.78.86-.8 1.08-.81.51 0 .63.21.63.21s.56-.58.64-1.15c.11-.77-.37-1.5-.77-1.6zm6.92-8.45c-.22-.18-.2-.59-.8-1.07a2.62 2.62 0 00-2.22-.5c-.4.07-.4.2-.25.3.46.2 1.05.7 1.07 1.18 0 .33-.22.5-.36.68.75 1.42 3.14.4 2.56-.6zm-.1 11.73c-1.12.8-1.77.46-1.77.72.02.36.86.94 1.8 1.23 1.19-.6 1.67-2.56-.03-1.95zm-12-28.86c-1.4.13-2.76 1.86-2 3.55.06.12.2.36.38.05.84-1.38 1.6-.85 1.6-.85s.55.02.74.1c1.8-1.65-.35-2.63-.72-2.85zm27.46 56.06a3.1 3.1 0 00-.14 3.9c.15.16.25.1.27-.04.32-1.44 1.49-1.75 2-1.7.23-.98-.64-2.86-2.13-2.16zm14.05-5.58c-.59-1.21-2.5-.95-1.92.78.66.22.41.95.41 1.36 0 .16.03.3.2.26.98-.3 1.54-1.4 1.31-2.4zm-14.93.04c-2.54.76-2.04 3.8-1.79 3.75.35.1.92-1.65 1.91-.95 1.64-.42.77-3.02-.12-2.8zm6.44 6.26c0 .08-.3.38-.33 1.16-.05.98.62 1.81.84 1.92.15.08.34.26.3-.15-.06-.66.06-1.57 1.22-1.74.16-1.46-1.7-1.83-2.03-1.19zM67.55 84.33c-1.25-.56-3.32.1-3.58 1.93-.02.13-.04.4.27.23 1.45-.72 1.83.15 1.83.15s.45.32.56.49c2.21-1.87 1.11-2.42.92-2.8zm4.83-2.75c-.14-1.22-1.76-2.76-3.39-2.13-.12.05-.36.15-.07.35 1.33.9.77 1.64.77 1.64s-.06.54-.14.72c2.23 1 2.6-.23 2.83-.58zm7.3-7.94c-.15.1-.4-.06-.5-.07-.92.03-1.16-.33-1.26-.35-.1-.02-.1.03-.13.09-.2.58.09 1.3.58 1.86.3.32 1 .38 1 .38s2-1.49.3-1.91zm-2.65-7.47c-1.04-.87-3.12-.61-3.74 1.05-.05.13-.11.37.21.3 1.51-.38 1.67.49 1.67.49s.36.4.43.57c2.35.1 1.55-2.02 1.44-2.41zm2.77-4.57c-.47-1.23-2.33-2.18-3.74-1.12-.1.08-.3.24.02.34 1.47.5 1.13 1.33 1.13 1.33s.1.53.06.7c2.78.27 2.4-.86 2.52-1.25zm5.14 1.4c.73-.9.68-3.06-.86-3.73-.12-.05-.35-.14-.28.19.29 1.5-.6 1.63-.6 1.63s-.4.34-.57.4c.83 2.19 1.92 1.6 2.31 1.52z" class="secondary"/><path d="M98.87 116.2s-.99.64-.96 1.74c0 .46.2 1.85.62 2.81.8 2.14 1.76 3.45 1.26 4.94-.18.55-.87 1.16-1.98 1.16-.75 0-1.57-.2-2.67-1.45-1.34-1.42-3.73-2-5.31-2-1.5 0-2.78.41-3.74.78-.42.17-.4-.1-.4-.14 0-.05.12-.63.83-1.27.16-.16.91-.69.98-1.1.03-.3-.26-.52-.77-.53-3.23.08-4.96-.22-5.96-.63.62-.61.68-1.44-.06-1.88.95-.52.44-1.34.1-1.53-.51-.27-1.83.12-2.78.46-1.12.34-1.4.45-2.03.12-.22-.15-1.02 1-1.98.26 1.12-.83.6-2.54-.28-2.58-.18-.48.37-.93 1.49-.53 1.48-.32 1.31.29 2.86-.4-.19-.82-.8-.46-2.27-1.09-.62-.26-.4-.7-1.47-.79-.82.35-1.67-.19-1.14-.9.94-.2 1.51-1.67.92-2.41-.18-.23.19-.4.73-.34.21.02.98.26 1.04.8.04.23.63.64.92.75.48.18.95.17 1.6.77.04.03.1.09.17.03.7-.74.22-1.11.24-2.02.02-.51-.7-.34-.63-1.4.01-.17.05-.47.3-.6.77.8 2.47.43 2.46-.44.33-.05 1.05.43.73 1.45.7 2-.08 1.75.04 3.52.02.53.51 1.98 1.95 2.56 2.14.94 5.12 2.64 6.14 2.43.25-.06-.13-1.06-.28-1.63-.7-2.42-.56-4.38-.56-4.38s-.07-1.1-.83-1.75c-.46-.34-.9-.4-1.15-.4-.54 0-.84.29-.84.6 0 .22.12.48.41.48.13.03.08.11.03.17-.08.09-.18.09-.34.08-.24 0-.65-.33-.65-1.1.04-.94.92-1.47 1.68-1.47.4 0 1.02.18 1.29.44.23-.16.15-.58-.03-.86-.18-.29-.44-.4-.94-.45-.1-.03-.16-.08-.02-.16.33-.2.56-.25.78-.23 1.35.13 1.45 1.08 1.47 1.18.02.05.04.03.06 0 .3-.36.69-.83 1.18-1.18 1.75-1.21 4.22-.88 6.25-.2 1.44.47 3 1.73 4.05 2.54m.56-2.87s-.93-1.04-1.7-1.34c-.33-.1-.53-.09-.65.05-.28.3-.01.62.12.8a9.2 9.2 0 011.56 2.86M87.33 85.41c-.32-1.05-.94-2.35-3.02-3.99-1.74-1.26-3.53-1.23-3.53-1.23s-.66.06-.58-.19c.19-.63.4-.8 1.04-.96.76-.23 1.73-.08 1.76-.75-.01-.51-.81-1.21-1.69-1.6-1.52-.6-2.48-.96-3-1.59.7.01 1.18-.98.7-1.56.62.12 1.39-.13 1.31-1.23-.16-1.03-1.36-2.11-2.4-2.13a1.8 1.8 0 01-1.76-1.09c-.62.2-1.61-.75-1.01-1.18 1.48-.09 1.87-1.14 1.33-2.1.44.17.13-.65 1.07.21.39.38.39.92.53 1.06.59.56.9.33 1.3 0 1.08-1.06-1.1-1.24-1.59-3.06-.3-.3-.63-.13-.89-.85-.07-.23-.1-.63.1-.91.16-.15.13-.05.19-.13.64.87 2.47.42 2.56-.7.21.17.35.02.64.29.47.42.53 1.09.15 1.57-.23.56.25 1.27.7 1.59.17.1.48.24.53.2.73-.64.04-1.81.37-2.4-.24-.31.14-1.67.83-1.6.13.02.25 0 .33-.04-.18 1.1 1.4 2.38 1.8 1.76l.1.17c.12.18.32.23.25.72-.13.6-.53.86-.86.95-.26.1-.28.84-.4 1.06-.4.72-.61.86-.61 1.5.02.83.8 3.52 3.59 6.3.89.9 2.03 1.98 3.43 3.01.2.15 3.03 1.9 3.24 2.05"/><path d="M109.96 62.8s-1.02-.47-1.85-.54c-.84-.07-1.81-.38-2.51-.38-.7 0-1.52.11-1.76.28-.48.33-.66.57-1.12.66-.53.07-1.2.1-2 .34-.48.14-.96.4-1.51.53-.49.13-1.86.25-1.96.43-.04.11-.16 1.11.35 1.52 0 .04-.19.28-.19 1.12 0 .85.44 1.2.82 1.6a3 3 0 002.06.97c.84 0 1.6-.54 2.46-.54.44 0 1.22-.01 2.03.77.81.8.84 1.85.84 2.52 0 .68-.29 1.83-.75 2.1a6.9 6.9 0 01-3.27.11c-1.22-.26-1.66-.56-2.16-.7-.5-.13-.86-.21-.86-.05 0 .38.12.32.2.5 0 1-.98 1.22-.92 1.32.1.16.48.24.92.08.43-.16.63-.4.63-.4s-.03.37.31.8c.12 0 .26-.65.77-.86.33-.08.68.18 1.89.18 0 .21-.87.8-1.66 1.03-.79.23-1.17-.09-1.92-.09-.9 0-1.15.46-1.85.46-.7 0-1.4-.16-1.99-.97-.23-.34-.32-.18-.44.09-.38 1.17.14 1.73.17 1.79 0 0 0 0 0 0-2.02-.72-2.91 1.04-4-.12-.16-.21-.37-.37-.43-.02a2.17 2.17 0 001.2 2.14l-.04.01c-1.4-.2-2.42 1.53-3.43.76-.23-.18-.18-.12-.18.12.02 1.57 1.82 1.69 1.81 1.7-1.72.11-2.5.82-3.07 1.53l-.2.25c-.52.65-.97 1.21-2.1 1.22-.3 0-.37.08-.12.34 1.78 1.53 3.17 1.01 3.97.53-.61.55-.55 1-1.05 1.16-2.08.38-4.03.44-5.52.44-4.1-.01-6.45-1.24-7.1-1.83-.47-.47-.4-.72-.65-1.54-.08-.25-.6-.82-.48-1.08.17-.3.27-.8-.08-1.32-.3-.43-.48-.32-.7-.36l-.2-.06c.16.75-1.96.98-2.63.03a.7.7 0 01-.2.27c-.57.44.15 1.74.55 1.78.19.68 1.56 1.04 1.5 2.05-.02.06-.34.2-.53.24-.58.1-1.44-.07-1.7-.66A1.15 1.15 0 0068.06 84c-.4 0-.4.22-.68.26.76.88-.27 2.57-1.38 2.4.01.1-.02 0-.04.23.05.35.37.63.6.74.71.34.85-.02 1.27-.02 1.71.98 3.45-.49 3.42 1.1-.05.53-.1.93-.95.95-.21 0-.6-.4-1.17-.4-1.33.06-.5.44-.95.63 1.12.32 1.6 1.39.57 2.54-.13.76 1.3.72 1.6.13a1.9 1.9 0 002.11-.5c.78-.74 2.46-.84 3.33-.19.87.76.48 1.5-.07 1.87.78.08 1.16 1.16.63 1.67.85.07 1.82-.36 3.38-1.04.94-.35 2.03-.43 2.43-.06.47.51-.35 1.12-.74 1.84-.37.6-.39.88-.07 1.48.12.24.57-.29.57-.29s1.3-1.34 3.51-1.69c4.33-.5 5.31 1.03 6.72 1.6.45.16 2.34 1.26 2.24-.6-.01-1 .36-1.7.5-1.83.07.52.5 1.64 2.04 2.6 4.2 2.71 4.83 6.02 4.83 6.8 0 4.28-2.88 6.01-2.88 12.34 0 1.55.4 3.26 1.13 4.85.9 1.68 1.57 2.55 2.31 3.33 1.15 1.21 2.17 2.24 2.17 6.16 0 5.31-1.05 7.42-1.74 8.32-.6.84-1.2.92-1.82.94-1.36-.06-2.16-1.05-4.41-.28-.4-.11-1-.11-1.18.36.78.54 1.47 1.73.12 2.77.34.3.53.3.75.29 1.04 0 .57-.42 1.26-.45.94.04 1.03.48 1.5.43-.16.1-.37.35-.78.86-.38.48-.75.76-1 .77-.51.02-.98.38-1.04.56-.16.4.11.23-.04.54.76-.02 2.37.28 1.98 1.97.23-.03.12.07.3.2.5.34 1.2-.45 1.18-.82-.02-.55.7-1 .8-1.08 1.21-.97 1.18-.32 1.84-.9 0 .06.18.25.11.36-.18 0-.43.15-.48.35-.07.27-.07.46.04.53.76-.17 1.94 0 1.78 1.17.13-.03.39-.07.54-.08 1.65 0 2.4-1.56 2.4-1.56.6-.82.44-2.17.43-3.3 0-.86.07-1.66.6-1.82.34-.08.83-.04 1.09.11.36-.92 1.03-1 1.73-.47-.01-.2-.1-.41-.12-.53-.1-.55-.62-1.33-.62-3.12 0-4.63 2.38-7.25 2.74-7.8.5-.65 2.06-3.3-.98-3.93-2.13-.4-2.4-.8-2.43-2.17 0-1.03.94-3.91.95-5.53.11.3.21.58.3.74.13.2 1.42 3.02 3.06 4.72 1.25 1.28 2.75 2.18 4.51 2.2a5.9 5.9 0 003.56-1.32c2.68-2.16 2.85-5.74 2.88-7.58 0-1.03-.27-3.46-.35-3.86-.03-.31-.23-1.66 1.23-2.14 1.42-.61 1.88-.39 2.64-.47a4.5 4.5 0 002.38-.85c1.53-1.06 2.02-2.3 2.02-3.47 0-.39-.16-1.85-1.12-2.14-.14-.04-.2.04-.13.22.08.18.25.35.25 1.05 0 .7-.5 1.82-1.89 2.07.53-.2 1.28-1.03 1.28-1.67 0-.28.02-.73-.24-.73-.2 0-.08.47-.66 1-.6.54-1.32.78-2.09.68a5.85 5.85 0 00-4.03.76l-.76.43c-.1-1.12.63-2.18 1.74-3.06.18-.14.96-.74 1.15-.85 1.74-1.04 3.39-.7 4.98-1.57.8-.44 1.41-.64 1.74-1.4.17-.37.24-.67.2-.9-.06-.36-.1-.25-.21 0-.28.6-.57.82-2.02 1.13-.08.02-.14-.06-.14-.06.89-.52 2.4-1 2.31-3.27-.09-1.7-.86-2.3-.86-2.3s-.21-.4-.28.4c-.14 1.06-.15 3.84-3.93 3.5-4.2-.3-6.77 3.87-7.05 4.39l-.2.4c.13-.46 1.22-4.65 3.98-7.12 2.76-2.6 5.55-1.64 8.83-4.3 1.7-1.38 2.39-2.53 2.42-3.84-.03-1.03-.27-1.5-.4-1.55-.06-.04-.18-.07-.18.1 0 .36 0 1.25-.44 1.66 0 0-.18.23-.2.23a3.5 3.5 0 00.23-1.39c0-2.3-2.36-3.28-3.42-2.85-.3.12-.46.13-.4.24.06.1.22.12.31.13 2.45.33 1.9 2.1 1.86 2.44-.42 1.38-1.81 2.23-3.74 2.5-2.92.5-4.7 1.24-5.97 2.08-1.4.93-2.9 2.08-4.61 5.38-.01.02-.03.02-.03 0 1.9-9.5 11.5-13.21 15.07-19.42 1.77-2.8 2.38-5.14 2.4-7.07.09-5.07-3.8-6.81-5.07-7.39-.44-.18-2.62-1.08-5.34-1.02-2.06.03-4.14.59-5.75 2.76-2.62 3.88-1.66 6.74-.7 8.25.3.48.62.97.62 1.64 0 .32-.07.74-.27 1.21-.2.5-.5.59-.76.59-.38 0-.37-.3-.5-.27-.07 0-.15.04-.13.2.06.57.64.73.92.75.8.05 1.4-.75 1.52-.98a3.52 3.52 0 01-1.44 2.13c-1.11.79-1.25 1.75-1.2 2.66 0 .86.26 1.56.26 1.56s.5 2.14-.3 3.29c-.38.6-.41.64.2.45 1.42-.52 1.36-3.45 1.36-3.45s-.07-1.6.8-2.3c0 0-.05.28-.05.58 0 .5.32 1.07.95 1.1.08 0 .12-.07.04-.13a.84.84 0 01-.27-.57c0-1.7 3.07-2.04 3.88-3.02 1.38-1.65.45-3.77.25-4.68a.75.75 0 01.45-.8c.3-.13.78-.28 1.1-.27 1.05.06 1.67.25 1.67 1 0 .35-.28.68-.24.69.47 0 .9-.37.9-.78l.02-.29c.17.18.33.55.33.72 0 .4-.18 1.1-.3 1.35-.1.2-.25.3.1.24 1.32-.28 1.68-1.9 1.68-2.48 0-2.23-1.77-2.74-1.76-2.76.83-.18 1.58.46 1.86 1.16.03.18.14.03.14.03s.17-.14 0-.89c-.33-1.28-1.28-1.78-2.97-1.97-2.8-.14-2.68-3.16-.93-3.46 3.97-.46 5.1 2.01 5.1 2.01s3.32 5.4-5.76 12.42a38.6 38.6 0 00-9.56 11.17c-1.37 2.46-4.82 7.92 1.35 18.62a22 22 0 012.3 6.86c.38 2.83-.41 3.8-.41 3.8s-1.08 1.6-2.77 1.37c-.76-.13-2.65-.92-4.58-5.6-.74-1.78-1.2-4.68-1.9-7.78-.84-3.74-1.3-5.95-1.3-9.83-.19-5.23.49-7.73.62-8.54.67.49 1.22.8 2.24.77.62.02 1.14-.12 1.67-.61.36-.4.58-.81.18-.78-2.49.49-3.35-1.76-3.3-3.59.01-.99.5-2.84.69-3.15.03.04.88 1.52 2.4 1.62.51.04.98-.1 1.64-.43.33-.14.76-.54.51-.6-2.9.02-3.13-2.33-3.13-2.33s-.64-1.45.1-3.35c.09-.21.17-.44.31-.5.33.24 1.02.78 2.05.67.71-.11 1.14-.25 1.5-.7.5-.47.03-.35-.2-.4-1.56.17-2.42-.91-2.82-2.13-.53-1.6-.1-2.35-.1-2.35s.67.36 1.45.3c.5-.04.95-.16 1.34-.6.08-.1.16-.28.01-.28-1.22.1-1.8-.46-2.25-1.22a3.7 3.7 0 01-.45-1.43c0-.19 0-.4.1-.6 1.56-.12 1.9-1.32 1.82-1.38-.26-.21-.55.27-1.34.27-1.02 0-1.01-1.14-1.18-1.78-.17-.43-.43-1-.69-1.16"/><path d="M108.74 63.47s.5-.41.84-.54c.18-.07 1.8-.74 2.58-.17 1.08.77.21 2.72.16 2.88"/><path d="M108.74 63.47l.05-.06.16-.15.27-.2.18-.13.22-.12a5.4 5.4 0 011.67-.45c.23 0 .45.03.69.1.11.04.22.1.33.19l.06.04.07.07.12.13a1.83 1.83 0 01.3 1.23c-.01.2-.06.36-.1.53a3.5 3.5 0 01-.26.73l-.1.2-.04.06-.04-.02.08-.28c.04-.18.11-.44.15-.75.03-.15.04-.31.05-.49 0-.17-.01-.36-.06-.53a1.25 1.25 0 00-.22-.48l-.1-.1a.06.06 0 00-.04-.05l-.06-.04a1.14 1.14 0 00-.24-.13 1.51 1.51 0 00-.56-.09c-.2 0-.4.02-.59.05l-.55.11-.48.14a.6.6 0 00-.2.08c-.07.03-.13.05-.18.09a6.67 6.67 0 00-.58.32zm11.71 53.32c-1.35-.2-1.98-.66-2.07-1.8-.11-1.27.34-1.74 1.11-2.02.38.29 4.16-.26 4.48-.49 1.01.05 1.89.3 2.02 1.73.1.94-.6 1.71-1.7 2.2-.39.25-2.54.67-3.84.38z"/><path fill="#fff" d="M104.91 64.25c-.13.15-.44.2-.8.24-.37.04-.73.02-.8-.16-.07-.12.15-.74.4-.74.24-.02.87.4 1.2.66z"/></g><g fill="#000" stroke-width=".113"><path d="M103.99 64.51s-.09-.12-.09-.35c0-.22.13-.4 0-.4-.12 0-.32.19-.32.46s.08.26.08.26m11.8 12.28l-.06-.03-.18-.08a1.77 1.77 0 01-.25-.13l-.27-.17a1.14 1.14 0 01-.12-.1l-.12-.1-.1-.1-.08-.1-.06-.1c-.03-.02-.04-.04-.05-.06l-.04-.06.03-.02.05.06.05.05.08.07.1.08c.04.02.08.04.12.08l.12.08.14.06.27.12.23.08.18.04.07.01zm-2.91-5.51l.07.01.09.04c.03 0 .07.03.1.05l.11.08.11.1.24.2.23.2.2.16.08.04.07.02.05.01-.1.32-.08-.03c-.02-.01-.05-.04-.09-.05l-.1-.08a3.01 3.01 0 01-.21-.2l-.2-.25-.2-.24c-.03-.04-.05-.08-.08-.1l-.1-.1a.5.5 0 01-.07-.06l-.07-.04c-.05 0-.07-.02-.07-.02zm1.58-2.61l-.07-.01-.18-.02a1.13 1.13 0 01-.25-.07l-.13-.05c-.05 0-.1-.04-.14-.05l-.13-.07-.13-.09-.1-.09a.54.54 0 01-.08-.09c-.02-.03-.04-.05-.05-.09l-.04-.07-.02-.05.04-.01s0 .02.03.05l.04.06.07.07.1.07.1.06c.03.03.07.04.12.06l.12.04.14.03c.04 0 .09 0 .12.02l.24.01h.16c.03 0 .05-.02.05-.02zm-4.23 1.96l.1.05.11.06.13.08.16.11.16.14c.06.04.1.1.16.17l.14.18a2.95 2.95 0 01.32.6l.04.2c.03.12.03.22.03.29l-.01.11h-.06l-.04-.09a.43.43 0 00-.06-.1l-.07-.14c-.05-.1-.11-.2-.19-.31-.03-.06-.08-.11-.11-.18l-.12-.18-.13-.18-.12-.17-.12-.16c-.05-.04-.08-.1-.12-.14l-.16-.23a.46.46 0 01-.04-.1zm.12 2.79l.06.05c0 .03.03.05.05.07l.08.08c.02.04.06.06.1.1l.08.1.1.1.1.12.1.11.1.11.19.2c.06.06.1.12.12.16l.05.07-.02.05s-.13-.02-.28-.1a1.5 1.5 0 01-.7-.66l-.07-.14-.04-.14-.03-.12v-.1c0-.03 0-.06.02-.06zm-2.21.27l.1.05.08.1c.04.03.07.07.1.13l.1.18c.02.07.05.13.06.2.05.15.07.3.1.45l.05.43c.02.13.03.26.06.37a2.84 2.84 0 00.07.26l.02.1-.05.04-.08-.08a.4.4 0 01-.07-.1l-.1-.14-.08-.18-.07-.2c-.05-.15-.07-.3-.1-.45l-.01-.23c-.01-.06-.01-.14-.03-.2 0-.08 0-.14-.02-.2 0-.06 0-.12-.03-.17l-.03-.13a.33.33 0 00-.05-.12l-.01-.1zm-.71 1.8l.05.07.05.1v.17a.9.9 0 01-.05.17l-.07.15-.16.32-.08.16-.07.15-.03.08c-.01.02-.01.05-.03.07l-.04.13-.03.13-.03.1c0 .06-.02.1-.02.1h-.05l-.04-.1-.03-.1-.02-.14-.01-.07v-.18c0-.04.02-.06.03-.1l.06-.18.08-.2.1-.16c.03-.06.08-.1.11-.15l.1-.12.05-.06c0-.02.03-.03.04-.05l.04-.05c0-.01 0-.03.02-.04l.02-.08.01-.11zm-1.43 1.29v.27c0 .06 0 .13-.02.2 0 .06-.03.14-.05.22-.02.08-.06.16-.1.24-.01.04-.05.07-.07.12-.02.03-.04.08-.08.11-.03.04-.05.08-.09.11l-.1.1c-.07.07-.14.13-.22.18-.08.05-.15.1-.23.13a1 1 0 01-.2.11l-.17.12-.07.05a.31.31 0 00-.06.06l-.1.09-.07.09-.05-.02.04-.13a.72.72 0 01.05-.13c.03-.06.07-.1.12-.17l.15-.17.2-.16.2-.14.19-.16.09-.08c.02-.03.06-.05.08-.09.06-.05.1-.11.15-.18l.12-.18.1-.18.08-.16c.02-.05.03-.1.06-.13l.05-.11zm-2.69-13.58v.04l.05.08a.6.6 0 00.08.1c.04.03.08.05.14.05h.04c.01 0 0 0 0 0h.25l.11-.03a.42.42 0 01.12-.02l.12-.03.27-.08.16-.03h.16l.14.02.15.03a3.73 3.73 0 01.46.2 1.96 1.96 0 01.39.26l-.03.05-.12-.03a.61.61 0 01-.14-.05l-.18-.04c-.06-.03-.13-.04-.2-.06a.4.4 0 00-.12-.02.39.39 0 01-.11-.03h-.34l-.12.03c-.08 0-.17.03-.26.05-.1.03-.2.04-.28.05h-.15l-.13-.01-.12-.02-.06-.01-.07-.03a.46.46 0 01-.17-.15.31.31 0 01-.05-.16c0-.1 0-.15.02-.15zm2.89.13l-.1-.01-.12-.04a.97.97 0 01-.14-.04l-.17-.05c-.06 0-.12-.03-.19-.04l-.1-.04c-.03 0-.07 0-.1-.02-.07 0-.14-.04-.2-.05l-.2-.05-.2-.03-.19-.03H103.74l-.06.02h-.03l-.04-.02.02-.04.07-.05.11-.07.07-.03.03-.01.05-.02c.06 0 .12-.03.2-.04l.2-.01.23.02.22.05.23.06c.07.03.15.06.2.1.07.03.13.05.18.1l.16.1.07.04a.2.2 0 00.05.05l.1.08c.05.04.07.08.07.09zm.95 16.27l.06.4c.02.14.08.21.1.27.04.05.07.1.08.24h0c.15.95-.24 1.5-.77 1.99-.54.48-1.23.89-1.61 1.51-.14.2-.23.43-.27.86h0l-.03.15a1.72 1.72 0 01-.77-1.07c-.07-.34-.02-.67.07-.99.1-.31.23-.6.32-.85.05-.12.08-.23.1-.34.01-.1 0-.22-.08-.3l-.11-.13-.09.15-.16.33c-.09.17-.2.38-.38.62a6.57 6.57 0 01-1.61 1.61c-.85.58-2.28 1.08-3.34.57h0c-.06-.02-.07-.04-.1-.06h.04c.61-.12 1.06-.58 1.38-1.08.32-.5.53-1.03.65-1.32l.01-.02-.22-.11c-.24.4-.47.6-.7.7a1.7 1.7 0 01-.68.15c-.23.01-.48.02-.73.13-.25.1-.48.32-.7.7h0c-.03.05-.06.08-.07.08l-.04-.05h0a.97.97 0 01-.07-.98 1.35 1.35 0 01.28-.37l.02-.03.01-.01.02-.02.16-.23-.28.04c-.04 0-.06.02-.08.03l-.09.05-.24.13c-.2.1-.46.23-.76.3a2.2 2.2 0 01-2.13-.54h0l-.02-.01-.02-.02.06-.01v-.25a.43.43 0 00-.19.04.25.25 0 00-.11.15c-.03.12.03.23.14.3a2.5 2.5 0 002.33.59c.29-.08.51-.19.7-.28l-.02.04c-.14.3-.2.73.07 1.2h0a.4.4 0 00.15.16c.06.03.13.04.19.02.11-.04.17-.14.2-.22v.01c.2-.35.4-.5.6-.6.19-.08.4-.09.64-.1.24-.02.5-.05.77-.18.1-.04.18-.19.27-.26-.1.23-.17.42-.32.65-.31.47-.71.88-1.22.97h0a.48.48 0 00-.17.05c-.06.02-.12.04-.15.12a.18.18 0 000 .14l.07.09c.06.05.13.09.24.14 1.2.57 2.69.02 3.59-.6h0a6.84 6.84 0 001.68-1.67l.18-.3c-.07.18-.16.37-.23.61-.1.34-.15.72-.07 1.1.08.4.3.8.74 1.15h0l.16.1c.05.03.11.05.19.03a.2.2 0 00.15-.15.9.9 0 00.04-.22h0c.05-.41.12-.6.23-.75h0c.34-.56 1.01-.96 1.57-1.47s1.01-1.17.86-2.2h0c-.01-.09-.04-.12-.06-.17l.02.01c.16.08.36.16.57.21.43.1.95.1 1.35-.25h0l.07-.06a.18.18 0 00.05-.13.2.2 0 00-.06-.14.7.7 0 00-.12-.09l-.14.2.04.04s0 0 0 0c-.32.27-.75.28-1.13.2a2.3 2.3 0 01-.52-.2 1.2 1.2 0 01-.28-.2l-.28-.3zM96.64 85a5.1 5.1 0 01-1.26.62l-.33.1-.35.08a3.9 3.9 0 01-.35.05l-.36.03-.36-.01-.18-.02a.96.96 0 01-.18-.02l-.18-.03-.18-.05a.95.95 0 01-.17-.05l-.17-.07a2.8 2.8 0 01-.32-.16l-.16-.1-.16-.1-.14-.11-.14-.12-.26-.26h.01c-.02-.01-.04-.02-.05-.06l-.04-.04a1.78 1.78 0 01-.06-.17v-.07l.03-.07a.24.24 0 01.1-.1.24.24 0 01.1-.05l.12-.01a.2.2 0 01.1.02l-.03-.01.2.02h.22a1.33 1.33 0 00.43-.08l.22-.07.2-.09c.13-.06.26-.14.38-.23l.05-.04h0l.03-.02h.03l.1-.06.1-.06.12-.04.24-.1.23-.06.24-.06.24-.03.23-.02h.24v.05l-.24.04c-.07 0-.15.03-.22.04l-.23.06-.22.07a1.8 1.8 0 00-.21.09.75.75 0 00-.2.1l-.1.05-.1.07-.1.07-.03.01h-.01.01-.01l-.05.04a2.55 2.55 0 01-1.1.55c-.09 0-.18.03-.26.03l-.24.01h-.26l-.02-.02h-.04l.01-.02v-.02s0 0 0 0 0 0 0 0l.02.02.02.02h0v.02l.25.23.12.11.14.1a.9.9 0 00.13.1l.14.09a3.55 3.55 0 00.45.2l.15.06.16.04.16.04.17.03.17.02.33.02h.34c.11 0 .23 0 .34-.03l.34-.04.33-.07c.23-.06.44-.11.67-.2.25-.06.46-.14.68-.23zm3.21 1.11l-.32.2-.15.1-.16.1-.3.23-.08.06-.07.06-.15.12-.14.12-.14.13c-.09.09-.18.17-.25.26l-.25.28a.58.58 0 00-.11.15l-.1.14h0a5.17 5.17 0 01-3.72 1.95 4.46 4.46 0 01-1.7-.3c-.26-.1-.53-.2-.8-.33l-.1-.05-.1-.06-.1-.06-.09-.06-.09-.08-.1-.13a.28.28 0 01-.02-.2.26.26 0 01.1-.18.28.28 0 01.14-.08c.02 0 .04 0 .07-.02h.05l.2-.04.4-.08a5.7 5.7 0 002.25-.99c.24-.17.44-.35.63-.55l.58-.6c.2-.2.45-.38.74-.45v.05c-.26.08-.46.27-.66.47l-.55.64a5.1 5.1 0 01-2.1 1.44 6.9 6.9 0 01-1.24.35l-.2.05-.04.01-.04.01-.04.02c-.01.02-.01.02 0 0 0 0 0 0 0 0h.01l.02.03.07.05.08.06.08.06.08.05.09.05c.24.12.5.22.75.3.26.08.53.16.79.22a3.9 3.9 0 001.6 0 4.72 4.72 0 002.76-1.66h0l.12-.15.12-.15c.08-.1.18-.18.27-.27l.29-.26.14-.12.16-.11.16-.11.08-.06.08-.06.32-.2c.06-.03.1-.07.17-.09l.17-.09zm4.5 1.81l.02-.18c0-.05.04-.12.07-.2.02-.08.08-.16.12-.25l.2-.26.25-.25.27-.25c.05-.05.1-.1.14-.12l.12-.14.12-.13.1-.15.09-.15.08-.14c.03-.1.09-.2.1-.3.03-.1.08-.2.09-.29l.04-.24c.01-.08.01-.15.03-.2 0-.12.02-.19.02-.19h.05a7.9 7.9 0 00.07.39v.27c0 .1 0 .21-.03.32-.01.12-.06.24-.09.36-.02.07-.06.13-.08.18-.03.06-.05.13-.1.18l-.11.17-.14.16c-.09.1-.19.2-.29.27l-.3.24c-.08.08-.17.14-.26.21a.26.26 0 00-.06.05l-.05.05-.1.1-.1.1c0 .02-.03.04-.04.05l-.03.05c-.05.05-.1.1-.11.17l-.08.15z"/><path d="M102.65 84.62l-.58.32a3.82 3.82 0 00-1.34 1.43c-.22.38-.37.81-.59 1.22-.11.2-.23.4-.4.58-.15.18-.33.35-.53.47-.2.14-.42.24-.63.33l-.3.11c-.04.02-.06.05-.05.03v-.05l.01.01c.02.03.06.05.1.06h.01l.03.01.04.01.08.04.16.05.16.05.15.04.16.04c.1.02.22.03.32.06a2.99 2.99 0 001.87-.4c.19-.1.38-.22.56-.35h0c.08-.03.13-.07.2-.12l.18-.13.35-.3a2.07 2.07 0 00.3-.36c.05-.05.1-.12.14-.19l.06-.1.04-.1.06.01c-.01.04-.01.08-.04.13 0 .03-.02.08-.04.11-.03.08-.07.15-.11.21l-.14.2-.14.18c-.1.12-.22.23-.34.33a2.03 2.03 0 01-.38.3h0l-.55.4a3.25 3.25 0 01-.97.4 2.97 2.97 0 01-1.06.08 3.83 3.83 0 01-.7-.13l-.17-.05-.15-.06c-.1-.05-.23-.07-.35-.18l-.1-.12a.28.28 0 01-.01-.1c0-.04 0-.08.02-.12l.04-.08a.14.14 0 01.06-.05l.1-.07.06-.02.04-.01.08-.02.16-.06a2.63 2.63 0 001.43-1.21c.21-.39.4-.8.64-1.2a3.5 3.5 0 011.5-1.38 3.9 3.9 0 01.57-.24zm-9.18 8.55v.27l-.01.1-.02.13a.61.61 0 01-.05.14c-.02.1-.08.19-.13.3l-.1.15-.14.13-.14.13-.16.11-.17.1-.17.1c-.12.05-.26.1-.38.13-.07 0-.12.03-.2.03l-.18.02h-.36l-.17-.03-.16-.03a2.58 2.58 0 01-.44-.18l-.1-.08-.04-.04.02-.03.05.02c.02.02.06.03.12.05a2.3 2.3 0 00.74.12h.34c.11-.02.24-.04.35-.08.11-.03.24-.07.34-.12l.17-.08.15-.09.15-.1.14-.1.12-.11.1-.12.08-.13.07-.12.05-.12.04-.12.03-.1.03-.09c0-.09.03-.15.04-.15zm-19.35-5.42l.11.06.14.07c.04.02.11.04.17.08l.2.08.24.08c.04 0 .08.02.12.04l.12.03.26.07.26.07.26.06c.08 0 .17.02.24.04l.21.02c.07.02.14.02.2.02h.27v.04l-.13.04a.55.55 0 01-.14.02l-.2.02h-.22a2.1 2.1 0 01-.26-.02 2.17 2.17 0 01-.27-.05c-.09 0-.18-.04-.28-.05l-.27-.08-.26-.1-.23-.11-.2-.13-.16-.11a.5.5 0 01-.11-.1l-.06-.08zm26.96-9.6s-.07 0-.17.03c-.06 0-.12.03-.2.05-.06 0-.14.05-.22.09l-.12.06-.14.07-.28.17-.31.2-.17.08a.84.84 0 01-.18.08l-.18.08-.2.06-.18.04-.2.02c-.12.02-.24.03-.36.02l-.31-.04-.26-.05a1.81 1.81 0 01-.19-.07.9.9 0 01-.17-.07l.01-.04h.93c.1 0 .21-.03.32-.05.06 0 .12-.02.17-.03a.9.9 0 00.17-.05l.17-.05.17-.07.17-.07.17-.07c.11-.06.21-.12.33-.16.1-.06.2-.1.32-.14l.3-.09c.1 0 .2-.03.28-.03a1 1 0 01.2.01l.17.04zm-12.72 4.17l-.12-.11a1.33 1.33 0 01-.15-.14l-.18-.18-.2-.22a1.78 1.78 0 01-.22-.26l-.12-.14-.1-.14c-.09-.1-.15-.2-.23-.3l-.22-.3-.19-.3-.17-.3-.13-.26c-.05-.08-.08-.16-.11-.23l-.07-.18a.64.64 0 01-.06-.16h.04l.07.14.07.17.13.21.16.25c.05.1.12.18.19.27.07.1.13.2.21.28.08.1.15.2.23.28l.23.27.13.14.12.12.24.24.21.2.18.15.16.12c.08.07.14.1.14.1zM82 94.94l.18-.17.08-.07c.02-.04.05-.06.09-.1l.18-.2.15-.21.07-.11c.02-.04.03-.07.06-.1l.09-.22.03.02s0 .09-.04.23l-.04.11a.53.53 0 01-.04.13c-.04.08-.07.18-.13.26a1.8 1.8 0 01-.14.25.95.95 0 01-.07.1l-.07.11-.13.2zm-6.47-3.65h-.7l-.25.03-.27.03-.27.05-.13.02-.14.04-.26.06-.23.08-.2.08-.17.08-.13.07-.07.06c-.03 0-.03.02-.03.02l-.02-.02.02-.03a1.21 1.21 0 01.34-.3l.2-.12.24-.12.27-.09.15-.03.14-.03c.1-.03.2-.03.3-.04h.54l.23.04c.15.02.26.06.34.08l.1.04zm-6.38-6.11l.02.1.01.12v.17c0 .06 0 .13-.02.2-.01.06-.02.13-.05.2-.02.08-.04.16-.07.22l-.1.22-.14.2c-.04.07-.1.12-.15.18-.04.06-.1.1-.15.15l-.16.1-.15.09-.12.04-.1.04-.01-.04.09-.06c.02-.03.06-.05.09-.07l.11-.1.13-.12.12-.15.07-.08.05-.09c.05-.05.08-.12.12-.19.08-.12.13-.26.19-.4.02-.06.06-.12.07-.18l.05-.17c.04-.11.06-.2.07-.27.01-.07.02-.1.03-.1zm1.44-1.82s.04 0 .11.03l.12.03.16.04.2.03.2.02h.41l.06-.02.24-.03c.07-.01.14-.02.22-.05.07 0 .14-.03.2-.05l.17-.07c.05-.02.1-.04.14-.08l.09-.08.04-.05a.46.46 0 00.02-.02H73l-.01.04-.03.08a.26.26 0 00-.04.06c0 .02-.03.03-.04.06l-.14.12c-.05.03-.11.08-.18.1a1.87 1.87 0 01-.45.14c-.08 0-.15.02-.23.04l-.06.01h-.07c-.04 0-.09 0-.12.02a1.78 1.78 0 01-.47-.08l-.1-.04c-.04 0-.06-.02-.1-.03l-.15-.08-.11-.07-.07-.05-.03-.01zm-.23 8.8s.04-.03.06-.09a.78.78 0 00.04-.1l.05-.14.06-.37v-.49h0s0-.02 0 0v-.16l-.04-.2c0-.07-.03-.14-.04-.2-.01-.05-.05-.1-.06-.17l-.05-.13c-.03-.03-.04-.08-.06-.1l-.05-.08.02-.02.09.05.09.1c.03.03.07.07.1.13s.07.11.09.17a1.45 1.45 0 01.14.43v.17h0v.06c0 .17 0 .33-.03.48a1.15 1.15 0 01-.13.4.62.62 0 01-.09.14.33.33 0 01-.09.09.23.23 0 01-.07.04h-.02zm26.27.74l-.02.02a.37.37 0 01-.07.05l-.21.22-.63.69-.1.09a.6.6 0 01-.06.09.6.6 0 01-.07.09l-.06.1-.13.19-.1.17a37.15 37.15 0 01-.18.37l-.3-.15.07-.1.17-.26.12-.16a.84.84 0 01.15-.18l.08-.1c.03-.03.05-.06.09-.08l.09-.1.1-.07.7-.6.24-.2c.04-.02.06-.03.07-.05h.02zm30.76 1.44l-.2.06-.23.08c-.09.04-.18.07-.28.13-.1.05-.21.1-.32.18-.12.06-.24.13-.35.22l-.18.13a2.4 2.4 0 01-.18.13l-.35.3-.33.3-.3.32a77.36 77.36 0 00-.88 1.02l-.14.16-.24-.23.15-.15.38-.4a13.76 13.76 0 011.25-1.17l.37-.28.2-.14a.81.81 0 01.18-.1c.13-.09.25-.16.38-.21.1-.07.23-.11.35-.16l.3-.11a.9.9 0 01.24-.07l.2-.04zm2.67 4.29l.06-.06.08-.07a.43.43 0 00.1-.1l.1-.13c.05-.04.07-.09.12-.14l.11-.16.1-.18c.04-.06.06-.12.08-.18.02-.06.06-.12.07-.18l.06-.17c0-.05.02-.11.04-.16l.03-.13c.02-.03.02-.07.02-.1v-.1l.33.08-.03.1-.03.11a.66.66 0 01-.06.14l-.06.15-.1.17c-.03.06-.06.13-.1.18-.03.06-.06.13-.1.18-.05.06-.1.11-.13.17l-.14.16-.13.13-.14.12a1.93 1.93 0 01-.28.2zm.32 2.07l-.04.01-.06.02h-.21c-.06 0-.1.02-.16.03l-.16.03-.13.05-.12.07-.03-.03.1-.1a.41.41 0 01.13-.1.5.5 0 01.15-.1l.15-.09.14-.07h.03c.01 0 .01-.02.03-.02h.03a.13.13 0 00.03-.03zm-3.09 1.67l-.16.07-.18.07c-.07.04-.15.07-.22.12l-.26.14-.28.18c-.2.13-.4.29-.59.43-.4.3-.75.65-1.01.92l-.42.45-.24-.23.46-.43a10.37 10.37 0 011.73-1.25l.3-.16.29-.13.23-.1.2-.07.16-.05zm-4.34 4.99l-.04.03-.04.02a.08.08 0 01-.06.02c-.03.02-.07.03-.11.07l-.14.1-.14.11-.08.05-.07.03-.05.02c-.03 0-.04.02-.05.02h-.04l-.01-.03.03-.02c.01 0 .02 0 .03-.02l.05-.03a1.06 1.06 0 00.09-.1l.1-.14.1-.15a.31.31 0 01.06-.06l.06-.07.04-.05.04-.03.03-.03zm7.72-.76l.08-.1.1-.12.08-.14.1-.2.07-.2.06-.24.02-.12.01-.13c.02-.09 0-.17 0-.26 0-.07 0-.16-.02-.24a1.3 1.3 0 00-.04-.23l-.06-.2a1.73 1.73 0 00-.1-.3l-.05-.1.33-.1.04.12.06.32.04.23c0 .08 0 .16.02.25v.27l-.03.27c-.01.04-.01.09-.03.13 0 .05-.02.1-.03.14a.85.85 0 01-.09.24l-.11.23-.12.18-.12.15a.43.43 0 01-.1.1l-.09.09zm-5.76 3.05s-.09.12-.2.31l-.1.16c-.03.06-.07.11-.09.18l-.09.19c-.03.07-.05.14-.09.2l-.07.22-.05.2-.05.2-.03.16-.02.15-.01.11v.08l-.34.01.01-.12.03-.13.05-.15.06-.18a.84.84 0 01.08-.2l.09-.2a4 4 0 00.1-.21l.11-.2.11-.2.13-.16.1-.15.26-.28zm-5.68 3.05l-.21-.71a5.39 5.39 0 00-.09-.36 3.67 3.67 0 01-.09-.4l-.08-.44-.07-.45-.06-.43-.08-.43-.08-.4-.09-.34a.63.63 0 00-.05-.16c0-.05-.03-.1-.04-.14a6.7 6.7 0 01-.08-.22l-.07-.2h.04l.08.19.09.22.05.14c.03.04.04.1.06.16l.11.35.1.39.1.43.1.44.11.44.1.41.11.38a6.12 6.12 0 00.37 1.05zm7.89-46.87l-.2.03a1.2 1.2 0 00-.23.05c-.09 0-.18.05-.28.09l-.16.06-.15.08c-.12.06-.22.14-.33.22l-.17.13-.17.15-.15.16c-.05.05-.1.1-.14.17a2.56 2.56 0 00-.4.76 5.4 5.4 0 00-.12.4l-.05.36-.01.3.01.24.01.15.01.06-.03.01-.01-.05a.53.53 0 01-.02-.16 1.45 1.45 0 01-.03-.24v-.31c0-.11.02-.24.04-.37.02-.14.04-.27.09-.4.03-.15.09-.29.15-.43s.13-.28.22-.42l.15-.2.15-.16c.06-.05.12-.1.16-.16l.17-.14c.11-.1.23-.18.34-.26.06-.03.11-.08.17-.1l.17-.1c.11-.04.21-.08.31-.1.1-.04.18-.06.25-.07l.2-.05z"/><path d="M125.3 67.84v-.02l-.01-.08v-.12l.03-.16c.01-.11.05-.24.08-.38l.03-.12.05-.1.04-.1.06-.1.06-.1.06-.09.14-.18.13-.16.13-.13.11-.11a.64.64 0 01.1-.08l.12-.07.13.3-.07.04-.09.06-.1.09-.14.1-.15.14-.15.15-.06.08-.07.08-.07.08-.05.09-.06.09-.04.09-.13.35c0 .05-.02.1-.03.14l-.02.12v.1zm3.71 3.12l-.23.01h-.76l-.12.01-.1.02-.16.05-.06.02v-.03l.05-.04a.53.53 0 01.15-.07.39.39 0 00.1-.05l.12-.03.14-.04.13-.02.26-.04.22-.05.2-.05zm.15 1.88s-.02 0-.03.03l-.04.1-.02.07c-.02.02-.02.04-.03.08 0 .02 0 .06-.02.08l-.01.09v.17l.02.14.04.14-.34.04.01-.16.02-.17c0-.04.01-.07.03-.1 0-.03.02-.06.03-.08a.37.37 0 01.04-.1l.05-.07.04-.08a.23.23 0 00.05-.07l.08-.08.03-.03zm-9.13 8.14l.04-.07a.56.56 0 00.03-.07l.02-.05.04-.06.08-.12.1-.12.1-.13.1-.13.18-.27.07-.14.06-.12.1-.26.04.01-.07.29a.61.61 0 01-.04.13l-.05.15-.14.3c-.02.06-.06.1-.08.15l-.08.15-.06.13-.05.11-.02.05-.01.05-.03.1a.97.97 0 01-.02.07zm1.28-4.81h-.03l-.1.05-.12.08-.14.1-.12.12a.2.2 0 00-.05.05c0 .03-.02.04-.03.05l-.04.08c-.02 0-.02.02-.02.02l-.29-.18.04-.03.04-.05c.01-.02.04-.03.06-.04l.07-.05.07-.04a1.18 1.18 0 01.35-.14c.06 0 .12-.03.16-.03l.11-.01h.05zm-.97-.77l-.04-.1a1.78 1.78 0 01-.03-.12c-.01-.05-.02-.1-.06-.16l-.08-.17-.1-.18-.08-.09-.07-.09-.16-.18a8.87 8.87 0 01-.33-.35c-.05-.05-.1-.1-.14-.17l-.14-.14-.26-.33.29-.19.21.34.11.16c.05.05.08.11.13.18l.29.38.13.2.07.1.06.1.1.2.07.2.03.16.02.12.03.11zm9.45 14.75l.32-.26.35-.26.4-.28.41-.27.18-.13.16-.13c.04-.03.09-.06.12-.1l.1-.09.07-.07.24.24-.1.08c-.04.02-.07.06-.11.1a1.7 1.7 0 01-.15.1l-.18.1-.2.12a17.3 17.3 0 00-.88.45l-.37.21-.36.22zm4.68-1.32l-.16.29a.9.9 0 01-.1.13 2 2 0 00-.1.16l-.12.16c-.03.05-.09.1-.13.15l-.15.15-.14.12-.15.12c-.04.03-.09.05-.13.09l-.2.12-.08.05-.03-.04.07-.05.18-.15.12-.1c.05-.03.08-.08.13-.12l.12-.14c.05-.04.08-.1.12-.16l.1-.15c.03-.06.05-.12.09-.16l.07-.16.06-.13.13-.3zm-16.13 33.27l-.05.01-.07.02c-.02.02-.05.02-.09.02h-.34l-.12-.01-.45-.08-.2-.04.09-.32.2.08.4.17c.04 0 .09.03.12.04l.11.04c.04 0 .07 0 .1.02l.1.01c.03 0 .05.01.07 0h.13zm-8.15-3.6l-.05-.09a.38.38 0 00-.04-.1l-.06-.15a.81.81 0 01-.05-.18c-.03-.05-.04-.12-.06-.19l-.1-.41-.08-.43-.05-.37-.03-.27v-.1h.03l.02.1.06.26c.02.1.05.22.1.36.03.13.09.27.13.4l.16.4.08.18.08.14c.02.05.04.1.07.13l.05.1.06.1zm-.97 4.83v.1l.01.29a6.56 6.56 0 00.22 1.28l.06.2.08.18.08.14a.4.4 0 00.07.1l.06.1-.03.02-.06-.08c-.03-.02-.05-.06-.08-.1a.4.4 0 01-.1-.14 2.84 2.84 0 01-.2-.36c-.05-.13-.12-.29-.16-.44-.1-.3-.17-.61-.22-.86l-.04-.3-.01-.1zm-1.15 16.69v.08l-.02.09c0 .03 0 .08-.02.11l-.03.14a.75.75 0 01-.06.14l-.08.16-.1.15c-.08.09-.16.18-.21.26l-.15.22-.04.1a.22.22 0 00-.03.07c0 .05-.02.07-.02.07l-.31-.12s0-.03.04-.08l.05-.1.06-.1.1-.1.12-.12c.08-.08.17-.14.26-.21a.51.51 0 00.11-.11.48.48 0 00.09-.13l.07-.12.05-.12.04-.1.02-.1.02-.07zm-3.6 6.44l-.06-.07-.08-.08-.1-.1-.13-.11c-.04-.05-.1-.07-.14-.12l-.16-.1c-.06-.04-.11-.08-.17-.1l-.09-.03h0c-.02 0 0 0 0 0h0l-.03-.01-.05-.01c-.03-.01-.06-.03-.1-.03-.03 0-.05 0-.09-.02l-.18-.03-.17-.02c-.1-.01-.19-.01-.24-.03h-.1l-.01-.04.09-.03a1 1 0 01.26-.06l.18-.01c.06 0 .12-.01.2.01.07.01.14.01.21.04h.05l.02.02.02.01h.01l.1.05.2.1c.05.05.1.1.17.14.04.05.1.1.13.15.05.05.08.1.1.15.04.04.06.09.08.12l.05.1c.04.08.05.12.04.12zm-.71-2.53l-.09.03-.1.04a.35.35 0 01-.12.07l-.13.1-.15.1-.15.12-.13.14c-.1.1-.17.2-.23.32-.06.1-.12.2-.16.3l-.12.22-.04.09-.28-.2.04-.06.14-.2c.05-.1.13-.2.22-.3.1-.1.18-.2.3-.3l.16-.13.17-.12.17-.09c.06-.02.1-.05.16-.06a.4.4 0 01.14-.05.53.53 0 00.1-.03l.09-.03zm-6.46.79h.12l.16.03c.05 0 .11.02.18.04l.2.08.2.1.22.14.2.15.09.08.09.1.16.17.12.18.1.18.07.16.04.13.04.1-.03.02-.05-.1-.06-.11-.07-.15-.12-.16-.14-.15c-.06-.05-.1-.12-.17-.16l-.1-.07-.1-.07-.2-.12c-.06-.03-.13-.07-.2-.09a.83.83 0 00-.19-.07l-.18-.04-.14-.03h-.1c-.03 0-.06 0-.08.02h-.04zm1.33-1.38l.1-.07a.64.64 0 00.1-.08l.14-.1.2-.1c.06-.05.14-.08.22-.11l.12-.04.13-.04.26-.03.26-.01.23-.01c.08-.01.15-.01.22-.04a2.12 2.12 0 00.56-.25l.02.03-.09.07-.1.08-.15.09-.2.08-.22.06-.25.05-.25.03-.22.06-.1.04-.1.05a.78.78 0 00-.18.11l-.15.11-.12.1-.1.1-.07.08zm-2.11-3.64l.02.02.1.04c.03.03.07.05.12.07l.14.1.16.14c.05.05.11.1.15.17.04.06.1.13.13.2l.06.11.01.04.01.02.02.05.07.24.02.13c.02.03.02.07.02.1v.43a1.3 1.3 0 01-.05.28c0 .06-.02.1-.02.1l-.03-.01v-.1c.02-.07.02-.17.02-.28l-.01-.18-.01-.1-.02-.1c-.01-.04-.01-.07-.03-.1 0-.04-.02-.07-.03-.1l-.03-.1-.05-.11-.02-.06-.05-.02v-.02a.2.2 0 01-.06-.1c-.04-.06-.1-.1-.14-.15-.04-.05-.1-.09-.14-.12-.05-.05-.1-.07-.15-.1-.04-.04-.09-.05-.12-.07l-.1-.04-.06-.03h-.02zm4.47.66l.04-.02.12-.06.08-.04.1-.05.17-.11c.13-.08.24-.17.33-.24l.11-.09.05-.03.14.3-.04.01-.12.06-.4.16-.21.07c-.03 0-.07 0-.1.02l-.1.02-.13.02c-.03 0-.05.02-.05.02zm3.8-8.63s-.01-.3-.05-.73l-.09-.74a6.92 6.92 0 00-.08-.42 6.02 6.02 0 00-.07-.43l-.1-.42-.12-.4a6.68 6.68 0 00-.21-.7l-.1-.3-.08-.21-.08-.18.3-.14.07.2.07.23c.02.1.06.18.1.3.01.1.05.22.08.34l.1.4c.01.13.05.27.07.41l.07.44.05.44.05.43.04.75v.74zm-.71 9.69s.06-.08.13-.23c.08-.14.17-.36.26-.63.1-.27.17-.58.25-.92l.1-.53a7.87 7.87 0 00.1-.82v-.18s0-.01 0 0c0 0 0 .02.04.03h.06-.02.04c.01-.02 0 0 .01 0h-.01l-.02.06-.04.13-.05.26a4.56 4.56 0 01-.65 1.53l-.13.14a.28.28 0 00-.04.06l-.02-.02.13-.23a5.07 5.07 0 00.52-1.53l.04-.27.04-.14.02-.08.02-.05h.02v-.03l.04-.02.02-.01h.08c.05.02.06.05.07.07l.02.06c.02.04.02.06.02.1v.14l-.03.3a8.3 8.3 0 01-.53 2.02c-.1.26-.23.47-.33.6l-.13.15c0 .04 0 .05-.02.05zm-22.83-27.04l.1.08.12.1.14.1.18.13.2.13.12.07.11.07.23.13.23.14.23.12.21.12.2.09.17.07.14.06.12.05v.05l-.14.01h-.16a1.2 1.2 0 01-.2-.03c-.06 0-.14-.03-.22-.05l-.24-.08-.26-.12c-.1-.04-.17-.09-.25-.13l-.24-.16-.2-.17c-.08-.05-.13-.12-.2-.18a2.19 2.19 0 01-.16-.18l-.1-.15-.09-.14c-.03-.07-.04-.11-.03-.12zm7.07 4.36l.22.05.26.08.33.11c.12.05.25.1.38.17l.2.1.22.13.4.3c.14.12.25.24.37.33.13.1.25.18.4.25.07.03.15.05.21.09l.22.08c.05 0 .15.04.2.05.03.02.06.02.09.02h.09a.6.6 0 00.31-.14c.1-.07.2-.15.3-.19a.96.96 0 01.3-.08h.23v.06l-.06.01-.06.01a.2.2 0 01-.1.02.86.86 0 00-.22.12c-.08.05-.16.13-.25.22a.6.6 0 01-.17.14.36.36 0 01-.1.05c-.05.03-.09.03-.13.04h-.27l-.07-.01-.05-.01-.06-.01-.03.03h-.03 0l-.24-.07c-.08-.03-.16-.05-.25-.1a1.96 1.96 0 01-.46-.29l-.37-.35c-.06-.05-.13-.1-.18-.16l-.18-.14-.18-.14-.18-.12-.35-.21-.3-.17a2.2 2.2 0 01-.24-.14l-.2-.1zm13.69-.32a15.75 15.75 0 00.07.63l.05.44.08.5.12.57a11.48 11.48 0 00.37 1.17c.04.09.08.2.13.28l.15.28c.04.1.1.18.15.26.04.1.1.17.15.25l.17.22.1.1.08.1c.13.1.26.2.4.27.14.06.29.12.41.21a.6.6 0 01.15.15l.06.06c0 .03.02.05.03.07l.1.2a.2.2 0 01.01.08l-.04.03-.05-.07a.62.62 0 00-.12-.17l-.04-.06c-.03 0-.04-.03-.06-.05l-.14-.1c-.1-.06-.23-.1-.39-.15a1.55 1.55 0 01-.48-.26c-.05-.02-.08-.06-.11-.1l-.12-.1-.1-.11a4.36 4.36 0 01-.45-.66c-.1-.2-.2-.37-.29-.59a7.1 7.1 0 01-.45-2.36c-.01-.65.06-1.08.06-1.08zm5.07 8.36l.05.2.07.22.05.12.08.14a.9.9 0 01.1.13l.1.14a7.28 7.28 0 01.6.57l.17.17c.04.07.1.12.15.2.09.14.15.3.2.44.04.16.08.32.1.46l.01.43v.35a1.06 1.06 0 00.08.4l.05.1.06.13.03.05-.05.03-.04-.03-.12-.12a.6.6 0 01-.06-.09l-.07-.1c-.05-.1-.1-.2-.11-.32a4.09 4.09 0 01-.05-.39c0-.12-.02-.25-.04-.39a2.13 2.13 0 00-.28-.75 1.73 1.73 0 00-.26-.33l-.3-.31a2.48 2.48 0 01-.37-.5l-.07-.17a.95.95 0 01-.06-.16l-.03-.15c-.01-.09-.01-.18-.03-.25l.05-.21zm-24.87-9.45l-.12-.04-.14-.05-.18-.04a.8.8 0 00-.21-.05l-.25-.03-.27-.01h-.54l-.26.04-.46.08-.31.08a.33.33 0 01-.1.02l-.02.01-.1-.32.04-.01.1-.02.35-.06c.14-.02.31-.03.48-.03h.58l.28.04c.09.01.18.02.27.05.09 0 .17.03.25.05a5.46 5.46 0 01.4.14l.14.06.1.05zm-6.35-7.13a15.3 15.3 0 00.06.23l.01.16v.2c0 .06 0 .13-.02.2a.65.65 0 01-.06.23l-.07.23-.12.21c-.04.07-.07.14-.13.2l-.15.16c-.04.06-.1.1-.14.13l-.14.09-.11.05-.1.04-.01-.04.08-.06.09-.08a.98.98 0 00.1-.11l.11-.14.11-.16.06-.09a.26.26 0 01.06-.09c.03-.06.07-.13.09-.2.05-.13.11-.27.14-.4l.06-.2.05-.17.04-.27v-.1zm3.15-1.24l.12.02.29.04h.4l.23-.04.23-.06.23-.08.22-.08.19-.08.17-.09.12-.1.08-.09.05-.07v-.02l.04.01v.04c0 .02 0 .05-.02.09l-.06.12-.1.15-.18.13c-.06.05-.13.08-.2.12l-.22.1-.24.08-.25.06c-.04.02-.09.02-.12.02h-.12a1.6 1.6 0 01-.24-.03c-.03 0-.07 0-.1-.02l-.1-.03c-.07-.01-.11-.05-.17-.06a1.04 1.04 0 00-.12-.05c-.04-.01-.06-.04-.08-.05a.12.12 0 01-.04-.02zm-3.12 8.36l.04-.1.04-.1c0-.05 0-.1.02-.15v-.38l-.02-.22-.04-.2v-.08s0 0 0 0h0l-.02-.03-.03-.11-.07-.2a.9.9 0 00-.08-.18l-.08-.16-.07-.12-.07-.1-.07-.07.01-.04.1.05a.6.6 0 01.1.08l.13.11.11.16.12.19a1.67 1.67 0 01.12.33l.01.02v.03l.01.06c.04.16.05.31.04.47 0 .08-.01.15-.03.22a.93.93 0 01-.1.35.95.95 0 01-.08.1l-.05.07h-.03zm20.49 31.74l.04-.1.1-.29c.02-.05.06-.1.08-.18l.1-.19.14-.2c.04-.07.1-.13.15-.19l.17-.18.1-.08.08-.08.18-.13.17-.11.16-.08.12-.06a.66.66 0 01.12-.04l.06.21-.1.03-.1.05-.15.07a.56.56 0 00-.17.09c-.06.03-.13.06-.18.11l-.1.07-.08.06-.18.16c-.06.06-.12.11-.16.18a1 1 0 00-.14.18l-.1.18c-.04.06-.08.11-.1.17-.06.11-.11.2-.13.27-.02.07-.05.1-.05.1zm5.98-.06l.01-.1.01-.27.02-.18.04-.2.05-.22.1-.21.1-.2.14-.18.14-.16c.04-.05.09-.1.13-.12l.13-.1c.03-.03.06-.06.1-.07a.33.33 0 01.09-.06l.12.2-.08.04-.1.05a.36.36 0 01-.12.08l-.13.1-.15.14-.14.16c-.04.05-.09.11-.12.18a3.1 3.1 0 00-.1.19c-.02.07-.06.12-.07.2l-.05.18-.04.17-.03.26-.01.1zm-8.52-5.41s.07-.16.23-.37c.03-.06.09-.1.13-.17l.17-.17c.04-.02.06-.06.1-.09l.1-.08.2-.16.23-.13c.08-.05.16-.08.24-.11.08-.04.16-.06.22-.1.07-.03.15-.04.2-.05.07 0 .13-.03.19-.04l.13-.03c.08 0 .13-.02.13-.02l.02.23h-.11l-.14.02a.45.45 0 00-.17.03l-.2.05-.21.07-.23.09c-.08.03-.16.06-.22.1l-.22.14-.1.07-.09.08c-.07.05-.11.1-.17.16l-.14.14c-.17.2-.25.35-.25.35zm15.31-3.02s.04.1.07.25l.03.12.03.15.02.16.01.16v.15c-.02.06-.02.1-.02.15l-.03.14a.53.53 0 01-.05.12.57.57 0 01-.07.17c0 .04-.02.07-.02.07h-.02l.01-.07.05-.18c0-.03 0-.08.02-.12l.01-.14v-.2l-.01-.08-.02-.15a.61.61 0 00-.05-.13 1.78 1.78 0 00-.03-.12c-.01-.05-.03-.08-.05-.12l-.1-.23zm-37.9-29.77l.1-.06.13-.07.17-.06.1-.02c.03 0 .07 0 .11-.02l.24-.03.26-.01h.27l.26.05.24.07.24.08c.08.02.14.06.2.09.07.02.12.07.17.09l.13.08.1.08-.15.17-.09-.07a.4.4 0 00-.1-.08c-.04-.02-.09-.07-.14-.09l-.18-.1c-.07-.03-.14-.07-.22-.09l-.23-.08a1.85 1.85 0 00-.25-.05l-.26-.04h-.48l-.11.02c-.04 0-.07 0-.1.02-.07 0-.13.03-.17.04l-.13.06-.1.06zm1.18 7.42l.05-.1.05-.1c.03-.04.06-.07.08-.12.04-.04.07-.1.12-.14l.13-.15c.06-.04.1-.1.17-.13.06-.05.12-.1.2-.13l.2-.1.2-.07.2-.05.18-.03.28-.03h.11l-.03.23h-.02l-.07-.01a.93.93 0 00-.25 0l-.16.01-.2.03a.97.97 0 00-.19.06l-.19.08c-.06.02-.12.07-.19.1l-.17.11-.14.13-.11.12-.1.12-.06.1a.43.43 0 01-.06.08zm8.8.82l-.21.11a.47.47 0 00-.1.06l-.13.06a.72.72 0 00-.13.05.54.54 0 01-.15.05l-.14.03-.15.02-.13.02h-.13l-.1-.01-.08-.02c-.04 0-.06-.02-.06-.02v-.02l.07.01.08.01h.22l.12-.03.14-.03a.66.66 0 00.13-.06.41.41 0 00.13-.05l.12-.07.11-.06.1-.07c.13-.07.2-.13.2-.13zm-4.8-25.02s-.03.01-.06.05l-.07.04-.09.06a.95.95 0 01-.1.06l-.13.07-.14.06-.14.04c-.2.06-.4.07-.55.07h-.18l-.07-.01-.01-.02.07-.01.18-.01c.14-.01.33-.06.51-.14.05 0 .1-.04.13-.05l.12-.07.1-.07a.6.6 0 00.1-.07l.07-.05.06-.06.04-.04zm-9.12-1.25l.05-.09.04-.1.07-.12.1-.15c.03-.04.07-.1.12-.14l.14-.14.17-.12a.75.75 0 01.2-.1c.06-.04.13-.06.19-.08l.19-.05.17-.02a1.11 1.11 0 01.35.01h.03l-.05.23h-.02l-.07-.01a1.22 1.22 0 00-.23-.03c-.05 0-.1 0-.16.02-.05 0-.11 0-.18.02-.05.01-.12.02-.18.05a.86.86 0 00-.18.08l-.17.1-.15.12-.13.12c-.04.05-.06.1-.1.13-.03.04-.05.08-.08.1l-.05.1-.05.08zm-2.86-6.65l.1-.05.11-.07.15-.08.18-.08.21-.06c.08-.02.16-.04.24-.04h.37l.12.03c.08 0 .16.03.24.05l.21.08c.07.04.14.06.18.1a1.52 1.52 0 01.33.22l.02.02-.15.16-.01-.03c-.02 0-.04-.03-.06-.05-.05-.05-.12-.1-.23-.17l-.15-.1-.2-.09c-.06-.02-.13-.06-.2-.07a.4.4 0 00-.12-.02l-.11-.01-.24-.01-.22.02-.22.05c-.06 0-.12.04-.18.05l-.15.07-.12.06-.1.05zm4.88-6.33l.09.04.1.05c.03.02.08.04.12.08l.07.04.07.06.08.07.07.08.06.08.07.09a.6.6 0 01.11.19l.1.2.06.2.05.2.02.18.01.27v.12l-.23-.02v-.03l.02-.06V81.21l-.03-.2c0-.06-.03-.13-.04-.2l-.07-.2c-.03-.06-.05-.13-.09-.19l-.05-.09-.06-.08a.32.32 0 01-.06-.07l-.06-.07-.07-.07-.07-.05-.11-.1a.43.43 0 00-.1-.05l-.1-.04zm20.91 6.51s0-.02 0 0c0 0 0 0 0 0h-.1c-.1.01-.22.05-.37.1-.3.08-.67.2-1.07.33l-1.07.35a7.1 7.1 0 01-.36.1l-.1.02c-.04 0-.05.02-.05.02l-.03-.34h.03l.09-.01.36-.07 1.09-.25a29.24 29.24 0 011.47-.29h.11c.02 0 .03 0 .04.02v.01zm-2.27-.5l.08-.05a.83.83 0 00.2-.11c.17-.1.37-.26.6-.4l.18-.1a.77.77 0 01.18-.1c.05-.02.11-.05.17-.06.05-.03.11-.04.15-.05l.14-.03.1-.01.1-.01v.03l-.1.02-.1.04-.12.04-.15.07-.14.09-.16.11-.15.13c-.19.16-.38.36-.55.5l-.2.15-.08.05zm-3.03-1.03l.1-.02.23-.04a8.48 8.48 0 001.06-.26l.15-.06.15-.05.11-.06.1-.05.07-.04.03.02-.07.06-.08.07-.11.08-.14.07-.16.1-.34.16a7.37 7.37 0 01-.91.32l-.08.02zm6.58-2.93h-.32l-.15.03-.15.05-.17.06-.18.07-.2.06c-.03 0-.06 0-.1.02l-.08.01-.18.02c-.06.02-.12.02-.16.02-.2 0-.34.02-.34.02l.02-.34.32.02.14.01h.35l.18-.03c.07 0 .13-.02.18-.03l.18-.05.18-.02h.17l.14.01.1.01a.5.5 0 00.09.02zm-3.39-1.69l.09.06.04.03.05.02.11.06.16.06.18.05.2.05.21.03.22.01h.41c.07 0 .13-.02.18-.03l.38-.07v.04l-.35.12a.81.81 0 01-.18.05.65.65 0 00-.2.04c-.07.02-.15.02-.23.03l-.22.03h-.24a.85.85 0 01-.23-.03c-.06 0-.14 0-.2-.03-.08 0-.14-.03-.2-.04-.05-.01-.11-.05-.17-.06l-.06-.02-.05-.02-.09-.05zm3.29-.81a13.3 13.3 0 00.55.1l.2.02h.44l.23-.02.23.01.21.04c.07 0 .13.02.18.03l.37.1v.04l-.39-.06h-.18l-.2-.02-.22.02c-.06.01-.14.02-.2.05-.09 0-.17.03-.23.04l-.23.04h-.42l-.38-.04zm-.62-2.14v.02l.05.07c.02.02.03.05.07.07.03.03.06.07.12.1l.16.11.2.1a4.25 4.25 0 00.91.34c.16.05.3.07.42.1l.3.03h.12v.04l-.12.01h-.31a4.32 4.32 0 01-.93-.15 4.1 4.1 0 01-.5-.14c-.08-.03-.16-.05-.22-.09a2.84 2.84 0 01-.35-.2 1.09 1.09 0 01-.13-.11l-.05-.07-.02-.02zm3.94.13l.37.15.18.07.2.07.23.05c.08.03.16.04.24.05l.47.07c.08 0 .15.02.23.03l.19.05c.05 0 .11.02.15.04.05.01.1.02.13.04l.11.03v.03l-.12-.02c-.04 0-.08 0-.13-.02a.68.68 0 00-.15-.02l-.2-.03h-.2c-.16-.02-.32 0-.49-.02-.08 0-.17 0-.25-.02l-.23-.03-.23-.05a.65.65 0 01-.2-.04l-.4-.13zm1.58 4s-.03.01-.05.05a.21.21 0 01-.05.04l-.08.06c-.07.03-.14.09-.22.12l-.25.11-.27.1a3.23 3.23 0 00-.33.08l-.07.03c-.03 0-.05.02-.05.02l-.1-.33h.06l.08-.02h.1c.07-.02.16-.02.24-.03l.27-.04c.1 0 .18-.03.27-.05l.23-.07a.31.31 0 00.09-.04l.06-.04a.54.54 0 01.06-.03zm4.25 1.31l-.02.09-.04.1a.66.66 0 01-.05.14l-.08.16c-.02.06-.07.11-.11.17a.97.97 0 01-.15.16l-.08.08-.09.06a.64.64 0 01-.19.13l-.18.1-.3.17c-.03.03-.08.05-.1.08l-.07.06a.28.28 0 00-.04.06l-.27-.2.09-.08.1-.08a5.75 5.75 0 01.69-.28.86.86 0 00.18-.09l.09-.04.08-.06.14-.12a1.41 1.41 0 00.22-.27l.06-.13.05-.1a2 2 0 00.03-.09zm3.91 1.63l.1-.3.07-.14.08-.16c.04-.04.07-.1.1-.16l.12-.14c.08-.1.17-.18.23-.27l.1-.13a.73.73 0 00.08-.12l.04-.06.02-.05.05-.1.03-.07.03.01-.02.08a.81.81 0 00-.03.1l-.02.05a.26.26 0 01-.04.05l-.06.14-.1.15-.18.3-.1.16-.06.15-.05.14c0 .05-.03.08-.04.12l-.06.3zm-9.18 2.48l-.09.1-.09.1-.12.12a1.88 1.88 0 01-.35.27 13.64 13.64 0 01-1.26.7l-.38.19-.13-.32.4-.14c.24-.1.55-.2.87-.34l.44-.21.19-.12.17-.1.13-.1.1-.1.08-.08zm4.02 1.4l.02-.01a.2.2 0 01.07-.04c.03 0 .07-.03.11-.05l.14-.07c.2-.1.46-.22.7-.37l.37-.23.15-.1.14-.12a.43.43 0 00.1-.1.51.51 0 00.08-.1l.07-.07.03.02-.05.1a2.49 2.49 0 01-.16.23l-.12.12-.15.15c-.1.1-.21.2-.34.28-.23.18-.48.34-.66.46l-.13.08a1.1 1.1 0 01-.09.06.26.26 0 00-.05.05h-.02zm-2.06-6.08l.06-.02.06-.02.06-.04a.74.74 0 00.18-.12c.07-.04.14-.11.22-.17l.22-.17c.08-.04.16-.09.23-.1a.75.75 0 00.09-.04l.06-.01.07-.01.01.03-.05.02-.07.04-.08.04a.97.97 0 00-.18.15l-.18.2c-.05.06-.11.14-.18.2a1.3 1.3 0 01-.18.19l-.09.06-.07.05a.63.63 0 01-.05.03zM81.94 68.4l.04.1.06.13.08.16.1.19c.02.07.06.13.1.2l.06.11.07.12.13.22.14.22.13.21c.05.07.1.13.13.2l.12.16.1.15.1.11.07.1-.03.05-.11-.06-.13-.08-.15-.11c-.06-.05-.12-.09-.17-.15-.06-.05-.12-.1-.17-.18l-.16-.2-.14-.25a1.63 1.63 0 01-.13-.24 1.13 1.13 0 01-.1-.25l-.08-.24a1.63 1.63 0 01-.04-.22l-.02-.2v-.26zm.35 10.26h.07c.04-.02.1-.02.18-.03l.12-.01.13-.01.15-.01.15-.01.14-.01c.05-.01.1-.01.14-.03.04 0 .09 0 .12-.02.05 0 .08-.02.12-.03a.75.75 0 00.09-.04l.06-.03.07-.02.02.03-.05.04-.07.04-.09.06-.11.06-.13.05a.72.72 0 00-.13.06l-.15.04-.14.04-.15.03-.13.04-.12.03-.09.02-.07.03c-.05 0-.07.02-.07.02zm-1.77-6.91l-.08-.1-.09-.12-.12-.13-.16-.16c-.05-.06-.12-.1-.18-.16l-.2-.16-.22-.14-.23-.14-.22-.1a1.8 1.8 0 00-.23-.09l-.2-.05-.3-.05h-.1v-.34h.03c.02 0 .07 0 .1.02.09 0 .21.03.35.08.07.02.15.04.21.09l.24.1.24.15.22.16.22.18.19.18c.05.07.12.13.17.18l.14.17.12.15.08.12.06.1zm-.22-8.49l-.05.1c-.04.05-.1.13-.19.2l-.14.1a.93.93 0 01-.18.12l-.2.1c-.07.04-.15.06-.22.08l-.23.06-.22.02a.68.68 0 01-.21-.01c-.07 0-.13-.02-.18-.03l-.15-.05c-.04 0-.08-.03-.11-.05l-.1-.06.02-.03h.1l.11.02.15.01h.37l.1-.02.1-.02.2-.05c.13-.03.27-.09.4-.13.05-.04.12-.06.17-.08l.16-.08.22-.13c.06-.05.08-.07.1-.06zm2.22-.26l.05.1c.02.04.03.07.06.1.02.04.05.1.09.14l.1.15.14.16.15.14.08.07.04.03.05.04.18.13c.06.05.12.1.18.13l.17.1c.06.02.11.06.16.07l.14.03a.4.4 0 00.12.01h.1v.03h-.01c-.01.02-.05.03-.08.04l-.06.02-.06.02-.17-.01a1.13 1.13 0 01-.4-.14 1.88 1.88 0 01-.2-.12l-.19-.14-.04-.03a.09.09 0 01-.05-.05l-.09-.07a2.19 2.19 0 01-.16-.18c-.04-.07-.09-.13-.11-.2l-.04-.08-.04-.1-.05-.15-.03-.13v-.07c-.03-.01-.03-.03-.02-.03zm-6.12 5.83l.1-.02a.39.39 0 00.1-.05l.13-.06c.1-.06.2-.14.3-.22l.14-.13.15-.15.03-.03.01-.01s0-.01 0 0h0l.02-.02.06-.1.12-.16c.03-.06.06-.12.1-.16l.08-.15.05-.13.04-.11v-.1h.04s.02.03.03.1v.12l-.03.16a.4.4 0 01-.05.18 1.43 1.43 0 01-.2.38l-.06.1-.01.01-.01.02h-.01l-.04.05a2.09 2.09 0 01-.52.4.5.5 0 01-.17.07.44.44 0 01-.16.03.22.22 0 01-.12 0l-.08-.01h-.02zm-2.56-1.69l.09-.03a3.86 3.86 0 01.4-.1l.17-.01.2.01c.07.01.14.01.2.04.08 0 .14.03.21.05.07.02.13.06.18.08a2.16 2.16 0 01.47.38l.05.06.02.02-.19.13-.01-.01-.03-.05a1.46 1.46 0 00-.4-.37.73.73 0 00-.15-.09l-.18-.07-.18-.04-.18-.02h-.34l-.14.03-.1.02-.09.03zm2.56-6.45l.1.02.12.03.16.05c.05.02.12.03.18.07.05.03.12.05.19.1l.19.13.18.17.08.1.07.1c.04.06.09.13.12.2l.1.2c.01.07.04.12.06.19l.07.3v.12h-.22v-.1a1.44 1.44 0 00-.08-.45l-.06-.2-.1-.19c-.03-.03-.04-.06-.06-.1l-.08-.08-.14-.16-.17-.15-.17-.11-.17-.08-.14-.06a.7.7 0 01-.12-.03l-.1-.03zm7.71-1.05l.03.09.05.1a2.84 2.84 0 01.08.4v.11l-.01.1-.02.1a1.56 1.56 0 01-.13.4l-.1.19a.59.59 0 00-.1.17.67.67 0 01-.11.13c-.07.08-.12.15-.18.2a2.7 2.7 0 00-.08.07l-.13-.18s0 0 0 0l.07-.05.18-.17.1-.12.12-.15.1-.16a.86.86 0 00.1-.18c.01-.06.05-.12.06-.19a.33.33 0 00.02-.09l.01-.09.02-.09v-.18l-.02-.08c0-.04 0-.1-.02-.13a.52.52 0 00-.03-.1.74.74 0 00-.02-.1zm-9.66 25.81l.08.11.09.11.12.15a4.68 4.68 0 001.24 1.01l.22.12.22.09.1.03.09.02c.06.01.1.04.15.04.08 0 .13.02.13.02v.03h-.13l-.16-.03-.1-.01-.1-.02-.22-.07c-.08-.02-.15-.06-.24-.1l-.26-.11a5.09 5.09 0 01-1.13-.8l-.15-.15c-.05-.04-.08-.09-.12-.11l-.09-.1zm9.29-18.61l-.02.12c-.01.04-.01.1-.03.14 0 .06 0 .11-.02.18l-.02.2-.01.24v.26l.02.26c.01.09.01.18.04.26 0 .09.03.17.04.26l.06.23.05.22.14.42-.03.02-.18-.42a1.56 1.56 0 00-.08-.2l-.08-.24a8.02 8.02 0 01-.07-.26l-.07-.27c0-.09-.04-.18-.04-.27l-.03-.27-.01-.24c-.02-.08 0-.16 0-.23v-.19c.02-.06.02-.1.02-.15l.01-.12zm26.28 23.45s-.02-.04-.07-.08l-.09-.12c-.03-.04-.05-.09-.09-.13l-.22-.33-.15-.16a1.56 1.56 0 00-.35-.27c-.06-.04-.12-.08-.19-.1a.38.38 0 01-.1-.05l-.1-.03a.7.7 0 00-.18-.05 3.86 3.86 0 01-.16-.03l-.12-.01-.11-.01v-.04h.23l.17.02c.06 0 .13 0 .2.02l.1.02.1.03.23.08c.07.04.15.07.22.12l.2.14c.07.06.13.1.18.16.11.11.2.23.28.3l.1.12.08.08.08.06zm1.46-7.39l-.05-.08a.5.5 0 01-.07-.12l-.08-.14a.98.98 0 00-.09-.15l-.12-.14-.16-.15-.18-.15a1.56 1.56 0 00-.37-.22c-.07-.02-.12-.05-.2-.06-.06 0-.13 0-.18-.03a.27.27 0 01-.16-.08c-.05-.03-.07-.07-.09-.09l-.07-.09.02-.02.08.08c.06.04.13.11.24.12.06.02.11 0 .18.02a1.19 1.19 0 01.45.11c.08.03.14.07.21.11l.2.13.2.13.17.16c.06.05.09.11.13.16.04.04.07.1.1.12a.6.6 0 00.06.09l.07.08zm-2.33-18.3l-.03-.01-.03-.01-.05-.03-.04-.05-.04-.07a.31.31 0 01-.03-.14c-.01-.1.01-.2.04-.26l.07-.1.04.01.04.11.04.23v.33zm.48.96v-.01l.04-.04a3.65 3.65 0 00.26-.54l.03-.1.04-.12.03-.11a.31.31 0 00.03-.1c0-.07.03-.12.03-.16l.02-.06h.04l.02.06.03.17a1.2 1.2 0 01-.1.64l-.08.12-.07.1a.3.3 0 01-.1.09.42.42 0 01-.15.08h-.05c0-.02-.02 0-.02-.02z"/><path d="M111.3 62.98l-.18.02-.2.04-.26.05-.3.1-.3.15-.32.18-.3.22-.14.12-.13.14-.13.13-.1.14c0 .02-.03.04-.04.06a.62.62 0 01-.05.08.23.23 0 01-.04.07l-.04.08-.09.28v.25a.5.5 0 00.05.17l.09.08a.1.1 0 00.04 0v.04h-.05a.22.22 0 01-.14-.06.44.44 0 01-.1-.2.73.73 0 01-.04-.29c0-.1.02-.21.06-.32l.04-.1.03-.08a.37.37 0 01.05-.1l.04-.07.12-.17.12-.16.14-.13.15-.14.34-.22a4.15 4.15 0 01.7-.3l.31-.07.27-.03c.08 0 .15 0 .2.02l.2.03zm.06 2.82h.02l.06-.05c.02-.02.04-.05.08-.07l.09-.1.09-.12.09-.15.08-.17.06-.18.07-.18.06-.18c.03-.12.06-.23.1-.32l.1-.33h.03s.03.14.02.35c0 .1-.03.23-.05.35 0 .07-.02.14-.04.2l-.07.2a1.93 1.93 0 01-.31.53l-.14.13-.12.08a.71.71 0 01-.12.04l-.06.01-.04-.03zm-12.82-.94l-.03.08-.05.08-.07.07-.08.05-.15.1-.13.1h-.01l-.1.09-.04.04-.03.05-.07.1-.02.05-.02.06-.3-.16.06-.06a6.63 6.63 0 00.17-.17l.07-.05.07-.04c.04-.04.1-.05.14-.07h0l.16-.07.17-.05.08-.04a.23.23 0 00.07-.04l.05-.06.06-.07zm7.44 4.46s.05 0 .1.04c.06.03.1.09.14.16l.03.1v.1c0 .06-.03.1-.03.1l-.04.01s-.04-.02-.06-.06a.28.28 0 00-.06-.07l-.04-.08c-.01-.03-.03-.05-.03-.09v-.09c-.02-.07 0-.11 0-.12zm-.78-.34h.04l.09.02.11.06c.04.03.07.05.1.1l.05.06.03.06.02.07c.02.02.02.05.02.06l-.01.12-.04.01-.09-.08-.07-.07-.06-.1a.43.43 0 01-.06-.1l-.05-.08-.04-.08-.03-.05zm-.41 6.87l-.11.07-.14.08-.16.1-.18.13-.2.16c-.13.11-.28.24-.45.36l-.26.17c-.09.06-.18.1-.27.14l-.26.09-.23.05-.2.03h-.16c-.1 0-.14-.02-.14-.02v-.05l.12-.06c.04 0 .09-.03.14-.05l.18-.08c.07-.02.14-.07.2-.1l.23-.1.11-.07.12-.07.22-.16.47-.32.24-.14.11-.05.11-.05.2-.05.16-.03h.14zm-.35-11.11s-.02 0-.06.04l-.06.05a.36.36 0 01-.08.05l-.1.07-.1.08a.88.88 0 00-.12.09l-.1.09-.12.09a.42.42 0 01-.11.09l-.2.17c-.1.1-.2.17-.2.17l-.03-.02s.03-.1.11-.24a1.68 1.68 0 01.64-.6.66.66 0 01.14-.06.57.57 0 01.12-.05.76.76 0 01.2-.03l.07.01zm3.76 21.18s-.01-.06-.06-.17a.92.92 0 01-.04-.2c-.03-.09-.02-.18-.02-.28l.06-.33.1-.33.12-.35.05-.18.05-.18.03-.18.02-.18c.02-.06.02-.12.02-.17v-.17c-.02-.11-.02-.22-.05-.33-.02-.1-.03-.2-.07-.29a3.19 3.19 0 01-.08-.25l-.07-.18-.07-.16.04-.04.12.14.12.17a2.22 2.22 0 01.26.54c.05.11.07.23.09.36l.01.19v.2c0 .07 0 .14-.02.2l-.05.2c-.03.14-.06.27-.12.39l-.14.35a8.5 8.5 0 01-.14.31l-.03.08c-.01.03-.01.05-.03.07 0 .05-.03.1-.04.14l-.03.12-.01.06c0 .02 0 .03-.02.05 0 .07-.02.14 0 .2.03.14.03.2.02.2zm-1.67 19.94s.1.1.24.31c.08.1.16.24.25.38.1.15.19.33.3.52l.32.63c.1.23.21.46.31.72a12.51 12.51 0 01.65 2.04l.1.43.07.41.07.4c.03.28.07.54.08.78l.02.36v.94l-.02.25-.02.21-.06.4h-.05l-.01-.4v-.2l-.01-.25-.02-.28-.02-.3-.03-.34-.05-.35c-.02-.25-.07-.5-.1-.76l-.17-.81-.09-.42a7.3 7.3 0 00-.1-.42 7.3 7.3 0 00-.12-.41l-.12-.4a7.38 7.38 0 01-.13-.4l-.13-.38a16.84 16.84 0 00-.4-1.05l-.13-.3c-.1-.2-.16-.38-.24-.53-.08-.16-.13-.3-.2-.4a5.46 5.46 0 01-.18-.38zM97.36 65.1l-.05-.08a.44.44 0 01-.04-.26c.02-.06.03-.12.07-.2a.31.31 0 01.23-.13h.12c.02.02.06.02.08.03l.06.03.15.1.1.01h.1a.4.4 0 00.12-.08c.05-.03.1-.07.2-.1h.08l.04.02c.01 0 .03 0 .04.02.06.03.08.07.1.1l.03.08v.02l-.05.02s0 0 0 0l-.05-.04c-.03-.01-.05-.02-.07-.01h-.06.02l-.01.01c-.03.02-.04.06-.06.08a.59.59 0 01-.15.15.53.53 0 01-.24.08l-.14-.01a.38.38 0 01-.12-.05l-.17-.11-.02-.01v-.01l-.04-.01h-.02 0-.06c-.03.03-.06.05-.08.09a.52.52 0 00-.08.19l-.01.09zm4.63 1.1l-.08-.03-.1-.05-.1-.04a.66.66 0 00-.14-.06l-.14-.07c-.06-.02-.1-.03-.16-.07a.95.95 0 00-.17-.05.95.95 0 00-.17-.06.64.64 0 01-.16-.05l-.29-.1c-.17-.04-.3-.1-.3-.1v-.03h.47l.17.03c.06 0 .11.02.18.04l.18.06c.06.02.11.04.17.08a.5.5 0 01.16.09 1 1 0 00.14.09l.13.09c.08.05.12.11.16.15l.05.08zm-3.25-1.07v.03c0 .03 0 .06-.02.1 0 .02 0 .04-.02.06 0 .02-.02.05-.04.06l-.06.06c-.02 0-.03.02-.05.04-.05.02-.08.05-.13.06l-.11.03-.12.01-.03-.03.07-.1a.27.27 0 01.1-.08l.1-.07.1-.04.04-.02.04-.03c.02 0 .03 0 .04-.02l.03-.02c.04-.04.05-.05.06-.04zm6.18 1.32v.02l-.03.03-.07.03h-.07a.21.21 0 01-.1-.06l-.03-.06.01-.02.06-.02.04-.01.05.01.04.02.02.01v.02c.02 0 .04 0 .04.02l.05.01zm.64-.15l-.05.05-.06.02h-.08a.15.15 0 01-.06-.02l-.06-.04c-.03-.02-.04-.05-.04-.05v-.03s.03-.02.08-.02h.11l.06.01.05.04c.04 0 .06.03.06.04zm.58-.28s-.01.03-.05.06l-.05.03-.08.01h-.07a.08.08 0 01-.05-.03.17.17 0 01-.06-.05v-.02l.06-.04c0-.02.03-.02.05-.03h.06a.1.1 0 01.06 0l.05.03c.06 0 .08.03.08.04zm.47-.36l-.04.06c-.02 0-.03.03-.05.03a.15.15 0 01-.07.02h-.12a.15.15 0 01-.06-.04v-.02l.06-.05a.1.1 0 01.06-.02l.05-.01h.12c.02 0 .05.02.05.03zm.44-.34l-.06.05c-.02 0-.04 0-.05.02l-.06.01h-.05l-.06-.01a.15.15 0 01-.06-.03v-.03l.06-.04a.1.1 0 01.06-.02l.07-.01h.07c.03 0 .05.03.06.03l.02.03zm-4.19 2.6l.02.05v.12l-.01.08-.04.09a.78.78 0 01-.43.38c-.1.04-.16.02-.16.02l-.01-.03.1-.12a.98.98 0 00.11-.11l.11-.13.11-.12.1-.11a.34.34 0 00.07-.1l.04-.02zm4.44 2.4l.11-.23a.47.47 0 01.06-.1l.08-.11.1-.11a.27.27 0 01.11-.1 1.54 1.54 0 01.36-.24l.11-.05.24-.07v.03l-.17.17-.09.08c-.03.02-.07.04-.1.08l-.21.18-.12.09-.1.09-.1.08-.09.08c-.09.09-.18.14-.18.13zm2.47-1.66l.06-.06c.02-.03.03-.05.07-.08a.25.25 0 01.08-.1l.09-.13c.03-.04.05-.09.09-.13l.09-.16.07-.16c.06-.1.1-.22.14-.32.01-.06.03-.1.06-.16 0-.06.03-.1.04-.15.06-.18.08-.3.08-.3h.03s.02.03.02.1v.23c0 .1-.01.21-.04.33l-.05.18a.88.88 0 01-.08.18l-.1.18-.11.16a.58.58 0 01-.13.14 1.87 1.87 0 01-.24.2l-.08.03-.08.03zm1.54.21l.03.09V69c.02.01.02.03.03.05l.02.04.04.06.08.11.1.12.11.14.12.16c.05.05.08.1.12.17l.08.19.04.2c.01.07 0 .12-.01.18a.54.54 0 01-.05.15c0 .04-.03.06-.04.1a.43.43 0 01-.06.08l-.04-.03-.01-.09-.01-.1-.01-.12a1.78 1.78 0 00-.1-.26c-.01-.04-.05-.09-.07-.13l-.1-.15-.11-.16-.1-.16c-.04-.06-.06-.12-.08-.17a.55.55 0 01-.05-.17v-.16l.01-.06c0-.03.02-.04.02-.05l.05-.07zm-9.41-3.07l-.2-.06-.1-.04-.1-.03-.2-.08a1.2 1.2 0 01-.22-.09l-.1-.04-.1-.05-.17-.1v-.04h.32l.12.03a1.87 1.87 0 01.46.2l.1.06.08.07c.08.09.12.16.12.17zm1.57 9.23l.26-.04.27-.03h.27l.27.01c.18.02.35.04.52.04h.12l.12-.01.1-.02a.18.18 0 00.08-.05l-.04.02.14-.14.05-.07.02-.02v-.01l.02-.04.01-.06v-.51l.01-.21a.7.7 0 01.06-.25c.03-.08.07-.13.09-.2l.17-.37.07-.2.05-.18c.03-.07.04-.14.05-.2l.03-.2.03-.21.02-.21h.05l.04.21.02.21v.22l-.01.21-.03.22-.06.21a3.1 3.1 0 01-.14.4c-.03.07-.06.13-.07.19l-.02.15-.02.2v.55c-.02.04-.02.1-.05.13a.81.81 0 01-.15.22l-.15.15-.02.02h0c-.06.03-.1.06-.16.07-.06.03-.1.03-.16.04h-.15l-.14-.01-.27-.05-.26-.05-.5-.1-.27-.04c-.09 0-.18 0-.25-.02zm-4.25-10.8l.13-.06.16-.05.2-.1.22-.1.25-.14.27-.14c.09-.05.19-.1.3-.14l.02-.01h.03l.03-.01.08-.01.16-.04.3-.05.54-.1.53-.05.01.04s-.2.08-.5.17l-.53.14-.3.07-.15.03-.08.03h-.05l-.02.02-.27.11-.28.14a2.64 2.64 0 01-.51.19l-.22.05c-.06.02-.12 0-.17.02h-.14zm10.07 9.6l-.1-.05c-.01-.02-.06-.03-.1-.07l-.12-.1-.1-.18-.05-.1-.04-.11c0-.03 0-.08-.02-.11l-.01-.12v-.22l.01-.2v-.28c-.02-.02-.02-.05-.03-.07l-.02-.08a.1.1 0 01-.03-.07l-.06-.12a.87.87 0 01-.06-.09l-.06-.09.04-.05.1.05c.03.02.07.03.11.07l.13.11c.03.04.09.1.12.17l.05.1.03.11.02.12a.4.4 0 01.01.1V73c0 .06-.02.13 0 .19v.17c0 .03.02.05.03.08 0 .02 0 .05.02.08.02.04.03.09.06.12 0 .05.04.08.05.1.02.05.04.08.03.1zm.26 2.52l.05.12.07.12c.02.05.07.1.1.15l.15.16c.04.06.11.11.17.18l.38.4c.06.08.13.16.17.24.06.08.1.17.15.25.08.17.13.34.17.47 0 .07.02.14.03.2l.01.16v.14h-.05l-.06-.12-.05-.13a.67.67 0 01-.08-.17 2.84 2.84 0 01-.1-.19 1.88 1.88 0 00-.13-.2l-.14-.22-.17-.2c-.11-.16-.24-.29-.34-.44l-.14-.22c-.05-.07-.08-.15-.12-.22l-.05-.2-.03-.16c0-.07 0-.12.02-.12zm-.58 3.73l-.1-.08c-.03 0-.04-.02-.07-.04l-.05-.06-.11-.11-.1-.11-.07-.13-.07-.12a.66.66 0 01-.06-.13c0-.05-.03-.1-.04-.14l-.03-.13-.03-.14-.03-.27v-.27l.02-.27.05-.06-.04.03v.03h0v-.04l-.02-.06a.39.39 0 00-.02-.11 1.15 1.15 0 00-.16-.42l-.03-.04-.03-.05c-.01 0-.02-.03-.05-.03l-.04-.03.02-.04.05.04c.02 0 .03.02.04.03l.05.05.04.04.12.2.1.23.03.11.01.06v.06l-.01.04-.03.02.04-.05v.26l.02.26.06.24.03.13.05.11a.2.2 0 00.06.11c0 .04.03.07.05.1l.07.1a.3.3 0 00.08.1l.08.08c.02.03.06.04.09.06l.04.04.06.03.11.07zm-11.35.22s-.07 0-.17.03l-.19.04-.24.08-.29.12-.14.08-.15.09-.14.1-.15.11-.28.25-.27.26a.8.8 0 01-.14.12l-.15.11c-.1.07-.2.14-.32.2l-.15.06a.78.78 0 01-.16.05l-.15.03-.12.02c-.08.03-.16.03-.21.03h-.18v-.33h.36l.11-.01.12-.02.14-.04c.04 0 .09-.03.13-.04.1-.03.2-.1.29-.15l.14-.09.15-.1.3-.25.3-.23.15-.1.16-.1.16-.07.16-.07.29-.09.26-.05.2-.03c.11 0 .17-.02.17-.02zM78.3 105.57l.08.05a.2.2 0 01.1.06l.14.07.16.1c.04.05.1.1.16.14l.14.17c.05.07.1.12.13.2 0 .04.03.07.04.12l.04.1.02.12.01.11.01.12v.1c0 .06 0 .13-.02.19a.62.62 0 01-.05.16c0 .04-.03.09-.04.12-.02.03-.02.06-.05.08a.13.13 0 01-.02.03l-.17-.14.02-.01.03-.06.05-.1a.36.36 0 00.04-.13c.01-.05.03-.1.03-.17l.02-.1v-.1l-.01-.1c0-.03 0-.06-.02-.1 0-.03 0-.06-.02-.1l-.03-.1c-.02-.06-.07-.12-.1-.19-.04-.05-.1-.11-.13-.17l-.13-.14-.14-.11-.12-.1-.1-.06-.09-.06zm.97-31.37h-.06l-.08-.01a.39.39 0 01-.1-.03c-.04 0-.08 0-.13-.03a.52.52 0 01-.12-.04l-.14-.06-.13-.07a2.38 2.38 0 01-.55-.45l-.05-.04.02-.02s.02 0 .05.03l.14.11c.11.1.27.2.44.26l.12.05c.05 0 .1.02.12.03l.13.02c.03.02.08.02.11.02h.24zm23.86 4.27l-.1.1c-.04.03-.1.05-.14.1l-.16.13-.17.18-.17.21c-.05.07-.1.16-.17.24l-.15.26-.17.27-.17.26-.19.24-.1.1-.1.09-.1.08a1.1 1.1 0 01-.16.1l-.07.03-.13.06-.03-.05.1-.1c.02 0 .04-.03.06-.05l.06-.07a1.88 1.88 0 00.27-.36l.15-.24.14-.25.16-.27.18-.27c.07-.1.14-.17.22-.25.06-.08.14-.14.22-.2.07-.06.16-.1.23-.15l.2-.1a.52.52 0 01.16-.06c.09-.02.13-.03.14-.02zm-4.35 37.98l-.02.05-.11.12c-.08.1-.2.2-.32.36l-.19.26-.18.3c-.07.1-.11.23-.17.34l-.14.37c-.05.13-.1.25-.13.39-.03.12-.07.24-.09.37a20.73 20.73 0 01-.11.69l-.02.27-.01.21-.01.2h-.06V119.97l.01-.28.02-.33.05-.37c.01-.12.04-.26.07-.4.02-.13.06-.26.1-.4l.12-.4c.06-.11.1-.25.16-.36l.17-.34.18-.28.31-.4.07-.07.02-.05zm13.4-40.34l.18.2c.03.01.06.05.09.07l.1.1.13.08.12.1.26.15.24.12.16.1.07.04-.2.27-.06-.05-.14-.12c-.07-.04-.14-.11-.21-.17l-.24-.21a.53.53 0 01-.11-.11l-.1-.12a.77.77 0 01-.1-.1l-.07-.1-.15-.23z"/></g></g></svg>