<svg xmlns="http://www.w3.org/2000/svg" fill="#d7374a" stroke="#000" viewBox="50 50 200 200">
  <metadata source="http://wappenwiki.org/images/9/9c/Simonetti_Jesi_Ancient.svg" license="https://creativecommons.org/licenses/by-nc-sa/3.0"/>
  <g id="lionHeadErased" stroke-width="4" transform="translate(55 51.6) scale(0.107)">
    <path stroke-linejoin="round" d="m396.7 418.3 19.5-73.1-42.9-88.2-21.1 17.3c21.2 23.2 22.6 56.3 22.6 76.2 0 19.9-8.3 50.7-20.4 59l42.3 8.8z"/>
    <path class="secondary" d="M392.4 350.8s-47.8-39.9-92.3-39.9c-46.4 0-75.4 25.2-101 25.2-56.4 0-47.5-53.9-52.6-53.9-3.5 1.2-8.1 15.6-8.1 24.7 0 32.6 20.3 62 60.6 62 40.8 0 61.8-25.5 100.7-25.5 52.2 0 87.7 36.1 87.7 36.1"/>
    <path fill="#F6F6F6" d="M209.8 264.5c-5.7 39.6 16.8 63 21.1 60.8 5-2.4-10.1-29.9 12.3-51.2M219.8 391.2c-.6-22.7 14-35.7 16.9-34.2 3.7 1.9-8.2 22.3 8.9 39.9"/>
    <path d="m444.7 134.4-4.1-37.1c13.5-8.1 32.8-19 47.3-13.7 12.4 4.5 18.9 15.3 22.2 27.1l-65.4 23.7z"/>
    <path stroke-linejoin="round" d="M693.7 443.6c-13.5-19.6-38.9-25.3-54.6-55.3-11.6-22.3-5-28.8-9.7-50.6 0 0 8.5 6.1 24.5-.2 9.4-4.7 14.1-14.4 13.7-19-9.9 1-26.5 8.2-38.2-13.5-11.4-21.3-24.7-16.4-22.6-48 40.4-3.3 49-34.4 46.9-36-2.7-2.1-6.7 7.1-34.7 7.1-26.5 0-26.3-29.7-30.7-46.5-4.4-10.9-11.2-25.8-17.7-30.2l-70-41.5S473.9 97.7 452.3 96c-21.6-1.8-47-9.9-65.1-9.9-18.1 0-39.5 2.9-45.5 7.2-12.7 8.6-17.4 15-29.2 17.2-13.8 1.8-31.2 2.7-51.7 8.7-12.4 3.6-25 10.1-39.4 13.6-12.5 3.1-48.3 6.3-50.7 11.2-1.2 3-4.1 28.8 9 39.5 0 1.1-4.8 7.3-4.8 29.2s11.5 30.8 21.2 41.4c10 11.5 31.5 25 53.4 25s41.4-14 64-14c11.3-.1 31.4-.2 52.5 20.2 21.2 20.4 21.9 47.7 21.9 65.3 0 17.5-7.5 47.3-19.7 54.6-13.6 5.8-53.4 9.3-84.8 2.7-31.4-6.6-42.8-14.6-55.9-18-13.1-3.4-22.1-5.6-22.1-1.4 0 10 2.9 8.4 4.9 13 0 26.4-25.4 31.9-23.7 34.6 2.4 4.2 12.3 6.2 23.7 2.1 11.4-4.1 16.5-10.1 16.5-10.1s-.7 9.3 8.1 20.4c3.2 0 6.8-16.7 19.8-22.3 8.8-1.9 17.8 4.6 49.1 4.6 8.4 0 21.5-3.3 33.3-3.6 14.7-.3 27.7 2.4 27.7 2.4-4.9 18.8-5.7 38.7-35.1 51.1-24.5 10.3-35.7 2.6-60.1 14.7-24.3 12-27.8 36.8-45.5 39.9a42 42 0 0 1-41.3-15.6c-1.5-1.7-4-.8-4.6 1.4-2.6 10.4 3.1 40.7 28.1 50 19 7.1 35.4.4 44.1-4.9l5.2-3.6s-1.9 1.5-5.2 3.6c-7.3 5.1-20.2 14.9-25.2 23-9.3 15.2-9.6 32.9-22.8 44.9-10.6 9.6-28 9.4-39.3 1-2-1.5-4.8.6-4 3a56.4 56.4 0 0 0 57.9 37.2 78.3 78.3 0 0 0 38.7-18.4 141.7 141.7 0 0 0 26.6-28.1c6.4-8.8 14.8-19.5 25.6-20.7-11.6 11.3-17.4 27.2-21.3 42.8-4 15.7-6.6 31.8-13.4 46.5-6 12.8-16 24.6-29 29.5-2.1.8-2.3 3.8-.3 4.8a60 60 0 0 0 69.5-13c11.1-12.5 16.2-29 24.7-43.3 8.5-14.3 24.3-25.8 40.8-23.6-9.2 16.8-14.6 32.6-12.6 45.5 2.2 14.4 10.4 29 4.6 42.4-5.5 12.9-16.6 13.9-25.4 27.4-10.5 16-8.2 37.3-.1 55.1 1.1 2.5 4.8 1.8 5-.9.3-3.5.8-7.1 2-9.9a65.8 65.8 0 0 1 11.7-20c9.2-9.6 23.1-12.8 34-20.3 17.9-12.3 25.6-44.9 37.3-63.1 14.3-22.3 33.9-29.7 54.4-46.6 0 11.4.6 24.8-3.5 37-5.8 17.1-27.3 29.6-29.6 47.8a45.4 45.4 0 0 0 18.9 41 2.6 2.6 0 0 0 4.1-2.3c-1.7-24.6 2.3-40.3 27-48.7 28.3-9.6 43.6-18.5 51.8-33.6 8.9-16.3 8.7-40.4 16.6-50.4-2 13.7 9 25.5 18.7 35.4 8.4 8.5 17 19.5 16.5 30.8-.1 2.3 2.6 3.5 4.3 2a55 55 0 0 0 16.8-34.5c3.2-26.7-18.9-57-13.5-91.7 2.6-16.7 11.1-23.6 11.1-31l-.1-1.6.1 1.6c.9 10.8 3.8 27.7 18.1 36.7a37.4 37.4 0 0 0 25.8 5.9c2.1-.3 3-2.8 1.6-4.3-22.9-24.4-5.1-44.1-10.7-67.3-3.6-14.9-20.6-29-25.1-43.6-4.5-14.7-7-30.6-2.4-45.3 8 8.8 4.8 12.5 26.8 21.5 8.6 3.5 15 10.1 15.4 17.1.3 5.1-1.9 10.1-4 15-.9 2.2 1.4 4.4 3.5 3.4a40.3 40.3 0 0 0 20.6-22.7c4-11.9 2.2-25.7-4.9-36z"/>
    <g>
      <path stroke="none" d="M468.8 127.2s12.8-10.6 21.9-14c4.6-1.7 46.6-18.9 66.8-4.4 28.2 20.2 5.6 70.5 4 74.8"/>
      <g stroke="none" fill="#000">
        <path d="m468.7 127.2 1.5-1.3 4.3-3.6c1.9-1.5 4.2-3.3 7-5.2 1.4-.9 2.9-1.9 4.6-2.8l2.6-1.4 1.4-.6 1.4-.6a161.3 161.3 0 0 1 27.1-8.6 83.5 83.5 0 0 1 24.5-1.5 35.4 35.4 0 0 1 16.2 6.2l1.6 1.3 1.6 1.5c1.1 1 2 2.2 2.9 3.3 1.7 2.3 3.2 4.7 4.3 7.3l.4 1 .3 1 .7 2c.3 1.3.8 2.6 1 3.9 1.1 5.3 1.2 10.4.8 15.3-.3 4.8-1.1 9.3-2 13.4a119.2 119.2 0 0 1-9.3 26l-.6-.2.7-1.9 1.8-5.3c1.4-4.6 3.4-11.1 4.8-19.2.7-4 1.2-8.4 1.4-13a54 54 0 0 0-1.2-14.3c-1-4.8-3.1-9.5-6.2-13.6-.8-.9-1.6-2-2.5-2.8-.5-.4-.8-.9-1.4-1.3l-1.6-1.3a25.3 25.3 0 0 0-6.7-3.6 51.6 51.6 0 0 0-15.5-2.3c-5.3.1-10.5.6-15.5 1.5-10 1.8-19.2 4.6-26.9 7.3l-1.5.5-1.4.5-2.6 1.1-4.7 2.4-7.3 4.5-6.2 4.3.2.1z"/>
      </g>
    </g>
    <g stroke="none" fill="#000">
      <path d="M608.5 259h-.5l-1.3-.1-4.6-.4c-3.8-.5-8.8-1.6-13.5-3.6l-3.4-1.7-3.1-2-1.4-1.1-1.3-1.1-1.1-1.1-1-1.1-1.5-2.1-1-1.7-.7-1.6.4-.2a39 39 0 0 0 3.7 4.9l1 1 1.2 1 1.3.9 1.4.9a30.1 30.1 0 0 0 6.5 2.9 47.8 47.8 0 0 0 17.3 2.2l1.2-.1h.4v4.1zM498.9 312.5l2.3 1.5 2.6 1.8 1.6 1.1 1.7 1.4 3.7 3.1 3.9 3.8 2 2.1 1.9 2.2 1 1.1.9 1.2 1.8 2.4a22 22 0 0 1 1.7 2.5l1.6 2.5 1.4 2.6c.5.9 1 1.7 1.3 2.6.8 1.7 1.6 3.4 2.1 5 .7 1.6 1.1 3.2 1.5 4.6l.9 4 .4 3.2.1 2v.7h-.6l-.2-.7-.6-1.9-1-2.9-.7-1.7-.8-1.9-2-4.2c-.7-1.5-1.6-3-2.5-4.6l-2.9-4.8-1.6-2.4-1.6-2.4-1.7-2.3-.8-1.2-.9-1.1-3.5-4.4-3.4-4a1184.5 1184.5 0 0 1-4.6-5.1l-1.3-1.4c-.8-.9-1.6-1.6-2.1-2.3a82 82 0 0 1-1.8-2l.2-.1zM501.8 384.5l1 1.7 1.1 2 1.6 2.4 1.9 2.8 1.1 1.5 1.2 1.5 1.2 1.6 1.3 1.5c.8 1.1 1.8 2.1 2.7 3.1l2.8 3 2.8 2.8 2.7 2.6 2.5 2.3 2.1 1.9 1.7 1.5a69 69 0 0 0 1.5 1.3l-.3.5-1.9-.7-2.1-1-2.6-1.5-1.4-.9-1.5-1-3.1-2.4a80 80 0 0 1-3.2-2.8c-1-1-2.1-2-3-3.1l-2.8-3.4c-.9-1.1-1.7-2.3-2.4-3.5l-1-1.7-.9-1.7c-.6-1.1-1.1-2.2-1.4-3.3l-1-2.8-.5-2.2-.4-2h.3zM444.7 391.6l.6.4c.4.3.9.7 1.5 1.4l1 1.1 1.1 1.4a28.4 28.4 0 0 1 4.1 8.1 106.1 106.1 0 0 1 3.5 16.8l.8 5.8.8 5.5 1 5.1c.4 1.6.7 3.1 1.2 4.5a54.3 54.3 0 0 0 1.8 5.2l.5 1.3.8 1.8.3.6-.5.3-.5-.5-1.3-1.6-.9-1.2-.9-1.5c-.6-1.1-1.3-2.3-1.9-3.7l-1.8-4.6c-.5-1.7-1.1-3.4-1.5-5.2-.9-3.7-1.5-7.6-2-11.5l-1.4-11.4c-.3-1.8-.5-3.5-.9-5.1-.4-1.6-.7-3.1-1.2-4.5l-.3-1-.4-.9-.7-1.7-.7-1.5-.7-1.2a17 17 0 0 0-1.5-2.3l.1.1zM426 438.3l.4.5.9 1.5.4 1.2.2 1.5v1.7l-.4 1.9a31.2 31.2 0 0 1-3.6 7.9c-1.5 2.7-3.2 5.4-4.6 8.2l-2 4.3a72 72 0 0 0-1.6 4.2l-.6 2.1-.5 2-.8 3.8a57 57 0 0 1-.5 3.2 58.7 58.7 0 0 1-.5 4.7h-.6l-.5-2.2a66 66 0 0 1-.3-2.6c-.1-1-.2-2.2-.1-3.4l.1-2 .2-2.1.3-2.2.5-2.3a50.7 50.7 0 0 1 8.8-17.6l2.5-3.6c.8-1.1 1.4-2.2 1.9-3.2a9.1 9.1 0 0 0 1.1-5.3l-.1-.9-.2-.7-.2-.6h-.2zM383.8 462l-.1 3.2-.4 3.7c-.2 1.4-.4 3-.9 4.7-.4 1.7-.9 3.6-1.7 5.5l-1.2 2.9-.7 1.5-.8 1.4a41.2 41.2 0 0 1-8.9 10.8c-1.8 1.6-3.7 3-5.5 4.3l-5.6 3.7-5.1 3.3-4.3 3.2-1.8 1.6-.8.8-.7.8-1.2 1.4-1 1.3-1.3 1.9-.4.7-.6-.2.3-.8c.2-.5.4-1.3.9-2.2.2-.5.4-1 .8-1.5l1-1.7a31 31 0 0 1 7.2-7.7l5-3.8 5.3-3.8 5.2-4.1a41 41 0 0 0 4.7-4.6l2.1-2.5c.6-.9 1.3-1.7 1.8-2.6l.8-1.3.8-1.3 1.4-2.6 2.2-5 .5-1.2.4-1.1.7-2.1 1-3.4.8-3.1.1-.1z"/>
      <polygon points="327.5,151.6 313.5,152.3 313.4,151.9 326.8,147.6"/>
      <path d="m319.3 119.5.2.8.8 2.2c.4.9 1 2 1.9 3 .9 1 2.1 1.9 3.6 2.3l1.2.3 1.3.1 3 .2 3-.1 3.1-.3 3.2-.6 3.3-.9 7-1.9c1.2-.3 2.5-.4 3.7-.6l3.8-.1c1.2.1 2.5.1 3.7.3l3.5.7 3.3.9 1.6.5 1.5.6c2 .8 3.8 1.5 5.4 2.4l4.4 2.3 3.2 2 2.8 1.8-.3.5-3.1-1.2-3.5-1.4-4.6-1.7c-1.6-.7-3.5-1.1-5.4-1.8l-1.5-.5-1.5-.3-3.1-.7-3.2-.5-1.6-.1-1.7-.1-3.3.1-3.3.5c-2.2.4-4.5 1.1-6.8 1.7l-3.5.8a49 49 0 0 1-3.5.5c-1.2 0-2.3.2-3.5.1l-3.4-.2-3-.5-.7-.1-.4-.1h-.4l-1.5-.5a9.6 9.6 0 0 1-4.1-3.5 9.3 9.3 0 0 1-1.5-3.7c-.3-1.1-.3-1.9-.3-2.5v-.9l.2.2zM394.2 122.8l-2.5-1-2.8-1.2-3.6-1.4-4.3-1.6-4.9-1.7-2.6-.8-2.7-.8-2.7-.7-2.7-.7c-1.8-.5-3.7-.8-5.5-1.2l-2.7-.5-2.6-.4c-1.7-.2-3.4-.4-5-.4h-2.3l-2.1.1-1 .1-1 .2-1.8.3a47.8 47.8 0 0 0-4.6 1.2l-.4.2-.1.1-.5-.4.1-.2.4-.4c.4-.3.9-.8 1.7-1.2.8-.4 1.7-.9 2.9-1.3l1.8-.7 1-.3 1.1-.3a48.6 48.6 0 0 1 13-.5l2.9.4a59.7 59.7 0 0 1 8.6 2l2.8.9a83 83 0 0 1 5.3 2l4.8 2.2 4.2 2.3 1.8 1.1 1.6 1.1 2.5 1.8 2.1 1.7h-.2zM477.2 539.7c-1-.5-2.1-.9-3.1-1.5l-1.5-.9-1.5-1-1.4-1.1-1.4-1.1-1.3-1.2-1.2-1.3-2.3-2.8-2-3-.9-1.5-.8-1.6-.7-1.6-.7-1.7-1.2-3.4-.9-3.4a53.7 53.7 0 0 1-1.4-14.1l.1-3.5.3-3.4 1.3-1.7c-.3.1-.6.2-.9.5-.3.3-.4.7-.4 1v.1-.4l-.1-.7-.2-1.4-.5-2.9a51.2 51.2 0 0 0-2.6-8.3l-1.3-2.6-.8-1.2-.9-1.2-1-1.1-1.1-1 .3-.5c1.9.9 3.5 2.3 4.9 3.9a32.3 32.3 0 0 1 5.6 11.2l.8 3 .3 1.6.1.8v1c0 .3-.2.7-.4 1l-.9.6 1.3-1.7-.1 3.4v3.4c0 2.2.1 4.5.4 6.7l.4 3.3.5 3.3.8 3.2.9 3.2.5 1.6.6 1.5 1.3 3 1.6 2.9.9 1.4.9 1.4 1 1.3 1.1 1.3 1.1 1.3 1.2 1.2 1.2 1.2 1.3 1.1c.8.8 1.8 1.4 2.7 2.1l.1.3zM479.4 156.7l-.6-.5-.7-.7-.7-1-.7-1.3-.6-1.5-.5-1.7-.3-1.8-.3-3.5v-3.1l.1-2.2.1-.6v-.2l3.9.8-.1.2-.2.5-.5 1.9-.5 2.8c-.1 1-.3 2.1-.3 3.2v1.6l.1 1.6.3 1.5.4 1.3.5 1 .5.7.5.6-.4.4z"/>
      <path d="m535.3 114.6-4.7.4-2.4.3-2.8.4-3.2.6-3.5.8-3.8 1.1-4 1.3-4.1 1.6-4.2 1.9c-2.8 1.3-5.6 3-8.4 4.7a90.8 90.8 0 0 0-11.8 8.9l-1.8 1.7-1.7 1.7a58 58 0 0 0-5.9 7.4 41.9 41.9 0 0 0-6.2 15.4 21.6 21.6 0 0 0 0 6.6c.3 1.9 1 3.5 1.8 4.6a5.7 5.7 0 0 0 3.6 2.2v.6l-1.3-.1c-.8-.2-2.1-.6-3.2-1.8a12.5 12.5 0 0 1-2.7-5 34 34 0 0 1-.7-3.4v-3.9a39.7 39.7 0 0 1 5.8-17c1.8-2.8 3.8-5.5 6.2-8.1l1.8-1.9 1.8-1.8 4-3.5A82 82 0 0 1 497 122l2.2-1.1 2.2-1 4.4-1.8 4.4-1.4 4.2-1.1 4-.8 3.7-.5 3.3-.3 2.9-.1h2.5l3.5.2 1.2.1-.2.4zM491.9 181.3l.3-.3.9-.8 1.1-1.3 1.3-1.8.7-1.1.7-1.2 1.3-2.6c.4-.9.9-1.9 1.2-2.9l.6-1.5.5-1.5 1-3.1.8-3.1.7-2.9.5-2.7.4-2.3.3-1.8.3-1.6h.6l.4 1.6.4 1.8.2 2.4.1 2.9-.3 3.2-.6 3.4-1 3.4-.6 1.7a12 12 0 0 1-.8 1.6 12 12 0 0 1-.8 1.6l-.9 1.5a25.6 25.6 0 0 1-4.1 4.7l-2 1.5a10 10 0 0 1-2.5 1.1l-.5.1-.4.1.2-.1zM536.8 187.8l.6-.3 1.5-.9 1-.7 1.1-.9 1.2-1.1.6-.6.6-.7 1.2-1.5.6-.8.6-.9 1.2-1.9 1.2-2 2.2-4.4a68.5 68.5 0 0 0 3.6-9.7l1.5-4.8 1.3-4.5 1.1-4.1 2.2-8.6.6.1.1 2.5c0 1.6 0 3.8-.3 6.5a70 70 0 0 1-1.4 9.1l-1.3 5.1a101.6 101.6 0 0 1-3.9 10.1l-2.6 4.6-1.5 2.1-1.6 1.9-1.6 1.7-1.6 1.4-1.6 1.2a6 6 0 0 1-1.5.9l-1.4.7-1.3.5c-.7.3-1.4.4-1.8.5l-.6.1v-.6zM204.3 163.2l-.5 1-.6 1-.7 1-.8.9c-1.1 1.2-2.5 2-3.8 2.8l-4 2.2a48 48 0 0 0-3.8 2.3h-.1l-1.4.9-1.3 1-.6.6-.6.6-1.1 1.2-2 2.7-.9 1.4-.4.7-.4.7-3.5-1.9.6-.8.6-.8 1.2-1.5 2.6-2.8 1.4-1.3.7-.6.8-.6 1.6-1 1.7-.9h-.1l4.2-1.9 4.2-1.8a13 13 0 0 0 3.8-2.2l.8-.7.7-.8.6-.9.6-1 .5.5zM377 270l.9.1a11.5 11.5 0 0 1 4.7 2.4l1.3 1.2 1.2 1.4 1 1.5.8 1.6.5 1.5.3 1.4c.2.9.1 1.7.1 2.2l-.1.9-.6.2-.6-.6-.6-.7-.7-.9a7 7 0 0 0-.8-1l-.8-1.2-.9-1.2-.9-1.3-1.8-2.5-1.6-2.3-1.1-1.8-.4-.7.1-.2zM397.4 278.9l.7.3 1.5 1c1.1.9 2.3 2.5 3.1 4.2.4.9.7 1.8.8 2.7.2.9.2 1.7.2 2.5-.1 1.5-.5 2.5-.5 2.5l-.6.1-.5-.5-.4-.6-.5-.8-1.1-1.9-1-2.3-.8-2.4-.5-2.2-.2-1.7v-.7l-.2-.2zM357.2 159.9l-1.6 1c-.5.3-1.1.7-1.9 1l-2.3 1.4-2.6 1.7-1.4.9-1.4 1.1-1.5 1.1-1.5 1.2-3 2.4-2.9 2.5-2.8 2.5-2.6 2.4-2.3 2.2-4.8 4.6-.5-.3s.2-.7.8-1.7l1-1.9 1.5-2.3.9-1.3 1-1.4 2.4-2.8 2.7-2.8 3.1-2.7c1.1-.8 2.1-1.7 3.3-2.4a24 24 0 0 1 3.4-2.1l1.7-.9 1.7-.7 3.1-1.2 2.7-.8 2.1-.4 1.8-.3h-.1zM175.3 169.4l-.3-.5-.6-1.6c-.2-.7-.4-1.6-.4-2.7a11.4 11.4 0 0 1 2.2-7.7c1-1.3 2.7-2.5 4.8-2.8h1.4l1.6.2c1 .2 1.9.7 2.7 1.1 1.6.9 2.8 1.9 4 2.5 1.2.6 2.4.9 3.8.9 1.5 0 2.5-.2 3.7-.8 1.1-.6 2.1-1.4 3.1-2.4 1-.9 2.2-2.1 3.9-2.5l.6-.1h1.2l.4.1 1 .2.9.4c1.1.5 1.8 1.3 2.2 1.9.5.7.7 1.2.8 1.6l.2.6-.6.2-.3-.4-1.1-1.1c-.5-.4-1.2-.8-2-1l-.6-.1H206.7h.1-.1l-.3.1-.3.1c-.7.3-1.5 1.2-2.4 2.2-.9 1.1-2 2.4-3.6 3.3-1.5 1-3.7 1.5-5.4 1.5-1.9.1-3.9-.4-5.7-1.3-1.7-.9-3-2-4.2-2.8-.6-.4-1.1-.7-1.7-.8l-.7-.2H181.4h.1-.1c-1 0-2 .5-2.9 1.2-.8.8-1.5 1.8-1.9 2.8-.4 1-.8 2-.9 3l-.3 2.5.1 1.6.1.6-.3.2zM293.7 197.8l-2-1-5.1-2.6-3.4-1.7-3.8-1.8-4.1-1.7-4.3-1.7-4.4-1.5-4.3-1.4-4-1.2-3.7-1-3.1-.9-2.4-.7-2.1-.6.1-.6h4.7l3.3.2c2.4.2 5.2.6 8.2 1.3l4.5 1.2 4.6 1.5 4.5 1.9 4.2 2.1 3.7 2.3c1.2.7 2.2 1.6 3.2 2.3 1.9 1.5 3.4 2.9 4.4 3.8l1.5 1.6-.2.2zM209.3 170.2v.9l-.1 1-.3 1.3a9.1 9.1 0 0 1-1.8 2.8c-.9.9-1.9 1.6-2.9 2.2-2 1.2-4.1 2-5.8 2.5l-2.1.5-.8.1-.3-.5.5-.7a15.8 15.8 0 0 1 3.7-3.5l2.8-1.7 1.4-.8 1.3-.7 1.1-.7 1-.7.9-.7.7-.6.7-.6v-.1zM386.6 200.5l-.4.4-1.2.7c-1 .4-2.3.6-3.5.4a6.3 6.3 0 0 1-4.3-2.7l.2-.6.5-.2 1.2-.4c.9-.2 2.1-.2 3.2 0a7 7 0 0 1 3.4 1.7l.4.3.4.3.1.1zM369.9 204.4l-.2.5-.3.4-.3.2-.3.2c-.4.3-1 .4-1.5.5-.6.1-1.1 0-1.6-.1a4.3 4.3 0 0 1-2.5-1.5l-.6-.9-.2-.5.3-.6.4-.2 1-.3c.8-.2 1.7-.1 2.5.1l.6.2.5.3.9.6.2.2.2.2.4.3.4.2.1.2zM401.4 193.2l-.3.5-1 .9c-.9.6-2.1 1-3.3 1.1a6 6 0 0 1-3.3-.7l-1.1-.7-.4-.4v-.6l.4-.3 1.1-.6c.9-.4 2-.7 3.1-.7s2.2.3 3.1.6l.6.3.5.2.5.2.1.2zM413.7 184l-.2.5c-.1.3-.5.7-.9 1-.8.7-2 1.3-3.2 1.4-1.2.2-2.4 0-3.4-.3l-1.1-.6a3 3 0 0 1-.4-.3v-.6l.4-.4 1-.7c.8-.5 1.9-.9 3-1 1.1-.1 2.2 0 3.1.3l.6.2.5.2.5.2.1.1zM424.9 175.1l-.5.3-.5.3-.6.3c-.8.4-1.9.8-3 .9-1.1.1-2.3-.1-3.2-.4l-1.1-.5a3 3 0 0 1-.4-.3l-.1-.6.4-.4 1-.8c.8-.5 2-.9 3.2-1 1.2 0 2.5.3 3.4.8l1.1.8.3.4v.2zM316.4 242.8v2.5l-.3 1.8-.2 1-.3 1c-.3.7-.5 1.5-.9 2.2l-1.3 2.2-.7 1.1-.8 1-1.8 1.9-2 1.6c-.7.4-1.3.9-2 1.2l-1.9.9-1.7.6a4 4 0 0 1-1.3.3l-1.2.2-.2-.6 3-2.7 1.4-1.3 1.5-1.4 1.6-1.6 1.6-1.7.8-.8.7-.9 1.4-1.7 1.2-1.7.6-.8.5-.8c.3-.5.7-.9.9-1.4l.7-1.1.7-1zM431.6 304.9l.7-1.6c.5-1 1.2-2.5 2.2-4.1l1.7-2.6a61.5 61.5 0 0 1 4.7-5.4l2.8-2.6 3-2.4 3-2.1 3-1.8 2.7-1.4 2.4-1.1 1.9-.7 1.7-.5.3.5-1.3 1.1-1.5 1.3-2 1.6-2.3 1.9-2.6 2.1-2.8 2.2-2.8 2.3-2.8 2.3-2.7 2.3-2.4 2.2-2.2 2a70.8 70.8 0 0 1-3.3 3.1l-1.3 1.2-.1.2zM495.7 261.9l1.5-1.8 1.8-2 1-1.2 1.1-1.4 1.2-1.5 1.2-1.7c.8-1.2 1.7-2.3 2.4-3.6.8-1.3 1.7-2.6 2.4-4l1.1-2.1 1-2.2 1-2.2.9-2.2a57 57 0 0 0 1.6-4.4l.7-2.1.6-2 1-3.8.8-3.3.5-2.5.3-1.7.1-.6h.6l.3 2.3.1 2.7-.1 3.5-.2 2-.3 2.1-.9 4.5-.7 2.3-.4 1.2-.4 1.2-.9 2.4-1.1 2.3c-.4.8-.7 1.6-1.2 2.3l-1.3 2.2c-.8 1.5-1.9 2.8-2.8 4.1-.9 1.3-2.1 2.4-3 3.5l-1.5 1.5-1.5 1.3-2.7 2.2-2.2 1.4-2 1.2v.1zM535.4 267.1v.6l.1 1.7.2 1.2.3 1.3.4 1.5.6 1.6a38 38 0 0 0 1.8 3.4c.7 1.2 1.6 2.3 2.5 3.5 1.8 2.4 4 4.9 6 7.7a39.5 39.5 0 0 1 5 8.9 21 21 0 0 1 1.2 9l-.2 1.9-.4 1.7c-.2 1-.6 1.9-.9 2.6l-.7 1.6-.3.5-.6-.2.3-2.3.2-2.6c.1-1 0-2.1-.1-3.3a25.8 25.8 0 0 0-2-7.6 52 52 0 0 0-4.8-8l-2.9-4-2.8-4.1c-.9-1.4-1.6-2.8-2.2-4.1-.6-1.4-1.1-2.8-1.3-4.1-.2-.6-.2-1.3-.3-1.9l-.1-1.7.1-1.5.2-1.3.4-1.7.2-.6.1.3z"/>
      <polygon points="377.9,150.8 368,149.3 369.3,145.5 378.1,150.4"/>
      <path d="m291.6 187.4-1.4-.5-1.6-.6-2-.8-10.8-4.1c-3.9-1.5-7.9-3-10.8-4.3a23 23 0 0 1-3.5-1.7l-1.3-.7.2-.6h1.5c1 0 2.3.2 3.9.4s3.5.6 5.4 1.1l3 .9 3.1 1.1 3 1.3 2.8 1.4c1.8 1 3.4 2.1 4.7 3.1l3 2.6 1 1.1-.2.3zM405.5 345.2l.3 5.5v5.5c-.1 1.8-.1 3.7-.3 5.5l-.7 5.5-1.1 5.4-.7 2.7-.8 2.6c-1.1 3.5-2.6 6.9-4 10.3-.7 1.7-1.5 3.3-2 5l-.4 1.2-.3 1.2-.2 1.2-.1 1.4-.2 5.4.1 5.4.2 5.5c0 1.9-.2 4-1 5.9-.8 1.9-2 3.5-3.2 4.9a36 36 0 0 1-1.9 2.1l-1.9 2-.1.1-.2.1-1.3.8-1.4.7-1.4.6-1.5.5-.7.2-.7.2-1.5.3-1.5.2-1.5.1H374l-1.5-.1-3-.4a24.6 24.6 0 0 1-4.4-1.2l-1.5-.6 1.7-3.6 1.1.5 1.2.4 2.5.7 2.6.4 1.3.1h2.6l1.3-.1 1.3-.2.6-.1.6-.2 1.2-.4 1.2-.5 1.2-.5 1.2-.6-.3.2 1.9-1.9 1.8-1.9c1.2-1.3 2.2-2.7 2.9-4.1.7-1.4.9-3 .9-4.8v-5.4l.1-5.5.4-5.5.1-1.4.2-1.5.4-1.4.5-1.4c.7-1.8 1.5-3.4 2.3-5.1a97.1 97.1 0 0 0 5.2-12.6l.8-2.6 1.3-5.3.9-5.4c.3-1.8.3-3.6.5-5.4l.2-5.4-.1-5.5.3.3zM222 147.1l3.6-1.1 4-1.4a143 143 0 0 0 5.2-2.1l2.9-1.3 3.1-1.5 6.5-3.4 7-3.8c2.4-1.2 4.9-2.6 7.8-3.5l.6-.2.3-.1.3-.1 1-.2 2-.4 4-.8 7.8-1.5 7.3-1.3 6.6-1.1 9.9-1.5 3.8-.5.1.6-3.6 1.1c-2.3.7-5.6 1.7-9.6 2.7l-6.4 1.7-7.2 1.8-7.7 1.8-4 .9-2 .4-1 .2-.3.1-.2.1-.4.1c-2.3.7-4.8 1.9-7.2 3.1l-7.2 3.4-6.9 3-3.3 1.2-3.1 1-2.9.8-2.6.6c-1.6.4-3.1.6-4.3.8l-2.8.3-1 .1h-.1zM483 395.9l-.6-.4-1.6-1.1c-.6-.6-1.5-1.2-2.3-2.1l-1.3-1.4-1.3-1.7a28.6 28.6 0 0 1-3.9-9.4c-.7-3.7-.6-7.7-.4-11.4l.2-5.5c0-1.8-.1-3.5-.3-5.1a22.1 22.1 0 0 0-1.5-5.6l-.5-1-1-1.9-2.1-3.1-1.9-2.3-1.8-1.9.4-.5 2.3 1.4c.7.5 1.6 1.1 2.4 1.9l1.4 1.3 1.4 1.6c.9 1.2 1.9 2.5 2.6 4.1a18.6 18.6 0 0 1 1.7 5.2c.4 1.9.6 3.8.6 5.7l-.1 5.8-.3 5.5a44.3 44.3 0 0 0 1.1 9.9c.4 1.5 1 2.8 1.5 4.1a26 26 0 0 0 1.9 3.3l1.7 2.4 1.6 2.1.1.1z"/>
    </g>
    <path fill="#F6F6F6" d="M369.5 147.4c-3.4 3.7-11.3 5.2-20.9 6.3-9.5 1-19.1.6-20.6-4-2.1-3.3 3.9-19.4 10.2-19.4 6.3-.6 22.6 10.4 31.3 17.1z"/>
    <g stroke="none" fill="#000">
      <path d="M342.8 154.2s-2.4-3.1-2.4-9c0-5.8 3.4-10.4.1-10.4-3.2 0-8.1 5-8.1 11.9s2.1 6.8 2.1 6.8M489.8 443.7l.2.8.3 1 .4 1.3.6 1.6.4.9.5.9c.6 1.3 1.5 2.7 2.4 4.2 1 1.5 2.2 3 3.5 4.6l4.3 4.9 4.7 5.2 4.8 5.5c1.6 1.9 3 3.9 4.4 5.9 1.4 2 2.6 4.1 3.8 6.2l1.6 3.1 1.3 3c.8 2 1.4 3.9 1.9 5.7l.7 2.6.5 2.4.6 3.9.3 3.4-.6.1-.9-3.2-1.2-3.6-1.7-4.6a78.3 78.3 0 0 0-5.5-10.8c-1.1-1.9-2.5-3.8-3.8-5.7a118.5 118.5 0 0 0-8.9-11.1l-4.5-5.4a62.5 62.5 0 0 1-7.1-10.6 29.8 29.8 0 0 1-2.4-6.9l-.3-1.8c-.2-1.1-.2-1.9-.2-2.5v-.9l-.1-.1zM429.2 509.6l.3.6.6 1.9c.1.9.1 2-.2 3.2a29.2 29.2 0 0 1-4 7.8l-3.1 4.1-6.9 8.6-3.2 4.5-1.5 2.2-1.3 2.2c-.8 1.5-1.7 2.9-2.3 4.4l-.9 2.1-.8 2-1.2 3.6-.8 2.8a21 21 0 0 1-.6 2.5h-.6l-.1-2.7c0-.8 0-1.9.2-3.1l.2-1.9.4-2.1a39 39 0 0 1 6.1-14.4 50.9 50.9 0 0 1 7.1-9.1l3.7-4 3.5-3.7 2.9-3.4c.8-1.1 1.5-2.1 1.9-3.1l.5-1.4c.2-.4.2-.9.3-1.3v-1.8l-.1-.7-.1.2zM307.3 606l2.4-.7 2.6-.9 3.3-1.4c1.2-.6 2.5-1.2 3.8-2a45.6 45.6 0 0 0 11.5-9.9c2.4-2.7 4.5-5.6 6.5-8.4a69 69 0 0 1 8.5-9.9 42.8 42.8 0 0 1 3.2-2.2l.7-.3.6-.3-.6.3-.7.4-.9.6-2.2 1.8-2.5 2.7a78.7 78.7 0 0 0-5.2 7.7 115.8 115.8 0 0 1-9.5 13.2 54 54 0 0 1-15.3 11l-2.8 1.2-2.4.9-1-3.8zM488.7 659.5l2.4-1.2 1.3-.6 1.3-.8c.9-.6 2-1.2 3.1-2.1l1.8-1.3 1.8-1.5 1.8-1.7 1.8-1.9 1.8-2 1.7-2.2 1.7-2.3 1.5-2.4.8-1.2.7-1.3 1.3-2.5 2.3-5.1 1.8-4.9a51 51 0 0 0 1.2-4.5l.8-3.9c.2-1.2.4-2.2.4-3l.2-2.7-.1 2.7-.2 3.1-.5 4-1 4.6-1.5 5.1c-.5 1.8-1.3 3.5-2 5.3l-1.2 2.7-.6 1.3-.7 1.3-1.4 2.6-1.6 2.5-1.7 2.4-1.7 2.3-1.8 2.1-1.8 1.9-1.8 1.8-1.8 1.5c-1.1 1-2.3 1.8-3.3 2.5l-1.4 1-1.2.7-2.3 1.3-1.9-3.6zM634.6 446.4l-1.2-1.7-1.4-1.8-2-2.3c-1.5-1.6-3.5-3.4-5.7-5.4a21 21 0 0 1-3.1-3.5 29 29 0 0 1-2.4-4.1c-1.4-2.8-2.5-5.6-4-8.1-.7-1.2-1.5-2.4-2.3-3.4-.8-1-1.7-1.8-2.6-2.6a24.6 24.6 0 0 0-4.6-3.1l-1.9-1 2 .8c1.2.6 3 1.4 4.9 2.8.9.7 2 1.5 2.9 2.5 1 1 1.9 2.1 2.7 3.3 1.7 2.4 3.2 5.2 4.7 7.8a25.3 25.3 0 0 0 5.5 6.5c2.2 1.8 4.4 3.4 6.2 5l2.4 2.3 1.7 1.9 1.3 1.7-3.1 2.4zM254.4 560.8l.4-.3.5-.3.8-.4 2.1-1a53.6 53.6 0 0 1 9.6-2.7l3.8-.7 1.9-.4 1.9-.4a45.2 45.2 0 0 0 10.5-4.3l2.7-1.7 2.2-1.6 1.6-1.4 1-.9.4-.3-.3.4-.9 1-1.5 1.5-2.1 1.9-2.6 2-3.1 2a40.8 40.8 0 0 1-9.2 4l-2 .6-3.7 1.1a52.6 52.6 0 0 0-10.4 4.3l-.6.4-.5.4a3 3 0 0 0-.4.3l-2.1-3.5zM377.2 650.5l1.6-2.3 1.9-2.7 2.6-3.4c.9-1.3 2.1-2.6 3.2-3.9 1.1-1.4 2.5-2.8 3.8-4.2l2.2-2.1 2.3-2.1 2.4-2 2.6-1.8 2.7-1.7 2.7-1.5c1.8-1 3.6-1.8 5.4-2.6l5.1-2.2 4.6-1.9 3.9-1.7 2.9-1.4 2.5-1.2-2.5 1.4-2.9 1.6-3.8 1.9-4.5 2.2-5 2.5-5.2 2.9-2.5 1.6-2.5 1.8-2.4 1.9-2.2 2-2.1 2.1a18 18 0 0 0-1.9 2.1c-1.2 1.5-2.4 2.8-3.4 4.3l-2.9 4-2.3 3.4-1.7 2.8a66 66 0 0 1-1.5 2.4l-3.1-2.2zM572.9 651.8l.1-.7.3-2a90.3 90.3 0 0 0 .4-17.2l-.2-2.8-.1-1.4-.2-1.4a29 29 0 0 0-1.7-5.5 78 78 0 0 0-5.3-10.4 72.3 72.3 0 0 1-4.6-9.3c-1.2-2.8-1.9-5.2-2.4-6.9l-.7-2.7.9 2.6a78 78 0 0 0 7.9 15.6c2.1 3.1 4.2 6.6 6 10.3a29 29 0 0 1 2.2 5.8l.3 1.5.2 1.5.4 2.9a107.2 107.2 0 0 1 .7 17.8l-.1 2.1-.1.8-4-.6zM626.8 561.7l-.1-.6-.2-1.4c-.2-1.3-.8-3.1-1.8-5.1-1-2.1-2.5-4.4-4.3-6.7l-5.9-7.5a168.4 168.4 0 0 1-8.1-11.4l-2-3.4a67.7 67.7 0 0 1-2.5-5.3c.7 1.2 1.7 3 3.1 5l2.3 3.2 2.7 3.5c1.9 2.4 4.1 4.8 6.3 7.2l6.5 7a43 43 0 0 1 5.2 6.9 24 24 0 0 1 2.5 5.8l.4 1.8.1.6-4.2.4zM629 339.6l-.4-.1-1-.4c-.8-.4-2-1-3.2-1.9a23 23 0 0 1-3.9-3.1 36 36 0 0 1-4.1-3.9l-2-2.1-1.8-2.1-1.7-2-1.4-1.8-2.1-2.7-.8-1 .9.9 2.4 2.4 1.6 1.6 1.9 1.7 2 1.8a42.5 42.5 0 0 0 4.4 3.5l2.2 1.5 2.1 1.3 1.9 1a18 18 0 0 0 3.7 1.4h.2l-.9 4zM566.3 338.5l.1.6.4 1.7.9 2.4.7 1.4.9 1.5c.7 1 1.4 2.1 2.4 3.2l3 3.3c2.1 2.3 4.6 4.6 6.9 7.2l3.3 4.1a51 51 0 0 1 6.6 12.3c.5 1.2.8 2.4 1.1 3.4l.7 2.6.3 1.7.1.6-1.2-2.1-1.3-2.3-1.8-3a89.4 89.4 0 0 0-4.8-7.1l-2.9-3.8-3.2-3.7-3.4-3.7-3.2-3.8-2.7-3.9c-.8-1.3-1.4-2.6-2-3.8l-.6-1.8-.4-1.7-.2-1.5V341l.2-1.8.1-.7zM565.3 408.5v.9l.2 2.6a40 40 0 0 0 10.5 20.8l1.2 1.4 2.5 2.7 5.4 5.4 5.4 5.6a66.4 66.4 0 0 1 8.5 12.3 32.8 32.8 0 0 1 3.2 11.5c.1 1.6 0 3-.1 4.2l-.5 2.6-.3.9v-3.5l-.6-4a38.8 38.8 0 0 0-8.2-15.8 80.8 80.8 0 0 0-4.9-5.5l-5.4-5.5a142.7 142.7 0 0 1-7.9-8.5l-1.2-1.5-1.2-1.5a40.6 40.6 0 0 1-6.2-12.1c-.6-1.9-.9-3.7-1.1-5.4-.2-1.6-.1-3-.1-4.2l.4-2.6.4-.8zM554.4 478.7l.8.6 2.1 1.7 1.4 1.3 1.6 1.6a43 43 0 0 1 7 9.9 42.3 42.3 0 0 1 5 14.5c.5 2.7.7 5.4.8 8.1.2 2.6.3 5.2.7 7.7l.7 3.6 1 3.4 2.4 6.7a44.4 44.4 0 0 1 2.5 9.2l.2 2.6c.1 1.6.3 3 .6 4 .3 1.1.8 1.8 1.3 2.2l.8.5s-.3 0-.9-.4a5 5 0 0 1-1.9-2.1c-.6-1.1-1-2.5-1.4-4.1-.4-1.6-.8-3.3-1.5-5.1l-2.5-5.8-3-6.6-1.3-3.7-1-3.9c-.5-2.7-.7-5.4-.8-8.1-.2-2.6-.3-5.3-.7-7.7a57.4 57.4 0 0 0-6.6-19.4l-1.4-2.4-1.4-2.1-1.3-1.8-1.1-1.5-1.7-2.1-.4-.8zM530.9 543.6l.4.7 1.3 1.8 2.2 2.6c.9 1 1.9 2.1 2.9 3.5l.7 1 .7 1.2.7 1.2c.2.4.5.8.6 1.3a47.4 47.4 0 0 1 3.3 18.9l-.4 6.6a108 108 0 0 1-.8 6.3l-.9 5.8-.8 5.2-.5 4.4-.3 3.4-.1 2.2v.8l-.2-.8-.4-2.2-.5-3.5a59.6 59.6 0 0 1-.1-9.8l.3-5.9.5-6.2c.1-2.1.3-4.2.3-6.4.1-2.1 0-4.2-.1-6.3-.1-2.1-.4-4.1-.7-6l-1.3-5.5-.9-2.4-.5-1.1-.6-1.1-2.2-3.8-1.7-3.1-.8-2.1-.1-.7zM485.6 561.4l.6.6 1.6 2c.6.9 1.4 2 2 3.4a37 37 0 0 1 3.5 17.6c0 2.3-.1 4.8-.5 7.3s-1.3 5.2-2.8 7.5c-1.5 2.3-3.2 4.1-4.9 5.9l-1.2 1.3-1.2 1.3-1.1 1.3-1 1.3a63.7 63.7 0 0 0-6.4 10.4c-1.6 3.2-2.6 6.1-3.3 8.1l-.8 2.4-.3.8v-.9l.2-2.5a37.7 37.7 0 0 1 1.9-8.8 43.7 43.7 0 0 1 5.6-11.5l1-1.5 1.1-1.5 1.1-1.4 1.2-1.4c1.6-1.8 3.2-3.6 4.4-5.4 1.2-1.8 1.9-3.9 2.4-6 .4-2.2.7-4.5.8-6.7.1-2.2.2-4.4.1-6.4s-.2-4-.5-5.7c-.3-1.8-.6-3.4-1-4.8l-1.3-3.6-1.1-2.2-.1-.9zM435.1 554.6a74.7 74.7 0 0 0 1.7 13.4 26.3 26.3 0 0 1-3 14l-.5.9-.6.9-.6.9-.7.8-.7.8-.7.7-1.7 1.4c-2.3 1.7-4.8 3-7.2 4.2l-3.6 1.7-3.5 1.8a103.2 103.2 0 0 0-17.8 11.3c-3.2 2.4-5.7 4.5-7.5 6.1l-2.8 2.4.6-.8 1.7-2.2a87.8 87.8 0 0 1 17.4-16c2.1-1.4 4.3-2.9 6.7-4.2l3.6-1.9 3.6-1.8c2.4-1.1 4.7-2.3 6.6-3.7l1.4-1.1.7-.6.6-.6.6-.6.5-.7.5-.7.5-.7c1.2-1.9 2.1-4 2.7-6.2.6-2.1.9-4.2 1.2-6.1.4-3.9.5-7.3.5-9.6l-.2-3.8zM305.4 579.6l.1-1 .2-1.2.4-1.7a24.8 24.8 0 0 1 5.3-9.2 44.7 44.7 0 0 1 12-9c2.5-1.3 5-2.5 7.6-3.5 2.6-1.1 5.3-2.1 7.8-3.3 2.6-1.1 5.1-2.3 7.5-3.6l1.8-1 1.7-1a63 63 0 0 0 3.3-2.2c2.1-1.6 4.1-3.1 5.9-4.7l5-4.7c3-3 5.4-5.7 7-7.5l2.6-2.9-.5.9-1.5 2.5-2.5 3.8a68.8 68.8 0 0 1-17.3 18l-1.8 1.2-1.8 1.1c-2.5 1.4-5.2 2.7-7.8 3.9l-8 3.2c-2.6 1-5.2 2-7.5 3.1a51.1 51.1 0 0 0-12 7.5 48.3 48.3 0 0 0-3.9 4.1l-2.4 3.7-1.1 2.6-.1.9zM574.6 276.3l.4.4 1.1 1.3 1.5 2.2.8 1.5.7 1.7c.4 1.2.9 2.5 1.2 4a52.2 52.2 0 0 1 1.1 14.2l-.1 4.8v4.6l.2 4.3.5 3.8.4 1.7.4 1.5.9 2.4.7 1.5.2.5-.4-.4-1.2-1.2-1.6-2.2-.8-1.4-.8-1.7a35.6 35.6 0 0 1-2.1-8.4l-.4-4.8-.1-4.9.1-9.5-.2-4.3-.4-3.8-.3-1.7-.4-1.5-.8-2.4-.6-1.6v-.6z"/>
    </g>
  </g>
</svg>
