<svg xmlns="http://www.w3.org/2000/svg" fill="#d7374a" stroke="#000" viewBox="50 50 200 200">
  <metadata source="http://wappenwiki.org/images/1/11/Le_Tellier_de_Louvois.svg" license="https://creativecommons.org/licenses/by-nc-sa/3.0"/>
  <g id="lizard" stroke-width="2.8689" transform="translate(13 13.4) scale(0.169)">
    <g>
      <path stroke-linejoin="round" d="M534.9 502.1c.4-1.7 1.3-3.2 2.3-4.6 1.8-2.5 3.7-4.8 6.2-6.6a15.7 15.7 0 0 1 17.8.1c2 1.4 3.9 3.2 5 5.4 2 4 1.3 8.8 0 13-1.2 3.8-2.4 6.9-2.2 10.9l.1.6c.8 1.6 2.6 0 3.2-.8l7.9-10.5c2.6-3.4 5.4-6.1 4.4-10.7-.5-2.3.1-4.5-.3-6.8-.4-2-.8-3.9-.9-5.9-.1-1.9 0-4.1 1.1-5.8.3-.5 4.6-3.6 4.7-2.6.1.6-.5 1-.9 1.4-1.6 1.5-1.9 3.7-1.4 5.8.3 1.2 1.4 4.7 2.3 5.6.3.3.9.2 1.2-.2.5-.5.7-1.5 1.1-2.1.7-1.1 1.7-2 2.4-2.9 1.8-2.3 5.5-5.6 8.6-5.5 1.3 0 2.5.7 3.3 1.8-.3-.5-3.5.7-3.9.9-1.4.6-1.4.9-2 2.1l-3.8 8c-.2.5-.5 1.2-.1 1.6l.5.3c2 .5 3.9-2.6 5.2-3.8 2.2-1.9 6-3.6 8.9-2.9.8.2 1.6.5 2.1 1.1.6.6.9 1.5.7 2.2-.5-.4-1.1-.4-1.8-.5-2.3-.1-2.8.8-4.4 2-2 1.5-3.7 3.4-5.1 5.5-.3.5-.7 1.2-.5 1.8.2.7.9 1 1.6 1.3 2.8 1 6 .6 8.7 1.8a6 6 0 0 1 3.1 7.2 9.6 9.6 0 0 0-2.3-3c-2-1.5-6.1-1-8.6-1-3 0-6.3.5-8.3 3-1.1 1.4-1.6 3.1-2.2 4.7-.7 1.8-1.4 3.6-2.3 5.3-3.3 6.4-8.1 11.8-12.4 17.5-2.1 2.9-4.2 6-5.7 9.2-1.5 3.1-3.3 6.5-7.4 6.3-3-.2-6.8-2.1-8.8-4.3l-2.4-2.8c-1.2-1.2-2.9-1.9-4.4-2.8-.6-.4-1.4-.6-2.1-.8-2.2-.5-4.6-.7-6.9-.7m-10.9-149.7c5.2.9 10.2 3 14.5 6 2.5 1.7 9.4 9.1 11.3 9.2 1 .1 2.8-4.9 8.5-11.3 2.6-2.9 7.4-6.7 7.2-11-.1-2.3.9-4.4.8-6.8-.1-2-.1-4 .1-6 .2-1.9.7-4.1 2-5.6.4-.5 5.1-2.8 5-1.8 0 .6-.6.9-1.1 1.2-1.8 1.2-2.5 3.3-2.4 5.5.1 1.3.6 4.9 1.3 5.9.3.4.9.3 1.2 0 .5-.4.9-1.4 1.4-1.9.8-.9 2-1.7 2.9-2.5 2.2-1.9 6.3-4.7 9.4-4 1.3.3 2.4 1.2 2.9 2.3-.2-.5-3.5.1-4 .2-1.5.4-1.5.6-2.3 1.7l-5 7.3c-.3.5-.7 1.1-.3 1.6.1.2.3.3.5.3 1.9.8 4.3-1.9 5.7-2.8 2.5-1.5 6.5-2.6 9.3-1.4.8.3 1.5.8 1.9 1.5s.6 1.6.3 2.3c-.4-.5-1.1-.6-1.7-.7-2.2-.5-2.9.4-4.7 1.3a21.9 21.9 0 0 0-5.9 4.6c-.4.5-.8 1.1-.8 1.7.1.7.8 1.2 1.4 1.5 2.6 1.4 5.9 1.6 8.3 3.3a6.2 6.2 0 0 1 1.9 7.6 9.4 9.4 0 0 0-1.7-3.3c-1.7-1.8-5.9-2-8.3-2.4-3-.5-6.3-.5-8.7 1.6-4.8 4.2-6.4 11.3-8.5 17-.8 2.2-1.7 4.5-2.9 6.5s-2.7 5.7-4.3 7.4c-3.7 4.2-9.9 5.4-14.8.8l-1.7-1.9-1.9-1.3c-4.6-2.8-9.5-7-15.2-6.7"/>
      <g stroke="none" fill="#000">
        <path d="m555.7 418.5-.5.1-1 .4-1.1.6-1.2.6-.7.4-.7.4-1.3.6-1.1.4-.5.1.1-.5.4-1.1.9-1.4.7-.7.8-.6 1-.4 1-.2a3.5 3.5 0 0 1 2.9.9l.2.3.1.1zm11.1-21.8v-1.6c.1-.9.5-1.9 1-2.8.6-.9 1.3-1.7 2-2.1l1-.5.4-.2.1.5v1.1c-.1.9-.5 1.9-1 2.8-.6.9-1.3 1.7-2 2.1l-1 .5-.5.2zm5.4-1.6-.1-.3v-.8c.1-.6.4-1.2 1-1.7.5-.4 1.2-.6 1.8-.5l.8.2.3.1v.4l-.2.7c-.2.5-.5 1-.9 1.4-.4.3-1 .5-1.6.6h-.8l-.3-.1zm9.3 115.7-.1-.5v-1.1c.1-.9.3-1.9.7-2.8a7 7 0 0 1 1.7-2.4l.8-.7.4-.2.1.4.2 1.1c.1.9-.2 2-.6 3-.5 1-1.2 1.9-1.9 2.4l-1 .6-.3.2zm4-1.3-.2-.3-.3-.9c-.1-.4 0-.8.1-1.3.1-.4.3-.9.6-1.3l1-1a3 3 0 0 1 1.2-.5l1-.1.4.1-.1.4-.2.9a6.7 6.7 0 0 1-2.3 3.4l-.7.5-.5.1zm-20.1 9.7-.1.4-.1.4-.1.6-.2 3.4-.2 3.5-.2 1.6-.2-1.6-.8-3.4-.8-3.4-.2-1.2-.1-.4 3 .1zm-18.4 1.1.4.2 1 .4 2.4 1.1 2.3 1.3.9.6.4.3-.4.3c-.2.2-.6.4-1.1.5-.5.1-1 .2-1.6.1l-.9-.2-.9-.4c-.6-.3-1.1-.7-1.5-1.2-.4-.5-.7-1-.8-1.4-.2-.5-.2-.9-.2-1.2-.1-.2 0-.4 0-.4zm9.8 22.3.4-.1 1-.1 1.1-.2.6-.2.2-.1.3-.4.6-.7.4-.3.5-.3c.6-.2 1.2 0 1.5.2.3.3.2.5.2.5l-.4.1c-.2.1-.3.4-.3.6V541.9l-.1.6c-.1.3-.1.6-.4 1a3 3 0 0 1-1 .9c-.8.5-1.7.5-2.3.3-.6-.2-1.1-.5-1.5-.8-.3-.3-.6-.6-.7-.9l-.1-.4z"/>
      </g>
      <path stroke-linejoin="round" d="M496.1 502.1c-.4-1.7-1.3-3.2-2.3-4.6a27.8 27.8 0 0 0-6.2-6.6 15.7 15.7 0 0 0-17.8.1c-2 1.4-3.9 3.2-5 5.4-2 4-1.3 8.8 0 13 1.2 3.8 2.4 6.9 2.2 10.9l-.1.6c-.8 1.6-2.6 0-3.2-.8l-7.9-10.5c-2.6-3.4-5.4-6.1-4.4-10.7.5-2.3-.1-4.5.3-6.8.4-2 .8-3.9.9-5.9.1-1.9 0-4.1-1.1-5.8-.3-.5-4.6-3.6-4.7-2.6-.1.6.5 1 .9 1.4 1.6 1.5 1.9 3.7 1.4 5.8-.3 1.2-1.4 4.7-2.3 5.6-.3.3-.9.2-1.2-.2-.5-.5-.7-1.5-1.1-2.1-.7-1.1-1.7-2-2.4-2.9-1.8-2.3-5.5-5.6-8.6-5.5-1.3 0-2.5.7-3.3 1.8.3-.5 3.5.7 3.9.9 1.4.6 1.4.9 2 2.1l3.8 8c.2.5.5 1.2.1 1.6l-.5.3c-2 .5-3.9-2.6-5.2-3.8-2.2-1.9-6-3.6-8.9-2.9-.8.2-1.6.5-2.1 1.1s-.9 1.5-.7 2.2c.5-.4 1.1-.4 1.8-.5 2.3-.1 2.8.8 4.4 2 2 1.5 3.7 3.4 5.1 5.5.3.5.7 1.2.5 1.8-.2.7-.9 1-1.6 1.3-2.8 1-6 .6-8.7 1.8a6 6 0 0 0-3.1 7.2 9.6 9.6 0 0 1 2.3-3c2-1.5 6.1-1 8.6-1 3 0 6.3.5 8.3 3 1.1 1.4 1.6 3.1 2.2 4.7.7 1.8 1.4 3.6 2.3 5.3 3.3 6.4 8.1 11.8 12.4 17.5 2.1 2.9 4.2 6 5.7 9.2 1.5 3.1 3.3 6.5 7.4 6.3 3-.2 6.8-2.1 8.8-4.3l2.4-2.8c1.2-1.2 2.9-1.9 4.4-2.8.6-.4 1.4-.6 2.1-.8 2.2-.5 10.4-2.7 12.7-2.6m5.1-147.8c-5.2.9-10.2 3-14.5 6-2.5 1.7-9.4 9.1-11.3 9.2-1 .1-2.8-4.9-8.5-11.3-2.6-2.9-7.4-6.7-7.2-11 .1-2.3-.9-4.4-.8-6.8.1-2 .1-4-.1-6-.2-1.9-.7-4.1-2-5.6-.4-.5-5.1-2.8-5-1.8 0 .6.6.9 1.1 1.2 1.8 1.2 2.5 3.3 2.4 5.5-.1 1.3-.6 4.9-1.3 5.9-.3.4-.9.3-1.2 0-.5-.4-.9-1.4-1.4-1.9-.8-.9-2-1.7-2.9-2.5-2.2-1.9-6.3-4.7-9.4-4a4.3 4.3 0 0 0-2.9 2.3c.2-.5 3.5.1 4 .2 1.5.4 1.5.6 2.3 1.7l5 7.3c.3.5.7 1.1.3 1.6-.1.2-.3.3-.5.3-1.9.8-4.3-1.9-5.7-2.8-2.5-1.5-6.5-2.6-9.3-1.4-.8.3-1.5.8-1.9 1.5-.5.7-.6 1.6-.3 2.3.4-.5 1.1-.6 1.7-.7 2.2-.5 2.9.4 4.7 1.3 2.2 1.2 4.2 2.7 5.9 4.6.4.5.8 1.1.8 1.7-.1.7-.8 1.2-1.4 1.5-2.6 1.4-5.9 1.6-8.3 3.3a6.2 6.2 0 0 0-1.9 7.6c.4-1.2.9-2.4 1.7-3.3 1.7-1.8 5.9-2 8.3-2.4 3-.5 6.3-.5 8.7 1.6 4.8 4.2 6.4 11.3 8.5 17 .8 2.2 1.7 4.5 2.9 6.5s2.7 5.7 4.3 7.4c3.7 4.2 9.9 5.4 14.8.8l1.7-1.9 1.9-1.3c4.6-2.8 9.5-7 15.2-6.7"/>
      <g stroke="none" fill="#000">
        <path d="m475.3 418.5.1-.1.2-.3 1.1-.7c.5-.2 1.1-.3 1.8-.2l1 .2 1 .4.8.6.7.7.9 1.4.4 1.1.1.5-.5-.1-1.1-.4-1.3-.6-.7-.4-.7-.4-1.2-.6-1.1-.6-1-.4-.5-.1zm-11.1-21.8-.4-.2-1-.5a6.7 6.7 0 0 1-2-2.1c-.6-.9-.9-1.9-1-2.8a2 2 0 0 1 0-1.1l.1-.5.4.2 1 .5c.7.5 1.5 1.2 2 2.1.6.9.9 1.9 1 2.8v1.1l-.1.5zm-5.4-1.6H457.6c-.6-.1-1.1-.2-1.6-.6-.4-.3-.7-.8-.9-1.4l-.2-.7v-.4l.3-.1.8-.2c.6-.1 1.3.1 1.8.5a3 3 0 0 1 1 1.7V395.1zm-9.3 115.7-.4-.2-1-.6a6.7 6.7 0 0 1-1.9-2.4 5.6 5.6 0 0 1-.4-4.1l.1-.4.4.2.8.7a7.7 7.7 0 0 1 2.4 5.2v1.6z"/>
        <path d="m445.5 509.5-.3-.2a3 3 0 0 1-.7-.5 5 5 0 0 1-1.4-1.5c-.4-.6-.7-1.2-.9-1.9l-.2-.9-.1-.4.4-.1 1 .1 1.2.5 1 1c.3.4.5.8.6 1.3l.1 1.3-.3.9-.4.4zm22.9 9.6-.1.4-.2 1.2-.8 3.4-.8 3.4-.2 1.6-.2-1.6-.2-3.5-.2-3.4-.1-.6-.1-.4-.1-.4 3-.1zm15.6 1.2v.5c0 .3 0 .7-.2 1.2s-.4 1-.8 1.4c-.4.5-.9.9-1.5 1.2l-.9.4-.9.2a4 4 0 0 1-2.7-.6l-.4-.3.4-.3.9-.6 2.3-1.3 2.4-1.1 1-.4c.2-.3.4-.3.4-.3zm-9.8 22.3-.2.4c-.1.3-.4.6-.7.9-.3.3-.8.6-1.5.8-.6.2-1.5.2-2.3-.3a3 3 0 0 1-1-.9c-.3-.4-.3-.7-.4-1l-.1-.6v-.2c.1 0 0-.1 0-.1l-.3-.6-.4-.1s-.1-.2.2-.5c.3-.3.8-.4 1.5-.2l.5.3.4.3.6.7.3.4.2.1.6.2 1.1.2 1 .1.5.1z"/>
      </g>
    </g>
    <g>
      <path d="M538.9 489.1c-2-5.5-4.3-11-4.5-16.8-.2-6.9 2.7-13.4 4.9-20a77.2 77.2 0 0 0 3.7-26.6c0-13.5-6.9-23.8-7.8-35a99 99 0 0 0-2.9-19.3c-.9-4.8-1.4-9.2-.8-14.1.6-4.7 5.1-9 6.7-13.4a41.5 41.5 0 0 0 .9-26.2 60.8 60.8 0 0 0-9.6-23.6 43.6 43.6 0 0 1-4.7-10c-1.8-4.9-5.8-8.1-10.9-7.9-5.2-.2-9.2 3-10.9 7.9a43.6 43.6 0 0 1-4.7 10 60.8 60.8 0 0 0-9.6 23.6c-2 8.9-2.8 16.1.9 26.2 1.6 4.4 6.1 8.7 6.7 13.4.6 4.9-1.2 6.7-1.2 13 0 6 .3 6.7 1.2 12.5 1 6.1-.8 12.3-.9 18.5-.1 8.3-1.2 16.6-2.8 24.7-2.5 12-6.5 23.8-7.4 36-2.3 30.3 14.4 59.9 11.1 90.2-1.5 13.2-6.7 25.9-6.2 39.1.6 14.9 8.5 28.5 11.6 43.1 4.2 19.8-.4 40.3-1.8 60.5a65.9 65.9 0 0 0 20.2 49.7c1.5 1.5 5.3 5.1 7.2 2.8 1.7-2-1.6-6.9-2.3-8.7a81.4 81.4 0 0 1-1-56.3c4.8-13 14.1-25.5 13.3-39.4-.5-8-.3-13.3-3.2-20.8-2.8-7.5-6.5-14.8-7.5-22.7-2.6-20.7 19.4-39.7 19.6-60.5a138 138 0 0 0-7.3-49.9z"/>
      <g stroke="none" fill="#000">
        <path d="m513.4 417.8.1.7.3 2.1c.2 1.9.3 4.7-.1 8.2-.4 3.5-1.4 7.7-2.7 12.4a135.5 135.5 0 0 0-3.6 15.9c-.8 5.9-.9 12.4-.4 19.2.5 6.8 1.6 14 3 21.3 1.3 7.4 3 15 4.3 22.8 1.3 7.8 2.3 15.9 2.4 24a70.3 70.3 0 0 1-3.3 24.1c-1.2 3.9-2.5 7.5-3.5 11.2l-.6 2.7-.1.7-.1.7-.2 1.4-.2 2.7-.1 2.7c.1 7.3 1.8 14.4 3.6 21s3.8 12.9 4.9 18.9c1.1 6 1.4 11.6.9 16.5-.6 4.9-1.7 9-2.5 12.5-.8 3.4-1.3 6.1-1.6 8l-.2 2.1-.1.7v-.7l.1-2.1c.1-1.9.5-4.6 1.2-8.1.6-3.5 1.6-7.6 2-12.4a62 62 0 0 0-1.4-16.1c-1.2-5.8-3.3-12-5.3-18.6-2-6.6-3.9-13.8-4.1-21.5v-2.9l.2-3 .2-1.4.1-.8.1-.7.6-2.9c.9-3.8 2.3-7.6 3.4-11.3a72.1 72.1 0 0 0 3.1-23.2c0-7.9-1-15.8-2.2-23.6l-4-22.8c-1.3-7.4-2.2-14.7-2.6-21.7a96 96 0 0 1 .9-19.6c.9-6 2.8-11.3 4.2-16 1.5-4.6 2.6-8.7 3.2-12.2.6-3.4.7-6.2.5-8.1l-.2-2.1-.2-.7zm.6-33.1.1 1 .1 2.5.1 3.5.2 3.9.2 3.9.2 3.4.1 2.5v1l-.4-.9-.8-2.4-.8-3.4-.3-2-.2-2.1v-2.1l.1-2a29.4 29.4 0 0 1 1.4-6.8zm8.5-92.1.1.7.4 1.6a27.3 27.3 0 0 0 1.2 3.4l.5 1.2 2.1 4.6c.6 1.3.8 2.3.8 2.3s-.8-.6-1.7-1.7c-1-1.1-2.1-2.6-2.9-4.4l-.5-1.4-.4-1.4c-.2-.9-.2-1.8-.2-2.5l.1-1 .2-.7.3-.7zm2.3 26.5-.1.8-.4 2-.4 2.7v2.1l.1.7.7 3 .6 2.8.5 1.9.2.8s-.3-.1-.6-.5a15.8 15.8 0 0 1-2.6-4.3 16 16 0 0 1-1-3.3l-.1-.9v-.9l.3-1.8a9 9 0 0 1 1.2-2.8c.4-.8.9-1.3 1.2-1.7l.4-.6zm8.2 2.1.4.6.4.8.4 1 .7 2.8.1 1.6-.1 1.7a47.8 47.8 0 0 1-.8 3.1c-.4 1-.8 1.9-1.3 2.5l-.7.9-.6.7-.6.5.2-.7.6-1.8.3-1.2.3-1.3a25 25 0 0 0 .7-5.9v-2.7l-.1-1.9.1-.7zm4.5 8.1.2.4.4 1.2c.2 1 .2 2.4-.1 3.7a7.2 7.2 0 0 1-2.9 4l-.4.2.1-.5.3-1.1.9-3.2.9-3.2.3-1.1.3-.4zm-17.3 14.3v.8l-.1 2-.5 5.8-.2 3.1c-.1 1-.2 1.9-.1 2.7 0 .8.1 1.4.3 1.8l.3.7-.2-.1-.4-.4c-.4-.4-.8-1-1-1.8a17 17 0 0 1-.5-6.1 30.6 30.6 0 0 1 1.3-5.9l.8-1.8c.1-.6.3-.8.3-.8zm-2.4-63.6v.4l.1.8.6 2.1c.3.7.6 1.4 1 1.9l.5.7.2.3-.4.1h-.4l-.6-.1c-.4-.1-.8-.4-1.2-.8a4.2 4.2 0 0 1-1.2-3.1c0-.5.2-1 .4-1.4l.3-.5.3-.3.4-.1zm-.7 29v-.6c0-.3.2-.5.3-.6.2-.1.4 0 .6.2l.4.4v.6c0 .3-.2.5-.3.6-.2.1-.4 0-.6-.2l-.4-.4zm2.6 1 .4-.4c.2-.2.5-.2.6-.2.2.1.3.3.3.6v.6l-.4.4c-.2.2-.5.2-.6.2-.2-.1-.3-.3-.3-.6v-.6zm-.1-15.5s.4.4.6 1c.3.6.5 1.4.6 2.2.1.8 0 1.7-.2 2.3l-.4 1.1s-.4-.4-.6-1a7 7 0 0 1-.6-2.2c-.1-.8 0-1.7.2-2.3l.4-1.1z"/>
      </g>
      <ellipse transform="matrix(0.9716 -0.2365 0.2365 0.9716 -62.1753 134.0932)" fill="#F6F6F6" cx="528" cy="326.3" rx="3.9" ry="4.8"/>
      <ellipse transform="matrix(0.9716 -0.2365 0.2365 0.9716 -61.736 134.0636)" stroke="none" fill="#000" cx="528.1" cy="324.4" rx="2.2" ry="2.8"/>
      <g stroke="none" fill="#000">
        <path d="m505 292.6.2.6.2.7.1 1c.1.7 0 1.6-.2 2.5l-.4 1.4-.5 1.4c-.8 1.8-1.9 3.4-2.9 4.4l-1.7 1.7.8-2.3 2.1-4.6.5-1.2.5-1.2.7-2.2.4-1.6.2-.6zm-2.3 26.5.6.6 1.2 1.7c.5.8.9 1.7 1.2 2.8l.3 1.8v.9l-.1.9a21 21 0 0 1-2.3 5.9l-1.3 1.7-.6.5.2-.8.5-1.9.6-2.8.7-3 .1-.7V324.6l-.4-2.7-.4-2c-.3-.5-.3-.8-.3-.8zm-8.1 2.1-.1.8-.1 1.9v2.7l.2 3 .5 2.9.3 1.3.3 1.2.6 1.8.2.7-.6-.5-.6-.7-.7-.9c-.5-.7-.9-1.6-1.3-2.5l-.5-1.5-.3-1.6-.1-1.7.1-1.6c.1-1 .4-2 .7-2.8l.4-1 .4-.8.6-.7zm-4.5 8.1.2.4.3 1.1.9 3.2.9 3.2.3 1.1.1.5-.4-.2-1-.8a8.2 8.2 0 0 1-1.9-3.2 6.7 6.7 0 0 1-.1-3.7l.4-1.2.3-.4zm17.3 14.3.4.7.8 1.8.8 2.7.5 3.2a17 17 0 0 1-.5 6.1c-.3.8-.7 1.5-1 1.8l-.4.4-.2.1.3-.7.3-1.8-.1-2.7-.2-3.1-.5-5.8-.1-2-.1-.7zm2.4-63.6.3.2.3.3c.1.1.3.3.3.5.2.4.4.9.4 1.4l-.3 1.7c-.2.5-.5 1-.9 1.4-.4.4-.8.6-1.2.8l-.6.1h-.4l-.4-.1.2-.3.5-.7c.4-.5.7-1.2 1-1.9l.6-2.1.1-.8.1-.5zm.7 29-.4.4c-.2.2-.4.3-.6.2-.2-.1-.3-.3-.3-.6v-.6l.4-.4c.2-.2.4-.3.6-.2.2.1.3.3.3.6v.6zm-2.6 1v.6c0 .3-.1.5-.3.6-.2.1-.4 0-.6-.2l-.4-.4v-.6c0-.3.1-.5.3-.6.2-.1.4 0 .6.2l.4.4zm0-15.5s.3.4.4 1.1c.2.6.3 1.5.2 2.3a7 7 0 0 1-.6 2.2l-.6 1s-.3-.4-.4-1.1c-.2-.6-.3-1.5-.2-2.3a7 7 0 0 1 .6-2.2l.6-1z"/>
      </g>
      <ellipse transform="matrix(-0.9716 -0.2365 0.2365 -0.9716 907.8552 761.413)" fill="#F6F6F6" cx="499.6" cy="326.3" rx="3.9" ry="4.8"/>
      <ellipse transform="matrix(-0.9716 -0.2365 0.2365 -0.9716 908.1015 757.7495)" stroke="none" fill="#000" cx="499.5" cy="324.4" rx="2.2" ry="2.8"/>
    </g>
  </g>
</svg>
