<svg xmlns="http://www.w3.org/2000/svg" fill="#d7374a" stroke="#000" viewBox="50 50 200 200">
  <metadata source="http://wappenwiki.org/images/8/88/Sch%C3%B6nfeld.svg" license="https://creativecommons.org/licenses/by-nc-sa/3.0"/>
  <g id="log" stroke-width=".36">
    <path d="M65.13 82.44l11.73 11.22c-.32.07-2.65-1.21-3.33-1.18-.66.02-1.16 1.12-1.1 2.44.05 1.34.62 2.39 1.3 2.36 1.13-.1 2.27.9 4.45 1.7 2.28.82 4.82 1.58 6.28 2.96 1.35.88 2.45 2.4 3.33 2.16l.99.96 1.26 1.2c.41.47-1.14.5-1.14.5l-1.85.2c-.64.07-1.08 1.09-.95 2.27.1 1.2.72 2.1 1.36 2.04.65-.06 2-.33 2.33-.39.32-.05 1.2.47 1.92.49.74.01 1.7-.53 1.92-.36.22.15 1.56.12 1.89.5.79.8 2.13 2.66 2.13 2.66s1.9 1.4 3.38 2.34c.9.84 1.73 1.67 2.54 2.49-.6.13-1 .74-1 .74s-1.3.63-1.96.8a.5.5 0 00-.1.04c-.6.3-.73 1.73-.32 3.32.44 1.69 1.33 2.91 2 2.74.67-.18 1.37-.42 1.37-.42s1.56.33 2.59-.07c.91.06 2.34.32 2.34.32s1.5.8 2.59.68c3.12 3.7 4.83 6.13 5.1 6.38 1.28 1.26 8.14-1.67 12.47-6 4.32-4.33 8.25-10.68 6.96-11.95-.33-.33-5.12-2.94-10.99-8.55-1.48-1.41-.1-6.2-1.8-7.8.14-.05-.04-.35-.04-.35s.21-1.38.14-2.07c-.06-.7-.01-.57-.14-1.53-.1-1.08-1.7-2.16-4.19-2.61-2.49-.45-4.66-.01-4.84.98-.18.99-.08 2.77-1.23 1.8-.17-.16-1.28-.94-1.95-1.57-1.64-1.56-2.43-4.59-4.05-6.12a11.6 11.6 0 00-2.97-2.08 37.35 37.35 0 01-1.91-1.08c-1.01-1.7-3.44-1.9-4.23-2.43-.69-.78-.88-3.1-.88-3.1s.01-2.43-.18-2.7c-.18-.27.36-.85.45-1.26.09-.42-.35-.66-.25-.87.11-.21.05-.98.17-1.82.12-.83-1.38-1.76-3.37-2.06-1.98-.3-3.7.15-3.83 1-.04.33-.04 1.02.04 1.68.13 1 .34 1.95.07 1.7a50.97 50.97 0 01-4.05-4.61 70.7 70.7 0 01-3.02-4c-.79-1.2-7.43 2.28-10.78 5.64-3.36 3.35-8.15 8.48-7.36 9.68.08.51-.2.72.71 1z"/>
    <path d="M122.77 95.28c-.09-1.08-1.7-2.16-4.19-2.61-2.48-.45-4.65-.01-4.83.98-.18.99 1.6 2.33 3.93 2.7 2.33.38 5.05.16 5.1-1.07zM96.72 72.42c.12-.83-1.38-1.76-3.37-2.06-1.98-.3-3.7.15-3.83 1-.04.33.4 1.9 3 2.1 2.6.22 4.07-.2 4.2-1.04zm-14.16-6.28c-.78-1.2-7.43 2.27-10.78 5.63-3.36 3.35-8.15 8.48-7.37 9.68.04.2.25 1.23 1.47 1.03 1.95-.33 5.65-2.42 9.1-5.87 5.2-5.2 7.97-9.86 7.57-10.47z"/>
    <path fill="#000" stroke="none" d="M91.52 84.63a47.92 47.92 0 01-3.49-2.93c.12.11-.53-.13-.68-.2a7.09 7.09 0 01-3.09-2.7c.34-.3.32.5.67.57a7.52 7.52 0 003.3 2c.76.63 1.46 1.36 2.17 2.06l1.13 1.18v.02zm-8.16 8.03c-.3.3-.97.41-1-.15-.48-.06-.76-.58-.97-.99-.5-1.12-.71-2.35-1.2-3.48-.57-.99-1.7-1.44-2.64-1.99a5.77 5.77 0 01-1.26-.91 43.9 43.9 0 01-1.67-4.72c.27.27.33.75.53 1.1.46 1.14.93 2.29 1.45 3.4 1.14 1 2.78 1.36 3.73 2.6.57.9.68 1.99.98 2.99.18.62.38 1.29.84 1.76.44.07.38.8.91.51l.3-.12zm36.56 33.48c1.47 1.17.95 3.18 1.84 4.53l.13.24c-.06.07-.1-.03-.15-.07-1.13-1.36-.84-2.8-1.82-4.67-.02-.03 0 0 0-.03zm-31.28-18.95c.8.08 1.59.13 2.38.18v.05c-.8.07-1.59.14-2.38.18zm27.1-9.43a6.9 6.9 0 01-.98-2.9c.12.03.34-.04.4.05-.07.98.4 2.14.58 2.85zm-18.72 8.45c-.14-.37-.34-.72-.51-1.07a8.09 8.09 0 00-2.26-4.63 21.2 21.2 0 00-2.61-2.41c-.45-.36-.89-.71-1.32-1.08.35.04.79.47 1.17.66.6.4 1.18.83 1.74 1.29.56.48 1.1.97 1.57 1.54.6.73 1.12 1.55 1.48 2.43.25.7.43 1.45.39 2.2.07.05.25.58.3.77l.04.19.02.11zm18.25 15.3c-1.31-1.85-3.26-3.1-4.94-4.6-1.35-1.12-2.3-2.6-3.28-4.04a7.7 7.7 0 00-2.66-2.51c-1.95-.6-2.62-2.72-2.01-4.27.03.32-.17.85-.08 1.25.23 1.3.48 2.07 1.61 2.45a7.28 7.28 0 013.5 2.9c.96 1.37 1.86 2.8 3.12 3.92 1.58 1.45 3.36 2.76 4.55 4.57.06.1.17.23.19.33zm-1.16-9.98c1.55.45 3.12.87 4.53 1.71 1.04.95 1.6 2.31 2.64 3.26.7.62 1.68.71 2.55.98.81.23 1.68.45 2.33 1.02.22.1.27.64.25.45.16-.03.42-.04.43.18-.04.15.05.44-.09.49-.04-.15.04-.38-.06-.53-.16-.08-.4.17-.41-.11-.41-.7-1.33-.83-2.04-1.06-.86-.21-1.77-.34-2.59-.7-1.69-.8-2.12-2.98-3.38-3.76-1.15-.7-2.7-1.28-4.15-1.91v-.02zM95.64 89.45c1.44.83 2.95 1.52 4.36 2.4.48.3.9.7 1.27 1.14.4-.08 1.5.86 1.81 1.53.42.6.79 1.33 1.3 1.8 1.02.65 2.43.38 3.36 1.25.65.73 1.12 1.6 1.69 2.4 1.53 2.21 3 4.56 5.07 6.34-.22 0-.47-.32-.68-.46-2.25-1.97-3.86-4.51-5.57-6.93-.41-.62-.84-1.34-1.63-1.51-.88-.3-1.96-.26-2.67-.94-.86-.95-1.24-2.3-2.33-3.04-.42-.1-.72-.3-.96-.66-.99-1.02-2.32-1.6-3.5-2.35-.5-.32-1.05-.63-1.52-.97z" transform="matrix(.9 0 0 .9 10 10)"/>
  </g>
</svg>
