<svg xmlns="http://www.w3.org/2000/svg" fill="#d7374a" stroke="#000" viewBox="50 50 200 200">
  <metadata source="http://wappenwiki.org" license="https://creativecommons.org/licenses/by-nc-sa/3.0"/>
  <g id="lute" stroke-width=".38">
    <path d="M115.79 93.4c-2.87-2.92-3.5-6.72-9.55-9.66-6.05-2.93-17.42-.92-19.45-2.97-3.99-4.01-9.45-9.44-9.45-9.44l-2.75 3.28-3.51 2.72s5.47 5.43 9.45 9.44c2.02 2.05.14 13.4 3.02 19.47 2.89 6.08 6.3 6.25 9.6 9.6 7.23 7.32 3.92 9.97 12.14 18.27 8.64 8.7 20.43 7.05 28-.47 7.58-7.5 9.33-19.28.69-28-8.25-8.28-10.96-4.93-18.19-12.25z"/>
    <path d="M71.27 77.9L78 71.21c1.02-2.84 1.22-6.58-.73-8.53-4.12-4.13-8.55-2.65-12.82 1.58-4.26 4.22-5.78 8.65-1.67 12.79 1.97 1.97 5.67 1.82 8.49.83z"/>
    <path fill="#333" d="M98.18 112.1c.8 2.12 2.78 3.68 4.39 4.69 3.35 2.03 6.77 5.99 7.13 9.78a22.38 22.38 0 00-5.22-6.41c-2.7-2.08-6.24-5.25-6.3-8.05zm13.95-13.84c3.62 0 6.21 4 8.01 6.35a18.7 18.7 0 006.19 5.17c-7.4-.04-10.33-10.2-14.2-11.52zm1.9 11.92c-3.8-4.19-5.03-8.84-5.03-8.84l-3.9 3.87-3.9 3.86s4.64 1.25 8.8 5.09c4.17 3.83 7.29 10.28 7.29 10.28s2.96-.97 4.45-2.45c1.49-1.47 2.49-4.43 2.49-4.43s-6.4-3.19-10.2-7.38zm-20.83-8.5l8.42-8.35 1 1-8.42 8.36z"/>
    <path d="M68.42 72.14c.1 0 .2.02.28.1l37.5 37.67 26 24.8c.14.12.14.33.02.46a.32.32 0 01-.47.01l-26.01-24.8-37.5-37.67a.33.33 0 010-.47.28.28 0 01.18-.1zm-1.4-4.24c.1 0 .2.02.28.1l65.63 66c.12.13.12.34 0 .47a.33.33 0 01-.46 0L66.85 68.46a.33.33 0 010-.47c.04-.05.1-.07.17-.08zm5.57.1c.1 0 .21.02.29.1l37.5 37.67 24.6 26.21c.12.14.11.34-.01.46a.33.33 0 01-.47 0l-24.58-26.22-37.5-37.66a.33.33 0 010-.47c.03-.05.1-.07.17-.08zm-4.24-1.42c.1-.01.22.01.29.09l65.63 66.01c.12.13.12.34 0 .46a.33.33 0 01-.47 0l-65.61-66a.33.33 0 010-.47c.04-.05.1-.08.16-.09z"/>
    <g fill="#333" stroke-width="3" transform="matrix(.125 0 0 .125 128.35 16.08)">
      <circle cx="-487.6" cy="459.6" r="12"/>
      <circle cx="-500.6" cy="423.8" r="12"/>
      <circle cx="-437.2" cy="409.6" r="12"/>
      <circle cx="-472.9" cy="396.3" r="12"/>
    </g>
  </g>
</svg>
