<svg xmlns="http://www.w3.org/2000/svg" fill="#d7374a" stroke="#000" viewBox="50 50 200 200">
  <metadata source="http://wappenwiki.org/images/4/4f/Arran.svg" license="https://creativecommons.org/licenses/by-nc-sa/3.0"/>
  <g id="lymphad" stroke-width="3" transform="matrix(.1 0 0 .1 19 102)">
    <path stroke-width="2.5" d="M718.7-251.9l-3.1-3.9c63.9-50.9 83.7-83 89.8-97.7l4.6 1.9c-14.6 35.2-63.5 77.6-91.3 99.7z"/>
    <path stroke-width="2.5" d="M535.2-192.8l-2.3-4.4c6.4-3.3 16.8-7.9 29.9-13.8C622-237.3 732-286.3 805-358.2l3.5 3.6C734.9-282 624.3-232.8 564.9-206.3c-13.1 5.7-23.4 10.3-29.7 13.5z"/>
    <path stroke-width="2.5" d="M923.7-319l-1.9-.2c-23.6-1.9-78.9-6.5-111.4-31.3l3-4c31.4 23.9 87.6 28.5 108.8 30.3l1.9.2z"/>
    <path stroke-width="2.5" d="M902.8-344.8c-40.7 0-70.4-4.2-91.4-9.2l1.2-4.9c43.5 10.4 124.7 17.1 264.2-10.1 1.9-.4 3.3-.7 4.5-.9l.9 4.9c-1.1.2-2.6.5-4.4.9-73.4 14.3-130.7 19.3-175 19.3z"/>
    <rect width="5" height="507.5" x="847" y="-323.8" stroke-width="2.5" transform="rotate(-8.467 849.738 -69.929)"/>
    <polygon stroke-width="2.5" points="913.7 181.4 812.4 -330 817.3 -330.9 918.6 180.5"/>
    <rect width="507.5" height="5" x="517.9" y="-72.5" stroke-width="2.5" transform="rotate(-81.576 771.656 -70.016)"/>
    <polygon stroke-width="2.5" points="708.4 181.4 703.5 180.5 803.8 -330.9 808.7 -330"/>
    <path fill="#d7374a" d="M806.8-403.1c-2.5 4.7-26.1 14.3-58.3 8.4-15.7-2.9-29-10.3-55-12.2-54.6-3.8-76.6 18.9-81 29.1 18.4-7.1 47.7-8.9 69.5-3.7 14.6 3.5 31.1 11.8 44.2 16.9 29.4 11.4 55.9 11.8 80.5 3z"/>
    <path d="M796.1 200.3l9.5-607.7h10.1l9.5 607.7s.9 7.3-14.6 7.3c-15.6.1-14.5-7.3-14.5-7.3z"/>
    <path d="M723.9-242.8c18.7 23.9 44.1 47.8 78.1 54.7 29.8 6 66-7.5 88.3-32.8 19.3-21.8 34.9-62.6 34.9-85.2"/>
    <path d="M540.3-183.4c16.2 20.7 41.3 34.1 67.4 36 26.1 1.9 57.3-7.7 76.3-25.7 18.2-17.3 30.1-45.4 30.1-65"/>
    <path d="M941.1-309.8a82.4 82.4 0 0058 31c22.5 1.7 49.3-6.6 65.7-22.1 15.7-14.9 25.9-39.1 25.9-55.9"/>
    <path d="M539.7-182.6c-4.6 1.5-5.6-.1-7.1-3.6-1.6-3.4-3.1-7.4 1.5-8.8 4.6-1.5 542-171.6 546.6-173 4.6-1.5 4.9.8 6.5 4.2 1.6 3.4 3.7 6.7-.8 8.2-4.8 1.4-542.2 171.5-546.7 173z"/>
    <path d="M931.5-320.8l4.1 13.6s.6 3.6-4.7 5.2-6.8-2.1-6.8-2.1l-4.5-13.6s-.1-3.7 4.8-5.3c4.8-1.4 7.1 2.2 7.1 2.2z"/>
    <path d="M1090.6-371.4l4.1 13.6s.6 3.6-4.7 5.2c-5.3 1.5-6.8-2.1-6.8-2.1l-4.5-13.6s-.1-3.7 4.8-5.3c4.8-1.4 7.1 2.2 7.1 2.2z"/>
    <path d="M539.2-196.9l4.1 13.6s.6 3.6-4.7 5.2-6.8-2.1-6.8-2.1l-4.5-13.6s-.1-3.7 4.8-5.3c4.8-1.4 7.1 2.2 7.1 2.2z"/>
    <path d="M720.7-254l4.1 13.6s.6 3.6-4.7 5.2-6.8-2.1-6.8-2.1l-4.5-13.6s-.1-3.7 4.8-5.3c4.8-1.5 7.1 2.2 7.1 2.2z"/>
    <path fill="#d7374a" d="M593.8-82.2c-1.5 4.7-15.3 14.3-34.1 8.4-9.2-2.9-17-10.3-32.2-12.2-31.9-3.8-44.8 18.9-47.4 29.1 10.8-7.1 27.9-8.9 40.7-3.7 8.6 3.5 18.2 11.8 25.8 16.9 17.2 11.4 32.7 11.8 47.1 3z"/>
    <polygon stroke-width="2.5" points="640.4 37.7 643.9 34.9 600.2 -36.5 596.7 -33.6"/>
    <polygon stroke-width="2.5" points="557.2 37.7 553.7 34.9 597.4 -36.5 600.9 -33.6"/>
    <rect width="9" height="138.3" x="593.7" y="-98.6"/>
    <ellipse cx="598.2" cy="-98" rx="9.4" ry="8.6"/>
    <path fill="#d7374a" d="M1040.8-84.2c-1.5 4.7-15.3 14.3-34.1 8.4-9.2-2.9-17-10.3-32.2-12.2-31.9-3.8-44.8 18.9-47.4 29.1 10.8-7.1 27.9-8.9 40.7-3.7 8.6 3.5 18.2 11.8 25.8 16.9 17.2 11.4 32.7 11.8 47.1 3z"/>
    <polygon stroke-width="2.5" points="1087.4 35.7 1090.9 32.9 1047.2 -38.5 1043.7 -35.6"/>
    <polygon stroke-width="2.5" points="1004.2 35.7 1000.7 32.9 1044.4 -38.5 1047.9 -35.6"/>
    <rect width="9" height="138.3" x="1040.7" y="-100.6"/>
    <ellipse cx="1045.2" cy="-100" rx="9.4" ry="8.6"/>
    <ellipse cx="810.6" cy="-411.2" rx="9.4" ry="8.6"/>
    <path d="M1086.1 96c0 11.9-12.9 14.8-20.2 25.6-4.7 6.9-8.8 15.4-10.7 21.4-19.4 58.9-58.9 115.2-113.3 162.7-32.3 28.2-86.8 51.1-131.2 51.1-44.5 0-99.6-22.2-131.2-51.1-28.4-26-50.5-56.1-73.9-103.7-15.6-31.6-26-69.9-50.4-85.9l132.3 1.2c10.5 22.1 44.8 73.4 123.3 73.4s118.5-63 129.6-89.7"/>
    <path fill="none" d="M952.9 101.1c-11.9 35.8-57.8 107.7-142.3 107.7-84.4 0-124.3-65.5-134.1-91.4"/>
    <path fill="none" d="M974.9 100.8c-19.8 77.7-95.2 139-164.3 139-69.1 0-131.5-46.1-157.7-123.7"/>
    <path fill="none" d="M1002.6 99.1c-23.4 104.8-112.6 178.7-192 178.7s-153.4-62.4-184.2-162.2"/>
    <path fill="none" d="M1034.1 98.3c-23 115.1-120.8 219.5-223.6 219.5-94.3 0-176.9-79.5-214.6-206"/>
    <polygon points="695.1 121.9 695.1 49 534.2 32 529.8 104"/>
    <path d="M693.4 64.3h-.8L531.9 47.7c-4.4-.5-7.6-4.4-7.1-8.8s4.4-7.6 8.8-7.1l160.6 16.6a7.98 7.98 0 01-.8 15.9z"/>
    <path d="M700.4 57.3h-.8L515.5 38c-4.4-.5-6.6-4.4-6.1-8.8s3.4-7.6 7.8-7.1l184 19.3c4.4.5 6.6 4.4 6.1 8.8-.4 4.1-2.9 7.1-6.9 7.1z"/>
    <path d="M582.3 102.6c1.6-20.8 2.4-38.1 13.6-37.2 11.2.9 9.4 17.7 7.7 38.9z"/>
    <path d="M542.3 98.6c1.6-20.8 2.4-38.1 13.6-37.2 11.2.9 9.4 17.7 7.7 38.9z"/>
    <path d="M661.3 109.6c1.6-20.8 2.4-38.1 13.6-37.2 11.2.9 9.4 17.7 7.7 38.9z"/>
    <path d="M622.3 106.6c1.6-20.8 2.4-38.1 13.6-37.2 11.2.9 9.4 17.7 7.7 38.9z"/>
    <polygon points="927.1 104 931.9 31.3 1093.6 24.9 1093.2 97.1"/>
    <path d="M1040.9 92.2c-.2-20.9.1-38.2-11.1-38-11.2.1-10.5 17-10.3 38.3z"/>
    <path d="M1081.1 90.9c-.2-20.9.1-38.2-11.1-38-11.2.1-10.5 17-10.3 38.3z"/>
    <path d="M961.6 94c-.2-20.9.1-38.2-11.1-38-11.2.1-10.5 17-10.3 38.3z"/>
    <path d="M1000.7 93.6c-.2-20.9.1-38.2-11.1-38-11.2.1-10.5 17-10.3 38.3z"/>
    <path d="M921.3 111.1h3.7l173.7-4.6c4.1-.3 6.9-3.6 6.8-8.3-.1-4.4-2.8-7.8-7.2-7.7l-176.7 4.6c-4.4.1-6.9 3.9-6.8 8.3.2 4.1 2.4 7.4 6.5 7.7z"/>
    <path d="M932.5 46.7h.8l161.4-6c4.4-.2 7.9-3.9 7.7-8.3-.2-4.4-3.9-7.9-8.3-7.7l-161.4 6c-4.4.2-7.9 3.9-7.7 8.3.2 4.1 3.5 7.4 7.5 7.7z"/>
    <path d="M926.1 39.2h.8l179.9-7.1c4.4-.2 6.9-4 6.7-8.4-.2-4.4-2.9-7.8-7.3-7.6l-179.9 7.1c-4.4.2-6.9 4-6.7 8.4.2 4.2 2.4 7.4 6.5 7.6z"/>
    <path d="M700.4 129.3h-.7l-176-16.3c-4.4-.4-6.6-4.3-6.2-8.7.4-4.4 3.3-7.6 7.7-7.2l176 16.3c4.4.4 6.6 4.3 6.2 8.7-.4 4.1-2.9 7.2-7 7.2z"/>
    <circle cx="810" cy="259.7" r="18.2"/>
    <path d="M835.7 349.4c-1.1-8.4-1.4-7.4-9.3-8.8L815 259.1a4.9 4.9 0 00-5.4-4.2 4.9 4.9 0 00-4.2 5.4l11.4 81.8c-6.9 3.7-6.6 4.4-5.5 12.7l6.3 54.1 26.2-5z"/>
    <line x1="816.8" x2="821.4" y1="342.1" y2="376.5" fill="#f2bc51"/>
    <circle cx="740.8" cy="243.9" r="18.2"/>
    <circle cx="690.8" cy="203.9" r="16.4"/>
    <path d="M766.4 333.7c-1.1-8.4-1.4-7.4-9.3-8.8l-11.4-81.6a4.9 4.9 0 00-5.4-4.2 4.9 4.9 0 00-4.2 5.4l11.4 81.8c-6.9 3.7-6.6 4.4-5.5 12.7l6.3 54.1 26.2-5z"/>
    <line x1="747.6" x2="752.2" y1="326.4" y2="360.8" fill="#f2bc51"/>
    <circle cx="872.7" cy="247.2" r="18.2"/>
    <circle cx="924.7" cy="208.2" r="16.4"/>
    <path d="M898.4 337c-1.1-8.4-1.4-7.4-9.3-8.8l-11.4-81.6a4.9 4.9 0 00-5.4-4.2 4.9 4.9 0 00-4.2 5.4l11.4 81.8c-6.9 3.7-6.6 4.4-5.5 12.7l6.3 54.1 26.2-5z"/>
    <line x1="879.5" x2="884.1" y1="329.7" y2="364" fill="#f2bc51"/>
    <g fill="#000" stroke="none">
      <path d="M758.8-223.8c6.2 3.1 12.7 5.6 19.4 7.3 6.7 1.8 13.5 3 20.3 3.7 6.9.6 13.7.8 20.6.4 6.8-.4 13.7-1.2 20.3-2.8 6.7-1.5 13.1-3.9 19.2-6.9 6.2-3 12-6.6 17.4-10.8a105.55 105.55 0 0026.9-31c-2.9 6.3-6.6 12.3-10.8 17.8-4.3 5.5-9.2 10.6-14.6 15a93.8 93.8 0 01-37.4 18.8c-13.8 3.1-28 3.5-41.9 1.7-13.8-1.8-27.5-5.9-39.4-13.2z"/>
      <path d="M815.7-227.1c7.1-2.8 13.9-6 20.5-9.7 1.6-1 3.2-1.9 4.9-2.9l4.7-3.1 4.6-3.2 4.5-3.4 4.3-3.6 4.2-3.8 4.1-3.9c1.3-1.4 2.6-2.7 3.9-4.1 5.1-5.5 9.8-11.5 14.1-17.8a92.9 92.9 0 01-12.3 19.3c-1.2 1.5-2.5 2.9-3.8 4.4l-4 4.2-4.2 3.9-4.4 3.7-4.6 3.5-4.8 3.2-4.9 3-5.1 2.7c-7 3.4-14.2 6-21.7 7.6z"/>
      <path d="M766.9-246.4c7.6.8 15.1 1.1 22.7.9l5.6-.3 5.6-.5 5.6-.7 5.5-1 5.5-1.2 5.5-1.4 5.4-1.6c1.8-.6 3.6-1.2 5.3-1.8 7.1-2.6 14-5.7 20.7-9.2-6.1 4.6-12.8 8.4-19.8 11.4l-5.4 2.1-5.5 1.8-5.6 1.5-5.6 1.3-5.7.9-5.7.6-5.8.3h-5.8c-7.5 0-15.2-1-22.5-3.1z"/>
      <path d="M584.8-173c5.3 2.3 10.9 3.7 16.6 4.4 5.7.8 11.4 1 17.1.8a121 121 0 0017-1.8c5.6-1 11.2-2.2 16.5-4.1 5.4-1.8 10.5-4.2 15.4-7.1 4.9-2.9 9.4-6.3 13.6-10.2 8.3-7.7 15.1-17.2 19.8-27.7-3.6 11-9.9 21.1-18.2 29.4-4.1 4.2-8.8 7.8-13.7 10.9-5 3.1-10.3 5.6-15.9 7.5-11.2 3.6-22.8 5.3-34.5 5.3-5.8 0-11.7-.6-17.4-1.7-5.7-1.1-11.3-2.9-16.3-5.7z"/>
      <path d="M613.7-178.5c6.5-1.2 12.8-2.7 19-4.6 1.5-.5 3.1-1.1 4.6-1.6l4.5-1.7c1.5-.7 3-1.3 4.5-1.9l4.4-2.1 4.3-2.2 4.2-2.4 4.1-2.6c1.3-.9 2.7-1.8 4-2.7 5.3-3.7 10.3-7.9 15.2-12.3-3.9 5.3-8.6 10-13.8 14.2-1.3 1-2.6 2-4 3l-4.1 2.8-4.3 2.6-4.4 2.3-4.5 2.1c-1.5.6-3.1 1.3-4.6 1.9l-4.7 1.6c-1.6.5-3.2.9-4.8 1.3-6.4 1.4-13 2.3-19.6 2.3z"/>
      <path d="M967.1-303.6c4.7 2.3 9.6 4 14.6 5.2 5 1.3 10.1 2.1 15.2 2.6 5.1.4 10.3.6 15.4.4 5.1-.2 10.2-.7 15.2-1.8l3.7-.9 3.6-1.1c2.4-.8 4.8-1.8 7.1-2.8 4.7-2.1 9.1-4.7 13.1-7.7 8.1-6.1 14.7-14.4 19.2-23.7-3.4 9.8-9.6 18.9-17.8 25.6a60.3 60.3 0 01-13.4 8.4c-2.4 1.2-4.9 2.1-7.3 3-1.3.4-2.5.8-3.8 1.2l-3.9.9a95.18 95.18 0 01-46.8-2.7 58.4 58.4 0 01-14.1-6.6z"/>
      <path d="M1003-300.8c5.7-1.5 11.1-3.4 16.4-5.7 2.6-1.2 5.2-2.4 7.8-3.7 2.5-1.3 5-2.8 7.4-4.3 2.4-1.5 4.7-3.2 6.9-5.1 2.2-1.8 4.3-3.8 6.2-5.9 3.8-4.2 7-9 9.2-14.5-.9 5.8-3.7 11.3-7.4 16-1.8 2.4-3.9 4.5-6.1 6.5-2.2 2-4.6 3.8-7.1 5.4-5 3.2-10.4 5.8-16 7.7-5.7 2-11.5 3.3-17.3 3.6z"/>
    </g>
  </g>
</svg>
