<svg xmlns="http://www.w3.org/2000/svg" fill="#d7374a" stroke="#000" viewBox="50 50 200 200">
  <metadata source="http://wappenwiki.org/images/4/4a/Jules_L%C3%A9ger%2C_Governor-General_of_Canada.svg" license="https://creativecommons.org/licenses/by-nc-sa/3.0"/>
  <g id="mapleLeaf" stroke-width="2" transform="translate(-93 -264) scale(0.47)">
    <path d="M333.4,795.5c6.8,3.5,23,13.1,28.7,18.1c8.6,7.4,15.5,17.3,15.5,17.3c-1.1,3.1-3.8,5.4-6.2,7.8c-2.4,2.4-3.3,4.6-3.2,7.9c10.9-2.8,25.5-6.7,39.8-7c-0.1,0.6-0.1,3.3-0.2,3.9c-0.4,4.4-0.7,9.6-0.9,14c2.6,1.8,6.8,1.8,8.3,0c-0.2-4.5-0.5-9.6-0.9-14.1c-0.1-0.6-0.1-3.3-0.2-3.9c14.3,0.2,28.9,4.2,39.8,7c0.1-3.3-0.9-5.5-3.2-7.9c-2.4-2.4-5-4.7-6.2-7.8c0,0,6.9-9.9,15.5-17.3c5.8-5,21.9-14.6,28.7-18.1c-3.7-4.6-9-8.1-14.1-11.1c1-7,4.5-14,8.2-20.1c-7.9-1.6-16.2,1.7-23.6,4.9c-0.4-4.9-1.6-11.9-3.5-16.4c-7.1,6.5-11.5,15.9-18.8,22.2c-2.6-8.2-1.9-17.1-0.1-25.6c2.1-10.2,6.3-21.8,11.9-30.6c0,0-7.6,2.8-9.4,3.6c-3.5,1.5-8,3.6-11.5,5.2c-3.5-10.9-7.9-19.6-16.8-36c-8.5,14.9-15,28.9-16.8,36c-3.5-1.6-8-3.6-11.5-5.2c-1.8-0.8-9.4-3.6-9.4-3.6c5.6,8.8,9.8,20.4,11.9,30.6c1.8,8.4,2.5,17.4-0.1,25.6c-7.3-6.3-11.7-15.7-18.8-22.2c-1.9,4.5-3.1,11.6-3.5,16.4c-7.4-3.2-15.7-6.6-23.6-4.9c3.6,6.1,7.2,13.1,8.2,20.1C342.5,787.5,337.2,791,333.4,795.5z"/>
    <g stroke="none" fill="#000">
      <path d="M411.2,751.9c0.5,5.8,0.7,11.7,0.7,17.5l0.2,17.5c0.1,5.8,0.1,11.7,0.1,17.5c0,5.8,0,11.7,0,17.5h-2.5c0-5.8,0-11.7,0-17.5c0-5.8,0-11.7,0.1-17.5l0.2-17.5c0.1-5.8,0.2-11.7,0.7-17.5H411.2z"/>
      <path d="M457.5,785.2c-3,4-6.4,7.6-10.1,11c-3.6,3.4-7.4,6.7-11.2,9.9c-3.8,3.2-7.8,6.2-11.8,9.1c-4.1,2.9-8.3,5.6-12.8,7.9l-1.1-2.2c4.3-2.3,8.4-4.9,12.5-7.7c4.1-2.8,8-5.8,11.9-8.8c3.9-3,7.7-6.2,11.4-9.5l11.1-9.9L457.5,785.2z"/>
      <path d="M411.5,820.8c2.3,0.7,4.6,1.6,6.7,2.7c2.2,1.1,4.2,2.3,6.2,3.7c2,1.4,3.9,2.8,5.7,4.4c1.8,1.5,3.5,3.2,5,5.1l-0.2,0.2c-2.2-1.1-4-2.5-5.9-3.9c-1.9-1.4-3.8-2.7-5.8-3.9c-2-1.2-4-2.3-6.1-3.3c-2.1-1-4.2-1.8-6.4-2.5L411.5,820.8z"/>
      <path d="M364.9,785l11.1,9.9c3.7,3.3,7.5,6.4,11.4,9.5c3.9,3,7.8,6,11.9,8.8c4.1,2.8,8.2,5.5,12.5,7.7l-1.1,2.2c-4.5-2.3-8.7-5-12.8-7.9c-4.1-2.9-8-5.9-11.8-9.1c-3.8-3.2-7.5-6.5-11.2-9.9c-3.6-3.4-7.1-7-10.1-11L364.9,785z"/>
      <path d="M411.5,823.2c-2.2,0.7-4.3,1.6-6.4,2.5c-2.1,0.9-4.1,2.1-6.1,3.3c-2,1.2-3.9,2.5-5.8,3.9c-1.9,1.4-3.8,2.8-5.9,3.9l-0.2-0.2c1.5-1.9,3.2-3.5,5-5.1c1.8-1.5,3.7-3,5.7-4.4c2-1.4,4.1-2.6,6.2-3.7c2.2-1.1,4.4-2,6.7-2.7L411.5,823.2z"/>
      <path d="M406.8,839.4c0.5-1.1,1.1-2.3,1.5-3.4c0.4-1.1,0.7-2.3,0.9-3.6c0.2,1.2,0.4,2.5,0.3,3.8c0,1.3-0.2,2.6-0.3,3.8L406.8,839.4z"/>
      <path d="M413.3,832.4c0.2,2.5,1,4.8,2.1,7l-2.4,0.7C412.7,837.5,412.7,834.8,413.3,832.4z"/>
    </g>
  </g>
</svg>
