<svg xmlns="http://www.w3.org/2000/svg" fill="#d7374a" stroke="#000" viewBox="50 50 200 200">
  <metadata source="http://wappenwiki.org/images/4/4a/Jules_L%C3%A9ger%2C_Governor-General_of_Canada.svg" license="https://creativecommons.org/licenses/by-nc-sa/3.0"/>
  <g id="mapleLeaf" stroke-width=".94">
    <path d="M63.498 109.885c3.196 1.645 10.81 6.157 13.489 8.507 4.042 3.478 7.285 8.131 7.285 8.131-.517 1.457-1.786 2.538-2.914 3.666-1.128 1.128-1.551 2.162-1.504 3.713 5.123-1.316 11.985-3.149 18.706-3.29-.047.282-.047 1.551-.094 1.833-.188 2.068-.329 4.512-.423 6.58 1.222.846 3.196.846 3.901 0-.094-2.115-.235-4.512-.423-6.627-.047-.282-.047-1.551-.094-1.833 6.721.094 13.583 1.974 18.706 3.29.047-1.551-.423-2.585-1.504-3.713-1.128-1.128-2.35-2.209-2.914-3.666 0 0 3.243-4.653 7.285-8.131 2.726-2.35 10.293-6.862 13.489-8.507-1.739-2.162-4.23-3.807-6.627-5.217.47-3.29 2.115-6.58 3.854-9.447-3.713-.752-7.614.799-11.092 2.303-.188-2.303-.752-5.593-1.645-7.708-3.337 3.055-5.405 7.473-8.836 10.434-1.222-3.854-.893-8.037-.047-12.032.987-4.794 2.961-10.246 5.593-14.382 0 0-3.572 1.316-4.418 1.692-1.645.705-3.76 1.692-5.405 2.444-1.645-5.123-3.713-9.212-7.896-16.92-3.995 7.003-7.05 13.583-7.896 16.92-1.645-.752-3.76-1.692-5.405-2.444-.846-.376-4.418-1.692-4.418-1.692 2.632 4.136 4.606 9.588 5.593 14.382.846 3.948 1.175 8.178-.047 12.032-3.431-2.961-5.499-7.379-8.836-10.434-.893 2.115-1.457 5.452-1.645 7.708-3.478-1.504-7.379-3.102-11.092-2.303 1.692 2.867 3.384 6.157 3.854 9.447-2.303 1.504-4.794 3.149-6.58 5.264z"/>
    <g stroke="none" fill="#000">
      <path d="M100.064 89.393c.235 2.726.329 5.499.329 8.225l.094 8.225c.047 2.726.047 5.499.047 8.225v8.225h-1.175v-8.225c0-2.726 0-5.499.047-8.225l.094-8.225c.047-2.726.094-5.499.329-8.225h.235z"/>
      <path d="M121.825 105.044c-1.41 1.88-3.008 3.572-4.747 5.17-1.692 1.598-3.478 3.149-5.264 4.653-1.786 1.504-3.666 2.914-5.546 4.277-1.927 1.363-3.901 2.632-6.016 3.713l-.517-1.034c2.021-1.081 3.948-2.303 5.875-3.619 1.927-1.316 3.76-2.726 5.593-4.136 1.833-1.41 3.619-2.914 5.358-4.465l5.217-4.653.047.094z"/>
      <path d="M100.205 121.776c1.081.329 2.162.752 3.149 1.269 1.034.517 1.974 1.081 2.914 1.739.94.658 1.833 1.316 2.679 2.068.846.705 1.645 1.504 2.35 2.397l-.094.094c-1.034-.517-1.88-1.175-2.773-1.833-.893-.658-1.786-1.269-2.726-1.833-.94-.564-1.88-1.081-2.867-1.551-.987-.47-1.974-.846-3.008-1.175l.376-1.175z"/>
      <path d="m78.303 104.95 5.217 4.653c1.739 1.551 3.525 3.008 5.358 4.465 1.833 1.41 3.666 2.82 5.593 4.136 1.927 1.316 3.854 2.585 5.875 3.619l-.517 1.034c-2.115-1.081-4.089-2.35-6.016-3.713-1.927-1.363-3.76-2.773-5.546-4.277-1.786-1.504-3.525-3.055-5.264-4.653-1.692-1.598-3.337-3.29-4.747-5.17l.047-.094z"/>
      <path d="M100.205 122.904c-1.034.329-2.021.752-3.008 1.175-.987.423-1.927.987-2.867 1.551s-1.833 1.175-2.726 1.833c-.893.658-1.786 1.316-2.773 1.833l-.094-.094c.705-.893 1.504-1.645 2.35-2.397.846-.705 1.739-1.41 2.679-2.068.94-.658 1.927-1.222 2.914-1.739 1.034-.517 2.068-.94 3.149-1.269l.376 1.175z"/>
      <path d="M97.996 130.518c.235-.517.517-1.081.705-1.598.188-.517.329-1.081.423-1.692.094.564.188 1.175.141 1.786 0 .611-.094 1.222-.141 1.786l-1.128-.282z"/>
      <path d="M101.051 127.228c.094 1.175.47 2.256.987 3.29l-1.128.329c-.141-1.222-.141-2.491.141-3.619z"/>
    </g>
  </g>
</svg>
