<svg xmlns="http://www.w3.org/2000/svg" fill="#d7374a" stroke="#000" viewBox="50 50 200 200">
  <metadata source="http://wappenwiki.org/images/5/58/Slavonia.svg" license="https://creativecommons.org/licenses/by-nc-sa/3.0"/>
  <g id="martenCourant" stroke-width="2.5" transform="translate(49.5 43) scale(0.12)">
    <g stroke-linejoin="round">
      <path class="secondary" d="M189 563.1s-6.1 9.8-1 16.3c.9-8.6 7.8-11.8 7.8-11.8s-.5-3.3-2.3-4.2c-2.5-1.6-4.6-.3-4.6-.3zm-.9-.6s-12.7 2.9-11.5 11.9c-2.4-2-2.8-4.8-2-9 1-5.9 7.3-9.5 7.3-9.5s2.8-.1 4.7 1.7c1 1 1.5 5 1.5 5zm-10.9-15.2s-9.8 2-11 8.2c-.8 4.9 2.2 10.6 2.7 10.2.6-.5-.5-4.5 1.7-8 2.7-4 8.9-2.3 8.9-2.3m-1.4-18.1s-10-1.6-13.2 3.8c-2.5 4.2-1.8 10.7-1 10.4.6-.2 1-4.3 4.2-6.7 4-2.9 9.2.9 9.2.9m-37.6-33.5s-9.5 6.4-7.6 14.4c4.4-7.4 12-7.4 12-7.4s1-3.3-.3-4.8c-1.6-2.5-4-2.2-4-2.2zm-.5-.9s-12.7-2.7-15.3 6c-1.4-2.7-.6-5.5 1.8-9 3.4-4.9 10.6-5.5 10.6-5.5s2.7 1 3.6 3.5c.5 1.3-.7 5-.7 5zm-3.5-18.3s-9.8-2.3-13.4 2.9c-2.8 4-2.5 10.5-1.8 10.3.7-.2 1.4-4.2 4.8-6.5 4.2-2.5 9 1.6 9 1.6m6.3-17s-8.4-5.7-13.6-2c-4 2.7-6 8.9-5.3 9 .7 0 2.8-3.5 6.8-4.4 4.8-1 7.9 4.6 7.9 4.6m563 51.6s11.4-1.9 13-10c-7.1 5-14 1.8-14 1.8s-2.3 2.6-1.7 4.5c.4 3 2.8 3.7 2.8 3.7zm.2 1s10.4 7.7 16.4.9c.1 3-1.7 5.3-5.4 7.4-5 3-12 .7-12 .7s-2-2-1.7-4.7c0-1.4 2.7-4.3 2.7-4.3zm-4.4 18.2s8 6.1 13.4 2.9c4.2-2.6 6.6-8.6 5.9-8.7-.7-.1-3 3.3-7 4-4.9.5-7.6-5.2-7.6-5.2M687 568.2s5.3 8.5 11.5 7.4c4.9-.8 9.2-5.6 8.6-6-.6-.3-4 2-8 1.2-4.7-1.2-5.2-7.5-5.2-7.5"/>
    </g>
    <path fill="#F6F6F6" stroke-width="2" stroke-linejoin="round" d="M101.5 448.8c1.2 3.8 6.2 9.3 10.9 9.2 2.1 0-3.6-4.4-1.8-10.5m8.5 26.5c-1.8-1.7-3.4-5.8-1.8-8.2.7-1.1 3.4 4 7.5 4.8"/>
    <path d="M143.3 483c-1.4-4.8-7.7-4.4-8.7-2.2-.1.5 1.5 1.6.9 5.2-.1.8-1.3 3.4-1.3 3.4s-3.6.1-4.8 2.4c0 1 1.8 1.9 2.6 3.2.8 1.3.7 3.5.4 4.5-2.3.8-2.2 1.4-2.8 2.3-.7.8-.7 2.5-.2 2.8 1.6-.7 3.6.1 4.9 2 2 3.2-1.2 3.8 2.9 7.1 2.4-1.7 7.1.3 5.3 5.5 1 2.3 3.5 3.2 6.2 3.4 1.8.3 4-1.2 6.5-1.5 2.4-.4 5 .6 5.7.7 6.1.8 12.6 4.2 20.3 3.2a21 21 0 0 1 11 1.2c3.6 1 6.8 3.2 9 3.9 5.5 1.5 6.9 0 8-.5 4-2 32.8-7.3 36.4-5.8 3.7 1.6 6.7-19.8 6.7-19.8l-5.6-28.9c-2 1.4-17.9 12.2-19.7 13.9a46.9 46.9 0 0 1-26 11.4c-4.8.5-5.8 2.3-13.2 2-7.4-.2-15.8-2.8-20.5-4.1-4.7-1.4-12.5-3.5-15-6.7-1-1.2-6.4-4.2-9-8.6"/>
    <g>
      <path class="secondary" d="M656.5 542s11.3-1.8 13-9.9c-7.2 5-14.1 1.8-14.1 1.8s-2.3 2.6-1.7 4.5c.4 3 2.8 3.7 2.8 3.7zm0 1s10.5 7.8 16.5 1c.1 3-1.7 5.3-5.4 7.4-5 3-12 .7-12 .7s-2-2-1.7-4.7c0-1.4 2.7-4.3 2.7-4.3zm-4.3 18.3s8 6.1 13.4 2.9c4.2-2.6 6.6-8.6 5.9-8.7-.7-.1-3 3.3-7 4-4.9.5-7.6-5.2-7.6-5.2M644 567.2s5.3 8.5 11.5 7.4c4.9-.8 9.2-5.6 8.6-6-.6-.3-4 2-8 1.2-4.7-1.2-5.2-7.5-5.2-7.5"/>
      <path d="M554 456.7c4 9.4 13 29.4 16.5 31 15.2 6.9 22.5-2.9 27.5-2.8 5.3.2 9.8 2 13.5 5.4 6 5.5 6.9 12 11.6 18.8 3 4.3 6.1 6.8 10 10.4 3.2 3.2 2.9 1.8 8 5.1.6.3 2.6 2.3 5 3 2.4.7 5 .3 6.5 1.3 2.4 1.3 4.3 3.2 4.3 5.7-3.8 4-.4 7.7 2.5 7.1 2.3 4.8-.8 4-.3 7.7.4 2.3 1.9 3.8 3.6 3.9.4.5-.4 2-1.3 2.5-1 .5-1 1-3.5 1a6 6 0 0 0-1.6 4.2c.2 1.5 1.6 3 1.2 4-2 1.6-5.4.2-5.4.2s-2.2 1.8-2.6 2.5c-2 3-1 4.7-1.4 5-1.8 1.7-7.7-.6-7-5.5-.5-5-4.2-10-4.6-11.6-1-4-5.4-8.2-9-11.4-3.8-3.2-4.9-3-9.3-5.8-1.2-.7-4.7-4.6-7-6.4-6-4.8-15.1-13-15.1-13-6.5-2.5-12.9 3.7-21.6 6.5-8.8 2.9-24.5 5-34 5-6.3 1-9.3-1-15.4-3.3-5.1-1.9-12.1-7.2-18.6-12.2-10.8-10.6-15.8-33.2-33.7-45.2"/>
      <g stroke="none" fill="#000">
        <path d="M595.4 495.4a11 11 0 0 0 1 1l.6.7 1.7 1.5 1 .7 1 .6a23.7 23.7 0 0 0 6 2c.4 0 .7.2.7.2v.3l-.7.1-1.7.3c-.7 0-1.6 0-2.5-.2l-1.3-.4c-.5-.1-1-.3-1.4-.6l-1.3-.8-1-1a8.2 8.2 0 0 1-1.4-2l-.4-1-.2-.7-.1-.6zm35.2 45.3c0-.2 0-.3-.2-.4 0-.2-.2-.3-.3-.4l-.6-.7-1.5-1.3-2.8-2.5a.7.7 0 0 1 .8-1.3 17.4 17.4 0 0 1 4.6 3.1l.6.8.2.5v.5h-.2c0-.1 0-.2-.2-.3l-.3-.3-.7-.5c-.4-.4-1-.6-1.5-.9l-1.5-.8-1.6-.7.8-1.3a25 25 0 0 1 3.9 4.6l.4.9.2.5v.5z"/>
      </g>
      <path fill="none" d="M660 543.4a6.9 6.9 0 0 1-4.3 2.8c-2 .2-3.4.1-5.6-2.3m9 12.8c-2 0-4.8-.3-5.7-2.4m-1.3 11c-1.9-.6-3-2.1-3-4.6"/>
      <g stroke="none" fill="#000">
        <path d="m650.5 556.7-.3.7-.1 1.4.2 2-2.5-.1s.4-1.2 1-2.3c.2-.5.6-1 1-1.4l.5-.4.2.1zm2-7.8a49.6 49.6 0 0 0 .2.8 13.6 13.6 0 0 0 1.8 4.1l-2.3 1-.1-1a17 17 0 0 1 .1-4.7l.1-.2h.3zM640 567v-.3l.4-.7a9 9 0 0 1 1.2-1.9 7.2 7.2 0 0 1 2.2-1.7l.2-.1.2.2-.2.2-.4.5-.8 1.6a7.2 7.2 0 0 0-.4 2.4v.1l-2.4-.3zm9.2-22.4-.2-.3-.2-.4-.2-.5a8.9 8.9 0 0 1-.7-3c0-1 .2-2.1.5-2.9l.6-1.1h.2s-.2.6-.2 1.3a6.4 6.4 0 0 0 1.4 4.6l.3.3a107.3 107.3 0 0 1 .5.6l-2 1.4z"/>
        <path d="m649.7 545-.4-.1-.5-.4c-.2 0-.4-.2-.6-.4-.8-.6-1.6-1.5-2.4-2.3-.8-.8-1.6-1.6-2.4-2l-.5-.2-.4-.2h-.4v-.3h.9l.7.2c.9.2 2 .8 3 1.4l2.7 1.6.4.2.3.1h.4l-.8 2.5zm3.5 10.5-.6-.1-.8-.3-1-.5-1-.7-.9-1-1.6-2c-1-1.5-1.9-3-2.7-4l-.7-.5-.5-.4-.5-.3.1-.3.6.3.6.3.8.6c1 .8 2.2 2.1 3.4 3.4l1.8 1.7.8.6.8.4.7.2.4.1h.6l-.3 2.5zm-4.6 6.4-.5-.3-.7-.5-.7-.7c-.4-.5-.9-1.1-1.2-1.8l-1-2.2-1.7-4a10 10 0 0 0-1-1.6l.2-.2.4.4 1 1.1 2.3 3.7c.4.6.8 1.3 1.3 1.8.4.6.8 1 1.2 1.3l.5.3.2.1a9.1 9.1 0 0 1 .7.3l-1 2.3z"/>
      </g>
    </g>
    <g>
      <path stroke="none" fill="#000" d="M220.3 513.3a2586 2586 0 0 0 4 .4h4.3c1.6 0 3.2-.2 4.8-.5l2.4-.5 2.3-.5 2-.8a26.1 26.1 0 0 0 4.5-2l1-.5 1.1 2.2-1 .5a33.7 33.7 0 0 1-5 1.7l-2.2.6-2.4.4-2.5.3h-7.3a37.4 37.4 0 0 1-6-1v-.3z"/>
    </g>
    <path d="M169.3 390s-4.4-3.7-6.8-7.5c-1.4-2.4-2.3-5.2-3.7-5.2-4 0-6.2 6.7-10.3 12.2-3 4-6.3 7-6.3 8.5"/>
    <g>
      <path stroke="none" fill="#000" d="m158.4 382.8-.4.5-1 1.3c-.9 1.2-1.8 2.9-2.6 4.6l-2.1 4.8-1.2 2.2-1.7-1.1 1.4-2 2.7-4.4a27.9 27.9 0 0 1 4.3-5.6l.5-.4.1.1z"/>
    </g>
    <path d="M684.2 525.6c.5.3 2.5 2.3 4.9 3 2.4.7 5 .3 6.5 1.3 2.4 1.3 4.3 3.2 4.3 5.7-3.8 4-.4 7.7 2.5 7.1 2.3 4.8-.8 4-.3 7.7.4 2.3 1.9 3.8 3.6 3.9.4.5-.4 2-1.3 2.5-1 .5-1 1-3.5 1a6 6 0 0 0-1.6 4.2c.2 1.5 1.6 3 1.2 4-2 1.6-5.4.2-5.4.2s-2.2 1.8-2.6 2.5c-2 3-1 4.7-1.4 5-1.8 1.7-7.7-.6-7-5.5-.5-5-4.2-10-4.6-11.6-1-4-5.4-8.2-9-11.4-3.8-3.2-4.9-3-9.3-5.8-1.2-.7-4.7-4.6-7-6.4-6-4.8-15.1-13-15.1-13-6.5-2.5-28.9 3.7-37.6 6.5-8.8 2.9-18 6-37 5-6.3 1-10.3-1-16.4-3.3-5.1-1.9-9.1-7.2-15.6-12.2-10.8-10.6-10.7-10.6-21.7-28.9 0 0-11.6-17.1-47.5-16.6-29.8 2-63.8 34.5-119 40.7-31.8 4.2-49.5-1.8-49.5-1.8L291 514c-4.4 6.3-9.5 17.3-13 23.9-2 7.6-12.8 7.6-18.1 9.8-5.8 2.3-12 3.6-17.6 6.2-12.3 5.5-9.5 4.2-13 6.5-6.7 4-11.2 1-17.1 2.7-.6.2-3.5.4-5.6 1.7-2 1.4-3.4 3.7-5.1 4.1-2.7 1-5.3 1.2-7.2-.5-.5-5.4-5.6-5.3-7-2.7-5.2-1.4-2.6-3.3-5.7-5.3-2-1.2-4-1-5.2.2-.6 0-1.3-1.7-1-2.7.2-1-.2-1.5 1.5-3.2a6 6 0 0 0-2.1-4c-1.3-.8-3.4-.8-3.8-1.7.1-2.6 3.3-4.3 3.3-4.3s.1-2.8-.2-3.6c-.9-3.5-2.8-3.8-2.9-4.3 0-2.5 5.6-5.4 8.8-1.6 4.2 2.9 10.3 3.3 11.8 4 3.6 2 9.7 1.4 14.6.7 4.8-.7 7.3-1.2 14-4 6.9-2.9 19.3-7.7 19.2-9.4 0-1.7.4-3.9 2.5-14.2 2-10.2 1.3-9.3 3.2-17.2 0 0-9.3-7.9-15-18.3-4.8-9-19.1-13.8-29.5-16.6a92 92 0 0 0-12.8-2c-6-.2-8.3.4-16.3 3-7.1 2.3-11.5 5.7-18.9 7.1-3.1.6-11.5 1-14.6 1.9-3.7 1-5.9 2.4-9.5 4-7.5 2.7-13.6.7-12.5-1 1-1.9 3.8-.1 9.4-2.9 5.6-2.7 10-6.2 15.2-8.8 5.2-2.6 18.3-3.6 17.6-5.6-4.7-10.2-22-9.4-29.2-7.4a41 41 0 0 1-11.4 1c-3 0-6.2-.9-9.3-1.4-3.1-.5-6.8 2-9.1.9-1.4-.7-1.9-1.3-4.1-4.2-2-1.2-3.2-2.4-4.7-4.3-3.2-4-.7-8.6 3.8-12 1.8-1.4 3.7-1.7 5.7-3.3 2.7-2.3 5.4-3 8-4.8 4.6-3.1 4-3.6 8.3-7 2-1.8 6.6-8 10.5-11.2 3.4-2.7 2.5-2.8 6.7-5 2.9-1.4 5.8-3.1 8.5-4.2 6.8-2.2 15.6-3.7 15.6-3.7s2.9-1.4 5.6-3.4c3.1-2.4 6.8-3.4 8.6-4.7 3.6-2.3 7.2-2.8 9.1-2.3 5.9 1.4 6.8 11.2 6.8 11.2s2.5-.1 4 .1c17.7.8 50.7 10.8 63.9 17 16.5 7.7 35.8 1.8 41.4 1.7 8 0 24.1 3.8 33.5 4 9.3 0 44.6-4.6 62.1-8 8.8-1.5 54.1-14.9 82.4-14.9 45 0 78.9 21.2 95.8 27.2 37.4 11 46.1 8.7 85.3 14.8 39 6 82.8 1.6 95.5 12.4-15.9 11.2-36.5 30.8-89 22.5-52.7-8.2-64.2-22.8-89.5-27.7 0 0 7.8 9.8 15.8 26.6 5.7 9.8 8 21.4 11.5 23 15.2 6.9 35.5-2.9 40.5-2.8 5.3.2 9.8 2 13.5 5.4 6 5.5 6.9 12 11.6 18.8 3 4.3 6.1 6.8 10 10.4 3.2 3.2 2.9 1.8 8 5.1z"/>
    <path class="tertiary" d="M243.7 463v-2.2c-3.4-3-5.7-2.5-8.6-6-5.9-7-19.5 0-28-3.4-3-1.2-2.8-2.3-5.6-2.9-2.6-.5-6.1-.5-8.5-.9-4.3-.6-10-2-14.9 0-2.9 1.2-5 3.8-8.2 4-6.7 0-8.2 2-11.5 4.2.7 2-12.4 3-17.6 5.6-5.2 2.6-9.6 6-15.2 8.8-5.6 2.8-8.4 1-9.4 2.8-1 1.8 5 3.8 12.5 1 3.6-1.5 5.8-3 9.5-4 3.1-.8 11.5-1.2 14.6-1.8 7.4-1.4 11.8-4.9 19-7.1 8-2.6 10.1-3.2 16.2-3a92 92 0 0 1 12.8 2c10.4 2.8 24.7 7.7 29.4 16.6a75 75 0 0 0 15.1 18.3c1.6-10.4-2-21.4-1.6-32z"/>
    <g stroke="none" fill="#000">
      <path d="M305.6 476.1s.3.7.5 1.9a41.4 41.4 0 0 1 .1 10.4l-2.4-.5.5-1.8a39.7 39.7 0 0 0 1.2-8l-.1-2h.2zm-16-33.5-.3.1-.7.4c-.6.2-1.4.2-2.1 0a5 5 0 0 1-1.8-.7c-.5-.3-.8-.7-.8-.7v-.3l1-.3c.6-.2 1.4 0 2 0l1.8.8.6.4.2.2zm15.3 14.3-.6-.4-1.7-.6a3.7 3.7 0 0 1-1.5-.9h-.1v-.1l-.2-.2-.4-.8c-.4-1-.5-1.9-1-2.5v-.2l-.3-.2-.3-.2c-.2-.2-.6-.2-1.2-.5-.7-.2-1.2-.8-1.4-1.3l-.3-1.4V445l.3-.1.4.6.6 1.7.4 1 .6.3c.2.1.8.1 1.5.4l.8.6.3.4c.2.1.2.2.3.4.4.5.6 1 .7 1.6l.2 1.4.1.4.1.2.2.2.8.7c.5.4 1.1.8 1.4 1.3l.3.4v.2zm-121-64.5a29.3 29.3 0 0 0 1.4 7l.1 1.2v1.4c0 1-.1 2-.3 2.9l-.8 2.7-.3 1.3v1.3a114.3 114.3 0 0 1-.8 5.4c-.2.8-.7 1.6-1.2 2.2-.4.6-1 1-1.3 1.4l-1 1-.7 1.1h-.3l.1-.4.3-1 .8-1.3 1-1.6c.4-.5.6-1.1.8-1.8l.2-2.4V410a21.7 21.7 0 0 1 .5-3l.8-2.7a18.5 18.5 0 0 0 .6-3.7v-8.3h.1zm9.6 9.8.7.4c.5.2 1.2.6 2 1.2a4.3 4.3 0 0 1 1.2 2.3v1c0 .7-.2 1.3-.3 1.8-.2.6-.3 1-.3 1.6V413.9l-.3 1.7c-.1.6-.4 1.1-.7 1.5l-1.5 1.7-.7.5-.2-.2.3-.7 1-2 .2-1v-1.5l-.1-1.7v-1.9c0-.7.2-1.4.4-2 .2-.5.5-1 .5-1.4v-.3l.1-.1v-.2l-.1-.6-.5-1.1-1.2-1.7-.5-.6v-.1zm76.8 128.7-.8.1-.9.2-1.1.1-1.3.3-1.4.4-1.4.6-1.4.7c-.4.3-.9.5-1.3.9l-1.2 1-1 1-1 1-.7.8-.5.7-.5.6-.3-.1.2-.8.3-.9.5-1.1.7-1.3 1-1.2c.4-.5.8-1 1.3-1.3l1.5-1c.5-.3 1-.6 1.7-.8l.8-.2.9-.2 1.6-.2h1.4l1.2.2 1 .2.7.2v.1zm368.1-34.5a11 11 0 0 0 1 1l.6.7 1.7 1.5 1 .7 1 .6a23.7 23.7 0 0 0 6 2c.4 0 .7.2.7.2v.3l-.7.1-1.7.3c-.7 0-1.6 0-2.5-.2l-1.3-.4c-.5-.1-1-.3-1.4-.6l-1.3-.8-1-1a8.2 8.2 0 0 1-1.4-2l-.4-1-.2-.7-.1-.6zm-464-102.2a212.3 212.3 0 0 0 .4.5l.6 1.4c.3 1.2.4 2.9.3 4.4a31 31 0 0 1-.4 4.3l-.2 1.4v.4l-.3.2h-.1l-.3-.5c-.2-.3-.3-.9-.4-1.5-.3-1.2-.3-2.8-.3-4.4l.5-4.2.2-1.4v-.5zm-65.9 33.4-.2.4c0 .1 0 .3-.2.4 0 .2-.2.4-.4.5l-1.1 1-1.6.7-1.5.4-1.2.3-.8.2-.2.2h-.3v-.5c0-.1 0-.3.2-.5l.4-.6c.7-.7 1.8-1 2.8-1.4l2.7-.7 1-.3.3-.1h.1zm59.7-23.1H168.8c.4.3.6.7.7 1.1 0 .4 0 .8-.3 1.1-.1.3-.4.4-.4.4h-.2l-.3-.5a2 2 0 0 1-.3-.8v-.8c.1 0 .2-.2.1-.3v-.2zm-5.3-4.9.4.4a2.3 2.3 0 0 1 .5.7c.1.3.2.6.1 1v.5l-.3.1-.5-.2c-.2 0-.3-.2-.4-.3l-.3-.5V400l.3-.4h.2zm12.8-14.4-.7.5-.8.5-1 .8-2.2 2-1.3 1.2a1087.2 1087.2 0 0 1-2.8 2.4l-1.4 1-2.7 1.7-2.8 1.4-.2-.3s.8-1 2.2-2.2l2.4-2 1.3-1.1 1.4-1.2c.9-.8 1.8-1.6 2.8-2.2a16.4 16.4 0 0 1 4-2.2l1-.2.8-.1z"/>
      <polygon points="152.312,395.396 156.745,388.39 158.657,390 152.509,395.562"/>
      <path d="m94 439.9-.4-.2c-.2-.1-.5-.3-.8-.7-.2-.1-.3-.3-.4-.6-.1-.3-.2-.7 0-1.2s.6-.8 1-1h.3v-.1h.7l.3.2.2.2.3.3.4.7.2.4.3.3.3.3.7.4.4.1v.4l-.4.2-.4.1h-.6c-.5.1-1.1 0-1.6-.5l-.6-.7-.4-.6.2.1h.4-.1.1-.1l-.2.1v.5l.1.8.1.4zm28.2-8.3h.7l1-.2c.3 0 .7.1 1 .3l.6.4v.3s0 .3-.4.6a1.9 1.9 0 0 1-1.8.3l-.4-.2a1.6 1.6 0 0 1-.8-1v-.4h.1zm3.8 2.3H126.3l.2-.2c.2-.2.4-.4.8-.4.3 0 .6 0 1 .2l.5.4v.3s0 .4-.3.6c-.3.3-.7.5-1.1.5a1.7 1.7 0 0 1-1.3-.5l-.2-.3c0-.1-.1-.3 0-.4v-.1zm3.1 2.5h.3l.1-.2.1-.1a1.7 1.7 0 0 1 .9-.5l1 .1.7.4v.3s0 .3-.3.6c-.2.3-.6.6-1.1.6a2 2 0 0 1-.7 0l-.7-.4-.3-.3-.1-.3v-.2h.1zm4.5 2-.4-.6c-.2-.3-.2-.7 0-1 .2-.4.6-.7 1-.7.3 0 .4 0 .6.2l.1.1v1.4l-.7.4-.6.1zm10.4-2.7V434.5c.1-.2.3-.3.6-.4H145.5l.3.6c.1.3 0 .7-.1 1-.3.2-.7.4-1 .4-.3 0-.4-.1-.5-.2l-.2-.1zm2-5v-.7c0-.4.2-.7.5-1h1.1l.5.5v.3s0 .3-.2.5c0 .3-.2.5-.4.6h-.8l-.6-.2zm1.5-4.2-.1-.2c0-.1-.2-.3-.1-.5 0-.5.1-1 .6-1.4.5-.3 1-.4 1.5-.3.4.1.7.4.7.4v.3l-.4.6-.6.6c-.2.1-.5.3-.8.3l-.5.2H147.5zm.3-13.6h.1l.3-.4c.2-.2.3-.3.5-.3s.4.1.5.3l.3.5v.3s0 .3-.3.5c-.1.3-.4.4-.6.4a1 1 0 0 1-.7-.6l-.1-.4v-.2zm-3 7.1v-.8l-.7-1.5c-.7-1-1.7-1.9-1.6-1.8l1.5-1.4.4.9.7 1.8c.2.7.2 1.5.2 2s-.2.8-.2.8h-.2zm1.3-9.3.2-.1v-.4c.2-.2.2-.4.4-.4 0 0 .3 0 .5.2l.3.4.1.3v.6c-.2.2-.4.4-.6.4-.2 0-.6 0-.8-.4l-.1-.2s-.1-.2 0-.2v-.2zm.4-3-.5.5-.6.3c-.2 0-.4 0-.5-.3l-.5-.3-.2-.3.2-.6c.2-.3.7-.5 1-.5.4 0 .7.3.9.6.2.2.2.6.2.6zm-3-2.3s0-.4.2-.7c.2-.4.6-.7 1-.8a1.6 1.6 0 0 1 1.8.9v.3l-.6.4c-.2.2-.5.4-.8.4a2 2 0 0 1-1-.2l-.6-.2v-.1zm-6.3.8-.2.4a7 7 0 0 1-.7 1l-2 2.5c-.4.5-.6 1-.7 1.4l-.1.6v.5l.1.4.1.3.2.3-2.9 1v-.6l-.1-.7v-.8l.3-1c0-.3.2-.6.4-1l.7-.8.7-.7 2.8-2 .9-.6.2-.4.3.2zm-2.9-2-1 1.2-1.7 2.5-.5.6-.4.7-.3.7-.4.6c0 .2-.2.4-.3.5l-.2.5-.2.3h-.3l-.1-.4c-.1-.3-.2-.7-.1-1.2v-.8l.2-.9.4-.9.5-.9a6.8 6.8 0 0 1 2.8-2.2c1-.4 1.6-.4 1.6-.4zm-8.6 17.6.1-.3.2-.3.2-.4c.4-.6 1-1.3 1.8-1.8l2-1.5.3-.2.2-.2-.1.2 1.8.7v.2l-.3.2-.2.2-.4.2-.4.2-2.3 1a8 8 0 0 0-2 1.1l-.3.3-.2.3-.2.2h-.2zM179 400H179.3l.1-.1.5-.2c.2 0 .4 0 .6.2l.4.2v.3l-.2.4a1.1 1.1 0 0 1-1.4.2 1 1 0 0 1-.5-.6v-.2l.1-.2zm2 4.2h-.5a3 3 0 0 1-1.1-.4l-.3-.2-.3-.1h-.1l-.2-.3s0-.3.4-.5c.4-.3 1-.3 1.4 0 .4.2.7.6.8.9v.6zm-3.8 2.3-.1.2v.2l.1.1.2.2.2.2.6.6a5.6 5.6 0 0 1 .9 1.4l.1.6v.3h-.4l-.5-.3-1.3-1-.5-.9a1.9 1.9 0 0 1-.1-1c0-.2 0-.3.2-.5l.3-.2h.2z"/>
    </g>
    <path fill="#F6F6F6" stroke-width="2" d="M143.2 415.3s-3.9 6.4-7.4 6.7c-3.5.3-4.5-4.4-4.5-4.4s.1-5.1 4.9-5.5c4.7-.3 7 3.2 7 3.2z"/>
    <path fill="#1D1D1B" d="M135.4 415.5c.7 2 1.8 4 .4 4.4-1.4.5-3-1-3.4-2.4-.4-1.4-.5-2.1.1-3.3.6-1.2 2.4-1.8 2.4-1.8s-.3 1.2.5 3.1z"/>
    <g stroke="none" fill="#000">
      <path d="m161.7 503 .4.2.4.2 1 .2 1.8.4 3.8.8a.7.7 0 0 1 0 1.5 17.5 17.5 0 0 1-5.6-.4l-1-.4-.3-.3c-.2 0-.3-.2-.4-.4l.2-.1.4.2h.4l.8.2h1.8l1.7-.1 1.8-.2v1.5l-2-.5-2-.6a13.8 13.8 0 0 1-2.6-1.4l-.4-.4-.2-.4zm45.2 41.5c.2 0 .3.2.5.1h1.4l1.9-.2 3.8-.5a.7.7 0 0 1 .4 1.4 17.4 17.4 0 0 1-5.3 1.5l-1-.1-.5-.2-.4-.2v-.2h.9l.8-.2 1.7-.5 1.6-.7 1.6-.7.4 1.4-2 .1h-2a13.7 13.7 0 0 1-3-.4l-.4-.2c-.2 0-.3-.2-.4-.3zm466.7-2.8c0-.2 0-.3-.2-.4 0-.2-.2-.3-.3-.4l-.6-.7-1.5-1.3-2.8-2.5a.7.7 0 0 1 .8-1.3 17.4 17.4 0 0 1 4.6 3.1l.6.8.2.5v.5h-.2c0-.1 0-.2-.2-.3l-.3-.3-.7-.5c-.4-.4-1-.6-1.5-.9l-1.5-.8-1.6-.7.8-1.3a25 25 0 0 1 3.9 4.6l.4.9.2.5v.5zm-358.2-61.4-.5-1a7.1 7.1 0 0 1-.2-4c0-.6.3-1 .3-1s.4.2.8.8c.4.5.7 1.3.7 2 0 .9-.1 1.7-.4 2.3-.3.6-.7.9-.7.9zm4.1-6-.4-.6-.3-1.1c0-.4.2-.7.4-1l.5-.6.7.5a1.7 1.7 0 0 1-.2 2.4c-.3.3-.7.4-.7.4zm241 47.4h.6l1.4-.2 4.2-.3 4.2-.3a38.1 38.1 0 0 1 2 0s-.5.5-1.7 1c-.5.4-1.2.6-2 .9a13 13 0 0 1-4.7.3 10.2 10.2 0 0 1-3.5-1l-.5-.4zm12.6-8.3.1-.3.2-.8a34.3 34.3 0 0 0 .8-4V507l.4.2.7.6.5 1.2a4.1 4.1 0 0 1-.5 3 3.2 3.2 0 0 1-1.8 1.3h-.4zm-308.8-49.8v.5l-.2 1a43.8 43.8 0 0 0-.4 6v1.5l-.4-.3a5.2 5.2 0 0 1-1.4-2.5c-.1-.6-.2-1.2-.1-1.9 0-.6.2-1.3.4-1.8a5.2 5.2 0 0 1 1.7-2.3l.4-.2zm-4.6 10.6s.4.3.7.9a7 7 0 0 1 .9 5s-.5-.2-1-.7c-.4-.4-.8-1.1-1-2-.2-.7-.2-1.6 0-2.2.1-.6.4-1 .4-1zm270.5-48 .3-.2c.2-.2.5-.4 1-.5.4-.2.9-.3 1.4-.3a6 6 0 0 1 1.7.1 6 6 0 0 1 1.6.7 4.7 4.7 0 0 1 1.7 1.9l.2.4-.4-.1-1-.3-2.6-.6-2.6-.7-1-.2-.3-.2zm0-5.3h-.7l-1.6.2a56.8 56.8 0 0 1-11.1-.5h-.6s.8-.5 2.1-.9a17 17 0 0 1 11.9 1.2zm4.6 12.3h1a5.4 5.4 0 0 1 4 2s-.4.3-1 .4c-.5.1-1.3 0-2-.2-.6-.3-1.2-.7-1.6-1.2l-.4-1zm-52 15.6.9.4 1 .6 1.3.8 1.5 1.1 1.7 1.3 3.2 3.1a77.4 77.4 0 0 1 7.6 9.5l-2 1.4-2-3.2a75.8 75.8 0 0 0-7.5-10l-1.5-1.5-1.3-1.2-1.2-.9-1-.7-.9-.5.2-.2zm-237.5 5.4s-.5 2.2-.5 4.4c-.1 2.3.1 4.4.1 4.4h-2.5s.3-2.4 1-4.6l1-3 .7-1.3.2.1zM548 422l1.2.4 1.5.4 1.8.8c.7.2 1.4.6 2.2 1l2.3 1 2.5 1.4 2.4 1.5a75.7 75.7 0 0 1 11.2 8.8l.7.7.3.3-1.9 1.6-.2-.2a2870.1 2870.1 0 0 1-3-3.2 81.1 81.1 0 0 0-7.9-6.8L559 428l-2.3-1.5-2.2-1.3-2-1-1.8-1a1422.9 1422.9 0 0 1-2.6-1v-.2zm-358.6-5.7-.5-1-.3-1.4-.3-1.7c-.3-2.4-.4-5.8-.4-9v-2.5a76 76 0 0 0-.6-6.5l-.6-2.9-.1-.8-.1-.3 2.4-.5v.3l.2.9a48.4 48.4 0 0 1 .3 9.8l-.2 2.5a87 87 0 0 0-.2 10.7l.3 1.2c.1.7.4 1 .3 1l-.2.2z"/>
    </g>
    <path fill="none" d="M185.7 565c-.3-1.5-.4-3.5.7-5.2 1-1.6 2-2.6 5.4-2.7m-15.7-1.6a6 6 0 0 1 5.7-2.7m-7.5-8.2c1.6-1 3.5-.8 5.4.7"/>
    <g stroke="none" fill="#000">
      <path d="m181.8 549-.3-.6-1-1a8.1 8.1 0 0 0-1.6-1.2l1.7-1.8s.7 1 1 2.2c.3.6.4 1.2.4 1.6v.7h-.2zm3.6 6.5-.2-.1-.4-.3a5.3 5.3 0 0 0-2.7-1.1h-.5l.3-2.5s.2 0 .3.2l.6.3a6.6 6.6 0 0 1 2.5 2.7l.2.5v.2l-.1.1zm-4.6-21 .2.2.3.6.7 2a7 7 0 0 1-.1 3h-.2v-.2l-.1-.6-.7-1.8a7.4 7.4 0 0 0-1.5-1.8l-.1-.2 1.5-1.3zm11.1 21.4h.3l.4.2.6.1a9 9 0 0 1 2.7 1.5 7.4 7.4 0 0 1 2.3 3.4l-.2.1-.8-1a6.4 6.4 0 0 0-4.4-1.8H191.6l.3-2.5z"/>
      <path d="m191.1 556 .4-.1.6-.2.7-.2 3.3-.2 3-.5.6-.3.4-.2.3-.2.2.2-.3.3-.3.3-.5.4c-.8.5-2 1-3.1 1.3l-3 1-.5.2-.2.2-.3.2-1.3-2.2zM181 552l.5-.4.8-.5 1-.4 1.2-.2 1.3-.1c.8 0 1.7 0 2.6.2 1.8.2 3.5.4 4.7.4h.9l.6-.2.6-.2.1.3-.5.2-.7.3-1 .2c-1.2.2-3 .3-4.7.3-.9 0-1.7.2-2.5.3l-1 .2-.9.3-.5.4c-.2 0-.2.1-.4.3l-.4.4-1.7-1.8zm-1.7-7.7.5-.2.8-.2h1c.7 0 1.4 0 2.2.2.8.1 1.5.4 2.3.6l4 1.4a9.8 9.8 0 0 0 2 .3v.3h-2.1c-1.2 0-2.7-.4-4.3-.6l-2.2-.3-1.7.1-.6.2h-.2v.1h-.2l-.5.3-1-2.2z"/>
    </g>
    <path fill="none" d="M136 512.5a7 7 0 0 1 2.8-4.3c1.6-1 3-1.6 6-.3"/>
    <g>
      <path stroke="none" fill="#000" d="M144.7 506.7a447.6 447.6 0 0 0 1 0l.7.2 3.1 1.2c1.1.4 2.2.7 3 .8h1l.4-.1.1.2-.4.2-.4.2h-.6c-1 .2-2.2.1-3.4 0l-3.1-.3H144.9l-.2-2.4z"/>
    </g>
    <path fill="none" d="M131.2 500c1.8-.8 3.8-1.7 6.3-.2"/>
    <g>
      <path stroke="none" fill="#000" d="m137.1 498.7.6-.2h2l1.2.2 1.2.5 2.3 1.3c1.5.9 3 1.8 4.1 2.3l.8.3.7.2h.6v.3h-1.4l-.9-.2c-1.3-.3-2.9-1-4.5-1.7l-2.3-.8-1-.2h-1.6l-.5.1-.5.2-.8-2.3z"/>
    </g>
    <path fill="none" d="M134.1 489.3c2-.3 3.5.7 4.6 2.9"/>
    <g stroke="none" fill="#000">
      <path d="M138.7 491h.6l.8.1 1 .4 1.8 1.1 1.8 1.6 3.2 3 1 .7.5.3v.2l-.6-.1-1.3-.7-3.6-2.3c-.7-.4-1.3-.9-2-1.2l-1.6-.6-.6-.1h-.9V491z"/>
      <path d="M139.1 496.4v-.7c0-.4-.2-.8-.5-1.3-.4-1-1-1.8-1-1.7l2.3-1s.2 1.3.1 2.5c0 .6-.2 1.2-.3 1.6l-.3.7-.3-.1zm1.2 7.7-.2-.2-.3-.5a6.8 6.8 0 0 0-2.4-2.3 3.6 3.6 0 0 0-.5-.2l1.2-2.1s.2 0 .3.2l.5.5a7.7 7.7 0 0 1 1.5 3.7v.6l.1.3h-.2zm4.2-21.4v1a9 9 0 0 1-.3 2.2 7.2 7.2 0 0 1-1.2 2.5l-.2.2-.2-.1v-.2l.2-.6v-1.9a7.2 7.2 0 0 0-.6-2.3v-.1l2.3-.7zm1 24.2.2.2.3.2.5.4a9 9 0 0 1 1.8 2.5 7.4 7.4 0 0 1 .7 4h-.3l-.2-1.1a6.4 6.4 0 0 0-3.3-3.6l-.4-.2-.3-.2h-.3l1.2-2.2z"/>
    </g>
    <path fill="none" d="M703 544.4a6.9 6.9 0 0 1-4.3 2.8c-2 .2-3.4.1-5.6-2.3m9 12.8c-2 0-4.8-.3-5.7-2.4m-1.3 11c-1.9-.6-3-2.1-3-4.6"/>
    <g stroke="none" fill="#000">
      <path d="m693.5 557.7-.3.7-.1 1.4.2 2-2.5-.1s.4-1.2 1-2.3c.2-.5.6-1 1-1.4l.5-.4.2.1zm2-7.8a49.6 49.6 0 0 0 .2.8 13.6 13.6 0 0 0 1.8 4.1l-2.3 1-.1-1a17 17 0 0 1 .1-4.7l.1-.2h.3zM683 568v-.3l.4-.7a9 9 0 0 1 1.2-1.9 7.2 7.2 0 0 1 2.2-1.7l.2-.1.2.2-.2.2-.4.5-.8 1.6a7.2 7.2 0 0 0-.4 2.4v.1l-2.4-.3zm9.2-22.4-.2-.3-.2-.4-.2-.5a8.9 8.9 0 0 1-.7-3c0-1 .2-2.1.5-2.9l.6-1.1h.2s-.2.6-.2 1.3a6.4 6.4 0 0 0 1.4 4.6l.3.3a107.3 107.3 0 0 1 .5.6l-2 1.4z"/>
      <path d="m692.7 546-.4-.1-.5-.4c-.2 0-.4-.2-.6-.4-.8-.6-1.6-1.5-2.4-2.3-.8-.8-1.6-1.6-2.4-2l-.5-.2-.4-.2h-.4v-.3h.9l.7.2c.9.2 2 .8 3 1.4l2.7 1.6.4.2.3.1h.4l-.8 2.5zm3.5 10.5-.6-.1-.8-.3-1-.5-1-.7-.9-1-1.6-2c-1-1.5-1.9-3-2.7-4l-.7-.5-.5-.4-.5-.3.1-.3.6.3.6.3.8.6c1 .8 2.2 2.1 3.4 3.4l1.8 1.7.8.6.8.4.7.2.4.1h.6l-.3 2.5zm-4.6 6.4-.5-.3-.7-.5-.7-.7c-.4-.5-.9-1.1-1.2-1.8l-1-2.2-1.7-4a10 10 0 0 0-1-1.6l.2-.2.4.4 1 1.1 2.3 3.7c.4.6.8 1.3 1.3 1.8.4.6.8 1 1.2 1.3l.5.3.2.1a9.1 9.1 0 0 1 .7.3l-1 2.3z"/>
    </g>
    <path class="tertiary" d="M510.8 487.1c-3.3-6.3-6.5-13.4-11.8-20.8-4.3-3.8-10.6-6-15-7.4-6-1.9-12.4.3-18.7-1-5.3-1.2-9.4-3.8-15.4-3.6-5.2.2-9.6 1.8-14 4-2 1-2.5 2.1-5.2 2.8-2.5.6-5.2.5-7.7 1-4.9 1.2-9.1 4.6-13.7 7.1-4.6 2.6-8.8 1.8-13.8 3.9-3.4 1.4-3.5 3.7-5.9 5.6-2.5 2-5.3 2.2-8.4 2.6-5.6.7-10.3 1.5-15 3.6-6 2.7-10.6 2-17.1 2.3-5.8.3-11.8 2.6-17.6 2.4-3 0-4.9-1.7-8-2.1-2.7-.4-5.3.5-7.9.2-3.2-.4-9-2.6-10.6.4a46.5 46.5 0 0 1-10.4 21.3h.5-.3s17.7 6 49.6 1.8c55.1-6.2 89.1-38.7 118.9-40.7 35.9-.5 47.5 16.6 47.5 16.6l-.2-.2.2.2z"/>
    <g stroke="none" fill="#000">
      <path d="M452.8 464s-.1.2-.4.3l-1 .5-2.7 1.5-2.6 1.6-1 .6-.3.3v-.5c0-.3.2-.7.4-1.1.2-.5.6-1 1-1.4.4-.5 1-.9 1.5-1.2.6-.4 1.2-.6 1.8-.8a5.7 5.7 0 0 1 2.9.1c.3 0 .4.2.4.2zm-15.7 3.4s0 .6-.3 1.4c-.2.8-.7 1.7-1.5 2.5-.7.8-1.6 1.4-2.4 1.6-.8.3-1.4.3-1.4.3l.7-1.2a14.3 14.3 0 0 1 3.7-3.9l1.2-.7zm-12.4 5.3s0 .6-.4 1.3a8 8 0 0 1-5 4.7l.5-1.3a9.4 9.4 0 0 1 3.6-4c.7-.5 1.3-.7 1.3-.7z"/>
    </g>
  </g>
</svg>
