<svg xmlns="http://www.w3.org/2000/svg" fill="#d7374a" stroke="#000" viewBox="50 50 200 200">
  <metadata source="http://wappenwiki.org/images/d/d2/Toggenburger.svg" license="https://creativecommons.org/licenses/by-nc-sa/3.0"/>
  <g id="mastiffStatant" stroke-width=".39">
    <path class="secondary" d="M82.345 133.741c.013.013-1.482.832-1.651 2.301-.026.221-.039.702.078.715.078.013.13-.234.572-.533.663-.325 1.573-.403 2.197-.91"/>
    <path class="secondary" d="M86.765 137.862c-.611.52-1.508.624-2.158.988-.416.312-.468.559-.546.559-.117-.013-.117-.494-.104-.715.104-1.469 1.573-2.34 1.56-2.353"/>
    <path class="secondary" d="M91.146 132.597c.156.325.403.182.754.585.195.247.377.637.429.663.078.026.195-.234.234-.377.221-.845-.052-1.625-.039-1.625-.676-.715-1.469-1.469-2.275-2.041"/>
    <path class="secondary" d="M123.893 133.741c.013.013-1.482.832-1.651 2.301-.026.221-.039.702.078.715.078.013.13-.234.572-.533.663-.325 1.573-.403 2.197-.91"/>
    <path class="secondary" d="M128.313 137.862c-.611.52-1.508.624-2.158.988-.416.312-.468.559-.546.559-.117-.013-.117-.494-.104-.715.104-1.469 1.573-2.34 1.56-2.353"/>
    <path class="secondary" d="M126.753 136.51c-.611.52-1.508.624-2.158.988-.416.312-.468.559-.546.559-.117-.013-.117-.494-.104-.715.104-1.469 1.573-2.34 1.56-2.353"/>
    <path class="secondary" d="M132.694 132.597c.156.325.403.182.754.585.195.247.377.637.429.663.078.026.195-.234.234-.377.221-.845-.052-1.625-.039-1.625a5.686 5.686 0 0 0-1.781-1.651"/>
    <path class="secondary" d="M85.062 136.64c-.611.52-1.508.624-2.158.988-.416.312-.468.559-.546.559-.117-.013-.117-.494-.104-.715.104-1.469 1.573-2.34 1.56-2.353"/>
    <path class="secondary" d="M102.248 129.308c.013.013-1.482.832-1.651 2.301-.026.221-.039.702.078.715.078.013.13-.234.572-.533.663-.325 1.573-.403 2.197-.91"/>
    <path class="secondary" d="M106.668 133.429c-.611.52-1.508.624-2.158.988-.416.312-.468.559-.546.559-.117-.013-.117-.494-.104-.715.104-1.469 1.573-2.34 1.56-2.353"/>
    <path class="secondary" d="M105.108 132.064c-.611.52-1.508.624-2.158.988-.416.312-.468.559-.546.559-.117-.013-.117-.494-.104-.715.104-1.469 1.573-2.34 1.56-2.353"/>
    <path class="secondary" d="M111.543 129.386c.078.351.351.273.598.754.143.286.208.715.26.741.065.039.247-.182.325-.312.416-.767.325-1.586.338-1.586.078-.884-.104-1.833-.455-2.639"/>
    <path class="secondary" d="M68.123 129.009c.013.013-1.56.663-1.872 2.119-.052.221-.104.689 0 .715.078.013.156-.221.624-.468.689-.26 1.599-.234 2.275-.676"/>
    <path class="secondary" d="M72.101 133.559c-.663.455-1.573.468-2.249.754-.455.26-.52.507-.598.494-.104-.026-.065-.494-.026-.715.26-1.456 1.807-2.158 1.794-2.184"/>
    <path class="secondary" d="M70.684 132.051c-.663.455-1.573.468-2.249.754-.455.26-.52.507-.598.494-.104-.026-.065-.494-.026-.715.26-1.456 1.807-2.158 1.794-2.184"/>
    <path class="secondary" d="M77.002 128.775c.13.338.39.221.689.663.169.26.299.676.351.702.065.026.221-.208.273-.351.312-.819.117-1.612.13-1.625-.598-.455-1.222-.949-1.846-1.365"/>
    <path d="M74.09 105.05c-1.001 2.015-.468 4.264-.299 6.292.117 1.469.923 4.342.949 5.811 0 .403-.039.819-.078 1.222-.052.442-.091.728-.13 1.17-.052.481.104.936.195 1.404.091.52 0 .897-.078 1.417-.182 1.222-.65 2.457-.598 3.679-.078.377-.715 1.014-.975 1.3-.286.325-.897.832-1.209.91-1.287.559-1.859-.442-2.717-.104-.442.117-.377.078-.611.104-.247.026-.312-.026-.598.195-.403.403-.234.78-.234.78s.312-.208.923.468c.442.507.416 1.04.416 1.04s.26-.143.741.26c.611.546.546 1.248.546 1.248s.377-.338 1.092.286c.338.377.585.754.481 1.079.208.195 1.157-.091 2.171-.364 1.014-.273 1.482-1.04 2.028-1.534.559-.494.962-2.21.884-2.938.039-.39.195-.572.663-.65.208-.039.572 0 .78.039.026.052.182-.156.195-.676.13-1.3-.637-3.224-.195-4.42.676-1.846.962-3.653 1.183-5.616.091-.832.52-1.638.858-2.405.429-.975 1.885-4.095 1.222-5.72"/>
    <path d="M118.368 105.7c.026.923-.364 3.198-.871 3.978-.533.806-.572 1.157-.884 2.028-.416 1.131-1.586 3.107-1.443 4.134.273 1.963 1.196 1.495 1.755 1.768.689.351.884.039 1.56.923.364.468.39.897.273 1.495a2.175 2.175 0 0 1-1.001 1.43c-.806.468-2.08 4.212-2.704 4.862-.247.26-.507.52-.754.793-.312.325-.442.572-.624.988-.195.442-.598.884-.598.884-.208-.065-.416-.156-.637-.143-.481.026-.793.182-.884.559-.754.585-.585 1.235-1.079 1.937-.403.585-.884 1.209-1.859 1.586s-1.898.767-2.132.585c.065-.325-.221-.689-.598-1.027-.78-.546-1.118-.169-1.118-.169s0-.702-.676-1.183c-.52-.351-.767-.182-.767-.182s-.026-.52-.52-.988c-.676-.611-.975-.364-.975-.364s-.208-.364.156-.806c.26-.247.325-.208.572-.26.234-.052.169 0 .598-.169.832-.429 1.781.52 3.003-.169.299-.117 1.508-.715 1.846-1.027.845-.65 1.495-.52 1.95-1.495.936-1.976 2.99-3.497 2.886-4.862-.13-1.664-2.327-2.444-3.406-4.264-.91-1.547-1.248-2.366-2.34-3.77-.143-.182-.52-1.703-.637-1.898-.754-1.183-.611-3.016.286-5.733.247-.741.767-1.352 1.144-2.028.312-.572.403-1.209.689-1.768.689-1.3 2.405-2.015 3.627-2.756 2.73-1.677 6.006 1.027 9.204 1.313"/>
    <path d="M113.311 102.931c-3.159.338-5.863 2.418-5.863 2.418s-.611.559-.936.208c-.13-.13-.286-.364-.195-.689.351-1.196 2.873-2.964 2.873-2.964"/>
    <path d="M76.001 67.09c.169-.858.663-1.495 1.17-2.158a9.03 9.03 0 0 0 1.56-3.12c.13-.494.273-1.053.741-1.274 1.482 2.574 1.937 5.668 1.638 8.658"/>
    <path class="tertiary" d="M77.366 79.141s-3.003-1.95-5.681-1.937c-2.795.013-4.472 1.287-6.006 1.287-2.613.039-2.548-1.196-2.756-1.196-.208.052-.273.546.052 1.157.312.572 1.092 1.261 2.821 1.209 2.457-.013 3.627-1.118 5.967-1.131 3.146-.013 5.395 1.638 5.395 1.638"/>
    <g fill="#f6f6f6" stroke-width=".325">
      <path d="M67.135 78.413c-.117-.013-.507 1.079-.403 1.859.026-.013.039-.026.065-.039a1.62 1.62 0 0 1 .754-.273c-.208-.559-.325-1.534-.416-1.547z"/>
      <path d="M67.031 77.269c.13-.104-.208-.572-.39-1.56a1.6 1.6 0 0 1-.026-.494c-.312-.013-.611.026-.949-.052-.052-.013-.273-.026-.338-.052.221.702.845 2.015 1.703 2.158z"/>
    </g>
    <path d="M91.913 87.487c-.585-4.095-1.807-7.995-3.952-11.492a3.549 3.549 0 0 1-.546-1.911 10.608 10.608 0 0 0-1.417-5.408c-.39-.897-1.17-2.405-2.574-2.977-1.17-.507-1.794-.819-4.147-.663-.988.065-1.69-.156-2.561-.026-1.872.052-2.301.676-3.159.897-1.443.533-2.223.468-2.067 1.131 0 .312.143.52.312.741-1.131-.195-1.287-.13-2.951.624-1.729.533-1.521.091-3.406.637-.481.039-1.495-.013-1.625.455-.429 1.209.403 1.677.403 2.028 0 0-.117.715.026 1.794.091.611.286 1.521.611 1.69.234.156.455.234.663.273.585.117 1.079.182 1.677.494s1.456.338 2.08.13c.312-.104.624-.299.897-.494.195-.143.429-.403.676-.455.286-.052.728.169 1.014.182 2.067.169 2.496-.39 3.731 1.027.26.416.221.897 1.001 1.69.676.728.377 1.118.299 1.573-.078.455-.494.832-1.482.611-.988-.221-1.716.494-2.795.585-.806.065-1.976-.689-2.717-.481-1.677.455-1.937-.403-2.951-.13-.325.13-.923-.013-.858.208-.104.065-.104.533.221.728.507.377.858.611 1.469.507.715-.117.429-.039 1.599-.026 1.963.143 1.521.52 3.055.572 1.898.026 2.886-.676 4.732-.455l-.052.026c-1.027 2.21-2.457 3.705-2.418 6.136.013 1.053-.663 1.755-1.599 2.652-1.885 1.885-2.197 4.641-1.274 7.436-.26 1.157-.013 4.121.962 5.486 0 0 .533 2.704 3.575 3.835 1.235 3.224 4.576 3.51 4.576 3.51s.767.429 2.197 3.588c-.338 3.341 2.067 4.199 2.899 8.879.026.598.195 1.118.442 1.664.247.52.416 1.066.598 1.612.117.364.234.715.351 1.079.312.962 0 2.015-.104 3.016-.039.39-.052.793-.286 1.118-.247.351-.806.91-1.105 1.027-1.209.689-1.885-.247-2.717.169-.429.169-.364.117-.598.169-.247.052-.312.013-.572.26-.364.442-.156.806-.156.806s.299-.234.975.364c.494.468.52.988.52.988s.247-.169.767.182c.663.481.676 1.183.676 1.183s.338-.377 1.118.169c.377.338.663.702.598 1.027.221.182 1.144-.208 2.132-.585.975-.377 1.365-1.183 1.859-1.729.507-.546.728-2.301.585-3.016 0-.39.13-.585.585-.715.208-.065.572-.052.78-.039-.117-.858.052-1.664-.156-2.509-.221-.897-.624-1.82-.91-2.691-.364-1.079-.481-2.405-.507-3.536 0-1.963-.507-5.252-.26-6.864.26-1.742-.26-1.196 0-2.782s.039-1.43.039-2.834c2.964 0 4.316-2.483 8.775-4.199 5.408-1.677 5.811-3.575 11.414-3.575 1.859-.078 3.12 1.495 4.069 2.886 1.313 1.911 2.821 4.771 4.693 6.253 1.261 1.001 2.899 2.769 5.005 3.874 1.716.897 4.186.897 5.59 2.548.468.936.208 2.704.208 3.003 0 1.326.065 1.443.091 2.769.026 1.56.728 4.03-.546 5.226-.624.494-1.313 1.872-1.534 2.197-.247.351-.806.78-1.105.897-1.209.689-1.755-.117-2.574.312-.429.169-.364.117-.598.169-.247.052-.312.013-.572.26-.364.442-.156.806-.156.806s.299-.234.975.364c.494.468.52.988.52.988s.247-.169.767.182c.663.481.676 1.183.676 1.183s.338-.377 1.118.169c.377.338.663.702.598 1.027.221.182 1.144-.208 2.132-.585.975-.377 1.222-1.04 1.729-1.586.507-.546.403-2.314.715-3.159.091-.325.273-.585.728-.715.208-.065.429-.052.65-.039.585-.871.13-3.003.364-3.9.507-3.861 1.625-6.409 1.846-7.436.182-.832.338-1.417.156-2.301-.078-.364-.221-.611-.143-1.001.117-.507.533-.871.715-1.339.156-.39.117-.845.026-1.248-.13-.546-.403-1.105-.936-1.3-.39-.13-.806-.026-1.209 0-.845.065-2.106-.455-2.652-1.014-1.118-1.417-1.534-2.808-1.976-4.459-.52-1.989-.624-2.223-.936-4.212-.26-1.638-.533-2.327-1.066-3.887-.546-1.573-1.508-4.186-2.743-5.304 5.811-.936 8.567-3.484 10.309-6.565a12.647 12.647 0 0 0 1.573-7.397c-.767-8.255-7.15-12.441-13-12.441-5.2 0-9.49 3.224-9.49 7.228 0 4.719 3.744 6.617 6.188 6.617 2.067 0 4.628-1.651 4.628-3.861s-1.742-2.626-1.742-2.626 1.482 4.381-2.886 4.381c-1.872 0-3.77-1.846-3.77-4.498 0-2.951 3.081-4.615 7.098-4.615 5.408 0 9.75 4.628 9.75 10.244 0 1.69-.377 3.445-1.118 4.758-1.846 3.276-6.331 5.512-10.192 3.913-3.263-1.404-7.176-2.379-10.608-2.379-8.554-1.976-16.081-1.144-20.332.247z"/>
    <path d="M80.98 66.245c.364-.793.988-1.3 1.651-1.833a8.886 8.886 0 0 0 2.236-2.678c.247-.442.52-.962 1.014-1.066.845 2.847.572 5.967-.403 8.801"/>
    <g fill="none">
      <path d="M70.32 132.259c.039-.078.039-.325.338-.637.221-.234.559-.364.858-.247"/>
      <path d="M69.033 130.751c.039-.078 0-.403.338-.676.247-.208.611-.286.884-.13"/>
      <path d="M104.757 132.311c.026-.078 0-.325.273-.676.195-.26.52-.416.832-.338"/>
      <path d="M103.327 130.946c.039-.078-.039-.403.273-.715.221-.221.572-.338.871-.221"/>
      <path d="M83.424 135.379c.039-.078-.039-.403.273-.715.221-.221.572-.338.871-.221"/>
      <path d="M126.415 136.744c.026-.078 0-.325.273-.676.195-.26.52-.416.832-.338"/>
      <path d="M124.972 135.379c.039-.078-.039-.403.273-.715.221-.221.572-.338.871-.221"/>
      <path d="M84.854 136.744c.026-.078 0-.325.273-.676.195-.26.52-.416.832-.338"/>
    </g>
    <path fill="#f6f6f6" d="M75.728 69.144s-.715.182-1.209.403c-.494.221-1.664.052-1.846-.273-.091-.221.026-1.04.403-1.144.468-.208 1.391-.156 1.794.221.52.494.845.78.858.793z"/>
    <g fill="#000" stroke="none">
      <path d="M77.34 116.1c.52 0 2.08-1.04 1.17 0-.39.26-.91.26-1.17 0z"/>
      <path d="M78.25 114.41c.26-.39 1.82-1.17 1.04-.26-.26.26-.65.39-1.04.26z"/>
      <path d="M114.65 108.3c.26 1.43-.39 2.86-1.3 3.9.39-1.3 1.04-2.6 1.3-3.9z"/>
      <path d="M71.594 131.18c.091.039.221.091.325.156s.208.143.299.221c.091.091.169.182.234.286s.104.221.13.338c-.104-.078-.182-.156-.26-.221s-.169-.13-.26-.182-.182-.091-.286-.13-.195-.065-.312-.104l.13-.364z"/>
      <path d="M75.13 127.02c.13.65-.26 1.3-.91 1.3.39-.39.65-.78.91-1.3z"/>
      <path d="M68.513 128.073c.169.013.325.039.481.104s.299.143.416.234c.13.104.234.221.312.351s.143.286.13.442a2.392 2.392 0 0 0-.273-.325c-.104-.091-.208-.169-.325-.234s-.247-.104-.364-.143a1.955 1.955 0 0 0-.377-.039v-.39z"/>
      <path d="M70.359 129.763c.078.052.182.104.273.169s.182.13.273.208.156.169.221.273.104.221.104.338c-.091-.078-.156-.156-.234-.221s-.156-.117-.247-.169-.182-.091-.273-.13-.195-.078-.299-.13l.182-.338z"/>
      <path d="M71.854 133.312a2.24 2.24 0 0 1-.468.117c-.143.026-.299.039-.442.078-.286.065-.572.143-.806.325.208-.221.494-.351.767-.455.143-.052.286-.091.429-.143.143-.039.286-.091.39-.143l.13.221z"/>
      <path d="M70.346 131.765a2.24 2.24 0 0 1-.468.117c-.143.026-.299.039-.442.078-.286.065-.572.143-.806.325.208-.221.494-.351.767-.455.143-.052.286-.091.429-.143.143-.039.286-.091.39-.143l.13.221z"/>
      <path d="M68.942 130.361a2.24 2.24 0 0 1-.468.117c-.143.026-.299.039-.442.078-.286.065-.572.143-.806.325.208-.221.494-.351.767-.455.143-.052.286-.091.429-.143.143-.039.286-.091.39-.143l.13.221z"/>
      <path d="m71.451 131.18.494-.13c.169-.052.338-.078.481-.143.143-.052.286-.156.429-.26.143-.091.26-.221.377-.338-.091.143-.195.286-.312.416s-.247.26-.403.351c-.156.104-.312.156-.468.247l-.468.221-.13-.364z"/>
      <path d="m70.229 129.75.507-.078c.169-.026.338-.039.494-.078s.312-.104.455-.182c.156-.078.286-.182.416-.286a1.93 1.93 0 0 1-.364.364c-.13.104-.286.208-.455.286s-.338.117-.494.182l-.494.169-.065-.377z"/>
      <path d="M105.914 131.115c.104.026.221.065.338.117s.221.117.325.195.182.169.26.26.13.208.156.325c-.104-.065-.195-.13-.286-.195s-.182-.117-.273-.156-.195-.078-.299-.104-.195-.039-.325-.065l.104-.377z"/>
      <path d="M110.23 126.76c0 1.04-1.95 1.82-.65.65.26-.13.39-.39.65-.65z"/>
      <path d="M102.534 128.333c.169-.013.325 0 .494.052.156.039.312.104.442.195s.26.195.351.312.169.273.182.429a2.247 2.247 0 0 0-.312-.299c-.104-.091-.221-.156-.351-.208s-.247-.091-.377-.104-.26-.013-.39 0l-.039-.377z"/>
      <path d="m104.549 129.828.286.143c.104.052.195.117.286.182s.182.156.247.247.117.208.13.325c-.091-.065-.182-.13-.26-.195-.078-.052-.169-.104-.26-.143s-.182-.078-.286-.104-.195-.052-.312-.104l.169-.351z"/>
      <path d="M106.408 133.208c-.156.091-.312.117-.455.156l-.429.117c-.273.091-.559.208-.767.416.182-.234.455-.403.715-.533.13-.065.273-.13.416-.182a1.9 1.9 0 0 0 .364-.182l.156.208z"/>
      <path d="M104.731 131.817c-.156.091-.312.117-.455.156l-.429.117c-.273.091-.559.208-.767.416.182-.234.455-.403.715-.533.13-.065.273-.13.416-.182a1.9 1.9 0 0 0 .364-.182l.156.208z"/>
      <path d="M103.197 130.569c-.156.091-.312.117-.455.156l-.429.117c-.273.091-.559.208-.767.416.182-.234.455-.403.715-.533.13-.065.273-.13.416-.182a1.9 1.9 0 0 0 .364-.182l.156.208z"/>
      <path d="m105.784 131.128 1.014-.39c.156-.065.325-.156.455-.26.143-.104.247-.247.364-.39a2.51 2.51 0 0 1-.286.468c-.13.143-.273.26-.429.364s-.312.195-.468.286l-.468.286-.182-.364z"/>
      <path d="m104.406 129.828.559-.117c.182-.039.377-.078.559-.13s.364-.104.52-.195c.169-.091.299-.221.442-.364-.104.156-.221.312-.377.442s-.338.221-.507.299c-.182.091-.364.143-.533.221l-.546.221-.117-.377z"/>
      <path d="M77.86 120.39c.39.65-.26 2.34-.26 2.47-.39-.91.39-1.69.26-2.47z"/>
      <path d="M116.08 119.35c0 .91 1.17 2.6 0 1.04-.13-.39-.13-.78 0-1.04z"/>
      <path d="M88.78 123.38c.65.78 1.04 2.99.65 3.12 0-1.04-.52-2.08-.65-3.12z"/>
      <path d="M80.798 110.757a4.64 4.64 0 0 1-.715-1.378c-.078-.247-.156-.481-.221-.728l-.091-.364c-.026-.117-.065-.247-.078-.377a5.07 5.07 0 0 1-.052-.767c0-.26.013-.507.039-.754.039-.507.156-.988.234-1.495.013.247-.013.507-.026.754l-.039.754c-.013.247-.013.494 0 .741a4.458 4.458 0 0 0 .13.897c.013.052.026.117.052.169l.117.351c.078.234.156.468.247.702.182.455.416.871.715 1.248l-.312.247z"/>
      <path d="M90.509 110.601c.026-.286.052-.572.117-.858s.156-.585.351-.845c.091-.13.195-.234.286-.325a2.44 2.44 0 0 0 .234-.312c.143-.221.234-.481.312-.754.039-.091-.013-.208-.078-.325s-.156-.221-.247-.325c-.182-.208-.377-.429-.546-.65a3.851 3.851 0 0 1-.442-.741 1.836 1.836 0 0 1-.13-.832c0 .286.078.559.195.806s.286.481.468.689.377.416.572.624c.091.104.195.208.273.338.039.065.078.13.104.208s.039.182.013.26a3.51 3.51 0 0 1-.286.832c-.065.13-.156.26-.247.377s-.182.221-.247.325c-.143.208-.208.468-.247.728s-.065.546-.078.819l-.377-.039z"/>
      <path d="M88.91 111.55c.39 2.08-1.04 4.03-.65 5.98-.91-2.08.52-3.9.65-5.98z"/>
      <path d="M85.01 110.12c.78.26 2.47.52.78.65-.39-.13-.78-.39-.78-.65z"/>
      <path d="M86.44 109.47c1.3-.39 2.34.52.39.26l-.13-.13z"/>
      <path d="M87.48 108.56c.52-.13.91-.52 1.43-.39-.26.26-1.04.91-1.43.39z"/>
      <path d="M87.09 107.13c1.43-.78 1.56.26 0 .13z"/>
      <path d="M78.38 97.51c-1.3 1.82.39 5.72.39 6.11-1.17-1.82-1.82-4.29-.39-6.11z"/>
      <path d="M89.313 96.574c.26.104.494.26.689.481.195.208.338.455.455.715s.195.533.273.793c.026.065.039.13.065.169 0 .013.013.026.013.026.026.026.065.039.091.065.117.091.234.208.312.338.169.26.26.572.286.858.026.299 0 .585-.052.858s-.117.546-.195.806c-.039.13-.078.26-.104.39l-.039.195c0 .065-.013.13.026.195a.342.342 0 0 1-.091-.195 1.138 1.138 0 0 1-.026-.208c0-.143 0-.286.013-.416.026-.273.065-.546.078-.819.039-.533.039-1.066-.208-1.469a1.131 1.131 0 0 0-.221-.273c-.026-.026-.052-.039-.065-.065l-.026-.013-.026-.026c-.013-.013-.026-.026-.026-.039-.013-.026-.026-.052-.039-.065-.039-.078-.052-.156-.065-.221-.065-.273-.117-.533-.195-.793a2.997 2.997 0 0 0-.338-.715 2.444 2.444 0 0 0-.585-.572z"/>
      <path d="M88.91 131.18c.65.65-1.17 1.95-.13.65v-.39z"/>
      <path d="M133.89 115.45c.52.52.65 1.56 0 .78a.829.829 0 0 1 0-.78z"/>
      <path d="M116.73 93.48c1.69-.78 2.99.78 0 0z"/>
      <path d="M119.46 94.52c1.43-.78 2.21.78 0 0z"/>
      <path d="M122.19 95.56c1.69 1.17.39 1.3 0 0z"/>
      <path d="M82.631 132.779c.169-.013.325 0 .494.052.156.039.312.104.442.195s.26.195.351.312.169.273.182.429a2.247 2.247 0 0 0-.312-.299c-.104-.091-.221-.156-.351-.208s-.247-.091-.377-.104-.26-.013-.39 0l-.039-.377z"/>
      <path d="m84.633 134.274.286.143c.104.052.195.117.286.182s.182.156.247.247.117.208.13.325c-.091-.065-.182-.13-.26-.195-.078-.052-.169-.104-.26-.143s-.182-.078-.286-.104-.195-.052-.312-.104l.169-.351z"/>
      <path d="M86.492 137.641c-.156.091-.312.117-.455.156l-.429.117c-.273.091-.559.208-.767.416.182-.234.455-.403.715-.533.13-.065.273-.13.416-.182a1.9 1.9 0 0 0 .364-.182l.156.208z"/>
      <path d="M84.685 136.393c-.156.091-.312.117-.455.156l-.429.117c-.273.091-.559.208-.767.416.182-.234.455-.403.715-.533.13-.065.273-.13.416-.182a1.9 1.9 0 0 0 .364-.182l.156.208z"/>
      <path d="M83.294 135.002c-.156.091-.312.117-.455.156l-.429.117c-.273.091-.559.208-.767.416.182-.234.455-.403.715-.533.13-.065.273-.13.416-.182a1.9 1.9 0 0 0 .364-.182l.156.208z"/>
      <path d="M127.559 135.548c.104.026.221.065.338.117s.221.117.325.195.182.169.26.26.13.208.156.325c-.104-.065-.195-.13-.286-.195s-.182-.117-.273-.156-.195-.078-.299-.104-.195-.039-.325-.065l.104-.377z"/>
      <path d="M131.03 130.66c-.26 1.69-2.21 3.12 0 0z"/>
      <path d="M124.179 132.779c.169-.013.325 0 .494.052.156.039.312.104.442.195s.26.195.351.312.169.273.182.429a2.247 2.247 0 0 0-.312-.299c-.104-.091-.221-.156-.351-.208s-.247-.091-.377-.104-.26-.013-.39 0l-.039-.377z"/>
      <path d="m127.429 135.561.481-.182c.156-.065.325-.117.468-.182.143-.078.273-.182.403-.299.13-.104.234-.247.338-.377-.078.156-.156.312-.273.442-.104.13-.221.273-.364.39s-.299.195-.442.286l-.442.273-.169-.351z"/>
      <path d="m126.051 134.261.494-.13a4.28 4.28 0 0 0 .481-.13c.156-.052.299-.13.442-.234.143-.091.26-.208.39-.325a1.923 1.923 0 0 1-.325.403c-.117.117-.26.247-.416.325-.156.091-.312.156-.481.234l-.468.221-.117-.364z"/>
      <path d="m126.194 134.274.286.143c.104.052.195.117.286.182s.182.156.247.247.117.208.13.325c-.091-.065-.182-.13-.26-.195-.078-.052-.169-.104-.26-.143s-.182-.078-.286-.104-.195-.052-.312-.104l.169-.351z"/>
      <path d="M128.053 137.641c-.156.091-.312.117-.455.156l-.429.117c-.273.091-.559.208-.767.416.182-.234.455-.403.715-.533.13-.065.273-.13.416-.182a1.9 1.9 0 0 0 .364-.182l.156.208z"/>
      <path d="M126.376 136.25c-.156.091-.312.117-.455.156l-.429.117c-.273.091-.559.208-.767.416.182-.234.455-.403.715-.533.13-.065.273-.13.416-.182a1.9 1.9 0 0 0 .364-.182l.156.208z"/>
      <path d="M124.855 135.002c-.156.091-.312.117-.455.156l-.429.117c-.273.091-.559.208-.767.416.182-.234.455-.403.715-.533.13-.065.273-.13.416-.182a1.9 1.9 0 0 0 .364-.182l.156.208z"/>
      <path d="M125.453 94.637a6.372 6.372 0 0 0-2.353-1.625 6.474 6.474 0 0 1 2.626 1.339l-.273.286z"/>
      <path d="m84.503 134.261.494-.13a4.28 4.28 0 0 0 .481-.13c.156-.052.299-.13.442-.234.143-.091.26-.208.39-.325a1.923 1.923 0 0 1-.325.403c-.117.117-.26.247-.416.325-.156.091-.312.156-.481.234l-.468.221-.117-.364z"/>
      <path d="m85.881 135.561.481-.182c.156-.065.325-.117.468-.182.143-.078.273-.182.403-.299.13-.104.234-.247.338-.377-.078.156-.156.312-.273.442-.104.13-.221.273-.364.39s-.299.195-.442.286l-.442.273-.169-.351z"/>
      <path d="M86.011 135.548c.104.026.221.065.338.117s.221.117.325.195.182.169.26.26.13.208.156.325c-.104-.065-.195-.13-.286-.195s-.182-.117-.273-.156-.195-.078-.299-.104-.195-.039-.325-.065l.104-.377z"/>
      <path d="M85.79 64.477c.26 1.235 0 2.604-.65 3.684-.26.373-.91.965-1.04.96 1.04-1.287 1.43-3.019 1.69-4.644z"/>
      <path d="M65.523 69.872a.238.238 0 0 1 .13.091c.026.052.039.104.039.169s-.013.117-.039.169-.078.104-.117.143c-.182.156-.416.182-.481.286-.104.117-.182.299-.273.481-.052.091-.091.182-.169.286a.554.554 0 0 1-.403.221v-.39c.013 0 .026 0 .039-.013s.039-.026.065-.052c.052-.052.104-.13.156-.208.104-.156.195-.351.377-.507.052-.039.104-.078.156-.104.039-.013.052-.026.078-.026l.078-.026c.091-.026.182-.052.247-.091.039-.026.065-.039.091-.065s.039-.065.065-.104c.039-.091.052-.195-.039-.26z"/>
      <path d="M75.728 104.595c.026.221.078.429.143.637a15.756 15.756 0 0 0 .702 1.833l-.364.13a23.14 23.14 0 0 1-.312-1.287l-.117-.65a3.799 3.799 0 0 1-.052-.663z"/>
      <path d="M75.39 91.4c-.52.91-1.43 3.64-1.56 3.38 0-1.3.52-2.6 1.56-3.38z"/>
      <path d="M85.075 62.683c.026.338-.078.702-.26 1.001-.091.156-.195.286-.299.429l-.117.156-.052.052c-.065.065-.13.13-.195.182-.26.221-.507.442-.754.663s-.481.455-.702.689a3.58 3.58 0 0 0-.559.78 1.284 1.284 0 0 0-.13.416 2.842 2.842 0 0 0-.039.468c-.013.312.039.611.195.897.143.273.377.52.624.754-.312-.13-.624-.312-.845-.611a2.144 2.144 0 0 1-.26-.481 2.693 2.693 0 0 1-.091-.533c-.013-.182.013-.364.026-.533.026-.182.091-.377.169-.533.169-.325.39-.598.624-.858.468-.507 1.014-.923 1.521-1.352.065-.052.13-.104.182-.156l.169-.169c.117-.117.234-.234.338-.364.221-.273.377-.559.455-.897z"/>
      <path d="M84.36 65.855c0 .88-.65 1.777-1.56 1.833.52-.54 1.04-1.144 1.56-1.833z"/>
      <path d="M65.51 70.834c.13.923-.91.78 0 0z"/>
      <path d="M71.906 67.597a1 1 0 0 0 .429.091 3.3 3.3 0 0 0 .507 0 5.551 5.551 0 0 0 1.04-.13c.078-.013.169-.039.273-.052.091-.013.182-.026.286-.026.182-.013.377 0 .559.026.364.052.728.195 1.001.442a3.163 3.163 0 0 0-1.027-.221c-.169-.013-.338 0-.507.026-.078.013-.169.026-.247.052s-.156.052-.247.078a6.239 6.239 0 0 1-1.079.182c-.182.013-.364.026-.559.013s-.39-.026-.611-.143l.182-.338z"/>
      <path d="M81.162 66.323c-.065.143-.117.286-.156.442s-.065.312-.078.468-.026.325-.013.481c0 .156.013.325.026.494-.104-.143-.169-.299-.208-.468s-.065-.338-.078-.52c-.013-.169 0-.351.013-.52.026-.182.065-.351.13-.52l.364.143z"/>
      <path d="M85.647 69.534a2.054 2.054 0 0 1-.247.442c-.104.13-.208.26-.325.364s-.247.208-.377.299-.273.169-.429.221c.104-.13.208-.247.312-.351.104-.117.208-.234.299-.351s.182-.247.247-.364c.065-.13.13-.26.169-.39l.351.13z"/>
      <path d="M73.505 68.221c.169 0 .182.143.182.494 0 .091 0 .182-.013.26-.039.221-.013.364-.13.364-.13 0-.364-.156-.416-.39-.013-.078-.026-.156-.026-.234-.013-.338.234-.494.403-.494z"/>
      <path d="M70.97 68.624c-.39.625-.65 1.378-.78 2.119-.13.234-.13-.377-.13-.468 0-.65.26-1.398.91-1.651z"/>
      <path d="M74.09 72.732c.338-.338.442-.793.572-1.248.117-.455.247-.936.546-1.365.143-.208.338-.39.559-.533s.455-.247.702-.299c.481-.13.975-.117 1.456-.039v.065c-.468.065-.936.143-1.352.299s-.78.403-1.027.754c-.26.351-.403.78-.585 1.222-.091.221-.182.442-.312.65-.156.208-.338.39-.559.494z"/>
      <path d="M72.27 68.884c-.52.338-.91.715-1.43 1.079 0-.273.26-.611.52-.793.26-.21.65-.315.91-.286z"/>
      <path d="M75.39 67.649c.39.559.91.892 1.43 1.287-.26.135-.65-.123-.91-.312-.39-.231-.65-.582-.52-.975z"/>
      <path d="M69.02 69.82c0-.416.39-.836.91-.793-.13.325-.52.585-.78.767l-.13.013z"/>
      <path d="M73.7 66.622c.39-.559 1.3-.52 1.82-.169.13.143.52.343.39.559-.65-.261-1.3-.598-2.08-.403z"/>
      <path d="M77.08 75.865c.26.208.26.819-.13.884-.13-.286 0-.637.13-.884z"/>
      <path d="M77.86 76.814c.26.156.13.767-.13.793-.13-.247-.13-.585.13-.793z"/>
      <path d="M78.25 77.815c.26.104.13.598-.13.559-.13-.156-.13-.494.13-.559z"/>
      <path d="M78.51 78.777c.39.013.13.65-.13.39-.13-.169 0-.299.13-.39z"/>
      <path d="M71.62 72.953c.13-.013.26.195.26.377 0 .091-.13.221-.13.221-.26-.065-.39-.286-.26-.455 0-.052 0-.091.13-.143z"/>
      <path d="M72.14 73.512c.26-.039.39.234.26.377-.13.091-.26-.013-.39-.13 0-.104.13-.182.13-.247z"/>
      <path d="M72.66 74.084c.13-.104.39.208.13.299 0 .065-.26 0-.26-.104 0-.091.13-.104.13-.195z"/>
      <path d="M72.699 69.339c-.169.026-.325.065-.494.091-.169.039-.325.065-.481.117l-.026-.039c.13-.104.286-.195.429-.286s.286-.169.442-.26l.13.377z"/>
      <path d="M111.4 99.33c.91.78 1.82 1.69 2.6 2.6-1.17-.52-2.21-1.43-2.6-2.6z"/>
      <path d="M109.06 99.2c-.26 1.43-2.34 1.69-.65.52.26-.13.39-.26.65-.52z"/>
      <path d="M77.184 81.364c.481.013.962.039 1.443.039a5.49 5.49 0 0 0 1.391-.117c.221-.052.442-.13.65-.234.104-.052.208-.104.299-.182.091-.065.182-.143.273-.221.351-.312.637-.702.949-1.079a5.356 5.356 0 0 1-.819 1.209 1.672 1.672 0 0 1-.273.247c-.091.078-.208.143-.312.221a3.25 3.25 0 0 1-.689.299c-.481.143-.975.182-1.456.195s-.962 0-1.443 0l-.013-.377z"/>
      <path d="M83.45 76.281c.13-.806.91-2.561.65-.78-.13.312-.26.611-.65.78z"/>
      <path d="M83.203 80.311c.104.195.156.39.182.598a2.402 2.402 0 0 1-.156 1.209 1.728 1.728 0 0 1-.325.533c0-.208.013-.416.026-.598.013-.195.039-.377.065-.572s.052-.377.091-.572c.026-.208.052-.403.117-.598z"/>
      <path d="M83.788 82.508c.052.195.039.39.013.585a2.106 2.106 0 0 1-.455 1.053c-.117.156-.26.286-.442.39.052-.195.117-.377.182-.546s.13-.338.208-.507c.065-.169.143-.325.221-.494.078-.143.169-.312.273-.481z"/>
      <path d="M84.035 83.652c.117.195.156.442.13.676s-.104.468-.208.663c-.104.208-.247.39-.39.559a2.345 2.345 0 0 1-.52.429c.078-.221.182-.416.273-.611l.299-.559c.091-.182.182-.364.247-.559.078-.169.13-.364.169-.598z"/>
      <path d="M94.63 106.35c.78-.26 2.86-.52 1.04.26-.39 0-.78 0-1.04-.26z"/>
      <path d="M96.32 104.92c.39-.13 2.6-.39 1.56.13-.52.13-1.04.13-1.56-.13z"/>
      <path d="M98.4 104.01c.26-.26 2.6-.39 1.69 0-.65.26-1.17.26-1.69 0z"/>
      <path d="M100.22 102.71c.78-.65 3.25-.78 1.17 0-.39 0-.78.13-1.17 0z"/>
    </g>
    <g stroke-width=".26" class="secondary">
      <path stroke-width=".52" d="M74.272 88.579s.403-.793.728-2.067c.325-1.274.611-3.575.611-3.575s3.549.312 7.696-.169c4.147-.494 7.891-1.248 7.891-1.248s.507 2.743.728 3.432c.364 1.157.845 1.872.845 1.872s-5.382 1.261-9.373 1.573c-3.978.312-9.126.182-9.126.182z"/>
      <path d="m73.96 88.553.286-.741s5.642.169 9.126-.091c3.484-.26 9.542-1.612 9.542-1.612l.273.78s-5.863 1.352-9.659 1.677c-3.822.312-9.568-.013-9.568-.013z"/>
      <path d="m94.825 84.081-3.094.572s-.117.234.104.754c.208.52.442.559.442.559l2.548-1.885z"/>
      <path d="m94.357 82.222-3.094.572s-.117.234.104.754c.208.52.442.559.442.559l2.548-1.885z"/>
      <path d="m72.322 86.187 2.847 1.391s.221-.117.338-.663c.117-.546-.039-.715-.039-.715l-3.146-.013z"/>
      <path d="m72.621 84.211 2.847 1.391s.221-.117.338-.663c.117-.546-.039-.715-.039-.715l-3.146-.013z"/>
      <path d="m89.989 88.332.312-3.094s-.182-.182-.715-.104c-.533.065-.637.286-.637.286l1.04 2.912z"/>
      <path d="m86.96 88.904.312-3.094s-.182-.182-.715-.104c-.533.065-.637.286-.637.286l1.04 2.912z"/>
      <path d="m77.275 89.606.845-2.99s-.156-.208-.689-.234-.676.169-.676.169l.52 3.055z"/>
      <path d="m83.541 89.32.637-3.042s-.169-.195-.702-.182c-.546.013-.663.208-.663.208l.728 3.016z"/>
      <path d="m80.304 89.541.845-2.99s-.156-.208-.689-.234c-.546-.026-.676.169-.676.169l.52 3.055z"/>
      <path d="m75.26 83.626.195-.754s4.68-.117 8.151-.377c3.484-.26 7.891-1.17 7.891-1.17l.247.806s-4.173.884-7.982 1.209c-3.809.325-8.502.286-8.502.286z"/>
      <path d="m77.587 82.066-.845 2.99s.156.208.689.234.676-.169.676-.169l-.52-3.055z"/>
      <path d="m83.58 81.767-.637 3.042s.169.195.702.182c.546-.013.663-.208.663-.208l-.728-3.016z"/>
      <path d="m86.141 81.234-.364 3.107s.182.169.728.104c.533-.078.624-.286.624-.286l-.988-2.925z"/>
      <path d="m80.356 81.845-.663 3.055s.169.195.702.182.663-.221.663-.221l-.702-3.016z"/>
      <path d="m88.897 80.766.975 2.899s-.13.221-.663.312-.689-.078-.689-.078l.377-3.133z"/>
    </g>
  </g>
</svg>
