<svg xmlns="http://www.w3.org/2000/svg" fill="#d7374a" stroke="#000" viewBox="50 50 200 200">
  <metadata source="http://wappenwiki.org/images/f/f5/Ellwangen.svg" license="https://creativecommons.org/licenses/by-nc-sa/3.0"/>
  <g id="mitre" stroke-width="3" transform="translate(16.5 103.3) scale(0.103)">
    <g>
      <path stroke-linecap="round" d="M932.8-350.9c-3.4 13.1-15.9 17.7-29 14.3S882-350 885.3-363.1s16.7-20.8 29.8-17.5a24.5 24.5 0 0 1 17.7 29.7z"/>
      <path class="tertiary" stroke-linecap="round" d="M907.5-344.5c-35.6-9.2-232.2 142.7-271.7 296-15.4 59.9 5.6 105.1 2.8 140.5l2.1 3.7a229 229 0 0 0 5.8 7.9c20.6 1.5 72.5 6.6 139.4 23.9 38 9.8 69.8 20.6 93.7 29.7 16.7 1.8 33.9-2.2 50.4-4.1a4 4 0 0 1 4.2 2.1l5.7-1.2c17.8-26.7 48.7-54.6 62.5-108.1 39-151.6-59.3-381.2-94.9-390.4z"/>
      <g>
        <path stroke-linecap="round" d="M992.7-70c4.1 42.6 4.2 80.7-3.9 112.4A212.8 212.8 0 0 1 969 92.2c6.8 5 6.6 2.4 11.3 6.2a194.3 194.3 0 0 0 22.1-52.5c39-151.5-59.3-381.2-94.9-390.4-35.6-9.2-232.2 142.7-271.7 296a191.6 191.6 0 0 0-5.6 56.6c5.9-1.1 4.5 1.1 12.9 0a207 207 0 0 1 6.3-53.1c8.2-32 26.8-65.7 51.1-101 21-30.6 51-61.2 81-90.1a572 572 0 0 1 77.9-64.6c23.3-15.4 37-20.8 42.5-22.1 4.2 3.8 13.6 15.2 26.5 40.2a596.6 596.6 0 0 1 36.9 94.6c12.3 39.7 23.8 81.1 27.4 118z"/>
      </g>
    </g>
    <g>
      <path class="tertiary" stroke-linecap="round" d="M970.9 143.3c0 8.7-59.9 13.8-159.8 13.8s-157.8-4.8-157.8-14.8L811 98.9l159.9 44.4z"/>
      <path stroke-linecap="round" d="M653.1 145c0-40.1-40.6-81.8-40.6-153.7 0-166 160-371.8 198.5-371.8s198.5 207.6 198.5 371.8c0 75.2-40.6 114.2-40.6 153.7 0 0-63.2-14.2-157.9-14.2S653.1 145 653.1 145z"/>
      <path class="secondary" stroke-linecap="round" d="M764 25.6v-346.5c-54.7 61.1-143.9 195.1-143.9 303.5 0 28.5-.2 52.4 6.9 72.5 30.9-11.6 90.2-24.5 137-29.5zM993 55.2c7-19.7 5.5-49 5.5-78.2 0-106.6-84.9-234.6-139.5-296.5V25.7c46.6 5.1 103.3 17.8 134 29.5z"/>
      <path stroke-linecap="round" d="M828.2-150.7c0 11.6-8.5 19.9-18.9 19.9-10.4 0-18.9-8.3-18.9-19.9 0-11.6 8.5-19.9 18.9-19.9 10.5 0 18.9 8.3 18.9 19.9zM727.6-55.4c0 19.8-14.5 34-32.3 34S663-35.6 663-55.4s14.5-34 32.3-34 32.3 14.1 32.3 34zM894.5-55.4c0 19.8 14.5 34 32.3 34s32.3-14.2 32.3-34-14.5-34-32.3-34-32.3 14.1-32.3 34z"/>
      <g>
        <path stroke="none" fill="#0F0D0A" d="m722-57.7.2 2v2.3c-.1.9 0 2-.3 3.1-.2 1.1-.3 2.3-.8 3.6-.2.6-.3 1.3-.6 1.9l-.8 2c-.2.7-.6 1.3-1 2l-1.1 1.9-1.3 1.9-1.5 1.7-1.7 1.6-1.7 1.5-1.8 1.3-1.9 1.1c-.6.4-1.3.6-1.9.9-.6.3-1.2.6-1.9.7l-1.8.6-1.7.3-1.6.3-1.5.1-1.3.1-1.1-.1-2-.2 2-.4 1-.2 1.2-.3 1.4-.3 1.5-.5 1.6-.6 1.6-.7a7 7 0 0 0 1.7-.9l1.7-1 1.7-1.1 1.6-1.3 1.6-1.4 1.5-1.5 1.4-1.6 1.2-1.7 1.1-1.7 1-1.7.9-1.7.7-1.7c.5-1.1.8-2.2 1.1-3.3l.4-1.5.3-1.4c.2-.9.4-1.6.4-2.3l.5-1.8zM924.4-27.1l2-.4 1.1-.2 1.2-.3 1.3-.3 1.5-.5 1.6-.6 1.6-.7a7 7 0 0 0 1.7-.9l1.7-1 1.7-1.1 1.6-1.3 1.6-1.4 1.5-1.5 1.4-1.6 1.2-1.7 1.1-1.7 1-1.7.9-1.7.7-1.7c.5-1.1.8-2.2 1.1-3.3l.4-1.5.3-1.4c.2-.9.4-1.6.4-2.3l.4-2a34.4 34.4 0 0 0 .2 4.4c-.1.9 0 2-.3 3.1-.2 1.1-.3 2.3-.8 3.6-.2.6-.3 1.3-.6 1.9l-.8 2c-.2.7-.6 1.3-1 2L949-39l-1.3 1.9-1.5 1.7-1.7 1.6-1.7 1.5L941-31l-1.9 1.1c-.6.4-1.3.6-1.9.9-.6.3-1.2.6-1.9.7l-1.8.6-1.7.3-1.6.3-1.5.1-1.3.1-1.1-.1-1.9-.1z"/>
      </g>
      <path stroke-linecap="round" d="M828.2-37.2c0 11.6-8.5 19.9-18.9 19.9-10.4 0-18.9-8.3-18.9-19.9s8.5-19.9 18.9-19.9c10.5-.1 18.9 8.3 18.9 19.9zM828.2-264.1c0 11.6-8.5 19.9-18.9 19.9-10.4 0-18.9-8.3-18.9-19.9s8.5-19.9 18.9-19.9c10.5-.1 18.9 8.3 18.9 19.9zM831.4 73.7c0 12.2-9.9 21-22.1 21-12.2 0-22.1-8.8-22.1-21s9.9-21 22.1-21c12.2 0 22.1 8.8 22.1 21zM923.5 81.8c-1.6 12.1-11.6 19.6-22.5 18.2-10.9-1.4-18.6-11.3-17-23.4 1.6-12.1 11.6-19.6 22.5-18.2s18.6 11.3 17 23.4zM698.6 81.8c1.6 12.1 11.6 19.6 22.5 18.2 10.9-1.4 18.6-11.3 17-23.4-1.6-12.1-11.6-19.6-22.5-18.2s-18.6 11.3-17 23.4zM621.1 102.8c3.5 11.7 14.5 17.6 25.1 14.5 10.5-3.1 9.9-11.7 6.4-23.4s-7.8-20-18.4-16.8c-10.6 3.1-16.6 14-13.1 25.7zM997.6 102.8c-3.5 11.7-14.5 17.6-25.1 14.5-10.5-3.1-9.9-11.7-6.4-23.4s7.8-20 18.4-16.8 16.5 14 13.1 25.7z"/>
      <path stroke-linecap="round" d="M969.4-123.9C984.8-81.7 994.8-43 994.8-8.7c0 18.9-2.9 41-7.1 55.8 8.2 3.3 7.3.7 13.1 3.4a204 204 0 0 0 8.7-59.2c0-164.1-160-371.8-198.5-371.8S612.5-174.7 612.5-8.7a199 199 0 0 0 9.2 59c5.8-2.6 4.8-.1 13.1-3.3-4.4-15-7.5-37.1-7.5-55.6 0-34.7 10.1-73.7 25.4-116 13.3-36.6 35.8-75.6 58.7-112.8a606.7 606.7 0 0 1 62.2-86c19.6-21.8 32.2-30.8 37.4-33.6 5.2 2.8 17.8 11.9 37.5 33.9a619 619 0 0 1 62.2 86.5c22.9 37.2 45.4 76.2 58.7 112.7z"/>
      <path stroke-linecap="round" d="m1001.5 50.8-.7-.3v0l-2.2-1s0 0 0 0c-5.3-2.4-55.2-21.8-136.5-30.2V-307a583 583 0 0 0-11.3-13.6V29.6l5.2.5c69.4 6.3 116.8 19.9 140.9 31 .8.4 1.6.5 2.4.5 2.1 0 3.1-1.2 4-3.3 1.2-2.8 1.1-6.2-1.8-7.5zM760-307.5V19.2c-81.8 7.4-130.7 27.6-136 30h-.1l-2.2 1h0l-.7.3c-2.8 1.3-3 4.7-1.6 7.5 1 2.1 1.9 3.3 4 3.3.8 0 1.6-.2 2.4-.5 24-11.1 71.3-24.6 140.4-30.8l5.2-.5V-321c-3.9 4.3-7.6 8.8-11.4 13.5zM835-393.5c0 14.2-11.5 22.1-25.7 22.1s-25.7-7.9-25.7-22.1c0-14.2 11.5-25.5 25.7-25.5s25.7 11.3 25.7 25.5z"/>
      <path stroke-linecap="round" stroke-linejoin="round" d="M967.5 135.5a780.6 780.6 0 0 0-155.9-16.6 778.2 778.2 0 0 0-155.9 16.6c-4.4.7-6.2 4-5.8 8.4.6 4.4 3.8 6.9 7.6 8.4 29 10.2 96.2 13.3 154.1 13.3 57.9 0 125.5-3.4 154.1-13.3 3.8-1.1 7-3.7 7.6-8.4.6-4.7-1.1-8-5.8-8.4zm-155.8 15.9c-89.8 0-126.7-6.7-133.7-6.7a841.2 841.2 0 0 1 133.7-11.9c61.4 0 122.5 9.7 133.6 11.9-6.7.3-43.9 6.7-133.6 6.7z"/>
    </g>
    <g>
      <g>
        <g>
          <path stroke-linecap="round" stroke-linejoin="round" d="M608.7 252.4c25.1-19.9 32.4-29 38.8-58.3 18-18 74.5 30.1 106.7.3 18.9-17.5 12.1 30.4-24.4 60.3-37.7 24-82.2-26.9-121.1-2.3z"/>
          <path stroke-linecap="round" stroke-linejoin="round" d="M608.7 252.4c2.8-12.5 12.8-13.4 38.8-58.3-10.3 36.9 59.6 94 59.6 94s-24.8 30.7-42.2 52.9c-45-39.9-59-76-56.2-88.6zM665 341.1c17.4-22.2 42.2-52.9 42.2-52.9l18.5 14.4s-24.8 30.7-42.2 52.9L665 341.1zM704.2 329.3l-18.5-14.4M714.5 316.1 696 301.7M693.8 342.3l-18.5-14.4M719.6 309.6l-18.5-14.4M698.8 335.9l-18.5-14.4M709.2 322.7l-18.5-14.4M688.4 349l-18.5-14.4"/>
        </g>
        <path stroke-linecap="round" stroke-linejoin="round" d="m747.5 135 4.4 31.9a187 187 0 0 1 2.5 36.8c-2.6 30.4-15.8 43.4-24.6 51.1 40.6-28.1 58.5-57.7 67-92 2-11 .5-22.1-1-30-16.6.2-33 1-48.3 2.2z"/>
      </g>
      <g>
        <g>
          <path stroke-linecap="round" stroke-linejoin="round" d="M1012.4 252.4c-25.1-19.9-32.4-29-38.8-58.3-18-18-74.5 30.1-106.7.3-18.9-17.5-12.1 30.4 24.4 60.3 37.7 24 82.2-26.9 121.1-2.3z"/>
          <path stroke-linecap="round" stroke-linejoin="round" d="M1012.4 252.4c-2.8-12.5-12.8-13.4-38.8-58.3 10.3 36.9-59.6 94-59.6 94s24.8 30.7 42.2 52.9c45-39.9 59-76 56.2-88.6zM956.1 341.1a5689.9 5689.9 0 0 0-42.2-52.9l-18.5 14.4s24.8 30.7 42.2 52.9l18.5-14.4zM916.9 329.3l18.5-14.4M906.6 316.1l18.5-14.4M927.3 342.3l18.5-14.4M901.5 309.6l18.5-14.4M922.3 335.9l18.5-14.4M911.9 322.7l18.5-14.4M932.7 349l18.5-14.4"/>
        </g>
        <path stroke-linecap="round" stroke-linejoin="round" d="m873.6 135-4.4 31.9a187 187 0 0 0-2.5 36.8c2.6 30.4 15.8 43.4 24.6 51.1-40.6-28.1-58.5-57.7-67-92-2-11-.5-22.1 1-30 16.6.2 33 1 48.3 2.2z"/>
      </g>
    </g>
  </g>
</svg>
