<svg xmlns="http://www.w3.org/2000/svg" fill="#d7374a" stroke="#000" viewBox="50 50 200 200">
  <metadata source="http://wappenwiki.org/images/a/a4/Munch.svg" license="https://creativecommons.org/licenses/by-nc-sa/3.0"/>
  <g id="monk" stroke-width=".3">
    <path fill="#eabfa2" d="M85.33 72.04c.13-.5.32-1.34.27-1.85a2.3 2.3 0 00-.1-.47c-.21-.17-.4-.36-.65-.47-.45-.2-.89-.56-1.21-.94-.2-.22-.08-.38-.08-.65a4.1 4.1 0 00-.14-1.1 16.1 16.1 0 00-.66-2.25c-.13-.34-.3-.68-.33-1.05a8.9 8.9 0 00-.18-.92c-.13-.22-.56-.2-.73-.06a.9.9 0 00-.25.47 2 2 0 00-.01.6c.02.33.08.52.19.84.08.25.2.5.25.9-.21-.08-.4-.23-.6-.33-.15-.07-.3-.12-.45-.17-.5-.18-.97-.46-1.37-.82-.15-.13-.28-.3-.44-.43l-1.62-1.38a2.4 2.4 0 00-.57-.39c-.15-.07-.32-.17-.49-.16a.48.48 0 00-.36.15c-.1.1-.16.33-.07.4-5.1-.26 7.5 14.01 9.6 10.08z"/>
    <path fill="#eabfa2" d="M83.87 74.43c.24-.57.63-1.22.8-1.75.15-.5.38-1.33.35-1.83a2.13 2.13 0 00-.09-.48c-.2-.18-.38-.38-.61-.5-.44-.23-.87-.6-1.18-.99-.19-.23-.06-.38-.04-.65a4.5 4.5 0 00-.1-1.1c-.15-.77-.3-1.54-.56-2.28-.12-.35-.27-.7-.29-1.07a8.9 8.9 0 00-.13-.92c-.12-.24-.56-.23-.73-.1a.9.9 0 00-.28.46 3.17 3.17 0 00.12 1.45c.07.26.18.51.22.9-.22-.08-.39-.24-.6-.35-.13-.08-.29-.13-.44-.19-.5-.2-.95-.5-1.32-.87-.15-.15-.27-.31-.42-.45L77 62.26a2.4 2.4 0 00-.55-.41c-.15-.08-.3-.19-.48-.19-.1 0-.21 0-.36.14-.11.1-.18.32-.1.4l-.33-.33c-.19-.18-.55-.1-.73.07-.16.16-.22.42-.08.61.08.1.19.19.3.26-.18-.05-.38.09-.47.25-.25.46.2.85.46 1.18.18.21.35.43.5.66.26.42.56.81.9 1.17-.35-.2-.57-.53-.84-.83a1.3 1.3 0 00-.34-.32c-.14-.07-.32-.09-.45 0a.57.57 0 00-.1.12.52.52 0 00-.1.17c-.04.11 0 .24.07.34l.2.3c.31.54.8.97 1.22 1.44.33.38.63.8.87 1.24.12.21.23.45.38.64.12.16.3.26.44.4.35.39.71.76 1.14 1.05.66.46 1.88.84 2.49 1.37l.97.83 1.86 1.61z"/>
    <path d="M102.5 75.48c-1.91-.48-6.64-.3-7.53-.37-1.38-.1-3.28-1.8-5.86-3.34a18.09 18.09 0 01-2.21-1.6c-.4-.33-1.32-.87-1.67-.85a.66.66 0 00-.18.04c.16.1.31.24.45.36.15.16 0 .63 0 .63l15.36 14.91"/>
    <path fill="#eabfa1" d="M90.34 136.5s.64-1.35 1-3.16c.42-2.02-.17-4.93-.17-4.93l4.62.81s-.53 3.27-1 4.95c-.23.84-.99 2.33-.99 2.33l-3.46-.01z"/>
    <path d="M108 105l1.05-32.61s2.53 1.6 4.64 2.07c1.9.41 4.45.75 6.07 2.02.61.47 1.1 1.07 1 1.84-.11.89-1.12 1.98-1.2 2.88-.02.32.04.64.03.97-.02.79-.49 1.48-.75 2.23-.73 2.12.34 3.26-.03 5.48-.62 3.69-3.37 5.26-4.08 8.94-.18.92-.12 1.89-.38 2.79-.59 2.09-.35 3.39-.35 3.39"/>
    <path fill="#eabfa2" d="M110.4 65.48c0-.96-.28-1.9-.81-2.7a5.93 5.93 0 00-5.13-2.65c-3.64.04-5.09 2.46-5.28 2.85-.15.28-.18.44-.19.67h-.02c-.03.76-.31 1.73-.32 2.14 0 .44.17.6.25 1.06.03.2-.22.62-.51 1.07-.3.46-.73 1.17-.68 1.45.09.5.78.38.83.67.05.3-.08.3-.05.42.08.3.33.23.33.23s-.23.2-.18.47c.07.32.4.27.42.37-.01.35-.22.83.13 1.41.2.3.68.36 1.06.39.28.02 1.66-.31 2.05-.37l.4 1.27c1.14 3.55 7.41 1.84 6.18-1.79-.46-.66-.68-1.65-.21-2.4.16-.26.3-.47.51-.69.26-.25.27-.57.41-.87.16-.34.36-.66.51-1 .29-.64.34-1.3.3-2z"/>
    <g fill="#725a42" stroke-width=".2">
      <path stroke-width=".14" d="M99.11 66.14c0-.08-.03-.15 0-.23.03-.21.22-.35.4-.42l.13-.05.18-.03a2.04 2.04 0 011.39.58l-.29-.07c-.14-.03-.28-.08-.42-.1l-.25-.06a2.05 2.05 0 00-.54-.05c-.13.04-.28.06-.39.14-.1.05-.17.2-.21.29z"/>
      <path d="M106.86 63.57c.12.12.28.19.44.25.39.17.8.35 1.09.65.24.25.4.58.7.76a2 2 0 00.77.31c.23.03.5-.02.7.1.19.1.3.32.36.51.2.75-.05 1.78-.58 2.34-.17.17-.36.33-.5.52-.09.1-.16.2-.25.28-.14.07-.22.16-.4.1a.67.67 0 01-.29-.21c-.2-.25-.34-.6-.5-.88 0 0 0-.02-.02-.02s-.04.02-.05.03c-.04.04-.1.04-.15 0-.1-.08-.22-.32-.27-.45a3.45 3.45 0 00-.3-.63c-.08-.03-.16.02-.24.01-.27-.02-.58-.62-.7-.83-.01-.02-.03-.05-.06-.06-.09-.03-.18.09-.3.05-.06-.03-.07-.07-.11-.11-.12-.12-.32-.14-.41-.26-.03-.04-.05-.1-.09-.13 0 .05-.01.1-.04.13a2.57 2.57 0 01-.48-.51c-.12-.16-.26-.28-.36-.45 0 .05-.03.18-.08.2-.07.04-.12-.02-.18-.06-.1-.09-.5-.26-.48-.43l-.01.16c-.22-.08-.76-.65-.52-.87a.6.6 0 01-.32.05 4.48 4.48 0 01-.43-.49c-.12-.16-.07-.2-.1-.38-.57.25-.84-.9-.8-1.28a.46.46 0 01.16-.3c.04-.04.1-.07.15-.1.2-.1.25-.25.48-.27.26-.03.58.03.82.16l.11.07c.16.08.34.1.5.17.17.08.31.2.46.3.06.04.12.08.18.1.06.03.13.04.2.06.28.07.41.26.63.42.22.16.46.3.68.45.15.1.29.2.4.33.07.07.12.15.19.21z"/>
      <path d="M99.16 61.87l-.05.07c-.23.31-.3.72-.26 1.1.01.14.12.27.1.43.05-.13.24-.28.33-.38a.91.91 0 01.32-.3c.3-.15.65 0 .96-.08.31-.07.63-.2.84-.45l-.13-.03c-.09-.13.17-.3.08-.42-.03-.04-.08-.04-.13-.05l-.34-.04c.17-.08.38-.15.51-.29.12-.12.2-.27.33-.4a.5.5 0 00.16-.26c0-.11-.01-.09-.13-.12-.41-.12-.91.01-1.25.28-.11.08-.21.19-.33.27-.33.24-.74.36-1 .67z"/>
    </g>
    <path fill="#f6f6f6" stroke-width=".2" d="M101 66.88c0 .04-.1 0-.16.05-.23.12-.29.34-.77.45 0 0-.18-.2-.21-.42-.03-.2.03-.43.03-.43z"/>
    <path fill="none" d="M105.94 66.92c.6.05 1.1.57 1 1.55-.06.7-.2.86-.56 1.16-.23.2-.64.42-.79.66-.17.3-.35.37-.68.34"/>
    <g fill="#000" stroke="none">
      <path d="M102.81 62.22c.18.14.04.84-.17.47-.1-.2.04-.35.17-.47z"/>
      <path d="M103.32 62.66c.2.26 0 .62-.07.87-.3-.23-.1-.62.07-.87z"/>
      <path d="M103.8 63c.31.22.27.67.06.94-.1.1-.12-.27-.1-.37-.01-.2.02-.38.04-.57z"/>
      <path d="M104.45 63.15c.28.13.2.52.1.75-.1.13-.06.61-.23.26-.15-.35.2-.66.13-1.01z"/>
      <path d="M105.04 63.58c.3.25.35.76.07 1.04-.1-.34-.12-.7-.07-1.04z"/>
      <path d="M105.77 63.73c.23.29.24.7.06 1.01-.05.21 0 .62-.19.22-.13-.32.12-.62.1-.94 0-.1.01-.2.03-.29z"/>
      <path d="M106.55 64.2c.35.3.3.82.08 1.18-.04.28-.13.46-.19.09 0-.34.16-.67.12-1.02 0-.08.01-.19-.01-.25z"/>
      <path d="M107.34 64.62c.22.42.33.94.08 1.37-.08.06-.09.43-.16.26-.08-.36.08-.73.04-1.1 0-.17 0-.35.04-.53z"/>
      <path d="M108.25 65.38c.32.47.33 1.22-.19 1.56-.1-.05.2-.53.14-.73.01-.28.02-.55.05-.83z"/>
      <path d="M109.14 66.32c.3.4.05.92-.24 1.25-.1.22-.15.46-.2.08.06-.45.43-.81.43-1.29v-.02z"/>
      <path d="M109.85 66.39c.07.27.3.47.25.77.03.43-.19.87-.54 1.11.2-.5.33-1.05.3-1.6 0-.08.01-.23-.01-.28z"/>
      <path d="M99.3 62.48c.12-.55.56-.96 1.1-1.1.12-.02.33-.16.38-.13-.3.42-.84.56-1.18.94l-.3.29z"/>
      <path d="M100.27 62.38c.05-.22.67-.32.46-.04-.1.13-.36.2-.46.04z"/>
    </g>
    <g fill="#000" stroke="none">
      <path d="M99.22 67.5c0 .07.02.15 0 .22 0 .21-.06.43-.2.6-.01.02-.02 0-.03-.03a.52.52 0 01-.07-.3c.01-.2.13-.42.3-.5v.01z"/>
      <path d="M99.13 68.74c.22 0 .47 0 .62.18.12.17.11.4.06.58-.07.2-.28.36-.49.32-.17-.05-.3-.2-.49-.22a1.16 1.16 0 00-.5.02c-.04-.05.14-.1.2-.14.25-.1.54-.07.78.08.16.06.29-.14.3-.29a.35.35 0 00-.19-.4c-.09-.06-.19-.1-.29-.13z"/>
      <path d="M99.06 69.72c-.03.1-.13.15-.23.16a.32.32 0 01-.3-.14c0-.04.06-.03.09-.05a.62.62 0 01.36 0l.08.03z"/>
      <path d="M100.27 67.89c.05.07.02.16.03.24 0 .14-.07.27-.07.42-.01.18-.02.37.04.55.03.13.08.25.12.37 0 .06-.06-.02-.08-.03a.96.96 0 01-.35-.69c0-.25.1-.5.25-.71l.06-.15z"/>
      <path d="M101.03 67.14v.1a.3.3 0 01-.35.22c-.05 0-.03-.06 0-.09a.35.35 0 01.14-.18.4.4 0 01.18-.05.2.2 0 01.03 0z"/>
      <path d="M99.1 66.9h.1c.12.03.2.13.23.25 0 .04 0 .13-.06.12a.42.42 0 01-.14-.08.3.3 0 01-.12-.24v-.05h-.01z"/>
      <path d="M100.07 65.97c-.1.06-.17.12-.27.17l-.28.13c-.04 0-.11.08-.11 0 0-.11.08-.21.17-.28a.49.49 0 01.47-.04l.02.02z"/>
      <path d="M99.86 66.27c.06-.03.12-.07.19-.07a.66.66 0 01.28-.01c.14.03.27.08.39.17a1 1 0 01.33.43l-.14-.07-.55-.3c-.13-.04-.26-.1-.4-.13l-.1-.02z"/>
      <path d="M99.48 66.32c.03.03.07.03.1.04l.13.03.15.03c.02 0 .07 0 .08.02l-.1.19-.31-.24-.05-.07z"/>
      <path d="M102.9 68.24c.05.01.08.04.11.08.04.02.05.07.06.12a.46.46 0 01-.15.47.38.38 0 01-.21.1c-.03-.04 0-.1.01-.13l.1-.3a.9.9 0 00.08-.34z"/>
      <path d="M102.51 69.02c.03.02.02.07.04.1v.09c-.03.06-.1.08-.15.11-.03.02-.05-.03-.07-.05a.17.17 0 010-.2.2.2 0 01.16-.07s.05 0 .02.02z"/>
      <path d="M102.16 69.51c.04.02.07.06.1.1.01.04.01.1-.03.13-.03.04-.09.05-.14.04h-.02c-.02-.02-.04-.05-.04-.08-.02-.03-.04-.08 0-.1l.11-.08h.02v-.01z"/>
      <path d="M98.82 70.55l.26.08c.12.06.24.15.38.15.05-.01.05.04 0 .05l-.15.02c-.14 0-.27-.06-.4-.03-.05 0-.11.02-.1-.05l-.05-.2.06-.02z"/>
      <path d="M99.08 71.36l.1.05.08.03c.08 0 .15.03.22.05v.03l-.14.04c-.05.02-.1.04-.17.05l-.16.01.07-.26z"/>
      <path d="M102.37 72.81a.92.92 0 01.18-.02l.48-.12c.11-.03.22-.08.33-.13.16-.07.33-.14.47-.25.2-.13.34-.32.46-.52l.09-.15c.04 0 .01.05.02.08 0 .06-.02.12-.04.18a.5.5 0 01-.09.21c-.06.1-.12.2-.21.28a2.7 2.7 0 01-.4.31l-.46.22c-.17.05-.34.1-.52.13l-.27.05-.04-.27z"/>
      <path d="M105 68.26c.02.1.12.19.2.11.1-.05.2-.14.3-.14.09 0 .17 0 .24.04.16.1.25.3.23.5 0 .12-.04.27-.16.32-.1.04-.2 0-.28.05-.11.09-.16.25-.31.3-.04 0-.1 0-.03-.03.08-.02.1-.11.12-.18a.5.5 0 01.17-.26c.08-.05.17-.02.25-.06.04-.08.02-.2.01-.29-.01-.1-.09-.2-.2-.21-.1-.01-.2.05-.3.07-.08.02-.2 0-.23-.1a.56.56 0 01-.01-.12z"/>
      <path d="M105.01 69.36c-.09-.04-.09-.15-.07-.23v-.3c-.04-.1-.1-.18-.13-.27-.02-.07-.05-.14-.04-.2.04-.04.06.06.1.07.1.08.2.17.25.3a.5.5 0 01-.06.46c-.04.05-.07.11-.05.17z"/>
      <path d="M105.6 67.73c.13-.14.39-.13.5.03.1.12.1.3 0 .41-.02.03-.05.06-.06 0-.05-.1-.1-.21-.2-.28a1.28 1.28 0 00-.24-.16z"/>
      <path d="M104.9 70.76l-.18-.06c-.06-.02-.1-.06-.15-.1a.46.46 0 01-.1-.18.87.87 0 01-.04-.31.6.6 0 01.06-.24v-.02l.02.23c0 .11.03.22.1.3.04.05.09.08.14.1.04.02.09 0 .13.01.02 0 .05-.01.05.01l-.03.26z"/>
      <path d="M104.98 67.42a.85.85 0 01.3-.42c.11-.08.25-.13.38-.18.08 0 .15-.03.23-.03.05 0 .07 0 .06.05l-.01.21c-.08 0-.16-.03-.24-.02-.06 0-.13 0-.2.02a.48.48 0 00-.17.06c-.1.05-.2.11-.27.2a.76.76 0 00-.08.11z"/>
      <path d="M105.27 67.35c.16-.12.33-.23.54-.21.1 0 .2.04.3.07.3.14.48.45.54.77.06.26.07.53.03.8-.05.33-.32.58-.6.76-.26.18-.53.37-.76.61.07-.16.2-.3.32-.42.22-.24.52-.4.7-.67a.8.8 0 00.14-.45c.02-.33 0-.67-.16-.97a.77.77 0 00-.37-.34.62.62 0 00-.55 0l-.13.05z"/>
      <path d="M100.05 66.59a.38.38 0 00-.04.28c.03.12.1.27.25.33.17.02-.19-.23.04-.54-.08 0-.21-.08-.25-.07z"/>
    </g>
    <path fill="none" d="M75.51 62.2c.4.43.79.79 1.2 1.2l.75.75"/>
    <path fill="none" d="M74.67 62.81a3 3 0 01.79.8c.06.11.12.21.2.31.22.3.57.5.8.79.15.18.26.4.44.54"/>
    <g fill="#000" stroke="none">
      <path d="M77.53 64.03c.3.3.4.6.65.9.38.33-.27-.14-.35-.22-.17-.15-.3-.33-.47-.47z"/>
      <path d="M75.36 63.28c-.22-.16.25-.62.26-.36-.02.16-.16.25-.26.36z"/>
      <path d="M74.92 64.3c-.2-.37.53-.43.16-.08-.05.05-.1.05-.16.08z"/>
      <path d="M75.1 64.5c-.14-.28.43-.33.16-.03-.04.05-.15.04-.16.03z"/>
      <path d="M75.1 66.15c-.22-.2.35-.43.23-.16-.02.1-.18.15-.23.16z"/>
      <path d="M77.32 63.74c-.09-.25.32-.5.45-.31a2 2 0 01-.45.31z"/>
      <path d="M76.18 64.16c-.05-.27.3-.54.55-.41-.16.14-.31.3-.51.4h-.02z"/>
      <path d="M75.96 65.5c-.09-.22.22-.6.39-.45-.1.17-.22.39-.39.45z"/>
      <path d="M76.34 65.84c.05-.19.4-.72.37-.26-.04.16-.2.29-.37.26z"/>
      <path d="M75.76 66.9c-.19-.2.25-.57.28-.31-.03.14-.18.23-.28.31z"/>
      <path d="M76.13 67.21c-.08-.14.07-.37.23-.28 0 .15-.05.3-.23.28z"/>
      <path d="M76.04 66.93c-.13-.2.26-.3.19-.06-.02.1-.13.08-.19.06z"/>
      <path d="M76.2 65.56c-.15-.38.51-.32.11-.04l-.11.04z"/>
      <path d="M76.5 64.17c-.1-.23.38-.4.32-.17-.06.12-.2.14-.32.17z"/>
      <path d="M76.64 64.33c-.02-.19.4-.4.29-.1a.22.22 0 01-.29.1z"/>
      <path d="M76.93 64.61c-.13-.34.43-.48.18-.09a.25.25 0 01-.18.09z"/>
      <path d="M77.62 63.97c-.03-.15.27-.34.28-.16 0 .15-.16.22-.28.16z"/>
      <path d="M77.96 64c-.06-.24.4-.3.2-.02-.05.06-.16.04-.2.02z"/>
      <path d="M77.87 64.35c.08-.13.17-.26.32-.3-.01.2-.04.46-.32.3z"/>
      <path d="M81.62 64.33c.14-.06.68.07.38.2-.15.04-.34-.04-.38-.2z"/>
      <path d="M81.75 64.13c.13-.2.6.16.25.19-.13 0-.19-.1-.25-.19z"/>
      <path d="M82.38 68.22c.35-.2.51.57.12.2a.48.48 0 01-.12-.2z"/>
      <path d="M80.95 70.43c-.02.29-.19.54-.41.72a.72.72 0 01.41-.72z"/>
      <path d="M77.79 67.24c-.01.25.58.57.11.36-.1-.08-.16-.23-.11-.36z"/>
      <path d="M78.36 66.44c.21-.07.39.48.17.38-.14-.07-.19-.25-.17-.38z"/>
      <path d="M79.13 65.47c.24-.03.72.45.23.32a.36.36 0 01-.23-.32z"/>
      <path d="M76.51 62.94c-.05-.25.36-.12.15.04-.06.04-.1 0-.15-.04z"/>
      <path d="M76.31 62.74c-.16-.23.35-.3.16-.03-.04.04-.1.03-.16.03z"/>
      <path d="M76.44 62.8c-.13-.33.49-.27.16-.02-.05.03-.1.02-.16.02z"/>
      <path d="M75.03 65.93c-.18-.25.3-.12.07.01-.01-.01-.07.02-.07-.01z"/>
      <path d="M76.98 65.14l.03.03.1.09c.04.04.08.1.11.16l.1.17.27.47-.38-.39-.13-.14a.54.54 0 00-.12-.1l-.1-.05-.05-.03z"/>
      <path d="M76.12 65.97a374.05 374.05 0 00.2.17c.12.1.26.26.37.43.12.17.22.35.26.5l.03.18v.07l-.01-.07c0-.04-.03-.1-.06-.17a1.73 1.73 0 00-.32-.42 2.6 2.6 0 00-.62-.47z"/>
    </g>
    <path fill="none" stroke-width=".214" d="M74.4 65.46a.19.19 0 01-.08-.15c0-.1.05-.19.11-.25.07-.07.16-.1.25-.1h.03l.03.01a.6.6 0 01.18.29c.04.11.06.2-.05.28a.53.53 0 01-.14.07.22.22 0 01-.16 0 .34.34 0 01-.08-.06l-.1-.09z"/>
    <path fill="none" stroke-width=".214" d="M75.01 63.37a.71.71 0 00-.24-.4c-.1-.08-.32.03-.4.11l-.08.08-.03.04c-.03.05-.03.1-.03.15 0 .1.04.12.1.18.11.1.26.2.4.2.18 0 .3-.2.28-.36z"/>
    <path fill="none" stroke-width=".214" d="M74.66 62.6l-.2-.17a.23.23 0 01-.06-.07.17.17 0 01-.01-.09.4.4 0 01.2-.3c.08-.05.28-.13.35-.05.09.1.12.22.15.34l.02.11c0 .1-.04.19-.12.23a.3.3 0 01-.33 0z"/>
    <path fill="none" stroke-width=".214" d="M76.09 62.35l-.05.03c-.06.05-.2 0-.26-.03a.45.45 0 01-.2-.17c-.06-.1 0-.23.06-.31a.3.3 0 01.22-.1c.1-.01.15.03.21.1.07.08.1.18.12.28 0 .1-.04.15-.1.2z"/>
    <path fill="none" stroke-width=".214" d="M82.02 62.88c-.14-.12-.34-.1-.5-.05-.11.04-.1.2-.1.3.02.11.02.19.11.26l.14.1a20.92 20.92 0 01.19.06c.1.01.2.01.27-.04"/>
    <path fill="#eabfa1" d="M120.03 134.59c-.34-.48-.18-1.1-1.14-2.68-1.42-3.1-.1-5.58 2.8-2.33.4.77.66 2.11.85 2.62-.26 1.3-1.75 2.06-2.51 2.39z"/>
    <path d="M112.37 79.03c.37 1.07.41 1 .47 2.96.04 1.38-.02 2.69-.28 3.62-.2.73-.8 3.86-.81 4.61-.04 1.63.2 2.49.23 3.3.02.35.02.57-.22.8-.24.26-.5.3-.53.7-.04.43 0 .86.08 1.28.15.84.56 1.65.93 2.41 1.54 3.09 3.07 7.2 3.34 10.64.26 3.36-.13 5.98 1.4 9.11.43.9 1.02 1.72 1.42 2.63.5 1.17.7 2.49 1.37 3.58.41.66.94 1.08 1.49 1.59.53.5.89 1.16 1.47 1.62.18.14.39.27.46.49a.8.8 0 01.02.27c-.05.51-.41.93-.76 1.3a9.9 9.9 0 01-1.64 1.35c-.56.38-1.58 1.1-2.46 1.18l-.34.04c-.32.08-.58.3-.86.5-.2.13-.4.26-.62.35-.53.2-1-.72-1.4-1.08-.53.14-2.87.97-3.8 1.44-1.87.94-3.81 1.7-5.96 1.46-.22-.03-.46-.06-.61-.22-.12-.12-.16-.3-.22-.45-.23-.64-1.12-.67-2.42-.02-.81.4-1.8.9-2.54.38-.8-.57-1.44-.1-2.35-.19a.68.68 0 01-.38-.12c-.32-.28-.02-.82-.18-1.21-.33-.78-1.67-.14-2.26-.14-.95 0-3.02-.15-3.88-.54-.32-.14-.63-.33-.77-.65-.13-.31-.05-.68.03-1.01 1.55-6.85.7-16.24 3.3-22.76.63-1.59 2.98-6.09 3.56-7.7.53-1.48 1.06-4.1 1.3-5.04.17-.64.51-1.43-.14-1.85a.86.86 0 01-.36-.67c-.04-.58.32-.98.48-1.5.2-.68-.02-2.6-.12-3.27-.26-1.94.01-3.9.3-5.82l.54-3.34c.19-1.13 2.68-3.91 3.08-4.17.37-.24.66-.57 1.1-.58 1.14-.03 2.83-.4 3.65-.64 1.4-.4 2.53-1.45 2.53-1.45"/>
    <path fill="none" d="M101.39 120.3c0 4.54 1.74 9.84 3.02 13.98"/>
    <path fill="none" d="M107.86 122.39c1.02 2.28 5.21 7.83 7.27 9.89"/>
    <path fill="none" d="M95.04 120.44c.4 3.64 1.48 9.27 1.63 12.9"/>
    <g fill="#000" stroke="none">
      <path d="M107.26 99.46l-.01.35c0 .12-.02.26-.01.43 0 .17 0 .36.02.58.01.21.04.45.07.71l.06.4c.03.14.04.29.08.43.07.3.13.61.22.94l.3 1.02c.21.71.47 1.47.73 2.29.26.81.53 1.67.71 2.6l.13.7.08.72c.04.48.05.97.05 1.46-.02.98-.07 1.97 0 2.95a15.7 15.7 0 00.49 2.88c.25.94.56 1.85.92 2.7.36.85.75 1.66 1.15 2.4a37 37 0 001.2 2.07 86.12 86.12 0 002.76 4.13l-.21-.28-.61-.81a103.67 103.67 0 01-2.08-2.94 36.08 36.08 0 01-1.89-3.21 22.35 22.35 0 01-1.54-3.98c-.26-.95-.43-1.94-.5-2.94-.08-1-.02-2 0-2.97 0-.5 0-.97-.04-1.44l-.07-.7-.11-.69a29.4 29.4 0 00-.66-2.58l-.69-2.3c-.2-.73-.36-1.4-.46-2-.03-.14-.04-.3-.06-.43l-.05-.4-.05-.73v-.58l.04-.43.03-.35z"/>
      <polygon points="389.966 613.721 386.967 613.784 386.435 517.119" transform="translate(59.836 54.647) scale(.10696)"/>
      <path d="M101.64 102.83a3673.72 3673.72 0 00.27.43l.18.33.1.2.12.21.24.5.25.57.13.31.14.33a32.22 32.22 0 011.06 3.12c.35 1.16.69 2.4 1 3.65l.93 3.66a120.68 120.68 0 00.87 3.17 35.96 35.96 0 00.74 2.2l.13.35.11.25.1.21-.3.13-.09-.21-.1-.26c-.05-.1-.09-.23-.14-.36a22.47 22.47 0 01-.71-2.23 62.1 62.1 0 01-.82-3.2l-.87-3.68a92.04 92.04 0 00-1.45-5.31c-.17-.53-.34-1.02-.51-1.47l-.13-.33-.13-.31-.24-.58-.23-.5-.1-.22-.11-.2-.18-.32-.14-.24-.12-.2z"/>
      <path d="M95.91 112.02l-.16.33-.1.17-.08.22-.1.24-.1.27c-.02.1-.06.2-.1.3l-.08.32-.08.35-.07.36-.05.38-.04.39-.02.2-.01.2-.02.4v.8c0 .26.02.52.03.77l.05.72.06.65.12.96.04.37-.32.03s0-.13-.03-.37l-.08-.97-.03-.65c-.02-.24-.02-.48-.03-.73v-.79l.03-.8c0-.14.02-.27.03-.4l.02-.2c0-.07.02-.14.03-.2l.05-.4.07-.38.09-.36c.03-.12.05-.24.09-.35l.1-.32.1-.3.11-.27.11-.24.1-.2a.77.77 0 01.1-.18l.17-.32z"/>
    </g>
    <path d="M102.19 76c-.69.58-1.77.86-2.66.77-1.08-.12-4.48-.29-5.37-.4-1.38-.16-3.19-2.14-5.7-3.8a18.09 18.09 0 01-2.14-1.7c-.38-.34-1.28-.91-1.63-.91a.65.65 0 00-.18.03c.15.11.28.25.42.38.05.16.08.33.09.48.03.5-.2 1.34-.35 1.83-.17.53-.56 1.18-.8 1.75-.52-.45-.72-.6-1.11-.95-.14.39-.14.73-.3 1.07-.6 1.2-.93 1.86-.99 3.2-.04 1.07.09 2.15.03 3.23-.07 1.53-1.02 2.53-1.24 4.04-.16 1.16-.28 2.13 0 2.54.16.23.69.32.83.33 1.82.12 2.95-.61 4.6-.68.74-.03 1.5.17 2.22.02.45-.1.87-.33 1.31-.46.83-.25 1.71-.16 2.58-.22 1.13-.07 2.26-.41 3.39-.28 1.53.17 2.9.3 4.43.28a6.34 6.34 0 002.87-.96c1.56-.85 3.07-1.01 4.51-2.04"/>
    <path fill="none" d="M104.73 93.56c4.06 0 5.67 1.88 6.8.96"/>
    <path stroke-width=".1" d="M105.1 75.42c-.4-.28-2.05-.14-2.91.59"/>
    <path fill="none" d="M116.53 77.2a16.7 16.7 0 01-6.82-1.7c-.57-.29-1.12-.6-1.7-.87"/>
    <path d="M94.72 135.73a.3.3 0 01.1.1c.23.35.3 1 .3 1.57 0 .63-.03 1.65-.4 1.92a.76.76 0 00-.22.23c-.04.07-.04.16-.08.24-.18.32-2.03.16-2.26.12-.85-.16-.41-.52-.84-.65-.24-.07-.52-.2-.8-.02-.14.09-.4.24-.5.27-.76.23-2.41-.15-3.59-.74a23.9 23.9 0 01-4.47-3.1c-.61-.53-1.95-2.04-1.72-2.3.1-.1.14-.15.3-.14.76.05 1.98.95 2.66 1.3a9.9 9.9 0 003.48.95c.91.08 1.84 0 2.72-.26.43-.14.78-.62 1.09-.16.13.2.18.35.33.53.25.3 1.13.41 1.5.46.86.06 1.71-.16 2.4-.32z"/>
    <path fill="none" d="M90.58 139.2c-.68.21-2.98-.22-4.15-.87-2.26-1.26-5.17-3.44-6.17-4.9"/>
    <path fill="none" d="M94.64 139.39c-.37.3-2.65.26-3.2-.07"/>
    <path d="M122.47 131.3c.04-.05.1-.12.16-.14l.14.01c.41.1.9.51 1.3.93.44.45 1.12 1.22 1.04 1.66a.76.76 0 000 .33c.01.08.07.14.1.22.09.36-1.36 1.52-1.55 1.65-.73.47-.67-.1-1.06.1-.23.12-.52.22-.6.55a3.1 3.1 0 01-.18.54c-.39.69-1.85 1.54-3.1 1.92a23.9 23.9 0 01-5.38.83c-.82.04-2.82-.13-2.83-.47-.01-.15 0-.21.11-.3.59-.5 2.1-.7 2.83-.9a9.9 9.9 0 003.18-1.7 7.5 7.5 0 001.8-2.08c.2-.39.13-.98.67-.86.24.06.37.13.61.16.38.04 1.1-.48 1.4-.71.98-.74 1.06-1.3 1.36-1.73z"/>
    <path fill="none" d="M122.02 136.54c-.35.61-2.32 1.88-3.61 2.21-2.51.65-6.12 1.08-7.85.7"/>
    <path fill="none" d="M125.1 133.87c-.07.48-1.75 2.01-2.37 2.15"/>
    <path fill="none" d="M84.69 69.96c.18.08.3.55.33.89.03.5-.2 1.34-.35 1.83-.2.65-.74 1.48-.94 2.12-.27.86.02 1.77.05 2.64.07 2.08-1.23 2.87-1.51 4.94-.14 1.04-.03 1.03-.34 2.03"/>
    <g fill="#000" stroke="none">
      <path d="M105.74 82.6c.69-.48 1.34-1.14 1.5-1.99"/>
      <path d="M93.96 74.7a13.6 13.6 0 004.07 1.6 10.4 10.4 0 01-4.24-1.4l.01-.08.16-.11z"/>
      <path d="M101.64 91.3c1.76-1.22 4.1-1.03 6.09-.6-2.04 0-4.18-.19-6.09.6z"/>
      <path d="M119.25 77.13c.12.56-2.35.26-2.8.23l.03-.32c.5.07 2.57.67 2.77.09z"/>
      <path d="M112 74.54c1.07.48 3.6.82 3.85 1.02-1.04-.48-3.54 0-3.85-1.02z"/>
      <path d="M118.5 81.18c-.8 1.72-2.93-.32-4.24.71 1.17-1.42 2.95.4 4.16-.56.02-.03.1-.12.08-.15z"/>
      <path d="M117.5 85.26c-.8 1.62-2.84 1.28-4.33 1.45-1.97.48.18-.39 1.12-.4 1.12 0 2.5-.02 3.21-1.05z"/>
      <path d="M115.16 95.85c-.45 1.43-1.6 2.4-2.7 3.34-.36-.51.63-.78.88-1.19a8.44 8.44 0 001.82-2.15z"/>
      <path d="M112.25 79.14c-1.07-1.46-2.12-3.35-4.12-3.55-.86-.07-1.44-.04-.23-.08 1.95.02 3.26 1.63 4.3 3.07.26.3.41.33.05.56z"/>
      <path d="M93.24 75.87c1.2.9 2.65 1.4 4.13 1.63a9.27 9.27 0 01-4.3-1.36l.17-.27z"/>
      <path d="M86.97 78.56c.86 1.53-.51 3.02-.66 4.56-.09.37-.23 1.87-.24.77-.14-1.38.47-2.62.9-3.88.12-.47.16-.98 0-1.45z"/>
      <path d="M89.84 81.05c.4.96.28 2.2 1.26 2.83.73.86-.04.19-.47-.1-.91-.6-.73-1.79-.79-2.73z"/>
      <path d="M93.54 81.72c1.58 1.24 3.14 2.66 5.14 3.14-2.12-.03-3.88-1.59-5.14-3.14z"/>
      <path d="M82.08 84.45c-.34.82-.31 1.95-1.08 2.5.2-.09.6-1.04.59-1.54.16-.31-.07-1.3.49-.96z"/>
      <path d="M99.46 94.07l.82-.12 1.8-.3c.66-.1 1.32-.17 1.82-.2l.34-.03.26-.01.23-.01v.32h-.82c-.5 0-1.15.03-1.8.1l-1.82.18-.83.07z"/>
      <path d="M106.91 83.42l.1-.05a5.07 5.07 0 00.88-.72l.15-.17.14-.19a.81.81 0 00.1-.18l.1-.17a1.39 1.39 0 00.1-.26l.03-.1-.02.1-.02.12-.05.16-.06.19-.1.2-.11.2-.14.2-.15.2-.15.17-.16.16a4.07 4.07 0 01-.45.4z"/>
      <path d="M105.1 75.42c-.23-.11-.5-.1-.75-.1a4.7 4.7 0 00-1.05.24c-.21.06-.4.17-.6.27-.15.08-.28.18-.4.3-.05-.1-.2-.17-.2-.27.3-.2.62-.35.96-.44.28-.08.56-.14.85-.15.36-.03.72-.03 1.07.08l.12.07z"/>
    </g>
  </g>
</svg>
