<svg xmlns="http://www.w3.org/2000/svg" fill="#d7374a" stroke="#000" viewBox="50 50 200 200">
  <metadata source="http://wappenwiki.org/images/4/46/Slatte.svg" license="https://creativecommons.org/licenses/by-nc-sa/3.0"/>
  <g id="moonInCrescent" stroke-width="3" transform="translate(15 104.4) scale(0.114)">
    <g>
      <path stroke-linejoin="round" d="M996.6-345.8c-49.6-32.5-102.8-43.7-152.6-43.7c-193,0-342.7,156.5-342.7,349.5s149.7,350.6,342.7,350.6c49.8,0,100.6-12.4,152.6-43.1c-63.2,15.3-94.7,11.6-138.8-5.7c-32.8-12.9-34.5-28.7-57.4-42.1c-13.1-7.7-28.3-10.9-42.1-17.1c-13.9-6.3-26.2-11.5-34.6-25.1c-6.3-10.2-10.3-21.7-11.8-33.6c16.3-3,19.6-15.4,19.8-17.8c1-13.9-13.8-17.8-13.8-24.1c5.8-1.1,15.9-5.1,17.2-14.4c1-6.8-7.9-9.3-14.3-16.4c-3.9-4.3-7.8-12.5-8.5-18.2c16.7-6,53.2,10.4,59.9-13.8c3.7-13.6-10.5-30.5-20.8-53.3c-8.2-17.9-22.2-45.3-21.7-58.3c0.7-17.5,6.6-16.6,12.4-31.8c3.9-10.2,5.1-21.9,1-32c-4.2-10.5-9.4-18.4-12.9-29.1c-4.8-15.2-1.8-21,3.7-29.6c12.2-20,16-41.5,16.9-49.6c5.2-49.3,63.5-96.3,110-105.6C907.8-359.4,952.6-357.4,996.6-345.8z"/>
    </g>
    <path fill="#F6F6F6" d="M604.9-73c17.2,6.6,46.1,9.6,63.9,4.5c17.7-5.1,26.3-16.3,37.3-31.1c-12.3-5.8-24.4-17.1-38-17.4C640.8-117.6,622.1-93,604.9-73z"/>
    <g stroke="none" fill="#000">
      <path d="M718.4,103.5c-5.4,1.4-10.8,1.5-16.2,1.2c-5.4-0.4-10.7-1.3-15.8-3.1c-5.1-1.7-9.8-4.2-14.6-6.4c-4.8-2.2-9.7-4.2-15-4.8c5.3,0.4,10.4,2.2,15.3,4.2c4.9,2,9.7,4.2,14.7,5.6c5,1.4,10.2,2.1,15.4,2.2c5.2,0.1,10.4-0.4,15.2-1.9L718.4,103.5z"/>
    </g>
    <path fill="none" d="M632.9-103c10.2-8.5,21.6-14.4,35.1-14.1c8,0.2,15.4,4.2,22.7,8.6c0,0.4,0.1,0.8,0.1,1.2c0,16.1-13,29.1-29.1,29.1C647.1-78.1,635-88.9,632.9-103z"/>
    <g stroke="none" fill="#000">
      <path d="M570.4,4.1c0,1.9,0,3.6,0.2,5.2c0.1,1.7,0.4,3.3,0.8,4.9c0.4,1.6,0.9,3.1,1.5,4.7c0.6,1.6,1.4,3.1,2.2,4.7c-1.7-0.7-3.2-2.1-4.3-3.6c-1.1-1.5-1.9-3.3-2.4-5.1c-0.4-1.9-0.5-3.8-0.2-5.7C568.5,7.4,569.2,5.5,570.4,4.1z"/>
      <path d="M712.3,145.5c-3.5,0.8-7.1,1-10.7,0.9c-3.6-0.2-7.1-0.8-10.5-1.7c-6.8-1.8-13.1-4.8-19.3-7.9c6.4,2.6,12.9,5.1,19.7,6.4c3.4,0.6,6.8,1,10.1,0.9c3.4-0.1,6.7-0.6,9.9-1.5L712.3,145.5z"/>
    </g>
    <g>
      <path fill="none" stroke-linejoin="round" d="M711.3-131.4c0.1-0.1,0.2,0,0.2,0c1.3-0.4,1.8-5,1.9-6c0.3-2.3,0.3-5.2-0.8-8.7c-1-3.4-3.6-7.4-7.7-10c-4.1-2.7-9.2-4-14.1-4.2l-1.9,0l-2,0.1c-1.1,0-2,0.1-3.2,0.2c-2.4,0.3-4.9,0.6-7.2,1c-9.4,1.7-18.9,5.3-27.6,9.3c-8.7,4-16.6,8.5-23.9,12c-7.3,3.5-14,6.1-20.2,7.4c-3.1,0.6-6.1,1.1-8.8,1.2c-2.7,0.1-5.2,0.2-7.2,0.1c-2-0.1-3.7-0.1-4.8-0.3c-1.2-0.1-1.8-0.1-1.8-0.1s0.5,0.4,1.3,1.1c0.9,0.7,2.2,1.8,4.1,2.9c1.8,1.1,4.2,2.5,7.1,3.6c2.9,1.1,6.3,2.2,10.2,2.8c7.8,1.3,17.2,0.4,26.3-2.3c20.8-6,40.4-20.7,62.9-18.4C702.4-138.8,710.8-131,711.3-131.4z"/>
    </g>
    <g stroke="none" fill="#000">
      <path d="M658.6,44.6c1.9,2.6,3.7,5.3,4.9,8.4c0.6,1.5,1,3.2,1.1,4.9c0.1,1.7-0.1,3.5-0.6,5.1c-1.1,3.4-3.5,6-6.1,8.1c-2.7,2.1-5.7,3.5-8.6,4.9c-2.9,1.3-5.8,2.6-8.3,4.3c-1.3,0.8-2.5,1.8-3.6,2.8c-1.1,1.1-2.2,2.2-3.1,3.4c-3.8,4.8-6.2,10.8-6.8,17.2c-0.7-6.4,1.1-13.1,4.9-18.6c1.8-2.8,4.3-5.2,7-7.1c2.7-2,5.8-3.3,8.6-4.7c2.9-1.3,5.7-2.7,8.1-4.4c2.4-1.8,4.5-4,5.7-6.7c1.1-2.7,1.1-5.8,0.3-8.8C661.4,50.3,660,47.5,658.6,44.6z"/>
      <path d="M725.3,42.2c-4.3-1.5-8.9-2-13.3-1.4c-4.4,0.6-8.4,2.6-12.6,4.5c-1,0.5-2.1,1-3.2,1.4c-0.5,0.2-1.1,0.4-1.6,0.7l-0.8,0.3l-0.9,0.3c-2.4,0.7-5,0.7-7.4,0.2c-2.5-0.5-4.8-1.6-6.8-3.2c-2-1.6-3.5-3.7-4.4-6l0-0.1l0,0c-1.2-3.4-1.8-7.1-1.8-10.7c0-3.6,0.6-7.3,1.6-10.7c1.1-3.4,2.6-6.7,4.6-9.6c2-3,4.3-5.7,7-7.9c-4.5,5.3-7.9,11.6-9.5,18.2c-0.8,3.3-1.2,6.7-1,10c0.1,3.4,0.8,6.7,1.9,9.8l0-0.1c1.7,3.8,5.1,6.7,9.1,7.5c2,0.5,4.2,0.4,6.1,0l0.7-0.2l0.8-0.3c0.5-0.2,1-0.4,1.6-0.6c1-0.4,2.1-0.8,3.1-1.3c2.1-0.8,4.3-1.7,6.5-2.4c2.2-0.7,4.6-1.2,6.9-1.3C716.5,39,721.3,40,725.3,42.2z"/>
      <path d="M598.3-87.3c2.5-2.1,4.5-4.9,6.2-7.7c1.7-2.8,3.3-5.8,5-8.6c1.7-2.9,3.5-5.7,5.6-8.3c2.1-2.7,4.4-5.1,6.9-7.5l2,2.3c-2.5,2-4.9,4.2-7.1,6.6c-2.2,2.4-4.2,5-6.1,7.7c-1.9,2.7-3.7,5.5-5.6,8.2C603.2-91.9,601-89.3,598.3-87.3z"/>
      <path d="M708.3-111.8c-5.3-5.2-10.6-10.5-16.6-14.8c-5.9-4.3-12.6-7.7-19.7-8.9l0.6-2.9c3.8,0.9,7.4,2.4,10.7,4.2c3.3,1.8,6.4,4,9.3,6.4C698.4-123,703.3-117.4,708.3-111.8z"/>
      <path d="M648.9-107.5c0,7.4,6,13.5,13.5,13.5c7.4,0,13.5-6,13.5-13.5s-6-11.2-13.5-11.2C654.9-118.7,648.9-114.9,648.9-107.5z"/>
    </g>
  </g>
</svg>
