<svg xmlns="http://www.w3.org/2000/svg" fill="#d7374a" stroke="#000" viewBox="50 50 200 200">
  <metadata source="http://wappenwiki.org/images/d/d0/Bydelsbak.svg" license="https://creativecommons.org/licenses/by-nc-sa/3.0"/>
  <g id="oak" stroke-width=".29">
    <path d="M96.22 63.98c-.1-.86.4-1.36.84-1.4.44-.05.72.2.96.17.25-.03.46-.33.89-.36.44-.06 1.04.32 1.14 1.2 8.75 19.67-7.89 19.86-3.83.4z"/>
    <path d="M92.28 98.6a1.51 1.51 0 0 0-1.22-.57c-2.62.1-4.08-1.92-4.37-1.87-.32.06-.07.56-.3.6-.4.06-1.22-1.85-2.11-1.7-.4.06-.48.5-.44.78.1.6.96 1.42.3 1.53-1.05.19-2.18-2.28-3.27-2.09-.55.1-.08.82-.36.86-.27.05-.85-.76-1.49-.67-.26.05-.57.29-.48.84.11.55 1.61 1.38 1.17 1.95-.7.87-1.87-.96-3.2-.75-.21.04-.77.22-.65.84.1.6.81 1.19.4 1.63-.42.45-.87-.42-1.72-.27-.84.14-1.2.77-1.12 1.2.08.42.38.62.43.87.05.24-.19.52-.1.94.08.43.6.91 1.46.77.84-.15.97-1.12 1.51-.84.55.29.06 1.07.18 1.68.1.6.68.6.91.56 1.32-.21 1.84-2.16 2.8-1.58.61.4-.53 1.65-.43 2.2.1.56.45.69.73.64.63-.1.9-1.05 1.2-1.11.25-.05.05.79.6.7 1.09-.19 1.32-2.86 2.39-3.06.63-.1.12.96.21 1.55.05.28.29.66.69.59.87-.16 1.02-2.22 1.4-2.3.24-.03.18.52.5.49.3-.06.98-2.51 3.44-3.31.46-.15.84-.53 1-1.04v-.04z"/>
    <path d="M95.62 91.32a1.5 1.5 0 0 1-.5-1.25c.25-2.6-1.67-4.19-1.61-4.47.07-.3.56-.03.62-.27.1-.38-1.76-1.32-1.57-2.2.1-.38.54-.45.8-.39.58.13 1.37 1.03 1.52.4.24-1.05-2.16-2.32-1.92-3.4.13-.55.84-.04.88-.29.08-.29-.72-.89-.57-1.52.06-.27.32-.55.87-.43.56.12 1.3 1.68 1.89 1.27.92-.65-.84-1.92-.55-3.24.04-.2.27-.75.87-.6.61.13 1.14.87 1.62.5.47-.4-.37-.89-.18-1.73.2-.84.84-1.15 1.27-1.04.42.1.6.4.84.47.24.06.54-.16.96-.06.44.1.88.66.69 1.5-.2.84-1.18.92-.93 1.47.26.57 1.06.12 1.68.27.6.13.56.72.5.93-.3 1.32-2.28 1.72-1.74 2.7.36.64 1.68-.43 2.24-.3.55.12.65.5.6.77-.16.64-1.14.83-1.2 1.12-.05.26.8.1.67.66-.24 1.08-2.95 1.15-3.19 2.2-.16.63.96.16 1.52.3.28.07.65.33.56.73-.2.85-2.28.86-2.38 1.26-.06.24.52.2.43.51-.07.29-2.57.83-3.51 3.24-.18.46-.58.8-1.1.94h-.06z"/>
    <path d="M92.7 93.67c.38-.36.56-.8.53-1.25-.21-2.62 1.75-4.15 1.7-4.44-.07-.32-.57-.04-.62-.28-.08-.4 1.8-1.29 1.62-2.16-.08-.4-.53-.48-.8-.42-.58.12-1.38 1.02-1.53.36-.21-1.05 2.2-2.27 1.97-3.36-.12-.54-.83-.04-.87-.3-.06-.3.74-.9.6-1.53-.05-.26-.3-.56-.86-.43-.55.12-1.32 1.66-1.9 1.24-.92-.68.9-1.92.62-3.23-.05-.2-.25-.76-.86-.64-.62.12-1.17.87-1.62.48-.48-.4.38-.89.2-1.73-.17-.84-.82-1.16-1.25-1.08-.42.1-.6.41-.86.47-.24.06-.53-.15-.96-.07-.42.1-.88.65-.7 1.49.18.84 1.15.95.89 1.5-.26.55-1.06.1-1.67.23-.6.12-.59.72-.54.92.28 1.32 2.27 1.76 1.7 2.74-.35.62-1.69-.47-2.23-.36-.55.12-.67.49-.6.76.12.64 1.1.86 1.16 1.14.06.27-.8.1-.69.65.24 1.08 2.94 1.2 3.16 2.27.14.62-.96.14-1.54.28-.27.06-.65.3-.56.72.18.86 2.27.9 2.34 1.32.05.24-.52.19-.45.5.06.29 2.55.88 3.46 3.31.17.45.56.8 1.08.96h.05z"/>
    <path d="M103.56 91.48c.47-.16.83-.48.98-.92.88-2.47 3.3-3.06 3.37-3.36.07-.3-.5-.27-.45-.5.08-.4 2.16-.46 2.36-1.32.08-.38-.3-.65-.57-.72-.57-.12-1.68.36-1.53-.26.22-1.06 2.92-1.18 3.16-2.26.12-.55-.72-.38-.67-.65.06-.29 1.03-.5 1.18-1.14.05-.26-.06-.65-.61-.75-.56-.12-1.88.96-2.25.33-.55-.98 1.6-1.37 1.89-2.7.04-.2.08-.79-.53-.92-.6-.12-1.42.31-1.67-.24-.26-.55.72-.64.9-1.48.18-.84-.28-1.39-.7-1.49-.43-.1-.73.12-.97.08-.24-.06-.42-.36-.84-.47-.43-.09-1.08.24-1.26 1.08-.18.84.67 1.32.2 1.71-.47.4-1.01-.33-1.63-.46-.6-.12-.82.42-.87.62-.29 1.32 1.35 2.52.44 3.2-.59.41-1.34-1.12-1.9-1.24-.55-.12-.8.16-.86.43-.14.63.65 1.23.6 1.52-.06.27-.77-.24-.89.31-.24 1.08 2.19 2.3 1.96 3.36-.14.64-.95-.25-1.52-.38-.28-.06-.72.02-.8.42-.19.88 1.68 1.76 1.6 2.16-.05.24-.55-.04-.61.28-.06.28 1.97 1.83 1.8 4.44-.05.48.17.96.59 1.32l.03.02z"/>
    <path d="M108.62 99.72c.48.08.96-.05 1.3-.36 1.94-1.76 4.35-1.15 4.55-1.38.2-.24-.31-.48-.17-.65.27-.31 2.14.63 2.72-.05.26-.3.04-.7-.17-.88-.45-.39-1.65-.48-1.23-.96.7-.84 3.14.33 3.84-.52.38-.43-.46-.67-.28-.89.19-.23 1.15.04 1.57-.45.18-.2.25-.6-.18-.96-.45-.36-2.13-.03-2.14-.75-.03-1.11 2.04-.45 2.92-1.5.14-.15.44-.66-.04-1.07-.48-.4-1.39-.37-1.37-.98.03-.61.94-.24 1.5-.9s.41-1.36.08-1.64c-.33-.28-.7-.24-.88-.4-.2-.16-.2-.52-.53-.8-.33-.27-1.05-.3-1.62.37-.55.65-.03 1.47-.62 1.62-.6.12-.75-.77-1.21-1.18-.48-.4-.93-.02-1.06.16-.88 1.02 0 2.85-1.1 3.02-.72.1-.68-1.6-1.1-1.98-.44-.36-.81-.24-.98-.02-.42.49 0 1.39-.18 1.62-.18.2-.55-.58-.92-.13-.72.84.84 3.06.14 3.87-.42.5-.72-.67-1.15-1.04-.23-.2-.65-.33-.91-.01-.58.67.66 2.35.4 2.66-.16.18-.48-.29-.68-.05-.2.24.88 2.56-.5 4.77a1.56 1.56 0 0 0-.09 1.44l.03.04z"/>
    <g fill="#000" stroke="none">
      <path d="M86.93 100.86c.12.7-.27 1.1-.6 1.58.1-.55.37-1.11.6-1.58z"/>
      <path d="M83.98 99.54s4.96-.95 7.48-1.1c-.63.06-1.25.18-1.86.28a88.37 88.37 0 0 0-5.56 1.1z"/>
      <path d="M97.53 83.64a50.43 50.43 0 0 1-1.15 5.58c.2-2.06.56-3.82 1.15-5.6z"/>
      <path d="M89.64 78.12c.6 4.98 1.95 9.78 3.18 14.7-.37-5.06-3.5-9.78-3.19-14.71z"/>
      <path d="M94.43 86.58c-.63.52-1.37 1-2.01 1.4a3.77 3.77 0 0 1 2.01-1.4z"/>
      <path d="M105.76 83.39s-.67 3.72-1.19 5.54a15.9 15.9 0 0 1-.57 1.81c.16-.6.3-1.22.43-1.83l.38-1.86.35-1.85c.12-.62.31-1.86.31-1.86z"/>
      <path d="M105.11 83.71a18.68 18.68 0 0 1-.86 4.19c-.13.47-.3.91-.48 1.34.07-.46.15-.93.26-1.4l.33-1.4.36-1.37c.12-.43.24-.89.4-1.36z"/>
      <path d="M108.04 85.72c-.77.21-1.66.34-2.4.44.76-.5 1.6-.48 2.4-.44z"/>
      <path d="M113.64 93.6a19.86 19.86 0 0 1-3.79 4.27c.57-.78 1.23-1.5 1.85-2.23.48-.54.97-1.06 1.46-1.57.16-.17.32-.33.48-.47z"/>
      <path d="M111.24 94.52c-.43-.4-.7-1.08-.57-1.63l.2.4.27.73c.04.17.12.34.12.5z"/>
    </g>
    <path class="secondary" d="M103.56 136.19c1.4 1.28 3.33 2.35 5.04 1.83.6-.16 1.32-.27 1.92-.13 1.24.29.93 1.84.18 2.49a4.92 4.92 0 0 1-1.41.9c-2.26.96-3.48 3.42-2.26 4.84.76.87 1.44.7 2 1.2.6.53.67 1.25.67 1.25a2.04 2.04 0 0 0 .18-2.16c-.36-.66-.78-.72-.78-1.43 0-.4.14-.79.4-1.1a4.56 4.56 0 0 1 2.81-1.62c.48-.1.96-.12 1.44-.28 1.32-.44 2.03-2.28 1.9-3.62.89 1.03 1.98 1.16 3.24.85.57-.15.84-.53 1.41-.7.41-.11.84-.09 1.28-.09a1.14 1.14 0 0 0-.84-.98c-1.22-.27-2.16 1.23-3.09-.22-.26-.4-.24-.94-.32-1.4a4.64 4.64 0 0 0-3.8-3.8 7.52 7.52 0 0 0-2.38.05c-1.13.17-2.6.39-3.48-.32-1.1-.88-1.53-1.37-1.66-1.85-.62-1.32-.62-2.87-.66-4.33-.05-1.51-.48-2.95-.55-4.44-.08-1.6.26-3.22.2-4.83-.1-2.88-.84-5.6-.06-8.5.54-2.03 1.2-2.51 2.84-3.86l3.57-2.26c1.49-.95 4.29-2.19 6.12-2.25.24-.78-.02-1.44.12-2.17-.91.31-3 .77-3.92 1.16-.78.33-1.56.66-2.4.66-.66 0-1.43-.14-1.85.35l-.36-4.49c-.02-.49-.07-1-.02-1.5a9.48 9.48 0 0 1 1.5-3.9l-.62-.48a7.4 7.4 0 0 0-3.07 4.7c-.3 1.6-.05 3.25.1 4.86.08.81.08 1.83-.54 2.36a9.7 9.7 0 0 0-3.48 1.12 23.4 23.4 0 0 1-.34-3.9c.01-1.06.12-2.19.7-3.09.36-.56.86-1 1.32-1.5 1.14-1.27 1.13-2.64 1.92-4.08a7.8 7.8 0 0 1 3.45-3.3l-.6-1.99a11.88 11.88 0 0 0-4.58 4.08c-1.04 1.56-1.34 3.43-3.1 4.48-.5.3-1.06.48-1.53.81-.12.09-.27.2-.43.23-.2.02-.36-.1-.52-.22a7.36 7.36 0 0 1-2.35-3.43c-.54-1.65-.58-3.03-1.62-4.49a15.7 15.7 0 0 0-3.69-3.67l-1.7 1.25 2.11 1.68a7.32 7.32 0 0 1 3.01 5.02c.16 1.24.28 2.6 1.13 3.55-1.25.03-2.61.03-3.62-.72l-.66-.6a8.52 8.52 0 0 0-3.88-2.1l.7 1.9c1.68.83 2.52 2.89 4.26 3.6.63.27 1.35.32 2.01.55a4.08 4.08 0 0 1 2.7 3.24c-.85-1.23-2.7-1.07-3.98-1.82-.54-.3-.96-.79-1.51-1.11a6.68 6.68 0 0 0-3.24-.71l-2.9-.12-.13 1.94c1.56.08 3.32.7 4.6 1.58 2.16 1.46 4.4 3.07 5.36 5.47 1.61 4.05-.22 6.81-.2 10.86 0 2.15.07 3.81-.25 5.94-.34 2.24.05 4.14-.85 6.21-.46 1.29-.17 1.66-.45 2.64-.13.5-.3 1-.66 1.36-.8.8-2.13.6-3.24.44a7.54 7.54 0 0 0-2.39-.04 4.63 4.63 0 0 0-3.8 3.79c-.07.48-.07 1-.32 1.4-.92 1.44-1.88-.05-3.08.22a1.13 1.13 0 0 0-.85.98c.42-.01.87-.01 1.27.1.58.17.84.54 1.42.7 1.25.3 2.35.16 3.24-.86-.13 1.33.58 3.2 1.9 3.63.46.15.97.18 1.44.27a4.6 4.6 0 0 1 2.82 1.62c.24.31.4.71.4 1.1 0 .73-.4.77-.79 1.42a2.04 2.04 0 0 0 .18 2.16s.05-.7.66-1.23c.58-.5 1.26-.33 2-1.2 1.22-1.43 0-3.9-2.25-4.85a5.26 5.26 0 0 1-1.42-.9c-.74-.64-1.05-2.2.17-2.49.6-.14 1.35-.04 1.92.14 1.73.51 3.7.58 5.28-.3.53 1.34 1.59 1.63 2.26 1.93.66.3 1.22.93 1.03 1.63-.2.74-.47.89-1.13 1.25-.7.38-1.2 1.17-1.1 1.97.14 1.24 1 1.35 1.81 2.01.29.23.54.52.64.88.25.96-.72 1.5-1.12 2.28-.32.6-.55 1.4-.48 2.1.08.7.64 1.76 1.22 1.76-.16-.8-.12-1.68.23-2.43.23-.5.58-.96 1.03-1.29.48-.36 1.1-.5 1.56-.89a2 2 0 0 0 .65-1.72c-.07-.63-.19-1.23-.7-1.64-.23-.2-.41-.36-.64-.6-.22-.24-.24-.52-.17-.84a1.16 1.16 0 0 1 .65-.79l.84-.4a2.4 2.4 0 0 0 1.2-2.05c0-.84-.36-1.63-.96-2.2-.82-.72-1.92-1.28-1.23-2.52z"/>
    <g fill="#000" stroke="none">
      <path d="M115.5 138.35a3.48 3.48 0 0 0-.55-1.84c-.6-.97-1.76-1.4-2.85-1.43-.52-.03-1.04.09-1.54.12a5.84 5.84 0 0 1-4-1.34c-.27-.24-.51-.52-.72-.82.2.1.39.41.6.57a6 6 0 0 0 3.72 1.35c.66.02 1.29-.21 1.92-.18 1.2 0 2.49.48 3.14 1.54a3.6 3.6 0 0 1 .58 1.85c.1.24-.18.13-.3.18z"/>
      <path d="M102.2 106.56c-.12 1.18-.32 2.36-.15 3.55.2 1.56.72 3.12.55 4.7-.03.3-.1.58-.18.86.18-1.56-.27-3.07-.55-4.59a7.8 7.8 0 0 1-.1-2.64c.08-.63.25-1.26.43-1.87z"/>
      <path d="M102.1 120.28c.05.58.04 1.17.05 1.76 0 .62.02 1.26 0 1.88 0 .06-.05-.12-.07-.16a5.32 5.32 0 0 1 0-3.46v-.02z"/>
      <path d="M101.56 126.77c.16.31.3.62.52.9.24.33.55.63.88.9-.36 0-.72-.2-.96-.46a1.72 1.72 0 0 1-.42-.72 1.42 1.42 0 0 1 0-.62z"/>
      <path d="M97.01 124.92c.24.44.31.94.29 1.42-.02.49-.14 1-.42 1.41 0-.26.02-.53.05-.79.02-.47.05-.92.05-1.4l.03-.63z"/>
      <path d="M85.4 138.32c.04-.64.15-1.32.52-1.87a3.43 3.43 0 0 1 2.33-1.56c1.01-.24 2.02 0 3 .2 1.29.26 2.64.33 3.91-.07a5.56 5.56 0 0 0 1.92-1c-.1.25-.45.45-.68.63a6.72 6.72 0 0 1-4.78.8c-1.04-.15-2.1-.49-3.15-.28a3.12 3.12 0 0 0-2.74 3.19l-.32-.04z"/>
      <path d="M88.68 133.92c.34-.4.93-.47 1.43-.46.67.03 1.36.05 2.03-.06a6.48 6.48 0 0 0 2.38-.8 2.6 2.6 0 0 0 1.28-1.9c.1.78-.36 1.54-.96 2.03-.6.48-1.36.75-2.1.91-.76.16-1.54.18-2.3.08-.58-.09-1.26-.18-1.76.21z"/>
      <path d="M97.84 131.63c.2-.22.34-.5.42-.8.08-.27.12-.56.18-.83l.06-.17c.1.23.16.48.16.72 0 .29-.09.57-.28.79a.76.76 0 0 1-.48.29h-.06z"/>
      <path d="M99.56 133.66c.21.4.25.9.14 1.34a4.8 4.8 0 0 1-.98 1.84c-.23.3-.48.62-.66.97l-.32-.16c.32-.63.84-1.11 1.23-1.7a2.9 2.9 0 0 0 .55-2.28l.04-.01z"/>
      <path d="M103.4 136.12c.43-.96.58-2.04.46-3.09a4.98 4.98 0 0 0-1-2.33c.12 0 .21.16.3.23.66.66.94 1.57 1.04 2.47a5.64 5.64 0 0 1-.36 2.52c-.05.1-.06.33-.17.32l-.27-.12z"/>
      <path d="M98.5 102.26c.44.53.56 1.25.54 1.92-.05 1.01-.44 1.96-.73 2.9l-.13.43c-.04-.89.26-1.74.43-2.6a4.8 4.8 0 0 0-.12-2.65z"/>
      <path d="M99.47 95.04a2.96 2.96 0 0 1 1.7 2.88c0 .6-.09 1.24.19 1.79a2.06 2.06 0 0 1-.48-1.3c-.04-.62-.03-1.26-.28-1.85a3.62 3.62 0 0 0-1.13-1.5z"/>
      <path d="M98.8 113.5a8.58 8.58 0 0 1-.1 4.54c-.25 1.01-.55 2-.78 3 .02-1.69.58-3.32.8-5 .12-.84.14-1.68.08-2.53z"/>
    </g>
    <path d="M94.78 88.1c.44-.24.74-.62.83-1.06.49-2.58 2.8-3.53 2.82-3.83.02-.33-.54-.2-.52-.43.03-.41 2.08-.78 2.13-1.67.02-.4-.38-.6-.66-.6-.6-.04-1.61.6-1.56-.05.06-1.08 2.7-1.6 2.78-2.72.04-.57-.78-.27-.77-.53.03-.3.95-.65.99-1.31 0-.28-.15-.62-.72-.66-.56-.02-1.7 1.25-2.16.68-.7-.87 1.38-1.6 1.45-2.95.01-.21-.04-.79-.66-.84-.63-.02-1.35.54-1.7.03-.34-.5.6-.75.67-1.61.04-.87-.48-1.33-.93-1.37-.44-.02-.7.24-.95.22-.24 0-.48-.3-.9-.33-.43-.01-1.02.4-1.08 1.25-.04.86.87 1.2.47 1.68-.4.46-1.05-.18-1.68-.22-.62-.03-.75.54-.77.75-.07 1.34 1.72 2.28.93 3.08-.52.52-1.51-.89-2.08-.92-.56-.04-.77.29-.79.56-.04.65.84 1.12.82 1.42 0 .26-.8-.12-.83.44-.06 1.1 2.52 1.95 2.45 3.01-.04.66-.96-.1-1.56-.14-.3 0-.72.13-.75.54-.06.88 1.95 1.49 1.92 1.9-.01.24-.55.04-.57.36-.03.3 2.22 1.52 2.44 4.11.05.48.33.93.8 1.2l.03.03z"/>
    <path d="M92.37 76.6c.44-.24.74-.63.83-1.07.48-2.57 2.8-3.53 2.82-3.83 0-.32-.54-.2-.53-.43.02-.41 2.09-.78 2.13-1.66.03-.4-.38-.6-.67-.61-.59-.04-1.6.6-1.56-.05.07-1.08 2.73-1.6 2.8-2.71.03-.56-.78-.26-.77-.54.01-.29.94-.65.98-1.3.02-.28-.14-.63-.72-.67-.55-.02-1.7 1.25-2.16.69-.7-.88 1.37-1.6 1.46-2.94 0-.23-.05-.8-.66-.84-.63-.04-1.36.52-1.7 0-.36-.5.6-.74.65-1.6.06-.86-.48-1.33-.92-1.37-.43-.02-.7.24-.94.22-.25 0-.48-.3-.9-.31-.43-.03-1.02.38-1.08 1.23-.06.87.87 1.2.46 1.68-.4.46-1.05-.18-1.68-.21-.61-.04-.75.54-.76.74-.08 1.34 1.72 2.3.93 3.08-.52.52-1.52-.88-2.08-.92-.56-.02-.77.29-.8.56-.03.65.85 1.12.82 1.42 0 .26-.79-.12-.82.44-.08 1.1 2.5 1.95 2.43 3.02-.03.66-.96-.11-1.56-.14-.27 0-.7.12-.74.53-.05.89 1.95 1.49 1.92 1.9 0 .24-.54.05-.57.36-.02.31 2.22 1.52 2.45 4.11.05.48.33.94.8 1.2l.03.04z"/>
    <path d="M91.66 75.85c.31-.38.44-.86.35-1.3-.57-2.56 1.17-4.36 1.08-4.64-.12-.3-.58.04-.67-.19-.14-.38 1.6-1.52 1.3-2.36-.14-.39-.6-.41-.85-.3-.55.2-1.23 1.2-1.45.58-.36-1.02 1.86-2.55 1.49-3.6-.2-.54-.82.06-.91-.19-.11-.27.6-.97.4-1.58-.1-.25-.4-.5-.93-.33-.53.18-1.08 1.82-1.72 1.48-1-.53.63-2.02.16-3.29-.06-.2-.36-.72-.94-.5-.6.2-1.03 1.02-1.55.7-.51-.34.27-.94-.03-1.75-.3-.81-.97-1.03-1.38-.88-.41.15-.55.48-.78.57-.24.09-.54-.1-.96.06-.41.15-.78.76-.48 1.57.29.82 1.27.77 1.08 1.36-.18.6-1.03.25-1.62.47-.59.21-.48.79-.4.98.46 1.27 2.49 1.43 2.07 2.46-.28.69-1.74-.21-2.27-.02-.53.2-.6.57-.48.84.2.6 1.2.68 1.3.96.09.25-.77.19-.6.72.39 1.04 3.08.8 3.45 1.81.22.6-.92.29-1.49.5-.26.09-.6.4-.45.77.3.84 2.37.6 2.52.99.07.24-.5.26-.39.56.1.28 2.64.52 3.88 2.8.23.42.66.72 1.2.79l.03.01z"/>
    <path d="M115.55 93.53c.39-.31.88-.42 1.32-.33 2.55.62 4.36-1.1 4.65-.98.3.12-.04.56.19.65.37.14 1.56-1.56 2.4-1.26.36.13.38.6.27.84-.2.56-1.2 1.22-.6 1.46 1.01.37 2.58-1.82 3.62-1.44.54.2-.08.83.18.94.27.1.98-.6 1.6-.36.24.08.5.38.3.92-.2.53-1.84 1.05-1.52 1.68.53 1.01 2.04-.57 3.29-.12.2.1.72.39.48.96-.22.6-1.03 1.02-.72 1.54.32.51.93-.24 1.74.06.8.31 1.03.98.86 1.39-.15.4-.49.54-.59.78-.08.24.09.55-.07.96-.17.4-.78.77-1.58.47-.8-.31-.75-1.29-1.32-1.1-.6.16-.28 1.03-.5 1.61-.21.6-.79.46-1 .4-1.26-.48-1.38-2.52-2.43-2.11-.68.26.2 1.74 0 2.28-.2.51-.6.57-.85.48-.6-.24-.67-1.23-.95-1.35-.24-.08-.2.77-.73.58-1.03-.38-.73-3.08-1.75-3.48-.6-.23-.3.92-.52 1.49-.1.26-.4.6-.78.45-.84-.3-.56-2.38-.94-2.53-.23-.08-.28.48-.58.36-.28-.1-.47-2.65-2.74-3.92a1.56 1.56 0 0 1-.76-1.21v-.05z"/>
    <path d="M112.24 77.66c-.1-.49 0-.96.3-1.32 1.68-2 .96-4.4 1.2-4.6.24-.22.48.28.66.12.3-.28-.72-2.1-.06-2.7.3-.28.7-.09.9.12.4.44.54 1.63 1.02 1.2.8-.74-.48-3.14.35-3.9.42-.36.7.45.9.26.21-.2-.09-1.15.38-1.58.22-.18.58-.28.96.14.39.4.12 2.11.84 2.1 1.12 0 .39-2.08 1.37-2.98.17-.15.65-.48 1.08 0 .42.45.43 1.37 1.04 1.31.6-.06.2-.95.83-1.53.63-.58 1.35-.47 1.63-.15.3.33.27.7.44.88.18.18.52.17.81.49.3.32.35 1.03-.29 1.62-.62.6-1.47.1-1.58.7-.1.6.8.7 1.24 1.17.42.46.04.91-.11 1.07-1 .91-2.87.12-2.97 1.22-.07.72 1.65.62 2.02 1.04.38.4.26.78.06.96-.48.44-1.4.06-1.6.25-.2.19.6.54.17.92-.81.75-3.1-.72-3.89.01-.48.45.7.69 1.1 1.12.19.2.34.64.04.91-.66.6-2.37-.56-2.67-.29-.2.16.3.46.06.68-.22.2-2.58-.76-4.74.7a1.56 1.56 0 0 1-1.43.14h-.04z"/>
    <path d="M115.8 81.94c.11-.48.41-.87.82-1.06 2.38-1.1 2.76-3.56 3.05-3.66.31-.08.31.48.55.4.4-.11.25-2.19 1.1-2.45.39-.12.66.23.75.48.18.57-.2 1.71.42 1.52 1.02-.32.91-3.03 1.97-3.36.54-.18.43.7.7.61.28-.08.41-1.08 1.04-1.26.26-.08.63 0 .8.54.16.54-.8 1.96-.14 2.27 1.03.48 1.23-1.71 2.52-2.12.2-.06.78-.15.96.45.18.6-.2 1.44.38 1.65.58.21.58-.77 1.4-1.02.83-.27 1.42.14 1.54.56.12.41-.06.72.02.97.08.24.41.39.53.8.12.42-.12 1.08-.96 1.34-.81.25-1.38-.55-1.73-.04-.36.5.42.98.6 1.56.2.6-.33.88-.54.94-1.3.4-2.64-1.12-3.21-.16-.39.64 1.22 1.25 1.39 1.8.16.53-.1.8-.36.9-.61.18-1.28-.56-1.56-.48-.25.09.31.75-.24.92-1.04.33-2.47-1.97-3.52-1.65-.6.2.34.91.5 1.49.1.26.06.7-.33.84-.85.26-1.92-1.54-2.3-1.4-.24.06.08.54-.24.63-.28.1-2-1.8-4.56-1.39a1.56 1.56 0 0 1-1.37-.48v-.07z"/>
    <path d="M102.38 85.56a1.56 1.56 0 0 1 .34-1.3c1.74-1.96 1.12-4.38 1.35-4.57.24-.21.48.3.66.15.31-.27-.64-2.12.03-2.7.32-.27.71-.06.9.15.39.45.47 1.65.98 1.23.81-.71-.38-3.15.46-3.87.42-.37.69.46.9.29.22-.2-.06-1.15.44-1.58.2-.18.6-.26.96.18.36.42.03 2.1.76 2.12 1.12.02.45-2.06 1.48-2.94.16-.13.66-.44 1.07.02.4.48.4 1.4 1 1.36.6-.02.23-.92.88-1.49.66-.56 1.36-.43 1.65-.1.28.34.24.7.4.9.16.17.52.19.8.52.3.34.32 1.05-.34 1.61-.65.56-1.48.05-1.6.65-.13.6.77.72 1.18 1.2.4.48.02.91-.14 1.05-1.02.88-2.87.03-3.02 1.13-.1.72 1.62.66 1.98 1.1.36.43.24.79.03.95-.5.44-1.4.03-1.62.2-.22.18.57.56.14.93-.84.72-3.06-.84-3.87-.12-.5.42.67.7 1.05 1.15.2.22.33.65.03.92-.68.57-2.36-.65-2.67-.39-.19.16.3.48.04.69-.23.19-2.55-.86-4.75.52-.41.24-.93.3-1.44.1l-.04-.02z"/>
    <path d="M102.15 78.14a1.57 1.57 0 0 1-.37-1.3c.51-2.57-1.25-4.34-1.16-4.61.11-.31.57.02.65-.2.12-.39-1.63-1.52-1.34-2.36.12-.37.57-.4.84-.31.57.2 1.26 1.18 1.46.55.36-1.02-1.9-2.52-1.56-3.56.2-.54.83.06.93-.2.08-.27-.63-.95-.42-1.58.1-.27.38-.53.9-.33.54.18 1.11 1.8 1.76 1.44.97-.54-.66-2-.23-3.28.07-.2.36-.72.94-.52.59.2 1.04 1.01 1.56.68.5-.34-.28-.93 0-1.74.27-.82.96-1.06 1.37-.92.4.15.56.48.79.57.24.08.54-.1.96.05.4.13.8.74.51 1.56-.27.81-1.27.8-1.06 1.38.2.57 1.05.22 1.63.43.6.2.5.78.43.98-.43 1.29-2.46 1.48-2.03 2.52.29.66 1.73-.26 2.28-.07.52.18.59.56.5.83-.2.6-1.2.72-1.29.98-.1.25.78.2.6.72-.36 1.05-3.06.84-3.4 1.86-.21.63.93.27 1.5.46.26.1.6.4.46.78-.29.84-2.36.63-2.5 1.02-.08.24.5.25.39.56-.09.28-2.64.57-3.83 2.87-.22.42-.66.73-1.19.82h-.03z"/>
    <path d="M102.62 75.53a1.56 1.56 0 0 1-.66-1.17c-.09-2.64-2.22-3.92-2.2-4.22.04-.32.56-.1.6-.36.02-.4-1.94-1.08-1.86-1.96.04-.4.47-.52.74-.5.6.06 1.5.84 1.56.2.1-1.09-2.44-2.02-2.34-3.13.06-.56.82-.13.84-.4.03-.3-.84-.8-.76-1.43 0-.28.24-.6.8-.54.56.04 1.49 1.48 2.04 1 .82-.76-1.12-1.8-.98-3.13.02-.23.16-.79.79-.73.62.06 1.25.73 1.68.29.4-.46-.5-.84-.41-1.7.07-.86.67-1.24 1.12-1.2.43.04.64.33.9.35.25.03.51-.21.94-.18.44.04.96.54.88 1.4-.08.86-1.04 1.06-.72 1.6.32.5 1.08-.03 1.7.04.62.05.65.64.64.86-.12 1.35-2.04 2-1.38 2.9.43.6 1.62-.64 2.18-.6.57.07.72.43.7.7-.06.64-1 .96-1.04 1.25-.03.27.81 0 .75.57-.1 1.1-2.78 1.53-2.89 2.6-.06.65.96.05 1.56.1.28.03.68.25.65.64-.09.9-2.16 1.18-2.19 1.59-.02.24.54.13.5.45-.02.3-2.42 1.17-3.05 3.69a1.6 1.6 0 0 1-.96 1.08l-.05.01z"/>
    <path d="M89.68 87c.18-.46.16-.96-.07-1.34-1.3-2.28-.17-4.52-.36-4.76-.2-.24-.52.2-.67.02-.24-.33 1.08-1.94.54-2.64-.24-.33-.68-.22-.9-.04-.47.36-.82 1.5-1.22.98-.66-.86 1.01-3 .35-3.87-.36-.45-.77.31-.93.1-.18-.25.28-1.12-.11-1.64-.16-.23-.52-.37-.96-.03-.46.33-.48 2.05-1.2 1.92-1.1-.2 0-2.12-.82-3.18-.12-.17-.55-.58-1.04-.2-.5.38-.69 1.28-1.27 1.12-.6-.17-.03-.96-.56-1.64-.51-.7-1.23-.71-1.58-.45-.35.27-.38.64-.58.78-.19.16-.55.09-.9.36-.34.25-.52.95 0 1.63.52.7 1.44.36 1.44.96 0 .63-.92.57-1.41.94-.5.37-.22.89-.1 1.07.82 1.07 2.8.62 2.71 1.74-.06.72-1.72.31-2.18.63-.44.36-.38.72-.23.95.4.52 1.37.3 1.55.54.16.22-.68.42-.36.88.68.89 3.18-.17 3.84.7.38.52-.82.55-1.28.9-.22.19-.46.57-.2.9.53.71 2.44-.15 2.68.17.14.2-.4.4-.2.66.19.24 2.68-.28 4.53 1.53.36.32.85.48 1.4.4h.03z"/>
    <path d="M87.36 76.64c.2-.45.17-.96-.04-1.34-1.31-2.28-.18-4.51-.36-4.75-.2-.24-.53.2-.69.01-.24-.32 1.08-1.93.54-2.64-.24-.32-.67-.22-.89-.04-.48.36-.81 1.5-1.22.99-.66-.87 1-3 .35-3.88-.35-.44-.77.31-.94.1-.18-.24.29-1.12-.1-1.63-.16-.23-.52-.38-.97-.04-.45.34-.48 2.05-1.2 1.92-1.1-.2 0-2.11-.81-3.18-.12-.17-.55-.58-1.05-.2-.49.38-.68 1.28-1.27 1.12-.59-.16-.02-.96-.55-1.64-.52-.7-1.24-.7-1.58-.44-.35.26-.39.63-.58.78-.2.15-.55.08-.9.36-.35.25-.53.94 0 1.63.52.7 1.45.36 1.44.96 0 .62-.92.56-1.42.93-.49.38-.21.9-.1 1.07.84 1.07 2.82.63 2.72 1.74-.06.72-1.73.3-2.17.64-.46.36-.4.72-.24.95.4.51 1.38.3 1.55.54.15.21-.69.42-.35.87.67.89 3.17-.17 3.83.7.38.53-.82.55-1.29.91-.21.18-.44.56-.2.89.54.72 2.45-.15 2.69.18.15.2-.39.4-.2.66.18.24 2.68-.29 4.54 1.52.34.33.84.48 1.38.4h.05z"/>
    <path d="M88.16 78.22a1.52 1.52 0 0 0-.72-1.14c-2.2-1.34-2.34-3.86-2.6-3.98-.3-.12-.37.45-.57.36-.36-.16-.05-2.24-.84-2.59-.36-.15-.67.17-.78.43-.22.56.05 1.74-.53 1.5-.96-.42-.6-3.15-1.6-3.57-.5-.22-.48.67-.72.56-.27-.12-.3-1.13-.88-1.38-.24-.1-.63-.06-.82.48-.22.52.6 2.04-.06 2.28-1.03.4-1.04-1.83-2.23-2.35-.2-.07-.76-.22-.96.37-.23.59.05 1.47-.52 1.62-.57.17-.49-.83-1.26-1.16-.78-.33-1.38.02-1.53.43-.16.4-.02.74-.11.97-.09.24-.41.36-.58.77-.15.4.04 1.1.82 1.44.77.32 1.38-.43 1.67.1.3.54-.5.94-.72 1.53-.24.59.24.89.44.97 1.2.52 2.64-.88 3.1.15.3.66-1.29 1.15-1.48 1.68-.2.53.02.84.26.93.58.26 1.28-.43 1.54-.32.24.12-.36.72.14.94.99.43 2.56-1.78 3.52-1.35.58.25-.4.9-.62 1.44-.1.28-.1.73.26.89.8.34 1.97-1.37 2.32-1.22.21.1-.12.54.16.67.27.12 2.08-1.65 4.53-1.01.44.12.93 0 1.34-.36l.04-.02z"/>
    <path d="M82.91 89.16a1.52 1.52 0 0 0-.91-1c-2.48-.9-3.05-3.32-3.34-3.4-.3-.05-.27.51-.52.46-.39-.1-.42-2.17-1.3-2.37-.4-.09-.66.27-.72.55-.12.58.36 1.68-.28 1.55-1.05-.24-1.15-2.95-2.23-3.2-.55-.11-.38.73-.65.68-.28-.07-.5-1.05-1.12-1.19-.27-.06-.65.06-.76.6-.12.55.96 1.88.31 2.24-.97.56-1.35-1.6-2.67-1.9-.2-.04-.8-.08-.94.54-.13.6.31 1.41-.24 1.66-.55.27-.64-.72-1.48-.9-.84-.19-1.39.26-1.5.69-.1.42.12.72.06.96s-.37.42-.46.84c-.09.43.22 1.08 1.06 1.27.84.18 1.32-.66 1.72-.2.4.49-.34 1.03-.48 1.63-.13.61.42.84.62.87 1.32.3 2.55-1.32 3.2-.4.42.6-1.13 1.34-1.25 1.9-.12.54.15.8.43.87.64.13 1.24-.66 1.54-.59.26.06-.26.76.3.89 1.08.24 2.31-2.16 3.36-1.93.64.13-.24.93-.39 1.5-.06.28.01.73.42.81.87.2 1.78-1.68 2.17-1.58.24.06-.03.55.28.62.29.07 1.85-1.95 4.45-1.77.48.03.96-.17 1.32-.6l.03-.03z"/>
    <path d="M86.6 93.06a1.55 1.55 0 0 0-1.32-.18c-2.48.88-4.47-.6-4.74-.47-.3.16.1.55-.12.67-.36.18-1.72-1.39-2.51-1-.36.2-.33.64-.2.88.28.53 1.34 1.08.76 1.36-.96.48-2.76-1.51-3.74-1-.52.24.17.8-.07.92-.27.13-1.05-.48-1.62-.2-.24.12-.47.46-.2.95.24.5 1.94.83 1.67 1.5-.4 1.05-2.06-.36-3.26.27-.2.08-.67.44-.39 1 .3.54 1.14.88.88 1.43-.26.55-.96-.14-1.73.25-.77.4-.9 1.1-.7 1.48.2.38.56.48.68.7.12.21-.03.55.18.93.19.39.84.67 1.62.29.77-.4.6-1.36 1.2-1.25.6.12.38 1 .67 1.55.29.55.84.36 1.04.28 1.2-.62 1.1-2.64 2.19-2.36.7.2 0 1.74.25 2.24.25.49.65.51.89.4.57-.3.53-1.3.79-1.42.24-.12.29.73.8.48.99-.5.39-3.12 1.35-3.63.57-.3.4.89.67 1.4.12.26.48.55.83.37.79-.41.3-2.43.66-2.6.21-.13.31.44.6.3.26-.14.19-2.67 2.29-4.18.4-.28.64-.75.64-1.29v-.05z"/>
    <path d="M91.13 92.33a1.52 1.52 0 0 0-.98-.9c-2.53-.72-3.31-3.07-3.6-3.12-.33-.05-.24.51-.48.48-.4-.06-.6-2.13-1.49-2.26-.4-.06-.61.34-.66.6-.08.6.48 1.66-.17 1.56-1.07-.14-1.39-2.83-2.48-2.99-.57-.08-.33.76-.59.72-.29-.04-.59-1-1.21-1.08-.28-.04-.64.1-.71.65-.08.55 1.1 1.8.5 2.2-.92.62-1.47-1.49-2.82-1.68-.21-.04-.79-.03-.87.6-.09.62.42 1.38-.11 1.68-.53.3-.7-.67-1.56-.78-.84-.12-1.37.36-1.42.79-.06.42.17.72.14.96-.04.24-.34.43-.39.86-.06.45.29 1.06 1.15 1.18.86.12 1.29-.76 1.7-.32.44.44-.26 1.03-.33 1.65-.08.61.47.8.69.82 1.33.19 2.4-1.53 3.14-.66.48.55-1 1.43-1.08 1.98-.08.55.23.79.5.83.65.1 1.18-.74 1.48-.71.26.03-.2.78.36.85 1.1.17 2.14-2.33 3.2-2.16.65.08-.18.95-.26 1.54-.04.27.07.72.48.76.86.12 1.62-1.8 2.03-1.75.24.04 0 .55.32.6.29.05 1.68-2.09 4.27-2.1.48 0 .96-.24 1.26-.68l.03-.04z"/>
    <path d="M91.04 92.5c.25-.45.28-.93.12-1.35-.96-2.45.45-4.49.32-4.75-.17-.29-.55.12-.67-.1-.2-.36 1.33-1.77.9-2.54-.2-.36-.65-.3-.89-.16-.52.3-1.02 1.38-1.33.8-.52-.94 1.41-2.81.89-3.78-.28-.5-.8.2-.93-.04-.14-.26.43-1.07.12-1.63-.13-.24-.45-.43-.95-.16-.48.28-.75 1.97-1.44 1.74-1.08-.37.28-2.09-.38-3.27-.1-.18-.47-.64-1-.35-.55.31-.85 1.17-1.41.93-.57-.24.1-.96-.31-1.71-.41-.76-1.12-.87-1.5-.65-.38.22-.46.58-.68.68-.21.12-.55 0-.93.22-.37.23-.65.88-.23 1.63.42.77 1.37.57 1.3 1.17-.1.6-.99.42-1.53.72s-.35.84-.24 1.04c.65 1.18 2.67 1 2.43 2.11-.16.71-1.74.05-2.22.33-.48.27-.5.67-.36.9.3.56 1.3.48 1.45.74.12.24-.72.32-.46.83.54.96 3.15.29 3.67 1.22.32.57-.86.45-1.38.72-.24.15-.52.5-.32.84.42.8 2.42.22 2.62.58.12.2-.44.32-.28.61.14.26 2.69.08 4.26 2.15.3.37.77.6 1.32.59h.04z"/>
    <path d="M83.52 85.9c.02-.48-.19-.94-.54-1.23-2.04-1.65-1.8-4.14-2.04-4.3-.28-.16-.43.39-.63.26-.36-.2.3-2.2-.47-2.65-.34-.22-.7.04-.84.3-.32.5-.23 1.7-.78 1.35-.92-.56-.13-3.17-1.08-3.74-.48-.3-.59.56-.82.43-.25-.17-.14-1.15-.7-1.49-.22-.15-.6-.17-.9.33-.3.48.28 2.08-.44 2.22-1.1.19-.75-1.96-1.9-2.68-.18-.12-.72-.32-1.05.2-.32.53-.18 1.44-.78 1.5-.61.06-.37-.9-1.11-1.35-.72-.45-1.4-.2-1.64.17-.22.36-.12.72-.24.93-.13.22-.49.28-.72.65-.24.36-.14 1.08.6 1.54s1.46-.2 1.67.38c.23.58-.65.84-.98 1.37-.33.53.12.92.3 1.02 1.15.7 2.83-.42 3.15.65.2.7-1.5.9-1.78 1.38-.3.48-.1.81.12.96.56.34 1.39-.2 1.64-.05.24.13-.48.63 0 .93.95.58 2.9-1.3 3.82-.72.55.34-.56.8-.87 1.31-.14.24-.21.67.12.89.77.48 2.25-1 2.6-.8.2.13-.23.51.04.7.27.15 2.4-1.26 4.8-.22.45.18.96.14 1.44-.14l.03-.02z"/>
    <path d="M85.13 88.1a1.56 1.56 0 0 0-1.32-.21c-2.5.81-4.46-.73-4.73-.6-.28.12.1.55-.12.66-.37.17-1.68-1.44-2.5-1.06-.35.17-.32.63-.2.88.24.53 1.31 1.1.71 1.39-.97.46-2.72-1.6-3.72-1.13-.5.24.15.8-.1.93-.26.13-1.03-.5-1.61-.23-.26.12-.48.44-.24.95.24.5 1.92.88 1.65 1.56-.43 1.04-2.06-.42-3.27.16-.2.09-.69.42-.41.99.27.56 1.11.92.84 1.47-.28.56-.95-.16-1.73.2-.78.37-.92 1.09-.74 1.47.18.4.54.5.64.72.1.24-.03.55.16.95.18.4.84.72 1.6.34.79-.36.66-1.35 1.26-1.23.6.12.34 1.02.62 1.59.26.56.83.4 1.02.28 1.22-.57 1.18-2.6 2.26-2.29.7.2-.05 1.74.19 2.26.24.5.63.53.87.4.6-.27.57-1.27.84-1.4.24-.12.28.75.78.5 1.01-.46.48-3.13 1.47-3.6.59-.27.38.9.63 1.45.12.24.46.54.82.36.8-.36.36-2.4.72-2.6.23-.1.31.46.6.33.26-.12.25-2.69 2.4-4.14.4-.28.66-.75.67-1.29v-.04z"/>
    <path d="M89.98 91.73a1.56 1.56 0 0 0-1.34.06c-2.28 1.32-4.52.21-4.74.4-.26.19.2.52 0 .67-.32.24-1.94-1.06-2.64-.52-.33.24-.2.68-.03.9.37.48 1.51.8 1.01 1.2-.85.66-3-1-3.88-.31-.45.35.32.75.1.92-.23.18-1.12-.27-1.63.12-.22.17-.36.52-.03.96.35.45 2.07.48 1.94 1.19-.2 1.1-2.1.01-3.17.84-.18.12-.58.56-.2 1.06.38.49 1.28.66 1.12 1.24-.15.6-.96.04-1.64.57-.67.53-.69 1.25-.42 1.6.26.33.62.37.78.57.14.2.08.55.35.89.26.36.96.53 1.64 0 .67-.54.35-1.45.96-1.45.6 0 .54.9.92 1.4.39.48.9.22 1.08.07 1.06-.81.6-2.8 1.72-2.71.72.06.32 1.72.66 2.16.34.46.72.4.94.22.51-.39.28-1.37.52-1.54.23-.16.44.68.88.34.88-.69-.18-3.17.67-3.84.52-.4.55.8.93 1.27.16.21.56.44.87.2.71-.54-.14-2.43.18-2.69.2-.15.4.38.66.18.23-.18-.31-2.67 1.48-4.54.33-.34.48-.84.4-1.38l-.02-.04z"/>
    <path d="M109.2 73.26c-.13-.5 0-.97.28-1.32 1.7-2.02.97-4.4 1.2-4.6.24-.24.48.28.67.11.3-.27-.72-2.09-.06-2.7.3-.27.7-.08.9.12.4.45.54 1.63 1.02 1.2.8-.73-.48-3.14.35-3.89.4-.38.7.44.9.26.22-.2-.08-1.16.38-1.59.22-.19.58-.27.96.13.39.42.12 2.13.84 2.12 1.12-.02.39-2.08 1.37-3 .16-.14.65-.46 1.08 0 .42.46.43 1.39 1.03 1.33.62-.06.2-.95.84-1.54.63-.59 1.35-.48 1.64-.14.3.32.26.68.43.87.17.18.53.17.81.48.3.34.35 1.05-.28 1.64-.64.58-1.5.1-1.59.7-.1.6.8.7 1.23 1.16.43.46.06.92-.1 1.08-1 .9-2.87.12-2.98 1.22-.06.72 1.66.61 2.04 1.03.36.41.26.78.05.96-.48.45-1.39.06-1.6.25-.21.2.6.53.17.93-.81.74-3.1-.72-3.88 0-.48.44.7.68 1.09 1.13.18.2.35.63.05.9-.66.6-2.4-.56-2.7-.28-.17.16.32.46.08.67-.22.2-2.6-.75-4.74.7a1.56 1.56 0 0 1-1.43.14h-.05z"/>
    <path d="M117 76.92c0-.48.23-.94.6-1.2 2.08-1.6 1.94-4.08 2.19-4.22.27-.17.4.38.61.27.36-.19-.23-2.2.55-2.64.36-.2.71.07.84.31.29.52.17 1.7.72 1.38.96-.52.25-3.15 1.23-3.7.48-.28.57.6.81.45.24-.15.17-1.14.73-1.46.24-.13.63-.13.92.36s-.36 2.07.34 2.24c1.08.24.83-1.93 2-2.6.19-.11.74-.31 1.05.24.31.53.12 1.44.72 1.52.6.09.41-.87 1.15-1.3.75-.43 1.42-.16 1.64.22.21.37.1.72.24.94.12.21.46.29.68.67.22.37.1 1.08-.65 1.51s-1.47-.24-1.7.33c-.24.56.63.86.93 1.4.32.54-.15.91-.33 1.02-1.18.66-2.82-.53-3.18.53-.23.68 1.46.96 1.74 1.44.27.5.08.84-.16.96-.56.32-1.37-.27-1.63-.12-.24.14.46.66-.04.93-.96.54-2.85-1.39-3.79-.86-.56.32.52.82.82 1.34.14.24.2.69-.16.88-.77.44-2.2-1.08-2.54-.88-.2.12.19.52-.09.68-.24.15-2.34-1.32-4.77-.39-.45.17-.97.12-1.43-.19l-.02-.02z"/>
    <path d="M117.33 86.11c.12-.48.42-.87.84-1.08 2.37-1.13 2.72-3.59 3-3.67.32-.12.33.47.56.38.37-.12.23-2.2 1.08-2.47.39-.12.67.22.76.5.18.56-.2 1.7.43 1.5 1.02-.33.88-3.03 1.92-3.37.55-.16.46.69.72.6.28-.08.4-1.08 1.02-1.27.26-.07.64 0 .82.53.16.54-.8 1.97-.12 2.28 1.02.46 1.2-1.74 2.5-2.16.2-.06.77-.14.98.44.19.6-.2 1.44.4 1.66.57.2.57-.78 1.38-1.04.82-.27 1.42.14 1.56.55.14.42-.04.74.03.98s.4.37.54.8c.13.4-.12 1.09-.95 1.34-.82.26-1.4-.54-1.74-.04-.35.5.44.99.64 1.56.19.6-.34.88-.54.94-1.29.42-2.64-1.08-3.22-.12-.36.62 1.24 1.23 1.4 1.76.18.54-.08.83-.36.91-.6.2-1.28-.54-1.56-.44-.26.07.32.73-.22.91-1.05.33-2.51-1.95-3.53-1.63-.63.2.33.91.51 1.48.09.26.05.72-.33.84-.84.27-1.92-1.52-2.32-1.4-.23.08.1.54-.21.65-.3.09-2.03-1.77-4.6-1.35-.48.07-.97-.09-1.36-.48l-.03-.04z"/>
    <path d="M117.95 88.68c.41-.3.89-.4 1.32-.3 2.53.68 4.4-.97 4.68-.85.3.12-.06.56.16.65.36.15 1.6-1.53 2.43-1.2.36.15.36.6.27.86-.24.55-1.25 1.18-.65 1.44 1 .4 2.64-1.75 3.66-1.33.52.21-.1.81.14.92.28.12 1.02-.56 1.62-.32.24.1.48.4.28.93-.23.52-1.87.99-1.56 1.66.48 1 2.04-.53 3.28-.02.2.07.7.38.46.96-.24.57-1.05.98-.76 1.5.3.54.96-.2 1.74.12.79.32 1 1 .84 1.41-.18.41-.52.54-.63.77-.08.23.07.55-.1.96-.17.4-.79.74-1.58.42-.8-.34-.72-1.32-1.3-1.15-.6.15-.3 1.02-.53 1.6-.24.57-.8.44-1.01.35-1.25-.51-1.32-2.54-2.38-2.17-.68.24.16 1.73-.07 2.27-.22.52-.6.56-.84.46-.6-.24-.64-1.25-.91-1.36-.25-.1-.24.77-.76.55-1.02-.43-.65-3.12-1.64-3.53-.6-.24-.33.93-.55 1.47-.1.26-.42.57-.8.43-.81-.34-.49-2.4-.86-2.56-.22-.1-.29.48-.59.35-.27-.12-.4-2.67-2.61-4a1.58 1.58 0 0 1-.75-1.24v-.05z"/>
    <path d="M114.64 93c.46-.16.95-.12 1.33.12 2.25 1.37 4.5.3 4.73.48.25.22-.22.54-.02.68.3.26 1.95-1 2.65-.45.31.25.18.7.01.91-.36.46-1.54.77-1.02 1.19.84.67 3.02-.94 3.89-.24.43.36-.34.77-.12.92.21.18 1.11-.25 1.62.16.23.17.36.53 0 .96-.36.44-2.07.43-1.96 1.14.2 1.1 2.11.07 3.16.91.17.13.56.58.17 1.06-.39.48-1.3.63-1.14 1.23.13.6.96.05 1.63.6.66.54.66 1.25.38 1.6-.27.35-.63.36-.79.55-.16.2-.08.54-.36.89-.29.33-.98.48-1.66-.05-.66-.54-.3-1.46-.9-1.48-.62 0-.58.9-.97 1.38-.4.48-.91.2-1.08.06-1.04-.85-.54-2.82-1.65-2.76-.72.04-.36 1.72-.72 2.16-.36.44-.74.36-.96.18-.5-.4-.24-1.36-.48-1.56-.22-.15-.45.69-.88.33-.86-.7.24-3.17-.6-3.84-.5-.42-.56.78-.94 1.23-.16.22-.57.45-.88.18-.69-.56.21-2.43-.1-2.68-.2-.15-.4.36-.66.16-.24-.18.36-2.66-1.38-4.57a1.62 1.62 0 0 1-.36-1.39l.01-.05z"/>
    <g fill="#000" stroke="none">
      <path d="M95.96 72.28c-.57 1.5-.48 3.16-.39 4.76.29 2.78.12 5.6-.17 8.39-.08.62-.15 1.25-.28 1.86.16-1.61.2-3.22.28-4.84.04-1.73.08-3.45-.07-5.17-.06-1.68-.12-3.47.63-5z"/>
      <path d="M98.15 73.63c-.1.2-.24.36-.38.52-.37.36-.84.66-1.35.81-.12.03-.22.05-.33.05l.53-.37 1.53-1z"/>
      <path d="M95.74 62.12a2.83 2.83 0 0 1-2.05 1.37l.72-.5 1.33-.87z"/>
      <path d="M86.46 60.86c.03.68.2 1.35.41 1.97.27.65.58 1.27.89 1.89l-.22.08c-.3-.64-.6-1.27-.82-1.93a6.65 6.65 0 0 1-.26-2z"/>
      <path d="M86.75 64.27c.46.73.84 1.51 1.1 2.34.03.1.14.48-.04.16a6.9 6.9 0 0 1-1.06-2.5z"/>
      <path d="M86.66 63.74a3.38 3.38 0 0 1-.7-.22l-.72-.3c-.32-.15-.64-.3-.96-.41.22-.06.44-.01.66.03a4.32 4.32 0 0 1 1.72.9z"/>
      <path d="M88.47 67.68c-.66-.06-1.29-.24-1.92-.42l-1.03-.31a4.68 4.68 0 0 0-.44-.11c.64-.1 1.28.07 1.89.24.5.14.97.36 1.44.58h.03z"/>
      <path d="M130.44 98.98c-.63 0-2.4-.44-2.4-.44l.08-.2s1.7.6 2.32.64z"/>
      <path d="M108.46 80.48c-.9.9-1.8 1.8-2.76 2.6-.48.42-.96.82-1.46 1.2.32-.42.7-.82 1.08-1.2.66-.63 1.3-1.28 2.04-1.82.36-.27.72-.54 1.1-.78z"/>
      <path d="M109.17 80a6.8 6.8 0 0 1 3.31.9l-1.2-.28c-.3-.06-.6-.12-.88-.22a22.8 22.8 0 0 1-1.23-.4z"/>
      <path d="M107.56 82.88c.36.05.7.16 1.02.3l.31.11.3.16c-.3.07-.6.05-.89-.07a2.02 2.02 0 0 1-.4-.2c-.11-.1-.26-.18-.34-.3z"/>
      <path d="M103.91 59.72a9 9 0 0 1 .05 4c-.36 1.9-.8 3.77-1 5.7-.24 1.75-.42 3.5-.52 5.27a43.5 43.5 0 0 1 .43-6.72c.23-2.16 1.03-4.2 1.14-6.39a6.36 6.36 0 0 0-.1-1.86z"/>
      <path d="m101.52 60.72.95.84.57.54.28.29a2.98 2.98 0 0 1-1.7-1.42 1.18 1.18 0 0 1-.1-.26v.01z"/>
      <path d="M100.1 68.68c.22-.02.43.04.63.1.59.22 1.12.58 1.54 1.04-.48-.2-.96-.44-1.4-.7-.17-.1-.34-.18-.49-.29l-.26-.14z"/>
      <path d="M100.2 64.58a3.94 3.94 0 0 1 2.3 1.86c-.33-.24-.64-.5-.96-.76l-.82-.69-.53-.4z"/>
      <path d="M103.67 66.84a6.83 6.83 0 0 1 3.07-1.67c-.34.16-.64.39-.98.58l-.91.53c-.17.1-.34.2-.52.27l-.66.29z"/>
      <path d="M77.96 63.89c.57 1.58 1.83 2.78 2.94 4 2.28 2.19 4.2 4.75 5.9 7.42.24.41.8 1.4-.35-.33a90.12 90.12 0 0 0-6.9-8.22 7.72 7.72 0 0 1-1.6-2.87z"/>
      <path d="M79.24 67.06c.37.26.68.62 1 .94.13.12.21.24.32.36.2.24.38.47.53.72.06.1.2.32-.12-.03a7.44 7.44 0 0 1-1.73-2z"/>
      <path d="M80.51 63.48c.12.38.05.8-.05 1.16-.12.45-.28.9-.6 1.23.05-.31.15-.63.23-.94l.13-.51.3-.94z"/>
      <path d="M85.91 69.5c-.32.6-.63 1.2-1 1.8-.07.1-.14.2-.23.3a3.67 3.67 0 0 1 .79-1.74c.12-.14.27-.27.44-.36z"/>
      <path d="m83.68 66.07-.78 2.22-.23.61a4.32 4.32 0 0 1 .35-1.8c.14-.4.36-.75.67-1.03z"/>
      <path d="M79 66.58c-.78 0-1.56-.1-2.34-.18-.06-.02-.29 0-.13-.05.31-.15.66-.12 1-.12.51.02 1 .17 1.47.35z"/>
      <path d="M74.08 71.88c1.54 1.3 3.55 1.74 5.44 2.28 1.2.42 2.4.89 3.62 1.27.34.12.96.31.32.15l-2.54-.6c-2.12-.9-4.54-1.2-6.4-2.7a4.92 4.92 0 0 1-.44-.4z"/>
      <path d="M76.7 74a6.72 6.72 0 0 1 1.84.52c.28.12.56.23.8.4a6.35 6.35 0 0 1-1.8-.48c-.3-.1-.57-.28-.83-.45z"/>
      <path d="M76.01 70.21a3.05 3.05 0 0 1 .67 2.26c0 .06-.03.26-.06.1-.1-.33-.19-.67-.26-1L76 70.2z"/>
      <path d="M83.44 72.72c.02.61.06 1.22.05 1.84 0 .21 0 .43-.06.64a3.94 3.94 0 0 1-.22-1.8c.04-.24.1-.48.22-.7l.01.02z"/>
      <path d="M79.92 70.85c.12.75.27 1.5.42 2.24l.12.73a4.32 4.32 0 0 1-.62-2.52c0-.15.04-.3.08-.45z"/>
      <path d="M76.26 73.7a5.8 5.8 0 0 1-.74.45l-.53.24-.54.25c-.12.06-.26.12-.38.2.1-.19.26-.33.43-.48a3.74 3.74 0 0 1 1.76-.66z"/>
      <path d="M80.26 75.04c-.85.75-1.85 1.33-2.8 1.94.26-.38.63-.68 1-.96a7.5 7.5 0 0 1 1.8-.98z"/>
      <path d="M70.52 87.06a12.73 12.73 0 0 1 2.22.24c.21.05.42.1.62.2a7.02 7.02 0 0 1-2.84-.44z"/>
      <path d="M70.01 86.87c-.32.33-.72.57-1.1.84-.29.19-.58.37-.85.57-.06.05-.12.09-.06 0 .16-.36.48-.6.78-.82.37-.27.79-.47 1.23-.6z"/>
      <path d="M83.54 78.54c.36 1.64 1.4 3.02 2.36 4.37a41.56 41.56 0 0 1 4.86 8.41c.29.72-.31-.58-.46-.8-1-1.76-1.99-3.52-3.07-5.22-1.3-2.02-2.99-3.88-3.6-6.24a4.49 4.49 0 0 1-.1-.52z"/>
      <path d="M87.09 85.63a17.52 17.52 0 0 1 1.51 2.44 26.52 26.52 0 0 1 1.15 2.61 26.52 26.52 0 0 1-1.39-2.48l-.65-1.26c-.23-.43-.43-.85-.62-1.3z"/>
      <path d="M70.13 77.4c1.72 1.87 4.25 2.53 6.42 3.68 1.95 1.2 3.84 2.49 5.8 3.66a80.35 80.35 0 0 0-8.88-4.8 9.24 9.24 0 0 1-3.33-2.54z"/>
      <path d="M72.48 79.88c.87.24 1.66.7 2.4 1.23.04.05.23.15.06.1a5.74 5.74 0 0 1-2.46-1.34z"/>
      <path d="M72.36 76.1c.12.17.22.38.28.57a3 3 0 0 1 .12.62 2.9 2.9 0 0 1-.14 1.26l-.09-.62-.05-.61z"/>
      <path d="M76.26 77.36v.75l.04.74.04.75c0 .25.02.49 0 .75a4.3 4.3 0 0 1-.3-2.25c.06-.24.12-.5.24-.74z"/>
      <path d="M72.08 79.54c-.2.1-.41.15-.6.24l-.6.16-.62.15c-.21.05-.4.1-.6.17.12-.17.33-.28.52-.39a3.85 3.85 0 0 1 1.9-.33z"/>
      <path d="M75.95 81.5c-.24.16-.51.28-.77.41l-.79.36-.8.31-.8.34c.2-.22.45-.4.7-.54a6.36 6.36 0 0 1 1.62-.7l.84-.19z"/>
      <path d="M70.72 94.74a6.6 6.6 0 0 0 1.8-.54c.58-.25 1.13-.55 1.67-.88.54-.32 1.07-.66 1.58-1.02.52-.36 1.07-.68 1.61-1a46.48 46.48 0 0 1 5.12-2.45c.6-.24 1.18-.48 1.77-.66-.58.24-1.14.5-1.7.78l-1.7.84c-.56.27-1.13.55-1.68.85a46.03 46.03 0 0 0-3.27 1.88c-.53.34-1.07.68-1.62.98-.56.3-1.13.58-1.72.8-.6.22-1.21.4-1.85.42z"/>
      <path d="M74.08 94.12a6.72 6.72 0 0 1 1.82-1.16c.23-.1.45-.19.69-.27a6.84 6.84 0 0 1-2.51 1.43z"/>
      <path d="M78.04 91.62c.38-.26.82-.5 1.22-.72a26.52 26.52 0 0 1 2.62-1.16c.44-.17.9-.33 1.36-.45-.41.24-.84.46-1.28.65l-1.3.6-1.3.56c-.42.18-.88.36-1.32.52z"/>
      <path d="M70.84 92.15a2.63 2.63 0 0 1 1.22.32c.18.1.36.2.54.35.17.12.33.28.45.46l-.57-.28-.54-.28z"/>
      <path d="m77.84 88.08.46.4.48.38.45.4c.15.14.3.28.43.45a3.77 3.77 0 0 1-1.51-1.09 1.32 1.32 0 0 1-.31-.53z"/>
      <path d="m74.02 89.56.64.4.63.38.64.38c.23.12.43.25.65.4a3.82 3.82 0 0 1-1.43-.52 4.36 4.36 0 0 1-.63-.46 2.28 2.28 0 0 1-.5-.58z"/>
      <path d="M73.58 94.26c-.03.23-.09.43-.12.64l-.2.6-.2.6-.2.6a1.56 1.56 0 0 1-.03-.64 3.9 3.9 0 0 1 .4-1.24c.1-.2.21-.38.35-.56z"/>
      <path d="M77.32 92.06c0 .3-.04.6-.06.88l-.13.86-.16.86-.17.86a3.25 3.25 0 0 1-.07-.89 7.03 7.03 0 0 1 .59-2.57z"/>
      <path d="M80.6 91.75a1.96 1.96 0 0 1-.14 1.73c-.03-.16-.02-.3-.02-.43l.02-.43.05-.42c0-.15.05-.3.1-.45z"/>
      <path d="M77.27 101.23c.6-.21 1.14-.54 1.66-.91a24.12 24.12 0 0 0 2.77-2.52c.43-.46.89-.9 1.37-1.32A52.03 52.03 0 0 1 87.54 93c.52-.35 1.05-.7 1.6-1a66.12 66.12 0 0 0-3 2.3l-1.46 1.18-1.44 1.23c-.48.4-.93.84-1.37 1.28-.45.46-.91.89-1.38 1.31a12 12 0 0 1-1.53 1.14c-.5.32-1.06.64-1.68.8z"/>
      <path d="M80.44 99.91c.14-.19.3-.37.47-.55l.51-.5a6.96 6.96 0 0 1 1.16-.86 5.5 5.5 0 0 1-1.53 1.54 4.08 4.08 0 0 1-.62.37z"/>
      <path d="M83.78 96.65a19.78 19.78 0 0 1 2.18-1.84l1.2-.81a12 12 0 0 1 1.24-.71c-.36.31-.75.6-1.1.9l-1.15.84-1.16.83-1.2.79z"/>
      <path d="M76.85 98.68c.2-.06.42-.08.65-.06a3.83 3.83 0 0 1 1.22.32c.2.08.39.2.53.36a11.76 11.76 0 0 1-.6-.16l-.6-.15z"/>
      <path d="m82.84 93.24.54.28.54.27a12.3 12.3 0 0 1 1.04.66 3.12 3.12 0 0 1-1.17-.4 3.12 3.12 0 0 1-.96-.81z"/>
      <path d="m79.43 95.47.7.27.7.24.73.22.7.24c-.25.04-.51 0-.78-.03a4.15 4.15 0 0 1-1.44-.48 1.95 1.95 0 0 1-.6-.46z"/>
      <path d="M83.16 97.25c.08.29.1.59.12.87l.05.88c0 .29 0 .58.03.85 0 .29 0 .58.02.88a2.7 2.7 0 0 1-.25-.84 7.49 7.49 0 0 1 .03-2.64z"/>
      <path d="M86.32 96.25c.1.12.16.25.2.4l.12.42v.45a1.18 1.18 0 0 1-.12.44 3.26 3.26 0 0 1-.1-.42l-.06-.42a4.82 4.82 0 0 1-.05-.87z"/>
      <path d="M120.71 62.35a6 6 0 0 1-1.07 1.56c-.42.48-.9.91-1.39 1.32-.48.4-1 .76-1.51 1.13a28.52 28.52 0 0 0-2.96 2.34c-.48.4-.95.83-1.43 1.24l-1.4 1.27c-.46.42-.93.84-1.37 1.3a36.5 36.5 0 0 1 2.61-2.73c.93-.86 1.85-1.7 2.85-2.52.48-.38 1-.76 1.52-1.12l1.54-1.09c.48-.38.97-.78 1.42-1.22a6.48 6.48 0 0 0 1.2-1.48z"/>
      <path d="M118.89 65.24a5.53 5.53 0 0 1-1.61 1.44c-.22.14-.42.27-.65.36a7.43 7.43 0 0 1 1.06-1c.18-.15.38-.3.57-.42.2-.12.41-.27.63-.36z"/>
      <path d="M115.1 67.98a20 20 0 0 1-.98 1.04l-1 1a41.58 41.58 0 0 1-2.13 1.92 27.86 27.86 0 0 1 2.97-3.08c.37-.32.75-.6 1.14-.88z"/>
      <path d="m118.28 61.5.12 1.24.06.6.04.63a1.8 1.8 0 0 1-.26-.6 2.95 2.95 0 0 1-.12-.61 2.9 2.9 0 0 1 .16-1.26z"/>
      <path d="M111.9 66.48c.17.13.3.31.39.48a3.64 3.64 0 0 1 .45 1.8 3.84 3.84 0 0 1-.26-.55l-.2-.58-.2-.57-.18-.58z"/>
      <path d="M114.69 63.5a3.12 3.12 0 0 1 .54 1.42c.03.25.05.5.05.77 0 .24-.03.5-.1.75a7.64 7.64 0 0 1-.13-.75l-.11-.72-.12-.75z"/>
      <path d="M119.22 64.84c.2-.06.42-.1.64-.12.23-.02.43-.03.65-.02.21.02.43.05.65.1.2.05.42.12.6.28a6.16 6.16 0 0 0-.64-.06l-.64-.04a11.76 11.76 0 0 1-1.26-.14z"/>
      <path d="M115.8 67.49a7.62 7.62 0 0 1 3.39.8c-.29-.07-.58-.12-.85-.17l-.86-.18c-.28-.04-.56-.12-.85-.19a5.47 5.47 0 0 1-.84-.26z"/>
      <path d="M114.28 70.42c.17 0 .3.03.44.06l.41.12.41.14.4.17c-.15.05-.3.06-.45.05a1.84 1.84 0 0 1-.84-.26 1.14 1.14 0 0 1-.36-.28z"/>
      <path d="M130.68 68.9a5.88 5.88 0 0 1-1.39 1.28 14 14 0 0 1-1.64.96c-.57.28-1.15.52-1.74.76a32.86 32.86 0 0 0-3.4 1.61c-.56.3-1.1.6-1.68.89l-1.64.91c-.55.31-1.1.63-1.62.96.48-.4 1.02-.72 1.56-1.08l1.6-.98a55.6 55.6 0 0 1 3.33-1.8 22.4 22.4 0 0 1 1.74-.76c.6-.23 1.16-.48 1.74-.72.58-.26 1.13-.54 1.67-.86.53-.33 1.04-.7 1.47-1.17z"/>
      <path d="M128.25 71.3a6.74 6.74 0 0 1-2.6 1.25l.62-.4a11.32 11.32 0 0 1 1.3-.62c.21-.08.44-.17.68-.23z"/>
      <path d="m123.95 73.13-1.19.79-1.2.74-1.23.72c-.42.24-.84.48-1.27.69a16.44 16.44 0 0 1 2.34-1.63c.4-.24.81-.48 1.23-.7.43-.24.87-.44 1.32-.61z"/>
      <path d="m128.5 67.52-.17 1.24-.08.6-.1.62c-.08-.19-.12-.4-.12-.63-.02-.2 0-.42.01-.63.03-.21.08-.42.16-.62.06-.2.16-.4.3-.58z"/>
      <path d="M124.55 68.66c.1.24.16.5.2.75a5.8 5.8 0 0 1-.13 1.53c-.04.24-.13.5-.26.72l.04-.75.06-.75.06-.74z"/>
      <path d="M128.67 70.98a3.6 3.6 0 0 1 1.88.4c.2.12.4.22.52.42a5.9 5.9 0 0 0-.6-.2l-.6-.18-.6-.19a3.89 3.89 0 0 1-.6-.25z"/>
      <path d="M124.72 72.8a7.15 7.15 0 0 1 3.14 1.55l-.79-.37-.8-.36-.78-.37a6.4 6.4 0 0 1-.77-.46z"/>
      <path d="M122.6 75.3c.14.05.27.1.4.18.12.06.26.12.36.2l.36.22c.12.08.24.16.36.26a1.18 1.18 0 0 1-.44-.06 1.81 1.81 0 0 1-.4-.18c-.13-.08-.25-.15-.37-.26a1.2 1.2 0 0 1-.27-.36z"/>
      <path d="M132.36 81.05c-.48.4-1.05.72-1.62.96-.6.24-1.2.44-1.8.6-.6.17-1.24.29-1.86.4a32.66 32.66 0 0 0-3.66.88l-1.8.53c-.6.18-1.22.36-1.8.55-.6.2-1.2.37-1.8.6a22.3 22.3 0 0 1 1.74-.74l1.78-.64c1.2-.4 2.4-.77 3.62-1.08.62-.14 1.25-.29 1.88-.37a50.16 50.16 0 0 0 1.84-.36 17.28 17.28 0 0 0 1.8-.5c.6-.22 1.18-.47 1.68-.84z"/>
      <path d="M129.5 82.9a7.86 7.86 0 0 1-2.08.64c-.24.04-.48.06-.72.05.22-.12.44-.2.68-.26l.69-.2.7-.15c.25-.05.49-.08.73-.08z"/>
      <path d="M124.91 83.8c-.43.19-.87.36-1.32.52l-1.33.5-1.34.46c-.46.15-.92.3-1.37.4a26.68 26.68 0 0 1 3.98-1.56 11.16 11.16 0 0 1 1.38-.32z"/>
      <path d="m130.5 79.24-.4 1.16-.2.58-.22.58c-.05-.21-.03-.43 0-.64a3.7 3.7 0 0 1 .42-1.2c.12-.16.24-.34.4-.48z"/>
      <path d="M126.41 79.55c.06.25.06.51.04.77a4.44 4.44 0 0 1-.84 2.13l.2-.74.2-.72.22-.71z"/>
      <path d="M129.96 82.66a3.53 3.53 0 0 1 1.23.43c.19.1.36.23.54.36.15.14.33.3.42.5a5 5 0 0 0-.55-.31l-.56-.29-.55-.3-.53-.4z"/>
      <path d="M125.74 83.64a10.13 10.13 0 0 1 2.2 1.46c.21.2.42.42.57.69-.24-.2-.48-.35-.7-.52-.25-.18-.49-.33-.7-.51-.24-.17-.47-.36-.7-.54a3.48 3.48 0 0 1-.67-.6z"/>
      <path d="M132.7 94.52c-.64 0-1.27-.13-1.87-.3-.6-.21-1.2-.45-1.75-.73-.58-.27-1.13-.57-1.68-.89-.56-.3-1.1-.6-1.67-.87l-1.7-.82-1.72-.77-1.74-.73c-.59-.24-1.17-.48-1.77-.7.63.15 1.2.35 1.8.56a46.4 46.4 0 0 1 5.24 2.18c.57.29 1.14.6 1.68.91.54.33 1.08.64 1.63.93.55.29 1.11.56 1.7.78.61.21 1.2.4 1.85.45z"/>
      <path d="M129.32 94.08a4.78 4.78 0 0 1-1.37-.5c-.23-.1-.43-.23-.64-.35a3.96 3.96 0 0 1-.6-.43c.25.06.48.13.7.22a16.56 16.56 0 0 1 1.3.65c.21.12.4.27.6.41z"/>
      <path d="m132.44 91.94-1.06.64-.53.3a24 24 0 0 1-.55.3c.1-.18.26-.34.42-.48a3.25 3.25 0 0 1 1.72-.76z"/>
      <path d="M125.24 88.27c-.05.2-.16.39-.3.57a4.06 4.06 0 0 1-.9.86c-.16.12-.35.22-.54.3.12-.18.26-.32.4-.48l.44-.42.45-.42.45-.4z"/>
      <path d="M129.11 89.53a2.4 2.4 0 0 1-.47.61 5.42 5.42 0 0 1-1.26.86c-.24.1-.48.19-.72.24.2-.16.41-.3.6-.44l.64-.42.61-.4z"/>
      <path d="M129.83 94.2a4.58 4.58 0 0 1 .83 1.74c.04.22.07.44 0 .65-.06-.2-.14-.4-.22-.6l-.24-.59a9.17 9.17 0 0 1-.21-.6 3.96 3.96 0 0 1-.16-.6z"/>
      <path d="M125.97 92.22a7.15 7.15 0 0 1 .57 1.66c.06.28.12.57.15.87.03.29.05.6-.03.89l-.2-.85-.2-.84-.2-.85-.1-.88z"/>
      <path d="M122.68 92.09c.06.15.1.29.12.43.04.13.06.28.07.4.03.15.04.28.04.43.01.13.02.29.01.43a1.43 1.43 0 0 1-.34-.83 1.96 1.96 0 0 1 0-.44c0-.12.04-.28.1-.42z"/>
      <path d="M127.1 102.8a6 6 0 0 1-1.7-.84 10.87 10.87 0 0 1-1.48-1.17c-.48-.42-.93-.88-1.36-1.32a28.92 28.92 0 0 0-1.33-1.32l-1.4-1.26-1.45-1.23s.72.18 3.04 2.27c.46.43.92.88 1.33 1.36.43.45.87.9 1.32 1.34.45.43.91.84 1.4 1.23.51.38 1.04.72 1.64.94z"/>
      <path d="M123.99 101.42a4.6 4.6 0 0 1-1.17-.86 7.2 7.2 0 0 1-.94-1.1 10.57 10.57 0 0 1 2.1 1.96z"/>
      <path d="m127.59 100.26-1.2.3-.6.14-.6.15c.15-.16.33-.25.53-.35a3.82 3.82 0 0 1 1.23-.3c.2 0 .43 0 .64.06z"/>
      <path d="M121.72 94.68c-.1.2-.26.35-.43.48a3.7 3.7 0 0 1-1.72.7c.18-.14.36-.23.53-.34l.54-.29.54-.26.55-.28z"/>
      <path d="M125.08 97.02a2.5 2.5 0 0 1-.61.44 4.2 4.2 0 0 1-2.23.48c.24-.1.48-.18.72-.24l.7-.22.72-.22z"/>
      <path d="M124.43 101.69a3.58 3.58 0 0 1 .31 1.25c.03.22.03.44 0 .66-.02.21-.07.45-.18.63 0-.21-.02-.43-.04-.63l-.06-.63a5.68 5.68 0 0 1-.03-1.28z"/>
      <path d="M121.3 98.69a7.51 7.51 0 0 1 .08 1.74c-.02.29-.04.6-.1.87-.05.3-.12.6-.27.86l.05-.88.05-.86.07-.87c.02-.27.05-.56.12-.86z"/>
      <path d="M118.18 97.62v.44l-.05.42-.08.42c-.04.14-.06.28-.12.42a1.18 1.18 0 0 1-.12-.43 1.96 1.96 0 0 1 .37-1.27z"/>
    </g>
    <path class="tertiary" d="M109.16 65.18c-.18.5-.42.98-.66 1.44a10.48 10.48 0 0 0-1.3 4.26c-.08.77-.02 1.55.01 2.3-.1.45-.6.57-.98.6-.43.2-.5-.33-.5-.64A9.08 9.08 0 0 1 107.8 66c.33-.34.7-.64 1.1-.85.07-.05.3-.12.25.03z"/>
    <path class="tertiary" d="M115.02 76.6c-.45.7-1 1.32-1.5 1.98a10.76 10.76 0 0 0-2.01 5.4c-.16.4-.65.49-1.03.43-.46.12-.54-.35-.45-.69a9.36 9.36 0 0 1 2.6-5.8 6 6 0 0 1 1.27-1.05c.33-.18.68-.36 1.06-.4.06 0 .09.07.06.13z"/>
    <path class="tertiary" d="M91.62 69.24c.23 1.08.72 2.06.94 3.14.35 1.64.3 3.36-.12 4.98 0 .45.44.68.84.75.36.26.6-.11.61-.46a9.13 9.13 0 0 0-.4-6.2 4.86 4.86 0 0 0-1.57-2.19c-.07-.07-.33-.26-.3-.02z"/>
    <path class="tertiary" d="M100.74 84.59c.23.73.54 1.44.84 2.15.48.9 1.5 4.7 1.5 4.7s.57-.78.75-1.36c0 0-.75-3.03-1.6-4.32-.36-.51-.8-.96-1.34-1.27-.06-.03-.17.04-.15.1z"/>
    <path class="tertiary" d="M85.36 85.82c.5.6.84 1.29 1.26 1.92a10.7 10.7 0 0 0 4.49 3.9c.32.3.25.78.06 1.12-.04.38-.46.5-.72.22a11.57 11.57 0 0 1-2.5-1.59c-.36-.36-.75-.72-1.05-1.15a9 9 0 0 1-1.53-2.76c-.15-.52-.24-1.08-.15-1.62.02-.07.1-.07.14-.04z"/>
    <path class="tertiary" d="M117.14 91.38c-.54.88-1.3 1.6-1.84 2.5a10.74 10.74 0 0 0-1.68 4.88c-.16.4-.64.5-1.03.43-.41.12-.57-.26-.45-.6.08-.95.24-1.9.6-2.76a9.68 9.68 0 0 1 2.98-3.98c.4-.25.84-.5 1.32-.6.06 0 .17.07.1.13z"/>
    <g>
      <path d="M99.4 81.43c-.06-.48.07-.96.38-1.28 1.8-1.92 1.25-4.35 1.5-4.53.23-.2.47.33.64.17.31-.24-.58-2.13.12-2.7.31-.25.72-.03.89.18.36.47.43 1.67.95 1.26.84-.68-.3-3.15.57-3.84.45-.36.67.48.88.31.24-.19 0-1.15.5-1.56.22-.18.6-.25.94.2.35.45-.03 2.12.7 2.16 1.12.06.51-2.06 1.57-2.9.15-.13.67-.42 1.05.06.4.48.36 1.4.96 1.4.63-.02.27-.94.94-1.48.66-.54 1.37-.38 1.64-.05.28.35.22.71.37.9.17.2.52.2.8.55.27.35.27 1.06-.4 1.6s-1.49 0-1.63.6c-.15.6.75.76 1.15 1.24.38.48 0 .92-.18 1.05-1.04.85-2.87-.07-3.05 1.05-.12.72 1.6.7 1.96 1.15.36.44.2.79 0 .96-.5.4-1.4-.03-1.62.15-.2.18.56.57.12.93-.85.68-3.04-.91-3.88-.24-.5.42.65.73 1.03 1.2.17.21.32.65 0 .9-.7.56-2.36-.72-2.67-.46-.18.15.27.48.02.69-.23.18-2.52-.93-4.77.38-.41.24-.94.28-1.44.06l-.05-.02z"/>
      <path d="M106 89.24c.06-.48.3-.9.67-1.16 2.21-1.45 2.21-3.94 2.49-4.08.28-.13.37.43.6.31.36-.17-.09-2.22.72-2.6.36-.17.7.12.81.38.25.53.05 1.72.64 1.43.96-.48.44-3.13 1.44-3.61.51-.24.55.62.79.5.26-.12.24-1.13.83-1.4.24-.12.63-.1.87.4.24.52-.51 2.07.2 2.26 1.08.31.96-1.87 2.17-2.46.2-.08.77-.26 1.03.3.26.57.01 1.45.61 1.59.6.12.47-.86 1.24-1.23.77-.38 1.41-.07 1.6.34.2.38.07.73.17.96.1.21.45.31.64.7.2.39.04 1.09-.74 1.47-.77.38-1.44-.32-1.73.22-.28.55.57.9.84 1.46.27.55-.2.89-.4.98-1.21.6-2.78-.72-3.2.33-.28.67 1.39 1.04 1.64 1.56.24.49.03.81-.21.93-.6.3-1.35-.34-1.62-.21-.24.12.4.67-.1.92-.98.48-2.76-1.57-3.72-1.1-.6.29.47.85.72 1.39.12.25.14.7-.22.88-.81.4-2.12-1.23-2.5-1.05-.2.11.18.53-.11.67-.27.12-2.26-1.47-4.73-.7a1.5 1.5 0 0 1-1.42-.28l-.03-.02z"/>
      <path d="M95.32 87.54c.25-.43.3-.92.14-1.34-.96-2.45.48-4.5.33-4.76-.16-.28-.55.12-.66-.08-.2-.36 1.34-1.76.91-2.54-.2-.36-.64-.3-.88-.17-.52.29-1.04 1.37-1.35.79-.52-.94 1.45-2.82.91-3.78-.28-.5-.8.2-.92-.05-.15-.26.44-1.05.13-1.63-.12-.24-.46-.44-.96-.17-.48.28-.78 1.97-1.47 1.72-1.06-.36.3-2.08-.36-3.27-.1-.18-.44-.66-1-.34-.54.3-.84 1.16-1.4.92-.57-.24.11-.96-.3-1.72-.43-.75-1.14-.87-1.52-.67-.38.22-.48.57-.68.7-.23.12-.57 0-.94.2-.38.22-.66.88-.24 1.63.4.77 1.38.57 1.28 1.18-.1.61-.98.4-1.52.72-.55.3-.36.84-.24 1.04.64 1.2 2.68 1.02 2.42 2.12-.16.72-1.75.04-2.24.32-.5.28-.5.66-.36.9.3.56 1.28.5 1.44.76.12.24-.73.3-.46.8.53.97 3.16.3 3.68 1.26.3.58-.87.42-1.4.72-.24.12-.52.48-.32.84.42.78 2.44.22 2.64.56.1.22-.44.34-.3.63.14.26 2.7.1 4.27 2.16.3.38.77.61 1.32.6h.04z"/>
    </g>
    <g fill="#000" stroke="none">
      <path d="M111.6 71.28c-.8 1.49-2.29 2.4-3.6 3.36a59.52 59.52 0 0 0-5.6 3.98c-.86.7-1.75 1.35-2.56 2.1 1.16-1.24 2.49-2.3 3.78-3.38 1.24-1 2.52-1.93 3.92-2.72 1.34-.84 2.72-1.68 3.75-2.92.09-.14.24-.26.3-.42z"/>
      <path d="M109.6 74.04a6.91 6.91 0 0 1-2.38 1.67c.75-.75 1.5-1.2 2.37-1.66z"/>
      <path d="M105.64 76.55a46.16 46.16 0 0 1-4.34 3.7 20.75 20.75 0 0 1 4.35-3.7z"/>
      <path d="M109.2 70.28c.05.82.06 1.65.06 2.46-.44-.84-.26-1.64-.06-2.46z"/>
      <path d="M102.53 74.84c.61.65.61 1.61.69 2.34-.36-.72-.5-1.58-.68-2.34z"/>
      <path d="M105.5 72.05c.58.92.42 2.09.32 2.99l-.31-3z"/>
      <path d="M109.95 73.66c.93-.22 1.71.04 2.5.42-.82-.1-1.71-.24-2.5-.42z"/>
      <path d="M106.36 76.1c1.32.08 2.34.44 3.35 1.02a38.28 38.28 0 0 1-3.36-1.03z"/>
      <path d="M104.67 78.92c.56.09 1.11.38 1.6.62-.68.1-1.11-.27-1.6-.62z"/>
      <path d="M120.18 82.14c-1.05 1.19-2.59 1.81-4.04 2.39-2.98.89-5.76 2.28-8.57 3.6l-.93.49c1.4-.91 2.92-1.67 4.42-2.41 1.65-.8 3.36-1.47 5.1-2 1.36-.47 2.73-.99 3.84-1.91l.1-.08z"/>
      <path d="M117.6 84.36c-.87.64-1.74.86-2.67 1.08.79-.54 1.82-.84 2.67-1.07z"/>
      <path d="M113.2 85.92a51.1 51.1 0 0 1-5.09 2.6c1.51-1.08 3.36-1.99 5.08-2.61z"/>
      <path d="m118.1 80.62-.5 2.42c-.22-.98.09-1.66.5-2.42z"/>
      <path d="M110.56 83.54c.43.87.28 1.6.12 2.44-.14-.78-.12-1.66-.13-2.44z"/>
      <path d="M114.09 81.5c.35 1.02-.07 2.12-.39 2.97l.39-2.98z"/>
      <path d="M118.04 84.07c1.02.04 1.65.48 2.35.97-.83-.27-1.6-.6-2.35-.97z"/>
      <path d="M113.98 85.63c1.24.42 2.18.97 3.04 1.77a23.55 23.55 0 0 1-3.03-1.77z"/>
      <path d="M111.71 88c.57.2.99.6 1.43.94-.7-.02-1.03-.52-1.43-.94z"/>
      <path d="M87.87 73.54c.4 1.77 1.51 3.27 2.57 4.7a39.6 39.6 0 0 1 4.14 7.04c.21.47.43.94.6 1.42-1.01-2.06-2.24-4.02-3.41-6-1.1-1.86-2.63-3.48-3.45-5.5a5.31 5.31 0 0 1-.45-1.66z"/>
      <path d="M88.68 76.85a9.03 9.03 0 0 1 1.56 2.41 6.6 6.6 0 0 1-1.56-2.41z"/>
      <path d="M91.38 80.65A20.34 20.34 0 0 1 94 85.72a44.1 44.1 0 0 1-2.62-5.07z"/>
      <path d="M90.45 73.5c.02 1-.43 1.58-1 2.27.31-.77.65-1.51 1-2.27z"/>
      <path d="M94.91 80.24c-.45.68-1 1.32-1.52 1.9.24-.89.89-1.43 1.52-1.9z"/>
      <path d="M93.22 76.52c-.5.86-.96 1.82-1.42 2.64.12-1.12.69-1.9 1.42-2.64z"/>
      <path d="M88.5 76.34c-.82-.07-1.71-.36-2.5-.56.93-.2 1.71.18 2.5.56z"/>
      <path d="M90.9 79.97c-1.14.01-2.3-.2-3.48-.33 1.18-.3 2.48.06 3.48.33z"/>
      <path d="M91.4 83.2c-.63.34-1.16.1-1.72-.05.58-.1 1.14 0 1.72.06z"/>
    </g>
    <g stroke="none">
      <g>
        <path class="tertiary" stroke="#000100" d="M112.6 57.4a.6.6 0 0 0-.37-.54.55.55 0 0 0-.66.06c-3.29-.86-5.88 4.94-6 5.22l2.58 3.44 4.32-.24c.19-.43 2.88-5.95.13-7.94z"/>
        <path class="secondary" stroke="#000100" d="M112.47 65.33s-.84-.07-3.57-1.36c-2.74-1.3-3.33-1.86-3.33-1.86s-.36.11-.83.63a2.64 2.64 0 0 0-.58 1.04c-.15.24-.1.52.1.82-.05.45.17.7.5.96.06.42.41.6.7.76.2.27.55.54 1 .8.48.33 1.09.6 1.75.72a2 2 0 0 0 1.4.27c.59.27.91.15 1.47-.12.44.01.79-.13.96-.49 0 0 .36-.44.44-1.08.07-.64-.01-1.1-.01-1.1z"/>
        <g fill="#000100" stroke-width=".12">
          <path d="M111.04 57.66c-.2-.26.31-.46.12-.08l-.06.04-.06.04z"/>
          <path d="M110.72 57.92c-.28-.24.3-.7.12-.2-.05.07-.06.14-.12.2z"/>
          <path d="M110.32 58.2c-.2-.2.24-1 .18-.44a1.1 1.1 0 0 1-.18.44z"/>
          <path d="M109.89 58.36c-.12-.2.12-.88.26-.7-.06.24-.15.48-.26.7z"/>
          <path d="M109.5 58.6c-.15-.27.05-.95.28-.92-.05.33-.2.62-.28.93z"/>
          <path d="M109.1 58.84c-.2-.28-.05-.93.2-.96-.1.3-.16.63-.2.96z"/>
          <path d="M108.76 59.23c-.25-.24-.24-.84.04-.96-.03.31-.11.64-.04.96z"/>
          <path d="M108.26 58.86c0 .2.27 1.08-.09.6a.53.53 0 0 1 .09-.6z"/>
          <path d="M112.01 66.53c-.53.66-1.35.93-2.15 1.14-.52 0-1.02.4-1.56.24-.34-.23.46-.29.66-.34.66-.08 1.37-.08 1.97-.43.37-.17.77-.34 1.08-.61z"/>
          <path d="M111.48 65.83c-.38.71-1.28.72-1.92 1.08-.96.24-1.95.28-2.94.37-.25-.4.58-.3.84-.32.68-.02 1.34-.05 2-.16.55-.13 1.06-.36 1.6-.56a.86.86 0 0 0 .42-.4z"/>
          <path d="M110.37 65.36c-.29.56-.97.6-1.49.8-.58.07-1.13.25-1.7.25-.52-.04-1.04.21-1.52.12-.48-.41.5-.23.72-.28.47-.01.93-.06 1.38-.02.57-.16 1.18-.15 1.74-.34.33-.1.6-.33.87-.53z"/>
          <path d="M109.56 64.92c-.58.1-1.12.38-1.72.38-.63.04-1.23.2-1.84.2-.38-.02-1.06.25-1.26-.08.47-.36 1.2.05 1.76-.12.62-.12 1.25-.06 1.86-.18.42.1.8-.33 1.2-.2z"/>
          <path d="M107.78 64.32c-.47 0-.95.04-1.38.17-.45.1-.9.21-1.35.2-.24-.17-1.02.22-.72-.23.48-.13 1.02.12 1.53-.02.54-.14 1.09-.18 1.64-.17.1-.01.2-.03.28.05z"/>
          <path d="M104.13 63.65c.36-.12.77-.1 1.14-.16.33.2 1-.1 1.1.04-.4.02-.79.27-1.2.14-.18.09-1.14.41-1.04-.02z"/>
          <path d="M108.78 65.16c.48.23.78.74 1.3.92.32.34.76.5 1.12.78.18.23 1 .27.76.63-.48-.03-.84-.5-1.27-.73-.43-.3-.78-.7-1.23-.96-.2-.22-.36-.54-.68-.64z"/>
          <path d="M107.25 64.3c.24.87.9 1.56 1.49 2.22.49.4 1.17.49 1.66.9.28.03 1.1.55.45.55-.66-.36-1.25-.84-1.96-1.1-.56-.38-.86-1.01-1.26-1.54-.17-.33-.44-.65-.38-1.03z"/>
          <path d="M105.47 63.3c.25.74.72 1.4 1.15 2.04a7.54 7.54 0 0 0 2.62 2.34c.43.12.26.62-.1.29-.55-.34-1-.78-1.5-1.15-.55-.5-.96-1.14-1.38-1.74-.3-.58-.66-1.12-.85-1.74 0-.04.04-.04.06-.04z"/>
          <path d="M108.1 67.97c-.58-.27-.96-.82-1.46-1.2-.6-.64-1.29-1.27-1.54-2.14-.18-.33-.38-.77-.29-1.15.03.61.39 1.15.65 1.7a9.7 9.7 0 0 0 2 2c.12.33.92.38.64.79z"/>
        </g>
      </g>
      <g>
        <path class="tertiary" stroke="#000100" d="M122.2 71.88a.6.6 0 0 0-.1-.66.6.6 0 0 0-.6-.26c-2.52-2.3-7.52 1.63-7.75 1.8l.69 4.26 3.92 1.8c.36-.27 5.33-3.9 3.84-6.95z"/>
        <path class="secondary" stroke="#000100" d="M118.36 78.83s-.7-.46-2.53-2.88c-1.83-2.4-2.09-3.18-2.09-3.18s-.36-.07-1.02.17-1 .64-1 .64c-.25.12-.33.42-.3.78-.26.36-.18.7 0 1.07-.15.4.06.72.23 1 .06.32.24.74.53 1.17.26.52.67 1.04 1.2 1.44.31.48.7.78 1.13.9.38.5.72.56 1.35.58.39.23.76.26 1.08 0 0 0 .53-.23.92-.74.37-.5.5-.96.5-.96z"/>
        <g fill="#000100" stroke-width=".12">
          <path d="M120.68 71.4c0-.52.57-.05 0 0z"/>
          <path d="M120.27 71.47c-.11-.5.78-.36 0 0z"/>
          <path d="M119.78 71.52c-.02-.47.75-.6.18-.12l-.09.07z"/>
          <path d="M119.33 71.46c-.08-.4.9-.74.31-.23a2.16 2.16 0 0 1-.3.23z"/>
          <path d="M118.89 71.5c-.13-.42 1.03-1.01.43-.4-.14.13-.3.26-.43.4z"/>
          <path d="M118.4 71.52c-.16-.53 1-1 .28-.36l-.27.36z"/>
          <path d="M117.93 71.7c-.31-.5.85-1.18.2-.4-.08.11-.15.26-.2.4z"/>
          <path d="M117.65 71.14c-.06.36-.38 1.06-.29.3a.47.47 0 0 1 .3-.3z"/>
          <path d="M117.41 79.68c-.65.24-1.44.24-2.15.08-.64-.24-1.52-.26-2.01-.67.21-.36.87.24 1.28.24.72.46 1.6.39 2.4.48.17.03.34-.05.48-.13z"/>
          <path d="M117.27 78.82c-.52.48-1.23-.06-1.83.12a8.77 8.77 0 0 1-1.83-.6c-.42-.24-1.38-.36-1.42-.75.69.01 1.26.54 1.89.77s1.3.58 1.98.48c.36.24.84.17 1.2-.02z"/>
          <path d="M116.49 77.88c-.5.34-1.17.1-1.7 0-.65-.17-1.27-.4-1.88-.65-.3-.31-1.38-.21-1.16-.8.8.35 1.56.84 2.37 1.08a5.64 5.64 0 0 0 1.96.51c.12.04.34-.18.4-.14z"/>
          <path d="M116 77.11c-.6-.14-1.2-.18-1.74-.42-.84-.42-1.8-.55-2.58-1.09-.65-.32.33-.36.51 0 .82.43 1.68.76 2.52 1.13.36.29.87.2 1.29.38z"/>
          <path d="M114.69 75.74c-.84-.51-1.9-.5-2.76-1-.22-.12-.94-.42-.28-.47.54.3 1.02.67 1.63.8.47.2 1.08.31 1.4.67z"/>
          <path d="M111.76 73.46c.7.2 1.62.72 2.06.96-.72-.21-1.42-.48-2.1-.67-.15-.06.06-.19.04-.29z"/>
          <path d="M115.18 76.96c.3.56.5 1.2.8 1.74.38.55.63 1.11 1.04 1.62-.06.62-.54-.41-.69-.6-.2-.52-.53-1-.72-1.54-.17-.4-.29-.82-.43-1.22z"/>
          <path d="M114.23 75.48c-.2.62 0 1.3.09 1.92.1.62.36 1.18.82 1.62.23.56.84.96.9 1.56-.6-.26-.78-1.07-1.17-1.58a2.02 2.02 0 0 1-.65-1.53 4.08 4.08 0 0 1-.06-1.88l.07-.11z"/>
          <path d="M113.12 73.78c-.12.73-.02 1.5.06 2.23.15.79.24 1.62.66 2.31.07.63.79 1.12.67 1.68-.39-.22-.67-1-.84-1.5a5.04 5.04 0 0 1-.59-1.9c-.18-.68-.06-1.4-.12-2.1.01-.23 0-.52.16-.72z"/>
          <path d="M113.27 79.14c-.4-.47-.44-1.12-.72-1.66a6.37 6.37 0 0 1-.38-2.91c-.1-.4.48-1.51.12-.6-.07.77-.15 1.53.08 2.28.2.5.3 1.07.57 1.55 0 .43.73 1.02.33 1.34z"/>
        </g>
      </g>
      <g>
        <path class="tertiary" stroke="#000100" d="M89.28 61.03a.6.6 0 0 1 .45-.48.6.6 0 0 1 .65.13c3.36-.37 5.12 5.73 5.22 6l-3.04 3.06-4.25-.82c-.12-.45-2.03-6.3.96-7.89z"/>
        <path class="secondary" stroke="#000100" d="M88.32 68.92s.84.04 3.72-.86c2.9-.9 3.57-1.36 3.57-1.36s.35.15.73.73c.4.57.43 1.11.43 1.11.12.26.03.53-.2.8-.01.46-.28.68-.63.88-.12.41-.49.56-.79.68-.24.24-.62.45-1.1.64a4.7 4.7 0 0 1-1.84.47 2.04 2.04 0 0 1-1.43.07c-.62.18-.9.03-1.44-.33-.44-.05-.76-.24-.87-.63 0 0-.29-.49-.3-1.14 0-.63.15-1.06.15-1.06z"/>
        <g fill="#000100" stroke-width=".12">
          <path d="M90.78 61.51a.16.16 0 0 1-.07-.07.56.56 0 0 1-.02-.08v-.09c0-.02 0-.06.02-.08l.01-.01c.05 0 .08.03.1.06a.12.12 0 0 1 .04.1l-.02.09a.2.2 0 0 1-.06.08z"/>
          <path d="m91.08 61.82-.06-.12-.03-.12v-.24l.02-.02c.1.06.15.16.16.24l-.01.14c-.02.05-.03.09-.08.12z"/>
          <path d="M91.44 62.16a.36.36 0 0 1-.07-.18l-.03-.18v-.35l.02-.01a.48.48 0 0 1 .1.16l.06.18v.19a.44.44 0 0 1-.08.19z"/>
          <path d="m91.84 62.36-.06-.19a1.2 1.2 0 0 1-.05-.19l-.03-.2a.62.62 0 0 1 0-.2h.02c.05.04.08.1.12.17l.05.2.01.22v.11l-.02.05c-.03 0-.03.01-.04.03z"/>
          <path d="m92.18 62.65-.05-.24-.04-.24-.03-.26-.02-.27h.03l.12.23.07.24v.27l-.01.14c0 .02 0 .05-.03.07l-.04.06z"/>
          <path d="m92.56 62.94-.01-.24-.03-.24c0-.1 0-.17-.02-.25a1.88 1.88 0 0 1-.02-.27h.02a.92.92 0 0 1 .17.77.48.48 0 0 1-.12.24z"/>
          <path d="M92.85 63.36c.05-.16.07-.31.08-.48v-.36c0-.05 0-.08.03-.12v-.02c.07.08.1.16.13.24.01.1.02.18.01.27a1 1 0 0 1-.07.27c-.05.1-.1.18-.18.21z"/>
          <path d="M93.4 63.08a.6.6 0 0 1-.06.65l-.08.09-.04.03-.02.01h-.06l.02-.02h-.01c-.01 0 0 0 0 0v-.06l.03-.05.04-.08.06-.2.06-.17a.7.7 0 0 1 .06-.2z"/>
          <path d="M88.62 70.15a.84.84 0 0 0 .3.39c.08.04.14.1.2.12.08.04.16.07.25.08h.01a1.48 1.48 0 0 0 .4.36c.07.05.14.1.22.12a.6.6 0 0 0 .26.05h.03a2.16 2.16 0 0 0 .87.3h.21l.07.01.09.04a1.04 1.04 0 0 0 .38.21.7.7 0 0 0 .22.03l.21-.02.08.28-.3.01a1.18 1.18 0 0 1-.53-.17 1.03 1.03 0 0 1-.22-.16l.09.03-.09-.01h-.08a2.64 2.64 0 0 1-.48-.1 2.77 2.77 0 0 1-.59-.3l.04.02a1.08 1.08 0 0 1-.28-.08 1.06 1.06 0 0 1-.25-.14 1.68 1.68 0 0 1-.4-.4h.03l-.24-.08c-.09-.04-.15-.1-.22-.14a.91.91 0 0 1-.17-.2.86.86 0 0 1-.12-.24z"/>
          <path d="M89.26 69.54c.02.1.07.2.14.3.08.08.17.16.26.22.1.06.2.1.3.13l.18.05.15.03h.01v.01c.16.17.33.3.52.4.2.08.4.13.6.12h.05l.03.02c.1.11.28.17.44.2a1.08 1.08 0 0 0 .48 0h.04l.05.02c.11.08.24.14.39.18.13.02.28.02.42 0l.03-.01.04.02c.1.06.21.09.32.12l.16.03h.12-.01l.12.27-.04.01h-.25a.71.71 0 0 1-.2-.04 1.4 1.4 0 0 1-.38-.16h.07a1.56 1.56 0 0 1-.51-.01 1.08 1.08 0 0 1-.48-.24l.1.02a1.54 1.54 0 0 1-.83-.12c-.08-.05-.17-.1-.24-.17l.07.03a1.15 1.15 0 0 1-.69-.17c-.2-.12-.37-.26-.51-.44h.02l-.17-.04-.18-.06c-.1-.05-.21-.08-.3-.16a1.26 1.26 0 0 1-.26-.24.67.67 0 0 1-.13-.32z"/>
          <path d="M90.42 69.22c.08.14.17.3.3.4.05.06.12.12.2.15a.36.36 0 0 0 .24.03h.02c.17.12.35.23.53.32.18.06.38.12.57.08h.04l.02.02a1.2 1.2 0 0 0 .45.23l.24.04h.21l.04-.04.05.03c.14.06.27.12.43.15l.22.04h.24l.03.02a1.25 1.25 0 0 0 .83.09l.06.28c-.18.03-.36.03-.52 0a1.44 1.44 0 0 1-.48-.16h.06c-.1.02-.16 0-.26 0a1.79 1.79 0 0 1-.7-.24h.08c-.08.03-.12.03-.16.03l-.16-.01a1.4 1.4 0 0 1-.76-.34h.06a1.19 1.19 0 0 1-.64-.12 2.76 2.76 0 0 1-.53-.32h.03a.53.53 0 0 1-.27-.05 1 1 0 0 1-.2-.17 1.3 1.3 0 0 1-.29-.43z"/>
          <path d="M91.24 68.88c.08 0 .17.02.24.05l.23.1h-.04.04l.15.08.09.06.08.06h.09l.12.02.21.04c.16.03.29.06.45.12l.1.05.04.02h.24c.16 0 .3.02.47.07l.21.09.11.06.04.03.02.01h.03l.06-.02h.12l.22.02.45.12.06.04.05.01c-.06 0 0 0 .04-.01l.23-.02h-.01a1.21 1.21 0 0 1 .54.12c.06.02.12.04.17.1l-.2.2c0-.03-.05-.05-.1-.08l-.12-.04a.77.77 0 0 0-.28-.05h-.2l-.05.02h-.05l-.08-.01-.06-.02-.04-.03-.4-.14-.2-.03h-.24a.17.17 0 0 1-.06-.02l-.02-.01a.16.16 0 0 0-.05-.04l-.08-.06-.18-.1a1.56 1.56 0 0 0-.42-.08h-.22s-.07 0-.08-.02l-.04-.03a2.38 2.38 0 0 0-.5-.18.48.48 0 0 0-.2-.04l-.1-.03-.06-.01h-.04l-.04-.02-.07-.06-.07-.06a.43.43 0 0 0-.14-.1l.03-.01h-.05.02a3.96 3.96 0 0 0-.22-.1c-.07-.02-.16-.06-.24-.07z"/>
          <path d="M93.11 68.52a.68.68 0 0 1 .27.01l.12.04.13.05h.01c.17 0 .36.02.54.06.17.03.36.1.52.2l.06.04h.15c.1 0 .2.03.28.06l.27.08.12.04.08.02c.02.01 0 0 0 0h-.03l-.02.01h.03l.03-.02h.05a.22.22 0 0 1 .08-.04l-.06.05s.02-.04.05-.04h.07-.06a1.18 1.18 0 0 1 .46 0c.14.04.3.11.4.22l-.19.2a.6.6 0 0 0-.27-.16c-.11-.03-.24-.04-.35-.03h-.06.07l.06-.03-.07.04h-.07l-.03.02h-.19l-.06-.04-.12-.06-.24-.1-.24-.06h-.12c-.01 0-.04 0-.06-.02l-.04-.01v-.01l-.04-.04a1.32 1.32 0 0 0-.47-.23 2.57 2.57 0 0 0-.52-.08l-.05-.01-.1-.05a1.88 1.88 0 0 0-.12-.04c-.09-.02-.16-.03-.26-.02z"/>
          <path d="m96.71 68.68-.03-.03h-.03v-.01l-.03-.02c-.03 0-.03-.03-.05-.04l-.1-.05h-.07l-.02-.05.1.05c-.12-.02-.22-.02-.33-.02h-.07l-.04-.04a.3.3 0 0 0-.05-.07l-.03-.04v-.03l.03.07a.68.68 0 0 0-.25-.14.6.6 0 0 0-.29 0l.03-.03-.03.03-.06.02-.03.01h-.03l-.14-.08-.01-.01-.02-.02.03.03a1.56 1.56 0 0 0-.75-.24v-.04c.28-.02.54.05.8.16l.02.03-.02-.02.14.07h-.06l.08-.03-.02.02.04-.02a.62.62 0 0 1 .36-.04c.12.02.24.07.36.13l.02.03.01.04-.03-.07.1.1-.1-.05c.12-.02.25-.04.4-.02h.04l.04.04-.09-.06.2.06.08.05.03.03h.03v.02l-.03-.01z"/>
          <path d="M92 69.28c-.17.06-.32.14-.45.24l-.2.16c-.06.06-.12.12-.16.2h-.03a3.24 3.24 0 0 0-.48.18 1.14 1.14 0 0 0-.2.12l-.15.19-.01.02h-.04a2.28 2.28 0 0 0-.48.17l-.2.12a.78.78 0 0 0-.17.17l-.03.03h-.04l-.23.06-.22.08a1.32 1.32 0 0 0-.36.22l-.2-.22a1.56 1.56 0 0 1 .72-.3l.25-.04-.06.04a1.2 1.2 0 0 1 .46-.3c.16-.08.34-.12.51-.16l-.05.02.2-.19a.83.83 0 0 1 .24-.14c.15-.06.33-.1.5-.13l-.02.02.18-.2c.07-.05.14-.12.21-.16.15-.1.3-.17.47-.24z"/>
          <path d="M93.64 68.64s-.02.02-.02.06l-.03.07c0 .04-.03.09-.05.13l-.12.27-.19.24c-.06.06-.13.12-.23.18l.03-.03-.12.24a1.37 1.37 0 0 1-.39.38.94.94 0 0 1-.24.14l.05-.04a.7.7 0 0 1-.15.26 1.08 1.08 0 0 1-.48.33l-.12.06-.08.03h-.1.02a5.2 5.2 0 0 0-.89.33c-.1.04-.17.1-.24.16l-.02.02h-.04l-.51.17-.26.1-.24.13-.14-.27.26-.12.27-.1c.19-.05.37-.11.55-.14l-.05.03c.09-.09.2-.12.3-.18l.3-.12.64-.18h.06l.06-.03a1.44 1.44 0 0 0 .36-.15l.19-.16a.65.65 0 0 0 .13-.21l.01-.03h.03a1.36 1.36 0 0 0 .42-.3.73.73 0 0 0 .15-.18c.05-.07.1-.13.12-.2l.03-.01v-.02l.23-.16a1.68 1.68 0 0 0 .32-.46l.05-.13.01-.07c0-.03.01-.06.05-.08z"/>
          <path d="M95.56 67.87c0 .05 0 .06-.04.1 0 .03-.03.07-.04.1a.54.54 0 0 1-.12.16.53.53 0 0 1-.11.23l-.13.2-.17.2a.88.88 0 0 1-.2.16l.03-.02a1.63 1.63 0 0 1-.7.89l.04-.06v.06l-.08.12a.74.74 0 0 1-.1.1l-.18.19-.22.16a.9.9 0 0 1-.21.16l.05-.08v.04l-.02.05v.03c-.02 0-.02.02-.03.03a.24.24 0 0 1-.05.05l-.1.12-.22.16-.24.13a1 1 0 0 1-.27.08l.07-.05a1.64 1.64 0 0 1-.48.41l-.27.13a2.28 2.28 0 0 1-.3.1l.07-.04a.6.6 0 0 1-.17.14l-.17.1-.19.1-.18.06-.1-.28.19-.04.15-.08.16-.08.12-.1.03-.03.04-.01a1.7 1.7 0 0 0 .52-.18l.24-.16a.7.7 0 0 0 .19-.18l.02-.02.04-.02c.08-.02.17-.03.24-.07a.77.77 0 0 0 .21-.1l.2-.14.1-.08a.16.16 0 0 0 .03-.05v-.02.02-.1h.05l.22-.14.2-.14.18-.18.08-.1.07-.08v.02-.08l.04-.02.21-.14c.08-.06.12-.13.18-.2.12-.14.2-.3.28-.46l.01-.01.01-.01c.08-.04.12-.09.18-.15l.17-.17.15-.19a.67.67 0 0 0 .1-.2v-.01a.86.86 0 0 0 .12-.17l.05-.1.04-.08z"/>
          <path d="M92.2 71.86a2.28 2.28 0 0 0 .82-.39l.24-.2v-.01l.02-.02c.32-.12.64-.27.84-.54l.01-.02.03-.01a.86.86 0 0 0 .24-.12l.21-.16c.13-.12.27-.25.36-.4l.01-.03h.03a.89.89 0 0 0 .36-.31c.1-.12.17-.29.21-.43v-.03l.02-.01c.12-.1.24-.22.3-.36.1-.13.14-.29.19-.44.03-.06.07-.12.08-.2l.01-.1v-.05l-.02-.03v-.04l.04.02V68l.02.06v.12a.65.65 0 0 1-.08.2 1.8 1.8 0 0 1-.17.48 1.18 1.18 0 0 1-.33.38l.03-.02c-.04.16-.12.34-.2.48a1.03 1.03 0 0 1-.41.36l.03-.02a2.32 2.32 0 0 1-.87.78l.04-.03c-.1.17-.25.3-.4.4a2.88 2.88 0 0 1-.5.26l.04-.03-.24.22a2.63 2.63 0 0 1-.89.48z"/>
        </g>
      </g>
      <g>
        <path class="tertiary" stroke="#000100" d="M97.85 76.56a.61.61 0 0 1 .42-.52.56.56 0 0 1 .65.1c3.36-.6 5.5 5.36 5.6 5.65l-2.83 3.24-4.28-.54c-.16-.44-2.44-6.15.44-7.93z"/>
        <path class="secondary" stroke="#000100" d="M97.43 84.48s.84 0 3.65-1.08c2.83-1.08 3.46-1.6 3.46-1.6s.36.14.78.68c.43.54.5 1.08.5 1.08.13.24.05.52-.16.82.03.45-.24.69-.55.92-.1.4-.44.56-.74.7-.22.26-.6.5-1.06.72-.5.3-1.13.52-1.8.58-.51.24-1 .28-1.41.17-.6.21-.92.07-1.44-.24-.46 0-.8-.18-.94-.54 0 0-.31-.48-.36-1.12-.07-.65.07-1.08.07-1.08z"/>
        <g fill="#000100" stroke-width=".12">
          <path d="M99.39 76.93c-.42-.25.24-.44 0 0z"/>
          <path d="M99.7 77.23c-.24-.14-.02-.7.05-.23.05.09-.03.16-.05.23z"/>
          <path d="M100.1 77.53c-.24-.18-.12-1 .03-.37.03.12.01.25-.03.37z"/>
          <path d="M100.5 77.72c-.24-.14-.19-1.05 0-.44a.8.8 0 0 1 0 .44z"/>
          <path d="M100.85 78c-.06-.29-.21-.64-.15-.92.2.26.26.6.15.92z"/>
          <path d="M101.25 78.24c-.03-.29-.17-.64-.07-.9.19.24.27.64.07.9z"/>
          <path d="M101.56 78.66c.14-.2-.07-.9.12-.84.17.26.14.65-.12.84z"/>
          <path d="M102.1 78.32c.4.2-.34 1.16-.12.48.1-.14.06-.32.12-.48z"/>
          <path d="M97.8 85.7c.6.68 1.5.99 2.36 1.2.48.14 1 .16 1.46.32.04.4-.72.21-.94 0-.7-.26-1.53-.24-2.06-.84-.29-.2-.74-.3-.83-.69z"/>
          <path d="M98.38 85.04c.2.64 1 .56 1.44.94.72.36 1.57.28 2.35.48.35.04 1.08-.12 1.1.38-.68.02-1.33-.3-2.01-.26-.6-.24-1.36-.2-1.84-.7-.36-.18-1.02-.28-1.08-.76z"/>
          <path d="M99.53 84.65c.46.73 1.4.75 2.16.96.45.14.93.1 1.4.2.35.12.94-.02 1.17.2-.2.44-.84-.05-1.2.02-.48-.04-.94-.18-1.4-.27-.5-.1-.99-.25-1.46-.48-.27-.12-.64-.27-.67-.63z"/>
          <path d="M100.34 84.25c.78.24 1.57.53 2.4.5.7.26 1.46.25 2.2.3.53.17-.25.43-.45.22-.89.03-1.72-.36-2.6-.47a5.5 5.5 0 0 1-1.55-.55z"/>
          <path d="M102.16 83.76c.86 0 1.7.26 2.54.46.23-.18 1-.15.94.18-.3.15-.62-.18-.92 0-.72-.15-1.4-.5-2.16-.56-.12-.03-.26-.08-.4-.08z"/>
          <path d="M105.78 83.69a11.4 11.4 0 0 0-1.68-.42c-.19-.06-.84-.2-.26-.17.55.12 1.12.18 1.68.23.24-.04.52.12.26.36z"/>
          <path d="M101.1 84.6c-.55.32-.93.85-1.52 1.13-.53.4-1.13.7-1.72 1.02-.52-.36.58-.46.77-.67.6-.34 1.21-.66 1.79-1.04.18-.2.42-.36.68-.44z"/>
          <path d="M102.71 83.87c-.23.84-.91 1.44-1.41 2.12-.48.43-1.2.41-1.68.84-.35.01-1 .82-1.14.24.75-.27 1.47-.7 2.26-.92.72-.34 1.08-1.08 1.61-1.62.15-.2.16-.5.36-.66z"/>
          <path d="M104.57 82.97c-.24.72-.74 1.3-1.13 1.95-.4.47-.84.95-1.3 1.37l-1.89 1.25c-.44-.05-.06-.48.2-.46.64-.36 1.28-.72 1.84-1.16.5-.55 1.14-1.02 1.5-1.7.27-.41.58-.8.78-1.25z"/>
          <path d="M101.48 87.17c.84-.4 1.53-1.05 2.28-1.6a5.51 5.51 0 0 0 1.36-2.04c.05-.17.15-.57.09-.14a5.69 5.69 0 0 1-1.95 2.8c-.5.39-.93.85-1.46 1.2-.18.11-.36-.02-.32-.22z"/>
        </g>
      </g>
      <g>
        <path class="tertiary" stroke="#000100" d="M77 81.48a.56.56 0 0 1 .12-.66c.12-.2.36-.31.6-.24 2.59-2.23 7.47 1.82 7.7 2l-.8 4.23-3.95 1.7c-.37-.27-5.25-4.04-3.67-7.04z"/>
        <path class="secondary" stroke="#000100" d="M80.64 88.52s.72-.43 2.6-2.8c1.9-2.37 2.17-3.14 2.17-3.14s.37-.06 1.02.2.97.68.97.68c.24.14.32.42.28.78.24.38.15.7-.03 1.08.13.4-.08.72-.29 1-.04.32-.24.73-.54 1.15-.27.5-.72 1.02-1.23 1.41-.33.47-.72.75-1.14.87-.42.5-.75.53-1.37.53-.4.21-.77.24-1.08-.02 0 0-.53-.24-.89-.76a3.48 3.48 0 0 1-.47-.98z"/>
        <g fill="#000100" stroke-width=".12">
          <path d="M78.52 81.02c-.38.06-.08-.49 0-.1z"/>
          <path d="M78.95 81.12c-.29.01-.42-.58-.1-.28.07.09.09.18.1.28z"/>
          <path d="M79.43 81.18c-.36.05-.53-.78-.15-.35l.15.35z"/>
          <path d="M79.86 81.12c-.26.06-.6-.72-.21-.38.1.12.17.24.21.38z"/>
          <path d="M80.32 81.18c-.17-.13-.62-.53-.52-.66.27.13.48.36.52.66z"/>
          <path d="M80.79 81.2c-.15-.15-.58-.6-.43-.72.25.16.45.42.43.72z"/>
          <path d="M81.28 81.4c-.08-.18-.46-.68-.28-.76.24.18.4.48.28.76z"/>
          <path d="M81.56 80.84c.38 0 .3 1 .1.42a1.49 1.49 0 0 0-.1-.42z"/>
          <path d="M81.6 89.38c1.2.4 2.45-.06 3.57-.5.27-.18.75 0 .26.2-.4.25-.85.15-1.26.36-.78.21-1.63.2-2.42.04a.4.4 0 0 1-.16-.1z"/>
          <path d="M81.76 88.52c1.02.39 2.11 0 3.08-.32.66-.12 1.18-.77 1.89-.68.44.1-.4.28-.57.4-.67.24-1.35.5-2.04.7-.72.06-1.46.32-2.16.06a.65.65 0 0 1-.2-.16z"/>
          <path d="M82.55 87.6c.9.38 1.81-.14 2.67-.42.75-.14 1.34-.8 2.13-.8-.05.3-.75.54-1.14.64-.5.1-.96.39-1.45.48-.72.16-1.51.46-2.2.1z"/>
          <path d="M83.04 86.84c.96-.13 1.86-.56 2.76-.88.6-.12 1.04-.72 1.66-.75.38.15-.4.36-.58.5-.76.35-1.57.56-2.35.86-.48.15-.98.26-1.49.27z"/>
          <path d="M84.4 85.51c.78-.51 1.74-.6 2.54-1.05.06-.42 1.1-.3.53 0-.5.27-1.03.48-1.58.58-.52.1-1 .28-1.49.47z"/>
          <path d="M87.45 83.6c-.72.06-1.37.47-2.09.57.16-.03.8-.36 1.12-.55.27-.16.78-.44.97-.02z"/>
          <path d="M83.9 86.76c-.4.89-.76 1.8-1.25 2.64-.05.26-.43.83-.66.68.23-.52.67-.96.92-1.47.36-.6.64-1.27.96-1.89z"/>
          <path d="M84.9 85.3c.2.92-.03 1.86-.25 2.76-.51.73-.96 1.52-1.55 2.22-.25-.44.36-.82.57-1.17.27-.48.73-.83.91-1.37.24-.67.3-1.4.36-2.1 0-.13-.05-.22-.05-.34z"/>
          <path d="M86.04 83.6a9.7 9.7 0 0 1-.3 3.77c-.2.58-.49 1.12-.79 1.65.1.38-.77.98-.45.3.54-.99 1.16-1.98 1.3-3.14.18-.86.28-1.76.2-2.64l.04.05z"/>
          <path d="M85.5 88.78c.65-1.01 1.1-2.16 1.34-3.33.07-.68.12-1.39-.11-2.05.4 1.14.32 2.42-.12 3.54-.23.64-.4 1.32-.83 1.85-.12.07-.17.12-.28-.01z"/>
        </g>
      </g>
      <g>
        <path class="tertiary" stroke="#000100" d="M124.3 86.66a.6.6 0 0 0-.08-.66.6.6 0 0 0-.62-.26c-2.5-2.28-7.5 1.63-7.74 1.81l.68 4.25 3.92 1.8c.36-.26 5.33-3.89 3.84-6.94z"/>
        <path class="secondary" stroke="#000100" d="M120.46 93.6s-.7-.44-2.52-2.86-2.09-3.19-2.09-3.19-.37-.06-1.03.17c-.65.24-1 .66-1 .66-.25.12-.33.4-.3.77-.25.36-.16.7 0 1.07-.14.4.08.72.24 1 .05.32.24.74.52 1.17.26.51.68 1.03 1.21 1.45a2 2 0 0 0 1.12.89c.4.5.73.55 1.35.57.4.23.76.27 1.08 0 0 0 .53-.21.92-.74.38-.5.5-.96.5-.96z"/>
        <g fill="#000100" stroke-width=".12">
          <path d="M122.79 86.17c-.04-.48.55.01 0 0z"/>
          <path d="M122.37 86.26c-.03-.54.72-.23 0 0z"/>
          <path d="M121.89 86.32c.15-.72.8-.45 0 0z"/>
          <path d="M121.44 86.24c.08-.72.99-.48 0 0z"/>
          <path d="M121 86.28c.05-.72 1-.7.16-.13z"/>
          <path d="M120.52 86.3c-.06-.72 1.1-1.03 0 0z"/>
          <path d="M120.04 86.48c-.2-.68.77-.9.06-.16z"/>
          <path d="M119.76 85.92c0 .59-.58.8-.14.1z"/>
          <path d="M119.52 94.46a4.88 4.88 0 0 1-4-.66c1.15.2 2.2.96 3.43.77.19-.02.38-.05.57-.1z"/>
          <path d="M119.37 93.6c-.99.38-2.1.06-3.07-.24-.47-.26-2.04-.6-1.8-.96 1.09.25 1.96 1.12 3.14 1.2.58.06 1.18.34 1.73 0z"/>
          <path d="M118.6 92.66c-1.04.44-2.16-.14-3.14-.5-.47-.12-1.84-.6-1.42-.84 1.34.55 2.64 1.42 4.12 1.45l.22-.03z"/>
          <path d="M118.1 91.9a17.46 17.46 0 0 1-4.05-1.32c-1.05-1.01 1.17.33 1.7.48.75.34 1.53.7 2.36.84z"/>
          <path d="M116.8 90.53c-.89-.6-2.86-.57-3.12-1.47.89.56 1.92.8 2.87 1.29l.12.08z"/>
          <path d="M113.88 88.25c.6.19 1.86.84 1.97.95-.55-.34-1.94-.3-1.97-.95z"/>
          <path d="M117.3 91.74c.36 1.21 1.44 2.45 1.66 3.5-.67-.8-1.03-1.84-1.43-2.8l-.23-.7z"/>
          <path d="M116.34 90.28a4.49 4.49 0 0 0 1.08 3.78c.39.37 1.1 1.84.24.84-.6-.96-1.35-1.86-1.41-3.04-.09-.53-.11-1.08.1-1.58z"/>
          <path d="M115.23 88.56c-.12 1.7.1 3.48.9 5 .5.48.56 1.84.03.63a8.74 8.74 0 0 1-.96-5.6l.03-.03z"/>
          <path d="M115.37 93.92c-.8-1.6-1.5-3.52-.93-5.32.24-.53-.32 1.11-.12 1.5.08 1.2.64 2.28 1.1 3.36l.01.24z"/>
        </g>
      </g>
    </g>
  </g>
</svg>
