<svg xmlns="http://www.w3.org/2000/svg" fill="#d7374a" stroke="#000" viewBox="50 50 200 200">
  <metadata source="http://wappenwiki.org/images/d/d0/Bydelsbak.svg" license="https://creativecommons.org/licenses/by-nc-sa/3.0"/>
  <g id="oak" stroke-width=".24" transform="translate(-20 -15) scale(1.2)">
    <path d="M96.85 65.82c-.08-.72.34-1.14.7-1.17.37-.04.6.16.8.14.21-.02.38-.27.74-.3.37-.05.87.27.95 1 7.29 16.39-6.57 16.55-3.19.33z"/>
    <path d="M93.57 94.66a1.26 1.26 0 00-1.02-.47c-2.18.08-3.4-1.6-3.64-1.56-.27.05-.06.47-.25.5-.34.05-1.02-1.54-1.76-1.41-.33.05-.4.42-.37.65.09.49.8 1.18.26 1.27-.88.16-1.82-1.9-2.73-1.74-.46.08-.07.68-.3.72-.23.04-.71-.64-1.24-.56-.22.04-.48.24-.4.7.09.46 1.34 1.15.97 1.62-.58.73-1.56-.8-2.67-.62-.17.03-.64.18-.54.7.08.5.68.99.33 1.36-.34.37-.72-.35-1.43-.23-.7.12-1 .64-.93 1 .07.35.32.52.36.73.04.2-.16.43-.09.78.07.36.5.76 1.22.64.7-.12.81-.93 1.26-.7.46.24.05.89.15 1.4.08.5.57.5.76.47 1.1-.18 1.53-1.8 2.33-1.32.51.33-.44 1.38-.36 1.84.08.46.38.57.61.53.53-.09.75-.88 1-.93.21-.04.04.66.5.58.91-.15 1.1-2.38 1.99-2.54.53-.08.1.8.18 1.29.04.23.24.55.57.49.73-.13.85-1.85 1.17-1.91.2-.03.15.43.42.4.24-.05.81-2.09 2.86-2.76.39-.12.7-.44.83-.86v-.04z"/>
    <path d="M96.35 88.6c-.3-.28-.45-.66-.41-1.04.2-2.17-1.4-3.49-1.35-3.73.06-.25.47-.02.52-.22.08-.32-1.47-1.1-1.31-1.83.08-.32.45-.38.67-.33.48.11 1.14.86 1.26.33.2-.87-1.8-1.93-1.6-2.83.11-.46.7-.03.74-.24.06-.24-.6-.74-.48-1.27.05-.22.27-.46.73-.36.46.1 1.08 1.4 1.57 1.06.77-.54-.7-1.6-.46-2.7.04-.17.23-.62.73-.5.51.11.95.73 1.35.42.39-.33-.31-.74-.15-1.44.17-.7.7-.96 1.06-.87.35.08.5.34.7.39.2.05.45-.13.8-.05.36.09.73.55.57 1.25-.16.7-.98.77-.77 1.23.21.47.88.1 1.4.22.5.11.46.6.42.78-.25 1.1-1.91 1.43-1.46 2.25.3.53 1.4-.36 1.87-.25.46.1.54.42.5.64-.13.53-.95.69-1 .93-.04.22.67.09.56.55-.2.9-2.46.96-2.66 1.83-.13.53.8.14 1.27.26.23.05.54.27.46.6-.16.71-1.9.72-1.98 1.05-.05.2.43.17.36.43-.06.24-2.14.69-2.93 2.7-.15.38-.48.66-.92.78h-.04z"/>
    <path d="M93.92 90.56c.31-.3.46-.67.44-1.04-.18-2.19 1.46-3.46 1.41-3.7-.05-.27-.47-.04-.51-.24-.07-.33 1.5-1.07 1.35-1.8-.07-.33-.44-.4-.67-.35-.48.1-1.15.85-1.27.3-.18-.87 1.83-1.89 1.64-2.8-.1-.45-.69-.03-.73-.25-.05-.24.62-.74.51-1.27-.05-.22-.26-.47-.72-.36-.46.1-1.1 1.38-1.59 1.03-.76-.56.75-1.6.52-2.69-.04-.17-.21-.63-.72-.53-.51.1-.97.72-1.35.4-.4-.33.32-.74.17-1.44-.14-.7-.68-.97-1.04-.9-.35.08-.5.34-.72.39-.2.05-.44-.13-.8-.06-.35.08-.73.54-.58 1.24.15.7.96.79.74 1.25-.22.46-.88.08-1.39.19-.5.1-.49.6-.45.77.23 1.1 1.89 1.47 1.42 2.28-.3.52-1.41-.39-1.86-.3-.46.1-.56.41-.5.64.1.53.91.71.96.95.05.22-.66.08-.57.54.2.9 2.45 1 2.63 1.89.12.52-.8.12-1.28.23-.23.05-.54.26-.47.6.15.72 1.89.76 1.95 1.1.04.2-.43.16-.37.42.05.24 2.12.73 2.88 2.76.14.37.47.67.9.8h.04z"/>
    <path d="M102.97 88.73c.39-.13.69-.4.81-.76.74-2.06 2.76-2.55 2.81-2.8.06-.26-.41-.23-.37-.42.06-.33 1.8-.38 1.96-1.1.07-.32-.24-.54-.47-.6-.48-.1-1.4.3-1.28-.22.19-.88 2.44-.98 2.64-1.88.1-.46-.6-.32-.56-.54.05-.24.86-.42.98-.95.04-.22-.05-.54-.51-.63-.46-.1-1.56.8-1.87.28-.46-.82 1.33-1.14 1.57-2.25.04-.17.07-.66-.44-.77-.5-.1-1.18.26-1.39-.2-.22-.46.6-.53.75-1.23.15-.7-.23-1.16-.59-1.24-.35-.08-.6.1-.8.06-.2-.05-.35-.3-.7-.39-.36-.07-.9.2-1.05.9-.15.7.56 1.1.17 1.43-.4.33-.85-.28-1.36-.39-.5-.1-.69.35-.73.52-.24 1.1 1.13 2.1.37 2.66-.49.35-1.12-.93-1.58-1.03-.46-.1-.67.14-.72.36-.12.53.54 1.03.5 1.27-.05.22-.64-.2-.74.26-.2.9 1.82 1.92 1.63 2.8-.12.53-.79-.21-1.27-.32-.23-.05-.6.02-.67.35-.15.73 1.41 1.47 1.34 1.8-.04.2-.46-.03-.51.23-.05.24 1.64 1.53 1.5 3.7-.04.4.14.8.49 1.1l.03.02z"/>
    <path d="M107.18 95.6c.4.07.8-.04 1.08-.3 1.62-1.47 3.63-.96 3.8-1.15.17-.2-.26-.4-.14-.54.22-.26 1.78.52 2.26-.04.22-.26.04-.59-.14-.74-.37-.32-1.37-.4-1.02-.8.58-.7 2.61.28 3.2-.43.31-.36-.39-.56-.24-.74.16-.19.96.03 1.31-.38.15-.17.21-.49-.15-.8-.37-.3-1.77-.02-1.78-.62-.03-.93 1.7-.38 2.43-1.25.12-.13.37-.55-.03-.89-.4-.33-1.16-.31-1.14-.82.02-.51.78-.2 1.25-.75.46-.55.34-1.13.06-1.37-.27-.23-.58-.2-.73-.33-.17-.13-.17-.43-.44-.66-.28-.23-.88-.25-1.35.3-.46.54-.03 1.23-.52 1.35-.5.1-.62-.64-1.01-.98-.4-.33-.77-.02-.88.13-.73.85 0 2.38-.92 2.52-.6.08-.56-1.34-.92-1.65-.36-.3-.67-.2-.81-.02-.35.41 0 1.16-.15 1.35-.15.17-.46-.48-.77-.11-.6.7.7 2.55.12 3.23-.35.41-.6-.56-.96-.87-.19-.16-.54-.27-.76-.01-.48.56.55 1.96.33 2.22-.13.15-.39-.24-.56-.04-.17.2.73 2.13-.41 3.97a1.3 1.3 0 00-.08 1.2l.02.04z"/>
    <g fill="#000" stroke="none">
      <path d="M89.11 96.55c.1.58-.23.92-.5 1.32.08-.46.31-.93.5-1.32z"/>
      <path d="M86.65 95.45s4.13-.79 6.23-.91c-.52.04-1.04.14-1.55.23a73.64 73.64 0 00-4.63.91z"/>
      <path d="M97.94 82.2c-.2 1.53-.6 3.23-.96 4.65.17-1.72.47-3.18.96-4.66z"/>
      <path d="M91.37 77.6c.5 4.15 1.62 8.15 2.65 12.25-.31-4.22-2.92-8.15-2.66-12.26z"/>
      <path d="M95.36 84.65c-.53.43-1.14.83-1.68 1.16.43-.64 1.03-.92 1.68-1.16z"/>
      <path d="M104.8 81.99s-.56 3.1-.99 4.62c-.14.51-.28 1.02-.48 1.51.14-.5.25-1.02.36-1.53l.32-1.55.29-1.54c.1-.52.26-1.55.26-1.55z"/>
      <path d="M104.26 82.26a15.57 15.57 0 01-.72 3.49c-.11.39-.25.76-.4 1.12.06-.39.13-.78.22-1.17l.27-1.16.3-1.15c.1-.36.2-.74.33-1.13z"/>
      <path d="M106.7 83.93c-.64.18-1.38.29-2 .37.63-.41 1.33-.4 2-.37z"/>
      <path d="M111.37 90.5a16.55 16.55 0 01-3.16 3.56c.47-.65 1.02-1.25 1.54-1.86.4-.45.81-.88 1.22-1.31.13-.14.26-.27.4-.39z"/>
      <path d="M109.37 91.27c-.36-.33-.58-.9-.48-1.36l.17.33.22.61c.04.14.1.28.1.42z"/>
    </g>
    <path d="M102.97 125.99c1.17 1.07 2.77 1.96 4.2 1.53.5-.14 1.1-.23 1.6-.11 1.03.24.77 1.53.15 2.07a4.1 4.1 0 01-1.18.75c-1.88.8-2.9 2.85-1.88 4.04.63.72 1.2.58 1.67 1 .5.44.55 1.04.55 1.04a1.7 1.7 0 00.15-1.8c-.3-.55-.65-.6-.65-1.19 0-.33.12-.66.33-.92a3.8 3.8 0 012.35-1.35c.4-.08.8-.1 1.2-.23 1.1-.37 1.69-1.9 1.58-3.02.74.86 1.65.97 2.7.71.48-.13.7-.44 1.18-.58.34-.1.7-.08 1.06-.08a.95.95 0 00-.7-.82c-1.01-.22-1.8 1.03-2.57-.18-.22-.34-.2-.78-.27-1.17a3.87 3.87 0 00-3.17-3.16 6.27 6.27 0 00-1.98.04c-.94.14-2.16.32-2.9-.27-.91-.73-1.27-1.14-1.38-1.54-.52-1.1-.52-2.39-.55-3.61-.04-1.26-.4-2.46-.46-3.7-.07-1.33.22-2.68.17-4.02-.08-2.4-.7-4.67-.05-7.08.45-1.7 1-2.1 2.36-3.22l2.98-1.89c1.24-.79 3.57-1.82 5.1-1.87.2-.65-.02-1.2.1-1.81-.76.26-2.5.64-3.27.97-.65.27-1.3.55-2 .55-.55 0-1.19-.12-1.54.29l-.3-3.74c-.02-.41-.06-.83-.02-1.25a7.9 7.9 0 011.25-3.26l-.51-.39a6.16 6.16 0 00-2.56 3.92c-.25 1.33-.04 2.7.08 4.04.07.68.07 1.53-.45 1.97-1.01.12-2 .44-2.9.93a19.5 19.5 0 01-.28-3.24c.01-.89.1-1.83.58-2.58.3-.47.72-.84 1.1-1.25.95-1.06.94-2.2 1.6-3.4a6.5 6.5 0 012.88-2.75l-.5-1.66a9.9 9.9 0 00-3.82 3.4c-.87 1.3-1.12 2.86-2.59 3.73-.41.25-.88.4-1.27.68-.1.07-.22.17-.36.19-.16.02-.3-.09-.43-.18a6.13 6.13 0 01-1.96-2.86c-.45-1.38-.48-2.53-1.35-3.74a13.09 13.09 0 00-3.07-3.06l-1.42 1.04 1.76 1.4a6.1 6.1 0 012.51 4.18c.13 1.04.23 2.17.94 2.96-1.04.03-2.18.03-3.02-.6l-.55-.5a7.1 7.1 0 00-3.23-1.75l.58 1.58c1.4.7 2.1 2.41 3.55 3 .53.23 1.13.27 1.68.46a3.4 3.4 0 012.24 2.7c-.7-1.02-2.24-.89-3.31-1.51-.45-.26-.8-.66-1.26-.93a5.57 5.57 0 00-2.7-.59l-2.42-.1-.1 1.62c1.3.06 2.76.58 3.83 1.31 1.8 1.22 3.67 2.56 4.47 4.56 1.34 3.38-.19 5.68-.17 9.05 0 1.79.06 3.18-.21 4.95-.28 1.87.04 3.45-.71 5.18-.38 1.07-.14 1.38-.37 2.2-.11.41-.25.83-.55 1.13-.67.67-1.78.5-2.7.37a6.28 6.28 0 00-1.99-.04 3.86 3.86 0 00-3.17 3.16c-.06.4-.06.83-.27 1.17-.76 1.2-1.56-.04-2.56.18a.94.94 0 00-.71.82c.35-.01.72-.01 1.06.08.48.14.7.45 1.18.58 1.04.26 1.96.14 2.7-.71-.11 1.11.48 2.66 1.59 3.02.38.13.8.15 1.19.23.94.18 1.74.6 2.35 1.35.2.26.33.59.33.92 0 .6-.33.64-.65 1.18a1.7 1.7 0 00.15 1.8s.04-.59.55-1.03c.48-.42 1.05-.27 1.67-1 1.01-1.19 0-3.25-1.88-4.04-.47-.2-.8-.43-1.18-.75-.62-.53-.88-1.83.14-2.07.5-.12 1.12-.04 1.6.11 1.44.43 3.08.49 4.4-.24.44 1.11 1.32 1.35 1.88 1.6.55.25 1.02.78.86 1.36-.17.62-.39.74-.94 1.04-.59.32-1 .98-.92 1.64.12 1.04.84 1.13 1.51 1.68.24.19.45.43.53.73.21.8-.6 1.25-.93 1.9-.27.5-.46 1.17-.4 1.75.07.58.53 1.47 1.02 1.47-.14-.67-.1-1.4.19-2.03.19-.42.48-.8.86-1.07.4-.3.91-.42 1.3-.74.4-.34.6-.9.54-1.44-.06-.52-.16-1.02-.58-1.36-.2-.17-.35-.3-.54-.5-.18-.2-.2-.44-.14-.7a.97.97 0 01.54-.66l.7-.34a2 2 0 001-1.7c0-.7-.3-1.36-.8-1.84-.68-.6-1.6-1.06-1.02-2.1z"/>
    <g fill="#000" stroke="none">
      <path d="M112.91 127.79a2.9 2.9 0 00-.45-1.53c-.5-.81-1.47-1.17-2.38-1.19-.43-.03-.86.07-1.28.1a4.87 4.87 0 01-3.34-1.12c-.22-.2-.42-.43-.59-.68.17.08.32.34.5.47a5 5 0 003.1 1.13c.55.01 1.07-.18 1.6-.15 1 0 2.07.4 2.61 1.28a3 3 0 01.49 1.54c.08.2-.15.11-.26.15z"/>
      <path d="M101.83 101.3c-.1.98-.26 1.97-.12 2.96.16 1.3.6 2.6.46 3.92-.03.24-.08.48-.15.71.15-1.3-.23-2.56-.46-3.82a6.5 6.5 0 01-.09-2.2c.07-.53.21-1.05.36-1.56z"/>
      <path d="M101.75 112.73c.04.49.03.98.04 1.47 0 .52.02 1.05 0 1.57 0 .05-.04-.1-.06-.14a4.43 4.43 0 01.01-2.88v-.02z"/>
      <path d="M101.3 118.14c.13.26.25.52.43.75.2.28.46.53.74.75-.3 0-.6-.16-.8-.38a1.43 1.43 0 01-.35-.6 1.18 1.18 0 01-.01-.52z"/>
      <path d="M97.51 116.6c.2.37.26.78.24 1.18-.02.41-.12.83-.35 1.18 0-.22.02-.44.04-.66.02-.39.04-.77.04-1.16l.03-.53z"/>
      <path d="M87.84 127.77c.03-.54.12-1.1.43-1.56a2.86 2.86 0 011.94-1.3c.84-.2 1.68 0 2.5.16 1.07.22 2.2.28 3.26-.05a4.63 4.63 0 001.6-.83c-.08.2-.38.37-.57.52a5.6 5.6 0 01-3.98.66c-.87-.12-1.75-.4-2.63-.23a2.6 2.6 0 00-2.28 2.66l-.27-.03z"/>
      <path d="M90.57 124.1c.28-.34.77-.39 1.19-.38.56.02 1.13.04 1.69-.05a5.4 5.4 0 001.98-.67 2.17 2.17 0 001.07-1.59c.08.66-.3 1.29-.8 1.7-.5.4-1.13.62-1.75.76-.63.13-1.28.15-1.92.06-.48-.07-1.05-.15-1.46.18z"/>
      <path d="M98.2 122.19c.17-.18.28-.42.35-.66.07-.23.1-.47.15-.7l.05-.14c.09.19.13.4.13.6 0 .24-.07.48-.23.66a.63.63 0 01-.4.24h-.05z"/>
      <path d="M99.63 123.88c.18.34.21.75.12 1.12a4 4 0 01-.82 1.53c-.19.26-.4.52-.55.81l-.26-.13c.26-.53.7-.93 1.02-1.42a2.42 2.42 0 00.46-1.9l.03-.01z"/>
      <path d="M102.83 125.93c.36-.8.49-1.7.39-2.57-.09-.7-.4-1.37-.83-1.94.09-.01.17.13.25.19.54.55.78 1.31.86 2.06a4.7 4.7 0 01-.3 2.1c-.04.08-.05.27-.14.26l-.23-.1z"/>
      <path d="M98.75 97.72c.37.44.47 1.04.45 1.6-.04.84-.37 1.63-.61 2.42l-.11.35c-.03-.74.22-1.45.36-2.17a4 4 0 00-.1-2.2z"/>
      <path d="M99.56 91.7a2.47 2.47 0 011.42 2.4c-.01.5-.08 1.03.15 1.49-.28-.29-.37-.7-.4-1.08-.03-.52-.02-1.05-.23-1.54-.19-.5-.53-.93-.94-1.26z"/>
      <path d="M99 107.09a7.15 7.15 0 01-.09 3.78c-.2.84-.45 1.67-.64 2.5.01-1.41.48-2.77.66-4.17.1-.7.12-1.4.07-2.11z"/>
    </g>
    <path d="M95.65 85.91c.37-.19.62-.51.69-.88.41-2.15 2.34-2.94 2.35-3.19.02-.27-.45-.16-.43-.36.02-.34 1.73-.65 1.77-1.39.02-.33-.31-.5-.55-.5-.5-.03-1.34.5-1.3-.04.05-.9 2.26-1.34 2.32-2.27.03-.47-.65-.22-.64-.44.02-.25.79-.54.82-1.09.01-.23-.12-.52-.6-.55-.46-.02-1.41 1.04-1.8.57-.58-.73 1.15-1.33 1.21-2.46.01-.18-.03-.66-.55-.7-.52-.02-1.12.45-1.41.02-.29-.42.5-.62.55-1.34.04-.72-.4-1.11-.77-1.14-.37-.02-.59.2-.79.18-.2 0-.4-.25-.75-.27-.36-.01-.85.33-.9 1.04-.04.72.72 1 .39 1.4-.34.38-.88-.15-1.4-.18-.52-.03-.63.45-.64.62-.06 1.12 1.43 1.9.77 2.57-.43.43-1.26-.74-1.73-.77-.47-.03-.64.24-.66.47-.03.54.7.93.68 1.18 0 .22-.66-.1-.69.37-.05.92 2.1 1.62 2.04 2.51-.03.55-.8-.09-1.3-.12-.24 0-.6.11-.62.45-.05.73 1.62 1.24 1.6 1.58-.01.2-.46.04-.48.3-.02.25 1.85 1.27 2.04 3.43.04.4.27.77.66 1l.03.02z"/>
    <path d="M93.64 76.33c.37-.2.62-.52.69-.89.4-2.14 2.34-2.94 2.35-3.19.01-.27-.45-.16-.44-.36.02-.34 1.74-.65 1.78-1.38.02-.34-.32-.5-.56-.51-.49-.03-1.33.5-1.3-.04.06-.9 2.27-1.34 2.33-2.26.03-.47-.65-.22-.64-.45.01-.24.78-.54.82-1.09.01-.23-.12-.52-.6-.55-.46-.02-1.42 1.04-1.8.57-.58-.73 1.14-1.33 1.21-2.45.01-.19-.04-.67-.55-.7-.52-.03-1.13.44-1.41.01-.3-.42.5-.62.54-1.34.05-.72-.4-1.11-.77-1.14-.36-.02-.58.2-.78.18-.21 0-.4-.25-.75-.26-.36-.02-.85.32-.9 1.03-.05.72.72 1 .38 1.4-.33.38-.87-.15-1.4-.18-.51-.03-.62.45-.63.62-.07 1.12 1.43 1.91.77 2.57-.43.43-1.26-.74-1.73-.77-.47-.02-.64.24-.66.47-.03.54.7.93.68 1.18 0 .22-.66-.1-.69.37-.06.92 2.09 1.62 2.03 2.51-.03.55-.8-.09-1.3-.11-.23-.01-.59.1-.62.44-.04.74 1.63 1.24 1.6 1.58 0 .2-.45.04-.47.3-.02.26 1.85 1.27 2.04 3.43.04.4.27.78.66 1l.03.03z"/>
    <path d="M93.05 75.71c.26-.32.37-.72.29-1.08-.47-2.14.98-3.64.9-3.87-.1-.25-.48.03-.56-.16-.11-.32 1.34-1.27 1.09-1.97-.12-.32-.5-.34-.71-.25-.46.17-1.03 1-1.21.49-.3-.85 1.55-2.13 1.24-3-.17-.45-.68.05-.76-.16-.09-.23.5-.81.33-1.32-.08-.21-.33-.42-.77-.27-.44.15-.9 1.51-1.43 1.23-.83-.44.52-1.68.13-2.74-.05-.17-.3-.6-.78-.42-.5.17-.86.85-1.29.58-.43-.28.22-.78-.03-1.45-.25-.68-.81-.86-1.15-.74-.34.13-.46.4-.65.48-.2.07-.45-.08-.8.05-.34.12-.65.63-.4 1.31.24.68 1.06.64.9 1.13-.15.5-.86.21-1.35.39-.49.18-.4.66-.33.82.38 1.06 2.07 1.19 1.72 2.05-.23.57-1.45-.18-1.89-.02-.44.17-.5.48-.4.7.17.5 1 .57 1.08.8.08.21-.64.16-.49.6.32.87 2.56.67 2.87 1.51.18.5-.77.24-1.24.41-.22.08-.5.34-.38.65.25.7 1.98.5 2.1.82.06.2-.41.22-.32.47.08.23 2.2.43 3.23 2.33.19.35.55.6 1 .66l.03.01z"/>
    <path d="M112.96 90.44c.32-.26.73-.35 1.1-.27 2.12.51 3.63-.92 3.87-.82.25.1-.03.47.16.54.31.12 1.3-1.3 2-1.05.3.11.32.5.23.7-.17.47-1 1.02-.5 1.22.84.31 2.15-1.52 3.01-1.2.45.17-.06.69.15.78.23.08.82-.5 1.33-.3.21.07.42.32.25.77-.16.44-1.53.87-1.26 1.4.44.84 1.7-.48 2.74-.1.17.08.6.32.4.8-.18.5-.86.85-.6 1.28.27.43.78-.2 1.45.05.67.26.86.82.72 1.16-.13.33-.41.45-.49.65-.07.2.07.46-.06.8-.14.33-.65.64-1.32.39-.67-.26-.62-1.07-1.1-.92-.5.14-.23.86-.41 1.35-.18.49-.66.38-.84.33-1.05-.4-1.15-2.1-2.02-1.76-.57.22.16 1.45-.01 1.9-.16.43-.49.48-.7.4-.5-.2-.56-1.02-.79-1.12-.2-.07-.17.64-.61.48-.86-.32-.61-2.57-1.46-2.9-.5-.19-.25.77-.43 1.24-.09.22-.34.5-.65.38-.7-.26-.47-1.99-.79-2.11-.19-.07-.23.4-.48.3-.23-.08-.39-2.21-2.28-3.27a1.3 1.3 0 01-.64-1.01v-.04z"/>
    <path d="M110.2 77.22c-.09-.41 0-.8.25-1.1 1.4-1.67.8-3.67 1-3.84.2-.18.4.24.55.1.25-.23-.6-1.74-.05-2.25.25-.23.59-.07.75.1.33.37.45 1.36.85 1 .66-.61-.4-2.61.29-3.24.35-.31.59.37.75.21.18-.16-.07-.96.32-1.32.18-.15.48-.23.8.12.32.34.1 1.76.7 1.75.93 0 .32-1.73 1.14-2.48.14-.13.54-.4.9-.01.35.38.36 1.15.87 1.1.5-.05.16-.79.69-1.28.52-.48 1.12-.39 1.36-.12.25.27.22.58.36.73.15.15.44.14.68.41.25.27.29.86-.24 1.35-.52.5-1.23.08-1.32.59-.09.5.67.58 1.03.97.35.38.04.76-.09.89-.83.76-2.39.1-2.47 1.02-.06.6 1.37.51 1.68.86.32.34.22.65.05.8-.4.37-1.16.05-1.34.21-.16.16.5.45.15.77-.68.62-2.58-.6-3.24.01-.4.37.58.57.91.93.16.17.29.53.04.76-.55.5-1.98-.47-2.23-.24-.16.13.25.38.05.56-.18.17-2.15-.63-3.95.58a1.3 1.3 0 01-1.19.12h-.03z"/>
    <path d="M113.16 80.78c.1-.4.35-.72.69-.88 1.98-.92 2.3-2.97 2.54-3.05.26-.07.26.4.46.34.33-.1.21-1.83.91-2.05.33-.1.56.19.63.4.15.48-.17 1.43.35 1.27.85-.27.76-2.53 1.64-2.8.45-.15.36.58.58.51.24-.07.35-.9.87-1.05.22-.07.53 0 .67.45.13.45-.67 1.63-.12 1.89.86.4 1.03-1.43 2.1-1.77.17-.05.65-.12.8.38.15.5-.16 1.2.32 1.37.48.18.48-.64 1.17-.85.69-.22 1.18.12 1.28.47.1.34-.05.6.02.81.06.2.34.32.44.66.1.35-.1.9-.8 1.12-.68.21-1.15-.46-1.44-.03-.3.42.35.81.5 1.3.16.5-.28.73-.45.78-1.08.33-2.2-.93-2.68-.13-.32.53 1.02 1.04 1.16 1.49.13.45-.09.68-.3.75-.51.16-1.07-.46-1.3-.39-.21.07.26.62-.2.76-.87.28-2.06-1.64-2.93-1.37-.51.16.28.76.42 1.24.07.22.04.59-.28.7-.71.22-1.6-1.28-1.92-1.17-.2.05.07.45-.2.53-.23.08-1.67-1.5-3.8-1.16a1.3 1.3 0 01-1.14-.4v-.06z"/>
    <path d="M101.98 83.8a1.3 1.3 0 01.29-1.09c1.45-1.63.93-3.64 1.12-3.8.2-.18.4.25.55.12.26-.22-.53-1.76.03-2.25.26-.22.59-.05.74.13.33.37.4 1.37.82 1.02.68-.59-.31-2.62.39-3.22.35-.31.57.38.74.24.19-.17-.04-.96.37-1.32.17-.15.5-.21.8.15.3.35.03 1.76.64 1.77.93.02.37-1.72 1.23-2.45.13-.11.55-.37.89.02.34.4.33 1.16.83 1.13.51-.02.2-.77.74-1.24.55-.47 1.13-.36 1.37-.08.24.28.2.58.34.74.13.15.43.16.67.44.24.28.26.87-.29 1.34-.54.47-1.23.04-1.34.54-.1.5.65.6.99 1 .33.4.02.76-.12.88-.85.73-2.39.02-2.51.94-.08.6 1.35.55 1.65.91.3.36.2.66.02.8-.41.36-1.16.02-1.35.17-.18.14.48.46.12.77-.7.6-2.55-.7-3.23-.1-.41.35.56.58.88.96.16.18.27.54.02.76-.56.48-1.96-.54-2.22-.32-.16.13.25.4.03.57-.19.16-2.12-.71-3.96.44-.34.2-.77.25-1.2.08l-.03-.02z"/>
    <path d="M101.79 77.62a1.31 1.31 0 01-.31-1.08c.43-2.15-1.04-3.62-.96-3.85.09-.26.47.02.54-.17.1-.32-1.36-1.26-1.12-1.96.1-.31.48-.33.7-.26.48.17 1.05.98 1.22.46.3-.85-1.59-2.1-1.3-2.97.16-.45.69.05.77-.16.07-.23-.52-.8-.35-1.32.08-.23.32-.44.76-.28.44.15.92 1.5 1.46 1.2.81-.45-.55-1.66-.19-2.73.06-.17.3-.6.78-.43.49.17.87.84 1.3.56.42-.28-.23-.77 0-1.45.23-.68.8-.88 1.14-.76.34.12.47.4.66.47.2.07.45-.08.8.04.34.11.67.62.43 1.3-.23.68-1.06.67-.89 1.15.17.48.88.19 1.36.36.5.17.42.65.36.82-.36 1.07-2.05 1.23-1.69 2.1.24.55 1.44-.22 1.9-.06.43.15.49.47.42.69-.17.5-1 .6-1.08.82-.08.21.65.16.5.6-.3.87-2.55.7-2.84 1.55-.17.52.78.22 1.25.38.22.08.5.33.39.65-.24.7-1.97.53-2.08.85-.07.2.41.21.32.47-.07.23-2.2.47-3.19 2.39-.18.35-.55.61-.99.68h-.03z"/>
    <path d="M102.18 75.44a1.3 1.3 0 01-.55-.97c-.07-2.2-1.85-3.27-1.83-3.52.03-.27.47-.09.5-.3.02-.33-1.62-.9-1.55-1.63.03-.34.39-.44.62-.42.49.05 1.25.7 1.3.16.08-.9-2.04-1.68-1.95-2.6.05-.47.68-.11.7-.33.02-.25-.7-.67-.64-1.2.01-.23.2-.5.67-.45.47.04 1.24 1.24 1.7.83.68-.63-.93-1.5-.82-2.6.02-.19.14-.66.66-.61.52.05 1.04.61 1.4.24.34-.38-.41-.7-.34-1.41.06-.72.56-1.04.93-1 .36.03.54.27.75.29.21.02.43-.18.79-.15.36.03.8.45.73 1.17-.07.71-.87.88-.6 1.32.27.43.9-.02 1.41.04.52.04.55.53.54.72-.1 1.12-1.7 1.66-1.15 2.41.36.5 1.35-.53 1.82-.49.47.05.6.35.58.57-.05.54-.84.81-.87 1.05-.02.22.68 0 .63.47-.09.92-2.32 1.28-2.41 2.17-.05.54.8.04 1.3.09.23.02.57.2.54.53-.07.74-1.8.98-1.82 1.32-.02.2.45.11.42.38-.02.25-2.02.97-2.55 3.07-.1.4-.38.72-.8.9l-.04.01z"/>
    <path d="M91.4 85c.15-.38.13-.8-.06-1.12-1.08-1.9-.14-3.76-.3-3.96-.16-.2-.43.17-.56.01-.2-.27.9-1.61.45-2.2-.2-.27-.56-.18-.75-.03-.39.3-.68 1.25-1.01.82-.55-.72.84-2.5.29-3.23-.3-.37-.64.26-.78.08-.15-.2.24-.93-.09-1.36-.13-.19-.43-.31-.8-.03-.38.28-.4 1.71-1 1.6-.92-.17 0-1.76-.68-2.65-.1-.14-.46-.48-.87-.16-.42.31-.57 1.06-1.06.93-.49-.14-.02-.8-.46-1.37-.43-.58-1.03-.59-1.32-.37-.29.22-.32.53-.48.65-.16.13-.46.07-.75.3-.29.21-.44.79 0 1.36.43.58 1.2.3 1.2.8 0 .52-.77.47-1.18.78-.41.31-.18.74-.08.89.68.89 2.33.52 2.26 1.45-.05.6-1.44.26-1.82.53-.37.3-.32.6-.19.79.33.43 1.14.25 1.29.45.13.18-.57.35-.3.73.57.74 2.65-.14 3.2.58.32.44-.68.46-1.07.76-.18.15-.38.47-.17.74.45.6 2.04-.12 2.24.15.12.17-.33.33-.16.55.15.2 2.23-.24 3.77 1.27.3.27.71.4 1.16.33h.03z"/>
    <path d="M89.47 76.37c.16-.38.14-.8-.04-1.12-1.09-1.9-.15-3.76-.3-3.96-.16-.2-.44.17-.57.01-.2-.27.9-1.61.45-2.2-.2-.27-.56-.18-.74-.03-.4.3-.68 1.25-1.02.82-.55-.72.84-2.5.29-3.23-.29-.37-.64.26-.78.08-.15-.2.24-.93-.09-1.36-.13-.19-.43-.31-.8-.03-.38.28-.4 1.71-1 1.6-.92-.17 0-1.76-.68-2.65-.1-.14-.46-.48-.87-.16-.41.31-.57 1.06-1.06.93-.49-.14-.02-.8-.46-1.37-.43-.58-1.03-.59-1.32-.37-.29.22-.32.53-.48.65-.16.13-.46.07-.75.3-.29.21-.44.79 0 1.36.43.58 1.21.3 1.2.8 0 .52-.77.47-1.18.78-.41.31-.18.74-.08.89.69.89 2.34.52 2.26 1.45-.05.6-1.44.25-1.81.53-.38.3-.33.6-.2.79.33.43 1.15.25 1.29.45.13.18-.57.35-.29.73.56.74 2.64-.14 3.19.58.32.44-.68.46-1.07.76-.18.15-.37.47-.17.74.45.6 2.04-.12 2.24.15.13.17-.32.33-.16.55.15.2 2.23-.24 3.78 1.27.28.27.7.4 1.15.33h.04z"/>
    <path d="M90.13 77.68a1.27 1.27 0 00-.6-.95c-1.83-1.11-1.95-3.21-2.17-3.31-.24-.1-.3.37-.47.3-.3-.14-.04-1.87-.7-2.16-.3-.13-.56.14-.65.36-.18.46.04 1.45-.44 1.24-.8-.34-.5-2.62-1.33-2.97-.42-.18-.4.56-.6.47-.23-.1-.26-.94-.74-1.15-.2-.09-.52-.05-.68.4-.18.43.5 1.7-.05 1.9-.86.33-.87-1.53-1.86-1.96-.17-.06-.63-.18-.8.31-.19.49.04 1.22-.43 1.35-.48.14-.41-.69-1.05-.97-.65-.27-1.15.02-1.28.36-.13.34-.01.62-.09.81-.07.2-.34.3-.48.64-.13.34.03.92.68 1.2.64.27 1.15-.36 1.39.08.25.45-.42.79-.6 1.28-.2.49.2.74.37.81 1 .43 2.2-.74 2.58.12.26.55-1.07.96-1.23 1.4-.17.44.02.7.22.78.48.21 1.06-.36 1.28-.27.2.1-.3.6.12.78.82.36 2.13-1.48 2.93-1.12.48.21-.33.75-.52 1.2-.08.23-.08.61.22.74.66.28 1.64-1.14 1.93-1.02.18.08-.1.45.14.56.22.1 1.73-1.37 3.77-.84.37.1.78 0 1.12-.3l.03-.02z"/>
    <path d="M85.76 86.8c-.13-.4-.4-.7-.76-.83-2.07-.76-2.54-2.77-2.78-2.83-.26-.05-.23.42-.44.38-.32-.08-.35-1.81-1.08-1.98-.33-.07-.55.23-.6.46-.1.48.3 1.4-.23 1.29-.88-.2-.96-2.46-1.86-2.66-.46-.1-.32.6-.54.56-.24-.06-.42-.87-.94-.99-.22-.05-.54.05-.63.5-.1.46.8 1.57.26 1.87-.81.46-1.13-1.34-2.23-1.58-.17-.04-.66-.07-.78.44-.11.5.26 1.18-.2 1.39-.46.22-.53-.6-1.23-.76-.7-.15-1.16.22-1.25.58-.08.35.1.6.05.8-.05.2-.31.35-.39.7-.07.36.19.9.89 1.06.7.15 1.1-.55 1.43-.16.33.4-.28.85-.4 1.35-.11.51.35.7.52.73 1.1.25 2.12-1.1 2.66-.34.35.5-.94 1.12-1.04 1.58-.1.46.13.67.36.73.53.11 1.03-.55 1.28-.49.22.05-.21.63.25.74.9.2 1.93-1.8 2.8-1.61.54.11-.2.78-.32 1.26-.05.23.01.6.35.67.72.17 1.48-1.4 1.81-1.32.2.05-.03.46.23.52.24.06 1.54-1.63 3.71-1.48.4.03.8-.14 1.1-.49l.02-.03z"/>
    <path d="M88.84 90.05a1.29 1.29 0 00-1.11-.15c-2.06.73-3.72-.5-3.95-.39-.24.13.08.46-.1.56-.3.15-1.43-1.16-2.09-.83-.3.16-.27.53-.16.73.23.44 1.11.9.63 1.13-.8.4-2.3-1.26-3.12-.84-.43.21.14.67-.06.77-.22.11-.87-.4-1.35-.16-.2.1-.39.38-.17.79.21.41 1.62.69 1.4 1.25-.33.87-1.72-.3-2.72.22-.16.07-.56.37-.32.83.24.46.95.74.73 1.2-.22.46-.8-.12-1.44.21-.64.33-.75.91-.58 1.23.16.32.46.4.56.58.1.18-.02.46.15.78.16.32.7.56 1.35.24.64-.33.5-1.13 1-1.04.5.1.32.83.56 1.29.24.46.7.3.87.23 1-.51.92-2.2 1.82-1.96.58.16 0 1.45.21 1.86.21.41.54.43.74.33.48-.24.44-1.08.66-1.18.2-.1.24.61.66.4.83-.42.33-2.6 1.13-3.02.48-.25.34.74.56 1.17.1.21.4.45.69.3.66-.34.25-2.02.55-2.17.18-.1.26.37.5.25.22-.11.16-2.22 1.91-3.48.33-.23.53-.62.53-1.07v-.04z"/>
    <path d="M92.61 89.44a1.27 1.27 0 00-.82-.75c-2.11-.6-2.76-2.56-3-2.6-.27-.04-.2.43-.4.4-.33-.05-.5-1.77-1.24-1.88-.33-.05-.51.28-.55.5-.07.5.4 1.38-.14 1.3-.89-.12-1.16-2.36-2.07-2.49-.47-.07-.27.63-.49.6-.24-.04-.49-.83-1.01-.9-.23-.04-.53.08-.59.54-.07.46.92 1.5.42 1.83-.77.52-1.23-1.24-2.35-1.4-.18-.03-.66-.02-.73.5-.07.52.35 1.15-.09 1.4-.44.25-.59-.56-1.3-.65-.7-.1-1.14.3-1.18.66-.05.35.14.6.11.8-.03.2-.28.36-.32.72-.05.37.24.88.96.98.71.1 1.07-.63 1.42-.27.36.37-.22.86-.28 1.38-.07.51.39.66.57.68 1.11.16 2.01-1.27 2.62-.55.4.46-.84 1.19-.9 1.65-.07.46.19.66.42.69.54.08.98-.61 1.23-.59.22.03-.16.65.3.71.91.14 1.78-1.94 2.67-1.8.54.07-.15.79-.22 1.28-.03.23.06.6.4.64.72.1 1.35-1.5 1.69-1.46.2.03 0 .46.27.5.24.04 1.4-1.74 3.56-1.75.4 0 .8-.2 1.05-.57l.02-.03z"/>
    <path d="M92.53 89.58c.21-.37.24-.77.1-1.12-.8-2.04.38-3.74.27-3.96-.14-.24-.46.1-.56-.08-.16-.3 1.11-1.48.75-2.12-.16-.3-.54-.25-.74-.13-.43.24-.85 1.15-1.11.67-.43-.79 1.18-2.35.74-3.16-.23-.41-.66.17-.77-.03-.12-.22.36-.89.1-1.36-.11-.2-.38-.36-.79-.13-.4.23-.63 1.64-1.2 1.45-.9-.31.23-1.74-.32-2.73-.08-.15-.39-.53-.84-.29-.45.26-.7.98-1.17.78-.47-.2.09-.8-.26-1.43-.34-.63-.93-.72-1.24-.54-.32.18-.39.48-.57.57-.18.1-.46 0-.78.18-.31.19-.54.73-.19 1.36.35.64 1.14.47 1.08.97-.08.51-.82.35-1.27.6-.45.26-.29.7-.2.87.54.98 2.22.84 2.02 1.76-.13.59-1.45.04-1.85.27-.4.23-.41.56-.3.75.26.47 1.09.4 1.21.62.1.2-.6.27-.38.69.45.8 2.62.24 3.06 1.02.26.47-.72.37-1.15.6-.2.12-.44.42-.27.7.35.66 2.02.18 2.18.48.1.17-.36.27-.23.51.12.22 2.24.07 3.55 1.79.25.31.64.5 1.1.49h.03z"/>
    <path d="M86.27 84.08c.01-.4-.16-.78-.45-1.02-1.7-1.38-1.5-3.45-1.7-3.58-.24-.14-.36.32-.53.21-.3-.17.25-1.83-.39-2.21-.28-.18-.58.04-.7.25-.27.42-.19 1.42-.65 1.13-.77-.47-.11-2.64-.9-3.12-.4-.25-.49.47-.68.36-.21-.14-.12-.96-.58-1.24-.19-.13-.51-.14-.76.27-.25.4.24 1.74-.36 1.85-.92.16-.63-1.63-1.59-2.23-.15-.1-.6-.27-.87.17-.27.44-.15 1.2-.65 1.24-.51.06-.31-.74-.93-1.12-.6-.37-1.17-.17-1.36.14-.19.3-.1.6-.2.78-.11.18-.41.23-.6.54-.2.3-.12.9.49 1.28s1.22-.16 1.4.32c.19.48-.54.7-.82 1.14-.27.44.1.77.25.85.96.59 2.36-.35 2.63.54.17.59-1.25.76-1.49 1.15-.25.4-.08.68.1.8.47.29 1.16-.17 1.37-.04.2.11-.4.53 0 .78.79.48 2.42-1.09 3.18-.6.46.28-.46.66-.72 1.09-.12.2-.18.56.1.74.64.4 1.87-.84 2.16-.66.17.1-.19.42.04.57.22.13 2-1.04 4-.18.37.15.8.12 1.2-.11l.02-.02z"/>
    <path d="M87.61 85.91a1.3 1.3 0 00-1.1-.17c-2.09.68-3.72-.61-3.94-.5-.24.1.08.46-.1.55-.31.14-1.4-1.2-2.08-.88-.3.14-.27.52-.18.73.21.44 1.1.92.6 1.16-.81.38-2.27-1.34-3.1-.94-.42.2.12.67-.08.77-.22.11-.86-.42-1.35-.19-.21.1-.4.37-.2.79.2.42 1.6.74 1.38 1.3-.36.87-1.72-.35-2.73.14-.17.07-.57.35-.34.82.23.47.93.77.7 1.23-.23.46-.79-.14-1.44.17-.65.3-.77.9-.62 1.22.15.33.45.42.54.6.08.2-.03.46.13.79.15.33.7.6 1.34.28.65-.3.54-1.12 1.04-1.02.5.1.29.85.52 1.32.22.47.69.33.85.24 1.02-.48.98-2.17 1.88-1.91.58.17-.04 1.45.16 1.88.2.42.53.44.73.34.49-.23.47-1.06.7-1.17.2-.1.23.62.65.42.84-.39.4-2.61 1.22-3 .49-.23.32.75.53 1.2.1.2.38.45.68.3.67-.3.3-2 .6-2.16.19-.09.26.38.5.27.22-.1.21-2.24 2-3.45.34-.23.55-.62.56-1.07v-.04z"/>
    <path d="M91.65 88.94a1.3 1.3 0 00-1.12.05c-1.9 1.1-3.76.18-3.95.33-.21.16.17.44 0 .56-.26.2-1.61-.88-2.2-.43-.27.2-.16.57-.02.75.31.4 1.26.67.84 1-.71.55-2.5-.83-3.23-.26-.38.29.26.63.08.77-.19.15-.93-.23-1.36.1-.18.14-.3.43-.02.8.29.37 1.72.4 1.61.99-.17.92-1.75.01-2.64.7-.15.1-.48.47-.17.88.32.41 1.07.55.94 1.04-.13.5-.8.03-1.37.47-.56.44-.57 1.04-.35 1.33.22.28.52.31.65.48.12.16.07.46.29.74.22.3.8.44 1.37 0 .56-.45.29-1.21.8-1.21.5 0 .45.75.77 1.17.32.4.75.18.9.06.88-.68.5-2.33 1.43-2.26.6.05.27 1.43.55 1.8.28.38.6.33.78.18.43-.32.24-1.14.44-1.28.19-.13.36.57.73.28.73-.57-.15-2.64.56-3.2.43-.33.46.67.77 1.06.14.18.47.37.73.17.59-.45-.12-2.03.15-2.24.16-.13.33.31.55.15.19-.15-.26-2.23 1.23-3.79.28-.28.4-.7.33-1.15l-.01-.03z"/>
    <path d="M107.66 73.55c-.1-.42 0-.81.24-1.1 1.41-1.68.81-3.67 1-3.84.2-.19.4.24.56.1.25-.23-.6-1.74-.05-2.25.25-.23.58-.07.75.1.33.37.45 1.36.85 1 .66-.61-.4-2.62.29-3.24.34-.32.58.36.75.21.18-.16-.07-.96.32-1.32.18-.16.48-.23.8.11.32.35.1 1.77.7 1.76.93-.01.32-1.73 1.14-2.49.13-.12.54-.39.9 0 .35.38.36 1.15.86 1.1.51-.05.17-.79.7-1.28.52-.49 1.12-.4 1.36-.12.25.27.22.57.36.73.14.15.44.14.68.4.25.28.29.87-.24 1.36-.53.49-1.24.08-1.32.59-.09.5.67.58 1.02.96.36.39.05.77-.08.9-.83.75-2.39.1-2.48 1.02-.05.6 1.38.51 1.7.86.3.34.21.65.04.8-.4.37-1.16.05-1.34.21-.17.16.5.44.15.77-.68.62-2.58-.6-3.24 0-.4.37.58.57.91.94.15.17.29.53.04.76-.55.5-1.99-.47-2.24-.24-.15.13.26.38.06.56-.18.17-2.16-.63-3.95.58a1.3 1.3 0 01-1.19.12h-.04z"/>
    <path d="M114.17 76.6c0-.4.19-.78.49-1 1.74-1.33 1.62-3.4 1.83-3.52.23-.14.34.32.51.23.3-.16-.19-1.84.46-2.2.3-.17.59.06.7.26.24.43.14 1.42.6 1.15.8-.44.21-2.63 1.02-3.09.4-.23.48.5.68.38.2-.13.14-.95.61-1.22.2-.11.52-.11.76.3s-.3 1.73.29 1.87c.9.2.69-1.61 1.66-2.17.16-.09.62-.26.88.2.26.44.1 1.2.6 1.27.5.07.34-.73.96-1.09.62-.35 1.18-.13 1.36.19.18.31.09.6.2.78.1.18.39.24.57.56.18.31.08.9-.54 1.26s-1.23-.2-1.42.27c-.2.47.53.72.78 1.17.26.45-.13.76-.28.85-.98.55-2.35-.44-2.65.44-.19.57 1.22.8 1.45 1.2.23.42.07.7-.13.8-.47.27-1.14-.22-1.36-.1-.2.12.38.55-.03.78-.8.45-2.38-1.16-3.16-.72-.47.27.43.68.68 1.12.12.2.17.57-.13.73-.64.37-1.83-.9-2.12-.73-.17.1.16.43-.07.56-.2.13-1.95-1.1-3.98-.32-.37.14-.81.1-1.19-.16l-.02-.02z"/>
    <path d="M114.44 84.26c.1-.4.35-.73.7-.9 1.98-.94 2.27-2.99 2.5-3.06.27-.1.28.39.47.32.31-.1.19-1.84.9-2.06.32-.1.56.18.63.41.15.47-.16 1.42.36 1.26.85-.28.73-2.53 1.6-2.81.46-.14.38.57.6.5.23-.07.33-.9.85-1.06.22-.06.53 0 .68.44.14.45-.66 1.64-.1 1.9.85.38 1-1.45 2.08-1.8.17-.05.65-.12.82.37.16.5-.16 1.2.33 1.38.48.17.48-.65 1.16-.87.68-.22 1.18.12 1.3.46.11.35-.04.62.02.82.06.2.33.31.45.66.11.34-.1.91-.79 1.12-.68.22-1.16-.45-1.45-.03-.29.42.37.82.53 1.3.16.5-.28.73-.45.78-1.07.35-2.2-.9-2.68-.1-.3.52 1.03 1.03 1.17 1.47.15.45-.07.69-.3.76-.51.16-1.07-.45-1.3-.37-.22.06.26.61-.19.76-.87.27-2.09-1.63-2.94-1.36-.52.17.28.76.43 1.23.07.22.04.6-.28.7-.7.23-1.6-1.26-1.93-1.16-.19.06.08.45-.18.54-.24.07-1.69-1.48-3.83-1.13-.4.06-.81-.07-1.13-.4l-.03-.03z"/>
    <path d="M114.96 86.4c.34-.25.74-.34 1.1-.25 2.11.57 3.67-.81 3.9-.71.25.1-.05.47.13.54.3.13 1.34-1.27 2.03-1 .3.13.3.51.22.72-.2.46-1.04.98-.54 1.2.83.34 2.2-1.46 3.05-1.11.43.18-.09.68.12.77.23.1.85-.47 1.35-.27.2.09.4.34.23.78-.19.43-1.56.82-1.3 1.38.4.84 1.7-.44 2.73-.02.17.06.59.32.39.8-.2.48-.88.82-.64 1.26.26.44.8-.18 1.45.09.66.27.83.84.7 1.18-.15.34-.43.45-.52.64-.07.19.06.46-.08.8-.15.33-.66.62-1.32.35-.67-.28-.6-1.1-1.09-.96-.49.13-.25.85-.44 1.33-.2.48-.67.37-.84.3-1.04-.43-1.1-2.12-1.98-1.81-.57.2.13 1.44-.06 1.89-.18.43-.5.47-.7.38-.5-.2-.53-1.04-.76-1.13-.21-.09-.2.64-.63.46-.85-.36-.54-2.6-1.37-2.94-.5-.2-.27.77-.46 1.22-.08.22-.35.48-.66.36-.68-.28-.41-2-.72-2.13-.18-.08-.24.4-.49.29-.23-.1-.33-2.23-2.18-3.34a1.32 1.32 0 01-.62-1.03v-.04z"/>
    <path d="M112.2 90c.38-.13.79-.1 1.11.1 1.87 1.14 3.75.25 3.94.4.21.18-.18.45-.02.57.25.21 1.63-.84 2.21-.38.26.21.15.58.01.76-.3.38-1.28.64-.85.99.7.56 2.52-.78 3.24-.2.36.3-.28.64-.1.77.18.15.93-.21 1.35.13.19.14.3.44 0 .8-.3.37-1.72.36-1.63.95.16.92 1.76.06 2.63.76.14.11.47.48.14.88-.32.4-1.08.53-.95 1.03.11.5.8.04 1.36.5.55.45.55 1.04.32 1.33-.23.29-.53.3-.66.46-.13.16-.07.45-.3.74-.24.28-.82.4-1.38-.04-.55-.45-.26-1.22-.76-1.23-.51 0-.48.75-.8 1.15-.33.4-.76.16-.9.05-.87-.71-.45-2.35-1.38-2.3-.6.03-.3 1.43-.6 1.8-.3.36-.61.3-.8.15-.41-.33-.2-1.14-.4-1.3-.18-.13-.37.57-.73.27-.72-.58.2-2.64-.5-3.2-.41-.35-.47.65-.78 1.03-.14.18-.48.37-.74.15-.57-.47.18-2.03-.08-2.24-.16-.12-.34.3-.55.14-.2-.15.3-2.22-1.15-3.81-.27-.3-.38-.72-.3-1.16l.01-.04z"/>
    <g fill="#000" stroke="none">
      <path d="M96.63 72.73c-.47 1.26-.4 2.64-.32 3.97.24 2.32.1 4.67-.14 6.99-.07.52-.13 1.04-.24 1.55.14-1.34.17-2.68.24-4.03.03-1.44.06-2.88-.06-4.31-.05-1.4-.1-2.89.52-4.17z"/>
      <path d="M98.46 73.86c-.08.16-.2.3-.32.43-.31.3-.7.55-1.12.68-.1.02-.19.04-.28.04l.44-.31 1.28-.84z"/>
      <path d="M96.45 64.27a2.36 2.36 0 01-1.71 1.14l.6-.42 1.11-.72z"/>
      <path d="M88.72 63.22c.02.56.16 1.12.34 1.64.22.54.48 1.06.74 1.57l-.18.07c-.25-.53-.5-1.06-.69-1.61a5.54 5.54 0 01-.21-1.67z"/>
      <path d="M88.96 66.06c.38.61.7 1.26.92 1.95.02.08.11.4-.04.13a5.75 5.75 0 01-.88-2.08z"/>
      <path d="M88.88 65.62c-.2-.04-.4-.11-.58-.19l-.6-.25c-.27-.12-.53-.25-.8-.34.18-.05.37-.01.55.03a3.6 3.6 0 011.43.75z"/>
      <path d="M90.39 68.9c-.55-.05-1.07-.2-1.6-.35-.29-.08-.57-.16-.86-.26a3.9 3.9 0 00-.36-.09c.53-.08 1.06.06 1.57.2.42.12.81.3 1.2.48l.03.01z"/>
      <path d="M125.37 94.98c-.53.01-2.01-.36-2.01-.36l.07-.17s1.42.5 1.94.53z"/>
      <path d="M107.05 79.57c-.75.74-1.5 1.49-2.3 2.17-.4.34-.8.68-1.22 1 .27-.36.58-.69.9-1 .55-.53 1.08-1.07 1.7-1.52.3-.23.6-.45.92-.65z"/>
      <path d="M107.64 79.17c.92.02 2.12.3 2.76.75l-1-.24c-.25-.05-.5-.1-.73-.18a19 19 0 01-1.03-.33z"/>
      <path d="M106.3 81.57c.3.04.58.13.85.24l.26.1.25.13c-.25.06-.5.04-.74-.06-.12-.04-.23-.1-.33-.16-.1-.08-.22-.15-.29-.25z"/>
      <path d="M103.26 62.27a7.5 7.5 0 01.04 3.33c-.3 1.58-.67 3.14-.83 4.75-.2 1.46-.35 2.92-.44 4.39-.06-1.87.13-3.74.36-5.6.19-1.8.86-3.5.95-5.32a5.3 5.3 0 00-.08-1.55z"/>
      <path d="M101.27 63.1l.79.7.47.45.24.24a2.48 2.48 0 01-1.42-1.18.98.98 0 01-.08-.22v.01z"/>
      <path d="M100.09 69.73c.18-.01.35.04.52.08.49.19.93.49 1.28.87-.4-.16-.8-.36-1.17-.58-.14-.08-.28-.15-.4-.24l-.22-.12z"/>
      <path d="M100.16 66.32c.21.04.4.13.6.23.54.28 1.1.85 1.32 1.32-.27-.2-.53-.42-.8-.64l-.68-.57-.44-.34z"/>
      <path d="M103.06 68.2a5.69 5.69 0 012.56-1.39c-.29.13-.54.32-.82.48l-.76.44c-.14.08-.28.17-.43.23l-.55.24z"/>
      <path d="M81.63 65.74c.48 1.32 1.53 2.32 2.45 3.33 1.9 1.83 3.5 3.96 4.92 6.19.2.34.66 1.16-.29-.28a75.1 75.1 0 00-5.75-6.85 6.43 6.43 0 01-1.33-2.39z"/>
      <path d="M82.7 68.38c.31.22.57.52.84.79.1.1.17.2.26.3.16.2.32.39.44.6.05.08.17.26-.1-.03a6.2 6.2 0 01-1.44-1.66z"/>
      <path d="M83.76 65.4c.1.32.04.66-.04.97-.1.37-.24.74-.51 1.02.05-.26.13-.52.2-.78l.11-.43.24-.78z"/>
      <path d="M88.26 70.42c-.27.5-.53 1-.83 1.49-.06.09-.12.18-.2.26a3.06 3.06 0 01.66-1.45c.1-.12.23-.23.37-.3z"/>
      <path d="M86.4 67.56l-.65 1.85-.19.51a3.6 3.6 0 01.29-1.5c.12-.33.3-.63.56-.86z"/>
      <path d="M82.5 67.98c-.65.01-1.3-.08-1.95-.15-.05-.01-.24 0-.11-.04.26-.12.55-.1.83-.1.43.02.84.14 1.23.29z"/>
      <path d="M78.4 72.4c1.28 1.08 2.96 1.45 4.53 1.9 1 .35 2 .74 3.02 1.06.28.1.8.26.27.12l-2.12-.5c-1.77-.75-3.78-1-5.33-2.24a4.1 4.1 0 01-.37-.34z"/>
      <path d="M80.59 74.16a5.6 5.6 0 011.53.44c.23.1.46.19.67.33a5.29 5.29 0 01-1.51-.4c-.25-.08-.47-.23-.69-.37z"/>
      <path d="M80.01 71.01a2.54 2.54 0 01.56 1.88c-.01.05-.03.22-.05.08-.08-.27-.16-.55-.22-.83L80 71.01z"/>
      <path d="M86.2 73.1c.02.51.05 1.02.04 1.53 0 .18 0 .36-.05.54a3.28 3.28 0 01-.18-1.5c.03-.2.08-.4.18-.58l.01.01z"/>
      <path d="M83.27 71.54c.1.63.22 1.25.35 1.87l.1.61a3.6 3.6 0 01-.52-2.1c0-.13.03-.26.07-.38z"/>
      <path d="M80.22 73.92c-.2.14-.4.26-.62.37l-.44.2-.45.21c-.1.05-.22.1-.32.17.09-.16.22-.28.36-.4.43-.3.97-.51 1.47-.55z"/>
      <path d="M83.55 75.03c-.71.63-1.54 1.11-2.34 1.62.22-.32.53-.57.84-.8.46-.34.97-.62 1.5-.82z"/>
      <path d="M75.43 85.05a10.61 10.61 0 011.85.2c.18.04.35.09.52.16a5.85 5.85 0 01-2.37-.36z"/>
      <path d="M75.01 84.89c-.27.28-.6.48-.92.7-.24.16-.48.31-.71.48-.05.04-.1.07-.05-.01.14-.29.4-.5.65-.68.31-.22.66-.39 1.03-.49z"/>
      <path d="M86.28 77.95c.3 1.37 1.17 2.52 1.97 3.64a34.63 34.63 0 014.05 7.01c.24.6-.26-.48-.38-.66-.83-1.47-1.66-2.94-2.56-4.36-1.09-1.68-2.49-3.23-3-5.2a3.74 3.74 0 01-.08-.43z"/>
      <path d="M89.24 83.86c.24.32.46.65.68 1 .2.33.39.68.58 1.03a22.1 22.1 0 01.96 2.18A22.1 22.1 0 0190.3 86l-.54-1.05c-.19-.36-.36-.71-.52-1.09z"/>
      <path d="M75.11 77c1.43 1.56 3.54 2.11 5.35 3.07 1.62 1 3.2 2.07 4.83 3.05a66.96 66.96 0 00-7.4-4A7.7 7.7 0 0175.12 77z"/>
      <path d="M77.07 79.07c.72.2 1.38.58 1.99 1.02.04.04.2.13.06.08a4.78 4.78 0 01-2.05-1.11z"/>
      <path d="M76.97 75.91c.1.15.18.32.23.48.05.18.09.35.1.52a2.42 2.42 0 01-.12 1.05l-.07-.52-.04-.51z"/>
      <path d="M80.22 76.97v.62l.03.62.03.62c0 .21.02.41 0 .63a3.59 3.59 0 01-.25-1.88c.05-.2.1-.42.2-.61z"/>
      <path d="M76.73 78.78c-.16.08-.34.13-.5.2l-.5.14-.51.12c-.18.04-.34.08-.51.14.11-.14.28-.23.44-.32a3.21 3.21 0 011.58-.28z"/>
      <path d="M79.96 80.41c-.2.14-.43.24-.64.35l-.66.3-.67.26-.67.28c.17-.18.38-.33.59-.45a5.3 5.3 0 011.35-.58l.7-.16z"/>
      <path d="M75.6 91.45a5.5 5.5 0 001.5-.45c.48-.21.94-.46 1.39-.73.45-.27.89-.55 1.32-.85.43-.3.89-.57 1.34-.83a38.73 38.73 0 014.27-2.05c.49-.2.98-.4 1.47-.55-.48.2-.95.42-1.42.65l-1.41.7c-.47.23-.94.46-1.4.71a38.36 38.36 0 00-2.73 1.57c-.44.28-.89.56-1.35.81-.46.26-.94.49-1.43.67-.5.18-1.01.33-1.54.35z"/>
      <path d="M78.4 90.93a5.6 5.6 0 011.52-.96c.19-.09.37-.16.57-.23a5.7 5.7 0 01-2.09 1.19z"/>
      <path d="M81.7 88.85c.32-.22.68-.42 1.02-.6a22.1 22.1 0 012.18-.97c.37-.14.75-.27 1.13-.37-.34.2-.7.38-1.06.54l-1.08.5-1.09.47c-.35.15-.73.3-1.1.43z"/>
      <path d="M75.7 89.29a2.19 2.19 0 011.02.27c.15.08.3.17.45.29.14.1.27.23.37.38l-.47-.23-.45-.23z"/>
      <path d="M81.53 85.9l.39.33.4.32.37.33c.13.12.25.24.36.38a3.14 3.14 0 01-1.26-.91 1.1 1.1 0 01-.26-.44z"/>
      <path d="M78.35 87.13l.53.34.53.31.53.32c.19.1.36.21.54.34a3.18 3.18 0 01-1.19-.44 3.63 3.63 0 01-.52-.38 1.9 1.9 0 01-.42-.49z"/>
      <path d="M77.98 91.05c-.02.19-.07.36-.1.53l-.16.51-.17.5c-.06.16-.12.32-.16.5a1.3 1.3 0 01-.03-.54 3.25 3.25 0 01.33-1.03c.09-.17.18-.32.29-.47z"/>
      <path d="M81.1 89.22c0 .25-.03.5-.05.73l-.11.72-.13.71-.14.72a2.71 2.71 0 01-.06-.74 5.86 5.86 0 01.49-2.14z"/>
      <path d="M83.84 88.96a1.63 1.63 0 01-.12 1.44c-.03-.13-.02-.25-.02-.36l.02-.36.04-.35c0-.12.04-.24.08-.37z"/>
      <path d="M81.06 96.86c.5-.18.95-.45 1.38-.76a20.1 20.1 0 002.31-2.1c.36-.38.74-.75 1.14-1.1a43.36 43.36 0 013.73-2.9c.43-.29.87-.59 1.33-.83a55.1 55.1 0 00-2.5 1.92l-1.22.98-1.2 1.02c-.4.34-.77.7-1.14 1.07-.37.38-.76.74-1.15 1.09a10 10 0 01-1.27.95c-.42.27-.89.53-1.4.66z"/>
      <path d="M83.7 95.76c.12-.16.25-.31.39-.46l.43-.41a5.8 5.8 0 01.96-.72 4.58 4.58 0 01-1.27 1.28 3.4 3.4 0 01-.52.31z"/>
      <path d="M86.48 93.04a16.48 16.48 0 011.82-1.53l1-.68a10 10 0 011.03-.59c-.3.26-.62.5-.92.75l-.95.7c-.33.24-.64.47-.97.69l-1 .66z"/>
      <path d="M80.71 94.73c.17-.05.35-.06.54-.05a3.19 3.19 0 011.02.27c.16.07.32.17.44.3a9.8 9.8 0 01-.5-.13l-.5-.13z"/>
      <path d="M85.7 90.2c.15.09.3.15.45.23l.45.23a10.25 10.25 0 01.87.55 2.6 2.6 0 01-.98-.34 2.6 2.6 0 01-.8-.67z"/>
      <path d="M82.86 92.06l.58.22.59.2.6.19.59.2c-.21.03-.43 0-.65-.03a3.46 3.46 0 01-1.2-.4c-.2-.1-.37-.22-.51-.38z"/>
      <path d="M85.97 93.54c.06.24.08.49.1.73l.04.73c0 .24 0 .48.02.71 0 .24 0 .48.02.73a2.25 2.25 0 01-.21-.7 6.24 6.24 0 01.03-2.2z"/>
      <path d="M88.6 92.71c.08.1.13.21.17.33l.1.35v.38a.98.98 0 01-.1.36 2.72 2.72 0 01-.08-.35l-.06-.35a4.02 4.02 0 01-.04-.72z"/>
      <path d="M117.26 64.46a5 5 0 01-.89 1.3c-.35.4-.75.76-1.16 1.1-.4.33-.83.63-1.26.94a23.77 23.77 0 00-2.47 1.95c-.4.33-.79.69-1.19 1.03l-1.17 1.06c-.38.35-.77.7-1.14 1.08a30.42 30.42 0 012.18-2.27c.77-.72 1.54-1.42 2.37-2.1.4-.32.83-.63 1.27-.93l1.28-.91c.4-.32.81-.65 1.19-1.02a5.4 5.4 0 001-1.23z"/>
      <path d="M115.74 66.87a4.61 4.61 0 01-1.34 1.2c-.18.11-.35.22-.54.3a6.19 6.19 0 01.88-.83c.15-.13.32-.25.48-.36.16-.1.34-.22.52-.3z"/>
      <path d="M112.58 69.15c-.26.3-.53.59-.81.87l-.84.83a34.65 34.65 0 01-1.77 1.6 23.22 23.22 0 012.47-2.57c.31-.26.63-.5.95-.73z"/>
      <path d="M115.23 63.75l.1 1.03.05.5.04.53a1.5 1.5 0 01-.22-.5 2.46 2.46 0 01-.1-.51 2.42 2.42 0 01.13-1.05z"/>
      <path d="M109.92 67.9c.14.11.24.26.32.4a3.03 3.03 0 01.38 1.5 3.2 3.2 0 01-.22-.46l-.17-.48-.16-.48-.15-.48z"/>
      <path d="M112.24 65.41a2.6 2.6 0 01.45 1.19c.03.21.04.42.04.64 0 .2-.02.42-.08.63a6.37 6.37 0 01-.11-.63l-.09-.6-.1-.62z"/>
      <path d="M116.02 66.53c.17-.05.35-.08.53-.1.19-.01.36-.02.54-.01.18.01.36.04.54.08.17.04.35.1.5.23a5.13 5.13 0 00-.53-.05l-.53-.03a9.8 9.8 0 01-1.05-.12z"/>
      <path d="M113.16 68.74a6.35 6.35 0 012.83.67c-.24-.06-.48-.1-.71-.14l-.71-.15c-.24-.04-.47-.1-.71-.16a4.56 4.56 0 01-.7-.22z"/>
      <path d="M111.9 71.18c.14 0 .25.03.37.05l.34.1.34.12c.11.04.22.08.33.14-.12.04-.25.05-.37.04a1.53 1.53 0 01-.7-.21.95.95 0 01-.3-.24z"/>
      <path d="M125.57 69.92a4.9 4.9 0 01-1.16 1.06c-.43.3-.9.56-1.37.8-.47.24-.96.44-1.45.64a27.38 27.38 0 00-2.83 1.34c-.47.25-.92.5-1.4.74l-1.37.76c-.46.26-.91.52-1.35.8.4-.33.85-.6 1.3-.9l1.33-.82c.91-.53 1.83-1.03 2.78-1.5.47-.23.96-.44 1.45-.63.5-.19.97-.4 1.45-.6.48-.22.94-.45 1.39-.72.44-.27.87-.58 1.23-.97z"/>
      <path d="M123.54 71.92a5.62 5.62 0 01-2.17 1.04l.52-.34a9.43 9.43 0 011.08-.51c.18-.07.37-.14.57-.19z"/>
      <path d="M119.96 73.44l-.99.66-1 .62-1.03.6c-.35.2-.7.4-1.06.57a13.7 13.7 0 011.95-1.36c.34-.2.68-.4 1.03-.58.36-.2.72-.37 1.1-.51z"/>
      <path d="M123.75 68.77l-.14 1.03-.07.5-.08.52c-.07-.16-.1-.34-.1-.53-.02-.17 0-.35.01-.52.02-.18.06-.35.13-.52.05-.17.13-.34.25-.48z"/>
      <path d="M120.46 69.72c.08.2.13.41.16.62a4.84 4.84 0 01-.1 1.28c-.04.2-.11.41-.22.6l.03-.63.05-.62.05-.62z"/>
      <path d="M123.89 71.65a3 3 0 011.57.34c.17.09.33.18.43.34a4.91 4.91 0 00-.5-.17l-.5-.14-.5-.16a3.24 3.24 0 01-.5-.21z"/>
      <path d="M120.6 73.16a5.96 5.96 0 012.62 1.3l-.66-.31-.67-.3-.65-.31a5.34 5.34 0 01-.64-.38z"/>
      <path d="M118.83 75.25c.12.04.23.09.34.15.1.05.21.1.3.17l.3.18c.1.07.2.13.3.22a.98.98 0 01-.37-.05 1.51 1.51 0 01-.34-.15c-.1-.07-.2-.13-.3-.22a1 1 0 01-.23-.3z"/>
      <path d="M126.97 80.04c-.4.34-.88.6-1.35.8-.5.2-1 .37-1.51.5-.5.14-1.03.24-1.54.34a27.22 27.22 0 00-3.05.73l-1.5.44c-.5.15-1.02.3-1.51.46-.5.16-1 .31-1.49.5.47-.23.96-.43 1.45-.62l1.48-.53c1-.33 2-.64 3.02-.9.51-.12 1.04-.24 1.56-.31a41.8 41.8 0 001.54-.3 14.4 14.4 0 001.5-.42c.5-.18.98-.39 1.4-.7z"/>
      <path d="M124.58 81.58a6.55 6.55 0 01-1.73.54c-.2.03-.4.05-.6.04.18-.1.37-.17.57-.22l.57-.17.59-.12c.2-.04.4-.07.6-.07z"/>
      <path d="M120.76 82.33c-.36.16-.73.3-1.1.44l-1.11.41-1.12.39c-.38.12-.76.24-1.14.33a22.23 22.23 0 013.32-1.3 9.3 9.3 0 011.15-.27z"/>
      <path d="M125.42 78.53l-.33.97-.17.48-.19.49c-.04-.18-.02-.36 0-.54a3.09 3.09 0 01.35-1c.1-.13.2-.28.34-.4z"/>
      <path d="M122.01 78.79c.05.21.05.43.03.64a3.7 3.7 0 01-.7 1.78l.17-.62.17-.6.18-.59z"/>
      <path d="M124.97 81.38a2.94 2.94 0 011.02.36c.16.09.3.19.45.3.13.12.28.25.35.42-.15-.1-.3-.18-.46-.26l-.46-.24-.46-.25c-.14-.12-.3-.22-.44-.33z"/>
      <path d="M121.45 82.2a8.44 8.44 0 011.83 1.22c.18.16.35.35.48.57-.2-.16-.4-.29-.59-.43-.2-.15-.4-.28-.58-.43-.2-.14-.39-.3-.58-.45-.2-.14-.4-.3-.56-.49z"/>
      <path d="M127.25 91.27c-.53 0-1.06-.11-1.56-.26-.5-.17-1-.37-1.46-.6-.48-.23-.94-.48-1.4-.74-.46-.26-.92-.5-1.39-.73l-1.41-.68-1.44-.64-1.45-.61c-.49-.2-.97-.4-1.47-.58.52.12 1 .29 1.5.46a38.67 38.67 0 014.36 1.82c.48.24.95.5 1.4.76.45.27.9.53 1.36.77.46.24.93.47 1.42.65.51.18 1 .34 1.54.38z"/>
      <path d="M124.43 90.9a3.98 3.98 0 01-1.14-.41c-.19-.09-.36-.2-.53-.3a3.3 3.3 0 01-.5-.36c.21.05.4.11.58.19a13.8 13.8 0 011.08.54c.18.1.34.22.5.34z"/>
      <path d="M127.03 89.12l-.88.53-.44.25a20 20 0 01-.46.25c.09-.15.22-.28.35-.4a2.71 2.71 0 011.43-.63z"/>
      <path d="M121.03 86.06c-.04.17-.13.32-.24.47a3.38 3.38 0 01-.75.72c-.14.1-.3.18-.46.25.1-.15.22-.27.34-.4l.36-.35.38-.35.37-.34z"/>
      <path d="M124.26 87.11a2 2 0 01-.39.51 4.52 4.52 0 01-1.05.71c-.2.09-.4.16-.6.2.16-.13.34-.25.5-.36l.53-.35.51-.34z"/>
      <path d="M124.86 91a3.82 3.82 0 01.69 1.45c.03.18.06.37 0 .54-.05-.17-.12-.33-.18-.5l-.2-.49a7.64 7.64 0 01-.18-.5 3.3 3.3 0 01-.13-.5z"/>
      <path d="M121.64 89.35a5.96 5.96 0 01.48 1.38c.05.24.1.48.12.73.03.24.04.5-.02.74l-.17-.71-.17-.7-.16-.71-.08-.73z"/>
      <path d="M118.9 89.24c.05.13.08.24.1.36.03.11.05.23.06.34.02.12.03.23.03.35.01.11.02.24.01.36a1.19 1.19 0 01-.28-.69 1.63 1.63 0 010-.37c0-.1.03-.23.08-.35z"/>
      <path d="M122.59 98.17a5 5 0 01-1.42-.7 9.06 9.06 0 01-1.24-.98c-.4-.35-.77-.73-1.13-1.1a24.1 24.1 0 00-1.11-1.1l-1.17-1.05-1.2-1.02s.6.15 2.53 1.89c.38.36.77.73 1.11 1.13.36.38.72.75 1.1 1.12.37.36.76.7 1.17 1.02.42.32.86.6 1.36.79z"/>
      <path d="M119.99 97.02a3.84 3.84 0 01-.97-.72 6 6 0 01-.79-.92 8.81 8.81 0 011.75 1.64z"/>
      <path d="M122.99 96.05l-1 .25-.5.12-.5.12c.13-.13.28-.21.44-.29a3.18 3.18 0 011.03-.25c.17 0 .36 0 .53.05z"/>
      <path d="M118.1 91.4c-.08.16-.22.29-.36.4a3.08 3.08 0 01-1.43.59c.15-.12.3-.2.44-.29.14-.09.3-.16.45-.24l.45-.22.46-.23z"/>
      <path d="M120.9 93.35c-.15.15-.32.27-.51.37a3.5 3.5 0 01-1.86.4c.2-.08.4-.15.6-.2l.59-.19.6-.18z"/>
      <path d="M120.36 97.24a2.98 2.98 0 01.26 1.04c.02.19.02.37 0 .55-.02.18-.06.38-.15.53 0-.18-.02-.36-.04-.53l-.05-.52a4.73 4.73 0 01-.02-1.07z"/>
      <path d="M117.75 94.74a6.26 6.26 0 01.07 1.45c-.02.24-.04.5-.09.73-.04.24-.1.5-.22.71l.04-.73.04-.72.06-.72c.02-.23.04-.47.1-.72z"/>
      <path d="M115.15 93.85v.37l-.04.35-.07.35c-.03.11-.05.23-.1.35a.98.98 0 01-.1-.36 1.63 1.63 0 01.31-1.06z"/>
    </g>
    <path d="M107.63 66.82c-.15.41-.35.81-.55 1.2-.6 1.1-.99 2.3-1.08 3.55-.07.64-.02 1.29.01 1.92-.09.37-.5.47-.82.5-.36.16-.41-.28-.42-.54a7.57 7.57 0 011.74-5.95c.27-.28.58-.53.92-.71.05-.04.24-.1.2.03z"/>
    <path d="M112.52 76.33c-.38.58-.84 1.1-1.25 1.65a8.97 8.97 0 00-1.68 4.5c-.13.34-.54.41-.86.36-.38.1-.45-.29-.37-.57a7.8 7.8 0 012.16-4.83 5 5 0 011.06-.88c.28-.15.57-.3.89-.34.05.01.07.06.05.11z"/>
    <path d="M93.02 70.2c.19.9.6 1.72.78 2.62.29 1.36.25 2.8-.1 4.15 0 .37.37.56.7.62.3.22.5-.09.51-.38a7.61 7.61 0 00-.34-5.17 4.05 4.05 0 00-1.3-1.82c-.06-.06-.28-.22-.25-.02z"/>
    <path d="M100.62 82.99c.19.61.45 1.2.7 1.79.4.75 1.24 3.92 1.24 3.92s.48-.65.63-1.13c0 0-.62-2.53-1.33-3.6-.3-.43-.67-.8-1.12-1.06-.05-.03-.14.03-.12.08z"/>
    <path d="M87.8 84.02c.41.5.7 1.07 1.05 1.6a8.92 8.92 0 003.74 3.25c.27.24.21.65.05.93-.03.32-.38.41-.6.18a9.64 9.64 0 01-2.08-1.32c-.3-.3-.63-.6-.88-.96a7.5 7.5 0 01-1.27-2.3c-.13-.43-.2-.9-.13-1.35.02-.06.08-.06.12-.03z"/>
    <path d="M114.28 88.65c-.45.73-1.08 1.34-1.53 2.08a8.95 8.95 0 00-1.4 4.07c-.13.34-.53.41-.86.36-.34.1-.47-.22-.37-.5.06-.79.2-1.58.5-2.3a8.07 8.07 0 012.48-3.32c.34-.21.7-.41 1.1-.5.05 0 .14.06.08.11z"/>
    <g>
      <path d="M99.5 80.36c-.05-.4.06-.8.32-1.07 1.5-1.6 1.04-3.62 1.24-3.77.2-.17.4.27.54.14.26-.2-.48-1.78.1-2.25.26-.21.6-.03.74.15.3.39.36 1.39.79 1.05.7-.57-.24-2.63.48-3.2.37-.3.56.4.73.26.2-.16 0-.96.42-1.3.18-.15.5-.21.78.16.29.38-.02 1.77.59 1.8.93.05.42-1.71 1.3-2.41.13-.11.56-.35.88.05.33.4.3 1.17.8 1.16.52-.01.22-.78.78-1.23.55-.45 1.14-.32 1.37-.04.23.29.18.59.31.75.14.16.43.17.66.46.23.29.23.88-.33 1.33-.56.45-1.24 0-1.36.5-.12.5.63.63.96 1.03.32.4 0 .77-.15.88-.87.71-2.39-.06-2.54.87-.1.6 1.33.59 1.63.96.3.37.17.66 0 .8-.42.34-1.16-.02-1.35.13-.17.15.47.47.1.77-.71.57-2.53-.76-3.23-.2-.42.35.54.61.86 1 .14.18.26.54-.01.75-.58.47-1.96-.6-2.22-.38-.15.12.23.4.02.57-.19.15-2.1-.77-3.98.32-.34.2-.78.23-1.2.05l-.04-.02z"/>
      <path d="M105 86.87c.05-.4.25-.76.56-.97 1.84-1.21 1.84-3.28 2.07-3.4.24-.11.31.36.5.26.3-.14-.07-1.85.6-2.17.3-.14.58.1.68.32.21.44.04 1.43.53 1.19.8-.4.37-2.61 1.2-3.01.43-.2.46.52.66.42.22-.1.2-.94.69-1.17.2-.1.53-.08.73.34.2.43-.43 1.72.16 1.88.9.26.8-1.56 1.81-2.05.17-.07.64-.22.86.25.22.47.01 1.21.51 1.32.5.1.39-.71 1.03-1.02.64-.32 1.18-.06 1.34.28.16.32.05.61.14.8.08.18.37.26.53.59.17.32.03.9-.62 1.22-.64.32-1.2-.27-1.44.18-.23.46.48.75.7 1.22.23.46-.17.74-.33.82-1.01.49-2.32-.6-2.67.27-.23.56 1.16.87 1.37 1.3.2.41.02.68-.18.78-.49.24-1.12-.29-1.35-.18-.2.1.34.56-.08.77-.82.4-2.3-1.31-3.1-.92-.5.24.39.71.6 1.16.1.21.12.59-.18.73-.68.33-1.77-1.02-2.08-.87-.18.09.14.44-.1.56-.22.1-1.88-1.23-3.94-.59-.39.13-.82.05-1.18-.23l-.03-.02z"/>
      <path d="M96.1 85.45c.21-.36.25-.77.12-1.12-.8-2.04.4-3.74.27-3.96-.13-.24-.46.1-.55-.07-.17-.3 1.12-1.47.76-2.12-.16-.3-.53-.25-.73-.14-.44.24-.87 1.14-1.13.66-.43-.78 1.21-2.35.76-3.15-.23-.41-.67.16-.77-.04-.12-.22.37-.88.11-1.36-.1-.2-.38-.37-.8-.14-.4.23-.65 1.64-1.22 1.43-.89-.3.25-1.73-.3-2.72-.08-.15-.37-.55-.83-.29-.46.26-.71.97-1.18.77-.47-.2.1-.8-.25-1.43-.35-.63-.94-.73-1.26-.56-.32.18-.4.47-.57.58-.19.1-.47 0-.78.17-.32.18-.55.73-.2 1.36.34.64 1.15.47 1.07.98-.08.51-.82.34-1.27.6-.46.25-.3.7-.2.87.53.99 2.23.85 2.02 1.76-.14.6-1.46.04-1.87.27-.41.23-.41.55-.3.75.25.47 1.07.41 1.2.63.1.2-.61.26-.38.67.44.81 2.63.25 3.06 1.05.26.48-.72.35-1.16.6-.2.1-.44.4-.27.7.35.65 2.03.18 2.2.47.09.18-.37.28-.25.52.12.22 2.25.09 3.56 1.8.25.32.64.51 1.1.5h.03z"/>
    </g>
    <g fill="#000" stroke="none">
      <path d="M109.66 71.9c-.66 1.24-1.9 2-3 2.8a49.6 49.6 0 00-4.66 3.32c-.72.58-1.46 1.12-2.13 1.75.96-1.04 2.07-1.92 3.15-2.82 1.03-.84 2.1-1.61 3.26-2.27 1.12-.7 2.27-1.4 3.13-2.43.07-.12.2-.22.25-.35z"/>
      <path d="M108 74.2a5.76 5.76 0 01-1.98 1.39c.62-.62 1.25-1 1.97-1.38z"/>
      <path d="M104.7 76.29a38.47 38.47 0 01-3.62 3.09 17.29 17.29 0 013.63-3.09z"/>
      <path d="M107.67 71.07c.04.68.05 1.37.05 2.05-.37-.7-.22-1.37-.05-2.05z"/>
      <path d="M102.11 74.87c.51.54.51 1.34.57 1.95-.3-.6-.42-1.32-.56-1.95z"/>
      <path d="M104.59 72.54c.48.77.34 1.74.26 2.49-.09-.81-.16-1.65-.26-2.49z"/>
      <path d="M108.29 73.88c.78-.18 1.43.04 2.08.35-.68-.08-1.42-.2-2.08-.35z"/>
      <path d="M105.3 75.91c1.1.07 1.95.37 2.79.86a31.9 31.9 0 01-2.8-.86z"/>
      <path d="M103.89 78.27c.47.07.93.31 1.34.51-.57.09-.93-.22-1.34-.51z"/>
      <path d="M116.82 80.95c-.88.99-2.16 1.51-3.37 1.99-2.48.74-4.8 1.9-7.14 3l-.78.41c1.17-.76 2.44-1.39 3.69-2.01 1.37-.67 2.8-1.22 4.25-1.66 1.13-.4 2.27-.83 3.2-1.6l.08-.06z"/>
      <path d="M114.67 82.8c-.73.53-1.45.72-2.23.9.66-.45 1.52-.7 2.23-.89z"/>
      <path d="M111 84.1c-1.4.82-2.88 1.57-4.24 2.17 1.26-.9 2.8-1.66 4.23-2.18z"/>
      <path d="M115.08 79.68c-.13.68-.28 1.35-.42 2.02-.18-.82.08-1.38.42-2.02z"/>
      <path d="M108.8 82.12c.36.72.23 1.33.1 2.03-.12-.65-.1-1.38-.11-2.03z"/>
      <path d="M111.74 80.41c.29.86-.06 1.77-.32 2.48l.32-2.48z"/>
      <path d="M115.03 82.56c.85.03 1.38.4 1.96.81-.69-.23-1.33-.5-1.96-.81z"/>
      <path d="M111.65 83.86c1.03.35 1.82.81 2.53 1.47-.89-.44-1.78-.95-2.52-1.47z"/>
      <path d="M109.76 85.83c.47.17.82.5 1.19.79-.59-.02-.86-.44-1.19-.79z"/>
      <path d="M89.89 73.78c.33 1.48 1.26 2.73 2.14 3.92a33 33 0 013.45 5.87c.18.39.36.78.5 1.18-.84-1.72-1.86-3.35-2.84-5-.92-1.55-2.19-2.9-2.87-4.59-.19-.44-.34-.9-.38-1.38z"/>
      <path d="M90.57 76.54c.54.6.98 1.28 1.3 2.01a5.5 5.5 0 01-1.3-2.01z"/>
      <path d="M92.82 79.71c1 1.32 1.63 2.8 2.18 4.22a36.75 36.75 0 01-2.18-4.22z"/>
      <path d="M92.04 73.75c.02.83-.36 1.32-.83 1.89.26-.64.54-1.26.83-1.89z"/>
      <path d="M95.76 79.37c-.38.56-.84 1.1-1.27 1.58.2-.74.74-1.19 1.27-1.58z"/>
      <path d="M94.35 76.27c-.42.71-.8 1.51-1.18 2.2.1-.94.57-1.59 1.18-2.2z"/>
      <path d="M90.41 76.12c-.68-.06-1.42-.3-2.07-.47.77-.16 1.42.15 2.07.47z"/>
      <path d="M92.42 79.14c-.95.01-1.92-.16-2.9-.27.98-.25 2.06.05 2.9.27z"/>
      <path d="M92.83 81.84c-.52.28-.96.07-1.43-.05.48-.08.95 0 1.43.05z"/>
    </g>

    <g stroke="none">
      <g>
        <path stroke="#000100" d="M110.5 60.33a.5.5 0 00-.31-.45.46.46 0 00-.55.05c-2.74-.71-4.9 4.12-5 4.35l2.15 2.87 3.6-.2c.16-.36 2.4-4.96.11-6.62z"/>
        <path stroke="#000100" d="M110.39 66.94s-.7-.06-2.97-1.13c-2.29-1.08-2.78-1.55-2.78-1.55s-.3.09-.69.52a2.2 2.2 0 00-.48.87c-.13.2-.08.43.08.68-.04.38.14.59.41.8.06.35.35.5.59.64.16.22.46.45.83.66.4.28.91.5 1.46.6.41.24.82.3 1.17.23.49.22.76.12 1.22-.1.37.01.66-.11.8-.41 0 0 .3-.37.37-.9.06-.53-.01-.91-.01-.91z"/>
        <g fill="#000100" stroke-width=".1">
          <path d="M109.2 60.55c-.16-.22.26-.38.1-.07l-.05.04-.05.03z"/>
          <path d="M108.93 60.77c-.23-.2.26-.59.1-.17-.04.06-.05.12-.1.17z"/>
          <path d="M108.6 61c-.17-.17.2-.84.15-.37a.92.92 0 01-.15.37z"/>
          <path d="M108.24 61.13c-.1-.16.1-.73.22-.58-.05.2-.13.4-.22.58z"/>
          <path d="M107.92 61.34c-.13-.23.04-.8.23-.77-.04.27-.16.51-.23.77z"/>
          <path d="M107.58 61.53c-.16-.23-.04-.77.17-.8-.08.26-.13.53-.17.8z"/>
          <path d="M107.3 61.86c-.21-.2-.2-.7.03-.8-.02.26-.09.53-.03.8z"/>
          <path d="M106.88 61.55c0 .17.23.9-.07.5-.08-.15-.06-.37.07-.5z"/>
          <path d="M110.01 67.94c-.44.55-1.13.78-1.79.95-.44 0-.85.33-1.3.2-.29-.19.38-.24.55-.28.55-.07 1.14-.07 1.64-.36.31-.14.64-.28.9-.51z"/>
          <path d="M109.57 67.36c-.32.59-1.07.6-1.6.9-.8.2-1.63.23-2.45.31-.21-.33.48-.26.7-.27.56-.02 1.11-.04 1.66-.13.46-.11.89-.3 1.33-.47a.72.72 0 00.36-.34z"/>
          <path d="M108.64 66.97c-.24.46-.81.5-1.24.67-.48.05-.94.2-1.42.2-.43-.03-.86.18-1.26.1-.4-.34.41-.19.6-.23.39-.01.77-.05 1.15-.02.47-.13.98-.12 1.45-.28.27-.08.49-.28.72-.44z"/>
          <path d="M107.97 66.6c-.49.09-.94.32-1.44.32-.52.03-1.02.16-1.53.17-.32-.02-.88.2-1.05-.07.39-.3 1 .04 1.47-.1.51-.1 1.04-.05 1.55-.15.35.08.66-.28 1-.17z"/>
          <path d="M106.48 66.1c-.39 0-.79.03-1.15.14-.37.08-.75.18-1.12.17-.2-.14-.85.18-.6-.19.4-.11.85.1 1.27-.02.45-.12.91-.15 1.37-.14.08-.01.17-.03.23.04z"/>
          <path d="M103.44 65.54c.3-.1.64-.08.95-.13.28.16.84-.09.92.03-.34.02-.66.23-1 .12-.15.07-.95.34-.87-.02z"/>
          <path d="M107.32 66.8c.4.19.65.62 1.08.77.27.28.63.41.93.65.15.19.84.22.64.52-.4-.02-.7-.41-1.06-.61-.36-.24-.65-.58-1.03-.8-.17-.18-.3-.45-.56-.53z"/>
          <path d="M106.04 66.08c.2.73.75 1.3 1.24 1.85.41.34.98.41 1.39.76.23.02.92.45.37.45-.55-.3-1.04-.7-1.63-.92-.47-.31-.72-.84-1.05-1.28-.14-.27-.37-.54-.32-.86z"/>
          <path d="M104.56 65.25c.21.62.6 1.16.96 1.7.57.8 1.3 1.49 2.18 1.95.36.1.22.52-.08.24-.46-.28-.83-.65-1.26-.96-.45-.42-.79-.95-1.14-1.45-.25-.48-.55-.93-.71-1.45 0-.03.03-.03.05-.03z"/>
          <path d="M106.75 69.14c-.48-.22-.8-.68-1.22-1-.49-.53-1.07-1.06-1.28-1.78-.15-.28-.32-.64-.24-.96.02.51.32.96.54 1.41a8.08 8.08 0 001.67 1.68c.1.27.76.31.53.65z"/>
        </g>
      </g>
      <g>
        <path stroke="#000100" d="M118.5 72.4a.5.5 0 00-.08-.55.5.5 0 00-.5-.22c-2.1-1.91-6.27 1.36-6.46 1.51l.57 3.54 3.27 1.5c.3-.22 4.44-3.24 3.2-5.79z"/>
        <path stroke="#000100" d="M115.3 78.19s-.59-.38-2.11-2.4c-1.52-2-1.74-2.65-1.74-2.65s-.3-.06-.85.14-.84.54-.84.54c-.2.1-.27.35-.24.65-.22.3-.15.58-.01.89-.12.33.06.6.2.83.05.27.2.62.44.98.22.43.56.86 1 1.2.26.4.59.65.94.75.32.42.6.46 1.13.48.32.19.63.22.9 0 0 0 .44-.19.76-.62.31-.42.42-.8.42-.8z"/>
        <g fill="#000100" stroke-width=".1">
          <path d="M117.23 72c0-.43.48-.04 0 0z"/>
          <path d="M116.89 72.06c-.09-.42.65-.3 0 0z"/>
          <path d="M116.48 72.1c-.01-.39.63-.5.15-.1l-.07.06z"/>
          <path d="M116.11 72.05c-.07-.33.75-.62.26-.19a1.8 1.8 0 01-.26.19z"/>
          <path d="M115.74 72.09c-.11-.36.86-.85.36-.34-.12.11-.25.22-.36.34z"/>
          <path d="M115.34 72.1c-.14-.44.83-.84.23-.3l-.23.3z"/>
          <path d="M114.94 72.25c-.26-.42.71-.98.17-.34-.07.1-.13.22-.17.34z"/>
          <path d="M114.71 71.78c-.05.3-.32.89-.24.26a.39.39 0 01.24-.26z"/>
          <path d="M114.51 78.9c-.54.2-1.2.2-1.79.07-.54-.2-1.27-.22-1.68-.56.18-.3.73.2 1.07.2.6.38 1.33.32 2 .4.14.02.28-.04.4-.11z"/>
          <path d="M114.39 78.18c-.43.4-1.02-.05-1.52.1a7.31 7.31 0 01-1.53-.5c-.35-.2-1.15-.3-1.18-.62.57.01 1.05.45 1.57.64s1.08.48 1.65.4c.3.2.7.14 1.01-.02z"/>
          <path d="M113.74 77.4c-.41.28-.97.08-1.41 0-.55-.14-1.06-.33-1.57-.54-.25-.26-1.15-.18-.97-.67.67.29 1.3.7 1.98.9a4.7 4.7 0 001.63.43c.1.03.28-.15.34-.12z"/>
          <path d="M113.33 76.76c-.49-.12-.99-.15-1.45-.35-.7-.35-1.49-.46-2.15-.91-.54-.27.28-.3.43 0 .68.36 1.4.63 2.1.94.3.24.72.17 1.07.32z"/>
          <path d="M112.24 75.62c-.7-.43-1.58-.42-2.3-.84-.18-.1-.78-.35-.23-.39.45.25.85.56 1.36.67.39.16.9.26 1.17.56z"/>
          <path d="M109.8 73.72c.59.16 1.35.6 1.72.8-.6-.18-1.19-.4-1.76-.56-.12-.05.06-.16.04-.24z"/>
          <path d="M112.65 76.63c.25.47.42 1 .67 1.45.31.46.52.93.86 1.35-.05.52-.45-.34-.57-.49-.17-.44-.44-.84-.6-1.29-.14-.33-.24-.68-.36-1.02z"/>
          <path d="M111.86 75.4c-.17.52 0 1.08.07 1.6.08.52.3.98.69 1.35.19.47.7.8.75 1.3-.51-.22-.65-.89-.98-1.32a1.68 1.68 0 01-.54-1.27 3.4 3.4 0 01-.05-1.57l.06-.09z"/>
          <path d="M110.93 73.98c-.1.61-.01 1.25.05 1.86.13.66.2 1.35.55 1.93.06.52.66.93.56 1.4-.32-.19-.56-.83-.7-1.26a4.2 4.2 0 01-.49-1.57c-.15-.57-.05-1.17-.1-1.75.01-.2 0-.44.13-.61z"/>
          <path d="M111.06 78.45c-.34-.39-.37-.93-.6-1.38a5.31 5.31 0 01-.32-2.43c-.08-.33.4-1.26.1-.5-.06.64-.12 1.28.07 1.9.17.42.25.89.47 1.29 0 .36.61.85.28 1.12z"/>
        </g>
      </g>
      <g>
        <path stroke="#000100" d="M91.07 63.36a.5.5 0 01.37-.4.5.5 0 01.54.11c2.8-.31 4.27 4.77 4.35 5l-2.53 2.55-3.54-.69c-.1-.37-1.69-5.25.8-6.57z"/>
        <path stroke="#000100" d="M90.27 69.93s.7.04 3.1-.71c2.41-.75 2.97-1.14 2.97-1.14s.29.13.61.61c.33.48.36.93.36.93.1.21.02.44-.17.67-.01.38-.23.56-.52.73-.1.34-.41.46-.66.56-.2.2-.52.38-.92.54-.44.22-.97.36-1.53.39a1.7 1.7 0 01-1.19.06c-.52.15-.76.02-1.2-.28-.37-.04-.64-.2-.73-.52 0 0-.24-.41-.25-.95 0-.53.13-.89.13-.89z"/>
        <g fill="#000100" stroke-width=".1">
          <path d="M92.32 63.76a.13.13 0 01-.06-.06.47.47 0 01-.02-.07c-.01-.02-.01-.04 0-.07 0-.02 0-.05.02-.07l.01-.01c.04 0 .06.03.08.05a.1.1 0 01.03.08l-.01.08a.17.17 0 01-.05.07z"/>
          <path d="M92.57 64.02l-.05-.1-.03-.1v-.2l.02-.02c.08.05.12.13.13.2l-.01.12c-.01.04-.02.07-.06.1z"/>
          <path d="M92.87 64.3a.3.3 0 01-.06-.15l-.03-.15v-.29l.02-.01a.4.4 0 01.09.13l.04.15v.16a.37.37 0 01-.06.16z"/>
          <path d="M93.2 64.47l-.05-.16a1 1 0 01-.04-.16l-.03-.17a.52.52 0 010-.17h.02c.04.04.07.09.1.15l.04.17.01.18v.09l-.02.04c-.02 0-.02.01-.03.03z"/>
          <path d="M93.48 64.71l-.04-.2-.03-.2-.03-.22-.01-.22.02-.01.1.2c.03.06.05.14.06.2v.22l-.01.12c0 .02 0 .04-.02.06l-.04.05z"/>
          <path d="M93.8 64.95l-.01-.2-.02-.2c0-.08 0-.14-.02-.21a1.57 1.57 0 01-.02-.22l.02-.01a.77.77 0 01.14.65.4.4 0 01-.1.2z"/>
          <path d="M94.04 65.3c.04-.13.06-.26.07-.4v-.3c0-.04 0-.07.02-.1l.01-.02c.05.07.08.14.1.2.01.08.02.15.01.23a.83.83 0 01-.06.22c-.04.08-.08.15-.15.18z"/>
          <path d="M94.5 65.07a.5.5 0 01-.05.54l-.07.07-.03.03-.02.01h-.05l.02-.02h-.01c-.01 0 0 0 0 0v-.02h0v-.03l.03-.04.03-.07.05-.16.05-.15c.01-.05.02-.1.05-.16z"/>
          <path d="M90.52 70.96a.7.7 0 00.25.32c.06.04.11.08.17.1.06.04.13.06.2.07h.01a1.23 1.23 0 00.33.3c.06.04.12.08.19.1a.5.5 0 00.21.04h.03a1.8 1.8 0 00.72.25h.18l.06.01.07.03a.87.87 0 00.32.18c.06.02.13.02.18.02l.18-.01.06.23-.25.01a.98.98 0 01-.44-.14.86.86 0 01-.18-.14l.07.03-.07-.01h-.07a2.2 2.2 0 01-.4-.09 2.31 2.31 0 01-.49-.24l.03.01a.9.9 0 01-.23-.06.88.88 0 01-.21-.12 1.4 1.4 0 01-.33-.34l.02.01-.2-.07c-.07-.03-.12-.08-.18-.12a.76.76 0 01-.14-.16.72.72 0 01-.1-.2z"/>
          <path d="M91.05 70.45c.02.08.06.17.12.25.06.07.14.13.21.18.08.05.17.09.26.11l.14.04.13.03h.01v.01c.13.14.27.25.43.33.16.07.34.11.5.1h.04l.03.02c.08.09.23.14.36.16a.9.9 0 00.4 0h.04l.04.02c.09.07.2.12.32.15.11.02.24.02.35 0l.03-.01.03.02c.09.05.18.07.27.1l.13.02h.1s0 0 0 0 0 0 0 0h0l-.01.01.1.22-.03.01h-.21c-.05 0-.11-.02-.17-.04a1.17 1.17 0 01-.31-.13h.06a1.3 1.3 0 01-.43-.01.9.9 0 01-.4-.2l.08.02a1.28 1.28 0 01-.69-.1c-.06-.04-.14-.08-.2-.14l.06.02a.96.96 0 01-.57-.14c-.17-.1-.31-.22-.43-.37h.02l-.14-.03-.15-.05c-.08-.04-.18-.07-.25-.13a1.05 1.05 0 01-.22-.2.56.56 0 01-.11-.27z"/>
          <path d="M92.02 70.18c.06.12.14.25.24.34.05.05.11.1.18.12a.3.3 0 00.19.03h.02c.14.1.29.19.44.26.15.05.32.1.48.07h.03l.02.02a1 1 0 00.37.19l.2.03h.18l.03-.03.04.02c.12.05.23.1.36.13l.18.03h.2l.03.02a1.04 1.04 0 00.69.07l.05.24c-.15.02-.3.02-.43 0a1.2 1.2 0 01-.4-.14h.05c-.08.02-.14 0-.22 0a1.49 1.49 0 01-.59-.2h.07c-.06.03-.1.03-.13.03l-.13-.01a1.17 1.17 0 01-.64-.28h.05a.99.99 0 01-.53-.1 2.3 2.3 0 01-.44-.27h.02a.44.44 0 01-.22-.04.83.83 0 01-.17-.14c-.1-.1-.19-.23-.24-.36z"/>
          <path d="M92.7 69.9c.07 0 .14.02.2.04l.19.08h-.03.03l.13.07.07.05.07.05h.07l.1.02.18.03c.13.03.24.05.37.1l.08.04.04.02h.2c.13 0 .25.02.39.06l.18.07.09.05.03.03.02.01s0 0 0 0h.02c.02 0 .03 0 .05-.02h.1l.19.02c.12.02.25.06.37.1l.05.03.04.01c-.05 0 0 0 .04-.01l.19-.02h-.01 0a1.01 1.01 0 01.45.1c.05.02.1.04.14.09l-.17.16c0-.02-.04-.04-.08-.06l-.1-.04a.64.64 0 00-.23-.04h0-.17l-.04.02h-.04l-.07-.01-.05-.02-.03-.02-.33-.12-.17-.02h-.2a.14.14 0 01-.05-.02l-.02-.01a.13.13 0 00-.04-.03l-.07-.05-.15-.08a1.3 1.3 0 00-.35-.07h-.18s-.06 0-.07-.02l-.03-.02a1.98 1.98 0 00-.41-.15.4.4 0 00-.18-.04l-.08-.02-.05-.01h-.03l-.03-.02h0l-.06-.05-.06-.05a.36.36 0 00-.12-.08l.03-.01h-.04.01a3.3 3.3 0 00-.18-.08c-.06-.02-.13-.05-.2-.06z"/>
          <path d="M94.26 69.6a.57.57 0 01.22.01l.1.03.11.04h.01c.14 0 .3.02.45.05.14.03.3.08.43.17l.05.03.01.01s0 0 0 0 0 0 0 0h.12c.08 0 .16.02.23.04l.23.07.1.03.06.02c.02.01 0 0 0 0h-.02l-.02.01h.03l.02-.02h.04a.18.18 0 01.07-.03l-.05.04s.02-.03.04-.03h.06-.05a.98.98 0 01.38 0c.12.03.25.09.34.18l-.16.17a.5.5 0 00-.23-.14c-.09-.02-.2-.03-.29-.02h-.05.06l.05-.03-.06.04h-.06l-.02.01h-.02 0s0 0 0 0h-.01l-.08.01-.05-.01-.05-.03-.1-.05-.2-.08-.2-.05h-.1c-.01 0-.03 0-.05-.02l-.03-.01v-.01l-.04-.03a1.1 1.1 0 00-.39-.19 2.14 2.14 0 00-.43-.07h0l-.04-.01h0l-.08-.04a1.57 1.57 0 00-.11-.03c-.07-.02-.13-.03-.21-.02z"/>
          <path d="M97.26 69.73l-.03-.02h0-.02v-.01l-.03-.02c-.02 0-.02-.02-.04-.03l-.08-.04H97l-.02-.04h0l.08.04c-.09-.02-.18-.02-.27-.02h-.06l-.03-.03a.25.25 0 00-.04-.06l-.03-.03v-.03h0l.03.06a.57.57 0 00-.21-.12.5.5 0 00-.24 0l.02-.02-.02.02h0l-.05.02-.03.01h-.02l-.12-.07-.01-.01-.01-.01h0l.02.02c-.2-.11-.4-.2-.62-.2v-.03c.23-.02.45.04.66.13h.01l.01.03h0l-.02-.02.12.06h-.05l.07-.03h0l-.02.02.03-.02c.1-.04.2-.05.3-.03.1.02.2.06.3.11l.02.02.01.04h0l-.03-.06.09.08-.09-.04c.1-.02.21-.03.33-.02h.04l.03.04h0l-.07-.05.16.05.07.04.03.02h.02v.02h0s0 0 0 0l-.02-.01z"/>
          <path d="M93.33 70.23c-.14.05-.26.12-.37.2l-.17.14c-.05.05-.1.1-.13.17h-.03a2.7 2.7 0 00-.4.14.95.95 0 00-.16.1l-.13.16-.01.02h-.03a1.9 1.9 0 00-.4.14l-.17.1a.65.65 0 00-.14.14l-.02.03h-.04l-.19.05-.18.06a1.1 1.1 0 00-.3.19l-.17-.19a1.3 1.3 0 01.6-.25l.21-.03-.05.03a1 1 0 01.38-.25c.14-.06.29-.1.43-.13l-.04.02.16-.16a.69.69 0 01.2-.12c.13-.05.28-.08.42-.11l-.02.02.15-.17c.06-.04.12-.1.18-.13.12-.08.25-.14.39-.2z"/>
          <path d="M94.7 69.7s-.02.02-.02.05l-.02.06c0 .03-.03.07-.04.11l-.1.22-.16.2c-.05.05-.11.1-.19.15l.02-.02-.1.2a1.14 1.14 0 01-.32.31.78.78 0 01-.2.12l.04-.03a.59.59 0 01-.13.21.9.9 0 01-.4.28l-.1.05-.06.02h-.08.01a4.33 4.33 0 00-.74.28c-.08.03-.14.08-.2.13l-.02.02h-.03l-.43.14-.21.09-.2.1-.12-.22.22-.1.22-.08c.16-.05.31-.1.46-.12l-.04.02c.07-.07.16-.1.25-.15l.25-.1.53-.15h.05l.05-.02a1.2 1.2 0 00.3-.13l.16-.13a.54.54 0 00.11-.18l.01-.02h.02a1.13 1.13 0 00.35-.25c.05-.04.1-.1.13-.15.04-.06.08-.11.1-.17l.02-.01v-.01l.19-.14a1.4 1.4 0 00.27-.38l.04-.11.01-.06c0-.02.01-.05.04-.06z"/>
          <path d="M96.3 69.06c0 .04 0 .05-.03.08 0 .03-.03.06-.04.08a.45.45 0 01-.1.14h0a.44.44 0 01-.09.19l-.11.17-.14.16c-.04.05-.1.1-.16.14l.02-.02a1.36 1.36 0 01-.58.74l.03-.05v.03h0v.02l-.07.1a.62.62 0 01-.08.09l-.15.15-.18.14a.75.75 0 01-.18.13l.04-.07v.04h0l-.01.04v.02c-.02 0-.02.02-.03.03a.2.2 0 01-.04.04l-.08.1-.19.13-.2.11a.84.84 0 01-.22.07l.06-.04a1.37 1.37 0 01-.4.34l-.23.11a1.9 1.9 0 01-.25.08l.06-.03a.5.5 0 01-.14.11l-.14.09-.16.08-.15.05-.08-.23.15-.04.13-.06.13-.07.1-.09.03-.02.03-.01a1.41 1.41 0 00.43-.15l.2-.13c.07-.05.13-.1.16-.15l.02-.02.03-.01c.07-.02.14-.03.2-.06a.64.64 0 00.18-.09l.16-.11.08-.07a.13.13 0 00.03-.04v-.02h0v.02-.08l.04-.01.19-.11.16-.12.15-.15.07-.08.06-.07v.02-.07l.03-.01.18-.12c.06-.05.1-.11.15-.17.1-.11.17-.25.23-.38l.01-.01.01-.01c.06-.03.1-.07.15-.12l.14-.14.12-.16a.56.56 0 00.09-.17v-.01h0a.72.72 0 00.1-.14l.04-.08.03-.07z"/>
          <path d="M93.5 72.38a1.9 1.9 0 00.68-.32l.2-.17.01-.01.01-.01c.27-.1.53-.23.7-.45l.01-.02.02-.01a.72.72 0 00.2-.1l.18-.13c.11-.1.22-.21.3-.34l.01-.02h.02a.74.74 0 00.3-.26c.08-.1.14-.24.18-.36v-.02l.01-.01c.1-.08.2-.18.26-.3.07-.11.11-.24.15-.37h0c.03-.05.06-.1.07-.16l.01-.09-.01-.04-.01-.02s0 0 0 0v-.04l.03.02v.02l.02.05v.1a.54.54 0 01-.07.17v-.01a1.5 1.5 0 01-.14.4.98.98 0 01-.27.32l.02-.02c-.03.14-.1.29-.17.4a.86.86 0 01-.34.3l.03-.01a1.93 1.93 0 01-.73.65l.04-.03c-.09.14-.21.25-.34.34a2.4 2.4 0 01-.41.21l.03-.02-.2.18a2.19 2.19 0 01-.74.4z"/>
        </g>
      </g>
      <g>
        <path stroke="#000100" d="M98.21 76.3a.51.51 0 01.35-.43.47.47 0 01.54.08c2.8-.5 4.59 4.47 4.67 4.71l-2.36 2.7-3.57-.45c-.13-.37-2.03-5.13.37-6.61z"/>
        <path stroke="#000100" d="M97.86 82.9s.7 0 3.04-.9c2.36-.9 2.88-1.34 2.88-1.34s.3.12.65.57c.36.45.42.9.42.9.11.2.04.44-.13.69.02.37-.2.57-.46.76-.08.34-.37.47-.62.59-.18.21-.5.42-.88.6-.42.24-.94.43-1.5.48-.43.2-.83.23-1.18.14-.5.18-.76.06-1.2-.2-.38 0-.66-.15-.78-.45 0 0-.26-.4-.3-.93-.06-.54.06-.9.06-.9z"/>
        <g fill="#000100" stroke-width=".1">
          <path d="M99.49 76.61c-.35-.21.2-.37 0 0z"/>
          <path d="M99.75 76.86c-.2-.12-.02-.59.04-.19.04.07-.02.13-.04.19z"/>
          <path d="M100.08 77.11c-.2-.15-.1-.83.03-.31.02.1.01.21-.03.31z"/>
          <path d="M100.42 77.27c-.2-.12-.16-.88 0-.37.04.12.03.25 0 .37z"/>
          <path d="M100.71 77.5c-.05-.24-.18-.53-.13-.77.17.22.22.51.13.77z"/>
          <path d="M101.04 77.7c-.02-.24-.14-.53-.06-.75.16.2.23.53.06.75z"/>
          <path d="M101.3 78.05c.12-.16-.06-.75.1-.7.14.22.12.54-.1.7z"/>
          <path d="M101.75 77.77c.34.16-.28.96-.1.4.08-.12.05-.27.1-.4z"/>
          <path d="M98.16 83.91c.5.57 1.25.83 1.97 1 .4.12.83.14 1.22.27.03.34-.6.18-.78 0-.58-.21-1.28-.2-1.72-.7-.24-.17-.62-.24-.69-.57z"/>
          <path d="M98.65 83.37c.16.53.83.46 1.2.78.6.3 1.31.23 1.96.4.29.03.9-.1.92.32-.57.01-1.11-.25-1.68-.22-.5-.2-1.13-.16-1.53-.58-.3-.15-.85-.24-.9-.64z"/>
          <path d="M99.61 83.04c.38.61 1.17.63 1.8.8.37.12.77.08 1.16.17.3.1.79-.02.98.16-.16.37-.7-.04-1 .02-.4-.03-.78-.15-1.16-.22-.43-.08-.83-.21-1.22-.4-.23-.1-.54-.23-.56-.53z"/>
          <path d="M100.28 82.71c.65.2 1.31.44 2 .42.59.21 1.22.2 1.83.24.45.15-.2.36-.37.19-.74.02-1.43-.3-2.16-.39-.45-.1-.9-.23-1.3-.46z"/>
          <path d="M101.8 82.3c.72 0 1.42.22 2.12.38.19-.15.83-.12.78.15-.25.13-.52-.15-.77.01-.6-.13-1.17-.42-1.8-.47-.1-.03-.21-.07-.33-.07z"/>
          <path d="M104.82 82.24a9.5 9.5 0 00-1.4-.35c-.16-.05-.7-.17-.22-.14.46.1.93.15 1.4.19.2-.03.43.1.22.3z"/>
          <path d="M100.92 83c-.46.27-.78.71-1.27.94-.44.34-.94.59-1.43.85-.44-.3.48-.38.64-.56.5-.28 1.01-.55 1.49-.86.15-.17.35-.3.57-.37z"/>
          <path d="M102.26 82.39c-.19.7-.76 1.2-1.18 1.77-.4.36-1 .34-1.4.7-.29.01-.83.68-.95.2.63-.23 1.23-.58 1.89-.77.6-.28.9-.9 1.34-1.35.12-.17.13-.41.3-.55z"/>
          <path d="M103.81 81.64c-.2.6-.62 1.09-.94 1.63-.34.39-.7.79-1.08 1.14l-1.58 1.04c-.37-.04-.05-.4.17-.38.53-.3 1.06-.6 1.53-.97.42-.46.95-.85 1.25-1.42.22-.34.48-.67.65-1.04z"/>
          <path d="M101.23 85.14c.7-.33 1.28-.87 1.9-1.33.49-.47.9-1.05 1.14-1.7.04-.14.12-.48.07-.12a4.74 4.74 0 01-1.62 2.34c-.42.32-.78.7-1.22.99-.15.1-.3-.01-.27-.18z"/>
        </g>
      </g>
      <g>
        <path stroke="#000100" d="M80.83 80.4a.47.47 0 01.1-.55c.1-.16.3-.26.5-.2 2.16-1.86 6.23 1.52 6.42 1.67l-.66 3.52-3.3 1.42c-.31-.23-4.37-3.37-3.06-5.87z"/>
        <path stroke="#000100" d="M83.87 86.27s.6-.36 2.17-2.33c1.57-1.98 1.8-2.62 1.8-2.62s.31-.05.85.16c.54.22.81.57.81.57.2.12.27.35.23.65.2.32.13.59-.02.9.11.33-.07.6-.24.83-.04.27-.2.61-.45.96-.23.42-.6.85-1.03 1.18-.27.39-.6.62-.95.72-.35.42-.62.44-1.14.44-.33.18-.64.2-.9-.01 0 0-.44-.2-.74-.64a2.9 2.9 0 01-.39-.81z"/>
        <g fill="#000100" stroke-width=".1">
          <path d="M82.1 80.02c-.32.05-.07-.41 0-.08z"/>
          <path d="M82.46 80.1c-.24.01-.35-.48-.08-.23.05.07.07.15.08.23z"/>
          <path d="M82.86 80.15c-.3.04-.44-.65-.13-.29l.13.29z"/>
          <path d="M83.22 80.1c-.22.05-.5-.6-.18-.32.08.1.14.2.18.32z"/>
          <path d="M83.6 80.15c-.14-.11-.52-.44-.43-.55.22.11.4.3.43.55z"/>
          <path d="M83.99 80.17c-.12-.13-.48-.5-.36-.6.21.13.38.35.36.6z"/>
          <path d="M84.4 80.33c-.07-.15-.38-.56-.23-.63.2.15.33.4.23.63z"/>
          <path d="M84.63 79.87c.32 0 .25.83.08.35a1.24 1.24 0 00-.08-.35z"/>
          <path d="M84.66 86.98c1 .33 2.05-.05 2.98-.42.23-.14.63 0 .22.18-.33.2-.71.12-1.05.29-.65.18-1.36.17-2.02.04a.34.34 0 01-.13-.09z"/>
          <path d="M84.8 86.27c.85.32 1.76 0 2.57-.27.55-.1.98-.64 1.57-.57.37.09-.33.24-.47.34-.56.2-1.13.42-1.7.58-.6.05-1.22.27-1.8.05a.54.54 0 01-.17-.13z"/>
          <path d="M85.46 85.5c.75.32 1.51-.12 2.22-.35.63-.12 1.12-.66 1.78-.67-.04.25-.63.45-.95.54-.42.08-.8.32-1.21.4-.6.13-1.26.38-1.84.08z"/>
          <path d="M85.87 84.87c.8-.11 1.55-.47 2.3-.74.5-.1.86-.6 1.38-.62.32.12-.34.3-.48.41-.64.3-1.31.47-1.96.72-.4.13-.82.22-1.24.23z"/>
          <path d="M87 83.76c.65-.43 1.45-.5 2.12-.88.05-.35.92-.25.44.01-.42.22-.86.39-1.32.48-.43.08-.83.23-1.24.39z"/>
          <path d="M89.54 82.17c-.6.05-1.14.39-1.74.47.13-.02.67-.3.93-.46.23-.13.65-.36.81-.01z"/>
          <path d="M86.58 84.8c-.33.74-.63 1.5-1.04 2.2-.04.22-.36.69-.55.57.19-.44.56-.8.77-1.23.3-.5.53-1.06.8-1.57z"/>
          <path d="M87.41 83.58c.18.77-.02 1.55-.2 2.3-.43.61-.8 1.27-1.29 1.85-.21-.36.3-.68.47-.97.23-.4.61-.69.76-1.14.2-.56.25-1.17.3-1.76 0-.1-.04-.18-.04-.28z"/>
          <path d="M88.37 82.16a8.08 8.08 0 01-.26 3.15c-.16.48-.4.93-.65 1.37.08.32-.64.82-.38.26.45-.83.97-1.66 1.09-2.62.15-.72.23-1.47.17-2.2l.03.04z"/>
          <path d="M87.92 86.48c.54-.84.92-1.8 1.11-2.77.06-.57.1-1.16-.09-1.71.34.95.27 2.02-.1 2.95-.19.53-.33 1.1-.69 1.54-.1.06-.14.1-.23-.01z"/>
        </g>
      </g>
      <g>
        <path stroke="#000100" d="M120.25 84.72a.5.5 0 00-.07-.55.5.5 0 00-.51-.22c-2.09-1.9-6.26 1.36-6.45 1.51l.56 3.54 3.27 1.5c.3-.22 4.44-3.24 3.2-5.78z"/>
        <path stroke="#000100" d="M117.05 90.5s-.58-.37-2.1-2.38-1.74-2.66-1.74-2.66-.31-.05-.86.14c-.54.2-.83.55-.83.55-.21.1-.28.34-.25.64-.21.3-.14.58 0 .89-.12.33.06.6.2.83.04.27.2.62.43.98.22.43.57.86 1.01 1.21.26.4.58.64.93.74.33.42.61.46 1.13.48.33.19.63.22.9 0 0 0 .44-.18.76-.62.32-.42.42-.8.42-.8z"/>
        <g fill="#000100" stroke-width=".1">
          <path d="M118.99 84.31c-.03-.4.46.01 0 0z"/>
          <path d="M118.64 84.38c-.02-.45.6-.19 0 0z"/>
          <path d="M118.24 84.43c.13-.6.67-.37 0 0z"/>
          <path d="M117.87 84.37c.06-.6.82-.4 0 0z"/>
          <path d="M117.5 84.4c.04-.6.83-.58.13-.11z"/>
          <path d="M117.1 84.42c-.05-.6.92-.86 0 0z"/>
          <path d="M116.7 84.57c-.17-.57.64-.75.05-.14z"/>
          <path d="M116.47 84.1c0 .49-.49.66-.12.08z"/>
          <path d="M116.27 91.22a4.07 4.07 0 01-3.34-.55c.96.17 1.84.8 2.86.64.16-.02.32-.04.48-.09z"/>
          <path d="M116.14 90.5c-.82.32-1.75.05-2.56-.2-.39-.22-1.7-.5-1.5-.8.91.21 1.64.93 2.62 1 .48.05.98.28 1.44 0z"/>
          <path d="M115.5 89.72c-.87.36-1.8-.12-2.62-.42-.39-.1-1.53-.5-1.18-.7 1.12.46 2.2 1.18 3.43 1.21l.19-.03z"/>
          <path d="M115.09 89.08a14.55 14.55 0 01-3.38-1.1c-.88-.84.97.28 1.42.4.62.29 1.27.58 1.96.7z"/>
          <path d="M114 87.94c-.74-.5-2.38-.47-2.6-1.22.74.46 1.6.67 2.39 1.07l.1.07z"/>
          <path d="M111.57 86.04c.5.16 1.55.7 1.64.79-.46-.28-1.62-.24-1.64-.79z"/>
          <path d="M114.42 88.95c.3 1.01 1.2 2.04 1.38 2.91-.56-.66-.86-1.53-1.19-2.33l-.19-.58z"/>
          <path d="M113.62 87.73c-.19 1.1.12 2.32.9 3.15.32.31.92 1.54.2.7-.5-.8-1.13-1.55-1.18-2.53-.07-.44-.09-.9.08-1.32z"/>
          <path d="M112.69 86.3c-.1 1.41.08 2.9.75 4.17.42.4.47 1.53.03.52a7.28 7.28 0 01-.8-4.66l.02-.03z"/>
          <path d="M112.81 90.77c-.67-1.34-1.25-2.94-.78-4.44.2-.44-.26.93-.1 1.25.07 1 .54 1.9.92 2.8l.01.2z"/>
        </g>
      </g>
    </g>
  </g>
</svg>
