<svg xmlns="http://www.w3.org/2000/svg" fill="#d7374a" stroke="#000" viewBox="50 50 200 200">
  <metadata source="http://wappenwiki.org/images/c/c2/Herwart_von_Hohenburg.svg" license="https://creativecommons.org/licenses/by-nc-sa/3.0"/>
  <g id="owl" stroke-width=".114">
    <g fill="#f2bc51" stroke-width=".408">
      <path d="M83.9 133.25c-.6-.23-1.72.1-2.26.48-.51.38-1.14 1.25-1.07 1.64.15.16.41 0 .56-.1.38-.25 1.15-.89 1.6-.8.28.06.54.22.82.16"/>
      <path d="M83.33 135.07c-.64-.1-1.75.33-2.17.83-.42.5-.84 1.44-.75 1.8.19.13.4-.09.53-.21.3-.33.77-.91 1.48-1.08.27-.07.58.07.84-.04"/>
      <path d="M86.27 135.78c-.24-.02-.53.06-.72.2-.35.29-.5.65-.71 1.05-.22.43-.47 1.66-.14 2 .3.32.34.03.42-.25.1-.36.47-.95 1-1.34.06-.05.69-.2.86-.26"/>
      <path d="M85.88 134.77c-.3.05-.64-.1-1.09.22-.3.22-.4.25-.8.24-.1 0-.36 0-.45-.08-.2-.17-.27-.12-.24-.45.03-.15.36-.11.22-1.3-.04-.32.03-.54.4-.59.36-.04.66.06.76.18.1.13.35.07.54.1.21.02.52.13.74.1l.28-.07c.47-.14.86-.04 1.34-.01.17 0 .34-.04.49-.1.12-.06.24-.15.34-.24.18-.15.94-.16 1.16-.31.26.3-.23.68-.27 1.08-.03.25-.08.51-.24.72-.2.26-.54.37-.87.45-.63.15-1.3.22-1.95.18-.13-.02-.26-.02-.36-.12z"/>
      <path d="M91.58 126.92c-.25 1.26-.5 2.53-.88 3.76-.32.52-.38 1.27-1.01 1.53-.56.29-1.23.39-1.66.88-.52.36-.88 1.01-1.61.95-.56-.03-.96.43-1.5.44-.55.13-1.04-.03-1.58 0-.88.2-.08 1.1-.18 1.66-.46.73.58.98 1.08.6.43-.54 1.06-.7 1.7-.87.69-.14.93.72.92 1.26.07.76 1.11.5 1.32-.04.01-.72.71-1.02 1.05-1.6.36-.43.96-.56 1.47-.72.6-.27 1.1.38 1.73.17.71-.06 1.31.38 1.71.89.4.12 1.51.06 1.16-.59-.31-.5-.1-1.18.4-1.48.1-.72-.9-.74-1.26-.28a2.5 2.5 0 01-1.37-1.78c-.1-.6-.2-1.22-.05-1.83.17-.8.23-1.65.5-2.43l.05-.1.05-.1"/>
      <path d="M87.3 134.03c-.57-.3-1.71-.06-2.28.28-.55.33-1.24 1.15-1.22 1.54.14.18.41.03.57-.05.4-.21 1.22-.78 1.66-.66.28.08.54.26.82.23"/>
      <path d="M98.36 135.84c.1-.07.54-.33.67-.33.38-.03 1 .31 1.43.9.37.53.92 1.82.78 1.9-.2.12-.4-.1-.51-.24A2.7 2.7 0 0099.2 137c-.28-.06-.59.04-.84-.08-.03-.02-.08-.05-.1-.08a.42.42 0 01-.08-.23c-.04-.27-.06-.62.18-.78z"/>
      <path d="M86.58 135.8a2.94 2.94 0 00-2.23.63c-.46.44-.97 1.34-.91 1.72.17.14.4-.06.53-.18.33-.3.85-.84 1.57-.94.29-.03.58.14.85.05"/>
      <path d="M89.46 136.75c-.24-.05-.54 0-.74.13-.38.25-.57.6-.81.98-.25.41-.61 1.62-.3 1.98.28.34.32.05.44-.22.13-.35.54-.9 1.11-1.25.07-.03.7-.14.88-.18"/>
      <path d="M89.16 135.7c-.32 0-.67-.1-.97.06-.25.14-.52.3-.82.25-.23-.02-.51-.02-.67-.23-.31-.23.03-.51.14-.74.13-.37.07-.77.1-1.15.04-.29.37-.36.6-.33.3 0 .5.2.7.34.26.04.52.05.76.15.26.12.53.05.8 0 .47-.06.92.15 1.38.15.3 0 .53-.2.78-.31.35-.1.73-.03 1.08-.16.15.21-.05.44-.16.62-.18.21-.2.49-.29.74a.91.91 0 01-.6.61c-.6.21-1.26.22-1.9.2a6.98 6.98 0 01-.77-.09.32.32 0 01-.16-.11z"/>
      <path d="M95.53 128.4c-.46 1.49-.83 3.03-1.62 4.39-.18.52-.7.74-1.2.87a4 4 0 00-1.53.73c-.35.23-.6.66-1.09.62a3.02 3.02 0 00-1.49.3c-.5-.03-1.06.15-1.5-.12-.8-.26-1.12.51-.8 1.13.15.49-.47 1.28.4 1.31.7.14 1.03-.63 1.68-.67.63-.3 1.54-.2 1.53.68-.14.6.3 1.33.95.9.55-.17.37-.85.79-1.12.57-.32.87-1.1 1.6-1.12.57-.24 1.25-.35 1.76.09.55.07 1.14 0 1.62.36.44.34.62 1 1.33.81.67.06.58-.54.4-.97-.24-.71 1.02-.9.52-1.5-.44-.6-1.12.44-1.5-.18a2.63 2.63 0 01-.87-2.14 4.2 4.2 0 01.24-1.68c.21-.67.32-1.38.6-2.03l.07-.1.06-.09"/>
    </g>
    <path stroke-width=".34" d="M122.66 122.14c1.91.7 5.56 1.93 6.94.29.1-.13.28-.58.15-1.1a3.86 3.86 0 00-1.2-1.74c-.73-.7-4.05-2.52-11.34-9.32-7.29-6.8-10.9-13.64-14.77-17.8-5.57-5.98-9.13-8.6-7.46-14.25-3.52-.98-7.2-.46-10.5 1.12A15.5 15.5 0 0077 87.07"/>
    <path stroke-width=".34" d="M88.03 115.7c1.3 4.36 3.58 4.88 2.21 11.62-.26.72-.7 2.15-1.33 2.64-.28.21-.72.55-.88.62.43.24 1.07.24 1.47-.04.39-.29.66-.71.91-1.13a3.5 3.5 0 00.16 1.57c.39-.54.79-1.06 1.2-1.56.03.67.1 1.34.22 2 .2-.38.44-.8.82-1.01.88 4.26 5.9-11.15 6.94-13.38"/>
    <path fill="none" stroke-width=".408" d="M88.73 136.88c.34-.9 1.26-.62 1.48-.7.07-.03.18-.06.21-.12.08-.11.2-.19.31-.27"/>
    <path stroke-width=".34" d="M103.41 119.77c1.25 4.75 2.05 8.52 5.2 11.25 1.16 1.02 2.37 2 3.56 2.04.47-.04 1.04-.35 1.37-.2 1.01.8 1.75 1.99 2.85 2.07.47-.05 1.1-.15 1.44.22 1.82 2 3.61 1.82 5.44 2.92.48.13.95.09 1.4-.13.3-.2.1-.73-.1-1.07-1.46-2.2-4.7-6.82-6.3-10.12-1.25-2.58-2.16-5.49-3.55-7.99a9.23 9.23 0 00-2.5-3.13 9.95 9.95 0 00-2.74-1.24"/>
    <path fill="none" stroke-width=".408" d="M112.7 120.76c1.58 5.7 6.07 13.81 9.4 16.7"/>
    <path fill="none" stroke-width=".408" d="M109.12 119.73c1.58 6.65 6.2 12.98 8.7 15.42"/>
    <path fill="none" stroke-width=".408" d="M105.81 119.18c1.32 6.24 4.76 11.17 7.8 13.69"/>
    <path stroke-width=".34" d="M129.67 130.42a3.8 3.8 0 00-.86-1.94c-.56-.82-3.48-3.26-9.32-11.33-5.85-8.08-10.07-16.69-13.56-21.17-5.28-6.78-6.92-10.11-5.85-16 .2-1.69.9-3.89.41-7.45-.27-2-.56-2.85-1.8-5 2.1-1.83 2.23-5.16 3.92-7.1-.2-.11-.45-.26-.68-.26-2.92 0-5.53 2.9-7.38 3.79-.75.36-1.87.76-2.66.54-.26-.06-.73-.22-.98-.3-1.2-.39-1.97-.47-3.75-.47v0h-.05v0c-1.77 0-2.56.08-3.75.47-.26.08-.73.24-.98.3-.8.22-1.92-.19-2.66-.54-1.84-.89-4.46-3.79-7.38-3.79-.23 0-.47.15-.67.26 1.68 1.94 1.8 5.27 3.92 7.1-1.25 2.14-1.54 3-1.8 5-.5 3.56.2 5.76.4 7.44 0 4.16-1.63 7.94-2 10.2-.56 3.37-.32 4.63-.3 5.13.24 5 3.5 9.7 4.62 11.3 2.69 3.76 6.31 6.52 10.96 8.75 1.57.4 5.18 2.65 6.7 5.08 1.27 2.7 1.08 4.95 0 8.24-.31.7-.88 2.08-1.55 2.51-.3.2-.76.5-.92.55.4.27 1.04.33 1.45.08.42-.25.72-.65 1-1.04-.11.52-.11 1.06.02 1.57.43-.5.87-.97 1.33-1.45-.04.67-.01 1.34.04 2.01.24-.37.5-.76.9-.94a1.1 1.1 0 00.56 1.45c.58.25 1.06.1 1.34-.32-.17-.21-.53-.13-.74-.3-.2-.16-.18-.48-.12-.73 0-.57.26-1.06.34-1.62.3.16.8 1.5 1.24 2.56.25.6.8.98 1.08.75-.34-.9 0-1.97-.08-3.42a9.25 9.25 0 00-.73-3.02s.82 1 1.24 1.56c.42.57 1.05 1.14 1.73.96-1.57-2.3-.05-4.06-1.3-6.9 0 0 1.03 1.67 2.3 1.53-.91-1.1-.38-1.48-.63-2.91 1.84.58 3.31-.25 5.09.39l.5.21c2.25 2.24 9.93 7.65 14.32 7.68 1.74 1.06 5.08 2.97 6.75 1.62.1-.08.37-.5.34-1.03z"/>
    <path fill="#f2bc51" stroke-width=".34" d="M89.12 78.36c-.22-.4-.37-.2-1.07-2.33a2.3 2.3 0 00-.27-.57.76.76 0 00-.64-.3c-.4 0-.53.14-.65.3-.13.17-.2.36-.26.57-.72 2.12-.86 1.93-1.07 2.33-.12.2-.06.34.08.53.13.2.36.5.58.87.95 1.62.6 3.91 1.32 3.91.71 0 .35-2.27 1.32-3.91.21-.37.44-.67.58-.87.13-.19.19-.32.08-.53z"/>
    <path fill="none" stroke-width=".272" d="M91.06 76.62a9.22 9.22 0 01-1.1-1.7c-.45-.93-.88-2.26 1.82-3.49"/>
    <path fill="none" stroke-width=".408" d="M86.73 90.78c-2.67-.49-5.04 2.12-5.52 3.04-.54 1.04-1.8 3.22-.42 7.33.86 3.67 5.17 7.16 7.32 9.37 2.17 2.2 6.94 5.61 11.64 6.51.96 1.28 4.6 2.65 8.49 5.14"/>
    <path fill="#f6f6f6" stroke-width=".34" d="M96.63 73.49a3.35 3.35 0 01-3.4 3.38c-1.35 0-2.95-2.03-2.52-3.31.4-1.2 1.4-1.66 2.28-2.04.6-.25 2.04-.59 2.67-.25.58.32.97 1.55.97 2.22z"/>
    <path fill="#000" d="M91.87 73.3c0 .9.68 1.61 1.53 1.61.86 0 1.54-.71 1.54-1.6 0-.89-.88-1.6-1.73-1.6s-1.34.71-1.34 1.6z"/>
    <path fill="#f6f6f6" stroke-width=".34" d="M77.61 73.49a3.35 3.35 0 003.42 3.38c1.34 0 2.94-2.03 2.51-3.31-.4-1.2-1.4-1.66-2.29-2.04-.6-.25-2.03-.59-2.66-.25-.58.32-.98 1.55-.98 2.22z"/>
    <path fill="#000" d="M82.38 73.3c0 .9-.68 1.61-1.53 1.61-.86 0-1.54-.71-1.54-1.6 0-.89.88-1.6 1.73-1.6.84 0 1.34.71 1.34 1.6z"/>
    <path fill="none" stroke-width=".341" d="M102.66 121.56c-.18-1.26-.24-1.83 0-2.51"/>
    <path fill="none" stroke-width=".272" d="M83.19 76.62a9.22 9.22 0 001.1-1.7c.45-.93.88-2.26-1.82-3.49"/>
    <g fill="#000" stroke="none">
      <path d="M75.68 67.37c.33.33.77.56 1.12.77-.47-.04-.89-.25-1.34-.43z"/>
      <path d="M75.4 64.16c.32.4.15.67-.07 1.04-.33-.4-.2-.72.07-1.04z"/>
      <path d="M75.99 65.02c.32.07.58.28.77.55.17.23.3.5.45.74-.3-.04-.6-.16-.8-.4-.2-.27-.25-.6-.42-.89z"/>
      <path d="M85.09 86.34c.27.39-.16.56-.39.57-.15-.36.13-.54.39-.57z"/>
      <path d="M83.7 86.01c-.1.56-.47.68-.89.38.18-.29.52-.38.89-.38z"/>
      <path d="M82.06 85.6c-.18.42-.54.38-.91.14.29-.38.58-.43.91-.14z"/>
      <path d="M84.28 79.85c-.08.83-.36.95-1.01 1.06.08-.6.57-.87 1.01-1.06z"/>
      <path d="M78.24 69.43c-.38.45-.98-.44-.23-.28.12.04.22.15.23.28z"/>
      <path d="M76.89 70.03c-.07.54-1.14.39-.46-.07.15-.07.35-.06.46.07z"/>
      <path d="M76.27 71.28c.27.49-.84 1.29-.5.42a.7.7 0 01.5-.42z"/>
      <path d="M76.2 73.24c.29.48-.83 1.32-.48.4.09-.2.27-.35.48-.4z"/>
      <path d="M76.22 74.63c.23.55-.94.46-.32.02a.5.5 0 01.32-.02z"/>
      <path d="M80.1 81.92c-.17.3-.6.44-.9.26.2-.18.51-.24.78-.26h.12z"/>
      <path d="M79.33 81.5c-.2.22-.76.29-.88.07.26-.17.6-.2.88-.07z"/>
      <path d="M78.51 80.71c-.12.24-.55.18-.59-.09a.6.6 0 01.56.08z"/>
      <path d="M78.22 79.87c-.2.16-.5.18-.73.06-.11-.18.34-.22.47-.18.1.02.18.06.26.12z"/>
      <path d="M77.72 78.97a.9.9 0 01-1.09-.01c.29-.28.81-.3 1.09.01z"/>
      <path d="M77.3 78.13c-.4.25-1.16-.38-.35-.39.18.03.4.18.35.39z"/>
      <path d="M76.83 77c-.32.47-1.07-.26-.28-.24.13.03.24.12.28.24z"/>
      <path d="M76.48 75.92c-.34.46-.91-.46-.22-.27.11.05.17.16.22.27z"/>
      <path d="M73.33 61.36c.38.07.73.25 1.07.42 1.1.7 1.97 1.67 2.8 2.66.54.66 1.05 1.33 1.58 2 .43.52.86 1.06 1.4 1.47.16.09-.3-.11-.36-.18-1.15-.82-2-1.96-2.92-3.02a30.19 30.19 0 00-1.75-1.98 7.53 7.53 0 00-1.36-1.13c-.14-.1-.33-.16-.46-.24z"/>
      <path d="M85.7 74.35c-.05-.24-.2-.45-.32-.67a6.7 6.7 0 00-.77-.97c-.81-.9-1.74-1.69-2.58-2.56a6.66 6.66 0 01-1.21-1.54c-.04-.1.16.18.23.21.35.37.75.67 1.13 1 .55.48 1.1.95 1.61 1.47.35.33.67.69.97 1.05.44.59.95 1.24.94 2.01z"/>
      <path d="M85 80.93c.23.49-.17.6-.39.7-.24-.5.18-.65.39-.7z"/>
      <path d="M75.3 79.68c0 .84.32 1.63.77 2.32.31.5-.1 1.1.18 1.6.15.49.78.27 1.02.64.33.32-.1 1.02.3 1.16.25 0 .91-.02.33.08-.42.22-.86-.05-.75-.54.09-.64-.63-.54-1-.8-.47-.38-.46-1.07-.34-1.62.02-.49-.39-.85-.46-1.32a3.52 3.52 0 01-.05-1.52z"/>
      <path d="M86.21 85.08c-.36-.07-.46-.47-.51-.78-.03-.42-.52-.22-.74-.45-.24-.17-.06-.67-.49-.6-.34.02-.6-.27-.96-.22-.32.04-.63.13-.95.15.41-.19.82-.5 1.3-.45.31.12.64.12.97.17.34.06.33.42.43.67.23.13.6.08.7.4.14.34-.06.78.25 1.04.02.02.02.05 0 .07z"/>
      <path d="M81.29 78.42c.26-.2.48-.42.71-.63a8.6 8.6 0 001.11-1.28l.23.15a10.9 10.9 0 01-2.05 1.76z"/>
      <path d="M82.42 71.56l-1.02-.53c-.5-.3-.99-.6-1.47-.92-.22-.14-.43-.3-.68-.4a.56.56 0 01.17.06c.27.11.51.27.77.42.48.28.97.54 1.49.75.28.13.57.26.86.37l-.12.25z"/>
      <path d="M112.05 111.4c.01-.32-.18-.61-.38-.85a20.45 20.45 0 01-2.6-3.53l-.08-.18a22.44 22.44 0 012.85 3.5c.18.31.36.68.21 1.04v.01z"/>
      <path d="M95.3 135.62l.16.16c.1.09.23.22.37.32.13.1.28.18.4.24l.13.05.06.03-.18.36-.06-.03a2 2 0 01-.5-.5c-.12-.15-.2-.31-.27-.43l-.1-.2z"/>
      <path d="M97.85 135.35s-.04 0-.11.03l-.1.04c-.04 0-.07.04-.12.06-.07.06-.12.14-.18.2-.02.04-.06.07-.07.08-.02 0-.03.02-.03.02s.03-.05.04-.11c.01-.07.03-.19.07-.3a.73.73 0 01.1-.16c.03-.04.06-.09.1-.12l.1-.1z"/>
      <path d="M90.28 136l.03.02.04.03.07.05a1.24 1.24 0 01.45.59l.04.15s-.03-.06-.1-.13a1.15 1.15 0 00-.25-.2c-.1-.06-.2-.1-.28-.12h-.06c-.01 0-.04 0-.05-.02l-.04-.01z"/>
      <path d="M87.43 135.13l.04.04.04.04.05.07c.06.1.12.24.14.39a1.43 1.43 0 010 .53l-.04-.16a1.25 1.25 0 00-.14-.32.84.84 0 00-.21-.22.09.09 0 00-.05-.03c-.01 0-.02 0-.03-.02l-.05-.02z"/>
      <path d="M90.62 135.62l.09-.05.25-.1.35-.11.4-.1.2-.04c.07 0 .13-.02.2-.03a.66.66 0 00.16-.06l.13-.08a.82.82 0 01.31-.17l-.08.06a.89.89 0 00-.18.17l-.13.11c-.04.04-.11.07-.17.1l-.18.08-.2.07-.36.16c-.11.06-.22.1-.3.16l-.19.13a.7.7 0 00-.06.05z"/>
      <path d="M88.28 133.7s.02 0 .03.04l.03.06.04.08c.04.11.06.26.05.4a1 1 0 01-.07.38l-.05.16v-.16a1 1 0 00-.23-.61l-.03-.03-.04-.03-.03-.03z"/>
      <path d="M102.95 102.3c-.31-.42-.8-.66-1.25-.9-.73-.3-1.46-.75-1.8-1.49-.15-.25-.21-.6-.5-.74-.22-.08-.43.06-.64.13a.9.9 0 01-.83-.22c-.47-.35-1.07-.3-1.63-.33-.13 0-.26.02-.39-.02-.03-.12.15-.07.22-.1.56-.08 1.14-.2 1.68.02.16.07.32.15.46.25.18.09.38.06.53-.07a.86.86 0 011.16.34c.17.29.25.63.47.89.48.72 1.35 1 1.98 1.56.21.19.4.41.51.68h.02z"/>
      <path d="M89.58 89c-.01.15-.02.3-.06.45-.02.2-.12.38-.21.55a2.76 2.76 0 01-1.26 1.05l-.35.14c-.07.03-.07-.04-.08-.09l-.06-.29c.16.01.3-.07.46-.1.14-.05.28-.1.41-.17.28-.12.51-.33.71-.55.25-.3.32-.52.44-.99z"/>
      <path d="M92.33 91.14c-.35.85-1.02.83-1.79.8.46-.34 1.21-.53 1.75-.78.01 0 .03-.05.04-.02z"/>
      <path d="M93.87 101.53c.56-.04 1.12.09 1.62.19-.88.52-1.28.21-1.62-.19z"/>
      <path d="M91.65 101.93c.56.06 1.08.3 1.56.51-.77.4-1.28.05-1.57-.5l.01-.01z"/>
      <path d="M88.67 100.44c.2.67.67 1.02 1.17 1.44-.97-.03-1.25-.6-1.17-1.44z"/>
      <path d="M86.36 100.19c.58.28 1.05 1.3 1.11 1.4-.91-.1-1.1-.6-1.14-1.38 0-.01.02-.03.03-.02z"/>
      <path d="M89.36 91.04c-.36.2-.78.3-1.2.26-.48-.05-1.05-.23-1.53-.33-.06-.1.05-.35.1-.4l1.24.3c.38.07.79.06 1.15-.1.2-.07.4-.17.6-.23a6.1 6.1 0 011.23-.3c-.5.14-1.19.62-1.59.8z"/>
      <path d="M86.74 104.3c1.03 2 2.65 3.64 4.36 5.09 1.31 1.04 2.73 2 4.32 2.56.93.25 1.84.63 2.81.7l.9-.03c.39-.07.71-.36.85-.72-.12.52-.62.89-1.15.89-.48.12-1.14.07-1.7-.02-.97-.2-1.8-.45-2.73-.8a15.33 15.33 0 01-2.98-1.8 19.5 19.5 0 01-1.9-1.7 13.43 13.43 0 01-2.7-3.83l-.08-.34z"/>
      <path d="M98.58 105.9c1.3 1.7 2.55 3.49 4.21 4.87.7.58 1.44 1.12 2.22 1.59.48.24 1 .45 1.54.46a4.6 4.6 0 002.02.12c.4-.07.8-.22 1.08-.52-.43.56-1.17.77-1.85.8a5.8 5.8 0 01-1.38-.11h-.35a5.47 5.47 0 01-2.28-1.05 14.55 14.55 0 01-4.27-4.55c-.34-.53-.69-1.04-.94-1.61z"/>
      <path d="M93.64 105.99c.39.62.83 1.21 1.33 1.75.82.93 1.79 1.71 2.78 2.44.8.6 1.65 1.14 2.5 1.68.51.22 1.08.3 1.64.3a3.82 3.82 0 002.33-.07c-.64.38-1.42.44-2.15.36-.32-.08-.3-.03-.69-.03a3.45 3.45 0 01-1.86-.56 19.64 19.64 0 01-3.95-3.03 10.7 10.7 0 01-1.6-2.13c-.13-.22-.23-.5-.33-.71z"/>
      <path d="M103.69 107c.5.63.97 1.26 1.48 1.88.63.77 1.3 1.5 2.05 2.15.29.25.6.46.92.67.77.45 1.67.62 2.55.74l-.3.01c-.9.04-1.84-.1-2.61-.57-.72-.43-1.34-1-1.9-1.62a13.5 13.5 0 01-2.19-3.26z"/>
      <path d="M113.55 113.3a29.48 29.48 0 003.72 5.24c3.38 3.74 7.02 7.24 10.5 10.9a119.5 119.5 0 01-10.43-10.29 24.4 24.4 0 01-3.79-5.86z"/>
      <path d="M109.32 113.33c1.44 2.98 4.07 5.14 6.34 7.47 3.3 3.25 6.84 6.27 10.36 9.28a89.64 89.64 0 01-12-10.4c-1.77-1.88-3.66-3.8-4.64-6.24l-.06-.11z"/>
      <path d="M104.84 114.47c1.76 2.41 4.15 4.23 6.23 6.34a69.37 69.37 0 0011.61 8.86c-.11.4-.34.34-.61.1a62.92 62.92 0 01-7.25-5.16c-2.23-1.77-4.24-3.8-6.29-5.79a18.91 18.91 0 01-3.71-4.32z"/>
      <path d="M90.41 87.23c.75.5 1.59.92 2.25 1.38.05.05.16.22 0 .13a4.45 4.45 0 01-2.18-1.29c-.01-.07-.06-.14-.07-.22z"/>
      <path d="M74.25 93.4c-.02.66-.1 1.3-.09 1.97 0 .43 0 .86-.02 1.3-.12-.15-.18-.46-.24-.67a4.07 4.07 0 01.35-2.6z"/>
      <path d="M75.57 97.6c0 .48.25.92.48 1.33.37.65.73 1.3.97 2-.13-.08-.28-.33-.4-.5a9.63 9.63 0 01-1-1.74 1.66 1.66 0 01-.05-1.08v-.01z"/>
      <path d="M78.6 102.58c.15.68.27 1.38.51 2.04.16.45.33.9.55 1.34-.07.01-.28-.24-.37-.36a3.62 3.62 0 01-.79-2.41c0-.2.04-.41.1-.61z"/>
      <path d="M80.39 106.42c.27.48.45.99.65 1.5.17.33.3.7.45 1.04 0 .1.32.3.08.2-.32-.18-.46-.54-.66-.83a2.77 2.77 0 01-.4-1.04 5.2 5.2 0 01-.12-.87z"/>
      <path d="M78.27 94.78c-.02.5-.1 1-.13 1.51-.05.58-.08 1.17-.14 1.75-.2-.57-.24-1.2-.2-1.8.07-.51.23-1 .47-1.46z"/>
      <path d="M76.27 86.34c-.73 1.3-1.2 2.74-1.33 4.22-.06.23 0 .75-.08.81a5.68 5.68 0 011.41-5.03z"/>
      <path d="M73.22 92.78c-.21-.32-.28-.7-.26-1.08 0-.34.09-.7.27-.98.08-.08.17-.33.24-.26l-.11.75c-.07.39-.1.79-.11 1.18-.01.13 0 .26-.03.39z"/>
      <path d="M81.33 88.48c-.3 1.21-1.2 2.14-1.74 3.24-.2.34-.31.73-.41 1.11-.08-1.09.5-2.07 1.12-2.92.35-.47.71-.94 1.03-1.43z"/>
      <path d="M77.66 89.9c-.14.4-.3.8-.38 1.22a5.85 5.85 0 00-.11 1.67c.01.25.05.5.08.75-.05.01-.1-.17-.15-.23a3.1 3.1 0 01.49-3.31.37.37 0 01.07-.1z"/>
      <path d="M84.8 110.28c.25.5.32 1.05.44 1.58.08.27.14.54.28.79.03.08.2.24.15.28a1.38 1.38 0 01-.67-.8c-.23-.6-.21-1.23-.21-1.85z"/>
      <path d="M90 113.26c.08.24.13.5.24.73a8.98 8.98 0 001.84 3.23c.64.83 1.32 1.64 1.89 2.52l.36.57-.36.2c-.76-1.28-1.73-2.41-2.58-3.63-.4-.62-.8-1.26-1.06-1.95-.17-.5-.33-1-.36-1.52.02-.04-.05-.2.03-.15z"/>
      <path d="M98.4 118.49c-.11.36-.1.75-.07 1.13.06.59.16 1.18.11 1.77-.02.48-.1.96-.24 1.42l-.06-1.74c-.03-.74-.18-1.5.05-2.22.06-.12.1-.27.21-.36z"/>
      <path d="M96.12 122.08c.54.48.71 1.31.46 1.98-.06.22-.1.44-.07.66.04.37.05.74.06 1.1 0 .2.02.42-.02.6a8.53 8.53 0 01-.38-2.08c.08-.43.27-.84.23-1.27a2.3 2.3 0 00-.28-.99z"/>
      <path d="M98.78 67.71l-.2.1-.46.16-.46.14-.22.03.2-.1.4-.25.36-.28.16-.14z"/>
      <path d="M98.85 64.16c.76.55-.42 1.4-.14.23z"/>
      <path d="M98.26 65.02c.16.73-1.69 1.75-.77.6.22-.24.48-.45.77-.6z"/>
      <path d="M89.15 86.34c.46-.07.46.3.39.54-.45.04-.49-.46-.39-.54z"/>
      <path d="M90.54 86.01c.37 0 .65.07.88.39-.42.2-.7.1-.88-.39z"/>
      <path d="M93.08 85.74c-.44.34-.77.06-.91-.15.34-.28.78-.16.91.15z"/>
      <path d="M89.97 79.85c.57.16.82.6 1.01 1.06-.83-.12-.9-.4-1.01-1.06z"/>
      <path d="M91.24 79.64c.45-.03.6.26.67.5-.71.13-.68-.23-.67-.5z"/>
      <path d="M96 69.43c.31-.85 1.22.41 0 0z"/>
      <path d="M97.36 70.03c.97-.45.76 1.12 0 0z"/>
      <path d="M97.98 71.28c.95.17.32 1.46-.02.29v-.15z"/>
      <path d="M98.04 73.24c.95.14.36 1.5.02.29z"/>
      <path d="M98.03 74.63c.93-.18.13 1.07 0 0z"/>
      <path d="M94.15 81.92c1.06-.16.95.9 0 0z"/>
      <path d="M94.92 81.5c1.05-.42.98.65 0 0z"/>
      <path d="M95.74 80.71c.63-.57.67.5 0 0z"/>
      <path d="M96.03 79.87c.61-.5 1.13.49 0 0z"/>
      <path d="M96.53 78.97c.63-.71 1.49.45.26.13z"/>
      <path d="M96.94 78.13c.39-.92 1.18.2.07 0z"/>
      <path d="M97.42 77c.54-.9 1.18.7 0 0z"/>
      <path d="M97.77 75.92c.42-.94 1.08.5 0 0z"/>
      <path d="M100.92 61.36c-.32.15-.63.31-.9.54-.57.42-1.04.96-1.54 1.47-.94 1.07-1.83 2.19-2.8 3.24-.47.45-.93.96-1.52 1.27-.35.18.12-.13.2-.22.46-.43.85-.93 1.25-1.42.56-.71 1.12-1.43 1.7-2.13.68-.8 1.44-1.55 2.3-2.16a3.5 3.5 0 011.13-.55c.06 0 .12-.03.18-.04z"/>
      <path d="M88.55 74.35c.03-.78.5-1.45.97-2.04.5-.62 1.1-1.15 1.67-1.7.51-.45 1.04-.88 1.55-1.34.25-.21.49-.44.71-.68-.2.4-.5.77-.8 1.11-.6.64-1.22 1.26-1.85 1.87-.35.32-.7.64-1 1a5.5 5.5 0 00-1.21 1.67l-.04.11z"/>
      <path d="M89.25 80.93c.55.04.43.52.39.7-.57-.07-.41-.49-.39-.7z"/>
      <path d="M98.95 79.68c.2.85 0 1.76-.45 2.5-.11.6.23 1.27-.2 1.81-.35.41-1.29.25-1.18 1 .18.67-.78.63-.93.4.56.2.83-.27.66-.76.02-.71.9-.53 1.17-1 .27-.62-.17-1.36.34-1.91.37-.6.62-1.33.59-2.04z"/>
      <path d="M88.03 85.08c.27-.15.27-.49.25-.76-.02-.34.22-.66.57-.66.38-.03.16-.48.42-.64.27-.25.67-.07.97-.23.34-.13.7-.03 1 .15.12.07.52.22.45.24-.37-.01-.73-.16-1.1-.14-.27.05-.5.27-.79.23-.38-.06-.23.42-.44.59-.17.2-.5.06-.65.24-.18.31-.12.79-.5.95a.36.36 0 01-.18.03z"/>
      <path d="M92.96 78.42c-.25-.15-.48-.34-.72-.5-.48-.36-.92-.82-1.32-1.25l.21-.17a9.09 9.09 0 001.83 1.92z"/>
      <path d="M91.7 71.31a18.77 18.77 0 002.79-1.35c.16-.09.32-.2.5-.24l-.1.05c-.13.06-.24.15-.36.22-.5.34-1 .67-1.52.96-.24.12-.46.25-.69.38-.16.08-.35.14-.5.22l-.12-.24z"/>
      <path d="M87.37 77.71c-.1-.21-.19-.47-.1-.7.05-.15.24-.27.39-.17a.6.6 0 01.3.41c.06.22-.04.53-.29.58.06-.1.15-.28.08-.42-.04-.1-.12-.3-.23-.28-.14.16-.1.39-.15.58z"/>
      <path d="M87.9 78.96c0 .75-.11 1.52-.43 2.21-.04.07-.12.27-.16.25.13-.56.22-1.14.34-1.7.07-.26.12-.52.22-.76.01-.03.03-.01.03 0z"/>
      <path d="M86.9 77.71c-.01-.2 0-.47-.15-.62-.15.09-.24.3-.24.47-.04.1.24.31 0 .22-.2-.11-.21-.4-.18-.6.05-.2.23-.38.44-.4.14.02.25.15.27.28.07.22-.05.45-.13.65h-.01z"/>
      <path d="M86.36 78.46c0 .29.05.58.1.86.05.35.16.7.23 1.04l.26 1.1a6.26 6.26 0 01-.57-1.56 3.2 3.2 0 01-.02-1.44z"/>
      <path d="M99.22 127.45c-.3-.42-.44-.92-.42-1.43 0-.37-.03-.74-.07-1.11.15.95.26 1.63.74 2.3-.04.12-.16.15-.25.24z"/>
      <path d="M100.89 123.08a2.69 2.69 0 01-.49-1.15c-.06-.4.01-.81-.1-1.2.1.2.17.4.2.61.06.36.13.72.33 1.02.09.16.2.36.33.5l-.27.22z"/>
      <path d="M84.82 132.88c.3.39.23.68.13 1.07-.06-.56-.21-.57-.4-.83.04-.16.15-.12.27-.24z"/>
      <path d="M120.55 118.58c2.22 1.3 3.27 1.86 5.51 3.14-2.27-1.07-3-1.42-5.2-2.64z"/>
      <path d="M116.95 113.3c3.5 2.46 7.23 5 10.74 7.43a133.98 133.98 0 01-10.74-7z"/>
      <path d="M92.49 124.91c-.73-1.4-.35-2.95-.8-4.29.73 1.05.69 3.03.8 4.29z"/>
      <path d="M94.87 125.35c-.58-.73-.3-1.29-.37-2.15.2.84.1 1.12.63 1.7-.1.11-.4.45-.26.45z"/>
    </g>
  </g>
</svg>
