<svg xmlns="http://www.w3.org/2000/svg" fill="#d7374a" stroke="#000" viewBox="50 50 200 200">
  <metadata source="http://wappenwiki.org/images/4/4a/Jules_L%C3%A9ger%2C_Governor-General_of_Canada.svg" license="https://creativecommons.org/licenses/by-nc-sa/3.0"/>
  <g id="owlDisplayed" stroke-width="2" transform="translate(48.7 70.3) scale(0.125)">
    <path stroke-width="3" d="M447.8 269.9c-6.6 18.8 2.9 48.3 7.2 61.4 2.6 8.1 5.9 18.6 6.4 27 .5 7 .1 14.1-3.7 20.4-3.1 1.3-7.8 1.9-10.6.2-.9 1.9-4.5 2.5-6.5 3.2a6 6 0 0 1-5.2-.3c-.4 1.4-3.6 1.3-5 1.8-1.4.4-2.8.4-4.3.2-1.7-.2-3.6-.3-4.4-1.3-.8 1.2-2.1 1.6-4.8 2-2.6.4-5.6-.3-6.7-1.4-1.1 1.1-4 1.8-6.7 1.4-2.7-.4-4-.8-4.8-2-.9 1-2.7 1.1-4.4 1.3-1.4.1-2.9.2-4.3-.2s-4.6-.4-5-1.8a6 6 0 0 1-5.2.3c-2-.7-5.6-1.3-6.5-3.2-2.9 1.7-7.6 1-10.6-.2a33.8 33.8 0 0 1-3.7-20.4c.6-8.5 3.8-19 6.4-27 4.2-13.1 13.8-42.6 7.2-61.4"/>
    <g stroke="none" fill="#000">
      <polygon points="410.3,333.2 411.8,383.2 408.8,383.2"/>
      <path d="M417.3 318.6c.2 5.4.9 10.7 1.8 16 .9 5.3 2 10.6 3.1 15.9l1.6 8a55.6 55.6 0 0 1 .8 16.4c-.2 2.8-.6 5.5-1.5 8.3l-2.8-1a52.3 52.3 0 0 0 1.5-23.3 1470.4 1470.4 0 0 1-3.6-24c-.5-5.5-1-10.9-.9-16.3zM427.3 315.6c.2 5.6 1.4 11.1 2.7 16.6a432.8 432.8 0 0 0 6.5 24.5 81.2 81.2 0 0 1 1.7 17.1c-.1 2.9-.3 5.8-1.3 8.7l-2.8-1c.9-2.4 1.3-5.1 1.5-7.8a73.4 73.4 0 0 0-2.7-24.7c-1.3-5.5-2.6-11-3.6-16.5a82 82 0 0 1-2-16.9zM437.7 311.3c.1 2.9.6 5.7 1.2 8.6l2.1 8.4a523 523 0 0 0 5.2 16.5l2.6 8.3c.4 1.4.7 2.9.9 4.4l.5 4.4c.2 2.9.2 5.9 0 8.8-.2 3-.6 5.9-1.6 8.9l-2.8-1c.9-2.5 1.5-5.3 1.8-8.1a59.9 59.9 0 0 0-2.9-25.2c-1.6-5.6-3.2-11.1-4.5-16.8-.7-2.8-1.3-5.6-1.8-8.5a51 51 0 0 1-.7-8.7zM403.3 318.6c.1 5.4-.4 10.8-1.1 16.2-.7 5.4-1.5 10.7-2.4 16-.4 2.7-.9 5.3-1.2 8-.4 2.6-.5 5.3-.6 7.9 0 2.7.1 5.3.4 7.9.3 2.6.8 5.2 1.7 7.5l-2.8 1c-.9-2.8-1.3-5.5-1.5-8.3a75 75 0 0 1 .8-16.4l1.6-8c1.1-5.3 2.2-10.6 3.1-15.9a84.4 84.4 0 0 0 2-15.9zM393.3 315.6a96 96 0 0 1-1.9 16.8l-3.6 16.5-1.8 8.2c-.5 2.7-.8 5.5-.9 8.2-.2 2.8-.2 5.5 0 8.3.2 2.7.6 5.5 1.5 7.8l-2.8 1c-1-2.9-1.2-5.9-1.3-8.7a83.2 83.2 0 0 1 3.9-25.3c1.5-5.4 3-10.8 4.3-16.3a91.5 91.5 0 0 0 2.6-16.5zM382.9 311.3c0 2.9-.3 5.8-.8 8.6-.5 2.9-1.1 5.7-1.8 8.5l-4.5 16.8-2.2 8.3-.7 4.2-.3 4.2c-.1 2.8 0 5.7.3 8.5s.8 5.6 1.8 8.1l-2.8 1c-1-3-1.4-5.9-1.6-8.9-.2-3-.2-5.9 0-8.8l.5-4.4c.2-1.4.5-3 .9-4.4l2.6-8.3c1.8-5.5 3.6-11 5.2-16.5a128.8 128.8 0 0 0 3.4-16.9z"/>
    </g>
    <path stroke-width="3" stroke-linejoin="round" d="M441.3 259.4a29.6 29.6 0 0 0 22.5 8.1c4 5.6 13.5 8.4 21 7 0 0 5.5 5.4 11.3 6.3 4.5.8 9.2.5 13.7-.3a30 30 0 0 0 25.8 5.5 36 36 0 0 0 23.9 12.6c0 4.6 8.7 13.7 16.3 15.5 4.3 1 8.1-.4 8.1-.4-.8 4.2 3.2 9.7 6.2 12.9 3 3.2 5.8 4.8 9.9 6.7 4.5 2.1 8.8 1.4 8.8 1.4.7 4.7 7.7 10.8 12.4 12.7 8.2 3.4 10.6 2.3 10.6 2.3 3.3 6.9 13.5 13.9 21.6 13.2.4 4.4 5.8 9.4 9.9 11.6 4.1 2.2 8 3.1 12.8 3.6-.4 2.8 3.6 5.4 5.4 7.4 2.1 2.3 8.1 4.7 11.3 5.4 5.5 1.2 11.5-.1 11.5-.1s1.4 5.6 6.1 10.2c4.1 4 10.7 10.5 16.6 6.1 2.6-2 3.8-5.4 3.8-16.9 0-12-1.6-30.9-4.1-43.9-14.3-78.7-27.1-124-66.2-162.3-24.2-23.8-70.2-46.4-87.4-50.9-33.3-8.5-99.4 3.8-120.5-2.2"/>
    <path fill="none" stroke-width="3" d="M684.1 246.1c-11.7-23.5-29.3-45.9-43.1-56.3-16.4-9.2-22.5-18.4-37-23.4-16.1-.6-32.6-16.6-46.9-17.9-11.1 1.8-30.7 8.2-44.3 1.6-20.3 2.4-40.5 7.8-57.7-2.5"/>
    <g stroke="none" fill="#000">
      <path d="M468.4 261.6a67.8 67.8 0 0 1-7.2-17.9c-1.7-6.2-2.7-12.6-3.4-19.1l-.4-4.8-.2-4.8v-4.8l.3-4.8c.5-6.4 1.6-12.9 4.1-18.9a101 101 0 0 0-1.8 19v4.8l.2 4.7.3 4.7.4 4.7 1.1 9.4.7 4.7.8 4.7c1.4 6.2 2.9 12.3 5.1 18.4zM491.4 264.6a67.8 67.8 0 0 1-7.2-17.9c-1.7-6.2-2.7-12.6-3.4-19.1l-.4-4.8-.2-4.8v-4.8l.3-4.8c.5-6.4 1.6-12.9 4.1-18.9a101 101 0 0 0-1.8 19v4.8l.2 4.7.3 4.7.4 4.7 1.1 9.4.7 4.7.8 4.7c1.4 6.2 2.9 12.3 5.1 18.4zM516.4 270.6a67.8 67.8 0 0 1-7.2-17.9c-1.7-6.2-2.7-12.6-3.4-19.1l-.4-4.8-.2-4.8v-4.8l.3-4.8c.5-6.4 1.6-12.9 4.1-18.9a101 101 0 0 0-1.8 19v4.8l.2 4.7.3 4.7.4 4.7 1.1 9.4.7 4.7.8 4.7c1.4 6.2 2.9 12.3 5.1 18.4zM685.8 365.8a73.7 73.7 0 0 1-8.1-20.4c-1.8-7.1-2.9-14.4-3.4-21.7l-.3-5.5-.1-5.5.2-5.5.5-5.5c.9-7.3 2.4-14.6 5.7-21.2-2 7-2.9 14.2-3.3 21.4l-.1 2.7-.1 2.7v5.4l.1 5.4.3 5.4c.3 3.6.6 7.2 1.1 10.8l.7 5.4.9 5.3c1.5 7 3.2 14 5.9 20.8zM661 355.2c-3.3-6.6-5-13.8-6.2-21-1.2-7.3-1.6-14.6-1.5-22l.2-5.5.4-5.5.7-5.5a65.3 65.3 0 0 1 8.5-26 96.3 96.3 0 0 0-5.2 21l-.3 2.7-.3 2.7-.5 5.4-.3 5.4-.2 5.4c-.1 3.6 0 7.2.1 10.8l.3 5.4.4 5.4c.7 7.1 1.8 14.3 3.9 21.3zM636.6 338.2a71.8 71.8 0 0 1-4-21.6c-.4-7.3-.1-14.7.8-22l.8-5.5 1-5.4 1.3-5.4c.4-1.8 1-3.5 1.5-5.3 2.2-7 5.2-13.9 9.6-19.7a99.3 99.3 0 0 0-7.3 20.4l-.6 2.6c-.2.9-.5 1.7-.6 2.6l-1 5.3-.9 5.3-.7 5.4c-.4 3.6-.8 7.2-1 10.8l-.3 5.4-.1 5.4c-.2 7.3.2 14.5 1.5 21.7zM615.6 327.2a71.8 71.8 0 0 1-4-21.6c-.4-7.3-.1-14.7.8-22l.8-5.5 1-5.4 1.3-5.4c.4-1.8 1-3.5 1.5-5.3 2.2-7 5.2-13.9 9.6-19.7a99.3 99.3 0 0 0-7.3 20.4l-.6 2.6c-.2.9-.5 1.7-.6 2.6l-1 5.3-.9 5.3-.7 5.4c-.4 3.6-.8 7.2-1 10.8l-.3 5.4-.1 5.4c-.2 7.3.2 14.5 1.5 21.7zM594.7 304.1a67 67 0 0 1-4.4-18.8c-.7-6.4-.8-12.9-.5-19.4l.4-4.8.5-4.8.8-4.8 1-4.7a60.5 60.5 0 0 1 6.9-18c-2.2 6-3.6 12.2-4.6 18.5l-.7 4.7-.6 4.7-.4 4.7-.3 4.7c-.2 3.2-.3 6.3-.3 9.5v4.8l.1 4.8c.3 6.2.8 12.6 2.1 18.9zM567.7 294.1a67 67 0 0 1-4.4-18.8c-.7-6.4-.8-12.9-.5-19.4l.4-4.8.5-4.8.8-4.8 1-4.7a60.5 60.5 0 0 1 6.9-18c-2.2 6-3.6 12.2-4.6 18.5l-.7 4.7-.6 4.7-.4 4.7-.3 4.7c-.2 3.2-.3 6.3-.3 9.5v4.8l.1 4.8c.3 6.2.8 12.6 2.1 18.9zM542.6 278.9a69.2 69.2 0 0 1-5.8-18.4c-1.2-6.4-1.8-12.8-1.9-19.3v-4.8l.2-4.8.4-4.8.6-4.8c1-6.4 2.6-12.8 5.5-18.5a101.3 101.3 0 0 0-3.5 23.5l-.2 4.7-.1 4.8.1 4.8a301.7 301.7 0 0 0 1.3 18.9c.6 6.3 1.6 12.5 3.4 18.7zM703.3 391.8a41.8 41.8 0 0 1-6.7-10.8 99.5 99.5 0 0 1-4-11.8 74.2 74.2 0 0 1-1.1-24.8l.1.9a56.2 56.2 0 0 1-4.7-14.9 113.2 113.2 0 0 1-1-30.8c.7-5.1 1.6-10.2 3.7-14.9l.3.1c-1.4 4.9-2 9.9-2.3 15a126.8 126.8 0 0 0 1.7 30.1c1 4.9 2.4 9.7 4.7 14.1.1.3.2.6.1.8v.1l-.3 2.9-.1 3 .1 6a64.7 64.7 0 0 0 8.2 28.3c1 1.7 2.1 3.2 3.4 4.5l-2.1 2.2zM674.9 378.9c-1.2-1.8-2.1-3.7-3-5.6l-2.4-5.7a81.3 81.3 0 0 1-3.5-11.9c-.4-2.2-.4-4.2-.5-6.2l-.1-6.1.2-6.1.2-3.1.2-1.6.1-.8.1-.4.2-.6v.9a84.7 84.7 0 0 1-3.2-26c.1-4.4.7-8.7 1.7-13 1.1-4.2 2.7-8.4 5.2-12l.3.2c-1.9 3.9-3.1 8-3.9 12.2A77 77 0 0 0 669 331v.4l-.1.5v.2l-.1.3-.1.7-.1 1.5-.2 3-.1 6a120 120 0 0 0 .7 11.9c.7 3.8 2 7.6 3.3 11.4a53.1 53.1 0 0 0 5 10.6l-2.4 1.4z"/>
      <path d="M652.2 363.7a37.3 37.3 0 0 1-4.6-11 65.5 65.5 0 0 1-1.9-23.3 113.4 113.4 0 0 1 .9-8.7l.3-1.5.2-.8.1-.4.2-.5-.1.9a84.2 84.2 0 0 1 .4-38.9c1.3-4.2 3.1-8.2 5.8-11.7l.3.2a43.9 43.9 0 0 0-4.4 11.9 85.3 85.3 0 0 0 .6 37.8v.5l-.1.4v.2l-.1.3-.1.6-.2 1.4-.3 2.8-.4 5.7a68.4 68.4 0 0 0 2 22.3c1 3.6 2.2 7.2 4.2 10.1l-2.8 1.7zM630.6 350.5a31.6 31.6 0 0 1-4.3-10c-.9-3.5-1.4-7-1.6-10.5a75 75 0 0 1 1.1-18.4l.2-1.3.4-1.5v.9a58.3 58.3 0 0 1-2.1-13.7 78.2 78.2 0 0 1 3.8-27 52 52 0 0 1 6-12.3l.3.2c-2 4.1-3.5 8.3-4.6 12.6-1.1 4.3-2 8.7-2.5 13.1a74 74 0 0 0 1.8 27.1v.1l-.2 1-.2 1.2-.3 2.5a88 88 0 0 0-.6 15.3c.2 3.4.7 6.7 1.5 10 .8 3.2 2 6.4 3.8 9l-2.5 1.7zM607.6 335.5a46.4 46.4 0 0 1-5.9-21.6 69 69 0 0 1 .7-11.1l.8-5.5.5-2.7.3-1.4.4-1.5v.9a68.8 68.8 0 0 1 1-39.2 46 46 0 0 1 5.7-11.8l.3.2a67.5 67.5 0 0 0-6.6 24.7 65.4 65.4 0 0 0 2.3 26.1v.1l-.3 1.1-.3 1.3-.5 2.6-.8 5.3a64 64 0 0 0 1 21.2c.8 3.4 2.1 6.8 4 9.5l-2.6 1.8zM582.6 314.5a31.6 31.6 0 0 1-4.3-10c-.9-3.5-1.4-7-1.6-10.5a75 75 0 0 1 1.1-18.4l.2-1.3.4-1.5v.9a53.4 53.4 0 0 1-2-13.2 72.6 72.6 0 0 1 3.8-26c1.5-4.1 3.4-8.2 5.9-11.7l.3.2a77.1 77.1 0 0 0-7.2 24.7 61.6 61.6 0 0 0 1.8 26.1v.1l-.2 1-.2 1.2-.3 2.5a88 88 0 0 0-.6 15.3c.2 3.4.7 6.7 1.6 9.9.9 3.2 2 6.4 3.8 9l-2.5 1.7zM557.8 299.4a22 22 0 0 1-4.2-8 65.9 65.9 0 0 1-2.7-12.9l-.2-4.4a64.6 64.6 0 0 1 .3-6.6c.1-.8.1-1.4.4-2.4v.9c-1.7-4.3-2.7-9-3-13.6a88.7 88.7 0 0 1 3.3-27.2c1.3-4.4 2.8-8.7 4.5-12.9l.3.1-3.1 13.2c-1 4.4-1.8 8.8-2.3 13.2-.5 4.4-.6 8.9-.1 13.3.4 4.4 1.5 8.7 3.1 12.7l.1.8v.1l-.2 1.9-.1 2.1v4.2l.2 4.2c.1 1.4.4 2.7.6 4.1.5 2.8 1.1 5.5 2 8.1.9 2.6 2 5.1 3.6 7.1l-2.5 2zM462.7 268.5a42.2 42.2 0 0 1-9.5-20.1l-.6-4.4-.3-4.4v-2.2c0-.8 0-1.4.2-2.4l.1.9a48 48 0 0 1-4.2-13.3 71 71 0 0 1-.7-13.8 103 103 0 0 1 5-26.8l.3.1-2 13.4c-.6 4.5-1 8.9-1.1 13.4-.1 4.5.2 8.9 1 13.3.8 4.3 2.2 8.6 4.2 12.4.1.3.2.6.1.8v.1l-.1 1.9.1 2.1.3 4.2.6 4.2a46.7 46.7 0 0 0 4.1 11.7c1.3 2.4 2.8 4.8 4.7 6.7l-2.2 2.2zM483.7 275.5a42.2 42.2 0 0 1-9.5-20.1l-.6-4.4-.3-4.4v-2.2c0-.8 0-1.4.2-2.4l.1.9a48 48 0 0 1-4.2-13.3 71 71 0 0 1-.7-13.8 103 103 0 0 1 5-26.8l.3.1-2 13.4c-.6 4.5-1 8.9-1.1 13.4-.1 4.5.2 8.9 1 13.3.8 4.3 2.2 8.6 4.2 12.4.1.3.2.6.1.8v.1l-.1 1.9.1 2.1.3 4.2.6 4.2a46.7 46.7 0 0 0 4.1 11.7c1.3 2.4 2.8 4.8 4.7 6.7l-2.2 2.2zM508.7 281.5a42.2 42.2 0 0 1-9.5-20.1l-.6-4.4-.3-4.4v-2.2c0-.8 0-1.4.2-2.4l.1.9a48 48 0 0 1-4.2-13.3 71 71 0 0 1-.7-13.8 103 103 0 0 1 5-26.8l.3.1-2 13.4c-.6 4.5-1 8.9-1.1 13.4-.1 4.5.2 8.9 1 13.3.8 4.3 2.2 8.6 4.2 12.4.1.3.2.6.1.8v.1l-.1 1.9.1 2.1.3 4.2.6 4.2a46.7 46.7 0 0 0 4.1 11.7c1.3 2.4 2.8 4.8 4.7 6.7l-2.2 2.2zM534.5 287a42.2 42.2 0 0 1-9.5-20.1l-.6-4.4-.3-4.4v-2.2c0-.8 0-1.4.2-2.4l.1.9a48 48 0 0 1-4.2-13.3 71 71 0 0 1-.7-13.8 103 103 0 0 1 5-26.8l.3.1-2 13.4c-.6 4.5-1 8.9-1.1 13.4-.1 4.5.2 8.9 1 13.3.8 4.3 2.2 8.6 4.2 12.4.1.3.2.6.1.8v.1l-.1 1.9.1 2.1.3 4.2.6 4.2a46.7 46.7 0 0 0 4.1 11.7c1.3 2.4 2.8 4.8 4.7 6.7l-2.2 2.2zM654.7 257.6a62.2 62.2 0 0 1 .9-22.5 68.6 68.6 0 0 0 2 21.8l-2.9.7zM637.5 245.1a42 42 0 0 1 0-11.2c.4-3.6 1-7.2 1.8-10.8-.2 3.6-.4 7.2-.3 10.8.1 3.6.5 7.2 1.5 10.5l-3 .7zM619.7 230l-.9-6c-.1-2-.1-4 .2-6 .5-4 1.8-7.7 2.4-11.5-.2 3.9-1 7.8-.9 11.6 0 3.8.8 7.5 2.1 11.1l-2.9.8zM602.9 221.9c-1.3-2.6-2-5.3-2.3-8a40 40 0 0 1 5-23.1 34 34 0 0 0-3.4 15.1c0 2.6.1 5.2.7 7.6.5 2.5 1.4 4.8 2.7 6.9l-2.7 1.5zM585.5 211.7a38 38 0 0 1-3.2-22.2c.5-2.4 1.3-4.8 2.6-6.9a19 19 0 0 0-1.8 7.1 34.5 34.5 0 0 0 5 20.6l-2.6 1.4zM557.9 203.1a37 37 0 0 1-2.6-15.4c.3-5.2 1.7-10.2 3.4-15a48 48 0 0 0-1.9 15c.2 5 1.6 9.8 3.8 14.2l-2.7 1.2zM499.5 183a49.7 49.7 0 0 1 .3-23.9 47.6 47.6 0 0 0 2.6 23.1l-2.9.8zM527.5 198a37.1 37.1 0 0 1-4.9-18.6 55.6 55.6 0 0 1 3.3-18.6 58.6 58.6 0 0 0-1.8 18.6 34.3 34.3 0 0 0 6 17.1l-2.6 1.5zM490.4 179a17.2 17.2 0 0 1-3.4-4.6 21 21 0 0 1-1.9-5.5c-.4-1.9-.5-3.9-.4-5.8.1-1.9.5-3.8 1.3-5.6l.2 5.6a50.2 50.2 0 0 0 2.2 10.7l2 5.2zM595.2 207.3a21.8 21.8 0 0 1-1.6-8.7c0-1.5.1-3 .3-4.4a16 16 0 0 1 1.1-4.3c.3 1.5.4 2.9.5 4.4l.2 4.3v4.3c-.3 1.5-.3 2.9-.5 4.4zM648 248.2c-.6-1.6-1-3.2-1.2-4.9a42 42 0 0 1 .2-10c.3-1.6.7-3.3 1.4-4.8.2 1.7.2 3.3.2 5v4.9l-.1 4.9-.5 4.9zM628.6 231.8a19.8 19.8 0 0 1-.8-8.3 16 16 0 0 1 1-4.2c.5-1.3 1.3-2.6 2.3-3.6l-.8 4a52 52 0 0 0-.5 3.9l-.4 4c-.2 1.5-.4 2.8-.8 4.2zM610.8 217.9c-.5-1.4-.8-2.9-.9-4.4a21.3 21.3 0 0 1 1.4-8.7c.5-1.4 1.2-2.7 2.2-3.9l-.7 4.3-.7 4.2-.6 4.2-.7 4.3zM574.4 202.1a37.2 37.2 0 0 1-.8-26.2l-.1 6.6.1 6.5c0 2.2.2 4.3.3 6.5l.5 6.6zM543.8 191.3a68.2 68.2 0 0 1-3-23.6 41 41 0 0 1 1.3-7.8l.2 7.9.3 7.8.5 7.8c.3 2.7.6 5.3.7 7.9zM517.5 184.7a22.7 22.7 0 0 1-5-11.1 25 25 0 0 1 .8-12.1l.4 5.9c.2 1.9.4 3.9.8 5.8.3 1.9.8 3.8 1.3 5.7l1.7 5.8z"/>
      <path d="M474.4 184.7a46.4 46.4 0 0 0 26-3.4c.6-.3 1.4-.1 1.7.6l.1.1 2.1 3.3a24.8 24.8 0 0 0 8.9 7.6 26.3 26.3 0 0 0 15.3 2.9c.4-.1.8.1 1.1.3a30 30 0 0 0 21.6 5.9l7.9-1.1c.5-.1.9.1 1.2.4 1.7 1.7 3.6 3.3 5.6 4.7 2 1.4 4.1 2.6 6.3 3.3 2.3.7 4.6 1.2 6.9 1.1l1.7-.2 1.9-.4c1.3-.2 2.6-.4 4-.4.5 0 1 .3 1.3.7v.1c.3.6.9 1.2 1.4 1.8l1.7 1.7a28.2 28.2 0 0 0 6 4l2.3.8c1.6.5 3.2.9 4.8 1.1.4.1.7.3 1 .6 3.1 4.1 8.2 6.7 13.4 7.4l1 .1 1.2.1c.3 0 .7.1 1 .4.4.2.7.6.8.9.4.6.4 1 .5 1.3a23.9 23.9 0 0 0 6.2 10c1.9 1.6 4.4 3 6.6 3.1h.8l1-.2a3 3 0 0 1 2 .3c.7.4 1.1.9 1.3 1.3.3.4.4.8.5 1.1l.5.9 1 1.7c1.4 2.2 3.3 4.3 5.4 5.3 1.1.5 2.4.7 3.7 1 1.3.3 2.8.6 4.2 1.2h.1c.4.2.7.6.8 1a26.1 26.1 0 0 0 14.4 19.2 24 24 0 0 1-10.7-7.1 26 26 0 0 1-6.2-11.7l.9 1c-2.5-.7-5.4-.6-8.4-2a17 17 0 0 1-6.6-6.4l-1.1-1.9-.5-1-.4-.8-.1-.2h-.1l-1.1.2-1.3.1a14.2 14.2 0 0 1-8.4-3.9 26.2 26.2 0 0 1-7.1-11.2l-.2-.6.1.1c.1.1.1 0 .1 0l-.9-.1-1.1-.1c-3-.4-5.9-1.3-8.5-2.7a20.5 20.5 0 0 1-6.9-5.9l1 .6c-1.8-.3-3.5-.7-5.3-1.2l-2.6-.9-2.5-1.3c-1.6-.9-3.1-2-4.4-3.2l-1.9-2c-.6-.7-1.2-1.4-1.7-2.3l1.3.7-3.5.3-1.8.3-2.1.3a25.2 25.2 0 0 1-15.1-4.9 41.5 41.5 0 0 1-6-5.1l1.3.4-8 1.1a33.8 33.8 0 0 1-23.8-6.7l1.1.3a29.2 29.2 0 0 1-24.1-8.3c-1-1-2-2.1-2.9-3.3-.9-1.2-1.6-2.5-2.2-3.9l1.8.7a45.5 45.5 0 0 1-27.3 1zM722 395l-1.9-4.4-1-2.2-.5-1.1-.4-1.1-1.5-4.6-.8-2.3-.6-2.3c-.8-3.1-1.7-6.3-2.3-9.4l-1-4.7-.8-4.8c-2.2-12.7-3.6-25.5-5.6-38.2-2-12.7-4.3-25.3-8-37.5a172.3 172.3 0 0 0-14.7-35.2l2.6-1.5a166.2 166.2 0 0 1 15 35.9c3.6 12.5 6 25.2 7.8 38 1.8 12.8 3.1 25.6 5.1 38.3l1.6 9.5c.5 3.2 1.3 6.3 2 9.4l.5 2.3.6 2.3 1.3 4.6c.9 3.1 2 6.1 3 9.1l-.4-.1z"/>
    </g>
    <path stroke-width="3" stroke-linejoin="round" d="M379.8 259.4a29.6 29.6 0 0 1-22.5 8.1c-4 5.6-13.5 8.4-21 7 0 0-5.5 5.4-11.3 6.3-4.5.8-9.2.5-13.7-.3a30 30 0 0 1-25.8 5.5 36 36 0 0 1-23.9 12.6c0 4.6-8.7 13.7-16.3 15.5-4.3 1-8.1-.4-8.1-.4.8 4.2-3.2 9.7-6.2 12.9-3 3.2-5.8 4.8-9.9 6.7-4.5 2.1-8.8 1.4-8.8 1.4-.7 4.7-7.7 10.8-12.4 12.7-8.2 3.4-10.6 2.3-10.6 2.3-3.3 6.9-13.5 13.9-21.6 13.2-.4 4.4-5.8 9.4-9.9 11.6-4.1 2.2-8 3.1-12.8 3.6.4 2.8-3.6 5.4-5.4 7.4a27.6 27.6 0 0 1-11.3 5.4c-5.5 1.2-11.5-.1-11.5-.1s-1.4 5.6-6.1 10.2c-4.1 4-10.7 10.5-16.6 6.1-2.6-2-3.8-5.4-3.8-16.9 0-12 1.6-30.9 4.1-43.9 14.3-78.7 27.1-124 66.2-162.3 24.2-23.8 70.2-46.4 87.4-50.9 33.3-8.5 99.4 3.8 120.5-2.2"/>
    <path fill="none" stroke-width="3" d="M137 246.1c11.7-23.5 29.3-45.9 43.1-56.3 16.4-9.2 22.5-18.4 37-23.4 16.1-.6 32.6-16.6 46.9-17.9 11.1 1.8 30.7 8.2 44.3 1.6 20.3 2.4 40.5 7.8 57.7-2.5"/>
    <g stroke="none" fill="#000">
      <path d="M352.7 261.6a119 119 0 0 0 4.9-18.4l.8-4.7.7-4.7c.5-3.1.8-6.3 1.1-9.4l.4-4.7.3-4.7.2-4.7v-4.8c-.1-6.3-.5-12.7-1.8-19 2.5 6 3.6 12.4 4.1 18.9l.3 4.8v4.8l-.2 4.8-.4 4.8c-.7 6.4-1.7 12.8-3.4 19.1a64.1 64.1 0 0 1-7 17.9zM329.7 264.6a119 119 0 0 0 4.9-18.4l.8-4.7.7-4.7c.5-3.1.8-6.3 1.1-9.4l.4-4.7.3-4.7.2-4.7v-4.8c-.1-6.3-.5-12.7-1.8-19 2.5 6 3.6 12.4 4.1 18.9l.3 4.8v4.8l-.2 4.8-.4 4.8c-.7 6.4-1.7 12.8-3.4 19.1a64.1 64.1 0 0 1-7 17.9zM304.7 270.6a119 119 0 0 0 4.9-18.4l.8-4.7.7-4.7c.5-3.1.8-6.3 1.1-9.4l.4-4.7.3-4.7.2-4.7v-4.8c-.1-6.3-.5-12.7-1.8-19a60.3 60.3 0 0 1 4.1 18.9l.3 4.8v4.8l-.2 4.8-.4 4.8c-.7 6.4-1.7 12.8-3.4 19.1a64.1 64.1 0 0 1-7 17.9zM135.3 365.8c2.7-6.8 4.4-13.8 5.8-20.9.3-1.8.7-3.5.9-5.3a197.5 197.5 0 0 0 1.8-16.2l.3-5.4.1-5.4v-5.4l-.1-2.7-.1-2.7a97.3 97.3 0 0 0-3.3-21.4 67.3 67.3 0 0 1 6.2 26.7l.2 5.5-.1 5.5-.3 5.5c-.6 7.3-1.6 14.6-3.4 21.7a74.1 74.1 0 0 1-8 20.5zM160.1 355.2c2.1-7 3.2-14.2 3.9-21.3l.4-5.4.3-5.4c.1-3.6.2-7.2.1-10.8l-.2-5.4-.3-5.4-.5-5.4-.3-2.7-.3-2.7c-1.1-7.1-2.6-14.2-5.2-21 3.8 6.3 6 13.4 7.5 20.6l1 5.4.7 5.5.4 5.5.2 5.5c.1 7.3-.3 14.7-1.5 22a77 77 0 0 1-6.2 21zM184.5 338.2c1.4-7.2 1.7-14.4 1.7-21.6l-.1-5.4-.3-5.4a197 197 0 0 0-1-10.8l-.7-5.4-.9-5.3-1-5.3-.6-2.6-.6-2.6c-1.8-7-4-13.9-7.3-20.4a65.5 65.5 0 0 1 9.6 19.7c.5 1.8 1.1 3.5 1.5 5.3l1.3 5.4 1 5.4.8 5.5c.8 7.3 1.2 14.7.8 22a83.6 83.6 0 0 1-4.2 21.5zM205.5 327.2c1.4-7.2 1.7-14.4 1.7-21.6l-.1-5.4-.3-5.4a197 197 0 0 0-1-10.8l-.7-5.4-.9-5.3-1-5.3-.6-2.6-.6-2.6c-1.8-7-4-13.9-7.3-20.4a65.5 65.5 0 0 1 9.6 19.7c.5 1.8 1.1 3.5 1.5 5.3l1.3 5.4 1 5.4.8 5.5c.8 7.3 1.2 14.7.8 22a83.6 83.6 0 0 1-4.2 21.5zM226.4 304.1c1.3-6.3 1.8-12.6 2.1-19l.1-4.8v-4.8c0-3.2-.1-6.3-.3-9.5l-.3-4.7-.4-4.7-.6-4.7-.7-4.7c-1-6.3-2.4-12.5-4.6-18.5a61.6 61.6 0 0 1 6.9 18l1 4.7.8 4.8.5 4.8.4 4.8c.3 6.5.2 12.9-.5 19.4a67.6 67.6 0 0 1-4.4 18.9zM253.4 294.1c1.3-6.3 1.8-12.6 2.1-19l.1-4.8v-4.8c0-3.2-.1-6.3-.3-9.5l-.3-4.7-.4-4.7-.6-4.7-.7-4.7c-1-6.3-2.4-12.5-4.6-18.5a61.6 61.6 0 0 1 6.9 18l1 4.7.8 4.8.5 4.8.4 4.8c.3 6.5.2 12.9-.5 19.4a67.6 67.6 0 0 1-4.4 18.9zM278.5 278.9a111 111 0 0 0 3.5-18.8l.5-4.7.4-4.7.4-9.5.1-4.8-.1-4.8-.2-4.7-.3-4.7c-.6-6.3-1.4-12.6-3.2-18.8a61.8 61.8 0 0 1 5.5 18.5l.6 4.8.4 4.8.2 4.8v4.8a125 125 0 0 1-1.9 19.3 65.6 65.6 0 0 1-5.9 18.5zM115.7 389.6c1.3-1.3 2.4-2.9 3.4-4.5 1-1.7 1.8-3.5 2.6-5.3l2.2-5.6a53.6 53.6 0 0 0 3.4-17.4l.1-6-.1-3-.3-2.9v-.1l.1-.8a52 52 0 0 0 4.7-14.1 126.8 126.8 0 0 0 1.7-30.1c-.3-5-.9-10.1-2.3-15l.3-.1c2 4.7 3 9.8 3.7 14.9.6 5.1.8 10.2.6 15.4-.2 5.1-.6 10.3-1.6 15.4s-2.3 10.1-4.7 14.9l.1-.9.4 3.2.2 3.1v6.2a65 65 0 0 1-3.5 18.3l-2.2 5.8a41.8 41.8 0 0 1-6.7 10.8l-2.1-2.2zM143.7 377.2a35 35 0 0 0 2.7-5.1l2.3-5.5c1.4-3.7 2.6-7.6 3.3-11.4.3-1.8.4-3.9.6-5.9l.1-6-.1-6-.2-3-.1-1.5-.1-.7-.1-.3v-.2l-.1-.5v-.4a85.9 85.9 0 0 0 2.5-37.9c-.7-4.2-2-8.3-3.9-12.2l.3-.2c2.5 3.6 4.1 7.7 5.2 12 1.1 4.3 1.6 8.6 1.7 13 .2 8.7-.8 17.5-3.2 26v-.9l.2.6.1.4.1.8.2 1.6.2 3.1.2 6.1-.1 6.1c-.1 2-.2 4.1-.5 6.2-.7 4.2-2 8.1-3.5 11.9a69.2 69.2 0 0 1-5.4 11.3l-2.4-1.4z"/>
      <path d="M166.4 362c2-2.9 3.2-6.5 4.2-10.1 1-3.6 1.6-7.3 1.9-11 .3-3.7.2-7.5.1-11.3l-.4-5.7-.3-2.8-.2-1.4-.1-.6-.1-.3v-.2l-.1-.4v-.5a82.1 82.1 0 0 0 .6-37.8 50 50 0 0 0-4.4-11.9l.3-.2c2.7 3.4 4.5 7.5 5.8 11.7 1.3 4.2 2 8.5 2.3 12.9.7 8.7 0 17.5-1.9 26l-.1-.9.2.5.1.4.2.8.3 1.5.4 2.9a113.4 113.4 0 0 1 .6 17.5c-.3 3.9-1 7.8-2 11.6s-2.3 7.6-4.6 11l-2.8-1.7zM188 348.8c1.8-2.6 3-5.8 3.8-9a69.5 69.5 0 0 0 .9-25.3l-.3-2.5-.2-1.2-.2-1v-.1a52 52 0 0 0 2.2-13.8 74 74 0 0 0-.4-13.3c-.5-4.4-1.4-8.8-2.5-13.1a65.8 65.8 0 0 0-4.6-12.6l.3-.2c2.6 3.7 4.5 8 6 12.3a75.6 75.6 0 0 1 1.7 40.7v-.9a11.3 11.3 0 0 1 .6 2.8l.4 2.6a91.4 91.4 0 0 1 .7 15.8c-.2 3.6-.7 7.1-1.6 10.5-.9 3.4-2.2 6.9-4.3 10l-2.5-1.7zM211 333.8c1.9-2.8 3.1-6.1 4-9.5.8-3.4 1.3-7 1.5-10.5.1-3.5-.2-7.1-.5-10.7a84.2 84.2 0 0 0-1.3-7.9l-.3-1.3-.3-1.1v-.1a65.4 65.4 0 0 0 2.3-26.1c-.4-4.3-1.2-8.5-2.2-12.6a64.8 64.8 0 0 0-4.4-12.1l.3-.2a46 46 0 0 1 5.7 11.8 68.8 68.8 0 0 1 1 39.2v-.9l.4 1.5.3 1.4.5 2.7.8 5.5c.4 3.7.8 7.3.7 11.1-.1 3.8-.6 7.5-1.5 11.1-.9 3.6-2.2 7.2-4.4 10.5l-2.6-1.8zM236 312.8c1.8-2.6 3-5.8 3.8-9a65.9 65.9 0 0 0 1-25.2l-.3-2.5-.2-1.2-.2-1v-.1a60 60 0 0 0 1.8-26.1 76.1 76.1 0 0 0-7.2-24.7l.3-.2c2.5 3.6 4.4 7.6 5.9 11.7s2.5 8.5 3.1 12.8c.6 4.4.9 8.8.7 13.2-.2 4.4-.8 8.9-2 13.2v-.9a11.3 11.3 0 0 1 .6 2.8l.4 2.6a91.4 91.4 0 0 1 .7 15.8c-.2 3.6-.7 7.1-1.6 10.5-.9 3.5-2.2 6.9-4.3 10l-2.5-1.7zM261 297.5c1.6-2 2.7-4.5 3.6-7.1a53.3 53.3 0 0 0 2.8-16.4v-4.2l-.1-2.1-.2-1.9v-.1a1 1 0 0 1 .1-.8 43 43 0 0 0 3.1-12.7 73.9 73.9 0 0 0-2.4-26.5c-.9-4.4-2-8.8-3.1-13.2l.3-.1a102.9 102.9 0 0 1 7.3 26.3c.6 4.5.8 9.2.5 13.8-.3 4.6-1.3 9.2-3 13.6v-.9l.4 2.4.2 2.2.1 4.4-.2 4.4c-.1 1.5-.4 3-.6 4.4-.5 2.8-1.1 5.7-2.1 8.5-.9 2.8-2.2 5.6-4.2 8l-2.5-2zM356.3 266.4c1.9-1.9 3.4-4.2 4.7-6.7a46 46 0 0 0 4.7-15.9l.3-4.2.1-2.1-.1-1.9v-.1l.1-.8c2-3.9 3.4-8.1 4.2-12.4.8-4.3 1.1-8.8 1-13.3-.1-4.5-.6-8.9-1.1-13.4l-2-13.4.3-.1a116 116 0 0 1 5 26.8 71 71 0 0 1-.7 13.8c-.7 4.6-2.1 9.1-4.2 13.3l.1-.9c.2 1 .1 1.6.2 2.4v2.2c0 1.5-.1 2.9-.3 4.4a69.6 69.6 0 0 1-1.6 8.8c-.9 2.8-2 5.6-3.3 8.3a31 31 0 0 1-5.2 7.4l-2.2-2.2zM335.3 273.4c1.9-1.9 3.4-4.2 4.7-6.7a46 46 0 0 0 4.7-15.9l.3-4.2.1-2.1-.1-1.9v-.1l.1-.8c2-3.9 3.4-8.1 4.2-12.4.8-4.3 1.1-8.8 1-13.3-.1-4.5-.6-8.9-1.1-13.4l-2-13.4.3-.1a116 116 0 0 1 5 26.8 71 71 0 0 1-.7 13.8c-.7 4.6-2.1 9.1-4.2 13.3l.1-.9c.2 1 .1 1.6.2 2.4v2.2c0 1.5-.1 2.9-.3 4.4a69.6 69.6 0 0 1-1.6 8.8c-.9 2.8-2 5.6-3.3 8.3a31 31 0 0 1-5.2 7.4l-2.2-2.2zM310.3 279.4c1.9-1.9 3.4-4.2 4.7-6.7a46 46 0 0 0 4.7-15.9l.3-4.2.1-2.1-.1-1.9v-.1l.1-.8c2-3.9 3.4-8.1 4.2-12.4.8-4.3 1.1-8.8 1-13.3-.1-4.5-.6-8.9-1.1-13.4l-2-13.4.3-.1a116 116 0 0 1 5 26.8 71 71 0 0 1-.7 13.8c-.7 4.6-2.1 9.1-4.2 13.3l.1-.9c.2 1 .1 1.6.2 2.4v2.2c0 1.5-.1 2.9-.3 4.4a69.6 69.6 0 0 1-1.6 8.8c-.9 2.8-2 5.6-3.3 8.3a31 31 0 0 1-5.2 7.4l-2.2-2.2zM284.5 284.9c1.9-1.9 3.4-4.2 4.7-6.7a46 46 0 0 0 4.7-15.9l.3-4.2.1-2.1-.1-1.9v-.1l.1-.8c2-3.9 3.4-8.1 4.2-12.4.8-4.3 1.1-8.8 1-13.3-.1-4.5-.6-8.9-1.1-13.4l-2-13.4.3-.1a116 116 0 0 1 5 26.8 71 71 0 0 1-.7 13.8c-.7 4.6-2.1 9.1-4.2 13.3l.1-.9c.2 1 .1 1.6.2 2.4v2.2c0 1.5-.1 2.9-.3 4.4a69.6 69.6 0 0 1-1.6 8.8c-.9 2.8-2 5.6-3.3 8.3a31 31 0 0 1-5.2 7.4l-2.2-2.2zM163.5 257a68.6 68.6 0 0 0 2-21.8c.7 3.6 1.2 7.4 1.4 11.1.2 3.8.1 7.5-.5 11.4l-2.9-.7zM180.7 244.5c1-3.3 1.4-6.9 1.5-10.5.1-3.6 0-7.2-.3-10.8.7 3.6 1.4 7.1 1.8 10.8.4 3.6.5 7.4 0 11.2l-3-.7zM198.5 229.2c1.2-3.6 2.1-7.3 2.1-11.1s-.8-7.7-.9-11.6c.7 3.8 1.9 7.5 2.4 11.5a30.1 30.1 0 0 1-.7 12l-2.9-.8zM215.6 220.5a23 23 0 0 0 2.7-6.9 38.4 38.4 0 0 0-2.7-22.7 31 31 0 0 1 3.2 7.2 36.6 36.6 0 0 1 1.8 15.9c-.3 2.7-1 5.4-2.3 8l-2.7-1.5zM233 210.3a34.7 34.7 0 0 0 5-20.6c-.2-2.4-.8-4.8-1.8-7.1 1.3 2.1 2.1 4.5 2.6 6.9a36.3 36.3 0 0 1-3.2 22.2l-2.6-1.4zM260.4 201.8c2.2-4.4 3.6-9.2 3.8-14.2a51 51 0 0 0-1.9-15c1.8 4.8 3.2 9.8 3.4 15a37 37 0 0 1-2.6 15.4l-2.7-1.2zM318.7 182.1a47.6 47.6 0 0 0 2.6-23.1 49.7 49.7 0 0 1 .3 23.9l-2.9-.8zM291.1 196.4a34.3 34.3 0 0 0 6-17.1c.5-6.2-.3-12.5-1.8-18.6 2 6 3.3 12.2 3.3 18.6a39.5 39.5 0 0 1-4.9 18.6l-2.6-1.5zM330.7 179l2-5.2c.6-1.7 1-3.5 1.4-5.3.4-1.8.6-3.6.8-5.4.2-1.8.2-3.7.2-5.6.8 1.8 1.2 3.7 1.3 5.6a22.7 22.7 0 0 1-2.3 11.3c-.9 1.7-2 3.3-3.4 4.6zM225.9 207.3l-.3-4.4v-4.3l.2-4.3c.1-1.4.2-2.9.5-4.4a17 17 0 0 1 1.1 4.3 32.5 32.5 0 0 1-.1 8.8 27 27 0 0 1-1.4 4.3zM173.1 248.2l-.4-5-.1-4.9v-4.9c0-1.6 0-3.3.2-5 .7 1.6 1.1 3.2 1.4 4.8a40.3 40.3 0 0 1 .2 10c-.4 1.8-.7 3.5-1.3 5zM192.5 231.8c-.4-1.4-.6-2.8-.7-4.1l-.4-4-.5-3.9-.8-4c1 1 1.8 2.3 2.3 3.6.5 1.3.9 2.7 1 4.2.2 1.4.1 2.8 0 4.2-.2 1.3-.5 2.7-.9 4zM210.3 217.9l-.7-4.3-.6-4.2-.7-4.2-.7-4.3a18.7 18.7 0 0 1 3.4 8.2c.2 1.5.3 3 .2 4.4-.1 1.5-.4 3-.9 4.4zM246.7 202.1l.5-6.6c.1-2.2.3-4.3.3-6.5l.1-6.5-.1-6.6c.8 2.1 1.3 4.3 1.6 6.5a36 36 0 0 1-2.4 19.7zM277.3 191.3l.6-7.9.5-7.8.3-7.8.2-7.9c.7 2.6 1.1 5.2 1.3 7.8.2 2.6.2 5.3.1 8-.2 2.6-.4 5.3-1 7.9-.4 2.7-1 5.3-2 7.7zM303.6 184.7l1.7-5.7 1.3-5.7.8-5.8.4-5.9a25 25 0 0 1-4.2 23.1z"/>
      <path d="M346.7 184.7a40.7 40.7 0 0 1-13.5 1.7 40 40 0 0 1-13.6-2.6l1.8-.7c-.6 1.4-1.3 2.7-2.2 3.9a31 31 0 0 1-10 8.4c-5.2 2.7-11.2 4-17 3.2l1.1-.3a29.8 29.8 0 0 1-15.4 6.5c-2.8.4-5.6.4-8.4.2l-8-1.1 1.3-.4a57.8 57.8 0 0 1-6 5.1 25.2 25.2 0 0 1-15.1 4.9l-2.1-.3-1.8-.3-3.5-.3 1.3-.7a23 23 0 0 1-1.7 2.3l-1.9 2a32.8 32.8 0 0 1-6.9 4.5 45.4 45.4 0 0 1-7.9 2.1l1-.6a20.7 20.7 0 0 1-6.9 5.9 26.3 26.3 0 0 1-8.5 2.7l-1.1.1-.9.1h.1l.1-.1-.2.6a25.2 25.2 0 0 1-7.1 11.2c-1.2 1-2.4 1.9-3.8 2.6-1.4.7-2.9 1.2-4.6 1.3l-1.3-.1-1.1-.2h-.1l-.1.2-.4.8-.5 1-1.1 1.9a17 17 0 0 1-6.6 6.4c-3 1.4-5.9 1.3-8.4 2l.9-1a26.5 26.5 0 0 1-16.9 18.8c3.9-1.8 7.2-4.6 9.7-8 2.5-3.3 4.2-7.2 4.7-11.2.1-.5.4-.8.8-1h.1l4.2-1.2a33 33 0 0 0 3.7-1c2.1-1 3.9-3.1 5.4-5.3l1-1.7.5-.9.5-1.1c.3-.4.6-.9 1.3-1.3.7-.4 1.5-.3 2-.3l1 .2h.8c2.2-.1 4.7-1.5 6.6-3.1a21.2 21.2 0 0 0 6.2-10l.5-1.3.8-.9 1-.4 1.2-.1 1-.1a20 20 0 0 0 13.4-7.4c.2-.3.6-.5 1-.6 1.6-.3 3.3-.6 4.8-1.1a15.5 15.5 0 0 0 4.4-1.9 22 22 0 0 0 5.6-4.6l1.4-1.8v-.1c.3-.4.8-.7 1.3-.7 1.4 0 2.7.2 4 .4l1.9.4 1.7.2c2.3.1 4.6-.4 6.9-1.1 2.2-.7 4.3-1.9 6.3-3.3s3.9-3 5.6-4.7c.3-.3.8-.5 1.2-.4l7.9 1.1c2.5.2 5.1.2 7.7-.1a28 28 0 0 0 13.9-5.8c.3-.3.7-.4 1.1-.3a26.3 26.3 0 0 0 26.3-13.8l.1-.1c.3-.6 1.1-.9 1.7-.6 3.9 1.9 8.2 3 12.6 3.6 4.2.5 8.8.4 13.2-.3zM98.9 394.8l3-9.1 1.3-4.6.6-2.3.5-2.3c.7-3.1 1.5-6.2 2-9.4l1.6-9.5c2-12.7 3.3-25.5 5.1-38.3 1.8-12.8 4.2-25.5 7.8-38 3.6-12.5 8.6-24.5 15-35.9l2.6 1.5a167 167 0 0 0-14.7 35.2 281 281 0 0 0-8 37.5c-2 12.7-3.5 25.5-5.6 38.2l-.8 4.8-1 4.7c-.6 3.2-1.5 6.3-2.3 9.4l-.6 2.3-.8 2.3-1.5 4.6-.4 1.1-.5 1.1-1 2.2-1.9 4.4-.4.1z"/>
    </g>
    <g class="secondary" stroke-width="3">
      <path stroke-linejoin="round" d="M395.1 296.5c.3 1.7 3 7.4 1.4 12.9a14 14 0 0 0-.6 2.8l-.3 2.4c-.3 1.1-.5 2.3-.5 3.4 0 1.2.2 2.3.8 3.4l.9 1.6c.4.8.5 1.7.4 2.6 0 3.3 3.3 8.2 3.9 9 0 0 2.2.5 3.1 1.5.8.9 1.5 2.5 1.5 3.7 0 .5-.1 1.2-.5 1.5.6.3 1.4 3.5-1 6.6-1.9 2.1-4 2.7-4.7 2.2.9-.8 1.5-3.8 1.4-4.9-.1-1.1-1.2-2.3-2.2-2.6-1.1-.3-2.7-3.1-2.5-4.8-.7-.3-1.7-1.2-2.2-1.6-1.2-.9-2-2.2-2.8-3.4l-.5-.9c-.2 2.3.4 4.5 1.5 6.5.6.3.8 1.2.7 1.9 0 .7-.1 1.5-.6 1.9.2.7.1 5.6 3.8 7.8-4 2.5-9.4-3.6-7.8-5.4 0 .3-2.4-.8-2.7-1a4.3 4.3 0 0 1-1.3-2.6l-.2-2.3c-.2-1.2-.9-2.3-1.4-3.5a15.9 15.9 0 0 1-.9-10.3c.9-4 2.8-7.7 4.3-11.6s3.4-12.8.9-18.6"/>
      <path d="M392 341.9a2 2 0 0 0-1.1.1l-1 .6c-.6.5-1.2 1-1.4 1.7M398.5 342.4c1.9-1.8 5.7-2 6.5-1.3"/>
      <g stroke="none" fill="#000">
        <path d="m400.9 336-1.9-.7-1-.2c-.3 0-.7-.1-1 .1l.8-.8 1-.6 2.2-.8-.1 3zM382.9 337.5c.5-.3.9-.4 1.3-.5l1.2-.2 1.2.1c.4.1.8.1 1.1.3-.4 0-.6.2-.9.4l-.8.6-.6.7a1 1 0 0 0-.3.7l-2.2-2.1z"/>
      </g>
      <path stroke-linejoin="round" d="M427.4 296.5c-.3 1.7-3 7.4-1.4 12.9.3.9.5 1.9.6 2.8l.3 2.4c.3 1.1.5 2.3.5 3.4 0 1.2-.2 2.3-.8 3.4l-.9 1.6c-.4.8-.5 1.7-.4 2.6 0 3.3-3.3 8.2-3.9 9 0 0-2.2.5-3.1 1.5-.8.9-1.5 2.5-1.5 3.7 0 .5.1 1.2.5 1.5-.6.3-1.4 3.5 1 6.6 1.9 2.1 4 2.7 4.7 2.2-.9-.8-1.5-3.8-1.4-4.9.1-1.1 1.2-2.3 2.2-2.6 1.1-.3 2.7-3.1 2.5-4.8.7-.3 1.7-1.2 2.2-1.6 1.2-.9 2-2.2 2.8-3.4l.5-.9c.2 2.3-.4 4.5-1.5 6.5-.6.3-.8 1.2-.7 1.9 0 .7.1 1.5.6 1.9-.2.7-.1 5.6-3.8 7.8 4 2.5 9.4-3.6 7.8-5.4 0 .3 2.4-.8 2.7-1 .7-.6 1.2-1.7 1.3-2.6l.2-2.3c.2-1.2.9-2.3 1.4-3.5 1.5-3.3 1.7-6.8.9-10.3-.9-4-2.8-7.7-4.3-11.6s-3.4-12.8-.9-18.6"/>
      <path d="M430.5 341.9c.4-.1.8 0 1.1.1l1 .6c.6.5 1.2 1 1.4 1.7M424 342.4c-1.9-1.8-5.7-2-6.5-1.3"/>
      <g stroke="none" fill="#000">
        <path d="m421.6 333 2.2.8 1 .6c.3.2.7.5.8.8-.3-.2-.7-.1-1-.1l-1 .2-1.9.7-.1-3zM437.4 339.6l-.3-.7-.6-.7-.8-.6-.9-.4a2 2 0 0 1 1.1-.3l1.2-.1 1.2.2c.4.1.8.2 1.3.5l-2.2 2.1zM389.3 332.6c-.4-.9-.8-1.8-1-2.7-.2-.9-.3-1.9-.3-2.9.1-1.9.6-3.5.5-5.3.6 1.7.6 3.6.9 5.1a9.3 9.3 0 0 0 2.3 4.1l-2.4 1.7z"/>
      </g>
    </g>
    <path stroke-width="3" stroke-linejoin="round" d="M359.6 145.1c-.8-6.7-3.6-15.5-1.6-29.7 1.1-8 2.2-11.4 7.2-19.9-8.4-7.3-8.9-20.6-15.7-28.3.8-.5 1.8-1 2.7-1 11.7 0 22.1 11.6 29.5 15.1 3 1.4 7.5 3 10.6 2.2l3.9-1.2a43 43 0 0 1 15-1.8h.2a43 43 0 0 1 15 1.8l3.9 1.2c3.2.8 7.6-.8 10.6-2.2 7.4-3.5 17.8-15.1 29.5-15.1.9 0 1.9.6 2.7 1-6.7 7.7-7.2 21-15.7 28.3 5 8.5 6.1 12 7.2 19.9 1.9 14.2-.9 23-1.6 29.7a41 41 0 0 0 .7 16c4.2 15.4 7.4 34.2 4.8 50.2-7.7 47.8-20.6 62.6-22.3 72.5a74.2 74.2 0 0 0-1.3 17.6c-2.8.3-5.7-.7-7.7-2.5l-.9 6.3c-2.5-1.3-4.9-3-7.1-4.9l-2.1 4.3c-.5 1.1-1.4 2.4-2.6 2.3-.9-.1-1.6-1-2.3-1.6-.7-.6-2-.9-2.5-.1-.2.3-.1.7-.3 1.1-.4.7-1.6.4-2.2-.2-4.8-4.2-3.5-13.1-4.2-15.2h-3.3c-.7 2.1.6 11-4.2 15.2-.6.6-1.8.9-2.2.2-.2-.3-.2-.7-.3-1.1-.4-.8-1.7-.6-2.5.1-.7.6-1.4 1.5-2.3 1.6-1.2.1-2-1.2-2.6-2.3l-2.1-4.3a42.7 42.7 0 0 1-7.1 4.9l-.9-6.3a10 10 0 0 1-7.7 2.5c.3-5.9-.1-11.8-1.3-17.6-1.7-9.8-14.7-24.7-22.3-72.5-2.6-16 .6-34.8 4.8-50.2a43 43 0 0 0 .6-16z"/>
    <g>
      <g stroke="none" fill="#000">
        <path d="M414.9 165.5c.6-.6.8-1.4.7-2.1l-.1-1.2c0-.5 0-1 .4-1.7l.8-.9.9-.4.9-.3-.2.1c-.1.1-.1.1 0 0 .1-.2 0-.8.4-1.7.2-.4.6-.8 1-1l1.1-.3h1.3l.8-.1c.4-.1.9-.3 1.6-.3 1.2 0 2.1.5 2.8.9.7.5 1.5.9 2.1 1.5-.9.1-1.7 0-2.6-.1-.8-.1-1.6-.2-2.1 0l-.8.4-1.5.5-1.2.1h-.1l.2-.2-.1.7c-.1.3-.2.7-.5 1.1-.3.4-.7.8-1.1.9-.8.3-1.2.2-1.5.2h-.3c-.1 0-.3.3-.4.7l-.4 1.2c-.3 1.1-1.2 2-2.1 2zM458.4 143.9c.9 2.4.8 5.3-.1 7.8l-.8 1.8c-.3.5-.4.9-.4 1.2l.2 1.5v2.3c-.1.8-.3 1.5-.7 2.3-.4.7-1 1.5-1.9 1.9-1 .4-1.8.4-2.2.5l-.4.1-.2.2a4 4 0 0 0-.4 1.5l-.2 1c-.1.3-.1.7-.4 1.2-.1.2-.5.6-.9.6l-.7-.1-.9-.3-1.8-.6 1.9-.2 1-.1.3-.1c-.1 0-.2.1-.2 0v-.7l-.1-.9c-.1-.6-.1-1.4.1-2.3.1-.5.4-.9.8-1.3s.9-.6 1.3-.7l1.5-.4c.4-.3.9-1.1 1-2.1v-1.5c-.1-.6-.2-1.3-.1-2.2.1-1 .6-1.8.9-2.3l1-1.5c1.3-1.7 2.1-4 2.4-6.6zM419.7 148.9c.7 0 1.1 0 1.4.2.3.1.5.3.7.6.1.2.2.5.1.9-.1.3-.2.7-.7 1.3-.7 0-1.1 0-1.4-.2-.3-.1-.5-.3-.7-.6-.1-.2-.2-.5-.1-.9s.3-.8.7-1.3zM416.9 122.7c-.1-1.3.2-2.7.8-3.9l.4-.9.5-.9 1.1-1.7c1.5-2.2 3.3-4.1 5.1-5.9 1.8-1.8 3.8-3.4 5.8-5s4-3 6-4.7c-.9 2.5-2.7 4.5-4.4 6.5l-5.3 5.5-5.4 5.2-.7.7-.6.7-.6.7-.6.7c-.9.8-1.5 1.8-2.1 3zM466.3 70.9a26.2 26.2 0 0 0-7.2 6l-6.2 7.2a106.5 106.5 0 0 1-10 10.5c-1.3 1-2.7 2-4.3 2.5 1.3-1 2.3-2.2 3.2-3.5l2.9-3.8c1.9-2.6 3.8-5.1 5.9-7.6a50.7 50.7 0 0 1 11-9.8c1.4-.8 3-1.4 4.7-1.5zM453.7 129c0-.7.1-1.1.3-1.4.2-.3.4-.5.7-.5.3-.1.6 0 .9.2.3.2.6.5.7 1.2l-.6 1.2c-.2.2-.3.4-.5.4l-.6-.2-.9-.9zM452.3 133.3c0-.7.2-1.1.5-1.4.3-.3.7-.4 1-.4.4 0 .7.2 1 .5.2.3.4.8.3 1.4l-1 .8c-.2.2-.3.2-.5.2l-.4-.3-.9-.8zM450.4 137.7c-.3-.6-.1-1.2.2-1.6.3-.4.7-.6 1.1-.7.4-.1.8 0 1.1.3.3.2.6.6.9 1.2l-.9 1.1-.6.4-.6-.2-1.2-.5zM448.8 141.1c.3-.6.7-1 1-1.2.4-.2.7-.4 1.1-.4.4 0 .8.1 1.1.3.4.2.7.6 1.1 1.2-.4.6-.8.9-1.1 1.1l-1 .3-1.1-.3c-.3-.1-.7-.4-1.1-1zM446.8 144.7l.8-.8.8-.2.8.2.8.8a3 3 0 0 1-.8.8l-.8.2-.8-.2a2 2 0 0 1-.8-.8zM445.6 148.1l.6-.7.4-.2.5.1.8.5c0 .5-.1.8-.3 1l-.7.4c-.3 0-.5 0-.8-.2a2 2 0 0 1-.5-.9zM442.3 151.2l1-.7.9-.1.9.3c.3.2.6.4.8.9l-1 .7-.9.1-.9-.3-.8-.9zM439.3 152.8a3 3 0 0 1 2.1-.2l.8.4c.3.2.5.4.8.9-.3.4-.7.6-1.1.7a2 2 0 0 1-1.1 0c-.3-.1-.7-.3-.9-.6-.3-.3-.6-.6-.6-1.2zM454.7 123.8l1.2-.4.6.1.2.5v1.3c-.5.5-.8.7-1.2.7-.3.1-.6 0-.8-.2-.2-.2-.4-.4-.4-.7.1-.3.1-.7.4-1.3zM454.8 118.2c.7-.1 1.2.1 1.6.2.4.2.7.5.9.8.2.3.3.7.3 1.1 0 .4-.1.9-.5 1.5-.7 0-1.2-.2-1.5-.4-.4-.2-.6-.4-.8-.7-.2-.3-.3-.6-.3-1-.1-.3 0-.8.3-1.5zM454.5 110.4c.7 0 1.2.1 1.6.3.4.2.7.4.9.7.2.3.3.7.3 1.1 0 .4-.1.9-.4 1.5-.7 0-1.2-.1-1.6-.3-.4-.2-.7-.4-.8-.7a2 2 0 0 1-.3-1.1c-.1-.4 0-.8.3-1.5zM452.1 105.5c.3-.6.8-.8 1.2-.9.4-.1.8 0 1.1.1.3.2.6.5.7.9.1.4.1.9-.2 1.5l-1.3.3-.6-.1c-.2-.1-.3-.2-.4-.5-.3-.3-.4-.7-.5-1.3zM446.7 103.1c0-.7.2-1.1.3-1.3.2-.3.4-.4.7-.5.3-.1.6 0 .8.2.3.2.6.5.8 1.1l-.6 1.2c-.2.2-.3.4-.5.4s-.4 0-.6-.2l-.9-.9zM427.7 143.8l1.4-.1.6.2.3.6.3 1.3c-.4.6-.9.8-1.3.8s-.9-.1-1.2-.3c-.3-.2-.5-.6-.6-1 0-.4.1-.9.5-1.5zM422.6 144.6c.8.1 1.3.3 1.7.6l1.1.8.7 1.1c.2.5.4 1 .5 1.8-.7.3-1.4.3-2 .1-.6-.2-1.1-.5-1.4-.9-.4-.4-.7-.9-.8-1.5-.1-.6-.1-1.3.2-2zM431.4 167.5c.4-.6.8-.8 1.1-1 .3-.2.7-.2 1-.2.3 0 .6.2.8.5.3.3.5.6.7 1.3-.4.6-.8.8-1.1 1-.3.2-.7.2-1 .2-.3-.1-.6-.2-.8-.5-.2-.3-.5-.6-.7-1.3zM424.9 169.2l1.4-.3.7.1c.2.1.4.2.5.5l.8 1.2c-.3.7-.7 1-1.2 1.1-.5.2-1 .1-1.4-.1-.4-.2-.8-.5-1-.9 0-.4-.1-.9.2-1.6zM419.3 170.5l1.3.1c.3.1.4.1.5.3l.1.6-.4 1.3c-.6.3-1 .4-1.4.3-.3-.1-.6-.2-.8-.5-.2-.2-.2-.5-.2-.9.3-.4.4-.8.9-1.2zM455.6 85.5a4 4 0 0 1-.2 2.2c-.2.6-.6 1.1-1 1.6s-.9.8-1.5 1.1c-.6.2-1.3.5-2.2.3l.5-2c.2-.5.6-1 1-1.4.4-.4.8-.8 1.4-1.1.6-.4 1.2-.6 2-.7zM458 82.1l1.2.9c.2.3.4.6.4.9 0 .3 0 .7-.2 1.1-.2.4-.5.8-1.1 1.1l-1.2-.9c-.2-.3-.4-.6-.4-.9 0-.3 0-.7.2-1.1.2-.4.5-.8 1.1-1.1zM458.1 96.8l-1.4.4-1.4.3c-.9.2-1.9.4-2.9.4l2.2-1.7 1-1 .9-1 1.6 2.6z"/>
      </g>
      <path class="secondary" stroke-width="2.5" d="M419.2 138.7c-.9-1.6-1.4-.8-4.3-9.3-.3-.8-.6-1.6-1.1-2.3s-1.3-1.2-2.6-1.2c-1.6 0-2.1.6-2.6 1.2s-.8 1.5-1.1 2.3c-2.8 8.5-3.4 7.7-4.3 9.3-.5.8-.2 1.4.3 2.1.5.8 1.5 2 2.3 3.4 3.8 6.5 2.4 15.6 5.2 15.6 2.8 0 1.4-9.1 5.2-15.6l2.3-3.4c.9-.8 1.2-1.3.7-2.1z"/>
      <g>
        <path fill="none" d="M426.9 131.8c-1.6-2.1-3.3-4.3-4.4-6.7-1.8-3.7-3.5-9 7.3-13.9"/>
        <g stroke="none" fill="#000">
          <path d="m429.4 110.2 6.7-2.8 3.3-1.6c1.1-.5 2.1-1.3 3.3-1.5-1.2.4-2.1 1.3-3.1 2l-3 2.1-6.4 3.8-.8-2zM434.5 138.9c-1.5-.9-3-1.8-4.4-2.9a44.8 44.8 0 0 1-4-3.6l1.6-1.2a29.4 29.4 0 0 0 6.8 7.7z"/>
        </g>
      </g>
      <g stroke="none" fill="#000">
        <path d="M408.2 139.1c.1 1.1.4 2 .6 3l.7 2.9c.5 2 .9 4 1.1 6.1-.7-.8-1.2-1.8-1.6-2.7l-1-3c-.2-1-.4-2.1-.4-3.1.1-1.1.1-2.2.6-3.2zM410.4 136.1l-.6-1.9-.3-.4.2.1h.2c-.2.1-.5.5-.6.9-.2.4-.3.9.1 1.6-.4.1-.8-.1-1.1-.5l-.4-.6-.1-.7c0-.4 0-.8.2-1.3.2-.4.5-.9.9-1.2l.4-.2.7-.1.6.2.2.1.2.2c.4.6.4 1 .4 1.5a4 4 0 0 1-1 2.3zM414.4 141.1c-.1-.1 0 0 0 0v.5l.1.7v1.3c0 .9-.1 1.8-.3 2.6-.2.9-.4 1.7-.8 2.5-.3.8-.8 1.6-1.4 2.3l.3-2.6.4-2.5.6-2.5.4-1.3.3-.6.2-.3.1-.2.1.1c0-.2 0-.1 0 0z"/>
        <path d="M412.3 136.1a3 3 0 0 1-1-2c0-.5 0-.9.4-1.5l.2-.2.2-.1.6-.2.7.1.4.2c.5.3.8.8.9 1.2.2.4.2.9.2 1.3l-.1.7a2 2 0 0 1-.4.6c-.3.3-.7.5-1.1.5.4-.7.3-1.2.1-1.6-.2-.5-.5-.9-.6-.9 0 0-.1 0 0 0h.2l.2-.1-.3.4c-.3.2-.4.8-.6 1.6z"/>
      </g>
      <path fill="#f6f6f6" stroke-width="2.5" d="M449.2 119.3c0 7.7-6.1 13.5-13.6 13.5-5.4 0-11.7-8.1-10-13.2 1.6-4.8 5.6-6.6 9.1-8.1 2.4-1 8.1-2.4 10.6-1 2.3 1.2 3.9 6.1 3.9 8.8z"/>
      <g stroke="none" fill="#000">
        <path d="M430.2 118.5c0 3.5 2.7 6.4 6.1 6.4 3.4 0 6.1-2.9 6.1-6.4s-3.5-6.4-6.9-6.4c-3.4 0-5.3 2.9-5.3 6.4z"/>
      </g>
      <g>
        <g stroke="none" fill="#000">
          <path d="M407.6 165.5c-.9 0-1.8-.9-2.1-1.8l-.4-1.2c-.1-.4-.3-.6-.4-.7h-.3l-1.5-.2a2 2 0 0 1-1.1-.9c-.3-.4-.4-.8-.5-1.1l-.1-.7.2.2h-.1l-1.2-.1-1.5-.5-.8-.4c-.5-.2-1.2-.1-2.1 0l-2.6.1 2.1-1.5c.7-.4 1.6-.9 2.8-.9.6 0 1.2.2 1.6.3.4.1.6.2.8.1h1.3l1.1.3c.4.2.8.6 1 1 .4.9.3 1.5.4 1.7 0 .1 0 .1 0 0l-.2-.1.9.3.9.4c.4.2.6.5.8.9.4.7.4 1.2.4 1.7l-.1 1.2c-.1.5.1 1.2.7 1.9zM364.1 143.9c.4 2.5 1.1 4.9 2.3 6.9l1 1.5c.4.5.8 1.3.9 2.3.1.9-.1 1.6-.1 2.2v1.5c.1.9.6 1.8 1 2.1.2.2.7.2 1.5.4.4.1.9.3 1.3.7.4.4.7.9.8 1.3.3.9.2 1.6.1 2.3l-.1.9v.7s-.1-.1-.2 0l.3.1 1 .1 1.9.2-1.8.6-.9.3-.7.1c-.4 0-.8-.4-.9-.6-.3-.5-.3-.8-.4-1.2l-.2-1c-.1-.6-.2-1.2-.4-1.5l-.2-.2-.4-.1c-.4-.1-1.2 0-2.2-.5a4.4 4.4 0 0 1-1.9-1.9c-.4-.7-.6-1.5-.7-2.3v-2.3l.2-1.5c0-.3-.1-.7-.4-1.2l-.8-1.8c-.8-2.8-.9-5.6 0-8.1zM402.8 148.9c.4.5.6.9.7 1.3.1.3 0 .6-.1.9-.1.2-.3.4-.7.6l-1.4.2c-.4-.5-.6-.9-.7-1.3-.1-.3 0-.6.1-.9.1-.2.3-.4.7-.6l1.4-.2zM405.6 122.7c-.6-1.2-1.2-2.2-2-3.2l-.6-.7-.6-.7-.6-.7-.7-.7c-1.7-1.8-3.6-3.5-5.4-5.2a69.4 69.4 0 0 1-5.3-5.5c-1.7-1.9-3.4-4-4.4-6.5 2 1.7 4 3.1 6 4.7s3.9 3.2 5.8 5c1.8 1.8 3.6 3.7 5.1 5.9l1.1 1.7.5.9.4.9c.4 1.4.7 2.8.7 4.1zM356.2 70.9c1.6.1 3.2.7 4.7 1.5s2.8 1.8 4.1 2.8c2.6 2.1 4.8 4.5 6.9 7 2.1 2.5 4 5 5.9 7.6l2.9 3.8c1 1.3 2 2.5 3.2 3.5-1.6-.5-3-1.5-4.3-2.5-1.3-1-2.5-2.2-3.6-3.3-2.3-2.3-4.3-4.8-6.4-7.2-2-2.4-4-4.9-6.2-7.2a26.2 26.2 0 0 0-7.2-6zM368.8 129l-1 .9c-.2.2-.4.2-.6.2-.2 0-.3-.1-.5-.4l-.6-1.2c.2-.6.5-1 .7-1.2.3-.2.6-.3.9-.2.3.1.5.2.7.5.3.3.4.7.4 1.4zM370.2 133.3l-.9 1-.4.3-.5-.2-1-.8c-.1-.7.1-1.1.3-1.4.3-.3.6-.5 1-.5s.7.1 1 .4c.3.1.5.5.5 1.2zM372.1 137.7c-.7.2-1 .4-1.2.6l-.6.2c-.2 0-.4-.1-.6-.4-.3-.2-.6-.5-.9-1.1.2-.6.5-1 .9-1.2a2 2 0 0 1 1.1-.3c.4.1.8.3 1.1.7.3.4.4.9.2 1.5zM373.7 141.1c-.4.6-.8.9-1.1 1.1-.4.2-.7.3-1.1.3a2 2 0 0 1-1-.3c-.4-.2-.7-.5-1.1-1.1.3-.6.7-1 1.1-1.2l1.1-.3c.4 0 .8.1 1.1.4.4.1.7.5 1 1.1zM375.7 144.7a3 3 0 0 1-.8.8l-.8.2-.8-.2a3 3 0 0 1-.8-.8l.8-.8.8-.2.8.2c.3.2.6.4.8.8zM376.9 148.1c-.1.4-.3.7-.6.8-.2.2-.5.2-.8.2-.3 0-.5-.2-.7-.4-.2-.2-.3-.5-.3-1l.8-.5.5-.1.4.2.7.8zM380.2 151.2c-.3.5-.5.7-.8.9l-.9.3-.9-.1a2 2 0 0 1-1-.7c.3-.5.5-.7.8-.9l.9-.3.9.1 1 .7zM383.2 152.8c-.1.5-.3.9-.5 1.1l-.9.6a2 2 0 0 1-1.1 0c-.4-.1-.7-.3-1.1-.7l.8-.9.8-.4.9-.1 1.1.4zM367.8 123.8c.3.6.4 1 .3 1.3 0 .3-.2.6-.4.7-.2.2-.5.2-.8.2-.3-.1-.7-.2-1.2-.7V124c0-.3.1-.4.2-.5l.6-.1c.3 0 .7.1 1.3.4zM367.7 118.2c.3.7.4 1.1.4 1.5 0 .4-.1.7-.3 1-.2.3-.4.5-.8.7l-1.5.4c-.4-.6-.5-1.1-.5-1.5 0-.4.1-.8.3-1.1.2-.3.5-.6.9-.8l1.5-.2zM368 110.4c.3.6.4 1.1.4 1.5 0 .4-.1.8-.3 1.1l-.8.7c-.4.2-.9.3-1.6.3-.3-.6-.4-1.1-.4-1.5 0-.4.1-.8.3-1.1.2-.3.5-.5.9-.7.3-.2.8-.3 1.5-.3zM370.4 105.5l-.4 1.3c-.1.3-.2.4-.4.5l-.6.1-1.3-.3c-.3-.6-.3-1.1-.2-1.5.1-.4.4-.7.7-.9.3-.2.7-.2 1.1-.1.4.1.8.3 1.1.9zM375.8 103.1c-.4.5-.7.7-1 .9l-.6.2c-.2 0-.4-.2-.5-.4l-.6-1.2c.2-.6.5-.9.8-1.1.3-.2.6-.3.8-.2.3.1.5.2.7.5.3.2.4.6.4 1.3zM399.9 144.6c.3.7.3 1.4.2 1.9-.1.6-.4 1.1-.8 1.5-.4.4-.9.7-1.4.9-.6.2-1.2.2-2-.1.1-.8.3-1.3.5-1.8l.7-1.1c.3-.3.6-.6 1.1-.8l1.7-.5zM391.1 167.5c-.2.7-.4 1-.7 1.3l-.8.5c-.3.1-.6 0-1-.2-.3-.2-.7-.4-1.1-1 .2-.7.4-1 .7-1.3l.8-.5c.3 0 .6 0 1 .2.3.2.7.4 1.1 1zM397.6 169.2c.3.7.2 1.2 0 1.6-.2.4-.6.8-1 .9-.4.2-.9.2-1.4.1-.5-.2-.9-.5-1.2-1.1l.8-1.2.5-.5.7-.1 1.6.3zM403.2 170.5c.5.4.7.8.8 1.2.1.3 0 .6-.2.9-.2.2-.4.4-.8.5-.4 0-.8 0-1.4-.3l-.4-1.3.1-.6.5-.3 1.4-.1zM366.9 85.5a6 6 0 0 1 3.4 1.8l1 1.4c.3.6.4 1.2.5 2-.9.2-1.6 0-2.2-.3-.6-.3-1.1-.7-1.5-1.1l-1-1.6c-.3-.7-.4-1.4-.2-2.2zM364.5 82.1c.6.3.9.7 1.1 1.1.2.4.2.8.2 1.1 0 .3-.2.6-.4.9-.3.3-.6.6-1.2.9-.6-.3-.9-.7-1.1-1.1-.2-.4-.2-.8-.2-1.1 0-.3.2-.6.4-.9.3-.3.6-.6 1.2-.9zM366 94.3l.9 1 1 1 2.2 1.7c-.9 0-1.9-.2-2.9-.4l-1.4-.3-1.4-.4 1.6-2.6z"/>
        </g>
        <g>
          <path fill="none" d="M395.6 131.8c1.6-2.1 3.3-4.3 4.4-6.7 1.8-3.7 3.5-9-7.3-13.9"/>
          <g stroke="none" fill="#000">
            <path d="M392.3 112a82.8 82.8 0 0 1-6.4-3.8l-3-2.1c-1-.7-1.9-1.6-3.1-2 1.2.2 2.3 1 3.3 1.5l3.3 1.6 6.7 2.8-.8 2zM388 138.9a32.3 32.3 0 0 0 6.8-7.8l1.6 1.2a34.2 34.2 0 0 1-8.4 6.6z"/>
          </g>
        </g>
        <path fill="#f6f6f6" stroke-width="2.5" d="M373.3 119.3c0 7.7 6.1 13.5 13.6 13.5 5.4 0 11.7-8.1 10-13.2-1.6-4.8-5.6-6.6-9.1-8.1-2.4-1-8.1-2.4-10.6-1-2.3 1.2-3.9 6.1-3.9 8.8z"/>
        <g stroke="none" fill="#000">
          <path d="M392.3 118.5c0 3.5-2.7 6.4-6.1 6.4-3.4 0-6.1-2.9-6.1-6.4s3.5-6.4 6.9-6.4c3.4 0 5.3 2.9 5.3 6.4z"/>
        </g>
      </g>
    </g>
    <g stroke="none" fill="#000">
      <path d="M395.8 287.3c1 .8 2.2 1 3.4 1.2l3.7.4c2.4.2 4.9.3 7.3.3 2.4 0 4.8-.2 7.3-.4l7.4-1.1a22.7 22.7 0 0 1-7 3.4 28.7 28.7 0 0 1-17.3-.5l-1.8-.7-1.7-1c-.6-.4-1-.9-1.3-1.6zM445.2 207.7a8 8 0 0 1 .5 6.2c-.3 1-.8 2-1.4 2.8-.6.9-1.4 1.6-2.5 2.1 0-1.2.1-2.2.3-3.1l.7-2.7.9-2.7 1.5-2.6zM453.9 193.2c.6.6.9 1.3 1.1 2a5 5 0 0 1-.1 2.1 4 4 0 0 1-1 1.8 4 4 0 0 1-2 1.2c-.2-.9-.2-1.5-.2-2.1 0-.6.1-1.2.3-1.7l.6-1.6 1.3-1.7zM444.5 231.7c.7.6 1 1.4 1.2 2.1.2.8.1 1.6-.1 2.3-.2.7-.6 1.4-1.1 2-.5.6-1.2 1-2.1 1.2a8 8 0 0 1 0-2.2l.3-1.8.6-1.7 1.2-1.9zM454.5 217.7c.7.6 1 1.4 1.2 2.1.2.8.1 1.6-.1 2.3-.2.7-.6 1.4-1.1 2-.5.6-1.2 1-2.1 1.2a8 8 0 0 1 0-2.2l.3-1.8.6-1.7 1.2-1.9zM450 246.4c.7 1 1.1 2 1.2 3.1.1 1.1.1 2.2-.2 3.3a8.3 8.3 0 0 1-3.9 5.2c0-1.2.2-2.2.4-3.1l.6-2.8.8-2.7c.2-1 .6-1.9 1.1-3zM434.1 253.5c.8.6 1.2 1.4 1.4 2.3.2.9.2 1.8 0 2.7-.2.9-.6 1.7-1.2 2.4s-1.4 1.2-2.3 1.4l.2-2.5.4-2 .6-2 .9-2.3zM420.8 269.6a7 7 0 0 1 .8 3.4 10.7 10.7 0 0 1-3.9 9.1c-.1-1.2 0-2.3.1-3.4s.3-2.1.6-3.1l.9-3c.4-.9.8-2 1.5-3zM426.2 238.7c.5 1.3.7 2.6.6 3.8a12.4 12.4 0 0 1-2.5 7.2c-.8 1-1.7 1.9-2.9 2.6.2-1.4.5-2.5.8-3.7l1.1-3.3 1.3-3.2a15 15 0 0 1 1.6-3.4zM428.5 213.2a8 8 0 0 1 .8 3.7 11 11 0 0 1-.7 3.6c-.5 1.2-1.1 2.2-1.9 3.1-.8.9-1.8 1.7-3.1 2.1.3-1.3.7-2.3 1.1-3.4l1.2-3 1.2-3 1.4-3.1zM427.6 193.5a5.1 5.1 0 0 1-3.6 3c-.7.2-1.5.3-2.3.2-.8-.1-1.6-.4-2.3-1l2-1.4a10.7 10.7 0 0 1 3.9-1c.6 0 1.4 0 2.3.2zM442.4 181.4a5 5 0 0 1 .1 3.2c-.3 1-.7 2-1.4 2.9-.7.8-1.5 1.5-2.5 2a5 5 0 0 1-3.2.6 27 27 0 0 1 1.7-2.5l1.6-2.1 1.6-2 2.1-2.1zM377.3 207.7c.6 1 1.1 1.9 1.4 2.8l.9 2.7.7 2.7c.2 1 .3 1.9.3 3.1-1.1-.5-1.8-1.3-2.5-2.1-.6-.9-1.1-1.8-1.4-2.8a11 11 0 0 1-.4-3.1c.1-1.2.4-2.3 1-3.3zM368.6 193.2c.6.6 1 1.2 1.3 1.7.3.5.5 1 .6 1.6l.3 1.7c0 .6 0 1.3-.2 2.1-.9-.2-1.5-.6-2-1.2a4.6 4.6 0 0 1-1.1-3.9c.2-.6.5-1.3 1.1-2zM378 231.7c.5.7.9 1.3 1.1 1.9.3.6.5 1.1.6 1.7.2.6.3 1.1.3 1.8a8 8 0 0 1 0 2.2c-.9-.2-1.6-.6-2.1-1.2s-.9-1.3-1.1-2c-.2-.7-.2-1.5-.1-2.3.2-.7.6-1.5 1.3-2.1zM368 217.7c.5.7.9 1.3 1.1 1.9.3.6.5 1.1.6 1.7.2.6.3 1.1.3 1.8a8 8 0 0 1 0 2.2c-.9-.2-1.6-.6-2.1-1.2s-.9-1.3-1.1-2c-.2-.7-.2-1.5-.1-2.3.2-.7.6-1.5 1.3-2.1zM372.5 246.4l1.1 3 .8 2.7.6 2.8.4 3.1a6 6 0 0 1-2.5-2.2c-.6-.9-1.1-1.9-1.4-3a9.2 9.2 0 0 1-.2-3.3c.2-1.1.5-2.1 1.2-3.1zM388.4 253.5l.9 2.3.6 2 .4 2 .2 2.5a4 4 0 0 1-2.3-1.4c-.6-.7-1-1.5-1.2-2.4-.2-.9-.2-1.8 0-2.7.2-.9.6-1.7 1.4-2.3zM401.7 269.6c.7 1 1.1 2.1 1.5 3.1l.9 3 .6 3.1c.1 1.1.2 2.2.1 3.4-1-.7-1.7-1.6-2.3-2.6-.6-1-1-2-1.3-3.1a9.6 9.6 0 0 1-.3-3.4c0-1.2.3-2.4.8-3.5zM411.3 252.2a7.8 7.8 0 0 1 1.6 4.4c.1.7 0 1.5-.1 2.2-.1.8-.3 1.5-.8 2.4a5.8 5.8 0 0 1-1.5-2.1c-.3-.7-.5-1.5-.6-2.3-.1-.8 0-1.6.2-2.3.2-.8.5-1.6 1.2-2.3zM396.3 238.7l1.7 3.4 1.3 3.2 1.1 3.3c.3 1.1.6 2.3.8 3.7a11.1 11.1 0 0 1-4.7-6c-.4-1.2-.7-2.5-.7-3.8-.2-1.3-.1-2.6.5-3.8zM394 213.2a30 30 0 0 1 1.5 3.2l1.2 3 1.2 3c.4 1 .8 2.1 1.1 3.4a8.1 8.1 0 0 1-3.1-2.1 10 10 0 0 1-2.6-6.7 7 7 0 0 1 .7-3.8zM394.9 193.5c.9-.2 1.7-.2 2.4-.2s1.3.2 2 .3l1.9.7c.6.3 1.3.7 2 1.4-.7.6-1.5.9-2.3 1-.8.1-1.6 0-2.3-.2-.7-.2-1.5-.5-2.1-1a4.6 4.6 0 0 1-1.6-2zM380.1 181.4l2 2.2 1.6 2 1.6 2.1 1.7 2.5a6 6 0 0 1-3.2-.6 7.1 7.1 0 0 1-3.9-4.9 6 6 0 0 1 .2-3.3z"/>
    </g>
  </g>
</svg>
