<svg xmlns="http://www.w3.org/2000/svg" fill="#d7374a" stroke="#000" viewBox="50 50 200 200">
  <metadata source="http://wappenwiki.org/images/5/56/Tagliavia.svg" license="https://creativecommons.org/licenses/by-nc-sa/3.0"/>
  <g id="palmTree" stroke-width="3" transform="translate(24.6 99) scale(0.093)">
    <g>
      <path d="M784.3-308.2s-2-22.6-25.6-45c9-1.4 16 3.8 16 3.8s-9-28.3-23.2-33.3c8.6-3.1 18.4 1 18.4 1s-11-22.2-25.2-33.6c15.3-1.1 54.9 22.5 70.9 91.6 12.5 51.8 4.9 78.6-.5 97.1-4.6 17.7-13 31.5-12.5 24.3.9-12.5-.1-26.6-5-38.5-5-9.5-8.5-21.9-26.1-41.2 12-.7 17.9 4.6 17.9 4.6-4.2-10-11.2-27.5-22.5-37.7 4 .1 11 1.2 17.4 7"/>
      <g stroke="none" fill="#000">
        <path d="M790-278.7c9.5 6.5 14.5 17.6 17.8 28.3 1.7 5.3-2-5-3.2-6.7a44.3 44.3 0 0 0-16-19l1.5-2.6zm-4.9-30.7a94.1 94.1 0 0 1 22.8 26.9 92.8 92.8 0 0 0-24.4-24.4l1.6-2.5zm-9.7-41.3a77.4 77.4 0 0 1 29.3 34.5 75.9 75.9 0 0 0-30.8-31.9l1.5-2.5zm-4.9-32.3a50.6 50.6 0 0 1 22.3 24.9 49.1 49.1 0 0 0-23.5-22.2l1.3-2.7z"/>
      </g>
    </g>
    <g>
      <g>
        <g>
          <path d="M832.3-308.2s1.9-22.6 25.5-45c-8.9-1.4-15.9 3.8-15.9 3.8s9-28.3 23.1-33.3c-8.5-3.1-18.4 1-18.4 1s11-22.2 25.3-33.6c-15.4-1.1-54.9 22.5-71 91.6-12.5 51.8-4.8 78.6.6 97.1 4.5 17.7 12.9 31.5 12.4 24.3-.8-12.5.1-26.6 5-38.5 5.1-9.5 8.5-21.9 26.2-41.2-12-.7-18 4.6-18 4.6 4.3-10 11.3-27.5 22.6-37.7a27 27 0 0 0-17.4 7"/>
          <g stroke="none" fill="#000">
            <path d="M827.9-276a50.3 50.3 0 0 0-18.7 24.8c-.8 2.1-1.6 4.2-.5.8 3.4-10.6 8.3-21.8 17.8-28.3l1.4 2.6zm5.2-31a92.6 92.6 0 0 0-24.4 24.5 94.3 94.3 0 0 1 22.7-27l1.7 2.6zm9.6-41a75.9 75.9 0 0 0-30.8 31.8 77.4 77.4 0 0 1 29.3-34.5l1.5 2.6zm4.6-32.3a49.1 49.1 0 0 0-23.6 22.2A50.6 50.6 0 0 1 846-383l1.3 2.7z"/>
          </g>
          <path d="M891.9-295s14.4-22.8 56.6-32.7c-10.6-6.7-22.4-5.2-22.4-5.2s26.6-24.7 47.3-21.8c-9.2-8.3-24-9.6-24-9.6s25.9-17.1 50.1-20.9c-19-10.1-82.1-8.2-139.4 55.6-43.6 47.5-48 80.3-51 103-3.6 21.4-.2 40.8 3 33a91.5 91.5 0 0 1 26.9-37.9c11.6-7 22.5-18.2 55.3-28.3-15-7.7-25.3-5.6-25.3-5.6 10.7-8.2 29-22.6 48.8-26.7a43.9 43.9 0 0 0-26-2.9"/>
          <path d="M938.1-241.7s25.2-13.7 69.4-1.1c-6.4-11.7-18-16.4-18-16.4s37.4-9.1 55 4.3c-4.3-12.5-17.3-21.3-17.3-21.3s32.9-2.6 57.3 6.5c-12.5-19.2-72-50-158-20.5-64.9 21.5-86 49.6-100.4 69.1-14.4 18-21.3 37.7-14.2 32a97 97 0 0 1 44.4-21c14.4-.7 30.3-5.3 66 2.3-10-15-20.6-18.3-20.6-18.3 14.1-2 38.5-6 59 .4a46.5 46.5 0 0 0-22.6-16"/>
          <g stroke="none" fill="#000">
            <path d="M901-224.8c-14.3-7.4-31.3-6.6-46.7-3.6 15.6-4.1 33-5.8 48.1 1l-1.5 2.6zm36.5-15.5a134.8 134.8 0 0 0-46.9-11.6c16.4.1 32.9 3 48.2 8.8l-1.3 2.8zm51.3-17.5a109.5 109.5 0 0 0-60.4-14c21.1-3.1 42.6 2.6 61.7 11.3l-1.3 2.7zm37.6-17.2a72.7 72.7 0 0 0-44-12.2 74 74 0 0 1 45.6 9.6l-1.6 2.6z"/>
          </g>
          <path d="M962.3-187.7s31.3-4 71.3 25.7c-1.7-14.3-11.7-23.4-11.7-23.4s42 5.1 54.4 25.5c.8-14.3-8.9-28.2-8.9-28.2s34.7 10.2 55.8 28.7c-4.7-24.1-52.8-78.1-152.7-81.6-75.2-3.4-108.3 16.8-131 30.9-22.1 12.5-37.3 29.7-27.8 26.7 16.6-5 36-8 54-4 15 4.9 33.1 6.3 66.4 27.7-4-18.9-13.5-26.3-13.5-26.3 15.3 3.3 41.8 8.8 60.1 23.2-1.8-6.3-6-16.7-16.4-24.9"/>
          <g stroke="none" fill="#000">
            <path d="M917.5-185.1c-11.7-13-29.4-18.7-46.2-21.6 17.4 2 35.9 6.9 48.5 19.7l-2.3 1.9zm43.7-1.5a145.5 145.5 0 0 0-43.2-29.7 146.9 146.9 0 0 1 45.4 27.6l-2.2 2zm59.6 2.1c-15.1-16.7-33.9-31.4-56-37.2 22.6 5 42.3 19 58.2 35.3l-2.2 2zm45.4-2.7a77.8 77.8 0 0 0-39.9-29.1 79 79 0 0 1 42.3 27.3l-2.4 1.8z"/>
          </g>
        </g>
        <path d="M933.8-119.8s26.3 11.4 43.7 54c5.2-12.3 1.7-24.3 1.7-24.3s30.3 23.7 30.6 46c7.2-11.2 6-27 6-27s22.4 24.4 30.3 49.2c7.4-21.6-5-87.4-81.3-136.9-57-37.9-92-37.1-116.3-36.4-23-.3-42.8 6.5-34 8.6a97 97 0 0 1 44 21.9c9.4 11 22.8 20.6 38.8 53.3 5.7-17 1.7-27.4 1.7-27.4 10.4 9.8 28.5 26.6 36 46.7 1.6-6 3-16.3-1.2-27.7"/>
        <g stroke="none" fill="#000">
          <path d="M897.5-138.7c-3-15.8-14-28.6-25.9-38.9 12.8 9.8 25 22.4 28.9 38.6l-3 .3zm34.8 19.3a135 135 0 0 0-19.8-44c10 13 18 27.6 22.7 43.3l-2.9.7zM977.7-90a110.1 110.1 0 0 0-26.2-56.1c15.5 14.7 24.2 35.1 29.2 55.6l-3 .5zm36.7 19a72.4 72.4 0 0 0-17.5-42 74 74 0 0 1 20.5 41.7l-3 .3z"/>
        </g>
        <path d="M886-72.2S904.3-50.3 901-4.5c10.2-8.6 12.3-21 12.3-21s16.6 34.8 7 54.8A50 50 0 0 0 938 7.9s4.6 25.8 10 57.5c3.6-34 29.5-80.6-16.9-158.8-34.2-59.2-66-74-88-84.3-20.6-10.4-41.3-13.1-34.3-7.4a97 97 0 0 1 29.7 39.2c3.5 14 11.3 28.6 11.1 65a44 44 0 0 0 13.7-23.8c5 13.4 13.7 36.5 11.6 57.9 4-4.7 9.9-13.3 11.1-25.4"/>
        <g stroke="none" fill="#000">
          <path d="M861.8-105.2c4.3-15.5 0-31.9-6-46.3 7.2 14.4 12.5 31.1 8.8 47.3l-2.8-1zm22.7 32.7c3.6-15.8 3.9-32.3 1.7-48.3 3.2 16 4 32.8 1.2 49l-3-.7zM912-26c5.6-20 7.7-41.8 1.4-62 7.4 20.1 6.2 42.3 1.5 62.8l-2.9-.8zm24.5 33.2a87 87 0 0 0 2.9-45.3 88.6 88.6 0 0 1-.2 46.5l-2.7-1.2zM869-263.9c-15.1.4-28.7 8.8-40 18.3 11-10.5 24.5-20 40-21.3v3zm23-29.6a126 126 0 0 0-44 12 129.7 129.7 0 0 1 43.8-15l.2 3zm34.2-37.9c-19.6.7-39.8 4.8-56.1 16.1 16-12.2 36.2-17.5 56-19l.1 2.9zm23-31.4a67.3 67.3 0 0 0-41.7 10 69.5 69.5 0 0 1 42-13l-.2 3z"/>
        </g>
      </g>
      <g>
        <g>
          <path d="M724.7-295s-14.5-22.8-56.7-32.7c10.7-6.7 22.4-5.2 22.4-5.2s-26.6-24.7-47.3-21.8c9.3-8.3 24.1-9.6 24.1-9.6s-26-17.1-50.2-20.9c19-10.1 82.2-8.2 139.4 55.6 43.7 47.5 48.1 80.3 51 103 3.7 21.4.3 40.8-3 33a91.5 91.5 0 0 0-26.9-37.9c-11.5-7-22.4-18.2-55.3-28.3 15-7.7 25.3-5.6 25.3-5.6-10.7-8.2-29-22.6-48.8-26.7a43.9 43.9 0 0 1 26-2.9"/>
          <path d="M678.4-241.7s-25.2-13.7-69.4-1.1c6.4-11.7 18-16.4 18-16.4s-37.3-9.1-55 4.3c4.3-12.5 17.4-21.3 17.4-21.3s-33-2.6-57.3 6.5c12.4-19.2 71.9-50 157.9-20.5 65 21.5 86 49.6 100.4 69.1 14.4 18 21.3 37.7 14.2 32a97 97 0 0 0-44.4-21c-14.4-.7-30.2-5.3-65.9 2.3 10-15 20.6-18.3 20.6-18.3-14.2-2-38.5-6-59 .4 3.7-4.8 10.9-12.3 22.5-16"/>
          <g stroke="none" fill="#000">
            <path d="M714.1-227.4c15-6.8 32.5-5.1 48.1-1-15.4-3-32.3-3.9-46.6 3.6l-1.5-2.6zM677.8-243c15.3-6 31.8-8.6 48.1-8.8a135.1 135.1 0 0 0-46.9 11.6l-1.2-2.8zm-51.4-17.4c19.1-8.7 40.6-14.4 61.7-11.3-21-2.1-41.9 4.5-60.3 14l-1.4-2.7zm-37.8-17a73.5 73.5 0 0 1 45.5-9.6c-15.5-1.3-31 4-44 12.2-.4-.9-1-1.8-1.5-2.6z"/>
          </g>
          <path d="M654.3-187.7s-31.4-4-71.4 25.7c1.8-14.3 11.8-23.4 11.8-23.4s-42 5.1-54.5 25.5c-.8-14.3 9-28.2 9-28.2s-34.7 10.2-55.9 28.7c4.8-24.1 52.8-78.1 152.8-81.6 75.1-3.4 108.2 16.8 131 30.9 22 12.5 37.3 29.7 27.7 26.7-16.5-5-36-8-54-4-15 4.9-33 6.3-66.3 27.7 3.9-18.9 13.4-26.3 13.4-26.3-15.3 3.3-41.8 8.8-60 23.2 1.8-6.3 6-16.7 16.4-24.9"/>
          <g stroke="none" fill="#000">
            <path d="M696.7-187c12.7-12.8 31.1-17.7 48.6-19.7-16.8 3-34.5 8.5-46.2 21.6l-2.4-1.9zm-43.5-1.7c13.2-12 28.8-21.1 45.4-27.6-16 7.3-31 17.2-43.3 29.7l-2.1-2.1zm-59.7 2.3c16-16.4 35.6-30.3 58.3-35.3-22.1 5.8-41 20.4-56 37.2l-2.3-2zM548-189c11-13 25.6-23.6 42.4-27.3a77.6 77.6 0 0 0-40 29L548-189z"/>
          </g>
        </g>
        <path d="M682.8-119.8s-26.3 11.4-43.7 54c-5.3-12.3-1.7-24.3-1.7-24.3s-30.3 23.7-30.6 46c-7.2-11.2-6.1-27-6.1-27s-22.3 24.4-30.2 49.2c-7.5-21.6 5-87.4 81.3-136.9 56.9-37.9 92-37.1 116.3-36.4 23-.3 42.8 6.5 34 8.6a97 97 0 0 0-44 21.9c-9.4 11-22.8 20.6-38.9 53.3-5.6-17-1.7-27.4-1.7-27.4-10.3 9.8-28.4 26.6-36 46.7-1.5-6-3-16.3 1.3-27.7"/>
        <g stroke="none" fill="#000">
          <path d="M716-139c4-16.1 16-28.8 28.9-38.5-11.8 10.2-22.9 23-25.9 38.9l-3-.4zm-34.7 18.9a136.4 136.4 0 0 1 22.8-43.4c-9.1 13.4-16.1 28.3-19.9 44l-2.9-.6zM636-90.4c5-20.5 13.7-40.9 29.2-55.6A110.1 110.1 0 0 0 638.8-90l-2.9-.5zm-36.7 19.2a74 74 0 0 1 20.5-41.7 72 72 0 0 0-17.5 42l-3-.3z"/>
        </g>
        <path d="M730.6-72.2s-18.5 21.9-15.2 67.7c-10.1-8.6-12.3-21-12.3-21s-16.6 34.8-7 54.8a50 50 0 0 1-17.4-21.4s-4.6 25.8-10 57.5c-3.6-34-29.6-80.6 16.8-158.8 34.3-59.2 66-74 88.1-84.3 20.5-10.4 41.2-13.1 34.3-7.4a97 97 0 0 0-29.7 39.2c-3.6 14-11.3 28.6-11.2 65a44 44 0 0 1-13.7-23.8c-4.9 13.4-13.7 36.5-11.6 57.9-4-4.7-9.8-13.3-11-25.4"/>
        <g stroke="none" fill="#000">
          <path d="M752-104.2c-3.7-16.2 1.6-32.9 8.7-47.3-6 14.4-10.3 30.8-6 46.3l-2.8 1zM729.1-72a136.1 136.1 0 0 1 1-48.9 136 136 0 0 0 2 48.3l-3 .6zM701.7-25c-4.7-20.5-6-42.7 1.4-62.7-6.3 20-4.1 41.9 1.4 61.9l-2.8.8zM677.3 8.5c-4.9-15-3.5-31.3-.1-46.5-2.4 15-2.8 31 2.9 45.3l-2.8 1.2zm70.2-275.4c15.6 1.3 29 10.8 40 21.3-11.2-9.5-24.8-18-40-18.3v-3zm-22.7-29.6a130 130 0 0 1 43.7 15 126 126 0 0 0-44-11.9l.3-3zm-34.4-37.9c19.8 1.5 40.1 6.8 56 19a104.2 104.2 0 0 0-56-16v-3zm-23.3-31.4c14.8.2 30 3.9 42 13a67.4 67.4 0 0 0-41.8-10l-.2-3z"/>
        </g>
      </g>
    </g>
    <g>
      <path class="secondary" d="M963.3 312.2c-4-3.7-10.3-4.8-10.3-4.8s-1.8-2.1-8-2.1-6.7 5-14.8 5c-8.8 0-6.8-5.4-15.8-5.4-3.2 0-6 1-8.6 4.2C894 310.9 891 321 878.7 321c-15.5 0-26.9-13-28.1-17.7-1.2-6-3.6-22.7-2.5-37.8.3-5.9 1.3-32.8.8-38.5-.4-5.7-4.2-24.9-4.8-32-.6-7.2.7-12.7.3-17.9-.4-5.1-2.8-9-3.2-14.2-.5-5.2 1.6-21.1 1-29-.7-8-1-21.1-1-21.1s-2.7-21-2.7-28 1.8-23.6 1.8-29.7v-.3c-2.4-29.9-8-59.5-7-89.7-.9-3.9-2-8-1.5-12.5 1.1-30.7-5-66.7-2.3-97.5.9-9.8-5-20.7-9.6-28.8-3.6-6.3-3.9-21.6-10.6-25.4-2.5-1.4-6.2-.6-7.6 2-.4.8-.6 1.7-1.2 2.3-1 1-2.7 1.2-3.6 2.2-1.7 1.9-.7 5.7-1.2 8-.6 3-2 6.1-3.9 8.6-1 1.3-2 2.6-2.8 4-2.6 5.2-1 14-1 19.9v.6c3.6 31.6-6.5 67.8-.2 95a85 85 0 0 1-1.7 19c.3 13.7-.9 27.6-1.5 41.2-.8 17-.5 34-3.3 50.5.2 1.2.4 2.2.4 3 0 6.2 1 20.7 1 27.7s-3.6 27.9-3.6 27.9l.7 34.4s.8 10 0 22.1c-1 12.2.4 41.1 0 47.8-.6 6.6-2.7 18.6-3.3 27-.7 8.2 2 10 1.3 19-.6 8.8 1.3 26.2.2 29.8-1.1 2.7-3.7 16.7-16.6 16.7-8.3 0-21.8-21.7-35.7-21.7-14 0-21.4 19.3-32.2 19.3-6.4 0-5.7-3.1-9.7-3-3.5 0-6.8 2-8.3 2.8-3.4 1.7-4.2 6.3-8 7.8-3.9 1.6-9.4-1.3-10.7.2-1.2 1.6 3.7 7 11.4 7s8.2-5.9 12.2-5.9 7.7 3.6 10.7 3.6c14.3 0 22.4-15.6 32.6-15.6 6.2 0 10 5.6 10 7.3 0 5.8-7.2 3-15 9-8 6-7.7 12.3-5.8 13.4 1.9 1.1.3-5.5 11.3-7.5 5.2-.5 6.6-2.7 11.2-2.7 17.3 0 17.4 9.5 27.4 9.5 14.8 0 22.2-6.2 24.2-6.2 2.1 0 4.9.8 4.9 6.6 0 5.7-5.7 9.1-10.5 9.1-6.4 0-9.3-2.4-14.5-2.4-5.2 0-10.7 5-10.7 5s-9.7-11.7-20-11.7c-10.1 0-11.6 10.1-18.7 10.1-4.6 0-3.6-4.8-14.6-4.8s-15.9 10-14.4 11.2c2 2 5.2-3.6 14.1-3.6 9 0 6.7 8.5 16 8.5 9.4 0 12.1-7 17.5-7s12.5 5.6 12.5 9.8c-1.5 13.4 4.8 13.6 4.8 13.6s2 6.5 8.5 6.7c5.7 1.4 8.5-4.9 20 2.2 8 7-1.6 17.7 1 20.8 2.7 1.3 9.7-9.1 9.7-17.3 0-7.2-3.6-13.2-11.1-13.8-3.5-6.4-15.4-2.7-15.4-8.2 0-5.5 9-6.6 12.2-5.3 3.1 1.4 8.5 3 17-3.9 4 19.4 18.2 20.6 18.2 27.9 0 2.7-10.3 9.6-10.3 18.6.5 10.4 6 12.7 7.8 18.1 3.1 13.7-2.1 21.4.6 22 6.4 0 9.6-9.8 8.7-18.5-.9-8.7-4.2-9-4.2-15.8 0-6.8 5-9.7 5.3-12.7 1.9-1.8 4 0 6.5-.1 4.7-.3 5.8-4.6 5.8-9.2s-2.9-6.4-5.4-6.4c-2.5-7.5-9.7-12-9.7-24.1 0-2.7 1.9-4.9 4.1-4.9 4.8 0 14.1 5.1 17.3 6.2 1.6 5.3 11.6 3.2 11.6 9.6 0 9.2-4.7 7-6.4 15.8-1.8 8.8 2.2 18.8 4.1 18 1.7-.8-1.2-9.1 2.7-16.4 1.7-1.7 6.1-4.7 7.8-6.8 4-3.4 4-7.3 4-11.3 0-2.3-5.8-16.7-14.5-15.8 0-7-16.5-6.5-16.5-14 0-2 2.2-4.4 7.3-4.4 12.5 0 5.1 17.3 29.6 12.1.8 10 11.3 12 11.3 16.2 0 4.2-2.4 4.9-2.4 9.5 0 6.6 6 14.7 7.4 13.6 1.4-1.1-3.3-4.9 0-13 1.6-4.2 5.2-6.3 5.2-11.2 0-10.4-8.3-7.4-8.3-15 0-5.3 9.8-5.8 14-10.3 3 0 3 7.4 6.7 9 6.6 3.7 11.6-3.2 14.5.1 0 6.9-7.4 4.1-10.3 9-5.4 8-4.7 17.8-2.8 18.5 1.9.6 1.2-8.7 9-13.8 15-1.3 16-11.8 16.9-10.7 15.9 1.7 10.7-5.8 21-7.5-4.9-6-8.4-.6-15.4-.6-2.5 0-4-6-7.8-6-3.7 0-10 3-10 3s-6.1-.3-6.1-3.8 1-7.4 3.7-7.4 3.4 2.7 6.1 2.7c2.7 0 5.3-2.4 5.3-2.4s2.6 2.2 7.6 2.2c7.9 0 10.5-6 15.3-6 11.4 0 14.8 7.3 17.8 5.3 1.5-1-.7-5.5-5.1-9.6z"/>
    </g>
    <g stroke="none" fill="#000">
      <path d="M777.3 238.8a127.7 127.7 0 0 0 69.7 18c-9.5 3-27.6 1.4-39.9-2a65.4 65.4 0 0 1-29.8-16zm2.2-19.1c19 12.9 42.8 16.4 65.3 17.3 6.3.3-15.8 2.7-19.9 1-16.2-1.8-33.9-6.1-45.4-18.3z"/>
      <path d="M847.9 238.8c-17.7 16.6-44 21.4-67.4 18.8-5.6-1.3 15.9-.2 20.2-2.3 16.4-2.6 33.4-6.8 47.2-16.5zm0-20c-17.7 16.6-44 21.4-67.4 18.8-5.6-1.3 15.9-.2 20.2-2.3 16.4-2.6 33.4-6.8 47.2-16.5zm-68.4-18.1c18.9 12.1 42.4 15 64.4 16.3 9.3 0-15.1 2.8-18.8 1-16-2-34-5.2-45.6-17.3zm0-20c17.2 11.3 38.6 13.8 58.6 16.8 15.4.1-14.3 2.8-18.6 0-14.1-2.7-29.9-6-40-17z"/>
      <path d="M844.9 201.3c-14.8 14.5-37.3 16.6-57 17.4-19.6-2 10.8-.7 16-3.7 14-3 29.3-5 41-13.7zm-.6-19.6c-17.2 14.3-41.3 18.5-63 15.9-4.7-1.3 16.9-.4 21.6-2.7a119 119 0 0 0 41.4-13.2zm-63.8-21c16.9 11.4 38 14 57.7 16.8 15.5.3-17 2.8-21.4-.5-13-2.5-27.1-6.1-36.3-16.3zm-1-20c16.4 10.7 36.7 13.5 55.7 16.8 15.8.1-14.2 2.9-17.6-.4-13.6-2.6-28.5-5.9-38.2-16.5z"/>
      <path d="M841.3 163.7c-15.4 12.7-36.8 15.1-56 14.8-13.4-2 20.4-1.5 25.7-5 10.5-2 21.1-4.2 30.2-9.8zm.9-21.2a82.2 82.2 0 0 1-59.4 15.6c-5.1-1.4 16.4-.7 20.4-3.1 13.5-2.3 26.9-6 39-12.5zm-63-22c16.9 11 37.6 13.7 57 17.2 14.9.2-13.8 2.6-18-.5-13.8-2.6-29-6-39-16.7zm2.3-19c16 10.6 35.8 12.5 54.2 16.2 14.8.1-13.4 2.7-17.1-.4-13.2-2.5-27.8-5.3-37.1-15.9z"/>
      <path d="M841.5 123.5c-11.9 12.6-31 12.8-47 15.2-6.1 1-23.4-2.3-7.2-1.4 16.5-2.6 33.7-4.1 49.2-10.6 1.7-.9 3.5-2 5-3.2zm-1.3-19.1c-15 12-35.5 14.3-54 14-18.7-2.4 15.5-1 20.8-4.1 11.3-2.2 23.1-4 33.2-10zm-57.6-21.5c16.5 9.1 35.9 11.7 54.3 14.6 3.1 1.6-19 .9-24.5-1.4-10.6-2.3-22-5.2-29.8-13.2zm-1.1-20.8c17.2 9.6 37.3 13 56.6 15.5-11.5 2.3-29.7-1.5-42.6-6.5a39.8 39.8 0 0 1-14-9z"/>
      <path d="M838.5 84.9c-14.3 11.2-33.9 14-51.6 13.7-12.3-2 23.5-2.4 29-6.2a85.7 85.7 0 0 0 22.6-7.5zm1.7-20.5A77.4 77.4 0 0 1 783 77a199 199 0 0 0 41.9-6.9 74 74 0 0 0 15.2-5.7zM782.8 43c17.9 8.6 37.8 12.8 57.5 14.6A80.5 80.5 0 0 1 782.8 43zm1.1-19.3c14.9 9 33 9.8 49.5 13.5 10.7 2.5-25 .2-31.2-3.4a36.4 36.4 0 0 1-18.3-10z"/>
      <path d="M839.4 44.8c-14.7 11-34.4 14.3-52.5 13.4-12.4-2.2 24-2 29.5-6 7.9-1.8 15.9-3.7 23-7.4zm-2-18.9C824.6 35.8 807.5 37.6 792 39c-19.8-1.7 7.6-1.3 13.6-4.4 10.6-2.6 22-3.6 31.8-8.7zM785.3 4.5a197.2 197.2 0 0 0 52 13.1A76.9 76.9 0 0 1 787.2 6l-1.4-1-.5-.4Zm.7-19.3c15.3 6.7 32 9.4 48.3 12.3A70.9 70.9 0 0 1 786-14.8z"/>
      <path d="M835.2 7a81.4 81.4 0 0 1-51.3 10.6c17.5-1.7 34.5-5.6 51.3-10.6zm-1.8-19a74 74 0 0 1-47.1 9.6c16-2 31.7-5 47-9.6zm-47.8-23c15.3 6.8 31.9 9.5 48.2 12.5A70.2 70.2 0 0 1 785.6-35zm2.3-18.7c14.2 5.3 29 7.9 43.7 11a67 67 0 0 1-43.7-11z"/>
      <path d="M833.2-32a79.9 79.9 0 0 1-46.4 9.6c15.5-3.2 31.2-5 46.4-9.6zm-2-19.2a70.7 70.7 0 0 1-44.7 9c15-2 30-5.1 44.7-9zM785.7-75c14.4 6.3 30 9 45.4 12.3A67.6 67.6 0 0 1 785.7-75zm1.3-19.2c13.9 5.4 28.5 8 43 11.4-15 .8-30.9-2.2-43-11.4z"/>
      <path d="M831.6-70.9a76.8 76.8 0 0 1-44.3 8.5c14.7-3.2 29.8-4.4 44.3-8.5zm-1-20a80 80 0 0 1-44.8 8.5c14.9-3.1 30-4.7 44.8-8.5zm-43-23c13.7 5.3 28.2 7.8 42.4 11.1a65.3 65.3 0 0 1-42.4-11zm1-19.5c13 4.6 26.8 7.2 40.3 10.5-14 .8-28.9-2.1-40.4-10.5z"/>
      <path d="M829-110.3a76.3 76.3 0 0 1-42.2 8c14-3.2 28.3-4.8 42.3-8zm.4-20a68.3 68.3 0 0 1-41.6 8c14-2.4 27.8-5 41.6-8zm-40.9-23c13.2 4.5 26.9 7 40.4 10.4-14 1-29-2-40.4-10.5zm.2-20c10 3.8 30.2 7.2 34.6 10a57.4 57.4 0 0 1-34.6-10z"/>
      <path d="M828.5-149.6c-9.8 7-32.3 9.2-38 6.8 12.7-2.1 25.4-4.1 38-6.8zm-4-19.1c-8.9 6-29.7 8.5-34.5 6.1 11.5-2.2 23-4.3 34.6-6.1zm15 433.1-3 1.3-7.6 3.1c-3.1 1.3-6.8 2.8-10.5 4.8-1.8 1-3.6 2-5.3 3.3a27.2 27.2 0 0 0-8.4 9.7l-3.1 5.8-3 5.4a31.6 31.6 0 0 1-7.1 7.6 16.4 16.4 0 0 1-6.3 2.6l.7-.3a16.2 16.2 0 0 0 4.9-3.2c1-.9 2-2 3-3.3 1-1.4 1.9-2.9 2.8-4.5l2.6-5.5c1-2 1.8-4 3-6a47.8 47.8 0 0 1 3.9-5.8 30 30 0 0 1 11.1-8.2 55.3 55.3 0 0 1 11.2-4c3.2-1 6-1.6 8-2l3-.8zM830 287a456.7 456.7 0 0 0 1.6.4l1.6.8c.6.5 1.3 1 1.8 1.7.6.7 1.2 1.5 1.7 2.4a24.9 24.9 0 0 1 2.4 6l1 3.1 2.3 6.1 2 5.4a170.8 170.8 0 0 1 1.9 5.3l-1-1.2a38.9 38.9 0 0 1-5.4-8.4 49.5 49.5 0 0 1-3.6-9.5l-.8-3c-.5-2-1.1-3.8-1.9-5.2a9.4 9.4 0 0 0-2.4-3l-.4-.4-.5-.2-.3-.3zm-20.3 18a103.4 103.4 0 0 0 1 1.2c.7.8 1.5 2 2 3.8a13.6 13.6 0 0 1-.5 9.7l-1.3 3.2a76.8 76.8 0 0 1-9 14.2l-1 1.2.5-1.5 1.6-3.9 2.3-5.3 2.8-6c1-2 2-4 2.5-5.9a14.9 14.9 0 0 0 .4-5.3c-.1-1.7-.5-3-.8-4l-.4-1-.1-.4zm-25-26 .5-.2 1.5-.2a10.6 10.6 0 0 1 4.4 1l1.1.5a9 9 0 0 1 2.4 2.3 7 7 0 0 1 1 2l-.6-.2a22 22 0 0 1-5.2-2 32 32 0 0 1-4.7-2.8l-.5-.4z"/>
    </g>
    <g class="tertiary" stroke-width="2.5">
      <g>
        <path d="M840.3-116.8c1-1 12.4-7.5 24.1 3.8 12.3 12-1 32.7-1 32.7s-10.7 7.6-24-5.3-.1-30.2.9-31.2z"/>
        <g stroke="none" fill="#000">
          <path d="M858.7-81.5c.3 1.3-1.2 2.5-2.4 1.8-2-1 .8-3.3 2.1-2l.3.2zm-3.4-.4c-.2 1.5-2.4 2-3 .5-.5-1.7 2.4-2 3-.5z"/>
          <path d="M852.2-83.2c.2 2-2.9 1.8-2.5-.1 1-1.2 1.7-1.1 2.5.1zm-2.6-1.6c.2 1.6-2.4 2-2.6.3-.2-1.3 2-1.9 2.3-.5l.3.2zm-2.6-31.8a6 6 0 0 0-3.8 4.7c-.5 1.5-2.3 2-3.2 3.2-1.1.9-2 3-2.7 3.5-.5-2.9 1-5.7 3.4-7.3.5-1.2 1-2.5 2.1-3.3a4.5 4.5 0 0 1 4.2-.8z"/>
        </g>
      </g>
      <g>
        <path d="M859.9-145.7c1-1 13-6.4 23.7 5.8 11.2 13-3.7 32.5-3.7 32.5s-11.5 6.6-23.6-7.4c-12.2-14 2.5-30 3.6-31z"/>
        <g stroke="none" fill="#000">
          <path d="M875.2-109c.2 1.3-1.4 2.4-2.5 1.6-1.9-1 .9-3.1 2-1.9l.2.2zm-3.4-.7c-.2 1.2-2 1.8-2.7.7-1-1 .9-2.3 1.8-1.8l1 1zm-3-1.5c0 2-3 1.5-2.5-.4 1.1-1.2 1.8-.8 2.6.4zm-2.4-1.9c.2 1.4-2.2 1.9-2.5.4-.7-1.4 2-2.2 2.2-.6l.2.2zm.1-31.9a6 6 0 0 0-4.2 4.3c-.6 1.5-2.4 1.9-3.4 3-1.2.8-2.3 2.8-3 3.2-.4-2.9 1.5-5.6 4-7 .6-1.1 1.3-2.5 2.6-3.1 1.2-.8 2.7-.9 4-.4z"/>
        </g>
      </g>
      <g>
        <path d="M827.7-149.9c1.3-.6 14.2-2.7 21.3 11.9 7.5 15.4-12 30.3-12 30.3s-12.8 3.5-20.9-13.2c-8-16.7 10.3-28.4 11.6-29z"/>
        <g stroke="none" fill="#000">
          <path d="M832.9-110.4c-.2 1.4-2.2 2-3 .7-1.2-1.3 1.5-2.4 2.3-1.3l.7.6zm-3-1.6c-.7 1.2-2.6 1.2-3-.2-.7-1.6 2.5-2 2.7-.3 0 .1 0 .4.2.5zm-2.5-2.2c-.4 1.2-2.3 1.3-2.5 0-.4-1.5 2.4-2 2.4-.2-.1-.1.2.3 0 .3zm-2-2.4c-.2 1.3-2.6 1.2-2.5-.3-.1-1.5 2.5-1.6 2.4 0l.1.2zm8.5-30.8c-2 .2-4 1-5 2.9-1 1.5-3 1.3-4.3 2.1-1.3.5-3 2.1-3.7 2.4.5-3 3-5 5.8-5.7 1-1.3 2.4-2.5 4.1-2.5 1.1-.2 2.3.2 3 .8z"/>
        </g>
      </g>
      <g>
        <path d="M839.6-143.8c1-1 12.4-7.5 24.1 3.8 12.3 12-.9 32.7-.9 32.7s-10.8 7.6-24.1-5.3 0-30.1.9-31.2z"/>
        <g stroke="none" fill="#000">
          <path d="M858-108.5c.3 1.3-1.2 2.5-2.4 1.8-2-1 .8-3.2 2.1-2l.3.2zm-3.4-.4c-.2 1.5-2.4 2-3 .5-.5-1.7 2.4-2 3-.5z"/>
          <path d="M851.5-110.1c.2 1.8-2.9 1.7-2.5-.2 1-1.2 1.8-1.1 2.5.2zm-2.6-1.7c.2 1.6-2.4 2-2.5.3-.3-1.2 2-1.9 2.3-.5zm-2.6-31.8a6 6 0 0 0-3.8 4.7c-.5 1.5-2.3 2-3.2 3.2-1.1.9-2 3-2.7 3.5-.5-2.9 1-5.7 3.4-7.3.5-1.2 1-2.5 2.1-3.3a4.5 4.5 0 0 1 4.2-.8z"/>
        </g>
      </g>
      <g>
        <path d="M818.2-170.4c.7-1.2 10-10.5 24.3-2.7 15 8.2 7.8 31.7 7.8 31.7s-8.4 10.2-24.7 1.3c-16.2-8.9-8-29-7.4-30.3z"/>
        <g stroke="none" fill="#000">
          <path d="M845.4-141.3c.8 1.2-.6 2.9-2 2.4-2-.6.3-3.3 1.7-2.4h.3zm-3.4.5c.2 1.2-1 2.3-2.2 1.7-2.1-1 1-3.5 2.2-1.7z"/>
          <path d="M838.7-141.1c.5 2-2.9 2.2-2.5.3.6-1.5 1.4-1 2.5-.3zm-3-1c.9 1.7-2 2.6-2.4.8-.1-1.1 1.5-2 2.2-.8h.2zm-11-29.9a6.3 6.3 0 0 0-2.5 5.7c0 1.5-1.6 2.4-2.1 3.8-.8 1.1-1.2 3.4-1.7 4-1.3-2.6-.5-5.8 1.4-8-.2-2.6 1.7-5.3 4.5-5.5.1 0 .3.1.4 0z"/>
        </g>
      </g>
      <g>
        <path d="M846.3-177c1.2-.6 14-3.5 22 10.7 8.2 15-10.4 31-10.4 31s-12.5 4.1-21.6-12 8.7-29 10-29.6z"/>
        <g stroke="none" fill="#000">
          <path d="M853.7-137.8c-.2 1.3-1.9 2-2.9 1-1.4-1 1-2.5 2-1.7l.9.7zm-3.2-1.4c-.5 1.1-2.3 1.3-2.8.1-1-1.5 2-2.3 2.4-.9l.4.8zm-2.5-2c-.3 1.3-2.5 1.3-2.6-.2-.3-1 1.3-1.6 2-1 .2.3.3.8.6 1.1zm-2.1-2.4c-.2 1.4-2.6 1.4-2.6-.1-.1-1.5 2.5-1.7 2.4 0l.2.2zm6.7-31.2a6 6 0 0 0-5 3.4c-1 1.3-2.7 1.3-4 2.1-1.3.6-2.8 2.3-3.6 2.6.4-2.9 2.7-5.2 5.4-6 .9-1 1.8-2.2 3.2-2.6 1.3-.4 2.9-.4 4 .5z"/>
        </g>
      </g>
      <g>
        <path d="M789.2-110.3c-1.1-.9-13.4-5.7-23.4 7-10.5 13.5 5.3 32.3 5.3 32.3s11.8 6 23.2-8.6-4-29.8-5.1-30.7z"/>
        <g stroke="none" fill="#000">
          <path d="M775.7-72.9c1-1.5 4.3 0 2.7 1.4-1 1-2.9 0-2.7-1.4zm3.3-.8c.4-1.6 2.7-1.7 3.1-.2-.1 1.4-2 1.9-2.8.7-.1-.1-.1-.5-.3-.5z"/>
          <path d="M781.9-75.4c.3-1.4 2.1-1.5 2.5-.2.2 2-2.6 1.8-2.5.2zm2.4-2c.5-.9 1.3-1.6 2.3-.7.6.7-.1 2.2-1.1 2-.7 0-1.2-.6-1.2-1.2zm-1.7-31.8c2.5-1.3 5.6.3 6.5 2.8.8.9 2.2 1.3 2.9 2.4a7 7 0 0 1 1.7 4.9c-1.5-2-3.4-3.8-5.7-4.9-1.4-1-1.4-3.2-3-4-.7-.6-1.6-1.1-2.4-1.2z"/>
        </g>
      </g>
      <g>
        <path d="M766.9-140.3c-1.2-.8-13.8-4.6-22.7 9-9.4 14.3 8 31.6 8 31.6s12.3 5 22.4-10.4c10.2-15.6-6.5-29.5-7.7-30.2z"/>
        <g stroke="none" fill="#000">
          <path d="M756.7-101.9c.7-1.5 4-.6 2.9 1-1 1.3-3 .6-3-1zm3.2-1.1c.3-1.6 2.6-2 3-.5 0 1.4-1.9 2.1-2.7 1-.2 0-.1-.6-.3-.5zm2.7-2c.3-1.4 2-1.6 2.6-.4.2 1-.9 2-1.8 1.4-.4-.1-.6-.6-.8-1zm2.3-2c.4-1 1-1.9 2.2-1 .8.6 0 2.4-1.2 2-.6 0-1-.7-1-1zm-4.5-31.7c2.3-1.4 5.6 0 6.8 2.3 1 .8 2.3 1.2 3.1 2.2 1.3 1.3 2 3 2.1 4.7-1.6-2-3.8-3.5-6.1-4.4-1.5-1-1.7-3-3.4-3.8-.7-.5-1.6-.8-2.5-1z"/>
        </g>
      </g>
      <g>
        <path d="M797.2-144.8c-1.3-.4-14.5-.8-19.5 14.6-5.3 16.3 16 28.5 16 28.5s13.1 1.7 18.9-16c5.7-17.6-14-26.6-15.4-27z"/>
        <g stroke="none" fill="#000">
          <path d="M797.4-105c.4-1.5 3.2-1.8 3.2-.1-.2 1.3-2.2 1.8-3 .6 0-.1-.3-.4-.2-.5zm2.8-2c-.1-1.5 2.2-2.5 2.9-1.1.2 1-.9 2.1-2 1.7-.3 0-.6-.6-.9-.6zm2.2-2.5c0-1.1.8-2 2-1.4 1.1.6.1 2.7-1.1 2.2-.4-.1-.7-.5-1-.8zm1.6-2.7c0-1.2 1-2 2.1-1.3 1.2 1.5-1.4 3.2-2.1 1.4zm-12.6-29.3c1.9-2 5.3-1.6 7 .3 1 .8 2.4.5 3.5 1.3 1.6.9 3 2.3 3.4 4.1a15.8 15.8 0 0 0-7-2.6c-1.7-.5-2.4-2.5-4.3-2.8-.8-.3-1.8-.3-2.6-.3z"/>
        </g>
      </g>
      <g>
        <path d="M786.2-137.1c-1-1-13.3-5.8-23.3 7-10.6 13.4 5.3 32.2 5.3 32.2s11.7 6 23.2-8.5-4-29.8-5.2-30.7z"/>
        <g stroke="none" fill="#000">
          <path d="M772.8-99.7c.9-1.4 4-.3 2.8 1.2-1 1.2-3 .3-2.8-1.2zm3.3-.9c.4-1.5 2.7-1.6 3-.1 0 1.3-2 1.8-2.7.6-.2 0-.2-.4-.3-.5z"/>
          <path d="M779-102.2c.3-1.4 2-1.5 2.5-.3.2 2-2.7 1.9-2.5.3zm2.4-2c.5-.9 1.2-1.7 2.2-.7.7.6 0 2.2-1 2-.7 0-1.3-.7-1.2-1.3zm-1.8-31.8c2.5-1.3 5.6.3 6.6 2.8.9.8 2.2 1.4 3 2.5a7 7 0 0 1 1.6 4.8 16 16 0 0 0-5.7-5c-1.5-1-1.4-3.1-3-4-.8-.5-1.7-1-2.5-1.1z"/>
        </g>
      </g>
      <g>
        <path d="M802.8-168.4c-.8-1.1-11.3-9-24.4.6-13.7 10.1-3.5 32.4-3.5 32.4s9.7 9 24.7-2c14.9-11 4-29.8 3.2-31z"/>
        <g stroke="none" fill="#000">
          <path d="M779.8-135.9c1.3-1.2 4.1.8 2.5 2-1.2.8-3-.6-2.4-2zm3.5 0c.9-2 4.4 0 2.3 1.4-1 .8-2.3-.3-2.3-1.3z"/>
          <path d="M786.5-136.7c.7-1 1.9-1 2.5.1.5 1.7-2.7 2.1-2.5.1 0 0 .1-.2 0-.1zm2.8-1.2c.8-1.1 2.2-1 2.6.3.1 1.7-2.7 1.6-2.6 0-.2 0 .3-.4 0-.3zm6.9-31.2c2.6-.5 5.1 1.8 5.5 4.3.3 1.2 1.7 1.9 2 3 .9 1.7 1.1 3.7.5 5.4a16 16 0 0 0-4.2-6.2c-1.1-1.4-.5-3.4-1.8-4.7a6.4 6.4 0 0 0-2-1.8z"/>
        </g>
      </g>
      <g>
        <path d="M776.2-171c-1.4-.6-14.5-1.7-20.4 13.4-6.2 16 14.4 29.3 14.4 29.3s13 2.4 19.8-14.8c6.7-17.3-12.5-27.4-13.8-28z"/>
        <g stroke="none" fill="#000">
          <path d="M774.1-131.3c.4-1.5 3.4-1.6 3.2 0-.2 1.3-2.3 1.7-3 .5l-.2-.6zm3-1.8c-.2-1.6 2.1-2.4 2.8-1.1.2 1-.8 2.1-1.9 1.7-.4 0-.8-.4-1-.6zm2.2-2.4c0-1.4 1.6-2.1 2.4-1 .7 1.2-1.2 2.5-2 1.3-.2.2-.4-.6-.4-.3zm1.7-2.6c.1-1.3 1.2-2 2.3-1.2 1 1.4-1.3 3-2.2 1.5v-.3zm-10.8-30c2-1.9 5.3-1.3 7 .7.9.8 2.3.7 3.3 1.5 1.6 1 2.9 2.5 3.3 4.3-2-1.5-4.3-2.6-6.7-3-1.7-.3-2.2-2.4-3.8-2.9-1-.5-2-.6-3.1-.6z"/>
        </g>
      </g>
    </g>
  </g>
</svg>
