<svg xmlns="http://www.w3.org/2000/svg" fill="#d7374a" stroke="#000" viewBox="50 50 200 200">
  <metadata source="http://wappenwiki.org" license="https://creativecommons.org/licenses/by-nc-sa/3.0"/>
  <g id="parrot" stroke-width=".5">
    <path class="secondary" d="M78.77 124.23c.84-.74 1.16-1.84 1.16-1.84s.13-1.42-1.02-1.44c-1.37-.03-1.34.42-1.48.7 0 0 .53.66.37 1.45-.13 1.08-1.42 1.52-1.44 1.87.52.18 1.89-.3 2.41-.74zm-9.08-21.01c1.1-.08 2.12.47 2.12.47.21.18.98 1.03.32 1.73-.79.84-1.55.56-1.55.56s-.1-.82-.79-1.26c-.84-.66-2.07-.06-2.36-.27.29-.52 1.57-1.18 2.26-1.23zm4.46-3.84c1.08.3 1.84 1.16 1.84 1.16s.74 1.2-.29 1.73c-1.02.53-1.63 0-1.63 0s.19-.81-.31-1.44c-.58-.9-1.95-.76-2.13-1.05.42-.4 1.86-.55 2.52-.4zm6.02.79c.81.76 1.07 1.9 1.07 1.9s.08 1.41-1.07 1.38c-1.16-.02-1.45-.78-1.45-.78s.55-.63.42-1.42c-.08-1.08-1.34-1.58-1.39-1.92.58-.16 1.92.37 2.42.84z"/>
    <path class="secondary" d="M78.06 113.93c-.28.35-.57.06-.31.9.13.37.42.94.68 1.26.03.05.08.08.1.13.35.52 0 .9.17 1.42.05.23.15.52.36.65.63.45 1.21.87.9 1.9 0 0 .81.36.81 1 .13 1.04-.66 1.2-.84 1.1-1.16-1.37-2.29-.45-2.29-.45s-.47.03-.57-.74c-.1-.91.7-.97.7-1.3-.1-.38-.07-.59-.3-.9-.11-.13-.46-.45-.56-.58-.58-.7 0-1.76-.53-2.5-.15-.2-.39-.36-.5-.6-.2-.52.14-1.26.03-1.84 0-.13-.42-.63-.66-.97-.5-.37-.65-.58-.65-.58-.66-.7-1.79-2.02-1.9-2.94-.02-.18 0-.73 0-.9-.05-.36-.33-.62-.52-.94-.26-.23-.81.42-1.4-.31-.46-.6-.17-1.03-.17-1.03s1.44-.18 1.28-1.97c.05-.2.76-.63 1.42.19.45.44.08 1.28.08 1.28.79.4.94 1.1.9 1.87a2 2 0 00.04.68c.24.84.9.71 1.06 1.45.5-1.66-.48-2.68-.27-3.58.06-.18.24-.36.27-.52.07-.37-.1-.9-.16-1.26-.16-.32-.92.13-1.21-.76-.24-.74.18-1.03.18-1.03s1.42.32 1.87-1.42c.13-.18.92-.26 1.26.74.26.58-.32 1.15-.32 1.15.4.9.63 1.6.19 2.42-.13.24-.21 1.05-.24 1.31-.08.85.13 1 .34 1.66.63-.74.19-1.08.8-1.76.1-.13.49-.32.6-.45.23-.29.23-.73.36-1.1 0-.34-.86-.32-.7-1.23.12-.77.62-.82.62-.82s1.1.95 2.32-.37c.18-.1.91.13.76 1.19-.06.63-.76.91-.76.91.1 1.32-.48 1.9-1.13 2.08-.24.08-.32.4-.4.66-.16.52.16.92-.2 1.41-.14.21-1.95 1.42-1.64 2.37.21.52.71.5 1.16.79.24.13.1.18.26.26.24-.18 1.31.05 1.53.31a3.1 3.1 0 011.52.4c.37-.16 1.26.02 1.42.26.13-.1 1.02-.08 1.28.18.42.11.4.11.48.11.29.08 1.73.26 2.41.4.76.13 2.2-1.35 2.2-1.35s.2 1.45-.2 2.9c-.34 1.25-3.18.94-3.6 1-.08 0-.84-.61-1.5-.8-1.86-.44-4.49-.97-4.49-.97l-1.97-.42c0-.05-.23-.16-.37.05z"/>
    <path d="M99.16 114.28c-.3.44-.84.65-1.37.76-1.97.42-4.41-.16-5.99 1.42-.34.34-.68.65-1.18.42a1.63 1.63 0 00-1.81.15c-.16-.13-.08-.42-.27-.5-.05-.02-.13 0-.18 0-.55.14-1.08.32-1.58.6-.02-.1.03-.18.08-.28.06-.08.06-.21-.02-.26-.06-.03-.1-.03-.13-.03-.27.03-.53.1-.77.26-.84.53-.73-.29-.39-.78.24-.37.58-.82.95-1.06l-.63-.44s1.07-.24 1.36-.45c-.18-.23-.29-.55-.7-.92-.4-.34-1.9-1.18-1.66-1.76.23-.63 2.28-.6 2.86-.76 1.18-.29 2.36-.68 3.39-1.36.55-.37 1.05-.82 1.63-1.21.58-.4 1.23-.69 1.86-1m3.81-20.09c5.07 2.62 8.33 7.82 17.47 11.95 9.14 4.12 13.9 5.22 14.81 5.64.63.3 1.2.35 1.6.95.3.45.27.94.21 1.08-.65 1.73-4.99 2.2-6.83 2.15-1.86-.05-22.03 1.1-36.74-7.12"/>
    <path class="secondary" d="M90.1 67.9c.23-.7-2.55-1.5-2.53-2.24.03-.74.03-1.53-.4-2.1-.28-.37-.54-.82-.94-1.03-1.18.3-2.39 1-2.83 1.9-2.63 1.07-5.89 6.48-2.03 10.76.14.16.3.37.45.24.16-.13 0-.42-.03-.6-.15-.66-.52-1.63-.26-2.32.21-.55.74-.68 1.24-1 .55-.36.57-1.12 1.07-1.54.13-.14.3-.24.48-.32.65-.24 1.26.05 1.76.42.2.16.81.18.84.45.08.44-.74.52-1.05.63-.21.08-.42.18-.56.37a.42.42 0 00-.1.18c-.37.5-1.29.63-1.84.84-.08.03-.16.05-.18.13-.08.13-.03.29.08.4.18.13.47.18.68.26a9.5 9.5 0 002.83.52 4.3 4.3 0 002.71-.84c.37-.29.66-.65 1.02-.97.24-.2.53-.4.6-.7"/>
    <path d="M102.96 72.25c-.34-3.18-1.68-6.33-3.3-7.98a15.59 15.59 0 00-3.37-2.74 8.8 8.8 0 00-3.15-1.02c-1.23-.18-2.84-.45-3.91-.26-.69.13-1.21.44-1.84.68-.45.16-1.08.4-1.52.76-1.03.84.26 1.55.44 2.68.13.74-.5 1.52.05 2.08.53.52 1.06 1.07 1.13 1.86a2.6 2.6 0 01-.42 1.58c-.1.18-.23.4-.18.6.05.26.29.42.5.6 1.15 1.08 1.79 1.84 1.94 3 .27 1.86-.1 3-1.84 4.65-3.38 2.97-6.72 6.46-7.04 12.32-.2 4.04.74 5.88 2.63 9.43 2.18 4.04 6.36 7.04 9.14 9.11 1.5 1.13 3.81 2.4 5.73 2.81 1.02.21 2.02-.7 2.86-.55.53.66 1.08.84 1.81 1.26 1.26.7.82.68 2.34 1.16 4.2 1.28 9.3 2.7 13.55 1.91 0 0 4.02 1.68 6.68 2.55 2.25.87 6.64 1.18 7.59.05.1-.1.15-.5.02-.97-.16-.63-.76-.81-1.23-1.26-.66-.66-4.39-3.33-11.11-9.72-6.73-6.35-9.67-12.45-13.32-16.26-2.73-2.96-4.15-7.43-4.15-11.32.1-3.3.32-4.38-.03-7z"/>
    <path fill="#fff" d="M92.83 65.84c.02.26-.3 1.32-1.34 1.47-1.05.13-1.74-.65-1.82-1.18-.07-.52.4-1.18 1.24-1.29 1.2-.15 1.89.74 1.92 1z"/>
    <path class="secondary" d="M109.27 134.95a4.27 4.27 0 00-1.42-1.66s-1.31-.55-1.68.53c-.45 1.28 0 1.42.24 1.6 0 0 .76-.32 1.47.08.97.44 1.02 1.81 1.34 1.94.36-.44.34-1.86.05-2.5zm-22.75 2.33c.2-.7.57-1.36 1.08-1.89.24-.15 1.26-.63 1.73.21.58 1 .06 1.63.06 1.63s-.82-.16-1.45.37c-.9.6-.68 1.97-.94 2.15-.4-.36-.64-1.78-.48-2.47zm-2.31-5.41a4.1 4.1 0 011.66-1.39s1.36-.34 1.57.79c.19 1.13-.5 1.55-.5 1.55s-.7-.42-1.47-.13c-1.02.29-1.31 1.6-1.63 1.7-.26-.52 0-1.94.37-2.52zm2.55-5.51c.97-.55 2.13-.45 2.13-.45s1.36.34 1 1.45c-.37 1.1-1.19 1.13-1.19 1.13s-.42-.71-1.23-.82c-1.05-.24-1.92.82-2.26.74.05-.58.94-1.71 1.55-2.05z"/>
    <path class="secondary" d="M96.16 131.69c-1 0-1.6-2.08-1.76-2.26-.37-.5-.81-.31-1.29-.63-.2-.13-.5-.31-.5-.58 0-.65-.34-1.39-1.62-1.68 0 0-.06-.76-.66-1-.94-.47-1.37.16-1.34.37.9 1.55-.34 2.31-.34 2.31s-.1.5.58.87c.84.42 1.05-.4 1.39-.32.31.24.74.35.95.69.1.15.13.55.23.7.47.8.92.43 1.45 1.27-.69 0-.9.15-1.68-.19-.24-.1-1-.44-1.19-.63-.65-.65-1.36-.65-2.36-.55 0 0-.37-.7-1-.63-1.05.03-1.2.79-1.08.97 1.53.95.8 2.2.8 2.2s.15.48.91.48c.95-.02.74-.86 1.08-.92.37.06.92.06 1.26.24.16.08.29.34.42.42.79.47 2.05-.16 3.47.81-.63-.05-.8.42-1.34.56-.24.05-.76 0-1-.11-.71-.32-1.45-.37-2.08.26 0 0-.68-.6-1.23-.31-.97.37-.79 1.15-.6 1.28 1.76.4 1.5 1.82 1.5 1.82s.3.4 1.02.13c.86-.34.42-1.05.7-1.24.37-.08.69-.26 1.08-.2.19.02.69.23.87.26.9.18 2.5-.53 3.36-.92 0 0 .24-.1.74-.45.42-.13 1.02-.4 1.13-.34.57.08 1.18.63 1.76.58.26-.03.5-.21.73-.3.87-.28 1.7.59 2.55.24.16-.05.55-.28.7-.34.35-.13.56-.02.95-.02.35.13.14.92 1.05 1.07.77.13.87-.31.87-.31s-.52-1.34 1.13-2.05c.16-.16.24-.95-.81-1.13-.6-.18-1.19.5-1.19.5-.86-.6-1.47-.18-2.07.29-.21.16-.5.16-.74.16-.55-.03-.81-.45-1.39-.3-.23.06-.44.22-.68.27-.29.08-.6.03-.9.03-.83 0-.36-.35-.65-.66-.16-.18 0-.37 0-.37l.5-1.65s2.55-7.1 2.6-7.38c.05-.92-1.84-.84-1.84-.84l-1.34 3.17c-.03.08 0 .08-.18.48-.3.2-.55 1.31-.48 1.47-.23.13-.57.97-.44 1.36-.21.21-.5 1.03-.47 1.34-.3.19-.56.87-.4 1.13-.08.16-.13 0-.29.24-.37.42-.29.42-.84.34z"/>
    <path d="M107.2 113.96c-.61.53-1.43 5.17-1.3 5.67.14.48.22.92-.23 1.24-.58.37-.87 2-.79 2.7-.18.06-.4-.15-.55-.05-.05.03-.08.1-.1.16-.19.52-.27 1.1-.3 1.65-.1-.02-.15-.13-.2-.2-.05-.07-.16-.16-.27-.11-.05.02-.08.08-.08.1-.1.24-.18.53-.15.8.02.99-.63.49-.9-.06-.18-.4-.42-.9-.42-1.34-.29.13-.5.24-.7.31 0 0 .34-1.02.31-1.41-.29.02-.63-.03-1.16.15-.55.19-2.33 1-2.36.53 0-.47.4-.9.37-1.37-.03-.6.2-1.7.37-2.5.26-1.9-.9-4.82-1.76-6.2a15.23 15.23 0 01-1.84-5.64m14.1 6.86c1.08 3.88 2.79 5.7 5.26 8.11.57.53 1.41.9 2.23 1.1.4-.05.79.09 1.07.2.87.65 1.48 1.62 2.42 1.67.4-.05.92-.13 1.2.19 1.56 1.62 3.06 1.47 4.6 2.36.4.1.8.08 1.19-.13.23-.19.08-.6-.08-.9-1.24-1.8-4-5.59-5.36-8.27-1.08-2.1-.85-1.92-2.03-3.97"/>
    <path fill="none" d="M117.88 115.72c1.13 4.41 5.55 11.35 7.15 12.66m-9.9-12.66c1.18 3.97 4.2 8.8 6.3 10.8m-10.17-13.03c1.13 5.12 4.05 9.16 6.62 11.19"/>
    <g fill="#000" stroke="none">
      <path d="M84.97 113.96c-.75-.84.84-1.73.38-.52-.13.19-.13.68-.38.52zm-1.28-.31c-.81-1.36 1.49-1.17 0 0zm-1.42-.27c-.5-1.29 1.24-1.31 0 0zm-1.66-.39c-.35-1.3 1.6-1.36 0 0zm-1.47-.29c-.3-.56.47-1.47.5-.6-.06.19-.33 1-.5.6zm9.36 3.41c1.29-.38 3.39-2.68 1.51-.42-.48.42-1.36 1.72-1.51.42zm-1.9 0c.75.2 2.69-1.86 1.76-.62-.41.4-1.69 2-1.76.62zm5.73-1.13c.1-.93 2.83-3.62 1.79-1.83-.43.7-.83 1.8-1.79 1.83zm23.02-13.78c4.07 1.41 8.3 2.4 12.36 3.86-3.92-.81-8-1.6-11.8-3zm3 3.57c2.4.6 4.94 1.17 7.02 1.67-2.08-.2-4.17-.5-6.24-.88zM78 113.6c1.39-.8.56 1.04-.01-.01zm.44 6.66c.57-.78 2.31-.18 1.18.1-.34-.2-.98-.1-1.18-.1zm-2.76-11.16c.63 1.35 1.07 2.67-.29.85-.36-.57-.49-.82.29-.85zm-1.97-3.86c-.36 1-2.32 1.42-.68.15-.13-.55.45-.11.68-.15zm3.76 5.94c-.44-.98-.84-3.08.14-3.4.45 1.1-.38 2.26-.14 3.4zm-.16-8.54c-1.22.81-2.28.54-.57-.35.18.12.4.22.57.35zm4.15 1.89c-1.08.34-2.47-.72-.55-.37.31-.45.38.23.55.37zm2.92-39.55c-.28-1.56 1.93-.53.58.05-.34-.99.42-.07-.58-.05zm-.66-.5c.1 2.07-1.21-.15 0-.01zm-.13 1.94c.21.84 1.94.36 1.7 1.34-.65-.27-2 .17-1.88-.95zm7.85 8.43c.9 1.23.28 3-.29 1.12-.07-.4.02-.84.29-1.12zm6.49-1.5c1 1.53-.94 2.93-.32.53zm-4.2-10.71c1.78-.55 2.88 1.64.5.31zm-2.89 5.33c1.38-.3 3.33-1.2 1.42.24-.48.23-1.08.18-1.42-.24zm-2.53-4.26c.46 1.77 1.77-.05 2.83.05 2.4 0-1.86 1.77-2.56.97a.9.9 0 01-.27-1.02zm-.02 2.34c.85 1 .98 2.98 0 1.21-.08-.39-.2-.83 0-1.21zm2.58 3.97c-.34.92-2.26-.09-.71-.08l.31.03zm5.38-2.32c.91.52-.87 1.52-.4.56.1-.2.28-.37.4-.56zM94.93 69c.32 1-1.5 1.1-.48.24.13-.12.37-.15.48-.24zm-1.95.83c.2 1.3-2.72.54-.76.25l.34-.11zm4.07-2.41c-.8-1.75.84-1.86.1-.08l-.06.05zm-4.2-3.21c.46-.42 1.88.55.82.64-.39.03-.73-.27-.82-.64zm-4.59 4.94c1.3.02-.25 1.07 0 0zm1.86-6.8c.76-.96 1.17.74.04.04zm1.78.13c1.12-1.07 1.12.92 0 0zm4.16 1.73c.65-.2 1.07 1.2.38.86-.15-.24-.58-.53-.38-.86zm-4.86 1.66c.22 2.25-1.62-1.33.05-.55zM98 78.1c.98 1.36-1.38 5.16-.56 1.56.2-.52.53-1 .56-1.56zm7.1 16.19c-1.06-.8-2.78-.86-3.34-2.28-.69-.43-1.64-.07-2.47-.48-2.36-.16.96-.55 1.62-.29 1.51-.62 1.63 1.74 3.02 1.95.49.23.95.6 1.17 1.1zm-10.86-10.4c.37.9-1.17 2.73-1.69 2.03-.1-.74 1.98-.69 1.69-2.03zm2.71 1.78c.14.84-1.18 1.32-1.66.79.46-.44 1.08-.59 1.66-.79zm-.32 8.59c.4-.38 2.16-.13 1.19.4-.4.15-1.03.06-1.19-.4zm-2.02.53c2.3-.5 1.41 1.68 0 0zm-2.86-1.13c.7.55 1.66 1.88.2 1.18-.38-.24-.55-.84-.2-1.18zm-2.15-.08c1.04.1 1.6 1.93.32.96a.95.95 0 01-.32-.96z"/>
      <path d="M90.23 97.36a19.18 19.18 0 007.6 5.97c1.26.44 2.58.87 3.94.86.54.23 1.33-.73 1.22-.56-.36.92-1.27.91-2.12.93-1.17-.02-2.04-.27-3.14-.56a13.97 13.97 0 01-6.4-4.74c-.42-.6-.8-1.23-1.1-1.9zm11.11.58c2.13 2.15 4.26 4.46 7.15 5.55 1.16.15 2.49.5 3.5-.25.26-.11-.73.84-1.17.77-1.17.14-1.9.19-3.04-.12-.78-.31-1.38-.73-2.11-1.19-1.7-1.1-2.9-2.76-4.09-4.36l-.13-.21z"/>
      <path d="M96.77 98.41c1.7 2.1 4.1 3.41 6.43 4.68 1.16.36 2.44.46 3.63.23.39-.01-1.36.75-1.97.48-.25.14-1.36.05-1.95-.16-2.32-1.08-4.61-2.56-5.93-4.81a6.12 6.12 0 01-.21-.42zm9.37.16c1.68 1.5 3.14 3.43 5.32 4.21.64.2 2.3.33.75.44-2.41.2-4.21-1.8-5.47-3.6a6.79 6.79 0 01-.6-1.05zm7.36 3.83c-.54-1.13-1.88-1.73-2.5-2.86-.35-.46-1.08-1.6-.08-.73a9.15 9.15 0 012.63 3.06c.04.18.05.37-.05.53zm1.02 2.26c3.94 4.4 9.1 7.35 13.71 10.97.27.23 1.42 1.06.04.18-4.52-2.68-9.22-5.43-12.6-9.55-.4-.52-.8-1.05-1.15-1.6zm-3.6.74c2.2 2.71 5.25 4.49 8.06 6.48 2.45 1.67 5 3.2 7.47 4.86a53.46 53.46 0 01-13.1-8.26 14.7 14.7 0 01-2.43-3.08zm-4.17 1.15c2.47 2.07 5.37 3.51 8.01 5.34a76.9 76.9 0 008.45 4.54c-4.2-1.17-8.03-3.35-11.57-5.86-1.75-1.18-3.53-2.38-4.89-4.02z"/>
      <path fill="none" stroke="#000" d="M91.72 85.75c-.76-.1-1.78.24-2.28.29-1.34.16-2.9 2.08-3.31 3.07-.42 1-.9 3.55.68 7.25 1.08 3.31 3.44 5.33 5.6 7.2 2.15 1.89 6.75 4.44 11.24 5.86 3.33 1.36 5.99 3.2 8.56 4.46 2.39 1.21 4.8 1.84 6.33 2.37"/>
      <path d="M105.17 94.29c-.8-.77-2.1-.67-2.83-1.56-.3-.25-.4-.64-.66-.91-.44-.14-.87.38-1.32.05-.55-.48-1.4-.27-1.99-.4a2.5 2.5 0 012-.24c.4.36.7-.16 1.1-.15.6-.03.9.52 1.12.98.44.76 1.32 1 1.99 1.49.24.2.48.44.59.74zm-8.14-8.62c.1.76-.83 1.16-1.46.96-.54-.26.56-.65.88-.76.19-.07.38-.15.58-.2zm-.34 8.59c.49-.17 1.11-.33 1.53.04-.14.53-1.04.55-1.4.19l-.08-.1zm-2.03.55c.4-.14 1.62 0 1.37.5-.46.28-1.24.06-1.37-.5zm-2.86-1.15c.3.5.89.77 1.17 1.24-.31.32-.97.05-1.22-.3-.23-.28-.13-.7.05-.94zm-2.15-.06c.47.15 1.36.78 1.13 1.24-.66.1-1.3-.6-1.13-1.24zm5.88-8.56c-.56.43-1.44 1.3-2.38 1.2l-1.44-.17.08-.66s1.11.29 1.92.18c.45-.06 1.39-.66 1.82-.55zM90.3 97.39a18.82 18.82 0 008.1 6.15c1.33.37 2.73.9 4.13.57.45-.25.78-.96.37-.1-.56.59-1.27.56-2.07.57-1-.02-1.72-.24-2.64-.44a14.07 14.07 0 01-6.7-4.72 12.5 12.5 0 01-1.19-2.03zm11.09.55c2.13 2.15 4.27 4.46 7.15 5.55 1.16.15 2.49.5 3.51-.25.24-.1-.74.84-1.18.77a6.77 6.77 0 01-2.93-.1c-.89-.3-1.63-.82-2.43-1.36-1.6-1.13-2.8-2.74-3.94-4.31l-.14-.24z"/>
      <path d="M96.82 98.41c1.7 2.1 4.1 3.41 6.43 4.68 1.16.36 2.44.46 3.63.23.39-.01-1.36.75-1.97.48-.25.14-1.36.05-1.95-.16-2.43-1.16-4.93-2.73-6.14-5.23zm9.38.16c1.68 1.5 3.13 3.43 5.31 4.21.65.2 2.31.33.75.44-2.45.2-4.29-1.86-5.53-3.72a11 11 0 01-.53-.93zm7.38 3.83c-.54-1.13-1.88-1.73-2.5-2.86-.35-.46-1.08-1.6-.08-.73a10.3 10.3 0 012.58 2.88c.07.23.1.49 0 .71zm1.02 2.29c4.14 4.62 9.63 7.63 14.39 11.51-4.35-2.51-8.76-5.12-12.26-8.78a21.3 21.3 0 01-2.13-2.73zm-3.62.71c2.19 2.72 5.24 4.48 8.05 6.48 2.45 1.67 5 3.2 7.47 4.86-4.64-2.07-9-4.77-12.86-8.08a15.22 15.22 0 01-2.66-3.26zm-4.18 1.15c2.47 2.07 5.37 3.51 8.01 5.34a77.12 77.12 0 008.45 4.54c-4.2-1.17-8.03-3.35-11.58-5.86a22.6 22.6 0 01-4.88-4.02z"/>
      <path fill="none" stroke="#000" d="M91.8 85.75c-.76-.1-1.78.24-2.28.29-1.34.16-2.9 2.08-3.31 3.07-.42 1-.9 3.55.68 7.25 1.08 3.31 3.44 5.33 5.6 7.2 2.15 1.89 6.74 4.44 11.24 5.86 3.33 1.36 5.98 3.2 8.56 4.46 2.39 1.21 4.8 1.84 6.33 2.37"/>
      <path d="M105.38 134.05c-.17-.53-.22-1.2.16-1.65.08-.11.14.1.21.14l.26.31c-.3.14-.44.49-.49.8-.07.11.02.4-.14.4zm-15.73 0c.18.11.28.3.38.48.12.23.15.48.16.73 0 .15 0 .3-.02.45h-.08c-.05-.26-.15-.5-.3-.73l-.2-.25a.82.82 0 00-.26-.12l.32-.56z"/>
      <path fill="#f6f6f6" d="M96.42 132.27c-1.15.13-1.78-.84-3.2-.84"/>
      <path d="M96.42 132.27c-1.08.3-2.2-.55-3.18-.6-.23-1.24 1.52-.15 2.04.15.34.22.77.38 1.14.45zm-8.16-2.42c.33.5.23 1.36-.14 1.71.35-.64-.72-1.25.01-1.6l.13-.11zm3.04-3.41c.3.74-1.49 2.19-.6.8.15-.6-.16-.72.6-.8zm8.75-.37c-.83-.1-.8.27-1.06-.36-.22-.55 1.12.12 1.08.35zm-.61 1.44c-.63.2-1.09.04-.84-.57.28.1.82.27.84.57zM99 128.9c-.62.08-.86.08-1.03-.54.4-.12.85.27 1.03.54zm-.5 1.35c-.52-.12-.85.1-1-.53.19-.27 1.06.17 1 .53zm-.37 1.18c-.51-.14-.89.23-.89-.5-.12-.4 1.26.4.89.5zm-3.31-22.96c-.26-.37-.86-2.06-.08-.87.38.25 1.16 1.25.25.9-.06 0-.11-.02-.17-.03zm13.48 4.31c-.22.7-1.23 1.9-1.16.82.38-.19.8-.9 1.16-.82zm-4.42 11.24c.31-.79-.15-2.63-.15-2.78.37.73 1.2 2.52.54 2.86l-.39-.08zm-.94 1.63c.38-.64.1-2.16.1-2.3.32.59.95 2.22.26 2.37l-.36-.07zm1.96-6.15c-.33-1.05-1.68-2.02-.96-3.2.22 1.09 1.57 2.03.96 3.2zm-11-14c.59-.04 1.48 1.28.48 1a.8.8 0 01-.48-1zm10.09 8.1c.64-.27 1.28.47 1.46 1.04.3.88-.57.1-.83-.2-.25-.25-.37-.64-.63-.84z"/>
    </g>
  </g>
</svg>
