<svg xmlns="http://www.w3.org/2000/svg" fill="#d7374a" stroke="#000" viewBox="50 50 200 200">
  <metadata source="http://wappenwiki.org/images/9/9e/De_Paule.svg" license="https://creativecommons.org/licenses/by-nc-sa/3.0"/>
  <g id="peacockInPride" stroke-width="2.13" transform="matrix(.176 0 0 .176 60 7)">
    <path fill="#3E933E" stroke-width="1.78" d="M246.6 660.3a1 1 0 0 1 1.7.5c.9 2.7.6 5.9.2 8.8-.4 3.5-1 6.1.7 9.2 1.4 2.5 4.9 4.1 7.4 3 .6-.3 1.4.2 1.5.9 1 5.7 6.9 9.4 12.7 10.9 5.2 1.4 5.9 4.1 8.3 3.6 2.4-.5 2.1-3.2 6.5-6.4 4.8-3.5 9.1-9.1 8-14.7-.1-.7.4-1.4 1.1-1.4 2.7.1 5.4-2.6 5.8-5.4.5-3.5-1-5.7-2.6-8.8-1.4-2.6-2.1-5.5-2.9-8.3-.2-.8-.9-4.2-.5-7.3l3.7 4c1.9 2.2 2.8 5.2 3.6 8 1 3.4 1.5 6 4.2 8.2 2.3 1.8 6.1 1.8 8-.1.5-.5 1.3-.4 1.7.2 3.1 4.8 10.1 6 15.9 5.1 5.3-.7 7 1.5 9.1.1s.7-3.8 3.5-8.4c3.1-5.1 4.8-11.9 1.6-16.7-.4-.6-.2-1.4.5-1.7 2.5-1 4-4.5 3.3-7.3-.9-3.4-3.1-4.9-5.8-7.1-2.3-1.9-4.1-4.2-5.9-6.5-.5-.6-4.7-6.3-4.8-7.5.6.6 7.1 3.5 7.8 3.9 2.6 1.3 4.5 3.8 6.2 6.2 2.1 2.8 3.5 5.1 6.8 6.2 2.8.9 6.3-.4 7.4-2.9.3-.6 1.1-.8 1.7-.4 4.6 3.4 11.5 2 16.7-.8 4.7-2.6 7.1-1.1 8.6-3.1s-.7-3.8.3-9.1c1.1-5.8.3-12.8-4.4-16.1-.6-.4-.7-1.3-.1-1.7 2-1.8 2.2-5.6.5-8-2-2.9-4.7-3.5-8-4.6a20 20 0 0 1-7.8-4l-7.3-6.3s9 1.4 9.8 1.4a20 20 0 0 1 8.4 2.6c3.1 1.5 5.5 2.9 8.9 2.3 2.9-.5 5.4-3.3 5.2-6 0-.7.6-1.3 1.3-1.1 5.7.9 11.1-3.5 14.5-8.4 3-4.5 5.8-4.2 6.2-6.7.4-2.5-2.4-3.1-3.9-8.2-1.7-5.7-5.6-11.5-11.3-12.3-.7-.1-1.2-.8-.9-1.5 1-2.5-.6-6-3.2-7.3-3.1-1.6-5.7-.9-9.2-.4-2.9.4-6 .9-8.8 0l-9.4-2.1s8.3-1.9 9-2.2a20 20 0 0 1 8.8-.5c3.5.3 6.2.8 9.2-1 2.5-1.5 3.9-5 2.8-7.5a1 1 0 0 1 .8-1.5c5.6-1.1 9.2-7.2 10.6-13 1.2-5.2 3.9-6 3.4-8.4-.5-2.4-3.3-2.1-6.6-6.3-3.6-4.7-9.3-8.8-14.9-7.5-.7.2-1.4-.4-1.4-1.1 0-2.7-2.7-5.3-5.6-5.7-3.5-.4-5.7 1.1-8.8 2.9a36.5 36.5 0 0 1-13.3 2.9c-2.9.1-6.4-.2-6.4-.2s4.5-3.7 9.1-5.7c2.6-1.2 5.6-1.7 8.6-1.8 3.5-.2 6.2-.1 8.9-2.4 2.2-1.9 3.1-5.6 1.6-7.8a1 1 0 0 1 .6-1.6c5.4-2 8-8.5 8.4-14.4.4-5.3 3-6.5 2.1-8.9-.9-2.3-3.6-1.5-7.4-5.2-4.3-4.1-10.6-7.3-15.9-5.2-.7.3-1.4-.1-1.5-.8-.4-2.7-3.5-4.9-6.4-4.8-3.5.1-5.5 2-8.2 4.2-2.3 1.8-12.2 5-15 5.7 1.1-2.3 4.7-6.1 5.2-6.7 2-2.1 4.8-3.3 7.6-4.4 3.2-1.3 5.9-2.1 7.7-5 1.6-2.5 1.2-6.2-.9-7.9-.6-.4-.5-1.3.1-1.7 4.5-3.6 4.9-10.6 3.5-16.4-1.3-5.2.8-7.1-.8-9.1-1.6-1.9-3.9-.3-8.7-2.7-5.3-2.6-12.3-3.6-16.7.1-.5.5-1.4.3-1.7-.3-1.2-2.4-4.8-3.5-7.6-2.5-3.3 1.2-4.6 3.6-6.5 6.5a28.2 28.2 0 0 1-5.9 6.5c-3.4 2.8-8.9 4.8-8.9 4.8.5-3.1 3.3-7.9 4.9-9.5 2.1-2 4.3-4.1 6.8-5.6 3-1.8 5.5-3 6.8-6.2 1.1-2.7.2-6.4-2.2-7.7-.6-.3-.7-1.2-.2-1.7 3.9-4.2 3.2-11.2.9-16.7-2.1-4.9-.4-7.2-2.2-8.8-1.9-1.7-3.9.3-9-1.2-5.7-1.7-12.7-1.6-16.5 2.7-.5.5-1.3.5-1.7 0-1.6-2.2-5.3-2.7-7.9-1.3-3 1.7-3.9 4.3-5.4 7.5a50.8 50.8 0 0 1-4.9 8.5c-1.5 2-3.2 3.8-4.8 4.5 0 0-.6-2.7 0-4.9.7-2.8 3.9-9.2 5.3-11.8 1.7-3.1 3.2-5.3 2.8-8.8-.4-2.9-3-5.6-5.7-5.6-.7 0-1.2-.7-1.1-1.4 1.2-5.6-2.9-11.3-7.6-14.9-4.3-3.2-3.9-6-6.4-6.5-2.4-.5-3.2 2.2-8.4 3.5-5.8 1.4-11.8 5-12.9 10.6a1 1 0 0 1-1.5.8c-2.5-1.1-6 .3-7.5 2.8-1.8 3-1.3 5.7-.9 9.2.3 2.9 0 5.9-.4 8.8l-2.5 13.3-2.5-13.3c-.5-2.9-.7-5.8-.4-8.8.3-3.5.9-6.2-.9-9.2-1.5-2.5-5-3.9-7.5-2.8-.6.3-1.4-.2-1.5-.8-1.1-5.7-7.2-9.2-12.9-10.6-5.2-1.3-6-4-8.4-3.5-2.4.5-2.1 3.3-6.4 6.5-4.7 3.6-8.9 9.3-7.6 14.9.2.7-.4 1.4-1.1 1.4-2.7 0-5.4 2.7-5.7 5.6-.4 3.5 1.1 5.7 2.8 8.8 1.4 2.6 4.6 9 5.3 11.8.6 2.1 0 4.9 0 4.9-1.6-.7-3.3-2.5-4.8-4.5a44.7 44.7 0 0 1-4.9-8.5c-1.4-3.2-2.3-5.8-5.4-7.5-2.5-1.4-6.3-.9-7.9 1.3a1 1 0 0 1-1.7 0c-3.8-4.3-10.8-4.4-16.5-2.7-5.1 1.5-7.2-.4-9 1.2-1.9 1.7-.2 3.9-2.2 8.8-2.3 5.5-3 12.5.9 16.7.5.5.4 1.4-.2 1.7-2.4 1.3-3.3 5-2.2 7.7 1.4 3.2 3.8 4.4 6.8 6.2 2.5 1.5 4.7 3.6 6.8 5.6 1.6 1.6 4.4 6.4 4.9 9.5 0 0-5.6-2-8.9-4.8a30.5 30.5 0 0 1-5.9-6.5c-1.9-2.9-3.2-5.3-6.5-6.5-2.7-1-6.4.1-7.6 2.5-.3.6-1.2.8-1.7.3-4.4-3.7-11.4-2.6-16.7-.1-4.8 2.3-7.1.7-8.7 2.7-1.6 1.9.5 3.9-.8 9.1-1.4 5.8-1 12.8 3.5 16.4.6.4.6 1.3.1 1.7-2.1 1.7-2.5 5.5-.9 7.9 1.9 3 4.5 3.7 7.7 5 2.7 1.1 5.6 2.3 7.6 4.4.5.6 4.1 4.3 5.2 6.7a61.9 61.9 0 0 1-15-5.7c-2.7-2.2-4.7-4-8.2-4.2-2.9-.1-6 2.1-6.4 4.8a1 1 0 0 1-1.5.8c-5.4-2.1-11.6 1.1-15.9 5.2-3.9 3.7-6.6 2.9-7.4 5.2-.9 2.3 1.7 3.5 2.1 8.9.5 5.9 3 12.5 8.4 14.4.7.2 1 1.1.6 1.6-1.5 2.3-.6 6 1.6 7.8 2.7 2.2 5.4 2.1 8.9 2.4 2.9.2 5.9.7 8.6 1.8 4.5 2 9.1 5.7 9.1 5.7s-3.5.4-6.4.2c-5-.2-10.7-1.4-13.3-2.9-3-1.7-5.3-3.3-8.8-2.9-2.9.3-5.6 3-5.6 5.7 0 .7-.7 1.2-1.4 1.1-5.6-1.3-11.3 2.8-14.9 7.5-3.3 4.3-6 3.9-6.6 6.3-.5 2.4 2.2 3.2 3.4 8.4 1.4 5.8 4.9 11.8 10.6 13 .7.1 1.1.9.8 1.5-1.1 2.5.3 6 2.8 7.5 3 1.8 5.7 1.3 9.2 1a20 20 0 0 1 8.8.5c.7.3 9 2.2 9 2.2l-9.4 2.1c-2.8.8-5.9.4-8.8 0-3.5-.5-6.1-1.2-9.2.4-2.6 1.3-4.2 4.8-3.2 7.3.3.7-.2 1.4-.9 1.5-5.7.8-9.6 6.6-11.3 12.3-1.5 5.1-4.3 5.8-3.9 8.2.4 2.5 3.2 2.3 6.2 6.7 3.3 4.9 8.8 9.3 14.5 8.4.7-.1 1.4.4 1.3 1.1-.2 2.7 2.4 5.5 5.2 6 3.4.6 5.8-.8 8.9-2.3 2.6-1.3 5.5-2.6 8.4-2.6.8 0 9.8-1.4 9.8-1.4l-7.3 6.3a20 20 0 0 1-7.8 4c-3.3 1.1-6 1.7-8 4.6-1.7 2.4-1.5 6.2.5 8 .5.5.4 1.3-.1 1.7-4.7 3.3-5.5 10.3-4.4 16.1 1 5.3-1.1 7.1.3 9.1 1.5 2 3.8.5 8.6 3.1 5.2 2.8 12.1 4.3 16.7.8.6-.4 1.4-.2 1.7.4 1.1 2.5 4.6 3.8 7.4 2.9 3.3-1 4.8-3.4 6.8-6.2 1.8-2.4 3.7-4.8 6.2-6.2.7-.4 7.2-3.3 7.8-3.9-.1 1.2-4.3 6.9-4.8 7.5-1.8 2.3-3.6 4.6-5.9 6.5-2.7 2.2-5 3.7-5.8 7.1-.7 2.8.7 6.3 3.3 7.3.7.3.9 1.1.5 1.7-3.2 4.8-1.5 11.6 1.6 16.7 2.8 4.6 1.4 7 3.5 8.4 2.1 1.4 3.8-.9 9.1-.1 5.9.8 12.8-.3 15.9-5.1.4-.6 1.2-.7 1.7-.2 1.9 1.9 5.7 1.9 8 .1 2.8-2.1 3.3-4.8 4.2-8.2.8-2.8 1.7-5.8 3.6-8l3.7-4a20 20 0 0 1-.5 7.3c-.8 2.8-1.5 5.7-2.9 8.3-1.6 3.1-3.1 5.4-2.6 8.8.4 2.9 3.1 5.5 5.8 5.4.7 0 1.2.7 1.1 1.4-1.1 5.6 3.1 11.3 8 14.7 4.4 3.1 4.1 5.9 6.5 6.4 2.4.5 3.2-2.3 8.3-3.6 5.7-1.5 11.7-5.2 12.7-10.9.1-.7.9-1.2 1.5-.9 2.5 1.1 6-.5 7.4-3 1.7-3.1 1.1-5.7.7-9.2a20 20 0 0 1 .2-8.8 1 1 0 0 1 1.7-.5"/>
    <line fill="none" stroke-width="1.78" x1="225.6" y1="349.6" x2="225.6" y2="364.4"/>
    <g stroke="none" fill="#000">
      <path d="M195.7 326.6a222 222 0 0 0-.8-8.1l-.7-4-.5-2-.4-.9-.5-.9.7.8.5.9.8 1.9c.5 1.3.9 2.6 1.2 4 .7 2.7 1.4 5.3 1.9 8.1l-2.2.2zm5.9-16.3c.8 1.2 1.3 2.6 1.7 4 .4 1.4.6 2.9.8 4.3.1 1.5.2 2.9.1 4.4-.1 1.5-.2 3-.8 4.5l-2-.8c.5-1.1.9-2.5 1.1-3.9.2-1.4.4-2.8.4-4.2 0-1.4 0-2.8-.2-4.2-.1-1.4-.5-2.8-1.1-4.1zm9.2 8.8a22.2 22.2 0 0 1-.3 9.5c-.2 1.1-.5 2.1-1.1 3.2l-1.8-1.2c.5-.7 1-1.6 1.3-2.5.4-.9.7-1.9.9-2.9.6-2 1-4 1-6.1zm6.3 5.3a46.8 46.8 0 0 1-.6 12.9c-.3 2.1-.8 4.3-1.3 6.4-.6 2.1-1.3 4.2-2.3 6.2l-1.9-1a61.3 61.3 0 0 0 6.1-24.5zm5.6 20.4a60 60 0 0 1-5.5 13.4 31.7 31.7 0 0 1-10.5 10.3l-1.1-1.9a26.5 26.5 0 0 0 10.7-9c2.8-3.9 4.7-8.4 6.4-12.8zm-36.9-31.3c-.1 1.4.2 2.9.5 4.2a27.4 27.4 0 0 0 6.2 10.8L191 330a16.2 16.2 0 0 1-2.5-3.9c-.7-1.3-1.2-2.7-1.7-4.1a20.7 20.7 0 0 1-1-8.5zm-4.9 11.7a25.8 25.8 0 0 0 7.4 9.4l-1.2 1.8c-1-.8-1.6-1.6-2.3-2.5l-1.7-2.7c-.8-2-1.7-3.9-2.2-6zm-3.2 7.3a57.9 57.9 0 0 0 15.3 20.1l-1.3 1.7a41.6 41.6 0 0 1-4.6-4.8c-1.4-1.7-2.6-3.5-3.8-5.3a52.4 52.4 0 0 1-3.2-5.7c-.8-2-1.7-3.9-2.4-6zM182.5 354.1c3.2 3.3 6.6 6.5 10.5 8.8 2 1.1 4.1 2 6.2 2.6 2.2.6 4.4.9 6.7 1l-.2 2.1c-2.3-.4-4.7-.8-6.9-1.6s-4.4-1.9-6.3-3.2c-4-2.7-7.1-6.2-10-9.7zm39.9 4a47.6 47.6 0 0 1-4.5 11.3 30.5 30.5 0 0 1-3.8 4.9 29.3 29.3 0 0 1-4.9 3.8l-1.1-1.9a25.8 25.8 0 0 0 8.9-7.5 48 48 0 0 0 5.4-10.6zM188.7 367.4a32 32 0 0 0 8.9 6.7c3.3 1.5 7 1.9 10.7 2.1l-.2 2.1c-1.9-.3-3.8-.6-5.6-1.1-1.9-.5-3.7-1.2-5.4-2.1-3.4-2-6-4.9-8.4-7.7zm8 14.5c.4.6.9 1 1.4 1.4l1.8.9c1.3.5 2.6.7 3.9.9 2.7.4 5.4.5 8.1.6l-.2 2.1c-2.7-.5-5.4-1-8.1-1.7-1.3-.4-2.7-.8-3.9-1.5-.6-.3-1.2-.7-1.7-1.2-.5-.4-1-.9-1.3-1.5zm3 8.8c.4.6.9 1 1.4 1.4l1.8.9c1.3.5 2.6.7 3.9.9 2.7.4 5.4.5 8.1.6l-.2 2.1c-2.7-.5-5.4-1-8.1-1.7-1.3-.4-2.7-.8-3.9-1.5-.6-.3-1.2-.7-1.7-1.2-.6-.3-1-.8-1.3-1.5zM204.4 357.1l2.2 8.2 2 8.3 2 8.3a59 59 0 0 1 1.5 8.4l-.2.1c-1.1-2.6-2-5.3-2.8-8.1l-2.3-8.2-2.3-8.2-2.2-8.2 2.1-.6z"/>
    </g>
    <ellipse fill="#F2BC51" transform="rotate(-11.7 200 342)" cx="200" cy="341.9" rx="12.3" ry="15.8"/>
    <path fill="#BC2E2E" d="M193.5 350.1c1.1 4.9 6 8 9.7 7.2s6.9-5.7 5.9-10.6-5.5-5.9-9.3-5.1c-3.6.9-7.3 3.6-6.3 8.5z"/>
    <g stroke="none" fill="#000">
      <path d="M145.3 354.1a100.7 100.7 0 0 0-7.4-9.7l-1.4-1.4c-.3-.2-.5-.5-.8-.6l-.9-.5 1 .4.9.5 1.6 1.3c1.1.9 2.1 1.8 3 2.8 2 1.9 3.8 3.9 5.7 6l-1.7 1.2zm-3.1-17.1c1.3.6 2.5 1.6 3.5 2.6s2 2.2 2.8 3.4c.9 1.2 1.6 2.5 2.3 3.8.7 1.3 1.3 2.7 1.6 4.3l-2.1.3a15 15 0 0 0-1-3.9l-1.7-3.9c-.7-1.2-1.4-2.4-2.3-3.6a11 11 0 0 0-3.1-3zm12.4 3a26.2 26.2 0 0 1 5.2 11.6l-2.1-.1a9 9 0 0 0-.1-2.8l-.6-3c-.6-1.9-1.4-3.9-2.4-5.7zm8.1 1.4a51.5 51.5 0 0 1 5.9 11.5 44.8 44.8 0 0 1 3.1 12.7h-2.1c0-2-.2-4.1-.6-6.2a69.8 69.8 0 0 0-6.3-18zm13 16c1.1 4.7 2.1 9.5 1.9 14.4a30.7 30.7 0 0 1-3.9 14.1l-1.8-1.1a31.1 31.1 0 0 0 4.8-13.2c.3-4.7-.3-9.5-1-14.2zm-45.5-9.7c.7 1.3 1.6 2.4 2.6 3.4s2.1 1.9 3.3 2.7l3.6 2.2c1.2.6 2.6 1.2 3.8 1.4l-.5 2.1c-1.6-.5-2.8-1.3-4.1-2.1a29.7 29.7 0 0 1-6.5-5.9c-.9-1.2-1.7-2.5-2.2-3.8zm1.7 12.6a28.6 28.6 0 0 0 8.3 4c1 .3 2 .4 2.8.4l-.1 2.1a15 15 0 0 1-3.2-1c-1-.4-1.9-1-2.8-1.5a25 25 0 0 1-5-4zm.8 7.9c3.4 2.6 7.3 4.6 11.2 6.2 2 .8 4 1.6 6 2.2 2 .6 4.1 1.1 6.1 1.3l-.3 2.1a62.8 62.8 0 0 1-23-11.8zM144.9 386a47 47 0 0 0 13.9 2.2 26 26 0 0 0 6.8-1c2.2-.6 4.4-1.5 6.4-2.5l.9 2c-2.2.9-4.5 1.6-6.9 2.1a25 25 0 0 1-7.2.5c-4.9-.3-9.5-1.7-13.9-3.3zm36.8-19.4c1 4.4 1.9 8.9 1.8 13.5-.1 2.3-.4 4.6-1 6.9-.6 2.2-1.6 4.4-2.7 6.5l-1.8-1.1c1.2-1.9 2.2-3.8 3-5.9.8-2.1 1.3-4.2 1.5-6.4.4-4.5-.1-9-.8-13.5zM152.7 393.5c4.3 1.2 8.7 2.1 13 2 2.2 0 4.3-.4 6.4-1 2.1-.6 4.1-1.4 6.1-2.4l.9 2a30.7 30.7 0 0 1-13.3 2.5c-4.6-.2-8.9-1.6-13.1-3.1zm34.3-14c.9 3.8 1.7 7.7 1.7 11.7 0 2-.3 4-.9 6-.5 2-1.3 3.8-2.3 5.6l-1.8-1.1a34 34 0 0 0 2.6-5 21 21 0 0 0 1.3-5.5c.5-3.9 0-7.9-.6-11.7zM168.2 376.2l3.6 5.1 3.5 5.2 3.5 5.2c1.2 1.7 2.3 3.5 3.1 5.5l-.2.1c-1.6-1.4-2.9-3.1-4.2-4.7l-3.8-5-3.7-5-3.6-5.1 1.8-1.3z"/>
    </g>
    <ellipse fill="#F2BC51" transform="rotate(-41.7 156.7 365.2)" cx="156.7" cy="365.1" rx="12.3" ry="15.8"/>
    <path fill="#BC2E2E" d="M155.2 375.5c3.4 3.7 9.2 4 12 1.4 2.8-2.6 3.2-8.4-.2-12.1-3.4-3.7-7.7-2.3-10.6.2-2.7 2.6-4.6 6.8-1.2 10.5z"/>
    <g stroke="none" fill="#000">
      <path d="m107 395-5.8-5.8-3.1-2.7-1.6-1.2-.9-.5c-.3-.2-.6-.2-1-.3l1 .2 1 .4 1.8 1 3.5 2.3c2.3 1.6 4.4 3.3 6.6 5L107 395zm-5.7-16.4a18 18 0 0 1 7.2 4.9c1 1 2 2.2 2.9 3.4.9 1.2 1.7 2.4 2.3 4l-2 .6c-.3-1.2-.9-2.5-1.6-3.7l-2.3-3.5c-.9-1.1-1.8-2.2-2.9-3.1-1.2-1.2-2.3-2-3.6-2.6zm12.6 1a26.1 26.1 0 0 1 7 10.6l-2.1.2c0-.8-.2-1.8-.5-2.8a23.3 23.3 0 0 0-4.4-8zm8.3.1a63.3 63.3 0 0 1 10.7 16.2c.9 2 1.7 4.1 2.2 6.3l-2.1.4a43.5 43.5 0 0 0-4.1-11.9 49 49 0 0 0-6.7-11zm17.4 12.7a59 59 0 0 1 4.2 13.9 30.5 30.5 0 0 1-1.6 14.6l-2-.8c.9-2.2 1.7-4.4 2.1-6.7.5-2.3.6-4.7.4-7-.2-4.8-1.6-9.5-3.1-14zm-48.5-1.3c.9 1.2 1.9 2.1 3.1 3a31.2 31.2 0 0 0 11.6 4.5l-.2 2.1a24.2 24.2 0 0 1-11.8-6.2c-1-1.1-2-2.2-2.7-3.4zm3.6 12.1a23.7 23.7 0 0 0 11.6 2.6l.2 2.1a18.2 18.2 0 0 1-6.4-1.6c-1.8-.8-3.7-1.8-5.4-3.1zm2.2 7.7a57.6 57.6 0 0 0 24.5 5.9l.1 2.1c-2.3 0-4.4-.4-6.6-.8a53.6 53.6 0 0 1-12.3-4.1c-2-1-3.9-1.9-5.7-3.1zM113.8 425.5c4.7.5 9.5.8 14 0 2.3-.4 4.5-1.1 6.6-2.1 2.1-1 4.1-2.2 6-3.5l1.2 1.8c-2.1 1.2-4.2 2.4-6.5 3.2-2.3.9-4.7 1.4-7 1.7-4.9.5-9.7-.2-14.3-1.1zm33.9-27.2a59 59 0 0 1 4.2 13.9 30.5 30.5 0 0 1-1.6 14.6l-2-.8c.9-2.2 1.7-4.4 2.1-6.7.5-2.3.6-4.7.4-7-.2-4.8-1.5-9.5-3.1-14zM121.9 431.5c4.7.5 9.5.8 14 0 2.3-.4 4.5-1.1 6.6-2.1 2.1-1 4.1-2.2 6-3.5l1.2 1.8c-2.1 1.2-4.2 2.4-6.5 3.2-2.3.9-4.7 1.4-7 1.7-4.9.4-9.7-.3-14.3-1.1zm36-22.1a48 48 0 0 1 3.6 11.7 26.6 26.6 0 0 1-1.3 12.4l-2-.8c.8-1.8 1.4-3.7 1.8-5.6.4-1.9.5-3.9.4-5.9-.1-3.9-1.2-7.9-2.5-11.8zM166.8 416.8a48 48 0 0 1 3.6 11.7 26.6 26.6 0 0 1-1.3 12.4l-2-.8c.8-1.8 1.4-3.7 1.8-5.6.4-1.9.5-3.9.4-5.9-.1-4-1.2-7.9-2.5-11.8zM133 413.1l7.2 5.2 7.1 5.3 7.1 5.3c2.4 1.8 4.7 3.6 6.8 5.7l-.1.2c-2.6-1.4-5.1-3-7.6-4.7l-7.3-5-7.2-5.1-7.2-5.2 1.2-1.7z"/>
    </g>
    <ellipse fill="#F2BC51" transform="rotate(-50.9 120 404)" cx="120.1" cy="404.1" rx="12.3" ry="15.8"/>
    <path fill="#BC2E2E" d="M120.2 414.5c3.9 3.1 9.7 2.4 12.1-.5 2.4-3 1.8-8.8-2.1-11.9-3.9-3.1-8-1.1-10.4 1.9s-3.5 7.4.4 10.5z"/>
    <g stroke="none" fill="#000">
      <path d="m79.4 445.2-7.3-3.7-3.8-1.6-1.9-.6-1-.2h-1c.3-.1.7-.2 1-.1l1 .1 2 .4 4 1.1 7.8 2.7-.8 1.9zm-10.6-13.7a20.9 20.9 0 0 1 8.4 2.4c1.3.7 2.6 1.4 3.8 2.3 1.2.9 2.4 1.8 3.4 3.1l-1.8 1.2a21 21 0 0 0-6-5.6 27 27 0 0 0-3.7-2.1c-1.3-.7-2.7-1.2-4.1-1.3zm12.3-3a24.8 24.8 0 0 1 7.8 5.3c.8.8 1.5 1.6 2.1 2.7l-2 .9c-.3-.8-.8-1.7-1.4-2.5l-1.9-2.4a19.8 19.8 0 0 0-4.6-4zM89 426a62.6 62.6 0 0 1 15.3 12c1.5 1.6 2.9 3.3 4 5.3l-1.9 1a48.1 48.1 0 0 0-7.6-10.1c-3-3.1-6.2-5.9-9.8-8.2zm19.8 6.8c3.1 3.6 6.2 7.5 8.3 11.9a29 29 0 0 1 3 14.4l-2.1-.1a27.3 27.3 0 0 0-1.9-13.8 51.8 51.8 0 0 0-7.3-12.4zM63 446.5a17.6 17.6 0 0 0 8.1 2.8c1.4.2 2.8.3 4.2.2 1.4 0 2.8-.2 4-.5l.5 2.1c-1.6.3-3.1.2-4.6 0a34 34 0 0 1-4.4-.8c-1.4-.4-2.8-.8-4.1-1.5-1.3-.6-2.6-1.3-3.7-2.3zm7.3 10.4c2.1.3 4.1.3 6.2.1 1-.1 2-.2 3-.5 1-.2 2-.5 2.7-.9l.9 1.9c-1.2.4-2.3.5-3.4.6-1.1.1-2.1 0-3.2-.1a18 18 0 0 1-6.2-1.1zm4.4 6.6c4.2.7 8.5.7 12.8.4 2.1-.2 4.2-.4 6.3-.8 2.1-.4 4.1-.9 6-1.7l.7 2a37.4 37.4 0 0 1-13 1.6 47.3 47.3 0 0 1-12.8-1.5zM94.6 472.4c4.6-1 9.2-2.2 13.3-4.4a31.7 31.7 0 0 0 10.2-9.2l1.7 1.3a30.3 30.3 0 0 1-11.4 8.9 50.7 50.7 0 0 1-13.8 3.4zm25.2-35.1c3 3.7 5.9 7.6 7.9 12.1a33.5 33.5 0 0 1 2.7 14.4l-2.1-.2a27 27 0 0 0-1.5-13.8 64.3 64.3 0 0 0-7-12.5zM105.1 476.6c4.5-.9 9.1-2 13.1-4.1 2-1.1 3.9-2.4 5.5-3.9 1.7-1.5 3.1-3.3 4.5-5.1l1.6 1.4a39.1 39.1 0 0 1-5.1 4.9 29.2 29.2 0 0 1-6.1 3.7 52 52 0 0 1-13.5 3.1zM119.1 478.8c3.9-.8 7.8-1.9 11.1-4 1.7-1 3.2-2.2 4.5-3.7 1.3-1.4 2.5-3 3.6-4.6l1.7 1.3a44.7 44.7 0 0 1-4.2 4.5 21.6 21.6 0 0 1-5.1 3.4 32.3 32.3 0 0 1-11.6 3.1zM109.8 454.4l13.1 5.5 13 5.6 13 5.7c4.3 1.9 8.6 3.9 12.8 6.1l-.1.2c-4.5-1.4-8.9-3.2-13.3-4.9l-13.2-5.4a1756 1756 0 0 1-13.1-5.4l-13.1-5.5.9-1.9z"/>
    </g>
    <ellipse fill="#F2BC51" transform="rotate(-69.1 94.6 449.8)" cx="94.6" cy="449.8" rx="12.3" ry="15.8"/>
    <path fill="#BC2E2E" d="M98 459.7c4.7 1.8 10-.7 11.3-4.3 1.3-3.6-1-8.9-5.8-10.7-4.7-1.8-8 1.5-9.3 5.1-1.2 3.6-.9 8.1 3.8 9.9z"/>
    <g stroke="none" fill="#000">
      <path d="M63 499.1c-2.6-.9-5.2-1.8-7.8-2.5l-4-1c-.7-.1-1.3-.3-2-.3h-1l-1 .2c.3-.1.6-.3 1-.3l1-.1 2.1.1 4.1.5 8.1 1.5-.5 1.9zm-12.6-12c1.4-.2 2.9-.2 4.4 0a33.4 33.4 0 0 1 8.4 2.7c1.3.7 2.6 1.4 3.8 2.5l-1.5 1.5a20.3 20.3 0 0 0-6.8-4.7c-1.3-.6-2.6-1.1-4-1.5a21 21 0 0 0-4.3-.5zm11.8-4.8c2 .5 4 1.3 5.8 2.3l2.7 1.7c.9.6 1.7 1.3 2.5 2.3l-1.8 1.1c-.4-.7-1-1.5-1.7-2.2a25 25 0 0 0-7.5-5.2zm7.4-3.7a61.4 61.4 0 0 1 16.8 9.5c1.7 1.4 3.3 2.9 4.8 4.6l-1.7 1.3a36.3 36.3 0 0 0-4.1-4.7c-1.5-1.5-3.2-2.8-4.9-4.1-3.4-2.5-7-4.9-10.9-6.6zm20.6 3.8c3.7 3.1 7.2 6.4 10 10.5 1.4 2 2.6 4.2 3.4 6.5.9 2.3 1.4 4.8 1.8 7.2l-2.1.2a32.2 32.2 0 0 0-4-13.4 53.3 53.3 0 0 0-9.1-11zM47 502.9c1.3.6 2.7 1 4.1 1.2l4.2.3c1.4 0 2.8-.2 4.2-.4 1.4-.2 2.8-.6 3.9-1.1l.8 2c-1.6.5-3 .6-4.5.7a32 32 0 0 1-8.7-.9c-1.4-.5-2.8-1-4-1.8zm8.8 9.2c2.1 0 4.1-.3 6.1-.8l2.9-.9c.9-.4 1.8-.8 2.5-1.3l1.2 1.8c-1.1.6-2.2.8-3.2 1.1-1.1.2-2.1.4-3.2.4-2.1.1-4.2.1-6.3-.3zm5.4 5.8a53.9 53.9 0 0 0 24.5-6l1 1.9a45.3 45.3 0 0 1-12.6 3.5 68.2 68.2 0 0 1-12.9.6zM82.2 523.7c4.4-1.7 8.8-3.6 12.5-6.4 1.8-1.4 3.5-3 4.9-4.9 1.4-1.8 2.6-3.8 3.7-5.8l1.8 1.1c-1.3 2-2.7 4-4.3 5.8a27.4 27.4 0 0 1-5.5 4.7 52 52 0 0 1-13.1 5.5zm18.6-38.8c3.7 2.8 7.3 5.7 10.2 9.4 1.4 1.8 2.7 3.9 3.6 6 1 2.2 1.6 4.4 2.2 6.7l-2.1.4a28 28 0 0 0-4.5-12.5c-2.6-3.8-6-7-9.4-10zM96.5 525.3c4-2 7.9-4.2 11.1-7.2a29.4 29.4 0 0 0 7-11l1.9.9c-1 2-2.2 4-3.5 5.9a37 37 0 0 1-4.7 5 46.4 46.4 0 0 1-11.8 6.4zM113.1 523.8c3.6-1.8 7.2-3.8 10-6.6 1.4-1.4 2.7-2.9 3.7-4.6 1-1.7 1.9-3.5 2.6-5.3l1.9.9c-.9 1.8-2 3.6-3.2 5.3a23 23 0 0 1-4.3 4.5 39.6 39.6 0 0 1-10.7 5.8zM94.6 503.5c4.1 1.3 8.6 1.9 13 2.6 4.4.6 8.9 1.1 13.3 1.5l13.4 1.2c4.5.3 8.9.7 13.4 1.4v.2c-4.5.2-9 .1-13.5-.1a610.7 610.7 0 0 1-26.9-2.1l-3.4-.5-3.4-.6c-2.2-.4-4.5-.9-6.7-1.6l.8-2z"/>
    </g>
    <ellipse fill="#F2BC51" transform="rotate(-77.9 78.7 501.3)" cx="78.8" cy="501.3" rx="12.3" ry="15.8"/>
    <path fill="#BC2E2E" d="M83.7 510.6c4.9 1 9.8-2.2 10.5-6 .8-3.7-2.4-8.6-7.3-9.7-4.9-1-7.6 2.7-8.4 6.4-.8 3.8.2 8.3 5.2 9.3z"/>
    <g stroke="none" fill="#000">
      <path d="m61.4 555.6-8.2.4-4.1.5-2 .4-1 .3-.9.5c.2-.2.5-.5.8-.6l.9-.4 2-.7 4-1a115 115 0 0 1 8.1-1.5l.4 2.1zm-16-6.8c1.3-.7 2.7-1.2 4.1-1.5 1.4-.3 2.9-.5 4.4-.5 1.5-.1 2.9 0 4.4.2 1.5.2 2.9.4 4.5 1l-.9 1.9c-1.1-.6-2.5-1-3.8-1.3l-4.2-.7h-4.3c-1.5.1-2.9.4-4.2.9zm9.3-8.6a26.6 26.6 0 0 1 9.4.7c1 .3 2.1.6 3.2 1.3l-1.3 1.7a8.2 8.2 0 0 0-2.4-1.5l-2.8-1.1c-2-.6-4-1-6.1-1.1zm5.6-6.1a70.8 70.8 0 0 1 19.2 3 36 36 0 0 1 6.1 2.6l-1.1 1.8a36 36 0 0 0-11.5-5 50.9 50.9 0 0 0-12.7-2.4zm20.6-3.8c4.5 1.6 9 3.5 13.1 6.2 2 1.4 3.9 3 5.5 4.9 1.6 1.9 3 4 4.2 6.1l-1.9 1a37 37 0 0 0-3.5-6.1c-1.4-1.9-3-3.6-4.9-5.1a66 66 0 0 0-12.5-7zm-33.1 34.4a19.6 19.6 0 0 0 8.4-1.6 27 27 0 0 0 7.1-4.3l1.5 1.6a18 18 0 0 1-4 2.3 35.2 35.2 0 0 1-8.5 2.3c-1.6.1-3.1.1-4.5-.3zm11.4 5.6a23.2 23.2 0 0 0 9.7-6.9l1.7 1.2a19.1 19.1 0 0 1-5.4 3.6c-1.9 1-3.9 1.7-6 2.1zm7.1 3.6a57.8 57.8 0 0 0 20.8-14.1l1.6 1.4a49.6 49.6 0 0 1-10.5 7.8l-5.8 2.9-6.1 2zM88 571.8c3.5-3.1 7-6.5 9.4-10.4a30 30 0 0 0 4.3-13.1l2.1.3a43 43 0 0 1-2 7c-.9 2.3-2.1 4.4-3.5 6.3a46 46 0 0 1-10.3 9.9zm6.2-42.2a48 48 0 0 1 11.2 5.9 28.6 28.6 0 0 1 8 10.1l-1.9.9c-.8-1.9-1.7-3.7-2.8-5.5a25 25 0 0 0-3.9-4.7 50.1 50.1 0 0 0-10.6-6.7zM100.1 568.1c3-3 5.9-6.2 7.9-9.8 1-1.8 1.8-3.8 2.3-5.8.5-2 .9-4.1 1.1-6.1l2.1.3a36.8 36.8 0 0 1-4.6 12.1 45.6 45.6 0 0 1-8.8 9.3zm8.4-38.9c3.5 1.4 7.1 3 10.2 5.4 1.5 1.2 3 2.6 4.2 4.1 1.2 1.6 2.2 3.3 3.1 5l-1.9.9c-.7-1.7-1.5-3.4-2.5-4.9-1-1.6-2.2-3-3.5-4.2a39.8 39.8 0 0 0-9.6-6.3zM113.8 564.1c2.7-2.7 5.3-5.6 7.1-8.9a34.5 34.5 0 0 0 3-10.8l2.1.3a53 53 0 0 1-1.5 5.7 24 24 0 0 1-2.7 5.3c-2.1 3.3-5 5.9-8 8.4zM92.3 548.6l8.1-1.4 8.1-1.3 8.1-1.2c2.7-.4 5.4-.7 8.2-.7v.2a55 55 0 0 1-8 2l-8.1 1.6-8.1 1.5-8.1 1.4-.2-2.1z"/>
    </g>
    <ellipse fill="#F2BC51" transform="rotate(-8.6 77 552.3)" cx="76.9" cy="552.1" rx="15.8" ry="12.3"/>
    <path fill="#BC2E2E" d="M84.8 559c5-.8 8.4-5.6 7.8-9.3-.6-3.8-5.3-7.2-10.3-6.5-5 .8-6.2 5.2-5.6 9 .6 3.8 3.1 7.6 8.1 6.8z"/>
    <g stroke="none" fill="#000">
      <path d="M84.6 609.6a164 164 0 0 0-7.1 4.1l-3.4 2.3-1.6 1.3-.7.7-.6.8c.1-.3.2-.7.4-.9l.6-.8 1.4-1.5c1-1 2-1.9 3.1-2.7 2.1-1.8 4.3-3.4 6.6-5.1l1.3 1.8zM67.3 611c.8-1.2 1.8-2.3 2.9-3.2a29.3 29.3 0 0 1 7.6-4.4c1.4-.5 2.8-1 4.4-1.2l.1 2.1a26.7 26.7 0 0 0-11.8 3.9c-1.2.8-2.3 1.7-3.2 2.8zm4.2-12a23.2 23.2 0 0 1 8.8-3.7c1.1-.2 2.1-.4 3.4-.3l-.4 2.1c-.8-.2-1.8-.2-2.8-.2l-3 .3c-2.1.4-4.1 1-6 1.8zm2.2-8a44.8 44.8 0 0 1 12.1-4.7c2.1-.6 4.2-1.1 6.4-1.4 2.2-.3 4.3-.6 6.6-.5l-.2 2.1a42.6 42.6 0 0 0-12.5.8c-4.3.8-8.5 2-12.4 3.7zm16.6-12.8c5-.7 10.1-1 15.1-.3a32.2 32.2 0 0 1 14.2 5.5l-1.3 1.7a36 36 0 0 0-6.2-3.9c-2.2-1-4.6-1.8-7-2.3a56 56 0 0 0-14.8-.7zM76.7 624a14 14 0 0 0 3.7-2.2 27 27 0 0 0 7.3-10l2 .7c-.7 1.5-1.6 2.7-2.5 3.9-.9 1.2-2 2.2-3 3.2-1.1 1-2.2 1.9-3.5 2.7a20 20 0 0 1-4 1.7zm12.7-.3a25.6 25.6 0 0 0 5.5-10.6l2.1.3a9.8 9.8 0 0 1-1.4 3.1l-1.8 2.7a26.7 26.7 0 0 1-4.4 4.5zm8-.1c2.9-3.2 5.3-6.8 7.3-10.5 1-1.9 2-3.8 2.8-5.7.8-2 1.5-4 1.9-6l2.1.5a30 30 0 0 1-2.5 6.1c-1 1.9-2.1 3.8-3.3 5.6l-3.8 5.2c-1.5 1.7-2.9 3.3-4.5 4.8zM115.7 611.7c1.7-4.4 3.4-8.9 4-13.5a26.6 26.6 0 0 0-1.6-13.6l2-.7a28.8 28.8 0 0 1 .7 14.4 65.2 65.2 0 0 1-5.1 13.4zm-13.3-39.2c4.4-.2 8.8-.4 13.2.4a24 24 0 0 1 6.4 2.1c2 1 3.9 2.3 5.7 3.7l-1.4 1.6a30.7 30.7 0 0 0-5-3.9 20.3 20.3 0 0 0-5.9-2.4c-4.2-1.1-8.7-1.3-13-1.5zM123.3 606.2c2.1-4.1 3.7-8.5 4.1-13 .5-4.5-.3-9-1.5-13.4l2.1-.5c.4 2.3.8 4.6.9 7 .1 2.4 0 4.7-.4 7-.9 4.6-2.8 8.9-5.2 12.9zm-8.6-38.8c4.1-.2 8.2-.4 12.2.4 2 .4 4.1 1 6 2 1.9.9 3.6 2.2 5.3 3.5l-1.4 1.6a21.4 21.4 0 0 0-10-6c-4-1.2-8.1-1.4-12.1-1.5zM108.9 589.1l12.4-7.4 12.5-7.3 12.5-7.2c4.2-2.4 8.4-4.8 12.8-6.9l.1.2c-3.9 2.8-8 5.4-12.1 8l-12.3 7.6-12.4 7.5L110 591l-1.1-1.9z"/>
    </g>
    <ellipse fill="#F2BC51" transform="rotate(-36 96.8 599.4)" cx="96.8" cy="599.4" rx="15.8" ry="12.3"/>
    <path fill="#BC2E2E" d="M106.9 601.9c4.1-3 4.9-8.8 2.6-11.8-2.3-3.1-8-4-12.1-1s-3.1 7.5-.8 10.5c2.3 3.1 6.3 5.3 10.3 2.3z"/>
    <g stroke="none" fill="#000">
      <path d="M125.6 649c-1.8 2-3.5 4.2-5.2 6.3l-2.4 3.3-1 1.8-.4.9a3 3 0 0 0-.2 1l.1-1 .3-1 .8-1.9 1.9-3.7 4.3-7 1.8 1.3zm-15.8 7.4a14 14 0 0 1 1.6-4 31 31 0 0 1 9.3-9.5l.8 2c-1.2.4-2.4 1.2-3.5 1.9-1.2.8-2.3 1.7-3.3 2.7-1 1-2 2-2.8 3.2-.9 1.1-1.6 2.3-2.1 3.7zm-.2-12.7a26.7 26.7 0 0 1 6.9-6.5c.9-.6 1.9-1.1 3.1-1.5l.4 2.1c-.8.1-1.8.4-2.7.8l-2.7 1.4c-1.9 1-3.6 2.2-5 3.7zm-.8-8.2c1.4-1.7 2.9-3.2 4.5-4.6a52 52 0 0 1 16.5-10.5l.6 2.1a60.2 60.2 0 0 0-21.6 13zm11-17.9c4.2-2.3 8.6-4.4 13.4-5.6a29.9 29.9 0 0 1 14.6.2l-.6 2.1a31.3 31.3 0 0 0-13.9-1.1c-4.6.6-9.1 2.4-13.5 4.4zm3.4 47.7c1.1-1 1.9-2.1 2.6-3.4a23.2 23.2 0 0 0 2.9-8c.3-1.4.5-2.8.4-4h2.1c-.1 1.7-.5 3.1-1 4.5s-1 2.8-1.7 4.1c-.7 1.3-1.4 2.6-2.3 3.7-.8 1.1-1.8 2.2-3 3.1zm11.8-4.9a25.1 25.1 0 0 0 1.7-9c0-1-.1-2-.3-2.8l2.1-.5c.1 1.3 0 2.3-.2 3.4l-.7 3.1c-.7 2.1-1.5 4.1-2.6 5.8zm7.4-2.8a59.5 59.5 0 0 0 3.5-24.9l2.1-.3a45 45 0 0 1-3.1 19.2c-.7 2-1.5 4-2.5 6zM155.4 640c0-4.7-.1-9.5-1.4-14-.6-2.2-1.6-4.4-2.7-6.3-1.2-2-2.6-3.8-4.1-5.6l1.7-1.3a35.5 35.5 0 0 1 6.2 13c.9 4.7.7 9.5.3 14.2zm5.1-11.8c0-4.7-.1-9.5-1.4-14-.6-2.2-1.6-4.4-2.7-6.3-1.2-2-2.6-3.8-4.1-5.6l1.7-1.3a35.5 35.5 0 0 1 6.2 13c.9 4.7.7 9.5.3 14.2zM141 621.3l2.4-3.7 2.5-3.6 2.6-3.6c.9-1.2 1.8-2.3 3-3.3l.2.1c-.4 1.5-1.1 2.8-1.9 4l-2.3 3.8-2.3 3.8-2.4 3.7-1.8-1.2z"/>
    </g>
    <ellipse fill="#F2BC51" transform="rotate(-56.7 133.3 635.1)" cx="133.3" cy="635.1" rx="15.8" ry="12.3"/>
    <path fill="#BC2E2E" d="M143.7 633.9c2.7-4.2 1.5-9.9-1.7-12-3.2-2.1-8.9-.9-11.7 3.3-2.7 4.2-.3 8.1 2.9 10.2 3.2 2.1 7.8 2.8 10.5-1.5z"/>
    <g stroke="none" fill="#000">
      <path d="m177.7 671.5-2.3 7.8-.9 4-.3 2v1l.2 1c-.1-.3-.3-.6-.3-1l-.1-1v-2.1l.3-4.1c.3-2.7.8-5.5 1.3-8.2l2.1.6zm-11.6 12.9c-.3-1.4-.3-2.9-.1-4.3a29.8 29.8 0 0 1 2.5-8.4c.6-1.3 1.3-2.6 2.4-3.9l1.5 1.5a26.4 26.4 0 0 0-5.9 10.9 15 15 0 0 0-.4 4.2zm-5.2-11.6c.4-2 1.2-4 2.2-5.9l1.6-2.8c.6-.9 1.3-1.8 2.2-2.6l1.2 1.8c-.7.4-1.5 1.1-2.2 1.8l-2 2.3a35.5 35.5 0 0 0-3 5.4zm-3.9-7.3a51.2 51.2 0 0 1 13.5-22l1.3 1.7a36.7 36.7 0 0 0-4.6 4.3 51.3 51.3 0 0 0-10.2 16zm3.2-20.7c3-3.7 6.2-7.4 10.2-10.3a27 27 0 0 1 6.4-3.6 44 44 0 0 1 7.1-2l.3 2.1a26.6 26.6 0 0 0-13.3 4.3c-4 2.6-7.4 6-10.7 9.5zm21.7 42.5c.6-1.3.9-2.7 1.1-4.1.2-1.4.2-2.8.1-4.3-.1-1.4-.2-2.8-.5-4.2-.3-1.4-.7-2.8-1.2-3.9l1.9-.9a25.6 25.6 0 0 1 .9 8.9c-.1 1.5-.3 2.9-.7 4.3-.3 1.6-.8 3-1.6 4.2zm9-9a21 21 0 0 0-1-6.1l-1-2.9-1.4-2.5 1.7-1.2a14 14 0 0 1 1.2 3.2l.5 3.2c.2 2.1.3 4.3 0 6.3z"/>
    </g>
    <ellipse fill="#F2BC51" transform="rotate(-79.6 179.5 655.7)" cx="179.4" cy="655.7" rx="15.8" ry="12.3"/>
    <path fill="#BC2E2E" d="M188.6 650.5c.9-5-2.5-9.7-6.3-10.4-3.7-.7-8.6 2.6-9.4 7.6-.9 5 2.9 7.6 6.7 8.2 3.6.7 8.1-.4 9-5.4z"/>
    <path fill="none" d="M143.3 389.9c6.5 5.5 29.7 28.7 35 35.3m.4-70.9c4.8 7 15.4 33.2 18.8 41m-87.9 33.4c5.4 4.5 34.8 16.3 40.7 20.1m-56 28.7c7.1 2.9 27.3 6 34.8 7.4m-47.2 41.8c15.4 1.3 45-2.7 49.9-3m-42.4 50.8c9.8-3.6 32.8-11.4 41.8-16.7m25.3 87.2c4.4-9.1 13.5-26.7 18.8-32.9m-57.5 3.2c6.6-4.8 16.3-16.8 21.6-22.9"/>
    <g stroke="none" fill="#000">
      <path d="M253.3 326.3a237 237 0 0 1 1.9-8.1l1.2-4 .8-1.9.5-.9.7-.8c-.2.3-.4.5-.5.9l-.4.9-.5 2-.7 4c-.4 2.7-.6 5.4-.8 8.1l-2.2-.2zm-3.8-16c-.6 1.3-1 2.7-1.2 4.1-.2 1.4-.3 2.8-.2 4.2 0 1.4.2 2.8.4 4.2.2 1.4.6 2.8 1.1 3.9l-2 .8c-.5-1.6-.7-3-.8-4.5a32 32 0 0 1 .9-8.7c.5-1.5 1-2.8 1.8-4zm-9.2 8.8c0 2.1.3 4.1.8 6.1l.9 2.9c.4.9.8 1.8 1.3 2.5l-1.8 1.2a11 11 0 0 1-1.1-3.2l-.5-3.2c.1-2.1.1-4.3.4-6.3zm-6.3 5.3a59.7 59.7 0 0 0 6 24.5l-1.9 1a45.3 45.3 0 0 1-3.6-12.6c-.3-2.1-.6-4.3-.7-6.4 0-2.2 0-4.4.2-6.5zm-5.6 20.4c1.7 4.5 3.6 9 6.4 12.8a29.6 29.6 0 0 0 10.7 9l-1.1 1.9a28.6 28.6 0 0 1-10.5-10.3 55.7 55.7 0 0 1-5.5-13.4zm36.9-31.3c.2 1.4.2 2.9 0 4.4-.2 1.5-.6 2.9-1 4.3-.5 1.4-1 2.8-1.7 4.1-.7 1.3-1.4 2.6-2.5 3.9l-1.5-1.5a20.3 20.3 0 0 0 4.7-6.8c.6-1.3 1.1-2.6 1.5-4 .3-1.5.5-2.9.5-4.4zm4.9 11.7c-.5 2-1.3 4-2.3 5.9l-1.7 2.7c-.6.9-1.3 1.7-2.3 2.5l-1.2-1.8a22 22 0 0 0 4.2-4.1 21 21 0 0 0 3.3-5.2zm3.2 7.3a50.9 50.9 0 0 1-5.7 11.7 64.2 64.2 0 0 1-3.8 5.3 34.6 34.6 0 0 1-4.6 4.8l-1.3-1.7c1.7-1.2 3.2-2.6 4.7-4.2a66.4 66.4 0 0 0 10.7-15.9zM268.6 354.1c-3 3.5-6.1 7-10 9.7a28.7 28.7 0 0 1-13.2 4.8l-.2-2.1c2.3-.2 4.5-.5 6.7-1 2.2-.6 4.3-1.4 6.2-2.6 3.9-2.3 7.3-5.5 10.5-8.8zm-39.9 4c1.5 3.7 3.1 7.5 5.4 10.7 1.2 1.6 2.5 3 4 4.3 1.5 1.2 3.2 2.3 4.9 3.2l-1 1.7a30.5 30.5 0 0 1-4.9-3.8 22.2 22.2 0 0 1-3.8-4.9 42 42 0 0 1-4.6-11.2zM262.4 367.4c-2.4 2.9-5 5.7-8.4 7.6-1.7 1-3.5 1.7-5.4 2.1-1.9.5-3.7.8-5.6 1.1l-.2-2.1c3.7-.2 7.4-.6 10.7-2.1 3.4-1.5 6.2-4 8.9-6.6zm-8 14.5a4 4 0 0 1-1.3 1.6c-.5.4-1.1.9-1.7 1.2-1.2.6-2.6 1.1-3.9 1.5-2.7.7-5.4 1.2-8.1 1.7l-.2-2.1c2.7-.1 5.5-.3 8.1-.6 1.3-.2 2.7-.4 3.9-.9l1.8-.9c.5-.5 1-.9 1.4-1.5zm-3 8.8a4 4 0 0 1-1.3 1.6c-.5.4-1.1.9-1.7 1.2-1.2.6-2.6 1.1-3.9 1.5-2.7.7-5.4 1.2-8.1 1.7l-.2-2.1c2.7-.1 5.5-.3 8.1-.6 1.3-.2 2.7-.4 3.9-.9l1.8-.9c.5-.4 1-.9 1.4-1.5zM248.8 357.6l-2.2 8.2-2.3 8.2-2.3 8.2c-.8 2.7-1.6 5.4-2.8 8.1l-.2-.1c.3-2.9.9-5.6 1.5-8.4l2-8.3 2-8.3 2.2-8.2 2.1.6z"/>
    </g>
    <ellipse fill="#F2BC51" transform="rotate(-78.3 251 342)" cx="251.1" cy="341.9" rx="15.8" ry="12.3"/>
    <path fill="#BC2E2E" d="M257.6 350.1c-1.1 4.9-6 8-9.7 7.2-3.7-.8-6.9-5.7-5.9-10.6 1.1-4.9 5.5-5.9 9.3-5.1 3.6.9 7.3 3.6 6.3 8.5z"/>
    <g stroke="none" fill="#000">
      <path d="M304.1 352.8c1.8-2.1 3.7-4.1 5.7-6l3-2.8 1.6-1.3.9-.5a3 3 0 0 1 1-.4c-.3.1-.6.2-.9.5l-.8.6-1.4 1.4a71.2 71.2 0 0 0-7.4 9.7l-1.7-1.2zm4.8-15.8a17 17 0 0 0-5.4 6.5 17 17 0 0 0-1.7 3.9 15 15 0 0 0-1 3.9l-2.1-.3c.3-1.6 1-3 1.6-4.3.7-1.3 1.4-2.6 2.3-3.8a46 46 0 0 1 2.8-3.4c1-1 2.2-1.9 3.5-2.5zm-12.4 3a23.5 23.5 0 0 0-2.9 8.7c-.1 1-.2 2-.1 2.8l-2.1.1c0-1.3.3-2.3.7-3.3l1.2-3a22 22 0 0 1 3.2-5.3zm-8.1 1.4a50.7 50.7 0 0 0-6.4 18c-.4 2.1-.6 4.2-.6 6.2h-2.1a34 34 0 0 1 1.1-6.5l2-6.2 2.6-5.9c1-2 2.1-3.8 3.4-5.6zm-13 16c-.8 4.7-1.3 9.6-.9 14.3a31.1 31.1 0 0 0 4.8 13.2l-1.8 1.1a30.5 30.5 0 0 1-3.9-14.1c-.2-5.1.7-9.9 1.8-14.5zm45.5-9.7c-.5 1.4-1.3 2.6-2.2 3.8a29.7 29.7 0 0 1-6.5 5.9c-1.3.8-2.5 1.6-4.1 2.1l-.5-2.1c1.2-.2 2.6-.8 3.8-1.4 1.3-.6 2.5-1.3 3.6-2.2 1.2-.8 2.3-1.7 3.3-2.7 1-1 1.9-2.1 2.6-3.4zm-1.7 12.6a23.4 23.4 0 0 1-7.7 5.4c-1 .4-2 .9-3.2 1l-.1-2.1a15.7 15.7 0 0 0 5.7-1.4c1.8-.7 3.7-1.7 5.3-2.9zm-.8 7.9a49 49 0 0 1-10.7 7.2 62.8 62.8 0 0 1-12.3 4.6l-.3-2.1a48.4 48.4 0 0 0 12.1-3.5c3.9-1.7 7.7-3.6 11.2-6.2zM306.2 386c-4.4 1.6-9 3-13.9 3.3-2.4.1-4.8 0-7.2-.5-2.4-.5-4.7-1.2-6.9-2.1l.9-2c2.1 1 4.2 1.9 6.4 2.5 2.2.6 4.5 1 6.8 1 4.7.1 9.4-1 13.9-2.2zm-36.8-19.4c-.7 4.5-1.2 9-.8 13.4a23 23 0 0 0 1.5 6.4c.8 2.1 1.8 4 3 5.9l-1.8 1.1a26.8 26.8 0 0 1-3.7-13.4c-.1-4.5.8-9 1.8-13.4zM298.4 393.5a44.9 44.9 0 0 1-13 3.1c-2.3.1-4.6 0-6.8-.5-2.2-.4-4.4-1.2-6.5-2l.9-2a27.6 27.6 0 0 0 12.5 3.4c4.2.2 8.6-.8 12.9-2zm-34.3-14c-.6 3.9-1 7.8-.6 11.6a20 20 0 0 0 1.3 5.5c.7 1.8 1.6 3.4 2.6 5l-1.8 1.1c-.9-1.8-1.7-3.7-2.3-5.6-.5-2-.8-4-.9-6-.1-3.9.7-7.8 1.7-11.6zM284.6 377.5l-3.6 5.1-3.7 5-3.8 5a31.3 31.3 0 0 1-4.2 4.7l-.2-.1c.9-2 2-3.7 3.1-5.5l3.5-5.2 3.5-5.2 3.6-5.1 1.8 1.3z"/>
    </g>
    <ellipse fill="#F2BC51" transform="rotate(-48.3 294.3 365.2)" cx="294.4" cy="365.1" rx="15.8" ry="12.3"/>
    <path fill="#BC2E2E" d="M295.9 375.5c-3.4 3.7-9.2 4-12 1.4-2.8-2.6-3.2-8.4.2-12.1 3.4-3.7 7.7-2.3 10.6.2 2.7 2.6 4.6 6.8 1.2 10.5z"/>
    <g stroke="none" fill="#000">
      <path d="M342.6 393.4a104 104 0 0 1 10.1-7.3l1.8-1 1-.4 1-.2c-.3.1-.7.1-1 .3l-.9.5-1.6 1.2a105.8 105.8 0 0 0-8.9 8.5l-1.5-1.6zm7.2-14.8c-1.3.6-2.5 1.5-3.5 2.4-1.1 1-2 2-2.9 3.1-.9 1.1-1.6 2.3-2.3 3.5-.7 1.2-1.3 2.5-1.6 3.7l-2-.6c.6-1.5 1.4-2.8 2.3-4a30.7 30.7 0 0 1 6.2-6.3c1.2-.7 2.5-1.4 3.8-1.8zm-12.6 1a22 22 0 0 0-3.2 5.3l-1.1 2.8c-.3.9-.5 1.9-.5 2.8l-2.1-.2a17.8 17.8 0 0 1 2.9-5.9c1-1.8 2.4-3.4 4-4.8zm-8.3.1a55.4 55.4 0 0 0-10.9 22.8l-2.1-.4c.5-2.2 1.3-4.3 2.2-6.3a63.6 63.6 0 0 1 10.8-16.1zm-17.4 12.7a56.6 56.6 0 0 0-3.1 14c-.1 2.4 0 4.7.4 7s1.2 4.5 2.1 6.7l-2 .8c-.8-2.3-1.4-4.7-1.7-7.2-.3-2.5-.3-4.9.1-7.4.6-4.9 2.3-9.5 4.2-13.9zm48.5-1.3a15 15 0 0 1-2.7 3.4 24.2 24.2 0 0 1-11.8 6.2l-.2-2.1a26.2 26.2 0 0 0 11.6-4.5 22 22 0 0 0 3.1-3zm-3.6 12.1a22.9 22.9 0 0 1-5.5 3.1l-3 1.1c-1.1.3-2.1.5-3.4.5l.2-2.1c.8.2 1.8.1 2.8 0l3-.5c2-.5 4-1.1 5.9-2.1zm-2.2 7.7a75 75 0 0 1-18 7.1c-2.1.5-4.3.8-6.6.8l.1-2.1c2 .1 4.1 0 6.2-.3a69.8 69.8 0 0 0 18.3-5.5zM337.3 425.5c-4.6.9-9.4 1.5-14.2 1-2.4-.3-4.8-.8-7-1.7a49 49 0 0 1-6.5-3.2l1.2-1.8c1.9 1.3 3.9 2.6 6 3.5 2.1 1 4.3 1.7 6.6 2.1 4.5.9 9.3.7 13.9.1zm-33.9-27.2a56.6 56.6 0 0 0-3.1 14c-.1 2.4 0 4.7.4 7s1.2 4.5 2.1 6.7l-2 .8c-.8-2.3-1.4-4.7-1.7-7.2-.3-2.5-.3-4.9.1-7.4.6-4.9 2.3-9.5 4.2-13.9zM329.2 431.5c-4.6.9-9.4 1.5-14.2 1-2.4-.3-4.8-.8-7-1.7a49 49 0 0 1-6.5-3.2l1.2-1.8c1.9 1.3 3.9 2.6 6 3.5 2.1 1 4.3 1.7 6.6 2.1 4.5.9 9.2.6 13.9.1zm-36-22.1c-1.2 3.9-2.4 7.8-2.6 11.8a23.1 23.1 0 0 0 2.2 11.5l-2 .8a25.7 25.7 0 0 1-1.3-12.4c.6-4.1 2.1-7.9 3.7-11.7zM284.3 416.8c-1.2 3.9-2.4 7.8-2.6 11.8a23.1 23.1 0 0 0 2.2 11.5l-2 .8a25.7 25.7 0 0 1-1.3-12.4c.6-4.1 2.1-7.9 3.7-11.7zM319.3 414.8l-7.2 5.2-7.2 5.1-7.3 5a64.5 64.5 0 0 1-7.6 4.7l-.1-.2c2.1-2.1 4.5-3.9 6.8-5.7l7.1-5.3 7.1-5.3 7.2-5.2 1.2 1.7z"/>
    </g>
    <ellipse fill="#F2BC51" transform="rotate(-39 331 404)" cx="331" cy="404.1" rx="15.8" ry="12.3"/>
    <path fill="#BC2E2E" d="M330.9 414.5c-3.9 3.1-9.7 2.4-12.1-.5-2.4-3-1.8-8.8 2.1-11.9 3.9-3.1 8-1.1 10.4 1.9 2.4 2.9 3.5 7.4-.4 10.5z"/>
    <g stroke="none" fill="#000">
      <path d="m370.8 443.3 7.8-2.7 4-1.1 2-.4 1-.1 1 .1h-1l-1 .2a43.9 43.9 0 0 0-5.7 2.2 99.9 99.9 0 0 0-7.3 3.7l-.8-1.9zm11.5-11.8c-1.4.2-2.8.6-4.1 1.2a27 27 0 0 0-9.7 7.7l-1.8-1.2c1.1-1.3 2.2-2.2 3.4-3.1 1.2-.9 2.5-1.6 3.8-2.3 1.3-.7 2.7-1.2 4.1-1.7 1.5-.4 2.9-.7 4.3-.6zm-12.3-3a22.6 22.6 0 0 0-8 8.9l-2-.9c.6-1.1 1.4-1.9 2.1-2.7l2.4-2.1a28 28 0 0 1 5.5-3.2zm-7.9-2.5a59.2 59.2 0 0 0-17.4 18.3l-1.9-1a43.2 43.2 0 0 1 8.7-9.9 50 50 0 0 1 10.6-7.4zm-19.8 6.8a53.2 53.2 0 0 0-7.3 12.3 27.3 27.3 0 0 0-1.9 13.8l-2.1.1a29 29 0 0 1 3-14.4c2.1-4.3 5.2-8.1 8.3-11.8zm45.8 13.7c-1.1 1-2.3 1.7-3.7 2.3-1.3.6-2.7 1.1-4.1 1.5-1.4.4-2.9.6-4.4.8-1.5.1-3 .2-4.6 0l.5-2.1c1.2.3 2.6.5 4 .5l4.2-.2 4.2-.9c1.4-.5 2.7-1.1 3.9-1.9zm-7.3 10.4c-2 .7-4.1 1-6.2 1.2l-3.2.1c-1.1-.1-2.2-.2-3.4-.6l.9-1.9c.7.4 1.7.7 2.7.9l3 .5c2.1.2 4.2.2 6.2-.2zm-4.4 6.6a45 45 0 0 1-6.4 1.1l-6.5.4c-2.2 0-4.3-.1-6.5-.3a30 30 0 0 1-6.5-1.3l.7-2a45.2 45.2 0 0 0 12.3 2.5c4.4.3 8.7.3 12.9-.4zM356.5 472.4c-4.7-.6-9.4-1.5-13.8-3.5a30.3 30.3 0 0 1-11.4-8.9l1.7-1.3a38 38 0 0 0 4.6 5.2c1.7 1.6 3.6 2.9 5.6 4 4.1 2.3 8.7 3.5 13.3 4.5zm-25.2-35.1c-2.7 3.9-5.3 8-6.9 12.5a32 32 0 0 0-1.6 6.8c-.2 2.3-.2 4.7.1 7l-2.1.2a30.7 30.7 0 0 1 2.7-14.4c1.9-4.4 4.8-8.3 7.8-12.1zM346 476.6c-4.6-.5-9.3-1.3-13.6-3.2-2.2-.9-4.2-2.2-6.1-3.7a39.6 39.6 0 0 1-5.1-4.9l1.6-1.4c1.4 1.8 2.9 3.5 4.5 5.1 1.7 1.5 3.5 2.9 5.5 3.9 4.1 2.2 8.7 3.3 13.2 4.2zM332 478.8c-4-.5-8-1.2-11.6-3a25.2 25.2 0 0 1-9.3-7.9l1.7-1.3c1.1 1.6 2.3 3.2 3.6 4.6 1.3 1.4 2.8 2.6 4.5 3.7a35 35 0 0 0 11.1 3.9zM342.1 456.3l-13.1 5.5-13.1 5.4-13.2 5.4c-4.4 1.8-8.8 3.5-13.3 4.9l-.1-.2c4.2-2.2 8.5-4.2 12.8-6.1l13-5.7a727.2 727.2 0 0 1 26.1-11.1l.9 1.9z"/>
    </g>
    <ellipse fill="#F2BC51" transform="rotate(-20.9 356.5 449.8)" cx="356.5" cy="449.8" rx="15.8" ry="12.3"/>
    <path fill="#BC2E2E" d="M353.1 459.7c-4.7 1.8-10-.7-11.3-4.3-1.3-3.6 1-8.9 5.8-10.7s8 1.5 9.3 5.1c1.2 3.6.9 8.1-3.8 9.9z"/>
    <g stroke="none" fill="#000">
      <path d="M387.5 497.1a115 115 0 0 1 8.1-1.5l4.1-.5 2.1-.1 1 .1 1 .3-1-.2h-1l-2 .3-4 1c-2.6.7-5.2 1.6-7.8 2.5l-.5-1.9zm13.2-10c-1.4-.1-2.9.2-4.2.5a27.4 27.4 0 0 0-10.8 6.2l-1.5-1.5c1.2-1.1 2.5-1.8 3.8-2.5 1.3-.7 2.7-1.2 4.1-1.7a20.7 20.7 0 0 1 8.6-1zm-11.8-4.8a28.7 28.7 0 0 0-7.6 5.2c-.7.7-1.4 1.5-1.7 2.2l-1.8-1.1c.8-1 1.6-1.7 2.5-2.3l2.7-1.7c2-1 3.9-1.8 5.9-2.3zm-7.4-3.7a58.3 58.3 0 0 0-11 6.6l-4.9 4.1c-1.5 1.5-3 3-4.1 4.7l-1.7-1.3c1.4-1.7 3.1-3.2 4.8-4.6 1.7-1.4 3.5-2.6 5.3-3.8 1.8-1.2 3.7-2.2 5.6-3.2 2-.9 4-1.8 6-2.5zm-20.6 3.8a56 56 0 0 0-9.1 11 29 29 0 0 0-4 13.4l-2.1-.2a30.4 30.4 0 0 1 5.2-13.7c2.8-4.1 6.4-7.4 10-10.5zm43.2 20.5c-1.2.8-2.6 1.4-4 1.8-1.4.4-2.9.7-4.3.8-1.5.1-2.9.2-4.4.1-1.5-.1-3-.2-4.5-.7l.8-2c1.1.5 2.5.9 3.9 1.1 1.4.2 2.8.4 4.2.4 1.4 0 2.8 0 4.2-.3 1.4-.2 2.8-.6 4.1-1.2zm-8.8 9.2a35 35 0 0 1-9.5-.2c-1.1-.2-2.1-.5-3.2-1.1l1.2-1.8c.7.5 1.6 1 2.5 1.3.9.4 1.9.7 2.9.9 2 .6 4 .9 6.1.9zm-5.4 5.8a46.8 46.8 0 0 1-13-.5 48.4 48.4 0 0 1-12.6-3.5l1-1.9a61.3 61.3 0 0 0 24.6 5.9zM368.9 523.7a48.6 48.6 0 0 1-13.1-5.5c-2-1.3-3.9-2.9-5.5-4.7a39.5 39.5 0 0 1-4.3-5.8l1.8-1.1a32.4 32.4 0 0 0 8.6 10.7c3.7 2.8 8.1 4.7 12.5 6.4zm-18.6-38.8c-3.4 3-6.8 6.2-9.3 10a29.2 29.2 0 0 0-4.5 12.5l-2.1-.4a31 31 0 0 1 5.8-12.7 56 56 0 0 1 10.1-9.4zM354.6 525.3a48.2 48.2 0 0 1-11.8-6.4 31.6 31.6 0 0 1-8.2-10.9l1.9-.9a27.8 27.8 0 0 0 7 11c3.1 3 7.1 5.2 11.1 7.2zM338 523.8a39.6 39.6 0 0 1-10.7-5.8 23 23 0 0 1-4.3-4.5 41.5 41.5 0 0 1-3.2-5.3l1.9-.9c.7 1.8 1.6 3.6 2.6 5.3 1 1.7 2.3 3.2 3.7 4.6 2.8 2.8 6.4 4.8 10 6.6zM357.2 505.5a54.3 54.3 0 0 1-10.1 2.2l-3.4.5c-4.5.5-9 1-13.4 1.3l-13.5.8c-4.5.2-9 .3-13.5.1v-.2c4.5-.6 8.9-1 13.4-1.4 4.5-.3 8.9-.7 13.4-1.2s8.9-.9 13.3-1.5c4.4-.7 8.9-1.3 13-2.6l.8 2z"/>
    </g>
    <ellipse fill="#F2BC51" transform="rotate(-12.1 372.3 501.3)" cx="372.3" cy="501.3" rx="15.8" ry="12.3"/>
    <path fill="#BC2E2E" d="M367.5 510.6c-4.9 1-9.8-2.2-10.5-6-.8-3.7 2.4-8.6 7.3-9.7 4.9-1 7.6 2.7 8.4 6.4.7 3.8-.3 8.3-5.2 9.3z"/>
    <g stroke="none" fill="#000">
      <path d="M389.9 553.5c2.7.4 5.5.9 8.1 1.5l4 1 2 .7.9.4.8.6-.9-.5a12.6 12.6 0 0 0-3-.7 51 51 0 0 0-4.1-.5c-2.7-.2-5.4-.4-8.2-.4l.4-2.1zm15.8-4.7c-1.3-.6-2.7-.9-4.2-1a30.8 30.8 0 0 0-8.5.7c-1.4.3-2.7.8-3.8 1.3l-.9-1.9c1.5-.6 3-.8 4.5-1 1.5-.2 3-.2 4.4-.2a16.7 16.7 0 0 1 8.5 2.1zm-9.3-8.6a25.4 25.4 0 0 0-8.9 2.3c-.9.4-1.8.9-2.4 1.5l-1.3-1.7a17 17 0 0 1 6.3-1.9c2.1-.4 4.3-.5 6.3-.2zm-5.6-6.1a53.8 53.8 0 0 0-24.1 7.3l-1.1-1.8c2-1.1 4-1.9 6.1-2.6 2.1-.7 4.2-1.2 6.3-1.7a70.8 70.8 0 0 1 12.8-1.2zm-20.6-3.8c-4.4 2-8.7 4.1-12.4 7.1a29.6 29.6 0 0 0-8.4 11.2l-1.9-1c1.2-2.2 2.6-4.2 4.2-6.1 1.6-1.9 3.5-3.5 5.5-4.9a54 54 0 0 1 13-6.3zm33.1 34.4a20.4 20.4 0 0 1-8.6-.6l-4.2-1.5a18 18 0 0 1-4-2.3l1.5-1.6c.9.9 2.1 1.7 3.3 2.4l3.8 1.9c1.3.5 2.7 1 4.1 1.3a8 8 0 0 0 4.1.4zm-11.4 5.6c-2.1-.4-4.1-1.1-6-2l-2.8-1.5c-.9-.6-1.8-1.2-2.6-2.1l1.7-1.2c.4.7 1.1 1.5 1.9 2.1.7.7 1.6 1.3 2.4 1.9 1.6 1 3.4 2.1 5.4 2.8zm-7.1 3.6a44.4 44.4 0 0 1-11.9-5.1 63.7 63.7 0 0 1-5.5-3.5 29.2 29.2 0 0 1-5-4.3l1.6-1.4a48.2 48.2 0 0 0 9.5 8.2c3.5 2.5 7.2 4.6 11.3 6.1zM363.1 571.8a45.6 45.6 0 0 1-10.3-9.8 29.8 29.8 0 0 1-5.5-13.3l2.1-.3a30 30 0 0 0 4.3 13.1 48 48 0 0 0 9.4 10.3zm-6.2-42.2c-3.7 1.9-7.4 4-10.5 6.8a25 25 0 0 0-3.9 4.7c-1.1 1.7-2 3.6-2.8 5.5l-1.9-.9c1-1.9 2.1-3.8 3.4-5.5a25 25 0 0 1 4.6-4.6c3.3-2.7 7.2-4.4 11.1-6zM351 568.1a43.2 43.2 0 0 1-8.8-9.3 26.2 26.2 0 0 1-2.9-5.8 49 49 0 0 1-1.7-6.3l2.1-.3a31.2 31.2 0 0 0 3.4 11.9 46 46 0 0 0 7.9 9.8zm-8.4-38.9a39.9 39.9 0 0 0-9.5 6.2 19.5 19.5 0 0 0-3.5 4.2c-1 1.6-1.8 3.2-2.5 4.9l-1.9-.9c.9-1.7 1.9-3.4 3.1-5 1.2-1.6 2.6-3 4.2-4.1 3.1-2.3 6.6-3.9 10.1-5.3zM337.3 564.1c-3-2.4-5.8-5.1-8-8.4a30 30 0 0 1-4.2-11l2.1-.3a29.5 29.5 0 0 0 3 10.8c1.8 3.2 4.4 6.1 7.1 8.9zM358.4 550.7l-8.1-1.4-8.1-1.5-8.1-1.6a55 55 0 0 1-8-2v-.2c2.8 0 5.5.4 8.2.7l8.1 1.2 8.1 1.3 8.1 1.4-.2 2.1z"/>
    </g>
    <ellipse fill="#F2BC51" transform="rotate(-81.4 374.2 552)" cx="374.2" cy="552.1" rx="12.3" ry="15.8"/>
    <path fill="#BC2E2E" d="M366.3 559c-5-.8-8.4-5.6-7.8-9.3.6-3.8 5.3-7.2 10.3-6.5 5 .8 6.2 5.2 5.6 9-.6 3.8-3.1 7.6-8.1 6.8z"/>
    <g stroke="none" fill="#000">
      <path d="m367.6 607.8 6.6 5.1 3.1 2.7 1.4 1.5.6.8.4.9c-.2-.3-.3-.6-.6-.8l-.7-.7-1.6-1.3-3.4-2.3c-2.3-1.5-4.7-2.8-7.1-4.1l1.3-1.8zm16.2 3.2c-.9-1.1-2-2-3.2-2.8-1.2-.8-2.5-1.4-3.8-2a31 31 0 0 0-8-1.9l.1-2.1a29.3 29.3 0 0 1 12 5.6c1.1.9 2.2 2 2.9 3.2zm-4.2-12a21 21 0 0 0-5.9-1.7l-3-.3c-1 0-2 0-2.8.2l-.4-2.1c1.3-.1 2.3.1 3.4.3a24 24 0 0 1 8.7 3.6zm-2.2-8a53.6 53.6 0 0 0-24.7-4.5l-.2-2.1a45.6 45.6 0 0 1 13 1.9l6.2 2 5.7 2.7zm-16.6-12.8a58 58 0 0 0-15 .7 30.8 30.8 0 0 0-13.2 6.2l-1.3-1.7a34 34 0 0 1 14.2-5.5c5.2-.7 10.3-.4 15.3.3zm13.6 45.8c-1.4-.4-2.7-1-4-1.8a29.7 29.7 0 0 1-6.5-5.9c-.9-1.2-1.8-2.3-2.5-3.9l2-.7c.4 1.2 1 2.5 1.8 3.6.7 1.2 1.6 2.3 2.5 3.4.9 1.1 1.9 2.1 3 3a11 11 0 0 0 3.7 2.3zm-12.7-.3a23.4 23.4 0 0 1-7.6-10.3l2.1-.3c.1.8.3 1.8.7 2.7l1.3 2.8c.9 1.8 2.1 3.5 3.5 5.1zm-8-.1c-1.6-1.5-3-3.1-4.4-4.7a62.8 62.8 0 0 1-9.6-16.9l2.1-.5a37.7 37.7 0 0 0 4.7 11.7c2 3.6 4.3 7.2 7.2 10.4zM335.4 611.7c-2-4.3-4-8.6-5.1-13.4a29.2 29.2 0 0 1 .7-14.4l2 .7c-.8 2.2-1.4 4.4-1.7 6.7-.3 2.3-.3 4.6.1 6.9.6 4.6 2.3 9.1 4 13.5zm13.4-39.2c-4.4.2-8.8.4-13 1.4a23.6 23.6 0 0 0-10.9 6.3l-1.4-1.6a31 31 0 0 1 5.7-3.7c2-1 4.2-1.7 6.4-2.1 4.4-.6 8.8-.5 13.2-.3zM327.8 606.2a36.3 36.3 0 0 1-5.1-12.9c-.4-2.3-.5-4.7-.4-7 .1-2.4.4-4.7.9-7l2.1.5a33.9 33.9 0 0 0 2.5 26.4zm8.6-38.8c-4.1.2-8.2.4-12 1.4a21.4 21.4 0 0 0-10 6l-1.4-1.6a24.9 24.9 0 0 1 11.3-5.5c4-.7 8.1-.5 12.1-.3zM341.1 590.9l-12.4-7.4-12.4-7.5-12.3-7.6a158 158 0 0 1-12.1-8l.1-.2c4.4 2.1 8.6 4.4 12.8 6.9l12.5 7.2 12.5 7.3 12.4 7.4-1.1 1.9z"/>
    </g>
    <ellipse fill="#F2BC51" transform="rotate(-54 354.4 599.4)" cx="354.4" cy="599.4" rx="12.3" ry="15.8"/>
    <path fill="#BC2E2E" d="M344.2 601.9c-4.1-3-4.9-8.8-2.6-11.8 2.3-3.1 8-4 12.1-1s3.1 7.5.8 10.5c-2.3 3.1-6.3 5.3-10.3 2.3z"/>
    <g stroke="none" fill="#000">
      <path d="M327.2 647.7a101 101 0 0 1 7 12.6l.3 1 .1 1-.2-1-.4-.9-1-1.8-2.4-3.3a79 79 0 0 0-5.2-6.3l1.8-1.3zm14.1 8.7a17.2 17.2 0 0 0-4.8-7 21.6 21.6 0 0 0-6.8-4.6l.8-2c1.5.8 2.6 1.7 3.7 2.7l3.1 3.2a23 23 0 0 1 2.5 3.6c.6 1.3 1.2 2.7 1.5 4.1zm.2-12.7a24.3 24.3 0 0 0-4.9-3.7l-2.7-1.4c-.9-.4-1.9-.7-2.7-.8l.4-2.1c1.2.4 2.1.9 3.1 1.5a24.8 24.8 0 0 1 6.8 6.5zm.8-8.2a54.5 54.5 0 0 0-21.6-13l.6-2.1c2.1.7 4.1 1.7 6 2.8 1.9 1.1 3.7 2.3 5.5 3.6 1.7 1.3 3.4 2.6 5 4.1 1.6 1.4 3.1 2.9 4.5 4.6zm-11-17.9c-4.4-2-8.9-3.8-13.6-4.5a27.4 27.4 0 0 0-13.9 1.1l-.6-2.1c2.4-.6 4.9-.9 7.3-1 2.5-.1 5 .2 7.3.8 4.9 1.3 9.3 3.4 13.5 5.7zm-3.4 47.7a13 13 0 0 1-3.1-3.1c-.9-1.2-1.6-2.4-2.3-3.7-.7-1.3-1.2-2.7-1.7-4.1-.5-1.4-.9-2.8-1-4.5h2.1a14 14 0 0 0 .4 4l1.1 4.1 1.8 3.9c.7 1.2 1.6 2.4 2.7 3.4zm-11.8-4.9a23.1 23.1 0 0 1-3.2-8.9c-.2-1.1-.3-2.1-.2-3.4l2.1.5a12 12 0 0 0-.3 2.8l.2 3c.2 2.1.6 4.1 1.4 6zm-7.4-2.8a63.2 63.2 0 0 1-5.3-18.6c-.2-2.2-.4-4.4-.2-6.6l2.1.3c-.3 2-.4 4.1-.3 6.2a67 67 0 0 0 3.7 18.7zM295.7 640c-.4-4.7-.6-9.5.4-14.2.5-2.4 1.3-4.7 2.4-6.8a49 49 0 0 1 3.8-6.2l1.7 1.3a44.6 44.6 0 0 0-4.1 5.6 25 25 0 0 0-2.7 6.3 50.5 50.5 0 0 0-1.5 14zm-5.1-11.8c-.4-4.7-.6-9.5.4-14.2.5-2.4 1.3-4.7 2.4-6.8a49 49 0 0 1 3.8-6.2l1.7 1.3a44.6 44.6 0 0 0-4.1 5.6 25 25 0 0 0-2.7 6.3 44 44 0 0 0-1.5 14zM308.3 622.5l-2.4-3.7-2.3-3.8-2.3-3.8c-.8-1.3-1.4-2.6-1.9-4l.2-.1c1.2 1 2.1 2.1 3 3.3l2.6 3.6a78 78 0 0 1 4.9 7.3l-1.8 1.2z"/>
    </g>
    <ellipse fill="#F2BC51" transform="rotate(-33.3 317.8 635.1)" cx="317.8" cy="635.1" rx="12.3" ry="15.8"/>
    <path fill="#BC2E2E" d="M307.4 633.9c-2.7-4.2-1.5-9.9 1.7-12 3.2-2.1 8.9-.9 11.7 3.3 2.7 4.2.3 8.1-2.9 10.2-3.2 2.1-7.8 2.8-10.5-1.5z"/>
    <g stroke="none" fill="#000">
      <path d="M275.5 671a200.8 200.8 0 0 1 1.6 12.3v2.1l-.1 1-.3 1 .2-1v-1a28.8 28.8 0 0 0-1.2-6c-.7-2.6-1.4-5.3-2.3-7.8l2.1-.6zm9.5 13.4a19 19 0 0 0-1.8-8.3 26.4 26.4 0 0 0-4.5-6.9l1.5-1.5a29 29 0 0 1 4.9 12.3c.2 1.5.2 3-.1 4.4zm5.2-11.6a25.4 25.4 0 0 0-5.1-7.6c-.7-.7-1.5-1.4-2.2-1.8l1.2-1.8c1 .8 1.6 1.7 2.2 2.6l1.6 2.8a18 18 0 0 1 2.3 5.8zm3.9-7.3a50.5 50.5 0 0 0-10.3-16.1c-1.4-1.6-2.9-3-4.6-4.3l1.3-1.7a41.5 41.5 0 0 1 8.1 10.3 78.2 78.2 0 0 1 5.5 11.8zm-3.2-20.7a57.5 57.5 0 0 0-10.8-9.5 25 25 0 0 0-6.4-3c-2.2-.7-4.5-1.1-6.9-1.3l.3-2.1a30.1 30.1 0 0 1 13.5 5.6c4.1 2.9 7.3 6.6 10.3 10.3zm-21.7 42.5a21.4 21.4 0 0 1-2.3-8.3v-4.4c.1-1.5.3-2.9.9-4.5l1.9.9c-.6 1.1-.9 2.5-1.2 3.9a20 20 0 0 0-.5 4.2c-.1 1.4 0 2.8.1 4.3.2 1.2.5 2.6 1.1 3.9zm-9-9c-.3-2.1-.3-4.2-.1-6.3l.5-3.2a14 14 0 0 1 1.2-3.2l1.7 1.2c-.5.6-1 1.6-1.4 2.5l-1 2.9c-.4 2-.8 4-.9 6.1z"/>
    </g>
    <ellipse fill="#F2BC51" transform="rotate(-10.4 271.6 655.5)" cx="271.7" cy="655.7" rx="12.3" ry="15.8"/>
    <path fill="#BC2E2E" d="M262.5 650.5c-.9-5 2.5-9.7 6.3-10.4 3.7-.7 8.6 2.6 9.4 7.6.9 5-2.9 7.6-6.7 8.2-3.6.7-8.1-.4-9-5.4z"/>
    <path fill="none" d="M307.8 389.9a506.7 506.7 0 0 0-35 35.3m-.4-70.9c-4.8 7-15.4 33.2-18.8 41m87.9 33.4c-5.4 4.5-34.8 16.3-40.7 20.1m56 28.7c-7.1 2.9-27.3 6-34.8 7.4m47.2 41.8c-15.4 1.3-45-2.7-49.9-3m42.4 50.8c-9.8-3.6-32.8-11.4-41.8-16.7M294.6 645a215.6 215.6 0 0 0-18.8-32.9m57.5 3.2c-6.6-4.8-16.3-16.8-21.6-22.9"/>
    <path fill="#3E933E" stroke-width="1.78" d="M279.6 601.9c.8-.9 2.6-.8 3.2-.5 2.2 1.1 3.9 3.1 5.5 5 1.9 2.3 3.1 4.2 6 5 2.4.6 5.4-.6 6.2-2.7.2-.6.9-.7 1.4-.4 4 2.8 9.8 1.3 14.1-1.2 3.9-2.3 6-1.2 7.1-2.9 1.2-1.8-.7-3.2 0-7.7.7-5-.2-10.9-4.2-13.5-.5-.3-.6-1.1-.2-1.5 1.7-1.6 1.7-4.8.1-6.8-1.8-2.3-4.1-2.8-6.9-3.6-2.4-.7-5-2.2-7.5-3.9-2.2-1.5-4.8-5.1-4.8-5.1a21 21 0 0 1 14.9 2.4c2.6 1.4 4.5 2.6 7.5 2.2 2.4-.4 4.7-2.7 4.6-4.9 0-.6.6-1 1.2-.9 4.8.9 9.5-2.7 12.5-6.7 2.7-3.7 5-3.4 5.4-5.5.4-2.1-1.9-2.7-3.1-7.1-1.3-4.9-4.4-9.9-9.2-10.7-.6-.1-1-.7-.7-1.3.9-2.1-.4-5.1-2.5-6.3-2.6-1.4-4.8-1-7.8-.6-2.5.3-5 .3-7.4-.2-2-.5-12.3-2.4-12.3-2.4 3.6-1.5 9.5-3.8 11.9-4.3 2.4-.5 6-.9 8.4-.9 3 0 5.3.3 7.7-1.4 2-1.4 3-4.5 1.9-6.5a.9.9 0 0 1 .6-1.3c4.7-1.3 7.3-6.7 8.1-11.6.7-4.5 2.9-5.3 2.3-7.4-.6-2-2.9-1.5-5.9-4.9-3.3-3.7-8.4-6.8-13.1-5.4-.6.2-1.2-.2-1.2-.8-.2-2.3-2.6-4.3-5.1-4.4-3-.1-4.7 1.3-7.2 3a26.1 26.1 0 0 1-7.5 3.2c-2.3.6-8.1.6-8.1.6s4.8-4.2 6.6-5.5c2-1.4 4.4-2.3 6.8-2.9 2.9-.7 5.1-1.1 7-3.4 1.6-1.9 1.7-5.1.1-6.8-.4-.4-.3-1.1.2-1.5 4.2-2.5 5.3-8.4 4.7-13.4-.5-4.5 1.4-5.9.3-7.7-1.1-1.8-3.2-.7-7-3.2-4.2-2.7-10-4.3-14.1-1.7-.5.3-1.2.1-1.4-.4-.8-2.2-3.7-3.5-6.1-2.9-2.9.7-4.2 2.6-6.2 4.8a17.4 17.4 0 0 1-5.6 4.9c-.6.3-4.6 2-6.4 2.3a15 15 0 0 1 2.7-7.4c1.6-1.8 3.7-3.4 5.8-4.6 2.6-1.5 4.7-2.4 5.9-5.2 1-2.3.2-5.4-1.7-6.5-.5-.3-.6-1-.2-1.5 3.3-3.5 2.8-9.5.9-14.1-1.7-4.2-.2-6.1-1.8-7.5-1.6-1.4-3.3.2-7.6-1.2-4.8-1.5-10.8-1.5-14 2.1a1 1 0 0 1-1.5 0c-1.3-1.9-4.5-2.4-6.7-1.2-2.6 1.4-3.4 3.6-4.6 6.3a28 28 0 0 1-6.5 8.5c-1.4-4 1.4-13.4 2.1-15.7.9-2.8 1.8-4.9.9-7.8-.8-2.3-3.4-4.1-5.7-3.7-.6.1-1.1-.4-1.1-1 .1-4.9-4.3-8.9-8.8-11.1-4.1-2-4.7-4.3-6.8-4.3-2.1 0-2.7 2.4-6.8 4.3-4.5 2.2-8.9 6.2-8.8 11.1 0 .6-.5 1.1-1.1 1-2.2-.5-4.9 1.3-5.7 3.7-.9 2.8 0 4.9.9 7.8.8 2.4 3.5 11.8 2.1 15.7-2.7-2-5.5-6.2-6.5-8.5-1.3-2.7-2-4.8-4.6-6.3-2.2-1.2-5.3-.7-6.7 1.2-.3.5-1.1.5-1.5 0-3.3-3.6-9.2-3.6-14-2.1-4.3 1.4-6.1-.3-7.6 1.2-1.6 1.4-.1 3.3-1.8 7.5-1.9 4.7-2.4 10.6.9 14.1.4.4.3 1.2-.2 1.5-2 1.2-2.7 4.3-1.7 6.5 1.2 2.7 3.3 3.7 5.9 5.2 2.2 1.2 4.2 2.8 5.8 4.6.9 1 2.7 4.7 2.7 7.4-1.8-.3-5.8-2-6.4-2.3-2.2-1-4-3-5.6-4.9-1.9-2.2-3.3-4.1-6.2-4.8-2.4-.6-5.3.8-6.1 2.9-.2.6-.9.8-1.4.4-4.1-2.6-9.8-1-14.1 1.7-3.8 2.5-5.9 1.4-7 3.2-1.1 1.8.8 3.2.3 7.7-.6 5 .5 10.8 4.7 13.4.5.3.6 1 .2 1.5-1.6 1.6-1.5 4.9.1 6.8 1.9 2.3 4.2 2.7 7 3.4 2.4.6 4.8 1.5 6.8 2.9 1.8 1.3 6.6 5.5 6.6 5.5s-5.7 0-8.1-.6c-2.4-.6-5.4-1.8-7.5-3.2-2.5-1.6-4.2-3.1-7.2-3-2.5.1-4.9 2.2-5.1 4.4 0 .6-.7 1-1.2.8-4.7-1.4-9.8 1.6-13.1 5.4-3 3.4-5.3 2.9-5.9 4.9-.6 2 1.6 2.9 2.3 7.4.8 5 3.4 10.3 8.1 11.6.6.2.9.8.6 1.3-1.1 2-.1 5.1 1.9 6.5 2.4 1.7 4.7 1.5 7.7 1.4 2.5 0 6.1.4 8.4.9 2.5.5 8.3 2.8 11.9 4.3l-12.3 2.4c-2.4.5-5 .5-7.4.2-2.9-.4-5.2-.8-7.8.6-2.2 1.2-3.4 4.2-2.5 6.3.2.5-.2 1.2-.7 1.3-4.8.8-8 5.9-9.2 10.7-1.2 4.4-3.5 5-3.1 7.1s2.7 1.8 5.4 5.5c2.9 4.1 7.7 7.7 12.5 6.7.6-.1 1.2.3 1.2.9-.1 2.3 2.2 4.6 4.6 4.9 2.9.4 4.9-.8 7.5-2.2a21 21 0 0 1 14.9-2.4s-2.6 3.6-4.8 5.1a31.7 31.7 0 0 1-7.5 3.9c-2.8.8-5.1 1.3-6.9 3.6-1.5 2-1.5 5.2.1 6.8.4.4.3 1.1-.2 1.5-4.1 2.7-5 8.6-4.2 13.5.7 4.5-1.2 6 0 7.7 1.2 1.8 3.2.6 7.1 2.9 4.3 2.6 10.1 4 14.1 1.2.5-.3 1.2-.2 1.4.4.8 2.1 3.8 3.4 6.2 2.7 2.9-.8 4.1-2.7 6-5 1.6-1.9 3.3-4 5.5-5 .6-.3 2.4-.4 3.2.5"/>
    <g stroke="none" fill="#000">
      <path d="M224.2 386.7c.3-2.3.6-4.6.7-6.9l.1-3.5-.1-1.7c-.1-.6-.1-1.1-.4-1.7.4.5.5 1 .7 1.6.1.6.3 1.1.3 1.7l.4 3.5c.2 2.3.3 4.7.3 7h-2zm7.8-12.6c.5 1.1.7 2.4.8 3.6a22.9 22.9 0 0 1-2 11.1l-1.8-1.2c.6-.8 1.2-1.9 1.6-3a33.8 33.8 0 0 0 1.7-7c.1-1.1 0-2.3-.3-3.5zm6.1 8.9a18.9 18.9 0 0 1-1.7 7.9c-.4.9-.8 1.7-1.4 2.5l-1.5-1.5a16 16 0 0 0 2.8-4 17 17 0 0 0 1.8-4.9zm4.4 5.5a48.3 48.3 0 0 1-7.6 20.5l-1.6-1.4c1.2-1.2 2.2-2.7 3.1-4.2l2.6-4.7c1.5-3.3 2.8-6.7 3.5-10.2zm.6 17.7c-1.9 3.6-4 7.2-6.8 10.3-1.4 1.5-3 2.9-4.8 4a30.1 30.1 0 0 1-5.7 2.8l-.7-2a23.2 23.2 0 0 0 10.3-5.6c3.2-2.7 5.5-6.1 7.7-9.5zm-24.7-32a11 11 0 0 0-.2 3.6c.1 1.2.3 2.4.6 3.5l1.1 3.4c.5 1.1 1 2.2 1.6 3l-1.8 1.2a14 14 0 0 1-1.4-3.7l-.7-3.7c-.1-1.2-.2-2.5-.1-3.7.2-1.2.4-2.5.9-3.6zm-6.1 8.9a26 26 0 0 0 3.1 7.1c.5.7 1 1.4 1.6 1.8l-1.5 1.5c-.7-.8-1.1-1.7-1.5-2.5a32.3 32.3 0 0 1-1.7-7.9zm-3.8 5.5a44.3 44.3 0 0 0 9.5 19.1l-1.6 1.4a29.7 29.7 0 0 1-3-4.8 56 56 0 0 1-4.9-15.7zM207.5 407c2.2 3.3 4.6 6.6 7.6 9.1 1.5 1.3 3.2 2.3 4.9 3.1 1.8.8 3.6 1.5 5.5 2l-.7 2c-1.9-.7-3.8-1.5-5.6-2.6-1.8-1-3.4-2.3-4.9-3.8a39.9 39.9 0 0 1-6.8-9.8zm29.7 18.7c-1.4 1.9-3 3.7-4.9 5.1-2 1.4-4.3 2.4-6.6 3.1l-.5-2.1a18.7 18.7 0 0 0 12-6.1zM213.4 426.1c1.7 1.6 3.5 3.1 5.5 4 2 1 4.3 1.4 6.5 1.7l-.4 2.1c-2.3-.7-4.6-1.5-6.6-2.9-2-1.3-3.6-3.1-5-4.9zM226.6 413.5v9.3l-.1 9.3-.2 9.3c-.1 3.1-.2 6.2-.6 9.3h-.2a97 97 0 0 1-.7-9.3l-.2-9.3-.1-9.3v-9.3h2.1z"/>
    </g>
    <ellipse fill="#F2BC51" transform="matrix(1 -.0042 .0042 1 -1.7 1)" cx="225.4" cy="400.2" rx="10.4" ry="13.4"/>
    <path fill="#BC2E2E" d="M218.6 405.9c0 4.3 3.6 7.7 6.8 7.6 3.2 0 6.7-3.5 6.7-7.8s-3.6-5.8-6.8-5.8c-3.2.1-6.7 1.7-6.7 6z"/>
    <g stroke="none" fill="#000">
      <path d="M179.5 410.6a115 115 0 0 0-4.1-5.6l-2.2-2.6-1.2-1.2a3 3 0 0 0-1.4-.9c.6.1 1.1.4 1.6.7l1.4 1 2.6 2.3 5 5-1.7 1.3zm-2.7-14.6c1.1.5 2.1 1.3 3 2.1.9.8 1.7 1.8 2.5 2.8.8 1 1.4 2.1 2 3.2a17 17 0 0 1 1.5 3.6l-2.1.3c-.1-1-.4-2.2-.8-3.3a24 24 0 0 0-1.5-3.3c-.6-1-1.2-2.1-2-3-.7-.8-1.5-1.7-2.6-2.4zm10.5 2.4c1.2 1.3 2.1 2.9 3 4.5l1.1 2.5c.3.9.6 1.8.6 2.9l-2.1-.1a22.1 22.1 0 0 0-2.6-9.8zm7 1.1a47 47 0 0 1 8.2 20.3l-2.1.1c0-1.7-.2-3.5-.5-5.2-.3-1.8-.8-3.5-1.3-5.2a62.8 62.8 0 0 0-4.3-10zm11.8 17.2a42 42 0 0 1 1.5 11.2c-.1 1.9-.4 3.8-1 5.7-.6 1.9-1.7 3.6-3 5.1l-1.5-1.5c1.3-1.2 2.3-2.6 3-4.2.7-1.6 1.2-3.4 1.4-5.2.5-3.6.2-7.4-.4-11.1zm-39.3-11.4c.6 1.1 1.4 2 2.3 2.8.9.8 1.8 1.6 2.8 2.2a18.7 18.7 0 0 0 6.3 2.8l-.5 2.1a23.7 23.7 0 0 1-9.1-6.8 12 12 0 0 1-1.8-3.1zm1.5 10.6a19 19 0 0 0 9.5 3.4l-.1 2.1c-1.1-.2-1.9-.5-2.8-.9l-2.4-1.3c-1.5-.9-2.9-2-4.2-3.3zm.9 6.7a49 49 0 0 0 19.9 7.8l-.2 2.1a24 24 0 0 1-5.4-1.6c-1.7-.7-3.4-1.4-5-2.3a42.4 42.4 0 0 1-9.3-6zM180.9 436.8c3.5 1.5 7.1 2.7 10.8 2.8 3.7.1 7.3-.9 10.5-2.6l.9 1.9a22.8 22.8 0 0 1-11.5 1.7c-3.8-.4-7.4-1.9-10.7-3.8zm29.5-6.3c.2 1.4.5 2.9.6 4.4.1 1.5.2 3 0 4.5a9.2 9.2 0 0 1-1.7 4.4c-.9 1.3-2.1 2.3-3.1 3.3l-1.4-1.6c1.2-.9 2.3-1.7 3.3-2.7 1-1 1.6-2.2 1.9-3.5.3-1.4.4-2.8.5-4.3l-.1-4.5zM183.9 442.9c3.3 1.8 6.8 3.3 10.5 3.8s7.4-.2 10.7-1.5l.7 2a22.9 22.9 0 0 1-11.6.6c-3.8-.9-7.2-2.7-10.3-4.9zm15.7-13.9 4.3 8.8 4.2 8.8 4.1 8.8c1.4 2.9 2.7 5.9 3.7 9l-.2.1a71.2 71.2 0 0 1-4.8-8.5l-4.4-8.7-4.4-8.7-4.3-8.8 1.8-.8z"/>
    </g>
    <ellipse fill="#F2BC51" transform="rotate(-42.6 189.5 419.7)" cx="189.5" cy="419.7" rx="10.4" ry="13.4"/>
    <path fill="#BC2E2E" d="M188.3 428.5c2.9 3.1 7.9 3.2 10.2 1 2.4-2.2 2.6-7.1-.3-10.3-2.9-3.1-6.6-1.9-8.9.3-2.4 2.3-3.9 5.9-1 9z"/>
    <g stroke="none" fill="#000">
      <path d="M128.7 493.8a72.1 72.1 0 0 0-11.4-4.2c-.6-.1-1.1-.2-1.7-.1.5-.2 1.2-.2 1.7-.2l1.8.2 3.5.6 6.8 1.7-.7 2zm-9.8-11.1c1.2-.1 2.5 0 3.7.3a24.7 24.7 0 0 1 7 2.8c1.1.7 2.1 1.3 3.1 2.4l-1.7 1.3c-.6-.8-1.5-1.7-2.4-2.4a29.8 29.8 0 0 0-6.1-3.6c-1.1-.4-2.3-.7-3.6-.8zm10.3-3.3c1.7.5 3.3 1.3 4.8 2.3a17.7 17.7 0 0 1 4.2 3.7l-1.9 1c-.3-.6-.7-1.3-1.3-2l-1.7-1.9a26 26 0 0 0-4.1-3.1zm6.5-2.6a46.3 46.3 0 0 1 17.5 13.2l-1.8 1.2a32.5 32.5 0 0 0-6.9-8 42.1 42.1 0 0 0-8.8-6.4zm17.2 3.4c2.9 2.9 5.7 5.9 7.9 9.4 1.1 1.8 1.9 3.7 2.5 5.8.6 2 .9 4.1 1.1 6.2l-2.1.1a23.1 23.1 0 0 0-2.4-11.5 49.9 49.9 0 0 0-7-10zm-37.8 15.6c1.1.6 2.2 1 3.4 1.3 1.2.3 2.4.4 3.6.5 1.2.1 2.4 0 3.6-.1 1.2-.1 2.4-.3 3.3-.7l.7 2c-1.4.3-2.6.3-3.9.3-1.3 0-2.5-.2-3.7-.4-1.2-.2-2.4-.6-3.6-1-1.3-.6-2.5-1.1-3.4-1.9zm6.8 8.3c1.8.1 3.5 0 5.2-.4l2.5-.6c.8-.3 1.6-.6 2.1-1l1 1.9c-1 .4-1.9.6-2.8.7l-2.7.1c-1.8 0-3.6-.2-5.3-.7zm4.1 5.3c3.6.3 7.3 0 10.8-.6l5.3-1.1c1.7-.5 3.4-1.1 4.9-1.8l.9 1.9a34.4 34.4 0 0 1-11 2.1c-3.6.2-7.3.2-10.9-.5zM143.4 515.6c4-1.2 7.8-2.8 11-5.4 3.2-2.5 5.7-5.8 7.9-9.2l1.8 1.2a34.6 34.6 0 0 1-9 8.9 31.6 31.6 0 0 1-11.7 4.5zm24-28.5c2.2 2.1 4.3 4.3 5.9 6.9.8 1.3 1.5 2.8 1.9 4.3.5 1.5.7 3.1.9 4.6l-2.1.1c.1-2.9-.3-5.8-1.6-8.4a31.7 31.7 0 0 0-5-7.5zM160.4 514.7a19 19 0 0 0 8.1-4.8c2.2-2.2 3.9-4.9 5.6-7.6l1.8 1.2c-2 2.6-4.1 5.2-6.7 7.2a19.1 19.1 0 0 1-8.8 4zm21-26.1c2.2 2.1 4.3 4.3 5.9 6.9.8 1.3 1.5 2.8 1.9 4.3.5 1.5.7 3.1.9 4.6l-2.1.1c.1-2.9-.3-5.8-1.6-8.4-1.2-2.8-3-5.2-5-7.5zM174.5 516.2a19 19 0 0 0 8.1-4.8c2.2-2.2 3.9-4.9 5.6-7.6l1.8 1.2c-2 2.6-4.1 5.2-6.7 7.2-2.6 2-5.7 3.4-8.8 4zM154.9 499.2l11.2 1.4c3.7.5 7.5.9 11.2 1.5l11.2 1.5c3.7.5 7.4 1.1 11.1 2v.2c-3.8 0-7.5-.3-11.3-.7l-11.2-1.2-11.2-1.2-11.2-1.3.2-2.2z"/>
    </g>
    <ellipse fill="#F2BC51" transform="rotate(-73.5 142 496.6)" cx="142" cy="496.5" rx="10.4" ry="13.4"/>
    <path fill="#BC2E2E" d="M145.5 504.7c4.1 1.2 8.4-1.3 9.3-4.4.9-3.1-1.5-7.5-5.6-8.6-4.1-1.2-6.6 1.8-7.5 4.9-.9 3.1-.3 6.9 3.8 8.1z"/>
    <path d="M177.4 439.4a92 92 0 0 1 11.3 10.3 271.8 271.8 0 0 1 27.7 35.9l-.2.1c-3.4-3.8-6.4-7.8-9.5-11.8-3.1-4-6.2-7.9-9.5-11.7-3.3-3.8-6.6-7.6-10.1-11.1-3.5-3.6-7.1-7-11-10.1l1.3-1.6zm29.7-32c1.5 3.1 2.4 6.2 3.4 9.3 1 3.1 1.8 6.3 2.6 9.4a406.9 406.9 0 0 1 7.9 38.4 140 140 0 0 1 1.9 19.5h-.2l-3.1-19.3a403 403 0 0 0-11-47.4c-1-3.1-1.9-6.2-3.3-9l1.8-.9zm-58.7 111.5a381.3 381.3 0 0 1 45.3-2.5c5-.1 10.1-.1 15.1.4v.2c-5 .4-10.1.7-15.1.9l-15.1.7-15.1.9c-5 .4-10 .8-14.9 1.5l-.2-2.1z" stroke="none" fill="#000"/>
    <g stroke="none" fill="#000">
      <path d="m148.4 449.2-5.4-4.3-2.9-2-1.5-.8a3 3 0 0 0-1.6-.5c.6-.1 1.2.1 1.7.3l1.6.6 3.2 1.5c2.1 1.1 4.1 2.2 6.1 3.5l-1.2 1.7zm-6.5-13.3c1.2.2 2.4.7 3.5 1.2l3.1 2 2.8 2.5a15 15 0 0 1 2.4 3.1l-2 .9a20.4 20.4 0 0 0-4-5.6c-.8-.9-1.7-1.7-2.7-2.4a9.2 9.2 0 0 0-3.1-1.7zm10.8-.4a22.3 22.3 0 0 1 5.7 5.6c.5.8 1 1.5 1.4 2.6l-2.1.5c-.1-.7-.4-1.5-.7-2.3-.3-.8-.7-1.5-1.2-2.3-.8-1.5-1.8-2.9-3.1-4.1zm7-.9c2.9 2.3 5.4 5 7.6 7.9a73 73 0 0 1 3.2 4.5c1 1.6 1.9 3.2 2.5 5l-2 .6c-.4-1.7-1.1-3.3-1.9-4.9l-2.6-4.7c-2-2.9-4.2-5.8-6.8-8.4zm15.3 9c2 3.5 4 7.2 5.1 11.2a25.8 25.8 0 0 1 .3 12.5l-2.1-.5c.6-1.9 1-3.8 1.1-5.8.1-2 0-4-.3-5.9-.8-4.1-2.4-7.8-4.1-11.5zm-40.3 3.9c.9.9 1.9 1.6 2.9 2.1a23.3 23.3 0 0 0 6.8 2.2c1.2.2 2.4.3 3.4.2l.1 2.1c-1.4-.1-2.6-.4-3.9-.8l-3.5-1.4-3.2-1.9c-.9-.7-1.8-1.5-2.6-2.5zm4.4 9.9c1.7.6 3.4.9 5.1 1l2.6.1c.8 0 1.7-.1 2.3-.4l.5 2.1c-1.1.1-2 0-2.9-.1l-2.7-.6c-1.7-.6-3.4-1.2-4.9-2.1zm2.6 6.2a47.7 47.7 0 0 0 21.2 2.1l.3 2.1a34.9 34.9 0 0 1-11.1-.8c-3.6-.8-7.1-1.9-10.4-3.4zM156.8 474.2c4-.1 8-.4 11.8-1.6 1.9-.6 3.6-1.4 5.3-2.5 1.6-1 3.2-2.3 4.6-3.6l1.4 1.6a38.9 38.9 0 0 1-5.2 3.4c-1.8 1-3.8 1.7-5.8 2.1a45 45 0 0 1-12.1.6zm10.4 4.6c3.4-.1 6.9-.4 10.1-1.4 1.6-.5 3.1-1.3 4.5-2.2 1.4-.9 2.7-2 3.9-3.1l1.4 1.6a23 23 0 0 1-9.5 4.7 33 33 0 0 1-10.4.4zM172.4 461.5l10.6 7.3 10.6 7.4 10.5 7.4c3.5 2.5 7 5 10.3 7.8l-.1.2c-3.8-2.1-7.4-4.4-11-6.7l-10.8-7.1-10.7-7.2a397 397 0 0 1-10.6-7.3l1.2-1.8z"/>
    </g>
    <ellipse fill="#F2BC51" transform="rotate(-58.1 160.5 455.4)" cx="160.4" cy="455.4" rx="10.4" ry="13.4"/>
    <path fill="#BC2E2E" d="M161.7 464.2c3.6 2.2 8.4 1 10.1-1.7 1.7-2.7.6-7.6-3.1-9.8s-6.9 0-8.5 2.7c-1.7 2.7-2.2 6.5 1.5 8.8z"/>
    <g stroke="none" fill="#000">
      <path d="M155.9 476.8a152 152 0 0 1 15 4.4 255 255 0 0 1 28.7 11.9c4.7 2.2 9.3 4.5 13.8 7.1l-.1.2-14.2-6.1c-4.7-2.1-9.5-4.1-14.3-6-4.8-1.9-9.6-3.8-14.5-5.4a156 156 0 0 0-14.8-4.3l.4-1.8zm-8.8 115.8c-2.1 1-4.1 2-6.1 3.2l-3 1.8-1.4 1c-.4.4-.9.7-1.1 1.3.2-.6.6-1 1-1.5l1.2-1.2 2.7-2.3a83 83 0 0 1 5.7-4.1l1 1.8zm-14.8.4c.7-1 1.6-1.9 2.6-2.7a20.5 20.5 0 0 1 6.5-3.5 15 15 0 0 1 3.8-.9v2.1c-1-.1-2.2.1-3.4.3-1.2.2-2.3.6-3.4 1a14.2 14.2 0 0 0-6.1 3.7zm4-10a25 25 0 0 1 7.5-2.9c.9-.2 1.8-.3 2.9-.2l-.4 2.1a8 8 0 0 0-2.3-.3l-2.6.1c-1.7.2-3.4.6-5.1 1.2zm2.2-6.7c3.2-1.7 6.7-2.8 10.3-3.7 1.8-.4 3.6-.8 5.4-1 1.8-.2 3.7-.4 5.6-.2l-.3 2.1c-1.7-.3-3.5-.3-5.3-.3-1.8.1-3.6.2-5.4.5-3.4.5-7 1.3-10.3 2.6zm14.4-10.3a46 46 0 0 1 12.3 0 25.4 25.4 0 0 1 11.5 5l-1.3 1.7a26.2 26.2 0 0 0-4.8-3.4c-1.7-.9-3.6-1.7-5.5-2.1-4-1.1-8.1-1.2-12.2-1.2zM139.9 604.3c1.2-.4 2.2-1.1 3.1-1.8 1-.7 1.8-1.6 2.6-2.5l2.2-2.8c.6-1 1.3-2 1.6-3l2 .8c-.7 1.3-1.4 2.2-2.3 3.2l-2.7 2.6c-1 .8-2 1.5-3.1 2.1-1 .7-2.2 1.2-3.4 1.4zm10.8.2c1.2-1.3 2.2-2.7 3.1-4.2l1.1-2.3c.3-.8.6-1.6.6-2.3l2.1.4c-.3 1.1-.8 1.8-1.3 2.6l-1.6 2.2a33.3 33.3 0 0 1-4 3.6zm6.7.1c2.5-2.6 4.6-5.6 6.5-8.7.9-1.6 1.8-3.1 2.5-4.8.7-1.6 1.4-3.3 1.7-5l2.1.6a45.3 45.3 0 0 1-5.4 9.7 41.6 41.6 0 0 1-7.4 8.2z"/>
    </g>
    <ellipse fill="#F2BC51" transform="rotate(-33.8 157.7 584.1)" cx="157.7" cy="584.2" rx="13.4" ry="10.4"/>
    <path fill="#BC2E2E" d="M166.2 586.7c3.5-2.4 4.4-7.3 2.6-9.9s-6.7-3.7-10.2-1.3-2.9 6.2-1.1 8.9 5.2 4.6 8.7 2.3z"/>
    <path fill="none" d="M171.5 601.9c5-3.2 17.6-18 22.1-21.8"/>
    <g stroke="none" fill="#000">
      <path d="M127.6 545.5c-2.3.1-4.6.2-6.9.5a39.8 39.8 0 0 0-5.1.9c-.5.2-1.1.3-1.5.7.4-.4.9-.7 1.5-1l1.6-.6 3.4-1 6.9-1.6.1 2.1zm-13.8-5.4c1-.7 2.2-1.1 3.4-1.4a22 22 0 0 1 7.5-.6c1.3.1 2.5.2 3.9.7l-.9 1.9c-.9-.5-2.1-.8-3.2-1.1l-3.5-.5c-1.2-.1-2.4-.1-3.6.1-1.2.1-2.4.4-3.6.9zm7.7-7.6a25.1 25.1 0 0 1 8.1.3c.9.2 1.8.4 2.8 1l-1.2 1.7c-.5-.4-1.3-.9-2-1.2l-2.4-.9c-1.8-.5-3.6-.9-5.3-.9zm4.6-5.3a44.4 44.4 0 0 1 16.3 1.9c1.8.5 3.6 1.1 5.3 2l-1.1 1.8c-1.4-.9-3.1-1.7-4.7-2.3-1.7-.7-3.4-1.2-5.1-1.7-3.5-1-7.1-1.6-10.7-1.7zm17.3-3.8c3.9 1.2 7.8 2.6 11.3 4.8 1.8 1.1 3.4 2.5 4.8 4s2.7 3.3 3.8 5.1l-1.9 1a28 28 0 0 0-7.3-9.2 49.8 49.8 0 0 0-10.7-5.7zm-27.1 30.1a11 11 0 0 0 3.6-.4c1.2-.3 2.3-.7 3.4-1.2l3.1-1.7c1-.6 2-1.4 2.6-2.1l1.5 1.5a21 21 0 0 1-14.2 3.9zm9.9 4.3c1.6-.7 3.1-1.6 4.5-2.7l1.9-1.7a8 8 0 0 0 1.5-1.8l1.8 1.2a12.4 12.4 0 0 1-4.6 3.2c-1.7.8-3.4 1.5-5.1 1.8zm6.1 2.9a46 46 0 0 0 17.2-12.7l1.7 1.3a30 30 0 0 1-4.2 3.8 56.7 56.7 0 0 1-14.7 7.6zM150.6 558.3c2.9-2.8 5.7-5.7 7.6-9.1 1-1.7 1.7-3.5 2.2-5.4a37 37 0 0 0 1-5.8l2.1.3c-.4 2-.8 4-1.6 6-.7 1.9-1.7 3.8-2.8 5.5-2.3 3.3-5.4 6-8.5 8.5zm5.5-36c3.5 1.2 7 2.5 10.1 4.6 1.6 1.1 3 2.3 4.3 3.7 1.3 1.4 2.3 3 3.3 4.7l-1.9 1a26 26 0 0 0-2.6-4.6c-1-1.4-2.3-2.7-3.6-3.9-3-2.3-6.3-4-9.6-5.5zM162.4 555a37 37 0 0 0 6.7-8.6 23.4 23.4 0 0 0 2.7-10.3l2.1.3A26.1 26.1 0 0 1 170 547c-2.1 3-4.8 5.6-7.6 8zm9.1-33.4a18.8 18.8 0 0 1 11.8 10.7l-2 .8a19 19 0 0 0-3.6-6.7c-1.7-2-3.9-3.5-6.2-4.8zM153.6 538.4l10.2-1.9 10.2-1.8 10.3-1.7c3.4-.6 6.9-1.1 10.3-1.3v.2c-3.3 1.1-6.7 1.8-10.1 2.5l-10.2 2.1-10.2 2-10.2 1.9-.3-2z"/>
    </g>
    <ellipse fill="#F2BC51" transform="rotate(-10.5 140.6 541.8)" cx="140.6" cy="541.9" rx="13.4" ry="10.4"/>
    <path fill="#BC2E2E" d="M147.5 547.6c4.2-.8 6.9-4.9 6.3-8.1s-4.7-6-8.9-5.2c-4.2.8-5.1 4.6-4.5 7.7.6 3.2 2.9 6.4 7.1 5.6z"/>
    <path d="M150.9 561.1a141.9 141.9 0 0 1 20.9-9.7 344 344 0 0 1 10.8-4c3.6-1.3 7.3-2.4 11-3.1l.1.2c-3.5 1.5-7 3-10.6 4.3l-10.6 4.3-10.4 4.6c-3.4 1.6-6.9 3.3-10.1 5.1l-1.1-1.7z" stroke="none" fill="#000"/>
    <g stroke="none" fill="#000">
      <path d="m269.9 409.3 5-5 2.6-2.3 1.4-1c.5-.3 1-.6 1.6-.7-.6.2-1 .5-1.4.9l-1.2 1.2-2.2 2.6a115 115 0 0 0-4.1 5.6l-1.7-1.3zm4.4-13.3c-1 .7-1.9 1.5-2.6 2.5-.8.9-1.4 2-2 3a19.6 19.6 0 0 0-2.3 6.6l-2.1-.3a13 13 0 0 1 1.5-3.6l2-3.2 2.5-2.8a11 11 0 0 1 3-2.2zm-10.5 2.4a22.2 22.2 0 0 0-2.5 7.3c-.1.8-.2 1.7-.1 2.4l-2.1.1a12.4 12.4 0 0 1 1.7-5.4c.8-1.5 1.8-3 3-4.4zm-7 1.1a44.4 44.4 0 0 0-6.1 20.4l-2.1-.1a45.6 45.6 0 0 1 8.2-20.3zM245 416.7c-.6 3.7-.9 7.5-.4 11.1.3 1.8.7 3.6 1.4 5.2s1.8 3.1 3 4.2l-1.5 1.5a14 14 0 0 1-3-5.1c-.6-1.9-.9-3.8-1-5.7a42 42 0 0 1 1.5-11.2zm39.3-11.4a16.6 16.6 0 0 1-4.5 5.9 23.7 23.7 0 0 1-6.5 4.1l-.5-2.1c1-.2 2.1-.6 3.2-1.1l3.1-1.7c1-.7 2-1.4 2.8-2.2 1-.9 1.8-1.9 2.4-2.9zm-1.5 10.6a19.1 19.1 0 0 1-4.2 3.3l-2.4 1.3c-.9.4-1.7.7-2.8.9l-.1-2.1c.7.1 1.5-.1 2.3-.3l2.5-.7c1.6-.6 3.2-1.4 4.7-2.4zm-.9 6.7a49.4 49.4 0 0 1-19.5 9.9l-.2-2.1c1.7-.1 3.5-.5 5.2-1l5.1-1.7c3.2-1.4 6.4-3 9.4-5.1zM270.2 436.8a31 31 0 0 1-10.8 3.8c-3.9.5-7.9-.2-11.5-1.7l.9-1.9c3.2 1.7 6.8 2.7 10.5 2.6 3.7-.1 7.4-1.3 10.9-2.8zm-29.5-6.3-.1 4.4c0 1.5.1 2.9.5 4.3a8 8 0 0 0 1.9 3.5c.9 1 2.1 1.8 3.3 2.7l-1.4 1.6c-1.1-1-2.2-2-3.1-3.3a8.8 8.8 0 0 1-1.7-4.4c-.2-1.5-.1-3 0-4.5l.6-4.3zM267.2 442.9c-3.1 2.1-6.5 4-10.3 4.9-3.8.9-7.9.6-11.6-.6l.7-2c3.4 1.4 7.1 2 10.7 1.5 3.7-.4 7.2-1.9 10.5-3.8zM253.5 430l-4.3 8.8-4.4 8.7-4.4 8.7c-1.5 2.9-3 5.7-4.8 8.5l-.2-.1c1-3.1 2.3-6.1 3.7-9l4.1-8.8 4.2-8.8 4.3-8.8 1.8.8z"/>
    </g>
    <ellipse fill="#F2BC51" transform="rotate(-47.4 261.6 419.7)" cx="261.6" cy="419.7" rx="13.4" ry="10.4"/>
    <path fill="#BC2E2E" d="M262.8 428.5c-2.9 3.1-7.9 3.2-10.2 1-2.4-2.2-2.6-7.1.3-10.3s6.6-1.9 8.9.3c2.4 2.3 3.9 5.9 1 9z"/>
    <g stroke="none" fill="#000">
      <path d="m321.6 491.8 6.8-1.7c1.1-.2 2.3-.5 3.5-.6l1.8-.2c.6 0 1.2 0 1.7.2-.6-.1-1.1 0-1.7.1l-1.7.4-3.3 1.1c-2.2.8-4.3 1.7-6.4 2.7l-.7-2zm10.6-9.1c-1.2.1-2.4.4-3.5.8s-2.2 1-3.2 1.6l-2.9 2c-.9.7-1.8 1.6-2.4 2.4l-1.7-1.3c1-1 2-1.7 3.1-2.4a36 36 0 0 1 3.4-1.7 15 15 0 0 1 3.6-1.1c1.1-.3 2.3-.4 3.6-.3zm-10.3-3.3c-1.5.9-2.9 2-4.2 3.1l-1.7 1.9-1.3 2-1.9-1c.6-.9 1.3-1.5 2-2.1l2.2-1.6c1.6-.9 3.2-1.8 4.9-2.3zm-6.5-2.6a46 46 0 0 0-15.7 14.4l-1.8-1.2a47 47 0 0 1 17.5-13.2zm-17.2 3.4a47.6 47.6 0 0 0-6.9 9.9 23.1 23.1 0 0 0-2.4 11.5l-2.1-.1a26 26 0 0 1 3.6-12c2.1-3.4 4.9-6.4 7.8-9.3zm37.8 15.6c-1 .8-2.1 1.3-3.2 1.8-1.2.4-2.4.8-3.6 1-1.2.2-2.5.4-3.7.4-1.3 0-2.5 0-3.9-.3l.7-2a21.7 21.7 0 0 0 6.9.8c1.2-.1 2.4-.2 3.6-.5 1-.2 2.2-.6 3.2-1.2zm-6.8 8.3c-1.7.5-3.5.7-5.3.7l-2.7-.1c-.9-.1-1.8-.3-2.8-.7l1-1.9c.5.4 1.4.7 2.1 1 .8.3 1.6.5 2.5.6 1.7.4 3.5.6 5.2.4zm-4.1 5.3a49.8 49.8 0 0 1-21.9-1.6l.9-1.9c1.5.8 3.2 1.4 4.9 1.8 1.7.5 3.5.8 5.3 1.1 3.5.6 7.1.9 10.8.6zM307.7 515.6c-4.1-.8-8.1-2.2-11.7-4.5a34.6 34.6 0 0 1-9-8.9l1.8-1.2c2.2 3.5 4.6 6.7 7.9 9.2a29 29 0 0 0 11 5.4zm-24-28.5a33.2 33.2 0 0 0-5 7.4 17.5 17.5 0 0 0-1.6 8.4l-2.1-.1a23.5 23.5 0 0 1 2.8-8.9c1.6-2.6 3.7-4.7 5.9-6.8zM290.7 514.7c-3.2-.6-6.2-1.9-8.8-4-2.6-2-4.7-4.6-6.7-7.2l1.8-1.2c1.7 2.7 3.4 5.4 5.6 7.6a20 20 0 0 0 8.1 4.8zm-21-26.1a33.2 33.2 0 0 0-5 7.4 17.5 17.5 0 0 0-1.6 8.4l-2.1-.1a23.5 23.5 0 0 1 2.8-8.9 32 32 0 0 1 5.9-6.8zM276.6 516.2c-3.2-.6-6.2-1.9-8.8-4-2.6-2-4.7-4.6-6.7-7.2l1.8-1.2c1.7 2.7 3.4 5.4 5.6 7.6a20 20 0 0 0 8.1 4.8zM296.4 501.3l-11.2 1.3-11.2 1.2-11.2 1.2c-3.7.4-7.5.7-11.3.7v-.2c3.7-.9 7.4-1.5 11.1-2l11.2-1.5 11.2-1.5 11.2-1.4.2 2.2z"/>
    </g>
    <ellipse fill="#F2BC51" transform="rotate(-16.5 309.1 496.5)" cx="309.1" cy="496.5" rx="13.4" ry="10.4"/>
    <path fill="#BC2E2E" d="M305.6 504.7c-4.1 1.2-8.4-1.3-9.3-4.4-.9-3.1 1.5-7.5 5.6-8.6 4.1-1.2 6.6 1.8 7.5 4.9.9 3.1.3 6.9-3.8 8.1z"/>
    <path d="M275 441.1c-3.9 3-7.5 6.5-11 10.1a265.8 265.8 0 0 0-19.6 22.8c-3.1 4-6.1 8-9.5 11.8l-.2-.1c2.7-4.3 5.5-8.5 8.5-12.5a214.5 214.5 0 0 1 19.2-23.4 92 92 0 0 1 11.3-10.3l1.3 1.6zm-29.1-32.7c-1.4 2.8-2.4 5.9-3.4 9l-2.8 9.3c-1.8 6.3-3.3 12.6-4.8 18.9a404.2 404.2 0 0 0-7.3 38.4h-.2c.1-6.6 1-13.1 2-19.5a410.7 410.7 0 0 1 8.3-38.4c.8-3.2 1.8-6.3 2.8-9.4 1-3.1 2-6.2 3.5-9.3l1.9 1zM302.4 521c-4.9-.7-9.9-1.1-14.9-1.5-5-.4-10-.6-15.1-.9l-15.1-.7c-5-.2-10.1-.5-15.1-.9v-.2c5-.5 10.1-.5 15.1-.4l15.1.3a381.3 381.3 0 0 1 30.2 2.2l-.2 2.1z" stroke="none" fill="#000"/>
    <g stroke="none" fill="#000">
      <path d="m301.4 447.5 6.1-3.5c1-.5 2.1-1.1 3.2-1.5l1.6-.6a5 5 0 0 1 1.7-.3c-.6 0-1.1.3-1.6.5l-1.5.8-2.9 2a78.3 78.3 0 0 0-5.4 4.3l-1.2-1.7zm7.8-11.6a15.5 15.5 0 0 0-5.9 4.1l-2.3 2.7c-.7 1-1.3 2-1.7 2.9l-2-.9c.7-1.3 1.5-2.2 2.4-3.1a33.3 33.3 0 0 1 5.9-4.5c1.2-.5 2.4-1 3.6-1.2zm-10.8-.4a20.6 20.6 0 0 0-4.4 6.4c-.3.8-.6 1.6-.7 2.3l-2.1-.5c.4-1 .9-1.8 1.4-2.6a19 19 0 0 1 5.8-5.6zm-7-.9a47 47 0 0 0-11.3 18.1l-2-.6a33.3 33.3 0 0 1 5.7-9.5c2.3-3 4.8-5.7 7.6-8zm-15.3 9a48.4 48.4 0 0 0-4 11.4c-.4 2-.5 4-.3 5.9.1 2 .5 3.9 1.1 5.8l-2.1.5a27 27 0 0 1 .3-12.5c1-4 3-7.6 5-11.1zm40.3 3.9c-.7 1-1.6 1.8-2.6 2.6a20.7 20.7 0 0 1-6.7 3.3 15 15 0 0 1-3.9.8l.1-2.1c1 .1 2.2 0 3.4-.2l3.5-.8c1.1-.4 2.3-.8 3.3-1.4 1-.6 2-1.3 2.9-2.2zm-4.4 9.9a21.3 21.3 0 0 1-7.6 2.7c-.9.1-1.8.2-2.9.1l.5-2.1 2.3.4 2.6-.1c1.7-.2 3.5-.5 5.1-1zm-2.6 6.2a47 47 0 0 1-21.5 4.2l.3-2.1a30.5 30.5 0 0 0 10.6.2c3.6-.4 7.2-1.1 10.6-2.3zM294.3 474.2c-4 .3-8.1.3-12.1-.6a31 31 0 0 1-5.8-2.1c-1.8-.9-3.5-2.1-5.2-3.4l1.4-1.6c1.4 1.3 3 2.6 4.6 3.6 1.6 1 3.4 1.9 5.3 2.5 3.8 1.2 7.8 1.5 11.8 1.6zm-10.4 4.6c-3.4.3-6.9.4-10.4-.4a23 23 0 0 1-9.5-4.7l1.4-1.6a23.5 23.5 0 0 0 8.4 5.3c3.2 1 6.6 1.3 10.1 1.4zM279.9 463.2l-10.6 7.3-10.7 7.2-10.8 7.1c-3.6 2.4-7.2 4.7-11 6.7l-.1-.2c3.3-2.8 6.8-5.3 10.3-7.8l10.5-7.4 10.6-7.4 10.6-7.3 1.2 1.8zM264.2 452.9c-0.86 3.4-1.5 6.75-1.4 10.1 .25 3.34 1.2 6.59 2.81 9.53l-1.93 .91c-1.44-3.27-2.1-6.83-1.92 -10.4 .18-3.57 1.22-6.91 2.44-10.1z"/>
    </g>
    <ellipse fill="#F2BC51" transform="rotate(-31.9 290.6 455.3)" cx="290.7" cy="455.4" rx="13.4" ry="10.4"/>
    <path fill="#BC2E2E" d="M289.4 464.2c-3.6 2.2-8.4 1-10.1-1.7s-.6-7.6 3.1-9.8c3.6-2.2 6.9 0 8.5 2.7 1.7 2.7 2.2 6.5-1.5 8.8z"/>
    <path d="M295.6 478.7c-5 1.1-9.9 2.7-14.8 4.3-4.9 1.6-9.7 3.5-14.5 5.4l-14.3 5.9c-4.7 2.1-9.5 4.1-14.3 6l-.1-.2c4.4-2.7 9.1-5 13.8-7.2a360.2 360.2 0 0 1 28.7-11.9 152 152 0 0 1 15-4.4l.5 2.1z" stroke="none" fill="#000"/>
    <g stroke="none" fill="#000">
      <path d="m305 590.7 5.7 4.1 2.7 2.3 1.2 1.2c.4.4.8.9 1 1.5l-1.1-1.3-1.4-1-3-1.8-6.1-3.2 1-1.8zm13.8 2.3a16.6 16.6 0 0 0-6.2-3.7l-3.4-1c-1.1-.2-2.4-.4-3.4-.3v-2.1a20.7 20.7 0 0 1 10.3 4.4c1.1.8 2 1.7 2.7 2.7zm-4-10c-1.6-.6-3.4-1-5.1-1.2-.9-.1-1.7-.2-2.6-.1a8 8 0 0 0-2.3.3l-.4-2.1a9 9 0 0 1 2.9.2l2.6.7c1.7.5 3.4 1.3 4.9 2.2zm-2.2-6.7a54 54 0 0 0-15.9-3.2c-1.8-.1-3.6 0-5.3.3l-.3-2.1a34.6 34.6 0 0 1 11 1.2c3.8 1 7.3 2.2 10.5 3.8zM298.2 566a54 54 0 0 0-12.1 1 26 26 0 0 0-5.5 2.1c-1.7.9-3.3 2.1-4.8 3.4l-1.3-1.7a33 33 0 0 1 5.5-3.2c1.9-.8 4-1.4 6-1.8 4-.4 8.1-.2 12.2.2zM311.2 604.3a10 10 0 0 1-3.4-1.3 21.1 21.1 0 0 1-5.8-4.7c-.8-1-1.6-1.9-2.3-3.2l2-.8c.3 1 .9 2 1.6 3l2.2 2.8 2.6 2.5c.9.7 1.9 1.3 3.1 1.7zm-10.8.2a19.2 19.2 0 0 1-6.8-8.4l2.1-.4.6 2.3 1.1 2.3c.8 1.4 1.8 2.9 3 4.2zm-6.7.1a51.6 51.6 0 0 1-12.8-17.8l2.1-.6a32.8 32.8 0 0 0 4.2 9.8c1.9 3.1 4 6 6.5 8.6z"/>
    </g>
    <ellipse fill="#F2BC51" transform="rotate(-56.2 293.5 584.2)" cx="293.4" cy="584.2" rx="10.4" ry="13.4"/>
    <path fill="#BC2E2E" d="M284.9 586.7c-3.5-2.4-4.4-7.3-2.6-9.9s6.7-3.7 10.2-1.3c3.5 2.4 2.9 6.2 1.1 8.9-1.8 2.6-5.2 4.6-8.7 2.3z"/>
    <path fill="none" d="M279.6 601.9c-5-3.2-17.6-18-22.1-21.8"/>
    <g stroke="none" fill="#000">
      <path d="m323.7 543.4 6.9 1.6 3.4 1 1.6.6c.5.2 1.1.5 1.5 1a3 3 0 0 0-1.5-.7l-1.7-.4-3.4-.5-6.9-.5.1-2.1zm13.6-3.3c-1.1-.5-2.3-.8-3.5-.9-1.2-.1-2.4-.2-3.6-.1-1.2.1-2.4.2-3.5.5a11 11 0 0 0-3.2 1.1l-.9-1.9a24.1 24.1 0 0 1 11.4-.1c1 .3 2.2.7 3.3 1.4zm-7.7-7.6a21 21 0 0 0-7.5 1.8c-.8.3-1.5.8-2 1.2l-1.2-1.7c1-.5 1.9-.8 2.8-1l2.7-.4c1.7-.2 3.5-.2 5.2.1zm-4.6-5.3c-3.6.1-7.2.8-10.7 1.7-1.7.5-3.5 1-5.1 1.7-1.7.7-3.3 1.4-4.7 2.3l-1.1-1.8a52.3 52.3 0 0 1 10.7-3.2c3.6-.7 7.3-1 10.9-.7zm-17.3-3.8a49.8 49.8 0 0 0-10.7 5.7c-1.6 1.2-3 2.6-4.2 4.2a37.6 37.6 0 0 0-3.1 5l-1.9-1a26.2 26.2 0 0 1 8.6-9.1c3.5-2.2 7.4-3.6 11.3-4.8zm27.1 30.1c-1.2.2-2.5.3-3.7.1a24 24 0 0 1-7.2-2c-1.2-.5-2.3-1.1-3.4-2l1.5-1.5c.7.8 1.7 1.5 2.6 2.1l3.1 1.7a15 15 0 0 0 7.1 1.6zm-9.9 4.3c-1.7-.3-3.4-1-5-1.8l-2.4-1.3a9.7 9.7 0 0 1-2.2-1.9l1.8-1.2a29 29 0 0 0 3.4 3.5 18 18 0 0 0 4.4 2.7zm-6.1 2.9a52.8 52.8 0 0 1-14.6-7.6 24.9 24.9 0 0 1-4.2-3.8l1.7-1.3a47.8 47.8 0 0 0 17.1 12.7zM300.5 558.3a42.8 42.8 0 0 1-8.5-8.5 22 22 0 0 1-2.8-5.5c-.7-1.9-1.2-4-1.6-6l2.1-.3c.2 2 .5 3.9 1 5.8s1.2 3.7 2.2 5.4c1.9 3.4 4.7 6.3 7.6 9.1zm-5.5-36a40.6 40.6 0 0 0-9.5 5.5 19 19 0 0 0-3.6 3.9 26 26 0 0 0-2.6 4.6l-1.9-1a21.6 21.6 0 0 1 7.6-8.4 43 43 0 0 1 10-4.6zM288.7 555a36.6 36.6 0 0 1-7.6-8.1c-1-1.6-1.9-3.3-2.5-5.1-.6-1.8-1-3.7-1.4-5.5l2.1-.3c.1 1.8.4 3.6.8 5.3a19 19 0 0 0 1.9 5 43 43 0 0 0 6.7 8.7zm-9.1-33.4a24.2 24.2 0 0 0-6.2 4.7 19 19 0 0 0-3.6 6.7l-2-.8a20 20 0 0 1 4.8-6.7c2.1-1.7 4.5-2.9 7-3.9zM297.2 540.5a365 365 0 0 1-10.2-1.9l-10.2-2-10.2-2.1c-3.4-.7-6.8-1.5-10.1-2.5v-.2c3.5.2 6.9.7 10.3 1.3l10.3 1.7 10.2 1.8 10.2 1.9-.3 2z"/>
    </g>
    <ellipse fill="#F2BC51" transform="rotate(-79.5 310.5 542)" cx="310.5" cy="541.9" rx="10.4" ry="13.4"/>
    <path fill="#BC2E2E" d="M303.6 547.6c-4.2-.8-6.9-4.9-6.3-8.1.6-3.2 4.7-6 8.9-5.2 4.2.8 5.1 4.6 4.5 7.7-.6 3.2-2.9 6.4-7.1 5.6z"/>
    <path d="M299.1 563c-3.3-1.9-6.7-3.5-10.1-5.1l-10.4-4.6L268 549l-10.6-4.3.1-.2c3.8.7 7.4 1.9 11 3.1l10.8 4a198.1 198.1 0 0 1 20.9 9.7l-1.1 1.7z" stroke="none" fill="#000"/>
    <path class="tertiary" stroke-width="1.78" d="M177.3 567.6a4.6 4.6 0 0 1-1.9-4.4c.2-1.7 1-3.3 2-4.7a6.8 6.8 0 0 1-2.8-5c-.2-1.9.7-3.8.6-5.8-.2-3 1.9-6 4.9-7.1a10 10 0 0 1 .1-8.3c-.5-3.4.9-7 3.6-9.4-.2-2.5.6-5.1 2.3-7a4 4 0 0 1 2.5-1.4c.5-1.4 1.1-2.8 2.2-3.9 1.6-1.5 3.7-1.4 6-1.1 1.4-1.3 1.5-3.6 3.3-4.4.7-.3 1.5-.3 2.3-.3 1.7.1 3.2.5 4.8 1 1-1.9 2.9-3.5 5.1-4.1 2.2-.7 4.7-.4 6.7.6.3-.3 0-1 .4-1.2 1.3-.6 2.5-1.3 3.9-1.5 1.4-.2 2.9.1 3.9 1.1 3.4-1 7.5-.2 10.2 2.1l-6.4-.5c2-1 4.5-1.3 6.7-.6 2.2.7 4.1 2.2 5.1 4.1 1.6-.6 3.1-.9 4.8-1 .8-.1 1.6-.1 2.3.3 1.8.8 1.9 3.1 3.3 4.4 2.3-.3 4.3-.4 6 1.1 1.1 1.1 1.7 2.5 2.2 3.9 1 .1 1.8.7 2.5 1.4a9 9 0 0 1 2.3 7c2.7 2.4 4.1 6 3.6 9.4a10 10 0 0 1 .1 8.3c3 1.1 5.1 4.1 4.9 7.1-.1 1.9.8 3.8.6 5.8a6.8 6.8 0 0 1-2.8 5c1 1.4 1.8 3.1 2 4.7.2 1.7-.4 3.5-1.9 4.4"/>
    <path d="M214 513.6c-.5.6-1.1 1-1.7 1.4l-1.8 1-1.6.9c-.5.3-1 .7-1.4 1.4-.4-.7-.1-1.7.3-2.3.5-.7 1.1-1.2 1.8-1.5l2.1-.7a6 6 0 0 1 2.3-.2ZM202.3 520.3c-.5.5-.5 1-.7 1.5l-.5 1.7-.6 1.6c-.3.5-.5 1.1-1 1.7a5.8 5.8 0 0 1 .8-5.6l.8-.7c.5-.3.9-.4 1.2-.2ZM196 526.7c-.5.5-.7 1-.9 1.5l-.5 1.5a15.4 15.4 0 0 1-1.3 3.5c-.4-.6-.5-1.3-.6-1.9 0-.7 0-1.3.2-2s.5-1.3 1.1-1.9c.6-.6 1.3-.9 2-.7ZM187.7 533.9l-.8 2.5-.9 2.3c-.3.7-.4 1.2-.2 1.9l.9 2.3c-.9-.4-1.6-.9-2.2-1.8-.3-.4-.5-1-.5-1.6 0-.6.1-1.1.3-1.5.4-.9.8-1.6 1.4-2.4.5-.6 1.2-1.2 2-1.7ZM196.4 517.4c-.1-.1-.2 0-.2 0l-.2.2-.4.5-.7.9-1.3 1.8-1.3 1.9c-.5.6-.9 1.3-1.6 1.9-.1-.9.1-1.7.3-2.5a7.7 7.7 0 0 1 2.9-4.1l1.2-.6.6-.2c.2-.1.7-.1.7.2ZM208.9 527.8c-.7.2-.9.6-1.3 1l-.9 1.4-1 1.4-1.2 1.5c-.5-1.4 0-2.8.7-3.9.4-.6.8-1 1.5-1.4a2 2 0 0 1 1.1-.3c.4-.1.8 0 1.1.3ZM195.1 543.3c-.2 1.7-1 3.1-1.4 4.4a8 8 0 0 0-.7 4.1 3 3 0 0 1-1.3-2.2c-.1-.9 0-1.8.3-2.6s.8-1.5 1.3-2.1l1.8-1.6ZM247.6 528.5c.3-.1.8-.1 1.1.1l.8.7c.4.6.7 1.1.9 1.7.2.6.3 1.3.3 1.9 0 .7-.1 1.3-.4 2a15 15 0 0 1-1-1.7l-.6-1.6-.5-1.7c0-.4-.1-.9-.6-1.4ZM253.9 535c.7-.2 1.5.1 2 .6.6.5.9 1.2 1.1 1.9.2.7.2 1.3.2 2-.1.7-.2 1.3-.6 1.9-.4-.6-.6-1.2-.8-1.8l-.5-1.7-.5-1.5c-.2-.4-.4-.9-.9-1.4ZM262.3 542.2a7 7 0 0 1 2 1.8 8 8 0 0 1 1.4 2.4l.3 1.5a3 3 0 0 1-.5 1.6c-.6.9-1.4 1.4-2.2 1.8.3-.9.8-1.6.9-2.3.2-.7 0-1.2-.2-1.9l-.9-2.3-.8-2.6ZM253.6 525.6c0-.3.5-.3.6-.2l.6.2 1.2.6a7.7 7.7 0 0 1 3.2 6.6l-1.6-1.9-1.3-1.9-1.3-1.8-.7-.9-.4-.5-.2-.2s-.1-.1-.1 0ZM241.1 536.1c.2-.3.7-.4 1.1-.4.4 0 .8.2 1.1.3a5 5 0 0 1 1.5 1.4c.8 1.1 1.2 2.5.7 3.9l-1.2-1.5-1-1.4-.9-1.4c-.4-.3-.6-.7-1.3-.9ZM243.6 546.5c1 .4 1.8 1 2.5 1.7a10.8 10.8 0 0 1 2.9 5.2c.2 1 .3 2 .1 3l-1.4-2.5-1.3-2.4-1.4-2.5-1.4-2.5ZM254.8 551.6c.7.5 1.3 1 1.8 1.6.5.6 1 1.3 1.3 2.1.3.8.5 1.7.3 2.6a3 3 0 0 1-1.3 2.2c.1-.8.1-1.5-.1-2.2a6 6 0 0 0-.6-1.9c-.4-1.4-1.2-2.7-1.4-4.4Z" stroke="none" fill="#000"/>
    <path d="M198.4 559.1c-1.6.2-3.1-.9-4.4-2l-5.2-4.4c-1.4-1.2-3.1-2.5-5-2.2-1.5.2-2.6 1.4-3.6 2.4-3.5 3.4-9 5.1-12.1 9-2.3 2.8-2.6 8.4-3.5 11.9a50.2 50.2 0 0 0-1.8 23.7c.5 4.1-.1 7.9 1 11.9 1.3 4.7 3.6 9.2 6.3 13.3 2.8 4.2 6 8 9.3 11.8 4.8 5.5 9.5 18.5 14.3 24"/>
    <path d="M169.3 579.5a36.3 36.3 0 0 0 5.9 1.8l3 .2 3.1-.2c-.8.8-1.9 1.3-3 1.6-1.1.3-2.3.3-3.4.2a9.6 9.6 0 0 1-3.2-1.2c-1-.6-1.9-1.4-2.4-2.4z" stroke="none" fill="#000"/>
    <path d="M243.2 561.6c5.5.3 11.1-1.6 15.4-5.1l4-3.8c1.4-1.2 3.1-2.5 5-2.2 1.5.2 2.6 1.4 3.6 2.4 3.5 3.4 9 5.1 12.1 9 2.3 2.8 2.6 8.4 3.5 11.9 2.6 10.1 3 13.4 1.8 23.7-.5 4.1.1 7.9-1 11.9a47.7 47.7 0 0 1-6.3 13.3c-2.8 4.2-6 8-9.3 11.8-4.8 5.5-9.5 18.5-14.3 24"/>
    <path d="M282.1 579.5c-.5 1-1.4 1.8-2.4 2.4-1 .6-2.1 1-3.2 1.2-1.1.2-2.3.1-3.4-.2a6.7 6.7 0 0 1-3-1.6l3.1.2 3-.2c1-.1 1.9-.4 2.9-.7 1-.3 2-.6 3-1.1z" stroke="none" fill="#000"/>
    <g class="secondary" stroke-width="1.78">
      <path d="M208.8 725.8s-3.4-.1-3.6 2.7c-.2 2.7 1.4 3.2 1.4 3.2s.9 0 1.8.5c2.2 1.2 2 3 1.2 4.5-.3.7-.8.8-.9 1.1-.2.6 3.9-.1 4.7-5 .9-5.5-4.6-7-4.6-7zm-32.6 18s3.1-1.5 4.4 1c1.3 2.4 0 3.5 0 3.5s-.9.4-1.5 1.2c-1.5 2-.6 3.6.7 4.6.6.5 1.1.4 1.2.7.4.5-3.6 1.5-6.3-2.7-2.9-4.7 1.5-8.3 1.5-8.3zM166 736s3.4-.3 3.7 2.4c.3 2.7-1.3 3.2-1.3 3.2s-.9.1-1.8.6c-2.1 1.3-1.8 3.1-1 4.5.4.6.9.8.9 1.1.2.6-3.9.1-5-4.7-.9-5.3 4.5-7.1 4.5-7.1zm1.1-11.5s3 1.6 1.9 4.1c-1.2 2.5-2.6 2-2.6 2s-.9-.4-1.8-.4c-2.5 0-3.4 1.7-3.4 3.3 0 .7.3 1.1.2 1.4-.1.6-3.3-1.9-1.7-6.6 1.8-5.1 7.4-3.8 7.4-3.8z"/>
      <path stroke-linejoin="round" d="M198.6 680c3 6.9-.4 10.4-1.9 16.7-.1.3 0 .9-.4 2.3-1 .9-1.7 4.5-1.3 5-.8.5-1.8 3.6-1.2 5-.7.8-2 3.6-1.8 4.7-.9.8-1.8 4.1-1.2 5-.2.6-.8.9-1.4 2.5-.5 1.3-5 2-5.4 2.1-3.2.8-5.4-1.2-8.1-.8-.9.1-1.9.7-2.1 1-1.7 1.5-4.1.9-4.5.2-.9-1.8-2.4-1.6-3.9-1.2-1.6.6-1.8 2-1.8 2s1.8-.3 2.3 3v1.3c-.1.3-.5 1.4-.4 1.7.2.8 1.3 1.5 2.8 1 1-.3 1.6-1.5 1.7-2.1 1.5.1 2.9.2 4.2-.6.4-.3.8-.6 1.3-.6s1 .4 1.5.6c.7.2 1.4.1 2.1-.1a12 12 0 0 1-4.9 2c-1.3.1-2.4.2-3.3.9-1.1.8-1.4 1.5-2.2 2.5-.2-.4-1-.7-1.4-.8-.5-.1-1 0-1.4.1-1.5.2-4 2.4-2.8 4.2.1.2.2.2.4.1 1.3-.6 3.9 1.2 4.2 4.1 0 .4.5 1.1.8 1.2.8.4 2.6.2 3.7-1.1s.5-2.3.4-2.8c.9-.7 1.3-2.1 2.2-2.9 1.2-1.2 3.1-1.1 4.8-1.4a8.9 8.9 0 0 0 4.9-2.5c-.5 1.6-1.2 2.8-2.9 3.3-1 .3-2.1.8-2.6 1.9-.2.4-.6 1.1-.8 1.8l-.4 1.6s-1.3-.6-2.9.3c-2 1.2-2.4 3.7-1.5 5l.8.5c1.6-2 5.8-.2 6.1 1.6.3.5 1.5 1 3-.4.7-.7 1.1-1.8.8-3.1-.3-1.3-.9-.7-1-2-.2-1.2 1.7-1.8 2.3-2.3 1-.7 1.7-1.5 2.1-2.6.6-1.4 1.1-3.8 1.1-3.8s.8-4.1 3.1-4.6h.2c2.8-.2 4.3 2.5 6.5 2.7 2.2-.3 1.8-1.5 4.2-1.5.9.2.2 2.4 2.7 2.7 2.1.1 2.5-1.1 2.5-1.1s-1.7-3.5 2.4-5.8c.4-.4.1-2.2-2.7-2.5-1.6-.3-2.4 1.3-2.4 1.3s-1.6-1.1-3.1-.2a5 5 0 0 1-2.5 1c-3.6-.1-2.9-1.1-4-1.9-.4-.7 2.7-10.3 2.7-10.3l2.8-7.7 3.7-9.2c.9-1.9 0-3.7 1.9-4.5.6-.2 1.2-1.1 1.7-1.6.3-.3.5-1.5.7-2 1.1-2.8-.1-2.8.9-10.9l-.4 1.4"/>
      <path d="M246.7 725.8s3.4-.1 3.6 2.7c.2 2.7-1.4 3.2-1.4 3.2s-.9 0-1.8.5c-2.2 1.2-2 3-1.2 4.5.3.7.8.8.9 1.1.2.6-3.9-.1-4.7-5-.9-5.5 4.6-7 4.6-7zm32.6 18s-3.1-1.5-4.4 1c-1.3 2.4 0 3.5 0 3.5s.9.4 1.5 1.2c1.5 2 .6 3.6-.7 4.6-.6.5-1.1.4-1.2.7-.4.5 3.6 1.5 6.3-2.7 3-4.7-1.5-8.3-1.5-8.3zm10.3-7.8s-3.4-.3-3.7 2.4c-.3 2.7 1.3 3.2 1.3 3.2s.9.1 1.8.6c2.1 1.3 1.8 3.1 1 4.5-.4.6-.9.8-.9 1.1-.2.6 3.9.1 5-4.7.9-5.3-4.5-7.1-4.5-7.1zm-1.1-11.5s-3 1.6-1.9 4.1c1.2 2.5 2.6 2 2.6 2s.9-.4 1.8-.4c2.5 0 3.4 1.7 3.4 3.3 0 .7-.3 1.1-.2 1.4.1.6 3.3-1.9 1.7-6.6-1.8-5.1-7.4-3.8-7.4-3.8z"/>
      <path stroke-linejoin="round" d="M257 680c-3 6.9.4 10.4 1.9 16.7.1.3 0 .9.4 2.3 1 .9 1.7 4.5 1.3 5 .8.5 1.8 3.6 1.2 5 .7.8 2 3.6 1.8 4.7.9.8 1.8 4.1 1.2 5 .2.6.8.9 1.4 2.5.5 1.3 5 2 5.4 2.1 3.2.8 5.4-1.2 8.1-.8.9.1 1.9.7 2.1 1 1.7 1.5 4.1.9 4.5.2.9-1.8 2.4-1.6 3.9-1.2 1.6.6 1.8 2 1.8 2s-1.8-.3-2.3 3v1.3c.1.3.5 1.4.4 1.7-.2.8-1.3 1.5-2.8 1-1-.3-1.6-1.5-1.7-2.1-1.5.1-2.9.2-4.2-.6-.4-.3-.8-.6-1.3-.6s-1 .4-1.5.6c-.7.2-1.4.1-2.1-.1a12 12 0 0 0 4.9 2c1.3.1 2.4.2 3.3.9 1.1.8 1.4 1.5 2.2 2.5.2-.4 1-.7 1.4-.8.5-.1 1 0 1.4.1 1.5.2 4 2.4 2.8 4.2-.1.2-.2.2-.4.1-1.3-.6-3.9 1.2-4.2 4.1 0 .4-.5 1.1-.8 1.2-.8.4-2.6.2-3.7-1.1s-.5-2.3-.4-2.8c-.9-.7-1.3-2.1-2.2-2.9-1.2-1.2-3.1-1.1-4.8-1.4a8.9 8.9 0 0 1-4.9-2.5c.5 1.6 1.2 2.8 2.9 3.3 1 .3 2.1.8 2.6 1.9.2.4.6 1.1.8 1.8l.4 1.6s1.3-.6 2.9.3c2 1.2 2.4 3.7 1.5 5l-.8.5c-1.6-2-5.8-.2-6.1 1.6-.3.5-1.5 1-3-.4a3.2 3.2 0 0 1-.8-3.1c.3-1.3.9-.7 1-2 .2-1.2-1.7-1.8-2.3-2.3-1-.7-1.7-1.5-2.1-2.6-.6-1.4-1.1-3.8-1.1-3.8s-.8-4.1-3.1-4.6h-.2c-2.8-.2-4.3 2.5-6.5 2.7-2.2-.3-1.8-1.5-4.2-1.5-.9.2-.2 2.4-2.7 2.7-2.1.1-2.5-1.1-2.5-1.1s1.7-3.5-2.4-5.8c-.4-.4-.1-2.2 2.7-2.5 1.6-.3 2.4 1.3 2.4 1.3s1.6-1.1 3.1-.2a5 5 0 0 0 2.5 1c3.6-.1 2.9-1.1 4-1.9.4-.7-2.7-10.3-2.7-10.3l-2.8-7.7-3.7-9.2c-.9-1.9 0-3.7-1.9-4.5-.6-.2-1.2-1.1-1.7-1.6-.3-.3-.5-1.5-.7-2-1.1-2.8.1-2.8-.9-10.9l.4 1.4"/>
    </g>
    <path stroke-width="1.78" stroke-linejoin="round" d="M189.4 643.1c0 1.6.6 8.6 1.1 10.1.9 2.6 2.6 13.1 3.5 15.7 1 3 1 5.6 2.7 8.3.9 1.4.5 2.5 1.9 2.8l1.3.4c.9.3 1.8 1 2.7 1.1.6.1 2.9-3.8 3.4-3.5.6.4.5 1.2.6 1.8.2 1 2.7 3.1 3.8 2.1.5-.5.9-2 1.1-2.6.1-.6 1.8 4.4 7.3-8.2 2.3-5.3 6.3-10.2 8.9-17.7h.2c2.5 7.5 6.5 12.4 8.9 17.7 5.5 12.6 7.2 7.5 7.3 8.2.2.7.6 2.2 1.1 2.6 1 1 3.6-1.1 3.8-2.1.1-.6 0-1.4.6-1.8.5-.3 2.8 3.6 3.4 3.5.9-.2 1.9-.8 2.7-1.1a5 5 0 0 1 1.3-.4c1.4-.3 1-1.4 1.9-2.8 1.7-2.8 1.7-5.3 2.7-8.3.8-2.6 2.6-13.1 3.5-15.7.5-1.5 1.2-8.5 1.1-10.1-.7-5.7-.1-12.5 1.8-18.2 3.7-11.2 5.1-15.9 2.9-27.5-.7-3.5-1.7-11.3-3.1-14.6-6-14.6-12.9-17.1-22.1-23.5-3-2.5-6.5-8.1-5.3-14.3 1.1-5.7 3.9-10.9 6.4-16.1 2.5-5.1 6.1-9.7 7.8-15.2 2.2-6.9 6-24 4.5-35-2.3-11.6-2.2-17-6.2-24.2-5.4-9.9-10.3-17.6-19.4-19.2-5.7-4.3-12.1-4.1-18.3-2.9a53.2 53.2 0 0 0-19.1 9.2 25.2 25.2 0 0 0-9.5 21.1c3.7.2 7.5 2.6 9.5 9.7l4.3-1.7c1.6-.6 3.3-1.2 5-1.3 1.7-.1 3.6.4 4.7 1.7 4.2-1 8.6-4 11.3-7.3 4.9-1.6 8.4 1.2 11.5 4.9 3.6 4.3 2.6 20-2 30-2.8 3.7-4.8 7.9-7.5 11.7l-7 9.8a192.7 192.7 0 0 0-17 27.4c-1.1 2.2-2 4.6-2.6 7-12.1 6.4-15.4 19.4-17.9 31.7-.7 3.5-1.4 8.5-1.6 12-.6 11.8 4.8 23 10 33.6 2.8 5.4 2.1 8.3 2.1 11.2z"/>
    <path class="secondary" stroke-linejoin="round" d="m210.6 470.4 3.5-12.1-14.8-3.1-12.4 7.8c-3.7 3.1-4.3 9.4-4.3 9.4-3.5 7.6-9.1 23.6-8.8 30.4a10 10 0 0 0 1.2 3.7 31 31 0 0 1 3.6-9.3c3.5 0 5.5-2.3 8.1-5.2 1.6-1.8 3.9-3.6 5.4-5.5 6-7.9 13.1-8.8 18.2-15.3"/>
    <path fill="none" d="M178.6 497.2c5.3-9.7 6.3-10.5 11.3-16.5 2.4-2.9 4.3-5.1 6.3-8.4"/>
    <path class="tertiary" stroke-width="1.78" d="M225.7 445.3c-.6 0-1.2.5-1.6.9-2.8 2.6-7 2.8-10.4 4.4-2.4 1.1-4.4 3-7 3.7-.3.1-.7.2-1.1 0l-.6-.6c-1.2-2.1-.2-4.8-.3-7.2-.2-3.5-3.3-6-6.7-6.3l-2 1.3c-4.1 2.6-8.1 8-9.6 12.4-1.2 3.5-.3 6 .1 8.8 4.9 1.2 7.5 5.4 9.5 9.7l4.3-1.7c1.6-.6 3.3-1.2 5-1.3 1.7-.1 3.6.4 4.7 1.7 4.2-1 8.6-4 11.3-7.3 1.8-.6 3.6-.7 5.3-.5 1.9-1.6 3.5-3.3 3.7-5.9.1-1.3 0-2.7-.2-4l-1.8-5-1.6-2.3c-.1-.3-.5-.7-1-.8z"/>
    <path fill="#F6F6F6" d="M195.3 452.7c2.5-2 5.5-.3 6.5 2.1.9 2.4-.7 5.2-2.6 5.9-3.1 1.2-5.5-.1-6.5-2.5-.7-1.8.1-3.5 2.6-5.5z"/>
    <g class="secondary" stroke-width="1.42">
      <path d="M244.7 396.7c-.6-.7-3.7-.5-3.7-.5l-2-3-3.5 1.1s-2.3-2.6-2.9-2.2c-1.5.9.4 7.8 1.8 10.7l-7.9 31.2c-.2.6.3.7.9.9.7.2 1.3.4 1.5-.3l7.9-31c2.9-1.3 9.3-5.2 7.9-6.9z"/>
      <path d="m253.6 403.7-1.2-3.4-3.7.3s-1.6-3.1-2.4-2.8c-1.8.7-1.6 8-1.2 11.1l-14.7 25.3c-.2.4-.1.9.3 1.2l.6.4c.4.3.9.1 1.2-.3l14.7-25.4c3.4-.7 10.6-3.6 9.9-5.2-.4-.7-3.5-1.2-3.5-1.2z"/>
      <path d="m264.2 413.4-.5-3.6-3.6-.5s-.9-3.3-1.7-3.2c-2 .2-3.3 7.7-3.5 10.8l-20.5 19c-.4.3-.4.9-.1 1.2l.5.5c.3.3.8.3 1.2 0l20.6-19.1c3.6.1 11-1.9 10.7-3.2-.2-.8-3.1-1.9-3.1-1.9z"/>
      <path d="m271.5 426 .8-3.5-3.2-1.7s.3-3.4-.5-3.6c-1.9-.4-5.7 5.9-7 8.7L239 438.3c-.4.2-.6.7-.4 1.1l.3.6c.2.4.7.6 1.1.4l22.7-12.4c3.3 1.3 10.9 2.7 11.1.9.1-.8-2.3-2.9-2.3-2.9z"/>
      <path d="m275.2 439.9 1.5-3.2-2.8-2.4s1.1-3.3.3-3.6c-1.8-.9-6.9 4.8-8.8 7.2l-23.2 4.6c-.5.1-.8.5-.7 1l.1.7c.1.4.5.7 1 .7l23.4-4.6c3 2 10.3 4.3 10.7 3.1.4-1-1.5-3.5-1.5-3.5z"/>
    </g>
    <g stroke="none" fill="#000">
      <path d="M187.3 728.4c-.5.6-.8 1.3-1.1 2l-.5 1.1-.7 1.2-1.2-1.3.7-.6.8-.8c.7-.6 1.3-1.2 2-1.6zm17.3.8a7.3 7.3 0 0 1-.1-4.4l1.6.8c-.7 1-1.3 2.2-1.3 3.6h-.2z"/>
      <polygon points="169.7,736.1 168,734.4 169.6,733.5 169.9,736"/>
      <path d="m179 727.7 1.5-.4.8-.2.7-.2 1.3-.9c.5-.3 1.1-.5 1.7-.4v.2c-.5.2-.9.4-1.3.8l-1.2 1.2c-.5.4-.9.8-1.4 1l-1.6.7-.5-1.8zm-8.9-4.5a5 5 0 0 1-.2 3.8h-.2c0-1.1-.5-2.2-1.1-2.9l1.5-.9zm24.9 1.5a3.3 3.3 0 0 1-.1-3.3h.2c0 .5.2.9.4 1.3s.5.6.8.7l-1.3 1.3zm4.5-25.3c-.5-.1-1.1 0-1.6.1l-.8.2-.3.1-.1.1h.1l.2-.1-1.3-1.2.2-.2.1-.1h.6l.5.1.9.3c.6.2 1.1.4 1.6.8l-.1-.1zm-1.8 4.9h-1.4l-.6.2-.3.1-.1.1-.2.1-.3-1.8c-.2.1-.1 0-.1 0h.9l.8.2 1.4.8-.1.3zm-1.2 5h-1.4l-.6.1-.2.2-1-1.5c.4-.2.8-.2 1.1-.1l.8.3 1.3.8v.2zm-1.8 4.8c-.4-.2-.9-.2-1.4-.2l-.6.2-.2.2-1.1-1.4c.5-.2.8-.2 1.2-.2l.9.2c.5.2 1 .5 1.3 1l-.1.2zm-1.1 5.1c-.5-.2-.9-.2-1.4-.1l-.7.1-.4.2-.7-1.6h1.1l.8.3c.5.2 1 .5 1.4.9l-.1.2zM178 739.9a7 7 0 0 1 2.4 2.7l-.1.1c-.9-.6-1.9-1-2.9-1.1l.6-1.7zm27.6-52.9-.6.9-.4.6-.6.4-.9.6a2 2 0 0 1-.4-1.2l.5-1.1c.3-.3.7-.5 1.1-.6.5 0 .9 0 1.3.4z"/>
      <path d="M268.3 728.4a9 9 0 0 1 1.9 1.5l.8.8.7.6-1.2 1.3-.7-1.2-.5-1.1c-.2-.5-.5-1.2-1-1.9zm-17.5.7c0-1.4-.5-2.6-1.3-3.6l1.6-.8c.4 1.5.4 3-.1 4.4h-.2z"/>
      <polygon points="285.7,736 286,733.5 287.6,734.4 285.9,736.1"/>
      <path d="M276.1 729.5c-.6-.1-1.1-.4-1.6-.7l-1.4-1-1.2-1.2c-.3-.4-.7-.6-1.3-.8v-.2c.6-.1 1.2.1 1.7.4l1.3.9.7.2.8.2 1.5.4-.5 1.8zm10.9-5.4c-.7.6-1.1 1.7-1.1 2.9h-.2a5 5 0 0 1-.2-3.8l1.5.9zm-27.7-.6c.3-.1.6-.3.8-.7l.4-1.3h.2c.2.5.4 1 .4 1.5a3 3 0 0 1-.5 1.8l-1.3-1.3zm-3.3-24.3 1.6-.8.9-.3.5-.1h.6l.1.1.2.2-1.3 1.2.2.1h.1s.1 0 0 0l-.1-.1-.3-.1-.8-.2-1.6-.1-.1.1zm1.8 5c.4-.3.8-.6 1.4-.8l.8-.2h.9-.1l-.3 1.8-.2-.1-.1-.1-.3-.1-.6-.2h-1.4l-.1-.3zm1.2 4.9 1.3-.8.8-.3c.3-.1.7-.1 1.1.1l-1 1.5-.2-.2-.6-.1H259v-.2zm1.8 4.9c.3-.4.8-.7 1.3-1l.9-.2c.3 0 .7 0 1.2.2l-1.1 1.4-.2-.2-.6-.2c-.4-.1-.9 0-1.4.2l-.1-.2zm1.1 5.1c.3-.4.8-.7 1.4-.9l.8-.3a2 2 0 0 1 1.1 0l-.7 1.6-.4-.2-.7-.1c-.5 0-1-.1-1.4.1l-.1-.2zm16.3 22.4a6 6 0 0 0-2.9 1.1l-.1-.1c.5-1 1.4-1.9 2.4-2.7l.6 1.7zM250 687a2 2 0 0 1 1.2-.4c.4.1.8.3 1.1.6.3.3.5.7.5 1.1 0 .4 0 .9-.4 1.2l-.9-.6-.6-.4-.4-.6-.5-.9z"/>
      <path d="M198 554.9a32 32 0 0 0-1.5 8.3c-.2 2.8-.2 5.7-.2 8.6-.4-2.9-.7-5.7-.9-8.6-.1-2.9-.1-5.9.5-8.8l2.1.5z"/>
      <path d="M246.9 464.3c.2-.1.5.1.7.3l.2.7c0 .5-.1.7-.3 1.1l-.7.8c-.3.2-.7.3-1.2.3v-1.1l.3-.8.5-.6.3-.2.2-.5zm4.3 7.3c.3 0 .6.2.7.4l.3.8c0 .5-.2 1.1-.4 1.4-.2.4-.5.7-.9 1-.4.2-.8.4-1.4.4l.3-1.3.5-1 .5-.8c.2-.2.4-.3.4-.9zm2.7 8.5v1.2l-.5.9a2 2 0 0 1-.9.5h-1.2l.3-1.1.5-.7.7-.5a2 2 0 0 1 1.1-.3zm1 8.7c.1.5 0 .8-.2 1.1l-.7.7c-.3.2-.6.2-1 .2-.3 0-.7-.1-1.1-.5l.6-.9.6-.5.7-.2 1.1.1zm-2.5 6.9c.3.3.4.6.4.9 0 .3-.1.5-.3.7a1 1 0 0 1-.7.3c-.3 0-.6-.1-.9-.4l.2-.8.2-.4.4-.2.7-.1zm-2.1 7.1c.2.4.2.7.2 1l-.4.8-.7.5h-1l.1-1 .3-.6c.1-.2.3-.3.6-.4.2-.2.5-.3.9-.3z"/>
      <path d="M212 438.3c.3-.5.7-.9 1.1-1.1.4-.2.9-.4 1.4-.4.5 0 1 0 1.5.2s.9.4 1.3.9l-1.4.5-1.2.2h-1.2l-1.5-.3zm8.2 1.2c.5-.1.9 0 1.3.2l1 .7c.3.3.5.6.6 1 .1.4.2.8.1 1.3l-1.2-.4-.8-.7-.6-.9c-.2-.3-.4-.6-.4-1.2z"/>
      <path d="M194.2 453.8c.6-.6 1.2.4 2.5 1.8s1.6 2.8.6 3.2c-.9.4-2-.2-3.2-1.4a3 3 0 0 1 .1-3.6z"/>
      <path d="M189.1 456c1.4.9 2.2.1 2.9-.9l1.2-1.7 1.6-1.6c1.2-1 2.5-1.8 4-2.1 1.5-.4 3-.4 4.4.1a14.4 14.4 0 0 0-7.1 3.7l-1.4 1.4-1.5 1.6c-.6.5-1.3 1-2.3 1-.5 0-1-.1-1.3-.4l-.5-1.1zm.8 12.3-.9 1.1-.7.8-.4.7-.2 1.2c-.6 0-1.1-.5-1.2-1.2-.2-.7.1-1.3.4-1.8.4-.5.9-.8 1.4-.9a3 3 0 0 1 1.6.1z"/>
      <path d="M236.4 400.9c-.2-.7 0-1.3.2-1.9.2-.5.6-1.1 1.2-1.4.2.7 0 1.3-.2 1.9-.2.5-.6 1-1.2 1.4z"/>
      <path d="M236.4 400.9a7 7 0 0 1 2.6-1.9c.9-.5 1.9-.9 3.1-1a7 7 0 0 1-2.6 1.9c-1 .4-1.9.9-3.1 1z"/>
      <path d="M247.7 407.5c-.5-1-.7-2.1-.9-3.2-.1-1.1-.1-2.2.2-3.3.5 1 .7 2.1.9 3.2.1 1.1.1 2.2-.2 3.3z"/>
      <path d="M247.7 407.5c0-.8.3-1.4.7-1.9.4-.5.8-1 1.6-1.3a3 3 0 0 1-.7 1.9c-.5.5-.9 1-1.6 1.3z"/>
      <path d="M247.7 407.5c1-.7 2.1-1.1 3.2-1.5 1.1-.3 2.2-.5 3.5-.5-1 .7-2.1 1.2-3.2 1.5-1.2.3-2.3.6-3.5.5z"/>
      <path d="M257.6 415.8a8.7 8.7 0 0 1-.1-3.2c.2-1.1.4-2.1.9-3.1.3 1.1.2 2.2.1 3.2s-.4 2.1-.9 3.1z"/>
      <path d="M257.6 415.8c.2-.8.7-1.3 1.2-1.8.5-.4 1.1-.8 1.9-1-.2.8-.7 1.3-1.2 1.8-.6.4-1.1.8-1.9 1z"/>
      <path d="M257.6 415.8c1.1-.5 2.3-.7 3.5-.8 1.2-.1 2.3-.1 3.5.3-1.1.5-2.3.7-3.5.8-1.2 0-2.3 0-3.5-.3z"/>
      <path d="M264.5 426c.1-1.2.5-2.2 1-3.1.5-1 1.1-1.9 1.9-2.7a7.6 7.6 0 0 1-1 3.1c-.5 1-1 1.9-1.9 2.7z"/>
      <path d="M264.5 426c.4-.6 1-1 1.6-1.2.6-.2 1.2-.4 2-.3-.4.6-1 1-1.6 1.2-.6.3-1.2.5-2 .3z"/>
      <path d="M264.5 426c1.2-.1 2.4.1 3.5.5 1.1.3 2.2.7 3.2 1.5-1.2.1-2.4-.1-3.5-.5a8.5 8.5 0 0 1-3.2-1.5z"/>
      <path d="M268.4 438.3c.4-1.1 1-2 1.7-2.8.7-.8 1.5-1.6 2.5-2.1-.4 1.1-1 2-1.7 2.8-.8.8-1.5 1.6-2.5 2.1z"/>
      <path d="M268.4 438.3c.6-.5 1.3-.7 1.9-.9.7-.1 1.4-.1 2.1.2-.6.5-1.3.7-1.9.9-.7.1-1.4.1-2.1-.2z"/>
      <path d="M268.4 438.3c1.2.2 2.3.7 3.3 1.2 1 .6 2 1.2 2.8 2.1-1.2-.2-2.3-.7-3.3-1.2a8 8 0 0 1-2.8-2.1zm-32-37.4a10.9 10.9 0 0 1-2.5-5.8c.8.8 1.3 1.7 1.7 2.7.5.9.8 1.9.8 3.1z"/>
      <path d="M224 453.1c.4-.1.7.1.9.2l.3.6c0 .2-.1.5-.3.7-.2.2-.4.3-.9.3l-.5-.6-.2-.3.1-.3.6-.6zm-2 4.7c.5.1.7.5.9.9v1.1c-.1.4-.3.7-.7.9-.3.2-.7.4-1.2.2v-1l.1-.6.3-.6.6-.9z"/>
      <path d="M196.8 649.5a27 27 0 0 1 7.8 3.3c2.4 1.4 4.8 2.8 7.3 4a36.7 36.7 0 0 0 15.8 4v1.8a34.1 34.1 0 0 1-16.4-4.3c-2.5-1.3-4.9-2.9-7.2-4.4-2.4-1.5-4.7-3-7.2-4.2l-.1-.2z"/>
      <path d="m257.5 652.5-7.2 3-7.3 2.9c-2.4 1-4.9 1.9-7.4 2.7-2.5.8-5.1 1.5-7.9 1.5v-1.8c2.4-.1 4.9-.7 7.4-1.4s4.9-1.6 7.4-2.5l7.4-2.6c2.5-.9 5-1.6 7.6-2v.2zm1.6-47.7h.6l.4.4.4 1c.2.6.2 1.2.2 1.9 0 .6-.1 1.3-.4 1.9a3 3 0 0 1-1.1 1.6l-.3-1.9V608l.2-1.7.2-.8c0-.2.1-.5-.2-.7zm-6.7 14.2a8 8 0 0 1-2 4.1 8 8 0 0 1-1.7 1.5 5 5 0 0 1-2.1.9c.3-.7.8-1.4 1.2-2l1.3-1.7 1.5-1.5 1.8-1.3zm-6.8 11.6c.3.2.5.6.5 1l-.3 1.2c-.5.7-1.2 1.1-1.8 1.3-.6.2-1.3.4-2 .4s-1.4-.1-2-.4l1.7-.9 1.6-.7 1.4-.6c.4-.2.9-.6.9-1.3zm-52.4-28.2.8 2 .8 1.8 1 1.7 1.2 1.8c-.8 0-1.6-.4-2.2-.8a5.2 5.2 0 0 1-1.5-1.8c-.4-.7-.6-1.5-.6-2.3-.1-.9 0-1.8.5-2.4zm8.4 15.5.9 1.1.6 1 .5 1 .5 1.3a2 2 0 0 1-1.5-.4l-1.1-1.1c-.3-.4-.4-1-.4-1.5 0-.4.1-1 .5-1.4zm4.2 13 1.9 1.1 1.7 1 1.7.9 1.9 1.1c-.7.3-1.5.4-2.3.3-.8-.1-1.5-.3-2.2-.7-.7-.4-1.3-.9-1.8-1.5-.4-.8-.8-1.4-.9-2.2zm29.5-45.2-.2 1.9-.5 1.7-.7 1.6-1 1.6c-.3-.7-.3-1.3-.3-2 0-.6.2-1.3.4-1.9.2-.6.5-1.2.9-1.7.3-.4.8-.8 1.4-1.2zm-4.6 12.5c.2.6.2 1.1.1 1.7l-.2 1.5-.5 1.4c-.2.5-.5.9-.9 1.4-.3-.6-.4-1.1-.4-1.6s0-1.1.2-1.6l.6-1.5c.2-.5.6-.9 1.1-1.3zm-17.8-18.6c.6-.1 1.1.1 1.6.4.5.3.9.7 1.2 1.1.3.4.5 1 .6 1.5.1.5 0 1.1-.3 1.6l-1-1.1-.8-1-.7-1.1-.6-1.4zm7.6 11.5c.7.3 1.2.8 1.6 1.4.4.6.7 1.2.9 1.9l.3 2.1c0 .7-.2 1.4-.5 2-.4-.6-.6-1.2-.8-1.8l-.6-1.7-.5-1.8c-.2-.7-.4-1.4-.4-2.1z"/>
    </g>
  </g>
</svg>
