<svg xmlns="http://www.w3.org/2000/svg" fill="#d7374a" stroke="#000" viewBox="50 50 200 200">
  <metadata source="http://wappenwiki.org/images/5/5e/Wied.svg" license="https://creativecommons.org/licenses/by-nc-sa/3.0"/>
  <g id="peacock" stroke-width="2" transform="translate(10 105.7) scale(0.11)">
    <g>
      <path fill="#3E933E" stroke-width="3" d="M789.3 62.3c21.1 14.5 40.5 41.1 45.2 66.3 3.3-2 7.3-4 10.8-2.4 5.7 9 8 20 6.4 30.5a97.7 97.7 0 0 0 18.5 3c3.8 8 5.9 16.8 6 25.7 4.1-.1 8.7-.1 11.6 2.8 1.6 1.6 2.4 3.7 3.2 5.9l5.8 15.8c3.3-2.9 8.8-1.8 12.1 1.1 3.3 2.9 5.1 7.2 6.9 11.2 2.2 4.7 4.7 9.4 8.6 12.7 3.9 3.3 9.6 5.1 14.4 3.3 4.2 15.6 13.4 25.6 29.6 33.8 14.6 6.6 30.1-.9 37.2-10.6a45.4 45.4 0 0 0 33.9-21.1c1.9-3.1 3.7-6.6 7-7.9 2.3-.9 5-.6 7-1.9 3.4-2.2 3.2-7.2 5.3-10.7 4.1-7 16.4-6.3 19.2-13.9 1.9-5-1.7-10.7-.5-15.9.2-.8.5-1.5 1-2.1 2.1-2.1 5.7 0 8.6-.8 4.1-1.2 4.1-7 3.5-11.2-.8-6.2.4-14.3 6.4-16.1l-1.2-20.3c-.1-1.3-.1-2.9 1-3.7 1-.7 2.4-.4 3.6-.8 2.9-.8 3.1-4.8 2.2-7.7-.9-2.8-2.4-5.9-1.1-8.6 1.2-2.4 5.4-5 6-11.6 1-10.4-4.9-17.2-5.5-18.1-12.6-13.1-24.8-19-40.9-18.6.4-5.2-2.9-10.1-7.3-12.9a35.7 35.7 0 0 0-14.7-4.6c-4.4-.6-9-1.1-12.8-3.4-3.8-2.3-6.4-7.3-4.6-11.3l-16.8-1c-2.2-.1-4.6-.3-6.5-1.4-3.6-2-5-6.4-6-10.3-8.5 2.5-17.5 3-26.3 1.7-2.2-5.8-5-11.5-8.2-16.9a44.8 44.8 0 0 1-31 2.6c-2.5-2.9-1.7-7.3-.8-11.1-.8 3.4-28-1.7-30.9-2.4-11.2-2.6-22-6.9-32-12.6-4.3-2.5-8.6-7-13-8.9-4.9-2.2-12.4-.2-17.7.2l-41.2 3.1c-2.5.2-4.9.4-7.3 1a36 36 0 0 0-8.2 3.8l-11.7 6.6c-1.2.7-2.3 1.3-3.2 2.3-1.2 1.3-1.9 3-2.5 4.7L748.8 25c-1.5 3.8-2.9 8.1-1.4 11.9a17 17 0 0 0 5.3 6.3c4.6 3.9 9.1 12 13.7 15.9"/>
      <g>
        <path fill="#F2BC51" d="M971.1 80.2c2.4 1.1.8 5.2 2.4 5.9.8.3 1.4-.3 3.1-.7 1.7-.4 3.1-.4 3.7 2.4l.1.6c.4 1.7 2 1.9 3.5.5l1-.9c1.5-1.4 3.7-1.5 4.9-.2l1 1.1c1.2 1.3 2.6.9 3.1-.8l.5-1.5c.6-1.7 2.3-2.4 3.8-1.5l1.6.9c1.5.8 2.6.2 2.4-1.4l-.2-2.1c-.1-.6.1-1.2.4-1.6a3 3 0 0 1 2.7-1.1l.8.1.9.1c.9.1 1.5-.2 1.8-.5.3-.4.3-1-.2-1.6l-.5-.6-.4-.6c-.6-.8-.5-1.7.1-2.4.3-.4.9-.7 1.5-.9l2.3-.7c1.7-.5 1.9-1.5.4-2.3l-1.6-.8c-1.5-.8-1.5-2.2 0-3.2l1.3-.8c1.5-1 1.3-2-.4-2.4l-1.5-.3c-1.8-.4-2.5-1.9-1.7-3.4l.5-.9c.8-1.5 0-2.4-1.8-2.2l-.6.1c-3.1.5-3.6-.5-3.8-1.7-.2-1.2.2-1.8-.4-2.2-1.3-.8-4.9 1.4-6.9.2-2.7-1.6 6-1.5 2.2-3.9-11.1-7-26.3.2-42.4 1.3l-1.2-.1.4.8c3.7 12.1-1.2 27.3 12.6 33.4 4.9 1.7 1.5-5.6 4.6-4.1zm70.9 85.1c2.4 1.1 1 5.1 2.6 5.8.8.3 1.4-.3 3.1-.8 1.7-.4 3.1-.5 3.8 2.3l.1.5c.5 1.7 2.1 1.8 3.6.4l1-.9c1.5-1.4 3.7-1.5 4.9-.3l1.1 1.1c1.2 1.2 2.6.8 3.1-.9l.4-1.5c.5-1.7 2.2-2.4 3.8-1.5l1.6.9c1.5.8 2.6.2 2.4-1.4l-.3-2.1c-.1-.6.1-1.1.4-1.6a3 3 0 0 1 2.6-1.1h.8l.9.1c.9 0 1.5-.2 1.8-.6.3-.4.2-.9-.2-1.6l-.5-.6-.4-.6c-.6-.8-.6-1.7 0-2.4.3-.4.8-.7 1.5-.9l2.3-.7c1.7-.5 1.9-1.5.4-2.3l-1.6-.8c-1.5-.8-1.6-2.2-.1-3.2l1.3-.9c1.4-1 1.2-2-.5-2.4l-1.5-.3c-1.8-.3-2.6-1.8-1.8-3.3l.5-.9c.8-1.5-.1-2.4-1.9-2.1l-.6.1c-3 .5-3.6-.4-3.9-1.6-.3-1.2.1-1.8-.5-2.2-1.3-.8-4.8 1.5-6.9.3-2.8-1.6 5.9-1.6 2-3.9-11.5-6.7-26.4.6-42.5 1.9h-1.2l.5.8c4.2 11.9-.2 26.9 13.9 32.8 4.4 2 .7-5.1 4-3.6zm-31.7 45.2c1.9 1.8-.8 5.5.5 6.7.6.6 1.4.1 3.1.1 1.7.1 3.1.5 2.8 3.5v.6c-.1 1.8 1.3 2.5 3.2 1.5l1.2-.7c1.9-1 4-.5 4.7 1.2l.6 1.4c.7 1.6 2.2 1.6 3.2.1l.9-1.4c1-1.6 2.9-1.8 4.1-.4l1.2 1.4c1.2 1.3 2.4.9 2.7-.8l.4-2.2c.1-.6.4-1.1.9-1.5.7-.6 1.8-.8 2.8-.4l.8.3.8.3c.8.3 1.5.3 1.9 0 .4-.3.5-.9.3-1.7l-.2-.8-.2-.7c-.3-1 0-1.9.8-2.4.4-.3 1-.5 1.7-.5h2.3c1.8 0 2.3-1 1.1-2.2l-1.2-1.3c-1.2-1.2-.8-2.7.9-3.3l1.5-.5c1.7-.6 1.8-1.7.3-2.6l-1.3-.8c-1.5-.9-1.8-2.6-.6-3.9l.8-.8c1.2-1.3.7-2.5-1.1-2.7l-.6-.1c-3-.4-3.2-1.5-3.1-2.8.1-1.3.7-1.8.3-2.4-1-1.2-5 .1-6.5-1.8-2-2.4 6.1.1 3.2-3.3-8.4-10.3-24.8-7.2-40.3-10.6l-1.1-.4.2.9c-.2 13.4-9.3 27.4 1.8 37.5 3.7 3.4 2.7-4.9 5.2-2.5zm-52.1 26.2c1.6 2.1-1.8 5.6-.8 7 .5.7 1.4.3 3.1.6 1.7.3 3 .9 2.1 4l-.2.6c-.5 1.9.8 2.8 2.9 2l1.3-.5c2-.8 4 .1 4.4 1.9l.4 1.6c.4 1.8 1.8 2 3.2.5l1.2-1.3c1.3-1.5 3.2-1.4 4.1.1l1 1.6c.9 1.5 2.2 1.3 2.9-.4l.9-2.2c.2-.6.7-1.1 1.2-1.4a3 3 0 0 1 2.9 0l.7.4.7.5c.8.5 1.4.5 1.9.2s.7-.9.6-1.7l-.1-.8-.1-.8c-.1-1.1.4-2 1.2-2.4.5-.3 1.1-.4 1.8-.3l2.3.3c1.8.2 2.5-.7 1.5-2.1l-1-1.5c-1-1.4-.2-2.9 1.6-3.3l1.6-.3c1.8-.3 2.1-1.5.8-2.6l-1.2-1c-1.4-1.1-1.3-3 .2-4.1l.9-.7c1.4-1.1 1.2-2.5-.5-3l-.6-.2c-2.9-.8-2.9-2-2.5-3.3.4-1.3 1.1-1.7.7-2.4-.7-1.3-5-.7-6.2-2.8-1.6-2.8 6 1 3.8-3-6.4-11.8-23.2-11-37.9-16.7l-1-.6v1c-2.8 13.8-14.5 26.8-5.5 38.9 3.1 4.1 3.7-4.7 5.7-1.8zm2.3-101.7c2.3 1.3.5 5.6 2 6.4.7.4 1.4-.3 3.1-.7 1.7-.4 3.1-.3 3.5 2.7l.1.6c.3 1.8 1.8 2.1 3.4.6l1-1c1.6-1.5 3.8-1.5 4.8-.1l.9 1.2c1.1 1.4 2.5 1 3.1-.8l.6-1.6c.6-1.8 2.4-2.5 3.9-1.5l1.5 1c1.4 1 2.6.3 2.5-1.4l-.1-2.3c0-.7.2-1.2.5-1.7a3 3 0 0 1 2.7-1.1l.8.1.9.1c.9.1 1.5-.1 1.8-.5.3-.4.3-1-.1-1.7l-.4-.7-.4-.6c-.5-.9-.4-1.9.2-2.6a4 4 0 0 1 1.5-1l2.3-.6c1.7-.5 2-1.6.6-2.4l-1.5-.9c-1.4-.9-1.4-2.5.2-3.5l1.3-.9c1.5-1 1.4-2.1-.3-2.6l-1.5-.4c-1.7-.5-2.4-2.1-1.5-3.7l.6-1c.9-1.5.1-2.6-1.7-2.4l-.6.1c-3 .4-3.5-.7-3.6-1.9-.2-1.3.3-1.9-.3-2.4-1.2-.9-4.9 1.3-6.8 0-2.5-1.8 6-1.4 2.4-4.1-10.5-7.8-25.8-.6-41.6 0l-1.1-.1.4.9c2.9 13.1-2.9 29.1 10.2 36.2 4.6 2.5 1.7-5.4 4.7-3.7zm-73.1-71.9c2.4 1.3.5 5.2 2 6 .8.4 1.5-.2 3.2-.5 1.7-.3 3.3-.2 3.7 2.6l.1.6c.3 1.7 1.9 2 3.6.7l1.1-.9c1.7-1.3 4-1.3 5.1.1l1 1.2c1.1 1.3 2.6 1 3.3-.6l.6-1.4c.7-1.6 2.5-2.2 4.1-1.3l1.6 1c1.5.9 2.7.4 2.6-1.3l-.1-2.1c0-.6.2-1.1.6-1.6a3 3 0 0 1 2.8-.9l.8.1.9.1c.9.1 1.6-.1 1.9-.4.3-.4.3-.9-.1-1.6l-.4-.7-.4-.6c-.5-.9-.4-1.7.3-2.4.4-.4.9-.7 1.6-.8l2.4-.5c1.8-.4 2.1-1.4.6-2.2l-1.6-.9c-1.5-.9-1.4-2.3.2-3.2l1.4-.8c1.6-.9 1.5-1.9-.3-2.4l-1.5-.4c-1.8-.5-2.5-2-1.5-3.5l.6-.9c1-1.4.2-2.4-1.7-2.3h-.6c-3.2.3-3.7-.7-3.8-1.9-.1-1.2.4-1.8-.3-2.2-1.2-.9-5.1 1.1-7.1-.3-2.7-1.8 6.3-1.1 2.6-3.7-11-7.6-27.2-1.4-43.9-1.3l-1.2-.1.4.8c2.9 12.3-3.4 27 10.4 34 4.8 2.2 1.8-5.2 5-3.5z"/>
        <g stroke="none" fill="#000">
          <polygon points="1000.4,75.2 984.2,67.7 985.2,65.9"/>
          <polygon points="1001.9,66.1 987.5,64.9 987.8,63"/>
          <polygon points="998.7,59.3 986.6,60.8 986.6,58.8"/>
          <polygon points="990.7,80.3 981.7,70.6 983.3,69.4"/>
          <polygon points="981.2,80.8 976.4,71.2 978.2,70.4"/>
          <polygon points="989.6,130.7 974.2,122 975.3,120.3"/>
          <polygon points="991.7,121 977.6,119.2 978,117.3"/>
          <polygon points="989,113.6 977,114.8 977,112.8"/>
          <polygon points="979.8,135.9 971.6,125.1 973.2,124"/>
          <polygon points="970.5,136 966.3,125.5 968.2,124.9"/>
          <polygon points="1071,159.9 1054.6,152.7 1055.5,150.9"/>
          <polygon points="1072.3,150.9 1057.7,149.9 1058,148"/>
          <polygon points="1068.8,144.2 1056.7,145.9 1056.6,143.9"/>
          <polygon points="1061.5,165.1 1052.2,155.7 1053.7,154.4"/>
          <polygon points="1052.1,165.7 1046.8,156.3 1048.6,155.5"/>
          <polygon points="1039.8,213.7 1026.9,201.5 1028.3,200.1"/>
          <polygon points="1044,205 1030.7,199.7 1031.6,197.9"/>
          <polygon points="1042.9,197.3 1031.1,195.4 1031.6,193.5"/>
          <polygon points="1029.2,216.2 1023.6,203.7 1025.5,203.1"/>
          <polygon points="987,244 976.5,229.4 978.1,228.3"/>
          <polygon points="992.8,235.6 980.6,228.1 981.8,226.5"/>
          <polygon points="993.2,227.5 981.8,223.8 982.6,221.9"/>
          <polygon points="975.9,245 972.7,231.3 974.7,231"/>
          <polygon points="967.2,241.4 967.6,229.5 969.6,229.7"/>
          <polygon points="907.7,64.5 899.2,54.3 900.8,53.1"/>
          <polygon points="918.1,60 902.1,51.5 903.1,49.8"/>
          <polygon points="920.4,51.1 905.6,49 906,47.1"/>
          <polygon points="917.6,44.1 905,44.9 905.1,42.9"/>
        </g>
        <path fill="#BC2E2E" d="M988.6 68.7a16 16 0 0 1-20 4.3c-7.2-3.5-8.4-10.6-2.8-16.5a16.4 16.4 0 0 1 20.4-3.3c6.5 3.9 7.1 10 2.4 15.5zm-10.1 54.7c-5 5.9-12.7 8.2-19.9 3.9-6.9-4-7.6-11.6-1.7-17.8 5.6-6 13.9-7.2 20.1-2.8 6.2 4.3 6.4 10.9 1.5 16.7zm80.5 30.3a16.2 16.2 0 0 1-19.9 4.6c-7.4-3.4-8.8-10.3-3.4-16.3a16.4 16.4 0 0 1 20.3-3.5c6.7 3.6 7.5 9.7 3 15.2zm-28.4 50.2c-6.2 4.4-14.1 4.6-20.1-1.3-5.7-5.6-4.7-13.1 2.3-17.6a15.4 15.4 0 0 1 20.2 2.4c5 5.7 3.7 12.2-2.4 16.5zm-50.9 28.6c-7 3.7-14.9 2.7-19.7-4.2-4.6-6.6-2.2-14.2 5.7-17.8 7.6-3.5 15.6-1.4 19.5 5.4 3.8 6.6 1.3 13-5.5 16.6zM906.5 52.8a17.1 17.1 0 0 1-21 3c-7.2-3.9-7.9-11-1.6-16.6 6-5.4 14.7-6.3 21.3-2 6.4 4.3 6.5 10.4 1.3 15.6z"/>
        <path fill="#F2BC51" d="M981.4 65c3.5-4 2.7-7.9-1.4-10.2-1.4-.8-3.9-1.4-5.3.2-1.4 1.6-.4 3.1-2.3 5.1-1.8 2-4 1.9-5.4 3.4-1.4 1.5-.2 3.4 1.3 4.2 4.2 2.1 9.6 1.3 13.1-2.7zm62.8 50.9c2.6.6 1.8 4.9 3.5 5.3.8.2 1.3-.6 2.9-1.3 1.6-.7 3-1 4.1 1.7l.2.5c.7 1.6 2.3 1.5 3.6-.2l.8-1.1c1.2-1.7 3.4-2.2 4.8-1.2l1.2.9c1.4 1 2.7.4 2.9-1.4l.2-1.5c.2-1.8 1.8-2.7 3.5-2.2l1.7.6c1.6.5 2.6-.3 2.1-1.9l-.6-2c-.2-.6-.1-1.2.1-1.7.4-.8 1.3-1.4 2.4-1.6l.8-.1.9-.1c.9-.1 1.5-.4 1.7-.9.2-.4.1-1-.5-1.6l-.6-.5-.5-.5a2 2 0 0 1-.4-2.4 3 3 0 0 1 1.3-1.2l2.1-1.1c1.6-.8 1.6-1.9 0-2.3l-1.7-.5c-1.6-.5-1.9-1.9-.6-3.2l1.1-1.1c1.3-1.2.9-2.2-.9-2.3h-1.5c-1.8 0-2.8-1.4-2.3-3l.3-1c.5-1.6-.5-2.4-2.2-1.8l-.6.2c-2.9 1.1-3.6.2-4.1-.9-.5-1.1-.1-1.8-.8-2.1-1.4-.5-4.5 2.3-6.7 1.5-3-1.1 5.6-2.6 1.4-4.2-12.3-4.7-25.7 5.2-41.4 9.3l-1.2.2.6.7c5.9 11.2 4 27 18.7 30.4 5 1.2.3-5.3 3.7-4.4z"/>
        <g stroke="none" fill="#000">
          <polygon points="1071.7,105.3 1054.4,101 1055,99.1"/>
          <polygon points="1071.6,95.9 1057.1,97.5 1057.1,95.5"/>
          <polygon points="1067.2,90 1055.6,93.8 1055.1,91.9"/>
          <polygon points="1063.2,112.2 1052.5,104.4 1053.8,102.9"/>
          <polygon points="1054,114.4 1047.4,105.9 1049.1,104.8"/>
        </g>
        <path fill="#BC2E2E" d="M1059 101.2a16 16 0 0 1-18.8 8c-7.8-2.1-10.3-8.8-5.9-15.7a16.5 16.5 0 0 1 19.4-7.1c7.1 2.6 8.8 8.5 5.3 14.8z"/>
        <path fill="#F2BC51" d="M1051.2 98.9c2.6-4.5 1.1-8.2-3.3-9.7-1.5-.5-4-.6-5.1 1.2-1.1 1.8.1 3.1-1.3 5.5-1.4 2.3-3.6 2.7-4.7 4.4-1.1 1.7.4 3.4 2.1 3.9 4.4 1.1 9.6-.7 12.3-5.3zm-79.6 20.2c3.6-4.1 3.1-8.3-.7-10.9-1.3-.9-3.7-1.6-5.2 0s-.6 3.3-2.6 5.4c-1.9 2.1-4.1 1.9-5.5 3.5-1.4 1.6-.4 3.6 1 4.5 4 2.4 9.3 1.7 13-2.5zM913.8 171c1.7 2.1-1.4 5.6-.3 6.9.5.6 1.4.2 3 .5 1.6.2 2.9.8 2.3 3.9l-.1.6c-.3 1.9 1 2.7 2.9 1.8l1.3-.6c1.9-.9 3.9-.1 4.4 1.7l.5 1.5c.5 1.7 1.9 1.9 3.1.4l1-1.3c1.2-1.5 3-1.5 4 0l1.1 1.5c1 1.4 2.2 1.2 2.7-.5l.7-2.2a4 4 0 0 1 1-1.5c.8-.5 1.8-.6 2.8-.1l.7.4.8.4c.8.4 1.4.4 1.8.2.4-.3.6-.9.5-1.7l-.2-.8-.1-.8c-.2-1.1.3-1.9 1-2.4.5-.3 1.1-.4 1.7-.4l2.3.2c1.7.2 2.3-.8 1.3-2.2l-1-1.5c-1-1.4-.4-2.9 1.3-3.3l1.5-.4c1.7-.4 2-1.6.6-2.6l-1.2-.9c-1.4-1.1-1.5-2.9-.1-4.1l.9-.8c1.3-1.2 1-2.5-.7-2.9l-.6-.1c-2.9-.7-3-1.9-2.7-3.2.3-1.3.9-1.8.5-2.4-.8-1.3-4.9-.4-6.2-2.5-1.7-2.7 5.9.7 3.5-3.1-7-11.4-23.3-9.8-38-14.9l-1-.5.1 1c-1.7 13.7-12.1 27.2-2.5 38.7 3.2 4 3.2-4.7 5.4-2z"/>
        <g stroke="none" fill="#000">
          <polygon points="942.2,177.1 930.9,163.1 932.5,161.9"/>
          <polygon points="947.2,168.5 934.9,161.6 936,160"/>
          <polygon points="947,160.5 935.7,157.3 936.4,155.4"/>
          <polygon points="931.5,178.5 927.5,165.1 929.4,164.7"/>
          <polygon points="922.9,175.3 922.4,163.6 924.4,163.7"/>
        </g>
        <path fill="#BC2E2E" d="M934.3 166c-6.5 3.9-14.2 3.4-19.4-3.3-5-6.3-3.1-13.9 4.2-17.8 7.1-3.8 15-2 19.3 4.5 4.2 6.3 2.2 12.8-4.1 16.6z"/>
        <path fill="#F2BC51" d="M929.5 159.4c4.7-2.7 5.6-7 2.9-10.8-.9-1.3-2.9-2.8-4.7-1.8-1.9 1-1.6 2.9-4.1 4.3-2.4 1.3-4.4.4-6.2 1.4-1.8 1-1.6 3.4-.5 4.7 2.8 3.7 7.8 5 12.6 2.2zm-56.8-49.3c2.1 1.6-.5 5.3.9 6.3.7.5 1.5 0 3.2 0 1.7 0 3.2.3 3.1 3.2v.6c0 1.7 1.5 2.3 3.4 1.3l1.2-.7c1.9-1 4.1-.6 4.9.9l.7 1.3c.8 1.5 2.3 1.5 3.3-.1l.8-1.3c1-1.5 2.8-1.8 4.2-.6l1.4 1.2c1.3 1.2 2.5.8 2.8-.8l.3-2.1c.1-.6.4-1.1.8-1.5a3 3 0 0 1 2.9-.4l.8.2.9.3c.9.3 1.6.2 2-.1.4-.3.5-.9.2-1.6l-.3-.7-.3-.7c-.4-.9-.1-1.8.7-2.3.4-.3 1-.5 1.7-.6l2.4-.1c1.8-.1 2.3-1 1-2.1l-1.4-1.2c-1.3-1.1-1-2.5.8-3.2l1.5-.5c1.7-.6 1.8-1.7.2-2.4l-1.4-.7c-1.6-.8-2-2.4-.9-3.7l.8-.8c1.2-1.2.6-2.4-1.3-2.5l-.6-.1c-3.1-.3-3.4-1.3-3.4-2.6.1-1.2.6-1.7.1-2.2-1.1-1.1-5.2.2-6.9-1.5-2.3-2.2 6.3-.1 3.1-3.3-9.3-9.4-26.1-6-42.3-8.7l-1.1-.3.2.9c.7 12.7-8 26.2 4.2 35.5 4.2 3.3 2.6-4.5 5.4-2.3z"/>
        <g stroke="none" fill="#000">
          <polygon points="903.3,112.2 889.2,101.1 890.5,99.6"/>
          <polygon points="907.1,103.8 893.1,99.3 893.8,97.4"/>
          <polygon points="905.5,96.6 893.2,95.2 893.6,93.3"/>
          <polygon points="892.4,114.9 886,103.4 887.8,102.6"/>
          <polygon points="882.7,112.2 880.5,103.5 882.5,103.2"/>
        </g>
        <path fill="#BC2E2E" d="M893.2 103.2a16.7 16.7 0 0 1-20.9-.5c-6.3-5.1-5.7-12.3 1.3-16.8a17.1 17.1 0 0 1 21 1.6c5.5 5.3 4.6 11.4-1.4 15.7z"/>
        <path fill="#F2BC51" d="M886.1 97c3.7-2.5 3.8-5.9 1-8.5-1-.9-2.9-1.9-4.4-.9-1.5 1-1 2.4-3 3.7-1.9 1.3-3.7.8-5.2 1.7-1.4.9-.9 2.7.2 3.7a9.4 9.4 0 0 0 11.4.3zm165.5 53.1c3.3-4 2.4-7.8-1.7-10-1.4-.8-3.9-1.3-5.3.3s-.3 3-2.1 5.1c-1.8 2-4 2-5.3 3.5-1.3 1.5-.1 3.4 1.5 4.1a11 11 0 0 0 12.9-3zM1025 198c4.4-3 4.9-7.2 1.8-10.7-1.1-1.2-3.2-2.5-5-1.3-1.8 1.2-1.3 3-3.7 4.5-2.3 1.5-4.4.8-6.1 1.9-1.7 1.1-1.2 3.4 0 4.6 3.2 3.4 8.5 4.1 13 1zm-49.8 27.6c5-2.5 6.2-6.8 3.8-10.8-.8-1.4-2.7-3-4.7-2.1-2 1-1.9 2.9-4.6 4.1-2.6 1.2-4.5.2-6.4 1.1-1.9.9-1.9 3.3-.9 4.8 2.6 4 7.7 5.5 12.8 2.9zM898.3 48c3.2-3.1 2.8-6.4-.5-8.5-1.1-.7-3.2-1.3-4.6-.1-1.3 1.2-.6 2.5-2.3 4.1-1.7 1.6-3.6 1.4-4.9 2.6-1.3 1.2-.4 2.8.9 3.5 3.4 2 8.1 1.6 11.4-1.6z"/>
      </g>
      <g stroke="none" fill="#000">
        <polygon points="1002,175.6 992.8,164.6 1004.1,173.4"/>
        <polygon points="1022.9,137.4 1017,131.8 1024.6,134.9"/>
        <polygon points="957.7,200 952.9,190.5 960.2,198.3"/>
        <polygon points="909.5,134.1 907.1,127 912.1,132.6"/>
        <polygon points="944.3,102.9 936.9,94.2 946.3,100.6"/>
        <polygon points="863,77.6 853.6,66.5 865.1,75.5"/>
        <polygon points="871.3,33.1 854.5,27.1 872.1,30.2"/>
        <polygon points="953.6,51.9 938.7,45.1 954.6,49"/>
        <polygon points="1021.5,91.4 1011.7,87.2 1022.3,88.5"/>
      </g>
    </g>
    <g stroke="none" fill="#000">
      <path d="M836.9 107.1c1.9 2.9 3.6 6 5.2 9.2l4.7 9.4-2.8 1.2c-1.2-3.3-2.2-6.7-3.3-10-1.1-3.4-2.4-6.6-3.8-9.8zm29.6 39.9a43 43 0 0 0 5.1 12l-2.7 1.4a44.5 44.5 0 0 1-2.4-13.4zm71.2 91.7c-1.4-7.4-3.2-14.8-5.3-22a218 218 0 0 1 8.2 21.3l-2.9.7z"/>
      <polygon points="1043.3,70.7 1061.4,69.2 1061.4,72.2"/>
      <path d="M951 26.6c5.2-.3 10.4-.2 15.5-.6l-.1 3c-5.2-.6-10.3-1.7-15.4-2.4zm-24.1-11.8c-3.5-1.1-7.2-1.6-11-2.2A24.5 24.5 0 0 1 905.1 9a20 20 0 0 0 5.4 1.7c1.8.3 3.7.4 5.6.5 3.8.1 7.6.1 11.5.7l-.7 2.9zM791.5 37.4c5.1 2.5 10 5.2 14.8 8.2l7.2 4.5 7 4.8 6.8 5 6.7 5.2c4.4 3.6 8.6 7.3 12.7 11.3-4.8-3-9.4-6.2-14.1-9.4l-6.9-4.8-6.9-4.8-6.9-4.9-6.8-4.9c-4.6-3.4-9.2-6.7-13.6-10.2zm28.8-17.7a57.9 57.9 0 0 1 17.9 7.1 44 44 0 0 1 7.9 5.7c2.4 2.2 4.5 4.4 7.2 6.2a25 25 0 0 1-8.6-4.4 131 131 0 0 0-7.9-5l-8.2-4.6a79.5 79.5 0 0 1-8.3-5zM850.8 9l9.4 1.7 9.3 1.9 9.2 2c3.1.7 6.2 1.4 9.3 2.3a60.5 60.5 0 0 1-19.1-1.4A80.8 80.8 0 0 1 850.8 9zm84.1 59.2a68.2 68.2 0 0 1 19.8 17.7 68.2 68.2 0 0 1-10.9-7.7c-1.6-1.5-3.2-3-4.7-4.7-1.6-1.7-3-3.4-4.2-5.3zm-7.6 16.9c1.3 1.4 2.2 2.9 3 4.6a23.5 23.5 0 0 1 2.2 10.5 17 17 0 0 1-.9 5.4 56 56 0 0 1-1.4-5.1l-1.1-5-1-5-.8-5.4zm79 11.1c1.4.7 2.6 1.5 3.8 2.3l3.3 2.5 3.1 2.7 3 3.2a12 12 0 0 1-4.3-1.3 18.8 18.8 0 0 1-6.8-5.6c-.8-1.1-1.6-2.4-2.1-3.8zM974.1 160c1.4.3 2.6 1.1 3.7 2.1 1 1 1.8 2.2 2.5 3.4.7 1.2 1.2 2.5 1.7 3.7l1.4 3.7a98.3 98.3 0 0 1 4 15.7 95.4 95.4 0 0 1-6.8-14.6l-2.5-7.5c-.8-2.5-1.8-4.8-4-6.5zm28.4-15.5a43 43 0 0 1 14.6 10.7 37 37 0 0 1 3.9 4.8 43 43 0 0 1-14.6-10.7c-1.4-1.5-2.8-3-3.9-4.8zm-127-10.5c2.1.7 4.1 1.8 5.9 3.1a29.7 29.7 0 0 1 8.7 10c1 2 1.8 4.1 2.2 6.3l-4.2-5-4.1-4.8-4.2-4.7-4.3-4.9zm56.4-100.8a52.2 52.2 0 0 0 19.8 5.6c3.4.4 6.8.6 10.3.8 3.5.2 7 .3 10.5.7a63.5 63.5 0 0 1-21.2 1.5c-3.6-.4-7.1-1.3-10.5-2.7a25.7 25.7 0 0 1-8.9-5.9zm-87.7 58.1a60.4 60.4 0 0 1 15.4 35.5c-1.4-3-2.6-6-3.8-9l-3.7-8.9-3.9-8.8-4-8.8zM835 42a28 28 0 0 1 10.3 8.9c1.3 1.9 2.5 3.9 3.4 6 .9 2.1 1.5 4.3 1.8 6.6l-3.8-5.5-3.7-5.4-3.9-5.3L835 42z"/>
    </g>
    <g stroke-width="3">
      <path class="secondary" d="M687.9 196.8s-8.7.6-8.5 7.5c.2 7 4.4 7.7 4.4 7.7s2.4-.1 4.7.9c5.9 2.5 5.7 7.2 4.1 11-.7 1.7-1.9 2.3-1.9 3-.3 1.6 9.8-1.1 10.7-13.7.9-13.8-13.5-16.4-13.5-16.4zm-84.4 48.5s8.1-3.2 10.9 3.2c2.8 6.4-.7 8.8-.7 8.8s-2.2.9-3.9 2.8c-4.2 4.8-2.1 8.9 1 11.7 1.4 1.3 2.7 1.3 3 1.9 1 1.3-9.3 3.2-15.5-7.9-6.7-12 5.2-20.5 5.2-20.5zm-24.7-21.5s8.7-.1 9.1 6.8c.4 7-3.7 8-3.7 8s-2.4.1-4.6 1.3c-5.7 3-5.1 7.6-3.2 11.3.8 1.7 2 2.2 2.2 2.9.5 1.6-9.8-.3-11.8-12.8-2.1-13.7 12-17.5 12-17.5z"/>
      <g stroke="none" fill="#000">
        <path d="M682.8 206.1c1.1-.1 2 0 3 .2l2.8.7c1.8.6 3.6 1.5 5 2.9a13 13 0 0 1 1.8 2.3c.5.9.8 1.8.9 2.7.3 1.9-.1 3.8-.9 5.5l-.3-.1a8.1 8.1 0 0 0-.9-7.4 6.9 6.9 0 0 0-1.7-1.7c-1.3-1-2.9-1.6-4.6-1.9-.8-.2-1.7-.3-2.5-.3l-2.4.1-.2-3zM613 254.4c-.6.2-1.5.5-2.2.9-.7.4-1.5.8-2.1 1.3-1.4 1-2.5 2.2-3.3 3.7-.4.7-.7 1.5-.8 2.3v2.5a8.6 8.6 0 0 0 2.4 4.6l-.2.2a8.8 8.8 0 0 1-3.4-7.5c.1-1 .3-1.9.6-2.9a14.2 14.2 0 0 1 5.6-6.6c.8-.6 1.6-1 2.7-1.5l.7 3zm-28.5-18.7h-2.4l-2.5.5c-1.6.5-3.1 1.2-4.4 2.3a7.4 7.4 0 0 0-2.5 4.2 9 9 0 0 0 .6 5.1l-.3.1a8.9 8.9 0 0 1 1-10.7c1.3-1.5 3-2.5 4.8-3.3a13 13 0 0 1 2.8-.9c1-.2 1.9-.4 3-.4l-.1 3.1z"/>
      </g>
      <path class="secondary" d="M583.5 194.8s7.4 4.5 4.1 10.6c-3.4 6.1-6.9 4.8-6.9 4.8s-2.1-1.2-4.6-1.4c-6.4-.5-9 3.8-9.3 7.9-.2 1.9.6 2.9.3 3.6-.5 1.6-8.2-5.5-3.2-17.1 5.7-12.7 19.6-8.4 19.6-8.4z"/>
      <g stroke="none" fill="#000">
        <path d="M582 207.9c-.5-.4-1.3-.9-2-1.2-.7-.4-1.5-.7-2.3-.9a10.3 10.3 0 0 0-7.3.3c-.7.4-1.4.9-2 1.5a8.6 8.6 0 0 0-2.2 4.6h-.3c0-1.8.6-3.7 1.7-5.3a8.3 8.3 0 0 1 4.8-3.2c1.9-.5 3.9-.5 5.8-.2a23 23 0 0 1 5.6 1.9l-1.8 2.5z"/>
      </g>
      <path class="secondary" d="M687.1 213.1s-5.2-8.4 4.8-15.2c.8-1.2-.3-5.7-7.4-5.6-4.2-.4-5.8 3.7-5.8 3.7s-4.3-2.4-7.9.3c-1.4 1.1-3.7 2.9-6.2 3.1-9.1.6-5.9 1.4-8.6-.7-.9-1.8 12.3-24.2 12.3-24.2l11.3-17.5c2.9-4.1 11.3-16.4 14.5-20.6 3.2-4.2 9.8-18.6 15-19.5 1.6-.3 3.2-.3 4.6-1.1 1-.6 1.8-1.6 2.5-2.6 4.3-6.4-3.1-11.9 4.1-31.4a8.6 8.6 0 0 1-1.9 3.1c-1.6 1.5-4.7-28-6.8-28.4-2.1-.4-4-2.4-3.7-4.5.1-.9.6-2-.1-2.7-.6-.5-1.5-.2-2.2-.2-2.1.3-4.2-1.2-5.4-3-1.2-1.8-1.7 6.1-2.4 4-.2-.8-.6-1.6-1.3-2-1.7-1-3.5 1.3-5.4 1.6-1.7.3-2.2-5.1-3.2-6.5-1-1.3-2.9 22.4-4.2 21.4-1.4-1-7.6-12-7.6-12.1 2.3 7.6 12.7 28.4 15.2 35.7 2.7 8.1-10.2 28-17.4 42.7-.4.8-.6 2.1-2.4 5.5-2.9 1.7-6.7 10.1-6 11.6-2.3.9-6.5 8-5.8 11.6-2.2 1.7-6.9 7.8-7.2 10.7-2.7 1.5-6.9 9.2-5.7 11.8-.8 1.3-2.5 1.8-4.8 5.3-2 2.9-14.3 6.8-15.3 6.9-8.2 1.5-13.5-4-20.5-3.5-2.3.2-4.9 1.5-5.5 2.1-4.5 3.6-10.5 1.6-11.4-.2-2.1-4.7-5.9-4.5-9.8-3.6-4.1 1.3-4.9 4.8-4.9 4.8s4.8-.5 5.4 8c.1 1.1.2 2.2-.1 3.3-.2.9-1.5 3.5-1.4 4.3.4 2.1 3 4 6.9 2.9 2.7-.7 4.2-3.5 4.8-5 3.7.6 7.2 1.1 10.7-.8 1.1-.6 2.2-1.5 3.5-1.4 1.3.1 2.4 1.1 3.6 1.7 1.7.7 3.6.5 5.4.2-3.2 1.8-8.1 4-12.7 4.1-3.3.1-6.1.1-8.6 1.6-3 1.8-3.9 3.6-6 6-.5-1-2.3-2-3.4-2.3-1.2-.3-2.5-.2-3.7-.1-3.9.4-10.4 5.4-7.9 10.2.3.6.4.5.9.4 3.3-1.4 9.8 3.7 10 11.1 0 .9 1 2.8 1.8 3.2 2.1 1.1 6.6.9 9.6-2.3 3-3.1 1.6-5.9 1.4-7 2.4-1.7 3.7-5.1 6-7 3.3-2.8 8.2-2.3 12.5-2.8 4.8-.6 9.2-2.4 12.8-5.6-1.5 3.9-3.5 6.8-7.9 7.8-2.5.6-5.3 1.7-6.9 4.5-.5 1-1.8 2.7-2.4 4.5l-1.3 4s-3.1-1.8-7.3.3c-5.4 2.7-6.8 9-4.6 12.5 0 0 1.3 1.2 1.9 1.5 4.3-4.8 14.7.6 15.2 5.1.7 1.3 3.7 2.8 7.8-.4a8.2 8.2 0 0 0 2.5-7.8c-.6-3.5-2.1-2-2.3-5.2-.2-3.2 4.5-4.2 6.3-5.3 2.6-1.7 4.5-3.6 5.8-6.2 1.8-3.5 3.6-9.3 3.6-9.3s2.8-10.4 8.7-11.2h.6c7-.1 11.5 3.7 17.3 3.6 5.5-1.3 4.3-4.2 10.2-4.8 2.3.4 1.2 6.2 7.5 6.1 5.4.1 6.3-3.2 6.3-3.2z"/>
      <path stroke-linejoin="round" d="M727.7 59.8c-4.4 13.4-4.9 16.5-5.4 19.1-.4 1.8-1.3 5.5-2.6 6.8-2.6 2.6-9.2-2.6-9.8-5.2-.3-1.6 0-3.5-1.6-4.5-1.3-.8-7 9.4-8.5 9.1-2.3-.4-4.9-1.8-7-2.7-1.1-.4-2.2-.8-3.3-1-3.7-.7-2.7-3.6-5.1-7.1-4.5-6.9-6.4-13.4-9.1-21-2.3-6.6-5.1-11.9-7.4-18.5a33 33 0 0 1-2.5-11.6l30.3-2.6c7.6-.7 15.4-1.3 22.9-.1 3.5.6 6.8 1.5 10.1 2.7 2.5.9 4.9 2 7 3.6 5.7 4.5 7.5 12.1 9 19.2"/>
      <path class="secondary" stroke-linejoin="round" d="m639.3-331 19.3-13.2-17.3-22-26.9-3.6c-9 0-17.3 8.3-17.3 8.3-14 6.5-41 22.7-48.7 32.7-1.5 1.9-2.1 4.3-2.7 6.6 2.8-2.3 6.3-5 16.2-8.8 4.9 4.1 10.6 3.2 17.8 2.2 4.4-.6 9.8-.5 14.2-1.5 17.9-4.1 29 3 44-.1"/>
      <path fill="none" d="M561.9-331c19-7.5 21.5-7.4 35.7-10 6.9-1.2 12.2-2.1 18.8-4.5"/>
      <g stroke="none" fill="#000">
        <path d="M634.1 208.3a23 23 0 0 0-3.5 4.7l-1.5 2.5-.8 1.3c-.3.4-.5.9-1.1 1.4l-1.8-2.4.9-.7 1-1 2.1-2.1c1.5-1.4 3-2.7 4.7-3.7zm43.9-2.1a17.1 17.1 0 0 1-.7-10.7l2.8 1a16.8 16.8 0 0 0-1.8 9.6l-.3.1zm-89.8 18.4c-1.1-1.7-2.2-3.4-3.4-4.9l2.7-1.3c.5 2.1.6 4.1.9 6l-.2.2zm25.2-18.8 3.9-.9 2-.5 1-.2.9-.3c1.2-.5 2.2-1.4 3.5-2.2a6.3 6.3 0 0 1 4.2-1v.3c-1.4.2-2.5.8-3.5 1.7-1 .8-2 1.9-3.3 2.7a36 36 0 0 1-3.8 2.1c-1.3.6-2.7 1.1-4.2 1.3l-.7-3zm-22.6-13.5a10.5 10.5 0 0 1 .6 4.8c-.1 1.6-.5 3.1-1.2 4.5l-.3-.1c.2-1.4.1-2.9-.2-4.3-.1-.7-.4-1.3-.6-1.9l-1-1.7 2.7-1.3zm64.2 7.3-.9-2.1c-.2-.7-.2-1.4-.2-2.1.1-1.4.4-2.6 1-3.7l.3.1a7.6 7.6 0 0 0 1.1 4.8l1 1-2.3 2zm24.4-60.3a14 14 0 0 0-4-1.1 15 15 0 0 0-2-.2h-1.3c-.1 0 0 0 0 0h.1l.3-.1-1.7-2.5.5-.2.3-.1h.6l.7.1 1.1.4 2 .9a15 15 0 0 1 3.6 2.4l-.2.4zm-7.1 11.3a12.2 12.2 0 0 0-3.4-1.1l-1.7-.1-.8.1-.4.1-.2.1h-.5l.2-3h-.2.5l.6.1a12.6 12.6 0 0 1 5.9 3.5v.3zm-5.9 11.7c-1.2-.4-2.3-.9-3.5-1.1l-1.6-.2c-.5 0-.9.1-1.1.3l-1-2.8a5 5 0 0 1 2.5.2c.7.3 1.3.6 1.8 1 1.1.7 2 1.6 2.9 2.4v.2zm-7.2 10.8a7.8 7.8 0 0 0-3.2-1.5c-.6-.1-1.1-.2-1.6-.1-.5 0-.9.2-1.1.4l-1.2-2.7c1-.3 1.9-.2 2.6 0 .7.2 1.4.5 2 .9 1.2.7 2.2 1.7 2.8 2.8l-.3.2zm-5.6 12.2c-1-.8-2.2-1.2-3.3-1.4l-1.8-.2c-.5 0-1.2 0-1.3.2l-.6-2.9c1.1 0 1.7.2 2.4.5l1.9 1c1.2.7 2.3 1.6 2.9 2.8h-.2zm-45.3 51.1c1.2.9 2.4 1.9 3.4 3s1.9 2.3 2.5 3.6l-.3.2a16 16 0 0 0-7-4.1l1.4-2.7z"/>
      </g>
      <path class="secondary" d="M817.8 234s-8.7.6-8.5 7.6c.2 7 4.4 7.7 4.4 7.7s2.4-.1 4.7.9c5.9 2.5 5.7 7.2 4.1 11-.7 1.7-1.9 2.3-1.9 3-.3 1.6 9.8-1.1 10.7-13.7.9-13.9-13.5-16.5-13.5-16.5zm-84.4 48.6s8.1-3.2 10.9 3.2c2.8 6.4-.7 8.8-.7 8.8s-2.2.9-3.9 2.8c-4.2 4.8-2.1 8.9 1 11.7 1.4 1.3 2.7 1.3 3 1.9 1 1.3-9.3 3.2-15.5-7.9-6.7-12 5.2-20.5 5.2-20.5zM708.7 261s8.7-.1 9.1 6.8c.4 7-3.7 8-3.7 8s-2.4.1-4.6 1.3c-5.7 3-5.1 7.6-3.2 11.3.8 1.7 2 2.2 2.2 2.9.5 1.6-9.8-.3-11.8-12.8-2.1-13.7 12-17.5 12-17.5z"/>
      <g stroke="none" fill="#000">
        <path d="M812.7 243.3c1.1-.1 2 0 3 .2l2.8.7c1.8.6 3.6 1.5 5 2.9a13 13 0 0 1 1.8 2.3c.5.9.8 1.8.9 2.7.3 1.9-.1 3.8-.9 5.5l-.3-.1a8.1 8.1 0 0 0-.9-7.4 6.9 6.9 0 0 0-1.7-1.7c-1.3-1-2.9-1.6-4.6-1.9-.8-.2-1.7-.3-2.5-.3l-2.4.1-.2-3zm-69.8 48.4c-.6.2-1.5.5-2.2.9-.7.4-1.5.8-2.1 1.3-1.4 1-2.5 2.2-3.3 3.7-.4.7-.7 1.5-.8 2.3v2.5a8.6 8.6 0 0 0 2.4 4.6l-.2.2a8.8 8.8 0 0 1-3.4-7.5c.1-1 .3-1.9.6-2.9a14.2 14.2 0 0 1 5.6-6.6c.8-.6 1.6-1 2.7-1.5l.7 3zm-28.5-18.8H712l-2.5.5c-1.6.5-3.1 1.2-4.4 2.3a7.4 7.4 0 0 0-2.5 4.2 9 9 0 0 0 .6 5.1l-.3.1a8.9 8.9 0 0 1 1-10.7c1.3-1.5 3-2.5 4.8-3.3a13 13 0 0 1 2.8-.9c1-.2 1.9-.4 3-.4l-.1 3.1z"/>
      </g>
      <path class="secondary" d="M713.4 232.1s7.4 4.5 4.1 10.6c-3.4 6.1-6.9 4.8-6.9 4.8s-2.1-1.2-4.6-1.4c-6.4-.5-9 3.8-9.3 7.9-.2 1.9.6 2.9.3 3.6-.5 1.6-8.2-5.5-3.2-17.1 5.6-12.7 19.6-8.4 19.6-8.4z"/>
      <g stroke="none" fill="#000">
        <path d="M711.9 245.1c-.5-.4-1.3-.9-2-1.2-.7-.4-1.5-.7-2.3-.9a10.3 10.3 0 0 0-7.3.3c-.7.4-1.4.9-2 1.5a8.6 8.6 0 0 0-2.2 4.6h-.3c0-1.8.6-3.7 1.7-5.3a8.3 8.3 0 0 1 4.8-3.2c1.9-.5 3.9-.5 5.8-.2a23 23 0 0 1 5.6 1.9l-1.8 2.5z"/>
      </g>
      <path class="secondary" d="M817 250.3s-5.2-8.4 4.8-15.2c.8-1.2-.3-5.7-7.4-5.6-4.2-.4-5.8 3.7-5.8 3.7s-4.3-2.4-7.9.3c-1.4 1.1-3.7 2.9-6.2 3.1-9.1.6-12.7-2.9-15.9-3.9-1.5-1.3 2.3-27.7 2.3-27.7l2.2-21.4c1.3-4.9 3.9-25.1 5.4-29.9 1.4-4.8 6.7-34.7 10.9-37.8 1.3-.9 2.8-1.7 3.6-3 .7-1 .9-2.2 1.1-3.4 1.1-7.6-5.1-6.5-7-22.3.1 1.3-1.7-2.4-2.1-1.4-.8 2-3.4 3.8-5.4 4.4-2.1.6-4.6-10.4-5.3-12.4-.3-.9-.4 7.9-1.3 7.7-.7-.2-1.4.4-2.1.8-1.8 1.2-4.3 10.8-6.1 9.7-1.9-1.1-3.3-2.8-4.8-4.3-.6-.6-1.2-1.2-2-1.2-1.9-.1-2.5 2.5-4.1 3.7-.5.4-1.1-1.5-1.7-1.5-8.2-.6.7-10.3-1.5-10.7-1.7-.3-9.1-14.1-9.3-12.4 0 .4 0 .8-.2 1.1-.5.9-3.3 5.2-4.2 4.6-4-2.4-.3 4.1 4.4 9.4 0 0 12.4 10.5 19.4 18.1a7.7 7.7 0 0 1 2 6.6c-1.3 7.6-3.1 38.5-4.2 51.1 0 .9.2 2.2-.2 6-2.1 2.7-2 12.5-.8 13.7-1.8 1.7-3 9.6-1 12.7a29.6 29.6 0 0 0-1.9 14.2c-2 2.4-2.6 11.8-.6 13.8-.3 1.5-1.7 2.5-2.6 6.7-.8 3.4-4 4.2-5 4.4-8.2 1.5-13.5-4-20.5-3.5-2.3.2-4.9 1.5-5.5 2.1-4.5 3.6-10.5 1.6-11.4-.2-2.1-4.7-5.9-4.5-9.8-3.6-4.1 1.3-4.9 4.8-4.9 4.8s4.8-.5 5.4 8c.1 1.1.2 2.2-.1 3.3-.2.9-1.5 3.5-1.4 4.3.4 2.1 3 4 6.9 2.9 2.7-.7 4.2-3.5 4.8-5 3.7.6 7.2 1.1 10.7-.8 1.1-.6 2.2-1.5 3.5-1.4 1.3.1 2.4 1.1 3.6 1.7 1.7.7 3.6.5 5.4.2-3.2 1.8-8.1 4-12.7 4.1-3.3.1-6.1.1-8.6 1.6-3 1.8-3.9 3.6-6 6-.5-1-2.3-2-3.4-2.3-1.2-.3-2.5-.2-3.7-.1-3.9.4-10.4 5.4-7.9 10.2.3.6.4.5.9.4 3.3-1.4 9.8 3.7 10 11.1 0 .9 1 2.8 1.8 3.2 2.1 1.1 6.6.9 9.6-2.3 3-3.1 1.6-5.9 1.4-7 2.4-1.7 3.7-5.1 6-7 3.3-2.8 8.2-2.3 12.5-2.8 4.8-.6 9.2-2.4 12.8-5.6-1.5 3.9-3.5 6.8-7.9 7.8-2.5.6-5.3 1.7-6.9 4.5-.5 1-1.8 2.7-2.4 4.5l-1.3 4s-3.1-1.8-7.3.3c-5.4 2.7-6.8 9-4.6 12.5 0 0 1.3 1.2 1.9 1.5 4.3-4.8 14.7.6 15.2 5.1.7 1.3 3.7 2.8 7.8-.4a8.2 8.2 0 0 0 2.5-7.8c-.6-3.5-2.1-2-2.3-5.2-.2-3.2 4.5-4.2 6.3-5.3 2.6-1.7 4.5-3.6 5.8-6.2 1.8-3.5 3.6-9.3 3.6-9.3s2.8-10.4 8.7-11.2h.6c7-.1 11.5 3.7 17.3 3.6 5.5-1.3 4.3-4.2 10.2-4.8 2.3.4 1.2 6.2 7.5 6.1 5.5-.3 6.4-3.7 6.4-3.7z"/>
      <path stroke-linejoin="round" d="M648-264.1c13.3-15.5 25-32 25-42.5 0-8.9-1.5-17.1-10.5-20.7-7.8 1.5-17.7.6-24.8-3.1-.1-3.2-2.1-6.1-4.6-8.1a33.3 33.3 0 0 0-8.7-4.2l-8.1-2.8c5.6-12.5 2.9-20.5-2-25.1a46.7 46.7 0 0 1 38.6-18.7c18.3 2.2 26.3 3.8 38.1 9.7 10.3 5.7 19.7 13.1 22.6 25.9 10.9 13.1 8.7 29.9 4.7 50.4-2.9 15-9.5 22.5-20 41.7-11.2 20.6-28.7 47.6-37.4 65.6a46.5 46.5 0 0 0-1.2 40.3c5.2 9.6 9.1 17.4 28.7 22.6 8.8 2.3 38.6 4.6 78.6 20.9 51.4 21 98.1 67.8 113.4 106.4 2.7 6.9-4.8 14.3-11.1 18.1a88 88 0 0 1-21.1 8.5c-5.3 1.5-16.1 6-16.1 6 7.7 3.4 12.4 12 7.5 15.2-6.4 4.3-19.7 3.8-31.1 2.8-7.6-.7-17.7-2.1-17.7-2.1s3 15.1 3.4 20.3c1.3 14.1 2.2 17 2.7 19.7.4 1.8 1 5.6.3 7.3-1.3 3.5-9.5 1.4-11-.9-.9-1.3-1.4-3.2-3.3-3.5-1.5-.2-2.7 11.4-4.1 11.8-2.3.6-5.2.3-7.5.4-1.2.1-2.3.1-3.4.4-3.7.8-4-2.2-7.5-4.4-6.9-4.6-11.3-9.7-16.8-15.6-13.4-14.4-25.5-23.8-31.1-30.6C677 42.1 597.9 11.3 561-25.6a97.5 97.5 0 0 1-28.5-86.7c5.3-27.4 22.7-39.9 23.3-40.5a57.7 57.7 0 0 1 19.9-46.9c12.2-11.8 53.2-42.1 72.3-64.4z"/>
      <path class="tertiary" stroke-linejoin="round" d="M690.5-348.7c-.9-.8-2.2-.7-3.4-.6-7 .3-13.2-4.3-20-6.1-4.7-1.2-9.8-1-14.2-3-.6-.3-1.2-.6-1.5-1.2-.2-.5-.2-1-.1-1.5.8-4.4 5.4-7 8.1-10.6 3.9-5.2 2.4-12.4-2-16.9l-4.3-.6c-8.9-1.1-21 1.7-28.3 6.2-5.8 3.5-7.6 8.1-10.3 12.5 5.6 7.5 4.3 16.6 2 25.1l8.1 2.8c3 1.1 6.1 2.2 8.7 4.2 2.6 1.9 4.6 4.9 4.6 8.1a41.3 41.3 0 0 0 24.8 3.1c3.3 1.3 6 3.2 8.1 5.6 4.6 0 8.8-.5 12.2-4 1.7-1.8 3.2-3.8 4.4-5.9l3.4-9.2c.3-1.7.5-3.4.5-5.2-.1-1-.1-2.1-.8-2.8z"/>
      <g stroke="none" fill="#000">
        <path d="M764 245.5a23 23 0 0 0-3.5 4.7l-1.5 2.5-.8 1.3c-.3.4-.5.9-1.1 1.4l-1.8-2.4.9-.7 1-1 2.1-2.1c1.5-1.3 3-2.7 4.7-3.7zm43.9-2a17.1 17.1 0 0 1-.7-10.7l2.8 1a16.8 16.8 0 0 0-1.8 9.6l-.3.1zm-89.8 18.3c-1.1-1.7-2.2-3.4-3.4-4.9l2.7-1.3c.5 2.1.6 4.1.9 6l-.2.2zm25.1-18.8 3.9-.9 2-.5 1-.2.9-.3c1.2-.5 2.2-1.4 3.5-2.2a6.3 6.3 0 0 1 4.2-1v.3c-1.4.2-2.5.8-3.5 1.7-1 .8-2 1.9-3.3 2.7a36 36 0 0 1-3.8 2.1c-1.3.6-2.7 1.1-4.2 1.3l-.7-3zm-22.6-13.5a10.5 10.5 0 0 1 .6 4.8c-.1 1.6-.5 3.1-1.2 4.5l-.3-.1c.2-1.4.1-2.9-.2-4.3-.1-.7-.4-1.3-.6-1.9l-1-1.7 2.7-1.3zM778 234c-.6-.5-1.2-1-1.6-1.6-.4-.6-.7-1.2-.9-1.9a10 10 0 0 1-.4-3.8h.3c.3 1.1.9 2.2 1.6 3.1.3.4.7.8 1.2 1.1.4.3.9.4 1.3.6L778 234zm-1.1-68a14 14 0 0 0-4.1.4l-2 .5-.9.3-.3.2c-.1 0 0 0 0 .1l.1-.1.2-.2-2.5-1.7.4-.4.2-.2.1-.1.5-.2.7-.1h1.2l2.2.2c1.5.2 2.9.4 4.3 1l-.1.3zm-2.1 13.9H773a8.8 8.8 0 0 0-3.3.7l-.7.4-.3.2-.1.1-.1.1-.3.2-.9-2.9c-.4.1-.2.1-.1.1l.1-.1.3-.1.6-.1 1.1-.1a12.7 12.7 0 0 1 5.7 1.2l-.2.3zm-1.1 12.8c-1.2 0-2.5 0-3.6.2l-1.6.4c-.5.2-.8.5-.9.7l-2-2.3c.8-.5 1.7-.7 2.4-.7l2.1.3c1.3.3 2.4.8 3.6 1.2v.2zm-1.9 14.3a7 7 0 0 0-3.5-.2c-.6.1-1.1.2-1.6.5-.5.2-.8.5-.9.7l-2.1-2.1c.9-.7 1.7-.8 2.5-.9a7 7 0 0 1 2.1.1 9 9 0 0 1 3.6 1.6l-.1.3zm-.3 14.1c-1.2-.4-2.4-.3-3.6-.2l-1.7.4c-.5.2-1.1.5-1.2.7l-1.6-2.5c1-.4 1.7-.4 2.5-.4l2.1.2c1.3.3 2.7.7 3.7 1.5l-.2.3zm-33.3 52.5c1.2.9 2.4 1.9 3.4 3s1.9 2.3 2.5 3.6l-.3.2a16 16 0 0 0-7-4.1l1.4-2.7zM711.3 48.4a38.8 38.8 0 0 0-3.9-4.2c-1.4-1.4-2.8-2.7-4.2-4.3a20 20 0 0 1-3.5-5.1c-.8-1.9-1.2-4-.9-6a18.6 18.6 0 0 0 5.9 9.7l4.5 3.8c1.5 1.3 3 2.7 4.4 4.3l-2.3 1.8z"/>
      </g>
      <path fill="none" d="M634.6-118.8c-9 2.6-15.2 5.2-22.2 10.2-2.6 1.9-5.2 3.8-7.3 6.3-12 14-11.2 37.5-6.2 53.9A72.2 72.2 0 0 0 626-10.3"/>
      <g stroke="none" fill="#000">
        <path d="M701.6-66.4a6.4 6.4 0 0 1 1.3 4 10.4 10.4 0 0 1-3.2 7.7 7.6 7.6 0 0 1-3.8 1.9l1.9-3.3a23 23 0 0 0 1.5-3.2l1.2-3.3a21 21 0 0 0 1.1-3.8zm-17.9 8.2c1 .6 1.6 1.5 1.9 2.5.3 1 .4 2.1.1 3.2a5.4 5.4 0 0 1-1.5 2.9c-.7.8-1.7 1.4-2.8 1.5l.8-2.7.6-2.3.5-2.3.4-2.8zm-15 22.4c.8 1.2.8 2.9.2 4.3a6.7 6.7 0 0 1-2.8 3.4 9.9 9.9 0 0 1-8 1.3c1.1-.9 2.3-1.5 3.4-2.1l3-1.7a12 12 0 0 0 2.4-2.1c.7-.8 1.4-1.7 1.8-3.1zM663.5-65a9 9 0 0 1-2.7 5.2 13.8 13.8 0 0 1-5 3.2 20.9 20.9 0 0 1-11.3.6c1.8-.8 3.6-1.3 5.3-1.8l5-1.6c1.6-.6 3.1-1.3 4.6-2.2 1.4-.9 2.7-2 4.1-3.4zM832.7 1.3c1.4-.3 2.6-.3 3.8-.4l3.3-.2c1-.1 2-.4 3-.8s1.9-.9 2.9-2c.3 1.4-.5 2.9-1.5 3.9a7.5 7.5 0 0 1-3.9 1.9c-1.4.2-2.8 0-4.1-.4-1.3-.5-2.4-1.1-3.5-2zm20.5-8.6c1.3-.3 2.6-.4 3.4-.8.4-.2.6-.4.8-.7l.3-1a57.1 57.1 0 0 1 2-7.1c.7 1.2 1 2.5 1.1 3.8.1 1.3.1 2.6-.2 3.9-.2.7-.5 1.6-1.2 2.3a4 4 0 0 1-2.4 1.1c-1.6 0-2.8-.6-3.8-1.5zm-18.9-8.2c1.2-.3 2.3-.4 3.2-.5l2.7-.3c.7-.2 1.5-.4 2.2-.8.7-.4 1.5-.9 2.1-1.9.7 1.1.3 2.6-.5 3.6-.8 1.1-2 1.8-3.3 2.1-1.3.3-2.5.1-3.6-.3-1-.4-1.9-1-2.8-1.9zm4.2-12.5 3.3-3.7 1.5-1.7 1.8-2c.5.9.5 2 .3 3s-.7 1.9-1.4 2.7c-.7.8-1.5 1.3-2.5 1.7-.9.3-2 .4-3 0zm-13.4-10.3 1.6-.9 1.2-.5 1.2-.3 1.8-.2c.2.8-.1 1.5-.5 2.1-.4.6-1 1-1.7 1.2-.7.2-1.4.2-2.1 0-.6-.1-1.2-.6-1.5-1.4zm-6.5 20a3 3 0 0 1 1.2-1.1l1.2-.3c.4 0 .8.1 1.2.4.4.2.8.6 1.1 1.2a3 3 0 0 1-1.2 1.1l-1.2.3a2 2 0 0 1-1.2-.4c-.4-.3-.7-.6-1.1-1.2z"/>
      </g>
      <path fill="none" d="M626-10.3c20.4 14 34.9 20 49.6 22.1"/>
      <path class="tertiary" stroke-linejoin="round" d="M790.7 42.7s10.1 1.4 17.7 2.1c11.3 1 24.6 1.5 31.1-2.8 4.8-3.2.2-11.8-7.5-15.2 0 0-3.2-5.4-9.3-7.9 7.7-7.1 1.2-21.6-6.9-21.3-.3-4.3-5.4-7.7-8.9-8.8 4.6-2.5 7.1-10.7-.5-15.9 0 0 1.3-5.9-9.1-10.2 4.2-4.6-.3-10.9-.3-10.9 2.2-5.9-3.8-13-9.1-14.1a55.2 55.2 0 0 0-34-13.9 39 39 0 0 1-10.9-3.3c0 2.6-1.3 11.5-2.5 13.9-2.2 4.3-5 9.2-9.7 8.4a19.2 19.2 0 0 1-17.6 16.6c-.6 0-2.5 2.6-3.3 3-1.8.9-3.9 1-5.7 2a8.6 8.6 0 0 0-4.2 5c-.7 2.4.1 5.1-.6 7.5-.8 3.1-3.6 4.3-5.1 6.8-1.5 2.5-1.4 5.5-3.3 7.8-1.3 1.5-3 2.6-4.1 4.3-1.2 1.7-1.5 3.8-2.2 5.8a18.6 18.6 0 0 1-8.9 10.2c27.5 11.5 96.1 28 114.9 30.9z"/>
      <path fill="none" d="M730.1-54.4s24.5.9 38 9.3a83.6 83.6 0 0 1 29.1 7.6m-90.5 1.1c15 .5 37 7.3 51.6 14.9 20-.7 38.9 5.4 48.5 10.2m-113.1-4s41.8 4.5 68.4 20c19.2-.5 49.9 7.4 60.5 14.1"/>
      <g stroke="none" fill="#000">
        <path d="M698.1-296.6c.4.2.5.7.4 1.2-.1.4-.3.8-.6 1.1-.3.3-.5.5-.8.6a3 3 0 0 1-.8.4l-1.8.3c-.6 0-1.3-.2-1.9-.6l1.4-1.3a9.1 9.1 0 0 1 2.1-.9l.7-.1.7-.1c.1-.2.4-.2.6-.6zm-2.7 15.5c.4.3.5.9.4 1.4-.1.5-.3 1-.6 1.3-.6.7-1.5 1.2-2.2 1.5-.8.3-1.6.4-2.4.4-.8 0-1.7-.2-2.4-.8l2.1-1.2 1.9-.8 1.8-.6c.5-.3 1-.4 1.4-1.2zm-6.1 15.3c-.4.7-.9 1.1-1.5 1.4a4 4 0 0 1-1.8.5c-.6.1-1.3 0-1.9-.2-.6-.2-1.2-.5-1.7-1.1l1.7-.9c.5-.2 1.1-.3 1.6-.3h1.6c.7.1 1.3.3 2 .6zm-10 11.2c-.2.7-.6 1.2-1 1.6-.5.4-1 .6-1.6.8h-1.8a3 3 0 0 1-1.6-1.1l1.5-.9 1.3-.4 1.4-.1c.6-.1 1.1-.1 1.8.1zm-8.2 10.9c.2.6.1 1.1-.1 1.6-.2.4-.6.8-1 1-.4.2-.9.3-1.4.2-.5-.1-1-.3-1.3-.8l.9-1.1.7-.5.8-.3 1.4-.1zm-7.4 11.5c0 .7-.2 1.2-.5 1.7-.3.4-.6.8-1.1 1.1-.4.3-.9.4-1.4.5-.5 0-1.1 0-1.7-.3a3 3 0 0 1 .8-1.4l1-.9 1.2-.5c.5-.2 1-.3 1.7-.2zm-26 56.8c.4.7.5 1.4.4 2a4 4 0 0 1-2.4 3c-.6.2-1.3.3-2 .1l.8-1.6.8-1.2 1-1.1 1.4-1.2zm3.7 10.8-.4 1.3-.4.7-.6.4-1.2.5c-.4-.5-.5-1-.5-1.4 0-.5.2-.9.6-1.2.3-.3.7-.6 1.2-.6.3-.2.8-.1 1.3.3zm4.7 6.9c.1 1.2 0 2.2 0 3.2l-.3 3-.4 3-.7 3.2c-.7-1-1.1-2-1.3-3.1-.2-1.1-.2-2.2-.1-3.3a9 9 0 0 1 .9-3.2c.4-1.1 1-2 1.9-2.8zM686-1.9c10.6 3.2 21.1 6.6 31.6 9.9a686.1 686.1 0 0 0 63.8 17.9c10.8 2.4 21.6 4.4 32.6 5.7-11-1-21.9-2.8-32.8-5a603.9 603.9 0 0 1-32.3-7.5c-10.7-2.8-21.3-5.8-32-8.9-10.6-3.1-21.2-6.3-31.8-9.2l.9-2.9zm13.7-25.8 24.3 7.6a981.6 981.6 0 0 0 49 13.8c8.3 1.9 16.6 3.6 25 4.6-8.5-.8-16.9-2.2-25.2-3.9A987 987 0 0 1 723.3-18l-24.5-6.9.9-2.8zm24.4-19.1c11 3.5 22.1 6.9 33.2 10.2 5.6 1.6 11.1 3.2 16.7 4.6a160 160 0 0 0 17 3.5c-5.8-.5-11.5-1.6-17.1-2.8L757-35.1c-11.3-2.7-22.5-5.7-33.6-8.7l.7-3zM741-66.4c6.8 2.2 13.2 4.9 19.9 7.1 6.6 2.2 13.4 4 20.4 5-7-.5-14-1.7-20.8-3.5-6.8-1.8-13.5-4-20.3-5.7l.8-2.9zm-107-53.8c.8-.2 1.5-.6 2.1-1.2a4 4 0 0 0 1-2.5c.1-.9-.2-2-.7-2.8a6.1 6.1 0 0 0-2.3-2.2c1 .4 2.1.9 2.9 1.8a6.1 6.1 0 0 1-2 9.8l-1-2.9zm-76.8-33c0 3.4-.5 6.8-1.3 10s-1.9 6.4-3.1 9.4c1.5-6.4 2.4-13 1.4-19.2l3-.2zm233.5 254.9-1.3 2.6-.9 2.4-.7 2.4-.6 2.8a4.6 4.6 0 0 1-1.3-2.9c-.1-1.1 0-2.2.3-3.2.4-1 .9-2 1.7-2.7.8-.7 1.7-1.2 2.8-1.4zm-81.4.9-2.1 1.1-1.8 1-1.7 1.2-1.9 1.5c-.2-.9 0-1.9.4-2.7.4-.8 1.1-1.5 1.9-2a5 5 0 0 1 2.6-.8c.9-.1 1.9.1 2.6.7zm-150.6-157 2.1 2.9 1.8 2.7 1.8 2.7 1.8 3a7.2 7.2 0 0 1-3.5-1.4c-1-.7-1.9-1.7-2.6-2.7-.7-1-1.2-2.2-1.4-3.5a5.9 5.9 0 0 1 0-3.7zm12.9 20.1 3 2.4 2.8 2.1 2.9 2 3.2 2.1c-1.4.5-2.8.4-4.1.1-1.4-.3-2.6-.9-3.8-1.7a10 10 0 0 1-2.8-3 8.1 8.1 0 0 1-1.2-4zM553.8-63a7 7 0 0 1-2.3-2.5 9 9 0 0 1 0-9.5c.6 1.1.8 2.1 1.1 3.1l.6 2.8.4 2.9c.2 1 .3 2 .2 3.2zm188.6-15.2c-5.3-2-10.1-5.1-14.5-8.4a99.4 99.4 0 0 0-13.8-8.5c-4.9-2.3-9.9-4.4-15.1-6a54.7 54.7 0 0 0-16.1-2.5c5.5-.8 11.1-.2 16.4 1.1a102.6 102.6 0 0 1 23.1 9.1c2.4 1.4 4.7 3 7 4.5l6.8 4.4c2.3 1.3 4.7 2.5 7.2 3.4l-1 2.9zm-63.1-296.7a5 5 0 0 1 2.7 0c.9.2 1.7.6 2.4 1.1.7.5 1.4 1.2 1.9 1.9.5.8.9 1.6.9 2.6l-2.3-1.2-1.9-1.3-1.8-1.4c-.6-.5-1.3-1-1.9-1.7zm10.2 11.4c.6.6 1 1.2 1.3 1.9.3.7.4 1.4.5 2.1 0 .7 0 1.4-.2 2.1-.2.7-.5 1.4-1.1 2-.5-.7-.7-1.4-.9-2l-.3-1.9.1-2c.1-.7.2-1.4.6-2.2z"/>
      </g>
      <path fill="#F6F6F6" stroke-linejoin="round" d="M638.5-374.3c5.9.1 8.2 6.2 6.7 10.7-1.5 4.5-7.2 6.5-10.8 5.3-5.9-2-7.7-6.7-6.2-11.2 1.2-3.6 4.4-5 10.3-4.8z"/>
      <g stroke="none" fill="#000">
        <path d="M635.7-374.1c1.6-.1 1.2 2.1 1.5 5.6.2 3.5-1.1 5.9-2.9 5.3-1.8-.6-2.6-2.8-2.8-5.8-.2-3.1 2.6-5 4.2-5.1z"/>
        <path d="M625.8-377.1c.3 1.3 1 2.4 2 2.6 1 .3 2.2.2 3.3 0l1.8-.4 1.9-.5c1.3-.3 2.7-.4 4.1-.4a18.6 18.6 0 0 1 11.6 3.7c1.1.9 2 1.8 2.8 2.9a27.2 27.2 0 0 0-14.4-3.6c-1.2.1-2.5.1-3.7.3l-1.9.3-2.1.2c-1.4 0-3-.1-4.3-1.1a3 3 0 0 1-1.3-1.9 5 5 0 0 1 .2-2.1zm-13.5 18.5-2.5.2c-.8.1-1.4.1-2 .3-.6.1-1.1.3-1.6.6s-1 .9-1.4 1.7c-.6-.8-.7-2-.1-3 .5-1 1.6-1.6 2.6-1.9 1-.2 2-.1 2.9.2.7.5 1.5 1.1 2.1 1.9z"/>
      </g>
    </g>
    <g>
      <g class="secondary">
        <path stroke-linejoin="round" d="M775.2-395.1c0-1.7-4.7-5.1-4.7-5.1l.8-6.6-6.3-2.5s-.1-6.4-1.6-6.6c-3.2-.4-8.6 11.5-10.1 17.3L705-363.7c-.9.7-.4 1.3.2 2.3.7 1.1 1.3 2.1 2.4 1.4l48-34.6c5.7 1.4 19.5 3.5 19.6-.5z"/>
        <g stroke="none" fill="#000">
          <path d="m758.5-399.1 1.2-1.3c.4-.4.9-.6 1.4-.9.5-.2 1-.5 1.6-.6.5-.2 1.1-.3 1.7-.2l-1.2 1.3c-.4.4-.9.6-1.4.9-.5.2-1 .5-1.6.6l-1.7.2z"/>
          <path d="M758.5-399.1c1-.1 2 0 3 .1l2.9.5a22.9 22.9 0 0 1 5.5 2h-3l-2.9-.5-2.8-.8-2.7-1.3z"/>
        </g>
        <path stroke-linejoin="round" d="m779.4-374.7 2.2-6.2-5.6-3.9s1.3-6.3-.1-6.8c-3.4-1.2-11.9 9.5-14.8 14.4l-51 18.5c-.8.3-1.3 1.1-1 2l.4 1.2c.3.8 1.2 1.3 2 1l51.1-18.6c5.7 3.1 19.4 7.5 20.2 4.3.5-1.6-3.4-5.9-3.4-5.9z"/>
        <g stroke="none" fill="#000">
          <path d="M766.6-376.3a60 60 0 0 1 2.7-5.4l1.8-2.4c.6-.8 1.3-1.5 2.2-2.2a60 60 0 0 1-2.7 5.4l-1.8 2.4-2.2 2.2z"/>
          <path d="M766.6-376.3a4 4 0 0 1 1.6-1c.6-.3 1.1-.5 1.7-.6l1.8-.3c.6-.1 1.2-.1 1.9.1a4 4 0 0 1-1.6 1c-.6.3-1.1.5-1.7.6l-1.8.3-1.9-.1z"/>
          <path d="M766.6-376.3c1.1.1 2.1.4 3.2.7l3 1.1 2.9 1.4 2.7 1.8c-1.1-.1-2.1-.4-3.2-.7l-3-1.1-2.9-1.4-2.7-1.8z"/>
        </g>
        <path stroke-linejoin="round" d="m783-348.4 3.6-5.6-4.6-5s2.7-5.8 1.5-6.6c-3.2-2.1-13.8 7.1-17.8 11.2l-51.6 2.7c-.9 0-1.6.8-1.5 1.7l.1 1.3c.1.8.8 1.5 1.6 1.5l51.9-2.7c5 4.3 17.8 10.4 18.9 8.2.7-1.6-2.1-6.7-2.1-6.7z"/>
        <g stroke="none" fill="#000">
          <path d="M770.8-352.8c.5-.9 1.1-1.7 1.8-2.4.6-.8 1.3-1.5 2.1-2.1a21.1 21.1 0 0 1 4.9-3.5c-.5.9-1.1 1.7-1.8 2.4-.6.8-1.3 1.5-2.1 2.1a21.1 21.1 0 0 1-4.9 3.5z"/>
          <path d="m770.8-352.8 1.9-.7a12.3 12.3 0 0 1 3.8-.1c.6.1 1.3.2 1.9.5l-1.9.7-1.9.2-1.9-.1c-.6-.1-1.2-.2-1.9-.5z"/>
          <path d="M770.8-352.8c1.1.4 2 .9 3 1.4.9.5 1.9 1.1 2.7 1.8l2.5 2c.8.7 1.6 1.5 2.3 2.4-1.1-.4-2-.9-3-1.4-.9-.5-1.9-1.1-2.7-1.8l-2.5-2c-.8-.8-1.6-1.5-2.3-2.4z"/>
        </g>
        <path stroke-linejoin="round" d="m778.4-321.7 5.3-4-2.6-6.3s4.5-4.5 3.6-5.7c-2.2-2.9-15.1 1.5-20.3 4.1l-46.9-9.3c-.8-.2-1.7.3-1.9 1.1l-.3 1.2c-.2.9.3 1.7 1.1 2l47 9.3c3.1 5.7 12.3 16.8 14.7 14.5 1.3-1.1.3-6.9.3-6.9z"/>
        <g stroke="none" fill="#000">
          <path d="M768.5-330c.8-.7 1.6-1.2 2.5-1.7a33.2 33.2 0 0 1 8.5-3c-.8.7-1.6 1.2-2.5 1.7a33.2 33.2 0 0 1-5.5 2.3c-1 .3-1.9.6-3 .7z"/>
          <path d="M768.5-330a6 6 0 0 1 1.9 0l1.8.4 1.7.7c.5.3 1.1.6 1.5 1.1a6 6 0 0 1-1.9 0l-1.8-.4-1.7-.7c-.5-.3-1-.6-1.5-1.1z"/>
          <path d="M768.5-330a24.8 24.8 0 0 1 4.2 4.9c.6.9 1.2 1.8 1.6 2.7.5.9 1 1.9 1.3 3a24.8 24.8 0 0 1-5.8-7.6c-.5-1-1-1.9-1.3-3z"/>
        </g>
        <path stroke-linejoin="round" d="m767.2-297.6 6-2.8-1.1-6.7s5.4-3.4 4.8-4.8c-1.6-3.5-15.5-1.5-21-.2l-38.5-21.1c-.8-.5-1.8-.2-2.2.6l-.6 1.1c-.4.7-.2 1.7.6 2.1l38.7 21.2c1.9 6.3 9.4 18.4 11.5 17.2 1.4-.8 1.8-6.6 1.8-6.6z"/>
        <g stroke="none" fill="#000">
          <path d="M759.4-307.9c.9-.5 1.9-.8 2.8-1.1l2.9-.7 2.9-.4c1-.1 2-.1 3 .1-.9.5-1.9.8-2.8 1.1l-2.9.7-2.9.4-3-.1zm0 0a6 6 0 0 1 1.9.5l1.7.8 1.6 1.1c.5.4 1 .9 1.3 1.5a6 6 0 0 1-1.9-.5l-1.7-.8-1.6-1.1-1.3-1.5z"/>
          <path d="M759.4-307.9a38.8 38.8 0 0 1 4 8.9c.3 1 .5 2.1.6 3.2a16 16 0 0 1-1.7-2.8l-1.3-3c-.4-1-.8-2-1-3.1-.3-1-.5-2.1-.6-3.2zm-.9-91.2.3-3 .7-2.9 1-2.8c.4-.9.8-1.8 1.4-2.6l-.3 3-.7 2.9-1 2.8c-.4.9-.8 1.8-1.4 2.6z"/>
        </g>
      </g>
      <g stroke="none" fill="#000">
        <path d="M678.7-339.7c.5.4.6.8.7 1.2 0 .4-.1.8-.4 1.1-.2.3-.6.5-1 .6-.4.1-.9 0-1.4-.4l.2-1.2.2-.6.5-.4 1.2-.3zm-8.3 4.4c.3.7.2 1.4 0 2-.3.6-.7 1.1-1.3 1.5-.6.4-1.2.6-1.9.6s-1.4-.2-1.9-.8l1.4-1.1 1.1-.8 1.1-.6 1.5-.8z"/>
      </g>
    </g>
  </g>
</svg>
