<svg xmlns="http://www.w3.org/2000/svg" fill="#d7374a" stroke="#000" viewBox="50 50 200 200">
  <metadata source="http://wappenwiki.org/images/5/5e/Wied.svg" license="https://creativecommons.org/licenses/by-nc-sa/3.0"/>
  <g id="peacock" stroke-width=".22">
    <g>
      <path fill="#3E933E" stroke-width=".33" d="M96.82 112.55c2.32 1.6 4.46 4.52 4.98 7.3.36-.22.8-.44 1.18-.27.63 1 .88 2.2.7 3.36a10.75 10.75 0 0 0 2.04.33c.42.88.65 1.85.66 2.82.45 0 .96 0 1.28.31.17.18.26.4.35.65l.64 1.74c.36-.32.97-.2 1.33.12.36.32.56.8.76 1.23.24.52.51 1.04.94 1.4.43.36 1.06.56 1.59.36.46 1.72 1.47 2.82 3.25 3.72 1.61.73 3.31-.1 4.1-1.17a5 5 0 0 0 3.72-2.32c.21-.34.41-.72.77-.87.26-.1.55-.06.77-.2.38-.25.36-.8.59-1.18.45-.77 1.8-.7 2.11-1.53.2-.55-.19-1.18-.06-1.75a.56.56 0 0 1 .11-.23c.24-.23.63 0 .95-.09.45-.13.45-.77.39-1.23-.1-.68.04-1.57.7-1.77l-.13-2.23c-.01-.15-.01-.32.1-.41.12-.08.27-.05.4-.09.32-.09.34-.53.25-.85-.1-.3-.27-.65-.13-.94.14-.27.6-.55.66-1.28.11-1.14-.53-1.9-.6-1.99-1.39-1.44-2.73-2.09-4.5-2.05.04-.57-.32-1.1-.8-1.41a3.93 3.93 0 0 0-1.62-.51c-.48-.07-.99-.12-1.4-.37-.43-.26-.71-.8-.51-1.25l-1.85-.1c-.24-.02-.5-.04-.72-.16-.4-.22-.55-.7-.66-1.13-.93.27-1.92.33-2.89.18-.24-.64-.55-1.26-.9-1.86a4.93 4.93 0 0 1-3.41.29c-.28-.32-.19-.8-.09-1.22-.09.37-3.08-.19-3.4-.27a13.12 13.12 0 0 1-3.52-1.38c-.47-.28-.94-.77-1.43-.98-.54-.24-1.36-.02-1.95.02l-4.53.34c-.27.02-.54.05-.8.11a3.96 3.96 0 0 0-.9.42l-1.29.73c-.13.07-.25.14-.35.25-.13.14-.21.33-.28.52l-1.05 2.79c-.17.42-.32.9-.16 1.3a1.87 1.87 0 0 0 .59.7c.5.43 1 1.32 1.5 1.75"/>
      <g>
        <path fill="#F2BC51" d="M116.82 114.52c.27.12.09.57.27.65.08.03.15-.03.34-.08.18-.04.34-.04.4.27l.01.06c.05.2.22.21.39.06l.1-.1c.17-.15.42-.16.55-.02l.1.12c.14.14.3.1.35-.09l.05-.16c.07-.2.26-.27.42-.17l.18.1c.16.09.28.02.26-.15l-.02-.24a.24.24 0 0 1 .04-.17.33.33 0 0 1 .3-.12h.09l.1.02c.1.01.16-.02.2-.06.03-.04.03-.1-.03-.17l-.05-.07-.05-.06c-.06-.1-.05-.19.02-.27.03-.04.1-.07.16-.1l.25-.07c.2-.06.21-.17.05-.26l-.18-.08c-.16-.1-.16-.25 0-.36l.14-.08c.17-.11.15-.22-.04-.27l-.16-.03c-.2-.05-.28-.21-.2-.38l.06-.1c.1-.16 0-.26-.2-.24l-.06.01c-.34.06-.4-.05-.42-.18-.02-.13.02-.2-.04-.24-.15-.1-.54.15-.76.02-.3-.18.66-.17.24-.43-1.22-.77-2.9.02-4.66.14h-.14l.05.08c.4 1.33-.13 3 1.38 3.67.54.19.17-.61.51-.45zm7.8 9.36c.26.12.11.56.29.64.08.03.15-.03.34-.09.18-.04.34-.05.41.26l.02.05c.05.19.23.2.4.05l.1-.1c.17-.16.4-.17.54-.04l.12.12c.13.14.29.1.34-.1l.05-.16c.05-.19.24-.26.41-.17l.18.1c.17.1.29.03.27-.15l-.04-.23c0-.07.01-.12.05-.18a.33.33 0 0 1 .28-.12h.09l.1.01c.1 0 .16-.02.2-.06.03-.05.02-.1-.02-.18l-.06-.06-.04-.07c-.07-.09-.07-.19 0-.27a.3.3 0 0 1 .16-.1l.25-.07c.2-.06.21-.17.05-.25l-.18-.1c-.16-.08-.17-.23 0-.34l.13-.1c.16-.11.14-.22-.05-.27l-.17-.03c-.2-.03-.28-.2-.2-.36l.06-.1c.09-.17-.01-.27-.2-.23h-.07c-.33.06-.4-.04-.43-.17-.04-.13 0-.2-.06-.24-.14-.09-.53.17-.76.03-.3-.17.65-.17.22-.43-1.26-.73-2.9.07-4.67.21h-.13l.05.1c.46 1.3-.02 2.95 1.53 3.6.48.22.08-.56.44-.4zm-3.49 4.98c.21.2-.08.6.06.73.06.07.15.01.34.01.19.01.34.06.3.39v.06c0 .2.15.28.36.17l.13-.08c.21-.1.44-.05.52.13l.06.16c.08.17.25.17.36 0l.1-.15c.1-.17.31-.2.45-.04l.13.15c.13.15.26.1.3-.08l.04-.25a.26.26 0 0 1 .1-.16.3.3 0 0 1 .3-.04l.1.03.08.03c.09.03.17.03.21 0 .05-.03.06-.1.03-.19l-.02-.08-.02-.08c-.03-.11 0-.2.09-.26a.31.31 0 0 1 .19-.06h.25c.2 0 .25-.1.12-.24l-.13-.14c-.14-.14-.1-.3.1-.37l.16-.05c.19-.07.2-.19.03-.29l-.14-.09c-.16-.1-.2-.28-.06-.43l.08-.08c.14-.15.08-.28-.12-.3l-.06-.01c-.33-.05-.36-.17-.34-.3 0-.15.07-.2.03-.27-.11-.14-.55 0-.72-.2-.22-.27.67.01.36-.36-.93-1.14-2.73-.8-4.44-1.17l-.12-.04.02.1c-.02 1.47-1.02 3 .2 4.12.4.37.3-.54.57-.28zm-5.73 2.88c.18.23-.2.61-.09.77.06.07.16.03.35.06.18.04.33.1.23.44l-.03.07c-.05.2.1.3.32.22l.15-.06c.22-.08.44.02.48.21l.04.18c.05.2.2.22.36.05l.13-.14c.14-.16.35-.15.45.01l.1.18c.1.16.25.14.33-.05l.1-.24a.3.3 0 0 1 .13-.15.33.33 0 0 1 .32 0l.08.04.07.06c.09.05.16.05.21.02s.08-.1.07-.19l-.01-.09-.01-.08c-.02-.12.04-.22.13-.27a.3.3 0 0 1 .2-.03l.25.03c.2.02.27-.07.16-.23l-.1-.16c-.12-.16-.03-.32.17-.37l.18-.03c.2-.03.23-.16.08-.29l-.13-.1c-.15-.13-.14-.34.02-.46l.1-.07c.16-.12.13-.28-.05-.33l-.07-.03c-.32-.08-.32-.22-.27-.36.04-.14.12-.19.07-.26-.07-.15-.55-.08-.68-.31-.17-.3.66.1.42-.33-.7-1.3-2.55-1.21-4.17-1.84l-.11-.06v.1c-.3 1.52-1.6 2.95-.6 4.29.34.45.4-.52.62-.2zm.26-11.19c.25.14.05.62.22.7.07.05.15-.03.34-.07.18-.05.34-.04.38.3l.01.06c.04.2.2.23.38.07l.1-.11c.18-.17.42-.17.53-.01l.1.13c.12.15.28.1.34-.1l.07-.17c.07-.2.26-.27.43-.16l.16.1c.16.12.29.04.28-.15l-.01-.25c0-.08.02-.13.05-.19a.33.33 0 0 1 .3-.12l.09.01.1.02c.1 0 .16-.02.2-.06.03-.04.03-.11-.02-.19l-.04-.07-.04-.07a.25.25 0 0 1 .02-.29.44.44 0 0 1 .16-.1l.26-.07c.18-.06.22-.18.06-.27l-.16-.1c-.16-.1-.16-.27.02-.38l.14-.1c.17-.1.16-.23-.03-.28l-.17-.05c-.18-.05-.26-.23-.16-.4l.07-.12c.1-.16 0-.28-.2-.26l-.06.01c-.33.05-.38-.08-.4-.2-.02-.15.04-.22-.03-.27-.13-.1-.54.14-.74 0-.28-.2.66-.16.26-.45-1.16-.86-2.84-.07-4.58 0l-.12-.01.05.1c.32 1.44-.32 3.2 1.12 3.98.5.27.19-.6.52-.41zm-8.05-7.9c.27.13.06.56.22.65.1.05.17-.02.36-.05.18-.04.36-.03.4.28l.01.07c.04.19.21.22.4.08l.12-.1c.19-.15.44-.15.56 0l.11.14c.12.14.29.1.37-.07l.06-.15c.08-.18.28-.24.45-.14l.18.1c.16.1.3.05.28-.14v-.23c0-.06.02-.12.06-.17a.33.33 0 0 1 .3-.1h.1l.1.02c.1.01.17-.01.2-.05.04-.04.04-.1 0-.17l-.05-.08-.05-.06c-.05-.1-.04-.2.04-.27a.3.3 0 0 1 .17-.09l.27-.05c.2-.04.23-.15.06-.24l-.17-.1c-.17-.1-.16-.26.02-.35l.15-.1c.18-.1.17-.2-.03-.26l-.16-.04c-.2-.06-.28-.22-.17-.39l.07-.1c.1-.15.02-.26-.2-.25h-.06c-.35.04-.4-.07-.41-.2-.02-.14.04-.2-.04-.25-.13-.1-.56.12-.78-.03-.3-.2.7-.12.29-.4-1.21-.84-3-.16-4.83-.15l-.13-.01.04.09c.32 1.35-.37 2.97 1.14 3.74.53.24.2-.58.55-.39z"/>
        <g stroke="none" fill="#000">
          <polygon points="120.04 113.97 118.26 113.15 118.37 112.95"/>
          <polygon points="120.21 112.97 118.63 112.84 118.66 112.63"/>
          <polygon points="119.86 112.22 118.53 112.39 118.53 112.17"/>
          <polygon points="118.98 114.53 117.99 113.47 118.16 113.33"/>
          <polygon points="117.93 114.59 117.4 113.53 117.6 113.44"/>
          <polygon points="118.86 120.08 117.16 119.12 117.28 118.93"/>
          <polygon points="119.09 119.01 117.54 118.81 117.58 118.6"/>
          <polygon points="118.79 118.2 117.47 118.33 117.47 118.11"/>
          <polygon points="117.78 120.65 116.88 119.46 117.05 119.34"/>
          <polygon points="116.75 120.66 116.29 119.5 116.5 119.44"/>
          <polygon points="127.81 123.29 126.01 122.5 126.11 122.3"/>
          <polygon points="127.95 122.3 126.35 122.19 126.38 121.98"/>
          <polygon points="127.57 121.56 126.24 121.75 126.23 121.53"/>
          <polygon points="126.77 123.86 125.74 122.83 125.91 122.68"/>
          <polygon points="125.73 123.93 125.15 122.89 125.35 122.81"/>
          <polygon points="124.38 129.21 122.96 127.86 123.11 127.71"/>
          <polygon points="124.84 128.25 123.38 127.67 123.48 127.47"/>
          <polygon points="124.72 127.4 123.42 127.19 123.48 126.98"/>
          <polygon points="123.21 129.48 122.6 128.11 122.81 128.04"/>
          <polygon points="118.57 132.54 117.42 130.93 117.59 130.81"/>
          <polygon points="119.21 131.62 117.87 130.79 118 130.62"/>
          <polygon points="119.25 130.72 118 130.32 118.09 130.11"/>
          <polygon points="117.35 132.65 117 131.14 117.22 131.11"/>
          <polygon points="116.39 132.25 116.44 130.94 116.66 130.97"/>
          <polygon points="109.85 112.8 108.91 111.67 109.09 111.54"/>
          <polygon points="110.99 112.3 109.23 111.36 109.34 111.18"/>
          <polygon points="111.24 111.32 109.62 111.09 109.66 110.88"/>
          <polygon points="110.94 110.55 109.55 110.64 109.56 110.42"/>
        </g>
        <path fill="#BC2E2E" d="M118.75 113.26a1.76 1.76 0 0 1-2.2.47c-.8-.39-.93-1.17-.31-1.81a1.8 1.8 0 0 1 2.24-.37c.72.43.78 1.1.27 1.7zm-1.12 6.01c-.55.65-1.4.9-2.18.43-.76-.44-.84-1.27-.2-1.95.63-.66 1.54-.8 2.22-.31.68.47.7 1.2.17 1.83zm8.86 3.34a1.78 1.78 0 0 1-2.19.5c-.81-.37-.97-1.13-.37-1.79a1.8 1.8 0 0 1 2.23-.39c.74.4.82 1.07.33 1.68zm-3.12 5.52c-.69.48-1.56.5-2.22-.14-.62-.62-.51-1.45.26-1.94a1.7 1.7 0 0 1 2.22.26c.55.63.4 1.35-.26 1.82zm-5.6 3.14c-.77.41-1.64.3-2.17-.46-.5-.72-.24-1.56.63-1.96.83-.38 1.71-.15 2.14.6.42.72.14 1.43-.6 1.82zm-8.05-19.76a1.88 1.88 0 0 1-2.31.33c-.8-.43-.87-1.21-.18-1.83.66-.6 1.62-.7 2.34-.22.7.47.72 1.15.15 1.72z"/>
        <path fill="#F2BC51" d="M117.95 112.85c.39-.44.3-.87-.15-1.12-.15-.09-.43-.16-.58.02-.16.18-.05.34-.26.56-.2.22-.44.21-.59.38-.15.16-.02.37.14.46a1.2 1.2 0 0 0 1.44-.3zm6.91 5.6c.29.06.2.54.39.58.08.02.14-.06.32-.14.17-.08.33-.11.45.19l.02.05c.08.18.25.17.4-.02l.08-.12c.14-.19.38-.24.53-.13l.13.1c.16.1.3.04.32-.16l.02-.16c.03-.2.2-.3.39-.25l.19.07c.17.06.28-.03.23-.2l-.07-.23a.27.27 0 0 1 .01-.19.36.36 0 0 1 .27-.17l.08-.01.1-.01c.1-.02.17-.05.19-.1.02-.05.01-.11-.05-.18l-.07-.05-.06-.06a.22.22 0 0 1-.04-.26.33.33 0 0 1 .14-.14l.23-.12c.18-.08.18-.2 0-.25l-.18-.05c-.18-.06-.21-.21-.07-.36l.12-.12c.14-.13.1-.24-.1-.25h-.16c-.2 0-.31-.15-.25-.33l.03-.11c.05-.18-.06-.26-.24-.2l-.07.02c-.32.12-.4.03-.45-.1-.06-.12-.01-.2-.09-.23-.15-.05-.5.26-.74.17-.33-.12.62-.29.16-.46-1.35-.52-2.83.57-4.56 1.02l-.13.02.07.08c.65 1.23.44 2.97 2.06 3.34.55.13.03-.58.4-.48z"/>
        <g stroke="none" fill="#000">
          <polygon points="127.89 117.28 125.98 116.81 126.05 116.6"/>
          <polygon points="127.88 116.25 126.28 116.42 126.28 116.2"/>
          <polygon points="127.39 115.6 126.12 116.02 126.06 115.81"/>
          <polygon points="126.95 118.04 125.78 117.18 125.92 117.02"/>
          <polygon points="125.94 118.28 125.21 117.35 125.4 117.23"/>
        </g>
        <path fill="#BC2E2E" d="M126.49 116.83a1.76 1.76 0 0 1-2.07.88c-.86-.23-1.13-.97-.65-1.73a1.81 1.81 0 0 1 2.14-.78c.78.29.96.94.58 1.63z"/>
        <path fill="#F2BC51" d="M125.63 116.58c.29-.5.12-.9-.36-1.07-.17-.05-.44-.06-.56.13-.12.2 0 .35-.14.6-.16.26-.4.3-.52.5-.12.18.04.37.23.42.48.12 1.05-.07 1.35-.58zm-8.75 2.22c.4-.45.34-.91-.08-1.2-.14-.1-.4-.17-.57 0s-.07.36-.29.6c-.2.23-.45.2-.6.38-.16.18-.05.4.1.5.45.26 1.03.18 1.44-.28zm-6.36 5.71c.19.23-.16.62-.03.76.05.07.15.02.33.05.17.03.31.1.25.43l-.01.07c-.04.2.1.3.32.2l.14-.07c.2-.1.43-.01.48.19l.06.16c.05.19.2.21.34.05l.1-.15c.14-.16.34-.16.45 0l.12.17c.11.15.24.13.3-.06l.07-.24a.44.44 0 0 1 .11-.16.3.3 0 0 1 .31-.01l.08.04.09.04c.08.05.15.05.2.03.04-.04.06-.1.05-.2l-.02-.08-.01-.09a.25.25 0 0 1 .1-.26.36.36 0 0 1 .2-.04l.25.02c.18.02.25-.1.14-.24l-.11-.17c-.11-.15-.04-.32.14-.36l.17-.05c.18-.04.22-.17.06-.28l-.13-.1c-.15-.12-.16-.32 0-.45l.09-.1c.14-.12.11-.27-.08-.31l-.06-.01c-.32-.08-.33-.21-.3-.35.03-.15.1-.2.06-.27-.1-.14-.54-.04-.69-.27-.18-.3.65.08.39-.34-.77-1.26-2.56-1.08-4.18-1.64l-.11-.06v.11c-.18 1.51-1.32 3-.27 4.26.36.44.36-.52.6-.22z"/>
        <g stroke="none" fill="#000">
          <polygon points="113.64 125.18 112.4 123.64 112.58 123.51"/>
          <polygon points="114.19 124.23 112.84 123.48 112.96 123.3"/>
          <polygon points="114.17 123.36 112.93 123 113 122.79"/>
          <polygon points="112.47 125.33 112.03 123.86 112.23 123.82"/>
          <polygon points="111.52 124.98 111.46 123.7 111.68 123.71"/>
        </g>
        <path fill="#BC2E2E" d="M112.77 123.96c-.71.43-1.56.37-2.13-.36-.55-.7-.34-1.53.46-1.96.78-.42 1.65-.22 2.12.5.47.69.25 1.4-.45 1.82z"/>
        <path fill="#F2BC51" d="M112.25 123.23c.51-.3.61-.77.31-1.18-.1-.15-.31-.31-.51-.2-.21.1-.18.32-.45.47-.27.14-.49.05-.69.16-.2.1-.17.37-.05.51.3.4.86.55 1.39.24zm-6.25-5.42c.23.18-.06.58.1.7.07.05.16 0 .35 0 .19 0 .35.03.34.35v.06c0 .19.16.25.37.14l.14-.07c.2-.11.45-.07.53.1l.08.14c.09.17.25.17.36-.01l.1-.14c.1-.17.3-.2.45-.07l.16.13c.14.13.27.09.3-.09l.04-.23a.3.3 0 0 1 .09-.16.33.33 0 0 1 .32-.05l.08.03.1.03c.1.03.18.02.22-.01.05-.03.06-.1.03-.18l-.04-.07-.03-.08a.2.2 0 0 1 .08-.25.42.42 0 0 1 .18-.07l.27-.01c.2-.01.25-.11.1-.23l-.15-.13c-.14-.13-.1-.28.1-.36l.16-.05c.18-.07.2-.19.02-.27l-.16-.07c-.17-.1-.22-.27-.1-.41l.1-.09c.12-.13.06-.26-.15-.27l-.07-.01c-.34-.04-.37-.15-.37-.29.01-.13.07-.19.01-.24-.12-.12-.57.02-.76-.17-.25-.24.7 0 .34-.36-1.02-1.03-2.87-.66-4.65-.96l-.12-.03.02.1c.08 1.4-.88 2.88.46 3.9.46.37.29-.5.6-.25z"/>
        <g stroke="none" fill="#000">
          <polygon points="109.36 118.04 107.81 116.82 107.95 116.66"/>
          <polygon points="109.78 117.12 108.24 116.62 108.32 116.41"/>
          <polygon points="109.61 116.33 108.25 116.17 108.3 115.96"/>
          <polygon points="108.16 118.34 107.46 117.07 107.66 116.99"/>
          <polygon points="107.1 118.04 106.86 117.08 107.08 117.05"/>
        </g>
        <path fill="#BC2E2E" d="M108.25 117.05a1.84 1.84 0 0 1-2.3-.05c-.69-.56-.62-1.36.15-1.85a1.88 1.88 0 0 1 2.3.17c.61.59.51 1.26-.15 1.73z"/>
        <path fill="#F2BC51" d="M107.47 116.37c.4-.28.42-.65.11-.94-.1-.1-.32-.2-.48-.1-.17.12-.11.27-.33.41-.21.15-.41.1-.57.19-.16.1-.1.3.02.4a1.03 1.03 0 0 0 1.25.04zm18.2 5.84c.37-.44.27-.86-.18-1.1-.15-.09-.43-.14-.58.03s-.04.33-.23.57c-.2.22-.44.22-.59.38-.14.17 0 .37.17.45a1.21 1.21 0 0 0 1.42-.33zm-2.92 5.27c.48-.33.54-.8.2-1.18-.12-.13-.35-.27-.55-.14-.2.13-.15.33-.4.5-.26.16-.5.08-.68.2-.19.13-.13.38 0 .51.35.37.94.45 1.43.11zm-5.48 3.04c.55-.28.68-.75.42-1.2-.09-.15-.3-.32-.52-.22-.22.1-.2.32-.5.45-.29.13-.5.02-.7.12-.22.1-.22.36-.1.53.28.44.84.6 1.4.32zm-8.46-19.54c.36-.34.31-.7-.05-.94-.12-.07-.35-.14-.5 0-.15.13-.07.27-.26.44-.19.18-.4.16-.54.3-.14.12-.04.3.1.38.37.22.89.17 1.25-.18z"/>
      </g>
      <g stroke="none" fill="#000">
        <polygon points="120.22 125.02 119.21 123.81 120.45 124.77"/>
        <polygon points="122.52 120.81 121.87 120.2 122.71 120.54"/>
        <polygon points="115.35 127.7 114.82 126.66 115.62 127.51"/>
        <polygon points="110.05 120.45 109.78 119.67 110.33 120.29"/>
        <polygon points="113.87 117.02 113.06 116.06 114.09 116.77"/>
        <polygon points="104.93 114.24 103.9 113.02 105.16 114"/>
        <polygon points="105.84 109.34 104 108.68 105.93 109.02"/>
        <polygon points="114.9 111.41 113.26 110.66 115.01 111.09"/>
        <polygon points="122.36 115.75 121.29 115.29 122.45 115.44"/>
      </g>
    </g>
    <g stroke="none" fill="#000">
      <path d="M102.06 117.48c.2.32.4.66.57 1.01l.52 1.04-.31.13c-.13-.36-.24-.74-.36-1.1-.12-.37-.27-.73-.42-1.08zm3.25 4.39a4.73 4.73 0 0 0 .57 1.32l-.3.15a4.9 4.9 0 0 1-.26-1.47zm7.84 10.09c-.16-.82-.36-1.63-.59-2.42a23.98 23.98 0 0 1 .9 2.34l-.31.08z"/>
      <polygon points="124.76 113.48 126.75 113.31 126.75 113.64"/>
      <path d="M114.61 108.63c.57-.04 1.14-.03 1.7-.07v.33c-.58-.07-1.14-.19-1.7-.26zm-2.65-1.3c-.39-.12-.8-.18-1.21-.24a2.7 2.7 0 0 1-1.19-.4 2.2 2.2 0 0 0 .6.19c.2.03.4.04.61.05.42.01.84.01 1.27.08l-.08.32zm-14.9 2.48c.57.28 1.1.58 1.63.9l.8.5.77.53.74.55.74.57c.48.4.95.8 1.4 1.24-.53-.33-1.04-.68-1.55-1.03l-.76-.53-.76-.53-.76-.54-.75-.53c-.5-.38-1.01-.74-1.5-1.13zm3.17-1.94a6.37 6.37 0 0 1 1.97.78 4.84 4.84 0 0 1 .87.62c.27.25.5.49.8.69a2.75 2.75 0 0 1-.95-.49 14.41 14.41 0 0 0-.87-.55l-.9-.5a8.74 8.74 0 0 1-.92-.55zm3.36-1.18 1.03.19 1.02.2 1.02.23c.34.07.68.15 1.02.25a6.66 6.66 0 0 1-2.1-.16 8.89 8.89 0 0 1-2-.71zm9.25 6.51a7.5 7.5 0 0 1 2.18 1.95 7.5 7.5 0 0 1-1.2-.85 7.64 7.64 0 0 1-.98-1.1zm-.84 1.86c.15.15.25.32.33.5a2.58 2.58 0 0 1 .25 1.16 1.87 1.87 0 0 1-.1.6 6.16 6.16 0 0 1-.16-.57l-.12-.55-.1-.55-.1-.59zm8.7 1.22.41.25.36.28.35.3.33.35a1.32 1.32 0 0 1-.48-.14 2.07 2.07 0 0 1-.75-.62 1.7 1.7 0 0 1-.23-.42zm-3.55 7.02a.9.9 0 0 1 .4.23c.12.11.2.24.28.37.08.14.14.28.19.41l.15.4a10.81 10.81 0 0 1 .44 1.74 10.5 10.5 0 0 1-.74-1.61l-.28-.83c-.09-.27-.2-.52-.44-.71zm3.12-1.7a4.73 4.73 0 0 1 1.61 1.17 4.07 4.07 0 0 1 .43.53 4.73 4.73 0 0 1-1.6-1.18c-.16-.16-.31-.33-.44-.52zm-13.97-1.16c.24.08.46.2.65.34a3.27 3.27 0 0 1 .96 1.1c.11.22.2.45.24.7l-.46-.56-.45-.52-.46-.52-.48-.54zm6.2-11.09a5.74 5.74 0 0 0 2.19.62c.37.04.74.06 1.13.09.38.02.77.03 1.15.07a6.99 6.99 0 0 1-2.33.17c-.4-.05-.78-.14-1.15-.3a2.83 2.83 0 0 1-.98-.65zm-9.64 6.4a6.64 6.64 0 0 1 1.7 3.9c-.16-.33-.29-.66-.42-1l-.4-.97-.44-.97-.44-.97zm-1.01-5.43a3.08 3.08 0 0 1 1.13.98c.15.2.28.43.38.66.1.23.16.47.2.72l-.42-.6-.41-.6-.43-.58-.45-.58z"/>
    </g>
    <g stroke-width=".33">
      <path class="secondary" d="M85.67 127.35s-.96.06-.94.82c.03.77.49.85.49.85s.26-.01.51.1c.65.27.63.8.46 1.2-.08.2-.21.26-.21.34-.04.18 1.07-.12 1.17-1.5.1-1.53-1.48-1.81-1.48-1.81zm-9.29 5.33s.9-.35 1.2.35c.31.7-.07.97-.07.97s-.25.1-.43.31c-.46.53-.23.98.1 1.29.16.14.3.14.34.2.1.15-1.03.36-1.7-.86-.74-1.32.56-2.26.56-2.26zm-2.71-2.36s.95-.01 1 .75c.04.77-.4.88-.4.88s-.27 0-.51.14c-.63.33-.57.83-.36 1.24.1.19.22.24.25.32.05.18-1.08-.03-1.3-1.4-.23-1.51 1.32-1.93 1.32-1.93z"/>
      <g stroke="none" fill="#000">
        <path d="M85.1 128.37c.13-.01.23 0 .34.02l.3.08c.2.07.4.17.56.32a1.43 1.43 0 0 1 .2.25c.05.1.08.2.1.3.03.2-.02.42-.1.6h-.04a.9.9 0 0 0-.1-.82.76.76 0 0 0-.19-.19 1.15 1.15 0 0 0-.5-.2 1.17 1.17 0 0 0-.28-.04l-.26.01-.02-.33zm-7.67 5.31c-.07.03-.17.06-.24.1l-.23.15c-.16.1-.28.24-.37.4a.7.7 0 0 0-.08.26v.27a.95.95 0 0 0 .26.5l-.02.03a.97.97 0 0 1-.38-.83l.07-.32a1.56 1.56 0 0 1 .62-.72c.08-.07.17-.11.3-.17l.07.33zm-3.13-2.05h-.27l-.27.05c-.18.06-.35.13-.49.26a.81.81 0 0 0-.27.46.99.99 0 0 0 .06.56h-.03a.98.98 0 0 1 .11-1.17c.14-.16.33-.27.53-.36a1.43 1.43 0 0 1 .3-.1c.12-.02.22-.04.34-.04l-.01.34z"/>
      </g>
      <path class="secondary" d="M74.19 127.13s.8.5.45 1.16c-.38.68-.76.53-.76.53s-.23-.13-.5-.15c-.71-.06-1 .42-1.03.87-.02.2.06.32.03.4-.05.17-.9-.61-.35-1.89.63-1.4 2.15-.92 2.15-.92z"/>
      <g stroke="none" fill="#000">
        <path d="M74.02 128.57c-.06-.05-.14-.1-.22-.13a1 1 0 0 0-.25-.1 1.13 1.13 0 0 0-.8.03c-.08.04-.16.1-.23.17a.95.95 0 0 0-.24.5h-.03c0-.2.06-.4.19-.58a.91.91 0 0 1 .52-.35c.21-.06.43-.06.64-.03a2.53 2.53 0 0 1 .62.21l-.2.28z"/>
      </g>
      <path class="secondary" d="M85.58 129.14s-.57-.92.53-1.67c.09-.13-.03-.63-.81-.62-.47-.04-.64.41-.64.41s-.48-.26-.87.03c-.16.12-.4.32-.68.34-1 .07-.65.16-.95-.07-.1-.2 1.35-2.67 1.35-2.67l1.25-1.92c.31-.45 1.24-1.8 1.6-2.27.34-.46 1.07-2.04 1.64-2.14.18-.03.35-.03.5-.12.12-.07.2-.18.28-.29.48-.7-.34-1.3.45-3.45a.95.95 0 0 1-.2.34c-.18.16-.52-3.08-.75-3.13-.24-.04-.44-.26-.41-.49.01-.1.06-.22-.01-.3-.07-.05-.17-.02-.24-.02-.24.03-.47-.13-.6-.33s-.18.67-.26.44c-.02-.09-.07-.18-.14-.22-.2-.1-.39.14-.6.18-.19.03-.24-.56-.35-.72-.11-.14-.32 2.47-.46 2.36-.16-.11-.84-1.32-.84-1.34.25.84 1.4 3.13 1.67 3.93.3.9-1.12 3.08-1.91 4.7-.04.09-.07.23-.26.6-.32.2-.74 1.11-.66 1.28-.26.1-.72.88-.64 1.28-.24.18-.76.85-.8 1.17-.3.17-.75 1.01-.62 1.3-.09.14-.28.2-.53.58-.22.32-1.57.75-1.68.76-.9.17-1.49-.44-2.26-.38-.25.02-.54.16-.6.23-.5.4-1.16.17-1.26-.02-.23-.52-.65-.5-1.07-.4-.46.14-.54.53-.54.53s.52-.06.59.88c.01.12.02.24-.01.36-.02.1-.17.39-.16.47.05.24.33.44.76.32.3-.07.47-.38.53-.55.4.07.8.12 1.18-.08.12-.07.24-.17.38-.16.15.01.27.12.4.19.19.08.4.05.6.02-.36.2-.9.44-1.4.45-.37.01-.67.01-.95.18-.33.2-.43.4-.66.66-.05-.11-.25-.22-.37-.26a1.26 1.26 0 0 0-.41 0c-.43.04-1.14.59-.87 1.12.03.06.05.05.1.04.36-.15 1.08.4 1.1 1.22 0 .1.11.3.2.35.23.12.72.1 1.05-.25.33-.34.18-.65.16-.77.26-.19.4-.56.66-.77.36-.3.9-.25 1.37-.3a2.56 2.56 0 0 0 1.41-.62c-.16.43-.38.74-.87.85-.27.07-.58.2-.76.5-.05.1-.2.3-.26.5l-.14.43s-.35-.2-.8.04c-.6.3-.76.99-.51 1.37l.2.17c.48-.53 1.62.06 1.68.56.08.14.4.3.86-.05a.9.9 0 0 0 .27-.85c-.06-.39-.23-.22-.25-.58-.02-.35.5-.46.7-.58.28-.19.49-.4.63-.68.2-.39.4-1.02.4-1.02s.3-1.15.95-1.24h.07c.77 0 1.26.41 1.9.4.6-.14.47-.46 1.12-.53.26.05.14.68.83.67.6.01.7-.35.7-.35z"/>
      <path stroke-linejoin="round" d="M90.05 112.28c-.49 1.47-.54 1.81-.6 2.1-.04.2-.14.6-.28.75-.29.28-1.02-.29-1.08-.57-.03-.18 0-.39-.18-.5-.14-.09-.77 1.03-.93 1-.26-.04-.54-.2-.77-.3a2.28 2.28 0 0 0-.36-.1c-.41-.08-.3-.4-.57-.79-.5-.76-.7-1.47-1-2.3-.25-.73-.56-1.32-.81-2.04a3.63 3.63 0 0 1-.28-1.28l3.34-.28c.83-.08 1.7-.15 2.52-.01.38.06.74.16 1.1.3.28.1.55.21.78.39.62.5.82 1.33.99 2.11"/>
      <path class="secondary" stroke-linejoin="round" d="m80.32 69.29 2.13-1.45-1.9-2.42-2.97-.4c-.99 0-1.9.92-1.9.92-1.54.71-4.5 2.5-5.36 3.6-.16.2-.23.46-.3.72.31-.26.7-.55 1.79-.97.54.45 1.16.35 1.96.24.48-.06 1.07-.05 1.56-.16 1.97-.45 3.19.33 4.84-.01"/>
      <path fill="none" d="M71.8 69.29c2.1-.82 2.37-.81 3.94-1.1.76-.13 1.34-.23 2.06-.5"/>
      <g stroke="none" fill="#000">
        <path d="M79.75 128.61a2.53 2.53 0 0 0-.38.52l-.17.28-.09.14c-.03.04-.05.1-.12.15l-.2-.26.1-.08.11-.1.23-.24a3 3 0 0 1 .52-.4zm4.83-.23a1.88 1.88 0 0 1-.08-1.17l.31.1a1.85 1.85 0 0 0-.2 1.06l-.03.01zm-9.88 2.03a6.65 6.65 0 0 0-.37-.54l.3-.15c.05.24.06.46.1.66l-.03.03zm2.77-2.07.43-.1.22-.06.11-.02.1-.03c.13-.06.24-.15.39-.24a.7.7 0 0 1 .46-.11v.03a.7.7 0 0 0-.39.19c-.1.09-.22.2-.36.3a3.96 3.96 0 0 1-.42.22c-.14.07-.3.13-.46.15l-.08-.33zM75 126.85a1.16 1.16 0 0 1 .06.53c0 .18-.05.34-.13.5l-.03-.01c.02-.16.01-.32-.02-.48-.01-.07-.05-.14-.07-.2l-.1-.2.29-.14zm7.06.8-.1-.23c-.02-.07-.02-.15-.02-.23a.97.97 0 0 1 .1-.4h.04a.84.84 0 0 0 .12.54l.11.1-.25.23zm2.68-6.63a1.54 1.54 0 0 0-.44-.12 1.65 1.65 0 0 0-.22-.02h-.14c-.01 0 0 0 0 0h.01l.03-.01-.18-.28.05-.02h.18l.12.05.22.1a1.65 1.65 0 0 1 .4.26l-.03.04zm-.78 1.25a1.34 1.34 0 0 0-.37-.13h-.28l-.04.02h-.08l.02-.32h-.02.12a1.39 1.39 0 0 1 .65.4v.03zm-.65 1.28c-.13-.04-.25-.1-.38-.12l-.18-.02c-.05 0-.1.01-.12.03l-.1-.3a.55.55 0 0 1 .27.02l.2.1c.12.08.21.18.31.27v.02zm-.79 1.2a.86.86 0 0 0-.35-.17c-.07-.02-.12-.03-.18-.02-.05 0-.1.03-.12.05l-.13-.3a.5.5 0 0 1 .29 0 .8.8 0 0 1 .22.1c.13.08.24.19.3.3l-.03.03zm-.61 1.33a.8.8 0 0 0-.37-.15l-.2-.02c-.05 0-.13 0-.14.02l-.06-.32c.12 0 .18.02.26.06l.2.1c.14.08.26.18.33.31h-.02zm-4.99 5.62c.13.1.27.21.38.33s.2.26.27.4l-.03.02a1.76 1.76 0 0 0-.77-.45l.15-.3z"/>
      </g>
      <path class="secondary" d="M99.96 131.44s-.96.07-.94.84c.03.77.49.84.49.84s.26 0 .51.1c.65.28.63.8.45 1.21-.07.19-.2.26-.2.33-.04.18 1.07-.12 1.17-1.5.1-1.53-1.48-1.82-1.48-1.82zm-9.29 5.35s.9-.36 1.2.35c.31.7-.07.97-.07.97s-.25.1-.43.3c-.47.53-.23.98.1 1.3.16.13.3.13.34.2.1.14-1.03.35-1.7-.87-.75-1.32.56-2.25.56-2.25zm-2.71-2.38s.95-.01 1 .75c.04.77-.4.88-.4.88s-.27 0-.52.14c-.62.33-.56.84-.35 1.24.1.2.22.25.25.32.05.18-1.08-.03-1.3-1.4-.23-1.51 1.32-1.93 1.32-1.93z"/>
      <g stroke="none" fill="#000">
        <path d="M99.4 132.46c.12 0 .22 0 .33.02l.3.08c.2.07.4.17.56.32a1.43 1.43 0 0 1 .2.25c.05.1.08.2.1.3.03.21-.02.42-.1.6h-.04a.9.9 0 0 0-.1-.82.76.76 0 0 0-.19-.19 1.15 1.15 0 0 0-.5-.2 1.17 1.17 0 0 0-.28-.04l-.26.01-.02-.33zm-7.68 5.33c-.07.02-.17.05-.24.1-.08.04-.17.08-.23.14-.16.1-.28.24-.37.4a.7.7 0 0 0-.08.26v.27a.95.95 0 0 0 .26.51l-.02.02a.97.97 0 0 1-.38-.82c.01-.11.04-.21.07-.32a1.56 1.56 0 0 1 .62-.73c.08-.06.17-.1.3-.16l.07.33zm-3.14-2.07h-.26l-.28.05c-.17.06-.34.14-.48.26a.81.81 0 0 0-.27.46.99.99 0 0 0 .06.56l-.03.01a.98.98 0 0 1 .1-1.18c.15-.16.34-.27.54-.36a1.43 1.43 0 0 1 .3-.1c.11-.02.21-.04.33-.04v.34z"/>
      </g>
      <path class="secondary" d="M88.47 131.23s.82.5.46 1.17c-.38.67-.76.52-.76.52s-.24-.13-.51-.15c-.7-.05-.99.42-1.02.87-.03.2.06.32.03.4-.06.17-.9-.6-.35-1.89.61-1.4 2.15-.92 2.15-.92z"/>
      <g stroke="none" fill="#000">
        <path d="M88.3 132.66c-.05-.04-.13-.1-.21-.13a1 1 0 0 0-.25-.1 1.13 1.13 0 0 0-.8.03c-.08.05-.16.1-.23.17a.95.95 0 0 0-.24.5h-.03c0-.2.06-.4.18-.58a.91.91 0 0 1 .53-.35c.21-.06.43-.06.64-.02a2.53 2.53 0 0 1 .62.2l-.2.28z"/>
      </g>
      <path class="secondary" d="M99.87 133.23s-.57-.92.53-1.67c.09-.13-.03-.63-.82-.61-.46-.05-.63.4-.63.4s-.48-.26-.87.04c-.16.12-.41.31-.68.34-1 .06-1.4-.32-1.75-.43-.17-.15.25-3.05.25-3.05l.24-2.35c.14-.54.43-2.77.6-3.3.15-.52.73-3.81 1.2-4.15.14-.1.3-.19.39-.33.08-.11.1-.24.12-.38.12-.83-.56-.71-.77-2.45.01.14-.19-.26-.23-.15-.09.22-.37.42-.6.48-.22.07-.5-1.14-.58-1.36-.03-.1-.04.87-.14.84-.08-.02-.15.05-.23.1-.2.12-.47 1.18-.67 1.06-.21-.12-.36-.3-.53-.47-.07-.07-.13-.14-.22-.14-.2 0-.27.28-.45.41-.06.05-.12-.16-.19-.16-.9-.07.08-1.14-.16-1.18-.19-.03-1-1.55-1.03-1.36 0 .04 0 .08-.02.12-.05.1-.36.57-.46.5-.44-.26-.03.45.48 1.04 0 0 1.37 1.15 2.14 1.99a.85.85 0 0 1 .22.72c-.14.84-.34 4.24-.46 5.62 0 .1.02.25-.03.66-.23.3-.22 1.38-.08 1.51-.2.19-.33 1.06-.11 1.4a3.26 3.26 0 0 0-.21 1.56c-.22.26-.29 1.3-.07 1.52-.03.16-.19.27-.28.74-.1.37-.44.46-.55.48-.9.16-1.49-.44-2.26-.39-.25.03-.54.17-.6.24-.5.4-1.16.17-1.26-.03-.23-.51-.65-.5-1.08-.4-.45.15-.54.54-.54.54s.53-.06.6.88c0 .12.02.24-.01.36-.03.1-.17.38-.16.47.05.23.33.44.76.32.3-.08.46-.38.53-.55.4.07.8.12 1.18-.09.12-.06.24-.16.38-.15.15.01.27.12.4.19.19.07.4.05.6.02-.36.2-.9.44-1.4.45-.37.01-.68.01-.95.17-.33.2-.43.4-.66.66-.06-.1-.25-.22-.37-.25a1.26 1.26 0 0 0-.41 0c-.43.03-1.15.58-.87 1.11.03.07.04.06.1.05.36-.16 1.08.4 1.1 1.22 0 .1.1.3.2.35.23.12.72.1 1.05-.25.33-.34.18-.65.16-.77.26-.19.4-.56.66-.77.36-.31.9-.26 1.37-.31a2.56 2.56 0 0 0 1.4-.62c-.16.43-.38.75-.86.86-.28.07-.58.19-.76.5-.05.1-.2.3-.26.5l-.15.43s-.34-.2-.8.03c-.6.3-.75 1-.5 1.38 0 0 .14.13.2.16.48-.52 1.62.07 1.68.56.07.15.4.31.85-.04a.9.9 0 0 0 .28-.86c-.07-.38-.23-.22-.25-.57-.03-.35.5-.46.69-.58.29-.19.5-.4.64-.68.2-.39.4-1.03.4-1.03s.3-1.14.95-1.23h.07c.77-.01 1.26.4 1.9.4.6-.15.47-.47 1.12-.53.25.04.13.68.83.67.6-.03.7-.4.7-.4z"/>
      <path stroke-linejoin="round" d="M81.28 76.65c1.46-1.7 2.75-3.52 2.75-4.68 0-.97-.17-1.88-1.16-2.27-.85.16-1.94.06-2.72-.34a1.24 1.24 0 0 0-.5-.9 3.66 3.66 0 0 0-.97-.46l-.89-.3c.62-1.38.32-2.26-.22-2.77a5.14 5.14 0 0 1 4.25-2.05c2.01.24 2.9.41 4.19 1.06 1.13.63 2.17 1.44 2.49 2.85 1.2 1.44.95 3.3.51 5.55-.32 1.65-1.04 2.47-2.2 4.58-1.23 2.27-3.15 5.24-4.11 7.22a5.12 5.12 0 0 0-.13 4.43c.57 1.06 1 1.92 3.15 2.49.97.25 4.25.5 8.65 2.3 5.65 2.3 10.8 7.46 12.47 11.7.3.76-.52 1.57-1.22 2a9.68 9.68 0 0 1-2.32.93c-.58.16-1.77.66-1.77.66.85.37 1.36 1.32.83 1.67-.7.47-2.17.42-3.43.3-.83-.07-1.94-.22-1.94-.22s.33 1.66.37 2.23c.14 1.55.24 1.87.3 2.17.04.2.1.61.03.8-.14.39-1.04.15-1.2-.1-.1-.14-.16-.35-.37-.38-.17-.03-.3 1.25-.45 1.3-.26.06-.57.03-.83.04-.13 0-.25 0-.37.04-.4.09-.44-.24-.83-.48-.76-.5-1.24-1.07-1.84-1.72-1.48-1.58-2.8-2.62-3.43-3.36-3.9-.6-12.6-4-16.66-8.06a10.72 10.72 0 0 1-3.13-9.53c.58-3.02 2.5-4.4 2.56-4.46a6.35 6.35 0 0 1 2.19-5.16c1.34-1.3 5.85-4.63 7.95-7.08z"/>
      <path class="tertiary" stroke-linejoin="round" d="M85.95 67.34c-.1-.08-.24-.07-.37-.06-.77.03-1.45-.48-2.2-.67-.52-.14-1.08-.11-1.56-.33-.07-.04-.13-.07-.17-.14a.28.28 0 0 1 0-.16c.08-.49.59-.77.88-1.17.43-.57.27-1.36-.22-1.86l-.47-.06a5.41 5.41 0 0 0-3.11.68c-.64.38-.84.9-1.13 1.37.61.83.47 1.83.22 2.77l.89.3c.33.12.67.25.95.47.29.2.5.53.5.89a4.54 4.54 0 0 0 2.74.34c.36.14.66.35.89.61.5 0 .97-.05 1.34-.44.19-.2.35-.41.48-.64l.38-1.02c.03-.18.05-.37.05-.57 0-.1 0-.23-.08-.3z"/>
      <g stroke="none" fill="#000">
        <path d="M94.04 132.7a2.53 2.53 0 0 0-.39.52l-.16.28-.09.14c-.03.04-.05.1-.12.15l-.2-.26.1-.08.11-.1.23-.24c.17-.14.33-.3.52-.4zm4.83-.21a1.88 1.88 0 0 1-.08-1.18l.31.1a1.85 1.85 0 0 0-.2 1.06l-.03.02zm-9.88 2a6.65 6.65 0 0 0-.37-.53l.3-.14c.05.23.06.45.1.66l-.03.02zm2.76-2.06.43-.1.22-.05.11-.03.1-.03c.13-.05.24-.15.39-.24a.7.7 0 0 1 .46-.11v.03a.7.7 0 0 0-.39.19c-.1.09-.22.2-.36.3a3.96 3.96 0 0 1-.42.23c-.14.06-.3.12-.46.14l-.08-.33zm-2.48-1.49a1.16 1.16 0 0 1 .06.53c0 .18-.05.34-.13.5l-.03-.01c.02-.16 0-.32-.03-.48 0-.07-.04-.14-.06-.2l-.11-.2.3-.14zm6.31.5c-.07-.06-.13-.11-.18-.18a.73.73 0 0 1-.1-.2 1.1 1.1 0 0 1-.04-.42h.03a1 1 0 0 0 .18.34c.03.04.08.09.13.12l.15.07-.17.27zm-.12-7.48a1.54 1.54 0 0 0-.45.04l-.22.06-.1.03-.03.02v.02-.02l.03-.02-.28-.19.05-.04.02-.02.01-.01.06-.02.07-.02h.14l.24.03c.16.02.32.04.47.1l-.01.04zm-.23 1.53h-.2a.97.97 0 0 0-.36.08l-.08.04-.03.02-.01.01-.01.01-.04.03-.1-.32c-.04 0-.02 0 0 0l.04-.01.06-.02h.12a1.4 1.4 0 0 1 .63.13l-.02.03zm-.12 1.4c-.13 0-.28 0-.4.03l-.17.04a.2.2 0 0 0-.1.08l-.22-.25a.51.51 0 0 1 .26-.08l.23.03.4.14v.02zm-.21 1.58a.77.77 0 0 0-.39-.02.47.47 0 0 0-.17.05.2.2 0 0 0-.1.08l-.23-.23c.1-.08.18-.09.27-.1a.77.77 0 0 1 .23.01.99.99 0 0 1 .4.18l-.01.03zm-.03 1.55a.97.97 0 0 0-.4-.02l-.19.04c-.05.03-.12.06-.13.08l-.18-.28c.11-.04.2-.04.28-.04l.23.02c.14.04.3.08.4.17l-.01.03zm-3.67 5.78c.13.1.27.2.38.33s.2.25.27.4l-.03.01a1.76 1.76 0 0 0-.77-.45l.15-.3zm-2.96-24.78a4.27 4.27 0 0 0-.43-.46l-.46-.47a2.2 2.2 0 0 1-.38-.56c-.1-.21-.14-.44-.1-.66a2.05 2.05 0 0 0 .65 1.06l.5.42c.16.15.32.3.48.48l-.26.2z"/>
      </g>
      <path fill="none" d="M79.8 92.63c-.98.29-1.67.57-2.44 1.12-.28.21-.57.42-.8.7-1.32 1.54-1.23 4.12-.68 5.93a7.94 7.94 0 0 0 2.98 4.19"/>
      <g stroke="none" fill="#000">
        <path d="M87.18 98.4a.7.7 0 0 1 .14.44 1.14 1.14 0 0 1-.35.84.84.84 0 0 1-.42.21l.2-.36a2.53 2.53 0 0 0 .17-.35l.14-.37a2.31 2.31 0 0 0 .12-.41zm-1.97.9c.1.06.17.16.2.27.04.11.05.23.02.36a.6.6 0 0 1-.17.31.48.48 0 0 1-.3.17l.08-.3.07-.25.05-.25.05-.31zm-1.65 2.46c.08.13.08.32.02.47a.74.74 0 0 1-.3.38 1.09 1.09 0 0 1-.89.14c.12-.1.25-.16.38-.23l.33-.19a1.32 1.32 0 0 0 .26-.23.85.85 0 0 0 .2-.34zm-.58-3.21a.99.99 0 0 1-.3.57 1.52 1.52 0 0 1-.54.35 2.3 2.3 0 0 1-1.24.07c.2-.09.4-.14.58-.2l.55-.17a2.7 2.7 0 0 0 .96-.62zm18.62 7.3c.15-.04.28-.04.41-.05l.37-.02c.1-.01.22-.05.33-.1s.2-.09.32-.21c.03.15-.06.32-.17.43a.82.82 0 0 1-.43.2c-.15.03-.3 0-.45-.04a1.34 1.34 0 0 1-.38-.22zm2.25-.95c.14-.04.29-.05.38-.1a.2.2 0 0 0 .08-.07l.04-.1a6.28 6.28 0 0 1 .22-.79c.07.13.1.28.12.42 0 .14 0 .29-.02.43a.56.56 0 0 1-.14.25.44.44 0 0 1-.26.12.6.6 0 0 1-.42-.16zm-2.08-.9c.14-.04.26-.05.36-.06l.3-.03c.07-.03.16-.05.23-.1.08-.03.17-.09.24-.2.07.12.03.29-.06.4a.61.61 0 0 1-.36.23.68.68 0 0 1-.4-.04.9.9 0 0 1-.3-.2zm.47-1.38.36-.4.16-.2.2-.21c.06.1.06.22.03.33s-.07.2-.15.3a.68.68 0 0 1-.28.18.49.49 0 0 1-.33 0zm-1.48-1.13.18-.1.13-.06.13-.03.2-.02c.02.09-.01.16-.06.23a.33.33 0 0 1-.18.13.41.41 0 0 1-.23 0c-.07-.01-.14-.07-.17-.15zm-.71 2.2a.33.33 0 0 1 .13-.12l.13-.04c.04 0 .09.01.13.05.05.02.09.06.12.13a.33.33 0 0 1-.13.12l-.13.03a.22.22 0 0 1-.13-.04.48.48 0 0 1-.12-.13z"/>
      </g>
      <path fill="none" d="M78.86 104.57c2.24 1.54 3.84 2.2 5.46 2.43"/>
      <path class="tertiary" stroke-linejoin="round" d="M96.98 110.4s1.1.15 1.94.23c1.25.1 2.71.16 3.43-.31.52-.35.02-1.3-.83-1.67 0 0-.35-.6-1.02-.87.84-.78.13-2.38-.76-2.34-.03-.48-.6-.85-.98-.97.5-.28.78-1.18-.06-1.75 0 0 .15-.65-1-1.12.47-.5-.03-1.2-.03-1.2.24-.65-.42-1.43-1-1.55a6.07 6.07 0 0 0-3.74-1.53 4.29 4.29 0 0 1-1.2-.36c0 .28-.14 1.26-.28 1.52-.24.48-.55 1.02-1.06.93a2.11 2.11 0 0 1-1.94 1.82c-.06 0-.27.29-.36.33-.2.1-.43.11-.63.22a.95.95 0 0 0-.46.55c-.08.27.01.56-.07.83-.08.34-.4.47-.56.75-.16.27-.15.6-.36.85-.14.17-.33.3-.45.48-.13.19-.17.42-.24.64a2.05 2.05 0 0 1-.98 1.12c3.02 1.26 10.57 3.08 12.64 3.4z"/>
      <path fill="none" d="M90.31 99.72s2.7.1 4.18 1.02a9.2 9.2 0 0 1 3.2.83m-9.95.13c1.65.05 4.07.8 5.67 1.63 2.2-.07 4.28.6 5.34 1.13m-12.44-.44s4.6.5 7.52 2.2c2.11-.06 5.49.81 6.66 1.55"/>
      <g stroke="none" fill="#000">
        <path d="M86.8 73.07c.03.03.05.08.03.14a.26.26 0 0 1-.06.12l-.09.06a.33.33 0 0 1-.09.05l-.2.03a.39.39 0 0 1-.2-.07l.15-.14a1 1 0 0 1 .23-.1h.08l.07-.02c.02-.02.05-.02.07-.07zm-.3 1.7c.04.04.05.1.04.16a.29.29 0 0 1-.07.15.68.68 0 0 1-.24.16.74.74 0 0 1-.26.05.4.4 0 0 1-.27-.1l.23-.12.21-.1.2-.06c.05-.03.11-.04.15-.13zm-.68 1.7a.37.37 0 0 1-.16.15.44.44 0 0 1-.2.05.45.45 0 0 1-.2-.02.4.4 0 0 1-.2-.12l.2-.1a.5.5 0 0 1 .17-.03h.17c.08 0 .15.03.22.06zm-1.1 1.22a.4.4 0 0 1-.1.18.53.53 0 0 1-.18.09h-.2a.33.33 0 0 1-.18-.12l.17-.1.14-.05h.16a.41.41 0 0 1 .2 0zm-.9 1.2c.02.07.01.12-.01.18a.27.27 0 0 1-.11.1c-.04.03-.1.04-.15.03-.06-.01-.11-.03-.15-.09l.1-.12.08-.05.09-.04h.15zm-.81 1.27c0 .08-.03.13-.06.19a.42.42 0 0 1-.12.12c-.04.03-.1.04-.15.05-.06 0-.12 0-.19-.03a.33.33 0 0 1 .09-.16l.1-.1.14-.05c.06-.02.11-.03.19-.02zm-2.86 6.25c.04.07.05.15.04.22a.44.44 0 0 1-.26.33.37.37 0 0 1-.22 0l.09-.17.08-.13.11-.12.16-.13zm.4 1.18-.04.15-.04.07-.07.05-.13.05a.24.24 0 0 1-.06-.15c0-.06.03-.1.07-.13.03-.04.08-.07.13-.07.03-.02.09-.01.14.03zm.52.76v.36l-.03.33-.05.33-.07.35a.84.84 0 0 1-.15-.34 1.34 1.34 0 0 1 0-.37.99.99 0 0 1 .1-.35.73.73 0 0 1 .2-.3zm4.39 17.14c1.17.35 2.32.73 3.48 1.09a75.47 75.47 0 0 0 7.01 1.97c1.2.26 2.38.48 3.59.63-1.21-.11-2.4-.31-3.6-.55a66.43 66.43 0 0 1-3.56-.83c-1.18-.3-2.34-.64-3.52-.98-1.17-.34-2.33-.7-3.5-1.01l.1-.32zm1.5-2.84 2.68.84a107.98 107.98 0 0 0 5.39 1.52c.91.2 1.83.4 2.75.5-.94-.08-1.86-.24-2.77-.43a108.57 108.57 0 0 1-5.45-1.36l-2.7-.76.1-.3zm2.7-2.1c1.2.39 2.42.76 3.64 1.12.62.18 1.22.36 1.84.51a17.6 17.6 0 0 0 1.87.39c-.64-.06-1.26-.18-1.88-.31l-1.86-.42c-1.24-.3-2.48-.63-3.7-.96l.08-.33zm1.85-2.15c.75.24 1.45.53 2.19.78.73.24 1.47.44 2.24.55-.77-.06-1.54-.19-2.28-.39-.75-.2-1.49-.44-2.24-.63l.09-.31zm-11.77-5.92a.49.49 0 0 0 .23-.13.44.44 0 0 0 .11-.28.52.52 0 0 0-.08-.3.67.67 0 0 0-.25-.25c.11.04.23.1.32.2a.67.67 0 0 1-.22 1.08l-.11-.32zm-8.45-3.63c0 .37-.05.75-.14 1.1s-.21.7-.34 1.03c.16-.7.26-1.43.15-2.11l.33-.02zm25.69 28.04-.15.28-.1.27-.07.26-.07.3a.5.5 0 0 1-.14-.31.94.94 0 0 1 .03-.35c.05-.11.1-.22.19-.3a.63.63 0 0 1 .3-.15zm-8.96.1-.23.12-.2.1-.18.14-.21.16c-.02-.1 0-.2.04-.3a.57.57 0 0 1 .21-.21.55.55 0 0 1 .29-.1c.1 0 .2.02.28.09zM71.46 99.72l.23.32.2.3.2.29.2.33a.8.8 0 0 1-.4-.15c-.1-.08-.2-.2-.28-.3a.92.92 0 0 1-.15-.39.65.65 0 0 1 0-.4zm1.42 2.2.33.27.3.23.32.22.36.23a.79.79 0 0 1-.46.01 1.2 1.2 0 0 1-.41-.18 1.1 1.1 0 0 1-.31-.33.9.9 0 0 1-.13-.44zm-1.96-3.15a.77.77 0 0 1-.25-.28.99.99 0 0 1 0-1.04c.06.12.08.23.12.34l.06.3.05.33c.02.1.03.22.02.35zm20.74-1.67a6.57 6.57 0 0 1-1.6-.93 10.93 10.93 0 0 0-1.5-.93c-.55-.25-1.1-.49-1.67-.66a6.02 6.02 0 0 0-1.77-.28c.6-.08 1.22-.02 1.8.12a11.29 11.29 0 0 1 2.54 1c.27.16.52.34.77.5l.75.48c.25.15.52.28.8.38l-.12.32zm-6.94-32.64a.55.55 0 0 1 .3 0c.1.02.19.07.26.12.08.06.16.13.21.21.06.09.1.18.1.29l-.25-.14-.21-.14-.2-.15c-.06-.06-.14-.11-.2-.19zm1.13 1.26c.06.06.1.13.14.2.03.08.04.16.05.24 0 .07 0 .15-.02.23a.49.49 0 0 1-.12.22c-.06-.08-.08-.16-.1-.22l-.03-.21v-.22c.02-.08.03-.16.08-.25z"/>
      </g>
      <path fill="#F6F6F6" stroke-linejoin="round" d="M80.23 64.53c.65 0 .9.68.74 1.17-.16.5-.79.72-1.19.59-.65-.22-.84-.74-.68-1.24.13-.4.49-.54 1.13-.52z"/>
      <g stroke="none" fill="#000">
        <path d="M79.93 64.55c.17-.01.13.23.16.62.02.38-.12.64-.32.58-.2-.07-.28-.31-.3-.64-.03-.34.28-.55.46-.56z"/>
        <path d="M78.84 64.22c.03.14.1.26.22.28a.8.8 0 0 0 .36 0l.2-.04.2-.05c.15-.04.3-.05.46-.05a2.05 2.05 0 0 1 1.27.4c.13.1.22.2.31.33a3 3 0 0 0-1.58-.4c-.13.01-.28.01-.4.03l-.22.04-.23.02c-.15 0-.33-.01-.47-.12a.33.33 0 0 1-.14-.21.55.55 0 0 1 .02-.23zm-1.49 2.03-.27.03c-.09 0-.16 0-.22.03-.07.01-.12.03-.18.06s-.1.1-.15.2a.3.3 0 0 1-.01-.34c.05-.1.17-.17.28-.2a.62.62 0 0 1 .32.01c.08.06.17.13.23.21z"/>
      </g>
    </g>
    <g>
      <g class="secondary">
        <path stroke-linejoin="round" d="M95.27 62.24c0-.19-.51-.56-.51-.56l.08-.73-.69-.27s-.01-.7-.18-.73c-.35-.04-.94 1.27-1.1 1.9l-5.32 3.84c-.1.08-.04.15.02.26.08.12.15.23.27.15l5.28-3.8c.62.15 2.14.38 2.15-.06z"/>
        <g stroke="none" fill="#000">
          <path d="m93.44 61.8.13-.14c.04-.05.1-.07.15-.1.06-.03.11-.06.18-.07.05-.02.12-.03.18-.02l-.13.14c-.04.05-.1.07-.15.1-.06.02-.11.06-.18.07l-.19.02z"/>
          <path d="M93.44 61.8c.1-.01.22 0 .33.01l.31.06a2.52 2.52 0 0 1 .6.22h-.32l-.32-.06-.3-.09-.3-.14z"/>
        </g>
        <path stroke-linejoin="round" d="m95.73 64.48.25-.68-.62-.43s.14-.7-.01-.75c-.37-.13-1.31 1.05-1.63 1.59l-5.6 2.03c-.1.04-.15.12-.12.22l.05.14c.03.08.13.14.22.1l5.62-2.04c.62.34 2.13.82 2.22.47.05-.17-.38-.65-.38-.65z"/>
        <g stroke="none" fill="#000">
          <path d="M94.33 64.3a6.6 6.6 0 0 1 .3-.59l.2-.26c.06-.09.13-.17.23-.24a6.6 6.6 0 0 1-.3.6l-.2.25-.23.25z"/>
          <path d="M94.33 64.3a.44.44 0 0 1 .17-.1.64.64 0 0 1 .19-.07l.2-.03a.46.46 0 0 1 .2 0 .44.44 0 0 1-.17.12.64.64 0 0 1-.19.06l-.2.04-.2-.01z"/>
          <path d="m94.33 64.3.35.08.33.13.32.15.3.2c-.13-.01-.24-.05-.36-.08l-.33-.12-.32-.16-.3-.2z"/>
        </g>
        <path stroke-linejoin="round" d="m96.13 67.38.4-.62-.51-.55s.3-.64.17-.73c-.36-.23-1.52.79-1.96 1.24l-5.68.3c-.1 0-.17.08-.16.18v.14c.02.1.1.17.18.17l5.71-.3c.55.47 1.96 1.15 2.08.9.08-.17-.23-.73-.23-.73z"/>
        <g stroke="none" fill="#000">
          <path d="M94.79 66.9c.05-.1.12-.2.2-.27.06-.09.14-.17.23-.23a2.32 2.32 0 0 1 .54-.39c-.06.1-.13.19-.2.27l-.23.23a2.32 2.32 0 0 1-.54.38z"/>
          <path d="m94.79 66.9.2-.09a1.35 1.35 0 0 1 .43 0c.06 0 .14.02.2.05l-.2.08-.21.02-.21-.01c-.07-.01-.14-.02-.21-.06z"/>
          <path d="M94.79 66.9c.12.04.22.1.33.15.1.05.2.12.3.2l.27.21c.09.08.18.17.25.27l-.33-.16c-.1-.05-.2-.12-.3-.2l-.27-.21c-.09-.1-.18-.17-.25-.27z"/>
        </g>
        <path stroke-linejoin="round" d="m95.62 70.31.59-.44-.29-.69s.5-.5.4-.63c-.25-.32-1.66.17-2.24.45l-5.16-1.02a.18.18 0 0 0-.2.12l-.04.13c-.02.1.04.2.12.22l5.17 1.03c.34.62 1.36 1.84 1.62 1.6.14-.13.03-.77.03-.77z"/>
        <g stroke="none" fill="#000">
          <path d="M94.53 69.4c.1-.08.18-.13.28-.19a3.65 3.65 0 0 1 .94-.33c-.1.08-.18.14-.28.19a3.65 3.65 0 0 1-.6.25c-.12.04-.21.07-.34.08z"/>
          <path d="M94.53 69.4a.66.66 0 0 1 .21 0l.2.04.19.08c.05.03.12.07.16.12a.66.66 0 0 1-.2 0l-.2-.04-.19-.08a.79.79 0 0 1-.17-.12z"/>
          <path d="M94.53 69.4a2.73 2.73 0 0 1 .47.54c.06.1.13.2.17.3.06.1.11.2.15.33a2.73 2.73 0 0 1-.64-.84c-.06-.11-.11-.2-.15-.33z"/>
        </g>
        <path stroke-linejoin="round" d="m94.4 72.96.65-.3-.12-.74s.6-.38.53-.53c-.18-.38-1.7-.16-2.31-.02l-4.24-2.32a.17.17 0 0 0-.24.06l-.06.12c-.05.08-.03.2.06.24l4.26 2.33c.2.7 1.03 2.02 1.26 1.89.16-.09.2-.73.2-.73z"/>
        <g stroke="none" fill="#000">
          <path d="M93.53 71.83c.1-.05.21-.09.31-.12l.32-.08.32-.04c.11-.01.22-.01.33.01-.1.06-.2.09-.3.12l-.33.08-.32.04h-.33zm0 0a.66.66 0 0 1 .21.06l.19.08.18.13c.05.04.1.1.14.16a.66.66 0 0 1-.21-.06l-.19-.08-.17-.12-.15-.17z"/>
          <path d="M93.53 71.83a4.27 4.27 0 0 1 .44.98c.04.11.06.23.07.35a1.76 1.76 0 0 1-.19-.3l-.14-.34c-.04-.1-.09-.22-.11-.34a1.81 1.81 0 0 1-.07-.35zm-.1-10.03.04-.33.08-.32.1-.3.16-.3-.03.34-.08.32-.11.3c-.05.1-.09.2-.16.29z"/>
        </g>
      </g>
      <g stroke="none" fill="#000">
        <path d="M84.66 68.33c.05.05.06.1.07.14 0 .04 0 .08-.04.12-.02.03-.07.05-.11.06-.04.01-.1 0-.15-.04l.02-.13.02-.07.06-.04.13-.04zm-.92.49a.3.3 0 0 1 0 .22.41.41 0 0 1-.14.16c-.06.05-.13.07-.2.07s-.16-.02-.22-.09l.16-.12.12-.09.12-.06.16-.1z"/>
      </g>
    </g>
  </g>
</svg>
