<svg xmlns="http://www.w3.org/2000/svg" fill="#d7374a" stroke="#000" viewBox="50 50 200 200">
  <metadata source="http://www.wappenwiki.org/images/8/8d/Peruzzi.svg" license="https://creativecommons.org/licenses/by-nc-sa/3.0"/>
  <g id="pear" stroke-width="2.5" transform="translate(57 46.9) scale(0.263)">
    <g>
      <g>
        <path d="M168.2 107.6c-40.1 0-29.8 66.2-62.6 111.1-13.4 18.4-24.3 33.2-24.3 55.9 0 25.6 3.9 33.6 18.1 49.6 12 13.6 33 17.3 41.5 17.3 10.9 0 21.1-7.7 27.7-5 9.9 4 10.8 5 21.8 5 10.2 0 30.1-3.7 42.2-17.3a62 62 0 0 0 18.7-48.9c0-22.7-12.4-40.4-25.6-56-43.8-60.1-17.7-111.7-57.5-111.7z"/>
        <path stroke-linejoin="round" d="M137.8 349c10.4 1.6 19.6-4 21-6.7.7 1.8 1.7 10 2.9 11.6.4-1.6 1.1-9.6 2.1-10.9 2.1 2.9 15.2 7.4 20.4 5.8-6.1-1.5-16.3-5.9-15.6-12.3.5-4.7-8.4-5.1-13.3-4.5v.1c1.2 9.4-10.2 16.6-17.5 16.9z"/>
        <g stroke="none" fill="#000">
          <path d="M145.6 335.7c1.2-1.4 2.6-2.4 4.3-3.3a12 12 0 0 1 2.6-1.1c.9-.3 1.9-.4 2.8-.5v2.5l-2.4.1-2.4.5-2.4.9c-.7.4-1.6.7-2.5.9z"/>
        </g>
      </g>
      <g>
        <path class="secondary" d="M255.7 140.7c-1-3.8-2.3-6.8-4.2-10.2a50.1 50.1 0 0 0-17-16c-3.4-2.1-8-3.2-11.8-4.5-2.6-.9-5.2-1.1-7.9-1-1.7 0-5.2.8-6.4-.9-1.5-2.2-3.7-5.5-5.8-8.1a95 95 0 0 0-23.2-21.2c5.5-12.4 11.3-18.7 11.3-18.7s1.3-3.7-4.7-7.6c-6-3.9-9.5-.7-9.5-.7s-5.9 14.9-9.2 31a90.5 90.5 0 0 0-19.9 9.1c-1.6.8-6.4 4.5-8.6 6-1.7 1.2-4.7-.8-6.3-1.5-2.5-1.1-5-1.8-7.7-1.9-4.1-.2-8.7-.9-12.7-.1a49.6 49.6 0 0 0-21.7 8.6 36.5 36.5 0 0 0-7.7 8c-2.8 3.9-5.5 8-6.9 12.6-.9 2.8-1.3 5.7-1.7 8.5-1.3 8.2-2.6 16.3-5 24.3-.2.6-.3 1.3 0 1.8.2.3.5.5.9.6 2.5 1.1 5.3 1.4 8 1.4 2.5 0 5.6.2 8-.4l4.8-1.2c4.6-1.2 9.1-1.7 13.6-3.3a55 55 0 0 0 13.2-6.8 50 50 0 0 0 24-35.9l.8-5.9c0-.6-.2-3.6.2-3.9a34 34 0 0 1 7.3-4.8c4.3-1.9 9.8-4.6 15.9-6.2l-.5 4.5c-.8 7.5-.9 19.8-.9 19.8s.7 1 2.7 1 2.8-.8 2.8-.8 2.5-20.9 6.2-29.4l.5-1.2a107 107 0 0 1 21.4 18.5c.7 1 3.4 4.2 5 7.1.2.4-1 3.1-1.2 3.7a63.2 63.2 0 0 0-2.3 23.7c.7 9.3 5.1 16.7 10 24.2 2.7 4.1 6 7.9 9.7 11.1 3.6 3.1 7.7 5.3 11.5 8l4 2.9c2 1.5 5 2.4 7.3 3.3 2.5 1 5.2 1.7 7.9 1.6.4 0 .7 0 1-.2.5-.3.6-1.1.7-1.7.8-8.3 2.5-16.3 4.3-24.4.6-2.8 1.3-5.7 1.5-8.6.5-4.8-.5-9.6-1.7-14.2z"/>
        <g stroke="none" fill="#000">
          <path d="M248.6 163.6a7 7 0 0 1-3.1-.9 15.6 15.6 0 0 1-4.6-3.8l-1.9-2.2.1-.4c1.2 0 2.2.5 3.1 1 .9.5 1.7 1.2 2.4 1.8l2.1 2.1c.7.7 1.3 1.4 1.9 2.4z"/>
          <path d="M248.8 150.1a15 15 0 0 1-5-1.4 58.3 58.3 0 0 1-12.3-8.6l.2-.4c1.7.3 3.3 1 4.8 1.8l4.3 2.6 4 2.9 4 3.1z"/>
          <path d="M232.7 160.9c.3 1.2.2 2.3.1 3.4a30.6 30.6 0 0 1-1.4 6.3l-1.1 3-.4.1c-.6-1.1-.6-2.3-.6-3.5.1-1.1.2-2.2.5-3.3a16.3 16.3 0 0 1 2.9-6z"/>
          <path d="M222.2 142.3c0 1.5-.3 3-.6 4.5l-1.2 4.2-1.6 4.1c-.6 1.3-1.1 2.7-1.9 4l-.4-.1c-.2-1.5 0-3.1.2-4.5a30.3 30.3 0 0 1 5.5-12.2z"/>
          <path d="m246.1 132.3-6.6-2.4c-2.2-.8-4.3-1.7-6.4-2.7l-6.3-3a73.9 73.9 0 0 1-6.1-3.5l.1-.4a75.7 75.7 0 0 1 13.3 4.5c2.1 1 4.2 2 6.2 3.2 2.1 1.3 4.1 2.6 5.8 4.3z"/>
          <path d="M211.8 123.5c.4 1.9.2 3.9-.2 5.7-.3 1.9-.8 3.7-1.3 5.4l-1.6 5.2c-.5 1.7-.9 3.4-1 5.3l-.4.1c-.8-1.8-.8-3.9-.6-5.8a34.8 34.8 0 0 1 3.1-10.8l2-5.1z"/>
          <path d="M247.1 177.6a52 52 0 0 1-6.1-7.9 149.5 149.5 0 0 1-9.6-17.5l-2.1-4.6-2.2-4.4c-3-5.9-6.2-11.8-9.6-17.5l-5-8.6-5.3-8.5 2.1-1.3 5 8.6 4.8 8.8a298 298 0 0 1 11.2 22.4l1.9 4.6 4.2 9c1.5 3 3.1 5.9 4.8 8.7 1.7 2.8 3.6 5.6 5.9 8v.2z"/>
          <path d="m81 134.7 2.7-1.5 2.7-1.2 2.9-.8a7 7 0 0 1 3.2.2v.4l-2.6 1.4-2.7 1.2c-.9.3-1.9.6-3 .7a6 6 0 0 1-3.2-.4z"/>
          <path d="m85.8 122.1 4.8-1.3 4.8-1.2a27.4 27.4 0 0 1 10.1-.7v.4l-4.8 1.5a42 42 0 0 1-9.8 1.9c-1.7.1-3.4 0-5.1-.6z"/>
          <path d="M96.9 138.1a18.8 18.8 0 0 1-.3 9.9 6.2 6.2 0 0 1-1.8 3l-.3-.2.1-3.2a36.6 36.6 0 0 1 1-6.4c.2-1.1.5-2.1 1.3-3.1z"/>
          <path d="M113.6 124.6c.4 1.5.6 3 .8 4.4.2 1.5.2 2.9.2 4.4 0 1.5-.2 3-.4 4.5-.3 1.5-.7 3-1.4 4.3l-.4-.1-.3-4.4v-4.4l.4-4.4c.2-1.3.5-2.8 1.1-4.3z"/>
          <path d="M94.8 106.5a33 33 0 0 1 6.9-1.6c2.3-.4 4.6-.5 7-.7 2.3-.1 4.7-.2 7-.1s4.7.2 7 .7v.4a153.6 153.6 0 0 1-13.9 1.5l-7 .1-7-.3z"/>
          <path d="m130.1 111-.1 5.6c0 1.8 0 3.7-.2 5.6-.1 1.9-.4 3.8-.9 5.6a11 11 0 0 1-2.7 5.1l-.3-.2c.6-1.8.8-3.5 1-5.3l.4-5.4.7-5.6c.4-1.9.9-3.8 2.1-5.4z"/>
          <path d="M77.2 148.1c3-1.4 5.7-3.3 8.4-5.3a117.3 117.3 0 0 0 15-13.1l3.5-3.5 3.6-3.5c4.9-4.6 9.9-9 15-13.2l7.7-6.4 7.8-6.2 1.5 2c-2.7 2-5.4 3.9-8 6l-7.8 6.2c-5.2 4.1-10.3 8.3-15.3 12.7l-3.7 3.3-3.6 3.5a118 118 0 0 1-7.5 6.6c-2.5 2.2-5.2 4.2-7.9 6.2a52.7 52.7 0 0 1-8.6 5.1l-.1-.4z"/>
        </g>
        <g stroke="none" fill="#000">
          <path d="M179 80c-.8-.4-1.2-.8-1.6-1.2l-1.1-1.5-.7-1.6-.3-1.7c.3.5.5 1 .9 1.4l1.1 1.1 1.2.8.7.2.6.1-.8 2.4z"/>
          <path d="m175.8 86.5-.9-1.3-.8-1.4a8 8 0 0 1-.9-3c.5.9 1.2 1.6 1.9 2.2l1.2.9 1.2.7-1.7 1.9z"/>
        </g>
        <path fill="none" d="M167.4 82.7c-.8 2.8-1.5 8.9-1.5 8.9"/>
      </g>
    </g>
  </g>
</svg>
