<svg xmlns="http://www.w3.org/2000/svg" fill="#d7374a" stroke="#000" viewBox="50 50 200 200"><metadata license="https://creativecommons.org/licenses/by-nc-sa/3.0" source="http://wappenwiki.org"/><g id="pegasus" stroke-width=".33"><path d="M129.07 104.19c-.39 1.14 0 2.02-1.38 3.54.55 1.1-.04 1.63.5 2.18.38 1.49-1.11 1.36-.48 3.02.16 0 .98-.24 1.3-.83.27.07 1.06-.15 1.44-.64.29-.15.4-.81 1.02-1.35s1.61-.76 2.25-.24a1.54 1.54 0 01.54 1c.44-.98-.25-2.23-1.27-2.55-1.03-.32-2.2.18-2.83 1.06a6.42 6.42 0 00.6-4.46 1.85 1.85 0 01.19-1.51c.2-.4.6-.73 1.05-.76.34-.02 1.03.1 1.25.7.2-.37.05-.77-.15-1.04-.32-.43-1.07-.63-1.6-.6-.7.05-1.35.4-1.77.94-.33.46-.5 1-.66 1.54z"/><path d="M129.47 100.5c-1.91 2.28-.53 3.72-2 6.3-1.05-.9-.25-1.17-1.03-2.12-.26-.83-.5-.92-.72-1.22-.47-.67-.36-1.56-.06-2.53.48-1.6 1.34-2.09 2.25-2.4 1.2-.43 2.21-.42 3.42-.55 1.07-.12 2.1-.27 2.5-1.44.18-.52.14-1.1-.12-1.58a2.29 2.29 0 01.08 3.44 4.58 4.58 0 01-1.49.78c-1.03.36-2.04.5-2.83 1.32zm-6.53-4.1c.02 1.36 1.12 1.2 1.12 1.2.08.2-.2.99 0 1 .58.28 1.28 0 1.91-.42a5.4 5.4 0 012.13-.9c.96-.3 1.97-.45 2.87-.9 1.33-.64 2.39-1.63 2.2-3.03 0 0 1.22-1.1.83-2.49 0 0 .42-1.63 1.91-.98.82.35 1.17 1.42.8 2.24a2.26 2.26 0 00.46-3.33 2.28 2.28 0 00-2.04-.94c-1.02.05-1.72.72-2.35 1.48-.28.33-.53.7-.8 1.02a7.66 7.66 0 01-3.84 2.33c.36-.11 2.52-1.28 2.9-3.2a4.59 4.59 0 01-1.59 1.4c-.75.36-1.37.4-2.09.72a10.65 10.65 0 00-3.47 2.4 3.88 3.88 0 00-.95 2.4z"/><path d="M121.67 113.86c-2.16-1.17-2.4-2.8-3.05-3.56l-.66-3.73c.5.81 3.14 5.29 5.82 5.29 1.37 0 2.32-.62 2.32-2.06 0-3.33-4.42-4.39-4.42-9.93a6.3 6.3 0 011.25-3.47c.02 1.36 1.12 1.2 1.12 1.2.08.2-.21.99 0 1 .58.28 1.28 0 1.91-.42-.33.9-1.65 1.36-1.65 2.56 0 1.45 1.06 2.3 1.4 2.71.21.3.46.39.72 1.22.78.95-.03 1.22 1.03 2.13.12.34.32.57.23.92.55 1.1.01 1.5.5 2.18.38 1.49-1.11 1.35-.48 3.02-.46.92-2.55 2.3-4.18 1.72-.08.27-.2.53-.36.76-.44.63-1.11.82-1.84.6.87-.63 1.17-1.58.34-2.14z"/><path d="M92.44 87.13c-.54-.9-2-.88-2.75-1.23-.5-.44-.91-.6-1.45-1a24.68 24.68 0 01-4.26-4.64c-1.3-1.71-1.39-2.58-2.5-3.09-.35-.17-.83.16-1.85.36-.62.12-1.5-.1-1.93.1-1.14.5-1.5.96-2.8 1.41a6.3 6.3 0 01-2.66.25 4.48 4.48 0 00-3.96 1.94c-.57.78-.86 1-1.62 1.41-.76.42-2.32.98-2.48 1.66 2.01-.08 5.28 1.4 5.28 1.4s.6-.15.64-.43c.08-.7-.82-.85-.53-1.22.3-.34.47-.64.97-.65.75 0 .7.88 1.37.77.41-.08.47-.1.68-.35.31-.53-.47-1.52.56-1.76.27-.15 1.3-.1 2.47-.44 1.37-.35 2.06-.87 2.56-.84.63.44 1.67.23 1.97.36.98.43 1.06 2.88 1.52 5.07.25 1.24 1.62 3.12 2.55 4.31.78 1 .16 1.32 2.75 2.73 1.23.67 3.24.16 4.4-.62a4.1 4.1 0 001.07-5.5zM91.33 63.6A5.93 5.93 0 0190 59.7c1.35 1.68 2.86 1.93 4.12 2.82"/><path d="M90.72 64c.03.02-.37-.33-.97-.41-.77-.03-.77.71-1.76.68-.63-.02-.92-.99-1.4-1.57-.36-.44-.89-.53-.8-.58 1.43-.5 1.63.92 2.34.94.7.02.18-.64.87-1.1s1.08-.01 1.62.01c.1-.16 1.56-1.74 2.3-1.1l2.83-.37s.44-.83 1.4-.8c.96.04 1.22 1.05 1.72 1.06.02.01.18-.57.65-1 .46-.43 1.14.15 1.52-.5.37-.67-.7-1.26-.65-1.3.08-.23 1.7.3 1.66 1.27-.03.88-.35 1.14-.42 1.14.14.1 1.24-.33 2.15.13.91.45 1.13 1.48 1.71 1.5.88 0 .58-1.2.66-1.23.1-.02.55.4.53.96-.02.58-.53 1.34-1.29 1.3-.78-.02-1.34-.32-1.4-.34.04.12.56.4.97.48a4.9 4.9 0 011.64.62c.74.51 1.04 1.85 1.57 1.87.36 0 .53-.22.54-.59 0-.56-.52-.7-.48-.85.05-.17 1.63.41 1.59 1.65-.07 1.06-.6 1.53-1.28 1.85l.46.15c2.33.97 1.28 3.05 1.43 3.61.03.08.16.26.61.29.66.02.32-1 .42-1.1.1-.1.75.33.71 1-.04 1.13-1.14 1.3-1.24 1.3-.01.17.45 1 1.06 1.03.16.01.48-.34.95-.32.48.02.73.58.69.66-.05.08-.38-.13-.64-.05-.38.1-.4.62-1.01.84s-1.27.01-1.27.01.62.53.74 1.17c.13.7-.07.88.06 1.39.18.65.5 1.64.27 2.77-.24 1.14-.9 1.5-.94 1.43-.04-.06.14-1.2-.76-2.07.26 1.6-.75 2.86-1.38 3.15 0 0-.8.4-1.88.24-.15-.04-.16-.17-.1-.26.05-.21-2.7-1.02-2.37-2.38.54-2.38 3.37-6.64.7-11.5-2.62-4.69-4.9-5-7.7-5.41l-3.53.08c-1.42.22-2.51-.5-3.1.26zM69.44 85.38c.02.36.12 1.16-.5 1.68-.81.74-4.7 2.65-6.48 1.21-.5-.37 1.46-1.87 1.77-3.97.17-.78 2.65.03 2.65.03s2.56.75 2.56 1.05zm.97 17.66c.16.33.57 1.02.22 1.74-.45 1-3.28 4.3-5.47 3.69-.6-.14.6-2.3.05-4.35-.15-.78 2.46-1.02 2.46-1.02s2.62-.33 2.74-.06zm36.89 39.34c.06.36.25 1.13-.3 1.73-.73.82-4.37 3.16-6.3 1.95-.54-.32 1.24-2.04 1.3-4.15.08-.8 2.65-.28 2.65-.28s2.61.44 2.65.75zM83.05 129.9c.01.37.08 1.15-.55 1.66-.83.7-4.8 2.47-6.52.97-.49-.4 1.53-1.82 1.91-3.9.2-.78 2.65.12 2.65.12s2.52.85 2.51 1.15z"/><path d="M105.06 111.57c-4.17.28-4.87-.59-6.97-.38-4.15.27-5.5 1.53-6.29 2.75a6.5 6.5 0 00-.09 3.85c-.77 2.95 3.14 4.62 2.3 5.58-.45.46-2.07.97-3.43.82-2.15-.25-3.35-.52-4.05-.97-1.46-.9-1.93.76-3.25 2.11-.65.6-2.13 1.33-2.91 1.72-.77.38-2.36.89-2.55 1.57 2.02 0 5.23 1.59 5.23 1.59s.6-.14.65-.41c.11-.7-.78-.87-.48-1.24.3-.33.47-.64.95-.58.74.14.7.82 1.4.83.41 0 .21-.06.44-.25.39-.43-.05-1.14 1.02-1.93.2-.23.35-.06 1.56.14 1.16.19 2.97-.06 3.39.21.58.39 1.05.76 1.68 1 1.63.47 2.49-.26 2.93-.16.76.67 1.74.68 2.5-.14.66-.8-.15-1.31-.07-3.17.08-1.24-1.01-1.88-.1-2.98.49-.7 5.03-.8 7.24-3.6.36-.43.87-.93 1.23-1.37.26-.32.5-.65.67-1.03.2-.51.25-1.07.23-1.62a3.38 3.38 0 00-.53-1.94c-.58-.8-1.7-.46-2.7-.4z"/><path d="M108.11 73.58a17.8 17.8 0 00-1.7-4.5c-2.6-4.68-6.21-6.33-9.02-6.76-.48-.68-1-1.42-1.64-1.82 0 0-2.53-1.4-3.38-2.81-.14 1.1.05 2.2.54 3.2.23.44.76 1.29.92 1.54-1.2.11-2.32.69-3.12 1.6-.5 1.12-1.12 1.15-1.65 1.81-.48.6-.13 1.41-1.04 2.23-.95.83-1.79 1.53-2.87 2.49-1.07.95-.99.83-1.2 1-.61.47-1.12.48-1.43 1.02-.3.48.04 1.25.04 1.83-.01.58-.15.93-.06 1.52.05.28.08.57.29.85.25.33.67.47 1.07.37.83-.22 1.46-1.46 2.4-1.75.17-.05.31-.06.41.02s.12.24-.06.48c-.19.26-.44.37-1 .75-.6.41-.95.78-1.02 1.01-.03.15-.04.34.15.45.22.12.51-.16.51-.16s.2-.13.52-.03c.21.06.73.09 1.02-.13.4-.3.3-.6.73-1.05.4-.38 1.05-.64 1.65-.9 1.9-.72 2.72-.83 2.72-.83s1.14.34 2.59.01c.89-.2 1.9-.88 1.9-.88s.65 1.26.65 2.47c0 2.1-.91 3.23-2.06 4.32-1.86 1.8-3.26 2.03-4.92 3.7-.64.63-.8 1.49-.93 1.64-.4.4-1.3.45-1.73 1.2-.78 1.42-.52 1.66-.8 2.6-1.28 1.75-.57 2.75-.57 2.75-1.33.04-3.77.17-5.06-.39-2.04-.69-1.77-1.28-3-1.28-.39 0-.68.5-1.52 1.1-.5.37-1.4.54-1.7.89-.83.95-.79 1.44-1.78 2.39a7.27 7.27 0 01-2.52 1.45c-.8.25-2 .52-2.65 2.45-.36.9-.49 1.5-1.03 2.18-.52.69-1.75 1.83-1.61 2.52 1.81-.87 5.4-.81 5.4-.81s.5-.39.42-.65c-.2-.67-1.08-.45-.98-.91.14-.44.05-.66.53-.8.72-.2.9.68 1.53.38.37-.18.43-.21.56-.5.17-.6-1.02-1.08-.19-1.72.2-.25 1.14-.64 2.07-1.45 1.1-.88 1.5-1.65 1.97-1.83.77.12 1.64-.54 1.97-.54 1.07-.03 2.42 1.75 4.03 3.29.92.88 3.12 1.64 4.55 2.08 1.21.37.7.48 1.93.86.3.08.43-.1.86-.08.76 2.68 5.9 6.48 10.49 7.61 2.63.87 4.8 2.03 5.62 3.76-.28 1.18-.73 2.32-.93 3.52s-.14 3.38.53 4.4a6.77 6.77 0 002.54 3.67c2.7 2.3 5.1 3.98 5.1 5.26-.02 1.14-.5 3.08-1.4 4.1-1.45 1.61-2.36 2.44-3.13 2.74-.77.31-1.62-.03-2.8 1.64-.6.76-.9 1.3-1.6 1.8s-2.2 1.24-2.28 1.93c1.99-.3 5.4.77 5.4.77s.59-.22.59-.5c0-.7-.9-.74-.68-1.15.27-.37.37-.7.87-.7.75.02.82.7 1.5.6.4-.06.58-.25.8-.5.33-.52-.6-.98.33-1.92.18-.26 1.1-.72 1.95-1.6.84-.84 1.34-2 1.82-2.2.65-.26 1.3-.5 1.86-.89 1.32-1.05 1.26-2.06 1.67-2.28 1.01 0 1.76-.63 1.78-1.75-.03-.8-1.46-1.44-2.25-2.62-.8-1.18-2.52-3.68-2.52-4.2 0-.23 1.95-2.66 2.81-4.62.87-1.97 1.14-5.8.75-8.04.23.2 1.03.2 1.22.13-.15-.34-.83-.54-.97-1.1 0 0 .68.32.97-.1-.55-.29-1.55-1.76-1.88-2.68-.58-1.36-2.17-2.84-3.52-3.72-1.3-.84-6.94-4.41-7.8-8.93-.92-5.83 1.78-9.31 2.07-10.94 0 0-.8.4-1.87.24-.16-.05-.17-.18-.11-.27.05-.2 1.04-.4 1.25-1.4.04-.2.06-.41.04-.6 0-.2-.04-.4-.04-.6 0-.54.09-.93.48-1.31-.48.23-.69-.14-1.14-.1-.35.05-.65.28-.8.6-.21-.43-.08-1.19.18-1.55.17-.22.38-.4.56-.6 1-.98 1.2-2.15.85-3.77z"/><path d="M72.06 98.62c-.1.24-.2.67-.1.95.13.35.52.54.64.89.2.58.18 1.11.28 1.45.15.47.88.68.88.68-.84.44-1.33-.06-1.56-.37-.4-.55-.97-1.31-1.63-1.49-.36-.08-.77-.14-1-.37m16.83 25.83c-.17.2-.38.6-.35.88.03.37.35.66.37 1.03.03.62-.12 1.13-.12 1.48.01.5.66.9.66.9-.94.2-1.27-.42-1.4-.78-.24-.64-.57-1.52-1.17-1.87-.31-.19-.7-.34-.86-.63m26.65 11.15c-.16.21-.37.6-.35.88.03.38.35.66.37 1.04.04.61-.12 1.12-.12 1.47.01.5.66.9.66.9-.93.2-1.26-.41-1.4-.78-.24-.64-.57-1.52-1.16-1.87-.32-.19-.7-.34-.87-.63M72.54 81.52c-.14.22-.32.62-.26.91.06.36.4.62.46 1 .09.6-.02 1.12.01 1.47.06.48.74.83.74.83-.92.28-1.3-.3-1.47-.65-.3-.61-.7-1.46-1.33-1.75-.33-.15-.73-.27-.92-.55"/><path fill="none" d="M96.4 74.11c.35-.2.73-.6 1.06-1.46a7.27 7.27 0 00.28-2.25M86.03 92.8a6.2 6.2 0 011.3-.04l.88.13m1.61 8.56c.09.06.21-.01.26-.1s.1-.2.2-.24c.13-.06.28.03.4.09.74.34 1.7.05 2.05.06"/><path fill="#f6f6f6" d="M90.83 67.12a5.94 5.94 0 011.48.8s-.8.69-1.38.61c-.71-.13-.89-.44-.89-.44s.1-.34.29-.6c.15-.23.4-.4.5-.37z"/><path d="M116.59 90.68c-.25 0-.39-.07-.42-.2-.05-.2.1-.39.99-.77l.03-.02c3-.66 8.7-5.55 11.04-8.12 1.24-1.34 2.42-3.06 3.28-4.3l.46-.66c.18-.3.29-.34.37-.34.06 0 .12.03.15.09.06.08.04.22-.07.47a27.37 27.37 0 01-4.06 5.6c-4.34 4.71-8.3 7.23-10.56 8.03a5.17 5.17 0 01-1.21.22zm-.58-4.74c-.1 0-.2-.06-.23-.16-.12-.39.83-1.43 1.38-1.83 6.54-4.81 9.13-8.9 9.78-10.04a38.63 38.63 0 003.33-7.78c.09-.3.18-.44.32-.44.05 0 .1.02.14.07.05.06.08.16.04.45-.12 1.22-1.23 4.64-3.2 8.07-1.17 2.02-3.76 5.45-9.56 10.33-1.58 1.32-1.87 1.33-2 1.33zm-1.89-3.54a.24.24 0 01-.22-.15c-.16-.36.57-1.55 1.01-2.03l.18-.19c4.03-4.31 6.61-8.14 7.7-11.4a38.43 38.43 0 001.8-8.27c.02-.24.06-.5.26-.5.22 0 .23.3.24.48.11 1.22-.33 4.79-1.61 8.53-1.3 3.75-4.58 8.1-7.62 11.84-1.33 1.68-1.62 1.69-1.74 1.69.01 0 0 0 0 0z"/><path d="M103.6 99.58s.8 1.1 3.4.97c.17-.01.88-.14 1.05-.17 5.18-.93 8.57-3.21 8.79-4.9 3.83-.26 7.84-4.06 7.94-4.78 1.92.59 7.3-3.97 7.1-6.38.9-.67 2.3-4 1.38-5.6-.02-.72-.53-1.03-.78-.99-.48.08-1.04 1.28-2.06 2.74a27.94 27.94 0 01-5.79 5.86 16.87 16.87 0 01-5.45 2.87 2.7 2.7 0 01-1 .24c1.07-.33 2.3-.98 3.85-2.75.41-.47.79-1.06.85-1.7 2.72.61 6.68-5.5 6.26-6.3 1.18.09 3.74-3.68 3.34-6.38.97-1.86.74-5.4-.24-5.67-.12-.42-.59-.5-.75-.47-.4.11-.43 1.37-1.2 3.25-3.38 7.76-9.28 12.71-12.68 14.47.11-.08.47-.48.47-.51.6-.25 4.99-3.08 4.7-5.2 1.87.08 4.66-4.77 4.15-6.67 1.04.11 3.06-5.43 2.1-6.58 1.03-.62.27-5.73-.9-5.9-.5-1.62-2.19-1.76-2.43-1.33-.3.48.38 2.27-.2 5.45a32.95 32.95 0 01-2.6 7.33c-1.18 2.14-1.78 3.75-3.39 5.52-2.73 3.03-2.76 3.06-4.2 3.97.52-.49 1-1.28.88-1.6.78.1 4.5-4.4 3.9-5.92 1.22-.05 2.88-5.99 2.14-6.95.6-2.01-.2-4.8-1.22-4.85-1.47-1-1.2.68-1.55 2.48-.12.76-.5 2.47-1.15 3.87a51.05 51.05 0 01-6.33 10.03 46.53 46.53 0 01-6.33 6l-2.4 1.55"/><path d="M101.98 98.94c.3.07.6.14.87.24.27.1 1.27.78 2.1.85 2.2.05 5.3-1.49 5.5-2.1a3.7 3.7 0 001.71.14c3.35-.57 4.82-2.95 4.85-3.31 1.38-.06 3.29-2.67 3.14-3.32a1.8 1.8 0 000-1.27c-.3-2-.71-.6-3.17.87-1.04.71-2.24 1.06-2.24 1.06s1.63-.88 2.27-1.78c.78-1.04 1.04-1.75.8-2.35.42-.88.52-1.9.04-2.5a.47.47 0 00-.3-.16h0c-.51 0-1.13 1.54-3.7 2.58a5.06 5.06 0 00.7-.6c1.35-1.35 1.41-3.07 1.22-3.42.37-1.33.02-2.14-.38-2.43-.15-.1-.27-.11-.32-.1h-.01c-.15.03-.55.5-.86.87a17 17 0 01-2.72 2.41c-.2.19-.9.62-1.06.72.83-.76 1.2-2.63.96-3.14.18-.2.6-2.9-.81-2.72-.56.1-1.38 1.86-4.1 3.63l-3.15 1.43-.06.04m0 0c-1.6.87-4.36 1.92-5 2.2-2.34 1.04-4.43 2.2-5.73 3.9m.5 7.69c2.32 1.72 6.13.58 6.5.51a6.76 6.76 0 012.44.07"/><path fill="none" d="M115.34 79.97c-1.94 2.53-4 3.45-4 3.45m-.93 1.92c-.65.33-1.46.87-1.46.87m6.82-1.22c1.1-.3 1.79-1 1.87-1.1m-3.76 3.99c-.53.44-1.29.96-1.65.86 0 .51-.5.93-.5.93m1.8 2.9a6.3 6.3 0 001.2-.48m3.47-2.66c-.31.13-.8.28-.8.28"/><g fill="#000" stroke="none"><path d="M88.56 72.9c-.05.22-.2.38-.35.54-.12.16-.2.34-.33.49-.06-.4.2-.74.52-.93l.16-.1zm4.92-3.25a5.43 5.43 0 01-1.53 1.68l-1.04.83c.37-.72 1.02-1.23 1.62-1.75.29-.25.62-.46.9-.72l.04-.04zm9.1.75c0-.67-.02-1.4-.32-1.95.42.56.55 1.3.64 1.95h-.32zm-4.68-2.39c-.16.45-1.05-.11-.44-.18.13.09.27.2.44.18zm-1.88 6.42c.17.4 1.05.2.87.64-.34.04-.73-.36-.87-.64zm-4.18.43c-.28-.01-.88.04-.96-.1.3-.2.7-.12.96.1zm3.33-6.68c-.15.27-.7.78-.43.16.12-.32.13-.41.43-.16zM92.6 73.2c.26-.36.58.3.1.09-.03-.03-.05-.08-.1-.09zm.51-.29c.42-.36.46.41 0 0zm.53-.17c.26-.37.34.37 0 0zm.5-.13c.27-.37.26.4 0 0zm-5.29 3c.21-.53.56.2 0 0zm.39-.39c.12-.48.44.27 0 0zm.4-.23c.1-.48.36.24 0 0zm5.8-4.04c-.06-.53.56.03 0 0zm.23-.47c-.17-.4.43.03 0-.01zm.04 2.3c-.4-.28.4-.26 0 0zm-.36-1.32c-.2-.44.5-.1 0 0zm0 .47c-.28-.39.48-.18 0 0zm.14.45c-.3-.34.44-.22 0 0zm-5.28 5.4c.33-.05.76-.6.89-.56-.27.2-.45.88-.79.78-.03-.07-.05-.15-.1-.22zm-.88-4.6c-.04-.3-.44-.76-.4-.87.38.04.56.56.4.87zm7.3-6.07c.3-.31.97.64.35.27-.12-.1-.22-.2-.35-.27zm.86-1.7c-.44.02-1.38.1-1.5-.12.46-.28 1.1-.23 1.5.12z" transform="translate(-5)"/><path d="M97.29 67.11c-.13-.04-.26-.09-.4-.1a1.05 1.05 0 00-.7.02l-.44.22a.74.74 0 01-.52.04c-.32-.05-.55-.52-.33-.73-.02.18.06.37.24.42.1.03.21.04.31.02.16-.04.28-.14.43-.2a1 1 0 01.7-.12c.27.06.51.23.71.43z" transform="translate(-5)"/><path d="M96.03 67.2c.04.5.05 1.55-.57.64-.06-.16-.1-.36 0-.52m.79 1.62c-.23.4-1.29-.16-.84-.17.28.07.56.12.84.17zm-2.2 6.33c-.55.4-1.1.79-1.68 1.14a2.75 2.75 0 011.68-1.14zm10.79-8.99a11.42 11.42 0 015.19 12.3c.6-4.49-1.26-9.23-4.85-12.02l-.26-.22zm-4.5-1.4c.31.2.9.41.93.68-.41.05-.96-.2-.93-.68zm3.04 9.02c.95.82 1.26 2.28.73 3.41a6.64 6.64 0 00-.73-3.41zm12.34 1.4c-.48-.08-1.17-.81-.36-.35.32.02.45-.05.36.35zm-2.09-7.46c-.3.18-.94-.04-.99-.15.4.21.87-.37.99.15zm2.37 5.27a1.28 1.28 0 01-1.31-.7c.25.45.89.43 1.24.46l.07.24zm-9.22-12.77c0 .23-.75.42-.61.33.22-.36.28-.46.46-.31l.15-.02zm.4 2.25c.55-.43 1.32-.36 1.9-.05-.22.6-.8-.28-1.28-.1-.21 0-.43.06-.62.15zm-3.51-1.25c-.3-.67.78-1.03 0 0zm-4.7.97a11.5 11.5 0 001.13 1.44 9.22 9.22 0 01-1.4-1.23l.27-.2zm3.85 1.11c-.16-.3-.28-.6-.54-.95l.34.02c.08.3.15.62.2.93zm-6.2-.98c-.37-.13-1.57-.56-.68-.52.27.1.48.32.68.52zm17.63 10.9c-.88-1.15-.32-2.92-1.5-3.9-.3-.31-1.2-.86-.32-.45 1.08.44 1.53 1.63 1.52 2.72.03.55.12 1.1.3 1.63zm-2.62-7.14c-.7.05-1.05-.8-1.58-1.13-.37-.5-1.9-.56-1.86-.71.88-.11 1.9.05 2.45.84.32.34.5.87.99 1zm-4.35-4.42c-.68.17-1.3.56-1.98.7-.04-.12.57-.56.83-.64.36-.14.78-.22 1.15-.06zm-2.16-1.06c.52.49-.83 1.58-.8 1.16.1-.5.75-.65.8-1.16zm10.56 17.43c-.83-.59-.72-1.76-1.38-2.48-.03-.31 1.02.72.97 1.23.07.43.23.85.41 1.25zM95.86 63.02c-.59-.02-1.42-.3-1.76.35-.02.35-.93.49-.66.32.52-.19.48-1.01 1.12-1.04.46-.06.93.11 1.3.37zm1.66-4.85c.32 1.4 1.88 1.89 2.6 3.03a5 5 0 01.89 2.7 6.84 6.84 0 00-2.47-3.86c-.53-.48-1.04-1.1-1.02-1.87z" transform="translate(-5)"/><path d="M100.33 63.56a1.55 1.55 0 01-.75-1.88c.19.65.45 1.27.75 1.88zm23.45 45.92c-.39-.15-.92-1.61-.4-.87.14.34.82.54.4.87zm-.22.97c-.3-.58-.75-1.06-1.17-1.56.6.33 1.1.84 1.46 1.42-.09.04-.24.1-.29.14zm-30.43-17.7c.57-.45 1.98-1.18 2.22-1.04-.77.11-1.57 1.4-2.16 1.13.06.01-.12-.1-.06-.09zm-17.2 6.56c.05.28.28.48.5.64.2.16.44.31.6.54.15.23.28.49.28.77a2.89 2.89 0 00-.9-1.06 1.4 1.4 0 01-.44-.57.41.41 0 01-.04-.32zm-.64.51c.15.1.31.21.42.36.06.06.07.12-.02.1a.38.38 0 01-.34-.17c-.07-.08-.12-.2-.06-.29zm14.83 26.73c-.03.33.2.6.38.85.2.26.39.56.43.9.02.16.02.33-.03.49-.05-.52-.37-.96-.64-1.38a1.04 1.04 0 01-.2-.74.34.34 0 01.06-.12zm-.76.31c.15.16.28.34.34.56-.26 0-.46-.3-.36-.53v-.02l.02-.01zm24.54 11.85c-.03.33.2.6.38.85.26.33.48.73.45 1.16 0 .07-.04.33-.05.14-.1-.49-.4-.9-.65-1.31-.13-.23-.25-.51-.16-.77 0-.03.02-.05.03-.07zm-.75.31c.12.16.25.31.32.5.05.12-.2.02-.24-.04-.11-.12-.19-.31-.08-.46zM76.3 81.99c.44.6 1.64 3.04.6 1.33-.3-.38-.75-.8-.6-1.33zm-.73.39c.76.49-.14.64 0 0zm37.78-3.46c.7-.48.61-2.66.62-.67-.04.25-.25 1.26-.62.67zm-9.37 9.5c.55-.6 1.19-1.2 2-1.44.41-.11.88-.1 1.27.1.25.41.27.92.17 1.37-.21.81-.8 1.47-1.46 1.97-.15.04.1-.18.13-.23.46-.56.92-1.16 1.04-1.9.05-.34.02-.7-.14-1.01.11.1.02.07-.06.02-.52-.19-1.09-.02-1.56.22-.5.25-.95.58-1.4.9h.01z" transform="translate(-5)"/><path d="M105.1 89.09c.15-.54.56-1.01 1.06-1.25.08-.05.47-.16.31 0-.33.3-.64.64-.97.94-.1.13-.26.23-.4.31zm1.5 1.57a4.81 4.81 0 012.7-1.38c.41-.02.85.06 1.18.32.31.78.03 1.67-.48 2.3-.4.5-.91.9-1.46 1.25-.03-.14.26-.24.34-.37.62-.61 1.26-1.31 1.4-2.2.08-.24-.05-.71-.04-.8.11.16-.2-.11-.24-.09-.65-.25-1.34-.03-1.95.22-.5.21-.98.48-1.45.75z" transform="translate(-5)"/><path d="M107.84 91.51c.2-.68.84-1.22 1.54-1.3.15-.05.36.05.1.13-.6.3-1.1.78-1.64 1.17zm-7 .72c.87-.72 1.92-1.4 3.1-1.39.38.02.8.12 1.09.38.35.9-.03 1.94-.65 2.63-.42.44-1 1.07-1.53 1.2a5.92 5.92 0 001.8-2.2c.18-.47.24-1 .08-1.49.17.2-.25-.14-.34-.12-.9-.29-1.84.1-2.64.5-.31.15-.61.32-.91.49z" transform="translate(-5)"/><path d="M102.1 93.32c.22-.65.82-1.14 1.46-1.35.11-.02.48-.14.46-.01-.36.23-.72.44-1.06.69l-.85.67zm-3.16-3.27c.52-.5 1.03-1.06 1.69-1.4.38-.2.85-.31 1.27-.16.27.03.35.26.37.5.12.6-.05 1.22-.42 1.7-.32.42-.77.97-1.23 1.14.17-.2.37-.4.53-.6.46-.55.86-1.22.83-1.96.02-.13-.11-.47-.08-.47.1.13-.17-.07-.21-.05-.56-.12-1.11.16-1.56.47l-1.19.83z" transform="translate(-5)"/><path d="M99.94 90.48c.17-.5.59-.87 1.02-1.13.11-.05.4-.21.44-.07-.4.39-.8.78-1.26 1.1a1.7 1.7 0 01-.2.1zm-1.9 3.08c.8-.19 1.62-.45 2.45-.33.43.05.82.3 1.04.67 0 .47-.3.96-.66 1.27-.6.53-1.5.8-2.26.81.24-.15.63-.2.91-.34.67-.27 1.36-.7 1.6-1.4.06-.09.06-.44.1-.2-.34-.55-1.06-.6-1.64-.58-.52.02-1.03.08-1.55.1z" transform="translate(-5)"/><path d="M98.68 94.43c.53-.35 1.27-.63 1.89-.36 0 .1-.13.07-.2.1a9 9 0 01-1.37.28c-.1 0-.26.03-.32-.02zm.97 4.41c.71-.02 1.44.06 2.14-.12.3-.03.63-.39.72-.5.01.2-.06-.2-.1-.22-.33-.7-1.1-1.01-1.8-1.21-.16-.1-.51-.04-.59-.21a3.2 3.2 0 012.42.86c.2.24.34.52.39.83-.19.47-.7.71-1.17.76-.68.07-1.35-.07-2.01-.2z" transform="translate(-5)"/><path d="M100.18 98c.58-.07 1.16.04 1.73.17-.29.33-.94.21-1.34.08-.1-.06-.4-.13-.39-.25zm3.13.17c.75 0 1.5.07 2.25-.07.4-.07.82-.27.99-.66.01.25-.04-.12-.1-.19-.33-.73-1.1-1.13-1.83-1.34-.26-.13-.7-.1-.9-.26.3-.02.63.02.94.08.72.13 1.47.43 1.9 1.06.15.22.28.49.3.76-.19.47-.68.76-1.16.83-.72.11-1.44 0-2.15-.14-.07-.03-.2 0-.24-.07z" transform="translate(-5)"/><path d="M103.9 97.22c.66-.04 1.3.07 1.95.18-.34.37-1.05.17-1.5.05a1.42 1.42 0 01-.45-.23zm5.28 2.05c.84-.02 1.72.1 2.53-.2.24-.02.5-.44.54-.45 0 .18-.08-.3-.14-.32-.37-.67-1.13-1-1.83-1.2l-.72-.19c.62-.1 1.48.1 2.1.46.45.28.83.76.9 1.3-.22.53-.79.77-1.31.81-.7.08-1.4-.04-2.08-.19v-.02z" transform="translate(-5)"/><path d="M109.76 98.37c.48-.07.97.01 1.44.08l.42.09c-.32.33-.99.2-1.41.07-.15-.06-.33-.12-.45-.24zm-4.86-5c.81-.3 1.7-.6 2.58-.48.5.06.98.32 1.29.72.06.92-.58 1.7-1.33 2.15-.47.28-1.1.6-1.58.59.9-.4 1.85-.86 2.35-1.76.17-.22.23-.73.25-.87.04.15-.2-.21-.3-.23-.75-.49-1.71-.38-2.55-.25-.2.05-.57.1-.71.13z" transform="translate(-5)"/><path d="M105.7 94.65c.33-.5.97-.73 1.55-.75.17 0 .33.01.49.04.02.11-.16.1-.23.15-.6.17-1.22.35-1.82.56zm3.66 2.1c1.05-.33 2.21-.7 2.9-1.63.16-.18.27-.58.3-.7.06.2-.12-.2-.18-.22-.65-.77-1.74-.92-2.7-.88-.35 0-.7.04-1.05.08.07-.14.36-.12.51-.18a4.25 4.25 0 012.7.17c.44.21.83.57 1.05 1-.08.68-.56 1.23-1.1 1.6-.72.44-1.63.7-2.43.76z" transform="translate(-5)"/><path d="M109.41 95.1c.77-.14 1.55-.28 2.3-.51-.23.5-1.12.7-1.71.65-.2-.02-.4-.06-.59-.14zm-2.7-9c.73-.61 1.55-1.26 2.53-1.37.42-.04.86.03 1.21.28.37.9-.02 1.9-.65 2.57-.34.35-.78.85-1.21.94.64-.6 1.3-1.28 1.59-2.13.17-.33.03-1.06.02-1.16a2.03 2.03 0 00-1.29-.15c-.8.17-1.5.64-2.2 1.02z" transform="translate(-5)"/><path d="M107.87 86.96c.28-.6.81-1.1 1.45-1.3.2-.08.5.06 0 .22-.44.33-.85.69-1.29 1l-.1.06-.06.03zm2.69-.89c.78-.48 1.68-.92 2.62-.8.33.04.64.2.9.42a2 2 0 01-.52 1.73c-.47.48-1.1.93-1.71 1.1.1-.13.3-.22.44-.33.64-.46 1.28-1.03 1.45-1.83.05-.16.01-.47.02-.55.13.19-.12-.09-.19-.1-.58-.32-1.3-.2-1.9 0-.38.1-.74.23-1.11.36z" transform="translate(-5)"/><path d="M111.46 87.02a2 2 0 011.08-.84c.21-.06.43-.09.65-.05.02.08-.1.08-.14.12-.4.2-.79.44-1.2.63l-.39.14zm2.31-.25c.5-.34 1.08-.61 1.69-.67.37-.03.76.09 1.04.35.09.05.04.2.06.3.02.59-.34 1.12-.8 1.46-.3.25-.67.42-1.03.56-.05-.07.08-.1.12-.14.26-.2.54-.37.76-.6.39-.37.7-.9.62-1.45.13.22-.12-.08-.22-.09-.46-.2-.98-.08-1.45.03a12 12 0 00-.79.25z" transform="translate(-5)"/><path d="M114.4 87.54c.19-.46.7-.77 1.2-.74.18-.04.24.12.05.16-.4.21-.81.45-1.25.58zm-1.44 2.14c.7-.34 1.44-.65 2.21-.73.62-.05 1.29.1 1.7.58.04.15.03.33.01.48a2.48 2.48 0 01-1.17 1.78c-.46.27-1.03.67-1.52.71.61-.33 1.21-.7 1.7-1.2.42-.44.76-1.04.68-1.67.1.22-.14-.1-.24-.13-.57-.36-1.29-.31-1.93-.19-.48.1-.96.24-1.44.37z" transform="translate(-5)"/><path d="M113.9 90.82c.23-.32.57-.56.92-.73.33-.12.7-.23 1.05-.14.02.1-.1.09-.16.13-.6.25-1.18.58-1.82.74zm-3.3-.03c.6-.26 1.24-.51 1.9-.44.38.04.74.23.98.53.04.43-.13.88-.42 1.2-.45.5-1.17.87-1.78.9.52-.33 1.2-.59 1.59-1.13.19-.25.31-.56.31-.88.08.2-.08-.05-.17-.09-.5-.36-1.16-.29-1.74-.2-.21.02-.49.12-.67.11z" transform="translate(-5)"/><path d="M111.15 91.7c.3-.46.9-.7 1.44-.58.28.11-.25.22-.38.28-.35.1-.7.25-1.06.3zm5.48 2.8c.61-.49 1.26-1 1.65-1.7.16-.3.26-.68.17-1.03.16.22-.2-.12-.3-.13-.72-.34-1.55-.1-2.25.17-.25.07-.54.33-.76.31a3.67 3.67 0 012.59-.94 2 2 0 011.02.46c.06.4.04.8-.16 1.16a4.3 4.3 0 01-1.96 1.7z" transform="translate(-5)"/><path d="M116.27 93.24c.46-.4 1.01-.67 1.52-1 .27-.19 0 .3-.09.37-.37.37-.9.65-1.43.63zm-1.95 4.7c.6-.49 1.26-1 1.64-1.69.17-.31.26-.68.18-1.04.14.23-.2-.13-.3-.12-.7-.32-1.47-.14-2.14.13-.3.06-.61.33-.87.34.62-.5 1.37-.9 2.18-.95a2 2 0 011.43.48c.05.32.05.66-.08.97a4.12 4.12 0 01-2.04 1.89z" transform="translate(-5)"/><path d="M113.96 96.68c.5-.37 1.1-.81 1.66-1.02-.24.65-1 1.03-1.66 1.02zm.88-14.15a8.04 8.04 0 01-3.07 3.17c.42-.75 2.07-1.4 2.58-2.48.19-.2.31-.51.49-.69zm6.64 5.74a10.99 10.99 0 01-4.65 3.25c.7-.8 2.62-1.16 3.54-2.18.42-.3.77-.7 1.11-1.07zm1.93 3.78a17.84 17.84 0 01-7.15 4.01c.67-.93 3.13-1.01 4.25-2.04a25 25 0 002.9-1.97zm-3.96-7.63c-.74 1.15-1.93 2.43-3.1 2.81.44-.76 2.1-1.31 2.7-2.36.15-.09.23-.43.4-.45zm18.52-5.54c0-.75.86.25 0 0zm-1.12 5.61c-1.05-.59.43-.49 0 0zm-7.15 6.35c-.56-.83.42-.48 0 0zm7.38-23.91c-.09-.69.7-.14 0 0zm-2.94 11.92c-.8-.42.28-.57 0 0zm-6.32 6.29c-.36-.46.07-.61.12-.2l-.12.2zm9.66-12.68c-.95-.4.05-.82 0 0zm-5.56-.77c-1.05-.59.43-.49 0 0zm-4.11 6.65c-.79-.64.29-.55 0 0zm6.21-13.24c-1.02-.42.15-.7 0 0zm-.82-5.92c-.59.38-.4-.22-.1-.22.03.07.1.17.1.22zm-10.16 24.36c-.8-.64.3-.53 0 0zm2.04-10.93c-.8-.41.25-.57 0 0zm-3.87 5.91c-.81-.6.34-.53 0 0zm6.02-12.84c-1.27-.3.38-.62 0 0zm-1.08-4.92c-.36.61-.47-.01-.18-.15l.18.15zm10.83 8.39c-1.56 6.94-6.43 12.72-12.21 16.65-.33.5-2.55 1.49-1.16.4 5.35-3.38 10.09-8.11 12.42-14.1.39-.94.69-2.05.95-2.95zm.24 11.23a23.34 23.34 0 01-12.01 11.21c.72-1.17 3.43-1.65 4.67-2.9a22.98 22.98 0 007.34-8.31zm-20.76.23c4.18-4.12 7.82-9.13 9.23-14.91.15-.95.28-1.41.08-.17-1.1 5.29-4.22 9.96-7.78 13.94-.43.12-1.1 1.82-1.53 1.14zm16.02-20.28c.53 5.58-1.8 11.05-4.84 15.6-1.8 2.6-4 4.95-6.64 6.73.7-1.4 3.34-2.6 4.41-4.3 3.72-4.3 6.55-9.66 7.07-15.39.08-.87.04-1.8 0-2.64zm-34.93 65.61c-1.78-.48-3.83.32-5.5-.68.8.27 3.4.08 4.88.4.22.06.46.09.62.28zm-9.97 1.4c-.24.57-1.65.89-1.65.67.44-.43 1.11-.46 1.65-.67zm21.13-11.42c-.95 1.53-2.93 1.07-4.4 1.35-.07-.51 2.9-.29 3.88-.99l.26-.17zm-7.5 10.17c-.04-.62.68-1.05 1.24-.9-.41.3-.87.55-1.24.9zm.21-5.04c.21-.68 1.26-3.54.96-1.7a3.22 3.22 0 01-.96 1.7zM86.9 83.25c1.14 2.46 1.8 5.25 3.92 7.12 1.14.91-.9-.4-1.06-.8-1.7-1.66-2.23-4.16-2.86-6.32zm-1.4-3.1c-.64.46-1.56.3-2.21-.06.73-.09 1.5.08 2.21.06zm-3.25-.07c-1.3 1.1-3.1.89-4.67 1.14 1.45-.73 3.2-.4 4.67-1.14zm-7.72 2.74c-.25.56-1.6.92-1.63.72.44-.44 1.08-.5 1.63-.72zm26.57 17.48a4.7 4.7 0 01-3.52 1.06c.58-.59 2.22-.2 3.1-.83.15-.03.3-.15.42-.23zm-7.03-6.78c1.05.72.98 2.5.26.76-.07-.26-.16-.5-.26-.76zm-7.32 3.08c2.11 1.28 4.15 2.81 6.68 3.13-2.64.11-4.82-1.48-6.68-3.13zm6.46 3.94c.72.04 3.44-1.06 1.8-.23-.49.4-1.09.69-1.65.23h-.15zm-9.18-6.4c-.33 1.07-2.97 1.38-2.43.95.95.15 1.55-.84 2.43-.95zm9.67.5c.24-.54-.99-2.08-.22-1.67.26.51.31 1.11.22 1.67zm.57-8.31a7.5 7.5 0 00-1.44 2.63c.1-.7.58-2.89 1.44-2.63zm-12.71 9.64c-1.53 1.14-3.5 1.47-5 2.65 1.42-1.25 3.35-1.7 4.8-2.89l.1.13zm-7.09 4.69c.1.57-1.5 1.9-1.13 1.13.27-.47.75-.76 1.13-1.13zm24.8-15.45c1.17-.77 2.18-.17.36.05-.12 0-.24-.03-.36-.05zm4.06.41c.53-.33 1.57-.15.58.18a.58.58 0 01-.58-.18zm16.28 49.23c-1.86.95-3.43 2.45-5.38 3.21 1.83-1.01 3.37-2.49 5.21-3.49l.09.14zm-7.52 4.97c-.1.64-2.23 1.46-1.3.67.39-.3.86-.45 1.3-.67zm4.8-16.55c1.61.07 2.77 4.99 2.05 3.7-.72-1.22-.77-2.86-2.05-3.7zm5.12 5.24c1.53 1.14.8 1.8 0 0zm-1.56-5.89c-.75 1.2-1.03 1.06-.27-.13.05-.12.2.17.27.13zm-8.54-15.02c1.04.4.12 1.19 0 0zm1.22-.66c.62.03.62 2.05.25 1.11-.11-.36-.25-.72-.25-1.11zm9.17 7.23c.39 1.06-3.14 2.94-1.42 1.5.47-.5 1.14-.86 1.42-1.5zm-1.09 2.68c.28.54-.39 1.05-.89.93.3-.32.7-.52.89-.93zm-.77 1.8c.42.77-.85.91 0 0zm-18.05-12.51c.7.06 3.65-1.53 2.23-.44-.65.4-1.48.7-2.23.44zm-1.68-.95l2.62-1.18a3.13 3.13 0 01-2.62 1.18zm-1-1.55c1.4-.83 2.13-.1.38.05-.13 0-.26-.03-.38-.05zm-1.03-1.12c.83-.5 1.35.3.27.15a.68.68 0 01-.27-.15zm12.08 10.26c.67-1.4-.08-5.2.49-1.76-.14.34.24 2.17-.49 1.76zM92.15 75.2c.7.62-.24 1.47 0 0zm-4.09-.87c.24-.62 1.21-1.08.43-1.78-1.1.74.16-.93.48.15.57.84-.38 1.2-.91 1.63zm47.27 35.13c-.33.57-.6 1.2-1.08 1.67.38-.54.54-1.2.77-1.8l.31.13zm-.55-10.23c-1.82.58-2.87 2.5-2.94 4.32-.14.38.02 1.17-.44 1.29-.33-.34.17-.93.1-1.38.13-1.6.94-3.27 2.4-4.03.23-.1.73-.3.88-.2zm.2 4.8c-.37.93.15 1.94-.02 2.9.09.86-.85 2.51-1.1 2.48.91-1.4.8-3.1.85-4.69.03-.25.12-.5.27-.69zm-3.5 7.47c-.7 1.35-2.56 2.27-3.95 1.41 1.5.4 2.9-.43 3.95-1.41zm-2.19 2.14a6.64 6.64 0 002.8-1.89 2.82 2.82 0 01-2.8 1.89zm9-20.17c-.73.74-1.67 1.37-2.75 1.3-1.56-.04-3.2-.02-4.55.86-.41.24-1.2.95-.4.22 1.27-1.12 2.99-1.35 4.61-1.32.91.02 1.83-.26 2.48-.92.15-.18.75-.76.61-.14zm-4.72-.06c1.27-.9 3.07-.2 4.27-1.21.6-.21.73-1.6 1.3-1.38-.29.88-1 1.71-1.9 2.03-1.2.32-2.52.02-3.67.56zm-.4-.57c-1.42.32-2.96.87-3.85 2.09.56-1.17 1.86-1.77 3.01-2.21.2-.08 1.4-.47.84.12zm-4.8 9.36c.26 1.25 1.26 2.16 1.95 3.18.92 1.24 1.81 2.66 1.73 4.26-.26-2.58-2.46-4.3-3.5-6.55a2.2 2.2 0 01-.18-.89zm-.03 11.39c.25.2.55.98.27 1.08-.46-.02.12-.78-.27-1.08z" transform="translate(-5)"/></g></g></svg>