<svg xmlns="http://www.w3.org/2000/svg" fill="#d7374a" stroke="#000" viewBox="50 50 200 200">
  <metadata source="http://wappenwiki.org/images/7/71/MacGregor_Glengyle.svg" license="https://creativecommons.org/licenses/by-nc-sa/3.0"/>
  <g id="pineTree" stroke-width="3" transform="translate(130 47.9) scale(0.114)">
    <path class="secondary" d="M-285 546.6a514 514 0 0 1 1.2 90.4l.4 39.3s-1.2 30.4-1.8 38.7c-.6 8.3 0 47-.4 52.7-.4 5.7 1.4 6.9.9 13-.4 6.1.8 15.7.1 18.2l48 9.4c-.8-4.2-3-15.6-2.2-25.9.1-4 .8-22.4.5-26.3-.3-3.9-2.8-24.9-3.2-29.8-.4-4.9.5-24.4.2-27.9l-2.2-25.4c-.3-3.5 1.1-14.5.7-19.9-.4-5.5-.7-30.1-.7-30.1s-1.3-22.2-1.3-27c-.9-13.8.9-40.8 2.4-49.2l-42.6-.2z"/>
    <path stroke-linejoin="round" d="M-77.9 495.4c-2.8-.7-7.5 3-10.1 4.1-9.4 4.9-33.3 5.5-48.5 5.5-14.4 0-46.5-4.6-58.7-12.2-3.8-2.3-23.5-21-32.6-35.3 1.1-2.2 4.1-5.7 5.7-4.9 2.1 1 .1 7 3.3 6.2 2.3-.5 3.4-9.8 4.2-12.4 2-7.2 3.8-15.6 4.6-23.5 2.5 4.3 3.1 10.1 4.9 15.2.7 2.1 1.5 2.7 2.2 5 .9 3 .6 6.4 1.2 9.6.3 1.9 1.2 8.8 2.5 8.7 1.6-.1 1.3-5.3 3.8-3.8 1.5.9 2.5 10.1 3.4 12.4 2.4-.7 3.6-8.1 4.1-11.1 1.1-6.8 3.1-12.1 3.8-19.4 1.3 4.4 3 8.8 3.6 13.6.7 5.6.3 11.7 3.6 16 1.6-5.4 5.3 9.8 6 11.2 3.2.8 4.2-1.1 5.7-4.9 2.6-6.8 1.9-5.5 5.2-2.1.4-6.7 2.5-12.8 2.6-19.9 1.8 6.1 2.3 13.5 4.9 19.6.9 2.2 2.1 3.8 2.7 6.2.2.9.1 3.5.5 4.1 1.6 1.9 1.7-3.3 2.3-4.7 2.2 1.7 1.7 8.5 4.1 8.3 1.1-5.9 4.2-10.3 5.3-16.1.6-2.8.2-5.4.5-8.3a82 82 0 0 1 3-15.8c2.9 5.4 1.5 0 4.3-.7 1 6.4 2.6 12.8 3.7 19.4h1.3s1.1-7.5 1.1-10.7c0-3.6-1.7-9.2.6-12.1 4.9 7.1 3.2-13.1 3.8-15.3.7-2.6 3-3 3.9-5.5 1.3-3.3 1.3-7.6 4.1-3.1 1.8 2.9 1.7 7.8 3.5 10.7.9-2.3.7-5.5 1-8.3.4-3.9 1.5-7.7 1.7-11.6.3-4.2.5-6.3 1.6-10 .8-2.7.5-6.5 1.1-7.1.6-.7 1.2-2 1.3-3.1-12.3 9.1-17.4 12.1-26.2 17.1s-23.3 5.9-30 5.2c-26.4-2.9-45.5-11.6-41.2-10-4.4-1.6-17-9.7-23.6-15.2-6.9-5.8-7.6-7.6-12.9-16.5a22 22 0 0 1 3.4-4.7c1-.4 1.8 1 2.7.8 1.9-.5 2.5-3.2 3.3-5.8 2 .4 2.1 3.9 2.7 6.3.5 1.8 2.2 10 3.3 10.3 2.2.6 2.8-19 4.1-19 1.4 0 .6 3.2 1.3 5.2.7 2.1 1.3 5 2.6 6.6.2.3 1.8 1.2 1.9 1.3 1.4 2.4 2.1 7.1 3.8 9.6 1.6-2.6 3.2-13.8 5.9-13.3.8 2.6 1.4 5.9 2.4 8.6 2.3-1.8 3-19.8 5.4-17 1.1 1.3 2.1 10.6 2.9 12.9 1.8 5.3 3.2 10.8 4.7 16.3l1.9-2.2c.4-7 1.5-14.4 3.1-21.1 1.4 1.7 1.2 9.7 1.9 12.9 1 5 1.5 10.5 3 15.3 1.8-6 2-14 3.4-21 .8-3.7.4-7.8 1.3-11.4.5-2 1.4-3.2 1.6-5.2 4.5-.6 5.1 21.6 7.6 19.8.6-.5.9-4.3 1.1-5.2.8-3.7 2-7.6 2.6-11.3.6-4.4.2-9.4.8-13.9 2.2-1.1 1.8 3.3 3 5.2.4.7 1.5.4 2.1 1.4 1.8 2.9 2.3 5.8 4.1 9.2.3-7.1 1.1-10.6 2.3-17.6.7-4.1 1-8 2-12 1.3-5.2 5-10 4.7-15.8 0 0 .9-1.3.8-3.3-2.6 2.3-6.6 4.3-9.5 6.1a83.4 83.4 0 0 1-36.1 10.9 89.9 89.9 0 0 1-48.7-15.8c-7.5-4.7-9.7-9-12.2-14.5 0-3-.8-3.9.8-4.1.7-.1 2-5 2.7-5.9 1.7 1.3 2.1 2.7 3 4.9.5 1.2 1 4.2 2.2 4.2 1.6.1 1.1-3.3 1.9-3.4 2-.3 2.1 6.4 4 .1 1.3-4.2.2-10.7 2.5-14.1-.1 4.8 2.3 17.5 4.7 19.9 2 2 2.5-.9 4.1 0 1.3.7 1.7 5.2 2 7.3 1.3-3.9 1.9-7.5 2.4-11.7.6-5 .1-11.7 1.9-16 .7 1.3 1 3.1 2.2 3.4.1 1.9.2 5.6 1.2 7 1 1.3 2.1.3 3.2 1.3 3.6 3 2.8 11.1 4.6 15.4 2.9-2 3.1-8.2 4.3-12.3 1.3-4.6 1.1-9.7 2.8-13.9 2 1.3 3.1 5.3 4.1 8.2 1.4-2.1 1.2-5 1.4-7.8.3-4.2 1.9-8.4 2-12.4 1.1 1.4 2.2 3.9 3.2 4.8.3-4.3 1.3-10 2.6-14l3.2-14.6c1-.8 1.9-4.9 1.9-7-3.7.6-6.7 4.6-10.4 6.1-4.7 1.9-9 7-13.6 8.3-9.7 2.6-23.4 6.3-33.1.2-2.6-1.6-6.1-3.2-8.3-5.8-2.9-3.5-5.4-8.5-7.1-11.8-1.6-3.3-1.4-8-2.8-11.6.7-1 2.6.8 2.6.8 1.8.6 1.4-2.3 2.8 1.1.9 2.2 1.9 5.5 2.4 7.9 2-1.1 2.2-6.7 4.8-4 1.3 1.3 1 6.8 3.3 4.9 2.7-2.3-.4-18.4 4.7-17 .5 2 .5 4.1.9 6.1.6 3.4 2 4.7 2.9 7.6 1.1-1.3 1.3-6.6 2.7-4.3.4-.8 1.3-1.6 1.6-2.5 1.2 1.5 2.6 11 4.7 6.3.7-1.6 1-21.9 4.3-14.6.3-1.3.7-2.7 1.2-3.8.9 1.6 1.4 4.4 1.9 6.8.2-3.1 1.1-9.1 1.7-12.9 1.1-6.7 3.9-11.8 5.5-18.1-2 .9-2.3.8-6.3 3.7a35 35 0 0 1-15 6.1c-4.5 0-7.8.7-12.5 0-5-.8-9-3-12.3-7.4a21.9 21.9 0 0 1-4-14.6c.4.6 1.3 2.2 2 2.3.7.1 1-3.9 1.7-3.5 1.4.9 2.1 6.4 3.4 6.2.5-.5 1.7-8.9 1.7-9.8 1.4-.1 1.9-2.2 2.5-4.1.8.7 1.3 1.8 1.6 3.6 2.5.3 1.9-10.2 2.9-12.8 3 1.8 3.6-9.3 4-11.8-4.5-.4-4.8 2.7-12.2 7.3-3.2 1.7-6.8-.2-8.5-2.7-1.6-2.5-2.2-9.1-2.2-9.1s3.7 1.3 5.3.7c1.5-.6 2.4-1.1 4-4.1.6-1.1 1-3.6 1.4-4.8.5-1.7 1.5-2.2 1.1-4.5-2.7 1.2-4.6 4.9-7.6 4.5-2.3-.2-5.3-3.7-4.9-7.9 0 0 5.5-7.9 4.2-9.9-.5-.8-1.8.8-2.9 1-1.7.3-4.2 2-4.2 2s.4-4.1-.6-6.9c-.9-2.4-1.4-4.6-2.3-4.6-.9 0-1.5 2.2-2.4 4.6-1 2.8-.7 6.9-.7 6.9s-2.3-1.7-4-2c-1.1-.2-2.4-1.8-2.9-1-1.3 1.9 4.2 9.9 4.2 9.9.3 4.2-2.7 7.7-4.9 7.9-3 .3-4.9-3.4-7.6-4.5-.4 2.4.6 2.8 1.1 4.5.4 1.2.7 3.7 1.4 4.8 1.6 3 2.6 3.5 4 4.1 1.6.6 5.3-.7 5.3-.7s-.6 6.6-2.2 9.1-5.3 4.4-8.5 2.7c-7.4-4.6-7.7-7.7-12.2-7.3.4 2.5 1 13.6 4 11.8.9 2.5.4 13 2.9 12.8.3-1.8.8-2.9 1.6-3.6.5 1.9 1 4 2.5 4.1 0 .9 1.2 9.3 1.7 9.8 1.3.2 2-5.3 3.4-6.2.8-.5 1 3.5 1.7 3.5.7-.1 1.7-1.7 2-2.3.5 4.3-.7 10.2-4 14.6a17.4 17.4 0 0 1-12.3 7.4c-4.7.7-8 0-12.5 0-3.3 0-11.1-3.2-15-6.1-4-2.9-4.3-2.8-6.3-3.7 1.6 6.3 4.5 11.4 5.5 18.1.6 3.8 1.5 9.8 1.7 12.9.5-2.4 1.1-5.2 1.9-6.8.5 1.1.9 2.5 1.2 3.8 3.3-7.3 3.6 13 4.3 14.6 2.1 4.7 3.5-4.8 4.7-6.3.4.9 1.3 1.7 1.6 2.5 1.5-2.4 1.6 3 2.7 4.3.9-2.9 2.3-4.2 2.9-7.6.4-2 .5-4.1.9-6.1 5.1-1.5 1.9 14.6 4.7 17 2.3 1.9 2-3.6 3.3-4.9 2.6-2.7 2.8 2.9 4.8 4 .5-2.4 1.6-5.8 2.4-7.9 1.4-3.4 1-.5 2.8-1.1 0 0 1.9-1.9 2.6-.8-1.4 3.6-1.2 8.3-2.8 11.6a57.7 57.7 0 0 1-7.1 11.8c-2.2 2.6-5.7 4.1-8.3 5.8-9.7 6.1-23.4 2.4-33.1-.2-4.6-1.2-8.9-6.3-13.6-8.3-3.7-1.5-6.8-5.5-10.4-6.1-.1 2.1.9 6.1 1.9 7l3.2 14.6c1.3 3.9 2.2 9.6 2.6 14 1-.9 2.1-3.4 3.2-4.8.1 4 1.7 8.2 2 12.4.2 2.7-.1 5.7 1.4 7.8 1-2.9 2.1-6.9 4.1-8.2 1.7 4.3 1.5 9.4 2.8 13.9 1.2 4.1 1.4 10.3 4.3 12.3 1.8-4.2 1.1-12.3 4.6-15.4 1.1-1 2.3 0 3.2-1.3 1-1.4 1.1-5.1 1.2-7 1.1-.3 1.4-2.2 2.2-3.4 1.8 4.3 1.3 11 1.9 16 .5 4.2 1.1 7.8 2.4 11.7.2-2 .7-6.5 2-7.3 1.6-.9 2.1 2 4.1 0 2.4-2.4 4.8-15.1 4.7-19.9 2.3 3.4 1.3 10 2.5 14.1 1.9 6.3 2-.4 4-.1.9.1.3 3.5 1.9 3.4 1.2-.1 1.7-3 2.2-4.2.9-2.3 1.3-3.6 3-4.9.7.9 2 5.8 2.7 5.9 1.6.3.8 1.1.8 4.1a29.1 29.1 0 0 1-12.2 14.5 89.9 89.9 0 0 1-48.7 15.8 83 83 0 0 1-36.1-10.9c-2.9-1.8-6.9-3.8-9.5-6.1-.1 1.9.8 3.3.8 3.3-.3 5.8 3.4 10.6 4.7 15.8 1 4 1.3 7.9 2 12 1.2 7 2 10.5 2.3 17.6 1.9-3.4 2.3-6.3 4.1-9.2.6-1 1.7-.7 2.1-1.4 1.2-1.9.7-6.3 3-5.2.6 4.6.2 9.5.8 13.9.5 3.8 1.8 7.6 2.6 11.3.2.9.5 4.8 1.1 5.2 2.5 1.8 3.1-20.3 7.6-19.8.2 2 1.1 3.3 1.6 5.2.9 3.6.5 7.7 1.3 11.4 1.5 6.9 1.7 15 3.4 21 1.5-4.7 2-10.3 3-15.3.6-3.2.5-11.1 1.8-12.9 1.6 6.7 2.7 14.1 3.1 21.1a13 13 0 0 0 1.9 2.2c1.6-5.5 2.9-10.9 4.7-16.3.8-2.3 1.8-11.6 2.9-12.9 2.4-2.8 3.1 15.2 5.4 17 1-2.7 1.6-6 2.4-8.6 2.7-.5 4.3 10.7 5.9 13.3 1.7-2.5 2.4-7.2 3.8-9.6.1-.1 1.7-1 1.9-1.3 1.2-1.6 1.8-4.5 2.6-6.6.7-2-.1-5.2 1.3-5.2 1.4 0 1.9 19.5 4.1 19 1.1-.3 2.8-8.5 3.3-10.3.6-2.4.7-5.9 2.7-6.3.8 2.6 1.4 5.2 3.3 5.8.8.2 1.7-1.2 2.7-.8a22 22 0 0 1 3.4 4.7c-5.3 8.9-6 10.7-12.9 16.5a121.7 121.7 0 0 1-23.6 15.2c4.4-1.6-14.8 7.1-41.2 10-6.7.7-21.2-.2-30-5.2s-13.9-8-26.2-17.1c.2 1 .7 2.4 1.3 3.1.6.7.3 4.5 1.1 7.1 1.1 3.7 1.3 5.8 1.6 10 .3 3.9 1.3 7.7 1.7 11.6.3 2.9.1 6 1 8.3 1.8-2.8 1.7-7.8 3.5-10.7 2.8-4.5 2.8-.2 4.1 3.1 1 2.4 3.2 2.9 3.9 5.5.6 2.2-1.1 22.5 3.8 15.3 2.3 2.9.6 8.4.6 12.1 0 3.3.6 7.5 1.1 10.4.5 2.8.9.5 1.3.4 1.1-6.5 2.7-12.9 3.7-19.4 2.9.7 1.4 6.1 4.3.7a82 82 0 0 1 3 15.8c.3 2.9-.1 5.6.5 8.3 1.1 5.7 4.2 10.2 5.3 16.1 2.4.2 1.8-6.6 4.1-8.3.5 1.4.7 6.5 2.3 4.7.5-.6.3-3.2.5-4.1.6-2.4 1.8-4.1 2.7-6.2 2.6-6.1 3-13.5 4.9-19.6 0 7.1 2.2 13.2 2.6 19.9 3.3-3.5 2.5-4.8 5.2 2.1 1.5 3.8 2.5 5.7 5.7 4.9.7-1.4 4.5-16.6 6-11.2 3.2-4.3 2.9-10.5 3.6-16 .6-4.9 2.2-9.2 3.6-13.6.7 7.3 2.7 12.6 3.8 19.4.5 3 1.7 10.4 4.1 11.1.9-2.3 1.9-11.5 3.4-12.4 2.5-1.5 2.2 3.7 3.8 3.8 1.2.1 2.2-6.8 2.5-8.7.5-3.2.3-6.5 1.2-9.6.7-2.3 1.5-3 2.2-5 1.8-5.1 2.4-10.9 4.9-15.2.8 8 2.5 16.3 4.6 23.5.7 2.7 1.8 11.9 4.2 12.4 3.2.7 1.2-5.2 3.3-6.2 1.6-.8 4 4.2 5.7 4.9 2.7 1.1-28.9 33-32.7 35.4-12.1 7.6-44.3 12.2-58.7 12.2-15.1 0-39.1-.6-48.5-5.5l-9.9-4.1c.8 2.9 1.6 7.2 2.1 10.4.5 2.9 1.3 6.4 1.5 9.4 2.8.9 2.8-2.5 4.8-3.2l2.5 13.6c.6 3.1.8 7.7 2.4 9.9 2.2-2.5 3.4-5.3 4.7-9.1.9-2.7 1.3-5.4 3.8-4.5.7 5.4 1 10.7 1.8 16.1.6 4.2 3.4 9.9 3.2 14.1 2.1-.4 2.4-5.4 4.3-6.7 2.5-1.7 3.5 4.3 4.6 7.7.7 2.4 1.3 9.3 3.4 9.8 1.6.4 3.2-5.5 3.7-7.9.8-4.2.7-9.1 2-13.3.6-1.8 2.6-10 3.4-10.7 2.3-1.9 2.5 4.6 4 6.2 2.3 2.5 1.9-2.2 4.1-1.5 1 5.2 1.2 10.4 2.8 15.1.8-1 1.4-1 2.4-1.1 1.2 6.4 2.7 13.6 6.3 5.8a56 56 0 0 0 3.3-11.2c.6-2.6 1.2-9.8 2.5-10.9 1.2 3.4 2.1 7.2 2.8 10.9 3.6 1.7 3.1-1 5.2-5.7.9-1.9 2.6-5.4 4.3-5.8 1.9 7.4 4.4 13.6 6.6 20.5 2.6-3 1.1-13.4 5.4-10.3 1.2-4.3 2.2-6.3 3.9-9.8-.4 7.4 2.4 15.4 4.1 22.2 1.7 6.8 5.8-10.9 5.8-10.9.2-1.2 1.1-3.6 1.8-4.1.4 2 .7 4 .7 6.2 0 5.5 0 12.8-3.5 16.6a112.2 112.2 0 0 1-41.6 23.5c-31.7 8.8-64.5 4.6-69.9 4.6a31 31 0 0 0-9.8-2.2c1.4 3.2 3.7 5 5.3 8 .9 1.6 2.9 9.7 3.7 10.2.3.3.7.3 1 .4.6-4.3 2.2-4.2 3.6-1.7 1.6 2.9 2.4 8.6 2.8 12.3.4 3.1 2.4 15.7 5.2 14.8.6-2.1.9-5.9 2.4-6.2 1.2 5.5 7.5 25.6 11 13.3 1-3.7.6-7.6 1.4-11.2l2.7-10.3c1.6.1 4.1 7.9 5 10.3 1.5 4.3 2.7 9.5 3.5 14.1.8 4.2 1.6 7.2 3 10.7.5-3.7 2.5-6.4 2.8-9.8 2.7 2.8 2.8 4.5 4.6-2.2 1.2-4.4 2.3-9.5 2.2-14.3.3 6 1.5 11.8 2.8 17.3 2.2.1 3 4.2 4 6.6 1.4 3.1 2.2 3.8 4.7 4.6 1.3-4.7.9-10.6 2.5-14.9l.7-.1c1.1-4.9 2.3-20.6 6-22.3.2 1.3.7 2.4.9 3.6l1 .1c2.6 15.2 4.2 28.2 8.6 42.2 1.4-2.8 1.2-7.9 1.8-11.7.3-1.8.7-6.5 1.5-7.8 2.3-3.5 3.8 6.5 4.4 9.5 1.8.2 2.4-5.8 3.6-8.1 1.2-2.4 2.5-4.4 3.4-7.5 1.1-4 .6-25.9 3.4-27.1 1.5 6.2 2.2 16.8 2.7 23.3.4 4.4 1.6 7.9 2.5 12.1.4 2 .4 4.5 1.3 5.7.9-2.2.8-5.4 1.7-7.5 1.4-3.4.7-1.4 2.1.8 3.2 5 4.3 2.4 5.5-4.2 1.9-10.6 4.1-15.2 5.7-25.7a114 114 0 0 1 2.5 21.9c0 4.8.4 9.3 2.7 12.2 1.2-1.8 1.2-5.3 2.7-6.3.4-.2.7 2.4 1.6 1.7 1.5-1 .9-6 1.1-8.3.4-4.5 2.5-9.6 3.5-13.8.4-1.7.3-5.7 1.7-6.1 2.9-.8 3.5 12.8 4.5 15.7 2.6 7.7 2.5-4.5 6.2-4.1.2-4.4.3-9.6 1.5-13.6 1.7-5.8 2.4-2.7 5.1-4.6 1.8-1.2 2.5-5.9 3.3-8.6 1.3-4 2.9-5 4.6-7.6 1.6-2.4 1.4-6.4 2.9-9.1 2.6-3.4 3.6-9.4 5.5-9.9 1.8-.5.3 4.1 3.1 8.4.5 1.5.7 4.4 1.4 5.9.7 1.7 3.9 2.1 4.8 3.4.8 1.2 2.2 4.3 4.8 4.3 2.6 0 4-3.1 4.8-4.3.9-1.3 4-1.7 4.8-3.4.6-1.5.9-4.3 1.4-5.9 2.7-4.3 1.3-8.9 3.1-8.4 1.9.5 3 6.5 5.5 9.9 1.5 2.7 1.3 6.6 2.9 9.1 1.7 2.6 3.4 3.6 4.6 7.6.8 2.7 1.6 7.4 3.3 8.6 2.7 1.9 3.4-1.2 5.1 4.6 1.2 4 1.3 9.2 1.5 13.6 3.7-.4 3.5 11.8 6.2 4.1 1-2.8 1.6-16.5 4.5-15.7 1.4.4 1.2 4.4 1.7 6.1 1 4.2 3.1 9.3 3.5 13.8.2 2.3-.4 7.3 1.1 8.3.9.6 1.3-2 1.6-1.7 1.6 1 1.5 4.5 2.7 6.3 2.4-2.9 2.7-7.4 2.7-12.2 0-7.6 1.2-14.7 2.5-21.9 1.7 10.5 3.9 15.1 5.7 25.7 1.2 6.6 2.3 9.2 5.5 4.2 1.4-2.2.7-4.2 2.1-.8.9 2.1.8 5.3 1.7 7.5.9-1.3.9-3.8 1.3-5.7.9-4.2 2.2-7.7 2.5-12.1.5-6.5 1.2-17.1 2.7-23.3 2.7 1.2 2.2 23.1 3.4 27.1.9 3.1 2.2 5.1 3.4 7.5 1.2 2.3 1.8 8.4 3.6 8.1.5-2.9 2.1-13 4.4-9.5.9 1.3 1.2 6 1.5 7.8.6 3.7.4 8.9 1.8 11.7 4.4-14.1 6-27 8.6-42.2l1-.1c.3-1.2.7-2.3.9-3.6 3.7 1.7 4.9 17.4 6 22.3l.7.1c1.6 4.3 1.2 10.1 2.5 14.9 2.5-.8 3.3-1.5 4.7-4.6 1.1-2.4 1.9-6.5 4-6.6a96.1 96.1 0 0 0 2.8-17.3c-.1 4.8 1 9.9 2.2 14.3 1.8 6.8 1.9 5.1 4.6 2.2.3 3.4 2.3 6.1 2.8 9.8 1.4-3.5 2.2-6.5 3-10.7.8-4.6 2-9.9 3.5-14.1.9-2.4 3.3-10.2 5-10.3l2.7 10.3c.9 3.6.4 7.5 1.4 11.2 3.5 12.4 9.8-7.7 11-13.3 1.5.3 1.8 4.1 2.4 6.2 2.8.9 4.8-11.7 5.2-14.8.4-3.7 1.2-9.3 2.8-12.3 1.4-2.5 3-2.6 3.6 1.7l1-.4c.7-.5 2.8-8.6 3.7-10.2 1.6-3 3.9-4.8 5.3-8-3.5.2-6.4 1-9.8 2.2-5.5.1-38.2 4.3-69.9-4.6-15.1-4.2-30-13.4-41.6-23.5-3.4-3.8-3.5-11.1-3.5-16.6 0-2.2.3-4.2.7-6.2.7.5 1.6 3 1.8 4.1 0 0 4.1 17.7 5.8 10.9 1.7-6.8 4.6-14.8 4.1-22.2 1.7 3.5 2.8 5.5 3.9 9.8 4.3-3.1 2.8 7.3 5.4 10.3 2.2-6.9 4.7-13.1 6.6-20.5 1.7.4 3.5 3.9 4.3 5.8 2.1 4.7 1.6 7.4 5.2 5.7.7-3.7 1.6-7.5 2.8-10.9 1.3 1.1 1.9 8.3 2.5 10.9.9 3.7 1.9 8 3.3 11.2 3.6 7.8 5.1.7 6.3-5.8.9.2 1.6.1 2.4 1.1 1.7-4.7 1.9-10 2.8-15.1 2.3-.7 1.8 4 4.1 1.5 1.5-1.6 1.7-8.1 4-6.2.8.7 2.8 8.9 3.4 10.7 1.3 4.2 1.2 9.1 2 13.3.5 2.4 2.1 8.3 3.7 7.9 2.1-.5 2.7-7.4 3.4-9.8 1.1-3.4 2.1-9.4 4.6-7.7 1.8 1.2 2.1 6.3 4.3 6.7-.3-4.2 2.5-9.9 3.2-14.1.8-5.3 1.1-10.6 1.8-16.1 2.5-.9 2.9 1.8 3.8 4.5 1.3 3.8 2.4 6.5 4.7 9.1 1.6-2.2 1.7-6.8 2.4-9.9l2.5-13.6c2 .7 2.1 4.1 4.8 3.2.1-3.1 1-6.5 1.5-9.4.6-3.2 1.4-7.5 2.1-10.4"/>
    <g stroke="none" fill="#000">
      <path d="M-302.4 548.1c-.6 3.7-1.2 7.4-2 11-1.3 1-1.8-1.4-2.5-2.1-3-5.3-4-11.3-5-17l-.7-4.2 2.3.2c-.8 2.8-1.6 5.6-2.2 8.5-.4 2.2-.8 4.4-.9 6.6-.1 1 .2 2.2-.6 3-1 1-2.2 0-2.3-1.2-.7-2-1.2-4-1.6-6.1l-1.4-8.5 3-.1c-.4 3.2-2.1 6-2.7 9.2l-2.7 10.2c-.9 2.7-1.9 5.3-3.2 7.8-.5 1.8-2.8 1.5-3.3-.2-2.3-3.9-4.6-8.2-4.5-12.8.1-.6 1.1-.2 1.6-.3.5.1 1.4-.2 1.6.2 0 2.8 1.3 5.4 2.4 7.9l2.2 3.7-2.6.2c1.8-3.2 3.1-6.7 4-10.3l1.7-6.3c.4-2 1-4 1.8-6 .6-1.3 1-2.7 1.2-4.1.5-1.7 3-1 3 .7.5 3.8 1 7.6 1.7 11.4l.8 2.8-2.6.5c.2-2.4.3-4.7.8-7 .4-2.7 1.3-5.3 2-7.8.5-1.2.7-2.4 1.2-3.5 1-1.2 2.3.2 2.2 1.4 1 6 1.7 12 3.8 17.8.6 1.4 1.2 2.9 2 4.2-.8.2-1.8.6-1-.7l2.8-9.4-.3.3zm4.9-91.7c2-3.4 4.6-6.3 6.8-9.6.9-1 1.8-2.1 2.9-3 1.6-1.3 3.6-2.3 4.7-4.1.2-.6.6-1.1.6-1.7.6-2 .5-4.2 1.2-6.2a8.7 8.7 0 0 1 2.7-4.2c.3.7-.8 1.8-.8 2.7-.5 2-.5 4-.6 5.9 0 1-.2 2.2-.4 3.3a9.7 9.7 0 0 1-3 4.5c-1.7 1.4-3.6 2.8-4.9 4.6l-1 1.5-4.5 6.2c-.5.4-.7 2.2-1.5 1.5l-2.2-1.4zm25.3-105.4c.3-.3.7.3 1 .5.5.7 1 1.4 1.3 2.3l1.2 3.5.5 2c.4 1.2.5 2.5.7 3.7 0 .5.4 1 .2 1.4l-3 .8-.3-1.7-.5-4-.3-1.8-.3-2c-.1-1.3-.6-2.5-.4-3.8v-.5c.5.1.2-.3 0-.3l-.1-.1zm-15.1 18.7c.3.9.5 1.8.9 2.6.1.3.7.9 0 .6-.3 0-.5.2-.7.4.4-.7.6-1.4.9-2.2.1-.7.4-1.4.8-2 .2-.5.5-1 .9-1.2.4-.3.9-.3 1.3-.3l.6.3c.3.2.4.6.6.8l.5 1.2 1 4c.5.3.2.4-.2.4l-1.5.2c.2-.6.6-1 .7-1.6.4-1 .5-2 .8-3a39.4 39.4 0 0 1 1.7-5.9c.6 0 .2.7.3 1 .2.9.1 1.7.1 2.5 0 1.8-.1 3.5-.3 5.2-.2 1-.4 2-.8 3-.2.6-.8 1.2-1.6 1-.9-.4-1.3-1.4-1.7-2.2l-1-2.5c-.1-.6-.4-1.1-.6-1.6 0-.1.4.4.4.2l.5.2c.3.1 1-.4 1-.4 0 .4-.3.6-.3 1-.4 1.2-.6 2.5-1.2 3.6-.4.5-.9 1-1.4 1-1.2.4-2.4-.2-3-1.2a13 13 0 0 1-1.7-4.5l3-.6zm12.6-147.3.8-.8.8-.8.9-.9.8-.9.6-.9.6-.9.3.1-.2 1.1-.2 1.2-.4 1.3-.5 1.2-.4 1.1-.4 1.1-2.7-1.9zm5.1-51.8-.1.2-.2.6v.7l.1 1 .1 1.1v.6l-.1.6-.1.5-.2.4-.2.4-2.3-2.3h.1l.3-.1.2-.2.2-.3.4-.8.4-1 .2-.5.3-.4c.2-.3.4-.3.5-.4l.2-.1h.2zm.2-30.9.8-.3.5-.2.7-.5 1.5-1.2.6-.3.2-.1.1.3-.1.2-.3.5-.7 1.8-.5 1-.7 1-.6.7-1.5-2.9zM-292.2 493c-.2-1 0-1.9-.2-2.8.1-1 1.3-.9 2-.9 1-.1 1.9.5 2.9.7.6.3 1.4.2 1.9.1l-.9 1.1c-.1-2.4-.3-4.8.4-7 .5-1 1.4-2 2.6-2 1 .4 1.7.7 1.8-.7.2-1.2.8-2.5 2-3 1.3-.3 2.5-.9 3.7-1.1.2.1 1.2-.1.8.1l-1.6 1.1c.3-1.3.3-2.6.5-4 .3-2 .4-4.2 1.1-6.2.3-.8.8-.9 1-.1l1.5 2c.7-.8-.1 1 0 1.5l-.7 6.4c-.1.6 0 1.2-.7 1.5l-1.4.8-2.6.8c-.8.5-.5 1.8-1.2 2.5-.4.8-1.2 1.6-2.3 1.6-.6.2-1.8-.5-1.8-.2-.1.5-.4 1.6-.4 2.4l-.2 4.2c-.3 1-1.7 1-2.6.8-1-.2-2-.8-3-1.3-.5-.3-1.4-.4-1.8-.5.2-.4.6-1 .3 0 0 .7-.4 1.4-.6 2.2h-.5zm22.9-91.4a5.6 5.6 0 0 1-5.2 1c-1-.3-2-1-3.2-.6-1.3.3-1.8.9-2.7 1.7-1.2 1.4-2.2 3-3.9 3.9-1.3.9-.9 2.7-.8 4v4c0 1.4-1.4 2.3-1.5 3.6-.2 1.4-.2 2.8-.6 4-.1.7-.7 1.2-1.1 1.6-1.4 1.1-2 2.8-2.4 4.4-.5.9-.2 2.6-1.1 2.9-.2-1.8-.1-3.6.1-5.3.3-1.3.8-2.5 1.7-3.5l.6-.8c.3-1.3.1-2.7.3-4 0-1.2 1-2 1.1-3.2v-1.1c-.1-2.5-1-5.3.4-7.5.9-1.6 2.7-2.4 3.6-3.9 1-1 2.2-2.6 3-3a6.9 6.9 0 0 1 4.1-1.2c1.4 0 2.6.6 3.9.8.7.3 1.6-1 2.1-.6l1.6 2.8zm2.1 146.6c-.4-1.4-1.7-3.1-3.3-2.6-1 .6-.8 2.2-1.1 3.2-.1 1.2-.6 2.5-1.6 3-1.4 1-3 .3-4.5.4-1 .4-1 .6-1.2 1.5 0 1.3-.2 2.6-.8 3.8-.3.9-1.3 1.2-2 1.9-1.6 2.2-2 5-3.3 7.5-.5.8-1 1.7-1.9 2-.9.2-1-.7-1.3-1.4-.2-.8-1-2-1.2-2.4.3-.1 1-1.2.9-.5a68 68 0 0 1-.8 6.7l-.8 6.9c-.5.8-.4-1.6-.5-2 0-4 .4-7.9.4-11.8-.2-1.2 1.5-1.4 2.1-.6 1 1 1.5 2.4 2 3.7l-1.5-.4c1.3-1.2 1.6-3 2.3-4.6.6-1.7 1.1-3.7 2.7-5 .7-.4 1.6-.8 1.7-1.8.3-1.4.1-3 1.3-4 .8-1 2.1-1.4 3.3-1.1 1.3.4 3.2.7 3.6-1 .5-1.6.5-3.4 1.8-4.5.9-.3 2-.2 2.8.7.7.5.8 1.5.9 2.4zm38-90.1c-1.3-2.2-2.9-4.2-4.4-6.3l-2.3-3.2c.2.1-.4-.6-.6-.8-1.5-2-3.7-3.1-5.3-5-1-.8-1.4-2.1-1.9-3.3-.1-1-.4-2-.4-3.1-.2-2.6 0-5.3-1.2-7.6-.2-.3-.6-1.6 0-1 2.2 1.8 2.7 4.6 3.1 7.2.2 1.2.3 2.4.7 3.5 0 .3.3.7.5 1 1 2 3 3 4.6 4.2 1 .9 2 1.8 2.7 2.9 2 2.8 4.3 5.4 6.2 8.4.2.6 1.4 1.4.3 1.8l-2 1.3zm-22.9-106.8c0 .1.5.1.3.4 0 1 .1 2-.2 3l-.4 2-.3 2-.4 3.3-.5 3c0 .3-.3 0-.5 0l-2.6-.6.4-2.2c.2-1.5.5-3 1-4.4l.7-2.3c.3-.9.6-1.8 1-2.5a7 7 0 0 1 1.4-2c.1-.2.6-.2.5 0l-.4.3zm18.4 19.1c-.3 1-.5 2.2-1 3.2-.3.7-.7 1.3-1.2 2-.9.9-2.6 1-3.5 0l-.7-1.3-1-3.5c-.2-.3-.3-.5 0-.1.4.2.8.3 1.2.1l.4-.2c.3-.6-.1.5-.2.7l-.9 2.4c-.4 1-.7 2-1.5 2.7-.4.5-1.3.6-1.7.1-.4-.5-.6-1.2-.8-1.9-.2-.6-.4-1.2-.4-1.8-.2-.7-.2-1.5-.3-2.2v-3.3c0-1-.2-2 0-3 .5-.4.5.3.7.6l.7 2.2c.6 1.9.8 3.9 1.4 5.8.2.5.3 1.2.7 1.7l-2-.3c.5-.6.6-1.5.8-2.2.3-1 .5-2 1-3 0-.4.3-.6.5-.9l.5-.4c.3-.2.7 0 1 0 .5.1 1 .4 1.2.9l.7 1.3.8 2.6.4.8c-.2-.4-.8-.5-1-.3.3-.7.7-1.3.9-2 .2-.4 0-1.3.5-1.3l2.8.6zM-252 224.2l-.4-1.1-.4-1.1-.5-1.2-.4-1.3-.2-1.2a12 12 0 0 0-.2-1.1l.3-.1.6.9.6.9.8.9.9.9.8.8.8.8-2.7 1.9zm-2.2-53.8.2.1.5.4.3.4.2.5.4 1 .4.8.2.3.2.2.3.1h.1l-2.3 2.3-.2-.4-.2-.4-.1-.5-.1-.6v-.6l.1-1.1.1-1v-.7l-.2-.6-.1-.2h.2zm-2.2-27.9-.6-.7-.7-1-.5-1-.7-1.8-.3-.5-.1-.2.1-.3.2.1.6.3 1.5 1.2.7.5c.2.2.4.2.5.2l.8.3-1.5 2.9zm24.2 350.5c-.2-1-.7-1.8-.7-2.8.1.3.8.8.2.7-1.5 0-2.5 1.1-3.8 1.5-1 .3-2 .5-3 0-.6-.6-.3-1.5-.4-2.2-.1-1.7-.1-3.4-.6-5 .2-.2-.8.1-1.4.2a3 3 0 0 1-2.2-1c-.9-.7-1-2-1.4-3l-2.7-.9c-.7-.1-1.1-.7-1.7-1-.7-.2-.4-1-.6-1.5l-.8-7.3c-.1-.4-.4-1 .1-.4l1.9-2.7c1 .9 1 2.2 1.3 3.5l.8 6.7c.1.7.1.9-.5.4l-1.2-.8c.7 0 1.4-.1 2.1.2 1.2.5 2.5.7 3.5 1.5 1 1 1 2.3 1.5 3.4.6 0 2-.6 2.8.1.6.5 1.2 1.1 1.3 1.9.5 1.6.4 3.4.4 5l-.1 1.7-1-1.1c.7 0 1.5.2 2-.2 1.1-.2 2-.8 3.1-.6.8 0 2.2.2 1.7 1.3l-.1 2.4h-.5zm-24.8 55.1c.2-1.6 1.4-3.7 3.3-3.5.7.1 1.2.6 1.5 1.3.8 1.4.5 3.3 1.7 4.4 1.3.8 2.7-.3 4 0 1.2 0 2.1.9 2.8 1.8.8 1.3.3 3 1 4.2.8.7 2 1 2.4 2 1.3 2 1.7 4.4 2.7 6.5.3.8.8 1.4 1.3 2l-1.5.4c.5-1.4 1-3 2.3-3.9.9-.7 2-.1 1.8 1 0 4 .5 7.9.3 11.8.1.5-.2 3-.4 1.5-.3-3.4-.9-6.8-1.3-10.3l-.3-3.3c.2.3 1.2.8.8 1-.8.8-1 2-1.4 3-.4 1.4-1.9.5-2.3-.4-1.7-2.1-2-5-3.2-7.4-.5-1.3-1.8-1.6-2.5-2.6-1-1.3-1-3-1.1-4.6-.1-.4-.5-.8-1.3-1-1.5 0-3.3.7-4.5-.5-.7-.3-1-1.3-1.2-2-.4-1.3-.1-3-1.2-4.1-1.2-.5-2.3.5-3 1.5-.3.3-.5.8-.7 1.2z"/>
    </g>
    <g class="secondary">
      <path d="M-268.9 425.6c-.9.7-3 .3-4 .9-.7.4-.8 1.3.3 3.2.6 1 2.5 2 2.7 3.4.4 1.9-.9 2.8-1.4 4.4-.8 2.9.3 5.8 0 8.8-.2 2.2-.7 3.9-.7 6.3 0 3.6.3 7.3-.6 10.6-.5 1.8-1 3.8-1.1 5.6.8.1.6-1 1.3-1.5l1.5-1.1c1.3-1 1.4-1.7 2.4-3.6 1-2.2 2.9-4.8 4.5-6 .4.3.6 1 2 1s1.6-.7 2-1a20 20 0 0 1 4.5 6c.9 1.9 1.1 2.6 2.4 3.6l1.5 1.1c.7.5.5 1.7 1.3 1.5-.1-1.8-.6-3.8-1.1-5.6-.9-3.3-.6-7-.6-10.6 0-2.4-.5-4.1-.7-6.3-.3-3.1.8-5.9 0-8.8-.5-1.5-1.7-2.5-1.4-4.4.3-1.4 2.1-2.4 2.7-3.4 1.1-1.9 1-2.8.3-3.2-1-.6-3.1-.2-4-.9-2.7-2.2-2.5-5.3-6.9-5.3s-4.2 3.1-6.9 5.3zm6.9-29.8c-2.5 0-5.9 4.7-8.2 4.3.1-2.3 1.4-3.1 2-5.2.7-2.4.2-3.9.4-6.7.3-4 .6-7.8.6-11.9 0-4.5-1-7.4-1.6-11.8 0 0 2.7-1.9 3.3.1.5 2.1 1.9 2 3.6 2 3.2 0 3 .1 3.6-2 .5-2.1 3.2-.1 3.2-.1-.6 4.4-1.6 7.3-1.6 11.8 0 4.1.3 7.9.6 11.9.2 2.8-.3 4.3.4 6.7.6 2.1 5.1 5.2 2 5.2-2.4 0-5.8-4.3-8.3-4.3zm2.8-69.1c1.8-.5 2.6 2.5 4.4 1.9-.3-1.4-.4-2.9-1.1-4.1-.7-1.3-1.8-1.3-2.3-3.3-.8-2.7.4-4.8 0-7.6-.1-1.1-.6-2.1-.7-3.3-.1-1.5.1-1.6.3-2.7.2-1.6.7-5.2-1.4-4.4h-3.8c-2.1-.8-1.6 2.8-1.4 4.4.1 1.1.4 1.2.3 2.7-.1 1.2-.6 2.2-.7 3.3-.4 2.8.8 4.8 0 7.6-.6 2-1.6 1.9-2.3 3.3-.6 1.2-.8 2.7-1.1 4.1 1.7.6 2.6-2.4 4.4-1.9 1.5.5 3.6.5 5.4 0zm-5.3-118.2c-.1-1.2-.6-3-.3-4.1.6-2.6 1.4-3.6 1.7-6.4.2-2.7-.8-6.5.4-7.5 1.2-.9.1-.9 1.4 0 1.2.9.2 4.8.4 7.5.2 2.8 1.1 3.9 1.7 6.4.3 1.1-.3 2.8-.3 4.1-1.4-.1-1.3-2.5-2.4-2.8-1.1-.2-1.2 2.7-2.6 2.8zm7.8 308.8c1.2 1.5 1.6 3.4 2.5 5 .8 1.3 1.8 2.3 2.6 3.7 1.2 2.2.8 1.4 2.7 2 1.2.3 1.8.5 2.8 1.9 1.6 2.3 3 7.2 5.6 5.6-2-2.2-2.2-3-3-4.9-.7-1.7 0-3.7-.5-5.3-.3-.9-1.4-2.6-1.9-3.2-.9-1.2-1.5-1.9-2.8-1.8-.2-.9-.6-1.7-1.1-2.2-.2-4.9-1.6-8.9-1.3-13.8.1-2.2 1.1-6.2-.4-7.9-.4-.4-2.1.2-4.9-1.1-2.8-1.2-2.9-2.3-5.8-2.3s-3 1-5.8 2.3c-2.8 1.2-4.5.7-4.9 1.1-1.5 1.7-.5 5.7-.4 7.9.3 4.9-1.1 8.9-1.3 13.8a5 5 0 0 0-1.1 2.2c-1.3-.2-2 .5-2.8 1.8-.5.7-1.6 2.3-1.9 3.2-.5 1.6.3 3.7-.5 5.3-.8 2-1.1 2.8-3 4.9 2.7 1.6 4.1-3.2 5.6-5.6.9-1.4 1.6-1.6 2.8-1.9 2-.5 1.5.2 2.7-2 .8-1.4 1.8-2.4 2.6-3.7.9-1.6 1.3-3.6 2.5-5 1.7-2 3.3-4.6 5.5-3.1 2.4 1.4 3.9 1.1 5.5 3.1zm-3.5-281.9c-.2 1.9.6 3.8.7 5.7.2 2.1 0 4.3 0 6.4 0 3.1.3 5.2.9 8 .6 2.8 2.1 4.2 3 6.7.8 2.2 2.1 7 1.6 7.4s-1.2-3.3-2.1-4.2c-.9-.9-1.6-.4-2.3-1-1.2-1-2.1-3-3.6-3.6-1.6-.7-2.5 2.6-3.7 3.6-.7.6-1.5.1-2.3 1-.9.9-1.5 4.6-2.1 4.2-.5-.4.7-5.1 1.6-7.4.9-2.6 2.4-3.9 3-6.7.6-2.8.9-4.9.9-8 0-2.1-.1-4.3 0-6.4.1-1.9.9-3.9.7-5.7h3.7z"/>
    </g>
    <g stroke="none" fill="#000">
      <path d="M-232.5 432.5c-.6-2-1-4-1.8-5.8-.6-1.2-2-1.9-2.3-3.1l-.5-3.5c.2-1-.2-1.3-.7-2.2-1-1.5-.9-3.4-.9-5 0-1.5.6-3-.2-4.4l-2-1.6c-1.3-1.2-2.2-2.7-3.5-3.8-.2-.1-1.4-.8-2.2-.9-1.2-.1-2.3.8-3.6.8-1.5.3-3-.2-4.3-1 0-.4.5-1 .7-1.3l.9-1.6c1 .7 2.2 1 3.3.4 1.6-.6 3.5-.8 5.1-.1 1.3.6 2.5 1.3 3.4 2.4 1.1 1.4 2.2 2.9 3.7 3.9 1.2 1 2 2.5 1.9 4 0 2-.5 4-.4 6 .3 1.2 1.4 2.2 1.2 3.5.2 1.2 0 2.5.3 3.7.1.5 1.4 1.7 1.7 2.6.8 2.2.8 4.7.7 7.1l-.5-.1zM-277.2 281l.2-3v-1.1l-.1-3.8c0-.6.5-.8 1-.8.6-.1 1.1.2 1.6.6.2.3.9 0 .8 0l.4-.2c.2-.1.2-.3.3-.6l.6-1.9.9-1.6 2.6 2c-.5.5-1 1.1-1.3 1.8l-.6 1.3c-.4.5-.8 1-1.3 1.2-.5.1-1 .4-1.5.3-.7 0-1.3-.3-1.7-.7-.2-.3-.7-.5-.4-.7l.4-.7-.6 4.5-.6 3c-.1.2 0 .5-.2.5h-.5zm30 .1-.6-3-.3-1.8-.4-3.2.5.8c-.3.5-.8.9-1.3 1.1-.6.3-1.4.3-2 0-.6-.2-1.1-.5-1.5-1-.5-.6-.6-1.4-1.1-2l-1-1.5 2.6-2 1 2 .5 1.6.2.6.5.2s.6.2.8-.1c.5-.3 1-.7 1.7-.5.4 0 1 .2.9.8l-.1 4.9.2 3h-.6zm-37.4 255.7c-.8-.6-1.3-1.4-1.8-2.1-1-2-1.5-4-2.1-6-.4-1.3-.6-2.8-.6-4.2l-.6-6.6a63 63 0 0 0-.3-1.9l2.4.6a4 4 0 0 0-1 1.5c-.6 1-.7 2.2-1 3.3l-1.3 6.6a17 17 0 0 1-1.8 5c-.5.6-1.2 1-1.7 1.7-.3.2-.5.7-.7.9l-.7 1.9c-.2.3-.3 2-.7 1.3-.2-1.2-.1-2.4.2-3.6 0-.4.3-.8.4-1.2.3-.8 1-1.4 1.4-2.2l.6-1.6c.9-3.3 1-6.7 1.6-10 .3-1.4.7-2.7 1.3-4 .4-.6.9-1.4 1.5-2 .9-.6 2 .2 2 1.2.5 1.4.6 3 .8 4.4l.6 5.2c.2 1.6.4 3.1 1 4.6.3 1.2.6 2.3 1.2 3.4.2.6.6 1.1 1.2 1.5l-1.9 2.3zm93.8 15.5c.1 2.6-.8 5.1-1.7 7.5-1 2.3-2.2 4.5-3.6 6.5-1 1-2.5.2-2.8-1-1.6-3-2.7-6.1-3.7-9.3l-2-8.2c-.4-1.5-.7-3-1.4-4.3-.5-1.7-1.2-3.3-1.4-5.1l3 .1c-.7 4-1.1 8-2.1 11.8-.5 1.3-.8 2.6-1.4 3.9-.9 1.2-2.6 0-2.3-1.3-.2-2.2-.3-4.3-.7-6.5-.3-2.5-1-4.9-1.6-7.3l-.9-3 2.3-.2c-1 6-1.9 12.2-4.1 17.9a19 19 0 0 1-2.8 5c-1.1 1.8-2-.8-1.9-1.9l-1.5-8.7c1.1.7 1 3.4 1.8 4.8.4 1.7 1.4 4.1 1.4 5.6-.8-.2-1.5-.3-.6-1.2 1-2 1.9-4 2.5-6.2 1.4-5.2 2.1-10.5 2.9-15.7.3-1.6 2.5-1 2.5.4.5 1.6 1.1 3.2 1.5 5 .6 2 1.1 4 1.4 6 .4 2.1.5 4.2.7 6.3l-2.6-.5c1-2.9 1.3-5.9 1.8-8.9l.9-6c.6-1.8 3.1-1 2.9.8.4 2.8 2.1 5.4 2.6 8.2.8 3.4 1.7 6.7 2.7 10 .5 2 1.3 3.8 2 5.7l1.1 1.9-2.6-.2c1.9-2.7 3.3-5.8 4.2-9 .2-1 .5-2 .4-3l3.1.1zm-37.1-13c-.3-1-.5-2.2-1-3.2l-.4-.7c-.3-.7-1.2-1.2-1.6-1.9-1-1.2-1.4-2.8-1.8-4.3-.8-3.3-1.1-6.7-2.2-10l-1-2c-.5-.4-.4-.5.3-.6l1.7-.4c-.2 1.3-.5 2.6-.5 4-.2 2.3-.3 4.7-.7 7-.2 1.1-.4 2.2-.8 3.2-.4 1.5-1 3-1.7 4.5-.5.7-1 1.5-1.7 2-.4.4-.5-.5-.7-.7l-1.2-1.9c.4-.3.6-.8 1-1.2.2-1 .8-1.7 1-2.6.3-1.4.9-2.8 1-4.3.4-2.2.5-4.4.7-6.6.3-1.6.3-3.3 1-4.8.4-.9 1.8-.9 2.3 0a9 9 0 0 1 1.5 2.8c1.3 3.6 1.2 7.4 2 11 .3 1.4.6 2.8 1.5 4 .7.6 1.2 1.6 1.5 2.6.2 1.2.4 2.5.2 3.8l-.4.3z"/>
    </g>
  </g>
</svg>
