<svg xmlns="http://www.w3.org/2000/svg" fill="#d7374a" stroke="#000" viewBox="50 50 200 200">
  <metadata source="http://wappenwiki.org/images/f/f5/Tanne.svg" license="https://creativecommons.org/licenses/by-nc-sa/3.0"/>
  <g id="pineCone" stroke-width=".54">
    <path d="M101.83 130.23s-.67 1.61-.93 3.72c-.27 1.94-.22 3.82-.49 4.51-.32.95-1.43 1.13-3.06 1.3s-3.83.2-3.83-.44c0-.37 3.04-.94 4.03-2.93 1.47-3.55.57-6.54.57-6.54"/>
    <path d="M102.72 63.82s.45-.62 1.18-.6c1.76 0 3.74 4.54 3.74 4.54s1.54.09 2.8 1.52a20.28 20.28 0 0 1 2.61 4.51c.04.02.82.22 1.7 1.11 2.2 2.7 2.74 8.61 2.74 8.61s2.54 1.61 3.4 6.05c.88 4.44.04 7.82.25 8.49.34.96 1.25 3.11 1.25 6.26s-1 4.23-1.16 5.6c-.25 1.19.23 4.2-.64 6.6-.86 2.37-3.35 4.72-3.35 4.72s-1.04 2.3-2.4 3.77c-1.6 1.72-3.5 2.74-3.5 2.74s-1.26 1.49-3.82 2.42-3.94.7-3.94.7-1.3.48-3.65.48-3.6-.48-3.6-.48-1.38.23-3.94-.7-3.8-2.42-3.8-2.42-1.92-1.02-3.52-2.74c-1.36-1.48-2.4-3.77-2.4-3.77s-2.47-2.35-3.34-4.73-.4-5.39-.65-6.59c-.16-1.37-1.16-2.47-1.16-5.6 0-3.15.91-5.28 1.25-6.26.23-.68-.6-4.05.25-8.49s3.28-6.05 3.28-6.05.66-5.9 2.88-8.6c.88-.92 1.66-1.1 1.7-1.12 0 0 1.2-2.88 2.61-4.5 1.26-1.44 2.8-1.53 2.8-1.53s1.98-4.55 3.74-4.55c.73-.01 1.18.61 1.18.61s1.02-3.67 2.72-3.67 2.8 3.69 2.8 3.69"/>
    <path d="M102.76 63.82s-.83 1-1.33 2.38a13.4 13.4 0 0 0-.57 3.05"/>
    <g fill="none">
      <path d="M104.53 87.75s-.22-2.65-1.41-4.6c-1.2-1.91-2.31-2.79-3.12-2.79s-1.93.88-3.11 2.8c-1.22 1.94-1.42 4.6-1.42 4.6m12.1 0s-.03-2.12.93-3.93c.93-1.75 1.99-3 2.87-3s2.06 1.63 3.04 3.8c.98 2.2.9 4.74.9 4.74"/>
      <path d="M102.33 82.08s.02-3.45.9-5.3c.85-1.79 1.93-3.08 2.8-3.11s2.13 1.54 3.19 3.67c1.07 2.14 1.1 4.02 1.1 4.02m-8.35 14.07s.21-3.99 1.2-5.8c.95-1.73 2.08-2.97 2.97-2.97.88 0 2.04 1.65 3 3.83.97 2.2.87 4.62.87 4.62"/>
      <path d="M115.88 102.52s-.1-4.2-1.04-6.03c-.9-1.77-2-3.04-2.88-3.06s-2.1 1.6-3.12 3.74c-1.02 2.18-.98 4.58-.98 4.58"/>
      <path d="M120.4 97.97s-.48-5-1.32-6.64c-.8-1.57-1.79-2.7-2.58-2.72-.78-.01-1.77 1.24-2.68 3.17-.6 1.22-.6 2.35-.6 2.35m-2.52 15.9s-.1-3.77-1.07-5.68c-.95-1.86-2.1-3.19-3.02-3.2-.93-.02-2.19 1.66-3.26 3.91-1.08 2.3-1.04 4-1.04 4m16.92 2.09s.37-3.58-.3-5.57c-.62-1.91-1.48-3.2-2.25-3.3-.77-.08-1.86 1.35-2.97 3.54-1.13 2.18-1.04 4.36-1.04 4.36"/>
      <path d="M115.34 118.2s.14-3.33-.75-5.28c-.88-1.9-1.97-3.26-2.9-3.31-.91-.05-2.26 1.58-3.4 3.8a8.75 8.75 0 0 0-.91 2.82m4.49-35.31s-.36-1.58-.02-3.6c.34-1.95.77-3.38 1.16-3.55m-6.57-.01s-.28-1.47.06-3.5c.34-1.95.73-2.41 1.1-2.52m-3.07 6.93s-.22-1.29-1.41-3.24c-1.2-1.92-2.31-2.44-3.12-2.44s-1.93.52-3.11 2.44c-1.22 1.95-1.42 3.24-1.42 3.24m22.13 8.79c-.45.14-1.08 1.2-1.47 2.43-.43 1.42-.32 3.01-.32 3.01m5.26 9.04s-1.22-.52-2.38 1c-1.22 1.61-1.52 3.55-1.52 3.55m-12.3-.06s-.48-3.6-1.7-5.55c-1.2-1.91-2.38-2.79-3.19-2.79s-1.98.88-3.18 2.8c-1.22 1.94-1.7 5.54-1.7 5.54m9.77 13.2s-.48-3.51-1.7-5.47c-1.2-1.91-2.38-2.63-3.19-2.63s-1.98.74-3.18 2.63c-1.22 1.96-1.7 5.46-1.7 5.46m26.02-5.62c-.75-.21-2.06 1.06-3.47 3.03-1.43 1.99-1.77 5.08-1.77 5.08m-11.48 10.13s-.43-3.16-1.52-4.94c-1.07-1.73-2.15-2.38-2.88-2.38s-1.83.67-2.9 2.38c-1.1 1.76-1.52 4.94-1.52 4.94"/>
      <path d="M109.02 124.04s.25-3.6-.53-5.6c-.77-1.94-1.56-3.3-2.47-3.4-.92-.11-2.35 1.35-3.62 3.52-1.29 2.17-1.25 2.86-1.25 2.86"/>
      <path d="M111.44 127.7s.14-3.05-1.29-3.66c-.84-.38-2.65.59-4.51 2.25-1.88 1.69-2.06 4.53-2.06 4.53m6.84-6.7s.95-2 2.38-3.6c1.4-1.55 2.88-2.71 3.8-2.5.89.22.73 3.19.73 3.19M99.1 69.25s-.11-1.7-.58-3.05c-.48-1.38-1.32-2.38-1.32-2.38m-4.8 23.93s.04-2.1-.93-3.92c-.93-1.75-1.99-3-2.86-3s-2.06 1.63-3.05 3.8c-.98 2.2-.9 4.74-.9 4.74"/>
      <path d="M97.64 82.08s-.02-3.45-.9-5.3c-.86-1.79-1.93-3.08-2.8-3.11s-2.14 1.54-3.2 3.67c-1.07 2.14-1.07 4.02-1.07 4.02M98 95.43s-.22-3.99-1.2-5.8c-.95-1.73-2.08-2.97-2.97-2.97-.88 0-2.05 1.65-3.01 3.83-.97 2.2-.86 4.62-.86 4.62"/>
      <path d="M84.1 102.52s.11-4.2 1.04-6.03c.9-1.77 2-3.04 2.89-3.06s2.09 1.6 3.11 3.74c1.02 2.18.98 4.58.98 4.58"/>
      <path d="M79.56 97.97s.48-5 1.32-6.64c.8-1.57 1.8-2.7 2.58-2.72.79-.01 1.77 1.24 2.69 3.17.6 1.22.6 2.35.6 2.35m2.51 15.9s.1-3.77 1.07-5.68c.95-1.86 2.1-3.19 3.03-3.2s2.18 1.66 3.26 3.91c1.07 2.3 1.04 4 1.04 4m-16.88 2.09s-.38-3.58.28-5.57c.63-1.91 1.49-3.2 2.26-3.3.77-.08 1.86 1.35 2.97 3.54 1.13 2.18 1.04 4.36 1.04 4.36"/>
      <path d="M84.64 118.2s-.14-3.33.77-5.28c.88-1.9 1.97-3.26 2.9-3.31s2.26 1.58 3.4 3.8a8.25 8.25 0 0 1 .92 2.82m-4.51-35.31s.35-1.58.01-3.6c-.34-1.95-.77-3.38-1.16-3.55m6.55-.01s.29-1.47-.05-3.5c-.34-1.95-.74-2.41-1.11-2.52m-9.97 15.72c.44.14 1.07 1.2 1.46 2.43.43 1.42.33 3.01.33 3.01m-5.27 9.04s1.22-.52 2.39 1c1.21 1.61 1.52 3.55 1.52 3.55M78.84 110c.75-.21 2.06 1.06 3.48 3.03 1.43 1.99 1.77 5.08 1.77 5.08"/>
      <path d="M90.94 124.04s-.25-3.6.54-5.6c.77-1.94 1.56-3.3 2.47-3.4s2.35 1.35 3.62 3.52c1.29 2.17 1.25 2.86 1.25 2.86"/>
      <path d="M88.53 127.7s-.15-3.05 1.27-3.66c.84-.38 2.65.59 4.5 2.25 1.89 1.69 2.07 4.53 2.07 4.53m-6.8-6.7s-.95-2-2.39-3.6c-1.4-1.55-2.88-2.71-3.79-2.5-.9.22-.73 3.19-.73 3.19"/>
    </g>
    <g stroke="none" fill="#000">
      <path d="M120.57 101.82s.07.45.12 1.1c.02.16.04.34.04.53l.02.61v.65l-.04.66-.05.66c-.02.21-.06.43-.07.64s-.08.42-.1.6l-.1.53-.1.45-.1.34-.09.29-.05-.02.1-1.1.06-.53.05-.6.06-.62.05-.64.05-.65.04-.62.04-.6c.02-.18.01-.37.01-.53.02-.7.06-1.15.06-1.15zm-14.43-21.67s.07.39.13 1l.09 1.02.01.57v1.22l-.01.59-.08 1.02a5.45 5.45 0 0 1-.12 1h-.06l-.01-.27-.04-.73c-.02-.3-.02-.64-.02-1.02l-.01-.57v-.6l.01-.58c0-.2.02-.4 0-.58a17.76 17.76 0 0 1 .11-2.07zm.09 12.72s.07.52.13 1.3c.03.39.07.83.08 1.32l.02.75v1.54l-.02.75c-.01.48-.05.95-.07 1.32-.01.4-.05.72-.09.95l-.03.36h-.06l-.01-.36-.04-.95c-.02-.4-.02-.84-.02-1.32v-1.52c0-.25 0-.52.02-.77l.02-.75c0-.49 0-.95.02-1.33.01-.77.03-1.29.05-1.29zm.18 15s.07.45.14 1.11l.04.54.02.6v1.33l-.04.67-.04.64-.1 1.15c-.07.66-.18 1.1-.18 1.1h-.06v-1.1c0-.34 0-.74.02-1.15 0-.21 0-.43.02-.64l.02-.67.02-.66.01-.64.02-.61.02-.54c.05-.68.07-1.13.09-1.13zm5.94-8.66s.04.41.06 1v1.02c0 .18 0 .38-.02.58s-.04.39-.04.6l-.05.6-.06.57c-.05.37-.1.71-.16 1.02l-.14.71-.07.27h-.06v-.27l.02-.73.07-1.02.04-.57.05-.6.06-.58.05-.58a46.68 46.68 0 0 1 .25-2.02zm-.86-13.1s.11.4.24.98l.07.49.05.53c.02.2.04.4.04.6l.01.6-.01.61c0 .2-.02.4-.04.6a27.19 27.19 0 0 1-.1 1.01 6.99 6.99 0 0 1-.2.99h-.06v-.27c0-.18 0-.43.02-.74.02-.3 0-.64.02-1.02v-.57c0-.2.02-.4 0-.6v-1.15l-.02-.54c0-.18 0-.34-.02-.48V86.1zm.27 28.33s.02.45-.02 1.13c-.01.16 0 .36-.03.54l-.07.6-.1.65c-.05.22-.08.43-.14.66-.05.22-.09.45-.16.67-.05.21-.12.42-.18.62l-.2.57c-.07.17-.12.36-.2.5-.06.17-.12.31-.19.42-.05.12-.1.23-.16.32-.09.18-.16.27-.16.27l-.05-.02.09-.29c.07-.18.14-.44.23-.77.03-.16.09-.34.14-.51l.16-.58.16-.62.15-.65.14-.64c.04-.22.07-.43.13-.63.03-.2.07-.4.12-.59.04-.18.05-.38.09-.54l.25-1.1zm-5.96 4.51s.02.42.02 1.02c0 .17 0 .33-.02.49l-.04.55-.05.6-.07.6c-.04.2-.05.4-.09.61l-.1.57c-.04.17-.08.38-.13.54-.04.18-.1.32-.13.48-.03.15-.09.29-.12.4l-.11.3c-.07.16-.1.27-.1.27l-.06-.02.16-1 .07-.48c.04-.18.05-.36.07-.54.06-.38.13-.77.18-1.16l.1-.6c.02-.2.04-.39.08-.57.02-.18.05-.37.09-.53l.07-.49c.07-.64.16-1.04.18-1.04zm10.8-11.43s.03.4.05 1c0 .3.02.64 0 1.02 0 .2 0 .37-.02.57s-.04.4-.04.6l-.05.58-.05.58-.16 1.02c-.05.3-.11.53-.15.71a1.7 1.7 0 0 1-.07.27h-.03v-.27l.01-.73.07-1.02.04-.58.05-.59.06-.59.05-.57a37.29 37.29 0 0 1 .23-2zm.26-12.64s.1.4.18.98a14.13 14.13 0 0 1 .1 2.22c0 .4 0 .8-.04 1.18-.04.38-.06.74-.11 1.02a10.74 10.74 0 0 1-.16.99h-.04l-.02-.27-.01-.73v-1.6l.01-.59c0-.19 0-.4.02-.59l.02-.57.02-1.02c0-.63.03-1.02.03-1.02zm-2.04-16.45s.13.37.29.96l.1.49.11.54c.07.37.13.76.18 1.18.04.39.1.8.11 1.18s.04.73.04 1.04c0 .6-.04 1.02-.04 1.02h-.05l-.04-.27c-.02-.18-.07-.43-.1-.72-.04-.3-.1-.64-.13-1.02-.02-.18-.06-.37-.07-.57-.02-.2-.04-.4-.08-.6-.01-.19-.03-.39-.07-.58l-.05-.58-.05-.53-.06-.49a8.5 8.5 0 0 1-.09-1.05zM110 72.38s.12.37.29.96l.1.49.11.53c.07.38.13.77.18 1.19.04.39.09.8.1 1.18s.04.73.04 1.04c0 .6-.03 1.02-.03 1.02h-.06l-.03-.27-.11-.72-.13-1.02c-.01-.18-.05-.37-.07-.57s-.03-.4-.07-.6c-.02-.19-.03-.39-.07-.58l-.05-.58-.06-.53-.05-.49-.1-1.05zm-6.12-5.87s.16.32.34.8c.05.13.1.25.14.4l.14.44.15.49.12.5.11.5c.04.16.05.34.09.5s.03.32.07.47l.05.4c.06.53.04.88.04.88h-.05l-.22-.84-.2-.86-.1-.48-.11-.5-.21-.98c-.08-.33-.13-.61-.18-.86-.16-.52-.22-.86-.18-.86zm15.4 47.02s-.03.36-.13.9l-.1.42-.12.47c-.05.16-.09.34-.16.5l-.2.5-.21.5-.23.47-.24.43c-.07.14-.14.27-.21.37l-.2.3c-.05.1-.12.17-.16.24-.09.13-.16.2-.16.2l-.05-.04.1-.23.27-.6c.05-.12.1-.24.18-.38.05-.15.13-.3.2-.45s.12-.32.2-.47l.2-.48.19-.48.18-.49.18-.44c.06-.14.1-.3.14-.42l.34-.82zm-4.27 8.1-.07.22c-.04.08-.05.16-.1.25-.06.1-.1.22-.17.33-.05.12-.14.23-.21.37l-.27.4-.3.4-.35.4c-.25.25-.48.5-.73.72s-.48.4-.7.57c-.43.32-.73.48-.73.48l-.04-.03.61-.61.63-.63.34-.36.35-.37c.11-.13.24-.25.34-.38s.24-.25.33-.37c.1-.13.21-.24.28-.36.1-.1.18-.23.25-.32l.22-.29.16-.23a.9.9 0 0 0 .16-.2zm-5.87 4.97-.07.23c-.04.07-.06.16-.1.25-.06.09-.1.22-.17.32-.05.13-.14.24-.22.38l-.26.4-.3.4-.35.4c-.25.25-.48.5-.73.71s-.49.42-.7.58c-.43.32-.73.48-.73.48l-.04-.04.6-.6.64-.63.34-.36.35-.37.34-.38c.1-.12.24-.25.33-.38.1-.12.21-.23.28-.35.1-.11.18-.24.25-.33l.22-.28.16-.24.16-.2zm-9.06-53.15s.06.41.1 1.04l.05 1.07.01.61v1.26l-.01.6c-.02.4-.02.76-.06 1.08a15.9 15.9 0 0 1-.09 1.04h-.05s-.06-.42-.1-1.04l-.04-1.08-.02-.6v-1.26l.02-.6.05-1.08c.1-.63.14-1.04.14-1.04zm0 12.57s.06.5.1 1.27l.05 1.3.01.74v1.5l-.01.74c-.02.48-.02.91-.06 1.3-.03.77-.09 1.27-.09 1.27h-.05s-.06-.5-.1-1.27c0-.37-.03-.82-.04-1.3l-.02-.74v-1.5l.02-.73.05-1.31c.1-.77.14-1.27.14-1.27zm0 13.28s.06.5.1 1.27l.05 1.3.01.74v1.5l-.01.74c-.02.48-.02.91-.06 1.3-.03.78-.09 1.28-.09 1.28h-.05s-.06-.5-.1-1.27c0-.38-.03-.83-.04-1.31l-.02-.74v-1.5l.02-.73.05-1.3c.1-.78.14-1.28.14-1.28zm0 13.46s.06.5.1 1.27l.05 1.3.01.74v1.5l-.01.74c-.02.48-.02.91-.06 1.3-.03.78-.09 1.28-.09 1.28h-.05s-.06-.5-.1-1.27c0-.38-.03-.83-.04-1.31l-.02-.73v-1.5l.02-.74.05-1.3c.1-.78.14-1.28.14-1.28zm0 11.74s.06.43.1 1.06l.05 1.1.01.6v1.25l-.01.61c-.02.4-.02.77-.06 1.1-.03.62-.09 1.05-.09 1.05h-.05s-.06-.43-.1-1.06c0-.32-.03-.68-.04-1.09l-.02-.6v-1.26l.02-.6.05-1.1c.1-.63.14-1.06.14-1.06zm19.24-36.2.15.26c.03.09.09.2.16.32l.18.43c.07.16.14.32.2.52.07.18.14.38.2.6l.17.62.14.66c.04.21.1.45.13.66l.09.65.05.6.02.56c0 .68-.05 1.13-.05 1.13h-.06s-.03-.45-.12-1.11l-.07-.54-.1-.59-.1-.64c-.04-.22-.07-.43-.13-.67l-.12-.64-.14-.63c-.04-.2-.11-.4-.15-.59l-.14-.52-.13-.44a3.91 3.91 0 0 0-.1-.34c-.08-.2-.08-.3-.08-.3zm-25.45-8.15.07 1c.02.3.02.64.02 1.04v.57c0 .2 0 .4.02.6v.58c0 .2 0 .4-.02.57 0 .38 0 .74-.02 1.02l-.03.74-.02.27h-.05l-.04-.27-.09-.74c-.04-.3-.05-.64-.07-1.02l-.02-.59v-1.21l.02-.58a13.58 13.58 0 0 1 .23-1.98zm-.09 12.72s.04.52.06 1.31l.01 1.32.02.76c0 .26 0 .52.02.77v1.52c0 .48 0 .95-.02 1.32l-.03.95-.02.36h-.06l-.03-.36-.1-.95c-.03-.4-.05-.84-.06-1.32-.02-.25-.02-.5-.02-.75v-1.54l.02-.76c.01-.48.05-.94.09-1.32.03-.79.09-1.3.12-1.3zm-.18 15s.04.45.06 1.13l.01.54.02.6.02.65.02.66.02.67.01.64c.02.41.02.8.02 1.15v1.1h-.05s-.1-.44-.18-1.1a52.65 52.65 0 0 1-.14-1.8l-.04-.66c0-.44-.02-.9 0-1.32l.02-.6.03-.55c.1-.66.15-1.1.18-1.1zm-5.96-8.66s.07.4.15 1a46.68 46.68 0 0 1 .16 1.6l.05.59.05.59.04.57c.04.38.05.72.07 1.02s.02.56.02.73v.27h-.05l-.08-.27c-.03-.17-.09-.4-.14-.71l-.16-1.02-.05-.58-.06-.59c-.02-.2-.03-.39-.03-.6-.02-.2-.02-.4-.02-.58v-1.02c.02-.59.03-1 .05-1zm.86-13.1s0 .4-.03 1c-.02.14 0 .32-.02.48 0 .18 0 .36-.02.54s0 .38 0 .57v1.76c.02.37.02.71.02 1.02s0 .55.02.73v.27h-.06s-.03-.09-.07-.27-.09-.43-.13-.71c-.01-.15-.05-.3-.05-.49l-.05-.54-.04-.59-.02-.6.02-.61c0-.2.02-.4.04-.6l.05-.55.07-.48.27-.93zm-.27 28.32.2 1.1c.04.17.05.35.09.54.03.18.09.38.12.6l.13.62.14.64.15.65.16.62.16.58.14.52.23.77c.05.18.1.28.1.28l-.06.02-.16-.27-.16-.32-.2-.41-.2-.5c-.08-.18-.14-.38-.2-.58l-.17-.62-.16-.66c-.06-.22-.1-.45-.15-.67-.03-.21-.05-.43-.09-.64s-.05-.41-.07-.61c-.03-.2-.02-.38-.03-.54 0-.66.03-1.12.03-1.12zm5.98 4.52s.1.4.18 1l.07.49.1.54c0 .18.04.37.08.57.02.2.05.4.09.59.05.4.1.8.18 1.16.04.18.05.38.07.54.04.18.05.34.07.48l.16 1-.07.02-.1-.26c-.04-.1-.08-.18-.11-.3l-.13-.4c-.03-.14-.09-.3-.12-.49-.06-.16-.1-.35-.13-.53s-.09-.38-.1-.58-.06-.39-.1-.6c-.01-.2-.05-.42-.07-.61l-.05-.6-.04-.55-.01-.48c-.04-.57 0-.99.03-.99zM83.4 107.52s.07.39.14 1l.11 1.02.02.28.03.3.06.58.05.6.04.57.07 1.02c.02.3.02.55.02.73v.27h-.06l-.07-.27c-.03-.18-.09-.41-.14-.72l-.16-1.02-.06-.57-.05-.59c-.02-.2-.04-.4-.04-.6l-.01-.56v-1.02c0-.61.05-1.02.05-1.02zm-.27-12.64s.02.41.02 1c.02.3.02.65.02 1.02l.01.57c0 .2 0 .4.02.6 0 .2 0 .39.02.59v2.6h-.05s-.1-.4-.16-1c-.04-.3-.08-.64-.11-1.01s-.04-.77-.06-1.19c0-.39 0-.8.02-1.18s.06-.73.1-1.04c.08-.57.17-.96.17-.96zm2.06-16.45s-.02.41-.1 1c-.03.14-.04.32-.06.48l-.06.54-.05.57c-.02.2-.03.4-.07.6l-.07.59c-.02.2-.06.39-.07.57l-.13 1.02c-.03.3-.07.55-.1.71-.04.18-.04.27-.04.27h-.06s-.03-.4-.03-1.02l.03-1.04c.01-.38.06-.78.11-1.18.06-.4.1-.8.18-1.18l.1-.54.12-.48c.14-.54.26-.91.3-.91zm4.8-6.05s-.02.41-.11 1l-.05.48-.06.54-.05.57-.07.6-.07.58-.08.58c-.03.37-.09.71-.12 1.02s-.07.55-.1.71c-.05.18-.05.27-.05.27h-.05s-.03-.4-.03-1.02l.03-1.04c.02-.37.07-.78.1-1.18l.19-1.18.1-.54.11-.48c.16-.54.3-.91.3-.91zm6.14-5.87-.16.86-.18.86-.22.98-.1.5-.11.48-.2.86-.21.84h-.06s-.02-.35.04-.87c.02-.13.02-.27.05-.41l.07-.47.1-.5.1-.5.12-.5c.03-.16.1-.33.15-.49l.14-.44c.04-.15.1-.27.14-.4.17-.5.33-.8.33-.8zm-16.7 35.31.07 1.11.02.54.03.6.04.62.05.64c.02.22.02.43.05.65l.06.62.05.6.06.53.1 1.1-.05.01-.09-.29-.09-.34c-.04-.13-.07-.28-.1-.44l-.11-.54c-.03-.2-.08-.4-.1-.6-.01-.2-.05-.4-.07-.64l-.05-.66-.04-.66c-.02-.21 0-.43 0-.64s0-.42.02-.61c0-.2.02-.38.04-.54.03-.6.09-1.06.1-1.06zm1.28 11.71a17.99 17.99 0 0 0 .47 1.25c.05.15.13.29.18.45s.1.32.18.48.14.33.2.49c.07.16.12.34.2.48l.19.47c.07.16.12.3.2.44s.1.27.17.4l.27.59.11.23-.05.04-.16-.2-.17-.23c-.06-.1-.12-.2-.2-.3s-.14-.26-.2-.38c-.08-.15-.17-.27-.24-.43l-.23-.47-.22-.5c-.07-.16-.12-.34-.2-.5s-.1-.34-.16-.5-.08-.32-.12-.47a16.94 16.94 0 0 1-.21-1.34zm4.26 8.1.15.19c.03.07.09.14.16.23l.21.29.25.32.3.36.31.37c.11.13.24.25.34.38l.36.37c.12.12.23.26.34.36l.63.63.6.6-.03.04s-.3-.16-.73-.48a9.2 9.2 0 0 1-1.43-1.29l-.35-.4c-.1-.14-.21-.26-.3-.4s-.2-.27-.27-.4-.16-.25-.21-.37l-.16-.33-.11-.25a1.03 1.03 0 0 0-.06-.23zm5.88 4.97.14.2.16.23.22.28c.07.11.16.22.25.33.09.12.2.23.28.35l.32.38c.11.12.24.25.34.38l.36.37.34.36.63.63.6.6-.03.04s-.3-.16-.73-.48a9.2 9.2 0 0 1-1.43-1.29l-.34-.4c-.11-.14-.22-.26-.3-.4s-.2-.28-.28-.4-.16-.25-.21-.38-.1-.23-.16-.32-.07-.18-.11-.25l-.05-.23zM80.67 88.3l-.1.3-.1.34-.12.44c-.06.16-.1.34-.15.52s-.1.38-.14.6l-.14.62c-.06.21-.1.43-.13.64-.03.22-.09.43-.12.67l-.11.64c-.04.22-.05.41-.09.6l-.07.53-.13 1.1h-.05s-.07-.44-.05-1.12l.01-.55c.01-.2.02-.4.06-.61.01-.22.03-.43.09-.65.03-.21.07-.45.12-.66l.14-.66.18-.63c.06-.21.13-.4.2-.59.05-.18.13-.36.2-.52l.18-.43c.06-.13.1-.23.16-.32l.16-.27zm19.4-25.07s.06.34.1.84l.05.86.01.48v1l-.01.5c-.02.31-.02.6-.06.85-.03.5-.09.84-.09.84h-.05s-.06-.34-.1-.84a55.1 55.1 0 0 1-.04-.86l-.02-.48v-1l.02-.49.05-.86c.1-.5.14-.84.14-.84z"/>
    </g>
  </g>
</svg>
