<svg xmlns="http://www.w3.org/2000/svg" fill="#d7374a" stroke="#000" viewBox="50 50 200 200">
  <metadata source="http://wappenwiki.org/images/7/79/Both_Van_der_Eem.svg" license="https://creativecommons.org/licenses/by-nc-sa/3.0"/>
  <g id="plaice" stroke-width="2.6897" transform="translate(49.1 58) scale(-0.188 0.188) rotate(90)">
    <g>
      <path class="secondary" d="M168.8 480.6c5-1.4 8.3-6.3 9.9-11.3.6-1.9.8-4 1.6-5.9 1.7-4.2 5.7-7.4 10.4-10.3 9.4-6 7.9-11.2 11.8-16.2 6.7-8.6 7.3-18 6.3-28h44c-1 10-.5 19.4 6.3 28 3.9 5 2 10.2 11.4 16.2 4.7 3 8.6 6.6 10.4 10.8.8 1.9 1 3.9 1.6 5.9 2.5 8.6 1.7 7.4 9.1 10.9.8.3-8.2 6.8-15.9-3-17.4-.3-34.3-1.3-45-14.5-10.8 13.2-27.7 14.2-45 14.5-9.9 10.5-16.9 2.9-16.9 2.9z"/>
      <path fill="none" d="M185.5 477.5c5.8-6.9 5-11.1 7.6-15.9"/>
      <g stroke="none" fill="#000">
        <path d="M192 461c.7-1.1 1.6-2 2.4-2.9l2.6-2.5c1.8-1.6 3.7-3.1 5.7-4.4a33.7 33.7 0 0 0-6.7 8.2l-1.6 2.9-2.4-1.3zM201.3 468.3c.6-2.1 1.8-4 3.1-5.7a48 48 0 0 1 4.3-4.7l4.2-4.4a27 27 0 0 0 3.5-5.1c.1 2.2-.7 4.4-1.8 6.3a25 25 0 0 1-4 5.1 61.4 61.4 0 0 1-4.7 4.2c-1.6 1.4-3.1 2.7-4.6 4.3zM215.3 464.7a7 7 0 0 1 1.4-2.7l2.1-2.2 2.1-1.9 1.8-1.9c1.1-1.4 1.9-2.9 2.5-4.6.6-1.7 1.1-3.8 2.4-5.4l-.3 5.9c-.2 2.1-1.1 4.2-2.4 5.8l-1.1 1.2-1.2 1-2.5 1.6-2.5 1.5c-.8.4-1.6.9-2.3 1.7z"/>
      </g>
      <path fill="none" d="M275.6 477.5c-5.8-6.9-5-11.1-7.6-15.9"/>
      <g stroke="none" fill="#000">
        <path d="M266.8 462.3c-.4-1-1-2-1.6-2.9l-2-2.9a33.7 33.7 0 0 0-4.7-5.3c2 1.2 3.9 2.7 5.7 4.4l2.6 2.5 2.4 2.9-2.4 1.3zM259.8 468.3c-1.5-1.6-3-2.9-4.6-4.3l-4.7-4.2a25 25 0 0 1-4-5.1 11.8 11.8 0 0 1-1.8-6.3 27 27 0 0 0 3.5 5.1l4.2 4.4c1.5 1.5 2.9 3 4.3 4.7 1.4 1.7 2.6 3.6 3.1 5.7zM245.8 464.7c-.7-.7-1.5-1.2-2.3-1.7l-2.5-1.5-2.5-1.6-1.2-1-1.1-1.2a11.8 11.8 0 0 1-2.4-5.8c-.3-2.1-.1-3.9-.3-5.9 1.3 1.6 1.8 3.7 2.4 5.4.6 1.8 1.4 3.2 2.5 4.6l1.8 1.9 2.1 1.9 2.1 2.2a5 5 0 0 1 1.4 2.7z"/>
      </g>
    </g>
    <path class="secondary" d="M179.6 100.4c-1.7 1.1-3.7 2-5.2 3.1l-12.9 9.1c-9.9 7-19.9 14-27.8 23.2-4.4 5.1-8.1 10.8-11.7 16.4l-25.4 39.3a137 137 0 0 0-18.2 45 92 92 0 0 0 7.3 57.4 180 180 0 0 0 29.2 48.3c10.2 11.4 21 22.2 32.3 32.4 16 14.4 33.5 27.8 54 34.5 4.9 1.6 10.3 2.8 15 .8 4.3-1.8 3.4-6 6-8.2 3.4-2.9 9.1-2 13.1-.7 4.7 1.5 9 4 13.8 5.2 8.8 2.2 18.3-.2 26.2-4.7a135 135 0 0 0 38.5-36.4c12.2-15.9 23.2-26.4 35.5-42.3 15.2-19.5 25.3-58.3 17.4-81.7-8.7-26.3-10.8-41.5-26.7-64.2-1.7-2.5-3.6-5-4.9-7.8-1-2.1-1.7-4.3-3-6.2-1.4-2-3.3-3.5-5.3-4.9-3.4-2.3-7-4.4-10.7-6.1-2.6-1.2-8.5-1.8-9.8-4.6.5 1.2 5.8-.6 7-.6 3.8-.2 7.7.8 11.6.7-.4-4-4.2-6-6.2-9.1-2.3-3.5-4.9-6.7-7.2-10.1-2-3-3.2-6.2-6.2-8.6-5.5-4.5-13-5.5-20.2-5.9-14.5-.7-29.1.7-43.3-2-6.6-1.2-13-3.5-18.7-6.9-5.2-3.2-9.3-9.7-15.1-11.4-3.1-.9-6.2-1.6-9.4-1.6-4.3 0-17.9 7.8-19 8.6z"/>
    <g stroke="none" fill="#000">
      <path d="M188.9 113.2a38.6 38.6 0 0 1-14.2 2.4c4.7-.8 9.1-2.4 13-4.8l1.2 2.4z"/>
      <polygon points="178.7,126.3 161.3,128.1 178.2,123.7"/>
      <path d="m167.8 135.5.2.6.1.7c0 .5-.2.9-.4 1.2-.4.6-.9.9-1.3 1.2-.9.5-1.8.8-2.7.9l-4.9.5c-3.3.2-6.5.2-9.8 0a76.4 76.4 0 0 0 14.3-2.4 5 5 0 0 0 1.8-.9l.4-.5-.1.1 2.4-1.4zM151.6 155.3a68.2 68.2 0 0 1-19 2.7c6.3-.9 12.4-2.7 18-5.3l1 2.6z"/>
      <polygon points="138.3,171.9 123.8,172 138.1,169.2"/>
      <path d="M130.1 186.1a45 45 0 0 0-18.5 1.7 45.3 45.3 0 0 1 18.6-4.3l-.1 2.6zM315.2 140.6c-5.7.3-11.4.9-16.9 1.8l-.2-2.7c5.7 0 11.4.3 17.1.9zM306.8 127.7c-4 .4-8 1.3-11.6 2.8l-.7-2.6c4.1-.7 8.2-.7 12.3-.2zM298.8 123.6c-2.2-.1-4.3.4-6 1.4l-.8-2.6c2.5-.2 4.9.2 6.8 1.2zM325.9 165.7a40.8 40.8 0 0 0-16.9-2.1l-.1-2.7c6.1.4 11.9 2 17 4.8zM334.6 177.5a58.6 58.6 0 0 0-23.8-2.8l-.1-2.7a61 61 0 0 1 23.9 5.5zM337.8 190c-3.4-.8-6.9-1.2-10.4-1.6-3.5-.3-7-.4-10.4-.1v-2.7a85.4 85.4 0 0 1 20.8 4.4zM347.1 208.4a58.1 58.1 0 0 0-24-5.9l.2-2.7a61.9 61.9 0 0 1 23.8 8.6zM352 223.8a44.3 44.3 0 0 0-25.2-4.2l-.2-2.7c9.1-.3 18 2.2 25.4 6.9zM353.7 236.1a92.7 92.7 0 0 0-30.5-3.1v-2.7c10.4.3 20.8 2.3 30.5 5.8zM359.6 251.6c-9.7-3-19.8-4.7-29.9-5.2l.2-2.7c10.2 1.5 20.2 4.1 29.7 7.9zM360.3 265.8a69.2 69.2 0 0 0-33-4.1l-.3-2.7a70.2 70.2 0 0 1 33.3 6.8zM271.3 398c-4.9-.7-9.8-.4-14.4.9l-.4-2.7c5.1-.4 10.1.3 14.8 1.8zM278.9 390a34.1 34.1 0 0 0-18.9-1.6l-.4-2.7c6.8-.4 13.6 1.1 19.3 4.3zM288.6 379.4c-6.3-2.4-13-3.2-19.5-2.6l-.1-2.7c7 .2 13.7 2.1 19.6 5.3zM296.2 368.6a34 34 0 0 0-18.6-1.9l-.3-2.7c6.8-.2 13.4 1.4 18.9 4.6zM307.1 359.4a97.4 97.4 0 0 0-28.3-4.1l.1-2.7c9.7.9 19.3 3.2 28.2 6.8zM314.8 348.3c-8.4-1.4-16.9-2.2-25.4-2.6l.3-2.7c8.4 1.4 16.8 3.1 25.1 5.3zM323.3 340.2a46.5 46.5 0 0 0-25.5-8.4l.2-2.7a48.1 48.1 0 0 1 25.3 11.1zM331.1 329a15.3 15.3 0 0 0-5.6-3.4l-6.4-2.1-12.8-4.1.9-2.5 12.3 5.3c2 .9 4.1 1.7 6.1 2.7 2.2 1.1 4.1 2.3 5.5 4.1zM336.9 316.1c-7-2.8-14.2-4.8-21.5-6l.6-2.6c7.3 2.1 14.3 5 20.9 8.6zM346.2 306.3a68 68 0 0 0-27.2-10l.5-2.6c9.8 2.2 19 6.5 26.7 12.6zM352.4 293.7c-6-2-11.9-4-18-5.5a77 77 0 0 0-18.4-2.5l.1-2.7c6.4.4 12.6 1.9 18.6 3.9 6.1 1.9 11.9 4.4 17.7 6.8zM355.6 280.4a102.6 102.6 0 0 0-35.5-5.2v-2.7c12.2.6 24.3 3.3 35.5 7.9zM310.3 134.3c-5.3.2-10.5 1.1-15.3 2.9l-.7-2.6c5.3-1 10.8-1.1 16-.3zM125.1 201.9a23.6 23.6 0 0 1-9.3 2.6c-3.2.3-6.3 0-9.3-.9 3.1.4 6.2.3 9.1-.4 2.9-.7 5.7-1.9 8-3.6l1.5 2.3zM122.4 217.8c-8.5 1.1-17.1 1.5-25.7 1.3 8.5-.7 17-2 25.2-3.9l.5 2.6zM114.8 233.2c-8.9 1.2-17.9 1.6-26.9 1.4 8.9-.6 17.8-2 26.4-4l.5 2.6zM193.3 375.7a54.6 54.6 0 0 0-23.8-3.6c8-1.5 16.5-1.1 24.6 1.1l-.8 2.5zM202.2 389.9a54.6 54.6 0 0 0-23.8-3.6c8-1.5 16.5-1.1 24.6 1.1l-.8 2.5zM177.3 359.9a61.4 61.4 0 0 0-12.9-2.5c-4.4-.4-8.9-.6-13.3-.8 4.4-.2 8.9-.5 13.4-.5s9 .3 13.5 1.2l-.7 2.6zM160.6 343.1c-8.6-1.7-17.5-2.5-26.4-2.3 8.8-1.1 17.8-1.2 26.8-.4l-.4 2.7zM145.7 326.1c-7.4.1-14.7-.9-21.7-2.9a73.8 73.8 0 0 0 21.5.2l.2 2.7zM135.9 311.4a57 57 0 0 0-22.9-3.9c7.8-1.2 15.9-.8 23.7 1.3l-.8 2.6zM131.8 296.1c-6-2.3-12.2-3.9-18.6-4.7l-4.8-.5-4.8.1c-3.2.2-6.5.6-9.7.5 3.3-.1 6.4-.7 9.7-1.2l4.9-.5a87 87 0 0 1 24.3 3.6l-1 2.7zM117.4 278.9c-8.5-2.2-17.4-3.3-26.3-3.3 8.9-.9 17.9-.7 26.8.7l-.5 2.6zM115.4 263.1c-4.3-.7-8.8-1.2-13.2-1.7-4.4-.5-8.9-.8-13.3-1.2l13.4-.2c4.5 0 8.9.1 13.5.4l-.4 2.7zM116.7 249.3c-9-.3-17.9-1.4-26.6-3.2 8.9.9 17.8 1.1 26.6.5v2.7z"/>
    </g>
    <path d="M195 101.9c-1.1.8-2.1 1.7-3 2.8-.9 1.2-1.6 2.5-2.3 3.8-2.3 4.1-5.1 8-8.3 11.4-2.9 3.1-7.3 4.3-9.6 8.1-6.5 10.8-17.8 19.1-25.6 29.3a159.7 159.7 0 0 0-32.2 82.9c-1 12.1-.6 24.5 3.5 36a108 108 0 0 0 8.3 17.1c6.1 11 12.1 22 19.7 32 14.9 19.7 35 35.1 48.6 56a74.8 74.8 0 0 1 14 42.2c-.3 6.7 5 9.3 11.3 11.5 4.8 1.6 9.8 2.4 14.8 2.2 6.5-.2 15.5-2.7 17.9-8.7.9-2.3.5-4.8.7-7.2a86.5 86.5 0 0 1 10.8-36.1c5.9-10.5 14.2-19.1 20.5-29.2 2.3-3.8 4.2-7.8 6.4-11.7 7.3-13.2 17.2-24.7 25.9-37.1a86.5 86.5 0 0 0 17.3-41.2c1.2-14.9 2-29.5-.8-44.2a164.7 164.7 0 0 0-14.5-40.9c-4.8-9.8-11.4-19.5-14.8-29.9-3.6-11-8.3-21.3-11.3-32.5-1.1-4.1-1-8.9-2.6-12.8-1.9-4.5-5.8-8-9.2-11.3-4.2-4-8.2-13.2-12-17.5-3.4-3.9-8.2-8.2-10.5-12.8-.4-.8-.7-1.6-1.2-2.3-2-2.8-11.5-5.6-11.3-.2.1 3.1 1.5 6 2.8 8.8 1.5 3 2.9 5.2 5.2 7.7 2.2 2.4 4.3 4.9 5.8 7.8-4.3.7-8.9-1.2-12.4-3.5l-2.8-2.3a35.8 35.8 0 0 1-5.4-5.6c-1.3-2 .4-4.9-1.5-6.4-2.2-1.7-6.3-1.4-8.5-.6-3.4 1.3-5.2 7-7.8 9.5-3.6 3.5-7.3 9-10.9 12.5-2.8 2.7-6.6 4.7-9 7.7-1.7 1.9-3.9 3.2-6 4.7z"/>
    <g stroke="none" fill="#000">
      <path d="M279.8 113.2a45.4 45.4 0 0 0-5.4 14.5l-.7 5.1c-.2 1.8-.6 3.6-1.4 5.3l-.6 1.3-.6 1.2-1.2 2.4c-.9 1.6-1.9 3.1-3.4 4.5-.7.7-1.6 1.2-2.6 1.6-1 .4-2.1.5-3.1.5l-5.2-.2-5.2-.2-2.4.1c-.8.1-1.5.3-2.3.6a34.6 34.6 0 0 1-26 .2 41.4 41.4 0 0 0 25.2-2.4l2.7-.8c.9-.2 1.9-.2 2.8-.3l5.3.1 5.2.2c1.5.1 2.7-.4 3.9-1.4 1.1-1 2.1-2.3 2.9-3.8l1.3-2.2.6-1.1.6-1.1c.7-1.5 1.1-3 1.4-4.7.3-1.7.6-3.4 1.1-5.2l1.7-5c1.3-3.5 2.9-6.7 5.4-9.2z"/>
      <path d="M290 122.6c.4 1 .5 2.2.4 3.3a19 19 0 0 1-.6 3.3l-2 6.3c-.3 1-.6 2-.7 3.1l-.5 3.2a145.9 145.9 0 0 1-2.4 13c-.6 2.2-1.4 4.4-2.6 6.4a14 14 0 0 1-5.2 4.8 42 42 0 0 1-6.3 2.6l-12.5 3.9-6.3 1.9-6.4 1.8c-4.3 1-8.9 1.6-13.3.7-2.2-.5-4.3-1.3-6.2-2.6-1.9-1.2-3.5-2.7-5.1-4.2 1.8 1.3 3.6 2.6 5.5 3.6s3.9 1.6 6 1.9c4.2.5 8.5-.3 12.6-1.5s8.3-2.7 12.4-4l12.5-4a25 25 0 0 0 5.8-2.3c1.8-1 3.3-2.3 4.3-3.9 1.1-1.7 1.9-3.6 2.5-5.6l1.6-6.3 1.3-6.4.7-3.2a17 17 0 0 1 1-3.2c.8-2.1 1.8-4 2.5-6 .4-1 .7-2 .9-3.1a7 7 0 0 0 .1-3.5zM223.3 79.7c.1-.6.6-1 1.1-1.2h.1l.4.2c.9.4 1.5 1.5 1.2 2.5a2 2 0 0 1-.9 1.1c-.4.2-.9.2-1.3 0 .5-.7.4-1.2.3-1.4l-.2-.8.5.1c-.3-.3-.7-.4-1.2-.5zM230.2 81l-.5 1.2v.7l.1.6c.1.3.2.6.7 1.1-.4.4-1.2.4-1.7.1a2 2 0 0 1-1.1-1.6 2 2 0 0 1 .7-1.8c.6-.5 1.3-.6 1.8-.3z"/>
    </g>
    <path fill="none" d="M250.3 191.7c.5 3 2.3 5.8 2.3 8.1a16 16 0 0 1-5.4 13c-4.5 4-13.8 9.2-20 8.6-1.9-.2-2.3-.8-2.3-2.8 0-5.1 6-16 11.8-29.1"/>
    <g stroke="none" fill="#000">
      <path d="m235.5 188.9-.1.5v.1V187.1c.1-.9.2-1.8.5-2.7.3-.9.8-1.6 1.4-2.3.6-.7 1.4-1.1 2.1-1.4-.6.5-1.2 1.1-1.6 1.8-.4.7-.6 1.4-.6 2.2 0 .8 0 1.5.2 2.2l.3 1.1.2.5.1.3.1.2v.3l-.1.6-2.5-1zM248.8 182.3c1.1 1.2 1.7 2.9 2.1 4.5l.4 2.5.4 2.2-2.7.4.2-2.6.3-2.4c.1-1.5 0-3.1-.7-4.6z"/>
      <path d="M239.9 194.3a8.8 8.8 0 0 1-2.4-1.9l-1.1-1.1-1-1.3 2.5-1 .3 1.3.4 1.4a9 9 0 0 0 1.3 2.6zM244.1 209.5l.5-2.6.5-2.3 1.1-4.8.4-.1c.7.8 1.1 1.7 1.2 2.7.2 1 .1 2-.1 2.9a9 9 0 0 1-1.3 2.6c-.5.6-1.3 1.2-2.3 1.6zM238.1 211.3l1-3.5.9-3.3 1.7-6.8.4-.1c.7 1.2.9 2.5 1 3.8a12 12 0 0 1-.4 3.8c-.8 2.4-2.3 4.7-4.6 6.1zM238.9 194.9c.4 1.6.3 3.2.1 4.8a17.4 17.4 0 0 1-3.8 8.8c-1 1.3-2.3 2.3-3.7 3.1l-.3-.3c.7-1.5 1.5-2.7 2.1-4.1a49 49 0 0 0 1.9-4l1.8-4.1 1.9-4.2z"/>
    </g>
    <path d="M242.7 61.2c-.2.9.2 3.2.6 4.1 2.6 6.6 5.6 10.1 9.9 15.7 1.1 1.5 3.6 3.8 5.1 4.8 1.9 1.2 4.1 1.6 6.3 1.9.9.1 2 .2 2.4-.6.4-.6-.1-1.5-.7-1.9-.6-.4-1.4-.5-2.1-.7-1.8-.5-3.4-1.5-4.7-2.8-4-3.8-8.7-13.2-9.7-18-.4-1.8-.7-3.3-2.3-4.4-1.1-.7-4.3-.7-4.8 1.9z"/>
    <path d="M232.7 69.9c.6 4.3 4.5 10.2 7.8 13 3.4 2.8 7.3 5.2 11.3 7.1 3.3 1.6 6.8 2.2 10.5 2.5 3.8.3 8.4-.4 9.7-4.3 1.1-3.3-2.3-2.7-4.5-3a70 70 0 0 1-16.9-3.7c-2.2-.9-5.8-4-7.8-6.2-1.2-1.3-2.7-2.7-3.5-4.2-1.1-2.2-1.9-4.6-3.2-5-2.5-.7-3.8 1.3-3.4 3.8z"/>
    <g stroke="none" fill="#000">
      <path d="M196.6 161.6a27 27 0 0 1-13.6-11.9 45.2 45.2 0 0 1-5.3-17.4l3.7 8.2a50.4 50.4 0 0 0 8.9 15c1.8 2.1 4.1 4 6.3 6.1z"/>
    </g>
    <g>
      <path fill="#F6F6F6" d="M216.6 98.1c-1.3 2.3-3.5 12.4-2 13.5 4.5 3.3 8.8 3 11.8-.5 3-3.6 3.1-9.2-.7-12-3.7-2.8-6.1-2.7-9.1-1z"/>
      <g stroke="none" fill="#000">
        <path d="M219.6 101.1c-2.1.7-2.8 3.4-2.1 5.3.7 1.9 2.9 2.8 5 2.1 2.1-.7 3.2-2.8 2.6-4.7-.7-1.8-3.4-3.4-5.5-2.7zM215.7 111.3c-.3 1.3-.4 2.6-.5 3.9 0 1.3 0 2.6.4 3.9-.8-1.1-1.3-2.4-1.8-3.8-.4-1.3-.7-2.7-.9-4.1l2.8.1zM219.2 92.1c-.6 1-1 2.1-1.1 3.1l-.3 3.5-2.6-.8 1.6-3.1a9 9 0 0 1 2.4-2.7z"/>
      </g>
    </g>
    <g stroke="none" fill="#000">
      <path d="M157 225.5a18.6 18.6 0 0 1-5.4 4.3 23.4 23.4 0 0 1-13.5 2.8c-2.3-.2-4.6-.7-6.7-1.8 2.3-.1 4.5-.1 6.7-.3a49 49 0 0 0 12.7-2.7c2-.6 4.1-1.4 6.2-2.3zM158.6 244.9c-1.4 1.5-3 2.8-4.8 3.8a30.5 30.5 0 0 1-11.6 3.5c-2 .1-4.1 0-6.1-.5l5.8-1.6 5.6-1.6 5.5-1.8 5.6-1.8zM164.3 260.7a18 18 0 0 1-3.7 5 23.8 23.8 0 0 1-11 5.9c-2 .4-4.2.6-6.2.3l5.6-2.3 5.3-2.5a132 132 0 0 0 5.1-2.9l4.9-3.5zM179.5 274.5c-.9 2.2-2.1 4.3-3.7 6.1a30.2 30.2 0 0 1-11.5 8.4c-2.2.9-4.5 1.5-6.9 1.6l6-3.5 5.6-3.7c1.8-1.3 3.6-2.7 5.3-4.2l5.2-4.7zM189.8 295c-.4 2.2-1.4 4.3-2.5 6.2a24.3 24.3 0 0 1-16.5 10.9c1.9-1.3 3.7-2.4 5.4-3.7l4.9-4c1.6-1.4 3-2.9 4.5-4.5l4.2-4.9zM200 317.1c-.5 1.5-1.3 2.9-2.3 4.1-1 1.2-2.2 2.3-3.4 3.2a21 21 0 0 1-4.2 2.2c-1.5.5-3.1.8-4.7.7l3.7-2.6 3.6-2.5 3.5-2.5c1.3-.9 2.4-1.8 3.8-2.6zM206.8 337.2c-.4 1.3-1 2.4-1.8 3.5a17.3 17.3 0 0 1-5.8 4.9c-1.1.6-2.4 1-3.7 1.2a23.7 23.7 0 0 1 5.2-5.3l2.9-2.2c1-.8 2-1.5 3.2-2.1zM213.3 358.4c-.1 1-.4 1.9-1 2.7-.5.8-1.2 1.5-2 2s-1.7.9-2.6 1.1c-.9.2-1.9.2-2.9-.2l2.1-1.8 2-1.4 2-1.3c.7-.3 1.4-.8 2.4-1.1z"/>
    </g>
  </g>
</svg>
