<svg xmlns="http://www.w3.org/2000/svg" fill="#d7374a" stroke="#000" viewBox="50 50 200 200">
  <metadata source="http://wappenwiki.org/images/a/a7/New_Jersey.svg" license="https://creativecommons.org/licenses/by-nc-sa/3.0"/>
  <g id="plough" stroke-width=".51">
    <rect width="1.887" height="6.97" x="62.13" y="97.08" ry="5.55"/>
    <path d="M121.8 79.74c-6.8 2.55-8.5 11.05-11.9 14.79-1.7 3.74-3.4 7.65-1.7 7.82 1.7.34 3.4-2.72 5.1-6.29s3.4-9.69 6.8-13.09c3.4-3.06 9.18-1.87 10.2-2.55s1.19-1.7 0-1.87-5.1.34-8.5 1.19z"/>
    <path d="M125.2 86.88c0 .51-1.7 1.19-1.7 1.87h-6.8c-1.7 0-1.7-.34-1.7-.85 0-.68 0-1.02 1.7-1.02zm-5.1 5.95v1.87h-6.8c-1.7 0-1.7-.34-1.7-.85s0-1.02 1.7-1.02z"/>
    <path d="M130.3 82.12c-6.8 1.7-10.2 9.86-11.9 13.26-3.4 3.4-6.8 6.97-3.4 7.48 1.7.51 3.4-2.38 5.1-5.61 1.7-3.4 5.1-9.18 10.2-11.9 3.4-2.72 9.52-1.36 10.2-1.53s1.02-1.19 0-1.7-6.8-.51-10.2 0z"/>
    <path class="secondary" d="M101.4 99.46c-1.7 16.32-5.1 20.06-10.2 21.59 3.4-3.57 5.1-7.82 5.1-13.6l1.7.34v-8.16z"/>
    <path class="secondary" d="m115 97.25-1.7-1.02c1.7 11.9-5.1 19.04-13.6 25.16 11.9-.34 20.4-5.78 23.8-14.45-3.4 2.04-5.1 1.87-8.5 1.53 1.7-4.42 1.7-7.99 0-11.22z"/>
    <path d="M126.9 99.46c-5.1-1.36-10.2-1.53-15.3-1.7-5.1-.34-10.2 1.19-17 1.19-17 .17-32.3 0-32.3 0-1.7 0-1.7 2.38 0 2.38H98c5.1 0 10.2-.34 15.3 0 3.4.34 8.5 1.36 11.9 2.21 1.7.17 3.4-3.4 1.7-4.08z"/>
    <path fill="#000" stroke="none" d="M119.08 110c-.85 2.72-5.44 6.8-7.65 7.82 3.23-.85 7.65-5.95 7.65-7.82z"/>
    <path fill="#000" stroke="none" d="M98.17 108.47c-.34 4.76-3.4 10.37-5.27 11.56 2.72-1.7 5.61-8.5 5.27-11.56z"/>
    <path fill="none" d="m106.5 115.44 3.4 3.91"/>
    <path fill="none" d="M108.2 116.8c3.4-2.04 5.1-4.59 6.8-8.33"/>
  </g>
</svg>
