<svg xmlns="http://www.w3.org/2000/svg" fill="#d7374a" stroke="#000" viewBox="50 50 200 200">
  <metadata source="http://wappenwiki.org/images/2/20/Quatrefoil.svg" license="https://creativecommons.org/licenses/by-nc-sa/3.0"/>
  <g id="quatrefoil" stroke-width="4.2" transform="translate(52.9 70) scale(0.118)">
    <g transform="rotate(134.9,400,253.4)">
      <path d="M671.01 387.99c19.3-36.73 13.56-54.93 2.45-66.03-39.38-39.38-116.74-6.48-154.02-43.54-14.54-15.34-12.8-35.2.84-48.84 37.23-37.24 114.72-4.23 154.14-43.65 11.1-11.1 16.84-29.3-2.46-66.02-21-39.97-21.48-94.45-31.48-104.46l-.04-.03c-10-10.01-64.48-10.49-104.46-31.5-36.72-19.3-54.92-13.55-66.02-2.45-39.42 39.42-6.4 116.9-43.65 154.15-13.4 13.4-36.67 13-50.58-.9C338.5 97.48 371.5 20 332.08-19.42c-11.1-11.1-29.3-16.85-66.02 2.45-39.97 21-94.45 21.48-104.46 31.5l-.03.02c-10 10.01-10.48 64.5-31.49 104.46-19.3 36.73-13.55 54.93-2.45 66.03 39.42 39.42 116.9 6.4 154.14 43.64 6.93 6.93 10.79 15.47 11 24.2a52.27 52.27 0 0 1 0 1.2c-.22 8.72-4.07 17.25-11 24.17-37.24 37.24-114.72 4.23-154.14 43.65-11.1 11.1-16.85 29.3 2.45 66.03 21 39.97 21.48 94.45 31.5 104.45l.02.04c10.01 10 64.5 10.48 104.46 31.49 36.73 19.3 54.93 13.55 66.03 2.45 39.41-39.42 6.4-116.9 43.64-154.14 5.18-5.19 11.26-8.65 17.65-10.16l.5-.1.81-.18c10.9-2 22.03 1.85 30.67 10.5C462.6 409.5 429.6 487 469.01 526.41c11.1 11.1 29.3 16.84 66.02-2.46 39.97-21 94.45-21.48 104.46-31.49l.03-.03c10.01-10 10.49-64.48 31.5-104.46zM471.2 217.45a79.28 79.28 0 1 1-141.29 71.98 79.28 79.28 0 0 1 141.29-71.98z"/>
      <g fill="#000">
        <path d="m334.94 190.05-86.72-87.83 88.83 85.7z"/>
        <path d="m466.05 316.92 86.74 87.83-88.85-85.7z"/>
        <path d="m337.13 319.04-87.83 86.73 85.7-88.84z"/>
        <path d="m464 187.93 87.83-86.73-85.7 88.84z"/>
      </g>
    </g>
  </g>
</svg>
