<svg xmlns="http://www.w3.org/2000/svg" fill="#d7374a" stroke="#000" viewBox="50 50 200 200">
  <metadata source="http://www.wappenwiki.org/images/0/00/Coningsby_Ancient.svg" license="https://creativecommons.org/licenses/by-nc-sa/3.0"/>
  <g id="rabbitSejant" stroke-width="2.664" transform="translate(24 58) scale(0.213)">
    <g>
      <path class="secondary" d="M312.8 349.3s-.8-.5-4.7-.8c-3.9-.4-7.3 1.5-8.3 2.3-1 .8-4 4.4-3.4 5.1.6.7 7.6-.9 10.6-.6 3 .3 4.5.8 5.5 1.2.9.3.3-7.2.3-7.2zm.1 11.6s-.9-.4-4.9-.3c-4.1.1-7.4 2.6-8.3 3.6-1 1-3.5 4.3-2.7 5 .7.7 7.7-1.2 10.8-1.3 3.2-.1 4.8.2 5.8.5 1 .2-.7-7.5-.7-7.5zm20.4 13.6c-1 .4-2.5 1.1-5 3s-7 7.5-8 7.4c-1-.1-.9-4.3-.7-5.6a13 13 0 0 1 4.7-7.8c3.2-2.5 3.9-1.9 3.9-1.9s6.1 4.5 5.1 4.9z"/>
      <path d="M282.5 99.8c.3-2.2-.1-.6 1-4.1 2.5-7.4 7.2-16 11.7-27.2 4.5-11.2 1.7-21-.8-31.2-2.6-10.2-5.3-15.6-7.3-21.3-2.8-9.5-5.5-4-9.5.3a50.6 50.6 0 0 0-10.3 17.3 66.4 66.4 0 0 0-4.4 40.1c2.1 14.4 2 21.2 1.9 26.1"/>
      <path d="M349.8 303.8a81 81 0 0 0 16.3 27c9.5 10.1 25.8 19.4 25.8 21.9a279 279 0 0 1-53-1.2c-6.9-1.4-17.9-3.8-21.1-5.4-3.8-1.8-6.8 1.6-7.1 2.6 1.8 3.8 1.6 5 1.5 6.9-3.7.8-2.7 4.6-3.6 4.9 0 0 3 .8 4.9 8.3.6 1.1 3.9 1.4 5.9 1.1 2-.3 4.1-2.1 4.1-2.1s-.1 2.9 1.4 3.2c.3 0 1.7 0 3.3.8 1.6.8 3.3 3 3.5 3.2 2.4 1.8 3.6.4 4.9-.5 2.9-1.9 9.4-.6 13.5.9 8.5 2.3 10.3.5 16.6-2.3 11.8-5.9 44.2-5.8 58.5-3.9 7.7 1 11.5 1.7 17.9-.1 3-.9 6.1-3.4 7.1-6.6 3.6 3.1 4.4 5.4 11.6 6.5 5.7.9 16.5.3 18.2-.2 1.6-.4 3.1-1.3 4.6-2.2 7-4.2 13.8-4.5 18.2-10 4-9.3-1.6-6.9-1.2-8.9.4-2 1.7-3.6 3.1-5.1l6-6.7c2.2-2.4 4.4-5.2 4.3-8.4-.3-5.7-8-9.5-6.8-15 .5-2.4 2.7-4.6 2.2-7-.3-1.3-1.3-2.2-2.2-3.1-4.9-4.8-4.8-23.4-12.1-16.6-9.3 8.9-2.8 30.8-9.4 44.6-2.3 4.9-6 9.1-9.7 13.1-1.4 1.5-3 3.1-5.1 3.3-1.5.1-3-.6-4.4-1.2l-.4-.1A80.6 80.6 0 0 0 485 292c0-39.6-18.7-75.3-47.9-100.4-27.4-23.5-52.5-33.9-95.9-45.8C320 140 323.3 89.8 285 74l-3.1-1.1c-6.5-.9-9.5-.2-16.3 1a58 58 0 0 0-16.9 5c-3.3 2-10.2 5.4-14.2 8.7-2.6 2.3-12.7 11.8-17 15-3.7 3-5.8 6.3-11.2 11-4.8 4.3-5.5 7.7-5.3 9.8.3 2.4 1 4.1 1.9 5.1.4.4.9 5.1 3.5 7.8 1.8 2.2 5.8 5.1 9.4 5.5 1.3 1.2 9.1 7.8 15.7 5.9a30 30 0 0 0 11.6 3.5c4.1.2 8.9-1.2 12.3-3.6 3.3 1.8 6.2 2.5 10.7 2.5 13 27.3-33.8 74.8 31.8 122.7l14.3-12.4c4.3 9.9 3.3 18.6 12 24.9l25.6 18.5"/>
      <path d="M291.7 95.6c1.1-1.9.1-.6 2.4-3.5 4.9-6.1 16.4-11.8 24.5-20.7 8.1-8.9 8.8-19.1 9.9-29.6 1.1-10.4.2-15.3.2-21.3.8-7.9-8.5-6.6-13.8-4-5.3 2.6-8.4 3.6-16 11.4-9.8 9.2-12.5 22.4-15.5 36.6s-5.4 20.6-7.2 25.2"/>
      <g stroke="none" fill="#000">
        <polygon points="277.5,90.3 273,99.8 272.8,99.7 275,89.3"/>
        <path d="m286.8 104.1.8-2.4 1-2.3 1-2.3 1-2.2 2.3 1.3-1.5 2-1.5 1.9-1.5 2c-.5.7-1 1.3-1.3 2h-.3zm37.9-68.7c.4 5 .2 10.1-.7 15.1-.5 2.5-1.1 5-2.1 7.4a26.5 26.5 0 0 1-9.4 12.3 49.5 49.5 0 0 1-6.5 4c-2.2 1.2-4.4 2.3-6.4 3.7a25 25 0 0 0-5.4 4.9l-.3-.2c1.1-2.3 2.8-4.3 4.8-6 2-1.7 4.1-3 6.2-4.4 4.2-2.6 8.3-5.4 11.1-9.2 2.9-3.8 4.7-8.4 5.9-13.1 1.4-4.5 2.1-9.5 2.8-14.5zM314 37.5l-2.3 4.9-2.4 4.9-1.2 2.4-1.2 2.4-2.3 4.9a423.4 423.4 0 0 0-6.5 14.9c-.8 1.6-1.7 3.3-3.1 4.6l-.3-.3c.9-1.5 1.5-3.2 2-5l1.6-5.2 1.8-5.2 2.1-5.1a112.6 112.6 0 0 1 8.3-14.3l3.5-3.9z"/>
        <path d="M322.9 19.2c-1.5.9-3.3 1.2-4.8 1.9a39 39 0 0 0-12.9 7.7 42.8 42.8 0 0 0-6.5 7.6l-1.4 2.1-1.2 2.1a19 19 0 0 0-1.5 4.6c-1.4 6.5-1.5 13.5-2 20.3-.2 3.5-.5 6.9-1.2 10.4-.4 1.7-.8 3.4-1.4 5.1a13 13 0 0 1-2.9 4.4l-.3-.3c1.1-1.3 1.7-2.9 2.2-4.5a87 87 0 0 0 1.4-15.2l.3-10.4c.2-3.5.5-7 1.3-10.5a26.3 26.3 0 0 1 3-7.6l1.5-2.2A35.5 35.5 0 0 1 317.8 20l2.6-.5c.8.1 1.6 0 2.5-.3zm-64.2 76.4c-1.6-1.1-3.2-2-4.8-2.6a14 14 0 0 0-4.8-1.1c-1.5 0-3.1.6-4.9 1.3l-1.4.5c-.5.1-1 .3-1.7.2-.6 0-1.3-.3-1.6-.8-.4-.4-.6-.9-.7-1.4l.4-.2c.3.3.6.7 1 .8.3.1.6.2.9.1l2.2-1.1c1.6-1 3.5-1.9 5.8-2 2.2 0 4.2.7 5.9 1.8 1.6 1.1 3 2.6 3.7 4.5z"/>
      </g>
      <path fill="#F6F6F6" d="M256.6 99.2s-3.1-4-8-3.7c-7.8.7-8.5 7.3-8.5 7.3s-.5 3.1 1.8 5.2a8 8 0 0 0 6.4 2.3c4.1-.3 6.6-3 7.8-5.7 1.1-2.6.5-5.4.5-5.4z"/>
      <g stroke="none" fill="#000">
        <path d="M248 96.6c-4.7.5-5.3 5-5.3 5s-.3 2.1 1 3.5c1 1 2.4 1.7 3.9 1.5 2.5-.2 3-5.6 3-5.6s0-4.6-2.6-4.4zm-44.3 31-.3.1.2-.1.7-.9c.5-.8 1-1.6 1.7-2.4.3-.4.7-.8 1.2-1.1.5-.3 1.2-.4 1.7-.3.6.1 1 .4 1.4.8l1 1.1-.2.2c-.7-.6-1.6-1.1-2.3-1.1-.8 0-1.2.6-1.6 1.3l-1 2.6-.8 1.5c-.2.3-.5.6-.9.8a2 2 0 0 1-1.7.1l.9-2.6z"/>
        <path d="m206.7 127.6 1.2-.8.7-.4.8-.2 1.4-.1.3.2c.1.6 0 1.2-.3 1.6a3 3 0 0 1-1.2 1c-1.1.3-2.5 0-2.9-1.3zm9.2 12.9a51 51 0 0 1 7.7.8c2.5.5 5 1.2 7.2 2.4l-.1.3a26 26 0 0 0-7.3-1.2h-3.7l-3.6.3-.2-2.6zm12.3-39.8a68 68 0 0 0-2.8 2.1l-2.6 2.2c-1.8 1.5-3.5 3-5.5 4.3l-.2-.2c.5-1.2 1.2-2.2 1.9-3.1.8-.9 1.6-1.8 2.6-2.6s2-1.4 3.1-1.9c1-.6 2.2-.9 3.5-.8zm-18.1 20.4-1.1.1-.9.1-1.2.3-1.2.6-1.7.9-.4-.2c-.2-.8 0-1.6.4-2.3.4-.7 1-1.3 1.9-1.6.8-.3 1.9-.3 2.6.1.9.5 1.4 1.2 1.6 2zm46.6-23.2.3.1.2.1.1.1.1.1.2.2.3.5.6.9 1.1 1.9-.2.2-1.9-1-.9-.4-.5-.2-.2-.1h-.1l.1.1.2.1.6-2.6zm-16.9 19.7a5 5 0 0 1 1.6-.3c.5 0 .9.2 1.2.3.4.2.7.4 1 .8.3.4.5.8.6 1.4l-.2.4c-.6.2-1.1.2-1.5.2l-1.2-.4a2 2 0 0 1-.9-.9 2 2 0 0 1-.6-1.5zm7 1a3 3 0 0 1 1.4-.4l1.1.2c.3.1.6.4.9.7.2.3.5.7.6 1.3l-.2.4c-.5.3-1 .3-1.4.3a2 2 0 0 1-1.1-.3l-.8-.7c-.2-.4-.4-.8-.5-1.5zm6.1-.5a3 3 0 0 1 1.3-.6c.4-.1.8 0 1.1.1.3.1.7.3.9.6.3.3.5.6.7 1.2l-.1.4c-.5.3-.9.5-1.3.5s-.8 0-1.1-.2l-.9-.6c-.3-.3-.5-.7-.6-1.4zm5.1-2.2c.3-.5.7-.7 1-.9.3-.2.6-.2.9-.2.3 0 .6.1.8.3.3.2.5.5.8 1v.4c-.3.5-.7.7-1 .8-.3.1-.6.2-.9.1-.3 0-.6-.2-.8-.4-.4-.2-.6-.5-.8-1.1zm4-3.4.6-1.1c.2-.2.4-.4.7-.4.2-.1.5 0 .7.1.3.1.5.3.9.8l.1.4-.6 1a1 1 0 0 1-.7.3c-.2 0-.5 0-.8-.2-.3-.1-.6-.3-.9-.9zm-20.6-9.5-.7 1.4-.8 1.3c-.5.9-1.1 1.6-1.8 2.4.3-.9.5-1.9.6-2.8l.1-1.4v-1.3l2.6.4zm24.7 45.7a22 22 0 0 0 5.7-.5 21.1 21.1 0 0 0 10-5.9c1.3-1.5 2.6-3.1 3.3-5-.5 2-1.6 3.8-2.8 5.4a23 23 0 0 1-9.9 7.4c-2 .7-4.1 1.1-6.3 1.3v-2.7z"/>
      </g>
      <path fill="none" d="M401 234.4c-22.7-4.5-45 .6-52.7 14.8-7.4 13.7-7.9 35.1 1.5 54.6"/>
      <g stroke="none" fill="#000">
        <path d="M438.9 250.1a105 105 0 0 0-38.2-14.3l.5-2.6a115 115 0 0 1 19.8 6.6 84 84 0 0 1 17.9 10.3z"/>
      </g>
      <path fill="none" d="M452.3 342.5c1.2 9.4 1.1 12.8-2.2 20.2"/>
      <g stroke="none" fill="#000">
        <path d="M425.4 284.1a18.3 18.3 0 0 0 1 7.9c.8 2.5 1.8 5 3 7.4a142 142 0 0 0 8.2 14l9 13.7c1.5 2.3 2.9 4.7 4.2 7.2 1.3 2.5 2.5 5.1 2.9 8.1l-2.6.4c-.4-2.4-1.5-4.8-2.7-7.2a97 97 0 0 0-4-7l-8.7-13.8c-2.9-4.7-5.6-9.4-7.9-14.4a40.9 40.9 0 0 1-2.7-7.9c-.2-1.4-.5-2.8-.5-4.2 0-1.4.2-2.8.6-4.1l.2-.1zM322 367.8c.1-.8.2-1.4.5-2.1.3-.7.7-1.3 1.2-1.9.5-.6 1.3-1 2-1.2.8-.3 1.5-.3 2.2-.2l-.5.1c1.4-.5 2.9-.7 4.3-.5l3.9.5c1.2.2 2.4.2 3.7.2h3.8l.1.3a9.8 9.8 0 0 1-3.7 1.4c-1.3.2-2.7.2-4 .2l-3.8-.2c-1.2 0-2.3.2-3.3.6l-.2.1h-.4c-.4 0-.9 0-1.2.2-.4.1-.7.3-.9.6l-.7 1-.4 1.3-2.6-.4zm7.4-10.6c-1.1.6-2.3.9-3.6 1l-3.7.1-3.7-.4c-1.2-.2-2.4-.4-3.6-.8h-.1l-.2-.1-.4-.1-.5-.1-1 .1-.8-2.5c.6-.2 1.3-.3 2-.3l1 .2 1.1.4-.3-.1 3.3.9 3.4.6 3.4.4c1.2.1 2.3.2 3.5.5l.2.2zm-10.7-12.1a5.7 5.7 0 0 1 1.3 3.6c.1 1.2-.1 2.3-.4 3.3h-.3c-.1-1-.3-2.1-.7-3l-.7-1.2c-.3-.3-.6-.6-.9-.7l1.7-2z"/>
        <path d="M329.7 364.9c.8-.4 1.6-.5 2.4-.4a5 5 0 0 1 2.3.9c.7.5 1.2 1.2 1.5 2 .3.8.4 1.6.1 2.5l-.4.1-2.9-2.4-1.4-1.1-.8-.6-.8-1zm-14.1-10.4.4.2.3.2.5.4.8.9c.4.6.7 1.3.9 2l.4 2 .1 1.9h-.3l-.6-1.8c-.3-.6-.5-1.1-.9-1.6-.3-.5-.7-.9-1.1-1.2l-.6-.4-.3-.1h-.1s-.1 0 0 0l.5-2.5zm42.6 8.8a28.7 28.7 0 0 0 8.8-2.4l2.6-1.4.3 1.9a8 8 0 0 0-3.4.2l-1.9.4-1.1.1h-1.1c-1.3 0-2.7-.2-4-.6-1.3-.3-2.6-.9-3.7-1.6l3.9.3h1.9l1.9-.1.9-.1.9-.2 1.9-.4c1.3-.3 2.8-.5 4.3-.1.6.1.9.7.8 1.3-.1.3-.2.5-.5.7-.9.6-2 1-3 1.4-1 .4-2.1.6-3.2.8-1.1.2-2.1.2-3.2.2-1 0-2.1-.1-3.1-.4zM499 312c-.4 1.3-.1 2.4.2 3.5.3 1.1.9 2.1 1.3 3.5.2.7.3 1.4.3 2.2a5 5 0 0 1-.6 2.4c-.4.7-1 1.3-1.8 1.6-.7.3-1.6.3-2.2-.1.7-.2 1.1-.5 1.4-1 .3-.4.5-.9.6-1.4.2-.9 0-1.9-.4-3-.3-1.1-.8-2.4-.8-3.9 0-.7.1-1.5.4-2.2.4-.6.9-1.3 1.6-1.6zm-.4 20.6c.1.9-.3 1.9-.9 2.6-.6.7-1.4 1.3-2.1 1.8-1.4 1-2.7 1.8-3.2 2.9l-.8 2.2c-.3.8-.7 1.9-1.6 2.7-.4.4-1 .7-1.5.8l-1.3.3c-.8.1-1.6.1-2 1-.2-.4 0-1 .4-1.4.4-.4.8-.6 1.2-.8.8-.4 1.5-.8 1.7-1.3.3-.5.5-1.1.7-1.9l.8-2.7a7 7 0 0 1 2.1-2.4c.8-.5 1.7-.9 2.5-1.2a16 16 0 0 0 2.3-1c.6-.3 1.2-.8 1.7-1.6zm-8.7 20.8c-.9 2.3-3 4.1-5.5 4.9-1.3.4-2.7.4-3.8.4-1.2 0-2.1 0-3 .4l-3.3 1.2c-1.2.4-2.4.6-3.7.7-2.5.2-5-.1-7.2-1.1 2.4-.1 4.7-.4 6.9-.9 1.1-.3 2.1-.6 3.2-1.1 1-.4 2.1-1 3.3-1.4.6-.2 1.3-.4 2-.4l1.9.1c1.2.1 2.2.2 3.2.1 2.1-.3 4.2-1.2 6-2.9zm-16.1-70.3a9.8 9.8 0 0 1 1.3 4.8 16.1 16.1 0 0 1-3.2 9.2c-.9 1.3-2 2.5-3.2 3.6l-.4-.2c.4-1.6 1.1-3 1.6-4.5l1.7-4.2c.5-1.4 1-2.8 1.3-4.2.4-1.3.7-2.8.9-4.5zm-5.1-19.9c.8.8 1.3 1.8 1.6 2.8.3 1 .4 2.1.4 3.2a9.3 9.3 0 0 1-2.3 5.9l-.4-.1-.1-3 .1-2.8.2-2.8c.1-1.1.2-2.1.5-3.2zm3.5 44.7a7 7 0 0 1 .2 3.2 9.6 9.6 0 0 1-1 3 8.4 8.4 0 0 1-4.7 4.2l-.3-.3c.4-1.1.8-1.9 1.3-2.8l1.4-2.5 1.4-2.4c.4-.7.9-1.6 1.7-2.4z"/>
      </g>
    </g>
    <g stroke="none" fill="#000">
      <path d="M391.8 351.4a86.4 86.4 0 0 1 14.3.4c4.7.3 9.4.8 14.1 1-4.7.2-9.5.2-14.2.3l-7.1.3c-2.3.1-4.7.3-7 .6l-.1-2.6zM284.7 201.6a47.3 47.3 0 0 0-6.3 26.2c.1 4.5.8 9 1.9 13.4 1 4.4 2.5 8.7 3.7 13.2l-2.6.6c-.9-4.4-2.2-8.8-3-13.4-.8-4.5-1.3-9.2-1.2-13.8a53.4 53.4 0 0 1 7.5-26.2zm38 38.2c-.4-2.7-.3-5.4.3-7.9.6-2.6 1.6-4.9 2.5-7.2.9-2.3 1.6-4.7 1.8-7.1.2-2.5-.2-5-.9-7.4.9 2.3 1.5 4.8 1.6 7.4 0 2.6-.5 5.1-1.2 7.5-.7 2.4-1.5 4.8-1.8 7.2-.4 2.4-.2 4.7.3 7l-2.6.5zM273.5 165c.3-.9.9-1.6 1.7-2.2.8-.5 1.6-.8 2.4-1 .8-.2 1.6-.2 2.4-.2.8 0 1.6.2 2.4.4l.1.4c-.6.7-1.4 1.1-2.2 1.4l-2.3.6-2.2.3-2.3.3zm-1.6 7.6a4 4 0 0 1 1.5-1.4l1.8-.6a6 6 0 0 1 1.9 0c.6.1 1.2.3 1.9.8v.4a5 5 0 0 1-1.7 1l-1.7.4h-1.7c-.6-.1-1.2-.2-2-.6zm-.7 12c-.1-.8.1-1.4.4-2l1-1.6c.4-.4.9-.8 1.5-1.1.6-.3 1.2-.5 2-.5l.2.3-.7 1.8-1.1 1.3-1.4 1c-.5.4-1 .7-1.9.8zm1.8 8.3c-.1-.8.1-1.4.4-2l1-1.6c.4-.4.9-.8 1.5-1.1.6-.3 1.2-.5 2-.5l.2.3-.7 1.8-1.1 1.3-1.4 1c-.5.4-1.1.7-1.9.8zm79.5-25.8c.8-.9 1.8-1.6 2.8-2.2 1-.6 2.1-1.1 3.3-1.4a9 9 0 0 1 7.1 1l-.1.4a104.6 104.6 0 0 0-6.4 1.2l-3.2.7c-1.1.2-2.3.4-3.5.3zm30 8.1-1.8 1.4-1.6 1.1-1.7 1.1c-.6.3-1.3.7-2.2.8l-.3-.3a5 5 0 0 1 1-2.2 6.2 6.2 0 0 1 4.2-2.4c.7-.2 1.6-.1 2.4.5zm-17.5-2.5c.5-.9 1-1.6 1.7-2.2a8.9 8.9 0 0 1 4.9-2.5c1-.1 2-.1 2.9.5v.4l-2.2 1.2-2.1 1.1-2.3 1c-1 .3-1.9.6-2.9.5zm-36.4 107.5 1.1-1.9 1.2-1.9a45 45 0 0 0 3.9-7.5c.4-1.3.6-2.8 1.3-4.2l.3.1c0 1.5.3 2.9 0 4.5a11 11 0 0 1-1.6 4.4c-.8 1.3-1.7 2.5-2.7 3.6l-1.6 1.5c-.7.6-1.3 1.1-1.9 1.4zm-2-93c-1.4-1-2.8-2-4.3-2.7-1.5-.7-2.9-1.1-4.5-1.1-.8-.1-1.6 0-2.7-.2s-1.9-.7-2.7-1.1c-1.5-.8-2.9-1.7-4.2-1.9-.6-.1-1.2-.1-1.8.2l-.6.3-.7.3a4 4 0 0 1-1.5.3c-2.1.2-4-.5-5.4-1.1-1.1-.6-2.5.1-3.8 1.1-1.3 1-2.8 2.2-4.5 2.7l-.2-.4c1.4-.9 2.5-2.2 3.7-3.4.6-.6 1.3-1.2 2.3-1.7l1.5-.5c.7-.1 1.2.1 1.6.2 1.7.5 3.2.9 4.6.6.3-.1.7-.1 1-.3l.5-.2.6-.3c1-.4 2.2-.5 3.2-.4 2.1.4 3.6 1.5 5 2.3.7.4 1.4.8 2 .9l2.4.4a11.5 11.5 0 0 1 8.5 6zm-37.5 32.9a7.3 7.3 0 0 1 3.9-3.7 6.3 6.3 0 0 1 5.4 0v.4c-.8.5-1.6.8-2.3 1.1l-2.1.8-2.2.8a6 6 0 0 1-2.7.6zm2.7-11.1c.2-.8.5-1.4.9-1.8a5 5 0 0 1 5.1-1.7l.1.4c-.4.7-.8 1.1-1.2 1.5l-1.4 1c-.5.3-1 .5-1.6.6a4 4 0 0 1-1.9 0z"/>
    </g>
    <path class="secondary" d="M244.5 346.8s-.8-.5-4.7-.8c-3.9-.4-7.3 1.5-8.3 2.3-1 .8-4 4.4-3.4 5.1.6.7 7.6-.9 10.6-.6 3 .3 4.5.8 5.5 1.2.9.3.3-7.2.3-7.2zm.1 11.6s-.9-.4-4.9-.3c-4.1.1-7.4 2.6-8.3 3.6-1 1-3.5 4.3-2.7 5 .7.7 7.7-1.2 10.8-1.3 3.2-.1 4.8.2 5.8.5 1 .2-.7-7.5-.7-7.5zm20.4 13.5c-1 .4-2.5 1.1-5 3s-7 7.5-8 7.4c-1-.1-.9-4.3-.7-5.6a13 13 0 0 1 4.7-7.8c3.2-2.5 3.9-1.9 3.9-1.9s6.1 4.5 5.1 4.9z"/>
    <path d="M324 239.6c1 6.3 6.7 11.1 5.7 18.9-.4 3-4.2 7.7-5.5 10.4-3.4 7-5.5 9.4-10.5 15.3-4.9 5.8-6.7 12.4-10 19.2a180.4 180.4 0 0 0-13.9 47.5c-1.4 4.9-.6 19.2-11.5 18.6-3.8-.2-7.1.7-10 2.7-1.3.9-2.5 2.3-4.9.5-.2-.2-1.9-2.4-3.5-3.2-1.6-.8-3-.8-3.3-.8-1.5-.4-1.4-3.2-1.4-3.2s-2.1 1.7-4.1 2.1c-2 .3-5.3 0-5.9-1.1-1.9-7.5-4.9-8.3-4.9-8.3.9-.3 0-4.1 3.6-4.9.1-1.8.3-3.1-1.5-6.9.4-1.1 3.3-4.5 7.1-2.6 3.2 1.6 8.2 3.4 11.9 4 2.4-2 3.4-4.4 5-8 3.8-9.6 6.5-19.4 10.3-28.9 2.2-5.5 7.2-22.9 8.8-28.6 4.2-14.6.8-12.6-2.8-27.3"/>
    <g stroke="none" fill="#000">
      <path d="M253.7 365.2c.1-.8.2-1.4.5-2.1.3-.7.7-1.3 1.2-1.9.5-.6 1.3-1 2-1.2.8-.3 1.5-.3 2.2-.2l-.5.1c1.4-.5 2.9-.7 4.3-.5l3.9.5c1.2.2 2.4.2 3.7.2h3.8l.1.3a9.8 9.8 0 0 1-3.7 1.4c-1.3.2-2.7.2-4 .2l-3.8-.2c-1.2 0-2.3.2-3.3.6l-.2.1h-.4c-.4 0-.9 0-1.2.2-.4.1-.7.3-.9.6l-.7 1-.4 1.3-2.6-.4zm7.4-10.6c-1.1.6-2.3.9-3.6 1l-3.7.1-3.7-.4c-1.2-.2-2.4-.4-3.6-.8h-.1l-.2-.1-.4-.1-.5-.1-1 .1-.8-2.5c.6-.2 1.3-.3 2-.3l1 .2 1.1.4-.3-.1 3.3.9 3.4.6 3.4.4c1.2.1 2.3.2 3.5.5l.2.2zm-10.7-12a5.7 5.7 0 0 1 1.3 3.6c.1 1.2-.1 2.3-.4 3.3h-.3c-.1-1-.3-2.1-.7-3l-.7-1.2c-.3-.3-.6-.6-.9-.7l1.7-2z"/>
      <path d="M261.4 362.4c.8-.4 1.6-.5 2.4-.4a5 5 0 0 1 2.3.9c.7.5 1.2 1.2 1.5 2 .3.8.4 1.6.1 2.5l-.4.1-2.9-2.4-1.4-1.1-.8-.6-.8-1zM247.3 352l.4.2.3.2.5.4.8.9c.4.6.7 1.3.9 2l.4 2 .1 1.9h-.3l-.6-1.8c-.3-.6-.5-1.1-.9-1.6-.3-.5-.7-.9-1.1-1.2l-.6-.4-.3-.1h-.1s-.1 0 0 0l.5-2.5zm25.2-1.4c.2-1.3 1-2.4 1.7-3.5.6-1 1.2-2.1 1.6-3.2.5-1.1.8-2.3 1.2-3.4l1.1-3.6 2 .8c-.9 1.8-2.1 3.4-3.4 4.9l-2.1 2.1c-.7.7-1.5 1.3-2.4 1.8l1.6-2.4 1.6-2.4 2.8-4.9c.3-.5.9-.7 1.5-.5.5.2.7.8.6 1.2l-1.1 3.6c-.4 1.2-1 2.4-1.6 3.6-.7 1.1-1.4 2.2-2.3 3.2a18 18 0 0 0-2.8 2.7zm-10.1-2.2c-1.4 1.1-3 1.7-4.5 2.2 1-1.3 1.9-2.5 2.4-3.9l2.1 1.7z"/>
    </g>
  </g>
</svg>
