<svg xmlns="http://www.w3.org/2000/svg" fill="#d7374a" stroke="#000" viewBox="50 50 200 200">
  <metadata source="http://wappenwiki.org/images/9/96/Hrabischitz.svg" license="https://creativecommons.org/licenses/by-nc-sa/3.0"/>
  <g id="rake" stroke-width=".336">
    <path d="m64.288 86.267-1.213-19.571h2.937l-1.213 19.572c-.036.474-.475.474-.51 0z"/>
    <path d="m74.385 86.267-1.212-19.571h2.937l-1.213 19.57c-.036.475-.475.475-.512 0z"/>
    <path d="M84.483 86.267 83.27 66.696h2.938l-1.214 19.572c-.036.474-.475.474-.512 0z"/>
    <path d="m94.58 86.267-1.212-19.571h2.938l-1.213 19.57c-.037.475-.476.475-.512 0z"/>
    <path d="m104.679 86.267-1.213-19.571h2.936l-1.211 19.57c-.037.475-.476.475-.512 0z"/>
    <path d="m135.483 86.267 1.213-19.571h-2.938l1.212 19.57c.037.475.476.475.512 0z"/>
    <path d="m125.385 86.267 1.213-19.571h-2.936l1.213 19.57c.035.475.475.475.51 0z"/>
    <path d="m115.287 86.267 1.214-19.571h-2.936l1.213 19.57c.036.475.475.475.51 0z"/>
    <path d="M99.885 94.696c-2.607 0-6.263-1.072-8.875-6.18-2.18-4.264-3.285-10.715-3.285-19.175v-3.73h3.37v3.73c0 7.97.99 13.948 2.945 17.77 1.484 2.904 3.45 4.377 5.846 4.377"/>
    <path d="M99.885 94.696c2.609 0 6.264-1.072 8.876-6.18 2.18-4.264 3.285-10.715 3.285-19.175v-3.73h-3.37v3.73c0 7.97-.99 13.948-2.945 17.77-1.483 2.904-3.45 4.377-5.846 4.377"/>
    <path d="M97.928 62.85v84.468s.594.344 1.957.344 1.958-.344 1.958-.344V62.85"/>
    <rect width="77.7" height="8.259" x="61.036" y="59.274"/>
    <rect width="77.7" height=".999" x="61.036" y="66.533"/>
    <circle cx="64.543" cy="62.868" r="1.468"/>
    <circle cx="74.641" cy="62.868" r="1.468"/>
    <circle cx="84.739" cy="62.868" r="1.468"/>
    <circle cx="94.837" cy="62.868" r="1.468"/>
    <circle cx="104.934" cy="62.868" r="1.468"/>
    <circle cx="135.228" cy="62.868" r="1.468"/>
    <circle cx="125.13" cy="62.868" r="1.468"/>
    <circle cx="115.032" cy="62.868" r="1.468"/>
  </g>
</svg>
