<svg xmlns="http://www.w3.org/2000/svg" fill="#d7374a" stroke="#000" viewBox="50 50 200 200">
  <metadata source="http://wappenwiki.org/images/9/96/Hrabischitz.svg" license="https://creativecommons.org/licenses/by-nc-sa/3.0"/>
  <g id="rake" stroke-width="3" transform="matrix(.112 0 0 .112 55 70)">
    <path d="M82.93 145.24L72.1-29.5h26.22L87.49 145.25c-.32 4.23-4.24 4.23-4.56 0z"/>
    <path d="M173.08 145.24L162.26-29.5h26.22l-10.83 174.74c-.32 4.23-4.24 4.23-4.57 0z"/>
    <path d="M263.24 145.24L252.41-29.5h26.23L267.8 145.25c-.32 4.23-4.24 4.23-4.57 0z"/>
    <path d="M353.4 145.24L342.57-29.5h26.23l-10.83 174.74c-.33 4.23-4.25 4.23-4.57 0z"/>
    <path d="M443.56 145.24L432.73-29.5h26.22l-10.82 174.74c-.33 4.23-4.25 4.23-4.57 0z"/>
    <path d="M718.6 145.24L729.43-29.5H703.2l10.82 174.74c.33 4.23 4.25 4.23 4.57 0z"/>
    <path d="M628.44 145.24L639.27-29.5h-26.22l10.83 174.74c.32 4.23 4.24 4.23 4.56 0z"/>
    <path d="M538.28 145.24L549.12-29.5H522.9l10.83 174.74c.32 4.23 4.24 4.23 4.56 0z"/>
    <path d="M400.76 220.5c-23.28 0-55.92-9.57-79.24-55.18-19.46-38.07-29.33-95.67-29.33-171.2v-33.3h30.09v33.3c0 71.15 8.84 124.53 26.29 158.66 13.25 25.93 30.81 39.08 52.2 39.08"/>
    <path d="M400.76 220.5c23.29 0 55.93-9.57 79.25-55.18 19.46-38.07 29.33-95.67 29.33-171.2v-33.3h-30.09v33.3c0 71.15-8.84 124.53-26.29 158.66-13.25 25.93-30.81 39.08-52.2 39.08"/>
    <path d="M383.29-63.84v754.18s5.3 3.07 17.47 3.07 17.48-3.07 17.48-3.07V-63.84"/>
    <rect width="693.749" height="73.74" x="53.889" y="-95.769"/>
    <rect width="693.749" height="8.923" x="53.889" y="-30.952"/>
    <circle cx="85.21" cy="-63.678" r="13.111"/>
    <circle cx="175.368" cy="-63.678" r="13.111"/>
    <circle cx="265.526" cy="-63.678" r="13.111"/>
    <circle cx="355.684" cy="-63.678" r="13.111"/>
    <circle cx="445.843" cy="-63.678" r="13.111"/>
    <circle cx="716.318" cy="-63.678" r="13.111"/>
    <circle cx="626.159" cy="-63.678" r="13.111"/>
    <circle cx="536.001" cy="-63.678" r="13.111"/>
  </g>
</svg>
