<svg xmlns="http://www.w3.org/2000/svg" fill="#d7374a" stroke="#000" viewBox="50 50 200 200">
  <metadata source="http://wappenwiki.org/images/a/a4/Lake_Gumsehuvud.svg" license="https://creativecommons.org/licenses/by-nc-sa/3.0"/>
  <g id="ramHeadErased" stroke-width=".36">
    <g>
      <g>
        <path class="secondary" d="M118.04 71.54a4.4 4.4 0 0 1 3.7-1.7c.96 0 2 .08 2.76.7 1.25-.93 4.1-.96 5.16.17 1.17-1.33 3.75-.72 4.94-.49a5.92 5.92 0 0 1 3.5-2.18c.44-.09 1 .7.89 1.14-.12.43-.48.76-.64 1.2-.12.32-.1.68-.15 1.03a6 6 0 0 1-1.4 2.64 8.48 8.48 0 0 1-1.74 1.85c-1.6 1.12-3.75 1-5.68.68-.28-.05-.56-.1-.82-.01-.17.05-.31.15-.46.25a8.6 8.6 0 0 1-3.1 1.27"/>
        <g stroke="none" fill="#000">
          <path d="m124.66 70.45.23.47a3.43 3.43 0 0 1 .27 1c.02.18 0 .36-.07.53l-.1-.49c-.03-.16-.09-.31-.16-.47l-.23-.44-.25-.43.31-.17z"/>
        </g>
        <path class="secondary" stroke-linejoin="round" d="M133.34 97.14c.2-.46.4-.94.36-1.43a6.16 6.16 0 0 0 .76-5.67 3.84 3.84 0 0 0 .7-1.82c.01-.37-.08-.73-.17-1.1a5.04 5.04 0 0 0-1.1-2.3 3.9 3.9 0 0 0-.42-2.7 8.16 8.16 0 0 0-1.84-2.13 2.28 2.28 0 0 0-.17-1.54c-.2-.48-.52-.91-.84-1.33-.6-.8-1.71-1.64-2.47-2.3-.4-.34-.68-1.38-1.04-1.76-1.14-1.2-2.75-1.71-4.33-2.23-.6-.19-.3-.93-2.68-1.94a7.04 7.04 0 0 0-2-.37c-.57-.02-.92.12-1.5.18a5.72 5.72 0 0 0-6.26-.48 3 3 0 0 0-1.22-.52c-.42-.08-.84-.05-1.27-.02-.97.07-1.97.14-2.85.57a7.07 7.07 0 0 0-1.5 1.12c-.44.03-.9.02-1.35.06-.36.02-.72.06-1.07.15-2.03.5-3.01 1.5-3.56 1.91a2.41 2.41 0 0 1-1.44.55c-2.54.02-4.05 1.4-4.14 1.73 0 0 1.71.2 3.44 1.57a27.71 27.71 0 0 1 3.36 3.48c.01.5.17 1.05.22 1.53.1.96-.53.97-.02 1.79.27.42.84.84 1.2 1.18.93.88-.07 2.6 1.06 3.2 1.12.6.7.3 1.9-.1.3-.1.6-.24.9-.28 1.22-.13 1.69.2 2.8-.42a4.36 4.36 0 0 0 2.16-2.16c.05-.12.11-.25.23-.3.07-.04.17-.03.24-.02.28.04.5.25.78.3a1.96 1.96 0 0 0-.57.67c-.7 1.12-1.43 2.34-1.25 3.64a5.28 5.28 0 0 0-1.37 2.77c-.07.46-.01.86-.13 1.3 0 0-.18.56-.2.88-.03.71-.11 1.28.04 1.97s.5 1.4 1.02 1.89c-.37.22-.32.79-.19 1.2a7.04 7.04 0 0 0 2.14 3.22c.12 1 .73 1.89 1.5 2.54s1.78.88 2.56 1.52a6.83 6.83 0 0 0 4.83 1.49c.43-.04.86-.12 1.21-.37.8.52 1.82.48 2.77.36.63-.09 1.26-.2 1.85-.44s1.14-.58 1.48-1.12a7.84 7.84 0 0 0 4.56-4.5 4.03 4.03 0 0 0 1.74-1.43c.5-.6.82-1.3 1.14-2zm-12.72-1.47c-.11.1-.23.2-.36.2-.11 0-.2-.07-.3-.13l-2.73-1.8a6.12 6.12 0 0 0-.19-2.86c1.5-.5 2.63-1.91 3.4-3.3.18-.28.3-.28.46-.57.68.85 1.46 1.61 2.56 2.51a11.2 11.2 0 0 0 .1 4.28 6.96 6.96 0 0 0-2.94 1.67z"/>
        <path fill="none" stroke-linejoin="round" d="M120.9 87.21a18.72 18.72 0 0 1-1.83-2.18 5.4 5.4 0 0 1-4.26-1.75c.01.07-.11.14-.17.16-.7.27-1.4.53-2.14.6s-1.52-.07-2.1-.54"/>
        <g stroke="none" fill="#000">
          <path d="M115.43 88.53a7.85 7.85 0 0 0-1.41 3.48 5.47 5.47 0 0 0 1.94 5.04c.48.4 1.02.73 1.58 1.01a6.48 6.48 0 0 0 3.64.67 6.38 6.38 0 0 0 3.37-1.49 6.9 6.9 0 0 0 2.08-3.06 9.94 9.94 0 0 0 .17-5.55 9.28 9.28 0 0 0-.64-1.75 13.9 13.9 0 0 0-2.12-3.08 18.48 18.48 0 0 0-4.35-3.57 11.48 11.48 0 0 0-1.69-.8c-1.18-.44-2.4-.75-3.64-.95s-2.5-.3-3.74-.16a16.8 16.8 0 0 0-3.7.65c-1.2.36-2.34.95-3.34 1.7a16.6 16.6 0 0 0-2.72 2.64 15 15 0 0 1 2.63-2.75 10.21 10.21 0 0 1 3.36-1.8 16.68 16.68 0 0 1 7.57-.6c1.26.2 2.51.5 3.71.95a12.12 12.12 0 0 1 3.34 1.89c1.02.76 1.98 1.62 2.82 2.58.85.96 1.6 2 2.16 3.16a8.82 8.82 0 0 1 .9 3.72c.06 1.29-.09 2.58-.5 3.8a7.3 7.3 0 0 1-2.17 3.13 6.48 6.48 0 0 1-7.2.79 8.3 8.3 0 0 1-1.6-1.04 5.36 5.36 0 0 1-1.91-5.15c.1-.63.27-1.25.53-1.83.24-.57.55-1.12.93-1.63zm.63-17.01.27-.69a3.53 3.53 0 0 0 .24-1.4 2.16 2.16 0 0 0-.13-.67l.35-.11c.07.25.1.51.1.78a3.31 3.31 0 0 1-.4 1.47c-.11.22-.25.44-.43.62zm-5.44-.72a3.43 3.43 0 0 0 .14-1.32 2.2 2.2 0 0 0-.18-.63c-.08-.19-.2-.37-.34-.5l.25-.27c.18.18.31.41.4.65a2.53 2.53 0 0 1 .04 1.43 1.5 1.5 0 0 1-.31.64zm-6.67.76.01-.56a2.88 2.88 0 0 0-.22-1.08 3.58 3.58 0 0 0-.24-.48l.32-.18a2.95 2.95 0 0 1 .34 1.15 2.52 2.52 0 0 1-.02.6c-.04.2-.1.39-.2.55z"/>
        </g>
      </g>
      <g>
        <path stroke-linejoin="round" d="M68.56 111.37c.1-.84 1.1-2.22 1.86-2.7.74-.47 1.5-.93 2.26-1.35 1.57-.87 1.52-.88 2.91-2.05 1.95-1.63 3.04-3.63 2.43-4.87a1.9 1.9 0 0 1 1.44-.85c1.22-.05 2.34.84 2.89 1.93s.66 2.35.7 3.58c.02.16.02.33-.07.48-.07.12-.19.19-.3.26-1.66.96-3.4 1.04-4.98 1.56-.19.06-.4.13-.56.25-.23.16 1.34-.3 1.16-.1-.55.62-1.26 1.06-1.9 1.57-1.12.84-2.24 2.96-3.5 3.56-1.24.59-3.3-.32-4.34-1.27zm.74 1.23c-1.14 1.25-.56 2.49-2.67 3.88-.54.36-.4.61-.05.56 3.26.16 4.55-3.12 5.58-3.3"/>
      </g>
    </g>
    <g>
      <path stroke-linejoin="round" d="M131.26 119.58a5.5 5.5 0 0 0-.29-7.4c-1.34-1.26-3.95-1.77-5.36-3.93-.69-1.06-1.18-3.01-1.98-4.1l2.18-.26c-8.59-4.35-10.25-16.35-11.48-17.94-2.03-5.39-6.33-7.65-8.33-9.18-2-1.51-5.83-3.86-10.22-3.4-1.6.17-2.76-.14-3.83-.05s-1.93.32-3.91.24c-1.91-.09-3.15 1.27-4.96 1.48-.32.04-.65.04-.97.09-.95.14-2.3.7-2.4 1.85-.01.19-.13.36-.8.7A9.43 9.43 0 0 0 75.34 81c-.8 1.3-2.15 2.25-1.43 3.48.53.88-.95.63-2.17 1.77-1.26 1.17-2.51 2.11-3.67 3.88-.99 1.49-1.61 2.09-2.82 3.38-.9.97-1.01 1.01-1.89 1.7-1.53 1.22-2.7 2.47-2.57 3.9l.03.6c-.01.2-.48 1.47-.53 1.65a4.1 4.1 0 0 0 .5 2.57c.64.95.87 1.11 1.8 1.43.78.26 2.67-.02 4.47-.75 3.7-1.51 2.25-1.3 6.25-3.63 1.37-.8 5.2-1.38 6.35.27.49.72 1.08 1.45.72 2.77-.42 1.56-2.17 2.43-2.49 2.64l-2.07 1.4c-.96.67-.91.85-2 1.27-1.1.43-2.21 1.69-3.4 1.49-.8-.14-.12-1.18.67-1.82 1.34-1.06 3.26-2.73 3.26-2.73s-3.12 1.21-4.2 2.23a5.28 5.28 0 0 0-1.65 2.68c-.22 1.1.81 2.32 1.08 2.38l.1.04c-.27.84-.39 1.73-.34 2.62.07 1.23.49 2.94-.33 4-.19.26-.44.45-.58.72-.03.04-.05.09-.03.14.03.07.12.08.2.07a3.72 3.72 0 0 0 2.4-1.4c.73-.9.68-2.06.79-3.15.08-.85.37-1.76.86-2.5.32-.16.65-.38.97-.6.6-.4 1.18-1.7 1.7-2.2 1.52-1.47 4.97-2.64 5.86-2.94 1.4-.48 4.73-.3 5.87.2 1.08.44 1.51 2.54 1.45 4.03-.03.82-.43 1.59-.49 2.4-.1 1.32.82 2.16.89 3.41.06 1.04.18 2.17.84 2.99.43.54 1.05.87 1.62 1.27 1.93 1.34 1.02 3.07.83 5.04-.11 1.12.14 2.14.4 3.2.2.92.5 1.8-.13 2.63 1.38-.23 2.77-.91 3.43-2.18-.02.32.68 1.07.77 1.47.15.6.11 1.23-.1 1.8.68-.1 1.3-.51 1.67-1.09.2-.3.33-.63.58-.89.83-.82 1.49.2 2.4.09.7-.09 1.74-1.25 2.2-.23.1.22.14.47.19.7.08.49.21.98.47 1.4.44.76 1.66 1.79 2.6 1.73-.55-3.22 1.56-3.42 2.66-5.07.16-.24.22-.48.57-.43.53.07.85.93.89 1.38.03.43-.04.88.02 1.32.08.59.42 1.14.9 1.48.42.29 1.06.5 1.56.36-.5-.41-.2-1.7.1-2.16.34-.52.94-.78 1.45-1.17.51-.38.72-.81 1-1.34.4.32 1 .13 1.42-.04.45-.18.83-.52.99-.97.22-.66.25-1.37.54-2.01.13-.3.32-.74.6-.93.54-.35.68.33.9.75.43.8.98 1.56 1.68 2.13a4.22 4.22 0 0 0 2.48 1.01 1.42 1.42 0 0 1-.18-1.45c.1-.22.25-.41.38-.61a6.29 6.29 0 0 0 .75-2.42c.36.62.67 1.24 1.2 1.73.45.43 1.35 1.02 2 .77-.2-1.22-.08-2.46.96-3.31.47-.39 1.05-.63 1.48-1.05a3.12 3.12 0 0 0 .8-2.29c-.06-.83-.31-1.63-.55-2.43z"/>
      <g stroke="none" fill="#000">
        <path d="M95.72 131.23a5.2 5.2 0 0 0 1.02-1.98 8.98 8.98 0 0 0 .21-2.28c0-.77-.03-1.56.03-2.34s.22-1.56.57-2.26a7.34 7.34 0 0 0-.4 2.27c-.03.77.02 1.55.04 2.33.03.78.01 1.57-.17 2.35a4.97 4.97 0 0 1-1.05 2.14l-.25-.23zm7.48 1.34a9.1 9.1 0 0 1-.55-1.85 4.44 4.44 0 0 1 .09-1.94c.1-.31.22-.6.34-.89l.36-.87c.23-.6.42-1.2.48-1.82.04.64-.12 1.28-.32 1.88s-.46 1.18-.62 1.77c-.16.59-.14 1.21-.02 1.81s.32 1.2.57 1.77l-.33.14zm6.08-1.65a12.66 12.66 0 0 0 .97-4.86c0-.57-.03-1.12-.06-1.68.13.55.19 1.11.23 1.68a13.27 13.27 0 0 1-.3 3.37 11.2 11.2 0 0 1-.5 1.63l-.34-.14zm6.33-.32a6.17 6.17 0 0 0 .85-3.82c-.06-.68-.3-1.31-.54-1.95-.1-.32-.22-.65-.3-.98a3.7 3.7 0 0 1-.1-1.02c.06.68.3 1.32.56 1.95.25.63.53 1.28.64 1.98a6.77 6.77 0 0 1-.33 3.11c-.12.34-.27.65-.47.95l-.3-.22zm9.53-4.47c.05-.18.07-.36.1-.54 0-.18.02-.37 0-.57a4.5 4.5 0 0 0-.17-1.11 4.1 4.1 0 0 0-.43-1.03 9.62 9.62 0 0 0-.66-.95 10.03 10.03 0 0 1-1.96-4.21 10.84 10.84 0 0 0 2.16 4.05c.24.3.5.61.7.95a4.7 4.7 0 0 1 .72 2.27 5 5 0 0 1-.1 1.2l-.36-.06zm-3.67-2.2c-.6-.35-1.15-.8-1.63-1.32l-.35-.4-.33-.41-.3-.45-.27-.45-.24-.47-.22-.48-.18-.5-.15-.51a7.27 7.27 0 0 1-.26-2.09c.14.69.3 1.36.52 2l.18.49.2.46.22.47.24.46.25.44.28.43.3.42.31.41a15.24 15.24 0 0 0 1.43 1.5zm-14.09.69c.1.48.12.98.08 1.47 0 .25-.06.5-.1.75-.04.24-.1.49-.18.72-.16.48-.36.92-.52 1.36a4 4 0 0 0-.28 1.4c-.15-.47-.1-1 .02-1.48.12-.5.3-.95.44-1.4l.2-.69a12.25 12.25 0 0 0 .34-2.13zm-6.22 1.86a8.4 8.4 0 0 1-.4-2.75c.03-.31.08-.63.16-.94a5.6 5.6 0 0 1 .87-1.65c.35-.5.7-.99.93-1.56-.08.6-.4 1.18-.7 1.71a5.48 5.48 0 0 0-.98 3.39l.12 1.8zm-6.4-1.2c-.09-.6-.14-1.2-.16-1.78-.01-.3 0-.6.01-.9s.05-.6.1-.9.12-.6.2-.89c.1-.29.2-.57.33-.85a4.3 4.3 0 0 1 1.08-1.44 6.84 6.84 0 0 0-1.08 2.38 9.74 9.74 0 0 0-.3 1.71c-.03.29-.04.59-.06.88-.03.6-.05 1.19-.11 1.79zm16.64-3.5c.26.08.52.2.74.39.22.18.41.4.58.62.32.47.52 1.01.64 1.56s.15 1.1.2 1.65c.05.54.1 1.08.2 1.62-.25-.5-.38-1.05-.48-1.59s-.16-1.08-.27-1.6a5.57 5.57 0 0 0-.52-1.5 3.13 3.13 0 0 0-1.09-1.15zm12-9.14c.89.29 1.79.54 2.68.84.44.16.87.32 1.3.53l.33.15.31.18.16.1.14.1.29.22a8.78 8.78 0 0 1 2.53 3.4 4.68 4.68 0 0 1 .31 1.42h-.36a4.18 4.18 0 0 0-.27-1.3 7.78 7.78 0 0 0-4.8-4.63c-.87-.35-1.77-.64-2.62-1.01zm2.35 5.14c.3.44.67.8 1.07 1.15l.6.53c.2.18.4.37.58.57s.34.43.48.69.22.51.26.8c.01.14.02.28.01.42-.01.14-.03.28-.07.42-.05.13-.1.26-.18.38a1.1 1.1 0 0 1-.28.3c.32-.44.35-.98.23-1.46-.12-.5-.4-.91-.74-1.3s-.73-.73-1.1-1.12a4.56 4.56 0 0 1-.86-1.38zm-12.44-13.56c.1.5.1 1.02.07 1.52l-.05.74c-.01.26-.02.5 0 .74a6.05 6.05 0 0 0 .84 2.8 4.15 4.15 0 0 1-1.2-2.78c-.02-.53.05-1.03.13-1.52.08-.52.17-1 .2-1.5zm4.51 4.17.6 1.35.16.33.15.33.16.32.17.32.67 1.3.7 1.28a9.24 9.24 0 0 1-1.7-2.42l-.31-.67-.26-.7a7.38 7.38 0 0 1-.34-1.44zm-6.74 3.23a10.68 10.68 0 0 0 .55 3.04c.12.32.24.63.4.9.09.15.19.27.3.4s.23.2.37.33a4.49 4.49 0 0 1 1.65 2.65 5.34 5.34 0 0 0-1.1-1.72l-.37-.34-.41-.32c-.15-.1-.28-.21-.41-.34a2.47 2.47 0 0 1-.35-.45 5.56 5.56 0 0 1-.67-2.03 7.39 7.39 0 0 1 .04-2.12zm-3.69 2.2c.2.15.37.4.47.64a2.28 2.28 0 0 1 .14.8c.02.55-.13 1.09-.32 1.58s-.43.95-.6 1.43c-.18.48-.3.97-.26 1.49-.1-.24-.14-.52-.12-.78s.04-.54.12-.8c.13-.51.34-1 .54-1.47a4.92 4.92 0 0 0 .37-1.44c.05-.5-.03-1.02-.34-1.45zm-3.93-1.65c.02.15.02.29 0 .45-.03.14-.06.28-.12.43a3.06 3.06 0 0 1-1.13 1.35c-.24.18-.48.34-.73.5l-.72.46a8.16 8.16 0 0 0-.34.26l-.3.27a2.27 2.27 0 0 0-.7 1.48 1.8 1.8 0 0 1-.03-.45 2.48 2.48 0 0 1 .27-.85l.26-.37c.18-.24.42-.44.64-.62.24-.18.48-.34.74-.5l.72-.45.33-.24.31-.28c.4-.38.72-.85.8-1.44zm-6.39 1.42c-.08.24-.24.47-.42.66s-.4.36-.61.5c-.22.16-.43.28-.65.42a4.5 4.5 0 0 0-1.56 1.55c-.26.42-.49.89-.75 1.33.12-.5.27-1 .5-1.46.23-.47.54-.93.97-1.26.42-.34.89-.57 1.33-.8a3.6 3.6 0 0 0 1.2-.94zm-5.46-2.92a7.87 7.87 0 0 0-.73 2.22 6.25 6.25 0 0 0 .08 2.34 3.03 3.03 0 0 1-.42-1.15 4.13 4.13 0 0 1 .34-2.42c.2-.38.43-.72.73-.99zm6.35-4.14c-.46.42-.94.8-1.4 1.21-.44.41-.86.84-1.2 1.34a4.42 4.42 0 0 0-.75 1.6 3.48 3.48 0 0 0 .01 1.8 2.76 2.76 0 0 1-.28-1.84 4.26 4.26 0 0 1 1.34-2.49 10.56 10.56 0 0 1 2.28-1.62zm5.28-.14c-.05.49-.13.98-.31 1.46a3.36 3.36 0 0 1-.34.7 2.68 2.68 0 0 1-.51.59c-.41.33-.9.51-1.32.73-.22.1-.44.21-.62.36a1.7 1.7 0 0 0-.46.54c.03-.25.16-.48.34-.67s.39-.34.6-.48c.44-.27.88-.47 1.23-.77a3.24 3.24 0 0 0 .83-1.12c.2-.42.37-.89.56-1.34z"/>
      </g>
      <g>
        <g stroke="none" fill="#000">
          <path d="M107.94 109a.34.34 0 0 1-.1-.24 1 1 0 0 1 .04-.26c.05-.17.14-.32.22-.47.17-.29.36-.56.55-.84.18-.27.37-.55.53-.83.16-.28.3-.57.35-.87l.02-.22v-.24l-.05-.48c-.04-.32-.12-.63-.2-.96s-.17-.65-.2-1a1.6 1.6 0 0 1 .04-.53 1.16 1.16 0 0 1 .24-.47l.05.03a1.32 1.32 0 0 0-.1.94 3.36 3.36 0 0 0 .11.47l.16.48a6.96 6.96 0 0 1 .31 1.5v.26a2.93 2.93 0 0 1-.44 1.25 8.06 8.06 0 0 1-.6.83c-.2.26-.43.51-.63.78-.1.13-.19.26-.26.4-.06.16-.12.33-.04.47zm-5.2-9.15.12.33.04.17.04.17.05.35.02.35a6.12 6.12 0 0 1-.13 1.4l-.08.35-.1.33a6.24 6.24 0 0 1-.97 1.88l-.05-.03a18.58 18.58 0 0 0 .77-2.25l.08-.33.07-.33.06-.34.05-.34.04-.33c.05-.46.02-.9 0-1.38zm7.69-.09a5.86 5.86 0 0 0 .83-2.56c.02-.3 0-.6-.03-.9l-.14-.9c-.05-.3-.11-.6-.15-.92s-.06-.62-.03-.94c.02-.32.1-.63.24-.92a4.2 4.2 0 0 0 .07 1.82l.2.9c.08.3.14.6.17.92a4.28 4.28 0 0 1-.2 1.9 4 4 0 0 1-.96 1.6zm-4.01-5.85c.17.27.26.6.3.92s0 .66-.05.99-.13.63-.2.94c-.07.32-.16.62-.2.93a4.68 4.68 0 0 0 .75 3.54 3.76 3.76 0 0 1-1.18-2.62c0-.33.02-.67.08-.98.12-.65.33-1.25.49-1.86a3.5 3.5 0 0 0 .01-1.86z"/>
        </g>
        <g>
          <g stroke="none" fill="#000">
            <path d="M94.12 105.5a4.63 4.63 0 0 1-2.8 3.13c-.7.27-1.44.39-2.17.39s-1.46-.12-2.18-.3l.1-.34a8.86 8.86 0 0 0 2.08.36 5.6 5.6 0 0 0 2.09-.28 4.54 4.54 0 0 0 2.88-2.96zm-27.86-7.3a3.78 3.78 0 0 0-1.6 1.44c-.13.2-.24.42-.36.64s-.25.43-.44.64c-.2.19-.42.34-.69.42s-.55.08-.81-.05a.78.78 0 0 1-.32-.28.74.74 0 0 1-.1-.37l.04-.01c.05.1.11.21.2.29.08.07.16.13.27.16a.96.96 0 0 0 .64-.02c.2-.07.4-.18.56-.34s.29-.36.42-.56a5.76 5.76 0 0 1 .89-1.2c.37-.37.82-.62 1.3-.76zm-.12-2.07a13.48 13.48 0 0 0 3.6-2.74c.54-.54 1.02-1.13 1.54-1.69s1.1-1.1 1.77-1.46l.02.03a9.64 9.64 0 0 0-1.64 1.56l-.75.87-.76.85-.41.4-.42.39-.45.36-.46.34c-.64.46-1.32.82-2.04 1.09zm17.54-17.2a1.63 1.63 0 0 0-1-.53c-.38-.07-.76-.08-1.16-.1a2.8 2.8 0 0 1-1.19-.27c-.19-.1-.37-.24-.5-.42s-.23-.37-.29-.57l.35-.1a1.32 1.32 0 0 0 .57.84c.32.18.7.25 1.08.31.39.05.78.09 1.18.2a1.85 1.85 0 0 1 1 .62l-.04.02zm3.67 15.2a10.92 10.92 0 0 0-1.37 2.23 6.44 6.44 0 0 0-.54 2.54c-.1-.43-.1-.89-.04-1.34a5.33 5.33 0 0 1 1.95-3.44zm-22.87 4.33c-.22.12-.43.21-.65.3l-.62.3c-.2.12-.4.22-.55.37a1 1 0 0 0-.35.56l-.03-.18.02-.1v-.09l.08-.18.05-.08.06-.08c.15-.2.37-.34.59-.46a3.6 3.6 0 0 1 1.4-.36zM91.91 75.2c.5-.18 1.06-.2 1.59-.07a2.76 2.76 0 0 1 .75.3l.67.4c.22.14.45.25.69.3.24.06.49.07.74.08l.8.02c.26.03.52.06.77.16-.52-.07-1.03.02-1.56.05-.26.01-.54.01-.81-.05s-.54-.18-.77-.31l-.66-.42a3.57 3.57 0 0 0-.68-.33c-.48-.14-1-.19-1.53-.13zm-1.45 5.28c.31-.07.64-.06.96 0 .32.07.62.2.9.37s.5.42.72.65.4.46.65.67c-.31-.1-.58-.3-.82-.5s-.47-.4-.72-.56a4.2 4.2 0 0 0-1.69-.63zm3.61-1.23a5.8 5.8 0 0 0-3.19-.96c-.37 0-.76.04-1.12.19.16-.11.35-.18.53-.24l.58-.11a4.73 4.73 0 0 1 2.29.34c.37.13.72.3 1.06.5l-.15.28zm-6.57-2.1a4.52 4.52 0 0 0-1.91-.47c-.22-.03-.45-.05-.67-.1a3.38 3.38 0 0 1 1.38-.1c.22.03.46.1.67.22.2.11.4.27.53.46z"/>
          </g>
          <g>
            <g stroke="none" fill="#000">
              <path d="M83.66 82.28a2.57 2.57 0 0 0-1.04-.18c-.34 0-.7.07-1.04.14-.68.16-1.38.38-2.11.44-.18 0-.37 0-.55-.02-.2 0-.38-.06-.56-.1-.34-.11-.68-.26-1-.34a1.87 1.87 0 0 0-1-.04c-.31.11-.6.36-.65.71h-.05a.9.9 0 0 1 .18-.51c.12-.16.28-.27.45-.35.36-.16.75-.13 1.11-.05.36.07.7.22 1.04.3a2.48 2.48 0 0 0 1.02.1c.7-.05 1.38-.24 2.08-.36.36-.06.72-.1 1.1-.06.36.02.72.12 1.02.32zm-1.8 8.9.48-.62a11.64 11.64 0 0 0 .81-1.3l.39-.67.04.01a3.92 3.92 0 0 1-1.06 2.1 2.76 2.76 0 0 1-.66.47zm3.76-5.73a4.98 4.98 0 0 0-2.43-.89c-.43-.02-.87.02-1.29.1-.43.1-.85.21-1.27.34l-1.27.39-.65.18a4.28 4.28 0 0 1-2.01.06 3.24 3.24 0 0 1-1.18-.66l.02-.04a3.36 3.36 0 0 0 1.2.55c.41.1.84.09 1.28 0 .85-.18 1.68-.51 2.53-.75.43-.13.86-.24 1.3-.33a4.28 4.28 0 0 1 2.67.33 5.71 5.71 0 0 1 1.1.72z"/>
              <path d="M84.4 86.7c-.46-.06-.9-.17-1.34-.3-.22-.08-.45-.15-.66-.24-.22-.09-.42-.2-.64-.32l.17-.25a5.6 5.6 0 0 0 1.17.66c.42.18.86.33 1.3.45z"/>
            </g>
            <path fill="#F2F2F2" stroke-linejoin="round" d="M79.73 85.44c.72-.18 1.55-.2 2.11.27.15.12.6.87.22 2.11a2.28 2.28 0 0 1-.86 1.24 3.84 3.84 0 0 1-2.44.53c-.76-.16-1.27-.43-1.34-1.12-.14-1.11 1.74-2.88 2.31-3.03z"/>
            <g stroke="none" fill="#000">
              <path d="M80.18 85.41h-.02c-.18.06-.36.12-.55.13h-.24l-.27.15-.12.06-.17.17c-.22.22-.59.6-.72.93a1.92 1.92 0 0 0 1.35 1.6c.23.07.45-.13.41-.36a4.68 4.68 0 0 1 .33-2.68z"/>
              <path d="M74.14 89.42a9.8 9.8 0 0 0 3.44-2.3l.22-.2.1-.1.06-.05.02-.03h.01l.01-.02.02-.01v-.01h.02c.01-.1.31.1.23.14l-.3-.02c-.09.04.21.24.23.14.02-.01 0 0 0 0v.01l-.03.03-.05.04-.1.11-.22.2-.46.4a9.76 9.76 0 0 1-2.04 1.3 6.9 6.9 0 0 1-1.16.37z"/>
            </g>
          </g>
          <g stroke="none" fill="#000">
            <path d="M65.34 100.26c-.13.27-.21.57-.3.86-.1.3-.2.61-.42.88-.1.13-.22.25-.37.34l-.21.12c-.09.04-.17.08-.26.09-.34.05-.64-.04-.94-.12.3-.11.63-.1.9-.17l.18-.06c.06-.04.13-.06.18-.1.12-.08.22-.18.3-.28.2-.22.32-.48.45-.77.15-.28.29-.57.5-.8z"/>
          </g>
          <path class="tertiary" stroke-linejoin="round" d="M80.45 103.02a4.39 4.39 0 0 0-.81-1.76c-.88-.14-4.5.2-7.6 2.4-1.64 1.14-3.1 2.51-5.03 3.23s-2.89.42-4.9.76c-.46.08-.94.23-1.3.54s-.57 1.1-.43 1.56c.49 1.64 3.36 1.51 4.65 1.28 1.43-.25 1.43-.33 2.55-.95a18.6 18.6 0 0 0 3.1-2.22c1.1-.9 2.58-2.4 4.42-3.3 2.52-1.28 4.27-1.6 5.35-1.54z"/>
          <g stroke="none" fill="#000">
            <path d="M72.5 114.02c.15-.2.27-.4.38-.64l.32-.7-.18.75c-.06.25-.14.5-.27.75l-.25-.16zm-2.94-.52c.03-.02.07-.1.1-.18a1.92 1.92 0 0 0 .08-.51c0-.09 0-.18-.04-.27.05.08.08.17.1.26.03.08.06.18.06.27v.29c0 .1 0 .2-.08.32l-.22-.18z"/>
          </g>
        </g>
        <g stroke="none" fill="#000">
          <path d="M113.37 87.62c.05-.28.14-.54.29-.78s.32-.44.52-.62l.32-.27.34-.19c.24-.12.48-.2.7-.35-.08.1-.2.2-.3.27l-.32.21-.32.22a2.93 2.93 0 0 0-.68.87c-.1.22-.18.45-.2.69l-.35-.05z"/>
        </g>
        <g>
          <path class="secondary" d="M119.38 72.19a4.33 4.33 0 0 1 3.32-2.34c.96-.17 2-.28 2.86.18 1.06-1.14 3.85-1.68 5.11-.77.9-1.52 3.55-1.4 4.75-1.38a5.9 5.9 0 0 1 3.05-2.78c.42-.17 1.12.5 1.08.96s-.33.84-.4 1.3c-.07.34.02.69.03 1.04a6 6 0 0 1-.89 2.84 8.36 8.36 0 0 1-1.37 2.12c-1.36 1.4-3.5 1.68-5.46 1.7a1.8 1.8 0 0 0-.8.14c-.16.08-.28.2-.4.34a8.54 8.54 0 0 1-2.83 1.8"/>
          <g stroke="none" fill="#000">
            <path d="M125.7 69.9a5.3 5.3 0 0 1 .75 1.38c.05.16.06.34.02.52a4.22 4.22 0 0 0-.44-.88l-.3-.4-.33-.38.3-.23z"/>
          </g>
          <path class="secondary" stroke-linejoin="round" d="M139.08 94.58c.12-.48.22-.98.1-1.46a6.13 6.13 0 0 0-.28-5.72 3.97 3.97 0 0 0 .36-1.92c-.06-.36-.21-.7-.37-1.04a5 5 0 0 0-1.51-2.06 3.78 3.78 0 0 0-.91-2.58 7.82 7.82 0 0 0-2.2-1.76 2.32 2.32 0 0 0-.44-1.48 6.98 6.98 0 0 0-1.07-1.17c-.73-.68-1.98-1.3-2.84-1.81-.45-.26-.93-1.22-1.35-1.54-1.34-.98-3.02-1.18-4.67-1.4-.62-.08-.44-.88-2.97-1.43-.5-.1-1.53-.1-2.03 0-.58.1-.89.29-1.44.46a5.68 5.68 0 0 0-6.24.67 3.24 3.24 0 0 0-1.3-.29c-.42 0-.84.11-1.24.2-.95.25-1.91.5-2.7 1.1a7.64 7.64 0 0 0-1.26 1.37c-.44.12-.9.19-1.34.3-.34.1-.7.19-1.02.34-1.9.87-2.68 2.02-3.15 2.54a2.42 2.42 0 0 1-1.32.8c-2.49.47-3.72 2.11-3.76 2.45 0 0 1.73-.13 3.67.91a26.94 26.94 0 0 1 3.94 2.8c.1.49.35 1 .5 1.47.27.93-.36 1.06.3 1.75.34.36.99.69 1.4.95 1.06.7.4 2.57 1.62 2.95 1.2.39.74.18 1.86-.44.27-.16.52-.35.82-.43 1.17-.35 1.7-.11 2.67-.93.85-.7 1.47-1.38 1.73-2.52.02-.13.06-.27.16-.34.08-.05.16-.05.24-.06.28-.02.54.16.82.14a2.04 2.04 0 0 0-.44.77c-.48 1.21-.99 2.55-.57 3.79a5.23 5.23 0 0 0-.84 2.98c.01.45.15.85.1 1.3 0 0-.07.57-.03.9.1.7.12 1.26.4 1.91s.74 1.29 1.34 1.67c-.32.3-.18.84.04 1.22a7.22 7.22 0 0 0 2.69 2.79c.3.96 1.05 1.71 1.93 2.22s1.92.55 2.8 1.03a6.82 6.82 0 0 0 5.01.59c.42-.12.83-.28 1.13-.59.88.37 1.88.14 2.78-.14.6-.2 1.2-.41 1.74-.76s1.02-.78 1.25-1.37a7.88 7.88 0 0 0 3.67-5.25 3.96 3.96 0 0 0 1.46-1.72c.38-.68.57-1.43.76-2.16zm-12.78.88c-.08.1-.18.22-.32.25-.1.01-.2-.03-.3-.06l-3.01-1.27a6.07 6.07 0 0 0-.71-2.79c1.38-.77 2.24-2.35 2.75-3.85.1-.31.23-.34.33-.65.82.72 1.72 1.32 2.97 2 .02 1.43.32 2.86.89 4.18a7 7 0 0 0-2.6 2.19z"/>
          <path fill="none" stroke-linejoin="round" d="M125.04 87.08c-.4-.26-1.3-.97-2.18-1.81a5.46 5.46 0 0 1-4.51-.95c.02.07-.07.17-.15.2-.63.39-1.28.78-1.99.99a2.8 2.8 0 0 1-2.16-.16"/>
          <g stroke="none" fill="#000">
            <path d="M119.9 89.37a7.63 7.63 0 0 0-.75 3.67c.04.63.15 1.26.37 1.85a5.18 5.18 0 0 0 2.45 2.75 8.4 8.4 0 0 0 1.74.7 6.32 6.32 0 0 0 6.75-2.07 6.84 6.84 0 0 0 1.48-3.38 9.72 9.72 0 0 0-.24-3.72c-.15-.61-.36-1.2-.6-1.77a8.7 8.7 0 0 0-.96-1.6c-.74-1.01-1.65-1.88-2.65-2.64a18.66 18.66 0 0 0-4.92-2.73 10.3 10.3 0 0 0-1.81-.47 18.67 18.67 0 0 0-3.74-.27 16.9 16.9 0 0 0-7.24 1.85 10.8 10.8 0 0 0-2.98 2.28c-.86.92-1.56 1.99-2.18 3.08a15.42 15.42 0 0 1 2.08-3.18 10.8 10.8 0 0 1 2.96-2.39 17.8 17.8 0 0 1 3.55-1.4c1.23-.37 2.51-.53 3.78-.57s2.56.05 3.82.27a11.28 11.28 0 0 1 3.62 1.25 19.1 19.1 0 0 1 3.25 2.02c1.01.78 1.95 1.68 2.7 2.72a8.9 8.9 0 0 1 1.58 3.49 10.21 10.21 0 0 1 .19 3.81 7.35 7.35 0 0 1-1.56 3.48 6.44 6.44 0 0 1-6.94 2.1 7.86 7.86 0 0 1-1.76-.74 5.26 5.26 0 0 1-2.46-2.83 6.24 6.24 0 0 1-.36-1.87 7.76 7.76 0 0 1 .84-3.69zm3.5-15.77c.14-.21.2-.46.25-.7s.09-.5.11-.75l.04-.75-.02-.38v-.18l-.02-.08-.01-.06.33-.12.03.12.01.1v.21l-.02.4a8.7 8.7 0 0 1-.3 1.53l-.08.18-.08.18a.8.8 0 0 1-.24.3zm-5.96-1.08.15-.72c.05-.24.06-.48.06-.72a2.64 2.64 0 0 0-.33-1.34l.32-.17c.12.24.2.5.24.75a3.31 3.31 0 0 1-.44 2.2zm-5.49.3a3.26 3.26 0 0 0-.1-1.34c-.07-.2-.16-.4-.28-.58s-.27-.32-.43-.43l.19-.3c.21.15.38.35.5.57a2.36 2.36 0 0 1 .31 1.4 1.5 1.5 0 0 1-.19.67zm-6.42 1.95a7.88 7.88 0 0 0-.25-1.1 3.02 3.02 0 0 0-.58-.9l.28-.25a2.83 2.83 0 0 1 .55 1.07c.05.2.09.4.09.59 0 .2-.03.4-.09.59zm24.39-1.14a2.38 2.38 0 0 1-.5 1.2 2.74 2.74 0 0 1-.45.45 1.68 1.68 0 0 1-.57.3c.17-.14.32-.27.46-.42a2.54 2.54 0 0 0 .7-1.56l.36.03zm4.6 4.3c-.18.2-.36.39-.56.57a7.79 7.79 0 0 1-1.27.92c-.23.14-.47.24-.71.33l.62-.47.6-.48a11.47 11.47 0 0 0 1.06-1.1l.26.24zm3.27 4.52a4.37 4.37 0 0 1-.58.38 4.32 4.32 0 0 1-.62.31 4.25 4.25 0 0 1-1.32.38c.4-.2.83-.38 1.21-.6.2-.11.38-.23.56-.36l.53-.4.22.29zm1.26 5.04a2.71 2.71 0 0 1-1.62.59c-.2 0-.39-.02-.57-.06.38-.08.72-.12 1.06-.27.17-.07.32-.14.47-.24.14-.1.29-.19.42-.31l.24.29zm.27 5.65a3.31 3.31 0 0 1-.94.23c-.33.02-.65.01-.95-.12.31-.05.61-.05.91-.13.14-.04.29-.08.42-.14.13-.04.28-.1.4-.18l.16.34zm-2.47 5.54c-.21 0-.43 0-.65-.02-.21-.02-.43-.05-.63-.1-.42-.08-.84-.19-1.23-.4.44.04.84.14 1.26.16l.63.03.62-.01v.34zm-3.36 5a3.72 3.72 0 0 1-1.2-.34 3.08 3.08 0 0 1-1.02-.67c.39.15.73.33 1.12.44.19.06.37.11.56.15l.58.08-.04.35zm-6.06 2.48a2.47 2.47 0 0 1-.96-.59 1.97 1.97 0 0 1-.33-.44 1.2 1.2 0 0 1-.15-.53c.09.16.18.31.29.44a1.97 1.97 0 0 0 .8.6c.15.08.3.14.46.17l-.1.35zm-6.18.1a1.88 1.88 0 0 1-.42-.46 2.54 2.54 0 0 1-.4-1.14c0-.2.02-.4.08-.59.02.2.05.39.1.57a2.3 2.3 0 0 0 .87 1.33l-.23.29zm-4.81-3.47a2.07 2.07 0 0 1-.07-.66 4.02 4.02 0 0 1 .3-1.25c.08-.2.17-.38.27-.56-.04.42-.18.81-.22 1.2-.03.21-.04.4-.03.6s.05.38.11.56l-.36.1zm-2.69-4.15a2.62 2.62 0 0 1 1.01-1.74c.18-.14.38-.24.6-.3a3.32 3.32 0 0 0-1.13 1.48c-.06.2-.1.4-.12.6l-.36-.04z"/>
            <path d="M112.01 94.2c.03-.23.11-.47.2-.68a2.8 2.8 0 0 1 1.53-1.35c-.18.14-.35.27-.5.43-.16.14-.3.31-.42.5s-.23.35-.3.54-.12.4-.15.6l-.36-.03zm18.87-25.06a4.07 4.07 0 0 1 .36.96c.06.34.1.67.02 1-.1-.32-.14-.63-.26-.93-.06-.14-.12-.3-.2-.43l-.24-.4.32-.2zm4.7-1.33.2.47a5.76 5.76 0 0 1 .36.98c.04.17.06.36.03.53l-.2-.48c-.05-.16-.14-.3-.22-.46l-.25-.44-.26-.46.34-.14zM98.82 82.1c-.24.05-.48.1-.72.17a6.92 6.92 0 0 0-1.35.62 4.42 4.42 0 0 0-.61.45l-.03-.03a7.42 7.42 0 0 1 1.91-1.3c.24-.11.5-.2.74-.27l.06.36z"/>
          </g>
          <path d="M101.96 91.8a12.7 12.7 0 0 0 5.7.93c2.29-.23 5.31-.48 7.9-1.6 3.02.27 5.45-1.63 5.37-2.67-.33-1.37-3.63-2.09-4.74-2.48-4.45-1.64-5.95-2.98-8.39-3.72-3.2-.96-7.19-.87-9-.33"/>
          <g stroke="none" fill="#000">
            <path d="M106.78 92.95c-2.58 0-4.51-.8-4.9-.97l.14-.33c.42.2 2.68 1.12 5.62.9l.4-.03c2.24-.22 5.03-.5 7.44-1.55l.08-.01a6.12 6.12 0 0 0 4.64-1.5c.36-.36.55-.71.54-.98-.27-1.02-2.51-1.69-3.86-2.1l-.76-.24a40.8 40.8 0 0 1-5.19-2.31c-1.15-.59-2.06-1.06-3.19-1.4-3.06-.93-7-.9-8.9-.33l-.11-.35c1.94-.57 5.97-.62 9.1.33 1.17.34 2.14.85 3.26 1.42 1.25.64 2.8 1.44 5.15 2.3l.75.24c1.53.45 3.82 1.14 4.1 2.37v.03c.03.37-.2.82-.64 1.26a6.48 6.48 0 0 1-4.87 1.6c-2.46 1.05-5.26 1.32-7.52 1.54l-.4.04c-.3.06-.6.07-.88.07z"/>
            <path d="M98.03 89.89c.36.05.72.15 1.07.29s.67.3 1 .46l.96.53c.32.18.63.35.96.48l-.15.34c-.35-.17-.66-.37-.96-.57l-.92-.6c-.31-.19-.63-.37-.95-.52s-.67-.3-1.02-.36l.01-.05zm1.12-5.75a14.64 14.64 0 0 1 4.97-1.03l.64.02.33.05.32.05a37.2 37.2 0 0 1 2.46.67c.41.13.8.3 1.19.48.38.2.76.4 1.12.61a16.26 16.26 0 0 0 3.46 1.48c.8.26 1.61.48 2.44.7.82.22 1.63.46 2.4.82l-.02.05c-.4-.16-.8-.29-1.2-.4l-1.23-.3c-.83-.19-1.65-.38-2.46-.63a20.42 20.42 0 0 1-2.4-.87c-.4-.16-.77-.37-1.14-.57-.37-.2-.73-.42-1.1-.6-.75-.37-1.55-.63-2.35-.85l-1.23-.33-.3-.06-.31-.05-.62-.04c-.84-.03-1.68.06-2.51.21a22.2 22.2 0 0 0-2.46.59zm7.03 1.63a3.65 3.65 0 0 1-1.42 1.48 3.06 3.06 0 0 1-1.33.38 3.64 3.64 0 0 1-2-.44l.02-.05c.43.12.87.2 1.31.22.43 0 .86-.03 1.28-.15.42-.1.8-.3 1.17-.55a6.72 6.72 0 0 0 .97-.89zm-4.92 4.13a8.08 8.08 0 0 0 2.83.86 20.46 20.46 0 0 0 2.97.15 30.83 30.83 0 0 0 4.44-.46c.49-.07.98-.17 1.46-.26l.01.05a22.34 22.34 0 0 1-5.9.97 13.92 13.92 0 0 1-3-.22 7.42 7.42 0 0 1-2.81-1.09zM84.29 79.82c.28.14.53.32.78.48s.5.3.77.4a2.64 2.64 0 0 0 .82.21c.27.03.56 0 .85-.12a1.25 1.25 0 0 1-.85.41c-.33.02-.66-.04-.96-.16a3 3 0 0 1-.8-.51 4.25 4.25 0 0 1-.6-.71zm3.94 2.64c.35.32.67.68 1 1 .34.32.7.6 1.1.81.4.2.83.33 1.28.33.46 0 .93-.06 1.4-.16a3.44 3.44 0 0 1-1.39.43 2.6 2.6 0 0 1-1.46-.29l-.17-.1-.15-.1-.16-.1-.14-.13-.27-.25c-.1-.08-.17-.18-.24-.28a6.68 6.68 0 0 1-.8-1.16zm5.76 3.78a3.35 3.35 0 0 0 .89 1.56 3.89 3.89 0 0 0 1.5.98c-.32.04-.65-.03-.95-.16s-.58-.33-.82-.57a2.59 2.59 0 0 1-.54-.84 1.8 1.8 0 0 1-.08-.97zm2.88 4.56a2.64 2.64 0 0 0 0 1.87 2.74 2.74 0 0 0 .77 1.15c.12.11.22.2.37.3l.4.3.2.18.17.23c.18.34.21.72.15 1.06-.12.68-.43 1.26-.49 1.92-.05-.34 0-.67.06-1 .06-.32.13-.65.16-.96s-.02-.61-.17-.85c-.15-.24-.41-.4-.69-.6a2.8 2.8 0 0 1-1.28-2.68 2.4 2.4 0 0 1 .35-.92zm.8 8.82c-.12.48 0 .94-.01 1.44 0 .25-.05.53-.17.77s-.3.44-.49.61c-.38.34-.82.56-1.21.83a2.36 2.36 0 0 0-.53.44 1.18 1.18 0 0 0-.3.63c-.04-.24.02-.5.17-.72.13-.22.31-.4.5-.57.39-.32.8-.57 1.14-.87.18-.15.33-.32.43-.5s.16-.4.2-.62l.07-.72c.01-.25.07-.5.2-.72z"/>
          </g>
        </g>
      </g>
    </g>
  </g>
</svg>
