<svg xmlns="http://www.w3.org/2000/svg" fill="#d7374a" stroke="#000" viewBox="50 50 200 200">
  <metadata source="http://wappenwiki.org/images/a/a4/Lake_Gumsehuvud.svg" license="https://creativecommons.org/licenses/by-nc-sa/3.0"/>
  <g id="ramHeadErased" stroke-width="3" transform="translate(50.5 50) scale(0.12)">
    <g>
      <g>
        <path class="secondary" d="M562.8 179.5a36.7 36.7 0 0 1 30.8-14.2c8.1.1 16.8.7 23.1 5.8 10.4-7.7 34.1-7.9 43 1.5 9.7-11.1 31.2-6 41.1-4.1a49.3 49.3 0 0 1 29.2-18.2c3.7-.7 8.4 5.8 7.4 9.5-1 3.6-4 6.4-5.3 10-1 2.7-.9 5.7-1.3 8.6a50 50 0 0 1-11.6 22 70.7 70.7 0 0 1-14.5 15.4c-13.4 9.4-31.3 8.4-47.4 5.7-2.3-.4-4.6-.8-6.8-.1-1.4.4-2.6 1.3-3.8 2.1a71.7 71.7 0 0 1-25.9 10.6"/>
        <g stroke="none" fill="#000">
          <path d="m618 170.4 1.9 3.9a28.6 28.6 0 0 1 2.3 8.4c.1 1.5 0 3-.6 4.4l-.8-4.1c-.3-1.3-.8-2.6-1.4-3.9l-1.9-3.7-2.1-3.6 2.6-1.4z"/>
        </g>
        <path class="secondary" stroke-linejoin="round" d="M690.3 392.8c1.7-3.8 3.3-7.8 3-11.9a51.3 51.3 0 0 0 6.4-47.2 32 32 0 0 0 5.8-15.2c.1-3.1-.7-6.1-1.4-9.1a42 42 0 0 0-9.2-19.2c1.9-7.6.1-15.7-3.5-22.6a68 68 0 0 0-15.3-17.7 19 19 0 0 0-1.4-12.8c-1.7-4-4.4-7.6-7-11.1-5-6.7-14.3-13.7-20.6-19.2-3.3-2.8-5.7-11.5-8.7-14.6-9.5-10.1-22.9-14.3-36.1-18.6-5-1.6-2.4-7.8-22.3-16.2a58.7 58.7 0 0 0-16.6-3.1c-4.8-.1-7.7 1-12.5 1.5a47.7 47.7 0 0 0-52.2-4 25 25 0 0 0-10.2-4.3c-3.5-.7-7-.4-10.6-.2-8.1.6-16.4 1.2-23.7 4.8a58.9 58.9 0 0 0-12.5 9.3c-3.7.3-7.6.2-11.3.5-3 .2-6 .5-8.9 1.3-16.9 4.2-25.1 12.5-29.7 15.9a20.1 20.1 0 0 1-12 4.6c-21.1.1-33.7 11.7-34.5 14.4 0 0 14.3 1.6 28.7 13.1 13 10.4 28 29 28 29 .1 4.1 1.4 8.7 1.8 12.7.9 8-4.4 8.1-.1 14.9 2.2 3.5 7 7 10 9.9 7.7 7.3-.6 21.6 8.8 26.6 9.3 5 5.9 2.6 15.9-.8 2.5-.8 4.9-2 7.5-2.3 10.1-1.1 14 1.7 23.3-3.5a36.3 36.3 0 0 0 18-18c.4-1 .9-2.1 1.9-2.6.6-.3 1.4-.2 2-.1 2.3.3 4.2 2.1 6.5 2.5a16.3 16.3 0 0 0-4.8 5.6c-5.8 9.3-11.9 19.5-10.4 30.3a44 44 0 0 0-11.4 23.1c-.6 3.8-.1 7.2-1.1 10.8 0 0-1.5 4.7-1.6 7.4-.3 5.9-1 10.6.3 16.4s4.2 11.6 8.5 15.7c-3.1 1.9-2.7 6.6-1.6 10.1a58.7 58.7 0 0 0 17.8 26.8c1 8.3 6.1 15.7 12.5 21.1s14.9 7.4 21.4 12.7a56.9 56.9 0 0 0 40.2 12.4c3.6-.3 7.2-1 10.1-3.1 6.6 4.4 15.2 4 23.1 3 5.2-.7 10.5-1.6 15.4-3.6s9.5-4.9 12.3-9.4a65.3 65.3 0 0 0 38-37.5 33.6 33.6 0 0 0 14.5-11.9c4.2-5 6.9-10.8 9.5-16.6zm-106-12.2c-.9.8-1.9 1.6-3 1.6-.9 0-1.7-.5-2.4-1l-22.8-15a51 51 0 0 0-1.6-23.9c12.5-4.2 21.9-15.9 28.4-27.4 1.4-2.4 2.4-2.4 3.8-4.8 5.6 7.1 12.1 13.4 21.3 20.9-2 11.8-1.7 24 .9 35.7a58 58 0 0 0-24.6 13.9z"/>
        <path fill="none" stroke-linejoin="round" d="M586.6 310.1a156 156 0 0 1-15.2-18.2 45 45 0 0 1-35.5-14.6c.1.6-.9 1.2-1.4 1.4-5.8 2.2-11.6 4.4-17.8 5s-12.7-.6-17.5-4.5"/>
        <g stroke="none" fill="#000">
          <path d="M541.1 321.1a65.4 65.4 0 0 0-11.8 29 45.6 45.6 0 0 0 16.2 42c4 3.3 8.5 6.1 13.2 8.4a54 54 0 0 0 30.3 5.6 53.2 53.2 0 0 0 28.1-12.4c7.9-6.7 14-15.6 17.3-25.5a82.8 82.8 0 0 0 1.4-46.3c-1.2-5-3.1-9.9-5.3-14.6a115.8 115.8 0 0 0-17.7-25.6 154 154 0 0 0-36.2-29.8 95.7 95.7 0 0 0-14.1-6.6c-9.8-3.7-20-6.3-30.3-8s-20.8-2.4-31.2-1.3a140 140 0 0 0-30.9 5.4c-10 3-19.4 7.9-27.8 14.2a138.3 138.3 0 0 0-22.6 22 125 125 0 0 1 21.9-22.9 85.1 85.1 0 0 1 28-15.1 139 139 0 0 1 63.1-5c10.5 1.7 20.9 4.2 30.9 8a101 101 0 0 1 27.8 15.7c8.5 6.4 16.5 13.5 23.5 21.5 7.1 8 13.3 16.7 18 26.4a73.5 73.5 0 0 1 7.5 31c.5 10.7-.7 21.5-4.2 31.6-3.6 10.1-9.8 19.2-18 26.1a54 54 0 0 1-60 6.6 69.2 69.2 0 0 1-13.3-8.7 44.7 44.7 0 0 1-16-42.9c.8-5.2 2.3-10.4 4.4-15.2 2-4.8 4.6-9.4 7.8-13.6zM546.3 179.3l2.3-5.7a29.4 29.4 0 0 0 2-11.7 18 18 0 0 0-1.1-5.6l2.9-.9c.6 2.1.9 4.3.8 6.5a27.6 27.6 0 0 1-3.3 12.3c-.9 1.8-2.1 3.6-3.6 5.1zM501 173.3a28.6 28.6 0 0 0 1.2-11c-.3-1.8-.7-3.6-1.5-5.2-.7-1.6-1.7-3.1-2.9-4.2l2.1-2.2c1.5 1.5 2.6 3.4 3.3 5.4a21.1 21.1 0 0 1 .4 11.9c-.5 2-1.3 3.8-2.6 5.3zM445.4 179.7l.1-4.7a24 24 0 0 0-1.8-9c-.6-1.4-1.2-2.7-2-4l2.6-1.5a24.6 24.6 0 0 1 2.9 9.6 21 21 0 0 1-.2 5c-.3 1.6-.8 3.2-1.6 4.6z"/>
        </g>
      </g>
      <g>
        <path stroke-linejoin="round" d="M150.5 511.4c.8-7 9.1-18.5 15.5-22.5 6.2-3.9 12.5-7.7 18.8-11.2 13.1-7.3 12.7-7.4 24.3-17.1 16.2-13.6 25.3-30.3 20.2-40.6 2.4-3.9 7.4-6.9 12-7.1 10.2-.4 19.5 7 24.1 16.1s5.5 19.6 5.9 29.8c.1 1.4.1 2.8-.6 4-.6 1-1.6 1.6-2.6 2.2-13.8 8-28.3 8.7-41.4 13-1.6.5-3.3 1.1-4.7 2.1-1.9 1.3 11.2-2.5 9.7-.8-4.6 5.1-10.5 8.8-15.9 13-9.3 7-18.6 24.7-29.1 29.7-10.4 4.9-27.6-2.7-36.2-10.6zM156.7 521.7c-9.5 10.4-4.7 20.7-22.3 32.3-4.5 3-3.3 5.1-.4 4.7 27.2 1.3 37.9-26 46.5-27.5"/>
      </g>
    </g>
    <g>
      <path stroke-linejoin="round" d="M673 579.8a45.8 45.8 0 0 0-2.4-61.6c-11.2-10.5-32.9-14.8-44.7-32.8-5.7-8.8-9.8-25.1-16.5-34.1l18.2-2.2c-71.6-36.3-85.4-136.3-95.7-149.5-16.9-44.9-52.7-63.8-69.4-76.5-16.7-12.6-48.6-32.2-85.2-28.3-13.3 1.4-23-1.2-31.9-.5s-16.1 2.7-32.6 2c-15.9-.7-26.2 10.6-41.3 12.4-2.7.3-5.4.3-8.1.7-7.9 1.2-19.2 5.8-20 15.4-.1 1.6-1.1 3-6.6 5.9a78.6 78.6 0 0 0-29.9 27.6c-6.7 10.9-17.9 18.8-11.9 29 4.4 7.4-7.9 5.3-18.1 14.8-10.5 9.7-20.9 17.6-30.6 32.3-8.2 12.4-13.4 17.4-23.5 28.2-7.5 8.1-8.4 8.4-15.7 14.2-12.8 10.1-22.5 20.5-21.4 32.4l.2 5.1c-.1 1.6-4 12.2-4.4 13.7-1.4 4.6.6 16 4.2 21.4 5.3 7.9 7.2 9.3 15 11.9 6.5 2.2 22.2-.1 37.2-6.2 30.9-12.6 18.8-10.9 52.1-30.3 11.4-6.6 43.3-11.5 52.9 2.3 4.1 6 9 12.1 6 23.1-3.5 13-18.1 20.2-20.7 22-7 4.6-10.3 6.9-17.3 11.7-8 5.5-7.6 7-16.6 10.5-9.2 3.6-18.5 14.1-28.4 12.4-6.7-1.1-1-9.8 5.6-15.1 11.2-8.9 27.2-22.8 27.2-22.8s-26 10.1-35.1 18.6a44 44 0 0 0-13.7 22.3c-1.8 9.2 6.8 19.4 9 19.9l.9.3c-2.3 7-3.3 14.4-2.9 21.8.6 10.3 4.1 24.5-2.7 33.4-1.6 2.1-3.7 3.7-4.9 6-.2.3-.4.7-.2 1.1.2.6 1 .7 1.7.6a31 31 0 0 0 19.9-11.7c6.1-7.5 5.7-17.1 6.6-26.2.7-7.1 3.1-14.7 7.2-20.8 2.7-1.4 5.4-3.2 8.1-5 5-3.3 9.8-14.2 14.1-18.4 12.7-12.2 41.5-22 48.9-24.5 11.7-4 39.4-2.4 48.9 1.7 9 3.7 12.6 21.2 12.1 33.6-.3 6.8-3.6 13.2-4.1 20-.9 11 6.8 18 7.4 28.4.5 8.7 1.5 18.1 7 24.9 3.6 4.5 8.8 7.3 13.5 10.6 16.1 11.2 8.5 25.6 6.9 42-.9 9.3 1.2 17.8 3.3 26.7 1.8 7.6 4.3 14.9-1 21.9 11.5-1.9 23.1-7.6 28.6-18.2-.2 2.7 5.6 8.9 6.4 12.3 1.2 4.9.9 10.2-.9 15 5.7-.9 10.9-4.3 14-9.1 1.6-2.5 2.7-5.3 4.8-7.4 6.9-6.9 12.4 1.6 20 .7 5.8-.7 14.5-10.4 18.4-1.9.8 1.8 1.1 3.9 1.5 5.8.7 4.1 1.8 8.2 3.9 11.7 3.7 6.3 13.9 14.9 21.7 14.4-4.6-26.8 13-28.5 22.2-42.2 1.3-2 1.8-4 4.7-3.6 4.4.6 7.1 7.7 7.4 11.5.3 3.6-.3 7.3.2 11 .7 4.9 3.5 9.5 7.5 12.3 3.5 2.4 8.8 4.2 13 3-4.1-3.4-1.6-14.1.9-18 2.8-4.3 7.8-6.5 12-9.7 4.3-3.2 6-6.8 8.4-11.2 3.3 2.7 8.3 1.1 11.8-.3 3.7-1.5 6.9-4.4 8.2-8.1 1.9-5.5 2.1-11.4 4.5-16.8 1.1-2.5 2.7-6.1 5.1-7.7 4.4-2.9 5.6 2.7 7.5 6.2 3.5 6.7 8.1 13 13.9 17.8A35.2 35.2 0 0 0 616 672a11.8 11.8 0 0 1-1.5-12.1c.8-1.8 2.1-3.4 3.2-5.1a52.4 52.4 0 0 0 6.2-20.1c3 5.1 5.6 10.3 10 14.4 3.8 3.6 11.3 8.5 16.7 6.4-1.7-10.2-.7-20.5 8-27.6 3.9-3.2 8.7-5.2 12.3-8.7a26 26 0 0 0 6.7-19.1c-.5-6.9-2.6-13.6-4.6-20.3z"/>
      <g stroke="none" fill="#000">
        <path d="M376.8 676.9a43.4 43.4 0 0 0 8.5-16.5 74.8 74.8 0 0 0 1.8-19c0-6.4-.3-13 .2-19.5s1.9-13 4.8-18.8a61.2 61.2 0 0 0-3.4 18.9c-.2 6.4.2 12.9.4 19.4.2 6.5.1 13.1-1.4 19.6a41.4 41.4 0 0 1-8.8 17.8l-2.1-1.9zM439.2 688.1c-2-5-3.7-10.1-4.6-15.4a37 37 0 0 1 .7-16.2c.9-2.6 1.9-5 2.9-7.4l3-7.3c1.9-4.9 3.5-9.9 4-15.1.3 5.3-1 10.6-2.7 15.6s-3.8 9.9-5.2 14.8c-1.3 4.9-1.1 10.1-.1 15.1s2.6 10 4.7 14.7l-2.7 1.2zM489.8 674.3a105.5 105.5 0 0 0 8.1-40.5c0-4.7-.2-9.3-.5-14 1.1 4.6 1.6 9.3 1.9 14a110.6 110.6 0 0 1-2.4 28.1 93.3 93.3 0 0 1-4.3 13.6l-2.8-1.2zM542.6 671.7a51.4 51.4 0 0 0 7.1-31.9c-.5-5.6-2.6-10.9-4.5-16.2-.9-2.7-1.9-5.4-2.5-8.2-.7-2.8-1-5.7-.9-8.5.5 5.7 2.6 11 4.7 16.3 2.1 5.2 4.4 10.6 5.3 16.5a56.4 56.4 0 0 1-2.7 25.9c-1 2.8-2.3 5.4-3.9 7.9l-2.6-1.8zM622 634.4c.4-1.5.6-3 .8-4.5.1-1.5.2-3.1.1-4.7a37.5 37.5 0 0 0-1.5-9.3c-.8-3-2-5.9-3.6-8.6a80.2 80.2 0 0 0-5.5-7.9 83.6 83.6 0 0 1-16.3-35.1 90.3 90.3 0 0 0 18 33.8c2 2.5 4.1 5.1 5.9 7.9a39.1 39.1 0 0 1 5.9 18.9 41.7 41.7 0 0 1-.8 10l-3-.5zM591.4 616.1c-5-2.9-9.6-6.7-13.6-11l-2.9-3.3-2.7-3.5-2.5-3.7-2.3-3.8-2-3.9-1.8-4-1.5-4.2-1.3-4.2a60.6 60.6 0 0 1-2.1-17.4c1.1 5.7 2.5 11.3 4.3 16.7l1.5 4 1.7 3.9 1.8 3.9 2 3.8 2.1 3.7 2.3 3.6 2.5 3.5 2.6 3.4a127 127 0 0 0 11.9 12.5zM474 621.8c.9 4 1 8.2.7 12.3-.1 2.1-.5 4.1-.8 6.2-.4 2-.9 4.1-1.6 6-1.3 4-3 7.7-4.3 11.4a33.4 33.4 0 0 0-2.3 11.7c-1.3-4-.9-8.4.1-12.4 1-4.1 2.5-7.9 3.7-11.7l1.7-5.7a102.1 102.1 0 0 0 2.8-17.8zM422.2 637.3a70 70 0 0 1-3.3-22.9c.2-2.6.6-5.2 1.3-7.8a46.6 46.6 0 0 1 7.2-13.8c2.9-4.2 5.9-8.2 7.8-13-.7 5.1-3.3 9.9-5.9 14.3a45.7 45.7 0 0 0-8.1 28.2c.2 4.9.6 9.9 1 15zM368.9 627.3c-.8-4.9-1.2-9.9-1.4-14.8-.1-2.5 0-5 .1-7.5s.4-5 .8-7.5 1-5 1.7-7.4c.8-2.4 1.6-4.8 2.7-7.1 2.2-4.6 5.2-8.8 9-12a57 57 0 0 0-9 19.8 81.2 81.2 0 0 0-2.4 14.3c-.3 2.4-.4 4.9-.6 7.3-.2 5-.4 9.9-.9 14.9zM507.5 598.2c2.2.6 4.3 1.7 6.2 3.2 1.8 1.5 3.4 3.3 4.8 5.2 2.7 3.9 4.3 8.4 5.3 13s1.3 9.1 1.7 13.7c.4 4.5.8 9 1.7 13.5-2.1-4.1-3.2-8.7-4-13.2s-1.4-9-2.3-13.4a46.4 46.4 0 0 0-4.3-12.4 26.1 26.1 0 0 0-9.1-9.6zM607.5 522c7.4 2.4 14.9 4.5 22.3 7 3.7 1.3 7.3 2.7 10.9 4.4l2.7 1.3 2.6 1.5 1.3.8 1.2.9 2.4 1.8A73.2 73.2 0 0 1 672 568a39 39 0 0 1 2.6 11.8l-3 .1c-.1-3.6-1-7.4-2.3-10.9a64.8 64.8 0 0 0-39.9-38.6c-7.3-2.9-14.8-5.3-21.9-8.4zM627.1 564.8c2.5 3.7 5.6 6.7 8.9 9.6l5 4.4c1.7 1.5 3.3 3.1 4.8 4.8s2.9 3.6 4 5.7 1.9 4.3 2.2 6.7c.1 1.2.2 2.3.1 3.5-.1 1.2-.3 2.3-.6 3.5-.4 1.1-.8 2.2-1.5 3.2-.6 1-1.4 1.8-2.3 2.5 2.6-3.7 2.9-8.2 1.9-12.2-1-4.1-3.4-7.6-6.2-10.8s-6.1-6.1-9.2-9.4a38 38 0 0 1-7.1-11.5zM523.4 451.8c.9 4.2.8 8.5.6 12.7l-.4 6.2c-.1 2.1-.2 4.1 0 6.1a50.4 50.4 0 0 0 7 23.4 34.6 34.6 0 0 1-10-23.2c-.2-4.4.4-8.6 1.1-12.7.6-4.3 1.4-8.3 1.7-12.5zM561 486.6l5 11.2 1.3 2.8 1.3 2.7 1.3 2.7 1.4 2.7 5.6 10.8 5.9 10.7a77 77 0 0 1-14.2-20.2l-2.6-5.6-2.2-5.8a61.5 61.5 0 0 1-2.8-12zM504.8 513.5a89 89 0 0 0 4.6 25.3c1 2.7 2 5.3 3.4 7.6.7 1.2 1.5 2.2 2.4 3.2s2 1.8 3.1 2.8a37.4 37.4 0 0 1 13.8 22.1 44.5 44.5 0 0 0-9.2-14.3l-3.1-2.9-3.4-2.6c-1.2-.9-2.3-1.8-3.4-2.9a20.6 20.6 0 0 1-2.9-3.7 46.3 46.3 0 0 1-5.6-16.9c-.7-6-.7-12 .3-17.7zM474.1 531.8c1.7 1.3 3.1 3.3 3.9 5.4a19 19 0 0 1 1.2 6.7c.1 4.5-1.1 9-2.7 13.1s-3.6 7.9-5 11.9c-1.5 4-2.5 8.1-2.2 12.4-.8-2-1.1-4.3-1-6.5s.4-4.5 1-6.6c1.1-4.3 2.9-8.3 4.5-12.3a41 41 0 0 0 3.1-12c.4-4.2-.2-8.5-2.8-12.1zM441.3 518.1c.2 1.2.2 2.4 0 3.7-.2 1.2-.5 2.4-1 3.6a25.5 25.5 0 0 1-9.4 11.3c-2 1.5-4 2.8-6.1 4.1l-6 3.9a68 68 0 0 0-2.8 2.1l-2.5 2.3a18.9 18.9 0 0 0-5.9 12.3c-.2-1.2-.3-2.4-.2-3.7a20.7 20.7 0 0 1 2.3-7.1c.6-1.1 1.4-2.1 2.1-3.1 1.5-2 3.5-3.7 5.4-5.2 2-1.5 4-2.8 6.1-4.1l6-3.8 2.8-2 2.6-2.3c3.3-3.2 6-7.1 6.6-12zM388.1 529.9c-.7 2-2 3.9-3.5 5.5s-3.3 3-5.1 4.2c-1.8 1.3-3.6 2.3-5.4 3.5a37.5 37.5 0 0 0-13 12.9c-2.2 3.5-4.1 7.4-6.3 11.1 1-4.2 2.3-8.3 4.2-12.2 1.9-3.9 4.5-7.7 8.1-10.5 3.5-2.8 7.4-4.7 11.1-6.7a30 30 0 0 0 9.9-7.8zM342.6 505.6a65.6 65.6 0 0 0-6.1 18.5 52.1 52.1 0 0 0 .7 19.5c-1.8-2.9-3-6.2-3.5-9.6a34.4 34.4 0 0 1 2.8-20.2c1.6-3.1 3.6-6 6.1-8.2zM395.5 471.1c-3.8 3.5-7.8 6.7-11.6 10.1-3.7 3.4-7.2 7-10.1 11.1a36.8 36.8 0 0 0-6.2 13.4 29 29 0 0 0 .1 14.9 23 23 0 0 1-2.4-15.3 35.5 35.5 0 0 1 11.2-20.7 88 88 0 0 1 19-13.5zM439.5 469.9c-.4 4.1-1.1 8.2-2.6 12.2a28 28 0 0 1-2.8 5.8 22.3 22.3 0 0 1-4.3 4.9c-3.4 2.8-7.4 4.3-11 6.1-1.8.9-3.6 1.8-5.1 3a14.1 14.1 0 0 0-3.9 4.5c.3-2.1 1.4-4 2.9-5.6s3.2-2.8 5-4c3.6-2.2 7.3-3.9 10.2-6.4a27 27 0 0 0 6.9-9.3c1.7-3.5 3.1-7.4 4.7-11.2z"/>
      </g>
      <g>
        <g stroke="none" fill="#000">
          <path d="M478.7 491.7c-.5-.5-.8-1.2-.8-2 0-.7.1-1.5.3-2.2.4-1.4 1.1-2.7 1.8-3.9 1.4-2.4 3-4.7 4.6-7 1.5-2.3 3.1-4.6 4.4-6.9 1.3-2.4 2.5-4.8 2.9-7.3l.2-1.8v-2l-.4-4c-.4-2.7-1-5.3-1.7-8s-1.4-5.4-1.6-8.4c-.1-1.4-.1-2.9.3-4.4a9.7 9.7 0 0 1 2-3.9l.4.3a11 11 0 0 0-.9 7.8 28 28 0 0 0 1 3.9l1.3 4a58 58 0 0 1 2.6 12.5v2.2a24.4 24.4 0 0 1-3.7 10.4 67.2 67.2 0 0 1-5 6.9c-1.7 2.2-3.6 4.3-5.2 6.5-.8 1.1-1.6 2.2-2.2 3.4-.5 1.3-1 2.7-.3 3.9zM435.4 415.4l.9 2.8.4 1.4.3 1.4.4 2.9.2 2.9a51 51 0 0 1-1.1 11.7l-.7 2.9-.8 2.8a52 52 0 0 1-8.1 15.6l-.4-.2a154.8 154.8 0 0 0 6.4-18.8l.7-2.7.6-2.8.5-2.8.4-2.8.3-2.8c.4-3.8.2-7.5 0-11.5zM499.4 414.7a48.8 48.8 0 0 0 6.9-21.4c.2-2.5.1-4.9-.2-7.4l-1.2-7.5c-.4-2.5-.9-5.1-1.2-7.7s-.5-5.2-.3-7.9c.2-2.6.8-5.2 2-7.6a35 35 0 0 0 .6 15.1l1.7 7.5c.6 2.5 1.1 5.1 1.4 7.7a35.7 35.7 0 0 1-1.7 15.8c-1.6 5-4.3 9.7-8 13.4zM466 365.9c1.4 2.3 2.2 5 2.5 7.7s0 5.5-.4 8.2-1.1 5.3-1.7 7.9c-.6 2.6-1.3 5.1-1.7 7.7a39 39 0 0 0 6.3 29.5 31.3 31.3 0 0 1-9.8-21.8c-.1-2.8.1-5.6.6-8.2 1-5.4 2.8-10.4 4.1-15.5 1.1-5.2 1.8-10.4.1-15.5z"/>
        </g>
        <g>
          <g stroke="none" fill="#000">
            <path d="M363.5 462.5a38.6 38.6 0 0 1-23.4 26.1c-5.7 2.2-11.9 3.2-18 3.2s-12.2-1-18.2-2.4l.8-2.9a73.8 73.8 0 0 0 17.4 3c5.9.3 11.8-.4 17.4-2.3a37.8 37.8 0 0 0 24-24.7zM131.3 401.7a31.5 31.5 0 0 0-13.3 12c-1.1 1.7-2 3.5-3 5.3s-2.1 3.6-3.7 5.3c-1.6 1.6-3.5 2.9-5.7 3.5s-4.6.7-6.8-.4c-1.1-.5-2-1.4-2.6-2.3-.6-1-.9-2.1-.9-3.1l.4-.1c.4.9.9 1.8 1.6 2.4.7.6 1.4 1.1 2.3 1.4a8 8 0 0 0 5.3-.2c1.7-.6 3.4-1.5 4.7-2.8s2.4-3 3.5-4.7a48 48 0 0 1 7.4-10c3.1-3.1 6.8-5.2 10.8-6.3zM130.3 384.4a112.3 112.3 0 0 0 30.1-22.8c4.4-4.5 8.4-9.4 12.8-14.1 4.3-4.7 9.1-9.1 14.7-12.2l.2.3a80.3 80.3 0 0 0-13.7 13l-6.2 7.2-6.4 7.1-3.4 3.4-3.5 3.2-3.7 3-3.9 2.8c-5.3 3.9-11 6.9-17 9.1zM276.5 241.1a13.6 13.6 0 0 0-8.3-4.4c-3.2-.6-6.4-.7-9.7-.9-3.3-.2-6.7-.5-9.9-2.2-1.6-.8-3.1-2-4.2-3.5s-1.9-3.1-2.4-4.8l2.9-.8a11 11 0 0 0 4.8 7c2.6 1.5 5.8 2.1 9 2.6 3.2.4 6.5.7 9.8 1.6a15.4 15.4 0 0 1 8.3 5.2l-.3.2zM307.1 367.7a91 91 0 0 0-11.4 18.6 53.7 53.7 0 0 0-4.5 21.2c-.8-3.6-.9-7.4-.4-11.2a44.4 44.4 0 0 1 16.3-28.6zM116.5 403.8c-1.8 1-3.6 1.8-5.4 2.6l-5.2 2.5c-1.7.9-3.3 1.8-4.6 3a8.4 8.4 0 0 0-2.9 4.7l-.2-1.5.1-.8.1-.8.6-1.5.4-.7.5-.6c1.3-1.7 3.1-2.9 4.9-3.9a30 30 0 0 1 11.7-3zM345.1 210.1c4.1-1.5 8.8-1.7 13.2-.6a23 23 0 0 1 6.3 2.5l5.6 3.4c1.8 1.1 3.7 2 5.7 2.4 2 .5 4.1.6 6.2.7l6.6.2c2.2.2 4.4.5 6.5 1.3-4.4-.6-8.6.2-13 .4-2.2.1-4.5.1-6.8-.4s-4.5-1.5-6.4-2.6l-5.5-3.5c-1.8-1.1-3.7-2-5.7-2.7-4-1.2-8.3-1.6-12.7-1.1zM333 254.1c2.6-.6 5.3-.5 8 0 2.7.6 5.2 1.6 7.5 3.1s4.2 3.5 6 5.4 3.4 3.8 5.4 5.6c-2.6-.8-4.8-2.5-6.8-4.2-2-1.7-3.9-3.4-6-4.7a35 35 0 0 0-14.1-5.2zM363.1 243.8a48.3 48.3 0 0 0-26.6-8c-3.1.1-6.3.4-9.3 1.6 1.3-.9 2.9-1.5 4.4-2l4.8-.9a39.4 39.4 0 0 1 19.1 2.8c3.1 1.1 6 2.6 8.8 4.2l-1.2 2.3zM308.3 226.4a37.7 37.7 0 0 0-15.9-4c-1.8-.2-3.7-.4-5.6-.8a28.2 28.2 0 0 1 11.5-.9c1.9.3 3.9.9 5.6 1.9 1.7.9 3.3 2.2 4.4 3.8z"/>
          </g>
          <g>
            <g stroke="none" fill="#000">
              <path d="M276.3 269a21.4 21.4 0 0 0-8.6-1.5c-2.9 0-5.8.6-8.7 1.2-5.7 1.3-11.5 3.1-17.6 3.6-1.5.1-3.1.1-4.6-.1-1.6-.1-3.1-.5-4.6-.9-2.9-.9-5.7-2.1-8.4-2.8-2.7-.7-5.6-1.1-8.3-.3-2.6.9-5 3-5.4 5.9h-.4c0-1.5.6-3.1 1.5-4.3 1-1.3 2.3-2.2 3.7-2.9 3-1.3 6.3-1.1 9.3-.4 3 .6 5.8 1.8 8.6 2.5a20.7 20.7 0 0 0 8.5.8c5.8-.4 11.5-2 17.4-3 3-.5 6-.8 9.1-.5 3 .2 6 1 8.5 2.7zM261.3 343.1l4-5.1a97 97 0 0 0 6.8-10.8l3.2-5.6.4.1a32.7 32.7 0 0 1-8.9 17.5 23 23 0 0 1-5.5 3.9zM292.7 295.4c-6.2-4-13.1-7.1-20.3-7.4-3.6-.2-7.2.2-10.7.9-3.6.7-7.1 1.7-10.6 2.8l-10.6 3.2-5.4 1.5a35.7 35.7 0 0 1-16.8.5 27 27 0 0 1-9.8-5.5l.2-.3a28 28 0 0 0 9.9 4.6c3.5.8 7.1.7 10.7 0 7.1-1.5 14-4.3 21.1-6.3 3.6-1.1 7.2-2 10.9-2.7a35.7 35.7 0 0 1 22.2 2.7c1.7.8 3.3 1.8 4.9 2.8 1.4.8 2.9 2 4.3 3.2z"/>
              <path d="M282.5 305.8c-3.8-.5-7.5-1.4-11.2-2.5-1.8-.6-3.7-1.2-5.5-2-1.8-.7-3.5-1.6-5.3-2.6l1.4-2.1a46.6 46.6 0 0 0 9.8 5.5c3.5 1.5 7.1 2.7 10.8 3.7z"/>
            </g>
            <path fill="#F2F2F2" stroke-linejoin="round" d="M243.6 295.3c6-1.5 12.9-1.6 17.6 2.3 1.2 1 5 7.2 1.8 17.6a19 19 0 0 1-7.2 10.3 32 32 0 0 1-20.3 4.4c-6.3-1.3-10.6-3.6-11.2-9.3-1.1-9.3 14.5-24 19.3-25.3z"/>
            <g stroke="none" fill="#000">
              <path d="M247.3 295.1h-.1c-1.5.5-3 1-4.6 1.1l-2-.1-2.3 1.3-1 .5-1.4 1.4c-1.8 1.9-4.9 5-6 7.8a16 16 0 0 0 11.3 13.3c1.9.6 3.7-1.1 3.4-3a39 39 0 0 1 2.7-22.3z"/>
              <path d="M197 328.5a81.6 81.6 0 0 0 28.7-19.1l1.8-1.7.9-.9.4-.4.2-.2.1-.1.1-.1.1-.1.1-.1h.1c.1-.8 2.6.8 1.9 1.2l-2.5-.2c-.7.4 1.8 2 1.9 1.2h.1c.1-.1 0 0 0 0l-.1.1-.2.2-.4.4-.9.9-1.8 1.7-3.8 3.3a81.3 81.3 0 0 1-17 10.8 57.5 57.5 0 0 1-9.7 3.1z"/>
            </g>
          </g>
          <g stroke="none" fill="#000">
            <path d="M123.7 418.8c-1.1 2.3-1.8 4.8-2.6 7.2-.7 2.5-1.6 5.1-3.4 7.3-.9 1.1-1.9 2.1-3.1 2.9l-1.8 1c-.7.3-1.4.6-2.1.7-2.9.4-5.4-.3-7.9-1 2.6-.9 5.3-.8 7.5-1.4l1.5-.5c.5-.3 1.1-.5 1.5-.9 1-.6 1.9-1.4 2.6-2.3 1.6-1.8 2.6-4 3.7-6.4 1.2-2.3 2.4-4.7 4.1-6.6z"/>
          </g>
          <path class="tertiary" stroke-linejoin="round" d="M249.6 441.8c-.6-6.5-6.8-14.6-6.8-14.6-7.3-1.2-37.4 1.7-63.3 19.9-13.7 9.6-25.9 21-41.9 27s-24.1 3.5-40.8 6.3c-3.9.7-7.9 1.9-10.9 4.5s-4.7 9.2-3.6 13c4.1 13.7 28 12.6 38.8 10.7 11.9-2.1 11.9-2.8 21.2-7.9a155 155 0 0 0 25.8-18.5c9.2-7.6 21.6-20 36.9-27.6 21-10.6 35.6-13.2 44.6-12.8z"/>
          <g stroke="none" fill="#000">
            <path d="M183.3 533.5c1.3-1.6 2.3-3.4 3.2-5.3.9-1.9 1.7-3.9 2.7-5.8-.6 2-1 4.1-1.5 6.2-.5 2.1-1.2 4.2-2.3 6.2l-2.1-1.3zM158.8 529.2c.3-.2.6-.8.8-1.5a16 16 0 0 0 .7-4.3c0-.7 0-1.5-.3-2.2.4.6.7 1.4.9 2.1.2.7.4 1.5.4 2.3l.1 2.4c-.1.8-.1 1.7-.7 2.7l-1.9-1.5z"/>
          </g>
        </g>
        <g stroke="none" fill="#000">
          <path d="M523.9 313.5c.4-2.3 1.2-4.5 2.4-6.5s2.7-3.7 4.4-5.2c.8-.7 1.6-1.5 2.6-2.2l2.9-1.6c2-1 4-1.7 5.8-2.9-.7.8-1.6 1.6-2.5 2.2l-2.7 1.8-2.6 1.8a24.4 24.4 0 0 0-5.7 7.3c-.9 1.8-1.5 3.7-1.7 5.7l-2.9-.4z"/>
        </g>
        <g>
          <path class="secondary" d="M574 184.9a36.1 36.1 0 0 1 27.7-19.5c8-1.4 16.7-2.3 23.8 1.5 8.8-9.5 32.1-14 42.6-6.4 7.5-12.7 29.6-11.6 39.6-11.5a49.2 49.2 0 0 1 25.4-23.2c3.5-1.4 9.3 4.2 9 8s-2.8 7-3.4 10.8c-.5 2.9.2 5.8.3 8.7a50 50 0 0 1-7.4 23.7 69.7 69.7 0 0 1-11.4 17.7c-11.4 11.7-29.2 14-45.5 14.2a15 15 0 0 0-6.7 1.1c-1.3.7-2.3 1.7-3.4 2.8a71.2 71.2 0 0 1-23.5 15.1"/>
          <g stroke="none" fill="#000">
            <path d="M626.6 165.9a44.2 44.2 0 0 1 6.3 11.4c.4 1.4.5 2.9.2 4.4a35.2 35.2 0 0 0-3.7-7.4l-2.5-3.3-2.7-3.2 2.4-1.9z"/>
          </g>
          <path class="secondary" stroke-linejoin="round" d="M738.2 371.5c1-4 1.8-8.2.8-12.2a51.1 51.1 0 0 0-2.3-47.6 33.1 33.1 0 0 0 3-16c-.5-3-1.8-5.9-3.1-8.7-3-6.5-6.7-13-12.6-17.2.5-7.8-2.7-15.5-7.6-21.5a65.2 65.2 0 0 0-18.3-14.6c.4-4.4-1.2-8.7-3.7-12.4a58.2 58.2 0 0 0-8.9-9.7c-6.1-5.7-16.5-10.9-23.7-15.1-3.7-2.2-7.7-10.2-11.2-12.8-11.2-8.2-25.2-9.9-38.9-11.7-5.2-.7-3.7-7.3-24.8-11.9-4.1-.9-12.7-.8-16.9 0-4.8.8-7.4 2.4-12 3.8a47.3 47.3 0 0 0-52 5.6 27 27 0 0 0-10.8-2.4c-3.5 0-7 .9-10.4 1.7-7.9 2-15.9 4.1-22.4 9.1a63.7 63.7 0 0 0-10.6 11.4c-3.6 1-7.5 1.6-11.1 2.5-2.9.8-5.8 1.6-8.5 2.9-15.8 7.2-22.4 16.8-26.3 21.1a20.2 20.2 0 0 1-11 6.7c-20.7 3.9-31 17.6-31.3 20.4 0 0 14.4-1.1 30.6 7.6a224.5 224.5 0 0 1 32.8 23.4c.8 4 2.9 8.3 4.1 12.2 2.3 7.7-2.9 8.8 2.6 14.6 2.8 3 8.2 5.7 11.6 7.9 8.9 5.8 3.4 21.4 13.5 24.6 10.1 3.2 6.2 1.5 15.5-3.7 2.3-1.3 4.4-2.9 6.9-3.6 9.7-2.9 14.1-.9 22.2-7.7 7.1-5.9 12.3-11.5 14.4-21 .2-1.1.5-2.3 1.4-2.9.6-.4 1.3-.4 2-.5 2.3-.1 4.5 1.4 6.8 1.2a17 17 0 0 0-3.7 6.4c-4 10.1-8.2 21.3-4.7 31.6a43.6 43.6 0 0 0-7 24.8c.1 3.8 1.2 7.1.8 10.8 0 0-.6 4.8-.2 7.5.8 5.9 1 10.6 3.3 16s6.2 10.7 11.2 13.9c-2.7 2.5-1.5 7 .3 10.2 5.2 9.6 13 17.7 22.4 23.2 2.5 8 8.8 14.3 16.1 18.5s16 4.6 23.3 8.6a56.8 56.8 0 0 0 41.8 4.9c3.5-1 6.9-2.3 9.4-4.9 7.3 3.1 15.7 1.2 23.2-1.2 5-1.6 10-3.4 14.5-6.3s8.5-6.5 10.4-11.4a65.7 65.7 0 0 0 30.6-43.8 33 33 0 0 0 12.1-14.3c3.2-5.7 4.8-11.9 6.4-18zm-106.5 7.3c-.7.9-1.5 1.9-2.7 2.1-.9.1-1.7-.2-2.5-.5l-25.1-10.6a50.6 50.6 0 0 0-5.9-23.2c11.5-6.4 18.7-19.6 22.9-32.1.9-2.6 1.9-2.8 2.8-5.4 6.8 6 14.3 11 24.7 16.6.2 12 2.7 23.9 7.4 34.9a58.4 58.4 0 0 0-21.6 18.2z"/>
          <path fill="none" stroke-linejoin="round" d="M621.2 309c-3.4-2.2-10.9-8.1-18.2-15.1a45.5 45.5 0 0 1-37.6-7.9c.2.6-.6 1.4-1.2 1.7-5.3 3.2-10.7 6.5-16.6 8.2a23.4 23.4 0 0 1-18-1.3"/>
          <g stroke="none" fill="#000">
            <path d="M578.4 328.1a63.6 63.6 0 0 0-6.3 30.6c.3 5.2 1.2 10.5 3.1 15.4a43.2 43.2 0 0 0 20.4 22.9 70 70 0 0 0 14.5 5.9 52.7 52.7 0 0 0 56.2-17.3 57 57 0 0 0 12.4-28.2 81 81 0 0 0-2-31c-1.3-5.1-3-10-5.1-14.7a72.5 72.5 0 0 0-7.9-13.4c-6.2-8.4-13.8-15.6-22.1-22a155.5 155.5 0 0 0-41-22.7c-4.9-1.8-9.9-3-15.1-3.9a155.6 155.6 0 0 0-31.2-2.3 140.8 140.8 0 0 0-60.3 15.4 90 90 0 0 0-24.8 19c-7.2 7.7-13 16.6-18.2 25.7 4.7-9.4 10.4-18.5 17.3-26.5a90 90 0 0 1 24.7-19.9c9.3-5.1 19.4-8.7 29.6-11.7 10.2-3.1 20.9-4.4 31.5-4.7s21.3.4 31.8 2.2a94 94 0 0 1 30.2 10.4c9.5 4.7 18.6 10.3 27.1 16.9 8.4 6.5 16.2 14 22.5 22.6a74.2 74.2 0 0 1 13.1 29.1 85.1 85.1 0 0 1 1.6 31.8c-1.7 10.6-6.2 20.7-13 29a53.7 53.7 0 0 1-57.8 17.5 65.5 65.5 0 0 1-14.7-6.2 43.8 43.8 0 0 1-20.5-23.6 52 52 0 0 1-3-15.6 64.7 64.7 0 0 1 7-30.7zM607.5 196.7c1.2-1.8 1.6-3.9 2.1-5.9s.7-4.1.9-6.2l.3-6.3-.1-3.1-.1-1.5-.1-.7-.1-.5 2.8-1 .2 1 .1.9v1.7l-.2 3.3a72.5 72.5 0 0 1-2.5 12.8l-.6 1.5-.7 1.5c-.4.9-1.1 1.8-2 2.5zM557.8 187.7l1.3-6c.4-2 .5-4 .5-6a22 22 0 0 0-2.8-11.2l2.7-1.4c1 2 1.7 4.1 2 6.2a27.6 27.6 0 0 1-3.7 18.4zM512.1 190.1a27.2 27.2 0 0 0-.8-11.1c-.6-1.7-1.4-3.4-2.4-4.8s-2.2-2.7-3.6-3.6l1.6-2.5c1.8 1.2 3.2 2.9 4.2 4.7 1 1.8 1.8 3.7 2.2 5.7s.6 4 .4 6c-.1 1.9-.6 3.9-1.6 5.6zM458.6 206.4a65.7 65.7 0 0 0-2.1-9.1 25.2 25.2 0 0 0-4.8-7.6l2.3-2a23.6 23.6 0 0 1 4.6 8.9c.4 1.6.7 3.3.7 4.9 0 1.7-.2 3.4-.7 4.9zM661.8 196.9a19.8 19.8 0 0 1-4.1 10 22.8 22.8 0 0 1-3.8 3.8 14 14 0 0 1-4.7 2.4c1.4-1.1 2.6-2.2 3.8-3.4s2.2-2.5 3-3.9 1.5-2.9 2-4.4.8-3.1.9-4.7l2.9.2zM700.2 232.8c-1.5 1.6-3 3.2-4.7 4.7a64.9 64.9 0 0 1-10.6 7.7c-1.9 1.1-3.9 2-5.9 2.7l5.2-3.9 5-4a95.6 95.6 0 0 0 8.8-9.1l2.2 1.9zM727.4 270.4a36.4 36.4 0 0 1-4.8 3.2 36 36 0 0 1-5.2 2.6 35.4 35.4 0 0 1-11 3.1c3.4-1.7 6.9-3.1 10.1-5 1.6-.9 3.2-1.9 4.7-3l4.4-3.3 1.8 2.4zM737.9 312.4a22.6 22.6 0 0 1-13.5 4.9c-1.6.1-3.2-.1-4.7-.5 3.1-.6 6-1 8.8-2.2 1.4-.6 2.7-1.2 3.9-2 1.2-.8 2.4-1.6 3.5-2.6l2 2.4zM740.2 359.5a27.6 27.6 0 0 1-7.9 1.9c-2.7.2-5.4.1-7.9-1 2.6-.4 5.1-.4 7.6-1.1 1.2-.3 2.4-.6 3.5-1.1 1.1-.4 2.3-.9 3.3-1.5l1.4 2.8zM719.6 405.7c-1.8 0-3.6 0-5.4-.2-1.8-.2-3.6-.4-5.3-.8-3.5-.7-7-1.6-10.2-3.3 3.6.3 7 1.1 10.5 1.3l5.2.2 5.2-.1v2.9zM691.6 447.4a31 31 0 0 1-10-2.9 25.7 25.7 0 0 1-8.5-5.6c3.2 1.3 6.1 2.8 9.3 3.7 1.6.5 3.1.9 4.7 1.2l4.8.7-.3 2.9zM641.1 468a20.6 20.6 0 0 1-8-4.9 16.4 16.4 0 0 1-2.8-3.7 10 10 0 0 1-1.2-4.4c.7 1.3 1.5 2.6 2.4 3.7a16.4 16.4 0 0 0 6.6 5c1.3.6 2.6 1.1 3.9 1.4l-.9 2.9zM589.6 468.8a15.7 15.7 0 0 1-3.5-3.8c-1-1.4-1.8-3-2.3-4.6s-.9-3.3-1-4.9c-.1-1.7.1-3.4.6-4.9.2 1.6.4 3.2.8 4.7a19.2 19.2 0 0 0 7.3 11.1l-1.9 2.4zM549.5 439.9c-.5-1.8-.7-3.7-.6-5.5a33.5 33.5 0 0 1 2.5-10.4c.7-1.6 1.4-3.2 2.3-4.7-.4 3.5-1.5 6.8-1.9 10.1-.2 1.7-.3 3.3-.2 4.9s.4 3.2.9 4.7l-3 .9zM527.1 405.3a21.8 21.8 0 0 1 8.4-14.5c1.5-1.1 3.2-2 5-2.5a27.7 27.7 0 0 0-9.4 12.4c-.5 1.6-.9 3.3-1 5l-3-.4z"/>
            <path d="M512.6 368.4c.2-2 .9-4 1.7-5.7a23.4 23.4 0 0 1 12.7-11.3c-1.5 1.2-2.9 2.3-4.2 3.6-1.3 1.2-2.5 2.6-3.5 4.1s-1.9 3-2.5 4.6-1 3.3-1.2 5l-3-.3zM669.8 159.5a33.9 33.9 0 0 1 3 8c.5 2.8.9 5.6.2 8.4-.8-2.7-1.2-5.3-2.2-7.8-.5-1.2-1-2.5-1.6-3.6l-2-3.4 2.6-1.6zM709 148.4l1.7 3.9a48 48 0 0 1 3 8.2c.3 1.4.5 3 .2 4.4l-1.6-4c-.5-1.3-1.2-2.5-1.9-3.8l-2.1-3.7-2.1-3.8 2.8-1.2zM402.7 267.6c-2 .4-4 .8-6 1.4a57.7 57.7 0 0 0-11.3 5.2 36.8 36.8 0 0 0-5.1 3.7l-.2-.2a61.8 61.8 0 0 1 15.9-10.9c2-.9 4.1-1.6 6.2-2.2l.5 3z"/>
          </g>
          <path d="M428.8 348.4c7.3 3.2 25.6 9.3 47.6 7.7 19-1.9 44.2-4 65.8-13.3 25.1 2.2 45.4-13.6 44.7-22.3-2.7-11.4-30.2-17.4-39.5-20.7-37.1-13.6-49.6-24.8-69.9-31-26.6-8-59.9-7.2-75-2.7"/>
          <g stroke="none" fill="#000">
            <path d="M469 357.9c-21.5 0-37.6-6.6-40.9-8.1l1.2-2.7c3.5 1.6 22.4 9.3 46.9 7.5l3.3-.3c18.7-1.8 41.9-4.1 62-12.9l.7-.1a51 51 0 0 0 38.6-12.5c3-3 4.6-5.9 4.5-8.1-2.2-8.5-20.9-14.1-32.1-17.5l-6.4-2a340 340 0 0 1-43.2-19.3c-9.6-4.9-17.2-8.8-26.6-11.7-25.5-7.7-58.4-7.4-74.2-2.7l-.9-2.9c16.2-4.8 49.8-5.2 75.9 2.7 9.7 2.9 17.8 7.1 27.1 11.9 10.4 5.3 23.3 12 42.9 19.1l6.3 2c12.7 3.8 31.8 9.5 34.2 19.8v.2c.2 3.1-1.7 6.9-5.4 10.5a54 54 0 0 1-40.6 13.3c-20.5 8.8-43.8 11.1-62.6 12.9l-3.3.3c-2.5.5-5 .6-7.4.6z"/>
            <path d="M396.1 332.4c3 .4 6 1.3 8.9 2.4s5.6 2.5 8.3 3.9l8 4.4c2.7 1.5 5.3 2.9 8 4l-1.2 2.8c-2.9-1.4-5.5-3.1-8-4.7l-7.7-5c-2.6-1.6-5.2-3.1-7.9-4.4s-5.6-2.4-8.5-3l.1-.4zM405.4 284.5a122 122 0 0 1 41.4-8.6l5.4.2 2.7.4 2.7.4a310 310 0 0 1 20.5 5.6c3.4 1.1 6.7 2.5 9.9 4 3.2 1.6 6.3 3.4 9.3 5.1a135.5 135.5 0 0 0 28.9 12.3c6.7 2.2 13.4 4 20.3 5.8 6.8 1.9 13.6 3.9 20 6.9l-.2.4c-3.3-1.3-6.6-2.4-10-3.3l-10.2-2.5c-6.9-1.6-13.8-3.2-20.5-5.3a170.2 170.2 0 0 1-20-7.2c-3.3-1.4-6.4-3.1-9.5-4.8-3.1-1.7-6.1-3.5-9.2-5-6.2-3.1-12.9-5.2-19.6-7.1l-10.2-2.7c-.8-.3-1.7-.3-2.5-.5l-2.6-.4-5.2-.4c-7-.2-14 .5-20.9 1.8a185 185 0 0 0-20.5 4.9zM464 298.1a30.4 30.4 0 0 1-11.8 12.3 25.5 25.5 0 0 1-11.1 3.2 30.3 30.3 0 0 1-16.7-3.7l.2-.4c3.6 1 7.2 1.6 10.9 1.8 3.6.1 7.2-.2 10.7-1.2 3.5-.9 6.7-2.5 9.7-4.6a56 56 0 0 0 8.1-7.4zM423 332.5a67.3 67.3 0 0 0 23.6 7.2 170.5 170.5 0 0 0 24.7 1.2 256.9 256.9 0 0 0 37-3.8c4.1-.6 8.2-1.4 12.2-2.2l.1.4a186.2 186.2 0 0 1-49.2 8.1 116 116 0 0 1-25-1.8 61.8 61.8 0 0 1-23.4-9.1zM281.6 248.5c2.3 1.2 4.4 2.7 6.5 4s4.2 2.5 6.4 3.4a22 22 0 0 0 6.8 1.7c2.3.2 4.7 0 7.1-1a10.4 10.4 0 0 1-7.1 3.4c-2.7.2-5.5-.3-8-1.3a25 25 0 0 1-6.6-4.3c-2-1.8-3.6-3.8-5.1-5.9zM314.4 270.5c2.9 2.7 5.6 5.7 8.4 8.3 2.8 2.7 5.8 5.1 9.1 6.8 3.3 1.7 6.9 2.7 10.7 2.7 3.8.1 7.7-.5 11.6-1.3a28.7 28.7 0 0 1-11.5 3.6c-4.1.4-8.5-.4-12.2-2.4l-1.4-.8-1.3-.9-1.3-.9-1.2-1-2.2-2.1c-.8-.7-1.4-1.5-2-2.3a55.7 55.7 0 0 1-6.7-9.7zM362.4 302a27.9 27.9 0 0 0 7.4 13 32.4 32.4 0 0 0 12.6 8.2c-2.7.3-5.5-.3-8-1.4s-4.8-2.7-6.8-4.7c-1.9-2-3.5-4.4-4.5-7a15 15 0 0 1-.7-8.1zM386.4 340a22 22 0 0 0 0 15.6 22.8 22.8 0 0 0 6.4 9.6c1 .9 1.9 1.6 3.1 2.4l3.4 2.5 1.6 1.6 1.4 1.9c1.5 2.8 1.8 6 1.3 8.8-1 5.7-3.6 10.5-4.1 16-.4-2.8 0-5.6.5-8.3.5-2.7 1.1-5.4 1.3-8s-.1-5.1-1.4-7.1c-1.2-2-3.4-3.4-5.7-5a23.3 23.3 0 0 1-10.7-22.3 20 20 0 0 1 2.9-7.7zM393.1 413.5c-1 4 0 7.8-.1 12 0 2.1-.4 4.4-1.4 6.4s-2.5 3.7-4.1 5.1c-3.2 2.8-6.8 4.7-10.1 6.9a19.7 19.7 0 0 0-4.4 3.7 9.8 9.8 0 0 0-2.5 5.2c-.3-2 .2-4.2 1.4-6 1.1-1.8 2.6-3.3 4.2-4.7 3.2-2.7 6.6-4.8 9.5-7.3 1.5-1.2 2.7-2.6 3.6-4.1s1.3-3.3 1.6-5.2l.6-6c.1-2.1.6-4.2 1.7-6z"/>
          </g>
        </g>
      </g>
    </g>
  </g>
</svg>
