<svg xmlns="http://www.w3.org/2000/svg" fill="#d7374a" stroke="#000" viewBox="50 50 200 200">
  <metadata source="http://wappenwiki.org/images/a/a7/Faroe_Islands.svg" license="https://creativecommons.org/licenses/by-nc-sa/3.0"/>
  <g id="ramPassant" stroke-width="3" transform="translate(49 46.5) scale(0.13)">
    <g>
      <path class="secondary" d="M373.6 175.9c4.6-2.9 9.8-2.9 14.8-.8 3.3 1.3 6.7 3 8.5 6.1 5.5-1.5 18.3 2.5 19.9 8.8 5.1-.2 10.3 1.1 14.8 3.6a22 22 0 0 1 14.8-2.7c1.6.3 2.5 3.7 1.5 5-1 1.3-2.7 2-3.8 3.2-.8 1-1.3 2.2-1.9 3.3-1.8 3.2-5.1 5.2-8.2 7.1-2.7 1.6-5.4 3.2-8.4 3.9-6.9 1.7-14.1-1.6-20.2-5.3-.9-.5-1.8-1.1-2.8-1.1l-1.9.2c-4 .9-8.2.9-12.2.2"/>
      <path class="secondary" stroke-linejoin="round" d="M388.2 238.3c.6-1.7 1.1-3.5.8-5.3 3.6-6.3 4-14.3.7-20.8 1-2.2 2.1-4.5 1.9-6.9-.1-1.3-.6-2.6-1-3.9-1.1-3-2.4-5.9-4.8-8 .5-3.4-.6-6.8-2.5-9.7-1.9-2.8-4.7-5-7.4-7.1.3-1.9-.2-3.9-1.1-5.5-.9-1.7-2.2-3.1-3.5-4.5-2.5-2.7-6.8-5.4-9.8-7.5-1.5-1.1-3-4.7-4.4-6-4.6-4-8.6-5.6-14.6-6.1-4.9-.4-6-4.2-12.3-6.5-1.7-.6-5.5-.8-7.4-.6-2.1.2-3.3.8-5.4 1.2a21 21 0 0 0-22.9.5c-1.5-.8-3-1.3-4.6-1.4a18 18 0 0 0-4.6.4c-3.5.6-7.1 1.2-10.1 3.1a24.2 24.2 0 0 0-5 4.6l-4.9.7c-1.3.2-2.6.5-3.8.9-2.3.9-4.3 2.7-6.6 3.7-.9.4-1.9.6-2.7 1.1-2.5 1.3-5.1 4-6.9 5.7-1.5 1.3-7.2-.2-8.7 1.1-.9.8 4.6 3.3 4.3 4.5-.8 4.1-1.2 8.4-.7 12.5l.9 5.1 1.1 5.3a23 23 0 0 0 3.7 9.8 50 50 0 0 0 15.6 11.1c4.3 1.8 4.8 11.1 9.1 9.2 1-.5 6.5-9.8 7.6-10.1 4.3-.9 6.2.1 10-2.5 3.3-2.3 5.8-4.6 7.1-8.6.1-.5.3-1 .7-1.2l.9-.1c1 0 1.9.8 2.9.8-.9.7-1.4 1.7-1.8 2.7-2.1 4.3-4.3 9-3.2 13.6-2.3 3-3.7 6.8-4 10.6-.1 1.7.6 3.7.3 5.3-.2 1-1.1 1-1.1 2.2.1 2.6.4 5.2 1.2 7.7.8 2.5 2.3 4.9 4.4 6.5-1.3 1-.9 3-.3 4.5 1.9 4.4 5 8.2 8.9 10.9a15 15 0 0 0 6.3 8.7c3 2.1 6.8 2.6 9.9 4.6a25 25 0 0 0 18.1 3.7c1.5-.3 3.1-.7 4.3-1.8 3.1 1.6 6.8 1.1 10.2.3 2.3-.5 4.5-1.1 6.5-2.2a11 11 0 0 0 4.9-4.6 28.8 28.8 0 0 0 14.9-18 14 14 0 0 0 5.8-5.8c1.2-2.7 2.1-5.3 3.1-7.9zm-46.8-.7c-.3.4-.7.8-1.2.8-.4 0-.7-.2-1.1-.3l-10.6-5.6c.3-3.5-.3-7.1-1.7-10.3 5.3-2.4 9.6-6.7 11.9-12 .5-1.1.9-1.1 1.4-2.2 2.8 2.9 5.7 5.6 9.4 7-.4 5.2.3 10.5 1.9 15.5-3.8 1.3-7.2 4-10 7.1z"/>
      <path fill="none" stroke-linejoin="round" d="M340.1 207.9a27 27 0 0 1-8.1-8.4c-5.7.9-11.8-1-16.1-4.8.1.3-.3.6-.6.7a34.6 34.6 0 0 1-7.5 3c-2.7.5-5.6.3-7.8-1.2"/>
      <g stroke="none" fill="#000">
        <path d="M320.1 213.5a27.5 27.5 0 0 0-3.7 12.5c-.2 4.3.7 8.8 3.2 12.4 2.4 3.6 6.1 6.2 10 7.9 3.9 1.7 8.3 2.7 12.5 2 4.2-.6 8.1-2.7 11.1-5.7s5.2-6.8 6.6-10.9c1.2-4 1.2-8.4.5-12.6-.7-4.2-2.2-8.3-4.1-12.1a34.2 34.2 0 0 0-7.8-9.9 48.3 48.3 0 0 0-10.6-7.2c-7.6-4-16-6.8-24.5-7.1a65.7 65.7 0 0 0-36.6 11 45 45 0 0 0-9.1 9.4 42.2 42.2 0 0 1 19.6-17.5 76.3 76.3 0 0 1 26.2-5.8c4.6 0 9.1.8 13.4 2.1 4.3 1.3 8.5 3 12.5 5.1a50 50 0 0 1 11.1 7.7c3.3 3.1 6.2 6.7 8.2 10.9a46 46 0 0 1 4 12.9c.6 4.5.5 9.2-1 13.5a29.1 29.1 0 0 1-7.2 11.4 20.6 20.6 0 0 1-12 6c-4.6.6-9.2-.5-13.2-2.4s-7.8-4.7-10.2-8.5a20 20 0 0 1-2.9-12.9c.2-4.2 1.6-8.5 4-12.2zm19.4-55.8a21.1 21.1 0 0 0 .8-5.1V150l-.1-1.3-.1-.6v-.4l2.9-.7.1.5v1.1l-.1 1.4-.5 2.8-.9 2.7c-.6.9-1.2 1.8-2.1 2.2zm-23.3-6.2.4-2.7c.2-.9.2-1.7.2-2.5l-.2-2.4-.7-2.2 2.8-1.2c.4 1 .6 2 .6 3l-.3 3c-.2 1-.6 1.9-1 2.7-.5.9-1 1.7-1.8 2.3zm-20-.6-.1-2.5-.4-2.3c-.2-.7-.5-1.4-.9-2-.4-.6-.8-1-1.3-1.4l1.8-2.4c.8.7 1.4 1.6 1.8 2.5a8.8 8.8 0 0 1 .5 5.6c-.3 1-.7 1.9-1.4 2.5zm-23.9 5.2-.6-2.1-.6-1.9-.9-1.7-1.1-1.5 2.4-1.8a10 10 0 0 1 1.5 4.4v2.3c0 .9-.2 1.6-.7 2.3zm89.3 3.3c-.2.9-.5 1.7-1 2.4a10 10 0 0 1-3.6 3.5c-.7.4-1.5.6-2.4.5l1.5-1.7c.5-.5.9-1.1 1.2-1.7l.8-1.8.4-1.8zm15.7 17.6a13 13 0 0 1-2.3 1.8c-.8.6-1.6 1.1-2.5 1.5l-2.7 1.2c-.9.3-1.9.6-2.9.6l2.2-1.9 2.2-1.7 2-1.8 1.9-1.9zm10.3 17.5c-.8.5-1.5.9-2.3 1.2l-2.5.8-2.5.5c-.9.1-1.7.1-2.6-.1a12 12 0 0 1 2.2-1.2l2.1-1.1 2-1.2 1.9-1.3zm3.1 18.7a9.5 9.5 0 0 1-4.3 1.3h-2.2c-.7-.1-1.4-.3-2.1-.8l2-.6 1.8-.6a13 13 0 0 0 3.1-1.8zm-.9 20.7-1.9.4H386l-1.8-.4c-.6-.2-1.2-.5-1.6-1l1.7-.4 1.6-.3 1.5-.5 1.4-.6zm-11 19.5a20 20 0 0 1-2.4-.4l-2.3-.7-2.2-1c-.7-.4-1.4-.8-2-1.5.9-.1 1.6 0 2.4.1l2.3.2 2.2.1h2.2zm-13.9 17.1c-.8-.2-1.5-.4-2.3-.8l-2.1-1.1-1.9-1.4a4.5 4.5 0 0 1-1.4-1.9l2.2.7 2 .7 2 .5c.7.1 1.3.3 2 .3zm-22.9 7.1c-.7-.3-1.3-.7-1.9-1.2a7.5 7.5 0 0 1-2.5-3.6c-.2-.7-.3-1.5 0-2.2l1.2 1.5 1.3 1.2 1.5.8 1.6.6zm-22.8-1.7a9.5 9.5 0 0 1-1.5-2c-.4-.7-.6-1.5-.8-2.3-.1-.8-.2-1.6-.1-2.4.1-.8.3-1.5.9-2.1l.6 2.1.7 1.8c.3.6.6 1.1 1 1.5l1.2 1.2zm-16.7-14.5v-2.7c.1-.9.4-1.7.7-2.4.3-.8.7-1.4 1.1-2.1.4-.7.9-1.3 1.5-1.8.1.8-.1 1.6-.2 2.4l-.4 2.2c-.1.7-.2 1.4-.1 2 0 .6.1 1.3.3 1.9zm-9-15.9a8.7 8.7 0 0 1 2.7-4.7 10 10 0 0 1 2.1-1.5c.8-.4 1.6-.6 2.5-.6l-1.7 1.7a7 7 0 0 0-1.3 1.7c-.4.6-.7 1.2-.9 1.9l-.5 2zm-4.7-15.7 1.6-2a9 9 0 0 1 1.9-1.5l2.1-1.1a6 6 0 0 1 2.3-.5c-.5.7-1.1 1.2-1.6 1.7l-1.5 1.5-1.3 1.6a15 15 0 0 0-1 1.7zm109.6-48.9v1.9l-.2 2c-.1.7-.3 1.3-.6 2a4 4 0 0 1-1.3 1.6l-.1-1.9-.2-1.7-.3-1.7-.4-1.8zm20.1 9.1c0 .7-.2 1.3-.3 2l-.7 1.9-1 1.7c-.4.5-.8 1-1.5 1.3l.2-1.9.2-1.7.1-1.7V190zm14.6 3.7-.3 1.8-.5 1.9-.7 1.9a4 4 0 0 1-1.3 1.6v-3.7l-.1-1.9v-1.9z"/>
      </g>
    </g>
    <path class="secondary" stroke-linejoin="round" d="M301 680.7s0 18.2-3.3 23.1c-7.5 10.4-25.2 14.4-34.3 12.8-2.8-.5-2.2-6.4 2.3-14.2 0 0-7.2 4.9-13 3.3 3.9-7.8 16.9-19.2 22.5-33.8 2.9-3.4 6.4-5.6 11.5-5.7 5.1-.1 4.3-5.6 7.7 1.9a283 283 0 0 0 6.6 12.6zM151.2 578.8s15.4 9.8 17.7 15.2c4.7 11.9-1.4 29-7.7 35.8-1.9 2.1-6.6-1.6-10.7-9.6 0 0 .2 8.7-4.2 12.7-4.5-7.5-7-24.6-16.3-37.2a14.5 14.5 0 0 1 1.4-12.7c2.7-4.4-2.5-6.6 5.8-5.5 6.1.9 14 1.3 14 1.3zm498.9 101.9s0 18.2-3.3 23.1c-7.5 10.4-25.2 14.4-34.3 12.8-2.8-.5-2.2-6.4 2.3-14.2 0 0-7.2 4.9-13 3.3 3.9-7.8 16.9-19.2 22.5-33.8 2.9-3.4 6.4-5.6 11.5-5.7 5.1-.1 4.3-5.6 7.7 1.9a283 283 0 0 0 6.6 12.6zm-150 0s0 18.2-3.3 23.1c-7.5 10.4-25.2 14.4-34.3 12.8-2.8-.5-2.2-6.4 2.3-14.2 0 0-7.2 4.9-13 3.3 3.9-7.8 16.9-19.2 22.5-33.8 2.9-3.4 6.4-5.6 11.5-5.7 5.1-.1 4.3-5.6 7.7 1.9a283 283 0 0 0 6.6 12.6z"/>
    <g stroke-linejoin="round">
      <path d="M236.3 461.4c-11.5 7.8-32.7 10.1-43.1 8.8-18.1-2.2-42.8-6.1-49.7-.7-2.1 1.6-4.6 10.3-10.2 13.2-2.1 3.5.8 18.8-.4 30.3-.7 10-3 26.6-2.1 29 .9 8.6 10 5.6 13.2 9.1 1.4 2 1.4 2.5 1.1 5.6-.7 5.2-7 2.9-8.6 8.3-1 3.6.8 4 3.1 6.6 2.5 2.5 4.6-4 9.7-2.7 4.9 1.3 2.7 8.8 2.7 8.8s-16.6 2.2-21.3 18.5c-8.6-5.2-9.1-16.1-18.2-24.2-9.2-8.1-6.7-18.8-5-25.4 1.7-6.6 3.9-29.9 4.1-37.1.2-11.2-4.5-36.4-3.8-46.7.3-3.8 5.3-9.3 6.8-14.2 2.6-8.1 2-12.8 4.6-14.8 8-6 21.9-4.2 38.6-9.8 13.2-3.2 44.3-19 50.3-24.8m-50.8-102.5c-2.7 5.4.5 9.2-5.5 16.1-1.5 1.8-.8 2.5.4 2 11.5-2.7 12.7-15.2 16.1-16.9m-14.8-4.7c-.5-3 1.6-8.8 3.8-11.2l6.5-6.9c4.6-4.6 4.4-4.6 8.1-10 5.1-7.6 6.9-15.6 3.6-19.3a6.7 6.7 0 0 1 4.2-4.3c4.2-1.4 8.9.6 11.9 3.9a31 31 0 0 1 6 11.7c.2.6.4 1.1.2 1.7-.1.5-.5.9-.8 1.2-4.8 4.9-10.8 6.9-15.7 10.3l-1.7 1.4c-.6.8 4.4-2.4 3.9-1.5-1.3 2.7-3.3 4.9-5.1 7.3-3 4-4.8 12.5-8.6 15.8-3.8 3.3-11.8 2.1-16.3-.1zM589 500.8c-4.9 11.4-10.4 19-14.7 34.3-.5 1.8-1.5 3.5-1.6 5.4-.1 2.1.6 4.1 1 6.1.8 4.3 2.2 10.3-.9 13.5-7.7 7.8-15.2 10.9-22.4 19.3-11.9 13.9-25.6 32.7-29.6 50.6-3.3 14.8 4.5 21.5 2.6 26.3-1.3 2.4-2.5 4.3-5.7 5.4-5.5 1.9-7.2-3.6-13.4-2.6-4.1.8-7.1 4.5-7.2 6.4 0 4.1 6.1 3.1 6.8 8.9.3 2.3-4.3 4.8-4.3 4.8s-11.8-11.8-27.6-5.7c-1.1-10 11.8-28.6 19.5-38.1 10.5-13.1 22-38.9 24.6-44.1 7.3-14.7 14.7-29.5 18.7-45.4 4.2-16.8-4.3-24.7-10.1-51.1 5.9-1.7 10.4-6.5 15.8-9.5 5.3-3 11.5-5.3 17.5-4 3.8.8 7.1 3 10.2 5.1 6.7 4.5 14.1 9.9 20.8 14.4z"/>
    </g>
    <path stroke-linejoin="round" d="M680.5 427.7c.1-1.3-2.9-3-5.2-7.9-1.9-3.9-4.7-20.6-22-35.3-23.7-20.1-27.3-33.1-43.9-49.4-16.8-13.6-21.8-18.1-45.6-25-9.9-2.9-20.9-4.4-30.9-5-12.2-.7-38.2.1-50.6 1.7a420.4 420.4 0 0 1-50.1 3.6c-48.3 0-74.1-9.1-86.1-16.8-3.9-13.3-12.6-24-16.6-32.8a89.4 89.4 0 0 1-5.7-15.4c-1.8-6.7-1.9-10.8-4.3-17.5-.9-2.5-2-4.8-3.2-7.2-3.5-7.3-22.9-55.4-29.5-60.2-12.3-16.7-29.4-20.3-37.8-23.6-8.4-3.3-24-7.7-38.7-1.8-5.3 2.1-9.7 2.2-13.3 3.5-3.6 1.3-6.4 3-13.3 4.7-6.7 1.6-9.6 7.5-15.7 10l-3.3 1.2c-3.1 1.4-7.3 4.6-6.5 8.8.1.7-.1 1.4-2.1 3.2a33.5 33.5 0 0 0-9.2 15c-1.5 5.3-5.2 9.9-1.5 13.5 2.7 2.6-2.7 3.1-5.8 8.3-3.2 5.3-6.6 9.8-8.9 17-2 6.1-3.5 8.8-6.4 14.5-2.2 4.3-2.5 4.5-4.9 7.8-4.1 5.7-6.9 11.2-5.1 16l.7 2.1c.2.7-.2 5.5-.2 6.2a15 15 0 0 0 4.2 8.4c3.1 2.7 4.1 3 7.6 3.2 2.9.1 9.2-2.6 14.7-6.9 11.4-8.9 6.5-6.7 18.1-18.7 4-4.1 16.7-9.9 22.2-5.2 2.4 2 5.2 4 5.2 8.9.1 5.8-5.1 10.5-6 11.6l-5.8 6.9c-2.7 3.2-2.3 3.8-5.7 6.3-3.4 2.6-6 8-10.3 8.5-2.9.3-1.6-3.9.6-6.9 3.6-5 8.6-12.7 8.6-12.7s-9.6 7.3-12.4 11.8a19 19 0 0 0-3.1 10.9c.3 4 5.1 7.2 6.1 7.2h.4a25 25 0 0 0 1.4 9.4c1.5 4.2 4.6 9.7 2.8 14.2-.4 1-1.1 2-1.3 3.1v.5c.2.2.5.2.8.1 3.1-1.3 5.6-4.1 6.9-7.2 1.7-3.8.4-7.8-.4-11.7-.6-3-.4-6.5.6-9.5l2.8-3c1.7-2 2.4-7.1 3.7-9.3 3.8-6.6 14.6-14 17.4-15.9 4.4-3 14.3-4.7 18-4.3 1.8.2 3.4.2 4.8 0 2.4 3.1 4.7 8.2 4.7 16.8 0 17.3-17.9 30.3-12.4 51.4-10.6 12.8-1.4 26.4-3.9 34.4-6.1 14.4-.7 29.4 0 37.8-3 19 13.1 31.2 13.1 31.2s11.2 23.1 22.3 25.4c8.2 20.2 19.2 17.4 25.1 20.4 1.2 9.3 3.2 22.6 13.6 43.7.7 1.4 2.2 2.6 2.2 4 0 6.7.4 13.7 1.6 20.3 1.1 5.9 1.9 11.9 2.8 17.9.7 4.6 3.6 7.8 2.9 12.7-1.5 10.2-.9 20.6-1.8 30.9-.9 10.4-3 20.8-4.3 31.1-1.5 12.1-9.6 19.5-9 29.5 16.1-5.3 27.3 7.2 27.3 7.2s4.7-2.3 4.6-4.6c-.4-5.9-6.6-5.1-6.4-9.2.2-1.9-1-3.6 2.7-5.6 5.6-2.8 8.8 2 13.6-1.4 2.8-2.1 3.3-4.2 3.9-6.9.4-5.2-12.1-6-9.6-17.8.7-4.1 3.7-17.8 4-28.5.3-10.8-1.6-26 1-29.8 3.7-5.2 5-10.2 7.4-15.9 2.4-8.9 2.9-16.7.1-25.7-.7-2.2-1-1.5-1-3.5s-2.1-9.4-1.8-11.7c.9-8 7.2-9 10.3-19.3l.2.4c2 .9 3.7 2.3 5.8 3.2 7.1 3.2 30.1 1.9 37.5 2.5 9.6.8 19.2 1.9 28.6 3.5 11.4 1.9 20.7-.9 32-2.3 4.1-.5 8.3-.9 12.3-2 3.6-1 7.3-1.1 11-1.8 4.9-.9 18.4.2 23.2 1.3 10 2.3 17.6-.4 27.9-.3 7.3.1 14.4-1.8 21.4-3.8 9-2.5 16.5-3.5 24-8.1 6.1 8.1 12.4 17.8 29 25.5l-.1.2c.5 3.9 3.2 7.2 6.4 9.5 3.1 2.4 6.7 4 9.9 6.3 9.1 6.6 11.5 16.3 16 25.8 2.1 4.6 5.3 8.7 7.1 13.4a143 143 0 0 1 9.6 43.8c0 8.5-1.4 11.6-2.3 23.8-.9 12.2-8.5 21.5-7.4 31.6 15.8-6.1 27.6 5.7 27.6 5.7s4.6-2.5 4.3-4.8c-.8-5.8-6.9-4.8-6.8-8.9.1-1.9-1.1-3.5 2.4-5.7 5.5-3.1 8.9 1.5 13.5-2.2 2.7-2.2 3.1-4.4 3.5-7.1.2-5.2-9.5-8.8-11.5-23.8-1.9-14.3-.7-38.6-2.6-52.9-1.9-14.6-3.8-19.3-2.3-34 .9-9.1 5-19 .3-26.8-3.6-5.9-15.6-9.5-17.7-16.1-.8-2.6-.7-5.4-.6-8.1.7-20 4.7-17.1 4.7-37.1 0-12.9-3.2-25.8-3.2-25.8s3.4 8.9 5.9 12.2c6 8 14.1 9.6 14.1 9.6s5.1 15.3 23 18.8c.2-2.5-4.1-7.5-4.9-12.9-.7-4.9 1.2-12.3.7-16.6-1.1-8.3-4.7-11.5-4.4-12.1 4.2 2.3 9.3 4.7 12.7 2.4z"/>
    <g stroke="none" fill="#000">
      <path d="M170.5 455.9c3.8-.7 7.7-.5 11.5-.2s7.5.7 11.2.8h2.8l2.8-.1 2.8-.2 2.7-.4c3.7-.6 7.3-1.5 10.9-2.5l.2.4a41.5 41.5 0 0 1-22.2 5.9c-1.9-.1-3.9-.2-5.8-.5l-5.7-1c-3.7-.7-7.4-1.6-11.2-2zm-31.1 4.1-.7 2.8-.5 2.7c-.3 1.8-.9 3.9-1.9 5.6-.5.9-1.1 1.7-1.8 2.5s-1.5 1.5-2.5 2a7.5 7.5 0 0 1-6 .7l.1-.5a9 9 0 0 0 4.6-2.2l1.7-1.8 1.4-2.2c.9-1.5 1.5-3 2.2-4.8.7-1.9 1.8-3.6 3.4-4.8zM126 490.5l-1.1 13.9-.5 6.9-.5 6.9-.5 6.9-.5 6.9c-.2 4.6-.5 9.2-.3 13.9a50.2 50.2 0 0 1-2-13.9l-.1-3.5V525l.3-7c.4-4.7.9-9.3 1.7-13.9.9-4.6 1.9-9.2 3.5-13.6zm-2.7 81.5c1.4.2 2.8.9 3.9 1.8s2 2.1 2.8 3.3l1.9 3.7 1.5 3.8-.2.2c-1.2-.9-2-2.1-2.7-3.2l-2.1-3.5a63 63 0 0 0-2.2-3.3c-.9-1-1.8-1.9-2.9-2.8zm141.4 129.5c2.9-3.1 5.7-6.6 8.3-10.1 2.6-3.5 5.1-7.1 7.6-10.8l.3.2a189.8 189.8 0 0 1-13.9 22.7zm-115.6-80.9A260 260 0 0 0 140 596l.3-.1a217.3 217.3 0 0 1 11.7 23.9zm464.7 80.9c2.9-3.1 5.7-6.6 8.3-10.1 2.6-3.5 5.1-7.1 7.6-10.8l.3.2a189.8 189.8 0 0 1-13.9 22.7zm-150 0a208.7 208.7 0 0 0 15.9-20.9c-2 3.9-4.1 7.8-6.4 11.6-2.3 3.8-4.6 7.6-7.3 11.2zM350.4 452.4c.5 4.4.3 8.9-.7 13.3a52 52 0 0 1-4.8 12.6c-2.1 4-4.6 7.7-7 11.4-2.4 3.7-4.9 7.3-6.5 11.2l-2.8-1.1c1.9-4.3 4.6-7.9 7.1-11.5 2.6-3.6 5.1-7.1 7.4-10.9a52.4 52.4 0 0 0 7.3-25zm-34.2 125.3a47.6 47.6 0 0 0-4.7 11.9 139 139 0 0 0-2.8 12.8l-2.4 13a46 46 0 0 1-1.6 6.4c-.7 2.1-1.4 4.3-2.8 6l-.2-.2c1.3-1.7 1.9-3.9 2.4-6a72 72 0 0 0 1.2-6.4c.7-4.3 1.1-8.7 1.7-13.1.6-4.4 1.2-8.7 2.2-13.1 1-4.3 2.2-8.7 4.4-12.8zm-8.5-50.9c1.1 2.5 2.3 4.9 3.6 7.3 1.3 2.4 2.6 4.9 3.5 7.6.9 2.7 1.4 5.6 1.2 8.5-.2 2.9-.9 5.8-2.7 8.1l-.4-.2c.7-2.6.8-5.2.6-7.8-.2-2.6-.8-5.1-1.6-7.6l-2.7-7.6c-.9-2.6-1.6-5.4-1.6-8.2z"/>
    </g>
    <path style="fill:none;stroke:#000000;stroke-width:3" d="M266 483.5c-1.1-6.5-2.4-7.4-4.4-16.5a30.8 30.8 0 0 1 1.8-23.5"/>
    <g stroke="none" fill="#000">
      <path d="M648.7 427.7c2 2.9 2.9 6.5 3.7 9.9l1.1 5.1c.4 1.7.9 3.3 1.6 4.6l-2.8 1.2c-.7-1.9-.9-3.7-1.1-5.4l-.5-5.2c-.3-3.4-.8-6.9-2.4-10zm18.6-1.4a27.4 27.4 0 0 1-6.7-9.5l.3-.1a32.8 32.8 0 0 0 8.2 7.3zm-10.3 1.3a43.7 43.7 0 0 1 7.9 16.3c.6 3 .9 6 1.8 8.7.9 2.7 2.6 5.2 4.3 7.6l-.2.2c-2.3-2-4.4-4.3-5.6-7.2-.7-1.4-1-3-1.4-4.5-.3-1.5-.5-3-.9-4.4-.6-2.9-1.4-5.7-2.5-8.4-.9-2.8-2.3-5.4-3.4-8.3zm-452.9-22.1c1.1-1.3 1.9-3.1 2.5-5 .6-1.9 1-3.9 1.5-5.9.9-4 1.9-8.1 4-11.7l.3.1a36.7 36.7 0 0 0-2.6 11.8c-.2 2-.4 4.1-.8 6.2-.4 2.1-1 4.2-2.3 6.2zm35.4 58.2a62.3 62.3 0 0 1-3.3-27h.3a59.5 59.5 0 0 0 5.7 25.8zm-22.2-25.1c-.9-2.4-1-4.8-.9-7.1.1-2.3.5-4.5.7-6.7.3-2.2.4-4.4.3-6.6-.1-2.2-.6-4.4-1.4-6.4l.3-.1c1 2 1.7 4.2 2.1 6.4.4 2.3.4 4.5.4 6.8s-.2 4.5-.1 6.6a17 17 0 0 0 1.3 6zm-12.7-71.2c1.3-.7 2.7-1.5 3.8-2.4 1.1-.9 2.1-2 2.7-3.3.6-1.3 1-2.9 1.4-4.4.4-1.6 1-3.1 1.8-4.5l.3.1c-.6 1.5-1 3-1.2 4.5-.2 1.5-.3 3.2-.8 4.8-.5 1.6-1.5 3.2-2.6 4.4-1.1 1.3-2.5 2.3-3.8 3.3zm3.9-34.3a12 12 0 0 0 3.3-3.1c1-1.3 1.8-2.8 2.8-4.2.9-1.5 2-2.9 3.2-4.2 1.3-1.2 2.8-2.2 4.5-2.7l.1.3c-1.5.7-2.9 1.8-3.9 3.1a23 23 0 0 0-2.5 4.3c-.7 1.5-1.4 3.1-2.3 4.7-.9 1.6-2 3.1-3.6 4.4zm139-40.1 1.3 3.2 1.7 3.1a39.5 39.5 0 0 0 9.9 10.5c1 .8 2 1.4 3 2l3.2 1.8-.1.3c-1.1-.5-2.3-.9-3.4-1.5l-3.3-1.8a37.8 37.8 0 0 1-15.3-16.6zm284.8 133.2a168 168 0 0 0-6.4-27.4c-2.8-9-6.2-17.8-9.7-26.7 2.4 4.1 4.5 8.4 6.4 12.7a214.5 214.5 0 0 1 9.6 26.9c1.3 4.6 2.2 9.3 3.1 14zm-75.8-70.3c3.6.8 7.1 1.9 10.4 3.5 1.7.7 3.3 1.7 4.9 2.5a63.2 63.2 0 0 1 20.2 18.5l-.4.3a178.4 178.4 0 0 0-16.8-13.3c-1.4-1.1-2.9-2-4.4-3l-4.5-2.8c-3-1.9-6.2-3.5-9.4-5.4zm51.6 47.9c1.2.1 2.2.5 3.2.9a17.5 17.5 0 0 1 3.9 2.6c.4.4.8.7 1.1 1.2.4.5.7 1 .9 1.7l.1 1c0 .4-.2.7-.5.8-.1-.6-.5-.8-.8-1.1l-1.2-.7-1.3-.7-1.3-.9a15 15 0 0 1-2.3-2.1 7.5 7.5 0 0 1-1.8-2.7zm3.5 11.9c1-.1 1.9.1 2.7.5a6.1 6.1 0 0 1 3.4 3.7c.3.8.4 1.7.2 2.7-.9-.4-1.6-.9-2.2-1.4l-1.6-1.5-1.4-1.7c-.4-.7-.8-1.4-1.1-2.3zm2.6 10.3c1.2.5 2.2 1.3 3.1 2.2a21 21 0 0 1 2.3 2.9c.6 1.1 1.1 2.2 1.4 3.4.3 1.2.5 2.5.3 3.8a29 29 0 0 1-6-8.8c-.3-1.1-.8-2.2-1.1-3.5zm2.4 12.9a12.7 12.7 0 0 1 3.4 7.3 14 14 0 0 1 0 4.1c-.2 1.3-.6 2.7-1.3 3.9-.5-1.4-.8-2.6-1-3.9l-.6-3.7-.4-3.7c-.1-1.3-.2-2.6-.1-4zm-261 20.3c1-.3 1.6-.9 1.9-1.7l.6-2.4.1-1.3v-1.3c0-.9-.1-1.7-.3-2.6l-1-5.5c-.3-1.9-.7-3.8-.6-5.8a43 43 0 0 1 2.8 5.1 22 22 0 0 1 1.9 8.8c-.1 1-.2 2.1-.6 3.1a7 7 0 0 1-1.8 2.8c-.4.4-.9.7-1.5.8a2 2 0 0 1-1.5 0zM414 333.5c1.1-.4 2.1-.6 3.1-.8l2.8-.5 2.9-.4c1-.1 2-.2 3.2-.1a6.4 6.4 0 0 1-2.5 2.4 9.2 9.2 0 0 1-6.5 1c-1-.3-2.1-.7-3-1.6zm-34.8 150.2c-.2.2-.2.4-.1.5.1.1.3.3.5.3l.5.2H380.7l2.9-.2 5.6-.2 5.6-.1c1.9 0 3.8 0 5.8.2-1.7 1-3.6 1.6-5.5 2.1a28.7 28.7 0 0 1-14.6-.5l-.4-.1-.5-.2-.7-.6-.4-.8.1-.5.6-.1zm-12.3-151.1a22.9 22.9 0 0 1 7.2 9c.8 1.8 1.4 3.6 1.8 5.5.4 1.9.5 3.9.2 5.8-1-1.7-1.7-3.4-2.5-5.1l-2.2-5-2.3-5-2.2-5.2zm17.2 103.5a4 4 0 0 0 2.9-.6c.8-.5 1.5-1.2 2.1-1.9l1.7-2.4 1.7-2.7 3.4-5.4c1.2-1.8 2.4-3.6 3.8-5.3a28.8 28.8 0 0 1-4.7 12.3l-1.9 2.7c-.7.9-1.5 1.8-2.4 2.5-.9.7-2 1.3-3.2 1.6-1.3.3-2.6 0-3.4-.8zm5.3 34.2c.8-2.4 2.1-4.5 3.7-6.4a27.8 27.8 0 0 1 12.2-8.3c2.4-.8 4.8-1.2 7.3-1.1-2.2 1.1-4.3 2.1-6.4 3.3a71.5 71.5 0 0 0-16.8 12.5zm28-4.8a7 7 0 0 1 3.5-.2c1.2.2 2.3.7 3.3 1.3 1 .6 1.9 1.5 2.5 2.4.7 1 1.2 2.1 1.2 3.3l-2.9-1.6-2.5-1.6-2.5-1.6-2.6-2zm25.6 10.2a39.5 39.5 0 0 0 5.5 6.7 26.1 26.1 0 0 0 7.5 4.4c-1.6.6-3.3.6-5 .2a11.6 11.6 0 0 1-7.5-6.5 8.7 8.7 0 0 1-.5-4.8zm117.3 65.5c-1.9.2-2.9 1.5-3.7 2.9l-1.1 2.1c-.3.8-.7 1.5-.9 2.3a90 90 0 0 0-1.6 4.8l-1.3 5.2a15.5 15.5 0 0 1 .1-11.1 13.7 13.7 0 0 1 3-5c.7-.7 1.6-1.3 2.6-1.6l1.5-.2 1.4.6zm-22.6 40.2a195.3 195.3 0 0 1-10.5 19l-3.7 6.1-3.7 6.1c-1.3 2-2.4 4.1-3.6 6.2-2.4 4.1-4.6 8.4-6.8 12.7a70.3 70.3 0 0 1 8-20.3l3.6-6.3a250 250 0 0 1 16.7-23.5zm-4.6-135.2c-.7-.6-1-1.6-1.2-2.5-.1-1 0-2 .4-2.9a9.7 9.7 0 0 1 3.5-4.5c1.5-1.1 3.2-1.7 4.8-2.3l4.9-1.5a12 12 0 0 1-3.9 3.6c-1.4.9-2.9 1.7-4.1 2.6-1.2.8-2.3 1.9-3.1 3.1a6 6 0 0 0-1.3 4.4zm38.5 31.9c-.9 1-2.2 1.5-3.5 1.7-1.3.2-2.7 0-3.9-.5a8.2 8.2 0 0 1-3.2-2.3 6 6 0 0 1-1.4-3.6l2.9 1.9a24 24 0 0 0 5.7 2.3l3.4.5zM262.3 343.4c-.5.1-.3.5 0 .8l.8.9 1.6 1.8 1.6 1.9c.3.3.5.7.7 1.2.2.4.5.9.4 1.8l-.4 2.5-.3 2.3-.5 4.7a100 100 0 0 0 .7 19.1 36.6 36.6 0 0 1-3-24.2l.5-2.4.3-1.2.3-1.1-.1-.6-.4-1-1.1-2.1-1.1-2.2-.5-1.2-.1-.7.2-.3h.4zm14.6 118.9 1.3 6.1a52.7 52.7 0 0 0 7.8 16.1c-2-.9-3.7-2.2-5.2-3.9a19 19 0 0 1-4.9-12c-.1-2.1.2-4.3 1-6.3zm9.1 34.9 3.6 2 3.3 1.9 3.3 1.8 3.5 2c-1.4.5-2.9.5-4.3.2-1.4-.2-2.8-.7-4-1.4-1.3-.7-2.4-1.6-3.3-2.7a8 8 0 0 1-2.1-3.8zm69.3-72.2c1 .1 1.9-.5 2.5-1.2.6-.7 1-1.6 1.3-2.5a28.2 28.2 0 0 0 1.7-11.5c0-1.9-.4-3.8-.7-5.7-.1-.4 0-.9.3-1.2 1.5-1.9 2.1-4.3 2.3-6.9.1-2.6-.1-5.2-.7-7.9a81 81 0 0 0-4.5-15.8 44.4 44.4 0 0 1 8.1 23.9c-.1 1.5-.3 3-.7 4.5-.5 1.5-1.2 2.9-2.2 4.1l.3-1.2a26.8 26.8 0 0 1-.4 12.5c-.5 2-1.3 4-2.3 5.8-.5.9-1.1 1.8-2 2.5-.8.5-2 .9-3 .6zm-93.2 17.7c1-1.7 1.9-3.4 2.3-5.1a11 11 0 0 0 0-5.4c-.4-1.9-.9-3.9-1.2-6-.3-2.1-.3-4.4.4-6.5v.6c-.6-2-.7-4-.6-6a22.2 22.2 0 0 1 4-11 20 20 0 0 1 3.9-4.3 24.6 24.6 0 0 0-3.1 4.8 25.7 25.7 0 0 0-3 10.7c0 1.8.2 3.6.8 5.3v.7c-.5 1.7-.4 3.6-.1 5.5l1.5 5.8c.3 1 .5 2.1.5 3.3 0 1.1-.1 2.3-.3 3.4-.5 2.2-1.5 4.1-2.5 5.9zm352.1 67.2c-.1 2 .7 3.7 1.8 4.9 1.1 1.3 2.6 2.3 4.2 3.5a54.6 54.6 0 0 1 8.4 8.4 52.5 52.5 0 0 1-10.3-6 15.9 15.9 0 0 1-4.3-4.6c-.5-1-.8-2.1-.8-3.2s.3-2.2 1-3zm29.8 100c-.4-5.5-.4-11.1-.3-16.6a460.5 460.5 0 0 1 2.2-33.2c.6-5.5 1.4-11 2.5-16.5l2.9.6c-1.2 5.3-2 10.8-2.8 16.2-.8 5.5-1.4 10.9-2 16.4-1.1 11-1.7 22-2.5 33.1z"/>
    </g>
    <path fill="none" stroke-linejoin="round" d="M521.5 445.7c1 8.1 3.1 17.4 10.2 21.4 0 6.1 5.2 11.4 11.2 12.2 3 5.1 7.8 9.1 10.6 14.3"/>
    <g stroke="none" fill="#000">
      <path d="M506 410.4c0 3.5 0 7 .3 10.5s.7 7 1.7 10.2a16.3 16.3 0 0 0 5.5 8c2.6 2.1 5.6 3.7 8.7 5.3l-1.4 2.7a52.4 52.4 0 0 1-9.1-5.9 18.7 18.7 0 0 1-5.7-9.5c-.4-1.8-.7-3.6-.8-5.4l-.2-5.3c-.1-3.6.2-7.2 1-10.6z"/>
    </g>
    <g>
      <g stroke="none" fill="#000">
        <path d="M289.7 186.1c.3-1 .9-2.1 1.6-2.9.7-.8 1.5-1.5 2.4-2l1.4-.8 1.4-.5c.9-.3 1.8-.3 2.8-.6-.6.8-1.5 1.3-2.3 1.8l-1.1.7-.9.9a8.3 8.3 0 0 0-2.3 4.2zm8.8 64.7a5 5 0 0 1-1.5-2l-.8-2.3c-.4-1.6-.6-3.2-.7-4.7-.4-3.1-.6-6.2-1.1-9.1-.6-2.9-1.7-5.7-2.8-8.6-.6-1.5-1.1-3-1.5-4.6-.4-1.6-.5-3.4.3-4.9l.4.1c-.1 1.5.3 2.9 1 4.3.6 1.4 1.4 2.7 2.1 4.1 1.5 2.8 2.9 5.8 3.5 9 .6 3.3.6 6.4.5 9.6l-.1 4.6c-.1 1.6-.1 3.1.7 4.5zm-37.9-31a12 12 0 0 1 2.9 4.4 17.9 17.9 0 0 1-1.2 15.2l-.4-.1-.2-5-.1-4.8-.4-4.7-.6-5zm26.5-7.8c.3-2.3.3-4.4.1-6.5-.2-2.1-.7-4-1.5-5.9-.8-1.9-1.8-3.9-2.6-6a13 13 0 0 1-.8-3.4c-.1-1.2-.1-2.4.3-3.5.5 2.3 1.5 4.1 2.6 5.9 1.1 1.8 2.3 3.7 3.2 5.9.9 2.2 1.3 4.7 1.1 7.1-.2 2.3-1 4.6-2.4 6.4zm-19.6-16.3c1 .6 1.8 1.7 2.3 2.8.5 1.1.9 2.3 1.1 3.5.4 2.4.4 4.7.6 6.8.2 2.1.7 4.1 1.6 6 .9 1.9 2.1 3.8 3.7 5.6-2.3-.8-4.2-2.4-5.7-4.4-1.5-2-2.3-4.5-2.5-7-.2-2.4 0-4.7 0-6.9s-.1-4.3-1.1-6.4z"/>
      </g>
      <g>
        <g stroke="none" fill="#000">
          <path d="M236.3 247.9c.1 2.4-.4 4.9-1.4 7.1-1 2.2-2.5 4.3-4.3 6a27.4 27.4 0 0 1-6.2 4.3 30.2 30.2 0 0 1-7.2 2.3l-.4-3a24 24 0 0 0 12.8-4.8c1.8-1.4 3.4-3.2 4.6-5.2 1.2-2 1.9-4.3 2.1-6.7zm-103.7 2a14.4 14.4 0 0 0-2.8 4.3l-.8 2.4-.5 2.6c-.2.9-.4 1.8-.9 2.8-.5 1-1.2 1.8-2.2 2.4-.9.6-2.1.9-3.3.6-.6-.2-1.1-.5-1.5-.9-.4-.4-.6-1-.6-1.5l.3-.2c.8.6 1.4.7 2 .6a5 5 0 0 0 1.7-.7 5 5 0 0 0 1.4-1.5c.4-.6.6-1.4.9-2.2.5-1.7 1.1-3.5 2.2-5.1 1-1.6 2.5-2.9 4.1-3.6zm-2.4-7.1c1.8-2.1 3.6-4.1 5.2-6.3s2.9-4.5 4.2-6.9l3.7-7.3c1.3-2.4 2.9-4.8 5.1-6.6l.2.2a41.4 41.4 0 0 0-3.8 7.2c-1.1 2.5-2.2 5-3.5 7.5a29.6 29.6 0 0 1-11.1 12.2zm43.8-76.7c-1.2-.7-2.6-.8-3.9-.7l-4.1.9c-1.4.3-2.9.7-4.6.4l-1.3-.4-1.2-.6-1-.9-.8-1 2.6-1.5c.5 1 1.2 1.8 2.2 2.1 1.1.4 2.4.3 3.8.2 1.4-.1 2.8-.3 4.3-.3a6 6 0 0 1 4.1 1.4zm27.7 49-1.2 4.6c-.4 1.5-.6 3-.8 4.5a34.4 34.4 0 0 0 .1 9.3c-1-1.3-1.6-2.9-1.9-4.5a14 14 0 0 1-.1-5 20 20 0 0 1 1.3-4.8c.6-1.5 1.5-2.9 2.6-4.1zm-75 37.4c-.5.9-1 1.5-1.6 2.2l-1.7 1.7-1.6 1.5c-.5.5-.9 1-1.1 2-.8-.6-.9-1.9-.6-2.9.3-1 .9-1.8 1.6-2.4.7-.6 1.5-1.1 2.3-1.5a6 6 0 0 1 2.7-.6zM199 145.1a9 9 0 0 1 5.4-2.4c1-.1 2.1 0 3.1.2l2.7.7c.9.2 1.6.4 2.4.4l2.6-.3c1.8-.3 3.8-.9 5.8-.4-1.9.6-3.4 1.5-5.2 2.3-.9.4-1.9.7-3 .8-1.1.1-2.2-.1-3.2-.3l-2.7-.8a10 10 0 0 0-2.5-.5c-1.7-.3-3.5-.1-5.4.3zm.1 19.7c.9-.8 2.1-1.3 3.3-1.5 1.2-.2 2.5-.1 3.7.3 1.2.4 2.3 1 3.2 1.7l2.6 2.2c-1.2.2-2.5-.1-3.6-.4l-3-1.1-3-.7-3.2-.5zm6.9-8.6a30 30 0 0 0-3.8-1.5 19 19 0 0 0-8.2-.8c-1.4.2-2.8.4-4.1 1 1-1.1 2.5-1.7 3.9-2.1a22.8 22.8 0 0 1 9-.2c1.5.3 2.9.8 4.3 1.3zm-20.4.1-4.6.6-2.3.2c-.8 0-1.6 0-2.6-.2.6-.8 1.3-1.3 2.1-1.7.8-.4 1.6-.7 2.5-.7.9-.1 1.8 0 2.7.3a3 3 0 0 1 2.2 1.5z"/>
        </g>
        <g>
          <g stroke="none" fill="#000">
            <path d="M177.3 177.7c-2.6 0-4.8 1.1-7 2.3-2.1 1.3-4.3 2.8-6.9 3.7l-2 .5-2.1.2-3.8-.3c-1.2 0-2.3.1-3.2.6-.9.5-1.7 1.5-1.7 2.7l-.4.1c-.3-.7-.3-1.4 0-2.1.2-.7.7-1.3 1.2-1.8a7 7 0 0 1 4-1.5l3.9-.1 1.7-.2 1.7-.5c2.2-.8 4.4-2.1 6.9-3.1a16 16 0 0 1 3.9-1.1c1.2-.1 2.6 0 3.8.6zm2.4 32.5c.1-1.1.4-1.9.6-2.8l.7-2.6.8-2.6c.3-.9.6-1.7 1.1-2.6h.4a9.3 9.3 0 0 1 0 5.9c-.3.9-.7 1.9-1.3 2.7a5 5 0 0 1-2.3 2zm7.5-23.4a22 22 0 0 0-9.2-.2c-2.9.7-5.5 2.4-8.2 4.1l-4 2.5a23 23 0 0 1-4.4 2.3 11 11 0 0 1-5 1c-1.7-.1-3.3-.6-4.8-1.4l.1-.4c1.5.4 3.1.6 4.6.5.7-.1 1.5-.2 2.2-.5.7-.2 1.4-.6 2-.9 2.7-1.5 5.2-3.5 7.9-5.2a24 24 0 0 1 9.1-3.9c3.5-.6 6.9.4 9.7 2.1z"/>
            <path d="M184.2 192.2c-1.6.3-3.3.5-5 .6a23 23 0 0 1-5.2-.3l.7-2.4c1.4.6 2.9 1.1 4.5 1.4 1.7.4 3.3.7 5 .7z"/>
          </g>
          <path fill="#f6f6f6" stroke-width="2.5" stroke-linejoin="round" d="M166.8 192.5c2.3-1.3 5.2-2.2 7.6-1.1.6.3 2.9 2.4 2.8 7.1a8.3 8.3 0 0 1-1.8 5.1 13.3 13.3 0 0 1-7.9 4.2c-2.8.2-4.8-.2-5.8-2.5-1.5-3.8 3.2-11.7 5.1-12.8z"/>
          <g stroke="none" fill="#000">
            <path d="M168.3 192a7 7 0 0 1-1.9 1l-.8.2-.8.8-.3.3-.4.8c-.5 1-1.5 2.6-1.6 3.9a7 7 0 0 0 6.2 4.2c.9 0 1.4-.9 1.1-1.7a16.8 16.8 0 0 1-1.5-9.5z"/>
            <path d="M151.3 211.7a42.2 42.2 0 0 0 8-9.8l1.1-1.8.5-.9.2-.5.1-.2.1-.1v-.2l.1-.1.1-.1c-.1-.8 2.7 0 2.1.6l-2.5.5c-.6.6 2.3 1.4 2.1.6l.1-.1-.1.1-.1.2-.3.5-.6.9-1.3 1.8a46 46 0 0 1-6 6.4 10 10 0 0 1-3.6 2.2z"/>
          </g>
        </g>
        <g stroke="none" fill="#000">
          <path d="m131.5 257.8.2 3.3c.1 1.1.1 2.4-.4 3.6-.2.6-.6 1.2-1 1.7l-.7.7a2 2 0 0 1-1 .6c-1.3.5-2.5.4-3.7-.1.9-1.1 2-1.6 2.6-2.1l.4-.3.5-.5.8-1.1c.4-.8.7-1.8.9-2.9.3-.7.7-1.9 1.4-2.9z"/>
        </g>
        <path class="tertiary" stroke-linejoin="round" d="M186.5 252.6c-1-2.6-4.5-5.3-4.5-5.3-3.2.3-15.3 5.1-24 15.7-4.6 5.6-8.3 11.8-14.2 16.1-5.9 4.4-13.5 6.7-20.1 9.9a9.4 9.4 0 0 0-4 3.1 6.6 6.6 0 0 0 0 5.8c3.3 5.2 13.1 1.9 17.4-.1a45 45 0 0 0 11.8-8.2c3.6-3.5 5.8-6.7 8.5-10.7 2.9-4.2 6.6-10.8 12.1-15.8a41 41 0 0 1 17-10.5z"/>
        <g stroke="none" fill="#000">
          <path d="M169 298.3c.4-.7.8-1.5 1-2.4l.8-2.7.4 2.8c.1 1 .2 2 .1 3zm-10.6 1.1c.1.1.2-.1.3-.4l.2-.9c0-.6 0-1.3-.2-1.9.6.4 1 1 1.4 1.6l.5 1c.1.4.3.8.1 1.5z"/>
        </g>
      </g>
      <g stroke="none" fill="#000">
        <path d="M288.7 184c.1-.9.2-1.7.5-2.5l1-2.3 1.4-2c.5-.6 1.1-1.2 1.9-1.5l-.7 2.3-.7 2.1-.4 2.1-.1 2zm-4.2-16.8c-.1-1.1 0-2.2.4-3.3a9.2 9.2 0 0 1 2.4-4l1.1-1 2.3-1.6c-.2 1-.9 1.8-1.4 2.5l-.8 1.1-.5 1.2-.6 2.4a6 6 0 0 0 .1 2.3z"/>
      </g>
      <g>
        <path class="secondary" d="M333.6 130.1c2.9-4.8 7.6-7.3 13.1-7.8 3.6-.3 7.6-.5 10.6 1.5 4.3-4 14.9-5.2 19.4-1.4 3.8-5.4 13.7-4.2 18.2-3.8a22 22 0 0 1 12.3-9.5c1.6-.5 4 2.2 3.8 3.9-.3 1.7-1.5 3.1-1.9 4.7-.3 1.3-.1 2.6-.2 3.9-.1 3.8-2.2 7.2-4.2 10.4-1.7 2.7-3.4 5.5-5.8 7.6-5.5 4.9-13.6 5.3-21 4.8-1-.1-2.1-.1-3.1.3a9 9 0 0 0-1.6 1.1 34.2 34.2 0 0 1-11.1 6"/>
        <path class="secondary" stroke-linejoin="round" d="M381.7 190.5c.2-1.9.3-3.8-.4-5.5a23 23 0 0 0-3.8-21.1 14 14 0 0 0 .4-7.3c-.4-1.3-1.1-2.5-1.9-3.7a18.3 18.3 0 0 0-6.6-6.9 14 14 0 0 0-4.7-9.2 33 33 0 0 0-9-5.5 9 9 0 0 0-2.4-5.3 23.3 23.3 0 0 0-4.5-3.8c-3.1-2.2-8-3.9-11.5-5.4-1.8-.8-4-4.1-5.8-5.1-5.5-3-11.8-2.9-18.1-2.9-2.4 0-2.1-3-11.8-3.8-1.9-.2-5.7.4-7.5 1-2.1.7-3.2 1.5-5.2 2.4-7.5-3-17.8-.6-23 5.6-1.7-.5-3.3-.6-5-.4-1.6.2-3.1.8-4.6 1.4-3.4 1.4-6.9 2.8-9.5 5.4-1.7 1.7-2.9 3.7-4.1 5.7l-4.8 1.8c-1.3.5-2.5 1.1-3.6 1.8-6.7 4.2-9 8.9-10.5 11a9.5 9.5 0 0 1-4.5 3.7c-9 3-12.8 9.7-12.8 11 0 0 6.4-1.3 14.2 1.6 7 2.6 16.1 8.5 16.1 8.5.6 1.7 1.8 3.5 2.6 5.2 1.5 3.3-.8 4.1 2 6.4 1.4 1.2 4 2 5.7 2.9 4.3 2.1 2.8 9.4 7.5 10.2 4.7.8 2.9.3 6.7-2.6.9-.7 1.8-1.5 2.9-2 4.2-1.9 6.3-1.2 9.5-4.7 2.8-3.1 4.8-5.9 5.2-10.2 0-.5.1-1.1.5-1.4.2-.2.6-.3.9-.3 1-.2 2.1.3 3.1.1-.7.9-1 2-1.3 3.1-1.2 4.8-2.4 10-.2 14.4a19.9 19.9 0 0 0-1.7 11.5c.3 1.7 1.4 3.6 1.5 5.2 0 1-.9 1.3-.6 2.5.7 2.6 1.5 5.2 2.9 7.4a14 14 0 0 0 5.8 5.5c-1.1 1.3-.2 3.2.7 4.5 2.9 4 6.8 7.1 11.4 9 1.6 3.4 4.8 5.9 8.3 7.3 3.5 1.4 7.4 1.1 11 2.5a26 26 0 0 0 19-.3c1.5-.6 3-1.4 3.9-2.7 3.4 1 7.1-.4 10.3-1.9 2.2-1 4.3-2.1 6.1-3.7 1.8-1.5 3.4-3.4 4-5.7a29.6 29.6 0 0 0 11.1-21.4c2.2-1.8 3.7-4.4 4.6-7.1.8-3 1.2-5.8 1.5-8.7zm-47.2 9.6c-.3.5-.6 1-1.1 1.1-.4.1-.8 0-1.2-.1l-11.9-3.3c-.5-3.6-1.9-7.1-4-10 4.8-3.5 7.2-9.9 8.4-15.7.2-1.2.7-1.4.9-2.6 3.4 2.3 7.1 4.1 12 6a42 42 0 0 0 5.4 15.2 25.7 25.7 0 0 0-8.5 9.4z"/>
        <path fill="none" stroke-linejoin="round" d="M325.6 169.5c-1.6-.8-5.4-3-9-5.7a20.6 20.6 0 0 1-17.3-1.3c.1.2-.2.6-.4.8-2.2 1.7-4.4 3.5-6.9 4.6a10.9 10.9 0 0 1-8.1.5"/>
        <g stroke="none" fill="#000">
          <path d="M307.6 180.6a30.5 30.5 0 0 0-.9 14.1 20.9 20.9 0 0 0 6.7 12 25 25 0 0 0 12.8 5.2c4.6.7 9.4.1 13.6-1.8a24.6 24.6 0 0 0 13.8-22.3 37 37 0 0 0-10.2-25.1 48 48 0 0 0-11.1-8.3 70.2 70.2 0 0 0-19.5-7.6c-2.2-.5-4.5-.7-6.8-.9a73.6 73.6 0 0 0-27.4 4.4l-6.4 2.9a45.4 45.4 0 0 0-11.4 8l-2.4 2.5-2.2 2.7c-2.8 3.8-5 8-6.9 12.4 1.4-4.5 3.4-9 5.9-13a38 38 0 0 1 9.8-10.6 68.4 68.4 0 0 1 19.5-9.7 70.2 70.2 0 0 1 28.9-1.6c2.4.5 4.7 1.3 7 2 4.6 1.6 9 3.6 13.3 6 4.2 2.5 8.1 5.4 11.5 9a36.8 36.8 0 0 1 7.6 12.5c1.7 4.6 2.7 9.5 2.5 14.4a29 29 0 0 1-4.2 14 24.7 24.7 0 0 1-10.9 9.6c-4.5 2-9.6 2.5-14.4 1.7-4.8-.8-9.5-2.5-13.2-5.8a22.7 22.7 0 0 1-4.5-5.7 24.2 24.2 0 0 1-2.2-6.9c-.4-4.8.1-9.7 1.7-14.1zm5.3-60.6c.2-1 .2-1.9.2-2.8l-.2-2.8-.4-2.8-.3-1.3-.2-.6-.1-.3v-.1l2.7-1.3.2.6.1.4.1.8.1 1.5-.1 3-.5 3c-.3 1.1-.7 2.1-1.6 2.7zm-22.8-1.1-.2-2.8c0-.9-.1-1.8-.3-2.6a11.3 11.3 0 0 0-2-4.4l2.4-1.7a10.8 10.8 0 0 1 1.7 6c0 1-.2 2-.4 2.9-.2.9-.6 1.8-1.2 2.6zm-20.3 3.8-.6-2.5a8.5 8.5 0 0 0-2.3-4c-.5-.5-1.1-.9-1.6-1.1l1.3-2.7a7 7 0 0 1 2.4 2.1c.6.8 1 1.7 1.3 2.7.3.9.4 1.9.4 2.8-.1 1-.4 1.9-.9 2.7zm-23 10.5-1-2-1-1.7-1.2-1.5-1.4-1.3 2-2.2a9 9 0 0 1 1.5 1.9c.4.7.8 1.4 1 2.2.3.8.4 1.5.5 2.3.1.8 0 1.5-.4 2.3zm90.7-16.3c0 .9-.1 1.8-.4 2.7-.3.8-.6 1.6-1.1 2.4-.5.7-1.1 1.4-1.7 1.9-.6.5-1.4 1-2.3 1.1l1.2-2c.4-.6.7-1.3.9-1.9.2-.7.4-1.3.4-2v-2zm19.7 14.3-1.9 2.4-2.2 2.1-2.4 1.8c-.8.5-1.7 1-2.7 1.3a23 23 0 0 1 1.8-2.3l1.8-2.2 1.6-2.3 1.5-2.4zm14.3 15.3-2.1 1.7-2.3 1.4-2.4 1.1c-.8.3-1.7.5-2.6.5.6-.7 1.3-1.2 2-1.7l1.9-1.6 1.8-1.7 1.6-1.8zm7.2 18.2-1.9 1.4a9.5 9.5 0 0 1-4.3 1.3c-.7.1-1.5 0-2.2-.3l1.9-1 1.7-1 1.5-1.2 1.3-1.3zm3.6 21-1.8.8-1.9.4-1.9.1c-.6-.1-1.3-.2-1.8-.6l1.6-.8 1.5-.7 1.4-.8 1.3-.9zm-6.8 22c-.8.1-1.7.2-2.5.1a21 21 0 0 1-4.9-.7c-.8-.2-1.6-.5-2.3-1l2.4-.4 2.3-.2 2.3-.4 2.2-.5zm-10.2 20.4-2.4-.3-2.3-.7-2.2-1c-.7-.4-1.3-.9-1.8-1.6.8 0 1.6.1 2.3.3l2.2.3 2.1.1 2.1-.1zm-21.5 12.2c-.7-.2-1.5-.4-2.2-.8-.7-.3-1.3-.7-1.9-1.3a8 8 0 0 1-1.5-1.7c-.4-.6-.6-1.4-.5-2.2a13.3 13.3 0 0 0 3.2 2.1l1.7.5 1.7.3zm-23.3 3.2c-.7-.5-1.4-1-1.9-1.7s-1-1.4-1.3-2.1c-.3-.8-.5-1.5-.6-2.3-.1-.8 0-1.6.4-2.3l1 2 1.1 1.7c.4.5.9 1 1.4 1.3l1.5 1zm-20-10.9-.6-2.7c0-.9 0-1.8.2-2.6l.7-2.4a9 9 0 0 1 1.1-2.2l.3 2.4v2.3l.3 2.1.7 1.8zm-12.5-14c0-1 .2-1.9.5-2.8.3-.9.7-1.7 1.2-2.5s1.1-1.4 1.8-2c.7-.6 1.5-1 2.4-1.2l-1.3 2.1-1 2a16 16 0 0 0-.5 2.1v2.1zm70.6-95.7 1 1.7a10.8 10.8 0 0 1 1.2 4c.1.7 0 1.4-.4 2.1l-.9-1.7-1-1.5-1.1-1.4-1.2-1.4zm19.8-1.2c.3.6.5 1.3.6 2l.3 2-.1 2c-.1.7-.3 1.3-.7 1.9l-.7-1.8-.6-1.7-.7-1.6-.8-1.5zm18-3.6.6 1.8.5 1.9.3 2.1c0 .7-.1 1.4-.4 2.1l-.9-1.8-.9-1.6-1-1.7-.9-1.8z"/>
        </g>
      </g>
      <g>
        <g stroke="none" fill="#000">
          <path d="M230 163a22.8 22.8 0 0 0-8.4 6.2l-.3-.2a23.5 23.5 0 0 1 7.3-8.8z"/>
        </g>
        <path d="M250 192.8c3.4.5 11.7.8 20.7-2.4 7.7-3 17.9-6.8 25.8-13.3 10.7-2 17.3-11 16-14.5-2.5-4.4-14.6-3.7-18.9-4-17-1.3-23.5-4.5-32.7-4.7-12-.2-25.7 4-31.5 7.7"/>
        <g stroke="none" fill="#000">
          <path d="M234.5 189.9c2.6-.5 5.4-.2 8 .2l3.9.7 3.7.5-.4 3c-1.4-.3-2.7-.8-4-1.2l-3.7-1.3c-2.5-.8-5-1.6-7.6-1.5zm-1.8-20.9a44.4 44.4 0 0 1 16.1-8.9l2.3-.6 2.4-.3 4.6-.2a41.6 41.6 0 0 1 13.8 1.7c1.5.4 2.9.7 4.4.9 2.9.5 5.9.7 8.9.9 3 .2 6 .2 9.1.2 3 0 6.2.2 9.2.8l-.1.4c-3-.2-6 0-9.1.3a71 71 0 0 1-27.4-2.1 44 44 0 0 0-8.9-.7h-4.5l-2.2.2-2.2.4c-5.5 1.3-11.1 4-16.4 7zm26-1.2-.4 2.5c-.3.8-.5 1.6-1 2.4a10.9 10.9 0 0 1-8.5 5.5 11 11 0 0 1-5.1-.6l.1-.4 4.6-1c1.4-.5 2.8-1 4-1.8 1.2-.7 2.4-1.6 3.4-2.8.6-.5 1-1.2 1.5-1.8.4-.7.8-1.4 1.4-2zm-13 19c3.6.4 7.1.3 10.6-.3 1.7-.3 3.5-.6 5.2-1.1l5.1-1.4c3.4-1 6.7-2.3 10-3.6l9.9-4.1.2.3c-2.9 2.2-6 4-9.3 5.7l-5 2.2a51.7 51.7 0 0 1-15.9 3.9c-3.7.3-7.4-.1-10.8-1.6zm-68.6-18.2a12 12 0 0 1 3.4.3l2.9.5c.9.1 1.8.2 2.7.1a7 7 0 0 0 3-.6c-.2 1.3-1.2 2.3-2.4 2.9-1.2.6-2.5.7-3.8.6a9.8 9.8 0 0 1-3.4-1.2c-.9-.8-1.7-1.6-2.4-2.6zm16.2 5.2c1.8.5 3.3 1.3 4.8 1.9 1.5.7 3 1.2 4.4 1.5 1.4.3 2.9.3 4.4.1 1.5-.2 3.1-.8 4.9-1.2a9.7 9.7 0 0 1-9.9 4.1c-1.9-.4-3.6-1.3-5-2.4a19.5 19.5 0 0 1-3.6-4zm23.6 7.5a23.2 23.2 0 0 0 5 3.8l2.6 1.4 3.1 1.3c-1 .8-2.4 1-3.6 1-1.3 0-2.5-.4-3.7-1.1a8 8 0 0 1-2.8-2.7 6.6 6.6 0 0 1-.6-3.7zm14.5 13c.1 2.4 1.1 4.5 2.4 6.1a11 11 0 0 0 5.1 3.4l1.8.7c.6.3 1.3.7 1.9 1.3a6.5 6.5 0 0 1 1.7 4c.1 2.7-.6 4.8-.5 7.2-1.3-2.2-1.3-4.9-1.8-6.9-.3-1-.7-1.8-1.3-2.3-.6-.5-1.5-.8-2.7-1.2a14.2 14.2 0 0 1-3.5-1.9c-1-.9-1.9-1.9-2.5-3.1a7.6 7.6 0 0 1-.6-7.3zm11.4 29.7c.4 1.8 1.4 3 2 4.9.3.9.5 2 .3 3.1a6.9 6.9 0 0 1-1.2 2.9c-1.1 1.6-2.4 2.8-3.5 4-1.2 1.2-2.2 2.2-2.4 4.1-.5-.8-.7-1.8-.5-2.8a8 8 0 0 1 1.1-2.7c.9-1.6 2.1-2.9 2.9-4.2.4-.6.7-1.2.9-1.9.2-.6.2-1.2.2-2l-.2-2.6c-.1-.9-.1-1.9.4-2.8z"/>
        </g>
      </g>
    </g>
    <g stroke="none" fill="#000">
      <path d="M311.3 259.9c2.5 2 4.2 4.8 5.5 7.8 1.3 3 2 6 2.7 9.1l1.9 9c.7 2.9 1.7 5.8 3.1 8.6a20.4 20.4 0 0 1-5.3-7.9c-1.2-3-2-6-2.6-9.1l-1.9-8.9c-.9-3-1.9-5.9-3.4-8.6zm-26.3.4c2 2 3.4 4.6 4.3 7.3.9 2.7 1.3 5.5 1.6 8.3l.1 2.1.1 2.2-.3 1.4-.8 1.3c-.6.7-1.2 1-1.6 1.4-1.8 1.6-3.2 4-3.8 6.7-.7-2.8.2-5.9 2.1-8.3.5-.6 1.1-1.1 1.3-1.5.3-.4.3-.5.3-1.1l-.4-4a103 103 0 0 0-.9-8 32 32 0 0 0-2-7.8zm-27.3 5.1c-1.4.3-2.2 1.3-2.8 2.4l-1.9 3.5a74.6 74.6 0 0 0-3.5 6.9 18 18 0 0 0-1.6 7.2c-.1 2.5.4 5 1.8 7.4a8.4 8.4 0 0 1-2.8-3.1c-.7-1.3-1.1-2.7-1.3-4.1-.4-2.9.1-5.9 1.2-8.5 1.1-2.6 2.6-5 4.3-7.1l2.7-3.1c.5-.5 1.1-.9 1.8-1.2.3-.1.7-.3 1.1-.3h1zm-11.4 52.2c-.3 2.4-.8 4.6-1.2 6.9l-1.1 6.7c-.3 2.2-.6 4.4-.5 6.5.1 2.1.6 4.2 2.2 6a5.3 5.3 0 0 1-2.9-2.2c-.7-1-1.3-2.2-1.6-3.5a18 18 0 0 1-.1-7.3c.4-2.3 1-4.7 1.8-6.9s1.9-4.3 3.4-6.2zm-12.9 45-2.4 5.8a37.7 37.7 0 0 0-1.9 11.7c0 2 .2 4.1.4 6.2a16.8 16.8 0 0 1-2.8-12.7c.4-2.2 1.1-4.4 2.3-6.3 1-1.8 2.5-3.5 4.4-4.7zm12.7 28c-.7 2-1.4 4-1.9 5.9a54.3 54.3 0 0 0-1.9 11.7l-.1 6.2a14.5 14.5 0 0 1-2.2-6.1c-.3-2.2-.3-4.4 0-6.5.4-2.2 1.1-4.3 2.1-6.2.9-1.9 2.3-3.7 4-5zM285 327c.9-.5 2.3-.4 3.3.1 1.1.5 1.9 1.4 2.6 2.3.7.9 1.2 1.9 1.6 2.9l.9 3c.5 2 .8 4 1 6.1.2 2.1.2 4.1-.2 6.2-.9-1.9-1.5-3.9-2.1-5.8l-1.6-5.8c-.5-2-.8-3.8-1.6-5.5-.8-1.6-1.7-3.2-3.9-3.5zm38.8 1.2a34.2 34.2 0 0 1 5.6 14.9 35.5 35.5 0 0 1-1.3 15.8l-.8-7.8c-.2-2.6-.5-5.1-.9-7.6l-1.2-7.6-1.4-7.7zm21.7 10.2a6 6 0 0 1 2.7 1.6 9.4 9.4 0 0 1 2.9 5.2c.2 1 .2 2-.1 3.1a10 10 0 0 1-2-2.2l-1.5-2.3-1.2-2.5-.8-2.9zM307 375.9c2.6.2 5 1.7 6.9 3.5a18 18 0 0 1 4.2 6.7c.9 2.4 1.5 5 1.9 7.4.4 2.5.6 5 .8 7.5a30.8 30.8 0 0 1-3-7c-.8-2.4-1.5-4.7-2.4-6.9a33 33 0 0 0-3.2-6.2 22.6 22.6 0 0 0-5.2-5zm.9-55.1c-.2-1.8-.1-3.6-.1-5.3l.2-5.1.3-5.1c.2-1.7.3-3.4.7-5.2.9 1.6 1.4 3.4 1.7 5.1.3 1.8.4 3.6.3 5.3a23.5 23.5 0 0 1-3.1 10.3zm-38.2-28 .7.4c.2.2.3.5.3.8l.1 1.6-.4 2.9-1.3 5.4c-.4 1.7-.6 3.4-.6 5.1 0 1.7.4 3.4 1.3 5.2a7.4 7.4 0 0 1-3.6-4.8c-.5-2-.4-4.2 0-6.2.5-2 1.2-3.8 2-5.5l1.2-2.5.5-1.2c.1-.4.1-.8-.2-1.2zm5.1-49.8c.8 1.7 1.3 3.4 1.5 5.3.2 1.9-.1 4-1.2 5.8-1 1.8-2.5 3-3.7 4.2-1.2 1.2-2.4 2.2-3 4-.4-.9-.3-1.9-.1-2.9.3-1 .8-1.8 1.3-2.6 1-1.6 2.2-2.8 2.9-4.1.7-1.3 1.1-2.8 1.4-4.4.4-1.7.5-3.5.9-5.3zm56.5 67.5a57.4 57.4 0 0 1 10.5 6.5l4.6 3.8a13 13 0 0 0 5.2 2.7c-2 .8-4.5.3-6.4-.6a58.7 58.7 0 0 1-9.9-7.6c-1.4-1.5-2.8-3-4-4.8z"/>
    </g>
  </g>
</svg>
