<svg xmlns="http://www.w3.org/2000/svg" fill="#d7374a" stroke="#000" viewBox="50 50 200 200">
  <metadata author="Jacques63" source="https://upload.wikimedia.org/wikipedia/commons/c/cf/Meuble_h%C3%A9raldique_rat_rampant.svg" license="https://creativecommons.org/licenses/by-sa/4.0"/>
  <g id="ratRampant" stroke-width="2.34" transform="translate(157.5 47) scale(-0.164 0.164)">
    <g transform="rotate(8.6292947,-753.34338,-5069.3065)">
      <path d="M1191.6 20.2c4.4 8.5 8.6 17.4 14.3 22.4 4.3 2.1 13.6.4 20.4-.9 6-2.7 5.7-5.3 13-11.5 4.2-1.9 7.5-2.3 10.7-2.6-1.3 3.3-2.4 2.8-3.6 3.8 2.6-.7 5.4-1.4 7.2-.6-2 3.4-4.4 5-6.6 7.5 2.2-.3 4.3-.7 7.1-.2-1.4 1.6-3.1 2.3-7.5 5.8-6.4 7.1-12.8 11-15 10.9-2.3 1.3-31 6.7-35.7 3.5 1.6 3 2 5.1 1.3 6.3-2.3-.7-5-5.4-7.7-9 .6 0 2.3 7.2.3 6.5-9.6-6-20-33.3-19.4-33"/>
      <path d="M1247.3 38.1a41.5 41.5 0 0 0-7.1 5.1M1247 31.4c-4.8 2.7-7 4.5-10 6.5"/>
    </g>
    <g transform="rotate(15.008523,84.92449,-2917.2321)">
      <path d="M1171.8-48.1c-7.5-13.9-22.2-4.2-26.6-7.6-31.7 5.9 3.8 42.4 25.5 28.6.6-.9 8-6.3-1.2-17.8 1-.8 1.8-.5 2.3-3.2z"/>
      <path d="M1156.2-48c-3.9 9.9 6.8 15.3 17 10.7-2.7-6.9-7.4-14.5-17-10.8z"/>
      <path d="M1170.4-45.2c-4.9-.4-10.4 1.3-14-3.2A27.7 27.7 0 0 0 1143-55c7.2-4.5 34.7-.1 27.4 9.7z"/>
    </g>
    <g class="secondary" transform="rotate(30.304038,105.43984,-1223.2406)">
      <path d="M1070.9 199.7c5.6 13 32 30.4 64.7 15.4 34.5-14 94.1-70 130.3-86.9 32.6-19.4 77.7-18.9 90.8-11-26.6 1.3-56.4 2.2-83.1 18.7-33.7 18.1-106.9 81.7-118.7 86.4-18 11.8-59.6 27.6-91-5a97 97 0 0 1-14.8-26.3c6.7-12 14-6.6 21.8 8.7z"/>
      <path d="M1074.6 205.4c-4.3 0-11.2 2.5-13.4 8.4M1087.2 215.5c-4.3 0-11.2 6.2-11 11.5M1104.8 220.6c-4.3 0-6.3 9.6-5.1 15.3M1120.6 220.1c-6 1-5.7 12.2-.5 15.5M1138.3 214.1c-4.3 3.4-.8 13.4 4.6 14.8M1153.5 206c-2 5 4.7 13.3 8.5 12M1169.2 195.4c0 6.2 4.7 10 7.3 11.8M1184 184.7c-.1 6.1 4 9.5 6.5 11.3M1198.2 174.4c2.8 5.3 4.8 7 7.2 10M1213.6 162.5c1.6 4.2 4.1 6.5 7.2 9.7M1228.7 151.5c.1 3.2 2.7 7.4 5.8 10.6M1245.6 139.6c-1.1 3 .3 8.7 3.4 11.9M1259.8 131.7c-1.1 3 .5 6.9 3.5 10M1271.7 125.2c-1.1 3 .3 6.5 3.4 9.7M1287 119a15 15 0 0 0 2.6 8.6M1305 114.2c-1 3.2-.8 7.5.6 8.4M1319.5 112.2c1.4 3 1.5 6 1.8 7.6M1332.3 112.1c1.4 3 .7 4.6 0 6.4"/>
    </g>
    <path d="M473.8 111.3c-11.7-2.6-26-4-39.9 1.4-8 1.5-26.6 2.3-66.7 28.4-9.4 6.3-19.9 23-26.4 37-3.8 17.5-8.5 24.8-13.2 33-11.7 9.2-19.7 10.4-28.6 17.5-1.6 1.8 8.6 1.3 6.5 2.7-13.7 1.6-26.2 12.8-28.5 14.4-2.3 1.6 8.4.7 6 2.5-2.4 1.5-21 6.6-23.7 11.4-2.4 1.8 8.7-1 6.3 1-12.7 10-32.6 24.2-35.7 30-3.3 4.3 8.3-1.5 5.5 2.6-2.7 3.7-16.2 9-20.3 17.7 3.5 1.9 8.9-4.1 5.6 1.2-7.6 10.7-18.4 23.2-20.7 42.4-.7 3.9 4.5-4.7 4-.8-20.4 36-7.5 75.4 2 101l-2 17.3 8.7-6.6-8.6 13.2 13.2-4.7s-1 1-4 5.3c-2.6 3.9 8.6 1.6 8.6 3.3 42-28.1 88.2-55.6 108.3-87.2 23.5-24.8 47.2-49.5 53.5-78.6 13-11.8 28.4-27 27.1-66.7.5-4 6 8.6 6 2.7.6-16.5-1.7-37-4.7-47 30.5-18.2 37.3-30.5 48.5-54.6 5.3-6.1 14.6-7.4 15.8-21.6 12.9-7 4.1-18.1-2.6-18.2z"/>
    <path fill="#f6f6f6" d="M435.8 131.1c-1.2-5.2-6.8-4.6-10.2-5.5l-8.8 10.7 2.4-.5c2.6 7.4 7.2 5 10.1 4 4-2.1 6-5.1 6.5-8.7z"/>
    <path fill="#000" d="M430 128.9c2.6 2.2 2.2 2.4 2.4 3-1.3 3.8-2.9 2-4.4 2-.9-1.8-.8-3.4 2-5z"/>
    <g fill="none">
      <path d="M435.6 86.3a52.2 52.2 0 0 1 16.5 23M444.3 84.8c8.5 7.9 12.1 16 15 24.2M465.3 79.4c2.7 2.9 0 30.1-.7 30.4M477.4 84.6a132.3 132.3 0 0 1-6.7 24.9M490.8 94.1c-10.3 3.3-12.4 9.8-17.1 15.2M474.4 138.5c.3 10.5 1.1 19 2.6 25M470.3 144.2c-7.1 20-7.9 42.2-9.5 63.5M454.3 166.4c-5.3 18.7-3 30-4 44.1"/>
    </g>
    <path d="M466.7 140.3c-1 3-.4 5.8-6.3 9M468 131c-.1-.6-1.6-2.7-4.8-.4M462.6 122.7c1 1.8-.7 3.9-1.2 3.7M459 130.4c-1 .7-2.2 1.5-1.2 2M458.6 138.3l-3 1.5M450.6 146.4c.6 2-1.1 1.8-2 2.3M462.4 141.1c-2.5-.1-12.9 23.7-12.6 24.1M385.9 215.4l-1.5 2M394.2 215.6l-1.6 3.7M372 226.7l-3 4.7M376.7 202l-4 3.8M380.2 203.6l-3.6 5.1M381 211.3c-.8.6-1.3 1.7-1.3 1.7M369.5 215c-.7.5-3.2 4.5-3.2 4.5"/>
    <g transform="rotate(2.5953793,-3486.3333,-17295.132)">
      <path d="M1171.8-48.1c-7.5-13.9-22.2-4.2-26.6-7.6-31.7 5.9 3.8 42.4 25.5 28.6.6-.9 8-6.3-1.2-17.8 1-.8 1.8-.5 2.3-3.2z"/>
      <path fill="#000" d="M1156.2-48c-3.9 9.9 6.8 15.3 17 10.7-2.7-6.9-7.4-14.5-17-10.8z"/>
      <path d="M1170.4-45.2c-4.9-.4-10.4 1.3-14-3.2A27.7 27.7 0 0 0 1143-55c7.2-4.5 34.7-.1 27.4 9.7z"/>
    </g>
    <g transform="rotate(36.266159,185.58566,-1014.625)">
      <path d="M1142.1 108c-1.6 12 23.9-9.8 25.5-13.3 3.6-6.2 4.2-9.7 9.3-14.2 10-6.8 15.3-5.2 22.3-6.9-1.1 2.3-2.8 4-5 5.4 3.8.9 9.6 0 11.4 2.4-4.6 3-11.1 5.4-13.9 9.1 2.4 0 6-.8 9 1-6.4 3.1-12.7 5.6-17 9.4-20.3 17.4-51 40.2-58 43-4.8 4.7-8 1.5-12.1 2.2"/>
      <path d="M1192 90.2c-5.1 1.2-8 3-11.6 4.7M1194.4 79c-8.9 3.3-13.9 8.3-19.5 13"/>
    </g>
    <g transform="rotate(8.6292947,-938.16826,-5068.5677)">
      <path d="M1191.6 20.2c4.4 8.5 8.6 17.4 14.3 22.4 4.3 2.1 13.6.4 20.4-.9 6-2.7 5.7-5.3 13-11.5 4.2-1.9 7.5-2.3 10.7-2.6-1.3 3.3-2.4 2.8-3.6 3.8 2.6-.7 5.4-1.4 7.2-.6-2 3.4-4.4 5-6.6 7.5 2.2-.3 4.3-.7 7.1-.2-1.4 1.6-3.1 2.3-7.5 5.8-6.4 7.1-12.8 11-15 10.9-2.3 1.3-31 6.7-35.7 3.5 1.6 3 2 5.1 1.3 6.3-2.3-.7-5-5.4-7.7-9 .6 0 2.3 7.2.3 6.5-9.6-6-20-33.3-19.4-33"/>
      <path d="M1247.3 38.1a41.5 41.5 0 0 0-7.1 5.1M1247 31.4c-4.8 2.7-7 4.5-10 6.5"/>
    </g>
    <path d="M313.9 241.8c-2.2 1.4-4.6 1.8-6.5 4.5M302 244.3c-2.5 0-4.8 2.2-7.2 4M311.9 238c-2.1 1-4.2 2-5.9 4.6M292.7 261.7c-1.8 1.6-4.6 2.9-5 5.1M286.8 258.5l-3 3M301.6 251.4c-1.8 1.3-3 2.7-3.6 4M331 223c-2.1 1.2-4.3 2.7-6.6 5M321.6 232c-1.4.5-3 .9-3.6 2M334.5 225.8c-1.9 1-4.6 1.4-5.2 3.1M323.4 235.3c-1.7 1.3-3.5 1.6-4.1 3M311.2 252.8c-1.8 1.3-3 2.7-3.6 4M300.8 266.4c-1.5 2-4 3.7-4 6M272 269c-1.9 1.5-4.8 2.6-5.3 4.8M270.4 275.5c-2 1.5-4.5 2.9-5.1 5M275.9 278.5c-2 1.5-4 3.7-4.6 5.9M256 303.3c-2.4.4-3.5 2.3-3.9 5.2M248.3 294c-2 2.2-4.7 4-5.1 6.8M254 295.2c-5.4 2.2-10.7 12.6-15.6 15M244.8 318.8c-1.9 2.2-4.7 4-5.1 6.8M239.8 314.7c-1.9 2.1-4.7 4-5 6.7M235 311.3a14 14 0 0 0-3.9 7.3M235 326.5c-1.9 2.1-3.5 4.2-4 7M224.3 341.6c-2.4 1.6-4.5 3.3-5.6 6M230.4 322c-2 2.2-3.6 4.3-4 7M228.9 344.5c-2.4 1.7-4.5 3.3-5.6 6M216.7 356c-2.4 1.6-2.7 6.2-2.2 8.2M247 398.7c-1 2.8 1.4 6.6 3 8M230 352.3c-2.5 1.6-2.8 6.2-2.3 8.3M221.7 358c-2.4 1.7-2.7 6.3-2.2 8.3"/>
    <g transform="rotate(19.451339,-282.28942,-2119.9839)">
      <path d="M1024.5 86c10.3-31.3 98.4-77.8 116.5-21 5 11.4-2.6 79-24.1 83.6 14-3.2 19.8-.1 38.2-7.4 12.5-9.3 23.3-15.1 36.3-13.9-3.5 4.3-9.5 5-13 7.5a21 21 0 0 1 15.3 4.7c-5.2 1.4-13.2 1.3-19.4 4.1 3.6-.5 14.3.4 16.3 5.5-7-.3-19.6 1.2-22.5 3.4-5.2 3.4-28.4 4.4-47.4 12.8-12.8 4.9-18.4 2.7-20.5-4.9-1.6-3-15.7 11.3-18.4 13.2 2.7-4.5 2.7-7.9 1.8-11-.3-.7-5.3 3.9-7 5.8-12 11-7.2 4.7-1.3-7.4 1.5-2-9.3 8.3-15 12.8-2-3.8-2.3-7.5 1.6-10.3"/>
      <path d="M1178.3 134.6c-7.1 1-10 3.9-14 6.1M1173 143.5c-8.4 4.3-7 2.1-10.4 4.3M1104.7 57.6c-.2-.6-5.7-4-7.6-.7M1108.4 44.4c-.2-.7-6.4-3-8.4.3M1118.7 46.6c-.2-.6-3.2-2.6-6.4-1.2M1116.2 49.7c-.2-.6-3.2-2.6-6.4-1.2M1129.3 57.1c-.2-.6-2.8-5-6-3.6M1134.1 68.2c-.2-.6-1-3.7-3.9-5.3M1124 62c-.2-.6-1.6-2.6-4.6-4.2"/>
    </g>
    <path fill="none" d="M260.2 489.8c15.7-5.8 15.2-5.6 23.1-4.6"/>
  </g>
</svg>
