<svg xmlns="http://www.w3.org/2000/svg" fill="#d7374a" stroke="#000" viewBox="50 50 400 400">
  <metadata source="http://wappenwiki.org" license="https://creativecommons.org/licenses/by-nc-sa/3.0"/>
  <g id="raven" stroke-width=".4">
    <path d="M99.29 97.28c2.35.26 12.67-.56 18.9-.95 6.67-.41 22.84 1.1 25.15.42-.13 1.36-3.35 2.12-4.5 2.65-4.77 2.19-13.55 3.3-17.08 4.28-1.97.54-9.3 2.1-11.32 2.31m8.9-17.4a87.54 87.54 0 01-7.74-.47c4.68 1.32 9.23 2.73 14.3 3.8.9-.55 1.95-1.32 2.3-2.16-1.1-1.1-4.64-1.1-8.85-1.16zm-32.87 32.68l-1.65.24s-.5.4-.4 1.51c.16 1.37 1.39 2.03 1.46 1.86.04-.06-.5-.99-.28-1.57a.91.91 0 01.86-.63zm-4.89-2.13c-.36 1.32.62 2.43.75 2.3.04-.08-.2-.98.23-1.43s.7-.42.8-.37l.47-1.06-1.35-.68c.01 0-.57.18-.9 1.24m16.47-.2c-.32-.87-.9-1.16-.9-1.16s-1.05-.5-1.4.4.14 1.36.14 1.36.65-.24 1.23.13c.79.4.84 1.2 1.09 1.34.3-.38.05-1.54-.16-2.07zm-13.5-3.93l-.79-.88s-.97.05-1.7.64c-.44.36-.87 1.3-.58 1.88.18.02.46-.8 1.15-.86.68-.02 1.06.4 1.06.4z"/>
    <path d="M94.1 114.42s5.4-8.2 5.54-8.5c.31-.88-2.04-1.4-2.04-1.4s-1.25 3.21-1.64 3.7c-.05.07-.03.06-.3.39-.35.13-.9 1.3-.86 1.5-.27.04-.93 1.06-.93 1.46a3.58 3.58 0 00-.95 1.34c-.33.1-1.08 1.05-1 1.35-.12.12-.62.31-1.27 1.04-.3.3-.6.46-.9.42-1.03-.06-1.51-.87-2.36-1a1.5 1.5 0 00-.71.09c-.65.3-1.3-.1-1.36-.35-.11-.63-.58-.7-1.06-.72-.53.04-.72.43-.72.43s.59.08.42 1.12c-.03.14-.04.26-.12.39-.05.09-.26.24-.27.34-.01.26.25.55.74.54.34 0 .59-.15.69-.32.43.18.83.33 1.3.2.16-.03.31-.11.45-.06.16.05.26.2.4.3.18.14.41.15.64.18-.44.12-1.07.25-1.63.13-.4-.08-.73-.16-1.08-.05-.42.13-.57.31-.89.54-.02-.14-.22-.3-.33-.36-.13-.06-.29-.09-.45-.12-.48-.06-1.4.34-1.23 1 .02.08.02.07.1.08.43-.08 1.07.73.87 1.61-.02.12.07.23.15.3.22.2.74.43 1.2.15.43-.29.36-.67.36-.8.33-.14.58-.49.9-.66.49-.25 1.05-.04 1.58.03.58.06 1.17-.02 1.69-.32-.29.43-.61.72-1.17.7-.33 0-.69.05-.95.34-.08.1-.29.28-.42.47l-.27.44s-.31-.28-.88-.16c-.9.2-1 .9-.83 1.36l.05-.01c.04.06.08.13.14.18.65-.44 1.66.55 1.59 1.1.04.16.39.3.96.03.26-.14.48-.3.5-.73s-.19-.3-.11-.69c.06-.39.66-.37.9-.45a2 2 0 00.88-.57c.31-.38.69-1.02.69-1.02s.83-1.25 1.56-1.22l.08.01c.85.13.67.7 1.37.85.7 0 .81-.35 1.53-.25.27.12-.04.77.72.95.63.13.84-.23.84-.23s-.38-1.16 1.01-1.68c.13-.12.13-.69-.73-.88-.5-.17-.8.27-.8.27s-.46-.4-.95-.2c-.21.1-.7.21-1 .17-.17-.05-.94-.2-1.2-.52-.07-.23.47-.83.47-.83z"/>
    <path d="M89.07 102.38c1.4 2.68 5.26 5.12 4.84 7.75-.06.32-.34.6-.37.92s.57-.25.96-.34.63-.01.82-.01c0 .27-.31.96-.31.96l.52-.18c-.01.2-.07.71.05.9.26.36.44-.02.7-.22.59-.5.55-.65 1.15-1.15 1.17-.97 1.32-2.03 2.5-2.86.62-.43 1.72-2.73 1.1-4.63"/>
    <path d="M110.44 105.98c-2.17.3-5.4.94-6.42.88 0 0-6.6 1.03-11.64.1-12.92-2.38-13.9-11.22-18-16.05-1.31-1.97-4.4-3.43-5.2-5.03 0 0 .01.02.13-.13.6-.23.96-.11 1.5-.63.35-.32.3-1.3.33-1.76.04-.44-.32-1.18-.66-1.47s-.75-.47-1.14-.66a4.49 4.49 0 01-2.18-1.9c-.06-.12-.15-.47-.26-.55-.09-.06-.2-.09-.3-.13-.3-.07-.24-.26-.55-.24a1 1 0 01-.49-.05c-.18-.08-.33-.25-.33-.45.01-.41.63-.84.96-.98 2.26-1 2.4-1.47 5.36-1.72 3.56-.3 6.18 1.17 7.4 2.48 3.06 3.34 5.74 4.11 6.8 5.45 5.14 1.33 10.77 1.18 17.74 2.8 4.26 1 11.18 3.17 17.53 4.83 4.07 1.07 7.87 1.72 8.75 2.98-.63.99-2.39 1.69-3.46 2.06-4.88 1.75-11.24 3.09-16.45 5.32"/>
    <path d="M69.3 85.75c.6-.23.97-.12 1.52-.64.33-.3.28-1.28.32-1.75.04-.44-.32-1.18-.66-1.47s-.76-.47-1.15-.66a4.48 4.48 0 01-2.17-1.9c-.06-.12-.15-.47-.26-.55-.09-.06-.2-.09-.3-.13-.3-.07-.24-.26-.55-.24-.23 0-.36 0-.52-.08-1.58.23-3.58.9-4.94 1.35-.8.25-.98.4-1.82.73a7.44 7.44 0 00-1.89 1.16 4.26 4.26 0 00-1.22 1.62c-.13.48-.31 1.04-.14 1.43.28-.36.53-.47.53-.47a8.38 8.38 0 013.14-1.26c2.16-.39 3.03-.15 5.23-.37a11.57 11.57 0 013.42.02c2.04.43 2.42 1.56 2.57 1.74v.02c-3.26-1.5-5.35-.55-7.82-.37-1.21.1-3.2.21-4.47.4-.84.12-1.32.25-1.47.36-.16.09.01.07.2.15s2.08.18 2.9.26c.67.07 1.59.08 2.92.13 1.88.07 5.22.2 6.57.61zm30.26 38.5l-1.59.52s-.42.48-.14 1.56c.4 1.32 1.7 1.78 1.76 1.6.02-.08-.67-.9-.55-1.51s.62-.76.74-.76zm-5.17-1.3c-.15 1.36 1.01 2.3 1.11 2.14.03-.1-.36-.92 0-1.46.33-.52.61-.53.73-.49l.3-1.12-1.46-.44s-.54.26-.68 1.37m16.2-2.92c-.46-.8-1.07-.98-1.07-.98s-1.13-.33-1.33.6c-.2.96.37 1.33.37 1.33s.6-.34 1.22-.08c.84.28 1.03 1.06 1.3 1.15.25-.43-.2-1.52-.48-2.02zm-13.96-1.64l-.9-.74s-.97.21-1.58.91c-.38.43-.64 1.43-.27 1.95.18 0 .32-.87 1-1.04a1.43 1.43 0 011.1.22z"/>
    <path d="M105.96 116.22s3.97-8.98 4.05-9.28c.17-.92-2.25-1.05-2.25-1.05s-.69 3.4-1 3.93l-.23.44c-.33.18-.68 1.44-.6 1.6-.26.1-.75 1.22-.69 1.62a3.4 3.4 0 00-.7 1.48c-.3.16-.88 1.21-.77 1.5-.09.13-.54.4-1.06 1.23-.26.35-.52.55-.84.56-1.01.12-1.62-.6-2.48-.6-.28 0-.61.15-.69.21-.58.4-1.3.1-1.39-.12-.22-.6-.69-.6-1.17-.52-.52.13-.64.55-.64.55s.59-.01.6 1.03c0 .14 0 .27-.04.4-.04.1-.22.29-.2.38.02.26.32.5.83.41.34-.06.54-.26.62-.42.46.1.87.19 1.31-.02.15-.06.29-.15.45-.14.17.02.28.15.43.23.19.1.44.1.66.07a3.82 3.82 0 01-1.6.4c-.4-.01-.76-.04-1.07.13-.39.2-.5.4-.79.69-.05-.13-.27-.26-.39-.3-.14-.05-.3-.04-.46-.04-.48.01-1.32.57-1.05 1.18.04.08.04.07.12.06.41-.15 1.17.53 1.13 1.44 0 .12.1.2.2.27.24.16.8.3 1.2-.06s.24-.72.22-.85c.32-.2.5-.58.8-.8.43-.32 1.02-.21 1.56-.24.58-.02 1.15-.2 1.61-.58-.22.47-.48.8-1.04.88-.31.05-.66.16-.88.5-.07.11-.24.32-.33.53l-.2.48s-.35-.23-.9-.03c-.85.34-.84 1.06-.59 1.49l.05-.03.17.16c.57-.55 1.73.26 1.76.82.07.15.43.24.96-.12.23-.18.43-.38.38-.8s-.24-.27-.24-.66.59-.48.82-.6c.33-.18.59-.4.75-.7.25-.41.52-1.12.52-1.12s.63-1.36 1.34-1.45h.08c.87-.01.8.57 1.5.6.69-.1.72-.47 1.47-.48.28.06.09.76.87.8.65.03.78-.38.78-.38s-.56-1.07.71-1.82c.12-.14.01-.7-.86-.75-.52-.08-.75.4-.75.4s-.5-.32-.96-.04c-.18.12-.65.33-.95.33-.17-.01-.95-.04-1.26-.31-.1-.22.32-.9.32-.9z"/>
    <path d="M84.77 89.53a13.13 13.13 0 00-1.94 1.45c-.99.97-.72 2.03-.43 3.1s2.72 4.94 4.91 6.65c1.73 1.56 4.85 2.34 8.58 2.75 2.47.28 6.1-.15 9.91-1.27.69-.2 2.35-.3 4.08-1.1"/>
    <path d="M99.01 105.17c1.84 2.4 6.05 4.19 6.06 6.86 0 .32-.23.65-.2.97s.51-.34.9-.5.6-.11.8-.15c.05.26-.16 1-.16 1l.48-.26c.01.2.05.72.21.87.31.31.44-.08.65-.32.5-.59.44-.74.94-1.33.98-1.16.96-2.22 2-3.24.53-.52 1.25-2.97.31-4.74"/>
    <path fill="#f6f6f6" d="M73.07 78.63a4.5 4.5 0 00-2.4.38c-.14.46.13 1 .48 1.35a1.04 1.04 0 00.28.2c.28.15.65.12.95 0 .23-.11.44-.27.57-.49.08-.13.12-.26.15-.4l.07-.38c.03-.18-.04-.47-.1-.66z"/>
    <g fill="#000" stroke="none">
      <path d="M991.6-280.2c3.8-.3 13.6-1.2 4.7.3a281.4 281.4 0 01-30.3 4.4l-13.8-3.8c19.3-.4 34.6-.6 39.4-.9zm-1.8 11c3.3-.8 4.2-1.3 7.4-2.3-3 1.3-3.3 1.5-6.2 2.6zM740.2-64.7c-3.3 2.1-5.6 5.3-8.6 7.7l-1.2-2.7c3.4-1.4 6.2-4 9.8-5zm-45.8 4.9c-.3-1.7-2.2-4.2-1.7-5.3.9 0 2.8-1.2 2.5.2-.2 1.7-.1 3.8-.8 5.1zm27.2-11.8c2.6-.1 5.3.2 8-.2 2.1-.7 5.6-2.3 7.2-.8-3.3-.3-5.6 2.6-8.7 3-1.9.4-5.7 2-6.6.4l.1-2.4zM703.9-89c.4 2.8-.7 7-2.9 8.2a10 10 0 00-.1-7.6l3-.6zm52.8 17.9a7.7 7.7 0 011.5-7.4c.5 1.2-.5 3.2.3 4.6.5 1 1.1 1.6-.2 2l-1.6.8zm17.1-36.2c-1.6-1.1-4.5-2-5.7-2.5 0-.9-.2-1.7-.3-2.6 1.8 0 3 1.3 4.2 2.4.5.8 2 2 1.8 2.7zm-7.3 10.5a7.8 7.8 0 00-5-2.5c-.6.3-.4-1-.7-1.5-.1-.6-.7-1.7.5-1.3 1.5.2 2.6 1.4 3.7 2.4.4.6 2.2 2.5 1.5 2.9zm13.7-14c-6 8.6-12.2 17.2-18.5 25.8 5.8-8.7 11.6-17.5 17.2-26.3zM758.9-86c-.8-1-2-1.4-3.2-2-.8-.3-1.7-.7-2.7-.7v-3c1 .1 1.8.9 2.7 1.4 1 .7 1.6 1.7 2.3 2.6.4.5.8 1 1 1.6l-.1.1zm-48.6 41.4c1 1.1 1.8 2.3 2.5 3.5s1.2 2.5 1.5 3.9l-.3.1a16 16 0 00-5.6-5.2zm98.6-98.8c-4 2.6-3.1 6.8-4.8 8.2-1-3-.4-5.8 1-8.2zm-13.7 4.5c.5 4.5-.7 9-2.3 13.3-2.6-4.1-1-10 2.3-13.3zM562.7-347.6c1.1-1 3-.9 4.2 0 .6.5 1.3 1.3 1.3 2.1-.8.5-2 0-2.7-.2-1-.5-2-1-2.8-1.9zm7.5 7c1.5-.7 3.2-.5 4.5.5.8.6 1.5 1.5 1.8 2.5-1.7.2-3.5-.5-4.9-1.6-.5-.4-1-.8-1.4-1.4zm43.2 31.4c-2.1-.8-4.3-1.7-6.6-1.6-2.2.2 0-2.4 1-2.5 2.7-1.3 6 1.2 5.6 4.1zm45-9.9c-2 1-4.2 1.9-6.3 1.3-.9-2.7 4.5-4.3 6-1.9l.2.3zm-64.2-26c3 .7 6.2 1.7 9.3.8 2.5-.4 4.9-1.3 7.3-2.1.6 1.3-1.7 2.5-2.6 3.3-4.2 3-11.3 3-14-2zm30.2-5.9c1.8-2.3 5.2-1.9 7.6-.7 1.3.7 4.8 1.1 1.8 2.6-2.9 1-5.6-1-8.3-1.6-.4 0-.7-.2-1.1-.3zm4.7-6c-4 2.2-9.4 3.7-13.6 1-1.2-.5-2-2 0-1.5 4.5.5 9.1-1 13.6.4z" transform="matrix(.13 0 0 .13 -6 126)"/>
      <path d="M599-363.5c2.4-.3.6 2.7 1 5.6s2.8 5.6.2 5.9c-2.5.3-5.9-3.4-6.4-6.9s2.6-4.2 5.2-4.6z" transform="matrix(.13 0 0 .13 -6 126)"/>
      <path d="M648.6-313.3c-1.4 1.1-4 2.2-5.4.5.6-2.4 4.6-2.8 5.4-.5zm-16.8 9.5c-1.8 0-3.3-1.9-2.5-3.6 2-1.3 4.2 2 2.5 3.6zm-9.7-2.5c-1.8 0-3.3-1.9-2.5-3.6 2-1.3 4.2 2 2.5 3.6zm20.8-.4c-1 2.2-4.5 1.5-5.1-.5 1.2-2.3 4-1 5.1.5zm-52.4-53.4c-2.8 1-6.3 2.7-9 .8-1.8-2-1-2 .8-.7 2.6.5 5.3-2.9 7.1-2.3l1.1 2.2zm17.9-5.8c3.2.7 6.6.9 9.4 2.7-3.2.4-6.5.2-9.7.1l.3-2.8zm-23.8-2.7c6.1-3.4 14-6.8 20.8-3.4 1.6.8 4 2.9.4 1.5-7.2-1.3-14 2.2-21.2 1.9zm-44.2 15.1c-3.6-1.8-.4-5.7 2.4-6 2.3-.4 5.1.2 6.4 2.3a25 25 0 00-8.4 1.7c-.5.5-.5 1.3-.4 2zM835.8-46.2c-3 2.5-4.6 6.1-7.1 9-.5-1.1-2.7-2.6-.7-3.2 2.6-2 4.9-4.4 7.8-5.8zm39.6-.2c-1-3-1.4-8.4.5-10 1.6.5 2.8 1.1 1.2 2.7-1 2.2-1.5 4.7-1.4 7.2h-.2zm-84 12.6l-2.9-4.8c1.6-.7 3.7-2 3 1.1-.1 1 .6 3-.1 3.7zM816.3-50c2.5-.5 5-.6 7.4-1.3 1.7-1.1 7-3.6 7-2.1-3.1.6-5 3.6-8.1 4.6-1.6.5-5 2.5-6 1.2l-.3-2.4zM796-64.1c.7 3 .5 6.2-1.1 8.8-.5-1.1.3-3.3-.4-4.8.1-1.2-2-2.8 0-3.2l1.5-.8zm55 8.9c-1.4-2.3-1.1-5.3.2-7.5.6 1.2 0 3.6 1.3 4.8 1.6 1-.4 1.6-1.1 2.4l-.4.3zm11-38.5c-1.6-.5-3.2-1.4-5-1.5-.7.5-1.3-.2-1.2-.9-.1-.6-.7-1.4-.4-1.8 1.6-.3 3 .7 4.2 1.6l2.5 2.2-.1.4zm-5.5 11.5a7.1 7.1 0 00-5.4-1.6c-.6.3-.5-1-.8-1.3-.1-.4-1-1.5.1-1.4 2 0 3.6 1.1 5 2.3.5.5 1.3 1.3 1.4 1.8l-.3.2zM867.7-98c-4.5 9.4-9.2 18.9-13.9 28.3 4.4-9.8 8.8-19.6 13-29.5zm-17 27.7c-.9-.9-2.2-1.1-3.3-1.4-1-.2-1.9-.5-2.8-.2l-.5-3c.7.1 1.5.2 2.2.5l2.1 1.3c1 .7 2 1.4 2.5 2.5l-.2.3zm-41 48.9c1.6 1.3 3 2.8 4 4.5.4.6 1 1.5 1 2.1-.2.1-.3 0-.4-.1a16.4 16.4 0 00-5.7-3.8c-.2-.1-.7-.1-.4-.4l1.5-2.3z" transform="matrix(.13 0 0 .13 -6 126)"/>
      <path d="M806.7-159.2c-3.3-4.5-9-6.2-12.7-10.3 4.2 3.3 10 3.8 14 7.5 2 1-.7 1.9-1.3 2.8zm82 17.5c3.2 2.2 2.7 6.9.3 9.4-1 1.4-.4 6-1.9 5.5-2.3-3.9-.6-7.6 1.5-11 .2-1.3.3-2.6.1-3.9zm-10.9 13.3c1.4 4.4.6 9-.2 13.5-3.3-3.7-2.7-9.8.2-13.5zm-15.5-30.2c-.4 4.4-1.3 8.6 1.8 12.3 1 1.3 1.6 9.9-.1 5.9-1.4-3.5-3.9-6.5-5.1-10-.2-3 1.7-5.8 3.4-8.2zm20.6-16.5c4.3-1 9 6.6 6.6 8-2.6-2.3-5-5-6.6-8zm-78.2-122.5c-8.3-1.6-16 4.6-24.3 3-3.5-.2-6.4-3-9.9-2.8-2.8.9-2.6 4.8-5.4 5.9-4.3 1-9 2-12.1 5.6-1.8 2-6.2 4.8-2.2.6 3-4 7.1-7.6 12.3-8 2.9-1.4 2.6-5.8 6.1-6.6 4.6-1.5 8.2 2.7 12.6 3 7.7 1.2 15.5-4 23-.5zm-105.3-.2c3.7 3.7 7.5 8.9 6 14.4-.5.5-3.6-1-2.3-2.4.5-4.4-1.7-8.5-4.2-12h.3zm36.5-14.3c1.4 5-1.8 9.7-4.7 13.5a34 34 0 01-6.7 6c-.2-2.4 2.6-5.1 4-7.4 2.6-4 6-7.5 7.4-12.1zm34.5 66.2c3-2.6 6-5.4 9.7-6.9.6 2.7-2.8 5.7-5.5 6.7-1.3.5-2.8.6-4.2.2zm-10 13c3.4-2.1 7-4 10.9-4.8.5 1.4-1.6 2.8-2.6 3.7-2.3 1.5-6 3-8.3 1.1zm-23.4 6.4c3.7 3.4 10.3 1.3 13.5 2.6-3.5 3.7-11.1 3.7-13.3-1.6zm-13.8 9.9c4.5-.4 9 .5 13.3 1.3-1.1 2.2-4.9 2-7.3 1.7-2.2-.4-4.5-1.3-6-3z" transform="matrix(.13 0 0 .13 -6 126)"/>
      <path d="M723.2-216.6c1.3-.2 2.4-.1 3.5-.1l3.3.3c2.1.3 4.2.6 6.5 1.1l.1.4c-1 .8-2.2 1.2-3.4 1.4a13.3 13.3 0 01-7-1 8.6 8.6 0 01-3-2.1zm-5.1-86.2c-.6 2.6-1.8 4.9-2.9 7.2l-1.4 3.5c-.5 1.3-1 2.6-1.8 3.8a19.1 19.1 0 01-6.2 5.5l-3.5 1.9-3.3 1.8-1.5-2.6c2.3-1.4 4.7-2.5 6.9-3.6 2.2-1.2 4.1-2.6 5.5-4.4.7-.9 1.2-2 1.8-3.1l1.8-3.6c1.3-2.3 2.7-4.4 4.5-6.4zm52.8 90.2c14.7 2.9 29.5 5.5 44.2 8.3a104 104 0 01-44.2-8.3zm35.2-23.3c7.2 1.5 14.5 3 22 2.6 5.9 0 11.8 0 17.6.9a96 96 0 01-27.3 1c-4.3-1-8.4-2.4-12.3-4.5zm31.1-18.8a247 247 0 0032.4 3.1c2.8 0 5.2.6 1.3 1a58 58 0 01-33.7-4.1zm26.2-20.4a181 181 0 0025.7 5.4c-8.8 2-18.5 0-25.7-5.4z" transform="matrix(.13 0 0 .13 -6 126)"/>
      <path d="M744.5-199.3c22.9 8.2 48 8.8 71.7 4.2 9.8-2.6 19.4-6.6 28-12 4-2.9 8.8-6.8 7.2-12.3 3 7.4-5 12.8-10.1 16.6a87.3 87.3 0 01-41.8 13.3c-18.7.9-38.2-1-55-9.8zm69.7-47.1c17.1 3.4 34.4 7.9 52 6 9.2-.1 18.8-1.8 26.2-7.6 5.8-1.4 11.7-12.7 11.7-13.3-.7 8.5-8.4 13.8-15 18.1-8.6 5.8-19.5 5.6-29.5 6.2-15.6.1-30.8-4.2-45.4-9.4z" transform="matrix(.13 0 0 .13 -6 126)"/>
      <path d="M788.8-222.6c20.3 6.3 42 4.2 62.6.7 4-1 7.8-3.4 10.8-6.3 5-2.5 9.3-6.4 11.7-11.4-1.7 5.6-6 10.3-11 13.1a24.7 24.7 0 01-16.5 8.2 108 108 0 01-52.3-2l-5.3-2.3zm57.4-41.8c14.4 2.4 29 6.4 43.7 5 7-1.3 13.7-4.3 19.4-8.4a33 33 0 01-23.1 11.4A92.5 92.5 0 01847-264l-.8-.3zm62.8-9.8c-3-3.8-8.5-2.5-12.7-3.8-9-1.6-17.7-3.8-26.2-7.1 12 .5 23.9 3.5 35.3 7.1 1.5.8 3 2 3.6 3.8zm17 5.7c15.7 5 32.2 7 48.6 8.6 16.3 1.5 32.7 2.3 49.1 3.2a289 289 0 01-63.6-2 112.2 112.2 0 01-34.1-9.8zm-20 24.3c17.2 3.2 34.8 2.2 52.2 1.6a793.3 793.3 0 0060.8-5.4 272.6 272.6 0 01-58.1 8.4c-14.6.7-29.2.7-43.6-1.7-3.8-.7-7.6-1.7-11.3-2.9zM886.3-218c16.8.4 33.4-2.3 49.9-5.1 22.9-4.3 45.8-9 68-16l8.6-3.1c-10 5.5-21.1 8.8-32 12a329.4 329.4 0 01-80.6 13.2c-4.6-.2-9.3-.3-13.9-1zm74.8 1.8c37.6 6 75.9 7.2 113.9 6 8.8-.3 17.6-1 26.3-1.9a609 609 0 01-140.6-1.2l.4-2.9zM909.3-183a58.3 58.3 0 0124 1.4 58.5 58.5 0 01-24-1.4zm-9.2-13.2a454.4 454.4 0 00121.2 4.1 458.4 458.4 0 01-121.6-1.2zm-1.5 30l-.9-8.3 3.7 7.5zM688.9-320.6c4.6 4 9.5 7.5 13.6 12 1.4 1 2.6 2.5 4.3 3.2 0 .4-3.4-.9-4.5-1.8-2.7-1.9-5.3-4-8.1-5.6a13.2 13.2 0 01-5.3-7.8zm-10.1 9.9c2.1 1 3.3 3.3 4.3 5.4.6 1.6 1 3.3 1.4 5-2.1-1-3.3-3.3-4.3-5.4-.6-1.6-1.2-3.3-1.4-5zm-15.9 10c4.3 3.3 6.3 9 5.8 14.4a48.3 48.3 0 01-5.8-14.4zm-9.3 12.7c1.7 6.4 2.8 13.6-.1 19.8-.7 1.2-.3-1.9-.5-2.7-.2-5.2-.4-10.6.3-15.8l.1-.7zm-12.7 14.6c.2 4 .5 8.2 1.1 12.2-3.8-2.6-4.2-9-1.1-12.2z" transform="matrix(.13 0 0 .13 -6 126)"/>
    </g>
  </g>
</svg>
