<svg xmlns="http://www.w3.org/2000/svg" fill="#d7374a" stroke="#000" viewBox="50 50 200 200">
  <metadata source="http://wappenwiki.org/images/b/b4/Gustav_Johansson_%28Tre_Rosor%29.svg" license="https://creativecommons.org/licenses/by-nc-sa/3.0"/>
  <g id="rhinoceros" stroke-width="2.5" transform="translate(-33.7 48) scale(0.225)">
    <g>
      <path class="secondary" d="M532.2 346.5c-.9-1.3-2.7-.2-5.7 2.2-1.3 1-2.4 2-4.4 2.3-2.4.3-4.9.2-7.3-.3-3.2-.7-8-1.6-8-5.7 0-4.7 2.4-8.3 4.7-12.6 5.4.5 11.1-.8 16.1-3 3.2-1.4 6.5-3.3 10-2.7a12 12 0 0 1 5.9 3.5c2.3 2.2 4.6 4.9 4.8 8.1.3 4.8-3.8 8.6-5.7 13M576.1 369.8c-1.1-1.1-2.7.2-5.3 3.1-1.1 1.2-2 2.4-4 3a22 22 0 0 1-7.2.9c-3.3-.2-8.2-.3-8.8-4.2-.8-4.6 1-8.6 2.5-13.2a51 51 0 0 0 25.5-7.3c1.5-1.1 3.2-2.4 5-1.9a4 4 0 0 1 2 1.4 10 10 0 0 1 2.1 7.5c-.3 2.7-1.4 5.2-2.9 7.4"/>
      <path class="secondary" d="M551.7 350.4a18.9 18.9 0 0 1-19.1 2.7l-1.1-.7c-.4-.6-.3-1.3-.2-2l.9-3.9c.4-1.2.8-2.3 1.7-3.2.6-.6 2.5-2 4.7-2.9 2.5-1 4.5-1.8 7.1-2.3.8-.1 1.6-.2 2.4 0 .9.2 1.7.9 2.3 1.5 1.2 1.1 2.3 2.2 3.3 3.5"/>
      <path d="m513.6 250.6 5.4 10.9c1.8 3.7 8.8 13.4 13.6 6 1-1.6.6-3.6 1-5.5 2.5 9.5-4.4 13.2-.4 40.5 1.1 7.2 1.2 16-7.5 19-2.9 1-6.4.4-9 2.1-2.4 1.5-3.2 5.4-5 8.7 0 3.6 5.1 5.7 7.3 6.2 2.3.6 5.9 1.5 8 1 1.7-.5 3.3-.8 4.9-1.7 1-.6 2.1-1.2 3.3-1.4 1.2-.2 2.5-.1 3.4.7s1.1 2.3.3 3.2c6.4.7 8.5 2.3 10.5 4.9 1.3 1.6 2.2 3.4 2.5 5.1 2.6-.2 4.6-1.6 6.7-3.9 1.1-1.2 1.8-3.4 2.1-5 .3-1.7.4-2.8-.3-4.4-1.3-3.2-4.1-6.5-2.5-12.2 2.6-10.2 7.5-13.7 11.4-20.2 4.3-7.4 4.8-16.2 6.3-24.6a96.7 96.7 0 0 1 7.4-26.5"/>
      <g stroke="none" fill="#000">
        <path d="M551.1 295.9c-3-5.2 1.9-10.7 4.7-14.7 1-1.4 1.8-2.8 2.3-4.5.5 1.8.1 3.8-.6 5.5-1.9 4.8-6.4 8.2-6.4 13.7zM521.4 329.1c.1-2.2 2.6-3.7 4.6-2.9a5.8 5.8 0 0 1-4.6 2.9zM531.1 323.4c0-1.1 1.3-1.5 2.1-2 .6-.3.9-.7 1.5-1.3l1.3-1.3c.4 1.4.1 2.9-1.1 3.8-1.3 1.2-2.4.5-3.8.8z"/>
      </g>
      <path class="secondary" d="M662.1 347c-2.1-1.4-4.3-.8-7.3 1.6-1.3 1-2.4 2-4.4 2.3-2.4.3-4.9.2-7.3-.3-3.2-.7-8-1.6-8-5.7 0-4.7 1.9-7 4.1-11.3 7.8-2.3 15.8-5.8 23.7-7.5 2-.4 4.2-.8 5.8.3 1.1.7 1.8 1.8 2.3 3 2.3 5 2.6 10.9.8 16.1"/>
      <path class="secondary" d="M666.9 340.4c-2.2.9-4.1 2.3-4.7 2.9a7 7 0 0 0-1.7 3.2l-.9 3.9c-.1.7-.2 1.5.2 2l1.1.7a19 19 0 0 0 19.1-2.7c.5-3.6 1.1-7.4 1-11 0-2-.2-4.1-1.3-5.7"/>
      <path stroke-linejoin="round" d="M747.3 147.8c6.9 15.5 2.8 34.3 9.9 49.7 3 6.5 7.8 12 10.7 18.5 6.2 14 3.2 25.9.8 40.9v4.8c.3 2.8 1.5 5.5 1.8 8.3.1.5.1 1.1-.2 1.6-.3.5-.9.8-1.4.5l-.5-.6-2.6-4.6c.2 3.9.3 8.2-2.2 11.2 0-3.5-1-4.1-1.1-7.7-.9 2-3.4 3.9-5.4 4.7.9-1.8 4.1-7.4 3.7-10.5-1.9 1.3-4 1.8-5.8 3.2 0-1.4.8-2.7 1.8-3.8.9-1.1 2.1-2 2.9-3.1 1.3-1.8 3-5.4 3.6-7.5 2-8.7 3.1-15.8 1.4-24.6-1.3-6.8-4.6-11.9-7.9-17.9"/>
      <path d="M475.1 167.6c-5.7.4-9 5.5-20 .6-4-1.8-8.6-8.2-10.9-11.9-1.9-3.2-4.3-6-7-8.5a35 35 0 0 1 21.4-3.1c9.8 1.5 14.6 9.4 19.4 15.8"/>
      <path class="secondary" d="M595.9 370.3a18.7 18.7 0 0 1-18.3 5.9c-.4-.1-.9-.2-1.2-.5-.5-.5-.6-1.2-.6-1.9 0-1.3.1-2.7.3-4 .2-1.2.4-2.4 1.1-3.4.5-.7 2.1-2.4 4.1-3.7 2.3-1.4 4.2-2.9 6.9-3.1s5.7.8 6.9 3.3M727.6 370.3c-1.1-1.1-4.7-.3-7.2 2.6-1.1 1.2-2 2.4-4 3a22 22 0 0 1-7.2.9c-3.3-.2-8.2-.3-8.8-4.2-.8-4.6 1-8.6 2.5-13.2 9.7-1.7 18.5-6.8 27.8-10.1 1-.3 2-.7 3-.5.9.2 1.7.8 2.5 1.4 2.4 2 4.6 4.2 6.6 6.6"/>
      <path class="secondary" d="M736.8 358.4c-2 1.3-5 3.9-5.8 4.3a9.3 9.3 0 0 0-5.3 7.1 26 26 0 0 0-.3 4c0 .7.1 1.5.6 1.9.3.3.8.4 1.2.5 6.9 1.6 13.5-.7 18.3-5.9"/>
      <path d="M649.5 255.4c-2.7 5.3-.6 14.3 2.7 18.9 1.9 2.6 4.4 4.7 6.4 7.3 4.6 5.9 2 15 2.8 22 .8 7.2 1.2 15-7.5 18-2.9 1-6.4.4-9 2.1-2.4 1.5-3.8 6.7-5.5 10 0 3 4.2 4.5 6.4 5a34 34 0 0 0 9.4.9c1.8-.3 3.3-.8 4.9-1.7 1-.6 2.1-1.2 3.3-1.4 1.2-.2 2.5-.1 3.4.7.9.8 1.1 2.3.3 3.2 6.4.7 8.5 2.3 10.5 4.9 1.3 1.6 2.2 3.4 2.5 5.1 2.6-.2 4.6-1.6 6.7-3.9 1.1-1.2 1.8-3.4 2.1-5 .3-1.7.4-2.8-.3-4.4-1.3-3.2-4.1-6.5-2.5-12.2 2.6-10.2 7.5-13.7 11.4-20.2 4.3-7.4 4.8-16.2 6.3-24.6a96.7 96.7 0 0 1 7.4-26.5"/>
      <g stroke="none" fill="#000">
        <path d="M684.5 284.1a29 29 0 0 0 12.8-11.7c.4 6.5-6.3 12.7-12.8 11.7zM649.7 329.1c.1-2.2 2.6-3.7 4.6-2.9a5.8 5.8 0 0 1-4.6 2.9zM659.4 323.4c0-1.1 1.3-1.5 2.1-2 .6-.3.9-.7 1.5-1.3l1.3-1.3c.4 1.4.1 2.9-1.1 3.8-1.3 1.2-2.4.5-3.8.8z"/>
      </g>
      <path d="M551.8 258.6c4.8 13.9.6 31.1 9 49.3 1.2 2.6 2.9 5 3.9 7.7a73 73 0 0 1 4.2 15.2c1 11.4-.8 13.9-3.7 15.5-2.7 1.5-6.2 1.5-8.5 3.6-2.1 1.9-2.2 5.5-3.4 9.4.6 3.6 5.9 4.7 8.3 4.9 2.3.2 6.1.5 8-.4 1.6-.7 3.1-1.4 4.5-2.5.9-.8 1.9-1.5 3-2s2.4-.5 3.4.2c1 .6 1.5 2.1.8 3.1 6.4-.4 8.8.9 11.2 3 1.5 1.4 2.7 3 3.3 4.6 2.5-.6 4.2-2.4 5.9-5 .9-1.4 1.2-3.7 1.2-5.3 0-1.7-.1-2.9-1-4.3-1.9-2.9-5.1-5.7-4.6-11.6.9-10.5 2.3-20.8 4.4-28.2 2.3-8.2 1.5-20.9.8-29.4a102 102 0 0 1 .4-27.6c3.4 3.2 8.7 5.2 15 5.4 7.8.3 10-.5 17.5-2.6 2.8-.8 5.7-1.5 8.5-2.5 6-2.3 13.7-6 22.6-3 12.6 6.1 17.6 4.8 23 5.2 3.2 8.5 3.5 18 11.2 24.2 2.1 1.7 4 6.7 6.4 15.3 2.1 28.7 18.9 26.4 9.8 43.2-2.4 4.5-8.2 3.7-10.5 5.8-2.1 1.9-2.6 6.8-3.4 9.4.6 3.6 3.9 3.8 6.2 4.4 2.5.6 8.9 1.1 10.8.3 1.6-.7 2.4-1.5 3.8-2.7.9-.8 1.9-1.5 3-2s2.4-.5 3.4.2c1 .6 1.5 2.1.8 3.1 6.4-.4 8.8.9 11.2 3 1.5 1.4 2.7 3 3.3 4.6 2.5-.6 4.2-2.4 5.9-5 .9-1.4 1.2-3.7 1.2-5.3 0-1.7-.1-2.9-1-4.3-1.9-2.9-5.1-5.7-4.6-11.6.9-10.5 3.4-16.8 5.4-24.2 2.3-8.2.5-24.9-.2-33.4-.8-9.5-1.2-13.7-.3-20.6.9-5.8 3-11.3 5-16.9 6.7-19 11.1-31.4 5.7-50.8-2-7.1-5.2-13.7-6.8-20.9-1.8-8 .3-15.4-.3-23.4a33.1 33.1 0 0 0-21.1-28.5c-6.9-3.1-14.3-5.2-20.8-9-9.3-5.5-14-14.2-21.4-21.4a34.6 34.6 0 0 0-24.2-8.7c-2.1.1-9.5 2.7-15.8 5.8-10 5.3-37.3 6.4-50.5 6.4-15 0-28.4-5.7-34-5.5a33 33 0 0 0-17.6 7.4c-5.4 4-10.5 8.7-16.5 11.7-9.7 4.8-10.9 3.1-20.3 8a36.7 36.7 0 0 0-6.8 4.9c-7.8 6.6-14 15-24.1 18.4l-20.5 10.3a49.6 49.6 0 0 0-9.8 29.4c.3 7.7 2.2 15.7-.3 23-1.7 4.8-5.1 8.9-6.7 13.8-1.8 5.3-1.9 12.4-2.3 15.8l-10.1 24.7c-.4 3.4-.7 7.1 1.1 10l2.3 3.1c1.9 3.3.7 7.5 1.8 11.1a14 14 0 0 0 6.1 8c3.9 2.1 3.9 3.9 10.1 5.1 1.8.9 5.7-.9 9.8-7.7 7.6 1.7 9.2-2.6 9.8-3.9 3.8-5.9 8-7 12.5-10.1 1.6-1.1 9-7.4 12.3-14.6 5.5-7.9 11-8.9 15.2-10.6"/>
      <path d="M513.6 250.7c3.3-1.3 5.7-3.1 6.5-9"/>
      <g stroke="none" fill="#000">
        <path d="M562.5 354.5a3.4 3.4 0 0 1 4.1-3.6c-.8 1.8-2.2 3-4.1 3.6zM571.1 347.3c-.2-1.1 1-1.7 1.7-2.3.5-.4.8-.8 1.2-1.5.3-.5.6-1 1.1-1.5.7 1.3.6 2.8-.4 4-1.1 1.1-2.3.7-3.6 1.3zM573.1 315.4c3.2 2.2 7.2 5.2 4.1 9.3-.6-1.3-.6-2.4-1.3-3.4-1.4-1.7-2.9-3.6-2.8-5.9z"/>
      </g>
      <path fill="none" d="M539.5 241.6c.7 1.2 1.7 2.3 2.4 3.6 1.2 2.1.3 10.1 9.9 13.5"/>
      <g stroke="none" fill="#000">
        <path d="M537.7 247.6c.8 2.5 1.3 5.4-.1 7.9-1 2.3-2.7 4.4-3 6.8l-2.5-.5c1-4.1 5.2-6.2 5.7-10.3.2-1.3 0-2.6-.1-3.9z"/>
      </g>
      <path fill="none" d="M524.8 206.7a54 54 0 0 0 14.7 34.9"/>
      <g stroke="none" fill="#000">
        <path d="M515.8 216.9c2.9 2.1 5.7 4.4 7.7 7.5 1.7 2.8 1.2 6.3.4 9.3-.8 2.8-2.5 5.2-2.4 8H519c0-4 2.4-6.7 3.1-10.3 2-6.8-3.3-9.3-6.3-14.5zM608.3 218.9c2.6 1.3 2.4 5.6-.4 6.6-.5-2.4-.4-4.3.4-6.6zM610.4 208.4c3.5 1 3.9 6.8.6 8.3l-.1-2.3-.5-6zM611.4 201.7a13.6 13.6 0 0 1-3.1-7.4c2.7 1.3 4 4.6 3.1 7.4zM608.9 235.4c1.1 2 1.1 4.5-.2 6.5-.6.9-1.7 1.4-2.2 2.2-.8 1.6-.2 3.7-.3 5.7-.2 3.1-2 6.2-2 9.1h-2.5c0-3.5 1.7-6.2 2.2-9.3l.1-3.1c.1-1.1.2-2.4 1-3.5.7-1 1.8-1.3 2.4-2a9 9 0 0 0 1.5-5.6zM712 354.5a3.4 3.4 0 0 1 4.1-3.6 6 6 0 0 1-4.1 3.6zM720.7 347.3c-.2-1.1 1-1.7 1.7-2.3.5-.4.8-.8 1.2-1.5.3-.5.6-1 1.1-1.5.7 1.3.6 2.8-.4 4-1.1 1.1-2.3.7-3.6 1.3z"/>
      </g>
      <path d="M683.7 245.9c-.2 3.8.8 7.7 2.9 10.9 1 1.5 2.2 3 2.9 4.7"/>
      <g stroke="none" fill="#000">
        <path d="M712.6 210.4c2.9-.9 5.8-1.4 8.1-3.1 1.6-1.2 2.8-4 5.4-3.8 1.3.1 2.3.5 3.2.8 1.8.6 3.7.7 5.8.5a8.9 8.9 0 0 1-6.2 1.4l-2.8-.4c-.8.1-1.1.4-1.6 1.1-2.6 3.8-7.8 4.4-11.9 3.5zM739.9 210.6c2.8.1 5.8 1.1 7.3 3.8 1.5 2.6.7 5 1.9 7.6-.7-.2-1.2-.7-1.7-1.3-1.2-1.5-1.6-3.7-2.4-5.1-1.1-2.1-3.3-3.3-5.1-5z"/>
      </g>
      <g>
        <g stroke="none" fill="#000">
          <path d="M682.5 245.9c.7-8.8-.9-17.5.1-26.2.9-8.8 3.5-17.2 5.1-25.8.5 8.8-2.6 17.3-3 26-.7 8.8 1.1 17.4.3 26.2l-2.5-.2zM689.1 177.7c-.3-4 1.1-7.9 1.8-11.6.7-3.7.7-7.5.5-11.3-.6-7.7-.8-15.9 1-23.4l.5 11.7c.4 5.8 1.3 11.7.9 17.6-.2 5.9-3.5 11.2-4.7 17zM653.2 232.5c-3-.3-5.4 1.5-7.3 3.5a3 3 0 0 1-1 .9c-.8.6-2.1.1-2.8 0-.8-.1-1.7.1-2.3.6-.7.5-1 1.1-1.9 1.5-1 .4-2 .1-2.8 0-.6-.1-.6 0-1.1.3-.7.6-2.1 2-3.4 2l-1.3-.1c-2.6-.5-5 1.5-7.3 3.4 1.5-2.6 4-5.5 7.3-5.4.8 0 1.3-.1 1.6-.3.4-.2.8-.8 1.5-1.4.6-.7 2.1-1.2 3-.9.9.1 1.5.2 1.6.1.4-.2.9-.9 1.5-1.2.8-.5 1.7-.8 2.7-.9.8-.1 2 .2 2.6.5l.3.1c2.2-2.2 5.9-4.3 9.1-2.7zM658.9 231c1 .6 2 0 2.7-.6 3.6-3.7 6.5-2 10.5-.1-2 1-4.7 0-6.6.5-.7.1-1.6.8-2.9 1.4-1.3.5-3.4.3-3.7-1.2zM552.1 257.4l4.1 1.1c2.7.6 5.1-.7 7.7-1.6 3.5-1.2 7.1-2.3 10.8-2.5 3.8.1 7.2 2.2 10.3 3.9-4.3-.6-8-3.1-12.3-1.9-2.8.6-5.4 1.6-8.1 2.6-2.7 1.1-5.9 2.7-9 1.9-1.6-.3-2.9-.8-4.2-1.1l.7-2.4zM560.6 149.4c-4.2 2-8.7 3.5-12.5 6-1.7 1.3-2.6 3.6-3.8 5.4-1.3 2-2.6 4-4.2 5.9.7-2.3 1.5-4.6 2.5-6.8 1-2.3 2-4.8 4-6.4 4.2-2.8 9.1-3.9 14-4.1zM538 172.5c-1.7 4.3-.4 8.2-.3 12.6-3.6-3.2-4.6-10.3.3-12.6z"/>
        </g>
        <path d="M469.7 164.3c-2-1.2-4-3.1-6.3-6.3-2.5-3.6-3.1-11.5-3-15.8 0-3.7-.5-7.4-1.5-10.9 7.3.5 14.2 3.8 19.8 8.6 2.8 2.4 4.6 5.2 5.7 8.2"/>
        <g stroke="none" fill="#000">
          <path d="M485.6 147.7c1.5 5.2 1.3 10.6 1.4 15.9-.9-5-1.5-10.4-3.7-15l2.3-.9zM480.8 168c-3.8-1.4-8-.6-11.8-2.6l1.3-2.1c2.9 2.4 7.3 2.6 10.5 4.7zM466.5 140.5a20.2 20.2 0 0 1 15.8 17.8 38.5 38.5 0 0 0-15.8-17.8zM466.1 146.6a18 18 0 0 0 14.8 15.9c-8.6 1.6-17-7.4-14.8-15.9zM500.5 240.5c2.5-4.1 2-8.5 3.3-13 .4-1.2.8-2.3 1.5-3.3.2-.3.4-.4.7-.4.2 0 .5 0 .5.2l-.1.2c0-.4-.6.2-.5.3-.5 5.5.5 13.2-5.4 16zM479.5 244.8c1.2-1.9 3.6-3.2 4.4-5.1.3-.9.4-2 .6-3.2.2-1.2.4-2.6 1.3-3.6-.1 1.3.1 2.4.3 3.6.8 5-2.3 6.9-6.6 8.3zM455.1 219.6c1.5-3.1 3.9-5.7 5.9-8.4.8-1.3.5-2.8.6-4.3 0-1.7.2-3.5.5-5.3.7 1.7 1.1 3.4 1.4 5.1.4 1.8.7 4.1-.4 5.8a30.3 30.3 0 0 1-8 7.1zM483.2 200.4c0-4.9 10.9-6.4 13.6-10.5a11 11 0 0 0 2.4-5.1c1.3 4.2-1.7 8.9-5.6 10.6-2.8 1.5-5.6 2-8.4 3.2-.8.3-1.6.8-2 1.8zM506.4 178.1c2.7-.4 6.3.4 7.5 3.5.7 1.8.1 3.5.5 5 .2.6.6 1.2 1.1 1.8 1.1 1.3 2.6 2.7 2.8 4.5-1.2-1.4-2.7-1.9-4.1-3.1a7.6 7.6 0 0 1-2-2.3c-.9-1.7-.2-3.7-.6-5.2-.7-2.2-3.1-3-5.2-4.2zM563 139.9l3.5-4.1c1.1-1.3 2.3-2.8 3.5-4 .9 4-2.9 8.4-7 8.1zM480.4 265c-1.5 5-6.1 8.2-9.4 12-1.3 1.6-1.8 4.2-2.6 6.6-.8 2.5-1.8 5-3.6 7.2l-1.9-1.6c2.3-2.8 3.2-6.5 4.5-10 1.2-3.8 5.1-6.1 7.8-8.8a67 67 0 0 0 5.2-5.4zM450.5 281.1c2.4-1.5 4.9 1.8 3.6 4.2-1.2 1.9-3.3 2.6-5.4 2.4 1-1.4 2.4-2.4 3.2-3.5.5-1.3.1-2.4-1.4-3.1zM460.3 272.5c1.3 2 3.1 3.9 3.1 6.6 0 1-.3 1.9-.6 2.6a28.2 28.2 0 0 1-4.9 7.9c.3-3.1 1.4-6 2.6-8.8 1.5-2.8-.4-5.3-.2-8.3z"/>
        </g>
      </g>
      <g stroke="none" fill="#000">
        <path d="M733.1 172.6c5.7-2 12.1.4 16.1 4.6-2.8-.6-5.2-2-8-2.7a56 56 0 0 0-8.1-1.9z"/>
      </g>
      <path class="secondary" stroke-linejoin="round" d="M437.6 268.1c2.4 1.5 8.8-4.6 10.1-13.4 1.1-7.3-1.4-16.2-5-19.1-8.1-5-13.6-10.6-14.8-22.1a33.1 33.1 0 0 1 2-16.2c-3.3 2-8.3 5.8-11 14.2a52.1 52.1 0 0 0 1.4 32.5c3.1 8.9 7.3 18 17.3 24.1z"/>
      <path fill="#F6F6F6" d="M470.3 238.9c2.4 2 5.4 1.5 7.4.8 2-.8 3.1-2.6 3.6-4.6.5-2.1-.5-5.1-2.6-5.8-.9.5-2 .7-3.1 1-1.9.5-4 1.4-4.9 3.2-1.2 2.3-.6 4.1-.4 5.4z"/>
      <g stroke="none" fill="#000">
        <path d="M478.2 228.3c1.1-.3 2.3-1.7 2.6-2.9v1.2a6 6 0 0 1-1.6 3.5l-1-1.8zM470.7 234.7c1 1.2 3.3 2 4.8 1.7l.4-.1.3-.4c.3-1-.1-2-.8-2.8-.7-.7-1.6-1.2-2.5-1.7M478.2 253c.4-3.4 4.9-5.5 7.8-3.7-2.8 1.2-5.1 2.3-7.8 3.7zM497.9 154.5a19 19 0 0 1 6-12.2c3.7-2.9 8.7-2.7 11-7.1a5.8 5.8 0 0 1-1.4 3.2c-2.1 2.6-6 3.6-8.3 5.5-3.5 2.7-5.2 6.9-7.3 10.6zM696.5 265.7c1.8 1.3 3.5 2.5 5.4 3.4 3.8 1.9 8 2.5 12.2 3.1 10.6 2.1 21.1-1 30.9-5.4a39.9 39.9 0 0 1-31.2 7.8c-6.6-.9-13.3-3.4-17.3-8.9zM730.4 325.9c.8-4.5 6.2-7.6 10.4-5.9-3.7 1.9-6.9 3.7-10.4 5.9zM591.4 122.2c.6 5.7 1.3 11.4 2.3 17 .6 3.8 2.1 6.8 4.4 9.8a29.4 29.4 0 0 1 6.1 16.3 45.9 45.9 0 0 0-4.7-10.3c-2-3.4-4.9-5.9-6.6-9.6-.8-1.9-1.3-3.9-1.6-5.8-.6-5.8-.8-11.6.1-17.4zM470.3 246.4c.8-2.6.2-5-1-7.3l1.9-.6c.7 2.6.7 5.7-.9 7.9z"/>
        <path d="M461.9 243.9a3.6 3.6 0 0 0 2.8-2.5c.4-1.1 0-2.3-.4-3.7-.6-3-.8-6.1.5-9 2.9-6.2 10.5-5.1 16-6.2-2.4 1.6-5.4 2.1-8 2.9-7.2 2-7 7.8-6.4 14.2.1 2.4-2.2 4.8-4.5 4.3z"/>
      </g>
    </g>
    <g stroke="none" fill="#000">
      <path d="M587.7 287.5c.3-5 1.4-9.6 3.2-14.2a14 14 0 0 1-3.2 14.2z"/>
    </g>
  </g>
</svg>
