<svg xmlns="http://www.w3.org/2000/svg" fill="#d7374a" stroke="#000" viewBox="50 50 200 200">
<metadata source="https://commons.wikimedia.org/wiki/File:H%C3%A9raldique_meuble_Parchemin.svg" author="Rinaldum" license="https://www.gnu.org/licenses/fdl-1.3.html"/>
  <g id="ribbon7" stroke-width="3.75" transform="translate(60.8 87.5) scale(0.22)">
    <path d="M4.58 9.8c9.86-14.38 71.8-6.9 62.11 4.31-6.23 7.21-11.41 15.6-10.77 15.58 1.86-.07 33.5 2.65 100.63 2.32 67.13-.33 119.56-7.94 167.91-3.64 39.96 3.55 22.67 19.28 22.7 33.73.05 14.45 11.33 23.67 3.59 35.44-5.03 7.64-24.55 17.2-34.84 5.38-9.67-11.1-3.05-31.05-4.53-31.27-40.17-5.85-148.45 11.02-203.5 9.68C78.34 80.6 24.21 79.82 6.42 69.1c-1.1-.66 3.12-11.75.03-28.1C4.42 30.31-1.58 18.78 4.58 9.8z"/>
    <g fill="none">
      <path d="M57.1 29.59c-23.43-.43-57.64.04-54.66-15.89"/>
      <path fill="none" stroke-width="2.5" d="M33.4 29.09c-.12-5.47-5.87-17.13-3.04-14.27 3 3.04 41.13 4.68 35.54-5.34"/>
      <path fill="none" d="M311.94 71.59c28.78 3.51 30.87 3.05 40.16 9.95"/>
      <path fill="none" stroke-width="2.5" d="M313.41 97.31c-1.23-16.52 13.14-17.38 15.1-17.27 1.96.12 10.02 1.42 10.92 8.2.3 2.29-13.16 7.68-12 6.36 1.36-1.55-.78-12.9-.68-14.66"/>
      <path fill="none" stroke-width="2.5" d="M339.18 87.21c.07-1.1-.86-9.32-.73-11.52"/>
    </g>
    <g fill="#000" fill-opacity="0.5" stroke="none">
      <path d="M 3.206,16.22 C 3.978,-2.106 43.97,1.859 56.18,4.309 79.08,10.7 62.86,17.74 50.6,17.34 43.36,18.22 31.24,15.61 29.28,14.92 c 1.68,4.79 3.1,9.42 4.12,14.17 C 18.77,28.62 4.334,24.82 3.206,16.22 Z" />
      <path d="M 324.2,107.3 C 299,97.26 322.9,67.85 339.4,85.74 c 0,-2.97 -2.3,-10.35 2.2,-8.36 3.4,1.06 10.7,2.55 11.2,9.4 0.4,14.62 -14.6,23.32 -28.6,20.52 z" />
    </g>
  </g>
</svg>
