<svg xmlns="http://www.w3.org/2000/svg" fill="#d7374a" stroke="#000" viewBox="50 50 200 200">
  <metadata source="http://wappenwiki.org/images/1/1c/Astrakhan.svg" license="https://creativecommons.org/licenses/by-nc-sa/3.0"/>
  <g id="sabre2" stroke-width=".39">
    <path class="secondary" d="m121.4 102.34-1.73-5.43s-19.12 11.1-47.21-2c-3.48 3.3-9.35 6-12.3 6.31 25.57 21.34 61.24 1.12 61.24 1.12z"/>
    <path d="m133 92.07 1.74 1.2-.31 1.92s-11.77 5.54-11.73 5.49c-.65.09-1.42-.4-1.77-1.23-.35-.78-.25-1.69.25-2.13-.01.03 11.83-5.25 11.83-5.25z"/>
    <path d="M138.77 96.06c.69-.77.95-2 .5-3.04-.4-.96-1.11-2.02-2.11-2.17-1.16-.2-3.7 1.08-5.06 1.66l.04.07c.44.13.88.65 1.16 1.28.24.58.37 1.23.22 1.67l.04.09c.72-.31 2.27-1.05 2.96-.46.69.63.12 1 .58 1.34.4.29 1.14.16 1.67-.44z"/>
    <path d="M123.95 104.94a96.65 96.65 0 0 0-2.2-5.62 86.85 86.85 0 0 0-2.8-5.34c-1-1.5-2.37-2.53-3.95-1.82-1.05.48-1.39 1.43-.98 2.29.27.58.78.99 1.4.71.34-.15.35-.3.48-.5.16-.25.13-.4.42-.52.46-.22.9.22 1.15.5.29.34.77 1.24 1.06 1.88.69 1.41 1.09 3.8 1.09 3.8s1.53 1.85 2.16 3.3c.28.64.65 1.6.72 2.04.06.37.1.98-.37 1.2-.3.13-.4.03-.68-.02-.25-.05-.36-.12-.69.02-.62.29-.65.94-.37 1.53.39.85 1.32 1.23 2.39.74 1.53-.72 1.65-2.46 1.17-4.19z"/>
    <path fill="none" d="M118.47 104.13c-.81-.98-1.93-.68-1.93-.68s-11.8 5.27-27.8 5.9c-10.45.4-22.58-4.6-28.56-8.11"/>
    <path fill="none" d="M122.45 96.8c.52-.05 1.1.56 1.43 1.33.33.73.42 1.56.06 1.94"/>
    <path fill="none" d="M124.4 95.9c.54-.05 1.1.56 1.43 1.33.33.73.43 1.56.06 1.94"/>
    <path fill="none" d="M126.38 95.02c.52-.05 1.1.56 1.43 1.33.32.71.43 1.56.06 1.93"/>
    <path fill="none" d="M128.37 94.11c.52-.05 1.09.56 1.43 1.33.32.72.43 1.56.05 1.93"/>
    <path fill="none" d="M130.32 93.21c.52-.05 1.09.58 1.43 1.33.32.73.43 1.56.06 1.94"/>
  </g>
</svg>
