<svg xmlns="http://www.w3.org/2000/svg" fill="#d7374a" stroke="#000" viewBox="50 50 200 200">
  <metadata source="http://wappenwiki.org/images/f/f2/Mohyla_Ancient.svg" license="https://creativecommons.org/licenses/by-nc-sa/3.0"/>
  <g id="sabre" stroke-width="3" transform="matrix(-0.05,-0.115,0.108,-0.025,59.7,152)">
    <path d="m616.7 854.1s-112.8-59.6-247.1-226.9c-118.2-147.1-176.7-288.6-176.7-288.6l-42.5 29.1c0.1 0 181.2 450.3 466.3 486.4z"/>
    <path d="m126.8 231.5c-18.099-2.937-19.226-0.79035-27.5 14.2 0 0 48.246 94.257 52.5 104.2 7.3204 16.305 33.553-5.5344 29.4-15.1-2.7593-4.0924-54.4-103.3-54.4-103.3z"/>
    <path d="m61.3 222.7c-0.5-9.2 4.4-19.5 13.4-24.4 8.2-4.5 19.1-8 27.2-3.6 9.2 5 20.3 28.3 26.6 40-12.012-1.6519-22.804 5.4796-27.7 13.9-3.3-6.4-10.2-20.2-18.5-19.6-8.3 0.5-6.5 6.4-11.6 6.2-4.5-0.3-8.9-5.3-9.4-12.5z"/>
    <path d="m176.4 362.6c-10 5.2-42.1 21.201-50.2 24.101-15.4 5.3-31 4.8-38.1-9-4.8-9.4-1.9-17.9 5.7-21.8 5.1-2.6 11-2.7 13.8 2.8 1.6 3 0.9 4.1 0.6 6.3-0.4 2.5-1.3 3.3 0.1 6 2.1 4.1 7.7 3.5 11 2.8 3.9-0.8 12.3-4.6 17.9-7.4 12.7-6.3 30.227-21.413 30.227-21.413 5-2.6 40.373-18.587 48.373-21.587 15.4-5.2 31-4.8 38.1 9 4.8 9.3 1.9 17.9-5.7 21.8-5.1 2.7-11 2.7-13.8-2.8-1.5-3-0.9-4.1-0.6-6.3 0.4-2.6 1.3-3.4-0.1-6-2.1-4.1-7.7-3.5-11-2.8-3.9 0.8-12.3 4.6-17.9 7.4-12.7 6.3-28.4 18.899-28.4 18.899z"/>

    <g fill="none">
      <path d="m616.7 854.1c-48.3-19.3-98.4-48.4-151.9-90.7-81.6-64.6-168.6-167-266-354.8-4-7.8-12.7-24.4-16.8-32.5"/>
      <line x1="182.2" x2="196.2" y1="376.1" y2="349.3"/>
      <line x1="182.2" x2="155" y1="376.1" y2="375"/>
      <path d="m175.2 324c-12.597-5.567-25.783 3.9534-28.7 14.8"/>
      <path d="m166.3 306.6c-12.597-3.903-26.388 4.256-28.7 14.8"/>
      <path d="m157.3 289.3c-12.445-4.5081-25.935 4.256-28.7 14.8"/>
      <path d="m147.79 271.9c-11.723-4.8028-26.509 5.3906-28.095 14.8"/>
      <path d="m138.79 254.75c-12.709-4.4151-25.418 4.3696-27.339 14.649"/>
    </g>
  </g>
</svg>