<svg xmlns="http://www.w3.org/2000/svg" fill="#d7374a" stroke="#000" viewBox="50 50 200 200">
  <metadata source="http://wappenwiki.org/images/9/9d/Etienne_Henri_de_Blois.svg" license="https://creativecommons.org/licenses/by-nc-sa/3.0"/>
  <g id="sagittarius" stroke-width="3" transform="translate(50.8 55.3) scale(0.116)">
    <g>
      <path class="secondary" d="M136.8 550.4c3.1 1.4 9.8 3.8 11.5 10.9 2.5 9.6 1.7 48.7-17.1 57.1-5 2.4-9-19.5-24.6-30.7-5.6-4.5 11.2-21.1 11.2-21.1s16.5-17.4 19-16.2z"/>
      <path d="M277.1 499.1c-13-1-66.6-11.6-76-17.3-16.6-10-35.5-23.6-44.4-21.5-2.7.7-4.4 6.3-10.9 8.3-2.3 3.8-2 13-6.7 24.4-3.6 10-9.1 17-9.6 19.7-3.6 8.4 8.3 9.9 9.4 14.8.3 1.3.2 2.5-1 4.5-3.6 4.7-8.2 0-12.8 4.4-2.6 1.7-1.1 4.9 1.6 7.3 2.2 3.4 6.7-2.8 12 .7 2 1.3.8 6.9.8 6.9s-25.4 20.3-33.1 36.7c-4.9-4-1.9-15.1-2.1-22.9-.2-7.8-4-17.7-5.1-25.7-3.1-17.2 2.3-25.4 7.2-30.5 5-5.2 9.5-18.2 11.9-25.5 3.5-11.3 1-17.9 3.6-29 1-4 7.3-8.7 9.9-13.5 4.3-8 4.6-12.9 7.7-14.4 9.5-4.7 18.8 4.2 37.4 6 3.9.8 62.9-5.7 90.2-11.6"/>
      <g stroke="none" fill="#000">
        <path d="M148.7 455.5c1.4 3.8-2.9 8.4-6.7 6.7 2.1-2.3 4.1-4.8 6.7-6.7zM190.6 460.8c7.3-.7 14.6 2.1 21.5 3.9 6.9 2 13.8 3.2 21.1 2.2-14.2 6.9-28.8-2.7-42.6-6.1zM113.3 541.4c2.5 3.9.8 9-.4 13-.4 1.4-.9 2.6-1.2 4.1-1-1.2-1.2-3-1.2-4.5 0-4.5 1.8-8.3 2.8-12.6zM136.5 473.1c-1.4 15-11.4 27.2-15 41.6-.8-14.6 9.6-28.4 15-41.6z"/>
      </g>
    </g>
    <path class="secondary" d="M599.2 681.4c-.3 3.3-.5 10.3-6.7 14.1-8.2 5.4-45.1 16.9-58.8 1.9-3.9-3.9 15.5-14.5 21-32.6 2.5-6.7 23.4 3.9 23.4 3.9s21.6 9.9 21.1 12.7z"/>
    <path d="M618.1 455.7c-1.8 16.4-15.7 43.2 9.8 53.1 10.3 5.3 18.8-4.3 26.8 7.3 4.3 8.1 1.5 15.6-5.8 19.6-4.5 3.8 1.9 13.1-6.8 27.9-3.3 4.5-9.6 12-13.9 15.7 0 0 .7 12.1-2.7 21.8-3.5 9.9-5.4 18-7.2 24.2-3.3 14.9 4.3 15.7 3.1 23.6-.5 2.6-.9 4.6-3.5 6.6-4.4 3.3-5.4-2.6-11.1.4-3.6 2-4.5 4.3-5.5 8s6.1 11.2 4.4 17.2c-.7 2.3-6.2 2.9-6.2 2.9s-26.9-17.5-44.8-19.5c2.3-5.9 6.8-7.3 14.1-9.9 7.3-2.6 10.7-6.1 10.9-10.3 4-19.8 12.6-20.8 17.5-26 4.8-5.2.5-23.5 7.7-43 2.4-12.2 3.3-10.4.4-20.3-3.6-9.1-19-4.9-44.6-22.2-23.5-15.9-29.6-38.5-43-62.7"/>
    <g stroke="none" fill="#000">
      <path d="M629.4 580.2c-5.3 6.9-8.3 15.6-11.3 23.7-2.7 7.3-4.8 15-8.6 21.8-.6 1-1.2 1.9-2.1 2.6 1.6-1.6 2.4-3.7 3.3-5.8 5.7-14.7 7.5-30.9 16.3-44.3 0 .2 2.4 2 2.4 2zM597.9 659.5c-1.6 3.4-5.8 4.2-9.1 4.8-1.1.2-2.1.2-3.4.5.4-1.2 1.6-2.1 2.6-2.7 3.2-1.8 6.5-1.9 9.9-2.6z"/>
    </g>
    <path fill="#eabfa2" d="M435.8 175.2c-8.6 4.4-8.2 13.9-14.8 16.5-13.7 6-27.3 6-48.1 17.4-7 .8-14.6-7-33.1-9-14.6-1.6-21.9 1.7-27.4-.7-9.9-4.2-16-5.4-26.7-5.8-8.4-.4-16.3 1.9-24.5 3.9l-95.9-31.1c-5.2-.7-10.3-2.3-15.5-3.3a196.5 196.5 0 0 0-32.3-4.7c-4.4-.1-8.9-.2-12.9 1.4a43.4 43.4 0 0 0-11.3 6.4c-3.6 3.2-3.3 3.3-6.9 6.5-.7.6-5.4 6.2-5.8 7-.5 1-.5 2.2-.4 3.3.3 4.6 4.1 9.2 6.3 13.2s4.7 9 9.1 10.1c2.1 2.8 6.2 5.5 8.4 8.2 2.3 2.8 4.6 5.6 7.6 7.5 2.7 1.7 5.7 2.7 8.8 3.4 12.6 2.9 20.8-2.6 34.8 1.5 4.6 2.7 12.7 5 18 4.6-.4 10.2-1.5 23.2 0 33.3a62.9 62.9 0 0 0 10 26.7c5.7 8.8-1.1 21.2.3 31.6.5 3.5 1.5 7 1.9 10.5 1.2 10.1-3.3 13.3 1.9 22.1-.9 14.1 1.7 18.7 7.1 31.7 1.2 3 2.8 5.8 3.6 9 .7 2.7.9 5.6 1.7 8.2a35 35 0 0 0 4.1 8.2c2.6 4.2 12.1 10.4 14.6 16.3l14.7 41.4 38-.6 38.1-39.4 42.1-63.9-39.9-29.9-5-4.4c-1.1-1-2.2-2-3-3.3-1.1-1.7-1.4-3.8-1.8-5.7-1.2-6.3-2.4-2.2-4.6-8.1 1.6-5.7-1.6-17.3-1.6-22.5 0-4.5-1-13.9 2.7-16.8 3.2-2.5 7-12.2 6.2-27.8 0 0 4.5.8 11.9 0 10.7-1.1 12.4 2.8 31.9.3 7.8-1 14.2 1.6 25.5-.3 21.7-3.6 43.8-27.6 58-31.6 0 0 7.8 5.5 12.7 2.3a56 56 0 0 0 14.4-15.5c2.2-3.3 4.4-6.8 5.3-10.7a17.6 17.6 0 0 0-6.4-17.6"/>
    <g stroke="none" fill="#000">
      <path d="M247.9 236.4c-.2 5.4-.4 10.8-.4 16.2a22 22 0 0 0 1 7.7c.8 3.3 1 6.5 2.2 9.6.7 1.6 2.1 3 3.3 4.2 2.7 2.7 6.4 3.9 10.2 4.1 4 .3 8-.2 12.1-.2-2.6.7-5.3 1.3-8 1.8-8.1 1.6-15.2-.4-19.8-7.7-1.8-3.5-1.9-7.7-2.6-11.3-.7-2.7-.8-5.6-.5-8.3a98 98 0 0 1 2.5-16.1zM241.4 324.4c-1.1 2.3-2.6 3.9-3.9 5.9l-3.9 5.9c-1.5-5.2 2.6-10.8 7.8-11.8zM250.3 295.2a39.8 39.8 0 0 1-7.2 8.1c-1.1-4.2 3-8.7 7.2-8.1zM255.6 345.8a41.7 41.7 0 0 0-2.7 12c-4-3.1-2.3-10.8 2.7-12zM269.1 369.6c.6 4.3.4 8.8 2.4 12.6.9 1.8 2.3 3.6 3.5 5.5 1.2 1.9 2.5 3.7 3.7 5.8a27 27 0 0 1-9.8-9.8c-2.3-4.5-1.6-9.7.2-14.1zM207.8 351.5c2.5 2.5 5.3 5 8.1 7.2-4.2 1.9-9.5-2.8-8.1-7.2zM204 316c2.2-1.8 6.1-.4 7.3 2.1 1.2 2 1.3 4.4 2.8 6 .9 1.1 2.2 2 3.4 3.2a8.2 8.2 0 0 1-8.1-5.9c-.8-3.1-2-5-5.4-5.4zM204.8 283.9c1.7 1.1 3.2 1 4.9 1.7 3.1 1.1 5.8 3.7 6.3 7-2.2-1.2-3.9-2.4-6-3.6-1.9-1.3-5-2.4-5.2-5.1zM276.6 291.7c-.9 4.8-4.9 8.9-9.7 9.9 2.1-4.2 5.5-7.5 9.7-9.9zM280.4 316.2c1.3 1.6.2 4.1-1.2 5.4-2.8 2.5-6.1 2.2-8.2 5.2-1 1.2-1.8 2.8-2.8 4.2-.2-2.7.3-5.8 2.4-7.9 3-3.1 9.1-2 9.8-6.9zM173.7 230a26 26 0 0 1 15.9 13.3c1.2 2.1 1.8 4.3 2.9 5.9 1.1 1.6 3 3 4.4 5.1 4 6 3.3 13.7 1.6 20.3h-.3c-.1-6.5.7-13.5-3.2-18.9-1.2-1.7-3-2.9-4.6-4.9-1.5-2-2.3-4.3-3.3-6.1a24.1 24.1 0 0 0-14.4-11.8l1-2.9zM230.4 398.4c6.2 2.3 11.2-4 11.6-9.7 0-.8-.2-1.7-.8-2.5 1 .2 1.8 1.2 2.2 2.2 1.5 4.1-.7 9-4.3 11.2-2.6 1.8-6.9 1.6-8.7-1.2z"/>
    </g>
    <g stroke="none" fill="#000">
      <path d="M234.1 378.6a22.7 22.7 0 0 1-4.5 7c-2.1-2.9.9-7.7 4.5-7zM151.4 199c-4 .9-8 1.5-12.1 1.6-4.5.3-9-.3-13.4-.1-7.5.9-15-.9-22.5 0l-.1-.3c5.7-2.5 12-1.5 17.9-1.8l4.3-.4c4.6-.5 9 0 13.6-.3 3.9-.2 7.8-.8 11.6-1.6l.7 2.9zM228.2 206.7a22.4 22.4 0 0 1 16.7 14.6 52 52 0 0 1-4.3-3.7c-3.8-3.4-8.6-7.3-12.4-10.9zM256.3 210.8a57.8 57.8 0 0 1-5.5 7.5c-2.1-3.5 1.6-8.5 5.5-7.5zM275.1 201c-1.9 3.6-10.8 2.8-12.7-.9l2.7-1.2c.1.5.7 1.2 1.5 1.7 2.2 1.3 6.5 2.6 8.5.4zM297 213.9c7.6 5.4 8.6 25.3 8.8 34.2l-3 .1c-.4-8.7-.5-17.6-2.8-26.1-.8-2.8-1.7-5.5-3.2-8l.2-.2zM319.9 232.8c7-.4 13.6 2.1 20.5 1 6.7-.9 14.1-3.7 20.8-1.3-3.6 0-6.8.8-10.1 1.7-14 4.5-17.8 3-31.2-1.4zM162.9 204.7c1.8 2.8.2 6.4 2.3 8.9 2.2 2.5 4.5 5.1 5.9 8.3a25.8 25.8 0 0 1-6.3-4.5c-1.4-1.2-3-2.8-3.2-4.8-.5-2.9.9-5.2 1.3-7.9zM239.7 232.6c.7 10.8 3.9 22.4-1.5 32.6-1.5 3.3-3.3 6.4-4.7 9.8.5-7.3 4.4-13.6 4.7-20.8.6-7.1-.4-14.6 1.5-21.6z"/>
    </g>
    <g>
      <g>
        <path d="M570.1 487.4c18 2.1 26.5 20.5 38.4 31.8-7.6-4-13.1-10.9-18.8-17a54.7 54.7 0 0 0-19.6-14.8zM627.5 519.5c3.6-1.2 7.4 1.7 8.6 5.1a6 6 0 0 1 .4 3.5l-2.5-2.3c-2-2.3-4.1-4.3-6.5-6.3z"/>
      </g>
      <path class="secondary" d="M651 692.1c-.1 3.3.1 10.3-5.8 14.5-7.9 5.8-44 19.5-58.6 5.4-4.2-3.7 14.6-15.4 19.1-33.8 2.2-6.8 23.6 2.5 23.6 2.5s22 8.6 21.7 11.4z"/>
      <path stroke-linejoin="round" d="M641.9 402.1c9.9 10 22.5 22.9 41.9 24.1a65.1 65.1 0 0 0 68.8-66.4c.3-12.9-2-20.5 1.6-27.5 4.3-8.3 12.4-5.4 13.2-4.5-2.1-14.1-23.2-8.1-25.6 1.9a61.2 61.2 0 0 0-10.7-41.6 17.3 17.3 0 0 1-3.6-14c.5-4.3 2.7-8.5 6.5-10.4 2.9-1.4 9.5-2.8 13.6 1.7.4-4-2.2-6.9-5.1-8.6-4.3-2.6-11.7-1.7-16.2.4a23.2 23.2 0 0 0-12.3 14.6c-1.4 5.2-1 10.5-.5 15.9-10.8-6.9-14.3-22.2-9.6-34 4-10.1 12.5-14.8 20.1-21.7 4-3.6 8-7.3 10.4-12.2a21.7 21.7 0 0 0-13-30.2c3.9 3.4 6.4 8.4 6.8 13.6.7 11.7-7.9 16.9-16.9 21.7-10.2 5.5-20.3 7.9-28.3 17a53.4 53.4 0 0 0-8.6 14.3c-2.6 6.1-2.8 15-2.8 15-5.2-5.6-5.8-9.3-5.6-16.9.2-9.6 6.9-17.8 14.3-24 7.4-6.1 15.7-11.2 22.2-18.3 9.5-10.5 15.2-23 8.5-34.7 0 0 7-14.1-1.5-25 0 0 3.7-18.3 19.2-17.9 8.5.2 15.3 8.4 15 16.9a21.5 21.5 0 0 0-7.8-31c-5.3-3-14.4-4.4-23.3-.3-8.9 4.1-14.5 13.4-17.5 22.4-1.3 3.9-2.1 8-3.5 11.9-5.3 15.8-16.2 25.4-27.5 35 .7-1.8 1.5-3.6 2.1-5.5a42.9 42.9 0 0 0 3.3-15.7 22.2 22.2 0 0 0-8.3-16.1 22.2 22.2 0 0 0-17.6-4.2c5.1 1.1 9.7 4.3 12.4 8.7 6.3 10 2.3 19.5-4.4 27.1a93.6 93.6 0 0 0-25.3 52 86.6 86.6 0 0 0 9.4 56.1c12.1 21.2 37.5 29.5 57.3 43.9a38.5 38.5 0 0 1 15.6 32.8c-.5 18.3-11.1 34.3-25.6 33.9-20.5-.5-32.4-18.9-48.7-29.2a118 118 0 0 0-96.5-30.2c-39.4 3.8-57.6 12.6-96.9 17.2-8.7 1-17.4 1.9-26.2 1.9-21.8.1-43.5-4.8-63.2-14.2-9.6-4.6-22.3-13.2-40.4-10.9.5 2.7.8 7.4-1 9.5-.6.8-1.5 1.4-2.1 2.3-1.1 1.7-.4 4.2 1.5 5.2-2.3.2-3.5 2.8-2.9 4.8.6 2 2.4 3.6 3.9 5.1 1.6 1.5 3.1 3.4 2.9 5.5-.2 2.1-2.9 4-4.8 2.8-1.8 3.9 2.5 8.3 1.2 12.3-.6 1.8-2.3 3.2-3.6 4.7-1.3 1.5-2.2 3.6-1.2 5.3-3.3-.5-6.3-2.1-8.4-4.4l-.9 9.8c-.1 1.1-.2 2.3-.9 3.3-.7.9-2.3 1.4-3.3.8-.3 3.3.6 6.7 2.5 9.6-2.1 1.8-5.8-1.2-8.4 0-2.1 1-1.6 3.9-.6 5.9 1 2 2 4.6.3 6.1-1.1.9-2.7 1-3.9 1.8-3.5 2.4.6 7.6-.9 11.3-3.5.9-7.6-.2-10-2.7-2.1 4.4-5.3 4.2-8.4 7.9a12.2 12.2 0 0 0-4 11.8c-2.1-.5-3.7-2-5.1-3.5-3.3-3.5-4.6-5.9-7.9-9.4-2.1.3-2 7-3.3 8.4-1.7 1.8-7.2-10.9-9.9-2-2.5 8.2-10.1-12.6-13.6-20 3.1 25.6-8.7 66.5 27 84.4.6 6 6 15.7 16.2 22.7 32.2 22.2 76.8 22.6 106.2 16.3 55.7-12 105.1-70.7 169.5-65.4 14.8 23.4 53 44.4 66 48.9 26.8 9.5 41.7 10.6 45.8 19.5 3.5 9.8 3.1 18 1.4 30.3-6 19.9-.7 37.8-5.1 43.3-4.5 5.5-13.1 6.9-15.9 27 0 4.2-3.2 7.9-10.3 10.9-7.1 3-11.6 4.7-13.5 10.7 18 1 45.9 16.8 45.9 16.8s5.5-.9 6.1-3.2c1.3-6.1-6.1-13.2-5.4-17 .8-3.8 1.6-6.1 5-8.3 5.4-3.3 6.8 2.6 11-1 2.4-2.2 2.7-4.2 3.1-6.8.7-8-7-8.3-4.5-23.4 1.5-6.3 2.8-14.5 5.8-24.6 2.8-9.8 1.4-21.9 1.4-21.9 4.1-4 9.9-11.9 12.9-16.5 7.8-15.3.9-24.2 5.1-28.2 7.1-4.4 9.4-12 4.6-19.9-8.7-11.1-16.5-1-27.1-5.7-26.1-8.4-13.7-36-12.9-52.4 1-21.8-2.3-44.8-14.7-63.5z"/>
      <g stroke="none" fill="#000">
        <path d="M640.5 461.3c2.7.2 3.8 3.9 1.6 5.5-2.1-1.4-2.6-3.2-1.6-5.5zM639.4 444.9c1.1.3 2 1.3 2.3 2.4 1.1 3.2-.9 6.8-4 8.1 0-1.9.7-3.7 1.1-5.5.5-1.7.9-3 .6-5zM637 420.7c5.8 5.9.6 19.1-4 24.6.4-3.8 1.8-8.8 2.7-12.5.9-3.9 2.3-8.1 1.3-12.1zM610.5 500.2c18.1 1.1 27.7 18.9 40.2 29.5-7.8-3.5-13.7-10.1-19.8-15.8a53.3 53.3 0 0 0-20.4-13.7zM669.7 528.9c3.6-1.4 7.5 1.3 8.9 4.5.5 1.1.8 2.3.7 3.5l-2.6-2.1a56 56 0 0 0-7-5.9zM675.1 589.4c-4.9 7.2-7.3 16-9.9 24.4-2.3 7.5-3.9 15.2-7.3 22.3-.5 1-1.1 2-1.9 2.8 1.5-1.7 2.2-3.9 2.9-6 4.8-15 5.6-31.2 13.7-45.1.1-.1 2.5 1.6 2.5 1.6zM335.6 542.1a12 12 0 0 1 5.4-7.6c1 3.5-1.8 7.4-5.4 7.6zM349.3 541.5a42.6 42.6 0 0 1 6.8-15.2c.7 5.7-2.1 11.9-6.8 15.2zM363.5 541.6l6.9-24.7c2 8.6-.7 18.4-6.9 24.7zM379.7 535.5a81.5 81.5 0 0 0 7.4-18.4c.7-2.1 1.4-4.3 2.4-6.4.6 9-1.7 19.8-9.8 24.8zM400.5 530.9c5.1-10.8 8-22.1 8.8-34.1a35 35 0 0 1-8.8 34.1zM536 488.1c-7.2-8.8-12.8-18.4-19.7-27.3a116.4 116.4 0 0 0-23.9-23.1l.2-.3c15.5 7.4 26.2 21.6 35.9 35.3 3.2 4.6 6.4 9.2 9.9 13.5l-2.4 1.9zM483.7 448.8a11.9 11.9 0 0 1 9.9 10l-2.7-2.4c-2.3-2.4-5.1-5-7.2-7.6zM477.1 459.6c2.7-.6 5.5.6 6.8 3.1-2.7.6-5.5-.7-6.8-3.1zM648.4 670.4c-1.4 3.5-5.5 4.6-8.8 5.3-1.1.2-2.1.3-3.4.7.3-1.2 1.4-2.2 2.4-2.8 3.2-2.1 6.4-2.4 9.8-3.2z"/>
      </g>
      <g>
        <path class="secondary" d="M185 599.4c3.3.6 10.4 1.2 13.9 7.8 4.8 8.6 13.6 46.8-2.6 59.6-4.3 3.6-13.5-16.7-31.3-23.7-6.5-3 5.7-23.3 5.7-23.3s11.6-20.9 14.3-20.4z"/>
        <path d="M242.1 478.6a134 134 0 0 1-39 7.9c-18.6-.8-29.8-10.4-39-5.2-3 1.7-3 6.6-6.9 14.8-2.4 4.9-8.4 10-9.2 14-.3 10.9 2.5 17 2.7 28.9-.5 7.6-1.7 21.4-5.3 27.6-3.5 6.2-6.8 15.5.5 31.4 3 7.6 9.1 16.2 11.3 23.7 2.1 7.6 1.9 19 7.7 21.7 3.4-17.9 23-43.7 23-43.7s-.2-5.7-2.5-6.5c-6-2.2-8.8 5-11.8 2.2-3.2-1.7-5.5-4.5-3.3-6.7 3.4-5.4 9-1.9 11.3-7.4.7-2.2.5-3.4-.2-4.6-2.3-4.4-14.2-3-12.8-12-.2-2.7 3.4-10.9 4.5-21.4 1.8-12.1 1.5-14.8 3.5-18.7 6.3-2.5 5.6-7.8 8.2-8.7 8.8-2.8 29 8.7 46 18 15 8.2 32.1 5.6 44.7 5.9"/>
        <path fill="none" stroke-width="3.0974" d="M264.5 472.4s9.8-13.5 16-16m-38.4 22.2c7.1-3 10.8-5.2 22.5-6.2"/>
        <g stroke="none" fill="#000">
          <path d="M162.6 594.8c3.4 3.2 3 8.5 2.8 12.7-.1 1.4-.3 2.7-.2 4.3a6.7 6.7 0 0 1-2.2-4.1c-1.1-4.3-.3-8.4-.4-12.9zM178.1 525.1c-6.6 13.3-16.7 25-19.1 39.9.2-3.7 1.1-7.4 2.3-10.9 3.6-10.5 9.6-20.2 14-30.3l2.8 1.3zM301.2 533.9c6.6-3.5 14-3.3 20.8-5.8 2.2-.8 4.4-1.8 6.1-3.4a41.4 41.4 0 0 0 18-11.7c1.6-1.8 3.1-3.8 3.9-6.1-.7 2.4-2.1 4.4-3.6 6.3a43.4 43.4 0 0 1-17.5 12.8c-5.5 5-13.2 5.9-20 7.9-2.2.7-4.4 1.4-6.1 2.5l-1.6-2.5zM274.5 485a22 22 0 0 0-11.2-11.7l1.2-2.9a24 24 0 0 1 10 14.6zM186.3 504.7c-2.4 3.6-2.8 7-5 10.7-2 3.6-6.8 6.8-10.9 4.9 4-.8 6.3-3.3 8.3-6.5 1.9-3.2 3.7-7.6 7.6-9.1zM290.4 532.8c1.1-2 3.7-2.1 5.6-2.5 1.8-.5 2.2-2.2 2.8-3.7 1.4-3.7 2.4-7.5 3.5-11.4.8-2.6 1.5-5.2 2.5-7.8a39.4 39.4 0 0 1-3.3 20.4 9.4 9.4 0 0 1-2.8 3.8c-2.6 1.8-5.7-.6-8.3 1.2zM213.6 517.6c10.8 1.4 20 8.5 30.6 10.5 3.5.7 7.1.8 10.5.3 9.8 1.8 20 .6 29.8-.9 1.4-.2 2.7-.7 3.7-1.9a5.8 5.8 0 0 1-3.5 2.6c-8.8 3.1-22.7 5-29.8 3.2-3.8.6-7.7.4-11.4-.4-10.9-2.3-19.4-9.9-29.9-13.4zM273.7 475c4.3.7 7.1 4.3 10 7.2l2.9 2.9c-5.7-1.2-8.7-6.5-12.9-10.1zM279.7 455.1c3.9-1.8 5.9-5.1 8.5-8.5 8.8-11.4 14.9-12 28.5-11.4 2.1 0 4.3 0 6.3-.5-2 .6-4.2.8-6.3.9-6.2.2-13 .1-18.3 3.4-3.4 2.2-6 5.7-8.4 9-2.3 3.6-4.9 7.7-8.8 9.8l-1.5-2.7z"/>
        </g>
        <path fill="none" stroke-width="3.0974" stroke-linecap="round" d="M275.7 539.7c3-.2 5.9-.1 12.2 1.7 1.5.4 3 .8 4.5.5 1.8-.5 3.3-2.1 5.1-2.4l1.7-.2c1.6-.4 2.2-2.5 2.8-4"/>
      </g>
    </g>
    <g stroke="none" fill="#000">
      <path d="M327.8 372.8a14.4 14.4 0 0 1 13.7-10.1c-4.8 3.2-9.2 6.4-13.7 10.1zM322.9 406.3c-1.2-2 2-3.5 3.3-4.3 1.6-.9 2.9-1.8 4.7-2.5-.4 2.5-2.4 4.4-4.7 5.3-1.2.5-2.7.3-3.3 1.5zM369.8 449a60 60 0 0 1 10.3-1.1c2.4-.1 2.1-1.7 2.3-3.7.1-5.1 3.7-6.8 8.2-4.6-1.2 0-2.3 0-3.4.3-4.8 1.1-.1 7.9-4.9 10.1-2 .7-3.7.2-5.6.1-2.3-.3-4.6-.6-6.9-1.1zM363.2 477.6c1-3 3.8-6.1 7.3-5.7 3.3.3 5.1 3.3 8.1 1.6-.2.8-1 1.4-1.8 1.7-2.1.9-4.9-.6-6.6-.8-2.6-.3-4.7 1.8-7 3.2zM362.1 500.8c1.2-3 2.9-5.7 4.6-8.4 1.3-1.9 2.9-3.9 5.4-4.4l3.2-.3c1.7-.2 3.1-1.8 4.6-3.4-.3 1-.7 2.1-1.3 3-.6 1-1.6 1.9-2.8 2.3-1.2.4-2.3.4-3.1.7-2.7 1-4 3.8-6.1 6a47.8 47.8 0 0 1-4.5 4.5zM336.4 431.7c2.4 1.3 5.2 1.6 7.1 3.9 1.2 1.4 1.2 3.4 2 4.9 1 2.2 2.6 3.8 4.9 5-2.8.3-5.6-1.5-7-3.9-.9-1.4-1-3.3-1.8-4.6-1.3-2-3.9-3-5.2-5.3zM315.3 413.1c1 5.4.8 12.2 6.9 14.5-3.3 1.1-6.8-2-7.7-5.1-1.1-3.2-.5-6.5.8-9.4zM384.6 396.9c1.5-2.2 4.9-1.1 6.4.5 1.6 1.7 2.1 3.3 3.3 5.3a5.3 5.3 0 0 1-3-1.4c-2.2-1.9-3.5-4.6-6.7-4.4zM393.9 380.8c3.8-2.6 9.6-2.1 12.8 1.2-4.5.1-8.5-.3-12.8-1.2zM373.8 415.1c4.5-1.3 9.2-1.2 13.5.3-4.3 2-9.4 1.9-13.5-.3zM245.3 460.9c.3 3.9 1.3 7.1 3.2 10.6-4.6-.7-6.6-7.5-3.2-10.6zM231.9 459.1c.3 3.9 1.3 7.1 3.2 10.6-4.6-.7-6.6-7.5-3.2-10.6zM337.3 417.8a26 26 0 0 0 8.9 6.5c-4 2.2-9.7-2-8.9-6.5zM345.8 402.6c7.3-1.7 12.5 7.4 10 13.7l-1.4-4.5a14.3 14.3 0 0 0-8.6-9.2zM350.4 383.6c3.7-2.2 8 1.4 10.3 4 2.6 2.7 5.5 4.3 9.1 5.4-3.9 1-8.2-.8-10.8-3.6-2.6-2.7-4.5-5.7-8.6-5.8zM352.5 367.7c4.4-1.8 9.7-2.3 14 .2 2.5 1.5 3.9 4 6.1 5.9-1.9-.3-3.6-1.5-5-2.5-4.5-3.3-9.9-2.8-15.1-3.6z"/>
    </g>
    <g>
      <path fill="#725a42" d="M294.7 125c1.7-1.9 5.1-3.1 6.5-5.3 1.7-2.7 2.2-8.2.6-11-.2-.4-.5-.8-.6-1.3-.2-.5-.2-1-.2-1.5.1-6.5-.2-14.1-4.8-19.2-.3-.3-.6-.6-.7-.9l-.3-.9a31.7 31.7 0 0 0-7.7-11.9 14 14 0 0 0-5.2-3.9c-2-.8-3.6-2.7-5.6-3.2-1.2-.3-2.6 0-3.8-.2-2-.2-3.6-1.5-5.5-2.4-3.5-1.7-7.4-1.1-11.2-1.7-4.9-.7-9.1-.2-13.3 2.6-.5.4-1.1.7-1.7.8-.6.1-1.1-.1-1.8-.1-4.9-.8-9 1-13.3 2.9-2.1.9-3.6 2.7-5.7 3.7-2.7 1.4-5.3 1.5-7.8 3.5a34 34 0 0 0-6.2 6.9 13.8 13.8 0 0 0-3.3 7c-.4 4.4-3.4 6.1-5.1 10.2a12 12 0 0 0-1.2 5.2c.6 9.2-4.1 19 1.3 27.4.3.5.6.9.8 1.5.2.6.2 1.3.2 2a21.2 21.2 0 0 0 8.5 18c.6.4 1.7.5 2.1 1.1.5.6.4 2.5.7 3.4.7 2.1 2 4.1 3.7 5.6 2.7 2.3 6.2 3.4 9.7 3.1"/>
      <g stroke="none" fill="#000">
        <path d="M273.4 74.1c-2.6 1.9-5 3.1-8.1 4 .3-3.6 4.9-5.8 8.1-4zM284.5 80.1c-.4-.7-.9-.7-1.2-.8-.7-.1-1.4-.4-1.9-.9-.7-.6-1.5-1.5-1.3-2.6l1.7.2c1.2.2 2.4.7 3 1.8.4.7.5 1.9-.3 2.3zM273.6 79.8c1.7-1.6 4.4.6 3.3 2.6-1-.1-1.5-.1-2.2-.6-.7-.5-.8-1-1.1-2zM256.7 83.2a32.9 32.9 0 0 1-11.8 4.3c2.4-3.8 7.6-5.7 11.8-4.3zM263.2 68a45 45 0 0 0-5.2 11.1c-2.7-4.1.3-10.6 5.2-11.1zM253.6 68.8c-2.1 1.8-4.5 1.4-7.1 1 .9-3 5.1-3 7.1-1zM242.1 71.7c-3.5 1-7 .7-10.2-1 3.1-2 7.5-1.5 10.2 1zM245.6 80.4a9.4 9.4 0 0 1-7-3.2c2.7-1.5 6.4.2 7 3.2zM235.8 85.7l-5.7-1.7-5.7-1.6c3.6-2.7 9.7-1 11.4 3.3zM227.3 76.5a14 14 0 0 1-6.7 3c.1-3.1 4.3-5.3 6.7-3zM214.7 80.3c0 3.3-.2 6.3-2.1 9.1-1.8-2.9-1.3-7.6 2.1-9.1zM204.2 121.9a7.8 7.8 0 0 1-4 5.9c-1.2-2.7 1-6 4-5.9zM208.6 112.1c-2.5 1.8-5.2 3.2-8.4 2.8 1.5-3 5.4-4.7 8.4-2.8zM199.1 106.7c3-3.5 10-3.4 13.2-.3-4.5.6-8.6.4-13.2.3zM215.3 92.6c-1.5 1.2-2.8 2-4.6 2.7-1.7.6-3.5 1-5.4.6.6-.8 1.3-1.4 2.1-1.9 2.4-1.4 5.3-2.6 7.9-1.4zM227.9 93.8c-.6-.7-1.2-.8-1.8-1.2-1.2-.6-1.9-1.4-3-2.1l-1.9-1.3c2.3-1.7 5.2-.4 6.4 1.9.5.8.9 1.9.3 2.7zM239.6 93.9c-2 1-3.7.6-5.1-1 1.4-2 4.6-1.3 5.1 1zM217.8 117.9c1.8 2.3 3.3 3.7 5.7 5.4-3.2 2.4-8-2.1-5.7-5.4zM254.8 96.7c-1.7 1.6-4.5 1.1-5.9-.5a3 3 0 0 1-.9-2.1c.8 0 1.5.2 2 .3 1.9.5 3.2 1.1 4.8 2.3zM263.4 93c-2.5 1.4-5.1-2.7-2.7-4.3.4.5 1.4 1.4 1.7 1.9.4.5.8 1.8 1 2.4zM274 84.9c-.1 1 .6 2.2 1.4 2.6l-2.3 1.4a4 4 0 0 1 .9-4zM290.5 84.7c-.8 1.9-3.1 2.1-4.1.3 1-1.7 2.9-1.8 4.1-.3zM296 96.1c-.6.6-1.6.2-2.1-.1-1.3-.8-2-2-2.4-3.4l-.3-.9c1.2-.7 2.7.5 3.5 1.4.5.7.8 1.4 1 2.2 0 .3 0 .5.3.8zM284.3 89.5c-1.9.8-3.6-.8-3-2.7 1.9-.5 3.3.7 3 2.7zM213 119.8a37 37 0 0 1-11-1.4c3.2-2.6 8.7-2 11 1.4zM215.5 116.2c-1.7 1.3-3.7-.7-2.3-2.4 2 .1 2.3.4 2.3 2.4zM224.1 114.2c-2.5 1.5-5.9.8-8-1.1-.7-.7-1.2-1.9-.9-2.9.8.7 1.4.9 2.1 1.2 2.5.6 4.6 1.5 6.8 2.8zM236 104.7c1-1.3 1.1-3.4 1.4-5.1.6 2 1.4 3.8 1.1 6.1l-2.5-1zM224.1 108.7c-.4-.4-.8-.3-1.1-.3-3.3.2-7.4-1.6-8-5.2 1.7.8 9.8 3.4 9.1 5.5zM225.6 99.2c-.2 0 0 .2 0 .3l.2.3.3.6c.6 1.3.5 2.1.7 3.6-2.1.5-3.6-2-2.7-3.8.2-.5.6-.9 1-1.1.1-.2.5-.2.5.1z"/>
      </g>
      <path fill="#eabfa2" stroke-linejoin="round" d="M263.7 199.5c-1.2-2.6-2-4.1-1.2-9.5 0 0 3.2.4 5.9-.3 6.2-1.5 11.9-4 13.5-8.2 1.9-4.8.6-10.4 2.6-13.5 1.5-2.3 5.2-8.1 6.1-10.6 2.2-5.9 3.8-8.9 2.8-17.3-.3-2.8-1.2-7.1.2-9.6 1.5-2.8 2.8-5.2 3.5-8.2 2-6.7.4-12.8.1-14.6a40.7 40.7 0 0 1-5.2-4.1 13 13 0 0 1-3.5-5.5l-4-.8a20 20 0 0 1-4.2-1.9 18.9 18.9 0 0 1-6.3-7.3c.5.6-2 3.2-2.4 3.5-1.4 1.2-2.9 1.2-4.3 2-1.2.7-2.1 2.6-3.2 3.6a16.2 16.2 0 0 1-4.5 2.8c-1.8.7-4.9 1.3-6.8 1.3-.7.3-1.3.9-1.8 1.4a13 13 0 0 1-14 2.3c-.6 2-2.2 4.1-3.5 5.7-1.9 2.3-6.9 3.3-6.9 6.6 0 .7.3 2 .5 2.7.8 2.2.4 4.5.6 6.8v1.1c-.1.4-.3.7-.6.8l-.8.1c-1.5.1-2.7 1.8-4.1.7l-3.4-2.6c-1.2-.9-2.4-1.8-3.8-2.3-4-1.6-9.8.6-11.1 4.8-1.3 4.2-.6 9.5 2.8 12.1 5.5 4.2 5 12.6 10.9 12.1 4.6 11.7 5.2 30.4.6 39.1"/>
      <g>
        <path fill="none" stroke-width="2.6712" d="M276.7 136.1s1.2 6 2.8 10.9c.8 2.7 3.2 4.7 2.2 6.9-1.1 2.5-4.1 2.5-5.8 1.9-3.1-1.3-3.9-.7-5.4 0"/>
        <g stroke="none" fill="#000">
          <path d="M237.5 150.7c.6.3 1 .5 1.2 1 .2.5 0 .9-.1 1.6-1.6.4-2.5-1.7-1.1-2.6zM235.4 146c1.6.9 1.6 1.1-.1 1.8-1.9-.2-1.8-1.8.1-1.8zM216.7 132.7c1.7 2.6 1.1 6.3-2.7 5.6-.2 0-.1 0 0 0 .1-.1 0-.1 0 0a7 7 0 0 0 .1 3.5c.2.5.4 1 .9 1.4-.7.2-1.4-.2-2-.6-2.6-2.1-2.4-8.1 2-6.8l.2.1.2-.1c.7-.6.9-1.8 1.3-3.1zM214.4 147.9c-.1-3 5.2-4.2 5.5-.8a8.2 8.2 0 0 0-5.5.8zM216.1 129.6c-1.4 0-2.7-.3-3.9-.3-2.3 0-3.5 2.3-4 4.3-.3 1.2-.3 2.4-.2 3.7-2.4-2.7-1.6-8 2-9.5 2.4-.8 4.4.6 6.1 1.8zM221.2 148.6c1.4 3 0 5.7-3.2 6.5l-.4-3c2.4.5 3.6-1.1 3.6-3.5z"/>
        </g>
        <g>
          <g>
            <path fill="#f6f6f6" stroke-width="2.6712" stroke-linejoin="round" d="M249.9 131.8c.9-.8 3.9-3 6.5-3 1.6 0 3.2.7 4.7 1.6 1.8 1.1 3.1 3 2.8 3.4-1 1.4-2.9 3.8-7.9 3.8-4.1 0-8.3-3.7-8.3-3.7l2.2-2.1z"/>
            <path fill="none" stroke-width="1.5" d="M254.8 133.8c-.2-1.2-.3-2.2-.3-3.5v-1.1l.3-.2 1.6-.2c.8 0 1.7.2 2.6.5.6.6.9 1.5.9 2.5 0 1.3-.9 3.8-2.2 4.1-.8.2-1.7 0-2.3-.6a3 3 0 0 1-.6-1.5z"/>
            <g stroke="none" fill="#000">
              <path d="M256.8 130.1c1.1-1.2 2.5-.2 2.5 1.5 0 .8-.4 2.2-1 2.4-.4.1-.8 0-1-.3l-.3-.9-.1-2-.1-.7zM280 128.2c1.8-5.8 10.9-4.6 13.6-.2-4.1-3.1-9.3-2.1-13.6.2z"/>
            </g>
          </g>
          <g stroke="none" fill="#000">
            <path d="M291.4 139.8c-1.4 3.6-7.2 3.4-9.1.4 3.2.2 6 .6 9.1-.4zM260.4 139.6c-1.5 2.5-5.1 2.5-7.4 1.4-.8-.4-1.6-.9-2.1-1.6l2.5.1c2.4.1 4.7.5 7 .1zM265.4 129.8a13.6 13.6 0 0 0-17.3-.5c3.4-6.6 14.5-6.6 17.3.5zM271.2 140.3a18.6 18.6 0 0 1-4.2-8.7 9.3 9.3 0 0 1 4.2 8.7z"/>
          </g>
        </g>
        <path stroke-width="2.6712" d="M280.4 131.8c.9-.8 3.6-3 6.2-3 1.6 0 3.5.7 5 1.6a3.8 3.8 0 0 1 1.7 3.6c-.4 2-2.1 3.6-6.8 3.6-4.1 0-8.3-3.7-8.3-3.7l2.2-2.1z"/>
        <g>
          <g stroke="none" fill="#000">
            <path d="M268.8 148.3c0-.7.8-1.2 1.5-1.3 1.3-.2 2.6.6 2.9 1.9.2.6.1 1.4-.5 1.9-.6-.5-1-.6-1.3-.7-.6-.2-1-.5-1.5-1-.3-.3-.4-.6-1.1-.8zM270.8 157c-3.3.8-5.8-2.3-5.9-5.3.8 1.9 3 4.2 5.1 2.8l.8 2.5zM283.8 107.5c-.7.5-1 1-1.5 1.4a4 4 0 0 1-4.4.5c-.7-.4-1.4-1.1-1.4-1.9.8.1 1.4 0 1.9-.1l3.1-.4c.7-.1 1.6-.1 2.3.5zM284.2 111.8c-1.9 2.6-6 3.9-8.9 2.2-2.6-1.3-5.2-2.1-8-3.3 1.5-.5 3.1-.6 4.6-.4 2.2.1 4.3 1.3 6.2 2 2 .4 4-.1 6.1-.5zM279.5 171.7c-1.4 2.8-5.8 2.9-8.3 1.6a5.3 5.3 0 0 1-2.2-2h2.8c2.5.1 5.5.5 7.7.4zM275 158.7a5 5 0 0 1 .5 5.1 3.2 3.2 0 0 1-.5-5.1zM262.3 191.4a30.2 30.2 0 0 1-15.2-7.4l.1-.3c2.9.2 5.3 1.8 7.9 2.8 2.5 1 5 1.7 7.6 2.2l-.4 2.7zM275.1 177.7c-1.6.6-2.8.4-4.2-.6.9-1.7 3.8-1.3 4.2.6zM261.2 165.4l-2.7 2.8-1 1.1c-.8-2.2 1.6-4.7 3.7-3.9zM282.2 166.7c-.2 1.4-2 2.4-3.4 2-1-.2-2.2-.8-3.1-.6-3.8.6-8.9 2.2-12-1.2 4.6 1.1 8.8-2.1 13.4-1.1 1.2.4 1.9 1.3 3 1.5.7.2 1.5 0 2.1-.6zM237.9 176.6c-7-2-11.2-7.2-8.8-14.5.5 1.5.8 3 1.1 4.4 1.2 4.4 4.9 6.8 7.7 10.1z"/>
          </g>
          <g fill="#725a42" stroke-width="2.5">
            <path d="M267.8 126.1c.5.6 1.5.2 1.5-.6a7.3 7.3 0 0 0-2.3-5.1c-.6-.6-1.4-1.2-2.2-1.7-1.6-.9-4-1.2-5.7-1.2-1.7 0-3.2.3-4.8.6a24.1 24.1 0 0 0-12.4 6.9c-.5.5.1 1.3.7.9a26 26 0 0 1 12.7-4.4c1.4-.1 2.8 0 4.1.2l3.5.8 1.6.7 1.5 1 1.8 1.9zM279 124.9c-.5 0-.8.5-.6-.9.1-.7.6-1.5 1-2.1 1.9-2.6 5.7-3.2 8.8-3.1 2.1 0 3.8.6 5.7 1.4 1.2.5 2 1.3 2.6 2 .6.6.4 1.8-.5 2.4-.8.5-1.9-.7-3.2-1-1.3-.4-2.7-.5-4-.6l-3.9.1-1.4.4c-1.2.4-2.2.7-3.4 1.3-.4-.1-.8.1-1.1.1z"/>
          </g>
          <g stroke="none" fill="#000">
            <path d="M280.7 119.9a17.9 17.9 0 0 0-2.6 16l-2.6.6c-1.3-5.8-.3-13.2 5.2-16.6z"/>
          </g>
        </g>
      </g>
    </g>
    <path class="tertiary" stroke-width="2.8" d="M443.9 190.1c0 34.1-7.4 45.2-21.6 58.2-20 18.2-55.6 25.1-55.6 60.6 0 11.8 8.6 21.3 18.5 21.2 3.7 0 7.8-2.9 7.8-6.4 0-3.5-3-6.3-6.7-6.3-1.7 0-3.2.6-4.3 1.6-4 0-7-4.9-7-10.1 0-24.6 40.6-30.4 63.1-49 21.4-17.7 29.1-35.6 29.1-69.8h.1c0-34.2-7.8-51-29.1-68.7-22.5-18.6-63.1-24.4-63.1-49 0-5.2 3-10.1 7-10.1 1.2 1 2.7 1.6 4.3 1.6 3.7 0 6.7-2.8 6.7-6.3s-4.1-6.3-7.8-6.4c-9.8 0-18.5 9.5-18.5 21.2 0 35.5 35.6 42.4 55.6 60.6 14.2 12.9 21.6 22.9 21.5 57.1z"/>
    <g>
      <g>
        <path fill="#eabfa2" stroke-width="2.5" stroke-linejoin="round" d="M467.8 182.4c-.7.4-6.5.5-6.7.5-1.5.3-4.2-.1-7 1.3-1.4.6-3.1 1.8-2.9 4.5.3 3.1 2.5 3.5 4.1 3.7-1.8.1-6.1 1.1-6.2 4.7-.2 5.1 5.7 4.6 5.7 4.6s-4.7.3-5.3 4.3c-.3 3.8 1.7 4.5 3.6 5 .9.2 4.4.2 4.4.2s-4.6-.4-5 4.2c-.1 2 1 2.7 1.9 3.5 1.9 1.6 11.3 1.6 14.3 1 2.4-.3 7.8-4.2 8.4-6.1a5 5 0 0 0 .1-2.7c-.4-1.8-2.9-2.7-2.9-2.7.1-.1 5.4-3.1 5.7-5.4.1-1.1.6-1.8.2-3.1-.3-.9-1.7-1.8-2.7-2.4.9-.8 2.4-2.2 2.9-3.2 1.3-2.4 1.2-3 .1-4.9-.5-1-2.1-1.5-3.3-1.8 1.4-1.1 3-3.4 2.2-6-.5-1.5-1.4-1.6-3.6-2l-8 2.8z"/>
        <path fill="none" stroke-width="2.5" d="M474.4 208.4s-2.7 2.4-5.7 2.7c-3.4.6-11.2 0-11.2 0m20.2-13.6s-5.3 3.8-7.6 4.4c-2.3.6-15.2-.3-15.2-.3m.5-9.2s8.8 1 13.4-.1c5.6-.9 8.6-4.7 8.6-4.7"/>
        <g stroke="none" fill="#000">
          <path d="m467.1 190.6-.8-6.4.2-.2c2.6.9 3.1 5.4.6 6.6zM468.1 200.9l-.4-6.3.2-.2c2.5 1.1 2.7 5.5.2 6.5zM467.3 209.7c0-1.8-.1-3.5.2-5.3l.3-.2c2.1 1.1 1.9 5.1-.5 5.5zM468.4 218.2c-.5-1.8-.2-2.9.3-4.7l.3-.2c2 1 1.4 4.4-.6 4.9zM454.4 190.5c1.6-.5 3.3-.5 4.2-1.6.5-.7.3-.9-.1-1.5-1.2-.7-2.7-.7-4.3-1.2v-.1c1.2-.2 2.4-.4 3.6-.3 2.1 0 3.5 2.5 1.8 4-1.4 1.4-3.6 1.1-5.3.8.1.1.1-.1.1-.1zM452.5 199.4c1.6-.4 3-.5 4.3-1.1l.3-.3c.5-.6.5-.8.1-1.5-.9-.9-3.2-.9-4.6-1.5v-.1c1.3-.1 2.5-.2 3.8-.1 3.6.3 3.4 4.7-.1 4.9-1.3.1-2.6 0-3.8-.2v-.1zM452.9 208.7c1.7-.3 3.2-.4 4.6-.9l.4-.3c.6-.7.6-.9.1-1.6-1.2-1-3.3-1.1-5-1.7v-.1c2 0 4.3-.4 6 .9 2 1.7.2 4.4-2.1 4.4-1.4.1-2.7-.1-4-.4v-.3zM455.6 217.7c1.5-.4 2.9-.5 4-1.1.2-.1.2-.2.3-.4.3-.3.4-.6.4-.7 0-.1 0-.3-.3-.7l-.3-.3c-1.2-.6-2.6-.8-4.1-1.3v-.1c1.2-.2 2.4-.2 3.7-.1 2.1.2 3.4 2.6 1.6 4.1-1.4 1.3-3.6.9-5.3.6 0 .2 0 0 0 0z"/>
        </g>
      </g>
      <g>
        <path fill="#eabfa2" stroke-width="2.5" stroke-linejoin="round" d="M430.3 179.8c2.9-4.2 9.4-8.1 17.6-9.2 4.9-.2 5 .5 10.8.8 6 .4 7.6-1.3 10.5 0 1.9.5 4.8 3.5 7.4 4.9 0 0 3.7 1.4 7 2.3 1.4.4.9 2.3 0 3.3a8.4 8.4 0 0 1-3.7 2.3c-7.5 1.4-14.8-3.1-14.8-3.1s-3.5 1.4-6.4 1.6c-4 .3-5.7.2-7.5-.2 0 0-2 12-9.8 17.1"/>
        <g stroke="none" fill="#000">
          <polygon points="463.8,180.9 465.8,177.3 466.3,181.4 463.8,180.9"/>
          <path d="M449.9 182.3c.7-.9.6-2.3.2-3.4.6.4 1.1.9 1.5 1.6.4.8.7 1.4.7 2.4l-2.4-.6zM482.8 179.8c-2 1.6-5.2 2.5-7.5.9-2.1-1.5-.9-3.6.4-5l1.4 1.4c-.4.4-1.1 1.3-1.1 1.7 1.4 2.2 4.5.8 6.8 1z"/>
        </g>
      </g>
      <g stroke="none" fill="#000">
        <path d="M424.8 204.8c-.9.9-2 1.1-3.1.4.5-1.3 2.3-1.5 3.1-.4z"/>
        <path d="M424.3 202.6c-.8 1.7-3.5 2.2-4.8.9a10 10 0 0 1 4.8-.9z"/>
      </g>
    </g>
    <g class="tertiary">
      <path d="m227.5 182.6-.3-.6c-.1-.2-2.2-4.4-2.2-8.1 0-3.7 3.6-7.9 8.2-7.9 10.7 0 37.2 14.1 38.3 14.7l3.9 2.1-47.9-.2zM232.6 205.2c-2.1 0-4.1-.9-5.7-2.6a8 8 0 0 1-2.4-5.4c0-3.7 2.1-7.9 2.2-8.1l.3-.6 47.9.2-3.9 2.1c-1.1.6-27.6 14.4-38.4 14.4.1 0 0 0 0 0z"/>
      <g stroke="none" fill="#000">
        <polygon points="239,182.4 230.1,174.5 240.3,180.6 239,182.4"/>
        <polygon points="248.8,182.5 239.5,174.8 250.1,180.7 248.8,182.5"/>
        <polygon points="260.3,182.6 247.3,174.8 261.3,180.6 260.3,182.6"/>
        <polygon points="240,189.5 229.6,196.6 238.7,187.8 240,189.5"/>
        <polygon points="249.8,189.6 239,196.4 248.5,187.8 249.8,189.6"/>
        <polygon points="261,189.7 246.8,196.5 259.9,187.8 261,189.7"/>
      </g>
      <path d="m219.8 188.8-.3-.6c-.1-.1-.8-1.4-.8-3.2 0-1.6.5-2.9.5-3l.3-.8 286.2.7.3 7.5-286.2-.6z"/>
      <path d="M496.8 194.4c-3.4 0-5.7-3.8-5.7-9.3 0-5.5 2.4-9.3 5.7-9.3 3.4 0 5.7 3.8 5.7 9.3.1 5.4-2.3 9.3-5.7 9.3z"/>
      <g>
        <path d="m506 209.4-.5-.1c-.4-.2-.7-.6-.7-1.1v-10.8c0-.4.2-.8.6-1l12.5-7-19.6.5c-.3 0-.7-.1-.9-.4-.1-.1-1.3-1.5-1.3-4.3 0-2.9 1.2-4.2 1.3-4.3.2-.2.5-.4.9-.4h.1l18.7 1.6-11.7-6.4c-.4-.2-.6-.6-.6-1.1v-11.2c0-.5.3-.9.7-1.1l.5-.1c.3 0 .6.1.8.3l26.8 22.6c.3.2.4.6.4.9 0 .4-.2.7-.4.9l-27 22.3a1 1 0 0 1-.6.2z"/>
        <g stroke="none" fill="#000">
          <path d="m506.2 163.3 26.8 22.6-27 22.3v-10.8l16.7-9.4-24.4.6s-1-1-1-3.5 1-3.5 1-3.5l24.3 2.1-16.6-9.2.2-11.2m0-2.4-1 .2c-.8.4-1.4 1.2-1.4 2.2v11.2c0 .9.5 1.7 1.2 2.1l6.8 3.7-13.1-1.1h-.2c-.7 0-1.3.3-1.7.8-.3.3-1.6 1.9-1.6 5.1 0 3.3 1.3 4.9 1.6 5.2.5.5 1.1.8 1.8.8h.1l14.7-.4-8.3 4.6c-.8.4-1.2 1.2-1.2 2.1v10.8c0 .9.5 1.8 1.4 2.2.3.2.7.2 1 .2.5 0 1.1-.2 1.5-.6l27-22.3c.5-.5.9-1.1.9-1.8s-.3-1.4-.9-1.8L508 161.5c-.7-.4-1.3-.6-1.8-.6z"/>
        </g>
      </g>
    </g>
    <g stroke="none" fill="#000">
      <path d="M441.9 200.8c-2 1-4.3 1.7-6.5 1.6-2.2-.1-4.2-.8-6.3-1.4 4.1.6 8.2.5 11.5-2.3l1.3 2.1z"/>
    </g>
    <path class="tertiary" d="M376 314.6c-.9 0-1.7-.3-2.4-.9L216.5 180.5 373.9 66.3c.6-.5 1.4-.7 2.2-.7 1.2 0 2.3.6 3 1.5.6.8.8 1.8.7 2.8-.2 1-.7 1.8-1.5 2.4L228.5 181l149.9 127.1c.8.6 1.2 1.5 1.3 2.5s-.2 1.9-.9 2.7c-.7.8-1.7 1.3-2.8 1.3z"/>
    <g>
      <path fill="#eabfa2" stroke-linejoin="round" d="M151.1 197.5c10.6-1.2 28.1-.4 32.4.2 7.6 1 10.3 7.3 17.9 8.9 6.3 1.3 9.6.9 12.9.9.7 0 2.1.4 3.3.5 1.2.1 1.9-.1 3-.8 7.1-1.5 7.7-6.8 8.1-8.2a7.1 7.1 0 0 0 3.1-5c.5-2.7-.3-4.2-.3-5.5 1-1.1 2-2.5 2.2-5 .3-2.4-1.1-4.2-1.3-6.1.7-1.3 1.3-2.4 1.2-5.5-.1-3.2-4.8-5.1-4.8-5.1l1.5-.4c1.2-.5 3.7-3.2 3.3-6-.1-.7-.3-1.3-.7-2-.8-.7-2.4.6-6.4 1.4l-2 .3c-1.2-.5-3.6-.9-5.3-.9-1.7 0-2.3.8-6.9.8-4.6 0-6.9 0-9.6 1.1-2.7 1.1-6.2 1.3-7.4 1.9-2.2 1.1-8 6-9.1 6.6-2.7 1.5-13.3-2-21-2.8"/>
      <g stroke="none" fill="#000">
        <path d="M224.9 198.2c1.1-.1 2.3-.1 3.3-.5.1 0 .1-.2-.1-.1l1.3 2.7c-.5.2-.9.1-1.1.1-1.3-.3-2.3-1.1-3.4-1.8-.1-.1 0-.4 0-.4zM222.8 200.6c1.3 2.4 0 5.3-1.1 7.5l-2.4-1.8c1.5-1.4 3.4-3.3 3.2-5.6l.3-.1zM224.6 190.8c2.7 1.8 1.3 6.3-1.7 6.9l-.2-.2c.6-1.9 1.3-3 1.6-4.8.2-.4.1-1.6.3-1.9zM227.5 188.6c1.3-.5 2.6-1 3.7-1.7l.6 2.9a15 15 0 0 1-4.3-1v-.2zM225.5 180c2.9 1.6 2.1 6.4-.7 7.8l-.2-.2c.3-2.2.9-3.6.9-5.5.1-.5-.2-1.8 0-2.1zM227.8 178.2c1.2-.5 2.6-.9 3.5-1.8.1-.1 0-.2-.1 0l2.3 1.9c-.5.4-.8.5-1.1.6-1.6.3-3.1-.1-4.6-.4v-.3zM202.1 189.6c-2.6-.1-5.1-.8-7.2-2.5l.1-.3c2.4-.8 5.9.4 7.1 2.8zM224.8 176.4c.3-3 .6-4.9-.3-7.6l.2-.2c.7.3 1.4.8 1.8 1.6 1.2 1.9.4 5.3-1.7 6.2zM193.3 183.9c3.3-1.2 6.6-1.6 9.8-2.4l.2.2c-2 3-7 3.8-10 2.2zM228.4 168a15.2 15.2 0 0 0-10.7-.9c-2.8-.1-5.8-.2-8.6-.6-.9-.2-2.3-.2-2.7-1.1l.3-.1c.1.3.7.4 1.1.4 2.3.3 4.7 0 7-.1l2.9-.2h-.2a17.2 17.2 0 0 1 12-.2l-1.1 2.8z"/>
      </g>
    </g>
    <g stroke="none" fill="#000">
      <path d="M640.5 402.8c-1.9-3.2-5.2-5.3-8.2-7.4-3-1.9.7-.7 2-.3 3.4 1.4 6.8 3.2 8.8 6.4l-2.6 1.3zM665.2 190.6a75.4 75.4 0 0 0-26.3 33.7 56.4 56.4 0 0 0-3.7 14.1c-.3-14.7 8-29.3 17.2-40.2a54 54 0 0 1 11.2-10.1c.7-.5 1.6-.3 2.1.4.4.7.2 1.7-.5 2.1zM670.7 194.3c2.8-4.3 7.2-7.3 11.6-9.8 4.5-2.4 9-4.7 13.2-7.3 2.2-1.3 4.1-2.7 5.7-4.5a35 35 0 0 0 6.9-20.4c.2-2 3.1-1.8 3 .2-.7 8.3-3 17.4-9.6 23.2-5.6 4.3-12.3 7-18.5 10.1a37.2 37.2 0 0 0-12.3 8.5zM712.5 177.9a39.7 39.7 0 0 1-12.3 17.6 84 84 0 0 1-16.1 7.4 64.3 64.3 0 0 0-32.4 29.3c-4.5 8-7.5 16.9-8.2 26.2 0-4.6.6-9.3 1.8-13.8 5-18.2 17.7-34 34.7-42.4 6.1-2.9 13-5 18.6-8.9 5.3-4 8.7-10.2 11.1-16.3.6-2 3.5-1 2.8.9zM691.9 414.4a61.6 61.6 0 0 0 26.7-18 27.7 27.7 0 0 1-26.7 18zM655.1 298.3c4.4 5 10.6 7.5 16.8 9.6a86 86 0 0 1 18.2 7.8 57.7 57.7 0 0 1 21 21.2 63.8 63.8 0 0 1 6.5 39.1 47.4 47.4 0 0 1-14.1 26.1 24.6 24.6 0 0 1-18.2 6.7c13.6-.2 22.9-12.3 27.3-24.1a58 58 0 0 0-23.8-67.1c-5.4-3.6-11.5-6-17.5-8.4a35.7 35.7 0 0 1-16.2-10.9zM721.1 283.1c-.4 5.9 3.3 10.3 5.7 15.4a66 66 0 0 1 2.1 49.9c1.6-11 2-22.1.1-33.1a79.5 79.5 0 0 0-4.3-15.9c-2-5-5.4-10.7-3.6-16.3zM706.3 240.2c-9.1 12.4-18 25.6-14 41.7 1.1 4.9 3.1 9.8 4.3 14.9-2.3-4.7-4.9-9.2-6.6-14.3-5.5-16.3 4.2-32 16.3-42.3zM673.3 271.3a55.8 55.8 0 0 0 12.5 33.4 50 50 0 0 1-14.8-26.3c-.4-2.3-.6-4.9-.6-7.2l2.9.1zM743.4 330.2c-4.6 12.9 5.4 27-.4 39.8.7-3.4.8-6.7.4-10-1.1-10.2-6.4-20.4-2.9-30.8l2.9 1zM715.1 287.6c1.5 12.7 6.2 26.8.9 39.3.7-3.3.9-6.5.9-9.8 0-8.2-2.2-16.2-3.9-24.2-.3-1.6-.7-3.3-.9-5.1l3-.2z"/>
    </g>
  </g>
</svg>
