<svg xmlns="http://www.w3.org/2000/svg" fill="#d7374a" stroke="#000" viewBox="50 50 200 200">
  <metadata source="http://wappenwiki.org/images/9/9d/Etienne_Henri_de_Blois.svg" license="https://creativecommons.org/licenses/by-nc-sa/3.0"/>
  <g id="sagittarius" stroke-width=".35">
    <g>
      <path class="secondary" d="M66.67 119.15c.36.16 1.14.44 1.33 1.26.3 1.11.2 5.65-1.98 6.62-.58.28-1.04-2.26-2.85-3.56-.65-.52 1.3-2.44 1.3-2.44s1.9-2.02 2.2-1.88z"/>
      <path d="M82.94 113.2c-1.5-.12-7.72-1.35-8.81-2.01-1.93-1.16-4.12-2.74-5.15-2.5-.32.09-.51.74-1.27.97-.26.44-.23 1.5-.77 2.83-.42 1.16-1.06 1.97-1.12 2.28-.42.98.96 1.15 1.1 1.72.03.15.02.29-.12.52-.42.55-.95 0-1.49.51-.3.2-.13.57.19.85.25.4.77-.33 1.39.08.23.15.1.8.1.8s-2.95 2.36-3.85 4.26c-.57-.47-.22-1.75-.24-2.66-.02-.9-.47-2.05-.6-2.98-.35-2 .27-2.95.84-3.54.58-.6 1.1-2.1 1.38-2.96.4-1.3.12-2.07.42-3.36.12-.46.85-1 1.15-1.57.5-.92.53-1.5.9-1.67 1.1-.54 2.17.5 4.33.7.45.1 7.3-.66 10.46-1.35"/>
      <g stroke="none" fill="#000">
        <path d="M68.05 108.14c.16.44-.34.97-.78.78.25-.27.48-.56.78-.78zm4.86.61c.85-.08 1.7.25 2.5.46.8.23 1.6.37 2.44.25-1.65.8-3.34-.31-4.94-.7zm-8.97 9.35c.3.45.1 1.05-.04 1.51-.05.16-.1.3-.14.48-.12-.14-.14-.35-.14-.53 0-.52.2-.96.32-1.46zm2.7-7.92c-.17 1.74-1.33 3.15-1.75 4.83-.09-1.7 1.12-3.3 1.74-4.83z"/>
      </g>
    </g>
    <path class="secondary" d="M120.3 134.34c-.03.39-.05 1.2-.77 1.64-.95.62-5.23 1.96-6.82.22-.45-.45 1.8-1.68 2.44-3.78.29-.78 2.71.45 2.71.45s2.5 1.15 2.45 1.47z"/>
    <path d="M122.5 108.16c-.2 1.9-1.82 5.01 1.14 6.16 1.2.62 2.18-.5 3.1.85.5.94.18 1.8-.67 2.27-.52.44.22 1.52-.79 3.24-.38.52-1.11 1.39-1.6 1.82 0 0 .07 1.4-.32 2.53-.4 1.15-.63 2.09-.84 2.8-.38 1.73.5 1.83.36 2.74-.06.3-.1.54-.4.77-.51.38-.63-.3-1.3.04-.4.24-.51.5-.63.93s.7 1.3.51 2c-.08.26-.72.33-.72.33s-3.12-2.03-5.2-2.26c.27-.68.8-.84 1.64-1.15.85-.3 1.24-.7 1.27-1.2.46-2.29 1.46-2.4 2.03-3 .55-.61.05-2.73.89-5 .28-1.41.38-1.2.04-2.35-.41-1.06-2.2-.57-5.17-2.58-2.72-1.84-3.43-4.46-4.99-7.27"/>
    <g stroke="none" fill="#000">
      <path d="M123.81 122.6c-.61.8-.96 1.81-1.31 2.75-.31.85-.56 1.74-1 2.53-.07.12-.14.22-.24.3.18-.18.28-.43.38-.67.66-1.7.87-3.58 1.9-5.14 0 .02.27.23.27.23zm-3.65 9.2c-.19.4-.68.49-1.06.56-.13.02-.24.02-.4.06.05-.14.2-.25.3-.32.38-.2.76-.22 1.16-.3z"/>
    </g>
    <path fill="#eabfa2" d="M101.35 75.62c-1 .51-.95 1.62-1.71 1.92-1.6.7-3.17.7-5.58 2.02-.82.09-1.7-.82-3.84-1.05-1.7-.18-2.54.2-3.18-.08a7.52 7.52 0 0 0-3.1-.67c-.97-.05-1.89.22-2.84.45l-11.13-3.6c-.6-.09-1.19-.27-1.8-.39a22.8 22.8 0 0 0-3.74-.55 3.8 3.8 0 0 0-1.5.17 5.03 5.03 0 0 0-1.3.74c-.42.37-.39.38-.8.75-.09.07-.63.72-.68.82a.72.72 0 0 0-.05.38c.04.53.48 1.07.73 1.53s.55 1.04 1.06 1.17c.24.33.72.64.97.95.27.33.54.65.89.87.3.2.66.32 1.02.4 1.46.33 2.4-.3 4.03.17.54.31 1.48.58 2.1.53-.06 1.19-.18 2.7 0 3.87a7.3 7.3 0 0 0 1.15 3.1c.66 1.01-.13 2.45.04 3.66.05.4.17.81.22 1.22.14 1.17-.39 1.54.22 2.56-.1 1.64.2 2.17.82 3.68.14.35.33.67.42 1.04.08.32.1.65.2.95a4.06 4.06 0 0 0 .47.95c.3.5 1.4 1.21 1.7 1.9l1.7 4.8 4.4-.07 4.43-4.57 4.88-7.41-4.63-3.47-.58-.51c-.13-.12-.25-.24-.35-.39-.12-.2-.16-.44-.2-.66-.14-.73-.28-.25-.54-.94.19-.66-.18-2-.18-2.6 0-.53-.12-1.62.31-1.96.37-.29.81-1.41.72-3.22 0 0 .52.1 1.38 0 1.24-.13 1.44.32 3.7.03.9-.11 1.65.19 2.96-.03 2.51-.42 5.08-3.2 6.73-3.67 0 0 .9.64 1.47.27a6.5 6.5 0 0 0 1.67-1.8c.25-.38.51-.79.61-1.24a2.04 2.04 0 0 0-.74-2.04"/>
    <g stroke="none" fill="#000">
      <path d="M79.56 82.72c-.03.63-.05 1.26-.05 1.88a2.55 2.55 0 0 0 .12.9c.09.38.11.75.25 1.1.08.2.24.36.38.5.32.3.75.45 1.19.47.46.04.93-.02 1.4-.02-.3.08-.61.15-.93.2-.94.2-1.76-.04-2.3-.89-.2-.4-.21-.89-.3-1.3a2.7 2.7 0 0 1-.05-.97 11.37 11.37 0 0 1 .29-1.87zm-.76 10.21c-.13.27-.3.45-.45.68l-.45.69c-.18-.6.3-1.25.9-1.37zm1.03-3.39a4.62 4.62 0 0 1-.83.94c-.13-.48.35-1 .83-.94zm.62 5.87a4.84 4.84 0 0 0-.31 1.4c-.47-.36-.27-1.26.31-1.4zm1.57 2.76c.07.5.04 1.02.27 1.47.1.2.27.41.41.63.14.22.29.43.43.68a3.13 3.13 0 0 1-1.14-1.14c-.26-.52-.18-1.13.03-1.64zm-7.12-2.1c.3.3.62.58.94.84-.48.22-1.1-.33-.94-.84zm-.44-4.11c.26-.21.71-.05.85.24.14.23.15.51.33.7.1.12.25.23.39.37a.95.95 0 0 1-.94-.69c-.1-.36-.23-.58-.63-.62zm.1-3.73c.2.13.37.12.57.2.35.13.67.43.73.81-.26-.14-.46-.28-.7-.42-.22-.15-.58-.27-.6-.59zm8.33.9c-.1.56-.57 1.04-1.13 1.16.24-.5.64-.87 1.13-1.15zm.44 2.85c.15.18.02.47-.14.63-.33.29-.71.25-.95.6-.12.14-.21.32-.33.49-.02-.32.04-.68.28-.92.35-.36 1.06-.23 1.14-.8zm-12.38-10a3.02 3.02 0 0 1 1.84 1.54c.14.25.21.5.34.69.13.18.35.35.51.59.46.7.38 1.59.19 2.35h-.04c-.01-.75.08-1.56-.37-2.19-.14-.2-.35-.34-.53-.57-.18-.23-.27-.5-.39-.7a2.8 2.8 0 0 0-1.67-1.37l.12-.34zm6.58 19.53c.72.27 1.3-.46 1.34-1.12 0-.1-.02-.2-.1-.3.13.03.22.15.26.26.18.48-.08 1.05-.5 1.3-.3.21-.8.19-1-.14z"/>
    </g>
    <g stroke="none" fill="#000">
      <path d="M77.96 99.22a2.63 2.63 0 0 1-.53.81c-.24-.34.1-.9.53-.81zm-9.6-20.84c-.46.1-.93.18-1.4.19-.52.03-1.05-.04-1.56-.01-.87.1-1.74-.1-2.6 0l-.02-.04c.66-.29 1.4-.17 2.08-.2l.5-.05c.53-.06 1.04 0 1.58-.04.45-.02.9-.09 1.34-.18l.08.33zm8.91.9a2.6 2.6 0 0 1 1.94 1.7 6.03 6.03 0 0 1-.5-.44c-.44-.4-1-.85-1.44-1.26zm3.26.47a6.7 6.7 0 0 1-.64.87c-.24-.4.19-.98.64-.87zm2.18-1.13c-.22.41-1.25.32-1.47-.1l.31-.15c.01.06.08.14.18.2.25.15.75.3.98.05zm2.54 1.5c.88.62 1 2.93 1.02 3.96l-.35.01c-.04-1-.05-2.04-.32-3.03-.1-.32-.2-.63-.37-.92l.02-.03zm2.66 2.18c.81-.04 1.58.25 2.38.12.77-.1 1.63-.43 2.4-.15-.4 0-.78.1-1.16.2-1.63.52-2.07.35-3.62-.17zM69.7 79.05c.2.32.02.74.26 1.03.26.29.53.59.69.96a3 3 0 0 1-.73-.52c-.17-.14-.35-.33-.37-.56-.06-.33.1-.6.15-.91zm8.9 3.23c.09 1.25.46 2.6-.17 3.78-.17.39-.38.75-.54 1.14.05-.85.5-1.58.54-2.41.07-.83-.05-1.7.18-2.5z"/>
    </g>
    <g>
      <g>
        <path d="M116.93 111.84c2.09.24 3.08 2.38 4.46 3.69-.89-.47-1.52-1.27-2.18-1.97a6.35 6.35 0 0 0-2.28-1.72zm6.66 3.72c.42-.14.86.2 1 .6a.7.7 0 0 1 .04.4l-.29-.27c-.23-.26-.47-.5-.75-.73z"/>
      </g>
      <path class="secondary" d="M126.32 135.58c-.02.39 0 1.2-.68 1.69-.91.67-5.1 2.26-6.8.62-.48-.43 1.7-1.78 2.22-3.92.26-.79 2.74.3 2.74.3s2.55.99 2.52 1.31z"/>
      <path stroke-linejoin="round" d="M125.26 101.94c1.15 1.16 2.61 2.66 4.86 2.8a7.55 7.55 0 0 0 7.98-7.7c.04-1.5-.23-2.38.19-3.2.5-.96 1.44-.62 1.53-.52-.25-1.63-2.7-.93-2.97.23a7.1 7.1 0 0 0-1.24-4.83 2 2 0 0 1-.42-1.62c.06-.5.31-.99.75-1.21.34-.16 1.1-.33 1.58.2.05-.47-.25-.8-.59-1-.5-.3-1.36-.2-1.88.05a2.7 2.7 0 0 0-1.43 1.69c-.16.6-.11 1.22-.05 1.84-1.26-.8-1.66-2.57-1.12-3.94.47-1.17 1.45-1.72 2.33-2.52.47-.42.93-.84 1.21-1.41a2.52 2.52 0 0 0-1.5-3.5c.44.39.73.97.78 1.57.08 1.36-.92 1.96-1.96 2.52-1.18.64-2.35.91-3.28 1.97a6.2 6.2 0 0 0-1 1.66c-.3.7-.32 1.74-.32 1.74-.6-.65-.68-1.08-.65-1.96.02-1.11.8-2.07 1.65-2.79.86-.7 1.83-1.3 2.58-2.12 1.1-1.22 1.76-2.67.99-4.02 0 0 .8-1.64-.18-2.9 0 0 .43-2.13 2.23-2.08.99.02 1.77.97 1.74 1.96a2.5 2.5 0 0 0-.9-3.6 3.06 3.06 0 0 0-2.7-.03c-1.04.48-1.69 1.55-2.04 2.6-.15.45-.24.93-.4 1.38-.62 1.83-1.88 2.95-3.2 4.06.09-.21.18-.42.25-.64a4.98 4.98 0 0 0 .38-1.82 2.58 2.58 0 0 0-.96-1.87 2.58 2.58 0 0 0-2.04-.49c.59.13 1.12.5 1.44 1.01.73 1.16.26 2.27-.51 3.15a10.86 10.86 0 0 0-2.94 6.03 10.05 10.05 0 0 0 1.1 6.5c1.4 2.47 4.34 3.43 6.64 5.1a4.47 4.47 0 0 1 1.8 3.8c-.05 2.13-1.28 3.98-2.96 3.94-2.38-.06-3.76-2.2-5.65-3.39a13.69 13.69 0 0 0-11.2-3.5c-4.57.44-6.68 1.46-11.24 2-1 .1-2.01.21-3.03.21-2.53.01-5.05-.55-7.34-1.65-1.11-.53-2.58-1.53-4.68-1.26.06.31.09.86-.12 1.1-.07.1-.17.16-.24.27-.13.2-.05.49.17.6-.26.03-.4.33-.33.56.07.23.27.42.45.6.18.16.36.39.33.63-.02.24-.33.46-.55.32-.21.46.29.97.14 1.43-.07.2-.27.37-.42.55-.15.17-.26.41-.14.61a1.66 1.66 0 0 1-.97-.51l-.1 1.14c-.02.12-.03.26-.11.38-.08.1-.27.16-.39.1-.03.38.07.77.3 1.1-.25.21-.68-.13-.98 0-.24.12-.19.46-.07.69.12.23.23.53.03.7-.12.11-.3.12-.45.22-.4.28.07.88-.1 1.3-.4.11-.88-.02-1.16-.3-.25.5-.62.48-.98.91a1.42 1.42 0 0 0-.46 1.37 1.24 1.24 0 0 1-.6-.4c-.37-.41-.53-.7-.9-1.1-.25.04-.24.82-.4.98-.19.2-.83-1.27-1.14-.23-.29.95-1.17-1.47-1.58-2.32.36 2.97-1 7.71 3.13 9.79.07.7.7 1.82 1.88 2.63 3.74 2.57 8.91 2.62 12.32 1.89 6.46-1.4 12.2-8.2 19.67-7.59 1.71 2.72 6.14 5.15 7.65 5.68 3.11 1.1 4.84 1.23 5.31 2.26.41 1.13.36 2.09.17 3.51-.7 2.31-.08 4.39-.6 5.03-.52.63-1.51.8-1.84 3.13 0 .48-.37.91-1.2 1.26-.82.35-1.34.55-1.56 1.24 2.09.12 5.32 1.95 5.32 1.95s.64-.1.71-.37c.15-.7-.7-1.53-.62-1.97.09-.44.18-.7.58-.96.62-.39.78.3 1.27-.12.28-.26.31-.49.36-.79.08-.93-.81-.96-.52-2.71.17-.73.32-1.69.67-2.86.33-1.13.16-2.54.16-2.54.48-.46 1.15-1.38 1.5-1.91.9-1.78.1-2.8.6-3.27.82-.51 1.08-1.4.53-2.31-1.01-1.29-1.92-.12-3.15-.66-3.03-.98-1.59-4.18-1.5-6.08.12-2.53-.26-5.2-1.7-7.37z"/>
      <g stroke="none" fill="#000">
        <path d="M125.1 108.81c.31.02.44.45.18.64-.24-.16-.3-.37-.18-.64zm-.13-1.9a.4.4 0 0 1 .27.28c.12.37-.1.79-.47.94 0-.22.08-.43.13-.64.06-.2.1-.35.07-.58zm-.28-2.8c.67.68.07 2.2-.46 2.84.04-.44.2-1.02.31-1.45.1-.45.27-.93.15-1.4zm-3.07 9.21c2.1.13 3.21 2.2 4.66 3.43-.9-.41-1.59-1.18-2.3-1.84a6.18 6.18 0 0 0-2.36-1.59zm6.87 3.33c.41-.16.87.15 1.03.52.06.13.09.27.08.41l-.3-.24a6.5 6.5 0 0 0-.81-.69zm.62 7.02c-.57.84-.85 1.86-1.15 2.83-.26.87-.45 1.76-.84 2.59-.06.11-.13.23-.22.32.17-.2.25-.45.33-.7.56-1.73.65-3.61 1.6-5.23l.28.19zm-39.38-5.49a1.4 1.4 0 0 1 .63-.88c.11.4-.21.86-.63.88zm1.59-.07a4.94 4.94 0 0 1 .79-1.76c.08.66-.25 1.38-.8 1.76zm1.65.02.8-2.87c.23 1-.08 2.13-.8 2.87zm1.88-.71a9.45 9.45 0 0 0 .85-2.14c.08-.24.17-.5.28-.74.07 1.05-.2 2.3-1.13 2.88zm2.4-.54c.6-1.25.94-2.56 1.03-3.95a4.06 4.06 0 0 1-1.02 3.95zm15.73-4.96c-.84-1.02-1.49-2.13-2.29-3.17a13.5 13.5 0 0 0-2.77-2.68l.02-.03c1.8.86 3.04 2.5 4.17 4.1.37.53.74 1.06 1.14 1.56l-.27.22zm-6.07-4.56a1.38 1.38 0 0 1 1.15 1.16l-.32-.28c-.26-.28-.59-.58-.83-.88zm-.77 1.25a.7.7 0 0 1 .8.36.72.72 0 0 1-.8-.36zm19.87 24.46c-.16.4-.63.53-1.02.61l-.4.08c.04-.14.17-.25.29-.32.37-.25.74-.28 1.13-.37z"/>
      </g>
      <g>
        <path class="secondary" d="M72.26 124.83c.38.07 1.2.14 1.61.9.56 1 1.58 5.43-.3 6.92-.5.42-1.57-1.94-3.63-2.75-.75-.35.66-2.7.66-2.7s1.35-2.43 1.66-2.37z"/>
        <path d="M78.88 110.82a15.54 15.54 0 0 1-4.52.91c-2.16-.09-3.46-1.2-4.52-.6-.35.2-.35.77-.8 1.72-.28.57-.98 1.16-1.07 1.62-.04 1.27.29 1.97.31 3.35-.06.89-.2 2.49-.61 3.2-.41.72-.8 1.8.05 3.65.35.88 1.06 1.88 1.32 2.75.24.88.22 2.2.89 2.51.4-2.07 2.67-5.06 2.67-5.06s-.03-.67-.3-.76c-.69-.25-1.01.58-1.36.26-.37-.2-.64-.53-.39-.78.4-.63 1.05-.22 1.32-.86.08-.25.05-.4-.03-.53-.26-.51-1.64-.35-1.48-1.4-.03-.3.4-1.26.52-2.48.2-1.4.17-1.71.4-2.17.74-.29.66-.9.96-1 1.02-.33 3.36 1 5.33 2.08 1.74.95 3.73.65 5.19.69"/>
        <path fill="none" stroke-width=".36" d="M81.48 110.1s1.14-1.57 1.86-1.86m-4.46 2.58c.83-.35 1.26-.6 2.61-.72"/>
        <g stroke="none" fill="#000">
          <path d="M69.66 124.3c.4.37.35.98.33 1.47-.02.16-.04.31-.03.5a.78.78 0 0 1-.25-.48c-.13-.5-.04-.97-.05-1.5zm1.8-8.09c-.77 1.54-1.94 2.9-2.22 4.63.03-.43.13-.86.27-1.26.42-1.22 1.11-2.35 1.62-3.52l.33.15zm14.28 1.02c.76-.4 1.62-.38 2.41-.67.26-.1.51-.2.71-.4a4.8 4.8 0 0 0 2.09-1.35c.18-.21.36-.44.45-.71-.08.28-.24.51-.42.73a5.03 5.03 0 0 1-2.03 1.49c-.64.58-1.53.68-2.32.91-.25.08-.5.16-.7.3l-.2-.3zm-3.1-5.67a2.55 2.55 0 0 0-1.3-1.36l.14-.33a2.78 2.78 0 0 1 1.16 1.69zm-10.23 2.29c-.28.41-.32.8-.58 1.24-.23.41-.79.79-1.26.56.46-.09.73-.38.96-.75.22-.37.43-.88.88-1.05zm12.08 3.25c.12-.23.43-.24.65-.29.2-.05.25-.25.32-.42.16-.43.28-.87.4-1.33.1-.3.18-.6.3-.9a4.57 4.57 0 0 1-.39 2.36 1.09 1.09 0 0 1-.32.45c-.3.2-.66-.07-.96.13zm-8.91-1.76c1.25.16 2.32.99 3.55 1.22.4.08.82.1 1.22.03 1.13.21 2.32.07 3.45-.1a.65.65 0 0 0 .43-.22.67.67 0 0 1-.4.3 7.49 7.49 0 0 1-3.46.37c-.44.07-.9.05-1.32-.04-1.27-.27-2.25-1.15-3.47-1.56zm6.97-4.94c.5.08.82.5 1.16.84l.34.33c-.67-.14-1.01-.75-1.5-1.17zm.7-2.3c.45-.22.68-.6.98-1 1.02-1.32 1.73-1.39 3.3-1.32.25 0 .5 0 .74-.05-.23.06-.49.09-.73.1-.72.02-1.51.01-2.13.4-.39.25-.7.66-.97 1.04-.27.42-.57.9-1.02 1.13l-.17-.3z"/>
        </g>
        <path fill="none" stroke-width=".36" stroke-linecap="round" d="M82.78 117.9a3.7 3.7 0 0 1 1.42.2c.17.05.34.1.52.06.2-.06.38-.24.59-.28l.2-.02c.18-.05.25-.3.32-.47"/>
      </g>
    </g>
    <g stroke="none" fill="#000">
      <path d="M88.82 98.54a1.67 1.67 0 0 1 1.6-1.17c-.56.37-1.07.75-1.6 1.17zm-.56 3.9c-.14-.24.23-.42.38-.5.18-.11.34-.22.54-.3-.04.3-.27.51-.54.62-.14.05-.31.03-.38.17zm5.44 4.94a6.96 6.96 0 0 1 1.2-.12c.27-.02.24-.2.26-.43.01-.6.43-.8.95-.54-.14 0-.27 0-.4.04-.55.13 0 .91-.56 1.17-.24.08-.43.02-.65.01-.27-.03-.54-.07-.8-.13zm-.77 3.32c.12-.35.44-.7.85-.66.38.04.59.38.94.19-.03.09-.12.16-.21.2-.24.1-.57-.08-.77-.1-.3-.03-.54.2-.8.37zm-.13 2.7c.14-.36.34-.67.54-.98.15-.22.33-.45.62-.51l.37-.04c.2-.02.36-.2.54-.4-.04.12-.08.25-.15.36a.62.62 0 0 1-.33.26c-.14.05-.26.05-.36.08-.31.12-.46.45-.7.7a5.54 5.54 0 0 1-.53.52zm-2.98-8.02c.28.15.6.18.83.45.14.16.14.4.23.57.11.25.3.44.57.58-.33.03-.65-.18-.82-.45-.1-.17-.11-.39-.2-.54-.16-.23-.46-.35-.6-.61zm-2.45-2.16c.12.63.1 1.41.8 1.68-.38.13-.78-.23-.89-.59-.13-.37-.06-.75.1-1.09zm8.04-1.88c.18-.25.57-.13.75.06.18.2.24.38.38.61a.61.61 0 0 1-.35-.16c-.25-.22-.4-.53-.78-.51zm1.08-1.87a1.2 1.2 0 0 1 1.49.14c-.52.01-.99-.03-1.49-.14zm-2.33 3.98a2.58 2.58 0 0 1 1.57.04c-.5.23-1.1.22-1.57-.04zm-14.9 5.31c.03.46.15.83.37 1.23-.54-.08-.77-.87-.38-1.23zm-1.56-.2c.04.45.15.82.37 1.23-.53-.09-.76-.87-.37-1.23zm12.23-4.8a3.02 3.02 0 0 0 1.03.76c-.46.25-1.13-.23-1.03-.76zm.98-1.76c.85-.2 1.45.86 1.16 1.6l-.16-.53a1.66 1.66 0 0 0-1-1.07zm.54-2.2c.43-.26.92.16 1.2.46.3.31.63.5 1.05.63-.46.11-.95-.1-1.26-.42-.3-.31-.52-.66-1-.67zm.24-1.85c.51-.2 1.13-.26 1.62.03.3.17.46.46.71.68a1.44 1.44 0 0 1-.58-.29c-.52-.38-1.15-.32-1.75-.42z"/>
    </g>
    <g>
      <path fill="#725a42" d="M84.99 69.8c.2-.22.59-.36.75-.61.2-.32.25-.96.07-1.28-.02-.05-.06-.1-.07-.15-.02-.06-.02-.12-.02-.18 0-.75-.03-1.63-.56-2.22a.32.32 0 0 1-.08-.1l-.04-.11a3.68 3.68 0 0 0-.89-1.38 1.62 1.62 0 0 0-.6-.45c-.24-.1-.42-.32-.65-.38-.14-.03-.3 0-.44-.02-.24-.02-.42-.17-.64-.28-.4-.2-.86-.12-1.3-.2a2.07 2.07 0 0 0-1.54.3.44.44 0 0 1-.2.1c-.07.01-.13-.01-.21-.01-.57-.1-1.04.11-1.54.33-.25.1-.42.32-.66.43-.32.17-.62.18-.9.41a3.94 3.94 0 0 0-.73.8 1.6 1.6 0 0 0-.38.81c-.05.51-.4.71-.6 1.19a1.4 1.4 0 0 0-.13.6c.07 1.07-.48 2.2.15 3.18l.1.17c.02.07.02.15.02.23a2.46 2.46 0 0 0 .98 2.1c.07.04.2.05.25.12.05.07.04.29.08.4.08.24.23.47.43.64.3.27.71.4 1.12.36"/>
      <g stroke="none" fill="#000">
        <path d="M82.51 63.9c-.3.22-.58.36-.94.46.04-.42.57-.67.94-.46zm1.3.7c-.05-.09-.11-.09-.15-.1a.4.4 0 0 1-.22-.1c-.08-.08-.17-.18-.15-.3l.2.02c.14.02.28.08.35.2.04.09.05.23-.04.27zm-1.27-.04c.2-.19.5.07.38.3-.12-.01-.17-.01-.25-.07-.09-.06-.1-.12-.13-.23zm-1.96.4a3.82 3.82 0 0 1-1.37.49c.28-.44.88-.66 1.37-.5zm.75-1.77a5.22 5.22 0 0 0-.6 1.29c-.32-.48.03-1.23.6-1.3zm-1.11.1c-.25.2-.52.15-.83.1.1-.34.6-.34.83-.1zm-1.34.33c-.4.11-.8.08-1.18-.12a1 1 0 0 1 1.18.12zm.41 1a1.09 1.09 0 0 1-.81-.36c.31-.18.74.02.81.37zm-1.14.62-.66-.2-.66-.18c.42-.31 1.13-.12 1.32.38zm-.98-1.07a1.62 1.62 0 0 1-.78.35c.01-.36.5-.61.78-.35zm-1.46.44c0 .39-.03.74-.25 1.06-.2-.34-.15-.88.25-1.06zm-1.22 4.83a.9.9 0 0 1-.47.68c-.14-.3.12-.7.47-.68zm.5-1.14c-.28.21-.6.37-.97.33.18-.35.63-.55.98-.33zm-1.1-.62c.35-.4 1.17-.4 1.54-.04-.53.07-1 .05-1.53.04zm1.88-1.64a1.9 1.9 0 0 1-.53.31c-.2.07-.4.12-.63.07.07-.09.16-.16.25-.22.28-.16.61-.3.91-.16zm1.47.14c-.07-.08-.14-.1-.21-.14-.14-.07-.22-.16-.35-.24l-.22-.15c.27-.2.6-.05.74.22.06.09.1.22.04.31zm1.35.01c-.23.12-.43.07-.59-.11.16-.24.54-.15.6.11zm-2.53 2.79c.21.26.39.43.67.62-.38.28-.93-.24-.67-.62zm4.3-2.46c-.2.18-.53.12-.69-.06a.35.35 0 0 1-.1-.24c.1 0 .17.02.23.03.22.06.37.13.56.27zm1-.43c-.3.16-.6-.32-.32-.5.05.06.16.16.2.22.04.06.1.2.11.28zm1.22-.94c0 .11.07.25.17.3l-.27.16a.46.46 0 0 1 .1-.46zm1.92-.02c-.1.22-.36.24-.48.03.12-.2.34-.2.48-.03zm.64 1.32c-.07.07-.19.02-.25-.01a.64.64 0 0 1-.28-.4l-.03-.1c.14-.08.31.06.4.16.06.08.1.16.12.25 0 .04 0 .06.04.1zm-1.36-.77c-.22.1-.42-.1-.35-.31.22-.06.38.08.35.31zM75.5 69.2a4.3 4.3 0 0 1-1.28-.17c.37-.3 1.01-.23 1.28.17zm.29-.42c-.2.15-.43-.08-.27-.28.23.01.27.05.27.28zm1-.23c-.3.17-.69.09-.93-.13-.08-.08-.14-.22-.1-.34.09.08.16.1.24.14.29.07.53.18.79.33zm1.38-1.1c.11-.16.12-.4.16-.6.07.24.16.44.13.71l-.3-.11zm-1.38.46c-.05-.05-.1-.04-.13-.04-.38.03-.86-.18-.93-.6.2.1 1.14.4 1.06.64zm.17-1.1c-.02 0 0 .02 0 .03l.02.04.04.07c.07.15.06.24.08.41-.24.06-.42-.23-.31-.44.02-.05.07-.1.11-.12.01-.03.06-.03.06 0z"/>
      </g>
      <path fill="#eabfa2" stroke-linejoin="round" d="M81.39 78.44c-.14-.3-.23-.47-.14-1.1 0 0 .37.05.68-.03.72-.18 1.38-.47 1.57-.96.22-.55.07-1.2.3-1.56.18-.27.6-.94.71-1.23.25-.69.44-1.03.32-2-.03-.33-.13-.83.03-1.12.17-.33.32-.6.4-.95.24-.78.05-1.49.02-1.7a4.72 4.72 0 0 1-.6-.47 1.5 1.5 0 0 1-.41-.64l-.47-.1a2.32 2.32 0 0 1-.49-.21 2.2 2.2 0 0 1-.73-.85c.06.07-.23.37-.27.4-.17.14-.34.14-.5.24-.14.08-.25.3-.37.42a1.88 1.88 0 0 1-.53.32c-.2.08-.56.15-.79.15-.08.04-.15.1-.2.16a1.5 1.5 0 0 1-1.63.27c-.07.23-.25.48-.4.66-.22.27-.8.38-.8.77 0 .08.03.23.05.31.1.26.05.52.07.79v.13c0 .04-.03.08-.07.09l-.09.01c-.17.01-.31.21-.47.08l-.4-.3c-.14-.1-.28-.2-.44-.27-.46-.18-1.14.07-1.29.56-.15.49-.07 1.1.33 1.4.64.5.58 1.47 1.26 1.4.54 1.36.6 3.53.07 4.54"/>
      <g>
        <path fill="none" stroke-width=".31" d="M82.9 71.09s.14.7.32 1.26c.1.32.37.55.26.8-.13.3-.48.3-.68.22-.36-.15-.45-.08-.62 0"/>
        <g stroke="none" fill="#000">
          <path d="M78.35 72.78c.07.04.12.06.14.12.02.06 0 .1-.01.18-.19.05-.3-.2-.13-.3zm-.24-.54c.18.1.18.12-.02.2-.22-.02-.2-.2.02-.2zm-2.17-1.55c.2.3.12.73-.32.65-.02 0 0 0 0 0 .02 0 0 0 0 0a.81.81 0 0 0 .02.4c.02.07.04.12.1.17-.08.02-.16-.02-.23-.07-.3-.24-.28-.94.23-.79l.02.01h.03c.08-.08.1-.22.15-.37zm-.27 1.77c-.01-.35.6-.5.64-.1a.95.95 0 0 0-.64.1zm.2-2.13c-.16 0-.32-.03-.45-.03-.27 0-.41.27-.47.5-.03.14-.03.28-.02.43-.28-.32-.19-.93.23-1.1.28-.1.51.06.7.2zm.59 2.2c.16.36 0 .67-.37.76l-.05-.35c.28.06.42-.12.42-.4z"/>
        </g>
        <g>
          <g>
            <path fill="#f6f6f6" stroke-width=".31" stroke-linejoin="round" d="M79.79 70.59c.1-.1.45-.35.75-.35.19 0 .37.08.55.19.2.12.36.34.32.4-.11.15-.33.43-.91.43-.48 0-.97-.43-.97-.43l.26-.24z"/>
            <path fill="none" stroke-width=".17" d="M80.36 70.82a2.3 2.3 0 0 1-.04-.4v-.13l.04-.03.18-.02c.1 0 .2.02.3.06.07.07.1.17.1.29 0 .15-.1.44-.25.47-.09.03-.2 0-.26-.07a.35.35 0 0 1-.07-.17z"/>
            <g stroke="none" fill="#000">
              <path d="M80.59 70.4c.13-.15.29-.03.29.17 0 .09-.05.25-.12.27-.04.02-.09 0-.11-.03l-.04-.1-.01-.24-.01-.08zm2.69-.23c.2-.67 1.26-.53 1.58-.02-.48-.36-1.08-.25-1.58.02z"/>
            </g>
          </g>
          <g stroke="none" fill="#000">
            <path d="M84.6 71.52c-.16.41-.83.4-1.05.04.37.03.7.07 1.05-.04zm-3.6-.03c-.17.3-.59.3-.85.17a.65.65 0 0 1-.25-.19l.3.01c.27.01.54.06.8.01zm.59-1.13a1.58 1.58 0 0 0-2.01-.06c.4-.77 1.68-.77 2 .06zm.67 1.21a2.16 2.16 0 0 1-.49-1 1.08 1.08 0 0 1 .49 1z"/>
          </g>
        </g>
        <path stroke-width=".31" d="M83.33 70.59c.1-.1.41-.35.72-.35.18 0 .4.08.58.19a.44.44 0 0 1 .2.41c-.05.24-.25.42-.8.42-.47 0-.96-.43-.96-.43l.26-.24z"/>
        <g>
          <g stroke="none" fill="#000">
            <path d="M81.98 72.5c0-.08.1-.14.17-.15a.3.3 0 0 1 .34.22.2.2 0 0 1-.06.22c-.07-.06-.11-.07-.15-.08a.42.42 0 0 1-.17-.11c-.04-.04-.05-.07-.13-.1zm.23 1.01c-.38.1-.67-.26-.68-.61.1.22.35.48.59.32l.1.3zm1.51-5.74c-.08.06-.12.12-.17.16a.46.46 0 0 1-.51.06c-.08-.05-.17-.13-.17-.22.1.01.17 0 .22-.01l.36-.05c.09-.01.19-.01.27.06zm.05.5c-.22.3-.7.45-1.04.25-.3-.15-.6-.24-.92-.38.17-.06.36-.07.53-.05.26.02.5.16.72.24.23.04.46-.01.7-.06zm-.55 6.95c-.16.32-.67.33-.96.18a.61.61 0 0 1-.26-.23h.33c.29.01.64.06.9.05zm-.52-1.51a.58.58 0 0 1 .06.6.37.37 0 0 1-.06-.6zm-1.47 3.8a3.5 3.5 0 0 1-1.77-.87l.02-.03c.33.02.61.2.91.32.3.12.58.2.88.26l-.04.31zm1.48-1.6c-.18.07-.32.05-.49-.07.1-.2.45-.15.5.07zM81.1 74.5l-.31.32-.12.13c-.1-.26.19-.55.43-.45zm2.44.15c-.03.16-.24.28-.4.23-.12-.02-.25-.1-.36-.07-.44.07-1.03.25-1.4-.14.54.13 1.03-.24 1.56-.13.14.05.22.15.35.18.08.02.18 0 .25-.07zm-5.14 1.15c-.82-.24-1.3-.84-1.02-1.69l.12.51c.14.51.57.8.9 1.18z"/>
          </g>
          <g fill="#725a42" stroke-width=".29">
            <path d="M81.86 69.93c.06.07.18.02.18-.07a.85.85 0 0 0-.27-.6 1.49 1.49 0 0 0-.25-.2c-.19-.1-.47-.13-.66-.13-.2 0-.38.03-.56.07a2.8 2.8 0 0 0-1.44.8c-.06.06.01.15.08.1a3.02 3.02 0 0 1 1.47-.5c.17-.02.33 0 .48.02l.4.09.2.08.17.12.2.22zm1.3-.14c-.05 0-.09.06-.07-.1a.67.67 0 0 1 .12-.25c.22-.3.66-.37 1.02-.36.24 0 .44.07.66.16a.8.8 0 0 1 .3.24c.07.06.05.2-.05.27-.1.06-.22-.08-.38-.11-.15-.05-.3-.06-.46-.07l-.45.01-.16.05c-.14.04-.26.08-.4.15h-.13z"/>
          </g>
          <g stroke="none" fill="#000">
            <path d="M83.36 69.2a2.08 2.08 0 0 0-.3 1.86l-.3.07c-.15-.67-.04-1.53.6-1.92z"/>
          </g>
        </g>
      </g>
    </g>
    <path class="tertiary" stroke-width=".33" d="M102.3 77.35c0 3.96-.87 5.24-2.51 6.75-2.32 2.11-6.45 2.91-6.45 7.03 0 1.37 1 2.47 2.14 2.46.43 0 .9-.33.9-.74 0-.4-.34-.73-.77-.73-.2 0-.37.07-.5.18-.46 0-.81-.56-.81-1.17 0-2.85 4.71-3.52 7.32-5.68 2.48-2.05 3.38-4.13 3.38-8.1 0-3.97-.9-5.91-3.37-7.97-2.6-2.16-7.32-2.83-7.32-5.68 0-.6.35-1.17.81-1.17.14.11.32.18.5.18.43 0 .78-.32.78-.73s-.48-.73-.9-.74c-1.14 0-2.15 1.1-2.15 2.46 0 4.12 4.13 4.92 6.45 7.03 1.65 1.5 2.5 2.65 2.5 6.62z"/>
    <g>
      <g>
        <path fill="#eabfa2" stroke-width=".29" stroke-linejoin="round" d="M105.06 76.46c-.08.04-.75.06-.77.06-.18.03-.49-.02-.81.15-.17.07-.36.2-.34.52.03.36.29.4.47.43-.2.01-.7.13-.71.54-.03.6.66.54.66.54s-.55.03-.62.5c-.03.44.2.52.42.58.1.02.51.02.51.02s-.53-.05-.58.49c-.01.23.12.31.22.4.22.19 1.31.19 1.66.12.28-.04.9-.49.97-.7a.58.58 0 0 0 .02-.32c-.05-.21-.34-.32-.34-.32.01 0 .63-.36.66-.62.01-.13.07-.21.02-.36-.03-.1-.2-.21-.31-.28.1-.1.28-.26.34-.37.15-.28.14-.35 0-.57-.05-.12-.24-.17-.37-.2.16-.14.34-.4.25-.7-.06-.18-.16-.19-.42-.24l-.93.33z"/>
        <path fill="none" stroke-width=".29" d="M105.83 79.47s-.31.28-.66.32c-.4.07-1.3 0-1.3 0m2.34-1.58s-.61.44-.88.51-1.76-.03-1.76-.03m.06-1.07s1.02.11 1.55-.01c.65-.1 1-.55 1-.55"/>
        <g stroke="none" fill="#000">
          <path d="m104.98 77.41-.09-.74.02-.03c.3.1.36.63.07.77zm.12 1.2-.05-.74.03-.02c.29.13.31.64.02.75zm-.1 1.02c0-.21 0-.41.03-.62l.03-.02c.25.12.23.59-.05.64zm.13.98c-.05-.2-.02-.34.04-.54l.03-.03c.24.12.17.51-.07.57zm-1.62-3.21c.19-.06.38-.06.49-.19.06-.08.03-.1-.01-.17-.14-.08-.32-.08-.5-.14v-.01c.14-.03.28-.05.41-.04.25 0 .41.3.21.47-.16.16-.41.12-.61.09.01.01.01-.01.01-.01zm-.22 1.03c.19-.05.35-.06.5-.13l.03-.03c.06-.07.06-.1.02-.18-.1-.1-.38-.1-.54-.17v-.01c.15-.01.3-.02.44-.01.42.03.4.54 0 .57-.16 0-.31 0-.45-.03v-.01zm.05 1.08c.2-.04.37-.05.53-.1l.05-.04c.07-.08.07-.1 0-.19-.13-.11-.37-.12-.57-.2.23 0 .5-.05.7.1.23.2.02.51-.25.51-.16.01-.31-.01-.46-.05v-.03zm.31 1.04c.17-.04.34-.05.46-.12.03-.02.03-.03.04-.05l.04-.08c0-.01 0-.04-.03-.08l-.03-.04c-.14-.07-.3-.1-.48-.15v-.01c.14-.02.28-.02.43-.01.24.02.4.3.18.47-.16.15-.41.1-.61.07 0 .03 0 0 0 0z"/>
        </g>
      </g>
      <g>
        <path fill="#eabfa2" stroke-width=".29" stroke-linejoin="round" d="M100.71 76.16a3 3 0 0 1 2.05-1.07c.56-.02.58.06 1.25.1.7.04.88-.16 1.22 0 .22.05.55.4.86.56 0 0 .42.16.8.27.17.04.11.26 0 .38a.97.97 0 0 1-.42.27c-.87.16-1.72-.36-1.72-.36s-.4.16-.74.18c-.46.04-.66.03-.87-.02 0 0-.23 1.4-1.14 1.98"/>
        <g stroke="none" fill="#000">
          <polygon points="104.6 76.28 104.83 75.87 104.89 76.34 104.6 76.28"/>
          <path d="M102.99 76.45c.08-.1.07-.27.02-.4.07.05.13.1.18.19.04.1.08.16.08.28l-.28-.07zm3.81-.3c-.23.2-.6.3-.87.11-.24-.17-.1-.42.05-.58l.16.16c-.04.05-.12.15-.12.2.16.26.52.1.78.12z"/>
        </g>
      </g>
      <g stroke="none" fill="#000">
        <path d="M100.08 79.06c-.1.1-.24.12-.36.04.06-.15.26-.17.36-.04z"/>
        <path d="M100.02 78.8c-.1.2-.4.26-.56.1a1.16 1.16 0 0 1 .56-.1z"/>
      </g>
    </g>
    <g class="tertiary">
      <path d="m77.19 76.48-.03-.07c-.02-.02-.26-.5-.26-.94 0-.43.42-.91.95-.91 1.24 0 4.32 1.63 4.44 1.7l.46.24-5.56-.02zm.6 2.62a.9.9 0 0 1-.67-.3.93.93 0 0 1-.28-.62c0-.43.25-.92.26-.94l.03-.07 5.56.02-.45.24c-.13.07-3.2 1.67-4.46 1.67.01 0 0 0 0 0z"/>
      <g stroke="none" fill="#000">
        <polygon points="78.52 76.46 77.49 75.54 78.67 76.25 78.52 76.46"/>
        <polygon points="79.66 76.47 78.58 75.58 79.81 76.26 79.66 76.47"/>
        <polygon points="80.99 76.48 79.49 75.58 81.11 76.25 80.99 76.48"/>
        <polygon points="78.64 77.28 77.43 78.11 78.49 77.08 78.64 77.28"/>
        <polygon points="79.78 77.29 78.52 78.08 79.63 77.08 79.78 77.29"/>
        <polygon points="81.08 77.31 79.43 78.09 80.95 77.08 81.08 77.31"/>
      </g>
      <path d="m76.3 77.2-.04-.07a.73.73 0 0 1-.1-.37c0-.19.07-.34.07-.35l.03-.1 33.2.09.04.87-33.2-.07z"/>
      <path d="M108.43 77.85c-.4 0-.66-.44-.66-1.08 0-.64.28-1.08.66-1.08.4 0 .66.44.66 1.08.01.63-.27 1.08-.66 1.08z"/>
      <g>
        <path d="m109.5 79.59-.06-.01a.14.14 0 0 1-.08-.13V78.2c0-.05.02-.1.07-.12l1.45-.81-2.28.06c-.03 0-.08-.01-.1-.05-.01-.01-.15-.17-.15-.5 0-.33.14-.48.15-.5a.15.15 0 0 1 .1-.04h.01l2.17.18-1.35-.74c-.05-.02-.07-.07-.07-.13v-1.3c0-.05.03-.1.08-.12l.06-.01c.03 0 .07 0 .09.03l3.1 2.62c.04.02.05.07.05.1 0 .05-.02.09-.04.11l-3.13 2.59a.12.12 0 0 1-.07.02z"/>
        <g stroke="none" fill="#000">
          <path d="m109.52 74.24 3.1 2.62-3.12 2.6V78.2l1.93-1.1-2.83.08s-.11-.12-.11-.4.11-.41.11-.41l2.82.24-1.92-1.07.02-1.3m0-.28-.12.03a.29.29 0 0 0-.16.25v1.3c0 .1.06.2.14.25l.79.42-1.52-.12h-.02a.25.25 0 0 0-.2.09c-.04.03-.19.22-.19.6 0 .37.15.56.19.6.06.05.13.09.2.09h.02l1.7-.05-.96.53c-.1.05-.14.14-.14.25v1.25c0 .1.06.21.16.26.04.02.09.02.12.02.06 0 .13-.02.17-.07l3.14-2.59c.05-.05.1-.12.1-.2s-.03-.17-.1-.21l-3.11-2.63a.44.44 0 0 0-.21-.07z"/>
        </g>
      </g>
    </g>
    <g stroke="none" fill="#000">
      <path d="M102.06 78.6c-.23.1-.5.19-.75.18-.26-.01-.5-.1-.73-.16.47.07.95.05 1.33-.27l.15.24z"/>
    </g>
    <path class="tertiary" d="M94.42 91.8c-.1 0-.2-.04-.28-.11L75.9 76.24l18.26-13.25a.4.4 0 0 1 .26-.08c.14 0 .26.07.35.17.07.1.09.21.08.33a.45.45 0 0 1-.18.28l-17.37 12.6 17.38 14.75c.1.07.14.17.16.29s-.03.22-.1.31c-.09.1-.2.15-.33.15z"/>
    <g>
      <path fill="#eabfa2" stroke-linejoin="round" d="M68.33 78.21c1.23-.14 3.26-.05 3.76.02.88.12 1.2.85 2.07 1.04.73.15 1.12.1 1.5.1.08 0 .24.05.38.06.14.01.22-.01.35-.1.82-.17.9-.78.94-.95a.82.82 0 0 0 .36-.58c.06-.3-.04-.48-.04-.63a.9.9 0 0 0 .26-.58c.03-.28-.13-.5-.15-.71.08-.15.15-.28.14-.64-.01-.37-.56-.6-.56-.6l.17-.04c.14-.06.43-.37.39-.7a.62.62 0 0 0-.08-.23c-.1-.08-.28.07-.75.17l-.23.03c-.14-.06-.42-.1-.61-.1-.2 0-.27.09-.8.09-.54 0-.8 0-1.12.13-.31.13-.72.15-.86.22-.25.13-.92.7-1.05.76-.31.18-1.54-.23-2.44-.32"/>
      <g stroke="none" fill="#000">
        <path d="M76.89 78.3c.13-.02.27-.02.38-.07.01 0 .01-.02-.01 0l.15.3c-.06.03-.1.02-.13.02-.15-.04-.26-.13-.4-.21v-.05zm-.25.27c.16.28 0 .61-.12.87l-.28-.2c.17-.17.4-.4.37-.66l.03-.01zm.21-1.14c.32.21.15.73-.2.8l-.02-.02c.07-.22.15-.35.19-.56.02-.04.01-.18.03-.22zm.34-.25c.15-.06.3-.12.43-.2l.07.34a1.74 1.74 0 0 1-.5-.12v-.02zm-.23-1c.33.19.24.74-.08.9l-.03-.02c.04-.25.1-.42.1-.64.02-.05-.02-.2 0-.24zm.26-.2c.14-.07.3-.11.41-.22.01 0 0-.02-.01 0l.27.22a.35.35 0 0 1-.13.07c-.19.04-.36 0-.54-.04v-.04zm-2.98 1.31c-.3 0-.59-.09-.83-.29l.01-.03c.28-.1.68.05.82.32zm2.64-1.53c.03-.35.07-.57-.04-.88l.03-.02c.08.03.16.09.2.18.14.22.05.62-.2.72zm-3.66.87c.39-.14.77-.18 1.14-.28l.02.03c-.23.35-.8.44-1.16.25zm4.07-1.84a1.76 1.76 0 0 0-1.24-.1c-.32-.02-.67-.03-1-.08-.1-.02-.26-.02-.3-.12l.03-.02c0 .04.08.05.12.05.27.04.55 0 .82-.01l.33-.02h-.02a2 2 0 0 1 1.4-.03l-.14.33z"/>
      </g>
    </g>
    <g stroke="none" fill="#000">
      <path d="M125.1 102.02c-.22-.37-.6-.61-.95-.85-.35-.22.08-.08.23-.04.4.16.79.37 1.02.74l-.3.15zm2.86-24.61a8.75 8.75 0 0 0-3.05 3.9 6.54 6.54 0 0 0-.43 1.64c-.03-1.7.93-3.4 2-4.66a6.26 6.26 0 0 1 1.3-1.17c.08-.06.18-.04.24.05.05.08.02.2-.06.24zm.64.43c.33-.5.84-.85 1.35-1.14.52-.28 1.04-.54 1.53-.84.25-.16.47-.32.66-.53a4.06 4.06 0 0 0 .8-2.36c.02-.24.36-.21.35.02-.08.96-.35 2.02-1.12 2.7-.65.49-1.42.8-2.14 1.16a4.32 4.32 0 0 0-1.43.99zm4.85-1.9a4.6 4.6 0 0 1-1.43 2.04 9.74 9.74 0 0 1-1.86.86 7.46 7.46 0 0 0-3.76 3.4 7.35 7.35 0 0 0-.95 3.03c0-.53.07-1.07.2-1.6a7.83 7.83 0 0 1 4.03-4.91c.7-.34 1.5-.58 2.16-1.04.61-.46 1-1.18 1.29-1.89.06-.23.4-.11.32.1zm-2.39 27.43a7.15 7.15 0 0 0 3.1-2.09 3.21 3.21 0 0 1-3.1 2.09zm-4.27-13.47c.51.58 1.23.87 1.95 1.12a9.98 9.98 0 0 1 2.11.9 6.7 6.7 0 0 1 2.44 2.46 7.4 7.4 0 0 1 .75 4.54 5.5 5.5 0 0 1-1.63 3.02 2.85 2.85 0 0 1-2.12.78c1.58-.02 2.66-1.43 3.17-2.8a6.73 6.73 0 0 0-2.76-7.78c-.63-.42-1.33-.7-2.03-.97a4.14 4.14 0 0 1-1.88-1.27zm7.66-1.76c-.05.68.38 1.2.66 1.79a7.66 7.66 0 0 1 .24 5.78c.19-1.27.23-2.56.01-3.84a9.22 9.22 0 0 0-.5-1.84c-.23-.58-.62-1.24-.41-1.89zm-1.72-4.98c-1.05 1.44-2.09 2.97-1.62 4.84.12.57.36 1.14.5 1.73-.27-.55-.57-1.07-.77-1.66-.64-1.9.49-3.71 1.9-4.9zm-3.83 3.61a6.47 6.47 0 0 0 1.45 3.88 5.8 5.8 0 0 1-1.71-3.06 5.07 5.07 0 0 1-.07-.83l.33.01zm8.13 6.83c-.53 1.5.63 3.14-.04 4.62.08-.4.1-.78.04-1.16-.12-1.18-.74-2.37-.33-3.57l.33.11zm-3.28-4.94c.18 1.47.72 3.11.1 4.56.09-.38.11-.75.11-1.14 0-.95-.25-1.88-.45-2.8-.04-.19-.08-.39-.1-.6l.34-.02z"/>
    </g>
  </g>
</svg>
