<svg xmlns="http://www.w3.org/2000/svg" fill="#d7374a" stroke="#000" viewBox="50 50 200 200">
  <metadata source="http://wappenwiki.org/images/c/c0/Arch-Chamberlain.svg" license="https://creativecommons.org/licenses/by-nc-sa/3.0"/>
  <g id="sceptre" stroke-width="3" transform="translate(49 59.5) scale(0.098)">
    <path d="M535.4 804.6c0 8.2-5.7 14.8-12.8 14.8s-12.8-6.6-12.8-14.8c0-8.2 5.7-8.8 12.8-8.8s12.8.6 12.8 8.8zM576.1 102.8a33.7 33.7 0 0 0-8.4-21.2c-10.2-10.9-30.6-11.5-45.2-8.2-14.6-3.3-35-2.7-45.2 8.2a34 34 0 0 0-8.4 21.2 65.9 65.9 0 0 0 3.5 22.8c1.3 4.1 2.9 8.2 5.7 11.5 1.3 1.5 2.9 2.7 4.1 4.3 4.2 5.3 4.7 14 10.9 16.5l29 7.4v.1l.3-.1.3.1v-.1l29-7.4c6.3-2.5 6.8-11.2 10.9-16.5 1.2-1.6 2.8-2.8 4.1-4.3 2.8-3.2 4.4-7.4 5.7-11.5a61.6 61.6 0 0 0 3.7-22.8zM550.3 49.3c3.5 3.6 8 7 12.9 8.1 4.3 1 10.9 1.4 14.5-1.6-7.4-13.3 8.7-18.6 13.9-9.6 3.1 5.4.4 11.5-5.6 15.4a30.7 30.7 0 0 1-20 3.3 22 22 0 0 1-5.6-2c-5.1-2.5-9.9-6-12.5-11M493.6 49.3c-3.5 3.6-8 7-12.9 8.1-4.3 1-10.9 1.4-14.5-1.6 7.4-13.3-8.7-18.6-13.9-9.6-3.1 5.4-.4 11.5 5.6 15.4a30.7 30.7 0 0 0 20 3.3 22 22 0 0 0 5.6-2c5.1-2.5 9.9-6 12.5-11"/>
    <path d="M516 47.1c-32 31.8-19.3 70.4-47.5 91.8-13.9 10.5-39.7 12.6-51.2-4.2-5.2-7.6 13.8 4.9 27.1-11.2 5.7-7.4 1.8-16.5-.6-22.3-3.4-8.1-2.7-19.8 4.2-26.3 8.2-7.7 17.7-8.6 22.9-6 7.8-3.5 20.9-6.9 22.8-21.7M529.1 47.1c32 31.8 19.3 70.4 47.5 91.8 13.9 10.5 39.7 12.6 51.2-4.2 5.2-7.6-13.8 4.9-27.1-11.2-5.7-7.4-1.8-16.5.6-22.3 3.4-8.1 2.7-19.8-4.2-26.3-8.2-7.7-17.7-8.6-22.9-6-7.8-3.5-20.9-6.9-22.8-21.7"/>
    <g stroke="none" fill="#000">
      <path d="M574.9 67.5c2.2 1.2 4.3 2.4 6.3 4 1 .7 1.9 1.6 2.8 2.5l2.4 2.9c1.5 2.1 2.5 4.4 3.1 6.9.6 2.5.6 5 .4 7.4-.4 4.9-1.9 9.5-3 14.2-.5 2.3-1 4.7-.8 7.1a8.9 8.9 0 0 0 2.9 6.3 9 9 0 0 1-3.3-6.3c-.3-2.4 0-4.9.4-7.2.8-4.8 2.1-9.4 2.2-14.1.1-2.3-.1-4.7-.7-6.9s-1.7-4.2-3.1-6l-1.1-1.3-1.2-1.2c-.9-.7-1.7-1.5-2.7-2.1a35.6 35.6 0 0 0-6-3.4l1.4-2.8z"/>
    </g>
    <path d="M556.7 83c-6.6-9.7-12-15.1-13.5-21-1.5-5.8-1.6-10-1.6-16.1l-19.1.8-19.1-.8c-.1 6.1-.1 10.3-1.6 16.1-1.5 5.8-8.1 13.7-13.5 21-2 2.6-3.3 9.1-3.3 12.6-.3 13 6 23.7 14.2 32.8 4.2-3.7 6.4-10.8 8.2-16.5-1.7 11.6 6.2 24 15.1 29.9 8.9-5.9 16.8-18.3 15.1-29.9 1.7 5.7 4 12.8 8.2 16.5 8.2-9.1 14.5-18.8 14.2-31.8 0-3.5-1.4-10.8-3.3-13.6zM573.9 778.4c0 13.6-17.9 19-51.4 19s-51.4-5.5-51.4-19 17.9-22.6 51.4-22.6 51.4 9 51.4 22.6zM565.1 452.5c0-40.7-25.9-92.6-25.9-279h-33.3c0 186.4-25.9 238.3-25.9 279 0 33.2 13.8 65 42.4 65.4h.4c28.6-.4 42.3-32.2 42.3-65.4z"/>
    <g>
      <path d="M542.6 164c.8 5.3 2 10.6 4.5 15.3 2.5 4.7 7 10.1 13.4 11 0 0-2.1-6 1.3-9.9a9.4 9.4 0 0 1 8.9-3.4c7.2.6 13.1 6.5 14.4 13.5a16.4 16.4 0 0 1-9 17.7 21.3 21.3 0 0 1-17.8.1 36.6 36.6 0 0 1-14.1-11.5 53 53 0 0 1-10.8-26.1"/>
    </g>
    <g>
      <path d="M502.5 164c-.8 5.3-2 10.6-4.5 15.3-2.5 4.7-7 10.1-13.4 11 0 0 2.1-6-1.3-9.9a9.4 9.4 0 0 0-8.9-3.4c-7.2.6-13.1 6.5-14.4 13.5a16.4 16.4 0 0 0 9 17.7 21.3 21.3 0 0 0 17.8.1 36.6 36.6 0 0 0 14.1-11.5 53 53 0 0 0 10.8-26.1"/>
    </g>
    <path d="M562.9 654.4c0 47.4-17.1 85.8-40.4 85.8-23.3 0-40.4-38.4-40.4-85.8s17.1-85.8 40.4-85.8c23.3 0 40.4 38.4 40.4 85.8zM566.5 543.9c0 11.6-10.7 21-43.9 21s-43.9-9.4-43.9-21 10.7-21 43.9-21 43.9 9.4 43.9 21zM558.9 754.1c0 8.9-19.1 9.1-36.4 9.1-17.3 0-36.4-.3-36.4-9.1 0-8.9 14.5-13.1 36.4-13.1 22 .1 36.4 4.3 36.4 13.1z"/>
    <path d="M552 585.8h-58.9c-6.1 0-11.1-5-11.1-11.1V573c0-6.1 5-11.1 11.1-11.1H552c6.1 0 11.1 5 11.1 11.1v1.7a11 11 0 0 1-11.1 11.1zM549.1 526.6h-53a10 10 0 0 1-10-10v-1.5a10 10 0 0 1 10-10h53a10 10 0 0 1 10 10v1.5a10 10 0 0 1-10 10zM544.7 174.7h-44.4a7.6 7.6 0 0 1-7.6-7.6c0-4.2 1.6-7.6 5.8-7.6h47.9c4.2 0 5.8 3.4 5.8 7.6a7.4 7.4 0 0 1-7.5 7.6z"/>
    <path d="M555.4 163h-65.6c-4.4 0-8-3.4-8-7.6 0-4.2.7-7.6 5.1-7.6h71.3c4.4 0 5.1 3.4 5.1 7.6 0 4.2-3.5 7.6-7.9 7.6zM554.5 53.2s-11.8 2-31.9 2c-20.2 0-31.9-2-31.9-2-5.6-.9-7.5-5.4-7.5-9.5 0-4.2 3.9-7.5 8.1-7.5H554c4.2 0 8.1 3.4 8.1 7.5-.1 4.2-2 8.4-7.6 9.5zM545.9 744.5h-46.7a7.5 7.5 0 0 1-7.5-7.5v-1.3c0-4.7 3.8-8.4 8.4-8.4h44.8c4.7 0 8.4 3.8 8.4 8.4v1.3a7.4 7.4 0 0 1-7.4 7.5z"/>
    <path d="M555.3 31.7c0 6.2-6.1 8.1-32.7 8.1-26.7 0-32.7-1.9-32.7-8.1s11.4-11 32.7-11c21.3 0 32.7 4.9 32.7 11z"/>
    <path d="M511 16.4a11.5 11.5 0 0 1 23 0c0 6.3-5.2 7.5-11.5 7.5-6.3.1-11.5-1.1-11.5-7.5z"/>
    <g stroke="none" fill="#000">
      <polygon points="522.6,105.8 521.1,54.2 524.1,54.2"/>
      <path d="M471.5 70.2c-2.1 1-4.2 2.1-6 3.4-1 .6-1.8 1.4-2.7 2.1l-1.2 1.2-1.1 1.3a19 19 0 0 0-3.1 6c-.6 2.2-.8 4.5-.7 6.9.2 4.7 1.4 9.4 2.2 14.1.4 2.4.7 4.8.4 7.2a9.1 9.1 0 0 1-3.3 6.3 8.5 8.5 0 0 0 2.9-6.3c.2-2.4-.3-4.7-.8-7.1-1.1-4.7-2.5-9.3-3-14.2-.2-2.4-.1-5 .4-7.4a18 18 0 0 1 3.1-6.9c.7-1.1 1.6-2 2.4-2.9a41.8 41.8 0 0 1 9.1-6.5l1.4 2.8z"/>
      <polygon points="536.2,112.1 536.7,101.2 539.2,111.8"/>
      <polygon points="505.9,111.8 508.4,101.2 508.9,112.1"/>
    </g>
  </g>
</svg>
