<svg xmlns="http://www.w3.org/2000/svg" fill="#d7374a" stroke="#000" viewBox="50 50 200 200">
  <metadata source="http://wappenwiki.org/images/1/1b/Von_Jungingen.svg" license="https://creativecommons.org/licenses/by-nc-sa/3.0"/>
  <g id="scissors" stroke-width="3" transform="translate(42 61) scale(0.111)">
    <path d="M321.5-7.5s-10.8 28.7-1.6 71.6c9.2 42.9 50.6 156 50.6 156l49.1 124.6s16.6 2 34.6 10.4a68 68 0 0 1 24.9 18.8l.9 2.1 29.3 59c4 8 10 11.3 14.1 19.6l35 90.6c2.2 5.6 8 8.8 14 7.7 4-.8 8.8.7 12.8 3.8 6 4.7 7.8 12.7 8.3 17.7a90.7 90.7 0 0 0 .2 84.2c20.6 41.2 65.2 61.1 102 46.6a67 67 0 0 0 5.4-2.4c37.6-18.8 50.6-69.1 29-112.4-20.6-41.2-65.2-61.1-102-46.6a67.2 67.2 0 0 0-15.5 8.7c-2-5.5-5.9-10.1-11.8-15a42 42 0 0 0-22.5-9.4l-30.8-79.7c-4.4-11.1 1-16.4-5-29.9l-29.3-59c-.7-1.3-1.4-2.4-2.3-3.5-2.6-4.9-6.2-11.9-7.3-14.5-1.6-4.2-.5-15.3-.5-15.3l-54.7-124.6c-16.6-37.8-126.9-209-126.9-209m398 657.3a53.2 53.2 0 0 1-31.2 37c-28 11-62.2-5-78-36.6a73.6 73.6 0 0 1-6-51.2 53.2 53.2 0 0 1 31.2-37c28-11.1 62.2 5 78 36.6a73.6 73.6 0 0 1 6 51.2z"/>
    <path d="M723.6-7.5s-110.3 171.3-126.9 209L542 326.3s1.1 11-.5 15.3a235 235 0 0 1-7.3 14.5c-.9 1-1.6 2.2-2.3 3.5l-29.3 59c-6 13.5-.6 18.8-5 29.9L466.8 528a42 42 0 0 0-22.5 9.5c-6 4.8-9.7 9.4-11.8 14.9a67.1 67.1 0 0 0-15.5-8.7c-36.8-14.5-81.4 5.4-102 46.6-21.6 43.3-8.6 93.6 29 112.4l5.4 2.4c36.8 14.5 81.4-5.4 102-46.6a90.7 90.7 0 0 0 .2-84.2c.5-5 2.3-13 8.4-17.7 4-3 8.7-4.6 12.7-3.8 6 1.1 11.8-2 14-7.7l35-90.6c4.1-8.3 10.1-11.6 14-19.5l29.4-59 1-2.2a68 68 0 0 1 24.8-18.8c18-8.3 34.6-10.4 34.6-10.4l49.1-124.5S716 107 725.2 64c9.2-43-1.6-71.6-1.6-71.6m-392 606.2c15.8-31.6 50-47.7 78-36.7a53.2 53.2 0 0 1 31.3 37 73.6 73.6 0 0 1-6.1 51.3c-15.8 31.6-50 47.7-78 36.7l-4-1.8a53.2 53.2 0 0 1-27.3-35.3 73.6 73.6 0 0 1 6.1-51.2z"/>
    <circle cx="522.6" cy="419.4" r="10.6"/>
  </g>
</svg>
