<svg xmlns="http://www.w3.org/2000/svg" fill="#d7374a" stroke="#000" viewBox="50 50 200 200">
  <metadata source="http://wappenwiki.org/images/8/8d/Jurisic.svg" license="https://creativecommons.org/licenses/by-nc-sa/3.0"/>
  <g id="scorpion" stroke-width="3" transform="rotate(90) translate(6.5 3.7) scale(0.176 -0.176)">
    <path d="M426.5 723.1a29 29 0 0 0-6.2 22.2c.3 2.6 2.1 6 3.2 5.7 1.1-.4.6-4.2.3-6-1-5.9.5-11.1 4.1-15.9.7-.9 1.4-2.8 1.9-3.8.5-1.1-.6-2.1-.6-2.1l-2.7-.1zm-11.4-48c1.4-1 6.1.5 8.2-2.4 1.2-1.7 3.6 2.5 3.6 4.6 0 .9-1.6 1.6-3.3 3.3-2.2 2-4.6 4.8-4.6 4.7.8-9.5-5.6-9-3.9-10.2zm55.7 63.6c-2.1 9.5-2 17.2 3.5 25.7 1.7 2.7 5.5 5.2 6.5 4.3 1-1-1.7-4.7-3-6.5-4.1-5.9-3.3-12.8-2.5-17.7.3-1.4.1-3.7 0-5.2 0-1.4-1.7-1.9-1.7-1.9l-2.8 1.3zm75.1-21c-2.7 9.4-3 17 2 25.8 1.6 2.8 5.2 5.5 6.3 4.6 1-.9-1.5-4-2.7-5.9-3.8-6.1-2.5-13.7-1.3-18.6.4-1.4.3-3.7.4-5.2 0-1.4-1.6-2-1.6-2l-3.1 1.3zm107.2-20c6.4 7.4 9.9 14.2 9 24.3-.3 3.2-2.4 7.2-3.7 6.8-1.3-.4-.3-4.3 0-6.5.8-7.1-3.5-13.5-6.6-17.4-.9-1.1-1.8-3.3-2.5-4.5-.6-1.3.6-2.5.6-2.5l3.2-.2zm-327-235.6a88.4 88.4 0 0 0-20.3 18.2c-1.9 2.9 1.1 1.8 1.1 1.8s10.2-7.7 12.6-9.8c5-4.2 14.1-7.9 17.6-7.9 6.6-.2 6.4.7 6.6.2.1-.5 13.1-16.9 13.1-16.9s-23.1 10.1-30.7 14.4zm100.4-7.2a29 29 0 0 1-6.2-22.2c.3-2.6 2.1-6 3.2-5.7 1.1.4.6 4.2.3 6-1 5.9.5 11.1 4.1 15.9.7.9 1.4 2.8 1.9 3.8.5 1.1-.6 2.1-.6 2.1l-2.7.1zm-11.4 48c1.4 1 6.1-.5 8.2 2.4 1.2 1.7 3.6-2.5 3.6-4.6 0-.9-1.6-1.6-3.3-3.3-2.2-2-4.6-4.8-4.6-4.7.8 9.6-5.6 9.1-3.9 10.2zm55.7-63.5c-2.1-9.5-2-17.2 3.5-25.7 1.7-2.7 5.5-5.2 6.5-4.3 1 1-1.7 4.7-3 6.5-4.1 5.9-3.3 12.8-2.5 17.7.3 1.4.1 3.7 0 5.2 0 1.4-1.7 1.9-1.7 1.9l-2.8-1.3zm75.1 20.9c-2.7-9.4-3-17 2-25.8 1.6-2.8 5.2-5.5 6.3-4.6 1 .9-1.5 4-2.7 5.9-3.8 6.1-2.5 13.7-1.3 18.6.4 1.4.3 3.7.4 5.2 0 1.4-1.6 2-1.6 2l-3.1-1.3zm107.3 20c6.4-7.4 9.9-14.2 9-24.3-.3-3.2-2.4-7.2-3.7-6.8-1.3.4-.3 4.3 0 6.5.8 7.1-3.5 13.5-6.6 17.4-.9 1.1-1.8 3.3-2.5 4.5-.6 1.3.6 2.5.6 2.5l3.2.2zM706.8 703c-2.6 1.8-10.8 3-17.3 2.3-6.5-.7-14.9-1.2-23.2-12.4-6.4-8.4-5.6-14-5.3-19.9.4-5.9 4-9.6 3.7-16.7 0-4.6-1.7-7.3-5.3-10.5-3.3-2.9-8.5-1.6-8.5-1.6s1.7-3 8.6-1.9c7 1.1 7.9 7.2 11.6 11.7 3.7 4.6 7.3 8 18 18.7s10.3 16.9 10.3 16.9-.2 4.2 2.9 3.2c3.3-.8 7.1 8.4 4.5 10.2z"/>
    <path d="M700.8 693.3c0-3.1.6-2.6 3.7-2.6 1 0 1.6 1.7 3.3 2.1 3.6.7 8.6.7 8.6 2.9 0 1.6-3.7 2.5-5.8 4-2 1.5-2.3 3.8-3.8 3.8-.3 0-.6-.1-.7-.4-.5-.9-.1-3.4-.9-5.1-1.1-2.2-4.4-3.2-4.4-4.7z"/>
    <path d="M749.2 631.1c3.6-1.3 8-5.8 8.3-3 .5 2.9 1.4 6.2.9 9.3-1.2 8.7-6 17.3-8 19.9a853.4 853.4 0 0 1-26 30.2c-2.6 2.9-4.4 6-6.4 8-1.4 1.4-5-1.4-5.8-1.5-2.2-.3-3.9 1.2-7.2-1.2-3.3-2.4-4.2-4.3-4.2-6.5-.5-1.1 3.9-5.7 6.9-11.3 6.4-11.9 15-29 17.8-32.7 3-4 8.6-10.3 12.8-11.2 4-.8 7.3 1.2 10.9 0z"/>
    <path d="M727.2 599.7c1.8-2.9 4.2-6.7 6.9-5.9 11 2 16.9 11.5 19.4 15.3 3.8 5.9 6.3 14.7 4.8 18.1-1.1 1.9-4.7 4-7 5.5s-8 1.5-10.4 1.6c-3.6.4-8.8-3.4-12.5-9.1-2.7-4.2-6.7-11.7-6-15.9.6-3.9 2.7-6.1 4.8-9.6z"/>
    <path d="M693.9 586.9c0-3.4-.9-7 3.8-8 3.9-.8 19.4.4 23.5 2.4 6.3 3.1 12.7 6.5 13 12.2.1 2.2-4.7 5.4-6 7.9-1.2 2.5-2.8 6.6-4.8 7.9-4.7 3.1-9.3 1.7-15.4-1.3-4.5-2.2-11.1-6.9-12.7-10.9-1.5-3.5-1.4-6.2-1.4-10.2z"/>
    <path d="M663.4 589.3c0-4.4.4-8.6 3.9-11.3 3.1-2.4 11.2-3.6 15.8-3.6 7 0 12.7 1.4 15.5 6.5 1.1 1.9 1.1 5.7 1.1 8.5s-.1 6.9-1.4 8.9c-2.9 4.8-8.4 6-15.2 6-5 0-13-1.3-16.2-4.1-3.1-2.8-3.5-6.9-3.5-10.9zm-236.6 87.5c2.5.6 3.7 1.9 2.9 4.7-.8 2.7-1.2 5.6-2.2 8.3-4.1 10.4-7.5 21-16.8 28.6-7.7 6.4-7.2 6.9-15.6 2 0 0-.4-.6-.3-1.4 1.9-6.4 4-12.8 6.1-19.1 1.2-3.5 3.3-6.3 6.8-8 4.3-2.1 8.9-3.5 11.4-8.5 1.4-2 3.3-3.8 4.8-5.1 1.1-1 1.7-1.8 2.9-1.5zm-16.9-2.9c-2.6-.8-5.4-1.4-7.5-2.9-5.5-4-10.9-8.3-15.8-13-4.9-4.7-9-10.2-13.8-15-3-2.9-3.3-5.9-2.4-9.4.9-4 5-5.5 5-5.5s4.4-1.2 5.4-.6l2.9 1.8a79.4 79.4 0 0 1 24.6 22.3c5.5 8 15.9 16.8 15.6 21.6-.3 2.4-5.5 3.4-7.4 3-2-.6-1.9-1-6.6-2.3zm24.2-29.6c-2-2.2-3.1-5.7-3.1-7.3 0-1.5 5.2-1.9 5.2-1.9 2.8 1.3 7 5.9 10.1 8.9 2.6 2.7 5.3 6.4 7.5 9.3 1.5 2 3.2 5.2 3.6 6.8.4 1.6 1.2 3.5-2.3 4.4-3.4 1-19.1-18-21-20.2zm3.4 53.7c-2.9 4.4-4.9 10.1-7.8 14.4a17.5 17.5 0 0 0-3.7 9c-.2 1.9.1 3.2 1.6 3.5 1.3.3 3.1 0 4.2-.7 1-.6 1.7-2 2.2-3.2 2.8-6.2 7.2-13.8 8.5-20.5.4-2-.6-1.9-.6-1.9l-4.4-.6z"/>
    <path d="M459 666.7a26 26 0 0 0-1.1-3.7c-.4-.7-3.7 1.2-3.7 1.2s-.2 1.7-.9 3.6c-.5 1.5-1.5 3-1.5 3.9 0 2 4.9 2 4.9 2s2.7-3.9 2.3-7z"/>
    <path d="M442.7 700.9c7.9-6.7 10.4-16.4 13.8-25.6 1.1-2.9.6-2.6.6-2.6-1.1-.4-2.2-.6-3.2-1.1-1.6-.8-2.3-.3-3.3 1.1-4.7 6.7-9.6 17.5-13.4 24.7-1.3 2.1 3.7 4.5 5.5 3.5zm-71.3-82.1c0-1 .3-2-.1-2.9-.9-2.1.3-3.2 1.9-4 3.7-1.7 7.3-3.6 11.2-4.9 1.7-.6 4-.3 5.7.4.9.4 1 2.5 1.5 3.8.8 1.9 1.8 3.2 2.6 5.2 0 0 .4 1-1.2 2-2.5 1.5-5.3 2.4-7.9 3.7-1.7.8-3.1.7-5.1.2-4.2-.9-8.6-2.6-8.6-3.5z"/>
    <path d="M408.5 611.9c-1.9 1.8-3.9 3.5-5.7 5.4-1.6 1.7-3.3 1.6-5.1.7-1.7-.9-5.2-1.3-6.1-4.1-1-2.8-1.1-7.1-1.1-7.1 2.5-4.4 6.4-2.8 10.1-2.5l2.5.4m-21.3 17.6c0 2.4-.9 5.4-4 5.6-3.6.3-4.3 2.8-6.1 2.1-1.8-.7-3.6-1.6-5.4-2.1-2.5-.7-4.2-1.9-3.5-4.7.6-2.4 2.2-3.8 5-4a21 21 0 0 1 9.4 1l4.6 2.1zm53.4 13.8c2-1 2-1 1.5-2.4-.4-1.4-.8-1.1-1.9-5.1-1.1-4-.2-5-1.9-6.3-1.6-1.3-5.9-1.1-5.9-1.1l-.9 2c-1.5 4.6.2 11.4 3.6 14 2.2 1.6 3.7-.2 5.5-1.1z"/>
    <path d="M423.9 614.8v1.1c.3 1.9.1 4.6 1.2 5.6 1.3 1.2 4 .7 5.9 1.4 1.1.4 2.2.3 2.2.3 1.3-.6 2.6-4.2 2.2-6.1m26.6 37c-9.7-8.9-13.2-13.6-13.5-15.4-.3-1.8 5.9-3.3 5.9-3.3 3.6.9 9.8 5.2 14.1 8.3 3.6 2.7 7.5 6.7 10.8 9.8 2.2 2.1 4.6 5.1 5.4 7 .8 1.9 2.1 3.9-1.9 5.7-4.1 1.7-11.2-3.1-20.8-12.1zm12.4 52.1c-1.7 6.2-.2 8.2-3.8 19.5-1.1 3.9-2.5 7.8-1 11.8.8 2.2 1.4 3.1 3.2 2.6a7.5 7.5 0 0 0 4.2-3c.8-1.2.8-3 .7-4.6-.6-16.3 4.1-16.9 3.2-25.1-.3-2.4-1.4-2-1.4-2l-5.1.8z"/>
    <path d="M485.7 663.8c-.6-.8-4.2 2.2-4.2 2.2s-1.4 4.4-.6 6.9c.7 2.3 6.4.5 6.4.5s2.1-6.3-1.6-9.6z"/>
    <path d="M481.4 707.7c6.7-10.7 5.7-20.7 6.2-32.5.2-3.7-.2-3.2-.2-3.2-1.4 0-2.8.1-4.1-.1-2.1-.4-2.8.5-3.4 2.4-4.9 13.9-.9 21.9-6.1 31.4-.7 2.9 6 3.8 7.6 2zm-28.1-70.9c2.2-1.6 2.1-1.6 1.4-3.2-.8-1.6-1.2-1.2-3.3-5.7-2.1-4.6-1.3-5.9-3.5-7.2-2.2-1.3-7.2-.2-7.2-.2l-.7 2.5c-.9 5.7 2.5 13.6 7.1 16.1 2.8 1.6 4.2-.9 6.2-2.3z"/>
    <path d="m435.8 613.6.2 1.3c.8 2.2 1 5.4 2.6 6.4 1.8 1.1 4.9 0 7.3.5 1.4.2 2.7-.1 2.7-.1 1.5-1 2.3-5.5 1.4-7.7m48.9 32.4c-12.4-4.5-15.5-7.6-16.5-9.2-1-1.6 2.3-5.2 2.3-5.2 3.7-.5 11.1 1 16.2 2.2 4.4 1.1 9.5 3.3 13.7 4.9 2.9 1.1 6.2 2.9 7.7 4.4 1.5 1.4 3.5 2.8.4 5.9-3 3.2-11.4 1.5-23.8-3zm41.7 42.7c.1 6.4 2 7.9 1.7 19.8 0 4-.7 7.9 1.9 11.4 1.4 1.8 2.6 2.8 4.3 1.9a8.6 8.6 0 0 0 3.3-4c.4-1.3-.1-3.1-.5-4.6-5.1-15.5-.7-17.4-3.8-25-.9-2.3-1.9-1.5-1.9-1.5l-5 2z"/>
    <path d="M524.5 646.2c-.8-.5-3 3.6-3 3.6s1 5.4 3.1 7c1.9 1.4 5.4-3.4 5.4-3.4s-.8-5.6-5.5-7.2z"/>
    <path d="M547.8 688.6c3.5-12.1-9.8-24-16.3-33.9-2.1-3.1-2.1-2.4-2.1-2.4-1.1.8-2.2 1.8-3.4 2.4-1.9.9-2 2-1.3 4 4.3 14.1 17.6 19.6 15.2 30.2.1 2.8 6.8 1.8 7.9-.3zm-62.6-54.4c2.6-4.2-2.1-6.8-3.9-7.8-1.9-1-4.2-3-6.7-3.3-2.5-.3-15.4 4.2-15.4 4.2-.7-.4.3 2.6.3 2.6 1.4 5.6 17.5 8.8 22.6 9.4 3.4.4 1.9-3 3.1-5.1z"/>
    <path d="m451.7 621.5.7 1.1c1.6 1.8 3.3 5.9 5.1 6.2 2.1.4 13.2-3.4 15.6-4 1.4-.3 2.4-1.1 2.4-1.1 1-1.5-7.4-7.2-9.1-9M577.6 645c-13-2-21-5.3-22.3-6.7-1.3-1.4 1.2-5.5 1.2-5.5a90.1 90.1 0 0 1 38.4.7c6.6 1.6 13.9 3.1 13.9 3.1s.4 3.1-.4 4.3c-1.4 2.6-17.8 6.1-30.8 4.1zm56.3 30.7c2.3 6 4.8 6.8 9.2 17.9 1.5 3.7 2.4 7.6 6.1 9.7 2 1.2 3.5 1.6 4.7 0 1-1.3 1.6-3.4 1.4-5-.1-1.4-1.3-2.8-2.3-4-10.7-12.3-7.5-15.4-13-21.6-1.6-1.8-2.3-.8-2.3-.8l-3.8 3.8z"/>
    <path d="M609.6 636.4c-1-.2-1.6 4.5-1.6 4.5s2.2 4.4 4.6 5.5c2.1 1 4.6-4.4 4.6-4.4s-2.7-5.7-7.6-5.6z"/>
    <path d="M640.6 673.4c1-12.5-13.3-22.1-21.7-30.5-2.6-2.6-2.5-2-2.5-2-.9 1-1.8 2.2-2.8 3-1.7 1.3-1.5 2.4-.5 4.2 7 13 20.2 16.3 19.9 27.1.6 2.9 6.9.5 7.6-1.8zM557.5 633c1-1.7-3.9-3.7-5.9-4.4-1.3-.4-9.5-4.8-17.4-6.4-4.8-1-9.9-.3-10.9-.2-2.6.2-7.1 4.8-6.7 8.4.2 2.5 9.3 3.4 15.1 5.4 5.8 2 18.7 3.6 23.8 3.1 3.3-.2 1.2-3.6 2-5.9z"/>
    <path d="M522.2 623c1-1.7-3.5-3.4-5.6-4-1.3-.4-11.7-3.7-19.5-5.3-4.8-1-11.4-3-12.3-2.9-2.6.2-7.8 4.1-7.4 7.7 5.2 2.7 11.5 6.8 17.2 8.8 5.8 2 17.1 3.4 22.2 2.9 3.3-.4 4.6-5 5.4-7.2zm-167-174.6a46 46 0 0 1 37.4-2.5c2.8 1.1 5.1 3.7 7.6 5.6 2.5 1.9 2 4.2 2 4.2s-4.7 1.6-6.1 1.9c-1.4.4-1.9-1.4-4.5.4-1.4 1.1-2.4 2.6-3.6 3.9-6.6 7.2-14.4 11.8-24.5 10.7a40.6 40.6 0 0 0-22.7 5.1 163.3 163.3 0 0 0-28.7 17.3c-2 1.5-4.8 3.8-5.1 2-.3-1.9 2-4.6 3-5.6 7-7 14.8-14.4 21.8-19.1 3.3-2 4.6-4.4 7.2-8.3 2.5-3.7 12.3-14 16.2-15.6z"/>
    <path d="M426.8 501.3c2.5-.6 3.7-1.9 2.9-4.7-.8-2.7-1.2-5.6-2.2-8.3-4.1-10.4-7.5-21-16.8-28.6-7.7-6.4-7.2-6.9-15.6-2 0 0-.4.6-.3 1.4 1.9 6.4 4 12.8 6.1 19.1 1.2 3.5 3.3 6.3 6.8 8 4.3 2.1 8.9 3.5 11.4 8.5 1.4 2 3.3 3.8 4.8 5.1 1.1.9 1.7 1.8 2.9 1.5zm-16.9 2.9c-2.6.8-5.4 1.4-7.5 2.9-5.5 4-10.9 8.3-15.8 13-4.9 4.7-9 10.2-13.8 15-3 2.9-3.3 5.9-2.4 9.4.9 4 5 5.5 5 5.5s4.4 1.2 5.4.6l2.9-1.8a79.4 79.4 0 0 0 24.6-22.3c5.5-8 15.9-16.8 15.6-21.6-.3-2.4-5.5-3.4-7.4-3-2 .5-1.9.9-6.6 2.3zm24.2 29.5c-2 2.2-3.1 5.7-3.1 7.3 0 1.5 5.2 1.9 5.2 1.9 2.8-1.3 7-5.9 10.1-8.9 2.6-2.7 5.3-6.4 7.5-9.3 1.5-2 3.2-5.2 3.6-6.8.4-1.6 1.2-3.5-2.3-4.4-3.4-.9-19.1 18.1-21 20.2zm3.4-53.6c-2.9-4.4-4.9-10.1-7.8-14.4a17.5 17.5 0 0 1-3.7-9c-.2-1.9.1-3.2 1.6-3.5 1.3-.3 3.1 0 4.2.7 1 .6 1.7 2 2.2 3.2 2.8 6.2 7.2 13.8 8.5 20.5.4 2-.6 1.9-.6 1.9l-4.4.6z"/>
    <path d="M459 511.3a26 26 0 0 1-1.1 3.7c-.4.7-3.7-1.2-3.7-1.2s-.2-1.7-.9-3.6c-.5-1.5-1.5-3-1.5-3.9 0-2 4.9-2 4.9-2s2.7 3.9 2.3 7z"/>
    <path d="M442.7 477.1c7.9 6.7 10.4 16.3 13.8 25.6 1.1 2.9.6 2.6.6 2.6-1.1.4-2.2.6-3.2 1.1-1.6.8-2.3.3-3.3-1.1-4.7-6.7-9.6-17.5-13.4-24.7-1.3-2.1 3.7-4.4 5.5-3.5zm-71.3 82.1c0 1 .3 2-.1 2.9-.9 2.1.3 3.2 1.9 4 3.7 1.8 7.3 3.6 11.2 4.9 1.7.6 4 .3 5.7-.4.9-.4 1-2.5 1.5-3.8.8-1.9 1.8-3.2 2.6-5.2 0 0 .4-1-1.2-2-2.5-1.5-5.3-2.4-7.9-3.7-1.7-.8-3.1-.7-5.1-.2-4.2.9-8.6 2.6-8.6 3.5z"/>
    <path d="M408.5 566.1c-1.9-1.8-3.9-3.5-5.7-5.4-1.6-1.7-3.3-1.6-5.1-.7-1.7.9-5.2 1.3-6.1 4.1-1 2.8-1.1 7.1-1.1 7.1 2.5 4.4 6.4 2.8 10.1 2.5l2.5-.4m-21.3-17.5c0-2.4-.9-5.4-4-5.6-3.6-.3-4.3-2.8-6.1-2.1-1.8.7-3.6 1.6-5.4 2.1-2.5.7-4.2 1.9-3.5 4.7.6 2.4 2.2 3.8 5 4a21 21 0 0 0 9.4-1 126 126 0 0 0 4.6-2.1zm53.4-13.9c2 1 2 1 1.5 2.4-.4 1.4-.8 1.1-1.9 5.1-1.1 4-.2 5-1.9 6.3-1.6 1.3-5.9 1.1-5.9 1.1l-.9-2c-1.5-4.6.2-11.4 3.6-14 2.2-1.6 3.7.2 5.5 1.1z"/>
    <path d="M423.9 563.2v-1.1c.3-1.9.1-4.6 1.2-5.6 1.3-1.2 4-.7 5.9-1.4 1.1-.4 2.2-.3 2.2-.3 1.3.6 2.6 4.2 2.2 6.1m26.6-37c-9.7 8.9-13.2 13.6-13.5 15.4-.3 1.8 5.9 3.3 5.9 3.3 3.6-.9 9.8-5.2 14.1-8.3 3.6-2.7 7.5-6.7 10.8-9.8 2.2-2.1 4.6-5.1 5.4-7 .8-1.9 2.1-3.9-1.9-5.7-4.1-1.6-11.2 3.1-20.8 12.1zm12.4-52.1c-1.7-6.2-.2-8.2-3.8-19.5-1.1-3.9-2.5-7.8-1-11.8.8-2.1 1.4-3.1 3.2-2.6 1.6.4 3.3 1.6 4.2 3 .8 1.2.8 3 .7 4.6-.6 16.3 4.1 16.9 3.2 25.1-.3 2.4-1.4 2-1.4 2l-5.1-.8z"/>
    <path d="M485.7 514.3c-.6.8-4.2-2.2-4.2-2.2s-1.4-4.4-.6-6.9c.7-2.3 6.4-.5 6.4-.5s2.1 6.3-1.6 9.6z"/>
    <path d="M481.4 470.3c6.7 10.7 5.7 20.7 6.2 32.5.2 3.7-.2 3.2-.2 3.2-1.4 0-2.8-.1-4.1.1-2.1.4-2.8-.5-3.4-2.4-4.9-13.9-.9-21.9-6.1-31.4-.7-2.9 6-3.7 7.6-2zm-28.1 70.9c2.2 1.6 2.1 1.6 1.4 3.2-.8 1.6-1.2 1.2-3.3 5.7-2.1 4.6-1.3 5.9-3.5 7.2-2.2 1.3-7.2.2-7.2.2l-.7-2.5c-.9-5.7 2.5-13.6 7.1-16 2.8-1.7 4.2.8 6.2 2.2z"/>
    <path d="m435.8 564.4.2-1.3c.8-2.2 1-5.4 2.6-6.4 1.8-1.1 4.9 0 7.3-.5 1.4-.2 2.7.1 2.7.1 1.5 1 2.3 5.5 1.4 7.7m48.9-32.4c-12.4 4.5-15.5 7.6-16.5 9.2-1 1.6 2.3 5.2 2.3 5.2 3.7.5 11.1-1 16.2-2.2 4.4-1.1 9.5-3.3 13.7-4.9 2.9-1.1 6.2-2.9 7.7-4.4 1.5-1.4 3.5-2.8.4-5.9-3-3.2-11.4-1.5-23.8 3zm41.7-42.6c.1-6.4 2-7.9 1.7-19.8 0-4-.7-7.9 1.9-11.4 1.4-1.8 2.6-2.8 4.3-1.9 1.4.8 2.7 2.5 3.3 4 .4 1.3-.1 3.1-.5 4.6-5.1 15.5-.7 17.4-3.8 25-.9 2.3-1.9 1.5-1.9 1.5l-5-2z"/>
    <path d="M524.5 531.9c-.8.5-3-3.6-3-3.6s1-5.4 3.1-7c1.9-1.4 5.4 3.4 5.4 3.4s-.8 5.5-5.5 7.2z"/>
    <path d="M547.8 489.4c3.5 12.1-9.8 24-16.3 33.9-2.1 3.1-2.1 2.4-2.1 2.4-1.1-.8-2.2-1.8-3.4-2.4-1.9-.9-2-2-1.3-4 4.3-14.1 17.6-19.6 15.2-30.2.1-2.8 6.8-1.8 7.9.3zm-62.6 54.4c2.6 4.2-2.1 6.8-3.9 7.8-1.9 1-4.2 3-6.7 3.3-2.5.3-15.4-4.2-15.4-4.2-.7.4.3-2.6.3-2.6 1.4-5.6 17.5-8.8 22.6-9.4 3.4-.3 1.9 3 3.1 5.1z"/>
    <path d="m451.7 556.5.7-1.1c1.6-1.8 3.3-5.9 5.1-6.2 2.1-.3 13.2 3.4 15.6 4 1.4.3 2.4 1.1 2.4 1.1 1 1.5-7.4 7.2-9.1 9M577.6 533c-13 2-21 5.3-22.3 6.7-1.3 1.4 1.2 5.5 1.2 5.5a90.1 90.1 0 0 0 38.4-.7c6.6-1.6 13.9-3.1 13.9-3.1s.4-3.1-.4-4.3c-1.4-2.5-17.8-6.1-30.8-4.1zm56.4-30.7c2.3-6 4.8-6.8 9.2-17.9 1.5-3.7 2.4-7.6 6.1-9.7 2-1.2 3.5-1.6 4.7 0 1 1.3 1.6 3.3 1.4 5-.1 1.4-1.3 2.8-2.3 4-10.7 12.3-7.5 15.4-13 21.6-1.6 1.8-2.3.8-2.3.8l-3.8-3.8z"/>
    <path d="M609.6 541.6c-1 .2-1.6-4.5-1.6-4.5s2.3-4.4 4.7-5.5c2.1-1 4.6 4.4 4.6 4.4s-2.8 5.7-7.7 5.6z"/>
    <path d="M640.8 504.6c1 12.5-13.3 22.1-21.7 30.5-2.6 2.6-2.5 2-2.5 2-.9-1-1.8-2.2-2.8-3-1.7-1.3-1.5-2.4-.5-4.2 7-13 20.2-16.3 19.9-27.1.6-2.9 6.9-.5 7.6 1.8zM557.5 545c1 1.7-3.9 3.7-5.9 4.4-1.3.4-9.5 4.8-17.4 6.4-4.8 1-9.9.3-10.9.2-2.6-.2-7.1-4.8-6.7-8.4.2-2.5 9.3-3.4 15.1-5.4 5.8-2 18.7-3.6 23.8-3.1 3.3.2 1.2 3.6 2 5.9z"/>
    <path d="M522.2 555.1c1 1.7-3.5 3.4-5.6 4-1.3.4-11.7 3.7-19.5 5.3-4.8 1-11.4 3-12.3 2.9-2.6-.2-7.8-4.1-7.4-7.7 5.2-2.7 11.5-6.8 17.2-8.8 5.8-2 17.1-3.4 22.2-2.9 3.3.3 4.6 4.9 5.4 7.2zm-131.4 43c0 2.4.3 4.2 1.5 5.3 1.4 1.2 3.6 1.5 5.9 1.5 4.2 0 6.9-3.2 6.9-5.6 0-3.8-3.8-7-8-7-2.1 0-3.7.5-4.8 1.4-1.2 1.1-1.5 2.5-1.5 4.4z"/>
    <path d="M376.1 597.1c-.1 2.2.3 3.7 1.3 4.8 1.5 1.6 4.6 2.6 7.4 2.6 4.6 0 7.1-2.9 7.1-6.5s-3.9-6.2-7.1-6.6c-3.2-.4-4.6 0-5.9.7-2.3 1.1-2.7 2.8-2.8 5z"/>
    <path d="M360.8 597.4c0 1.8 3.9 5.2 9.1 5.2s8.7-2.7 8.7-4.5c0-4.1-3.9 0-9.1 0-6.6-.1-8.7-1.9-8.7-.7z"/>
    <path d="M361.9 593.6c0-1.8 3-3.7 8.7-3.7 5.2 0 9.6 2.7 9.6 4.5 0 4.1-3.8 1.2-9.5 0-5.8-1.2-8.8.3-8.8-.8zm28.9-13.7c0-2.4.3-4.2 1.5-5.3 1.4-1.2 3.6-1.5 5.9-1.5 4.2 0 6.9 3.2 6.9 5.6 0 3.8-3.8 7-8 7-2.1 0-3.7-.5-4.8-1.4-1.2-1.1-1.5-2.5-1.5-4.4z"/>
    <path d="M376.1 580.9c-.1-2.2.3-3.7 1.3-4.8 1.5-1.6 4.6-2.6 7.4-2.6 4.6 0 7.1 2.9 7.1 6.5s-3.9 6.2-7.1 6.6c-3.2.4-4.6 0-5.9-.7-2.3-1.1-2.7-2.8-2.8-5z"/>
    <path d="M360.8 580.6c0-1.8 3.9-5.2 9.1-5.2s8.7 2.7 8.7 4.5c0 4.1-3.9 0-9.1 0-6.6.1-8.7 1.9-8.7.7z"/>
    <path d="M361.9 584.4c0 1.8 3 3.7 8.7 3.7 5.2 0 9.6-2.7 9.6-4.5 0-4.1-3.8-1.2-9.5 0-5.8 1.2-8.8-.4-8.8.8zm272.4 4.9c0-5.1.4-10.1 3.9-13.2 3.1-2.8 9.4-4.2 14-4.2 7 0 13 3.7 15.8 9.7 1.1 2.3-.7 4.6-.7 7.8s1.7 5.9.4 8.3a17.3 17.3 0 0 1-15.6 9.2c-5 0-11.2-1.5-14.4-4.8-3-3.3-3.4-8.1-3.4-12.8z"/>
    <path d="M591.6 615.5s11.2 4.4 28.1.1c16.9-4.3 19-8.2 19-13.9 0-5.8-1.8-6.8-1.8-12.6s1.8-6.8 1.8-12.6-2.1-9.6-19-13.9c-16.9-4.3-28.1.1-28.1.1v52.8z"/>
    <path d="M556.4 564.2s8.2-9.1 21.7-8.5c13.4.6 16.8 3.5 17.6 6 .8 2.5-.5 10.4-.5 15.4S598 586 598 589s-2.8 6.9-2.8 11.9 1.3 12.9.5 15.4-4.1 5.4-17.6 6c-13.4.6-21.7-8.5-21.7-8.5v-49.6z"/>
    <path d="M531 615.8s7.6 8.2 19.2 7.7c11.6-.5 12.8-2.8 13.7-4.3.9-1.5 1.2-15.8 1.2-15.8s2.2-8.6 2.2-14.3c0-5.7-2.2-14.3-2.2-14.3s-.3-14.3-1.2-15.9c-.9-1.5-2.1-3.8-13.7-4.3s-19.2 7.7-19.2 7.7v53.5z"/>
    <path d="M508.8 614.6s6.5 6.7 15.6 7.4c6.6.5 9.9.1 12.5-1.9 1.8-1.8 3-12 3-17.9 0-5.9-.7-10.4-.7-13.1 0-2.7.7-7.2.7-13.1 0-5.9-1.2-16.1-3-17.9-2.5-2.1-5.8-2.4-12.5-1.9-9.1.7-15.6 7.4-15.6 7.4v51z"/>
    <path d="M492.3 565.1s4.5-7.6 11.8-7.6c3.3 0 7.6.5 9.5 2 2.2 1.9 1.8 15.1.7 18.4a39.3 39.3 0 0 0 0 22c1.1 3.3 1.5 16.5-.7 18.4-1.9 1.5-6.3 2-9.5 2-7.4 0-11.8-7.6-11.8-7.6v-47.6z"/>
    <path d="M474.3 614.8s7.8 5.8 13.9 5.8c2.1 0 8.1-.3 8.7-2.7.6-2.4.4-9.4-1.4-11.4-1.9-2-2.1-14.2-2.1-17.6s.3-15.5 2.1-17.5 2-9 1.4-11.4c-.6-2.4-6.6-2.7-8.7-2.7-6.1 0-13.9 5.8-13.9 5.8v51.7z"/>
    <path d="M454.9 611.4s7.2 9.2 15 9.2c1.7 0 7.5.2 9.4-2.9.8-1.3 1.6-10.5.8-12.5s-1.3-12.1-1.3-16.2.5-14.2 1.3-16.2 0-11.2-.8-12.5c-1.9-3.1-7.8-2.9-9.4-2.9-7.8 0-15 9.2-15 9.2v44.8z"/>
    <path d="M461 618.2c-9 6.9-34.6.9-51.2-6.4-6-2.7-8.5-8-8.5-11.6 0-7.9 5.6-10 5.6-11.2s-5.6-3.3-5.6-11.2c0-3.6 2.6-8.9 8.5-11.6 16.6-7.4 42.2-13.4 51.2-6.4 8.8 7.3 7.2 29.2 7.2 29.2s1.6 21.9-7.2 29.2z"/>
    <g stroke="none" fill="#000">
      <path d="m359.1 451.5 1.2-.7 1.3-.8.8-.4 1-.4 2.3-.8a105.5 105.5 0 0 1 5.5-1c1-.1 2-.2 3-.1l3 .1 2.8.3 2.6.5 2.3.5 1.9.6.8.3.7.3c.5.2.7.5.9.6l.3.2-.2.4-.4-.1-.9-.2-.6-.1h-.8l-2-.1-2.3-.1-2.6-.1-2.7-.1h-7l-1.3.1-2.5.2-2.2.3-1 .1-.9.2-1.5.3-1.3.2-.2-.2zm245.6 144.2.6-.7.7-.8 1.1-.9 1.4-.9 1.7-.8 1.9-.7 2-.5 2-.4 2-.2c1.3-.1 2.5 0 3.5.1l2.5.4.9.3v.5l-.9.3-2.3.6-7 1.5-1.9.4-1.8.4-1.7.4-1.5.4-1.3.4-1 .3-.9-.1zm-24.4-4.3.4-.3.4-.3.6-.3.8-.2h.9c.3 0 .7 0 1 .2l1 .4c1.3.6 2.2 1.7 2.6 2.6l.3 1.2v.5l-.4.2-.4-.2-1-.4-2.4-1.2-.6-.3-.6-.3-.6-.3-.6-.3-.5-.3-.5-.2-.4-.3v-.2zm-19.1 3.2-.5-.1-1.1-.1-.6-.1-.7-.1-.7-.2-.7-.2-.7-.2-.7-.2-.6-.3-.6-.2-1-.5-.4-.3v-.5l.4-.3 1.1-.5.7-.2.8-.1h.9l.9.2.9.3.8.5.7.6.5.6.3.6.2.5c.2.5.2.7.1.8zm-25-.3-.4-.1-1-.2-1.2-.4-1.2-.4-1.1-.5-.5-.3-.5-.3-.5-.3a.8.8 0 0 0-.4-.2l-.4-.2-.1-.5.3-.3 1-.5.7-.2c.3 0 .6-.1.8 0l.9.1.9.3c1.1.5 2 1.5 2.3 2.3.6.9.5 1.7.4 1.7zm-27.4.2-.1-.1-.4-.1-.5-.2-.7-.1-.8-.1-.8-.2-.9-.2-.9-.2-1.9-.5c-.6-.2-1.2-.3-1.7-.6l-1.2-.6-.5-.3v-.5l.5-.2 1.3-.4c.6-.1 1.2-.3 1.9-.2a9 9 0 0 1 3.3.7l1 .5.9.6.7.7.5.7.2.6c.3.5.2.7.1.7zm-18.9-1.4-.3.2a2 2 0 0 0-.6.4 4 4 0 0 1-1.5.3l-.6-.2-.5-.4-.7-.7-.1-.5.2-.3.2-.3.3-.3c.2-.2.6-.3.9-.4h1l.8.4.6.7.3.7.1.3-.1.1zm-18.9-1.5s.3-.5.8-.8l1.2-.2 1.1.2.9.6.5.8.2.8v.4l-.3.4-.3.1-.7.1c-.5 0-1.1-.1-1.6-.3l-.3-.2-.3-.3-.4-.6-.6-.6-.2-.3v-.1zm-8 9.3-.1-2.4-.4-2.7c-.2-1-.5-2.1-1.1-3.1-.3-.5-.7-.9-1.1-1.2-.2-.2-.4-.2-.7-.3h-.1.1-.3l-.6-.1-2.2-.2-2.3-.1-5-.1-5.2-.1-5.2-.1-5-.1-4.7-.1-4.2-.2c-5.2-.2-8.7-.6-8.7-.6v-.5s3.5-.6 8.7-1l8.9-.5 5-.1h5.2l5.2.2 5.1.4 2.5.3 2.3.4.5.1.3.1s.2.1.1 0h.1l.2.1 1.2.7c.7.6 1.1 1.3 1.4 2 .6 1.4.7 2.7.7 3.7a21.6 21.6 0 0 1-.5 4.6l-.2.6.1.3zm141.7-18.7.9.3 1 .3 1.3.4 1.5.4 1.7.4 1.8.4 1.9.4a162.7 162.7 0 0 1 10.2 2.4v.5l-.9.3-2.5.4a19.6 19.6 0 0 1-7.5-.5l-2-.5-1.9-.7-1.7-.8-1.4-.9-1.1-.9-.7-.8-.6-1.1zm-24.4 4.3.4-.3.5-.2.5-.3.6-.3.6-.3.6-.3.6-.3 2.4-1.2 1-.4.4-.2.4.2v.5l-.3 1.2a5 5 0 0 1-2.6 2.6 3 3 0 0 1-1 .4l-1 .2h-.9l-.8-.2-.6-.3-.4-.3-.4-.3v-.2zm-19-3-.1.5-.2.5-.3.6-.5.6-.7.6-.8.5-.9.3-.9.2h-.9l-.8-.1-.7-.2-1.1-.5-.4-.3v-.5l.4-.3 1-.5.6-.2.6-.3.7-.2.7-.2.7-.2.7-.2.7-.1.6-.1 1.1-.1.5.2zm-25 .2s.1.7-.3 1.6c-.4.9-1.2 1.8-2.3 2.3l-.9.3-.9.1h-.8l-.7-.2-1-.5-.3-.3.1-.5.4-.2.4-.2.5-.3.5-.3.5-.3 1.1-.5 1.2-.4 1.2-.4 1-.2h.3zm-27.4-.2v.6l-.2.6-.5.7-.7.7-.9.6-1 .5-1.1.4c-.7.2-1.5.2-2.2.3-.7.1-1.3-.1-1.9-.2l-1.3-.4-.5-.2v-.5l.5-.3 1.2-.6 1.7-.6 1.9-.5.9-.2.9-.2.8-.2.8-.2.7-.1.5-.2.4-.1c-.1 0 0 0 0 .1zm-18.9 1.4v.3l-.2.8c-.1.3-.4.6-.7.8l-.5.3-.5.2h-.6l-.5-.1-.8-.5-.5-.6-.1-.3.1-.5.2-.2.5-.4.6-.3.6-.2.6.1.3.1.3.1.6.2.6.2zm-19 1.4.2-.3.2-.3.3-.3.2-.3.2-.3.3-.3.3-.2c.5-.3 1-.4 1.6-.3l.7.1.3.1.3.4v.4l-.2.8-.5.8c-.2.3-.5.4-.9.6-.3.2-.7.2-1.1.2h-.6l-.5-.1-.3-.3-.3-.3-.2-.3v-.1zm-7.9-9.3.3.5.7 1.4c.4 1.1.7 2.8.4 4.4l-.3 1.2-.5 1.2-.7 1c-.2.3-.6.5-.9.7l-.9.4-.7.1h-.6l-.1-.5.3-.4.3-.5.3-.6.2-.7.2-.8.1-.4.1-.5.2-.9.2-1 .2-1 .4-1.8.7-1.9.1.1zm207.2 83.9.9 1.6 1.1 1.8 1.4 2.3 1.7 2.7 1.9 3 2.1 3.1 1.1 1.6c.4.5.7 1.1 1.2 1.5l2.4 2.9 2.7 2.7 2.5 2.5 2.3 2.1 2 1.7 1.7 1.2 1.1.6.4.1.1.5h-.6l-.6-.1-.8-.2c-.6-.2-1.3-.4-2-.8l-1.2-.6-1.3-.8-1.4-.9-1.4-1c-.9-.7-2-1.4-2.9-2.3l-2.9-2.6-.1-.1-.2-.2-.2-.2-.3-.4-.7-.8-1.3-1.6c-.9-1.1-1.6-2.2-2.3-3.3-.8-1.1-1.3-2.3-2-3.4l-.9-1.7-.7-1.6-.7-1.5-.6-1.5-.9-2.6-.6-2-.4-1.8.4.1z"/>
    </g>
    <path d="M328.1 703.2a87 87 0 0 1-16.4-21.8c-1.3-3.2 1.4-1.6 1.4-1.6s8.5 9.5 10.4 12c4 5.1 12.3 10.4 15.7 11.2 6.5 1.5 6.5.6 6.5 1.1 0 .5 9.6 19.1 9.6 19.1s-20.6-14.3-27.2-20z"/>
    <path d="M354 722.3a46.4 46.4 0 0 0 36.2 9.7c3-.6 5.7-2.7 8.6-4.1 2.8-1.4 2.8-3.7 2.8-3.7l-5.6-3.1c-1.3-.6-2.2 1-4.4-1.3-1.1-1.4-1.9-3-2.8-4.6-5-8.4-11.9-14.4-22-15.3-8.3-.7-15-4.6-21.3-9.4a166.7 166.7 0 0 1-24.9-22.6c-1.6-1.9-3.9-4.7-4.6-2.9-.6 1.8 1.1 4.9 1.9 6.1 5.5 8.3 11.8 17 17.7 22.9 2.9 2.6 3.7 5.2 5.5 9.5a66 66 0 0 0 12.9 18.8z"/>
    <g stroke="none" fill="#000">
      <path d="m358.5 719.9 1.3.4 1.4.6.9.3 1 .3 2.1.7 2.4.6c.4.1.8.3 1.3.3l1.3.3 2.7.6 2.8.5 2.7.4 2.5.4 2.3.4 1.9.3.8.2.6.1h1.3l.1.5-.3.1-1 .4-.8.2-.8.1-2 .2-2.4.1h-2.7l-2.8-.2-2.9-.5-2.9-.7c-.9-.3-1.9-.5-2.7-.9l-2.5-1.1-2.1-1.3-.9-.6-.7-.6-1.2-1c-.4-.6-.8-1-.7-1.1z"/>
    </g>
  </g>
</svg>
