<svg xmlns="http://www.w3.org/2000/svg" fill="#d7374a" stroke="#000" viewBox="50 50 200 200">
  <metadata author="Spedona" source="https://upload.wikimedia.org/wikipedia/commons/1/12/Blason_ville_fr_Butten_%28Bas-Rhin%29.svg" license="https://creativecommons.org/licenses/by-sa/3.0"/>
  <g id="scythe" stroke-width="3.9" transform="translate(61 44.2) scale(0.115)">
    <path class="secondary" d="M218.86 367.92c-1.37-55.59 87.85-139.19 147.33-176.13 70.2-43.6 109.63-34.18 109.34-34.77-13.85-27.76-92.52-21.64-126.34-9.95-95.77 33.1-207.86 146.38-236.28 192.5-1.4 2.29-.16 22.1 10.95 32.33 12.68 11.69 14.47 13 22.38 17.9 1.7 1.06 13.04-10.65 13.93-10.94.6-.19-18.9-19.26.5-30.34 16.94-9.68 31.26 21.52 31.33 21.39.6-1.1 26.9-.84 26.86-1.99z"/>
    <path d="M158.68 379.36S385.23 613.3 385.5 613.14c6.75-3.96 34.96-38.4 53.54-46.58 7.63-3.36 17.91 8.45 16.23 14.11-1.68 5.68-50.5 53.67-49.88 54.36.9 8.7 141.15 159.14 141.27 159.17 20.47 6.45 19.7 27.99 10.44 35.32-7.35 5.82-28.61 6.7-34.81-19.4-.73-3.06-88.05-98.98-132.81-148.23l-27.86-28.85-213.89-232.3s-4.97-2.6-9.45-6.46c-4.48-3.85-2.98-5.6-8.45-8.95-5.48-3.36-9.83-1.62-13.43-4.48-3.61-2.86-1-6.96-1-6.96l14.92 3.48 15.42 12.93 12.94-10.94z"/>
    <g fill="none">
      <path d="M130.48 344.77c2.82-4.71 142.28-184.17 268.4-206.57"/>
      <path d="M385.5 612.15c-1.46 13.74 15.44 20.65 15.91 20.9"/>
      <path d="M387.9 650.6c.87-.82 17.22-15.13 17-15.28"/>
      <path d="M363.11 633.04c7.75-8.08 20.81-19.81 21.89-20.89"/>
      <path d="m165.1 417.4 16.46-15.16"/>
      <path d="m164.64 386.82-16.07 15.58"/>
    </g>
  </g>
</svg>
