<svg xmlns="http://www.w3.org/2000/svg" fill="#d7374a" stroke="#000" viewBox="50 50 200 200">
  <metadata source="http://wappenwiki.org/images/5/58/FW572_Bacon.svg" license="https://creativecommons.org/licenses/by-nc-sa/3.0"/>
  <g id="sextifoil" stroke-width=".49">
    <path d="M65.47 119.84c.87 1.5 6.28 1.63 9.86 4.94 3.6 3.33 5.91 2.14 7 1.5 5.49-3.17 3.83-13.37 9.4-16.6.98-.57 2.13-.65 2.83-.27.63.45 1.08 1.44 1.08 2.52 0 6.45-9.67 10.12-9.67 16.45 0 1.25.13 3.86 4.81 5.3 4.67 1.45 7.49 6.09 9.23 6.09s4.55-4.62 9.22-6.09c4.66-1.46 4.81-4.05 4.81-5.3 0-6.33-9.67-10-9.67-16.45 0-1.08.45-2.1 1.08-2.52.7-.38 1.83-.3 2.82.28 5.58 3.22 3.93 13.42 9.42 16.6 1.08.61 3.39 1.8 7-1.51 3.58-3.3 9-3.46 9.85-4.94.87-1.5-1.74-6.25-.66-11.02s-1.1-6.2-2.18-6.8c-5.5-3.19-13.5 3.36-19.08.14-.98-.55-1.61-1.46-1.65-2.25.04-.78.7-1.7 1.65-2.24 5.58-3.23 13.59 3.32 19.08.14 1.08-.61 3.26-2.03 2.18-6.8-1.08-4.77 1.53-9.52.66-11.03-.87-1.5-6.27-1.63-9.86-4.94-3.6-3.32-5.91-2.14-7-1.5-5.48 3.18-3.83 13.38-9.4 16.6-.98.57-2.13.66-2.83.27-.63-.44-1.08-1.44-1.08-2.52 0-6.44 9.67-10.11 9.67-16.45 0-1.25-.13-3.86-4.81-5.3-4.67-1.44-7.49-6.06-9.22-6.06s-4.56 4.6-9.23 6.06c-4.66 1.46-4.8 4.05-4.8 5.3 0 6.34 9.66 10 9.66 16.45 0 1.08-.45 2.1-1.08 2.52-.7.39-1.83.3-2.82-.27-5.58-3.22-3.92-13.42-9.41-16.6-1.09-.62-3.4-1.8-7 1.5-3.58 3.31-9.01 3.46-9.86 4.94-.87 1.51 1.74 6.26.66 11.03s1.1 6.19 2.18 6.8c5.5 3.18 13.5-3.37 19.08-.14.98.55 1.61 1.46 1.66 2.24-.05.79-.7 1.7-1.66 2.25-5.57 3.22-13.59-3.33-19.08-.15-1.08.62-3.26 2.04-2.18 6.8 1.08 4.78-1.5 9.55-.66 11.03zm25.61-19.89a8.9 8.9 0 0 1 17.8 0 8.9 8.9 0 0 1-17.8 0"/>
    <g fill="#000">
      <polygon points="109.36 104.96 121.97 112.51 109.04 105.51"/>
      <polygon points="90.64 94.89 78.02 87.34 90.95 94.32"/>
      <polygon points="90.95 105.51 78.02 112.51 90.64 104.96"/>
      <polygon points="109.04 94.32 121.97 87.34 109.36 94.89"/>
      <polygon points="100.32 110.53 99.9 125.23 99.69 110.53"/>
      <polygon points="99.67 89.29 100.07 74.6 100.3 89.29"/>
    </g>
  </g>
</svg>
