<svg xmlns="http://www.w3.org/2000/svg" fill="#d7374a" stroke="#000" viewBox="50 50 200 200">
  <metadata source="http://wappenwiki.org/images/f/fd/Sobieski.svg" license="https://creativecommons.org/licenses/by-nc-sa/3.0"/>
  <g id="shield" stroke-width=".37">
    <g stroke-linejoin="round">
      <path d="M81.9 74.18a31.93 31.93 0 0 1-3.7-.67c-.55-.13-1.1-.3-1.64-.47-.42-.15-1.55-.64-1.57-.64-.04-.01 0 .58 0 .76l.02.78.02 1.5.04 2.77.09 7.33.06 4.9.03 3.07.03 1.89.01 1.35.01 1.44.03 2.15c.08 6.7 1.03 14.73 8.12 25.46 5.93 9 11.98 12.93 16.22 14.02.87.18 1.25.05 1.6-.2a32.83 32.83 0 0 0 3.85-3.91c.46-.54.46-.75.35-1.09 2.79-1.94 11.76-16.29 14.81-29.12 2.72-11.46 3-28.78 3.04-30.32.9-.48.8-2.94.78-3.46-.02-1.97-.25-4.3-1.1-5.2a10.24 10.24 0 0 0-3.2-2.33c-3.21-1.63-11.28-2.67-16.32-3.06-8.51-.66-14.12-.93-14.12-.93l.17 14.45c-1.77.02-7.63-.47-7.63-.47z"/>
      <path class="secondary" d="M124.1 71.68c-.02-1.96-.25-4.3-1.1-5.2a10.24 10.24 0 0 0-3.2-2.33c-3.21-1.63-11.28-2.67-16.32-3.06-8.51-.66-14.12-.92-14.12-.92l.17 14.48c-1.78.02-7.64-.47-7.64-.47a31.93 31.93 0 0 1-3.7-.67c-.56-.13-1.1-.3-1.64-.47-.42-.15-1.55-.64-1.58-.64-.03-.01.02.58.02.76v.78l.03 1.5.04 2.77.08 7.33.07 4.9.03 3.07c.01.63.01 1.27.03 1.89v1.35l.02 1.44.03 2.15c.08 6.7 1.03 14.73 8.12 25.46 5.93 9 11.98 12.93 16.21 14.02.88.18 1.26.05 1.61-.2a32.83 32.83 0 0 0 3.85-3.91c.46-.54.46-.75.35-1.09-2.56-1.35-10.88-5.24-16-13.21-5.08-7.92-6.56-13.73-6.62-18.63l-.06-4.58c-.06-4.8-.1-9.24-.17-14.05l.03-1.59c-.08.13 2.75.32 3 .36 1.39.23 3.49.3 4.89.34 3.43.1 6.17-.1 9.58-.41 2.02-.2 4.05-.43 6.06-.75 9.8-1.51 15.47-5.38 17.13-6.93.92-.51.82-2.96.8-3.49z"/>
      <path d="M97.03 74.61c11.79-.13 24.01-4.15 23.97-6.88-1.31-2.94-7.6-4.08-18.3-4.86-6.94-.5-11.28-.7-11.28-.7l.08 12.49 5.53-.05z"/>
    </g>
    <g stroke="none" fill="#000">
      <path d="M120.82 67.74v-.34l-.01-.16-.03-.18-.03-.18-.05-.2-.07-.18a1.23 1.23 0 0 0-.09-.19c-.06-.1-.12-.22-.18-.29-.12-.17-.23-.26-.23-.26s.12.08.26.22a2.63 2.63 0 0 1 .35.44l.1.19.1.2.06.19c.03.06.04.13.05.18a3.97 3.97 0 0 0 .06.32l.02.1v.1l-.3.04z"/>
    </g>
    <g class="secondary">
      <circle cx="78.84" cy="77.94" r="2.07"/>
      <circle cx="78.94" cy="86" r="2.07"/>
      <circle cx="79.04" cy="94.07" r="2.07"/>
      <circle cx="79.13" cy="102.44" r="2.07"/>
      <circle cx="80.35" cy="110.78" r="2.07"/>
      <circle cx="87.15" cy="124.83" r="2.07"/>
      <circle cx="83.32" cy="118.24" r="2.07"/>
      <circle cx="92.13" cy="130.52" r="2.07"/>
      <circle cx="97.93" cy="134.78" r="2.07"/>
      <circle cx="94.9" cy="79.39" r="2.07"/>
      <ellipse cx="111.71" cy="76.81" rx="1.87" ry="2.07"/>
      <ellipse cx="118.82" cy="73.91" rx="1.82" ry="2.07"/>
      <path d="M125.13 70.46c.01 1.15-.36 2.08-1.12 2.09-.79.01-1.42-.92-1.43-2.06s.6-2.09 1.38-2.09c.77-.01 1.16.92 1.17 2.06zm-21.05 67.93c-.79.83-1.7 1.23-2.27.7-.56-.54-.36-1.65.43-2.47.8-.83 1.9-1.06 2.45-.52.56.55.19 1.47-.6 2.3z"/>
      <circle cx="103.62" cy="78.6" r="2.07"/>
      <circle cx="86.22" cy="78.81" r="2.07"/>
      <line x1="89.53" y1="74.65" x2="91.5" y2="74.67"/>
    </g>
  </g>
</svg>
