<svg xmlns="http://www.w3.org/2000/svg" fill="#d7374a" stroke="#000" viewBox="50 50 200 200">
  <metadata source="http://wappenwiki.org/images/f/fd/Sobieski.svg" license="https://creativecommons.org/licenses/by-nc-sa/3.0"/>
  <g id="shield" stroke-width="3" transform="translate(50 67.9) scale(0.122)">
    <g stroke-linejoin="round">
      <path d="M261.5 51.5c-10.2-1.3-20.4-3-30.4-5.5-4.5-1.1-9-2.4-13.4-3.9-3.4-1.2-12.7-5.2-12.9-5.2-.3-.1.1 4.7.1 6.2 0 2.1.1 4.2.1 6.4.1 4.1.1 8.2.2 12.3l.3 22.7c.2 20 .5 40.1.7 60.1.2 13.4.3 26.7.5 40.1l.3 25.2c.1 5.2.1 10.4.2 15.5 0 3.7.1 7.4.1 11.1 0 3.9.1 7.8.1 11.8.1 5.9.1 11.7.2 17.6.7 54.9 8.5 120.7 66.6 208.7 48.6 73.7 98.2 106 132.9 114.9 7.2 1.5 10.3.4 13.2-1.7 9.6-7.1 25.6-25.1 31.5-32 3.8-4.4 3.8-6.1 2.9-8.9 22.8-15.9 96.4-133.5 121.4-238.7 22.3-93.9 24.6-235.9 24.9-248.5 7.4-4 6.5-24.1 6.4-28.4-.2-16.1-2.1-35.3-9-42.6-8.4-8.9-15.1-13.4-26.3-19.1-26.3-13.4-92.4-21.9-133.7-25.1-69.8-5.4-115.8-7.6-115.8-7.6L324 55.3c-14.5.2-62.5-3.8-62.5-3.8z"/>
      <path class="secondary" d="M607.4 31c-.2-16.1-2.1-35.3-9-42.6-8.4-8.9-15.1-13.4-26.3-19.1-26.3-13.4-92.4-21.9-133.7-25.1-69.8-5.4-115.8-7.6-115.8-7.6L324 55.3c-14.6.2-62.6-3.8-62.6-3.8-10.2-1.3-20.4-3-30.4-5.5-4.5-1.1-9-2.4-13.4-3.9-3.4-1.2-12.7-5.2-12.9-5.2-.3-.1.1 4.7.1 6.2 0 2.1.1 4.2.1 6.4.1 4.1.1 8.2.2 12.3l.3 22.7c.2 20 .5 40.1.7 60.1.2 13.4.3 26.7.5 40.1l.3 25.2c.1 5.2.1 10.4.2 15.5 0 3.7.1 7.4.1 11.1 0 3.9.1 7.8.1 11.8.1 5.9.1 11.7.2 17.6.7 54.9 8.5 120.7 66.6 208.7 48.6 73.7 98.2 106 132.9 114.9 7.2 1.5 10.3.4 13.2-1.7 9.6-7.1 25.6-25.1 31.5-32 3.8-4.4 3.8-6.1 2.9-8.9-21-11.1-89.2-43-131.1-108.3-41.7-64.9-53.8-112.5-54.3-152.7-.2-12.5-.3-25-.5-37.5-.5-39.4-.9-75.8-1.4-115.2 0-3.4.2-13 .2-13-.6 1 22.6 2.6 24.6 2.9 11.4 1.9 28.6 2.5 40.1 2.8 28.1.8 50.6-.8 78.5-3.4 16.6-1.6 33.2-3.5 49.7-6.1 80.3-12.4 126.8-44.1 140.4-56.8 7.6-4.2 6.7-24.3 6.6-28.6z"/>
      <path d="M385.5 55C482.1 53.9 582.3 21 582-1.4c-10.8-24.1-62.3-33.4-150-39.8-56.9-4.1-92.5-5.7-92.5-5.7l.7 102.3 45.3-.4z"/>
    </g>
    <g stroke="none" fill="#000">
      <path d="M580.5-1.3V-4.1c0-.4 0-.8-.1-1.3s-.1-1-.2-1.5l-.3-1.5c-.1-.5-.3-1-.4-1.6-.2-.5-.3-1-.6-1.5-.2-.5-.4-1-.7-1.5-.5-.9-1-1.8-1.5-2.4-1-1.4-1.9-2.1-1.9-2.1s1 .6 2.2 1.8c.6.6 1.3 1.4 1.9 2.2.3.4.6.9.9 1.4l.9 1.5c.2.5.5 1.1.7 1.6.2.5.4 1.1.6 1.6.2.5.3 1.1.4 1.5.1.5.2 1 .3 1.4.1.4.2.9.2 1.2 0 .3.1.6.1.9.1.5.1.8.1.8l-2.6.3z"/>
    </g>
    <g class="secondary">
      <circle cx="236.4" cy="82.3" r="17"/>
      <circle cx="237.2" cy="148.4" r="17"/>
      <circle cx="238" cy="214.5" r="17"/>
      <circle cx="238.8" cy="283.1" r="17"/>
      <circle cx="248.8" cy="351.5" r="17"/>
      <circle cx="304.5" cy="466.6" r="17"/>
      <circle cx="273.1" cy="412.6" r="17"/>
      <circle cx="345.3" cy="513.3" r="17"/>
      <circle cx="392.9" cy="548.2" r="17"/>
      <circle cx="368" cy="94.2" r="17"/>
      <ellipse transform="rotate(-.81 505.61 74.04)" cx="505.8" cy="73" rx="15.3" ry="17"/>
      <ellipse transform="rotate(-.81 563.94 50.41)" cx="564.1" cy="49.3" rx="14.9" ry="17"/>
      <path d="M615.8 21c.1 9.4-2.9 17-9.2 17.1-6.4.1-11.6-7.5-11.7-16.9s4.9-17.1 11.3-17.1c6.3-.1 9.5 7.5 9.6 16.9zM443.3 577.8c-6.5 6.8-14 10.1-18.6 5.7-4.6-4.4-3-13.5 3.5-20.2 6.5-6.8 15.5-8.7 20.1-4.3 4.6 4.5 1.5 12.1-5 18.8z"/>
      <circle cx="439.5" cy="87.7" r="17"/>
      <circle cx="296.9" cy="89.4" r="17"/>
      <line x1="324" y1="55.3" x2="340.2" y2="55.5"/>
    </g>
  </g>
</svg>
