<svg xmlns="http://www.w3.org/2000/svg" fill="#d7374a" stroke="#000" viewBox="50 50 200 200">
  <metadata source="http://wappenwiki.org/images/6/63/Heinrich_von_Tettingen.svg" license="https://creativecommons.org/licenses/by-nc-sa/3.0"/>
  <g id="sickle" stroke-width="3" transform="translate(80.1 40.9) scale(0.099)">
    <g>
      <path d="M162.2 973.3c0 19.8 17.1 27 38.4 27s38.4-7.2 38.4-27c0-7.2-10.6-42.4-12.5-84.5-1-23.4 8.1-48.7 5.7-72.7-5.3-52.6-14.8-79-31.6-79-16.9 0-26.4 26.5-31.7 79.3-2.4 23.8 6.7 49.2 5.8 72.5-1.8 42-12.5 77.2-12.5 84.4z"/>
      <line fill="none" x1="238.881" y1="973.3" x2="162.226" y2="973.3"/>
      <line fill="none" x1="232.077" y1="816.014" x2="168.711" y2="816.014"/>
    </g>
    <path class="secondary" stroke-linejoin="round" d="M497.4 479.5a285 285 0 0 0-284-285.9c-138.2 0-235 73.9-261 195.2 35-52.7 107-100.3 190.6-100.3 130.9 0 237 98 237 218.8 0 116-97.7 210.9-221.2 218.3v62.8h82.4V764a285.2 285.2 0 0 0 256.2-284.4z"/>
    <path class="secondary" stroke-linejoin="round" d="M213.3 193.6c-138.1 0-234.8 73.9-260.9 195.2l1.1-1.6 1.3-4.9C-13 318 61.8 274.4 150 274.4c138 0 248 105.4 248 233 0 122.3-107 229.6-239.3 218.2v62.8h82.5V764a285.2 285.2 0 0 0 256.2-284.4 285 285 0 0 0-284-285.9z"/>
  </g>
</svg>
