<svg xmlns="http://www.w3.org/2000/svg" fill="#d7374a" stroke="#000" viewBox="50 50 200 200">
  <metadata source="https://freesvg.org/white-skull-1635536980" license="https://creativecommons.org/publicdomain/zero/1.0"/>
  <g id="skull" stroke-width="0.436" transform="translate(63 51.7) scale(0.343)">
    <path fill="#362e2c" stroke="none" d="m72.1 210.5 16 1.3 14 3 12.5-.7 11.6-2.1 15.2-1.7 3.3-1.7s1 2.9.8 4c-.3 1.2-6.2 4.4-6.2 4.4l-13.4 2.2h-13.4l-8.3-.5-8.8-.8-19-1.3z"/>
    <g fill="#f6f6f6" stroke="#362e2c" stroke-linejoin="round">
      <path d="M126.7 197.4c-.5.1-1.5 1.5-2 2.2-.5.6-1 2.7-1 3.6 0-.3-.3-.7-1-1.8-.7-1-2.1-1.3-3.3-1.2-1.6.2-1.6 2.6-2 2.8-.3.3 0 1.8.2 2.7.5 2 .2 5 .1 4-.2-2.1-1.4-5.8-1.5-6.6-.2-1.6-.3-3.7-3.2-3.9-2.3 0-3.4 3.6-3.8 5.1-.3 1.2-1.7 7-1.7 8.2 0 1.3-.2 3 0 3.5.2.6.7 1.3 2.3 1.4 1.6.2 5.3.4 7-.6.3-.2.9-1 1.3-2 .3 1.2.9 1.7 1.5 1.9.6.1 2.3-.1 3.8-.3 1.5-.3 2-1.5 1.8-3.6.5.8 1.5 4.4 4.8 4.2 2.3-.2 2.3-1.4 2.6-2.3.3 0 .3-2.3.4-1.7.3 2-.6 3.2 1.7 2.4.9-.4 2.4-1.6 2.5-2.9.2.1.6.5 1 .5.5 0 1.7-.5 2-.8.1.2 1.1.7 2.1.6 1-.1 2.2-1.8 2.2-2.8l1.2-.1c.6-.2 1.4-3.3 1.2-5.3 0-1.3-.7-2.8-1.3-4v.4s0 .2-.2.2v.1l-.3.3-.2.3-.4.4c0 .2-.2.3-.3.5v.1l-.2.1v.2l-.2.1V204.8l.1.3v.3l.1.3.1.3.1.3.2.4v2.5l-.1.2v-1.5l-.1-.3-.1-.3-.1-.3-.1-.2-.1-.3-.2-.6-.2-.5-.2-.4v-.2l-.1-.3V201l-.1-.4h-.1v-.2l-1 1.2c-.3.4-.4.6-.8.6h-3.2c-.5.3-.8.3-1.1 0-.3-.4-.3 0-.7.1-.5.3-1.3.7-1.3-.2.1-.8-1-1.4-1.8-1.3l-3 1c0-.3-.7-1.6-1.1-2.6-.4-.8-1.4-1.7-2-1.7zm-54.5 15c-.4.2-.4 1.1-.8 2.3-.4 1.5-.5 4.2 0 4.6h2.8c.3 3.3 1 3.3 2.3 3.6 1.3.2 2.9-.6 2.9-.6s.2 1.5.6 1.7c.5.1 2.2 0 3.8-.6.2.4 1.6 2.2 2.3 2.3.7 0 1.7-1.7 2.3-2.2.5-.6 1.4-.3 1.6.2.2.4 1.4 5.2 2 5.4a35.1 35.1 0 0 0 4-8.5c.4-1.4.2-3 .1-4 0-.2-.2-.5-.5-.6l-.5.1c-.6.2-2.3 0-3.8-.3-.5 0-.9-.4-1.2-.8-.3.2-.5.5-1 .7l-4.8-.9c-.9-.2-1.6 0-2.7.7-.5-.2-2.9-.2-4.1-.6a5.6 5.6 0 0 0-2.6-.4c0-.4-1.3-1.7-2.1-2h-.6z"/>
      <path d="M145.5 211.7h-.4c-.7.5-2 1.9-2 2.4-.9 0-1.9-.3-3.2 0-1.4.2-2 1.3-2.5 1.5l-2.2-.5-.6.3c-1 .4-1.4.3-1.5 0l-.9.2c-.2.7-.7 1.3-2.3 1.4-1.3.1-2.3-.4-3-1.1h-.1c-1.5.3-3.2.4-3.2 1.5 0 1-.4 3-.7 4.7-.3 1.5-.3 2.8.7 4.9 1.2 2.3 2.2 4.4 3.3 4.3.4-.1 1.8-6.4 2-6.9 0-.4 1-.8 1.6-.3.5.5 1.7 2.1 2.4 2 .7-.1 2-2 2-2.5 1.8.5 3.5.5 3.9.3.4-.3.5-1.8.5-1.8s1.7.8 3 .4c1.1-.3 1.9-.4 2-3.8l2.6-.2c.5-.4.2-3.1-.3-4.6-.5-1.3-.6-2.2-1.1-2.3zm-48.6 3.6-.2.1v4c0 1.4.3 5 1.2 6.7.4 1.5.8 2.2 1.2 2.2.3 0 1.6-2.6 2-3.7.3-1.2.9-1.2 1.2-1.9a17 17 0 0 0 .9-5.1c-2 0-5-.3-5.7-.8-.2-.2-.4-.7-.6-1.4z"/>
      <path d="M106.8 216c-.1.6-.7 1.3-2.2 1.5l-.7.1a10 10 0 0 0-.2 1.8c0 1.2.8 4.8 1.2 6.6 0 0 .2 1.3.8 1.5.6.2 1.5.1 1.9-.6.4-.6 1.7-3.8 1.8-4.3l.6-4.4v-.7h-.3c-1.6-.2-2.1-.9-2.3-1.4h-.5zm10.6.2h-.3c-.1.3-.2.5-.4.6-1.5.9-4.9.8-6.6.7-.2 1-.3 2.9-.2 3.3l.4 1.8.2 2c0 .8 1.1 2.9 1.8 2.9.8 0 2.5-1.9 2.7-3.1.1-1.3.7-2.5.8-2.7.2 1 0 3 0 3.2 0 .3 1.3 1.2 1.5 1.8.2.6.5 2 1 2.2.4 0 3-3.4 3.2-4.2l1.3-3.3c.2-.2.8-2.5.7-3.8 0-.4.2-1-.1-1.3h-.1c-1.5.3-3.2.5-3.8.3l-.8-.4h-1.3z"/>
      <path d="M87.5 197.4c-.5 0-1.7.7-2.2 1.6-.5 1-.8 2.5-1 2.8-.7-.3-2.1-.9-2.9-1-.7-.2-1.8.5-1.8 1.3 0 .9-.8.4-1.2.2-.5-.2-.4-.5-.7-.2-.4.4-.7.4-1.1.2-.4-.2-1.6-.2-2-.2-.4 0-.9.2-1.3.1-.4 0-.5-.2-.9-.7-.4-.4-.7-2.8-1.4-2-.8.6-2.1 3.3-2.3 5.3-.2 2 .6 5.2 1.2 5.3.6.2 1 0 1.3.2-.1 1 0 2 1 2.1 1 .1 1.8 0 2-.2.3.3 1.4.8 2 .8.4 0 .8-.3 1-.5 0 1.4.4 2 1.3 2 1 0 2.4-1 2.9-1.4.4-.5 1.6-.5 1.8-.4.3 1 1.4 2 2.6 2 1.2.1 2.6-.9 3.2-1.7v-1.2l1-9c0-.2.2-.3.5-.3-.2-1-.6-2.2-1-2.7-.5-.7-1.4-2.3-1.9-2.4zm14.8 2c-2.8.2-3 2.7-3.3 4.2a30.7 30.7 0 0 1-1.3 4c-.2-.4-.4-1.1-.1-2 .1-1 .7-2.4.3-2.7-.3-.2-2.4-2.5-3-2.6-.6-.2-2.6 0-3.3 1.1l-.7 1.2h.2c.5 0-.4 1.5-.7 2.1-.3.6-.8 4.8-1 7 0 0 0 .9-.2 1.2.5 1.1.7 2.6 2.1 2.8 1.5.3 3.2.5 3.8.4a5 5 0 0 0 1.7-.9c.2.7.5 1.3.7 1.5.8.6 5.5 1 7 .8 1.6-.2 2.2-1 2.3-1.5.2-.6 0-2.8 0-4 0-1.3-1.2-7-1.1-8 0-.9-1-4.6-3.4-4.6z"/>
    </g>
    <g stroke-width="0.654" stroke="#362e2c" stroke-linejoin="round">
      <path d="M171.8 174.2a56.3 56.3 0 0 1-13.1 1.6l-1.6.2c-3.3 7.9-5.3 12.5-6.2 15.1-1.4 4.1-2 8.1-2.4 9.5-.3 1-.3 8.8-1.7 14.2.4 1.5.5 3.4.1 3.7l-1.6.2h-1l-.1 1.3c-.2 2.2-1 2.3-2 2.6-.5.1-1.1 0-1.6 0h-1.3c0 .4-.2 1.2-.5 1.3-.4.3-2 .3-3.6-.2l-.3.2c-.4.7-1.4 2.2-2 2.3-.6 0-1.7-1.2-2.3-1.9a1 1 0 0 0-1.2-.3c-.3.1-.5.3-.5.5-.2.4-1.5 6.8-2 6.8-1 .2-2-2-3.3-4.3l-1.1-2.8h-.7l-.2.6c-.3.8-2.9 4.2-3.4 4.1-.4 0-.7-1.6-1-2.2-.1-.6-1.3-1.5-1.3-1.7v-.8h-.9v.2c-.2 1.3-1.9 3.1-2.6 3.1-.7 0-1.9-2-1.8-3v-.3H109l-1.2 2.7c-.4.7-1.3.8-2 .6-.5-.2-.7-1.5-.7-1.5l-.4-1.8h-3.3l-.1.3c-.3 1.2-1.7 3.7-2 3.7-.3 0-.8-.6-1.1-2.1-.3-.5-.5-1.2-.7-2h-2.5l-.7 1.6c-1 2-1.7 3.5-2.2 3.4-.4-.2-1.4-4-1.8-5.2-.2-.6-.7-.7-.8-.7-.5 0-.8 0-1.1.5-.6.7-1.4 2-2 2-.8-.2-2.2-2-2.4-2.4-1.6.7-3.3.8-3.7.6-.5-.2-.7-1.7-.7-1.7s-1.6.9-2.9.7c-1.2-.3-2-.3-2.3-3.7h-2.7c-.5-.3-.5-3 0-4.6.3-1.1.4-2 .7-2.2-1-.1-1-1.2-1-2.2l-1.2-.1c-.6-.2-1.4-3.3-1.3-5.3v-.1c-.6-1.7-1-3.2-1.1-3.8-.4-1.3-2.4-4.5-4-6.7-1.7-2.2-.8-9.9-2.8-17.8-1-.4-2-.6-3.2-.6-3.3 0-7.6-.4-11.5-1.2 3 18.1 6 28.7 6.9 30.7.7 4-.8 22.6.7 27.2 1.4 4.6 8.8 9.5 10.6 11.3 1.9 1.7 22 13.6 31.3 13.6 9.1 0 13.4-.3 13.4-.3s4.2.4 13.3.3c9.2 0 29.4-11.9 31.3-13.6 1.8-1.8 9.2-6.7 10.6-11.3 1.5-4.6.6-20.8 1.3-25 .8-1.8 3.4-16.3 6.3-33.3zm-97.6 38c-.1.2-.7.3-1.5.2.9.4 2.1 1.7 2.2 2 .8 0 1.2 0 2.2.3a40 40 0 0 0-2.6-2.3l-.3-.2z"/>
      <path d="M108.3 24C74 24.2 54.9 44 44.9 55.5c-10 11.3-16.4 31-16.4 54.6 0 17.6 11.4 17.9 11.2 23.3a43 43 0 0 1-6 17.5c-2.6 3.8-1.2 14 2.6 18.9 3.8 4.7 14.4 6 21.3 6 6.9.1 11.2 6.9 13.8 12.5 2.6 5.6-6.4 9-.4 11.1.7-.7 1 1.7 1.4 2.1.4.5.5.7 1 .7.3.1.8-.1 1.2-.1a8 8 0 0 1 2 .2c.4.2.7.2 1-.2.4-.3.3 0 .8.2.4.2 1.2.7 1.2-.2 0-.9 1-1.5 1.8-1.3.8.1 2.2.7 3 1 .1-.3.4-1.9 1-2.8.4-.9 1.6-1.7 2.1-1.6h.1c.5 0 1.4 1.7 1.9 2.4s1 2.5 1 3.4l1.1-1.8c.7-1.1 2.7-1.3 3.3-1.2.6.2 2.7 2.5 3 2.7 0 0 .8-.7 1.3-.5.2-1.5.3-2.8 3.1-3 1.3 0 2.3 1.2 2.8 2.4.3.7.6.8 1.1.8h3.5c.6-1.7 1.6-3.4 3.3-3.4 2.8.2 3 2.3 3.2 3.9l.4.1c.4 0 .7-.2 1-.5.2-.6.4-2.4 1.8-2.5 1.1-.1 2.6.1 3.2 1.2l.2.3 1.1-.1a6 6 0 0 1 .8-2.1c.5-.6 1.5-2 2-2.1.6 0 1.6.8 2 1.7l1 2.2h.3l.8.1 2-.7c.8-.1 2 .5 1.8 1.4 0 .8.9.4 1.3.2s.4-.6.7-.2c.3.3.7.3 1 .1.5-.2 1.7-.2 2-.2l1.3.2c.5-.1.5-.2 1-.7 0-.2.3-.5.7-1l.3-.4c.6-.7 1.3-1.3 1.7-1 0 .2.2.3.3.4l.4-.1c3.3-1.3-1.9-7 .2-11.5 2.6-5.6 6.3-12 13.2-12.1 6.8-.1 17.4-1.3 21.2-6 3.9-4.9 5.3-15 2.7-19a43 43 0 0 1-6-17.5c-.3-5.4 10.5-7.4 11.1-23.3 1-23.3-5.6-43.8-15.6-55.2A81.7 81.7 0 0 0 108.3 24Z"/>
    </g>
    <g fill="#000" opacity="0.2" stroke="none">
      <path d="M159 239.2a39 39 0 0 0 4.4-5 8 8 0 0 0 1-2.7c.2-.3.2-.8.3-1.2l.2-3 .2-3.6v-11.1l.2-3c0-.8 0-1.5.2-2l.3-1.3.6-2.3a305.7 305.7 0 0 0 3.3-17.6l2-12.2a39.3 39.3 0 0 1-6.6 1.2l-3.4.3-3 .1-1.6.2-4 9.5a130.9 130.9 0 0 0-3 8.6l-.8 2.8-.8 3.7-.2 1.9-.2 3.5a74.6 74.6 0 0 1-1.2 8.6c.3.9.7 3.3 1.3 3.8 3.1 1.8 5.1 1.3 5.3-.7.3-2 .8-13.1 1-15.8.3-2.7 2.7-18.6 3.5-19.3.8-.7 2-.3 1.7 1.6-.3 3.2 0 15.6.1 18 0 2.2-1.8 14.7-1.8 15.3 0 .7-1.6 9.3-1.3 12.8.2 2.5 1.1 6.7 2.4 8.9zm18.4-108.5v-.1l.4-.5.4-.4c0-.2.2-.3.3-.5l.5-.4.9-1 1-1 .4-.6.6-.5.5-.6a16.4 16.4 0 0 0 1-1.4l.5-.7.5-.8.5-.8.4-.8.2-.5.2-.4.2-.5.2-.5.2-.5.2-.5.2-.6.1-.5.2-.6.1-.6.1-.6.2-.6v-.7l.2-.6v-.7l.2-.7v-1.4l.2-2.2V101.4l-.1-2-.2-2.2-.1-2-.3-2-.2-2-.3-2-.4-2a109.2 109.2 0 0 0-3.9-14.4 241 241 0 0 0-2.7-6.4 58.2 58.2 0 0 0-1.5-2.9l-.8-1.4-.8-1.3a92.9 92.9 0 0 0-.8-1.3l-.5-.6-.4-.7a17.8 17.8 0 0 0-1.3-1.7l-.5-.6a16.8 16.8 0 0 0-1-1 159.6 159.6 0 0 0-3-3.5l-.5-.5v.3c.3 2.4 3.4 6.8 3.7 10 .3 3.3 1.3 9.8 1.7 13.7.5 3.8-.3 8.5-2 11.4-1.7 3-5 9-4.3 13.8.8 4.9 6.2 17.5 7.5 21.3 1.3 3.6.9 8.3 2.2 9.3zM38 130h.5l.2-.2.2-.2.3-.3.2-.3.2-.3.3-.4a7.9 7.9 0 0 0 .5-.8l.2-.4.3-.5.2-.4.5-1 .5-1a175.3 175.3 0 0 0 .8-2l.4-1 .8-1.8.5-1.4.2-.3-.5.9-.3.6-.4.6a29.6 29.6 0 0 1-1.5 2.7l-.2.2-.2.3-.2.2-.2.2-.2.2-.1.1-.2.1h-1l-.2-.1-.2-.1-.2-.1-.3-.1-.2-.1-.3-.2-.3-.2-.2-.2c-.1 0-.2 0-.3-.2l-.2-.2-.3-.2-.2-.3-.3-.3-.2-.3-.3-.4-.2-.4-.2-.3-.2-.5a11.5 11.5 0 0 1-.5-1.4v-.5l-.2-.6a10.1 10.1 0 0 1-.1-1.1v-4.1l.2-1.4.1-1.3.2-1.4.2-1.3.2-1.3.2-1.3.3-2.5.2-1.2.2-1.2.1-1 .2-1.2a285.7 285.7 0 0 1 0-1.5v-.5l.1-1V93l.1-.7v-.7l.2-1.2a22 22 0 0 0 .1-1.7V86a111.1 111.1 0 0 1-.3-3l-.1-1a204 204 0 0 0-.5-3.3l-.1-.5-.1-.5-.2-.4v-.5l-.2-.4-.2-.4a11 11 0 0 0-.3-.7l-.1-.4a6 6 0 0 0-.6-.8l-.2-.2h-.1a105.3 105.3 0 0 0-6 36c0 13.4 6.6 16.8 9.7 20zm9 18.4c3 4.3 5.5 5.6 8.6 6.4l11.5 2.6c1 .1-4.7.8-7 .7-4.1-.3-10-1.1-12-2.9-2-1.8-3.7-10.7-1-6.8zm88.3 11.3c6.5-.6 21-2.3 24.5-4.8s7.5-3.8 8-10c.4-6.4 2.2-11.8 2.4-8.8.1 3 1.4 10.4.6 12-.8 1.6-5 10.2-10.9 10.9-5.9.6-22.3 3-24.6.7z"/>
      <path d="M166.5 175.3h.2l.7-.2h.8l.8-.2.7-.2.8-.1.7-.2.7-.2.8-.2.7-.2.6-.3.7-.2.7-.3.6-.3.3-.1.3-.2.3-.1.3-.2.2-.2.3-.1.3-.2.2-.2.3-.2.2-.2c.1 0 .2 0 .2-.2.1 0 .2 0 .3-.2l.2-.2.2-.2.2-.2.1-.2c.2-.1.2-.2.2-.3l.2-.2.2-.2.1-.3.4-.5a9.8 9.8 0 0 0 .6-1.1l.2-.6.3-.6.2-.6.3-.7.2-.6.2-.7.1-.7.2-.6.1-.7.2-.7v-.7l.2-.7v-.7c0-.2 0-.4.2-.6V155.4l-.1-.6-.1-.6-.1-.5-.1-.6-.1-.2-.1-.3-.1-.2-.1-.2-.1-.3-.1-.2-.1-.2-.1-.2-.2-.2v-.2c-.2 0-.2-.2-.3-.3l-.3-.4-.2-.5-.3-.4-.2-.5-.3-.5-.2-.5-.3-.5-.2-.5-.3-.6-.2-.5-.3-.6-.2-.6-.2-.6-.3-.6c0-.2 0-.4-.2-.6l-.2-.6-.2-.6-.2-.6-.2-.6c0-.2 0-.4-.2-.6l-.1-.6-.2-.6-.1-.7-.2-.5v-.6l-.2-.5c-.3-.2-.7-.2-1-.1-2.2.4-.3 9.3-1 13.3a30 30 0 0 1-4.7 12.8 15 15 0 0 0-3.6 13zm-34.8 3c.7 5.4 4.5 18.4 5.1 18.7.7.4 2.7 2.3 4 2.2 1.4 0-2.5-4.2-3.3-6.5-2.5-6.9-5.6-14-5.3-21.3.1-2.4 4.3-8.7 2.4-6.7-2 2-3.7 6.3-3.7 7 0 .9 0 1.2.8 6.6zm-53.2 17.3c2-7.5 5.2-15.3 5.7-20.4.5-5 1.6-2.3 1.3.1a74.5 74.5 0 0 1-2.3 12.5c-.8 1.1-2.3 2.7-2.7 4.8-.4 2 1.2 1.4 2.2 0 1-1.4 3-6.6 5-7 2-.4-.3 6.8-.9 7.5-.5.7 1.1-.2 2.4.8 1.4.9-.8 1-2 1.2-1 .1-2.2.2-3.4 1.6-1.2 1.5-4.4 2.5-5 1.6-.7-.8-1-1.4-.3-2.7zm13.1.5c2 .3 2.2.6 2.8 1.2.6.5.7-.4 1.7-.4s4.6-.2 5.5-.6c1-.5-1.5-1.2-3.2-1.4-1.7-.1-6.4-1.4-7-.8-.7.6-.7 1.4.2 2zm24.1-2.9c1.2 2.4 2.8 4 3.5 4.1.6.2 1.1-.5 1-1-.3-.5 2.8-.4 3.4-.6.7-.2 3.7-2 2.2-2.4-1.5-.4-5.1-2-6-3.7-.8-1.8-3.6-4.4-4-2.4-.5 2-.6 5.6 0 6zm17.5-.1c.3 1.7 1 4.6 1.8 5 .8.3-.2-3-.5-4-.2-1-1.6-5-2.2-4.9-.6.2.6 2.2.9 3.9zm8.8 5.5c.3-1.3.7-6.4 0-8.1-.6-1.8-2.3-4-1.1-4 1 0 2.7.3 2.8.8 0 .6-.2 4 0 5.4.2 1.4 1.6 3.5 1 4.2-.4.6-1 2.3-2.6 1.7zm-95.8-24c1.4 1.5 3.4 1.8 6.5 2.3 3.2.5 2.7 1.5 2.7 2.5a130.8 130.8 0 0 0 9 35.8c1.6 3.4 3.8 2.8 5.3 2.4 1.4-.4.8 1.7 1.6 2.2 1 .7 1.7.2 2.6.2 0 .4 0 2.6.8 3.4.9.7 2.4.3 3.3.1.8-.2 1-.4 1.5-.6v-.5H79l-1.1.4c-.4.2-1 .2-2 .1-.7 0-1-.5-1.2-1.1-.2-.6-.4-1.3-.5-2.6h-.4c-.2 0-.4.1-.8 0h-1.5c-.6-.3-.5-3 0-4.5.3-1.2.3-2 .7-2.3-1-.1-1.1-1.2-1-2.2l-1.3-.1c-.6-.2-1.4-3.3-1.2-5.3v-.2l-.8-2.4c-.5-2.6-3-6-4.6-8.4-.8-1.3-1-5.2-1-6.3 0-1.7-1-8.4-1.5-11.1-1-.4-2.1-.6-3.2-.6-3.3 0-7.5-.3-11.4-1.2zm26 37.8zM49 104.5c1.1-4.8-2.4-14.8-4.1-18.5-1.8-3.7-2.7-7.3-3.2-6.6-.5.6.7 5.1 1 7.8.2 2.6-1.2 7.1.5 10.3 1.8 3.2 4.8 7.9 4.2 9.5-.6 1.6.7-.3 1.6-2.5zm5.6 1.3c5-2.7 8-5.6 14.7-6.9 3.5-.7 9.9-1.8 6.4-2-3.5-.4-11.5.6-14.8 2a26 26 0 0 0-7.7 5.5c-1.7 1.8-1.7 3.3 1.4 1.4zm93.6-4.3c5 1 11.5 2.8 13.3 4.2 1.7 1.4 6.2 6.2 5 3.7-1.2-2.4-4-5.3-6.8-6.3-2.8-.9-6-2.7-11.5-1.6z"/>
      <path opacity="0.15" d="M101.5 85.7c5 .8 11.7-1.7 17.4-6.3 5.6-4.6 10.1-15 4.9-13.1-5.3 1.8-13.6 8.8-17.4 8.8-3.7 0-10.4-3-14.4-6.4-3.7-3-6.1.2-4 3.7 2 3.5 9.6 12.8 13.5 13.3z"/>
    </g>
    <g fill="#362e2c" stroke-width="0.218" stroke-linejoin="round">
      <path d="m62.6 157.2-1.6.1-2 .1-.9.7-.2 1.1-.1 1-.7.5-.4.7-.5.5v1l-.8.5a5.5 5.5 0 0 0 .3 1.8l-.9.6-.5.4-.2.8-.7 1v.5l-.8 1v.8l-.2.3.2.6.4 1 .4-2 .3-.7.6-.5v-.6h.6l1-.3-.6-.7.7-.3 1-.3V165l.4-1-.2-1.5.1-.6 1-1.2.3-.7-.1-.6.3-1.3.9-.5h.9l1.2.4 2.3.1 1.1-.2-2.6-.8zm97.3 1.5-.4.2-.1 1-.4.7.2.8.5.8 1.1.6-.2 1 .5 2 .7 1 .8 1.1-.1 1.5-.3 1 .4 1.3v-1.1l.1-.5.3-.5v-1.3l-.1-.8-.5-.3-.1-.4-.8-1-.4-.6v-2.6l-.7-.4-.6-1-.2-.9.3-.9-.1-.7zm12.5-51.7.2-4.7 1-.9 1-2.8 1.2-4.3.3-1 1.5-3.4-.6 3.4-.9 2.5-1.2 3 .4 1.9-1.6 2 1 1.4 1.4-.5 1.5.9.9-1.2 1.4.1 1.4-1.4v1.7l-2.2.5-1 1-2-.3-2.6-.6v1.2zM109 128.6l-.2-2.7-.1-1.5-.3-1-.3-1.7-.3-2.5-.5-2-.3-2.7 1.3-.2v-1.4l-1.1-.8.8-1.4 1.8 1-1.2-2.3-2.3-1.3.6-1.3s-.3.4.7.7c1 .3 1.6 1.6 1.6 1.6l1.2 2.4.2 1 .9.8-2.2-.2v1.3l-.5.8-.8.3v1.7l.3 2 .4 3 .6 2 .1 1.4.1 1zm-.5 72.8c.1-.7.6-3.7 0-4-.8-.2-1-1.6-1-1.6l-.9-.8 1.2-.2.4 1.4.8 1 .1 2.1v1.6zm24.9 42.4c.1-.8.5-1.8 1.3-2.2.7-.4-.3.8-.4 1.3 0 .4 0 1 .4 1.5s-1.2 0-1.3-.6zm-50-2.8c.5.7.7 1.8.5 2-.2.3-.2 1.1-.8 1.1-.7 0-1.3-.4-1.3-.4s.2-.4 1-.6c.8-.3.6-.8.5-1.5-.2-.7-.7-1.8 0-.6zm-13.6-78.5 1.5-.3 1.2-1 .7-.2.9-.3.9-.2.8-.7s.5-.4.8-.3l1.2.3 1.2.3H80l-.4.3-.8.1-.6-.4h-1l-.5.1-.9.2-.5.3-1.2.3-.9.3-.7.4-.4.1-.4.3-.5.5h-.7zm64.6-2 1.6-.4.9-.6v-.8l.2-1.1.4-.8.3-.6.8-.6s-.3-.7 0-.7l1-.9-.4-.3-.5.1-.1.4-.3.4-.4.3.1.2-.2.4-.6 1-.3 1-.2.3v1l-.3.7-.6.4-1 .2z"/>
    </g>
    <g fill="#69645d" stroke="none">
      <path d="M95.8 203.7c.7 1.8 1.1 5.4 1 6.5-.2 1-.2 2.5-.2 3l.4-3c0-.6.7-2 .7-2.7 0-.9-.2-1.7 0-2.5.2-1 .4-1.9.2-2-.2 0-.9-.9-1-1-.2 0 0 1.1-1 1.7zm-12-2-.8 4a89.3 89.3 0 0 0 .2 6.5v-2s.2-4.7.4-5.5c.3-.7 1-2.8.8-3h-.6zm-4.7 1-1.8 8.7c0 .6.8-3.2.9-3.6 0-.5 1.2-5.1 1-5.1zm-2.3-.2c0 .5-1.8 3.6-1.8 3.9-.1.2-.7.5-.7 2.3 0 1.8 0 1.5.2.5.1-1 .8-2.4 1.2-3l1.6-2.3c0-.2 1-1.5-.5-1.4zm-3.8 0v1.7c0 .3-1 2-1.2 2.3 0 .4-.6 1.7-.6 2.7 0 1 .4-.1.4-.6.1-.4.8-2.7 1.2-3 .3-.4.7-1.4.7-1.7 0-.2.2-1.7 0-1.7s-.2-.5-.5.3zm50.8 1.5c.5 1.3.5 1.7.9 3 .1.8.5 2.3.5 3l-.1 2.8c.3-1 .3-1.5.3-1.7.1-1 .3-1.2.2-2.2a136.8 136.8 0 0 1-1.4-5.7l-.4.8zm9.2 9.1c0-1-.5-4.9-.7-5.4a42 42 0 0 0-1-2.8c0-.4-.9-2.6-.8-3 0-.3 1.1-.8 1.2-.8.2 0 .4 1.2.2 1.8 0 .6.4 3.6.6 4.2.2.6 1.4 4.6 1.4 5.5 0 .8-.4 2.3-.5 2.7-.1.5-.4-.6-.4-2.2zm3.2 1c.1-.4.3-1.9.2-2.2l-1.5-8.1c-.3-1.2-.4-1.6 0-1.2h.5c.1.3.1 2.2.3 3 0 .8 1.4 6.4 1.3 7-.1.6-.3 1.4-.8 1.5zm3.7-1.7c0-1-.3-5.9-.6-6.8-.4-.9-.9-2.3-.8-2.7.2-.4 0-.8.7-.8s1.6 0 1.3.3l-1.3 1.8c0 .2 1 2.6 1 3.3v4.7l-.3.2zm2.4 9.3c.6-.9 1.2-1.8 1.2-2.6 0-1.2 0-2.2-.2-3.2 0-.5-.4-1.3-.5-1.4-.1 0-.3-.4-.1-.4.2 0 .6 0 .6-.2 0-.3.2-.4.2.2 0 .6.4 1.8.3 2.6 0 .9.4 2.1.4 2.2 0 0-.1 2.8-.7 3.1-.7.3-1.2.7-1.2-.3zm-5-6 1.6 5.6c.1.5.2.8.5.9.2 0 .5-.3.3-.8-.2-.6-1.9-5.4-1.8-5.8.1-.4-.2-.2-.3 0h-.3zm-4.1.2c.6 1.2 1.3 5 1.4 5.7 0 .7.2 1.8.5 2.1.3.3 0-.3 0-.9 0-.6-.8-5.3-.7-5.8.2-.4.5-1.6 0-1.5-.4.1-1.4 0-1.3.4zm-4 1.2c.4.4.7 1.6.7 2.4 0 .7-1 4.6-1.1 5a9.3 9.3 0 0 0 1.3-3.3c.1-.8.7-3.7.6-4-.1-.3-1.5-.1-1.5-.1zm-13.3 4.7c.1-1.5.5-3 .2-3.5-.4-.4-.5-1.9.3-1.4.8.6.3 1.3.3 2.2.1 1-.8 2.7-.8 2.7zm-29.4-6c.4.5 1.7 1.2 1.8 2.1.1.9.7 4.8.6 5 0 .2.5.2.6.2.1 0 .4-.4.3-1 0-.6-.7-3.1-.6-3.5 0-.4.6-3 .4-3h-1.2l-1.8-.3c-.1 0-.5.2 0 .5zm-6.1-.5c-.4 1-1 2.8-1 3.5v2.7c0 .2.4.3.3-.4 0-.7.1-2.5.3-2.8.1-.2 1-2 1.6-2.1.5-.1.9-1 .7-1a3 3 0 0 0-.6.3zm4.7.5c-1.4 1.1-2.9 2-2.8 2.8.2.8 2.2 4.5 1.9 4.6l-1.2-.4c-.6-.3-1.7-4.4-1-5.3.8-.9 1.6-1.6 3.1-1.7z"/>
    </g>
    <g fill="#362e2c" stroke="none">
      <path d="M99.2 179.2c-5.8-4.7-11-8.2-6.6-18.9 4.3-10.6 9.9-19.3 11.8-22.8.3-.5.8-1 1-1.6 2.3-6 4.8-5.6 6.4 0l1.4 2c3 4.5 9.5 15.2 11 22.3 1.7 7.7 1.2 15.5-4.5 18.3-5.8 2.8-8.8 2-9.4-.2-.4-1.7-.1-5.4-2-5.4-1.8 0-1.3 3-2.2 4.9-1.2 2.4-3 3.5-7 1.4zM52 147.8c4.6 4.8 9.7 8.6 18.6 4.9 8.8-3.7 20.6-12.5 22.1-16.6 1.5-4.1 3.4-14.3.4-19.9-3-5.6-6.5-12-11.8-11.4-5.3.7-21.3 2.3-28.6 8.3-7.4 6-3 17.4-2.8 18.7.5 3-1.3 11.3 2.1 16zm68.7-24c.7 13.7 6.7 24.8 20.5 28.4 13.8 3.5 20.7-3.7 21.6-5.2 1-1.5 2-13.6 1.9-16.7-.1-3.1 2.4-12 2-13-.2-1.3-5.8-9.4-14-11.1-8.1-1.8-19.5-2.8-23.4.7-3.9 3.6-9 10-8.6 16.9z"/>
    </g>
    <g fill="#181413" stroke="none">
      <path d="M120.7 123.8c.7 13.7 6.6 23.9 20.4 27.4 13.9 3.6 19-3.2 20-4.7.8-1.5 1.8-13.1 1.7-16.1 0-3 2.3-11.5 2-12.7-.2-1-4-9.8-12-11.5-8.2-1.8-19.6-2.8-23.5.7-3.9 3.6-9 10-8.6 16.9zm-67.4 24c4.5 5 9 7.5 17.9 3.8 8.8-3.7 20-11.4 21.5-15.5s3.4-14.3.4-19.9c-3-5.6-6.5-12-11.8-11.4-5.3.7-20 2.4-27.4 8.4-7.3 6-3 17.4-2.8 18.8.5 3-1.2 11.3 2.2 15.9zm45.9 30.3c-5.2-4.1-10.4-8.5-6.6-17.8 4.3-10.6 9.9-19.3 11.8-22.8.3-.5.8-1 1-1.6 2.3-6 4.8-5.6 6.4 0l1.4 2c3 4.5 9.5 15.2 11 22.3 1.4 6.4 0 14.2-4.5 17.3-5.4 3.5-8.8 2-9.4-.3-.4-1.7-.1-5.3-2-5.4-1.8 0-1.3 3-2.2 5-1.2 2.3-3 3.4-7 1.3z"/>
    </g>
    <path fill="#69645d" stroke="#69645d" stroke-width="0.545" stroke-linejoin="round" d="m142.7 200.4.1.2.1.4V204.5l.1.2v.2l.2.5.2.5.2.6.1.2.1.3.1.3.1.3.1.3V209.4l.1-.2.1-.3v-2.2l-.2-.5-.1-.2-.1-.3-.1-.3v-.3l-.1-.3V203h.2v-.2l.2-.2.3-.4.3-.4.3-.3.2-.3.1-.1.1-.1.1-.1v-.4l-.2-.2v-.2a5 5 0 0 0-.7-1h-.5l-.2.2h-.2l-.2.2-.8.9z"/>
    <path fill="none" stroke="#362e2c" stroke-width="0.654" stroke-linejoin="bevel" d="M108.3 24C74 24.2 54.9 44 44.9 55.5c-10 11.3-16.4 31-16.4 54.6 0 17.6 11.4 17.9 11.2 23.3a43 43 0 0 1-6 17.5c-2.6 3.8-1.2 14 2.6 18.9 3.8 4.7 14.4 6 21.3 6 6.9.1 11.2 6.9 13.8 12.5 2.6 5.6-6.4 9-.4 11.1.7-.7 1 1.7 1.4 2.1.4.5.5.7 1 .7.3.1.8-.1 1.2-.1a8 8 0 0 1 2 .2c.4.2.7.2 1-.2.4-.3.3 0 .8.2.4.2 1.2.7 1.2-.2 0-.9 1-1.5 1.8-1.3.8.1 2.2.7 3 1 .1-.3.4-1.9 1-2.8.4-.9 1.6-1.7 2.1-1.6h.1c.5 0 1.4 1.7 1.9 2.4s1 2.5 1 3.4l1.1-1.8c.7-1.1 2.7-1.3 3.3-1.2.6.2 2.7 2.5 3 2.7 0 0 .8-.7 1.3-.5.2-1.5.3-2.8 3.1-3 1.3 0 2.3 1.2 2.8 2.4.3.7.6.8 1.1.8h3.5c.6-1.7 1.6-3.4 3.3-3.4 2.8.2 3 2.3 3.2 3.9l.4.1c.4 0 .7-.2 1-.5.2-.6.4-2.4 1.8-2.5 1.1-.1 2.6.1 3.2 1.2l.2.3 1.1-.1a6 6 0 0 1 .8-2.1c.5-.6 1.5-2 2-2.1.6 0 1.6.8 2 1.7l1 2.2h.3l.8.1 2-.7c.8-.1 2 .5 1.8 1.4 0 .8.9.4 1.3.2s.4-.6.7-.2c.3.3.7.3 1 .1.5-.2 1.7-.2 2-.2l1.3.2c.5-.1.5-.2 1-.7 0-.2.3-.5.7-1l.3-.4c.6-.7 1.3-1.3 1.7-1 0 .2.2.3.3.4l.4-.1c3.3-1.3-1.9-7 .2-11.5 2.6-5.6 6.3-12 13.2-12.1 6.8-.1 17.4-1.3 21.2-6 3.9-4.9 5.3-15 2.7-19a43 43 0 0 1-6-17.5c-.3-5.4 10.5-7.4 11.1-23.3 1-23.3-5.6-43.8-15.6-55.2A81.7 81.7 0 0 0 108.3 24Z"/>
    <path fill="none" stroke="#362e2c" stroke-width="0.654" stroke-linejoin="bevel" d="M171.8 174.2a56.3 56.3 0 0 1-13.1 1.6l-1.6.2c-3.3 7.9-5.3 12.5-6.2 15.1-1.4 4.1-2 8.1-2.4 9.5-.3 1-.3 8.8-1.7 14.2.4 1.5.5 3.4.1 3.7l-1.6.2h-1l-.1 1.3c-.2 2.2-1 2.3-2 2.6-.5.1-1.1 0-1.6 0h-1.3c0 .4-.2 1.2-.5 1.3-.4.3-2 .3-3.6-.2l-.3.2c-.4.7-1.4 2.2-2 2.3-.6 0-1.7-1.2-2.3-1.9a1 1 0 0 0-1.2-.3c-.3.1-.5.3-.5.5-.2.4-1.5 6.8-2 6.8-1 .2-2-2-3.3-4.3l-1.1-2.8h-.7l-.2.6c-.3.8-2.9 4.2-3.4 4.1-.4 0-.7-1.6-1-2.2-.1-.6-1.3-1.5-1.3-1.7v-.8h-.9v.2c-.2 1.3-1.9 3.1-2.6 3.1-.7 0-1.9-2-1.8-3v-.3H109l-1.2 2.7c-.4.7-1.3.8-2 .6-.5-.2-.7-1.5-.7-1.5l-.4-1.8h-3.3l-.1.3c-.3 1.2-1.7 3.7-2 3.7-.3 0-.8-.6-1.1-2.1-.3-.5-.5-1.2-.7-2h-2.5l-.7 1.6c-1 2-1.7 3.5-2.2 3.4-.4-.2-1.4-4-1.8-5.2-.2-.6-.7-.7-.8-.7-.5 0-.8 0-1.1.5-.6.7-1.4 2-2 2-.8-.2-2.2-2-2.4-2.4-1.6.7-3.3.8-3.7.6-.5-.2-.7-1.7-.7-1.7s-1.6.9-2.9.7c-1.2-.3-2-.3-2.3-3.7h-2.7c-.5-.3-.5-3 0-4.6.3-1.1.4-2 .7-2.2-1-.1-1-1.2-1-2.2l-1.2-.1c-.6-.2-1.4-3.3-1.3-5.3v-.1c-.6-1.7-1-3.2-1.1-3.8-.4-1.3-2.4-4.5-4-6.7-1.7-2.2-.8-9.9-2.8-17.8-1-.4-2-.6-3.2-.6-3.3 0-7.6-.4-11.5-1.2 3 18.1 6 28.7 6.9 30.7.7 4-.8 22.6.7 27.2 1.4 4.6 8.8 9.5 10.6 11.3 1.9 1.7 22 13.6 31.3 13.6 9.1 0 13.4-.3 13.4-.3s4.2.4 13.3.3c9.2 0 29.4-11.9 31.3-13.6 1.8-1.8 9.2-6.7 10.6-11.3 1.5-4.6.6-20.8 1.3-25 .8-1.8 3.4-16.3 6.3-33.3zm-97.6 38c-.1.2-.7.3-1.5.2.9.4 2.1 1.7 2.2 2 .8 0 1.2 0 2.2.3a40 40 0 0 0-2.6-2.3l-.3-.2z"/>
    <path fill="none" stroke="#362e2c" stroke-width="0.218" stroke-linejoin="round" d="M126.7 197.4c-.5.1-1.5 1.5-2 2.2-.5.6-1 2.7-1 3.6 0-.3-.3-.7-1-1.8-.7-1-2.1-1.3-3.3-1.2-1.6.2-1.6 2.6-2 2.8-.3.3 0 1.8.2 2.7.5 2 .2 5 .1 4-.2-2.1-1.4-5.8-1.5-6.6-.2-1.6-.3-3.7-3.2-3.9-2.3 0-3.4 3.6-3.8 5.1-.3 1.2-1.7 7-1.7 8.2 0 1.3-.2 3 0 3.5.2.6.7 1.3 2.3 1.4 1.6.2 5.3.4 7-.6.3-.2.9-1 1.3-2 .3 1.2.9 1.7 1.5 1.9.6.1 2.3-.1 3.8-.3 1.5-.3 2-1.5 1.8-3.6.5.8 1.5 4.4 4.8 4.2 2.3-.2 2.3-1.4 2.6-2.3.3 0 .3-2.3.4-1.7.3 2-.6 3.2 1.7 2.4.9-.4 2.4-1.6 2.5-2.9.2.1.6.5 1 .5.5 0 1.7-.5 2-.8.1.2 1.1.7 2.1.6 1-.1 2.2-1.8 2.2-2.8l1.2-.1c.6-.2 1.4-3.3 1.2-5.3 0-1.3-.7-2.8-1.3-4v.2-.3c-.6-1.6-1.3-2.6-2.6.1h-.1l-.1-.2-.9 1c-.4.5-.5.7-.9.7h-3.2c-.4.3-.8.3-1.1 0-.3-.4-.3 0-.7.1-.4.3-1.3.7-1.3-.2.1-.8-1-1.4-1.8-1.3l-2.9 1-1.2-2.6c-.4-.8-1.4-1.7-2-1.7z"/>
  </g>
</svg>
