<svg xmlns="http://www.w3.org/2000/svg" fill="#d7374a" stroke="#000" viewBox="50 50 200 200">
  <metadata source="http://wappenwiki.org/images/5/59/Manndorff.svg" license="https://creativecommons.org/licenses/by-nc-sa/3.0"/>
  <g id="spear" stroke-width="3" transform="translate(36 93.5) scale(0.079)">
    <path d="M810.7,586.8c6.4,0,11.5-4.3,11.5-9.6v-793.2l-1.6-2.3l-6.2-8.5l-7.6-10l-6.6,25.3l-1.2-1.4v790.1c0.2,5.3,5.4,9.6,11.7,9.6z"/>
    <path d="M799.1-196.9V-18h23.2v-180.4C814.6-197.1,806.8-196.4,799.1-196.9z"/>
    <g class="secondary">
      <path d="M825.2-244.7c4.3-36.1,29.2-55.5,29.2-55.5C819.5-345.3,810.5-424,810.5-424s-8.9,78.7-43.9,123.9c0,0,24.9,19.4,29.2,55.5H825.2z"/>
      <polygon points="802.2,-246.8 810.5,-393.2 818.9,-246.8"/>
      <path d="M801.3-237.8c0,16.2-4,43.5-4,43.5s3.2,2.5,13.2,2.5c10.1,0,13.2-2.5,13.2-2.5s-4-27.5-4-43.5"/>
      <path d="M795.3-235.3h30.4c3.7,0,6.8-3,6.8-6.8v0c0-3.7-3-6.8-6.8-6.8h-30.4c-3.7,0-6.8,3-6.8,6.8v0C788.5-238.4,791.6-235.3,795.3-235.3z"/>
    </g>
  </g>
</svg>
