<svg xmlns="http://www.w3.org/2000/svg" fill="#d7374a" stroke="#000" viewBox="50 50 200 200">
  <metadata source="http://wappenwiki.org/images/6/65/Achinger.svg" license="https://creativecommons.org/licenses/by-nc-sa/3.0"/>
  <g id="squirrel" stroke-width="3" transform="translate(76 59) scale(0.102)">
    <g class="secondary">
      <path d="M149 712.7c-1.4.8-3.7 2.2-7.1 5.7-3.4 3.5-9.3 13.1-10.9 13.1-1.6 0-2.3-6.4-2.2-8.6.1-2.1 1.1-8.5 5.6-13 4.5-4.6 5.6-3.7 5.6-3.7s10.4 5.7 9 6.5zM112 678s-1.3-.6-7.4-.3c-6.1.2-11 3.8-12.4 5.3-1.4 1.4-5.3 7.6-4.2 8.6 1.1 1 11.5-3 16.3-3.2 4.7-.2 7.2.3 8.7.7 1.5.4-1-11.1-1-11.1zm2.6 18s-1.4-.5-7.7.6a21.5 21.5 0 0 0-12.2 7.3c-1.3 1.7-4.5 7.3-3.2 8.2 1.3.9 11.6-3.4 16.5-4.3 4.9-.8 7.5-.6 9.1-.5 1.7.3-2.5-11.3-2.5-11.3zm86.7 76.1a30 30 0 0 0-6.7 6.3c-3.2 3.8-8.2 13.8-9.8 13.9-1.6.1-2.8-6.2-2.9-8.4-.1-2.1.5-8.5 4.6-13.4s5.3-4.1 5.3-4.1 10.8 4.8 9.5 5.7zm-39.6-31.7s-1.3-.5-7.4.3c-6.1.7-10.6 4.7-12 6.2-1.3 1.6-4.7 8-3.5 8.9 1.2.9 11.3-3.9 16-4.4 4.7-.5 7.2-.2 8.7 0 1.6.3-1.8-11-1.8-11zm4 17.7s-1.4-.4-7.6 1.2a21.7 21.7 0 0 0-11.6 8.2c-1.2 1.8-3.9 7.7-2.6 8.5 1.4.8 11.3-4.3 16.1-5.5 4.8-1.2 7.4-1.2 9.1-1.2 1.6.1-3.4-11.2-3.4-11.2z"/>
    </g>
    <g>
      <path d="M119.7 305.2c-11.5 8.8-17.3 18.5-17.8 18.3-24.6-13.2-28.3-13.3-56.8-35.9a42 42 0 0 1-14.7-20.8c-2-5.7-4-8.2-6.5-10.1-6.1-4.3-7-6.5-9.2-7.2-2.3-2.9-5.9-1.3-6.6-.6.1 3.7-.8 5-1.7 6.7-1.3 2 0 3.2.4 3.6-.4-.3-1.7-1.3-2.3-1.4-2.3-2.9-5.9-1.2-6.4-.7 0 3.7-.8 5-1.9 6.7s.8 3.7.8 3.7-2.3-.2-3.8-.7c-3.5-2.2-6 .6-6.4 1.6 1.2 3.4.9 4.5.6 6.1-.5 1.5-1.1 3 .4 3.7 1.4.6 2.3.7 3.9.1 2.7-.1 4.1.5 6.3 1.6 3.1 2.2 4 1.6 4.2 1.9-2.6.1-5.3.3-7.6-.2a4.5 4.5 0 0 0-6.2 2.3c1.6 3.3 1.5 4.4 1.4 6-.2 1.5-.6 3.2.9 3.6 1.6.4 2.5.5 3.9-.3 4.9-.8 7.4 2.7 13.9 3.1 8.6 2.4 17.3 7.4 19.7 11.8 10.3 11 18.9 19.1 29.2 30.1 13.6 14.5-1.8-2.1 12.1 12.1a67 67 0 0 0 10.6 8.5c6.7 4.4 16.1 12.9 23.7 15.6 6.9 2.4 8.3 2 14.7 5.6 3.1-.2 6.5-.8 9.3-2.3 2.1-1.1 3.8-2.9 5.3-4.8l14.5-18m1.3 238c18.1 29.2 44.4 32.2 52.2 52.7-7.8 7.4-7.6 4.7-25.3 17.4a49 49 0 0 1-30.8 11.3c-13.4.3-21.8-3.4-25.8-2.3-6.3-2.1-10.1 3.8-10.4 5.6 3.6 5.5 3.6 7.4 3.8 10.3-5.5 2-3.2 7.7-4.6 8.3 0 0 4.8.6 9.2 11.9 1.1 1.6 6.3 1.4 9.3.5 3-.9 5.8-4 5.8-4s.4 4.5 2.9 4.7c.4 0 2.7-.4 5.3.6 2.6 1 5.7 4 6.1 4.3 4.1 2.3 5.6-.1 7.5-1.8 4-3.6 7.1-5.5 13-6 17.1-1.5 27-24.2 42-31.6 27.2-9.9 22.6-10.8 30.8-14.9 1.9-1 4.2-2.5 5.8-3.9 2-1.9 1.7-5.2.2-7.5-3.3-5-8.3-8.4-11.6-13.5-4.2-6.4-11.6-9-18.1-13.4-1.7.1-10.5-9.4-11.7-10.6"/>
      <g stroke="none" fill="#000">
        <path d="M130.7 704.7c0-1.2.1-2.1.4-3.2.3-1 .7-2.1 1.4-3 .3-.5.7-.9 1.2-1.3.5-.3.9-.7 1.5-.9 1-.5 2.1-.7 3.2-.8l-.6.2c2-1 4.2-1.6 6.3-1.7l6.1-.1c2 0 3.9-.2 5.8-.5l5.8-1.2.1.3a19.3 19.3 0 0 1-5.6 2.7c-2 .6-4.1.9-6.1 1l-5.9.4a15 15 0 0 0-5.2 1.6l-.2.1-.4.1c-.7.1-1.5.2-2.1.6-.6.3-1.1.7-1.5 1.3-.4.5-.7 1.2-.9 1.9a9 9 0 0 0-.3 2.2l-3 .3zm8.6-18.1c-1.7.9-3.5 1.6-5.3 1.9a54 54 0 0 1-5.6.8c-1.9.1-3.8.2-5.7.1-1.9-.1-3.8-.2-5.7-.5h-.1l-.2-.1-.8-.2h-.9c-.6 0-1.2.2-1.8.4l-1.3-2.7c.9-.4 1.9-.7 2.9-.8h1.5c.5.1.9.1 1.6.4l-.3-.1c1.7.3 3.5.5 5.3.6l5.4.2 5.4-.2c1.8-.1 3.6-.3 5.5-.3l.1.5zm-44 21.7a31.2 31.2 0 0 1 9-4.7c.8-.2 1.6-.5 2.5-.6l2.5-.2c1.7-.1 3.4 0 5.1.5v.2c-1.7.1-3.3.3-4.9.6-1.6.3-3.2.5-4.7 1l-4.7 1.6-4.8 1.6zm37.1 19.6a26.4 26.4 0 0 1 4.2-9.1l1.6-2 1.9-1.7c1.3-1.1 2.7-2.1 4.3-2.7l.1.2-3.6 3.4a26.4 26.4 0 0 0-3.1 3.7l-2.7 4.1-2.7 4.1zM120 670.8c.8.7 1.4 1.5 1.9 2.3.4.8.8 1.7 1 2.6.4 1.7.5 3.5.3 5.2h-.3c-.3-1.6-.8-3.2-1.5-4.6-.4-.7-.8-1.3-1.3-1.8s-1.1-.9-1.6-1.2l1.5-2.5z"/>
        <path d="M141.5 698.7c.5-.2 1.1-.3 1.7-.3h1.7c1.2.1 2.3.5 3.3 1.1 1 .6 2 1.4 2.6 2.4.7 1 1.2 2.1 1.2 3.3l-.3.1a17.2 17.2 0 0 0-7.3-5.3l-1.5-.6-1.4-.7zm25.5-23 8.6-5.3 4.2-2.8 2-1.5c.6-.5 1.2-1 1.6-1.6.3-.4.9-.5 1.4-.2.3.2.4.5.4.8 0 .8-.4 1.5-.7 2.1a29.5 29.5 0 0 1-9.4 8l-.2-.1v-.2l4.9-4.9 2.2-2.6c.6-.8 1.2-1.9 1.2-2.6l1.8.6c-.6.8-1.3 1.4-2 2l-2.1 1.5a39 39 0 0 1-4.4 2.6l-4.6 2.2c-1.6 1-3.2 1.6-4.9 2 0 .1 0 0 0 0zm-49.7 10.4.6.2.5.2.8.5 1.3 1.1a14.5 14.5 0 0 1 2.9 5.6l.4 1.5.3 1.5-.3.1-.6-1.3-.7-1.3-1.6-2.3a8.6 8.6 0 0 0-2-1.8l-1.1-.6-.5-.2H117l.3-3.2zM91.7 688a39.7 39.7 0 0 1 9.4-3.7c.8-.1 1.7-.3 2.6-.3h2.6c1.7.1 3.4.4 5 1l-.1.2h-4.9a37.1 37.1 0 0 0-9.6 1.6c-1.7.5-3.3.9-5 1.2zm31-326.1c-1.3 0-2.4.1-3.4.3-1 .2-2 .4-2.9.8l-2.7 1.2-2.9 1.8a5 5 0 0 1 1.4-3.6c.9-1 2-1.8 3.3-2.2 1.3-.4 2.6-.5 3.9-.3a5 5 0 0 1 3.3 2zm-19.4-38.8.6 3.6.7 3.7c-.6-1.1-1.4-2.1-2.1-3.2l-2.1-3.3 2.9-.8z"/>
      </g>
      <g class="secondary">
        <path d="M9.6 250.2s-.4-.7-3.3-2.4a18 18 0 0 0-9.6-1.3c-1.1.2-4.6 1.7-4.4 2.5.3.8 8.3 2.5 10.6 3.8 2.3 1.3 3.3 2.3 3.9 2.9.5.6 2.8-5.5 2.8-5.5zm-10.3 8.3s-.4-.7-3.3-2.4a18 18 0 0 0-9.6-1.3c-1.1.2-4.6 1.7-4.4 2.5.3.8 8.3 2.5 10.6 3.8 2.3 1.3 3.3 2.3 3.9 2.9.5.6 2.8-5.5 2.8-5.5zm-10.9 10.7s-.6-.5-3.9-1.2-8.3 1.4-9.2 2c-1 .6-3.9 3-3.3 3.7.4.7 8.3-.6 10.9 0s3.8 1.2 4.6 1.6c.6.5.9-6.1.9-6.1zm1.7 15.4s-.7-.4-4-.7c-3.3-.3-8.1 2.1-9 2.8-.9.7-3.4 3.4-2.9 4.1.5.6 8.3-1.3 10.9-1s4 .7 4.7 1c.9.3.3-6.2.3-6.2z"/>
      </g>
      <g stroke="none" fill="#000">
        <path d="M2 280.3c1.5.1 2.9.4 4.3.7l3.9 1.5c2.5 1.3 4.5 3.2 6.4 5.1-2.2-1.5-4.5-3-6.9-3.7a23.2 23.2 0 0 0-7.5-.7l-.2-2.9zm-4.9-14.2c1.7.2 3.5.7 5 1.4 1.6.7 2.9 1.6 4.3 2.5 1.3.9 2.6 1.9 4 2.7 1.3.8 2.8 1.6 4.3 2.1-1.6-.3-3.1-.8-4.6-1.4-1.5-.6-2.9-1.4-4.4-2.1-1.4-.7-2.9-1.3-4.3-1.7-1.4-.4-2.9-.6-4.3-.5v-3zM7.6 258l4.7 2.8 2.4 1.5.4.3.3.2.5.5 1 1c2.7 2.7 4.9 5.8 6.3 9.2a28.3 28.3 0 0 0-7.3-8.1l-1.1-.8-.6-.4-.3-.2-.2-.1-2.5-1.1-5.1-2.2 1.5-2.6z"/>
      </g>
    </g>
    <g>
      <path d="M146.3 115.3c9.8-6.8 20.9-11 27.6-21.5a43.5 43.5 0 0 0 6.2-22c.6-13.2-3.8-26 4.8-39.1 2.7-4.2 7.4-7.5 11.7-10.1 5-3.1 16.3-6.2 16.3-6.2a45.7 45.7 0 0 0-34.3-1.6c-23 7.7-29.9 19.7-35.6 27-15.1 19.3-14.5 36.7-25.4 52.1-3 4.3-4.4 5.2-9.2 7.4"/>
      <path d="M248 701.3c-7.2 7.9-7.2 5.2-23.9 19.3a50 50 0 0 1-29.9 13.7c-13.3 1.4-22-1.7-25.9-.3-6.5-1.6-9.8 4.6-10 6.4 4 5.2 4.1 7.1 4.6 10-5.3 2.5-2.6 7.9-4 8.7 0 0 4.8.2 10.1 11.1 1.2 1.5 6.4.9 9.3-.2 2.9-1.2 5.5-4.5 5.5-4.5s.7 4.4 3.2 4.5c.4 0 2.6-.6 5.3.2 2.7.8 6 3.6 6.4 3.8 4.3 1.9 5.6-.6 7.3-2.3 3.8-3.9 6.6-6 12.5-7 16.9-2.8 25-26.2 39.5-34.7 26.3-11.9 21.7-12.5 29.6-17.2 1.9-1.1 3.9-2.8 5.5-4.4 1.8-2 1.3-5.3-.4-7.5-3.6-4.7-8.9-7.8-12.6-12.6-4.7-6.1-12.3-8.1-19.1-11.9-1.7.3-11.2-8.6-12.5-9.7a97.7 97.7 0 0 1-27.9-35.4c2.9-.6 11.6 7.8 13.1 10.3 2 3.2 27.4 28.9 39.5 32.7 19.8 6.3 57.6 8.5 69.8-15.4 2.8.9 10.2 8.5 17.1 10.3 8.3 2.2 6.9 5.1 14.7 1.6 2.9.3 5.1-2.2 7.1-4.3 2-2.1 5-4.1 7.5-2.7 1 .6 1.6 1.5 2.6 2.1 2.2 1.3 5.2 0 6.7-2.1s2.1-4.7 3.2-7c.3-.7.7-1.5 1.3-2 1.8-1.6 5-.9 7.3.1-.8.7.8 1.6 1.8 1.4a43.4 43.4 0 0 0 31.9-23.9c2.8-5.9 4.4-12.6 9.1-17.1 2.6-2.4 5.9-4 8.4-6.5s4.4-7.2 2.3-10.1c3.1-13 8.9-22.2 6.9-35.4-1-6.3.7-12.9 4.5-18 1.9-2.5 4.3-4.7 5.5-7.5 3.6-8.7-5-17.2-8.8-25.8-7.5-16.9 3.4-38.6-6.4-54.3-4.1-6.5-11.6-12-10.7-19.5.3-2.6 1.6-4.9 1.9-7.5.9-8.4-8.8-14.7-9.3-23.1-.2-4.5 2.2-9.1.5-13.2-1.7-4.1-6.8-5.9-9-9.7-2.6-4.7-.3-10.5-.4-15.8-.3-9.1-7.9-16.2-11.2-24.8-1-2.7-1.6-5.5-2.2-8.3l-4.8-23.4c-.4-1.8-.8-3.6-1.9-5.1-.8-1-1.8-1.7-2.8-2.4-2.8-2-6-4-7.8-7a149 149 0 0 1-15.6-44.8c-1.6-7.6-3.3-15.2-2.7-22.9.5-7.6 3.2-14.9 5.9-22.1 2.5.8 4.4 2 6.7 3.3 4.1 2.2 8.9 3.1 13.5 2.4 5.4 6.1 14.9 9 22.7 6.6a26 26 0 0 0 18.3 8.3c-2.6-5-3.7-10.7-3.2-16.3 3.4 2 6.5 4.5 9.1 7.4 1.8 2 3.4 4.2 5.5 5.8 2.6 2.1 6.1 3.1 9.4 3 .3-5.2.8-9.7 1-14.9 6.5.7 13.6.2 20.1-1.2 3.7-.8 7.4-2 10.4-4.2s5.4-5.7 5.5-9.4c2.2.3 5 .1 7.1-.5a28 28 0 0 0-11-12.6 86.8 86.8 0 0 0-15.4-7.3l4.5-11.4c-5.3-7.1-11.6-14.3-20.1-16.6 5-2.8 9.1-7 10.7-12.5a40.2 40.2 0 0 0-26.3-26.6c1.5-7 1-14.7-1.2-21.5-8.4 0-17.6 4-22.9 10.6A79.8 79.8 0 0 0 424.2 84c-17-12.8-39.7-6.5-53 8.6.7-5.7.5-11.3-1-16.9-3.2 2.5-7.5 3.6-11.3 5a42.8 42.8 0 0 0-23.9 22.8l-5.3-8c-9.3 6.8-21.4 15.3-29 24-10.3 11.3-27.7 24.5-34.1 38.5-2.5 5.6-5.1 11.3-6 17.4 5.7 8.3-2.8 16.9-4.2 26.9a104 104 0 0 0 1.1 31c4.8 29.8 15.9 47.9 24.4 76.9a58 58 0 0 1 2.9 14.8c0 2.2-.1 4.4.3 6.6a23 23 0 0 0 3.1 7c8.1 14.3 25.2 39.6 31.3 54.9l15.5 38.8c2.4 6.1 4.9 12.2 5.8 18.7.7 4.6.6 9.3 1.6 13.8 1.3 5.7 4.3 10.9 7.2 16 11.5 20.4 33.4 47.9 38 85.5 3.6 29.7-.2 48.3-18 63.6-11.8 10.2-25.1 8.2-25.1.4 0-54.1-50.8-135.3-65.9-166.3-17.4-35.7-10.5-70-24.6-120.8-8.6-30.9-22-53.3-33.3-67.9a80 80 0 0 1-12.6-36c0-16 4-26 4.7-41.8.7-15-1.3-35.4-6.1-49.7-2.2-6.7-5.8-20-18.4-34.6-12.6-14.6-24.9-19.3-24.9-19.3a79.8 79.8 0 0 0-43.3-9.3c-7.7.3-14.1 1.4-21.5 3.8-9.9 3.1-13.9 7-19.7 10.2A42.7 42.7 0 0 0 64 112.1c-4.2 5.8-8.6 5.9-10.6 12.6-3.3 11.2-13.4 22.7-16.8 28.2a84.2 84.2 0 0 0-11.3 34.3c0 4.7 3.8 6.2 3.8 6.2 1.7 3.3 2.4 3.6 8.1 10.7 4.1 5.6 16.1 8.1 22.6 8 3.5 0 7-.1 10.3-1.3 2-.7 12.2-4.8 17.8-4.8 9 0 14.9 4.9 15 9.1.2 4.6-15.8.9-21.6 3.8-5.6 2.8-10.9 4.1-16.6 6.8-1.6.8-7.5 3-5.2 6.1 1.4 1.9 8.3.2 10.2-.2 2.2-.5 4.8-2.6 6.6-3.8 3.8-2.6 6.9-1.9 11.6-1.9 13.7-.1 14.2 5 30.2 4.6 10.4-1.6 14-5.3 14-5.3 2.5 8-1.1 13.3-7.1 24.6a63.9 63.9 0 0 0-5.9 32.8c-10.6 11.4-21.8 19.2-27.4 36-3 8.9-5.1 18.1-3.6 26.4-13.6 4.9-22.1 12.4-22.5 12-19.4-20-23-21.2-43.3-51.4-4-5.1-8.1-15.6-7.7-24.3-.2-6.1-1.3-9-3.2-11.6-4.5-6-4.7-8.3-6.6-9.6-1.3-3.4-5.2-3-6.1-2.5-1 3.5-2.2 4.5-3.7 5.9-1.8 1.5-1 3.1-.7 3.5-.3-.4-1.2-1.7-1.8-2-1.3-3.4-5.2-3-5.9-2.6-1.1 3.5-2.3 4.5-3.8 5.9s-.3 3.7-.3 3.7-2.2-.9-3.4-1.8c-2.7-3.2-5.9-1.2-6.6-.5.1 3.6-.5 4.5-1.3 6-.9 1.3-2 2.6-.7 3.7 1.2 1 2 1.4 3.7 1.3 2.6.7 3.7 1.7 5.5 3.4 2.3 3 3.3 2.7 3.4 3.1-2.5-.7-5.1-1.3-7.2-2.5-3.1-2.7-6-.5-6.6.4.6 3.6.1 4.6-.5 6.1-.6 1.4-1.6 2.8-.2 3.7 1.4.9 2.2 1.2 3.8.9 4.9.7 6.2 4.8 12.3 7.2 7.5 4.9 14.2 12.3 15.2 17.2 6.5 13.6 12.2 23.9 18.7 37.5 8.6 17.9-1.1-2.5 7.9 15.2a62 62 0 0 0 7.6 11.3c5.1 6.2 11.5 17.2 17.9 22 5.9 4.4 7.3 4.5 12.3 9.8 3.1.7 6.4 1.2 9.5.6 2.4-.4 4.5-1.6 6.5-2.9l19.2-12.8c.6 6.2 3.1 15 12.4 29.7 7.7 12.2 24.9 25.3 36.3 34.1 31.3 24.1 71.3 45.5 90 94.9-20.7-18.6-30.9-22.7-57.1-31.8a61.8 61.8 0 0 0-24.2-2.5 48 48 0 0 0-28.5 15.3c-9.8 12.4-8.9 48.9-1.2 62.2 5.5 9.5 13.7 17.2 21.7 24.7 13.5 12.6 31.7 10.2 42.7 25.1 20.6 27.8 47.1 28.8 56.4 48.7z"/>
      <path d="M178.6 131.4c11.5-3.1 23.4-3.3 33.2-10.9a44.3 44.3 0 0 0 13.3-18.6c5-12.2 5.2-25.7 17.7-35.1 4-3 9.5-4.5 14.4-5.6 5.7-1.2 17.4-.3 17.4-.3A45 45 0 0 0 243 47.7c-24.3-.5-34.8 8.5-42.6 13.4-20.7 13.1-26 29.7-41.5 40.5"/>
      <g>
        <path stroke="none" fill="#000" d="M237.4 64.9a24 24 0 0 0-7.8 5.9c-2.2 2.4-4.2 5-5.8 7.8-1.6 2.9-2.9 5.9-4.2 8.9l-2 4.6c-.7 1.5-1.3 3.1-2.2 4.7-1.8 3-3.8 5.8-6.3 8.3a28 28 0 0 1-8.5 6 42.2 42.2 0 0 1-9.7 3.1c-3.3.7-6.6 1.2-10 1.5 6.4-2 13-3.6 18.6-6.7 5.7-3.1 10-8.1 13.2-13.7 1.5-2.7 2.8-5.9 4.2-9 1.4-3 2.9-6.1 4.8-9 1.9-2.9 4.2-5.4 6.8-7.7 2.6-2 5.6-3.9 8.9-4.7z"/>
      </g>
    </g>
    <g>
      <g stroke="none" fill="#000">
        <path d="m239.6 558.6 4.8 4.6 4.7 4.7c1.5 1.6 3.1 3.2 4.5 4.9l2.1 2.6c.7.9 1.3 1.8 1.8 2.8-1.6-1.6-3.3-2.9-4.9-4.4l-5-4.3-5-4.3-5-4.3 2-2.3zm-86.4-280.8c-1.4 1.1-2.9 1.9-4.3 2.7l-4.4 2.2c-1.5.7-2.9 1.4-4.5 2-1.5.6-3.1 1.2-4.8 1.6a18 18 0 0 1 3.6-3.7 24.3 24.3 0 0 1 14.4-4.8zm39.9 68.2c1-.5 2.2-.4 3.2-.1 1.1.3 2 .9 2.8 1.8.8.8 1.3 1.8 1.6 2.9.2 1.1.2 2.2-.4 3.2l-1.8-2.2-1.6-1.8-1.7-1.7c-.6-.8-1.3-1.4-2.1-2.1zm-1.6-15.7c1.3-.4 2.8-.2 4.1.4 1.3.6 2.4 1.6 3.3 2.7a8.5 8.5 0 0 1 1.5 4c.1 1.4-.2 2.9-1 4-.4-1.4-.8-2.4-1.3-3.5-.5-1-1-1.9-1.7-2.8-.6-.9-1.3-1.7-2.1-2.5l-2.8-2.3zm46.4 35.9a22.4 22.4 0 0 1 1.8 10.2 22.2 22.2 0 0 1-2.5 10c-.3-1.8-.4-3.5-.5-5.1v-5a84.2 84.2 0 0 1 1.2-10.1zm3.3 33.5c.7.3 1.1.8 1.3 1.4.2.5.3 1.1.2 1.7-.1.5-.4 1.1-.8 1.5-.4.4-1 .8-1.7.8l-.5-1.7v-1.2l.4-1.1 1.1-1.4zm4 18a4.4 4.4 0 0 1 1.8 3.6 7 7 0 0 1-.3 2c-.3.6-.6 1.3-1.3 1.8-.6-.7-.8-1.3-1.1-1.9l-.3-1.8c0-.6 0-1.2.2-1.8a7 7 0 0 1 1-1.9zm6.8 14.4.8 2.2.5 1.8.3 1.8.2 2.3c-1-.1-1.7-.6-2.3-1.2a4.8 4.8 0 0 1-1.1-4.7 4 4 0 0 1 1.6-2.2zm-121.1-23.3c1.5.1 2.8.4 4.2.7l3.9.9 3.8 1c1.3.4 2.6.8 4 1.4a12.8 12.8 0 0 1-8.6.5c-1.4-.4-2.7-.9-4-1.6-1.3-.8-2.4-1.7-3.3-2.9zm11.2 19.2a18.4 18.4 0 0 1 4.1 1.4l1.7 1c.6.4 1.2.8 1.9 1.5a4 4 0 0 1-2.5.7c-.9 0-1.7-.2-2.4-.6a5 5 0 0 1-1.9-1.6c-.5-.6-.9-1.4-.9-2.4zm9.7 16.9c.8-.3 1.4-.4 2.1-.4.6 0 1.2.2 1.7.4s1 .6 1.5 1c.4.4.8 1 1.1 1.8-.8.3-1.4.4-2.1.4-.6 0-1.2-.2-1.7-.4s-1-.6-1.5-1c-.4-.5-.8-1-1.1-1.8zm-21-150-2.5 4.1-2.6 3.7-2.8 3.6c-1 1.2-2 2.4-3.2 3.5a17.6 17.6 0 0 1 3.5-8.9 22 22 0 0 1 3.3-3.5c1.4-1.1 2.7-2 4.3-2.5zm-12.2 25.4a51 51 0 0 0-3 3.9l-2.8 4.1-5.4 8.4-.2.2-.3.2c-2.9 1.4-5.8 3.3-8.8 4.9-3 1.6-6.1 3.1-9.2 4.5l-1.2-2.8c3.1-1.3 6.1-2.7 9.1-4.2l4.5-2.4 4.6-2.3-.5.4 6-7.9a39 39 0 0 1 3.3-3.8c1.2-1.2 2.5-2.3 3.9-3.2zm46.4 55.1a21 21 0 0 1-5.7 6.9 43 43 0 0 1-7.6 4.9 85.9 85.9 0 0 1-17 6c-5.8 1.5-11.8 2.5-17.6 3.5-5.7 1.3-11.6 2.5-16.3 5.6l-1.6-2.5c2.7-1.7 5.6-2.8 8.6-3.7l4.4-1.1 2.2-.5 2.3-.4c5.9-.9 11.8-1.7 17.6-3a82.6 82.6 0 0 0 16.9-5.2c2.7-1.2 5.3-2.6 7.7-4.3a24 24 0 0 0 6.1-6.2zm24.3-177.8c.6.5 1 1.1 1.2 1.7.3.6.5 1.2.5 1.8a6 6 0 0 1-.7 3.9c-.6-.5-1-1.1-1.3-1.7a4 4 0 0 1-.5-1.8 6 6 0 0 1 0-1.9c.2-.6.4-1.3.8-2zm4.5 10.1c.6.4.9.9 1.1 1.4l.3 1.5c0 .5-.1 1-.4 1.5a3 3 0 0 1-1.2 1.3c-.4-.5-.6-1-.8-1.5l-.2-1.3c0-.4.1-.9.3-1.3.2-.6.4-1.1.9-1.6zm-1 12.2c.5.4.8.9.9 1.4.1.5 0 1-.1 1.5-.2.5-.5.9-.9 1.2-.4.3-.9.5-1.6.5l-.1-1.5.2-1 .5-.9c.3-.5.6-.8 1.1-1.2zm-3.1 9c.5.6.7 1.1.7 1.7.1.6 0 1.2-.2 1.7s-.5 1-.9 1.4c-.4.4-.9.7-1.7.9l-.1-1.8.3-1.4.6-1.3c.5-.3.8-.7 1.3-1.2zm-89.2-40.7a13 13 0 0 1-1.1 6c-.3.9-.8 1.7-1.2 2.5l-1.6 2.6c-.6-1-.7-2.2-.7-3.2.1-1.1.3-2.1.7-3 .4-.9.9-1.8 1.5-2.6a13 13 0 0 1 2.4-2.3zm-70.4 4c.5.3 1.2.5 1.9.5a5 5 0 0 0 2.1-.5c1-.3 1.4-2.3 1.8-4.1.2-.9.4-1.9.8-3 .5-.9 1.1-1.8 1.8-2.6a8 8 0 0 1 5.3-2.5 10.6 10.6 0 0 0-5.5 5.8l-.4 2.6a17 17 0 0 1-.5 3c-.1.5-.3 1.1-.6 1.6l-.7.8-.7.6a6.8 6.8 0 0 1-6.9.3l1.6-2.5zm16.5-5.7c.4.8.5 1.7.4 2.5-.1.8-.3 1.5-.7 2.2-.4.7-.9 1.3-1.5 1.8s-1.4.9-2.3 1c0-.9.2-1.7.4-2.3.2-.7.5-1.3.8-1.8a9 9 0 0 1 1.1-1.6c.5-.8 1-1.3 1.8-1.8zm95.8 29.5c.3-1.2.7-2.1 1.2-3l1.4-2.5 1.6-2.4c.6-.8 1.4-1.6 2.4-2.2.1 1.2 0 2.2-.3 3.2-.2 1-.6 2-1.2 3-.6.9-1.3 1.8-2.1 2.5-.9.6-1.8 1.1-3 1.4zm5.7-18.9c-.5-1-.7-1.9-.9-2.7l-.3-2.5.1-2.5c.1-.9.2-1.8.6-2.8.8.7 1.4 1.5 1.7 2.4.4.9.6 1.8.6 2.8 0 .9-.1 1.9-.3 2.8-.3.8-.8 1.7-1.5 2.5zm4.8-46.1a32.7 32.7 0 0 1 10.3-13.2 41.6 41.6 0 0 1 15-7.8l.8 2.9a47.8 47.8 0 0 0-14.4 6.8 62 62 0 0 0-11.2 11.6l-.5-.3zm-12.8-21.2c.2-2.9.9-5.8 1.9-8.6a48.8 48.8 0 0 1 16.1-20.8l1.7 2.5a47 47 0 0 0-11.8 11.8 52 52 0 0 0-7.3 15.2l-.6-.1zm-80.8 6.8a29 29 0 0 0-4.1 5.3c-1.1 1.9-1.8 3.9-2.6 6.1-.4 1.1-.8 2.1-1.4 3.2-.6 1-1.2 2.1-2 3a14.1 14.1 0 0 1-5.7 4 23 23 0 0 0 4.5-4.9c1.2-1.8 1.9-3.8 2.7-6 .8-2.1 1.7-4.3 3.2-6.2 1.5-2 3.4-3.5 5.4-4.5zm147-68.4c-2.7 2.9-5.5 5.6-8.2 8.3l-4 4.2a77.8 77.8 0 0 0-3.8 4.3l-7.4 8.9a591 591 0 0 1-7.4 9.1c1.5-3.7 3.4-7.1 5.5-10.4a93 93 0 0 1 7-9.5l4-4.4a65.6 65.6 0 0 1 14.3-10.5z"/>
      </g>
      <g>
        <g stroke="none" fill="#000">
          <path d="M69.8 162.8a9.5 9.5 0 0 1-2 4.3c-1 1.2-2 2.3-3.1 3.3l-3.2 2.8c-1 .9-2 1.9-2.9 3.3-.3-1.6.2-3.3 1-4.7.8-1.4 1.9-2.6 3-3.6s2.3-1.9 3.5-2.7l3.7-2.7zm-5.2-12.3 2.1-.6c.6-.2 1-.5 1.4-.9.8-.8 1.4-1.9 2.2-3.1l2.8 2-1.6 1.7a6 6 0 0 1-2.1 1.4c-.8.4-1.7.5-2.6.5a3 3 0 0 1-2.2-1zM104 135l2.3.7 2.1.9a20 20 0 0 1 4.1 2.3c-.8.3-1.6.3-2.4.3l-2.3-.2-2.2-.3-2-.3.4-3.4zm-22.8 28.1c2.2-.2 4.2-.1 6.2-.2 1-.1 1.9-.1 2.8-.3a50.1 50.1 0 0 0 13.8-4.9c-.9 2-2.4 3.6-4.2 4.9a16.3 16.3 0 0 1-6 2.7l-3.3.5c-1.1 0-2.3 0-3.3-.3-2.2-.4-4.2-1.2-6-2.4z"/>
        </g>
        <path fill="#F6F6F6" stroke-width="3.4222" d="M103.8 136.7s-10.4-4.1-18.9-1.6C74.2 138.6 71.4 147 71.4 147s.4 4.2 6.7 8.1c3.6 2 7.8 2.8 11.2 2.5a16 16 0 0 0 14.7-13.2c1.1-5.2-.2-7.7-.2-7.7z"/>
        <path stroke="none" fill="#000" d="M76.3 140.3c0 7.4 6.8 13.2 12.7 12.6 3.2-.1-1.5-5.3-3.1-9.1a24.6 24.6 0 0 1-1.7-7.9"/>
        <g>
          <path stroke="none" fill="#000" d="M65.8 130.3c-.5.8-.6 1.8-.4 2.5.2.7.8 1.3 1.5 1.6.4.2 1.2.1 2-.2l2.3-1.1c3-1.6 5.6-4.3 9.2-6.2.9-.5 1.9-.9 2.9-1.1 1-.3 2.1-.4 3.1-.5a33.3 33.3 0 0 1 16.4 4.9c-3.7-.7-7.3-1.4-10.9-1.7-1.8-.1-3.6-.2-5.2 0-1.7.2-3.1.6-4.6 1.4-3 1.5-5.9 4.1-9.6 5.6-.9.4-1.9.7-2.9.8l-1.6.1c-.6 0-1.2-.2-1.8-.6-.5-.4-.8-.8-1.1-1.3a3 3 0 0 1-.4-1.6c-.2-1.1.3-2.1 1.1-2.6z"/>
        </g>
      </g>
      <g stroke="none" fill="#000">
        <path d="M261.8 582.7c.7 0 1.4.1 2 .4.6.3 1.1.6 1.6 1.1.5.4.9 1 1.1 1.5.3.6.5 1.2.5 2l-1.7-.9-1.3-1.1-1.2-1.3-1-1.7zm54.4-2.7c.9-.3 1.7-.1 2.4.2.7.3 1.3.8 1.8 1.4a4 4 0 0 1 .4 4.5l-1.7-1.4-1.1-1.3-.9-1.4-.9-2zm3.7 16c1-.3 2-.1 2.9.2.9.3 1.7.9 2.3 1.6.6.7 1.2 1.5 1.4 2.4.3.9.4 1.9.1 2.9l-2.1-1.7-1.6-1.6-1.5-1.7-1.5-2.1zm5.3 16.6c.7-.1 1.2 0 1.6.2.4.2.7.6.8 1 .2.4.2.9 0 1.3-.1.4-.4.9-1 1.3l-1.3-.8c-.3-.2-.4-.4-.5-.7l-.1-.9.5-1.4zm100.4-487.4a15.6 15.6 0 0 1 8 1.9c2.5 1.3 4.6 3.2 6.3 5.4l1.1 1.5-1.6.7c-1.6.8-3.3 1.4-5 2.1l-2.6.8-2.7.7 2.1-1.8 2.2-1.6 4.6-2.8-.5 2.2a32.6 32.6 0 0 0-5.4-5.1c-1-.7-2-1.5-3.1-2.1l-3.4-1.9zm-74.9 1.4c.8-.7 2.2-.9 3.4-.1l.3.2-.1.7-.9 8-.4 4-.5 4.2a15.7 15.7 0 0 1-2-8.4c.1-2.9.8-5.8 2.2-8.3l.3.9c-.4-.7-1.2-1.2-2.3-1.2zm7.1 48.8c2.7-.6 5.3-1 8-1.2l2-.2h1.1c.4 0 1 .1 1.6.5.6.4 1.1 1 1.2 1.7.1.7 0 1.2-.1 1.7l-.5 1.2-.6.9a26 26 0 0 0-4 14.5 15 15 0 0 1-1.3-8.1c.3-2.8 1.2-5.6 2.8-8l.5-.8.3-.6.1-.3.1.1c.1 0-.5-.2-1.2-.2l-2-.1c-2.7-.2-5.4-.5-8-1.1zm-63 20.8c-2.8.1-5.5-.1-8.1-.4h-.7c-.1 0-.1.1 0 .1v1.1l-.1 4-.4 8c-.2 2.7-.5 5.4-1.1 8.1-.7-2.7-1-5.4-1.3-8.1a73 73 0 0 1-.2-8.1l.2-4.1.2-1.2c.1-.5.3-1 .8-1.5s1.2-.8 1.7-.8l1.3.2c2.6.8 5.2 1.6 7.7 2.7zm46.2 68.6c.9-2.4 2.4-4.5 4.1-6.4l2.8-2.6a9 9 0 0 1 1.6-1.1l1.2-.6c.3-.1.7-.2 1.2-.1s1 .4 1.3.8c.3.4.4.6.4.9l.1.5.3.9.5 1.8.9 3.6a60 60 0 0 1 1.1 7.4 46.2 46.2 0 0 1-4.6-10.2l-.6-1.8-.3-.9-.1-.4c0-.1-.1-.1 0 0s.3.3.5.3h.3l-.5.3-1.5 1c-1 .7-2 1.3-2.9 2.1-2 1.2-3.8 2.8-5.8 4.5zm55.6 98.2-.5-2.9-.4-2.9-.9-5.6 2.5.8-5.5 6.7-2.8 3.4-3 3.4a30.5 30.5 0 0 1 3.7-8.3c1.6-2.6 3.4-5 5.5-7.1l2.2-2.4.3 3.2c.2 2 .2 4 0 5.9l-.4 2.9c-.1 1-.4 2-.7 2.9zm19.3 47.5-.9-2.5-.9-2.3c-.7-1.5-1.4-2.9-2.2-4.2h2.6l-2.7 6-1.2 3.2-1.2 3.3a21.9 21.9 0 0 1-.1-7.2c.5-2.4 1.4-4.7 2.6-6.8l1.4-2.2 1.2 2.2c.9 1.6 1.5 3.3 1.7 5.1l.2 2.7-.5 2.7zm-37.5 13.3a12.8 12.8 0 0 0 2.4 7.8 75 75 0 0 0 2.6 3.3c1 1.1 2 2.3 2.9 3.7a14.3 14.3 0 0 1-8-5.3 9.3 9.3 0 0 1-1.7-4.9c0-1.7.5-3.5 1.8-4.6zm33.8 41.4c.5-.8 1.6-1.3 2.7-1.3s2.1.4 3 1c.9.6 1.6 1.7 2 2.6.4 1 .6 2 .6 3 .1 2-.4 3.8-.7 5.5-.4 1.7-.7 3.3-.5 5.1-1.4-1.4-1.8-3.5-1.8-5.3-.1-1.9.1-3.6.1-5.2-.1-1.6-.3-3-1.2-4-.4-.5-1-1-1.7-1.3-.8-.3-1.6-.4-2.5-.1zm-60.8-123.5c-1.2.5-2.5.8-3.8 1.1a22.8 22.8 0 0 1-11.6-1.6l2.1-1.5c.1 1.9.3 3.7.7 5.6l.7 2.8.8 2.9c-.8-.7-1.4-1.5-2-2.3a18.2 18.2 0 0 1-3.1-8.8l-.2-2.4 2.3.9a39.4 39.4 0 0 0 10.5 2.8l3.6.5zm-40.2-43.3h-2.7c-.8.1-1.5.5-1.6.8l-.1.6.2 1.1.4 2.6.9 5.2.8 5.4a18.2 18.2 0 0 1-4.7-10.1l-.3-2.8v-1.6c.1-.6.4-1.4.9-1.9a3.4 3.4 0 0 1 3.4-.8c1.2.4 2 .8 2.8 1.5zm-22.7-45h-.5l-.3.2-.3.8-.1.9.1.9.4 4.3.2 4.1.4 4.3a8.6 8.6 0 0 1-2.7-3.8 17 17 0 0 1-.6-9c.1-.3.1-.9.3-1.3l.7-1.1c.3-.3.7-.6 1.2-.8.2-.1.5-.1.8 0l.4.5zm37.9-27.8c-.4-1.7-.3-3.7.8-5.5.6-.9 1.5-1.6 2.6-2 1.1-.4 2.4-.5 3.6.2 1.2.6 1.8 1.6 2.3 2.4l1.1 2.3c.7 1.6 1.3 3.2 1.7 5a25.9 25.9 0 0 1-3.7-3.7l-1.5-2-1.2-1.3c-.6-.4-2-.1-3 .7-1.1.8-1.9 2.3-2.7 3.9zm2.3-57.9c.7-.8 1.6-1.2 2.5-1.5.9-.3 1.8-.4 2.8-.3.9.1 1.8.4 2.7.8.8.5 1.6 1.1 2.1 2l-2.7.3-2.4-.1a18.5 18.5 0 0 1-5-1.2zm116.1 9.6.3 1-.1 1.1c-.2.7-.7 1.4-1.2 1.8-1 1-2.2 1.6-3.2 2.1l-3.1 1.2c-1 .4-1.9.8-2.7 1.9l-.1-1c.1-.3.1-.7.3-1l.5-.9.7-.8c1-1 2.2-1.5 3.2-2l3.1-1.2c.8-.6 1.7-1 2.3-2.2zm-48.2-32.4c.5.7.8 1.4 1 2.2l-1.1-.8a3 3 0 0 1 2.1-.2c.7.2 1.3.6 1.8 1 1 .9 1.5 2.3 1.4 3.7a5.6 5.6 0 0 1-1.4 3.2c-.7.8-1.6 1.4-2.6 1.9l.8-2.9c.2-.9.4-1.6.3-2.3a3 3 0 0 0-.6-1.7c-.4-.5-.7-.9-1.3-1l-1.2-.2.1-.6.7-2.3zm19.2 367.6a6 6 0 0 1-1.9-.1c-.6-.2-1.2-.4-1.7-.8-1-.7-1.8-1.7-2.3-2.9l2.3.4-1.8 1.2-1.1.5-1.2.3.3-1.2.5-1.1c.4-.7.8-1.3 1.3-1.8l1.2-1.4 1.1 1.8 1.5 2.3.8 1.3 1 1.5zm31.2 12.7c.6.5.9 1.1 1.2 1.6a4.5 4.5 0 0 1 0 3.2c-.2.5-.6 1.1-1.2 1.6-.6-.5-.9-1.1-1.2-1.6a4.5 4.5 0 0 1 0-3.2c.2-.5.6-1.1 1.2-1.6zm-34.5 17.6a3 3 0 0 1 1.5 2 4.3 4.3 0 0 1-1.6 4.5 3 3 0 0 1-2.4.6l.6-2.1.5-1.5.6-1.5.8-2zm16.7 33.4a8 8 0 0 1 1.6 3.9 10 10 0 0 1-.3 4.2 10 10 0 0 1-1.9 3.7c-.9 1.1-2 2-3.4 2.4l1.4-3.6 1.1-3.4.9-3.4.6-3.8zm-27.4 0c.5.9.7 1.8.8 2.6v2.5c-.1.8-.3 1.6-.7 2.4-.3.8-.8 1.6-1.5 2.3a7 7 0 0 1-.8-2.6v-2.5c.1-.8.3-1.6.7-2.4.4-.8.8-1.5 1.5-2.3zm7.2 41.1c.4 1.1.2 2.3-.1 3.4-.4 1.1-1 2.1-1.8 2.9-.8.8-1.8 1.5-2.9 1.8-1.1.4-2.3.5-3.4.2l2.2-2.2 1.9-1.9 1.9-1.9a51 51 0 0 0 2.2-2.3zm-26.6 14c-.6 1.1-1.4 1.9-2.2 2.7-.8.8-1.7 1.4-2.6 2-.9.6-1.9 1-2.9 1.4a9 9 0 0 1-3.4.7c.6-1.1 1.4-1.9 2.2-2.7.8-.8 1.7-1.4 2.6-2 .9-.6 1.9-1 2.9-1.4 1.1-.4 2.2-.7 3.4-.7zm-4.8 14.3c-.8.8-1.7 1.3-2.7 1.6-.9.3-1.9.5-2.9.6-1 .1-2 0-2.9-.2-1-.2-1.9-.6-2.8-1.3 1-.6 1.9-.8 2.9-1.1l2.7-.4c.9-.1 1.8 0 2.8.1.9.1 1.8.3 2.9.7zm-35.3 14.6c-1.4-.8-2.8-1.7-4.1-2.7-1.3-1-2.6-2-3.7-3.1a49 49 0 0 1-6.5-7.1c2.8 1.6 5.2 3.7 7.8 5.5a88 88 0 0 0 3.9 2.6l4 2.2-1.4 2.6zM74 400c-1.3-.4-2.3-.6-3.3-.7-1-.1-2-.2-3-.1l-3 .3c-1 .2-2 .4-3.3.9a5.1 5.1 0 0 1 2.4-3 7.3 7.3 0 0 1 3.8-1.1c1.3 0 2.7.3 3.8.9A5 5 0 0 1 74 400zm-6.7-42.8a39 39 0 0 0-.5 3.6c-.1 1.3-.2 2.5-.5 3.8l-1-3.6c-.4-1.2-.8-2.4-1-3.8h3zm120.1 191.1c1.2.4 2 1.2 2.8 2.1a9 9 0 0 1 1.5 3.1c.3 1.1.3 2.3.1 3.4a5.3 5.3 0 0 1-1.5 3.1l-.9-3.1-.7-2.8-.7-2.8-.6-3zm-5.5 16.6c.6.5.9 1.1 1.2 1.6a4.5 4.5 0 0 1 0 3.2c-.2.5-.6 1.1-1.2 1.6-.6-.5-.9-1.1-1.2-1.6a4.5 4.5 0 0 1 0-3.2c.3-.5.6-1 1.2-1.6z"/>
      </g>
      <g class="secondary">
        <path d="M0 259.3s-.2-.8-2.5-3.3a18.8 18.8 0 0 0-8.7-4.2c-1.1-.1-4.9.2-4.9 1s7.2 4.9 9 6.8c1.7 2 2.4 3.2 2.8 4 .3.9 4.3-4.3 4.3-4.3zm-12.3 4.8s-.2-.8-2.5-3.3a18.8 18.8 0 0 0-8.7-4.2c-1.1-.1-4.9.2-4.9 1s7.2 4.9 9 6.8c1.7 2 2.4 3.2 2.8 4 .3.9 4.3-4.3 4.3-4.3zm-13.7 7s-.4-.6-3.4-2.3-8.3-1.1-9.4-.9c-1.1.3-4.6 1.7-4.3 2.5.2.8 8.1 2 10.4 3.3 2.3 1.3 3.3 2.3 3.9 2.9.6.6 2.8-5.5 2.8-5.5zm-3 15.1s-.5-.6-3.6-1.9c-3.1-1.3-8.3-.4-9.4 0-1.1.4-4.3 2.2-4 3 .3.8 8.3 1.3 10.7 2.3 2.4 1 3.6 1.9 4.2 2.4.7.6 2.1-5.8 2.1-5.8z"/>
      </g>
      <g stroke="none" fill="#000">
        <path d="M22.3 315.2c1 .9 1.6 1.9 2.2 3a13.5 13.5 0 0 1 1.3 7 9.7 9.7 0 0 1-1 3.6c-.6-1.1-1-2.2-1.4-3.3l-.8-3.3-.4-3.3c-.1-1.3-.1-2.4.1-3.7zm10.9 12.9a5 5 0 0 1 1.1 2c.2.7.3 1.3.3 2a4 4 0 0 1-.4 1.9 5 5 0 0 1-1.2 1.9 5 5 0 0 1-1.1-2 7 7 0 0 1-.3-2c0-.7.1-1.3.4-1.9a4 4 0 0 1 1.2-1.9zm8.3 10.6a6 6 0 0 1 1.1 2.3c.2.8.3 1.5.3 2.3 0 .8-.1 1.5-.4 2.3-.3.7-.6 1.5-1.2 2.2a6 6 0 0 1-1.1-2.3 9 9 0 0 1-.3-2.3c0-.8.1-1.5.4-2.3.3-.7.6-1.4 1.2-2.2zm-57.8-52.9a21 21 0 0 1 7.1 4.6c2 2 3.3 4.4 4.5 6.8a26.6 26.6 0 0 0-5.5-5.6 22.1 22.1 0 0 0-6.9-2.9l.8-2.9zm-.4-15.1c1.6.7 3.1 1.7 4.3 2.9a23 23 0 0 1 3.3 3.7c1 1.3 1.9 2.6 3 3.8 1 1.2 2.2 2.3 3.4 3.3-1.4-.7-2.7-1.7-4-2.8l-3.5-3.3a24 24 0 0 0-3.6-2.9c-1.3-.8-2.6-1.4-4-1.8l1.1-2.9zm12.4-4.5 3.7 4.1 1.8 2.2.3.4.2.3.4.6.7 1.2A27 27 0 0 1 6 285.7a27 27 0 0 0-4.5-9.9l-.8-1.1-.4-.5-.3-.3-.2-.2-2-1.8-4.2-3.6 2.1-2.1zm222.8 364.5a27.6 27.6 0 0 0-14-18.4 30 30 0 0 1 16.9 17.6l-2.9.8z"/>
      </g>
    </g>
    <g stroke="none" fill="#000">
      <path d="M182.4 765.6a10 10 0 0 1 1.3-6.3 6.9 6.9 0 0 1 2.5-2.3c1-.6 2.1-.8 3.1-1l-.6.2c1.9-1.2 4-1.9 6.1-2.2 2.1-.3 4.1-.3 6.1-.5s3.9-.5 5.7-1l5.7-1.6.1.3a21.7 21.7 0 0 1-11.3 4.6c-2 .3-4 .5-5.9.9a16 16 0 0 0-5.1 2l-.2.1-.4.1c-.7.2-1.5.4-2 .7-.6.4-1.1.8-1.4 1.4-.4.6-.6 1.3-.8 2-.1.7-.2 1.6-.1 2.2l-2.8.4zm7.2-18.7a17.2 17.2 0 0 1-5.2 2.3 54 54 0 0 1-16.9 1.8h-.1l-.2-.1-.8-.1h-.9a5 5 0 0 0-1.7.6l-1.5-2.6c.9-.5 1.8-.9 2.8-1l1.5-.1 1.6.3-.3-.1c1.7.2 3.6.2 5.4.2l5.4-.2c1.8-.1 3.6-.4 5.4-.7 1.8-.2 3.6-.6 5.5-.7v.4zm-42.2 25a30.8 30.8 0 0 1 8.6-5.3l2.5-.8 2.5-.4c1.7-.2 3.4-.3 5.1.1v.2l-4.9.9a35 35 0 0 0-4.6 1.4l-4.5 2-4.7 1.9zm38.5 16.7a38.2 38.2 0 0 1 3.5-9.5c.5-.7.9-1.5 1.5-2.1l1.7-1.9c1.2-1.2 2.5-2.3 4.1-3l.1.2-3.3 3.7c-1.1 1.3-2 2.5-2.8 3.9l-2.4 4.3c-.8 1.5-1.5 3-2.4 4.4zm-16.8-56c.8.6 1.5 1.4 2 2.2.5.8.9 1.6 1.2 2.5.5 1.7.7 3.4.7 5.1h-.3c-.4-1.6-1-3.1-1.9-4.4a8 8 0 0 0-1.5-1.7c-.5-.5-1.1-.8-1.7-1l1.5-2.7z"/>
      <path d="m192.7 758.8 1.6-.5c.6 0 1.1-.2 1.7-.1a8 8 0 0 1 3.4.8c1.1.5 2.1 1.2 2.8 2.2.8.9 1.3 2 1.5 3.2l-.3.1a15.1 15.1 0 0 0-4.9-3.6l-2.8-1.1-1.5-.4-1.5-.6zm23.7-24.9 8.2-6 4-3.1a29.1 29.1 0 0 0 3.3-3.3c.3-.4.9-.6 1.3-.3.3.2.4.5.4.8 0 .8-.2 1.5-.5 2.1l-1 1.6a38 38 0 0 1-7.7 7.2h-.2v-.2c1.5-1.7 3.1-3.4 4.5-5.2l2-2.7c.6-.9 1-2 1-2.6l1.8.5c-.6.9-1.2 1.5-1.8 2.1l-2 1.7-4.2 3c-1.5.9-2.9 1.8-4.4 2.5-1.5.6-3.1 1.4-4.7 1.9 0 .1 0 0 0 0zm-48.7 14.2.6.1.5.2.8.4 1.4 1c.8.8 1.5 1.6 2 2.5.6.9 1 1.8 1.3 2.8l.5 1.4.4 1.4-.3.1-.7-1.3-.8-1.2a9.6 9.6 0 0 0-1.8-2.2 8.7 8.7 0 0 0-2.1-1.7l-1.1-.5-.5-.1H167.6l.1-2.9zm-25.4 3.9a31.8 31.8 0 0 1 9.1-4.4l2.5-.5 2.6-.2c1.7 0 3.4.1 5.1.6v.2c-1.7 0-3.3.2-4.9.4-1.7.2-3.2.4-4.8.9-1.6.4-3.1 1-4.7 1.5l-4.9 1.5z"/>
    </g>
  </g>
</svg>
