<svg xmlns="http://www.w3.org/2000/svg" fill="#d7374a" stroke="#000" viewBox="50 50 200 200">
  <metadata source="http://wappenwiki.org/images/7/72/Hirzbach.svg" license="https://creativecommons.org/licenses/by-nc-sa/3.0"/>
  <g id="stagPassant" stroke-width="3" transform="translate(54 54) scale(0.115)">
    <g>
      <path class="secondary" d="M609.5 698.9c-7.5 16.7-19.3 15.9-27.2 29.2-2.7 4.5-2.7 5.5-2.3 5.7 2.6 1.5 11.9 1.5 11.9 1.5s-3.8 6.8-.9 7.8c3.7 1.2 15.3.1 23.4-2.8 8.2-2.9 12.4-6.6 13.5-9 1.4-3.3 2.7-8.7 2.9-15.1.2-7-1.4-15.3-1.4-15.3m-364.7-2c-7.5 16.7-19.3 15.9-27.2 29.2-2.7 4.5-2.7 5.5-2.3 5.7 2.6 1.5 11.9 1.5 11.9 1.5s-3.8 6.8-.9 7.8c3.7 1.2 15.3.1 23.4-2.8 8.2-2.9 12.4-6.6 13.5-9 1.4-3.3 2.7-8.7 2.9-15.1.2-7-1.4-15.3-1.4-15.3m174.2-15c-7.5 16.7-19.3 15.9-27.2 29.2-2.7 4.5-2.7 5.5-2.3 5.7 2.6 1.5 11.9 1.5 11.9 1.5s-3.8 6.8-.9 7.8c3.7 1.2 15.3.1 23.4-2.8 8.2-2.9 12.4-6.6 13.5-9 1.4-3.3 2.7-8.7 2.9-15.1.2-7-1.4-15.3-1.4-15.3"/>
      <path d="M478.7 687.7c-.2-1.8 2.4-4.3 3.7-4.6 2.3-.5 3.5.4 5.8 2.1 3.5 2.7 8.2 5.4 12.1 3.3 3.7-2 2.2-6.8 2.5-11 1.3-19.3 2.2-17.9 13.1-34.1 3.2-4.8 6.9-11.4 9.5-16.5 4.2-8.1 5.9-7.3 11.3-14.6 6.3-8.6 19.2-13.3 24.4-22.6 5.1-9.1-1.2-11.1-2-21.6-.8-11.5 1.7-13 7.3-23.1 2.1-3.8 4.7-7.5 5.6-11.8 1.5-6.6-1.1-13.3-3.9-19.4-4.8-10.7-10.3-11-16.3-21a15.6 15.6 0 0 0-5-5.8c-1.7-1-3.7-1.4-5.6-1.6-18.3-2.6-36.9 4.9-53.7 12.5-5.1 29 19.2 42.1 25.1 60.2 10.9 33 2.4 46.5-20.9 90.5-2 3.8-4.2 7.6-7.2 10.7-3.6 3.7-8.1 6.1-12 9.5-3.9 3.3-14.3 12-13.7 17.1l19.9 1.8z"/>
      <path class="secondary" d="M159.2 618.7c9.6 15.6 2.2 24.9 8.8 38.9 2.2 4.8 3 5.3 3.4 5.1 2.7-1.3 7.9-9 7.9-9s3.4 7 5.9 5.2a51.3 51.3 0 0 0 10.9-20.9c2.2-8.4 1.6-14 .1-16.2a32 32 0 0 0-10.9-10.9c-7-4.1-12.7-8.8-12.7-8.8"/>
      <path d="M172.6 601.9c-.8-1.7-1.9-3.9-1.9-4.8 0-1.3.9-2.4 1.9-3.2 2.4-1.8 5.5-2.3 8.3-3.4s5.7-3.2 5.8-6.2c0-1.7-.3-2.5-1.3-3.9-3.7-5.6-3.9-3.1-12.6-6.5-8.5-3.4-9.9-2.8-13-8-4.2-9.9-1.4-15.6-1.8-25.1-1.1-26.9-5.1-29.9-7.4-41.5 3.2-.7 7.2-.5 12-3.5 4-2.5 7.6-7.5 7.6-7.5 17.1-5.9 60.3 4.9 80.8-4.2l-26.6-68.8c-18.8 5.8-29.8 16.7-44 26-5.9 3.9-11.3 8-17.9 10.5-11.5 4.4-20.1 4.4-26.2 7.4-4.5 2.3-4.5 8.1-6.9 12.5-1.4 2.6-2.7 5.7-4.2 8.2-3.6 6-2.6 12.9-.9 18.3a442 442 0 0 1 13.9 56.1c3.8 20 4.5 36.7 5.4 41.3 2.5 12.3 13.7 21.2 15.5 22.9 3-6.5 11.3-10 13.2-17.1"/>
      <g stroke="none" fill="#000">
        <path d="M209.4 469.9a20.4 20.4 0 0 1-9.6 2.3c-1.7 0-3.3-.2-4.9-.5-1.6-.4-3.2-.9-4.7-1.8l4.9-.6 4.7-.1 4.7.1 4.9.6zm-59.5 21.3 4.1-2.1c1.3-.6 2.4-1.3 3.3-2.1.9-.8 1.5-2 2.5-3.3.5-.6 1-1.3 1.7-1.9.7-.5 1.5-1 2.3-1-1.1 1.2-1.4 2.5-1.9 3.9l-.9 2.2c-.4.7-.9 1.5-1.6 2.2a8.6 8.6 0 0 1-4.6 2.2c-1.8.3-3.4.3-4.9-.1zm16.8 130.6a33 33 0 0 1 4.8 7.3c1.3 2.6 2.3 5.4 3.1 8.2l2.5 8.2a65 65 0 0 0 3.4 7.6l-2.7 1.5a41.4 41.4 0 0 1-3.3-8.2c-.8-2.8-1.4-5.7-2-8.5a96 96 0 0 0-5.8-16.1zm293.8 72c-.7 2.8-1.9 5.5-3.3 8.1a58 58 0 0 1-5 7.2c-1.8 2.3-3.7 4.4-5.3 6.7a64.6 64.6 0 0 0-4.4 7.1l-2.7-1.4c1.4-2.6 3.1-5.1 4.9-7.4 1.9-2.3 3.9-4.4 5.8-6.4 2-2.1 3.8-4.2 5.4-6.6 1.7-2.3 3.1-4.8 4.6-7.3zm86-115.7a10 10 0 0 1-.8 3.9c-.4 1.2-1 2.3-1.5 3.3s-1 2-1.3 3c-.4 1-.6 2.1-.8 3.5-1-.9-1.6-2.4-1.6-3.8s.4-2.8 1-4c.6-1.2 1.3-2.3 2.1-3.2.9-1 1.8-1.9 2.9-2.7zm-13.3-22c.2-1.6.6-3 1-4.3l1.5-4a44.9 44.9 0 0 1 4.4-7.5c.2 1.6 0 3.1-.3 4.5a20.7 20.7 0 0 1-3.6 8c-.8 1.3-1.7 2.4-3 3.3zm1.5-14.4c-.6-.6-.8-1.1-1-1.7a3 3 0 0 1-.1-1.6c.1-.5.2-1 .5-1.5s.7-1 1.3-1.4c.6.6.8 1.1 1 1.7.2.5.2 1.1.1 1.6s-.2 1-.5 1.5a4 4 0 0 1-1.3 1.4zm-42.4 128.1-.7 2.3-.8 1.8a15 15 0 0 1-1 1.7c-.4.6-.8 1.2-1.5 1.9a4 4 0 0 1-.8-2.5 5.2 5.2 0 0 1 2.3-4.4c.7-.5 1.6-.9 2.5-.8z"/>
      </g>
      <path d="M228.5 140.5c4.1-8.7 7.7-12 13.2-20.7a69 69 0 0 0 10.7-44.4c8.3-.9 15.6 5.9 19.5 13.3 4.7 9 6.2 19.5 5.4 29.7s-3.8 20-7.7 29.4"/>
      <path stroke-miterlimit="10" d="M255 122.9c-11.6-.3-23.4 2.4-31.6 3.9-4.6.8-6.8.5-11.2 1.9-2.2.7-3.1 1.7-3.8 3.8s-.9 4.5-2 6.5c-1.9 3.4-5.9 4.9-9.6 6.1-10.4 3.5-19.7 10.2-29.8 14.3-10.3 4.1-18 6.5-29 7.9-2.6.3-3.9.9-5.4 3a74 74 0 0 0-5.3 8.4c-1.4 2.5-1.8 3.7-3.7 5.7-2.8 3-4 6.7-5.2 10.7l-.5 1.3c1.5 2.1 4 3.4 6.5 3.9-.2-.1 9.6 2.4 11.7 2.3 3.8-.2 7.7-.9 11.3-2.2 2.3-.8 4.5-1.8 6.8-2 2.4-.2 5 .5 6.4 2.4-1 1.5-1.5 2.5-3 3.4a54 54 0 0 1-8.6 4.4c-5.1 1.3-10.9.5-15.3 3.4-.3.2-.7.5-.8.9-.1.3 0 .6.2 1 3.5 4.4 4.5 1 8.9 3.4 4.5 2.4 4.2 3.5 8.5 3.8 3.7.3 8.2-2 10.9-4.5 2.7-2.6 3.1-4.6 6.7-5.7 2.1-.6 9.1-2.6 11.8-3 5.9-.9 13.3-1.7 18.8-1.3 4.7.3 6.8 2.8 11.5 3.7 2.9 6.6 13.4 14.1 25 15.5 0 0 2.7 3.7 3.3 13.3a47.8 47.8 0 0 1-2.9 19.1c-1.4 10.1-15.3 26.5-21.9 35-11.6 14.6-24.4 28.6-19.6 48.4 3.4-4.3 6.8-6.5 10.2-8.7.6 7-4.3 18.5-7.7 24.5l.2-.4a38.2 38.2 0 0 0-6.5 30.3c2.7-3.4 5.1-5.3 8.8-7.7-1.4 7.6-3.3 16.7-3 24.4.3 7.7 2.5 15.6 7.6 21.3-3.1 21.9 13.2 47.2 23.6 52.5 7.3 3.7 14.7 23.4 35.5 23.4l40.1 6.4c38.7 10.8 79.2 8 117.1-2 20.4-5.3 54.9 1.3 75.5-2.8 17.8-3.5 29-.2 29-.2 9.2 33.4 40.3 47.2 66.9 59.4a71.9 71.9 0 0 1 29.2 23.4c6.6 11.2 4.2 16.3 4.2 29.3 0 40 0 48.6-15 84.2l19.9 1.8c.2-1.8.4-4.3.9-5 .7-1.1 2-1.6 3.3-1.8 3-.3 5.9.9 8.9 1.4s6.5.2 8.2-2.3c.9-1.5 1-2.3.9-4-.2-6.7-2.9-6.5-6.9-15-8.9-19.2 2.7-44.8 9.3-73.9 2.3-10.3 9.1-22.8 2.7-31.1-6.7-8.7-15.3-4.9-23.6-21.7a105.1 105.1 0 0 1-10.7-37.8c-1.9-18.8 7.8-46.6 6.9-64.7a84 84 0 0 0-6.3-30.2c1.4 3.4 10.5 24.9 23.3 34.7 2.6 2 17 11.6 25.4 6.6 4.4-2.8-1.4-5.9-4-13.2-1.6-4.4-1.5-11.8-6.1-20.7-7-13.5-14.2-15.5-20.2-24.9-4.2-6.6-7.9-12.3-11.7-19a36 36 0 0 0-16.6-16.2c-16.4-9-26-13.9-43.4-18.7a135.8 135.8 0 0 0-53.1-4.8c-5.4.6-21.8 1-27 2.3-21.1 5.5-45.7 4.5-67.9 4.9-22 .4-39.7-2.4-57.8-8.7-15.1-3.6-42.6-23.3-34.8-68.6 4.4-25.3-.5-52.5-3.4-71.9-1.5-31.8-17.2-57.6-27.4-64.2-11.7-7-30.5-9-43.6-9.3z"/>
      <g>
        <path stroke="none" fill="#000" d="M235.2 224.3c3.8 1 7.8 1.6 11.8 1.5 2-.1 4-.2 5.9-.6a36.3 36.3 0 0 0 16-7.9c3.2-2.6 6.2-5.4 9.5-7.9-2.9 2.9-5.6 6-8.7 8.8a34.8 34.8 0 0 1-22.7 10.2c-4.3.3-8.5-.2-12.7-1.2l.9-2.9z"/>
      </g>
      <path d="M319.6 506c.4 5.8.7 12-2.2 17.1-2 3.6-5.3 13.3-8.2 16.2-6.6 6.9-8.6 16.2-9.4 25.6-.7 9.2 3.1 17.1 1.1 26.3-1.2 5.7-2.9 11.3-3.5 17.1-.7 6.6.4 13.2.3 19.8-.1 8.6-4.7 19.9-5.1 28.4a30 30 0 0 0 7 19.5c5.7 7.5 6.6 6.3 6.9 13 .1 1.7 0 2.5-.9 4-1.6 2.5-5.2 2.9-8.2 2.3-3-.6-5.9-1.8-8.9-1.4-1.3.1-2.6.7-3.3 1.8-.5.7-.7 3.2-.9 5l-19.9-1.8c4.6-18 10.5-44.7 10.5-70.4 0-21.7-8.1-31.5-6.4-53.3.5-6.2 3.8-15.5 4.3-21.7 1.2-15.1-6.7-19.6-11-36-2.3-8.7-2.6-16.2-3.1-23.5"/>
      <g stroke="none" fill="#000">
        <path d="M257.5 494.1c0-3.8-.1-7.7-.5-11.5a63 63 0 0 0-2.3-11.3c1.6 3.5 2.9 7.2 3.8 11 .9 3.8 1.5 7.7 2 11.5l-3 .3zm60.5-33.8a64 64 0 0 1 3.6 22.8c0 3.9-.5 7.7-.7 11.5-.2 3.8-.3 7.5.2 11.2l-3 .3c-.4-3.9-.3-7.9.1-11.7l1.2-11.4a110.8 110.8 0 0 0-1.4-22.7zm-68.6-217.1c1 1.6 1.5 3.6 1.8 5.5.2 2 .1 3.9-.2 5.9-.3 1.9-.9 3.8-1.5 5.7l-2.2 5.3c-1.5 3.5-3.1 6.8-4 10.3-.9 3.5-1.3 7.2-.4 10.9-1-1.6-1.7-3.5-1.9-5.5-.3-2-.2-4 .1-5.9.6-3.9 2.1-7.6 3.6-11l2.3-5.1 1.9-5.1c.8-3.6 1.3-7.3.5-11zm69.1-11.5c.5 1.7.5 3.5.2 5.2-.3 1.7-.8 3.4-1.6 5a16 16 0 0 1-3 4.2 11.7 11.7 0 0 1-4.3 2.9l2.4-4.3 2.2-4.2 2-4.3 2.1-4.5zm1.5 18c.1 2-.3 3.9-.9 5.7a24.9 24.9 0 0 1-6.2 9.6c-1.4 1.3-3 2.4-4.8 3.2l3-4.7 3-4.5 2.9-4.6 3-4.7zm-3 19.3c.1 1.2-.2 2.3-.7 3.3a9.8 9.8 0 0 1-4.4 4.7c-1 .5-2 .8-3.2.8.5-1.1 1.1-1.9 1.7-2.7a20 20 0 0 1 1.9-2.2c.7-.7 1.3-1.4 2.1-2 .8-.7 1.6-1.3 2.6-1.9zm-2.8 14.1c-.6 1.9-1.3 3.6-2 5.3l-2 5.1-2 5.1c-.7 1.7-1.3 3.4-2.2 5.2-.4-1.9-.4-3.9-.1-5.8.3-1.9.8-3.8 1.5-5.6.7-1.8 1.6-3.5 2.8-5.1a16 16 0 0 1 4-4.2zm4.5 17.9-1.6 6-1.4 5.9-1.5 5.9c-.5 2-1.1 4-2 6-.4-2.1-.5-4.2-.4-6.3a32 32 0 0 1 3-12.2c1.1-2.1 2.2-3.9 3.9-5.3zm-2.2 55.2c1.3.1 2.5.6 3.6 1.3a9.6 9.6 0 0 1 4 6.2 7 7 0 0 1-.3 3.8l-1.9-3-1.7-2.7-1.8-2.7-1.9-2.9zm12.1 11.9c1.9.7 3.6 2 5 3.6 1.3 1.6 2.3 3.5 3 5.4a24 24 0 0 1 1.2 11.9 42 42 0 0 1-2.2-5.5l-1.8-5.4a38.9 38.9 0 0 0-5.2-10zm-19 45.8c1.9.7 3.5 2 4.9 3.6a16 16 0 0 1 3.6 11.5c-.2 2-.8 4.1-1.9 5.7l-.4-5.7a43.7 43.7 0 0 0-3.2-10.2 93 93 0 0 0-3-4.9zm-76.3-19.1a16.3 16.3 0 0 1-3.7-9.3c-.3-3.5.3-6.9 1.2-10.1.8-3.2 1.9-6.3 2.6-9.3.4-1.5.6-3.1.8-4.7.1-1.6 0-3.2-.2-4.8.8 1.4 1.4 3.1 1.7 4.8.2 1.7.3 3.4.1 5.1-.3 3.4-1.2 6.6-2 9.7l-1.1 4.6c-.3 1.5-.5 3.1-.6 4.6-.3 3.1.1 6.3 1.2 9.4zm38-63c.6 1.1.7 2.6.4 3.9a12 12 0 0 1-1.5 3.7c-1.3 2.3-2.9 4.2-4 6.2a29 29 0 0 0-2.8 6.5c-.8 2.3-1.3 4.7-2.1 7.2a22 22 0 0 1 2.3-15.2c1.4-2.4 3.2-4.2 4.7-6 1.5-1.8 2.9-3.6 3-6.3zm-4.1 75.7-1.8 4-1.7 3.7-1.6 3.8-1.7 4a10 10 0 0 1-.6-4.5 13.6 13.6 0 0 1 3.6-8.2 8.6 8.6 0 0 1 3.8-2.8zm-11.9 49.7c-.1-2-.4-3.8-.7-5.7-.2-1.9-.4-3.8-.2-5.9.2-2.1 1.1-4.2 2.4-5.8.7-.8 1.6-1.5 2.6-2 1-.4 2.1-.6 3.1-.3a7.2 7.2 0 0 0-3.7 3.6 14 14 0 0 0-1.4 4.8l-.4 5.5c-.3 2.1-.7 4.1-1.7 5.8zm9-165.1c-2.7 2.1-5.5 4.1-7.7 6.4a19 19 0 0 0-4.6 8.1c-1 3.2-2 6.4-3.2 9.6-1.2 3.2-2.4 6.4-3.9 9.4a119.5 119.5 0 0 1 4.2-20 18 18 0 0 1 2.2-4.9c1-1.6 2.3-2.9 3.7-4 2.8-2.2 6-3.6 9.3-4.6zm-67 87a20 20 0 0 1 4.3-7c1.8-2 3.7-3.7 5.5-5.5 1.8-1.8 3.5-3.6 4.9-5.7 1.4-2.1 2.3-4.5 2.8-7a19 19 0 0 1-2.1 7.4 35.2 35.2 0 0 1-4.5 6.4c-1.7 2-3.4 3.9-4.9 5.9-1.5 2-2.6 4.1-3.1 6.4l-2.9-.9zm4.5 46a82.4 82.4 0 0 1 5.9-19.2l3.8-9.1c1.2-3.1 2.2-6.2 2.7-9.5-.3 3.3-1.1 6.6-2 9.7l-3.1 9.4c-1 3.1-2 6.3-2.8 9.4-.8 3.2-1.3 6.4-1.6 9.6l-2.9-.3z"/>
      </g>
      <g>
        <g>
          <path class="secondary" d="M302.2 109.7c-21.3 6.4-21.6 12.8-26.8 14.9-1.6.7-8.5 1.5-8.6 3.2-.3 7.8 8.5 7.2 14.8 11.7 3.1 2.2 9 8.2 11.5 6.6 3.2-2.1 1.6-8.6 4.8-10.7 5.2-3.3 8.4-5.9 13.2-7.5 22.9-7.9 38.7-2.3 55.6-.5 33.9 3.5 35-1.8 56.6 2.4 2.3.4 19.5 6.5 31 8.2 4.3.7 23.7 1 37 3.9 23.1 4.6 52.8 11.9 83.5-7.4 15.2-10.1 17.2-26.7 27.1-33.3 4.9-3.3 11.1-5 20.6-3.8 1.9.2-1.2-6.8-12.2-8.2a35 35 0 0 0-21.1 4.4c-12.6 7.5-15.2 23.2-33.1 29.6a70 70 0 0 1-44.1.7c-5-1.7-4.5-10-2-15.2 5.3-11.1 19.9-8.3 28.3-25 2.9-5.9 3.1-13.1 1.6-16.1-.7-2.7-2.1-3.1-3.5-.8-9.5 24.3-37.1 17.4-44.9 32.7-4.6 9.2-2 5.1-5.3 11.6-5.7 11.4-42.1 5.7-50.9-.6-5.1-3.7-5.4-11.7-1.4-15 10.7-9.2 18.5-5.6 33.2-18.1a30 30 0 0 0 9.7-23.6c-.1-3-2.4-2.6-3.7-.8-1.3 1.8-4.1 16.5-26.6 19.3-9.7 1.2-20 3.4-28.4 10.9-12.8 11.4-6.1 13.1-16.5 22.7-3.7 3-7.5 0-15.5-1.2-7-1.1-40.5 2.6-40.4-4.1 0-11.3 9.8-17 20-19.1 12.1-2.5 19.5-4.1 28.1-12a29.5 29.5 0 0 0 9.4-14.5c.7-3.1-1.1-2.9-2.4-2.1-.9.6-5.7 6.3-14.5 9.3-9.8 3.3-17.6 3.8-30.8 5.6-20.1 2.8-31 13.6-34.1 23.3-2.7 8.5-1.8 14.4-8.7 16.2-5 .8-2.8.8-10.5 2.4z"/>
        </g>
        <g stroke="none" fill="#000">
          <path d="M488.2 110.5c-1.1 2-2.1 4-3.3 5.9a30.7 30.7 0 0 1-4.1 5.4c1.2-1.9 2-4 2.7-6l1.9-6.4 2.8 1.1zm-96.2 8.8c-2.6.3-5.3.5-7.9.5h-3.9c-1.3 0-2.7 0-4.3-.7-.8-.3-1.4-.9-1.9-1.2a3 3 0 0 0-.7-.5l-.6-.3c-.9-.4-2.1-.3-3.3-.2-1.2.1-2.6.4-3.9.4-1.4 0-2.9-.3-3.9-1.3 1.3.5 2.5.4 3.7 0l3.7-1.1c1.3-.4 2.8-.5 4.4-.1l1.1.5.9.6c.5.4.9.7 1.4.9.9.4 2.1.5 3.4.6l3.9.5c2.8.3 5.3.7 7.9 1.4zm-53.6-.2-3.1.9-3 .6-3 .4c-1 .1-2.1.2-3.3.1.8-.9 1.7-1.5 2.7-2 1-.5 2.1-.8 3.2-1 1.1-.2 2.2-.2 3.3 0 1.1.1 2.2.4 3.2 1zm91.8-6.1c.8 1 1.7 1.3 2.7 1.8l3.1 1.3 3 1.8c.9.7 1.8 1.5 2.6 2.4-1.3-.1-2.4-.3-3.5-.7l-3.2-1.3c-1-.5-2-1.1-3-1.9-.5-.4-.9-.9-1.3-1.5-.4-.5-.6-1.2-.4-1.9zm-105.9-10.8c.2 1.1 0 2.1-.4 3.1s-1.1 1.8-1.8 2.5c-.8.7-1.7 1.2-2.7 1.5-1 .3-2.1.4-3.1.1l2.2-1.8 2-1.7 1.9-1.8 1.9-1.9zm-5.2 17.6c-.7.8-1.4 1.5-2.5 2-.5.2-1.2.4-1.8.3-.7 0-1.2-.2-1.6-.3h-.9l-1 .4-1.3.8-1.3.7c-1.7.9-3.5 1.8-5.5 2.4-1 .3-2 .5-3.1.6-1.1.1-2.2 0-3.1-.4 2-.4 3.6-1.4 5.2-2.4 1.7-1 3.3-2 5.1-2.9l1.4-.6 1.4-.6 1.8-.5c.7-.1 1.5.1 2 .3l1.2.6 1.1.2 2.9-.6zm173.2 10.3c1.8-1.1 3.9-1.6 6-1.7 2.1-.1 4.2.2 6.3.8 2 .6 3.9 1.4 5.8 2.3 1.8 1 3.5 2.1 5.1 3.4-2-.4-4-1-5.9-1.6l-5.7-1.7c-1.9-.5-3.8-1-5.7-1.2-1.9-.3-3.9-.4-5.9-.3zm-198.6 1-.4 1.6-.6 1.3-.8 1.2c-.3.4-.7.8-1.2 1.1-.3-.6-.3-1.2-.2-1.7l.5-1.6c.3-.5.6-.9 1.1-1.2.4-.4.9-.6 1.6-.7zm-5.3-5.6c-.5.7-1.1 1.1-1.8 1.5-.7.4-1.4.6-2.1.8-.7.1-1.5.2-2.3.1-.8-.1-1.5-.3-2.2-.8.7-.4 1.4-.6 2.1-.8l2-.5 2-.3h2.3zm-.2 4.4c0 .7-.2 1.2-.3 1.7l-.7 1.4-1 1.2c-.4.4-.9.7-1.5 1-.1-.7 0-1.3.1-1.8l.7-1.5 1.1-1.2c.4-.3.9-.6 1.6-.8z"/>
        </g>
      </g>
      <g>
        <g>
          <path class="secondary" d="M570 205.9a92.5 92.5 0 0 1-46.4 2.8c-5.1 1.3-5.4 7.5-3.5 12.9 4.2 11.6 19 10.1 25.8 27.6 2.4 6.1 1.9 13.3.1 16.2-.9 2.6-2.4 2.9-3.6.4-7.1-25.1-35.3-20.8-41.5-36.9-3.7-9.6-1.6-5.3-4.2-12.1-4.6-11.9-41.2-12.5-51.1-8.2-5.8 2.5-5.3 8.7-2.2 12.8 8.5 11.3 16.7 10.4 28.3 25.8a30.4 30.4 0 0 1 4.4 25.1c-.7 2.9-2.9 2.1-3.7 0-.8-2.1-.4-17-21.8-24.5a50.2 50.2 0 0 1-25.4-16.7c-10-13.9-3.8-15-11.9-26.6-2.3-2.5-.6-.9-11.3-2.3-7-.9-42.2-11.2-43.6-4.6-2.4 11.1 5.7 19.7 15.2 24 11.3 5 18.2 8.2 24.8 17.8 5 7.2 6 13 6 16.1 0 3.1-1.7 2.6-2.7 1.5-.7-.8-4.2-7.4-12.2-12.2-8.8-5.4-16.3-7.5-28.9-12.1-19.1-7-27.3-20-28.3-30.1-.8-8.9-.1-19.2-9.5-27.5-8.9-8.6-13.6-8.7-22.4-8.7-3.8 0-4.7 4.8-8.5 4.9-3 0-4.8-8.2-6.3-11.7-3-7.1-10.8-11.3-6.3-17.7 1-1.4 7.3 1.5 9 1.8 5.5.9 16-1.9 37 6.6 29.4 13.5 24.2 20.3 54.1 26.6 35.2 6.6 50.7 4.4 72.7 5 2.3.1 4.9 1.8 16.5 1.1 4.4-.2 23.7 4.7 37.2 4.7 18.8.8 32.4 6.5 48.1 4.2 18.8-2.7 25.4-12.5 39.3-17.3a36 36 0 0 1 18.6-2.2c11 1.7 13.9 8.7 12 8.5-9.4-1.4-15.3.4-20.8 2.6-10.9 4.5-16.1 15.4-33 22.4z"/>
        </g>
        <g stroke="none" fill="#000">
          <path d="m495.8 218.5-1.3-6.5c-.5-2.1-1.2-4.3-2.2-6.3 1.4 1.7 2.5 3.7 3.6 5.7l2.8 6.2-2.9.9zm-88.3-28.3c-2.7.1-5.3 0-7.9-.2l-3.9-.4c-1.3-.2-2.5-.3-3.5-.2l-1.5.6-1 .4-1.2.2c-1.7.1-3.1-.4-4.3-1.1l-3.4-1.9a6.4 6.4 0 0 0-3.6-.8c1.2-.7 2.7-.7 4-.4 1.3.3 2.6.8 3.8 1.2 1.2.4 2.3.7 3.3.5l.7-.2.8-.3c.5-.3 1.3-.7 2.1-.8a10 10 0 0 1 4.3.3l3.8.8c2.5.7 5 1.4 7.5 2.3zm-52.8-18.5c-1.2.2-2.3.1-3.4-.2a12 12 0 0 1-5.7-3.4 7.1 7.1 0 0 1-1.8-2.9c1.1.4 2.1.8 3 1.3l2.7 1.5 2.6 1.6c.8.6 1.7 1.2 2.6 2.1zm86.5 33.4c0-.6.3-1.3.8-1.8.4-.5 1-.9 1.6-1.2a20.2 20.2 0 0 1 10.4-1.7c-1 .8-2 1.3-3.1 1.8s-2.2.8-3.3 1.1a21 21 0 0 1-3.3.6c-1.2.3-2.1.4-3.1 1.2zm-101.7-12.2-.9-2.7-.9-2.4-1-2.4-1.2-2.6c1.1.2 2 .8 2.7 1.5.8.7 1.3 1.6 1.7 2.6.4 1 .6 2 .5 3.1.1 1-.2 2.1-.9 2.9zm165.1 5.7a30.6 30.6 0 0 0 11.8-.4l5.8-1.2c2-.4 3.9-.8 6-1a28.1 28.1 0 0 1-11.4 4.7 19 19 0 0 1-6.3.2c-2.1-.4-4.2-1.1-5.9-2.3zm-204.2-39.7-1.2 1.2-1.2.8-1.3.6c-.5.1-1 .3-1.6.3.1-.7.4-1.2.7-1.6.4-.4.8-.8 1.3-1 .5-.3 1-.4 1.6-.5.5-.1 1.1-.1 1.7.2zm-1.5-7.5c-.8.3-1.5.4-2.3.3-.8 0-1.5-.2-2.2-.5l-1.9-1.1a4.9 4.9 0 0 1-1.4-1.8 14.2 14.2 0 0 1 4.1 1.2l1.9.8c.6.2 1.2.5 1.8 1.1zm-2.5 3.6c-.4.6-.8.9-1.2 1.3l-1.3.8-1.5.5h-1.8c.2-.6.6-1.1 1.1-1.5.4-.4.9-.7 1.4-.9.5-.2 1-.4 1.6-.4.5 0 1.1 0 1.7.2z"/>
        </g>
      </g>
      <g stroke="none" fill="#000">
        <path d="M516.4 412.1c1.9 3.3 3 7.1 3.5 10.9.5 3.8.5 7.7.3 11.5l-.5 5.7-.4 5.7-.3 11.4c0 3.8.2 7.6.4 11.4a139.4 139.4 0 0 0 6.3 33.3l-2.8.9c-1.1-3.7-2.2-7.4-3-11.2l-1.1-5.7-.8-5.7c-.5-3.8-.7-7.7-.9-11.5-.1-3.8-.2-7.7-.1-11.5s.3-7.7.6-11.5.9-7.7 1.3-11.4a41.4 41.4 0 0 0-2.5-22.3zm104.9 2.9a103 103 0 0 0-3.8-14.5 62.2 62.2 0 0 0-6.9-13.3c3.3 3.9 6.1 8.1 8.3 12.7 2.2 4.6 3.8 9.5 5.3 14.4l-2.9.7zm-10.2 291.9c-.7 2.8-1.9 5.5-3.3 8.1a58 58 0 0 1-5 7.2c-1.8 2.3-3.7 4.4-5.3 6.7a64.6 64.6 0 0 0-4.4 7.1l-2.7-1.4c1.4-2.6 3.1-5.1 4.9-7.4 1.9-2.3 3.9-4.4 5.8-6.4a69 69 0 0 0 10-13.9zm-344.7 0c-.7 2.8-1.9 5.5-3.3 8.1a58 58 0 0 1-5 7.2c-1.8 2.3-3.7 4.4-5.3 6.7a64.6 64.6 0 0 0-4.4 7.1l-2.7-1.4c1.4-2.6 3.1-5.1 4.9-7.4 1.9-2.3 3.9-4.4 5.8-6.4 2-2.1 3.8-4.2 5.4-6.6 1.7-2.3 3.1-4.8 4.6-7.3zm57-236.7c-.3-1.3-.3-2.7-.2-4a18.3 18.3 0 0 1 2.7-7.5c.7-1.1 1.6-2.1 2.7-3l-1.3 3.7-1.3 3.6-1.3 3.6-1.3 3.6zm-93.1-54.7c.6.4 1.2.8 1.7 1.5.4.6.8 1.4 1 2.1.4 1.5.4 3.1.4 4.5l-.4 4.3-.1 4c.2 2.7.7 5.3 1.7 7.9.9 2.6 2.3 5 3.9 7.4a17.4 17.4 0 0 1-6.1-6.5 20 20 0 0 1-2.3-13.3l.9-4.2c.3-1.4.6-2.7.5-4 0-1.1-.3-2.5-1.2-3.7zm-.6 66.4a48.5 48.5 0 0 1-6.6-32.4c-.4 5.5.4 11 2 16.3a46.1 46.1 0 0 0 7.1 14.4l-2.5 1.7zm3.1-172.8c.5 3.4-.3 7-1.3 10.3-1 3.3-2.4 6.4-3.5 9.5a43.7 43.7 0 0 0-2.2 19.5 25 25 0 0 1-2.4-10.1c-.1-3.5.5-7.1 1.7-10.4 1.2-3.3 2.7-6.3 4.2-9.3 1.5-3.1 2.8-6.1 3.5-9.5zm129 187.2c2-1.1 4-2 6-2.9l5.8-2.8 5.7-3 5.9-3.1a22.2 22.2 0 0 1-4.6 5.1 29.2 29.2 0 0 1-18.8 6.7zm35.8-2.3c1-1 2.1-1.7 3.1-2.4l3-2.1 3-2c1-.7 2.1-1.4 3.3-2a9.6 9.6 0 0 1-1.7 3.7 12.8 12.8 0 0 1-6.5 4.5c-1.4.4-2.8.6-4.2.3zm26.5-4.5 3.3-1.5 3.1-1.2 3.1-1.1 3.5-1a7.6 7.6 0 0 1-2.3 3 15 15 0 0 1-3.2 1.9c-1.2.4-2.4.7-3.7.7-1.3 0-2.6-.2-3.8-.8zm216.2 86 1.2 3 1.1 2.7 1.2 2.7 1.4 3a6.3 6.3 0 0 1-3.2-1.5 8.4 8.4 0 0 1-2.8-6.4c.1-1.3.4-2.5 1.1-3.5zm-353.1-6.8c1.1.7 2 1.7 2.7 2.7a12 12 0 0 1 1.4 7.3 7.6 7.6 0 0 1-1.4 3.5l-.9-3.5-.7-3.2-.6-3.2-.5-3.6zm-1.3 107.2c.6.6 1 1.2 1.3 1.7l.7 1.4.4 1.6.2 2.1c-.9 0-1.6-.4-2.2-.8-.6-.5-1-1.1-1.2-1.8-.3-.7-.3-1.4-.2-2.1.1-.8.4-1.5 1-2.1zm348.3 2.7c.4.8.6 1.5.7 2.2l.1 2c0 .6-.2 1.3-.4 1.9a8 8 0 0 1-1 2.1 4 4 0 0 1-1.3-2c-.2-.7-.3-1.5-.3-2.2.1-.7.2-1.5.6-2.1.4-.8.8-1.4 1.6-1.9zm-33.8-263c.9-.2 1.8-.1 2.6.3a5 5 0 0 1 2 1.5c.5.7.9 1.4 1.1 2.3.2.8.2 1.7-.3 2.6l-1.8-1.5-1.3-1.5-1.2-1.6c-.4-.6-.8-1.2-1.1-2.1zm2.7 16.9c1 .7 1.7 1.6 2.2 2.6.6.9 1 2 1.3 3a11.3 11.3 0 0 1 0 6.6c-.8-.9-1.3-1.9-1.8-2.8a17.2 17.2 0 0 1-1.7-6c-.1-1.1-.2-2.2 0-3.4zm2.1 23.7c.8.7 1.2 1.3 1.7 2l1 2.1a11.3 11.3 0 0 1 .5 4.8c-.9-.4-1.6-1-2.1-1.7s-.9-1.4-1.2-2.2c-.3-.8-.4-1.6-.4-2.5a4 4 0 0 1 .5-2.5zm-301.9 32.1c.7.4 1 .8 1.3 1.3l.3 1.4c0 .5-.2 1-.5 1.4-.3.4-.8.8-1.5 1-.5-.6-.7-1.1-.8-1.5-.1-.4-.2-.8-.1-1.2 0-.4.2-.7.4-1.1.1-.4.4-.8.9-1.3zm-4.5 17.7c.3.9.2 1.6.1 2.3a6 6 0 0 1-1.8 3.5c-.5.5-1.1.9-2 1.2-.3-.9-.2-1.6-.1-2.3a6 6 0 0 1 1.8-3.5c.5-.4 1.1-.8 2-1.2zm-10.6 2.1c.2.9-.2 1.7-.7 2.4a4 4 0 0 1-2 1.4c-.8.3-1.7.3-2.5.1a3 3 0 0 1-2-1.5l2-.8 1.5-.6 1.6-.4 2.1-.6zM630 401.2c1.8 2.2 3.6 4.3 5.5 6.1 2 1.9 4.1 3.5 6.4 4.9 2.2 1.4 4.7 2.6 7.1 4.1a15 15 0 0 1 6 6 28 28 0 0 0-7-4.3c-2.5-1.1-5.1-2.2-7.5-3.7a26.7 26.7 0 0 1-6.4-5.7 23.4 23.4 0 0 1-4.1-7.4zm8.8 19.2a98.9 98.9 0 0 1 9.5 9.2c2.9 3.4 5.2 6.9 9.1 9.2a11 11 0 0 1-6.2-2.8 30.4 30.4 0 0 1-4.7-4.8 104.1 104.1 0 0 1-7.7-10.8zm13.5 25c1.2.3 2.2.7 3.2 1.1l3 .9 3 .8 3.3.9c-1 .7-2.2 1-3.4 1.1a11 11 0 0 1-3.6-.4 8.8 8.8 0 0 1-5.5-4.4z"/>
      </g>
    </g>
    <g>
      <path stroke-width="1" d="M280.7 157.6c16.2 0 26 6.2 35.5 10.2a69.2 69.2 0 0 0 45.6 3c2.3 8-3.5 15.4-10.1 20.5a57.9 57.9 0 0 1-29.3 10.6c-10.1.9-19.1.3-29-1.9"/>
      <g stroke="none" fill="#000">
        <path d="M336.9 200.4a69.1 69.1 0 0 1-14.5 3 92 92 0 0 1-29.5-2l.7-2.9a89.1 89.1 0 0 0 28.6 1.9c10.8-1 21.2-4.8 28.5-10.3 4.3-3.3 11.1-9.8 9.9-17.4a70.6 70.6 0 0 1-45-3.5l-5.4-2.4a65.6 65.6 0 0 0-29.5-7.7v-3c13.5 0 22.7 4.2 30.8 7.9l5.3 2.4c14.4 6 30.2 7.1 44.6 2.9.8-.2 1.6.2 1.9 1 2.9 10-5.4 18.1-10.6 22.1a53.4 53.4 0 0 1-15.8 8z"/>
        <path d="M274.9 177.6a34.4 34.4 0 0 1 19.3-5 109.2 109.2 0 0 1 19.8 3.3l9.6 2.3c3.2.7 6.4 1.3 9.7 1.7 3.2.4 6.5.5 9.8.3 3.2-.2 6.5-.8 9.5-2.3a22.2 22.2 0 0 1-9.4 3.4 66.7 66.7 0 0 1-20.1-.9l-4.9-1-4.9-1.1c-3.2-.7-6.4-1.6-9.6-2.2-3.2-.6-6.5-1.1-9.7-1.4-1.6-.2-3.2-.2-4.8-.2l-4.8.4c-3.2.6-6.4 1.4-9.5 2.7z"/>
        <path d="M309.2 189.5c.9-.7 1.8-1.5 2.6-2.4.7-.9 1.4-1.8 1.9-2.9.5-1 1-2.1 1.3-3.1.4-1.1.6-2.2.8-3.2l2.4.5c-.4 1.3-.9 2.4-1.5 3.5l-2 3.1c-.7 1-1.6 1.8-2.5 2.6-.9.8-2 1.4-3 1.9zm-7.6-14.5a15 15 0 0 1-1.4 4.7c-.7 1.4-1.6 2.7-2.5 4a25 25 0 0 1-3.2 3.3c-1.1 1-2.3 2-3.6 2.8a31 31 0 0 0 3.1-3.2c1-1.1 1.8-2.4 2.6-3.6a14.5 14.5 0 0 0 2.4-8h2.6zm-8.5 26.5a77.9 77.9 0 0 1-18.3-7.7 26.6 26.6 0 0 0-5.9-2.8c2.2.3 4.2 1.3 6.2 2.1a64.4 64.4 0 0 0 18.6 5.5l-.6 2.9zm-12.4-42.4-4.3-.2a20.9 20.9 0 0 0-12.3 3.8c1-1.1 2.2-2.1 3.5-2.9a22.2 22.2 0 0 1 8.6-3.2c1.5-.3 3-.4 4.6-.6l-.1 3.1zm-70 32.7a25 25 0 0 0-1.5 9.1c.1 1.5.2 3.1.5 4.5.3 1.5.7 2.9 1.4 4.1l-2.7 1.3a20.9 20.9 0 0 1-1.3-10c.2-1.6.5-3.3 1-4.9a11 11 0 0 1 2.6-4.1zm-36.1-3.6c.4-.4 1.1-.4 1.6-.1.5.3.9.7 1.2 1.2.6.9.7 2 .7 2.8 0 .8 0 1.7-.2 2.5s-.5 1.7-1 2.5c-.7-.8-1-1.6-1.3-2.4a10 10 0 0 1-.5-2.5v-3.1c.1-.3 0-.6-.5-.9zm-33.9-14.3a6 6 0 0 1 4.7-.9c1.6.3 3.1 1 4.4 2.4.3.3.7.8.8 1.3l.4 1.4c.2.9.1 1.8-.1 2.5-.3 1.6-.8 2.8-1.2 4.3-.8-1.4-.9-3.1-1.1-4.4-.1-1.4-.5-2.4-1.1-3a10 10 0 0 0-3-2.1 8 8 0 0 0-3.8-1.5zm4.2 5.3c.2 1-.4 2-1 2.6-.6.7-1.4 1.2-2.2 1.5-.8.3-1.7.5-2.6.4-.9-.1-1.8-.3-2.6-1 .8-.6 1.5-.9 2.2-1.3l2-.9 2-.7c.6-.1 1.3-.2 2.2-.6zm87.2-24.9c-.9-1-1.7-2.1-2.7-2.8-1-.7-2-1.1-3.2-1.3-2.3-.5-4.9-.6-7.5-.7l-2-.2-2.1-.3c-1.4-.2-2.7-.5-4.1-1.1-.7-.3-1.3-.7-1.9-1.2a4 4 0 0 1-1.2-2.1 4 4 0 0 1 .1-2.2l.7-1.9c-.2 1.3-.3 2.7.2 3.7s1.5 1.5 2.6 1.8c1.2.3 2.4.4 3.7.5h1.9l2-.1c2.7 0 5.4.1 8.2 1.2 1.4.5 2.7 1.4 3.6 2.6a9 9 0 0 1 1.7 4.1zm7.4 9.1c-1.9.3-3.9.3-5.9 0a11 11 0 0 1-5.9-2.5l2.2-2c.4.6 1 1.2 1.7 1.8.7.5 1.5.9 2.4 1.3 1.7.7 3.6 1.2 5.5 1.4z"/>
      </g>
    </g>
    <path fill="#F6F6F6" d="M217.8 149c2.9 0 9.4 8.6 11 10.9.4.6-6.1 3.7-8.1 4.1-4.8 1-8.2.1-9.7-1.4a8.7 8.7 0 0 1-2.8-6.4c0-2.9 7.2-7.2 9.6-7.2z"/>
    <path stroke-width="1" fill="#000" d="M217.5 149.4c-.8.3-.7.6-1.5.6h-.9l-1.1.6-.4.3-.7.7c-.8.9-2.2.9-2.6 2.2.4 2.9 2.4 6.7 5.3 7.5.9.3 1.7-.5 1.6-1.4-.7-3.2-1-8 .3-10.5z"/>
    <g>
      <path stroke="none" fill="#000" d="M198.5 159.8c1.9-1.7 4.3-2.7 6.2-3.8a14 14 0 0 0 2.7-2.1l2.6-2.4 2 2.2a23.7 23.7 0 0 1-13.5 6.1z"/>
    </g>
  </g>
</svg>
