<svg xmlns="http://www.w3.org/2000/svg" fill="#d7374a" stroke="#000" viewBox="50 50 200 200">
  <metadata source="http://wappenwiki.org/images/f/fe/Giffard_Chillington.svg" license="https://creativecommons.org/licenses/by-nc-sa/3.0"/>
  <g id="stirrup" stroke-width="3" transform="translate(62 47.5) scale(0.176)">
    <g>
      <path d="M244.6 292.8c15.7-28.4 38.8-66 38.8-125.1 0-32.1-4.9-58.5-16.3-78-7.3-12.6-14.4-18.5-23.9-16.9-9.6 1.6-38.7 0-38.7 0 18.2 4 43.2 20.9 43.2 94.9 0 45.5-18.6 81.5-33.6 109.8"/>
      <g stroke="none">
        <g>
          <path d="M247.5 269.2c2.6-5.9 5.6-11.1 8.7-19.3"/>
          <path fill="#000" d="M247.5 269.2a42.5 42.5 0 0 1 3.6-10 52.1 52.1 0 0 1 5.1-9.3 42 42 0 0 1-3.3 10.1l-2.5 4.7a43 43 0 0 1-2.9 4.5z"/>
        </g>
        <g>
          <path d="M274.9 154.1c-.6-7.4-1.6-14.4-2.9-21"/>
          <path fill="#000" d="M274.9 154.1c-.5-1.7-.9-3.5-1.2-5.2l-.9-5.2-.6-5.2c-.2-1.8-.3-3.5-.2-5.3a47.6 47.6 0 0 1 2.7 10.3c.2 1.8.4 3.5.4 5.3.1 1.7.1 3.5-.2 5.3z"/>
        </g>
        <g>
          <path d="M274.7 184.5c.4-5.7.7-11.5.7-17.3"/>
          <path fill="#000" d="M274.7 184.5a33 33 0 0 1-.5-8.7l.3-4.3c.2-1.4.4-2.9.8-4.3.4 1.4.6 2.9.7 4.4.1 1.5.2 2.9.1 4.4l-.4 4.3c-.2 1.3-.5 2.8-1 4.2z"/>
        </g>
        <g>
          <path d="M259.9 245.3c4.5-14.2 10.7-30.4 13.4-47.5"/>
          <path fill="#000" d="M259.9 245.3c.9-4.1 2-8 3.1-12l3.6-11.8 3.5-11.8 3.2-11.9a117.2 117.2 0 0 1-4.8 24.3c-1.2 3.9-2.5 7.9-4 11.7-1.4 3.9-3 7.7-4.6 11.5z"/>
        </g>
        <g>
          <path d="M265.8 111c-2.6-7.5-5.6-14.5-8.7-21.3"/>
          <path fill="#000" d="M265.8 111a62.8 62.8 0 0 1-5-10.3l-2-5.4c-.6-1.8-1.2-3.6-1.6-5.6 1.2 1.6 2.2 3.2 3.1 4.9a83.2 83.2 0 0 1 4.4 10.6c.4 2 .9 3.9 1.1 5.8z"/>
        </g>
      </g>
    </g>
    <g class="secondary">
      <path d="M258.4 311.6c-2.3-6-1.8-13.5-.1-17.7.8-2 2-3.8 2.8-5.7.8-2 1.2-4.2.4-6.2-1.2-2.8-4.3-4.4-7.3-5-9.1-1.8-21-1.8-36.6-1.8-15.6 0-27.5 0-36.6 1.8-3 .6-6.1 2.2-7.3 5-.8 2-.4 4.2.4 6.2s2 3.8 2.8 5.7a26.5 26.5 0 0 1-.2 17.8c-48.4 34.3-65.9 130.8-65.9 213.8h171.5c8.5 0 40.1-30.9 40.1-39.3 0-72.4-21.6-145.7-64-174.6zM195 284.2l1.7-.6c1.7 3.4 3.9 8.8 6.6 9.7 3.2 1 5.2.9 14.3.9s11.1.1 14.3-.9c2.7-.8 4.9-6.3 6.6-9.7l1.7.6c3.4 1.4 8.9 5.7 8.9 9.6 0 4.2-2.2 8-6.7 9.4a71.7 71.7 0 0 0-49.7-.1 9.4 9.4 0 0 1-6.5-9.3c0-3.9 5.4-8.2 8.8-9.6zm-45.6 204.2c0-78.7 17.2-173.2 67.8-173.2 50.6 0 67.8 94.5 67.8 173.2H149.4z"/>
      <g stroke="none" fill="#000">
        <path d="M217.3 306.1a45 45 0 0 1 27.4 9.1c8 5.6 14.3 13.1 19.6 21.1 5.2 8 9.4 16.7 12.9 25.6 3.5 8.9 6.4 18 8.7 27.2a345.5 345.5 0 0 1 9.9 84.8c-.1 9.5-.3 18.9-.6 28.4h-.3l-.4-14.2-.3-14.2c-.2-9.5-.8-18.9-1.5-28.3a340.3 340.3 0 0 0-9.3-55.8 227 227 0 0 0-8.8-26.8c-3.5-8.7-7.7-17.2-12.8-25a74.4 74.4 0 0 0-18.8-20.3 48.7 48.7 0 0 0-18.8-7.9c-2.3-.3-4.5-.5-6.8-.5v-3.2z"/>
      </g>
      <path fill="none" d="M285.1 488.4v16.9c0 5.8-1.2 10.5-6.8 10.5H120.7c0-103.1 34.7-208.2 96.6-208.2"/>
      <g stroke="none" fill="#000">
        <polygon points="150.5,489.5 127.5,510.8 148.3,487.4"/>
      </g>
    </g>
    <path d="m233.5 277.6 4.7 7.9c1.1 1.9 6.4 7.3 6.4 7.3-.6 1.3-1.4 1.3-2.7 1.3h-24.6c-7.9 0-11.3 0-14.1-.9-2.3-.7-4.1-4.8-5.6-7.7-15.2-29.9-33.3-66.1-33.3-117.8 0-36.6 4.1-53 16.3-78 10.4-21.4 33.6-18.9 43.2-17.3 9.6 1.6 19.4.4 19.4.4-18.2 4-43.2 20.9-43.2 94.9-.1 45.5 18.6 81.5 33.5 109.9z"/>
    <path d="M199.9 177.6c0 30.9-10.7 50-19.8 61.7-5.9 7.6-15.4 10.4-23.9 5.8-10.5-5.6-8.9-20.6-2.8-31.5 7.7-13.8 10.9-22.3 10.9-36"/>
    <circle cx="178.6" cy="196.7" r="4"/>
    <path class="secondary" d="M201.3 173.8h-37.6l.8-31.8h37.6l-.8 31.8zm7.8-38.8h-51.4l-1.1 45.6H208l1.1-45.6z"/>
    <circle cx="191.3" cy="109.4" r="4"/>
    <circle cx="201.7" cy="86.5" r="4"/>
    <path class="secondary" d="M187.4 158.5a4 4 0 0 1-3.6 4.3 4 4 0 0 1-4.3-3.6c-.2-2.2 4.5-33.4 6.7-33.6s1 30.7 1.2 32.9z"/>
  </g>
</svg>
