<svg xmlns="http://www.w3.org/2000/svg" fill="#d7374a" stroke="#000" viewBox="50 50 200 200">
  <metadata source="http://wappenwiki.org/images/3/34/Podolia.svg" license="https://creativecommons.org/licenses/by-nc-sa/3.0"/>
  <g id="sunInSplendour2" stroke-width="2.7193" transform="translate(75 58.7) scale(0.11)">
    <path stroke-width="2.9119" stroke-linejoin="round" d="M460.8 439.9c-37.9 1.6-57.2 12.1-79.5-2.2 35.5-.3 59.7-19.2 78.9-50.9 13-21.5 27.7-46.1 53.2-52.1 25.1-5.9 41.2 1 54.9 12.9 0-6.9-5.4-21.6-14.9-29.4a77 77 0 0 0-91.7-5.8c-31.1 19.9-42.7 38.2-67.7 38.1 29.4-18.1 44.6-48.4 45.5-84.6.6-25.1 5.5-56.2 24.6-74.1a72.8 72.8 0 0 1 61-20 43 43 0 0 0-28.3-15.4c-34.8-5.8-69.3 11.8-90.8 44.1-19.4 29-24.2 56.5-46.8 69.5 16.7-30.4 14.9-64.5-2.5-96.4-12-22.1-23.3-51.5-15.5-76.5a73.1 73.1 0 0 1 43-47.8c-9.7-4-20.7-3.5-32.2.7-33.1 12.3-54.2 44.7-56.8 83.4-2.4 35.9 7.8 62.7-7.2 85.7-.1-35.9-19-65.3-50.9-84.6-21.5-13-46.1-32.7-52.1-58.2-5.9-25.1 1-49.2 12.9-62.9a43.3 43.3 0 0 0-27.4 16.9c-22.3 27.3-24.2 66-6.8 100.7 15.5 31 36.7 48.8 37.1 74.6-18.1-29.3-48.4-44.6-84.6-45.4-25.1-.6-56.2-5.5-74.1-24.6a72.8 72.8 0 0 1-20-61 43 43 0 0 0-15.4 28.3c-5.8 34.8 11.8 69.3 44.1 90.8 29 19.4 56.5 24.2 69.5 46.8-30.4-16.7-64.5-14.9-96.4 2.5-22.1 12-51.5 23.3-76.5 15.5a73.1 73.1 0 0 1-47.8-43c-4 9.7-3.5 20.7.7 32.2 12.3 33.1 44.7 54.2 83.4 56.8 35.7 2.4 62.4-7.7 85.3 7-35.7.2-60 19.1-79.2 50.9-13 21.5-27.7 46.1-53.2 52.1a51 51 0 0 1-51.9-12.9 44 44 0 0 0 13.9 29.4 74 74 0 0 0 89.7 5.8C19.7 416.6 31.2 398 57 398.7c-29.9 18.1-41.3 46.3-42 83-.5 25.1-.9 53.8-20 71.7-18.8 17.7-34.7 21.2-52.6 17.8a48.2 48.2 0 0 0 28.5 17.5c33.4 5.4 63.9-10.6 80.1-41.8 16.9-32.6 17.9-54.2 39.2-66.7-16.3 30.3-14.4 64 2.9 95.7 12 22.1 23.3 51.5 15.5 76.5a73.1 73.1 0 0 1-43 47.8c9.7 4 20.7 3.5 32.2-.7 33.1-12.3 54.2-44.7 56.8-83.4 2.4-35.9-7.8-62.7 7.2-85.7.1 35.9 19 65.3 50.9 84.6 21.5 13 46.1 32.7 52.1 58.2 5.9 25.1-1 49.2-12.9 62.9a43.3 43.3 0 0 0 27.4-16.9c22.3-27.3 24.2-66 6.8-100.7-15.5-31-36.7-48.8-37.1-74.6 18.1 29.3 48.4 44.6 84.6 45.4 25.1.6 56.2 5.5 74.1 24.6a72.8 72.8 0 0 1 20 61 43 43 0 0 0 15.4-28.3c5.8-34.8-11.8-69.3-44.1-90.8-29.3-19.5-57-24.3-69.9-47.5 30.5 16.9 60.6 12.7 92.7-4.9 22-12.1 47.1-25.9 72.2-18.3 24.7 7.5 32.7 23.1 38.6 40.3a51.7 51.7 0 0 0 2-33.5c-10.5-36.1-38.7-53.5-73.8-52z"/>
    <g stroke="none" fill="#000">
      <path d="M248 179.5c2.3 3 4.2 6.4 5.7 9.9a69.6 69.6 0 0 1 5.2 22.3c.2 3.8 0 7.7-.8 11.4a137 137 0 0 0-1.1-11.2l-1-5.5-.6-2.7-.6-2.7c-.8-3.6-1.9-7.2-3-10.8a123 123 0 0 0-3.8-10.7zM216.4 162a48 48 0 0 1 7.4 9.3 81.2 81.2 0 0 1 9.4 21.8c.9 3.9 1.5 7.8 1.5 11.8a112.4 112.4 0 0 0-12.2-32.8c-1.9-3.4-3.9-6.8-6.1-10.1zM205.9 571.6c-2.3-3-4.2-6.4-5.7-9.9a69.6 69.6 0 0 1-5.2-22.3c-.2-3.8 0-7.7.8-11.4.2 3.8.6 7.5 1.1 11.2l1 5.5.6 2.7.6 2.7a145 145 0 0 0 6.8 21.5zM237.5 589.1a48 48 0 0 1-7.4-9.3 81.2 81.2 0 0 1-9.4-21.8c-.9-3.9-1.5-7.8-1.5-11.8a112.4 112.4 0 0 0 12.2 32.8c1.9 3.5 3.9 6.8 6.1 10.1zM342.7 215.9a60.2 60.2 0 0 1-6.5 33.3 40.6 40.6 0 0 1-6.4 9.5 134.8 134.8 0 0 0 6.5-15.6l.9-2.6.8-2.7a143 143 0 0 0 4.7-21.9zM324 185.1c1.1 3.8 1.6 7.8 1.8 11.7a79 79 0 0 1-2.7 23.6 47.6 47.6 0 0 1-4.6 10.9 118.7 118.7 0 0 0 5.8-34.4c0-4 0-7.9-.3-11.8zM111.2 535.2a60.2 60.2 0 0 1 6.5-33.3c1.7-3.4 3.8-6.7 6.4-9.5a134.8 134.8 0 0 0-6.5 15.6l-.9 2.6-.8 2.7a143 143 0 0 0-4.7 21.9zM129.9 566a51.8 51.8 0 0 1-1.8-11.7 79 79 0 0 1 2.7-23.6c1.1-3.8 2.6-7.5 4.6-10.9a118.7 118.7 0 0 0-5.5 46.2zM423.5 396.1c-3 2.3-6.4 4.2-9.9 5.7a69.6 69.6 0 0 1-22.3 5.2c-3.8.2-7.7 0-11.4-.8 3.8-.2 7.5-.6 11.2-1.1l5.5-1 2.7-.6 2.7-.6c3.6-.8 7.2-1.9 10.8-3a123 123 0 0 0 10.7-3.8zM441 364.5a48 48 0 0 1-9.3 7.4 81.2 81.2 0 0 1-21.8 9.4c-3.9.9-7.8 1.5-11.8 1.5a112.4 112.4 0 0 0 32.8-12.2c3.4-1.9 6.8-3.9 10.1-6.1zM31.4 355c3-2.3 6.4-4.2 9.9-5.7a69.6 69.6 0 0 1 22.3-5.2c3.8-.2 7.7 0 11.4.8-3.8.2-7.5.6-11.2 1.1l-5.5 1-2.7.6-2.7.6c-3.6.8-7.2 1.9-10.8 3a123 123 0 0 0-10.7 3.8zM13.9 386.6a48 48 0 0 1 9.3-7.4 81.2 81.2 0 0 1 21.8-9.4c3.9-.9 7.8-1.5 11.8-1.5A112.4 112.4 0 0 0 24 380.5c-3.5 1.9-6.8 3.9-10.1 6.1zM407.1 294.4a48.9 48.9 0 0 1-5.7 9.9 68.8 68.8 0 0 1-16.6 15.7 43 43 0 0 1-10.3 5.1c3.2-2.1 6.2-4.3 9.1-6.6l4.3-3.6a36 36 0 0 0 2.1-1.9l2-1.9a147.2 147.2 0 0 0 15.1-16.7zM406.3 258.4a70.8 70.8 0 0 1-27.8 37.4 108.3 108.3 0 0 0 22.1-27.1c2.1-3.4 3.9-6.8 5.7-10.3zM47.7 456.7c1.4-3.5 3.5-6.8 5.7-9.9A68.8 68.8 0 0 1 70 431.1a43 43 0 0 1 10.3-5.1c-3.2 2.1-6.2 4.3-9.1 6.6l-4.3 3.6a36 36 0 0 0-2.1 1.9l-2 1.9a147.2 147.2 0 0 0-15.1 16.7zM48.6 492.7a70.8 70.8 0 0 1 27.8-37.4 108.3 108.3 0 0 0-22.1 27.1 116 116 0 0 0-5.7 10.3zM308.5 555.2a48.9 48.9 0 0 1-9.9-5.7 68.8 68.8 0 0 1-15.7-16.6 43 43 0 0 1-5.1-10.3c2.1 3.2 4.3 6.2 6.6 9.1l3.6 4.3a36 36 0 0 0 1.9 2.1l1.9 2a147.2 147.2 0 0 0 16.7 15.1zM344.6 554.4a70.8 70.8 0 0 1-37.4-27.8 108.3 108.3 0 0 0 27.1 22.1c3.4 2.1 6.8 4 10.3 5.7zM146.3 195.9c3.5 1.4 6.8 3.5 9.9 5.7a68.8 68.8 0 0 1 15.7 16.6 43 43 0 0 1 5.1 10.3c-2.1-3.2-4.3-6.2-6.6-9.1l-3.6-4.3a36 36 0 0 0-1.9-2.1l-1.9-2a147.2 147.2 0 0 0-16.7-15.1zM110.2 196.7a70.8 70.8 0 0 1 37.4 27.8 108.3 108.3 0 0 0-27.1-22.1c-3.3-2.1-6.7-4-10.3-5.7zM68.8 257.7a62.4 62.4 0 0 1 42.6 13.6 154.3 154.3 0 0 0-15.4-6.7l-2.6-.9-2.7-.8a144 144 0 0 0-21.9-5.2zM37.7 277c3.8-1.1 7.8-1.5 11.7-1.7a79 79 0 0 1 23.5 3c3.8 1.2 7.5 2.7 10.9 4.7a90.5 90.5 0 0 0-11.3-3.2 145.3 145.3 0 0 0-23.1-3c-3.8 0-7.7 0-11.7.2zM385 492.4a62.4 62.4 0 0 1-42.6-13.6 154.3 154.3 0 0 0 15.4 6.7l2.6.9 2.7.8a144 144 0 0 0 21.9 5.2zM416.1 474.1a51.7 51.7 0 0 1-11.7 1.7 79 79 0 0 1-23.5-3 52.8 52.8 0 0 1-10.9-4.7c3.7 1.3 7.5 2.4 11.3 3.2a145.3 145.3 0 0 0 23.1 3c3.9 0 7.8 0 11.7-.2zM201.9 204.8a51 51 0 0 1 5.4 14.6 49.7 49.7 0 0 1 .8 15.3 38.4 38.4 0 0 0-2.2-14.9c-.8-2.4-1.8-4.7-2.8-7a52 52 0 0 0-3.7-6.5l2.5-1.5zM249 546.3a51 51 0 0 1-5.4-14.6 49.7 49.7 0 0 1-.8-15.3 38.4 38.4 0 0 0 2.2 14.9 52 52 0 0 0 6.5 13.5l-2.5 1.5zM290.1 215a66.5 66.5 0 0 1-2.6 15.4 44.8 44.8 0 0 1-6.9 13.7 43.2 43.2 0 0 0 6.5-21.6c.2-2.5.2-5 .1-7.4l2.9-.1zM160.1 533.7a66.5 66.5 0 0 1 2.6-15.4 44.8 44.8 0 0 1 6.9-13.7 43.2 43.2 0 0 0-6.5 21.6c-.2 2.5-.2 5-.1 7.4l-2.9.1zM398.2 350a51 51 0 0 1-14.6 5.4 49.7 49.7 0 0 1-15.3.8 38.4 38.4 0 0 0 14.9-2.2c2.4-.8 4.7-1.8 7-2.8a52 52 0 0 0 6.5-3.7l1.5 2.5zM56.7 397.1a51 51 0 0 1 14.6-5.4 49.7 49.7 0 0 1 15.3-.8 38.4 38.4 0 0 0-14.9 2.2c-2.4.8-4.7 1.8-7 2.8a52 52 0 0 0-6.5 3.7l-1.5-2.5zM362 267.4c-1.4 2.3-3 4.3-4.6 6.4a45 45 0 0 1-18.1 14.1 38.4 38.4 0 0 0 11.7-9.5 53 53 0 0 0 8.4-12.4l2.6 1.4zM88.8 480.2c1.4-2.3 3-4.3 4.6-6.4a45 45 0 0 1 18.1-14.1 38.4 38.4 0 0 0-11.7 9.5 53 53 0 0 0-8.4 12.4l-2.6-1.4zM330.6 511.1c-2.3-1.4-4.3-3-6.4-4.6a45 45 0 0 1-14.1-18.1 38.4 38.4 0 0 0 9.5 11.7 53 53 0 0 0 12.4 8.4l-1.4 2.6zM119.8 238c2.3 1.4 4.3 3 6.4 4.6a45 45 0 0 1 14.1 18.1 38.4 38.4 0 0 0-9.5-11.7 53 53 0 0 0-12.4-8.4l1.4-2.6zM67.2 310.3c2.7.1 5.2.5 7.8.9a58.8 58.8 0 0 1 14.7 4.8c2.3 1.1 4.4 2.6 6.5 4.2a36.5 36.5 0 0 0-14-5.6 63 63 0 0 0-7.4-1.1c-2.5-.2-5-.3-7.4-.2l-.2-3zM385.2 439.4c-2.7-.1-5.2-.5-7.8-.9a58.8 58.8 0 0 1-14.7-4.8 37.9 37.9 0 0 1-6.5-4.2 36.5 36.5 0 0 0 14 5.6c2.5.5 4.9.9 7.4 1.1 2.5.2 5 .3 7.4.2l.2 3zM202 486.3c4 1.2 8 1.6 12.1 1.9l6.1.2h6.2c4.1-.1 8.2-.3 12.2-.6 4.1-.3 8.1-.7 12.2-1.5-3.7 2-7.8 3.1-11.9 3.8a74.6 74.6 0 0 1-25 .4l-3.1-.6-3-.9c-2.2-.6-4.1-1.5-5.8-2.7zM270.8 421.6c.5-2.5 0-4.8-.9-6.9a16.8 16.8 0 0 0-9.8-8.6c-2.2-.7-4.5-1-7.1-.9 2.2-1.3 5-1.7 7.6-1.4a14.5 14.5 0 0 1 11.6 10.2c.3 1.3.4 2.7.2 4a8 8 0 0 1-1.6 3.6zM268.5 475a62.8 62.8 0 0 0-9.9-5.3c-1.7-.8-3.4-1.4-5.2-2.1l-2.6-.9-2.7-.8c-3.6-.9-7.2-1.8-10.8-2.2-1.8-.3-3.7-.4-5.5-.6l-5.5-.2c-1.8.1-3.7 0-5.5.2-1.8.2-3.7.3-5.5.6-3.7.4-7.3 1.3-10.8 2.2l-2.7.8-2.6.9a67.5 67.5 0 0 0-15.1 7.4c2.7-2.6 5.9-4.7 9.2-6.6a64.9 64.9 0 0 1 32.9-8.5 71.3 71.3 0 0 1 32.9 8.5c3.5 1.9 6.7 4 9.4 6.6z"/>
      <polygon points="255.1,348.3 252.7,355.8 252.1,348"/>
      <polygon points="200.7,348 200,356.7 197.7,348.3"/>
    </g>
    <g>
      <g stroke="none" fill="#000">
        <path d="M187.8 427c.4-.9 1-1.7 1.8-2.3.8-.6 1.7-1.1 2.7-1.3 2-.5 4.1-.3 6 .4l.7.3.7.4 1.2 1 2 2.1 3.9 4.1c2.7 2.5 5.7 4.7 9.1 6a29.9 29.9 0 0 0 21.4-.1c3.4-1.3 6.4-3.5 9.2-6l4-4 2.1-2.1 1.2-1 .7-.4.7-.3c1.9-.7 4-.9 6-.4 1 .3 1.9.7 2.7 1.3.8.6 1.4 1.4 1.8 2.3a6.5 6.5 0 0 0-4.6-2.8c-1.8-.2-3.6.2-5.3.9l-.6.3-.5.3-.9.9-1.8 2.2a80 80 0 0 1-3.8 4.4 29.1 29.1 0 0 1-21.5 9.3c-4 0-8.1-.7-11.8-2.3-3.7-1.6-7-4.1-9.7-7a82 82 0 0 1-3.8-4.5l-1.8-2.2-.9-.9c-.2-.1-.3-.3-.5-.3l-.6-.3a8.8 8.8 0 0 0-5.3-.9 6.6 6.6 0 0 0-4.5 2.9zM182.2 421.6c-.8-1-1.3-2.3-1.5-3.6-.2-1.3-.1-2.7.2-4a14.1 14.1 0 0 1 11.6-10.2c2.7-.4 5.4.1 7.6 1.4a17.5 17.5 0 0 0-12.9 4.2 14.9 14.9 0 0 0-4 5.3c-1 2.1-1.5 4.4-1 6.9zM196.5 329.8c3.6 4.6 6.9 9.6 9.3 15 .3.7.7 1.3.9 2l.8 2.1c.5 1.4 1.1 2.8 1.4 4.2l1.1 4.3.8 4.4.5 4.4.2 4.5-.1 4.4c-.1 1.5-.1 3-.3 4.4-.4 5.9-1.6 11.6-1 17.4-1-2.8-1.2-5.8-1.3-8.7v-8.8a86.2 86.2 0 0 0-5.2-33.8c-1.8-5.4-4.5-10.5-7.1-15.8zM246.2 359.8c0 2.3-.3 4.6-.5 6.8l-.8 6.6-.5 6.5a51 51 0 0 0 .2 6.7 15.4 15.4 0 0 1-2.6-6.5 31.6 31.6 0 0 1 4.2-20.1z"/>
      </g>
      <g>
        <path fill="none" stroke-width="3" stroke-linejoin="round" d="M116.6 313.1c-1.7.9 6.8-10.4 20.9-17.3a59.4 59.4 0 0 1 30.7-5.2 60.5 60.5 0 0 1 29.5 11.7c8.1 6.3 11.5 9.4 11.7 12.6-6.9 3.7-18.3-10.7-43.6-12.8-8.2-.8-18.9-.4-27.2 1.7-6.2 1.6-15.8 6-22 9.3z"/>
      </g>
      <path fill="#F6F6F6" stroke-linejoin="round" d="M199.2 348.1c0 .3-2.2-24.4-25.3-25.7-20.6.3-26.3 6-32.5 11-4.7 3.8-7.6 4.5-7.6 4.5s15.6 17.6 36.5 17.7c14.4.1 28.9-7.5 28.9-7.5z"/>
      <path fill="none" stroke-linejoin="round" d="M186.1 332.9c0-1.2 0-3.6-.2-5.5l-.1-2c-3.1-1.6-7-2.7-11.9-2.9a54.4 54.4 0 0 0-21.9 3.9c-.5 2-.9 3.8-1 5.3-.3 9.1 7.3 16.7 17 17.1 9.7.2 17.8-6.9 18.1-15.9z"/>
      <g stroke="none" fill="#000">
        <path d="M161.7 331.3c-.1 4.3 2.9 8 6.9 8.1 4 .1 7.3-3.3 7.5-7.6.1-4.3-3-8-6.9-8.1-4.1-.2-7.4 3.2-7.5 7.6z"/>
        <path d="M138.5 324.8a38.3 38.3 0 0 1 29.7-14.5 34.6 34.6 0 0 1 16.8 3.5c5.2 2.5 9.6 6.5 12.2 11.6a32.8 32.8 0 0 0-20.8-11.5 42.5 42.5 0 0 0-16 .4c-2.6.5-5.2 1.3-7.7 2.3a45 45 0 0 0-14.2 8.2z"/>
      </g>
      <g>
        <path fill="none" stroke-width="3" stroke-linejoin="round" d="M336.1 313.1c1.7.9-6.8-10.4-20.9-17.3a59.4 59.4 0 0 0-30.7-5.2 60.5 60.5 0 0 0-29.5 11.7c-8.1 6.3-11.5 9.4-11.7 12.6 6.9 3.7 18.3-10.7 43.6-12.8 8.2-.8 18.9-.4 27.2 1.7 6.3 1.6 15.8 5.9 22 9.3z"/>
      </g>
      <path fill="#F6F6F6" stroke-linejoin="round" d="M253.6 348.1c0 .3 2.2-24.4 25.3-25.7 20.6.3 26.3 6 32.5 11 4.7 3.8 7.6 4.5 7.6 4.5s-15.6 17.6-36.5 17.7c-14.4.1-28.9-7.5-28.9-7.5z"/>
      <path fill="none" stroke-linejoin="round" d="M266.6 332.8c0-1.2 0-3.6.2-5.5l.1-2c3.1-1.6 7-2.7 11.9-2.9 10.5.2 17.1 1.7 21.9 3.9.5 2 .9 3.8 1 5.3.3 9.1-7.3 16.7-17 17.1-9.6.3-17.7-6.8-18.1-15.9z"/>
      <g stroke="none" fill="#000">
        <path d="M283.6 323.7c-4 .1-7.1 3.8-6.9 8.1s3.5 7.7 7.5 7.6c4-.1 7-3.8 6.9-8.1s-3.5-7.8-7.5-7.6z"/>
        <path d="M314.3 324.7a50.3 50.3 0 0 0-29.8-11.5 42.5 42.5 0 0 0-15.7 2.6c-5 2-9.5 5.1-13.1 9.4 2.5-5 7-9 12.2-11.6a33.1 33.1 0 0 1 16.8-3.5 39.1 39.1 0 0 1 16.6 4c5 2.6 9.5 6.2 13 10.6z"/>
      </g>
    </g>
  </g>
</svg>
