<svg xmlns="http://www.w3.org/2000/svg" fill="#d7374a" stroke="#000" viewBox="50 50 200 200">
  <metadata source="http://wappenwiki.org/images/4/49/De_Gironde.svg" license="https://creativecommons.org/licenses/by-nc-sa/3.0"/>
  <g id="swallow" stroke-width=".43">
    <g>
      <g>
        <g>
          <path class="secondary" d="M90.75 104.29c-.26-.5-.76-.8-.76-.8s-.67-.23-.82.32c-.16.55.17.8.17.8s.38-.17.74 0c.5.2.57.88.72.95.16-.24.1-.96-.05-1.27zm-9.36-1.03s-.26-.23-.65-.18c-.41.07-.86.76-.96.78-.21-.33.24-1.1.48-1.36.48-.46 1.06-.48 1.06-.48.2 0 .33.08.49.19.15.1.3.26.32.44 0 .2-.15.37-.32.45l-.21.1c-.07.02-.16.06-.2.06zm-.26 1.4c-.06-.03-.22-.06-.51.2-.28.25-.14 1.13-.17 1.17-.09.06-.74-.83-.47-1.6.26-.62.69-.85.69-.85.2 0 .45 0 .65.04.07.02.12.03.18.07.05.03.06.1.08.15.04.12.07.24.02.36-.05.1-.17.16-.28.2a.45.45 0 0 0-.15.1.13.13 0 0 0-.04.17zm1.38 1.26a.54.54 0 0 0-.58.24c-.21.31-.02 1.22-.06 1.26-.06.09-.7-.62-.6-1.45.1-.65.45-.98.45-.98.15-.19.4-.32.64-.25.24.08.4.34.36.58-.02.07-.04.14-.07.19-.05.15-.09.3-.14.41z"/>
          <path class="secondary" stroke-linejoin="round" d="M89.48 102.98c-.31-.07-.47.2-.47.2s-.44-.22-.58-.06c-.09.1-.42.17-.59.15-.1-.01-.6-.08-.77-.25-.1-.12.02-.23.02-.23l.63-1.03s1.02-1.82 1.09-2c.13-.55-1.09-.6-1.09-.6s-.9 1.31-.87 1.55c-.16.09-.31.36-.35.55-.19.09-.45.45-.38.62-.07.07-.08-.02-.2.1-.24.21-.26.67-.59.66-.62.03-1.36-.54-1.82-.48-.14.01-.26.01-.36.1-.31.26-.8 0-.85-.12-.1-.36-.4-.4-.68-.36-.33.05-.42.29-.42.29s.36.02.31.64c0 .13-.05.32-.19.43a.74.74 0 0 0-.27 0c-.57.1-.53.4-.53.5 0 .05.01.05.05.05.26-.02.6.48.44 1 .06.2.42.3.55.29l.06.12c.44-.17.9.55.79.86 0 .1.19.24.57.15.17-.05.32-.1.4-.36.06-.26-.08-.2 0-.41.1-.23.47-.07.61-.14s.84-.55 1.05-.62c.19-.08.38-.07.38-.07s.14-.07.43-.29c.24-.1.6-.28.67-.24.51.03.62.4 1.05.45.43-.04.46-.26.9-.24.18.05.03.46.5.51.4.05.49-.19.49-.19s-.3-.67.52-1.06c.05-.06.01-.4-.5-.47z"/>
          <g stroke="none" fill="#000">
            <path d="m88.58 99.73-1.79 2.51 1.5-2.7c.05-.08.15-.12.24-.07.09.05.1.16.05.26 0-.02 0-.02 0 0zm-1.68 3.4v-.01c0-.02 0-.04-.02-.07-.02-.05-.02-.12-.02-.19.02-.14.07-.22.07-.22l.02.07c.02.04.03.08.07.12.03.03.07.07.1.08.02 0 .02.02.03.02l.02.02c.09.05.12.17.05.26-.05.08-.17.12-.25.05-.04-.04-.07-.09-.07-.12zm-4.48-1.08v.12l-.01.14-.05.14c-.09.17-.23.26-.23.26l.04-.1a.4.4 0 0 0 .01-.21c0-.07-.03-.14-.05-.18l-.03-.05-.02-.01c-.05-.09-.02-.2.05-.24s.2-.02.24.05c.05.01.05.05.05.08zm-.61 1.8s-.06-.11-.12-.2c-.04-.05-.07-.08-.1-.08-.04-.02-.04 0-.04 0-.07-.07-.07-.18 0-.24s.17-.07.24 0l.05.1c.02.07.02.14.02.19l-.05.24zm1 .52s0 .02.01.02l.02.04.03.05c.04.07.05.15.07.26.04.17.02.34.02.34s-.07-.15-.17-.28a.5.5 0 0 0-.14-.13c-.02 0-.02 0-.02-.02 0 0-.02 0-.02-.02l-.01-.01c-.09-.06-.12-.16-.07-.25.05-.08.15-.12.24-.06-.02.03.02.05.03.06zm6.05-.43-.04-.12a1.2 1.2 0 0 1-.03-.27c-.02-.2.02-.41.02-.41v-.02c.01-.12.13-.2.25-.19s.21.14.2.26c0 .05-.02.08-.06.12 0 0-.12.14-.2.3a.92.92 0 0 0-.1.25c-.03.03-.04.08-.04.08zm-1.57-2.97s-.03-.02-.08-.02a.62.62 0 0 0-.2-.03c-.06-.02-.13 0-.15 0v.01h.02c-.12.04-.22-.05-.26-.15-.03-.12.05-.22.16-.26h.05l.12.04c.07.03.14.1.19.15l.12.17.03.09zm-.34.55-.09-.05a2.82 2.82 0 0 0-.19-.05l-.15.01c-.02 0-.02.02-.02.02h.02a.23.23 0 0 1-.28-.14.23.23 0 0 1 .14-.27h.07l.12.03c.09.04.15.09.2.16.06.07.11.13.13.19.05.07.05.1.05.1zm-.36.65-.09-.03-.19-.05h-.19l-.03.01a.2.2 0 0 1-.23-.18.2.2 0 0 1 .2-.23l.06.02c.03.02.07.02.1.05.07.03.13.1.2.16.05.06.1.12.13.18l.04.07z"/>
            <path d="m81.3 102.96.08.02.08.04c.05.01.1.05.16.08.08.07.17.14.24.24l-.12-.08s.01 0 0 0h-.02c-.02 0-.03.01-.05.05l.02-.02.01-.02.02-.01.2-.16a.6.6 0 0 1 .26-.12l.14-.03h.16c.08 0 .19.01.25.05l.47.15c.07.02.14.06.2.06h.1l.11-.02c.16-.04.31-.05.48-.07l.24-.02a.3.3 0 0 1 .12.02l.12.02.25.05c.06.02.15.02.22.02s.15-.04.22-.07.12-.1.16-.18c-.04.07-.07.14-.14.2a.53.53 0 0 1-.22.1l-.24.01-.25-.03-.12-.02h-.1a1 1 0 0 0-.22.04c-.16.03-.31.07-.45.12l-.12.03c-.03.02-.1.02-.15.02-.1 0-.18-.02-.26-.04-.16-.03-.31-.08-.45-.1-.07-.02-.14-.02-.2-.02-.04 0-.08 0-.1.02l-.08.04c-.05.01-.1.06-.15.1l-.18.15.02-.01-.02.01.02-.01c-.03.03-.07.07-.1.08-.04.02-.05.02-.09.02h-.1l-.07-.02-.05-.07c-.04-.03-.07-.08-.12-.1l-.09-.03c-.01 0-.03 0-.03-.02 0 0-.04 0-.05-.02-.12-.02-.2-.14-.18-.26.02-.12.14-.19.26-.17l-.08-.02zm4.03.47c-.07-.02-.12.02-.17.05-.05.03-.09.09-.12.14l-.1.15a.36.36 0 0 1-.18.1l-.19.06c-.06.01-.12.01-.17.03l-.17.07c-.07.02-.14.04-.2.04-.14.01-.28-.02-.38-.02a.59.59 0 0 0-.31.07c-.04.01-.1.07-.16.1l-.14.1c-.03.04-.06.09-.12.12l-.12.14-.08.09-.12-.12-.05-.04a.13.13 0 0 0-.07-.03l-.16-.05h-.1s-.02 0 0 0h-.07l-.09.01-.07.02c-.01.02-.05.02-.06.04l-.06.03-.05.05c-.01.02-.01.04-.03.05a.51.51 0 0 0-.04.28c.02.12-.05.22-.17.26s-.22-.06-.26-.18v-.01a.86.86 0 0 1 .14-.54l.09-.1.1-.09.12-.06.12-.06.12-.01c.05 0 .09-.02.12 0h.12l.12.01a.73.73 0 0 1 .35.2c.03.03.07.04.1.1l-.2-.02.13-.12.16-.14.17-.1.08-.05.04-.02.05-.04a.7.7 0 0 1 .41-.05c.14.02.24.05.36.05l.18-.01.19-.05.18-.04.18-.03c.05-.02.12-.04.15-.09.05-.03.09-.08.12-.14.04-.05.09-.1.14-.13.03 0 .1-.04.17-.02z"/>
          </g>
        </g>
        <path stroke-linecap="round" stroke-linejoin="round" d="M90.84 96.67c-.33.3-.45 1.63-.38 1.9.07.25.12.49-.14.66a.9.9 0 0 0-.43.9c-.1.03-.22-.09-.31-.02-.03.02-.03.05-.05.09-.1.29-.16.6-.16.89-.05-.02-.08-.07-.12-.12-.03-.05-.08-.09-.13-.05-.02.01-.04.03-.06.07a.92.92 0 0 0-.08.43c.02.53-.35.27-.48-.04-.1-.2-.23-.5-.23-.74l-.38.17s.2-.56.18-.77c-.16.02-.35-.02-.64.09-.3.1-1.29.55-1.29.29 0-.26.2-.48.2-.74-.01-.33.13-.93.2-1.36.13-1.05-.5-2.65-.97-3.39a4.6 4.6 0 0 1-.84-2.04"/>
        <g stroke="none" fill="#000">
          <path d="M89.322 100.384s0-.017.017-.068c.017-.035.017-.086.035-.155.017-.138 0-.361 0-.568 0-.206-.035-.413-.07-.567-.034-.155-.085-.241-.085-.241s.069.086.155.223.154.344.223.55c.052.207.12.414.155.586.017.086.017.172.017.223v.086c0 .12-.103.207-.223.207s-.207-.104-.207-.224c-.017-.017-.017-.034-.017-.052zm-.533.895s0-.017.017-.052c.017-.034.034-.069.052-.137.034-.12.068-.276.068-.448s0-.344-.034-.464c-.017-.138-.052-.206-.052-.206a1.998 1.998 0 0 0 .31.653c.052.172.069.361.069.516v.241c0 .12-.103.206-.224.206-.12 0-.206-.103-.206-.223v-.086z"/>
        </g>
        <path class="secondary" stroke-width=".42" stroke-linecap="round" d="M74.62 62.56s-.93.07-2.05.86c-1.14.8-1.19 1.17-1.1 1.17 1.96.04 3.18.3 4.7.74.29.09.65.16.84-.07.07-.07.1-.15.12-.26.2-.77-.14-1.65-.83-2.08"/>
        <g>
          <path class="secondary" d="M95.57 107.38c-.26-.5-.76-.79-.76-.79s-.67-.24-.83.31c-.15.55.18.81.18.81s.37-.17.73 0c.5.2.57.88.73.95.15-.24.1-.97-.05-1.28zm-9.36-1.03s-.26-.22-.65-.17c-.42.07-.86.76-.97.77-.2-.32.24-1.1.48-1.35.49-.47 1.07-.49 1.07-.49.19 0 .33.09.48.2.16.1.31.25.33.44 0 .19-.16.36-.33.45l-.2.1c-.07.02-.16.05-.21.05zm-.26 1.41c-.07-.03-.22-.07-.52.2-.27.25-.13 1.13-.17 1.16-.08.07-.74-.82-.46-1.6.26-.62.69-.84.69-.84.2 0 .44 0 .65.03l.17.07c.05.04.07.1.09.16.03.12.07.24.02.36-.06.1-.18.15-.28.2a.45.45 0 0 0-.15.1.13.13 0 0 0-.04.16zm1.38 1.26a.54.54 0 0 0-.59.24c-.2.3-.02 1.22-.05 1.26-.07.08-.7-.62-.6-1.45.1-.65.45-.98.45-.98.15-.19.4-.33.63-.26.24.09.41.35.36.59-.01.07-.03.13-.07.19-.05.15-.08.29-.13.4z"/>
          <path class="secondary" stroke-linejoin="round" d="M94.3 106.08c-.32-.07-.47.2-.47.2s-.45-.22-.59-.06c-.08.1-.4.17-.58.15-.1-.02-.6-.09-.78-.26-.1-.12.02-.22.02-.22l.64-1.03s1.01-1.83 1.08-2c.14-.55-1.08-.6-1.08-.6s-.9 1.3-.88 1.55c-.15.08-.3.36-.34.55-.2.08-.45.44-.38.62-.07.07-.09-.02-.2.1-.25.2-.27.67-.6.65-.61.04-1.35-.53-1.82-.48-.13.02-.25.02-.36.1-.3.26-.79 0-.84-.12-.1-.36-.4-.4-.69-.36-.32.06-.41.3-.41.3s.36.01.3.63c0 .14-.04.33-.18.43a.74.74 0 0 0-.28 0c-.56.1-.53.4-.53.5 0 .05.02.05.05.05.26-.01.6.48.45 1 .05.2.41.31.55.3l.05.11c.45-.17.91.55.8.86 0 .1.18.24.56.16.17-.05.33-.1.4-.36s-.07-.21.01-.42c.09-.22.47-.06.6-.13.14-.07.85-.55 1.06-.62.18-.09.37-.07.37-.07s.14-.07.43-.3c.24-.1.6-.27.67-.23.52.03.62.4 1.05.44.43-.03.47-.26.92-.24.17.05.01.47.5.52.39.05.48-.2.48-.2s-.3-.66.51-1.06c.05-.05.02-.4-.5-.46z"/>
          <g stroke="none" fill="#000">
            <path d="m93.4 102.83-1.79 2.5 1.5-2.7c.05-.08.15-.11.24-.06.08.05.1.15.05.26 0-.02 0-.02 0 0zm-1.69 3.4v-.01l-.01-.07c-.02-.06-.02-.12-.02-.2.02-.13.07-.22.07-.22l.01.07c.01.03.04.09.07.12l.1.09.04.02.02.01c.08.05.12.18.05.26-.05.09-.17.12-.26.05-.03-.03-.07-.08-.07-.12zm-4.47-1.08v.12c0 .05 0 .09-.02.14l-.05.13c-.08.18-.22.26-.22.26l.03-.1a.4.4 0 0 0 .02-.2c0-.08-.03-.14-.05-.18l-.04-.05-.01-.02c-.05-.08-.02-.19.05-.24s.19-.02.24.05c.05.02.05.05.05.09zm-.62 1.8s-.05-.12-.12-.2c-.03-.05-.07-.09-.1-.09h-.04c-.07-.07-.07-.17 0-.24s.18-.07.24 0l.06.1.01.2c-.01.13-.05.23-.05.23zm1 .52s0 .02.02.02l.01.03.04.05c.03.07.05.16.07.26.03.17.01.35.01.35s-.06-.16-.17-.28a.5.5 0 0 0-.14-.14l-.01-.01s-.02 0-.02-.02c-.02 0-.02-.02-.02-.02-.08-.05-.12-.15-.07-.24.06-.09.16-.12.24-.07-.01.04.02.05.04.07zm6.05-.43-.03-.12a1.2 1.2 0 0 1-.04-.27c-.01-.21.02-.42.02-.42v-.01c.02-.13.14-.21.26-.2s.2.14.19.26c0 .06-.02.09-.05.12 0 0-.12.14-.2.31a.92.92 0 0 0-.11.24l-.04.1zm-1.56-2.97s-.04-.02-.09-.02a.62.62 0 0 0-.19-.04h-.15c-.02 0-.02.02 0 .02h.02c-.12.04-.23-.05-.26-.15-.04-.12.05-.23.15-.26h.05l.12.03c.07.04.14.1.2.16l.11.17.04.09zm-.35.55-.08-.06a2.82 2.82 0 0 0-.2-.05c-.06 0-.13 0-.15.02l-.01.02h.01a.23.23 0 0 1-.27-.14.23.23 0 0 1 .14-.28h.07l.12.04c.08.03.15.08.2.15.05.07.1.14.12.2.05.06.05.1.05.1zm-.36.65-.08-.04-.2-.05h-.18l-.04.02a.2.2 0 0 1-.22-.19.2.2 0 0 1 .19-.22l.07.01c.04.01.07.02.1.06.07.03.12.1.2.15.04.07.1.12.13.19.02.02.03.07.03.07z"/>
            <path d="m86.12 106.06.07.02.09.03.15.09c.09.07.17.14.24.24l-.12-.09s.02 0 0 0h-.01c-.02 0-.04.02-.06.05l.02-.01.02-.02.02-.02c.05-.05.13-.1.2-.15a.6.6 0 0 1 .26-.12c.05-.02.1-.04.14-.04h.15c.09 0 .2.02.26.05l.46.16c.07.02.14.05.21.05h.09l.12-.02c.15-.03.3-.05.48-.06l.24-.02a.3.3 0 0 1 .12.02l.12.01.24.05c.07.02.16.02.23.02s.15-.03.22-.07.12-.1.15-.17c-.03.07-.07.14-.13.19a.53.53 0 0 1-.23.1c-.08.02-.15.02-.24.02l-.24-.03-.12-.02h-.1a1 1 0 0 0-.23.03c-.15.04-.3.07-.44.12l-.12.04-.16.01-.26-.03c-.15-.03-.3-.09-.44-.1-.07-.02-.14-.02-.21-.02-.03 0-.07 0-.09.02l-.08.03-.16.1-.17.16.02-.02-.02.02.02-.02-.1.09c-.04.02-.06.02-.1.02h-.1l-.06-.02-.05-.07c-.04-.03-.07-.09-.13-.1l-.08-.04c-.02 0-.04 0-.04-.02l-.05-.01c-.12-.02-.19-.14-.17-.26.02-.12.14-.19.26-.17l-.09-.02zm4.03.46c-.07-.01-.12.02-.17.06-.06.03-.09.08-.12.13l-.1.16a.36.36 0 0 1-.18.1l-.19.05-.17.04c-.05.02-.1.03-.17.07l-.21.03c-.14.02-.27-.02-.38-.02a.59.59 0 0 0-.3.07l-.16.1-.14.1c-.03.04-.07.1-.12.13l-.12.14-.09.08-.12-.12-.05-.03a.13.13 0 0 0-.07-.04l-.15-.05h-.1s-.02 0 0 0h-.07l-.09.02-.07.02c-.02.01-.05.01-.07.03-.02.02-.03.04-.05.04l-.05.05-.04.05a.51.51 0 0 0-.03.27c.02.12-.05.23-.17.26s-.23-.05-.26-.17v-.02a.86.86 0 0 1 .14-.53l.08-.1.1-.09.13-.07.12-.05.12-.02h.24l.12.02a.73.73 0 0 1 .34.19c.04.03.07.05.1.1l-.2-.01.14-.13c.05-.03.08-.08.15-.13l.17-.1.09-.06.03-.01.06-.04a.7.7 0 0 1 .4-.05c.15.02.25.05.37.05.05 0 .12 0 .17-.02l.2-.05.18-.03.17-.04c.05-.01.12-.03.16-.08.05-.04.08-.09.12-.14.03-.05.08-.1.14-.14.03 0 .1-.03.17-.02z"/>
          </g>
        </g>
        <path class="secondary" stroke-width=".42" stroke-linecap="round" d="M75.15 65.98s-.9-.53-1.94-.98c-.62-.25-1.74-.4-1.74-.4 0-.13.84-.25 1.58-.3a7.3 7.3 0 0 1 2.79.4"/>
        <g stroke="none" fill="#000">
          <path d="m74.1 63.63.03-.04c.02-.01.06-.03.07-.07.05-.05.12-.08.16-.1h.02l.01.02h.02c.02 0 .02-.02.03-.02a.13.13 0 0 0 .04-.07c.02-.01.02-.03.02-.03l.05.02c.03.01.07.03.08.06.04.04.05.1.04.2-.02.03-.04.08-.07.1a.3.3 0 0 1-.09.07c-.12.05-.22.03-.29-.02a.38.38 0 0 1-.09-.07c-.03-.03-.03-.05-.03-.05z"/>
        </g>
        <path stroke-linecap="round" d="M116.82 105.53c-7.43-8.91-8.5-13.95-14.27-21.04a88.92 88.92 0 0 0-6.37-6.86c-2.42-2.4-6.14-6.16-7.15-7.59-.77-1.08-1.91-4.24-3.23-6.24-1.4-2.08-3.34-3.68-5.94-3.68-1.46 0-2.34.19-3.54.8-1.33.7-1.7 1.64-1.7 1.64l.22.05c.15.05.22.3.3.43l.06.09c.02.05.04.12.04.17 0 .14-.02.26.05.45.01.03.05.07.1.08.02 0 .02 0 .03.02l.23.05.29.05a1.14 1.14 0 0 1 .67.35c.04.05.04.08 0 .1l-.03.04-.04.01c-.01.02-.05.02-.08.04-.14.05-.33.08-.5.14-.05.01-.09.03-.12.05l-.04.01c-.32.23.12 1.02-.65 1.28.53 1.1.5 2.32.86 4.76.12.83.27 1.65.53 2.46.3.95.54 1.86.59 2.86.05.84.05 1.68.1 2.5.1 2.23.43 4.27 1.2 6.35.3.8.98 1.74 1.38 2.5 3.84 7.14 10.65 12.95 17.05 14.45.94.29 1.68.93 2.25 1.7a51.53 51.53 0 0 1 4.56 7.46c.79 1.55 1.53 3.15 2.16 4.77 4.06 10.28 7.25 24.84 8.02 24.3.4-.27 1.05-2.82.34-6 .1-.36.76-1.98.23-3.68.56-1 .4-1.12.46-1.74.05-.43.43-.98.36-1.44.17.48.57.55 1.02 1.15.48.64 1 1.27 1.67 1.55.03.12.75 1.94 1.92 2.97 1.09 2.15 2.15 3.63 2.53 3.65.14-.19.86-2.08-1.3-7.47-1.86-4.6-5.36-10.73-5.36-10.73l-4.66-9.13"/>
        <path stroke-linecap="round" d="M102.34 102.57s1.17.96 2.75 2.22l.2.15a5.6 5.6 0 0 0 .56.45l1.64 1.27.84.64 1.03.77 1.19.88.38.26c.55.38 1.04.72 1.47.98a70.27 70.27 0 0 0 10.01 5.06c4.03 1.66 5.29 1.58 5.73.75.45-.82-1.75-2.13-1.75-2.13s-3.36-2.6-5.88-4.99c-4.5-4.25-6.13-5.98-10.36-10.39"/>
        <path fill="#F6F6F6" stroke-width=".42" d="M77.99 63.13c0 .14.03.67.77.69.74.01.8-.33.81-.7.02-.47-.76-.52-.76-.52s-.82-.04-.82.53z"/>
        <g stroke="none" fill="#000">
          <path d="m100.21 103.19-.03-.04-.1-.07c-.08-.05-.2-.12-.35-.18-.31-.14-.74-.26-1.19-.4-.43-.12-.88-.24-1.2-.31l-.55-.14c-.12-.03-.2-.13-.16-.26.04-.12.14-.18.26-.15h.02l.53.2a20.31 20.31 0 0 1 2.3 1c.16.09.28.16.35.23l.09.08.03.04zm-21.93-40c.07.32.26.35.43.37.1 0 .17-.17.07-.38-.09-.2-.14-.46-.26-.46-.12-.02-.3.13-.24.46zm-.09 0-.01.04-.02.1c-.02.1-.02.21 0 .35.02.12.07.24.12.33l.07.1.03.03-.03-.01-.1-.07a1.52 1.52 0 0 1-.28-.3 1.05 1.05 0 0 1-.15-.39l-.04-.14v-.05c-.02-.12.05-.22.17-.24.12-.02.23.05.24.17v.07z"/>
          <path d="M78.52 62.82s-.07-.02-.19-.02l-.43-.01c-.15 0-.3.01-.43.03s-.19.05-.19.05l.17-.1.42-.2.43-.13.2-.05c.12-.02.23.05.24.17s-.05.23-.17.24c-.02.02-.03.02-.05.02z"/>
          <path d="M79.97 62.92s-.06-.03-.16-.07c-.09-.03-.22-.05-.34-.06l-.35.01-.15.02c-.12.02-.23-.05-.24-.17-.02-.12.05-.23.17-.24h.08l.18.05c.1.03.24.07.38.14.13.06.25.13.32.2.07.05.1.12.1.12z"/>
        </g>
        <path fill="none" stroke-linecap="round" d="M105.85 105.39c.6 2.72 7.28 14.2 9.4 21.84m-12.9-24.66c-1.37-.47-4.08-1.17-6.34-3.46-2.6-1.08-6.4-4.45-7.7-6.26-2.17-.82-3.61-2.96-4.73-4.78a15.74 15.74 0 0 1-1.76-3.94c-.4-1.43-.43-2.55.14-3.68 1.22-2.44 3.17-1.07 3.17-1.07"/>
        <g stroke="none" fill="#000">
          <path d="m85.23 79.18.08.05.25.14c.2.1.48.24.75.29.14.03.3.05.43.03.07 0 .14-.01.2-.05a.7.7 0 0 0 .15-.08.3.3 0 0 0 .1-.1l.07-.11.05-.1-.03.1-.06.12c-.01.05-.05.09-.1.14a.54.54 0 0 1-.15.12c-.07.03-.14.07-.21.08-.16.05-.33.05-.48.05a3.77 3.77 0 0 1-1.15-.27l-.1-.05c-.11-.05-.16-.17-.13-.28s.17-.15.28-.12c.01.02.03.04.05.04zm13.45 5.7.14.16c.08.1.22.24.37.43.33.36.76.91 1.26 1.58a94.05 94.05 0 0 0 7.91 9.34c.59.6 1.07 1.1 1.41 1.43l.55.53c.09.1.09.23 0 .31s-.22.09-.3 0c0 0-.21-.18-.56-.55-.34-.34-.82-.86-1.39-1.46a96.4 96.4 0 0 1-6.04-7.24c-.62-.84-1.18-1.63-1.67-2.32-.48-.69-.89-1.24-1.2-1.62-.15-.19-.27-.34-.36-.43a1.1 1.1 0 0 0-.12-.15zm-10.8-3.64.07.05c.05.04.12.07.2.1.09.04.2.04.33 0l.45-.17a.59.59 0 0 1 .3-.05c.04 0 .07 0 .1.02.03 0 .06.02.08.03.03.02.05.02.08.06l.07.03c.2.14.35.34.45.55a1.96 1.96 0 0 0 .24.38l.04.03.03.02h.02-.02c-.02 0-.03.02-.02 0s.07-.05.14-.07c.07-.02.14 0 .19.02l.12.05.03.02.04.01.03.04c.09.07.12.14.17.2.07.14.1.25.16.3.03.05.09.08.15.1l.09.02.09.02c.07.01.13.05.19.06l.3.16c.4.2.76.41 1.05.62.6.38.97.67.97.67s-.45-.17-1.09-.47c-.32-.13-.68-.3-1.08-.48l-.3-.12-.13-.05-.09-.02h-.03.02l-.05-.01a1.2 1.2 0 0 1-.23-.09c-.07-.05-.14-.1-.19-.17l-.17-.33-.05-.07-.04-.01h-.01s-.02-.02.01 0h-.01l-.04-.02h.02c.02 0 .02 0-.02.02a.34.34 0 0 1-.17.05c-.03 0-.07 0-.1-.02-.04 0-.05-.02-.09-.03a.13.13 0 0 0-.07-.04l-.03-.02-.1-.08a.52.52 0 0 1-.12-.17c-.07-.12-.1-.23-.16-.31a1.29 1.29 0 0 0-.3-.45l-.06-.05-.04-.02c-.01-.02-.03-.02-.05-.02l-.05-.01c-.07-.02-.14 0-.22.01-.16.04-.33.09-.48.1a.6.6 0 0 1-.4-.08c-.1-.05-.15-.12-.19-.15l-.03-.16zm5.76 6.83.1.02.12.01.16.04c.05.02.1.02.17.03l.19.04c.07.01.14.01.19.03.07.02.14.04.2.04l.76.12.38.05-.09.07-.25.13c-.12.04-.25.07-.4.09-.07 0-.15.02-.22 0l-.24-.02-.23-.05a1.05 1.05 0 0 1-.2-.08l-.2-.1-.15-.11c-.1-.07-.15-.14-.2-.19a.84.84 0 0 1-.1-.12z"/>
        </g>
        <path fill="none" stroke-linecap="round" stroke-linejoin="round" d="M105.18 95.16c-.83.29-2.1-.83-2.1-.83s.41.62-.05.72c-1.12.81-3-.34-2.34.09"/>
        <g stroke="none" fill="#000">
          <path d="m95.34 91.1.07.19.09.22.12.27.17.33c.05.12.14.22.2.35.07.12.16.24.25.36l.25.36.57.67c.2.2.36.4.52.55.15.15.29.27.4.36l.15.14c.08.08.1.22.02.3s-.23.11-.31.02l-.02-.01-.16-.16-.36-.41-.48-.6-.51-.72-.25-.38c-.06-.14-.15-.26-.2-.38-.07-.12-.12-.24-.17-.36-.06-.12-.1-.23-.14-.35l-.1-.29c-.04-.09-.06-.17-.07-.22l-.04-.24zm-2.29-.04.04.2.02.11c.01.04.01.09.03.12.03.09.05.2.1.3.06.1.09.22.16.32s.12.24.2.35c.1.12.16.24.26.36.09.12.2.24.28.36l.29.34.3.33a14.34 14.34 0 0 0 .97.9l.16.13c.08.07.1.2.03.31-.07.09-.2.1-.3.03l-.02-.01-.16-.16-.4-.41c-.15-.17-.34-.38-.51-.6l-.28-.35c-.09-.12-.19-.24-.27-.37l-.26-.38c-.09-.12-.15-.26-.22-.4-.07-.12-.12-.26-.2-.38-.04-.12-.08-.24-.13-.34-.05-.1-.05-.22-.09-.31-.01-.05-.01-.09-.03-.12 0-.04 0-.07-.02-.1.05-.16.05-.23.05-.23zm-2.25-.22.07.15c.02.05.05.1.07.2l.1.22.14.25.15.3c.06.1.12.2.2.3l.2.32c.28.4.6.77.84 1.03.12.14.24.24.31.3l.09.1.03.03c.09.08.1.2.02.3s-.2.11-.31.02l-.02-.01-.03-.04a.65.65 0 0 1-.09-.1l-.29-.36c-.22-.3-.52-.7-.76-1.15-.07-.1-.12-.23-.17-.33l-.15-.33-.12-.3-.1-.28c-.04-.09-.06-.17-.1-.24l-.04-.2-.04-.18zm-2.73-.52.03.14.05.15.07.2c.05.13.14.29.22.44l.31.47c.23.3.49.6.68.8l.24.24.08.1c.09.08.09.21.02.3a.24.24 0 0 1-.31.02l-.02-.02-.08-.1-.23-.3a6.27 6.27 0 0 1-.96-1.94l-.05-.19c-.02-.05-.02-.1-.02-.15-.03-.1-.03-.16-.03-.16z"/>
        </g>
        <path fill="none" stroke-linecap="round" d="M88.3 92.85c.88.36 1.3.14 1.3.14-.1.05 1.8 1.6 3.25 1.17.48.34 1.36 1.44 2.9.88.73.34 1.64.79 2.24 0 .52.24 1.41.9 2.77.08"/>
        <g stroke="none" fill="#000">
          <path d="M92.81 88.03s-.03.02-.1.02c-.07.02-.15.02-.26.02-.2 0-.48-.04-.75-.14-.26-.1-.52-.24-.68-.41l-.08-.14c-.02-.05-.04-.08-.04-.12-.01-.07.02-.1.02-.1l.02.01c0 .02.03.04.05.06l.09.05.12.05.67.22c.24.08.48.2.67.31l.2.14c.04 0 .07.03.07.03zm-2.37-.51s-.05.02-.15.02h-.38a3 3 0 0 1-1.67-.62c-.16-.12-.3-.28-.38-.42a.58.58 0 0 1-.1-.2c-.02-.07-.04-.12-.04-.17v-.14l.02.03.07.09.1.12.16.14c.22.17.56.36.93.51.36.16.73.31 1.01.45a4.59 4.59 0 0 0 .43.19zm-5.47-3.1.07.07c.02.02.03.05.07.07l.07.09.17.17.1.08.1.07c.04.04.1.05.13.09l.13.1.12.12c.04.05.07.09.09.14.02.05.03.09.03.14.02.03.02.07.02.1v.09L86 85.7c-.03-.04-.1-.07-.15-.1-.07-.04-.14-.08-.23-.11l-.13-.07a.7.7 0 0 1-.16-.09c-.05-.03-.1-.08-.15-.13-.05-.05-.09-.1-.12-.16-.04-.05-.06-.1-.07-.15-.02-.05-.04-.1-.04-.16-.01-.1 0-.17.02-.22-.02-.05 0-.09 0-.09zm33.78 27.16-.98-.4a8.05 8.05 0 0 0-.52-.2c-.18-.07-.37-.17-.58-.28l-.67-.32-.74-.38c-.5-.28-1.05-.57-1.62-.91-.55-.35-1.15-.7-1.75-1.1-.3-.21-.6-.4-.91-.6l-.47-.31c-.15-.1-.3-.23-.46-.33-.6-.45-1.24-.88-1.84-1.34l-.91-.7-.9-.7c-.6-.46-1.17-.93-1.72-1.39l-1.58-1.32-1.4-1.23a82.66 82.66 0 0 1-2.02-1.87c-.49-.46-.76-.74-.76-.74l.8.67c.5.43 1.26 1.03 2.14 1.76l1.43 1.17 1.62 1.29.86.67c.29.22.58.44.87.68l.9.7c.3.22.6.44.9.68.61.46 1.23.9 1.83 1.34.6.45 1.22.86 1.8 1.26l1.71 1.13c.28.2.55.35.8.5l.77.47c.24.15.48.27.7.4l.64.37.56.3.5.25 1 .48zm1.38-1.58-.73-.5c-.47-.33-1.1-.8-1.85-1.38l-1.22-.94c-.43-.35-.88-.7-1.35-1.1-.46-.4-.94-.78-1.4-1.2l-.73-.64c-.24-.2-.48-.43-.7-.64-.49-.43-.93-.88-1.4-1.3-.46-.44-.87-.88-1.3-1.31l-.31-.33a5 5 0 0 1-.3-.33l-.56-.63c-.38-.4-.7-.83-1-1.19l-.22-.28a4.18 4.18 0 0 0-.21-.27l-.38-.5-.33-.45-.24-.4-.46-.73.53.7c.09.1.17.24.28.36a30.86 30.86 0 0 0 .75.88l.23.26.24.26.5.55c.18.19.34.4.55.58l.58.6.31.31.31.31c.43.42.86.85 1.33 1.28l.68.65.7.64.71.65c.24.2.47.43.7.64l1.39 1.22c.44.4.89.77 1.3 1.13l1.17 1.02 2.43 2.08zm-19.97-19.13.08.2.09.2c.03.08.09.17.14.26.05.1.1.2.17.3l.2.33c.1.1.16.23.25.33l.27.33.3.3.3.28.31.24.3.2c.17.11.32.18.44.23l.12.05.04.02h.02c.1.05.17.17.12.28s-.18.17-.28.12h-.02l-.05-.04-.14-.07a3.59 3.59 0 0 1-.44-.3l-.28-.23c-.08-.09-.2-.17-.3-.28l-.28-.3c-.1-.1-.2-.23-.28-.35l-.26-.36-.22-.36c-.07-.12-.12-.24-.17-.36l-.14-.33c-.03-.1-.09-.19-.1-.27-.04-.09-.05-.16-.07-.23-.1-.12-.12-.19-.12-.19z"/>
        </g>
        <path fill="none" stroke-linecap="round" d="M100.67 95.14c1.28 1.53 3.58 3.03 6.33 5.66s4.03 3.95 12.5 10.18c1.4 1.05 3.3 2.22 4.74 3.13 2.35 1.5 3.18 1.8 3.82 1.79"/>
        <g stroke="none" fill="#000">
          <path d="M97.66 91.47s.14.28.38.66a15.26 15.26 0 0 0 .96 1.34l.3.33.29.3c.1.1.2.2.3.26.1.07.18.16.27.23.08.05.17.12.24.15a.7.7 0 0 0 .19.1l.17.1h.02c.1.06.15.2.08.3-.05.1-.19.16-.29.09 0 0-.02 0-.02-.02 0 0-.07-.03-.19-.12l-.2-.14a6.7 6.7 0 0 1-.54-.46l-.27-.31-.28-.35-.27-.36-.48-.75c-.14-.24-.26-.49-.36-.7l-.3-.65zm8.33 3.15s.03.07.03.17v.09c0 .03-.01.07-.03.1l-.07.1c-.03.04-.05.08-.1.1l-.12.06a.32.32 0 0 1-.12.04l-.21.03h-.2a.23.23 0 0 1-.23-.22c0-.12.1-.23.22-.23.04 0 .05 0 .09.02h.02l.03.02.05.01.05.02c.04.02.1.04.16.04h.17c.04 0 .05-.02.07-.04l.07-.05.05-.07c.02-.02.02-.05.03-.07.04-.05.04-.12.04-.12zm-3.13 9.91.17.27c.12.2.3.45.5.81l.76 1.28c.27.5.6 1.05.92 1.66.33.62.68 1.3 1.02 2.02a117.78 117.78 0 0 1 2.15 4.76c.36.84.7 1.7 1.07 2.58l1.01 2.6c.09.2.16.43.24.63l.23.66c.15.43.27.86.4 1.27.13.41.27.83.37 1.24.1.41.22.8.33 1.19.2.77.4 1.51.55 2.18.32 1.36.55 2.51.72 3.3l.22 1.26s-.12-.45-.3-1.24l-.37-1.43c-.15-.55-.3-1.17-.5-1.84l-.62-2.16a62.33 62.33 0 0 0-1.65-4.92c-.32-.85-.69-1.72-1.03-2.58a190.28 190.28 0 0 0-3.1-7.37c-.32-.72-.65-1.4-.94-2.04l-.45-.9-.4-.8c-.25-.5-.48-.95-.68-1.31l-.62-1.12zm7.03 4.9.42.95c.12.3.29.67.48 1.08l.65 1.4 1.65 3.47.95 1.96.98 2.01 1.93 3.98a399.4 399.4 0 0 1 3.26 6.88s-.75-1.31-1.82-3.29c-.53-1-1.15-2.15-1.79-3.4-.3-.64-.65-1.28-.98-1.95-.33-.67-.65-1.34-1-2.01l-.96-2.03c-.33-.67-.62-1.33-.91-1.98-.3-.64-.57-1.27-.83-1.86-.26-.58-.5-1.15-.7-1.68-.1-.26-.2-.52-.31-.76-.09-.24-.2-.46-.26-.69-.17-.43-.31-.8-.41-1.12-.23-.6-.35-.96-.35-.96zm-32.6-43.1.15-.02c.08 0 .15.04.22.09s.12.12.14.2c.03.07.02.14.02.14l-.14.02c-.09 0-.16-.04-.23-.09s-.12-.12-.13-.2l-.02-.14zm.46.84s.07-.02.12 0c.07.02.12.04.15.09.04.05.05.12.05.17 0 .07-.03.12-.03.12s-.07.02-.12 0a.18.18 0 0 1-.16-.09.33.33 0 0 1-.05-.17l.04-.12zm.6 1.03s.07-.01.12 0c.07.02.12.05.17.09.04.05.05.12.05.19s-.03.12-.03.12-.07.02-.12 0c-.07-.02-.12-.05-.17-.09a.35.35 0 0 1-.06-.19l.04-.12zm.65 1.28s.07-.02.14 0 .14.06.19.13c.03.07.05.18.03.24-.01.07-.07.12-.07.12s-.06-.01-.12-.05a.52.52 0 0 1-.13-.13c-.04-.06-.04-.12-.04-.2-.02-.05 0-.11 0-.11zm.31 1.1h.05l.12.03c.09.04.18.14.21.24.03.12.03.24-.02.33-.03.08-.1.12-.1.12s-.05-.05-.09-.12a.93.93 0 0 1-.12-.22c-.03-.07-.03-.16-.05-.25v-.13zm.09 1.34.03.03.07.09c.05.08.05.2 0 .3-.05.11-.14.2-.22.21-.09.04-.16.02-.16.02l.02-.14c0-.06.02-.13.05-.2l.12-.2.07-.06c0-.03.02-.05.02-.05zm-.48.96s.05.05.06.12c.04.07.04.17.02.26s-.07.17-.12.22c-.05.06-.12.09-.12.09s-.05-.05-.07-.12c-.03-.07-.03-.17-.01-.26s.06-.17.12-.22a.53.53 0 0 1 .12-.09zm-.5.7s.03.06.03.14a.3.3 0 0 1-.07.25.44.44 0 0 1-.2.15l-.14.02s-.02-.07 0-.14c0-.07.03-.16.07-.2.03-.08.1-.13.17-.14.07-.06.14-.07.14-.07zm2.96-9.32s.06-.01.17.02c.08.04.19.1.24.2.07.11.08.23.07.32l-.05.15-.14-.08a.49.49 0 0 1-.17-.21.81.81 0 0 1-.1-.26c-.02-.03-.02-.08-.02-.1v-.04zm.44 1.47h.05c.02 0 .07.01.1.03a.3.3 0 0 1 .13.28c0 .12-.07.22-.16.25-.03.02-.07.04-.1.02h-.05l-.02-.14c-.02-.07-.02-.12-.02-.17 0-.05.02-.1.04-.15l.02-.09.01-.03zm.04 1.22s.05.01.1.07c.03.05.05.12.05.17a.2.2 0 0 1-.12.12c-.05.02-.12 0-.12 0l-.05-.1c-.03-.06-.03-.09-.03-.12a.2.2 0 0 1 .08-.1c.04 0 .09-.04.09-.04zm-.64.41.04.02c.01 0 .05.03.05.05.03.05.01.15-.04.2a.16.16 0 0 1-.2.02c-.04-.01-.06-.03-.06-.07l-.01-.03s.03-.05.03-.1-.02-.07 0-.09c0 0 .04.02.09 0 .01 0 .05 0 .07-.02.01.02.03.02.03.02zm.3 8.91-.06.15-.12.38c-.02.09-.03.16-.03.26-.02.09-.02.19-.02.28l.03.63v.35c0 .12-.01.24-.05.34-.05.22-.15.43-.27.57-.07.07-.14.14-.2.17l-.13.1c-.07.07-.07.12-.07.12l-.02-.03c0-.03-.01-.07 0-.14a.8.8 0 0 1 .09-.17l.1-.19c.06-.14.1-.3.1-.5l.02-.29-.01-.33c0-.22-.02-.46.01-.69.02-.12.06-.22.09-.32s.09-.2.12-.28c.09-.15.19-.27.28-.34l.13-.07zm-1.62 4.08.01.1v.26c-.01.1-.05.22-.1.36a.94.94 0 0 1-.3.36l-.1.07c-.01.02-.03.02-.06.03l-.06.02c-.08.03-.15.03-.22.05-.14.02-.26 0-.34 0l-.24-.02h-.1l.06-.08c.05-.05.12-.1.23-.16l.3-.12c.06-.01.1-.03.14-.05l.05-.02.02-.01.05-.04c.16-.1.3-.3.42-.46l.15-.19c.05-.09.09-.1.09-.1z"/>
        </g>
        <path stroke-linecap="round" stroke-linejoin="round" d="M95.65 99.77c-.33.29-.45 1.63-.38 1.89s.12.5-.13.67a.9.9 0 0 0-.43.9c-.1.03-.23-.1-.31-.02-.04.01-.04.05-.06.08-.1.3-.15.6-.15.9-.05-.02-.09-.07-.12-.12-.04-.06-.09-.1-.14-.06l-.05.07a.92.92 0 0 0-.09.43c.02.54-.34.28-.48-.03-.1-.2-.22-.5-.22-.74l-.38.17s.19-.57.17-.77c-.15.01-.34-.02-.63.08-.3.1-1.3.55-1.3.3 0-.26.21-.49.21-.74-.01-.33.12-.93.2-1.36.13-1.05-.5-2.65-.97-3.4a4.6 4.6 0 0 1-.84-2.04"/>
        <g stroke="none" fill="#000">
          <path d="M89.356 96.05v-.069c0-.017 0-.051-.017-.069-.017-.12-.069-.292-.103-.464-.034-.172-.086-.344-.103-.482-.017-.137-.017-.223-.017-.223 0-.017.017-.017.017-.017.017 0 .017 0 .017.017 0 0 .017.086.069.189.051.12.137.275.223.413.086.155.172.31.241.43a.29.29 0 0 1 .035.086c0 .017.017.034.017.051 0 .018.017.052.017.07v.085c.017.12-.069.224-.19.241-.12.017-.223-.069-.24-.19.017-.016.017-.034.034-.068zm6.898 2.89s-.035.051-.086.137-.104.207-.138.327c-.052.12-.086.24-.12.327-.018.051-.035.086-.035.12 0 .017 0 .017-.017.052-.017.034-.034.051-.034.051-.086.086-.224.07-.31-.017s-.069-.223.017-.31l-.034.035.017-.017c.017-.017.052-.052.069-.086.069-.069.155-.172.24-.275.087-.104.19-.19.259-.258.086-.07.137-.104.137-.104.017 0 .017 0 .035.018 0-.018 0-.018 0 0zm-2.116 4.54s0-.017.017-.068c.017-.035.017-.086.035-.155.017-.138 0-.361 0-.568 0-.206-.035-.413-.07-.567-.034-.155-.085-.241-.085-.241s.069.086.155.223.154.344.223.55c.052.207.12.414.155.586.017.086.017.172.017.223v.086c0 .12-.103.207-.223.207s-.207-.104-.207-.224c-.017-.017-.017-.034-.017-.052zm-.533.895s0-.017.017-.052c.017-.034.034-.069.052-.137.034-.12.068-.276.068-.448s0-.344-.034-.464c-.017-.138-.052-.206-.052-.206a1.998 1.998 0 0 0 .31.653c.052.172.069.361.069.516v.241c0 .12-.103.206-.224.206-.12 0-.206-.103-.206-.223v-.086zm1.118-3.354s-.017-.035-.035-.086-.051-.12-.103-.172c-.086-.138-.206-.31-.327-.499-.051-.103-.12-.224-.154-.344-.035-.12-.052-.24-.035-.344.017-.103.052-.19.069-.24.034-.052.052-.07.052-.07s.017.035.034.086.052.12.086.19c.034.068.086.154.138.223.051.086.103.172.172.275.051.104.12.207.154.327.035.12.052.241.052.344 0 .103-.034.19-.052.241-.017.034-.034.052-.034.052l-.017.017z"/>
        </g>
      </g>
    </g>
  </g>
</svg>
