<svg xmlns="http://www.w3.org/2000/svg" fill="#d7374a" stroke="#000" viewBox="50 50 200 200">
  <metadata source="http://wappenwiki.org/images/4/49/De_Gironde.svg" license="https://creativecommons.org/licenses/by-nc-sa/3.0"/>
  <g id="swallow" stroke-width="2.5" transform="translate(1 81) scale(0.172)">
    <g>
      <g>
        <g>
          <path class="secondary" d="M521.8 135.4c-1.5-2.9-4.4-4.6-4.4-4.6s-3.9-1.4-4.8 1.8c-.9 3.2 1 4.7 1 4.7s2.2-1 4.3 0c2.9 1.1 3.3 5.1 4.2 5.5.9-1.4.6-5.6-.3-7.4zm-54.4-6s-1.5-1.3-3.8-1c-2.4.4-5 4.4-5.6 4.5-1.2-1.9 1.4-6.4 2.8-7.9 2.8-2.7 6.2-2.8 6.2-2.8 1.1 0 1.9.5 2.8 1.1.9.6 1.8 1.5 1.9 2.6 0 1.1-.9 2.1-1.9 2.6l-1.2.6c-.4.1-.9.3-1.2.3zm-1.5 8.2c-.4-.2-1.3-.4-3 1.1-1.6 1.5-.8 6.6-1 6.8-.5.4-4.3-4.8-2.7-9.3 1.5-3.6 4-4.9 4-4.9 1.2 0 2.6 0 3.8.2.4.1.7.2 1 .4.3.2.4.6.5.9.2.7.4 1.4.1 2.1-.3.6-1 .9-1.6 1.2-.3.1-.7.3-.9.5-.3.2-.4.7-.2 1zm8 7.3c-.4-.1-2.2-.4-3.4 1.4-1.2 1.8-.1 7.1-.3 7.3-.4.5-4.1-3.6-3.5-8.4.6-3.8 2.6-5.7 2.6-5.7.9-1.1 2.3-1.9 3.7-1.5 1.4.5 2.4 2 2.1 3.4-.1.4-.2.8-.4 1.1-.3.9-.5 1.7-.8 2.4z"/>
          <path class="secondary" stroke-linejoin="round" d="M514.4 127.8c-1.8-.4-2.7 1.2-2.7 1.2s-2.6-1.3-3.4-.4c-.5.6-2.4 1-3.4.9-.6-.1-3.5-.5-4.5-1.5-.6-.7.1-1.3.1-1.3l3.7-6s5.9-10.6 6.3-11.6c.8-3.2-6.3-3.5-6.3-3.5s-5.2 7.6-5.1 9c-.9.5-1.8 2.1-2 3.2-1.1.5-2.6 2.6-2.2 3.6-.4.4-.5-.1-1.2.6-1.4 1.2-1.5 3.9-3.4 3.8-3.6.2-7.9-3.1-10.6-2.8-.8.1-1.5.1-2.1.6-1.8 1.5-4.6 0-4.9-.7-.6-2.1-2.3-2.3-4-2.1-1.9.3-2.4 1.7-2.4 1.7s2.1.1 1.8 3.7c0 .8-.3 1.9-1.1 2.5-.5-.1-1-.1-1.6 0-3.3.6-3.1 2.3-3.1 2.9 0 .3.1.3.3.3 1.5-.1 3.5 2.8 2.6 5.8.3 1.2 2.4 1.8 3.2 1.7.1.2.2.5.3.7 2.6-1 5.3 3.2 4.6 5 0 .6 1.1 1.4 3.3.9 1-.3 1.9-.6 2.3-2.1.4-1.5-.4-1.2.1-2.4.5-1.3 2.7-.4 3.5-.8.8-.4 4.9-3.2 6.1-3.6 1.1-.5 2.2-.4 2.2-.4s.8-.4 2.5-1.7c1.4-.6 3.5-1.6 3.9-1.4 3 .2 3.6 2.3 6.1 2.6 2.5-.2 2.7-1.5 5.3-1.4 1 .3.1 2.7 2.9 3 2.3.3 2.8-1.1 2.8-1.1s-1.7-3.9 3-6.2c.3-.3.1-2.3-2.9-2.7z"/>
          <g stroke="none" fill="#000">
            <path d="m509.2 108.9-10.4 14.6 8.7-15.7c.3-.5.9-.7 1.4-.4.5.3.6.9.3 1.5 0-.1 0-.1 0 0zm-9.8 19.8v-.1c0-.1 0-.2-.1-.4-.1-.3-.1-.7-.1-1.1.1-.8.4-1.3.4-1.3s0 .2.1.4.2.5.4.7c.2.2.4.4.6.5.1 0 .1.1.2.1s.1.1.1.1c.5.3.7 1 .3 1.5-.3.5-1 .7-1.5.3-.2-.2-.4-.5-.4-.7zm-26-6.3v.7c0 .3 0 .5-.1.8-.1.3-.2.5-.3.8-.5 1-1.3 1.5-1.3 1.5s.1-.2.2-.6c.1-.3.2-.8.1-1.2 0-.4-.2-.8-.3-1-.1-.1-.1-.2-.2-.3l-.1-.1c-.3-.5-.1-1.1.3-1.4s1.1-.1 1.4.3c.3.1.3.3.3.5zm-3.6 10.5s-.3-.7-.7-1.2c-.2-.3-.4-.5-.6-.5-.2-.1-.2 0-.2 0-.4-.4-.4-1 0-1.4s1-.4 1.4 0c0 0 .2.3.3.6.1.4.1.8.1 1.1-.1.8-.3 1.4-.3 1.4zm5.8 3s0 .1.1.1c0 .1.1.1.1.2.1.1.1.2.2.3.2.4.3.9.4 1.5.2 1 .1 2 .1 2s-.4-.9-1-1.6c-.3-.4-.6-.7-.8-.8-.1 0-.1 0-.1-.1 0 0-.1 0-.1-.1-.1 0-.1-.1-.1-.1-.5-.3-.7-.9-.4-1.4.3-.5.9-.7 1.4-.4-.1.2.1.3.2.4zm35.2-2.5s-.1-.3-.2-.7c-.1-.4-.2-1-.2-1.6-.1-1.2.1-2.4.1-2.4v-.1c.1-.7.8-1.2 1.5-1.1s1.2.8 1.1 1.5c0 .3-.1.5-.3.7 0 0-.7.8-1.2 1.8-.3.5-.5 1-.6 1.4-.1.2-.2.5-.2.5zm-9.1-17.3s-.2-.1-.5-.1c-.3-.1-.7-.2-1.1-.2-.4-.1-.8 0-.9 0-.1 0-.1.1 0 .1h.1c-.7.2-1.3-.3-1.5-.9-.2-.7.3-1.3.9-1.5h.3c.2 0 .4.1.7.2.4.2.8.6 1.1.9.3.4.5.7.7 1 .1.3.2.5.2.5zm-2 3.2s-.2-.1-.5-.3c-.3-.1-.7-.2-1.1-.3-.4 0-.8 0-.9.1-.1 0-.1.1-.1.1h.1c-.7.2-1.4-.2-1.6-.8-.2-.7.2-1.4.8-1.6h.4c.2 0 .5.1.7.2.5.2.9.5 1.2.9.3.4.6.8.7 1.1.3.4.3.6.3.6zm-2.1 3.8s-.2-.1-.5-.2-.7-.2-1.1-.3h-1.1c-.1 0-.2.1-.2.1-.7.1-1.3-.5-1.3-1.1-.1-.7.5-1.3 1.1-1.3 0 0 .2 0 .4.1s.4.1.6.3c.4.2.7.6 1.1.9.3.4.6.7.8 1.1.1.1.2.4.2.4z"/>
            <path d="m466.9 127.7.4.1c.2.1.3.1.5.2.3.1.6.3.9.5.5.4 1 .8 1.4 1.4l-.7-.5s.1 0 0 0h-.1c-.1 0-.2.1-.3.3l.1-.1.1-.1.1-.1c.3-.3.8-.6 1.2-.9.4-.3.9-.6 1.5-.7.3-.1.6-.2.8-.2h.9c.5 0 1.1.1 1.5.3 1 .3 1.8.6 2.7.9.4.1.8.3 1.2.3h.5l.7-.1c.9-.2 1.8-.3 2.8-.4.5 0 .9-.1 1.4-.1.2 0 .5 0 .7.1l.7.1 1.4.3c.4.1.9.1 1.3.1s.9-.2 1.3-.4.7-.6.9-1c-.2.4-.4.8-.8 1.1-.4.3-.8.5-1.3.6-.5.1-.9.1-1.4.1l-1.4-.2-.7-.1h-.6c-.4 0-.9.1-1.3.2-.9.2-1.8.4-2.6.7l-.7.2c-.2.1-.6.1-.9.1-.5 0-1-.1-1.5-.2-.9-.2-1.8-.5-2.6-.6-.4-.1-.8-.1-1.2-.1-.2 0-.4 0-.5.1-.3.1-.3.1-.5.2-.3.1-.6.4-.9.6-.3.3-.6.5-1 .9l.1-.1-.1.1.1-.1c-.2.2-.4.4-.6.5-.2.1-.3.1-.5.1h-.6l-.4-.1-.3-.4c-.2-.2-.4-.5-.7-.6-.2-.1-.3-.1-.5-.2-.1 0-.2 0-.2-.1 0 0-.2 0-.3-.1-.7-.1-1.1-.8-1-1.5.1-.7.8-1.1 1.5-1-.6-.1-.6-.1-.5-.1zm23.4 2.7c-.4-.1-.7.1-1 .3-.3.2-.5.5-.7.8l-.6.9c-.3.3-.6.5-1 .6-.4.1-.7.2-1.1.3-.4.1-.7.1-1 .2-.3.1-.6.2-1 .4-.4.1-.8.2-1.2.2-.8.1-1.6-.1-2.2-.1-.7 0-1.3.1-1.8.4-.2.1-.6.4-.9.6-.3.2-.6.4-.8.6-.2.2-.4.5-.7.7l-.7.8-.5.5-.7-.7s-.2-.2-.3-.2c-.1-.1-.3-.2-.4-.2l-.9-.3h-.6s-.1 0 0 0h-.4c-.2 0-.3.1-.5.1-.1 0-.3.1-.4.1-.1.1-.3.1-.4.2-.1.1-.2.2-.3.2l-.3.3c-.1.1-.1.2-.2.3-.2.5-.3 1.1-.2 1.6.1.7-.3 1.3-1 1.5s-1.3-.3-1.5-1v-.1c-.1-1.1.2-2.1.8-3.1.2-.2.3-.4.5-.6.2-.2.4-.4.6-.5.2-.2.5-.3.7-.4.2-.1.5-.2.7-.3.3 0 .5-.1.7-.1.3 0 .5-.1.7 0h.7c.2 0 .5.1.7.1.5.1.9.3 1.4.6.2.1.4.3.6.5.2.2.4.3.6.6l-1.2-.1.8-.7c.3-.2.5-.5.9-.8.3-.2.7-.4 1-.6l.5-.3.2-.1c.1-.1.2-.1.3-.2.8-.4 1.7-.4 2.4-.3.8.1 1.4.3 2.1.3.3 0 .7 0 1-.1.3-.1.7-.2 1.1-.3.4-.1.8-.1 1.1-.2.4-.1.7-.1 1-.2.3-.1.7-.2.9-.5.3-.2.5-.5.7-.8.2-.3.5-.6.8-.8.2 0 .6-.2 1-.1z"/>
          </g>
        </g>
        <path stroke-linecap="round" stroke-linejoin="round" d="M522.3 91.1c-1.9 1.7-2.6 9.5-2.2 11 .4 1.5.7 2.9-.8 3.9-1.8 1.2-2.8 3-2.5 5.2-.6.2-1.3-.5-1.8-.1-.2.1-.2.3-.3.5-.6 1.7-.9 3.5-.9 5.2-.3-.1-.5-.4-.7-.7-.2-.3-.5-.5-.8-.3-.1.1-.2.2-.3.4-.4.8-.5 1.6-.5 2.5.1 3.1-2 1.6-2.8-.2-.6-1.2-1.3-2.9-1.3-4.3-.9.4-1.6.7-2.2 1 0 0 1.1-3.3 1-4.5-.9.1-2-.1-3.7.5-1.7.6-7.5 3.2-7.5 1.7 0-1.5 1.2-2.8 1.2-4.3-.1-1.9.7-5.4 1.1-7.9.8-6.1-2.9-15.4-5.6-19.7-4.3-6.7-5-11.4-4.9-11.9"/>
        <g stroke="none" fill="#000">
          <path d="M513.5 112.7s0-.1.1-.4c.1-.2.1-.5.2-.9.1-.8 0-2.1 0-3.3 0-1.2-.2-2.4-.4-3.3-.2-.9-.5-1.4-.5-1.4s.4.5.9 1.3.9 2 1.3 3.2c.3 1.2.7 2.4.9 3.4.1.5.1 1 .1 1.3v.5c0 .7-.6 1.2-1.3 1.2s-1.2-.6-1.2-1.3c-.1-.1-.1-.2-.1-.3zm-3.1 5.2s0-.1.1-.3c.1-.2.2-.4.3-.8.2-.7.4-1.6.4-2.6s0-2-.2-2.7c-.1-.8-.3-1.2-.3-1.2s.3.4.7 1.1c.4.7.8 1.7 1.1 2.7.3 1 .4 2.1.4 3v1.4c0 .7-.6 1.2-1.3 1.2-.7 0-1.2-.6-1.2-1.3v-.5z"/>
        </g>
        <path class="secondary" stroke-width="2.4227" stroke-linecap="round" d="M428-107.2s-5.4.4-11.9 5c-6.6 4.6-6.9 6.8-6.4 6.8 11.4.2 18.5 1.7 27.3 4.3 1.7.5 3.8.9 4.9-.4.4-.4.6-.9.7-1.5 1.2-4.5-.8-9.6-4.8-12.1"/>
        <g>
          <path class="secondary" d="M549.8 153.4c-1.5-2.9-4.4-4.6-4.4-4.6s-3.9-1.4-4.8 1.8c-.9 3.2 1 4.7 1 4.7s2.2-1 4.3 0c2.9 1.1 3.3 5.1 4.2 5.5.9-1.4.6-5.6-.3-7.4zm-54.4-6s-1.5-1.3-3.8-1c-2.4.4-5 4.4-5.6 4.5-1.2-1.9 1.4-6.4 2.8-7.9 2.8-2.7 6.2-2.8 6.2-2.8 1.1 0 1.9.5 2.8 1.1.9.6 1.8 1.5 1.9 2.6 0 1.1-.9 2.1-1.9 2.6l-1.2.6c-.4.1-.9.3-1.2.3zm-1.5 8.2c-.4-.2-1.3-.4-3 1.1-1.6 1.5-.8 6.6-1 6.8-.5.4-4.3-4.8-2.7-9.3 1.5-3.6 4-4.9 4-4.9 1.2 0 2.6 0 3.8.2.4.1.7.2 1 .4.3.2.4.6.5.9.2.7.4 1.4.1 2.1-.3.6-1 .9-1.6 1.2-.3.1-.7.3-.9.5-.3.2-.4.7-.2 1zm8 7.3c-.4-.1-2.2-.4-3.4 1.4-1.2 1.8-.1 7.1-.3 7.3-.4.5-4.1-3.6-3.5-8.4.6-3.8 2.6-5.7 2.6-5.7.9-1.1 2.3-1.9 3.7-1.5 1.4.5 2.4 2 2.1 3.4-.1.4-.2.8-.4 1.1-.3.9-.5 1.7-.8 2.4z"/>
          <path class="secondary" stroke-linejoin="round" d="M542.4 145.8c-1.8-.4-2.7 1.2-2.7 1.2s-2.6-1.3-3.4-.4c-.5.6-2.4 1-3.4.9-.6-.1-3.5-.5-4.5-1.5-.6-.7.1-1.3.1-1.3l3.7-6s5.9-10.6 6.3-11.6c.8-3.2-6.3-3.5-6.3-3.5s-5.2 7.6-5.1 9c-.9.5-1.8 2.1-2 3.2-1.1.5-2.6 2.6-2.2 3.6-.4.4-.5-.1-1.2.6-1.4 1.2-1.5 3.9-3.4 3.8-3.6.2-7.9-3.1-10.6-2.8-.8.1-1.5.1-2.1.6-1.8 1.5-4.6 0-4.9-.7-.6-2.1-2.3-2.3-4-2.1-1.9.3-2.4 1.7-2.4 1.7s2.1.1 1.8 3.7c0 .8-.3 1.9-1.1 2.5-.5-.1-1-.1-1.6 0-3.3.6-3.1 2.3-3.1 2.9 0 .3.1.3.3.3 1.5-.1 3.5 2.8 2.6 5.8.3 1.2 2.4 1.8 3.2 1.7.1.2.2.5.3.7 2.6-1 5.3 3.2 4.6 5 0 .6 1.1 1.4 3.3.9 1-.3 1.9-.6 2.3-2.1.4-1.5-.4-1.2.1-2.4.5-1.3 2.7-.4 3.5-.8.8-.4 4.9-3.2 6.1-3.6 1.1-.5 2.2-.4 2.2-.4s.8-.4 2.5-1.7c1.4-.6 3.5-1.6 3.9-1.4 3 .2 3.6 2.3 6.1 2.6 2.5-.2 2.7-1.5 5.3-1.4 1 .3.1 2.7 2.9 3 2.3.3 2.8-1.1 2.8-1.1s-1.7-3.9 3-6.2c.3-.3.1-2.3-2.9-2.7z"/>
          <g stroke="none" fill="#000">
            <path d="m537.2 126.9-10.4 14.6 8.7-15.7c.3-.5.9-.7 1.4-.4.5.3.6.9.3 1.5 0-.1 0-.1 0 0zm-9.8 19.8v-.1c0-.1 0-.2-.1-.4-.1-.3-.1-.7-.1-1.1.1-.8.4-1.3.4-1.3s0 .2.1.4.2.5.4.7c.2.2.4.4.6.5.1 0 .1.1.2.1s.1.1.1.1c.5.3.7 1 .3 1.5-.3.5-1 .7-1.5.3-.2-.2-.4-.5-.4-.7zm-26-6.3v.7c0 .3 0 .5-.1.8-.1.3-.2.5-.3.8-.5 1-1.3 1.5-1.3 1.5s.1-.2.2-.6c.1-.3.2-.8.1-1.2 0-.4-.2-.8-.3-1-.1-.1-.1-.2-.2-.3l-.1-.1c-.3-.5-.1-1.1.3-1.4s1.1-.1 1.4.3c.3.1.3.3.3.5zm-3.6 10.5s-.3-.7-.7-1.2c-.2-.3-.4-.5-.6-.5-.2-.1-.2 0-.2 0-.4-.4-.4-1 0-1.4s1-.4 1.4 0c0 0 .2.3.3.6.1.4.1.8.1 1.1-.1.8-.3 1.4-.3 1.4zm5.8 3s0 .1.1.1c0 .1.1.1.1.2.1.1.1.2.2.3.2.4.3.9.4 1.5.2 1 .1 2 .1 2s-.4-.9-1-1.6c-.3-.4-.6-.7-.8-.8-.1 0-.1 0-.1-.1 0 0-.1 0-.1-.1-.1 0-.1-.1-.1-.1-.5-.3-.7-.9-.4-1.4.3-.5.9-.7 1.4-.4-.1.2.1.3.2.4zm35.2-2.5s-.1-.3-.2-.7c-.1-.4-.2-1-.2-1.6-.1-1.2.1-2.4.1-2.4v-.1c.1-.7.8-1.2 1.5-1.1s1.2.8 1.1 1.5c0 .3-.1.5-.3.7 0 0-.7.8-1.2 1.8-.3.5-.5 1-.6 1.4-.1.2-.2.5-.2.5zm-9.1-17.3s-.2-.1-.5-.1c-.3-.1-.7-.2-1.1-.2-.4-.1-.8 0-.9 0-.1 0-.1.1 0 .1h.1c-.7.2-1.3-.3-1.5-.9-.2-.7.3-1.3.9-1.5h.3c.2 0 .4.1.7.2.4.2.8.6 1.1.9.3.4.5.7.7 1 .1.3.2.5.2.5zm-2 3.2s-.2-.1-.5-.3c-.3-.1-.7-.2-1.1-.3-.4 0-.8 0-.9.1-.1 0-.1.1-.1.1h.1c-.7.2-1.4-.2-1.6-.8-.2-.7.2-1.4.8-1.6h.4c.2 0 .5.1.7.2.5.2.9.5 1.2.9.3.4.6.8.7 1.1.3.4.3.6.3.6zm-2.1 3.8s-.2-.1-.5-.2-.7-.2-1.1-.3h-1.1c-.1 0-.2.1-.2.1-.7.1-1.3-.5-1.3-1.1-.1-.7.5-1.3 1.1-1.3 0 0 .2 0 .4.1s.4.1.6.3c.4.2.7.6 1.1.9.3.4.6.7.8 1.1.1.1.2.4.2.4z"/>
            <path d="m494.9 145.7.4.1c.2.1.3.1.5.2.3.1.6.3.9.5.5.4 1 .8 1.4 1.4l-.7-.5s.1 0 0 0h-.1c-.1 0-.2.1-.3.3l.1-.1.1-.1.1-.1c.3-.3.8-.6 1.2-.9.4-.3.9-.6 1.5-.7.3-.1.6-.2.8-.2h.9c.5 0 1.1.1 1.5.3 1 .3 1.8.6 2.7.9.4.1.8.3 1.2.3h.5l.7-.1c.9-.2 1.8-.3 2.8-.4.5 0 .9-.1 1.4-.1.2 0 .5 0 .7.1l.7.1 1.4.3c.4.1.9.1 1.3.1s.9-.2 1.3-.4.7-.6.9-1c-.2.4-.4.8-.8 1.1-.4.3-.8.5-1.3.6-.5.1-.9.1-1.4.1l-1.4-.2-.7-.1h-.6c-.4 0-.9.1-1.3.2-.9.2-1.8.4-2.6.7l-.7.2c-.2.1-.6.1-.9.1-.5 0-1-.1-1.5-.2-.9-.2-1.8-.5-2.6-.6-.4-.1-.8-.1-1.2-.1-.2 0-.4 0-.5.1-.3.1-.3.1-.5.2-.3.1-.6.4-.9.6-.3.3-.6.5-1 .9l.1-.1-.1.1.1-.1c-.2.2-.4.4-.6.5-.2.1-.3.1-.5.1h-.6l-.4-.1-.3-.4c-.2-.2-.4-.5-.7-.6-.2-.1-.3-.1-.5-.2-.1 0-.2 0-.2-.1 0 0-.2 0-.3-.1-.7-.1-1.1-.8-1-1.5.1-.7.8-1.1 1.5-1-.6-.1-.6-.1-.5-.1zm23.4 2.7c-.4-.1-.7.1-1 .3-.3.2-.5.5-.7.8l-.6.9c-.3.3-.6.5-1 .6-.4.1-.7.2-1.1.3-.4.1-.7.1-1 .2-.3.1-.6.2-1 .4-.4.1-.8.2-1.2.2-.8.1-1.6-.1-2.2-.1-.7 0-1.3.1-1.8.4-.2.1-.6.4-.9.6-.3.2-.6.4-.8.6-.2.2-.4.5-.7.7l-.7.8-.5.5-.7-.7s-.2-.2-.3-.2c-.1-.1-.3-.2-.4-.2l-.9-.3h-.6s-.1 0 0 0h-.4c-.2 0-.3.1-.5.1-.1 0-.3.1-.4.1-.1.1-.3.1-.4.2-.1.1-.2.2-.3.2l-.3.3c-.1.1-.1.2-.2.3-.2.5-.3 1.1-.2 1.6.1.7-.3 1.3-1 1.5s-1.3-.3-1.5-1v-.1c-.1-1.1.2-2.1.8-3.1.2-.2.3-.4.5-.6.2-.2.4-.4.6-.5.2-.2.5-.3.7-.4.2-.1.5-.2.7-.3.3 0 .5-.1.7-.1.3 0 .5-.1.7 0h.7c.2 0 .5.1.7.1.5.1.9.3 1.4.6.2.1.4.3.6.5.2.2.4.3.6.6l-1.2-.1.8-.7c.3-.2.5-.5.9-.8.3-.2.7-.4 1-.6l.5-.3.2-.1c.1-.1.2-.1.3-.2.8-.4 1.7-.4 2.4-.3.8.1 1.4.3 2.1.3.3 0 .7 0 1-.1.3-.1.7-.2 1.1-.3.4-.1.8-.1 1.1-.2.4-.1.7-.1 1-.2.3-.1.7-.2.9-.5.3-.2.5-.5.7-.8.2-.3.5-.6.8-.8.2 0 .6-.2 1-.1z"/>
          </g>
        </g>
        <path class="secondary" stroke-width="2.4227" stroke-linecap="round" d="M431.1-87.3s-5.2-3.1-11.3-5.7c-3.6-1.5-10.1-2.3-10.1-2.3 0-.8 4.9-1.5 9.2-1.8 7.7-.8 16.2 2.3 16.2 2.3"/>
        <g stroke="none" fill="#000">
          <path d="m425-101 .2-.2c.1-.1.3-.2.4-.4.3-.3.7-.5.9-.6h.1l.1.1h.1c.1 0 .1-.1.2-.1.1-.1.2-.3.2-.4.1-.1.1-.2.1-.2s.1 0 .3.1c.2.1.4.2.5.4.2.2.3.6.2 1.1-.1.2-.2.5-.4.6-.2.2-.3.3-.5.4-.7.3-1.3.2-1.7-.1-.2-.1-.4-.3-.5-.4-.2-.2-.2-.3-.2-.3z"/>
        </g>
        <path stroke-linecap="round" d="M673.4 142.6c-43.2-51.8-49.5-81.1-83-122.3-11.5-14.1-24.1-27.1-37-39.9-14.1-14-35.7-35.8-41.6-44.1-4.5-6.3-11.1-24.7-18.8-36.3-8.1-12.1-19.4-21.4-34.5-21.4-8.5 0-13.6 1.1-20.6 4.7-7.7 4-9.9 9.5-9.9 9.5s.6.1 1.3.3c.9.3 1.3 1.7 1.8 2.5.1.2.2.4.3.5.1.3.2.7.2 1 0 .8-.1 1.5.3 2.6.1.2.3.4.6.5.1 0 .1 0 .2.1.3.1.8.2 1.3.3.5.1 1.1.2 1.7.3.7.1 1.4.3 2 .6.7.3 1.4.8 1.9 1.4.2.3.2.5 0 .6l-.2.2c-.1 0-.1.1-.2.1-.1.1-.3.1-.5.2-.8.3-1.9.5-2.9.8-.3.1-.5.2-.7.3-.1 0-.1.1-.2.1-1.9 1.3.7 5.9-3.8 7.4 3.1 6.4 2.9 13.5 5 27.7.7 4.8 1.6 9.6 3.1 14.3 1.7 5.5 3.1 10.8 3.4 16.6.3 4.9.3 9.8.6 14.6.6 12.9 2.5 24.8 7 36.9 1.7 4.6 5.7 10.1 8 14.5 22.3 41.5 61.9 75.3 99.1 84 5.5 1.7 9.8 5.4 13.1 9.9 10.1 13.5 18.8 28.3 26.5 43.4 4.6 9 8.9 18.3 12.6 27.7 23.6 59.8 42.1 144.4 46.6 141.3 2.3-1.6 6.1-16.4 2-34.9.6-2.1 4.4-11.5 1.3-21.4 3.3-5.8 2.3-6.5 2.7-10.1.3-2.5 2.5-5.7 2.1-8.4 1 2.8 3.3 3.2 5.9 6.7 2.8 3.7 5.8 7.4 9.7 9 .2.7 4.4 11.3 11.2 17.3 6.3 12.5 12.5 21.1 14.7 21.2.8-1.1 5-12.1-7.6-43.4-10.8-26.8-31.1-62.4-31.1-62.4L639.9 164"/>
        <path stroke-linecap="round" d="M589.2 125.4s6.8 5.6 16 12.9c.4.3.7.6 1.1.9.7.6 1.5 1.2 2.2 1.7.4.3.8.6 1.1.9 3 2.4 6.2 4.9 9.5 7.4 1.6 1.2 3.3 2.5 4.9 3.7 2 1.5 4.1 3.1 6 4.5 2.4 1.8 4.7 3.5 6.9 5.1.7.5 1.5 1 2.2 1.5 3.2 2.2 6.1 4.2 8.6 5.7 17.5 10.6 34.8 19.7 58.2 29.4 23.4 9.7 30.7 9.2 33.3 4.4 2.6-4.8-10.2-12.4-10.2-12.4s-19.5-15.1-34.2-29c-26.1-24.7-35.6-34.8-60.2-60.4"/>
        <path fill="#F6F6F6" stroke-width="2.4227" d="M447.6-103.9c0 .8.2 3.9 4.5 4 4.3.1 4.6-1.9 4.7-4.1.1-2.7-4.4-3-4.4-3s-4.8-.2-4.8 3.1z"/>
        <g stroke="none" fill="#000">
          <path d="m576.8 129-.2-.2c-.1-.1-.3-.3-.5-.4-.5-.3-1.2-.7-2.1-1.1-1.8-.8-4.3-1.5-6.9-2.3-2.5-.7-5.1-1.4-7-1.8-1.9-.5-3.2-.8-3.2-.8-.7-.2-1.1-.8-.9-1.5.2-.7.8-1.1 1.5-.9h.1s1.2.5 3.1 1.2c1.9.7 4.3 1.6 6.8 2.7 2.5 1 4.9 2.1 6.6 3.1.9.5 1.6.9 2 1.3l.5.5.2.2zM449.3-103.6c.4 1.9 1.5 2.1 2.5 2.2.6 0 1-1 .4-2.2-.5-1.2-.8-2.7-1.5-2.7-.7-.1-1.8.8-1.4 2.7zm-.5 0s0 .1-.1.3c0 .2-.1.4-.1.6-.1.5-.1 1.2 0 2 .1.7.4 1.4.7 1.9.2.2.3.4.4.6l.2.2s-.1 0-.2-.1c-.2-.1-.4-.2-.6-.4-.5-.4-1.1-1-1.6-1.7-.5-.8-.8-1.6-.9-2.3-.1-.3-.1-.6-.2-.8v-.3c-.1-.7.3-1.3 1-1.4.7-.1 1.3.3 1.4 1v.4z"/>
          <path d="M450.7-105.7s-.4-.1-1.1-.1c-.7-.1-1.6-.1-2.5-.1-.9 0-1.8.1-2.5.2s-1.1.3-1.1.3.4-.3 1-.6 1.5-.7 2.4-1.1c.9-.3 1.8-.6 2.5-.8.7-.2 1.2-.3 1.2-.3.7-.1 1.3.3 1.4 1s-.3 1.3-1 1.4c-.1.1-.2.1-.3.1z"/>
          <path d="M459.1-105.1s-.3-.2-.9-.4c-.5-.2-1.3-.3-2-.4-.8 0-1.5 0-2 .1-.6.1-.9.1-.9.1-.7.1-1.3-.3-1.4-1-.1-.7.3-1.3 1-1.4h.5s.4.1 1 .3c.6.2 1.4.4 2.2.8.8.4 1.5.8 1.9 1.2.4.3.6.7.6.7z"/>
        </g>
        <path fill="none" stroke-linecap="round" d="M609.6 141.8c3.5 15.8 42.3 82.6 54.6 127m-75-143.4c-7.9-2.7-23.7-6.8-36.8-20.1-15.1-6.3-37.2-25.9-44.8-36.4-12.6-4.8-21-17.2-27.5-27.8-5.4-8.9-8.4-16.5-10.2-22.9-2.3-8.3-2.5-14.8.8-21.4 7.1-14.2 18.4-6.2 18.4-6.2"/>
        <g stroke="none" fill="#000">
          <path d="M489.7-10.6s.2.1.5.3c.3.2.8.5 1.4.8 1.2.6 2.8 1.4 4.4 1.7.8.2 1.7.3 2.5.2.4 0 .8-.1 1.1-.3.3-.1.6-.3.9-.5.3-.2.5-.4.6-.6.2-.2.3-.4.4-.6l.3-.6s-.1.2-.2.6c-.1.2-.2.4-.3.7-.1.3-.3.5-.6.8-.3.3-.5.5-.9.7-.4.2-.8.4-1.2.5-.9.3-1.9.3-2.8.3-1.9-.1-3.8-.6-5.1-1-.7-.2-1.2-.4-1.6-.6l-.6-.3c-.6-.3-.9-1-.7-1.6s1-.9 1.6-.7c.1.1.2.2.3.2zm78.2 33.2s.3.3.8.9c.5.6 1.3 1.4 2.2 2.5 1.9 2.1 4.4 5.3 7.3 9.2 2.9 3.9 6.3 8.4 10.1 13.2 3.8 4.8 7.9 9.7 12.1 14.7 8.3 9.9 17.1 19.4 23.8 26.4 3.4 3.5 6.2 6.4 8.2 8.3 2 2 3.2 3.1 3.2 3.1.5.5.5 1.3 0 1.8s-1.3.5-1.8 0c0 0-1.2-1.1-3.2-3.2-2-2-4.8-5-8.1-8.5-6.6-7.1-15.2-16.9-23.4-27-2.1-2.5-4.1-5.1-6-7.6-2-2.5-3.9-5-5.7-7.5-3.6-4.9-6.9-9.5-9.7-13.5-2.8-4-5.2-7.2-7-9.4-.9-1.1-1.6-2-2.1-2.5-.4-.6-.7-.9-.7-.9zM505.1 1.4s.1.1.4.3c.3.2.7.4 1.2.6.5.2 1.2.2 1.9 0s1.5-.6 2.6-1c.5-.2 1.1-.4 1.8-.3.2 0 .4 0 .5.1.2 0 .4.1.5.2.2.1.3.1.5.3l.4.2c1.2.8 2 2 2.6 3.2.3.6.6 1.2.9 1.6.1.2.3.4.5.6l.2.2.2.1h.1-.1c-.1 0-.2.1-.1 0s.4-.3.8-.4c.4-.1.8 0 1.1.1.3.1.5.2.7.3l.2.1.2.1.2.2c.5.4.7.8 1 1.2.4.8.6 1.4.9 1.7.2.3.5.5.9.6l.5.1c.2 0 .3.1.5.1.4.1.8.3 1.1.4l1.8.9c2.3 1.2 4.4 2.4 6.1 3.6 3.5 2.2 5.6 3.9 5.6 3.9s-2.6-1-6.3-2.7c-1.9-.8-4-1.8-6.3-2.8-.6-.2-1.2-.5-1.7-.7-.3-.1-.5-.2-.8-.3-.1 0-.3-.1-.5-.1h-.2.1l-.3-.1c-.4-.1-.9-.3-1.3-.5-.4-.3-.8-.6-1.1-1-.5-.8-.8-1.5-1-1.9-.1-.2-.3-.4-.3-.4l-.2-.1h-.1s-.1-.1.1 0h-.1c-.1-.1-.2-.1-.2-.1h.1c.1 0 .1 0-.1.1-.1.1-.6.3-1 .3-.2 0-.4 0-.6-.1-.2 0-.3-.1-.5-.2-.1-.1-.3-.2-.4-.2l-.2-.1c-.2-.2-.4-.3-.6-.5-.3-.3-.6-.7-.7-1-.4-.7-.6-1.3-.9-1.8-.5-1.1-1.1-2-1.8-2.6l-.3-.3-.2-.1c-.1-.1-.2-.1-.3-.1-.1 0-.2-.1-.3-.1-.4-.1-.8 0-1.3.1-.9.2-1.9.5-2.8.6-.9.1-1.7-.1-2.3-.5-.6-.3-.9-.7-1.1-.9-.1-.8-.2-.9-.2-.9zm33.5 39.7s.2 0 .6.1c.2 0 .4.1.7.1.3.1.6.1.9.2.3.1.6.1 1 .2s.7.1 1.1.2c.4.1.8.1 1.1.2.4.1.8.2 1.2.2 1.6.3 3.2.5 4.4.7 1.3.2 2.2.3 2.2.3s-.2.2-.5.4-.9.5-1.5.8c-.7.2-1.4.4-2.3.5-.4 0-.9.1-1.3 0-.5 0-.9-.1-1.4-.1-.5-.1-.9-.2-1.3-.3-.4-.1-.8-.3-1.2-.5-.4-.2-.8-.4-1.1-.6l-.9-.6c-.6-.4-.9-.8-1.2-1.1-.4-.5-.5-.7-.5-.7z"/>
        </g>
        <path fill="none" stroke-linecap="round" stroke-linejoin="round" d="M605.7 82.3c-4.8 1.7-12.2-4.8-12.2-4.8s2.4 3.6-.3 4.2c-6.5 4.7-17.4-2-13.6.5"/>
        <g stroke="none" fill="#000">
          <path d="M548.5 58.7s.2.4.4 1.1c.1.4.3.8.5 1.3s.5 1 .7 1.6c.3.6.6 1.2 1 1.9.3.7.8 1.3 1.2 2 .4.7.9 1.4 1.4 2.1l1.5 2.1c1.1 1.4 2.2 2.7 3.3 3.9 1.1 1.2 2.1 2.3 3 3.2.9.9 1.7 1.6 2.3 2.1.6.5.9.8.9.8.5.5.6 1.3.1 1.8s-1.3.6-1.8.1l-.1-.1-.9-.9c-.5-.6-1.3-1.4-2.1-2.4s-1.8-2.2-2.8-3.5c-1-1.3-2-2.8-3-4.2-.5-.8-.9-1.5-1.4-2.2-.4-.8-.9-1.5-1.2-2.2-.4-.7-.7-1.4-1-2.1-.3-.7-.6-1.3-.8-2-.2-.6-.4-1.2-.6-1.7-.2-.5-.3-1-.4-1.3-.1-1-.2-1.4-.2-1.4zm-13.3-.2s.1.4.2 1.2c0 .2.1.4.1.6.1.2.1.5.2.7.2.5.3 1.1.6 1.7.3.6.5 1.3.9 1.9.4.6.7 1.4 1.2 2 .5.7.9 1.4 1.5 2.1.5.7 1.1 1.4 1.6 2.1.6.7 1.1 1.3 1.7 2 .6.7 1.2 1.3 1.7 1.9 1.2 1.2 2.3 2.2 3.3 3.1 1 .9 1.8 1.6 2.4 2.1.6.5.9.8.9.8.5.4.6 1.2.2 1.8-.4.5-1.2.6-1.8.2 0 0-.1 0-.1-.1l-.9-.9c-.6-.6-1.4-1.4-2.3-2.4-.9-1-2-2.2-3-3.5-.5-.7-1.1-1.3-1.6-2s-1.1-1.4-1.6-2.2c-.5-.7-1-1.5-1.5-2.2-.5-.7-.9-1.5-1.3-2.3-.4-.7-.7-1.5-1.1-2.2-.3-.7-.5-1.4-.8-2-.3-.6-.3-1.3-.5-1.8-.1-.3-.1-.5-.2-.7 0-.2 0-.4-.1-.6.3-.9.3-1.3.3-1.3zm-13.1-1.3s.1.3.4.9c.1.3.3.6.4 1.1.2.4.4.8.6 1.3.2.5.5 1 .8 1.5.3.5.6 1.1.9 1.7.3.6.7 1.2 1.1 1.8l1.2 1.8c1.6 2.3 3.5 4.5 4.9 6 .7.8 1.4 1.4 1.8 1.8l.5.5.2.2c.5.5.6 1.2.1 1.8s-1.2.6-1.8.1l-.1-.1-.2-.2c-.1-.1-.3-.3-.5-.6-.4-.5-1-1.2-1.7-2.1-1.3-1.7-3-4.1-4.4-6.7-.4-.6-.7-1.3-1-1.9-.3-.6-.6-1.3-.9-1.9-.3-.6-.5-1.2-.7-1.8-.2-.6-.4-1.1-.6-1.6-.2-.5-.3-1-.5-1.4-.1-.4-.2-.8-.3-1.1-.1-.8-.2-1.1-.2-1.1zm-15.9-3s.1.3.2.8c.1.2.1.5.3.9.1.3.3.7.4 1.1.3.8.8 1.7 1.3 2.6.5.9 1.1 1.8 1.8 2.7 1.3 1.8 2.8 3.5 3.9 4.7l1.4 1.4.5.5c.5.5.5 1.3.1 1.8-.5.5-1.3.5-1.8.1l-.1-.1s-.2-.2-.5-.6c-.3-.4-.8-1-1.3-1.7-1-1.4-2.3-3.3-3.3-5.4-.5-1-1-2.1-1.4-3.1-.4-1-.7-2-.9-2.8-.1-.4-.2-.8-.3-1.1-.1-.3-.1-.6-.1-.9-.2-.6-.2-.9-.2-.9z"/>
        </g>
        <path fill="none" stroke-linecap="round" d="M507.6 68.9c5.1 2.1 7.5.8 7.5.8-.6.3 10.5 9.3 18.9 6.8 2.8 2 7.9 8.4 16.9 5.1 4.2 2 9.5 4.6 13 0 3 1.4 8.2 5.3 16.1.5"/>
        <g stroke="none" fill="#000">
          <path d="M533.8 40.9s-.2.1-.6.1c-.4.1-.9.1-1.5.1-1.2 0-2.8-.2-4.4-.8-1.5-.6-3-1.4-3.9-2.4-.2-.3-.4-.5-.5-.8-.1-.3-.2-.5-.2-.7-.1-.4.1-.6.1-.6l.1.1c0 .1.2.2.3.3.1.1.3.2.5.3.2.1.4.2.7.3 1 .3 2.5.8 3.9 1.3s2.8 1.1 3.9 1.8c.5.3.9.6 1.2.8.2 0 .4.2.4.2zm-13.8-3s-.3.1-.9.1h-2.2c-1.8-.1-4.3-.6-6.5-1.7-1.1-.5-2.2-1.1-3.2-1.9-.9-.7-1.7-1.6-2.2-2.4-.3-.4-.5-.8-.6-1.2-.1-.4-.2-.7-.2-1-.1-.3 0-.5 0-.6V29s0 .1.1.2.2.3.4.5.4.4.6.7c.2.2.5.5.9.8 1.3 1 3.3 2.1 5.4 3 2.1.9 4.3 1.8 5.9 2.6.8.4 1.5.7 2 .9.2 0 .5.2.5.2zm-31.8-18 .4.4c.1.1.2.3.4.4.1.2.3.3.4.5l1 1c.2.2.4.3.6.5.2.1.4.3.6.4.2.2.5.3.7.5.2.2.5.4.8.6.3.2.5.5.7.7.2.3.4.5.5.8.1.3.2.5.2.8.1.2.1.4.1.6v.5s-.2-.1-.4-.3c-.2-.2-.6-.4-.9-.6-.4-.2-.8-.4-1.3-.6-.2-.1-.5-.2-.8-.4-.3-.1-.6-.3-.9-.5-.3-.2-.6-.5-.9-.8-.3-.3-.5-.6-.7-.9-.2-.3-.3-.6-.4-.9-.1-.3-.2-.6-.2-.9-.1-.6 0-1 .1-1.3-.1-.3 0-.5 0-.5zm196.4 157.9s-2.1-.8-5.7-2.3c-.9-.4-1.9-.8-3-1.2-1.1-.4-2.2-1-3.4-1.6-1.2-.6-2.5-1.2-3.9-1.9s-2.8-1.4-4.3-2.2c-2.9-1.6-6.1-3.3-9.4-5.3-3.2-2-6.7-4.1-10.2-6.4-1.7-1.2-3.5-2.3-5.3-3.5l-2.7-1.8c-.9-.6-1.8-1.3-2.7-1.9-3.5-2.6-7.2-5.1-10.7-7.8-1.8-1.3-3.5-2.7-5.3-4-1.7-1.4-3.5-2.7-5.2-4.1-3.5-2.7-6.8-5.4-10-8.1-3.2-2.6-6.3-5.3-9.2-7.7-2.9-2.5-5.6-4.9-8.1-7.1-4.9-4.4-9-8.2-11.8-10.9-2.8-2.7-4.4-4.3-4.4-4.3s1.7 1.4 4.7 3.9 7.3 6 12.4 10.2c2.6 2.1 5.4 4.4 8.3 6.8 3 2.4 6.1 4.9 9.4 7.5 1.6 1.3 3.3 2.6 5 3.9 1.7 1.3 3.4 2.6 5.1 4 1.7 1.3 3.5 2.7 5.2 4 1.8 1.3 3.5 2.6 5.3 4 3.5 2.7 7.1 5.2 10.6 7.8 3.5 2.6 7.1 5 10.5 7.3 3.4 2.3 6.8 4.5 9.9 6.6 1.6 1.1 3.2 2 4.7 2.9 1.5.9 3 1.8 4.4 2.7 1.4.9 2.8 1.6 4.1 2.4 1.3.7 2.6 1.4 3.7 2.1 1.2.6 2.3 1.3 3.3 1.8s2 1 2.9 1.4c3.8 1.8 5.8 2.8 5.8 2.8zm8-9.2s-1.5-1-4.2-2.9-6.4-4.6-10.8-8c-2.2-1.7-4.6-3.6-7.1-5.5-2.5-2-5.1-4.1-7.8-6.4-2.7-2.3-5.5-4.5-8.2-7-1.4-1.2-2.8-2.4-4.2-3.7-1.4-1.2-2.8-2.5-4.1-3.7-2.8-2.5-5.4-5.1-8.1-7.6-2.7-2.5-5.1-5.1-7.6-7.6-.6-.6-1.2-1.2-1.8-1.9-.6-.6-1.2-1.3-1.7-1.9-1.1-1.2-2.2-2.5-3.3-3.7-2.2-2.3-4-4.8-5.8-6.9-.4-.5-.9-1.1-1.3-1.6s-.8-1.1-1.2-1.6c-.8-1-1.5-2-2.2-2.9-.7-.9-1.3-1.8-1.9-2.6-.5-.8-1-1.6-1.4-2.3-1.7-2.8-2.7-4.3-2.7-4.3s1.1 1.5 3.1 4.1c.5.6 1 1.4 1.6 2.1.6.7 1.3 1.5 2.1 2.4.7.9 1.5 1.8 2.3 2.7.4.5.8 1 1.3 1.5s.9 1 1.4 1.5c.9 1 1.9 2.1 2.9 3.2s2 2.3 3.2 3.4c1.1 1.1 2.3 2.3 3.4 3.5l1.8 1.8 1.8 1.8c2.5 2.4 5 4.9 7.7 7.4 1.3 1.3 2.7 2.5 4 3.8 1.3 1.3 2.7 2.5 4.1 3.7 1.4 1.3 2.7 2.5 4.1 3.8 1.4 1.2 2.7 2.5 4.1 3.7 2.7 2.4 5.4 4.8 8 7.1 2.6 2.3 5.2 4.5 7.6 6.6 2.4 2.1 4.7 4.1 6.8 5.9 8.5 7.3 14.1 12.1 14.1 12.1zM576.5 57.4s.2.4.5 1.1c.1.3.3.8.5 1.2.2.5.5 1 .8 1.5.3.6.6 1.2 1 1.8.4.6.8 1.3 1.2 1.9.5.6.9 1.3 1.4 1.9.5.6 1 1.3 1.6 1.9.6.6 1.1 1.2 1.7 1.8.6.6 1.2 1.1 1.8 1.6.6.5 1.2.9 1.8 1.4.6.4 1.1.8 1.7 1.1 1 .7 1.9 1.1 2.6 1.4.3.1.6.3.7.3l.2.1h.1c.6.3 1 1 .7 1.6s-1 1-1.6.7h-.1s-.1-.1-.3-.2c-.2-.1-.5-.3-.8-.4-.7-.4-1.6-1-2.6-1.8-.5-.4-1.1-.9-1.6-1.3-.5-.5-1.2-1-1.7-1.6-.6-.6-1.2-1.2-1.7-1.8-.6-.6-1.1-1.3-1.6-2l-1.5-2.1c-.5-.7-.9-1.4-1.3-2.1-.4-.7-.7-1.4-1-2.1-.3-.6-.6-1.3-.8-1.9-.2-.6-.5-1.1-.6-1.6-.2-.5-.3-.9-.4-1.3-.6-.7-.7-1.1-.7-1.1z"/>
        </g>
        <path fill="none" stroke-linecap="round" d="M579.5 82.2c7.4 8.9 20.8 17.6 36.8 32.9s23.4 23 72.6 59.2c8.2 6.1 19.2 12.9 27.6 18.2 13.7 8.7 18.5 10.5 22.2 10.4"/>
        <g stroke="none" fill="#000">
          <path d="M562 60.9s.8 1.6 2.2 3.8c.7 1.1 1.5 2.4 2.5 3.7.9 1.3 2 2.7 3.1 4.1.5.7 1.1 1.3 1.7 1.9.6.6 1.2 1.2 1.7 1.8.6.5 1.2 1.1 1.7 1.5.6.4 1.1.9 1.6 1.3.5.3 1 .7 1.4.9.4.3.8.5 1.1.6l1 .5.1.1c.6.3.9 1.1.5 1.7-.3.6-1.1.9-1.7.5 0 0-.1 0-.1-.1 0 0-.4-.2-1.1-.7-.3-.2-.8-.5-1.2-.8-.4-.3-.9-.7-1.5-1.2-.5-.5-1-1-1.6-1.5-.5-.6-1.1-1.2-1.6-1.8-.5-.7-1.1-1.3-1.6-2s-1.1-1.4-1.6-2.1c-1-1.5-1.9-2.9-2.8-4.4-.8-1.4-1.5-2.8-2.1-4-1-2.2-1.7-3.8-1.7-3.8zm48.4 18.3s.2.4.2 1v.5c0 .2-.1.4-.2.6-.1.2-.2.4-.4.6-.2.2-.3.4-.6.5-.2.1-.4.3-.7.4-.2.1-.5.2-.7.2-.5.1-.9.2-1.2.2h-1.2c-.7 0-1.3-.6-1.3-1.3 0-.7.6-1.3 1.3-1.3.2 0 .3 0 .5.1h.1s.1 0 .2.1c.1 0 .2.1.3.1.1 0 .2.1.3.1.2.1.6.2.9.2h1c.2 0 .3-.1.4-.2.1-.1.3-.2.4-.3.1-.1.2-.2.3-.4.1-.1.1-.3.2-.4.2-.3.2-.7.2-.7zm-18.2 57.6s.4.6 1 1.6c.7 1.1 1.7 2.6 2.9 4.7 1.2 2 2.7 4.5 4.4 7.4 1.6 2.9 3.5 6.1 5.4 9.7 1.9 3.6 3.9 7.5 5.9 11.7 2.1 4.2 4.2 8.6 6.2 13.3 2.1 4.6 4.2 9.5 6.3 14.4 2.1 4.9 4.1 9.9 6.2 15 2 5 4 10.1 5.9 15.1.5 1.2.9 2.5 1.4 3.7.4 1.3.9 2.5 1.3 3.8.9 2.5 1.6 5 2.4 7.4.7 2.4 1.5 4.8 2.1 7.2.6 2.4 1.3 4.7 1.9 6.9 1.2 4.5 2.3 8.8 3.2 12.7 1.9 7.9 3.2 14.6 4.2 19.2.9 4.7 1.3 7.3 1.3 7.3s-.7-2.6-1.8-7.2c-.6-2.3-1.3-5.1-2.1-8.3-.9-3.2-1.8-6.8-2.9-10.7-1.1-3.9-2.3-8.1-3.6-12.6-1.3-4.5-2.8-9.1-4.4-13.9-1.6-4.8-3.3-9.7-5.2-14.7-1.9-4.9-4-10-6-15-4-10.1-8.1-20.1-12.1-29.4-2-4.7-4-9.2-5.9-13.4-1.9-4.2-3.8-8.2-5.5-11.9l-2.6-5.2c-.8-1.7-1.6-3.2-2.3-4.7-1.5-2.9-2.8-5.5-4-7.6-2.3-4.2-3.6-6.5-3.6-6.5zm40.9 28.5s.9 2 2.4 5.5c.7 1.8 1.7 3.9 2.8 6.3 1.1 2.4 2.3 5.1 3.8 8.1 2.8 5.9 6.1 12.8 9.6 20.2 1.8 3.7 3.6 7.5 5.5 11.4l5.7 11.7c3.8 7.9 7.6 15.7 11.2 23.1 3.6 7.4 6.9 14.3 9.7 20.2 5.7 11.8 9.3 19.8 9.3 19.8s-4.4-7.6-10.6-19.1c-3.1-5.8-6.7-12.5-10.4-19.8-1.8-3.7-3.8-7.4-5.7-11.3-1.9-3.9-3.8-7.8-5.8-11.7-1.9-3.9-3.8-7.9-5.6-11.8-1.9-3.9-3.6-7.7-5.3-11.5-1.7-3.7-3.3-7.4-4.8-10.8-1.5-3.4-2.9-6.7-4.1-9.8-.6-1.5-1.2-3-1.8-4.4-.5-1.4-1.1-2.7-1.5-4-1-2.5-1.8-4.7-2.4-6.5-1.3-3.5-2-5.6-2-5.6zM443.6-85.3s.4-.1.8-.1c.5 0 .9.2 1.3.5s.7.7.8 1.2c.2.4.1.8.1.8s-.4.1-.8.1c-.5 0-.9-.2-1.3-.5s-.7-.7-.8-1.2c-.1-.4-.1-.8-.1-.8zm2.6 4.9s.4-.1.7 0c.4.1.7.2.9.5.2.3.3.7.3 1 0 .4-.2.7-.2.7s-.4.1-.7 0c-.4 0-.7-.2-.9-.5-.2-.3-.3-.7-.3-1 .1-.4.2-.7.2-.7zm3.5 6s.4-.1.7 0c.4.1.7.3 1 .5.2.3.3.7.3 1.1 0 .4-.2.7-.2.7s-.4.1-.7 0c-.4-.1-.7-.3-1-.5-.2-.3-.3-.7-.3-1.1.1-.3.2-.7.2-.7zm3.8 7.4s.4-.1.8 0 .8.4 1.1.8c.2.4.3 1 .2 1.4-.1.4-.4.7-.4.7s-.4-.1-.7-.3c-.3-.2-.6-.5-.8-.8-.2-.3-.2-.7-.2-1.1-.1-.3 0-.7 0-.7zm1.8 6.4h.3c.2 0 .4.1.7.2.5.2 1 .8 1.2 1.4.2.7.2 1.4-.1 1.9-.2.5-.6.7-.6.7s-.3-.3-.5-.7c-.3-.4-.5-.8-.7-1.3-.2-.4-.2-.9-.3-1.4v-.8zm.5 7.8.2.2c.1.1.3.3.4.5.3.5.3 1.2 0 1.8-.3.6-.8 1.1-1.3 1.2-.5.2-.9.1-.9.1s0-.4.1-.8c0-.4.1-.8.3-1.2.2-.4.4-.7.7-1.1.1-.2.3-.3.4-.4 0-.2.1-.3.1-.3zm-2.8 5.6s.3.3.4.7c.2.4.2 1 .1 1.5s-.4 1-.7 1.3c-.3.3-.7.5-.7.5s-.3-.3-.4-.7c-.2-.4-.2-1-.1-1.5s.4-1 .7-1.3c.3-.3.7-.5.7-.5zm-2.9 4.1s.2.3.2.8c.1.5-.1 1-.4 1.4-.3.4-.8.8-1.2.9-.4.1-.8.1-.8.1s-.1-.4 0-.8c0-.4.2-.9.4-1.2.2-.4.6-.7 1-.8.4-.3.8-.4.8-.4zm17.2-54.2s.4-.1 1 .1c.5.2 1.1.6 1.4 1.2.4.6.5 1.3.4 1.8-.1.5-.3.9-.3.9s-.4-.2-.8-.5-.8-.7-1-1.2c-.3-.5-.5-1-.6-1.5-.1-.2-.1-.5-.1-.6v-.2zm2.6 8.5h.3c.1 0 .4.1.6.2.4.3.8.9.7 1.6 0 .7-.4 1.3-.9 1.5-.2.1-.4.2-.6.1h-.3s0-.4-.1-.8-.1-.7-.1-1c0-.3.1-.6.2-.9 0-.2.1-.3.1-.5.1-.1.1-.2.1-.2zm.2 7.1s.3.1.6.4c.2.3.3.7.3 1-.1.3-.4.6-.7.7-.3.1-.7 0-.7 0s-.2-.3-.3-.6c-.2-.3-.2-.5-.2-.7.1-.2.3-.4.5-.5.2-.1.5-.3.5-.3zm-3.7 2.4s.1 0 .2.1c.1 0 .3.2.3.3.2.3.1.9-.2 1.2-.3.3-.8.4-1.2.1-.2-.1-.3-.2-.3-.4-.1-.1-.1-.2-.1-.2s.2-.3.2-.6-.1-.4 0-.5c0 0 .2.1.5 0 .1 0 .3 0 .4-.1.1.1.2.1.2.1zm1.7 51.8-.3.9c-.2.5-.5 1.3-.7 2.2-.1.5-.2.9-.2 1.5-.1.5-.1 1.1-.1 1.6 0 1.1.1 2.4.2 3.7v2c0 .7-.1 1.4-.3 2-.3 1.3-.9 2.5-1.6 3.3-.4.4-.8.8-1.1 1-.3.2-.6.4-.8.6-.4.4-.4.7-.4.7s-.1-.1-.1-.2c0-.2-.1-.4 0-.8.1-.3.3-.7.5-1 .2-.4.4-.7.6-1.1.3-.8.6-1.8.6-2.9 0-.5.1-1.1.1-1.7 0-.6 0-1.3-.1-1.9 0-1.3-.1-2.7.1-4 .1-.7.3-1.3.5-1.9.2-.6.5-1.1.7-1.6.5-.9 1.1-1.6 1.6-2 .5-.2.8-.4.8-.4zm-9.4 23.7s0 .2.1.6v1.5c-.1.6-.3 1.3-.6 2.1-.3.7-.9 1.5-1.7 2.1-.2.1-.4.3-.6.4-.1.1-.2.1-.4.2l-.3.1c-.5.2-.9.2-1.3.3-.8.1-1.5 0-2 0-.6 0-1-.1-1.4-.1h-.6s.1-.2.4-.5c.3-.3.7-.6 1.3-.9.6-.3 1.2-.5 1.8-.7.3-.1.6-.2.8-.3l.3-.1.1-.1c.1-.1.2-.2.3-.2.9-.6 1.7-1.8 2.4-2.7.4-.5.7-.8.9-1.1.3-.5.5-.6.5-.6z"/>
        </g>
        <path stroke-linecap="round" stroke-linejoin="round" d="M550.3 109.1c-1.9 1.7-2.6 9.5-2.2 11 .4 1.5.7 2.9-.8 3.9-1.8 1.2-2.8 3-2.5 5.2-.6.2-1.3-.5-1.8-.1-.2.1-.2.3-.3.5-.6 1.7-.9 3.5-.9 5.2-.3-.1-.5-.4-.7-.7-.2-.3-.5-.5-.8-.3-.1.1-.2.2-.3.4-.4.8-.5 1.6-.5 2.5.1 3.1-2 1.6-2.8-.2-.6-1.2-1.3-2.9-1.3-4.3-.9.4-1.6.7-2.2 1 0 0 1.1-3.3 1-4.5-.9.1-2-.1-3.7.5-1.7.6-7.5 3.2-7.5 1.7 0-1.5 1.2-2.8 1.2-4.3-.1-1.9.7-5.4 1.1-7.9.8-6.1-2.9-15.4-5.6-19.7-4.3-6.7-5-11.4-4.9-11.9"/>
        <g stroke="none" fill="#000">
          <path d="M513.7 87.5v-.4c0-.1 0-.3-.1-.4-.1-.7-.4-1.7-.6-2.7-.2-1-.5-2-.6-2.8-.1-.8-.1-1.3-.1-1.3 0-.1.1-.1.1-.1.1 0 .1 0 .1.1 0 0 .1.5.4 1.1.3.7.8 1.6 1.3 2.4.5.9 1 1.8 1.4 2.5.1.2.2.4.2.5 0 .1.1.2.1.3 0 .1.1.3.1.4v.5c.1.7-.4 1.3-1.1 1.4-.7.1-1.3-.4-1.4-1.1.1-.1.1-.2.2-.4zm40.1 16.8s-.2.3-.5.8-.6 1.2-.8 1.9c-.3.7-.5 1.4-.7 1.9-.1.3-.2.5-.2.7 0 .1 0 .1-.1.3-.1.2-.2.3-.2.3-.5.5-1.3.4-1.8-.1s-.4-1.3.1-1.8l-.2.2.1-.1c.1-.1.3-.3.4-.5.4-.4.9-1 1.4-1.6.5-.6 1.1-1.1 1.5-1.5.5-.4.8-.6.8-.6.1 0 .1 0 .2.1 0-.1 0-.1 0 0zm-12.3 26.4s0-.1.1-.4c.1-.2.1-.5.2-.9.1-.8 0-2.1 0-3.3 0-1.2-.2-2.4-.4-3.3-.2-.9-.5-1.4-.5-1.4s.4.5.9 1.3.9 2 1.3 3.2c.3 1.2.7 2.4.9 3.4.1.5.1 1 .1 1.3v.5c0 .7-.6 1.2-1.3 1.2s-1.2-.6-1.2-1.3c-.1-.1-.1-.2-.1-.3zm-3.1 5.2s0-.1.1-.3c.1-.2.2-.4.3-.8.2-.7.4-1.6.4-2.6s0-2-.2-2.7c-.1-.8-.3-1.2-.3-1.2s.3.4.7 1.1c.4.7.8 1.7 1.1 2.7.3 1 .4 2.1.4 3v1.4c0 .7-.6 1.2-1.3 1.2-.7 0-1.2-.6-1.2-1.3v-.5zm6.5-19.5s-.1-.2-.2-.5-.3-.7-.6-1c-.5-.8-1.2-1.8-1.9-2.9-.3-.6-.7-1.3-.9-2-.2-.7-.3-1.4-.2-2 .1-.6.3-1.1.4-1.4.2-.3.3-.4.3-.4s.1.2.2.5.3.7.5 1.1c.2.4.5.9.8 1.3.3.5.6 1 1 1.6.3.6.7 1.2.9 1.9.2.7.3 1.4.3 2 0 .6-.2 1.1-.3 1.4-.1.2-.2.3-.2.3l-.1.1z"/>
        </g>
      </g>
    </g>
  </g>
</svg>
