<svg xmlns="http://www.w3.org/2000/svg" fill="#d7374a" stroke="#000" viewBox="50 50 200 200">
  <metadata source="http://wappenwiki.org/images/3/30/Stubenweg.svg" license="https://creativecommons.org/licenses/by-nc-sa/3.0"/>
  <g id="talbotSejant" stroke-width="3" transform="translate(47 69.8) scale(0.131)">
    <path class="secondary" d="M205.5 524.5c1.3 0 1.3-5.5 9.6-9.6 5.3-2.8 13-1.2 13-1.2l2.5-13.9-24.4-5.7-18.1-5.1-10 2.9s-2.2.2-3.8 7.4c-1.1 5.1.7 13.5 3 13.5 1.3 0 3.1-7.1 12.4-11.5-.2.5-.4 1.7-.5 1.6-1.5 7.2-.5 15.5 1.8 15.5 1.3 0 4.1-7.3 13.4-11.7.2-.1-.8 1.4-1.2 3.5-1.4 7.2 0 14.3 2.3 14.3M377.9 524.5c1.3 0 1.3-5.5 9.6-9.6 5.3-2.8 13-1.2 13-1.2l2.5-13.9-24.4-5.7-18.1-5.1-10 2.9s-2.2.2-3.8 7.4c-1.1 5.1.7 13.5 3 13.5 1.3 0 3.1-7.1 12.4-11.5-.2.5-.4 1.7-.5 1.6-1.5 7.2-.5 15.5 1.8 15.5 1.3 0 4.1-7.3 13.4-11.7.2-.1-.8 1.4-1.2 3.5-1.4 7.2-.1 14.3 2.3 14.3"/>
    <path d="M364.1 496c-.3 0-4.5-2.6-7.7-3.8-6.9-1.2-7.4 1.2-7.6 1.2-.7 0-2.8-3.1-1.6-6 1.1-2.9 2.8-5.2 6.5-5.2 5.1-.9 7.5-3.1 11.4-4.1 5.6-1.4 11.9 2.2 16.1 1.9 4.2-.3-5.8 6.8-6.6 8.6-.9 1.8-10.5 7.4-10.5 7.4z"/>
    <path d="M488.7 412.2c4.6-13.8 5-28.6 5.2-43.2.3-13.8.3-28.5-6.9-40.3-9.3-15.1-27.8-21.2-44.9-26.2-15-4.4-30.4-8.8-46-7.4-19.4 1.8-17.6 9.2-25.5 24.1-5.9 11.2-28.2 19.1-30.7 34.3-2 12.2-2.3 22.5 1 34.4 4.6 16.4 10.5 32.6 20.2 46.6 5.4 7.9 12 15 18.5 22 3.2 3.4 10.5 7.9 15 9.5 3.8 1.4 7.6 1.9 11.4 3.6 2.2 1 4.7 2 7 1.3.4-.1.9-.3 1.3-.2.6.2.8.9 1.2 1.4.9 1.5 2.9 1.9 4.6 1.8 1.7-.1 3.5-.4 5.1 0 1.3.4 2.5 1.3 3.7 2a17 17 0 0 0 16.5.4c.6-.3 1.2-.4 1.9-.4 1.9.2 3.8.2 5.7 0 1.5-.2 3 .7 3.5 2.2.8 2.2 1.2 5.2-2.4 6.1-10.2 3.4-35.6 1.6-44.9.6-5.1-.6-18.9-4.9-24.2-4.8-5.3.1-8.2 2.2-12.7 4.2-.3.1-3.9-.8-7 3.6-.6.7-1 1.7-1.3 2.7-.7 2.3 1.2 4.6 3.6 4.4 2.8-.3 7.3.6 13.9 5.8l.6.6c.2.2.5.3.5.3s3.2-2.1 7.5-.3c.2.1.3.2.5.3 6.4 3.8 8.1 8.8 8.5 11 .3 1.3 1.3 2.4 2.6 2.7 1 .2 2.3.3 4.2 0 2.1-.3 5.8-1.5 7.4-3.5.7-.9 1.9-1.4 3-1.3 2.6.2 4.6 1.7 7.4 2.4 3.6.8 8.2-2.1 11.2-.2 1.3.8 6.7 1.7 10.2 1.3 7.5-.9 14-4.1 22-3.8 5.1.2 10.1 1.6 15.3 1.6 1.5 0 3-.3 4.4-1 1.7-.9 2.9-1.8 5-2 3.4-.4 6.5-1.4 9.8-2.1 4.1-.8 8.9-.2 13.1-.2 1.3 0 2.5 0 3.8-.2 3.6-.4 7.7-2.8 8.5-6.5.8-3.7-2.2-7.5-3.5-10.7-1.4-3.3-.8-8.7.1-12.9.6-3.2 4.9-3.7 6.4-.8M285.5 298.1c-3.5-9.5-1.1-21 5.9-28.4 2.2-2.4 4.9-4.4 6.5-7.2 2.6-4.8 1.4-10.7.1-16-2-7.6-4.3-15.1-6.8-22.5-1.4-4.1-3.2-8.5-6.8-10.9-3.2-2.1-7.2-2.3-11-2-7.4.6-14.6 2.9-21.7 5.2-15.7 5.1-22.4 11-31.3 24.9-9.3 14.5-15.6 29.6-15.5 45.3.1 15.1.6 30 1.7 45.1v.2c.1 13.4 8.6 38 8.5 48-.3 38.1-2 50.6-2 57.9 0 4.7-1 14-1 17.2 0 .3 0 .5-.1.8a96 96 0 0 1-4.8 14.5c-.1.2-.2.3-.3.5-6.7 10.7-16.6 1.8-24.8 9.6-.5.5-1.1.7-1.7.8-3 .6-4.4 3.8-5.5 6.4-1.1 2.9.9 6 1.6 6 .2 0 1.5-2.4 7.2-1.3l.9.3 5.7 2.8c.9.4 1.9.5 2.9.1 2.2-.9 7.2-1.6 16.1 5.3l.6.6c.2.2.5.3.5.3s3.2-2.1 7.5-.3c.2.1.3.2.5.3 6.1 3.7 7.9 8.4 8.5 10.7.3 1.3 1.3 2.2 2.6 2.5 1 .2 2.4.4 4.3.4 4.4 0 6.2.7 9.6-1.8 5.2-3.8 4-2.8 7.6-9.7 0 0 4.2-9.1 4.2-16.9 0-7.8-3.3-20.4-4-25.2 0 0-1-8.1-1.5-19.2-.5-11 7-53.6 11.2-65.8 3.5-10.2 8.4-28.9 18.6-36.6 2.6-1.9 5.7-8.6 7.2-12.2 0-.1.1-.2.1-.3 1.5-4.5 3.4-16.2-5.3-21.2-.1-.1-.2-.1-.4-.2-3.1-2.5 0-7.4 3.6-5.7"/>
    <g>
      <path fill="none" d="M204.5 484c-.2.2-7.4-.8-10.6 3.6-2.1 2.5-3.4 8.1-2.2 8.3M362.1 501.3c0-.8 1.2-5.4 3-6.4"/>
      <g stroke="none" fill="#000">
        <path d="M353.6 480.8c1.7.2 3.3.5 4.9 1.1.8.2 1.6.6 2.3 1 .7.4 1.5.8 2 1.5l-.2.2c-.6-.4-1.4-.6-2.1-.8l-2.3-.3c-1.5-.1-3.1.1-4.6.3v-3zM372.2 482.5c1.1.1 2.2.3 3.3.6 1.1.3 2.1.6 3.2 1 1 .4 2 .9 2.9 1.5.9.6 1.8 1.2 2.6 2l-.2.2c-.9-.5-1.9-1-2.8-1.3-1-.3-2-.6-3-.8-1-.2-2-.3-3-.3s-2 0-3 .1v-3zM359.9 498.5c-.9.9-1.8 1.7-2.6 2.6-.9.8-1.7 1.6-2.6 2.4-1.7 1.6-3.3 3.3-5.1 5l-.3-.1c.3-1.3.9-2.4 1.6-3.5.7-1.1 1.5-2 2.5-2.9 1.8-1.6 4-3 6.5-3.5zM376 502.4c-1.1 1-2.2 1.8-3.3 2.7-.3.2-.5.4-.8.7l-.8.7c-.5.4-1 .9-1.5 1.4-1 .9-1.9 1.9-2.9 2.9-.9 1-1.8 2.1-2.7 3.2l-.3-.1c.2-1.5.9-2.8 1.7-4.1.8-1.2 1.8-2.4 2.9-3.4 1.1-1 2.3-1.9 3.6-2.5 1.2-.8 2.6-1.2 4.1-1.5zM394.9 509.9c-1.7.4-3.3.8-4.8 1.3s-3 1.1-4.3 2c-.7.4-1.3.9-1.9 1.4-.7.5-1.3 1-1.9 1.6l-3.7 3.4-.3-.2c.7-1.6 1.6-3.1 2.8-4.4 1.1-1.3 2.4-2.5 3.9-3.5 1.6-1 3.3-1.6 5-1.8 1.7-.3 3.5-.3 5.2.2zM394.8 489.2c2.8-1.1 5.7-1.6 8.6-1.7 2.9-.1 5.8.1 8.6.6a58 58 0 0 1 8.2 2.1c2.7.9 5.3 2 7.6 3.7l-.1.3c-2.8-.6-5.4-1.3-8-2-2.6-.7-5.3-1.2-8-1.5-2.7-.3-5.4-.5-8-.3-2.6.2-5.2.7-7.7 1.6l-1.2-2.8z"/>
      </g>
    </g>
    <g stroke="none" fill="#000">
      <path d="m181.3 479.5 1.3.2 1.3.3c.9.2 1.7.5 2.6.9.8.4 1.6.8 2.3 1.4.7.6 1.3 1.2 1.7 2l-.3.1c-.5-.6-1.3-1-2-1.3-.7-.3-1.5-.5-2.3-.6-.8-.1-1.6-.2-2.4-.2l-1.2.1-1.2.1v-3zM204.6 482.5l1.6.3c.5.1 1.1.3 1.6.4a15.66 15.66 0 0 1 5.7 3c.8.7 1.5 1.5 2.1 2.4l-.3.2c-.7-.7-1.5-1.3-2.4-1.8a13.52 13.52 0 0 0-5.6-1.6c-.5-.1-1 0-1.4-.1h-1.4l.1-2.8zM431.9 511.7c.1-.6.3-1.2.6-1.6.3-.4.6-.8 1-1 .7-.5 1.4-.9 2.1-1.2 1.4-.6 2.7-1 4.1-1.4l4-1.2c1.3-.4 2.6-1 3.6-2-.8 1.2-2 2-3.3 2.7-1.3.7-2.5 1.2-3.8 1.9-1.2.6-2.5 1.2-3.5 2-.5.4-1 .8-1.4 1.2-.4.4-.5.8-.4.9l-3-.3z"/>
    </g>
    <path fill="none" d="M189.7 501.3c0-.8 1.2-5.4 3-6.4"/>
    <g stroke="none" fill="#000">
      <path d="M230.2 262.7c-3.2 3.8-5.3 8.2-6.9 12.7-.7 2.3-1.4 4.6-1.8 6.9-.5 2.3-.8 4.7-1 7.1-.3 2.4-.4 4.8-.5 7.3-.2 2.4-.2 4.9-.4 7.3-.3 4.9-.7 9.9-1.9 14.7-.1-4.9-.3-9.8-.5-14.7-.1-2.5-.1-4.9-.1-7.4s.2-5 .4-7.5c.5-5 1.6-10 3.6-14.6 2.1-4.6 5.1-8.9 9.1-11.8zM217.8 475.2c.2-1.8.5-3.4.8-5.1l.8-5 .7-5c.2-1.7.4-3.4.7-5.1.5 1.7.7 3.4.8 5.2.1 1.7 0 3.5-.3 5.2-.3 1.7-.7 3.4-1.2 5.1-.6 1.6-1.3 3.2-2.3 4.7zM187.6 498.5c-.9.9-1.8 1.7-2.6 2.6-.9.8-1.7 1.6-2.6 2.4-1.7 1.6-3.3 3.3-5.1 5l-.3-.1c.3-1.3.9-2.4 1.6-3.5.7-1.1 1.5-2 2.5-2.9 1.7-1.6 3.9-3 6.5-3.5zM203.6 503.5c-.5.5-1.1.9-1.6 1.3l-1.6 1.2c-.5.4-1.1.8-1.6 1.2l-1.5 1.2c-1 .8-2 1.7-2.9 2.6-.9.9-1.9 1.8-2.8 2.8l-.3-.1c.3-1.4 1-2.6 1.9-3.8.8-1.1 1.8-2.1 2.9-3 1.1-.9 2.3-1.6 3.5-2.2 1.3-.6 2.6-1 4-1.2zM222.5 509.9c-1.7.4-3.3.8-4.8 1.3s-3 1.1-4.3 2c-.7.4-1.3.9-1.9 1.4-.7.5-1.3 1-1.9 1.6l-3.7 3.4-.3-.2c.7-1.6 1.6-3.1 2.8-4.4 1.1-1.3 2.4-2.5 3.9-3.5 1.6-1 3.3-1.6 5-1.8 1.7-.3 3.5-.3 5.2.2z"/>
    </g>
    <path d="M392.4 351.1c-1.1-1.1-6.1-5-9-6.2-11.5-5.3-26.7-7.3-26.7-7.3s-6.2-.5-5.9-4.1c.1-1.4.6-3.4 2.8-4.5 6.6-3.2 24-4.1 24-4.1"/>
    <path class="secondary" d="M222.1 534.8c1.3 0 1.3-5.5 9.6-9.6 5.3-2.8 13-1.2 13-1.2l2.5-13.9-24.4-5.7-18.1-5.1-10 2.9s-2.2.2-3.8 7.4c-1.1 5.1.7 13.5 3 13.5 1.3 0 3.1-7.1 12.4-11.5-.2.5-.4 1.7-.5 1.6-1.5 7.2-.5 15.5 1.8 15.5 1.3 0 4.1-7.3 13.4-11.7.2-.1-.8 1.4-1.2 3.5-1.4 7.2 0 14.3 2.3 14.3M398.5 534.8c1.3 0 1.3-5.5 9.6-9.6 5.3-2.8 13-1.2 13-1.2l2.5-13.9-24.4-5.7-18.1-5.1-10 2.9s-2.2.2-3.8 7.4c-1.1 5.1.7 13.5 3 13.5 1.3 0 3.1-7.1 12.4-11.5-.2.5-.4 1.7-.5 1.6-1.5 7.2-.5 15.5 1.8 15.5 1.3 0 4.1-7.3 13.4-11.7.2-.1-.8 1.4-1.2 3.5-1.4 7.2 0 14.3 2.3 14.3"/>
    <path d="M384.8 506.3c-.3 0-4.5-2.6-7.7-3.8-6.9-1.2-7.4 1.2-7.6 1.2-.7 0-2.8-3.1-1.6-6 1.1-2.9 2.8-5.2 6.5-5.2 5.1-.9 7.5-3.1 11.4-4.1 5.6-1.4 11.9 2.2 16.1 1.9 4.2-.3-5.8 6.8-6.6 8.6-.9 1.8-10.5 7.4-10.5 7.4z"/>
    <path d="M235.9 71.5c0 13.3-15.4 11.8-25.6 28.4-8.3 13-28.4 24.6-29.1 47.2-9.4 17.3-10.7 41.9-2 59.3 2.6 9.6-2.4 26.5 8.9 44.7 10.5 17.1 18.6 17.8 24.3 23.9 3.9 4.2 10.2 6.4 10.2 6.4-3 23.9-.3 50 .5 60.6 0 13.4 8.6 38.1 8.5 48.1-.3 38.1-2 50.6-2 57.9 0 4.9-1.1 14.8-1 17.5 0 0-1.9 8.4-5 15.1-6.9 11.4-17.2 1.4-25.7 10.6-3.7 0-5.3 3.6-6.5 6.5-1.1 2.9.9 6 1.6 6 .2 0 1.6-2.5 7.6-1.2l7.7 3.8s5.2-5.1 17.7 4.9c.1.3.6.6.6.6s3.3-2.2 7.8-.2c8.6 5.1 8.9 12.2 8.9 12.2s.8 1.5 6.6 1.5c4.4 0 6.2.7 9.6-1.8 5.2-3.8 4-2.8 7.6-9.7 0 0 4.2-9.1 4.2-16.9 0-7.8-3.3-20.4-4-25.2 0 0-1-8.1-1.5-19.2-.5-11 7-53.6 11.2-65.8 3.5-10.2 8.4-28.9 18.6-36.6 2.6-2 5.8-8.7 7.3-12.3 1.5-4.4 3.5-16.4-5.4-21.4 0 0-5.4-3.8-1.5-8.4 27.8 16.5 62.2 2.4 87.2 27.1-15.9 7.9-23.7 14.5-25.8 26.7-2 12.2.7 24.6 4.1 36.4 4.6 16.4 10.5 32.6 20.2 46.6 5.4 7.9 12 15 18.5 22 3.2 3.4 10.5 7.9 15 9.5 3.8 1.4 7.6 1.9 11.4 3.6 2.2 1 4.7 2 7 1.3.4-.1.9-.3 1.3-.2.6.2.8.9 1.2 1.4.9 1.5 2.9 1.9 4.6 1.8 1.7-.1 3.5-.4 5.1 0 1.3.4 2.5 1.3 3.7 2 5.2 3.2 12.2 3.1 17.4-.1 3 .5 6 .3 8.9-.2 0 0 4.6 7-1.2 8.5-10.2 3.4-35.6 1.6-44.9.6-5.1-.6-18.9-4.9-24.2-4.8-5.3.1-8.2 2.2-12.7 4.2-.3.1-3.9-.8-7 3.6-2.1 2.5-2.4 8.1-1.1 8.3 0 0 5.2-5.1 17.7 4.9.1.3.6.6.6.6s3.3-2.2 7.8-.2c8.6 5.1 8.9 12.2 8.9 12.2s.9 2.4 6.6 1.5c2.5-.4 7.2-2 8.1-4.7 3.8-.8 6.1 1.4 9.8 2.3 3.6.8 8.2-2.1 11.2-.2 1.3.8 6.7 1.7 10.2 1.3 7.5-.9 14-4.1 22-3.8 5.4.3 10.6 1.7 16 1.6.8-.3 1.7-.5 2.6-.6 2.3-1 3.5-2.2 6-2.5 3.4-.4 6.5-1.4 9.8-2.1 4.1-.8 8.9-.2 13.1-.2 1.3 0 2.5 0 3.8-.2 3.6-.4 7.7-2.8 8.5-6.5.8-3.7-2.2-7.5-3.5-10.7-2.5-6.1 1.6-19.1 1.6-19.1 3.6 2.3 3.5 2.8 5.4 6.6 2.9 5.7 8.5 10.1 14.8 11.4 5 7.1 12.1 5.8 14.7 7.3.8.4 1.4 1 2.2 1.6 7.7 5.5 17.7 1.9 26.3 1.6 7.1-.2 14.1-1.5 20.7-3.9a66.1 66.1 0 0 0 33.4-27.1c9.6-15.1 13.3-30.8 13.3-48.5 0-76.9-70.7-91.4-70.7-192.8-.9-30.4 9.9-52.7 6.7-56.7-5-.8-27.1 23.8-27.1 67.4 0 96.6 66 128.6 66 182 0 29.9-16.3 49.5-44.1 49.5-5.7 0-11.4-.8-16.8-2.8-12.2-4.5-20.6-14.8-24.8-26.8-1.9-5.4-2.9-11.1-3.3-16.8-.4-5.1.2-10.3 0-15.4-.3-5.4-.9-10.7-1.6-16-3.9-27.3-16.8-62.5-34.6-83.5-30.2-35.6-71.9-61.5-93.5-82.2-39.8-38.2-58.6-54.2-80.8-99.1-4.7-9.2-8.4-23.1-9.9-41.2-1-11.8-1.3-27.8 4.9-39.9"/>
    <path fill="none" d="M383.4 335c9.6-2.9 16.9-6.4 32.4-6.7 9.3-.2 22.5 3 34 8.5"/>
    <g stroke="none" fill="#000">
      <path d="M179.9 146.5c.7-1.3 1.4-2.7 2.2-3.9.9-1.3 1.9-2.4 2.9-3.4 2.2-2 4.5-3.6 6.2-5.8 3.6-4.6 8.2-8.1 12.6-11.7-4.2 3.9-8.3 7.9-11.5 12.5-1.6 2.5-3.9 4.5-5.7 6.5-1.8 2-3.1 4.4-4 7l-2.7-1.2zM544.9 481.2c-.3-.2-.5-.5-.8-.7-.2-.2-.3-.4-.4-.7-.3-.4-.4-.9-.7-1.3-.4-.8-.7-1.7-1-2.5-.6-1.6-1.1-3.3-1.6-4.9-.5-1.6-1.1-3.2-1.7-4.8-.7-1.5-1.4-3.1-2.7-4.2 1.4.9 2.4 2.5 3.3 3.9.9 1.5 1.7 3 2.5 4.5s1.5 3.1 2.3 4.6c.4.7.8 1.5 1.2 2.1.2.3.4.7.7.9l.3.4c.1 0 .1.1.2.1l-1.6 2.6zM530.5 398.1c-.6-2.2-1-4.3-1.4-6.4-.5-2.1-.9-4.2-1.4-6.2-.5-2.1-1.1-4.1-1.6-6.2-.6-2.1-1.2-4.2-1.7-6.4 1.6 1.6 2.9 3.5 3.9 5.5s1.8 4.1 2.4 6.3c.5 2.2.8 4.5.9 6.7-.2 2.2-.4 4.5-1.1 6.7zM540.9 390.7c.6 3.9.9 7.7 1.1 11.6.1 1.9.2 3.9.2 5.8l.1 5.8c0 3.9-.1 7.8-.4 11.6-.1 1.9-.2 3.8.1 5.6.2 1.8.7 3.7 1.9 5.3-1.6-1.1-2.7-3-3.3-4.9-.6-1.9-.9-4-1-5.9-.2-3.9-.3-7.7-.3-11.6l.1-5.8c.1-1.9.1-3.9.3-5.8.3-4 .6-7.9 1.2-11.7zM212.4 257.8c.3 4.3 1.8 8.3 3.6 12.1 1.9 3.7 4.3 7.2 7.2 10.2L221 282a43 43 0 0 1-6.3-11.5c-1.5-4-2.5-8.4-2.3-12.7zM353.8 295.1c.1 1.5.6 2.7 1.5 3.7.8 1 2 1.7 3.1 2.3 2.3 1.1 5.1 1.3 7.9 1.8 1.4.3 3 .6 4.4 1.2 1.5.6 2.8 1.5 4 2.4 2.3 1.9 4.1 4.1 6.3 6.1-2.8-.9-5.3-2.8-7.7-4.1-1.2-.7-2.4-1.3-3.6-1.7-1.2-.4-2.6-.7-4-.9-1.4-.2-2.8-.5-4.3-.9-1.4-.4-3-.9-4.3-1.9-1.3-.9-2.4-2.1-3.2-3.5-.5-1.4-.7-3.2-.1-4.5zM322.7 252.9c-.1 2.7.7 5.3 2.1 7.3 1.4 2.1 3.4 3.6 5.6 4.4.5.2 1.1.3 1.8.5s1.6.5 2.4 1.1c.8.7 1.2 1.5 1.5 2.2.3.7.5 1.3.7 2 .9 2.6 1.6 5.2 2.4 7.8l-1.7-.9a4.93 4.93 0 0 1 4.4.8c1.2.8 2 1.9 2.7 3 1.2 2.2 1.7 4.5 3.5 6.3-1.1-.5-2-1.5-2.8-2.5-.8-1-1.4-2-2.1-2.9-.7-.9-1.5-1.6-2.4-2.1-.9-.5-1.8-.6-2.4-.3-.6.3-1.3-.1-1.6-.7l-.1-.2c-.9-2.5-1.9-5-2.7-7.5-.2-.6-.4-1.3-.6-1.8-.2-.5-.5-.9-.7-1.1-.5-.5-1.8-.6-3.3-1.2-2.8-1.1-5-3.4-6.3-6-1.1-2.6-1.3-5.7-.4-8.2zM499.9 379c.4 1.4.4 2.8.2 4.2-.2 1.4-.6 2.7-1.2 3.9-.6 1.2-1.4 2.4-2.3 3.4-.9 1-2 1.9-3.4 2.4.4-1.4.9-2.6 1.4-3.8.5-1.2 1-2.3 1.6-3.4.5-1.1 1.1-2.2 1.7-3.4.6-1 1.2-2.1 2-3.3zM490.9 366c.9 1.6 1.2 3.5.9 5.4-.3 1.9-1.2 3.6-2.2 5.1-1 1.5-2.2 2.8-3.5 4-1.3 1.2-2.6 2.3-4.1 3.3.5-1.8 1.3-3.3 2.2-4.8.9-1.5 1.9-2.8 2.9-4.2.9-1.3 1.8-2.6 2.4-4 .7-1.4 1.1-3 1.4-4.8zM496.2 463.6c1.5 2.8 3.2 5.4 5.2 7.7 1 1.2 2 2.3 3.2 3.3a30.67 30.67 0 0 0 11.5 6.7c2.8.9 5.8 1.3 8.8 1.2h.1c.6 0 1 .4 1.1.9.4 1.9 1.3 3.8 2.8 5.2 1.4 1.5 3.4 2.4 5.6 2.8-2.2.4-4.6-.2-6.6-1.6-1-.7-1.8-1.5-2.6-2.5-.7-1-1.2-2.1-1.6-3.3l1.3.9c-3.3.4-6.6.2-9.8-.7-3.2-.9-6.2-2.5-8.8-4.5-2.6-2-4.8-4.5-6.6-7.2-1.8-2.8-3-5.8-3.6-8.9z"/>
      <path d="M485.1 448.5c.8 2.4 1.3 4.7 2.1 6.9s1.6 4.3 2.8 6.2c1.1 1.9 2.6 3.6 4.3 5 1.7 1.4 3.7 2.6 6.1 3.3-2.5.6-5.2-.1-7.4-1.3a15 15 0 0 1-5.5-5.4c-1.3-2.2-2.1-4.7-2.5-7.2a21 21 0 0 1 .1-7.5z"/>
      <path d="M465.2 440.1c1.1 2.5 2.3 4.8 3.8 6.8 1.5 2.1 3.2 3.9 5.1 5.5 1.9 1.6 4 3 6.3 4.2 2.3 1.2 4.7 2 7.4 2.7-2.7.6-5.6.3-8.2-.5-2.7-.8-5.2-2.2-7.4-4.1-2.2-1.8-3.9-4.1-5.2-6.6-1.2-2.5-1.9-5.3-1.8-8zM475.6 484.4l4-.6 2-.3c.9-.2 2 0 2.8.5.8.5 1.3 1 1.8 1.5s.9 1 1.4 1.5c.9.9 1.9 1.8 3 2.6s2.2 1.5 3.4 2c1.2.5 2.5.9 3.8 1.2 2.7.5 5.4.9 8.1 1.4-2.7-.2-5.5-.4-8.2-.7a18.74 18.74 0 0 1-7.9-2.7c-1.2-.7-2.3-1.6-3.4-2.5-1.1-.9-2.1-2-3-2.4-.4-.2-.8-.2-1.2-.1l-2 .5-4.1 1-.5-2.9zM450.4 335.4c5.2 2.8 10.1 6 14.4 10 2.2 2 4.1 4.2 5.8 6.6 1.6 2.4 2.9 5.1 3.5 7.9-.8-2.8-2.3-5.3-4.1-7.5-1.8-2.2-3.9-4.2-6.1-5.9-4.5-3.5-9.6-6.2-14.8-8.4l1.3-2.7z"/>
    </g>
    <g>
      <path fill="none" d="M221.1 494.4c-.2.2-7.4-.8-10.6 3.6-2.1 2.5-3.4 8.1-2.2 8.3M228.6 465.6c-.5 11.7-3.2 23.9-7.5 28.7"/>
      <g stroke="none" fill="#000">
        <path d="M374.3 491.1c1.7.2 3.3.5 4.9 1.1.8.2 1.6.6 2.3 1 .7.4 1.5.8 2 1.5l-.2.2c-.6-.4-1.4-.6-2.1-.8l-2.3-.3c-1.5-.1-3.1.1-4.6.3v-3zM392.9 492.8c1.1.1 2.2.3 3.3.6 1.1.3 2.1.6 3.2 1 1 .4 2 .9 2.9 1.5.9.6 1.8 1.2 2.6 2l-.2.2c-.9-.5-1.9-1-2.8-1.3-1-.3-2-.6-3-.8-1-.2-2-.3-3-.3s-2 0-3 .1v-3z"/>
      </g>
      <path fill="none" d="M397.6 517s1.9-3 5.5-5.2M382.8 511.6c0-.8 1.2-5.4 3-6.4"/>
      <g stroke="none" fill="#000">
        <path d="M564.7 498.9c-.6-1.1-1-2.1-1.5-3.1-.4-1.1-.8-2.1-1.1-3.3-.3-1.1-.5-2.3-.5-3.4s.2-2.3.9-3.2c-.4 1-.3 2.1-.1 3.2.2 1 .6 2 1.1 2.9.5.9 1 1.8 1.7 2.7.6.9 1.3 1.7 1.9 2.5l-2.4 1.7zM380.6 508.9c-.9.9-1.8 1.7-2.6 2.6-.9.8-1.7 1.6-2.6 2.4-1.7 1.6-3.3 3.3-5.1 5l-.3-.1c.3-1.3.9-2.4 1.6-3.5.7-1.1 1.5-2 2.5-2.9 1.7-1.7 4-3.1 6.5-3.5zM396.6 512.8c-1.1 1-2.2 1.8-3.3 2.7-.3.2-.5.4-.8.7l-.8.7c-.5.4-1 .9-1.5 1.4-1 .9-1.9 1.9-2.9 2.9-.9 1-1.8 2.1-2.7 3.2l-.3-.1c.3-1.5.9-2.8 1.7-4.1.8-1.2 1.8-2.4 2.9-3.4 1.1-1 2.3-1.9 3.6-2.5 1.3-.8 2.6-1.3 4.1-1.5zM415.5 520.2c-1.7.4-3.3.8-4.8 1.3s-3 1.1-4.3 2c-.7.4-1.3.9-1.9 1.4-.7.5-1.3 1-1.9 1.6l-3.7 3.4-.3-.2c.7-1.6 1.6-3.1 2.8-4.4 1.1-1.3 2.4-2.5 3.9-3.5 1.6-1 3.3-1.6 5-1.8 1.8-.3 3.5-.3 5.2.2zM415.4 499.5c2.8-1.1 5.7-1.6 8.6-1.7 2.9-.1 5.8.1 8.6.6a58 58 0 0 1 8.2 2.1c2.7.9 5.3 2 7.6 3.7l-.1.3c-2.8-.6-5.4-1.3-8-2-2.6-.7-5.3-1.2-8-1.5-2.7-.3-5.4-.5-8-.3-2.6.2-5.2.7-7.7 1.6l-1.2-2.8z"/>
        <path d="M400.9 511.6c-.1-.6-.1-1.1-.1-1.6s.1-1 .2-1.5a9.38 9.38 0 0 1 2.9-5.2c.4-.3.8-.7 1.1-.9.4-.3.7-.5 1.1-.7 1.5-.9 3.2-1.7 5.1-2.2 1.8-.4 3.9-.4 5.7.4h-.1c1.2.4 2.5.8 3.6 1.3 1.2.5 2.3 1.2 3.4 1.9s2 1.6 2.9 2.6c.8 1 1.6 2 2 3.3l-.3.1a25.35 25.35 0 0 0-8.8-5.8c-.5-.2-1.1-.4-1.7-.5-.6-.2-1.1-.3-1.7-.4h-.1c-2.7-.9-5.7.2-8.3 1.9-.3.2-.7.4-1 .7-.3.2-.6.4-.8.7-.5.5-.9 1-1.2 1.6-.3.6-.6 1.2-.7 1.9-.1.3-.1.7-.1 1v1l-3.1.4z"/>
      </g>
    </g>
    <path fill="none" d="M221.2 239.5c-.7 5.9-1.5 15.9-.6 24.6.7 6.7 3 10.6 2 17.3M296.2 307.9c6.4-14.8 15.7-30.8 17.2-56.6 0-.8.1-1.6.1-2.3M221.2 517s1.9-3 5.5-5.2M206.3 511.6c0-.8 1.2-5.4 3-6.4"/>
    <g stroke="none" fill="#000">
      <path d="M452.6 522c.1-.6.3-1.2.6-1.6.3-.4.6-.8 1-1 .7-.5 1.4-.9 2.1-1.2 1.4-.6 2.7-1 4.1-1.4l4-1.2c1.3-.4 2.6-1 3.6-2-.8 1.2-2 2-3.3 2.7-1.3.7-2.5 1.2-3.8 1.9-1.2.6-2.5 1.2-3.5 2-.5.4-1 .8-1.4 1.2-.4.4-.5.8-.4.9l-3-.3zM509.6 518.1c.7-.5 1.4-1.3 2.2-2l2.2-2.1c.8-.7 1.5-1.4 2.3-2 .8-.6 1.7-1.3 2.6-1.6-.9.5-1.5 1.3-2.1 2.1-.6.8-1.2 1.6-1.7 2.5l-1.7 2.6c-.6.9-1.1 1.7-1.8 2.6l-2-2.1zM484.8 518.8c1.3-.1 2.6-.4 3.8-1 1.2-.6 2.3-1.4 3.4-2.3 1.1-.9 2.1-2 3.1-3 1.1-1 2.2-2 3.6-2.5-1.3.7-2.2 1.8-3.1 3-.9 1.2-1.7 2.4-2.6 3.5-.9 1.2-2 2.3-3.3 3.2-1.3.9-2.8 1.6-4.4 2l-.5-2.9zM462.4 477c2.3 1.5 4.6 2.9 6.9 4.4 1.1.8 2.2 1.5 3.4 1.9 1.2.5 2.4.8 3.7 1.1l-.9 2.9c-1.3-.6-2.6-1.2-3.8-2-1.2-.8-2.3-1.8-3.3-2.7-2-1.9-4.1-3.8-6-5.6zM403.6 449.4c-1.5-.4-2.8-1.5-3.7-2.8-.9-1.3-1.5-2.9-1.7-4.5-.1-1.6.1-3 .3-4.4.2-1.3.4-2.6 0-4.1.7.4 1.2 1 1.6 1.7.4.7.6 1.5.7 2.3.3 1.5.3 3 .4 4.2.1 1.2.4 2.4.8 3.7.3 1.2.9 2.5 1.6 3.9zM437.1 464.9c1.2.4 2.2.9 3.1 1.4a10.52 10.52 0 0 1 4.7 4.9c.5 1.1.7 2.3.7 3.5-1.1-.7-1.9-1.5-2.6-2.2-.8-.7-1.5-1.4-2.2-2.2-.7-.7-1.5-1.5-2.2-2.4-.6-.7-1.3-1.8-1.5-3zM413.7 453.8c.3 1.4.5 2.6.9 3.8.3 1.1.7 2.2 1.2 3.3a30.13 30.13 0 0 0 3.8 6.3c-1.5-.1-2.8-.7-3.9-1.7-1.1-.9-2-2.1-2.6-3.5-.6-1.3-.9-2.8-.8-4.3 0-1.3.4-2.8 1.4-3.9zM240.4 257.7c-.7-.7-1.2-1.6-1.6-2.5-.4-.9-.6-1.9-.7-2.8-.1-1.9.2-4 1.1-5.7v.7c-.2-.8-.1-1.5.2-2.2.3-.6.7-1.2 1.3-1.4-.2 1.2.1 2.2.6 2.8l.1.1-.1.6-.5 5-.2 2.6c.1.9 0 1.8-.2 2.8zM251.9 269.1c-1.1-.9-1.9-2-2.6-3.2-.7-1.2-1.1-2.4-1.5-3.8-.3-1.3-.5-2.7-.4-4 .1-1.4.3-2.7.9-4 .7 1.3 1.1 2.5 1.5 3.7.4 1.2.7 2.4 1 3.6.3 1.2.6 2.4.8 3.7.1 1.3.3 2.6.3 4zM262.4 272.8c-.6.1-1.2-.1-1.8-.4-.5-.3-1-.8-1.3-1.3a13.65 13.65 0 0 1-2.1-5.7c-.1-1-.2-2.1.1-3.2.9.7 1.6 1.6 2.1 2.4.5.9 1 1.8 1.3 2.7.3.9.6 2 .7 2.8.3.9.3 1.7 1 2.7zM274.9 278.6c-1.4-.3-2.6-1-3.5-2a9.88 9.88 0 0 1-2.8-7.5c.1-1.3.3-2.6.8-3.9.7 1.2 1.1 2.4 1.5 3.6.4 1.2.7 2.3 1.1 3.3.4 1 .8 2.1 1.3 3.1.4 1.1 1 2.2 1.6 3.4zM284.3 274.3c1.8-1.6 3.5-3.1 5.1-4.6 1.6-1.5 3.2-3.1 4.7-4.7s2.9-3.3 4.3-5.1c.7-.9 1.4-1.7 1.7-2.6.4-1 .5-2.1.8-3.3.4 1.1.7 2.3.6 3.6 0 .6-.2 1.3-.4 1.9-.2.6-.5 1.1-.8 1.7a26.89 26.89 0 0 1-9.6 10.5c-1.8 1.1-4 2.1-6.4 2.6zM227.4 208.9c-1.3-4.3-1.6-8.8-1.2-13.3.2-2.3.7-4.5 1.2-6.7.6-2.2 1.4-4.3 2.4-6.4 2-4.1 4.7-7.8 7.7-11.1 3.1-3.3 6.5-6.1 10.2-8.6-2.9 3.4-5.8 6.7-8.4 10.1-2.6 3.4-5 7-6.8 10.9a46.5 46.5 0 0 0-4 12.1c-.8 4.2-1.1 8.5-1.1 13zM197.9 489.8l1.3.2 1.3.3c.9.2 1.7.5 2.6.9.8.4 1.6.8 2.3 1.4.7.6 1.3 1.2 1.7 2l-.3.1c-.5-.6-1.3-1-2-1.3-.7-.3-1.5-.5-2.3-.6-.8-.1-1.6-.2-2.4-.2l-1.2.1-1.2.1v-3zM221.2 492.9l1.6.3c.5.1 1.1.3 1.6.4a15.66 15.66 0 0 1 5.7 3c.8.7 1.5 1.5 2.1 2.4l-.3.2c-.7-.7-1.5-1.3-2.4-1.8a13.52 13.52 0 0 0-5.6-1.6c-.5-.1-1 0-1.4-.1h-1.4l.1-2.8zM264 411.6c-1.7-4.2-1.8-8.9-1.2-13.3.2-2.2.7-4.4 1.2-6.6.5-2.2 1.1-4.3 1.7-6.4 1.2-4.2 2.6-8.4 3.6-12.6 1-4.2 1.8-8.4 1.7-12.9 1.4 4.3 1.2 8.9.6 13.3s-1.8 8.7-3 13l-1.8 6.3c-.6 2.1-1.1 4.2-1.6 6.3-1 4.2-1.6 8.4-1.2 12.9zM291.2 337.1c.2-1.7-.2-3-.7-4.3-.2-.7-.5-1.3-.7-2l-.8-2.1c-.5-1.3-1-2.5-1.8-3.2-.2-.2-.4-.3-.7-.5-.3-.1-.6-.3-1-.4-.4-.2-.8-.3-1.2-.6-.4-.3-.7-.7-.8-1.1.7.4 1.4.3 2.2.2.4 0 .8-.1 1.2 0 .5 0 1 .2 1.4.4.9.4 1.7 1.1 2.2 1.9.6.7.9 1.5 1.2 2.3.3.8.5 1.5.7 2.3.2.8.3 1.6.3 2.5 0 .8 0 1.7-.3 2.6-.1.6-.6 1.4-1.2 2zM312 248.9c.8-10.7.1-21.6-2.1-32.3 3.1 10.4 4.9 21.3 5.1 32.4l-3-.1zM229.4 214.9c-1.9 3.9-3.5 8-4.6 12.1-1.1 4.1-1.8 8.4-2.1 12.6l-3-.3c.7-4.4 2-8.7 3.6-12.8 1.7-4 3.8-7.9 6.1-11.6zM234.4 485.5c.2-1.8.5-3.4.8-5.1l.8-5 .7-5c.2-1.7.4-3.4.7-5.1.5 1.7.7 3.4.8 5.2.1 1.7 0 3.5-.3 5.2-.3 1.7-.7 3.4-1.2 5.1-.6 1.6-1.3 3.2-2.3 4.7zM201.4 160.4c-2.5 1.2-4.1 3.4-5.2 5.8-1.2 2.4-1.9 4.9-2.7 7.5-.7 2.6-1.5 5.2-2 7.8a102.79 102.79 0 0 0-2.6 15.9c-.3 2.7-.4 5.3-.6 8-.2 5.4 0 10.8.3 16.2-1.6-5.2-2.4-10.7-2.6-16.2-.1-2.7-.1-5.5.1-8.3.1-2.8.5-5.5.9-8.2.5-2.7 1-5.4 1.8-8.1.7-2.7 1.6-5.3 2.6-7.8.5-1.3 1-2.5 1.6-3.8.6-1.3 1.3-2.5 2-3.7.8-1.2 1.7-2.3 2.8-3.2 1-1 2.3-1.6 3.6-1.9zM204.2 508.9c-.9.9-1.8 1.7-2.6 2.6-.9.8-1.7 1.6-2.6 2.4-1.7 1.6-3.3 3.3-5.1 5l-.3-.1c.3-1.3.9-2.4 1.6-3.5.7-1.1 1.5-2 2.5-2.9 1.7-1.7 3.9-3.1 6.5-3.5zM220.2 513.9c-.5.5-1.1.9-1.6 1.3l-1.6 1.2c-.5.4-1.1.8-1.6 1.2l-1.5 1.2c-1 .8-2 1.7-2.9 2.6-.9.9-1.9 1.8-2.8 2.8l-.3-.1c.3-1.4 1-2.6 1.9-3.8.8-1.1 1.8-2.1 2.9-3 1.1-.9 2.3-1.6 3.5-2.2 1.3-.6 2.6-1.1 4-1.2zM239.1 520.2c-1.7.4-3.3.8-4.8 1.3s-3 1.1-4.3 2c-.7.4-1.3.9-1.9 1.4-.7.5-1.3 1-1.9 1.6l-3.7 3.4-.3-.2c.7-1.6 1.6-3.1 2.8-4.4 1.1-1.3 2.4-2.5 3.9-3.5 1.6-1 3.3-1.6 5-1.8 1.7-.3 3.5-.3 5.2.2zM238.1 500.4c.6-1.1 1.3-1.9 2-2.8.7-.8 1.3-1.7 1.9-2.5 1.1-1.7 2.2-3.6 2.1-5.7.3 1 .3 2.2.1 3.2-.2 1.1-.5 2.2-.9 3.2s-.8 2-1.3 3c-.4 1-.9 1.9-1.1 2.8l-2.8-1.2z"/>
      <path d="M224.5 511.6c-.1-.6-.1-1.1-.1-1.6s.1-1 .2-1.5a9.38 9.38 0 0 1 2.9-5.2c.4-.3.8-.7 1.1-.9.4-.3.7-.5 1.1-.7 1.5-.9 3.2-1.7 5.1-2.2 1.8-.4 3.9-.4 5.7.4h-.1c.6.2 1.2.4 1.7.6.6.2 1.1.4 1.7.7a15 15 0 0 1 3.2 1.9c1 .7 1.9 1.6 2.6 2.6.7 1 1.3 2.1 1.5 3.3l-.3.1c-1.4-1.9-3.1-3.3-4.9-4.4-.9-.6-1.9-1-2.9-1.4-.5-.2-1-.3-1.6-.5l-1.6-.4h-.1c-2.7-.9-5.7.2-8.3 1.9-.3.2-.7.4-1 .7-.3.2-.6.4-.8.7-.5.5-.9 1-1.2 1.6-.3.6-.6 1.2-.7 1.9-.1.3-.1.7-.1 1v1l-3.1.4z"/>
    </g>
    <g>
      <g>
        <path class="tertiary" d="M250.9 46.2s-24.4-15.8-46.2-15.7c-22.7.1-36.3 10.4-48.8 10.5-21.2.3-20.7-9.7-22.5-9.7-1.7.5-2.3 4.4.4 9.5 2.5 4.6 8.9 10.3 22.9 9.9 20-.1 29.5-9.1 48.6-9.2 25.5-.1 43.8 13.3 43.8 13.3"/>
        <g fill="#f6f6f6" stroke-width="2.5">
          <path d="M168.7 44.5c-.8-.4-3.8 7.4-5 13.1.2-.1.4-.1.5-.2 2.3-.6 4.2-.5 5.9-.1-.1-4.3-.8-12.5-1.4-12.8zM161.6 34.8c1.1-.8-1.7-4.7-3.1-12.7-.3-1.4-.3-2.7-.2-4-2.5-.2-5 .2-7.7-.5-.5-.1-2.3-.3-2.7-.4 1.6 5.8 6.7 16.5 13.7 17.6z"/>
        </g>
        <path d="M344.9 65.1c3.4-17.6 4.4-28.9-1.1-45.9-3.5-10.8-10.2-21.6-11.9-33-.6-4.3-.6-2.6-1.3-6.9 0-16.9-7-31.3-20.7-40.3-6.8-4.5-19.8-11.8-41.3-11.8-11 0-19.2 2.3-30.3 3.8-12.7 2-18.7 6.5-25.7 8.3-9.2 2.5-14.4 3.4-15.7 10.2.3 1.9-.3 3.9-1.9 4.9s-6 2.8-10.5 3.1c-8.8.6-14.1 3.1-20.2 5.7-8.1 3.9-5.9 1.1-14.5 3.6-3.9.4-12.2-.1-13.3 3.7-3.4 9.8 3.3 13.6 3.3 16.5 0 0-2 6.9-.9 15.7.7 4.9 2.3 12.3 5 13.7 1.9 1.3 3.7 1.9 5.4 2.3 4.7.9 8.8 1.4 13.6 4 4.8 2.6 11.8 2.8 17 1 2.5-.8 5.1-2.4 7.3-4 1.6-1.2 3.5-3.3 5.5-3.6 2.3-.4 8 1.4 10.4 1.5 12.8.1 14.2 2.6 20.4 7.7 6.7 5.4 5.8 7.7 9.3 13.1 3.5 5.4 5 13.6 4.4 17.4-.7 3.8-10.8.6-14.5 1.7s-5.4 1.8-14.4 2.4c-6.7.5-14.3-3.8-20.4-2.2-13.8 3.5-14.7-2.6-23.5-.3-2.7 1.1-7.7-.2-7.2 1.6-.9.5.1 4.4 2.8 6.1 4.2 3.2 9.3 4.1 14.4 3.3 5.9-.9 4.7-.3 14.5 0 16.4 1.5 9.2 2.2 22.1 3 15.9.4 15.8-1.8 25.1.1"/>
        <g>
          <path d="M275.8-17.7a60.1 60.1 0 0 1-3.2 17.3c-2.7 7.7-4.4 15.2-5.9 23.3-1.8 9.6.2 19.5 3.3 28.7 2.6 7.8 5.2 15.7 9 23.1 5.4 10.5 11.7 14.5 17.5 21.7 1.8 2.3 3.8 4.7 6.6 5.7 4.5 1.7 9.5-.7 13.7-3.1 2.7-1.5 5.4-3 8.1-4.6 3.4-1.9 16.9-13.1 20.1-29.4"/>
          <g stroke="none" fill="#000">
            <path d="M212.3-53.8c1.9-1.1 4-1.7 6.2-1.9 2.2-.3 4.4-.1 6.6.7 1.1.4 2.1.8 3 1.4.9.5 1.9 1 2.8 1.6 1.8 1.1 3.5 2.3 5.5 3.1-2.1-.2-4.2-1-6.1-1.8-2-.8-3.9-1.6-5.8-2.2-1.9-.4-3.9-.5-5.9-.6-2.1 0-4.2 0-6.3-.3zM253.4 59.2c-.4 1-.5 1.9-.7 2.9-.2 1-.4 1.9-.7 2.9-.3 1-.6 2-1.4 3l-.3.4c-.1.1-.3.2-.4.4-.3.2-.4.3-.6.5l-1.2.9a15.5 15.5 0 0 1-5.9 2.5c-2.1.4-4.1.5-6.2.4v-3c1.9 0 3.9-.1 5.7-.3.9-.1 1.8-.3 2.6-.6s1.6-.7 2.5-1.1c.4-.2.8-.5 1.3-.7.2-.1.5-.3.6-.4.1 0 .1-.1.2-.1l.2-.2c.5-.5.9-1.4 1.3-2.3l1.2-2.7c.3-1 .9-2 1.8-2.5zM232.6-12c1-.3 2.1-.4 3.1-.2s2 .5 2.9.9c.9.5 1.7 1.1 2.4 1.8s1.3 1.6 1.6 2.6c-1-.3-1.9-.7-2.7-1l-2.4-1.2c-.8-.4-1.6-.8-2.3-1.3-.9-.4-1.7-.9-2.6-1.6zM264.5-23.7c.8.6 1.3 1.3 1.8 1.9.5.6.9 1.2 1.2 1.9.3.6.6 1.3.9 2 .2.7.5 1.5.6 2.5-1-.1-1.8-.6-2.5-1.1a7.32 7.32 0 0 1-2.4-4.5c-.1-.9 0-1.8.4-2.7zM184.8-10.2c.9-.5 2-.5 3-.3s1.9.7 2.7 1.4c.8.6 1.4 1.4 1.9 2.2.5.8.8 1.7.9 2.8-1-.4-1.7-.9-2.4-1.5-.7-.5-1.3-1.1-2-1.6-.6-.5-1.2-1-1.9-1.5-.6-.5-1.3-1-2.2-1.5zM172.5-14.1c.6-.6 1.3-.9 2-1 .7-.1 1.4-.1 2.1.1a4 4 0 0 1 1.8 1c.5.5.9 1 1.2 1.8-.8.3-1.5.3-2.1.3-.6 0-1.2-.1-1.7-.3-.5-.2-1-.4-1.5-.7-.6-.2-1.2-.6-1.8-1.2zM237.4-2.2c1.6-.1 3.1.1 4.6.5 1.5.4 3 1.1 4.2 2.2a9.5 9.5 0 0 1 2.6 4c.5 1.4.8 2.7 1.5 4.1-1.6-.5-2.7-1.9-3.6-3-.9-1.2-1.6-2.1-2.6-2.9-.9-.8-2-1.6-3.2-2.4-1-.6-2.3-1.4-3.5-2.5zM222.9 10.8c3 2.3 6.1 4.3 8.9 6.9 2.9 2.5 5.3 5.5 7.5 8.7 1.1 1.6 2.1 3.2 3 4.9.9 1.7 1.8 3.5 2.3 5.3 1.1 3.7 1.3 7.9-.1 11.4.2-3.8-.6-7.3-2.1-10.6-.7-1.6-1.6-3.2-2.6-4.7-1-1.6-2-3.1-3-4.6-2.1-3-4.2-6-6.7-8.7-2.3-2.8-5.1-5.5-7.2-8.6zM265.6-52.1c1.7 2.5 3.2 5.1 4.7 7.8 1.4 2.7 2.6 5.5 3.7 8.4a53.4 53.4 0 0 1 3.4 18.2l-3-.1c.4-5.8-.4-11.8-2.1-17.5-1.7-5.7-4.1-11.3-6.9-16.6l.2-.2zM329.1-20.6c-.6-5.3-2.1-10.5-4.4-15.4-2.3-4.9-5.4-9.4-9.6-12.9l.2-.2c2.3 1.5 4.3 3.4 6.2 5.5 1.8 2.1 3.4 4.4 4.8 6.8C329-31.9 331-26.6 332-21l-2.9.4z"/>
          </g>
        </g>
      </g>
      <g>
        <path d="M196.8-50.5c0 2.5.2 5.3 2.6 7.1"/>
        <g stroke="none" fill="#000">
          <path d="M200.3-44.6c.2.2.8.4 1.4.5l1.9.3c1.4.1 2.8.1 4.2 0 2.8-.2 5.7-.5 8.4-1.1.6-.1 1.4-.4 2.2-.5l2.3-.3c1.5-.1 3.1 0 4.5.2 3 .4 5.9 1.6 8.1 3.5-2.7-1.1-5.5-1.7-8.3-1.9-1.4-.1-2.8 0-4.2.2-.7.1-1.4.2-2 .4l-2.1.6c-2.9.8-5.8 1.3-8.8 1.6-1.5.1-3 .2-4.6.2-.8 0-1.6-.1-2.4-.3-.8-.2-1.7-.4-2.6-1.1l2-2.3zM150.7-18.6c.4.6.5 1.3.4 2-.1.7-.4 1.3-.8 1.8s-.9.9-1.5 1.2c-.6.3-1.2.5-1.9.5.2-.7.5-1.2.8-1.7.3-.5.6-.9.9-1.3l.9-1.1c.5-.4.8-.8 1.2-1.4zM150.4-26.4c.4.1.8.4 1 .8.2.4.3.9.3 1.3 0 .5-.1.9-.3 1.4-.2.5-.6.8-.9 1.1-.7.6-1.5 1-2.3 1.3l-.5.2c-.2.1-.4.2-.5.2-.2.1-.5.3-.7.6-.9 1-1.5 2.4-2.2 3.9-.4.7-.8 1.5-1.4 2.3a4.26 4.26 0 0 1-3.1 1.7v-3c.1 0 .2 0 .4-.1s.4-.3.6-.5c.4-.5.8-1.1 1.3-1.7.9-1.3 1.6-2.9 3.1-4.1.4-.3.8-.6 1.3-.8.3-.1.5-.2.7-.2l.6-.2c.8-.2 1.5-.4 2.1-.8.3-.2.6-.4.8-.6.2-.2.4-.5.5-.9-.1-.5-.1-1.3-.8-1.9z"/>
        </g>
        <path fill="#f6f6f6" d="M230.2-32.3s-4.8 1.4-8.8 3.3c-4 1.8-13.6.4-15-2.3-.7-1.8.2-8.5 3.2-9.3 3.8-1.7 7.3-1.4 12.5 1.8 5.1 3.2 8 6.5 8.1 6.5z"/>
        <g stroke="none" fill="#000">
          <path d="M206.6-30.8c-1.3.2-2.7.5-4 .8-1.3.3-2.7.6-3.9 1l-.2-.3c1.1-.9 2.3-1.6 3.5-2.3l3.6-2.1 1 2.9zM178.1-27.2c0-.8.3-1.5.6-2.2a7 7 0 0 1 1.3-1.7c.5-.5 1.1-1 1.8-1.3.7-.3 1.5-.5 2.3-.3l.1.4c-.5.6-.8 1.1-1.2 1.6-.4.5-.8.9-1.3 1.4-.5.4-1 .8-1.6 1.2-.5.4-1.1.7-2 .9zM239.3-34.8c-1-.9-1.8-1.6-2.8-2.3-1-.7-2-1.2-3-1.7-1.1-.5-2.2-.8-3.3-1.2-1.1-.4-2.3-.6-3.5-1.1v-.3c2.5-.5 5.2-.2 7.6.9 1.2.5 2.3 1.3 3.2 2.3.8 1 1.5 2.2 1.8 3.4zM196.8-33.6c-.8.9-1.6 1.5-2.4 2.1l-2.2 1.9c-.7.6-1.5 1.2-2.3 1.8-.8.6-1.6 1.2-2.6 1.8l-.4-.2c.1-1.2.6-2.3 1.2-3.2.6-1 1.4-1.8 2.3-2.5.9-.7 1.9-1.2 3-1.6 1.1-.3 2.3-.4 3.4-.2v.1zM222.8-9.5c.4-2.7.8-5.3 1.6-8 .8-2.6 2-5.3 4-7.4 1.9-2.2 4.5-3.8 7.2-4.6 2.7-.9 5.5-1 8.2-.8v.5c-2.6.8-5.1 1.6-7.4 2.6-2.3 1.1-4.3 2.5-5.9 4.3-1.7 1.8-2.9 4-4.1 6.3-1 2.4-2 4.9-3.6 7.1zM213.2-39.8c1.3 0 1.4 1.2 1.5 4 0 .8 0 1.5-.2 2.1-.3 1.8-.1 3-1 3-1 0-3-1.3-3.4-3.2-.1-.6-.2-1.2-.2-1.9-.1-2.7 2-3.9 3.3-4z"/>
        </g>
      </g>
    </g>
    <g stroke="none" fill="#000">
      <path d="M287.3 123c-.8.7-1.6 1-2.3 1.3-.8.3-1.6.4-2.4.4-.8 0-1.6 0-2.4-.2-.8-.2-1.6-.5-2.4-1.1.8-.7 1.6-1 2.3-1.3.8-.2 1.6-.4 2.4-.4.8 0 1.6 0 2.4.2.8.2 1.6.5 2.4 1.1zM297.7 110.2c.5.2.8.8.9 1.4.1.6-.1 1.2-.3 1.7-.5 1-1.4 1.8-2.5 2.2-1 .3-2 .3-2.8.2-.9-.1-1.6-.3-2.7-.6.5-.9 1.5-1.4 2.3-1.8.8-.3 1.6-.5 2.2-.7.5-.2 1-.4 1.6-.8.5-.2 1.1-.5 1.3-1.6z"/>
    </g>
  </g>
</svg>
