<svg xmlns="http://www.w3.org/2000/svg" fill="#d7374a" stroke="#000" viewBox="50 50 200 200">
  <metadata source="http://wappenwiki.org/images/7/7a/Wolseley.svg" license="https://creativecommons.org/licenses/by-nc-sa/3.0"/>
  <g id="talbotPassant" stroke-width="3" transform="translate(44.3 39.3) scale(0.138)">
    <path class="tertiary" d="M238.2 264.4s-23.1-15-43.7-14.9c-21.5.1-34.4 9.9-46.2 9.9-20.1.3-19.6-9.2-21.2-9.2-1.6.4-2.1 4.2.4 8.9 2.4 4.4 8.4 9.7 21.7 9.3 18.9-.1 27.9-8.6 45.9-8.7a75.7 75.7 0 0 1 41.5 12.6"/>
    <g stroke-width="2.5" fill="#f6f6f6">
      <path d="M160.5 262.8c-.7-.4-3.6 7-4.8 12.3l.5-.2c2.2-.6 3.9-.5 5.6-.1-.1-3.9-.7-11.7-1.3-12zM153.7 253.7c1-.8-1.6-4.4-3-12-.3-1.3-.3-2.6-.2-3.8-2.4-.1-4.7.2-7.3-.4-.4-.1-2.1-.2-2.6-.4 1.7 5.4 6.6 15.5 13.1 16.6z"/>
    </g>
    <g class="secondary">
      <path d="M222.5 684.4c.1.1-11.4 6.4-12.7 17.7-.2 1.7-.3 5.4.6 5.5.6.1 1-1.8 4.4-4.1 5.1-2.5 12.1-3.1 16.9-7M256.5 716.1c-4.7 4-11.6 4.8-16.6 7.6-3.2 2.4-3.6 4.3-4.2 4.3-.9-.1-.9-3.8-.8-5.5.8-11.3 12.1-18 12-18.1M290.2 675.7c1.2 2.5 3.1 1.4 5.8 4.5 1.5 1.9 2.9 4.9 3.3 5.1.6.2 1.5-1.8 1.8-2.9 1.7-6.5-.4-12.5-.3-12.5a124.2 124.2 0 0 0-17.5-15.7M586.1 684.4c.1.1-11.4 6.4-12.7 17.7-.2 1.7-.3 5.4.6 5.5.6.1 1-1.8 4.4-4.1 5.1-2.5 12.1-3.1 16.9-7M620.1 716.1c-4.7 4-11.6 4.8-16.6 7.6-3.2 2.4-3.6 4.3-4.2 4.3-.9-.1-.9-3.8-.8-5.5.8-11.3 12.1-18 12-18.1"/>
      <path d="M608.1 705.7c-4.7 4-11.6 4.8-16.6 7.6-3.2 2.4-3.6 4.3-4.2 4.3-.9-.1-.9-3.8-.8-5.5.8-11.3 12.1-18 12-18.1M653.8 675.7c1.2 2.5 3.1 1.4 5.8 4.5 1.5 1.9 2.9 4.9 3.3 5.1.6.2 1.5-1.8 1.8-2.9 1.7-6.5-.4-12.5-.3-12.5a43.7 43.7 0 0 0-13.7-12.7M243.4 706.8c-4.7 4-11.6 4.8-16.6 7.6-3.2 2.4-3.6 4.3-4.2 4.3-.9-.1-.9-3.8-.8-5.5.8-11.3 12.1-18 12-18.1M379.6 650.3c.1.1-11.4 6.4-12.7 17.7-.2 1.7-.3 5.4.6 5.5.6.1 1-1.8 4.4-4.1 5.1-2.5 12.1-3.1 16.9-7M413.6 682c-4.7 4-11.6 4.8-16.6 7.6-3.2 2.4-3.6 4.3-4.2 4.3-.9-.1-.9-3.8-.8-5.5.8-11.3 12.1-18 12-18.1"/>
      <path d="M401.6 671.5c-4.7 4-11.6 4.8-16.6 7.6-3.2 2.4-3.6 4.3-4.2 4.3-.9-.1-.9-3.8-.8-5.5.8-11.3 12.1-18 12-18.1M451.1 650.9c.6 2.7 2.7 2.1 4.6 5.8 1.1 2.2 1.6 5.5 2 5.7.5.3 1.9-1.4 2.5-2.4 3.2-5.9 2.5-12.2 2.6-12.2.6-6.8-.8-14.1-3.5-20.3"/>
    </g>
    <path d="M531.9 481.6c-4.1 24.7-21 39.6-24.5 50.5-2.7 8.5-3.5 17.7 5.7 20.1 6.1 1.6 12.1 3.6 15.4 8.7 6.3 9.7 8.9 23.7-3 29.4-2.9 1.4-6.1 2-8.9 3.7-2.8 1.6-4.9 4.1-7.2 6.3-4.1 4-8.9 7.4-14 10-6.6 6.3-2.5 7.1-13.4 12.2-12.2 8.5-16.7 22.8-19.3 25.1-1.6-.5-3.2-1.2-4.9-1.1-3.7.2-6.1 1.4-6.8 4.3-5.8 4.5-4.5 9.5-8.3 14.9a29.4 29.4 0 0 1-14.3 12.2c-7.5 2.9-14.6 5.9-16.4 4.5.5-2.5-1.7-5.3-4.6-7.9-6-4.2-8.6-1.3-8.6-1.3s0-5.4-5.2-9.1c-4-2.7-5.9-1.4-5.9-1.4s-.2-4-4-7.6c-5.2-4.7-7.5-2.8-7.5-2.8s-1.6-2.8 1.2-6.2c2-1.9 2.5-1.6 4.4-2 1.8-.4 1.3 0 4.6-1.3 6.4-3.3 13.7 4 23.1-1.3 2.3-.9 11.6-5.5 14.2-7.9 6.5-5 11.5-4 15-11.5 11.3-22.6 31.9-37.7 33.6-49.6.6-3.5-4-4.8-7.3-6.8-10.5-6.3-20.7-10.4-28.4-19.9a64.4 64.4 0 0 1-12.5-32.7c-1.8-11.6 6.4-27.4 13.3-36 8.3-10 21.4-22.6 29.7-32.6 16.4-19.9 42.8-35.2 68.5-35.8 7.8-.2 16 1.2 22.4 5.6 4.5 3 7.9 7.3 10.8 11.9a73.3 73.3 0 0 1 10.4 26.7"/>
    <path d="M504.7 447.4c-24.3 2.6-45.1 18.6-45.1 18.6s-4.7 4.3-7.2 1.6c-1-1-2.2-2.8-1.5-5.3 2.7-9.2 22.1-22.8 22.1-22.8"/>
    <g>
      <g class="secondary">
        <path d="M206.6 628.3c0-.2 12.8-2.5 17.5-12.9.7-1.6 1.9-5 1.1-5.4-.6-.3-1.6 1.4-5.4 2.6-5.6.9-12.4-.8-18.2 1.4M184 587.7c5.7-2.4 12.6-1 18.2-2.1 3.8-1.3 4.8-3 5.3-2.7.8.3-.3 3.8-.9 5.4-4.3 10.5-17 13.4-17 13.5M175.2 586.6c2.7-.6 2-2.7 5.7-4.6 2.2-1.1 5.5-1.7 5.7-2 .3-.5-1.4-1.8-2.4-2.4-5.9-3.2-12.2-2.5-12.3-2.6-6.5 3.8-13.6 8.5-19.3 13.4"/>
        <path d="M193.6 600.6c5.7-2.4 12.6-1 18.2-2.1 3.8-1.3 4.8-3 5.3-2.7.8.3-.3 3.9-.9 5.4-4.3 10.5-17 13.4-17 13.5"/>
      </g>
      <path d="M159.7 569.4c-.9-.8-11.6-8.7-12.3-9.7-2-2.8-5.2-9.3-7.2-12.1 2-4.1 6-7 7.1-11.4 1-3.7.9-7.6.5-11.4 9.7-.2 19.8-4.6 28.4-9.1 8.6-4.5 13.4-10.3 24.1-16a53.7 53.7 0 0 0 28.8-9.7c5.2-3.9 8.9-7.6 14.5-10.9L203 422c-.8 3.3-11.2 11.3-13.6 13.7-7.9 7.7-5.9 14.1-17.6 27.6-2.8 3.2-9.2 6.9-11.8 10.3-6.9 9-14.7 17.4-23.2 24.9a15.4 15.4 0 0 1-4.7 3.3c-1.9.8-4 1-5.9 1.7a20 20 0 0 0-9.2 8c-2.8 5.2-3 11.5-2.5 17.4.2 3.4.6 6.7.7 10.1.1 3.3-.8 9 .4 12.2a14 14 0 0 0 3 4.3l6.5 7.1c3 3.3 13 13.6 14.8 17.7 3.2 7.5 5.4 13 8.4 20.5.6 1.5 1.2 3 2.2 4.2a44 44 0 0 0 11.1 8.8c15.2 5.4 21.3 19.7 36.2 19.3 3.5-.2 2.9 0 4.8.2s2.3.7 4.8-.5c3.7-2.3 3-5.5 3-5.5s-2.7 1.1-6.2-5c-2.5-4.6-1.5-8.5-1.5-8.5s-2.2.7-5.2-3.1c-3.7-5.1-2.1-10.3-2.1-10.3s-3.4 1.9-7.8-3.9c-2-3.4-3.2-6.7-1.9-8.9-1.2-1.8-7.3.2-10.3-1-2.9-.7-4.1-2-4.4-5.7-.1-1.7.6-4.4 1.1-6-3.8-4.4-10.1-3.7-12.4-5.5z"/>
      <path fill="none" d="M202.6 613.7c-.5.5-.6 3-3.6 4.6-2.2 1.1-5 1.2-6.9-.4M195.3 600.3c-.4.5-.8 2.3-3.6 4.3-2 1.4-4.8 1.8-6.9.5"/>
      <g stroke="none" fill="#000">
        <path d="M202.2 634.7a12 12 0 0 1-6.3-4c-.8-.9-1.4-2-1.8-3.1a6 6 0 0 1-.3-3.5l1.6 2.9c.6.9 1.3 1.7 2.1 2.3.8.7 1.6 1.2 2.6 1.6.9.4 1.9.7 2.8.9l-.7 2.9zM202.6 616.8c1.4-.3 2.5-.1 3.7-.1l3.4.1c2.2 0 4.5-.2 6.6-1.2a15.2 15.2 0 0 1-6.5 2.2l-3.4.4c-1.1.1-2.3.2-3.1.5l-.7-1.9zM195.7 603.3c1.4-.3 2.5-.1 3.7-.1l3.4.1c2.2 0 4.5-.2 6.6-1.2a15.2 15.2 0 0 1-6.5 2.2l-3.4.4c-1.1.1-2.3.2-3.1.5l-.7-1.9zM185.4 589.9c1.4-.3 2.5-.1 3.7-.1l3.4.1c2.2 0 4.5-.2 6.6-1.2a15.2 15.2 0 0 1-6.5 2.2l-3.4.4c-1.1.1-2.3.2-3.1.5l-.7-1.9zM191.1 619l-1.8-1.7-1.7-2c-.5-.7-.9-1.5-1.3-2.4a5 5 0 0 1-.2-2.7l1.5 2 1.6 1.7 1.8 1.4 2 1.5-1.9 2.2zM184.1 606.4a14.6 14.6 0 0 1-4.1-3.9c-.5-.8-1-1.6-1.3-2.5-.3-.9-.5-1.8-.4-2.8l1.6 2.1a13.3 13.3 0 0 0 3.6 3.2l2.2 1.3-1.6 2.6z"/>
        <path d="M185.1 606.6c-2.2.2-4.4.1-6.6-.5-2.1-.5-4.1-1.5-5.8-2.8a30.6 30.6 0 0 1-4.6-4.2l-2-2.4-1-1.2c-.4-.3-.7-.8-1.2-.8.5 0 .9.4 1.3.7l1.1 1 2.2 2.1a29 29 0 0 0 4.9 3.5 15.5 15.5 0 0 0 11.1 1.5l.6 3.1zM192.2 619.4c-2.7.1-5.4-.4-7.8-1.3a39.3 39.3 0 0 1-12.8-7.8l-2.9-2.4-1.4-1.2c-.5-.4-1-.8-1.6-.9.6.1 1.1.5 1.7.8l1.6 1 3.1 2.1c2.1 1.4 4.2 2.6 6.3 3.7 2.2 1.1 4.4 2 6.7 2.6 2.3.6 4.6.8 6.8.4l.3 3z"/>
      </g>
    </g>
    <g stroke="none" fill="#000">
      <path d="M441 631.1c-.1 1.3-.6 2.4-1.1 3.5-.6 1.1-1.3 2.1-2.1 3a11 11 0 0 1-2.9 2.3c-1.1.6-2.2 1.1-3.5 1.3l2.5-2.6 2.4-2.5 2.3-2.6 2.4-2.4zM485.4 599.7c-.3 2.4-1.4 4.8-2.8 6.8a19.1 19.1 0 0 1-5.4 5.2l-3.1 1.8a12 12 0 0 0-2.6 1.8c-1.6 1.5-2.8 3.5-4.3 5.5.3-2.4 1-4.8 2.5-7 .7-1.1 1.8-2 2.9-2.7l3-1.9a40.7 40.7 0 0 0 9.8-9.5zM515.1 569.2c1 1.2 1.6 2.7 1.8 4.2a10.9 10.9 0 0 1-2.5 8.7 8.4 8.4 0 0 1-3.8 2.6l1.8-3.8a52 52 0 0 0 1.3-3.6c.4-1.2.6-2.5.9-3.8l.5-4.3zM485.5 525.5a37.3 37.3 0 0 0 15-13c2-2.7 3.7-5.5 5.4-8.5 1.7-2.9 3.4-5.9 5.3-8.8-.8 3.4-1.9 6.7-3.2 9.9-1.3 3.2-3 6.3-5.1 9.2a29.7 29.7 0 0 1-7.6 7.4c-2.9 2-6.3 3.5-9.8 3.8zM156.2 506.3c1.9-3 4.9-5.3 8-7 3.1-1.8 6.4-3 9.7-4.3l9.6-3.8c3.2-1.3 6.3-2.7 9.5-4.3a34.6 34.6 0 0 1-8.4 6.4 69.8 69.8 0 0 1-9.6 4.5c-3.3 1.3-6.6 2.3-9.7 3.6a40 40 0 0 0-9.1 4.9zM139.5 519.7c.5 2.3 1 4.5 1.2 6.8.3 2.3.3 4.8-.4 7.3a13.3 13.3 0 0 1-4.3 6.1 19 19 0 0 1-6.3 3.3c1.5-1.8 3.2-3.4 4.6-5 1.4-1.7 2.5-3.4 3-5.3.6-1.9.8-4.1 1-6.3.3-2.3.4-4.7 1.2-6.9z"/>
    </g>
    <path fill="none" d="M398.9 673.4c.2-.6 0-2.5 2.1-5.2 1.5-2 4-3.2 6.4-2.6M387.9 662.9c.3-.6-.3-3.1 2.1-5.5 1.7-1.7 4.4-2.6 6.7-1.7"/>
    <g stroke="none" fill="#000">
      <path d="M381.8 642.8c1.3-.1 2.5 0 3.8.4 1.2.3 2.4.8 3.4 1.5s2 1.5 2.7 2.4c.7.9 1.3 2.1 1.4 3.3-.8-.9-1.5-1.6-2.4-2.3a9.2 9.2 0 0 0-2.7-1.6c-1-.4-1.9-.7-2.9-.8h-3l-.3-2.9zM407.8 664.2l2.6.9c.9.4 1.7.9 2.5 1.5s1.4 1.3 2 2c.6.7 1 1.6 1.2 2.5l-2.2-1.5-2.1-1.2-2.3-.8-2.5-.5.8-2.9zM396.2 654.3l4.3-.9 4.3-1c1.4-.4 2.8-.8 4-1.5 1.3-.7 2.3-1.7 3.4-2.8-.8 1.2-1.7 2.4-2.9 3.4s-2.6 1.7-3.9 2.3c-1.4.7-2.8 1.1-4.1 1.7l-4.2 1.7-.9-2.9z"/>
      <path d="m406.8 664.3 3.9-1.5 3.9-1.5c1.2-.5 2.5-1.2 3.5-2 1.1-.8 1.9-1.9 2.8-3-.6 1.2-1.3 2.5-2.2 3.6-1 1.1-2.1 2-3.3 2.8l-3.6 2.2-3.8 2.1-1.2-2.7zM386.9 660c-1.2.7-2.4.9-3.5 1.2l-3.3.9c-2.1.7-4.3 1.6-5.9 3.2 1.4-1.8 3.5-3.1 5.5-4.1l3.2-1.4c1-.4 2.1-.9 2.8-1.4l1.2 1.6zM398.7 669.6c-1.2.7-2.4.9-3.5 1.2l-3.3.9c-2.1.7-4.3 1.6-5.9 3.2 1.4-1.8 3.5-3.1 5.5-4.1l3.2-1.4c1-.4 2.1-.9 2.8-1.4l1.2 1.6zM411.6 680.3c-1.2.7-2.4.9-3.5 1.2l-3.3.9c-2.1.7-4.3 1.6-5.9 3.2 1.4-1.8 3.5-3.1 5.5-4.1l3.2-1.4c1-.4 2.1-.9 2.8-1.4l1.2 1.6zM397.3 654.3l2.2 1.1 2.2 1.4c.7.5 1.4 1.2 1.9 1.9s.9 1.6 1 2.5l-2-1.5-2-1.1-2.2-.8-2.4-.8 1.3-2.7z"/>
    </g>
    <path d="M313.6 201.1c0-16-6.6-29.6-19.6-38.1a68.3 68.3 0 0 0-39.1-11.1c-10.4 0-18.2 2.1-28.7 3.6-12 1.9-17.7 6.2-24.3 7.9-8.7 2.4-13.7 3.2-14.9 9.7.3 1.8-.3 3.7-1.8 4.7s-5.7 2.6-9.9 3c-8.3.6-13.4 2.9-19.1 5.4-7.7 3.7-5.6 1-13.7 3.4-3.7.3-11.5-.1-12.5 3.5-3.3 9.3 3.1 12.9 3.1 15.6 0 0-1.9 6.5-.8 14.8.7 4.7 2.2 11.7 4.7 13 1.8 1.2 3.5 1.8 5.1 2.1 4.5.9 8.3 1.4 12.9 3.8a22.1 22.1 0 0 0 16 1c2.4-.8 4.8-2.3 6.9-3.8 1.5-1.1 3.3-3.1 5.2-3.5 2.2-.4 7.6 1.4 9.8 1.4 12.1.1 13.5 2.4 19.3 7.2 6.4 5.1 5.5 7.2 8.8 12.4a28.7 28.7 0 0 1 4.1 16.5c-.6 3.6-10.2.6-13.7 1.6-3.4 1-5.1 1.7-13.7 2.3-6.3.5-13.5-3.6-19.3-2.1-13 3.3-13.9-2.4-22.2-.3-2.6 1-7.3-.2-6.8 1.5-.9.5.1 4.2 2.7 5.7 4 3 8.8 3.9 13.7 3.1 5.6-.9 4.5-.3 13.7 0 15.5 1.4 8.7 2.1 20.9 2.8 15 .4 15-1.7 23.7.1 2.5 11-2.8 15.9-4.4 27.9-1 7.7-6.7 22.8-12.3 27.8-5.4 4.9-11.6 9.4-16.3 16.1-11.3 16.2-12.1 47.1-3 63 5.2 9.1 2.7 20.4 7.2 29.9a40.9 40.9 0 0 0 23.1 21.4c6.5 16.5 19.1 18 28.1 22.8l79.9 8.1c30.1 4.9 44.1-13.8 56.8-19.8 13.3-6.3 28.6-9.6 44.5-21.3 28.2-20.8 46.6-20.8 66.3-17.8 13.6 2.8 25.5 15.8 30.3 33.1 7.1 25.3 41.9 57.7 71.8 68.2 10.7 4.7 27.1 9.7 31.9 15.8-1.1 4.5 2.8 8.4 5.3 12.3 5.3 8.4 4.5 23.8 5.2 35 .2 12 4.6 31-5.2 40.2-4.8 3.8-10.1 14.4-11.8 16.9-1.9 2.7-6.2 6-8.5 6.9-9.3 5.3-13.5-.9-19.8 2.4-3.3 1.3-2.8.9-4.6 1.3-1.9.4-2.4.1-4.4 2-2.8 3.4-1.2 6.2-1.2 6.2s2.3-1.8 7.5 2.8c3.8 3.6 4 7.6 4 7.6s1.9-1.3 5.9 1.4c5.1 3.7 5.2 9.1 5.2 9.1s2.6-2.9 8.6 1.3c2.9 2.6 5.1 5.4 4.6 7.9 1.7 1.4 8.8-1.6 16.4-4.5 7.5-2.9 9.4-8 13.3-12.2 3.9-4.2 3.1-17.8 5.5-24.3.7-2.5 2.1-4.5 5.6-5.5 1.6-.5 3.3-.4 5-.3 2.7-5 8.5-8.3 10.4-13.7.9-2.5.5-7.9.4-10.5 0-7.4-5.4-15.1-5.1-25.1l-.2.1c3-12.7 4-25.9 2.9-38.9-.6-7 .6-19.3 2.3-26.1 1.4-5.7 0-12-3.7-16.6-3.1-3.9-14-4.1-19-13.4A283 283 0 0 1 628 453c-5.7-27.7-10.9-52.3-28.8-74.2 48.7 2.7 96-37.6 92.7-102.8-3.2-63.8-56.3-97.3-105.5-97.9-46.3-.5-79.3 31.9-78.9 62.8a51.8 51.8 0 0 0 50.6 52.6c20 .2 37.7-13.3 37.4-30.4-.2-17.1-14.9-20.4-14.9-20.4s12.9 33.9-23.8 33.5c-15.7-.2-28.8-14.6-29.1-35.1-.3-22.7 22.8-43.1 59.2-41.9 40.9 1.4 78.9 24.6 80.8 79.9 1.7 49.1-47.6 85-89.6 66.1a196.5 196.5 0 0 0-119.8-14.3c-30.7 7.2-68.1 12.3-98.6 4.2a38 38 0 0 1-26.5-22.8c-5.1-11.3-1.5-26.8-2.6-39.2-2.5-26.7-17-47.1-17-72z"/>
    <path stroke-linejoin="round" d="M244 474.4c-.3 6.8 2.7 7.2 2.5 13.9a40 40 0 0 0 3.7 19.2c1.7 3.7 4.1 6.9 6.4 10.2 4.3 5.8 4.5 8.7 5.8 17.3-.9 15.4 3.6 18.8 6.3 34 1.6 9.4 5.9 18.8 4.8 28.3-.8 6.4 2.9 24.5 1 30.6-2.4 7.6-1.8 15.7-3 23.6-1.2 7.9-7.3 10.4-12.5 16.5-1.9 2.7-6.2 7-8.5 7.9-9.3 5.3-14.5-1.9-20.9 1.3-3.3 1.3-2.8.9-4.6 1.3-1.9.4-2.4.1-4.4 2-2.8 3.4-1.2 6.2-1.2 6.2s2.3-1.8 7.5 2.8c3.8 3.6 4 7.6 4 7.6s1.9-1.3 5.9 1.4c5.1 3.7 5.2 9.1 5.2 9.1s2.6-2.9 8.6 1.3c2.9 2.6 5.1 5.4 4.6 7.9 1.7 1.4 8.8-1.6 16.4-4.5 7.5-2.9 10.5-9.1 14.3-13.3 3.9-4.2 5.6-17.7 4.5-23.2 0-3 1-4.5 4.5-5.5 1.6-.5 4.4-.4 6-.3 3.5-4.6 1.9-10.2 1.8-12.4-.1-2.3-1.7-4.7-1.8-7 .7-7.6 4.8-11.5 6.8-19.7 2.1-8.4 0-12.5.5-21.2.3-6 4.1-11.1 6.5-16.5 3.2-7.2.7-11.9-.9-19.6-1.1-13.2 5-17.7.8-41.3.4-6.8 10.5-16.2 11.8-26.7l.1.2c.9-2.3 3.4-3.4 5.7-4.4 2.3-1 7-3.7 6.6-9.5-2.8.9-6.3 2.3-10.3 2.1 1-4.4 4.2-5.5 7.5-7.6 3.1-2.1 7.5-5.4 7.5-11.2-8.1 5-12.3 2.1-12.3 2.1"/>
    <path fill="none" d="M596.1 547.8c10.7 4.7 27.1 9.7 31.9 15.8M230.8 697c.3-.6-.3-3.1 2.1-5.5 1.7-1.7 4.4-2.6 6.7-1.7M605.5 707.5c.2-.6 0-2.5 2.1-5.2 1.5-2 4-3.2 6.4-2.6M594.4 697c.3-.6-.3-3.1 2.1-5.5 1.7-1.7 4.4-2.6 6.7-1.7M241.8 707.5c.2-.6 0-2.5 2.1-5.2 1.5-2 4-3.2 6.4-2.6"/>
    <g stroke="none" fill="#000">
      <path d="M612.2 520.5c-.5 2.7.2 5.1 1.4 7.3 1.2 2.1 2.8 4.1 4.7 5.8 1.9 1.8 3.9 3.5 5.8 5.5 1.8 2 3.5 4.4 4 7.2-1.6-2.2-3.6-3.8-5.6-5.4-2-1.6-4.2-3.1-6.2-5a18 18 0 0 1-4.8-7c-.5-1.4-.7-2.8-.7-4.3.2-1.5.6-3 1.4-4.1zM332 428.8a23 23 0 0 1-1.1-6.8c-.2-2.2-.3-4.4-.7-6.4-.4-2-1.1-3.9-2.1-5.8s-2.2-3.8-3.2-6c2 1.3 3.7 2.8 5.2 4.7a14.2 14.2 0 0 1 3 6.6c.5 2.4.3 4.8.1 7.1l-1.2 6.6zM330.3 478.3a24.3 24.3 0 0 1-4.1-4.4 19.8 19.8 0 0 1-2.7-5.2 21.3 21.3 0 0 0 8.4 7l-1.6 2.6zM328.4 495.2l-3.2-.5h-3c-2 .3-4 1.4-5.8 2.7 1.5-1.7 3.2-3.2 5.4-4.1 1.1-.5 2.3-.7 3.5-.8l3.4-.2-.3 2.9zM306.9 347.2c.5.9.6 2 .5 2.9a6.3 6.3 0 0 1-3.1 4.7c-.9.5-1.8.8-2.9.7.4-1 .9-1.7 1.3-2.4l1.2-2 1.3-1.9 1.7-2zM310.6 328.2c.7.7 1.1 1.4 1.3 2.1.2.8.3 1.5.3 2.3 0 .8-.2 1.5-.5 2.3-.3.7-.8 1.4-1.6 2l-.8-2.3c-.1-.7-.2-1.4-.1-2.1l.3-2.1 1.1-2.2z"/>
      <path d="M331.2 457.1c0 1.7.5 3.3 1 4.9.5 1.6.9 3.3 1.2 5a19.3 19.3 0 0 1-.8 10.6l-2.7-1.2a19.6 19.6 0 0 0 2.1-9.2c0-1.6-.2-3.3-.4-5-.4-1.7-.7-3.4-.4-5.1zM209.1 373.3c-.2 1-.5 1.7-.8 2.5l-1.1 1.9a8 8 0 0 1-1.5 1.7c-.6.6-1.2 1.1-2 1.6a5 5 0 0 1 0-2.7 7.7 7.7 0 0 1 2.9-4.1c.7-.5 1.5-.9 2.5-.9zM222.5 349.5l-1.1 3.3-.9 2.9c-.2.9-.4 2.1-.9 3.2-.2.6-.5 1.2-1 1.7-.4.5-1 1-1.6 1.1.4-1.2.3-2.2.3-3.3 0-1.1 0-2.2.3-3.5a7.5 7.5 0 0 1 4.9-5.4zM257 377.7c1.1-1.1 2.4-1.9 3.7-2.7l1.8-1.2 1.7-1.3c2.1-1.9 3.9-4.1 5.6-6.4 1.7-2.3 3.5-4.8 5.5-7.1 2.1-2.2 4.6-4.3 7.4-5.3a39 39 0 0 0-5.6 6.7l-5 7.4a25.5 25.5 0 0 1-6.6 6.5l-2.1 1.1-2.2.8-4.2 1.5zM224.7 677c1.3-.1 2.5 0 3.8.4 1.2.3 2.4.8 3.4 1.5s2 1.5 2.7 2.4c.7.9 1.3 2.1 1.4 3.3-.8-.9-1.5-1.6-2.4-2.3a9.2 9.2 0 0 0-2.7-1.6c-1-.4-1.9-.7-2.9-.8h-3l-.3-2.9zM273.2 664.2c.5.9.8 2 .8 3 .1 1-.1 2.1-.5 3.1s-1 2-1.8 2.7c-.8.7-1.8 1.3-2.9 1.4.7-.8 1.2-1.6 1.7-2.4l1.1-2.4.8-2.6.8-2.8zM242.5 474.3c.1-3.2.6-6.4 1.6-9.5 1-3.1 2.4-5.9 3.6-8.7 1.3-2.8 2.3-5.6 2.9-8.6.6-3 1-6 1.7-9.1.6 3.1.6 6.3.2 9.4a43 43 0 0 1-2.4 9.2c-1.1 3-2.4 5.7-3.2 8.6-.8 2.9-1.3 5.8-1.4 8.8l-3-.1zM656.1 549.5a9.6 9.6 0 0 1 1.2 4.6c.1 1.6.1 2.9.3 4.2.2 1.3.6 2.4 1.4 3.2.8.9 2.1 1.6 3.6 2.4-1.6.4-3.3.5-5-.5a6.4 6.4 0 0 1-2-2c-.5-.8-.7-1.7-.9-2.6-.3-1.7-.1-3.4.3-4.9l1.1-4.4zM657.6 625.5a249 249 0 0 1 3.5-12.3l1.5-6.1 1.5-6.3c.7 2.1.9 4.4.8 6.6a30 30 0 0 1-3.3 12.8 19 19 0 0 1-4 5.3zM229.8 694.1c-1.2.7-2.4.9-3.5 1.2l-3.3.9c-2.1.7-4.3 1.6-5.9 3.2 1.4-1.8 3.5-3.1 5.5-4.1l3.2-1.4c1-.4 2.1-.9 2.8-1.4l1.2 1.6zM240.5 704.8c-1.2.7-2.4.9-3.5 1.2l-3.3.9c-2.1.7-4.3 1.6-5.9 3.2 1.4-1.8 3.5-3.1 5.5-4.1l3.2-1.4c1-.4 2.1-.9 2.8-1.4l1.2 1.6zM254.4 714.5c-1.2.7-2.4.9-3.5 1.2l-3.3.9c-2.1.7-4.3 1.6-5.9 3.2 1.4-1.8 3.5-3.1 5.5-4.1l3.2-1.4c1-.4 2.1-.9 2.8-1.4l1.2 1.6zM240.1 688.5l2.2 1.1 2.2 1.4c.7.5 1.4 1.2 1.9 1.9s.9 1.6 1 2.5l-2-1.5-2-1.1-2.2-.8-2.4-.8 1.3-2.7zM588.3 677c1.3-.1 2.5 0 3.8.4 1.2.3 2.4.8 3.4 1.5s2 1.5 2.7 2.4c.7.9 1.3 2.1 1.4 3.3-.8-.9-1.5-1.6-2.4-2.3a9.2 9.2 0 0 0-2.7-1.6c-1-.4-1.9-.7-2.9-.8h-3l-.3-2.9zM641.1 661a24.3 24.3 0 0 1-2.6 7.7c-.7 1.2-1.5 2.4-2.4 3.4a7 7 0 0 1-3.5 2.3c1-1 1.6-2.1 2.3-3.2l1.9-3.4 2-3.4c.6-1.2 1.3-2.4 2.3-3.4zM614.3 698.4l2.6.9c.9.4 1.7.9 2.5 1.5s1.4 1.3 2 2c.6.7 1 1.6 1.2 2.5l-2.2-1.5-2.1-1.2-2.3-.8-2.5-.5.8-2.9zM593.5 694.1c-1.2.7-2.4.9-3.5 1.2l-3.3.9c-2.1.7-4.3 1.6-5.9 3.2 1.4-1.8 3.5-3.1 5.5-4.1l3.2-1.4c1-.4 2.1-.9 2.8-1.4l1.2 1.6zM605.2 703.8c-1.2.7-2.4.9-3.5 1.2l-3.3.9c-2.1.7-4.3 1.6-5.9 3.2 1.4-1.8 3.5-3.1 5.5-4.1l3.2-1.4c1-.4 2.1-.9 2.8-1.4l1.2 1.6zM618.1 714.5c-1.2.7-2.4.9-3.5 1.2l-3.3.9c-2.1.7-4.3 1.6-5.9 3.2 1.4-1.8 3.5-3.1 5.5-4.1l3.2-1.4c1-.4 2.1-.9 2.8-1.4l1.2 1.6zM603.8 688.5l2.2 1.1 2.2 1.4c.7.5 1.4 1.2 1.9 1.9s.9 1.6 1 2.5l-2-1.5-2-1.1-2.2-.8-2.4-.8 1.3-2.7z"/>
      <path d="m602.7 688.4 3.8-1a33 33 0 0 0 3.7-1c1.2-.4 2.3-1 3.4-1.8 1.1-.7 2-1.6 3-2.5-.7 1.1-1.5 2.2-2.5 3.1-.9.9-2 1.9-3.2 2.5-1.2.7-2.4 1.2-3.7 1.8l-3.6 1.7-.9-2.8zM613.3 698.4l3.7-1.4 3.6-1.4c1.1-.6 2.1-1.4 3.1-2.3 1-.8 1.8-1.9 2.6-2.9a19.6 19.6 0 0 1-4.9 6.4c-1.1.9-2.3 1.5-3.4 2.2l-3.4 2.1-1.3-2.7zM245.6 436.2a23.2 23.2 0 0 1-2.7-9.4 27.6 27.6 0 0 1 5.3-18.8c1.9-2.7 4.1-5.1 6.5-7.2l-4.5 8.4a56.4 56.4 0 0 0-3.5 8.5 34 34 0 0 0-1.5 9c-.1 3.2.1 6.3.4 9.5zM270.9 474.4a6.9 6.9 0 0 1-2.9-2 10 10 0 0 1-1.8-2.9c-.4-1-.7-2.2-.9-3.3-.1-1.1-.1-2.3.3-3.5a19.8 19.8 0 0 1 3.3 5.6l1.1 2.9.9 3.2zM283.7 478.1a8.3 8.3 0 0 1-4-1.6c-1.2-.8-2.2-1.9-3-3a13.6 13.6 0 0 1-2.9-7.7c1.2.9 2.1 1.9 3 2.9l2.4 3.1 2.2 3.1 2.3 3.2zM291.6 476.4c-.5.3-1.1.2-1.6.1l-1.5-.5c-.9-.4-1.7-1-2.4-1.8a7.8 7.8 0 0 1-1.6-2.4c-.4-.9-.6-2-.4-3 .9.6 1.7 1.1 2.3 1.7l1.9 1.8 1.7 2 .8 1.1c.2.3.4.7.8 1zM302.8 475.1c-1.1.4-2.3.4-3.4.1a7.5 7.5 0 0 1-4.9-4.4 7 7 0 0 1-.6-3.2c1.1.6 1.8 1.3 2.6 1.9l2 1.9 2 1.8 2.3 1.9zM306.6 469.9c1.1-1.9 2.2-3.6 3.1-5.5a37.6 37.6 0 0 0 3.8-11.3c.4-2 .6-4 .9-6.2 1 2 1.4 4.2 1.4 6.4s-.3 4.5-1 6.6a18.3 18.3 0 0 1-8.2 10zM476.8 415.9c.5-.7 1.2-1 1.8-1.3.6-.2 1.3-.3 1.9-.3.6 0 1.3.2 1.9.5.6.3 1.2.7 1.6 1.5-.7.5-1.3.7-2 .9l-1.7.2a5 5 0 0 1-1.7-.3c-.6-.3-1.2-.6-1.8-1.2zM453.6 423.7a5.4 5.4 0 0 1 1.9-2.5c.8-.6 1.7-1.1 2.7-1.4 1-.3 2-.4 3.1-.2 1 .1 2 .5 2.9 1.2l-2.7 1.2-2.5.8-2.5.6-2.9.3zM433.8 442.5l3.6-2.3 3.3-2.3 3.1-2.6 3.2-2.9c0 1.6-.5 3.1-1.3 4.4a12.8 12.8 0 0 1-7.2 5.6c-1.6.4-3.2.5-4.7.1zM302.1 524.9l-.1-3.2.2-2.9.4-2.9c.2-1 .4-2 .8-3.1.8.9 1.3 1.9 1.6 3 .3 1.1.4 2.2.2 3.3a9 9 0 0 1-.9 3.2c-.5 1-1.2 1.9-2.2 2.6zM295.7 573.1l1.1 6.1c.3 2 .6 4.2.4 6.4a11 11 0 0 1-2.4 6.3c-1.4 1.7-2.9 2.8-3.9 4.7a6 6 0 0 1 .6-3.2l1.4-2.8 1-2.6.5-2.7c.2-1.9.2-3.9.3-6a15 15 0 0 1 1-6.2zM301.8 532.5c.7.9 1.2 2 1 3.4-.3 1.4-1.2 2.3-1.7 3l-1.7 2-2 2.3a6.6 6.6 0 0 1-.2-3.4c.3-1.1.8-2.1 1.5-3l1.8-1.8c.5-.5.8-1.5 1.3-2.5zM504.7 429.9l4.9 5.3 4.7 5.3 4.8 5.2 4.9 5.3a27 27 0 0 1-6.4-3.6 36.2 36.2 0 0 1-12.9-17.5zM598.1 379.7a93.3 93.3 0 0 0-7.6-7.8 39.8 39.8 0 0 0-8.9-6.3c3.5 1.1 6.8 3.1 9.8 5.1 3.1 2.1 6 4.4 8.8 6.9l-2.1 2.1zM563.9 387.3c1.8-.4 3.8-.2 5.6.4a14.9 14.9 0 0 1 8.4 7.2c.8 1.7 1.4 3.6 1.3 5.4-1.1-1.5-2.1-2.9-3.2-4.1a38.5 38.5 0 0 0-7.5-6.4l-4.6-2.5zM542 378.2c.9-.7 2-1 3-1.2 1.1-.1 2.1 0 3.2.3 1 .3 2 .8 2.8 1.5.8.7 1.5 1.5 1.9 2.6a23.4 23.4 0 0 1-5.6-1.2l-2.6-.8-2.7-1.2zM250.7 698.4l2.6.9c.9.4 1.7.9 2.5 1.5s1.4 1.3 2 2c.6.7 1 1.6 1.2 2.5l-2.2-1.5-2.1-1.2-2.3-.8-2.5-.5.8-2.9z"/>
      <path d="m249.7 698.4 3.7-1.4 3.6-1.4c1.1-.6 2.1-1.4 3.1-2.3 1-.8 1.8-1.9 2.6-2.9a19.6 19.6 0 0 1-4.9 6.4c-1.1.9-2.3 1.5-3.4 2.2l-3.4 2.1-1.3-2.7zM239.1 688.4l3.8-1a33 33 0 0 0 3.7-1c1.2-.4 2.3-1 3.4-1.8 1.1-.7 2-1.6 3-2.5-.7 1.1-1.5 2.2-2.5 3.1-.9.9-2 1.9-3.2 2.5-1.2.7-2.4 1.2-3.7 1.8l-3.6 1.7-.9-2.8z"/>
    </g>
    <g>
      <path d="M261.8 204a57.2 57.2 0 0 1-3 16.4c-2.5 7.3-4.2 14.4-5.6 22-1.7 9.1.2 18.5 3.1 27.1 2.5 7.4 4.9 14.9 8.5 21.9 5.1 10 11 13.7 16.6 20.6 1.7 2.2 3.6 4.4 6.2 5.4 4.3 1.6 9-.7 12.9-2.9l7.7-4.3a47 47 0 0 0 19-27.8c3.2-16.7 4.2-27.3-1.1-43.5-3.3-10.2-9.7-20.5-11.3-31.2-.6-4.1-.6-2.5-1.2-6.6"/>
      <g stroke="none" fill="#000">
        <path d="M201.7 169.8c1.8-1.1 3.8-1.7 5.9-1.9 2.1-.2 4.2-.1 6.3.7 2 .7 3.7 1.8 5.5 2.8 1.7 1 3.3 2.2 5.1 3-2-.2-4-1-5.8-1.7-1.9-.7-3.7-1.5-5.4-2-1.8-.4-3.6-.4-5.5-.5-2.1 0-4.1-.1-6.1-.4zM240.6 276.7l-.6 2.7-.7 2.8c-.3.9-.6 1.9-1.3 2.9l-.3.4-.4.4-.6.5-1.2.8c-1.6 1.1-3.6 2-5.6 2.4-2 .4-3.9.4-5.8.4v-3l5.4-.3c1.7-.2 3.2-.8 4.8-1.6l1.2-.7.5-.3.2-.1.2-.2c.5-.5.9-1.3 1.3-2.1s.7-1.7 1.2-2.5c.3-1 .8-2 1.7-2.5zM220.9 209.4c1-.3 2-.4 2.9-.2 1 .1 1.9.4 2.7.9.8.4 1.6 1 2.3 1.7a7 7 0 0 1 1.5 2.5l-2.6-.9-2.3-1.1-2.2-1.2-2.3-1.7zM251.1 198.3c.8.6 1.3 1.2 1.8 1.7l1.2 1.8a10.8 10.8 0 0 1 1.3 4.3c-1-.1-1.7-.5-2.4-1a6.2 6.2 0 0 1-2.3-4.2c-.1-.8 0-1.7.4-2.6zM175.7 211.1c.9-.5 1.9-.6 2.9-.3 1 .2 1.8.7 2.6 1.3a7.2 7.2 0 0 1 2.5 4.7 10 10 0 0 1-2.3-1.4l-1.8-1.5-1.7-1.4-2.2-1.4zM164.1 207.4c.6-.6 1.2-.9 1.9-1a4.5 4.5 0 0 1 3.7 1c.5.4.9 1 1.1 1.8a5.4 5.4 0 0 1-3.6.2c-.5-.1-.9-.3-1.4-.6l-1.7-1.4zM225.5 218.7c1.5-.1 2.9 0 4.4.4a11 11 0 0 1 4 2.1c.6.5 1.1 1.1 1.6 1.8l1 2c.5 1.4.7 2.6 1.4 3.9-1.5-.4-2.6-1.7-3.4-2.8-.8-1.1-1.5-2-2.4-2.7-.9-.8-1.9-1.5-3-2.2-1.3-.7-2.5-1.5-3.6-2.5zM211.8 230.9c2.8 2.2 5.8 4.1 8.5 6.5 2.8 2.4 5.1 5.2 7.1 8.2 1 1.5 2 3 2.8 4.6.8 1.6 1.7 3.3 2.2 5.1a16 16 0 0 1-.2 10.8c.2-3.6-.7-6.9-2-10l-2.4-4.5-2.8-4.4c-2-2.9-4-5.6-6.3-8.2-2.4-2.5-5-5-6.9-8.1zM252.1 171.5a80 80 0 0 1 7.9 15.3 50 50 0 0 1 3.3 17.2l-3-.1c.4-5.5-.4-11.1-1.9-16.6a89.6 89.6 0 0 0-6.5-15.7l.2-.1zM312.1 201.3a43.7 43.7 0 0 0-13.1-26.8l.2-.2c2.2 1.4 4.1 3.3 5.8 5.2a48.6 48.6 0 0 1 10 21.4l-2.9.4z"/>
      </g>
    </g>
    <g>
      <path d="M187.1 173c0 2.4.2 5 2.4 6.7"/>
      <path fill="#f6f6f6" d="M218.7 190.2s-4.5 1.4-8.3 3.1c-3.8 1.7-12.8.4-14.2-2.1-.7-1.7.2-8 3.1-8.8 3.6-1.6 6.9-1.3 11.8 1.7 4.7 2.9 7.5 6 7.6 6.1z"/>
      <g stroke="none" fill="#000">
        <path d="M190.4 178.5c.2.2.7.4 1.3.5l1.8.2h3.9a53 53 0 0 0 8-1l2.1-.4a20.7 20.7 0 0 1 6.5 0c2.8.4 5.6 1.5 7.7 3.4a24.3 24.3 0 0 0-11.8-1.5l-1.9.4-1.9.6a60.3 60.3 0 0 1-12.6 1.7l-2.3-.2c-.8-.2-1.6-.4-2.5-1l1.7-2.7zM143.4 203.2c.4.5.5 1.2.4 1.9-.1.6-.4 1.2-.8 1.7s-.9.9-1.4 1.1c-.5.3-1.1.4-1.8.4.2-.7.5-1.2.8-1.6l.9-1.2.9-1.1 1-1.2zM143.2 195.8c.4.1.8.4 1 .7.2.4.3.8.3 1.3s-.1.9-.3 1.3l-.9 1.1c-1.4 1.2-3.2 1.4-3.7 2.2-.8.9-1.4 2.3-2.1 3.7-.4.7-.7 1.4-1.3 2.2a4.3 4.3 0 0 1-3.1 1.7v-3l.3-.1.5-.4 1.2-1.6c.8-1.2 1.5-2.7 2.9-3.9l1.2-.8.6-.2.6-.2c.7-.2 1.4-.4 1.9-.7l.7-.5.5-.8c.3-.7.3-1.5-.3-2zM196.4 191.7l-3.8.7c-1.3.3-2.5.5-3.7.9l-.2-.3c1-.8 2.2-1.5 3.3-2.2l3.4-2 1 2.9zM169.4 195c0-.8.2-1.5.5-2.1.3-.6.7-1.2 1.2-1.7s1.1-.9 1.7-1.2c.7-.3 1.4-.5 2.2-.3l.1.4-1.1 1.6-1.2 1.3c-.4.4-.9.8-1.5 1.1-.5.5-1.1.8-1.9.9zM227.3 187.9l-2.7-2.2a27 27 0 0 0-6-2.7l-3.3-1v-.3a12 12 0 0 1 7.2.8c2.3 1 4.2 3 4.8 5.4zM187 188.9l-2.2 2.1-2.1 1.8-2.2 1.7c-.8.6-1.5 1.1-2.5 1.6l-.4-.2a7.6 7.6 0 0 1 3.2-5.5c.8-.7 1.8-1.2 2.9-1.5 1-.3 2.2-.4 3.3-.1v.1zM211.6 211.8c.3-2.6.7-5.1 1.5-7.6.7-2.5 1.9-5 3.8-7.1a15 15 0 0 1 6.9-4.4c2.6-.8 5.2-1 7.8-.7v.5c-2.4.8-4.8 1.5-6.9 2.6-2.1 1.1-4 2.4-5.5 4.1a27.5 27.5 0 0 0-3.9 5.9c-1.1 2.2-2.1 4.5-3.7 6.7zM202.5 183.1c1.3 0 1.4 1.1 1.4 3.8l-.1 2c-.3 1.7-.1 2.8-1 2.8-1 0-2.8-1.2-3.2-3l-.2-1.8c-.1-2.6 1.9-3.8 3.1-3.8z"/>
      </g>
    </g>
  </g>
</svg>
