<svg xmlns="http://www.w3.org/2000/svg" fill="#d7374a" stroke="#000" viewBox="50 50 200 200">
  <metadata source="http://wappenwiki.org/images/3/3c/Logudoro.svg" license="https://creativecommons.org/licenses/by-nc-sa/3.0"/>
  <g id="tower" stroke-width="3" transform="matrix(.10915 0 0 .1094 43 58)">
    <path d="M643 556l39 43v104c0 30-82 45-160 45s-160-15-160-45V599l38-43h243z"/>
    <path d="m405 177-5 379c20 19 102 20 122 20 55 0 121-10 121-20-1.7-126-3.3-253-5-379m-76-114v-38l-80-1v40l-63 5v-39c-35 5-60 12-60 20l-1 85 0.8 6.7c104-12 222-17 325 0.26v-93c0-7-25-14-60-19v39"/>
    <path d="m358 54v-19c12-7 34-14 63-14v16c-33 0-58 13-63 17zm326 89c0-13-84-26-163-26s-162 13-162 26l40 39c0-7 57-16 123-16s123 12 123 16z"/>
    <path d="m650 188c-3.1 3.6-6.6 4.5-10 3 0 0-28-14-119-14-40-0.23-80 4.5-119 14-5.9 1.3-8.1-0.56-10-4-1-3 0-7 4-9 1-1 30-16 125-16 41 2.6 87-1 126 16 3.1 3.5 4.5 6.6 3 10z"/>
    <path d="m563 33s-20-2-41-2c-22 0-42 1-42 2l-1-16c28-2.1 57-2.1 85 0zm122 21-0.057-19c-12-7-34-14-63-14v16c33 0 57 13 63 17z"/>
    <g fill="none">
    <path d="m362 599c0 18 81 31 160 31s160-17 160-31m-320 56c0 18 81 31 160 31s160-17 160-31"/>
    <path d="M419 69c-35 5-60 12-60 19m325 0c0-7-25-14-60-19a750 750 0 00-142-6"/>
    <path d="m404 233c1-1 28-9 117-9s116 8 118 9m-235 55c1-1 28-6 117-6s116 5 118 6m-235 54c1 0 28-3 117-3s116 3 118 3m2 53c-2 0-31 2-120 2s-118-2-119-3m240 56c-2 0-32 6-121 6s-119-6-120-6m240 59c-2 0-29 7-120 7-90 0-118-7-119-7"/>
    <path d="m598 66v55m-147-55v55m71 219v-58m91 58v-56m-183 56v-56m46 113v-57m91 57v-56m-45-117v-47m87 51v-44m-175 44v-44m42 98v-58m91 58v-57m-45 230v-58m91 57v-57m-183 57v-57m46 119v-61m91 60v-59m46 113v-55m-183 55v-55m92 118v-58m0 174v-59m-121-13v-57m242 55v-57m-35-449 22-42m-76 36 5-44m-128 50-22-42m76 36-5-44"/>
    </g>
    <path d="m508 748h28l31-2v-182c0-27-20-46-46-46-25 0-46 19-46 46v182l33 2zm40-480c0-14 11-28 24-28 14 0 24 14 24 28v87h-48v-87zm-102 0c0-14 11-28 24-28s24 14 24 28v87h-48v-87z" fill="#0D6793"/>
  </g>
</svg>