<svg xmlns="http://www.w3.org/2000/svg" fill="#d7374a" stroke="#000" viewBox="50 50 200 200">
  <metadata source="http://wappenwiki.org/images/2/2b/Krummedige.svg" license="https://creativecommons.org/licenses/by-nc-sa/3.0"/>
  <g id="tree" stroke-width=".338">
    <path d="M138.27 104.39c-1.86-2.88.89-8.67-2.3-11.82-1.64-1.61-4.18-1.58-5.54-.2-.87.87-.97 1.49-1.13 1.97-.32-.44-.96-1.16-1.63-1.72-.47-.4-1.4-.99-2.72-1.09l.01-.01c.78-.78 1.87-1.68 2.49-2.59 1-1.46 1.54-2.68 2.3-4.27.66-1.38.95-2.8 1.07-3.13.34.37.69.88 1.81 1.31 1.8.7 4.14-.31 4.97-2.45 1.62-4.18-3.26-8.35-2.74-11.73 0-.08-.09-.13-.13-.06-1.9 2.85-8.32 2.65-9.94 6.82-.82 2.13.23 4.45 2.02 5.15 1.14.45 1.75.3 2.26.25-.43 1.47-1 2.47-1.2 2.9a18.32 18.32 0 01-2.5 3.48 14.82 14.82 0 01-6.56 4.24c-3.8 1.28-6.9 1.01-10.68 2.37a30.84 30.84 0 00-5.18 2.28c-.05.02.02-.62-.03-.6.34-1.59.1-1.8 1-3.43 1.02-1.87 3.19-3.67 5.19-4.97.98-.7 2.01-1.2 2.8-1.67.05.5.01 1.11.65 2.14 1.02 1.63 3.5 2.24 5.44 1.03 3.81-2.36 2.43-8.63 4.87-11.01.06-.06 0-.16-.08-.14-3.23 1.13-8.22-2.89-12.04-.52-1.94 1.2-2.5 3.69-1.5 5.33.66 1.06 1.23 1.3 1.67 1.56-.6.34-1.4.6-2.26 1.16l-2.22 1.15c-1.57.77-2.75 1.91-4.21 3.3.63-3 .2-7.25 1.93-9.74 2.8-3.72 9.09-7.67 12.66-10.19.03.5-.01 1.11.6 2.16.96 1.67 3.42 2.33 5.4 1.17 3.87-2.26 2.66-8.56 5.17-10.89.05-.06 0-.16-.07-.13-3.25 1.04-8.14-3.1-12.01-.85-1.98 1.15-2.61 3.62-1.65 5.28.63 1.07 1.2 1.33 1.62 1.6-3.14 1.66-10.37 6.53-12.97 9.12-.6.6-1.43 1.44-1.69 1.84 0 0 0 0 0 0 .1-3.07-.51-6.62-.32-9.13.46.24.97.6 2.2.6 1.93 0 3.74-1.8 3.74-4.09 0-4.49-6.05-6.61-6.8-9.95-.02-.08-.12-.07-.14 0-.76 3.33-6.8 5.46-6.8 9.94 0 2.28 1.82 4.08 3.74 4.08 1.21 0 1.7-.34 2.17-.57-.04.83-.01 2.46-.1 4.55-.06 1.76-.25 3.16-.45 4.68-.33-.5-.61-1-1.41-1.86-2.53-2.67-9.72-7.58-12.86-9.23.44-.28 1-.54 1.62-1.6.97-1.67.34-4.13-1.63-5.3-3.87-2.25-8.76 1.9-12.01.85-.08-.02-.13.07-.07.14 2.5 2.33 1.3 8.63 5.16 10.89 1.97 1.16 4.45.48 5.41-1.17.61-1.05.57-1.66.6-2.16C86.8 72 93.1 75.95 95.9 79.67c1.72 2.49 1.3 6.74 1.94 9.73-1.45-1.38-2.65-2.53-4.22-3.3-.57-.27-1.65-.84-2.22-1.14-.84-.56-1.64-.82-2.26-1.16.44-.27 1.01-.5 1.67-1.56 1-1.63.45-4.13-1.5-5.34-3.81-2.36-8.8 1.66-12.04.53-.06-.02-.12.07-.08.14 2.45 2.4 1.06 8.65 4.88 11.01 1.94 1.2 4.42.61 5.43-1.03.64-1.04.6-1.65.65-2.14.78.46 1.82.97 2.8 1.66 2 1.31 4.17 3.1 5.2 4.98.9 1.63.77 1.84 1.1 3.43-.04-.04.03.62-.02.6-1.56-.94-3.59-1.66-5.3-2.28-3.78-1.36-6.87-1.09-10.67-2.37a14.72 14.72 0 01-6.57-4.24c-.86-1-1.92-2.3-2.5-3.48-.2-.43-.77-1.43-1.2-2.9.51.05 1.12.2 2.27-.25 1.79-.7 2.83-3.03 2.01-5.15-1.62-4.19-8.03-3.98-9.93-6.82-.05-.07-.15-.02-.14.06.5 3.37-4.35 7.55-2.73 11.73.82 2.13 3.17 3.15 4.96 2.45 1.12-.44 1.47-.94 1.81-1.31.12.33.42 1.75 1.07 3.12.76 1.61 1.3 2.82 2.3 4.28.62.91 1.72 1.81 2.5 2.59h0c-1.32.11-2.25.7-2.72 1.1-.67.56-1.3 1.28-1.63 1.72-.16-.5-.26-1.1-1.13-1.98-1.35-1.37-3.9-1.4-5.53.2-3.2 3.15-.45 8.96-2.3 11.83-.05.07.03.13.1.1 2.9-1.81 8.67.99 11.86-2.16 1.63-1.61 1.62-4.16.27-5.52-.85-.87-1.45-.98-1.93-1.14a9.28 9.28 0 011.94-1.45c.77-.4 1.48-.59 2.33-.63.59-.04 1.18 0 1.77.05 1.38.68 2.89 1.12 4.44 1.49a13.99 13.99 0 00-5.27 4.01c-1.65 2.14-3.42 6.57-4.27 10.2-.67-.5-1.22-.97-2.08-1.2-1.85-.49-4.07.76-4.67 2.97-1.17 4.34 4.12 7.96 3.97 11.38 0 .08.1.1.15.03 1.59-3.02 7.98-3.5 9.15-7.84.6-2.2-.7-4.4-2.56-4.9-1.17-.32-1.74-.12-2.24-.02.4-1.42.97-2.9 1.13-3.4.36-1.12 2.02-3.78 2.63-4.76a9.62 9.62 0 014.92-3.86c1.94-.7 3.7-.77 5.5-1.06 3.2.96 5.73 1.43 8.13 3.68 0 0 .3 1.6-.03 1.6-.57.1-1.59-.4-3.49.4-1.2.5-3.17 2.35-3.53 2.8-.12-.5-.2-1.11-1-2.04-1.26-1.46-3.8-1.65-5.54-.15-3.38 2.95-1.02 8.91-3.05 11.65-.04.07.04.15.1.12 3-1.62 8.59 1.54 11.98-1.4 1.72-1.5 1.87-4.06.61-5.51-.8-.91-1.38-1.07-1.85-1.26 0 0 .85-.86 1.63-1.38.56-.39 2.4-1 3.61-.13.09.3.28.55.43.82.3.53.17.61.35 1.2.26.88-.15 1.82-.23 2.74-.08.89.17 1.58.1 2.46-.08.8-.24.52-.4 1.3-.56.4-.63.4-1.32.5a8.75 8.75 0 00-4.04 1.61c-.86.66-1.54 1.41-2.3 2.19-.2.21-1.7 2.04-1.62 2.25-.18-.49-.32-1.1-1.24-1.92-1.43-1.28-3.98-1.17-5.51.53-3 3.33.06 8.97-1.62 11.94-.04.07.04.13.1.1 2.8-1.98 8.72.5 11.72-2.84 1.53-1.7 1.38-4.24-.04-5.53-.9-.81-1.51-.89-2-1.02.48-.61 1.2-1.35 1.35-1.55.4-.54.94-1 1.49-1.39 1.15-.8 2.73-1.45 4.23-.98.93.55 1.24 1.78 1.16 2.86-.08 1.08-.44 2.12-.49 3.2-.03 1.1.27 4.23.13 5.33-.17 1.29-.53 1.5-1.52 2.41-1.02.94-1.36 2.29-2.66 2.68-.52.16-2.2.45-2.74.58-.98.24-2.32.82-3.07 1.5-.5.44-1.14.82-1.58 1.34-.47.55-.76.94-1.48 1.05-.95.13-1.51-.28-2.48-.32-.29 0-1.22.25-1.35.52 1.25.03 2.6 1.3 3.92 1.35 1.18.05 2.1-.47 3.16-.85 1.3-.47 2.5-.69 3.88-.7 1.94-.02 5.46.09 7.21-1.4.2 1.38-.43 2.05-.19 3.9.16 1.29 1.23 2.4 1.54 3.64.2.8.2 1.59.23 2.42.02.84-.69 1.98-.54 2.82.14.78.98 1.67 1.67 1.67-.33-.59-.27-1.62.1-2.3.34-.65.84-1.22 1.08-1.93.33-.9.4-1.87.38-2.83 0-3.31 1.35-3.7.77-7.06 1.71 1.07 4.18 1.03 6.11 1.06.87 0 1.44.28 2.25.47 1.04.25 2.14.37 3.2.35a6.24 6.24 0 003.8-1.22c.46-.37.85-.84 1.33-1.19.22-.16.42-.3.7-.37.12-.03.53-.03.59-.09.1-.1-.06-.25-.2-.3a4.32 4.32 0 00-2.9.05c-.7.23-1.34.6-2.05.74-1.44.3-2.9-.36-4.15-1.1a21.97 21.97 0 00-3.6-1.74c-1-.35-1.52-1.84-2.51-2.36-1.62-.87-2.17-1.77-2.4-3.6-.13-1.1.17-2.31.12-3.42-.03-1.08-.4-3.26-.48-4.34s.23-2.3 1.16-2.85c1.5-.49 3.08.18 4.23.98.55.38 1.08.85 1.48 1.4.15.18.87.92 1.35 1.53-.5.14-1.09.22-1.99 1.03-1.43 1.28-1.57 3.83-.04 5.53 3 3.33 8.92.87 11.7 2.84.08.04.16-.04.12-.1-1.67-2.99 1.39-8.61-1.62-11.94-1.53-1.7-4.08-1.81-5.51-.53-.92.83-1.06 1.44-1.24 1.91.08-.2-1.43-2.05-1.63-2.25-.75-.77-1.43-1.53-2.3-2.18a8.77 8.77 0 00-4.03-1.62c-.69-.09-.76-.09-1.32-.5-.17-.77-.33-.5-.4-1.29-.08-1.06.28-1.81.02-3a6.45 6.45 0 01-.07-2.53c.06-.32.03-.47.27-.88.16-.27.34-.53.43-.82 1.2-.88 3.05-.26 3.6.12.79.53 1.64 1.38 1.64 1.38-.47.2-1.06.34-1.86 1.26-1.26 1.46-1.1 4 .62 5.5 3.39 2.95 8.96-.22 11.97 1.41.07.04.15-.04.1-.11-2.02-2.76.34-8.7-3.04-11.66-1.73-1.5-4.28-1.3-5.54.15-.81.93-.88 1.55-1 2.05-.36-.46-2.34-2.32-3.53-2.81-1.9-.8-2.92-.3-3.5-.4-.32 0-.02-1.6-.02-1.6 2.4-2.25 4.93-2.72 8.13-3.67 1.8.29 3.57.36 5.5 1.05a9.56 9.56 0 014.92 3.86c.6.98 2.27 3.65 2.63 4.76.16.5.73 1.97 1.12 3.41-.5-.1-1.06-.3-2.23.01-1.86.5-3.15 2.7-2.56 4.9 1.17 4.34 7.56 4.82 9.15 7.85.04.06.14.04.14-.04-.14-3.42 5.15-7.04 3.98-11.37-.6-2.2-2.82-3.47-4.67-2.97-.86.22-1.41.69-2.08 1.2-.85-3.64-2.61-8.07-4.27-10.2a13.99 13.99 0 00-5.27-4.02c1.55-.37 3.06-.8 4.44-1.48.58-.06 1.17-.1 1.77-.06a5.5 5.5 0 012.32.63c.69.35 1.65 1.15 1.95 1.45-.48.16-1.08.27-1.93 1.14-1.35 1.37-1.35 3.93.27 5.52 3.19 3.15 8.95.35 11.85 2.16.13.1.2.03.16-.04z"/>
    <path fill="#000" stroke="none" d="M97.97 122.99c-.2-.69-.05-1.45.09-2.09.15-.52.29-1.04.41-1.56.1-.41.12-.84.12-1.23 0-.09-.03-.3.05.04.17.5.15 1.11.04 1.58-.1.62-.33 1.2-.47 1.82-.15.5-.25.96-.24 1.44zm.67-41.69c-.2 1.66-.23 3.4-.23 4.85-.4-1.78-.46-3.5.23-4.86zm2.54 13.02c.05-.42.05-.84.03-1.26-.08-1.04-.35-2-.37-2.97-.06-.96-.02-1.93.15-2.88.02-.17.07-.33.11-.5 0 .83-.03 1.66.01 2.49 0 1.7.56 3.52.08 5.03l-.01.09zm.22 13.62c0 .42-.02.83-.05 1.24-.02.28-.07.55-.1.83-.1.83-.28 1.66-.23 2.5 0 .2.02.4.05.58 0 .09-.02-.08-.05-.1-.5-1.17-.17-2.48.01-3.63.1-.43.2-.86.33-1.28l.04-.14zm.45 18.1c.13.09.24.22.32.36.18.28.21.64.26.97.02.38.08.77.14 1.15.24.87.56 1.55.56 2.37-.03.07-.02.25-.06.1-.15-.87-.58-1.62-.81-2.41a3.27 3.27 0 01-.09-.78c.02-.61.01-1.1-.2-1.61-.03-.07-.07-.1-.12-.15zm1.08 11.36c-.08-.59-.14-1.18-.27-1.75-.15-.57-.52-1.03-.81-1.52a3.63 3.63 0 01-.6-1.53c.12.37.34.73.54 1.01.33.5.7.96.99 1.48.33.71.38 1.5.48 2.27l-.33.05zm-2.85.96c-.07 1.34.24 2.58.58 3.82a3.91 3.91 0 01-.58-3.81v-.01zm9.21-.86c-.12-.05-.22-.15-.35-.18a2.6 2.6 0 00-1.3-.27c-1.24-.07-2.13-.2-2.76-1.12.96 1.05 2.55.58 3.54.94.3.13.62.27.8.54l.07.09zm-21.34-.78c.19-1.2 1.76-.95 2.57-1.31.09-.04-.02.08-.04.1-.82.8-1.84.44-2.48 1.14 0 .02-.04.1-.04.07zm9.95.35c-.03-.75-.25-1.46-.18-2.2l.04-.25c.02-.05 0 .04 0 .07-.1.8.32 1.5.47 2.24 0 .03.02.07.01.1-.11 0-.22.02-.34.04zm.16-8.39c.13.32.03.69-.13.98-1.12.9-.46 1.36-.63 2.43-.06.2-.12.38-.23.56-.24.5-.6.93-.86 1.43-.07.12-.1.26-.17.38.03-.43.22-.82.4-1.2.18-.4.4-.77.5-1.18.17-.56-.31-1.15-.13-1.56.37-.51 1.05-.91 1.19-1.46.03-.1.02-.2.02-.31.02-.02.04-.04.04-.07zm31.37-34.48c.42.76 1.09 1.44 1.56 2.11-.38-.58-2.19-1.58-1.56-2.11zm-1.37 1.35c1.52 1.4 3.28 2.65 4.44 4.36-1.31-1.54-3.07-2.8-4.67-4.08.08-.09.15-.2.23-.28zm.82-14.77c.52-.8 1.62-3.42.75-1-.24.28-.23 1.53-.75 1zm1.78.72c.64-1.95 1.03-4.06 2.11-5.82-.93 1.78-1.27 3.93-1.79 5.89l-.32-.07zm-3.47 27.85c-.15.5.48 3.02.15 2.15-.03-.6-.96-2.12-.15-2.15zm-1.75.35c.58 1.97 1.52 3.92 1.65 5.99-.31-1.95-1.25-3.97-1.96-5.88l.31-.11zm-15.29-4.7c.51.89 2.69 3.01.63 1.16-.14-.3-1.37-.94-.63-1.16zm-1.29 1.44c1.6 1.3 3.45 2.41 4.72 4.07-1.36-1.48-3.26-2.61-4.91-3.8.06-.08.16-.2.19-.27zm3.85 13.56c.09.54 1.87 2.6 1.11 1.92-.3-.55-1.86-1.53-1.11-1.92zm-1.45 1.26c1.43 1.5 3.12 2.83 4.18 4.61-1.16-1.67-2.93-2.95-4.4-4.37l.22-.24zm-.37-37.62c.5.06 2.84-1.3 1.64-.47-.36.06-1.6 1.3-1.64.47zm.91 1.65c1.71-1.13 3.32-2.57 5.26-3.28-1.84.9-3.43 2.31-5.06 3.56l-.2-.28zm3.98-17.62c1.04-.28 3.19-1.42 1.26-.26-.31.02-1.24 1.01-1.26.26zm.95 1.67c1.75-1.08 3.38-2.48 5.34-3.16-1.86.77-3.5 2.24-5.17 3.41l-.17-.25zM70.92 94.39a12.2 12.2 0 01-1.86 1.91c.68-.39 1.18-2.25 1.86-1.91zm1.3 1.41c-1.6 1.29-3.37 2.55-4.67 4.09 1.18-1.72 2.93-2.97 4.45-4.37l.22.28zM70.9 80.93c-.33-.71-1.35-3.59-.33-1.34-.07.41 1.1 1.18.33 1.34zm-1.82.64c-.53-1.95-.86-4.11-1.79-5.88 1.11 1.74 1.5 3.87 2.11 5.82l-.32.06zm4.14 27.79c-.1.83-.3 1.79-.63 2.5.19-.82.27-1.67.31-2.51l.32.01zm1.72.46c-.7 1.91-1.62 3.79-1.93 5.81-.1-.64.39-2.09.64-2.96.45-.69.47-2.94 1.29-2.85zm15.26-4.61a9.87 9.87 0 01-1.96 1.8c.72-.36 1.27-2.15 1.96-1.8zm1.21 1.49c-1.67 1.2-3.52 2.33-4.9 3.81 1.27-1.64 3.11-2.77 4.71-4.07l.19.26zM89.1 83.97c-.85-.23-3.16-1.8-.99-.7.28.3 1.41.11.99.7zm-1.04 1.59C86.44 84.3 84.83 82.9 83 82c1.94.72 3.54 2.16 5.26 3.29l-.2.27zM84.2 68c-.43-.13-2.6-1.37-1.82-1.08.63.28 1.25.58 1.92.75l-.1.33zm-1.04 1.63c-1.67-1.2-3.32-2.6-5.18-3.42 1.94.7 3.6 2.06 5.34 3.17l-.16.25zm4.5 50.54c-.27.39-.56.76-.86 1.12-.28.31-.55.63-.85.92-.06-.05.08-.14.1-.2.27-.35.53-.7.77-1.06.18-.3.37-.6.52-.92.06-.02.16.07.23.1.03 0 .06.04.09.04zm1.38 1.34c-1.15 1-2.28 2.03-3.36 3.11-.32.33-.64.66-.9 1.04-.05.05-.1.25-.15.2.08-.18.2-.35.3-.52.69-.88 1.48-1.67 2.25-2.47.54-.54 1.08-1.08 1.64-1.6l.22.24zm11.72-51.77c0-.83-.01-1.66.06-2.49.08.14.04.43.08.62.05.6.11 1.21.21 1.81l-.35.06zm-1.92-.06c.22-1.87.45-3.74.43-5.63.04-.18-.12-.43-.06-.57.16.38.16.81.18 1.22.04 1.67-.1 3.34-.19 5.01l-.36-.03z"/>
  </g>
</svg>
