<svg xmlns="http://www.w3.org/2000/svg" fill="#d7374a" stroke="#000" viewBox="50 50 200 200">
  <metadata source="http://wappenwiki.org/images/c/c6/Prie.svg" license="https://creativecommons.org/licenses/by-nc-sa/3.0"/>
  <g id="trefoil" stroke-width="3" transform="translate(18.4 158) scale(0.237 -0.237)">
    <path stroke-linejoin="round" d="M509.2,126c-9.8-17.9-18.2-1.2-72.7-28.3c-23.2-11.5-36.2-14.6-52-6c-18.3,10-14.4,29.3-16.4,46.5c-1.4,18.2-11.9,29.2-23.8,29.3c-11.8-0.1-22.4-11.1-23.8-29.3c-2-17.2,1.9-36.5-16.4-46.5c-15.7-8.6-28.8-5.5-52,6c-54.5,27.1-62.9,10.4-72.7,28.3s8.5,16.5,15.2,77c2.8,25.7,7.3,38.4,23,47c17.2,9.4,30-1.2,43.7-9.1c15.8-9.4,30.6-10.1,37.6-0.4c6.9,9.7,0.5,25.5-12.6,34.9c-14.2,10.1-33.1,15.8-33.1,36.8c0,17.9,9,27.9,30.2,42.7c49.9,34.8,40.5,48.9,60.9,48.9s11-14.1,60.9-48.9c21.2-14.8,30.2-24.8,30.2-42.7c0-21-18.9-26.7-33.1-36.8c-13.2-9.4-19.6-25.2-12.6-34.9c6.9-9.7,21.7-9,37.6,0.4c13.7,7.8,26.5,18.5,43.7,9.1c15.7-8.6,20.2-21.3,23-47C500.6,142.5,518.9,143.9,509.2,126zM312.8,219.7a31.5,31.5 0 0,1 63,0a31.5,31.5 0 0,1 -63,0"/>
    <g fill="#000">
      <polygon points="345.8,262.3 344.3,346.4 342.8,262.3"/>
      <polygon points="307.2,193.7 229.7,149.1 308.7,191.1"/>
      <polygon points="378,192.2 458.9,149.1 379.5,194.8"/>
    </g>
  </g>
</svg>
