<svg xmlns="http://www.w3.org/2000/svg" fill="#d7374a" stroke="#000" viewBox="50 50 200 200">
  <metadata source="http://wappenwiki.org/images/0/0d/Riddell.svg" license="https://creativecommons.org/licenses/by-nc-sa/3.0"/>
  <g id="wheatStalk" stroke-width="2.5" transform="translate(67.4 49) scale(0.201)">
    <g>
      <path class="secondary" stroke-linejoin="round" d="M158.5 357.2c-2.4-8.7-8.9-21.2-15.8-30.9a64.8 64.8 0 0 0-34-25.6c-3.2-.9-7.5-2.9-10 .4-.7.9-1 1.9-1.6 2.9-1.2 2-3.2 3.3-4.8 5a15 15 0 0 0-3.1 15.3c1.2 5.1 8 16.2 10.5 19.9 3.2 4.8 6.8 9.3 9.8 14.3 5.4 9.1 13.9 22.1 12.3 43.9 6.9-12 8-24.8 4.7-37.4a208.1 208.1 0 0 0-17.9-45.7c3.9 2.3 8.7 4.8 15.3 10.9 9.6 8.9 22.6 23.7 29 40.3"/>
      <g stroke="none" fill="#000">
        <path d="M107.8 320.3a29.2 29.2 0 0 0-6.5-3 6.7 6.7 0 0 0-3.1-.2c-.4.1-.8.4-1.1.7l-1 1.4c-.6.9-.9 2-.9 3.1s.3 2.3.8 3.3l1.7 3.3c.6 1.1 1 2.4 1 3.7-1-2.4-2.8-4-4.1-6.4-.6-1.2-1.1-2.5-1.2-3.9-.1-1.4.3-2.9.9-4.2l1.1-1.8c.5-.6 1.2-1.1 2-1.4 1.6-.5 3.1-.3 4.4 0 1.3.3 2.6.8 3.8 1.4 1.2.5 2.3 1.2 3.4 1.8l-1.2 2.2z"/>
        <path d="M99.9 316.3a60 60 0 0 1 4.1 7.4 257 257 0 0 1 6.6 15.4 57 57 0 0 1 2.5 8c-.9-2.6-2-5.2-3.1-7.7l-3.7-7.5a170.2 170.2 0 0 0-8.5-14.2l2.1-1.4zM127.3 323.1a74.4 74.4 0 0 1 28.5 40.5c-2-3.7-3.9-7.4-6-10.9s-4.3-7-6.7-10.4c-2.3-3.4-4.9-6.6-7.5-9.8l-8.3-9.4z"/>
      </g>
    </g>
    <path class="secondary" d="M161.3 298.7s.9 39.9 3.1 79.8c.9 16-.2 31.1.1 42.3.3 9.9 1.4 16.8.8 18.7-.9 3.3-2.9 6.1-5.3 8.3-4.8 4.4-10.9 5.9-10.8 2.4 4.2-20.6 3.9-151.4 3.9-151.4"/>
    <path d="M146.1 158.4c9.2 2.8 19.3 1.6 28.4 5 2 .8 4.2 1.9 4.9 4 .4 1.1.4 2.3.3 3.4-.3 3.9-.8 7.7-1.7 11.5-7.8 33.5-7.9 67.4-6 101.8.1 1.4.2 2.9-.3 4.3-.4 1.4-1.3 2.5-2.2 3.6-2.7 3.5-5.9 7.2-10.3 8a17 17 0 0 1-6.7-.6c-3.3-.7-6.7-1.5-9-4a13.2 13.2 0 0 1-2.7-6.8c-1.3-9.5 1.6-19 2.8-28.4 1.1-8.5.9-17.1.8-25.7-.2-21.1.6-42.2 1.4-63.3"/>
    <g stroke-width="2">
      <path d="M157.3 56.5c1.3 2.6 1.2 5.2 1.5 7.7l.7 7.7 1.2 15.5.8 15.5c.2 5.2.2 10.3-.2 15.5a4 4 0 0 1-4.3 3.6 4 4 0 0 1-3.6-3.6c-.5-5.2-.4-10.3-.2-15.5l.8-15.5c.3-5.2.7-10.3 1.2-15.5l.7-7.7c.2-2.5.1-5.1 1.4-7.7zM127.9 170.8c-.8-2.1-1.7-4.3-2.1-6.3l-.8-3.1-.6-3.1c-.5-2.1-.8-4.1-1.1-6.1-.4-2-.6-4.1-.8-6.1a663.2 663.2 0 0 1-3.2-73.2c0-.2.2-.4.4-.4s.4.2.4.4l2.3 24.2a475.4 475.4 0 0 0 6.5 48l1.2 5.9 1.4 5.8.8 2.8.9 2.7c.5 1.9 1.4 3.4 2.1 5.1l.2.5a4.1 4.1 0 1 1-7.6 3.2v-.3zM129 210.2l-1.6-2.5-1.5-2.5-1.3-2.6-1.1-2.6c-.6-1.7-1.4-3.5-1.9-5.2l-1.6-5.2c-1.9-7-3.2-14-4.3-21.1a377.4 377.4 0 0 1-3.9-42.4c0-.2.2-.4.4-.4s.4.1.4.3l1.7 10.5 1.8 10.4c1.2 6.9 2.6 13.8 4.2 20.6 1.6 6.8 3.5 13.6 5.8 20l1.9 4.8c.6 1.6 1.4 3.1 2.1 4.6.3.8.7 1.5 1.2 2.2l1.2 2.1 1.4 1.9 1.4 1.8.4.5a4 4 0 0 1-.8 5.7 4 4 0 0 1-5.7-.8c-.1.1-.2 0-.2-.1zM132.2 251c-4.5-6-7.9-12.5-10.6-19.2-2.8-6.6-5-13.4-7-20.2a208.1 208.1 0 0 1-7.9-41.7c0-.2.2-.4.4-.5.2 0 .4.1.4.3a337.7 337.7 0 0 0 11.6 40.3 179 179 0 0 0 8.3 19 85.9 85.9 0 0 0 11.1 16.8 4.1 4.1 0 0 1-6.2 5.4c.1-.1 0-.1-.1-.2zM135.8 284.1c-4.8-5.3-9.2-11.1-12.8-17.2a109 109 0 0 1-8.8-19.4c-2.3-6.7-3.9-13.5-5.2-20.3l-3.7-20.4c0-.2.1-.4.3-.5.2 0 .4.1.5.3 2.1 6.6 3.8 13.3 5.8 19.9 1.9 6.6 4.1 13.1 6.8 19.3a97.6 97.6 0 0 0 22.9 32.6 4.2 4.2 0 0 1 .2 5.8 4.2 4.2 0 0 1-5.8.2l-.2-.3zM171.5 134.6c1.8-5.8 3.2-11.8 4.5-17.9a543.5 543.5 0 0 0 8.6-55.5c0-.2.2-.4.5-.4.2 0 .4.2.4.4.2 3.2.2 6.3.2 9.4a294.8 294.8 0 0 1-1.3 28.2c-.5 6.3-1.1 12.5-1.8 18.8-.7 6.3-1.7 12.6-3 18.9a4.1 4.1 0 0 1-4.9 3.1 4.1 4.1 0 0 1-3.1-4.9c-.2.2-.1.1-.1-.1zM161.7 116.6c1.5-4.6 2.7-9.4 3.7-14.2 1.1-4.8 1.9-9.7 2.7-14.6.8-4.9 1.4-9.9 1.9-14.8l1.5-15c0-.2.2-.4.5-.4.2 0 .4.2.4.4.5 5 .6 10.1.7 15.1a258 258 0 0 1-3.5 45.7 4.2 4.2 0 0 1-4.8 3.2 4.2 4.2 0 0 1-3.2-4.8l.1-.6zM135.4 136.7c-1.4-6.4-2.3-12.6-3-18.9a627.2 627.2 0 0 1-2.9-37.6 294.8 294.8 0 0 1 0-18.8c0-.2.2-.4.5-.4.2 0 .4.2.4.4a392.5 392.5 0 0 0 5.1 37.1c1.1 6.1 2.2 12.3 3.5 18.4 1.3 6.1 2.7 12.1 4.5 17.9a4 4 0 0 1-2.7 5.1 4 4 0 0 1-5.1-2.7l-.3-.5z"/>
      <path d="M145.3 118.7a186 186 0 0 1-3.3-30.5c-.2-5.1-.2-10.1-.2-15.2.1-5 .3-10.1.7-15.1 0-.2.2-.4.5-.4.2 0 .4.2.4.4l1.5 15a239.2 239.2 0 0 0 8.3 43.6c.7 2.2-.5 4.5-2.6 5.2-2.2.7-4.5-.5-5.2-2.6l-.1-.4zM179.3 167.3c.7-1.7 1.5-3.3 2.1-5.2l.9-2.8.8-2.9c.6-1.9 1-3.9 1.4-5.9l1.2-6a473.3 473.3 0 0 0 6.5-48.8l2.3-24.6c0-.2.2-.4.5-.4.2 0 .4.2.4.4a685.1 685.1 0 0 1-3.2 74.4l-.8 6.2c-.3 2.1-.6 4.2-1.1 6.2l-.6 3.1-.8 3.2c-.5 2.1-1.4 4.3-2.1 6.4a4 4 0 0 1-5.2 2.4 4 4 0 0 1-2.4-5.2l.1-.2v-.3zM179.3 205l1.4-1.8 1.4-1.9 1.2-2.1 1.2-2.2c.7-1.5 1.5-3 2.1-4.6l1.9-4.8c2.4-6.5 4.2-13.2 5.8-20 1.6-6.8 3-13.7 4.2-20.6l1.8-10.4 1.7-10.5c0-.2.3-.4.5-.3.2 0 .4.2.3.4-.6 14.1-1.7 28.3-3.9 42.4-1.1 7-2.4 14.1-4.3 21.1l-1.6 5.2c-.5 1.7-1.3 3.5-1.9 5.2l-1.1 2.6-1.3 2.6c-.4.9-1 1.7-1.5 2.5l-1.6 2.5a4.2 4.2 0 0 1-5.7 1.2 4.2 4.2 0 0 1-1.2-5.7l.2-.2.4-.6zM176 245.8a85.9 85.9 0 0 0 11.1-16.8c3.2-6.1 5.9-12.5 8.3-19a257.1 257.1 0 0 0 11.6-40.3c0-.2.3-.4.5-.3.2 0 .4.2.3.4a216.6 216.6 0 0 1-7.9 41.7c-1.9 6.8-4.2 13.6-7 20.2a98 98 0 0 1-10.6 19.2 4 4 0 0 1-5.7.8 4 4 0 0 1-.8-5.7l.2-.2zM173 278.4a91.3 91.3 0 0 0 22.9-32.6c2.7-6.2 4.8-12.7 6.8-19.3 2-6.6 3.7-13.3 5.8-19.9.1-.2.3-.3.5-.3.2.1.3.3.3.5-1.2 6.8-2.3 13.6-3.7 20.4-1.4 6.8-3 13.6-5.2 20.3a96.5 96.5 0 0 1-21.6 36.6 4.1 4.1 0 0 1-6.1-5.5l.3-.2z"/>
    </g>
    <path d="M160.6 154.4s10.8-17.5 8.7-36.4c-2-17.9-12-25.9-12-25.9s-10 8-12 25.9c-2.1 18.8 8.7 36.4 8.7 36.4M157.3 295.9c2.5-15.2 16.6-23.4 29.1-28.7 2.8 8.9-.5 20.5-5.4 28.4a32.9 32.9 0 0 1-23.6 14.1c-7.3 0-18.7-6.2-23.6-14.1-4.9-7.9-8.2-19.5-5.4-28.4 12.3 5.3 26.4 13.5 28.9 28.7"/>
    <path d="M157.3 267.4c0-15.8 12-28.7 29.2-33.8 3.3 8.7.6 20.4-3.9 28.6a51.7 51.7 0 0 1-25.3 19.2 52.3 52.3 0 0 1-25.3-19.2c-4.5-8.1-7.2-19.9-3.9-28.6 17.2 5.1 29.2 18.1 29.2 33.8"/>
    <path d="M157.3 231.7c0-10.4 9-22.6 29.3-33.2 3.6 8.6 1.4 20.3-2.8 28.6a58.4 58.4 0 0 1-26.6 21.7 58.3 58.3 0 0 1-26.6-21.7c-4.1-8.3-6.4-20.1-2.8-28.6 20.5 10.5 29.5 22.8 29.5 33.2"/>
    <path d="M157.3 198.9c0-16.6 11.1-29.2 27-37.5a38 38 0 0 1-.4 28.7 56.8 56.8 0 0 1-26.6 25.1c-9-3.7-21.7-14-26.6-25.1a37.1 37.1 0 0 1-.4-28.7c15.9 8.3 27 20.8 27 37.5"/>
    <path d="M157.3 162.8a46 46 0 0 1 19.2-36.8c4.7 8 5.5 19.7 2.5 28.5a59.1 59.1 0 0 1-21.7 26.8 59.1 59.1 0 0 1-21.7-26.8c-3-8.8-2.2-20.5 2.5-28.5a46 46 0 0 1 19.2 36.8"/>
    <g stroke="none" fill="#000">
      <polygon points="158.6,267.4 157.3,276.6 156.1,267.4"/>
      <polygon points="158.5,231.7 157.3,243.8 156,231.7"/>
      <polygon points="158.5,198.9 157.3,210.2 156,198.9"/>
      <polygon points="158.5,162.8 157.3,176.4 156,162.8"/>
      <polygon points="158.6,295.9 157.3,301 156.1,295.9"/>
    </g>
    <g>
      <path class="secondary" stroke-linejoin="round" d="M159 365.8c4.1-8 13-19 21.7-27.1a63.6 63.6 0 0 1 38.5-18.2c3.3-.3 8-1.3 9.7 2.4.5 1 .6 2.1.9 3.1.8 2.2 2.5 3.9 3.7 5.9a15 15 0 0 1 0 15.6 98.7 98.7 0 0 1-14.2 17.4c-4.1 4.1-8.6 7.7-12.4 12-7.1 7.9-18.1 18.9-20.8 40.5a47.7 47.7 0 0 1 2.9-37.5 217.6 217.6 0 0 1 26.7-41.2c-4.3 1.4-9.4 2.9-17.2 7.6A116.5 116.5 0 0 0 162 380"/>
      <g stroke="none" fill="#000">
        <path d="m215.3 337.5 3.7-1.1c1.3-.3 2.6-.5 4-.6 1.4 0 2.9.1 4.3.9.7.4 1.3 1.1 1.7 1.8l.8 1.9c.4 1.3.5 2.9.1 4.3s-1.1 2.6-1.9 3.6c-1.7 2.1-3.8 3.3-5.3 5.4.3-1.3 1-2.4 1.8-3.5l2.3-2.9c.7-.9 1.2-2 1.4-3.1.2-1.1.1-2.2-.3-3.2l-.7-1.5a2 2 0 0 0-.9-.9 7 7 0 0 0-3-.5c-2.3.2-4.7.9-7 1.6l-1-2.2z"/>
        <path d="M226.3 339.3a105.8 105.8 0 0 0-11.2 12.1 82.7 82.7 0 0 0-5.1 6.6 82.7 82.7 0 0 0-4.6 6.9 168.9 168.9 0 0 1 8.7-14.3l5-6.8c1.7-2.2 3.5-4.4 5.5-6.4l1.7 1.9zM196.4 338.7c-3.4 2.5-6.7 4.9-9.9 7.5a179.7 179.7 0 0 0-17.9 16.9c-2.8 3.1-5.4 6.2-8.1 9.5a75.2 75.2 0 0 1 35.9-33.9zM182.2 277.7a16 16 0 0 1-1.6 9.8 16.6 16.6 0 0 1-6.8 7.3 35.7 35.7 0 0 0 7.2-12.3l1.2-4.8zM183.3 246.9c.3 1.1.4 2.3.3 3.5a13.4 13.4 0 0 1-2.5 6.5c-.7.9-1.5 1.8-2.5 2.4l1.5-3 1.3-3 1-3.1.9-3.3zM183.8 211.2c.3 1.5.3 3.1.1 4.6a17.8 17.8 0 0 1-3.8 8.5c-1 1.2-2.2 2.2-3.5 3l2.6-3.7a29.3 29.3 0 0 0 3.6-8l1-4.4zM181.2 175.9a15.4 15.4 0 0 1-1.7 12.6c-.8 1.2-1.8 2.3-2.9 3.2.7-1.3 1.4-2.5 1.9-3.8.6-1.3 1-2.5 1.4-3.9a43.9 43.9 0 0 0 1.3-8.1zM176.2 142.1c.6 1.5.9 3.1.9 4.7a19.7 19.7 0 0 1-2.4 9.3 11 11 0 0 1-3.2 3.6 23.2 23.2 0 0 0 3.6-8.5c.4-1.5.6-3 .8-4.5.2-1.4.3-3 .3-4.6zM160 105.7a22 22 0 0 1 4.2 19.5l-.3-5.1c-.2-1.7-.4-3.3-.8-4.9-.3-1.6-.8-3.2-1.3-4.8l-1.8-4.7zM146.9 142.4a15 15 0 0 1 3.6 5.2c.4 1 .7 2 .8 3.1.2 1 .2 2.1.1 3.2-.5-1-.9-1.9-1.2-2.9l-1.1-2.8-1.1-2.8-1.1-3zM145.4 179.5c1.3 1 2.5 2.2 3.4 3.6a23.5 23.5 0 0 1 3.4 9.3c.3 1.6.5 3.3.5 4.9l-1.6-4.7-1.5-4.6c-.5-1.5-1.1-3-1.8-4.4-.6-1.3-1.5-2.6-2.4-4.1zM146.2 217.2c1.2.6 2.2 1.5 3 2.5.8 1 1.5 2.2 2.1 3.4.5 1.2.9 2.5 1.2 3.7.3 1.3.5 2.5.5 3.9-.6-1.2-1.2-2.3-1.6-3.5l-1.5-3.5c-.5-1.1-1-2.3-1.6-3.3a22 22 0 0 0-2.1-3.2zM144.5 249.1c1.2.7 2.3 1.6 3.2 2.6a20.8 20.8 0 0 1 4 7.3c.4 1.3.6 2.7.5 4.1a104 104 0 0 1-1.6-3.7c-.6-1.2-1.1-2.4-1.8-3.5l-2-3.4-2.3-3.4zM145 283.4a14.4 14.4 0 0 1 5.7 5.4c.7 1.1 1.3 2.3 1.6 3.6.4 1.3.6 2.6.6 3.9l-1.7-3.4-1.8-3.3c-.6-1.1-1.3-2.1-2.1-3.1l-2.3-3.1z"/>
      </g>
    </g>
    <path class="secondary" d="M157.3 308.1c-5.7 0-8.6-1.2-10.7-1.9.1 2 1.1 4.7 2.8 6.1 2 1.7 5 2.7 8 2.6 2.9.1 5.9-.8 8-2.6 1.7-1.4 2.6-4.2 2.8-6.1-2.3.8-5.2 1.9-10.9 1.9z"/>
    <g stroke="none" fill="#000">
      <path d="M163 380.6a20.4 20.4 0 0 0-3.5 8.2 18.6 18.6 0 0 1 1.4-9.4l2.1 1.2zM160.1 366.3a33 33 0 0 0-3.9 8.5c.1-1.6.2-3.2.5-4.8.3-1.6.6-3.2 1.2-4.8l2.2 1.1zM162.9 439a16 16 0 0 0-2.1-.5c-.7 0-1.2 0-1.8.3-1 .4-2 1.5-2.7 2.5a32 32 0 0 0-1.9 3.7c-.7 1.3-1.3 2.7-2.4 3.8.5-1.4.7-2.8 1.1-4.2l.6-2.1c.2-.7.5-1.4 1-2.2l1.6-1.9c.6-.5 1.4-1 2.3-1.2.9-.2 1.8-.1 2.5.3.8.4 1.4.9 1.8 1.5z"/>
    </g>
  </g>
</svg>
