<svg xmlns="http://www.w3.org/2000/svg" fill="#d7374a" stroke="#000" viewBox="50 50 200 200"><metadata license="https://creativecommons.org/licenses/by-nc-sa/3.0" source="http://wappenwiki.org/images/9/93/Czerskie.svg"/><g id="wyvernWithWingsDisplayed" stroke-width=".32"><path d="M129.7 107.7c.16-.4-.1-1.43.09-1.63.2-.19 1.34.1 1.64-.05m-4.55 4.55c.2-.42-.02-1.58.2-1.77.23-.2 1.47.2 1.8.06m-5.08 4.11c.22-.41.07-1.56.3-1.73.24-.18 1.43.28 1.76.16"/><path d="M120.87 114.9s7.72-5.36 11.13-10.27c-.16 0-2.26.35-3.14-.41-.5-.31 2-1.66 4.24-4.07 1.92-2.06 3.94-4.75 4.25-4.7.3.06.14 3.72-.42 7.08-.51 3.11-1.54 6.03-1.84 6.04-.75.06-1.15-2.47-1.37-2.92-.15.61-.56 1.9-1 2.73-.23.95-.77 1.48-1.24 2.3-.35.96-1.16 1.8-1.53 2.23-.36.53-.32.6-.75 1.12-.19.24-.67.6-.87.86a7 7 0 01-1.82 2.01c-.83 1.33-2.44 2.16-2.44 2.16"/><path fill="none" d="M131.9 107.6s.6.18.8.76m-2.45 1.25s.9.26 1.21 1.04m-2.78.97s.92.2 1.28 1.26m-4.86 2.21s1.13.9 1.42 1.79m.42-3.5s1.09.59 1.38 1.48m-4.91 1.51s.3-.36.91-.84c.23-.17.5-.2.79-.44.26-.22.6-.7.92-.98.25-.24.6-.46.88-.73s.55-.7.84-1c.28-.3.62-.44.9-.76.24-.26.44-.69.74-1.1.2-.3.48-.54.8-.84.32-.39.35-.61.66-1.03.28-.37 1.03-1.06 1.03-1.06l.62-.93c.26-.37.5-.53.78-.9.45-.56.4-.27.45-.14"/><path d="M109.7 123.6c-.02-.7-1.15-2.09-.99-2.5.16-.42 2.08-.79 2.42-1.2m.39 8.98c-.5-.5-2.25-.77-2.42-1.18-.17-.42 1-1.98.96-2.53m6.37 6.27c-.7-.02-2.16 1-2.57.8-.4-.18-.63-2.12-1.03-2.49m8.84.69c-.54.45-.96 2.17-1.39 2.3s-1.87-1.18-2.42-1.2m7.27-5.19c-.16.68.55 2.31.29 2.67-.26.37-2.2.2-2.66.53m2.82-8.28c.3.64 1.86 1.48 1.87 1.92 0 .45-1.62 1.52-1.77 2.04m-2.27-8.66c.56.44 2.33.5 2.54.89.21.4-.77 2.07-.67 2.6m-5.36-7.05c.66.23 2.35-.3 2.68 0s-.03 2.21.24 2.68m-6.62-5.66c.7.15 2.3-.59 2.67-.34.36.26.24 2.2.57 2.64m-7.55-4.97c.7.06 2.22-.86 2.61-.65.4.22.5 2.17.87 2.56m-7.67-6.17c.67.23 2.35-.31 2.68-.01.34.3-.02 2.21.25 2.68"/><path d="M78.1 124.8c.35.24 1.1.6 2.09.32 1.17-.33 1.84-1.74 1.75-2.28.03-.18-.13-.21-.13-.22s.3-.47-.17-.9c-.24-.23-1.01-.24-1.01-.24s-1.25.28-1.32.75c-.04.3-.2.12.18.54.01 0-.05-.11.03.04.05.09.28.02.3.38 0 .37-.18.68-.46.9-.45.37-1.09.31-1.47.27-.04 0-.55-.1.21.44zm-6.77-3.21a2.46 2.46 0 01-.54-2.03c.2-1.2 1.54-2.01 2.09-2 .18-.05.23.11.23.11.01 0 .44-.34.91.08.25.22.35.98.35.98s-.14 1.27-.61 1.4c-.28.07-.1.2-.55-.13-.01-.02.12.03-.04-.03-.09-.03-.06-.26-.42-.24a1.1 1.1 0 00-.84.54c-.33.5-.2 1.13-.12 1.5 0 .02.17.52-.46-.18zm-.93-8a2.5 2.5 0 011.02-1.84c.98-.73 2.5-.39 2.88 0 .17.1.1.24.1.24s.55.06.6.69c.02.33-.44.95-.44.95s-.99.81-1.4.59c-.26-.14-.22.1-.31-.47 0-.01.05.1-.02-.06-.05-.08.15-.22-.13-.46a1.08 1.08 0 00-.99-.19c-.56.13-.9.67-1.11 1 0 .02-.23.48-.2-.45zm5.55-5.97a2.5 2.5 0 012.04-.53c1.2.22 2 1.56 1.97 2.1.05.2-.1.23-.1.24 0 .02.34.44-.09.91-.23.25-.98.34-.98.34s-1.27-.15-1.4-.62c-.07-.28-.21-.1.13-.55.01-.01-.04.12.02-.04.04-.09.27-.05.25-.42a1.08 1.08 0 00-.53-.85c-.49-.32-1.12-.2-1.5-.12-.02 0-.52.16.19-.46z"/><path d="M99.85 119.4a25.06 25.06 0 00-4.54 1.81c-.79.42-1.37 1.16-2.3.91-.72-.2-1.46-1.07-2.12-1.43-1-.55-2.26-1.03-3.58-1.45a31.76 31.76 0 00-5.42-1.17c-.17-.03-.2.18-.1.34.59 1.09-.28 1.2 0 2.05.02.06.06.1.08.13.05.12.07.38.06.46l-.01.08s0 0 0 0c-.01.06.02.12.09.14 0 0 .45.24.52.68.01.04.05.48-.12.74-.17.26-.4.22-.4.22-.25-.14-1.6-.7-2.48-.03-.3.07-.54-.38-.58-.6a1.6 1.6 0 01-.03-.45.92.92 0 01.65-.77c.03 0 .06-.03.07-.05l.01-.04v-.07s.12-.28-.12-.83c-.15-.55.3-.6-.16-.98-.32-.23-.56-.1-.79.1-.66.47-.71.27-1.2.22-.67.06-.62.68-1.47.35-.58-.17-.8-.05-.82-.05h-.06l-.04.03c-.04.02-.05.05-.06.08a.9.9 0 01-.7.72c-.1.02-.33.03-.45.02-.22-.02-.7-.22-.67-.53.57-.93-.11-2.22-.28-2.47 0 0-.06-.21.19-.41.24-.2.67-.2.71-.2.44.04.73.44.73.45.02.06.09.09.14.08h.01l.07-.02c.07-.03.34-.03.46 0 1.75.65.6-.52 2.32-.23.16.12.23.01.06-.24-.82-1.18-1.69-.08-2.5-1.52-.3-.53-.59-.6-.6-.6a.08.08 0 00-.04-.05h-.05c-.03 0-.06 0-.1.03a.92.92 0 01-1 .03c-.08-.05-.25-.22-.34-.3-.14-.16-.35-.64-.1-.84 1.05-.28 1.45-1.69 1.5-1.98 0 0 .1-.19.42-.17.3.02.63.32.65.36.3.33.23.82.22.82-.03.05 0 .12.05.15 0 0 0 0 0 0l.07.03c.08.04.27.23.34.33.57 1.13 1.24.37 1.94 1.32.26.4.3.1.3-.03.1-1.05-1.06-.68-.5-2.27.18-.58.02-.84.02-.85v-.06l-.02-.04c-.02-.04-.05-.05-.09-.06a.94.94 0 01-.71-.7c-.02-.1-.02-.34-.02-.45.02-.22.22-.7.53-.66.93.58 2.23-.1 2.47-.26 0 0 .22-.06.42.19.2.25.2.68.2.73-.04.44-.46.72-.46.72a.13.13 0 00-.07.14v.01s0 .04.02.07c.02.08.02.34-.02.46l-.07.14c-.1.2-.33.58-.11 1 .2.41.41.57.37 1.02-.09.42.05.75.26.98.2.25.47.39.62.42.38.14 1.11.25 2.13.34.46.05.98.08 1.56.12.57.03 1.18.07 1.84.09l2.54.13c.95.11 1.23.32 2.22.11.63-.19.7-.3 1.23-.64 1.2-.75 2.31-1.72 3.53-2.4 1.27-.72 2.62-.38 4.05-.28 1 .07 2.05.16 2.95.63s1.6 1.45 1.43 2.46a3.6 3.6 0 01-1.05 1.73c-.38.4-.76.81-1.22 1.1-.53.34-1.15.5-1.75.68l-.73.22z"/><path fill="none" d="M88.54 115.7c.4.5.14.98.14.98m-2.35-1.06c.28.35.12.88.12.88m-3.81-1.15c.2.3-.01.81-.01.81m8.33.78s.2-.55-.18-1m-6.32.44s.15-.67-.11-.88m8.21-.19c.46.43.66 1.19.37 1.48-.29.3-1.5.6-1.97.17-1 .2-1.34-.15-2.28-.27-.48.3-1.73-.03-2.23-.18-.41.26-1.73.19-2-.11-.54.36-1.56-.17-1.82-.23-1.1 0-1.83-1.25-1.83-1.25"/><path d="M76.23 60.94c-.55-.47.02-.84-1-1.6.03-.07 1.08-.48 1.79.94m-3.92 43.89c-.36.63-.83.14-1.39 1.3-.07-.03-.68-.97.57-1.95M83.64 107c0 .72-.65.5-.59 1.8-.07 0-1.05-.52-.43-1.98M66.23 93.43c-.57.44-.8-.19-1.78.65-.06-.07-.24-1.17 1.3-1.57M64.4 82.15c-.72.08-.63-.6-1.9-.37-.01-.07.42-1.1 1.94-.66m3.01-11c-.71-.14-.4-.82-1.68-.99.01-.07.72-.86 2.04.02"/><path d="M89.2 105.6c-1-.24-2.2-.3-3.06-.12-1.13.19-2.28.96-2.53 1.5-.25-.22-.83-.07-1.06-.11.03-.37-1.82-2.23-4.1-2.95s-4.94-.1-5.39.23c-.1-.32-.7-.47-.88-.61.22-.32.3-1.81-.1-3.22a13.7 13.7 0 00-3.66-5.88c-.24-.2-.45-.38-.68-.54-.59-.4-1.12-.58-1.54-.48.02-.34-.45-.71-.57-.91.33-.22 1.18-1.89 1.39-2.74.38-2.11.15-4.66-1.05-6.44-.39-.57-.96-1-1.62-1.21a.47.47 0 00.08-.28h-.01v-.18c-.03-.24-.1-.48-.1-.61.38-.02 1.45-.62 2.26-1.62 1.5-2.2 2.25-5.43 1.62-7.98a2.48 2.48 0 00-.8-1.37c.27-.2.23-.8.3-1.03.37.1 1.52.08 2.65-.07 1.13-.2 2.75-.15 4.37-2.2a7.7 7.7 0 001.4-3.07c.33-1.63.23-2.15.07-2.83l.05-.01.46-.42.03-.03c.09-.12.16-.23.23-.28.27.27 1.9 1.74 2.65 3.54.76 1.83.96 2.46 1.26 4.47.8 5.45-.07 6.98 1.36 9.52 1.49 2.63 3.3 3.82 3.77 6.5.46 2.63-.43 5.95-.15 7.27.53 2.52 3.01 2.42 5.22 2.08"/><path fill="none" d="M79.89 78.91c1.11 2.8 2.79 3.2 3.07 6.18.3 3.2-1.14 6.62.16 9.58a5.7 5.7 0 004.66 3.31c.91.08 1.83-.07 2.74 0"/><path d="M92.78 73.68c-3.3.52-5.03.1-6.43-.59 1-.01 2.1-1.39 2.1-1.39-1.97.23-4.38.15-6.42-1.33 1.01 3.27 2.59 5.24 3.69 5.48.06.02.07.02.1-.05.04-.06-.07-.22-.12-.68-.06-.47.05-.8.05-.8 2.46 1.27 5.66.55 8.34.16 3.27-.46 5.52-.13 8.32 1.63l.27-.83c-2.75-1.85-5.65-2.25-9.9-1.6z"/><path d="M104.69 66.38c.76-.46 2.39-1.01 2.84-2.21 1.18.85 2.86.26 3.64-.78.8 1.26 3.34.54 4.18-.4-.03 2.84-3.76 2.53-3.73 4.98a3.17 3.17 0 00-2.4 2.37c-1.25-.38-2.38.6-3.89-.04"/><path d="M107.8 91.33c.36.75 2.2 1.7 2.22 2.22.02.53-1.86 1.81-2.03 2.42m.24-10.55c.27.8 1.97 1.97 1.93 2.5-.04.52-2.08 1.56-2.32 2.14m1.08-22.53c.58.6 2.63.9 2.82 1.4.2.5-1.18 2.31-1.15 2.94m.04 1.12c.34.75 2.17 1.74 2.2 2.27.02.52-1.9 1.77-2.08 2.38m-.59 1.8c.16.81 1.7 2.2 1.58 2.72-.1.51-2.26 1.27-2.59 1.82"/><path fill="#fff" d="M92.68 77.2a3.55 3.55 0 01-.52-2.18c.46.45.91 1.36 1.97 1.62a1.9 1.9 0 01.1-1.46c.5.58 1.09 1.18 1.84 1.24-.05-.38-.04-.77.04-1.15.3.43.87.98 1.37 1.13m-7.8-5.3c.1.8.56 1.94 1.08 2.57a6.6 6.6 0 01.27-2.21m.77-.05c-.02.41.18 1.01.33 1.17.07.08.1.21.2.2.05 0 .09-.07.12-.12.08-.18.14-1.01.27-1.27m.68-.28c.22.44.48 1.04.93 1.22.13-.4.13-1.14.26-1.55m.44 0c.28.38.78 1 1.22 1.19-.01-.44.14-.88.41-1.22"/><path d="M121.15 113.57a45.29 45.29 0 00-7.25-5.25c-2.14-1.28-4.33-3.2-5.17-5.65-.76-2.24-.2-4.58-.32-6.88-.06-1.42-.37-2.84-.41-4.26-.11-4.54 3.26-11.67 3.07-17.54-.11-3.2-.75-5.02-1.07-5.52-.48-.77-.93-2.01-1.57-2.66-.86-.9-1.12-1.49-2.73-1.97-1.55-.46-3.74.23-5.66.1-1.75-.07-1.94 1.3-3.43 1.05l-.18-.02c-.36.02-.3.5-.25.73.05.2.11.3.01.5a.92.92 0 01-.45.44c-.22.1-.48.1-.72.1a20.4 20.4 0 01-3.22-.1c-.55-.08-1.12-.2-1.65-.03-.28.09-.64.26-.93.27-.7.03-.74-.55-1.21-.62-.5.51-.53 1.24-.29 1.75.2.44.37.63.55.88.27.4.25.95.4 1.42.2.64.53.98 1.21 1.32.48.23.85.32 1.38.3.58-.01 1.4-.44 1.63-.56a5.4 5.4 0 012.65-.66 7.02 7.02 0 012.52.79s.77.29 1.46.92a7.1 7.1 0 011.5 2.2c.05.1.1.22.09.34-.03.13-.76.46-1.32.5-.4.03-.86-.01-1.38.13-.35.1-1.1.37-1.57.49-.58.14-1.26.27-1.85.34-1.39.17-2.1.1-3.48.27-.15.02-.17.05-.25.21-.15.32.16.7.42.93.32.35.82.23 1 .65.22.68-.5 1.08-.23 1.08.89-.22 1.18-.88 1.18-.88s.22.64.1 1.08c-.14.52-.64.72-.56.83.08.11 1.13-.4 1.45-1.02.32-.62.31-1.24.31-1.24s.65.36 1.34.18c.75-.2.59-.95 1.93-1.2.85-.16 1.05.21 2.6-.18.5-.1.82-.26 1.16-.42.24 1.57-.29 1.47-.2 2.37 0 0-.3.9-.8 1.66-.5.8-1.23 1.06-1.23 1.7 0 0-.72.19-1.87 1.31-.4.4-1 1.42-1 1.42s-.95.58-1.34 1.13c-.47.66-.97 1.45-.97 1.45s-1.23.39-2.11 1.06c-.92.7-1.7 1.8-1.7 1.8s-.88.32-2.08 1.7c-1.03 1.18-1.27 2.5-1.27 2.5s-1 1.18-1.3 3.29a4.96 4.96 0 00.14 2.08c0 .52-.38 1-.28 2.83.06.91.67 2.86.67 2.86s.19 1.45 1.01 2.98c.61 1.15 1.89 2.12 1.89 2.12s.72 1.14 1.67 1.82a14.66 14.66 0 004.08 1.8c.15.06 1.08.94 2.22 1.5 1.13.55 2.5.78 2.65.81a7.8 7.8 0 012.01.5c.47.08-1.18.13-.7.18 2.21.2.95.35 3.15.08.5.14 3.1.89 3.47.31 1.75 1.48 3.82.65 3.82.65s-2.29 1.12-2.57 4.43a8.06 8.06 0 002.27 6.44 8.24 8.24 0 005.35 2.4c4.54.39 8.8-3.53 9.12-7.25.48-5.14-1.97-8.41-4.91-11.07zM119.92 125c-.19.4.06.15-.79.66-.41.28-.52.64-.68.61-.62-.05-1.66.46-2.01.05-.47-.98-1.27-.9-1.19-1.88.06-.78.76-1.27.77-1.96.43-.56 1.08-.5 1.6-1.14.27.02.84.47 2.1 1.23.02.12-.13.52-.06 1.19.06.67.3 1.03.26 1.24z"/><path fill="none" d="M116 122.5c-1.33-1.07-2.41-1.15-2.41-1.15m-.96 3.79c.54-.53 2-.8 2.64-.66m-.14 4.24s.1-1.18 1.34-2.36m3.36 2.33s-1.11-.86-1.29-2.39m4.24-.58s-1.62.14-2.83-.7m-.19-2.38s.72-.03 1.34-.2a5.43 5.43 0 001.41-.66m-6.02-4.89s-.2 1-.5 1.72a4.35 4.35 0 01-.96 1.38m-6.84-2.01s.42-.83.57-1.73c.15-.88.06-1.82.06-1.82m4.21.91s-.07.98-.35 1.82c-.27.8-.74 1.48-.74 1.48m8.04.24s-.56 1-1.07 1.6c-.53.6-1.19.93-1.19.93m-5.76-2.76s1.47 1.26 3.1 1.37c.1.1 1.18 1.25 2.59 1.36m-2.88-1.38s-.35.07-.77.53c-.52.56-.44.83-.44.83s-.93.38-1.18 1.8c-.24 1.4.26 1.88.26 1.88s-.09 1.64.73 2.57c.8.93 1.73 1.1 1.73 1.1s1.12.9 2.45.75c1.33-.16 2.28-.75 2.28-.75s1.2-.3 2.1-1.15c.9-.84.88-1.86.88-1.86s.45-1.11.3-2.04c-.15-.9-.6-1.9-.6-1.9s-.25-.65-.84-1.47c-.59-.83-1.7-1.41-1.7-1.41s-.33-.6-1.24-1.16c-1.2-.73-2.24-.83-2.24-.83s-.63-.61-1.57-1.03c-.75-.34-1.9-.5-1.9-.5s-.79-.5-1.74-.75c-1.33-.33-2.46-.18-2.46-.18-.17 0-.44-.18-.6-.25"/><path d="M103.8 79.5s-.7-.71-1.97-.46m1.65-2.33c.45.55.75 1.8.31 2.8m-4 2.9c1 .05 1.98.32 2.84.82m1.17-3.73c.21 1.05-.15 2.05-.65 3.01-.15.29-.4.4-.52.7-.06.17-.37 1.09-.85 1.68-.33.4-.85 1.13-1.24 1.46 0 0-.31 1.11-.9 1.84-.45.59-1.22 1.26-1.22 1.26s-1.05 1.53-1.41 1.89l-1.32 1.26c-.28.2-.86 1.37-1.19 1.99-.4.74-1.1 1.36-1.1 1.36s-.46 1.24-.92 2.36c-.09.22-.5 1.32-.56 1.53-.05.22.02.3.02.53 0 0 .19 1.37.18 1.95-.01.93.1 1.58.1 1.58a237.6 237.6 0 001.49 3.5s.98.6 1.44.94c.39.28 1.85 1.6 1.85 1.6.13.07 1.34.5 1.5.54.53.16 2.58.81 3.06 1.1M90.8 90.6c1.87-.2 3.49.76 4.89 2.01m-8.24 2.19c.9-.18 1.83 0 2.73.15l1.02.19c.93.17 1.24.35 2.07.8m-6.97 4.24c2.04-.37 3.5-.45 5.57-.26m-5.18 5.95c.44-.37.92-.67 1.45-.88.44-.2.92-.32 1.39-.46a28 28 0 012.55-.65m-2.49 7.1s.94-1.06 1.47-1.6a15.6 15.6 0 012.64-1.96m1.65 7.18a8.1 8.1 0 011.54-4.6m-2.28-22.26c.5-.1 1 .13 1.46.34.49.24.86.36 1.31.65.15.1.3.19.44.3.27.18.32.25.59.45m-1.48-4.33c.62-.2 1.06.1 1.68.3.87.28 1.93.9 1.93.9"/><path fill="none" d="M102 76.69c.42-.29 1.14.1 1.57-.12.62-.32.07-.98-.08-1.6"/><path fill="#F6F6F6" d="M100.05 66.93c-.01.42-.28.81-.6 1.03-.28.2-.7.15-.99-.05-.15-.1-.26-.22-.37-.36a2.32 2.32 0 01-.43-.76c-.02-.08-.04-.08-.03-.17.29.05.48.1.84.06.25-.02.5-.13.73-.22.25-.09.45-.25.67-.37 0 0 .2.27.18.84z"/><path d="M106.27 66.29c.85-.26 2.57-.4 3.3-1.45.94 1.12 2.72.96 3.73.14.46 1.43 3.1 1.36 4.14.63-.73 2.75-4.26 1.55-4.83 3.92a3.16 3.16 0 00-2.92 1.7c-1.1-.68-2.45 0-3.75-1"/><path d="M109.2 135.8c.24-.35.6-1.1.31-2.08-.33-1.17-1.75-1.83-2.29-1.74-.19-.04-.21.12-.21.12-.01 0-.47-.3-.9.19-.21.24-.24 1.01-.24 1.01s.28 1.24.76 1.32c.3.04.12.2.54-.18.01-.01-.1.05.04-.04.09-.04.02-.27.39-.28.36-.01.67.17.9.45.37.44.3 1.09.27 1.47 0 .02-.1.54.43-.23zm-10.36 7.15a2.48 2.48 0 01-1.93-.84c-.82-.91-.61-2.46-.25-2.87.08-.17.23-.12.23-.12s0-.55.63-.66c.32-.05.98.34.98.34s.9.9.7 1.34c-.1.27.12.2-.43.35l-.04.02c-.09.06-.25-.12-.45.18s-.22.65-.1 1c.17.55.75.84 1.08 1.02.02 0 .52.2-.43.24zm-7.13-4.01a2.46 2.46 0 01-.8-1.95c.04-1.22 1.26-2.19 1.8-2.24.18-.08.25.07.25.07.01 0 .39-.4.9-.04.28.18.48.93.48.93s.02 1.27-.42 1.46c-.26.11-.06.22-.55-.06-.01 0 .11.02-.06-.02-.1-.02-.08-.26-.44-.2-.36.08-.6.33-.76.66-.24.52-.04 1.13.09 1.5 0 .03.21.5-.5-.1zm-1.53-5.37c-.15-.4-.31-1.2.2-2.1.59-1.06 2.13-1.36 2.63-1.14.2.02.19.18.19.18s.53-.17.82.39c.15.28-.02 1.03-.02 1.03s-.57 1.15-1.05 1.1c-.29-.02-.16.18-.47-.3 0-.02.1.07-.03-.04-.08-.06.04-.26-.31-.37-.36-.1-.7 0-.98.21-.47.36-.56.99-.62 1.36 0 .03 0 .55-.36-.32z"/><path d="M108.49 105.4c2.05 5.06-.08 9.26-.08 9.26h0c-.11.46-.4.7-.5 1.1a8.22 8.22 0 00-.34 3.55c.05.52.18.82 0 1.2-.22.5-.64.58-1.5 1.8-.66.92-1.28 2.12-1.85 3.37a32.8 32.8 0 00-1.8 5.26c-.04.17.29.83.47.8 1.23-.2 1.02.69 1.86.4.06-.02.1-.06.13-.08a1.22 1.22 0 01.54-.05s0 0 0 0c.06 0 .13-.03.14-.09 0 0 .23-.45.67-.52.04-.01.48-.06.74.12.26.17.23.4.23.4-.13.25-.68 1.62 0 2.47.06.3-.4.56-.6.6-.11.02-.36.05-.45.04-.65-.1-.79-.64-.79-.64 0-.03-.03-.06-.05-.07l-.04-.01h-.07s-.46-.03-1.26.12c-.7.21-.89-.67-1.87-.16-.33.22-.45.5-.44.8a2.83 2.83 0 01-.82 1.79c-.38.54.15.9-.66 1.34-.49.35-.53.61-.53.61-.02.01-.03.04-.03.05l-.01.04c0 .03 0 .06.03.1 0 0 .38.4.13.99-.05.1-.2.28-.27.36-.15.15-.6.41-.83.19-.37-1.03-1.81-1.3-2.1-1.32 0 0-.2-.1-.2-.4 0-.32.26-.66.3-.7a1 1 0 01.8-.28c.05.02.11-.01.13-.06v-.02l.03-.06c.03-.07.19-.29.3-.35 1.59-.98 0-.87 1.28-2.02.12-.1.15-.18-.15-.2-1.43-.1-1.43 1.6-3.07 1.32-.6-.1-.84.1-.84.1h-.05l-.03.03a.14.14 0 00-.04.1s0 .55-.6.8a2 2 0 01-.44.08c-.22.01-.72-.13-.73-.44.44-1-.42-2.2-.61-2.4 0 0-.09-.2.13-.44.21-.23.64-.3.68-.3.44-.02.78.35.78.35.04.05.1.07.15.05h.02s.03 0 .06-.03c.07-.03.34-.07.46-.05 1.23.25 1.33-.7 2.25-.7-.88-.2-1.42.17-2.06-.22-.51-.32-.78-.3-.78-.3l-.05-.02h-.05c-.03 0-.06.03-.07.06a.9.9 0 01-.91.43c-.1-.01-.32-.09-.43-.14-.19-.1-.58-.44-.44-.72.86-.68.66-2.13.58-2.42 0 0 .02-.22.32-.32s.7.05.75.07c.4.18.54.66.54.67 0 .07.05.1.1.12h.09c.08.01.33.1.43.17l.1.1c.15.18.44.51.9.46.46-.06 1.12-.25 1.52-.06.99.52 1.64 0 1.7-.15.17-.37.37-1.08.58-2.07.1-.45.2-.96.29-1.53l.3-1.82c.1-.69.4-2.44.42-2.5.23-.94.46-1.2.37-2.2-.12-.65-.16-1.05-.32-1.65a38.26 38.26 0 01-.89-3.86c-.1-1.1-.12-2.1-.47-3.16-.6-1.84-.81-4.48-.32-5.94.17-.52.42-1.64.72-2.1.1-.13.4-.4.4-.57a.8.8 0 01.28-.54c1.36-1.21 3.15-1.28 4.96-1.33.18-.01.37 0 .53.08.12.07.2.15.29.25.78.86 1.4 1.85 1.82 2.92"/><path fill="none" d="M100.9 124.1c.53-.34.98-.02.98-.02m-1.32 2.2c.38-.23.87-.02.87-.02m-1.55 3.66c.32-.16.8.1.8.1m1.74-8.18s-.53-.27-1.02.07m-.3 6.32s-.64-.23-.89 0m.9-8.5c.55-.32 1.33-.3 1.53.07.2.36.27 1.62-.22 2.03.08 1.02-.3 1.3-.54 2.24.25.51-.22 1.72-.44 2.19.22.44 0 1.73-.33 1.97.3.58-.35 1.54-.44 1.8-.13 1.09-1.24 1.31-1.24 1.31"/><path d="M106.7 106c-.05.73.61.57.43 1.85.08.01 1.1-.44.6-1.94m15.66-46.08c.55-.47-.02-.84 1.01-1.6-.04-.07-1.1-.48-1.8.94m3.93 43.89c.35.63.82.14 1.38 1.3.08-.03.69-.97-.57-1.95m-11.36 3.47c.01.73.65.52.59 1.81.07 0 1.06-.52.44-1.98m16.37-13.39c.59.44.82-.19 1.8.65.05-.07.23-1.17-1.3-1.57m1.34-10.36c.72.08.62-.6 1.9-.37 0-.07-.42-1.1-1.94-.66m-3.01-11c.72-.14.4-.82 1.68-.99-.01-.07-.72-.86-2.03.02"/><path d="M99.1 105.46s.91-.85 2.69-1.2a5.5 5.5 0 012.64.06c.77.27 2.08 1.18 2.3 1.75.26-.2.83-.01 1.06-.02 0-.39 1.68-1.22 2.62-1.47 1.01-.24 2.2-.3 3.06-.12 1.13.19 2.28.96 2.53 1.5.25-.22.83-.07 1.06-.11-.03-.37 1.82-2.23 4.1-2.95s4.94-.1 5.39.23c.1-.32.7-.47.88-.61-.22-.32-.3-1.8.1-3.22a13.7 13.7 0 013.66-5.88c.24-.2.45-.38.68-.54.59-.4 1.12-.58 1.54-.48-.02-.34.45-.71.57-.91-.33-.22-1.18-1.89-1.38-2.74-.39-2.11-.15-4.66 1.04-6.44a3.09 3.09 0 011.62-1.21.47.47 0 01-.08-.28h.02v-.18c.02-.24.1-.48.1-.61-.4-.02-1.46-.62-2.27-1.62-1.5-2.2-2.25-5.43-1.62-7.98.17-.62.44-1.1.8-1.37-.27-.2-.22-.8-.3-1.03-.37.1-1.52.08-2.65-.07-1.13-.2-2.75-.15-4.37-2.2a7.7 7.7 0 01-1.4-3.07c-.33-1.63-.22-2.15-.06-2.83l-.06-.01-.46-.42-.03-.03c-.09-.12-.16-.23-.22-.28-.28.27-1.9 1.74-2.66 3.54a14.72 14.72 0 00-1.26 4.47c-.8 5.45.07 6.98-1.36 9.52-1.49 2.63-3.3 3.82-3.77 6.5-.46 2.63.43 5.95.15 7.27-.53 2.52-3.01 2.42-5.22 2.08a8.35 8.35 0 00-4.16.49"/><path fill="none" d="M119.76 77.84c-1.12 2.8-2.8 3.2-3.08 6.18-.3 3.2 1.5 6.8-.16 9.58-1.4 2.36-3.98 2.94-6.8 3.31"/><g fill="#000" stroke="none"><path d="M108.3 98.47c.27 2.29 0 4.69-.98 6.79.55-2.23.81-4.5.98-6.79zm6.73-.71c1.02 2.06 1.32 4.41 1.39 6.69-.5-2.22-.8-4.49-1.39-6.69zm3.39-2.85c2.4.8 4.23 2.7 5.85 4.57a9.23 9.23 0 011.41 2.19 26.33 26.33 0 00-6.09-6.1 8.45 8.45 0 00-1.17-.66zm1.05-4.38c3.73-1.12 7.8-.61 11.39.75.1.1-.86-.22-1.18-.27-3.33-.74-6.84-1.13-10.21-.48zm.05-6.67a24.89 24.89 0 0111.5-2.61c.46 0 1.33.05.37.07a40.26 40.26 0 00-11.87 2.54zm9.87-13.84a23.94 23.94 0 00-7.47 4.59c-.33.3-1.24 1.53-.47.36 1.85-2.4 4.61-3.99 7.48-4.85l.46-.1zm-7.98-6.18c-1.08 2.33-1.02 4.98-.94 7.49.04 2 .13 4.05-.4 6l-.19.59c-.15-.07-.4-.09-.24-.3.59-1.56.6-3.26.64-4.91.02-2.56-.12-5.17.62-7.65.14-.42.3-.83.51-1.22zm-16.99 29.29a5.72 5.72 0 00-2.84 2.08 5.5 5.5 0 012.77-2.38c.17 0 .2.23.07.3zm-5.84 9.26c.59.9.65 2.03.65 3.09 0 .09-.07.16-.17.15a.15.15 0 01-.15-.17c.04-1.08.11-2.3-.33-3.07zm11.19-5.33c-.52.06-1.1.16-1.6.27-1.3.35-2.5.87-3.78.95-.36.03-.72.03-1.08.03.28-.03.57 0 .85-.04 1.35-.1 2.64-.73 3.85-1.11.22-.09.46-.15.7-.2.31-.08.66-.15.98-.22z"/><path d="M84.57 98.83c-.6 2.2-.9 4.48-1.4 6.71.08-2.27.38-4.69 1.4-6.71zm-3.37-2.85c-2.22 1.07-3.94 2.92-5.62 4.68-.62.71-1.28 1.42-1.74 2.25.85-1.92 2.39-3.46 3.92-4.86a9.33 9.33 0 013.44-2.07zm-1.07-4.38c-3.83-.68-7.76-.15-11.49.83 3-1.2 6.3-1.69 9.52-1.27.66.12 1.32.25 1.97.44zm-.03-6.67a39.63 39.63 0 00-12.42-2.58 24.9 24.9 0 0112.42 2.58zM70.23 71.1a15.5 15.5 0 017.2 4.1c.39.44.76.9 1.04 1.42-1.68-2.1-4.07-3.48-6.42-4.7-.59-.3-1.24-.57-1.82-.82zm7.97-6.2c.8 1.6 1.03 3.4 1.09 5.16.1 2.38-.11 4.8.27 7.16.11.56.25 1.11.47 1.64-.16.06-.35.2-.37-.06-.69-2.06-.55-4.28-.52-6.42.04-2.09.11-4.23-.48-6.25a11.4 11.4 0 00-.46-1.23z"/><path d="M131.9 104.5a41.17 41.17 0 002.54-3.52c.07.07-.11.2-.13.3a43.65 43.65 0 01-2.15 3.4l-.26-.18zm4.62-6.66a21.55 21.55 0 01-1.49 4.44c-.08.15-.17.33-.27.45-.05-.04.03-.12.04-.17.36-.86.63-1.75.94-2.62.22-.63.43-1.27.7-1.89a.7.7 0 01.08-.2z"/><path d="M79.1 115.5c-.07 0-.14-.03-.21-.05a2.63 2.63 0 01-.96-.69c-.05-.04 0-.06.03-.08l.2-.13c.1.19.23.35.38.5.15.16.32.32.51.41.03.02.06 0 .05.04zm-1.52 1.62l.1.07c.36.05.63-.08.89-.28.04 0 0 .06-.02.09-.21.28-.49.37-.78.45-.09 0-.18 0-.26-.02-.03-.03-.16-.03-.1-.09l.17-.22zm2.93 5.36c.26.71-.06 1.64-.78 1.95-.1.2-1.22.3-.88.19.72-.09 1.5-.66 1.47-1.46.05-.2-.1-.45-.09-.6zm-7.11-3.14c-.6-.2-1.36.05-1.64.65-.24.16-.21 1.03-.28.95-.1-.8.36-1.7 1.18-1.9.29-.11.44-.1.73-.03-.05.1.05.26.01.33zm.12-5.91c-.3-.6-1.1-.9-1.72-.64-.24-.08-.9.68-.78.44.47-.59 1.33-.92 2.04-.6.3.14.53.27.69.57-.1.05-.13.19-.23.23zm4.74-3.63c.2-.48.05-1.1-.34-1.44-.36-.3-.85-.52-1.31-.44.33-.2.83.05 1.19.18.66.33.98 1.02.73 1.72zm3.26 11.34c-.46 0-.91-.06-1.37-.04-.17.04-.33-.04-.11-.15.44-.3 1.08-.16 1.47.17zm-6.79-3.28c.45.38.63 1.16.21 1.62-.09-.1-.02-.27-.06-.4-.01-.41-.14-.81-.15-1.22zm.77-4.59c.07.56-.31 1.18-.87 1.32-.2 0 .09-.2.13-.29.27-.32.5-.68.76-1.02zm4.22-2.15c-.37.42-1.08.62-1.56.28-.16-.16.2-.08.3-.12.42-.02.83-.15 1.26-.16zm13.35 7.98c-.06.12-.15.23-.21.36-.12.23-.14.5-.19.76 0 .18-.03.36-.02.54-.2-.03-.26-.43-.28-.63 0-.33.13-.68.4-.89.08-.07.2-.15.3-.14zm-9.27-1.44c.33.16.72.2 1.08.1.34.08.66.33 1.03.3.29-.12.5.1.76.17.3.13.66-.03.94.12.29.2.64.32.99.26.27.23.62.39.98.37.24-.02.4.23.64.27.33.11.66.11.95.35.2.14.53.1.68.21-.31.07-.66-.03-.95-.17-.2-.15-.26-.07-.53-.1-.22-.01-.74-.3-.7-.3-.4.03-.83-.05-1.13-.32-.05-.05-.55.05-.75-.12-.12-.04-.5-.27-.37-.22a1.5 1.5 0 01-1-.18c-.12-.03-.4-.2-.29-.15-.38.03-.77-.05-1.08-.27-.16-.21-.48 0-.75-.13-.16-.05-.4-.14-.5-.19zm11.44.93c.32 0 .65 0 .96-.1a5.3 5.3 0 001.25-.51 9.84 9.84 0 001.88-1.33l.2.25c-.4.32-.85.59-1.29.86-.87.48-1.84.93-2.86.88-.03-.02-.18.02-.14-.05z"/><path d="M85.68 74.45c-.15-.07-.3-.17-.43-.26l-.58-.47c-.15-.15-.3-.3-.43-.46-.06-.11-.15-.21-.21-.32a1.58 1.58 0 00-.09-.19c.06.08.1.19.18.26.1.11.22.2.32.32l.38.28c.2.13.4.28.62.38l.39.18-.15.28zm.61-1.22c-.45-.25-.91-.46-1.34-.74-.05-.03-.23-.13-.1-.08.35.13.7.26 1.05.37.17.06.34.1.52.15.1.04.13.2.05.27-.04.05-.14.07-.18.03z"/><path d="M97.11 66.46c.17-.03.48-.04.58.04-.06.18-.13.34-.29.12a.7.7 0 00-.29-.16zm-8.71 2.32c.18.32.79.62.9.72-.4-.1-.8-.23-1.13-.49l.23-.23zm11.57-2.82c.29.28.65.53 1.07.49.1 0 .5-.04.22.02a1.5 1.5 0 01-1.31-.17c-.25-.06-.08-.2.02-.34zm1.18-.26a2.9 2.9 0 00-1.19.52c-.09-.15-.25-.32.02-.34.38-.13.77-.17 1.17-.18zm-4.1.5c.04-.52.56-.8 1.02-.89.72-.18 1.47.06 2.19-.04-.62.38-1.37.22-2.05.33-.45.05-.93.2-1.16.6zm.33.61c.28.6.37 1.28.78 1.81-.07.06-.4-.16-.48-.3-.35-.4-.42-1-.3-1.51zm-.7.13c.13.47.17.96.16 1.45a1.08 1.08 0 01-.16-1.45zm-6.9 1.1c.05.31.23.57.35.86-.38.05-.7-.4-.5-.74.05-.05.08-.12.15-.12zm-.89-.55c.67-.3 1.61 0 1.81.75.06.16.06.56-.02.61-.1-.61-.6-1.1-1.21-1.24-.19-.06-.4-.06-.58-.12zm2.49.41c.48.24.5 1.1-.05 1.26-.19 0 .13-.29.07-.43l-.03-.84zm4.16 2c.57-.22 1.2-.16 1.78.03.67.2 1.3.6 1.74 1.16.17.23-.38-.25-.47-.24a6.84 6.84 0 00-2.37-.87c-.22-.04-.47-.05-.68-.08zm6.74 3.09c.1.1.2.23.32.32.18.16.35.33.5.52.2.27.33.58.46.89-.01.06.12.19.03.21l-.27.08c-.05-.3-.13-.6-.25-.89-.24-.45-.51-.77-.79-1.14zm-.81-1.05c.34-.08.38.16.37.4 0 .08-.03.15-.03.22-.28-.13-.26-.39-.34-.62zm-.87-.69c.29-.02.34.07.37.32-.3.04-.35-.07-.37-.32zm-2.35-4.53a.9.9 0 00.37.85c.05.05.11.08.18.07.08-.01.12-.08.14-.13.13-.32-.03-.64-.03-.98"/><path d="M98.42 96.26c-.56.23-1.07.73-.96 1.4.1.62-.67.86-.83 1.4-.22.43-.11 1.23-.05 1.45-.6-.86-.2-2 .57-2.6-.02-.6.1-1.34.78-1.56.14-.04.36-.11.49-.09zm7.56-10.01c-.2-.71-.48-1.39-.8-2.05.68.38 1.02 1.31.8 2.05zm-2.1 5.07c.12.4.37.74.68 1-.52.2-1.02-.6-.68-1zm1.41-2.95c-.16.63.6 1 .74 1.57.15.5.15 1.09-.14 1.55a3.6 3.6 0 00-.64-2.34c-.12-.24-.2-.59.04-.78zM107 85.8c.08 1.03.06 2.06.01 3.09a4.48 4.48 0 01-.01-3.09zm1.19-9.13a2.3 2.3 0 01.81 2.55 9.05 9.05 0 00-.81-2.55zm-1.69 4.6c.79.5 1.14 1.57.89 2.46-.21-.85-.5-1.7-.89-2.46zm.65-3.65c-.3.93.9 1.87.51 2.7-.1-.86-1.07-1.58-.69-2.49.04-.08.1-.16.18-.21zm1.11-4.47c.86.58 1.12 1.92.51 2.76a4.63 4.63 0 00-.51-2.76z"/><path d="M111 67.66c-.36.23-.92-.06-.9-.5.32.11.62.32.9.5zm-1.85 1.23c-.49-.2-.98-.4-1.49-.54-.38-.1.34-.21.48-.16.41.06.8.3 1 .68v.02zm2.18.05a4.9 4.9 0 01-1.68.99c-.7.22-1.48.3-2.16 0-.44-.22-.8-.56-1.12-.93-.15-.18.18.1.25.12a3 3 0 001.61.68 5.2 5.2 0 002.18-.44c.31-.12.65-.28.92-.42zm2.25-2.24a19 19 0 00-2.56-.11c-1 .06-2 .23-2.9.7-.5.24-.98.53-1.52.68-.22.05-.44.08-.66.07.25 0 .47-.12.7-.19.82-.37 1.53-.97 2.4-1.24a7.82 7.82 0 014.54.09zm-9.25.99c.28-.72.97-1.19 1.67-1.46.16-.14.57-.1.38.18-.43.15-.9.23-1.3.49-.3.17-.56.43-.73.73l-.02.06zm1.5 2.68a9.41 9.41 0 00-1-.88c.41.19.8.4 1.2.62.2.14-.03.4-.2.26z"/><path d="M105.9 114.1c.02.34-.18 1.33-.5 1.12-.03-.43.17-.85.5-1.12zm.86-2.29c.35.38-.32 1.44-.57 1.13.19-.38.35-.77.57-1.13zm.07-2.07c.52.45-1.06 1.45-.48.55.08-.25.43-.28.48-.55zm-7.23 23.03c-1-.24-1.68.85-2.52.99-.14-.04.01-.16.03-.3.85-.25 1.5-.85 2.42-.76.04.02.12 0 .07.06zm-.56 2.44c.27-.16.47-.47.55-.77 0-.05.02-.1 0-.16.05-.05.04.05.06.08.06.3-.05.61-.21.87-.05.06-.1.18-.15.2l-.25-.21zm7.59-1.75c.77-.39 1.8.05 2.08.86.25.26.2 1.37.08.5-.17-.67-.75-1.28-1.47-1.21-.21-.1-.5.24-.6.01l-.1-.16zm-8.41 6.42a1.35 1.35 0 00-.43 1.87c.12.31.91.95.22.42-.58-.51-.86-1.42-.42-2.11.14-.28.55-.78.62-.2zm-4.85-3.52c-.7-.18-1.5.39-1.6 1.1-.14.3 0 1.33-.15.46-.05-.78.38-1.63 1.18-1.81.16-.03.77-.2.61.12l-.04.13zm-.52-4.25a1.32 1.32 0 00-1.81.08c-.29.12-.74 1.3-.48.48.31-.77 1.2-1.32 2.02-1.06.3.13.72.19.27.5zm12.51.31c0 .48-.06.96-.04 1.44.06.28-.16.1-.21-.05a1.2 1.2 0 01.26-1.4zm-7.47 5.5c.46-.09.98.12 1.26.5.13.15.22.5-.05.26-.37-.3-.84-.5-1.21-.76zm-3.41-3.21c.48.32.74 1.03.45 1.55-.14.05-.08-.28-.15-.4-.08-.39-.25-.76-.3-1.15zm.09-3.54c.17.28.22.64.14.95-.07.27-.23.5-.46.64-.05-.14.07-.31.1-.46.08-.37.12-.76.22-1.13zm9.87-11.34c.26.52 1.19.72 1.4.94-.58.28-1.52-.27-1.4-.94zm-2.29 9.18c.27-.67.3-1.35.62-2 .1-.56.46-1.12.51-1.69.5-.79.67-1.67 1.2-2.46.17-.52.64-1.19.77-1.55-.03.65-.49 1.2-.63 1.82-.32.37-.18.99-.61 1.34.1.14-.48 1.02-.52 1.15.04.65-.57 1.02-.54 1.65-.41.53-.42 1.14-.76 1.71l-.04.03z"/></g></g></svg>