<svg xmlns="http://www.w3.org/2000/svg" fill="#d7374a" stroke="#000" viewBox="50 50 200 200">
  <metadata source="http://wappenwiki.org" license="https://creativecommons.org/licenses/by-nc-sa/3.0"/>
  <g id="wyvern" stroke-width=".375">
    <path class="secondary" d="M68.29 95.69c.25-.25.81-.65 1.66-.58 1.01.09 1.76 1.15 1.79 1.61.05.15-.08.2-.08.2s.31.34 0 .77c-.16.21-.8.35-.8.35s-1.06-.04-1.2-.42h0c-.07-.22-.19-.06.08-.46l.01-.04c.02-.07.22-.06.17-.36a.9.9 0 00-.5-.66c-.42-.24-.93-.09-1.25 0-.02-.01-.42.15.12-.41zm-4.18 5.35c-.01-.35.08-1.04.71-1.6.77-.68 2.06-.5 2.4-.2.14.06.08.19.1.19 0 0 .46 0 .54.52.04.28-.29.81-.29.81s-.76.75-1.12.59h0c-.23-.1-.17.09-.29-.37 0-.02.05.08-.01-.04-.04-.08.11-.2-.14-.38s-.55-.18-.84-.08c-.46.15-.7.62-.86.9 0 .03-.16.45-.2-.34zm1.16 6.6c-.25-.25-.66-.8-.58-1.65.08-1.02 1.13-1.78 1.58-1.8.15-.05.2.07.2.07s.34-.32.77 0c.21.16.35.79.35.79s-.03 1.06-.4 1.2h0c-.23.09-.07.19-.47-.06 0-.02.1.02-.03-.02-.08-.02-.07-.22-.37-.17a.92.92 0 00-.66.51c-.22.43-.07.94.01 1.25 0 .01.17.41-.4-.12zm7.64 2.56c.35.06 1.04.07 1.69-.49.78-.66.78-1.96.53-2.34-.04-.15-.18-.12-.18-.12s.06-.46-.44-.61c-.26-.08-.85.17-.85.17s-.85.65-.73 1.03h0c.06.23-.12.16.32.33l.04.03c.06.05.21-.07.35.19.14.27.1.56-.03.84-.21.43-.72.6-1.02.72-.02.01-.44.1.32.25z"/>
    <path d="M89.41 104.05c-2.15.19-4.14 1.8-4.75 2.13-.39.2-.57.38-.92.37-.46-.03-.99-.6-2.11-1.1-.88-.39-1.95-.7-3.07-.95s-3.62-.63-4.59-.59c-.15-.01-.15.16-.06.29.58.86-.24.85.26 1.39l.12.07c.07.08.18.26.21.33l.01.06v.01c.01.05.06.08.11.08 0 0 .43.02.63.34a1 1 0 01.16.6c-.04.26-.21.3-.21.3-.25 0-1.46.05-1.89.86-.2.16-.55-.1-.66-.25a2.07 2.07 0 01-.18-.33c-.15-.52.22-.8.22-.81.02-.01.04-.04.04-.07v-.04l-.03-.04s0-.25-.38-.6c-.3-.36.03-.86-.37-1.15-.29-.17-.48-.04-.65.14-.51.44-.76.29-1.16.29-.55.08-.47.6-1.19.38-.49-.1-.68.03-.68.03h-.05l-.02.01c-.03.01-.04.05-.04.08 0 0-.02.46-.54.65a1.7 1.7 0 01-.37.05c-.17 0-.59-.14-.59-.4.4-.8-.26-1.83-.41-2.02 0 0-.06-.17.13-.36s.55-.21.58-.21c.38-.01.64.31.64.31.03.05.08.06.13.05h0l.06-.03c.06-.02.29-.05.39-.02 1.5.4.65-.5 2.08-.38.14.1.19 0 .04-.2-.76-.93-1.41.05-2.19-1.1-.28-.4-.53-.45-.53-.45l-.04-.02-.04-.01a.13.13 0 00-.07.02s-.34.31-.84.1a1.71 1.71 0 01-.3-.22c-.13-.13-.34-.5-.15-.69.86-.31 1.09-1.51 1.11-1.75 0 0 .08-.18.34-.18s.55.23.57.25c.28.25.24.67.24.68-.01.05.01.1.05.12h.01l.05.03c.07.02.24.16.3.25.55.89 1.05.21 1.72.96.25.31.23.06.23-.05.02-.87-.92-.49-.57-1.85.11-.49-.04-.7-.04-.7v-.05l-.01-.02c-.01-.03-.05-.04-.08-.04a.75.75 0 01-.63-.54 1.7 1.7 0 01-.05-.37c0-.18.13-.59.4-.58.8.41 1.83-.24 2.03-.4 0 0 .18-.06.37.13.17.18.2.55.2.58 0 .38-.3.64-.32.64-.05.03-.06.08-.05.13v.01l.03.05c.02.06.04.29.02.39l-.05.12c-.07.18-.23.5-.02.84.2.33.39.45.39.83-.04.35.1.62.28.8.19.18.43.28.54.3.34.08.95.12 1.8.13l1.3-.01 1.54-.06 2.11-.08c.8.04 1.05.18 1.86-.06.51-.21.93-.34 1.34-.65.72-.55 2.51-1.98 2.89-2.35l3.42.16.43 2.28-.48 3.16z"/>
    <path class="secondary" d="M82.99,100.85C83.4,101.18 83.63,101.79 83.4,102.06 83.17,102.32 81.84,102.7 81.42,102.36 80.62,102.6 80.32,102.34 79.52,102.3 79.14,102.59 78.08,102.4 77.64,102.3 77.31,102.55 76.23,102.58 75.98,102.35 75.55,102.69 74.66,102.32 74.44,102.29 73.53,102.35 73.02,101.45 73.02,101.45 73.54,101.61 74.15,101.65 75,101.66L76.3,101.65 77.84,101.59 79.95,101.51C80.75,101.55 81,101.69 81.81,101.45 82.32,101.24 82.74,101.11 83.15,100.8"/>
    <path fill="none" d="M82.99 100.85c.41.33.64.94.41 1.21-.23.26-1.56.64-1.98.3-.8.24-1.1-.02-1.9-.06-.38.29-1.44.1-1.88 0-.33.25-1.41.28-1.66.05-.43.34-1.32-.03-1.54-.06-.91.06-1.6-.92-1.6-.92"/>
    <path fill="none" d="M81.41 102.36s.14-.47-.22-.81m-5.21.8s.07-.56-.16-.72m3.5-.13c.37.39.2.8.2.8m-2.05-.71c.25.27.17.71.17.71m-3.24-.68c.19.24.05.68.05.68"/>
    <path d="M85.44 103.33l.15-.02c.05-.01.11 0 .17-.02l.21-.05.26-.09.27-.13.28-.15c.08-.06.18-.1.27-.17l.26-.2c.09-.06.17-.14.24-.2l.4-.39.26-.29.08-.08.02-.03.29.25-.02.04-.1.09-.3.27a5.46 5.46 0 01-1.02.73l-.3.16-.3.12-.28.1-.27.07-.23.02H85.45l-.01-.04z"/>
    <path class="secondary" d="M101.5 63.06c.28.66 1.84 1.58 1.84 2.03s-1.7 1.49-1.88 2.01"/>
    <path d="M95.71 59.46c.73-.41 2.28-.91 2.7-1.99 1.13.77 2.74.23 3.48-.7.75 1.14 3.17.5 3.97-.36-.04 2.57-3.57 2.29-3.54 4.49a2.95 2.95 0 00-2.3 2.14c-1.17-.35-2.26.54-3.68-.04"/>
    <path fill="#f6f6f6" d="M86.53 63.41c.26.34.75.9 1.15 1.07-.02-.4.13-.8.4-1.1m-3.12.32c.22.39.47.92.9 1.1.13-.36.13-1.02.24-1.4m-2.65.57c-.01.37.18.9.33 1.06.06.06.08.2.18.17.07-.01.1-.06.13-.13.07-.14.12-.9.25-1.13m-2.9-.25c.1.72.54 1.75 1.02 2.31-.02-.56.05-1.46.25-1.99m1.58 5.18a3.03 3.03 0 01-.5-1.96c.44.4.86 1.22 1.87 1.44a1.59 1.59 0 01.1-1.3c.48.5 1.04 1.05 1.75 1.1-.05-.35-.03-.7.04-1.03.29.39.83.89 1.31 1.02"/>
    <path class="secondary" d="M99.24 73.61c-.05.73.91 2.24.7 2.65-.21.4-2.19.55-2.59.94m3.66-8.78c.13.72 1.45 1.94 1.34 2.4-.13.52-2.04 1.16-2.27 1.54m-3.27 6.1c-.09.71.81 2.28.58 2.68-.23.4-2.22.43-2.63.81m-.39 1.44c-.02.72 1.03 2.18.84 2.61-.19.41-2.16.65-2.54 1.06m4.17.64c.23-.68-.3-2.4.01-2.74s2.25.05 2.74-.22m.95-1.26c.35-.63.12-2.42.47-2.7.36-.28 2.21.43 2.74.24m19.94 7.8c.46.54 2.21.95 2.35 1.4s-1.19 1.92-1.2 2.47m.61 1.36c.35.62 2 1.35 2.06 1.8.05.45-1.51 1.67-1.62 2.21m.31 1.55c.24.68 1.74 1.68 1.71 2.14-.02.45-1.77 1.39-1.99 1.9m-.46 1.24c.13.71 1.44 1.93 1.34 2.38-.1.44-1.99 1.08-2.28 1.55m-.6 1.25c-.1.67.7 2.14.47 2.5-.23.35-2.07.35-2.45.7m-.88 1.08c-.21.64.33 2.23.04 2.54-.28.31-2.09 0-2.54.26m-1.14 1.19c-.3.57-.05 2.17-.36 2.42-.31.26-2-.32-2.46-.15m-1 .79c-.26.59.11 2.16-.19 2.45-.3.27-2.01-.19-2.46.02m-1.06 1c-.32.47-.24 1.9-.54 2.1-.3.2-1.73-.48-2.15-.37m-6.98 8.75c.17.46 1.18 1.15 1.17 1.46-.03.31-1.23.94-1.37 1.29m2.47-6.83c-.13.48.36 1.62.17 1.87s-1.54.11-1.85.32m5.15-5.77c-.26.5-.01 1.9-.29 2.13-.27.23-1.75-.26-2.16-.1m-3.36 9.74c.29.41 1.47.81 1.54 1.13s-.94 1.26-.99 1.63m.37 1.45c.3.37 1.4.65 1.47.94.07.28-.79 1.19-.82 1.54"/>
    <path class="tertiary" d="M84.39 66.01c-3.15.46-4.79.09-6.13-.54 1.38-.22 2.01-1.24 2.01-1.24-1.88.2-4.17.13-6.12-1.2.96 2.95 2.48 4.7 3.51 4.93.07.02.08.02.1-.05.03-.05-.07-.2-.12-.61s.05-.72.05-.72c2.34 1.15 5.39.5 7.94.16 3.1-.41 5.26-.13 7.9 1.46l.27-.75c-2.61-1.66-5.38-2.02-9.41-1.44z"/>
    <path d="M123.08 87.61c-1.74-3.15-4.33-6.01-7.73-7.19-2.16-.75-4.5-.88-6.79-.76-7.1.4-11 6.85-12.08 8.23-.87 1.08-1.67 1.88-3.07 1.88-3.36 0 4.04-11.96 5.74-15.18a20.19 20.19 0 002.66-9.25c0-1.93-.74-3.55-1.05-4.02-.46-.68-.89-1.8-1.49-2.38-.82-.8-1.07-1.34-2.6-1.78-1.46-.41-3.54.21-5.38.09-1.65-.06-1.84 1.17-3.25.95l-.18-.01c-.33.02-.28.43-.23.66.03.17.1.27 0 .45s-.22.32-.42.4c-.21.09-.46.09-.68.1-1.03.01-2.05.02-3.07-.1-.52-.06-1.06-.18-1.56-.03-.26.08-.61.23-.89.24-.66.03-.7-.49-1.15-.56-.47.46-.5 1.11-.27 1.57.2.4.35.57.51.8.26.35.24.84.39 1.27.2.57.5.87 1.15 1.18.46.22.8.3 1.31.28.55-.01 1.33-.4 1.55-.51a5.6 5.6 0 012.53-.6c.77.05 1.85.41 2.3.65.03.02.06.05.1.05 0 0 .72.26 1.4.83a6.2 6.2 0 011.42 1.98c.05.1.1.2.09.31-.01.13-.73.41-1.25.45-.38.03-.81-.01-1.31.11-.34.1-1.05.34-1.5.44-.55.13-1.2.24-1.77.31-1.31.15-1.98.1-3.3.24-.13.01-.16.05-.23.19-.15.29.15.62.4.84.3.31.77.2.95.57.2.61-.48.98-.22.98.85-.19 1.12-.79 1.12-.79s.2.59.1.97c-.14.47-.62.65-.54.75s1.07-.36 1.39-.92.28-1.11.28-1.11.63.31 1.29.15c.71-.18.56-.85 1.84-1.08.81-.14 1 .2 2.49-.16.46-.1.78-.16 1.1-.31 0 .96-.9 1.02-1.12 1.75-.76.02-1.93 1.43-2.07 2.21-.89.63-1.54 1.69-1.88 2.19-.45.52-.65.5-1.07 1.07-.2.26-.68 1.23-.89 1.51-.57.3-1.64 1.43-1.66 2.56h.01-.02c-.98.25-2.05 2.52-2.02 3.3-.57-.13-1.77 2.7-1.25 3.63-1.27.69-1 3.51-.78 4.09-.73.09-.77 4.1.35 4.2-.47.8-.18 3.58.95 3.66-.3 1.18 1.88 3.33 2.5 3.02-.55 1.1 1.48 2.72 3.25 2.7-.04.83 2.67 2.13 3.77 1.57.78 1.11 4.19.38 4.19.38l4.81-.98c1.01-.02 2.53-.02 3.44-.25.21.11 1.7.99 2.21.95.23.5.65.9 1 1.31-.12 1.04.86 2.03.83 2.15-.08.35-.2.92.23 1.87-.37.83-.4 1.76-.4 1.76s-.5.64-.7 1.1c-.21.47-.23.84-.23.84s-.62.53-.97 1.05c-.36.53-.45 1.05-.45 1.05s-.51.2-1.16.7-.65.97-.65.97-.66.18-1.14.58a4.96 4.96 0 00-.85 1.08c-.7-.13-1.95 1.2-2.16 1.73-.34-.26-2.11 1.09-2.05 1.84-.84 0-1.89 1.78-1.65 2.17-.46-.16-1.9 2.21-1.46 2.81l-.04.03a5.65 5.65 0 00-.64 3.16s-.21 1.4.45 2.92c.04.9.29 2.1.67 2.8.1.34.12.98.22 1.3.21.68.29.68.54 1.32.15.57.4 1.8 1.03 2.69.44.9.57 1.68 1.27 2.45.46.88 1.56 2.06 2 2.56-.15-.09-2.37-1.63-3.58-1.38-.62.03 1.59 4.45 2.16 6.3.97 2.63 1.3 6.25 1.62 6.37.31.1 2.35-3.2 3.58-6.62 1.14-3.15 1.42-6.56 1.13-6.72-.66-.44-2.35 1.7-2.79 2 .41-2.46-.49-4.73-1.26-7.7-.6-2.29-.35-5.31.76-7.44a15.8 15.8 0 014.05-4.9c3.01-2.45 10.25-7.56 15.26-13.02 3.52-3.84 5.15-8.13 5.6-13.35a25.55 25.55 0 00-3.05-14.52z"/>
    <path class="secondary" d="M90.08,100.59C89.7,99.35 88.33,98.84 88.3,98.68 87.95,97.77 87.37,96.97 86.61,96.36 86.62,95.23 85.57,93.69 85.57,93.69 85.57,93.69 85.67,92.9 85.6,92.28 85.54,91.63 85.4,91.01 85.4,91.01 85.4,91.01 85.68,90.26 85.74,89.49 85.8,88.69 85.64,87.86 85.64,87.86 85.64,87.86 86.06,87.33 86.46,86.38 86.86,85.43 86.63,84.71 86.63,84.71 86.63,84.71 87.56,83.74 87.83,83.01 88.08,82.31 88.085,81.66 88.085,81.66 88.24,81.32 88.74,80.71 88.94,80.32 89.1,80 89.24,79.57 89.44,79.22 89.64,78.87 90.01,78.46 90.24,78.07 90.46,77.7 90.64,76.94 90.89,76.55 91.09,76.24 91.35,75.8 91.69,75.37 91.93,75.09 92.26,73.995 92.26,73.995 92.95,73.39 93.39,72.55 93.5,71.64 93.5,71.64 94.77,70.66 94.605,68.685 94.24,68.82 93.56,68.46 93.16,68.72L93.18,68.79C93.18,69.75 92.28,69.81 92.06,70.54 91.3,70.56 90.13,71.97 89.99,72.75 89.1,73.38 88.45,74.44 88.11,74.94 87.66,75.46 87.46,75.44 87.04,76.01 86.84,76.27 86.36,77.24 86.15,77.52 85.58,77.82 84.51,78.95 84.49,80.08H84.48C83.5,80.33 82.43,82.6 82.46,83.38 81.89,83.25 80.69,86.08 81.21,87.01 79.94,87.7 80.21,90.52 80.43,91.1 79.7,91.19 79.66,95.2 80.78,95.3 80.31,96.1 80.6,98.88 81.73,98.96 81.43,100.14 83.61,102.29 84.23,101.98 83.68,103.08 85.71,104.7 87.48,104.68 87.44,105.51 90.15,106.81 91.25,106.25 91.62,106.77 92.57,106.89 93.48,106.86L93.13,106.36C92.74,105.45 92.64,104.46 92.6,104.1 91.45,103.06 90.62,102.05 90.08,100.6ZM99.59,148.59C99.15,148.09 98.05,146.91 97.59,146.03 96.89,145.26 96.76,144.48 96.32,143.58 95.69,142.69 95.44,141.46 95.29,140.89 95.04,140.25 94.96,140.25 94.75,139.57 94.65,139.25 94.63,138.61 94.53,138.27 94.15,137.57 93.9,136.37 93.86,135.47 93.2,133.95 93.41,132.55 93.41,132.55 93.31,131.46 93.53,130.36 94.05,129.39L94.09,129.36C93.65,128.76 95.09,126.39 95.55,126.55 95.31,126.16 96.36,124.38 97.2,124.38 97.14,123.63 98.91,122.28 99.25,122.54 99.46,122.01 100.71,120.68 101.41,120.81 101.64,120.41 101.93,120.05 102.26,119.73 102.74,119.33 103.4,119.15 103.4,119.15 103.4,119.15 103.4,118.68 104.05,118.18 104.7,117.68 105.21,117.48 105.21,117.48 105.21,117.48 105.3,116.96 105.66,116.43 106.01,115.91 106.63,115.38 106.63,115.38 106.63,115.38 106.65,115.01 106.86,114.54 107.06,114.08 107.56,113.44 107.56,113.44 107.56,113.44 107.59,112.51 107.96,111.68 107.53,110.73 107.65,110.16 107.73,109.81 107.76,109.69 106.78,108.7 106.9,107.66 106.55,107.25 106.13,106.85 105.9,106.35 105.39,106.39 103.9,105.51 103.69,105.4 102.78,105.63 101.53,105.53 100.52,105.55 100.63,105.66 100.31,105.55 100.35,105.43 100.51,105.1 100.8,104.33 100.91,103.98 101.23,103 101.31,102.69 101.32,101.76 101.91,101.65 103.89,101.58 104.45,102.24 104.6,102.16 105.22,102.15 106.17,102.44 106.78,102.64 107.33,102.99 107.77,103.45 108.26,103.53 108.72,103.77 109.07,104.12 109.89,104.87 109.94,105.35 110.09,105.64 110.74,105.57 112.17,107.96 111.42,108.59 111.97,108.55 112.5,110.7 111.91,111.47 112.7,111.9 111.95,114.22 111.31,114.6 112.04,115.11 110.41,117.65 109.88,117.41 109.8,117.9 108.99,119.72 107.83,119.7 107.83,120.55 105.99,121.93 105.64,121.6 105.35,122.17 104.11,123.27 103.34,123.06 103.34,123.06 103.1,123.46 102.73,123.84 102.33,124.23 101.18,124.69 101.18,124.69 101.18,124.69 101.08,125.23 100.55,125.71 100.02,126.19 99.69,126.43 99.69,126.43 99.69,126.43 99.39,126.76 99.11,127.26 98.84,127.75 98.09,128.26 98.09,128.26L97.81,129.01C97.66,129.44 96.82,130.2 96.82,130.2 96.82,130.2 96.94,131.63 96.23,132.545 96.23,132.545 96.35,133.01 96.4,133.84 96.42,134.14 96.24,134.9 96.27,135.29 96.31,135.65 96.52,136.25 96.57,136.68 96.62,137.04 96.61,137.48 96.67,137.88 96.74,138.28 96.97,138.78 97.05,139.22 97.14,139.65 97.06,140.04 97.16,140.49 97.25,140.85 97.51,141.27 97.69,141.79 97.81,142.14 97.86,142.54 97.92,143 98.07,143.5 98.25,143.66 98.42,144.19 98.59,144.66 98.74,145.73 98.74,145.73L99.17,146.83C99.35,147.27 99.41,148.1 99.57,148.56"/>
    <path fill="none" stroke-width=".3" d="M93.16 68.72c.4-.26 1.08.1 1.49-.1.59-.3.07-.9-.08-1.45"/>
    <path fill="#f6f6f6" stroke-width=".3" d="M91.3 59.95c-.01.38-.26.72-.56.93-.28.17-.68.13-.95-.04a1.74 1.74 0 01-.35-.33 2.02 2.02 0 01-.4-.69c-.03-.07-.04-.08-.04-.15.28.05.45.1.8.07.24-.03.47-.13.7-.2.23-.08.42-.23.64-.34 0-.03.17.24.16.75z"/>
    <path d="M97.22 59.36c.82-.24 2.44-.35 3.14-1.3.89 1 2.59.85 3.55.13.44 1.27 2.95 1.21 3.94.57-.7 2.48-4.06 1.39-4.6 3.53a3.03 3.03 0 00-2.77 1.54c-1.06-.62-2.33 0-3.57-.9"/>
    <path class="secondary" d="M82.61 118.85a2.06 2.06 0 01.35-1.73c.6-.82 1.89-.93 2.29-.7.15.02.14.15.14.15s.45-.1.65.4c.1.24-.1.85-.1.85s-.58.9-.96.82h0c-.24-.05-.16.12-.37-.3 0-.02.08.07-.02-.04-.05-.06.06-.23-.23-.34a.88.88 0 00-.82.1c-.42.25-.55.76-.64 1.08-.01.03-.08.47-.29-.29zm2.49 6.32c-.31-.17-.85-.6-1.01-1.43-.19-1 .61-2.03 1.05-2.17.12-.08.21.02.21.02s.24-.4.74-.2c.25.1.55.66.55.66s.26 1.04-.07 1.26h0c-.2.14 0 .2-.46.06h-.04c-.07 0-.1-.2-.4-.07a.9.9 0 00-.5.67c-.1.48.18.93.35 1.2 0 .03.27.37-.42 0zm6.27 2.35c-.35.1-1.02.17-1.72-.32-.82-.59-.95-1.89-.74-2.29.03-.15.17-.14.17-.14s-.1-.45.38-.65c.25-.1.87.1.87.1s.9.57.82.97h0c-.05.23.13.15-.29.36-.01 0 .08-.08-.03.02-.07.05-.23-.06-.34.23a.92.92 0 00.1.82c.25.42.77.55 1.07.63.03.01.47.06-.28.27zm6.1-5.27c.22-.28.58-.86.43-1.7-.17-1-1.29-1.68-1.75-1.65-.15-.04-.19.09-.19.09s-.36-.29-.76.06c-.2.19-.29.82-.29.82s.13 1.05.52 1.17h0c.23.06.07.17.46-.12l.04-.02c.07-.03.03-.23.35-.2.3.02.53.2.7.45.26.4.16.94.1 1.25 0 .02-.13.44.38-.15z"/>
    <path d="M92.64 104.2s-.09.82.49 2.16c.22.49 1.28 1.41 1.38 2.33.06.51-.04.94-.11 1.49-.21.82-.46.96-.9 1.62-.04.05-.74 1.35-1.01 1.86l-.73 1.35-.65 1.13a9.02 9.02 0 01-1.02 1.47c-.08.1-.29.25-.54.31s-.55.05-.84-.16c-.32-.2-.52-.09-.91-.09-.39.02-.6-.3-.7-.45l-.09-.1a.97.97 0 00-.34-.17l-.06-.01h-.01c-.05-.02-.09-.05-.08-.1 0 0-.06-.42-.38-.6-.03-.01-.37-.18-.62-.11-.25.06-.28.23-.28.23.03.25.07 1.46-.69 1.95-.14.21.15.54.3.64.09.05.26.14.35.15.52.1.79-.27.79-.27.01-.03.03-.04.06-.05h.04a.1.1 0 01.05.02s.25-.02.62.33c1 .98 1.14-.02 1.89.43.09.07.31.19-.08.24-.97.19-.65.96-1.7.99-.1.01-.3.09-.36.12-.02.03-.05.04-.05.04h-.01c-.04.03-.1.03-.13-.01 0 0-.35-.24-.7-.14-.03.01-.37.14-.5.36-.12.23-.02.38-.02.38.2.13 1.11.95.95 1.85.06.25.5.26.66.22.09-.02.28-.1.35-.15.44-.31.34-.76.34-.76-.01-.03 0-.06.01-.08l.03-.02.05-.01s.16-.2.66-.24c1.39-.09.86-1.14 2.05-1.33.25-.03.31.07.16.14-.84 1.18.38.9-.74 1.99a.92.92 0 00-.17.35l-.01.06v.01c-.02.05-.05.1-.1.08 0 0-.42.06-.6.39-.02.02-.18.36-.12.61.07.25.25.29.25.29.24-.04 1.47-.09 1.97.67.22.14.53-.15.63-.3.05-.09.13-.26.15-.35a.76.76 0 00-.28-.79c-.03 0-.04-.03-.05-.06v-.04a.1.1 0 01.02-.05s-.01-.22.33-.6c.56-.5.07-.7.27-1.22.21-.35.46-.49.35-1.15-.06-.24-.09-.48.21-.63.45-.2.73.34 1.2.27.48-.15.7-.02.7-.02h.04l.04.02c.02.01.04.03.04.07 0 .01.06.46.58.6.08.03.28.03.38.01.17-.02.57-.18.55-.43-.48-.78.09-1.87.22-2.07 0 0 .04-.18-.16-.35-.2-.16-.56-.16-.6-.16-.37.03-.6.38-.61.38-.01.05-.07.07-.11.06h-.01l-.07-.01a1.03 1.03 0 00-.39.01l-.1.05c-.73.15-.3-.54-1.35-.47-.15 0-.3-.08-.22-.2.46-.86 2.06-2.83 2.85-3.66.79-.83 1.6-1.6 2.37-2.16 1-.71 1.77-.87 2.03-1.26.19-.29.13-.55.15-.99.04-.7-.57-2.32-.19-3.91.08-.33.39-.28.48-.66"/>
    <path class="secondary" d="M89.81,117.86C89.81,117.86 91,117.76 91.41,116.94 91.56,116.75 92.32,116.18 92.25,115.64 92.58,115.54 93.1,114.57 93.05,114.17 93.35,113.85 94.05,113.04 94,112.56 94.43,111.9 94.81,111.77 95.03,110.95 95.53,110.76 95.88,109.41 95.78,109.09 95.66,108.76 95.01,108.63 94.52,108.76 94.57,109.2 94.47,109.63 94.4,110.18 94.19,111 93.94,111.14 93.5,111.8 93.46,111.85 92.76,113.15 92.49,113.66L91.76,115.01 91.11,116.14C90.82,116.66 90.48,117.16 90.09,117.61 90.01,117.71 89.8,117.86 89.55,117.92"/>
    <path fill="none" d="M94.53 108.83c.48-.2 1.13-.07 1.25.26.1.32-.25 1.67-.75 1.86-.22.82-.6.95-1.03 1.61.05.48-.65 1.29-.95 1.61.05.4-.47 1.37-.8 1.47.07.54-.69 1.11-.84 1.3-.41.82-1.6.92-1.6.92"/>
    <path fill="none" d="M95.03 110.94s-.34-.36-.82-.23m-1.96 4.92s-.45-.35-.7-.24m1.68-3.09c.5-.13.78.25.78.25m-1.66 1.39c.36-.08.7.22.7.22m-2.23 2.45c.3-.04.6.3.6.3"/>
    <path fill="none" d="M80.42 91.1s.88-.25 2.22-.28a20.1 20.1 0 012.76.18m-3.67 7.97s1.17-.9 2.42-1.55c1.26-.65 2.48-1.06 2.48-1.06m.85 8.31s.48-1.27 1.14-2.35c.65-1.03 1.44-1.73 1.44-1.73m1.19 5.66s.15-1.83.64-2.93"/>
    <path fill="none" d="M88.3 98.67c.01.1-1.11.68-2.2 1.5-1.02.78-1.88 1.8-1.88 1.8m1.35-8.28s-1.13.04-2.58.45c-1.39.4-2.22 1.17-2.22 1.17m4.87-7.45s-.92-.34-1.88-.56c-.89-.2-2.55-.29-2.55-.29m1.25-3.64s1.03.1 1.9.34c1.34.38 2.25 1 2.25 1m1.46-3.05s-1.12-1.05-3.6-1.6"/>
    <path fill="none" d="M88.08 81.66c.16-.34.66-.95.86-1.34.16-.32.3-.75.5-1.1s.57-.76.8-1.15c.22-.37.4-1.13.65-1.52.2-.31.46-.75.8-1.18.24-.28.56-1.38.56-1.38m-2.83 5.2s-2.28-1.59-3.27-1.64m4.74-1.01s-1.59-1.52-2.78-1.6m4.15-.94S90.9 72.9 90 72.79"/>
    <path fill="none" d="M103.34 123.06c.77.21 2.01-.89 2.3-1.46.35.33 2.19-1.05 2.19-1.9 1.16.02 1.97-1.8 2.05-2.29.53.24 2.16-2.3 1.43-2.81.64-.38 1.39-2.7.6-3.13.59-.77.06-2.92-.49-2.88.75-.63-.68-3.02-1.33-2.95-.15-.29-.2-.77-1.02-1.52a2.38 2.38 0 00-1.3-.67 3.85 3.85 0 00-1.6-1.01c-.95-.29-1.57-.28-1.72-.2-.63-.75-3-.59-3.24-.43"/>
    <path fill="none" d="M107.76 103.44s-1.3 1.6-1.85 2.91m-2.38-.95c.16-1.3.93-3.18.93-3.18"/>
    <path fill="none" d="M99.69 126.41s-.61-.87-1.16-1.3c-.52-.4-1.32-.74-1.32-.74m2.05-1.85s.28.27.76.7a5.3 5.3 0 011.16 1.44"/>
    <path fill="none" d="M93.41 132.54c1.46-.16 2.81 0 2.81 0M92.27 74a3.82 3.82 0 001.23-2.36s1.27-.98 1.06-2.89"/>
    <path fill="none" d="M93.49 71.64s-.25-.38-.61-.65-.83-.44-.83-.44"/>
    <path class="secondary" d="M126.61 77.88c.59.26.86-.3 1.89.23.04-.06-.25-1.1-1.65-1.14m-21.4 25.58c-.19 1.05.15 1.3-.21 2.01 1.26-.41 1.12-1.66 1.12-1.66m10.24 1.81c.11.48.62.79.7 1.67.85-.9.15-1.85.15-1.85m6.26-6.72c.75.41 1.3.16 1.73.83.3-1.06-1.19-1.89-1.19-1.89m1.36-9.18c.79.23.96-.3 1.88.24-.04-.3-.28-.66-.53-.9-.4-.37-.95-.54-.95-.54"/>
    <path d="M100.64 97.94c3.19 1.56 4.96 5.57 4.76 5.07.5-.2.97.06.97.06s1.72-1.3 5.5-.67c4.02.66 4.44 2.29 4.78 2.4.47-.46.81-.26.81-.26s-.26-1.95 1.96-4.31c2.22-2.37 3.52-2.12 4.33-2.4-.07-.65.54-1.05.54-1.05s-1.53-1.07-1.27-4.53a6.66 6.66 0 012.63-4.65c-.24-.82.4-1.2.4-1.2s-1.73-1.19-1.73-4.19c0-2.41 1.82-4.3 2.34-4.31-.08-.29.24-.71.3-.9-.32-.11-1.2-.44-1.61-.55-1.8-.5-11.32-2.41-19.11 3.05-2.21 1.55-4.45 5.52-4.71 5.99-1.7 2.52-2.53 4.13-5.08 4.72"/>
    <g fill="none">
      <path d="M90.08 100.59c-.38-1.24-1.75-1.75-1.78-1.91a5.6 5.6 0 00-1.69-2.32c.01-1.13-1.04-2.67-1.04-2.67s.1-.79.03-1.41c-.06-.65-.2-1.27-.2-1.27s.28-.75.34-1.52c.06-.8-.1-1.63-.1-1.63s.42-.53.82-1.48c.4-.95.17-1.67.17-1.67s.93-.97 1.2-1.7c.25-.7.26-1.35.26-1.35"/>
      <path d="M96.22 132.54s.13.47.18 1.3c.02.3-.16 1.06-.13 1.45.04.36.25.96.3 1.39.05.36.04.8.1 1.2.07.4.3.9.38 1.34.09.43.01.82.11 1.27.09.36.35.78.53 1.3.12.35.17.75.23 1.21.15.5.33.66.5 1.19.17.47.32 1.54.32 1.54l.43 1.1c.18.44.24 1.27.4 1.73m-2.9-10.64s-1.18.6-2.13.33m1.73-2.97s-1.47.45-2.42.17m3.3 5.06s-.74.69-1.89.37m2.7 2.2s-.76.65-1.64.45m2.4 2.22s-.52.41-1.13.24"/>
      <path d="M109.88 117.41s-.6-.17-1.53-.69a8.49 8.49 0 01-1.73-1.35m5.3-3.9s-.66.4-1.78.48a6.14 6.14 0 01-2.15-.28m2.1-6.05s-.48.84-1.38 1.3c-.85.44-1.8.73-1.8.73m.83 2.16c.02-.06.78-.14 1.85-.39 1-.23 1.83-.83 1.83-.83m-3.85 4.85s.7.55 1.85.83c1.13.28 1.9.32 1.9.32m-6.1 2.87s.5.6 1.07 1.14c.53.5 1.53 1.09 1.53 1.09m-2.18 1.91s-.57-.35-1.07-.86c-.77-.8-1.17-1.59-1.17-1.59m-1.98 1.66s.42 1 1.92 2.25"/>
      <path d="M95.55 126.55s.29.11 1.15.5c.88.39 1.38 1.2 1.38 1.2m5.26-5.19s-.24.4-.61.78c-.4.39-1.55.85-1.55.85s-.1.54-.63 1.02-.86.72-.86.72-.3.33-.58.83c-.27.49-1.02 1-1.02 1l-.28.75c-.15.43-.99 1.19-.99 1.19s.12 1.43-.58 2.35m.57-2.36s-.5-.44-1.56-.6c-1.01-.16-1.06-.15-1.06-.15"/>
    </g>
    <g fill="#000" stroke="none" transform="matrix(.125 0 0 .125 50 70)">
      <path d="M581 213.2c-30.43-35-70.08-61.65-113.8-77.05-3.92-1.37-7.93-2.74-1.54-1.04 45.33 11.54 86.65 39.02 114.4 76.73z"/>
      <path d="M366.6 219.6c12.97-2.6 26.59-1.25 39.2 2.59l-1.27 2.65c-6.14-3.44-23.63-5.72-37.93-5.24zm5.2-59.6l.24 3.14c-8.28 1.31-19.42-2.35-25.74 3.56 6.83-8.39 16.86-3.07 25.5-6.7zm.8 24c12.83 9.2 30.53 1.72 39-9.95 14.31-19.46 21.36-43.07 33.7-63.7 11.37-20.8 29.86-38.17 52.9-44.94 25.16-8.21 52.04-7.32 78.1-5.6-32.32-.36-67.05-.89-95.65 16.5-24.95 14.82-37.09 42.59-49.23 67.6-8.32 15.92-15.82 34.94-33.35 42.71-8.18 3.38-18.45 3.35-25.47-2.62z"/>
      <path d="M592.4 132.8c-34.67-13-70.98-21.78-107.92-24.84-2.67-.34-10.36-.7-9.8-.9 37.54-1.27 75.41 6.19 109.65 21.62 2.8 1.16 5.36 2.77 8.07 4.12z"/>
      <path d="M449.4 253.8c-2.33-16.49-3.42-33.27-8.16-49.31-2.52-9.56-6.5-18.7-11.54-27.19 8.76 9.96 13.72 22.69 16.6 35.5 2.65 12.3 3.18 24.95 3 37.5.1 1.16.16 2.33.1 3.5z"/>
      <path d="M526.2 255.7c-10.95-33.44-31.7-63.6-59.45-85.29A575.1 575.1 0 00449.4 157c25.5 14.4 48.12 34.77 62.24 60.66 6.65 11.9 11.3 24.83 14.56 38.04z"/>
      <path d="M173.3 226c-1.22 3.51-9.9 4.73-9.8 2 3.35-.19 6.5-1.54 9.8-2zm-26.8 16.7c1.5 3.43-3.63 10.62-5.6 8.7 2.3-2.6 3.48-6.06 5.6-8.7zm-4 31.1c3.28 1.51 4.62 10.03 2 10.1-.2-3.45-1.46-6.74-2-10.1zm-7.9 10.6c-5.41-1.62-10.92 2.98-11.53 8.38-.43 2.46-.09 6.17-.71 1.49-.1-5.7 4-11.45 9.99-11.67 1.6-.18 4.17-.46 2.25 1.8zm58.9 5c-2.89.67-8.26 4.23-9.7 3.5 1.73-3.35 6.27-4.73 9.7-3.5zm-2.8 10.6c5.06 4.27 4.25 13.03-1.2 16.7-6.85 4.3 3.08-2.05 3.04-5.4 2.14-3.88-2.54-7.72-2.32-10.49l.48-.81zm-28-33.2c1.87 2.62 8.4-4.08 5.37.33-1.1 2.44-8.85 4.38-5.67.24l.16-.3zm41.4.4c4.03 1.64 7.96-1.34 11.8 1.1 3.08-.33 5.8-.4 8.7 1 2.77.04 5.26-.98 7.7.9 1.98 1.39 4.48-.89 6.2 1.05 2.69 1.91 6.18.25 8.7 2.54 3.06.82 6.05 1.12 8.9 2.71 7.7 1.31-5.29 1.61-4.7 0-3.46 1.06-7.16-2.14-8.3-1.3-3.37 1.1-7.32-2.54-7.44-1.54-2.04 1.12-8.71-1.85-6.76-1.86-3.54 1.82-9.18-1.74-9.84-1.14-5.34.88-7.15-3.26-11.66-1.76-1.33-.19-2.78-.46-3.3-1.7zm62.5 4.3c-2.12 3.36-2.23 7.47-1.8 11.3-3.33-2.11-2.7-10.56 1.8-11.3zm-94.9-16c-2.35-.28-11.17-3.12-7.16-5.53 1.6-.7 4.87 5.42 7.16 5.53z"/>
      <path d="M403.8 224.4a74.78 74.78 0 013.87 9.53c.97 2.76 1.51 5.66 2.13 8.52 1.02 6 1.37 12.15.58 18.2a77.24 77.24 0 01-3.1 14.79 58.08 58.08 0 01-3.28 8.17c-.33 1.02-.88 1.55-1.76.68-.97-.52-2.2-.94-.87-2.09a67.02 67.02 0 006.87-20.31c.76-4.49 1.12-9.03.96-13.58a66.48 66.48 0 00-.83-8.27 67.92 67.92 0 00-4.77-15.44l.2-.2z"/>
      <path d="M398.1 628.4a203.78 203.78 0 011.78 35.77c-.35 3.16-.5-1.27-.5-2.19A227.38 227.38 0 00395 628.8l3.1-.4zm8.3 60.9c1.17-9.2 3-18.3 4.63-27.44a175.72 175.72 0 002.57-16.36c.7.53.28 2.33.4 3.4-.09 8.2-1.51 16.33-3.24 24.34-1.3 5.38-2.4 10.87-4.36 16.06z"/>
      <path d="M307.6-85.8c1.11-6.53 9.62-7.17 14.9-6.8 3 .93 14.38-.69 5.4 1.8-6.54 1.49-15.96-.97-20.3 5zm.5 2c5.53-1.93 5.92 5.09 0 0zm84.8 48.1c6.26 4.2 8.4 13.85 3.9 20.1a30.82 30.82 0 00-3.9-20.1zm-8.4 32.2c-2.56 6.94 6.72 12.47 3.9 19.5-.55-6.46-8.96-12.14-4.5-18.9l.5-.5zm-4.9 26.2c5.62 3.68 8.65 11.18 6.8 17.7-1.42-6.16-3.4-12.33-6.8-17.7zm12.8-33.1c5.7 3.8 8.36 11.77 6 18.2a61.38 61.38 0 00-6-18.2zm-28 57.8c.62 7.3.75 14.7.1 22a31.62 31.62 0 01-.1-22zm-13.1 17.4c-.27 6.4 8.39 10.8 6.13 18.09-2.8 10.24-.52-5.6-4.35-8.46-1.63-2.74-4.78-6.67-1.78-9.63zM346.6 90c.79 3.69 8.63 10.24.8 6.4a5.13 5.13 0 01-.8-6.4zM375 51.2c.48-4.79-1.07-13.14-.4-15.4a13 13 0 01.4 15.4z"/>
      <path d="M391.1 277.7c5.5-14.91 6-31.13 4.5-46.8 4.6 9.2 4.37 22.2 1.9 32.7-1.18 5.04-3.2 10-6.4 14.1zm-50.9-2.9c-14.62-13.24-25.59-32.63-24.59-52.83-1.58-10.02 11.34-22.82 1.39-30.27 11.08 3.67 1.48 18.14 1.3 26.4-2.1 17.87 6.86 35.28 18.2 48.5 1.62 3.36 8.94 4.9 3.7 8.2zM292.3 378c3.52 5.87-6.53 14.96-1.6 5.2.58-1.72.88-3.52 1.6-5.2zm.8 31.6c6.47.63 6.57 16.36 2.6 4.9-.82-1.64-2-3.16-2.6-4.9zm24.7 19.2c5.45-3.7 15.47 7.18 5.1 1.8-1.54-.83-3.8-.55-5.1-1.8zm5.1 12.2c-5.36 5.14-1.32 14 4.7 16.3-7.64-1.77-11.47-12.2-5.7-18l1 1.7zm34.2-48.2c-.52 4.65-1.99 16.8-2.8 5 .4-1.85 1.29-3.8 2.8-5zm7.8 7.8c7.56-2.94 15.98 5.78 13.6 12.8.93-6.7-5.78-13.83-12.6-11.2l-1-1.6zm-42.9 7.2c3.23-2.04 1.08-10.48 3.2-2 .05 2.93-1.7 7.26-3.2 2zm21.4-35.4c2.01-5.09 6.4-8.14 8.4-13.1 4.09-2.17 4.15-7.57 8.3-9.4 2.22-2.52 3.24-5.4 6.6-6.9 1.35-3.77 5.77-4.54 7.6-8 3.18-1.46 7.98-8.05 3.9-1.2-2.58 2.65-5.92 7.45-7.9 9-3.5 5.5-4.95 3.88-7.5 9-4.46 1.49-2.2 4.66-7.5 8.1-.21 1.35-6 6.45-7.2 8.3-1.08 1.74-2.42 3.98-4.7 4.2zm35.4-51.6c.87 4.79 14.98 9.64 3.5 6.8-2.39-1.23-4.07-4.1-3.5-6.8zm-61.9 73.6c-.97 4.73-12.12 6.29-7.3 2.5 2.6-.25 5.17-1.21 7.3-2.5z"/>
      <path d="M329.8-87.5c2.43 2.19 5.5 4 8.9 3.4 4.12-.35-3.1 1.15-4.93.6-1.67-.66-7.11-1.7-4.14-3.8l.14-.16zm-19.7 6.2c2.14 4.5 2.88 9.71 6.2 13.6-5.33-1.38-7.09-7.95-6.2-12.8l-.04-.63zm-68.4 14.2c1.1 2.51 6 4.21 6.8 5.11-2.96-.88-6.24-1.46-8.6-3.61l1.8-1.5z"/>
      <path d="M334.6-49.3c3.56-1.62 3.78 5.14.34 1.57a3.5 3.5 0 01-.34-1.57zm6.6 4.9c3.8-3.08 3.74 8.14.9 2.9-.5-.87-.14-2.3-.9-2.9zM296.1-59c6.8-2.58 14.32-.22 20.4 3.1 2.48 1.36 6.2 4.41 6.91 6a54.78 54.78 0 00-18.64-7.88c-2.82-.83-5.78-.83-8.67-1.22zm51.4 22.2c3.36 3.3 7.34 6.24 9 10.88 1.17 1.95 1.8 3.83-1 3.82a24.98 24.98 0 00-6.77-12.84 6.7 6.7 0 01-1.23-1.86zm-83.1-36.7c3.8 1.65 3.58 8.92-1 9.1 2.12-2.64 1.05-6.05 1-9.1zm-19-2.9c5.7-2.7 13.93.76 14.24 7.51-.26 5.73-1.77-3.21-4.24-3.81-2.75-2.4-6.67-2.7-10-3.7z"/>
      <path d="M252.3-72.5c.04 2.31 1.92 4.01 2.6 6.1-2.56.4-4.94-2.46-3.85-4.88.17-.64.75-.9 1.25-1.22zm52.4-7.8c.83 2.5 1.17 5.17 1.38 7.8-.08.71.2 2.16-.1 2.52-2.92-2.41-3.3-7.23-1.28-10.32z"/>
      <path d="M214.2-41c4.05 1.46 8.2 2.67 12.34 3.83 1.06.29 1.06 1.9.03 2.25-4.24-.57-8.95-4.13-12.37-6.08zm6.8 14.7c-4-2.25-7.76-5.04-10.8-8.5a20.28 20.28 0 01-2.43-3.92c1.26 2.11 3.29 3.83 5.28 5.23 3.02 1.65 5.92 3.33 8.89 4.63-.3.76-.64 1.8-.94 2.56z"/>
      <path d="M363-75s.1-.3.3-.7c.1-.2.2-.5.4-.8.2-.3.4-.7.6-1 1-1.5 2.6-3.2 4.6-4.6 2-1.4 4.1-2.4 5.8-3.1 1.6-.7 2.8-1.1 2.8-1.1.6-.2 1.3.1 1.5.7.2.6-.1 1.3-.7 1.5h-.1s-1.1.2-2.8.7c-1.6.4-3.8 1.1-5.8 2.2-2 1-3.8 2.5-4.9 3.8-.3.3-.5.6-.7.9-.2.3-.4.5-.5.7-.4.6-.5.8-.5.8z"/>
      <path d="M433.4-82.1c-10.09-.78-20.35-1.3-30.35.59-5.5 1.05-10.61 3.37-15.62 5.8-3.83 1.78-7.91 3.5-12.23 3.31 6.06-.67 10.96-4.57 16.25-7.23 6.13-3.5 13.2-5 20.2-5.24 7.17-.17 14.41.65 21.32 2.63l.43.14z"/>
      <path d="M416.3-66c-2.83 2.56-6.25 4.38-9.7 5.95-4.08 1.69-8.48 2.78-12.92 2.65-4.47.1-8.7-2.04-11.89-5.05a51.73 51.73 0 01-3.6-3.65c3.22 1.66 6.03 4.08 9.48 5.27 2.2.75 4.58.96 6.91.97 7.02-.19 13.72-2.63 20.1-5.35.55-.24 1.08-.53 1.62-.79z"/>
      <path d="M399.7-66.4c-1.73-.6-3.38-1.42-5.12-2.02-2.38-.95-4.87-1.55-7.28-2.38 1.54-.87 3.4-.87 5.12-.73 2.8.45 5.47 2.02 7.08 4.37.2.21.06.52.2.76z"/>
      <path d="M413.7-75.2c-1.48.91-3.42.65-4.86-.21a4.25 4.25 0 01-2.05-3.21c.6-.26 1.1.29 1.61.48 1.7.72 3.28 1.68 4.82 2.69l.48.25z"/>
      <path d="M374.5-55.7s-1.8-1.7-3.7-3.3c-.9-.8-1.9-1.6-2.7-2.1-.7-.6-1.3-.9-1.3-.9s.6.2 1.5.6a82.5 82.5 0 017.5 3.9c.6.3.8 1.1.5 1.6-.3.6-1.1.8-1.6.5 0-.2-.1-.2-.2-.3z"/>
      <path d="M338.8-89.2c-1.33.21-2.64.51-3.9 1a23.36 23.36 0 00-4.76 2.37c-.28.19-.6.49-.7.02l-.94-1.79a20.59 20.59 0 014.8-1.35c1.81-.28 3.67-.48 5.5-.25z"/>
      <path d="M403.8-48c-.3 0-.5-.1-.8-.2-3.5-2-7.4-2.2-11.6-2.5-5.3-.3-11.3-.6-17.1-4.8l1.8-2.4c5.1 3.7 10.4 4 15.5 4.3 3.9.2 7.9.4 11.6 2.2 4.3-7 12.6-11.5 21.7-11.8 2.7-8.2 10.4-10.5 17.8-12.8 7.1-2.2 13.9-4.2 17.3-10.8-6.3 2.4-15.3 2.8-21.5.6-3.7-1.3-6.3-3.3-7.8-5.9-8 5-20.3 5.7-27.7-1-4.9 5.3-13.4 7.1-19.8 8.4-1.9.4-3.6.8-5 1.2l-.8-2.9c1.5-.4 3.3-.8 5.2-1.2 6.4-1.3 15.1-3.2 19.1-8.6.3-.4.7-.6 1.1-.6.4 0 .9.2 1.2.5 6.5 7.3 19.1 6.3 26.4.8.4-.3.9-.4 1.3-.2.5.1.8.5 1 1 1.1 3.3 4.3 5 6.8 5.9 7.5 2.6 17.9 1 22.5-2.1.5-.3 1.2-.3 1.7 0 .5.4.7 1 .6 1.6-3.1 11-12.5 13.9-20.7 16.4-7.6 2.3-14.2 4.3-16.1 11.8-.2.7-.8 1.1-1.5 1.1-9-.1-17.2 4.4-20.9 11.5-.2.4-.5.6-.9.7-.2-.2-.3-.2-.4-.2z"/>
      <path d="M316.7-82c-.4 2.2.7 4.5 2.8 6.1.4.3.8.5 1.4.5.6-.1.9-.5 1-.9 1-2.3-.2-4.6-.3-7"/>
      <path d="M280.2 382.9s0-.1-.1-.2l-.3-.3c-.2-.2-.4-.3-.7-.6-.3-.2-.7-.4-1.1-.6-.4-.2-.9-.4-1.4-.5-.3-.1-.5-.1-.8-.2-.3 0-.6-.1-.8-.1-.3 0-.6 0-.9-.1h-.9c-.3 0-.6.1-.9.1-.3.1-.6.1-.9.2-.6.2-1.2.4-1.7.7l-.4.2c-.1 0-.2.2-.4.3-.3.2-.5.4-.8.6-1 .8-1.8 1.6-2.4 2.3-.6.8-1.1 1.5-1.3 2-.2.5-.3.8-.3.8h-.2s0-.4.2-.9c.2-.6.6-1.3 1.2-2.2.6-.8 1.4-1.7 2.3-2.6.2-.2.5-.4.7-.6.1-.1.2-.2.4-.3l.4-.3c.6-.4 1.2-.7 1.9-1l1-.3c.3-.1.7-.2 1-.2.3 0 .7-.1 1-.1h1c.3 0 .7.1 1 .1.3.1.6.1.9.2.6.1 1.2.3 1.7.5s1 .4 1.4.6c.4.2.7.4 1 .6.3.2.6.5.7.6l.2.2-1.7 1.1zm8.1 39h-.6c-.2 0-.6.1-.9.2-.4.1-.8.2-1.2.4-.4.2-.9.4-1.4.6-.2.1-.5.3-.7.4-.2.2-.5.3-.7.5-.2.2-.4.4-.7.6-.2.2-.4.4-.6.7-.2.2-.4.5-.6.8-.2.3-.3.5-.5.8-.3.6-.5 1.2-.7 1.8l-.1.5c0 .1 0 .3-.1.4 0 .3-.1.6-.1.9-.1 1.2-.1 2.4 0 3.4s.3 1.8.6 2.3c.2.5.4.8.4.8l-.2.1s-.2-.3-.5-.8-.6-1.3-.8-2.3c-.2-1-.3-2.2-.3-3.5V429l.1-.5c.1-.7.3-1.4.6-2 .2-.3.3-.7.5-1l.6-.9c.2-.3.4-.6.6-.8.2-.3.5-.5.7-.7.3-.2.5-.4.7-.7.3-.2.5-.4.8-.6l1.5-.9c.5-.2 1-.4 1.4-.6l1.2-.3c.3-.1.8-.1.9-.1h.2l-.1 2z"/>
      <path d="M163 218.2s0-.1.1-.2c.1-.2.1-.2.1-.4s.1-.6.1-.9v-1.3c0-.5-.1-1-.2-1.5-.1-.3-.1-.5-.2-.8-.1-.3-.2-.5-.3-.8-.1-.3-.3-.5-.4-.8-.2-.3-.3-.5-.5-.8-.2-.3-.4-.5-.6-.7l-.7-.7c-.5-.4-1-.8-1.5-1.1l-.4-.2c-.1 0-.3-.1-.4-.2-.3-.1-.6-.3-.9-.4-1.1-.4-2.3-.8-3.2-.9a6.74 6.74 0 00-3.3.1l-.1-.2s.3-.2.9-.3c.6-.1 1.5-.2 2.5-.1s2.2.3 3.4.7l.9.3c.2.1.3.1.5.2l.5.2c.6.3 1.2.7 1.8 1.1.3.2.5.5.8.7.2.3.5.5.7.8.2.3.4.6.6.8.2.3.4.6.5.9.1.3.3.6.4.9l.3.9c.2.6.3 1.2.4 1.7.1.5.1 1 .2 1.5v1.2c0 .3-.1.8-.2.9-.1.1-.1.2-.1.2l-1.7-.8zm-29.5 26.7s0-.1-.1-.2c-.1-.2-.1-.1-.2-.4-.1-.2-.3-.4-.6-.7-.3-.3-.6-.5-.9-.8-.4-.3-.8-.6-1.2-.8-.2-.1-.5-.3-.7-.4-.3-.1-.5-.2-.8-.3-.3-.1-.6-.2-.8-.3-.3-.1-.6-.1-.9-.2-.3 0-.6-.1-.9-.1h-.9c-.6.1-1.3.1-1.9.3l-.5.1c-.1 0-.3.1-.4.2-.3.1-.6.3-.9.4-1.1.5-2.1 1.1-2.9 1.7-.8.6-1.4 1.2-1.7 1.6-.3.5-.5.8-.5.8l-.2-.1s.1-.3.4-.9c.3-.5.9-1.2 1.6-1.9.8-.7 1.7-1.4 2.9-2 .3-.2.6-.3.8-.5.2-.1.2-.1.5-.2l.5-.2c.6-.3 1.3-.4 2-.5.4 0 .7-.1 1.1-.1h1.1c.3 0 .7.1 1 .1.3.1.7.2 1 .2l.9.3c.3.1.6.2.9.4.6.3 1.1.6 1.5.9l1.2.9.8.8c.2.2.5.6.5.7.1.1.1.2.1.2l-1.8 1z"/>
    </g>
  </g>
</svg>
