<svg xmlns="http://www.w3.org/2000/svg" viewBox="-31.5 -35.016 90 90" fill="none">
  <path fill="none" stroke-linecap="round" stroke-linejoin="round" d="M12.516 1.828C11.953 5.063 12.234 10.406 12.234 13.922V20.672M13.641 1.969V20.672M8.297 7.031V11.25C8.297 13.5 9.281 13.922 11.25 13.922M19.125 8.297V12.094C19.125 14.625 18.141 15.75 15.891 15.891" />
  <path stroke="none" fill="#7D984B" d="M11.25 20.813V15.328C8.156 15.469 6.609 13.781 6.609 10.969V8.156C6.609 5.906 9.563 5.906 9.563 8.156V11.109C9.563 12.516 9.984 12.938 11.25 12.938V3.938C11.25 1.125 12.516 1.406 13.5 1.406C15.609 1.406 15.891 3.234 15.891 5.063V14.625C17.297 14.484 17.719 13.641 17.719 12.234V9.281C17.719 7.172 20.672 7.172 20.672 9.281V12.516C20.672 15.328 19.266 16.875 15.891 16.875V20.813Z" />
  <path stroke="none" fill="#5F7D3E" d="M13.5 1.406C14.625 2.391 14.344 4.641 14.344 6.609V20.813H15.891V16.875C19.266 16.875 20.672 15.328 20.672 12.516V9.281C20.672 8.016 19.969 7.734 19.266 7.734C20.109 8.578 19.828 10.547 19.828 12.375C19.828 15.047 18.563 16.031 15.891 16.031V5.063C15.891 3.234 15.609 1.406 13.5 1.406Z M8.156 6.469C9.141 6.75 8.719 8.578 8.719 10.969C8.719 13.078 9.281 13.922 11.25 13.922V12.938C9.984 12.938 9.563 12.516 9.563 11.109V8.156C9.563 7.031 9 6.469 8.156 6.469Z" />
  <path fill="none" stroke-linecap="round" stroke-linejoin="round" d="M11.25 20.813V15.328C8.156 15.469 6.609 13.781 6.609 10.969V8.156C6.609 5.906 9.563 5.906 9.563 8.156V11.109C9.563 12.516 9.984 12.938 11.25 12.938V3.938C11.25 1.125 12.516 1.406 13.5 1.406C15.609 1.406 15.891 3.234 15.891 5.063V14.625C17.297 14.484 17.719 13.641 17.719 12.234V9.281C17.719 7.172 20.672 7.172 20.672 9.281V12.516C20.672 15.328 19.266 16.875 15.891 16.875V20.813Z" />
  <path fill="none" stroke-linecap="round" stroke-linejoin="round" d="M9.844 20.813H17.297" />
</svg>
