<svg xmlns="http://www.w3.org/2000/svg" fill="#d7374a" stroke="#000" viewBox="50 50 200 200">
  <metadata source="http://wappenwiki.org/images/9/99/Kr%C3%B6cher.svg" license="https://creativecommons.org/licenses/by-nc-sa/3.0"/>
  <g id="camel" stroke-width=".338">
    <path class="secondary" d="M82.37 129.86c-.03-.44.05-.94-.25-1.27-.32-.34-.86-.29-1.27-.05a.87.87 0 00-.42.72c-.02.12-.02.25.05.35.05.08.13.12.2.18l.3.19c.35.24.7.44 1.11.34.16-.03.23-.13.26-.28.02-.06.02-.12.02-.18z"/>
    <path class="secondary" d="M82.24 128.03c-.02-.18-.03-.36-.12-.5a.83.83 0 00-.59-.42c-.24-.04-.5 0-.72.06a.63.63 0 00-.22.1c-.1.1-.36.26-.4.4-.07.3.1.58.21.88.05.11.16.22.26.17.26.29.58.54.94.7.13.08.28.12.43.08.14-.05.23-.19.27-.33.03-.15.02-.3 0-.45l-.06-.7z"/>
    <path d="M76.95 108.97c.86-.42 1.53-.31 2.3-.9 1.24-1 1.18-1.24 2.69-1.75 1.34-.45 5.95.01 7.65-1.03l.46-5.63-9.15-.73c-.91 1.69-1.42 1.7-2.77 2.88-.54.47-1.04 1-1.55 1.52-1.7 1.72-1.3.51-3.72 2.38-.43.2-.75.62-.84 1.09-.06.3.2 2.95.2 3.25-.03 2.29-.8 3.74.13 5.94.17.4.16.8.27 1.23.24 2.3.1 2.91 1.93 6.03.46.79 1.26 2.7 3.11 3.44.18.06.6.29.7.46.23.42.78 1.14 1.02 1.56.21.42.93 1.01 1.18 1 .03-.45.3-.6.24-.84-.23-.3-.33-.62-.17-.82.16-.2.43-.27.69-.28.42-.03.68.33.93.24-.04-.87.23-2.52-.64-3.51-.3-.35-.87-.98-1.32-1.06-.47-.08-.68 0-1.18-.34-.56-.47-1.56-.35-2.04-.75-.67-.56-.12-1.64-.56-2.36-.45-.75-1.3-.43-1.3-1.99.13-.63-.11-1.26-.03-1.9.07-.6-.3-1.03.01-1.54.44-.73.63-1.6.6-2.44a7.2 7.2 0 00-.23-1.55c-.12-.37.68-1.27 1.39-1.6z"/>
    <path class="secondary" d="M101.9 137.04c.43.07.9.24 1.28 0 .4-.25.46-.78.3-1.23a.74.74 0 00-.29-.4c-.12-.07-.2-.1-.34-.15a.66.66 0 00-.36-.02.7.7 0 00-.21.16l-.25.24c-.3.3-.57.6-.55 1.03 0 .16.07.24.22.32.07.03.14.04.2.05z"/>
    <path class="secondary" d="M103.71 137.28c.18.01.36.03.53-.02a.87.87 0 00.52-.5 1.44 1.44 0 00.02-.95c-.07-.11-.19-.4-.3-.46-.29-.14-.6-.02-.9.03-.12.03-.25.12-.22.22-.34.19-.64.46-.88.78-.09.12-.17.26-.16.4.01.15.14.27.27.34.14.07.28.08.44.1l.68.06z"/>
    <path d="M115.75 92.5l-11.95 7.1c.07 1.27 1.84 3.49 2.48 4.58.6 1.02.54 4.31 1.04 5.37a44.2 44.2 0 011.3 3.84l.37 1.79c.3 1.42.68 1.75.65 3.2-.02 1.4-.04 2.8-.14 4.21-.17 2.42-.5 3.06-1.33 5.34-.32.87-.65 1.73-.96 2.6l-.34.92c-.13.32-.25.75-.39 1.08 0 .2-.5.82-.68.88-.45.15-1.73.77-2.18.91-.46.14-1.19.73-1.22.97.44.13.53.41.78.4.35-.16.68-.2.83 0 .17.2.18.47.15.73-.06.43-.45.62-.42.87.87.12 2.47.1 3.61-.16.78-.17 1.13-.58 1.32-1.1.17-.44-.13-1.03-.18-1.51-.04-.49.43-1.13.85-1.56.11-.13.36-.42.45-.57.2-.35.16-.77.15-1.18-.07-1.65 1.8-6.35 1.95-6.78.35-1 .84-2.06 1.26-3.03l.63-1.47.41-.93c.18-.4.36-.83.35-1.27 0-.24-.06-.47-.12-.7-.35-1.39-1.26-2.47-1.26-4.1 0-2.17 2.68-11.65 3.64-14.31.86-2.38-1.4-3.6-1.05-6.12z"/>
    <path class="secondary" d="M86.44 140.31c.44.07.91.24 1.28 0 .4-.24.47-.77.3-1.23a.74.74 0 00-.28-.39 1.5 1.5 0 00-.34-.16.66.66 0 00-.36-.02.7.7 0 00-.22.16l-.25.25c-.3.3-.56.6-.55 1.02 0 .16.08.24.23.32.06.03.13.04.19.05z"/>
    <path class="secondary" d="M88.25 140.55c.18.01.37.03.53-.02a.87.87 0 00.52-.5 1.43 1.43 0 00.03-.95c-.07-.1-.2-.4-.3-.46-.3-.13-.6-.02-.91.04-.11.02-.25.1-.22.21-.33.2-.64.46-.88.78-.09.12-.16.26-.15.4 0 .15.13.28.27.34.13.07.28.08.44.1l.67.06z"/>
    <path class="secondary" d="M116.45 140.2c.44.07.91.24 1.28 0 .4-.25.46-.78.3-1.23a.74.74 0 00-.29-.4c-.12-.07-.19-.1-.34-.15a.66.66 0 00-.36-.02.7.7 0 00-.21.15l-.25.25c-.3.3-.56.6-.55 1.03 0 .16.08.24.22.31.07.04.14.05.2.06z"/>
    <path class="secondary" d="M118.26 140.44c.18 0 .36.03.53-.02a.87.87 0 00.52-.5 1.43 1.43 0 00.02-.95c-.06-.11-.19-.4-.3-.46-.28-.14-.6-.02-.9.03-.12.03-.25.12-.22.22-.34.19-.64.46-.88.78-.09.12-.17.26-.16.4.02.15.14.27.28.34.13.07.28.08.44.09l.67.07z"/>
    <path d="M128.21 111.34c.18 2.9 1.68 5.24 3.54 7.43.37-2.9.7-5.7-.37-8.4-.48-1.24-1.26-2.37-1.53-3.66-.16-.77-.14-1.57-.14-2.35.01-3.9-.48-8.38-1.4-12.15a32.89 32.89 0 00-1.78-4.46 25.96 25.96 0 00-2.58-3.63 5.33 5.33 0 00-2.2-1.6c-1-.34-2.48-1.58-3.42-2.14-1.56-.95-3.82-4.22-5.38-5.2-1.3-.83-2.73-2.6-3.87-3.76-.27-.27-.53-.55-.82-.79-1.38-1.16-2.77-1.26-4.4-1.29-1.66-.02-2.98.1-4.14 1.68-.35.48-.6 1.05-.9 1.58a15 15 0 01-5.18 5.5 17.5 17.5 0 00-2.28 1.96 11 11 0 00-2.06 3.27c-.7 2.33-2.1 6.58-4.33 5.97-.81 0-1.85-1.02-1.96-1.1-1.65-1.52.21-5.53 1.2-7.32 2.1-3.72 4.18-9.25 4.44-11.07.1.17.27.22.46.28l-.09-1c.13.1.33-.02.36-.17.04-.16-.04-.32-.11-.46s-.15-.3-.11-.45c.03-.14.14-.26.17-.4.03-.18-.08-.35-.16-.53-.08-.17-.1-.42.08-.52.05-.04.12-.04.15-.1.07-.07.03-.2-.04-.26-.07-.07-.17-.13-.21-.22-.15-.27.22-.56.18-.86-.05-.25-.4-.42-.37-.7.04-.25-.2-.48-.29-.73-.08-.22-.02-.46-.02-.7 0-.5-.22-1.01-.64-1.28-.2-.53-.6-1.09-1.17-1.12-.14-.01-.29.01-.42.03l-.41.07c-.1.01-.22.03-.32.01-.1-.02-.2-.1-.21-.2-.2.01-.4-.01-.58-.07l-.05-.38a1 1 0 01-1.09-.43l-.36.2c-.13.06-.31.13-.43.01-.03-.03-.05-.09-.09-.1-.1-.1-.27 0-.4.04-.22.05-.49-.08-.49-.3-.25.12-.5.2-.76.27a.96.96 0 01-.14-.43c-.17 0-.28.19-.36.33-.08.16-.21.33-.37.3-.15-.04-.28-.22-.4-.14a.3.3 0 00-.09.09l-.28.5a.7.7 0 01-.5-.2c-.38.48-.03.97-.03 1.3l-.14.13a10.02 10.02 0 01-3.5 1.66c-.7.16-1.68.07-2.4.03a3.4 3.4 0 00-2.92 1c-.81.83-.9 1.41-1.18 2.16a2.1 2.1 0 01-.61.91c-.24.2-.42.46-.52.76a1.4 1.4 0 00-.03.66c0 .15.1.28.24.33.16.06.2-.03.35-.15 0 0 .12.14.32.2.33.1.78-.1.77-.06-.43.25-.48.5-.75.9-.19.28-.23.52-.3.7a.55.55 0 000 .4c.13.27.3.19.56.1.1-.03.2-.06.3-.13.1-.07.19-.17.28-.26.79-.79 1.96-1.3 3-.92.5.58 1.42.91 2.19.86.76-.05 1.53-.46 2.26-.22.44.15.77.5 1.13.78.36.28.85.54 1.29.4.17 1.38-2.35 3.27-2.5 4.65-.07.66-2.24 2.79-2.33 5.27-.02.57-1.73 2.28-1.73 4.7 0 1.21-.41 2.32-.09 3.5.26.96.42 3.53.76 4.47.94 2.55 2.13 3.64 4.23 5.37 2.09 1.71 2.83 2.13 5.5 2.26 1.65.08 2.49.88 3.83 1.53 1.03.73 1.57.96 2.7 2.27.9 1.69.32 2.6.56 4.36.09.73.26 1.43.4 2.14.41 1.94 1.01 3.54.92 5.52-.1 2.1-.6 4.08.26 6.19.17.4.15.8.25 1.23.28 1.12-.16 2.1-.4 3.24-.62 2.8-.19 1.48-.4 4.33 0 .2-.76 1.7-.84 3.5-.01.2-.4.53-.58.6-.46.14-1.28.53-1.73.68-.46.13-1.19.72-1.22.97.44.12.53.4.78.4.35-.16.68-.2.83 0 .17.19.18.47.15.73-.06.43-.45.62-.42.87.87.12 2.47.09 3.61-.16a2.5 2.5 0 001.32-1.2c.17-.46.1-.82.05-1.3-.05-.5.16-1.1.42-1.52l.07-.14c.1-.22.06-.6.05-.83-.08-.87.01-1.22.11-2.06.1-.76.05-1.53.06-2.3.02-1.76.65-3.38 1.04-5.1.14-.64.26-1.27.34-1.91.07-.6.16-1.02.48-1.52a4.46 4.46 0 00.43-3.65c-.11-.35-.27-.7-.33-1.06-.12-.87.02-1.93.14-2.8.12-.95.23-1.54.14-2.5-.14-1.59-.37-1.7.04-3.24.36-1.37 1.24-2.23 1.3-4.23 1.26-.41 3.33.3 5.74.3 1.2-.02 2.8-.25 3.91-.73 7.52-3.2 7.94-5.96 9.29-5.96.17 1.67.05 2.3.26 4.24a12.6 12.6 0 001.58 4.51c.64.98 1.77 1.97 2.3 3.01a16.63 16.63 0 011.27 2.97l.22.79.46 1.77c.36 1.4.75 1.71.81 3.16.05 1.4.1 2.8.07 4.22-.06 2.42-.24 5.33-.96 7.65l-.84 2.65-.29.92c-.1.33-.21.77-.33 1.1 0 .19-.51.87-.7.92-.45.15-1.72.77-2.17.92-.47.13-1.19.72-1.22.97.44.12.53.4.78.4.35-.17.67-.21.83 0 .17.18.18.46.15.72-.06.43-.45.62-.42.87.87.13 2.47.1 3.61-.15.78-.17 1.13-.6 1.32-1.1.17-.45-.13-1.04-.18-1.52-.04-.49.46-1.32.87-1.74.11-.12.34-.43.42-.59.18-.36.12-.79.09-1.18-.15-1.65.06-3.18.34-4.8.16-1.02.47-2.01.76-3l.4-1.32c.3-1.01.74-2.1 1.11-3.09l.57-1.5.36-.95c.16-.41.32-.84.28-1.3a2.44 2.44 0 00-.16-.68c-.41-1.37-.9-2.7-1.45-4.03-.18-.45-.37-.9-.53-1.35-.51-1.5-.46-1.99-.78-3.52-.55-2.78.13-4.48.97-7.19.6-1.93 1.4-3.13 1.8-4.83.58 2.55.68 6.03.66 9.29-.07 2.74-.76 2.82-.59 5.5z"/>
    <path d="M86.23 61.63a2.47 2.47 0 011.84 0c.7.3 1.19.93 1.88 1.23.03 0 .06.02.09.05.03.04.03.1.02.14-.05.4-.37.72-.69.98l-.52.45c-.37.33-.79.67-1.27.68-.66.01-1.18-.54-1.82-.67"/>
    <path fill="#f6f6f6" d="M79.36 64.2a.77.77 0 01-.2.36c-.04.06-.1.1-.16.15-.12.1-.27.19-.43.23-.24.07-.53.04-.77-.04-.14-.05-.38-.2-.43-.3-.05-.13-.1-.27-.06-.39.2-.13.63-.17.94-.17.35 0 .81.05.97.08.07 0 .12.03.14.08z"/>
    <g fill="#000" stroke="none">
      <path d="M85.37 102.98a.7.7 0 01-.26.2c-.1.04-.2.09-.3.1-.22.08-.44.11-.65.14a12.5 12.5 0 01-1.28.15c-.2.02-.39.08-.57.16-.2.08-.37.16-.57.26-.37.19-.72.43-1.11.63.28-.34.6-.63.97-.88a2.6 2.6 0 011.25-.47c.23-.03.44-.03.65-.04.22 0 .43 0 .65-.02.21-.01.43-.02.63-.05.2-.02.4-.04.59-.18z"/>
      <path d="M75.47 123.64c.17.26.36.47.59.67.21.19.46.36.7.54.24.17.48.35.72.55.24.2.46.42.63.68l-.79-.45a9.96 9.96 0 01-.76-.5 3.63 3.63 0 01-.7-.63 2.05 2.05 0 01-.39-.86z"/>
      <path d="M80.94 127.5a.38.38 0 01-.24-.04c-.08-.03-.15-.1-.2-.15-.12-.14-.19-.26-.28-.39l-.27-.36-.3-.36c.15.05.29.14.43.24a2 2 0 01.33.35c.1.13.17.28.23.4.07.14.15.25.3.3z"/>
      <path d="M79.27 124.6c.05.06.1.06.14.07h.14l.16.05c.06.03.12.06.16.12a.48.48 0 01-.18.06.48.48 0 01-.18 0 .3.3 0 01-.2-.08.2.2 0 01-.07-.1c0-.05 0-.1.03-.12z"/>
      <path d="M80.55 128.76a.34.34 0 01-.12-.13l-.08-.13-.07-.12c-.02-.05-.05-.08-.06-.15a1.26 1.26 0 00-.25-.42l-.17-.21-.03-.06-.03-.04-.1-.1a1.18 1.18 0 01-.28-.45c.08.15.2.28.34.4.04.01.07.05.1.08.03.01.04.03.05.05l.04.04.2.18c.12.13.27.25.36.44a1.04 1.04 0 00.13.2l.08.08.07.06z"/>
      <path d="M74.29 110.97c.07.34.07.68.03 1.02-.03.34-.1.67-.18.99-.08.33-.16.64-.22.96-.07.31-.12.64-.16.98a3.08 3.08 0 01-.1-1.02c0-.33.08-.67.15-1l.25-.96c.1-.31.16-.64.23-.97z"/>
      <path d="M106.4 101.52l.08.1c.04.03.07.08.1.12a2.2 2.2 0 01.23.39l.1.25c.04.09.06.18.08.28l.06.3.02.3-.01.29-.03.27-.06.24-.07.19-.05.14a.65.65 0 01-.07.13v-.49l-.01-.22-.01-.26-.03-.27c0-.1-.02-.18-.03-.28a2.26 2.26 0 00-.05-.28c0-.09-.03-.18-.04-.27l-.06-.24-.05-.23-.1-.34v-.12z"/>
      <path d="M111.91 113.95l.05.11.1.3a13.43 13.43 0 01.45 1.82l.03.32.01.12-.06-.1-.16-.28a3.83 3.83 0 01-.42-1.42 3.28 3.28 0 01-.03-.45v-.32l.03-.1z"/>
      <path d="M110.15 119.39a4.2 4.2 0 00.36.65l.15.2a2.65 2.65 0 00.52.46l.09.03c.04.02.05.02.1.02a.8.8 0 00.4-.05l.2-.1.09-.07.04-.04.05-.04.14-.18.14-.2c.09-.14.17-.3.25-.45a.1.1 0 01.1-.05h.1a.3.3 0 00.1-.1c.07-.1.12-.2.15-.3.01.1 0 .23-.05.35a.5.5 0 01-.1.17l-.05.04c-.01 0-.04 0-.06.02l-.12.01.1-.06c-.06.17-.1.33-.18.49l-.13.24c-.04.07-.1.14-.17.22l-.04.05-.06.05a.44.44 0 01-.11.1l-.25.14c-.18.08-.38.11-.6.08a2.36 2.36 0 01-.14-.05 1.22 1.22 0 01-.36-.25 2.05 2.05 0 01-.33-.42 5.6 5.6 0 01-.23-.49c-.05-.12-.09-.3-.1-.47z"/>
      <path d="M109.28 129.07l-.02.04a.58.58 0 00-.05.11l-.06.19c-.03.06-.06.14-.08.23l-.18.6a3.77 3.77 0 01-.48 1.02c-.06.1-.14.19-.22.28l-.42.47a4.1 4.1 0 01-.32.32.58.58 0 01-.12.11l.07-.16c.04-.1.12-.24.21-.4l.33-.52c.06-.1.12-.2.2-.3.06-.1.12-.19.16-.3.1-.2.2-.43.28-.64a4.56 4.56 0 01.43-.8c.05-.06.1-.1.13-.15.03-.05.06-.07.09-.1h.05z"/>
      <path d="M104.49 136.1v-.08a.41.41 0 01.12-.2l.13-.1c.04-.04.1-.07.14-.09l.16-.07.16-.06.3-.15.25-.14.2-.1.07-.03-.04.07-.14.17c-.05.06-.14.13-.24.2a1.65 1.65 0 01-.3.18l-.17.07a.94.94 0 01-.17.04.56.56 0 00-.14.05c-.05 0-.08.03-.13.04a.63.63 0 00-.16.12l-.04.09z"/>
      <path d="M107.66 135.03l-.04.03a.25.25 0 00-.04.05l-.01.04-.01.02v.02l-.03.1a.51.51 0 01-.12.22l-.09.08s-.02-.06-.02-.13a.5.5 0 01.03-.25.38.38 0 01.07-.13l.03-.03c.01 0 .02-.03.04-.03l.06-.03c.05-.01.1 0 .1.01l.03.03z"/>
      <path d="M103.33 135.47h.02c.01-.02.02-.03.04-.03l.05-.02c.07-.04.15-.06.25-.1.05 0 .1-.03.17-.04h.09l.06-.02c.1-.03.23-.09.34-.15.06-.03.13-.05.18-.09.06-.03.13-.05.17-.08l.3-.17a.9.9 0 01.22-.07l.1-.02-.1.04a.86.86 0 00-.21.11l-.27.22c-.06.04-.12.06-.16.1l-.16.11a1.8 1.8 0 01-.35.21l-.1.04-.08.02-.14.06-.19.11-.02.02-.01.01z"/>
      <path d="M119.04 139.26v-.02l.01-.07a.41.41 0 01.11-.2l.13-.1.15-.08.15-.07.16-.06.3-.15.25-.14.2-.1.08-.03-.05.07-.14.17a1.1 1.1 0 01-.23.2 1.65 1.65 0 01-.3.18l-.18.07a.94.94 0 01-.17.04.56.56 0 00-.14.05c-.05 0-.08.03-.13.04a.63.63 0 00-.15.11l-.05.1z"/>
      <path d="M122.21 138.2l-.03.02a.25.25 0 00-.05.05v.04l-.02.02v.02l-.02.1a.51.51 0 01-.13.22c-.04.05-.09.08-.09.08s-.02-.06-.02-.13a.5.5 0 01.03-.25.38.38 0 01.07-.13l.04-.04.03-.02.07-.03h.1l.02.04z"/>
      <path d="M117.88 138.63h.02c.01-.02.02-.03.05-.03l.04-.02c.07-.04.15-.06.25-.1.06 0 .1-.03.17-.04l.09-.01.07-.01.34-.15.18-.09.17-.08.29-.17a.9.9 0 01.22-.08h.1s-.04 0-.1.03c-.05.02-.12.05-.21.11-.08.06-.16.14-.27.21-.06.05-.11.07-.16.1l-.16.12c-.11.08-.22.16-.35.21l-.1.04-.08.02c-.04.02-.09.03-.13.06l-.2.1c0 .02 0 .02-.02.03v.01z"/>
      <path d="M95.11 103.99l.03.04a1.04 1.04 0 01.02.6c-.05.2-.13.42-.22.64l-.13.33c-.01.05-.05.11-.06.17 0 .06-.03.11-.04.17-.04.11-.06.24-.07.35l-.05.35-.04.63-.03.46-.03.18-.04-.16a4.05 4.05 0 01-.1-.46l-.05-.3-.02-.35a3.03 3.03 0 01.15-.96l.06-.18.17-.34.17-.3.14-.25.09-.23.04-.19.01-.07v-.13z"/>
      <path d="M94.55 118.14l.02.15.02.18.02.25c0 .1 0 .18-.03.28 0 .1-.02.2-.04.32l-.08.33-.1.32a10.62 10.62 0 01-.2.62c0 .05-.02.1-.04.15l-.03.15-.06.27-.04.22-.04.18-.03.16-.04-.16-.03-.18a1.54 1.54 0 01-.02-.23v-.45l.03-.16.03-.17.05-.17.1-.34.22-.63.09-.3c.03-.08.04-.17.08-.25l.05-.23.05-.18c0-.08.02-.13.02-.13z"/>
      <path d="M119.45 104.67l.1.1a.6.6 0 01.1.12l.12.17a1.66 1.66 0 01.24.46l.1.28.06.3.03.3.01.3c0 .09 0 .18-.02.27l-.04.23c-.01.08-.04.14-.06.2-.02.06-.03.12-.06.15l-.05.13-.01-.14-.03-.35c0-.07 0-.14-.02-.22l-.02-.25-.04-.27c0-.1-.03-.18-.04-.27l-.06-.27-.05-.26-.07-.25-.07-.23a4.76 4.76 0 01-.1-.34l-.02-.16z"/>
      <path d="M113.84 97.47l-.05.05-.1.14c-.1.1-.26.21-.41.3a1.5 1.5 0 01-.48.16l-.18.02h-.07l.05-.05.11-.14a1.8 1.8 0 01.88-.46l.18-.02h.07z"/>
      <path d="M112.58 98.9l-.04.03a.19.19 0 01-.08.07.49.49 0 01-.26.1.55.55 0 01-.27-.04l-.09-.06c-.02 0-.03-.03-.03-.03l.03-.04.08-.07a.49.49 0 01.26-.1c.1-.02.2 0 .27.04.04.02.07.03.1.06l.03.04z"/>
      <path d="M111.56 100.12l-.04.04a1.05 1.05 0 01-.47.24 1.1 1.1 0 01-.58-.06s0-.02.04-.04l.11-.1c.1-.06.23-.1.37-.14a1.1 1.1 0 01.57.06z"/>
      <path d="M125.45 114.57l.05.11.13.3a9.16 9.16 0 01.53 1.8l.04.32.02.12s-.04-.03-.08-.1a7 7 0 01-.17-.27 2.28 2.28 0 01-.2-.4 3.07 3.07 0 01-.16-.5c-.05-.16-.1-.33-.12-.49a8.2 8.2 0 01-.05-.45v-.44z"/>
      <path d="M123.95 120.09a4.07 4.07 0 00.4.64c.04.07.1.12.15.2.11.12.24.22.36.32.07.04.13.09.2.12l.08.04c.05 0 .07 0 .1.02.14.01.28-.01.41-.08a.97.97 0 00.26-.18l.03-.03.05-.05c.05-.06.1-.11.14-.18l.12-.2.23-.45v-.02c.03-.03.06-.05.1-.04h.08l.02-.01a.43.43 0 00.1-.1c.06-.1.1-.2.12-.32a.8.8 0 01-.03.36.52.52 0 01-.1.17l-.05.03a.09.09 0 01-.05.03h-.13l.1-.05c-.04.17-.09.34-.15.5-.04.08-.07.17-.12.25a1.5 1.5 0 01-.15.23l-.05.06a.2.2 0 00-.04.06l-.1.1c-.09.07-.16.11-.25.16a.96.96 0 01-.6.1c-.04-.01-.12-.02-.14-.04a.35.35 0 01-.14-.06c-.1-.05-.17-.12-.24-.17a2.38 2.38 0 01-.35-.4l-.14-.23c-.04-.08-.08-.16-.1-.24-.05-.2-.1-.37-.12-.54z"/>
      <path d="M123.94 132.06l-.01.04a.58.58 0 00-.05.11l-.07.18-.06.24-.16.6c-.06.23-.14.46-.25.7l-.2.34-.2.3-.41.48-.3.32-.13.13.07-.16c.04-.1.1-.24.2-.4l.31-.54.19-.3.15-.3c.1-.21.18-.42.27-.64.1-.21.17-.42.27-.57l.14-.22.12-.16.1-.09c0-.05.02-.06.02-.06z"/>
      <path d="M92.5 132.76l-.03.15c0 .1-.03.25-.05.42l-.2 1.24c-.07.45-.18.9-.29 1.23l-.08.23-.06.17-.07.14v-.15c0-.1 0-.25.02-.42a11.94 11.94 0 01.3-1.92 4.1 4.1 0 01.28-.79l.07-.17.1-.13z"/>
      <path d="M95.02 122.64l.01.09c.02.05.02.13 0 .23 0 .1-.03.2-.07.32l-.07.17-.1.17a1.37 1.37 0 01-.23.3l-.26.2-.11.05a.18.18 0 01-.1.03c-.05.03-.08.03-.08.03s0-.04.04-.08l.12-.2.35-.52.33-.53.13-.18a.31.31 0 00.04-.08z"/>
      <path d="M89.03 139.38v-.02l.01-.07a.41.41 0 01.12-.2c.03-.04.08-.07.12-.1l.15-.09.16-.06.15-.07.3-.15.26-.13.19-.1.08-.04-.05.07-.13.17c-.06.07-.15.13-.24.2a1.65 1.65 0 01-.3.18l-.17.07a.94.94 0 01-.17.04.56.56 0 00-.15.05l-.12.04a.63.63 0 00-.16.12l-.05.09z"/>
      <path d="M92.2 138.3s0 .02-.03.03a.25.25 0 00-.05.05v.04l-.02.02v.02l-.02.1a.51.51 0 01-.13.22c-.04.06-.09.08-.09.08s-.02-.06-.02-.13a.5.5 0 01.04-.24.38.38 0 01.06-.14l.04-.03.03-.03.07-.03c.04-.01.09 0 .1.01l.02.04z"/>
      <path d="M114.3 91.61c.05.12.08.23.14.33.02.06.05.1.09.16l.09.14c.12.2.26.41.38.63l-.03-.05.09.09.05.08.1.17.2.34.18.34c.06.1.11.23.16.35.2.47.38.94.55 1.42l.12.36.06.18.06.19a4.89 4.89 0 01.1.78c.04.52.03 1.02.03 1.52h-.34c0-.5.01-1.01-.02-1.5a41.6 41.6 0 00-.03-.36c-.01-.12-.04-.24-.06-.35l-.04-.18-.06-.18-.11-.36c-.16-.48-.32-.96-.5-1.42a4.38 4.38 0 00-.15-.34l-.15-.34-.17-.33-.1-.16-.04-.07a.21.21 0 00-.03-.05l-.04-.04-.31-.65c-.06-.11-.1-.22-.14-.34l-.04-.18a.99.99 0 01-.03-.18z"/>
      <path d="M96.95 98.5l.05.07.11.2.14.32a2.5 2.5 0 01.05 1c-.02.19-.07.38-.12.58-.1.4-.2.81-.25 1.23l-.02.32v.35s0 .02.02.02l.01.03.02.1.01.07c.03.1.04.18.08.26.04.08.08.15.14.22l.04.04.06.06.05.05.05.07c.13.18.18.36.23.53.09.34.1.61.11.81l.01.3h-.34v-.28c-.02-.18-.03-.44-.1-.75a1.2 1.2 0 00-.19-.43l-.03-.04a.25.25 0 01-.05-.06l-.02-.02-.02-.04-.06-.05a1.26 1.26 0 01-.27-.63l-.01-.07-.01-.06-.02-.03v-.05c-.02-.03-.02-.06-.03-.1v-.35l.03-.33c.07-.43.2-.86.31-1.25a6.52 6.52 0 00.2-1.05c0-.31-.07-.56-.11-.74a1.05 1.05 0 00-.07-.2l-.02-.08z"/>
      <path d="M86.48 97.72s.03.13.05.38c.02.12.02.27.05.43l.05.26c.02.09.02.19.06.3l.06.3.04.18c0 .05.03.1.04.17a6.93 6.93 0 00.23.71c.08.24.19.48.3.73.1.24.23.48.35.73l.4.71a17.89 17.89 0 00.81 1.31 11 11 0 01.6 1.1 113.38 113.38 0 00.35.74l-.3.14-.17-.34c-.04-.12-.1-.24-.19-.39-.06-.14-.17-.31-.26-.5l-.32-.57-.39-.64-.4-.69-.4-.73-.35-.76c-.1-.26-.2-.5-.28-.75l-.11-.38-.1-.36c0-.05-.03-.11-.04-.17l-.03-.17-.06-.32c-.03-.2-.03-.4-.04-.58a14.6 14.6 0 01.02-.82z"/>
      <path d="M87.87 138.75l.02-.02.05-.02.04-.02.25-.1c.06 0 .1-.02.17-.04h.1l.06-.02c.1-.03.22-.09.34-.15l.18-.09.17-.07c.1-.06.2-.13.29-.17a.9.9 0 01.23-.08l.09-.01s-.04 0-.1.03l-.2.11-.28.22-.16.1-.16.11c-.1.08-.22.16-.34.22-.04 0-.07.02-.1.03l-.09.02-.13.06-.2.11-.01.02-.02.02z"/>
      <path d="M91.19 83.46s0 .12-.03.31c0 .1-.02.2-.04.32l-.08.35-.09.35a4.8 4.8 0 01-.23.6v-.32c0-.09.02-.2.04-.32l.07-.36.1-.35c.03-.11.08-.21.11-.29.08-.2.15-.3.15-.3z"/>
      <path d="M91.18 85.46v.1l-.02.22-.03.32-.03.36-.04.36v.17l-.02.14-.02.23-.01.09s-.06-.12-.1-.3c-.02-.1-.03-.2-.03-.33v-.18l.01-.2.07-.37.1-.31.1-.22c0-.05.02-.08.02-.08z"/>
      <path d="M91.6 86.99l-.02.1-.04.26c-.03.1-.04.22-.06.36-.02.13-.03.27-.06.4 0 .14-.03.29-.04.41l-.01.2-.01.16c-.01.12-.01.2-.03.26v.1l-.04-.09a3.37 3.37 0 01-.11-.63v-.43l.04-.21.05-.2.05-.2.07-.17.12-.23.08-.1z"/>
      <path d="M125.74 96.69l.05.03.09.1.08.16c.02.06.03.13.03.2a1 1 0 01-.02.19l-.07.15-.08.1-.04.04-.03-.05c0-.03-.03-.06-.04-.1a.93.93 0 01-.05-.32.8.8 0 01.05-.32c0-.05.03-.09.04-.11v-.07z"/>
      <path d="M125.32 97.74s.03.02.05.06l.09.16c.03.08.04.17.06.26v.15c0 .06-.02.1-.03.16-.02.1-.05.2-.1.3a.81.81 0 01-.16.2.6.6 0 01-.15.12l-.07.03.01-.07.03-.16c.04-.14.07-.3.1-.48l.1-.48.05-.17.02-.08z"/>
      <path d="M124.5 98.77l.03.09c.03.05.05.13.06.23.02.1.02.22.03.34v.2l-.03.18a3.6 3.6 0 01-.09.38l-.13.3c-.05.1-.1.16-.14.2l-.06.07v-.09c0-.05 0-.13.02-.24 0-.19.04-.42.09-.67l.13-.67.07-.22c0-.07.02-.1.02-.1z"/>
      <path d="M112.44 76.7s.07.03.15.09a2.38 2.38 0 01.5.5l.08.15s-.07 0-.16-.05a1 1 0 01-.5-.53.37.37 0 01-.07-.16z"/>
      <path d="M111.67 77.38s.06.03.13.1.13.16.19.26.09.21.1.3l.01.16-.12-.1a1.2 1.2 0 01-.2-.26.88.88 0 01-.1-.3c-.02-.1 0-.16 0-.16z"/>
      <path d="M111.03 77.45l.07.16c.03.1.04.23.04.36 0 .13-.02.26-.04.36-.02.1-.07.16-.07.16l-.07-.16c-.03-.1-.04-.22-.04-.36 0-.12.02-.26.04-.36l.07-.16z"/>
      <path d="M96.55 78.4l.18-.07-.05.04.1-.3.14-.29.17-.27.21-.25a2.29 2.29 0 01-.36.9 2.2 2.2 0 01-.2.25v.03h-.04a.92.92 0 01-.15-.04z"/>
      <path d="M97.73 79.12l.06-.04.05-.06.07-.06.15-.2c.02-.03.04-.08.07-.1l.06-.13.06-.13.04-.12c.04-.08.06-.16.08-.24l.03-.1c0-.03 0-.06.02-.08l.02-.07.02.07c.02.02.02.05.03.08v.1c.02.08 0 .17 0 .27l-.04.15-.05.15-.08.13c-.04.05-.06.1-.1.13l-.12.1a.3.3 0 01-.11.06c-.03.03-.07.04-.1.05l-.08.02-.08.02z"/>
      <path d="M99.23 79.27l-.06-.2c-.02-.13-.03-.28-.02-.45a1.61 1.61 0 01.16-.65l.06.2c.02.13.03.29.02.46a1.61 1.61 0 01-.16.64z"/>
      <path d="M100.86 79.36s-.06-.08-.1-.2a2.23 2.23 0 01-.18-1.17s.06.07.1.2a2.23 2.23 0 01.18 1.17z"/>
      <path d="M102.12 79.8s-.02-.08-.02-.19a1.7 1.7 0 01.18-.77c.04-.1.1-.16.1-.16s.02.08.02.2c.01.1-.01.26-.04.4-.04.13-.08.27-.14.36l-.1.16z"/>
      <path d="M103.33 79.61s-.04-.07-.06-.15a1.3 1.3 0 01-.07-.31c0-.12-.02-.23 0-.33l.01-.16s.06.05.1.13a.86.86 0 01.1.67.64.64 0 01-.08.15z"/>
      <path d="M104.2 79.84v-.19c0-.1 0-.22-.02-.34 0-.13-.03-.25-.04-.35l-.02-.13-.02-.06.05.03c.03.02.07.04.1.09.08.09.15.22.16.38.01.15-.01.3-.07.4a.49.49 0 01-.08.12.65.65 0 00-.05.05z"/>
      <path d="M105.68 79.61l-.06-.14a1.66 1.66 0 01-.13-.57l.01-.15.12.1a.7.7 0 01.13.3.8.8 0 010 .32l-.07.14z"/>
      <path d="M106.4 79.26l-.08-.14a.87.87 0 01-.1-.31 1.06 1.06 0 010-.33l.05-.16.1.14c.04.08.07.2.08.31v.33c-.01.1-.04.16-.04.16z"/>
      <path d="M107.58 78.84s-.05-.05-.08-.12a.75.75 0 01-.07-.3.88.88 0 01.02-.3l.06-.13s.05.05.08.12c.03.08.07.18.07.3 0 .1 0 .2-.02.3l-.06.13z"/>
      <path d="M108.9 78.83l-.1-.13-.12-.3a1.88 1.88 0 01-.06-.34v-.17l.12.12c.07.08.13.19.16.31.03.13.04.25.03.35 0 .1-.03.16-.03.16z"/>
      <path d="M109.87 78.75l-.02-.05a1.17 1.17 0 01-.04-.14l-.1-.37c-.03-.14-.08-.26-.11-.36l-.05-.13a.47.47 0 00-.02-.05l.06.02c.03.01.08.04.12.09a.8.8 0 01.23.37c.04.16.04.32.02.43-.01.06-.03.1-.05.14l-.04.05z"/>
      <path d="M123.88 86.2h.06l.14.08c.12.06.24.18.32.32.08.15.12.3.13.43v.16l-.02.06-.04-.04c-.04-.02-.07-.06-.12-.1a2.93 2.93 0 01-.24-.34 1.53 1.53 0 01-.17-.37l-.05-.15a.14.14 0 00-.01-.05z"/>
      <path d="M124.6 88.38l.05.02c.03 0 .08.04.12.08.1.06.2.2.24.34a.8.8 0 01.03.4.38.38 0 01-.04.14.47.47 0 01-.03.05s-.02 0-.04-.04a2.22 2.22 0 01-.25-.44 1.54 1.54 0 01-.09-.36l-.01-.14.01-.05z"/>
      <path d="M124.82 90.47l.05.04.12.09a.9.9 0 01.19.37.74.74 0 01-.1.55.33.33 0 01-.03.05s0-.02-.03-.05a1.59 1.59 0 01-.21-.85v-.2z"/>
      <path d="M129.8 108.48l.05.07.16.2a5.73 5.73 0 01.98 2.04 7.68 7.68 0 01.25 1.5l.04.77.03.74c.03.49.04.94.04 1.32l.01.94v.35l-.05-.35-.09-.94-.1-1.32-.06-.74-.06-.77a15.54 15.54 0 00-.22-1.48 6.95 6.95 0 00-.82-2.07l-.13-.23c-.03 0-.04-.03-.04-.03z"/>
      <path d="M130.14 110.44a5.51 5.51 0 01.53 1.75c.05.3.05.6.06.91v.91a24.13 24.13 0 00.14 2.7l.05.45.02.23c0 .03.03.07.04.1.02.01.04.04.06.01h.03v.01l-.01.2-.02-.2.03.02c-.01 0-.05.02-.07 0l-.06-.03-.05-.1-.06-.24-.1-.45c-.05-.3-.1-.6-.13-.9l-.07-.91c-.02-.15-.02-.3-.03-.47v-.91l.01-.45c.02-.3 0-.6 0-.9a6.05 6.05 0 00-.37-1.73z"/>
      <path d="M129.32 110.76l.08.19c.04.12.1.3.15.53a4.4 4.4 0 01.12.77l.05.44.05.45.03.45.05.43.05.4a21.62 21.62 0 00.25 1.1l-.09-.2c-.05-.12-.13-.29-.2-.51l-.1-.36a3.63 3.63 0 01-.1-.41c-.01-.15-.04-.3-.06-.44l-.05-.45-.03-.45-.02-.44-.06-.77a12.53 12.53 0 00-.07-.54.96.96 0 01-.05-.2z"/>
      <path d="M129.05 112.37s-.06-.21-.1-.55a7.1 7.1 0 01-.06-.58l-.01-.32-.01-.34v-.34l.03-.33c.01-.21.03-.4.07-.57.04-.33.1-.56.1-.56l.01.16.01.4.01.57v1.86l-.02.4-.03.2z"/>
      <path d="M80.37 74.1s-.04.08-.13.17a1.39 1.39 0 01-.79.43c-.12.02-.2.01-.2.01l.04-.03.12-.1.37-.22.4-.18.13-.05.06-.03z"/>
      <path d="M80.1 75.38c-.06 0-.1.08-.08.1v.02l-.02.01-.18.15c-.07.05-.13.1-.2.13l-.2.1-.21.08-.23.05-.11.02-.11.02c-.16 0-.3 0-.47-.03l.22-.08.1-.03.1-.03.2-.07.2-.07c.14-.04.28-.1.41-.15l.2-.07.1-.05.1-.04-.01.04c.03-.09.14-.13.2-.1z"/>
      <path d="M85.75 64.65l-.07-.02-.14-.04a4.96 4.96 0 00-.51-.05c-.2-.02-.39-.05-.52-.1a.73.73 0 01-.16-.07l-.06-.04s.03.02.07.02l.17.02c.14.01.33 0 .5-.02l.54-.06h.26z"/>
      <path d="M84.75 62.73s.06-.1.18-.23a4.25 4.25 0 01.98-.88l.19-.12.08-.03.12.32-.08.02c-.04 0-.1.03-.19.07a3.27 3.27 0 00-1.07.66c-.14.11-.21.2-.21.2z"/>
      <path d="M89.25 63.5l-.22.27-.23.25-.3.27-.18.12a.77.77 0 01-.18.1.59.59 0 01-.18.07.94.94 0 01-.17.05h-.35l.1-.04c.05-.02.13-.04.22-.09l.13-.07.15-.1.16-.1c.05-.04.1-.09.16-.12l.3-.24.28-.2.3-.17z"/>
      <path d="M85.9 62.5l.02-.04a.36.36 0 01.07-.08 1.26 1.26 0 01.3-.21c.14-.07.32-.13.5-.15l.3-.02h.3a1.33 1.33 0 01.57.2l.23.13c.06.04.13.09.2.12.25.16.4.3.4.3s-.2-.06-.47-.18a7.2 7.2 0 01-.7-.3l-.26-.04c-.09-.02-.19-.02-.28-.02-.09 0-.18 0-.27.02-.18 0-.34.03-.47.06l-.18.07a.75.75 0 00-.14.07c-.03.02-.07.03-.08.05l-.04.02z"/>
      <path d="M86.43 62.7s0 .04-.03.1a.34.34 0 01-.1.15.53.53 0 01-.18.06c-.05.02-.1 0-.1 0l.02-.1c.03-.06.06-.1.12-.14a.53.53 0 01.17-.07h.1z"/>
      <path d="M85.76 63.78l.02-.07.1-.18c.04-.06.1-.14.19-.21l.12-.1.11-.08.1-.1.1-.12.2-.19.17-.12.04-.04h.01v.02s0 .03-.02.05l-.09.18c-.03.07-.09.15-.15.24l-.09.12a.45.45 0 01-.1.13c-.03.02-.05.04-.09.05l-.02.02h-.02l-.04.03c-.04.02-.09.04-.12.08-.08.04-.16.1-.22.15-.06.04-.1.09-.15.1l-.05.04z"/>
      <path d="M86.14 63.93l.13-.04a.83.83 0 01.24 0 .77.77 0 01.32.15s-.04.04-.11.06a.58.58 0 01-.25.02.45.45 0 01-.22-.09l-.1-.1z"/>
      <path d="M86.7 63.74l.03-.01.08-.02c.06 0 .14 0 .2.02.07 0 .14.03.2.05l.1.06-.1.07a.4.4 0 01-.23.03.3.3 0 01-.2-.11c-.07-.04-.08-.1-.08-.1z"/>
      <path d="M87.25 63.41l.09-.07a.39.39 0 01.2-.04.6.6 0 01.2.04c.06.02.1.07.1.07l-.1.07a.39.39 0 01-.2.04.6.6 0 01-.2-.04l-.09-.07z"/>
      <path d="M79.29 62.03a.6.6 0 00-.1.33l-.04-.06.15.02h.06a.2.2 0 01.1.03c.05.02.09.08.09.11v.09l.04.01.12.04h.42c.06.02.14.03.2.08s.07.09.1.1h.23a1.42 1.42 0 01.59.16h-.3c-.1 0-.19 0-.28.02l-.14.02a.33.33 0 01-.2-.02c-.07-.05-.1-.1-.13-.1a.17.17 0 00-.1-.03h-.28a.67.67 0 01-.16-.02c-.06 0-.1-.03-.16-.05a1.04 1.04 0 01-.09-.06.2.2 0 01-.06-.13v-.06h.01l-.03-.01-.07-.03-.14-.04h-.01c-.03-.01-.05-.04-.04-.06a.45.45 0 01.21-.34z"/>
      <path d="M70.07 66.06v-.03l.02-.1a.46.46 0 01.07-.12l.06-.08c.02-.03.05-.04.1-.06a.83.83 0 01.22-.06l.25-.02.26-.01h.26c.09 0 .17 0 .26-.02.08 0 .17 0 .24-.02a.87.87 0 00.2-.05.8.8 0 00.16-.12.91.91 0 00.19-.25l.06-.1-.02.12a.97.97 0 01-.13.3.91.91 0 01-.17.17.62.62 0 01-.25.11c-.09.02-.18.05-.27.05h-1.24l-.07.03-.07.05a.73.73 0 01-.1.09l-.05.06c0 .05.02.06.02.06z"/>
      <path d="M73.33 64.31l.03.02a.2.2 0 01.07.07c.06.06.1.16.1.26s-.02.2-.07.26c-.04.07-.1.1-.1.1v-.04a1.39 1.39 0 01-.05-.32v-.22l.02-.1v-.03z"/>
      <path d="M73.8 64.36s.04 0 .07.04c.05.04.07.08.07.14 0 .05-.01.11-.05.14a.5.5 0 01-.06.06s-.04-.03-.06-.07a.24.24 0 01-.05-.11l.03-.12c0-.05.04-.08.04-.08z"/>
      <path d="M71.84 67.62c.06-.05.12-.08.2-.12l.1-.04.1-.03c.06-.03.14-.04.22-.05l.23-.01.1.01a.4.4 0 01.12.02l.11.04c.04 0 .08.03.12.05l.1.07.09.08.08.09.07.1v.01a.5.5 0 01.03.25 1.04 1.04 0 01-.23.63c.04-.14.06-.28.06-.43l-.01-.2a.61.61 0 00-.05-.17v.01l-.05-.08-.07-.06-.07-.06a.18.18 0 00-.08-.04.2.2 0 00-.09-.05l-.09-.03-.09-.03c-.03 0-.07 0-.1-.02l-.1-.01-.1-.01h-.2l-.1.01-.1.01-.11.02a.13.13 0 01-.09.04z"/>
      <path d="M69.6 65.46l.2-.12.2-.16.24-.24.27-.29c.06-.04.1-.1.16-.16l.18-.16a.77.77 0 01.23-.1l.04-.02h.03l.08-.01.14.01a.5.5 0 01.27.1c.04.01.09.06.12.1l.05.08v.13a.41.41 0 01-.06.15.1.1 0 01-.05.06l-.03.04-.04.03-.13.04-.11.05-.44.16a4.15 4.15 0 00-.72.38c-.1.07-.18.15-.25.21l-.2.17c-.06.05-.12.06-.16.07l-.06.01.06-.02c.03-.02.08-.04.13-.1.06-.05.1-.11.17-.2l.23-.25c.09-.1.2-.17.32-.25.13-.08.26-.15.4-.21l.44-.19.11-.04.1-.03h.02v-.02c.02 0 .03-.02.04-.03a.1.1 0 00.03-.07v-.03l-.06-.06a.48.48 0 00-.2-.06l-.1-.02h-.09l-.18.08c-.11.07-.23.17-.34.26l-.29.26c-.18.17-.36.28-.5.34l-.15.07-.1.04z"/>
      <path d="M68.9 70.53v-.22a.93.93 0 01.07-.21.84.84 0 01.15-.2l.15-.15.04-.07.06-.09a.2.2 0 01.07-.07l.06-.02h.06l-.04.04a.17.17 0 00-.05.1l-.01.1-.01.05-.02.07a.97.97 0 01-.16.2l-.15.16-.11.15-.1.16z"/>
      <path d="M73.88 65.71v.06l-.05.16a.85.85 0 01-.1.2l-.16.2-.2.16a.85.85 0 01-.21.1l-.16.05a.14.14 0 00-.05 0s0-.02.04-.04l.1-.11.32-.3.31-.32a.82.82 0 01.12-.1.65.65 0 01.04-.06z"/>
      <path d="M76.5 64.47a.21.21 0 01-.02-.09v-.09a.45.45 0 01.06-.17l.1-.15.1-.12.02-.02.08-.06.08-.04.06-.04a1.65 1.65 0 01.21-.15c.03 0 .07-.03.1-.04l.09-.03.3-.13.33-.11a1.8 1.8 0 01-.27.22l-.14.1a.72.72 0 01-.15.1c-.03 0-.05.02-.07.03l-.07.03-.13.1-.08.05-.08.05-.14.06.03-.02c-.08.1-.17.17-.24.24l-.1.11-.04.07-.03.1z"/>
      <path d="M82.04 62.12a.8.8 0 01.24-.5c.02 0 .05-.02.07 0 .03 0 .05 0 .06.02a.2.2 0 01.05.06v.03l.02.02.01.05.04.15-.02-.04.05.01-.07.05a.68.68 0 01.52-.3c.05 0 .11.04.11.1v.02c0 .03.02.09.06.1l-.16.08.04-.1a.23.23 0 01.13-.1c.01-.02.03-.02.06-.02h.05l.04.01.03.04c.05.04.05.09.06.1 0 .04 0 .05.02.07l.02.02c.02.02.07.02.12.02l.06-.01.08-.02.17-.07.1-.02h.1c.06 0 .12.04.15.1-.04-.05-.1-.05-.16-.05a.2.2 0 00-.08.03l-.06.03-.15.09-.08.04-.1.04a.4.4 0 01-.23-.02.2.2 0 01-.1-.1l-.04-.1-.03-.04h.02-.02.02c.02-.01 0 0 0 .01-.02.01-.02.03-.03.06 0 .05-.08.09-.13.08l-.03-.02a.35.35 0 01-.16-.32l.1.12a.46.46 0 00-.2.06.5.5 0 00-.16.13v.01a.09.09 0 01-.07.04.22.22 0 01-.2-.08l-.02-.01v-.04l-.03-.16-.01-.05v-.04h.01c.01 0 .02 0 .03-.02h.02a2.1 2.1 0 00-.33.44z"/>
      <path d="M83.57 63.1l.01.07.02.18c0 .04 0 .07.02.1 0 .04.02.06.03.1l.1.22a.6.6 0 01.06.12l.04.14.04.12.02.12.03.14.05.05-.02.01h-.06a.4.4 0 01-.18-.11l-.08-.1-.08-.1a1.23 1.23 0 01-.07-.13l-.06-.14a.87.87 0 01-.1-.3v-.16a.48.48 0 01.05-.13.47.47 0 01.11-.16c.05-.01.07-.03.07-.03z"/>
      <path d="M85 67.19s.05.02.1.07c.05.04.1.13.1.22a.4.4 0 01-.03.25.3.3 0 01-.07.1s-.04-.04-.06-.1a1.07 1.07 0 01-.06-.2v-.3l.01-.04z"/>
      <path d="M84.63 67.88s.05.03.08.1a.43.43 0 01-.07.5c-.04.05-.1.07-.1.07l-.02-.12c-.01-.07 0-.15.01-.23a1.19 1.19 0 01.1-.29v-.03z"/>
      <path d="M84.01 68.5s.04.05.05.14c0 .1 0 .2-.02.32a.77.77 0 01-.15.27c-.06.07-.11.1-.11.1s-.02-.07 0-.14c0-.08.02-.2.05-.29l.11-.27.07-.13z"/>
      <path d="M83.37 69.1a.47.47 0 00.04.2.76.76 0 01-.1.42l-.06.1c-.02 0-.03.03-.04.04l-.04.05a.53.53 0 01-.18.11c-.06.02-.12.02-.15.02a.14.14 0 01-.06 0l.05-.04.09-.1a.7.7 0 00.1-.13l.04-.08a.2.2 0 00.05-.09c.07-.11.12-.23.17-.32l.06-.13.03-.05z"/>
      <path d="M82.8 69.65v.04c0 .03 0 .07-.02.12a.7.7 0 01-.19.29.6.6 0 01-.31.16c-.1.02-.17 0-.17 0l.03-.04.08-.08.22-.21.24-.2.1-.07.03-.01z"/>
      <path d="M76.96 67.92l.04.02c0 .02.03.03.05.05.05.03.1.07.13.11l.1.15.04.09s-.04.02-.11.01a.28.28 0 01-.2-.1.34.34 0 01-.08-.21v-.08l.03-.04z"/>
      <path d="M77.65 68.1s.06 0 .1.03a.4.4 0 01.24.3v.11s-.05 0-.1-.03a.31.31 0 01-.15-.13.37.37 0 01-.08-.18c-.02-.05-.01-.1-.01-.1z"/>
      <path d="M78.5 68.38l.03.02.06.02c.04.01.09.03.12.07a.4.4 0 01.08.1l.03.09s-.03.03-.09.03a.22.22 0 01-.18-.05.22.22 0 01-.08-.17l.01-.07.02-.04z"/>
      <path d="M77.57 66.02l.06.04.14.07.1.01c.03 0 .07-.01.14 0s.14.04.17.09l.1.12c.01.03.02.04.04.05l.04.03.1.05.22.08.17.08c.02 0 .03.02.04.03l.01.01h-.23l-.26-.01a.32.32 0 01-.16-.07l-.04-.02v-.01l-.03-.02-.06-.07a.29.29 0 00-.08-.1c-.02-.03-.03-.05-.05-.05l-.11-.02a.23.23 0 01-.13-.06.34.34 0 01-.12-.14c-.06-.07-.06-.1-.06-.1z"/>
      <path d="M77.53 65.37l.06.05.17.07h.4c.04 0 .09 0 .13-.02.03 0 .04 0 .05-.02l.04-.03.15-.1.26-.1a.64.64 0 01.27-.05l-.06.04c-.03.04-.09.07-.15.13-.07.04-.14.1-.22.17l-.11.09-.08.05c-.03.03-.07.04-.1.05l-.2.02H78a.81.81 0 01-.3-.1.38.38 0 01-.16-.21v-.04z"/>
      <path d="M78.36 64.68l.02-.04c.03-.1-.03-.2-.04-.3l-.01-.14a.18.18 0 00-.03-.11c0-.01 0-.03-.02-.04a.09.09 0 00-.05-.02c-.16-.01-.32 0-.48.03-.01.08-.1.22.07.43.17.22.4.23.48.22l.06-.03z"/>
      <path d="M78.9 61.37l.04-.01.04-.03.06-.02c.08-.03.19-.04.28-.05l.27-.04.12-.02-.1.07-.23.14a.79.79 0 00-.2.15l-.03.03-.02.03-.02.02z"/>
      <path d="M69.28 69.02l.03-.03c.03 0 .06-.03.1-.05.1-.05.23-.1.4-.12a.74.74 0 01.27.02c.1 0 .2.05.27.08.08.02.16.04.25.04s.18 0 .27-.02l.26-.08c.08-.04.16-.08.24-.14.08-.04.15-.1.23-.13a.66.66 0 01.24-.06.69.69 0 01.43.15l.02.02-.02-.02c-.02-.01-.05-.04-.1-.05a.7.7 0 00-.33-.05.79.79 0 00-.21.06c-.07.04-.14.1-.2.15-.08.06-.15.13-.24.17a1.26 1.26 0 01-.6.18.9.9 0 01-.3-.02c-.09-.02-.16-.05-.23-.05l-.2.01a.61.61 0 00-.28.12l-.06.04-.03.02z"/>
      <path d="M68.34 69.17h-.02c-.03 0-.07 0-.1-.02h-.02l-.02-.02v-.01l-.04-.04a.2.2 0 01-.05-.05l-.06-.11a.3.3 0 01-.05-.13v-.27c0-.04 0-.09.02-.12a.97.97 0 01.13-.22.97.97 0 00.31-.6 1 1 0 01-.2.7.34.34 0 00-.06.17v.1s0 .03.02.04v.05l.02.03.02.03.05.07.05.07.03.02v-.01a.12.12 0 00-.1-.01c-.02 0 0 0 0 0z"/>
      <path d="M79.32 71.6l.08-.01.08-.01.11-.03.3-.1a.54.54 0 01.2-.04h.19a1.81 1.81 0 00.65-.05l.3-.08-.29.13c-.09.03-.18.08-.3.11a2.2 2.2 0 01-.37.07l-.1.01-.07.01c-.05.01-.1.04-.14.06l-.28.16-.12.05c-.04.01-.08.02-.1.04-.06 0-.08.02-.08.02z"/>
      <path d="M79.38 63.99c.02 0 .02 0 .03.02l.1.04c.05.01.1.04.17.05h.1l.1.02c.15.01.29 0 .39-.02.05-.01.09-.04.12-.05a.12.12 0 00.05-.02l-.04.03a.32.32 0 01-.11.08c-.1.06-.25.12-.4.15l-.1.02-.12.01a.68.68 0 01-.22 0 .47.47 0 01-.21-.05z"/>
      <path d="M77.41 64.35s-.04 0-.1.03l-.22.08a1.7 1.7 0 00-.2.1l-.09.07.04-.1a.9.9 0 01.13-.2l.16-.19.08-.08z"/>
      <path d="M127.94 96.63l-.02-.28a7.16 7.16 0 00-.17-1.22c-.03-.17-.07-.27-.07-.27l.12.26c.06.16.14.37.2.59.08.21.14.43.19.6l.08.28z"/>
      <path d="M84.59 92.75v.31l.03.35.02.21.04.24.09.53.12.58.14.64c.03.21.08.45.08.68 0 .24-.03.47-.04.68a6.09 6.09 0 00.15 2.19l.09.34.09.3-.05-.08-.1-.19-.17-.32a3.8 3.8 0 01-.28-.98l-.07-.63.03-.65c0-.23.04-.44.04-.66 0-.21 0-.41-.04-.64l-.1-.63-.07-.6-.05-.54v-.46a3.25 3.25 0 01.06-.59l-.01-.08z"/>
      <path d="M83.28 91.3l-.03.4a18.53 18.53 0 00-.14 1.71 6.7 6.7 0 00.1 1.56l.18.82c.06.28.13.56.16.85l.01.12v.11l.01.21v.42l-.05.77a4 4 0 00.08 1.24 2.54 2.54 0 00.28.68l.05.09-.06-.08-.18-.24c-.07-.1-.15-.24-.22-.4a2.66 2.66 0 01-.16-.58 4.5 4.5 0 01-.05-.7v-.77l-.01-.4-.02-.2v-.2a6.88 6.88 0 00-.17-.81c-.05-.28-.12-.55-.16-.85a5.31 5.31 0 01-.04-1.61 12.6 12.6 0 01.33-1.7c.04-.3.09-.44.09-.44z"/>
      <path d="M80 96.93c-.05-.1-.1-.2-.14-.33a3.82 3.82 0 01-.15-1.07c.02-.24.03-.48.06-.71l.1-.7.13-.7.06-.34.07-.35.1-.35.13-.34c.09-.22.19-.44.34-.64l-.02.02.07-.15a.5.5 0 01.1-.12l.18-.21.2-.2.19-.22c-.07.18-.2.34-.3.5l-.15.23c-.03.05-.05.08-.06.13a.25.25 0 00-.03.1l-.01.03v.01c-.06.1-.1.2-.14.3-.05.1-.08.22-.11.33l-.1.33c-.04.11-.06.23-.08.33-.03.11-.04.22-.05.35-.01.11-.03.24-.06.35l-.1.69-.13.68c-.05.23-.1.46-.11.68l-.04.34-.01.34c-.03.22 0 .46.07.69z"/>
      <path d="M82.66 90.71l-.11.4-.13.45-.16.57c-.05.22-.1.44-.18.69l-.18.77-.17.82a19.37 19.37 0 00-.27 1.72l-.09.83-.03.78.01.7a14 14 0 00.15 1.46l-.04-.1-.09-.29a7.61 7.61 0 01-.28-1.77 10.6 10.6 0 01-.01-.8c.01-.28.02-.57.06-.86a11.79 11.79 0 01.29-1.75l.2-.83a10.46 10.46 0 01.46-1.45l.41-.99c.06-.11.1-.2.12-.27l.04-.08z"/>
    </g>
  </g>
</svg>
