<svg xmlns="http://www.w3.org/2000/svg" fill="#d7374a" stroke="#000" viewBox="50 50 200 200">
  <metadata author="Azgaar" license="https://creativecommons.org/publicdomain/zero/1.0"/>
  <g id="crossPatonce" stroke-width=".5">
    <path d="M100 60.1a8.8 8.8 0 00-4.4 7.6 5.1 5.1 0 00-8.8 0 64.8 64.7 0 018.5 27.7 64.8 64.7 0 01-27.8-8.5 5.1 5.1 0 000 8.8 8.8 8.8 0 00-7.5 4.4 8.8 8.8 0 007.6 4.4 5.1 5.1 0 000 8.8 64.8 64.7 0 0127.8-8.5 64.8 64.7 0 01-8.5 27.7 5.1 5.1 0 008.8 0 8.8 8.8 0 004.4 7.6 8.8 8.8 0 004.4-7.6 5.1 5.1 0 008.8 0 64.8 64.7 0 01-8.5-27.7 64.8 64.7 0 0127.8 8.5 5.1 5.1 0 000-8.8 8.8 8.8 0 007.6-4.4 8.8 8.8 0 00-7.6-4.4 5.1 5.1 0 000-8.8 64.8 64.7 0 01-27.8 8.5 64.8 64.7 0 018.5-27.7 5.1 5.1 0 00-8.8 0 8.8 8.8 0 00-4.4-7.6z"/>
  </g>
</svg>
