<svg xmlns="http://www.w3.org/2000/svg" fill="#d7374a" stroke="#000" viewBox="50 50 200 200">
  <metadata source="http://www.wappenwiki.org/images/5/55/Louis_de_Lichtervelde.svg" license="https://creativecommons.org/licenses/by-nc-sa/3.0"/>
  <g id="doveDisplayed" stroke-width=".35">
    <g>
      <g>
        <g class="secondary">
          <path d="M82.14 117.78s.88-.29 1.14.42c.25.7-.13.94-.13.94s-.24.08-.43.28c-.48.49-.28.94.02 1.26.14.16.28.17.32.22.09.16-1.01.28-1.6-.93-.63-1.35.68-2.19.68-2.19zm8.48-.95s-.87-.3-1.15.4c-.28.7.1.94.1.94s.25.09.44.28c.47.48.26.95-.06 1.26-.14.14-.28.15-.32.22-.1.15 1 .29 1.62-.92.66-1.32-.63-2.18-.63-2.18zm-9.22-3.92s.73.56.31 1.19c-.42.61-.83.42-.83.42s-.21-.15-.47-.2c-.66-.1-.93.3-1 .75-.04.2.02.31-.02.38-.07.17-.8-.67-.14-1.85.72-1.3 2.15-.69 2.15-.69zm2.93-2.6s.27.9-.43 1.15-.92-.14-.92-.14-.09-.24-.27-.44c-.48-.48-.93-.29-1.25.01-.15.14-.17.28-.24.32-.15.09-.25-1.02.96-1.6 1.35-.63 2.15.7 2.15.7z"/>
          <path d="m93.75 111.23-.07.05c-1.05.68-2.07 1.42-3.1 2.15l-1.76 1.27-.88.68c-.14.1-.6.39-.53.62.04.2.31.26.53.37.38.17.51-.12.85-.19.3-.07.53.21.83.12.37-.31.57-.29 1.01.07.27.25.08.51.08.51s-.44.07-.77.54c-.25.35-.32.56-.25.83-.23.14-.35.22-.53.15-.21-.08-.44-.33-.47-.43-.05-.19.05-.44.04-.56-.42-.1-.08.43-.6.5-.25.04-.39-.03-.47-.26a.7.7 0 0 0-.53-.46c-.15-.02-.31.08-.4-.06-.05-.06-.05-.22-.12-.24-.08-.02-.41-.06-.5-.05-.47.1 0 .8-.8.87-.23.03-.5-.02-.57.02-.08.03-.72.43-.73.7 0 .1.1.36.02.55-.02.1-.27.35-.47.43-.19.07-.32-.01-.54-.15.07-.27.01-.48-.23-.83-.32-.47-.77-.55-.77-.55s.07-.37.34-.63c.34-.27.38-.22.77.06-.13-.1.25.1.54-.33.16-.24.25-.8.94-.82-.06 0 .05-.4-.17-.44-.14-.02-.4.02-.81-.06s-.27-.65-.94-.66c-.34.05-.63-.2-.72-.15-.1.06-.25.29-.43.34-.1.03-.43-.03-.62-.15-.16-.12-.16-.27-.17-.54.25-.1.4-.27.53-.66.2-.53.01-.95.01-.95s.12-.3.47-.22c.54.17.66.31.61.8.04.1.16.12.27.12.12-.02.8.42.87.5.28.3.54.17.78.26.27.12.52.27.6.38-.06-.27-.4-.92-.65-1.26-.13-.15-.56-.1-.37-.67.13-.39-.16-.58-.28-.57-.12.01-.28.1-.45.03-.1-.02-.34-.26-.42-.48-.07-.2.01-.32.16-.54.26.08.48.01.83-.22.47-.31.55-.76.55-.76s.27-.18.51.1c.27.34.39.6.04 1.02-.16.28.27.5.15.81-.12.32.14.64.37.71.49.16.29 1.3.37 1.38.08.08.42.48.69.24l.39-.27c.13-.21.5-.5.77-.55.14-.2.48-.49.7-.52.18-.21.55-.5.76-.52.32-.32 2.4-1.78 2.4-1.78l1.02-.66c1.32-.9 1.84.67 1.32 1.01z"/>
          <g stroke="none" fill="#000">
            <path d="M93.53 110.93c-.85.5-1.66 1.07-2.48 1.62l-2.45 1.68 2.37-1.8c.79-.58 1.59-1.19 2.41-1.74.07-.05.15-.03.2.03.04.07.02.16-.05.2zm-6.7 3.1c.17.08.3.2.38.33.08.13.13.27.15.4l-.03.02a.92.92 0 0 0-.27-.29.58.58 0 0 0-.31-.12l.09-.33zm-3.6 3.1c.1.09.17.19.23.3.06.11.1.23.14.34-.16-.17-.36-.3-.55-.36l.18-.29zm1.75-5.7c-.09.1-.2.18-.31.24-.1.06-.22.1-.34.14.18-.16.3-.36.36-.56l.3.19zm-2.41 2a1.43 1.43 0 0 1-.31.69 1.3 1.3 0 0 0-.04-.67l.35-.02zm2.5 1.18c0 .05.03.11.09.17s.14.1.2.16v.04c-.09-.01-.18 0-.28-.03a.57.57 0 0 1-.3-.15l.28-.2zm-.47 1.33c.16 0 .3.05.43.07l.18.01c.06-.01.13-.02.19-.06l.02.01v.03c-.04.04-.1.1-.17.13l-.22.08c-.15.03-.28.04-.4.09a.18.18 0 0 1-.12-.34h.07l.02-.02zm4.55.95c.09-.27.22-.52.4-.76l.23.26c-.22.12-.44.3-.63.5zm-.07-4.44c.16.07.29.18.37.32.08.13.13.27.15.4l-.04.02a.92.92 0 0 0-.26-.29.58.58 0 0 0-.32-.12l.1-.33zm-.77.52c.16.07.3.19.37.33.08.12.13.26.15.4l-.03.01a.92.92 0 0 0-.27-.29.58.58 0 0 0-.31-.11l.1-.34zm-.7.52c.16.07.28.19.37.33.08.12.12.26.15.4l-.04.01a.92.92 0 0 0-.27-.29.58.58 0 0 0-.3-.11l.08-.34z"/>
          </g>
        </g>
        <g class="secondary">
          <path d="M117.79 117.78s-.88-.29-1.14.42c-.25.7.13.94.13.94s.24.08.43.28c.47.49.28.94-.03 1.26-.14.16-.27.17-.3.22-.1.16 1 .28 1.6-.93.62-1.35-.7-2.19-.7-2.19zm-8.48-.95s.87-.3 1.15.4c.27.7-.1.94-.1.94s-.25.09-.44.28c-.47.48-.26.95.06 1.26.14.14.28.15.31.22.1.15-1 .29-1.6-.92-.67-1.32.62-2.18.62-2.18zm9.22-3.92s-.73.56-.31 1.19c.41.61.83.42.83.42s.21-.15.47-.2c.66-.1.92.3 1 .75.04.2-.02.31.02.38.07.17.8-.67.14-1.85-.72-1.3-2.15-.69-2.15-.69zm-2.94-2.6s-.26.9.43 1.15.93-.14.93-.14.08-.24.27-.44c.47-.48.93-.29 1.25.01.15.14.16.28.23.32.15.09.26-1.02-.95-1.6-1.35-.63-2.16.7-2.16.7z"/>
          <path d="m106.18 111.23.07.05c1.05.68 2.07 1.42 3.1 2.15.58.42 1.16.85 1.76 1.27l.88.68c.14.1.59.39.53.62-.05.2-.31.26-.53.37-.39.17-.51-.12-.85-.19-.3-.07-.53.21-.83.12-.38-.31-.57-.29-1.01.07-.27.25-.09.51-.09.51s.45.07.78.54c.25.35.32.56.25.83.23.14.34.22.53.15.2-.08.44-.33.46-.43.06-.19-.04-.44-.03-.56.42-.1.08.43.59.5.26.04.4-.03.48-.26a.7.7 0 0 1 .53-.46c.15-.02.31.08.4-.06.05-.06.05-.22.12-.24.08-.02.4-.06.49-.05.47.1.01.8.81.87.23.03.5-.02.57.02.08.03.72.43.73.7 0 .1-.1.36-.02.55.02.1.26.35.47.43.19.07.32-.01.54-.15-.07-.27-.02-.48.23-.83.32-.47.76-.55.76-.55s-.07-.37-.33-.63c-.34-.27-.39-.22-.77.06.13-.1-.25.1-.54-.33-.17-.24-.25-.8-.94-.82.05 0-.05-.4.17-.44.14-.02.4.02.81-.06s.27-.65.94-.66c.34.05.63-.2.72-.15.1.06.24.29.43.34.1.03.43-.03.62-.15.16-.12.16-.27.17-.54-.26-.1-.4-.27-.53-.66-.2-.53-.02-.95-.02-.95s-.11-.3-.46-.22c-.55.17-.66.31-.61.8-.04.1-.17.12-.27.12a3.3 3.3 0 0 0-.87.5c-.28.3-.55.17-.78.26-.28.12-.52.27-.6.38.06-.27.4-.92.65-1.26.13-.15.55-.1.37-.67-.13-.39.16-.58.28-.57.11.01.28.1.45.03.1-.02.34-.26.42-.48.07-.2-.01-.32-.17-.54-.25.08-.47.01-.82-.22-.47-.31-.56-.76-.56-.76s-.26-.18-.5.1c-.27.34-.39.6-.04 1.02.16.28-.27.5-.15.81.11.32-.14.64-.37.71-.49.16-.3 1.3-.37 1.38-.09.08-.42.48-.69.24l-.4-.27c-.12-.21-.5-.5-.76-.55-.14-.2-.49-.49-.7-.52-.18-.21-.55-.5-.76-.52-.32-.32-2.4-1.78-2.4-1.78l-1.02-.66c-1.32-.9-1.85.67-1.32 1.01z"/>
          <g stroke="none" fill="#000">
            <path d="m111.33 114.23-2.45-1.68c-.83-.55-1.64-1.11-2.48-1.62-.07-.05-.1-.13-.05-.2s.13-.1.2-.04c.83.55 1.62 1.14 2.42 1.75l2.36 1.8zm1.85.14a.5.5 0 0 0-.31.12c-.1.07-.19.17-.27.29l-.03-.01c.02-.14.07-.28.15-.4.08-.14.2-.26.37-.33l.1.33zm3.7 3.04c-.2.06-.4.19-.55.36.03-.11.08-.23.13-.33.06-.1.14-.21.24-.32l.18.3zm-1.64-6.17c.05.2.18.4.35.56a1.46 1.46 0 0 1-.65-.37l.3-.19zm2.47 2.22c-.07.2-.09.44-.04.67a1.43 1.43 0 0 1-.31-.68h.35zm-2.56 1.34c-.09.08-.2.14-.3.15-.1.03-.2.02-.28.03v-.04c.06-.06.15-.1.2-.16a.32.32 0 0 0 .1-.17l.28.2zm.13 1.49c-.11-.05-.24-.06-.4-.1a.57.57 0 0 1-.21-.08.68.68 0 0 1-.18-.12v-.03h.03a.5.5 0 0 0 .37.05c.12-.02.26-.06.43-.07.1 0 .2.07.2.17s-.08.19-.18.19l-.06-.01zm-4.5.6c-.2-.2-.4-.38-.64-.5l.23-.28c.18.26.32.51.41.78zm.16-4.1a.5.5 0 0 0-.31.11c-.1.07-.19.17-.27.3l-.03-.02c.02-.14.07-.28.15-.4.08-.13.2-.26.37-.33l.1.33zm.76.52a.5.5 0 0 0-.32.11c-.1.07-.18.18-.26.3l-.04-.02c.03-.14.07-.28.15-.4.08-.13.21-.26.37-.33l.1.34zm.72.52a.5.5 0 0 0-.32.11c-.1.07-.18.18-.26.3l-.04-.02c.02-.14.07-.28.15-.4.08-.13.21-.26.37-.33l.1.34z"/>
          </g>
        </g>
        <path d="M94.89 101.83c.3 1.92-3.2 5.69-3.72 7.56l-.14.7c-.03.1-.04.22.04.3.07.05.16.05.26.03.4.07.62.52.61.7 0 .06-.03.13 0 .2.01.06.08.1.15.14a8.9 8.9 0 0 1 .56.35.2.2 0 0 1 0 .12c-.03.22 0 .45.1.66.04.09.45.4.57.17 1.14-1.92 2.94-1.4 4.32-5m7.4-5.93c-.3 1.92 3.2 5.69 3.72 7.56l.14.7c.02.1.04.22-.04.3-.07.05-.17.05-.26.03-.4.07-.63.52-.61.7 0 .06.03.13 0 .2-.02.06-.09.1-.16.14a8.9 8.9 0 0 0-.55.35.2.2 0 0 0 0 .12c.03.22 0 .45-.1.66-.04.09-.45.4-.58.17-1.13-1.92-2.93-1.4-4.31-5"/>
      </g>
      <g>
        <g>
          <rect stroke="none" width="29" height="4.64" x="84.47" y="89.14"/>
          <path d="M75.3 82.64c-6.6-1.88-13.66-5.57-15.18-7.2-.4-.42.06-.24.48-.03a53.5 53.5 0 0 0 13.5 5.92m18.71 11.5c-1.7 5.71-4.48 10.78-5.76 11.36-.18-.01.03-.19.12-.34.1-.15.18-.2.4-.5 2.24-3.02 4.51-10.7 4.53-11.02m4.93-2.78c-.16 5.31-1.99 11.28-3.15 12.11-.19.04-.01-.24-.01-.24l.28-.5c1.5-3.12 2.1-11.31 2.04-11.6M78.7 85.49c-7.36 1.7-14.22 1.8-16.36 1.09-.57-.19-.1-.28.37-.29 4.27.34 9.95-.25 14.3-1.3m12.01 6.8c-2.68 5.37-6.5 9.86-8.03 10.16-.25-.05.1-.23.28-.4 3.02-2.17 6.94-10.07 7.02-10.4m-5.07-3.85c-6.24 4.08-13.97 6.86-15.98 6.98-.6.04-.1-.18.29-.31 4.06-1.3 12.05-5.03 15.62-7.63m4.07 2.41c-4.23 4.54-10.5 9.67-12.43 10.3-.57.19-.14-.15.2-.37 3.61-2.26 9.11-7.44 11.93-10.84"/>
          <path d="M85.84 88.41c-.37.9-1.79 3.87-4.37 6.87-1.27 1.47-5.35 5.02-5.64 5.55-.16.29-.07.58.37.8.2.41 1.5.26 2.09-.04 1.03.14 4.37-2.6 5.1-3.87.73-.05 3.02-2.2 3.26-3.48 1.73-1.55 1.93-4.13 2-4.4m2.48-4.1-1.29 3.76c-.35.89-1.13 2.9-1.38 3.47-.4.93-.59 1.51-1.62 4.09-1.38 3.4-3.67 5.74-3.8 6.41-.09.37.1.6.62.67.34.37 1.31 0 1.82-.54 1.1-.23 2.94-2.4 3.27-4.06.92-.4 2.79-4.18 2.55-5.21 1.13-1.45 1.56-3.6 1.69-4.4l.67-3.6m-.62 4.86c-.2 1.56-.54 3.66-1.24 5.46-.77 2.16-2.72 5.8-2.78 6.7-.02.33.17.5.67.54.36.29 1.31-.2 1.72-.71 1-.29 2.92-4.33 3.03-5.79M76.07 78.16s-3.6-1.28-7.22-4.04c-1.33-.94-4.93-4.22-5.58-4.45-.36-.13-.6 0-.77.52-.42.27-.58 1.33-.1 1.91.06 1.12 1.28 2.83 2.89 3.41.25.96 3.46 3.36 4.68 3.48 2.08 2.74 5.7 2.83 5.7 2.83"/>
          <path d="M76.17 81.87s-2.79-.29-3.6-.35c-1-.07-2.22-.22-4.64-.45-4-.57-6.41-1.74-7.09-1.65-.37.05-.5.3-.41.82-.24.44.5 1.35 1.18 1.67.58.97 2.8 2.54 4.45 2.33.69.74 5.01 1.53 5.94.77 2.75 1.58 6.37.2 6.37.2m4.34 1.49s-.95 1.18-2.2 2.33a20.22 20.22 0 0 1-4.11 3.1c-1.81 1.02-6.13 2.71-6.58 3.17-.24.26-.2.51.18.86.08.47 1.46.65 2.15.49 1.43.27 4.4-.38 5.5-1.5.95.17 4.34-1.7 4.84-3.26 2.54-.62 4.5-5.05 4.5-5.05"/>
          <path d="M79.04 84.71s-3.79 1.56-4.56 1.8c-4.82 1.59-9.72 2.45-10.3 2.8-.33.2-.37.46-.07.91-.04.5 1.02.98 1.77.99.93.66 4.58.53 6.02-.34.91.4 4.12-.35 4.65-1.41 3.14.35 5.82-2.42 5.82-2.42"/>
          <g stroke="none" fill="#000">
            <path d="M76.48 89.63c-.05-.03-.06-.07-.08-.1l-.05-.1a.66.66 0 0 1-.03-.22h.03c.05.04.1.07.15.08l.08.03c.03 0 .06.01.07 0l-.17.31z"/>
            <polygon points="64.39 90.28 64.11 90.42 64.13 90.07 64.39 90.25"/>
            <path d="M65.74 91.26a1 1 0 0 0 .1-.28l.04-.01c.08.06.15.16.22.26l-.36.03zm6.12-.21-.08-.1-.04-.11a.66.66 0 0 1-.04-.21l.04-.01c.04.04.09.08.15.09l.08.02c.02 0 .06.01.07 0l-.18.32zm8.11-4.91c-.53.32-1.08.57-1.63.81a42.5 42.5 0 0 1-3.38 1.31 33.73 33.73 0 0 1-5.23 1.42c-1.18.22-2.4.4-3.6.38v-.03c1.2-.03 2.4-.21 3.58-.47a36.71 36.71 0 0 0 6.85-2.2c.56-.22 1.11-.45 1.65-.7a13.5 13.5 0 0 0 1.58-.82l.18.3zm2.5 5.9-.1-.08-.07-.08a.43.43 0 0 1-.08-.18l.04-.03c.05.04.1.05.16.06h.08l.06-.02-.08.33z"/>
            <polygon points="70.23 96.1 70.01 96.31 69.94 95.98 70.22 96.07"/>
            <path d="M71.99 96.7a.78.78 0 0 0 .02-.28l.03-.03c.09.05.18.12.28.2l-.33.12zm5.64-1.38c-.05-.03-.07-.05-.1-.09l-.08-.08a.43.43 0 0 1-.08-.18l.04-.03c.06.04.1.05.16.06h.08l.06-.02-.08.34zm7.63-8.29c-.83 1.06-1.8 2.01-2.82 2.87l-.38.31-.4.31-.8.6-.83.58-.42.26-.43.27a34.34 34.34 0 0 1-3.52 1.89l-.46.2c-.15.08-.3.14-.46.2-.15.08-.3.13-.46.2l-.47.19c-.62.23-1.25.46-1.9.63l-.01-.04c.64-.17 1.26-.4 1.88-.66l.46-.19.45-.2.46-.2.45-.22c1.2-.58 2.35-1.23 3.48-1.95l.42-.27.41-.28.82-.58.78-.6.39-.31.38-.33c1-.87 1.93-1.82 2.73-2.87l.25.2zm-13.4-1.9-.03-.13v-.11a.4.4 0 0 1 .06-.21h.03c.02.06.06.1.1.15a.2.2 0 0 0 .05.05c.02 0 .05.03.06.02l-.27.23z"/>
            <polygon points="60.65 80.4 60.33 80.42 60.48 80.11 60.67 80.36"/>
            <path d="M61.47 81.88a.73.73 0 0 0 .2-.22h.03c.05.1.08.21.1.34l-.33-.12zm4.49 2.48-.04-.12v-.12a.4.4 0 0 1 .06-.2h.04c.02.05.05.1.09.14a.2.2 0 0 0 .06.05c.02.01.04.03.06.02l-.27.23zm10.5-.8c-.6.07-1.19.09-1.77.09s-1.17-.02-1.75-.04c-.58-.02-1.16-.06-1.74-.1-.58-.04-1.16-.07-1.74-.15a23 23 0 0 1-5.07-1.3 8.96 8.96 0 0 1-1.55-.8l.02-.03a8 8 0 0 0 1.56.76 24.51 24.51 0 0 0 5.07 1.16c.56.05 1.14.09 1.72.12l1.74.06h1.74c.58 0 1.16-.03 1.7-.13l.07.35zm-6.65-4.53.02-.13.05-.1c.03-.07.1-.12.14-.15l.03.02.01.17.04.07c.01.03.02.05.05.05l-.34.07zm-7.13-8.85a.2.2 0 0 0-.06.14c-.01.04 0 .11.02.17l-.02.04a.36.36 0 0 1-.19-.14.84.84 0 0 1-.1-.24l.35.03zm.03 1.91a.58.58 0 0 1-.16.12.46.46 0 0 1-.23.04l.12-.32c.02.03.05.07.1.1l.15.04.02.02zm2.42 3.5c0-.06.02-.1.03-.13l.04-.1c.04-.08.1-.12.14-.16l.04.02c-.01.06 0 .12.01.18l.03.07c.02.02.03.04.05.04l-.34.07zm8.66 3.52-.21-.06-.2-.07c-.13-.04-.24-.1-.37-.15-.24-.1-.49-.23-.72-.35-.47-.24-.93-.5-1.38-.77-.45-.27-.9-.56-1.33-.85s-.88-.58-1.31-.9a26.96 26.96 0 0 1-4.6-4.29l.01-.02c.69.8 1.44 1.53 2.23 2.23a26.87 26.87 0 0 0 3.8 2.8l1.35.8a31.59 31.59 0 0 0 2.09 1.07l.36.14.17.06.17.05-.06.31zm17.53 24.17a.92.92 0 0 0-.1-.26l.01-.04c.1 0 .21.01.33.05l-.24.25z"/>
            <polygon points="89.88 103.7 89.84 103.98 89.58 103.76 89.84 103.68"/>
            <path d="M94.85 91.32c-.02.26-.03.52-.09.76l-.07.37-.08.36-.08.36-.1.36-.11.36-.12.36a46.86 46.86 0 0 1-2.8 6.84c-.12.22-.23.44-.36.65l-.2.31-.2.3-.03-.02.2-.3c.08-.1.13-.2.2-.31l.34-.65c.22-.44.42-.9.62-1.35.39-.9.75-1.82 1.07-2.75.34-.92.64-1.85.9-2.8l.11-.36.1-.36.09-.36.08-.36.07-.36.06-.36c.04-.24.04-.48.07-.72l.33.03zm-3.45 3.14-.13-.01-.12-.04a.46.46 0 0 1-.17-.12l.01-.03c.06 0 .12-.01.18-.04.02 0 .04-.02.06-.04l.05-.05.12.33z"/>
            <polygon points="83.86 103.98 83.78 104.28 83.53 104.04 83.83 103.95"/>
            <path d="M85.4 103.7a.8.8 0 0 0-.13-.26l.01-.04c.12-.01.22 0 .35.04l-.23.26zm3.46-4.01c-.06.01-.1 0-.13-.01l-.12-.04a.46.46 0 0 1-.17-.11l.01-.04c.06 0 .12-.01.17-.03l.07-.05c.02-.01.05-.03.05-.05l.12.33zm2.72-9.94c-.5 1.09-.95 2.21-1.41 3.34l-.69 1.68c-.23.56-.46 1.13-.72 1.67a34.13 34.13 0 0 1-1.69 3.23 18.28 18.28 0 0 1-2.16 2.92l-.02-.02c.8-.91 1.47-1.92 2.09-2.96.6-1.05 1.13-2.14 1.61-3.24.24-.54.45-1.11.67-1.68l.65-1.7c.44-1.12.86-2.26 1.35-3.38l.32.14z"/>
            <polygon points="76.44 101.56 76.31 101.81 76.14 101.5 76.43 101.53"/>
            <path d="M78.2 101.68c0-.09-.02-.18-.05-.27l.02-.03c.1.01.21.06.32.1l-.3.2zm5.22-3.8c-.06-.02-.07-.05-.1-.07l-.09-.08a.43.43 0 0 1-.1-.18l.03-.02.16.04c.03 0 .05 0 .07-.02.03 0 .05 0 .06-.02l-.03.35zm3.81-8.06-.38.83-.44.8-.49.77-.52.74a37.84 37.84 0 0 1-6.14 6.6l-.34.3-.36.27-.38.27-.38.23-.01-.04.38-.24.36-.27.35-.28.35-.29a43.55 43.55 0 0 0 3.76-3.86c.77-.91 1.52-1.85 2.19-2.84l.5-.74.46-.77.42-.79c.13-.26.23-.54.36-.8l.31.1z"/>
          </g>
          <path d="M93.96 92.29s-1.58-1.16-2.2-2.7c-.25 1.38-1.87 2.86-1.87 2.86s-2-1.57-1.83-3.51c-.94 1.16-2.61 2.04-2.61 2.04s-1.37-1.27-1.13-3.5c-1.2 1.18-2.93 1.88-2.93 1.88s-1.13-1.48-.32-3.99c-1.75 1.98-3.92 1.26-3.92 1.26s-.28-2.14.62-3.29c-1.44.98-3.53.25-3.53.25s.27-1.94 1.61-2.88c-3.1-.49-4.96-3.05-4.18-6.2.45.84.87 1.73 2.47 2.56 2.83 1.45 5.89.42 8.2 1.83 1.35.82 2.14 2.15 3.25 3.2.73.71 1.93 1.43 2.94 1.52 1.42.14 2.79-.35 4.18-.48 1.42-.14 1.7.46 2.94.89"/>
          <g stroke="none" fill="#000">
            <path d="M77.81 79.39c.4-.08.82-.07 1.22.02.4.08.8.25 1.15.45.17.1.35.21.51.33.16.11.34.22.49.38.07.08.15.16.2.26l.13.28c.09.18.15.35.3.5-.2-.08-.33-.26-.45-.41-.11-.16-.22-.32-.37-.42-.14-.12-.31-.2-.49-.3l-.5-.3a6.08 6.08 0 0 0-2.19-.8zm15.43 7.8a2.72 2.72 0 0 1 .78 1.94 1.6 1.6 0 0 1-.19.69c0-.25-.04-.46-.08-.68-.03-.22-.1-.43-.15-.63-.06-.21-.11-.43-.18-.64l-.18-.69zm-3.1-.2c.1.2.17.41.21.63a3.01 3.01 0 0 1-.03 1.3c-.05.21-.12.42-.23.62-.04-.22-.04-.43-.04-.64v-.63a11.3 11.3 0 0 1 .1-1.27zm-3.44-.56c-.04.2-.07.4-.12.58l-.16.56-.18.53-.1.27c-.03.09-.06.17-.07.28a.66.66 0 0 1-.09-.3v-.32c.02-.2.06-.4.13-.6.06-.18.14-.36.24-.54.07-.16.19-.32.35-.46zm-2.82-1.33a7.68 7.68 0 0 1-.7 1.19 8.44 8.44 0 0 1-.41.56c-.14.18-.3.36-.46.53.04-.24.12-.46.22-.68.1-.21.23-.42.35-.62.13-.2.28-.38.44-.56.17-.15.34-.3.56-.42zm-4.9-3.89c-.2.1-.39.16-.57.24l-.55.22-.55.24c-.18.08-.37.16-.58.23.12-.19.27-.34.45-.47a2.68 2.68 0 0 1 1.17-.47c.2-.04.41-.04.62.01zm1.97 2.28-.62.38c-.2.12-.4.24-.58.38l-.29.2-.3.2c-.21.12-.43.23-.66.32.15-.2.32-.37.5-.55l.26-.24.3-.22c.2-.14.42-.26.65-.34.24-.08.48-.13.74-.13z"/>
            <polygon points="75.81 80.56 77 80.35 75.91 80.9"/>
            <polygon points="77.66 83.22 78.74 82.6 77.87 83.49"/>
            <polygon points="80.93 85.27 82.04 84.21 81.2 85.49"/>
            <polygon points="84.17 87.39 84.84 86.74 84.46 87.59"/>
            <polygon points="87.89 88.87 88.4 88.05 88.21 88.99"/>
            <polygon points="91.57 89.6 91.76 88.36 91.92 89.6"/>
          </g>
        </g>
        <g>
          <path d="M124.62 82.64c6.61-1.88 13.66-5.57 15.18-7.2.41-.42-.05-.24-.47-.03a53.5 53.5 0 0 1-13.5 5.92m-18.71 11.5c1.7 5.71 4.47 10.78 5.76 11.36.17-.01-.03-.19-.13-.34-.09-.15-.17-.2-.4-.5-2.23-3.02-4.5-10.7-4.53-11.02m-4.93-2.78c.17 5.31 2 11.28 3.16 12.11.18.04.01-.24.01-.24l-.28-.5c-1.5-3.12-2.11-11.31-2.04-11.6m17.48-3.83c7.36 1.7 14.22 1.8 16.36 1.09.57-.19.09-.28-.37-.29-4.27.34-9.96-.25-14.3-1.3m-12.01 6.8c2.68 5.37 6.5 9.86 8.02 10.16.26-.05-.1-.23-.27-.4-3.02-2.17-6.94-10.07-7.02-10.4m5.07-3.85c6.24 4.08 13.96 6.86 15.98 6.98.6.04.1-.18-.29-.31-4.06-1.3-12.05-5.03-15.62-7.63m-4.08 2.41c4.24 4.54 10.51 9.67 12.44 10.3.57.19.14-.15-.2-.37-3.62-2.26-9.11-7.44-11.93-10.84"/>
          <path d="M114.09 88.41c.37.9 1.78 3.87 4.37 6.87 1.26 1.47 5.35 5.02 5.64 5.55.16.29.07.58-.37.8-.2.41-1.51.26-2.1-.04-1.02.14-4.36-2.6-5.08-3.87-.75-.05-3.03-2.2-3.28-3.48-1.72-1.55-1.92-4.13-1.99-4.4m-2.48-4.1 1.28 3.76c.35.89 1.14 2.9 1.39 3.47.39.93.59 1.51 1.62 4.09 1.38 3.4 3.66 5.74 3.8 6.41.09.37-.1.6-.62.67-.34.37-1.31 0-1.82-.54-1.1-.23-2.94-2.4-3.27-4.06-.92-.4-2.79-4.18-2.56-5.21-1.12-1.45-1.55-3.6-1.68-4.4l-.67-3.6m.61 4.86c.2 1.56.55 3.66 1.24 5.46.78 2.16 2.73 5.8 2.79 6.7.02.33-.18.5-.67.54-.36.29-1.32-.2-1.72-.71-1-.29-2.92-4.33-3.03-5.79m18.36-19.23s3.6-1.28 7.23-4.04c1.32-.94 4.93-4.22 5.58-4.45.36-.13.6 0 .77.52.41.27.58 1.33.1 1.91-.06 1.12-1.29 2.83-2.89 3.41-.25.96-3.47 3.36-4.68 3.48-2.08 2.74-5.71 2.83-5.71 2.83"/>
          <path d="M123.76 81.87s2.79-.29 3.6-.35c1-.07 2.21-.22 4.64-.45 4-.57 6.41-1.74 7.08-1.65.38.05.52.3.42.82.23.44-.5 1.35-1.18 1.67-.58.97-2.8 2.54-4.46 2.33-.68.74-5 1.53-5.93.77-2.75 1.58-6.37.2-6.37.2m-4.34 1.49s.95 1.18 2.2 2.33a20.22 20.22 0 0 0 4.1 3.1c1.82 1.02 6.13 2.71 6.59 3.17.24.26.2.51-.18.86-.08.47-1.46.65-2.16.49-1.42.27-4.4-.38-5.5-1.5-.94.17-4.33-1.7-4.83-3.26-2.54-.62-4.5-5.05-4.5-5.05"/>
          <path d="M120.88 84.71s3.8 1.56 4.56 1.8c4.83 1.59 9.72 2.45 10.32 2.8.32.2.36.46.05.91.05.5-1.02.98-1.76.99-.93.66-4.58.53-6.02-.34-.92.4-4.12-.35-4.65-1.41-3.15.35-5.82-2.42-5.82-2.42"/>
          <g stroke="none" fill="#000">
            <path d="M123.3 89.32c0 .01.04 0 .07 0l.08-.03.15-.09.03.01c0 .07 0 .14-.03.21l-.05.1c-.02.04-.03.08-.08.11l-.17-.31z"/>
            <polygon points="135.54 90.25 135.8 90.07 135.81 90.42 135.54 90.28"/>
            <path d="M133.84 91.23c.06-.1.13-.2.22-.26h.04c0 .11.05.2.1.29l-.36-.03zm-5.93-.5c.02.01.05 0 .07 0 .03 0 .05 0 .08-.02l.16-.1.03.02c0 .07-.01.14-.03.2l-.05.11c-.02.04-.04.07-.08.1l-.18-.3zm-7.77-4.88c.49.31 1.03.57 1.58.82a50.26 50.26 0 0 0 5.02 1.96c1.15.37 2.3.69 3.48.94 1.17.25 2.37.44 3.58.47v.03c-1.21.01-2.42-.16-3.6-.38a36.94 36.94 0 0 1-5.23-1.42 42.16 42.16 0 0 1-5.01-2.12l.18-.3zm-2.76 5.86s.04 0 .06.02h.08a.3.3 0 0 0 .16-.06l.04.03a.43.43 0 0 1-.08.18.5.5 0 0 1-.07.08l-.1.08-.09-.33z"/>
            <polygon points="129.71 96.07 129.99 95.98 129.92 96.31 129.7 96.1"/>
            <path d="M127.6 96.6a.94.94 0 0 1 .28-.2l.02.02c0 .1 0 .2.03.29l-.33-.12zm-5.37-1.62.06.02h.08a.3.3 0 0 0 .16-.06l.04.03a.43.43 0 0 1-.08.18.5.5 0 0 1-.07.08l-.1.09-.09-.34zm-7.3-8.17c.8 1.05 1.73 2 2.73 2.88l.38.32.39.32.78.6.82.58.41.28.42.27c1.11.71 2.29 1.36 3.48 1.94l.45.22.46.21.45.2.46.19c.62.24 1.24.48 1.88.66l-.01.03c-.65-.16-1.28-.38-1.9-.62l-.47-.19-.46-.2c-.15-.07-.31-.12-.46-.2l-.46-.2a34.34 34.34 0 0 1-3.52-1.9l-.43-.26c-.14-.1-.3-.17-.42-.27l-.84-.57-.8-.6-.39-.31-.38-.32a19.95 19.95 0 0 1-2.82-2.86l.25-.2zm12.87-1.91c.01.01.03-.01.06-.02s.04-.04.05-.05c.04-.04.07-.1.1-.15h.03c.04.06.05.13.06.2V85c-.01.05-.01.07-.04.13l-.26-.23z"/>
            <polygon points="139.26 80.36 139.44 80.11 139.6 80.42 139.28 80.4"/>
            <path d="M138.13 82c.02-.13.05-.23.1-.34h.03c.06.1.13.16.2.22l-.33.12zm-4.43 2.14c.01.02.04 0 .06-.02l.06-.05.1-.15h.03c.03.06.04.13.05.21v.12c0 .05 0 .07-.03.13l-.27-.24zm-10.17-.94c.56.1 1.14.12 1.7.13a43.5 43.5 0 0 0 3.48-.06c.58-.03 1.16-.05 1.73-.12a22.92 22.92 0 0 0 5.07-1.16c.55-.21 1.08-.44 1.56-.76l.02.04c-.48.33-1.01.58-1.55.8a22.7 22.7 0 0 1-5.07 1.29c-.58.08-1.16.11-1.74.16l-1.74.1c-.58.01-1.16.03-1.76.03-.58 0-1.17-.02-1.76-.1l.06-.35zm6.25-4.25.05-.05.03-.07c.01-.04.03-.11.01-.17l.04-.03c.06.04.1.1.14.16l.04.1c.02.03.03.07.03.13l-.34-.07zm7.8-8.8c-.01.07-.04.17-.1.23a.36.36 0 0 1-.18.13l-.02-.03a.23.23 0 0 0 .02-.17c-.01-.06-.04-.1-.06-.14l.35-.03zm-.35 1.9c.06 0 .11-.02.15-.04.05-.02.08-.06.1-.1l.12.33a.49.49 0 0 1-.23-.04.82.82 0 0 1-.16-.12l.02-.02zm-2.77 3.46.04-.04.04-.07c0-.05.02-.12 0-.18l.04-.02c.06.04.1.1.14.15l.05.1.02.13-.33-.07zm-8.39 3.25.16-.04.18-.06.36-.14a22.66 22.66 0 0 0 2.09-1.07c.45-.25.9-.53 1.34-.81a25.82 25.82 0 0 0 3.8-2.8c.8-.7 1.55-1.42 2.23-2.22l.02.02c-.66.81-1.4 1.58-2.16 2.28a28.68 28.68 0 0 1-2.44 2.01c-.43.31-.87.6-1.31.9l-1.34.84c-.45.27-.9.54-1.38.78a8.2 8.2 0 0 1-1.28.57l-.21.06-.06-.32zm-17.7 24.27c.11-.04.22-.05.32-.05l.01.04a.73.73 0 0 0-.09.26l-.24-.25z"/>
            <polygon points="110.08 103.68 110.35 103.76 110.08 103.98 110.05 103.7"/>
            <path d="M105.42 91.31c.02.24.02.48.07.72l.06.36.07.36.08.36.1.36.09.36.1.36c.27.94.57 1.88.9 2.8.34.94.7 1.85 1.08 2.76.2.45.4.9.62 1.34.11.22.22.44.35.65.05.1.11.22.18.31l.21.3-.02.03-.21-.3-.2-.32c-.13-.2-.24-.42-.36-.64a35.12 35.12 0 0 1-1.82-4.05c-.36-.92-.7-1.86-.99-2.8l-.11-.36-.1-.36-.11-.36-.08-.36-.08-.36-.07-.37c-.06-.24-.07-.5-.1-.75l.34-.04zm3.24 2.82.04.05.07.04c.05.03.1.04.18.04l.01.03c-.05.05-.1.1-.17.12l-.12.04h-.13l.12-.32z"/>
            <polygon points="116.09 103.95 116.4 104.04 116.15 104.28 116.07 103.98"/>
            <path d="M114.3 103.44a.9.9 0 0 1 .34-.04l.02.04a.8.8 0 0 0-.13.26l-.23-.26zm-3.1-4.08c0 .02.02.04.04.05l.07.05c.05.02.1.03.18.03l.01.04c-.05.04-.1.09-.17.11l-.12.04h-.13l.12-.32zm-2.54-9.76c.49 1.12.9 2.25 1.34 3.38l.65 1.7c.22.57.43 1.12.68 1.68.48 1.1 1 2.2 1.6 3.24.61 1.04 1.28 2.05 2.1 2.95l-.03.03c-.82-.9-1.52-1.9-2.15-2.93a32.77 32.77 0 0 1-1.7-3.22c-.25-.56-.49-1.11-.72-1.67l-.68-1.68c-.47-1.12-.92-2.25-1.42-3.34l.33-.14z"/>
            <polygon points="123.49 101.53 123.78 101.5 123.62 101.81 123.48 101.56"/>
            <path d="M121.44 101.49c.1-.06.21-.1.31-.1l.03.02a.78.78 0 0 0-.05.27l-.29-.2zm-4.98-3.96.06.02.07.02c.05 0 .1-.02.16-.04l.03.02c-.03.06-.05.12-.1.18-.02.02-.04.06-.08.08-.03.02-.05.05-.1.07l-.04-.35zm-3.44-7.84.36.81.42.79.46.77.5.74a40.23 40.23 0 0 0 5.95 6.7l.35.3.35.27.36.27.38.24-.01.04-.39-.24-.37-.26c-.12-.08-.23-.19-.36-.28l-.34-.3c-.47-.37-.9-.78-1.35-1.2a37.55 37.55 0 0 1-4.8-5.4l-.51-.73-.49-.77-.44-.8c-.14-.28-.26-.56-.38-.83l.31-.12z"/>
          </g>
          <path d="M105.97 92.29s1.57-1.16 2.2-2.7c.24 1.38 1.87 2.86 1.87 2.86s2-1.57 1.83-3.51c.94 1.16 2.61 2.04 2.61 2.04s1.37-1.27 1.13-3.5c1.2 1.18 2.93 1.88 2.93 1.88s1.13-1.48.31-3.99c1.76 1.98 3.93 1.26 3.93 1.26s.27-2.14-.62-3.29c1.44.98 3.53.25 3.53.25s-.27-1.94-1.62-2.88c3.1-.49 4.97-3.05 4.2-6.2-.46.84-.88 1.73-2.48 2.56-2.83 1.45-5.9.42-8.21 1.83-1.35.82-2.14 2.15-3.24 3.2a5.56 5.56 0 0 1-2.94 1.52c-1.42.14-2.79-.35-4.18-.48-1.43-.14-1.7.46-2.95.89"/>
          <g stroke="none" fill="#000">
            <path d="M122.11 79.39a5.7 5.7 0 0 0-2.2.77l-.5.3-.49.3c-.14.1-.25.25-.37.41s-.25.34-.45.41c.15-.14.23-.31.3-.5l.14-.28a2.43 2.43 0 0 1 .68-.64l.52-.32a3.37 3.37 0 0 1 2.38-.45zm-15.42 7.8c-.05.23-.12.45-.18.67l-.18.63c-.06.21-.1.43-.15.64-.04.22-.07.43-.09.68-.12-.21-.17-.46-.18-.7a2.72 2.72 0 0 1 .78-1.93zm3.1-.2a6.3 6.3 0 0 1 .09 1.27v.63c0 .2-.02.42-.04.64a2.1 2.1 0 0 1-.23-.62c-.05-.2-.07-.43-.08-.65 0-.22.01-.43.04-.65.05-.2.1-.41.21-.61zm3.44-.56c.16.14.28.3.37.48a3.14 3.14 0 0 1 .37 1.14v.3a.7.7 0 0 1-.1.3.98.98 0 0 0-.06-.27l-.1-.27-.18-.53c-.06-.19-.12-.36-.16-.56-.07-.2-.1-.38-.14-.59zm2.82-1.33c.2.11.4.27.55.45s.32.36.44.55c.13.2.25.4.35.62.1.2.19.44.22.68a9.22 9.22 0 0 1-.45-.53c-.14-.19-.28-.37-.4-.56a9.87 9.87 0 0 1-.38-.58l-.33-.63zm4.9-3.89a2.3 2.3 0 0 1 1.25.14c.2.08.39.18.56.31s.33.28.44.47c-.2-.07-.39-.15-.58-.24l-.54-.23-.55-.22-.58-.23zm-1.97 2.28c.26 0 .5.05.73.13.23.08.47.2.66.34l.3.22c.09.08.18.15.26.24.17.17.35.34.5.55a3.5 3.5 0 0 1-.96-.52l-.3-.2c-.18-.14-.38-.26-.57-.38l-.62-.38z"/>
            <polygon points="124.02 80.9 122.93 80.35 124.12 80.56"/>
            <polygon points="122.06 83.49 121.19 82.6 122.26 83.22"/>
            <polygon points="118.73 85.49 117.89 84.21 118.99 85.27"/>
            <polygon points="115.47 87.59 115.08 86.74 115.76 87.39"/>
            <polygon points="111.72 88.99 111.52 88.05 112.03 88.87"/>
            <polygon points="108.01 89.6 108.17 88.36 108.36 89.6"/>
          </g>
        </g>
      </g>
      <g>
        <path d="M92.75 94.46c-.47-7.07 2.93-11.55 3.4-14.14.27-.99.1-3.04-.12-3.53a2.8 2.8 0 0 1-1.1-2.13c.3.04 1.25.07 1.26-.12.31-.7-.51-1.67-1.72-2.04h.01c.35-.34.23-.83 0-1.2-.18-.25-.41-.46-.58-.5.1-.29.78-1.23 1.6-1.6a4.78 4.78 0 0 1 2.45-.62c.98 0 2.12.17 2.97.62 2.22 1.3 3.46 3.73 3.75 6.51.6 1.72.5 4.01.64 5.46.32 5.04 1.92 8.76 1.92 13.3 0 6.66-4.9 12.47-4.9 19.86 0 5.41 3.6 7.47 6.48 9.99-.78.48-2.5.62-3.84.16 0 0 .85 2.72.51 4.15a6.83 6.83 0 0 1-3.7-1.66 9.43 9.43 0 0 1-1.75 4.24 9.44 9.44 0 0 1-1.79-4.24 6.92 6.92 0 0 1-3.7 1.66c-.34-1.43.51-4.15.51-4.15-1.34.46-3.06.31-3.84-.16 2.88-2.52 6.49-4.58 6.49-10-.04-7.38-4.9-13.2-4.95-19.86z"/>
        <g stroke="none" fill="#000">
          <path d="M104.85 124.62a7.49 7.49 0 0 1-1.44-1.77 9 9 0 0 1-.88-2.06c.27.7.6 1.37 1.04 1.97.42.6.94 1.15 1.52 1.59l-.24.27zm-3.26 2.4a12.1 12.1 0 0 1-.23-3.35c.06 1.1.2 2.22.56 3.26l-.33.09zm-6.68-2.68a7.33 7.33 0 0 0 1.52-1.6c.43-.6.77-1.27 1.03-1.96a9 9 0 0 1-.88 2.06 7.49 7.49 0 0 1-1.44 1.77l-.23-.27zm3.15 2.59c.36-1.04.5-2.15.55-3.26.06 1.1.04 2.23-.23 3.35l-.32-.1z"/>
        </g>
      </g>
    </g>
    <g>
      <g>
        <path class="secondary" stroke-linejoin="round" d="M91.27 73.47c-.79.13-1.45.27-2.15.64a5.5 5.5 0 0 1 3.45-2.4c-.24-.67.8-1.01 1.33-.92.17.05.4.25.57.5.24.37.36.86 0 1.2 1.2.37 2.03 1.34 1.72 2.04-.01.18-.95.17-1.27.11-.92-.1-1.34-.2-2.07-.45-.58-.16-1.37-.4-1.58-.72z"/>
        <path fill="#f6f6f6" d="M96.76 72.74c.41.3 1.04.36 1.5.02.41-.29.74-.74.53-1.26-.2-.49-1.26-.9-1.82-.46-.23.16-.63.54-.67.8-.05.4.19.7.46.9z"/>
        <g stroke="none" fill="#000">
          <path d="m98.16 77.2.13.2c.03.05.06.1.07.16l.04.17.04.23a.37.37 0 0 1-.26-.07.48.48 0 0 1-.17-.46.3.3 0 0 1 .15-.23zm1.2-.51a.54.54 0 0 1 .17.68.32.32 0 0 1-.19.19l-.08-.24-.02-.2.02-.2c.01-.07.05-.14.1-.23zm1-.48c.09.07.13.16.17.26a.8.8 0 0 1 0 .55.53.53 0 0 1-.17.26c-.05-.1-.08-.19-.1-.28-.02-.1-.02-.18-.02-.26 0-.08 0-.17.02-.25.02-.1.05-.18.1-.28zm.89-1.02c.1.07.17.16.22.25.05.1.09.2.1.3.02.11.02.21.01.32a.6.6 0 0 1-.13.31 1.4 1.4 0 0 1-.15-.29l-.08-.28-.03-.29c0-.1.02-.2.06-.32zm.54-.85c.1 0 .19.05.26.1a.56.56 0 0 1 .25.4c.01.08.01.18-.03.27a.6.6 0 0 1-.21-.15c-.06-.06-.1-.1-.14-.17a1.03 1.03 0 0 1-.1-.2.57.57 0 0 1-.03-.25zm-.08-1.82c.12 0 .22.05.3.1a.8.8 0 0 1 .21.24c.05.09.08.18.1.29 0 .1 0 .2-.07.31-.09-.08-.15-.15-.2-.22l-.13-.2-.12-.24a1.11 1.11 0 0 1-.09-.28zm-4.76 4.65a1.09 1.09 0 0 1 .35.34 1.03 1.03 0 0 1 .15.45c-.1 0-.2-.03-.26-.08a.7.7 0 0 1-.19-.19.56.56 0 0 1-.1-.24c0-.1 0-.18.05-.28z"/>
        </g>
        <path fill="none" d="M92.56 71.7s.35-.04.95.18c.25.1.66.37.95.6m-3.19 1c.5-.09 1-.12 1.5-.1.5.02 1.12.03 2.03.3"/>
        <g stroke="none" fill="#000">
          <path d="M97.44 72.42c.1-.08.02-.22 0-.3a.9.9 0 0 1-.02-.4c0-.12.04-.24-.01-.35l-.04-.03c-.08-.03-.23.07-.28.13-.07.08-.09.23-.11.33-.03.14-.03.3.04.43s.21.23.36.21l.06-.02zm-2.6 1.09c.1.02.19.06.28.09.1.03.19.07.27.12l.14.05c.04.03.1.05.14.09.04.03.09.06.12.11l.05.1c.01.03.01.08-.02.1l-.04-.01c-.03-.03-.07-.04-.1-.05-.04-.01-.08-.02-.12-.05l-.13-.03-.14-.04-.27-.07-.27-.08.1-.33z"/>
        </g>
        <path fill="none" d="M96.56 71.43c-.74.67-1.33.72-2.09-.13"/>
        <g stroke="none" fill="#000">
          <path d="M96.86 70.9c.14-.12.31-.21.5-.26.19-.04.37-.07.54-.07l.52.03c.08 0 .16 0 .24-.02.08 0 .15-.03.25-.02-.04.08-.14.12-.22.15-.08.04-.17.05-.25.07-.18.04-.35.05-.51.07-.16.02-.32.06-.45.12-.14.05-.27.12-.41.2l-.2-.26z"/>
        </g>
      </g>
    </g>
  </g>
</svg>
