<svg xmlns="http://www.w3.org/2000/svg" fill="#d7374a" stroke="#000" viewBox="50 50 200 200">
  <metadata source="http://wappenwiki.org" license="https://creativecommons.org/licenses/by-nc-sa/3.0"/>
  <g id="dragonPassant" stroke-width=".38">
    <path class="secondary" d="M115.36 62.9c.72-.2.53-1 1.83-1.27-.02-.1-1.09-.94-2.34.17M95.98 82.96c-.5.3-1.2-.08-2 .57.06-1.6 1.41-1.8 1.41-1.8m22.1 11.91c.44.32 1.05.2 1.76.9-.05-1.46-1.3-1.73-1.3-1.73"/>
    <path d="M99.74 89.25c-.46-2.45-1.6-4.85-3.84-6.26.02-.85-.5-1.28-.5-1.28 1.05-3.76 4.62-7.97 7.17-10.66 5.82-6.29 10.9-8.89 12.37-9.3.11.24.14.94.45 1.15h-.02c-.48 1.13-.02 5.61 2.05 7.45"/>
    <path fill="none" d="M101.56 91.7c-.03-1.99-.44-5.85-3.12-8.97a1.9 1.9 0 01-.29-2.04"/>
    <path class="secondary" d="M112.22 130.03c.2.95-.1 1.72-.28 2.13-.4.87-.5.38-.5.32-.05-.5-.04-.94-.32-1.4-.21-.42-.6-.72-1.07-.82-2.1.5-2.27-3.47.77-2.3-.02 0 .98.42 1.4 2.07zm-15.02-4.25c-.7.67-.9 1.48-.98 1.93-.17.94.2.6.25.55.3-.37.55-.76 1.03-.96.6-.29 1-.2 1.35-.07.13.05.32.27.32.35 1.62.56 3.25-1.97.38-2.72 0 .02-1.07-.2-2.35.93z"/>
    <path d="M106.63 126.85a5.42 5.42 0 00-2.59-.49c-.37.2-1.09.07-1.54-.12-.6-.25-1.22-.74-1.3-1.03-.1-.48-.48-.7-.9-.77-.4-.08-.63-.03-.77.11s-.23.26-.24.28c.2.36.78 1.55-.24 2.58.02.28.22.48.43.6.37.2.91.13 1.12-.02.23-.15.15-.24.33-.36a.33.33 0 01.27-.07c.13.03.23.13.32.3.08.16.24.27.43.34"/>
    <path class="secondary" d="M97.1 131.2c-.23.7-.23 1.46 0 2.16.27.92.45.44.47.4.1-.48.15-.93.5-1.33.38-.52.8-.64 1.17-.68.13 0 .41.06.44.14 1.04.75 1.49-3-.88-2.55-.02 0-1.07.27-1.7 1.86zm4.96 4.54c.56.8 1.32 1.1 1.76 1.25.9.3.62-.13.58-.16-.32-.37-.67-.65-.8-1.18a1.5 1.5 0 01.13-1.34c1.74-1.25-.97-4-2.23-1.02 0 .01-.38 1.02.55 2.45z"/>
    <path d="M108.63 102.48c-.78.7-1.8.97-2.2 2.68-.66 1.33-2.69 2.5-2.56 4.67-.2 1.26-1.55 2.55-.7 4.3.22 1.92 2.42 2.2 3.2 2.88 1.22.88 1.82 1.53 2.97 1.1-.2.62-.09.18-.62 1.04-.04.06-.7 1-1.03 1.66-.3.63-.6 1.2-.9 1.73-.29.54-1.3 2.12-1.89 3.5-.03.1-.42.72-.57 1.07-.1.18-.36.37-.4.4-.05.03-.24.15-.35.15-1.1-.15-1.5.3-1.84.67-.34.36-.87.2-1.1.17h-.16c-.14 0-.4.1-.46.14-.09.1-.15.05-.24.04 0 0-.36-.34-.8-.22a1 1 0 00-.53.42c-.17.28-.03.47-.03.47.25.2 1.4 1.23 1.16 2.36.07.33.62.35.84.3.1-.05.2-.08.3-.15.56-.38.37-.93.37-.93.1-.3.57-.2.8-.35l.06-.07c.04-.03.08-.1.12-.18.08-.18.18-.38.42-.55.26-.2.03-.24.54-.22.1.02.42-.15.52-.2.08-.06.2-.33.44-.36-.04.04-.29.9-.85 1.46l-.04.05s0 .02-.02.02c-.1.03-.2.07-.29.13-.46.21-.47.82-.72 1.07 0 0-.2.06-.5.23-.25.17-.42.52-.52.9-.07.6 0 .85.33 1 .15-.12.21-.18.35-.27.46-.29.9-.36 1.24-.2.43.16.82.62.9.81.18.01.33.08.7-.15.22-.12.45-.8.3-1.2-.07-.19-.2-.22-.23-.29-.04-.06-.06-.28-.12-.55-.1-.35.2-.66.47-.9.13-.12.25-.23.28-.3.1-.25-.17-.86.47-1.25.8.11.88-.48 1.38-.18.38.17.43.13.71-.02.45-.08.45.18.55.45.1.3.05.45.62.68.58.22.7.01.84-.19a.52.52 0 00.1-.15c-.06-.17-.22-.82.25-1.46.2-.26.5-.48.85-.65a.15.15 0 00.06-.06c.08-.1.04-.27-.03-.44-.08-.2-.38-.33-.7-.36-.78-.12-.9.15-.98.25l-.02.02c-.14.18-.33.1-.45.05-.17-.06-.35-.14-.64 0-.43.18-.44 0-.73-.04.5-1.26 2.72-4.23 3.7-5.3.97-1.08 1.75-2.12 2.93-2.4 1.41-.36 1.45-.9 1.72-1.4.5-.9.42-1.32.03-1.92-.5-.79-2.03-1.45-2.15-2.05-.66-3.2 3.81-2.7 2.34-7.9"/>
    <path class="secondary" d="M106.355,113.65C106.76,113.83 107.26,114.45 107.3,114.745 107.68,114.74 108.07,115.36 108.55,115.89 109.25,116.63 109.5,117.45 109.335,118.12 108.19,118.54 107.59,117.89 106.37,117.01 105.59,116.33 103.39,116.05 103.17,114.13 102.32,112.38 103.67,111.09 103.87,109.83L109.49,106.55C109.36,108.191 108.561,109.706 107.285,110.745 107.49,111.4 107.1,113.23 106.355,113.65z"/>
    <path fill="none" d="M107.28 110.74a5.99 5.99 0 002.21-4.19m-2.2 4.2c.2.65-.19 2.48-.94 2.9m.93-2.9c-.78-.86-2.8-1.07-3.4-.9m2.48 3.8c-1 .44-2.1.61-3.2.5m3.2-.5c.4.18.9.8.94 1.1.07.6-.15 1.71-.9 2.28m.9-2.29c.38 0 .77.62 1.25 1.15.7.74.95 1.56.78 2.24"/>
    <path class="secondary" d="M61.23 105.38a3.4 3.4 0 01-1.89-1.05c-.66-.7-.16-.62-.1-.6.46.13.9.32 1.4.22.64-.09.95-.39 1.16-.69.08-.1.1-.4.07-.46 2.02-.8 3.76-.06 1.83 2.03-.02 0-.77.78-2.47.55zm10.15-13.53a3.5 3.5 0 00-1.29-1.72c-.77-.57-.62-.08-.6-.03.2.44.45.83.41 1.36 0 .65-.25 1-.52 1.24-.1.1-.38.16-.45.13-.02 1.41.67 3.28 2.25 1.55 0-.03.66-.88.2-2.53z"/>
    <path d="M66.88 99.1c.36-.2 1-.95 1-1.36-.04-.43.4-1 .77-1.33.5-.43 1.2-.77 1.5-.72.47.12.83-.14 1.08-.48.25-.33.3-.56.24-.73l-.14-.34c-.4.01-1.74.01-2.2-1.35a.75.75 0 00-.73.12c-.35.25-.5.77-.47 1.03.04.26.15.24.2.45.01.11 0 .21-.08.3-.07.1-.2.14-.4.14-.67.02-1.16 1.26-1.3 1.75"/>
    <path class="secondary" d="M66.22 90.15a3.5 3.5 0 00-1.97-.9c-.93-.14-.58.23-.53.25.38.3.78.53 1 1 .3.58.25 1 .12 1.34a.7.7 0 01-.34.32c-.47 1.72 2.1 3.15 2.72.28 0 .01.18-1.06-1-2.29zm-6.82 3.73c-.93.23-1.5.82-1.8 1.17-.62.73-.12.63-.07.6.45-.17.86-.39 1.4-.3.64.03.96.3 1.2.6.07.1.12.4.1.45 2.04.67 3.68-.12 1.7-2.15-.05 0-.86-.72-2.53-.37z"/>
    <path d="M78.9 103.48c-1.7 1.28-3.33 4.66-4.05 4.56-1.25-.18-1.85-1.89-2.82-2.69-2-1.64-3.3-3.3-4.3-5.1-.3-.6-.56-.95-.74-1.27-.19-.4-.34-1.23-.35-1.28 0-.06.01-.12.05-.22.6-.95.35-1.5.16-1.95-.18-.45.17-.9.3-1.08l.1-.14c.04-.12.07-.4.05-.48v-.09a.12.12 0 01.08-.14c.01 0 .45-.2.52-.66a.98.98 0 00-.16-.64c-.19-.27-.42-.24-.42-.24-.28.15-1.7.77-2.63.08-.32-.06-.57.42-.6.64v.33c.1.68.68.74.7.74l.08.06v.1s-.13.4-.08.7l.03.1.12.17c.13.15.28.32.33.6.05.33-.03.7-.27 1.17-.05.1-.06.18-.05.3.02.08.33.66.17.9a.76.76 0 01-.18.15 3.62 3.62 0 01-1.04-1.32l-.02-.07v-.32a1.1 1.1 0 00-.68-.9.17.17 0 01-.08-.08l-.02-.02c0-.03 0-.05.02-.08 0 0 0-.2-.05-.55-.05-.3-.32-.58-.64-.8-.54-.3-.79-.33-1.05-.07.06.2.1.26.12.42.1.54.02.95-.25 1.24-.29.3-.67.49-1.08.54-.08.16-.2.3-.12.7.04.25.6.71 1 .74.2 0 .28-.1.35-.12.08 0 .3.05.57.1.36.04.53.43.66.77.05.15.11.3.17.36.2.2.88.45 1 1.17-.24.5-.36 1.04-.36 1.58l.01.1v.02c-.08.44-.32.37-.62.34-.3 0-.44-.1-.85.34-.43.45-.26.64-.14.85l.11.14c.2 0 .85.1 1.27.78.16.28.26.63.3 1.03 0 .02 0 .05.03.1.07.1.24.11.43.11.21 0 .44-.22.6-.5.4-.69.2-.9.12-1-.1-.2 0-.32.1-.47a.7.7 0 00.25-.6c.02-.18.05-.38.15-.54 1.1 1.14.74 2.1 1.47 2.7 0 .01.97.94 1.25 1.5.33 1.1 1.73 2.24 2.66 3.44 2.2 2.83 2.71 4.88 2.8 4.86.31.35.75.87 1.95 1.02 1.16.03.96-.73 1.46-1.22 1.4-1.36 1.23-1.18 3.7-2.68 1.65-1 2.25-3.7 2.9-3.73m1.16-34.52c1-2.12 2.7-3.46 4.52-4.5 2.36-1.33 3.12-2.45 3.12-2.45s-.56 1.37-.62 2.33c-.1 1.3.2 1.96.56 2.8"/>
    <path class="tertiary" d="M73.36 80.1c-.68.15-1.33.35-2 .47a6.96 6.96 0 01-4.28-.75c.6-.17 1.22-.32 1.71-.68-2.07-.24-3.8-1.6-5.47-3.4-.23 1.83 1.06 5.33 2.17 6.5.52-1.05-.52-.8.18-1.89a7.21 7.21 0 005.65 1.4c.67-.13 1.32-.36 1.98-.53 2.92-.74 6.12-.27 8.7 1.28l-.02-.85a11.5 11.5 0 00-8.63-1.55z"/>
    <path fill="#f6f6f6" d="M76.53 78.21c.27.4.66.73 1.1.93 0-.45.17-.9.47-1.24m-3.4.25c.22.46.48 1.1.94 1.3.15-.42.16-.85.31-1.26m-2.89-.45c-.03.56.23 1.29.51 1.58.15-.39.28-.92.43-1.26m-3-.85c.08.84.4 2.03.9 2.7 0-.65.12-1.67.35-2.27m.01 5.92c-.34-.42-.48-1.5-.34-2.03.46.47.9 1.43 1.98 1.73-.22-.6.03-1.36.15-1.5.5.62 1.1 1.25 1.87 1.34-.04-.4-.02-.8.07-1.19.3.47.75.82 1.26 1"/>
    <path class="secondary" d="M98.78 93.2c-2.59-1.32-4.25 2.65-6.45.93a.63.63 0 01-.09-.97c.23-.23.51-.2.74-.12.56.2.92.8.92.8.92-2.75-2.7-3.5-2.68-5.3 0-.85.42-1.39.93-1.3.72.1.95.9.95.9 1.55-2.45-1.25-4.7-.67-6.85.14-.3.5-.44.85-.44.51.01.77.34 1.11.68.08-1.55-.9-2.45-1.6-3.27-.4-.45-1-1.07-1.39-1.55-.58-.76-.6-1.6-1.27-2.3C92.65 82 85.37 88.87 86.2 95c.3 1.85 1.74 3.37 3.44 4.17m25.26-2.58c2.24.2 3.72-1.03 5.08-1.1 1.15-.04 2.7.5 3.06 1.75 0 0-.89-.8-1.44-.13-.58.7.34 1.28.77 1.45 2.05.98 5.03-.85 6.53 1.9 0 0-1.06-.46-1.52.1-.33.4.05 1.18.77 1.6 1.55.94 3.92-1.55 5.82.64 0 0-.7-.08-1.2.25-.2.12-.4.34-.34.66.04.21.14.54.82.53 2.54-.1.64-4.25 3.25-5.5 0 0-.17.67.07 1.2.1.22.27.46.6.46.22 0 .66-.18.65-.89-.08-2.44-3.5-2.8-3.47-5.7 0 0 .55.63 1.13.48.3-.08.61-.38.32-.95-.57-1.14-1.5-1.08-2.35-2.1-.86-1-1.53-2.18-1.33-3.5 0 0 .26.68.8.9.45.2.95-.13.95-.75-.02-2.34-2.34-3.08-.7-5.18 0 0-.14.56.28.78.27.13.53-.18.54-.5.03-.54-.12-1.02.11-1.57.35-.82 1.43-1.66 1.9-.42-2.48 7.74 4.13 15.31 3.48 21.46-.7 3.68-6.53 4.4-9.24 3.74"/>
    <path class="secondary" d="M132.22 131.78c.2.95-.1 1.72-.28 2.13-.4.87-.5.38-.5.32-.05-.5-.04-.94-.32-1.4-.21-.42-.6-.72-1.07-.82-2.13.48-2.24-3.46.77-2.3-.02 0 .98.42 1.4 2.07zm-15.02-4.24a3.4 3.4 0 00-.98 1.92c-.17.94.2.6.25.55.3-.37.55-.76 1.03-.96.6-.29 1-.2 1.35-.07.13.05.32.27.32.35 2.12-.4 3.14-2 .38-2.72 0 .02-1.07-.2-2.35.93z"/>
    <path d="M126.63 128.6c-.35-.24-2.23-.67-2.59-.49-.37.2-1.09.07-1.54-.12-.6-.25-1.22-.74-1.3-1.03-.1-.48-.48-.7-.9-.77-.4-.08-.63-.03-.77.11s-.23.26-.24.28c.2.36.78 1.55-.24 2.58.02.28.22.48.43.6.37.2.91.13 1.12-.02.23-.15.15-.24.33-.36a.33.33 0 01.27-.07c.13.03.23.13.32.3.3.6 1.63.48 2.12.4"/>
    <path class="secondary" d="M117.1 132.95c-.23.7-.23 1.46 0 2.16.27.92.45.44.47.4.1-.48.15-.93.5-1.33.38-.52.8-.64 1.17-.68.13 0 .4.1.43.18 1.8-.28 1.93-3.2-.87-2.59-.02 0-1.07.27-1.7 1.86zm4.96 4.53c.56.8 1.32 1.1 1.76 1.26.9.3.62-.13.58-.16-.32-.37-.67-.65-.8-1.18a1.5 1.5 0 01.13-1.34c1.35-1.88-1.15-3.57-2.23-1.02 0 .01-.38 1.02.55 2.45z"/>
    <path d="M124.88 100.48c2.12 1.2 3.9 4.32 8.7 4.32 5.05 0 5.67-5.09 4.3-8.32-1.78-4.18-4.95-8.9-3.08-14.9-.6.12-3.36 1.55-3.83.77-.22-.3 1.67-3.7 4.33-6.46 2.9-2.95 6.57-5.44 6.85-5.18.28.27-1.08 4.2-1.32 7.37-.28 2.18-.06 7.83-.73 7.56-1.37-.3-3.08-3.3-3.2-3.46-1.13 5.83 2.42 8.88 3.95 13.3 2.04 5.9.63 12.82-7.53 12.82-4.12 0-6.22-2.05-7.83-3.16 2.6 3.86 3 8.86 6.71 10.74.64.3.87.68.84 1.7 0 .58.2 1.08-.9 2.03-.92.8-1.89 3.24-2.5 4.55-.64 1.32-1.97 3.72-2.09 5.07.28.02.3.2.73.02.3-.12.47-.05.64.01.13.05.3.13.45-.05 0 0 0-.02.02-.02.08-.1.2-.36.98-.25.32.05.6.16.7.36.07.18.1.34.03.44-.02.02-.03.05-.06.06a2.3 2.3 0 00-.85.65 1.6 1.6 0 00-.26 1.46.5.5 0 01-.09.15c-.16.2-.27.42-.84.2-.57-.23-.52-.38-.62-.68-.26-.47-.25-.5-.66-.4-.28.13-.28.13-.6-.04-.62-.3-.78.2-1.38.2-.64.37-.36 1-.47 1.24a1.2 1.2 0 01-.28.28c-.27.24-.57.55-.47.92.07.27.08.48.12.55.04.06.16.1.24.28.14.4-.1 1.08-.3 1.2-.38.23-.53.17-.7.15a2.1 2.1 0 00-.9-.82c-.38-.14-.79-.06-1.25.21l-.35.28c-.34-.14-.4-.4-.33-1 .1-.4.25-.74.53-.9.3-.2.5-.24.5-.24h.06c.01 0 .01-.03.03-.03a.14.14 0 00.03-.1c0-.02.02-.58.6-.93l.3-.15a.17.17 0 00.04-.05c.58-.57.81-1.43.85-1.47-.25.03-.36.3-.44.35-.08.07-.42.23-.52.22-.53-.02-.28.03-.54.2-.24.17-.34.38-.42.56a.82.82 0 01-.12.2l-.07.05c-.24.16-.66.2-.66.2l-.07.02c0 .02-.02.02-.03.03-.03.02-.03.06-.03.1 0 .01.2.55-.37.94a.67.67 0 01-.3.13c-.23.05-.77.03-.84-.28.24-1.13-.9-2.18-1.16-2.37 0 0-.13-.2.03-.47.18-.29.48-.4.52-.4.45-.14.8.2.8.2.05.05.12.05.17.02h.01l.07-.06c.07-.05.33-.15.46-.15l.16.01c.24.04.76.18 1.1-.17.34-.36.73-.8 1.84-.66.1 0 .3-.13.35-.17.04-.02.3-.2.4-.38.15-.35.5-1.25.54-1.37.1-.47.5-1.12.6-1.72.12-.59.25-1.23.37-1.9.13-.74.5-1.83.5-1.9.26-.98.61-1.98.7-2.79-.77-.62-3.54-.7-4.52-1.9-1.3-1.1-3.22-1-3.75-2.92-.68-1.12-3.02-2.25-2.7-3.48-.3-1.06-2.07-1.29-1.82-3.94-1.47-.1-2.32.85-4.02.44-1.68.28-2.05 1.98-3.99 2.15-1.42.44-1.84 1.9-4.29 1.9-1.72.56-2.66 1.73-4.76 1.31-1.72.15-3.05 1.4-5.2.25l-4.59.78c-1.22-.54-3.63.51-5.2-.88-1.26-.65-3.8-.77-4.56-2.8-.9-1.38-2.69-1.97-2.7-3.86-.46-1.5-2.05-2.54-1.17-4.42.22-1.13-.94-4.3.5-5.34.87-1.5 0-3.06 1.6-4.2 1.16-1.16.5-3 2.78-3.93 1.27-.77.92-1.85 2.85-2.52.34-1 .58-1.3.23-2.05-.6.02-.96.24-1.56.22-.4 0-1.18-.13-1.57-.08-.77.08-.9 0-1.68.1.3.9-1.1 1.26-.62 2.5-1.2-.6-.46-1.9-.78-2.47-.18.1-.52.13-.52.13-.7.9.85 2.7-.26 4.3-.15-2.29-1.72-2.84-1.4-4.13-.3.17-.62.14-.95.13-.42 0-.52-.28-1.04-.45-.18-.06-.18-.2-.18-.4 0-.24.3-.3.53-.34l4.3-.4c.62-.06 1.13.01 1.68-.29.2-.1.76.14.97.04.38-.16.7 0 1.12-.02.57-.03.35.02.92 0 .15-.02.43-.28.56-.33.14-.06.27-.17.28-.3.02-.14-.03-.25-.08-.36-.32-.74-.57-1.98-2.2-3.03-.35-.2-.9-.42-1.3-.43-1.78-.04-3.4.43-5.06-.44-.3-.16-.96-.15-1.42-.1-.2.02-.44.11-.78.2-.12.02-.39-.03-.45-.15-.22-.49-.27-.58-.54-.59-1.3-.04-2.4-.7-2.83-1.65a2.1 2.1 0 01-.1-1.37c.37.46.83.88 1.4 1.06.76.22 1.13.04 1.13.04.08-.02.14-.1.17-.15.13-.45-.14-.8.28-1 .45-.23 1.52-.38 2.07-.12.53.25 1.3-.5 2.23-.3 0 0 .43.07.8-.1.78-.37 1.33-.3 1.33-.3.52-.07 1.26-.47 2.42-.2.3-.4-.1-.78.13-1.08.41-.55 2.16-.5 2.26-.5.3 0 .75.02 1.03.05 1.66.13 3.6-.35 4.95-.15 1.36.2 2.63 1.62 3.32 2.6l-.39.13c2.24 4.23 2.75 9.47 1.25 13.2-.4 1.1-.97 2.15-1.36 3.27s-.56 2.36-.15 3.47 1.54 2.01 2.71 1.86l18.14 1.25a25.4 25.4 0 0114.4 3.38z"/>
    <path class="secondary" d="M83.44,83.78C83.94,83.64 84.39,83.9 84.755,83.66 84.9,84.16 84.54,85.49 84.16,86.555 83.94,88.26 82.56,88.99 81.93,89.3 81.8,90.83 80.59,91.74 80.03,92.36 80.15,94.03 79.43,94.94 78.88,96.23 79.02,97.59 78.75,98.59 78.68,99.49 79.24,99.96 78.99,101.83 79.62,103.04 80.82,103.74 81.28,105.14 81.92,105.94 82.62,105.89 84.54,107.16 85.18,107.85L87.18,108.06C88.35,107.28 90.93,107.79 92.18,108.06 93.35,107.28 95.88,107.29 97.135,107.56 98.27,106.71 99.72,106.26 101.88,106.4 103.25,105.54 104.87,105.15 106.48,105.28 107.66,104.39 109.17,104.05 110.62,104.35 111.88,103.85 114,103.78 114.82,104.245 115.68,104.35 117.3,104.5 117.33,106.26 117.89,107.4 118.78,107.58 118.84,109.64 119.55,110.51 120.87,110.85 121.35,112.285 122.57,113.01 123.59,114 124.27,115.21 125.63,115.69 126.83,116.33 127.44,117.63 127.52,118.2 127.05,118.81 127.04,119.215 126.27,118.58 123.5,118.5 122.52,117.3 121.22,116.2 119.3,116.3 118.77,114.38 118.09,113.26 115.75,112.13 116.07,110.9 115.77,109.84 114,109.61 114.25,106.96 112.78,106.86 111.93,107.81 110.23,107.4 108.55,107.68 108.18,109.38 106.24,109.55 104.82,109.99 104.4,111.45 101.95,111.45 100.23,112.01 99.29,113.18 97.19,112.76 95.47,112.91 94.14,114.16 91.99,113.01L87.4,113.79C86.18,113.25 83.77,114.3 82.2,112.91 80.94,112.26 78.4,112.14 77.64,110.11 76.74,108.73 74.95,108.14 74.94,106.25 74.48,104.75 72.89,103.71 73.77,101.83 73.99,100.7 72.83,97.53 74.27,96.49 75.14,94.99 74.27,93.43 75.87,92.29 77.03,91.13 76.37,89.29 78.65,88.36 79.92,87.59 79.57,86.51 81.5,85.84 81.84,84.84 82.08,84.54 81.715,83.81 82.15,83.81 83,83.91 83.44,83.78z"/>
    <path fill="none" d="M84.76 83.66c.14.5-.22 1.83-.6 2.9m-2.67-.68c1.16-.14 1.61.25 2.7.68"/>
    <path fill="#f6f6f6" d="M80.2 73.8c1.38-.32 2.1.15 2.1.15-.18.7-.32 1.31-1.55 1.38-.66.03-1.16-.38-1.27-.92-.04-.2-.08-.46.1-.52 0 0 .24 0 .61-.09z"/>
    <path d="M86.46 75.51c.56-1.1 1.33-2.45 2.13-3.26 1.64-1.69 3.66-2.4 5.74-2.77 2.67-.5 3.75-1.3 3.75-1.3s-.99 1.1-1.35 1.98c-.5 1.2-.44 1.93-.38 2.82-1.5.13-2.93.8-3.5 2.22a1.9 1.9 0 00-.13 1.3 5.89 5.89 0 00-2.8.18"/>
    <path fill="none" d="M81.7 83.83c.45-.02 1.3.08 1.74-.05.5-.14.95.12 1.31-.12.35-.36-.15-1.12-.17-1.37.42.07.72.35 1.3.21"/>
    <path fill="none" d="M97.14 107.56c1.13-.85 2.58-1.3 4.74-1.16a7.52 7.52 0 014.6-1.12 5.12 5.12 0 014.14-.93m-8.66 7.11a8.63 8.63 0 01-.1-5.05m-9.68 1.65c1.17-.78 3.7-.77 4.95-.5m-9.95.5c1.17-.78 3.75-.27 5 0m5.01 4.72c-.4-.9-.69-4.1-.05-5.2m-5.16 5.46c-.4-.9-.44-3.86.2-4.96m14.02 1.43c-.28-1.17-.5-3.2.28-4.22m3.74 2.11c-.02-.94-.02-2.25.4-3.05m0 0c1.26-.5 3.38-.57 4.2-.1m-.56 2.75s0-1.5.56-2.75m2.52 2.01c.55 1.14 1.44 1.32 1.5 3.38.71.87 2.03 1.21 2.51 2.57m0 .15a7.3 7.3 0 012.92 2.85m0 0c1.36.48 2.56 1.12 3.17 2.42m-11.36-6.79c1-.85 1.97-1.23 2.76-1.2m-.08 4.77a5.79 5.79 0 012.58-2.03m1.18 4.95c-.05-.93 1-1.88 1.75-2.12m2.77 4.02c.01-.42.48-1.03.4-1.6M80.03 92.36c.12 1.67-.6 2.58-1.15 3.87.14 1.36-.13 2.36-.2 3.26.56.47.31 2.34.94 3.55 1.2.7 1.66 2.1 2.3 2.9.7-.05 2.62 1.22 3.26 1.91m-1.02-21.3c-.22 1.71-1.6 2.44-2.23 2.75-.13 1.53-1.34 2.44-1.9 3.06m-1.39-3.96a5.2 5.2 0 013.3.9m-7.68 7.23a6.45 6.45 0 014.62-.3m-3.02-3.9c1.2-.44 2.94-.4 4.17.03m2.16 20.58c.5-1.96 1.5-3.7 3-5.08m-7.56 2.28a16.8 16.8 0 014.3-4.2m-6.99.34a14.24 14.24 0 014.7-3.23m-5.88-1.19c1.4-1.21 3.1-2.03 4.93-2.37"/>
    <path class="secondary" d="M89.1 131.78c.2.95-.1 1.72-.28 2.13-.4.87-.52.38-.52.32-.03-.5-.02-.94-.3-1.4-.21-.42-.6-.72-1.07-.82-2.1.5-2.26-3.47.76-2.3 0 0 1 .42 1.4 2.07zm-15.02-4.24c-.7.66-.9 1.47-.99 1.92-.16.94.21.6.25.55.31-.37.55-.76 1.04-.96.6-.29 1-.2 1.35-.07.12.05.31.27.31.35 1.61.57 3.26-1.97.4-2.72-.02.02-1.09-.2-2.36.93z"/>
    <path d="M83.5 128.6c-.35-.24-2.22-.67-2.58-.49-.38.2-1.1.07-1.54-.12-.6-.25-1.23-.74-1.3-1.03-.1-.48-.49-.7-.9-.77-.4-.08-.64-.03-.78.11-.13.14-.22.26-.23.28.18.36.77 1.55-.24 2.58.01.28.21.48.42.6.38.2.92.13 1.13-.02.22-.15.15-.24.32-.36a.35.35 0 01.28-.07c.12.03.22.13.31.3.31.6 1.64.48 2.13.4"/>
    <path class="secondary" d="M73.98 132.95c-.23.7-.23 1.46 0 2.16.26.92.45.44.46.4.1-.48.15-.93.5-1.33.4-.52.8-.64 1.18-.68.12 0 .4.1.42.18.06.13.51.02.51.02 1.3-1.27.87-3.1-1.37-2.6-.03-.02-1.08.26-1.7 1.85zm4.95 4.53c.56.8 1.32 1.1 1.76 1.26.9.3.63-.13.6-.16-.34-.37-.69-.65-.8-1.18a1.5 1.5 0 01.11-1.34c.07-.1.32-.26.4-.25-.42-1.41-1.64-2.86-2.63-.77 0 .01-.38 1.02.56 2.45z"/>
    <path d="M82.56 105.31c-.1 1.67-.18 3.2.44 4.44.3.56.7 2.2.9 3.43.2 1.8-.4 6.7-.45 7.96-.1 2.6-.62 4.64-1.43 6.51-.04.11-.67.88-.82 1.23-.1.17-.36.36-.4.38-.05.04-.23.17-.35.17-1.1-.15-1.5.3-1.83.66-.34.36-.88.21-1.1.17h-.17c-.13 0-.4.1-.46.14l-.06.05v.01a.12.12 0 01-.18-.02s-.36-.34-.8-.2a1 1 0 00-.52.4c-.18.3-.04.47-.04.47.25.2 1.4 1.23 1.16 2.37.08.32.63.35.84.28.11-.03.21-.07.3-.13.56-.4.38-.94.38-.94a.1.1 0 01.02-.1l.04-.03a.1.1 0 01.06-.02s.43-.04.66-.2l.08-.06c.04-.04.07-.12.11-.2.1-.17.2-.37.43-.54.26-.19.02-.24.53-.2.1 0 .43-.16.53-.23.07-.05.2-.32.44-.35-.04.04-.3.9-.85 1.47-.02 0-.03.03-.04.05h-.03c-.1.05-.2.08-.28.15-.58.35-.6.9-.6.93 0 .04 0 .08-.03.1l-.02.02c-.03 0-.05.02-.08 0 0 0-.19.07-.49.25-.26.16-.42.5-.52.9-.08.6 0 .85.32 1 .15-.13.22-.2.35-.28.47-.29.9-.36 1.24-.2.44.16.83.63.9.81.2.02.34.08.7-.15.23-.12.45-.8.31-1.2-.07-.18-.2-.22-.23-.28-.04-.07-.07-.3-.13-.55-.09-.35.21-.67.48-.92.12-.1.25-.22.27-.28.11-.25-.16-.87.48-1.25.82.02.93-.48 1.23-.27l.04.03.1.05c.33.2.33.2.6.04l.08-.04h.03c.45-.1.45.16.55.44.1.3.05.45.63.67.57.23.7.01.84-.19.05-.06.07-.12.08-.15-.05-.17-.2-.82.27-1.46.2-.26.48-.47.85-.65a.15.15 0 00.06-.06c.07-.1.04-.26-.04-.44-.07-.2-.37-.32-.7-.36-.77-.1-.9.15-.97.25l-.03.02c-.14.18-.32.1-.45.05a.77.77 0 00-.64 0c-.42.18-.18 0-.47-.03.24-1.55 1.57-2.52 1.62-3.45 0-.02.15-1.34.44-1.9.65-.93.8-1.34 1.2-2.82.91-3.47 2.51-5.47 2.5-5.55.36-.3 1.03-.48 1.24-1.68.07-1.17-.94-1.4-1.09-2.1.06-1.94.51-2.23.91-4.14.3-1.36.34-1.7.32-2.35"/>
    <path fill="none" d="M114.82 104.24c.86.11 2.48.26 2.5 2.02m-3.06.74a5.9 5.9 0 013.07-.74"/>
    <path class="secondary" d="M125.1 66.68c.85 0 .9-.8 2.4-.7 0-.1-.88-1.2-2.6-.5M97.86 80.51c-.63.14-1.28-.42-2.36-.02.58-1.5 2.12-1.34 2.12-1.34m.94 24.56c.17 1.1.48 1.24.36 2.07 1.1-.85.65-2.03.65-2.03m9.15-1.17c.2.47.92.68 1.17 1.56.7-1.09-.2-1.93-.2-1.93m12.67-15.53c.52.28 1.2.07 2.02.7-.1-1.45-1.5-1.6-1.5-1.6m1.85-9.83c.97-.04.96-.7 2.2-.44a1.98 1.98 0 00-.94-.8c-.6-.26-1.27-.23-1.27-.23m-7.02 22.3c.38.45 1.1.5 1.64 1.36.4-1.4-.86-2-.86-2"/>
    <path d="M89.9 97.05c2.8-.16 6.4-2.02 7.77-3.54 1.58-1.85 2.4-4.66 2.33-7.88-.2-3.32-2.25-5.13-2.25-5.13.3-.8-.13-1.36-.13-1.36 2.32-3.3 7.5-6.36 11.1-8.24 8.27-4.39 14.58-5.46 16.3-5.45.03.28-.15.95.1 1.25h-.02c-.87.95-1.77 5.4-.13 7.73 0 0-.57.66 0 1.48-2.1 1.7-3.32 6.3-2.1 9.9 0 0-.44.13-.4.92-3.1 1.45-4.84 5.05-3.98 9.42 0 0-.46 0-.7.73l-.07-.07c-4.7 0-7.04 2.55-8.04 5.43 0 0-.5-.14-.9.44-4.15-1.82-7.84-.17-9.13 1.26 0 0-.56-.09-.98.27a5.5 5.5 0 00-4.08-2.9"/>
    <path fill="none" d="M96.46 97.21a12 12 0 004.68-6.76m0 .01c.6-1.92 1.36-5.73-.54-9.48-.3-.6-.28-1.4.33-2.04"/>
    <g fill="#000" stroke="none">
      <path d="M76.34 128.61a2.18 2.18 0 00-2.45.37c.63-.81 1.68-.9 2.53-.56zm12.09 4.47a2.09 2.09 0 00-1.68-1.68l.05-.18c.84.25 1.6.97 1.63 1.86zm-11.98-.18c-.87.01-1.76.6-2 1.43a2.23 2.23 0 011.95-1.66zm3.85 2.55c-.47.73-.48 1.8.05 2.44-.7-.77-.66-1.75-.23-2.57zm11.34-30.2c.03-.97.04-2.05-.12-2.95a2.25 2.25 0 00-.34-.91c.22.25.34.57.42.88.27 1 .33 1.95.41 3zm-9.26.07c.1-1.13.2-2.15.54-3.13.1-.34.25-.67.47-.94-.19.3-.3.64-.39.97a13.53 13.53 0 00-.25 3.12h-.37zm5.75 3.56c.3-.36.68-.6 1.07-.78-.08.57-.55.83-1.07.8zm1.11-1.58c.07-.38.3-.71.58-.96.16.5-.14.82-.57.96zm.14-1.59c-.04-.3.04-.48.2-.73.35.3.18.65-.2.73zM78.2 127.46c.35.6.17 1.26-.38 1.62.14-.53.23-1.12.37-1.62zm-1.18 3.37c.65.21.92 1.03.77 1.51-.27-.51-.54-.95-.77-1.5zm2.41 2.55c.6-.45 1.32-.13 1.64.41a11.1 11.1 0 00-1.64-.4zm6.86-3.97c-.3.25-.55.57-.72.92.04-.44.23-.85.45-1.19zm-1.63 0c-.28-.11-.64-.07-.9-.05.35-.2.63-.27.98-.32l-.07.37zm3.58-12.51c-.22.4-.39.84-.49 1.28a5.1 5.1 0 01-.45 1.35c-.13.3-.32.55-.43.8-.18.38-.07.74-.14 1.12a1.4 1.4 0 01-.44.64c-.23.2-.34.47-.44.72-.1.3-.26.57-.32.88-.03-.3.1-.63.15-.93.03-.35.19-.62.4-.88.2-.23.35-.48.32-.72a1.9 1.9 0 01.12-.98c.15-.32.33-.55.46-.82.24-.43.36-.79.52-1.25.17-.44.42-.85.74-1.2zm.84-4.06c.99.65.36 2.3-.73 2.32.73-.64 1.18-1.5.73-2.32zM100.8 78.8c4.62-4.72 10.66-8.54 16.54-10.38 2.32-.73 4.1-1.1 6.4-1.39-.99.27-2.24.46-3.2.7a43.53 43.53 0 00-19.47 11.32zM86.85 98.45c.64-1.14 1.88-1.53 3.03-1.59v.38c-1.17-.05-2.41.27-3.04 1.21zm7.7 3.01a7.13 7.13 0 00-3.07.27c.88-.48 2.1-.74 3.14-.64l-.08.37zm-3.45-1.28a3.26 3.26 0 001.53-1.54c.32-.03.65-.1.97-.2.98-.33 2-.9 2.8-1.4l.2.3c-.88.59-1.89 1.1-2.9 1.42-.93.24-.79-.06-1.17.62-.1.16-.23.3-.38.45-.35.3-.77.41-1.05.35zm10.63-7.48c3.27 2.52 6.02 5.18 7.41 8.88-1.92-3.42-4.54-6.24-7.4-8.88zm-.53 1.4c2.82 1.74 5.95 5.37 7.08 7.9a54.87 54.87 0 00-7.08-7.9zm-2.9 2.95c1.2 1.83 1.44 4.1 1.18 6.16a28.22 28.22 0 00-1.18-6.16zm-1.14.9c1 1.75 1.6 3.42 1.5 5.26a57.4 57.4 0 00-1.5-5.27z"/>
      <path d="M123.58 74.74c-5.75-.25-12.03-.29-17.58 1.14a37.88 37.88 0 0117.58-1.14zm.04.97c-5.35-.14-13.04.5-18.8 2.07a45.04 45.04 0 0118.8-2.07zm-20.89 5.54c6.55-.39 13.7 1.05 19.34 4.18a51.45 51.45 0 00-19.34-4.18zm.05 1.81c6.53-.76 12.9.96 18.87 3.2-6.03-1.7-12.26-3.47-18.88-3.2zm.71 2.72a29.5 29.5 0 0114.38 9.75c-4.07-3.94-9.04-7.87-14.38-9.75zm-.6 1.58c5.49 1.15 10.45 5.32 14.26 8.8-4.51-3.19-9-7.17-14.27-8.8zm-1.82-11.86c3.86-5.23 7.6-8.99 13.25-11.9-5.5 3.1-9.77 7.58-12.96 12.05zm-1.63 51.38a2.1 2.1 0 00-2.42.36l-.03-.02a2.2 2.2 0 012.55-.54zm10.44 2.59c.87.24 1.59.93 1.7 1.84-.3-.92-.95-1.51-1.71-1.65zm-10.3 1.7c-.88-.07-1.8.74-2.03 1.42a2.29 2.29 0 012.01-1.67l.02.25zm3.86 2.53c-.51.75-.58 1.48.01 2.44a2.24 2.24 0 01-.19-2.58l.18.14zm-2.12-7.99c.36.61.17 1.26-.38 1.62.14-.53.23-1.12.38-1.62zm8.1 1.95a2.5 2.5 0 00-.73.92c.05-.44.24-.85.46-1.19zm-9.28 1.42c.68.24.97.88.78 1.51-.27-.5-.55-1-.78-1.5zm2.42 2.55c.6-.46 1.31-.12 1.64.41a10.4 10.4 0 00-1.65-.4zm4.98-3.97c-.28-.11-.64-.07-.92-.05.32-.18.63-.3 1-.32zm.22-3.16c.31-.33.5-.74.61-1.1.34-.32.62-.7.78-1.07.39-.26.61-.58.77-1 .36-.32.67-.51.83-.95.38-.35.75-.59.9-1 .35-.19.61-.47.82-.79l.6-.43c-.1.21-.33.4-.49.53-.01.15-.48.73-.7.86-.15.4-.46.8-.8.91-.2.45-.42.78-.83.92-.12.48-.48.86-.87 1.08-.16.5-.75.97-.89 1.02-.16.43-.4.79-.74 1.02.02.01 0 .01 0 0zm6.63-8.96c-.05.64.12 1.3.36 1.82-.66-.54-.78-1.34-.36-1.82zM62.5 103.3l.17.1c-.59.75-1.48 1.18-2.4.94 1.2-.02 1.8-.37 2.23-1.05zm6.94-9.92a2.07 2.07 0 00.71-2.33c.5.87.04 1.9-.6 2.5zm-4.21-.97c.33-.8.24-1.8-.48-2.38.85.45.93 1.73.7 2.42zm-4.42 3.51c-.49-.72-1.48-1.01-2.28-.87 1-.3 1.96.18 2.47.75zm8.85-.39c-.67.1-1.25-.3-1.36-.95.48.31.98.64 1.37.95zm-4.4 3.22c-.24-.25-.4-.55-.54-.85l.36-.07c.02.33.1.68.18.92zm1.62-4.95c-.5.52-1.19.54-1.7.1.56-.03 1.13-.1 1.7-.1zm-3.84 2.05c.2.72-.31 1.29-.97 1.38.35-.43.71-.93.97-1.38zm1.42 7.8c-.1-.38-.3-.73-.58-1.02.38.2.7.5.92.86-.1.06-.23.11-.34.16zm.58-1.69c.28-.24.4-.57.48-.88.06.4-.03.8-.19 1.13zm5.4 5.38c.63.09.84.73 1.18 1.16-.64 0-.92-.74-1.18-1.16zm1.92 2.31c.67.2.45 1.07.93 1.43.26.1.36.28.41.48-.25-.21-.6-.23-.87-.42-.4-.39-.14-1.15-.48-1.49zm-5.38-29.67l-.7-.73.91.41zm-1.42.52l-.64-.87.9.6zm53.86 48.1a2.18 2.18 0 00-2.4.39c.62-.83 1.69-.9 2.52-.57zm12.14 4.48a2.1 2.1 0 00-1.76-1.69l.05-.2c.87.24 1.66.96 1.71 1.9zm-11.96-.18c-.87 0-1.8.6-2.02 1.43a2.2 2.2 0 011.97-1.67zm3.84 2.52c-.47.73-.52 1.82.05 2.46a2.17 2.17 0 01-.23-2.58zm1.89-30.19a14.9 14.9 0 00-2-3.64c1.08 1.06 1.6 2.17 2.32 3.46zM82.36 73.76c.7.32 1.38.3 1.71-.4-.2.86-1.12.97-1.83.77l.13-.37zm-2.82.32a1.3 1.3 0 01-.8-.84c.18.3.6.42.88.46zm10.54 2.74c-.72.2-1.42.71-1.8 1.34h-.04c.32-.76 1-1.38 1.7-1.68zm-4.19-.08c.09-.46.25-.91.41-1.37l.34.2c-.24.37-.53.88-.75 1.17zm4.93-2.16c.17-.47.59-.8 1.02-.99-.12.54-.52.86-1.02 1zm.46.6c.28-.09.47-.21.62-.43a2.75 2.75 0 011.44-2.1c-.15.26-.32.5-.47.73-.39.47-.5 1.03-.72 1.52-.24.3-.53.3-.87.28zm-5.6 7.32v-.44c.01-.3.12-.37.4-.42.52-.09.42-.56.4-.98-.06-.66-.1-1.25.25-1.76a.9.9 0 01.52-.3c-.16.1-.3.23-.4.4-.27.5-.14 1.14-.08 1.64.07.52.08.91-.32 1.24-.58.2-.43-.06-.43.63 0 .1-.08.2-.2.18-.07 0-.14-.09-.14-.19zm-14.6-7.49c.9-.54 1.1.67.7 1.3-.05-.63-.05-1.2-.7-1.3zm-.1.53c.38.08.31.51.14.7-.21-.22-.2-.42-.14-.7zm12.65-2.86c-.59.5-1.54.11-2.18 0-.35-.07-.7-.1-1.05-.1-.38.05-.75.16-1.1.02.36-.02.74-.25 1.07-.34.4-.06.77 0 1.15.05.7.13 1.44.56 2.1.37zm-2.59 5.2c.46-.15.8.1.93.51a1.35 1.35 0 01-.92-.5zm1.56.97c.31-.01.37.14.34.4-.29.04-.34-.18-.34-.4zm.62.83c.6-.04.36.48.23.71-.28-.14-.2-.44-.23-.7zm-11.32-5.9c.47.35.87.67 1.05 1.18a2.3 2.3 0 00-1.23-.86zm2.2-.33c.46.21.75.78 1.2.94a1.36 1.36 0 01-.37-.09c-.32-.16-.64-.37-.95-.49zm2.12-.4c.27.1.51.25.72.44.2.2.42.37.66.44-.27 0-.51-.16-.76-.3a2.1 2.1 0 00-.7-.23zm4.76 3.19c.85-.56 1.93-.88 2.86-.5-.94.2-1.9.37-2.86.5zm-11.3-.86c.5.4.7.9.41 1.44-.03-.53-.26-.96-.4-1.44zm5.45.58c1.66-.55 3.36-.17 4.2 1.13-1.11-1.04-2.52-1.11-4.2-1.13zm12.99-.05c.17-1.23 1.45-1.99 1.78-1.85.21-1.22 1.13-1.66 1.33-1.63 1.05-1.23 1.8-.71 2.07-1.14.16-.26.42-.47.63-.63.37-.21.67-.3 1.06-.4-.34.16-.7.34-.96.54-.37.22-.46.77-.74.95-.95.09-1.35.42-1.84.95-1.16.26-.99 1.26-1.42 1.64-.9 0-1.58.8-1.9 1.57zm33.2 51.55c.36.61.17 1.26-.38 1.62.14-.53.23-1.12.38-1.62zm-1.18 3.37c.68.24.97.88.78 1.51-.27-.5-.55-1-.78-1.5zm2.42 2.55c.6-.46 1.31-.12 1.64.41a10.4 10.4 0 00-1.65-.4zm6.86-3.97a2.5 2.5 0 00-.73.92c.05-.44.24-.85.46-1.19zm-1.88 0c-.28-.11-.64-.07-.92-.05.32-.18.63-.3 1-.32zM114.3 98.88c.78-.45 1.93-.45 2.6.12a83.6 83.6 0 00-2.6-.12zm24.96-23.97c-1.34 1.66-2.77 3.24-3.86 4.97l-.03-.02a14.89 14.89 0 013.9-4.95zm-2.53 7.2a23.38 23.38 0 012.24-4.08l.03.02a22.84 22.84 0 00-1.9 4.2zm-19.1 17.25c.63-.35 1.29-.14 1.72.35a7.19 7.19 0 01-1.72-.35zm2.61 1.07a1.3 1.3 0 011.55.61 5.53 5.53 0 01-1.55-.6zm10.18 15.92c.2.62.7 1.05 1.15 1.41-.83.12-1.4-.65-1.15-1.4zm-3.32 10.03c.26-.33.25-.78.26-1.18.28-.32.48-.73.44-1.16.04-.26.28-.42.35-.68.13-.24.09-.52.18-.77.14-.17.33-.33.39-.57.09-.21.04-.5.22-.66.29-.25.37-.63.46-.99.24-.3.5-.63.55-1.04.17-.11.32-.48.43-.48-.04.28-.34.48-.33.8a1.9 1.9 0 01-.46.9c.1-.06-.03.37-.05.48-.06.22-.36.6-.44.63.08-.03-.02.38-.07.5a3.7 3.7 0 01-.44.65c.08-.24 0 .39-.07.52a2.2 2.2 0 01-.45.75c.06-.17 0 .31-.05.41-.1.31-.28.59-.52.8.08-.1-.02.3-.03.38-.07.25-.16.55-.38.71z"/>
      <path d="M80.26 73.9c-.1.38.03.71.27.98.06.06.3.12.31-.05.08-.35.1-.82.04-1.12"/>
    </g>
  </g>
</svg>
