<svg xmlns="http://www.w3.org/2000/svg" fill="#d7374a" stroke="#000" viewBox="50 50 200 200">
  <metadata source="http://wappenwiki.org/images/7/70/Vignolles.svg" license="https://creativecommons.org/licenses/by-nc-sa/3.0"/>
  <g id="grapeBunch2" stroke-width=".19">
    <g>
      <path class="secondary" stroke-width=".56" stroke-linejoin="round" d="M116.24 82.42c-.4-.97-.74-2.44-1.26-3.4-1.32-2.46-1.75-4.76-4.1-6.56-1.26-.96-3.33-1.47-4.25-2.76-.83-1.17-.73-2.47-.81-3.45.02-1.44.28-2.35.55-3.6.07-.36.16-.74.13-1.1-.08-.75-1.24-1.39-3.48-1.39-2.86 0-3.54.98-3.33 1.71.17.53.43.93.81 1.34a6.79 6.79 0 0 1 1.75 3.72c.22 1.47.37 2.22.3 3.69-.23 1.39-1.34 2.72-2.16 3.76a8.39 8.39 0 0 0-1.75 4.11c-.08.6-.11 1.26-.58 1.66-.59 1.54-1.45 2.82-2.03 4.36 1.03.13 1.57-1.18 2.25-1.67.7-.51 1.66-.23 2.33-.77.42-.34-.24-.9-.13-1.43.43-1.88 1.97-3.67 3.16-5.25.07-.1.17-.2.3-.2.13 0 .23.09.32.18 2.2 2.4 1.17 6.79.92 9.8-.07.96-1.75 1.43-.32 2.63a.94.94 0 0 0 .85.23c.32-.08.49-.3.62-.55a14.63 14.63 0 0 0 1.28-3.25c.5-2.07 1.16-4.35 1.05-6.58a5.83 5.83 0 0 0-1.58-3.57c.04.03 1.3.28 1.5.39.45.23.8.73 1.08 1.07.71.89 1.39 1.56 2 2.5 1.29 1.92 2.1 3.95 2.98 6.06a1.41 1.41 0 0 0 .54-.51l-.52.11 1.48-.73.11-.04c.08-.13.06-.34-.01-.5z"/>
      <g stroke="none" fill="#000">
        <path d="m105.1 61.55-.14.14-.2.13c-.07.05-.14.11-.26.15l-.32.15-.37.13-.42.1-.43.05h-.43l-.43-.04-.4-.07-.34-.11-.28-.12-.2-.11-.17-.11.18.03.51.1a1.7 1.7 0 0 0 .34.04l.38.03h.8l.42-.03.4-.06.35-.08.32-.09.49-.17.2-.06z"/>
        <path d="m106.95 74.36-.04-.04-.15-.15a1.65 1.65 0 0 1-.3-.55l-.1-.37c-.01-.13-.05-.26-.05-.42-.04-.28-.02-.58-.08-.86a3.27 3.27 0 0 0-.24-.8c-.1-.27-.2-.5-.26-.72a2.07 2.07 0 0 1-.08-.53v-.2.05l.02.15c.02.13.06.3.15.5.08.22.2.44.34.67l.19.4.17.42.16.85.1.36.11.3c.08.19.17.3.25.35l.07.06.04.02-.3.5z"/>
        <path d="m103.83 75.4-.04-.08-.1-.25a2.8 2.8 0 0 1-.14-.75 4.51 4.51 0 0 1 .01-.73l.06-.32.02.32c.02.18.07.45.17.67l.3.6.13.17.06.08-.47.28z"/>
      </g>
    </g>
    <g stroke-width=".56">
      <path d="M95.72 93.8a33.39 33.39 0 0 0-4.88 7.39c-1.66 3.47-2.4 4.26.15 6.3 2.25 1.8 4.13 5.24 3.66 8.1 4.25-.64 8.65-.4 12.8.71 3.39.9 6.72 2.39 10.21 2.37.96 0 2.02-.17 2.67-.88.38-.4.57-.93.76-1.43.79-2.1 1.39-4.42 2.63-6.3 1.01-1.56 1.7-2.31 1.82-4.33A13.12 13.12 0 0 0 121 95.21c-.92-.77-1.97-1.43-2.61-2.45-.96-1.5-.83-3.44-.68-5.22-3.81.82-7.7 1.33-11.62 1.58-3.87.22-6-.23-8.66 2.76-.6.64-1.17 1.28-1.7 1.92z"/>
      <ellipse cx="93.34" cy="112.78" rx="5.21" ry="5.62"/>
      <ellipse cx="94.13" cy="122.15" rx="5.21" ry="5.62"/>
      <ellipse cx="90.39" cy="103.42" rx="5.21" ry="5.62"/>
      <ellipse cx="121.69" cy="98.89" rx="5.21" ry="5.62"/>
      <ellipse cx="123.02" cy="109.04" rx="5.21" ry="5.62"/>
      <ellipse cx="117.68" cy="118.14" rx="5.21" ry="5.62"/>
      <ellipse cx="104.3" cy="134.46" rx="5.21" ry="5.62"/>
      <ellipse cx="97.08" cy="128.03" rx="5.21" ry="5.62"/>
      <ellipse cx="111.52" cy="126.7" rx="5.21" ry="5.62"/>
      <ellipse cx="96.27" cy="117.88" rx="5.21" ry="5.62"/>
      <ellipse cx="102.7" cy="114.78" rx="5.21" ry="5.62"/>
      <ellipse cx="98.96" cy="107.18" rx="5.21" ry="5.62"/>
      <ellipse cx="113.4" cy="117.07" rx="5.21" ry="5.62"/>
      <ellipse cx="92" cy="93.01" rx="5.21" ry="5.62"/>
      <ellipse cx="98.41" cy="96.75" rx="5.21" ry="5.62"/>
      <ellipse cx="98.15" cy="85.51" rx="5.21" ry="5.62"/>
      <ellipse cx="116.07" cy="87.91" rx="5.21" ry="5.62"/>
      <ellipse cx="116.07" cy="97.54" rx="5.21" ry="5.62"/>
      <ellipse cx="114.2" cy="107.45" rx="5.21" ry="5.62"/>
      <ellipse cx="104.49" cy="124.7" rx="5.21" ry="5.62"/>
      <ellipse cx="107.25" cy="90.86" rx="5.21" ry="5.62"/>
      <ellipse cx="104.64" cy="99.62" rx="5.21" ry="5.62"/>
      <ellipse cx="105.59" cy="119.03" rx="5.21" ry="5.62"/>
      <ellipse cx="111.2" cy="100.92" rx="5.21" ry="5.62"/>
      <ellipse cx="108.19" cy="109.31" rx="5.21" ry="5.62"/>
    </g>
    <g>
      <path class="tertiary" stroke-width=".56" stroke-linejoin="round" d="M104.56 68.53c-.02-.68-.32-1.45-.98-1.58-.67-.13-.86-.23-1.5.04-4.95 2.12-9.93 12.33-9.93 12.33 1.06-5.77-3.87-7.97-5.52-8.5a7 7 0 0 0 .67 2.54c-2.07-2.01-5.1-2.86-7.14-2 .41.53 1.05 1 1.75 1.5a8.61 8.61 0 0 0-7 2c2.22.34 2.62 1.23 4.97 2.05-.55.4-1.02.42-1.6.83 1.54.49 2.76 2.09 5.83 1.37 1.67-.4 1.2 1.5.2 1.68-2.69.43-4.49-3.35-9.15-.13.26.43 1.1.37 1.84.67-3.38.06-4.96 2.16-6.35 3.76 1.14-.19 2.18-.05 3.04-.41-3.6 1.45-4.21 5.54-4.5 6.4 1.42.12 3.43.2 4.76-.72a13.16 13.16 0 0 0-1.01 1.93c5.71-.94 5.66-3.12 8.53-4.45 1.19-.55 3.07.37.51 1.8-2.27 1.28-2.95.32-5.6 3.87.77.29 1.9-.26 2.57-.16-1.6 1.05-3.9 3.4-4.02 5.13.68-.17 1.6-.43 2.61-1.11-.94 1.56-2.25 3.6-1.24 7.12a7.73 7.73 0 0 0 1.8-1.93c-.6 2.25-.07 4.68.67 5.05s3.02-.62 4.43-2.5a7.52 7.52 0 0 0-.47 2.62c3.43-1.3 4.29-3.6 4.97-5.27.05 1.23.41 2.1.67 2.77 1.32-1.13 1.8-4.4 1.7-6.3.48.49.73 1.71 1.4 2.16 1.25-4.25.1-4.23-.26-6.8-.4-2.9 1.49-1.96 1.75-.68.66 3.1-1.13 4.36 1.54 9.5.3-.5.62-1.15.94-1.98.06 1.62 1.34 3.18 2.28 4.23.5-.73 3.42-3.69 2.42-7.43.23.9.96 1.66 1.49 2.7.45-2.1 1.2-4.61-.8-7.36.68.41 1.15 1.13 1.66 1.07-.22-5.68-4.34-4.83-5.6-7.25-.47-.9.77-2.41 1.45-.85 1.26 2.88 3.29 2.9 4.58 3.83-.03-.71-.28-1.09-.3-1.76 2.07 1.37 3.01 1.18 4.61 2.74a8.58 8.58 0 0 0-2.58-6.8c.81.28 1.58.49 2.24.5-.52-2.16-3.03-4.08-5.88-4.53a7.14 7.14 0 0 0 2.44-.97c-1.4-1.02-6.13-3.63-10.11.67 0 0 5.24-9.87 11.1-11.24.12 0 .12-.1.12-.15"/>
      <g stroke="none" fill="#000">
        <path d="m92.42 79.45-.5 1-.54 1.15-.7 1.48L89 86.82l-1.93 4.3a243.08 243.08 0 0 1-2.03 4.27l-.98 1.94c-.32.6-.62 1.19-.94 1.71l-.43.75-.42.66c-.26.42-.47.8-.67 1.07a166.68 166.68 0 0 0-.66.92c-.02 0-.02-.01 0-.03l.53-.96.6-1.11.75-1.45.88-1.73.94-1.95.98-2.1.98-2.19 1.9-4.32c.6-1.38 1.16-2.67 1.69-3.76l.7-1.49.54-1.15.49-1c.07-.12.24-.2.37-.12.15.05.21.22.14.37z"/>
        <path d="m93.64 80.05-.27.53-.71 1.37-1.02 1.96-1.14 2.24-1.13 2.25-.5 1.05-.46.94-.4.8-.3.6a8.65 8.65 0 0 1-.28.52l-.03.02-.02-.04.19-.56a21 21 0 0 1 .54-1.47l.4-.96.47-1.05 1.07-2.3 1.1-2.27 1-1.95 1-1.9c.07-.13.24-.19.37-.11.14.03.2.2.12.33z"/>
        <path d="m93.4 81.28-.06.2c-.06.13-.1.32-.13.59a2.82 2.82 0 0 0-.04.4v.25l.02.27c.02.35.07.73.17 1.16a19.18 19.18 0 0 0 .37 1.36l.53 1.46.62 1.56.66 1.62.65 1.62.6 1.6.51 1.5.21.71.17.66a13.82 13.82 0 0 1 .43 2.09l.08.58.02.2-.23-.76-.26-.89-.38-1.13-.47-1.33-.56-1.47-.64-1.56-.66-1.61-.66-1.62c-.2-.55-.41-1.07-.58-1.6a19.78 19.78 0 0 1-.77-2.93l-.08-.64v-.58c0-.36.08-.68.13-.94.02-.13.08-.25.12-.34l.1-.23.12-.2z"/>
        <path d="m104.1 86.78-.39-.35-1.09-.89-.75-.54-.86-.57a21.62 21.62 0 0 0-1.96-1.1 26.13 26.13 0 0 0-1.01-.53l-1-.47-.96-.41a13.48 13.48 0 0 0-2.2-.72h-.37c-.1.02-.12.08-.12.08s.02-.06.1-.12.22-.1.4-.1c.35-.01.84.05 1.4.2a14.65 14.65 0 0 1 4 1.58l1.02.58.94.62.85.64.71.62a7.33 7.33 0 0 1 .96 1.05l.25.32.09.11z"/>
        <path d="m73.92 86.93.18-.1.53-.29.83-.41 1.1-.5.65-.26.7-.26 1.5-.5 1.63-.5 1.7-.45 1.69-.43 1.63-.43 1.5-.45c.48-.17.9-.32 1.3-.51s.75-.36 1.04-.56l.2-.15.2-.15.31-.29c.17-.18.32-.34.38-.45l.11-.17-.1.2-.13.22c-.05.07-.1.18-.2.28-.17.2-.38.43-.68.66l-.47.33-.54.32a23.12 23.12 0 0 1-4.44 1.64l-1.7.45-1.69.43-1.63.44-1.52.43-1.36.41-1.13.38-.86.32c-.45.26-.73.35-.73.35z"/>
        <path d="M91.1 80.13V80a1.23 1.23 0 0 0-.23-.3 5.62 5.62 0 0 0-1.1-.83l-.8-.49a19.36 19.36 0 0 0-1.87-1.01 53.4 53.4 0 0 0-1.04-.51l-1.03-.47c-.36-.15-.7-.3-1.04-.42a32.22 32.22 0 0 0-1.86-.63 10.8 10.8 0 0 0-1.88-.46h.53a13.48 13.48 0 0 1 3.36.64l1.08.38a26.5 26.5 0 0 1 2.12 1l.98.56c.32.19.6.4.88.58s.53.4.75.59c.45.37.81.73 1 1.03.1.15.15.28.17.38l-.02.09z"/>
      </g>
    </g>
  </g>
</svg>
