<svg xmlns="http://www.w3.org/2000/svg" fill="#d7374a" stroke="#000" viewBox="50 50 200 200">
<metadata source="http://wappenwiki.org/images/2/26/Brixen.svg" license="https://creativecommons.org/licenses/by-nc-sa/3.0"/>
  <g id="greyhoundSejant" stroke-width=".36">
    <path class="secondary" d="M80.18 136.12c.15 0 .15-.64 1.12-1.11.62-.33 1.53-.15 1.53-.15l.29-1.63-2.86-.67-2.12-.6-1.17.34s-.26.02-.44.87c-.13.6.08 1.59.35 1.59.15 0 .37-.84 1.45-1.36-.03.06-.05.2-.05.2-.18.84-.06 1.8.2 1.8.16 0 .5-.85 1.58-1.36.02-.02-.1.16-.14.4-.18.84-.02 1.68.26 1.68"/>
    <path class="secondary" d="M100.4 136.12c.15 0 .15-.64 1.12-1.11.62-.33 1.53-.15 1.53-.15l.29-1.63-2.86-.67-2.12-.6-1.17.34s-.26.02-.44.87c-.13.6.08 1.59.35 1.59.15 0 .37-.84 1.45-1.36-.03.06-.05.2-.05.2-.18.84-.06 1.8.2 1.8.16 0 .5-.85 1.58-1.36.02-.02-.1.16-.14.4-.18.84 0 1.68.26 1.68"/>
    <path d="M98.79 132.79c-.04 0-.53-.3-.91-.45-.82-.14-.88.15-.9.15-.09 0-.33-.36-.2-.7s.33-.61.76-.61c.6-.1.89-.36 1.33-.48.65-.17 1.4.26 1.89.23.49-.04-.69.8-.77 1-.07.2-1.2.86-1.2.86z"/>
    <path d="M113.4 122.95c.54-1.62.58-3.36.62-5.07.03-1.62.03-3.34-.82-4.72-1.1-1.78-3.26-2.49-5.27-3.08-1.76-.51-3.57-1.03-5.4-.87-2.27.2-2.06 1.08-2.99 2.82-.7 1.32-3.3 2.24-3.6 4.03a8.64 8.64 0 00.12 4.03 18.36 18.36 0 002.37 5.47c.63.93 1.4 1.76 2.17 2.58.37.4 1.24.93 1.76 1.12.45.17.9.23 1.35.42.26.12.55.24.81.14.05 0 .1-.03.15-.02.07.02.1.1.13.16.1.16.34.21.54.21.2-.01.4-.05.6 0 .16.05.29.15.43.24a2 2 0 001.93.05.47.47 0 01.22-.05c.23.03.44.03.67 0a.4.4 0 01.41.25c.1.26.13.6-.28.71-1.2.4-4.17.2-5.26.07-.6-.06-2.22-.57-2.85-.56-.62.01-.96.26-1.49.5-.03 0-.45-.1-.81.42a.85.85 0 00-.16.32.4.4 0 00.42.51c.33-.03.85.07 1.63.69l.08.07.04.03s.38-.25.9-.03l.05.02c.75.45.95 1.03 1.01 1.29.04.15.16.27.31.3.12.03.28.04.5 0 .23-.03.68-.17.87-.4a.4.4 0 01.36-.16c.3.03.54.2.88.28.42.1.97-.25 1.3-.02.15.1.78.2 1.2.15.9-.1 1.65-.48 2.58-.44.6.02 1.2.18 1.8.19.17 0 .34-.04.5-.12.21-.1.34-.22.6-.24.4-.05.76-.17 1.15-.25.48-.1 1.04-.03 1.53-.03.15 0 .3 0 .45-.02.42-.05.9-.32 1-.77.09-.43-.26-.87-.41-1.26-.17-.4-.1-1.02 0-1.51a.4.4 0 01.75-.1"/>
    <path class="tertiary" d="M81.32 75.79s-2.86-1.42-5.33-1.3c-2.6.13-4.08 1.38-5.51 1.45-2.68.16-2.84-.98-3.12-.97-.2.06-.1.8.23 1.07.32.28 1.19 1.07 3.05.98 2.26-.12 3.3-1.18 5.48-1.3a9.18 9.18 0 015.06 1.3"/>
    <path fill="#F6F6F6" stroke-width=".26" d="M72.24 76.03c-.08-.03-.56.79-.6 1.44l.06-.03c.24-.1.45-.12.65-.1-.08-.48-.03-1.29-.1-1.31z"/>
    <path fill="#F6F6F6" stroke-width=".26" d="M71.56 74.83c.12-.1-.42-.67-.68-1.37a.95.95 0 01-.08-.35c-.28.03-.56.1-.87.07-.06 0-.27.02-.31 0 .26.5 1.14 1.65 1.94 1.65z"/>
    <path d="M90.96 66.5c-.62-.9-.96-3.91-2.65-3.68-1.32.19-2.11.2-2.94.8a5.45 5.45 0 00-1.35 1.45"/>
    <path d="M89.57 109.56a3.3 3.3 0 01.69-3.33c.26-.27.57-.51.75-.85.31-.56.17-1.26.01-1.88-.22-.9-.5-1.78-.8-2.64-.17-.48-.37-1-.8-1.29a1.93 1.93 0 00-1.29-.23c-.87.08-1.71.35-2.55.62-1.84.58-2.63 1.3-3.68 2.92-1.09 1.7-1.82 3.47-1.8 5.32 0 1.78.06 3.52.2 5.3v.02c0 1.57 1 4.46 1 5.64-.04 4.47-.25 5.94-.25 6.8 0 .55-.12 1.63-.12 2.02l-.01.08c-.05.2-.25 1-.56 1.7l-.04.05c-.8 1.25-1.94.2-2.92 1.13a.46.46 0 01-.2.1c-.36.07-.52.44-.65.74-.13.34.11.7.2.7.02 0 .17-.28.83-.16l.11.04.66.32c.11.05.23.05.34.01.25-.1.85-.19 1.88.63l.07.07.05.03s.37-.25.89-.03l.06.02c.72.43.94.99 1 1.25.03.14.15.26.3.3.12.02.27.05.5.05.52 0 .72.08 1.13-.22.61-.45.47-.32.9-1.14 0 0 .49-1.07.49-1.98s-.38-2.39-.47-2.96c0 0-.12-.95-.18-2.25s.83-6.28 1.32-7.72c.41-1.2.99-3.4 2.19-4.3.3-.23.66-1 .85-1.43l.01-.03c.18-.53.4-1.9-.62-2.49l-.04-.02s0 0 0 0c-.36-.3 0-.87.43-.67"/>
    <path d="M102.11 115.78a4.84 4.84 0 00-1.05-.72c-1.35-.62-3.14-.85-3.14-.85s-.72-.05-.7-.48a.6.6 0 01.33-.53c.78-.37 2.82-.48 2.82-.48"/>
    <path class="secondary" d="M82.12 137.34c.16 0 .16-.65 1.13-1.12.61-.32 1.52-.14 1.52-.14l.29-1.64-2.86-.67-2.12-.6-1.16.34s-.27.02-.45.87c-.13.6.09 1.59.35 1.59.16 0 .37-.84 1.45-1.36l-.05.2c-.18.85-.06 1.8.2 1.8.16 0 .5-.85 1.58-1.36.02-.01-.1.17-.13.4-.18.85-.01 1.69.25 1.69"/>
    <path class="secondary" d="M102.82 137.34c.16 0 .16-.65 1.13-1.12.61-.32 1.52-.14 1.52-.14l.29-1.64-2.86-.67-2.12-.6-1.16.34s-.27.02-.45.87c-.13.6.09 1.59.35 1.59.16 0 .37-.84 1.45-1.36l-.05.2c-.18.85-.06 1.8.2 1.8.16 0 .5-.85 1.58-1.36.02-.01-.1.17-.13.4-.18.85-.01 1.69.25 1.69"/>
    <path d="M101.21 133.99c-.03 0-.53-.3-.91-.45-.82-.14-.88.15-.9.15-.08 0-.32-.36-.2-.7s.33-.61.76-.61c.6-.1.9-.36 1.34-.48.64-.17 1.39.26 1.88.23.5-.04-.68.8-.77 1-.07.21-1.2.86-1.2.86z"/>
    <path d="M127.14 102.3c-.1-3.58 1.17-6.18.78-6.65-.58-.09-3.18 2.8-3.18 7.9 0 11.33 7.74 15.1 7.74 21.37 0 3.51-1.92 5.8-5.17 5.8-.67 0-1.34-.1-1.97-.32a4.97 4.97 0 01-2.9-3.14 7.83 7.83 0 01-.38-1.97c-.04-.6.02-1.21 0-1.81-.04-.63-.11-1.26-.2-1.88-.45-3.2-1.96-7.34-4.06-9.8-3.56-4.18-8.44-7.21-10.97-9.64-4.67-4.48-6.78-7.02-8.77-12.06-1.25-3.14-1.74-5.73-2.32-7.66-.84-3.46-.12-6.64-.37-8.84s-.43-3.14-1.54-4.8c-1.1-1.65-1.68-1.86-2.36-2.31-1.29-.87-2.76-1.73-4.78-1.72-.73.03-1.27-.18-1.74-.19-.59-.01-1.03-.16-1.94-.02-.63.12-1.4.32-2.15.52a4.8 4.8 0 00-2.2.58c-.56.47-.6.53-.84.77-.27.19-1.17.79-2.83 1.19-1.65.4-2.16.24-3.83.57-1 .2-2.32.66-2.64.7-.32.02-1.41.15-1.76.43-.23.14-.26.5-.31.7-.05.24.1.82.37 1.1.18.26.04.5.34.82.15.18.24.24.75.57.54.35.8.93 1.49.97.25.02.8-.14 1.07-.14.65 0 2.3.4 2.69.5.6.06 1.24-.55 2.12-.56.68-.01 1.25.3 1.52.34.26.02 1.04.27 1.29.33.51.12 1.6.64 2.05.89.23.12 1.4 1.64 1.18 2.06-.22.42-2.67-.33-3.83-.2-1.18.14-1.21 0-1.7.08s-.76.32-1.2.38c-.3.03-.5.07-.8.06-.3-.02-.59.19-.89.18-.28 0-.68-.05-.98-.04-.26.01-.5.06-.74.18-.15.06-.28.2-.2.4.04.12.3.25.41.28.35.11.77.34 1.13.32.31-.05.68-.17 1.08-.18.46-.02.73 0 1.21-.05.3-.03.7.1 1.01.07.65-.06 1.46-.29 1.9-.23.43.06 1 .25 1.42.34.62.12 1.04.1 1.56.19.57.1 1.01-.01 1.5.24.96.5.32.32 1.76.47 0 0 .26 1.6-.39 3.19-1.03 2-2.04 2.2-3.01 3.5-.97 1.52-2.86 3.12-2.93 5.76a7.97 7.97 0 00-.23 6.96c.3 1.13-.08 2.37.5 3.36.49.84.9 1.74 1.45 2.56.55.82 1.04 1.42 1.7 2.14.46.5 1.2.74 1.2.74-.36 2.8-.03 5.87.06 7.12 0 1.57 1.01 4.47 1 5.65-.04 4.47-.24 5.94-.24 6.8 0 .58-.13 1.73-.12 2.05 0 0-.23.99-.59 1.78-.82 1.33-2.02.17-3.01 1.25-.45 0-.63.42-.76.75-.13.34.11.7.2.7.02 0 .19-.29.9-.14l.9.44s.6-.6 2.07.58c.01.03.07.07.07.07s.4-.27.91-.03c1.02.6 1.06 1.44 1.06 1.44s.1.18.78.18c.52 0 .72.09 1.13-.21.61-.46.47-.33.9-1.14 0 0 .49-1.07.49-1.98s-.38-2.39-.47-2.97c0 0-.12-.94-.18-2.24-.06-1.3.83-6.29 1.32-7.73.41-1.2.99-3.4 2.19-4.3.3-.22.67-1.01.85-1.45.18-.51.4-1.93-.64-2.5 0 0-.62-.45-.17-.99 3.27 1.93 7.3.28 10.23 3.18-1.87.93-2.79 1.7-3.03 3.13a9.8 9.8 0 00.48 4.28 18.36 18.36 0 002.37 5.47c.63.92 1.4 1.75 2.17 2.58.37.4 1.24.92 1.76 1.11.45.17.9.23 1.35.42.26.12.55.24.81.15.05-.01.1-.04.15-.03.07.03.1.1.13.16.1.17.34.22.54.22.2-.02.4-.05.6 0 .16.04.29.14.43.24a2 2 0 002.04-.02c.35.06.7.04 1.05-.02 0 0 .54.83-.14 1-1.2.4-4.17.19-5.26.07-.6-.06-2.22-.58-2.85-.57-.62.02-.96.27-1.49.5-.03 0-.45-.1-.81.43-.24.3-.28.95-.13.97 0 0 .6-.6 2.07.58.01.03.07.07.07.07s.4-.27.92-.03c1.02.6 1.05 1.44 1.05 1.44s.11.28.78.18c.29-.04.85-.22.95-.55.44-.1.72.17 1.15.27.42.1.97-.26 1.31-.03.14.1.78.2 1.2.16.89-.1 1.64-.48 2.58-.45.58.03 1.14.17 1.72.18.15 0 .3 0 .45-.06.28-.1.42-.26.72-.3.41-.04.77-.16 1.15-.25.48-.1 1.05-.02 1.54-.02.14 0 .3 0 .44-.03.42-.04.9-.32 1-.76.1-.44-.25-.88-.4-1.26-.3-.72.18-2.25.18-2.25.42.27.41.34.64.78.35.67 1 1.19 1.73 1.33.59.84 1.43.69 1.73.87.1.05.16.12.25.18.9.65 2.07.21 3.08.19a7.82 7.82 0 006.36-3.64 10.15 10.15 0 001.56-5.68c-.1-9.03-8.39-10.73-8.39-22.62z"/>
    <path d="M92.22 67.68c.6-.17 1.54-.2 1.9-.39.82-.44 1.75-.32 2.34-.65s3.1-.48 3.22-1.22c.13-.73-2.75-1.06-2.75-1.06s-1.67-.37-3.31-.54c-1.34-.14-2.25-.48-3.2-.1-.81.33-1.77.26-2.3 1.23-.17.31-.38.7-.58 1.01"/>
    <path fill="#F6F6F6" d="M80.85 67.94c-.13.22-.67.4-1.1.44-.44.05-.8-.06-.88-.32-.22-.46.24-1.06.51-1.04.28-.03 1.04.51 1.47.92z"/>
    <g fill="none">
      <path d="M80.06 131.38c-.03.03-.88-.1-1.24.44-.24.3-.4.94-.25.97"/>
      <path d="M98.55 133.4c0-.08.13-.64.36-.76"/>
      <path d="M101.04 113.9c1.13-.34 1.98-.74 3.8-.8 1.1-.02 2.65.36 4 1"/>
      <path d="M82 132.6c-.02.02-.88-.1-1.24.43-.24.3-.4.95-.25.97"/>
      <path d="M82.88 129.22c-.06 1.37-.39 2.81-.88 3.38"/>
      <path d="M102.71 135.25s.22-.36.65-.61"/>
      <path d="M100.97 134.61c0-.08.13-.63.36-.75"/>
      <path d="M82.02 102.7c-.08.68-.18 1.86-.07 2.87.09.8.36 1.25.23 2.03"/>
      <path d="M90.82 110.72c.76-1.73 1.84-3.61 2.02-6.65v-.27"/>
      <path d="M82.01 135.25s.22-.36.65-.61"/>
      <path d="M80.27 134.61c0-.08.13-.63.36-.75"/>
    </g>
    <g fill="#000" stroke="none">
      <path d="M88.7 68.6c0-.4-.1-.8.2-1.1.7-.8.9-1.9 1.7-2.7.7-.5 1.6-.2 2.4-.2.8.1 1.5.3 2.3.3.8-.1 1.5.2 2.3.3-.8 0-1.6-.1-2.3-.1h-1.9c-.8-.1-1.6-.4-2.4-.1-.8.5-.9 1.4-1.5 2-.4.5-.9 1-.8 1.6z"/>
      <path d="M99.75 131.2l.06.02h.07l.1.03.25.06.27.1c.18.07.35.17.47.25.12.08.18.16.18.16l-.02.02-.2-.1a3 3 0 00-.49-.15l-.26-.04h-.44v-.35z"/>
      <path d="M97.56 130.99l.05.01.13.02c.11.03.26.05.4.1s.28.1.37.17c.05.02.09.06.11.08l.04.04-.03.02-.03-.02c-.03-.01-.06-.04-.11-.05-.1-.04-.23-.05-.37-.05l-.38.01-.13.02h-.05V131z"/>
      <path d="M100.18 133.54l-.07.06-.09.06a.6.6 0 00-.1.09l-.11.1-.13.1-.14.12c-.04.04-.08.09-.13.12-.05.04-.08.09-.13.12l-.12.12-.2.23-.2.24-.04-.01s0-.13.1-.31c.04-.09.09-.2.16-.3l.12-.14.13-.13.15-.12.15-.1a.65.65 0 01.16-.09l.14-.06c.09-.04.17-.06.22-.07.1-.04.12-.04.13-.03z"/>
      <path d="M98.3 133.08l-.05.06-.15.13-.19.18-.21.21-.41.41-.2.2-.03-.02s.02-.12.1-.26a2.05 2.05 0 01.62-.68l.13-.08c.04-.02.09-.03.12-.06a.99.99 0 01.2-.07c.03-.02.07-.02.07-.02z"/>
      <path d="M80.08 131.2l.06.02c.04.02.1 0 .17.03.07.01.15.04.24.07s.17.08.25.12a1.65 1.65 0 01.42.32c.1.1.14.19.14.19l-.03.02-.04-.05-.12-.1-.19-.1c-.07-.04-.16-.06-.24-.08-.08-.03-.17-.04-.24-.05l-.22-.01h-.21l.01-.38z"/>
      <path d="M77.34 130.84l.05.02c.04 0 .07 0 .13.02.06.01.14.02.2.05l.22.08c.15.06.28.16.36.24l.09.11c.02.02.02.05.02.05l-.03.01-.04-.04a.42.42 0 00-.1-.07.85.85 0 00-.37-.12l-.2-.01h-.18l-.13.01h-.05l.03-.35z"/>
      <path d="M78.08 133.08l-.05.06-.15.13-.19.18-.21.21-.41.41-.2.2-.03-.02s.02-.12.1-.26a2.05 2.05 0 01.62-.68l.13-.08c.04-.02.09-.03.12-.06a.99.99 0 01.2-.07c.03-.02.05-.02.07-.02z"/>
      <path d="M81.62 130.34v-.1a4.1 4.1 0 00.07-.46l.03-.2c.03-.14.05-.3.06-.44.03-.14.04-.29.06-.43a.7.7 0 00.03-.2l.02-.19a5.5 5.5 0 01.06-.38l.03.1.04.28c.02.12.03.26.03.4l-.01.23-.03.23c-.01.07-.02.15-.05.22 0 .08-.03.15-.06.22a2.28 2.28 0 01-.26.62c0 .06-.02.1-.02.1z"/>
      <path d="M119.98 131.04l-.02-.03-.03-.02-.01-.01-.02-.03-.09-.13-.07-.16c-.05-.1-.08-.24-.13-.37a4.3 4.3 0 01-.13-.42l-.15-.4c-.05-.14-.1-.26-.15-.35l-.08-.14-.07-.1-.07-.06.08.06.09.08.1.12c.07.1.14.2.2.32l.2.4.2.4c.05.12.11.24.17.32a1.06 1.06 0 00.12.18l.02.01v.01l.03.03.03.01-.22.28z"/>
      <path d="M88.28 86.94s.02.1 0 .24c0 .07-.03.14-.05.22l-.06.12c-.03.04-.05.08-.09.11l-.1.1-.1.08-.1.06-.13.04c-.08.01-.15 0-.19-.03-.02 0-.04-.02-.04-.03v-.01l.05-.03c.04-.01.06-.05.1-.1l.05-.07a.36.36 0 01.06-.08c.04-.06.1-.1.14-.17l.3-.3.12-.1c.01-.04.04-.05.04-.05z"/>
      <path d="M89.63 87.78v.1l-.02.14-.04.16a.57.57 0 01-.07.18l-.1.2-.15.19-.17.18c-.06.06-.12.1-.2.15a.78.78 0 01-.2.14l-.2.1-.2.05-.16.04-.13.01h-.11l.08-.07.23-.17.15-.1c.04-.04.1-.1.15-.13l.16-.13.15-.14.16-.16.14-.16.14-.14.12-.14.18-.22.1-.08z"/>
      <path d="M77.4 91.76l.09-.16.1-.18.16-.22c.06-.08.13-.17.22-.24.08-.09.17-.16.26-.24l.28-.23.25-.27a5.62 5.62 0 01.98-.98l.5-.4-.46.44c-.13.13-.29.28-.44.46a5.24 5.24 0 00-.45.58c-.07.1-.15.22-.24.31l-.25.27-.23.24c-.07.07-.12.15-.17.22l-.12.22a.64.64 0 00-.07.17l-.06.15-.35-.14z"/>
      <path d="M108.92 113.94l.15.08.18.1.23.13.26.17.3.2.3.23.28.25.14.13.14.15.24.28.1.15.1.14.16.27c.03.08.08.16.1.24l.06.19.05.17-.06-.17c-.01-.05-.05-.11-.08-.18-.03-.07-.09-.15-.12-.23a1.95 1.95 0 00-.18-.25l-.11-.13-.12-.14-.26-.25-.15-.12-.14-.12-.3-.21-.3-.2-.29-.16-.26-.15-.23-.1-.18-.09-.16-.07.15-.31z"/>
      <path d="M111.87 131.42l.6-.08.14-.03h.11c.04 0 .07.01.1.03.15.04.24.15.32.22.16.17.32.33.5.47.2.15.4.25.6.31a41.4 41.4 0 001.2.22l-.6-.05c-.18-.01-.4-.02-.62-.07a2.22 2.22 0 01-.68-.28 3.27 3.27 0 01-.58-.44.6.6 0 00-.22-.14h-.1l-.12.03-.6.15-.05-.34z"/>
      <path d="M110.66 126.22l.07.15.08.17.11.2c.04.07.1.14.14.23l.18.24c.08.07.14.15.22.24l.24.23.26.2.27.18.26.14c.09.04.17.09.25.11l.22.09.18.06.16.04-.17.03-.2.01h-.11l-.14-.01c-.04-.01-.1-.01-.14-.03l-.16-.03-.3-.11c-.12-.05-.22-.1-.32-.17l-.3-.21a2.74 2.74 0 01-.48-.56c-.06-.1-.12-.19-.16-.3-.02-.04-.03-.1-.06-.14 0-.05-.02-.1-.04-.13l-.04-.13-.02-.12-.03-.2.03-.18z"/>
      <path d="M112.98 127.2l.05.15.11.37c.1.3.22.69.42 1.02.05.09.1.16.17.24l.18.22a1.8 1.8 0 00.4.31l.17.1.16.06.1.03.04.02h-.03l-.11.02h-.18l-.1-.01c-.04-.01-.08-.03-.13-.03a2.16 2.16 0 01-.25-.1c-.08-.04-.18-.09-.26-.16a1.43 1.43 0 01-.24-.23 2.06 2.06 0 01-.46-.89 1.3 1.3 0 01-.05-.3l-.01-.26.02-.4v-.15z"/>
      <path d="M114.28 128.97c.08.17.18.33.28.47a5.62 5.62 0 00.7.82c.06.06.12.12.2.16l.21.16.22.14a1 1 0 00.23.12c.08.04.15.08.24.11l.24.09c.16.04.33.08.5.1.17.03.35.03.53.04h.01c.06 0 .12.05.13.1l.05.18.07.15a1 1 0 00.1.15c.03.04.07.1.12.13l.07.06.07.06.07.05.09.04.18.08.1.02.09.02c-.06.02-.13.02-.2.02l-.2-.03a.53.53 0 01-.19-.07l-.1-.05-.08-.06c-.06-.03-.1-.08-.15-.13l-.15-.16-.1-.18a.72.72 0 01-.09-.2l.16.1a3.08 3.08 0 01-1.16-.08c-.1-.02-.19-.06-.27-.1l-.27-.11-.25-.15c-.08-.04-.17-.1-.24-.16l-.21-.2c-.08-.07-.15-.13-.2-.2-.14-.14-.25-.3-.36-.46-.22-.3-.37-.66-.44-1.03z"/>
      <path d="M113.67 117.52l.05.1c0 .04.03.07.03.12l.04.17v.1l-.01.1c0 .07-.03.15-.05.23-.03.07-.05.16-.1.22-.03.07-.08.14-.12.2-.18.26-.4.47-.59.61l-.21.17-.09.06.04-.1a2.1 2.1 0 01.31-.6l.25-.36.12-.16.05-.09.05-.08.08-.17c.03-.06.05-.1.06-.16.03-.04.03-.1.04-.14l.02-.12.03-.1z"/>
      <path d="M114.71 119.06l.03.08.02.23a1.47 1.47 0 01-.16.65l-.08.16-.1.14c-.07.08-.14.17-.21.23a.7.7 0 01-.2.12l-.08.03.03-.08c0-.05.04-.12.07-.2.06-.16.15-.36.25-.56l.28-.54.1-.18.05-.08z"/>
      <path d="M93.93 104.25v.12l.01.12c.01.07.02.16.05.23l.08.2.11.2.06.08.07.08.07.08.09.07.18.12.19.08c.06.03.13.04.22.05a.7.7 0 01.28.13.7.7 0 01.18.25l.05.12.04.11.14.46.13.45-.2-.1a.6.6 0 01.29 0 .8.8 0 01.42.27c.05.06.1.12.13.2.04.05.07.13.1.19l.08.19a1.31 1.31 0 00.23.35.83.83 0 01-.33-.3l-.13-.16-.12-.17a1.2 1.2 0 00-.27-.24.4.4 0 00-.16-.05h-.07l-.06.02c-.09.02-.17-.02-.2-.1v-.01l-.16-.45-.16-.44-.03-.1-.04-.1a.37.37 0 00-.08-.14.27.27 0 00-.15-.06l-.24-.08a1.5 1.5 0 01-.24-.12 1.38 1.38 0 01-.29-.26l-.08-.11-.07-.11a1.44 1.44 0 01-.2-.59c0-.08 0-.17.02-.25l.02-.12.04-.1z"/>
      <path d="M97.58 109.2v.06c0 .03 0 .07.02.12l.08.16.16.18c.13.11.31.22.52.27l.08.02.08.01.17.04.37.06c.14.02.27.05.39.1l.19.07a.2.2 0 01.08.05c.03 0 .06.03.09.04.21.14.38.3.51.44.14.13.24.25.33.32l.13.12s-.06-.01-.17-.06c-.1-.05-.25-.12-.4-.23-.17-.1-.35-.21-.55-.31l-.07-.04-.08-.03-.16-.05-.35-.07-.37-.07-.19-.05c-.04-.01-.06-.03-.1-.03-.03 0-.04-.02-.08-.03-.25-.1-.44-.27-.56-.43a.95.95 0 01-.12-.26c-.03-.08-.03-.15-.03-.21s.01-.11.03-.13v-.05z"/>
      <path d="M81 104.84v.13l.03.15.03.19.06.21.09.24a4.99 4.99 0 00.98 1.6l.09.1-.28.22-.08-.1-.2-.3a5.37 5.37 0 01-.46-.94l-.17-.54c-.03-.08-.04-.17-.05-.25l-.04-.23v-.34c-.02-.1 0-.14 0-.14z"/>
      <path d="M119.54 120.43l.03.24a5.52 5.52 0 01.09 1.02l.02.45.01.5v.5l-.01.5-.01.5-.03.45v.4c.02.24.06.44.12.57.03.08.06.12.09.16l.03.05-.04-.04c-.02-.01-.04-.02-.06-.05l-.08-.07a1.5 1.5 0 01-.26-.59 4.42 4.42 0 01-.06-.42l-.02-.46-.02-.5v-.5c0-.17 0-.34.02-.5v-.5l.03-.45.04-.41.07-.61.04-.24z"/>
      <path d="M118.31 121.3l-.03-.14c-.03-.08-.05-.2-.08-.35l-.22-1-.27-1.01a2.08 2.08 0 00-.1-.34l-.03-.13.1.1.1.11.11.17c.09.12.17.28.24.45l.11.26a2.6 2.6 0 01.14.58l.04.28.01.27-.01.24-.02.2-.04.16-.05.14z"/>
      <path d="M102.17 132.4l.06.02h.07l.1.03.25.06.28.1c.18.07.35.17.47.25.12.08.18.16.18.16l-.03.02-.2-.1a3 3 0 00-.48-.15l-.27-.04h-.44l.01-.35z"/>
      <path d="M99.99 132.2l.05.01.13.03c.1.02.25.04.4.1.14.04.27.1.37.16l.1.08.04.04-.02.02-.04-.02-.1-.05a1.4 1.4 0 00-.38-.05c-.13 0-.28 0-.37.02h-.13c-.04 0-.05.02-.05.02v-.36z"/>
      <path d="M103.1 134.61a.45.45 0 010-.18.7.7 0 01.02-.17 1.06 1.06 0 01.22-.46l.12-.14.13-.1.13-.09a2.2 2.2 0 01.6-.26c.06-.01.1-.03.17-.03h.17a.7.7 0 01.16.03c.06.01.11.02.17.05h-.01l.22.07.2.08.2.1c.08.03.14.07.2.12l.18.14.15.16c.05.06.1.12.13.18.04.06.08.13.1.2l-.04.01-.3-.27-.18-.12a.36.36 0 01-.08-.06l-.08-.05a1.31 1.31 0 00-.18-.1c-.06-.02-.12-.06-.2-.08a1.18 1.18 0 00-.19-.06l-.2-.05h-.01a.43.43 0 00-.12-.02l-.12-.01h-.12l-.12.03c-.17.05-.34.13-.48.23l-.12.08a.6.6 0 00-.1.09l-.08.08c-.03.04-.05.06-.06.1a.74.74 0 00-.09.23l-.01.12v.12l-.38.03z"/>
      <path d="M104.81 133.2l.16-.05.19-.06.26-.05.32-.04h.34l.36.03c.12 0 .26.03.38.05l.36.07c.12.02.24.06.34.1l.33.1.27.11c.17.07.32.14.4.2l.14.1v.04l-.6-.15a12.66 12.66 0 00-.6-.14l-.34-.07c-.12-.03-.24-.04-.35-.05l-.35-.04-.34-.01-.3.01-.28.04-.23.05c-.07 0-.13.03-.18.04l-.16.05-.12-.33z"/>
      <path d="M104.81 135.62l-.36.08c-.05.02-.1.04-.17.05l-.18.06a.9.9 0 00-.18.09c-.06.02-.12.06-.18.1l-.16.11-.16.13-.28.24-.27.26-.04-.03s.05-.14.18-.33a2.15 2.15 0 01.42-.46c.06-.05.11-.1.2-.14a.9.9 0 01.21-.11c.07-.04.14-.05.22-.07.07-.03.14-.03.2-.04l.18-.01c.23.02.38.06.37.07z"/>
      <path d="M102.6 134.76l-.07.06c-.02 0-.05.03-.08.06a.6.6 0 00-.1.08c-.03.04-.07.06-.12.1l-.13.1-.13.12-.13.12-.14.12a.46.46 0 01-.12.12l-.2.23-.2.24-.04-.01s.01-.13.1-.31l.16-.29.12-.14.14-.14.14-.12.16-.1c.04-.04.1-.06.15-.09l.15-.06.21-.07c.1-.04.12-.04.13-.02z"/>
      <path d="M100.72 134.29l-.05.06-.14.13-.2.18-.21.22c-.14.14-.3.28-.4.4l-.2.2-.04-.02s.03-.12.1-.26c.04-.07.08-.16.16-.24a2.05 2.05 0 01.46-.44l.14-.08.12-.06a.99.99 0 01.19-.07c.03-.02.07-.02.07-.02z"/>
      <path d="M122.32 133.12l-.04-.06-.08-.16a4.8 4.8 0 01-.2-.52 1.2 1.2 0 01-.04-.29v-.13l.01-.12c0-.04.03-.07.03-.1l.03-.07.04-.06-.01.06c-.02.03-.02.05-.02.07v.1c0 .04 0 .07.02.1 0 .04 0 .1.03.13.03.08.06.17.11.25.08.17.2.32.28.43l.1.13a.2.2 0 01.04.05l-.3.2z"/>
      <path d="M107 129c1 0 1 1 1 1l-1-1z"/>
      <path d="M110.32 130.54l.25.16c.16.1.36.22.55.36a1.9 1.9 0 00.56.29c.08.02.15.05.2.05h.07l-.1.36-.09-.04a2.67 2.67 0 01-.48-.28c-.1-.07-.18-.15-.28-.24l-.48-.45-.2-.2z"/>
      <path d="M112.95 135.45l.08-.01.1-.01c.03-.01.07-.01.1-.03.04 0 .09-.02.14-.04.05-.03.1-.04.14-.08a1 1 0 00.15-.1c.04-.03.1-.06.14-.11l.26-.25.14-.12.12-.11.1-.07.09-.05.08-.04-.07.05a.32.32 0 00-.07.06l-.1.1-.1.12-.09.14-.23.31-.13.16-.14.13c-.05.05-.11.07-.16.1a.9.9 0 01-.14.1.73.73 0 01-.15.05l-.1.04-.08.02-.08-.36z"/>
      <path d="M115.85 135.38l.05-.04.12-.1a11.47 11.47 0 01.74-.64l.15-.08.06-.03s-.03.01-.05.04l-.1.1c-.1.1-.2.25-.3.4l-.26.42-.1.15-.03.04-.28-.26z"/>
      <path d="M109.17 135.81v-.02l.01-.03.02-.06c.02 0 .02-.02.03-.03l.02-.03c.01 0 .04-.03.05-.06l.12-.1c.18-.11.42-.18.66-.26l.35-.1c.1-.03.21-.05.29-.09.08-.03.14-.08.19-.12.02-.01.03-.03.05-.03v-.02.03s-.03.02-.04.05l-.17.15c-.07.06-.18.11-.27.16l-.33.15c-.21.11-.43.23-.54.34a.32.32 0 00-.06.07l-.01.03v.06l-.37-.09z"/>
      <path d="M82.74 99.1l-.02-.08c-.01-.05-.04-.1-.05-.2l-.06-.3c-.01-.12-.03-.26-.03-.41-.02-.15 0-.31 0-.48s.04-.35.08-.53a5.57 5.57 0 01.37-1.12l.15-.26.15-.25a8.38 8.38 0 011.58-1.64l.22-.16-.17.2-.45.54c-.1.11-.2.23-.29.36l-.31.41c-.11.14-.2.3-.3.46l-.15.24-.12.25c-.08.17-.15.33-.21.51l-.17.52c-.05.17-.08.34-.1.5l-.08.45-.04.38v.6z"/>
      <path d="M89.43 106.77l.1-.1c.08-.05.16-.14.28-.23.23-.2.5-.47.77-.76l.37-.43c.06-.07.11-.15.17-.2l.13-.19c.06-.12.09-.24.11-.32l.02-.14s.03.04.05.14c.01.05.03.1.03.17 0 .06 0 .14-.02.23s-.06.18-.1.25l-.12.25-.17.25a1.6 1.6 0 01-.2.24c-.08.07-.15.16-.23.22l-.24.19-.24.16-.23.12c-.15.07-.27.1-.35.13l-.13.02z"/>
      <path d="M88.31 107.28l-.08-.03a.94.94 0 01-.42-.31.98.98 0 01-.2-.4c0-.02 0-.06-.02-.08l-.02-.17.01-.3c.01-.09.04-.15.05-.2.01-.05.03-.07.03-.07l.04.07.08.19.09.26c.01.05.02.1.05.15l.02.07.02.07c.06.18.15.36.22.5.04.08.07.14.08.19.04.03.05.06.05.06z"/>
      <path d="M86.86 106.6h-.07a.27.27 0 01-.18-.1 1.06 1.06 0 01-.28-.44c-.06-.16-.1-.34-.1-.48 0-.07 0-.13.02-.16l.01-.08.06.05.12.13c.08.11.18.27.24.44l.07.25a6.85 6.85 0 00.09.35l.02.03z"/>
      <path d="M85.62 106.16l-.06-.06c-.03-.04-.1-.1-.14-.17a1.1 1.1 0 01-.16-.26l-.12-.33c0-.06-.02-.12-.03-.16l-.01-.17v-.3c0-.08.04-.17.06-.22l.03-.08.04.07.08.2c.06.15.12.36.18.58.05.22.1.43.12.6.01.08.01.16.03.22l-.02.08z"/>
      <path d="M84.28 104.82a.93.93 0 01-.2-.3l-.04-.16-.02-.17a1.14 1.14 0 01.07-.51l.07-.16v.08a.36.36 0 01.02-.25c.04-.07.09-.14.16-.17v.11l.01.09c.01.06.04.1.06.13l.01.01v.07l-.06.59c0 .1 0 .2-.02.3a.7.7 0 01-.02.16c-.03.06-.03.12-.04.18z"/>
      <path d="M82.97 99.8l-.06.12-.14.31a8.05 8.05 0 00-.54 2l-.04.34a.6.6 0 01-.01.13l-.36-.03.02-.13.08-.35a8.13 8.13 0 01.78-1.98l.18-.3c.07-.06.1-.11.1-.11z"/>
      <path d="M92.67 103.8l.01-.17.02-.43a12.4 12.4 0 00-.16-2.62l-.11-.59s.07.23.15.58a16.86 16.86 0 01.4 2.62l.04.44v.17h-.35z"/>
      <path d="M90.23 114.13v-.1l-.01-.1-.02-.14-.1-.3-.13-.36a1.68 1.68 0 00-.15-.3l-.08-.1h-.04c.02 0 0 0 0 0l-.02-.02a.1.1 0 00-.06-.02.74.74 0 01-.24-.13c-.05-.05-.05-.1-.05-.1l.03.01.06.03c.06 0 .13 0 .24-.02h.13l.06.02a.7.7 0 01.2.12c.12.1.2.25.25.4l.04.1.02.1c.02.07.04.13.04.2.02.13.02.26 0 .38a.4.4 0 01-.05.15c-.01.05-.03.07-.06.1-.03.07-.06.08-.06.08z"/>
      <path d="M87.04 122.88l-.02-.06-.06-.2c-.05-.16-.1-.4-.1-.7 0-.15 0-.32.02-.48.02-.17.04-.35.08-.53a9.87 9.87 0 01.28-1.12l.16-.55.16-.53c.04-.17.1-.33.13-.5l.1-.46.08-.68v-.27l.07.27a3.61 3.61 0 01.02 1.19c-.02.16-.04.34-.08.52s-.07.36-.13.56l-.16.56c-.06.18-.1.37-.17.55l-.14.53-.12.5c-.04.16-.06.32-.08.46a3.65 3.65 0 00-.03.88l-.01.06z"/>
      <path d="M82.02 132.42h.06l.17.04c.07.02.16.04.24.08l.25.12a1.65 1.65 0 01.42.3l.15.2-.04.02-.03-.04-.12-.1-.2-.1-.24-.1-.24-.04-.21-.01H82l.01-.37z"/>
      <path d="M79.29 132.06h.05c.03.02.07.02.13.03l.2.05.22.08c.14.06.27.16.36.24l.08.11c.03.03.03.05.03.05l-.04.01-.04-.03a.42.42 0 00-.1-.08.85.85 0 00-.36-.12h-.57l.04-.34z"/>
      <path d="M82.4 134.61a.45.45 0 010-.18.7.7 0 01.02-.17 1.06 1.06 0 01.22-.46l.12-.14.13-.1.13-.09a2.2 2.2 0 01.6-.26c.06-.01.1-.03.17-.03h.17a.7.7 0 01.16.03c.06.01.11.02.17.05h-.01l.2.06a.6.6 0 01.2.08l.1.05.1.05.1.06.08.06.08.07.09.07c.05.05.1.1.14.17a.6.6 0 01.11.19c.02.06.06.13.06.2l-.04.02c-.08-.11-.16-.2-.26-.3l-.07-.05-.07-.06-.16-.11-.08-.05a.2.2 0 01-.09-.05l-.08-.03-.09-.04-.18-.06-.19-.05h-.01a.43.43 0 00-.12-.02l-.12-.01-.12.01-.12.02c-.17.05-.34.14-.48.23l-.12.09a.6.6 0 00-.1.08l-.08.08c-.02.04-.05.06-.06.1a.74.74 0 00-.08.23c-.02.03-.02.08-.02.12v.12l-.4.02z"/>
      <path d="M84 133.3l.04-.07c.01-.02.02-.05.05-.07l.06-.08.31-.41.13-.23a.85.85 0 00.09-.22c0-.03 0-.06.02-.1l.01-.06V132l.01.06.02.07v.1c0 .07-.02.15-.04.25l-.08.27c-.08.18-.16.35-.2.48a.59.59 0 01-.04.09l-.03.06-.02.06-.33-.15z"/>
      <path d="M84.11 135.62l-.36.08c-.05.02-.1.04-.17.05l-.18.06a.9.9 0 00-.18.09c-.06.02-.12.06-.18.1l-.16.11-.16.13-.28.24-.27.26-.04-.03s.05-.14.18-.33a2.15 2.15 0 01.42-.46c.06-.05.11-.1.2-.14a.9.9 0 01.21-.11c.07-.04.14-.05.22-.07.07-.03.14-.03.2-.04l.18-.01c.23.02.37.06.37.07z"/>
      <path d="M81.9 134.88l-.06.06-.16.13-.11.08c-.04.04-.09.06-.12.1l-.13.1-.14.11-.13.11-.12.11a.4.4 0 01-.12.1l-.1.1-.15.16-.06.06-.04-.01.03-.09.1-.2c.04-.08.1-.17.17-.26l.27-.26.14-.1.16-.1c.1-.06.2-.1.29-.13.08-.04.15-.05.21-.06l.07-.01z"/>
      <path d="M80.02 134.29l-.05.06-.14.13-.2.18-.21.22c-.14.14-.3.28-.4.4l-.2.2-.04-.02s.03-.12.1-.26c.04-.07.08-.16.16-.24a2.05 2.05 0 01.46-.44l.14-.08.12-.06a.99.99 0 01.19-.07c.03-.02.07-.02.07-.02z"/>
      <path d="M79.94 93.4l-.08.04a.79.79 0 00-.19.14 1.5 1.5 0 00-.23.3c-.07.11-.14.26-.2.41-.07.17-.12.34-.18.54-.04.1-.06.2-.08.3l-.09.31a17.3 17.3 0 00-.23 1.01l-.06.35-.06.35c0 .12-.02.23-.04.35-.03.22-.05.45-.06.68-.02.1-.02.22-.03.32l-.01.32-.01.57.01.5.01.37.01.32-.08-.32a9.12 9.12 0 01-.22-1.46v-.66c0-.22 0-.46.03-.7l.03-.35.05-.36.07-.36c.03-.12.05-.24.09-.35.06-.23.12-.46.19-.67l.1-.31.13-.3a3.72 3.72 0 01.54-.96c.1-.12.2-.2.3-.26.1-.06.17-.08.23-.1l.06-.02z"/>
      <path d="M83.57 131.55l.01-.1a4.1 4.1 0 00.06-.46l.04-.2.06-.44.06-.43.02-.2.03-.18a5.5 5.5 0 01.06-.39l.02.11c.01.06.04.16.05.28l.02.4v.22l-.03.23-.05.23-.06.21a2.28 2.28 0 01-.26.63.88.88 0 01-.03.1z"/>
      <path d="M79.43 67.15c.12 0 .13.29.15.61 0 .32.02.55-.1.55s-.31-.23-.32-.55c-.03-.31.14-.61.27-.61z"/>
      <path d="M71.8 70.9c.7 0 1.3.2 1.8.7a4 4 0 01-1.8-.7z"/>
      <path d="M78.71 71.89l.03.02.04.06.09.09.1.08c.17.12.43.24.7.37l.2.11.2.12c.12.08.23.18.3.26l.18.22.06.1-.11-.04-.26-.1-.35-.16-.2-.1-.2-.1c-.13-.07-.27-.14-.4-.24a1.06 1.06 0 01-.35-.46c-.03-.05-.03-.1-.04-.14v-.08l.01-.01z"/>
      <path d="M85.2 75.1c.9.1 1.4.6 1.8 1.4-.6-.5-1.2-.9-1.8-1.4z"/>
      <path d="M81.7 67.8c.6-.1.9.3 1.2.6-.5 0-1-.3-1.2-.6z"/>
      <path d="M81.3 69c-.2.3-.3.5-.5 1.2-.2-.8 0-1 .5-1.2z"/>
      <path d="M80.94 67.78l.04.04a5.04 5.04 0 00.42.29l.34.2c.1.06.14.11.14.11l-.17-.06a8.95 8.95 0 01-.78-.22l-.13-.04-.05-.03.2-.29z"/>
      <path d="M78.7 66.2c-.1.3.5.6.9.4.6-.2 1.3-.3 1.8.2-.4-.1-1-.2-1.5.1-.4.1-1.1.4-1.3-.2-.1-.2.2-.7.1-.5z"/>
      <path d="M78.3 68c.3.9-.2 1.2-.7 1.4.3-.4.6-.8.7-1.4z"/>
      <path d="M66.8 71.1c.2 0 .4-.2.5-.4.1-.2.1-.4.2-.5.2-.2.3-.2.6-.1-.2.1-.4-.1-.5.1-.1.1-.1.4-.1.6 0 .3-.2.5-.4.6-.2.1-.3-.1-.3-.3z"/>
      <path d="M67.9 71.2c0-.3.2-.5.4-.5.2.3-.4.6-.4.5z"/>
      <path d="M87.71 66.06l-.03.04-.1.15a1.8 1.8 0 01-.14.24c-.04.05-.06.1-.11.14l-.12.12a1.3 1.3 0 01-.55.28l-.2.03h-.07l.07-.02.18-.07c.15-.06.32-.2.45-.35l.08-.12.06-.12c.04-.08.06-.18.09-.25.02-.09.06-.15.08-.2l.05-.08.26.2z"/>
      <path d="M89.7 68.9c.2-.4.4-.9.6-1.4.2.9.1 1.2-.6 1.4z"/>
      <path d="M92.3 67.84l-.11.04-.1.04c-.03.02-.08.03-.13.07a.9.9 0 00-.28.24c-.1.1-.16.23-.24.37a2.8 2.8 0 00-.23.83l-.03.4-.02-.41V69a2.21 2.21 0 01.3-.94c.1-.13.2-.25.3-.34l.15-.1.13-.08.1-.04.16.34z"/>
      <path d="M83.93 79.18l.07.02.17.03a4.7 4.7 0 001.35.1l-.24.07a5.08 5.08 0 01-1.12.14h-.26l.03-.36z"/>
    </g>
  </g>
</svg>
