<svg xmlns="http://www.w3.org/2000/svg" fill="#d7374a" stroke="#000" viewBox="50 50 200 200"><metadata license="https://creativecommons.org/licenses/by-nc-sa/3.0" source="http://wappenwiki.org"/><g id="horseSalient" stroke-width=".35"><path d="M123.62 140.48c.01.4.1 1.24-.58 1.8-.9.77-5.13 2.7-7 1.11-.54-.41 1.62-1.97 2.01-4.21.2-.85 2.87.12 2.87.12s2.71.84 2.7 1.18zm-7.93-1.18c-.04.41-.08 1.25-.82 1.7-1 .64-5.46 1.97-7.09.14-.46-.5 1.9-1.73 2.59-3.9.3-.8 2.81.51 2.81.51s2.57 1.24 2.51 1.56zM65.02 94.02c.3.27.96.8.9 1.66-.07 1.17-1.61 5.58-4.06 5.83-.65.08-.28-2.54-1.64-4.38-.46-.73 2.06-1.97 2.06-1.97s2.5-1.37 2.74-1.14z" class="secondary"/><path d="M84.38 87.28c-1.01-.27-8.84-2.64-10.17-3.71-1.85-1.21-2.36-2.66-3.62-2.69-.42 0-.71.5-1.6 1.1-.54.36-1.46.52-1.8.89-.88.96-.95 1.74-1.77 2.9-.53.73-1.54 2.04-2.29 2.43-.76.4-1.66 1.11-1.96 3.18-.18.95-.1 2.2-.38 3.1-.27.89-1.02 2.03-.62 2.67 1.49-1.58 5.11-2.92 5.11-2.92s.35-.58.17-.8c-.47-.6-1.21-.07-1.33-.53-.22-.37-.26-.8.1-.9.67-.31 1.03.39 1.6-.01.22-.18.28-.32.28-.48.05-.6-1.23-1.21-.52-2.02.15-.28 1.04-.88 1.81-1.86.95-1.1 1.03-1.76 1.51-1.95.8.14 1.29-.34 1.6-.27 1.07.27 2.32 2.74 3.52 4.71.69 1.12 5.77 5.2 7.08 6.01m-.35-33.91a6.23 6.23 0 01-.83-4.24c1.17 1.93 2.71 2.42 3.91 3.53"/><path d="M138.48 93.19a8.06 8.06 0 00-1.57-5.51 2.32 2.32 0 01-.53-1.86c.04-.57.33-1.15.84-1.41.38-.2 1.26-.4 1.82.18.04-.54-.32-.92-.72-1.13-.59-.33-1.56-.2-2.16.1a3.1 3.1 0 00-1.59 2c-.18.7-.1 1.4-.01 2.13-1.46-.88-1.98-2.91-1.4-4.52.5-1.35 1.61-2.01 2.61-2.96a5.52 5.52 0 001.34-1.67c.35-.76.35-1.66 0-2.4s-1.03-1.35-1.83-1.59c.54.44.9 1.1.95 1.78.13 1.57-1 2.28-2.18 2.95-1.34.76-2.68 1.12-3.72 2.36a6.78 6.78 0 00-1.09 1.94c-.32.83-.32 2.02-.32 2.02-.71-.73-.8-1.23-.8-2.25 0-1.28.85-2.4 1.82-3.24.96-.84 2.07-1.54 2.9-2.5 1.23-1.44 1.96-3.13 1.02-4.66 0 0 .89-1.9-.29-3.32 0 0 .43-2.45 2.51-2.45 1.13 0 2.08 1.07 2.05 2.2a2.88 2.88 0 00-1.14-4.12 3.52 3.52 0 00-3.1.03c-1.18.58-1.9 1.83-2.26 3.04-.16.52-.26 1.07-.43 1.6-.65 2.13-2.07 3.45-3.55 4.77l.27-.75c.23-.68.44-1.4.38-2.1a2.94 2.94 0 00-1.16-2.12 2.94 2.94 0 00-2.37-.5c.68.12 1.31.53 1.7 1.1.86 1.31.37 2.6-.5 3.64-2.15 2.54-2.93 4.68-3.2 7.03-.3 2.61.08 5.2 1.45 7.45 1.68 2.79 5.1 3.8 7.79 5.66a4.92 4.92 0 012.18 4.18c0 2.45-1.36 4.6-3.3 4.6-2.73 0-4.33-2.24-6.44-3.7-1.25-.84-3.74-3.01-9.28-3.6-2.73-.34-9.49-1.31-12.36-2.94-3.92-2.2-5.45-5.58-5.45-8.12.17-.16 1.25-.93 1.24-2.86.99.88.83 2.07.88 2.15.05.07.71-.34.93-1.54.21-1.2-.54-1.79-.62-2.48-.07-.56.17-.71.13-1.46-.04-.68-.6-1.32-.6-1.32s.65.31 1.31.17c.68-.14.79-.69 1.19-.74.29-.03.6.23.67.16.05-.07-.14-.7-.62-.8s-.88.23-1.05.2c-.63-.11-.98-1.05-.95-1.24.11 0 1.27 0 1.48-1.17.11-.7-.5-1.23-.61-1.15-.12.08.1 1.2-.6 1.08-.46-.08-.58-.3-.59-.38-.07-.6 1.32-2.61-.97-3.96-.14-.09-.3-.17-.46-.24.74-.24 1.37-.64 1.6-1.75.22-1.28-1.34-2.11-1.41-1.94-.08.16.46.38.36.97-.07.38-.27.6-.65.53-.55-.1-.66-1.53-1.35-2.17a5.39 5.39 0 00-1.62-.88c-.43-.14-.92-.5-.95-.64.06.04.6.43 1.41.57.79.14 1.43-.57 1.54-1.19.1-.57-.32-1.08-.42-1.08-.1.01.05 1.32-.87 1.19-.6-.1-.68-1.21-1.58-1.83-.86-.6-2.09-.3-2.22-.44.06.03.44-.2.61-1.14.18-1-1.43-1.78-1.56-1.57-.06.05.98.82.5 1.45s-1.11-.07-1.66.31c-.55.38-.8.96-.83.95-.5-.08-.64-1.17-1.64-1.35s-1.57.62-1.57.62-2.42-1.82-3.1-3.42a5.82 5.82 0 00.1 3.4c-.68-.78-2.44.64-2.55.81-.57-.1-.92-.63-1.7-.25-.79.38-.34 1.15-1.07 1.02-.74-.13-.74-1.62-2.32-1.32-.08.04.45.2.77.72.42.67.59 1.72 1.24 1.84 1.03.18 1.14-.6 1.94-.45.61.16.97.59.95.58-.68 1.1-1.35 1.04-1.99 1.66-.6.55-.33 1.45-1.41 2.16-1.12.74-2.1 1.34-3.34 2.19-1.26.84-1.15.72-1.41.88-.7.39-1.24.33-1.63.85-.38.46-.14 1.32-.24 1.9-.09.6-.28.95-.27 1.58 0 .3 0 .6.18.94.21.37.63.58 1.07.53.9-.1 1.73-1.3 2.77-1.47.17-.02.33-.01.42.08s.1.28-.13.5-.5.31-1.15.64c-.68.35-1.1.68-1.2.9-.06.15-.1.35.08.5.22.16.57-.1.57-.1s.23-.1.55.05c.2.09.75.19 1.1 0 .44-.24.38-.57.9-.98.48-.34 1.2-.5 1.86-.7 2.08-.49 2.96-.47 2.96-.47s1.14.52 2.7.39c.95-.09 2.3-.62 2.3-.62s.46.57.39 1.65c-.16 1.46-.81 2.4-1.7 3.54-1.5 2-2.34 2.1-3.48 3.25-.94.95-1.12 1.8-1.27 1.93-1.21.77-2.8 3.3-2.52 6.75 0 3.98 2.08 6.86 2.08 6.86s-1.15 1.56 1.05 4.3c4.95 6.32 11.8 8.2 19.38 7.24 5.78-.46 10.5.44 11.72 2.08.13 1.11.11 2.25.33 3.36.21 1.1.98 2.98 1.9 3.63a6.25 6.25 0 003.38 2.38c3.09 1.14 5.73 1.8 6.13 2.9.52 1.13.58 3.21.51 4.7-.51 2.45.32 4.56-.15 5.27-.49.71-1.48.37-1.74 2.54-.06.51-.32.97-1.15 1.4-.83.42-1.35.67-1.53 1.4 2.17-.02 5.65 1.65 5.65 1.65s.65-.15.7-.44c.1-.74-.84-1.53-.78-2 .06-.45.12-.62.56-.86.67-.34.8.37 1.33-.02.3-.24.36-.49.42-.8.04-.6-1.09-1.07-.83-2.4 0-.34-.16-1.48.09-2.73.23-1.2-.02-2.5.28-2.93.45-.52 1.07-1.53 1.38-2.13.65-1.53.15-2.38.4-2.75.9-.46 1.24-1.36.75-2.34-.4-.69-1.94-.57-3.17-1.24-1.24-.66-1.28-1.5-1.28-2.37 0-1.28 1.6-4.51 2-6.6.51-2.8.43-6.06-.25-8.2 1.18 1.07 2.89 3.15 5.74 3.15 4.49 0 7.3-2.8 8.31-5.2.57-1.36.66-2.28.66-3.75 0-1.73-.34-2.74.13-3.67a1.25 1.25 0 011.74-.66c-.37-1.81-3.16-.93-3.44.4z"/><path d="M65.85 102.28c.31.25 1.01.73 1 1.6 0 1.18-1.27 5.67-3.7 6.07-.65.12-.45-2.51-1.9-4.27-.5-.7 1.94-2.1 1.94-2.1s2.41-1.52 2.66-1.3z" class="secondary"/><path fill="none" d="M81.62 93.24s1.8-.86 2.58-.77"/><path d="M81.6 93.26c-.64-.22-.92-.29-1.58-.45-1.02-.22-4.27-.57-5.65-1.56-1.93-1.1-2.52-2.5-3.78-2.46-.42.01-.68.55-1.53 1.2-.51.4-1.43.6-1.74.99-.82 1-.84 1.8-1.58 3-.48.76-1.4 2.13-2.13 2.58-.73.45-1.6 1.22-1.76 3.3-.12.96.02 2.2-.2 3.12-.2.92-.88 2.1-.44 2.7 1.38-1.65 4.91-3.23 4.91-3.23s.31-.6.12-.82c-.5-.57-1.2.02-1.35-.44-.24-.36-.31-.78.03-.9.66-.36 1.06.33 1.62-.11.2-.2.25-.33.25-.5.01-.6-1.3-1.13-.64-1.98.13-.29.98-.94 1.7-1.99.87-1.16.91-1.81 1.39-2.04.8.1 1.25-.43 1.57-.38 1.09.2 2.49 2.6 3.8 4.48.76 1.08 2.83 2.3 4.2 3.04 1.15.63.61.63 1.77 1.27.28.15.45 0 .89.1.44.09.38-.23.53-.25"/><path fill="none" stroke-width=".2" d="M84.74 73.94c.4-.17.63-.54 1.12-1.4.3-.6.57-1.72.62-2.3"/><path fill="none" d="M87.25 61.7c2.87.85 6.41 3.14 8.45 8.41"/><path d="M108.61 108c.6 2.27-1.56 5.46.31 9.2a12.53 12.53 0 002.76 2.98c1.04.82 3.37 2.02 3.8 3.29.34 1.12.78 3.24.4 4.6-.6 2.14-.08 3.69-.68 4.33-.58.63-1.3.33-1.84 2.45-.13.5-.45.92-1.34 1.22s-1.44.47-1.72 1.16c2.15.27 5.37 2.41 5.37 2.41s.48-.13.57-.4c.19-.67-.45-1.58-.31-2.03.12-.44.08-.9.58-1.1.76-.26 1.08.4 1.75.04.38-.21.48-.48.6-.8.13-.66-1.2-1.05-.76-2.35.05-.32-.19-1.28.21-2.5.4-1.16.35-2.47.7-2.87.48-.54.84-1.05 1.2-1.66.73-1.59.3-2.2.61-2.53 1.01-.33 1.5-1.2 1.16-2.3"/><path fill="none" d="M95.9 84.1c-.43.46-1.05.93-1.05.93-.17.14-.1.27 0 .3 1.44.35 2.52-.77 2.52-.77"/><path fill="#f1f0ee" stroke-width=".3" d="M79.73 65.83c.73.34 1.43 1.04 1.43 1.04s-.93.6-1.53.44c-.73-.25-.87-.6-.87-.6s.15-.33.38-.58c.21-.21.5-.35.6-.3z"/><g fill="#000" stroke="none"><path d="M125.52 128.9c-1.15 1.8-.6 4.19-1.66 5.91.8-1.9.51-4.26 1.38-6.08l.28.18zm-2.38 8.98c-.26.55-.87.67-1.41.82.27-.54.88-.64 1.41-.82zM85.52 81.23c1.28-1.1 2.37-2.3 4.15-2.46-2.13.24-2.6 1.92-4.15 2.46zm5.32-3.63a8.6 8.6 0 001.96-1.61 3.92 3.92 0 01-1.96 1.61zm43.89 10.06c.24 1.75.91 3.57.27 5.25.37-1.81-.35-3.45-.62-5.2zm3.91 5.58c-.57 1.79.83 3.62.11 5.32.38-1.88-.94-3.61-.45-5.42zm-9.55-7.64a7.5 7.5 0 001.79 4.43 6.51 6.51 0 01-2.16-4.42h.37zm4.33-4.24c-2.06 2.35-1.7 5.38-1.12 7.59-1.44-3.44-1.2-5.32 1.12-7.6zm2.11 5.67c.92 3.23 2.42 5.28 1.25 8.7 1.2-2.5-1.6-7.06-1.25-8.7zm-8.75 2.26c.97.97 2.31 1.22 3.5 1.65 5.19 1.78 7.53 10.33 2.21 12.64a2.9 2.9 0 01-1.3.22c.45-.02.88-.13 1.26-.32 4.95-3.2 2.34-10.37-2.23-12.34-1.28-.49-2.57-.87-3.44-1.85z"/><path d="M132.07 104.53a8.13 8.13 0 003.49-2.48 3.87 3.87 0 01-3.49 2.48zm1.94-31.51c-.4.92-.8 1.84-1.58 2.38-4.08 2.31-6.99 4-7.34 8.58-.04-4.8 3.83-6.82 7.14-8.87a5.32 5.32 0 001.44-2.22v-.01c.03-.1.13-.14.22-.1s.16.15.12.24zm-5.49 2.33c2.03-2.41 4.73-2.01 4.86-5.74 0-.1.09-.17.2-.16.09 0 .17.08.16.19.02 4.1-3.16 3.22-5.22 5.71zm-.76-.5c-2.06 1.57-3.62 4.04-3.83 6.5a9.04 9.04 0 013.64-6.8c.08-.06.19-.03.24.05s.03.2-.05.25zm-17.94 31.21c.42.02.6.22.7.56-.39 0-.6-.22-.7-.56zm1.1-1.04c.61.3.9.81.84 1.44a5.8 5.8 0 01-.84-1.44zm14.31-1.88c-.38-.54-.91-.9-1.35-1.38a3.82 3.82 0 011.64 1.19l-.29.19zm-6.71 14.88c1.9.23 2.37 2.21 3.45 3.42-1.41-.9-1.97-2.73-3.45-3.42zm6.18 3.7c.69-.1 1.08.5 1.08 1.07-.35-.37-.7-.73-1.08-1.07zm-.17-14.55c.2 1.04-1.07 2-1.77 2.39.44-.88 1.27-1.3 1.77-2.39zm-.71 2.76c.2.62-.22.98-.74 1.02.24-.34.58-.66.74-1.02zm-.51 1.87c.23.3.14.53-.12.65-.13-.28.03-.54.12-.66s0 .01 0 .01zm-13.13-.22a6.38 6.38 0 00-1.03-3.36 6.67 6.67 0 011.39 3.31zm-14.04-3.19a11.58 11.58 0 002.7-3.33 4.5 4.5 0 01-2.7 3.32zm-2.64-.59c.9-.58 1.59-1.59 2.35-2.26-.52 1.02-1.22 2.16-2.35 2.25zm-2.1-.15c.74-.76 1.32-1.65 2.01-2.38a3.73 3.73 0 01-2.02 2.38zm-1.7-1.07c.42-.5.98-1.02 1.54-1.34a2.1 2.1 0 01-1.53 1.34zm-1.54-.62c.26-.33.6-.5 1-.57-.13.49-.56.64-1 .57zM84.19 92.3c1.03-.04 1.86-.83 2.87-.84.53 0 1.03.2 1.47.44 1.7.85 1.5.85-.03.07a3.04 3.04 0 00-1.43-.34c-1.05.07-1.84.98-2.86 1.01l-.02-.35zm-1.76 1.74c.49.47.58 1.13.78 1.78-.5-.52-.57-1.16-.78-1.78zm-8.79 1c2.1 2.26 3.93 4.1 6.9 5.04.15.05.33.08.49.02a.7.7 0 01-.51.07c-4.06-.78-4.42-2.44-6.88-5.13zm7.28 5.99c1.61-.13 1.98-.95 2.96-1.86-1 1.89-1.23 2.04-2.96 1.86zm6.76-12.27c3-.23 5.11 1.89 8.04 2.22-2.9.13-5.35-1.8-8.04-2.22zm-16.09 3.46c-.62.41-1.89 1.67-2.54.74 1 .33 1.62-.77 2.53-.74zm9.28.98c.17-.97 1.03-1.45 1.64-2.08-.53.68-1.2 1.23-1.28 2.11zm1.08 1.93c0-.66-.07-1.23-.45-1.7l.25-.24c.33.6.35 1.39.2 1.94zm.04 6.64c2.03.14 4.86 1.52 6.66-.07-2.12 1.86-4.38.27-6.6.43zM64.98 97.2c1.01-1.51 2.8-2.17 3.92-3.49.75.56-3.33 2.75-3.92 3.49zm-1.21 3.3c.16.74-.36 1.35-.69 1.92-.12-.7.4-1.35.69-1.92zm15.05-16.1c-1.1 1.42-.63 3.2-1.36 4.64.42-1.6.35-3.38 1.05-4.81l.3.18zm-4.09-10.68c.09.05.16.1.2.2.05.09.06.2.03.29a.55.55 0 01-.13.26.44.44 0 01-.24.14c.07-.16.13-.3.16-.44v-.2c.02-.08 0-.15-.02-.25zm-4.14-1.51c.12-.26.33-.47.6-.59l.17-.1c.05-.03.1-.05.13-.1.06-.07.1-.2.1-.31 0-.12-.03-.25-.07-.37a1.1 1.1 0 00-.17-.33l-.02-.02-.03-.02h-.07c-.05 0-.1 0-.17.03-.11.04-.22.14-.32.23a.92.92 0 01.26-.34.44.44 0 01.22-.1h.13l.07.04.05.04a1.21 1.21 0 01.33.82c0 .16-.07.32-.17.45a.78.78 0 01-.2.14.84.84 0 01-.2.08c-.13.05-.25.1-.36.17-.08.1-.17.19-.28.28z"/><path d="M71.31 70.79c-.2.37-.57.67-.86 1 .03-.55.4-.79.86-1zm5.61-2.67c-.8.98-2.03 1.52-3.03 2.25.85-.95 1.95-1.5 3.03-2.25zm.65-2.5c.45-.58.75-1.07 1.49-1.2-.64.3-.9.91-1.49 1.2zm8.8 4.61c.1-.67.12-1.49-.12-2.1.36.62.35 1.48.32 2.13zm-4.62-3.18c-.22.16-.48.02-.71-.07l.18-.24c.14.2.33.29.53.31zm-2.87 6.42c.24.33.56.43.91.54l-.12.33a1.9 1.9 0 01-.79-.87zm-4.43-.17c-.35-.02-.74-.13-1.06-.21.42-.13.82 0 1.06.21zm4.42-6.48l-.6.37.4-.58zm-3.4 4.88c.2-.07.31 0 .45.13-.17.03-.3-.05-.45-.12zm.58-.22c.18-.08.28.02.41.13-.18.03-.3-.05-.41-.13zm.58-.11c.16-.07.2 0 .29.1-.16.04-.18-.02-.29-.1zm.54-.06c.15-.09.13 0 .22.07-.15.06-.12-.02-.22-.07zm-5.95 2.36c.12-.16.25-.12.41-.08-.13.1-.28.08-.41.08zm.46-.35c.1-.13.17-.08.29-.05-.11.11-.19.06-.29.05zm.45-.18c.1-.14.1-.08.24-.04-.1.12-.13.04-.24.04zm6.64-3.36c.04-.17.12-.15.25-.18-.05.14-.13.14-.25.18zm.3-.48c0-.16.08-.14.19-.14-.04.12-.1.09-.19.14zm-.29 2.42c-.1-.15-.03-.15.06-.25.05.14 0 .14-.06.25zm-.18-1.44c-.01-.16.07-.17.19-.23-.03.14-.14.19-.19.23zm-.08.5c-.01-.17.06-.17.18-.24 0 .14-.1.17-.18.24zm.08.48c-.05-.15.05-.2.11-.28.06.17-.04.2-.11.28zm-6.25 4.94c.4-.1.68-.41 1.04-.55-.35.22-.62.54-.97.74zm-.29-5a2.19 2.19 0 00-.35-.95c.48.1.49.6.35.95zm8.5-5.27c.36-.02.54.23.66.52a1.3 1.3 0 01-.51-.38c-.05-.03-.09-.08-.15-.14zm.91-1.68c-.53-.13-1.14-.2-1.64-.29.58-.16 1.2-.06 1.64.29z"/><path d="M81.25 66.02c-.17-.1-.32-.15-.5-.22-.35-.13-.67-.03-.97.07-.45.18-.78.05-1.03-.32a.47.47 0 01.1-.46c-.04.14-.02.3.06.4.21.21.5.16.75.1.42-.17.78-.13 1.17.03.17.11.3.25.42.4z"/><path d="M79.93 65.93s-.09.1-.09.37.1.71-.15.68c-.28-.04-.48-.31-.46-.74 0-.14.1-.26.1-.26m.69 1.67c-.43.19-.8 0-1.01-.38.33.18.64.27 1.01.38zm-3.32 6.4c-.62.34-1.27.64-1.91.95a3.13 3.13 0 011.91-.94zm12.54-7.8a12.15 12.15 0 014.3 8.05c.14 2-.02 3.8-.66 5.53.6-2.47.62-5 .05-7.3a14.56 14.56 0 00-3.69-6.28zm-4.47-2.11c.06.1.14.15.21.22.25.2.5.39.73.61-.5-.19-.86-.45-.94-.83zM80.83 62c.78-.5 1.84-.75 2.69-.83l.04.36c-.94.1-1.88.2-2.73.47zm15.04 8.05a17.1 17.1 0 011.01 6.17c-.06 2.16-.67 4.19-1.21 6.11.54-2.06 1-4.12 1.03-6.11.02-2.14-.45-4.19-1.16-6.04zm-9.24 3.92c.82 1 .79 2.7.25 3.65.25-1.35.1-2.45-.25-3.65zm12.67 3.26c-.4-.16-.64-.38-.77-.75.21.3.5.34.82.38l-.06.37zm-.8 4.61a3.07 3.07 0 01-.82-1.81c.16.63.57 1.2 1.06 1.57zm-.31-12.69c-.4.08-.77-.1-1.07-.32.31.12.62.12.92-.01zm1.71 5.83a1.38 1.38 0 01-1.26-.94c.29.46.73.64 1.23.58zm-7.77-14.65c-.14.28-.52.18-.78.36.31-.52.49-.38.78-.36zm.1 2.4c.68-.35 1.39-.15 1.98.22l-.24.26a1.8 1.8 0 00-1.74-.48zm-3.5-1.81c0-.26.08-.49.17-.7l.26.24c-.16.1-.32.27-.43.46zM95.76 84c.26-.17.47-.39.6-.65 0 .36-.14.6-.31.86l-.29-.21zM81.23 61.05a2.3 2.3 0 00-1.02-.46l.1-.35c.4.19.68.49.92.81zm16.81 13.92c-.42-.88-.23-1.9-.32-2.79-.1-1-.69-1.71-1.4-2.26a2.84 2.84 0 011.61 2.25c.06.95-.13 1.94.11 2.8zm-1.71-7.84c-.72-.16-1.06-1.1-1.53-1.57a4.86 4.86 0 00-1.99-.85c.81.1 1.55.21 2.12.72.53.57.79 1.35 1.4 1.7zm-3.89-5.23c-.77-.14-1.5.48-2.23.43.02.02.04 0 .07 0 .68-.42 1.42-.68 2.16-.42zm-2.1-1.42c.16.68-.68.95-1 1.34.18-.63.84-.78 1-1.34zm8.5 19.7a2.87 2.87 0 01-.55-1.53 3.7 3.7 0 00-.62-1.45c.45.4.7.83.82 1.4.05.56.15 1.1.35 1.58zM80.35 61.54a3.34 3.34 0 00-1.47-.29c-.53.3-.67.78-1.31.63.6.02.77-.61 1.26-.84a2.1 2.1 0 011.52.5zm2.66-4.3c.02.28.1.57.23.82.4.75 1.12 1.37 1.6 2.03.7 1.02.98 2.23.87 3.37a6.67 6.67 0 00-1.12-3.18c-.52-.77-1.2-1.33-1.5-2.15a2.3 2.3 0 01-.08-.9z"/><path d="M85.06 62.75a1.95 1.95 0 01-.51-2.05c.03.76.21 1.36.51 2.05zm-.4.18a8.15 8.15 0 01-1.86-2.82l-.17-.46.33-.1c.38 1.22 1.14 2.27 1.72 3.34zm1.28-3.46a4.6 4.6 0 011.62 3.49h-.04a8.68 8.68 0 00-1.17-2.56c-.2-.24-.4-.46-.64-.67zm-.35 18.17c-.26 1.8-1.29 3.04-2.51 4.18a10.34 10.34 0 00-2.92 3.83c.4-1.76 1.52-2.88 2.72-4.04a8.75 8.75 0 002.71-3.97zm11.56 5.44c-.15-.8-.47-1.68-.2-2.44-.03.85.35 1.64.2 2.44zm20.96 43.68c-1.38 2.2-.15 5.06-1.68 6.82 1.02-2.32.31-5.18 1.68-6.82zm-2.68 9.8c-.36.51-.96.57-1.49.65.25-.5 1.03-.56 1.49-.65zm-40.2-48.85c.42.16.77.43 1.1.71l-.18.21c-.3-.33-.59-.65-.92-.92zm-5-3.47c-.18.53-.69.61-1.09.31.35-.13.75-.23 1.09-.31zm-2.37 1.02c-.75 1.62-2.33 2.69-3.26 4.15.56-1.77 2.16-2.83 3.26-4.15zm-5.16 6.87c.09.75-.49 1.35-.83 1.89-.11-.71.47-1.34.82-1.89z"/></g></g></svg>