<svg xmlns="http://www.w3.org/2000/svg" fill="#d7374a" stroke="#000" viewBox="50 50 200 200">
  <metadata source="http://wappenwiki.org/images/2/26/Brixen.svg" license="https://creativecommons.org/licenses/by-nc-sa/3.0"/>
  <g id="lambPassantReguardant" stroke-width=".41">
    <path class="secondary" d="M73.47 118.77s2.4.59 2.93 1.17c1.12 1.32 1.07 3.77.57 4.9-.15.35-.92.08-1.78-.77 0 0 .4 1.1.01 1.81-.9-.77-1.96-2.85-3.7-4.05-.35-.49-.53-1.01-.38-1.69s-.6-.74.5-.96c.83-.13 1.85-.42 1.85-.42z"/>
    <path d="M80.76 102.92c-1.36 1.26-4.16 2-5.56 2.05-2.46.08-5.84.05-6.64.92-.24.25-.4 1.47-1.1 1.97-.21.51.5 1.75.83 3.28.35 1.3.77 3.52.98 3.8.49 1.04 1.53.27 2.08.59.27.2.29.25.38.67.15.7-.77.68-.74 1.43.03.51.28.47.69.72.43.21.42-.72 1.13-.76.69-.04.73 1 .73 1s-2.03 1-1.93 3.3c-1.34-.3-1.85-1.68-3.38-2.32-1.52-.63-1.67-2.11-1.74-3.03-.06-.92-.8-4-1.08-4.93-.46-1.44-1.64-4.5-1.75-5.89-.04-.5.51-1.35.62-2.03.17-1.14 0-1.76.3-2.07.95-.96 2.84-1 4.95-2.1 1.69-.68 5.54-3.43 6.2-4.33"/>
    <path class="secondary" d="M85.96 133.83s0 2.46-.45 3.12c-1 1.4-3.4 1.94-4.63 1.73-.37-.07-.3-.87.31-1.92 0 0-.97.66-1.75.45.53-1.06 2.28-2.6 3.04-4.57.39-.46.86-.75 1.55-.77.69-.01.58-.75 1.04.26.38.77.89 1.7.89 1.7z"/>
    <path class="secondary" d="M133.09 133.83s0 2.46-.45 3.12c-1 1.4-3.4 1.94-4.63 1.73-.38-.07-.3-.87.31-1.92 0 0-.97.66-1.75.45.52-1.06 2.28-2.6 3.04-4.57.39-.46.86-.75 1.55-.77.69-.01.58-.75 1.04.26.38.77.89 1.7.89 1.7z"/>
    <path class="secondary" d="M112.84 133.83s0 2.46-.45 3.12c-1 1.4-3.4 1.94-4.63 1.73-.38-.07-.3-.87.31-1.92 0 0-.97.66-1.75.45.52-1.06 2.28-2.6 3.04-4.57.39-.46.86-.75 1.55-.77.69-.01.58-.75 1.04.26.38.77.89 1.7.89 1.7z"/>
    <path d="M124.84 110.08c-.66 1.54-1.4 2.03-1.98 4.1-.07.24-.2.47-.22.72-.01.29.08.56.13.83.11.58.3 1.39-.12 1.82-1.04 1.05-2.05 1.47-3.02 2.6-1.6 1.88-3.46 4.42-4 6.84-.44 2 .61 2.9.35 3.55-.17.32-.33.58-.77.73-.74.25-.97-.49-1.8-.35-.56.1-.96.6-.98.86 0 .55.83.42.92 1.2.04.31-.58.65-.58.65s-1.6-1.6-3.72-.77c-.15-1.35 1.59-3.86 2.63-5.14 1.42-1.77 2.97-5.26 3.32-5.96.98-1.98 1.98-3.98 2.52-6.13.57-2.26-.44-3.33-1.23-6.9.8-.22 1.27-.33 2-.74.72-.4 1.56-.71 2.37-.54a4 4 0 0 1 1.37.7c.9.6 1.9 1.33 2.81 1.93z"/>
    <path d="M137.2 100.22c0-.18-.4-.4-.7-1.07-.27-.53-.64-2.78-2.98-4.77-3.2-2.71-3.69-3.79-5.93-5.99-2.26-1.84-2.94-2.44-6.15-3.38-1.34-.39-2.82-.59-4.17-.67-1.65-.1-5.16.01-6.83.23-1.4.17-6.03.49-7.44.49-8.3 0-10.09-2.96-12.52-3.4-.67-.87-.6-2.15-.6-2.15s1.39.4 3.14-.33a4.66 4.66 0 0 1 3.74.2c.8.41 1.35.38 2.13.22.58-.12.97-1.02.97-1.02.45-.13.83-.23 1.17-.67.21-.28.45-.86.43-1.33 0-.1-.15-.45-.14-.54 0-.06.12-.27.11-.57a5.12 5.12 0 0 0-.71-2.13c-.36-.64-1.8-2.35-2.27-3.05-.49-.72-.99-1.2-1.4-1.6a118.8 118.8 0 0 0-1.38-1.35 1.13 1.13 0 0 1-.4-.71c-.12-.66-.82-1.38-1.47-1.78-.3-.2-.33-.27-.35-.37-.05-.42-.74-1.08-1.3-1.21-.83-.2-1.37-.84-2.28-.88-.93-.03-1.33-.18-1.83-.26-.5-.08-1.07.03-1.81-.1-2.05-.38-3.93.59-4.93 1.24s-3.1 1.55-4.24 4.02c-.44.97-.74 1.98-1.2 2.94-.43.93-.46 1.9-.75 2.9-.26.81-.84 1.57-.31 2.22 0 0-.14 1.16-.75 2.1-.48.76-.15 1.62.43 2.04 0 0-.24.92-1.08 1.79-.63.66-.56 1.7.03 2.2-.47 1.44-3.27 2.84-1.83 5.17-1.99 1.45-.87 4.05-1.08 5.15-1.37 2.81 1.53 5.4 1.53 5.4-1.18 2.64 2.4 4.66 2.4 4.66s.22 2.05 3.26 1.94c.66 2.07 2.73 2.6 3.52 2.76.17 1.25.44 2.24 1.84 5.09.1.19.3.35.3.54 0 .9.05 1.85.21 2.74.15.8.26 1.07.38 1.88.1.62.49 1.05.4 1.71-.2 1.38-.13 2.78-.25 4.17-.12 1.4-.4 2.8-.58 4.2-.2 1.63-1.3 2.63-1.22 3.98 2.18-.71 3.69.97 3.69.97s.63-.3.62-.62c-.05-.8-.89-.69-.86-1.24.02-.26-.14-.48.36-.75.76-.38 1.19.27 1.84-.2.38-.28.44-.56.52-.93.06-.7-1.63-.8-1.3-2.4.1-.55.5-2.4.55-3.85.04-1.45-.22-3.5.13-4.02.5-.7.68-1.38 1-2.15.33-1.2.4-1.71.02-2.92-.1-.3-.14-.2-.14-.48s-.28-1.27-.24-1.58c.12-1.08 1.1-.8 1.52-2.2l.03.06c.27.12 1.84.46 2.13.43 1.34-.16 2.72-.28 3.58-.2 1.3.1 2.73-.15 4 .06 1.54.26 2.8-.12 4.32-.3.55-.07 1.12-.13 1.66-.28.48-.13.98-.15 1.48-.24.66-.12 2.49.03 3.13.18 1.35.3 2.38-.06 3.77-.04.99 0 1.94-.25 2.89-.52 1.21-.34 2.23-.47 3.24-1.1.82 1.1 1.54 2.95 3.78 4l-.01.02c.06.52.43.97.86 1.28.42.32.9.54 1.34.85 1.23.9 1.55 1.66 2.16 2.94.28.63.71 1.18.96 1.81.36.95 1.24 3.5 1.3 5.92 0 1.14-.2 1.56-.32 3.2-.12 1.66-1.15 2.91-1 4.28 2.13-.83 3.73.76 3.73.76s.62-.33.58-.64c-.11-.79-.93-.65-.92-1.2.01-.26-.15-.48.32-.77.75-.42 1.2.2 1.83-.3.36-.3.42-.6.47-.96.03-.7-1.28-1.19-1.55-3.21-.26-1.93-.1-4.67-.35-6.6-.26-1.98-.52-2.61-.31-4.6.12-1.22.67-2.56.04-3.61-.49-.8-2.11-1.28-2.4-2.18a3.3 3.3 0 0 1-.07-1.09c.09-2.7.63-2.3.63-5 0-1.75-.43-3.5-.43-3.5s.46 1.21.8 1.66c.8 1.08 1.9 1.3 1.9 1.3s.69 2.06 3.1 2.53c.03-.34-.55-1.01-.66-1.74-.1-.66.16-1.66.1-2.24-.15-1.12-.64-1.55-.6-1.64.52.38 1.2.7 1.66.4z"/>
    <path fill="none" d="M81.23 108.56c-.14-.88-.32-1.81-.59-3.04-.6-1.69.24-3.17.24-3.17"/>
    <path fill="none" d="M115.73 102.65c.13 1.09.42 2.34 1.37 2.88 0 .83.7 1.54 1.52 1.65.4.69 1.18.69 1.56 1.4"/>
    <path d="M81.8 70.81c-.39.22-1.4.65-2.64.66-1.08 0-2.51 0-3.78-.44-1.4.24-2.62-.55-2.64-1.04.1-.66 1.62-1.12 2.14-1.35 2.02-.95 2.67-1.63 3.79-2.08a8.68 8.68 0 0 1 4.23-.5"/>
    <path fill="#f6f6f6" stroke-width=".34" d="M93.3 68.29c-.35-.06-.72-.03-.98.23-.07.07-.24.43-.01 1 .09.23.24.42.45.54.29.16.84.24 1.18.15.35-.11.58-.26.58-.58.01-.56-.95-1.3-1.22-1.34z"/>
    <g fill="#000" stroke="none">
      <path d="M71.88 103.51a9.69 9.69 0 0 1 1.96-.27l.02.27h-1.98z"/>
      <path d="m67.82 104.7-.04.38c-.02.12-.02.24-.02.36a2.01 2.01 0 0 1-.34 1.15c-.08.12-.17.23-.3.3a1 1 0 0 1-.79.22v-.06a1.31 1.31 0 0 0 .76-.65c.05-.1.1-.2.13-.32.08-.22.14-.44.2-.7.07-.24.2-.5.4-.68z"/>
      <path d="M66.43 108.56c.14.62.3 1.21.45 1.82l.23.9c.09.3.15.61.23.91l.23.9.25.9c.16.62.33 1.21.56 1.8a7.38 7.38 0 0 1-.86-1.68l-.16-.45-.15-.44c-.1-.3-.18-.61-.26-.9-.15-.62-.28-1.24-.38-1.86a11.3 11.3 0 0 1-.14-1.9z"/>
      <path d="M69.6 119.09a1.08 1.08 0 0 1 .58.07c.19.06.35.19.5.3.15.11.28.25.4.38l.35.42-.02.04c-.2-.06-.34-.19-.49-.3-.15-.11-.28-.24-.42-.34a3.16 3.16 0 0 0-.42-.33l-.48-.24z"/>
      <path d="M75.01 124.2a14.8 14.8 0 0 0-1.05-1.41c-.38-.46-.77-.9-1.18-1.34l.03-.03c.45.4.88.8 1.31 1.22.42.42.84.85 1.22 1.32l-.33.25z"/>
      <path d="M81.06 136.64c.4-.42.77-.9 1.12-1.36.35-.48.69-.96 1.03-1.46l.04.02a25.62 25.62 0 0 1-1.88 3.07l-.31-.27z"/>
      <path d="M128.19 136.64c.39-.42.77-.9 1.12-1.36.35-.48.69-.96 1.02-1.46l.04.02a25.62 25.62 0 0 1-1.87 3.07l-.31-.27z"/>
      <path d="M107.94 136.64a28.17 28.17 0 0 0 2.15-2.82 25.4 25.4 0 0 1-.87 1.56c-.31.52-.62 1.03-.98 1.52l-.3-.26z"/>
      <path d="M92.63 103.55c.08.62.04 1.26-.08 1.88a8.49 8.49 0 0 1-.6 1.8c-.25.57-.56 1.11-.87 1.65s-.64 1.07-.87 1.62l-.38-.15c.27-.59.61-1.12.94-1.64.33-.53.64-1.06.93-1.6a8.38 8.38 0 0 0 .93-3.56z"/>
      <path d="M88.01 119.93a6.43 6.43 0 0 0-.63 1.6c-.16.57-.27 1.15-.38 1.73-.1.58-.2 1.16-.32 1.76-.06.3-.13.58-.22.86-.1.28-.19.58-.38.8l-.03-.02c.18-.23.26-.52.33-.8s.12-.59.16-.87c.1-.58.15-1.18.23-1.77.08-.6.16-1.17.3-1.77.13-.58.3-1.17.6-1.73l.34.2z"/>
      <path d="M86.86 113.6c.15.33.32.66.5.98.17.32.34.66.46 1.03a3 3 0 0 1 .17 1.14c-.03.4-.13.79-.37 1.1l-.05-.03c.1-.35.1-.7.08-1.05-.03-.35-.11-.7-.22-1.03l-.36-1.02a3.43 3.43 0 0 1-.22-1.11l.01-.02z"/>
      <path d="M132.9 100.22c.27.39.4.87.5 1.33l.15.7c.05.22.12.44.21.61l-.37.16c-.1-.25-.13-.5-.15-.72l-.07-.7a3.6 3.6 0 0 0-.32-1.36l.05-.02z"/>
      <path d="M135.41 100.03a3.7 3.7 0 0 1-.9-1.29h.04a4.43 4.43 0 0 0 1.1.99l-.24.3z"/>
      <path d="M134.02 100.2c.24.33.49.66.66 1.04.19.37.33.77.4 1.16.09.4.13.81.25 1.18.12.36.35.7.58 1.02l-.03.03c-.3-.27-.6-.58-.75-.97-.1-.19-.14-.4-.2-.6a6.46 6.46 0 0 0-.46-1.73c-.11-.38-.3-.74-.45-1.13z"/>
      <path d="M130.69 100.01a22.68 22.68 0 0 0-.87-3.7c-.38-1.21-.84-2.4-1.3-3.6.32.55.6 1.13.86 1.71a28.96 28.96 0 0 1 1.3 3.63c.17.63.29 1.26.41 1.9l-.4.06z"/>
      <path d="M120.45 90.52c.49.11.96.26 1.4.48.24.09.45.22.67.33a8.54 8.54 0 0 1 1.78 1.35 7 7 0 0 1 .94 1.15l-.05.04c-.36-.32-.74-.63-1.12-.93-.38-.3-.76-.6-1.15-.86-.19-.15-.39-.27-.6-.41l-.6-.38c-.4-.25-.84-.47-1.27-.73v-.04z"/>
      <path d="M127.42 96.99c.16.01.3.07.43.12a2.36 2.36 0 0 1 .53.35l.15.16c.05.07.09.14.12.23l.01.14c0 .05-.03.1-.07.1-.01-.07-.06-.1-.1-.14l-.17-.1c-.05-.02-.12-.05-.17-.1l-.18-.11c-.1-.08-.21-.18-.3-.29-.1-.09-.2-.21-.25-.36z"/>
      <path d="M127.9 98.58c.13-.01.25.02.36.07a.82.82 0 0 1 .45.5c.05.1.06.23.03.36a1.25 1.25 0 0 1-.3-.19c-.08-.06-.14-.13-.21-.2l-.19-.23c-.05-.08-.1-.17-.15-.3z"/>
      <path d="M128.24 99.99c.16.06.3.17.42.3.12.11.22.25.31.38.08.15.15.3.19.46.04.17.07.34.04.52a3.91 3.91 0 0 1-.81-1.19l-.15-.47z"/>
      <path d="M128.57 101.73a1.72 1.72 0 0 1 .46.98c.02.18.02.37 0 .56-.03.17-.09.36-.18.52-.07-.19-.1-.35-.14-.52l-.08-.5-.05-.5c-.01-.18-.03-.35-.01-.54z"/>
      <path d="M94.44 103.73c-.1-.18-.16-.33-.23-.49l-.22-.46c-.06-.16-.13-.32-.17-.5a1.83 1.83 0 0 1-.08-.55c.14.13.25.27.36.42.1.14.19.3.27.47.07.17.12.35.15.54 0 .19 0 .39-.08.57z"/>
      <path d="M101.22 87.5c.14-.06.28-.08.41-.1.14-.04.26-.06.38-.08l.4-.05c.13-.01.26-.03.42-.01a.86.86 0 0 1-.33.32 1.24 1.24 0 0 1-.88.14c-.14-.05-.28-.11-.4-.22z"/>
      <path d="M96.52 107.78c-.03.02-.03.05-.02.06.02.02.04.04.07.04l.07.03h.08l.4-.03.75-.02.75-.02c.26 0 .52 0 .79.03-.23.14-.49.22-.75.28a3.88 3.88 0 0 1-1.97-.06l-.05-.02-.07-.02a.59.59 0 0 1-.1-.08l-.05-.11c0-.02 0-.04.02-.07l.08-.01z"/>
      <path d="M97.73 101.48c.16-.12.33-.2.49-.27l.5-.18a3.32 3.32 0 0 1 1.08-.17 2.43 2.43 0 0 1-.97.55c-.18.06-.36.09-.54.12-.18 0-.37 0-.56-.04z"/>
      <path d="M103.02 105.32a.95.95 0 0 1 .48-.03c.16.03.3.1.44.18.14.08.26.2.34.32.1.14.16.28.16.45-.15-.07-.27-.15-.39-.22l-.34-.21-.33-.22c-.11-.08-.23-.16-.36-.27z"/>
      <path d="M107.56 104.83a3.98 3.98 0 0 0 1.17.12 3.62 3.62 0 0 0 1.13-.28 1.07 1.07 0 0 1-.45.49c-.2.12-.42.19-.65.2-.23.01-.46-.01-.67-.1-.22-.1-.4-.24-.53-.43z"/>
      <path d="M120.97 115c-.26.03-.4.2-.5.39l-.15.28c-.04.11-.1.2-.12.31l-.22.65c-.07.23-.1.46-.18.7a2.08 2.08 0 0 1 .01-1.5 1.85 1.85 0 0 1 .41-.67c.1-.1.22-.17.35-.22l.2-.02c.09.02.14.05.2.08z"/>
      <path d="M117.91 120.43a26.36 26.36 0 0 1-1.41 2.56l-.5.82c-.18.27-.34.56-.5.83-.18.27-.33.55-.49.83-.32.56-.62 1.14-.92 1.72a9.48 9.48 0 0 1 1.08-2.74l.49-.85a33.75 33.75 0 0 1 2.25-3.17z"/>
      <path d="M116.08 101.36c-.1-.08-.14-.21-.16-.33a.77.77 0 0 1 .05-.4c.1-.24.26-.45.47-.6.2-.15.44-.23.65-.31l.66-.2c-.13.21-.34.36-.52.48-.2.12-.4.23-.56.35-.16.1-.3.26-.42.42a.79.79 0 0 0-.17.6z"/>
      <path d="M121.28 107.02c-.13.14-.3.2-.48.23a1 1 0 0 1-.52-.07 1.1 1.1 0 0 1-.44-.3.8.8 0 0 1-.18-.5c.14.11.27.18.39.26a3.23 3.23 0 0 0 .77.31l.46.07z"/>
      <path d="m79.24 91.3-.02 1v.95l.04.96.06.97a3.75 3.75 0 0 1-.52-1.93 4.11 4.11 0 0 1 .44-1.94z"/>
      <path d="M82.7 104.89c.06.28.11.55.18.82a7.1 7.1 0 0 0 .61 1.47c.13.23.28.46.45.7-.27-.12-.5-.3-.7-.52a2.56 2.56 0 0 1-.67-1.62c-.01-.29.03-.58.14-.85z"/>
      <path d="m83.94 109.6.48.27.45.25.44.25c.15.08.31.16.47.27-.18.07-.39.07-.58.02-.19-.02-.37-.09-.54-.18-.17-.1-.32-.22-.44-.37a1.07 1.07 0 0 1-.29-.51z"/>
      <path d="M93.36 99.92c.13-.01.23-.1.3-.22.06-.1.09-.23.12-.35a4.8 4.8 0 0 0-.14-2.3v-.02c-.01-.05-.01-.1.03-.15.16-.25.24-.57.25-.89.02-.16 0-.34 0-.5l-.08-.51c.09.15.17.3.22.48a2.15 2.15 0 0 1 .14 1.08c-.03.2-.1.38-.2.56l.02-.16a3.6 3.6 0 0 1-.01 2.5c-.06.14-.14.28-.23.38a.57.57 0 0 1-.2.13c-.07-.02-.15 0-.22-.03z"/>
      <path d="M80.7 102.24c.14-.23.26-.46.32-.69.07-.23.05-.47 0-.73-.05-.25-.12-.52-.16-.8-.04-.29-.04-.6.05-.88v.08c-.08-.27-.1-.54-.08-.81a3 3 0 0 1 .54-1.49c.15-.21.32-.42.53-.58-.17.2-.31.42-.42.65a3.48 3.48 0 0 0-.4 1.44c0 .25.02.49.1.72v.09c-.07.23-.05.49-.01.75.05.25.13.51.2.78.04.13.07.28.07.45 0 .14-.02.3-.04.45-.07.3-.2.56-.34.8l-.35-.23z"/>
      <path d="M128.24 111.31c-.01.27.1.5.24.66.15.18.36.32.57.48.22.16.4.33.6.52.2.2.39.38.54.61a7.09 7.09 0 0 1-1.4-.81c-.2-.16-.43-.35-.58-.62-.06-.14-.1-.28-.1-.43s.04-.31.13-.4z"/>
      <path d="M132.26 124.81c-.05-.74-.05-1.5-.04-2.24.02-.74.06-1.5.1-2.24.04-.74.1-1.5.2-2.24.08-.74.19-1.49.34-2.23l.39.08c-.16.72-.27 1.46-.38 2.2-.1.73-.19 1.46-.27 2.2-.15 1.49-.23 2.97-.34 4.47z"/>
      <path d="M113.64 97.88c0 .47 0 .95.04 1.42s.09.94.22 1.38a2.2 2.2 0 0 0 .75 1.07c.35.29.75.5 1.17.72l-.19.37a7.07 7.07 0 0 1-1.23-.8 2.53 2.53 0 0 1-.77-1.28c-.05-.25-.09-.49-.1-.73l-.03-.72a5.6 5.6 0 0 1 .14-1.43z"/>
      <path d="M83.3 87.31c.15.01.28.1.37.26.08.13.12.3.12.44a2 2 0 0 1-.16.85c-.1.27-.2.53-.33.77s-.28.49-.47.69a7.14 7.14 0 0 1 .42-1.6c.1-.25.17-.48.21-.74.06-.22.07-.47-.16-.67z"/>
      <path d="M80.17 87.31c.15-.03.3.07.4.18.11.1.2.23.26.36.12.27.2.55.23.85 0 .16-.01.3-.03.45-.02.14-.07.28-.1.41-.1.27-.22.52-.34.77-.04-.28-.02-.58.02-.83l.04-.4.02-.18v-.2a3.68 3.68 0 0 0-.25-1.11.55.55 0 0 0-.25-.3z"/>
      <path d="M89.04 87.32a4.62 4.62 0 0 1 .76 2.01 4.8 4.8 0 0 1-.18 2.14l-.11-1.06c-.03-.35-.07-.68-.12-1.02l-.16-1.03c-.06-.33-.14-.67-.2-1.04z"/>
      <path d="M91.97 88.7c.15.04.27.12.36.22.1.1.2.2.26.32.07.12.1.24.13.38.03.13.03.27-.01.42-.12-.1-.2-.2-.27-.3-.08-.1-.13-.2-.2-.31-.06-.1-.11-.22-.16-.34a2.72 2.72 0 0 1-.11-.39z"/>
      <path d="M86.77 93.22c.35.03.68.23.93.48.26.25.45.56.57.9.12.32.2.68.25 1 .06.34.09.67.11 1.01-.19-.3-.3-.62-.4-.94-.11-.33-.2-.64-.33-.94a4.46 4.46 0 0 0-.43-.83 3.05 3.05 0 0 0-.7-.68z"/>
      <path d="M90.05 84.93a7.74 7.74 0 0 1 1.42.88l.62.51c.2.17.42.3.7.37-.27.1-.6.04-.86-.08-.27-.12-.5-.3-.72-.47a5.09 5.09 0 0 1-1.16-1.2z"/>
      <path d="M86.01 88.23a1.45 1.45 0 0 1 .63 1.12c.04.21 0 .44-.05.66-.06.22-.16.42-.32.57l.01-.61-.02-.57a4.14 4.14 0 0 0-.1-.56l-.15-.61z"/>
      <path d="M85.54 86.32c-.03-.24-.01-.48-.01-.71l.03-.69.04-.69c.02-.23.04-.46.09-.7.12.22.19.46.23.69a3.23 3.23 0 0 1-.38 2.1z"/>
      <path d="M87.94 80.18a1.22 1.22 0 0 1 .78.69c.09.16.13.34.14.51a.9.9 0 0 1-.1.53 5.94 5.94 0 0 1-.2-.45c-.08-.13-.13-.27-.2-.4-.06-.14-.12-.27-.2-.4a7.33 7.33 0 0 0-.22-.48z"/>
      <path d="M90.69 81.56c.13.3.32.58.52.82.22.26.47.49.73.7.53.44 1.13.8 1.69 1.23a12.47 12.47 0 0 1-1.85-1.01 5.71 5.71 0 0 1-.82-.69 3.46 3.46 0 0 1-.64-.89l.37-.16z"/>
      <path d="M77.06 87.8a2.79 2.79 0 0 1-.1-1.52c.06-.25.16-.5.3-.72.15-.22.36-.41.6-.5-.12.23-.23.43-.31.64-.08.22-.14.44-.19.67l-.13.7c-.03.23-.09.47-.17.73z"/>
      <path d="M80.14 83a3.47 3.47 0 0 0-.1 1.22c.02.19.06.39.11.58s.14.38.22.6c-.2-.12-.35-.3-.46-.5-.1-.2-.17-.41-.2-.64-.03-.23 0-.46.07-.68.08-.23.2-.43.36-.58z"/>
      <path d="M74.9 75.16c.07.04.12.05.17.04.04-.01.1-.07.16-.15.1-.16.2-.36.3-.57.09-.2.18-.4.3-.59.13-.19.28-.36.46-.47-.17.13-.28.32-.37.53-.1.18-.15.4-.22.6-.07.22-.1.42-.22.65a.61.61 0 0 1-.28.31.59.59 0 0 1-.26.06c-.08 0-.14-.03-.23-.06l.2-.35z"/>
      <path d="M74.53 79.3c.06.02.1.02.14 0a.5.5 0 0 0 .14-.18c.08-.17.13-.37.19-.56.05-.19.1-.39.2-.58s.22-.36.4-.46a.9.9 0 0 0-.3.5c-.06.2-.09.4-.1.58-.03.2-.04.4-.1.62a.71.71 0 0 1-.18.34.6.6 0 0 1-.4.16v-.42z"/>
      <path d="M73.49 83.27c.05.02.08.02.12.02a.25.25 0 0 0 .12-.1c.08-.1.15-.25.2-.42.06-.14.1-.3.19-.47a.99.99 0 0 1 .3-.4c-.12.12-.16.28-.2.43-.05.16-.06.32-.09.48-.02.17-.05.34-.13.52-.04.1-.1.19-.22.25-.1.09-.25.1-.36.09l.07-.4z"/>
      <path d="M82.33 74.31c.01.23.01.44.04.65.03.2.04.4.08.62l.1.62c.05.2.09.42.12.65l-.06.02a1.88 1.88 0 0 1-.38-.58c-.09-.2-.14-.43-.17-.66a1.97 1.97 0 0 1 .27-1.32z"/>
      <path d="M78.74 77.56c-.06-.16-.07-.33-.06-.5.02-.16.04-.3.08-.46l.13-.41.12-.45c.12.12.17.3.19.47.01.18 0 .34-.04.49a3.32 3.32 0 0 1-.42.86z"/>
      <path d="M77.43 71.52c-.02.13-.04.27-.08.4l-.12.4c-.05.14-.09.28-.13.55-.12-.14-.17-.41-.18-.54-.02-.14 0-.27.04-.41.04-.27.09-.4.16-.54z"/>
      <path d="M80.76 72.26c.1.13.12.28.14.43a1.13 1.13 0 0 1-.32.82c-.11.11-.24.2-.4.23l.12-.4c.04-.12.08-.25.14-.35.04-.13.1-.23.15-.35.04-.13.1-.25.17-.38z"/>
      <path d="M98.85 74.69c.23.07.45.19.62.36.18.18.3.4.4.6l.18.25c.06.07.14.11.22.15.08.04.16.06.24.06.08 0 .16-.05.25-.14l.05.01c.01.07 0 .14-.04.2s-.1.13-.18.17c-.14.07-.3.07-.44.01s-.26-.13-.34-.26c-.1-.1-.13-.22-.19-.33l-.13-.31c-.06-.1-.1-.2-.17-.29a2.29 2.29 0 0 0-.47-.48z"/>
      <path d="M99.38 72.8c-.28-.1-.54-.25-.78-.42a4.62 4.62 0 0 1-.67-.6c-.2-.21-.37-.44-.55-.67a12.8 12.8 0 0 0-.54-.66l.03-.03c.27.14.48.34.69.56.2.2.39.43.58.63a25.1 25.1 0 0 0 1.24 1.19z"/>
      <path d="M91.72 65.05c.11-.14.27-.23.45-.26s.35-.01.51-.01c.17 0 .31-.01.4-.07.1-.05.14-.16.18-.3l.38.14c-.05.1-.08.17-.16.26a.47.47 0 0 1-.12.1c-.04.04-.1.06-.15.08a.9.9 0 0 1-.57 0l-.47-.08a.6.6 0 0 0-.42.15l-.03-.01z"/>
      <path d="M99.68 74.88a.83.83 0 0 1 .36 0c.12.02.23.06.34.13s.2.15.27.27c.07.12.08.28 0 .4-.06-.13-.14-.18-.2-.24l-.25-.15c-.08-.05-.17-.1-.25-.17-.1-.07-.18-.14-.27-.24z"/>
      <path d="M88.01 63.02c-.25 0-.48.03-.7.1l-.31.13-.32.18c-.13.05-.26.1-.41.12-.15.01-.28 0-.4-.03-.26-.05-.48-.13-.73-.16.24-.12.5-.1.75-.1.12 0 .23-.02.34-.03s.2-.06.3-.11c.1-.06.21-.11.33-.16a1.23 1.23 0 0 1 1.15.07z"/>
      <path d="m88.51 65.56-.42.15c-.12.05-.24.1-.36.18l-.35.21c-.14.07-.29.15-.45.15l.29-.35c.09-.1.21-.23.36-.31.15-.08.31-.12.47-.14.15-.01.31.03.46.11z"/>
      <path d="M86.04 64.89a1.86 1.86 0 0 1 .99-.65c.19-.06.4-.07.6-.04s.4.08.56.23c-.2-.02-.38.01-.56.04l-.52.1-.52.15-.55.17z"/>
      <path d="M90.02 64.1a.48.48 0 0 1 .25-.27c.1-.06.23-.1.33-.1.13-.02.23 0 .34.02s.22.08.31.16c-.12.06-.21.09-.32.1l-.3.04-.28.01-.33.04z"/>
      <path d="M94.05 70.8a.96.96 0 0 1-.2.13c-.06.03-.13.07-.2.09-.14.04-.3.05-.44.04a.97.97 0 0 1-.43-.15.64.64 0 0 1-.3-.35l.04-.03c.27.1.5.16.74.19l.38.04.2.01c.06 0 .13 0 .2.03z"/>
      <path d="M90.78 68.44a1.78 1.78 0 0 1 1.05-.66c.22-.04.43-.04.64-.03.2.03.4.05.6.1l.59.16.56.13c.38.07.77.14 1.12-.05l.03.04a1.11 1.11 0 0 1-.57.27 2.4 2.4 0 0 1-.62.01c-.42-.04-.8-.15-1.19-.23-.19-.04-.37-.1-.56-.12a2.66 2.66 0 0 0-.57-.03c-.38.04-.73.2-1.08.4z"/>
      <path d="M91.16 69.07c.2-.08.39-.19.56-.3.18-.13.36-.25.49-.4l.2.27a3.34 3.34 0 0 1-1.25.43z"/>
      <path d="M93.05 68.17a1 1 0 0 0 .27.04l.1-.02.14.07c.01.01.04.01.05.03l.1.07c.1.09.3.25.38.4a.93.93 0 0 1-.57.81c-.1.04-.22-.04-.2-.15a2.3 2.3 0 0 0-.27-1.25z"/>
      <path d="M95.96 69.96c-.16.02-.32.02-.47-.02a2.6 2.6 0 0 1-.46-.15 2.78 2.78 0 0 1-.82-.54l.26-.23c.08.1.2.2.3.3.11.09.25.17.37.25.12.08.26.15.4.2l.42.2z"/>
      <path d="M82.92 65.84a3.04 3.04 0 0 1 1.31.73l-.03.03c-.2-.12-.43-.21-.64-.27-.23-.07-.45-.1-.68-.1l.04-.38z"/>
      <path d="M83.57 69.79c-.32.1-.6.32-.86.54-.14.1-.26.23-.4.33s-.27.23-.43.34l-.19-.36c.14-.06.29-.15.44-.23l.44-.27c.31-.18.62-.34.97-.4l.03.05z"/>
      <path d="M73.84 69.9c.33-.26.71-.44 1.12-.6a5.4 5.4 0 0 1 1.24-.3c.42-.06.86-.05 1.28.02.42.05.84.19 1.23.3a3.34 3.34 0 0 0 1.18.2c.09 0 .2 0 .3-.02l.32-.02c.2-.02.39-.07.58-.13.37-.12.75-.3 1.12-.5.36-.2.7-.43 1.04-.68l.04.04c-.3.3-.62.56-.97.8-.36.25-.72.47-1.14.61-.2.09-.42.14-.63.17l-.31.04-.33.02c-.21.02-.43 0-.66-.04-.22-.04-.43-.09-.63-.16a6.12 6.12 0 0 0-2.4-.42 7.25 7.25 0 0 0-2.39.66z"/>
      <path d="M91.43 65.47c-.07.15-.15.28-.26.39-.1.1-.24.2-.4.25a.9.9 0 0 1-.5.03c-.17-.04-.33-.15-.38-.3.16.02.28 0 .4 0a3.38 3.38 0 0 0 .72-.24c.12-.07.26-.12.42-.13z"/>
      <path d="M89.48 66.56c-.1.22-.2.42-.36.6-.15.17-.35.33-.58.44-.23.1-.51.12-.76.07a1.2 1.2 0 0 1-.62-.35c.24.01.46.04.66.02.2-.01.4-.05.57-.12.18-.08.35-.19.53-.3.17-.12.36-.25.56-.36z"/>
      <path d="M87.16 68.48c.11.13.15.3.14.48-.02.18-.07.34-.17.48s-.21.25-.36.33a.77.77 0 0 1-.49.1l.29-.34.23-.31.2-.34.16-.4z"/>
      <path d="M86.22 70.84c.17.1.3.28.37.49s.07.43.02.63-.16.4-.33.54c-.16.15-.32.2-.48.32 0-.1.05-.2.1-.28l.14-.23a2.03 2.03 0 0 0 .18-1.47z"/>
      <path d="M83.96 77.68a4 4 0 0 1 .73.53c.22.2.4.45.55.73.14.28.22.6.2.92a1.2 1.2 0 0 1-.37.84c.08-.3.1-.57.05-.83a2.6 2.6 0 0 0-.24-.75 5.46 5.46 0 0 0-.43-.7c-.16-.24-.34-.47-.49-.74z"/>
      <path d="M86.69 81.15a3.73 3.73 0 0 1 1.03 1.54c.1.29.18.61.17.95 0 .16-.04.34-.1.48a.85.85 0 0 1-.33.37c.16-.27.16-.55.12-.82-.04-.29-.14-.54-.23-.83a20.44 20.44 0 0 0-.66-1.69z"/>
      <path d="M82.83 81.44c-.03.05-.02.1.01.16.03.05.06.1.1.13l.23.3c.14.2.3.4.4.65a1.75 1.75 0 0 1 .16.8c-.01.27-.12.56-.34.71.07-.25.07-.48.03-.7a2.81 2.81 0 0 0-.21-.65c-.1-.21-.22-.43-.31-.66-.06-.12-.1-.24-.14-.36-.01-.06-.04-.14-.03-.2 0-.05.02-.09.03-.12a.16.16 0 0 1 .07-.06z"/>
      <path d="M80.84 77.7c.11.23.17.44.25.65.08.2.17.37.3.52.11.15.3.29.48.46.08.08.17.19.23.3.05.12.1.25.07.38-.13-.22-.3-.31-.5-.44-.2-.1-.4-.23-.6-.43-.17-.2-.27-.47-.3-.71-.02-.25 0-.49.07-.73z"/>
      <path d="M84.93 64.54H84l-.46-.02c-.16-.01-.31-.01-.49-.04a1.58 1.58 0 0 1 .96-.27c.18 0 .34.04.5.1.15.02.31.1.43.23z"/>
      <path d="M83.7 63.32c-.2.05-.39.12-.56.2-.18.08-.33.18-.46.3-.07.05-.14.12-.2.19-.07.07-.14.15-.22.21-.08.07-.17.15-.27.2a.5.5 0 0 1-.34.03c.2-.09.3-.24.4-.4l.18-.26.23-.24c.18-.15.38-.24.6-.3.21-.02.44-.01.65.07z"/>
      <path d="M78 74.15a4.02 4.02 0 0 0-.42 1.06 3.19 3.19 0 0 0-.04 1.16 1.02 1.02 0 0 1-.34-.56 1.63 1.63 0 0 1-.02-.68c.06-.21.15-.43.29-.6.13-.18.32-.33.54-.38z"/>
      <path d="M77.01 78.93c.01.14 0 .28-.01.41l-.07.37-.1.35c-.05.12-.1.24-.2.37a.96.96 0 0 1-.13-.41c-.02-.13 0-.28.04-.42s.1-.25.16-.38a.73.73 0 0 1 .31-.3z"/>
      <path d="M77.17 81.53c-.1.24-.19.47-.27.72a6.63 6.63 0 0 0-.34 1.4c-.04.24-.05.49-.08.76a1.9 1.9 0 0 1-.23-.76c-.02-.27 0-.54.06-.8.06-.25.17-.5.3-.74.16-.23.33-.43.56-.58z"/>
      <path d="M79.61 78.94c-.08.08-.1.19-.14.28-.03.11-.07.2-.08.31-.06.22-.1.4-.11.63-.03.21-.07.44-.14.64-.07.22-.16.42-.3.61-.02-.23 0-.44.02-.67.03-.22.05-.44.1-.65.03-.23.11-.45.2-.65.06-.1.12-.2.2-.3.07-.08.15-.17.25-.2z"/>
      <path d="M86.5 76.3c-.01.43.08.84.28 1.2.2.35.5.64.85.89a7.63 7.63 0 0 0 2.3.92l-.08.39c-.42-.11-.85-.25-1.26-.42-.4-.18-.8-.4-1.13-.68a2.85 2.85 0 0 1-.85-1.02 1.9 1.9 0 0 1-.11-1.29z"/>
      <path d="M99.9 78.76c-.3.03-.59.03-.87-.06-.29-.1-.52-.25-.74-.38-.22-.15-.45-.28-.67-.42l-.68-.4c.27.05.52.13.76.23.25.1.5.22.73.33a2.97 2.97 0 0 0 .7.29c.11.02.22.04.34.04l.18-.02.17-.01.07.4z"/>
      <path d="M85.15 72.85a.67.67 0 0 1-.19.42c-.1.12-.23.22-.35.28-.13.07-.27.11-.42.14-.15.01-.3.03-.44-.01.1-.13.23-.2.33-.29l.34-.19.34-.16.39-.19z"/>
      <path d="M91.45 73.82c.17-.02.31-.01.46.04s.29.13.4.22c.13.1.22.22.3.35.09.14.13.28.13.45-.15-.08-.26-.17-.37-.25l-.3-.24c-.1-.08-.21-.16-.3-.26l-.32-.3z"/>
      <path d="M92.68 75.42c.11.06.2.16.26.25a1.04 1.04 0 0 1 .15.7.73.73 0 0 1-.12.34 1.74 1.74 0 0 1-.08-.33l-.07-.32-.07-.3-.07-.34z"/>
      <path d="M71.87 99.08c.13-.19.21-.44.27-.7.05-.26.08-.53.1-.81.07-.55.14-1.1.37-1.62l.04.01a5.03 5.03 0 0 0-.19 1.62c0 .27 0 .56-.03.84-.02.28-.08.58-.23.86l-.33-.2z"/>
      <path d="M74.28 103.94a2.64 2.64 0 0 1-.02-.8c.02-.25.09-.5.16-.74l.19-.71c.05-.23.06-.49.02-.72l.04-.01c.08.24.1.5.07.74l-.1.74c-.05.25-.07.49-.07.72 0 .23.02.46.09.67l-.38.11z"/>
      <path d="M70.42 93.66c.19-.14.37-.29.51-.46.15-.18.26-.4.33-.61.07-.23.1-.47.15-.72.04-.24.1-.5.2-.73l.04.02c-.08.23-.1.48-.1.73-.02.24-.02.5-.08.75-.04.26-.13.52-.28.74a3.21 3.21 0 0 1-.53.61l-.24-.34z"/>
      <path d="M71.5 88.5c.15-.11.3-.24.42-.4l.38-.5c.13-.18.27-.34.44-.48.17-.13.35-.24.56-.32l.01.04c-.18.1-.34.24-.47.39-.14.15-.25.32-.35.5-.11.17-.2.36-.31.55-.11.2-.26.37-.42.53l-.26-.31z"/>
      <path d="M74.63 97.34a4.82 4.82 0 0 0 1.02-1.28 7.1 7.1 0 0 0 .58-1.54c.1.28.1.6.06.89a2.58 2.58 0 0 1-.88 1.54c-.22.19-.5.34-.78.4z"/>
      <path d="M75.6 87c-.22.2-.43.4-.62.6a5.8 5.8 0 0 0-.48.64 6.11 6.11 0 0 0-.66 1.51c-.08-.28-.08-.6-.03-.89a2.6 2.6 0 0 1 .95-1.5c.26-.19.53-.32.83-.36z"/>
      <path d="M75.44 90.82c-.14.26-.3.49-.4.74a5.01 5.01 0 0 0-.47 2.38 1.86 1.86 0 0 1-.27-.85 2.5 2.5 0 0 1 .47-1.7c.17-.23.4-.45.67-.57z"/>
      <path d="M77.75 98.34c-.07.28-.13.55-.17.82-.04.27-.08.53-.1.8v.8l.07.83c-.19-.23-.31-.5-.4-.78-.07-.28-.1-.58-.07-.88.01-.3.08-.58.19-.86.12-.29.27-.53.48-.73z"/>
    </g>
  </g>
</svg>
