<svg xmlns="http://www.w3.org/2000/svg" fill="#d7374a" stroke="#000" viewBox="50 50 200 200">
  <metadata source="http://wappenwiki.org/images/1/11/Le_Tellier_de_Louvois.svg" license="https://creativecommons.org/licenses/by-nc-sa/3.0"/>
  <g id="lizard" stroke-width=".48">
    <g>
      <path stroke-linejoin="round" d="M103.4 98.25c.07-.28.22-.54.39-.77.3-.42.62-.81 1.04-1.12a2.65 2.65 0 0 1 3.01.02c.34.24.66.54.85.91.34.68.22 1.49 0 2.2-.2.64-.4 1.16-.37 1.84l.01.1c.14.27.44 0 .54-.13l1.34-1.78c.44-.57.91-1.03.74-1.8-.08-.4.02-.77-.05-1.16-.07-.33-.13-.65-.15-1-.02-.31 0-.69.19-.97.05-.09.77-.61.79-.44.02.1-.08.17-.15.23-.27.26-.32.63-.24.99.05.2.24.79.39.94.05.05.15.04.2-.03.09-.09.12-.26.19-.36.12-.18.29-.34.4-.49.3-.39.93-.94 1.46-.93a.7.7 0 0 1 .56.3c-.06-.08-.6.13-.66.16-.24.1-.24.15-.34.35l-.64 1.36c-.04.08-.09.2-.02.27l.08.05c.34.08.66-.44.88-.64.37-.33 1.02-.61 1.5-.5.14.04.28.09.36.2.1.1.15.24.12.36-.08-.06-.19-.06-.3-.08-.4-.02-.48.13-.75.34-.34.25-.62.57-.86.93-.05.08-.12.2-.08.3.03.12.15.17.27.22.47.17 1.01.1 1.47.3a1.01 1.01 0 0 1 .52 1.22 1.62 1.62 0 0 0-.39-.5c-.34-.26-1.03-.18-1.45-.18-.5 0-1.07.09-1.4.51-.2.24-.28.53-.38.8-.11.3-.23.6-.39.9-.55 1.07-1.36 1.99-2.1 2.95a9.9 9.9 0 0 0-.95 1.55c-.26.53-.56 1.1-1.25 1.07a2.49 2.49 0 0 1-1.5-.73l-.4-.47c-.2-.2-.49-.32-.74-.47-.1-.07-.24-.1-.36-.14a5.35 5.35 0 0 0-1.16-.12m-1.84-25.3c.87.15 1.72.51 2.45 1.02.42.28 1.58 1.53 1.9 1.55.17.02.48-.83 1.44-1.9.44-.5 1.25-1.14 1.22-1.87-.02-.39.15-.74.13-1.15-.01-.33-.01-.67.02-1.01.04-.32.12-.7.34-.95.07-.08.86-.47.84-.3 0 .1-.1.15-.18.2-.3.2-.42.56-.4.93.01.22.1.83.21 1 .05.07.15.05.2 0 .09-.07.16-.24.24-.32.14-.15.34-.29.5-.43.36-.32 1.06-.79 1.58-.67.22.05.4.2.5.39-.04-.09-.6.01-.69.03-.25.07-.25.1-.38.29l-.85 1.23c-.05.09-.12.19-.05.27a.1.1 0 0 0 .08.05c.33.14.73-.32.97-.47.42-.25 1.1-.44 1.57-.24.13.05.25.14.32.26s.1.27.05.39c-.07-.09-.18-.1-.29-.12-.37-.09-.49.07-.79.22a3.7 3.7 0 0 0-1 .77c-.06.09-.13.2-.13.3.01.11.13.2.23.25.44.23 1 .27 1.4.55a1.05 1.05 0 0 1 .33 1.29 1.59 1.59 0 0 0-.29-.56c-.29-.3-1-.34-1.4-.4-.5-.09-1.07-.09-1.47.26-.81.71-1.08 1.91-1.44 2.88-.13.37-.29.76-.49 1.1s-.46.96-.73 1.25c-.62.7-1.67.9-2.5.13l-.28-.32-.33-.22c-.77-.47-1.6-1.18-2.56-1.13"/>
      <g stroke="none" fill="#000">
        <path d="m106.91 84.13-.08.01-.17.07-.19.1-.2.1-.12.07-.12.07-.22.1-.18.07-.09.01.02-.08.07-.19.15-.23.12-.12.13-.1.17-.07.17-.03a.6.6 0 0 1 .5.15l.03.05.01.02zm1.88-3.69v-.27c.02-.15.08-.32.17-.47.1-.15.22-.29.34-.36l.17-.08.06-.03.02.08v.19c-.02.15-.08.32-.17.47-.1.15-.22.29-.34.35l-.17.09-.08.03zm.91-.27-.02-.05V80c.02-.1.07-.2.17-.3a.4.4 0 0 1 .3-.08l.14.04.05.01v.07l-.03.12a.7.7 0 0 1-.15.24.65.65 0 0 1-.27.1h-.14l-.05-.02zm1.57 19.56-.01-.09v-.19c.01-.15.05-.32.11-.47a1.18 1.18 0 0 1 .3-.4l.13-.12.07-.04.01.07.04.19c.01.15-.04.34-.1.5-.09.17-.2.33-.33.41l-.17.1-.05.04zm.68-.22-.03-.06-.05-.15c-.02-.06 0-.13.01-.22a.64.64 0 0 1 .1-.22l.17-.17a.5.5 0 0 1 .2-.08l.17-.02.07.02-.02.07-.03.15a1.13 1.13 0 0 1-.39.57l-.12.09-.08.02zm-3.4 1.63-.01.07-.02.07-.02.1-.03.58-.04.59-.03.27-.03-.27-.14-.58-.13-.57-.04-.2-.01-.07.5.01zm-3.1.2.06.02.17.07.4.19.4.22.15.1.06.05-.06.05a.38.38 0 0 1-.19.09c-.08.01-.17.03-.27.01l-.15-.03-.15-.07a.75.75 0 0 1-.26-.2.7.7 0 0 1-.13-.24c-.04-.08-.04-.15-.04-.2-.01-.04 0-.07 0-.07zm1.65 3.76.07-.02.17-.01.18-.04.1-.03.04-.02.05-.07.1-.11.07-.06.08-.05c.1-.03.2 0 .25.04.06.05.04.08.04.08l-.07.02c-.03.02-.05.07-.05.1v.05l-.02.1c-.01.05-.01.1-.06.17a.5.5 0 0 1-.17.15.47.47 0 0 1-.4.05.9.9 0 0 1-.25-.13c-.05-.05-.1-.1-.11-.15l-.02-.07z"/>
      </g>
      <path stroke-linejoin="round" d="M96.84 98.25a2.24 2.24 0 0 0-.39-.77 4.7 4.7 0 0 0-1.05-1.12 2.65 2.65 0 0 0-3 .02c-.34.24-.66.54-.85.91-.34.68-.22 1.49 0 2.2.2.64.4 1.16.37 1.84l-.01.1c-.14.27-.44 0-.54-.13l-1.34-1.78c-.44-.57-.91-1.03-.74-1.8.08-.4-.02-.77.05-1.16.06-.33.13-.65.15-1 .02-.31 0-.69-.19-.97-.05-.09-.77-.61-.8-.44 0 .1.1.17.16.23.27.26.32.63.24.99-.05.2-.24.79-.4.94-.04.05-.14.04-.2-.03-.08-.09-.11-.26-.18-.36-.12-.18-.29-.34-.4-.49-.3-.39-.93-.94-1.46-.93a.7.7 0 0 0-.56.3c.05-.08.6.13.66.16.24.1.24.15.34.35l.64 1.36c.04.08.09.2.02.27l-.08.05c-.34.08-.66-.44-.88-.64-.38-.33-1.02-.61-1.5-.5-.14.04-.28.09-.36.2s-.15.24-.12.36c.08-.06.19-.06.3-.08.4-.02.48.13.75.34.34.25.62.57.86.93.05.08.12.2.08.3-.03.12-.15.17-.27.22-.47.17-1.01.1-1.47.3a1.01 1.01 0 0 0-.52 1.22 1.62 1.62 0 0 1 .39-.5c.34-.26 1.03-.18 1.45-.18.5 0 1.07.09 1.4.51.19.24.27.53.38.8.11.3.23.6.38.9.56 1.07 1.37 1.99 2.1 2.95.35.49.71 1.01.96 1.55.26.53.56 1.1 1.25 1.07.51-.04 1.15-.36 1.5-.73l.4-.47c.2-.2.49-.32.74-.47.1-.07.24-.1.36-.14.37-.08 1.75-.46 2.14-.44m.86-24.98c-.88.15-1.72.51-2.45 1.02-.42.28-1.59 1.53-1.9 1.55-.18.02-.48-.83-1.44-1.9-.44-.5-1.25-1.14-1.22-1.87.02-.39-.15-.74-.14-1.15.02-.33.02-.67-.01-1.01-.04-.32-.12-.7-.34-.95-.07-.08-.86-.47-.85-.3 0 .1.1.15.2.2.3.2.41.56.4.93-.02.22-.1.83-.22 1-.05.07-.16.05-.2 0-.1-.07-.16-.24-.24-.32-.14-.15-.34-.29-.5-.43-.36-.32-1.06-.79-1.58-.67a.73.73 0 0 0-.5.39c.04-.09.6.01.68.03.26.07.26.1.4.29l.84 1.23c.05.09.12.19.05.27a.1.1 0 0 1-.09.05c-.32.14-.72-.32-.96-.47-.42-.25-1.1-.44-1.57-.24a.6.6 0 0 0-.32.26.4.4 0 0 0-.05.39c.07-.09.18-.1.28-.12.38-.09.5.07.8.22.37.2.7.45 1 .77.06.09.13.2.13.3-.02.11-.13.2-.24.25-.43.23-1 .27-1.4.55a1.05 1.05 0 0 0-.32 1.29c.07-.2.15-.4.29-.56.29-.3 1-.34 1.4-.4.5-.09 1.07-.09 1.47.26.81.71 1.08 1.91 1.44 2.88.13.37.29.76.49 1.1s.45.96.72 1.25c.63.7 1.68.9 2.5.13l.3-.32.31-.22c.78-.47 1.61-1.18 2.57-1.13"/>
      <g stroke="none" fill="#000">
        <path d="m93.33 84.13.01-.02.04-.05.18-.12a.58.58 0 0 1 .3-.03l.18.03.16.07.14.1.12.12.15.23.07.19.01.08-.08-.01-.19-.07-.22-.1-.11-.07-.12-.07-.2-.1-.2-.1-.16-.07-.08-.01zm-1.88-3.69-.07-.03-.17-.09a1.13 1.13 0 0 1-.33-.35c-.1-.15-.16-.32-.17-.47a.34.34 0 0 1 0-.19l.01-.08.07.03.17.08c.12.09.25.2.34.36.1.15.15.32.17.47v.19l-.02.08zm-.91-.27h-.2a.53.53 0 0 1-.28-.1.48.48 0 0 1-.15-.24l-.03-.11v-.07l.05-.02.13-.03a.4.4 0 0 1 .3.08.5.5 0 0 1 .18.29v.2zm-1.57 19.56-.07-.04-.17-.1a1.13 1.13 0 0 1-.32-.4.95.95 0 0 1-.07-.7l.02-.07.06.04.14.12a1.3 1.3 0 0 1 .4.87v.28z"/>
        <path d="m88.29 99.5-.05-.03a.5.5 0 0 1-.12-.08.84.84 0 0 1-.24-.26c-.06-.1-.11-.2-.15-.32l-.03-.15-.02-.07.07-.01.17.01.2.09.17.17c.05.06.08.13.1.22l.02.22-.05.15-.07.07zm3.87 1.63-.02.07-.03.2-.14.57-.13.58-.04.27-.03-.27-.03-.6-.04-.57-.01-.1-.02-.07-.02-.07.51-.01zm2.64.2v.09c0 .05 0 .11-.04.2s-.07.17-.13.23a.75.75 0 0 1-.26.2l-.15.07-.15.04a.68.68 0 0 1-.46-.1l-.06-.05.06-.05.16-.1.38-.23.4-.18.18-.07c.03-.05.07-.05.07-.05zm-1.66 3.77-.03.07a.59.59 0 0 1-.37.29.47.47 0 0 1-.4-.06.5.5 0 0 1-.16-.15c-.05-.07-.05-.12-.07-.17l-.02-.1v-.03c.02 0 0-.02 0-.02l-.05-.1-.07-.02s-.01-.03.04-.08.13-.07.25-.04l.09.05.06.06.1.11.06.07.03.02.1.03.19.04.17.01.08.02z"/>
      </g>
    </g>
    <g>
      <path d="M104.07 96.06c-.33-.93-.72-1.86-.76-2.84-.03-1.17.46-2.27.83-3.38a13.05 13.05 0 0 0 .63-4.5c0-2.28-1.17-4.02-1.32-5.91a16.73 16.73 0 0 0-.5-3.26 7.52 7.52 0 0 1-.13-2.39c.1-.8.87-1.52 1.14-2.26a7.01 7.01 0 0 0 .15-4.43 10.28 10.28 0 0 0-1.62-3.99 7.37 7.37 0 0 1-.8-1.69c-.3-.83-.98-1.37-1.84-1.33-.88-.04-1.56.5-1.84 1.33a7.37 7.37 0 0 1-.8 1.7 10.28 10.28 0 0 0-1.62 3.98 7.01 7.01 0 0 0 .15 4.43c.27.74 1.03 1.47 1.13 2.26.1.83-.2 1.14-.2 2.2 0 1.01.05 1.13.2 2.11.17 1.03-.13 2.08-.15 3.13-.01 1.4-.2 2.8-.47 4.17-.42 2.03-1.1 4.03-1.25 6.09-.39 5.12 2.43 10.12 1.87 15.24-.25 2.23-1.13 4.38-1.04 6.61.1 2.52 1.43 4.82 1.96 7.28.7 3.35-.07 6.81-.3 10.23a11.14 11.14 0 0 0 3.4 8.4c.26.25.9.86 1.22.47.3-.34-.27-1.17-.39-1.47a13.76 13.76 0 0 1-.16-9.51c.8-2.2 2.38-4.31 2.24-6.66-.08-1.36-.05-2.25-.54-3.52-.47-1.27-1.1-2.5-1.26-3.83-.44-3.5 3.27-6.71 3.3-10.23a23.32 23.32 0 0 0-1.23-8.43z"/>
      <g stroke="none" fill="#000">
        <path d="m99.76 84 .02.13.05.35c.04.32.05.8-.01 1.39-.07.59-.24 1.3-.46 2.1a22.9 22.9 0 0 0-.6 2.68c-.14 1-.16 2.1-.08 3.24.09 1.15.27 2.37.51 3.6.22 1.26.5 2.54.73 3.86.22 1.32.39 2.68.4 4.05a11.88 11.88 0 0 1-.56 4.08c-.2.66-.42 1.26-.59 1.89l-.1.46-.02.11-.01.12-.04.24-.03.46-.02.45c.02 1.24.3 2.44.61 3.55s.64 2.18.83 3.2c.19 1 .24 1.95.15 2.78-.1.83-.29 1.52-.42 2.12-.14.57-.22 1.03-.27 1.35l-.03.35-.02.12v-.12l.02-.35c.01-.32.08-.78.2-1.37.1-.6.27-1.29.34-2.1a10.48 10.48 0 0 0-.24-2.72c-.2-.98-.56-2.03-.9-3.14a13.72 13.72 0 0 1-.69-3.63v-.5l.03-.5.04-.24.02-.13.01-.12.1-.5c.16-.63.4-1.28.58-1.9a12.18 12.18 0 0 0 .52-3.92c0-1.34-.17-2.67-.37-4l-.68-3.84a31.82 31.82 0 0 1-.43-3.67 16.22 16.22 0 0 1 .15-3.31c.15-1.02.47-1.91.7-2.7.26-.79.45-1.48.55-2.07.1-.57.12-1.05.08-1.37l-.03-.35-.04-.12zm.1-5.59.02.17.02.43.02.59.03.66.03.66.04.57.02.42v.17l-.07-.15-.14-.4-.13-.58-.05-.34-.04-.35v-.36l.02-.34a4.97 4.97 0 0 1 .24-1.15zm1.44-15.56.02.12.07.27a4.61 4.61 0 0 0 .2.57l.08.2.36.78c.1.22.13.4.13.4s-.13-.11-.28-.3a2.84 2.84 0 0 1-.5-.74l-.08-.24-.07-.23c-.03-.15-.03-.3-.03-.43l.02-.16.03-.12.05-.12zm.4 4.48-.03.13-.06.34-.07.46v.35l.02.12.11.5.1.48.09.32.03.14s-.05-.02-.1-.09a2.67 2.67 0 0 1-.44-.72 2.7 2.7 0 0 1-.17-.56l-.01-.15v-.16l.05-.3a1.52 1.52 0 0 1 .2-.47c.07-.14.15-.22.2-.3l.07-.1zm1.38.35.06.1.07.14.07.17.12.47.01.27-.01.29a8.08 8.08 0 0 1-.14.52c-.06.17-.13.32-.22.43l-.12.15-.1.12-.1.08.04-.12.1-.3.05-.2.05-.22a4.22 4.22 0 0 0 .12-1v-.46l-.02-.32.02-.12zm.76 1.37.03.07.07.2c.03.17.03.4-.02.63a1.22 1.22 0 0 1-.49.67l-.07.04.02-.09.05-.18.15-.54.16-.54.05-.2.05-.06zm-2.93 2.42v.13l-.01.34-.09.98-.03.53c-.02.16-.04.32-.02.45 0 .14.02.24.05.3l.05.12-.03-.01-.07-.07a.65.65 0 0 1-.17-.3 2.87 2.87 0 0 1-.08-1.04 5.17 5.17 0 0 1 .22-1l.13-.3c.02-.1.05-.13.05-.13zm-.4-10.75v.07l.02.13.1.36c.05.12.1.23.17.32l.08.12.03.05-.06.01h-.07l-.1-.01a.47.47 0 0 1-.2-.14.71.71 0 0 1-.2-.52c0-.09.03-.17.06-.24l.05-.08.05-.05.07-.02zm-.12 4.9v-.1c0-.05.03-.08.05-.1.03-.02.07 0 .1.03l.07.07v.1c0 .05-.03.09-.05.1-.03.02-.07 0-.1-.03l-.07-.07zm.44.17.07-.07c.03-.03.08-.03.1-.03.03.02.05.05.05.1v.1l-.07.07c-.03.03-.08.03-.1.03-.03-.01-.05-.05-.05-.1v-.1zm-.02-2.62s.07.07.1.17c.05.1.09.24.1.37.02.14 0 .29-.03.39l-.07.19s-.06-.07-.1-.17a1.18 1.18 0 0 1-.1-.37.96.96 0 0 1 .03-.4l.07-.18z"/>
      </g>
      <ellipse transform="rotate(-13.68 102.2083 68.5312)" fill="#F6F6F6" cx="102.23" cy="68.54" rx=".66" ry=".81"/>
      <ellipse transform="rotate(-13.68 102.2252 68.2185)" stroke="none" fill="#000" cx="102.25" cy="68.22" rx=".37" ry=".47"/>
      <g stroke="none" fill="#000">
        <path d="m98.34 62.85.04.1.03.12.02.17c.02.12 0 .27-.03.42l-.07.24-.09.23c-.13.3-.32.58-.49.75l-.28.28.13-.38.36-.78.08-.2.09-.2.11-.38.07-.27.04-.1zm-.38 4.48.1.1.2.29c.08.13.15.28.2.47l.05.3v.16l-.01.15a3.55 3.55 0 0 1-.4 1l-.21.28-.1.09.03-.14.09-.32.1-.47.12-.5.01-.13v-.35l-.07-.46-.06-.34c-.05-.08-.05-.13-.05-.13zm-1.37.35-.02.14-.02.32v.46l.04.5.08.5.05.21.05.2.1.3.04.13-.1-.09-.1-.12-.12-.15a2.47 2.47 0 0 1-.22-.42l-.09-.25-.05-.27-.01-.3.01-.26c.02-.17.07-.34.12-.47l.07-.17.07-.14.1-.12zm-.76 1.37.03.07.05.19.15.54.16.54.05.18.01.09-.06-.04-.17-.13a1.39 1.39 0 0 1-.32-.54 1.13 1.13 0 0 1-.02-.63l.07-.2.05-.07zm2.92 2.42.07.12.13.3.14.46.08.54a2.87 2.87 0 0 1-.08 1.03.97.97 0 0 1-.17.3l-.07.07-.03.02.05-.12.05-.3-.02-.46-.03-.53-.09-.98-.01-.33-.02-.12zm.4-10.75.06.03.05.05c.01.02.05.06.05.09.03.07.07.15.07.24l-.05.28a.7.7 0 0 1-.16.24.7.7 0 0 1-.2.13l-.1.02h-.07l-.07-.02.04-.05.08-.11c.07-.09.12-.2.17-.33l.1-.35.02-.14.02-.08zm.12 4.9-.06.07c-.04.03-.07.05-.1.03-.04-.01-.06-.05-.06-.1v-.1l.07-.07c.04-.03.07-.05.1-.03.04.02.05.05.05.1v.1zm-.43.17v.1c0 .05-.02.09-.06.1-.03.02-.06 0-.1-.03l-.06-.07v-.1c0-.05.01-.08.05-.1.03-.02.06 0 .1.03l.07.07zm0-2.62s.05.07.06.19c.04.1.05.25.04.39a1.18 1.18 0 0 1-.1.37l-.1.17s-.06-.07-.07-.19a.96.96 0 0 1-.04-.39 1.18 1.18 0 0 1 .1-.37l.1-.17z"/>
      </g>
      <ellipse transform="rotate(-166.32 97.4324 68.5379)" fill="#F6F6F6" cx="97.43" cy="68.54" rx=".66" ry=".81"/>
      <ellipse transform="rotate(-166.32 97.4155 68.2253)" stroke="none" fill="#000" cx="97.42" cy="68.22" rx=".37" ry=".47"/>
    </g>
  </g>
</svg>
