<svg xmlns="http://www.w3.org/2000/svg" fill="#d7374a" stroke="#000" viewBox="50 50 200 200">
  <metadata author="Pierre Huttin" source="https://upload.wikimedia.org/wikipedia/commons/2/29/H%C3%A9raldique_Meuble_Saumon.svg" license="https://creativecommons.org/licenses/by-sa/3.0"/>
  <g id="salmon" stroke-width=".099">
    <g>
      <path class="secondary" stroke-width=".197" d="M95.08 92.802c.342-1.084 2.91-5.658 6.486-7.349 2.172 1.335 2.469 3.37 4.501 5.4.028.162.163.644-.163.745-1.839.569-3.793 1.637-4.44 1.966"/>
      <g fill="none">
        <path d="M96.347 92.468s-.011-1.541 5.035-6.283"/>
        <path d="M96.57 93.358c.016-1.433 3.771-5.354 5.252-6.123"/>
        <path d="M97.62 92.647s2.219-3.153 4.722-4.659"/>
        <path d="M97.736 93.754s2.783-3.778 5.639-5.016"/>
        <path d="M99.406 93.039s1.685-2.473 4.595-3.63"/>
        <path d="M99.948 93.17s1.016-1.548 3.872-2.706"/>
        <path d="M101.351 92.835s.858-.953 2.879-1.833"/>
      </g>
    </g>
    <g>
      <path stroke-width=".197" d="M64.016 100.504c.638.401 1.533 2.074 1.817 2.627.141.276.36.81.779 1.205s2.468-1.087-.656-4.976"/>
      <path class="secondary" stroke-width=".197" d="M115.293 95.01c4.435.043 3.888-1.482 6.912-.97 2.39 1.857-.824 2.224-2.542 2.581"/>
      <g>
        <path class="secondary" stroke-width=".197" d="M129.056 94.945s4.621-4.318 8.674-5.533c.916-.275 1.836.024 1.836.024 1.13 2.859-.59 8.126-.956 10.139.05 1.528 2 3.422 1.072 10.314-3.516.141-8.019-3.839-10.438-5.159l1.952-4.832z"/>
        <g fill="none">
          <path d="M130.97 95.389s1.694-3.492 7.533-4.913"/>
          <path d="M131.356 95.845s2.345-3.42 6.431-3.987"/>
          <path d="M131.743 96.377s1.355-2.801 6.432-3.795"/>
          <path d="M132.171 97.406s1.1-1.232 5.837-1.65"/>
          <path d="M131.936 96.72s1.705-2.078 6.134-2.876"/>
          <path d="M132.055 97.177s2.277-2.158 5.717-2.337"/>
          <path d="M132.366 97.94s3.668-.334 5.082-.345"/>
          <path d="M132.327 97.749s.109-.69 4.847-1.107"/>
          <path d="M131.113 104.028s1.746 3.466 7.606 4.798"/>
          <path d="M131.491 103.566s2.396 3.385 6.49 3.889"/>
          <path d="M131.87 103.028s1.397 2.78 6.489 3.698"/>
          <path d="M132.282 101.993s1.118 1.215 5.861 1.561"/>
          <path d="M132.058 102.683s1.736 2.051 6.176 2.782"/>
          <path d="M132.17 102.223s2.31 2.124 5.751 2.25"/>
          <path d="M132.47 101.456s3.672.278 5.086.268"/>
          <path d="M132.433 101.648s.12.687 4.863 1.033"/>
          <path d="M132.578 100.73s2.678.208 4.093.197"/>
          <path d="M132.525 98.665s2.674-.25 4.088-.26"/>
          <path d="M132.543 99.553s2.485.096 3.9.085"/>
          <path d="M132.538 99.013s2.486.096 3.9.085"/>
          <path d="M132.574 100.148s2.486.096 3.9.085"/>
        </g>
      </g>
      <g>
        <path class="secondary" stroke-width=".197" d="M112.93 106.04c1.044 1.597 3.58 4.705 6.268 5.453.351.01.84-.179.995-.363 1.842-2.188 1.888-3.273 1.92-3.604 1.74-2.384 1.127-3.056 1.127-3.056-.157-.534-1.64.548-4.29-1.076"/>
        <g fill="none">
          <path d="M114.498 106.219c3.087 3.646 5.84 3.626 5.84 3.626"/>
          <path d="M113.66 106.454c3.777 4.139 5.881 4.352 5.881 4.352"/>
          <path d="M115.26 105.869c1.893 2.585 4.535 3.1 4.535 3.1"/>
          <path d="M115.984 105.52c1.584 2.166 3.613 2.533 3.613 2.533"/>
          <path d="M116.975 105.13c1.12 1.558 2.654 2.082 2.654 2.082"/>
          <path d="M117.661 104.818c.543 1.067 1.959 1.17 1.959 1.17"/>
          <path d="M118.498 104.315c.35.647 1.344.716 1.344.716"/>
        </g>
      </g>
      <g>
        <path class="secondary" stroke-width=".197" d="M96.704 109.106c6.167 6.53 6.544 5.8 6.918 4.688"/>
        <path class="secondary" stroke-width=".197" d="M97.088 109.256c5.932 5.805 6.69 4.958 6.69 4.958 2.255-.017 1.644-4.695 1.569-4.868-.059-.133-.271-.358-.424-.38-1.127-.156-3.102-.702-3.102-.702"/>
        <path fill="none" d="m98.081 109.172 5.881 4.2"/>
        <path fill="none" d="m98.768 108.976 5.264 3.515"/>
        <path fill="none" d="m99.609 108.893 4.416 2.566"/>
        <path fill="none" d="m100.602 108.809 2.993 1.43"/>
      </g>
      <path stroke-width=".197" d="M67.056 103.77c-.764-.013-1.091-.65-1.474-.743-.77-.186-3.571.303-4.5-1.696-.422-.054-.702.222-.702.222-.438.156-.481.707-.481.707 5.62 7.584 35.035 7.114 36.98 6.964 6.167-.484 10.342-1.727 14.992-1.681.546-.073.994-.765 1.372-.876 3.297-.969 5.641-2.664 7.815-3.303 1.403-.308 2.053-.205 3.242-.268 4.04-.274 4.635 1.695 5.256 1.61 4.098-.032 4.252-9.765-.398-9.784 0 0-.692 1.465-4.688 2.144-10.451-2.307-14.9-4.212-29.18-4.915-.828-.043-12.7-.729-22.95 3.688-3.632.206-8.2 2.333-8.2 2.333s-3.308.055-3.126 1.43c.694.804 4.154.412 6.04 2.686.31.456.002 1.482.002 1.482z"/>
      <path fill="none" stroke-width=".197" d="M72.003 97.761c4.382-1.452 5.51 1.053 4.897 3.657-.644 2.737-4.454 5.303-5.909 5.963"/>
      <g fill="none">
        <path d="M71.006 98.201c1.897.58 1.15 5.399.69 5.51 0 0-1.585 1.398-3.774 1.3-.514-.024-.956-1.264-.956-1.264"/>
        <path d="M76.232 102.839c-1.294.47-4.647 2.535-4.524.858"/>
        <path d="M74.785 104.634c-2.37 1.045-3.199 1.083-2.913-.46"/>
        <path d="M68.68 105.362c.495 1.213 4.195.854 5.028.253"/>
        <path d="M67.756 104.964c1.764.933 3.3.76 4.134.16"/>
        <path d="M65.166 105.707c2.029.174 3.11.714 3.943.113"/>
      </g>
      <path fill="none" stroke-width=".197" d="M76.373 103.649c1.679-3.176 2.466-6.29-2.405-6.93"/>
      <path fill="none" stroke-width=".039" d="M77.75 100.074c6.978.434 25.932 1.562 51.992-.356"/>
      <g stroke="none">
        <path fill="#000" d="M66.293 99.263c.149.358 1.383.844 1.676.87.292.025.524-.02.894-.137.485-.154.898-.654.874-1.016-.034-.533-.545-.873-1.636-.82-.518.024-1.918.836-1.808 1.103z"/>
        <path fill="#f6f6f6" d="M68.045 98.316c-.417.078-.632.212-.59.479.043.267.366.792.81.74.442-.054 1.123-.474.91-.868-.155-.287-.442-.478-1.13-.351z"/>
      </g>
    </g>
    <g stroke="none" fill="#000">
      <path d="M78.343 97.377c.053.135-.05.303-.23.374-.18.072-.37.02-.424-.115-.053-.135.05-.303.23-.375.18-.071.37-.02.424.116z"/>
      <path d="M79.788 97.478c-.006.112-.169.198-.363.192-.194-.006-.346-.102-.34-.214.007-.112.17-.198.364-.192.193.006.345.102.339.214z"/>
      <path d="M79.493 98.617c.06.118-.044.306-.23.42-.187.115-.385.112-.444-.006-.058-.117.045-.305.231-.42.186-.114.385-.111.444.006z"/>
      <path d="M81.912 98.026c.13.01.233.16.23.333-.003.174-.112.306-.243.296-.13-.01-.234-.16-.23-.334.003-.173.112-.306.243-.295z"/>
      <path d="M86.56 98.423c.18.013.321.201.317.42-.005.218-.154.384-.334.371-.179-.013-.32-.2-.315-.419.004-.218.154-.385.333-.372z"/>
      <path d="M83.58 99.197c.099.087.073.3-.056.476-.13.175-.315.248-.413.16-.099-.087-.073-.3.056-.475.13-.176.315-.248.413-.161z"/>
      <path d="M83.54 97.616c-.097.088-.069.301.064.475.132.174.318.243.415.154.097-.088.069-.301-.064-.475-.132-.174-.318-.243-.415-.154z"/>
      <path d="M89.6 96.758c-.07.057-.05.193.046.303.096.111.23.155.301.099.071-.057.05-.193-.046-.303-.096-.111-.23-.155-.301-.099z"/>
      <path d="M94.126 98.73c.175.01.313.16.308.334a.306.306 0 0 1-.326.296.328.328 0 0 1-.31-.333.306.306 0 0 1 .328-.296z"/>
      <path d="M101.547 99.053a.28.28 0 0 1 .256.29.259.259 0 0 1-.271.258.28.28 0 0 1-.256-.29.259.259 0 0 1 .27-.258z"/>
      <path d="M101.801 96.076c.12-.14.298-.181.399-.094.1.086.085.27-.034.408-.12.139-.298.18-.399.094-.1-.087-.085-.27.034-.408z"/>
      <path d="M105.038 95.064c.119-.138.297-.18.398-.094.1.087.085.27-.034.409-.12.138-.298.18-.398.094-.1-.087-.086-.27.034-.409z"/>
      <path d="M111.101 96.1c.12-.14.298-.181.398-.094.101.086.086.27-.033.408-.12.139-.298.18-.399.094-.1-.087-.085-.27.034-.408z"/>
      <path d="M109.085 97.352a.28.28 0 0 1 .256.29.259.259 0 0 1-.271.258.28.28 0 0 1-.256-.29.259.259 0 0 1 .27-.258z"/>
      <path d="M113.508 96.494c.183.002.33.112.329.245-.002.133-.152.239-.335.237-.183-.002-.33-.112-.328-.245.001-.132.151-.239.334-.237z"/>
      <path d="M117.238 98.89c.14-.118.323-.132.408-.03.086.102.042.28-.098.398s-.323.132-.408.03c-.086-.102-.042-.28.098-.398z"/>
      <path d="M124.939 98.302c.145.006.26.1.255.209-.004.109-.126.193-.271.187-.146-.006-.26-.1-.256-.21.004-.109.126-.192.272-.186z"/>
      <path d="M129.83 97.305c.127.072.152.296.056.5-.096.204-.276.31-.404.237-.126-.072-.152-.296-.056-.5.096-.204.277-.31.404-.237z"/>
      <path d="M75.41 100.254c.13.01.234.16.23.334-.003.174-.112.306-.242.296-.13-.011-.234-.16-.23-.334.002-.174.111-.306.242-.296z"/>
      <path d="M75.617 99.46c-.007.111-.17.197-.363.191-.194-.006-.346-.102-.34-.213.007-.112.17-.198.363-.192.194.006.346.101.34.213z"/>
      <path d="M73.777 99.177c.13.01.234.16.23.334-.003.173-.112.306-.242.295-.13-.01-.234-.16-.23-.333.002-.174.111-.306.242-.296z"/>
      <path d="M73.512 100.264c-.07.056-.05.192.046.303.096.11.23.155.301.098.071-.056.05-.192-.045-.303-.096-.11-.231-.154-.302-.098z"/>
      <path d="M74.422 99.786c-.064.073-.045.25.043.393.087.144.21.201.275.128.064-.073.045-.249-.043-.393-.088-.143-.21-.2-.275-.128z"/>
      <path d="M76.188 99.541c.13.01.234.16.23.334-.002.173-.111.306-.242.295-.13-.01-.234-.16-.23-.333.003-.174.112-.306.242-.296z"/>
      <path d="M96.376 94.584c.138.008.248.121.244.253a.238.238 0 0 1-.258.224.253.253 0 0 1-.244-.252.238.238 0 0 1 .258-.225z"/>
      <path d="M73.407 98.32c.13.006.234.11.23.231-.004.121-.113.214-.243.207-.131-.007-.234-.111-.23-.232.004-.121.113-.214.243-.207z"/>
      <path d="M71.445 99.27c.131.008.234.112.23.233-.003.12-.112.213-.243.207-.13-.007-.234-.111-.23-.232.004-.122.113-.214.243-.207z"/>
      <path d="M69.048 100.685c.13.01.234.16.23.333-.003.174-.112.306-.243.296-.13-.01-.233-.16-.23-.334.003-.173.112-.306.243-.295z"/>
      <path d="M71.139 100.956c.058.117-.045.305-.231.42-.186.114-.385.111-.444-.006-.058-.118.045-.306.231-.42.186-.115.385-.112.444.005z"/>
      <path d="M69.787 100.598c-.07.056-.05.192.046.303.096.11.23.155.301.098.071-.056.05-.192-.046-.303-.095-.11-.23-.154-.301-.098z"/>
      <path d="M70.493 99.718c.13.01.234.16.23.334-.003.173-.111.306-.242.295-.13-.01-.234-.16-.23-.333.003-.174.111-.306.242-.296z"/>
    </g>
    <path class="secondary" stroke-width=".197" d="M74.91 106.85c1.809-.338 1.37-1.308 1.313-1.551 1.728-.257 5.456-3.182 9.152-1.665.048 2.73-3.941 4.302-4.535 4.414-2.8-.15-4.278-.886-5.93-1.198z"/>
    <g fill="none">
      <path d="M76.298 105.562c7.38-.164 8.52-.918 8.52-.918"/>
      <path d="M76.331 105.878s4.325.242 7.838-.32"/>
      <path d="M76.218 106.128s4.862.39 6.79.146"/>
      <path d="M75.972 106.416s3.412.898 5.458.978"/>
      <path d="M76.047 106.282s4.673.697 6.126.667"/>
      <path d="M75.801 106.609s2.706.942 4.255 1.102"/>
      <path d="M76.259 105.371c5.865-.669 8.38-1.7 8.38-1.7"/>
    </g>
    <path fill="none" stroke-width=".039" d="M77.75 100.074c6.978.434 25.932 1.562 51.992-.356"/>
  </g>
</svg>
