<svg xmlns="http://www.w3.org/2000/svg" fill="#d7374a" stroke="#000" viewBox="50 50 200 200">
  <metadata source="https://commons.wikimedia.org/wiki/File:Imbalanced_justice_scale_silhouette.svg" license="https://creativecommons.org/publicdomain/zero/1.0"/>
  <g id="scaleImbalanced" stroke-width=".4">
    <path d="M98.72 72.5c-2.12-.64-6.15-.2-7.8.19-2.21.5-3.3 1.04-5.6 3.11-1.93 1.73-2.42 2.4-4.03 2.42-1.62.02-2.54-.6-3.4-.69-.86-.08-1.87 1.06-1.88 1.33-.02.3-.37.01-.48-.17-.11-.19-1.43 1.02-1.24 1.54.2.52 1.83 1.69 1.88 1.01.04-.64.29-.76.57-.58.3.18 1.28.46 1.63 1.37.35.9-.06 1.28-.46 1.09-.4-.2-.56-.29-.68-.54-.13-.25-1.38.74-1.13.9.25.15.93 1.32 1.43 1.34.5.03.65.63.7.9.07.27.86.02.84-.04l-.15-.96s1.51-.49 1-2.41c-.52-1.93-1.73-2.28-1.3-2.52.44-.24 3.06.42 5.08.02 2.02-.4 4.27-3.03 7.88-3.86 2.68-.62 5.67 0 6.8.43h3.25c.84-.88 2.6-3.36 5.29-3.98 3.6-.83 6.79.55 8.78.01 1.99-.53 4.05-2.27 4.55-2.24.5.02-.44.87-.06 2.82.38 1.96 1.96 1.73 1.96 1.73l.27.93c.02.07.84-.06.78-.32-.07-.27-.2-.88.24-1.12.43-.24.54-1.6.69-1.84.15-.25-1.4-.6-1.4-.31 0 .28-.11.44-.38.78-.28.35-.81.2-.9-.77-.07-.97.68-1.65.87-1.95.18-.28.43-.28.76.28.33.58 1.3-1.19 1.25-1.74-.06-.55-1.77-1.06-1.79-.84-.02.21-.2.63-.35.37-.13-.24-1.53-.83-2.28-.37-.74.45-1.29 1.41-2.75 2.1-1.46.7-2.19.31-4.67-.4-2.99-.85-4.21-.84-6.42-.33-1.65.38-2.63 1.02-4.24 2.53z"/>
    <g class="secondary" stroke-width=".32">
      <g>
        <path d="M65.25 119.33c8.29 4.65 18.79 4.39 27 0 .68-.4-8.97-1.47-13.54-1.47-8.17 0-13.6.81-13.46 1.47zM78.9 84.1a6.3 6.3 0 0 1 0 1.54s.97-.01.97.21c0 .23-.12 4.28.23 4.68.35.4.57.32.73.1.17-.2.65-.18.7-.07.06.1.17.77-.17 1-.48.3-1.68.3-1.79-.87-.1-1.16-.1-2.15-.55-2.15-.16 0-.15.55-.15 1.17 0 .62.05.78.16.92.1.13.08 1.43 0 1.43h-.81c-.08 0-.1-1.3 0-1.43.1-.14.16-.3.16-.92 0-.62.08-1.17-.08-1.17-.5 0-.43.89-.54 2.05-.1 1.16-1.23 1.19-1.77 1-.54-.19-.27-.97-.22-1.08.07-.16.39-.02.59.1.23.14.46.3.8-.1.36-.41.39-4.43.39-4.66 0-.22.89-.2.89-.2.02-.52.1-1.04 0-1.55.23.12.35.07.46 0zm-.25 1.86c-.26 0-.47.04-.47.1v.73c0 .06.2.1.47.1.26 0 .47-.04.47-.1v-.73c0-.06-.21-.1-.47-.1z"/>
        <path d="M78.48 92.01c.5-.47.21-.13.24.3l-.1 30.18m-1.83-31.72c.06.02.08.18.03.36s-.14.38-.24.68c-3.21 9.67-6.73 19.23-10.11 28.84m13.9-29.88c-.08.02-.09.18-.04.36.04.18.14.38.23.68 3.22 9.67 6.73 19.23 10.12 28.84"/>
        <path d="M65.25 119.41c9.05 4 18.79 3.2 27 0-.18.93-4.82 6.66-13.87 6.66-8.92 0-13.13-6.01-13.13-6.66z"/>
      </g>
      <g>
        <path d="M122.51 73.75a6.3 6.3 0 0 0 0 1.54s-.97-.01-.97.21c0 .23.12 4.28-.23 4.68-.35.4-.57.32-.74.1-.16-.2-.64-.18-.7-.07-.05.1-.17.77.18 1 .48.3 1.68.3 1.78-.87.11-1.16.1-2.15.56-2.15.16 0 .15.55.15 1.17 0 .62-.05.78-.16.92-.11.13-.08 1.43 0 1.43h.8c.09 0 .12-1.3 0-1.43-.1-.14-.15-.3-.15-.92 0-.62-.08-1.17.08-1.17.49 0 .43.89.54 2.05.1 1.16 1.22 1.19 1.76 1 .54-.19.28-.97.23-1.08-.07-.16-.39-.02-.59.1-.23.14-.46.3-.81-.1-.35-.41-.38-4.43-.38-4.66 0-.22-.89-.2-.89-.2-.02-.52-.1-1.04 0-1.55-.23.12-.35.07-.46 0zm.25 1.86c.26 0 .47.04.47.1v.73c0 .06-.21.1-.47.1s-.47-.04-.47-.1v-.73c0-.06.21-.1.47-.1zm-13.28 33.37c8.29 4.65 18.78 4.39 27 0 .68-.4-8.98-1.47-13.55-1.47-8.16 0-13.6.81-13.45 1.47z"/>
        <path d="M122.87 81.52c-.43.26-.13-.23-.15.19l.06 30.43m-1.77-31.72c.07.02.08.18.04.36-.05.18-.15.38-.24.68-3.22 9.67-6.73 19.23-10.12 28.84m13.9-29.88c-.07.02-.08.18-.04.36.05.18.15.38.24.68 3.21 9.67 6.73 19.23 10.11 28.84"/>
        <path d="M109.48 109.06c9.04 4 18.78 3.2 27 0-.18.93-4.83 6.66-13.87 6.66-8.92 0-13.13-6.01-13.13-6.66z"/>
      </g>
    </g>
    <g>
      <path d="M84.97 134.46s-.1-1.62 2.38-1.66c2.47-.03 24.08 0 25.7 0 1.61 0 2.01 1.1 2 1.67-.04 1.38-11.15 4.25-11.16 4.19l-14.73-1.18c-1.4-1-3.38-.99-4.2-3.02z"/>
      <path d="M84.98 134.27v3.15c-.1 3.33 30.07 3.5 30.06 0v-3.15c.03 3.5-30.12 3.51-30.06 0z"/>
      <path d="M86.94 132.1c.04-.57 4.07-2.06 12.66-2.06 8.63 0 13.48 1.19 13.48 2.1 0 .23-2.66 2.04-2.66 2.04l-11.1 1.07-12.21-1.99z"/>
      <path d="M86.94 132.02v2.29c.05 2.1 26.14 2.4 26.13 0v-2.29c0 2.27-26.1 2.24-26.13 0z"/>
      <path d="M105.87 132.25s-3.68-.38-4.56-.97c-.87-.58-.68-.63-1.57-.63-.9 0-.7.05-1.58.63-.88.59-4.56.97-4.56.97"/>
      <path d="M96.84 128.8h6.34c.05.26-2.02 2.08-2.7 2.04h-1.3c-.76.02-2.35-1.94-2.34-2.04zm1.83-61.44v-1.39c.96-.42 1.71-.93 2.68 0v1.26z"/>
      <path d="m99.92 67.03-.32.02c-.12 0-.23.03-.34.05-.66.11-1.12.38-1.12.72v6.12c0 .33.46.6 1.12.72l.34.05.32.01h.13l.4-.01c.82-.07 1.43-.39 1.43-.77v-6.12c0-.38-.61-.7-1.42-.77h-.04l-.32-.01zm-1.53 60.65V77.1l3.24-.02-.02 50.93-3.22-.34z"/>
      <path d="M96.84 128.8h6.34c.05-.25-2.02-2.08-2.7-2.04h-1.3c-.76-.02-2.35 1.94-2.34 2.04zm1.47-51.77h3.32s-.54-.91-1.67-.91-1.65.87-1.65.91zm0-1.8h3.4s-.62-.97-1.75-.97-1.65.93-1.65.97z"/>
      <path d="M98.3 73.38h3.4s-.6.92-1.74.92a1.87 1.87 0 0 1-1.65-.92zm.78-9.46v1.03l-.08.03h-.02c-.4.07-.96.21-1.14.42-.07.08-.06.13 0 .2.1.14 1.04.58 2.1.58h.13c1.05 0 1.99-.44 2.1-.58.09-.11.06-.13 0-.2a2.99 2.99 0 0 0-1.14-.42h-.01l-.09-.03v-1.03z"/>
      <path d="M102.25 62.3a2.25 2.25 0 0 1-2.24 2.23 2.25 2.25 0 0 1-2.24-2.24 2.25 2.25 0 0 1 2.24-2.24 2.25 2.25 0 0 1 2.24 2.24z"/>
      <path d="M102.56 71.73c0-.7-.57-1.28-1.28-1.28h-2.55c-.7 0-1.27.58-1.27 1.28v5.06c0 .7.57 1.28 1.27 1.28h2.55c.7 0 1.28-.57 1.28-1.28z"/>
    </g>
  </g>
</svg>
