<svg xmlns="http://www.w3.org/2000/svg" fill="#d7374a" stroke="#000" viewBox="50 50 200 200">
  <metadata source="http://wappenwiki.org/images/f/fe/Giffard_Chillington.svg" license="https://creativecommons.org/licenses/by-nc-sa/3.0"/>
  <g id="stirrup" stroke-width=".53">
    <g>
      <path d="M105.05 99.03c2.76-5 6.83-11.61 6.83-22.01 0-5.65-.86-10.3-2.87-13.73-1.29-2.22-2.53-3.26-4.2-2.98-1.7.28-6.82 0-6.82 0 3.2.7 7.6 3.68 7.6 16.7 0 8.01-3.27 14.35-5.9 19.33"/>
      <g stroke="none">
        <g>
          <path d="M105.56 94.88c.46-1.04.99-1.95 1.53-3.4"/>
          <path fill="#000" d="M105.56 94.88a7.48 7.48 0 0 1 .63-1.76 9.17 9.17 0 0 1 .9-1.64 7.4 7.4 0 0 1-.58 1.78l-.44.83a7.57 7.57 0 0 1-.51.79z"/>
        </g>
        <g>
          <path d="M110.38 74.62c-.1-1.3-.28-2.53-.5-3.7"/>
          <path fill="#000" d="M110.38 74.62c-.09-.3-.16-.61-.2-.91l-.17-.92-.1-.91c-.04-.32-.06-.62-.04-.94a8.38 8.38 0 0 1 .48 1.82c.03.31.07.61.07.93.02.3.02.61-.04.93z"/>
        </g>
        <g>
          <path d="M110.35 79.97c.07-1 .12-2.02.12-3.04"/>
          <path fill="#000" d="M110.35 79.97a5.8 5.8 0 0 1-.1-1.53l.06-.76c.04-.24.07-.5.14-.75.07.24.1.5.13.77.01.27.03.51.01.78l-.07.75c-.03.23-.08.5-.17.74z"/>
        </g>
        <g>
          <path d="M107.74 90.67c.8-2.5 1.89-5.35 2.36-8.36"/>
          <path fill="#000" d="M107.74 90.67c.16-.72.35-1.4.55-2.1l.63-2.09.62-2.07.56-2.1a20.63 20.63 0 0 1-.84 4.28c-.22.69-.44 1.39-.7 2.06-.25.69-.54 1.35-.82 2.02z"/>
        </g>
        <g>
          <path d="M108.78 67.04a42.7 42.7 0 0 0-1.53-3.75"/>
          <path fill="#000" d="M108.78 67.04a11.05 11.05 0 0 1-.88-1.82l-.35-.95c-.1-.31-.21-.63-.28-.98.2.28.38.56.54.86a14.64 14.64 0 0 1 .78 1.87c.07.35.16.68.2 1.02z"/>
        </g>
      </g>
    </g>
    <g class="secondary">
      <path d="M107.48 102.34a4.71 4.71 0 0 1-.02-3.11c.14-.36.35-.67.5-1 .13-.36.2-.75.06-1.1-.2-.5-.75-.77-1.28-.88-1.6-.31-3.7-.31-6.44-.31-2.75 0-4.84 0-6.44.31-.53.1-1.08.39-1.29.88-.14.35-.07.74.07 1.1s.35.66.5 1a4.66 4.66 0 0 1-.04 3.13c-8.52 6.04-11.6 23.02-11.6 37.63h30.18c1.5 0 7.06-5.44 7.06-6.92 0-12.74-3.8-25.64-11.26-30.73zm-11.16-4.82.3-.1c.3.6.69 1.54 1.16 1.7.56.18.92.16 2.52.16s1.95.02 2.51-.16c.48-.14.87-1.1 1.17-1.7l.3.1c.6.25 1.56 1 1.56 1.69 0 .74-.39 1.4-1.18 1.65a12.62 12.62 0 0 0-8.74-.01 1.65 1.65 0 0 1-1.15-1.64c0-.69.95-1.44 1.55-1.7zm-8.03 35.94c0-13.85 3.03-30.48 11.94-30.48 8.9 0 11.93 16.63 11.93 30.48H88.29z"/>
      <g stroke="none" fill="#000">
        <path d="M100.24 101.37a7.92 7.92 0 0 1 4.83 1.6c1.4 1 2.51 2.31 3.45 3.72.91 1.4 1.65 2.94 2.27 4.5a38.8 38.8 0 0 1 1.53 4.8 60.8 60.8 0 0 1 1.74 14.92c-.02 1.67-.05 3.32-.1 5h-.06l-.07-2.5-.05-2.5a93.4 93.4 0 0 0-.26-4.98 59.9 59.9 0 0 0-1.64-9.83 39.95 39.95 0 0 0-1.55-4.71 25.29 25.29 0 0 0-2.25-4.4 13.1 13.1 0 0 0-3.31-3.57 8.57 8.57 0 0 0-3.31-1.4c-.4-.05-.8-.08-1.2-.08v-.57z"/>
      </g>
      <path fill="none" d="M112.18 133.46v2.97c0 1.02-.21 1.85-1.2 1.85H83.24c0-18.14 6.11-36.64 17-36.64"/>
      <g stroke="none" fill="#000">
        <polygon points="88.49 133.65 84.44 137.4 88.1 133.28"/>
      </g>
    </g>
    <path d="m103.1 96.36.82 1.39c.2.33 1.13 1.28 1.13 1.28-.1.23-.25.23-.48.23h-4.33c-1.39 0-1.98 0-2.48-.16-.4-.12-.72-.84-.98-1.35-2.68-5.26-5.86-11.64-5.86-20.73 0-6.45.72-9.33 2.87-13.73 1.83-3.77 5.9-3.33 7.6-3.05 1.69.28 3.41.07 3.41.07-3.2.7-7.6 3.68-7.6 16.7-.02 8.01 3.27 14.35 5.9 19.35z"/>
    <path d="M97.18 78.76c0 5.44-1.88 8.8-3.48 10.86-1.04 1.33-2.71 1.83-4.2 1.02-1.86-.99-1.58-3.63-.5-5.55 1.35-2.43 1.92-3.92 1.92-6.33"/>
    <circle cx="93.43" cy="82.12" r=".7"/>
    <path class="secondary" d="M97.43 78.09H90.8l.14-5.6h6.62l-.14 5.6zm1.37-6.83h-9.04l-.2 8.03h9.05l.2-8.03z"/>
    <circle cx="95.67" cy="66.75" r=".7"/>
    <circle cx="97.5" cy="62.72" r=".7"/>
    <path class="secondary" d="M94.98 75.4a.7.7 0 0 1-.63.75.7.7 0 0 1-.76-.63c-.03-.39.8-5.88 1.18-5.91s.18 5.4.21 5.79z"/>
  </g>
</svg>
