<svg xmlns="http://www.w3.org/2000/svg" fill="#d7374a" stroke="#000" viewBox="50 50 200 200">
  <metadata source="http://wappenwiki.org/images/3/3c/Logudoro.svg" license="https://creativecommons.org/licenses/by-nc-sa/3.0"/>
  <g id="tower" stroke-width=".33">
    <path d="m113.18 118.83 4.26 4.7v11.38c0 3.28-8.95 4.92-17.46 4.92s-17.47-1.64-17.47-4.92v-11.38l4.15-4.7h26.52z"/>
    <path d="m87.2 77.36-.54 41.47c2.18 2.08 11.13 2.18 13.32 2.18 6 0 13.2-1.09 13.2-2.18l-.54-41.47m-8.3-12.47v-4.15l-8.73-.11V65l-6.88.55v-4.27c-3.82.55-6.55 1.31-6.55 2.19l-.1 9.3.08.73c11.35-1.31 24.23-1.86 35.48.03V63.36c0-.77-2.73-1.54-6.55-2.08v4.26"/>
    <path d="M82.08 63.9v-2.07c1.3-.77 3.7-1.53 6.87-1.53v1.75c-3.6 0-6.33 1.42-6.87 1.86zm35.58 9.74c0-1.42-9.17-2.84-17.8-2.84s-17.68 1.42-17.68 2.84l4.37 4.27c0-.77 6.22-1.75 13.43-1.75s13.42 1.31 13.42 1.75z"/>
    <path d="M113.95 78.57c-.34.4-.72.49-1.1.33 0 0-3.05-1.54-12.98-1.54-4.37-.02-8.73.5-13 1.54-.64.14-.88-.07-1.08-.44-.11-.33 0-.77.43-.99.11-.1 3.28-1.75 13.65-1.75 4.47.29 9.5-.1 13.75 1.75.34.39.5.73.33 1.1z"/>
    <path d="M104.45 61.61s-2.18-.22-4.47-.22c-2.4 0-4.59.11-4.59.22l-.1-1.75c3.05-.23 6.21-.23 9.27 0zm13.32 2.3v-2.08c-1.32-.77-3.72-1.53-6.88-1.53v1.75c3.6 0 6.22 1.42 6.87 1.86z"/>
    <g fill="none">
      <path d="M82.51 123.53c0 1.97 8.84 3.4 17.47 3.4s17.46-1.87 17.46-3.4m-34.93 6.13c0 1.97 8.84 3.39 17.47 3.39s17.46-1.86 17.46-3.4"/>
      <path d="M88.73 65.55c-3.82.55-6.55 1.31-6.55 2.08m35.48 0c0-.77-2.73-1.53-6.55-2.08a81.86 82.05 0 0 0-15.5-.66"/>
      <path d="M87.1 83.49c.1-.1 3.05-.98 12.77-.98s12.66.87 12.88.98M87.1 89.51c.1-.11 3.05-.66 12.77-.66s12.66.55 12.88.66M87.1 95.4c.1 0 3.05-.32 12.77-.32s12.66.32 12.88.32m.22 5.8c-.22 0-3.39.22-13.1.22s-12.88-.22-13-.33m26.2 6.13c-.21 0-3.49.66-13.2.66s-13-.66-13.1-.66m26.2 6.45c-.22 0-3.17.77-13.1.77-9.83 0-12.88-.77-13-.77"/>
      <path d="M108.27 65.22v6.02m-16.04-6.02v6.02m7.75 23.96v-6.35m9.93 6.35v-6.13M89.93 95.2v-6.13m5.03 12.36V95.2m9.93 6.23v-6.12m-4.91-12.8v-5.15m9.5 5.58v-4.81m-19.1 4.81v-4.81m4.58 10.72v-6.34m9.93 6.34v-6.24m-4.91 25.17v-6.35m9.93 6.24v-6.24m-19.98 6.24v-6.24m5.03 13.02v-6.67m9.93 6.56v-6.45m5.02 12.36v-6.02m-19.98 6.02v-6.02m10.05 12.91v-6.34m0 19.03v-6.45m-13.21-1.43v-6.23m26.41 6.02v-6.24m-3.82-49.12 2.4-4.6m-8.3 3.94.55-4.81m-13.97 5.47-2.4-4.6m8.3 3.94-.55-4.81"/>
    </g>
    <path class="secondary" d="M98.45 139.83h3.05l3.39-.22v-19.9a4.88 4.88 0 0 0-5.02-5.04 4.94 4.94 0 0 0-5.02 5.03v19.91l3.6.22zm4.36-52.51c0-1.53 1.2-3.06 2.62-3.06 1.53 0 2.62 1.53 2.62 3.06v9.52h-5.24v-9.52zm-11.13 0c0-1.53 1.2-3.06 2.62-3.06s2.62 1.53 2.62 3.06v9.52h-5.24v-9.52z"/>
  </g>
</svg>
